<svg id="Layer_1" data-name="Layer 1" xmlns="http://www.w3.org/2000/svg" viewBox="0 0 215.81 152.69"><defs><style>.cls-1{fill:#0d92ff;}.cls-10,.cls-11,.cls-12,.cls-2,.cls-5,.cls-6,.cls-7,.cls-8,.cls-9{fill:none;stroke:#00325c;}.cls-10,.cls-11,.cls-12,.cls-2,.cls-5,.cls-6,.cls-8,.cls-9{stroke-miterlimit:10;}.cls-2{stroke-width:0.1px;}.cls-3{fill:#00325c;}.cls-4{fill:#787878;}.cls-5{stroke-width:0.07px;}.cls-6{stroke-width:0.09px;}.cls-7{stroke-miterlimit:3;stroke-width:0.83px;}.cls-8{stroke-width:0.14px;}.cls-9{stroke-width:0.06px;}.cls-10{stroke-width:0.57px;}.cls-11{stroke-width:0.08px;}.cls-12{stroke-width:0.31px;}</style></defs><title>aus-mar</title><polygon class="cls-1" points="165.74 74.92 165.4 74.61 164.94 74.45 164.6 74.27 164.68 73.92 164.51 73.77 164.45 73.73 164.53 73.33 164.61 73.12 164.75 72.93 164.57 72.73 164.29 72.22 164.13 72.12 163.9 72.08 163.7 71.96 163.34 71.56 163.24 71.23 163.23 70.76 163.17 70.37 162.94 69.59 162.94 69.49 162.96 69.24 162.94 69.15 162.89 69.07 162.8 69.04 162.64 68.9 162.51 68.84 162.4 68.77 162.35 68.64 162.33 68.54 162.28 68.42 162.24 68.31 162.2 68.26 162.14 68.22 162.16 68.11 162.22 67.98 162.25 67.89 162.19 67.72 162.04 67.55 161.88 67.42 161.8 67.38 161.51 67.35 161.4 67.28 161.36 67.15 161.37 66.91 161.39 66.81 161.43 66.75 161.46 66.61 161.59 65.45 161.65 65.14 161.8 64.85 162.17 64.31 162.25 64.02 162.36 63.81 162.6 63.62 162.83 63.37 162.94 62.99 162.81 61.97 162.31 61.39 162.11 59.95 161.77 59.47 161.53 59.45 160.98 59.65 160.7 59.68 160.43 59.59 159.91 59.24 159.69 59.16 159.14 59.19 158.91 59.15 158.72 59.01 158.62 58.76 158.57 58.44 158.45 58.18 158.18 58.06 157.91 58.03 157.05 57.78 156.8 57.63 156.67 57.58 156.54 57.6 156.28 57.71 156.13 57.72 155.71 57.66 155.46 57.82 154.73 59.08 154.57 59.22 154.34 59.29 154.26 59.27 154.07 59.11 153.77 59.15 153.75 59.17 151.74 58.87 150.41 58.95 149.64 58.62 148.19 57.56 148.17 57.45 148.17 57.3 148.09 57.21 147.85 57.27 147.83 57.04 147.73 56.94 147.56 56.94 147.38 56.98 147.53 56.78 147.41 56.79 147.3 56.74 147.14 56.63 146.87 56.61 146.77 56.57 146.7 56.45 146.64 56.19 146.56 56.12 146.11 56.13 145.99 56.16 145.48 56.43 145.23 56.5 144.9 56.5 144.58 56.43 143.46 55.79 142.27 55.33 141.55 54.71 141.25 54.54 140.6 54.32 139.91 53.97 139.59 53.88 138.91 53.87 138.84 53.82 138.78 53.71 138.71 53.62 138.6 53.62 138.54 53.71 138.5 54 138.46 54.12 138.25 54.36 138.18 54.41 137.08 54.7 136.8 54.7 136.89 54.38 136.9 54.09 136.84 53.79 136.73 53.48 135.6 53.39 134.81 53.11 134.49 53.15 134.44 53.19 134.42 53.26 134.42 53.37 134.43 53.48 134.24 53.95 134.23 54.57 134.29 55.24 134.29 55.84 133.98 57.21 133.88 57.49 133.85 57.64 133.88 57.78 133.95 57.95 134.01 58.09 134.04 58.13 133.87 58.52 133.58 58.54 132.84 58.24 132.09 58.13 131.87 58.22 131.78 58.42 131.72 58.69 131.58 58.95 131.51 59.36 130.75 60.03 130.47 60.47 130.42 61.06 130.43 61.72 130.36 62.29 130.07 62.58 129.83 62.56 129.72 62.42 129.63 62.22 129.48 62.01 129.38 61.99 129.16 62.07 129.05 62.05 129 61.96 129 61.82 128.99 61.68 128.89 61.6 128.67 61.62 128.24 61.82 128.02 61.87 127.85 61.83 127.28 61.53 126.93 61.12 126.72 61.27 126.4 62.13 126.17 62.36 125.42 62.68 125.13 62.92 125.02 62.96 124.88 62.98 123.45 62.47 121.4 62.24 120.91 62.04 120.79 61.93 120.54 61.62 120.48 61.5 120.41 61.2 120.44 61.14 120.52 61.11 120.62 60.9 120.66 60.88 120.73 60.89 120.8 60.87 120.82 60.73 120.79 60.6 120.7 60.54 120.6 60.5 120.53 60.43 120.43 60.25 120.2 59.88 120.07 59.74 119.1 59.21 118.78 58.95 118.52 58.74 118.24 58.59 117.66 58.44 117.23 59.34 117.2 59.55 117.27 59.52 117.43 59.83 117.5 59.9 117.68 59.98 117.49 60.16 117.45 60.43 117.53 61.13 117.51 61.49 117.47 61.81 117.38 62.09 117.13 62.63 117.06 62.73 116.95 62.85 116.83 62.9 116.53 62.95 116.48 62.94 116.36 63.18 116.23 63.76 116.2 63.73 115.61 63.46 115.39 63.13 115.16 62.95 114.9 62.81 113.41 62.4 112.92 62.46 112.45 62.64 112.32 62.76 112.25 62.91 112.25 62.99 112.3 63.09 112.36 63.48 112.49 63.69 112.52 63.88 112.48 64.09 112.29 64.5 112.22 64.7 112.19 64.9 112.22 65.52 112.19 65.74 112.12 65.89 112.06 66 112.03 66.11 111.95 66.57 111.75 66.91 110.34 68.14 109.85 68.41 107.86 68.76 106.37 69.36 106.14 69.52 105.6 70.03 105.14 70.3 104.91 70.48 104.93 70.53 104.13 70.68 103.91 70.8 103.78 70.94 103.52 71.36 103.33 71.58 102.76 71.98 102.7 72.05 102.49 72.37 102.4 72.41 102.31 72.41 102.22 72.44 102.13 72.59 102.1 72.89 102.17 73.17 102.3 73.43 102.44 73.64 103.45 74.7 103.67 75.18 103.71 75.44 103.79 75.67 103.91 75.84 104.25 76.05 104.54 76.35 104.66 76.41 104.9 76.65 105.39 77.78 105.7 78.25 105.77 78.31 104.84 79.81 104.76 79.98 104.73 80.11 104.73 80.25 104.7 80.39 104.61 80.54 104.61 80.54 104.61 80.55 104.34 80.96 104.57 81.2 105.38 81.35 105.59 81.31 105.96 81.15 106.18 81.19 106.36 81.32 106.54 81.54 106.82 82.02 106.94 82.33 106.97 82.6 106.97 82.86 106.94 83.12 106.9 83.17 106.73 83.59 106.72 83.65 106.49 83.95 106.45 83.94 106.46 84.42 106.49 84.41 106.47 84.44 106.34 84.79 106.3 84.84 106.3 85.21 106.32 85.35 106.35 85.46 106.39 85.57 106.43 85.7 106.44 85.88 106.02 86.37 105.92 86.45 105.77 86.46 105.68 86.41 105.6 86.32 105.46 86.25 105.31 86.25 105.19 86.32 105.07 86.36 104.91 86.29 104.2 85.76 103.55 85.03 103.42 84.94 103.28 84.89 103.06 84.85 102.71 84.56 102.63 84.04 102.81 83.54 103.2 83.35 102.92 83.07 102.54 82.82 102.31 82.55 102.46 82.17 102.21 82.2 101.41 82 100.89 82 100.38 82.12 100.1 82.26 99.46 82.83 99.23 82.93 98.93 82.99 98.63 82.98 98.43 82.88 98 82.54 97.89 82.4 97.81 82.22 97.65 81.77 97.59 81.64 97.35 81.6 96.78 81.82 96.54 81.86 95.71 81.68 95.39 81.72 95.07 81.89 94.91 81.92 94.77 81.79 94.69 81.55 94.74 81.4 94.83 81.28 94.88 81.11 94.92 80.88 94.97 80.78 94.93 80.79 94.72 80.88 94.59 80.96 94.25 81.25 94.02 81.34 94.05 81.52 94.09 81.63 94.2 81.77 94.32 81.89 94.39 81.94 94.43 82.06 94.45 82.63 94.44 82.83 94.39 82.96 93.98 83.49 93.86 83.51 90.55 83.37 89.33 83.62 89.17 83.71 89.03 84.08 88.88 84.13 88.07 83.96 86.89 83.95 86.26 83.83 86 83.82 85.95 83.88 85.54 84.23 85.45 84.46 85.33 84.95 85.26 85.15 85 85.44 84.68 85.56 84.01 85.67 83.68 85.57 83.32 85.52 83 85.6 82.32 86.38 82.5 86.43 82.65 86.53 82.71 86.69 82.58 86.9 82.35 87 81.72 87.02 81.45 87.1 81.17 87.36 80.98 87.62 80.78 87.84 80.46 87.98 80.12 87.95 80.15 87.37 79.84 87.24 79.48 87.34 78.53 87.99 78.25 88.08 76.75 88.06 76.55 87.94 76.4 87.65 76.43 87.65 76.48 87.55 76.51 87.41 76.51 87.26 76.47 87.17 75.75 86.39 75 86.05 74.9 85.88 75.37 85.56 75.49 85.41 75.16 85.16 75 85.08 74.81 85.06 74.6 85.12 74.02 85.39 73.6 85.44 73.47 85.4 73.4 85.3 73.35 85.19 73.29 85.12 71.39 84.4 71.04 84.4 70.84 84.54 70.55 84.95 70.36 85.09 70.19 85.12 69.58 85.03 69.35 84.93 69.24 84.84 69.16 84.75 69.14 84.56 69.19 84.43 69.26 84.32 69.28 84.24 69.21 84.04 69.16 84 69.05 84.05 68.81 84.09 68.59 84.17 68.61 84.36 68.74 84.59 68.84 84.83 68.82 85.03 68.67 85.88 68.88 85.99 69 86.13 69.07 86.31 69.14 86.58 69.14 87.03 69.01 87.51 68.8 87.94 68.56 88.26 68.43 88.34 68.13 88.45 67.98 88.55 67.89 88.68 67.57 89.33 67.31 89.68 67.03 89.93 66.39 90.33 66.07 90.45 64.93 90.59 64.86 90.56 64.92 90.42 65.05 90.18 65.11 90.14 65.3 90.09 65.37 90.02 65.41 89.88 65.4 89.75 65.36 89.61 65.63 88.82 65.64 88.44 65.37 88.3 64.74 88.41 64.57 88.6 64.51 88.65 64.43 88.65 64.28 88.56 64.21 88.55 64.02 88.64 63.91 88.72 63.81 88.73 63.67 88.59 63.6 88.39 63.58 88.16 63.55 87.94 63.39 87.75 63.72 87.5 63.78 87.27 63.65 87.03 62.95 85.99 62.78 86.06 62.65 86.17 62.52 86.23 62.37 86.13 62.35 86.01 62.34 85.94 62.34 85.88 62.21 85.59 62.03 85.41 61.88 85.21 61.84 84.86 61.66 85 61.45 85.05 61.02 85.01 60.58 84.85 60.51 84.87 60.33 84.98 60.22 84.99 59.92 84.84 59.87 84.62 59.9 84.36 59.85 84.1 59.68 83.92 59.47 83.85 59.26 83.87 59.05 83.98 58.74 84.35 58.56 84.74 58.35 85.06 57.95 85.25 57.03 85.26 56.13 85.02 56.09 84.99 56.09 85 56.2 85.5 56.63 86.14 57.16 86.39 57.58 86.75 57.57 87.65 57.42 87.97 56.87 88.68 56.8 88.87 56.72 89.24 56.66 89.39 56.18 89.98 55.71 90.77 55.84 90.96 56.09 91.19 55.99 91.48 56.05 91.67 56.19 91.85 56.31 92.14 56.3 92.3 56.16 92.61 56.16 92.8 56.59 93.05 56.93 93.53 57.08 94.07 56.98 94.62 56.58 95.12 56.85 95.19 57.6 95.1 57.84 95.14 60.57 96 60.55 96.24 60.61 96.29 60.7 96.28 60.75 96.35 60.75 96.47 60.69 96.67 60.66 97.17 60.61 97.39 60.63 97.59 60.82 97.85 61.17 98.13 62.72 98.62 63.27 99.15 63.6 99.34 64.22 99.54 64.52 99.55 64.9 99.45 65.52 99.13 65.67 98.91 65.71 98.75 65.72 98.58 65.79 98.31 66.01 97.94 66.25 97.89 66.53 97.97 66.88 97.95 66.89 97.56 67.14 97.08 67.51 96.66 67.93 96.42 68.01 96.4 68.08 96.42 68.16 96.47 68.16 96.47 68.31 96.63 68.61 97.12 69.11 97.5 69.23 97.66 69.31 98.01 69.13 98.73 69.16 99.18 69.63 99.56 70.23 99.62 71.7 99.22 71.95 99.19 72.17 99.25 73.28 99.91 73.42 100.12 73.35 100.27 73.03 100.53 72.96 100.63 73.05 100.82 73.2 100.82 73.51 100.73 73.67 100.78 74.09 101.02 74.23 101.02 74.5 100.94 74.65 100.95 74.78 101.01 75.03 101.23 75.17 101.29 75.32 101.28 75.8 101.11 76.05 101.08 76.55 101.13 76.8 101.21 77 101.18 77.2 100.97 77.53 100.42 77.58 100.36 77.74 100.29 77.81 100.22 77.83 100.11 77.82 99.9 77.83 99.81 78.1 99.17 78.25 98.43 78.37 98.17 79.3 97.24 79.56 97.08 80.56 96.76 81.57 96.59 82.09 96.7 82.54 96.92 82.97 96.94 83.47 96.47 83.47 96.47 83.58 96.3 83.71 96.21 83.85 96.17 84.1 96.23 84.2 96.29 84.28 96.37 84.36 96.47 84.48 96.55 84.61 96.57 84.75 96.54 84.88 96.47 84.89 96.47 84.89 96.47 85.31 96.34 85.65 96.31 86.39 96.47 86.4 96.47 86.42 96.47 86.53 96.48 86.63 96.47 86.91 96.49 87.38 96.84 87.65 96.94 87.81 96.9 88.1 96.67 88.26 96.57 88.91 96.47 89.41 96.07 90.02 95.74 90.66 95.52 91.69 95.47 93.14 94.71 94.08 94.53 94.42 94.64 94.41 95.2 94.1 95.61 93.23 96.1 93.08 96.47 93.17 96.68 93.23 96.92 93.32 97.41 93.42 97.64 93.51 97.84 93.51 98.03 93.3 98.24 93.45 98.31 93.79 98.37 93.95 98.45 94.12 98.61 94.2 98.75 94.29 98.85 94.48 98.92 95.09 98.94 95.32 99.1 95.45 99.56 95.45 99.82 95.42 99.97 95.36 100.12 95.32 100.36 95.32 100.63 95.35 100.77 95.43 100.86 95.57 100.95 95.88 101.07 96.18 101.11 96.41 101.26 96.54 101.72 96.81 102.4 97.31 102.84 97.9 103.08 98.68 103.22 99.13 103.52 99.37 103.63 99.58 103.65 100.42 103.54 101.13 103.62 101.27 103.68 101.53 103.88 101.66 103.94 101.8 103.93 102.03 103.84 102.14 103.83 102.63 103.99 103.45 104.53 106.83 104.77 108.01 105.04 108.93 105.6 109.23 105.73 109.81 105.75 111.28 105.44 111.92 105.55 112.79 105.49 112.89 105.53 113.09 105.76 113.21 105.84 113.82 105.86 115.57 106.43 115.78 106.45 116.01 106.4 116.23 106.42 117.18 106.65 117.37 106.65 118.31 106.5 118.75 106.57 120.07 107.19 120.3 107.22 120.79 107.14 121.05 107.14 121.28 107.21 121.49 107.32 122.3 108.02 122.49 108.07 125.55 108.16 126.03 108.05 126.19 108.08 126.25 108.18 126.3 108.3 126.38 108.4 126.83 108.6 127.07 108.64 127.56 108.52 127.76 108.79 127.93 109.15 128.12 109.35 128.37 109.24 128.5 108.9 128.62 108.49 128.84 108.19 128.97 108.13 129.29 108.1 129.44 108.06 129.58 107.96 129.87 107.66 129.94 107.64 130.13 107.67 130.23 107.42 130.4 107.22 130.47 107.07 130.56 106.97 130.8 106.86 130.93 106.96 131.3 106.89 131.62 106.75 131.7 106.68 131.97 106.06 132.18 105.4 132.35 105.05 132.59 104.7 132.77 104.63 132.97 104.65 133.27 104.61 133.79 104.28 134 104.32 134.27 104.72 134.81 103.95 135.64 103.69 137.7 103.91 140.35 103.77 140.77 103.93 141.1 104.22 141.42 104.42 141.85 104.34 142.12 104.13 142.22 103.92 142.26 103.69 142.4 103.39 142.63 103.22 142.93 103.14 143.24 103.14 143.46 103.2 143.65 103.14 143.79 103.03 143.88 102.85 143.88 102.58 143.93 102.26 144.15 102.4 145.26 102.57 145.64 102.55 146.62 102.15 147.02 102.12 147.42 102.2 148.4 102.69 148.99 102.79 149.14 102.91 149.42 103.25 149.38 102.76 149.22 102.44 148.91 102.24 148.75 101.73 148.74 101.36 148.76 100.99 148.86 100.34 148.85 100.19 148.78 100.14 148.77 100.1 148.91 99.95 148.99 99.9 149.64 99.74 150.53 99.21 150.76 99.11 150.94 98.93 151.47 98.21 151.64 98.04 152 97.77 152.3 97.64 152.4 97.57 152.5 97.41 152.51 97.28 152.5 97.17 152.54 97.04 152.68 96.91 152.82 96.88 152.94 96.78 153 96.47 153.14 96.23 153.34 96.2 153.87 96.31 154.46 96.24 154.77 96.28 155.01 96.47 155.09 96.53 155.17 96.55 155.24 96.53 155.3 96.47 155.3 96.47 155.54 96.42 155.92 96.42 156.19 96.35 156.13 96.13 155.92 95.93 155.71 95.87 155.3 95.81 155.48 95.65 156.13 95.39 156.29 95.29 156.35 95.17 156.3 95.06 156.13 94.97 155.83 94.88 155.73 94.6 155.82 94.29 156.13 94.1 156.46 93.67 156.52 93.42 156.35 93.16 156.11 93.14 155.62 93.37 155.43 93.25 155.43 93.13 155.55 92.77 155.55 92.58 155.45 92.44 155.33 92.43 155.22 92.44 155.13 92.37 155.08 92.02 155.3 91.56 155.25 91.19 155.25 91.19 155.7 90.94 155.9 90.76 156 90.47 155.94 90.12 155.5 89.2 155.47 89.16 155.4 89.14 155.34 89.1 155.29 89.02 155.3 88.89 155.37 88.84 155.44 88.8 155.47 88.74 155.43 87.92 155.58 87.65 155.76 87.61 155.95 87.74 156.13 88.02 157.68 87.31 158.42 86.73 158.36 85.87 158.53 85.7 158.95 85.52 159.1 85.25 159.11 84.92 159 84.65 158.8 84.45 158.56 84.31 158.64 83.9 158.52 83.47 158.26 83.13 157.95 82.99 157.48 83.07 156.52 82.68 156.13 82.77 155.32 82.44 155.06 82.29 155.18 82.13 155.4 81.78 155.51 81.67 155.59 81.77 155.66 81.84 155.73 81.85 155.83 81.8 156 81.64 156.57 81.33 156.7 81.22 156.78 81.03 156.75 80.75 156.84 80.54 157.37 80.31 157.97 80.38 159.12 80.83 159.31 80.96 159.38 81.15 159.44 81.38 159.55 81.6 159.71 81.77 159.87 81.86 160.68 81.99 160.81 81.96 160.96 81.8 161.25 81.35 161.44 81.19 161.65 81.75 162.19 81.85 163.34 81.56 164.39 81.42 164.69 81.28 164.52 81.18 164.4 81.02 164.33 80.8 164.3 80.1 164.2 79.67 164.18 79.3 164.4 79.06 164.31 78.92 164.17 78.53 164.06 78.44 163.75 78.3 163.66 78.2 163.66 77.97 163.84 77.88 164.34 77.76 164.57 77.58 164.72 77.36 164.8 77.08 164.86 76.7 164.83 76.65 164.75 76.63 164.69 76.59 164.67 76.49 164.71 76.43 164.84 76.34 164.87 76.3 164.91 76.12 164.98 75.99 164.99 75.85 164.83 75.68 165.74 74.92"/><path class="cls-2" d="M195.29,53c-15,3.71-27.63,14.72-36,35.63" transform="translate(-19.28 -25.3)"/><path class="cls-3" d="M159.34,88.61a0.77,0.77,0,0,1,.5,0,1.43,1.43,0,0,0-.66.36,1.51,1.51,0,0,0-.23-0.72A0.8,0.8,0,0,1,159.34,88.61Z" transform="translate(-19.28 -25.3)"/><path class="cls-4" d="M207.79,51.36h-0.88L205.38,49h-1.2v2.38h-0.75v-6h2.41a1.9,1.9,0,0,1,1.36.5,1.73,1.73,0,0,1,.52,1.31,1.65,1.65,0,0,1-1.56,1.75Zm-2-3a1.18,1.18,0,0,0,.86-0.32,1.1,1.1,0,0,0,.33-0.83,1.09,1.09,0,0,0-.33-0.82,1.2,1.2,0,0,0-.86-0.32h-1.58v2.29h1.58Z" transform="translate(-19.28 -25.3)"/><path class="cls-4" d="M212.49,51.36h-0.67V50.75a2.23,2.23,0,0,1-.68.51,1.91,1.91,0,0,1-.87.21,1.22,1.22,0,0,1-1.39-1.39V47h0.67v2.86a1,1,0,0,0,.25.76,1,1,0,0,0,.72.22,1.54,1.54,0,0,0,.73-0.19,1.57,1.57,0,0,0,.55-0.47V47h0.67v4.35Z" transform="translate(-19.28 -25.3)"/><path class="cls-4" d="M215.21,51.47a2.3,2.3,0,0,1-1.75-.68l0.35-.49a1.77,1.77,0,0,0,.62.44,1.93,1.93,0,0,0,.81.18,1.22,1.22,0,0,0,.76-0.21,0.65,0.65,0,0,0,.27-0.54,0.51,0.51,0,0,0-.28-0.46,2.27,2.27,0,0,0-.67-0.25l-0.79-.2a1.54,1.54,0,0,1-.67-0.39,1,1,0,0,1-.28-0.72,1.11,1.11,0,0,1,.44-0.89,1.8,1.8,0,0,1,1.18-.36,2.18,2.18,0,0,1,1.61.63l-0.31.47a1.6,1.6,0,0,0-1.3-.55,1.15,1.15,0,0,0-.7.19,0.59,0.59,0,0,0-.26.49,0.45,0.45,0,0,0,.28.41,2.59,2.59,0,0,0,.67.23q0.39,0.08.79,0.2a1.5,1.5,0,0,1,.67.41,1.05,1.05,0,0,1,.28.76,1.17,1.17,0,0,1-.45.95A1.94,1.94,0,0,1,215.21,51.47Z" transform="translate(-19.28 -25.3)"/><path class="cls-4" d="M219.4,51.47a2.3,2.3,0,0,1-1.75-.68L218,50.3a1.77,1.77,0,0,0,.62.44,1.93,1.93,0,0,0,.81.18,1.22,1.22,0,0,0,.76-0.21,0.65,0.65,0,0,0,.27-0.54,0.51,0.51,0,0,0-.28-0.46,2.27,2.27,0,0,0-.67-0.25l-0.79-.2a1.55,1.55,0,0,1-.67-0.39,1,1,0,0,1-.28-0.72,1.11,1.11,0,0,1,.44-0.89,1.8,1.8,0,0,1,1.18-.36,2.18,2.18,0,0,1,1.61.63l-0.31.47a1.6,1.6,0,0,0-1.3-.55,1.15,1.15,0,0,0-.7.19,0.59,0.59,0,0,0-.26.49,0.45,0.45,0,0,0,.28.41,2.57,2.57,0,0,0,.67.23c0.26,0.06.52,0.12,0.79,0.2a1.5,1.5,0,0,1,.67.41,1.06,1.06,0,0,1,.28.76,1.17,1.17,0,0,1-.45.95A1.93,1.93,0,0,1,219.4,51.47Z" transform="translate(-19.28 -25.3)"/><path class="cls-4" d="M222.54,46.39a0.44,0.44,0,0,1-.32-0.13,0.43,0.43,0,0,1-.13-0.32,0.44,0.44,0,0,1,.13-0.32,0.43,0.43,0,0,1,.32-0.13,0.46,0.46,0,0,1,.46.46,0.43,0.43,0,0,1-.13.32A0.45,0.45,0,0,1,222.54,46.39Zm0.34,5h-0.68V47h0.68v4.35Z" transform="translate(-19.28 -25.3)"/><path class="cls-4" d="M227.62,51.36h-0.67v-0.5a1.86,1.86,0,0,1-1.44.6,1.6,1.6,0,0,1-1.06-.39A1.31,1.31,0,0,1,224,50a1.29,1.29,0,0,1,.45-1.06,1.63,1.63,0,0,1,1.07-.37,1.8,1.8,0,0,1,1.44.59V48.4a0.82,0.82,0,0,0-.31-0.67,1.24,1.24,0,0,0-.79-0.24,1.77,1.77,0,0,0-1.33.6l-0.31-.47a2.31,2.31,0,0,1,1.74-.72,1.94,1.94,0,0,1,1.22.36,1.31,1.31,0,0,1,.47,1.11v3ZM225.75,51a1.37,1.37,0,0,0,1.2-.54V49.62a1.37,1.37,0,0,0-1.2-.54,1.12,1.12,0,0,0-.77.26,0.88,0.88,0,0,0-.3.69,0.87,0.87,0,0,0,.3.68A1.12,1.12,0,0,0,225.75,51Z" transform="translate(-19.28 -25.3)"/><path class="cls-4" d="M208.4,78.77h-0.72L204.18,74v4.79h-0.75v-6h0.76l3.46,4.69V72.76h0.75v6Z" transform="translate(-19.28 -25.3)"/><path class="cls-4" d="M210.11,73.8a0.43,0.43,0,0,1-.31-0.13,0.43,0.43,0,0,1-.13-0.32A0.44,0.44,0,0,1,209.8,73a0.43,0.43,0,0,1,.31-0.13,0.46,0.46,0,0,1,.46.46,0.43,0.43,0,0,1-.13.32A0.45,0.45,0,0,1,210.11,73.8Zm0.34,5h-0.67V74.42h0.67v4.35Z" transform="translate(-19.28 -25.3)"/><path class="cls-4" d="M213.55,80.53a3,3,0,0,1-1-.14,2.06,2.06,0,0,1-.77-0.51l0.34-.5a1.74,1.74,0,0,0,1.41.59,1.54,1.54,0,0,0,1-.32,1.19,1.19,0,0,0,.4-1V78a1.88,1.88,0,0,1-.63.56,1.67,1.67,0,0,1-.83.22,1.78,1.78,0,0,1-1.4-.61,2.79,2.79,0,0,1,0-3.29,1.77,1.77,0,0,1,1.4-.61,1.74,1.74,0,0,1,1.46.77V74.42h0.67v4.22a1.7,1.7,0,0,1-.58,1.44A2.38,2.38,0,0,1,213.55,80.53Zm0.1-2.3A1.5,1.5,0,0,0,214.4,78a1.46,1.46,0,0,0,.54-0.5v-1.9a1.43,1.43,0,0,0-.54-0.5,1.52,1.52,0,0,0-.76-0.2,1.24,1.24,0,0,0-1,.46,2.09,2.09,0,0,0,0,2.39A1.25,1.25,0,0,0,213.65,78.23Z" transform="translate(-19.28 -25.3)"/><path class="cls-4" d="M218.93,78.88a2.13,2.13,0,0,1-1.59-.63,2.26,2.26,0,0,1-.62-1.65,2.29,2.29,0,0,1,.61-1.62,2,2,0,0,1,1.53-.66,1.9,1.9,0,0,1,1.53.66,2.48,2.48,0,0,1,.56,1.67v0.17h-3.52a1.65,1.65,0,0,0,.47,1.07,1.47,1.47,0,0,0,1.1.43,1.79,1.79,0,0,0,1.34-.55l0.32,0.44A2.34,2.34,0,0,1,218.93,78.88Zm1.35-2.56a1.57,1.57,0,0,0-.38-1,1.29,1.29,0,0,0-1.05-.45,1.27,1.27,0,0,0-1,.44,1.65,1.65,0,0,0-.4,1h2.85Z" transform="translate(-19.28 -25.3)"/><path class="cls-4" d="M222.71,78.77H222V74.42h0.67v0.7a1.78,1.78,0,0,1,1.45-.79V75l-0.27,0a1.31,1.31,0,0,0-.67.22,1.42,1.42,0,0,0-.51.48v3.08Z" transform="translate(-19.28 -25.3)"/><path class="cls-4" d="M225.34,73.8a0.44,0.44,0,0,1-.32-0.13,0.43,0.43,0,0,1-.13-0.32A0.44,0.44,0,0,1,225,73a0.43,0.43,0,0,1,.32-0.13,0.46,0.46,0,0,1,.46.46,0.43,0.43,0,0,1-.13.32A0.45,0.45,0,0,1,225.34,73.8Zm0.34,5H225V74.42h0.68v4.35Z" transform="translate(-19.28 -25.3)"/><path class="cls-4" d="M230.42,78.77h-0.67v-0.5a1.86,1.86,0,0,1-1.44.6,1.6,1.6,0,0,1-1.06-.39,1.31,1.31,0,0,1-.46-1.05,1.29,1.29,0,0,1,.45-1.06,1.63,1.63,0,0,1,1.07-.37,1.8,1.8,0,0,1,1.44.59V75.82a0.82,0.82,0,0,0-.31-0.67,1.24,1.24,0,0,0-.79-0.24,1.77,1.77,0,0,0-1.33.6L227,75a2.31,2.31,0,0,1,1.74-.72,1.94,1.94,0,0,1,1.22.36,1.31,1.31,0,0,1,.47,1.11v3Zm-1.87-.38a1.37,1.37,0,0,0,1.2-.54V77a1.37,1.37,0,0,0-1.2-.54,1.12,1.12,0,0,0-.77.26,0.88,0.88,0,0,0-.3.69,0.87,0.87,0,0,0,.3.68A1.12,1.12,0,0,0,228.55,78.39Z" transform="translate(-19.28 -25.3)"/><path class="cls-4" d="M204.18,108.49h-0.75v-6h2.41a1.82,1.82,0,0,1,1.38.52,1.89,1.89,0,0,1,0,2.57,1.82,1.82,0,0,1-1.37.52h-1.67v2.38Zm1.58-3.05a1.2,1.2,0,0,0,.86-0.32,1.18,1.18,0,0,0,0-1.65,1.2,1.2,0,0,0-.86-0.32h-1.58v2.29h1.58Z" transform="translate(-19.28 -25.3)"/><path class="cls-4" d="M211.9,108.49h-0.67V108a1.86,1.86,0,0,1-1.44.6,1.6,1.6,0,0,1-1.06-.39,1.31,1.31,0,0,1-.46-1.05,1.29,1.29,0,0,1,.45-1.06,1.63,1.63,0,0,1,1.07-.37,1.8,1.8,0,0,1,1.44.59v-0.78a0.82,0.82,0,0,0-.31-0.67,1.24,1.24,0,0,0-.79-0.24,1.77,1.77,0,0,0-1.33.6l-0.31-.47a2.31,2.31,0,0,1,1.74-.72,1.94,1.94,0,0,1,1.22.36,1.31,1.31,0,0,1,.47,1.11v3Zm-1.87-.38a1.37,1.37,0,0,0,1.2-.54v-0.82a1.37,1.37,0,0,0-1.2-.54,1.12,1.12,0,0,0-.77.26,0.88,0.88,0,0,0-.3.69,0.87,0.87,0,0,0,.3.68A1.12,1.12,0,0,0,210,108.11Z" transform="translate(-19.28 -25.3)"/><path class="cls-4" d="M217.08,108.49h-0.86l-1.57-2-0.72.71v1.24h-0.68v-6h0.68v4l2.29-2.31h0.85l-1.93,2Z" transform="translate(-19.28 -25.3)"/><path class="cls-4" d="M218.21,103.52a0.44,0.44,0,0,1-.31-0.13,0.43,0.43,0,0,1-.13-0.32,0.44,0.44,0,0,1,.13-0.32,0.43,0.43,0,0,1,.31-0.13,0.46,0.46,0,0,1,.46.46,0.43,0.43,0,0,1-.13.32A0.45,0.45,0,0,1,218.21,103.52Zm0.34,5h-0.67v-4.35h0.67v4.35Z" transform="translate(-19.28 -25.3)"/><path class="cls-4" d="M221.28,108.6a2.3,2.3,0,0,1-1.75-.68l0.35-.49a1.77,1.77,0,0,0,.62.44,1.93,1.93,0,0,0,.81.18,1.22,1.22,0,0,0,.76-0.21,0.65,0.65,0,0,0,.27-0.54,0.51,0.51,0,0,0-.28-0.46,2.27,2.27,0,0,0-.67-0.25l-0.79-.2a1.54,1.54,0,0,1-.67-0.39,1,1,0,0,1-.28-0.72,1.11,1.11,0,0,1,.44-0.89,1.8,1.8,0,0,1,1.18-.36,2.18,2.18,0,0,1,1.61.63l-0.31.47a1.6,1.6,0,0,0-1.3-.55,1.15,1.15,0,0,0-.7.19,0.59,0.59,0,0,0-.26.49,0.45,0.45,0,0,0,.28.41,2.59,2.59,0,0,0,.67.23q0.39,0.08.79,0.2a1.5,1.5,0,0,1,.67.41,1.05,1.05,0,0,1,.28.76,1.17,1.17,0,0,1-.45.95A1.94,1.94,0,0,1,221.28,108.6Z" transform="translate(-19.28 -25.3)"/><path class="cls-4" d="M225.18,108.6a0.94,0.94,0,0,1-.72-0.26,1.07,1.07,0,0,1-.24-0.76v-2.84H223.5v-0.59h0.72V103h0.67v1.19h0.88v0.59H224.9v2.7a0.66,0.66,0,0,0,.11.41,0.38,0.38,0,0,0,.33.15,0.59,0.59,0,0,0,.46-0.18l0.2,0.5A1.13,1.13,0,0,1,225.18,108.6Z" transform="translate(-19.28 -25.3)"/><path class="cls-4" d="M230.13,108.49h-0.67V108a1.86,1.86,0,0,1-1.44.6,1.6,1.6,0,0,1-1.06-.39,1.31,1.31,0,0,1-.46-1.05,1.29,1.29,0,0,1,.45-1.06,1.63,1.63,0,0,1,1.07-.37,1.8,1.8,0,0,1,1.44.59v-0.78a0.81,0.81,0,0,0-.31-0.67,1.23,1.23,0,0,0-.79-0.24,1.77,1.77,0,0,0-1.33.6l-0.32-.47a2.31,2.31,0,0,1,1.74-.72,1.94,1.94,0,0,1,1.22.36,1.31,1.31,0,0,1,.47,1.11v3Zm-1.87-.38a1.37,1.37,0,0,0,1.2-.54v-0.82a1.37,1.37,0,0,0-1.2-.54,1.12,1.12,0,0,0-.77.26,0.88,0.88,0,0,0-.3.69,0.86,0.86,0,0,0,.3.68A1.12,1.12,0,0,0,228.25,108.11Z" transform="translate(-19.28 -25.3)"/><path class="cls-4" d="M235.09,108.49h-0.67v-2.84a1,1,0,0,0-.25-0.78,1,1,0,0,0-.72-0.23,1.48,1.48,0,0,0-.73.2,1.65,1.65,0,0,0-.55.48v3.18h-0.67v-4.35h0.67v0.63a2.2,2.2,0,0,1,.68-0.52,1.87,1.87,0,0,1,.87-0.22,1.23,1.23,0,0,1,1.39,1.4v3.05Z" transform="translate(-19.28 -25.3)"/><path class="cls-4" d="M208,139.39h-0.93l-2.28-2.7-0.6.68v2h-0.75v-6h0.75v3.1l2.66-3.1h0.94l-2.5,2.85Z" transform="translate(-19.28 -25.3)"/><path class="cls-4" d="M212,138.85a2.19,2.19,0,0,1-3.12,0,2.54,2.54,0,0,1,0-3.25,2.2,2.2,0,0,1,3.12,0A2.54,2.54,0,0,1,212,138.85Zm-2.62-.44a1.38,1.38,0,0,0,2.11,0,1.87,1.87,0,0,0,.39-1.19,1.85,1.85,0,0,0-.39-1.19,1.38,1.38,0,0,0-2.11,0A2,2,0,0,0,209.35,138.41Z" transform="translate(-19.28 -25.3)"/><path class="cls-4" d="M215,139.5a2.3,2.3,0,0,1-1.75-.68l0.35-.49a1.77,1.77,0,0,0,.62.44,1.92,1.92,0,0,0,.81.18,1.22,1.22,0,0,0,.76-0.21,0.65,0.65,0,0,0,.27-0.54,0.51,0.51,0,0,0-.28-0.45,2.21,2.21,0,0,0-.67-0.25l-0.79-.2a1.55,1.55,0,0,1-.67-0.39,1,1,0,0,1-.28-0.72,1.11,1.11,0,0,1,.44-0.89,1.81,1.81,0,0,1,1.18-.36,2.18,2.18,0,0,1,1.61.63l-0.31.47a1.6,1.6,0,0,0-1.3-.55,1.15,1.15,0,0,0-.7.19,0.59,0.59,0,0,0-.26.49,0.45,0.45,0,0,0,.28.41,2.63,2.63,0,0,0,.67.23l0.79,0.2a1.5,1.5,0,0,1,.67.41,1.05,1.05,0,0,1,.28.76,1.17,1.17,0,0,1-.45.94A1.94,1.94,0,0,1,215,139.5Z" transform="translate(-19.28 -25.3)"/><path class="cls-4" d="M221.3,138.85a2.19,2.19,0,0,1-3.12,0,2.54,2.54,0,0,1,0-3.25,2.2,2.2,0,0,1,3.12,0A2.54,2.54,0,0,1,221.3,138.85Zm-2.62-.44a1.28,1.28,0,0,0,1.06.49,1.27,1.27,0,0,0,1.05-.49,1.87,1.87,0,0,0,.39-1.19,1.85,1.85,0,0,0-.39-1.19,1.38,1.38,0,0,0-2.11,0A2,2,0,0,0,218.68,138.41Z" transform="translate(-19.28 -25.3)"/><path class="cls-4" d="M224.89,139.39h-0.74L222.34,135h0.73l1.45,3.56L226,135h0.74Z" transform="translate(-19.28 -25.3)"/><path class="cls-4" d="M230.86,138.85a2.19,2.19,0,0,1-3.12,0,2.54,2.54,0,0,1,0-3.25,2.2,2.2,0,0,1,3.12,0A2.54,2.54,0,0,1,230.86,138.85Zm-2.62-.44a1.38,1.38,0,0,0,2.11,0,1.87,1.87,0,0,0,.39-1.19,1.85,1.85,0,0,0-.39-1.19,1.38,1.38,0,0,0-2.11,0A2,2,0,0,0,228.24,138.41Z" transform="translate(-19.28 -25.3)"/><path class="cls-4" d="M37.39,49.55a2.92,2.92,0,0,1-2.3-1L35.53,48a2.43,2.43,0,0,0,1.89.86,1.56,1.56,0,0,0,1.07-.31,1,1,0,0,0,.34-0.72,0.76,0.76,0,0,0-.2-0.53A1.34,1.34,0,0,0,38.13,47a6.13,6.13,0,0,0-.69-0.22l-0.76-.22A4,4,0,0,1,36,46.25,1.36,1.36,0,0,1,35.28,45a1.46,1.46,0,0,1,.58-1.2,2.3,2.3,0,0,1,1.48-.46,2.8,2.8,0,0,1,2.13.84L39,44.73A2.24,2.24,0,0,0,37.29,44a1.42,1.42,0,0,0-.89.27,0.83,0.83,0,0,0-.35.69,0.63,0.63,0,0,0,.27.52,1.75,1.75,0,0,0,.66.31c0.26,0.07.55,0.15,0.86,0.25s0.59,0.2.86,0.32a1.55,1.55,0,0,1,.66.54,1.48,1.48,0,0,1,.27.89A1.66,1.66,0,0,1,39.06,49,2.36,2.36,0,0,1,37.39,49.55Z" transform="translate(-19.28 -25.3)"/><path class="cls-4" d="M44.16,48.89a2.18,2.18,0,0,1-3.12,0,2.54,2.54,0,0,1,0-3.25,2.2,2.2,0,0,1,3.12,0A2.54,2.54,0,0,1,44.16,48.89Zm-2.62-.44a1.38,1.38,0,0,0,2.11,0,2,2,0,0,0,0-2.38,1.39,1.39,0,0,0-2.11,0A2,2,0,0,0,41.54,48.45Z" transform="translate(-19.28 -25.3)"/><path class="cls-4" d="M51.77,49.44H51.09v-3a0.75,0.75,0,0,0-.8-0.9,1.23,1.23,0,0,0-.65.2,1.56,1.56,0,0,0-.5.47v3.19H48.46v-3a0.75,0.75,0,0,0-.8-0.9,1.19,1.19,0,0,0-.63.2,1.66,1.66,0,0,0-.51.48v3.18H45.84V45.09h0.68v0.63a1.7,1.7,0,0,1,.57-0.5A1.61,1.61,0,0,1,47.92,45a1.24,1.24,0,0,1,.77.23,1.07,1.07,0,0,1,.4.58,1.71,1.71,0,0,1,.6-0.57A1.64,1.64,0,0,1,50.55,45a1.12,1.12,0,0,1,1.22,1.31v3.14Z" transform="translate(-19.28 -25.3)"/><path class="cls-4" d="M56.51,49.44H55.83v-0.5a1.85,1.85,0,0,1-1.44.6,1.6,1.6,0,0,1-1.06-.39,1.31,1.31,0,0,1-.46-1.05,1.29,1.29,0,0,1,.46-1.06,1.63,1.63,0,0,1,1.07-.37,1.8,1.8,0,0,1,1.44.59V46.49a0.81,0.81,0,0,0-.31-0.67,1.23,1.23,0,0,0-.79-0.24,1.77,1.77,0,0,0-1.33.6l-0.31-.47A2.31,2.31,0,0,1,54.83,45a1.93,1.93,0,0,1,1.21.36,1.31,1.31,0,0,1,.47,1.11v3Zm-1.87-.38a1.37,1.37,0,0,0,1.2-.54V47.7a1.37,1.37,0,0,0-1.2-.54,1.12,1.12,0,0,0-.77.26,0.88,0.88,0,0,0-.3.69,0.87,0.87,0,0,0,.3.68A1.12,1.12,0,0,0,54.64,49.06Z" transform="translate(-19.28 -25.3)"/><path class="cls-4" d="M58.54,49.44H57.86v-6h0.68v6Z" transform="translate(-19.28 -25.3)"/><path class="cls-4" d="M60.22,44.47a0.44,0.44,0,0,1-.31-0.13A0.43,0.43,0,0,1,59.77,44a0.44,0.44,0,0,1,.13-0.32,0.43,0.43,0,0,1,.31-0.13,0.46,0.46,0,0,1,.46.46,0.43,0.43,0,0,1-.13.32A0.45,0.45,0,0,1,60.22,44.47Zm0.34,5H59.88V45.09h0.67v4.35Z" transform="translate(-19.28 -25.3)"/><path class="cls-4" d="M65.3,49.44H64.63v-0.5a1.85,1.85,0,0,1-1.44.6,1.6,1.6,0,0,1-1.06-.39,1.31,1.31,0,0,1-.46-1.05,1.29,1.29,0,0,1,.46-1.06,1.63,1.63,0,0,1,1.07-.37,1.8,1.8,0,0,1,1.44.59V46.49a0.81,0.81,0,0,0-.31-0.67,1.23,1.23,0,0,0-.79-0.24,1.77,1.77,0,0,0-1.33.6l-0.31-.47A2.31,2.31,0,0,1,63.62,45a1.93,1.93,0,0,1,1.21.36,1.31,1.31,0,0,1,.47,1.11v3Zm-1.87-.38a1.37,1.37,0,0,0,1.2-.54V47.7a1.37,1.37,0,0,0-1.2-.54,1.12,1.12,0,0,0-.77.26,0.88,0.88,0,0,0-.3.69,0.87,0.87,0,0,0,.3.68A1.12,1.12,0,0,0,63.43,49.06Z" transform="translate(-19.28 -25.3)"/><path class="cls-4" d="M138.73,31.3H138v-6h0.75v6Z" transform="translate(-19.28 -25.3)"/><path class="cls-4" d="M140.79,31.3h-0.68V27h0.68v0.7a1.78,1.78,0,0,1,1.45-.79v0.69l-0.27,0a1.31,1.31,0,0,0-.67.22,1.42,1.42,0,0,0-.51.48V31.3Z" transform="translate(-19.28 -25.3)"/><path class="cls-4" d="M146.47,31.3H145.8v-0.5a1.85,1.85,0,0,1-1.44.6A1.6,1.6,0,0,1,143.3,31a1.31,1.31,0,0,1-.46-1.05,1.29,1.29,0,0,1,.46-1.06,1.63,1.63,0,0,1,1.07-.37,1.8,1.8,0,0,1,1.44.59V28.35a0.81,0.81,0,0,0-.31-0.67,1.23,1.23,0,0,0-.79-0.24,1.77,1.77,0,0,0-1.33.6l-0.31-.47a2.31,2.31,0,0,1,1.74-.72,1.93,1.93,0,0,1,1.21.36,1.31,1.31,0,0,1,.47,1.11v3Zm-1.87-.38a1.37,1.37,0,0,0,1.2-.54V29.57a1.37,1.37,0,0,0-1.2-.54,1.12,1.12,0,0,0-.77.26,0.88,0.88,0,0,0-.3.69,0.87,0.87,0,0,0,.3.68A1.12,1.12,0,0,0,144.6,30.92Z" transform="translate(-19.28 -25.3)"/><path class="cls-4" d="M149.48,31.41a1.76,1.76,0,0,1-1.4-.62,2.85,2.85,0,0,1,0-3.33,1.86,1.86,0,0,1,2.24-.41,1.74,1.74,0,0,1,.62.55V27h0.67v6h-0.67V30.64A1.71,1.71,0,0,1,149.48,31.41Zm0.16-.6a1.54,1.54,0,0,0,.76-0.2,1.35,1.35,0,0,0,.54-0.5v-2a1.38,1.38,0,0,0-.54-0.49,1.54,1.54,0,0,0-.76-0.2,1.23,1.23,0,0,0-1,.47,1.87,1.87,0,0,0-.37,1.21,1.89,1.89,0,0,0,.37,1.21A1.22,1.22,0,0,0,149.64,30.81Z" transform="translate(-19.28 -25.3)"/><path class="cls-4" d="M49.26,164.53a2.92,2.92,0,0,1-2.3-1l0.44-.57a2.43,2.43,0,0,0,1.89.86,1.56,1.56,0,0,0,1.07-.31,1,1,0,0,0,.34-0.72,0.76,0.76,0,0,0-.2-0.53A1.35,1.35,0,0,0,50,162a6.17,6.17,0,0,0-.69-0.22l-0.76-.22a4,4,0,0,1-.69-0.29,1.36,1.36,0,0,1-.71-1.23,1.46,1.46,0,0,1,.58-1.2,2.3,2.3,0,0,1,1.48-.46,2.8,2.8,0,0,1,2.13.84l-0.45.55a2.24,2.24,0,0,0-1.74-.72,1.42,1.42,0,0,0-.89.27,0.83,0.83,0,0,0-.35.69,0.64,0.64,0,0,0,.27.52,1.76,1.76,0,0,0,.66.31L49.69,161c0.31,0.1.59,0.2,0.86,0.32a1.54,1.54,0,0,1,.66.54,1.49,1.49,0,0,1,.26.89,1.66,1.66,0,0,1-.54,1.25A2.36,2.36,0,0,1,49.26,164.53Z" transform="translate(-19.28 -25.3)"/><path class="cls-4" d="M52.26,166.12l0.11-.61a0.9,0.9,0,0,0,.37.07,0.7,0.7,0,0,0,.39-0.1,0.77,0.77,0,0,0,.26-0.36l0.29-.66-1.82-4.39h0.73L54,163.63l1.44-3.56h0.74L54,165.3a1.32,1.32,0,0,1-1.28.88A1.82,1.82,0,0,1,52.26,166.12Z" transform="translate(-19.28 -25.3)"/><path class="cls-4" d="M57.59,164.42H56.91v-4.35h0.68v0.7A1.78,1.78,0,0,1,59,160v0.69l-0.27,0a1.31,1.31,0,0,0-.67.22,1.42,1.42,0,0,0-.51.48v3.08Z" transform="translate(-19.28 -25.3)"/><path class="cls-4" d="M60.22,159.45a0.43,0.43,0,0,1-.31-0.13,0.43,0.43,0,0,1-.13-0.32,0.44,0.44,0,0,1,.13-0.32,0.43,0.43,0,0,1,.31-0.13,0.46,0.46,0,0,1,.46.46,0.43,0.43,0,0,1-.13.32A0.45,0.45,0,0,1,60.22,159.45Zm0.34,5H59.88v-4.35h0.67v4.35Z" transform="translate(-19.28 -25.3)"/><path class="cls-4" d="M65.3,164.42H64.63v-0.5a1.85,1.85,0,0,1-1.44.6,1.6,1.6,0,0,1-1.06-.39,1.31,1.31,0,0,1-.46-1.05,1.29,1.29,0,0,1,.46-1.06,1.63,1.63,0,0,1,1.07-.37,1.8,1.8,0,0,1,1.44.59v-0.78a0.81,0.81,0,0,0-.31-0.67,1.23,1.23,0,0,0-.79-0.24,1.77,1.77,0,0,0-1.33.6l-0.32-.47a2.31,2.31,0,0,1,1.74-.72,1.94,1.94,0,0,1,1.21.36,1.31,1.31,0,0,1,.47,1.11v3ZM63.43,164a1.37,1.37,0,0,0,1.2-.54v-0.82a1.37,1.37,0,0,0-1.2-.54,1.12,1.12,0,0,0-.77.26,0.88,0.88,0,0,0-.3.69,0.86,0.86,0,0,0,.3.68A1.12,1.12,0,0,0,63.43,164Z" transform="translate(-19.28 -25.3)"/><path class="cls-4" d="M25,78.31H24.18L23.65,77h-3l-0.53,1.33H19.28l2.41-6h0.93Zm-1.61-2-1.27-3.23-1.28,3.23h2.55Z" transform="translate(-19.28 -25.3)"/><path class="cls-4" d="M26.58,78.31H25.9V74.55H25.18V74H25.9V73.63a1.5,1.5,0,0,1,.34-1,1.18,1.18,0,0,1,.92-0.37,1.3,1.3,0,0,1,.92.33L27.8,73a0.79,0.79,0,0,0-.54-0.22,0.61,0.61,0,0,0-.51.22,1,1,0,0,0-.17.63V74h0.88v0.59H26.58v3.75Z" transform="translate(-19.28 -25.3)"/><path class="cls-4" d="M30,80.07a3,3,0,0,1-1-.14,2.06,2.06,0,0,1-.77-0.51l0.34-.5a1.74,1.74,0,0,0,1.41.59,1.54,1.54,0,0,0,1-.32,1.19,1.19,0,0,0,.4-1V77.59a1.88,1.88,0,0,1-.63.56,1.67,1.67,0,0,1-.83.22,1.78,1.78,0,0,1-1.4-.61,2.79,2.79,0,0,1,0-3.29,1.77,1.77,0,0,1,1.4-.61,1.74,1.74,0,0,1,1.46.77V74h0.67v4.22a1.7,1.7,0,0,1-.58,1.44A2.38,2.38,0,0,1,30,80.07Zm0.1-2.3a1.5,1.5,0,0,0,.75-0.21,1.46,1.46,0,0,0,.54-0.5v-1.9a1.43,1.43,0,0,0-.54-0.5,1.52,1.52,0,0,0-.76-0.2,1.24,1.24,0,0,0-1,.46,2.09,2.09,0,0,0,0,2.39A1.25,1.25,0,0,0,30.1,77.77Z" transform="translate(-19.28 -25.3)"/><path class="cls-4" d="M37,78.31H36.37V75.44a1,1,0,0,0-.25-0.77,1.06,1.06,0,0,0-.73-0.22,1.46,1.46,0,0,0-.72.2,1.74,1.74,0,0,0-.56.48v3.18H33.42v-6H34.1v2.29a2.21,2.21,0,0,1,.67-0.52,1.89,1.89,0,0,1,.88-0.22A1.23,1.23,0,0,1,37,75.24v3.07Z" transform="translate(-19.28 -25.3)"/><path class="cls-4" d="M41.79,78.31H41.11v-0.5a1.86,1.86,0,0,1-1.44.6A1.6,1.6,0,0,1,38.61,78,1.31,1.31,0,0,1,38.15,77a1.29,1.29,0,0,1,.45-1.06,1.63,1.63,0,0,1,1.07-.37,1.8,1.8,0,0,1,1.44.59V75.35a0.82,0.82,0,0,0-.31-0.67A1.24,1.24,0,0,0,40,74.44a1.77,1.77,0,0,0-1.33.6l-0.31-.47a2.31,2.31,0,0,1,1.74-.72,1.94,1.94,0,0,1,1.22.36,1.31,1.31,0,0,1,.47,1.11v3Zm-1.87-.38a1.37,1.37,0,0,0,1.2-.54V76.57a1.37,1.37,0,0,0-1.2-.54,1.12,1.12,0,0,0-.77.26,0.88,0.88,0,0,0-.3.69,0.87,0.87,0,0,0,.3.68A1.12,1.12,0,0,0,39.91,77.93Z" transform="translate(-19.28 -25.3)"/><path class="cls-4" d="M46.74,78.31H46.07V75.46a1,1,0,0,0-.25-0.78,1,1,0,0,0-.72-0.23,1.49,1.49,0,0,0-.73.2,1.65,1.65,0,0,0-.55.48v3.18H43.13V74h0.68v0.63a2.21,2.21,0,0,1,.67-0.52,1.87,1.87,0,0,1,.87-0.22,1.23,1.23,0,0,1,1.39,1.4v3.05Z" transform="translate(-19.28 -25.3)"/><path class="cls-4" d="M48.43,73.34a0.44,0.44,0,0,1-.32-0.13A0.43,0.43,0,0,1,48,72.89a0.44,0.44,0,0,1,.13-0.32,0.43,0.43,0,0,1,.32-0.13,0.46,0.46,0,0,1,.46.46,0.43,0.43,0,0,1-.13.32A0.45,0.45,0,0,1,48.43,73.34Zm0.34,5H48.09V74h0.68v4.35Z" transform="translate(-19.28 -25.3)"/><path class="cls-4" d="M51.5,78.41a2.3,2.3,0,0,1-1.75-.68l0.35-.49a1.77,1.77,0,0,0,.62.44,1.93,1.93,0,0,0,.81.18,1.22,1.22,0,0,0,.76-0.21,0.65,0.65,0,0,0,.27-0.54,0.51,0.51,0,0,0-.28-0.46,2.27,2.27,0,0,0-.67-0.25l-0.79-.2a1.55,1.55,0,0,1-.68-0.39,1,1,0,0,1-.28-0.72,1.11,1.11,0,0,1,.44-0.89,1.8,1.8,0,0,1,1.18-.36,2.18,2.18,0,0,1,1.61.63l-0.32.47a1.59,1.59,0,0,0-1.3-.55,1.15,1.15,0,0,0-.7.19,0.58,0.58,0,0,0-.26.49,0.45,0.45,0,0,0,.28.41,2.56,2.56,0,0,0,.67.23c0.26,0.06.52,0.12,0.79,0.2a1.51,1.51,0,0,1,.68.41,1.06,1.06,0,0,1,.28.76,1.17,1.17,0,0,1-.45.95A1.93,1.93,0,0,1,51.5,78.41Z" transform="translate(-19.28 -25.3)"/><path class="cls-4" d="M55.4,78.41a0.93,0.93,0,0,1-.72-0.26,1.07,1.07,0,0,1-.24-0.76V74.55H53.72V74h0.72V72.77h0.67V74H56v0.59H55.11v2.7a0.68,0.68,0,0,0,.11.41,0.38,0.38,0,0,0,.33.15A0.58,0.58,0,0,0,56,77.63l0.2,0.5A1.14,1.14,0,0,1,55.4,78.41Z" transform="translate(-19.28 -25.3)"/><path class="cls-4" d="M60.34,78.31H59.67v-0.5a1.85,1.85,0,0,1-1.44.6A1.6,1.6,0,0,1,57.17,78,1.31,1.31,0,0,1,56.71,77a1.29,1.29,0,0,1,.46-1.06,1.63,1.63,0,0,1,1.07-.37,1.8,1.8,0,0,1,1.44.59V75.35a0.81,0.81,0,0,0-.31-0.67,1.23,1.23,0,0,0-.79-0.24,1.77,1.77,0,0,0-1.33.6l-0.31-.47a2.31,2.31,0,0,1,1.74-.72,1.93,1.93,0,0,1,1.21.36,1.31,1.31,0,0,1,.47,1.11v3Zm-1.87-.38a1.37,1.37,0,0,0,1.2-.54V76.57a1.37,1.37,0,0,0-1.2-.54,1.12,1.12,0,0,0-.77.26,0.88,0.88,0,0,0-.3.69,0.87,0.87,0,0,0,.3.68A1.12,1.12,0,0,0,58.47,77.93Z" transform="translate(-19.28 -25.3)"/><path class="cls-4" d="M65.3,78.31H64.63V75.46a1,1,0,0,0-.25-0.78,1,1,0,0,0-.72-0.23,1.48,1.48,0,0,0-.73.2,1.64,1.64,0,0,0-.55.48v3.18H61.69V74h0.68v0.63A2.22,2.22,0,0,1,63,74.07a1.88,1.88,0,0,1,.87-0.22,1.23,1.23,0,0,1,1.39,1.4v3.05Z" transform="translate(-19.28 -25.3)"/><path class="cls-4" d="M52.6,108.49H51.86v-6H52.6v6Z" transform="translate(-19.28 -25.3)"/><path class="cls-4" d="M54.66,108.49H54v-4.35h0.67v0.7a1.78,1.78,0,0,1,1.45-.79v0.69l-0.27,0a1.31,1.31,0,0,0-.67.22,1.42,1.42,0,0,0-.51.48v3.08Z" transform="translate(-19.28 -25.3)"/><path class="cls-4" d="M60.34,108.49H59.67V108a1.85,1.85,0,0,1-1.44.6,1.6,1.6,0,0,1-1.06-.39,1.31,1.31,0,0,1-.46-1.05,1.29,1.29,0,0,1,.46-1.06,1.63,1.63,0,0,1,1.07-.37,1.8,1.8,0,0,1,1.44.59v-0.78a0.81,0.81,0,0,0-.31-0.67,1.23,1.23,0,0,0-.79-0.24,1.77,1.77,0,0,0-1.33.6l-0.32-.47a2.31,2.31,0,0,1,1.74-.72,1.94,1.94,0,0,1,1.21.36,1.31,1.31,0,0,1,.47,1.11v3Zm-1.87-.38a1.37,1.37,0,0,0,1.2-.54v-0.82a1.37,1.37,0,0,0-1.2-.54,1.12,1.12,0,0,0-.77.26,0.88,0.88,0,0,0-.3.69,0.86,0.86,0,0,0,.3.68A1.12,1.12,0,0,0,58.47,108.11Z" transform="translate(-19.28 -25.3)"/><path class="cls-4" d="M65.3,108.49H64.63v-2.84a1,1,0,0,0-.25-0.78,1,1,0,0,0-.72-0.23,1.48,1.48,0,0,0-.73.2,1.64,1.64,0,0,0-.55.48v3.18H61.69v-4.35h0.67v0.63a2.21,2.21,0,0,1,.67-0.52,1.87,1.87,0,0,1,.87-0.22,1.23,1.23,0,0,1,1.39,1.4v3.05Z" transform="translate(-19.28 -25.3)"/><path class="cls-4" d="M32.94,136.39a2.92,2.92,0,0,1-2.3-1l0.44-.57a2.43,2.43,0,0,0,1.89.86,1.56,1.56,0,0,0,1.07-.31,1,1,0,0,0,.34-0.72,0.76,0.76,0,0,0-.2-0.53,1.34,1.34,0,0,0-.51-0.34A6.13,6.13,0,0,0,33,133.6l-0.76-.22a4,4,0,0,1-.69-0.29,1.36,1.36,0,0,1-.71-1.23,1.46,1.46,0,0,1,.58-1.2,2.3,2.3,0,0,1,1.48-.46A2.8,2.8,0,0,1,35,131l-0.45.55a2.24,2.24,0,0,0-1.74-.72,1.42,1.42,0,0,0-.89.27,0.83,0.83,0,0,0-.35.69,0.63,0.63,0,0,0,.27.52,1.75,1.75,0,0,0,.66.31c0.26,0.07.55,0.15,0.86,0.25s0.59,0.2.86,0.32a1.55,1.55,0,0,1,.66.54,1.48,1.48,0,0,1,.27.89,1.66,1.66,0,0,1-.54,1.25A2.36,2.36,0,0,1,32.94,136.39Z" transform="translate(-19.28 -25.3)"/><path class="cls-4" d="M37.19,136.39a0.94,0.94,0,0,1-.72-0.26,1.07,1.07,0,0,1-.24-0.76v-2.84H35.5v-0.59h0.72v-1.19H36.9v1.19h0.88v0.59H36.9v2.7a0.66,0.66,0,0,0,.11.41,0.38,0.38,0,0,0,.33.15,0.59,0.59,0,0,0,.46-0.18l0.2,0.5A1.13,1.13,0,0,1,37.19,136.39Z" transform="translate(-19.28 -25.3)"/><path class="cls-4" d="M42.13,136.28H41.45v-0.5a1.86,1.86,0,0,1-1.44.6A1.6,1.6,0,0,1,39,136a1.31,1.31,0,0,1-.46-1.05,1.29,1.29,0,0,1,.45-1.06,1.63,1.63,0,0,1,1.07-.37,1.8,1.8,0,0,1,1.44.59v-0.78a0.81,0.81,0,0,0-.31-0.67,1.23,1.23,0,0,0-.79-0.24A1.77,1.77,0,0,0,39,133l-0.32-.47a2.31,2.31,0,0,1,1.74-.72,1.94,1.94,0,0,1,1.22.36,1.31,1.31,0,0,1,.47,1.11v3Zm-1.87-.38a1.37,1.37,0,0,0,1.2-.54v-0.82a1.37,1.37,0,0,0-1.2-.54,1.12,1.12,0,0,0-.77.26,0.88,0.88,0,0,0-.3.69,0.86,0.86,0,0,0,.3.68A1.12,1.12,0,0,0,40.26,135.9Z" transform="translate(-19.28 -25.3)"/><path class="cls-4" d="M44.58,136.39a0.94,0.94,0,0,1-.72-0.26,1.07,1.07,0,0,1-.24-0.76v-2.84H42.89v-0.59h0.72v-1.19h0.67v1.19h0.88v0.59H44.29v2.7a0.67,0.67,0,0,0,.11.41,0.38,0.38,0,0,0,.33.15,0.58,0.58,0,0,0,.46-0.18l0.2,0.5A1.13,1.13,0,0,1,44.58,136.39Z" transform="translate(-19.28 -25.3)"/><path class="cls-4" d="M48.09,136.39a2.13,2.13,0,0,1-1.59-.63,2.26,2.26,0,0,1-.62-1.65,2.29,2.29,0,0,1,.61-1.62,2,2,0,0,1,1.53-.66,1.9,1.9,0,0,1,1.53.66,2.48,2.48,0,0,1,.56,1.67v0.17H46.58a1.65,1.65,0,0,0,.47,1.07,1.47,1.47,0,0,0,1.1.43,1.79,1.79,0,0,0,1.34-.55l0.32,0.44A2.34,2.34,0,0,1,48.09,136.39Zm1.35-2.56a1.57,1.57,0,0,0-.38-1,1.29,1.29,0,0,0-1.05-.45,1.27,1.27,0,0,0-1,.44,1.65,1.65,0,0,0-.4,1h2.85Z" transform="translate(-19.28 -25.3)"/><path class="cls-4" d="M51.87,136.28H51.19v-6h0.67v6Z" transform="translate(-19.28 -25.3)"/><path class="cls-4" d="M55.18,136.39a2.13,2.13,0,0,1-1.59-.63A2.26,2.26,0,0,1,53,134.1a2.29,2.29,0,0,1,.61-1.62,2,2,0,0,1,1.53-.66,1.9,1.9,0,0,1,1.53.66,2.48,2.48,0,0,1,.56,1.67v0.17H53.67a1.65,1.65,0,0,0,.47,1.07,1.47,1.47,0,0,0,1.1.43,1.79,1.79,0,0,0,1.34-.55l0.32,0.44A2.34,2.34,0,0,1,55.18,136.39Zm1.35-2.56a1.57,1.57,0,0,0-.38-1,1.29,1.29,0,0,0-1.05-.45,1.27,1.27,0,0,0-1,.44,1.65,1.65,0,0,0-.4,1h2.85Z" transform="translate(-19.28 -25.3)"/><path class="cls-4" d="M59.66,136.39a2.3,2.3,0,0,1-1.75-.68l0.35-.49a1.77,1.77,0,0,0,.62.44,1.93,1.93,0,0,0,.81.18,1.22,1.22,0,0,0,.76-0.21,0.65,0.65,0,0,0,.27-0.54,0.51,0.51,0,0,0-.28-0.46,2.27,2.27,0,0,0-.67-0.25l-0.79-.2a1.54,1.54,0,0,1-.67-0.39,1,1,0,0,1-.28-0.72,1.11,1.11,0,0,1,.44-0.89,1.8,1.8,0,0,1,1.18-.36,2.18,2.18,0,0,1,1.61.63l-0.31.47a1.6,1.6,0,0,0-1.3-.55,1.15,1.15,0,0,0-.7.19,0.59,0.59,0,0,0-.26.49,0.45,0.45,0,0,0,.28.41,2.59,2.59,0,0,0,.67.23q0.39,0.08.79,0.2a1.5,1.5,0,0,1,.67.41,1.05,1.05,0,0,1,.28.76,1.17,1.17,0,0,1-.45.95A1.94,1.94,0,0,1,59.66,136.39Z" transform="translate(-19.28 -25.3)"/><path class="cls-4" d="M63.84,136.39a2.3,2.3,0,0,1-1.75-.68l0.35-.49a1.77,1.77,0,0,0,.62.44,1.93,1.93,0,0,0,.81.18,1.22,1.22,0,0,0,.76-0.21,0.65,0.65,0,0,0,.27-0.54,0.51,0.51,0,0,0-.28-0.46,2.27,2.27,0,0,0-.67-0.25l-0.79-.2a1.55,1.55,0,0,1-.67-0.39,1,1,0,0,1-.28-0.72,1.11,1.11,0,0,1,.44-0.89,1.8,1.8,0,0,1,1.18-.36,2.18,2.18,0,0,1,1.61.63l-0.31.47a1.6,1.6,0,0,0-1.3-.55,1.15,1.15,0,0,0-.7.19,0.59,0.59,0,0,0-.26.49,0.45,0.45,0,0,0,.28.41,2.57,2.57,0,0,0,.67.23c0.26,0.06.52,0.12,0.79,0.2a1.5,1.5,0,0,1,.67.41,1.06,1.06,0,0,1,.28.76,1.17,1.17,0,0,1-.45.95A1.93,1.93,0,0,1,63.84,136.39Z" transform="translate(-19.28 -25.3)"/><path class="cls-1" d="M206.25,65.06h-1.46V58.63L203.42,60l-0.85-.89,2.4-2.42h1.27v8.34Z" transform="translate(-19.28 -25.3)"/><path class="cls-1" d="M212.49,64.84a3.19,3.19,0,0,1-3,0,2.89,2.89,0,0,1-1.05-1,5.09,5.09,0,0,1-.59-1.37,6.2,6.2,0,0,1,0-3.12,5,5,0,0,1,.59-1.37,2.9,2.9,0,0,1,1.05-1,3.19,3.19,0,0,1,3,0,2.9,2.9,0,0,1,1,1,4.94,4.94,0,0,1,.59,1.37,6.17,6.17,0,0,1,0,3.13,5,5,0,0,1-.59,1.38A2.88,2.88,0,0,1,212.49,64.84Zm-2.9-1.77a1.58,1.58,0,0,0,2.8,0,4.62,4.62,0,0,0,.45-2.16,6,6,0,0,0-.17-1.49,2.32,2.32,0,0,0-.6-1.08,1.57,1.57,0,0,0-2.16,0,2.33,2.33,0,0,0-.6,1.08,6,6,0,0,0-.17,1.49A4.6,4.6,0,0,0,209.59,63.06Z" transform="translate(-19.28 -25.3)"/><path class="cls-1" d="M218.64,65.21a3.83,3.83,0,0,1-3.1-1.29l0.84-1a2.87,2.87,0,0,0,2.25,1,1.8,1.8,0,0,0,1.24-.42,1.34,1.34,0,0,0,.47-1,1.38,1.38,0,0,0-.46-1.08,1.77,1.77,0,0,0-1.22-.41,2.56,2.56,0,0,0-1.83.73l-1-.3V56.73h5.46V58h-4v2.41a2.55,2.55,0,0,1,1.89-.72,2.65,2.65,0,0,1,1.88.73,2.55,2.55,0,0,1,.78,2,2.59,2.59,0,0,1-.88,2.06A3.36,3.36,0,0,1,218.64,65.21Z" transform="translate(-19.28 -25.3)"/><path class="cls-1" d="M205.5,92.81h-1.6l3.15-7h-4.33V84.47h6v1Z" transform="translate(-19.28 -25.3)"/><path class="cls-1" d="M214.39,92.59a3.19,3.19,0,0,1-3,0,2.87,2.87,0,0,1-1.05-1,5.11,5.11,0,0,1-.59-1.37,6.23,6.23,0,0,1,0-3.12,5,5,0,0,1,.59-1.37,2.89,2.89,0,0,1,1.05-1,3.19,3.19,0,0,1,3,0,2.9,2.9,0,0,1,1,1,5,5,0,0,1,.59,1.37,6.2,6.2,0,0,1,0,3.13,5,5,0,0,1-.59,1.38A2.87,2.87,0,0,1,214.39,92.59Zm-2.9-1.78a1.58,1.58,0,0,0,2.8,0,4.6,4.6,0,0,0,.45-2.16,5.94,5.94,0,0,0-.17-1.49,2.32,2.32,0,0,0-.6-1.08,1.57,1.57,0,0,0-2.16,0,2.32,2.32,0,0,0-.6,1.08,5.9,5.9,0,0,0-.17,1.49A4.59,4.59,0,0,0,211.49,90.81Z" transform="translate(-19.28 -25.3)"/><path class="cls-1" d="M208.38,119.73a4.57,4.57,0,0,1-4.54,0,1.91,1.91,0,0,1-.92-1.68,1.87,1.87,0,0,1,.53-1.33,3.23,3.23,0,0,1,1.34-.84,3,3,0,0,1-1.26-.74,1.69,1.69,0,0,1-.48-1.24,1.85,1.85,0,0,1,.27-1,2,2,0,0,1,.71-0.69,3.84,3.84,0,0,1,1-.38,4.58,4.58,0,0,1,1.11-.13,4.5,4.5,0,0,1,1.1.13,3.94,3.94,0,0,1,1,.38,1.92,1.92,0,0,1,.72.69,1.85,1.85,0,0,1,.27,1,2.08,2.08,0,0,1-1.75,2,3.24,3.24,0,0,1,1.34.84,1.87,1.87,0,0,1,.53,1.33A1.91,1.91,0,0,1,208.38,119.73Zm-2.27-.69a2.18,2.18,0,0,0,1.21-.33,1,1,0,0,0,.5-0.85,1,1,0,0,0-.58-0.91,2.86,2.86,0,0,0-1.13-.41,3.06,3.06,0,0,0-.69.17,2.12,2.12,0,0,0-.7.44,0.93,0.93,0,0,0-.34.71,1,1,0,0,0,.49.85A2.19,2.19,0,0,0,206.11,119Zm0-3.72a4.67,4.67,0,0,0,.65-0.17,1.85,1.85,0,0,0,.62-0.37,0.82,0.82,0,0,0,.31-0.63,0.93,0.93,0,0,0-.44-0.81,2,2,0,0,0-1.13-.3,2,2,0,0,0-1.14.3,0.93,0.93,0,0,0-.44.81,0.81,0.81,0,0,0,.31.63,1.91,1.91,0,0,0,.63.38A4.67,4.67,0,0,0,206.11,115.31Z" transform="translate(-19.28 -25.3)"/><path class="cls-1" d="M213.62,120.33a3.83,3.83,0,0,1-3.1-1.29l0.84-1a2.87,2.87,0,0,0,2.25,1,1.8,1.8,0,0,0,1.24-.42,1.34,1.34,0,0,0,.47-1,1.38,1.38,0,0,0-.46-1.08,1.77,1.77,0,0,0-1.22-.41,2.55,2.55,0,0,0-1.82.73l-1-.3v-4.66h5.46v1.29h-4v2.41a2.56,2.56,0,0,1,1.89-.72,2.66,2.66,0,0,1,1.88.73,2.55,2.55,0,0,1,.78,2,2.59,2.59,0,0,1-.88,2.06A3.36,3.36,0,0,1,213.62,120.33Z" transform="translate(-19.28 -25.3)"/><path class="cls-1" d="M50.11,177.38a4.57,4.57,0,0,1-4.54,0,1.91,1.91,0,0,1-.92-1.68,1.87,1.87,0,0,1,.53-1.33,3.23,3.23,0,0,1,1.34-.84,3,3,0,0,1-1.26-.74,1.69,1.69,0,0,1-.48-1.24,1.85,1.85,0,0,1,.27-1,2,2,0,0,1,.71-0.69,3.84,3.84,0,0,1,1-.38,4.58,4.58,0,0,1,1.11-.13,4.5,4.5,0,0,1,1.1.13,3.94,3.94,0,0,1,1,.38,1.92,1.92,0,0,1,.72.69,1.85,1.85,0,0,1,.27,1,2.08,2.08,0,0,1-1.75,2,3.24,3.24,0,0,1,1.34.84A1.87,1.87,0,0,1,51,175.7,1.91,1.91,0,0,1,50.11,177.38Zm-2.27-.69a2.18,2.18,0,0,0,1.21-.33,1,1,0,0,0,.5-0.85,1,1,0,0,0-.58-0.91,2.86,2.86,0,0,0-1.13-.41,3.06,3.06,0,0,0-.69.17,2.12,2.12,0,0,0-.7.44,0.93,0.93,0,0,0-.34.71,1,1,0,0,0,.49.85A2.19,2.19,0,0,0,47.84,176.69Zm0-3.72a4.67,4.67,0,0,0,.65-0.17,1.85,1.85,0,0,0,.62-0.37,0.82,0.82,0,0,0,.31-0.63A0.93,0.93,0,0,0,49,171a2,2,0,0,0-1.13-.3,2,2,0,0,0-1.14.3,0.93,0.93,0,0,0-.44.81,0.81,0.81,0,0,0,.31.63,1.91,1.91,0,0,0,.63.38A4.67,4.67,0,0,0,47.84,173Z" transform="translate(-19.28 -25.3)"/><path class="cls-1" d="M55,178a4.47,4.47,0,0,1-1.88-.37,3.22,3.22,0,0,1-1.27-1l0.79-1a2.85,2.85,0,0,0,1,.74,3.18,3.18,0,0,0,1.29.27,2.09,2.09,0,0,0,1.27-.34,1.1,1.1,0,0,0,.46-0.93q0-1.17-1.85-1.18h-1v-1.31h1a2.44,2.44,0,0,0,1.24-.28,0.89,0.89,0,0,0,.47-0.82,1,1,0,0,0-.48-0.87,2.2,2.2,0,0,0-1.21-.31,3,3,0,0,0-2.15.93L52,170.69a3.77,3.77,0,0,1,3-1.31,3.61,3.61,0,0,1,2.19.61,1.93,1.93,0,0,1,.83,1.64,1.67,1.67,0,0,1-.54,1.28,2.43,2.43,0,0,1-1.27.63,2.28,2.28,0,0,1,1.33.6,1.8,1.8,0,0,1,.61,1.42,2.13,2.13,0,0,1-.86,1.75A3.58,3.58,0,0,1,55,178Z" transform="translate(-19.28 -25.3)"/><path class="cls-1" d="M62.53,178a3.83,3.83,0,0,1-3.1-1.29l0.84-1a2.87,2.87,0,0,0,2.25,1,1.8,1.8,0,0,0,1.24-.42,1.34,1.34,0,0,0,.47-1,1.38,1.38,0,0,0-.46-1.08,1.77,1.77,0,0,0-1.22-.41,2.56,2.56,0,0,0-1.83.73l-1-.3V169.5h5.46v1.29h-4v2.41a2.55,2.55,0,0,1,1.89-.72,2.65,2.65,0,0,1,1.88.73,2.55,2.55,0,0,1,.78,2,2.59,2.59,0,0,1-.88,2.06A3.36,3.36,0,0,1,62.53,178Z" transform="translate(-19.28 -25.3)"/><path class="cls-1" d="M55,148.07a3.83,3.83,0,0,1-3.1-1.29l0.84-1a2.87,2.87,0,0,0,2.25,1,1.8,1.8,0,0,0,1.24-.42,1.34,1.34,0,0,0,.47-1,1.38,1.38,0,0,0-.46-1.08,1.77,1.77,0,0,0-1.22-.41,2.56,2.56,0,0,0-1.83.72l-1-.3v-4.66h5.46v1.29h-4v2.41a2.55,2.55,0,0,1,1.89-.72,2.66,2.66,0,0,1,1.88.73,2.55,2.55,0,0,1,.78,2,2.59,2.59,0,0,1-.88,2.06A3.36,3.36,0,0,1,55,148.07Z" transform="translate(-19.28 -25.3)"/><path class="cls-1" d="M62.53,148.07a3.83,3.83,0,0,1-3.1-1.29l0.84-1a2.87,2.87,0,0,0,2.25,1,1.8,1.8,0,0,0,1.24-.42,1.34,1.34,0,0,0,.47-1,1.38,1.38,0,0,0-.46-1.08,1.77,1.77,0,0,0-1.22-.41,2.56,2.56,0,0,0-1.83.72l-1-.3v-4.66h5.46v1.29h-4v2.41a2.55,2.55,0,0,1,1.89-.72,2.66,2.66,0,0,1,1.88.73,2.55,2.55,0,0,1,.78,2,2.59,2.59,0,0,1-.88,2.06A3.36,3.36,0,0,1,62.53,148.07Z" transform="translate(-19.28 -25.3)"/><path class="cls-1" d="M57.08,119.88a4.57,4.57,0,0,1-4.54,0,1.91,1.91,0,0,1-.92-1.68,1.87,1.87,0,0,1,.53-1.33,3.22,3.22,0,0,1,1.34-.84,3,3,0,0,1-1.26-.74,1.68,1.68,0,0,1-.48-1.24,1.85,1.85,0,0,1,.27-1,1.94,1.94,0,0,1,.71-0.69,3.83,3.83,0,0,1,1-.38,4.57,4.57,0,0,1,1.11-.13,4.51,4.51,0,0,1,1.1.13,4,4,0,0,1,1,.38,1.93,1.93,0,0,1,.72.69,1.85,1.85,0,0,1,.27,1,2.08,2.08,0,0,1-1.75,2,3.22,3.22,0,0,1,1.34.84A1.87,1.87,0,0,1,58,118.2,1.91,1.91,0,0,1,57.08,119.88Zm-2.27-.69a2.18,2.18,0,0,0,1.21-.33,1,1,0,0,0,.5-0.85,1,1,0,0,0-.58-0.91,2.87,2.87,0,0,0-1.13-.41,3.06,3.06,0,0,0-.69.17,2.11,2.11,0,0,0-.7.44,0.93,0.93,0,0,0-.34.71,1,1,0,0,0,.49.85A2.19,2.19,0,0,0,54.81,119.19Zm0-3.72a4.63,4.63,0,0,0,.65-0.17,1.85,1.85,0,0,0,.62-0.37,0.82,0.82,0,0,0,.31-0.63,0.93,0.93,0,0,0-.44-0.81,2,2,0,0,0-1.13-.3,2,2,0,0,0-1.14.3,0.93,0.93,0,0,0-.44.81,0.81,0.81,0,0,0,.31.63,1.9,1.9,0,0,0,.63.38A4.62,4.62,0,0,0,54.81,115.46Z" transform="translate(-19.28 -25.3)"/><path class="cls-1" d="M63.88,120.11a3.19,3.19,0,0,1-3,0,2.88,2.88,0,0,1-1-1,5,5,0,0,1-.59-1.37,6.2,6.2,0,0,1,0-3.12,4.94,4.94,0,0,1,.59-1.37,2.9,2.9,0,0,1,1-1,3.19,3.19,0,0,1,3,0,2.9,2.9,0,0,1,1.05,1,5,5,0,0,1,.59,1.37,6.2,6.2,0,0,1,0,3.13,5.09,5.09,0,0,1-.59,1.38A2.89,2.89,0,0,1,63.88,120.11ZM61,118.34a1.58,1.58,0,0,0,2.8,0,4.6,4.6,0,0,0,.45-2.16,6,6,0,0,0-.17-1.49,2.32,2.32,0,0,0-.6-1.08,1.57,1.57,0,0,0-2.16,0,2.32,2.32,0,0,0-.6,1.08,6,6,0,0,0-.17,1.49A4.6,4.6,0,0,0,61,118.34Z" transform="translate(-19.28 -25.3)"/><path class="cls-1" d="M48.18,91a3.83,3.83,0,0,1-3.1-1.29l0.84-1a2.87,2.87,0,0,0,2.25,1,1.8,1.8,0,0,0,1.24-.42,1.34,1.34,0,0,0,.47-1,1.38,1.38,0,0,0-.46-1.08,1.77,1.77,0,0,0-1.22-.41,2.56,2.56,0,0,0-1.83.73l-1-.3V82.48H50.8v1.29h-4v2.41a2.55,2.55,0,0,1,1.89-.72,2.65,2.65,0,0,1,1.88.73,2.55,2.55,0,0,1,.78,2,2.59,2.59,0,0,1-.88,2.06A3.36,3.36,0,0,1,48.18,91Z" transform="translate(-19.28 -25.3)"/><path class="cls-1" d="M55,90.81h-1.6l3.15-7H52.22V82.48h6v1Z" transform="translate(-19.28 -25.3)"/><path class="cls-1" d="M63.88,90.59a3.19,3.19,0,0,1-3,0,2.88,2.88,0,0,1-1-1,5,5,0,0,1-.59-1.37,6.2,6.2,0,0,1,0-3.12,4.94,4.94,0,0,1,.59-1.37,2.9,2.9,0,0,1,1-1,3.19,3.19,0,0,1,3,0,2.9,2.9,0,0,1,1.05,1,5,5,0,0,1,.59,1.37,6.2,6.2,0,0,1,0,3.13,5.09,5.09,0,0,1-.59,1.38A2.89,2.89,0,0,1,63.88,90.59ZM61,88.81a1.58,1.58,0,0,0,2.8,0,4.6,4.6,0,0,0,.45-2.16,6,6,0,0,0-.17-1.49,2.32,2.32,0,0,0-.6-1.08,1.57,1.57,0,0,0-2.16,0,2.32,2.32,0,0,0-.6,1.08,6,6,0,0,0-.17,1.49A4.6,4.6,0,0,0,61,88.81Z" transform="translate(-19.28 -25.3)"/><path class="cls-1" d="M50.66,61.57H49.2V55.13l-1.36,1.41L47,55.66l2.4-2.42h1.27v8.34Z" transform="translate(-19.28 -25.3)"/><path class="cls-1" d="M55,61.72a4.47,4.47,0,0,1-1.88-.37,3.22,3.22,0,0,1-1.27-1l0.79-1a2.85,2.85,0,0,0,1,.74,3.18,3.18,0,0,0,1.29.27,2.09,2.09,0,0,0,1.27-.34,1.1,1.1,0,0,0,.46-0.93q0-1.17-1.85-1.18h-1V56.67h1a2.44,2.44,0,0,0,1.24-.28,0.89,0.89,0,0,0,.47-0.82,1,1,0,0,0-.48-0.87,2.2,2.2,0,0,0-1.21-.31,3,3,0,0,0-2.15.93L52,54.42a3.77,3.77,0,0,1,3-1.31,3.61,3.61,0,0,1,2.19.61A1.93,1.93,0,0,1,58,55.36a1.67,1.67,0,0,1-.54,1.28,2.43,2.43,0,0,1-1.27.63,2.28,2.28,0,0,1,1.33.6,1.8,1.8,0,0,1,.61,1.42A2.13,2.13,0,0,1,57.28,61,3.58,3.58,0,0,1,55,61.72Z" transform="translate(-19.28 -25.3)"/><path class="cls-1" d="M62.53,61.72a3.83,3.83,0,0,1-3.1-1.29l0.84-1a2.87,2.87,0,0,0,2.25,1A1.8,1.8,0,0,0,63.76,60a1.34,1.34,0,0,0,.47-1,1.38,1.38,0,0,0-.46-1.08,1.77,1.77,0,0,0-1.22-.41,2.56,2.56,0,0,0-1.83.73l-1-.3V53.23h5.46v1.29h-4v2.41A2.55,2.55,0,0,1,63,56.21a2.65,2.65,0,0,1,1.88.73,2.55,2.55,0,0,1,.78,2A2.59,2.59,0,0,1,64.82,61,3.36,3.36,0,0,1,62.53,61.72Z" transform="translate(-19.28 -25.3)"/><path class="cls-1" d="M138.43,43.87a4.47,4.47,0,0,1-1.88-.37,3.21,3.21,0,0,1-1.27-1l0.79-1a2.84,2.84,0,0,0,1,.74,3.17,3.17,0,0,0,1.29.27,2.1,2.1,0,0,0,1.28-.34,1.1,1.1,0,0,0,.46-0.93q0-1.17-1.85-1.18h-1V38.82h1a2.44,2.44,0,0,0,1.24-.28,0.89,0.89,0,0,0,.47-0.82,1,1,0,0,0-.47-0.87,2.2,2.2,0,0,0-1.21-.31,3,3,0,0,0-2.15.93l-0.75-.91a3.77,3.77,0,0,1,3-1.31,3.61,3.61,0,0,1,2.19.61,1.94,1.94,0,0,1,.82,1.64,1.68,1.68,0,0,1-.54,1.28,2.44,2.44,0,0,1-1.27.63A2.29,2.29,0,0,1,141,40a1.8,1.8,0,0,1,.61,1.42,2.13,2.13,0,0,1-.86,1.75A3.59,3.59,0,0,1,138.43,43.87Z" transform="translate(-19.28 -25.3)"/><path class="cls-1" d="M146,43.72h-1.46V37.28l-1.36,1.41-0.85-.89,2.4-2.42H146v8.34Z" transform="translate(-19.28 -25.3)"/><path class="cls-1" d="M152.25,43.5a3.19,3.19,0,0,1-3,0,2.89,2.89,0,0,1-1.05-1,5.09,5.09,0,0,1-.59-1.37,6.2,6.2,0,0,1,0-3.12,5,5,0,0,1,.59-1.37,2.9,2.9,0,0,1,1.05-1,3.19,3.19,0,0,1,3,0,2.9,2.9,0,0,1,1,1,4.94,4.94,0,0,1,.59,1.37,6.17,6.17,0,0,1,0,3.13,5,5,0,0,1-.59,1.38A2.88,2.88,0,0,1,152.25,43.5Zm-2.9-1.77a1.58,1.58,0,0,0,2.8,0,4.62,4.62,0,0,0,.45-2.16,6,6,0,0,0-.17-1.49,2.32,2.32,0,0,0-.6-1.08,1.57,1.57,0,0,0-2.16,0,2.33,2.33,0,0,0-.6,1.08,6,6,0,0,0-.17,1.49A4.6,4.6,0,0,0,149.35,41.72Z" transform="translate(-19.28 -25.3)"/><path class="cls-5" d="M195.89,81.35C185,81.22,178.19,84.44,170,92.82" transform="translate(-19.28 -25.3)"/><path class="cls-3" d="M170,92.8a0.52,0.52,0,0,1,.3.14,1,1,0,0,0-.5.06,1,1,0,0,0,0-.5A0.53,0.53,0,0,1,170,92.8Z" transform="translate(-19.28 -25.3)"/><path class="cls-6" d="M197,110.15c-8.65,6.88-18.31,7.19-27,4.59" transform="translate(-19.28 -25.3)"/><path class="cls-3" d="M170,114.75a0.63,0.63,0,0,1,0,.41,1.16,1.16,0,0,0-.34-0.51,1.22,1.22,0,0,0,.56-0.23A0.65,0.65,0,0,1,170,114.75Z" transform="translate(-19.28 -25.3)"/><path class="cls-7" d="M73.44,165.92c14.06,0.62,55.39-16.29,66-39.84" transform="translate(-19.28 -25.3)"/><path class="cls-3" d="M139.36,126.3a4.31,4.31,0,0,1-2.81-.17,8,8,0,0,0,3.7-2,8.4,8.4,0,0,0,1.2,4A4.47,4.47,0,0,1,139.36,126.3Z" transform="translate(-19.28 -25.3)"/><path class="cls-2" d="M194.83,144c-16.53-1.22-33.5-5.48-43.36-20.62" transform="translate(-19.28 -25.3)"/><path class="cls-3" d="M151.49,123.38a0.77,0.77,0,0,1-.31.4,1.43,1.43,0,0,0,.08-0.75,1.51,1.51,0,0,0,.72.23A0.8,0.8,0,0,1,151.49,123.38Z" transform="translate(-19.28 -25.3)"/><path class="cls-8" d="M73.44,48.81c18.28,0,52.41,13.56,64.51,44" transform="translate(-19.28 -25.3)"/><path class="cls-3" d="M137.92,92.77a1,1,0,0,1,.49-0.43,1.84,1.84,0,0,0-.29.92,1.94,1.94,0,0,0-.85-0.47A1,1,0,0,1,137.92,92.77Z" transform="translate(-19.28 -25.3)"/><path class="cls-9" d="M72.28,136.14c13,1.11,40.39-1.5,51-12.8" transform="translate(-19.28 -25.3)"/><path class="cls-3" d="M123.28,123.36a0.41,0.41,0,0,1-.24-0.11,0.75,0.75,0,0,0,.39-0.05,0.79,0.79,0,0,0,0,.39A0.42,0.42,0,0,1,123.28,123.36Z" transform="translate(-19.28 -25.3)"/><path class="cls-10" d="M71.69,80.53c14.39-4,40.1-2.65,58.31,18.06" transform="translate(-19.28 -25.3)"/><path class="cls-3" d="M129.93,98.52a1.89,1.89,0,0,1,.61-1.07,3.5,3.5,0,0,0,.06,1.84,3.69,3.69,0,0,0-1.81-.3A2,2,0,0,1,129.93,98.52Z" transform="translate(-19.28 -25.3)"/><path class="cls-11" d="M71.69,110.21c10.25-8.32,29.16-8.65,40.1,3" transform="translate(-19.28 -25.3)"/><path class="cls-3" d="M111.77,113.16a0.59,0.59,0,0,1,.18-0.34,1.09,1.09,0,0,0,0,.57,1.15,1.15,0,0,0-.57-0.07A0.61,0.61,0,0,1,111.77,113.16Z" transform="translate(-19.28 -25.3)"/><line class="cls-12" x1="125.51" y1="24.06" x2="125.51" y2="64.82"/><path class="cls-3" d="M144.79,90a2.29,2.29,0,0,1,1.41-.49,4.23,4.23,0,0,0-1.41,1.72,4.46,4.46,0,0,0-1.41-1.72A2.37,2.37,0,0,1,144.79,90Z" transform="translate(-19.28 -25.3)"/><path class="cls-1" d="M206.25,153.16h-1.46v-6.44l-1.36,1.41-0.85-.89,2.4-2.42h1.27v8.34Z" transform="translate(-19.28 -25.3)"/><path class="cls-1" d="M212.49,152.93a3.19,3.19,0,0,1-3,0,2.89,2.89,0,0,1-1.05-1,5.11,5.11,0,0,1-.59-1.37,6.2,6.2,0,0,1,0-3.12,5,5,0,0,1,.59-1.37,2.91,2.91,0,0,1,1.05-1,3.19,3.19,0,0,1,3,0,2.91,2.91,0,0,1,1,1,5,5,0,0,1,.59,1.37,6.17,6.17,0,0,1,0,3.13,5,5,0,0,1-.59,1.38A2.88,2.88,0,0,1,212.49,152.93Zm-2.9-1.78a1.58,1.58,0,0,0,2.8,0,4.61,4.61,0,0,0,.45-2.16,6,6,0,0,0-.17-1.49,2.33,2.33,0,0,0-.6-1.08,1.57,1.57,0,0,0-2.16,0,2.33,2.33,0,0,0-.6,1.08,5.94,5.94,0,0,0-.17,1.49A4.6,4.6,0,0,0,209.59,151.16Z" transform="translate(-19.28 -25.3)"/><path class="cls-1" d="M218.64,153.31a3.83,3.83,0,0,1-3.1-1.29l0.84-1a2.87,2.87,0,0,0,2.25,1,1.8,1.8,0,0,0,1.24-.42,1.34,1.34,0,0,0,.47-1,1.38,1.38,0,0,0-.46-1.08,1.77,1.77,0,0,0-1.22-.41,2.56,2.56,0,0,0-1.83.72l-1-.3v-4.66h5.46v1.29h-4v2.41a2.55,2.55,0,0,1,1.89-.72,2.66,2.66,0,0,1,1.88.73,2.55,2.55,0,0,1,.78,2,2.59,2.59,0,0,1-.88,2.06A3.36,3.36,0,0,1,218.64,153.31Z" transform="translate(-19.28 -25.3)"/></svg>