<?xml version="1.0" encoding="utf-8"?>
<!-- Generator: Adobe Illustrator 19.2.0, SVG Export Plug-In . SVG Version: 6.00 Build 0)  -->
<svg version="1.1" id="Layer_1" xmlns="http://www.w3.org/2000/svg" xmlns:xlink="http://www.w3.org/1999/xlink" x="0px" y="0px"
	 viewBox="0 0 215.8 163" style="enable-background:new 0 0 215.8 163;" xml:space="preserve">
<style type="text/css">
	.st0{fill:#0D92FF;}
	.st1{fill:none;stroke:#00325C;stroke-width:0.205;stroke-miterlimit:10;}
	.st2{fill:#00325C;}
	.st3{fill:#787878;}
	.st4{fill:none;stroke:#00325C;stroke-width:0.245;stroke-miterlimit:10;}
	.st5{fill:none;stroke:#00325C;stroke-width:0.275;stroke-miterlimit:3;}
	.st6{fill:none;stroke:#00325C;stroke-width:0.42;stroke-miterlimit:10;}
	.st7{fill:none;stroke:#00325C;stroke-width:0.2;stroke-miterlimit:10;}
	.st8{fill:none;stroke:#00325C;stroke-width:0.35;stroke-miterlimit:10;}
	.st9{fill:none;stroke:#00325C;stroke-width:0.26;stroke-miterlimit:10;}
	.st10{fill:none;stroke:#00325C;stroke-width:0.155;stroke-miterlimit:10;}
</style>
<g>
	<path class="st0" d="M154.5,144.6L154.5,144.6l-0.1,0l0,0.1L154.5,144.6L154.5,144.6l0,0.1L154.5,144.6L154.5,144.6L154.5,144.6
		L154.5,144.6L154.5,144.6L154.5,144.6z M154.4,144.9L154.4,144.9L154.4,144.9l0,0.1L154.4,144.9L154.4,144.9L154.4,144.9z
		 M66.3,60.2L66.3,60.2L66.3,60.2L66.3,60.2L66.3,60.2l0-0.1l0,0L66.3,60.2L66.3,60.2L66.3,60.2z M132.4,126.6l-0.1,0l-0.1,0.1
		l-0.1,0.1l-0.2,0.1l0,0.1l0,0.1l0.1,0l0.1-0.1l0.1-0.1l0.1-0.2L132.4,126.6l0.1,0.1l0-0.1L132.4,126.6L132.4,126.6z M62.5,85.6
		l-0.3-0.1l-0.2,0l-0.1,0l-0.1,0.1l0.1,0.2l0.6,0l0.2,0.1l-0.1-0.1L62.5,85.6z M63.8,82.8L63.8,82.8l-0.4-0.2l-0.1-0.1l0-0.2l0-0.2
		l0-0.1l-0.2-0.1l-0.1,0l-0.5,0l0.1,0.2l0.1,0.4l0.1,0.2l0.2-0.1l0.2,0.1l0.2,0.3l0.1,0.3l0.1,0.1l0-0.2l0-0.2L63.8,82.8z
		 M40.7,64.9L40.7,64.9L40.7,64.9l-0.2-0.1l-0.2,0.1L40,65v0.1l0.2-0.1l0.1,0l0,0.1l0,0l-0.1,0l0,0v0.1l0.1,0l0.4-0.2L40.7,64.9
		L40.7,64.9L40.7,64.9z M69.1,91.1L69.1,91.1l0-0.1l0-0.1l-0.1,0l-0.1,0L68.4,91V91l0.1,0.1l0.3,0.4l0.1,0l0.4-0.1l0.8,0.5l0.4,0.1
		l0,0l0,0l0.1,0l0.1,0l0.1,0l-0.1-0.2l-0.2-0.2l-0.2-0.1l-0.8-0.1l-0.1-0.1v-0.1h0.1v-0.1l-0.2,0l-0.2,0.1l-0.2,0L68.8,91l0.1,0
		L69.1,91.1z M130.4,126.9L130.4,126.9l-0.1,0.1l0,0l0,0l0,0l-0.1,0l-0.2,0l-0.1,0l0,0.1l0.2,0.1l0.1,0l0.1,0l0.1-0.1l0.1-0.1
		L130.4,126.9L130.4,126.9L130.4,126.9z M56.1,78.5L56.1,78.5l-0.4-0.3l0,0L55.6,78l-0.4-0.2l-0.1,0L55,77.7H55l0,0.1l-0.1,0.1
		l0,0.2l0.1,0.2l0.1,0.2l0,0.2l0.1,0.1l0.4,0.1l0.6,0.1l0.2-0.1l0-0.2l-0.1-0.1L56.1,78.5z M71,93.9l-0.1-0.1l-0.1,0l-0.1,0l-0.1,0
		l-0.2-0.2l-0.2-0.2l-0.3-0.1l-0.2,0l0.2,0.4l0.1,0.3l0,0.1l0,0.1l0.1,0.2l0.2,0.2l0.2,0.1l0.5,0.5l0.1,0.2l0.1,0.1l0.1,0.4l0.1,0.1
		l0.1-0.2l0.1-0.3l0.1-0.5l0-0.1l-0.1-0.1l-0.2-0.1l-0.1-0.1l0-0.1v-0.1L71,94.3l0-0.1l0-0.1L71,93.9z M145.2,58.9l-1.3-0.7l-0.1,0
		l-0.5,0l-0.7-0.2l-0.1,0l-0.2,0.1l-0.1,0l-0.1,0l-0.2-0.1l-0.1,0l-0.1,0l-0.1,0l-0.1,0l-0.1,0l-0.1-0.1l-0.1-0.2l-0.1-0.1l-0.2-0.1
		l-0.3-0.1l-0.2-0.1l-0.1-0.1l-0.2-0.3l-0.1-0.1l0,0l0,0l0.1,0l-0.1-0.2l-0.1-0.1l-0.3,0l0-0.1l-0.2,0l-0.2,0.1l-0.1,0.1l0,0.1
		l-0.1,0.2l0,0.1l-0.1,0l-0.2,0l-0.1,0l0,0.1l-0.1,0.2l0,0l-0.1,0l-0.2-0.1l-0.7,0l-0.1,0l-0.1-0.1l-0.3-0.2l0,0L137,57l0,0.1l0,0.1
		l0,0.1l-0.2,0.2l-0.2-0.1l-0.1-0.3l0-0.4l-0.2,0l-0.5-0.3l-0.1,0l-0.2,0l-0.3-0.1l-0.1,0l0,0.2l0.1,0.2l0,0.2l-0.1,0.2l-0.1,0
		l-0.3-0.1l-0.4,0l-0.1,0l-0.1-0.2l0-0.1l0-0.2l-0.1-0.2h0l-0.1,0.1l0,0l0,0l0-0.1l0,0l0-0.1l-0.1-0.2l0,0l-0.1,0l0,0l0-0.1l0-0.1
		l0-0.1l-0.5-0.5l-0.1-0.2l-0.1-0.1l0-0.1l0.1,0l0-0.1l0-0.1l-0.4-0.4l-0.1-0.1l0,0l0-0.1l0-0.1l0-0.1l-0.1-0.1l-0.7-0.4l-0.1,0
		l-0.1,0l-0.1,0.1l-0.1,0l-0.1,0l-0.2,0l-0.2-0.1l-0.4-0.3l-0.2-0.1l-0.2,0l-0.5,0l0.1,0.1l-0.2,0l-0.1,0l0,0.1v0.1l0,0.1l-0.1,0
		l-0.1,0.1l-0.1,0l-0.7,0l-0.1,0l-0.1-0.3l-0.2-0.2l-0.5-0.1l-0.2-0.1l-0.1-0.1l-0.3-0.3l-0.1,0l0,0l-0.2-0.1l-0.1,0l-0.1,0
		l-0.1,0.1l-0.1,0l0,0l-0.2,0l-0.2-0.1l-0.2,0h0l-0.2,0.1l-0.1,0.1v0l0,0.1l0,0l0,0l-0.1,0l-0.1,0l-0.1,0l-0.2-0.1l-0.1,0l0,0
		l-0.1,0.1l-0.1,0.1l-0.2,0.1l0,0l-0.2,0l0-0.1l0,0l0-0.1l0-0.1v-0.1l0-0.1l-0.4-0.7l-0.1-0.1l-0.2-0.1l0,0l0,0l0,0h0l0,0l0,0.1
		l0,0.1l0,0l0,0l-0.1,0l0,0v0l0-0.1l0-0.1l0-0.2v0l0,0l0.1,0l0,0l0,0l-0.1-0.2l-0.2-0.2l-0.2-0.2l-0.1,0l-0.1,0l-0.1,0l-0.2,0.1
		l-0.2-0.1l-0.1-0.1l0,0l-0.1-0.1l-0.2-0.3l-0.1-0.2l-0.1-0.1l-0.1,0l-0.2-0.1l-0.2-0.1l-0.3-0.3l-0.1-0.1l0,0l-0.1,0l-0.1,0L120,49
		l-0.2,0.1l-0.1,0l0,0l-0.1,0l-0.1,0v0l-0.1-0.1l0-0.2v-0.2l0-0.1v0l-0.1-0.1l0-0.1l0-0.1l0.1-0.1l0,0l0-0.1l0,0l0-0.1l0,0l0-0.1
		l0-0.1l0-0.1l0-0.1l-0.1-0.2l0,0v0l-0.2-0.1l-0.2-0.1h0l-0.1-0.2l0-0.2l0.2-0.5l0.1-0.2l0,0l0-0.1l0-0.1l0-0.1l0,0l0-0.1l0.1-0.2v0
		l0.1,0l0.1,0.1l0,0l0-0.1l0-0.1l0-0.3l0-0.1l0-0.2l-0.1-0.1l-0.2,0.1l-0.1,0l0-0.2l0,0l-0.2,0.1l-0.8,0.9l0,0.1l0,0.1l0,0.1l0,0
		l0,0l0,0l0,0l0,0l0,0.1l0,0.3l-0.1,0.2l0,0l-0.1,0.1l-0.1,0l0,0l-0.3,0.1l-0.3,0.1l-0.8,0.4l-0.2,0l-1-0.3l-0.2-0.1l-0.2,0
		l-0.4,0.1l-0.1,0l0,0l-0.4-0.2h0l0.1,0l0-0.1l0-0.1l0-0.1l0-0.1l0,0h0l0-0.1l0-0.1l0,0l0,0l0.1-0.1l0.1-0.1l0.1-0.1l0.1-0.1l0.1,0
		l0.1-0.1l0.1,0l0-0.1v0l-0.1-0.1l0-0.1l0,0l-0.1-0.5l-0.1,0l-0.1,0l-0.2,0.1l0,0l-0.1,0l0-0.2l0,0l0.1-0.3l0.1-0.2l0-0.2l0-0.1l0,0
		l0.1-0.1l0.2-0.1l0,0l0.1-0.1l0-0.1l0-0.1l0-0.1l-0.1-0.1l-0.1,0l0,0l-0.1,0l-0.1,0h0l0,0.1l0,0l0,0h0l0,0l0,0l-0.1,0l0,0l-0.2-0.4
		l-0.1-0.1l0,0l-0.2-0.1l-0.1-0.1l-0.1,0l-0.3-0.3l0,0l-0.1-0.1l-0.1,0l-0.1,0l-0.3,0.1l-0.2,0.1h-0.2l0,0l-0.1-0.1l-0.1-0.1l-0.1,0
		l-0.2-0.1l-0.3,0l-0.3,0l0,0l-0.1,0l-0.1,0.1l-0.1,0.2l0,0.1l0,0l0,0l0,0l0,0l0,0l0,0l0,0.1l-0.3-0.3l-0.1-0.5l0-0.6l-0.1-0.5
		l-0.1-0.2l-0.2-0.2l-0.2-0.1l-0.2,0l-0.5,0h0l-0.1-0.1h0l0.1-0.1l0,0l0-0.1l-0.1-0.1l0,0l-0.1,0l-0.1,0l0,0l-0.1,0l0,0l0,0l0,0.1
		l0,0l-0.1,0.1l-0.3,0.1l-0.1,0l-0.1,0l-0.1,0l-0.1,0l-0.3-0.2l-0.1-0.1l-0.1-0.1l0,0l0-0.1l0-0.4l-0.2-0.7l-0.1-0.4l0.1-0.1
		l0.1-0.1l0-0.1l-0.1-0.2l-0.1-0.1l0,0l-0.1,0v0l-0.1,0l-0.1-0.1l-0.1-0.2l-0.1-0.2l0-0.1l-0.1-0.2l-0.1-0.1l-0.2-0.1l0,0l-0.4,0.1
		l-0.2,0.1l-0.1,0l-0.3,0.1l-0.1,0.1l-0.1,0.1l-0.1,0.1l-0.1,0.1l-0.1,0.2l-0.1,0.2l-0.1,0.1l0,0l-0.1,0l0,0l0,0l0,0l-0.6-0.3
		l-0.1,0l0,0l-0.1-0.1l0,0l0,0l-0.1-0.3l0-0.1l0,0l-0.3-0.3l-0.1-0.1l0-0.1h0l0-0.1l-0.1-0.1l0,0l-0.1,0l-0.1,0l-0.1,0l-0.1,0l0,0
		l0,0l0-0.1l0-0.1l0-0.1l0,0l0,0l0,0l-0.1,0l0,0l0,0v0l0,0l0,0l0.1-0.1l0-0.1l-0.1-0.3l-0.1-0.3l0-0.1l0.1-0.1l0.1-0.1l0,0l0,0
		l0-0.2l-0.1-0.2h0l-0.3-0.3l-0.1-0.2l0-0.1l-0.1-0.5l0,0l-0.1-0.3l-0.1,0.1l-0.3,0.2l-0.6,0.2l-0.5-0.1l-0.1,0l-0.1,0l-1.4,0.4
		l-1.3,0.2L96.2,34l-0.1,0l-1.5,0.7l-0.2,0.2l-0.2,0.3L94,35.3l-0.2,0.1l-0.2,0l-0.1,0l-0.2,0.2l0,0.1l0,0.2l0.1,0.5l0.1,0.3l0,0.2
		L93.5,37l-0.2,0.5l0,0.2l0,0.3l0.1,0.5l0,0.6l0,0.2l0.2,0.3l-0.2,0.2l0,0.5l0,0.6l-0.1,0.4v0.1l0.4,0.3v0.1l-0.3-0.1l-0.2,0.3
		l-0.1,0.5l0,0.4l0.1,0.1l0.3,0.2l0.1,0.2l0.1,0.1l0.1,0.1l0.2,0.1l0.2,0v0.1h-0.2l0,0.1l0,0.1l0.1,0l0.1,0V44l-0.1,0.1l-0.1,0
		l-0.8-0.4l-0.3,0l-0.3,0.4l-0.2,0.7l-0.1,0.1L92.3,45l-0.4,0.5l-1,0.8l-0.3,0.4l-0.2,0.1l-0.2,0.2l-3.3,1.1l-0.7,0l-0.6,0.2
		l-0.3,0.2L85,48.5l-1,0.6l-0.1,0.1l-1,0.5l-0.1,0.1l-0.1,0l-0.4,0.3l-0.1,0.1l-0.3,1.1L81.4,52l0,0.1l0,0.1l0,0.1l0.1,0.1l0,0.1
		l0.1,0.1l0.2,0.1l0.2,0.1l0.1,0h0.2l0.6,0.2l0.7,0.1l0.7-0.1l0.6-0.4l-0.1,0.2l-0.2,0.1l-0.4,0.2l-2,0.5L81.6,54l-0.2,0.3l-0.1,0.1
		l-0.2,0l-0.2,0.2l-0.4,0.2L79.3,55l-0.2,0.2l-0.7-0.5l-0.4-0.1l-0.2-0.2l-0.1-0.1H77l-0.3-0.2l-0.2,0l-0.3,0.2l-0.2,0l-0.3-0.1
		l-1.4-0.1l-0.9-0.4l-1-0.1l-0.1,0.1L72,54L72,54.2l0.1,0.1v0.1l-0.2,0l-0.1-0.1l-0.1-0.1l-0.1-0.1l-0.1,0l-0.1,0.1l-0.1,0l0-0.1
		l0,0l0-0.1l0-0.1l0-0.1l0-0.3l-0.1-0.2l-0.6-0.8l-0.1-0.3l-0.1-0.2l-0.1-0.2l0-0.3l0.1-0.1l0.1,0l0.2,0l0-0.1l0-0.1l0-0.1l0.2-0.1
		l0-0.2l-0.2-0.4l0-0.2l0-0.1l-0.1,0l-1-0.2l-0.1,0l-0.4,0.1l-0.1,0.1l-0.2,0.3l-0.1,0.1l-0.1,0.1l-0.1,0l-0.2-0.1l-0.1,0l-0.1,0
		l-0.1,0.1l-0.1,0l-0.1,0l0-0.1l0-0.1l0,0l-0.1,0l-0.6-0.2l-0.5-0.1l-0.2-0.1l0,0l-0.1,0l0,0l0-0.1l0-0.1l0-0.1l-0.1,0l-0.2,0
		l-0.1,0l-0.2-0.1l-0.1,0l-0.2,0l0,0.1l0,0.2l-0.1,0.3l0.3,0.1l0.3,0l0.1,0.1l0,0.1l0.1,0.1l0.1,0.2l0,0.2l0,0.4l-0.1,0.1L65.9,52
		l-0.1,0.2l0,0.1l0.2,0.3l0.1,0.1l0,0.1l0,0.1l0,0.1l0.1,0.2l0,0.1l0,0.1l0,0.2l0,0.4l0,0.2l0.1,0.1l0.1,0l0.1,0l0.1,0l0,0l0,0
		l0,0.1l0.2,0.1l0.2,0.2l0.1,0.1l0.1-0.2h0.1l0.1,0.2v0.1h-0.2l0.1,0.2l0.1,0.1l0.2,0.2l0,0l0,0l-0.1,0.1l0.1,0.1l0.1,0.4l0.1,0.1
		l0.1-0.2l0.2,0l0.2,0.1l0.2,0.1V56l-0.3-0.1l-0.1,0L68,56l0,0.2l0,0.2l0.1,0.2l0.1,0.2l0-0.1l0,0l0.1,0.1L68.2,57l-0.1,0.1
		l-0.1,0.2l0,0.2l0,0.1l0,0.1l0.1,0l0,0.1l0,0.1l0,0.3l0,0.1l0.1,0.1l0.1,0.1l0,0l0.1-0.2l0.2-0.1h0.2l0.2,0.1v0.1l-0.2-0.1
		l-0.1,0.1l-0.1,0.2l-0.1,0.7l0,0.1l0.1,0l0,0.1l0,0.1l0,0.1l-0.1-0.1l-0.1,0.1l-0.1,0.6l-0.1,0.1l-0.1,0.1l-0.1,0.1v0.1l0.2,0
		l0.1,0.2l0,0.3l0,0.3l0.1,0.3l0.3,0.3l0.1,0.3l0,0.1l0.1,0.1l0.3,0.1l0,0l0,0.1l0,0.1l0,0.1l0,0l0,0v0l0.3,0l0.2,0.1l0.1,0.2
		l-0.3-0.1L68.9,63l-0.6-0.1l-0.1,0l-0.4,0.2l-0.6,0.1l-0.6,0l-0.3-0.1L66,62.9l0-0.3l0.2-0.3l-0.1-0.1l0-0.1l0-0.1l0-0.1l-0.8,0.2
		l0,0.1h-0.3l-0.1,0l0,0.1v0.1l0,0l-0.1,0l-0.1,0.1l-0.1,0.1l0,0.1l0.1,0.1l0.1,0.4l0.1,0.1l0.1,0l0.1,0l0.1,0.1l0.1,0.1l-0.1-0.1
		l0,0l0-0.1h-0.1l0,0.2l0.1,0.2l0,0.1l0.2,0.2l-0.2,0.2l-0.1,0.1l0-0.3l0-0.2l-0.2-0.3l0,0l0-0.1l-0.1,0l-0.1-0.1l0-0.1l0-0.1
		l-0.2-0.3l0-0.1l-0.4,0L63.8,63l0.1,0.2l0,0.1l0.1,0.1l-0.1-0.1l-0.1,0l-0.1,0.1l-0.1,0.1l0.1,0.1l0,0v0.1l-0.1,0.1l-0.1-0.1l0-0.2
		l0-0.2l0,0.1l0,0.1l-0.1,0.1l-0.1,0l0-0.1l0-0.1l-0.1-0.1l-0.1,0l0-0.1l0-0.3l0-0.1l-0.2,0.1l-0.2,0.2l-0.1,0.1l-0.1-0.1l0.2-0.2
		l0-0.1l0-0.1l0-0.1l0.1,0v-0.1l-0.1,0l-0.1,0l-0.1-0.1l0-0.1l-0.1,0.2l-0.2,0.2l-0.2,0.2l-0.2,0.1l-0.1-0.2l-0.2,0L61,62.8l0.2,0.1
		l0.1,0V63l-0.1,0.1l-0.5,0.3l-0.1,0l-0.1,0.1l-0.1,0.1l-0.2,0.3L60,64.1l-0.1,0.1l-0.3,0l0,0.1l0,0.2l0,0.1l-0.1-0.1l-0.1-0.1
		l-0.1-0.1l-0.1,0l-0.1,0l0.1-0.1l0-0.1l0-0.1l0-0.1l-0.5-0.2l-0.2-0.1l-0.1,0l0,0l0-0.1l0-0.1l0-0.1l0-0.1l0-0.1l-0.1-0.4l-0.5-0.4
		l-0.1-0.1L57.6,62l-0.1-0.1l-0.1-0.1v-0.1l0,0l0.1-0.1l0-0.1v-0.1l0-0.1l-0.2-0.1l-0.4,0l-0.2-0.1v-0.1h-0.1v-0.1l0.1-0.1l0.1,0
		l0.1,0v-0.1l0,0h0l0,0l0.1-0.1l-0.1-0.1l-0.1,0l-0.1,0l-0.1,0.1l-0.1,0L56.3,61L56,61.5H56v-0.1l0.2-0.2l0.1-0.1l0.1-0.3l0.1-0.1
		l-0.1-0.1v-0.1l0.1-0.1l0-0.1l-0.1-0.1l-0.1-0.1l-0.1,0l-0.1,0.2l-0.1,0l-0.1,0.1l-0.2,0.2l-0.2,0.3L55.2,61l0,0.2l0-0.1l0,0l0-0.1
		l0.1-0.1l0.1-0.2l0-0.2l-0.1-0.2l-0.1,0l-0.2,0.3l-0.1,0h-0.1l-0.1,0.1L54,60.8l-0.1,0l-0.1,0.1l-0.1,0l-0.1,0l-0.2,0l0-0.1l0,0
		l0,0l0,0l-0.1,0l-0.3-0.2l-0.3,0l-0.1-0.1h0l0,0.1l-0.2,0.3L52.4,61l-0.1,0.1l0,0.2l0.3,0.3l0.1,0.1l-0.4,0.1l0,0.1l0,0.2l0.1,0.3
		l-0.1,0.1l-0.2,0l-0.2-0.1l0-0.2l-0.3,0.1l-0.1,0l-0.1,0L51.2,62l-0.1,0l-0.4,0l-0.1,0l-0.1-0.1l0,0.1l0,0.1l0,0.1l0,0.1L50.4,62
		l-0.1,0.1l0,0.2l0,0.2l-0.1-0.1l0,0l0-0.1h0l0,0.2l0,0.1l0,0.1l-0.1,0.1l0.1,0.1l-0.1,0.1l-0.1-0.1l-0.2-0.2l-0.1-0.1v-0.1l0,0
		l0.1-0.1l-0.2,0l-0.1,0.1l-0.2,0.2l0-0.1l0-0.1l-0.1-0.1l-0.1-0.1v-0.1h0.1v-0.1l-0.1,0l0-0.1l0-0.1l0-0.1l0,0l-0.3,0.1L48.8,62
		l-0.1,0l-0.1,0l0,0.1l0,0.1l0,0.1l-0.1,0.1h0l0-0.1l0-0.1h0l0,0.1l-0.1-0.1l-0.2,0l-0.2,0l-0.2,0.1l-0.1,0.1l-0.1,0.1l0,0.1l0.2,0
		v0.1h-0.1l-0.2-0.1l-0.1,0l-0.1,0l-0.2,0.1l-0.2,0l0.1-0.3l-0.1-0.2l-0.2,0l-0.2,0.1l-0.2,0.1l-0.2,0v0.1l0,0l0.1,0.1l-0.2,0
		L45.3,63l-0.2,0h-0.6v0.1l0.1,0l0,0l0,0l0,0.1l0.2,0.1l-0.2,0l-0.4-0.1l-0.1,0.1l0.1,0.2l0.2,0.3l-0.1,0l-0.3-0.1l-0.2,0l-0.2,0
		l-0.1,0.1l-0.1,0.1l0.1,0.1l-0.1,0l-0.1-0.1L43.1,64l-0.2,0.4l-0.1,0.3l0.2,0.2V65l-0.1,0l-0.1,0.2l0,0.2l0,0.2l0.1,0.3l0,0.2
		l-0.1,0l0.1,0.2l0.1,0.1l0.1,0l0.4,0l0.1,0l0-0.1l0-0.1l0,0l0.2,0l0.3,0.1l0.1,0l0.2,0l0.2-0.1l0.4-0.1l0.5-0.3l0.2-0.1l0.5-0.1
		l0.2-0.1l0.2-0.1l0.1,0l-0.8,0.5L45.9,66l-0.5,0.6v0.1l0.1,0l0.1,0l0.1,0l0.1-0.1l0.1,0.1l0,0l0,0l0,0l0.2,0l0.3-0.2l0.1,0.1l0-0.1
		l0-0.1l0-0.1h0.1v0.1h-0.1v0.1l0.1,0l0.2-0.1h0.1l-0.2,0.2l-0.1,0.1l0,0.1l0,0.1l-0.1,0l0,0l-0.1,0.1l0.3,0l0.1,0l0,0.1l0.1,0
		l0.1,0l0.1-0.1l0,0.1l0.1,0l0.2,0V67l-0.7,0.1l-0.2-0.1l0.1,0l0.1,0l0-0.1l-0.5,0L46,67.2l-0.1,0l-0.1,0l-0.1,0l-0.1-0.1l-0.1,0
		l-0.7,0.1L44.7,67l0.1-0.4l-0.1-0.1l-0.1,0.1l-0.1,0.4l0,0l0,0.1l0,0.1l-0.1,0l-0.1,0l-0.1,0l-0.1,0l-0.1,0l0,0.1l0,0.1l0.5,0
		l0.1,0l0.1,0.1l0,0l-0.1,0.1l0,0.1l0,0.1l0,0.1l0.1,0.1l0,0.1l-0.1,0.3l0.2-0.1l0.1-0.2l0.1-0.3l0.1-0.2l0.2-0.1l0.4,0.3l0.2-0.1
		l0,0.1l0,0.1l0.1,0.1l0.1,0l0.3,0.1l0.1,0.1l0,0.3l0,0.1l0.1,0.1l0,0.1l-0.1,0.3l0,0.1l-0.1,0.1l-0.5-0.1l-2.6,0.6l0,0l-0.1-0.1
		l0,0l0,0l0,0l0,0l0,0.1l0,0.1l0,0.1l-0.1,0l0.6,0.2l0.3,0l0.1,0l0.2,0.2l0.1-0.1l0.1-0.1l0.1-0.1l0.1,0l0.7,0.6l0.4,0.5l0.1,0.2
		l0.1,0.3l0.1,0.3l0,0.2l0,0.1l-0.1,0h-0.1l0,0l0,0.1l0,0.2l0,0.1l1.2,0.1l0.2-0.1l0.1-0.1l0.3-0.3v-0.1h-0.2v-0.1l0,0l0,0l-0.1-0.1
		l0-0.1l0.1,0l0.2,0.3l0.1-0.1l0.1-0.1l0.1,0l0.1,0v-0.1L48,72l-0.1-0.2l0-0.2l0.1-0.1l0,0.2l0.1,0.2l0.1,0.1l0.1,0.1l0.1,0l0.1,0
		l0.2,0.2l0-0.1l0.1,0l0.1,0l0.1,0l0,0.1l0,0.1l-0.1,0l-0.1,0l0.2,0l0.2-0.2l0.1-0.2l-0.1-0.2l0.2,0l0.2,0.1l0.1,0.2l0,0.1l0.1,0.1
		l0,0l0.1,0l0,0.1l0,0.1l0.1,0l0.1,0.1l0.2,0.3l0,0l0.1,0l0.2,0l0.2,0l0.1,0.1l0.4-0.2l0.1,0l0.1,0.2l0.2,0.1l0.3,0l0,0l0.1,0.1
		l0.1,0l0.1,0l0.2,0l0.3,0.1l0.1,0l0.1-0.1l0,0.1l0,0.1l0.1,0.1l0.1,0.2l0.2,0.3l0,0.1l0.1,0l0.7-0.2v-0.1l0-0.1l0,0l-0.1,0l0.2,0
		l0.2-0.1l0.2-0.2l0.2-0.2v0.1l-0.1,0.1l-0.1,0.1l-0.1,0.3l0,0l-0.1,0l0,0v0.1l0,0.1l0,0l-0.1,0V74l0.3,0l0.1,0.1l0.1,0.1v0.1
		l-0.3-0.1l-0.1,0l-0.1,0.1l0.2,0l0.3,0.1l0.2,0.1l0.2,0.3l0.1,0l0.1,0l0-0.1l0-0.1l0.1-0.1l-0.1-0.1l0,0l0.1,0l0.1-0.1l0.1,0
		l0.1,0.1l0,0l0,0l0,0l0,0l0-0.2l0-0.1l-0.1-0.1l-0.1,0l0.1,0l0.1,0.1l0.1,0l0.1-0.1h0l0,0.1l0,0.2l0,0l0.1,0l0,0v0.1l0,0.1l0,0.1
		l0,0.1l-0.6,0.3l-0.1,0.3l0,0.2l0,0.1l0.1,0l0.1,0l0.1,0l0.1,0.1l0.1,0.2l0.1,0.2l0,0.3l0,0.2l-0.1,0.2l0,0.1l0,0.1l0.1,0.3h0
		l0.1-0.1l0.2,0l0.1,0l-0.2-0.2L56,76.3l0-0.3l0.1-0.4l0,0l0,0l0,0l0.1-0.1l0.1,0l0.1,0.1l0.1,0.1l-0.1,0l-0.1,0l0.1,0.1l0.1,0
		l0.3-0.1l0.1,0.1l0,0l0.1,0l0-0.2l0-0.1l0.1,0l0,0.2l0,0.2l0.1,0l0-0.1l0-0.2l0.1,0.1l0.1,0.1l0.1,0.1l0.1,0l0.1,0.1l0,0l0,0l0,0
		l0-0.1l-0.1-0.1l-0.1-0.1l-0.1-0.1l0-0.1v-0.3l0-0.1l0-0.1l0-0.1h0.1l0,0.1l0.1,0.1l0.1,0.1l0.1,0l-0.1,0.1l0,0.1l0,0.1l0,0.1h0.1
		l0-0.1l0,0l0.1,0v0.1h-0.1v0.1l0.3-0.1l0.2-0.1l0.1-0.1l0.1-0.1l0.4,0l0.2-0.1l-0.1-0.1l0.2,0l0.1,0.1l0.1,0.1L58.9,75l-0.2,0
		l0.4,0.3l0,0.1l0.1,0l0,0l0-0.1l-0.1-0.1l0.1,0l0-0.1l0-0.1l-0.1-0.1v-0.1l0.2,0.2l0,0.2l-0.3,0.4l0.1,0.1L59,75.9l-0.2,0l-0.2-0.1
		l-0.1-0.1l0,0.2l0,0.1l-0.1-0.1l-0.1,0l0,0l0,0.1h-0.1L58,75.7h-0.2l-0.1,0.1l0.1,0.1l0,0.1l0,0l0,0l0.1,0l0.1,0l0,0.1l0,0l0.1,0.2
		l0,0l0.1,0.1l0.1,0.1l0.1,0l0.2,0l0.4-0.1l0.1,0l0.3,0.1l0.1-0.1l0-0.3l0.1,0.1l0.1,0l0.2,0l0-0.1l0,0l0,0l-0.1,0l0.1,0l0.1,0
		l0.1,0l0.1-0.1L60.3,76l-0.1,0.1L60,76.2l-0.1,0l0.1,0.1l0,0l0,0l0.1,0h0.3l0.3-0.1l0.1,0l0.1,0l0.6,0.2l0.1,0l0.2,0l0.1,0l-0.2,0
		l-0.3,0.1l-0.5,0L61,76.6l0.1,0.2L61,77l0.1,0.1l0.2,0l0.1,0.1l-0.1,0.2l0.1,0.1l0.2,0l0.1,0l0,0.1l-0.3,0.2l-0.1,0.1l-0.1-0.1l0,0
		l0,0l0-0.1l-0.1,0l-0.1,0l-0.1,0l-0.6,0.4l0.3,0.2l0.1,0.2l0,0.3H61l0-0.1l0,0l0-0.1l0,0l0,0l0.1,0l0.1,0.2l0.2,0.2l0.1,0.2
		l-0.1,0.2l-0.2,0l-0.3-0.2l-0.2,0v0.1l0.7,0.4l0.2,0l0,0l0-0.1l0-0.1l0.1-0.1l0.1,0l0.1,0l0.1,0l0.1,0.1l0.2,0.2l0.1,0.1l0.1,0.1
		l0.2,0l0.2-0.1l0.2-0.2l0.2-0.1l0.1-0.1l0-0.1l0-0.1l0.1-0.1l0.2-0.2l1.1-0.1l0.3,0.1l0.1,0.1l0.1,0l0.2,0l0.2,0.1l0.3,0.2l0.3,0.2
		l0.2,0.3l0.1,0.1l0.3,0.1l0.2,0.1l-0.4,0l-0.2-0.1l-0.2-0.2l-0.1-0.1l-0.3-0.1l-0.3-0.2v-0.1h0.2l-0.1-0.1L65.6,79l-0.1,0h-0.1
		l0.1,0.1l-0.1,0L64.9,79l-0.1-0.1l-0.1-0.1l-0.1,0l-0.1,0l-0.1,0L63.9,79l-0.2,0.1l-0.1,0.1l-0.1,0.1l0,0.1l0,0.1l0,0.2l0.1,0.2
		l0,0.2l0,0.2l0,0.1l-0.1,0l-0.3,0l-0.1,0.1l-0.1,0.1L63,80.7l0.3,0.2l0.9,0.2l0.5,0.3l0.1,0.1l0.1,0.1l0.1,0.2l0,0.2L64.8,82
		l-0.1,0.2l-0.1,0.4l-0.1,0.2L64.2,83l-0.1,0.1l0,0.2l-0.2,0.1l-0.1,0.1l0,0.2l0,0.2l0,0.2l0.1,0.2l0.1,0.1l0.2,0.1l0.2,0.2l0.4,0.5
		l0.2,0.5l0.1,0.1l0.1,0l0.1,0l0.1,0.1l0.1,0.3l0.1,0.1l0.1,0.1l0.1,0.1l0,0.1l0,0.2l0.1,0.1l0.1,0.1l0,0.2l0.2,0.8l0.1,0.1l0.1,0
		l0,0l0-0.1l0-0.2l0-0.1l0.1,0.1l0.1,0.3l0.1,0.1l0.1,0.1l0.2,0.1l0.3,0.2l0.4,0.1l0.1,0.1l-0.1,0.1l0.2,0.1l0.5,0l0.2,0l0.2,0.1
		l0.1,0.2l0,0.3l0.1,0.2l0.2,0l0.4-0.1l0.1,0l0.2,0.2l0.2,0.1l0.1,0l0.1,0l0.1,0.2l0.2,0.2l0.2,0.1l0-0.4l0.3-0.2l0.4,0l0.2,0.2
		l0,0.2l0,0.1l0,0.1L72,90.9l-0.5,0.3l-0.1,0.2l0,0.2l-0.1,0l-0.1,0.1l-0.1,0.1l0,0.1l0.1,0.1l0.1,0l0.1,0l0.1,0l0.1,0l0,0l0,0
		l0,0.1l0,0.1l0,0l0.1,0l0.2,0.1l-0.1,0.1v0l0,0l0,0.1l0,0l0.1,0l0,0l0,0l0,0.1l0.1,0.2l0,0.1l0,0.1l0.2,0.1l0.1,0l0,0.1l0,0.1v0.1
		l-0.1,0.2l-0.1,0.1l-0.1,0L72,93.6l0.1,0.4l0.1,0.2l0.1,0.1l0,0l-0.1,0.1l0,0l0,0.1l0.1,0.1l0,0.1l0,0.1l0,0.1l-0.1,0l-0.1,0
		l-0.1,0L72,95l-0.1,0.1l0,0.1l0,0.1l-0.1,0.1l-0.1,0l0.1,0.1l0.1,0.2l0,0.2l0,0.1l0,0.1l0.2,0.2l0.7,0.6l0.2,0.2l-0.6-0.3l-0.1-0.1
		l-0.1-0.1L71.7,96l-0.2,0L71,96.2l0,0.1l-0.1,0.8l0.1,0.1l0.3-0.1l0.1,0.1l0.1,0.1l0.1,0.1l0.1,0.1l0.2,0l0.2,0.1l0.4,0.4l0.3,0.1
		l0,0l0,0.2l0,0l1.1,0.8l0.4,0.4l0.2,0.3l0.2,0.3l0.3,0.7l0.1,0.4l0.3,2.2l0.1,0.4l0.1,0.3l0.3,0.2l0.3,0.1l0.3,0.2l0.2,0.4
		l-0.2-0.1l-0.2-0.1l-0.2,0l-0.2,0l0.2,0.1l0.2,0.2l0.1,0.2l-0.1,0.3l0,0.1l0,0.3l0,0.2l-0.1-0.1l-0.1-0.2l0-0.2l0-0.2l0-0.2l0-0.1
		l-0.1-0.1l-0.1-0.1l-0.3-0.2l-0.3-0.3l-0.3-0.4l-0.3-0.7l0-0.1l-0.1-1l-0.1-0.4l0-0.2l-0.1-0.3l-0.2-0.3l-1-1.1l-0.1,0l-0.3-0.2
		l-0.5-0.4l-0.1-0.1l-0.1-0.1l0-0.1l0-0.1l0-0.1l0,0l0-0.1l0-0.1l0-0.1l-0.1,0l-0.1,0l-0.1,0.2l-0.3,0.6l0,0.2l-0.1,2.4l-0.3,1.8
		l-0.5,5.5l0.1-0.1l0.1-0.3l0.1-0.5l0.4-0.5l0.1-0.1l0,0l0,0l0,0l0,0l0.1,0l0,0l0,0l0,0l0.1,0l0.6,0.6l0.1,0.2h-0.1l0.2,0.2l0,0.2
		l-0.2,0.1l-0.3,0l-0.5-0.1l-0.2,0l-0.2,0.2l-0.1,0.5l0,0.1l0,0.1l-0.2,0.3l0,0.1l0.1,0.3l0,0.2l-0.1,0.7l-0.2,1.6l-0.5,3.1
		l-0.3,1.4l-0.2,0.6l-0.3,1.8l-0.2,0.6l-0.1,0.3l-0.1,0.4l-0.1,0.1l-0.4,0.3l-0.1,0.1l0,0.1l-0.2,0.3l-0.1,0.1l-0.1,0.1l-0.2,0.1
		l-0.2,0.1l-0.7,0.1l-0.1,0.1l-0.1,0.1l-0.1-0.1l0,0.3l0,0.2l0,0.1l0.2,0.1l0.1,0.1l0,0.2l0,0.1l0.1,0l0.1,0l0.2,0l0.2-0.1l0.1,0
		l0.2,0.1l0.1,0.1l0,0.1l0,0.1l0,0.1l0.1,0.2l0,0l0.1,0l0.1,0l0.1,0l0.1,0l0-0.1l0.1-0.2l0.1-0.1l0.2,0l0.2,0.1l0.3,0.2l0.1,0l0.1,0
		h0.1l0.2,0.2l0,0.4l-0.1,0.4l-0.1,0.3l-0.1,0.1l-0.3,0.4l-0.1,0.1l0.1,0.2l0.1,0.2l0.2,0.1l0.2,0l0.2,0l0.1,0l0.1-0.1l0-0.3
		l0.1-0.2l0.1-0.2l0.2-0.1l0.2,0l-0.2,0.1l-0.1,0.1l0,0.1l0.1,0.2l0.2,0.1l0.5,0.1l0.3,0.2l0.3,0.2l0.3,0l0.1,0l0.1,0.1l0.1,0l0.3,0
		l0.1,0l0.1,0.1l0.3,0.2l0.3,0.1l0.6,0.1l0.6-0.1l0.2,0.1l0.1,0.4l0,0.1l0,0l0,0.1l0,0.1l0.1,0.1l0.1,0l0.1,0l0.1,0l0.3,0.2l0.1,0.1
		l0.3,0.4l0,0l0,0l0,0l0.1,0h0.1l0,0l0,0.1l0,0.1l0,0.1l0.1,0.1l0.1,0l0.1-0.1l0.1,0l0-0.3l0.2,0l0.4,0.2l0.2,0l0.2-0.1L78,129
		l0.1,0.1l0.1,0l0.1-0.1l0-0.1l0.1,0.1l0.5,0.3l0.1,0.2l0.2,0l0.2-0.1l0.1-0.1l0,0.2l0,0.2l0.1,0.2l0.1,0.1l0,0.1l0,0.1l0,0.1l0.1,0
		l0.1,0l0.1,0l0,0.1l0,0l0.3,0.1l0.3,0l0.6-0.2l0.5-0.1l0.1-0.1l0.1,0l0.4,0.1l0.1,0.1l0.2,0.3l0.1,0.1l0.1,0l0.2-0.3l0.1-0.1
		l0.1-0.1l0.2,0.2l0,0l0,0l0,0l0,0l0.2,0l0.2,0l0.3-0.1l0.1,0.1l1,0l0.3,0l0.1,0l0.1-0.1l0-0.2l-0.1-0.2L86,130l-0.1,0l0-0.1l0,0
		l0.1,0l-0.1-0.1l0.1-0.3l0-0.2l0-0.2l0.2-0.1l0.2,0l0.1,0l0.3,0.1l0.1,0l0.2,0l0.1,0l0.3,0.2l0.2,0.1l0.1,0.1l0.1,0.1l0.1,0l0.1,0
		l0.1-0.1l0.1,0l0.1,0l0.1,0.1l0.1,0l0.7,0l0.2,0.1l0.1,0.1l0.1,0.2l0.1,0.2l0.1,0.1l0.1,0.1l0.1,0l0.3-0.1l1,0l0.2,0.1l0,0.2l0,0
		l0.1,0l0.1,0l0.1,0.3l0.2,0.2l0.1,0.4l0.1,0.2l0.2-0.1l0.1-0.4l0.3,0L93,131l0.1,0l0.4,0.3l0.1,0l0.9,0.1l-0.1,0.2l0.1,0.1l0.2,0.1
		l0.1,0.1l-0.2,0l-0.1,0.1l-0.1,0.2l0,0.3l0,0l0,0l0,0l0,0l0.1,0.1l0.5,0.1l0.2,0.1l0.4,0.3l0.2,0l0.1,0l0.1,0.1l0.1,0.2l0.1,0.4
		l0.1,0.2l0.2,0.1l0.1,0.1l0.1,0l0.2,0l0.1,0l0.1-0.1l0.1-0.1l0.2-0.1l0-0.1l0.1-0.2l0-0.1l0.1-0.1l0.4,0l0.5-0.2l0.2,0l0.2,0.1
		l0.1,0.1l0.5,0.2l0.2,0.1l0.1,0l0.1,0.2l0.1,0.2l0.2,0.1l0.1,0l0.2,0.1l0.1,0l0.1,0l0.1-0.1l0.1-0.2l0.1-0.1l0.2,0l0.4,0.1l0.2,0
		l0.2,0l0,0l-0.1-0.1l-0.1-0.2l0.1-0.1l0.3-0.3l0.1-0.1l0.2,0l0.3,0l0.2,0l0.1-0.1l0.2-0.2l0.1-0.1l0.1,0l0.1,0l0.1,0l0.3-0.2
		l0.3,0.1l0.1-0.1l0.1,0l0.2,0l0.1,0l0.1,0.1l0.1,0.1l0.1,0.1l0.1,0.1l0.2,0.1l0.2,0l0.2,0l0.5-0.1l0-0.1l0-0.3l-0.3-0.4l-0.6-0.6
		l-0.1-0.2l-0.1-0.8l0-0.1l0-0.1l0,0l-0.1,0l0,0l-0.1-0.1l0-0.1l0-0.1l0.1-0.1l0.1,0.2l0,0l0-0.1l0.1-0.5l0-0.2l0-0.2l0-0.2l0-0.1
		l-0.1,0l-0.2-0.1l-0.1,0l-0.1,0l-0.1-0.1l-0.1-0.1l-0.1-0.1l0.3-0.3l0.1-0.1l0-0.1l0-0.2l0-0.1l0.1,0l0.1,0.1l0.1,0l0.1-0.1l0-0.1
		l-0.2-0.2l-0.1-0.2l0-0.2l0.1-0.1l0.2,0l-0.1,0.2l0,0.1l0,0.1l0.1,0l0-0.1l0-0.1l0.1-0.1l0-0.1l0-0.1l0-0.3l0-0.1l0.2-0.2l0-0.1
		l-0.1-0.1l-0.1-0.1l-0.1-0.1l-0.1-0.3l0-0.1l0.1,0h0.2l0,0l-0.1,0.1l-0.2,0.1v0.1l0.1,0.1l0,0.1l0,0l0.1,0l0.2-0.3l0-0.1l0.1-0.1
		l0.2-0.2l0.1-0.1l0.1-0.2l0.1-0.1l0.1-0.2l1.1-0.8l0.3-0.1l0.2,0l0.3,0.2l0.2-0.1l0.7-0.8l0.3-0.2l0.9-0.5l1.6-1.3v-0.1l-0.3,0.1
		l-0.2,0.2l-0.4,0.5l-0.4,0.4l-0.3,0.1l-0.3,0v-0.1l0.7-0.3l0.1-0.1l0-0.2l0.1-0.1l0.5-0.4l0.2-0.1l0.5-0.2l0.4-0.3l0.2-0.1l0.4-0.1
		l-0.1,0.2l-0.1,0.1l-0.1,0.1l-0.2,0l-0.4,0l-0.2,0.1l-0.1,0.1l0.3-0.1l0.5-0.1l0.5,0l0.2,0.2l0,0l0.2,0.6l0,0.1l0.1,0.1l0.2,0.1
		l0.2,0l2.5,0.1l0.3,0.1l0.2,0.2l0,0.2l-0.1,0.2l-0.1,0.2l0,0.1l0.2,0.1l0.3,0.1l1.2,0.1l0.3-0.1L119,123l-0.2-0.2l-0.2-0.2
		l-0.1-0.4v-0.8l0-0.1l-0.2-0.4v-0.1l0.1,0.1l0.1,0.2l0.1,0.2l0,0.2l0,0.2l0,0.6l0.1,0.3l0.3,0.3l0.3,0.2l0.3,0.1l-0.1-0.2l-0.1-0.1
		l0-0.1l0.1-0.2l0.1-0.1l0.2,0l0.1-0.1l0.2-0.1l0.4,0.3l0.2-0.1l0.2,0.1l0.2-0.1l0.1-0.2L121,122l-0.1-0.1l-0.1-0.1l-0.1-0.1l0-0.2
		l0-0.1l0-0.2l0.1-0.1l0.1-0.1l0,0l0.1,0.2l0,0l0.2,0l0.1,0l0.2,0.1l0,0.1l0,0.1l0.1,0.2l0.2,0.2l0.2,0l0.2-0.1l0.2-0.2l0,0.3
		l-0.1,0.2l-0.2,0.2l-0.2,0.1l-0.2,0.1H121l-0.2,0.1l-0.1,0.2l0,0.2l0.2,0.2l0.2,0.1l0.5,0l0.1,0l0.3,0.1l1.1-0.2l0.2,0.2v0.6l0,0.1
		l0.1,0.1l0.1,0l0,0l0,0.1l0,0.1l-0.1,0.2l-0.1,0.1l0,0.1l0.1,0.1l0.1,0l0.2,0l0.1,0.1l0.1,0l0.2,0l0.2,0l0.1,0.1l0,0.1l0.1,0
		l0.1-0.1l0.1-0.1l0.1,0l0.2,0.3l0.1,0.1l0.1,0l0,0l0,0l0.1,0l0,0l0-0.1l0-0.1l0,0l0.4,0l0.2,0.1l0,0.2l0.3,0.2l0.2,0.1l0.2,0l0.1,0
		l0,0.1l0.1,0l0.1,0l0.1,0l0,0l-0.3,0.1l-0.1,0.1l0,0.1l0.1,0.1l0.4,0.2l0.2,0l0.1-0.1l0-0.1l0.1-0.1l0.1,0l0.3,0v-0.1l-0.1-0.1
		l-0.2-0.2l-0.1-0.1l0.2-0.1l0.1,0l0.1,0l0,0.1l0,0.1l0,0.1l0.2-0.1l0.2,0l0.2,0.1l0.1,0.1l0.1,0l0.6,0l0.1,0v0.1l0,0.2l0,0l-0.3,0
		v0.1l0.1,0l0.5,0l0.1,0v-0.1h-0.1l-0.1,0l-0.1-0.1l0.1-0.2l0-0.2l0.1-0.2l0.2-0.1l0.1,0l0.5,0l0.1,0l0.1,0l0.1,0l0.1,0l0,0.1l0,0.1
		l0,0l0.3,0l0.1-0.1l-0.1-0.2l0-0.1l0-0.1l0-0.1l0.1-0.1l0.1-0.1l0.3,0l0.2-0.1l0.2-0.1l0.1,0l0.2,0l0.1,0l0.1-0.1l0.1-0.1l0.2-0.1
		l0.2,0l0.1,0.1l0,0.1l0,0.1l0,0.1l0.1,0l0.2-0.1l0.1,0l-0.1-0.1l0.3-0.3l0-0.1l0,0l0,0l0-0.1l0-0.1l0-0.1l0,0l0,0l0-0.1l0.1-0.2
		l0-0.1l-0.8,0l0,0l0-0.1l0.1-0.1l0.2-0.1l0.2,0l0.1-0.1l0-0.1l0.1-0.1l0.1-0.1l0.1,0l0.1-0.1l0.1-0.3l0.1-0.2l0.1-0.2l0.1-0.1
		l0.2,0.1l0.2,0.1l0.4,0l0,0l0-0.1l0-0.1l0,0.1l0,0l0,0l0.1,0l0,0l0,0l0-0.1l0,0h0.1l0,0l0,0l0.3-0.5l0,0l0,0l0-0.2l0,0l0.1-0.2
		l0.1-0.1l0.1-0.1l0.1-0.1l0.2,0.1l0.2-0.1l0.2-0.1l0.2-0.1l0,0l0,0.1l0,0.1l0.1,0l0,0l0,0l0-0.1l0-0.1l0-0.5l0-0.1l0.1,0l0.1-0.1
		l0.1-0.1l0.1,0l0.1,0l0.1,0l0.1,0l0.1-0.1l0.2-0.2l0.1-0.1l0.1,0l0.1,0l0.4-0.1l0,0.1l0,0l0.2,0l0-0.1l0-0.1l0.1-0.1l0.1,0l0-0.1
		l0.1-0.1l0.2-0.1l0.2,0.1l0.1-0.1l0.1,0l0.1,0l0.1,0l0,0l0.1,0l0,0l0-0.1l0,0l0,0l0,0h0l0.1-0.1l-0.2-0.5l0-0.3l0.1-0.2l0.3-0.4
		l0.2-0.3l0.4-0.3l0.2-0.2l0.1-0.1l0.1-0.2l0.1-0.1l0.1-0.1l0.1-0.1l0.1-0.1l0-0.2l-0.1-0.3l-0.2-0.2l-0.1-0.2l0.1-0.4l-0.2,0
		l-0.3,0.2l-0.2,0l-1.4,0.4l-0.3,0l-0.1,0l-0.1-0.1l0-0.1l-0.1-0.1l-0.1,0l-0.2,0l-0.2-0.1l-0.8-0.5l-0.3-0.1l-0.5-0.2l-0.1,0
		l-0.1,0l-0.1,0l-0.1,0l-0.1,0l-0.1-0.1l0-0.1l0-0.1l-0.1-0.1l-0.1-0.1l-0.2-0.1l-0.1-0.1l0-0.1l-0.1-0.2l-0.1-0.1l-0.2-0.2l0,0
		l0-0.1l0-0.1l0-0.1l0.1-0.3l0.1-0.1l0.3-0.1l-0.2-0.2l-0.2-0.3l-0.2-0.3l0-0.3l0.1-0.1l0.4-0.3l0.3-0.5l0.1-0.1l-0.1-0.2l0.1-0.2
		l0.1-0.2l0.2-0.1l0.1,0l0.3,0.1l0.1,0l0-0.1l-0.2-0.5l0-0.1l0-0.3l-0.1-0.2l0,0l0-0.2l0,0l0-0.1l0,0l0,0l0-0.1l0-0.1l-0.1-0.2
		l-0.4-0.2l-0.1,0l-0.4,0.1l-0.2,0l-0.5-0.3l-0.3-0.2l-0.1-0.2l0-0.6l-0.1-0.3l-0.2-0.2l-0.3,0l-0.1-0.1l-0.1-0.2l0-0.1l0-0.1l0-0.1
		l-0.1-0.1l-0.1-0.2l0.1-0.1l0.1-0.1l0.3-0.2l0.1,0l0.1,0l0.1,0l0.1,0l0.1-0.1l0.1,0l0.3,0l0.3,0.2l0.3,0.1l0.3-0.1l0-0.1l0-0.1
		l0-0.1l0-0.1l0.1,0l0.2,0l0.1,0l0.1-0.1l0.1-0.2l0.1-0.1l0.3-0.1l0.3-0.1l0.1,0l0.1,0.1l0,0l0.1-0.1l0.2-0.3l0.2-0.2v-0.2l-0.1-0.2
		l0-0.3l0-0.1l0.3-0.3l0.2-0.3l0.1-0.2l0-0.1l-0.1,0l-0.3-0.1l-0.1-0.1l-0.1-0.1l-0.1-0.1l-0.1-0.1l-0.3-0.3l-0.4-0.2l-0.1-0.2
		l0-0.5l0-0.1l-0.1-0.1l0-0.1l0-0.1l0.1-0.2l0-0.1l0-0.2l-0.1-0.1l-0.3-0.1l-0.1-0.1l-0.2-0.2l-0.1,0l-0.2,0l-0.2-0.2l-0.2-0.2
		l-0.1-0.5l0-0.2l0-0.2l0-0.2l0.1-0.2l0.1-0.1l0.2,0v0l0-0.1l0-0.1l0,0l0,0l0.1,0l0,0l0.1,0l0.2,0l0.2-0.1l0.2-0.1l0.2-0.1l0.1-0.2
		l0.1-0.2l0.1-0.1l0.1-0.1l0.1-0.1l-0.1-0.1l0-0.1l-0.1-0.2l-0.1-0.2l0-0.1l0,0l-0.5-0.6l-0.2-0.1l-0.1,0l-0.1,0.1l-0.1,0l-0.1,0
		l-0.1-0.1l0,0l0,0l0-0.1l0,0l0-0.1l0-0.1l0,0l0-0.1l0.1-0.1l0.1-0.1l0-0.1l-0.1-0.1l-0.6-0.1l-0.1-0.2l0.1-0.4l0.1-0.4l0.3-0.5
		l-0.2-0.3l-0.3-0.3l-0.2-0.3l0-0.1l0.2-0.2l0.1-0.2l0-0.2l-0.1-0.1l-0.1-0.1l-1.2-0.3l-0.5,0l-0.5,0.1l-0.7,0.5l-0.3,0.1l-0.3,0
		l-0.2,0.1l-0.3,0.2l-0.2,0.3l-0.2,0.2l0,0.2l0,0.1l0.1,0.2l0,0l0.1,0.2l0,0.1l0.1,0l0.1-0.1l0.1,0l0,0.3l-0.2,0.2l-0.5,0.3
		l-0.4,0.5l-0.3,0.1l-0.3-0.1l-0.4,0l-0.4,0.1l-0.2,0.1l0.1-0.3l0.1-0.1l0-0.1l-0.1-0.2l-0.1-0.2l0-0.1l0.2-0.1l0.5-0.2l0,0h0l0.1,0
		l0,0l0,0l0.2-0.1l0-0.1l0-0.1l0-0.1l0.1-0.3l0-0.1l0.3-0.6l0-0.1l-0.1-0.2l-0.1-0.1L129,89l0.1-0.1l0-0.1l0-0.1v-0.1l0,0l0,0l0-0.1
		v-0.1l0-0.1l0.1-0.1l0.3-0.5l0.3-0.4l-0.2-0.2l0-0.2l0.1-0.1l1.1-1l0.6-0.3l0.1-0.1l0.2-0.2l0.3-0.1l0.1-0.1l0.1-0.1l0-0.1l0-0.2
		l-0.1-0.1l0-0.1l0-0.1l0-0.1l0.1-0.4l0.1-0.1l0-0.1l0-0.2l0-0.1l-0.1-0.2l0-0.1L132,83l0.4-0.2l0.9-0.3l0.5-0.4l0.2-0.3l-0.1-0.2
		l0.1-0.2l0.1-0.1l0.2-0.1l0-0.1l0,0l0.1-0.1l0-0.2l0.2-0.1l0.5-0.5l0.2-0.2l0.2-0.2l0.5-0.4l0-0.3l0.1-0.2l0.1-0.2l0.1,0l0,0
		l0.1-0.2l0.1,0l0.1,0l0.1,0l0.1-0.1l-0.1-0.1l-0.1-0.1l-0.1-0.1l-0.1,0.1l-0.9,0.1l0-0.1l0.1-0.2l0.1-0.2l0.2-0.1l0-0.2l0.2,0
		l0.1-0.1l0.1-0.1l0.1-0.1l0-0.1l-0.1-0.2l0-0.1l0.1,0l0.1-0.1l0.1,0l0.1,0l0.1,0.1l0.2,0l0.4-0.1l0.2,0l0.1,0.1l0.1,0l0.2,0
		l-0.1,0.3l0,0.2l0.2,0.1l0.2,0.1l0,0l0,0l0,0l0.1,0l0.1,0l0.3-0.1l0.2,0l0.6,0l0.2-0.1l0.2-0.2l0-0.1l0-0.1l0-0.1l0,0l0-0.1v-0.1
		l0.1,0l0.1,0l0.1,0.1l0.1,0l0.1-0.1l0,0l0,0v0l0,0l-0.1-0.1l0,0l0,0l0,0l0.1,0l0.1,0l0-0.1l0-0.1l0,0l-0.1-0.1l0,0l0.3-0.3l0.2-0.1
		l0.3-0.1l0,0l0,0l0-0.1l0,0l0-0.1l0-0.1l0,0l0-0.1l-0.2-0.4l-0.1-0.2l-0.1-0.1l0-0.1l0-0.1l0-0.3l0-0.1l0.1-0.1l0-0.1l0-0.2
		l-0.1-0.4l0-0.2l0.1-0.4l0-0.1l0.1-0.1l0-0.1l0-0.2l0-0.1l0,0l0,0l0,0l0-0.1l0.1-0.1l0-0.1l0.1-0.1l0-0.1l0-0.2l0-0.2l0.2-0.2
		l0.1-0.1l0-0.4l-0.3-0.6l0-0.5l0.1-0.2l0.1-0.2l0.1-0.1l0.1-0.1l0-0.1l0-0.2l0.1-0.1l0.5-0.7l0.1-0.2l0.1-0.2l0-0.2l0.1-0.2
		l0.1-0.1l0.1-0.1l0.1-0.2l0-0.2l0-0.2l-0.1-0.2l0-0.1l0-0.2l0.1-0.3l0-0.1l0.1-0.1l0.1-0.1l0-0.1l0-0.2l0-0.1l0.1-0.1l0.2-0.2v-0.1
		l-0.1-0.3v-0.4l0.1-0.4l0.3-0.5l0.1-0.1l0.1,0l0.1-0.1l0.2-0.3l0.1-0.1l0.1-0.1l0.1-0.1l0-0.1l0-0.2l0-0.1l0.1,0l0.2,0l0.1,0l0,0
		l0-0.1l0-0.1l0-0.1l0,0l0,0l0.1,0l0.3-0.2l0,0l0.1-0.2l0.4-1l0.2-0.5l0.2-0.2l-0.1-0.1L145.2,58.9z M96.7,133.2L96.7,133.2l-0.1,0
		l-0.2,0l-0.1-0.1l0-0.1l0.1-0.2l0.1,0l0.1,0.1l0.1,0.2L96.7,133.2L96.7,133.2z"/>
	<g>
		<g>
			<path class="st1" d="M160.6,30.7c-15.8,0.2-37.7,15.5-43.8,31.5"/>
			<g>
				<path class="st2" d="M116.8,62.1c0.3-0.1,0.7-0.1,1,0c-0.5,0.1-0.9,0.4-1.3,0.7c0-0.5-0.2-1-0.5-1.4
					C116.3,61.6,116.6,61.8,116.8,62.1z"/>
			</g>
		</g>
	</g>
	<g>
		<path class="st3" d="M173.1,29.1h-0.9l-1.5-2.4h-1.2v2.4h-0.7v-6h2.4c0.6,0,1,0.2,1.4,0.5s0.5,0.8,0.5,1.3c0,0.5-0.2,0.9-0.4,1.2
			c-0.3,0.3-0.7,0.5-1.1,0.5L173.1,29.1z M171.1,26c0.4,0,0.6-0.1,0.9-0.3s0.3-0.5,0.3-0.8s-0.1-0.6-0.3-0.8s-0.5-0.3-0.9-0.3h-1.6
			V26H171.1z"/>
		<path class="st3" d="M177.8,29.1h-0.7v-0.6c-0.2,0.2-0.4,0.4-0.7,0.5c-0.3,0.1-0.6,0.2-0.9,0.2c-0.9,0-1.4-0.5-1.4-1.4v-3.1h0.7
			v2.9c0,0.4,0.1,0.6,0.2,0.8c0.2,0.2,0.4,0.2,0.7,0.2c0.3,0,0.5-0.1,0.7-0.2c0.2-0.1,0.4-0.3,0.6-0.5v-3.2h0.7V29.1z"/>
		<path class="st3" d="M180.5,29.2c-0.7,0-1.3-0.2-1.8-0.7l0.4-0.5c0.2,0.2,0.4,0.3,0.6,0.4c0.3,0.1,0.5,0.2,0.8,0.2
			c0.3,0,0.6-0.1,0.8-0.2c0.2-0.1,0.3-0.3,0.3-0.5c0-0.2-0.1-0.3-0.3-0.5s-0.4-0.2-0.7-0.3c-0.3-0.1-0.5-0.1-0.8-0.2
			c-0.3-0.1-0.5-0.2-0.7-0.4c-0.2-0.2-0.3-0.4-0.3-0.7c0-0.4,0.1-0.7,0.4-0.9c0.3-0.2,0.7-0.4,1.2-0.4c0.7,0,1.2,0.2,1.6,0.6
			l-0.3,0.5c-0.3-0.4-0.7-0.5-1.3-0.5c-0.3,0-0.5,0.1-0.7,0.2s-0.3,0.3-0.3,0.5c0,0.2,0.1,0.3,0.3,0.4c0.2,0.1,0.4,0.2,0.7,0.2
			c0.3,0.1,0.5,0.1,0.8,0.2s0.5,0.2,0.7,0.4s0.3,0.4,0.3,0.8c0,0.4-0.2,0.7-0.5,0.9C181.5,29,181.1,29.2,180.5,29.2z"/>
		<path class="st3" d="M184.7,29.2c-0.7,0-1.3-0.2-1.8-0.7l0.4-0.5c0.1,0.2,0.4,0.3,0.6,0.4s0.5,0.2,0.8,0.2c0.3,0,0.6-0.1,0.8-0.2
			c0.2-0.1,0.3-0.3,0.3-0.5c0-0.2-0.1-0.3-0.3-0.5s-0.4-0.2-0.7-0.3c-0.3-0.1-0.5-0.1-0.8-0.2c-0.3-0.1-0.5-0.2-0.7-0.4
			c-0.2-0.2-0.3-0.4-0.3-0.7c0-0.4,0.1-0.7,0.4-0.9c0.3-0.2,0.7-0.4,1.2-0.4c0.7,0,1.2,0.2,1.6,0.6l-0.3,0.5
			c-0.3-0.4-0.7-0.5-1.3-0.5c-0.3,0-0.5,0.1-0.7,0.2s-0.3,0.3-0.3,0.5c0,0.2,0.1,0.3,0.3,0.4c0.2,0.1,0.4,0.2,0.7,0.2
			c0.3,0.1,0.5,0.1,0.8,0.2c0.3,0.1,0.5,0.2,0.7,0.4c0.2,0.2,0.3,0.4,0.3,0.8c0,0.4-0.2,0.7-0.4,0.9C185.7,29,185.2,29.2,184.7,29.2
			z"/>
		<path class="st3" d="M187.8,24.1c-0.1,0-0.2,0-0.3-0.1c-0.1-0.1-0.1-0.2-0.1-0.3s0-0.2,0.1-0.3c0.1-0.1,0.2-0.1,0.3-0.1
			c0.1,0,0.2,0,0.3,0.1s0.1,0.2,0.1,0.3s0,0.2-0.1,0.3S188,24.1,187.8,24.1z M188.2,29.1h-0.7v-4.3h0.7V29.1z"/>
		<path class="st3" d="M192.9,29.1h-0.7v-0.5c-0.4,0.4-0.8,0.6-1.4,0.6c-0.4,0-0.8-0.1-1.1-0.4c-0.3-0.3-0.5-0.6-0.5-1.1
			c0-0.5,0.2-0.8,0.5-1.1c0.3-0.2,0.7-0.4,1.1-0.4c0.6,0,1.1,0.2,1.4,0.6v-0.8c0-0.3-0.1-0.5-0.3-0.7s-0.5-0.2-0.8-0.2
			c-0.5,0-1,0.2-1.3,0.6l-0.3-0.5c0.5-0.5,1-0.7,1.7-0.7c0.5,0,0.9,0.1,1.2,0.4c0.3,0.2,0.5,0.6,0.5,1.1V29.1z M191.1,28.7
			c0.5,0,0.9-0.2,1.2-0.5v-0.8c-0.3-0.4-0.7-0.5-1.2-0.5c-0.3,0-0.6,0.1-0.8,0.3s-0.3,0.4-0.3,0.7c0,0.3,0.1,0.5,0.3,0.7
			S190.7,28.7,191.1,28.7z"/>
	</g>
	<g>
		<path class="st3" d="M171.6,56.6c-0.9,0-1.6-0.3-2.2-0.9c-0.6-0.6-0.9-1.3-0.9-2.2s0.3-1.7,0.9-2.2c0.6-0.6,1.3-0.9,2.2-0.9
			c1,0,1.7,0.4,2.3,1.2l-0.6,0.4c-0.2-0.3-0.4-0.5-0.7-0.6s-0.6-0.2-0.9-0.2c-0.7,0-1.2,0.2-1.7,0.7c-0.4,0.5-0.7,1-0.7,1.8
			s0.2,1.3,0.7,1.8c0.4,0.5,1,0.7,1.7,0.7c0.3,0,0.7-0.1,0.9-0.2s0.5-0.4,0.7-0.6l0.6,0.4C173.3,56.2,172.5,56.6,171.6,56.6z"/>
		<path class="st3" d="M178.4,56.5h-0.7v-2.9c0-0.4-0.1-0.6-0.3-0.8c-0.2-0.2-0.4-0.2-0.7-0.2c-0.2,0-0.5,0.1-0.7,0.2
			c-0.2,0.1-0.4,0.3-0.6,0.5v3.2h-0.7v-6h0.7v2.3c0.2-0.2,0.4-0.4,0.7-0.5c0.3-0.1,0.6-0.2,0.9-0.2c0.9,0,1.4,0.5,1.4,1.4V56.5z"/>
		<path class="st3" d="M180.1,51.5c-0.1,0-0.2,0-0.3-0.1s-0.1-0.2-0.1-0.3s0-0.2,0.1-0.3s0.2-0.1,0.3-0.1c0.1,0,0.2,0,0.3,0.1
			s0.1,0.2,0.1,0.3s0,0.2-0.1,0.3S180.2,51.5,180.1,51.5z M180.4,56.5h-0.7v-4.3h0.7V56.5z"/>
		<path class="st3" d="M185.4,56.5h-0.7v-2.8c0-0.4-0.1-0.6-0.3-0.8c-0.2-0.2-0.4-0.2-0.7-0.2c-0.3,0-0.5,0.1-0.7,0.2
			s-0.4,0.3-0.6,0.5v3.2h-0.7v-4.3h0.7v0.6c0.2-0.2,0.4-0.4,0.7-0.5c0.3-0.1,0.6-0.2,0.9-0.2c0.9,0,1.4,0.5,1.4,1.4V56.5z"/>
		<path class="st3" d="M190.1,56.5h-0.7V56c-0.4,0.4-0.8,0.6-1.4,0.6c-0.4,0-0.8-0.1-1.1-0.4c-0.3-0.3-0.5-0.6-0.5-1.1
			c0-0.5,0.2-0.8,0.5-1.1s0.7-0.4,1.1-0.4c0.6,0,1.1,0.2,1.4,0.6v-0.8c0-0.3-0.1-0.5-0.3-0.7s-0.5-0.2-0.8-0.2c-0.5,0-1,0.2-1.3,0.6
			l-0.3-0.5c0.5-0.5,1-0.7,1.7-0.7c0.5,0,0.9,0.1,1.2,0.4c0.3,0.2,0.5,0.6,0.5,1.1V56.5z M188.3,56.1c0.5,0,0.9-0.2,1.2-0.5v-0.8
			c-0.3-0.4-0.7-0.5-1.2-0.5c-0.3,0-0.6,0.1-0.8,0.3c-0.2,0.2-0.3,0.4-0.3,0.7c0,0.3,0.1,0.5,0.3,0.7
			C187.7,56,187.9,56.1,188.3,56.1z"/>
	</g>
	<g>
		<path class="st3" d="M171.5,86.2h-2.7v-6h2.7c0.5,0,0.9,0.1,1.2,0.4c0.3,0.3,0.5,0.7,0.5,1.1c0,0.4-0.1,0.7-0.3,0.9
			c-0.2,0.2-0.5,0.4-0.7,0.5c0.3,0,0.6,0.2,0.8,0.5c0.2,0.3,0.3,0.6,0.3,1c0,0.5-0.2,0.9-0.5,1.2C172.4,86,172,86.2,171.5,86.2z
			 M171.3,82.8c0.3,0,0.6-0.1,0.8-0.3c0.2-0.2,0.3-0.4,0.3-0.7s-0.1-0.5-0.3-0.7c-0.2-0.2-0.4-0.3-0.8-0.3h-1.8v1.9H171.3z
			 M171.3,85.5c0.3,0,0.6-0.1,0.8-0.3c0.2-0.2,0.3-0.4,0.3-0.8c0-0.3-0.1-0.5-0.3-0.7c-0.2-0.2-0.5-0.3-0.8-0.3h-1.8v2.1H171.3z"/>
		<path class="st3" d="M177.8,86.2h-0.7v-0.5c-0.4,0.4-0.8,0.6-1.4,0.6c-0.4,0-0.8-0.1-1.1-0.4s-0.5-0.6-0.5-1.1
			c0-0.5,0.2-0.8,0.5-1.1s0.7-0.4,1.1-0.4c0.6,0,1.1,0.2,1.4,0.6v-0.8c0-0.3-0.1-0.5-0.3-0.7c-0.2-0.2-0.5-0.2-0.8-0.2
			c-0.5,0-1,0.2-1.3,0.6l-0.3-0.5c0.5-0.5,1-0.7,1.7-0.7c0.5,0,0.9,0.1,1.2,0.4c0.3,0.2,0.5,0.6,0.5,1.1V86.2z M175.9,85.8
			c0.5,0,0.9-0.2,1.2-0.5v-0.8c-0.3-0.4-0.7-0.5-1.2-0.5c-0.3,0-0.6,0.1-0.8,0.3c-0.2,0.2-0.3,0.4-0.3,0.7c0,0.3,0.1,0.5,0.3,0.7
			C175.3,85.7,175.6,85.8,175.9,85.8z"/>
		<path class="st3" d="M182.7,86.2H182v-2.8c0-0.4-0.1-0.6-0.3-0.8c-0.2-0.2-0.4-0.2-0.7-0.2c-0.3,0-0.5,0.1-0.7,0.2
			c-0.2,0.1-0.4,0.3-0.6,0.5v3.2h-0.7v-4.3h0.7v0.6c0.2-0.2,0.4-0.4,0.7-0.5c0.3-0.1,0.6-0.2,0.9-0.2c0.9,0,1.4,0.5,1.4,1.4V86.2z"
			/>
		<path class="st3" d="M185.8,88c-0.4,0-0.7,0-1-0.1s-0.5-0.3-0.8-0.5l0.3-0.5c0.3,0.4,0.8,0.6,1.4,0.6c0.4,0,0.7-0.1,1-0.3
			c0.3-0.2,0.4-0.5,0.4-1v-0.6c-0.2,0.2-0.4,0.4-0.6,0.6c-0.3,0.1-0.5,0.2-0.8,0.2c-0.6,0-1-0.2-1.4-0.6s-0.5-1-0.5-1.6
			c0-0.7,0.2-1.2,0.5-1.6c0.4-0.4,0.8-0.6,1.4-0.6c0.6,0,1.1,0.3,1.5,0.8v-0.7h0.7v4.2c0,0.7-0.2,1.1-0.6,1.4S186.4,88,185.8,88z
			 M185.9,85.6c0.3,0,0.5-0.1,0.8-0.2c0.2-0.1,0.4-0.3,0.5-0.5V83c-0.1-0.2-0.3-0.4-0.5-0.5c-0.2-0.1-0.5-0.2-0.8-0.2
			c-0.4,0-0.8,0.2-1,0.5c-0.2,0.3-0.4,0.7-0.4,1.2c0,0.5,0.1,0.9,0.4,1.2C185.1,85.5,185.5,85.6,185.9,85.6z"/>
		<path class="st3" d="M189.9,86.2h-0.7v-6h0.7V86.2z"/>
		<path class="st3" d="M194.6,86.2H194v-0.5c-0.4,0.4-0.8,0.6-1.4,0.6c-0.4,0-0.8-0.1-1.1-0.4c-0.3-0.3-0.5-0.6-0.5-1.1
			c0-0.5,0.2-0.8,0.5-1.1c0.3-0.2,0.7-0.4,1.1-0.4c0.6,0,1.1,0.2,1.4,0.6v-0.8c0-0.3-0.1-0.5-0.3-0.7s-0.5-0.2-0.8-0.2
			c-0.5,0-1,0.2-1.3,0.6l-0.3-0.5c0.5-0.5,1-0.7,1.7-0.7c0.5,0,0.9,0.1,1.2,0.4c0.3,0.2,0.5,0.6,0.5,1.1V86.2z M192.8,85.8
			c0.5,0,0.9-0.2,1.2-0.5v-0.8c-0.3-0.4-0.7-0.5-1.2-0.5c-0.3,0-0.6,0.1-0.8,0.3s-0.3,0.4-0.3,0.7c0,0.3,0.1,0.5,0.3,0.7
			S192.5,85.8,192.8,85.8z"/>
		<path class="st3" d="M199.8,86.2h-0.7v-0.6c-0.4,0.5-0.9,0.8-1.5,0.8c-0.6,0-1-0.2-1.4-0.6c-0.4-0.4-0.5-1-0.5-1.7
			c0-0.7,0.2-1.2,0.5-1.7c0.4-0.4,0.8-0.6,1.4-0.6c0.6,0,1.1,0.3,1.5,0.8v-2.3h0.7V86.2z M197.8,85.7c0.3,0,0.5-0.1,0.8-0.2
			c0.2-0.1,0.4-0.3,0.5-0.5v-2c-0.1-0.2-0.3-0.4-0.6-0.5c-0.2-0.1-0.5-0.2-0.8-0.2c-0.4,0-0.8,0.2-1,0.5c-0.3,0.3-0.4,0.7-0.4,1.2
			s0.1,0.9,0.4,1.2C197.1,85.5,197.4,85.7,197.8,85.7z"/>
		<path class="st3" d="M203.1,86.3c-0.6,0-1.2-0.2-1.6-0.6c-0.4-0.4-0.6-1-0.6-1.7c0-0.6,0.2-1.2,0.6-1.6c0.4-0.4,0.9-0.7,1.5-0.7
			c0.6,0,1.2,0.2,1.5,0.7c0.4,0.4,0.6,1,0.6,1.7v0.2h-3.5c0,0.4,0.2,0.8,0.5,1.1c0.3,0.3,0.6,0.4,1.1,0.4c0.5,0,1-0.2,1.3-0.5
			l0.3,0.4C204.4,86.1,203.8,86.3,203.1,86.3z M204.5,83.7c0-0.4-0.1-0.7-0.4-1c-0.2-0.3-0.6-0.4-1.1-0.4c-0.4,0-0.8,0.1-1,0.4
			c-0.2,0.3-0.4,0.6-0.4,1H204.5z"/>
		<path class="st3" d="M207.6,86.3c-0.7,0-1.3-0.2-1.8-0.7l0.4-0.5c0.1,0.2,0.4,0.3,0.6,0.4c0.3,0.1,0.5,0.2,0.8,0.2
			c0.3,0,0.6-0.1,0.8-0.2c0.2-0.1,0.3-0.3,0.3-0.5c0-0.2-0.1-0.3-0.3-0.5c-0.2-0.1-0.4-0.2-0.7-0.3c-0.3-0.1-0.5-0.1-0.8-0.2
			s-0.5-0.2-0.7-0.4c-0.2-0.2-0.3-0.4-0.3-0.7c0-0.4,0.1-0.7,0.4-0.9c0.3-0.2,0.7-0.4,1.2-0.4c0.7,0,1.2,0.2,1.6,0.6l-0.3,0.5
			c-0.3-0.4-0.7-0.5-1.3-0.5c-0.3,0-0.5,0.1-0.7,0.2c-0.2,0.1-0.3,0.3-0.3,0.5c0,0.2,0.1,0.3,0.3,0.4c0.2,0.1,0.4,0.2,0.7,0.2
			c0.3,0.1,0.5,0.1,0.8,0.2c0.3,0.1,0.5,0.2,0.7,0.4s0.3,0.4,0.3,0.8c0,0.4-0.2,0.7-0.5,0.9C208.6,86.2,208.2,86.3,207.6,86.3z"/>
		<path class="st3" d="M214,86.2h-0.7v-2.9c0-0.4-0.1-0.6-0.3-0.8c-0.2-0.2-0.4-0.2-0.7-0.2c-0.2,0-0.5,0.1-0.7,0.2
			c-0.2,0.1-0.4,0.3-0.6,0.5v3.2h-0.7v-6h0.7v2.3c0.2-0.2,0.4-0.4,0.7-0.5c0.3-0.1,0.6-0.2,0.9-0.2c0.9,0,1.4,0.5,1.4,1.4V86.2z"/>
	</g>
	<g>
		<path class="st3" d="M173.3,117.1h-0.9l-2.3-2.7l-0.6,0.7v2h-0.7v-6h0.7v3.1l2.7-3.1h0.9l-2.5,2.9L173.3,117.1z"/>
		<path class="st3" d="M177.3,116.5c-0.4,0.4-0.9,0.7-1.6,0.7c-0.6,0-1.2-0.2-1.6-0.7c-0.4-0.4-0.6-1-0.6-1.6s0.2-1.2,0.6-1.6
			c0.4-0.4,0.9-0.7,1.6-0.7c0.6,0,1.2,0.2,1.6,0.7c0.4,0.4,0.6,1,0.6,1.6S177.7,116.1,177.3,116.5z M174.6,116.1
			c0.3,0.3,0.6,0.5,1.1,0.5s0.8-0.2,1.1-0.5c0.3-0.3,0.4-0.7,0.4-1.2c0-0.5-0.1-0.9-0.4-1.2s-0.6-0.5-1.1-0.5s-0.8,0.2-1.1,0.5
			c-0.3,0.3-0.4,0.7-0.4,1.2C174.3,115.4,174.4,115.8,174.6,116.1z"/>
		<path class="st3" d="M180.3,117.2c-0.7,0-1.3-0.2-1.8-0.7l0.4-0.5c0.2,0.2,0.4,0.3,0.6,0.4c0.3,0.1,0.5,0.2,0.8,0.2
			c0.3,0,0.6-0.1,0.8-0.2c0.2-0.1,0.3-0.3,0.3-0.5c0-0.2-0.1-0.3-0.3-0.5c-0.2-0.1-0.4-0.2-0.7-0.3c-0.3-0.1-0.5-0.1-0.8-0.2
			c-0.3-0.1-0.5-0.2-0.7-0.4c-0.2-0.2-0.3-0.4-0.3-0.7c0-0.4,0.1-0.7,0.4-0.9c0.3-0.2,0.7-0.4,1.2-0.4c0.7,0,1.2,0.2,1.6,0.6
			l-0.3,0.5c-0.3-0.4-0.7-0.5-1.3-0.5c-0.3,0-0.5,0.1-0.7,0.2s-0.3,0.3-0.3,0.5c0,0.2,0.1,0.3,0.3,0.4c0.2,0.1,0.4,0.2,0.7,0.2
			c0.3,0.1,0.5,0.1,0.8,0.2s0.5,0.2,0.7,0.4c0.2,0.2,0.3,0.4,0.3,0.8c0,0.4-0.2,0.7-0.5,0.9C181.3,117.1,180.9,117.2,180.3,117.2z"
			/>
		<path class="st3" d="M186.6,116.5c-0.4,0.4-0.9,0.7-1.6,0.7s-1.2-0.2-1.6-0.7c-0.4-0.4-0.6-1-0.6-1.6s0.2-1.2,0.6-1.6
			c0.4-0.4,0.9-0.7,1.6-0.7s1.2,0.2,1.6,0.7c0.4,0.4,0.6,1,0.6,1.6S187,116.1,186.6,116.5z M184,116.1c0.3,0.3,0.6,0.5,1.1,0.5
			c0.4,0,0.8-0.2,1.1-0.5c0.3-0.3,0.4-0.7,0.4-1.2c0-0.5-0.1-0.9-0.4-1.2s-0.6-0.5-1.1-0.5c-0.4,0-0.8,0.2-1.1,0.5
			c-0.3,0.3-0.4,0.7-0.4,1.2C183.6,115.4,183.7,115.8,184,116.1z"/>
		<path class="st3" d="M190.2,117.1h-0.7l-1.8-4.3h0.7l1.4,3.6l1.4-3.6h0.7L190.2,117.1z"/>
		<path class="st3" d="M196.2,116.5c-0.4,0.4-0.9,0.7-1.6,0.7c-0.6,0-1.2-0.2-1.6-0.7c-0.4-0.4-0.6-1-0.6-1.6s0.2-1.2,0.6-1.6
			c0.4-0.4,0.9-0.7,1.6-0.7c0.6,0,1.2,0.2,1.6,0.7c0.4,0.4,0.6,1,0.6,1.6S196.6,116.1,196.2,116.5z M193.5,116.1
			c0.3,0.3,0.6,0.5,1.1,0.5s0.8-0.2,1.1-0.5c0.3-0.3,0.4-0.7,0.4-1.2c0-0.5-0.1-0.9-0.4-1.2s-0.6-0.5-1.1-0.5s-0.8,0.2-1.1,0.5
			c-0.3,0.3-0.4,0.7-0.4,1.2C193.1,115.4,193.3,115.8,193.5,116.1z"/>
	</g>
	<g>
		<path class="st3" d="M7.5,27.1H6.7l-0.5-1.3h-3l-0.5,1.3H1.8l2.4-6h0.9L7.5,27.1z M5.9,25.1l-1.3-3.2l-1.3,3.2H5.9z"/>
		<path class="st3" d="M9,27.1H8.3v-6H9V27.1z"/>
		<path class="st3" d="M11,27.1h-0.7v-6H11v2.3c0.4-0.5,0.9-0.8,1.5-0.8c0.6,0,1,0.2,1.4,0.6c0.4,0.4,0.5,1,0.5,1.7
			c0,0.7-0.2,1.2-0.5,1.7s-0.8,0.6-1.4,0.6c-0.6,0-1.1-0.3-1.5-0.8V27.1z M11,26c0.1,0.2,0.3,0.4,0.5,0.5c0.2,0.1,0.5,0.2,0.8,0.2
			c0.4,0,0.8-0.2,1-0.5c0.3-0.3,0.4-0.7,0.4-1.2s-0.1-0.9-0.4-1.2c-0.3-0.3-0.6-0.5-1-0.5c-0.3,0-0.5,0.1-0.8,0.2
			c-0.2,0.1-0.4,0.3-0.5,0.5V26z"/>
		<path class="st3" d="M18.9,27.1h-0.7v-0.5c-0.4,0.4-0.8,0.6-1.4,0.6c-0.4,0-0.8-0.1-1.1-0.4c-0.3-0.3-0.5-0.6-0.5-1.1
			c0-0.5,0.2-0.8,0.5-1.1c0.3-0.2,0.7-0.4,1.1-0.4c0.6,0,1.1,0.2,1.4,0.6v-0.8c0-0.3-0.1-0.5-0.3-0.7c-0.2-0.2-0.5-0.2-0.8-0.2
			c-0.5,0-1,0.2-1.3,0.6l-0.3-0.5c0.5-0.5,1-0.7,1.7-0.7c0.5,0,0.9,0.1,1.2,0.4c0.3,0.2,0.5,0.6,0.5,1.1V27.1z M17,26.8
			c0.5,0,0.9-0.2,1.2-0.5v-0.8c-0.3-0.4-0.7-0.5-1.2-0.5c-0.3,0-0.6,0.1-0.8,0.3s-0.3,0.4-0.3,0.7c0,0.3,0.1,0.5,0.3,0.7
			S16.7,26.8,17,26.8z"/>
		<path class="st3" d="M23.8,27.1h-0.7v-2.8c0-0.4-0.1-0.6-0.3-0.8c-0.2-0.2-0.4-0.2-0.7-0.2c-0.3,0-0.5,0.1-0.7,0.2
			c-0.2,0.1-0.4,0.3-0.6,0.5v3.2h-0.7v-4.3h0.7v0.6c0.2-0.2,0.4-0.4,0.7-0.5c0.3-0.1,0.6-0.2,0.9-0.2c0.9,0,1.4,0.5,1.4,1.4V27.1z"
			/>
		<path class="st3" d="M25.5,22.2c-0.1,0-0.2,0-0.3-0.1s-0.1-0.2-0.1-0.3s0-0.2,0.1-0.3s0.2-0.1,0.3-0.1c0.1,0,0.2,0,0.3,0.1
			s0.1,0.2,0.1,0.3s0,0.2-0.1,0.3S25.6,22.2,25.5,22.2z M25.9,27.1h-0.7v-4.3h0.7V27.1z"/>
		<path class="st3" d="M30.6,27.1h-0.7v-0.5c-0.4,0.4-0.8,0.6-1.4,0.6c-0.4,0-0.8-0.1-1.1-0.4c-0.3-0.3-0.5-0.6-0.5-1.1
			c0-0.5,0.2-0.8,0.5-1.1s0.7-0.4,1.1-0.4c0.6,0,1.1,0.2,1.4,0.6v-0.8c0-0.3-0.1-0.5-0.3-0.7s-0.5-0.2-0.8-0.2c-0.5,0-1,0.2-1.3,0.6
			l-0.3-0.5c0.5-0.5,1-0.7,1.7-0.7c0.5,0,0.9,0.1,1.2,0.4c0.3,0.2,0.5,0.6,0.5,1.1V27.1z M28.7,26.8c0.5,0,0.9-0.2,1.2-0.5v-0.8
			c-0.3-0.4-0.7-0.5-1.2-0.5c-0.3,0-0.6,0.1-0.8,0.3c-0.2,0.2-0.3,0.4-0.3,0.7c0,0.3,0.1,0.5,0.3,0.7C28.2,26.7,28.4,26.8,28.7,26.8
			z"/>
	</g>
	<g>
		<path class="st3" d="M95,8h-0.7V2H95V8z"/>
		<path class="st3" d="M97.1,8h-0.7V3.7h0.7v0.7c0.4-0.5,0.9-0.8,1.4-0.8v0.7c-0.1,0-0.2,0-0.3,0c-0.2,0-0.4,0.1-0.7,0.2
			c-0.2,0.1-0.4,0.3-0.5,0.5V8z"/>
		<path class="st3" d="M102.8,8h-0.7V7.5c-0.4,0.4-0.8,0.6-1.4,0.6c-0.4,0-0.8-0.1-1.1-0.4c-0.3-0.3-0.5-0.6-0.5-1.1
			c0-0.5,0.2-0.8,0.5-1.1c0.3-0.2,0.7-0.4,1.1-0.4c0.6,0,1.1,0.2,1.4,0.6V5.1c0-0.3-0.1-0.5-0.3-0.7s-0.5-0.2-0.8-0.2
			c-0.5,0-1,0.2-1.3,0.6l-0.3-0.5c0.5-0.5,1-0.7,1.7-0.7c0.5,0,0.9,0.1,1.2,0.4c0.3,0.2,0.5,0.6,0.5,1.1V8z M100.9,7.6
			c0.5,0,0.9-0.2,1.2-0.5V6.3c-0.3-0.4-0.7-0.5-1.2-0.5c-0.3,0-0.6,0.1-0.8,0.3s-0.3,0.4-0.3,0.7c0,0.3,0.1,0.5,0.3,0.7
			S100.6,7.6,100.9,7.6z"/>
		<path class="st3" d="M105.8,8.1c-0.6,0-1-0.2-1.4-0.6c-0.4-0.4-0.5-1-0.5-1.7c0-0.7,0.2-1.2,0.5-1.7s0.8-0.6,1.4-0.6
			c0.3,0,0.6,0.1,0.8,0.2s0.5,0.3,0.6,0.5V3.7h0.7v6h-0.7V7.3C106.9,7.9,106.4,8.1,105.8,8.1z M105.9,7.5c0.3,0,0.5-0.1,0.8-0.2
			c0.2-0.1,0.4-0.3,0.5-0.5v-2c-0.1-0.2-0.3-0.4-0.5-0.5c-0.2-0.1-0.5-0.2-0.8-0.2c-0.4,0-0.8,0.2-1,0.5c-0.2,0.3-0.4,0.7-0.4,1.2
			c0,0.5,0.1,0.9,0.4,1.2S105.5,7.5,105.9,7.5z"/>
	</g>
	<g>
		<path class="st3" d="M14.6,146.2c-1,0-1.7-0.3-2.3-1l0.4-0.6c0.5,0.6,1.1,0.9,1.9,0.9c0.5,0,0.8-0.1,1.1-0.3s0.3-0.4,0.3-0.7
			c0-0.2-0.1-0.4-0.2-0.5c-0.1-0.1-0.3-0.3-0.5-0.3s-0.4-0.2-0.7-0.2c-0.3-0.1-0.5-0.1-0.8-0.2s-0.5-0.2-0.7-0.3s-0.4-0.3-0.5-0.5
			c-0.1-0.2-0.2-0.5-0.2-0.7c0-0.5,0.2-0.9,0.6-1.2c0.4-0.3,0.9-0.5,1.5-0.5c0.9,0,1.6,0.3,2.1,0.8l-0.4,0.5c-0.4-0.5-1-0.7-1.7-0.7
			c-0.4,0-0.7,0.1-0.9,0.3c-0.2,0.2-0.3,0.4-0.3,0.7c0,0.2,0.1,0.4,0.3,0.5c0.2,0.1,0.4,0.2,0.7,0.3c0.3,0.1,0.5,0.1,0.9,0.2
			c0.3,0.1,0.6,0.2,0.9,0.3c0.3,0.1,0.5,0.3,0.7,0.5s0.3,0.5,0.3,0.9c0,0.5-0.2,0.9-0.5,1.3S15.3,146.2,14.6,146.2z"/>
		<path class="st3" d="M17.6,147.8l0.1-0.6c0.1,0,0.2,0.1,0.4,0.1c0.2,0,0.3,0,0.4-0.1c0.1-0.1,0.2-0.2,0.3-0.4l0.3-0.7l-1.8-4.4
			h0.7l1.4,3.6l1.4-3.6h0.7l-2.2,5.2c-0.2,0.6-0.7,0.9-1.3,0.9C17.9,147.9,17.7,147.9,17.6,147.8z"/>
		<path class="st3" d="M22.9,146.1h-0.7v-4.3h0.7v0.7c0.4-0.5,0.9-0.8,1.4-0.8v0.7c-0.1,0-0.2,0-0.3,0c-0.2,0-0.4,0.1-0.7,0.2
			c-0.2,0.1-0.4,0.3-0.5,0.5V146.1z"/>
		<path class="st3" d="M25.5,141.2c-0.1,0-0.2,0-0.3-0.1c-0.1-0.1-0.1-0.2-0.1-0.3s0-0.2,0.1-0.3c0.1-0.1,0.2-0.1,0.3-0.1
			c0.1,0,0.2,0,0.3,0.1s0.1,0.2,0.1,0.3s0,0.2-0.1,0.3S25.6,141.2,25.5,141.2z M25.9,146.1h-0.7v-4.3h0.7V146.1z"/>
		<path class="st3" d="M30.6,146.1h-0.7v-0.5c-0.4,0.4-0.8,0.6-1.4,0.6c-0.4,0-0.8-0.1-1.1-0.4c-0.3-0.3-0.5-0.6-0.5-1.1
			c0-0.5,0.2-0.8,0.5-1.1c0.3-0.2,0.7-0.4,1.1-0.4c0.6,0,1.1,0.2,1.4,0.6v-0.8c0-0.3-0.1-0.5-0.3-0.7s-0.5-0.2-0.8-0.2
			c-0.5,0-1,0.2-1.3,0.6l-0.3-0.5c0.5-0.5,1-0.7,1.7-0.7c0.5,0,0.9,0.1,1.2,0.4c0.3,0.2,0.5,0.6,0.5,1.1V146.1z M28.7,145.7
			c0.5,0,0.9-0.2,1.2-0.5v-0.8c-0.3-0.4-0.7-0.5-1.2-0.5c-0.3,0-0.6,0.1-0.8,0.3s-0.3,0.4-0.3,0.7c0,0.3,0.1,0.5,0.3,0.7
			S28.4,145.7,28.7,145.7z"/>
	</g>
	<g>
		<path class="st3" d="M8.8,52.2c-1,0-1.7-0.3-2.3-1l0.4-0.6c0.5,0.6,1.1,0.9,1.9,0.9c0.5,0,0.8-0.1,1.1-0.3s0.3-0.4,0.3-0.7
			c0-0.2-0.1-0.4-0.2-0.5c-0.1-0.1-0.3-0.3-0.5-0.3s-0.4-0.2-0.7-0.2c-0.3-0.1-0.5-0.1-0.8-0.2S7.6,49,7.4,48.9S7,48.6,6.9,48.4
			c-0.1-0.2-0.2-0.5-0.2-0.7c0-0.5,0.2-0.9,0.6-1.2C7.7,46.1,8.2,46,8.8,46c0.9,0,1.6,0.3,2.1,0.8l-0.4,0.5c-0.4-0.5-1-0.7-1.7-0.7
			c-0.4,0-0.7,0.1-0.9,0.3c-0.2,0.2-0.3,0.4-0.3,0.7c0,0.2,0.1,0.4,0.3,0.5c0.2,0.1,0.4,0.2,0.7,0.3c0.3,0.1,0.5,0.1,0.9,0.2
			c0.3,0.1,0.6,0.2,0.9,0.3c0.3,0.1,0.5,0.3,0.7,0.5s0.3,0.5,0.3,0.9c0,0.5-0.2,0.9-0.5,1.3S9.6,52.2,8.8,52.2z"/>
		<path class="st3" d="M15.7,52.1H15v-0.6c-0.2,0.2-0.4,0.4-0.7,0.5c-0.3,0.1-0.6,0.2-0.9,0.2c-0.9,0-1.4-0.5-1.4-1.4v-3.1h0.7v2.9
			c0,0.4,0.1,0.6,0.2,0.8c0.2,0.2,0.4,0.2,0.7,0.2c0.3,0,0.5-0.1,0.7-0.2c0.2-0.1,0.4-0.3,0.6-0.5v-3.2h0.7V52.1z"/>
		<path class="st3" d="M20.9,52.1h-0.7v-0.6c-0.4,0.5-0.9,0.8-1.5,0.8c-0.6,0-1-0.2-1.4-0.6s-0.5-1-0.5-1.7c0-0.7,0.2-1.2,0.5-1.7
			s0.8-0.6,1.4-0.6c0.6,0,1.1,0.3,1.5,0.8v-2.3h0.7V52.1z M18.9,51.6c0.3,0,0.5-0.1,0.8-0.2c0.2-0.1,0.4-0.3,0.5-0.5v-2
			c-0.1-0.2-0.3-0.4-0.6-0.5c-0.2-0.1-0.5-0.2-0.8-0.2c-0.4,0-0.8,0.2-1,0.5c-0.3,0.3-0.4,0.7-0.4,1.2s0.1,0.9,0.4,1.2
			C18.2,51.4,18.5,51.6,18.9,51.6z"/>
		<path class="st3" d="M25.6,52.1H25v-0.5c-0.4,0.4-0.8,0.6-1.4,0.6c-0.4,0-0.8-0.1-1.1-0.4c-0.3-0.3-0.5-0.6-0.5-1.1
			c0-0.5,0.2-0.8,0.5-1.1c0.3-0.2,0.7-0.4,1.1-0.4c0.6,0,1.1,0.2,1.4,0.6v-0.8c0-0.3-0.1-0.5-0.3-0.7c-0.2-0.2-0.5-0.2-0.8-0.2
			c-0.5,0-1,0.2-1.3,0.6l-0.3-0.5c0.5-0.5,1-0.7,1.7-0.7c0.5,0,0.9,0.1,1.2,0.4c0.3,0.2,0.5,0.6,0.5,1.1V52.1z M23.8,51.7
			c0.5,0,0.9-0.2,1.2-0.5v-0.8c-0.3-0.4-0.7-0.5-1.2-0.5c-0.3,0-0.6,0.1-0.8,0.3s-0.3,0.4-0.3,0.7c0,0.3,0.1,0.5,0.3,0.7
			S23.5,51.7,23.8,51.7z"/>
		<path class="st3" d="M30.6,52.1h-0.7v-2.8c0-0.4-0.1-0.6-0.3-0.8c-0.2-0.2-0.4-0.2-0.7-0.2c-0.3,0-0.5,0.1-0.7,0.2
			c-0.2,0.1-0.4,0.3-0.6,0.5v3.2H27v-4.3h0.7v0.6c0.2-0.2,0.4-0.4,0.7-0.5c0.3-0.1,0.6-0.2,0.9-0.2c0.9,0,1.4,0.5,1.4,1.4V52.1z"/>
	</g>
	<g>
		<path class="st3" d="M19.1,79.4h-0.7v-2.8h-3.5v2.8h-0.7v-6h0.7V76h3.5v-2.6h0.7V79.4z"/>
		<path class="st3" d="M23.9,79.4h-0.7v-0.5c-0.4,0.4-0.8,0.6-1.4,0.6c-0.4,0-0.8-0.1-1.1-0.4c-0.3-0.3-0.5-0.6-0.5-1.1
			c0-0.5,0.2-0.8,0.5-1.1c0.3-0.2,0.7-0.4,1.1-0.4c0.6,0,1.1,0.2,1.4,0.6v-0.8c0-0.3-0.1-0.5-0.3-0.7s-0.5-0.2-0.8-0.2
			c-0.5,0-1,0.2-1.3,0.6l-0.3-0.5c0.5-0.5,1-0.7,1.7-0.7c0.5,0,0.9,0.1,1.2,0.4c0.3,0.2,0.5,0.6,0.5,1.1V79.4z M22,79
			c0.5,0,0.9-0.2,1.2-0.5v-0.8c-0.3-0.4-0.7-0.5-1.2-0.5c-0.3,0-0.6,0.1-0.8,0.3S21,77.8,21,78.1c0,0.3,0.1,0.5,0.3,0.7
			S21.7,79,22,79z"/>
		<path class="st3" d="M25.6,74.4c-0.1,0-0.2,0-0.3-0.1s-0.1-0.2-0.1-0.3s0-0.2,0.1-0.3s0.2-0.1,0.3-0.1c0.1,0,0.2,0,0.3,0.1
			S26,73.9,26,74s0,0.2-0.1,0.3S25.7,74.4,25.6,74.4z M25.9,79.4h-0.7v-4.3h0.7V79.4z"/>
		<path class="st3" d="M28.4,79.5c-0.3,0-0.6-0.1-0.7-0.3s-0.2-0.4-0.2-0.8v-2.8h-0.7v-0.6h0.7v-1.2h0.7v1.2H29v0.6h-0.9v2.7
			c0,0.2,0,0.3,0.1,0.4c0.1,0.1,0.2,0.2,0.3,0.2c0.2,0,0.4-0.1,0.5-0.2l0.2,0.5C29,79.4,28.7,79.5,28.4,79.5z"/>
		<path class="st3" d="M30.3,74.4c-0.1,0-0.2,0-0.3-0.1c-0.1-0.1-0.1-0.2-0.1-0.3s0-0.2,0.1-0.3c0.1-0.1,0.2-0.1,0.3-0.1
			c0.1,0,0.2,0,0.3,0.1s0.1,0.2,0.1,0.3s0,0.2-0.1,0.3S30.4,74.4,30.3,74.4z M30.6,79.4h-0.7v-4.3h0.7V79.4z"/>
	</g>
	<g>
		<path class="st3" d="M16.2,109.8h-2.1v-6h2.1c0.9,0,1.7,0.3,2.2,0.9c0.6,0.6,0.9,1.3,0.9,2.2c0,0.9-0.3,1.6-0.9,2.2
			C17.8,109.5,17.1,109.8,16.2,109.8z M16.2,109.2c0.7,0,1.3-0.2,1.7-0.7c0.4-0.4,0.6-1,0.6-1.7c0-0.7-0.2-1.2-0.6-1.7
			c-0.4-0.4-1-0.7-1.7-0.7h-1.3v4.7H16.2z"/>
		<path class="st3" d="M24.8,109.8h-0.9l-1.5-2.4h-1.2v2.4h-0.7v-6h2.4c0.6,0,1,0.2,1.4,0.5c0.3,0.3,0.5,0.8,0.5,1.3
			c0,0.5-0.2,0.9-0.5,1.2c-0.3,0.3-0.7,0.5-1.1,0.5L24.8,109.8z M22.7,106.8c0.4,0,0.6-0.1,0.9-0.3c0.2-0.2,0.3-0.5,0.3-0.8
			s-0.1-0.6-0.3-0.8c-0.2-0.2-0.5-0.3-0.9-0.3h-1.6v2.3H22.7z"/>
		<path class="st3" d="M28.7,109.9c-0.9,0-1.6-0.3-2.2-0.9c-0.6-0.6-0.9-1.3-0.9-2.2s0.3-1.7,0.9-2.2c0.6-0.6,1.3-0.9,2.2-0.9
			c1,0,1.7,0.4,2.3,1.2l-0.6,0.4c-0.2-0.3-0.4-0.5-0.7-0.6s-0.6-0.2-0.9-0.2c-0.7,0-1.2,0.2-1.7,0.7s-0.7,1-0.7,1.8s0.2,1.3,0.7,1.8
			s1,0.7,1.7,0.7c0.3,0,0.7-0.1,0.9-0.2c0.3-0.2,0.5-0.4,0.7-0.6l0.6,0.4C30.4,109.5,29.7,109.9,28.7,109.9z"/>
	</g>
	<g>
		<path class="st0" d="M174.3,40.8h-6v-1.1c1.7-1.3,2.9-2.3,3.6-2.9s0.9-1.2,0.9-1.8c0-0.4-0.1-0.7-0.4-0.9s-0.7-0.3-1.1-0.3
			c-0.9,0-1.7,0.3-2.2,1l-0.8-1c0.4-0.4,0.8-0.8,1.4-1c0.5-0.2,1.1-0.3,1.7-0.3c0.8,0,1.6,0.2,2.2,0.7c0.6,0.5,0.9,1.1,0.9,1.9
			c0,0.7-0.3,1.4-0.9,2.1c-0.6,0.7-1.5,1.5-2.8,2.5h3.7V40.8z"/>
		<path class="st0" d="M180.5,40.5c-0.4,0.2-0.9,0.4-1.5,0.4c-0.6,0-1.1-0.1-1.5-0.4c-0.4-0.2-0.8-0.6-1-1c-0.3-0.4-0.5-0.9-0.6-1.4
			s-0.2-1-0.2-1.6s0.1-1.1,0.2-1.6s0.3-1,0.6-1.4c0.3-0.4,0.6-0.7,1-1c0.4-0.2,0.9-0.4,1.5-0.4c0.6,0,1.1,0.1,1.5,0.4
			c0.4,0.2,0.8,0.6,1,1c0.3,0.4,0.5,0.9,0.6,1.4c0.1,0.5,0.2,1,0.2,1.6s-0.1,1.1-0.2,1.6c-0.1,0.5-0.3,1-0.6,1.4
			S180.9,40.3,180.5,40.5z M177.6,38.8c0.3,0.6,0.8,0.9,1.4,0.9s1.1-0.3,1.4-0.9c0.3-0.6,0.5-1.3,0.5-2.2c0-0.6-0.1-1.1-0.2-1.5
			c-0.1-0.4-0.3-0.8-0.6-1.1c-0.3-0.3-0.6-0.4-1.1-0.4c-0.4,0-0.8,0.1-1.1,0.4c-0.3,0.3-0.5,0.6-0.6,1.1c-0.1,0.4-0.2,0.9-0.2,1.5
			C177.1,37.5,177.3,38.2,177.6,38.8z"/>
		<path class="st0" d="M186.6,40.9c-1.3,0-2.4-0.4-3.1-1.3l0.8-1c0.6,0.7,1.3,1,2.2,1c0.5,0,0.9-0.1,1.2-0.4s0.5-0.6,0.5-1
			c0-0.5-0.2-0.8-0.5-1.1s-0.7-0.4-1.2-0.4c-0.7,0-1.3,0.2-1.8,0.7l-1-0.3v-4.7h5.5v1.3h-4v2.4c0.5-0.5,1.1-0.7,1.9-0.7
			c0.7,0,1.4,0.2,1.9,0.7c0.5,0.5,0.8,1.1,0.8,2c0,0.9-0.3,1.5-0.9,2.1C188.3,40.7,187.6,40.9,186.6,40.9z"/>
	</g>
	<g>
		<path class="st0" d="M174.3,68.5h-6v-1.1c1.7-1.3,2.9-2.3,3.6-2.9s0.9-1.2,0.9-1.8c0-0.4-0.1-0.7-0.4-0.9s-0.7-0.3-1.1-0.3
			c-0.9,0-1.7,0.3-2.2,1l-0.8-1c0.4-0.4,0.8-0.8,1.4-1c0.5-0.2,1.1-0.3,1.7-0.3c0.8,0,1.6,0.2,2.2,0.7c0.6,0.5,0.9,1.1,0.9,1.9
			c0,0.7-0.3,1.4-0.9,2.1c-0.6,0.7-1.5,1.5-2.8,2.5h3.7V68.5z"/>
		<path class="st0" d="M180.9,68.5h-1.5v-1.9h-4v-1.2l3.4-5.3h2v5.2h1.1v1.3h-1.1V68.5z M179.4,65.3v-3.8l-2.5,3.8H179.4z"/>
		<path class="st0" d="M186.2,68.7c-1.3,0-2.4-0.4-3.1-1.3l0.8-1c0.6,0.7,1.3,1,2.2,1c0.5,0,0.9-0.1,1.2-0.4s0.5-0.6,0.5-1
			c0-0.5-0.2-0.8-0.5-1.1c-0.3-0.3-0.7-0.4-1.2-0.4c-0.7,0-1.3,0.2-1.8,0.7l-1-0.3v-4.7h5.5v1.3h-4v2.4c0.5-0.5,1.1-0.7,1.9-0.7
			c0.7,0,1.4,0.2,1.9,0.7s0.8,1.1,0.8,2c0,0.9-0.3,1.5-0.9,2.1C187.9,68.4,187.1,68.7,186.2,68.7z"/>
	</g>
	<g>
		<path class="st0" d="M174.3,98.9h-6v-1.2c1.7-1.3,2.9-2.3,3.6-2.9c0.6-0.6,0.9-1.2,0.9-1.8c0-0.4-0.1-0.7-0.4-0.9
			s-0.7-0.3-1.1-0.3c-0.9,0-1.7,0.3-2.2,1l-0.8-1c0.4-0.4,0.8-0.8,1.4-1s1.1-0.3,1.7-0.3c0.8,0,1.6,0.2,2.2,0.7
			c0.6,0.5,0.9,1.1,0.9,1.9c0,0.7-0.3,1.4-0.9,2.1c-0.6,0.7-1.5,1.5-2.8,2.5h3.7V98.9z"/>
		<path class="st0" d="M180.5,98.7c-0.4,0.2-0.9,0.4-1.5,0.4c-0.6,0-1.1-0.1-1.5-0.4c-0.4-0.2-0.8-0.6-1-1c-0.3-0.4-0.5-0.9-0.6-1.4
			s-0.2-1-0.2-1.6s0.1-1.1,0.2-1.6s0.3-1,0.6-1.4c0.3-0.4,0.6-0.7,1-1c0.4-0.2,0.9-0.4,1.5-0.4c0.6,0,1.1,0.1,1.5,0.4
			c0.4,0.2,0.8,0.6,1,1c0.3,0.4,0.5,0.9,0.6,1.4c0.1,0.5,0.2,1,0.2,1.6s-0.1,1.1-0.2,1.6c-0.1,0.5-0.3,1-0.6,1.4
			S180.9,98.4,180.5,98.7z M177.6,96.9c0.3,0.6,0.8,0.8,1.4,0.8s1.1-0.3,1.4-0.8c0.3-0.6,0.5-1.3,0.5-2.2c0-0.6-0.1-1.1-0.2-1.5
			c-0.1-0.4-0.3-0.8-0.6-1.1c-0.3-0.3-0.6-0.4-1.1-0.4c-0.4,0-0.8,0.1-1.1,0.4c-0.3,0.3-0.5,0.6-0.6,1.1c-0.1,0.4-0.2,0.9-0.2,1.5
			C177.1,95.6,177.3,96.3,177.6,96.9z"/>
		<path class="st0" d="M186.6,99c-1.3,0-2.4-0.4-3.1-1.3l0.8-1c0.6,0.7,1.3,1,2.2,1c0.5,0,0.9-0.1,1.2-0.4c0.3-0.3,0.5-0.6,0.5-1
			c0-0.4-0.2-0.8-0.5-1.1s-0.7-0.4-1.2-0.4c-0.7,0-1.3,0.2-1.8,0.7l-1-0.3v-4.7h5.5v1.3h-4v2.4c0.5-0.5,1.1-0.7,1.9-0.7
			c0.7,0,1.4,0.2,1.9,0.7c0.5,0.5,0.8,1.1,0.8,2c0,0.9-0.3,1.5-0.9,2.1C188.3,98.8,187.6,99,186.6,99z"/>
	</g>
	<g>
		<path class="st0" d="M16.6,159.5h-6v-1.2c1.7-1.3,2.9-2.3,3.6-2.9c0.6-0.6,0.9-1.2,0.9-1.8c0-0.4-0.1-0.7-0.4-0.9
			c-0.3-0.2-0.7-0.3-1.1-0.3c-0.9,0-1.7,0.3-2.2,1l-0.8-1c0.4-0.4,0.8-0.8,1.4-1c0.5-0.2,1.1-0.3,1.7-0.3c0.8,0,1.6,0.2,2.1,0.7
			c0.6,0.5,0.9,1.1,0.9,1.9c0,0.7-0.3,1.4-0.9,2.1c-0.6,0.7-1.5,1.5-2.8,2.5h3.7V159.5z"/>
		<path class="st0" d="M20.5,159.5h-1.6l3.1-7h-4.3v-1.3h6v1L20.5,159.5z"/>
		<path class="st0" d="M27.8,159.7c-1.3,0-2.4-0.4-3.1-1.3l0.8-1c0.6,0.7,1.3,1,2.2,1c0.5,0,0.9-0.1,1.2-0.4c0.3-0.3,0.5-0.6,0.5-1
			c0-0.5-0.2-0.8-0.5-1.1c-0.3-0.3-0.7-0.4-1.2-0.4c-0.7,0-1.3,0.2-1.8,0.7l-1-0.3v-4.7h5.5v1.3h-4v2.4c0.5-0.5,1.1-0.7,1.9-0.7
			c0.7,0,1.4,0.2,1.9,0.7c0.5,0.5,0.8,1.1,0.8,2c0,0.9-0.3,1.5-0.9,2.1C29.5,159.4,28.8,159.7,27.8,159.7z"/>
	</g>
	<g>
		<path class="st0" d="M12.6,122.8c-0.7,0-1.3-0.1-1.9-0.4c-0.5-0.2-1-0.6-1.3-1l0.8-1c0.3,0.3,0.6,0.6,1,0.7
			c0.4,0.2,0.8,0.3,1.3,0.3c0.5,0,1-0.1,1.3-0.3c0.3-0.2,0.5-0.5,0.5-0.9c0-0.8-0.6-1.2-1.9-1.2c-0.6,0-0.9,0-1,0v-1.3
			c0.1,0,0.4,0,1,0c0.5,0,0.9-0.1,1.2-0.3c0.3-0.2,0.5-0.5,0.5-0.8c0-0.4-0.2-0.7-0.5-0.9c-0.3-0.2-0.7-0.3-1.2-0.3
			c-0.8,0-1.5,0.3-2.2,0.9l-0.8-0.9c0.7-0.9,1.8-1.3,3-1.3c0.9,0,1.6,0.2,2.2,0.6s0.8,1,0.8,1.6c0,0.5-0.2,0.9-0.5,1.3
			c-0.4,0.3-0.8,0.5-1.3,0.6c0.5,0,0.9,0.2,1.3,0.6s0.6,0.8,0.6,1.4c0,0.7-0.3,1.3-0.9,1.8C14.3,122.5,13.6,122.8,12.6,122.8z"/>
		<path class="st0" d="M20.1,122.8c-1.3,0-2.4-0.4-3.1-1.3l0.8-1c0.6,0.7,1.3,1,2.2,1c0.5,0,0.9-0.1,1.2-0.4c0.3-0.3,0.5-0.6,0.5-1
			c0-0.5-0.2-0.8-0.5-1.1c-0.3-0.3-0.7-0.4-1.2-0.4c-0.7,0-1.3,0.2-1.8,0.7l-1-0.3v-4.7h5.5v1.3h-4v2.4c0.5-0.5,1.1-0.7,1.9-0.7
			c0.7,0,1.4,0.2,1.9,0.7c0.5,0.5,0.8,1.1,0.8,2c0,0.9-0.3,1.5-0.9,2.1S21.1,122.8,20.1,122.8z"/>
		<path class="st0" d="M29.2,122.4c-0.4,0.2-0.9,0.4-1.5,0.4c-0.6,0-1.1-0.1-1.5-0.4c-0.4-0.2-0.8-0.6-1.1-1
			c-0.3-0.4-0.5-0.9-0.6-1.4c-0.1-0.5-0.2-1-0.2-1.6c0-0.5,0.1-1.1,0.2-1.6c0.1-0.5,0.3-1,0.6-1.4c0.3-0.4,0.6-0.7,1.1-1
			c0.4-0.2,0.9-0.4,1.5-0.4c0.6,0,1.1,0.1,1.5,0.4c0.4,0.2,0.8,0.6,1,1c0.3,0.4,0.5,0.9,0.6,1.4s0.2,1,0.2,1.6
			c0,0.5-0.1,1.1-0.2,1.6s-0.3,1-0.6,1.4C30,121.8,29.6,122.1,29.2,122.4z M26.3,120.6c0.3,0.6,0.8,0.8,1.4,0.8
			c0.6,0,1.1-0.3,1.4-0.8s0.5-1.3,0.5-2.2c0-0.6-0.1-1.1-0.2-1.5c-0.1-0.4-0.3-0.8-0.6-1.1c-0.3-0.3-0.6-0.4-1.1-0.4
			c-0.4,0-0.8,0.1-1.1,0.4s-0.5,0.6-0.6,1.1c-0.1,0.4-0.2,0.9-0.2,1.5C25.8,119.3,26,120.1,26.3,120.6z"/>
	</g>
	<g>
		<path class="st0" d="M15.6,91.3h-1.5v-6.4l-1.4,1.4L12,85.3l2.4-2.4h1.3V91.3z"/>
		<path class="st0" d="M20.3,91.4c-1.3,0-2.4-0.4-3.1-1.3l0.8-1c0.6,0.7,1.3,1,2.2,1c0.5,0,0.9-0.1,1.2-0.4c0.3-0.3,0.5-0.6,0.5-1
			c0-0.5-0.2-0.8-0.5-1.1c-0.3-0.3-0.7-0.4-1.2-0.4c-0.7,0-1.3,0.2-1.8,0.7l-1-0.3v-4.7H23v1.3h-4v2.4c0.5-0.5,1.1-0.7,1.9-0.7
			c0.7,0,1.4,0.2,1.9,0.7c0.5,0.5,0.8,1.1,0.8,2c0,0.9-0.3,1.5-0.9,2.1S21.3,91.4,20.3,91.4z"/>
		<path class="st0" d="M27.8,91.4c-1.3,0-2.4-0.4-3.1-1.3l0.8-1c0.6,0.7,1.3,1,2.2,1c0.5,0,0.9-0.1,1.2-0.4c0.3-0.3,0.5-0.6,0.5-1
			c0-0.5-0.2-0.8-0.5-1.1c-0.3-0.3-0.7-0.4-1.2-0.4c-0.7,0-1.3,0.2-1.8,0.7l-1-0.3v-4.7h5.5v1.3h-4v2.4c0.5-0.5,1.1-0.7,1.9-0.7
			c0.7,0,1.4,0.2,1.9,0.7c0.5,0.5,0.8,1.1,0.8,2c0,0.9-0.3,1.5-0.9,2.1S28.8,91.4,27.8,91.4z"/>
	</g>
	<g>
		<path class="st0" d="M15.5,64.6h-6v-1.2c1.7-1.3,2.9-2.3,3.6-2.9c0.6-0.6,0.9-1.2,0.9-1.8c0-0.4-0.1-0.7-0.4-0.9
			c-0.3-0.2-0.7-0.3-1.1-0.3c-0.9,0-1.7,0.3-2.2,1l-0.8-1c0.4-0.4,0.8-0.8,1.4-1c0.5-0.2,1.1-0.3,1.7-0.3c0.8,0,1.6,0.2,2.1,0.7
			s0.9,1.1,0.9,1.9c0,0.7-0.3,1.4-0.9,2.1c-0.6,0.7-1.5,1.5-2.8,2.5h3.7V64.6z"/>
		<path class="st0" d="M20.3,64.7c-0.6,0-1.1-0.1-1.6-0.3s-0.8-0.5-1.1-0.9c-0.3-0.4-0.5-0.9-0.6-1.4c-0.1-0.5-0.2-1.1-0.2-1.7
			c0-1.3,0.3-2.3,1-3.1c0.6-0.8,1.5-1.2,2.7-1.2c1,0,1.8,0.3,2.4,0.9l-0.7,1.1c-0.5-0.5-1-0.7-1.7-0.7c-0.7,0-1.2,0.3-1.6,0.8
			c-0.4,0.5-0.6,1.2-0.6,2c0,0.1,0,0.2,0,0.2c0.2-0.3,0.5-0.6,0.9-0.8c0.4-0.2,0.8-0.3,1.3-0.3c0.8,0,1.5,0.2,2,0.7
			c0.5,0.5,0.8,1.1,0.8,2c0,0.8-0.3,1.5-0.9,2C21.9,64.5,21.2,64.7,20.3,64.7z M20.2,63.4c0.5,0,0.9-0.1,1.2-0.4
			c0.3-0.3,0.5-0.6,0.5-1c0-0.5-0.2-0.9-0.5-1.1s-0.7-0.4-1.2-0.4c-0.4,0-0.7,0.1-1,0.3s-0.6,0.4-0.8,0.7c0,0.5,0.2,1,0.5,1.4
			C19.2,63.2,19.6,63.4,20.2,63.4z"/>
		<path class="st0" d="M29.2,64.3c-0.4,0.2-0.9,0.4-1.5,0.4c-0.6,0-1.1-0.1-1.5-0.4c-0.4-0.2-0.8-0.6-1.1-1s-0.5-0.9-0.6-1.4
			c-0.1-0.5-0.2-1-0.2-1.6s0.1-1.1,0.2-1.6c0.1-0.5,0.3-1,0.6-1.4c0.3-0.4,0.6-0.7,1.1-1c0.4-0.2,0.9-0.4,1.5-0.4
			c0.6,0,1.1,0.1,1.5,0.4c0.4,0.2,0.8,0.6,1,1c0.3,0.4,0.5,0.9,0.6,1.4s0.2,1,0.2,1.6s-0.1,1.1-0.2,1.6s-0.3,1-0.6,1.4
			C30,63.8,29.6,64.1,29.2,64.3z M26.3,62.6c0.3,0.6,0.8,0.8,1.4,0.8c0.6,0,1.1-0.3,1.4-0.8s0.5-1.3,0.5-2.2c0-0.6-0.1-1.1-0.2-1.5
			s-0.3-0.8-0.6-1.1c-0.3-0.3-0.6-0.4-1.1-0.4c-0.4,0-0.8,0.1-1.1,0.4c-0.3,0.3-0.5,0.6-0.6,1.1c-0.1,0.4-0.2,0.9-0.2,1.5
			C25.8,61.3,26,62,26.3,62.6z"/>
	</g>
	<g>
		<path class="st0" d="M15.4,39.3h-6v-1.1c1.7-1.3,2.9-2.3,3.6-2.9c0.6-0.6,0.9-1.2,0.9-1.8c0-0.4-0.1-0.7-0.4-0.9
			c-0.3-0.2-0.7-0.3-1.1-0.3c-0.9,0-1.7,0.3-2.2,1l-0.8-1c0.4-0.4,0.8-0.8,1.4-1c0.5-0.2,1.1-0.3,1.7-0.3c0.8,0,1.6,0.2,2.1,0.7
			s0.9,1.1,0.9,1.9c0,0.7-0.3,1.4-0.9,2.1c-0.6,0.7-1.5,1.5-2.8,2.5h3.7V39.3z"/>
		<path class="st0" d="M21.5,39c-0.4,0.2-0.9,0.4-1.5,0.4s-1.1-0.1-1.5-0.4s-0.8-0.6-1-1c-0.3-0.4-0.5-0.9-0.6-1.4
			c-0.1-0.5-0.2-1-0.2-1.6c0-0.5,0.1-1.1,0.2-1.6c0.1-0.5,0.3-1,0.6-1.4c0.3-0.4,0.6-0.7,1-1s0.9-0.4,1.5-0.4s1.1,0.1,1.5,0.4
			s0.8,0.6,1.1,1c0.3,0.4,0.5,0.9,0.6,1.4s0.2,1,0.2,1.6c0,0.5-0.1,1.1-0.2,1.6s-0.3,1-0.6,1.4C22.3,38.5,21.9,38.8,21.5,39z
			 M18.6,37.3c0.3,0.6,0.8,0.9,1.4,0.9c0.6,0,1.1-0.3,1.4-0.9c0.3-0.6,0.5-1.3,0.5-2.2c0-0.6-0.1-1.1-0.2-1.5s-0.3-0.8-0.6-1.1
			c-0.3-0.3-0.6-0.4-1.1-0.4s-0.8,0.1-1.1,0.4c-0.3,0.3-0.5,0.6-0.6,1.1s-0.2,0.9-0.2,1.5C18.1,36,18.3,36.7,18.6,37.3z"/>
		<path class="st0" d="M29.2,39c-0.4,0.2-0.9,0.4-1.5,0.4c-0.6,0-1.1-0.1-1.5-0.4c-0.4-0.2-0.8-0.6-1.1-1c-0.3-0.4-0.5-0.9-0.6-1.4
			c-0.1-0.5-0.2-1-0.2-1.6c0-0.5,0.1-1.1,0.2-1.6c0.1-0.5,0.3-1,0.6-1.4c0.3-0.4,0.6-0.7,1.1-1c0.4-0.2,0.9-0.4,1.5-0.4
			c0.6,0,1.1,0.1,1.5,0.4c0.4,0.2,0.8,0.6,1,1c0.3,0.4,0.5,0.9,0.6,1.4s0.2,1,0.2,1.6c0,0.5-0.1,1.1-0.2,1.6s-0.3,1-0.6,1.4
			C30,38.5,29.6,38.8,29.2,39z M26.3,37.3c0.3,0.6,0.8,0.9,1.4,0.9c0.6,0,1.1-0.3,1.4-0.9c0.3-0.6,0.5-1.3,0.5-2.2
			c0-0.6-0.1-1.1-0.2-1.5s-0.3-0.8-0.6-1.1c-0.3-0.3-0.6-0.4-1.1-0.4c-0.4,0-0.8,0.1-1.1,0.4s-0.5,0.6-0.6,1.1
			c-0.1,0.4-0.2,0.9-0.2,1.5C25.8,36,26,36.7,26.3,37.3z"/>
	</g>
	<g>
		<path class="st0" d="M96.3,20.4h-6v-1.1c1.7-1.3,2.9-2.3,3.6-2.9c0.6-0.6,0.9-1.2,0.9-1.8c0-0.4-0.1-0.7-0.4-0.9
			c-0.3-0.2-0.7-0.3-1.1-0.3c-0.9,0-1.7,0.3-2.2,1l-0.8-1c0.4-0.4,0.8-0.8,1.4-1c0.5-0.2,1.1-0.3,1.7-0.3c0.9,0,1.6,0.2,2.2,0.7
			c0.6,0.5,0.9,1.1,0.9,1.9c0,0.7-0.3,1.4-0.9,2.1c-0.6,0.7-1.5,1.5-2.8,2.5h3.7V20.4z"/>
		<path class="st0" d="M102.5,20.2c-0.4,0.2-0.9,0.4-1.5,0.4c-0.6,0-1.1-0.1-1.5-0.4c-0.4-0.2-0.8-0.6-1.1-1s-0.5-0.9-0.6-1.4
			c-0.1-0.5-0.2-1-0.2-1.6s0.1-1.1,0.2-1.6c0.1-0.5,0.3-1,0.6-1.4c0.3-0.4,0.6-0.7,1.1-1c0.4-0.2,0.9-0.4,1.5-0.4
			c0.6,0,1.1,0.1,1.5,0.4c0.4,0.2,0.8,0.6,1,1c0.3,0.4,0.5,0.9,0.6,1.4s0.2,1,0.2,1.6s-0.1,1.1-0.2,1.6s-0.3,1-0.6,1.4
			C103.2,19.6,102.9,19.9,102.5,20.2z M99.6,18.4c0.3,0.6,0.8,0.9,1.4,0.9c0.6,0,1.1-0.3,1.4-0.9c0.3-0.6,0.5-1.3,0.5-2.2
			c0-0.6-0.1-1.1-0.2-1.5c-0.1-0.4-0.3-0.8-0.6-1.1c-0.3-0.3-0.6-0.4-1.1-0.4c-0.4,0-0.8,0.1-1.1,0.4c-0.3,0.3-0.5,0.6-0.6,1.1
			c-0.1,0.4-0.2,0.9-0.2,1.5C99.1,17.1,99.2,17.9,99.6,18.4z"/>
		<path class="st0" d="M110.1,20.2c-0.4,0.2-0.9,0.4-1.5,0.4s-1.1-0.1-1.5-0.4s-0.8-0.6-1-1s-0.5-0.9-0.6-1.4
			c-0.1-0.5-0.2-1-0.2-1.6s0.1-1.1,0.2-1.6c0.1-0.5,0.3-1,0.6-1.4c0.3-0.4,0.6-0.7,1-1s0.9-0.4,1.5-0.4s1.1,0.1,1.5,0.4
			s0.8,0.6,1.1,1c0.3,0.4,0.5,0.9,0.6,1.4s0.2,1,0.2,1.6s-0.1,1.1-0.2,1.6s-0.3,1-0.6,1.4C110.9,19.6,110.6,19.9,110.1,20.2z
			 M107.3,18.4c0.3,0.6,0.8,0.9,1.4,0.9c0.6,0,1.1-0.3,1.4-0.9c0.3-0.6,0.5-1.3,0.5-2.2c0-0.6-0.1-1.1-0.2-1.5
			c-0.1-0.4-0.3-0.8-0.6-1.1c-0.3-0.3-0.6-0.4-1.1-0.4s-0.8,0.1-1.1,0.4c-0.3,0.3-0.5,0.6-0.6,1.1c-0.1,0.4-0.2,0.9-0.2,1.5
			C106.8,17.1,107,17.9,107.3,18.4z"/>
	</g>
	<g>
		<g>
			<path class="st4" d="M161.2,59.1c-12.9-2.1-26.2-1.4-34.4,6.9"/>
			<g>
				<path class="st2" d="M126.8,65.9c0.4,0,0.8,0.3,1.1,0.5c-0.6-0.1-1.2,0-1.7,0.2c0.2-0.5,0.2-1.2,0.2-1.8
					C126.5,65.1,126.8,65.5,126.8,65.9z"/>
			</g>
		</g>
	</g>
	<g>
		<g>
			<path class="st1" d="M162.3,87.8c-14.8,2.2-26.8-3.6-31.8-10.1"/>
			<g>
				<path class="st2" d="M130.5,77.8c0,0.3-0.3,0.6-0.5,0.8c0.1-0.5,0.2-1,0-1.5c0.4,0.3,0.9,0.3,1.4,0.3
					C131.2,77.6,130.8,77.8,130.5,77.8z"/>
			</g>
		</g>
	</g>
	<g>
		<g>
			<path class="st5" d="M38.7,147.6c14.3,0.6,53.1-11.3,64.2-35.9"/>
			<g>
				<path class="st2" d="M102.9,111.8c-0.3,0.1-0.7,0-0.9-0.1c0.5-0.1,0.9-0.3,1.2-0.6c0,0.5,0.1,0.9,0.3,1.3
					C103.3,112.3,103,112.1,102.9,111.8z"/>
			</g>
		</g>
	</g>
	<g>
		<g>
			<path class="st6" d="M160.1,119.3c-10.3-0.5-27.6,2.3-35.5-11.7"/>
			<g>
				<path class="st2" d="M124.7,107.7c-0.2,0.6-0.8,1.2-1.3,1.5c0.4-0.9,0.6-1.9,0.5-3c0.8,0.6,1.8,0.9,2.8,1.1
					C126.1,107.6,125.4,107.9,124.7,107.7z"/>
			</g>
		</g>
	</g>
	<g>
		<g>
			<path class="st7" d="M38.7,26.5c18.3,0,36.8,11.1,49.9,37"/>
			<g>
				<path class="st2" d="M88.6,63.4c0.1-0.3,0.4-0.6,0.7-0.7c-0.2,0.4-0.3,0.9-0.3,1.4c-0.4-0.3-0.8-0.5-1.3-0.6
					C87.9,63.4,88.3,63.3,88.6,63.4z"/>
			</g>
		</g>
	</g>
	<g>
		<g>
			<path class="st8" d="M37.6,113.8c13,1.1,40.4-1.5,51-12.8"/>
			<g>
				<path class="st2" d="M88.5,101.1c-0.5,0-1.2-0.4-1.5-0.7c0.8,0.1,1.7,0,2.5-0.3c-0.3,0.8-0.3,1.7-0.2,2.5
					C88.9,102.2,88.5,101.7,88.5,101.1z"/>
			</g>
		</g>
	</g>
	<g>
		<g>
			<path class="st9" d="M37,58.2c14.4-4,23.2-1.8,35.6,11"/>
			<g>
				<path class="st2" d="M72.6,69.2c0-0.2,0.1-0.4,0.3-0.5c0,0.3,0,0.6,0.1,0.8c-0.3-0.1-0.6-0.1-0.8-0.1
					C72.2,69.4,72.4,69.2,72.6,69.2z"/>
			</g>
		</g>
	</g>
	<g>
		<g>
			<path class="st10" d="M37,80.2c9.3-5.3,27.8-5.5,44.2,3.5"/>
			<g>
				<path class="st2" d="M81.1,83.6c-0.1-0.2,0-0.5,0.1-0.7c0.1,0.4,0.2,0.7,0.4,1c-0.4,0-0.7,0.1-1.1,0.2
					C80.7,83.9,80.9,83.7,81.1,83.6z"/>
			</g>
		</g>
	</g>
	<g>
		<g>
			<line class="st7" x1="101.1" y1="27.1" x2="101.1" y2="52.9"/>
			<g>
				<path class="st2" d="M101.1,52.8c0.2-0.2,0.6-0.3,0.9-0.3c-0.4,0.3-0.7,0.7-0.9,1.1c-0.2-0.5-0.5-0.8-0.9-1.1
					C100.5,52.5,100.9,52.6,101.1,52.8z"/>
			</g>
		</g>
	</g>
	<g>
		<path class="st0" d="M173.5,130.9H172V129h-4v-1.2l3.4-5.3h2v5.2h1.1v1.3h-1.1V130.9z M172,127.7v-3.8l-2.5,3.8H172z"/>
		<path class="st0" d="M181.6,130.9h-6v-1.1c1.7-1.3,2.9-2.3,3.6-2.9s0.9-1.2,0.9-1.8c0-0.4-0.1-0.7-0.4-0.9s-0.7-0.3-1.1-0.3
			c-0.9,0-1.7,0.3-2.2,1l-0.8-1c0.4-0.4,0.8-0.8,1.4-1c0.5-0.2,1.1-0.3,1.7-0.3c0.8,0,1.6,0.2,2.2,0.7c0.6,0.5,0.9,1.1,0.9,1.9
			c0,0.7-0.3,1.4-0.9,2.1c-0.6,0.7-1.5,1.5-2.8,2.5h3.7V130.9z"/>
		<path class="st0" d="M187.7,130.6c-0.4,0.2-0.9,0.4-1.5,0.4c-0.6,0-1.1-0.1-1.5-0.4c-0.4-0.2-0.8-0.6-1-1
			c-0.3-0.4-0.5-0.9-0.6-1.4s-0.2-1-0.2-1.6s0.1-1.1,0.2-1.6s0.3-1,0.6-1.4c0.3-0.4,0.6-0.7,1-1c0.4-0.2,0.9-0.4,1.5-0.4
			c0.6,0,1.1,0.1,1.5,0.4c0.4,0.2,0.8,0.6,1,1c0.3,0.4,0.5,0.9,0.6,1.4c0.1,0.5,0.2,1,0.2,1.6s-0.1,1.1-0.2,1.6
			c-0.1,0.5-0.3,1-0.6,1.4S188.2,130.4,187.7,130.6z M184.8,128.9c0.3,0.6,0.8,0.9,1.4,0.9s1.1-0.3,1.4-0.9c0.3-0.6,0.5-1.3,0.5-2.2
			c0-0.6-0.1-1.1-0.2-1.5c-0.1-0.4-0.3-0.8-0.6-1.1c-0.3-0.3-0.6-0.4-1.1-0.4c-0.4,0-0.8,0.1-1.1,0.4c-0.3,0.3-0.5,0.6-0.6,1.1
			c-0.1,0.4-0.2,0.9-0.2,1.5C184.4,127.6,184.5,128.3,184.8,128.9z"/>
	</g>
</g>
</svg>
