<?xml version="1.0" encoding="utf-8"?>
<!-- Generator: Adobe Illustrator 19.2.0, SVG Export Plug-In . SVG Version: 6.00 Build 0)  -->
<svg version="1.1" id="Layer_1" xmlns="http://www.w3.org/2000/svg" xmlns:xlink="http://www.w3.org/1999/xlink" x="0px" y="0px"
	 viewBox="0 0 215.8 152.7" style="enable-background:new 0 0 215.8 152.7;" xml:space="preserve">
<style type="text/css">
	.st0{fill:#0D92FF;}
	.st1{fill:none;stroke:#00325C;stroke-width:0.1581;stroke-miterlimit:10;}
	.st2{fill:#00325C;}
	.st3{fill:#787878;}
	.st4{fill:none;stroke:#00325C;stroke-width:0.2251;stroke-miterlimit:10;}
	.st5{fill:none;stroke:#00325C;stroke-width:0.1724;stroke-miterlimit:10;}
	.st6{fill:none;stroke:#00325C;stroke-width:0.1964;stroke-miterlimit:3;}
	.st7{fill:none;stroke:#00325C;stroke-width:0.2826;stroke-miterlimit:10;}
	.st8{fill:none;stroke:#00325C;stroke-width:0.2395;stroke-miterlimit:10;}
	.st9{fill:none;stroke:#00325C;stroke-width:0.273;stroke-miterlimit:10;}
	.st10{fill:none;stroke:#00325C;stroke-width:0.1916;stroke-miterlimit:10;}
	.st11{fill:none;stroke:#00325C;stroke-width:0.206;stroke-miterlimit:10;}
	.st12{fill:none;stroke:#00325C;stroke-width:0.1533;stroke-miterlimit:10;}
</style>
<g>
	<path class="st0" d="M152.5,138.8L152.5,138.8l-0.1,0l0,0.1L152.5,138.8L152.5,138.8l0,0.1L152.5,138.8L152.5,138.8L152.5,138.8
		L152.5,138.8L152.5,138.8L152.5,138.8z M152.5,139.2L152.5,139.2L152.5,139.2l0,0.1L152.5,139.2L152.5,139.2L152.5,139.2z M68,58
		L68,58L68,58L68,58L68,58L68,58L68,57.9L68,58L68,58L68,58z M131.4,121.6l-0.1,0l-0.1,0.1l-0.1,0.1l-0.2,0.1l0,0.1l0,0.1l0,0
		l0.1-0.1l0.1,0l0.1-0.2L131.4,121.6l0.1,0.1l0-0.1L131.4,121.6L131.4,121.6z M64.4,82.3l-0.3-0.1l-0.1,0l-0.1,0l-0.1,0.1l0.1,0.2
		l0.6,0l0.2,0.1l-0.1-0.1L64.4,82.3z M65.6,79.7L65.6,79.7l-0.3-0.2l-0.1-0.1l0-0.2l0-0.1l0-0.1L65,78.8l-0.1,0l-0.4,0l0.1,0.2
		l0.1,0.4l0.1,0.2l0.2-0.1l0.2,0.1l0.2,0.3l0.1,0.2l0.1,0.1l0-0.1l0-0.2L65.6,79.7z M43.5,62.6L43.5,62.6L43.5,62.6l-0.2-0.1l-0.2,0
		l-0.3,0.2v0.1l0.2-0.1l0.1,0l0,0.1l0,0l-0.1,0l0,0v0.1l0.1,0L43.5,62.6L43.5,62.6L43.5,62.6L43.5,62.6z M70.7,87.6L70.7,87.6l0-0.1
		l0-0.1l-0.1,0l-0.1,0l-0.4,0.1v0.1l0.1,0.1l0.3,0.4l0.1,0l0.4-0.1l0.7,0.5l0.3,0.1l0,0l0,0l0.1,0l0.1,0l0.1,0l-0.1-0.2l-0.1-0.2
		L72,88l-0.8-0.1l-0.1-0.1v-0.1h0.1v-0.1l-0.2,0l-0.2,0.1l-0.2,0l-0.1-0.2l0.1,0L70.7,87.6z M129.5,121.9L129.5,121.9l-0.1,0.1l0,0
		l0,0l0,0l-0.1,0l-0.2,0l-0.1,0l0,0.1l0.2,0.1l0.1,0l0.1,0l0.1-0.1l0.1-0.1L129.5,121.9L129.5,121.9L129.5,121.9z M58.3,75.5
		L58.3,75.5L58,75.2l0,0L57.8,75l-0.3-0.2l-0.1,0l-0.1-0.1h-0.1l0,0.1l-0.1,0.1l0,0.2l0.1,0.2l0.1,0.2l0,0.2l0.1,0.1l0.4,0.1
		l0.6,0.1l0.2-0.1l0-0.2l-0.1-0.1L58.3,75.5z M72.6,90.3l-0.1-0.1l-0.1,0l-0.1,0l-0.1,0L72,90l-0.2-0.2l-0.3-0.1l-0.2,0l0.2,0.4
		l0.1,0.3l0,0.1l0,0.1l0.1,0.2l0.2,0.2l0.2,0.1l0.4,0.5l0.1,0.2l0.1,0.1l0.1,0.4l0.1,0.1l0.1-0.2l0.1-0.3l0.1-0.5l0-0.1l-0.1-0.1
		L72.7,91l-0.1-0.1l0-0.1v-0.1l-0.1-0.1l0-0.1l0-0.1L72.6,90.3z M143.6,56.7l-1.2-0.6l-0.1,0l-0.4,0l-0.6-0.2l-0.1,0l-0.2,0.1
		l-0.1,0l-0.1,0l-0.2-0.1l-0.1,0l-0.1,0l-0.1,0l-0.1,0l-0.1,0L140,56l-0.1-0.2l-0.1-0.1l-0.2-0.1l-0.3-0.1l-0.2-0.1l-0.1-0.1
		l-0.2-0.3l-0.1-0.1l0,0l0,0l0.1,0l-0.1-0.2l-0.1-0.1l-0.3,0l0-0.1l-0.1,0l-0.2,0.1l-0.1,0.1l0,0.1l-0.1,0.2l0,0.1l-0.1,0l-0.2,0
		l-0.1,0l0,0.1l-0.1,0.2l0,0l0,0l-0.2-0.1l-0.7,0l-0.1,0l-0.1-0.1l-0.3-0.2l0,0l-0.1,0.1l0,0.1l0,0.1l0,0.1l-0.2,0.1l-0.2-0.1
		l-0.1-0.3l0-0.4l-0.2,0l-0.5-0.3l-0.1,0l-0.2,0l-0.3-0.1l-0.1,0l0,0.2l0.1,0.2l0,0.2l-0.1,0.2l-0.1,0l-0.3-0.1l-0.3,0l-0.1,0
		l-0.1-0.2l0-0.1l0-0.1l0-0.2h0l-0.1,0.1l0,0l0,0l0-0.1l0,0l0-0.1l-0.1-0.2l0,0l-0.1,0l0,0l0,0l0-0.1l0-0.1l-0.5-0.5l-0.1-0.2l0-0.1
		l0-0.1l0.1,0l0-0.1l0-0.1l-0.4-0.4l-0.1-0.1l0,0l0-0.1l0-0.1l0-0.1l-0.1-0.1l-0.7-0.3l-0.1,0l-0.1,0l-0.1,0.1l-0.1,0l-0.1,0l-0.2,0
		l-0.2-0.1l-0.4-0.3l-0.2-0.1l-0.2,0l-0.4,0l0,0.1l-0.2,0l-0.1,0l0,0.1V51l0,0.1l-0.1,0l-0.1,0.1l-0.1,0l-0.6,0l-0.1,0l-0.1-0.3
		l-0.1-0.1l-0.5-0.1l-0.2-0.1l-0.1-0.1l-0.2-0.3l-0.1,0l0,0l-0.2-0.1l-0.1,0l-0.1,0l-0.1,0.1l-0.1,0l0,0l-0.2,0l-0.2-0.1l-0.2,0h0
		l-0.2,0.1l-0.1,0.1v0l0,0.1l0,0l0,0l-0.1,0l-0.1,0l-0.1,0l-0.2-0.1l-0.1,0l0,0l-0.1,0.1l-0.1,0.1l-0.2,0.1l0,0l-0.2,0l0-0.1l0,0
		l0-0.1l0-0.1v-0.1l0-0.1l-0.4-0.7l-0.1-0.1l-0.2-0.1l0,0l0,0l0,0h0l0,0l0,0.1l0,0.1l0,0l0,0l-0.1,0l0,0v0l0-0.1l0-0.1l0-0.2v0l0,0
		l0.1,0l0,0l0,0l-0.1-0.2l-0.1-0.2l-0.2-0.2l-0.1,0l-0.1,0l-0.1,0l-0.2,0.1l-0.2-0.1l-0.1-0.1l0,0l-0.1-0.1l-0.2-0.3l-0.1-0.2
		l-0.1-0.1l-0.1,0l-0.2-0.1l-0.2-0.1l-0.3-0.3l-0.1-0.1l0,0l-0.1,0l-0.1,0l-0.1,0.1l-0.2,0.1l-0.1,0l0,0l-0.1,0l-0.1,0v0l-0.1-0.1
		l0-0.2v-0.2l0-0.1v0l-0.1-0.1l0-0.1l0-0.1l0.1-0.1l0,0l0,0l0,0l0-0.1l0,0l0-0.1l0-0.1l0-0.1l0-0.1l-0.1-0.2l0,0v0l-0.2-0.1
		l-0.1-0.1h0l-0.1-0.2l0-0.2l0.2-0.5l0.1-0.2l0,0l0-0.1l0-0.1l0-0.1l0,0l0-0.1l0.1-0.2v0l0,0l0.1,0.1l0,0l0-0.1l0-0.1l0-0.2l0-0.1
		l0-0.2L119,43l-0.2,0l-0.1,0l0-0.2l0,0l-0.2,0.1l-0.8,0.8l0,0.1l0,0.1l0,0.1l0,0l0,0l0,0l0,0l0,0l0,0.1l0,0.3l-0.1,0.2l0,0
		l-0.1,0.1l-0.1,0l0,0L117,45l-0.3,0.1l-0.8,0.4l-0.2,0l-1-0.3l-0.2-0.1l-0.2,0l-0.4,0.1l-0.1,0l0,0l-0.4-0.2h0l0.1,0l0-0.1l0-0.1
		l0-0.1l0-0.1l0,0h0l0-0.1l0-0.1l0,0l0,0l0.1-0.1l0.1-0.1l0.1-0.1l0.1-0.1l0.1,0l0.1-0.1l0.1,0l0-0.1v0l-0.1-0.1l0-0.1l0,0l-0.1-0.5
		l-0.1,0l-0.1,0l-0.2,0.1l0,0l-0.1,0l0-0.2l0,0l0.1-0.3l0.1-0.2l0-0.2l0-0.1l0,0l0.1-0.1l0.2-0.1l0,0l0.1-0.1l0-0.1l0-0.1l0-0.1
		l-0.1-0.1l-0.1,0l0,0l-0.1,0l-0.1,0h0l0,0.1l0,0l0,0h0l0,0l0,0l-0.1,0l0,0l-0.2-0.3l0-0.1l0,0l-0.2-0.1l-0.1-0.1l-0.1,0l-0.3-0.3
		l0,0l-0.1-0.1l-0.1,0l-0.1,0l-0.3,0.1l-0.2,0.1h-0.2l0,0l-0.1-0.1l-0.1,0l-0.1,0l-0.2-0.1l-0.3,0l-0.3,0l0,0l-0.1,0l-0.1,0.1
		l-0.1,0.2l0,0.1l0,0l0,0l0,0l0,0l0,0l0,0l0,0.1l-0.3-0.3l-0.1-0.5l0-0.6l-0.1-0.5l-0.1-0.2l-0.2-0.1l-0.2-0.1l-0.2,0l-0.5,0h0
		l-0.1-0.1h0l0.1-0.1l0,0l0-0.1l-0.1-0.1l0,0l-0.1,0l-0.1,0l0,0l-0.1,0l0,0l0,0l0,0l0,0l-0.1,0.1l-0.3,0.1l-0.1,0l-0.1,0l-0.1,0
		l-0.1,0l-0.3-0.2l-0.1-0.1l-0.1-0.1l0,0l0-0.1l0-0.4l-0.2-0.7l-0.1-0.3l0.1-0.1l0.1-0.1l0-0.1l-0.1-0.2l-0.1-0.1l0,0l-0.1,0v0
		l-0.1,0l-0.1-0.1l-0.1-0.2l-0.1-0.2l0-0.1l-0.1-0.2l-0.1-0.1l-0.2,0l0,0l-0.4,0.1l-0.2,0.1l-0.1,0l-0.3,0.1l-0.1,0.1l-0.1,0.1
		l-0.1,0.1l-0.1,0.1l-0.1,0.2l-0.1,0.2l-0.1,0.1l0,0l-0.1,0l0,0l0,0l0,0l-0.5-0.2l-0.1,0l0,0l-0.1-0.1l0,0l0,0l-0.1-0.2l0-0.1l0,0
		l-0.3-0.2l-0.1-0.1l0-0.1h0l0-0.1l-0.1-0.1l0,0l-0.1,0l-0.1,0l-0.1,0l-0.1,0l0,0l0,0l0-0.1l0-0.1l0-0.1l0,0l0,0l0,0l-0.1,0l0,0l0,0
		v0l0,0l0,0l0.1-0.1l0-0.1l-0.1-0.3l-0.1-0.3l0-0.1l0.1-0.1l0.1-0.1l0,0l0,0l0-0.2l-0.1-0.2h0l-0.3-0.3l-0.1-0.2l0-0.1l-0.1-0.4l0,0
		l-0.1-0.2l-0.1,0.1l-0.3,0.1l-0.6,0.2l-0.5-0.1l-0.1,0l-0.1,0l-1.3,0.4L97,32.8l-0.3,0.2l-0.1,0l-1.5,0.6l-0.2,0.2l-0.2,0.3
		l-0.1,0.1l-0.1,0.1l-0.2,0l-0.1,0L94,34.4l0,0.1l0,0.2l0.1,0.4l0,0.3l0,0.2l-0.1,0.2l-0.2,0.5l0,0.2l0,0.2l0.1,0.5l0,0.6l0,0.2
		l0.2,0.3L94,38.5l0,0.5l0,0.6l-0.1,0.4V40l0.4,0.3v0.1l-0.3-0.1l-0.2,0.3l-0.1,0.5l0,0.4l0.1,0.1l0.3,0.2l0.1,0.2l0,0.1l0.1,0.1
		l0.2,0.1l0.1,0v0.1h-0.2l0,0.1l0,0.1l0.1,0l0.1,0v0.1l-0.1,0.1l-0.1,0l-0.8-0.4l-0.3,0l-0.3,0.4l-0.2,0.6L93,43.3L93,43.4l-0.4,0.5
		l-1,0.8L91.3,45l-0.2,0.1l-0.2,0.1l-3.1,1l-0.7,0l-0.6,0.2l-0.3,0.2l-0.3,0.1l-1,0.6l-0.1,0.1l-1,0.5L83.8,48l-0.1,0l-0.4,0.3
		l-0.1,0.1l-0.3,1l-0.4,0.7l0,0.1l0,0.1l0,0.1l0.1,0.1l0,0.1l0.1,0.1l0.2,0.1l0.2,0.1l0.1,0h0.2l0.5,0.2l0.6,0.1l0.6-0.1l0.5-0.3
		l-0.1,0.2l-0.1,0.1l-0.4,0.2l-1.9,0.4L82.7,52l-0.2,0.3l-0.1,0.1l-0.2,0l-0.2,0.2l-0.4,0.2l-1.2,0.3l-0.2,0.2l-0.7-0.4l-0.4-0.1
		L79,52.6l-0.1-0.1h-0.5L78,52.4l-0.2,0l-0.3,0.2l-0.2,0L77,52.4l-1.3-0.1l-0.9-0.3l-1-0.1l-0.1,0.1l-0.1,0.1l-0.1,0.2l0.1,0.1v0.1
		l-0.1,0l-0.1,0l-0.1-0.1l-0.1-0.1l-0.1,0L73,52.3l-0.1,0l0-0.1l0,0l0-0.1l0-0.1l0-0.1l0-0.3l-0.1-0.2l-0.6-0.7l-0.1-0.3l-0.1-0.2
		L72,50l0-0.3l0-0.1l0.1,0l0.2,0l0-0.1l0-0.1l0-0.1l0.2-0.1l0-0.2l-0.2-0.4l0-0.2l0-0.1l-0.1,0l-0.9-0.2l-0.1,0l-0.4,0.1l-0.1,0.1
		l-0.2,0.3l-0.1,0.1l-0.1,0.1l-0.1,0l-0.2-0.1l-0.1,0l-0.1,0l-0.1,0.1l-0.1,0l-0.1,0l0-0.1l0-0.1l0,0l-0.1,0l-0.6-0.2l-0.5-0.1
		l-0.2-0.1l0,0l-0.1,0l0,0l0-0.1l0-0.1l0-0.1l-0.1,0l-0.2,0l-0.1,0L67.5,48l-0.1,0l-0.2,0l0,0.1l0,0.2l-0.1,0.3l0.3,0.1l0.2,0
		l0.1,0.1l0,0.1l0.1,0.1l0.1,0.2l0,0.2l0,0.4l0,0.1l-0.2,0.2l0,0.2l0,0.1l0.2,0.2l0.1,0.1l0,0.1l0,0.1l0,0.1l0.1,0.2l0,0.1l0,0.1
		l0,0.2l0,0.4l0,0.2l0.1,0.1l0.1,0l0.1,0l0.1,0l0,0l0,0l0,0.1l0.2,0.1l0.2,0.2l0.1,0.1l0.1-0.2H69l0.1,0.2v0.1H69l0.1,0.2l0.1,0.1
		l0.2,0.2l0,0l0,0l0,0.1l0.1,0.1l0.1,0.4l0.1,0.1l0.1-0.2l0.2,0l0.2,0.1l0.2,0v0.1l-0.3-0.1l-0.1,0L69.7,54l0,0.2l0,0.2l0.1,0.2
		l0.1,0.2l0-0.1l0,0l0.1,0.1l-0.1,0.1L69.8,55l-0.1,0.1l0,0.2l0,0.1l0,0.1l0.1,0l0,0.1l0,0.1l0,0.3l0,0.1l0.1,0.1l0.1,0.1l0,0
		l0.1-0.2l0.1-0.1h0.2l0.1,0.1v0.1l-0.2-0.1l-0.1,0.1l0,0.2L70,57l0,0.1l0.1,0l0,0.1l0,0.1l0,0.1l-0.1-0.1L70,57.4L70,57.9l-0.1,0.1
		l-0.1,0.1l-0.1,0.1v0.1l0.2,0l0.1,0.2l0,0.3l0,0.3l0.1,0.3l0.3,0.3l0.1,0.3l0,0.1l0.1,0.1l0.3,0.1l0,0l0,0.1l0,0.1l0,0.1l0,0l0,0v0
		l0.3,0l0.2,0.1l0.1,0.2l-0.3-0.1l-0.8,0.2l-0.6-0.1l-0.1,0l-0.4,0.2l-0.6,0.1l-0.6,0L68,60.8l-0.2-0.2l0-0.3l0.2-0.3L67.9,60l0-0.1
		l0-0.1l0-0.1L67.1,60l0,0.1h-0.3l-0.1,0l0,0.1v0.1l0,0l-0.1,0l-0.1,0.1l-0.1,0.1l0,0.1l0.1,0.1l0.1,0.3l0.1,0.1l0.1,0l0.1,0
		l0.1,0.1l0.1,0.1L67,61.3l0,0l0-0.1h-0.1l0,0.2l0.1,0.2l0,0.1l0.2,0.1L66.9,62l-0.1,0.1l0-0.3l0-0.2l-0.2-0.3l0,0l0-0.1l-0.1,0
		l-0.1-0.1l0-0.1l0-0.1l-0.2-0.3l0-0.1l-0.4,0l-0.3,0.1l0.1,0.2l0,0.1l0.1,0.1l-0.1-0.1l-0.1,0L65.5,61l-0.1,0.1l0.1,0.1l0,0v0.1
		l-0.1,0.1l-0.1-0.1l0-0.1l0-0.2l0,0.1l0,0.1l-0.1,0.1l-0.1,0l0-0.1l0-0.1L65,61l-0.1,0l0-0.1l0-0.3l0-0.1l-0.2,0.1l-0.2,0.2
		l-0.1,0.1l-0.1-0.1l0.2-0.2l0-0.1l0-0.1l0-0.1l0.1,0v-0.1l-0.1,0l-0.1,0l-0.1-0.1l0-0.1l-0.1,0.2L64,60.4l-0.2,0.2l-0.2,0.1
		l-0.1-0.2l-0.2,0L63,60.5l0.1,0.1l0.1,0v0.1l-0.1,0.1l-0.5,0.3l-0.1,0l-0.1,0.1l-0.1,0.1l-0.2,0.3L62,61.7l-0.1,0.1l-0.3,0l0,0.1
		l0,0.2l0,0.1l-0.1-0.1L61.4,62l-0.1-0.1l-0.1,0l-0.1,0l0.1-0.1l0-0.1l0-0.1l0-0.1l-0.4-0.2l-0.2-0.1l-0.1,0l0,0l0-0.1l0-0.1l0-0.1
		l0-0.1l0-0.1l-0.1-0.3L59.9,60l0-0.1l-0.1-0.1l-0.1-0.1l-0.1-0.1v-0.1l0,0l0.1-0.1l0-0.1v-0.1l0-0.1l-0.2-0.1l-0.4,0L58.9,59v-0.1
		h-0.1v-0.1l0.1-0.1l0.1,0l0.1,0v-0.1l0,0h0l0,0l0.1-0.1L59,58.5l-0.1,0l-0.1,0l-0.1,0.1l-0.1,0l-0.1,0.2l-0.3,0.5h-0.1v-0.1
		l0.2-0.2l0-0.1l0.1-0.3l0.1-0.1l-0.1-0.1v-0.1l0.1-0.1l0-0.1L58.4,58l-0.1-0.1l-0.1,0l-0.1,0.2l-0.1,0l-0.1,0.1l-0.2,0.2l-0.2,0.3
		l-0.1,0.1l0,0.1l0-0.1l0,0l0-0.1l0.1-0.1l0.1-0.2l0-0.2l0-0.2l-0.1,0l-0.2,0.3l-0.1,0H57l-0.1,0.1l-0.6,0.2l-0.1,0l-0.1,0.1l-0.1,0
		l-0.1,0l-0.2,0l0-0.1l0,0l0,0l0,0l-0.1,0l-0.3-0.2l-0.2,0l-0.1-0.1h0l0,0.1L55,58.7l-0.2,0.1l-0.1,0.1l0,0.2l0.3,0.3l0.1,0.1
		l-0.4,0.1l0,0.1l0,0.2l0.1,0.3l-0.1,0.1l-0.2,0l-0.2-0.1l0-0.2L54,60l-0.1,0l-0.1,0l-0.2-0.2l-0.1,0l-0.4,0l-0.1,0l-0.1-0.1l0,0.1
		l0,0.1l0,0.1l0,0.1l-0.1-0.1l-0.1,0.1l0,0.2l0,0.2l-0.1-0.1l0,0l0-0.1h0l0,0.2l0,0.1l0,0.1l-0.1,0.1l0.1,0.1l-0.1,0.1l-0.1-0.1
		l-0.2-0.1l-0.1-0.1v-0.1l0,0l0.1-0.1l-0.2,0L52,60.2l-0.2,0.2l0-0.1l0-0.1l0-0.1l-0.1,0V60h0.1v-0.1l-0.1,0l0-0.1l0-0.1l0-0.1l0,0
		l-0.3,0.1l-0.2,0.1l-0.1,0l-0.1,0l0,0.1l0,0.1l0,0.1L51,60.1h0l0-0.1l0-0.1h0l0,0.1L50.7,60l-0.2,0l-0.2,0l-0.1,0.1L50,60.1
		l-0.1,0.1l0,0.1l0.1,0v0.1h-0.1l-0.2-0.1l-0.1,0l-0.1,0l-0.2,0.1l-0.2,0l0.1-0.3l-0.1-0.2l-0.2,0l-0.2,0.1l-0.2,0.1l-0.2,0v0.1l0,0
		l0.1,0.1l-0.2,0L48,60.7l-0.2,0h-0.6v0.1l0.1,0l0,0l0,0l0,0l0.2,0.1l-0.1,0L47,61l-0.1,0.1l0.1,0.2l0.2,0.2l-0.1,0l-0.3-0.1l-0.1,0
		l-0.2,0l-0.1,0l-0.1,0.1l0.1,0.1l-0.1,0L46,61.5l-0.1,0.2L45.7,62l-0.1,0.3l0.2,0.1v0.1l-0.1,0l-0.1,0.2l0,0.2l0,0.2l0.1,0.3l0,0.1
		l-0.1,0l0,0.2l0.1,0.1l0.1,0l0.4,0l0.1,0l0-0.1l0-0.1l0,0l0.1,0l0.3,0.1l0.1,0l0.1,0l0.2-0.1l0.4-0.1l0.5-0.3l0.2-0.1l0.5-0.1
		l0.2-0.1l0.2-0.1l0.1,0l-0.7,0.4l-0.1,0.1L48,64.1v0.1l0.1,0l0.1,0l0.1,0l0.1-0.1l0.1,0.1l0,0l0,0l0,0l0.2,0l0.2-0.2l0.1,0.1l0-0.1
		l0-0.1l0-0.1h0.1v0.1H49V64l0.1,0l0.2-0.1h0.1L49.3,64L49.2,64l0,0l0,0l-0.1,0l0,0L49,64.3l0.3,0l0,0l0,0.1l0.1,0l0.1,0l0.1-0.1
		l0,0.1l0.1,0l0.2,0v0.1l-0.6,0.1l-0.2-0.1l0.1,0l0,0l0,0l-0.5,0l-0.4,0.1l-0.1,0l-0.1,0l-0.1,0l-0.1-0.1l-0.1,0l-0.7,0l-0.2-0.1
		l0.1-0.4L47.3,64l-0.1,0.1l-0.1,0.4l0,0l0,0.1l0,0.1l-0.1,0l-0.1,0l-0.1,0l-0.1,0l-0.1,0l0,0.1l0,0.1l0.5,0l0.1,0l0.1,0.1l0,0
		l-0.1,0.1l0,0.1l0,0.1l0,0.1l0.1,0.1l0,0.1l-0.1,0.2l0.2-0.1l0.1-0.2l0.1-0.3l0.1-0.2l0.2-0.1l0.4,0.3l0.2-0.1l0,0.1l0,0.1l0,0.1
		l0.1,0l0.3,0.1l0.1,0.1l0,0.3l0,0.1l0.1,0.1l0,0.1l-0.1,0.3l0,0.1l-0.1,0l-0.4-0.1l-2.5,0.5l0,0l-0.1-0.1l0,0l0,0l0,0l0,0l0,0.1
		l0,0.1l0,0.1l-0.1,0l0.6,0.2l0.3,0l0.1,0l0.2,0.2l0.1-0.1l0.1-0.1l0.1-0.1l0.1,0l0.7,0.5l0.4,0.5l0.1,0.2l0.1,0.3l0.1,0.3l0,0.2
		l0,0.1l-0.1,0h-0.1l0,0l0,0.1l0,0.2l0,0.1l1.1,0.1l0.2-0.1l0.1-0.1l0.2-0.2v-0.1h-0.2v-0.1l0,0l0,0L50,69.5l0-0.1l0.1,0l0.1,0.2
		l0.1-0.1l0.1-0.1l0.1,0l0.1,0v-0.1l-0.1-0.1l-0.1-0.2l0-0.2l0.1-0.1l0,0.2l0.1,0.2l0.1,0.1l0.1,0.1l0.1,0l0.1,0l0.2,0.2l0-0.1
		l0.1,0l0.1,0l0.1,0l0,0.1l0,0.1l-0.1,0l-0.1,0l0.2,0l0.2-0.2l0.1-0.2l-0.1-0.2l0.2,0l0.2,0.1l0.1,0.2l0,0.1l0.1,0.1l0,0l0.1,0
		l0,0.1l0,0.1l0.1,0l0.1,0.1l0.1,0.3l0,0l0.1,0l0.2,0l0.2,0l0.1,0.1l0.4-0.2l0.1,0l0.1,0.2l0.1,0.1l0.3,0l0,0l0.1,0.1l0.1,0l0.1,0
		l0.2,0l0.3,0.1l0.1,0l0.1-0.1l0,0.1l0,0l0.1,0.1l0.1,0.2l0.2,0.3l0,0.1l0.1,0l0.6-0.2v-0.1l0-0.1l0,0l-0.1,0l0.2,0l0.2-0.1l0.2-0.2
		l0.2-0.2v0.1l-0.1,0.1l-0.1,0.1l-0.1,0.3l0,0l-0.1,0l0,0v0.1l0,0.1l0,0l-0.1,0v0.1l0.3,0l0.1,0l0.1,0.1v0.1l-0.3-0.1l-0.1,0
		l-0.1,0.1l0.2,0l0.3,0.1l0.2,0.1l0.2,0.3l0.1,0l0.1,0l0-0.1l0-0.1l0.1-0.1l-0.1-0.1l0,0l0.1,0l0.1-0.1l0.1,0l0.1,0.1l0,0l0,0l0,0
		l0,0l0-0.2l0-0.1l-0.1-0.1l-0.1,0l0.1,0l0.1,0.1l0.1,0l0.1-0.1h0l0,0.1l0,0.2l0,0l0.1,0l0,0v0.1l0,0.1l0,0.1l0,0.1l-0.6,0.3
		l-0.1,0.3l0,0.1l0,0.1l0.1,0l0.1,0l0.1,0l0.1,0.1l0.1,0.1l0.1,0.2l0,0.3l0,0.2L58,73.3l0,0.1l0,0.1l0.1,0.3h0l0-0.1l0.2,0l0.1,0
		l-0.2-0.2l-0.1-0.3l0-0.3l0.1-0.4l0,0l0,0l0,0l0.1-0.1l0.1,0l0.1,0.1l0.1,0.1l0,0l0,0l0.1,0.1l0.1,0l0.2-0.1l0,0.1l0,0l0.1,0l0-0.1
		l0-0.1l0.1,0l0,0.2l0,0.1l0.1,0l0-0.1l0-0.1l0.1,0.1l0.1,0.1l0.1,0.1l0.1,0l0.1,0.1l0,0l0,0l0,0l0-0.1l-0.1-0.1l-0.1-0.1l-0.1-0.1
		l0-0.1v-0.3l0-0.1l0-0.1l0-0.1h0.1l0,0.1l0.1,0.1l0.1,0.1l0.1,0l-0.1,0.1l0,0.1l0,0.1l0,0.1h0.1l0,0l0,0l0.1,0v0.1h-0.1v0.1
		l0.3-0.1l0.1-0.1l0.1-0.1l0.1-0.1l0.4,0l0.2-0.1L60.7,72l0.2,0l0.1,0.1l0.1,0.1L61,72.2l-0.2,0l0.4,0.2l0,0.1l0.1,0l0,0l0-0.1
		l-0.1-0.1l0.1,0l0-0.1l0-0.1l-0.1-0.1V72l0.2,0.2l0,0.2l-0.3,0.4l0.1,0.1L61.1,73l-0.2,0L60.7,73l-0.1-0.1l0,0.2l0,0.1L60.4,73
		l-0.1,0l0,0l0,0.1h-0.1l-0.1-0.2h-0.2l-0.1,0.1l0.1,0.1l0,0.1l0,0l0,0l0.1,0l0.1,0l0,0.1l0,0l0.1,0.2l0,0l0.1,0.1l0.1,0.1l0.1,0
		l0.1,0l0.4-0.1l0.1,0l0.3,0.1l0.1-0.1l0-0.3l0.1,0.1l0.1,0l0.2,0l0-0.1l0,0l0,0l-0.1,0l0.1,0l0.1,0l0.1,0l0.1-0.1l-0.1,0.2
		l-0.1,0.1L62,73.4l-0.1,0l0.1,0.1l0,0l0,0l0.1,0h0.3l0.2-0.1l0.1,0l0.1,0l0.6,0.2l0.1,0l0.2,0l0.1,0l-0.2,0l-0.3,0.1l-0.5,0
		l-0.1,0.1l0.1,0.1L63,74.1l0.1,0.1l0.2,0l0.1,0.1l-0.1,0.2l0.1,0l0.2,0l0.1,0l0,0.1l-0.3,0.1l-0.1,0.1l-0.1-0.1l0,0l0,0l0-0.1
		l-0.1,0l-0.1,0l-0.1,0l-0.6,0.4l0.3,0.2l0.1,0.2l0,0.3H63l0-0.1l0,0l0-0.1l0,0l0,0l0.1,0l0.1,0.2l0.2,0.1l0.1,0.2l-0.1,0.2l-0.2,0
		l-0.3-0.2l-0.2,0v0.1l0.7,0.4l0.2,0l0,0l0-0.1l0-0.1l0.1-0.1l0.1,0l0.1,0l0.1,0l0.1,0.1l0.2,0.2l0.1,0.1l0.1,0.1l0.2,0l0.1-0.1
		l0.2-0.2l0.2-0.1l0.1-0.1l0-0.1l0-0.1l0.1-0.1l0.2-0.1l1.1-0.1l0.3,0.1l0.1,0.1l0.1,0l0.2,0l0.2,0.1l0.3,0.2l0.3,0.2l0.2,0.3
		l0.1,0.1l0.3,0.1l0.2,0.1l-0.4,0l-0.2-0.1L68,76.6L68,76.5l-0.3-0.1l-0.3-0.2v-0.1h0.2l-0.1-0.1l-0.1,0l-0.1,0h-0.1l0.1,0.1l-0.1,0
		L66.7,76l-0.1-0.1l-0.1-0.1l-0.1,0l-0.1,0l-0.1,0L65.7,76l-0.2,0.1l-0.1,0.1l0,0.1l0,0.1l0,0.1l0,0.2l0.1,0.2l0,0.2l0,0.2l0,0.1
		l-0.1,0l-0.2,0l-0.1,0.1L65,77.5l-0.1,0.1l0.3,0.1l0.9,0.2l0.5,0.3l0.1,0.1l0.1,0.1l0.1,0.2l0,0.2l-0.1,0.1l-0.1,0.2l-0.1,0.4
		l-0.1,0.2l-0.3,0.2L65.9,80l0,0.2l-0.2,0.1l-0.1,0.1l0,0.2l0,0.2l0,0.2l0.1,0.2l0.1,0.1l0.2,0.1l0.2,0.2l0.4,0.4l0.2,0.5l0.1,0.1
		l0.1,0l0.1,0l0.1,0.1l0.1,0.3l0.1,0.1l0.1,0.1l0.1,0.1l0,0.1l0,0.1l0.1,0.1l0.1,0.1l0,0.2l0.2,0.8l0.1,0.1l0.1,0l0,0l0-0.1l0-0.2
		l0-0.1l0.1,0.1l0.1,0.2l0.1,0.1l0.1,0.1l0.2,0.1l0.3,0.2l0.4,0.1l0.1,0.1l-0.1,0.1l0.2,0.1l0.5,0l0.2,0l0.2,0.1l0.1,0.2l0,0.3
		l0.1,0.2l0.2,0l0.4-0.1l0.1,0l0.2,0.2l0.2,0.1l0.1,0l0.1,0l0.1,0.2l0.1,0.2l0.2,0.1l0-0.3l0.3-0.2l0.3,0l0.2,0.2l0,0.2l0,0.1l0,0.1
		l-0.1,0.1L73,87.7l-0.1,0.1l0,0.2l-0.1,0l-0.1,0.1l0,0.1l0,0.1l0.1,0.1l0.1,0l0.1,0l0.1,0l0.1,0l0,0l0,0l0,0.1l0,0.1l0,0l0.1,0
		l0.2,0.1l-0.1,0.1v0l0,0l0,0.1l0,0l0.1,0l0,0l0,0l0,0.1l0.1,0.1l0,0.1l0,0.1l0.1,0.1l0.1,0l0,0.1l0,0v0.1l-0.1,0.2l-0.1,0.1l-0.1,0
		L73.5,90l0.1,0.4l0.1,0.1l0.1,0.1l0,0l-0.1,0.1l0,0l0,0.1l0.1,0.1l0,0.1l0,0.1l0,0.1l0,0l-0.1,0l-0.1,0l-0.1,0.1l-0.1,0.1l0,0
		l0,0.1l-0.1,0.1l-0.1,0l0.1,0.1l0.1,0.2l0,0.2l0,0.1l0,0.1l0.2,0.2l0.7,0.6l0.2,0.2l-0.5-0.2L73.8,93l-0.1-0.1l-0.5-0.6l-0.1,0
		l-0.5,0.2l0,0.1l-0.1,0.8l0.1,0.1l0.3-0.1l0.1,0.1l0.1,0.1l0.1,0.1l0.1,0.1l0.1,0l0.2,0.1l0.4,0.4l0.3,0.1l0,0l0,0.2l0,0l1.1,0.8
		l0.4,0.4l0.2,0.3l0.2,0.3l0.3,0.7l0.1,0.4l0.3,2.1L77,100l0.1,0.3l0.3,0.2l0.3,0.1l0.3,0.2l0.2,0.3l-0.2-0.1l-0.2-0.1l-0.2,0
		l-0.2,0l0.2,0.1l0.2,0.2l0.1,0.2l-0.1,0.3l0,0.1l0,0.3l0,0.1l-0.1-0.1l-0.1-0.2l0-0.2l0-0.2l0-0.2l0-0.1l-0.1-0.1l-0.1-0.1
		l-0.2-0.1l-0.3-0.3l-0.3-0.3l-0.3-0.6l0-0.1l-0.1-1l-0.1-0.4l0-0.2l-0.1-0.3l-0.2-0.3l-0.9-1l-0.1,0L74.5,96L74,95.6L74,95.5
		l-0.1-0.1l0-0.1l0-0.1l0-0.1l0,0l0-0.1l0-0.1l0,0l-0.1,0l-0.1,0l-0.1,0.2l-0.3,0.5l0,0.2l-0.1,2.3l-0.3,1.7l-0.5,5.3l0.1-0.1
		l0.1-0.3l0.1-0.5l0.3-0.5l0-0.1l0,0l0,0l0,0l0,0l0.1,0l0,0l0,0l0,0l0.1,0l0.6,0.5l0.1,0.2h-0.1l0.2,0.2l0,0.2l-0.2,0.1l-0.3,0
		l-0.5-0.1l-0.2,0l-0.2,0.2l-0.1,0.5l0,0.1l0,0.1l-0.2,0.3l0,0.1l0.1,0.3l0,0.2l-0.1,0.7l-0.2,1.5l-0.5,3l-0.3,1.4l-0.2,0.6
		l-0.3,1.7l-0.2,0.6l-0.1,0.3l-0.1,0.4l-0.1,0.1l-0.4,0.3l-0.1,0.1l0,0.1l-0.2,0.3l-0.1,0.1l-0.1,0.1l-0.2,0.1l-0.2,0.1l-0.7,0.1
		l-0.1,0.1l-0.1,0.1l-0.1-0.1l0,0.3l0,0.2l0,0.1l0.2,0.1l0.1,0.1l0,0.2l0,0.1l0.1,0l0.1,0l0.2,0l0.2-0.1l0.1,0l0.1,0.1l0.1,0.1
		l0,0.1l0,0.1l0,0.1l0.1,0.2l0,0l0.1,0l0.1,0l0.1,0l0.1,0l0-0.1l0.1-0.2l0.1-0.1l0.2,0l0.2,0.1l0.3,0.2l0.1,0l0.1,0H71l0.2,0.2
		l0,0.4l-0.1,0.4l-0.1,0.3l-0.1,0.1l-0.3,0.3l-0.1,0.1l0.1,0.2l0.1,0.2l0.2,0.1l0.2,0l0.2,0l0.1,0l0.1-0.1l0-0.3l0.1-0.2l0.1-0.1
		L72,121l0.2,0l-0.2,0.1l-0.1,0.1l0,0.1l0.1,0.1l0.1,0.1l0.4,0.1l0.3,0.1l0.2,0.2l0.3,0l0.1,0l0.1,0.1l0.1,0l0.3,0l0.1,0l0.1,0.1
		l0.3,0.2l0.3,0.1l0.6,0.1l0.6-0.1l0.2,0.1l0.1,0.4l0,0.1l0,0l0,0.1l0,0.1l0.1,0.1l0.1,0l0.1,0l0.1,0l0.3,0.2l0.1,0.1l0.3,0.4l0,0
		l0,0l0,0l0,0h0.1l0,0l0,0.1l0,0.1l0,0.1l0.1,0l0.1,0l0.1-0.1l0.1,0l0-0.2l0.2,0l0.4,0.2l0.2,0l0.2-0.1l0.4-0.3l0.1,0.1l0.1,0
		l0.1-0.1l0-0.1l0.1,0.1l0.5,0.3l0.1,0.2l0.2,0l0.2-0.1l0.1-0.1l0,0.2l0,0.2l0.1,0.2l0.1,0.1l0,0.1l0,0.1l0,0.1l0.1,0l0.1,0l0.1,0
		l0,0.1l0,0l0.3,0.1l0.3,0l0.6-0.2l0.5-0.1l0.1-0.1l0.1,0l0.4,0.1l0.1,0.1l0.2,0.3l0.1,0.1l0.1,0l0.2-0.3l0.1-0.1l0.1-0.1l0.2,0.2
		l0,0l0,0l0,0l0,0l0.2,0l0.1,0l0.3-0.1l0.1,0.1l1,0l0.3,0l0.1,0l0.1-0.1l0-0.2L87,125l-0.1-0.1l-0.1,0l0-0.1l0,0l0.1,0l-0.1-0.1
		l0.1-0.3l0-0.2l0-0.1l0.2-0.1l0.2,0l0.1,0l0.3,0.1l0.1,0l0.1,0l0.1,0l0.3,0.2l0.2,0.1l0.1,0.1l0.1,0.1l0.1,0l0.1,0l0.1-0.1l0.1,0
		l0.1,0l0.1,0.1l0.1,0l0.6,0l0.2,0.1l0.1,0.1l0.1,0.1l0.1,0.2l0.1,0.1l0.1,0.1l0.1,0l0.3-0.1l0.9,0l0.2,0l0,0.1l0,0l0.1,0l0.1,0
		l0.1,0.2l0.1,0.2l0.1,0.4l0.1,0.1l0.2-0.1l0.1-0.4l0.2,0l0.2-0.1l0.1,0l0.4,0.3l0.1,0l0.9,0.1l-0.1,0.2l0.1,0.1l0.2,0.1l0.1,0.1
		l-0.2,0l-0.1,0.1l-0.1,0.2l0,0.3l0,0l0,0l0,0l0,0l0.1,0.1l0.5,0.1l0.2,0.1l0.4,0.3l0.2,0l0.1,0l0.1,0.1l0.1,0.2l0.1,0.4l0.1,0.2
		l0.2,0.1l0.1,0.1l0.1,0l0.2,0l0.1,0l0.1-0.1l0.1-0.1l0.2-0.1l0-0.1l0.1-0.2l0-0.1l0.1-0.1l0.4,0l0.5-0.1l0.2,0l0.2,0.1l0.1,0.1
		l0.4,0.2l0.2,0.1l0.1,0l0.1,0.2l0.1,0.2l0.1,0.1l0.1,0l0.2,0.1l0.1,0l0.1,0l0.1,0l0.1-0.2l0.1-0.1l0.1,0l0.4,0.1l0.2,0l0.2,0l0,0
		l-0.1-0.1l-0.1-0.2l0.1-0.1l0.3-0.3l0.1-0.1l0.2,0l0.3,0l0.2,0l0.1-0.1l0.2-0.2l0.1-0.1l0.1,0l0.1,0l0.1,0l0.3-0.2l0.2,0.1l0.1-0.1
		l0.1,0l0.2,0l0.1,0l0,0.1l0.1,0.1l0.1,0.1l0.1,0.1l0.2,0.1l0.2,0l0.2,0l0.5-0.1l0-0.1l0-0.3l-0.2-0.3l-0.5-0.5l-0.1-0.2l-0.1-0.8
		l0-0.1l0-0.1l0,0l-0.1,0l0,0l-0.1-0.1l0-0.1l0-0.1l0.1-0.1l0.1,0.1l0,0l0-0.1l0.1-0.5l0-0.2l0-0.2l0-0.2l0-0.1l-0.1,0l-0.2-0.1
		l-0.1,0l-0.1,0l-0.1-0.1l0-0.1l-0.1-0.1l0.3-0.3l0.1,0l0-0.1l0-0.2l0-0.1l0.1,0l0.1,0.1l0.1,0l0.1-0.1l0-0.1l-0.2-0.2l-0.1-0.2
		l0-0.2l0.1-0.1l0.2,0l-0.1,0.2l0,0.1l0,0.1l0.1,0l0-0.1l0-0.1l0.1-0.1l0-0.1l0-0.1l0-0.3l0-0.1l0.1-0.2l0-0.1l-0.1-0.1l-0.1-0.1
		l-0.1-0.1l-0.1-0.3l0-0.1l0.1,0h0.2l0,0l-0.1,0.1l-0.1,0.1v0.1l0.1,0.1l0,0.1l0,0l0.1,0l0.2-0.3l0-0.1l0.1-0.1l0.2-0.2l0.1-0.1
		l0.1-0.2l0.1-0.1l0.1-0.2l1.1-0.8l0.3-0.1l0.2,0l0.3,0.2l0.2-0.1l0.6-0.8l0.2-0.2l0.9-0.5l1.5-1.3v-0.1l-0.3,0.1l-0.2,0.2l-0.4,0.4
		l-0.4,0.3l-0.2,0.1l-0.3,0v-0.1l0.6-0.3l0.1-0.1l0-0.2l0.1-0.1l0.5-0.4l0.2-0.1l0.5-0.1l0.3-0.2l0.2-0.1l0.4-0.1l-0.1,0.2L113,116
		l-0.1,0.1l-0.2,0l-0.4,0l-0.2,0.1l-0.1,0.1l0.3-0.1l0.5,0l0.4,0l0.2,0.2l0,0l0.2,0.6l0,0.1l0.1,0.1l0.2,0.1l0.2,0l2.4,0.1l0.3,0.1
		l0.2,0.2l0,0.2l-0.1,0.2l-0.1,0.2l0,0.1l0.2,0.1l0.3,0.1l1.1,0.1l0.3-0.1l-0.2-0.2l-0.2-0.2l-0.2-0.2l-0.1-0.4v-0.8l0-0.1l-0.2-0.4
		v-0.1l0.1,0.1l0.1,0.2l0.1,0.2l0,0.2l0,0.2l0,0.6l0.1,0.3l0.3,0.2l0.3,0.2l0.3,0.1l-0.1-0.2l-0.1-0.1l0-0.1l0.1-0.1l0.1-0.1l0.2,0
		l0.1-0.1l0.2-0.1l0.4,0.2l0.1-0.1l0.2,0.1l0.2-0.1l0.1-0.2l-0.1-0.3l-0.1-0.1l-0.1-0.1l-0.1-0.1l0-0.2l0-0.1l0-0.1l0.1-0.1l0.1-0.1
		l0,0l0.1,0.1l0,0l0.2,0l0.1,0l0.2,0.1l0,0.1l0,0.1l0.1,0.2l0.2,0.2l0.2,0l0.2-0.1l0.2-0.1l0,0.2l-0.1,0.2l-0.2,0.2l-0.1,0.1
		l-0.2,0.1h-0.7l-0.2,0.1l-0.1,0.2l0,0.2l0.2,0.2l0.2,0.1l0.5,0l0.1,0l0.3,0l1-0.2l0.2,0.1v0.5l0,0.1l0.1,0.1l0.1,0l0,0l0,0.1l0,0.1
		l-0.1,0.2l-0.1,0.1l0,0.1l0.1,0.1l0.1,0l0.2,0l0.1,0.1l0.1,0l0.2,0l0.2,0l0.1,0.1l0,0l0.1,0l0.1-0.1l0.1-0.1l0.1,0l0.2,0.3l0.1,0.1
		l0.1,0l0,0l0,0l0,0l0,0l0,0l0-0.1l0,0l0.4,0l0.1,0.1l0,0.2l0.3,0.2l0.1,0l0.2,0l0.1,0l0,0.1l0.1,0l0.1,0l0.1,0l0,0L126,121
		l-0.1,0.1l0,0.1l0.1,0.1l0.4,0.2l0.2,0l0.1-0.1l0-0.1l0.1-0.1l0.1,0l0.2,0v-0.1l-0.1-0.1l-0.2-0.2l-0.1-0.1l0.2-0.1l0.1,0l0.1,0
		l0,0.1l0,0.1l0,0.1l0.2-0.1l0.2,0l0.2,0.1l0.1,0.1l0.1,0l0.6,0l0.1,0v0.1l0,0.2l0,0l-0.3,0v0.1l0.1,0l0.5,0l0.1,0v-0.1H129l-0.1,0
		l-0.1-0.1l0.1-0.2l0-0.2l0.1-0.1l0.2-0.1l0.1,0l0.5,0l0.1,0l0.1,0l0.1,0l0.1,0l0,0.1l0,0.1l0,0l0.3,0l0.1-0.1l-0.1-0.2l0-0.1l0-0.1
		l0-0.1l0.1-0.1l0.1-0.1l0.2,0l0.2-0.1l0.2-0.1l0.1,0l0.2,0l0.1,0l0.1-0.1l0.1-0.1l0.1-0.1l0.2,0l0.1,0.1l0,0.1l0,0.1l0,0l0.1,0
		l0.1-0.1l0.1,0l-0.1-0.1l0.3-0.3l0-0.1l0,0l0,0l0,0l0-0.1l0-0.1l0,0l0,0l0-0.1l0.1-0.2l0-0.1l-0.7,0l0,0l0-0.1l0.1-0.1l0.2-0.1
		l0.2,0l0.1-0.1l0-0.1l0.1-0.1l0.1-0.1l0.1,0l0.1-0.1l0.1-0.3l0.1-0.2l0.1-0.2l0.1-0.1l0.1,0.1l0.2,0.1l0.4,0l0,0l0-0.1l0,0l0,0.1
		l0,0l0,0l0.1,0l0,0l0,0l0-0.1l0,0h0.1l0,0l0,0l0.3-0.5l0,0l0,0l0-0.2l0,0l0.1-0.2l0.1-0.1l0.1-0.1l0.1-0.1l0.2,0.1l0.2-0.1l0.2-0.1
		l0.2-0.1l0,0l0,0.1l0,0.1l0.1,0l0,0l0,0l0-0.1l0-0.1l0-0.5l0-0.1l0.1,0l0.1-0.1l0.1-0.1l0.1,0l0.1,0l0.1,0l0.1,0l0.1-0.1l0.1-0.2
		l0.1-0.1l0.1,0l0.1,0l0.4,0l0,0.1l0,0l0.1,0l0-0.1l0-0.1l0.1-0.1l0.1,0l0-0.1l0.1-0.1l0.1-0.1l0.2,0.1l0.1-0.1l0.1,0l0.1,0l0.1,0
		l0,0l0.1,0l0,0l0-0.1l0,0l0,0l0,0h0l0.1-0.1l-0.2-0.5l0-0.3l0.1-0.2l0.3-0.4l0.2-0.2l0.4-0.3l0.2-0.2l0.1-0.1l0.1-0.2l0-0.1
		l0.1-0.1l0.1-0.1l0.1-0.1l0-0.2l-0.1-0.3l-0.2-0.2l-0.1-0.2l0.1-0.3l-0.2,0l-0.3,0.2l-0.2,0l-1.3,0.4l-0.3,0l-0.1,0l-0.1-0.1l0-0.1
		l-0.1-0.1l-0.1,0l-0.2,0l-0.1-0.1l-0.8-0.5l-0.3-0.1l-0.4-0.2l-0.1,0l-0.1,0l-0.1,0l-0.1,0l-0.1,0l-0.1-0.1l0-0.1l0-0.1l0-0.1
		l-0.1-0.1l-0.1-0.1l-0.1-0.1l0-0.1l-0.1-0.2l-0.1-0.1l-0.2-0.2l0,0l0-0.1l0-0.1l0-0.1l0.1-0.3l0.1-0.1l0.3-0.1l-0.2-0.2l-0.2-0.2
		l-0.2-0.3l0-0.3l0.1-0.1l0.4-0.3l0.3-0.5l0.1-0.1l-0.1-0.2l0.1-0.2l0.1-0.2l0.2-0.1l0.1,0l0.3,0.1l0.1,0l0-0.1l-0.2-0.4l0-0.1
		l0-0.3l-0.1-0.2l0,0l0-0.2l0,0l0-0.1l0,0l0,0l0-0.1l0-0.1l-0.1-0.2l-0.4-0.2l-0.1,0l-0.4,0.1l-0.1,0l-0.5-0.3l-0.3-0.2l-0.1-0.2
		l0-0.6l0-0.3l-0.2-0.1l-0.3,0l-0.1-0.1l-0.1-0.2l0-0.1l0-0.1l0-0.1l-0.1-0.1l-0.1-0.2l0.1-0.1l0.1-0.1l0.3-0.2l0.1,0l0.1,0l0.1,0
		l0.1,0l0.1-0.1l0.1,0l0.3,0l0.3,0.2l0.3,0.1l0.2-0.1l0-0.1l0,0l0-0.1l0-0.1l0.1,0l0.2,0l0.1,0l0.1-0.1l0.1-0.2l0.1-0.1l0.3-0.1
		l0.3-0.1l0.1,0l0.1,0.1l0,0l0.1-0.1l0.1-0.3l0.2-0.2v-0.2l-0.1-0.2l0-0.3l0-0.1l0.2-0.3l0.2-0.3l0.1-0.2l0-0.1l-0.1,0l-0.3-0.1
		l-0.1-0.1l-0.1-0.1l-0.1-0.1l-0.1-0.1l-0.3-0.2l-0.3-0.2l-0.1-0.2l0-0.4l0-0.1l-0.1-0.1l0-0.1l0-0.1l0.1-0.2l0-0.1l0-0.2l-0.1-0.1
		l-0.2-0.1l-0.1-0.1l-0.2-0.2l-0.1,0l-0.2,0l-0.2-0.2l-0.2-0.2l-0.1-0.5l0-0.2l0-0.2l0-0.2l0.1-0.2l0.1-0.1l0.2,0v0l0,0l0-0.1l0,0
		l0,0l0.1,0l0,0l0.1,0l0.2,0l0.2,0l0.2-0.1l0.2-0.1l0.1-0.2l0-0.1l0.1-0.1l0.1-0.1l0.1-0.1l-0.1-0.1l0-0.1l-0.1-0.2l-0.1-0.2l0-0.1
		l0,0l-0.5-0.6l-0.2-0.1l-0.1,0l-0.1,0.1l-0.1,0l-0.1,0l-0.1-0.1l0,0l0,0l0-0.1l0,0l0-0.1l0-0.1l0,0l0-0.1l0.1-0.1l0.1-0.1l0-0.1
		l-0.1-0.1l-0.6-0.1l-0.1-0.2l0.1-0.4l0.1-0.4l0.3-0.5l-0.2-0.3l-0.3-0.3l-0.1-0.3l0-0.1l0.2-0.2l0.1-0.2l0-0.2l-0.1-0.1l-0.1-0.1
		l-1.1-0.3l-0.5,0l-0.5,0.1l-0.7,0.4l-0.2,0.1l-0.3,0l-0.2,0.1l-0.2,0.2l-0.2,0.3l-0.2,0.2l0,0.1l0,0.1l0.1,0.2l0,0l0.1,0.2l0,0
		l0.1,0l0.1-0.1l0.1,0l0,0.3l-0.2,0.2l-0.5,0.3l-0.4,0.5l-0.2,0.1l-0.3-0.1l-0.3,0l-0.3,0.1l-0.2,0.1l0.1-0.2l0.1-0.1l0-0.1
		l-0.1-0.2l-0.1-0.2l0-0.1l0.2-0.1l0.5-0.2l0,0h0l0.1,0l0,0l0,0l0.2-0.1l0-0.1l0-0.1l0-0.1l0.1-0.3l0-0.1l0.2-0.6l0-0.1l-0.1-0.2
		l-0.1-0.1l-0.4-0.3l0.1-0.1l0-0.1l0-0.1v-0.1l0,0l0,0l0-0.1v-0.1l0-0.1l0.1-0.1l0.3-0.5l0.3-0.3l-0.2-0.2l0-0.1l0.1-0.1l1-0.9
		l0.5-0.3l0.1-0.1l0.2-0.2l0.3-0.1l0.1-0.1l0.1-0.1l0-0.1l0-0.2l-0.1-0.1l0-0.1l0-0.1l0-0.1L131,81l0.1-0.1l0-0.1l0-0.2l0-0.1
		l-0.1-0.2l0-0.1l0.1-0.4l0.4-0.2l0.8-0.3l0.5-0.4l0.2-0.2l-0.1-0.2l0.1-0.2l0.1-0.1l0.2-0.1l0-0.1l0,0l0.1-0.1l0-0.2l0.2-0.1
		l0.5-0.5l0.1-0.2l0.2-0.2l0.5-0.4l0-0.3l0-0.2l0.1-0.1l0.1,0l0,0l0.1-0.2l0.1,0l0.1,0l0.1,0l0.1-0.1l-0.1-0.1l-0.1-0.1l-0.1-0.1
		l-0.1,0.1l-0.9,0.1l0-0.1l0.1-0.2l0.1-0.1l0.2-0.1l0-0.2l0.2,0l0.1-0.1l0.1-0.1l0.1-0.1l0-0.1l-0.1-0.2l0-0.1l0.1,0l0.1-0.1l0.1,0
		l0.1,0l0.1,0.1l0.2,0l0.4-0.1l0.2,0l0.1,0.1l0.1,0l0.2,0l-0.1,0.3l0,0.2l0.2,0.1l0.2,0.1l0,0l0,0l0,0l0.1,0l0.1,0l0.3-0.1l0.2,0
		l0.5,0l0.2-0.1l0.2-0.2l0-0.1l0-0.1l0-0.1l0,0l0-0.1v-0.1l0.1,0l0.1,0l0.1,0.1l0.1,0l0.1-0.1l0,0l0,0v0l0,0l-0.1-0.1l0,0l0,0l0,0
		l0.1,0l0.1,0l0-0.1l0-0.1l0,0l-0.1-0.1l0,0l0.3-0.3l0.2-0.1l0.3-0.1l0,0l0,0l0-0.1l0,0l0-0.1l0-0.1l0,0l0-0.1l-0.2-0.3l-0.1-0.1
		l-0.1-0.1l0-0.1l0-0.1l0-0.2l0-0.1l0.1-0.1l0-0.1l0-0.2l-0.1-0.4l0-0.2l0.1-0.4l0-0.1l0.1-0.1l0-0.1l0-0.2l0-0.1l0,0l0,0l0,0l0-0.1
		l0.1,0l0-0.1l0-0.1l0-0.1l0-0.2l0-0.2l0.2-0.2l0.1-0.1l0-0.4l-0.3-0.6l0-0.5l0-0.2l0.1-0.2l0.1-0.1l0.1-0.1l0-0.1l0-0.2l0.1-0.1
		l0.5-0.7l0.1-0.2l0-0.2l0-0.2l0.1-0.2l0.1-0.1l0.1-0.1l0.1-0.2l0-0.2l0-0.2l0-0.1l0-0.1l0-0.1L141,63l0-0.1l0.1-0.1l0.1-0.1l0-0.1
		l0-0.2l0-0.1l0.1-0.1l0.2-0.2v-0.1l-0.1-0.2v-0.4l0.1-0.4l0.3-0.5l0.1-0.1l0.1,0l0.1-0.1l0.2-0.2l0.1-0.1l0.1-0.1l0.1-0.1l0-0.1
		l0-0.2l0-0.1l0.1,0l0.2,0l0.1,0l0,0l0-0.1l0-0.1l0-0.1l0,0l0,0l0.1,0l0.3-0.1l0,0l0.1-0.2l0.3-1l0.2-0.4l0.2-0.2l-0.1-0.1
		L143.6,56.7z M97.2,127.9L97.2,127.9L97.2,127.9l-0.3,0l-0.1-0.1l0-0.1l0.1-0.2l0.1,0l0.1,0.1l0.1,0.2L97.2,127.9L97.2,127.9z"/>
	<g>
		<g>
			<path class="st1" d="M158.4,29.8c-15.1,0.2-36.1,14.9-42,30.1"/>
			<g>
				<path class="st2" d="M116.4,59.8c0.2-0.1,0.5-0.1,0.8,0c-0.4,0.1-0.7,0.3-1,0.6c0-0.4-0.2-0.7-0.4-1.1
					C116,59.5,116.3,59.6,116.4,59.8z"/>
			</g>
		</g>
	</g>
	<g>
		<path class="st3" d="M170.3,28.2h-0.8l-1.5-2.3h-1.1v2.3h-0.7v-5.8h2.3c0.5,0,1,0.2,1.3,0.5c0.3,0.3,0.5,0.7,0.5,1.3
			c0,0.5-0.1,0.9-0.4,1.2c-0.3,0.3-0.6,0.5-1.1,0.5L170.3,28.2z M168.4,25.3c0.3,0,0.6-0.1,0.8-0.3c0.2-0.2,0.3-0.5,0.3-0.8
			s-0.1-0.6-0.3-0.8c-0.2-0.2-0.5-0.3-0.8-0.3h-1.5v2.2H168.4z"/>
		<path class="st3" d="M174.8,28.2h-0.6v-0.6c-0.2,0.2-0.4,0.4-0.7,0.5c-0.3,0.1-0.5,0.2-0.8,0.2c-0.9,0-1.3-0.4-1.3-1.3V24h0.6v2.7
			c0,0.3,0.1,0.6,0.2,0.7c0.2,0.1,0.4,0.2,0.7,0.2c0.2,0,0.5-0.1,0.7-0.2c0.2-0.1,0.4-0.3,0.5-0.4V24h0.6V28.2z"/>
		<path class="st3" d="M177.5,28.3c-0.7,0-1.3-0.2-1.7-0.7l0.3-0.5c0.1,0.2,0.3,0.3,0.6,0.4c0.3,0.1,0.5,0.2,0.8,0.2
			c0.3,0,0.6-0.1,0.7-0.2c0.2-0.1,0.3-0.3,0.3-0.5c0-0.2-0.1-0.3-0.3-0.4c-0.2-0.1-0.4-0.2-0.6-0.2c-0.2-0.1-0.5-0.1-0.8-0.2
			c-0.3-0.1-0.5-0.2-0.6-0.4c-0.2-0.2-0.3-0.4-0.3-0.7c0-0.3,0.1-0.6,0.4-0.9c0.3-0.2,0.7-0.3,1.1-0.3c0.6,0,1.1,0.2,1.5,0.6
			l-0.3,0.4c-0.3-0.4-0.7-0.5-1.2-0.5c-0.3,0-0.5,0.1-0.7,0.2c-0.2,0.1-0.3,0.3-0.3,0.5c0,0.2,0.1,0.3,0.3,0.4
			c0.2,0.1,0.4,0.2,0.6,0.2c0.3,0.1,0.5,0.1,0.8,0.2c0.3,0.1,0.5,0.2,0.6,0.4c0.2,0.2,0.3,0.4,0.3,0.7c0,0.4-0.1,0.7-0.4,0.9
			C178.4,28.2,178,28.3,177.5,28.3z"/>
		<path class="st3" d="M181.5,28.3c-0.7,0-1.3-0.2-1.7-0.7l0.3-0.5c0.1,0.2,0.3,0.3,0.6,0.4c0.2,0.1,0.5,0.2,0.8,0.2
			c0.3,0,0.6-0.1,0.7-0.2c0.2-0.1,0.3-0.3,0.3-0.5c0-0.2-0.1-0.3-0.3-0.4c-0.2-0.1-0.4-0.2-0.6-0.2c-0.2-0.1-0.5-0.1-0.8-0.2
			c-0.3-0.1-0.5-0.2-0.6-0.4c-0.2-0.2-0.3-0.4-0.3-0.7c0-0.3,0.1-0.6,0.4-0.9c0.3-0.2,0.7-0.3,1.1-0.3c0.6,0,1.1,0.2,1.5,0.6
			l-0.3,0.4c-0.3-0.4-0.7-0.5-1.2-0.5c-0.3,0-0.5,0.1-0.7,0.2c-0.2,0.1-0.2,0.3-0.2,0.5c0,0.2,0.1,0.3,0.3,0.4
			c0.2,0.1,0.4,0.2,0.6,0.2c0.3,0.1,0.5,0.1,0.8,0.2s0.5,0.2,0.6,0.4c0.2,0.2,0.3,0.4,0.3,0.7c0,0.4-0.1,0.7-0.4,0.9
			C182.4,28.2,182,28.3,181.5,28.3z"/>
		<path class="st3" d="M184.5,23.4c-0.1,0-0.2,0-0.3-0.1c-0.1-0.1-0.1-0.2-0.1-0.3s0-0.2,0.1-0.3c0.1-0.1,0.2-0.1,0.3-0.1
			c0.1,0,0.2,0,0.3,0.1c0.1,0.1,0.1,0.2,0.1,0.3s0,0.2-0.1,0.3C184.7,23.4,184.6,23.4,184.5,23.4z M184.8,28.2h-0.6V24h0.6V28.2z"/>
		<path class="st3" d="M189.3,28.2h-0.6v-0.5c-0.3,0.4-0.8,0.6-1.4,0.6c-0.4,0-0.7-0.1-1-0.4c-0.3-0.2-0.4-0.6-0.4-1
			c0-0.4,0.1-0.8,0.4-1c0.3-0.2,0.6-0.4,1-0.4c0.6,0,1.1,0.2,1.4,0.6v-0.8c0-0.3-0.1-0.5-0.3-0.6c-0.2-0.2-0.4-0.2-0.8-0.2
			c-0.5,0-0.9,0.2-1.3,0.6l-0.3-0.4c0.4-0.5,1-0.7,1.7-0.7c0.5,0,0.9,0.1,1.2,0.3c0.3,0.2,0.4,0.6,0.4,1.1V28.2z M187.6,27.8
			c0.5,0,0.9-0.2,1.1-0.5v-0.8c-0.2-0.3-0.6-0.5-1.1-0.5c-0.3,0-0.5,0.1-0.7,0.3c-0.2,0.2-0.3,0.4-0.3,0.7c0,0.3,0.1,0.5,0.3,0.7
			C187,27.7,187.3,27.8,187.6,27.8z"/>
	</g>
	<g>
		<path class="st3" d="M168.9,54.5c-0.8,0-1.5-0.3-2.1-0.8c-0.6-0.6-0.8-1.3-0.8-2.1s0.3-1.6,0.8-2.1c0.6-0.6,1.3-0.8,2.1-0.8
			c0.9,0,1.6,0.4,2.2,1.1l-0.6,0.3c-0.2-0.2-0.4-0.4-0.7-0.6c-0.3-0.2-0.6-0.2-0.9-0.2c-0.6,0-1.2,0.2-1.6,0.7
			c-0.4,0.4-0.6,1-0.6,1.7c0,0.7,0.2,1.2,0.6,1.7c0.4,0.4,1,0.7,1.6,0.7c0.3,0,0.6-0.1,0.9-0.2c0.3-0.2,0.5-0.4,0.7-0.6l0.6,0.3
			C170.5,54.2,169.8,54.5,168.9,54.5z"/>
		<path class="st3" d="M175.4,54.4h-0.6v-2.7c0-0.3-0.1-0.6-0.2-0.7c-0.2-0.1-0.4-0.2-0.7-0.2c-0.2,0-0.5,0.1-0.7,0.2
			c-0.2,0.1-0.4,0.3-0.5,0.5v3H172v-5.8h0.6v2.2c0.2-0.2,0.4-0.4,0.6-0.5s0.6-0.2,0.8-0.2c0.9,0,1.3,0.4,1.3,1.3V54.4z"/>
		<path class="st3" d="M177.1,49.7c-0.1,0-0.2,0-0.3-0.1c-0.1-0.1-0.1-0.2-0.1-0.3s0-0.2,0.1-0.3c0.1-0.1,0.2-0.1,0.3-0.1
			c0.1,0,0.2,0,0.3,0.1c0.1,0.1,0.1,0.2,0.1,0.3s0,0.2-0.1,0.3C177.3,49.6,177.2,49.7,177.1,49.7z M177.4,54.4h-0.6v-4.2h0.6V54.4z"
			/>
		<path class="st3" d="M182.1,54.4h-0.6v-2.7c0-0.4-0.1-0.6-0.2-0.7c-0.2-0.1-0.4-0.2-0.7-0.2c-0.2,0-0.5,0.1-0.7,0.2
			c-0.2,0.1-0.4,0.3-0.5,0.5v3h-0.6v-4.2h0.6v0.6c0.2-0.2,0.4-0.4,0.6-0.5c0.3-0.1,0.6-0.2,0.8-0.2c0.9,0,1.3,0.4,1.3,1.3V54.4z"/>
		<path class="st3" d="M186.7,54.4H186V54c-0.4,0.4-0.8,0.6-1.4,0.6c-0.4,0-0.7-0.1-1-0.4c-0.3-0.2-0.4-0.6-0.4-1
			c0-0.4,0.1-0.8,0.4-1c0.3-0.2,0.6-0.4,1-0.4c0.6,0,1.1,0.2,1.4,0.6v-0.8c0-0.3-0.1-0.5-0.3-0.6s-0.4-0.2-0.8-0.2
			c-0.5,0-0.9,0.2-1.3,0.6l-0.3-0.4c0.4-0.5,1-0.7,1.7-0.7c0.5,0,0.9,0.1,1.2,0.3c0.3,0.2,0.4,0.6,0.4,1.1V54.4z M184.9,54.1
			c0.5,0,0.9-0.2,1.1-0.5v-0.8c-0.2-0.3-0.6-0.5-1.1-0.5c-0.3,0-0.5,0.1-0.7,0.3c-0.2,0.2-0.3,0.4-0.3,0.7c0,0.3,0.1,0.5,0.3,0.7
			C184.3,54,184.6,54.1,184.9,54.1z"/>
	</g>
	<g>
		<path class="st3" d="M168.8,82.9h-2.6v-5.8h2.6c0.5,0,0.9,0.1,1.2,0.4c0.3,0.3,0.4,0.6,0.4,1.1c0,0.3-0.1,0.6-0.3,0.9
			c-0.2,0.2-0.4,0.4-0.7,0.4c0.3,0,0.6,0.2,0.8,0.5c0.2,0.3,0.3,0.6,0.3,0.9c0,0.5-0.1,0.8-0.4,1.1
			C169.7,82.8,169.3,82.9,168.8,82.9z M168.6,79.6c0.3,0,0.6-0.1,0.7-0.3c0.2-0.2,0.3-0.4,0.3-0.7c0-0.3-0.1-0.5-0.3-0.7
			c-0.2-0.2-0.4-0.3-0.7-0.3h-1.7v1.9H168.6z M168.6,82.3c0.3,0,0.6-0.1,0.8-0.3c0.2-0.2,0.3-0.4,0.3-0.7c0-0.3-0.1-0.5-0.3-0.7
			c-0.2-0.2-0.4-0.3-0.8-0.3h-1.8v2H168.6z"/>
		<path class="st3" d="M174.8,82.9h-0.6v-0.5c-0.4,0.4-0.8,0.6-1.4,0.6c-0.4,0-0.7-0.1-1-0.4c-0.3-0.2-0.4-0.6-0.4-1
			c0-0.4,0.1-0.8,0.4-1c0.3-0.2,0.6-0.4,1-0.4c0.6,0,1.1,0.2,1.4,0.6v-0.8c0-0.3-0.1-0.5-0.3-0.6c-0.2-0.2-0.4-0.2-0.8-0.2
			c-0.5,0-0.9,0.2-1.3,0.6l-0.3-0.4c0.4-0.5,1-0.7,1.7-0.7c0.5,0,0.9,0.1,1.2,0.3c0.3,0.2,0.4,0.6,0.4,1.1V82.9z M173,82.5
			c0.5,0,0.9-0.2,1.1-0.5v-0.8c-0.2-0.3-0.6-0.5-1.1-0.5c-0.3,0-0.5,0.1-0.7,0.3c-0.2,0.2-0.3,0.4-0.3,0.7c0,0.3,0.1,0.5,0.3,0.7
			C172.5,82.5,172.7,82.5,173,82.5z"/>
		<path class="st3" d="M179.6,82.9h-0.6v-2.7c0-0.4-0.1-0.6-0.2-0.7c-0.2-0.1-0.4-0.2-0.7-0.2c-0.2,0-0.5,0.1-0.7,0.2
			c-0.2,0.1-0.4,0.3-0.5,0.5v3h-0.6v-4.2h0.6v0.6c0.2-0.2,0.4-0.4,0.6-0.5c0.3-0.1,0.5-0.2,0.8-0.2c0.9,0,1.3,0.4,1.3,1.3V82.9z"/>
		<path class="st3" d="M182.5,84.6c-0.4,0-0.7,0-0.9-0.1c-0.3-0.1-0.5-0.3-0.7-0.5l0.3-0.5c0.3,0.4,0.8,0.6,1.4,0.6
			c0.4,0,0.7-0.1,1-0.3c0.3-0.2,0.4-0.5,0.4-0.9v-0.6c-0.2,0.2-0.4,0.4-0.6,0.5c-0.2,0.1-0.5,0.2-0.8,0.2c-0.6,0-1-0.2-1.3-0.6
			s-0.5-0.9-0.5-1.6c0-0.7,0.2-1.2,0.5-1.6c0.3-0.4,0.8-0.6,1.3-0.6c0.6,0,1,0.2,1.4,0.7v-0.6h0.6v4c0,0.6-0.2,1.1-0.6,1.4
			C183.6,84.4,183.1,84.6,182.5,84.6z M182.6,82.4c0.2,0,0.5-0.1,0.7-0.2c0.2-0.1,0.4-0.3,0.5-0.5v-1.8c-0.1-0.2-0.3-0.3-0.5-0.5
			c-0.2-0.1-0.5-0.2-0.7-0.2c-0.4,0-0.7,0.1-1,0.4c-0.2,0.3-0.4,0.7-0.4,1.1c0,0.5,0.1,0.8,0.4,1.1
			C181.9,82.2,182.2,82.4,182.6,82.4z"/>
		<path class="st3" d="M186.5,82.9h-0.6v-5.8h0.6V82.9z"/>
		<path class="st3" d="M191,82.9h-0.6v-0.5c-0.3,0.4-0.8,0.6-1.4,0.6c-0.4,0-0.7-0.1-1-0.4c-0.3-0.2-0.4-0.6-0.4-1
			c0-0.4,0.1-0.8,0.4-1c0.3-0.2,0.6-0.4,1-0.4c0.6,0,1.1,0.2,1.4,0.6v-0.8c0-0.3-0.1-0.5-0.3-0.6c-0.2-0.2-0.4-0.2-0.8-0.2
			c-0.5,0-0.9,0.2-1.3,0.6l-0.3-0.4c0.4-0.5,1-0.7,1.7-0.7c0.5,0,0.9,0.1,1.2,0.3c0.3,0.2,0.4,0.6,0.4,1.1V82.9z M189.2,82.5
			c0.5,0,0.9-0.2,1.1-0.5v-0.8c-0.2-0.3-0.6-0.5-1.1-0.5c-0.3,0-0.5,0.1-0.7,0.3c-0.2,0.2-0.3,0.4-0.3,0.7c0,0.3,0.1,0.5,0.3,0.7
			C188.7,82.5,188.9,82.5,189.2,82.5z"/>
		<path class="st3" d="M196,82.9h-0.6v-0.6c-0.4,0.5-0.8,0.7-1.4,0.7c-0.6,0-1-0.2-1.3-0.6c-0.3-0.4-0.5-0.9-0.5-1.6
			c0-0.7,0.2-1.2,0.5-1.6c0.3-0.4,0.8-0.6,1.3-0.6c0.6,0,1,0.2,1.4,0.7v-2.2h0.6V82.9z M194.1,82.4c0.3,0,0.5-0.1,0.7-0.2
			c0.2-0.1,0.4-0.3,0.5-0.5v-1.9c-0.1-0.2-0.3-0.3-0.5-0.5c-0.2-0.1-0.5-0.2-0.7-0.2c-0.4,0-0.7,0.2-1,0.5c-0.2,0.3-0.4,0.7-0.4,1.2
			c0,0.5,0.1,0.9,0.4,1.2C193.3,82.3,193.7,82.4,194.1,82.4z"/>
		<path class="st3" d="M199.1,83c-0.6,0-1.1-0.2-1.5-0.6c-0.4-0.4-0.6-0.9-0.6-1.6c0-0.6,0.2-1.1,0.6-1.5c0.4-0.4,0.9-0.6,1.5-0.6
			c0.6,0,1.1,0.2,1.5,0.6c0.4,0.4,0.5,1,0.5,1.6V81h-3.4c0,0.4,0.2,0.8,0.4,1c0.3,0.3,0.6,0.4,1.1,0.4c0.5,0,0.9-0.2,1.3-0.5
			l0.3,0.4C200.4,82.8,199.8,83,199.1,83z M200.4,80.6c0-0.4-0.1-0.7-0.4-1c-0.2-0.3-0.6-0.4-1-0.4c-0.4,0-0.7,0.1-1,0.4
			c-0.2,0.3-0.4,0.6-0.4,1H200.4z"/>
		<path class="st3" d="M203.4,83c-0.7,0-1.3-0.2-1.7-0.7l0.3-0.5c0.1,0.2,0.3,0.3,0.6,0.4c0.2,0.1,0.5,0.2,0.8,0.2
			c0.3,0,0.6-0.1,0.7-0.2c0.2-0.1,0.3-0.3,0.3-0.5c0-0.2-0.1-0.3-0.3-0.4c-0.2-0.1-0.4-0.2-0.6-0.2c-0.3-0.1-0.5-0.1-0.8-0.2
			c-0.3-0.1-0.5-0.2-0.6-0.4c-0.2-0.2-0.3-0.4-0.3-0.7c0-0.3,0.1-0.6,0.4-0.9c0.3-0.2,0.7-0.3,1.1-0.3c0.6,0,1.1,0.2,1.5,0.6
			l-0.3,0.4c-0.3-0.3-0.7-0.5-1.2-0.5c-0.3,0-0.5,0.1-0.7,0.2c-0.2,0.1-0.2,0.3-0.2,0.5c0,0.2,0.1,0.3,0.3,0.4s0.4,0.2,0.6,0.2
			c0.2,0.1,0.5,0.1,0.8,0.2c0.3,0.1,0.5,0.2,0.6,0.4c0.2,0.2,0.3,0.4,0.3,0.7c0,0.4-0.1,0.7-0.4,0.9C204.3,82.9,203.9,83,203.4,83z"
			/>
		<path class="st3" d="M209.6,82.9h-0.6v-2.7c0-0.3-0.1-0.6-0.2-0.7c-0.2-0.1-0.4-0.2-0.7-0.2c-0.2,0-0.5,0.1-0.7,0.2
			c-0.2,0.1-0.4,0.3-0.5,0.5v3h-0.6v-5.8h0.6v2.2c0.2-0.2,0.4-0.4,0.6-0.5c0.3-0.1,0.6-0.2,0.8-0.2c0.9,0,1.3,0.4,1.3,1.3V82.9z"/>
	</g>
	<g>
		<path class="st3" d="M170.5,112.5h-0.9l-2.2-2.6l-0.6,0.7v1.9h-0.7v-5.8h0.7v3l2.5-3h0.9l-2.4,2.7L170.5,112.5z"/>
		<path class="st3" d="M174.3,112c-0.4,0.4-0.9,0.6-1.5,0.6c-0.6,0-1.1-0.2-1.5-0.6c-0.4-0.4-0.6-0.9-0.6-1.6c0-0.6,0.2-1.1,0.6-1.6
			c0.4-0.4,0.9-0.6,1.5-0.6c0.6,0,1.1,0.2,1.5,0.6c0.4,0.4,0.6,0.9,0.6,1.6C174.9,111,174.7,111.6,174.3,112z M171.8,111.6
			c0.2,0.3,0.6,0.5,1,0.5c0.4,0,0.8-0.2,1-0.5c0.2-0.3,0.4-0.7,0.4-1.1c0-0.4-0.1-0.8-0.4-1.1s-0.6-0.5-1-0.5c-0.4,0-0.8,0.2-1,0.5
			c-0.2,0.3-0.4,0.7-0.4,1.1C171.5,110.9,171.6,111.3,171.8,111.6z"/>
		<path class="st3" d="M177.3,112.6c-0.7,0-1.3-0.2-1.7-0.7l0.3-0.5c0.1,0.2,0.3,0.3,0.6,0.4c0.3,0.1,0.5,0.2,0.8,0.2
			c0.3,0,0.6-0.1,0.7-0.2c0.2-0.1,0.3-0.3,0.3-0.5c0-0.2-0.1-0.3-0.3-0.4c-0.2-0.1-0.4-0.2-0.6-0.2c-0.2-0.1-0.5-0.1-0.8-0.2
			c-0.3-0.1-0.5-0.2-0.6-0.4c-0.2-0.2-0.3-0.4-0.3-0.7c0-0.3,0.1-0.6,0.4-0.9c0.3-0.2,0.7-0.3,1.1-0.3c0.6,0,1.1,0.2,1.5,0.6
			l-0.3,0.4c-0.3-0.4-0.7-0.5-1.2-0.5c-0.3,0-0.5,0.1-0.7,0.2c-0.2,0.1-0.3,0.3-0.3,0.5c0,0.2,0.1,0.3,0.3,0.4
			c0.2,0.1,0.4,0.2,0.6,0.2c0.3,0.1,0.5,0.1,0.8,0.2c0.3,0.1,0.5,0.2,0.6,0.4c0.2,0.2,0.3,0.4,0.3,0.7c0,0.4-0.1,0.7-0.4,0.9
			C178.2,112.5,177.8,112.6,177.3,112.6z"/>
		<path class="st3" d="M183.3,112c-0.4,0.4-0.9,0.6-1.5,0.6c-0.6,0-1.1-0.2-1.5-0.6c-0.4-0.4-0.6-0.9-0.6-1.6c0-0.6,0.2-1.1,0.6-1.6
			c0.4-0.4,0.9-0.6,1.5-0.6c0.6,0,1.1,0.2,1.5,0.6c0.4,0.4,0.6,0.9,0.6,1.6C183.9,111,183.7,111.6,183.3,112z M180.8,111.6
			c0.2,0.3,0.6,0.5,1,0.5c0.4,0,0.8-0.2,1-0.5c0.2-0.3,0.4-0.7,0.4-1.1c0-0.4-0.1-0.8-0.4-1.1c-0.2-0.3-0.6-0.5-1-0.5
			c-0.4,0-0.8,0.2-1,0.5c-0.3,0.3-0.4,0.7-0.4,1.1C180.4,110.9,180.5,111.3,180.8,111.6z"/>
		<path class="st3" d="M186.7,112.5H186l-1.7-4.2h0.7l1.4,3.4l1.4-3.4h0.7L186.7,112.5z"/>
		<path class="st3" d="M192.4,112c-0.4,0.4-0.9,0.6-1.5,0.6c-0.6,0-1.1-0.2-1.5-0.6c-0.4-0.4-0.6-0.9-0.6-1.6c0-0.6,0.2-1.1,0.6-1.6
			c0.4-0.4,0.9-0.6,1.5-0.6c0.6,0,1.1,0.2,1.5,0.6c0.4,0.4,0.6,0.9,0.6,1.6C193,111,192.8,111.6,192.4,112z M189.9,111.6
			c0.2,0.3,0.6,0.5,1,0.5c0.4,0,0.8-0.2,1-0.5c0.2-0.3,0.4-0.7,0.4-1.1c0-0.4-0.1-0.8-0.4-1.1c-0.2-0.3-0.6-0.5-1-0.5
			c-0.4,0-0.8,0.2-1,0.5c-0.3,0.3-0.4,0.7-0.4,1.1C189.6,110.9,189.7,111.3,189.9,111.6z"/>
	</g>
	<g>
		<path class="st3" d="M11.7,26.3h-0.8l-0.5-1.3H7.6L7,26.3H6.2l2.3-5.8h0.9L11.7,26.3z M10.2,24.4L9,21.3l-1.2,3.1H10.2z"/>
		<path class="st3" d="M13.1,26.3h-0.6v-5.8h0.6V26.3z"/>
		<path class="st3" d="M15.1,26.3h-0.6v-5.8h0.6v2.2c0.4-0.5,0.8-0.7,1.4-0.7c0.5,0,1,0.2,1.3,0.6c0.3,0.4,0.5,0.9,0.5,1.6
			c0,0.7-0.2,1.2-0.5,1.6c-0.3,0.4-0.8,0.6-1.3,0.6c-0.6,0-1-0.2-1.4-0.7V26.3z M15.1,25.2c0.1,0.2,0.3,0.3,0.5,0.5
			c0.2,0.1,0.5,0.2,0.7,0.2c0.4,0,0.7-0.1,1-0.4s0.4-0.7,0.4-1.2c0-0.5-0.1-0.9-0.4-1.2c-0.2-0.3-0.6-0.5-1-0.5
			c-0.2,0-0.5,0.1-0.7,0.2c-0.2,0.1-0.4,0.3-0.5,0.5V25.2z"/>
		<path class="st3" d="M22.6,26.3H22v-0.5c-0.4,0.4-0.8,0.6-1.4,0.6c-0.4,0-0.7-0.1-1-0.4c-0.3-0.2-0.4-0.6-0.4-1
			c0-0.4,0.1-0.8,0.4-1c0.3-0.2,0.6-0.4,1-0.4c0.6,0,1.1,0.2,1.4,0.6v-0.8c0-0.3-0.1-0.5-0.3-0.6c-0.2-0.2-0.4-0.2-0.8-0.2
			c-0.5,0-0.9,0.2-1.3,0.6l-0.3-0.4c0.4-0.5,1-0.7,1.7-0.7c0.5,0,0.9,0.1,1.2,0.3c0.3,0.2,0.4,0.6,0.4,1.1V26.3z M20.8,26
			c0.5,0,0.9-0.2,1.1-0.5v-0.8c-0.2-0.3-0.6-0.5-1.1-0.5c-0.3,0-0.5,0.1-0.7,0.3c-0.2,0.2-0.3,0.4-0.3,0.7c0,0.3,0.1,0.5,0.3,0.7
			C20.3,25.9,20.5,26,20.8,26z"/>
		<path class="st3" d="M27.4,26.3h-0.6v-2.7c0-0.4-0.1-0.6-0.2-0.7c-0.2-0.1-0.4-0.2-0.7-0.2c-0.2,0-0.5,0.1-0.7,0.2
			c-0.2,0.1-0.4,0.3-0.5,0.5v3h-0.6v-4.2h0.6v0.6c0.2-0.2,0.4-0.4,0.6-0.5c0.3-0.1,0.5-0.2,0.8-0.2c0.9,0,1.3,0.4,1.3,1.3V26.3z"/>
		<path class="st3" d="M29,21.6c-0.1,0-0.2,0-0.3-0.1c-0.1-0.1-0.1-0.2-0.1-0.3s0-0.2,0.1-0.3c0.1-0.1,0.2-0.1,0.3-0.1
			c0.1,0,0.2,0,0.3,0.1s0.1,0.2,0.1,0.3s0,0.2-0.1,0.3C29.2,21.5,29.1,21.6,29,21.6z M29.3,26.3h-0.6v-4.2h0.6V26.3z"/>
		<path class="st3" d="M33.9,26.3h-0.6v-0.5c-0.4,0.4-0.8,0.6-1.4,0.6c-0.4,0-0.7-0.1-1-0.4c-0.3-0.2-0.4-0.6-0.4-1
			c0-0.4,0.1-0.8,0.4-1c0.3-0.2,0.6-0.4,1-0.4c0.6,0,1.1,0.2,1.4,0.6v-0.8c0-0.3-0.1-0.5-0.3-0.6c-0.2-0.2-0.4-0.2-0.8-0.2
			c-0.5,0-0.9,0.2-1.3,0.6l-0.3-0.4c0.4-0.5,1-0.7,1.7-0.7c0.5,0,0.9,0.1,1.2,0.3c0.3,0.2,0.4,0.6,0.4,1.1V26.3z M32.1,26
			c0.5,0,0.9-0.2,1.1-0.5v-0.8c-0.2-0.3-0.6-0.5-1.1-0.5c-0.3,0-0.5,0.1-0.7,0.3c-0.2,0.2-0.3,0.4-0.3,0.7c0,0.3,0.1,0.5,0.3,0.7
			S31.8,26,32.1,26z"/>
	</g>
	<g>
		<path class="st3" d="M95.6,9h-0.7V3.2h0.7V9z"/>
		<path class="st3" d="M97.5,9h-0.6V4.8h0.6v0.7c0.4-0.5,0.8-0.8,1.4-0.8v0.7c-0.1,0-0.2,0-0.3,0c-0.2,0-0.4,0.1-0.6,0.2
			c-0.2,0.1-0.4,0.3-0.5,0.5V9z"/>
		<path class="st3" d="M103,9h-0.6V8.5c-0.3,0.4-0.8,0.6-1.4,0.6c-0.4,0-0.7-0.1-1-0.4c-0.3-0.2-0.4-0.6-0.4-1c0-0.4,0.1-0.8,0.4-1
			s0.6-0.4,1-0.4c0.6,0,1.1,0.2,1.4,0.6V6.1c0-0.3-0.1-0.5-0.3-0.6c-0.2-0.2-0.4-0.2-0.8-0.2c-0.5,0-0.9,0.2-1.3,0.6l-0.3-0.4
			c0.4-0.5,1-0.7,1.7-0.7c0.5,0,0.9,0.1,1.2,0.3c0.3,0.2,0.4,0.6,0.4,1.1V9z M101.2,8.6c0.5,0,0.9-0.2,1.1-0.5V7.3
			c-0.2-0.3-0.6-0.5-1.1-0.5c-0.3,0-0.5,0.1-0.7,0.3c-0.2,0.2-0.3,0.4-0.3,0.7c0,0.3,0.1,0.5,0.3,0.7C100.6,8.5,100.9,8.6,101.2,8.6
			z"/>
		<path class="st3" d="M105.9,9.1c-0.6,0-1-0.2-1.3-0.6c-0.3-0.4-0.5-0.9-0.5-1.6c0-0.7,0.2-1.2,0.5-1.6c0.3-0.4,0.8-0.6,1.3-0.6
			c0.3,0,0.6,0.1,0.8,0.2c0.2,0.1,0.4,0.3,0.6,0.5V4.8h0.6v5.8h-0.6V8.3C106.9,8.8,106.4,9.1,105.9,9.1z M106,8.5
			c0.3,0,0.5-0.1,0.7-0.2c0.2-0.1,0.4-0.3,0.5-0.5V5.9c-0.1-0.2-0.3-0.3-0.5-0.5c-0.2-0.1-0.5-0.2-0.7-0.2c-0.4,0-0.7,0.1-1,0.4
			c-0.2,0.3-0.4,0.7-0.4,1.2c0,0.5,0.1,0.9,0.4,1.2C105.3,8.3,105.6,8.5,106,8.5z"/>
	</g>
	<g>
		<path class="st3" d="M18.5,136.6c-0.9,0-1.7-0.3-2.2-0.9l0.4-0.5c0.5,0.5,1.1,0.8,1.8,0.8c0.5,0,0.8-0.1,1-0.3
			c0.2-0.2,0.3-0.4,0.3-0.7c0-0.2-0.1-0.4-0.2-0.5c-0.1-0.1-0.3-0.2-0.5-0.3c-0.2-0.1-0.4-0.1-0.7-0.2s-0.5-0.1-0.7-0.2
			c-0.2-0.1-0.5-0.2-0.7-0.3c-0.2-0.1-0.4-0.3-0.5-0.5c-0.1-0.2-0.2-0.4-0.2-0.7c0-0.5,0.2-0.9,0.6-1.2c0.4-0.3,0.8-0.4,1.4-0.4
			c0.9,0,1.5,0.3,2,0.8L20,132c-0.4-0.5-1-0.7-1.7-0.7c-0.3,0-0.6,0.1-0.8,0.3c-0.2,0.2-0.3,0.4-0.3,0.7c0,0.2,0.1,0.4,0.3,0.5
			c0.2,0.1,0.4,0.2,0.6,0.3c0.2,0.1,0.5,0.1,0.8,0.2c0.3,0.1,0.6,0.2,0.8,0.3s0.5,0.3,0.6,0.5c0.2,0.2,0.3,0.5,0.3,0.9
			c0,0.5-0.2,0.9-0.5,1.2C19.7,136.4,19.2,136.6,18.5,136.6z"/>
		<path class="st3" d="M21.4,138.1l0.1-0.6c0.1,0,0.2,0.1,0.4,0.1c0.1,0,0.3,0,0.4-0.1c0.1-0.1,0.2-0.2,0.2-0.3l0.3-0.6l-1.7-4.2
			h0.7l1.4,3.4l1.4-3.4h0.7l-2.1,5c-0.2,0.6-0.6,0.8-1.2,0.8C21.7,138.2,21.5,138.1,21.4,138.1z"/>
		<path class="st3" d="M26.5,136.5h-0.6v-4.2h0.6v0.7c0.4-0.5,0.8-0.8,1.4-0.8v0.7c-0.1,0-0.2,0-0.3,0c-0.2,0-0.4,0.1-0.6,0.2
			c-0.2,0.1-0.4,0.3-0.5,0.5V136.5z"/>
		<path class="st3" d="M29,131.7c-0.1,0-0.2,0-0.3-0.1c-0.1-0.1-0.1-0.2-0.1-0.3c0-0.1,0-0.2,0.1-0.3c0.1-0.1,0.2-0.1,0.3-0.1
			c0.1,0,0.2,0,0.3,0.1c0.1,0.1,0.1,0.2,0.1,0.3c0,0.1,0,0.2-0.1,0.3C29.2,131.7,29.1,131.7,29,131.7z M29.3,136.5h-0.6v-4.2h0.6
			V136.5z"/>
		<path class="st3" d="M33.9,136.5h-0.6V136c-0.4,0.4-0.8,0.6-1.4,0.6c-0.4,0-0.7-0.1-1-0.4c-0.3-0.2-0.4-0.6-0.4-1
			c0-0.4,0.1-0.8,0.4-1c0.3-0.2,0.6-0.4,1-0.4c0.6,0,1.1,0.2,1.4,0.6v-0.8c0-0.3-0.1-0.5-0.3-0.6c-0.2-0.2-0.4-0.2-0.8-0.2
			c-0.5,0-0.9,0.2-1.3,0.6l-0.3-0.4c0.4-0.5,1-0.7,1.7-0.7c0.5,0,0.9,0.1,1.2,0.3s0.4,0.6,0.4,1.1V136.5z M32.1,136.1
			c0.5,0,0.9-0.2,1.1-0.5v-0.8c-0.2-0.3-0.6-0.5-1.1-0.5c-0.3,0-0.5,0.1-0.7,0.3c-0.2,0.2-0.3,0.4-0.3,0.7c0,0.3,0.1,0.5,0.3,0.7
			C31.5,136,31.8,136.1,32.1,136.1z"/>
	</g>
	<g>
		<path class="st3" d="M13,50.3c-0.9,0-1.7-0.3-2.2-0.9l0.4-0.5c0.5,0.5,1.1,0.8,1.8,0.8c0.5,0,0.8-0.1,1-0.3
			c0.2-0.2,0.3-0.4,0.3-0.7c0-0.2-0.1-0.4-0.2-0.5c-0.1-0.1-0.3-0.2-0.5-0.3c-0.2-0.1-0.4-0.1-0.7-0.2s-0.5-0.1-0.7-0.2
			c-0.2-0.1-0.5-0.2-0.7-0.3c-0.2-0.1-0.4-0.3-0.5-0.5C11,46.5,11,46.2,11,46c0-0.5,0.2-0.9,0.6-1.2c0.4-0.3,0.8-0.4,1.4-0.4
			c0.9,0,1.5,0.3,2,0.8l-0.4,0.5c-0.4-0.5-1-0.7-1.7-0.7c-0.3,0-0.6,0.1-0.8,0.3c-0.2,0.2-0.3,0.4-0.3,0.7c0,0.2,0.1,0.4,0.3,0.5
			c0.2,0.1,0.4,0.2,0.6,0.3c0.2,0.1,0.5,0.1,0.8,0.2c0.3,0.1,0.6,0.2,0.8,0.3c0.2,0.1,0.5,0.3,0.6,0.5c0.2,0.2,0.3,0.5,0.3,0.9
			c0,0.5-0.2,0.9-0.5,1.2C14.2,50.2,13.7,50.3,13,50.3z"/>
		<path class="st3" d="M19.6,50.2H19v-0.6c-0.2,0.2-0.4,0.4-0.7,0.5c-0.3,0.1-0.5,0.2-0.8,0.2c-0.9,0-1.3-0.4-1.3-1.3V46h0.6v2.7
			c0,0.3,0.1,0.6,0.2,0.7c0.2,0.1,0.4,0.2,0.7,0.2c0.2,0,0.5-0.1,0.7-0.2c0.2-0.1,0.4-0.3,0.5-0.4V46h0.6V50.2z"/>
		<path class="st3" d="M24.6,50.2h-0.6v-0.6c-0.4,0.5-0.8,0.7-1.4,0.7c-0.6,0-1-0.2-1.3-0.6c-0.3-0.4-0.5-0.9-0.5-1.6
			c0-0.7,0.2-1.2,0.5-1.6c0.3-0.4,0.8-0.6,1.3-0.6c0.6,0,1,0.2,1.4,0.7v-2.2h0.6V50.2z M22.7,49.7c0.3,0,0.5-0.1,0.7-0.2
			c0.2-0.1,0.4-0.3,0.5-0.5v-1.9c-0.1-0.2-0.3-0.3-0.5-0.5c-0.2-0.1-0.5-0.2-0.7-0.2c-0.4,0-0.7,0.2-1,0.5c-0.2,0.3-0.4,0.7-0.4,1.2
			s0.1,0.9,0.4,1.2C21.9,49.6,22.3,49.7,22.7,49.7z"/>
		<path class="st3" d="M29.1,50.2h-0.6v-0.5c-0.4,0.4-0.8,0.6-1.4,0.6c-0.4,0-0.7-0.1-1-0.4c-0.3-0.2-0.4-0.6-0.4-1
			c0-0.4,0.1-0.8,0.4-1c0.3-0.2,0.6-0.4,1-0.4c0.6,0,1.1,0.2,1.4,0.6v-0.8c0-0.3-0.1-0.5-0.3-0.6c-0.2-0.2-0.4-0.2-0.8-0.2
			c-0.5,0-0.9,0.2-1.3,0.6l-0.3-0.4c0.4-0.5,1-0.7,1.7-0.7c0.5,0,0.9,0.1,1.2,0.3c0.3,0.2,0.4,0.6,0.4,1.1V50.2z M27.3,49.8
			c0.5,0,0.9-0.2,1.1-0.5v-0.8c-0.2-0.3-0.6-0.5-1.1-0.5c-0.3,0-0.5,0.1-0.7,0.3c-0.2,0.2-0.3,0.4-0.3,0.7c0,0.3,0.1,0.5,0.3,0.7
			C26.8,49.8,27,49.8,27.3,49.8z"/>
		<path class="st3" d="M33.9,50.2h-0.6v-2.7c0-0.4-0.1-0.6-0.2-0.7c-0.2-0.1-0.4-0.2-0.7-0.2c-0.2,0-0.5,0.1-0.7,0.2
			c-0.2,0.1-0.4,0.3-0.5,0.5v3h-0.6V46H31v0.6c0.2-0.2,0.4-0.4,0.6-0.5c0.3-0.1,0.5-0.2,0.8-0.2c0.9,0,1.3,0.4,1.3,1.3V50.2z"/>
	</g>
	<g>
		<path class="st3" d="M22.9,76.4h-0.7v-2.6h-3.4v2.6h-0.7v-5.8h0.7v2.5h3.4v-2.5h0.7V76.4z"/>
		<path class="st3" d="M27.4,76.4h-0.6v-0.5c-0.3,0.4-0.8,0.6-1.4,0.6c-0.4,0-0.7-0.1-1-0.4c-0.3-0.2-0.4-0.6-0.4-1
			c0-0.4,0.1-0.8,0.4-1c0.3-0.2,0.6-0.4,1-0.4c0.6,0,1.1,0.2,1.4,0.6v-0.8c0-0.3-0.1-0.5-0.3-0.6c-0.2-0.2-0.4-0.2-0.8-0.2
			c-0.5,0-0.9,0.2-1.3,0.6l-0.3-0.4c0.4-0.5,1-0.7,1.7-0.7c0.5,0,0.9,0.1,1.2,0.3c0.3,0.2,0.4,0.6,0.4,1.1V76.4z M25.6,76
			c0.5,0,0.9-0.2,1.1-0.5v-0.8c-0.2-0.3-0.6-0.5-1.1-0.5c-0.3,0-0.5,0.1-0.7,0.3c-0.2,0.2-0.3,0.4-0.3,0.7c0,0.3,0.1,0.5,0.3,0.7
			C25.1,76,25.3,76,25.6,76z"/>
		<path class="st3" d="M29,71.6c-0.1,0-0.2,0-0.3-0.1c-0.1-0.1-0.1-0.2-0.1-0.3c0-0.1,0-0.2,0.1-0.3c0.1-0.1,0.2-0.1,0.3-0.1
			c0.1,0,0.2,0,0.3,0.1c0.1,0.1,0.1,0.2,0.1,0.3c0,0.1,0,0.2-0.1,0.3C29.3,71.6,29.2,71.6,29,71.6z M29.4,76.4h-0.6v-4.2h0.6V76.4z"
			/>
		<path class="st3" d="M31.7,76.5c-0.3,0-0.5-0.1-0.7-0.3c-0.2-0.2-0.2-0.4-0.2-0.7v-2.7h-0.7v-0.6h0.7v-1.1h0.6v1.1h0.8v0.6h-0.8
			v2.6c0,0.2,0,0.3,0.1,0.4c0.1,0.1,0.2,0.1,0.3,0.1c0.2,0,0.3-0.1,0.4-0.2l0.2,0.5C32.3,76.4,32,76.5,31.7,76.5z"/>
		<path class="st3" d="M33.5,71.6c-0.1,0-0.2,0-0.3-0.1c-0.1-0.1-0.1-0.2-0.1-0.3c0-0.1,0-0.2,0.1-0.3c0.1-0.1,0.2-0.1,0.3-0.1
			c0.1,0,0.2,0,0.3,0.1c0.1,0.1,0.1,0.2,0.1,0.3c0,0.1,0,0.2-0.1,0.3C33.7,71.6,33.6,71.6,33.5,71.6z M33.9,76.4h-0.6v-4.2h0.6V76.4
			z"/>
	</g>
	<g>
		<path class="st3" d="M20,104.8h-2V99h2c0.9,0,1.6,0.3,2.1,0.8c0.5,0.5,0.8,1.2,0.8,2.1c0,0.8-0.3,1.5-0.8,2.1
			C21.6,104.5,20.9,104.8,20,104.8z M20,104.1c0.7,0,1.2-0.2,1.6-0.6c0.4-0.4,0.6-1,0.6-1.6c0-0.6-0.2-1.2-0.6-1.6
			c-0.4-0.4-0.9-0.6-1.6-0.6h-1.2v4.5H20z"/>
		<path class="st3" d="M28.3,104.8h-0.8l-1.5-2.3h-1.1v2.3h-0.7V99h2.3c0.5,0,1,0.2,1.3,0.5c0.3,0.3,0.5,0.7,0.5,1.3
			c0,0.5-0.1,0.9-0.4,1.2c-0.3,0.3-0.6,0.5-1.1,0.5L28.3,104.8z M26.3,101.8c0.3,0,0.6-0.1,0.8-0.3c0.2-0.2,0.3-0.5,0.3-0.8
			s-0.1-0.6-0.3-0.8c-0.2-0.2-0.5-0.3-0.8-0.3h-1.5v2.2H26.3z"/>
		<path class="st3" d="M32.1,104.9c-0.8,0-1.5-0.3-2.1-0.8c-0.6-0.6-0.8-1.3-0.8-2.1c0-0.9,0.3-1.6,0.8-2.1c0.6-0.6,1.3-0.8,2.1-0.8
			c0.9,0,1.6,0.4,2.2,1.1l-0.6,0.3c-0.2-0.2-0.4-0.4-0.7-0.6c-0.3-0.2-0.6-0.2-0.9-0.2c-0.6,0-1.2,0.2-1.6,0.7
			c-0.4,0.4-0.6,1-0.6,1.7c0,0.7,0.2,1.2,0.6,1.7c0.4,0.4,0.9,0.7,1.6,0.7c0.3,0,0.6-0.1,0.9-0.2c0.3-0.2,0.5-0.4,0.7-0.6l0.6,0.3
			C33.7,104.5,33,104.9,32.1,104.9z"/>
	</g>
	<g>
		<path class="st0" d="M168.9,41.3h-1.4v-6.2l-1.3,1.4l-0.8-0.9l2.3-2.3h1.2V41.3z"/>
		<path class="st0" d="M173.5,41.4c-0.6,0-1.1-0.1-1.5-0.3c-0.4-0.2-0.8-0.5-1-0.9c-0.3-0.4-0.4-0.8-0.6-1.3s-0.2-1-0.2-1.6
			c0-1.2,0.3-2.2,0.9-3c0.6-0.8,1.5-1.2,2.6-1.2c0.9,0,1.7,0.3,2.3,0.9l-0.7,1.1c-0.4-0.5-1-0.7-1.6-0.7c-0.6,0-1.2,0.3-1.5,0.8
			s-0.6,1.1-0.6,1.9c0,0.1,0,0.2,0,0.2c0.2-0.3,0.5-0.6,0.9-0.8c0.4-0.2,0.8-0.3,1.3-0.3c0.8,0,1.4,0.2,1.9,0.7
			c0.5,0.5,0.8,1.1,0.8,1.9c0,0.8-0.3,1.4-0.8,1.9C175.1,41.2,174.4,41.4,173.5,41.4z M173.4,40.2c0.5,0,0.9-0.1,1.2-0.4
			c0.3-0.3,0.4-0.6,0.4-1c0-0.5-0.2-0.8-0.5-1.1c-0.3-0.2-0.7-0.4-1.2-0.4c-0.3,0-0.7,0.1-1,0.3c-0.3,0.2-0.6,0.4-0.8,0.7
			c0,0.5,0.2,0.9,0.5,1.3C172.4,40,172.9,40.2,173.4,40.2z"/>
		<path class="st0" d="M180.6,41.4c-1.3,0-2.3-0.4-3-1.2l0.8-1c0.6,0.6,1.3,0.9,2.2,0.9c0.5,0,0.9-0.1,1.2-0.4
			c0.3-0.3,0.4-0.6,0.4-1c0-0.4-0.1-0.8-0.4-1c-0.3-0.3-0.7-0.4-1.2-0.4c-0.7,0-1.3,0.2-1.7,0.7l-1-0.3v-4.5h5.2v1.2h-3.8v2.3
			c0.5-0.5,1.1-0.7,1.8-0.7c0.7,0,1.3,0.2,1.8,0.7c0.5,0.5,0.7,1.1,0.7,1.9c0,0.8-0.3,1.5-0.8,2C182.2,41.2,181.5,41.4,180.6,41.4z"
			/>
	</g>
	<g>
		<path class="st0" d="M171.6,65h-5.8v-1.1c1.7-1.3,2.8-2.2,3.4-2.8c0.6-0.6,0.9-1.2,0.9-1.7c0-0.4-0.1-0.7-0.4-0.9
			c-0.3-0.2-0.6-0.3-1-0.3c-0.9,0-1.6,0.3-2.2,1l-0.8-0.9c0.3-0.4,0.8-0.7,1.3-1c0.5-0.2,1.1-0.3,1.6-0.3c0.8,0,1.5,0.2,2.1,0.7
			c0.6,0.4,0.8,1,0.8,1.8c0,0.7-0.3,1.4-0.9,2c-0.6,0.7-1.5,1.5-2.6,2.4h3.5V65z"/>
		<path class="st0" d="M175.6,65.2c-0.7,0-1.3-0.1-1.8-0.4c-0.5-0.2-0.9-0.6-1.2-0.9l0.8-0.9c0.3,0.3,0.6,0.5,1,0.7
			c0.4,0.2,0.8,0.3,1.2,0.3c0.5,0,0.9-0.1,1.2-0.3c0.3-0.2,0.4-0.5,0.4-0.9c0-0.8-0.6-1.1-1.8-1.1c-0.5,0-0.8,0-0.9,0v-1.3
			c0.1,0,0.4,0,0.9,0c0.5,0,0.9-0.1,1.2-0.3c0.3-0.2,0.4-0.4,0.4-0.8c0-0.4-0.2-0.6-0.5-0.8c-0.3-0.2-0.7-0.3-1.2-0.3
			c-0.8,0-1.5,0.3-2.1,0.9l-0.7-0.9c0.7-0.8,1.7-1.3,2.9-1.3c0.9,0,1.6,0.2,2.1,0.6c0.5,0.4,0.8,0.9,0.8,1.6c0,0.5-0.2,0.9-0.5,1.2
			c-0.3,0.3-0.8,0.5-1.2,0.6c0.5,0,0.9,0.2,1.3,0.6c0.4,0.3,0.6,0.8,0.6,1.4c0,0.7-0.3,1.2-0.8,1.7
			C177.2,64.9,176.5,65.2,175.6,65.2z"/>
		<path class="st0" d="M182.8,65.2c-1.3,0-2.3-0.4-3-1.2l0.8-1c0.6,0.6,1.3,0.9,2.2,0.9c0.5,0,0.9-0.1,1.2-0.4
			c0.3-0.3,0.4-0.6,0.4-1c0-0.4-0.1-0.8-0.4-1c-0.3-0.3-0.7-0.4-1.2-0.4c-0.7,0-1.3,0.2-1.7,0.7l-1-0.3V57h5.2v1.2h-3.8v2.3
			c0.5-0.5,1.1-0.7,1.8-0.7c0.7,0,1.3,0.2,1.8,0.7s0.7,1.1,0.7,1.9c0,0.8-0.3,1.5-0.8,2C184.4,64.9,183.7,65.2,182.8,65.2z"/>
	</g>
	<g>
		<path class="st0" d="M168.9,94.1h-1.4v-6.2l-1.3,1.4l-0.8-0.9l2.3-2.3h1.2V94.1z"/>
		<path class="st0" d="M175.5,93.7c-0.6,0.4-1.3,0.6-2.2,0.6s-1.6-0.2-2.2-0.6c-0.6-0.4-0.9-0.9-0.9-1.6c0-0.5,0.2-0.9,0.5-1.3
			s0.8-0.6,1.3-0.8c-0.5-0.2-0.9-0.4-1.2-0.7c-0.3-0.3-0.5-0.7-0.5-1.2c0-0.4,0.1-0.7,0.3-0.9c0.2-0.3,0.4-0.5,0.7-0.7
			c0.3-0.2,0.6-0.3,0.9-0.4c0.3-0.1,0.7-0.1,1.1-0.1c0.4,0,0.7,0,1.1,0.1c0.3,0.1,0.6,0.2,0.9,0.4c0.3,0.2,0.5,0.4,0.7,0.7
			c0.2,0.3,0.3,0.6,0.3,0.9c0,0.9-0.6,1.5-1.7,1.9c0.5,0.2,0.9,0.4,1.3,0.8c0.3,0.4,0.5,0.8,0.5,1.3C176.3,92.7,176,93.3,175.5,93.7
			z M173.3,93c0.5,0,0.8-0.1,1.2-0.3c0.3-0.2,0.5-0.5,0.5-0.8c0-0.4-0.2-0.6-0.6-0.9c-0.4-0.2-0.7-0.3-1.1-0.4
			c-0.2,0-0.4,0.1-0.7,0.2c-0.2,0.1-0.5,0.2-0.7,0.4c-0.2,0.2-0.3,0.4-0.3,0.7c0,0.3,0.2,0.6,0.5,0.8C172.4,92.9,172.8,93,173.3,93z
			 M173.3,89.4c0.2,0,0.4-0.1,0.6-0.2c0.2-0.1,0.4-0.2,0.6-0.4c0.2-0.2,0.3-0.4,0.3-0.6c0-0.3-0.1-0.6-0.4-0.8
			c-0.3-0.2-0.6-0.3-1.1-0.3c-0.4,0-0.8,0.1-1.1,0.3c-0.3,0.2-0.4,0.5-0.4,0.8c0,0.2,0.1,0.4,0.3,0.6c0.2,0.2,0.4,0.3,0.6,0.4
			C172.9,89.3,173.1,89.4,173.3,89.4z"/>
		<path class="st0" d="M182,93.9c-0.4,0.2-0.9,0.4-1.4,0.4c-0.5,0-1-0.1-1.4-0.4s-0.8-0.6-1-1c-0.2-0.4-0.4-0.8-0.6-1.3
			c-0.1-0.5-0.2-1-0.2-1.5c0-0.5,0.1-1,0.2-1.5c0.1-0.5,0.3-0.9,0.6-1.3c0.2-0.4,0.6-0.7,1-1c0.4-0.2,0.9-0.4,1.4-0.4
			c0.5,0,1,0.1,1.4,0.4c0.4,0.2,0.8,0.6,1,1c0.2,0.4,0.4,0.8,0.6,1.3c0.1,0.5,0.2,1,0.2,1.5c0,0.5-0.1,1-0.2,1.5
			c-0.1,0.5-0.3,0.9-0.6,1.3C182.7,93.3,182.4,93.6,182,93.9z M179.2,92.2c0.3,0.5,0.7,0.8,1.3,0.8c0.6,0,1.1-0.3,1.3-0.8
			c0.3-0.5,0.4-1.2,0.4-2.1c0-0.5-0.1-1-0.2-1.4c-0.1-0.4-0.3-0.8-0.6-1c-0.3-0.3-0.6-0.4-1-0.4c-0.4,0-0.8,0.1-1,0.4
			c-0.3,0.3-0.5,0.6-0.6,1c-0.1,0.4-0.2,0.9-0.2,1.4C178.8,91,178.9,91.6,179.2,92.2z"/>
	</g>
	<g>
		<path class="st0" d="M19.4,149.3h-5.8v-1.1c1.7-1.3,2.8-2.2,3.4-2.8c0.6-0.6,0.9-1.2,0.9-1.7c0-0.4-0.1-0.7-0.4-0.9
			c-0.3-0.2-0.6-0.3-1-0.3c-0.9,0-1.6,0.3-2.2,1l-0.8-0.9c0.3-0.4,0.8-0.7,1.3-1c0.5-0.2,1.1-0.3,1.6-0.3c0.8,0,1.5,0.2,2.1,0.7
			c0.6,0.4,0.8,1,0.8,1.8c0,0.7-0.3,1.4-0.9,2c-0.6,0.7-1.5,1.5-2.6,2.4h3.5V149.3z"/>
		<path class="st0" d="M25.3,149.1c-0.4,0.2-0.9,0.4-1.4,0.4s-1-0.1-1.4-0.4s-0.8-0.6-1-1c-0.2-0.4-0.4-0.8-0.6-1.3
			c-0.1-0.5-0.2-1-0.2-1.5c0-0.5,0.1-1,0.2-1.5c0.1-0.5,0.3-0.9,0.6-1.3c0.2-0.4,0.6-0.7,1-1s0.9-0.4,1.4-0.4s1,0.1,1.4,0.4
			s0.8,0.6,1,1c0.2,0.4,0.4,0.8,0.6,1.3c0.1,0.5,0.2,1,0.2,1.5c0,0.5-0.1,1-0.2,1.5c-0.1,0.5-0.3,0.9-0.6,1.3
			C26.1,148.6,25.7,148.9,25.3,149.1z M22.5,147.4c0.3,0.5,0.7,0.8,1.3,0.8c0.6,0,1.1-0.3,1.3-0.8c0.3-0.5,0.4-1.2,0.4-2.1
			c0-0.5-0.1-1-0.2-1.4c-0.1-0.4-0.3-0.8-0.6-1c-0.3-0.3-0.6-0.4-1-0.4c-0.4,0-0.8,0.1-1,0.4c-0.3,0.3-0.5,0.6-0.6,1
			c-0.1,0.4-0.2,0.9-0.2,1.4C22.1,146.2,22.2,146.9,22.5,147.4z"/>
		<path class="st0" d="M31.2,149.5c-1.3,0-2.3-0.4-3-1.2l0.8-1c0.6,0.6,1.3,0.9,2.2,0.9c0.5,0,0.9-0.1,1.2-0.4
			c0.3-0.3,0.4-0.6,0.4-1c0-0.4-0.1-0.8-0.4-1c-0.3-0.3-0.7-0.4-1.2-0.4c-0.7,0-1.3,0.2-1.7,0.7l-1-0.3v-4.5h5.2v1.2h-3.8v2.3
			c0.5-0.5,1.1-0.7,1.8-0.7c0.7,0,1.3,0.2,1.8,0.7c0.5,0.5,0.7,1.1,0.7,1.9c0,0.8-0.3,1.5-0.8,2C32.8,149.2,32.1,149.5,31.2,149.5z"
			/>
	</g>
	<g>
		<path class="st0" d="M19.7,115.9h-5.8v-1.1c1.7-1.3,2.8-2.2,3.4-2.8c0.6-0.6,0.9-1.2,0.9-1.7c0-0.4-0.1-0.7-0.4-0.9
			c-0.3-0.2-0.6-0.3-1-0.3c-0.9,0-1.6,0.3-2.2,1l-0.8-0.9c0.3-0.4,0.8-0.7,1.3-1c0.5-0.2,1.1-0.3,1.6-0.3c0.8,0,1.5,0.2,2.1,0.7
			c0.6,0.4,0.8,1,0.8,1.8c0,0.7-0.3,1.4-0.9,2c-0.6,0.7-1.5,1.5-2.6,2.4h3.5V115.9z"/>
		<path class="st0" d="M26.2,115.4c-0.6,0.4-1.3,0.6-2.2,0.6c-0.9,0-1.6-0.2-2.2-0.6c-0.6-0.4-0.9-0.9-0.9-1.6
			c0-0.5,0.2-0.9,0.5-1.3c0.3-0.4,0.8-0.6,1.3-0.8c-0.5-0.2-0.9-0.4-1.2-0.7c-0.3-0.3-0.5-0.7-0.5-1.2c0-0.4,0.1-0.7,0.3-0.9
			c0.2-0.3,0.4-0.5,0.7-0.7c0.3-0.2,0.6-0.3,0.9-0.4c0.3-0.1,0.7-0.1,1.1-0.1c0.4,0,0.7,0,1.1,0.1c0.3,0.1,0.6,0.2,0.9,0.4
			c0.3,0.2,0.5,0.4,0.7,0.7c0.2,0.3,0.3,0.6,0.3,0.9c0,0.9-0.6,1.5-1.7,1.9c0.5,0.2,0.9,0.4,1.3,0.8c0.3,0.4,0.5,0.8,0.5,1.3
			C27.1,114.5,26.8,115,26.2,115.4z M24,114.8c0.5,0,0.8-0.1,1.2-0.3c0.3-0.2,0.5-0.5,0.5-0.8c0-0.4-0.2-0.6-0.6-0.9
			c-0.4-0.2-0.7-0.3-1.1-0.4c-0.2,0-0.4,0.1-0.7,0.2c-0.2,0.1-0.5,0.2-0.7,0.4c-0.2,0.2-0.3,0.4-0.3,0.7c0,0.3,0.2,0.6,0.5,0.8
			C23.1,114.7,23.5,114.8,24,114.8z M24,111.2c0.2,0,0.4-0.1,0.6-0.2c0.2-0.1,0.4-0.2,0.6-0.4c0.2-0.2,0.3-0.4,0.3-0.6
			c0-0.3-0.1-0.6-0.4-0.8c-0.3-0.2-0.6-0.3-1.1-0.3c-0.4,0-0.8,0.1-1.1,0.3c-0.3,0.2-0.4,0.5-0.4,0.8c0,0.2,0.1,0.4,0.3,0.6
			c0.2,0.2,0.4,0.3,0.6,0.4C23.6,111.1,23.8,111.2,24,111.2z"/>
		<path class="st0" d="M31.2,116c-1.3,0-2.3-0.4-3-1.2l0.8-1c0.6,0.6,1.3,0.9,2.2,0.9c0.5,0,0.9-0.1,1.2-0.4c0.3-0.3,0.4-0.6,0.4-1
			c0-0.4-0.1-0.8-0.4-1c-0.3-0.3-0.7-0.4-1.2-0.4c-0.7,0-1.3,0.2-1.7,0.7l-1-0.3v-4.5h5.2v1.2h-3.8v2.3c0.5-0.5,1.1-0.7,1.8-0.7
			c0.7,0,1.3,0.2,1.8,0.7c0.5,0.5,0.7,1.1,0.7,1.9c0,0.8-0.3,1.5-0.8,2S32.1,116,31.2,116z"/>
	</g>
	<g>
		<path class="st0" d="M22.3,86.8h-5.8v-1.1c1.7-1.3,2.8-2.2,3.4-2.8c0.6-0.6,0.9-1.2,0.9-1.7c0-0.4-0.1-0.7-0.4-0.9
			c-0.3-0.2-0.6-0.3-1-0.3c-0.9,0-1.6,0.3-2.2,1L16.4,80c0.3-0.4,0.8-0.7,1.3-1c0.5-0.2,1.1-0.3,1.6-0.3c0.8,0,1.5,0.2,2.1,0.7
			c0.6,0.4,0.8,1,0.8,1.8c0,0.7-0.3,1.4-0.9,2c-0.6,0.7-1.5,1.5-2.6,2.4h3.5V86.8z"/>
		<path class="st0" d="M26.7,86.8h-1.4v-6.2L24,82l-0.8-0.9l2.3-2.3h1.2V86.8z"/>
		<path class="st0" d="M31.2,86.9c-1.3,0-2.3-0.4-3-1.2l0.8-1c0.6,0.6,1.3,0.9,2.2,0.9c0.5,0,0.9-0.1,1.2-0.4c0.3-0.3,0.4-0.6,0.4-1
			c0-0.4-0.1-0.8-0.4-1c-0.3-0.3-0.7-0.4-1.2-0.4c-0.7,0-1.3,0.2-1.7,0.7l-1-0.3v-4.5h5.2V80h-3.8v2.3c0.5-0.5,1.1-0.7,1.8-0.7
			c0.7,0,1.3,0.2,1.8,0.7c0.5,0.5,0.7,1.1,0.7,1.9c0,0.8-0.3,1.5-0.8,2C32.8,86.7,32.1,86.9,31.2,86.9z"/>
	</g>
	<g>
		<path class="st0" d="M19.2,62.2h-5.8v-1.1c1.7-1.3,2.8-2.2,3.4-2.8c0.6-0.6,0.9-1.2,0.9-1.7c0-0.4-0.1-0.7-0.4-0.9
			c-0.3-0.2-0.6-0.3-1-0.3c-0.9,0-1.6,0.3-2.2,1l-0.8-0.9c0.3-0.4,0.8-0.7,1.3-1c0.5-0.2,1.1-0.3,1.6-0.3c0.8,0,1.5,0.2,2.1,0.7
			c0.6,0.4,0.8,1,0.8,1.8c0,0.7-0.3,1.4-0.9,2c-0.6,0.7-1.5,1.5-2.6,2.4h3.5V62.2z"/>
		<path class="st0" d="M25.1,62c-0.4,0.2-0.9,0.4-1.4,0.4c-0.5,0-1-0.1-1.4-0.4c-0.4-0.2-0.8-0.6-1-1c-0.2-0.4-0.4-0.8-0.6-1.3
			c-0.1-0.5-0.2-1-0.2-1.5s0.1-1,0.2-1.5c0.1-0.5,0.3-0.9,0.6-1.3c0.2-0.4,0.6-0.7,1-1c0.4-0.2,0.9-0.4,1.4-0.4c0.5,0,1,0.1,1.4,0.4
			c0.4,0.2,0.8,0.6,1,1c0.2,0.4,0.4,0.8,0.6,1.3c0.1,0.5,0.2,1,0.2,1.5s-0.1,1-0.2,1.5c-0.1,0.5-0.3,0.9-0.6,1.3
			C25.9,61.4,25.5,61.7,25.1,62z M22.3,60.3c0.3,0.5,0.7,0.8,1.3,0.8c0.6,0,1.1-0.3,1.3-0.8c0.3-0.5,0.4-1.2,0.4-2.1
			c0-0.5-0.1-1-0.2-1.4c-0.1-0.4-0.3-0.8-0.6-1c-0.3-0.3-0.6-0.4-1-0.4c-0.4,0-0.8,0.1-1,0.4c-0.3,0.3-0.5,0.6-0.6,1
			c-0.1,0.4-0.2,0.9-0.2,1.4C21.9,59,22,59.7,22.3,60.3z"/>
		<path class="st0" d="M32.5,62c-0.4,0.2-0.9,0.4-1.4,0.4s-1-0.1-1.4-0.4c-0.4-0.2-0.8-0.6-1-1c-0.2-0.4-0.4-0.8-0.6-1.3
			c-0.1-0.5-0.2-1-0.2-1.5s0.1-1,0.2-1.5c0.1-0.5,0.3-0.9,0.6-1.3c0.2-0.4,0.6-0.7,1-1c0.4-0.2,0.9-0.4,1.4-0.4s1,0.1,1.4,0.4
			c0.4,0.2,0.8,0.6,1,1c0.2,0.4,0.4,0.8,0.6,1.3s0.2,1,0.2,1.5s-0.1,1-0.2,1.5s-0.3,0.9-0.6,1.3C33.2,61.4,32.9,61.7,32.5,62z
			 M29.7,60.3c0.3,0.5,0.7,0.8,1.3,0.8c0.6,0,1.1-0.3,1.3-0.8c0.3-0.5,0.4-1.2,0.4-2.1c0-0.5-0.1-1-0.2-1.4c-0.1-0.4-0.3-0.8-0.6-1
			c-0.3-0.3-0.6-0.4-1-0.4c-0.4,0-0.8,0.1-1,0.4c-0.3,0.3-0.5,0.6-0.6,1c-0.1,0.4-0.2,0.9-0.2,1.4C29.3,59,29.4,59.7,29.7,60.3z"/>
	</g>
	<g>
		<path class="st0" d="M19.4,38h-5.8v-1.1c1.7-1.3,2.8-2.2,3.4-2.8c0.6-0.6,0.9-1.2,0.9-1.7c0-0.4-0.1-0.7-0.4-0.9
			c-0.3-0.2-0.6-0.3-1-0.3c-0.9,0-1.6,0.3-2.2,1l-0.8-0.9c0.3-0.4,0.8-0.7,1.3-1c0.5-0.2,1.1-0.3,1.6-0.3c0.8,0,1.5,0.2,2.1,0.7
			c0.6,0.4,0.8,1,0.8,1.8c0,0.7-0.3,1.4-0.9,2c-0.6,0.7-1.5,1.5-2.6,2.4h3.5V38z"/>
		<path class="st0" d="M25.3,37.7c-0.4,0.2-0.9,0.4-1.4,0.4s-1-0.1-1.4-0.4c-0.4-0.2-0.8-0.6-1-1c-0.2-0.4-0.4-0.8-0.6-1.3
			c-0.1-0.5-0.2-1-0.2-1.5s0.1-1,0.2-1.5c0.1-0.5,0.3-0.9,0.6-1.3c0.2-0.4,0.6-0.7,1-1s0.9-0.4,1.4-0.4s1,0.1,1.4,0.4s0.8,0.6,1,1
			c0.2,0.4,0.4,0.8,0.6,1.3s0.2,1,0.2,1.5s-0.1,1-0.2,1.5s-0.3,0.9-0.6,1.3C26.1,37.2,25.7,37.5,25.3,37.7z M22.5,36
			c0.3,0.5,0.7,0.8,1.3,0.8c0.6,0,1.1-0.3,1.3-0.8c0.3-0.5,0.4-1.2,0.4-2.1c0-0.5-0.1-1-0.2-1.4c-0.1-0.4-0.3-0.8-0.6-1
			c-0.3-0.3-0.6-0.4-1-0.4c-0.4,0-0.8,0.1-1,0.4c-0.3,0.3-0.5,0.6-0.6,1c-0.1,0.4-0.2,0.9-0.2,1.4C22.1,34.8,22.2,35.5,22.5,36z"/>
		<path class="st0" d="M31.2,38.1c-1.3,0-2.3-0.4-3-1.2l0.8-1c0.6,0.6,1.3,0.9,2.2,0.9c0.5,0,0.9-0.1,1.2-0.4c0.3-0.3,0.4-0.6,0.4-1
			c0-0.4-0.1-0.8-0.4-1c-0.3-0.3-0.7-0.4-1.2-0.4c-0.7,0-1.3,0.2-1.7,0.7l-1-0.3V30h5.2v1.2h-3.8v2.3c0.5-0.5,1.1-0.7,1.8-0.7
			c0.7,0,1.3,0.2,1.8,0.7c0.5,0.5,0.7,1.1,0.7,1.9c0,0.8-0.3,1.5-0.8,2C32.8,37.9,32.1,38.1,31.2,38.1z"/>
	</g>
	<g>
		<path class="st0" d="M95.5,20.9h-1.4v-6.2L92.8,16L92,15.2l2.3-2.3h1.2V20.9z"/>
		<path class="st0" d="M100.1,21c-0.6,0-1.1-0.1-1.5-0.3c-0.4-0.2-0.8-0.5-1-0.9c-0.3-0.4-0.4-0.8-0.6-1.3c-0.1-0.5-0.2-1-0.2-1.6
			c0-1.2,0.3-2.2,0.9-3c0.6-0.8,1.5-1.2,2.6-1.2c0.9,0,1.7,0.3,2.3,0.9l-0.7,1.1c-0.4-0.5-1-0.7-1.6-0.7c-0.6,0-1.1,0.3-1.5,0.8
			c-0.4,0.5-0.6,1.1-0.6,1.9c0,0.1,0,0.2,0,0.2c0.2-0.3,0.5-0.6,0.9-0.8c0.4-0.2,0.8-0.3,1.3-0.3c0.8,0,1.4,0.2,1.9,0.7
			c0.5,0.5,0.8,1.1,0.8,1.9c0,0.8-0.3,1.4-0.8,1.9C101.7,20.7,101,21,100.1,21z M100.1,19.8c0.5,0,0.9-0.1,1.2-0.4
			c0.3-0.3,0.4-0.6,0.4-1c0-0.5-0.2-0.8-0.5-1.1c-0.3-0.2-0.7-0.4-1.2-0.4c-0.3,0-0.7,0.1-1,0.3c-0.3,0.2-0.6,0.4-0.8,0.7
			c0,0.5,0.2,0.9,0.5,1.3C99.1,19.6,99.5,19.8,100.1,19.8z"/>
		<path class="st0" d="M108.7,20.6c-0.4,0.2-0.9,0.4-1.4,0.4c-0.5,0-1-0.1-1.4-0.4c-0.4-0.2-0.8-0.6-1-1c-0.2-0.4-0.4-0.8-0.6-1.3
			c-0.1-0.5-0.2-1-0.2-1.5s0.1-1,0.2-1.5c0.1-0.5,0.3-0.9,0.6-1.3c0.2-0.4,0.6-0.7,1-1c0.4-0.2,0.9-0.4,1.4-0.4c0.5,0,1,0.1,1.4,0.4
			c0.4,0.2,0.8,0.6,1,1c0.2,0.4,0.4,0.8,0.6,1.3s0.2,1,0.2,1.5s-0.1,1-0.2,1.5s-0.3,0.9-0.6,1.3C109.4,20.1,109.1,20.4,108.7,20.6z
			 M105.9,18.9c0.3,0.5,0.7,0.8,1.3,0.8c0.6,0,1.1-0.3,1.3-0.8c0.3-0.5,0.4-1.2,0.4-2.1c0-0.5-0.1-1-0.2-1.4s-0.3-0.8-0.6-1
			c-0.3-0.3-0.6-0.4-1-0.4c-0.4,0-0.8,0.1-1,0.4c-0.3,0.3-0.5,0.6-0.6,1c-0.1,0.4-0.2,0.9-0.2,1.4C105.5,17.7,105.6,18.4,105.9,18.9
			z"/>
	</g>
	<g>
		<g>
			<path class="st4" d="M158.9,56.9c-12.4-2-25.1-1.4-33,6.6"/>
			<g>
				<path class="st2" d="M126,63.5c0.3,0,0.7,0.2,1,0.5c-0.5-0.1-1.1,0-1.6,0.2c0.2-0.5,0.2-1.1,0.1-1.6
					C125.8,62.8,126,63.1,126,63.5z"/>
			</g>
		</g>
	</g>
	<g>
		<g>
			<path class="st5" d="M160,84.5c-14.2,2.2-25.7-3.5-30.5-9.7"/>
			<g>
				<path class="st2" d="M129.5,74.8c0,0.3-0.3,0.5-0.5,0.7c0.1-0.4,0.1-0.8,0-1.2c0.4,0.2,0.8,0.3,1.2,0.3
					C130.1,74.7,129.8,74.9,129.5,74.8z"/>
			</g>
		</g>
	</g>
	<g>
		<g>
			<path class="st6" d="M41.6,137.9c13.7,0.6,51-7.1,61.6-30.7"/>
			<g>
				<path class="st2" d="M103.2,107.3c-0.2,0.1-0.5,0-0.7-0.1c0.3-0.1,0.6-0.2,0.9-0.4c0,0.3,0.1,0.7,0.2,1
					C103.5,107.6,103.3,107.5,103.2,107.3z"/>
			</g>
		</g>
	</g>
	<g>
		<g>
			<path class="st7" d="M157.9,116.3c-9.9-0.5-26.4,0.5-34-12.9"/>
			<g>
				<path class="st2" d="M124,103.5c-0.1,0.4-0.6,0.8-0.9,1c0.3-0.6,0.4-1.3,0.3-2c0.5,0.4,1.2,0.6,1.9,0.7
					C124.9,103.4,124.4,103.6,124,103.5z"/>
			</g>
		</g>
	</g>
	<g>
		<g>
			<path class="st8" d="M41.6,25.7c17.5,0,35.2,10.7,47.8,35.4"/>
			<g>
				<path class="st2" d="M89.4,61.1c0.1-0.3,0.5-0.7,0.8-0.8c-0.3,0.5-0.4,1.1-0.4,1.7c-0.4-0.4-1-0.6-1.6-0.7
					C88.6,61.1,89,61,89.4,61.1z"/>
			</g>
		</g>
	</g>
	<g>
		<g>
			<path class="st9" d="M40.5,109.4c12.5,1.1,38.7-1.4,48.9-12.3"/>
			<g>
				<path class="st2" d="M89.3,97.2c-0.4,0-0.9-0.3-1.2-0.5c0.7,0.1,1.3,0,1.9-0.3c-0.2,0.6-0.2,1.3-0.1,2
					C89.7,98.1,89.4,97.6,89.3,97.2z"/>
			</g>
		</g>
	</g>
	<g>
		<g>
			<path class="st10" d="M40,56.1c13.8-3.8,22.2-1.7,34.1,10.6"/>
			<g>
				<path class="st2" d="M74,66.7c0-0.1,0.1-0.3,0.2-0.4c0,0.2,0,0.4,0.1,0.6c-0.2-0.1-0.4-0.1-0.6-0.1C73.8,66.8,73.9,66.7,74,66.7
					z"/>
			</g>
		</g>
	</g>
	<g>
		<g>
			<path class="st11" d="M40,77.2c8.9-5,26.7-5.3,42.3,3.3"/>
			<g>
				<path class="st2" d="M82.2,80.4c-0.1-0.3,0-0.7,0.2-1c0.1,0.5,0.2,1,0.6,1.4c-0.5-0.1-1,0.1-1.5,0.3
					C81.6,80.8,81.9,80.5,82.2,80.4z"/>
			</g>
		</g>
	</g>
	<g>
		<g>
			<line class="st12" x1="101.4" y1="26.3" x2="101.4" y2="51.1"/>
			<g>
				<path class="st2" d="M101.4,51.1c0.2-0.2,0.5-0.2,0.7-0.2c-0.3,0.2-0.6,0.5-0.7,0.9c-0.1-0.3-0.4-0.6-0.7-0.9
					C100.9,50.8,101.2,50.9,101.4,51.1z"/>
			</g>
		</g>
	</g>
	<g>
		<path class="st0" d="M171.6,125.7h-5.8v-1.1c1.7-1.3,2.8-2.2,3.4-2.8c0.6-0.6,0.9-1.2,0.9-1.7c0-0.4-0.1-0.7-0.4-0.9
			c-0.3-0.2-0.6-0.3-1-0.3c-0.9,0-1.6,0.3-2.2,1l-0.8-0.9c0.3-0.4,0.8-0.7,1.3-1c0.5-0.2,1.1-0.3,1.6-0.3c0.8,0,1.5,0.2,2.1,0.7
			c0.6,0.4,0.8,1,0.8,1.8c0,0.7-0.3,1.4-0.9,2c-0.6,0.7-1.5,1.5-2.6,2.4h3.5V125.7z"/>
		<path class="st0" d="M175.5,125.8c-0.9,0-1.7-0.3-2.3-0.9l0.6-1.1c0.4,0.5,1,0.7,1.6,0.7c0.7,0,1.2-0.3,1.6-0.8
			c0.4-0.5,0.5-1.1,0.5-1.8v-0.2c-0.2,0.3-0.5,0.6-0.9,0.8c-0.4,0.2-0.8,0.3-1.2,0.3c-0.8,0-1.4-0.2-1.9-0.7
			c-0.5-0.5-0.8-1.1-0.8-1.9c0-0.8,0.3-1.4,0.8-1.9c0.5-0.5,1.3-0.8,2.1-0.8c0.8,0,1.4,0.2,1.9,0.6c0.5,0.4,0.9,0.9,1.1,1.5
			c0.2,0.6,0.3,1.3,0.3,2.1c0,1.2-0.3,2.2-0.9,3C177.5,125.4,176.6,125.8,175.5,125.8z M175.8,121.6c0.3,0,0.7-0.1,1-0.3
			c0.3-0.2,0.6-0.4,0.8-0.7c0-0.5-0.2-0.9-0.5-1.3c-0.3-0.4-0.7-0.6-1.3-0.6c-0.5,0-0.9,0.1-1.2,0.4c-0.3,0.3-0.4,0.6-0.4,1
			c0,0.5,0.2,0.8,0.5,1.1C175,121.5,175.3,121.6,175.8,121.6z"/>
		<path class="st0" d="M183.1,125.8c-1.3,0-2.3-0.4-3-1.2l0.8-1c0.6,0.6,1.3,0.9,2.2,0.9c0.5,0,0.9-0.1,1.2-0.4
			c0.3-0.3,0.4-0.6,0.4-1c0-0.4-0.1-0.8-0.4-1c-0.3-0.3-0.7-0.4-1.2-0.4c-0.7,0-1.3,0.2-1.7,0.7l-1-0.3v-4.5h5.2v1.2h-3.8v2.3
			c0.5-0.5,1.1-0.7,1.8-0.7c0.7,0,1.3,0.2,1.8,0.7c0.5,0.5,0.7,1.1,0.7,1.9c0,0.8-0.3,1.5-0.8,2C184.8,125.6,184,125.8,183.1,125.8z
			"/>
	</g>
</g>
</svg>
