<?xml version="1.0" encoding="utf-8"?>
<!-- Generator: Adobe Illustrator 19.2.0, SVG Export Plug-In . SVG Version: 6.00 Build 0)  -->
<svg version="1.1" id="Layer_1" xmlns="http://www.w3.org/2000/svg" xmlns:xlink="http://www.w3.org/1999/xlink" x="0px" y="0px"
	 viewBox="0 0 215.8 152.7" style="enable-background:new 0 0 215.8 152.7;" xml:space="preserve">
<style type="text/css">
	.st0{fill:#0D92FF;}
	.st1{fill:none;stroke:#00325C;stroke-width:0.2005;stroke-miterlimit:10;}
	.st2{fill:#00325C;}
	.st3{fill:#787878;}
	.st4{fill:none;stroke:#00325C;stroke-width:0.2543;stroke-miterlimit:10;}
	.st5{fill:none;stroke:#00325C;stroke-width:0.2934;stroke-miterlimit:3;}
	.st6{fill:none;stroke:#00325C;stroke-width:0.3423;stroke-miterlimit:10;}
	.st7{fill:none;stroke:#00325C;stroke-width:0.1565;stroke-miterlimit:10;}
	.st8{fill:none;stroke:#00325C;stroke-width:0.2689;stroke-miterlimit:10;}
	.st9{fill:none;stroke:#00325C;stroke-width:0.3667;stroke-miterlimit:10;}
	.st10{fill:none;stroke:#00325C;stroke-width:0.2494;stroke-miterlimit:10;}
	.st11{fill:none;stroke:#00325C;stroke-width:0.1208;stroke-miterlimit:10;}
</style>
<g>
	<path class="st0" d="M153.5,140.2L153.5,140.2l-0.1,0l0,0.1L153.5,140.2L153.5,140.2l0,0.1L153.5,140.2L153.5,140.2L153.5,140.2
		L153.5,140.2L153.5,140.2L153.5,140.2z M153.4,140.5L153.4,140.5L153.4,140.5l0,0.1L153.4,140.5L153.4,140.5L153.4,140.5z
		 M67.2,57.6L67.2,57.6L67.2,57.6L67.2,57.6L67.2,57.6l0-0.1l0,0L67.2,57.6L67.2,57.6L67.2,57.6z M131.9,122.6l-0.1,0l-0.1,0.1
		l-0.1,0.1l-0.2,0.1l0,0.1l0,0.1l0.1,0l0.1-0.1l0.1,0l0.1-0.2L131.9,122.6l0.1,0.1l0-0.1L131.9,122.6L131.9,122.6z M63.5,82.4
		l-0.3-0.1l-0.2,0l-0.1,0l-0.1,0.1l0.1,0.2l0.6,0l0.2,0.1l-0.1-0.1L63.5,82.4z M64.7,79.7L64.7,79.7l-0.3-0.2l-0.1-0.1l0-0.2l0-0.2
		l0-0.1l-0.2-0.1l-0.1,0l-0.4,0l0.1,0.2l0.1,0.4l0.1,0.2l0.2-0.1l0.2,0.1l0.2,0.3l0.1,0.3l0.1,0.1l0-0.2l0-0.2L64.7,79.7z
		 M42.2,62.3L42.2,62.3L42.2,62.3L42,62.1l-0.2,0l-0.3,0.2v0.1l0.2-0.1l0.1,0l0,0.1l0,0l-0.1,0l0,0v0.1l0.1,0l0.4-0.2L42.2,62.3
		L42.2,62.3L42.2,62.3z M70,87.9L70,87.9l0-0.1l0-0.1l-0.1,0l-0.1,0l-0.4,0.1v0.1l0.1,0.1l0.3,0.4l0.1,0l0.4-0.1l0.8,0.5l0.4,0.1
		l0,0l0,0l0.1,0l0.1,0l0.1,0l-0.1-0.2l-0.1-0.2l-0.2-0.1l-0.8-0.1L70.3,88v-0.1h0.1v-0.1l-0.2,0L70,88l-0.2,0l-0.1-0.2l0.1,0
		L70,87.9z M129.9,122.9L129.9,122.9l-0.1,0.1l0,0l0,0l0,0l-0.1,0l-0.2,0l-0.1,0l0,0.1l0.2,0.1l0.1,0l0.1,0l0.1-0.1l0.1-0.1
		L129.9,122.9L129.9,122.9L129.9,122.9z M57.3,75.5L57.3,75.5l-0.4-0.3l0,0L56.7,75l-0.4-0.2l-0.1,0l-0.1-0.1h-0.1l0,0.1L56,74.9
		l0,0.2l0.1,0.2l0.1,0.2l0,0.2l0.1,0.1l0.4,0.1l0.6,0.1l0.2-0.1l0-0.2l-0.1-0.1L57.3,75.5z M71.8,90.6l-0.1-0.1l-0.1,0l-0.1,0
		l-0.1,0l-0.2-0.2L71,90.1L70.7,90l-0.2,0l0.2,0.4l0.1,0.3l0,0.1l0,0.1l0.1,0.2l0.2,0.2l0.2,0.1l0.5,0.5l0.1,0.2l0.1,0.1l0.1,0.4
		l0.1,0.1l0.1-0.2l0.1-0.3l0.1-0.5l0-0.1l-0.1-0.1L72,91.3l-0.1-0.1l0-0.1v-0.1L71.8,91l0-0.1l0-0.1L71.8,90.6z M144.3,56.3
		l-1.2-0.7l-0.1,0l-0.4,0l-0.6-0.2l-0.1,0l-0.2,0.1l-0.1,0l-0.1,0l-0.2-0.1l-0.1,0l-0.1,0l-0.1,0l-0.1,0l-0.1,0l-0.1-0.1l-0.1-0.2
		l-0.1-0.1l-0.2-0.1l-0.3-0.1l-0.2-0.1l-0.1-0.1l-0.2-0.3l-0.1-0.1l0,0l0,0l0.1,0l-0.1-0.2l-0.1-0.1l-0.3,0l0-0.1l-0.2,0l-0.2,0.1
		l-0.1,0.1l0,0.1l-0.1,0.2l0,0.1l-0.1,0l-0.2,0l-0.1,0l0,0.1l-0.1,0.2l0,0l0,0l-0.2-0.1l-0.7,0l-0.1,0l-0.1-0.1l-0.3-0.2l0,0
		l-0.1,0.1l0,0.1l0,0.1l0,0.1l-0.2,0.2l-0.2-0.1l-0.1-0.3l0-0.4l-0.2,0l-0.5-0.3l-0.1,0l-0.2,0l-0.3-0.1l-0.1,0l0,0.2l0.1,0.2l0,0.2
		l-0.1,0.2l-0.1,0l-0.3-0.1l-0.3,0l-0.1,0l-0.1-0.2l0-0.1l0-0.2l0-0.2h0l-0.1,0.1l0,0l0,0l0-0.1l0,0l0-0.1l-0.1-0.2l0,0l-0.1,0l0,0
		l0,0l0-0.1l0-0.1l-0.5-0.5l-0.1-0.2l-0.1-0.1l0-0.1l0.1,0l0-0.1l0-0.1l-0.4-0.4l-0.1-0.1l0,0l0-0.1l0-0.1l0-0.1l-0.1-0.1l-0.7-0.4
		l-0.1,0l-0.1,0l-0.1,0.1l-0.1,0l-0.1,0l-0.2,0l-0.2-0.1l-0.4-0.3l-0.2-0.1l-0.2,0l-0.4,0l0,0.1l-0.2,0l-0.1,0l0,0.1v0.1l0,0.1
		l-0.1,0l-0.1,0.1l-0.1,0l-0.7,0l-0.1,0l-0.1-0.3l-0.1-0.1l-0.5-0.1l-0.2-0.1l-0.1-0.1l-0.2-0.3l-0.1,0l0,0l-0.2-0.1l-0.1,0l-0.1,0
		l-0.1,0.1l-0.1,0l0,0l-0.2,0l-0.2-0.1l-0.2,0h0l-0.2,0.1l-0.1,0.1v0l0,0.1l0,0l0,0l-0.1,0l-0.1,0l-0.1,0l-0.2-0.1l-0.1,0l0,0
		l-0.1,0.1l-0.1,0.1l-0.2,0.1l0,0l-0.2,0l0-0.1l0,0l0-0.1l0-0.1v-0.1l0-0.1l-0.4-0.7l-0.1-0.1l-0.2-0.1l0,0l0,0l0,0h0l0,0l0,0.1
		l0,0.1l0,0l0,0l-0.1,0l0,0v0l0-0.1l0-0.1l0-0.2v0l0,0l0.1,0l0,0l0,0l-0.1-0.2l-0.2-0.2l-0.2-0.2l-0.1,0l-0.1,0l-0.1,0l-0.2,0.1
		l-0.2-0.1l-0.1-0.1l0,0l-0.1-0.1l-0.2-0.3l-0.1-0.2l-0.1-0.1l-0.1,0l-0.2-0.1l-0.2-0.1l-0.3-0.3l-0.1-0.1l0,0l-0.1,0l-0.1,0
		l-0.2,0.1l-0.2,0.1l-0.1,0l0,0l-0.1,0l-0.1,0v0l-0.1-0.1l0-0.2v-0.2l0-0.1v0L119,46l0-0.1l0-0.1l0.1-0.1l0,0l0,0l0,0l0-0.1l0,0
		l0-0.1l0-0.1l0-0.1l0-0.1l-0.1-0.2l0,0v0l-0.2-0.1l-0.2-0.1h0l-0.1-0.2l0-0.2l0.2-0.5l0.1-0.2l0,0l0-0.1l0-0.1l0-0.1l0,0l0-0.1
		l0.1-0.2v0l0,0l0.1,0.1l0,0l0-0.1l0-0.1l0-0.2l0-0.1l0-0.2l-0.1-0.1l-0.2,0.1l-0.1,0l0-0.2l0,0l-0.2,0.1l-0.8,0.8l0,0.1l0,0.1
		l0,0.1l0,0l0,0l0,0l0,0l0,0l0,0.1l0,0.3l-0.1,0.2l0,0l-0.1,0.1l-0.1,0l0,0l-0.3,0.1l-0.3,0.1l-0.8,0.4l-0.2,0l-1-0.3l-0.2-0.1
		l-0.2,0l-0.4,0.1l-0.1,0l0,0l-0.4-0.2h0l0.1,0l0-0.1l0-0.1l0-0.1l0-0.1l0,0h0l0-0.1l0-0.1l0,0l0,0l0.1-0.1l0.1-0.1l0.1-0.1l0.1-0.1
		l0.1,0l0.1-0.1l0.1,0l0-0.1v0l-0.1-0.1l0-0.1l0,0l-0.1-0.5l-0.1,0l-0.1,0l-0.2,0.1l0,0l-0.1,0l0-0.2l0,0l0.1-0.3l0.1-0.2l0-0.2
		l0-0.1l0,0l0.1-0.1l0.2-0.1l0,0l0.1-0.1l0-0.1l0-0.1l0-0.1l-0.1-0.1l-0.1,0l0,0l-0.1,0l-0.1,0h0l0,0.1l0,0l0,0h0l0,0l0,0l-0.1,0
		l0,0l-0.2-0.4l0-0.1l0,0l-0.2-0.1l-0.1-0.1l-0.1,0l-0.3-0.3l0,0l-0.1-0.1l-0.1,0l-0.1,0l-0.3,0.1l-0.2,0.1h-0.2l0,0l-0.1-0.1
		l-0.1-0.1l-0.1,0l-0.2-0.1l-0.3,0l-0.3,0l0,0l-0.1,0l-0.1,0.1l-0.1,0.2l0,0.1l0,0l0,0l0,0l0,0l0,0l0,0l0,0.1l-0.3-0.3l-0.1-0.5
		l0-0.6l-0.1-0.5l-0.1-0.2l-0.2-0.1l-0.2-0.1l-0.2,0l-0.5,0h0l-0.1-0.1h0l0.1-0.1l0,0l0-0.1l-0.1-0.1l0,0l-0.1,0l-0.1,0l0,0l-0.1,0
		l0,0l0,0l0,0l0,0l-0.1,0.1l-0.3,0.1l-0.1,0l-0.1,0l-0.1,0l-0.1,0l-0.3-0.2l-0.1-0.1l-0.1-0.1l0,0l0-0.1l0-0.4l-0.2-0.7l-0.1-0.4
		l0.1-0.1l0.1-0.1l0-0.1l-0.1-0.2l-0.1-0.1l0,0l-0.1,0v0l-0.1,0l-0.1-0.1l-0.1-0.2L106,35l0-0.1l-0.1-0.2l-0.1-0.1l-0.2,0l0,0
		l-0.4,0.1l-0.2,0.1l-0.1,0l-0.3,0.1l-0.1,0.1l-0.1,0.1l-0.1,0.1l-0.1,0.1l-0.1,0.2l-0.1,0.2l-0.1,0.1l0,0l-0.1,0l0,0l0,0l0,0
		l-0.5-0.2l-0.1,0l0,0l-0.1-0.1l0,0l0,0l-0.1-0.2l0-0.1l0,0l-0.3-0.2l-0.1-0.1l0-0.1h0l0-0.1l-0.1-0.1l0,0l-0.1,0l-0.1,0l-0.1,0
		l-0.1,0l0,0l0,0l0-0.1l0-0.1l0-0.1l0,0l0,0l0,0l-0.1,0l0,0l0,0v0l0,0l0,0l0.1-0.1l0-0.1l-0.1-0.3l-0.1-0.3l0-0.1l0.1-0.1l0.1-0.1
		l0,0l0,0l0-0.2l-0.1-0.2h0l-0.3-0.3l-0.1-0.2l0-0.1l-0.1-0.4l0,0l-0.1-0.2l-0.1,0.1l-0.3,0.2l-0.6,0.2l-0.5-0.1l-0.1,0l-0.1,0
		L98,31.7l-1.2,0.2L96.5,32l-0.1,0l-1.5,0.7l-0.2,0.2l-0.2,0.3l-0.1,0.1l-0.1,0.1l-0.2,0l-0.1,0l-0.2,0.2l0,0.1l0,0.2l0.1,0.5l0,0.3
		l0,0.2l-0.1,0.2l-0.2,0.5l0,0.2l0,0.3l0.1,0.5l0,0.6l0,0.2l0.2,0.3l-0.2,0.2l0,0.5l0,0.6l-0.1,0.4v0.1l0.4,0.3v0.1l-0.3-0.1
		l-0.2,0.3l-0.1,0.5l0,0.4l0.1,0.1l0.3,0.2l0.1,0.2l0,0.1l0.1,0.1l0.2,0.1l0.2,0v0.1h-0.2l0,0.1l0,0.1l0.1,0l0.1,0v0.1l-0.1,0.1
		l-0.1,0l-0.8-0.4l-0.3,0L93,41.9l-0.2,0.6l-0.1,0.1l-0.1,0.1l-0.4,0.5l-1,0.8l-0.3,0.3l-0.2,0.1l-0.2,0.1l-3.2,1l-0.7,0l-0.6,0.2
		l-0.3,0.2l-0.3,0.1l-1,0.6l-0.1,0.1l-1,0.5l-0.1,0.1l-0.1,0l-0.4,0.3l-0.1,0.1l-0.3,1.1L82,49.6l0,0.1l0,0.1l0,0.1l0.1,0.1l0,0.1
		l0.1,0.1l0.2,0.1l0.2,0.1l0.1,0h0.2l0.6,0.2l0.6,0.1l0.6-0.1l0.6-0.3l-0.1,0.2L85,50.5l-0.4,0.2l-1.9,0.4l-0.5,0.4L82,51.8
		l-0.1,0.1l-0.2,0l-0.2,0.2l-0.4,0.2l-1.2,0.3l-0.2,0.2L79,52.3l-0.4-0.1l-0.2-0.2L78.2,52h-0.5l-0.3-0.1l-0.2,0L76.9,52l-0.2,0
		l-0.3-0.1L75,51.8l-0.9-0.4l-1-0.1l-0.1,0.1l-0.1,0.1l-0.1,0.2l0.1,0.1v0.1l-0.2,0l-0.1,0l-0.1-0.1l-0.1-0.1l-0.1,0l-0.1,0.1
		l-0.1,0l0-0.1l0,0l0-0.1l0-0.1l0-0.1l0-0.3L72.2,51l-0.6-0.7l-0.1-0.3l-0.1-0.2l-0.1-0.2l0-0.3l0-0.1l0.1,0l0.2,0l0-0.1l0-0.1
		l0-0.1l0.2-0.1l0-0.2l-0.2-0.4l0-0.2l0-0.1l-0.1,0l-0.9-0.2l-0.1,0l-0.4,0.1L70,47.8l-0.2,0.3l-0.1,0.1l-0.1,0.1l-0.1,0l-0.2-0.1
		l-0.1,0l-0.1,0L69,48.3l-0.1,0l-0.1,0l0-0.1l0-0.1l0,0l-0.1,0L68.1,48l-0.5-0.1l-0.2-0.1l0,0l-0.1,0l0,0l0-0.1l0-0.1l0-0.1l-0.1,0
		l-0.2,0l-0.1,0l-0.2-0.1l-0.1,0l-0.2,0l0,0.1l0,0.2L66.3,48l0.3,0.1l0.3,0l0.1,0.1l0,0.1l0.1,0.1l0.1,0.2l0,0.2l0,0.4l0,0.1
		l-0.2,0.2l0,0.2l0,0.1l0.2,0.2l0.1,0.1l0,0.1l0,0.1l0,0.1l0.1,0.2l0,0.1l0,0.1l0,0.2l0,0.4l0,0.2l0.1,0.1l0.1,0l0.1,0l0.1,0l0,0
		l0,0l0,0.1l0.2,0.1l0.2,0.2l0.1,0.1l0.1-0.2h0.1l0.1,0.2v0.1h-0.2l0.1,0.2l0.1,0.1l0.2,0.2l0,0l0,0l-0.1,0.1l0.1,0.1l0.1,0.4
		l0.1,0.1l0.1-0.2l0.2,0l0.2,0.1l0.2,0v0.1l-0.3-0.1l-0.1,0l-0.1,0.1l0,0.2l0,0.2l0.1,0.2l0.1,0.2l0-0.1l0,0l0.1,0.1l-0.2,0.1
		L69,54.6l-0.1,0.2l0,0.2l0,0.1l0,0.1l0.1,0l0,0.1l0,0.1l0,0.3l0,0.1l0.1,0.1l0.1,0.1l0,0l0.1-0.2l0.1-0.1h0.2l0.1,0.1v0.1l-0.2-0.1
		l-0.1,0.1l-0.1,0.2l-0.1,0.7l0,0.1l0.1,0l0,0.1l0,0.1l0,0.1l-0.1-0.1L69.3,57l-0.1,0.6l-0.1,0.1l-0.1,0.1l-0.1,0.1v0.1l0.2,0
		l0.1,0.2l0,0.3l0,0.3l0.1,0.3l0.3,0.3l0.1,0.3l0,0.1l0.1,0.1l0.3,0.1l0,0l0,0.1l0,0.1l0,0.1l0,0l0,0v0l0.3,0l0.2,0.1l0.1,0.2
		l-0.3-0.1l-0.8,0.2l-0.6-0.1l-0.1,0l-0.4,0.2L68,60.6l-0.6,0l-0.3-0.1l-0.2-0.2l0-0.3l0.2-0.3l-0.1-0.1l0-0.1l0-0.1l0-0.1l-0.8,0.2
		l0,0.1H66l-0.1,0l0,0.1v0.1l0,0l-0.1,0l-0.1,0.1l-0.1,0.1l0,0.1l0.1,0.1l0.1,0.3l0.1,0.1l0.1,0l0.1,0l0.1,0.1l0.1,0.1L66.1,61l0,0
		l0-0.1H66l0,0.2l0.1,0.2l0,0.1l0.2,0.2l-0.2,0.2L66,61.8l0-0.3l0-0.2l-0.2-0.3l0,0l0-0.1l-0.1,0l-0.1-0.1l0-0.1l0-0.1l-0.2-0.3
		l0-0.1l-0.4,0l-0.3,0.1l0.1,0.2l0,0.1l0.1,0.1l-0.1-0.1l-0.1,0l-0.1,0.1l-0.1,0.1l0.1,0.1l0,0v0.1L64.5,61l-0.1-0.1l0-0.1l0-0.2
		l0,0.1l0,0.1L64.3,61l-0.1,0l0-0.1l0-0.1l-0.1-0.1l-0.1,0l0-0.1l0-0.3l0-0.1l-0.2,0.1l-0.2,0.2l-0.1,0.1l-0.1-0.1l0.2-0.2l0-0.1
		l0-0.1l0-0.1l0.1,0v-0.1l-0.1,0l-0.1,0l-0.1-0.1l0-0.1l-0.1,0.2L63.1,60l-0.2,0.2l-0.2,0.1l-0.1-0.2l-0.2,0l-0.3,0.1l0.2,0.1l0.1,0
		v0.1l-0.1,0.1l-0.5,0.3l-0.1,0l-0.1,0.1L61.4,61l-0.2,0.3L61,61.4l-0.1,0.1l-0.3,0l0,0.1l0,0.2l0,0.1l-0.1-0.1l-0.1-0.1l-0.1-0.1
		l-0.1,0l-0.1,0l0.1-0.1l0-0.1l0-0.1l0-0.1L59.9,61l-0.2-0.1l-0.1,0l0,0l0-0.1l0-0.1l0-0.1l0-0.1l0-0.1l-0.1-0.3l-0.5-0.4l-0.1-0.1
		l-0.1-0.1l-0.1-0.1l-0.1-0.1v-0.1l0,0l0.1-0.1l0-0.1v-0.1l0-0.1l-0.2-0.1l-0.4,0l-0.2-0.1v-0.1h-0.1v-0.1l0.1-0.1l0.1,0l0.1,0v-0.1
		l0,0h0l0,0l0.1-0.1l-0.1-0.1l-0.1,0l-0.1,0l-0.1,0.1l-0.1,0l-0.2,0.2l-0.3,0.5h-0.1v-0.1l0.2-0.2l0.1-0.1l0.1-0.3l0.1-0.1L57.4,58
		v-0.1l0.1-0.1l0-0.1l-0.1-0.1l-0.1-0.1l-0.1,0L57,57.7l-0.1,0l-0.1,0.1L56.7,58l-0.2,0.3l-0.1,0.1l0,0.1l0-0.1l0,0l0-0.1l0.1-0.1
		l0.1-0.2l0-0.2l-0.1-0.2l-0.1,0l-0.2,0.3l-0.1,0h-0.1l-0.1,0.1l-0.7,0.2l-0.1,0l-0.1,0.1l-0.1,0l-0.1,0l-0.2,0l0-0.1l0,0l0,0l0,0
		l-0.1,0L54.4,58l-0.2,0l-0.1-0.1h0l0,0.1l-0.2,0.3l-0.2,0.1l-0.1,0.1l0,0.2l0.3,0.3l0.1,0.1l-0.4,0.1l0,0.1l0,0.2l0.1,0.3l-0.1,0.1
		l-0.2,0l-0.2-0.1l0-0.2l-0.3,0.1l-0.1,0l-0.1,0l-0.2-0.2l-0.1,0l-0.4,0l-0.1,0l-0.1-0.1l0,0.1l0,0.1l0,0.1l0,0.1l-0.1-0.1l-0.1,0.1
		l0,0.2l0,0.2l-0.1-0.1l0,0l0-0.1h0l0,0.2l0,0.1l0,0.1l-0.1,0.1l0.1,0.1l-0.1,0.1l-0.1-0.1l-0.2-0.1L51,60V60l0,0l0.1-0.1l-0.2,0
		l-0.1,0.1l-0.2,0.2l0-0.1l0-0.1l-0.1-0.1l-0.1-0.1v-0.1h0.1v-0.1l-0.1,0l0-0.1l0-0.1l0-0.1l0,0l-0.3,0.1l-0.2,0.1l-0.1,0l-0.1,0
		l0,0.1l0,0.1l0,0.1l-0.1,0.1h0l0-0.1l0-0.1h0l0,0.1l-0.1-0.1l-0.2,0l-0.2,0L49,59.7l-0.1,0.1l-0.1,0.1l0,0.1l0.1,0v0.1h-0.1
		l-0.2-0.1l-0.1,0l-0.1,0l-0.2,0.1l-0.2,0L48,60l-0.1-0.2l-0.2,0l-0.2,0.1l-0.2,0.1l-0.2,0v0.1l0,0l0.1,0.1l-0.2,0l-0.3,0.1l-0.2,0
		h-0.6v0.1l0.1,0l0,0l0,0l0,0l0.2,0.1l-0.1,0l-0.4-0.1l-0.1,0.1l0.1,0.2l0.2,0.2l-0.1,0L45.5,61l-0.2,0l-0.2,0l-0.1,0l-0.1,0.1
		l0.1,0.1l-0.1,0l-0.1-0.1l-0.1,0.2l-0.2,0.4l-0.1,0.3l0.2,0.1v0.1l-0.1,0l-0.1,0.2l0,0.2l0,0.2l0.1,0.3l0,0.1l-0.1,0l0,0.2l0.1,0.1
		l0.1,0l0.4,0l0.1,0l0-0.1l0-0.1l0,0l0.2,0l0.3,0.1l0.1,0l0.2,0l0.2-0.1l0.4-0.1l0.5-0.3l0.2-0.1l0.5-0.1l0.2-0.1l0.2-0.1l0.1,0
		l-0.7,0.4l-0.1,0.1l-0.4,0.5v0.1l0.1,0l0.1,0l0.1,0l0.1-0.1l0.1,0.1l0,0l0,0l0,0l0.2,0l0.2-0.2l0.1,0.1l0-0.1l0-0.1l0-0.1h0.1v0.1
		h-0.1v0.1l0.1,0l0.2-0.1h0.1l-0.2,0.2L48,63.8l0,0l0,0l-0.1,0l0,0L47.8,64l0.3,0l0,0l0,0.1l0.1,0l0.1,0l0.1-0.1l0,0.1l0.1,0l0.2,0
		v0.1l-0.6,0.1L48,64.4l0.1,0l0,0l0,0l-0.5,0l-0.4,0.1l-0.1,0l-0.1,0l-0.1,0l-0.1-0.1l-0.1,0l-0.7,0l-0.2-0.1l0.1-0.4l-0.1-0.1
		L46,63.8l-0.1,0.4l0,0l0,0.1l0,0.1l-0.1,0l-0.1,0l-0.1,0l-0.1,0l-0.1,0l0,0.1l0,0.1l0.5,0l0.1,0l0.1,0.1l0,0L46,64.9l0,0.1l0,0.1
		l0,0.1l0.1,0.1l0,0.1L46,65.7l0.2-0.1l0.1-0.2l0.1-0.3l0.1-0.2l0.2-0.1l0.4,0.3l0.2-0.1l0,0.1l0,0.1l0,0.1l0.1,0l0.3,0.1l0.1,0.1
		l0,0.3l0,0.1l0.1,0.1l0,0.1l-0.1,0.3l0,0.1l-0.1,0l-0.4-0.1L45,67l0,0l-0.1-0.1l0,0l0,0l0,0l0,0l0,0.1l0,0.1l0,0.1l-0.1,0l0.6,0.2
		l0.3,0l0.1,0l0.2,0.2l0.1-0.1l0.1-0.1l0.1-0.1l0.1,0l0.7,0.5l0.4,0.5l0.1,0.2l0.1,0.3l0.1,0.3l0,0.2l0,0.1l-0.1,0h-0.1l0,0l0,0.1
		l0,0.2l0,0.1l1.1,0.1l0.2-0.1l0.1-0.1l0.3-0.2v-0.1h-0.2v-0.1l0,0l0,0l-0.1-0.1l0-0.1l0.1,0l0.1,0.3l0.1-0.1l0.1-0.1l0.1,0l0.1,0
		v-0.1l-0.1-0.1L49.2,69l0-0.2l0.1-0.1l0,0.2l0.1,0.2l0.1,0.1l0.1,0.1l0.1,0l0.1,0l0.2,0.2l0-0.1l0.1,0l0.1,0l0.1,0l0,0.1l0,0.1
		l-0.1,0l-0.1,0l0.2,0l0.2-0.2l0.1-0.2l-0.1-0.2l0.2,0l0.2,0.1l0.1,0.2l0,0.1l0.1,0.1l0,0l0.1,0l0,0.1l0,0.1l0.1,0l0.1,0.1l0.1,0.3
		l0,0l0.1,0l0.2,0l0.2,0l0.1,0.1l0.4-0.2l0.1,0l0.1,0.2l0.1,0.1l0.3,0l0,0l0.1,0.1l0.1,0l0.1,0l0.2,0l0.3,0.1l0.1,0l0.1-0.1l0,0.1
		l0,0l0.1,0.1l0.1,0.2l0.2,0.3l0,0.1l0.1,0l0.6-0.2V71l0-0.1l0,0l-0.1,0l0.2,0l0.2-0.1l0.2-0.2l0.2-0.2v0.1l-0.1,0.1l-0.1,0.1
		l-0.1,0.3l0,0l-0.1,0l0,0v0.1l0,0.1l0,0l-0.1,0v0.1l0.3,0l0.1,0l0.1,0.1v0.1l-0.3-0.1l-0.1,0l-0.1,0.1l0.2,0l0.3,0.1l0.2,0.1
		l0.2,0.3l0.1,0l0.1,0l0-0.1l0-0.1l0.1-0.1l-0.1-0.1l0,0l0.1,0l0.1-0.1l0.1,0l0.1,0.1l0,0l0,0l0,0l0,0l0-0.2l0-0.1l-0.1-0.1l-0.1,0
		l0.1,0l0.1,0.1l0.1,0l0.1-0.1h0l0,0.1l0,0.2l0,0l0.1,0l0,0V71l0,0.1l0,0.1l0,0.1l-0.6,0.3l-0.1,0.3l0,0.1l0,0.1l0.1,0l0.1,0l0.1,0
		l0.1,0.1l0.1,0.1l0.1,0.2l0,0.3l0,0.2L57,73.2l0,0.1l0,0.1l0.1,0.3h0l0.1-0.1l0.2,0l0.1,0l-0.2-0.2l-0.1-0.3l0-0.3l0.1-0.4l0,0l0,0
		l0,0l0.1-0.1l0.1,0l0.1,0.1l0.1,0.1l-0.1,0l-0.1,0l0.1,0.1l0.1,0l0.2-0.1l0.1,0.1l0,0l0.1,0l0-0.2l0-0.1l0.1,0l0,0.2l0,0.2l0.1,0
		l0-0.1l0-0.2l0.1,0.1l0.1,0.1l0.1,0.1l0.1,0l0.1,0.1l0,0l0,0l0,0l0-0.1l-0.1-0.1l-0.1-0.1l-0.1-0.1l0-0.1V72l0-0.1l0-0.1l0-0.1h0.1
		l0,0.1l0.1,0.1l0.1,0.1l0.1,0L58.5,72l0,0.1l0,0.1l0,0.1h0.1l0,0l0,0l0.1,0v0.1h-0.1v0.1l0.3-0.1l0.2-0.1l0.1-0.1l0.1-0.1l0.4,0
		l0.2-0.1l-0.1-0.1l0.2,0l0.1,0.1l0.1,0.1L60,72.1l-0.2,0l0.4,0.2l0,0.1l0.1,0l0,0l0-0.1l-0.1-0.1l0.1,0l0-0.1l0-0.1L60.4,72v-0.1
		l0.2,0.2l0,0.2l-0.3,0.4l0.1,0.1L60.1,73l-0.2,0l-0.2-0.1l-0.1-0.1l0,0.2l0,0.1l-0.1-0.1l-0.1,0l0,0l0,0.1h-0.1l-0.1-0.2h-0.2
		l-0.1,0.1l0.1,0.1l0,0.1l0,0l0,0l0.1,0l0.1,0l0,0.1l0,0l0.1,0.2l0,0l0.1,0.1l0.1,0.1l0.1,0l0.2,0l0.4-0.1l0.1,0l0.3,0.1l0.1-0.1
		l0-0.3l0.1,0.1l0.1,0l0.2,0l0-0.1l0,0l0,0l-0.1,0l0.1,0l0.1,0l0.1,0l0.1-0.1l-0.1,0.2l-0.1,0.1l-0.1,0.1l-0.1,0l0.1,0.1l0,0l0,0
		l0.1,0h0.3l0.3-0.1l0.1,0l0.1,0l0.6,0.2l0.1,0l0.2,0l0.1,0l-0.2,0l-0.3,0.1l-0.5,0L62,73.6l0.1,0.2L62.1,74l0.1,0.1l0.2,0l0.1,0.1
		l-0.1,0.2l0.1,0l0.2,0l0.1,0l0,0.1l-0.3,0.1l-0.1,0.1l-0.1-0.1l0,0l0,0l0-0.1l-0.1,0l-0.1,0l-0.1,0l-0.6,0.4l0.3,0.2l0.1,0.2l0,0.3
		H62l0-0.1l0,0l0-0.1l0,0l0,0l0.1,0l0.1,0.2l0.2,0.2l0.1,0.2l-0.1,0.2l-0.2,0l-0.3-0.2l-0.2,0v0.1l0.7,0.4l0.2,0l0,0l0-0.1l0-0.1
		l0.1-0.1l0.1,0l0.1,0l0.1,0l0.1,0.1l0.2,0.2l0.1,0.1l0.1,0.1l0.2,0l0.1-0.1l0.2-0.2l0.2-0.1l0.1-0.1l0-0.1l0-0.1l0.1-0.1l0.2-0.1
		l1.1-0.1l0.3,0.1l0.1,0.1l0.1,0l0.2,0l0.2,0.1l0.3,0.2l0.3,0.2l0.2,0.3l0.1,0.1l0.3,0.1l0.2,0.1l-0.4,0l-0.2-0.1l-0.2-0.2l-0.1-0.1
		l-0.3-0.1l-0.3-0.2v-0.1h0.2l-0.1-0.1l-0.1,0l-0.1,0h-0.1l0.1,0.1l-0.1,0L65.9,76l-0.1-0.1l-0.1-0.1l-0.1,0l-0.1,0l-0.1,0L64.9,76
		l-0.2,0.1l-0.1,0.1l-0.1,0.1l0,0.1l0,0.1l0,0.2l0.1,0.2l0,0.2l0,0.2l0,0.1l-0.1,0l-0.3,0l-0.1,0.1l-0.1,0.1L64,77.6l0.3,0.2
		l0.9,0.2l0.5,0.3l0.1,0.1l0.1,0.1l0.1,0.2l0,0.2L65.8,79l-0.1,0.2l-0.1,0.4l-0.1,0.2l-0.3,0.2L65.1,80l0,0.2l-0.2,0.1l-0.1,0.1
		l0,0.2l0,0.2l0,0.2l0.1,0.2l0.1,0.1l0.2,0.1l0.2,0.2l0.4,0.5l0.2,0.5l0.1,0.1l0.1,0l0.1,0l0.1,0.1l0.1,0.3l0.1,0.1l0.1,0.1l0.1,0.1
		l0,0.1l0,0.2l0.1,0.1l0.1,0.1l0,0.2l0.2,0.8l0.1,0.1l0.1,0l0,0l0-0.1l0-0.2l0-0.1l0.1,0.1l0.1,0.2l0.1,0.1l0.1,0.1l0.2,0.1l0.3,0.2
		l0.4,0.1l0.1,0.1l-0.1,0.1l0.2,0.1l0.5,0l0.2,0l0.2,0.1l0.1,0.2l0,0.3l0.1,0.2l0.2,0l0.4-0.1l0.1,0l0.2,0.2l0.2,0.1l0.1,0l0.1,0
		l0.1,0.2l0.1,0.2l0.2,0.1l0-0.4l0.3-0.2l0.3,0l0.2,0.2l0,0.2l0,0.1l0,0.1l-0.1,0.1L72.2,88l-0.1,0.1l0,0.2l-0.1,0L72,88.5L72,88.6
		l0,0.1l0.1,0.1l0.1,0l0.1,0l0.1,0l0.1,0l0,0l0,0l0,0.1l0,0.1l0,0l0.1,0l0.2,0.1l-0.1,0.1v0l0,0l0,0.1l0,0l0.1,0l0,0l0,0l0,0.1
		l0.1,0.2l0,0.1l0,0.1l0.1,0.1l0.1,0l0,0.1l0,0v0.1l-0.1,0.2l-0.1,0.1l-0.1,0l-0.2-0.1l0.1,0.4l0.1,0.1l0.1,0.1l0,0L73,91l0,0l0,0.1
		l0.1,0.1l0,0.1l0,0.1l0,0.1l0,0l-0.1,0l-0.1,0l-0.1,0.1l-0.1,0.1l0,0l0,0.1l-0.1,0.1l-0.1,0l0.1,0.1l0.1,0.2l0,0.2l0,0.1l0,0.1
		l0.2,0.2l0.7,0.6l0.2,0.2l-0.5-0.3l-0.1-0.1L73,93.3l-0.5-0.6l-0.2,0l-0.5,0.2l0,0.1l-0.1,0.8l0.1,0.1l0.3-0.1l0.1,0.1l0.1,0.1
		l0.1,0.1l0.1,0.1l0.1,0l0.2,0.1l0.4,0.4l0.3,0.1l0,0l0,0.2l0,0l1.1,0.8l0.4,0.4l0.2,0.3l0.2,0.3l0.3,0.7l0.1,0.4l0.3,2.1l0.1,0.3
		l0.1,0.3l0.3,0.2l0.3,0.1l0.3,0.2l0.2,0.3l-0.2-0.1l-0.2-0.1l-0.2,0l-0.2,0l0.2,0.1l0.2,0.2l0.1,0.2l-0.1,0.3l0,0.1l0,0.3l0,0.2
		l-0.1-0.1l-0.1-0.2l0-0.2l0-0.2l0-0.2l0-0.1l-0.1-0.1l-0.1-0.1l-0.3-0.1l-0.3-0.3l-0.3-0.3l-0.3-0.6l0-0.1l-0.1-1l-0.1-0.4l0-0.2
		L75.5,98l-0.2-0.3l-0.9-1l-0.1,0l-0.3-0.2L73.3,96l-0.1-0.1l-0.1-0.1l0-0.1l0-0.1l0-0.1l0,0l0-0.1l0-0.1l0,0l-0.1,0l-0.1,0
		l-0.1,0.2L72.6,96l0,0.2l-0.1,2.3l-0.3,1.7l-0.5,5.4l0.1-0.1l0.1-0.3l0.1-0.5l0.4-0.5l0.1-0.1l0,0l0,0l0,0l0,0l0.1,0l0,0l0,0l0,0
		l0.1,0l0.6,0.6l0.1,0.2h-0.1l0.2,0.2l0,0.2l-0.2,0.1l-0.3,0l-0.5-0.1l-0.2,0l-0.2,0.2l-0.1,0.5l0,0.1l0,0.1l-0.2,0.3l0,0.1l0.1,0.3
		l0,0.2l-0.1,0.7l-0.2,1.5l-0.5,3.1l-0.3,1.4l-0.2,0.6l-0.3,1.8l-0.2,0.6l-0.1,0.3l-0.1,0.4l-0.1,0.1l-0.4,0.3l-0.1,0.1l0,0.1
		l-0.2,0.3l-0.1,0.1l-0.1,0.1l-0.2,0.1l-0.2,0.1l-0.7,0.1l-0.1,0.1l-0.1,0.1l-0.1-0.1l0,0.3l0,0.2l0,0.1l0.2,0.1l0.1,0.1l0,0.2
		l0,0.1l0.1,0l0.1,0l0.2,0l0.2-0.1l0.1,0l0.1,0.1l0.1,0.1l0,0.1l0,0.1l0,0.1l0.1,0.2l0,0l0.1,0l0.1,0l0.1,0l0.1,0l0-0.1l0.1-0.2
		l0.1-0.1l0.2,0l0.2,0.1l0.3,0.2l0.1,0l0.1,0h0.1l0.2,0.2l0,0.4l-0.1,0.4l-0.1,0.3l-0.1,0.1l-0.3,0.3l-0.1,0.1l0.1,0.2l0.1,0.2
		l0.2,0.1l0.2,0l0.2,0l0.1,0l0.1-0.1l0-0.3l0.1-0.2l0.1-0.2l0.2-0.1l0.2,0l-0.2,0.1l-0.1,0.1l0,0.1l0.1,0.2l0.1,0.1l0.5,0.1l0.3,0.1
		l0.3,0.2l0.3,0l0.1,0l0.1,0.1l0.1,0l0.3,0l0.1,0l0.1,0.1l0.3,0.2l0.3,0.1l0.6,0.1l0.6-0.1l0.2,0.1l0.1,0.4l0,0.1l0,0l0,0.1l0,0.1
		l0.1,0.1l0.1,0l0.1,0l0.1,0l0.3,0.2l0.1,0.1l0.3,0.4l0,0l0,0l0,0l0.1,0h0.1l0,0l0,0.1l0,0.1l0,0.1l0.1,0l0.1,0l0.1-0.1l0.1,0l0-0.3
		l0.2,0l0.4,0.2l0.2,0l0.2-0.1l0.4-0.3l0.1,0.1l0.1,0l0.1-0.1l0-0.1l0.1,0.1l0.5,0.3l0.1,0.2l0.2,0l0.2-0.1l0.1-0.1l0,0.2l0,0.2
		l0.1,0.2l0.1,0.1l0,0.1l0,0.1l0,0.1l0.1,0l0.1,0l0.1,0l0,0.1l0,0l0.3,0.1l0.3,0l0.6-0.2l0.5-0.1l0.1-0.1l0.1,0l0.4,0.1l0.1,0.1
		l0.2,0.3l0.1,0.1l0.1,0l0.2-0.3l0.1-0.1l0.1-0.1l0.2,0.2l0,0l0,0l0,0l0,0l0.2,0l0.2,0l0.3-0.1l0.1,0.1l1,0l0.3,0l0.1,0l0.1-0.1
		l0-0.2l-0.1-0.2l-0.1-0.1l-0.1,0l0-0.1l0,0l0.1,0l-0.1-0.1l0.1-0.3l0-0.2l0-0.2l0.2-0.1l0.2,0l0.1,0l0.3,0.1l0.1,0l0.2,0l0.1,0
		l0.3,0.2l0.2,0.1l0.1,0.1l0.1,0.1l0.1,0l0.1,0l0.1-0.1l0.1,0l0.1,0l0.1,0.1l0.1,0l0.7,0l0.2,0.1l0.1,0.1l0.1,0.1l0.1,0.2l0.1,0.1
		l0.1,0.1l0.1,0l0.3-0.1l1,0l0.2,0l0,0.2l0,0l0.1,0l0.1,0l0.1,0.2l0.1,0.2l0.1,0.4l0.1,0.1l0.2-0.1l0.1-0.4l0.2,0l0.2-0.1l0.1,0
		l0.4,0.3l0.1,0l0.9,0.1l-0.1,0.2l0.1,0.1l0.2,0.1l0.1,0.1l-0.2,0l-0.1,0.1l-0.1,0.2l0,0.3l0,0l0,0l0,0l0,0l0.1,0.1l0.5,0.1l0.2,0.1
		L96,129l0.2,0l0.1,0l0.1,0.1l0.1,0.2l0.1,0.4l0.1,0.2l0.2,0.1l0.1,0.1l0.1,0l0.2,0l0.1,0l0.1-0.1l0.1-0.1l0.2-0.1l0-0.1l0.1-0.2
		l0-0.1l0.1-0.1l0.4,0l0.5-0.2l0.2,0l0.2,0.1l0.1,0.1l0.5,0.2l0.2,0.1l0.1,0l0.1,0.2l0.1,0.2l0.2,0.1l0.1,0l0.2,0.1l0.1,0l0.1,0
		l0.1,0l0.1-0.2l0.1-0.1l0.1,0l0.4,0.1l0.2,0l0.2,0l0,0l-0.1-0.1l-0.1-0.2l0.1-0.1l0.3-0.3l0.1-0.1l0.2,0l0.3,0l0.2,0l0.1-0.1
		l0.2-0.2l0.1-0.1l0.1,0l0.1,0l0.1,0l0.3-0.2l0.2,0.1l0.1-0.1l0.1,0l0.2,0l0.1,0l0.1,0.1l0.1,0.1l0.1,0.1l0.1,0.1l0.2,0.1l0.2,0
		l0.2,0l0.5-0.1l0-0.1l0-0.3l-0.3-0.3l-0.5-0.5l-0.1-0.2l-0.1-0.8l0-0.1l0-0.1l0,0l-0.1,0l0,0l-0.1-0.1l0-0.1l0-0.1l0.1-0.1l0.1,0.1
		l0,0l0-0.1l0.1-0.5l0-0.2l0-0.2l0-0.2l0-0.1l-0.1,0l-0.2-0.1l-0.1,0l-0.1,0l-0.1-0.1l-0.1-0.1l-0.1-0.1l0.3-0.3l0.1,0l0-0.1l0-0.2
		l0-0.1l0.1,0l0.1,0.1l0.1,0l0.1-0.1l0-0.1l-0.2-0.2l-0.1-0.2l0-0.2l0.1-0.1l0.2,0l-0.1,0.2l0,0.1l0,0.1l0.1,0l0-0.1l0-0.1l0.1-0.1
		l0-0.1l0-0.1l0-0.3l0-0.1l0.1-0.2l0-0.1l-0.1-0.1l-0.1-0.1l-0.1-0.1l-0.1-0.3l0-0.1l0.1,0h0.2l0,0l-0.1,0.1l-0.1,0.1v0.1l0.1,0.1
		l0,0.1l0,0l0.1,0l0.2-0.3l0-0.1l0.1-0.1l0.2-0.2l0.1-0.1l0.1-0.2l0.1-0.1l0.1-0.2l1.1-0.8l0.3-0.1l0.2,0l0.3,0.2l0.2-0.1l0.6-0.8
		l0.3-0.2l0.9-0.5l1.6-1.3v-0.1l-0.3,0.1l-0.2,0.2l-0.4,0.5l-0.4,0.3l-0.3,0.1l-0.3,0v-0.1l0.7-0.3l0.1-0.1l0-0.2l0.1-0.1l0.5-0.4
		l0.2-0.1l0.5-0.1l0.4-0.3l0.2-0.1l0.4-0.1l-0.1,0.2l-0.1,0.1l-0.1,0.1l-0.2,0l-0.4,0l-0.2,0.1l-0.1,0.1l0.3-0.1l0.5-0.1l0.5,0
		l0.2,0.2l0,0l0.2,0.6l0,0.1l0.1,0.1l0.2,0.1l0.2,0l2.4,0.1l0.3,0.1l0.2,0.2l0,0.2l-0.1,0.2L117,119l0,0.1l0.2,0.1l0.3,0.1l1.1,0.1
		l0.3-0.1l-0.2-0.2l-0.2-0.2l-0.2-0.2l-0.1-0.4v-0.8l0-0.1l-0.2-0.4V117l0.1,0.1l0.1,0.2l0.1,0.2l0,0.2l0,0.2l0,0.6l0.1,0.3l0.3,0.2
		l0.3,0.2l0.3,0.1l-0.1-0.2l-0.1-0.1l0-0.1l0.1-0.1l0.1-0.1l0.2,0l0.1-0.1l0.2-0.1l0.4,0.2l0.2-0.1l0.2,0.1l0.2-0.1l0.1-0.2
		l-0.1-0.3l-0.1-0.1l-0.1-0.1l-0.1-0.1l0-0.2l0-0.1l0-0.1l0.1-0.1l0.1-0.1l0,0l0.1,0.2l0,0l0.2,0l0.1,0l0.2,0.1l0,0.1l0,0.1l0.1,0.2
		l0.2,0.2l0.2,0l0.2-0.1l0.2-0.2l0,0.3l-0.1,0.2l-0.2,0.2l-0.1,0.1l-0.2,0.1h-0.7l-0.2,0.1l-0.1,0.2l0,0.2l0.2,0.2l0.2,0.1l0.5,0
		l0.1,0l0.3,0.1l1-0.2l0.2,0.2v0.6l0,0.1l0.1,0.1l0.1,0l0,0l0,0.1l0,0.1l-0.1,0.2l-0.1,0.1l0,0.1l0.1,0.1l0.1,0l0.2,0l0.1,0.1l0.1,0
		l0.2,0l0.2,0l0.1,0.1l0,0l0.1,0l0.1-0.1l0.1-0.1l0.1,0l0.2,0.3l0.1,0.1l0.1,0l0,0l0,0l0.1,0l0,0l0,0l0-0.1l0,0l0.4,0l0.2,0.1l0,0.2
		l0.3,0.2l0.1,0l0.2,0l0.1,0l0,0.1l0.1,0l0.1,0l0.1,0l0,0l-0.3,0.1l-0.1,0.1l0,0.1l0.1,0.1l0.4,0.2l0.2,0l0.1-0.1l0-0.1l0.1-0.1
		l0.1,0l0.2,0v-0.1l-0.1-0.1l-0.2-0.2l-0.1-0.1l0.2-0.1l0.1,0l0.1,0l0,0.1l0,0.1l0,0.1l0.2-0.1l0.2,0l0.2,0.1l0.1,0.1l0.1,0l0.6,0
		l0.1,0v0.1l0,0.2l0,0l-0.3,0v0.1l0.1,0l0.5,0l0.1,0v-0.1h-0.1l-0.1,0l-0.1-0.1l0.1-0.2l0-0.2l0.1-0.1l0.2-0.1l0.1,0l0.5,0l0.1,0
		l0.1,0l0.1,0l0.1,0l0,0.1l0,0.1l0,0l0.3,0l0.1-0.1l-0.1-0.2l0-0.1l0-0.1l0-0.1l0.1-0.1l0.1-0.1l0.2,0l0.2-0.1l0.2-0.1l0.1,0l0.2,0
		l0.1,0l0.1-0.1l0.1-0.1l0.1-0.1l0.2,0l0.1,0.1l0,0.1l0,0.1l0,0.1l0.1,0l0.2-0.1l0.1,0l-0.1-0.1l0.3-0.3l0-0.1l0,0l0,0l0,0l0-0.1
		l0-0.1l0,0l0,0l0-0.1l0.1-0.2l0-0.1l-0.7,0l0,0l0-0.1l0.1-0.1l0.2-0.1l0.2,0l0.1-0.1l0-0.1l0.1-0.1l0.1-0.1l0.1,0l0.1-0.1l0.1-0.3
		l0.1-0.2l0.1-0.2l0.1-0.1l0.2,0.1l0.2,0.1l0.4,0l0,0l0-0.1l0,0l0,0.1l0,0l0,0l0.1,0l0,0l0,0l0-0.1l0,0h0.1l0,0l0,0l0.3-0.5l0,0l0,0
		l0-0.2l0,0l0.1-0.2l0.1-0.1l0.1-0.1l0.1-0.1l0.2,0.1l0.2-0.1l0.2-0.1l0.2-0.1l0,0l0,0.1l0,0.1l0.1,0l0,0l0,0l0-0.1l0-0.1l0-0.5
		l0-0.1l0.1,0l0.1-0.1l0.1-0.1l0.1,0l0.1,0l0.1,0l0.1,0l0.1-0.1l0.2-0.2l0.1-0.1l0.1,0l0.1,0l0.4,0l0,0.1l0,0l0.2,0l0-0.1l0-0.1
		l0.1-0.1l0.1,0l0-0.1l0.1-0.1l0.2-0.1l0.2,0.1l0.1-0.1l0.1,0l0.1,0l0.1,0l0,0l0.1,0l0,0l0-0.1l0,0l0,0l0,0h0l0.1-0.1l-0.2-0.5
		l0-0.3l0.1-0.2l0.3-0.4l0.2-0.3l0.4-0.3l0.2-0.2l0.1-0.1l0.1-0.2l0-0.1l0.1-0.1l0.1-0.1l0.1-0.1l0-0.2l-0.1-0.3l-0.2-0.2l-0.1-0.2
		l0.1-0.4l-0.2,0l-0.3,0.2l-0.2,0l-1.4,0.4l-0.3,0l-0.1,0l-0.1-0.1l0-0.1l-0.1-0.1l-0.1,0l-0.2,0l-0.1-0.1l-0.8-0.5l-0.3-0.1
		l-0.5-0.2l-0.1,0l-0.1,0l-0.1,0l-0.1,0l-0.1,0l-0.1-0.1l0-0.1l0-0.1l0-0.1l-0.1-0.1l-0.2-0.1l-0.1-0.1l0-0.1l-0.1-0.2l-0.1-0.1
		l-0.2-0.2l0,0l0-0.1l0-0.1l0-0.1l0.1-0.3l0.1-0.1l0.3-0.1l-0.2-0.2l-0.2-0.2l-0.2-0.3l0-0.3l0.1-0.1l0.4-0.3l0.3-0.5l0.1-0.1
		l-0.1-0.2l0.1-0.2l0.1-0.2l0.2-0.1l0.1,0l0.3,0.1l0.1,0l0-0.1l-0.2-0.4l0-0.1l0-0.3l-0.1-0.2l0,0l0-0.2l0,0l0-0.1l0,0l0,0l0-0.1
		l0-0.1l-0.1-0.2l-0.4-0.2l-0.1,0l-0.4,0.1l-0.1,0l-0.5-0.3l-0.3-0.2l-0.1-0.2l0-0.6l0-0.3l-0.2-0.2l-0.3,0l-0.1-0.1L133,101l0-0.1
		l0-0.1l0-0.1l-0.1-0.1l-0.1-0.2l0.1-0.1l0.1-0.1l0.3-0.2l0.1,0l0.1,0l0.1,0l0.1,0l0.1-0.1l0.1,0l0.3,0l0.3,0.2l0.3,0.1l0.3-0.1
		l0-0.1l0,0l0-0.1l0-0.1l0.1,0l0.2,0l0.1,0l0.1-0.1l0.1-0.2l0.1-0.1l0.3-0.1l0.3-0.1l0.1,0l0.1,0.1l0,0l0.1-0.1l0.1-0.3l0.2-0.2
		v-0.2l-0.1-0.2l0-0.3l0-0.1l0.3-0.3l0.2-0.3l0.1-0.2l0-0.1l-0.1,0l-0.3-0.1l-0.1-0.1l-0.1-0.1l-0.1-0.1l-0.1-0.1l-0.3-0.3l-0.4-0.2
		l-0.1-0.2l0-0.5l0-0.1l-0.1-0.1l0-0.1l0-0.1l0.1-0.2l0-0.1l0-0.2l-0.1-0.1l-0.3-0.1l-0.1-0.1l-0.2-0.2l-0.1,0l-0.2,0l-0.2-0.2
		l-0.2-0.2l-0.1-0.5l0-0.2l0-0.2l0-0.2l0.1-0.2l0.1-0.1l0.2,0v0l0,0l0-0.1l0,0l0,0l0.1,0l0,0l0.1,0l0.2,0l0.2,0l0.2-0.1l0.2-0.1
		l0.1-0.2l0-0.2l0.1-0.1l0.1-0.1l0.1-0.1l-0.1-0.1l0-0.1l-0.1-0.2l-0.1-0.2l0-0.1l0,0l-0.5-0.6l-0.2-0.1l-0.1,0l-0.1,0.1l-0.1,0
		l-0.1,0l-0.1-0.1l0,0l0,0l0-0.1l0,0l0-0.1l0-0.1l0,0l0-0.1l0.1-0.1l0.1-0.1l0-0.1l-0.1-0.1l-0.6-0.1l-0.1-0.2l0.1-0.4l0.1-0.4
		l0.3-0.5l-0.2-0.3l-0.3-0.3l-0.1-0.3l0-0.1l0.2-0.2l0.1-0.2l0-0.2l-0.1-0.1l-0.1-0.1l-1.2-0.3l-0.5,0l-0.5,0.1l-0.7,0.5l-0.3,0.1
		l-0.3,0l-0.2,0.1l-0.3,0.2l-0.2,0.3l-0.2,0.2l0,0.2l0,0.1l0.1,0.2l0,0l0.1,0.2l0,0l0.1,0l0.1-0.1l0.1,0l0,0.3l-0.2,0.2l-0.5,0.3
		l-0.4,0.5l-0.3,0.1l-0.3-0.1l-0.4,0l-0.4,0.1l-0.2,0.1l0.1-0.2l0.1-0.1l0-0.1l-0.1-0.2l-0.1-0.2l0-0.1l0.2-0.1l0.5-0.2l0,0h0l0.1,0
		l0,0l0,0l0.2-0.1l0-0.1l0-0.1l0-0.1l0.1-0.3l0-0.1l0.3-0.6l0-0.1l-0.1-0.2l-0.1-0.1l-0.4-0.3l0.1-0.1l0-0.1l0-0.1v-0.1l0,0l0,0
		l0-0.1v-0.1l0-0.1l0.1-0.1l0.3-0.5l0.3-0.3l-0.2-0.2l0-0.2l0.1-0.1l1-1l0.6-0.3l0.1-0.1l0.2-0.2l0.3-0.1l0.1-0.1l0.1-0.1l0-0.1
		l0-0.2l-0.1-0.1l0-0.1l0-0.1l0-0.1l0.1-0.4l0.1-0.1l0-0.1l0-0.2l0-0.1l-0.1-0.2l0-0.1l0.1-0.4l0.4-0.2l0.8-0.3l0.5-0.4l0.2-0.3
		l-0.1-0.2l0.1-0.2l0.1-0.1l0.2-0.1l0-0.1l0,0l0.1-0.1l0-0.2l0.2-0.1l0.5-0.5l0.2-0.2l0.2-0.2l0.5-0.4l0-0.3l0-0.2l0.1-0.2l0.1,0
		l0,0l0.1-0.2l0.1,0l0.1,0l0.1,0l0.1-0.1l-0.1-0.1l-0.1-0.1l-0.1-0.1l-0.1,0.1l-0.9,0.1l0-0.1l0.1-0.2l0.1-0.2l0.2-0.1l0-0.2l0.2,0
		l0.1-0.1l0.1-0.1l0.1-0.1l0-0.1l-0.1-0.2l0-0.1l0.1,0l0.1-0.1l0.1,0l0.1,0l0.1,0.1l0.2,0l0.4-0.1l0.2,0l0.1,0.1l0.1,0l0.2,0
		l-0.1,0.3l0,0.2l0.2,0.1l0.2,0.1l0,0l0,0l0,0l0.1,0l0.1,0l0.3-0.1l0.2,0l0.5,0l0.2-0.1l0.2-0.2l0-0.1l0-0.1l0-0.1l0,0l0-0.1v-0.1
		l0.1,0l0.1,0l0.1,0.1l0.1,0l0.1-0.1l0,0l0,0v0l0,0l-0.1-0.1l0,0l0,0l0,0l0.1,0l0.1,0l0-0.1l0-0.1l0,0l-0.1-0.1l0,0l0.3-0.3l0.2-0.1
		l0.3-0.1l0,0l0,0l0-0.1l0,0l0-0.1l0-0.1l0,0l0-0.1l-0.2-0.3l-0.1-0.1l-0.1-0.1l0-0.1l0-0.1l0-0.2l0-0.1L140,71l0-0.1l0-0.2
		l-0.1-0.4l0-0.2l0.1-0.4l0-0.1l0.1-0.1l0-0.1l0-0.2l0-0.1l0,0l0,0l0,0l0-0.1l0.1,0l0-0.1l0-0.1l0-0.1l0-0.2l0-0.2l0.2-0.2l0.1-0.1
		l0-0.4l-0.3-0.6l0-0.5l0-0.2l0.1-0.2l0.1-0.1l0.1-0.1l0-0.1l0-0.2l0.1-0.1l0.5-0.7l0.1-0.2l0-0.2l0-0.2l0.1-0.2l0.1-0.1l0.1-0.1
		l0.1-0.2l0-0.2l0-0.2l0-0.2l0-0.1l0-0.2l0.1-0.3l0-0.1l0.1-0.1l0.1-0.1l0-0.1l0-0.2l0-0.1l0.1-0.1l0.2-0.2v-0.1l-0.1-0.2V61
		l0.1-0.4l0.3-0.5l0.1-0.1l0.1,0l0.1-0.1l0.2-0.3l0.1-0.1l0.1-0.1l0.1-0.1l0-0.1l0-0.2l0-0.1l0.1,0l0.2,0l0.1,0l0,0l0-0.1l0-0.1
		l0-0.1l0,0l0,0l0.1,0l0.3-0.2l0,0l0.1-0.2l0.4-1l0.2-0.5l0.2-0.2l-0.1-0.1L144.3,56.3z M96.9,129L96.9,129L96.9,129l-0.3,0
		l-0.1-0.1l0-0.1l0.1-0.2l0.1,0l0.1,0.1l0.1,0.2L96.9,129L96.9,129z"/>
	<g>
		<g>
			<path class="st1" d="M159.4,28.8C144,29,122.6,44,116.6,59.6"/>
			<g>
				<path class="st2" d="M116.6,59.5c0.3-0.1,0.7-0.1,1,0c-0.5,0.1-0.9,0.4-1.3,0.7c0-0.5-0.2-0.9-0.4-1.4
					C116.1,59,116.5,59.2,116.6,59.5z"/>
			</g>
		</g>
	</g>
	<g>
		<path class="st3" d="M171.6,27.2h-0.9l-1.5-2.3h-1.2v2.3h-0.7v-5.9h2.4c0.5,0,1,0.2,1.3,0.5c0.3,0.3,0.5,0.8,0.5,1.3
			c0,0.5-0.1,0.9-0.4,1.2c-0.3,0.3-0.7,0.5-1.1,0.5L171.6,27.2z M169.7,24.2c0.3,0,0.6-0.1,0.8-0.3c0.2-0.2,0.3-0.5,0.3-0.8
			s-0.1-0.6-0.3-0.8c-0.2-0.2-0.5-0.3-0.8-0.3h-1.5v2.2H169.7z"/>
		<path class="st3" d="M176.2,27.2h-0.7v-0.6c-0.2,0.2-0.4,0.4-0.7,0.5c-0.3,0.1-0.6,0.2-0.8,0.2c-0.9,0-1.4-0.5-1.4-1.4v-3h0.7v2.8
			c0,0.4,0.1,0.6,0.2,0.7c0.2,0.1,0.4,0.2,0.7,0.2c0.2,0,0.5-0.1,0.7-0.2c0.2-0.1,0.4-0.3,0.5-0.5v-3.1h0.7V27.2z"/>
		<path class="st3" d="M178.9,27.3c-0.7,0-1.3-0.2-1.7-0.7l0.3-0.5c0.1,0.2,0.3,0.3,0.6,0.4c0.3,0.1,0.5,0.2,0.8,0.2
			c0.3,0,0.6-0.1,0.7-0.2c0.2-0.1,0.3-0.3,0.3-0.5c0-0.2-0.1-0.3-0.3-0.4c-0.2-0.1-0.4-0.2-0.7-0.2c-0.3-0.1-0.5-0.1-0.8-0.2
			s-0.5-0.2-0.7-0.4c-0.2-0.2-0.3-0.4-0.3-0.7c0-0.3,0.1-0.6,0.4-0.9c0.3-0.2,0.7-0.4,1.2-0.4c0.6,0,1.2,0.2,1.6,0.6l-0.3,0.5
			c-0.3-0.4-0.7-0.5-1.3-0.5c-0.3,0-0.5,0.1-0.7,0.2c-0.2,0.1-0.3,0.3-0.3,0.5c0,0.2,0.1,0.3,0.3,0.4c0.2,0.1,0.4,0.2,0.7,0.2
			c0.3,0.1,0.5,0.1,0.8,0.2c0.3,0.1,0.5,0.2,0.7,0.4c0.2,0.2,0.3,0.4,0.3,0.7c0,0.4-0.1,0.7-0.4,0.9
			C179.8,27.2,179.4,27.3,178.9,27.3z"/>
		<path class="st3" d="M183,27.3c-0.7,0-1.3-0.2-1.7-0.7l0.3-0.5c0.1,0.2,0.3,0.3,0.6,0.4c0.3,0.1,0.5,0.2,0.8,0.2
			c0.3,0,0.6-0.1,0.7-0.2c0.2-0.1,0.3-0.3,0.3-0.5c0-0.2-0.1-0.3-0.3-0.4c-0.2-0.1-0.4-0.2-0.7-0.2c-0.3-0.1-0.5-0.1-0.8-0.2
			s-0.5-0.2-0.7-0.4c-0.2-0.2-0.3-0.4-0.3-0.7c0-0.3,0.1-0.6,0.4-0.9c0.3-0.2,0.7-0.4,1.2-0.4c0.6,0,1.2,0.2,1.6,0.6l-0.3,0.5
			c-0.3-0.4-0.7-0.5-1.3-0.5c-0.3,0-0.5,0.1-0.7,0.2c-0.2,0.1-0.3,0.3-0.3,0.5c0,0.2,0.1,0.3,0.3,0.4c0.2,0.1,0.4,0.2,0.7,0.2
			c0.3,0.1,0.5,0.1,0.8,0.2c0.3,0.1,0.5,0.2,0.7,0.4c0.2,0.2,0.3,0.4,0.3,0.7c0,0.4-0.1,0.7-0.4,0.9C183.9,27.2,183.5,27.3,183,27.3
			z"/>
		<path class="st3" d="M186.1,22.3c-0.1,0-0.2,0-0.3-0.1c-0.1-0.1-0.1-0.2-0.1-0.3c0-0.1,0-0.2,0.1-0.3c0.1-0.1,0.2-0.1,0.3-0.1
			c0.1,0,0.2,0,0.3,0.1c0.1,0.1,0.1,0.2,0.1,0.3c0,0.1,0,0.2-0.1,0.3C186.3,22.3,186.2,22.3,186.1,22.3z M186.4,27.2h-0.7v-4.3h0.7
			V27.2z"/>
		<path class="st3" d="M191,27.2h-0.7v-0.5c-0.4,0.4-0.8,0.6-1.4,0.6c-0.4,0-0.7-0.1-1-0.4c-0.3-0.3-0.4-0.6-0.4-1
			c0-0.4,0.1-0.8,0.4-1c0.3-0.2,0.6-0.4,1-0.4c0.6,0,1.1,0.2,1.4,0.6v-0.8c0-0.3-0.1-0.5-0.3-0.7c-0.2-0.2-0.5-0.2-0.8-0.2
			c-0.5,0-0.9,0.2-1.3,0.6l-0.3-0.5c0.5-0.5,1-0.7,1.7-0.7c0.5,0,0.9,0.1,1.2,0.4c0.3,0.2,0.5,0.6,0.5,1.1V27.2z M189.2,26.8
			c0.5,0,0.9-0.2,1.2-0.5v-0.8c-0.3-0.4-0.6-0.5-1.2-0.5c-0.3,0-0.6,0.1-0.8,0.3c-0.2,0.2-0.3,0.4-0.3,0.7c0,0.3,0.1,0.5,0.3,0.7
			C188.7,26.7,188.9,26.8,189.2,26.8z"/>
	</g>
	<g>
		<path class="st3" d="M170.2,54.1c-0.9,0-1.6-0.3-2.2-0.8c-0.6-0.6-0.9-1.3-0.9-2.2c0-0.9,0.3-1.6,0.9-2.2c0.6-0.6,1.3-0.8,2.2-0.8
			c0.9,0,1.7,0.4,2.2,1.2l-0.6,0.3c-0.2-0.3-0.4-0.5-0.7-0.6c-0.3-0.2-0.6-0.2-0.9-0.2c-0.6,0-1.2,0.2-1.6,0.7
			c-0.4,0.4-0.6,1-0.6,1.7s0.2,1.3,0.6,1.7c0.4,0.4,1,0.7,1.6,0.7c0.3,0,0.6-0.1,0.9-0.2c0.3-0.2,0.5-0.4,0.7-0.6l0.6,0.3
			C171.8,53.7,171.1,54.1,170.2,54.1z"/>
		<path class="st3" d="M176.8,54h-0.7v-2.8c0-0.4-0.1-0.6-0.2-0.7c-0.2-0.1-0.4-0.2-0.7-0.2c-0.2,0-0.5,0.1-0.7,0.2
			s-0.4,0.3-0.6,0.5V54h-0.7v-5.9h0.7v2.2c0.2-0.2,0.4-0.4,0.7-0.5c0.3-0.1,0.6-0.2,0.9-0.2c0.9,0,1.4,0.5,1.4,1.4V54z"/>
		<path class="st3" d="M178.5,49.1c-0.1,0-0.2,0-0.3-0.1c-0.1-0.1-0.1-0.2-0.1-0.3s0-0.2,0.1-0.3c0.1-0.1,0.2-0.1,0.3-0.1
			c0.1,0,0.2,0,0.3,0.1s0.1,0.2,0.1,0.3s0,0.2-0.1,0.3C178.7,49.1,178.6,49.1,178.5,49.1z M178.8,54h-0.7v-4.3h0.7V54z"/>
		<path class="st3" d="M183.7,54H183v-2.8c0-0.4-0.1-0.6-0.2-0.8c-0.2-0.1-0.4-0.2-0.7-0.2c-0.2,0-0.5,0.1-0.7,0.2
			c-0.2,0.1-0.4,0.3-0.5,0.5V54h-0.7v-4.3h0.7v0.6c0.2-0.2,0.4-0.4,0.7-0.5c0.3-0.1,0.6-0.2,0.9-0.2c0.9,0,1.4,0.5,1.4,1.4V54z"/>
		<path class="st3" d="M188.3,54h-0.7v-0.5c-0.4,0.4-0.8,0.6-1.4,0.6c-0.4,0-0.7-0.1-1-0.4c-0.3-0.3-0.4-0.6-0.4-1
			c0-0.4,0.1-0.8,0.4-1c0.3-0.2,0.6-0.4,1-0.4c0.6,0,1.1,0.2,1.4,0.6v-0.8c0-0.3-0.1-0.5-0.3-0.7c-0.2-0.2-0.5-0.2-0.8-0.2
			c-0.5,0-0.9,0.2-1.3,0.6l-0.3-0.5c0.5-0.5,1-0.7,1.7-0.7c0.5,0,0.9,0.1,1.2,0.4c0.3,0.2,0.5,0.6,0.5,1.1V54z M186.5,53.6
			c0.5,0,0.9-0.2,1.2-0.5v-0.8c-0.3-0.4-0.6-0.5-1.2-0.5c-0.3,0-0.6,0.1-0.8,0.3c-0.2,0.2-0.3,0.4-0.3,0.7c0,0.3,0.1,0.5,0.3,0.7
			C185.9,53.5,186.2,53.6,186.5,53.6z"/>
	</g>
	<g>
		<path class="st3" d="M170.1,83h-2.7v-5.9h2.6c0.5,0,0.9,0.1,1.2,0.4c0.3,0.3,0.4,0.6,0.4,1.1c0,0.4-0.1,0.7-0.3,0.9
			c-0.2,0.2-0.4,0.4-0.7,0.5c0.3,0,0.6,0.2,0.8,0.5c0.2,0.3,0.3,0.6,0.3,1c0,0.5-0.2,0.9-0.5,1.1C171,82.9,170.6,83,170.1,83z
			 M169.9,79.7c0.3,0,0.6-0.1,0.7-0.3c0.2-0.2,0.3-0.4,0.3-0.7c0-0.3-0.1-0.5-0.3-0.7c-0.2-0.2-0.4-0.3-0.7-0.3h-1.8v1.9H169.9z
			 M169.9,82.4c0.3,0,0.6-0.1,0.8-0.3c0.2-0.2,0.3-0.4,0.3-0.7c0-0.3-0.1-0.5-0.3-0.7c-0.2-0.2-0.5-0.3-0.8-0.3h-1.8v2H169.9z"/>
		<path class="st3" d="M176.2,83h-0.7v-0.5c-0.4,0.4-0.8,0.6-1.4,0.6c-0.4,0-0.7-0.1-1-0.4c-0.3-0.3-0.4-0.6-0.4-1
			c0-0.4,0.1-0.8,0.4-1c0.3-0.2,0.6-0.4,1-0.4c0.6,0,1.1,0.2,1.4,0.6v-0.8c0-0.3-0.1-0.5-0.3-0.7c-0.2-0.2-0.5-0.2-0.8-0.2
			c-0.5,0-0.9,0.2-1.3,0.6l-0.3-0.5c0.5-0.5,1-0.7,1.7-0.7c0.5,0,0.9,0.1,1.2,0.4c0.3,0.2,0.5,0.6,0.5,1.1V83z M174.4,82.7
			c0.5,0,0.9-0.2,1.2-0.5v-0.8c-0.3-0.4-0.6-0.5-1.2-0.5c-0.3,0-0.6,0.1-0.8,0.3c-0.2,0.2-0.3,0.4-0.3,0.7c0,0.3,0.1,0.5,0.3,0.7
			C173.8,82.6,174.1,82.7,174.4,82.7z"/>
		<path class="st3" d="M181.1,83h-0.7v-2.8c0-0.4-0.1-0.6-0.2-0.8c-0.2-0.1-0.4-0.2-0.7-0.2c-0.2,0-0.5,0.1-0.7,0.2
			c-0.2,0.1-0.4,0.3-0.5,0.5V83h-0.7v-4.3h0.7v0.6c0.2-0.2,0.4-0.4,0.7-0.5c0.3-0.1,0.6-0.2,0.9-0.2c0.9,0,1.4,0.5,1.4,1.4V83z"/>
		<path class="st3" d="M184.1,84.8c-0.4,0-0.7,0-1-0.1c-0.3-0.1-0.5-0.3-0.8-0.5l0.3-0.5c0.3,0.4,0.8,0.6,1.4,0.6
			c0.4,0,0.7-0.1,1-0.3c0.3-0.2,0.4-0.5,0.4-1v-0.6c-0.2,0.2-0.4,0.4-0.6,0.5c-0.3,0.1-0.5,0.2-0.8,0.2c-0.6,0-1-0.2-1.4-0.6
			c-0.3-0.4-0.5-0.9-0.5-1.6c0-0.7,0.2-1.2,0.5-1.6c0.3-0.4,0.8-0.6,1.4-0.6c0.6,0,1.1,0.2,1.4,0.7v-0.6h0.7v4.1
			c0,0.7-0.2,1.1-0.6,1.4C185.2,84.6,184.7,84.8,184.1,84.8z M184.2,82.5c0.3,0,0.5-0.1,0.7-0.2c0.2-0.1,0.4-0.3,0.5-0.5V80
			c-0.1-0.2-0.3-0.4-0.5-0.5c-0.2-0.1-0.5-0.2-0.7-0.2c-0.4,0-0.8,0.1-1,0.4c-0.2,0.3-0.4,0.7-0.4,1.2c0,0.5,0.1,0.9,0.4,1.2
			C183.4,82.4,183.8,82.5,184.2,82.5z"/>
		<path class="st3" d="M188.1,83h-0.7v-5.9h0.7V83z"/>
		<path class="st3" d="M192.7,83h-0.7v-0.5c-0.4,0.4-0.8,0.6-1.4,0.6c-0.4,0-0.7-0.1-1-0.4c-0.3-0.3-0.4-0.6-0.4-1
			c0-0.4,0.1-0.8,0.4-1c0.3-0.2,0.6-0.4,1-0.4c0.6,0,1.1,0.2,1.4,0.6v-0.8c0-0.3-0.1-0.5-0.3-0.7c-0.2-0.2-0.5-0.2-0.8-0.2
			c-0.5,0-0.9,0.2-1.3,0.6l-0.3-0.5c0.5-0.5,1-0.7,1.7-0.7c0.5,0,0.9,0.1,1.2,0.4c0.3,0.2,0.5,0.6,0.5,1.1V83z M190.9,82.7
			c0.5,0,0.9-0.2,1.2-0.5v-0.8c-0.3-0.4-0.6-0.5-1.2-0.5c-0.3,0-0.6,0.1-0.8,0.3c-0.2,0.2-0.3,0.4-0.3,0.7c0,0.3,0.1,0.5,0.3,0.7
			C190.4,82.6,190.6,82.7,190.9,82.7z"/>
		<path class="st3" d="M197.8,83h-0.7v-0.6c-0.4,0.5-0.8,0.7-1.4,0.7c-0.6,0-1-0.2-1.4-0.6c-0.3-0.4-0.5-0.9-0.5-1.6
			c0-0.7,0.2-1.2,0.5-1.6c0.3-0.4,0.8-0.6,1.4-0.6c0.6,0,1.1,0.2,1.4,0.7v-2.3h0.7V83z M195.9,82.6c0.3,0,0.5-0.1,0.7-0.2
			s0.4-0.3,0.5-0.5V80c-0.1-0.2-0.3-0.4-0.5-0.5c-0.2-0.1-0.5-0.2-0.7-0.2c-0.4,0-0.7,0.2-1,0.5c-0.2,0.3-0.4,0.7-0.4,1.2
			s0.1,0.9,0.4,1.2C195.1,82.4,195.4,82.6,195.9,82.6z"/>
		<path class="st3" d="M201,83.1c-0.6,0-1.2-0.2-1.6-0.6c-0.4-0.4-0.6-1-0.6-1.6c0-0.6,0.2-1.1,0.6-1.6c0.4-0.4,0.9-0.6,1.5-0.6
			c0.6,0,1.1,0.2,1.5,0.6c0.4,0.4,0.6,1,0.6,1.6v0.2h-3.4c0,0.4,0.2,0.8,0.5,1c0.3,0.3,0.6,0.4,1.1,0.4c0.5,0,1-0.2,1.3-0.5l0.3,0.4
			C202.3,82.9,201.7,83.1,201,83.1z M202.4,80.6c0-0.4-0.1-0.7-0.4-1c-0.2-0.3-0.6-0.4-1-0.4c-0.4,0-0.8,0.1-1,0.4
			c-0.2,0.3-0.4,0.6-0.4,1H202.4z"/>
		<path class="st3" d="M205.4,83.1c-0.7,0-1.3-0.2-1.7-0.7L204,82c0.1,0.2,0.3,0.3,0.6,0.4c0.3,0.1,0.5,0.2,0.8,0.2
			c0.3,0,0.6-0.1,0.7-0.2c0.2-0.1,0.3-0.3,0.3-0.5c0-0.2-0.1-0.3-0.3-0.4s-0.4-0.2-0.7-0.2c-0.3-0.1-0.5-0.1-0.8-0.2
			c-0.3-0.1-0.5-0.2-0.7-0.4c-0.2-0.2-0.3-0.4-0.3-0.7c0-0.3,0.1-0.6,0.4-0.9c0.3-0.2,0.7-0.4,1.2-0.4c0.6,0,1.2,0.2,1.6,0.6
			l-0.3,0.5c-0.3-0.4-0.7-0.5-1.3-0.5c-0.3,0-0.5,0.1-0.7,0.2c-0.2,0.1-0.3,0.3-0.3,0.5c0,0.2,0.1,0.3,0.3,0.4
			c0.2,0.1,0.4,0.2,0.7,0.2c0.3,0.1,0.5,0.1,0.8,0.2c0.3,0.1,0.5,0.2,0.7,0.4c0.2,0.2,0.3,0.4,0.3,0.7c0,0.4-0.1,0.7-0.4,0.9
			C206.4,83,205.9,83.1,205.4,83.1z"/>
		<path class="st3" d="M211.7,83H211v-2.8c0-0.4-0.1-0.6-0.2-0.7c-0.2-0.1-0.4-0.2-0.7-0.2c-0.2,0-0.5,0.1-0.7,0.2
			c-0.2,0.1-0.4,0.3-0.6,0.5V83h-0.7v-5.9h0.7v2.2c0.2-0.2,0.4-0.4,0.7-0.5c0.3-0.1,0.6-0.2,0.9-0.2c0.9,0,1.4,0.5,1.4,1.4V83z"/>
	</g>
	<g>
		<path class="st3" d="M171.8,113.3h-0.9l-2.2-2.6l-0.6,0.7v2h-0.7v-5.9h0.7v3l2.6-3h0.9l-2.4,2.8L171.8,113.3z"/>
		<path class="st3" d="M175.7,112.7c-0.4,0.4-0.9,0.6-1.5,0.6s-1.1-0.2-1.5-0.6c-0.4-0.4-0.6-1-0.6-1.6c0-0.6,0.2-1.2,0.6-1.6
			c0.4-0.4,0.9-0.6,1.5-0.6s1.1,0.2,1.5,0.6c0.4,0.4,0.6,1,0.6,1.6C176.3,111.8,176.1,112.3,175.7,112.7z M173.2,112.3
			c0.3,0.3,0.6,0.5,1,0.5c0.4,0,0.8-0.2,1-0.5c0.3-0.3,0.4-0.7,0.4-1.2c0-0.5-0.1-0.8-0.4-1.2c-0.3-0.3-0.6-0.5-1-0.5
			c-0.4,0-0.8,0.2-1,0.5c-0.3,0.3-0.4,0.7-0.4,1.2C172.8,111.6,172.9,112,173.2,112.3z"/>
		<path class="st3" d="M178.7,113.4c-0.7,0-1.3-0.2-1.7-0.7l0.3-0.5c0.1,0.2,0.3,0.3,0.6,0.4c0.3,0.1,0.5,0.2,0.8,0.2
			c0.3,0,0.6-0.1,0.7-0.2c0.2-0.1,0.3-0.3,0.3-0.5c0-0.2-0.1-0.3-0.3-0.4c-0.2-0.1-0.4-0.2-0.7-0.2c-0.3-0.1-0.5-0.1-0.8-0.2
			s-0.5-0.2-0.7-0.4c-0.2-0.2-0.3-0.4-0.3-0.7c0-0.3,0.1-0.6,0.4-0.9c0.3-0.2,0.7-0.4,1.2-0.4c0.6,0,1.2,0.2,1.6,0.6L180,110
			c-0.3-0.4-0.7-0.5-1.3-0.5c-0.3,0-0.5,0.1-0.7,0.2c-0.2,0.1-0.3,0.3-0.3,0.5c0,0.2,0.1,0.3,0.3,0.4c0.2,0.1,0.4,0.2,0.7,0.2
			c0.3,0.1,0.5,0.1,0.8,0.2c0.3,0.1,0.5,0.2,0.7,0.4s0.3,0.4,0.3,0.7c0,0.4-0.1,0.7-0.4,0.9C179.7,113.3,179.3,113.4,178.7,113.4z"
			/>
		<path class="st3" d="M184.9,112.7c-0.4,0.4-0.9,0.6-1.5,0.6c-0.6,0-1.1-0.2-1.5-0.6c-0.4-0.4-0.6-1-0.6-1.6c0-0.6,0.2-1.2,0.6-1.6
			c0.4-0.4,0.9-0.6,1.5-0.6c0.6,0,1.1,0.2,1.5,0.6c0.4,0.4,0.6,1,0.6,1.6C185.4,111.8,185.2,112.3,184.9,112.7z M182.3,112.3
			c0.3,0.3,0.6,0.5,1,0.5s0.8-0.2,1-0.5c0.3-0.3,0.4-0.7,0.4-1.2c0-0.5-0.1-0.8-0.4-1.2c-0.3-0.3-0.6-0.5-1-0.5s-0.8,0.2-1,0.5
			c-0.3,0.3-0.4,0.7-0.4,1.2C181.9,111.6,182,112,182.3,112.3z"/>
		<path class="st3" d="M188.4,113.3h-0.7l-1.8-4.3h0.7l1.4,3.5l1.4-3.5h0.7L188.4,113.3z"/>
		<path class="st3" d="M194.2,112.7c-0.4,0.4-0.9,0.6-1.5,0.6s-1.1-0.2-1.5-0.6c-0.4-0.4-0.6-1-0.6-1.6c0-0.6,0.2-1.2,0.6-1.6
			c0.4-0.4,0.9-0.6,1.5-0.6s1.1,0.2,1.5,0.6c0.4,0.4,0.6,1,0.6,1.6C194.8,111.8,194.6,112.3,194.2,112.7z M191.6,112.3
			c0.3,0.3,0.6,0.5,1,0.5c0.4,0,0.8-0.2,1-0.5c0.3-0.3,0.4-0.7,0.4-1.2c0-0.5-0.1-0.8-0.4-1.2c-0.3-0.3-0.6-0.5-1-0.5
			c-0.4,0-0.8,0.2-1,0.5c-0.3,0.3-0.4,0.7-0.4,1.2C191.3,111.6,191.4,112,191.6,112.3z"/>
	</g>
	<g>
		<path class="st3" d="M9.7,25.3H8.9L8.4,24H5.5l-0.5,1.3H4.1l2.4-5.9h0.9L9.7,25.3z M8.2,23.3l-1.2-3.2l-1.3,3.2H8.2z"/>
		<path class="st3" d="M11.1,25.3h-0.7v-5.9h0.7V25.3z"/>
		<path class="st3" d="M13.1,25.3h-0.7v-5.9h0.7v2.3c0.4-0.5,0.8-0.7,1.4-0.7c0.6,0,1,0.2,1.4,0.6c0.4,0.4,0.5,0.9,0.5,1.6
			c0,0.7-0.2,1.2-0.5,1.6c-0.3,0.4-0.8,0.6-1.4,0.6c-0.6,0-1.1-0.2-1.4-0.7V25.3z M13.1,24.1c0.1,0.2,0.3,0.3,0.5,0.5
			c0.2,0.1,0.5,0.2,0.7,0.2c0.4,0,0.8-0.2,1-0.5c0.2-0.3,0.4-0.7,0.4-1.2s-0.1-0.9-0.4-1.2c-0.2-0.3-0.6-0.5-1-0.5
			c-0.3,0-0.5,0.1-0.7,0.2c-0.2,0.1-0.4,0.3-0.5,0.5V24.1z"/>
		<path class="st3" d="M20.8,25.3h-0.7v-0.5c-0.4,0.4-0.8,0.6-1.4,0.6c-0.4,0-0.7-0.1-1-0.4c-0.3-0.3-0.4-0.6-0.4-1
			c0-0.4,0.1-0.8,0.4-1c0.3-0.2,0.6-0.4,1-0.4c0.6,0,1.1,0.2,1.4,0.6v-0.8c0-0.3-0.1-0.5-0.3-0.7c-0.2-0.2-0.5-0.2-0.8-0.2
			c-0.5,0-0.9,0.2-1.3,0.6l-0.3-0.5c0.5-0.5,1-0.7,1.7-0.7c0.5,0,0.9,0.1,1.2,0.4c0.3,0.2,0.5,0.6,0.5,1.1V25.3z M19,24.9
			c0.5,0,0.9-0.2,1.2-0.5v-0.8c-0.3-0.4-0.6-0.5-1.2-0.5c-0.3,0-0.6,0.1-0.8,0.3C18.1,23.5,18,23.7,18,24c0,0.3,0.1,0.5,0.3,0.7
			C18.4,24.8,18.7,24.9,19,24.9z"/>
		<path class="st3" d="M25.7,25.3H25v-2.8c0-0.4-0.1-0.6-0.2-0.8c-0.2-0.1-0.4-0.2-0.7-0.2c-0.2,0-0.5,0.1-0.7,0.2
			c-0.2,0.1-0.4,0.3-0.5,0.5v3.1h-0.7V21h0.7v0.6c0.2-0.2,0.4-0.4,0.7-0.5c0.3-0.1,0.6-0.2,0.9-0.2c0.9,0,1.4,0.5,1.4,1.4V25.3z"/>
		<path class="st3" d="M27.3,20.4c-0.1,0-0.2,0-0.3-0.1c-0.1-0.1-0.1-0.2-0.1-0.3s0-0.2,0.1-0.3c0.1-0.1,0.2-0.1,0.3-0.1
			c0.1,0,0.2,0,0.3,0.1c0.1,0.1,0.1,0.2,0.1,0.3s0,0.2-0.1,0.3C27.6,20.4,27.5,20.4,27.3,20.4z M27.7,25.3H27V21h0.7V25.3z"/>
		<path class="st3" d="M32.3,25.3h-0.7v-0.5c-0.4,0.4-0.8,0.6-1.4,0.6c-0.4,0-0.7-0.1-1-0.4s-0.4-0.6-0.4-1c0-0.4,0.1-0.8,0.4-1
			c0.3-0.2,0.6-0.4,1-0.4c0.6,0,1.1,0.2,1.4,0.6v-0.8c0-0.3-0.1-0.5-0.3-0.7c-0.2-0.2-0.5-0.2-0.8-0.2c-0.5,0-0.9,0.2-1.3,0.6
			L29,21.6c0.5-0.5,1-0.7,1.7-0.7c0.5,0,0.9,0.1,1.2,0.4c0.3,0.2,0.5,0.6,0.5,1.1V25.3z M30.5,24.9c0.5,0,0.9-0.2,1.2-0.5v-0.8
			c-0.3-0.4-0.6-0.5-1.2-0.5c-0.3,0-0.6,0.1-0.8,0.3c-0.2,0.2-0.3,0.4-0.3,0.7c0,0.3,0.1,0.5,0.3,0.7C29.9,24.8,30.2,24.9,30.5,24.9
			z"/>
	</g>
	<g>
		<path class="st3" d="M95.3,7.6h-0.7V1.7h0.7V7.6z"/>
		<path class="st3" d="M97.3,7.6h-0.7V3.3h0.7V4c0.4-0.5,0.9-0.8,1.4-0.8v0.7c-0.1,0-0.2,0-0.3,0c-0.2,0-0.4,0.1-0.7,0.2
			c-0.2,0.1-0.4,0.3-0.5,0.5V7.6z"/>
		<path class="st3" d="M102.9,7.6h-0.7V7.1c-0.4,0.4-0.8,0.6-1.4,0.6c-0.4,0-0.7-0.1-1-0.4c-0.3-0.3-0.4-0.6-0.4-1
			c0-0.4,0.1-0.8,0.4-1c0.3-0.2,0.6-0.4,1-0.4c0.6,0,1.1,0.2,1.4,0.6V4.7c0-0.3-0.1-0.5-0.3-0.7c-0.2-0.2-0.5-0.2-0.8-0.2
			c-0.5,0-0.9,0.2-1.3,0.6l-0.3-0.5c0.5-0.5,1-0.7,1.7-0.7c0.5,0,0.9,0.1,1.2,0.4c0.3,0.2,0.5,0.6,0.5,1.1V7.6z M101,7.2
			c0.5,0,0.9-0.2,1.2-0.5V5.9c-0.3-0.4-0.6-0.5-1.2-0.5c-0.3,0-0.6,0.1-0.8,0.3C100.1,5.8,100,6,100,6.3c0,0.3,0.1,0.5,0.3,0.7
			C100.5,7.1,100.7,7.2,101,7.2z"/>
		<path class="st3" d="M105.8,7.7c-0.6,0-1-0.2-1.4-0.6c-0.3-0.4-0.5-0.9-0.5-1.6c0-0.7,0.2-1.2,0.5-1.6c0.3-0.4,0.8-0.6,1.4-0.6
			c0.3,0,0.6,0.1,0.8,0.2s0.5,0.3,0.6,0.5V3.3h0.7v5.9h-0.7V6.9C106.9,7.4,106.4,7.7,105.8,7.7z M106,7.1c0.3,0,0.5-0.1,0.7-0.2
			c0.2-0.1,0.4-0.3,0.5-0.5V4.5c-0.1-0.2-0.3-0.3-0.5-0.5c-0.2-0.1-0.5-0.2-0.7-0.2c-0.4,0-0.7,0.2-1,0.5c-0.2,0.3-0.4,0.7-0.4,1.2
			c0,0.5,0.1,0.9,0.4,1.2C105.2,6.9,105.6,7.1,106,7.1z"/>
	</g>
	<g>
		<path class="st3" d="M16.6,137.8c-1,0-1.7-0.3-2.3-0.9l0.4-0.6c0.5,0.6,1.1,0.8,1.8,0.8c0.5,0,0.8-0.1,1-0.3
			c0.2-0.2,0.3-0.4,0.3-0.7c0-0.2-0.1-0.4-0.2-0.5c-0.1-0.1-0.3-0.3-0.5-0.3s-0.4-0.2-0.7-0.2c-0.3-0.1-0.5-0.1-0.7-0.2
			c-0.2-0.1-0.5-0.2-0.7-0.3s-0.4-0.3-0.5-0.5c-0.1-0.2-0.2-0.4-0.2-0.7c0-0.5,0.2-0.9,0.6-1.2c0.4-0.3,0.9-0.5,1.4-0.5
			c0.9,0,1.6,0.3,2.1,0.8l-0.4,0.5c-0.4-0.5-1-0.7-1.7-0.7c-0.4,0-0.6,0.1-0.9,0.3c-0.2,0.2-0.3,0.4-0.3,0.7c0,0.2,0.1,0.4,0.3,0.5
			c0.2,0.1,0.4,0.2,0.6,0.3c0.3,0.1,0.5,0.1,0.8,0.2c0.3,0.1,0.6,0.2,0.8,0.3c0.3,0.1,0.5,0.3,0.6,0.5c0.2,0.2,0.3,0.5,0.3,0.9
			c0,0.5-0.2,0.9-0.5,1.2C17.9,137.7,17.3,137.8,16.6,137.8z"/>
		<path class="st3" d="M19.6,139.4l0.1-0.6c0.1,0,0.2,0.1,0.4,0.1c0.2,0,0.3,0,0.4-0.1c0.1-0.1,0.2-0.2,0.3-0.4l0.3-0.6l-1.8-4.3
			h0.7l1.4,3.5l1.4-3.5h0.7l-2.1,5.1c-0.2,0.6-0.7,0.9-1.3,0.9C19.9,139.5,19.7,139.4,19.6,139.4z"/>
		<path class="st3" d="M24.8,137.7h-0.7v-4.3h0.7v0.7c0.4-0.5,0.9-0.8,1.4-0.8v0.7c-0.1,0-0.2,0-0.3,0c-0.2,0-0.4,0.1-0.7,0.2
			c-0.2,0.1-0.4,0.3-0.5,0.5V137.7z"/>
		<path class="st3" d="M27.3,132.9c-0.1,0-0.2,0-0.3-0.1c-0.1-0.1-0.1-0.2-0.1-0.3s0-0.2,0.1-0.3c0.1-0.1,0.2-0.1,0.3-0.1
			c0.1,0,0.2,0,0.3,0.1c0.1,0.1,0.1,0.2,0.1,0.3s0,0.2-0.1,0.3C27.6,132.8,27.5,132.9,27.3,132.9z M27.7,137.7H27v-4.3h0.7V137.7z"
			/>
		<path class="st3" d="M32.3,137.7h-0.7v-0.5c-0.4,0.4-0.8,0.6-1.4,0.6c-0.4,0-0.7-0.1-1-0.4c-0.3-0.3-0.4-0.6-0.4-1
			c0-0.4,0.1-0.8,0.4-1c0.3-0.2,0.6-0.4,1-0.4c0.6,0,1.1,0.2,1.4,0.6v-0.8c0-0.3-0.1-0.5-0.3-0.7c-0.2-0.2-0.5-0.2-0.8-0.2
			c-0.5,0-0.9,0.2-1.3,0.6l-0.3-0.5c0.5-0.5,1-0.7,1.7-0.7c0.5,0,0.9,0.1,1.2,0.4c0.3,0.2,0.5,0.6,0.5,1.1V137.7z M30.5,137.4
			c0.5,0,0.9-0.2,1.2-0.5V136c-0.3-0.4-0.6-0.5-1.2-0.5c-0.3,0-0.6,0.1-0.8,0.3c-0.2,0.2-0.3,0.4-0.3,0.7c0,0.3,0.1,0.5,0.3,0.7
			C29.9,137.3,30.2,137.4,30.5,137.4z"/>
	</g>
	<g>
		<path class="st3" d="M11,49.8c-1,0-1.7-0.3-2.3-0.9l0.4-0.6c0.5,0.6,1.1,0.8,1.8,0.8c0.5,0,0.8-0.1,1-0.3c0.2-0.2,0.3-0.4,0.3-0.7
			c0-0.2-0.1-0.4-0.2-0.5c-0.1-0.1-0.3-0.3-0.5-0.3c-0.2-0.1-0.4-0.2-0.7-0.2c-0.3-0.1-0.5-0.1-0.7-0.2c-0.2-0.1-0.5-0.2-0.7-0.3
			c-0.2-0.1-0.4-0.3-0.5-0.5c-0.1-0.2-0.2-0.4-0.2-0.7c0-0.5,0.2-0.9,0.6-1.2c0.4-0.3,0.9-0.5,1.4-0.5c0.9,0,1.6,0.3,2.1,0.8
			l-0.4,0.5c-0.4-0.5-1-0.7-1.7-0.7c-0.4,0-0.6,0.1-0.9,0.3c-0.2,0.2-0.3,0.4-0.3,0.7c0,0.2,0.1,0.4,0.3,0.5
			c0.2,0.1,0.4,0.2,0.6,0.3c0.3,0.1,0.5,0.1,0.8,0.2c0.3,0.1,0.6,0.2,0.8,0.3c0.3,0.1,0.5,0.3,0.6,0.5c0.2,0.2,0.3,0.5,0.3,0.9
			c0,0.5-0.2,0.9-0.5,1.2C12.3,49.6,11.7,49.8,11,49.8z"/>
		<path class="st3" d="M17.8,49.7h-0.7v-0.6c-0.2,0.2-0.4,0.4-0.7,0.5c-0.3,0.1-0.6,0.2-0.8,0.2c-0.9,0-1.4-0.5-1.4-1.4v-3h0.7v2.8
			c0,0.4,0.1,0.6,0.2,0.7c0.2,0.1,0.4,0.2,0.7,0.2c0.2,0,0.5-0.1,0.7-0.2c0.2-0.1,0.4-0.3,0.5-0.5v-3.1h0.7V49.7z"/>
		<path class="st3" d="M22.8,49.7h-0.7V49c-0.4,0.5-0.8,0.7-1.4,0.7c-0.6,0-1-0.2-1.4-0.6c-0.3-0.4-0.5-0.9-0.5-1.6
			c0-0.7,0.2-1.2,0.5-1.6c0.3-0.4,0.8-0.6,1.4-0.6c0.6,0,1.1,0.2,1.4,0.7v-2.3h0.7V49.7z M20.9,49.2c0.3,0,0.5-0.1,0.7-0.2
			s0.4-0.3,0.5-0.5v-1.9c-0.1-0.2-0.3-0.4-0.5-0.5c-0.2-0.1-0.5-0.2-0.7-0.2c-0.4,0-0.7,0.2-1,0.5c-0.2,0.3-0.4,0.7-0.4,1.2
			c0,0.5,0.1,0.9,0.4,1.2C20.1,49,20.5,49.2,20.9,49.2z"/>
		<path class="st3" d="M27.5,49.7h-0.7v-0.5c-0.4,0.4-0.8,0.6-1.4,0.6c-0.4,0-0.7-0.1-1-0.4c-0.3-0.3-0.4-0.6-0.4-1
			c0-0.4,0.1-0.8,0.4-1s0.6-0.4,1-0.4c0.6,0,1.1,0.2,1.4,0.6v-0.8c0-0.3-0.1-0.5-0.3-0.7s-0.5-0.2-0.8-0.2c-0.5,0-0.9,0.2-1.3,0.6
			L24.1,46c0.5-0.5,1-0.7,1.7-0.7c0.5,0,0.9,0.1,1.2,0.4c0.3,0.2,0.5,0.6,0.5,1.1V49.7z M25.6,49.3c0.5,0,0.9-0.2,1.2-0.5V48
			c-0.3-0.4-0.6-0.5-1.2-0.5c-0.3,0-0.6,0.1-0.8,0.3c-0.2,0.2-0.3,0.4-0.3,0.7c0,0.3,0.1,0.5,0.3,0.7C25.1,49.2,25.3,49.3,25.6,49.3
			z"/>
		<path class="st3" d="M32.3,49.7h-0.7v-2.8c0-0.4-0.1-0.6-0.2-0.8c-0.2-0.1-0.4-0.2-0.7-0.2c-0.2,0-0.5,0.1-0.7,0.2
			c-0.2,0.1-0.4,0.3-0.5,0.5v3.1h-0.7v-4.3h0.7V46c0.2-0.2,0.4-0.4,0.7-0.5c0.3-0.1,0.6-0.2,0.9-0.2c0.9,0,1.4,0.5,1.4,1.4V49.7z"/>
	</g>
	<g>
		<path class="st3" d="M21.1,76.4h-0.7v-2.7h-3.4v2.7h-0.7v-5.9h0.7v2.5h3.4v-2.5h0.7V76.4z"/>
		<path class="st3" d="M25.8,76.4h-0.7v-0.5c-0.4,0.4-0.8,0.6-1.4,0.6c-0.4,0-0.7-0.1-1-0.4c-0.3-0.3-0.4-0.6-0.4-1
			c0-0.4,0.1-0.8,0.4-1c0.3-0.2,0.6-0.4,1-0.4c0.6,0,1.1,0.2,1.4,0.6v-0.8c0-0.3-0.1-0.5-0.3-0.7c-0.2-0.2-0.5-0.2-0.8-0.2
			c-0.5,0-0.9,0.2-1.3,0.6l-0.3-0.5c0.5-0.5,1-0.7,1.7-0.7c0.5,0,0.9,0.1,1.2,0.4c0.3,0.2,0.5,0.6,0.5,1.1V76.4z M23.9,76
			c0.5,0,0.9-0.2,1.2-0.5v-0.8c-0.3-0.4-0.6-0.5-1.2-0.5c-0.3,0-0.6,0.1-0.8,0.3s-0.3,0.4-0.3,0.7c0,0.3,0.1,0.5,0.3,0.7
			C23.4,75.9,23.6,76,23.9,76z"/>
		<path class="st3" d="M27.4,71.5c-0.1,0-0.2,0-0.3-0.1C27,71.3,27,71.2,27,71.1s0-0.2,0.1-0.3c0.1-0.1,0.2-0.1,0.3-0.1
			c0.1,0,0.2,0,0.3,0.1c0.1,0.1,0.1,0.2,0.1,0.3s0,0.2-0.1,0.3C27.6,71.5,27.5,71.5,27.4,71.5z M27.7,76.4h-0.7v-4.3h0.7V76.4z"/>
		<path class="st3" d="M30.1,76.5c-0.3,0-0.5-0.1-0.7-0.3c-0.2-0.2-0.2-0.4-0.2-0.7v-2.8h-0.7v-0.6h0.7V71h0.7v1.2h0.9v0.6h-0.9v2.6
			c0,0.2,0,0.3,0.1,0.4c0.1,0.1,0.2,0.1,0.3,0.1c0.2,0,0.3-0.1,0.4-0.2l0.2,0.5C30.7,76.4,30.5,76.5,30.1,76.5z"/>
		<path class="st3" d="M32,71.5c-0.1,0-0.2,0-0.3-0.1c-0.1-0.1-0.1-0.2-0.1-0.3s0-0.2,0.1-0.3c0.1-0.1,0.2-0.1,0.3-0.1
			c0.1,0,0.2,0,0.3,0.1c0.1,0.1,0.1,0.2,0.1,0.3s0,0.2-0.1,0.3C32.2,71.5,32.1,71.5,32,71.5z M32.3,76.4h-0.7v-4.3h0.7V76.4z"/>
	</g>
	<g>
		<path class="st3" d="M18.2,106h-2v-5.9h2c0.9,0,1.6,0.3,2.2,0.8c0.6,0.6,0.8,1.3,0.8,2.1c0,0.9-0.3,1.6-0.8,2.1
			C19.8,105.7,19.1,106,18.2,106z M18.2,105.3c0.7,0,1.2-0.2,1.6-0.7c0.4-0.4,0.6-1,0.6-1.6c0-0.7-0.2-1.2-0.6-1.6
			c-0.4-0.4-1-0.7-1.7-0.7h-1.3v4.6H18.2z"/>
		<path class="st3" d="M26.6,106h-0.9l-1.5-2.3h-1.2v2.3h-0.7v-5.9h2.4c0.5,0,1,0.2,1.3,0.5c0.3,0.3,0.5,0.8,0.5,1.3
			c0,0.5-0.1,0.9-0.4,1.2c-0.3,0.3-0.7,0.5-1.1,0.5L26.6,106z M24.6,103c0.3,0,0.6-0.1,0.8-0.3c0.2-0.2,0.3-0.5,0.3-0.8
			c0-0.3-0.1-0.6-0.3-0.8c-0.2-0.2-0.5-0.3-0.8-0.3h-1.5v2.2H24.6z"/>
		<path class="st3" d="M30.5,106.1c-0.9,0-1.6-0.3-2.2-0.8c-0.6-0.6-0.9-1.3-0.9-2.2c0-0.9,0.3-1.6,0.9-2.2c0.6-0.6,1.3-0.8,2.2-0.8
			c0.9,0,1.7,0.4,2.2,1.2l-0.6,0.3c-0.2-0.3-0.4-0.5-0.7-0.6c-0.3-0.2-0.6-0.2-0.9-0.2c-0.6,0-1.2,0.2-1.6,0.7
			c-0.4,0.4-0.6,1-0.6,1.7s0.2,1.3,0.6,1.7c0.4,0.4,1,0.7,1.6,0.7c0.3,0,0.6-0.1,0.9-0.2c0.3-0.2,0.5-0.4,0.7-0.6l0.6,0.3
			C32.1,105.7,31.4,106.1,30.5,106.1z"/>
	</g>
	<g>
		<path class="st0" d="M172.9,40.6H167v-1.1c1.7-1.3,2.9-2.2,3.5-2.9c0.6-0.6,0.9-1.2,0.9-1.8c0-0.4-0.1-0.7-0.4-0.9
			c-0.3-0.2-0.6-0.3-1-0.3c-0.9,0-1.6,0.3-2.2,1l-0.8-0.9c0.4-0.4,0.8-0.7,1.3-1c0.5-0.2,1.1-0.3,1.7-0.3c0.8,0,1.5,0.2,2.1,0.7
			c0.6,0.4,0.9,1.1,0.9,1.8c0,0.7-0.3,1.4-0.9,2.1c-0.6,0.7-1.5,1.5-2.7,2.4h3.6V40.6z"/>
		<path class="st0" d="M178.9,40.4c-0.4,0.2-0.9,0.4-1.5,0.4s-1-0.1-1.5-0.4c-0.4-0.2-0.8-0.6-1-1s-0.4-0.9-0.6-1.3
			c-0.1-0.5-0.2-1-0.2-1.5c0-0.5,0.1-1,0.2-1.5c0.1-0.5,0.3-0.9,0.6-1.3c0.3-0.4,0.6-0.7,1-1s0.9-0.4,1.5-0.4s1,0.1,1.5,0.4
			c0.4,0.2,0.8,0.6,1,1c0.3,0.4,0.4,0.8,0.6,1.3c0.1,0.5,0.2,1,0.2,1.5c0,0.5-0.1,1-0.2,1.5c-0.1,0.5-0.3,0.9-0.6,1.3
			C179.6,39.8,179.3,40.1,178.9,40.4z M176,38.6c0.3,0.6,0.7,0.8,1.4,0.8c0.6,0,1.1-0.3,1.4-0.8c0.3-0.6,0.4-1.3,0.4-2.1
			c0-0.5-0.1-1-0.2-1.5c-0.1-0.4-0.3-0.8-0.6-1.1c-0.3-0.3-0.6-0.4-1.1-0.4c-0.4,0-0.8,0.1-1.1,0.4c-0.3,0.3-0.5,0.6-0.6,1.1
			c-0.1,0.4-0.2,0.9-0.2,1.5C175.6,37.4,175.7,38.1,176,38.6z"/>
		<path class="st0" d="M184.9,40.7c-1.3,0-2.3-0.4-3-1.3l0.8-1c0.6,0.6,1.3,1,2.2,1c0.5,0,0.9-0.1,1.2-0.4c0.3-0.3,0.5-0.6,0.5-1
			c0-0.4-0.1-0.8-0.4-1.1c-0.3-0.3-0.7-0.4-1.2-0.4c-0.7,0-1.3,0.2-1.8,0.7l-1-0.3v-4.6h5.3v1.3h-3.9V36c0.5-0.5,1.1-0.7,1.8-0.7
			c0.7,0,1.3,0.2,1.8,0.7c0.5,0.5,0.8,1.1,0.8,1.9c0,0.8-0.3,1.5-0.9,2C186.6,40.5,185.8,40.7,184.9,40.7z"/>
	</g>
	<g>
		<path class="st0" d="M172.9,64.8H167v-1.1c1.7-1.3,2.9-2.2,3.5-2.9c0.6-0.6,0.9-1.2,0.9-1.8c0-0.4-0.1-0.7-0.4-0.9
			c-0.3-0.2-0.6-0.3-1-0.3c-0.9,0-1.6,0.3-2.2,1l-0.8-0.9c0.4-0.4,0.8-0.7,1.3-1c0.5-0.2,1.1-0.3,1.7-0.3c0.8,0,1.5,0.2,2.1,0.7
			c0.6,0.4,0.9,1.1,0.9,1.8c0,0.7-0.3,1.4-0.9,2.1c-0.6,0.7-1.5,1.5-2.7,2.4h3.6V64.8z"/>
		<path class="st0" d="M177.5,64.9c-0.6,0-1.1-0.1-1.5-0.3c-0.4-0.2-0.8-0.5-1.1-0.9c-0.3-0.4-0.5-0.8-0.6-1.3
			c-0.1-0.5-0.2-1-0.2-1.6c0-1.2,0.3-2.2,0.9-3c0.6-0.8,1.5-1.2,2.7-1.2c0.9,0,1.7,0.3,2.3,0.9l-0.7,1.1c-0.5-0.5-1-0.7-1.7-0.7
			c-0.7,0-1.2,0.3-1.6,0.8c-0.4,0.5-0.6,1.2-0.6,1.9c0,0.1,0,0.2,0,0.2c0.2-0.3,0.5-0.6,0.9-0.8s0.8-0.3,1.3-0.3
			c0.8,0,1.4,0.2,1.9,0.7c0.5,0.5,0.8,1.1,0.8,1.9c0,0.8-0.3,1.4-0.8,1.9C179.1,64.7,178.4,64.9,177.5,64.9z M177.4,63.6
			c0.5,0,0.9-0.1,1.2-0.4c0.3-0.3,0.4-0.6,0.4-1c0-0.5-0.2-0.8-0.5-1.1c-0.3-0.2-0.7-0.4-1.2-0.4c-0.3,0-0.7,0.1-1,0.3
			c-0.3,0.2-0.6,0.4-0.8,0.7c0,0.5,0.2,1,0.5,1.3C176.4,63.5,176.9,63.6,177.4,63.6z"/>
		<path class="st0" d="M186.2,64.6c-0.4,0.2-0.9,0.4-1.5,0.4c-0.5,0-1-0.1-1.5-0.4c-0.4-0.2-0.8-0.6-1-1c-0.3-0.4-0.4-0.9-0.6-1.3
			c-0.1-0.5-0.2-1-0.2-1.5s0.1-1,0.2-1.5c0.1-0.5,0.3-0.9,0.6-1.3c0.3-0.4,0.6-0.7,1-1c0.4-0.2,0.9-0.4,1.5-0.4c0.5,0,1,0.1,1.5,0.4
			c0.4,0.2,0.8,0.6,1,1c0.3,0.4,0.4,0.8,0.6,1.3c0.1,0.5,0.2,1,0.2,1.5s-0.1,1-0.2,1.5c-0.1,0.5-0.3,0.9-0.6,1.3
			C187,64,186.7,64.3,186.2,64.6z M183.4,62.8c0.3,0.6,0.7,0.8,1.4,0.8c0.6,0,1.1-0.3,1.4-0.8c0.3-0.6,0.4-1.3,0.4-2.1
			c0-0.5-0.1-1-0.2-1.5c-0.1-0.4-0.3-0.8-0.6-1.1c-0.3-0.3-0.6-0.4-1.1-0.4c-0.4,0-0.8,0.1-1.1,0.4c-0.3,0.3-0.5,0.6-0.6,1.1
			c-0.1,0.4-0.2,0.9-0.2,1.5C182.9,61.6,183.1,62.3,183.4,62.8z"/>
	</g>
	<g>
		<path class="st0" d="M172.9,94.5H167v-1.1c1.7-1.3,2.9-2.2,3.5-2.9c0.6-0.6,0.9-1.2,0.9-1.8c0-0.4-0.1-0.7-0.4-0.9
			c-0.3-0.2-0.6-0.3-1-0.3c-0.9,0-1.6,0.3-2.2,1l-0.8-0.9c0.4-0.4,0.8-0.7,1.3-1c0.5-0.2,1.1-0.3,1.7-0.3c0.8,0,1.5,0.2,2.1,0.7
			c0.6,0.4,0.9,1.1,0.9,1.8c0,0.7-0.3,1.4-0.9,2.1c-0.6,0.7-1.5,1.5-2.7,2.4h3.6V94.5z"/>
		<path class="st0" d="M178.9,94.3c-0.4,0.2-0.9,0.4-1.5,0.4s-1-0.1-1.5-0.4s-0.8-0.6-1-1c-0.3-0.4-0.4-0.9-0.6-1.3
			c-0.1-0.5-0.2-1-0.2-1.5c0-0.5,0.1-1,0.2-1.5c0.1-0.5,0.3-0.9,0.6-1.3c0.3-0.4,0.6-0.7,1-1c0.4-0.2,0.9-0.4,1.5-0.4s1,0.1,1.5,0.4
			c0.4,0.2,0.8,0.6,1,1c0.3,0.4,0.4,0.8,0.6,1.3c0.1,0.5,0.2,1,0.2,1.5c0,0.5-0.1,1-0.2,1.5c-0.1,0.5-0.3,0.9-0.6,1.3
			C179.6,93.7,179.3,94,178.9,94.3z M176,92.5c0.3,0.6,0.7,0.8,1.4,0.8c0.6,0,1.1-0.3,1.4-0.8c0.3-0.6,0.4-1.3,0.4-2.1
			c0-0.5-0.1-1-0.2-1.5s-0.3-0.8-0.6-1.1c-0.3-0.3-0.6-0.4-1.1-0.4c-0.4,0-0.8,0.1-1.1,0.4c-0.3,0.3-0.5,0.6-0.6,1.1
			s-0.2,0.9-0.2,1.5C175.6,91.3,175.7,92,176,92.5z"/>
		<path class="st0" d="M184.9,94.6c-1.3,0-2.3-0.4-3-1.3l0.8-1c0.6,0.6,1.3,1,2.2,1c0.5,0,0.9-0.1,1.2-0.4c0.3-0.3,0.5-0.6,0.5-1
			c0-0.4-0.1-0.8-0.4-1.1c-0.3-0.3-0.7-0.4-1.2-0.4c-0.7,0-1.3,0.2-1.8,0.7l-1-0.3v-4.6h5.3v1.3h-3.9v2.4c0.5-0.5,1.1-0.7,1.8-0.7
			c0.7,0,1.3,0.2,1.8,0.7c0.5,0.5,0.8,1.1,0.8,1.9c0,0.8-0.3,1.5-0.9,2C186.6,94.4,185.8,94.6,184.9,94.6z"/>
	</g>
	<g>
		<path class="st0" d="M14.5,151c-0.7,0-1.3-0.1-1.8-0.4s-0.9-0.6-1.2-1l0.8-0.9c0.3,0.3,0.6,0.5,1,0.7c0.4,0.2,0.8,0.3,1.3,0.3
			c0.5,0,0.9-0.1,1.2-0.3c0.3-0.2,0.5-0.5,0.5-0.9c0-0.8-0.6-1.1-1.8-1.1c-0.5,0-0.9,0-0.9,0v-1.3c0.1,0,0.4,0,0.9,0
			c0.5,0,0.9-0.1,1.2-0.3c0.3-0.2,0.5-0.4,0.5-0.8c0-0.4-0.2-0.6-0.5-0.8c-0.3-0.2-0.7-0.3-1.2-0.3c-0.8,0-1.5,0.3-2.1,0.9l-0.7-0.9
			c0.7-0.9,1.7-1.3,3-1.3c0.9,0,1.6,0.2,2.1,0.6c0.5,0.4,0.8,0.9,0.8,1.6c0,0.5-0.2,0.9-0.5,1.3c-0.4,0.3-0.8,0.5-1.2,0.6
			c0.5,0,0.9,0.2,1.3,0.6c0.4,0.4,0.6,0.8,0.6,1.4c0,0.7-0.3,1.3-0.8,1.7C16.2,150.8,15.4,151,14.5,151z"/>
		<path class="st0" d="M23.4,150.6c-0.4,0.2-0.9,0.4-1.5,0.4c-0.5,0-1-0.1-1.5-0.4c-0.4-0.2-0.8-0.6-1-1c-0.3-0.4-0.4-0.9-0.6-1.3
			c-0.1-0.5-0.2-1-0.2-1.5c0-0.5,0.1-1,0.2-1.5c0.1-0.5,0.3-0.9,0.6-1.3c0.3-0.4,0.6-0.7,1-1c0.4-0.2,0.9-0.4,1.5-0.4
			c0.5,0,1,0.1,1.5,0.4c0.4,0.2,0.8,0.6,1,1c0.3,0.4,0.4,0.8,0.6,1.3c0.1,0.5,0.2,1,0.2,1.5c0,0.5-0.1,1-0.2,1.5
			c-0.1,0.5-0.3,0.9-0.6,1.3C24.2,150.1,23.8,150.4,23.4,150.6z M20.5,148.9c0.3,0.6,0.8,0.8,1.4,0.8c0.6,0,1.1-0.3,1.4-0.8
			c0.3-0.6,0.4-1.3,0.4-2.1c0-0.5-0.1-1-0.2-1.5c-0.1-0.4-0.3-0.8-0.6-1.1s-0.6-0.4-1.1-0.4c-0.4,0-0.8,0.1-1.1,0.4
			c-0.3,0.3-0.5,0.6-0.6,1.1c-0.1,0.4-0.2,0.9-0.2,1.5C20.1,147.6,20.3,148.3,20.5,148.9z"/>
		<path class="st0" d="M30.9,150.6c-0.4,0.2-0.9,0.4-1.5,0.4c-0.5,0-1-0.1-1.5-0.4c-0.4-0.2-0.8-0.6-1-1c-0.3-0.4-0.4-0.9-0.6-1.3
			c-0.1-0.5-0.2-1-0.2-1.5c0-0.5,0.1-1,0.2-1.5c0.1-0.5,0.3-0.9,0.6-1.3c0.3-0.4,0.6-0.7,1-1c0.4-0.2,0.9-0.4,1.5-0.4
			c0.5,0,1,0.1,1.5,0.4c0.4,0.2,0.8,0.6,1,1s0.4,0.8,0.6,1.3c0.1,0.5,0.2,1,0.2,1.5c0,0.5-0.1,1-0.2,1.5c-0.1,0.5-0.3,0.9-0.6,1.3
			C31.7,150.1,31.3,150.4,30.9,150.6z M28.1,148.9c0.3,0.6,0.7,0.8,1.4,0.8s1.1-0.3,1.4-0.8c0.3-0.6,0.4-1.3,0.4-2.1
			c0-0.5-0.1-1-0.2-1.5c-0.1-0.4-0.3-0.8-0.6-1.1c-0.3-0.3-0.6-0.4-1.1-0.4c-0.4,0-0.8,0.1-1.1,0.4c-0.3,0.3-0.5,0.6-0.6,1.1
			c-0.1,0.4-0.2,0.9-0.2,1.5C27.6,147.6,27.8,148.3,28.1,148.9z"/>
	</g>
	<g>
		<path class="st0" d="M18.6,117.3h-5.9v-1.1c1.7-1.3,2.9-2.2,3.5-2.9c0.6-0.6,0.9-1.2,0.9-1.8c0-0.4-0.1-0.7-0.4-0.9
			c-0.3-0.2-0.6-0.3-1-0.3c-0.9,0-1.6,0.3-2.2,1l-0.8-0.9c0.4-0.4,0.8-0.7,1.3-1c0.5-0.2,1.1-0.3,1.7-0.3c0.8,0,1.5,0.2,2.1,0.7
			c0.6,0.4,0.9,1.1,0.9,1.8c0,0.7-0.3,1.4-0.9,2.1c-0.6,0.7-1.5,1.5-2.7,2.4h3.6V117.3z"/>
		<path class="st0" d="M22.4,117.3h-1.6l3.1-6.9h-4.2v-1.3h5.9v1L22.4,117.3z"/>
		<path class="st0" d="M29.6,117.5c-1.3,0-2.3-0.4-3-1.3l0.8-1c0.6,0.6,1.3,1,2.2,1c0.5,0,0.9-0.1,1.2-0.4c0.3-0.3,0.5-0.6,0.5-1
			c0-0.4-0.1-0.8-0.4-1.1c-0.3-0.3-0.7-0.4-1.2-0.4c-0.7,0-1.3,0.2-1.8,0.7l-1-0.3v-4.6h5.3v1.3h-3.9v2.4c0.5-0.5,1.1-0.7,1.8-0.7
			c0.7,0,1.3,0.2,1.8,0.7c0.5,0.5,0.8,1.1,0.8,1.9c0,0.8-0.3,1.5-0.9,2C31.3,117.2,30.5,117.5,29.6,117.5z"/>
	</g>
	<g>
		<path class="st0" d="M17.8,87h-5.9v-1.1c1.7-1.3,2.9-2.2,3.5-2.9c0.6-0.6,0.9-1.2,0.9-1.8c0-0.4-0.1-0.7-0.4-0.9
			c-0.3-0.2-0.6-0.3-1-0.3c-0.9,0-1.6,0.3-2.2,1L11.8,80c0.4-0.4,0.8-0.7,1.3-1c0.5-0.2,1.1-0.3,1.7-0.3c0.8,0,1.5,0.2,2.1,0.7
			c0.6,0.4,0.9,1.1,0.9,1.8c0,0.7-0.3,1.4-0.9,2.1c-0.6,0.7-1.5,1.5-2.7,2.4h3.6V87z"/>
		<path class="st0" d="M22.3,87.2c-1.3,0-2.3-0.4-3-1.3l0.8-1c0.6,0.6,1.3,1,2.2,1c0.5,0,0.9-0.1,1.2-0.4s0.5-0.6,0.5-1
			c0-0.4-0.1-0.8-0.4-1.1c-0.3-0.3-0.7-0.4-1.2-0.4c-0.7,0-1.3,0.2-1.8,0.7l-1-0.3v-4.6h5.3v1.3h-3.9v2.4c0.5-0.5,1.1-0.7,1.8-0.7
			c0.7,0,1.3,0.2,1.8,0.7c0.5,0.5,0.8,1.1,0.8,1.9c0,0.8-0.3,1.5-0.9,2C23.9,86.9,23.2,87.2,22.3,87.2z"/>
		<path class="st0" d="M29.6,87.2c-1.3,0-2.3-0.4-3-1.3l0.8-1c0.6,0.6,1.3,1,2.2,1c0.5,0,0.9-0.1,1.2-0.4c0.3-0.3,0.5-0.6,0.5-1
			c0-0.4-0.1-0.8-0.4-1.1c-0.3-0.3-0.7-0.4-1.2-0.4c-0.7,0-1.3,0.2-1.8,0.7l-1-0.3v-4.6h5.3v1.3h-3.9v2.4c0.5-0.5,1.1-0.7,1.8-0.7
			c0.7,0,1.3,0.2,1.8,0.7c0.5,0.5,0.8,1.1,0.8,1.9c0,0.8-0.3,1.5-0.9,2C31.3,86.9,30.5,87.2,29.6,87.2z"/>
	</g>
	<g>
		<path class="st0" d="M15.7,62c-0.7,0-1.3-0.1-1.8-0.4s-0.9-0.6-1.2-1l0.8-0.9c0.3,0.3,0.6,0.5,1,0.7c0.4,0.2,0.8,0.3,1.3,0.3
			c0.5,0,0.9-0.1,1.2-0.3c0.3-0.2,0.5-0.5,0.5-0.9c0-0.8-0.6-1.1-1.8-1.1c-0.5,0-0.9,0-0.9,0v-1.3c0.1,0,0.4,0,0.9,0
			c0.5,0,0.9-0.1,1.2-0.3c0.3-0.2,0.5-0.4,0.5-0.8c0-0.4-0.2-0.6-0.5-0.8c-0.3-0.2-0.7-0.3-1.2-0.3c-0.8,0-1.5,0.3-2.1,0.9l-0.7-0.9
			c0.7-0.9,1.7-1.3,3-1.3c0.9,0,1.6,0.2,2.1,0.6c0.5,0.4,0.8,0.9,0.8,1.6c0,0.5-0.2,0.9-0.5,1.3c-0.4,0.3-0.8,0.5-1.2,0.6
			c0.5,0,0.9,0.2,1.3,0.6c0.4,0.4,0.6,0.8,0.6,1.4c0,0.7-0.3,1.3-0.8,1.7C17.4,61.8,16.7,62,15.7,62z"/>
		<path class="st0" d="M22.4,61.9h-1.6l3.1-6.9h-4.2v-1.3h5.9v1L22.4,61.9z"/>
		<path class="st0" d="M29.6,62c-1.3,0-2.3-0.4-3-1.3l0.8-1c0.6,0.6,1.3,1,2.2,1c0.5,0,0.9-0.1,1.2-0.4s0.5-0.6,0.5-1
			c0-0.4-0.1-0.8-0.4-1.1c-0.3-0.3-0.7-0.4-1.2-0.4c-0.7,0-1.3,0.2-1.8,0.7l-1-0.3v-4.6h5.3V55h-3.9v2.4c0.5-0.5,1.1-0.7,1.8-0.7
			c0.7,0,1.3,0.2,1.8,0.7c0.5,0.5,0.8,1.1,0.8,1.9c0,0.8-0.3,1.5-0.9,2C31.3,61.8,30.5,62,29.6,62z"/>
	</g>
	<g>
		<path class="st0" d="M17.5,37.2H16v-6.3l-1.3,1.4l-0.8-0.9l2.3-2.4h1.2V37.2z"/>
		<path class="st0" d="M22.2,37.3c-0.6,0-1.1-0.1-1.5-0.3c-0.4-0.2-0.8-0.5-1.1-0.9c-0.3-0.4-0.5-0.8-0.6-1.3
			c-0.1-0.5-0.2-1-0.2-1.6c0-1.2,0.3-2.2,0.9-3c0.6-0.8,1.5-1.2,2.7-1.2c0.9,0,1.7,0.3,2.3,0.9l-0.7,1.1c-0.5-0.5-1-0.7-1.7-0.7
			c-0.7,0-1.2,0.3-1.6,0.8c-0.4,0.5-0.6,1.2-0.6,1.9c0,0.1,0,0.2,0,0.2c0.2-0.3,0.5-0.6,0.9-0.8s0.8-0.3,1.3-0.3
			c0.8,0,1.4,0.2,1.9,0.7s0.8,1.1,0.8,1.9c0,0.8-0.3,1.4-0.8,1.9C23.8,37,23.1,37.3,22.2,37.3z M22.1,36c0.5,0,0.9-0.1,1.2-0.4
			c0.3-0.3,0.4-0.6,0.4-1c0-0.5-0.2-0.8-0.5-1.1c-0.3-0.2-0.7-0.4-1.2-0.4c-0.3,0-0.7,0.1-1,0.3c-0.3,0.2-0.6,0.4-0.8,0.7
			c0,0.5,0.2,1,0.5,1.3C21.1,35.8,21.5,36,22.1,36z"/>
		<path class="st0" d="M30.9,36.9c-0.4,0.2-0.9,0.4-1.5,0.4c-0.5,0-1-0.1-1.5-0.4c-0.4-0.2-0.8-0.6-1-1c-0.3-0.4-0.4-0.9-0.6-1.3
			c-0.1-0.5-0.2-1-0.2-1.5s0.1-1,0.2-1.5s0.3-0.9,0.6-1.3c0.3-0.4,0.6-0.7,1-1c0.4-0.2,0.9-0.4,1.5-0.4c0.5,0,1,0.1,1.5,0.4
			c0.4,0.2,0.8,0.6,1,1c0.3,0.4,0.4,0.8,0.6,1.3c0.1,0.5,0.2,1,0.2,1.5s-0.1,1-0.2,1.5c-0.1,0.5-0.3,0.9-0.6,1.3
			S31.3,36.7,30.9,36.9z M28.1,35.2c0.3,0.6,0.7,0.8,1.4,0.8s1.1-0.3,1.4-0.8c0.3-0.6,0.4-1.3,0.4-2.1c0-0.5-0.1-1-0.2-1.5
			c-0.1-0.4-0.3-0.8-0.6-1.1c-0.3-0.3-0.6-0.4-1.1-0.4c-0.4,0-0.8,0.1-1.1,0.4c-0.3,0.3-0.5,0.6-0.6,1.1c-0.1,0.4-0.2,0.9-0.2,1.5
			C27.6,33.9,27.8,34.6,28.1,35.2z"/>
	</g>
	<g>
		<path class="st0" d="M96.9,19.7H91v-1.1c1.7-1.3,2.9-2.2,3.5-2.9s0.9-1.2,0.9-1.8c0-0.4-0.1-0.7-0.4-0.9c-0.3-0.2-0.6-0.3-1-0.3
			c-0.9,0-1.6,0.3-2.2,1l-0.8-0.9c0.4-0.4,0.8-0.7,1.3-1c0.5-0.2,1.1-0.3,1.7-0.3c0.8,0,1.5,0.2,2.1,0.7c0.6,0.4,0.9,1.1,0.9,1.8
			c0,0.7-0.3,1.4-0.9,2.1c-0.6,0.7-1.5,1.5-2.7,2.4h3.6V19.7z"/>
		<path class="st0" d="M101.1,19.8c-0.7,0-1.3-0.1-1.8-0.4c-0.5-0.2-0.9-0.6-1.2-1l0.8-0.9c0.3,0.3,0.6,0.5,1,0.7
			c0.4,0.2,0.8,0.3,1.3,0.3c0.5,0,0.9-0.1,1.2-0.3c0.3-0.2,0.5-0.5,0.5-0.9c0-0.8-0.6-1.1-1.8-1.1c-0.5,0-0.9,0-0.9,0v-1.3
			c0.1,0,0.4,0,0.9,0c0.5,0,0.9-0.1,1.2-0.3c0.3-0.2,0.5-0.4,0.5-0.8c0-0.4-0.2-0.6-0.5-0.8c-0.3-0.2-0.7-0.3-1.2-0.3
			c-0.8,0-1.5,0.3-2.1,0.9l-0.7-0.9c0.7-0.9,1.7-1.3,3-1.3c0.9,0,1.6,0.2,2.1,0.6c0.5,0.4,0.8,0.9,0.8,1.6c0,0.5-0.2,0.9-0.5,1.3
			c-0.4,0.3-0.8,0.5-1.2,0.6c0.5,0,0.9,0.2,1.3,0.6c0.4,0.4,0.6,0.8,0.6,1.4c0,0.7-0.3,1.3-0.8,1.7C102.7,19.6,102,19.8,101.1,19.8z
			"/>
		<path class="st0" d="M108.4,19.8c-1.3,0-2.3-0.4-3-1.3l0.8-1c0.6,0.6,1.3,1,2.2,1c0.5,0,0.9-0.1,1.2-0.4s0.5-0.6,0.5-1
			c0-0.4-0.1-0.8-0.4-1.1c-0.3-0.3-0.7-0.4-1.2-0.4c-0.7,0-1.3,0.2-1.8,0.7l-1-0.3v-4.6h5.3v1.3h-3.9v2.4c0.5-0.5,1.1-0.7,1.8-0.7
			c0.7,0,1.3,0.2,1.8,0.7s0.8,1.1,0.8,1.9c0,0.8-0.3,1.5-0.9,2C110.1,19.6,109.3,19.8,108.4,19.8z"/>
	</g>
	<g>
		<g>
			<path class="st4" d="M160,56.5c-12.7-2.1-25.7-1.4-33.7,6.8"/>
			<g>
				<path class="st2" d="M126.4,63.2c0.4,0,0.8,0.3,1.1,0.5c-0.6-0.1-1.2,0-1.8,0.2c0.2-0.6,0.2-1.2,0.2-1.8
					C126.1,62.4,126.4,62.8,126.4,63.2z"/>
			</g>
		</g>
	</g>
	<g>
		<g>
			<path class="st1" d="M161.1,84.7c-14.5,2.2-26.2-3.5-31.1-9.9"/>
			<g>
				<path class="st2" d="M130,74.8c0,0.3-0.3,0.6-0.5,0.8c0.1-0.5,0.2-1,0-1.4c0.4,0.2,0.9,0.3,1.4,0.3
					C130.7,74.7,130.3,74.8,130,74.8z"/>
			</g>
		</g>
	</g>
	<g>
		<g>
			<path class="st5" d="M40.3,139.2c14,0.6,51.9-7.2,62.8-31.1"/>
			<g>
				<path class="st2" d="M103,108.1c-0.3,0.1-0.7,0-1-0.1c0.5-0.1,1-0.3,1.3-0.6c0,0.5,0.1,1,0.4,1.4
					C103.4,108.7,103.1,108.4,103,108.1z"/>
			</g>
		</g>
	</g>
	<g>
		<g>
			<path class="st6" d="M159,116c-10.1-0.5-27,1.7-34.7-12.1"/>
			<g>
				<path class="st2" d="M124.3,104.1c-0.1,0.5-0.7,1-1.1,1.2c0.3-0.8,0.5-1.6,0.4-2.4c0.6,0.5,1.5,0.7,2.3,0.9
					C125.5,104,124.8,104.2,124.3,104.1z"/>
			</g>
		</g>
	</g>
	<g>
		<g>
			<path class="st7" d="M40.3,24.7c17.9,0,36,10.9,48.8,36.2"/>
			<g>
				<path class="st2" d="M89,60.8c0.1-0.2,0.3-0.4,0.5-0.5c-0.2,0.3-0.3,0.7-0.2,1.1c-0.3-0.3-0.7-0.4-1-0.5
					C88.5,60.8,88.8,60.7,89,60.8z"/>
			</g>
		</g>
	</g>
	<g>
		<g>
			<path class="st8" d="M39.1,110.1c12.7,1.1,39.5-1.5,49.9-12.5"/>
			<g>
				<path class="st2" d="M88.9,97.6c-0.4,0-0.9-0.3-1.2-0.5c0.6,0.1,1.3,0,1.9-0.2c-0.2,0.6-0.2,1.3-0.1,1.9
					C89.3,98.5,89,98.1,88.9,97.6z"/>
			</g>
		</g>
	</g>
	<g>
		<g>
			<path class="st9" d="M38.5,55.7c14.1-3.9,22.6-1.7,34.8,10.8"/>
			<g>
				<path class="st2" d="M73.3,66.4c0-0.2,0.2-0.5,0.4-0.7c-0.1,0.4,0,0.8,0.1,1.2c-0.4-0.2-0.8-0.2-1.2-0.1
					C72.8,66.6,73.1,66.4,73.3,66.4z"/>
			</g>
		</g>
	</g>
	<g>
		<g>
			<path class="st10" d="M38.5,77.2c9-5.1,27.2-5.4,43.2,3.4"/>
			<g>
				<path class="st2" d="M81.6,80.5c-0.1-0.4,0-0.9,0.2-1.2c0.1,0.6,0.3,1.2,0.7,1.7c-0.6-0.1-1.2,0.1-1.8,0.3
					C81,81,81.3,80.6,81.6,80.5z"/>
			</g>
		</g>
	</g>
	<g>
		<g>
			<line class="st11" x1="101.2" y1="25.2" x2="101.2" y2="50.7"/>
			<g>
				<path class="st2" d="M101.2,50.7c0.1-0.1,0.4-0.2,0.5-0.2c-0.2,0.2-0.4,0.4-0.5,0.7c-0.1-0.3-0.3-0.5-0.5-0.7
					C100.9,50.5,101.1,50.5,101.2,50.7z"/>
			</g>
		</g>
	</g>
	<g>
		<path class="st0" d="M169.7,125.9c-0.7,0-1.3-0.1-1.8-0.4c-0.5-0.2-0.9-0.6-1.2-1l0.8-0.9c0.3,0.3,0.6,0.5,1,0.7
			c0.4,0.2,0.8,0.3,1.3,0.3c0.5,0,0.9-0.1,1.2-0.3c0.3-0.2,0.5-0.5,0.5-0.9c0-0.8-0.6-1.1-1.8-1.1c-0.5,0-0.9,0-0.9,0V121
			c0.1,0,0.4,0,0.9,0c0.5,0,0.9-0.1,1.2-0.3c0.3-0.2,0.5-0.4,0.5-0.8c0-0.4-0.2-0.6-0.5-0.8c-0.3-0.2-0.7-0.3-1.2-0.3
			c-0.8,0-1.5,0.3-2.1,0.9l-0.7-0.9c0.7-0.9,1.7-1.3,3-1.3c0.9,0,1.6,0.2,2.1,0.6c0.5,0.4,0.8,0.9,0.8,1.6c0,0.5-0.2,0.9-0.5,1.3
			c-0.4,0.3-0.8,0.5-1.2,0.6c0.5,0,0.9,0.2,1.3,0.6c0.4,0.4,0.6,0.8,0.6,1.4c0,0.7-0.3,1.3-0.8,1.7
			C171.4,125.7,170.7,125.9,169.7,125.9z"/>
		<path class="st0" d="M177.1,125.9c-1.3,0-2.3-0.4-3-1.3l0.8-1c0.6,0.6,1.3,1,2.2,1c0.5,0,0.9-0.1,1.2-0.4c0.3-0.3,0.5-0.6,0.5-1
			c0-0.4-0.1-0.8-0.4-1.1c-0.3-0.3-0.7-0.4-1.2-0.4c-0.7,0-1.3,0.2-1.8,0.7l-1-0.3v-4.6h5.3v1.3h-3.9v2.4c0.5-0.5,1.1-0.7,1.8-0.7
			c0.7,0,1.3,0.2,1.8,0.7c0.5,0.5,0.8,1.1,0.8,1.9c0,0.8-0.3,1.5-0.9,2C178.8,125.6,178,125.9,177.1,125.9z"/>
		<path class="st0" d="M186,125.5c-0.4,0.2-0.9,0.4-1.5,0.4c-0.5,0-1-0.1-1.5-0.4c-0.4-0.2-0.8-0.6-1-1c-0.3-0.4-0.4-0.9-0.6-1.3
			c-0.1-0.5-0.2-1-0.2-1.5c0-0.5,0.1-1,0.2-1.5c0.1-0.5,0.3-0.9,0.6-1.3c0.3-0.4,0.6-0.7,1-1c0.4-0.2,0.9-0.4,1.5-0.4
			c0.5,0,1,0.1,1.5,0.4c0.4,0.2,0.8,0.6,1,1c0.3,0.4,0.4,0.8,0.6,1.3c0.1,0.5,0.2,1,0.2,1.5c0,0.5-0.1,1-0.2,1.5
			c-0.1,0.5-0.3,0.9-0.6,1.3C186.7,125,186.4,125.3,186,125.5z M183.1,123.8c0.3,0.6,0.7,0.8,1.4,0.8c0.6,0,1.1-0.3,1.4-0.8
			c0.3-0.6,0.4-1.3,0.4-2.1c0-0.5-0.1-1-0.2-1.5c-0.1-0.4-0.3-0.8-0.6-1.1c-0.3-0.3-0.6-0.4-1.1-0.4c-0.4,0-0.8,0.1-1.1,0.4
			c-0.3,0.3-0.5,0.6-0.6,1.1c-0.1,0.4-0.2,0.9-0.2,1.5C182.7,122.5,182.8,123.2,183.1,123.8z"/>
	</g>
</g>
</svg>
