<?xml version="1.0" encoding="utf-8"?>
<!-- Generator: Adobe Illustrator 19.2.0, SVG Export Plug-In . SVG Version: 6.00 Build 0)  -->
<svg version="1.1" id="Layer_1" xmlns="http://www.w3.org/2000/svg" xmlns:xlink="http://www.w3.org/1999/xlink" x="0px" y="0px"
	 viewBox="0 0 215.8 152.7" style="enable-background:new 0 0 215.8 152.7;" xml:space="preserve">
<style type="text/css">
	.st0{fill:#0D92FF;}
	.st1{fill:none;stroke:#00325C;stroke-width:0.215;stroke-miterlimit:10;}
	.st2{fill:#00325C;}
	.st3{fill:#787878;}
	.st4{fill:none;stroke:#00325C;stroke-width:0.21;stroke-miterlimit:10;}
	.st5{fill:none;stroke:#00325C;stroke-width:0.155;stroke-miterlimit:10;}
	.st6{fill:none;stroke:#00325C;stroke-width:0.16;stroke-miterlimit:3;}
	.st7{fill:none;stroke:#00325C;stroke-width:0.385;stroke-miterlimit:10;}
	.st8{fill:none;stroke:#00325C;stroke-width:0.17;stroke-miterlimit:10;}
	.st9{fill:none;stroke:#00325C;stroke-width:0.26;stroke-miterlimit:10;}
	.st10{fill:none;stroke:#00325C;stroke-width:0.11;stroke-miterlimit:10;}
	.st11{fill:none;stroke:#00325C;stroke-width:0.185;stroke-miterlimit:10;}
	.st12{fill:none;stroke:#00325C;stroke-width:8.500000e-02;stroke-miterlimit:10;}
</style>
<title>aus-jan</title>
<g>
	<path class="st0" d="M154.5,142.1L154.5,142.1l-0.1,0l0,0.1L154.5,142.1L154.5,142.1l0,0.1L154.5,142.1L154.5,142.1L154.5,142.1
		L154.5,142.1L154.5,142.1L154.5,142.1z M154.4,142.4L154.4,142.4L154.4,142.4l0,0.1L154.4,142.4L154.4,142.4L154.4,142.4z
		 M66.3,57.7L66.3,57.7L66.3,57.7L66.3,57.7L66.3,57.7l0-0.1l0,0L66.3,57.7L66.3,57.7L66.3,57.7z M132.4,124.1l-0.1,0l-0.1,0.1
		l-0.1,0.1l-0.2,0.1l0,0.1l0,0.1l0.1,0l0.1-0.1l0.1-0.1l0.1-0.2L132.4,124.1l0.1,0.1l0-0.1L132.4,124.1L132.4,124.1z M62.5,83.1
		l-0.3-0.1l-0.2,0l-0.1,0L61.9,83l0.1,0.2l0.6,0l0.2,0.1l-0.1-0.1L62.5,83.1z M63.8,80.3L63.8,80.3l-0.4-0.2L63.3,80l0-0.2l0-0.2
		l0-0.1l-0.2-0.1l-0.1,0l-0.5,0l0.1,0.2l0.1,0.4l0.1,0.2l0.2-0.1l0.2,0.1l0.2,0.3l0.1,0.3l0.1,0.1l0-0.2l0-0.2L63.8,80.3z
		 M40.7,62.4L40.7,62.4L40.7,62.4l-0.2-0.1l-0.2,0.1L40,62.5v0.1l0.2-0.1l0.1,0l0,0.1l0,0l-0.1,0l0,0v0.1l0.1,0l0.4-0.2L40.7,62.4
		L40.7,62.4L40.7,62.4z M69.1,88.6L69.1,88.6l0-0.1l0-0.1l-0.1,0l-0.1,0l-0.5,0.1v0.1l0.1,0.1l0.3,0.4l0.1,0l0.4-0.1l0.8,0.5
		l0.4,0.1l0,0l0,0l0.1,0l0.1,0l0.1,0l-0.1-0.2l-0.2-0.2L70.4,89l-0.8-0.1l-0.1-0.1v-0.1h0.1v-0.1l-0.2,0l-0.2,0.1l-0.2,0l-0.1-0.2
		l0.1,0L69.1,88.6z M130.4,124.4L130.4,124.4l-0.1,0.1l0,0l0,0l0,0l-0.1,0l-0.2,0l-0.1,0l0,0.1l0.2,0.1l0.1,0l0.1,0l0.1-0.1l0.1-0.1
		L130.4,124.4L130.4,124.4L130.4,124.4z M56.1,76L56.1,76l-0.4-0.3l0,0l-0.2-0.2l-0.4-0.2l-0.1,0L55,75.2H55l0,0.1l-0.1,0.1l0,0.2
		l0.1,0.2l0.1,0.2l0,0.2l0.1,0.1l0.4,0.1l0.6,0.1l0.2-0.1l0-0.2L56.4,76L56.1,76z M71,91.4l-0.1-0.1l-0.1,0l-0.1,0l-0.1,0l-0.2-0.2
		l-0.2-0.2l-0.3-0.1l-0.2,0l0.2,0.4l0.1,0.3l0,0.1l0,0.1l0.1,0.2l0.2,0.2l0.2,0.1l0.5,0.5l0.1,0.2l0.1,0.1l0.1,0.4l0.1,0.1l0.1-0.2
		l0.1-0.3l0.1-0.5l0-0.1l-0.1-0.1l-0.2-0.1l-0.1-0.1l0-0.1v-0.1L71,91.8l0-0.1l0-0.1L71,91.4z M145.2,56.4l-1.3-0.7l-0.1,0l-0.5,0
		l-0.7-0.2l-0.1,0l-0.2,0.1l-0.1,0l-0.1,0l-0.2-0.1l-0.1,0l-0.1,0l-0.1,0l-0.1,0l-0.1,0l-0.1-0.1l-0.1-0.2l-0.1-0.1l-0.2-0.1
		l-0.3-0.1l-0.2-0.1l-0.1-0.1l-0.2-0.3l-0.1-0.1l0,0l0,0l0.1,0l-0.1-0.2l-0.1-0.1l-0.3,0l0-0.1l-0.2,0l-0.2,0.1l-0.1,0.1l0,0.1
		l-0.1,0.2l0,0.1l-0.1,0l-0.2,0l-0.1,0l0,0.1l-0.1,0.2l0,0l-0.1,0l-0.2-0.1l-0.7,0l-0.1,0l-0.1-0.1l-0.3-0.2l0,0l-0.1,0.1l0,0.1
		l0,0.1l0,0.1l-0.2,0.2l-0.2-0.1l-0.1-0.3l0-0.4l-0.2,0l-0.5-0.3l-0.1,0l-0.2,0l-0.3-0.1l-0.1,0l0,0.2l0.1,0.2l0,0.2l-0.1,0.2
		l-0.1,0l-0.3-0.1l-0.4,0l-0.1,0l-0.1-0.2l0-0.1l0-0.2l-0.1-0.2h0l-0.1,0.1l0,0l0,0l0-0.1l0,0l0-0.1l-0.1-0.2l0,0l-0.1,0l0,0l0-0.1
		l0-0.1l0-0.1l-0.5-0.5l-0.1-0.2l-0.1-0.1l0-0.1l0.1,0l0-0.1l0-0.1l-0.4-0.4l-0.1-0.1l0,0l0-0.1l0-0.1l0-0.1l-0.1-0.1l-0.7-0.4
		l-0.1,0l-0.1,0l-0.1,0.1l-0.1,0l-0.1,0l-0.2,0l-0.2-0.1l-0.4-0.3l-0.2-0.1l-0.2,0l-0.5,0l0.1,0.1l-0.2,0l-0.1,0l0,0.1v0.1l0,0.1
		l-0.1,0l-0.1,0.1l-0.1,0l-0.7,0l-0.1,0l-0.1-0.3l-0.2-0.2l-0.5-0.1l-0.2-0.1l-0.1-0.1l-0.3-0.3l-0.1,0l0,0l-0.2-0.1l-0.1,0l-0.1,0
		l-0.1,0.1l-0.1,0l0,0l-0.2,0l-0.2-0.1l-0.2,0h0l-0.2,0.1l-0.1,0.1v0l0,0.1l0,0l0,0l-0.1,0l-0.1,0l-0.1,0l-0.2-0.1l-0.1,0l0,0
		l-0.1,0.1l-0.1,0.1l-0.2,0.1l0,0l-0.2,0l0-0.1l0,0l0-0.1l0-0.1v-0.1l0-0.1l-0.4-0.7l-0.1-0.1l-0.2-0.1l0,0l0,0l0,0h0l0,0l0,0.1
		l0,0.1l0,0l0,0l-0.1,0l0,0v0l0-0.1l0-0.1l0-0.2v0l0,0l0.1,0l0,0l0,0l-0.1-0.2l-0.2-0.2l-0.2-0.2l-0.1,0l-0.1,0l-0.1,0l-0.2,0.1
		l-0.2-0.1l-0.1-0.1l0,0l-0.1-0.1l-0.2-0.3l-0.1-0.2l-0.1-0.1l-0.1,0l-0.2-0.1l-0.2-0.1l-0.3-0.3l-0.1-0.1l0,0l-0.1,0l-0.1,0
		l-0.2,0.1l-0.2,0.1l-0.1,0l0,0l-0.1,0l-0.1,0v0l-0.1-0.1l0-0.2V46l0-0.1v0l-0.1-0.1l0-0.1l0-0.1l0.1-0.1l0,0l0-0.1l0,0l0-0.1l0,0
		l0-0.1l0-0.1l0-0.1l0-0.1l-0.1-0.2l0,0v0l-0.2-0.1l-0.2-0.1h0l-0.1-0.2l0-0.2l0.2-0.5l0.1-0.2l0,0l0-0.1l0-0.1l0-0.1l0,0l0-0.1
		l0.1-0.2v0l0.1,0l0.1,0.1l0,0l0-0.1l0-0.1l0-0.3l0-0.1l0-0.2l-0.1-0.1l-0.2,0.1l-0.1,0l0-0.2l0,0l-0.2,0.1l-0.8,0.9l0,0.1l0,0.1
		l0,0.1l0,0l0,0l0,0l0,0l0,0l0,0.1l0,0.3l-0.1,0.2l0,0l-0.1,0.1l-0.1,0l0,0l-0.3,0.1l-0.3,0.1l-0.8,0.4l-0.2,0l-1-0.3l-0.2-0.1
		l-0.2,0l-0.4,0.1l-0.1,0l0,0l-0.4-0.2h0l0.1,0l0-0.1l0-0.1l0-0.1l0-0.1l0,0h0l0-0.1l0-0.1l0,0l0,0l0.1-0.1l0.1-0.1l0.1-0.1l0.1-0.1
		l0.1,0l0.1-0.1l0.1,0l0-0.1v0l-0.1-0.1l0-0.1l0,0l-0.1-0.5l-0.1,0l-0.1,0l-0.2,0.1l0,0l-0.1,0l0-0.2l0,0l0.1-0.3l0.1-0.2l0-0.2
		l0-0.1l0,0l0.1-0.1l0.2-0.1l0,0l0.1-0.1l0-0.1l0-0.1l0-0.1l-0.1-0.1l-0.1,0l0,0l-0.1,0l-0.1,0h0l0,0.1l0,0l0,0h0l0,0l0,0l-0.1,0
		l0,0l-0.2-0.4l-0.1-0.1l0,0l-0.2-0.1l-0.1-0.1l-0.1,0l-0.3-0.3l0,0l-0.1-0.1l-0.1,0l-0.1,0l-0.3,0.1l-0.2,0.1h-0.2l0,0l-0.1-0.1
		l-0.1-0.1l-0.1,0l-0.2-0.1l-0.3,0l-0.3,0l0,0l-0.1,0l-0.1,0.1l-0.1,0.2l0,0.1l0,0l0,0l0,0l0,0l0,0l0,0l0,0.1l-0.3-0.3l-0.1-0.5
		l0-0.6l-0.1-0.5l-0.1-0.2l-0.2-0.2l-0.2-0.1l-0.2,0l-0.5,0h0l-0.1-0.1h0l0.1-0.1l0,0l0-0.1l-0.1-0.1l0,0l-0.1,0l-0.1,0l0,0l-0.1,0
		l0,0l0,0l0,0.1l0,0l-0.1,0.1l-0.3,0.1l-0.1,0l-0.1,0l-0.1,0l-0.1,0l-0.3-0.2l-0.1-0.1l-0.1-0.1l0,0l0-0.1l0-0.4l-0.2-0.7l-0.1-0.4
		l0.1-0.1l0.1-0.1l0-0.1l-0.1-0.2l-0.1-0.1l0,0l-0.1,0v0l-0.1,0l-0.1-0.1l-0.1-0.2l-0.1-0.2l0-0.1l-0.1-0.2l-0.1-0.1l-0.2-0.1l0,0
		l-0.4,0.1l-0.2,0.1l-0.1,0l-0.3,0.1l-0.1,0.1l-0.1,0.1l-0.1,0.1l-0.1,0.1l-0.1,0.2l-0.1,0.2l-0.1,0.1l0,0l-0.1,0l0,0l0,0l0,0
		l-0.6-0.3l-0.1,0l0,0l-0.1-0.1l0,0l0,0l-0.1-0.3l0-0.1l0,0l-0.3-0.3l-0.1-0.1l0-0.1h0l0-0.1l-0.1-0.1l0,0l-0.1,0l-0.1,0l-0.1,0
		l-0.1,0l0,0l0,0l0-0.1l0-0.1l0-0.1l0,0l0,0l0,0l-0.1,0l0,0l0,0v0l0,0l0,0l0.1-0.1l0-0.1l-0.1-0.3l-0.1-0.3l0-0.1l0.1-0.1l0.1-0.1
		l0,0l0,0l0-0.2l-0.1-0.2h0l-0.3-0.3l-0.1-0.2l0-0.1l-0.1-0.5l0,0l-0.1-0.3l-0.1,0.1l-0.3,0.2l-0.6,0.2l-0.5-0.1l-0.1,0l-0.1,0
		l-1.4,0.4l-1.3,0.2l-0.3,0.2l-0.1,0l-1.5,0.7l-0.2,0.2l-0.2,0.3L94,32.8l-0.2,0.1l-0.2,0l-0.1,0l-0.2,0.2l0,0.1l0,0.2l0.1,0.5
		l0.1,0.3l0,0.2l-0.1,0.2L93.3,35l0,0.2l0,0.3l0.1,0.5l0,0.6l0,0.2l0.2,0.3l-0.2,0.2l0,0.5l0,0.6l-0.1,0.4v0.1l0.4,0.3v0.1l-0.3-0.1
		l-0.2,0.3l-0.1,0.5l0,0.4l0.1,0.1l0.3,0.2l0.1,0.2l0.1,0.1l0.1,0.1l0.2,0.1l0.2,0v0.1h-0.2l0,0.1l0,0.1l0.1,0l0.1,0v0.1l-0.1,0.1
		l-0.1,0l-0.8-0.4l-0.3,0l-0.3,0.4l-0.2,0.7l-0.1,0.1l-0.1,0.1L91.9,43l-1,0.8l-0.3,0.4l-0.2,0.1l-0.2,0.2l-3.3,1.1l-0.7,0l-0.6,0.2
		l-0.3,0.2L85,46l-1,0.6l-0.1,0.1l-1,0.5l-0.1,0.1l-0.1,0l-0.4,0.3l-0.1,0.1l-0.3,1.1l-0.4,0.7l0,0.1l0,0.1l0,0.1l0.1,0.1l0,0.1
		l0.1,0.1l0.2,0.1l0.2,0.1l0.1,0h0.2l0.6,0.2l0.7,0.1l0.7-0.1l0.6-0.4l-0.1,0.2l-0.2,0.1l-0.4,0.2l-2,0.5l-0.5,0.4l-0.2,0.3
		l-0.1,0.1l-0.2,0l-0.2,0.2l-0.4,0.2l-1.3,0.3l-0.2,0.2l-0.7-0.5l-0.4-0.1L77.7,52L77.5,52H77l-0.3-0.2l-0.2,0l-0.3,0.2l-0.2,0
		l-0.3-0.1l-1.4-0.1l-0.9-0.4l-1-0.1l-0.1,0.1L72,51.5L72,51.7l0.1,0.1v0.1l-0.2,0l-0.1-0.1l-0.1-0.1l-0.1-0.1l-0.1,0l-0.1,0.1
		l-0.1,0l0-0.1l0,0l0-0.1l0-0.1l0-0.1l0-0.3l-0.1-0.2l-0.6-0.8l-0.1-0.3l-0.1-0.2l-0.1-0.2l0-0.3l0.1-0.1l0.1,0l0.2,0l0-0.1l0-0.1
		l0-0.1l0.2-0.1l0-0.2l-0.2-0.4l0-0.2l0-0.1l-0.1,0l-1-0.2l-0.1,0l-0.4,0.1l-0.1,0.1l-0.2,0.3l-0.1,0.1l-0.1,0.1l-0.1,0l-0.2-0.1
		l-0.1,0l-0.1,0l-0.1,0.1l-0.1,0l-0.1,0l0-0.1l0-0.1l0,0l-0.1,0l-0.6-0.2l-0.5-0.1l-0.2-0.1l0,0l-0.1,0l0,0l0-0.1l0-0.1l0-0.1
		l-0.1,0l-0.2,0l-0.1,0l-0.2-0.1l-0.1,0l-0.2,0l0,0.1l0,0.2l-0.1,0.3l0.3,0.1l0.3,0l0.1,0.1l0,0.1l0.1,0.1l0.1,0.2l0,0.2l0,0.4
		l-0.1,0.1l-0.2,0.2l-0.1,0.2l0,0.1l0.2,0.3l0.1,0.1l0,0.1l0,0.1l0,0.1l0.1,0.2l0,0.1l0,0.1l0,0.2l0,0.4l0,0.2l0.1,0.1l0.1,0l0.1,0
		l0.1,0l0,0l0,0l0,0.1l0.2,0.1l0.2,0.2l0.1,0.1l0.1-0.2h0.1l0.1,0.2v0.1h-0.2l0.1,0.2l0.1,0.1l0.2,0.2l0,0l0,0l-0.1,0.1l0.1,0.1
		l0.1,0.4l0.1,0.1l0.1-0.2l0.2,0l0.2,0.1l0.2,0.1v0.1l-0.3-0.1l-0.1,0L68,53.5l0,0.2l0,0.2l0.1,0.2l0.1,0.2l0-0.1l0,0l0.1,0.1
		l-0.2,0.1l-0.1,0.1l-0.1,0.2l0,0.2l0,0.1l0,0.1l0.1,0l0,0.1l0,0.1l0,0.3l0,0.1l0.1,0.1l0.1,0.1l0,0l0.1-0.2l0.2-0.1h0.2l0.2,0.1
		v0.1l-0.2-0.1l-0.1,0.1l-0.1,0.2l-0.1,0.7l0,0.1l0.1,0l0,0.1l0,0.1l0,0.1l-0.1-0.1l-0.1,0.1l-0.1,0.6l-0.1,0.1l-0.1,0.1l-0.1,0.1
		V58l0.2,0l0.1,0.2l0,0.3l0,0.3l0.1,0.3l0.3,0.3l0.1,0.3l0,0.1l0.1,0.1l0.3,0.1l0,0l0,0.1l0,0.1l0,0.1l0,0l0,0v0l0.3,0l0.2,0.1
		l0.1,0.2l-0.3-0.1l-0.9,0.2l-0.6-0.1l-0.1,0l-0.4,0.2l-0.6,0.1l-0.6,0l-0.3-0.1L66,60.4l0-0.3l0.2-0.3l-0.1-0.1l0-0.1l0-0.1l0-0.1
		l-0.8,0.2l0,0.1h-0.3l-0.1,0l0,0.1V60l0,0l-0.1,0l-0.1,0.1l-0.1,0.1l0,0.1l0.1,0.1l0.1,0.4L65,61l0.1,0l0.1,0l0.1,0.1l0.1,0.1
		l-0.1-0.1l0,0l0-0.1h-0.1l0,0.2l0.1,0.2l0,0.1l0.2,0.2l-0.2,0.2L65.1,62l0-0.3l0-0.2l-0.2-0.3l0,0l0-0.1l-0.1,0l-0.1-0.1l0-0.1
		l0-0.1l-0.2-0.3l0-0.1l-0.4,0l-0.4,0.1l0.1,0.2l0,0.1l0.1,0.1l-0.1-0.1l-0.1,0l-0.1,0.1l-0.1,0.1l0.1,0.1l0,0v0.1l-0.1,0.1
		l-0.1-0.1l0-0.2l0-0.2l0,0.1l0,0.1l-0.1,0.1l-0.1,0l0-0.1l0-0.1l-0.1-0.1l-0.1,0l0-0.1l0-0.3l0-0.1l-0.2,0.1l-0.2,0.2l-0.1,0.1
		l-0.1-0.1l0.2-0.2l0-0.1l0-0.1l0-0.1l0.1,0V60l-0.1,0l-0.1,0l-0.1-0.1l0-0.1L62.3,60l-0.2,0.2l-0.2,0.2l-0.2,0.1l-0.1-0.2l-0.2,0
		L61,60.3l0.2,0.1l0.1,0v0.1l-0.1,0.1L60.6,61l-0.1,0l-0.1,0.1l-0.1,0.1l-0.2,0.3L60,61.6l-0.1,0.1l-0.3,0l0,0.1l0,0.2l0,0.1
		l-0.1-0.1l-0.1-0.1l-0.1-0.1l-0.1,0l-0.1,0l0.1-0.1l0-0.1l0-0.1l0-0.1l-0.5-0.2L58.6,61l-0.1,0l0,0l0-0.1l0-0.1l0-0.1l0-0.1l0-0.1
		l-0.1-0.4l-0.5-0.4l-0.1-0.1l-0.1-0.1l-0.1-0.1l-0.1-0.1v-0.1l0,0l0.1-0.1l0-0.1V59l0-0.1l-0.2-0.1l-0.4,0l-0.2-0.1v-0.1h-0.1v-0.1
		l0.1-0.1l0.1,0l0.1,0v-0.1l0,0h0l0,0l0.1-0.1l-0.1-0.1l-0.1,0l-0.1,0l-0.1,0.1l-0.1,0l-0.2,0.2L56,59H56v-0.1l0.2-0.2l0.1-0.1
		l0.1-0.3l0.1-0.1l-0.1-0.1V58l0.1-0.1l0-0.1l-0.1-0.1l-0.1-0.1l-0.1,0l-0.1,0.2l-0.1,0l-0.1,0.1L55.5,58l-0.2,0.3l-0.1,0.1l0,0.2
		l0-0.1l0,0l0-0.1l0.1-0.1l0.1-0.2l0-0.2l-0.1-0.2l-0.1,0L54.9,58l-0.1,0h-0.1L54.7,58L54,58.3l-0.1,0l-0.1,0.1l-0.1,0l-0.1,0
		l-0.2,0l0-0.1l0,0l0,0l0,0l-0.1,0l-0.3-0.2l-0.3,0L52.9,58h0l0,0.1l-0.2,0.3l-0.2,0.1l-0.1,0.1l0,0.2l0.3,0.3l0.1,0.1l-0.4,0.1
		l0,0.1l0,0.2l0.1,0.3l-0.1,0.1l-0.2,0l-0.2-0.1l0-0.2l-0.3,0.1l-0.1,0l-0.1,0l-0.2-0.2l-0.1,0l-0.4,0l-0.1,0l-0.1-0.1l0,0.1l0,0.1
		l0,0.1l0,0.1l-0.1-0.1l-0.1,0.1l0,0.2l0,0.2L50.2,60l0,0l0-0.1h0l0,0.2l0,0.1l0,0.1l-0.1,0.1l0.1,0.1l-0.1,0.1l-0.1-0.1l-0.2-0.2
		l-0.1-0.1v-0.1l0,0l0.1-0.1l-0.2,0L49.6,60l-0.2,0.2l0-0.1l0-0.1l-0.1-0.1l-0.1-0.1v-0.1h0.1v-0.1l-0.1,0l0-0.1l0-0.1l0-0.1l0,0
		l-0.3,0.1l-0.2,0.1l-0.1,0l-0.1,0l0,0.1l0,0.1l0,0.1l-0.1,0.1h0l0-0.1l0-0.1h0l0,0.1l-0.1-0.1l-0.2,0l-0.2,0l-0.2,0.1l-0.1,0.1
		l-0.1,0.1l0,0.1l0.2,0v0.1h-0.1l-0.2-0.1l-0.1,0l-0.1,0l-0.2,0.1l-0.2,0l0.1-0.3L46.5,60l-0.2,0l-0.2,0.1l-0.2,0.1l-0.2,0v0.1l0,0
		l0.1,0.1l-0.2,0l-0.3,0.1l-0.2,0h-0.6v0.1l0.1,0l0,0l0,0l0,0.1l0.2,0.1l-0.2,0l-0.4-0.1l-0.1,0.1l0.1,0.2l0.2,0.3l-0.1,0l-0.3-0.1
		l-0.2,0l-0.2,0l-0.1,0.1l-0.1,0.1l0.1,0.1l-0.1,0l-0.1-0.1l-0.1,0.2l-0.2,0.4l-0.1,0.3l0.2,0.2v0.1l-0.1,0l-0.1,0.2l0,0.2l0,0.2
		l0.1,0.3l0,0.2l-0.1,0l0.1,0.2l0.1,0.1l0.1,0l0.4,0l0.1,0l0-0.1l0-0.1l0,0l0.2,0l0.3,0.1l0.1,0l0.2,0l0.2-0.1l0.4-0.1l0.5-0.3
		l0.2-0.1l0.5-0.1l0.2-0.1l0.2-0.1l0.1,0l-0.8,0.5l-0.1,0.1L45.4,64v0.1l0.1,0l0.1,0l0.1,0l0.1-0.1l0.1,0.1l0,0l0,0l0,0l0.2,0
		l0.3-0.2l0.1,0.1l0-0.1l0-0.1l0-0.1h0.1v0.1h-0.1v0.1l0.1,0l0.2-0.1h0.1l-0.2,0.2L46.6,64l0,0.1l0,0.1l-0.1,0l0,0l-0.1,0.1l0.3,0
		l0.1,0l0,0.1l0.1,0l0.1,0l0.1-0.1l0,0.1l0.1,0l0.2,0v0.1l-0.7,0.1l-0.2-0.1l0.1,0l0.1,0l0-0.1l-0.5,0L46,64.7l-0.1,0l-0.1,0l-0.1,0
		l-0.1-0.1l-0.1,0l-0.7,0.1l-0.2-0.1l0.1-0.4L44.7,64l-0.1,0.1l-0.1,0.4l0,0l0,0.1l0,0.1l-0.1,0l-0.1,0l-0.1,0l-0.1,0l-0.1,0l0,0.1
		l0,0.1l0.5,0l0.1,0l0.1,0.1l0,0l-0.1,0.1l0,0.1l0,0.1l0,0.1l0.1,0.1l0,0.1L44.6,66l0.2-0.1l0.1-0.2l0.1-0.3l0.1-0.2l0.2-0.1
		l0.4,0.3l0.2-0.1l0,0.1l0,0.1l0.1,0.1l0.1,0l0.3,0.1l0.1,0.1l0,0.3l0,0.1l0.1,0.1l0,0.1l-0.1,0.3l0,0.1l-0.1,0.1l-0.5-0.1l-2.6,0.6
		l0,0l-0.1-0.1l0,0l0,0l0,0l0,0l0,0.1l0,0.1l0,0.1l-0.1,0l0.6,0.2l0.3,0l0.1,0l0.2,0.2l0.1-0.1l0.1-0.1l0.1-0.1l0.1,0l0.7,0.6
		l0.4,0.5l0.1,0.2l0.1,0.3l0.1,0.3l0,0.2l0,0.1l-0.1,0h-0.1l0,0l0,0.1l0,0.2l0,0.1l1.2,0.1l0.2-0.1l0.1-0.1l0.3-0.3V70h-0.2v-0.1
		l0,0l0,0l-0.1-0.1l0-0.1l0.1,0l0.2,0.3l0.1-0.1l0.1-0.1l0.1,0l0.1,0v-0.1L48,69.5l-0.1-0.2l0-0.2L48,69l0,0.2l0.1,0.2l0.1,0.1
		l0.1,0.1l0.1,0l0.1,0l0.2,0.2l0-0.1l0.1,0l0.1,0l0.1,0l0,0.1l0,0.1l-0.1,0l-0.1,0l0.2,0l0.2-0.2l0.1-0.2l-0.1-0.2l0.2,0l0.2,0.1
		l0.1,0.2l0,0.1l0.1,0.1l0,0l0.1,0l0,0.1l0,0.1l0.1,0l0.1,0.1l0.2,0.3l0,0l0.1,0l0.2,0l0.2,0l0.1,0.1l0.4-0.2l0.1,0l0.1,0.2l0.2,0.1
		l0.3,0l0,0l0.1,0.1l0.1,0l0.1,0l0.2,0l0.3,0.1l0.1,0l0.1-0.1l0,0.1l0,0.1l0.1,0.1l0.1,0.2l0.2,0.3l0,0.1l0.1,0l0.7-0.2v-0.1l0-0.1
		l0,0l-0.1,0l0.2,0l0.2-0.1l0.2-0.2l0.2-0.2v0.1l-0.1,0.1l-0.1,0.1l-0.1,0.3l0,0l-0.1,0l0,0v0.1l0,0.1l0,0l-0.1,0v0.1l0.3,0l0.1,0.1
		l0.1,0.1v0.1l-0.3-0.1l-0.1,0l-0.1,0.1l0.2,0l0.3,0.1l0.2,0.1l0.2,0.3l0.1,0l0.1,0l0-0.1l0-0.1l0.1-0.1l-0.1-0.1l0,0l0.1,0l0.1-0.1
		l0.1,0l0.1,0.1l0,0l0,0l0,0l0,0l0-0.2l0-0.1l-0.1-0.1l-0.1,0l0.1,0l0.1,0.1l0.1,0l0.1-0.1h0l0,0.1l0,0.2l0,0l0.1,0l0,0v0.1l0,0.1
		l0,0.1l0,0.1l-0.6,0.3l-0.1,0.3l0,0.2l0,0.1l0.1,0l0.1,0l0.1,0l0.1,0.1l0.1,0.2l0.1,0.2l0,0.3l0,0.2l-0.1,0.2l0,0.1l0,0.1l0.1,0.3
		h0l0.1-0.1l0.2,0l0.1,0L56.1,74L56,73.8l0-0.3L56,73l0,0l0,0l0,0l0.1-0.1l0.1,0l0.1,0.1l0.1,0.1l-0.1,0l-0.1,0l0.1,0.1l0.1,0
		l0.3-0.1l0.1,0.1l0,0l0.1,0l0-0.2l0-0.1l0.1,0l0,0.2l0,0.2l0.1,0l0-0.1l0-0.2l0.1,0.1l0.1,0.1l0.1,0.1l0.1,0l0.1,0.1l0,0l0,0l0,0
		l0-0.1L57.4,73l-0.1-0.1l-0.1-0.1l0-0.1v-0.3l0-0.1l0-0.1l0-0.1h0.1l0,0.1l0.1,0.1l0.1,0.1l0.1,0l-0.1,0.1l0,0.1l0,0.1l0,0.1h0.1
		l0-0.1l0,0l0.1,0v0.1h-0.1v0.1l0.3-0.1l0.2-0.1l0.1-0.1l0.1-0.1l0.4,0l0.2-0.1l-0.1-0.1l0.2,0l0.1,0.1l0.1,0.1l-0.2-0.1l-0.2,0
		l0.4,0.3l0,0.1l0.1,0l0,0l0-0.1l-0.1-0.1l0.1,0l0-0.1l0-0.1l-0.1-0.1v-0.1l0.2,0.2l0,0.2l-0.3,0.4l0.1,0.1L59,73.4l-0.2,0l-0.2-0.1
		l-0.1-0.1l0,0.2l0,0.1l-0.1-0.1l-0.1,0l0,0l0,0.1h-0.1L58,73.2h-0.2l-0.1,0.1l0.1,0.1l0,0.1l0,0l0,0l0.1,0l0.1,0l0,0.1l0,0l0.1,0.2
		l0,0l0.1,0.1l0.1,0.1l0.1,0l0.2,0l0.4-0.1l0.1,0l0.3,0.1l0.1-0.1l0-0.3l0.1,0.1l0.1,0l0.2,0l0-0.1l0,0l0,0l-0.1,0l0.1,0l0.1,0
		l0.1,0l0.1-0.1l-0.1,0.2l-0.1,0.1L60,73.7l-0.1,0l0.1,0.1l0,0l0,0l0.1,0h0.3l0.3-0.1l0.1,0l0.1,0l0.6,0.2l0.1,0l0.2,0l0.1,0l-0.2,0
		L61.6,74l-0.5,0L61,74.1l0.1,0.2L61,74.5l0.1,0.1l0.2,0l0.1,0.1l-0.1,0.2l0.1,0.1l0.2,0l0.1,0l0,0.1l-0.3,0.2l-0.1,0.1l-0.1-0.1
		l0,0l0,0l0-0.1l-0.1,0l-0.1,0l-0.1,0l-0.6,0.4l0.3,0.2l0.1,0.2l0,0.3H61l0-0.1l0,0l0-0.1l0,0l0,0l0.1,0l0.1,0.2l0.2,0.2l0.1,0.2
		l-0.1,0.2l-0.2,0l-0.3-0.2l-0.2,0v0.1l0.7,0.4l0.2,0l0,0l0-0.1l0-0.1l0.1-0.1l0.1,0l0.1,0l0.1,0l0.1,0.1l0.2,0.2l0.1,0.1l0.1,0.1
		l0.2,0l0.2-0.1l0.2-0.2l0.2-0.1l0.1-0.1l0-0.1l0-0.1l0.1-0.1l0.2-0.2l1.1-0.1l0.3,0.1l0.1,0.1l0.1,0l0.2,0l0.2,0.1l0.3,0.2l0.3,0.2
		l0.2,0.3l0.1,0.1l0.3,0.1l0.2,0.1l-0.4,0l-0.2-0.1l-0.2-0.2L66.2,77L65.9,77l-0.3-0.2v-0.1h0.2l-0.1-0.1l-0.1-0.1l-0.1,0h-0.1
		l0.1,0.1l-0.1,0l-0.4-0.1l-0.1-0.1l-0.1-0.1l-0.1,0l-0.1,0l-0.1,0l-0.7,0.1l-0.2,0.1l-0.1,0.1l-0.1,0.1l0,0.1l0,0.1l0,0.2l0.1,0.2
		l0,0.2l0,0.2l0,0.1l-0.1,0l-0.3,0L63.2,78l-0.1,0.1L63,78.2l0.3,0.2l0.9,0.2l0.5,0.3l0.1,0.1l0.1,0.1l0.1,0.2l0,0.2l-0.1,0.1
		l-0.1,0.2l-0.1,0.4l-0.1,0.2l-0.3,0.2l-0.1,0.1l0,0.2l-0.2,0.1l-0.1,0.1l0,0.2l0,0.2l0,0.2l0.1,0.2l0.1,0.1l0.2,0.1l0.2,0.2
		l0.4,0.5l0.2,0.5l0.1,0.1l0.1,0l0.1,0l0.1,0.1l0.1,0.3l0.1,0.1l0.1,0.1L66,84l0,0.1l0,0.2l0.1,0.1l0.1,0.1l0,0.2l0.2,0.8l0.1,0.1
		l0.1,0l0,0l0-0.1l0-0.2l0-0.1l0.1,0.1l0.1,0.3l0.1,0.1l0.1,0.1l0.2,0.1l0.3,0.2l0.4,0.1l0.1,0.1l-0.1,0.1l0.2,0.1l0.5,0l0.2,0
		l0.2,0.1l0.1,0.2l0,0.3l0.1,0.2l0.2,0l0.4-0.1l0.1,0l0.2,0.2l0.2,0.1l0.1,0l0.1,0l0.1,0.2l0.2,0.2l0.2,0.1l0-0.4l0.3-0.2l0.4,0
		l0.2,0.2l0,0.2l0,0.1l0,0.1L72,88.4l-0.5,0.3l-0.1,0.2l0,0.2l-0.1,0l-0.1,0.1l-0.1,0.1l0,0.1l0.1,0.1l0.1,0l0.1,0l0.1,0l0.1,0l0,0
		l0,0l0,0.1l0,0.1l0,0l0.1,0l0.2,0.1L71.8,90v0l0,0l0,0.1l0,0l0.1,0l0,0l0,0l0,0.1l0.1,0.2l0,0.1l0,0.1l0.2,0.1l0.1,0l0,0.1l0,0.1
		V91l-0.1,0.2l-0.1,0.1l-0.1,0L72,91.1l0.1,0.4l0.1,0.2l0.1,0.1l0,0l-0.1,0.1l0,0l0,0.1l0.1,0.1l0,0.1l0,0.1l0,0.1l-0.1,0l-0.1,0
		l-0.1,0L72,92.5l-0.1,0.1l0,0.1l0,0.1l-0.1,0.1l-0.1,0l0.1,0.1l0.1,0.2l0,0.2l0,0.1l0,0.1l0.2,0.2l0.7,0.6l0.2,0.2l-0.6-0.3
		l-0.1-0.1l-0.1-0.1l-0.5-0.6l-0.2,0L71,93.7l0,0.1l-0.1,0.8l0.1,0.1l0.3-0.1l0.1,0.1l0.1,0.1l0.1,0.1l0.1,0.1l0.2,0l0.2,0.1
		l0.4,0.4l0.3,0.1l0,0l0,0.2l0,0l1.1,0.8l0.4,0.4l0.2,0.3l0.2,0.3l0.3,0.7l0.1,0.4l0.3,2.2l0.1,0.4l0.1,0.3L76,102l0.3,0.1l0.3,0.2
		l0.2,0.4l-0.2-0.1l-0.2-0.1l-0.2,0l-0.2,0l0.2,0.1l0.2,0.2l0.1,0.2l-0.1,0.3l0,0.1l0,0.3l0,0.2l-0.1-0.1l-0.1-0.2l0-0.2l0-0.2
		l0-0.2l0-0.1l-0.1-0.1l-0.1-0.1l-0.3-0.2l-0.3-0.3l-0.3-0.4l-0.3-0.7l0-0.1l-0.1-1l-0.1-0.4l0-0.2L74.7,99l-0.2-0.3l-1-1.1l-0.1,0
		l-0.3-0.2l-0.5-0.4l-0.1-0.1l-0.1-0.1l0-0.1l0-0.1l0-0.1l0,0l0-0.1l0-0.1l0-0.1l-0.1,0l-0.1,0l-0.1,0.2L71.8,97l0,0.2l-0.1,2.4
		l-0.3,1.8l-0.5,5.5l0.1-0.1l0.1-0.3l0.1-0.5l0.4-0.5l0.1-0.1l0,0l0,0l0,0l0,0l0.1,0l0,0l0,0l0,0l0.1,0l0.6,0.6l0.1,0.2h-0.1
		l0.2,0.2l0,0.2l-0.2,0.1l-0.3,0l-0.5-0.1l-0.2,0l-0.2,0.2l-0.1,0.5l0,0.1l0,0.1l-0.2,0.3l0,0.1l0.1,0.3l0,0.2l-0.1,0.7l-0.2,1.6
		l-0.5,3.1l-0.3,1.4l-0.2,0.6l-0.3,1.8l-0.2,0.6l-0.1,0.3l-0.1,0.4l-0.1,0.1l-0.4,0.3l-0.1,0.1l0,0.1l-0.2,0.3l-0.1,0.1L68,120
		l-0.2,0.1l-0.2,0.1l-0.7,0.1l-0.1,0.1l-0.1,0.1l-0.1-0.1l0,0.3l0,0.2l0,0.1l0.2,0.1l0.1,0.1l0,0.2l0,0.1l0.1,0l0.1,0l0.2,0l0.2-0.1
		l0.1,0l0.2,0.1l0.1,0.1l0,0.1l0,0.1l0,0.1l0.1,0.2l0,0l0.1,0l0.1,0l0.1,0l0.1,0l0-0.1l0.1-0.2l0.1-0.1l0.2,0l0.2,0.1l0.3,0.2l0.1,0
		l0.1,0h0.1l0.2,0.2l0,0.4l-0.1,0.4l-0.1,0.3l-0.1,0.1l-0.3,0.4l-0.1,0.1l0.1,0.2l0.1,0.2l0.2,0.1l0.2,0l0.2,0l0.1,0l0.1-0.1l0-0.3
		l0.1-0.2l0.1-0.2l0.2-0.1l0.2,0l-0.2,0.1l-0.1,0.1l0,0.1l0.1,0.2l0.2,0.1l0.5,0.1l0.3,0.2l0.3,0.2l0.3,0l0.1,0l0.1,0.1l0.1,0l0.3,0
		l0.1,0l0.1,0.1l0.3,0.2l0.3,0.1l0.6,0.1l0.6-0.1l0.2,0.1l0.1,0.4l0,0.1l0,0l0,0.1l0,0.1L75,126l0.1,0l0.1,0l0.1,0l0.3,0.2l0.1,0.1
		l0.3,0.4l0,0l0,0l0,0l0.1,0h0.1l0,0l0,0.1l0,0.1l0,0.1l0.1,0.1l0.1,0l0.1-0.1l0.1,0l0-0.3l0.2,0l0.4,0.2l0.2,0l0.2-0.1l0.4-0.3
		l0.1,0.1l0.1,0l0.1-0.1l0-0.1l0.1,0.1l0.5,0.3l0.1,0.2l0.2,0l0.2-0.1l0.1-0.1l0,0.2l0,0.2l0.1,0.2l0.1,0.1l0,0.1l0,0.1l0,0.1l0.1,0
		l0.1,0l0.1,0l0,0.1l0,0l0.3,0.1l0.3,0l0.6-0.2l0.5-0.1l0.1-0.1l0.1,0l0.4,0.1l0.1,0.1l0.2,0.3l0.1,0.1l0.1,0l0.2-0.3l0.1-0.1
		l0.1-0.1l0.2,0.2l0,0l0,0l0,0l0,0l0.2,0l0.2,0l0.3-0.1l0.1,0.1l1,0l0.3,0l0.1,0l0.1-0.1l0-0.2l-0.1-0.2l-0.1-0.1l-0.1,0l0-0.1l0,0
		l0.1,0l-0.1-0.1l0.1-0.3l0-0.2l0-0.2l0.2-0.1l0.2,0l0.1,0l0.3,0.1l0.1,0l0.2,0l0.1,0l0.3,0.2l0.2,0.1l0.1,0.1l0.1,0.1l0.1,0l0.1,0
		l0.1-0.1l0.1,0l0.1,0l0.1,0.1l0.1,0l0.7,0l0.2,0.1l0.1,0.1l0.1,0.2l0.1,0.2l0.1,0.1l0.1,0.1l0.1,0l0.3-0.1l1,0l0.2,0.1l0,0.2l0,0
		l0.1,0l0.1,0l0.1,0.3l0.2,0.2l0.1,0.4l0.1,0.2l0.2-0.1l0.1-0.4l0.3,0l0.2-0.1l0.1,0l0.4,0.3l0.1,0l0.9,0.1l-0.1,0.2l0.1,0.1
		l0.2,0.1l0.1,0.1l-0.2,0l-0.1,0.1l-0.1,0.2l0,0.3l0,0l0,0l0,0l0,0l0.1,0.1l0.5,0.1l0.2,0.1l0.4,0.3l0.2,0l0.1,0l0.1,0.1l0.1,0.2
		l0.1,0.4l0.1,0.2l0.2,0.1l0.1,0.1l0.1,0l0.2,0l0.1,0l0.1-0.1l0.1-0.1l0.2-0.1l0-0.1l0.1-0.2l0-0.1l0.1-0.1l0.4,0l0.5-0.2l0.2,0
		l0.2,0.1l0.1,0.1l0.5,0.2l0.2,0.1l0.1,0l0.1,0.2l0.1,0.2l0.2,0.1l0.1,0l0.2,0.1l0.1,0l0.1,0l0.1-0.1l0.1-0.2l0.1-0.1l0.2,0l0.4,0.1
		l0.2,0l0.2,0l0,0l-0.1-0.1l-0.1-0.2l0.1-0.1l0.3-0.3l0.1-0.1l0.2,0l0.3,0l0.2,0l0.1-0.1l0.2-0.2l0.1-0.1l0.1,0l0.1,0l0.1,0l0.3-0.2
		l0.3,0.1l0.1-0.1l0.1,0l0.2,0l0.1,0l0.1,0.1l0.1,0.1l0.1,0.1l0.1,0.1l0.2,0.1l0.2,0l0.2,0l0.5-0.1l0-0.1l0-0.3l-0.3-0.4l-0.6-0.6
		l-0.1-0.2l-0.1-0.8l0-0.1l0-0.1l0,0l-0.1,0l0,0l-0.1-0.1l0-0.1l0-0.1l0.1-0.1l0.1,0.2l0,0l0-0.1l0.1-0.5l0-0.2l0-0.2l0-0.2l0-0.1
		l-0.1,0l-0.2-0.1l-0.1,0l-0.1,0l-0.1-0.1l-0.1-0.1l-0.1-0.1l0.3-0.3l0.1-0.1l0-0.1l0-0.2l0-0.1l0.1,0l0.1,0.1l0.1,0l0.1-0.1l0-0.1
		l-0.2-0.2l-0.1-0.2l0-0.2l0.1-0.1l0.2,0l-0.1,0.2l0,0.1l0,0.1l0.1,0l0-0.1l0-0.1l0.1-0.1l0-0.1l0-0.1l0-0.3l0-0.1l0.2-0.2l0-0.1
		l-0.1-0.1l-0.1-0.1l-0.1-0.1l-0.1-0.3l0-0.1l0.1,0h0.2l0,0l-0.1,0.1l-0.2,0.1v0.1l0.1,0.1l0,0.1l0,0l0.1,0l0.2-0.3l0-0.1l0.1-0.1
		l0.2-0.2l0.1-0.1l0.1-0.2l0.1-0.1l0.1-0.2l1.1-0.8l0.3-0.1l0.2,0l0.3,0.2l0.2-0.1l0.7-0.8l0.3-0.2l0.9-0.5l1.6-1.3v-0.1l-0.3,0.1
		l-0.2,0.2l-0.4,0.5l-0.4,0.4l-0.3,0.1l-0.3,0v-0.1l0.7-0.3l0.1-0.1l0-0.2l0.1-0.1l0.5-0.4l0.2-0.1l0.5-0.2l0.4-0.3l0.2-0.1l0.4-0.1
		l-0.1,0.2l-0.1,0.1l-0.1,0.1l-0.2,0l-0.4,0l-0.2,0.1l-0.1,0.1l0.3-0.1l0.5-0.1l0.5,0l0.2,0.2l0,0l0.2,0.6l0,0.1l0.1,0.1l0.2,0.1
		l0.2,0l2.5,0.1l0.3,0.1l0.2,0.2l0,0.2l-0.1,0.2l-0.1,0.2l0,0.1l0.2,0.1l0.3,0.1l1.2,0.1l0.3-0.1l-0.2-0.2l-0.2-0.2l-0.2-0.2
		l-0.1-0.4v-0.8l0-0.1l-0.2-0.4v-0.1l0.1,0.1l0.1,0.2l0.1,0.2l0,0.2l0,0.2l0,0.6l0.1,0.3l0.3,0.3l0.3,0.2l0.3,0.1l-0.1-0.2l-0.1-0.1
		l0-0.1l0.1-0.2l0.1-0.1l0.2,0l0.1-0.1l0.2-0.1l0.4,0.3l0.2-0.1l0.2,0.1l0.2-0.1l0.1-0.2l-0.1-0.3l-0.1-0.1l-0.1-0.1l-0.1-0.1l0-0.2
		l0-0.1l0-0.2l0.1-0.1l0.1-0.1l0,0l0.1,0.2l0,0l0.2,0l0.1,0l0.2,0.1l0,0.1l0,0.1l0.1,0.2l0.2,0.2l0.2,0l0.2-0.1l0.2-0.2l0,0.3
		l-0.1,0.2l-0.2,0.2L122,120l-0.2,0.1H121l-0.2,0.1l-0.1,0.2l0,0.2l0.2,0.2l0.2,0.1l0.5,0l0.1,0l0.3,0.1l1.1-0.2l0.2,0.2v0.6l0,0.1
		l0.1,0.1l0.1,0l0,0l0,0.1l0,0.1l-0.1,0.2l-0.1,0.1l0,0.1l0.1,0.1l0.1,0l0.2,0l0.1,0.1l0.1,0l0.2,0l0.2,0l0.1,0.1l0,0.1l0.1,0
		l0.1-0.1l0.1-0.1l0.1,0l0.2,0.3l0.1,0.1l0.1,0l0,0l0,0l0.1,0l0,0l0-0.1l0-0.1l0,0l0.4,0l0.2,0.1l0,0.2l0.3,0.2l0.2,0.1l0.2,0l0.1,0
		l0,0.1l0.1,0l0.1,0l0.1,0l0,0l-0.3,0.1l-0.1,0.1l0,0.1l0.1,0.1l0.4,0.2l0.2,0l0.1-0.1l0-0.1l0.1-0.1l0.1,0l0.3,0v-0.1l-0.1-0.1
		l-0.2-0.2l-0.1-0.1l0.2-0.1l0.1,0l0.1,0l0,0.1l0,0.1l0,0.1l0.2-0.1l0.2,0l0.2,0.1l0.1,0.1l0.1,0l0.6,0l0.1,0v0.1l0,0.2l0,0l-0.3,0
		v0.1l0.1,0l0.5,0l0.1,0V124h-0.1l-0.1,0l-0.1-0.1l0.1-0.2l0-0.2l0.1-0.2l0.2-0.1l0.1,0l0.5,0l0.1,0l0.1,0l0.1,0l0.1,0l0,0.1l0,0.1
		l0,0l0.3,0l0.1-0.1l-0.1-0.2l0-0.1l0-0.1l0-0.1l0.1-0.1l0.1-0.1l0.3,0l0.2-0.1l0.2-0.1l0.1,0l0.2,0l0.1,0l0.1-0.1l0.1-0.1l0.2-0.1
		l0.2,0l0.1,0.1l0,0.1l0,0.1l0,0.1l0.1,0l0.2-0.1l0.1,0l-0.1-0.1l0.3-0.3l0-0.1l0,0l0,0l0-0.1l0-0.1l0-0.1l0,0l0,0l0-0.1l0.1-0.2
		l0-0.1l-0.8,0l0,0l0-0.1l0.1-0.1l0.2-0.1l0.2,0l0.1-0.1l0-0.1l0.1-0.1l0.1-0.1l0.1,0l0.1-0.1l0.1-0.3l0.1-0.2l0.1-0.2l0.1-0.1
		l0.2,0.1l0.2,0.1l0.4,0l0,0l0-0.1l0-0.1l0,0.1l0,0l0,0l0.1,0l0,0l0,0l0-0.1l0,0h0.1l0,0l0,0l0.3-0.5l0,0l0,0l0-0.2l0,0l0.1-0.2
		l0.1-0.1l0.1-0.1l0.1-0.1l0.2,0.1l0.2-0.1l0.2-0.1l0.2-0.1l0,0l0,0.1l0,0.1l0.1,0l0,0l0,0l0-0.1l0-0.1l0-0.5l0-0.1l0.1,0l0.1-0.1
		l0.1-0.1l0.1,0l0.1,0l0.1,0l0.1,0l0.1-0.1l0.2-0.2l0.1-0.1l0.1,0l0.1,0l0.4-0.1l0,0.1l0,0l0.2,0l0-0.1l0-0.1l0.1-0.1l0.1,0l0-0.1
		l0.1-0.1l0.2-0.1l0.2,0.1l0.1-0.1l0.1,0l0.1,0l0.1,0l0,0l0.1,0l0,0l0-0.1l0,0l0,0l0,0h0l0.1-0.1l-0.2-0.5l0-0.3l0.1-0.2l0.3-0.4
		l0.2-0.3l0.4-0.3l0.2-0.2l0.1-0.1l0.1-0.2l0.1-0.1l0.1-0.1l0.1-0.1l0.1-0.1l0-0.2l-0.1-0.3l-0.2-0.2l-0.1-0.2l0.1-0.4l-0.2,0
		l-0.3,0.2l-0.2,0l-1.4,0.4l-0.3,0l-0.1,0l-0.1-0.1l0-0.1l-0.1-0.1l-0.1,0l-0.2,0l-0.2-0.1l-0.8-0.5l-0.3-0.1l-0.5-0.2l-0.1,0
		l-0.1,0l-0.1,0l-0.1,0l-0.1,0l-0.1-0.1l0-0.1l0-0.1l-0.1-0.1l-0.1-0.1l-0.2-0.1l-0.1-0.1l0-0.1l-0.1-0.2l-0.1-0.1l-0.2-0.2l0,0
		l0-0.1l0-0.1l0-0.1l0.1-0.3l0.1-0.1l0.3-0.1l-0.2-0.2l-0.2-0.3l-0.2-0.3l0-0.3l0.1-0.1l0.4-0.3l0.3-0.5l0.1-0.1l-0.1-0.2l0.1-0.2
		l0.1-0.2l0.2-0.1l0.1,0l0.3,0.1l0.1,0l0-0.1l-0.2-0.5l0-0.1l0-0.3l-0.1-0.2l0,0l0-0.2l0,0l0-0.1l0,0l0,0l0-0.1l0-0.1l-0.1-0.2
		l-0.4-0.2l-0.1,0l-0.4,0.1l-0.2,0l-0.5-0.3l-0.3-0.2l-0.1-0.2l0-0.6l-0.1-0.3l-0.2-0.2l-0.3,0l-0.1-0.1l-0.1-0.2l0-0.1l0-0.1l0-0.1
		l-0.1-0.1l-0.1-0.2l0.1-0.1l0.1-0.1l0.3-0.2l0.1,0l0.1,0l0.1,0l0.1,0l0.1-0.1l0.1,0l0.3,0l0.3,0.2l0.3,0.1l0.3-0.1l0-0.1l0-0.1
		l0-0.1l0-0.1l0.1,0l0.2,0l0.1,0l0.1-0.1l0.1-0.2l0.1-0.1l0.3-0.1l0.3-0.1l0.1,0l0.1,0.1l0,0l0.1-0.1l0.2-0.3l0.2-0.2v-0.2l-0.1-0.2
		l0-0.3l0-0.1l0.3-0.3l0.2-0.3l0.1-0.2l0-0.1l-0.1,0l-0.3-0.1l-0.1-0.1l-0.1-0.1l-0.1-0.1l-0.1-0.1l-0.3-0.3l-0.4-0.2l-0.1-0.2
		l0-0.5l0-0.1l-0.1-0.1l0-0.1l0-0.1l0.1-0.2l0-0.1l0-0.2l-0.1-0.1l-0.3-0.1l-0.1-0.1l-0.2-0.2l-0.1,0l-0.2,0l-0.2-0.2l-0.2-0.2
		l-0.1-0.5l0-0.2l0-0.2l0-0.2l0.1-0.2l0.1-0.1l0.2,0v0l0-0.1l0-0.1l0,0l0,0l0.1,0l0,0l0.1,0l0.2,0l0.2-0.1l0.2-0.1l0.2-0.1l0.1-0.2
		l0.1-0.2l0.1-0.1l0.1-0.1l0.1-0.1l-0.1-0.1l0-0.1l-0.1-0.2l-0.1-0.2l0-0.1l0,0l-0.5-0.6l-0.2-0.1l-0.1,0l-0.1,0.1l-0.1,0l-0.1,0
		l-0.1-0.1l0,0l0,0l0-0.1l0,0l0-0.1l0-0.1l0,0l0-0.1l0.1-0.1l0.1-0.1l0-0.1l-0.1-0.1l-0.6-0.1l-0.1-0.2l0.1-0.4l0.1-0.4l0.3-0.5
		l-0.2-0.3l-0.3-0.3l-0.2-0.3l0-0.1l0.2-0.2l0.1-0.2l0-0.2l-0.1-0.1l-0.1-0.1l-1.2-0.3l-0.5,0l-0.5,0.1l-0.7,0.5l-0.3,0.1l-0.3,0
		l-0.2,0.1l-0.3,0.2l-0.2,0.3l-0.2,0.2l0,0.2l0,0.1l0.1,0.2l0,0l0.1,0.2l0,0.1l0.1,0l0.1-0.1l0.1,0l0,0.3l-0.2,0.2l-0.5,0.3
		l-0.4,0.5l-0.3,0.1l-0.3-0.1l-0.4,0l-0.4,0.1l-0.2,0.1l0.1-0.3l0.1-0.1l0-0.1l-0.1-0.2l-0.1-0.2l0-0.1l0.2-0.1l0.5-0.2l0,0h0l0.1,0
		l0,0l0,0l0.2-0.1l0-0.1l0-0.1l0-0.1l0.1-0.3l0-0.1l0.3-0.6l0-0.1l-0.1-0.2l-0.1-0.1l-0.4-0.3l0.1-0.1l0-0.1l0-0.1v-0.1l0,0l0,0
		l0-0.1V86l0-0.1l0.1-0.1l0.3-0.5l0.3-0.4l-0.2-0.2l0-0.2l0.1-0.1l1.1-1l0.6-0.3l0.1-0.1l0.2-0.2l0.3-0.1l0.1-0.1l0.1-0.1l0-0.1
		l0-0.2l-0.1-0.1l0-0.1l0-0.1l0-0.1l0.1-0.4l0.1-0.1l0-0.1l0-0.2l0-0.1L132,81l0-0.1l0.1-0.4l0.4-0.2l0.9-0.3l0.5-0.4l0.2-0.3
		l-0.1-0.2l0.1-0.2l0.1-0.1l0.2-0.1l0-0.1l0,0l0.1-0.1l0-0.2l0.2-0.1l0.5-0.5l0.2-0.2l0.2-0.2l0.5-0.4l0-0.3l0.1-0.2l0.1-0.2l0.1,0
		l0,0l0.1-0.2l0.1,0l0.1,0l0.1,0l0.1-0.1l-0.1-0.1l-0.1-0.1l-0.1-0.1l-0.1,0.1l-0.9,0.1l0-0.1l0.1-0.2l0.1-0.2l0.2-0.1l0-0.2l0.2,0
		l0.1-0.1l0.1-0.1l0.1-0.1l0-0.1l-0.1-0.2l0-0.1l0.1,0l0.1-0.1l0.1,0l0.1,0l0.1,0.1l0.2,0l0.4-0.1l0.2,0l0.1,0.1l0.1,0l0.2,0
		l-0.1,0.3l0,0.2l0.2,0.1l0.2,0.1l0,0l0,0l0,0l0.1,0l0.1,0l0.3-0.1l0.2,0l0.6,0l0.2-0.1l0.2-0.2l0-0.1l0-0.1l0-0.1l0,0l0-0.1v-0.1
		l0.1,0l0.1,0l0.1,0.1l0.1,0l0.1-0.1l0,0l0,0v0l0,0l-0.1-0.1l0,0l0,0l0,0l0.1,0l0.1,0l0-0.1l0-0.1l0,0l-0.1-0.1l0,0l0.3-0.3l0.2-0.1
		l0.3-0.1l0,0l0,0l0-0.1l0,0l0-0.1l0-0.1l0,0l0-0.1l-0.2-0.4l-0.1-0.2l-0.1-0.1l0-0.1l0-0.1l0-0.3l0-0.1l0.1-0.1l0-0.1l0-0.2
		l-0.1-0.4l0-0.2l0.1-0.4l0-0.1l0.1-0.1l0-0.1l0-0.2l0-0.1l0,0l0,0l0,0l0-0.1l0.1-0.1l0-0.1l0.1-0.1l0-0.1l0-0.2l0-0.2l0.2-0.2
		l0.1-0.1l0-0.4l-0.3-0.6l0-0.5l0.1-0.2l0.1-0.2l0.1-0.1l0.1-0.1l0-0.1l0-0.2l0.1-0.1l0.5-0.7l0.1-0.2l0.1-0.2l0-0.2l0.1-0.2
		l0.1-0.1l0.1-0.1l0.1-0.2l0-0.2l0-0.2l-0.1-0.2l0-0.1l0-0.2l0.1-0.3l0-0.1l0.1-0.1l0.1-0.1l0-0.1l0-0.2l0-0.1l0.1-0.1l0.2-0.2v-0.1
		l-0.1-0.3v-0.4l0.1-0.4l0.3-0.5l0.1-0.1l0.1,0l0.1-0.1l0.2-0.3l0.1-0.1l0.1-0.1l0.1-0.1l0-0.1l0-0.2l0-0.1l0.1,0l0.2,0l0.1,0l0,0
		l0-0.1l0-0.1l0-0.1l0,0l0,0l0.1,0l0.3-0.2l0,0l0.1-0.2l0.4-1l0.2-0.5l0.2-0.2l-0.1-0.1L145.2,56.4z M96.7,130.7L96.7,130.7l-0.1,0
		l-0.2,0l-0.1-0.1l0-0.1l0.1-0.2l0.1,0l0.1,0.1l0.1,0.2L96.7,130.7L96.7,130.7z"/>
	<g>
		<g>
			<path class="st1" d="M160.6,28.2c-15.8,0.2-37.7,15.5-43.8,31.5"/>
			<g>
				<path class="st2" d="M116.8,59.6c0.3-0.1,0.7-0.1,1,0c-0.5,0.1-1,0.4-1.3,0.8c0-0.5-0.2-1-0.5-1.5
					C116.3,59.1,116.6,59.3,116.8,59.6z"/>
			</g>
		</g>
	</g>
	<g>
		<path class="st3" d="M173.1,26.6h-0.9l-1.5-2.4h-1.2v2.4h-0.7v-6h2.4c0.6,0,1,0.2,1.4,0.5c0.3,0.3,0.5,0.8,0.5,1.3
			c0,0.5-0.2,0.9-0.5,1.2s-0.7,0.5-1.1,0.5L173.1,26.6z M171.1,23.5c0.4,0,0.6-0.1,0.9-0.3c0.2-0.2,0.3-0.5,0.3-0.8
			s-0.1-0.6-0.3-0.8c-0.2-0.2-0.5-0.3-0.9-0.3h-1.6v2.3H171.1z"/>
		<path class="st3" d="M177.8,26.6h-0.7v-0.6c-0.2,0.2-0.4,0.4-0.7,0.5c-0.3,0.1-0.6,0.2-0.9,0.2c-0.9,0-1.4-0.5-1.4-1.4v-3.1h0.7
			v2.9c0,0.4,0.1,0.6,0.2,0.8c0.2,0.2,0.4,0.2,0.7,0.2c0.3,0,0.5-0.1,0.7-0.2s0.4-0.3,0.6-0.5v-3.2h0.7V26.6z"/>
		<path class="st3" d="M180.5,26.7c-0.7,0-1.3-0.2-1.8-0.7l0.4-0.5c0.1,0.2,0.4,0.3,0.6,0.4c0.3,0.1,0.5,0.2,0.8,0.2
			c0.3,0,0.6-0.1,0.8-0.2s0.3-0.3,0.3-0.5c0-0.2-0.1-0.3-0.3-0.5c-0.2-0.1-0.4-0.2-0.7-0.3s-0.5-0.1-0.8-0.2
			c-0.3-0.1-0.5-0.2-0.7-0.4c-0.2-0.2-0.3-0.4-0.3-0.7c0-0.4,0.1-0.7,0.4-0.9c0.3-0.2,0.7-0.4,1.2-0.4c0.7,0,1.2,0.2,1.6,0.6
			l-0.3,0.5c-0.3-0.4-0.7-0.5-1.3-0.5c-0.3,0-0.5,0.1-0.7,0.2s-0.3,0.3-0.3,0.5c0,0.2,0.1,0.3,0.3,0.4c0.2,0.1,0.4,0.2,0.7,0.2
			c0.3,0.1,0.5,0.1,0.8,0.2c0.3,0.1,0.5,0.2,0.7,0.4c0.2,0.2,0.3,0.4,0.3,0.8c0,0.4-0.2,0.7-0.4,0.9
			C181.5,26.5,181.1,26.7,180.5,26.7z"/>
		<path class="st3" d="M184.7,26.7c-0.7,0-1.3-0.2-1.8-0.7l0.4-0.5c0.1,0.2,0.4,0.3,0.6,0.4c0.3,0.1,0.5,0.2,0.8,0.2
			c0.3,0,0.6-0.1,0.8-0.2c0.2-0.1,0.3-0.3,0.3-0.5c0-0.2-0.1-0.3-0.3-0.5c-0.2-0.1-0.4-0.2-0.7-0.3c-0.3-0.1-0.5-0.1-0.8-0.2
			c-0.3-0.1-0.5-0.2-0.7-0.4s-0.3-0.4-0.3-0.7c0-0.4,0.1-0.7,0.4-0.9c0.3-0.2,0.7-0.4,1.2-0.4c0.7,0,1.2,0.2,1.6,0.6l-0.3,0.5
			c-0.3-0.4-0.7-0.5-1.3-0.5c-0.3,0-0.5,0.1-0.7,0.2c-0.2,0.1-0.3,0.3-0.3,0.5c0,0.2,0.1,0.3,0.3,0.4s0.4,0.2,0.7,0.2
			c0.3,0.1,0.5,0.1,0.8,0.2c0.3,0.1,0.5,0.2,0.7,0.4c0.2,0.2,0.3,0.4,0.3,0.8c0,0.4-0.2,0.7-0.5,0.9
			C185.7,26.5,185.2,26.7,184.7,26.7z"/>
		<path class="st3" d="M187.8,21.6c-0.1,0-0.2,0-0.3-0.1c-0.1-0.1-0.1-0.2-0.1-0.3s0-0.2,0.1-0.3c0.1-0.1,0.2-0.1,0.3-0.1
			c0.1,0,0.2,0,0.3,0.1c0.1,0.1,0.1,0.2,0.1,0.3s0,0.2-0.1,0.3C188.1,21.5,188,21.6,187.8,21.6z M188.2,26.6h-0.7v-4.3h0.7V26.6z"/>
		<path class="st3" d="M192.9,26.6h-0.7v-0.5c-0.4,0.4-0.8,0.6-1.4,0.6c-0.4,0-0.8-0.1-1.1-0.4c-0.3-0.3-0.5-0.6-0.5-1.1
			c0-0.5,0.2-0.8,0.5-1.1c0.3-0.2,0.7-0.4,1.1-0.4c0.6,0,1.1,0.2,1.4,0.6v-0.8c0-0.3-0.1-0.5-0.3-0.7c-0.2-0.2-0.5-0.2-0.8-0.2
			c-0.5,0-1,0.2-1.3,0.6l-0.3-0.5c0.5-0.5,1-0.7,1.7-0.7c0.5,0,0.9,0.1,1.2,0.4c0.3,0.2,0.5,0.6,0.5,1.1V26.6z M191,26.2
			c0.5,0,0.9-0.2,1.2-0.5v-0.8c-0.3-0.4-0.7-0.5-1.2-0.5c-0.3,0-0.6,0.1-0.8,0.3c-0.2,0.2-0.3,0.4-0.3,0.7c0,0.3,0.1,0.5,0.3,0.7
			C190.5,26.1,190.7,26.2,191,26.2z"/>
	</g>
	<g>
		<path class="st3" d="M171.6,54.1c-0.9,0-1.6-0.3-2.2-0.9c-0.6-0.6-0.9-1.3-0.9-2.2s0.3-1.7,0.9-2.2s1.3-0.9,2.2-0.9
			c1,0,1.7,0.4,2.3,1.2l-0.6,0.4c-0.2-0.3-0.4-0.5-0.7-0.6c-0.3-0.2-0.6-0.2-0.9-0.2c-0.7,0-1.2,0.2-1.7,0.7s-0.7,1-0.7,1.8
			s0.2,1.3,0.7,1.8s1,0.7,1.7,0.7c0.3,0,0.7-0.1,0.9-0.2c0.3-0.2,0.5-0.4,0.7-0.6l0.6,0.4C173.3,53.7,172.5,54.1,171.6,54.1z"/>
		<path class="st3" d="M178.4,54h-0.7v-2.9c0-0.4-0.1-0.6-0.3-0.8s-0.4-0.2-0.7-0.2c-0.2,0-0.5,0.1-0.7,0.2
			c-0.2,0.1-0.4,0.3-0.6,0.5V54h-0.7v-6h0.7v2.3c0.2-0.2,0.4-0.4,0.7-0.5c0.3-0.1,0.6-0.2,0.9-0.2c0.9,0,1.4,0.5,1.4,1.4V54z"/>
		<path class="st3" d="M180.1,49c-0.1,0-0.2,0-0.3-0.1c-0.1-0.1-0.1-0.2-0.1-0.3s0-0.2,0.1-0.3c0.1-0.1,0.2-0.1,0.3-0.1
			c0.1,0,0.2,0,0.3,0.1c0.1,0.1,0.1,0.2,0.1,0.3s0,0.2-0.1,0.3C180.3,49,180.2,49,180.1,49z M180.4,54h-0.7v-4.3h0.7V54z"/>
		<path class="st3" d="M185.4,54h-0.7v-2.8c0-0.4-0.1-0.6-0.3-0.8s-0.4-0.2-0.7-0.2c-0.3,0-0.5,0.1-0.7,0.2
			c-0.2,0.1-0.4,0.3-0.6,0.5V54h-0.7v-4.3h0.7v0.6c0.2-0.2,0.4-0.4,0.7-0.5s0.6-0.2,0.9-0.2c0.9,0,1.4,0.5,1.4,1.4V54z"/>
		<path class="st3" d="M190.1,54h-0.7v-0.5c-0.4,0.4-0.8,0.6-1.4,0.6c-0.4,0-0.8-0.1-1.1-0.4c-0.3-0.3-0.5-0.6-0.5-1.1
			c0-0.5,0.2-0.8,0.5-1.1c0.3-0.2,0.7-0.4,1.1-0.4c0.6,0,1.1,0.2,1.4,0.6V51c0-0.3-0.1-0.5-0.3-0.7c-0.2-0.2-0.5-0.2-0.8-0.2
			c-0.5,0-1,0.2-1.3,0.6l-0.3-0.5c0.5-0.5,1-0.7,1.7-0.7c0.5,0,0.9,0.1,1.2,0.4c0.3,0.2,0.5,0.6,0.5,1.1V54z M188.3,53.6
			c0.5,0,0.9-0.2,1.2-0.5v-0.8c-0.3-0.4-0.7-0.5-1.2-0.5c-0.3,0-0.6,0.1-0.8,0.3c-0.2,0.2-0.3,0.4-0.3,0.7c0,0.3,0.1,0.5,0.3,0.7
			C187.7,53.5,187.9,53.6,188.3,53.6z"/>
	</g>
	<g>
		<path class="st3" d="M171.5,83.7h-2.7v-6h2.7c0.5,0,0.9,0.1,1.2,0.4c0.3,0.3,0.5,0.7,0.5,1.1c0,0.4-0.1,0.7-0.3,0.9
			s-0.5,0.4-0.7,0.5c0.3,0,0.6,0.2,0.8,0.5c0.2,0.3,0.3,0.6,0.3,1c0,0.5-0.2,0.9-0.5,1.2C172.4,83.5,172,83.7,171.5,83.7z
			 M171.3,80.3c0.3,0,0.6-0.1,0.8-0.3c0.2-0.2,0.3-0.4,0.3-0.7c0-0.3-0.1-0.5-0.3-0.7c-0.2-0.2-0.4-0.3-0.8-0.3h-1.8v1.9H171.3z
			 M171.3,83c0.3,0,0.6-0.1,0.8-0.3c0.2-0.2,0.3-0.4,0.3-0.8c0-0.3-0.1-0.5-0.3-0.7c-0.2-0.2-0.5-0.3-0.8-0.3h-1.8V83H171.3z"/>
		<path class="st3" d="M177.8,83.7h-0.7v-0.5c-0.4,0.4-0.8,0.6-1.4,0.6c-0.4,0-0.8-0.1-1.1-0.4c-0.3-0.3-0.5-0.6-0.5-1.1
			c0-0.5,0.2-0.8,0.5-1.1c0.3-0.2,0.7-0.4,1.1-0.4c0.6,0,1.1,0.2,1.4,0.6v-0.8c0-0.3-0.1-0.5-0.3-0.7s-0.5-0.2-0.8-0.2
			c-0.5,0-1,0.2-1.3,0.6l-0.3-0.5c0.5-0.5,1-0.7,1.7-0.7c0.5,0,0.9,0.1,1.2,0.4c0.3,0.2,0.5,0.6,0.5,1.1V83.7z M175.9,83.3
			c0.5,0,0.9-0.2,1.2-0.5V82c-0.3-0.4-0.7-0.5-1.2-0.5c-0.3,0-0.6,0.1-0.8,0.3c-0.2,0.2-0.3,0.4-0.3,0.7c0,0.3,0.1,0.5,0.3,0.7
			C175.3,83.2,175.6,83.3,175.9,83.3z"/>
		<path class="st3" d="M182.7,83.7H182v-2.8c0-0.4-0.1-0.6-0.3-0.8s-0.4-0.2-0.7-0.2c-0.3,0-0.5,0.1-0.7,0.2
			c-0.2,0.1-0.4,0.3-0.6,0.5v3.2h-0.7v-4.3h0.7V80c0.2-0.2,0.4-0.4,0.7-0.5c0.3-0.1,0.6-0.2,0.9-0.2c0.9,0,1.4,0.5,1.4,1.4V83.7z"/>
		<path class="st3" d="M185.8,85.5c-0.4,0-0.7,0-1-0.1c-0.3-0.1-0.5-0.3-0.8-0.5l0.3-0.5c0.3,0.4,0.8,0.6,1.4,0.6
			c0.4,0,0.7-0.1,1-0.3c0.3-0.2,0.4-0.5,0.4-1V83c-0.2,0.2-0.4,0.4-0.6,0.6c-0.3,0.1-0.5,0.2-0.8,0.2c-0.6,0-1-0.2-1.4-0.6
			c-0.4-0.4-0.5-1-0.5-1.6s0.2-1.2,0.5-1.6c0.4-0.4,0.8-0.6,1.4-0.6c0.6,0,1.1,0.3,1.5,0.8v-0.7h0.7v4.2c0,0.7-0.2,1.1-0.6,1.4
			C186.9,85.3,186.4,85.5,185.8,85.5z M185.9,83.2c0.3,0,0.5-0.1,0.8-0.2c0.2-0.1,0.4-0.3,0.5-0.5v-1.9c-0.1-0.2-0.3-0.4-0.5-0.5
			c-0.2-0.1-0.5-0.2-0.8-0.2c-0.4,0-0.8,0.2-1,0.5c-0.2,0.3-0.4,0.7-0.4,1.2c0,0.5,0.1,0.9,0.4,1.2S185.5,83.2,185.9,83.2z"/>
		<path class="st3" d="M189.9,83.7h-0.7v-6h0.7V83.7z"/>
		<path class="st3" d="M194.7,83.7H194v-0.5c-0.4,0.4-0.8,0.6-1.4,0.6c-0.4,0-0.8-0.1-1.1-0.4c-0.3-0.3-0.5-0.6-0.5-1.1
			c0-0.5,0.2-0.8,0.5-1.1c0.3-0.2,0.7-0.4,1.1-0.4c0.6,0,1.1,0.2,1.4,0.6v-0.8c0-0.3-0.1-0.5-0.3-0.7c-0.2-0.2-0.5-0.2-0.8-0.2
			c-0.5,0-1,0.2-1.3,0.6l-0.3-0.5c0.5-0.5,1-0.7,1.7-0.7c0.5,0,0.9,0.1,1.2,0.4c0.3,0.2,0.5,0.6,0.5,1.1V83.7z M192.8,83.3
			c0.5,0,0.9-0.2,1.2-0.5V82c-0.3-0.4-0.7-0.5-1.2-0.5c-0.3,0-0.6,0.1-0.8,0.3c-0.2,0.2-0.3,0.4-0.3,0.7c0,0.3,0.1,0.5,0.3,0.7
			C192.2,83.2,192.5,83.3,192.8,83.3z"/>
		<path class="st3" d="M199.8,83.7h-0.7V83c-0.4,0.5-0.9,0.8-1.5,0.8c-0.6,0-1-0.2-1.4-0.6c-0.4-0.4-0.5-1-0.5-1.7
			c0-0.7,0.2-1.2,0.5-1.7s0.8-0.6,1.4-0.6c0.6,0,1.1,0.3,1.5,0.8v-2.3h0.7V83.7z M197.8,83.2c0.3,0,0.5-0.1,0.8-0.2s0.4-0.3,0.5-0.5
			v-2c-0.1-0.2-0.3-0.4-0.6-0.5c-0.2-0.1-0.5-0.2-0.8-0.2c-0.4,0-0.8,0.2-1,0.5s-0.4,0.7-0.4,1.2s0.1,0.9,0.4,1.2
			S197.4,83.2,197.8,83.2z"/>
		<path class="st3" d="M203.1,83.8c-0.6,0-1.2-0.2-1.6-0.6c-0.4-0.4-0.6-1-0.6-1.7c0-0.6,0.2-1.2,0.6-1.6s0.9-0.7,1.5-0.7
			c0.6,0,1.2,0.2,1.5,0.7s0.6,1,0.6,1.7v0.2h-3.5c0,0.4,0.2,0.8,0.5,1.1c0.3,0.3,0.6,0.4,1.1,0.4c0.5,0,1-0.2,1.3-0.5l0.3,0.4
			C204.4,83.6,203.8,83.8,203.1,83.8z M204.5,81.2c0-0.4-0.1-0.7-0.4-1c-0.2-0.3-0.6-0.4-1.1-0.4c-0.4,0-0.8,0.1-1,0.4
			c-0.2,0.3-0.4,0.6-0.4,1H204.5z"/>
		<path class="st3" d="M207.6,83.8c-0.7,0-1.3-0.2-1.8-0.7l0.4-0.5c0.2,0.2,0.4,0.3,0.6,0.4c0.3,0.1,0.5,0.2,0.8,0.2
			c0.3,0,0.6-0.1,0.8-0.2s0.3-0.3,0.3-0.5c0-0.2-0.1-0.3-0.3-0.5c-0.2-0.1-0.4-0.2-0.7-0.3c-0.3-0.1-0.5-0.1-0.8-0.2
			c-0.3-0.1-0.5-0.2-0.7-0.4c-0.2-0.2-0.3-0.4-0.3-0.7c0-0.4,0.1-0.7,0.4-0.9c0.3-0.2,0.7-0.4,1.2-0.4c0.7,0,1.2,0.2,1.6,0.6
			l-0.3,0.5c-0.3-0.4-0.7-0.5-1.3-0.5c-0.3,0-0.5,0.1-0.7,0.2c-0.2,0.1-0.3,0.3-0.3,0.5c0,0.2,0.1,0.3,0.3,0.4
			c0.2,0.1,0.4,0.2,0.7,0.2c0.3,0.1,0.5,0.1,0.8,0.2s0.5,0.2,0.7,0.4c0.2,0.2,0.3,0.4,0.3,0.8c0,0.4-0.2,0.7-0.5,0.9
			C208.6,83.7,208.2,83.8,207.6,83.8z"/>
		<path class="st3" d="M214,83.7h-0.7v-2.9c0-0.4-0.1-0.6-0.3-0.8c-0.2-0.1-0.4-0.2-0.7-0.2c-0.2,0-0.5,0.1-0.7,0.2
			c-0.2,0.1-0.4,0.3-0.6,0.5v3.2h-0.7v-6h0.7V80c0.2-0.2,0.4-0.4,0.7-0.5s0.6-0.2,0.9-0.2c0.9,0,1.4,0.5,1.4,1.4V83.7z"/>
	</g>
	<g>
		<path class="st3" d="M173.3,111.6h-0.9l-2.3-2.7l-0.6,0.7v2h-0.7v-6h0.7v3.1l2.7-3.1h0.9l-2.5,2.9L173.3,111.6z"/>
		<path class="st3" d="M177.3,111c-0.4,0.4-0.9,0.7-1.6,0.7s-1.2-0.2-1.6-0.7c-0.4-0.4-0.6-1-0.6-1.6c0-0.6,0.2-1.2,0.6-1.6
			c0.4-0.4,0.9-0.7,1.6-0.7s1.2,0.2,1.6,0.7c0.4,0.4,0.6,1,0.6,1.6C177.9,110.1,177.7,110.6,177.3,111z M174.6,110.6
			c0.3,0.3,0.6,0.5,1.1,0.5c0.4,0,0.8-0.2,1.1-0.5s0.4-0.7,0.4-1.2c0-0.5-0.1-0.9-0.4-1.2c-0.3-0.3-0.6-0.5-1.1-0.5
			c-0.4,0-0.8,0.2-1.1,0.5c-0.3,0.3-0.4,0.7-0.4,1.2C174.3,109.9,174.4,110.3,174.6,110.6z"/>
		<path class="st3" d="M180.3,111.7c-0.7,0-1.3-0.2-1.8-0.7l0.4-0.5c0.1,0.2,0.4,0.3,0.6,0.4c0.3,0.1,0.5,0.2,0.8,0.2
			c0.3,0,0.6-0.1,0.8-0.2s0.3-0.3,0.3-0.5c0-0.2-0.1-0.3-0.3-0.5c-0.2-0.1-0.4-0.2-0.7-0.3s-0.5-0.1-0.8-0.2
			c-0.3-0.1-0.5-0.2-0.7-0.4c-0.2-0.2-0.3-0.4-0.3-0.7c0-0.4,0.1-0.7,0.4-0.9c0.3-0.2,0.7-0.4,1.2-0.4c0.7,0,1.2,0.2,1.6,0.6
			l-0.3,0.5c-0.3-0.4-0.7-0.5-1.3-0.5c-0.3,0-0.5,0.1-0.7,0.2s-0.3,0.3-0.3,0.5c0,0.2,0.1,0.3,0.3,0.4c0.2,0.1,0.4,0.2,0.7,0.2
			c0.3,0.1,0.5,0.1,0.8,0.2c0.3,0.1,0.5,0.2,0.7,0.4c0.2,0.2,0.3,0.4,0.3,0.8c0,0.4-0.2,0.7-0.4,0.9
			C181.3,111.6,180.9,111.7,180.3,111.7z"/>
		<path class="st3" d="M186.6,111c-0.4,0.4-0.9,0.7-1.6,0.7c-0.6,0-1.2-0.2-1.6-0.7s-0.6-1-0.6-1.6c0-0.6,0.2-1.2,0.6-1.6
			c0.4-0.4,0.9-0.7,1.6-0.7c0.6,0,1.2,0.2,1.6,0.7c0.4,0.4,0.6,1,0.6,1.6C187.2,110.1,187,110.6,186.6,111z M184,110.6
			c0.3,0.3,0.6,0.5,1.1,0.5c0.4,0,0.8-0.2,1.1-0.5s0.4-0.7,0.4-1.2c0-0.5-0.1-0.9-0.4-1.2c-0.3-0.3-0.6-0.5-1.1-0.5
			c-0.4,0-0.8,0.2-1.1,0.5c-0.3,0.3-0.4,0.7-0.4,1.2C183.6,109.9,183.7,110.3,184,110.6z"/>
		<path class="st3" d="M190.2,111.6h-0.7l-1.8-4.3h0.7l1.4,3.6l1.4-3.6h0.7L190.2,111.6z"/>
		<path class="st3" d="M196.2,111c-0.4,0.4-0.9,0.7-1.6,0.7s-1.2-0.2-1.6-0.7c-0.4-0.4-0.6-1-0.6-1.6c0-0.6,0.2-1.2,0.6-1.6
			c0.4-0.4,0.9-0.7,1.6-0.7s1.2,0.2,1.6,0.7c0.4,0.4,0.6,1,0.6,1.6C196.7,110.1,196.6,110.6,196.2,111z M193.5,110.6
			c0.3,0.3,0.6,0.5,1.1,0.5c0.4,0,0.8-0.2,1.1-0.5s0.4-0.7,0.4-1.2c0-0.5-0.1-0.9-0.4-1.2c-0.3-0.3-0.6-0.5-1.1-0.5
			c-0.4,0-0.8,0.2-1.1,0.5c-0.3,0.3-0.4,0.7-0.4,1.2C193.1,109.9,193.3,110.3,193.5,110.6z"/>
	</g>
	<g>
		<path class="st3" d="M7.5,24.6H6.7l-0.5-1.3h-3l-0.5,1.3H1.8l2.4-6h0.9L7.5,24.6z M5.9,22.6l-1.3-3.2l-1.3,3.2H5.9z"/>
		<path class="st3" d="M9,24.6H8.3v-6H9V24.6z"/>
		<path class="st3" d="M11,24.6h-0.7v-6H11V21c0.4-0.5,0.9-0.8,1.5-0.8c0.6,0,1,0.2,1.4,0.6c0.4,0.4,0.5,1,0.5,1.7
			c0,0.7-0.2,1.2-0.5,1.7c-0.4,0.4-0.8,0.6-1.4,0.6c-0.6,0-1.1-0.3-1.5-0.8V24.6z M11,23.5c0.1,0.2,0.3,0.4,0.5,0.5
			c0.2,0.1,0.5,0.2,0.8,0.2c0.4,0,0.8-0.2,1-0.5s0.4-0.7,0.4-1.2s-0.1-0.9-0.4-1.2s-0.6-0.5-1-0.5c-0.3,0-0.5,0.1-0.8,0.2
			c-0.2,0.1-0.4,0.3-0.5,0.5V23.5z"/>
		<path class="st3" d="M18.9,24.6h-0.7v-0.5c-0.4,0.4-0.8,0.6-1.4,0.6c-0.4,0-0.8-0.1-1.1-0.4c-0.3-0.3-0.5-0.6-0.5-1.1
			c0-0.5,0.2-0.8,0.5-1.1c0.3-0.2,0.7-0.4,1.1-0.4c0.6,0,1.1,0.2,1.4,0.6v-0.8c0-0.3-0.1-0.5-0.3-0.7c-0.2-0.2-0.5-0.2-0.8-0.2
			c-0.5,0-1,0.2-1.3,0.6l-0.3-0.5c0.5-0.5,1-0.7,1.7-0.7c0.5,0,0.9,0.1,1.2,0.4c0.3,0.2,0.5,0.6,0.5,1.1V24.6z M17,24.3
			c0.5,0,0.9-0.2,1.2-0.5v-0.8c-0.3-0.4-0.7-0.5-1.2-0.5c-0.3,0-0.6,0.1-0.8,0.3c-0.2,0.2-0.3,0.4-0.3,0.7c0,0.3,0.1,0.5,0.3,0.7
			C16.4,24.2,16.7,24.3,17,24.3z"/>
		<path class="st3" d="M23.8,24.6h-0.7v-2.8c0-0.4-0.1-0.6-0.3-0.8s-0.4-0.2-0.7-0.2c-0.3,0-0.5,0.1-0.7,0.2
			c-0.2,0.1-0.4,0.3-0.6,0.5v3.2h-0.7v-4.3h0.7v0.6c0.2-0.2,0.4-0.4,0.7-0.5s0.6-0.2,0.9-0.2c0.9,0,1.4,0.5,1.4,1.4V24.6z"/>
		<path class="st3" d="M25.5,19.7c-0.1,0-0.2,0-0.3-0.1c-0.1-0.1-0.1-0.2-0.1-0.3s0-0.2,0.1-0.3c0.1-0.1,0.2-0.1,0.3-0.1
			c0.1,0,0.2,0,0.3,0.1c0.1,0.1,0.1,0.2,0.1,0.3s0,0.2-0.1,0.3C25.7,19.6,25.6,19.7,25.5,19.7z M25.9,24.6h-0.7v-4.3h0.7V24.6z"/>
		<path class="st3" d="M30.6,24.6h-0.7v-0.5c-0.4,0.4-0.8,0.6-1.4,0.6c-0.4,0-0.8-0.1-1.1-0.4c-0.3-0.3-0.5-0.6-0.5-1.1
			c0-0.5,0.2-0.8,0.5-1.1c0.3-0.2,0.7-0.4,1.1-0.4c0.6,0,1.1,0.2,1.4,0.6v-0.8c0-0.3-0.1-0.5-0.3-0.7s-0.5-0.2-0.8-0.2
			c-0.5,0-1,0.2-1.3,0.6l-0.3-0.5c0.5-0.5,1-0.7,1.7-0.7c0.5,0,0.9,0.1,1.2,0.4c0.3,0.2,0.5,0.6,0.5,1.1V24.6z M28.7,24.3
			c0.5,0,0.9-0.2,1.2-0.5v-0.8c-0.3-0.4-0.7-0.5-1.2-0.5c-0.3,0-0.6,0.1-0.8,0.3c-0.2,0.2-0.3,0.4-0.3,0.7c0,0.3,0.1,0.5,0.3,0.7
			C28.2,24.2,28.4,24.3,28.7,24.3z"/>
	</g>
	<g>
		<path class="st3" d="M95,6.5h-0.7v-6H95V6.5z"/>
		<path class="st3" d="M97.1,6.5h-0.7V2.2h0.7v0.7c0.4-0.5,0.9-0.8,1.4-0.8v0.7c-0.1,0-0.2,0-0.3,0c-0.2,0-0.4,0.1-0.7,0.2
			s-0.4,0.3-0.5,0.5V6.5z"/>
		<path class="st3" d="M102.8,6.5h-0.7V6c-0.4,0.4-0.8,0.6-1.4,0.6c-0.4,0-0.8-0.1-1.1-0.4c-0.3-0.3-0.5-0.6-0.5-1.1
			c0-0.5,0.2-0.8,0.5-1.1c0.3-0.2,0.7-0.4,1.1-0.4c0.6,0,1.1,0.2,1.4,0.6V3.6c0-0.3-0.1-0.5-0.3-0.7s-0.5-0.2-0.8-0.2
			c-0.5,0-1,0.2-1.3,0.6l-0.3-0.5c0.5-0.5,1-0.7,1.7-0.7c0.5,0,0.9,0.1,1.2,0.4c0.3,0.2,0.5,0.6,0.5,1.1V6.5z M100.9,6.1
			c0.5,0,0.9-0.2,1.2-0.5V4.8c-0.3-0.4-0.7-0.5-1.2-0.5c-0.3,0-0.6,0.1-0.8,0.3c-0.2,0.2-0.3,0.4-0.3,0.7c0,0.3,0.1,0.5,0.3,0.7
			C100.3,6,100.6,6.1,100.9,6.1z"/>
		<path class="st3" d="M105.8,6.6c-0.6,0-1-0.2-1.4-0.6c-0.4-0.4-0.5-1-0.5-1.7c0-0.7,0.2-1.2,0.5-1.7s0.8-0.6,1.4-0.6
			c0.3,0,0.6,0.1,0.8,0.2c0.3,0.1,0.5,0.3,0.6,0.5V2.2h0.7v6h-0.7V5.8C106.9,6.4,106.4,6.6,105.8,6.6z M105.9,6
			c0.3,0,0.5-0.1,0.8-0.2c0.2-0.1,0.4-0.3,0.5-0.5v-2c-0.1-0.2-0.3-0.4-0.5-0.5c-0.2-0.1-0.5-0.2-0.8-0.2c-0.4,0-0.8,0.2-1,0.5
			s-0.4,0.7-0.4,1.2c0,0.5,0.1,0.9,0.4,1.2C105.2,5.9,105.5,6,105.9,6z"/>
	</g>
	<g>
		<path class="st3" d="M14.6,139.7c-1,0-1.7-0.3-2.3-1l0.4-0.6c0.5,0.6,1.1,0.9,1.9,0.9c0.5,0,0.8-0.1,1.1-0.3s0.3-0.4,0.3-0.7
			c0-0.2-0.1-0.4-0.2-0.5c-0.1-0.1-0.3-0.3-0.5-0.3s-0.4-0.2-0.7-0.2c-0.3-0.1-0.5-0.1-0.8-0.2s-0.5-0.2-0.7-0.3
			c-0.2-0.1-0.4-0.3-0.5-0.5c-0.1-0.2-0.2-0.5-0.2-0.7c0-0.5,0.2-0.9,0.6-1.2s0.9-0.5,1.5-0.5c0.9,0,1.6,0.3,2.1,0.8l-0.4,0.5
			c-0.4-0.5-1-0.7-1.7-0.7c-0.4,0-0.7,0.1-0.9,0.3c-0.2,0.2-0.3,0.4-0.3,0.7c0,0.2,0.1,0.4,0.3,0.5c0.2,0.1,0.4,0.2,0.7,0.3
			s0.5,0.1,0.9,0.2c0.3,0.1,0.6,0.2,0.9,0.3c0.3,0.1,0.5,0.3,0.7,0.5s0.3,0.5,0.3,0.9c0,0.5-0.2,0.9-0.5,1.3
			C15.9,139.6,15.3,139.7,14.6,139.7z"/>
		<path class="st3" d="M17.6,141.3l0.1-0.6c0.1,0,0.2,0.1,0.4,0.1c0.2,0,0.3,0,0.4-0.1s0.2-0.2,0.3-0.4l0.3-0.7l-1.8-4.4h0.7
			l1.4,3.6l1.4-3.6h0.7l-2.2,5.2c-0.2,0.6-0.7,0.9-1.3,0.9C17.9,141.4,17.7,141.4,17.6,141.3z"/>
		<path class="st3" d="M22.9,139.6h-0.7v-4.3h0.7v0.7c0.4-0.5,0.9-0.8,1.4-0.8v0.7c-0.1,0-0.2,0-0.3,0c-0.2,0-0.4,0.1-0.7,0.2
			c-0.2,0.1-0.4,0.3-0.5,0.5V139.6z"/>
		<path class="st3" d="M25.5,134.7c-0.1,0-0.2,0-0.3-0.1c-0.1-0.1-0.1-0.2-0.1-0.3s0-0.2,0.1-0.3c0.1-0.1,0.2-0.1,0.3-0.1
			c0.1,0,0.2,0,0.3,0.1c0.1,0.1,0.1,0.2,0.1,0.3s0,0.2-0.1,0.3C25.7,134.6,25.6,134.7,25.5,134.7z M25.9,139.6h-0.7v-4.3h0.7V139.6z
			"/>
		<path class="st3" d="M30.6,139.6h-0.7v-0.5c-0.4,0.4-0.8,0.6-1.4,0.6c-0.4,0-0.8-0.1-1.1-0.4c-0.3-0.3-0.5-0.6-0.5-1.1
			c0-0.5,0.2-0.8,0.5-1.1c0.3-0.2,0.7-0.4,1.1-0.4c0.6,0,1.1,0.2,1.4,0.6v-0.8c0-0.3-0.1-0.5-0.3-0.7c-0.2-0.2-0.5-0.2-0.8-0.2
			c-0.5,0-1,0.2-1.3,0.6l-0.3-0.5c0.5-0.5,1-0.7,1.7-0.7c0.5,0,0.9,0.1,1.2,0.4c0.3,0.2,0.5,0.6,0.5,1.1V139.6z M28.7,139.2
			c0.5,0,0.9-0.2,1.2-0.5v-0.8c-0.3-0.4-0.7-0.5-1.2-0.5c-0.3,0-0.6,0.1-0.8,0.3c-0.2,0.2-0.3,0.4-0.3,0.7c0,0.3,0.1,0.5,0.3,0.7
			C28.2,139.2,28.4,139.2,28.7,139.2z"/>
	</g>
	<g>
		<path class="st3" d="M8.8,49.7c-1,0-1.7-0.3-2.3-1l0.4-0.6C7.5,48.7,8.1,49,8.8,49c0.5,0,0.8-0.1,1.1-0.3s0.3-0.4,0.3-0.7
			c0-0.2-0.1-0.4-0.2-0.5c-0.1-0.1-0.3-0.3-0.5-0.3s-0.4-0.2-0.7-0.2c-0.3-0.1-0.5-0.1-0.8-0.2s-0.5-0.2-0.7-0.3
			c-0.2-0.1-0.4-0.3-0.5-0.5c-0.1-0.2-0.2-0.5-0.2-0.7c0-0.5,0.2-0.9,0.6-1.2s0.9-0.5,1.5-0.5c0.9,0,1.6,0.3,2.1,0.8l-0.4,0.5
			c-0.4-0.5-1-0.7-1.7-0.7c-0.4,0-0.7,0.1-0.9,0.3c-0.2,0.2-0.3,0.4-0.3,0.7c0,0.2,0.1,0.4,0.3,0.5c0.2,0.1,0.4,0.2,0.7,0.3
			s0.5,0.1,0.9,0.2c0.3,0.1,0.6,0.2,0.9,0.3c0.3,0.1,0.5,0.3,0.7,0.5s0.3,0.5,0.3,0.9c0,0.5-0.2,0.9-0.5,1.3
			C10.1,49.5,9.6,49.7,8.8,49.7z"/>
		<path class="st3" d="M15.7,49.6H15V49c-0.2,0.2-0.4,0.4-0.7,0.5c-0.3,0.1-0.6,0.2-0.9,0.2c-0.9,0-1.4-0.5-1.4-1.4v-3.1h0.7v2.9
			c0,0.4,0.1,0.6,0.2,0.8c0.2,0.2,0.4,0.2,0.7,0.2c0.3,0,0.5-0.1,0.7-0.2c0.2-0.1,0.4-0.3,0.6-0.5v-3.2h0.7V49.6z"/>
		<path class="st3" d="M20.9,49.6h-0.7v-0.6c-0.4,0.5-0.9,0.8-1.5,0.8c-0.6,0-1-0.2-1.4-0.6c-0.4-0.4-0.5-1-0.5-1.7
			c0-0.7,0.2-1.2,0.5-1.7s0.8-0.6,1.4-0.6c0.6,0,1.1,0.3,1.5,0.8v-2.3h0.7V49.6z M18.9,49.1c0.3,0,0.5-0.1,0.8-0.2
			c0.2-0.1,0.4-0.3,0.5-0.5v-2c-0.1-0.2-0.3-0.4-0.6-0.5c-0.2-0.1-0.5-0.2-0.8-0.2c-0.4,0-0.8,0.2-1,0.5s-0.4,0.7-0.4,1.2
			s0.1,0.9,0.4,1.2S18.5,49.1,18.9,49.1z"/>
		<path class="st3" d="M25.6,49.6H25v-0.5c-0.4,0.4-0.8,0.6-1.4,0.6c-0.4,0-0.8-0.1-1.1-0.4C22.2,49,22,48.7,22,48.2
			c0-0.5,0.2-0.8,0.5-1.1c0.3-0.2,0.7-0.4,1.1-0.4c0.6,0,1.1,0.2,1.4,0.6v-0.8c0-0.3-0.1-0.5-0.3-0.7c-0.2-0.2-0.5-0.2-0.8-0.2
			c-0.5,0-1,0.2-1.3,0.6l-0.3-0.5c0.5-0.5,1-0.7,1.7-0.7c0.5,0,0.9,0.1,1.2,0.4c0.3,0.2,0.5,0.6,0.5,1.1V49.6z M23.8,49.2
			c0.5,0,0.9-0.2,1.2-0.5v-0.8c-0.3-0.4-0.7-0.5-1.2-0.5c-0.3,0-0.6,0.1-0.8,0.3c-0.2,0.2-0.3,0.4-0.3,0.7c0,0.3,0.1,0.5,0.3,0.7
			C23.2,49.1,23.5,49.2,23.8,49.2z"/>
		<path class="st3" d="M30.6,49.6h-0.7v-2.8c0-0.4-0.1-0.6-0.3-0.8s-0.4-0.2-0.7-0.2c-0.3,0-0.5,0.1-0.7,0.2
			c-0.2,0.1-0.4,0.3-0.6,0.5v3.2H27v-4.3h0.7v0.6c0.2-0.2,0.4-0.4,0.7-0.5s0.6-0.2,0.9-0.2c0.9,0,1.4,0.5,1.4,1.4V49.6z"/>
	</g>
	<g>
		<path class="st3" d="M19.1,75.9h-0.7v-2.8h-3.5v2.8h-0.7v-6h0.7v2.6h3.5v-2.6h0.7V75.9z"/>
		<path class="st3" d="M23.9,75.9h-0.7v-0.5c-0.4,0.4-0.8,0.6-1.4,0.6c-0.4,0-0.8-0.1-1.1-0.4c-0.3-0.3-0.5-0.6-0.5-1.1
			c0-0.5,0.2-0.8,0.5-1.1c0.3-0.2,0.7-0.4,1.1-0.4c0.6,0,1.1,0.2,1.4,0.6V73c0-0.3-0.1-0.5-0.3-0.7S22.5,72,22.1,72
			c-0.5,0-1,0.2-1.3,0.6l-0.3-0.5c0.5-0.5,1-0.7,1.7-0.7c0.5,0,0.9,0.1,1.2,0.4c0.3,0.2,0.5,0.6,0.5,1.1V75.9z M22,75.5
			c0.5,0,0.9-0.2,1.2-0.5v-0.8c-0.3-0.4-0.7-0.5-1.2-0.5c-0.3,0-0.6,0.1-0.8,0.3c-0.2,0.2-0.3,0.4-0.3,0.7c0,0.3,0.1,0.5,0.3,0.7
			C21.5,75.4,21.7,75.5,22,75.5z"/>
		<path class="st3" d="M25.6,70.9c-0.1,0-0.2,0-0.3-0.1c-0.1-0.1-0.1-0.2-0.1-0.3s0-0.2,0.1-0.3c0.1-0.1,0.2-0.1,0.3-0.1
			c0.1,0,0.2,0,0.3,0.1c0.1,0.1,0.1,0.2,0.1,0.3s0,0.2-0.1,0.3C25.8,70.9,25.7,70.9,25.6,70.9z M25.9,75.9h-0.7v-4.3h0.7V75.9z"/>
		<path class="st3" d="M28.4,76c-0.3,0-0.6-0.1-0.7-0.3c-0.2-0.2-0.2-0.4-0.2-0.8v-2.8h-0.7v-0.6h0.7v-1.2h0.7v1.2H29v0.6h-0.9v2.7
			c0,0.2,0,0.3,0.1,0.4c0.1,0.1,0.2,0.2,0.3,0.2c0.2,0,0.4-0.1,0.5-0.2l0.2,0.5C29,75.9,28.7,76,28.4,76z"/>
		<path class="st3" d="M30.3,70.9c-0.1,0-0.2,0-0.3-0.1c-0.1-0.1-0.1-0.2-0.1-0.3s0-0.2,0.1-0.3c0.1-0.1,0.2-0.1,0.3-0.1
			c0.1,0,0.2,0,0.3,0.1c0.1,0.1,0.1,0.2,0.1,0.3s0,0.2-0.1,0.3C30.5,70.9,30.4,70.9,30.3,70.9z M30.6,75.9h-0.7v-4.3h0.7V75.9z"/>
	</g>
	<g>
		<path class="st3" d="M16.2,106.5h-2.1v-6h2.1c0.9,0,1.7,0.3,2.2,0.9s0.9,1.3,0.9,2.2c0,0.9-0.3,1.6-0.9,2.2
			C17.8,106.2,17.1,106.5,16.2,106.5z M16.2,105.8c0.7,0,1.3-0.2,1.7-0.7c0.4-0.4,0.6-1,0.6-1.7c0-0.7-0.2-1.2-0.6-1.7
			c-0.4-0.4-1-0.7-1.7-0.7h-1.3v4.7H16.2z"/>
		<path class="st3" d="M24.8,106.5h-0.9l-1.5-2.4h-1.2v2.4h-0.7v-6h2.4c0.6,0,1,0.2,1.4,0.5c0.3,0.3,0.5,0.8,0.5,1.3
			c0,0.5-0.2,0.9-0.5,1.2s-0.7,0.5-1.1,0.5L24.8,106.5z M22.7,103.5c0.4,0,0.6-0.1,0.9-0.3c0.2-0.2,0.3-0.5,0.3-0.8
			s-0.1-0.6-0.3-0.8c-0.2-0.2-0.5-0.3-0.9-0.3h-1.6v2.3H22.7z"/>
		<path class="st3" d="M28.7,106.6c-0.9,0-1.6-0.3-2.2-0.9c-0.6-0.6-0.9-1.3-0.9-2.2s0.3-1.7,0.9-2.2c0.6-0.6,1.3-0.9,2.2-0.9
			c1,0,1.7,0.4,2.3,1.2l-0.6,0.4c-0.2-0.3-0.4-0.5-0.7-0.6s-0.6-0.2-0.9-0.2c-0.7,0-1.2,0.2-1.7,0.7s-0.7,1-0.7,1.8s0.2,1.3,0.7,1.8
			s1,0.7,1.7,0.7c0.3,0,0.7-0.1,0.9-0.2c0.3-0.2,0.5-0.4,0.7-0.6l0.6,0.4C30.4,106.2,29.7,106.6,28.7,106.6z"/>
	</g>
	<g>
		<path class="st0" d="M174.3,38.3h-6v-1.1c1.7-1.3,2.9-2.3,3.6-2.9c0.6-0.6,0.9-1.2,0.9-1.8c0-0.4-0.1-0.7-0.4-0.9
			s-0.7-0.3-1.1-0.3c-0.9,0-1.7,0.3-2.2,1l-0.8-1c0.4-0.4,0.8-0.8,1.4-1s1.1-0.3,1.7-0.3c0.8,0,1.6,0.2,2.2,0.7
			c0.6,0.5,0.9,1.1,0.9,1.9c0,0.7-0.3,1.4-0.9,2.1c-0.6,0.7-1.5,1.5-2.8,2.5h3.7V38.3z"/>
		<path class="st0" d="M179,38.3h-1.5v-6.4l-1.4,1.4l-0.9-0.9l2.4-2.4h1.3V38.3z"/>
		<path class="st0" d="M183.7,38.4c-1.3,0-2.4-0.4-3.1-1.3l0.8-1c0.6,0.7,1.3,1,2.2,1c0.5,0,0.9-0.1,1.2-0.4c0.3-0.3,0.5-0.6,0.5-1
			c0-0.5-0.2-0.8-0.5-1.1c-0.3-0.3-0.7-0.4-1.2-0.4c-0.7,0-1.3,0.2-1.8,0.7l-1-0.3v-4.7h5.5v1.3h-4v2.4c0.5-0.5,1.1-0.7,1.9-0.7
			c0.7,0,1.4,0.2,1.9,0.7c0.5,0.5,0.8,1.1,0.8,2c0,0.9-0.3,1.5-0.9,2.1C185.4,38.2,184.6,38.4,183.7,38.4z"/>
	</g>
	<g>
		<path class="st0" d="M174.3,66h-6v-1.1c1.7-1.3,2.9-2.3,3.6-2.9c0.6-0.6,0.9-1.2,0.9-1.8c0-0.4-0.1-0.7-0.4-0.9s-0.7-0.3-1.1-0.3
			c-0.9,0-1.7,0.3-2.2,1l-0.8-1c0.4-0.4,0.8-0.8,1.4-1s1.1-0.3,1.7-0.3c0.8,0,1.6,0.2,2.2,0.7c0.6,0.5,0.9,1.1,0.9,1.9
			c0,0.7-0.3,1.4-0.9,2.1c-0.6,0.7-1.5,1.5-2.8,2.5h3.7V66z"/>
		<path class="st0" d="M179,66h-1.5v-6.4l-1.4,1.4l-0.9-0.9l2.4-2.4h1.3V66z"/>
		<path class="st0" d="M185.2,65.8c-0.4,0.2-0.9,0.4-1.5,0.4c-0.6,0-1.1-0.1-1.5-0.4c-0.4-0.2-0.8-0.6-1-1c-0.3-0.4-0.5-0.9-0.6-1.4
			s-0.2-1-0.2-1.6c0-0.5,0.1-1.1,0.2-1.6s0.3-1,0.6-1.4c0.3-0.4,0.6-0.7,1-1c0.4-0.2,0.9-0.4,1.5-0.4c0.6,0,1.1,0.1,1.5,0.4
			c0.4,0.2,0.8,0.6,1,1s0.5,0.9,0.6,1.4c0.1,0.5,0.2,1,0.2,1.6c0,0.5-0.1,1.1-0.2,1.6c-0.1,0.5-0.3,1-0.6,1.4
			C186,65.2,185.7,65.5,185.2,65.8z M182.3,64c0.3,0.6,0.8,0.9,1.4,0.9s1.1-0.3,1.4-0.9c0.3-0.6,0.5-1.3,0.5-2.2
			c0-0.6-0.1-1.1-0.2-1.5c-0.1-0.4-0.3-0.8-0.6-1.1c-0.3-0.3-0.6-0.4-1.1-0.4c-0.4,0-0.8,0.1-1.1,0.4c-0.3,0.3-0.5,0.6-0.6,1.1
			c-0.1,0.4-0.2,0.9-0.2,1.5C181.9,62.7,182,63.4,182.3,64z"/>
	</g>
	<g>
		<path class="st0" d="M171.5,95.4h-1.5v-6.4l-1.4,1.4l-0.9-0.9l2.4-2.4h1.3V95.4z"/>
		<path class="st0" d="M176.2,95.5c-1.3,0-2.4-0.4-3.1-1.3l0.8-1c0.6,0.7,1.3,1,2.2,1c0.5,0,0.9-0.1,1.2-0.4c0.3-0.3,0.5-0.6,0.5-1
			c0-0.5-0.2-0.8-0.5-1.1c-0.3-0.3-0.7-0.4-1.2-0.4c-0.7,0-1.3,0.2-1.8,0.7l-1-0.3V87h5.5v1.3h-4v2.4c0.5-0.5,1.1-0.7,1.9-0.7
			c0.7,0,1.4,0.2,1.9,0.7c0.5,0.5,0.8,1.1,0.8,2c0,0.9-0.3,1.5-0.9,2.1C177.9,95.3,177.2,95.5,176.2,95.5z"/>
		<path class="st0" d="M183.7,95.5c-1.3,0-2.4-0.4-3.1-1.3l0.8-1c0.6,0.7,1.3,1,2.2,1c0.5,0,0.9-0.1,1.2-0.4c0.3-0.3,0.5-0.6,0.5-1
			c0-0.5-0.2-0.8-0.5-1.1c-0.3-0.3-0.7-0.4-1.2-0.4c-0.7,0-1.3,0.2-1.8,0.7l-1-0.3V87h5.5v1.3h-4v2.4c0.5-0.5,1.1-0.7,1.9-0.7
			c0.7,0,1.4,0.2,1.9,0.7c0.5,0.5,0.8,1.1,0.8,2c0,0.9-0.3,1.5-0.9,2.1C185.4,95.3,184.7,95.5,183.7,95.5z"/>
	</g>
	<g>
		<path class="st0" d="M15.4,152H14v-6.4l-1.4,1.4l-0.8-0.9l2.4-2.4h1.3V152z"/>
		<path class="st0" d="M20.3,152.2c-0.6,0-1.1-0.1-1.6-0.3s-0.8-0.5-1.1-0.9c-0.3-0.4-0.5-0.9-0.6-1.4c-0.1-0.5-0.2-1.1-0.2-1.7
			c0-1.3,0.3-2.3,1-3.1c0.6-0.8,1.5-1.2,2.7-1.2c1,0,1.8,0.3,2.4,0.9l-0.7,1.1c-0.5-0.5-1-0.7-1.7-0.7c-0.7,0-1.2,0.3-1.6,0.8
			c-0.4,0.5-0.6,1.2-0.6,1.9c0,0.1,0,0.2,0,0.2c0.2-0.3,0.5-0.6,0.9-0.8s0.8-0.4,1.3-0.4c0.8,0,1.5,0.2,2,0.7c0.5,0.5,0.8,1.1,0.8,2
			c0,0.8-0.3,1.5-0.9,2C21.9,151.9,21.2,152.2,20.3,152.2z M20.2,150.9c0.5,0,0.9-0.1,1.2-0.4c0.3-0.3,0.5-0.6,0.5-1
			c0-0.5-0.2-0.9-0.5-1.1c-0.3-0.3-0.7-0.4-1.2-0.4c-0.4,0-0.7,0.1-1,0.3s-0.6,0.4-0.8,0.7c0,0.5,0.2,1,0.5,1.4
			C19.2,150.7,19.6,150.9,20.2,150.9z"/>
		<path class="st0" d="M29.2,151.8c-0.4,0.2-0.9,0.4-1.5,0.4c-0.6,0-1.1-0.1-1.5-0.4c-0.4-0.2-0.8-0.6-1.1-1
			c-0.3-0.4-0.5-0.9-0.6-1.4c-0.1-0.5-0.2-1-0.2-1.6c0-0.5,0.1-1.1,0.2-1.6c0.1-0.5,0.3-1,0.6-1.4s0.6-0.7,1.1-1
			c0.4-0.2,0.9-0.4,1.5-0.4c0.6,0,1.1,0.1,1.5,0.4c0.4,0.2,0.8,0.6,1,1c0.3,0.4,0.5,0.9,0.6,1.4s0.2,1,0.2,1.6
			c0,0.5-0.1,1.1-0.2,1.6s-0.3,1-0.6,1.4C30,151.2,29.6,151.6,29.2,151.8z M26.3,150c0.3,0.6,0.8,0.9,1.4,0.9c0.6,0,1.1-0.3,1.4-0.9
			c0.3-0.6,0.5-1.3,0.5-2.2c0-0.6-0.1-1.1-0.2-1.5s-0.3-0.8-0.6-1.1c-0.3-0.3-0.6-0.4-1.1-0.4c-0.4,0-0.8,0.1-1.1,0.4
			c-0.3,0.3-0.5,0.6-0.6,1.1c-0.1,0.4-0.2,0.9-0.2,1.5C25.8,148.8,26,149.5,26.3,150z"/>
	</g>
	<g>
		<path class="st0" d="M15.5,119.1h-6V118c1.7-1.3,2.9-2.3,3.6-2.9c0.6-0.6,0.9-1.2,0.9-1.8c0-0.4-0.1-0.7-0.4-0.9
			c-0.3-0.2-0.7-0.3-1.1-0.3c-0.9,0-1.7,0.3-2.2,1l-0.8-1c0.4-0.4,0.8-0.8,1.4-1c0.5-0.2,1.1-0.3,1.7-0.3c0.8,0,1.6,0.2,2.1,0.7
			s0.9,1.1,0.9,1.9c0,0.7-0.3,1.4-0.9,2.1c-0.6,0.7-1.5,1.5-2.8,2.5h3.7V119.1z"/>
		<path class="st0" d="M20.3,119.3c-0.6,0-1.1-0.1-1.6-0.3s-0.8-0.5-1.1-0.9c-0.3-0.4-0.5-0.9-0.6-1.4c-0.1-0.5-0.2-1.1-0.2-1.7
			c0-1.3,0.3-2.3,1-3.1c0.6-0.8,1.5-1.2,2.7-1.2c1,0,1.8,0.3,2.4,0.9l-0.7,1.1c-0.5-0.5-1-0.7-1.7-0.7c-0.7,0-1.2,0.3-1.6,0.8
			c-0.4,0.5-0.6,1.2-0.6,1.9c0,0.1,0,0.2,0,0.2c0.2-0.3,0.5-0.6,0.9-0.8s0.8-0.4,1.3-0.4c0.8,0,1.5,0.2,2,0.7c0.5,0.5,0.8,1.1,0.8,2
			c0,0.8-0.3,1.5-0.9,2C21.9,119,21.2,119.3,20.3,119.3z M20.2,118c0.5,0,0.9-0.1,1.2-0.4c0.3-0.3,0.5-0.6,0.5-1
			c0-0.5-0.2-0.9-0.5-1.1c-0.3-0.3-0.7-0.4-1.2-0.4c-0.4,0-0.7,0.1-1,0.3s-0.6,0.4-0.8,0.7c0,0.5,0.2,1,0.5,1.4
			C19.2,117.8,19.6,118,20.2,118z"/>
		<path class="st0" d="M29.2,118.9c-0.4,0.2-0.9,0.4-1.5,0.4c-0.6,0-1.1-0.1-1.5-0.4c-0.4-0.2-0.8-0.6-1.1-1
			c-0.3-0.4-0.5-0.9-0.6-1.4c-0.1-0.5-0.2-1-0.2-1.6c0-0.5,0.1-1.1,0.2-1.6c0.1-0.5,0.3-1,0.6-1.4s0.6-0.7,1.1-1
			c0.4-0.2,0.9-0.4,1.5-0.4c0.6,0,1.1,0.1,1.5,0.4c0.4,0.2,0.8,0.6,1,1c0.3,0.4,0.5,0.9,0.6,1.4s0.2,1,0.2,1.6
			c0,0.5-0.1,1.1-0.2,1.6s-0.3,1-0.6,1.4C30,118.3,29.6,118.6,29.2,118.9z M26.3,117.1c0.3,0.6,0.8,0.9,1.4,0.9
			c0.6,0,1.1-0.3,1.4-0.9c0.3-0.6,0.5-1.3,0.5-2.2c0-0.6-0.1-1.1-0.2-1.5s-0.3-0.8-0.6-1.1c-0.3-0.3-0.6-0.4-1.1-0.4
			c-0.4,0-0.8,0.1-1.1,0.4c-0.3,0.3-0.5,0.6-0.6,1.1c-0.1,0.4-0.2,0.9-0.2,1.5C25.8,115.8,26,116.6,26.3,117.1z"/>
	</g>
	<g>
		<path class="st0" d="M15.7,87.8h-1.5v-6.4l-1.4,1.4L12,81.8l2.4-2.4h1.3V87.8z"/>
		<path class="st0" d="M22.6,87.3c-0.6,0.4-1.4,0.6-2.3,0.6c-0.9,0-1.7-0.2-2.3-0.6c-0.6-0.4-0.9-1-0.9-1.7c0-0.5,0.2-0.9,0.5-1.3
			c0.4-0.4,0.8-0.7,1.3-0.8c-0.5-0.2-0.9-0.4-1.3-0.7c-0.3-0.3-0.5-0.7-0.5-1.2c0-0.4,0.1-0.7,0.3-1c0.2-0.3,0.4-0.5,0.7-0.7
			c0.3-0.2,0.6-0.3,1-0.4c0.4-0.1,0.7-0.1,1.1-0.1c0.4,0,0.8,0,1.1,0.1c0.3,0.1,0.7,0.2,1,0.4c0.3,0.2,0.5,0.4,0.7,0.7
			c0.2,0.3,0.3,0.6,0.3,1c0,0.9-0.6,1.6-1.8,2c0.5,0.2,1,0.5,1.3,0.8c0.4,0.4,0.5,0.8,0.5,1.3C23.5,86.3,23.2,86.9,22.6,87.3z
			 M20.3,86.6c0.5,0,0.9-0.1,1.2-0.3c0.3-0.2,0.5-0.5,0.5-0.9c0-0.4-0.2-0.7-0.6-0.9c-0.4-0.2-0.8-0.4-1.1-0.4
			c-0.2,0-0.4,0.1-0.7,0.2c-0.2,0.1-0.5,0.2-0.7,0.4c-0.2,0.2-0.3,0.4-0.3,0.7c0,0.4,0.2,0.6,0.5,0.9C19.4,86.5,19.8,86.6,20.3,86.6
			z M20.3,82.9c0.2,0,0.4-0.1,0.7-0.2c0.2-0.1,0.4-0.2,0.6-0.4c0.2-0.2,0.3-0.4,0.3-0.6c0-0.3-0.1-0.6-0.4-0.8
			c-0.3-0.2-0.7-0.3-1.1-0.3c-0.5,0-0.8,0.1-1.1,0.3c-0.3,0.2-0.4,0.5-0.4,0.8c0,0.2,0.1,0.5,0.3,0.6c0.2,0.2,0.4,0.3,0.6,0.4
			C19.9,82.8,20.1,82.8,20.3,82.9z"/>
		<path class="st0" d="M27.8,87.9c-1.3,0-2.4-0.4-3.1-1.3l0.8-1c0.6,0.7,1.3,1,2.2,1c0.5,0,0.9-0.1,1.2-0.4c0.3-0.3,0.5-0.6,0.5-1
			c0-0.5-0.2-0.8-0.5-1.1c-0.3-0.3-0.7-0.4-1.2-0.4c-0.7,0-1.3,0.2-1.8,0.7l-1-0.3v-4.7h5.5v1.3h-4v2.4c0.5-0.5,1.1-0.7,1.9-0.7
			c0.7,0,1.4,0.2,1.9,0.7c0.5,0.5,0.8,1.1,0.8,2c0,0.9-0.3,1.5-0.9,2.1C29.5,87.6,28.8,87.9,27.8,87.9z"/>
	</g>
	<g>
		<path class="st0" d="M18.2,61.1h-1.5v-6.4L15.4,56l-0.9-0.9l2.4-2.4h1.3V61.1z"/>
		<path class="st0" d="M22.9,61.1h-1.5v-6.4L20.1,56l-0.9-0.9l2.4-2.4h1.3V61.1z"/>
		<path class="st0" d="M29.2,60.8c-0.4,0.2-0.9,0.4-1.5,0.4c-0.6,0-1.1-0.1-1.5-0.4c-0.4-0.2-0.8-0.6-1.1-1
			c-0.3-0.4-0.5-0.9-0.6-1.4c-0.1-0.5-0.2-1-0.2-1.6c0-0.5,0.1-1.1,0.2-1.6c0.1-0.5,0.3-1,0.6-1.4s0.6-0.7,1.1-1
			c0.4-0.2,0.9-0.4,1.5-0.4c0.6,0,1.1,0.1,1.5,0.4c0.4,0.2,0.8,0.6,1,1c0.3,0.4,0.5,0.9,0.6,1.4s0.2,1,0.2,1.6
			c0,0.5-0.1,1.1-0.2,1.6s-0.3,1-0.6,1.4C30,60.3,29.6,60.6,29.2,60.8z M26.3,59.1c0.3,0.6,0.8,0.9,1.4,0.9c0.6,0,1.1-0.3,1.4-0.9
			c0.3-0.6,0.5-1.3,0.5-2.2c0-0.6-0.1-1.1-0.2-1.5s-0.3-0.8-0.6-1.1c-0.3-0.3-0.6-0.4-1.1-0.4c-0.4,0-0.8,0.1-1.1,0.4
			c-0.3,0.3-0.5,0.6-0.6,1.1c-0.1,0.4-0.2,0.9-0.2,1.5C25.8,57.8,26,58.5,26.3,59.1z"/>
	</g>
	<g>
		<path class="st0" d="M16.3,36.8h-1.5v-6.4l-1.4,1.4l-0.8-0.9l2.4-2.4h1.3V36.8z"/>
		<path class="st0" d="M20.3,36.8h-1.6l3.2-7h-4.3v-1.3h6v1L20.3,36.8z"/>
		<path class="st0" d="M29.2,36.5c-0.4,0.2-0.9,0.4-1.5,0.4c-0.6,0-1.1-0.1-1.5-0.4c-0.4-0.2-0.8-0.6-1.1-1
			c-0.3-0.4-0.5-0.9-0.6-1.4c-0.1-0.5-0.2-1-0.2-1.6c0-0.5,0.1-1.1,0.2-1.6c0.1-0.5,0.3-1,0.6-1.4s0.6-0.7,1.1-1
			c0.4-0.2,0.9-0.4,1.5-0.4c0.6,0,1.1,0.1,1.5,0.4c0.4,0.2,0.8,0.6,1,1c0.3,0.4,0.5,0.9,0.6,1.4s0.2,1,0.2,1.6
			c0,0.5-0.1,1.1-0.2,1.6s-0.3,1-0.6,1.4C30,36,29.6,36.3,29.2,36.5z M26.3,34.8c0.3,0.6,0.8,0.9,1.4,0.9c0.6,0,1.1-0.3,1.4-0.9
			c0.3-0.6,0.5-1.3,0.5-2.2c0-0.6-0.1-1.1-0.2-1.5S29,30.3,28.8,30c-0.3-0.3-0.6-0.4-1.1-0.4c-0.4,0-0.8,0.1-1.1,0.4
			c-0.3,0.3-0.5,0.6-0.6,1.1c-0.1,0.4-0.2,0.9-0.2,1.5C25.8,33.5,26,34.2,26.3,34.8z"/>
	</g>
	<g>
		<path class="st0" d="M99.6,18.5c-0.6,0.4-1.4,0.6-2.3,0.6s-1.7-0.2-2.3-0.6s-0.9-1-0.9-1.7c0-0.5,0.2-0.9,0.5-1.3s0.8-0.7,1.3-0.8
			c-0.5-0.2-0.9-0.4-1.3-0.7c-0.3-0.3-0.5-0.7-0.5-1.2c0-0.4,0.1-0.7,0.3-1c0.2-0.3,0.4-0.5,0.7-0.7c0.3-0.2,0.6-0.3,1-0.4
			c0.4-0.1,0.7-0.1,1.1-0.1s0.8,0,1.1,0.1c0.3,0.1,0.7,0.2,1,0.4c0.3,0.2,0.5,0.4,0.7,0.7c0.2,0.3,0.3,0.6,0.3,1
			c0,0.9-0.6,1.6-1.8,2c0.5,0.2,1,0.5,1.3,0.8c0.4,0.4,0.5,0.8,0.5,1.3C100.5,17.5,100.2,18.1,99.6,18.5z M97.3,17.8
			c0.5,0,0.9-0.1,1.2-0.3c0.3-0.2,0.5-0.5,0.5-0.9c0-0.4-0.2-0.7-0.6-0.9c-0.4-0.2-0.8-0.4-1.1-0.4c-0.2,0-0.4,0.1-0.7,0.2
			s-0.5,0.2-0.7,0.4s-0.3,0.4-0.3,0.7c0,0.4,0.2,0.6,0.5,0.9C96.4,17.7,96.8,17.8,97.3,17.8z M97.3,14c0.2,0,0.4-0.1,0.7-0.2
			c0.2-0.1,0.4-0.2,0.6-0.4c0.2-0.2,0.3-0.4,0.3-0.6c0-0.3-0.1-0.6-0.4-0.8c-0.3-0.2-0.7-0.3-1.1-0.3c-0.5,0-0.8,0.1-1.1,0.3
			c-0.3,0.2-0.4,0.5-0.4,0.8c0,0.2,0.1,0.5,0.3,0.6c0.2,0.2,0.4,0.3,0.6,0.4C96.9,13.9,97.1,14,97.3,14z"/>
		<path class="st0" d="M104.8,19.1c-1.3,0-2.4-0.4-3.1-1.3l0.8-1c0.6,0.7,1.3,1,2.2,1c0.5,0,0.9-0.1,1.2-0.4c0.3-0.3,0.5-0.6,0.5-1
			c0-0.5-0.2-0.8-0.5-1.1c-0.3-0.3-0.7-0.4-1.2-0.4c-0.7,0-1.3,0.2-1.8,0.7l-1-0.3v-4.7h5.5v1.3h-4v2.4c0.5-0.5,1.1-0.7,1.9-0.7
			c0.7,0,1.4,0.2,1.9,0.7c0.5,0.5,0.8,1.1,0.8,2c0,0.9-0.3,1.5-0.9,2.1C106.6,18.8,105.8,19.1,104.8,19.1z"/>
	</g>
	<g>
		<g>
			<path class="st4" d="M161.2,56.6c-12.9-2.1-26.2-1.4-34.4,6.9"/>
			<g>
				<path class="st2" d="M126.8,63.4c0.3,0,0.7,0.2,0.9,0.4c-0.5-0.1-1,0-1.5,0.2c0.2-0.5,0.2-1,0.1-1.5
					C126.6,62.8,126.8,63.1,126.8,63.4z"/>
			</g>
		</g>
	</g>
	<g>
		<g>
			<path class="st5" d="M162.3,85.4c-14.8,2.2-26.8-3.6-31.8-10.1"/>
			<g>
				<path class="st2" d="M130.5,75.3c0,0.2-0.2,0.5-0.4,0.6c0.1-0.4,0.1-0.7,0-1.1c0.3,0.2,0.7,0.2,1.1,0.3
					C131,75.2,130.7,75.3,130.5,75.3z"/>
			</g>
		</g>
	</g>
	<g>
		<g>
			<path class="st6" d="M38.7,141.1c14.4,0.6,53.4-7.4,64.3-32.2"/>
			<g>
				<path class="st2" d="M103.1,109c-0.2,0.1-0.4,0-0.5-0.1c0.3-0.1,0.5-0.2,0.7-0.3c0,0.3,0.1,0.5,0.2,0.8
					C103.3,109.3,103.1,109.2,103.1,109z"/>
			</g>
		</g>
	</g>
	<g>
		<g>
			<path class="st7" d="M160.1,115.2c-10.1,2.1-27.6,3.9-35.5-10.1"/>
			<g>
				<path class="st2" d="M124.7,105.2c-0.2,0.5-0.8,1.1-1.2,1.4c0.4-0.8,0.6-1.8,0.5-2.7c0.7,0.6,1.7,0.8,2.6,1
					C126,105.1,125.3,105.3,124.7,105.2z"/>
			</g>
		</g>
	</g>
	<g>
		<g>
			<path class="st8" d="M38.7,24C57,24,75.5,35.1,88.6,61"/>
			<g>
				<path class="st2" d="M88.6,60.9c0.1-0.2,0.4-0.5,0.6-0.6c-0.2,0.4-0.3,0.8-0.3,1.2c-0.3-0.3-0.7-0.4-1.1-0.5
					C88,60.9,88.3,60.8,88.6,60.9z"/>
			</g>
		</g>
	</g>
	<g>
		<g>
			<path class="st9" d="M37.6,111.3c13,1.1,40.4-1.5,51-12.8"/>
			<g>
				<path class="st2" d="M88.5,98.6c-0.4,0-0.9-0.3-1.1-0.5c0.6,0.1,1.3,0,1.8-0.2c-0.2,0.6-0.2,1.2-0.1,1.9
					C88.8,99.4,88.5,99,88.5,98.6z"/>
			</g>
		</g>
	</g>
	<g>
		<g>
			<path class="st10" d="M37,55.7c14.4-4,23.2-1.8,35.6,11"/>
			<g>
				<path class="st2" d="M72.6,66.8c0-0.1,0.1-0.2,0.1-0.2c0,0.1,0,0.2,0,0.4c-0.1,0-0.2-0.1-0.4,0C72.4,66.8,72.5,66.8,72.6,66.8z"
					/>
			</g>
		</g>
	</g>
	<g>
		<g>
			<path class="st11" d="M37,77.7c9.3-5.3,27.8-5.5,44.2,3.5"/>
			<g>
				<path class="st2" d="M81.1,81.1c-0.1-0.3,0-0.6,0.1-0.9c0.1,0.4,0.2,0.9,0.5,1.2c-0.4-0.1-0.9,0.1-1.3,0.2
					C80.6,81.5,80.8,81.2,81.1,81.1z"/>
			</g>
		</g>
	</g>
	<g>
		<g>
			<line class="st12" x1="101.1" y1="24.6" x2="101.1" y2="50.8"/>
			<g>
				<path class="st2" d="M101.1,50.8c0.1-0.1,0.3-0.1,0.4-0.1c-0.2,0.1-0.3,0.3-0.4,0.5c-0.1-0.2-0.2-0.3-0.4-0.5
					C100.8,50.6,101,50.7,101.1,50.8z"/>
			</g>
		</g>
	</g>
	<g>
		<path class="st0" d="M171.1,125c-0.7,0-1.3-0.1-1.9-0.4s-1-0.6-1.3-1l0.8-1c0.3,0.3,0.6,0.6,1,0.7c0.4,0.2,0.8,0.3,1.3,0.3
			c0.5,0,1-0.1,1.3-0.3c0.3-0.2,0.5-0.5,0.5-0.9c0-0.8-0.6-1.2-1.9-1.2c-0.6,0-0.9,0-1,0v-1.3c0.1,0,0.4,0,1,0
			c0.5,0,0.9-0.1,1.2-0.3s0.5-0.5,0.5-0.8c0-0.4-0.2-0.7-0.5-0.9c-0.3-0.2-0.7-0.3-1.2-0.3c-0.8,0-1.5,0.3-2.1,0.9l-0.8-0.9
			c0.7-0.9,1.8-1.3,3-1.3c0.9,0,1.6,0.2,2.2,0.6c0.5,0.4,0.8,1,0.8,1.6c0,0.5-0.2,0.9-0.5,1.3c-0.4,0.3-0.8,0.5-1.3,0.6
			c0.5,0,0.9,0.2,1.3,0.6c0.4,0.4,0.6,0.8,0.6,1.4c0,0.7-0.3,1.3-0.9,1.8C172.8,124.7,172.1,125,171.1,125z"/>
		<path class="st0" d="M180.9,124.3c-0.6,0.4-1.4,0.6-2.3,0.6s-1.7-0.2-2.3-0.6s-0.9-1-0.9-1.7c0-0.5,0.2-0.9,0.5-1.3
			s0.8-0.7,1.3-0.8c-0.5-0.2-0.9-0.4-1.3-0.7c-0.3-0.3-0.5-0.7-0.5-1.2c0-0.4,0.1-0.7,0.3-1c0.2-0.3,0.4-0.5,0.7-0.7
			c0.3-0.2,0.6-0.3,1-0.4s0.7-0.1,1.1-0.1s0.8,0,1.1,0.1s0.7,0.2,1,0.4c0.3,0.2,0.5,0.4,0.7,0.7c0.2,0.3,0.3,0.6,0.3,1
			c0,0.9-0.6,1.6-1.8,2c0.5,0.2,1,0.5,1.3,0.8c0.4,0.4,0.5,0.8,0.5,1.3C181.8,123.4,181.5,123.9,180.9,124.3z M178.6,123.7
			c0.5,0,0.9-0.1,1.2-0.3c0.3-0.2,0.5-0.5,0.5-0.9c0-0.4-0.2-0.7-0.6-0.9c-0.4-0.2-0.8-0.4-1.1-0.4c-0.2,0-0.4,0.1-0.7,0.2
			c-0.2,0.1-0.5,0.2-0.7,0.4s-0.3,0.4-0.3,0.7c0,0.4,0.2,0.6,0.5,0.9S178.1,123.7,178.6,123.7z M178.6,119.9c0.2,0,0.4-0.1,0.7-0.2
			c0.2-0.1,0.4-0.2,0.6-0.4c0.2-0.2,0.3-0.4,0.3-0.6c0-0.3-0.1-0.6-0.4-0.8c-0.3-0.2-0.7-0.3-1.1-0.3c-0.5,0-0.8,0.1-1.1,0.3
			c-0.3,0.2-0.4,0.5-0.4,0.8c0,0.2,0.1,0.5,0.3,0.6c0.2,0.2,0.4,0.3,0.6,0.4C178.1,119.8,178.4,119.9,178.6,119.9z"/>
		<path class="st0" d="M186.1,125c-1.3,0-2.4-0.4-3.1-1.3l0.8-1c0.6,0.7,1.3,1,2.2,1c0.5,0,0.9-0.1,1.2-0.4s0.5-0.6,0.5-1
			c0-0.5-0.2-0.8-0.5-1.1s-0.7-0.4-1.2-0.4c-0.7,0-1.3,0.2-1.8,0.7l-1-0.3v-4.7h5.5v1.3h-4v2.4c0.5-0.5,1.1-0.7,1.9-0.7
			c0.7,0,1.4,0.2,1.9,0.7c0.5,0.5,0.8,1.1,0.8,2c0,0.9-0.3,1.5-0.9,2.1C187.8,124.7,187,125,186.1,125z"/>
	</g>
</g>
</svg>
