<?xml version="1.0" encoding="utf-8"?>
<!-- Generator: Adobe Illustrator 19.2.0, SVG Export Plug-In . SVG Version: 6.00 Build 0)  -->
<svg version="1.1" id="Layer_1" xmlns="http://www.w3.org/2000/svg" xmlns:xlink="http://www.w3.org/1999/xlink" x="0px" y="0px"
	 viewBox="0 0 215.8 152.7" style="enable-background:new 0 0 215.8 152.7;" xml:space="preserve">
<style type="text/css">
	.st0{fill:#0D92FF;}
	.st1{fill:none;stroke:#00325C;stroke-width:0.3031;stroke-miterlimit:10;}
	.st2{fill:#00325C;}
	.st3{fill:#787878;}
	.st4{fill:none;stroke:#00325C;stroke-width:0.4156;stroke-miterlimit:10;}
	.st5{fill:none;stroke:#00325C;stroke-width:0.4987;stroke-miterlimit:10;}
	.st6{fill:none;stroke:#00325C;stroke-width:0.6453;stroke-miterlimit:3;}
	.st7{fill:none;stroke:#00325C;stroke-width:0.4302;stroke-miterlimit:10;}
	.st8{fill:none;stroke:#00325C;stroke-width:0.4058;stroke-miterlimit:10;}
	.st9{fill:none;stroke:#00325C;stroke-width:0.6013;stroke-miterlimit:10;}
	.st10{fill:none;stroke:#00325C;stroke-width:0.3178;stroke-miterlimit:10;}
</style>
<g>
	<path class="st0" d="M153.5,139.2L153.5,139.2l-0.1,0l0,0.1L153.5,139.2L153.5,139.2l0,0.1L153.5,139.2L153.5,139.2L153.5,139.2
		L153.5,139.2L153.5,139.2L153.5,139.2z M153.4,139.5L153.4,139.5L153.4,139.5l0,0.1L153.4,139.5L153.4,139.5L153.4,139.5z
		 M67.2,56.6L67.2,56.6L67.2,56.6L67.2,56.6L67.2,56.6l0-0.1l0,0L67.2,56.6L67.2,56.6L67.2,56.6z M131.9,121.6l-0.1,0l-0.1,0.1
		l-0.1,0.1l-0.2,0.1l0,0.1l0,0.1l0.1,0l0.1-0.1l0.1,0l0.1-0.2L131.9,121.6l0.1,0.1l0-0.1L131.9,121.6L131.9,121.6z M63.5,81.4
		l-0.3-0.1l-0.2,0l-0.1,0l-0.1,0.1l0.1,0.2l0.6,0l0.2,0.1l-0.1-0.1L63.5,81.4z M64.7,78.8L64.7,78.8l-0.3-0.2l-0.1-0.1l0-0.2l0-0.2
		l0-0.1l-0.2-0.1l-0.1,0l-0.4,0l0.1,0.2l0.1,0.4l0.1,0.2l0.2-0.1l0.2,0.1l0.2,0.3l0.1,0.3l0.1,0.1l0-0.2l0-0.2L64.7,78.8z
		 M42.2,61.3L42.2,61.3L42.2,61.3L42,61.2l-0.2,0l-0.3,0.2v0.1l0.2-0.1l0.1,0l0,0.1l0,0l-0.1,0l0,0v0.1l0.1,0l0.4-0.2L42.2,61.3
		L42.2,61.3L42.2,61.3z M70,86.9L70,86.9l0-0.1l0-0.1l-0.1,0l-0.1,0l-0.4,0.1v0.1l0.1,0.1l0.3,0.4l0.1,0l0.4-0.1l0.8,0.5l0.4,0.1
		l0,0l0,0l0.1,0l0.1,0l0.1,0l-0.1-0.2l-0.1-0.2l-0.2-0.1l-0.8-0.1L70.3,87V87h0.1v-0.1l-0.2,0L70,87l-0.2,0l-0.1-0.2l0.1,0L70,86.9z
		 M129.9,121.9L129.9,121.9l-0.1,0.1l0,0l0,0l0,0l-0.1,0l-0.2,0l-0.1,0l0,0.1l0.2,0.1l0.1,0l0.1,0l0.1-0.1l0.1-0.1L129.9,121.9
		L129.9,121.9L129.9,121.9z M57.3,74.5L57.3,74.5l-0.4-0.3l0,0L56.7,74l-0.4-0.2l-0.1,0l-0.1-0.1h-0.1l0,0.1l-0.1,0.1l0,0.2l0.1,0.2
		l0.1,0.2l0,0.2l0.1,0.1l0.4,0.1l0.6,0.1l0.2-0.1l0-0.2l-0.1-0.1L57.3,74.5z M71.8,89.6l-0.1-0.1l-0.1,0l-0.1,0l-0.1,0l-0.2-0.2
		L71,89.1L70.7,89l-0.2,0l0.2,0.4l0.1,0.3l0,0.1l0,0.1l0.1,0.2l0.2,0.2l0.2,0.1l0.5,0.5l0.1,0.2l0.1,0.1l0.1,0.4l0.1,0.1l0.1-0.2
		l0.1-0.3l0.1-0.5l0-0.1l-0.1-0.1L72,90.3l-0.1-0.1l0-0.1v-0.1L71.8,90l0-0.1l0-0.1L71.8,89.6z M144.3,55.3l-1.2-0.7l-0.1,0l-0.4,0
		l-0.6-0.2l-0.1,0l-0.2,0.1l-0.1,0l-0.1,0l-0.2-0.1l-0.1,0l-0.1,0l-0.1,0l-0.1,0l-0.1,0l-0.1-0.1l-0.1-0.2l-0.1-0.1l-0.2-0.1
		l-0.3-0.1l-0.2-0.1l-0.1-0.1l-0.2-0.3l-0.1-0.1l0,0l0,0l0.1,0l-0.1-0.2l-0.1-0.1l-0.3,0l0-0.1l-0.2,0l-0.2,0.1l-0.1,0.1l0,0.1
		l-0.1,0.2l0,0.1l-0.1,0l-0.2,0l-0.1,0l0,0.1l-0.1,0.2l0,0l0,0l-0.2-0.1l-0.7,0l-0.1,0l-0.1-0.1l-0.3-0.2l0,0l-0.1,0.1l0,0.1l0,0.1
		l0,0.1l-0.2,0.2l-0.2-0.1l-0.1-0.3l0-0.4l-0.2,0l-0.5-0.3l-0.1,0l-0.2,0l-0.3-0.1l-0.1,0l0,0.2l0.1,0.2l0,0.2l-0.1,0.2l-0.1,0
		l-0.3-0.1l-0.3,0l-0.1,0l-0.1-0.2l0-0.1l0-0.2l0-0.2h0l-0.1,0.1l0,0l0,0l0-0.1l0,0l0-0.1l-0.1-0.2l0,0l-0.1,0l0,0l0,0l0-0.1l0-0.1
		l-0.5-0.5l-0.1-0.2l-0.1-0.1l0-0.1l0.1,0l0-0.1l0-0.1l-0.4-0.4l-0.1-0.1l0,0l0-0.1l0-0.1l0-0.1l-0.1-0.1l-0.7-0.4l-0.1,0l-0.1,0
		l-0.1,0.1l-0.1,0l-0.1,0l-0.2,0l-0.2-0.1l-0.4-0.3l-0.2-0.1l-0.2,0l-0.4,0l0,0.1l-0.2,0l-0.1,0l0,0.1v0.1l0,0.1l-0.1,0l-0.1,0.1
		l-0.1,0l-0.7,0l-0.1,0l-0.1-0.3l-0.1-0.1l-0.5-0.1l-0.2-0.1l-0.1-0.1l-0.2-0.3l-0.1,0l0,0l-0.2-0.1l-0.1,0l-0.1,0l-0.1,0.1l-0.1,0
		l0,0l-0.2,0l-0.2-0.1l-0.2,0h0l-0.2,0.1l-0.1,0.1v0l0,0.1l0,0l0,0l-0.1,0l-0.1,0l-0.1,0l-0.2-0.1l-0.1,0l0,0l-0.1,0.1l-0.1,0.1
		l-0.2,0.1l0,0l-0.2,0l0-0.1l0,0l0-0.1l0-0.1v-0.1l0-0.1l-0.4-0.7l-0.1-0.1l-0.2-0.1l0,0l0,0l0,0h0l0,0l0,0.1l0,0.1l0,0l0,0l-0.1,0
		l0,0v0l0-0.1l0-0.1l0-0.2v0l0,0l0.1,0l0,0l0,0l-0.1-0.2l-0.2-0.2l-0.2-0.2l-0.1,0l-0.1,0l-0.1,0l-0.2,0.1l-0.2-0.1l-0.1-0.1l0,0
		l-0.1-0.1l-0.2-0.3l-0.1-0.2l-0.1-0.1l-0.1,0l-0.2-0.1l-0.2-0.1l-0.3-0.3l-0.1-0.1l0,0l-0.1,0l-0.1,0l-0.2,0.1l-0.2,0.1l-0.1,0l0,0
		l-0.1,0l-0.1,0v0l-0.1-0.1l0-0.2v-0.2l0-0.1v0L119,45l0-0.1l0-0.1l0.1-0.1l0,0l0,0l0,0l0-0.1l0,0l0-0.1l0-0.1l0-0.1l0-0.1l-0.1-0.2
		l0,0v0l-0.2-0.1l-0.2-0.1h0l-0.1-0.2l0-0.2l0.2-0.5l0.1-0.2l0,0l0-0.1l0-0.1l0-0.1l0,0l0-0.1l0.1-0.2v0l0,0l0.1,0.1l0,0l0-0.1
		l0-0.1l0-0.2l0-0.1l0-0.2l-0.1-0.1l-0.2,0.1l-0.1,0l0-0.2l0,0l-0.2,0.1l-0.8,0.8l0,0.1l0,0.1l0,0.1l0,0l0,0l0,0l0,0l0,0l0,0.1
		l0,0.3l-0.1,0.2l0,0l-0.1,0.1l-0.1,0l0,0l-0.3,0.1l-0.3,0.1l-0.8,0.4l-0.2,0l-1-0.3l-0.2-0.1l-0.2,0l-0.4,0.1l-0.1,0l0,0l-0.4-0.2
		h0l0.1,0l0-0.1l0-0.1l0-0.1l0-0.1l0,0h0l0-0.1l0-0.1l0,0l0,0l0.1-0.1l0.1-0.1l0.1-0.1l0.1-0.1l0.1,0l0.1-0.1l0.1,0l0-0.1v0
		l-0.1-0.1l0-0.1l0,0l-0.1-0.5l-0.1,0l-0.1,0l-0.2,0.1l0,0l-0.1,0l0-0.2l0,0l0.1-0.3l0.1-0.2l0-0.2l0-0.1l0,0l0.1-0.1l0.2-0.1l0,0
		l0.1-0.1l0-0.1l0-0.1l0-0.1l-0.1-0.1l-0.1,0l0,0l-0.1,0l-0.1,0h0l0,0.1l0,0l0,0h0l0,0l0,0l-0.1,0l0,0l-0.2-0.4l0-0.1l0,0l-0.2-0.1
		l-0.1-0.1l-0.1,0l-0.3-0.3l0,0l-0.1-0.1l-0.1,0l-0.1,0l-0.3,0.1l-0.2,0.1h-0.2l0,0l-0.1-0.1l-0.1-0.1l-0.1,0l-0.2-0.1l-0.3,0
		l-0.3,0l0,0l-0.1,0l-0.1,0.1l-0.1,0.2l0,0.1l0,0l0,0l0,0l0,0l0,0l0,0l0,0.1l-0.3-0.3l-0.1-0.5l0-0.6l-0.1-0.5l-0.1-0.2l-0.2-0.1
		l-0.2-0.1l-0.2,0l-0.5,0h0l-0.1-0.1h0l0.1-0.1l0,0l0-0.1l-0.1-0.1l0,0l-0.1,0l-0.1,0l0,0l-0.1,0l0,0l0,0l0,0l0,0l-0.1,0.1l-0.3,0.1
		l-0.1,0l-0.1,0l-0.1,0l-0.1,0l-0.3-0.2l-0.1-0.1l-0.1-0.1l0,0l0-0.1l0-0.4l-0.2-0.7l-0.1-0.4l0.1-0.1l0.1-0.1l0-0.1l-0.1-0.2
		l-0.1-0.1l0,0l-0.1,0v0l-0.1,0l-0.1-0.1l-0.1-0.2l-0.1-0.2l0-0.1l-0.1-0.2l-0.1-0.1l-0.2,0l0,0l-0.4,0.1l-0.2,0.1l-0.1,0l-0.3,0.1
		l-0.1,0.1l-0.1,0.1l-0.1,0.1l-0.1,0.1l-0.1,0.2l-0.1,0.2l-0.1,0.1l0,0l-0.1,0l0,0l0,0l0,0l-0.5-0.2l-0.1,0l0,0l-0.1-0.1l0,0l0,0
		l-0.1-0.2l0-0.1l0,0l-0.3-0.2l-0.1-0.1l0-0.1h0l0-0.1l-0.1-0.1l0,0l-0.1,0l-0.1,0l-0.1,0l-0.1,0l0,0l0,0l0-0.1l0-0.1l0-0.1l0,0l0,0
		l0,0l-0.1,0l0,0l0,0v0l0,0l0,0l0.1-0.1l0-0.1l-0.1-0.3l-0.1-0.3l0-0.1l0.1-0.1l0.1-0.1l0,0l0,0l0-0.2l-0.1-0.2h0l-0.3-0.3l-0.1-0.2
		l0-0.1l-0.1-0.4l0,0l-0.1-0.2l-0.1,0.1l-0.3,0.2l-0.6,0.2l-0.5-0.1l-0.1,0l-0.1,0L98,30.7l-1.2,0.2L96.5,31l-0.1,0l-1.5,0.7
		l-0.2,0.2l-0.2,0.3l-0.1,0.1l-0.1,0.1l-0.2,0l-0.1,0l-0.2,0.2l0,0.1l0,0.2l0.1,0.5l0,0.3l0,0.2L93.8,34l-0.2,0.5l0,0.2l0,0.3
		l0.1,0.5l0,0.6l0,0.2l0.2,0.3l-0.2,0.2l0,0.5l0,0.6l-0.1,0.4v0.1l0.4,0.3v0.1l-0.3-0.1l-0.2,0.3l-0.1,0.5l0,0.4l0.1,0.1l0.3,0.2
		l0.1,0.2l0,0.1l0.1,0.1l0.2,0.1l0.2,0v0.1h-0.2l0,0.1l0,0.1l0.1,0l0.1,0v0.1l-0.1,0.1l-0.1,0l-0.8-0.4l-0.3,0L93,40.9l-0.2,0.6
		l-0.1,0.1l-0.1,0.1l-0.4,0.5l-1,0.8l-0.3,0.3l-0.2,0.1l-0.2,0.1l-3.2,1l-0.7,0l-0.6,0.2l-0.3,0.2l-0.3,0.1l-1,0.6l-0.1,0.1l-1,0.5
		l-0.1,0.1l-0.1,0l-0.4,0.3l-0.1,0.1l-0.3,1.1L82,48.7l0,0.1l0,0.1l0,0.1l0.1,0.1l0,0.1l0.1,0.1l0.2,0.1l0.2,0.1l0.1,0h0.2l0.6,0.2
		l0.6,0.1l0.6-0.1l0.6-0.3l-0.1,0.2L85,49.5l-0.4,0.2l-1.9,0.4l-0.5,0.4L82,50.8l-0.1,0.1l-0.2,0l-0.2,0.2l-0.4,0.2l-1.2,0.3
		l-0.2,0.2L79,51.3l-0.4-0.1l-0.2-0.2L78.2,51h-0.5l-0.3-0.1l-0.2,0L76.9,51l-0.2,0l-0.3-0.1L75,50.8l-0.9-0.4l-1-0.1l-0.1,0.1
		l-0.1,0.1l-0.1,0.2l0.1,0.1V51l-0.2,0l-0.1,0l-0.1-0.1l-0.1-0.1l-0.1,0l-0.1,0.1l-0.1,0l0-0.1l0,0l0-0.1l0-0.1l0-0.1l0-0.3L72.2,50
		l-0.6-0.7l-0.1-0.3l-0.1-0.2l-0.1-0.2l0-0.3l0-0.1l0.1,0l0.2,0l0-0.1l0-0.1l0-0.1l0.2-0.1l0-0.2l-0.2-0.4l0-0.2l0-0.1l-0.1,0
		l-0.9-0.2l-0.1,0l-0.4,0.1L70,46.8l-0.2,0.3l-0.1,0.1l-0.1,0.1l-0.1,0l-0.2-0.1l-0.1,0l-0.1,0L69,47.3l-0.1,0l-0.1,0l0-0.1l0-0.1
		l0,0l-0.1,0L68.1,47l-0.5-0.1l-0.2-0.1l0,0l-0.1,0l0,0l0-0.1l0-0.1l0-0.1l-0.1,0l-0.2,0l-0.1,0l-0.2-0.1l-0.1,0l-0.2,0l0,0.1l0,0.2
		L66.3,47l0.3,0.1l0.3,0l0.1,0.1l0,0.1l0.1,0.1l0.1,0.2l0,0.2l0,0.4l0,0.1l-0.2,0.2l0,0.2l0,0.1l0.2,0.2l0.1,0.1l0,0.1l0,0.1l0,0.1
		l0.1,0.2l0,0.1l0,0.1l0,0.2l0,0.4l0,0.2l0.1,0.1l0.1,0l0.1,0l0.1,0l0,0l0,0l0,0.1l0.2,0.1l0.2,0.2l0.1,0.1l0.1-0.2h0.1l0.1,0.2v0.1
		h-0.2l0.1,0.2l0.1,0.1l0.2,0.2l0,0l0,0l-0.1,0.1l0.1,0.1l0.1,0.4l0.1,0.1l0.1-0.2l0.2,0l0.2,0.1l0.2,0v0.1l-0.3-0.1l-0.1,0
		l-0.1,0.1l0,0.2l0,0.2l0.1,0.2l0.1,0.2l0-0.1l0,0l0.1,0.1l-0.2,0.1L69,53.6L69,53.7l0,0.2l0,0.1l0,0.1l0.1,0l0,0.1l0,0.1l0,0.3
		l0,0.1l0.1,0.1l0.1,0.1l0,0l0.1-0.2l0.1-0.1h0.2l0.1,0.1v0.1l-0.2-0.1l-0.1,0.1l-0.1,0.2l-0.1,0.7l0,0.1l0.1,0l0,0.1l0,0.1l0,0.1
		l-0.1-0.1L69.3,56l-0.1,0.6l-0.1,0.1l-0.1,0.1L69,56.9V57l0.2,0l0.1,0.2l0,0.3l0,0.3l0.1,0.3l0.3,0.3l0.1,0.3l0,0.1l0.1,0.1
		l0.3,0.1l0,0l0,0.1l0,0.1l0,0.1l0,0l0,0v0l0.3,0l0.2,0.1l0.1,0.2l-0.3-0.1l-0.8,0.2l-0.6-0.1l-0.1,0l-0.4,0.2L68,59.6l-0.6,0
		l-0.3-0.1l-0.2-0.2l0-0.3l0.2-0.3l-0.1-0.1l0-0.1l0-0.1l0-0.1l-0.8,0.2l0,0.1H66l-0.1,0l0,0.1v0.1l0,0l-0.1,0l-0.1,0.1l-0.1,0.1
		l0,0.1l0.1,0.1l0.1,0.3l0.1,0.1l0.1,0l0.1,0l0.1,0.1l0.1,0.1L66.1,60l0,0l0-0.1H66l0,0.2l0.1,0.2l0,0.1l0.2,0.2l-0.2,0.2L66,60.8
		l0-0.3l0-0.2l-0.2-0.3l0,0l0-0.1l-0.1,0l-0.1-0.1l0-0.1l0-0.1l-0.2-0.3l0-0.1l-0.4,0l-0.3,0.1l0.1,0.2l0,0.1l0.1,0.1l-0.1-0.1
		l-0.1,0l-0.1,0.1l-0.1,0.1l0.1,0.1l0,0v0.1L64.5,60l-0.1-0.1l0-0.1l0-0.2l0,0.1l0,0.1L64.3,60l-0.1,0l0-0.1l0-0.1l-0.1-0.1l-0.1,0
		l0-0.1l0-0.3l0-0.1l-0.2,0.1l-0.2,0.2l-0.1,0.1l-0.1-0.1l0.2-0.2l0-0.1l0-0.1l0-0.1l0.1,0v-0.1l-0.1,0l-0.1,0l-0.1-0.1l0-0.1
		l-0.1,0.2l-0.2,0.2l-0.2,0.2l-0.2,0.1l-0.1-0.2l-0.2,0l-0.3,0.1l0.2,0.1l0.1,0v0.1l-0.1,0.1l-0.5,0.3l-0.1,0l-0.1,0.1L61.4,60
		l-0.2,0.3L61,60.5l-0.1,0.1l-0.3,0l0,0.1l0,0.2l0,0.1l-0.1-0.1l-0.1-0.1l-0.1-0.1l-0.1,0l-0.1,0l0.1-0.1l0-0.1l0-0.1l0-0.1
		l-0.4-0.2l-0.2-0.1l-0.1,0l0,0l0-0.1l0-0.1l0-0.1l0-0.1l0-0.1l-0.1-0.3l-0.5-0.4l-0.1-0.1l-0.1-0.1l-0.1-0.1l-0.1-0.1v-0.1l0,0
		l0.1-0.1l0-0.1v-0.1l0-0.1l-0.2-0.1l-0.4,0l-0.2-0.1v-0.1h-0.1v-0.1l0.1-0.1l0.1,0l0.1,0v-0.1l0,0h0l0,0l0.1-0.1l-0.1-0.1l-0.1,0
		l-0.1,0l-0.1,0.1l-0.1,0l-0.2,0.2l-0.3,0.5h-0.1v-0.1l0.2-0.2l0.1-0.1l0.1-0.3l0.1-0.1L57.4,57V57l0.1-0.1l0-0.1l-0.1-0.1l-0.1-0.1
		l-0.1,0L57,56.8l-0.1,0l-0.1,0.1L56.7,57l-0.2,0.3l-0.1,0.1l0,0.1l0-0.1l0,0l0-0.1l0.1-0.1l0.1-0.2l0-0.2l-0.1-0.2l-0.1,0l-0.2,0.3
		l-0.1,0h-0.1l-0.1,0.1l-0.7,0.2l-0.1,0l-0.1,0.1l-0.1,0l-0.1,0l-0.2,0l0-0.1l0,0l0,0l0,0l-0.1,0L54.4,57l-0.2,0L54.1,57h0l0,0.1
		l-0.2,0.3l-0.2,0.1l-0.1,0.1l0,0.2l0.3,0.3l0.1,0.1l-0.4,0.1l0,0.1l0,0.2l0.1,0.3l-0.1,0.1l-0.2,0l-0.2-0.1l0-0.2l-0.3,0.1l-0.1,0
		l-0.1,0l-0.2-0.2l-0.1,0l-0.4,0l-0.1,0l-0.1-0.1l0,0.1l0,0.1l0,0.1l0,0.1l-0.1-0.1l-0.1,0.1l0,0.2l0,0.2l-0.1-0.1l0,0l0-0.1h0
		l0,0.2l0,0.1l0,0.1l-0.1,0.1l0.1,0.1l-0.1,0.1l-0.1-0.1l-0.2-0.1L51,59.1V59l0,0l0.1-0.1l-0.2,0l-0.1,0.1l-0.2,0.2l0-0.1l0-0.1
		l-0.1-0.1l-0.1-0.1v-0.1h0.1v-0.1l-0.1,0l0-0.1l0-0.1l0-0.1l0,0l-0.3,0.1l-0.2,0.1l-0.1,0l-0.1,0l0,0.1l0,0.1l0,0.1l-0.1,0.1h0
		l0-0.1l0-0.1h0l0,0.1l-0.1-0.1l-0.2,0l-0.2,0L49,58.7l-0.1,0.1L48.7,59l0,0.1l0.1,0v0.1h-0.1l-0.2-0.1l-0.1,0l-0.1,0l-0.2,0.1
		l-0.2,0l0.1-0.3l-0.1-0.2l-0.2,0L47.4,59l-0.2,0.1l-0.2,0v0.1l0,0l0.1,0.1l-0.2,0l-0.3,0.1l-0.2,0h-0.6v0.1l0.1,0l0,0l0,0l0,0
		l0.2,0.1l-0.1,0l-0.4-0.1l-0.1,0.1l0.1,0.2l0.2,0.2l-0.1,0l-0.3-0.1l-0.2,0l-0.2,0l-0.1,0l-0.1,0.1l0.1,0.1l-0.1,0l-0.1-0.1
		l-0.1,0.2l-0.2,0.4l-0.1,0.3l0.2,0.1v0.1l-0.1,0l-0.1,0.2l0,0.2l0,0.2l0.1,0.3l0,0.1l-0.1,0l0,0.2l0.1,0.1l0.1,0l0.4,0l0.1,0l0-0.1
		l0-0.1l0,0l0.2,0l0.3,0.1l0.1,0l0.2,0l0.2-0.1l0.4-0.1l0.5-0.3l0.2-0.1l0.5-0.1l0.2-0.1l0.2-0.1l0.1,0l-0.7,0.4l-0.1,0.1l-0.4,0.5
		v0.1l0.1,0l0.1,0l0.1,0l0.1-0.1l0.1,0.1l0,0l0,0l0,0l0.2,0l0.2-0.2l0.1,0.1l0-0.1l0-0.1l0-0.1h0.1v0.1h-0.1v0.1l0.1,0l0.2-0.1h0.1
		l-0.2,0.2L48,62.8l0,0l0,0l-0.1,0l0,0l-0.1,0.1l0.3,0l0,0l0,0.1l0.1,0l0.1,0l0.1-0.1l0,0.1l0.1,0l0.2,0v0.1l-0.6,0.1l-0.2-0.1
		l0.1,0l0,0l0,0l-0.5,0l-0.4,0.1l-0.1,0l-0.1,0l-0.1,0l-0.1-0.1l-0.1,0l-0.7,0l-0.2-0.1l0.1-0.4l-0.1-0.1L46,62.9l-0.1,0.4l0,0
		l0,0.1l0,0.1l-0.1,0l-0.1,0l-0.1,0l-0.1,0l-0.1,0l0,0.1l0,0.1l0.5,0l0.1,0l0.1,0.1l0,0L46,64l0,0.1l0,0.1l0,0.1l0.1,0.1l0,0.1
		L46,64.7l0.2-0.1l0.1-0.2l0.1-0.3l0.1-0.2l0.2-0.1l0.4,0.3l0.2-0.1l0,0.1l0,0.1l0,0.1l0.1,0l0.3,0.1l0.1,0.1l0,0.3l0,0.1l0.1,0.1
		l0,0.1l-0.1,0.3l0,0.1l-0.1,0l-0.4-0.1L45,66l0,0l-0.1-0.1l0,0l0,0l0,0l0,0l0,0.1l0,0.1l0,0.1l-0.1,0l0.6,0.2l0.3,0l0.1,0l0.2,0.2
		l0.1-0.1l0.1-0.1l0.1-0.1l0.1,0l0.7,0.5l0.4,0.5l0.1,0.2l0.1,0.3l0.1,0.3l0,0.2l0,0.1l-0.1,0h-0.1l0,0l0,0.1l0,0.2l0,0.1l1.1,0.1
		l0.2-0.1l0.1-0.1l0.3-0.2v-0.1h-0.2v-0.1l0,0l0,0l-0.1-0.1l0-0.1l0.1,0l0.1,0.3l0.1-0.1l0.1-0.1l0.1,0l0.1,0v-0.1l-0.1-0.1L49.3,68
		l0-0.2l0.1-0.1l0,0.2l0.1,0.2l0.1,0.1l0.1,0.1l0.1,0l0.1,0l0.2,0.2l0-0.1l0.1,0l0.1,0l0.1,0l0,0.1l0,0.1l-0.1,0l-0.1,0l0.2,0
		l0.2-0.2l0.1-0.2l-0.1-0.2l0.2,0l0.2,0.1l0.1,0.2l0,0.1l0.1,0.1l0,0l0.1,0l0,0.1l0,0.1l0.1,0l0.1,0.1l0.1,0.3l0,0l0.1,0l0.2,0
		l0.2,0l0.1,0.1l0.4-0.2l0.1,0l0.1,0.2l0.1,0.1l0.3,0l0,0l0.1,0.1l0.1,0l0.1,0l0.2,0l0.3,0.1l0.1,0l0.1-0.1l0,0.1l0,0l0.1,0.1
		l0.1,0.2l0.2,0.3l0,0.1l0.1,0l0.6-0.2V70l0-0.1l0,0l-0.1,0l0.2,0l0.2-0.1l0.2-0.2l0.2-0.2v0.1l-0.1,0.1l-0.1,0.1l-0.1,0.3l0,0
		l-0.1,0l0,0V70l0,0.1l0,0l-0.1,0v0.1l0.3,0l0.1,0l0.1,0.1v0.1l-0.3-0.1l-0.1,0l-0.1,0.1l0.2,0l0.3,0.1l0.2,0.1l0.2,0.3l0.1,0l0.1,0
		l0-0.1l0-0.1l0.1-0.1l-0.1-0.1l0,0l0.1,0l0.1-0.1l0.1,0l0.1,0.1l0,0l0,0l0,0l0,0l0-0.2l0-0.1l-0.1-0.1l-0.1,0l0.1,0l0.1,0.1l0.1,0
		l0.1-0.1h0l0,0.1l0,0.2l0,0l0.1,0l0,0V70l0,0.1l0,0.1l0,0.1l-0.6,0.3l-0.1,0.3l0,0.1l0,0.1l0.1,0l0.1,0l0.1,0l0.1,0.1l0.1,0.1
		l0.1,0.2l0,0.3l0,0.2L57,72.3l0,0.1l0,0.1l0.1,0.3h0l0.1-0.1l0.2,0l0.1,0l-0.2-0.2l-0.1-0.3l0-0.3l0.1-0.4l0,0l0,0l0,0l0.1-0.1
		l0.1,0l0.1,0.1l0.1,0.1l-0.1,0l-0.1,0l0.1,0.1l0.1,0l0.2-0.1l0.1,0.1l0,0l0.1,0l0-0.2l0-0.1l0.1,0l0,0.2l0,0.2l0.1,0l0-0.1l0-0.2
		l0.1,0.1l0.1,0.1l0.1,0.1l0.1,0l0.1,0.1l0,0l0,0l0,0l0-0.1l-0.1-0.1l-0.1-0.1l-0.1-0.1l0-0.1V71l0-0.1l0-0.1l0-0.1h0.1l0,0.1
		l0.1,0.1l0.1,0.1l0.1,0l-0.1,0.1l0,0.1l0,0.1l0,0.1h0.1l0,0l0,0l0.1,0v0.1h-0.1v0.1l0.3-0.1l0.2-0.1l0.1-0.1l0.1-0.1l0.4,0l0.2-0.1
		l-0.1-0.1l0.2,0l0.1,0.1l0.1,0.1L60,71.1l-0.2,0l0.4,0.2l0,0.1l0.1,0l0,0l0-0.1l-0.1-0.1l0.1,0l0-0.1l0-0.1L60.4,71v-0.1l0.2,0.2
		l0,0.2l-0.3,0.4l0.1,0.1L60.1,72l-0.2,0l-0.2-0.1l-0.1-0.1l0,0.2l0,0.1L59.4,72l-0.1,0l0,0l0,0.1h-0.1l-0.1-0.2h-0.2l-0.1,0.1
		l0.1,0.1l0,0.1l0,0l0,0l0.1,0l0.1,0l0,0.1l0,0l0.1,0.2l0,0l0.1,0.1l0.1,0.1l0.1,0l0.2,0l0.4-0.1l0.1,0l0.3,0.1l0.1-0.1l0-0.3
		l0.1,0.1l0.1,0l0.2,0l0-0.1l0,0l0,0l-0.1,0l0.1,0l0.1,0l0.1,0l0.1-0.1l-0.1,0.2l-0.1,0.1l-0.1,0.1l-0.1,0l0.1,0.1l0,0l0,0l0.1,0
		h0.3l0.3-0.1l0.1,0l0.1,0l0.6,0.2l0.1,0l0.2,0l0.1,0l-0.2,0l-0.3,0.1l-0.5,0L62,72.7l0.1,0.2L62.1,73l0.1,0.1l0.2,0l0.1,0.1
		l-0.1,0.2l0.1,0l0.2,0l0.1,0l0,0.1l-0.3,0.1l-0.1,0.1l-0.1-0.1l0,0l0,0l0-0.1l-0.1,0l-0.1,0l-0.1,0l-0.6,0.4l0.3,0.2l0.1,0.2l0,0.3
		H62l0-0.1l0,0l0-0.1l0,0l0,0l0.1,0l0.1,0.2l0.2,0.2l0.1,0.2l-0.1,0.2l-0.2,0l-0.3-0.2l-0.2,0v0.1l0.7,0.4l0.2,0l0,0l0-0.1l0-0.1
		l0.1-0.1l0.1,0l0.1,0l0.1,0l0.1,0.1l0.2,0.2l0.1,0.1l0.1,0.1l0.2,0l0.1-0.1l0.2-0.2l0.2-0.1l0.1-0.1l0-0.1l0-0.1l0.1-0.1l0.2-0.1
		l1.1-0.1l0.3,0.1l0.1,0.1l0.1,0l0.2,0l0.2,0.1l0.3,0.2l0.3,0.2l0.2,0.3l0.1,0.1l0.3,0.1l0.2,0.1l-0.4,0l-0.2-0.1l-0.2-0.2l-0.1-0.1
		l-0.3-0.1l-0.3-0.2v-0.1h0.2l-0.1-0.1l-0.1,0l-0.1,0h-0.1l0.1,0.1l-0.1,0L65.9,75l-0.1-0.1l-0.1-0.1l-0.1,0l-0.1,0l-0.1,0L64.9,75
		l-0.2,0.1l-0.1,0.1l-0.1,0.1l0,0.1l0,0.1l0,0.2l0.1,0.2l0,0.2l0,0.2l0,0.1l-0.1,0l-0.3,0l-0.1,0.1l-0.1,0.1L64,76.7l0.3,0.2
		l0.9,0.2l0.5,0.3l0.1,0.1l0.1,0.1l0.1,0.2l0,0.2L65.8,78l-0.1,0.2l-0.1,0.4l-0.1,0.2l-0.3,0.2l-0.1,0.1l0,0.2l-0.2,0.1l-0.1,0.1
		l0,0.2l0,0.2l0,0.2l0.1,0.2l0.1,0.1l0.2,0.1l0.2,0.2l0.4,0.5l0.2,0.5l0.1,0.1l0.1,0l0.1,0l0.1,0.1l0.1,0.3l0.1,0.1l0.1,0.1l0.1,0.1
		l0,0.1l0,0.2l0.1,0.1l0.1,0.1l0,0.2l0.2,0.8l0.1,0.1l0.1,0l0,0l0-0.1l0-0.2l0-0.1l0.1,0.1l0.1,0.2l0.1,0.1l0.1,0.1l0.2,0.1l0.3,0.2
		l0.4,0.1l0.1,0.1l-0.1,0.1l0.2,0.1l0.5,0l0.2,0l0.2,0.1l0.1,0.2l0,0.3l0.1,0.2l0.2,0l0.4-0.1l0.1,0l0.2,0.2l0.2,0.1l0.1,0l0.1,0
		l0.1,0.2l0.1,0.2l0.2,0.1l0-0.4l0.3-0.2l0.3,0l0.2,0.2l0,0.2l0,0.1l0,0.1l-0.1,0.1L72.2,87l-0.1,0.1l0,0.2l-0.1,0l-0.1,0.1L72,87.6
		l0,0.1l0.1,0.1l0.1,0l0.1,0l0.1,0l0.1,0l0,0l0,0l0,0.1l0,0.1l0,0l0.1,0l0.2,0.1l-0.1,0.1v0l0,0l0,0.1l0,0l0.1,0l0,0l0,0l0,0.1
		l0.1,0.2l0,0.1l0,0.1l0.1,0.1l0.1,0l0,0.1l0,0v0.1l-0.1,0.2l-0.1,0.1l-0.1,0l-0.2-0.1l0.1,0.4l0.1,0.1l0.1,0.1l0,0L73,90l0,0l0,0.1
		l0.1,0.1l0,0.1l0,0.1l0,0.1l0,0l-0.1,0l-0.1,0l-0.1,0.1l-0.1,0.1l0,0l0,0.1L72.5,91l-0.1,0l0.1,0.1l0.1,0.2l0,0.2l0,0.1l0,0.1
		l0.2,0.2l0.7,0.6l0.2,0.2l-0.5-0.3l-0.1-0.1L73,92.3l-0.5-0.6l-0.2,0l-0.5,0.2l0,0.1l-0.1,0.8l0.1,0.1l0.3-0.1l0.1,0.1l0.1,0.1
		l0.1,0.1l0.1,0.1l0.1,0l0.2,0.1l0.4,0.4l0.3,0.1l0,0l0,0.2l0,0l1.1,0.8l0.4,0.4l0.2,0.3l0.2,0.3l0.3,0.7l0.1,0.4l0.3,2.1l0.1,0.3
		l0.1,0.3l0.3,0.2l0.3,0.1l0.3,0.2l0.2,0.3l-0.2-0.1l-0.2-0.1l-0.2,0l-0.2,0l0.2,0.1l0.2,0.2l0.1,0.2l-0.1,0.3l0,0.1l0,0.3l0,0.2
		l-0.1-0.1l-0.1-0.2l0-0.2l0-0.2l0-0.2l0-0.1l-0.1-0.1l-0.1-0.1l-0.3-0.1l-0.3-0.3l-0.3-0.3l-0.3-0.6l0-0.1l-0.1-1l-0.1-0.4l0-0.2
		L75.5,97l-0.2-0.3l-0.9-1l-0.1,0l-0.3-0.2L73.3,95l-0.1-0.1l-0.1-0.1l0-0.1l0-0.1l0-0.1l0,0l0-0.1l0-0.1l0,0l-0.1,0l-0.1,0
		l-0.1,0.2L72.6,95l0,0.2l-0.1,2.3l-0.3,1.7l-0.5,5.4l0.1-0.1l0.1-0.3l0.1-0.5l0.4-0.5l0.1-0.1l0,0l0,0l0,0l0,0l0.1,0l0,0l0,0l0,0
		l0.1,0l0.6,0.5l0.1,0.2h-0.1l0.2,0.2l0,0.2l-0.2,0.1l-0.3,0l-0.5-0.1l-0.2,0l-0.2,0.2l-0.1,0.5l0,0.1l0,0.1l-0.2,0.3l0,0.1l0.1,0.3
		l0,0.2l-0.1,0.7l-0.2,1.5l-0.5,3.1l-0.3,1.4l-0.2,0.6l-0.3,1.8l-0.2,0.6l-0.1,0.3l-0.1,0.4l-0.1,0.1l-0.4,0.3l-0.1,0.1l0,0.1
		l-0.2,0.3l-0.1,0.1l-0.1,0.1l-0.2,0.1l-0.2,0.1l-0.7,0.1l-0.1,0.1l-0.1,0.1l-0.1-0.1l0,0.3l0,0.2l0,0.1l0.2,0.1l0.1,0.1l0,0.2
		l0,0.1l0.1,0l0.1,0l0.2,0l0.2-0.1l0.1,0l0.1,0.1l0.1,0.1l0,0.1l0,0.1l0,0.1l0.1,0.2l0,0l0.1,0l0.1,0l0.1,0l0.1,0l0-0.1l0.1-0.2
		l0.1-0.1l0.2,0l0.2,0.1l0.3,0.2l0.1,0l0.1,0h0.1l0.2,0.2l0,0.4l-0.1,0.4l-0.1,0.3l-0.1,0.1l-0.3,0.3l-0.1,0.1l0.1,0.2l0.1,0.2
		l0.2,0.1l0.2,0l0.2,0l0.1,0l0.1-0.1l0-0.3l0.1-0.2l0.1-0.2l0.2-0.1l0.2,0l-0.2,0.1l-0.1,0.1l0,0.1l0.1,0.2l0.1,0.1l0.5,0.1l0.3,0.1
		l0.3,0.2l0.3,0l0.1,0l0.1,0.1l0.1,0l0.3,0l0.1,0l0.1,0.1l0.3,0.2l0.3,0.1l0.6,0.1l0.6-0.1l0.2,0.1l0.1,0.4l0,0.1l0,0l0,0.1l0,0.1
		l0.1,0.1l0.1,0l0.1,0l0.1,0l0.3,0.2l0.1,0.1l0.3,0.4l0,0l0,0l0,0l0.1,0h0.1l0,0l0,0.1l0,0.1l0,0.1l0.1,0l0.1,0l0.1-0.1l0.1,0l0-0.3
		l0.2,0l0.4,0.2l0.2,0l0.2-0.1l0.4-0.3l0.1,0.1l0.1,0l0.1-0.1l0-0.1l0.1,0.1l0.5,0.3l0.1,0.2l0.2,0l0.2-0.1l0.1-0.1l0,0.2l0,0.2
		l0.1,0.2l0.1,0.1l0,0.1l0,0.1l0,0.1l0.1,0l0.1,0l0.1,0l0,0.1l0,0l0.3,0.1l0.3,0l0.6-0.2l0.5-0.1l0.1-0.1l0.1,0l0.4,0.1l0.1,0.1
		l0.2,0.3l0.1,0.1l0.1,0l0.2-0.3l0.1-0.1l0.1-0.1l0.2,0.2l0,0l0,0l0,0l0,0l0.2,0l0.2,0l0.3-0.1l0.1,0.1l1,0l0.3,0l0.1,0l0.1-0.1
		l0-0.2l-0.1-0.2l-0.1-0.1l-0.1,0l0-0.1l0,0l0.1,0l-0.1-0.1l0.1-0.3l0-0.2l0-0.2l0.2-0.1l0.2,0l0.1,0l0.3,0.1l0.1,0l0.2,0l0.1,0
		l0.3,0.2l0.2,0.1l0.1,0.1l0.1,0.1l0.1,0l0.1,0l0.1-0.1l0.1,0l0.1,0l0.1,0.1l0.1,0l0.7,0l0.2,0.1l0.1,0.1l0.1,0.1l0.1,0.2l0.1,0.1
		l0.1,0.1l0.1,0l0.3-0.1l1,0l0.2,0l0,0.2l0,0l0.1,0l0.1,0l0.1,0.2l0.1,0.2l0.1,0.4l0.1,0.1l0.2-0.1l0.1-0.4l0.2,0l0.2-0.1l0.1,0
		l0.4,0.3l0.1,0l0.9,0.1l-0.1,0.2l0.1,0.1l0.2,0.1l0.1,0.1l-0.2,0l-0.1,0.1l-0.1,0.2l0,0.3l0,0l0,0l0,0l0,0l0.1,0.1l0.5,0.1l0.2,0.1
		L96,128l0.2,0l0.1,0l0.1,0.1l0.1,0.2l0.1,0.4l0.1,0.2l0.2,0.1l0.1,0.1l0.1,0l0.2,0l0.1,0l0.1-0.1l0.1-0.1l0.2-0.1l0-0.1l0.1-0.2
		l0-0.1l0.1-0.1l0.4,0l0.5-0.2l0.2,0l0.2,0.1l0.1,0.1l0.5,0.2l0.2,0.1l0.1,0l0.1,0.2l0.1,0.2l0.2,0.1l0.1,0l0.2,0.1l0.1,0l0.1,0
		l0.1,0l0.1-0.2l0.1-0.1l0.1,0l0.4,0.1l0.2,0l0.2,0l0,0L102,129l-0.1-0.2l0.1-0.1l0.3-0.3l0.1-0.1l0.2,0l0.3,0l0.2,0l0.1-0.1
		l0.2-0.2l0.1-0.1l0.1,0l0.1,0l0.1,0l0.3-0.2l0.2,0.1l0.1-0.1l0.1,0l0.2,0l0.1,0l0.1,0.1l0.1,0.1l0.1,0.1l0.1,0.1l0.2,0.1l0.2,0
		l0.2,0l0.5-0.1l0-0.1l0-0.3l-0.3-0.3l-0.5-0.5l-0.1-0.2l-0.1-0.8l0-0.1l0-0.1l0,0l-0.1,0l0,0l-0.1-0.1l0-0.1l0-0.1l0.1-0.1l0.1,0.1
		l0,0l0-0.1l0.1-0.5l0-0.2l0-0.2l0-0.2l0-0.1l-0.1,0l-0.2-0.1l-0.1,0l-0.1,0l-0.1-0.1l-0.1-0.1l-0.1-0.1l0.3-0.3l0.1,0l0-0.1l0-0.2
		l0-0.1l0.1,0l0.1,0.1l0.1,0l0.1-0.1l0-0.1l-0.2-0.2l-0.1-0.2l0-0.2l0.1-0.1l0.2,0l-0.1,0.2l0,0.1l0,0.1l0.1,0l0-0.1l0-0.1l0.1-0.1
		l0-0.1l0-0.1l0-0.3l0-0.1l0.1-0.2l0-0.1l-0.1-0.1l-0.1-0.1l-0.1-0.1l-0.1-0.3l0-0.1l0.1,0h0.2l0,0l-0.1,0.1l-0.1,0.1v0.1l0.1,0.1
		l0,0.1l0,0l0.1,0l0.2-0.3l0-0.1l0.1-0.1l0.2-0.2l0.1-0.1l0.1-0.2l0.1-0.1l0.1-0.2l1.1-0.8l0.3-0.1l0.2,0l0.3,0.2l0.2-0.1l0.6-0.8
		l0.3-0.2l0.9-0.5l1.6-1.3v-0.1l-0.3,0.1l-0.2,0.2l-0.4,0.5l-0.4,0.3l-0.3,0.1l-0.3,0v-0.1l0.7-0.3l0.1-0.1l0-0.2l0.1-0.1l0.5-0.4
		l0.2-0.1l0.5-0.1l0.4-0.3l0.2-0.1l0.4-0.1l-0.1,0.2l-0.1,0.1l-0.1,0.1l-0.2,0l-0.4,0l-0.2,0.1l-0.1,0.1l0.3-0.1l0.5-0.1l0.5,0
		l0.2,0.2l0,0l0.2,0.6l0,0.1l0.1,0.1l0.2,0.1l0.2,0l2.4,0.1l0.3,0.1l0.2,0.2l0,0.2l-0.1,0.2L117,118l0,0.1l0.2,0.1l0.3,0.1l1.1,0.1
		l0.3-0.1l-0.2-0.2l-0.2-0.2l-0.2-0.2l-0.1-0.4v-0.8l0-0.1l-0.2-0.4V116l0.1,0.1l0.1,0.2l0.1,0.2l0,0.2l0,0.2l0,0.6l0.1,0.3l0.3,0.2
		l0.3,0.2l0.3,0.1l-0.1-0.2l-0.1-0.1l0-0.1l0.1-0.1l0.1-0.1l0.2,0l0.1-0.1l0.2-0.1l0.4,0.2l0.2-0.1l0.2,0.1l0.2-0.1l0.1-0.2
		l-0.1-0.3l-0.1-0.1l-0.1-0.1l-0.1-0.1l0-0.2l0-0.1l0-0.1l0.1-0.1l0.1-0.1l0,0l0.1,0.2l0,0l0.2,0l0.1,0l0.2,0.1l0,0.1l0,0.1l0.1,0.2
		l0.2,0.2l0.2,0l0.2-0.1l0.2-0.2l0,0.3l-0.1,0.2l-0.2,0.2l-0.1,0.1l-0.2,0.1h-0.7l-0.2,0.1l-0.1,0.2l0,0.2l0.2,0.2l0.2,0.1l0.5,0
		l0.1,0l0.3,0.1l1-0.2l0.2,0.2v0.6l0,0.1l0.1,0.1l0.1,0l0,0l0,0.1l0,0.1l-0.1,0.2l-0.1,0.1l0,0.1l0.1,0.1l0.1,0l0.2,0l0.1,0.1l0.1,0
		l0.2,0l0.2,0l0.1,0.1l0,0l0.1,0l0.1-0.1l0.1-0.1l0.1,0l0.2,0.3l0.1,0.1l0.1,0l0,0l0,0l0.1,0l0,0l0,0l0-0.1l0,0l0.4,0l0.2,0.1l0,0.2
		l0.3,0.2l0.1,0l0.2,0l0.1,0l0,0.1l0.1,0l0.1,0l0.1,0l0,0l-0.3,0.1l-0.1,0.1l0,0.1l0.1,0.1l0.4,0.2l0.2,0l0.1-0.1l0-0.1l0.1-0.1
		l0.1,0l0.2,0v-0.1l-0.1-0.1l-0.2-0.2l-0.1-0.1l0.2-0.1l0.1,0l0.1,0l0,0.1l0,0.1l0,0.1l0.2-0.1l0.2,0l0.2,0.1l0.1,0.1l0.1,0l0.6,0
		l0.1,0v0.1l0,0.2l0,0l-0.3,0v0.1l0.1,0l0.5,0l0.1,0v-0.1h-0.1l-0.1,0l-0.1-0.1l0.1-0.2l0-0.2l0.1-0.1l0.2-0.1l0.1,0l0.5,0l0.1,0
		l0.1,0l0.1,0l0.1,0l0,0.1l0,0.1l0,0l0.3,0l0.1-0.1l-0.1-0.2l0-0.1l0-0.1l0-0.1l0.1-0.1l0.1-0.1l0.2,0l0.2-0.1l0.2-0.1l0.1,0l0.2,0
		l0.1,0l0.1-0.1l0.1-0.1l0.1-0.1l0.2,0l0.1,0.1l0,0.1l0,0.1l0,0.1l0.1,0l0.2-0.1l0.1,0l-0.1-0.1l0.3-0.3l0-0.1l0,0l0,0l0,0l0-0.1
		l0-0.1l0,0l0,0l0-0.1l0.1-0.2l0-0.1l-0.7,0l0,0l0-0.1l0.1-0.1l0.2-0.1l0.2,0l0.1-0.1l0-0.1l0.1-0.1l0.1-0.1l0.1,0l0.1-0.1l0.1-0.3
		l0.1-0.2l0.1-0.2l0.1-0.1l0.2,0.1l0.2,0.1l0.4,0l0,0l0-0.1l0,0l0,0.1l0,0l0,0l0.1,0l0,0l0,0l0-0.1l0,0h0.1l0,0l0,0l0.3-0.5l0,0l0,0
		l0-0.2l0,0l0.1-0.2l0.1-0.1l0.1-0.1l0.1-0.1l0.2,0.1l0.2-0.1l0.2-0.1l0.2-0.1l0,0l0,0.1l0,0.1l0.1,0l0,0l0,0l0-0.1l0-0.1l0-0.5
		l0-0.1l0.1,0l0.1-0.1l0.1-0.1l0.1,0l0.1,0l0.1,0l0.1,0l0.1-0.1l0.2-0.2l0.1-0.1l0.1,0l0.1,0l0.4,0l0,0.1l0,0l0.2,0l0-0.1l0-0.1
		l0.1-0.1l0.1,0l0-0.1l0.1-0.1l0.2-0.1l0.2,0.1l0.1-0.1l0.1,0l0.1,0l0.1,0l0,0l0.1,0l0,0l0-0.1l0,0l0,0l0,0h0l0.1-0.1l-0.2-0.5
		l0-0.3l0.1-0.2l0.3-0.4l0.2-0.3l0.4-0.3l0.2-0.2l0.1-0.1l0.1-0.2l0-0.1l0.1-0.1l0.1-0.1l0.1-0.1l0-0.2l-0.1-0.3l-0.2-0.2l-0.1-0.2
		l0.1-0.4l-0.2,0l-0.3,0.2l-0.2,0l-1.4,0.4l-0.3,0l-0.1,0l-0.1-0.1l0-0.1l-0.1-0.1l-0.1,0l-0.2,0l-0.1-0.1l-0.8-0.5l-0.3-0.1
		l-0.5-0.2l-0.1,0l-0.1,0l-0.1,0l-0.1,0l-0.1,0l-0.1-0.1l0-0.1l0-0.1l0-0.1l-0.1-0.1l-0.2-0.1l-0.1-0.1l0-0.1l-0.1-0.2l-0.1-0.1
		l-0.2-0.2l0,0l0-0.1l0-0.1l0-0.1l0.1-0.3l0.1-0.1l0.3-0.1l-0.2-0.2l-0.2-0.2l-0.2-0.3l0-0.3l0.1-0.1l0.4-0.3l0.3-0.5l0.1-0.1
		l-0.1-0.2l0.1-0.2l0.1-0.2l0.2-0.1l0.1,0l0.3,0.1l0.1,0l0-0.1l-0.2-0.4l0-0.1l0-0.3l-0.1-0.2l0,0l0-0.2l0,0l0-0.1l0,0l0,0l0-0.1
		l0-0.1l-0.1-0.2l-0.4-0.2l-0.1,0l-0.4,0.1l-0.1,0l-0.5-0.3l-0.3-0.2l-0.1-0.2l0-0.6l0-0.3l-0.2-0.2l-0.3,0l-0.1-0.1L133,100l0-0.1
		l0-0.1l0-0.1l-0.1-0.1l-0.1-0.2l0.1-0.1l0.1-0.1l0.3-0.2l0.1,0l0.1,0l0.1,0l0.1,0l0.1-0.1l0.1,0l0.3,0l0.3,0.2l0.3,0.1l0.3-0.1
		l0-0.1l0,0l0-0.1l0-0.1l0.1,0l0.2,0l0.1,0l0.1-0.1l0.1-0.2l0.1-0.1l0.3-0.1l0.3-0.1l0.1,0l0.1,0.1l0,0l0.1-0.1l0.1-0.3l0.2-0.2
		v-0.2l-0.1-0.2l0-0.3l0-0.1l0.3-0.3l0.2-0.3l0.1-0.2l0-0.1l-0.1,0l-0.3-0.1l-0.1-0.1l-0.1-0.1l-0.1-0.1l-0.1-0.1l-0.3-0.3l-0.4-0.2
		l-0.1-0.2l0-0.5l0-0.1l-0.1-0.1l0-0.1l0-0.1l0.1-0.2l0-0.1l0-0.2l-0.1-0.1l-0.3-0.1l-0.1-0.1l-0.2-0.2l-0.1,0l-0.2,0l-0.2-0.2
		l-0.2-0.2l-0.1-0.5l0-0.2l0-0.2l0-0.2l0.1-0.2l0.1-0.1l0.2,0v0l0,0l0-0.1l0,0l0,0l0.1,0l0,0l0.1,0l0.2,0l0.2,0l0.2-0.1l0.2-0.1
		l0.1-0.2l0-0.2l0.1-0.1l0.1-0.1l0.1-0.1l-0.1-0.1l0-0.1l-0.1-0.2l-0.1-0.2l0-0.1l0,0l-0.5-0.6l-0.2-0.1l-0.1,0l-0.1,0.1l-0.1,0
		l-0.1,0l-0.1-0.1l0,0l0,0l0-0.1l0,0l0-0.1l0-0.1l0,0l0-0.1l0.1-0.1l0.1-0.1l0-0.1l-0.1-0.1l-0.6-0.1l-0.1-0.2l0.1-0.4l0.1-0.4
		l0.3-0.5l-0.2-0.3l-0.3-0.3l-0.1-0.3l0-0.1l0.2-0.2l0.1-0.2l0-0.2l-0.1-0.1l-0.1-0.1l-1.2-0.3l-0.5,0l-0.5,0.1l-0.7,0.5l-0.3,0.1
		l-0.3,0l-0.2,0.1l-0.3,0.2l-0.2,0.3l-0.2,0.2l0,0.2l0,0.1l0.1,0.2l0,0l0.1,0.2l0,0l0.1,0l0.1-0.1l0.1,0l0,0.3l-0.2,0.2l-0.5,0.3
		l-0.4,0.5l-0.3,0.1l-0.3-0.1l-0.4,0l-0.4,0.1l-0.2,0.1l0.1-0.2l0.1-0.1l0-0.1l-0.1-0.2l-0.1-0.2l0-0.1l0.2-0.1l0.5-0.2l0,0h0l0.1,0
		l0,0l0,0l0.2-0.1l0-0.1l0-0.1l0-0.1l0.1-0.3l0-0.1l0.3-0.6l0-0.1l-0.1-0.2l-0.1-0.1l-0.4-0.3l0.1-0.1l0-0.1l0-0.1v-0.1l0,0l0,0
		l0-0.1v-0.1l0-0.1l0.1-0.1l0.3-0.5l0.3-0.3l-0.2-0.2l0-0.2l0.1-0.1l1-1l0.6-0.3l0.1-0.1l0.2-0.2l0.3-0.1l0.1-0.1l0.1-0.1l0-0.1
		l0-0.2l-0.1-0.1l0-0.1l0-0.1l0-0.1l0.1-0.4l0.1-0.1l0-0.1l0-0.2l0-0.1l-0.1-0.2l0-0.1l0.1-0.4l0.4-0.2l0.8-0.3l0.5-0.4l0.2-0.3
		l-0.1-0.2l0.1-0.2l0.1-0.1l0.2-0.1l0-0.1l0,0l0.1-0.1l0-0.2l0.2-0.1l0.5-0.5l0.2-0.2l0.2-0.2l0.5-0.4l0-0.3l0-0.2l0.1-0.2l0.1,0
		l0,0l0.1-0.2l0.1,0l0.1,0l0.1,0l0.1-0.1l-0.1-0.1l-0.1-0.1l-0.1-0.1l-0.1,0.1l-0.9,0.1l0-0.1l0.1-0.2l0.1-0.2l0.2-0.1l0-0.2l0.2,0
		l0.1-0.1l0.1-0.1l0.1-0.1l0-0.1l-0.1-0.2l0-0.1l0.1,0l0.1-0.1l0.1,0l0.1,0l0.1,0.1l0.2,0l0.4-0.1l0.2,0l0.1,0.1l0.1,0l0.2,0
		l-0.1,0.3l0,0.2l0.2,0.1l0.2,0.1l0,0l0,0l0,0l0.1,0l0.1,0l0.3-0.1l0.2,0l0.5,0l0.2-0.1l0.2-0.2l0-0.1l0-0.1l0-0.1l0,0l0-0.1v-0.1
		l0.1,0l0.1,0l0.1,0.1l0.1,0l0.1-0.1l0,0l0,0v0l0,0l-0.1-0.1l0,0l0,0l0,0l0.1,0l0.1,0l0-0.1l0-0.1l0,0l-0.1-0.1l0,0l0.3-0.3l0.2-0.1
		l0.3-0.1l0,0l0,0l0-0.1l0,0l0-0.1l0-0.1l0,0l0-0.1l-0.2-0.3l-0.1-0.1l-0.1-0.1l0-0.1l0-0.1l0-0.2l0-0.1L140,70l0-0.1l0-0.2
		l-0.1-0.4l0-0.2l0.1-0.4l0-0.1l0.1-0.1l0-0.1l0-0.2l0-0.1l0,0l0,0l0,0l0-0.1l0.1,0l0-0.1l0-0.1l0-0.1l0-0.2l0-0.2l0.2-0.2l0.1-0.1
		l0-0.4l-0.3-0.6l0-0.5l0-0.2l0.1-0.2l0.1-0.1l0.1-0.1l0-0.1l0-0.2l0.1-0.1l0.5-0.7l0.1-0.2l0-0.2l0-0.2l0.1-0.2l0.1-0.1l0.1-0.1
		l0.1-0.2l0-0.2l0-0.2l0-0.2l0-0.1l0-0.2l0.1-0.3l0-0.1l0.1-0.1l0.1-0.1l0-0.1l0-0.2l0-0.1l0.1-0.1l0.2-0.2v-0.1l-0.1-0.2V60
		l0.1-0.4l0.3-0.5l0.1-0.1l0.1,0l0.1-0.1l0.2-0.3l0.1-0.1l0.1-0.1l0.1-0.1l0-0.1l0-0.2l0-0.1l0.1,0l0.2,0l0.1,0l0,0l0-0.1l0-0.1
		l0-0.1l0,0l0,0l0.1,0l0.3-0.2l0,0l0.1-0.2l0.4-1l0.2-0.5l0.2-0.2l-0.1-0.1L144.3,55.3z M96.9,128L96.9,128L96.9,128l-0.3,0
		l-0.1-0.1l0-0.1l0.1-0.2l0.1,0l0.1,0.1l0.1,0.2L96.9,128L96.9,128z"/>
	<g>
		<g>
			<path class="st1" d="M159.4,27.8C144,28,122.6,43,116.6,58.6"/>
			<g>
				<path class="st2" d="M116.6,58.5c0.4-0.2,1-0.1,1.5,0c-0.7,0.2-1.4,0.5-1.9,1.1c0-0.7-0.3-1.4-0.7-2.1
					C115.9,57.7,116.4,58,116.6,58.5z"/>
			</g>
		</g>
	</g>
	<g>
		<path class="st3" d="M171.6,26.2h-0.9l-1.5-2.3h-1.2v2.3h-0.7v-5.9h2.4c0.5,0,1,0.2,1.3,0.5s0.5,0.8,0.5,1.3
			c0,0.5-0.1,0.9-0.4,1.2c-0.3,0.3-0.7,0.5-1.1,0.5L171.6,26.2z M169.6,23.2c0.3,0,0.6-0.1,0.8-0.3c0.2-0.2,0.3-0.5,0.3-0.8
			c0-0.3-0.1-0.6-0.3-0.8c-0.2-0.2-0.5-0.3-0.8-0.3h-1.5v2.2H169.6z"/>
		<path class="st3" d="M176.2,26.2h-0.7v-0.6c-0.2,0.2-0.4,0.4-0.7,0.5c-0.3,0.1-0.6,0.2-0.8,0.2c-0.9,0-1.4-0.5-1.4-1.4v-3h0.7v2.8
			c0,0.4,0.1,0.6,0.2,0.7s0.4,0.2,0.7,0.2c0.2,0,0.5-0.1,0.7-0.2c0.2-0.1,0.4-0.3,0.5-0.5v-3.1h0.7V26.2z"/>
		<path class="st3" d="M178.9,26.3c-0.7,0-1.3-0.2-1.7-0.7l0.3-0.5c0.1,0.2,0.3,0.3,0.6,0.4c0.3,0.1,0.5,0.2,0.8,0.2
			c0.3,0,0.6-0.1,0.7-0.2c0.2-0.1,0.3-0.3,0.3-0.5c0-0.2-0.1-0.3-0.3-0.4c-0.2-0.1-0.4-0.2-0.7-0.2c-0.3-0.1-0.5-0.1-0.8-0.2
			c-0.3-0.1-0.5-0.2-0.7-0.4c-0.2-0.2-0.3-0.4-0.3-0.7c0-0.3,0.1-0.6,0.4-0.9c0.3-0.2,0.7-0.4,1.2-0.4c0.6,0,1.2,0.2,1.6,0.6
			l-0.3,0.5c-0.3-0.4-0.7-0.5-1.3-0.5c-0.3,0-0.5,0.1-0.7,0.2c-0.2,0.1-0.3,0.3-0.3,0.5c0,0.2,0.1,0.3,0.3,0.4
			c0.2,0.1,0.4,0.2,0.7,0.2c0.3,0.1,0.5,0.1,0.8,0.2s0.5,0.2,0.7,0.4c0.2,0.2,0.3,0.4,0.3,0.7c0,0.4-0.1,0.7-0.4,0.9
			C179.8,26.2,179.4,26.3,178.9,26.3z"/>
		<path class="st3" d="M183,26.3c-0.7,0-1.3-0.2-1.7-0.7l0.3-0.5c0.1,0.2,0.3,0.3,0.6,0.4c0.3,0.1,0.5,0.2,0.8,0.2
			c0.3,0,0.6-0.1,0.7-0.2c0.2-0.1,0.3-0.3,0.3-0.5c0-0.2-0.1-0.3-0.3-0.4s-0.4-0.2-0.7-0.2c-0.3-0.1-0.5-0.1-0.8-0.2
			c-0.3-0.1-0.5-0.2-0.7-0.4c-0.2-0.2-0.3-0.4-0.3-0.7c0-0.3,0.1-0.6,0.4-0.9c0.3-0.2,0.7-0.4,1.2-0.4c0.6,0,1.2,0.2,1.6,0.6
			l-0.3,0.5c-0.3-0.4-0.7-0.5-1.3-0.5c-0.3,0-0.5,0.1-0.7,0.2S182,22.9,182,23c0,0.2,0.1,0.3,0.3,0.4c0.2,0.1,0.4,0.2,0.7,0.2
			c0.3,0.1,0.5,0.1,0.8,0.2s0.5,0.2,0.7,0.4c0.2,0.2,0.3,0.4,0.3,0.7c0,0.4-0.1,0.7-0.4,0.9C183.9,26.2,183.5,26.3,183,26.3z"/>
		<path class="st3" d="M186.1,21.3c-0.1,0-0.2,0-0.3-0.1c-0.1-0.1-0.1-0.2-0.1-0.3c0-0.1,0-0.2,0.1-0.3c0.1-0.1,0.2-0.1,0.3-0.1
			c0.1,0,0.2,0,0.3,0.1c0.1,0.1,0.1,0.2,0.1,0.3c0,0.1,0,0.2-0.1,0.3C186.3,21.3,186.2,21.3,186.1,21.3z M186.4,26.2h-0.7v-4.3h0.7
			V26.2z"/>
		<path class="st3" d="M191,26.2h-0.7v-0.5c-0.4,0.4-0.8,0.6-1.4,0.6c-0.4,0-0.7-0.1-1-0.4c-0.3-0.3-0.4-0.6-0.4-1
			c0-0.4,0.1-0.8,0.4-1c0.3-0.2,0.6-0.4,1-0.4c0.6,0,1.1,0.2,1.4,0.6v-0.8c0-0.3-0.1-0.5-0.3-0.7c-0.2-0.2-0.5-0.2-0.8-0.2
			c-0.5,0-0.9,0.2-1.3,0.6l-0.3-0.5c0.5-0.5,1-0.7,1.7-0.7c0.5,0,0.9,0.1,1.2,0.4c0.3,0.2,0.5,0.6,0.5,1.1V26.2z M189.2,25.8
			c0.5,0,0.9-0.2,1.2-0.5v-0.8c-0.3-0.4-0.6-0.5-1.2-0.5c-0.3,0-0.6,0.1-0.8,0.3c-0.2,0.2-0.3,0.4-0.3,0.7c0,0.3,0.1,0.5,0.3,0.7
			C188.6,25.7,188.9,25.8,189.2,25.8z"/>
	</g>
	<g>
		<path class="st3" d="M170.2,53.1c-0.9,0-1.6-0.3-2.2-0.8c-0.6-0.6-0.9-1.3-0.9-2.2s0.3-1.6,0.9-2.2c0.6-0.6,1.3-0.8,2.2-0.8
			c0.9,0,1.7,0.4,2.2,1.2l-0.6,0.3c-0.2-0.3-0.4-0.5-0.7-0.6s-0.6-0.2-0.9-0.2c-0.6,0-1.2,0.2-1.6,0.7c-0.4,0.4-0.6,1-0.6,1.7
			c0,0.7,0.2,1.3,0.6,1.7c0.4,0.4,1,0.7,1.6,0.7c0.3,0,0.6-0.1,0.9-0.2c0.3-0.2,0.5-0.4,0.7-0.6l0.6,0.3
			C171.8,52.7,171.1,53.1,170.2,53.1z"/>
		<path class="st3" d="M176.8,53h-0.7v-2.8c0-0.4-0.1-0.6-0.2-0.7c-0.2-0.1-0.4-0.2-0.7-0.2c-0.2,0-0.5,0.1-0.7,0.2
			c-0.2,0.1-0.4,0.3-0.5,0.5V53h-0.7v-5.9h0.7v2.2c0.2-0.2,0.4-0.4,0.7-0.5c0.3-0.1,0.6-0.2,0.9-0.2c0.9,0,1.4,0.5,1.4,1.4V53z"/>
		<path class="st3" d="M178.5,48.1c-0.1,0-0.2,0-0.3-0.1c-0.1-0.1-0.1-0.2-0.1-0.3c0-0.1,0-0.2,0.1-0.3c0.1-0.1,0.2-0.1,0.3-0.1
			c0.1,0,0.2,0,0.3,0.1c0.1,0.1,0.1,0.2,0.1,0.3c0,0.1,0,0.2-0.1,0.3C178.7,48.1,178.6,48.1,178.5,48.1z M178.8,53h-0.7v-4.3h0.7V53
			z"/>
		<path class="st3" d="M183.7,53H183v-2.8c0-0.4-0.1-0.6-0.2-0.8c-0.2-0.1-0.4-0.2-0.7-0.2c-0.2,0-0.5,0.1-0.7,0.2
			c-0.2,0.1-0.4,0.3-0.5,0.5V53h-0.7v-4.3h0.7v0.6c0.2-0.2,0.4-0.4,0.7-0.5c0.3-0.1,0.6-0.2,0.9-0.2c0.9,0,1.4,0.5,1.4,1.4V53z"/>
		<path class="st3" d="M188.3,53h-0.7v-0.5c-0.4,0.4-0.8,0.6-1.4,0.6c-0.4,0-0.7-0.1-1-0.4c-0.3-0.3-0.4-0.6-0.4-1
			c0-0.4,0.1-0.8,0.4-1c0.3-0.2,0.6-0.4,1-0.4c0.6,0,1.1,0.2,1.4,0.6v-0.8c0-0.3-0.1-0.5-0.3-0.7c-0.2-0.2-0.5-0.2-0.8-0.2
			c-0.5,0-0.9,0.2-1.3,0.6l-0.3-0.5c0.5-0.5,1-0.7,1.7-0.7c0.5,0,0.9,0.1,1.2,0.4c0.3,0.2,0.5,0.6,0.5,1.1V53z M186.5,52.6
			c0.5,0,0.9-0.2,1.2-0.5v-0.8c-0.3-0.4-0.6-0.5-1.2-0.5c-0.3,0-0.6,0.1-0.8,0.3c-0.2,0.2-0.3,0.4-0.3,0.7c0,0.3,0.1,0.5,0.3,0.7
			C185.9,52.5,186.2,52.6,186.5,52.6z"/>
	</g>
	<g>
		<path class="st3" d="M170.1,82.1h-2.7v-5.9h2.6c0.5,0,0.9,0.1,1.2,0.4c0.3,0.3,0.4,0.6,0.4,1.1c0,0.4-0.1,0.6-0.3,0.9
			c-0.2,0.2-0.4,0.4-0.7,0.5c0.3,0,0.6,0.2,0.8,0.5c0.2,0.3,0.3,0.6,0.3,1c0,0.5-0.2,0.9-0.5,1.1C171,81.9,170.6,82.1,170.1,82.1z
			 M169.9,78.7c0.3,0,0.6-0.1,0.7-0.3c0.2-0.2,0.3-0.4,0.3-0.7c0-0.3-0.1-0.5-0.3-0.7c-0.2-0.2-0.4-0.3-0.7-0.3h-1.8v1.9H169.9z
			 M169.9,81.4c0.3,0,0.6-0.1,0.8-0.3c0.2-0.2,0.3-0.4,0.3-0.7c0-0.3-0.1-0.5-0.3-0.7s-0.5-0.3-0.8-0.3h-1.8v2H169.9z"/>
		<path class="st3" d="M176.2,82.1h-0.7v-0.5c-0.4,0.4-0.8,0.6-1.4,0.6c-0.4,0-0.7-0.1-1-0.4c-0.3-0.3-0.4-0.6-0.4-1
			c0-0.4,0.1-0.8,0.4-1c0.3-0.2,0.6-0.4,1-0.4c0.6,0,1.1,0.2,1.4,0.6v-0.8c0-0.3-0.1-0.5-0.3-0.7c-0.2-0.2-0.5-0.2-0.8-0.2
			c-0.5,0-0.9,0.2-1.3,0.6l-0.3-0.5c0.5-0.5,1-0.7,1.7-0.7c0.5,0,0.9,0.1,1.2,0.4c0.3,0.2,0.5,0.6,0.5,1.1V82.1z M174.4,81.7
			c0.5,0,0.9-0.2,1.2-0.5v-0.8c-0.3-0.4-0.6-0.5-1.2-0.5c-0.3,0-0.6,0.1-0.8,0.3c-0.2,0.2-0.3,0.4-0.3,0.7c0,0.3,0.1,0.5,0.3,0.7
			C173.8,81.6,174.1,81.7,174.4,81.7z"/>
		<path class="st3" d="M181.1,82.1h-0.7v-2.8c0-0.4-0.1-0.6-0.2-0.8c-0.2-0.1-0.4-0.2-0.7-0.2c-0.2,0-0.5,0.1-0.7,0.2
			s-0.4,0.3-0.5,0.5v3.1h-0.7v-4.3h0.7v0.6c0.2-0.2,0.4-0.4,0.7-0.5c0.3-0.1,0.6-0.2,0.9-0.2c0.9,0,1.4,0.5,1.4,1.4V82.1z"/>
		<path class="st3" d="M184.1,83.8c-0.4,0-0.7,0-1-0.1c-0.3-0.1-0.5-0.3-0.8-0.5l0.3-0.5c0.3,0.4,0.8,0.6,1.4,0.6
			c0.4,0,0.7-0.1,1-0.3s0.4-0.5,0.4-1v-0.6c-0.2,0.2-0.4,0.4-0.6,0.5c-0.3,0.1-0.5,0.2-0.8,0.2c-0.6,0-1-0.2-1.4-0.6
			c-0.3-0.4-0.5-0.9-0.5-1.6s0.2-1.2,0.5-1.6c0.3-0.4,0.8-0.6,1.4-0.6c0.6,0,1.1,0.3,1.4,0.7v-0.6h0.7v4.1c0,0.7-0.2,1.1-0.6,1.4
			C185.2,83.6,184.7,83.8,184.1,83.8z M184.2,81.5c0.3,0,0.5-0.1,0.7-0.2c0.2-0.1,0.4-0.3,0.5-0.5V79c-0.1-0.2-0.3-0.4-0.5-0.5
			c-0.2-0.1-0.5-0.2-0.7-0.2c-0.4,0-0.8,0.1-1,0.4c-0.2,0.3-0.4,0.7-0.4,1.2c0,0.5,0.1,0.9,0.4,1.2
			C183.4,81.4,183.8,81.5,184.2,81.5z"/>
		<path class="st3" d="M188.1,82.1h-0.7v-5.9h0.7V82.1z"/>
		<path class="st3" d="M192.7,82.1h-0.7v-0.5c-0.4,0.4-0.8,0.6-1.4,0.6c-0.4,0-0.7-0.1-1-0.4c-0.3-0.3-0.4-0.6-0.4-1
			c0-0.4,0.1-0.8,0.4-1c0.3-0.2,0.6-0.4,1-0.4c0.6,0,1.1,0.2,1.4,0.6v-0.8c0-0.3-0.1-0.5-0.3-0.7c-0.2-0.2-0.5-0.2-0.8-0.2
			c-0.5,0-0.9,0.2-1.3,0.6l-0.3-0.5c0.5-0.5,1-0.7,1.7-0.7c0.5,0,0.9,0.1,1.2,0.4c0.3,0.2,0.5,0.6,0.5,1.1V82.1z M190.9,81.7
			c0.5,0,0.9-0.2,1.2-0.5v-0.8c-0.3-0.4-0.6-0.5-1.2-0.5c-0.3,0-0.6,0.1-0.8,0.3c-0.2,0.2-0.3,0.4-0.3,0.7c0,0.3,0.1,0.5,0.3,0.7
			C190.3,81.6,190.6,81.7,190.9,81.7z"/>
		<path class="st3" d="M197.8,82.1h-0.7v-0.6c-0.4,0.5-0.8,0.7-1.4,0.7c-0.6,0-1-0.2-1.4-0.6c-0.3-0.4-0.5-0.9-0.5-1.6
			c0-0.7,0.2-1.2,0.5-1.6c0.3-0.4,0.8-0.6,1.4-0.6c0.6,0,1.1,0.3,1.4,0.7v-2.3h0.7V82.1z M195.8,81.6c0.3,0,0.5-0.1,0.7-0.2
			c0.2-0.1,0.4-0.3,0.5-0.5V79c-0.1-0.2-0.3-0.4-0.5-0.5c-0.2-0.1-0.5-0.2-0.7-0.2c-0.4,0-0.7,0.2-1,0.5s-0.4,0.7-0.4,1.2
			c0,0.5,0.1,0.9,0.4,1.2C195.1,81.4,195.4,81.6,195.8,81.6z"/>
		<path class="st3" d="M201,82.2c-0.6,0-1.2-0.2-1.6-0.6c-0.4-0.4-0.6-1-0.6-1.6c0-0.6,0.2-1.1,0.6-1.6c0.4-0.4,0.9-0.6,1.5-0.6
			c0.6,0,1.1,0.2,1.5,0.6c0.4,0.4,0.6,1,0.6,1.6v0.2h-3.4c0,0.4,0.2,0.8,0.5,1c0.3,0.3,0.6,0.4,1.1,0.4c0.5,0,1-0.2,1.3-0.5l0.3,0.4
			C202.3,81.9,201.7,82.2,201,82.2z M202.3,79.7c0-0.4-0.1-0.7-0.4-1c-0.2-0.3-0.6-0.4-1-0.4c-0.4,0-0.8,0.1-1,0.4
			c-0.2,0.3-0.4,0.6-0.4,1H202.3z"/>
		<path class="st3" d="M205.4,82.2c-0.7,0-1.3-0.2-1.7-0.7L204,81c0.1,0.2,0.3,0.3,0.6,0.4c0.3,0.1,0.5,0.2,0.8,0.2
			c0.3,0,0.6-0.1,0.7-0.2s0.3-0.3,0.3-0.5c0-0.2-0.1-0.3-0.3-0.4c-0.2-0.1-0.4-0.2-0.7-0.2c-0.3-0.1-0.5-0.1-0.8-0.2
			c-0.3-0.1-0.5-0.2-0.7-0.4c-0.2-0.2-0.3-0.4-0.3-0.7c0-0.3,0.1-0.6,0.4-0.9c0.3-0.2,0.7-0.4,1.2-0.4c0.6,0,1.2,0.2,1.6,0.6
			l-0.3,0.5c-0.3-0.4-0.7-0.5-1.3-0.5c-0.3,0-0.5,0.1-0.7,0.2c-0.2,0.1-0.3,0.3-0.3,0.5c0,0.2,0.1,0.3,0.3,0.4
			c0.2,0.1,0.4,0.2,0.7,0.2s0.5,0.1,0.8,0.2c0.3,0.1,0.5,0.2,0.7,0.4c0.2,0.2,0.3,0.4,0.3,0.7c0,0.4-0.1,0.7-0.4,0.9
			C206.3,82,205.9,82.2,205.4,82.2z"/>
		<path class="st3" d="M211.7,82.1H211v-2.8c0-0.4-0.1-0.6-0.2-0.7c-0.2-0.1-0.4-0.2-0.7-0.2c-0.2,0-0.5,0.1-0.7,0.2
			c-0.2,0.1-0.4,0.3-0.6,0.5v3.1h-0.7v-5.9h0.7v2.2c0.2-0.2,0.4-0.4,0.7-0.5c0.3-0.1,0.6-0.2,0.9-0.2c0.9,0,1.4,0.5,1.4,1.4V82.1z"
			/>
	</g>
	<g>
		<path class="st3" d="M171.8,112.3h-0.9l-2.2-2.6l-0.6,0.7v2h-0.7v-5.9h0.7v3l2.6-3h0.9l-2.4,2.8L171.8,112.3z"/>
		<path class="st3" d="M175.7,111.7c-0.4,0.4-0.9,0.6-1.5,0.6c-0.6,0-1.1-0.2-1.5-0.6c-0.4-0.4-0.6-1-0.6-1.6c0-0.6,0.2-1.2,0.6-1.6
			c0.4-0.4,0.9-0.6,1.5-0.6c0.6,0,1.1,0.2,1.5,0.6c0.4,0.4,0.6,1,0.6,1.6C176.3,110.8,176.1,111.3,175.7,111.7z M173.2,111.3
			c0.3,0.3,0.6,0.5,1,0.5c0.4,0,0.8-0.2,1-0.5c0.3-0.3,0.4-0.7,0.4-1.2c0-0.5-0.1-0.8-0.4-1.2c-0.3-0.3-0.6-0.5-1-0.5
			c-0.4,0-0.8,0.2-1,0.5c-0.3,0.3-0.4,0.7-0.4,1.2C172.8,110.6,172.9,111,173.2,111.3z"/>
		<path class="st3" d="M178.7,112.4c-0.7,0-1.3-0.2-1.7-0.7l0.3-0.5c0.1,0.2,0.3,0.3,0.6,0.4c0.3,0.1,0.5,0.2,0.8,0.2
			c0.3,0,0.6-0.1,0.7-0.2c0.2-0.1,0.3-0.3,0.3-0.5c0-0.2-0.1-0.3-0.3-0.4c-0.2-0.1-0.4-0.2-0.7-0.2c-0.3-0.1-0.5-0.1-0.8-0.2
			s-0.5-0.2-0.7-0.4c-0.2-0.2-0.3-0.4-0.3-0.7c0-0.3,0.1-0.6,0.4-0.9c0.3-0.2,0.7-0.4,1.2-0.4c0.6,0,1.2,0.2,1.6,0.6L180,109
			c-0.3-0.4-0.7-0.5-1.3-0.5c-0.3,0-0.5,0.1-0.7,0.2c-0.2,0.1-0.3,0.3-0.3,0.5c0,0.2,0.1,0.3,0.3,0.4c0.2,0.1,0.4,0.2,0.7,0.2
			c0.3,0.1,0.5,0.1,0.8,0.2c0.3,0.1,0.5,0.2,0.7,0.4c0.2,0.2,0.3,0.4,0.3,0.7c0,0.4-0.1,0.7-0.4,0.9
			C179.7,112.3,179.2,112.4,178.7,112.4z"/>
		<path class="st3" d="M184.9,111.7c-0.4,0.4-0.9,0.6-1.5,0.6s-1.1-0.2-1.5-0.6c-0.4-0.4-0.6-1-0.6-1.6c0-0.6,0.2-1.2,0.6-1.6
			c0.4-0.4,0.9-0.6,1.5-0.6s1.1,0.2,1.5,0.6c0.4,0.4,0.6,1,0.6,1.6C185.4,110.8,185.2,111.3,184.9,111.7z M182.3,111.3
			c0.3,0.3,0.6,0.5,1,0.5c0.4,0,0.8-0.2,1-0.5c0.3-0.3,0.4-0.7,0.4-1.2c0-0.5-0.1-0.8-0.4-1.2c-0.3-0.3-0.6-0.5-1-0.5
			c-0.4,0-0.8,0.2-1,0.5c-0.3,0.3-0.4,0.7-0.4,1.2C181.9,110.6,182,111,182.3,111.3z"/>
		<path class="st3" d="M188.4,112.3h-0.7l-1.8-4.3h0.7l1.4,3.5l1.4-3.5h0.7L188.4,112.3z"/>
		<path class="st3" d="M194.2,111.7c-0.4,0.4-0.9,0.6-1.5,0.6c-0.6,0-1.1-0.2-1.5-0.6c-0.4-0.4-0.6-1-0.6-1.6c0-0.6,0.2-1.2,0.6-1.6
			c0.4-0.4,0.9-0.6,1.5-0.6c0.6,0,1.1,0.2,1.5,0.6c0.4,0.4,0.6,1,0.6,1.6C194.8,110.8,194.6,111.3,194.2,111.7z M191.6,111.3
			c0.3,0.3,0.6,0.5,1,0.5c0.4,0,0.8-0.2,1-0.5c0.3-0.3,0.4-0.7,0.4-1.2c0-0.5-0.1-0.8-0.4-1.2c-0.3-0.3-0.6-0.5-1-0.5
			c-0.4,0-0.8,0.2-1,0.5c-0.3,0.3-0.4,0.7-0.4,1.2C191.3,110.6,191.4,111,191.6,111.3z"/>
	</g>
	<g>
		<path class="st3" d="M9.8,24.3H8.9L8.4,23H5.5L5,24.3H4.1l2.4-5.9h0.9L9.8,24.3z M8.2,22.4l-1.2-3.2l-1.2,3.2H8.2z"/>
		<path class="st3" d="M11.2,24.3h-0.7v-5.9h0.7V24.3z"/>
		<path class="st3" d="M13.1,24.3h-0.7v-5.9h0.7v2.3c0.4-0.5,0.8-0.7,1.4-0.7c0.6,0,1,0.2,1.4,0.6c0.4,0.4,0.5,0.9,0.5,1.6
			c0,0.7-0.2,1.2-0.5,1.6c-0.3,0.4-0.8,0.6-1.4,0.6c-0.6,0-1.1-0.2-1.4-0.7V24.3z M13.1,23.2c0.1,0.2,0.3,0.3,0.5,0.5
			c0.2,0.1,0.5,0.2,0.7,0.2c0.4,0,0.8-0.2,1-0.5c0.2-0.3,0.4-0.7,0.4-1.2c0-0.5-0.1-0.9-0.4-1.2c-0.2-0.3-0.6-0.5-1-0.5
			c-0.3,0-0.5,0.1-0.7,0.2c-0.2,0.1-0.4,0.3-0.5,0.5V23.2z"/>
		<path class="st3" d="M20.9,24.3h-0.7v-0.5c-0.4,0.4-0.8,0.6-1.4,0.6c-0.4,0-0.7-0.1-1-0.4c-0.3-0.3-0.4-0.6-0.4-1
			c0-0.4,0.1-0.8,0.4-1c0.3-0.2,0.6-0.4,1-0.4c0.6,0,1.1,0.2,1.4,0.6v-0.8c0-0.3-0.1-0.5-0.3-0.7c-0.2-0.2-0.5-0.2-0.8-0.2
			c-0.5,0-0.9,0.2-1.3,0.6l-0.3-0.5c0.5-0.5,1-0.7,1.7-0.7c0.5,0,0.9,0.1,1.2,0.4c0.3,0.2,0.5,0.6,0.5,1.1V24.3z M19,24
			c0.5,0,0.9-0.2,1.2-0.5v-0.8c-0.3-0.4-0.6-0.5-1.2-0.5c-0.3,0-0.6,0.1-0.8,0.3C18.1,22.5,18,22.8,18,23c0,0.3,0.1,0.5,0.3,0.7
			C18.5,23.9,18.7,24,19,24z"/>
		<path class="st3" d="M25.7,24.3H25v-2.8c0-0.4-0.1-0.6-0.2-0.8c-0.2-0.1-0.4-0.2-0.7-0.2c-0.2,0-0.5,0.1-0.7,0.2
			c-0.2,0.1-0.4,0.3-0.5,0.5v3.1h-0.7v-4.3h0.7v0.6c0.2-0.2,0.4-0.4,0.7-0.5c0.3-0.1,0.6-0.2,0.9-0.2c0.9,0,1.4,0.5,1.4,1.4V24.3z"
			/>
		<path class="st3" d="M27.3,19.5c-0.1,0-0.2,0-0.3-0.1c-0.1-0.1-0.1-0.2-0.1-0.3c0-0.1,0-0.2,0.1-0.3c0.1-0.1,0.2-0.1,0.3-0.1
			c0.1,0,0.2,0,0.3,0.1c0.1,0.1,0.1,0.2,0.1,0.3c0,0.1,0,0.2-0.1,0.3C27.6,19.4,27.5,19.5,27.3,19.5z M27.7,24.3H27v-4.3h0.7V24.3z"
			/>
		<path class="st3" d="M32.3,24.3h-0.7v-0.5c-0.4,0.4-0.8,0.6-1.4,0.6c-0.4,0-0.7-0.1-1-0.4c-0.3-0.3-0.4-0.6-0.4-1
			c0-0.4,0.1-0.8,0.4-1c0.3-0.2,0.6-0.4,1-0.4c0.6,0,1.1,0.2,1.4,0.6v-0.8c0-0.3-0.1-0.5-0.3-0.7c-0.2-0.2-0.5-0.2-0.8-0.2
			c-0.5,0-0.9,0.2-1.3,0.6L29,20.7c0.5-0.5,1-0.7,1.7-0.7c0.5,0,0.9,0.1,1.2,0.4c0.3,0.2,0.5,0.6,0.5,1.1V24.3z M30.5,24
			c0.5,0,0.9-0.2,1.2-0.5v-0.8c-0.3-0.4-0.6-0.5-1.2-0.5c-0.3,0-0.6,0.1-0.8,0.3c-0.2,0.2-0.3,0.4-0.3,0.7c0,0.3,0.1,0.5,0.3,0.7
			C29.9,23.9,30.2,24,30.5,24z"/>
	</g>
	<g>
		<path class="st3" d="M95.3,6.6h-0.7V0.7h0.7V6.6z"/>
		<path class="st3" d="M97.3,6.6h-0.7V2.3h0.7V3c0.4-0.5,0.9-0.8,1.4-0.8v0.7c-0.1,0-0.2,0-0.3,0c-0.2,0-0.4,0.1-0.7,0.2
			c-0.2,0.1-0.4,0.3-0.5,0.5V6.6z"/>
		<path class="st3" d="M102.9,6.6h-0.7V6.1c-0.4,0.4-0.8,0.6-1.4,0.6c-0.4,0-0.7-0.1-1-0.4c-0.3-0.3-0.4-0.6-0.4-1
			c0-0.4,0.1-0.8,0.4-1c0.3-0.2,0.6-0.4,1-0.4c0.6,0,1.1,0.2,1.4,0.6V3.7c0-0.3-0.1-0.5-0.3-0.7s-0.5-0.2-0.8-0.2
			c-0.5,0-0.9,0.2-1.3,0.6l-0.3-0.5c0.5-0.5,1-0.7,1.7-0.7c0.5,0,0.9,0.1,1.2,0.4c0.3,0.2,0.5,0.6,0.5,1.1V6.6z M101,6.2
			c0.5,0,0.9-0.2,1.2-0.5V4.9c-0.3-0.4-0.6-0.5-1.2-0.5c-0.3,0-0.6,0.1-0.8,0.3C100.1,4.8,100,5,100,5.3c0,0.3,0.1,0.5,0.3,0.7
			S100.7,6.2,101,6.2z"/>
		<path class="st3" d="M105.8,6.7c-0.6,0-1-0.2-1.4-0.6c-0.3-0.4-0.5-0.9-0.5-1.6c0-0.7,0.2-1.2,0.5-1.6c0.3-0.4,0.8-0.6,1.4-0.6
			c0.3,0,0.6,0.1,0.8,0.2c0.3,0.1,0.5,0.3,0.6,0.5V2.3h0.7v5.9h-0.7V5.9C106.9,6.4,106.4,6.7,105.8,6.7z M106,6.1
			c0.3,0,0.5-0.1,0.7-0.2c0.2-0.1,0.4-0.3,0.5-0.5V3.5c-0.1-0.2-0.3-0.3-0.5-0.5c-0.2-0.1-0.5-0.2-0.7-0.2c-0.4,0-0.7,0.2-1,0.5
			c-0.2,0.3-0.4,0.7-0.4,1.2s0.1,0.9,0.4,1.2C105.2,6,105.6,6.1,106,6.1z"/>
	</g>
	<g>
		<path class="st3" d="M16.6,138.8c-1,0-1.7-0.3-2.3-0.9l0.4-0.6c0.5,0.6,1.1,0.8,1.8,0.8c0.5,0,0.8-0.1,1-0.3
			c0.2-0.2,0.3-0.4,0.3-0.7c0-0.2-0.1-0.4-0.2-0.5c-0.1-0.1-0.3-0.3-0.5-0.3s-0.4-0.2-0.7-0.2c-0.2-0.1-0.5-0.1-0.7-0.2
			c-0.2-0.1-0.5-0.2-0.7-0.3c-0.2-0.1-0.4-0.3-0.5-0.5c-0.1-0.2-0.2-0.4-0.2-0.7c0-0.5,0.2-0.9,0.6-1.2c0.4-0.3,0.9-0.5,1.4-0.5
			c0.9,0,1.6,0.3,2.1,0.8l-0.4,0.5c-0.4-0.5-1-0.7-1.7-0.7c-0.4,0-0.6,0.1-0.9,0.3c-0.2,0.2-0.3,0.4-0.3,0.7c0,0.2,0.1,0.4,0.3,0.5
			c0.2,0.1,0.4,0.2,0.6,0.3c0.3,0.1,0.5,0.1,0.8,0.2c0.3,0.1,0.6,0.2,0.8,0.3c0.3,0.1,0.5,0.3,0.6,0.5c0.2,0.2,0.3,0.5,0.3,0.9
			c0,0.5-0.2,0.9-0.5,1.2C17.9,138.6,17.4,138.8,16.6,138.8z"/>
		<path class="st3" d="M19.6,140.4l0.1-0.6c0.1,0,0.2,0.1,0.4,0.1c0.2,0,0.3,0,0.4-0.1c0.1-0.1,0.2-0.2,0.3-0.4l0.3-0.6l-1.8-4.3
			h0.7l1.4,3.5l1.4-3.5h0.7l-2.1,5.1c-0.2,0.6-0.7,0.9-1.2,0.9C19.9,140.4,19.7,140.4,19.6,140.4z"/>
		<path class="st3" d="M24.8,138.7h-0.7v-4.3h0.7v0.7c0.4-0.5,0.9-0.8,1.4-0.8v0.7c-0.1,0-0.2,0-0.3,0c-0.2,0-0.4,0.1-0.7,0.2
			c-0.2,0.1-0.4,0.3-0.5,0.5V138.7z"/>
		<path class="st3" d="M27.3,133.8c-0.1,0-0.2,0-0.3-0.1c-0.1-0.1-0.1-0.2-0.1-0.3c0-0.1,0-0.2,0.1-0.3c0.1-0.1,0.2-0.1,0.3-0.1
			c0.1,0,0.2,0,0.3,0.1c0.1,0.1,0.1,0.2,0.1,0.3c0,0.1,0,0.2-0.1,0.3C27.6,133.8,27.5,133.8,27.3,133.8z M27.7,138.7H27v-4.3h0.7
			V138.7z"/>
		<path class="st3" d="M32.3,138.7h-0.7v-0.5c-0.4,0.4-0.8,0.6-1.4,0.6c-0.4,0-0.7-0.1-1-0.4c-0.3-0.3-0.4-0.6-0.4-1
			c0-0.4,0.1-0.8,0.4-1c0.3-0.2,0.6-0.4,1-0.4c0.6,0,1.1,0.2,1.4,0.6v-0.8c0-0.3-0.1-0.5-0.3-0.7c-0.2-0.2-0.5-0.2-0.8-0.2
			c-0.5,0-0.9,0.2-1.3,0.6l-0.3-0.5c0.5-0.5,1-0.7,1.7-0.7c0.5,0,0.9,0.1,1.2,0.4c0.3,0.2,0.5,0.6,0.5,1.1V138.7z M30.5,138.3
			c0.5,0,0.9-0.2,1.2-0.5V137c-0.3-0.4-0.6-0.5-1.2-0.5c-0.3,0-0.6,0.1-0.8,0.3c-0.2,0.2-0.3,0.4-0.3,0.7c0,0.3,0.1,0.5,0.3,0.7
			C29.9,138.2,30.2,138.3,30.5,138.3z"/>
	</g>
	<g>
		<path class="st3" d="M11,48.8c-1,0-1.7-0.3-2.3-0.9l0.4-0.6c0.5,0.6,1.1,0.8,1.8,0.8c0.5,0,0.8-0.1,1-0.3c0.2-0.2,0.3-0.4,0.3-0.7
			c0-0.2-0.1-0.4-0.2-0.5c-0.1-0.1-0.3-0.3-0.5-0.3c-0.2-0.1-0.4-0.2-0.7-0.2c-0.2-0.1-0.5-0.1-0.7-0.2c-0.2-0.1-0.5-0.2-0.7-0.3
			c-0.2-0.1-0.4-0.3-0.5-0.5c-0.1-0.2-0.2-0.4-0.2-0.7c0-0.5,0.2-0.9,0.6-1.2c0.4-0.3,0.9-0.5,1.4-0.5c0.9,0,1.6,0.3,2.1,0.8
			l-0.4,0.5c-0.4-0.5-1-0.7-1.7-0.7c-0.4,0-0.6,0.1-0.9,0.3c-0.2,0.2-0.3,0.4-0.3,0.7c0,0.2,0.1,0.4,0.3,0.5
			c0.2,0.1,0.4,0.2,0.6,0.3c0.3,0.1,0.5,0.1,0.8,0.2c0.3,0.1,0.6,0.2,0.8,0.3c0.3,0.1,0.5,0.3,0.6,0.5c0.2,0.2,0.3,0.5,0.3,0.9
			c0,0.5-0.2,0.9-0.5,1.2S11.7,48.8,11,48.8z"/>
		<path class="st3" d="M17.8,48.7h-0.7v-0.6c-0.2,0.2-0.4,0.4-0.7,0.5c-0.3,0.1-0.6,0.2-0.8,0.2c-0.9,0-1.4-0.5-1.4-1.4v-3h0.7v2.8
			c0,0.4,0.1,0.6,0.2,0.7c0.2,0.1,0.4,0.2,0.7,0.2c0.2,0,0.5-0.1,0.7-0.2c0.2-0.1,0.4-0.3,0.5-0.5v-3.1h0.7V48.7z"/>
		<path class="st3" d="M22.8,48.7h-0.7v-0.6c-0.4,0.5-0.8,0.7-1.4,0.7c-0.6,0-1-0.2-1.4-0.6c-0.3-0.4-0.5-0.9-0.5-1.6
			c0-0.7,0.2-1.2,0.5-1.6c0.3-0.4,0.8-0.6,1.4-0.6c0.6,0,1.1,0.3,1.4,0.7v-2.3h0.7V48.7z M20.9,48.2c0.3,0,0.5-0.1,0.7-0.2
			s0.4-0.3,0.5-0.5v-1.9c-0.1-0.2-0.3-0.4-0.5-0.5c-0.2-0.1-0.5-0.2-0.7-0.2c-0.4,0-0.7,0.2-1,0.5c-0.2,0.3-0.4,0.7-0.4,1.2
			s0.1,0.9,0.4,1.2C20.1,48.1,20.5,48.2,20.9,48.2z"/>
		<path class="st3" d="M27.5,48.7h-0.7v-0.5c-0.4,0.4-0.8,0.6-1.4,0.6c-0.4,0-0.7-0.1-1-0.4c-0.3-0.3-0.4-0.6-0.4-1
			c0-0.4,0.1-0.8,0.4-1c0.3-0.2,0.6-0.4,1-0.4c0.6,0,1.1,0.2,1.4,0.6v-0.8c0-0.3-0.1-0.5-0.3-0.7c-0.2-0.2-0.5-0.2-0.8-0.2
			c-0.5,0-0.9,0.2-1.3,0.6L24.1,45c0.5-0.5,1-0.7,1.7-0.7c0.5,0,0.9,0.1,1.2,0.4c0.3,0.2,0.5,0.6,0.5,1.1V48.7z M25.6,48.3
			c0.5,0,0.9-0.2,1.2-0.5V47c-0.3-0.4-0.6-0.5-1.2-0.5c-0.3,0-0.6,0.1-0.8,0.3c-0.2,0.2-0.3,0.4-0.3,0.7c0,0.3,0.1,0.5,0.3,0.7
			C25.1,48.2,25.3,48.3,25.6,48.3z"/>
		<path class="st3" d="M32.3,48.7h-0.7v-2.8c0-0.4-0.1-0.6-0.2-0.8c-0.2-0.1-0.4-0.2-0.7-0.2c-0.2,0-0.5,0.1-0.7,0.2
			c-0.2,0.1-0.4,0.3-0.5,0.5v3.1h-0.7v-4.3h0.7v0.6c0.2-0.2,0.4-0.4,0.7-0.5c0.3-0.1,0.6-0.2,0.9-0.2c0.9,0,1.4,0.5,1.4,1.4V48.7z"
			/>
	</g>
	<g>
		<path class="st3" d="M21.1,75.4h-0.7v-2.7h-3.4v2.7h-0.7v-5.9h0.7v2.5h3.4v-2.5h0.7V75.4z"/>
		<path class="st3" d="M25.8,75.4h-0.7v-0.5c-0.4,0.4-0.8,0.6-1.4,0.6c-0.4,0-0.7-0.1-1-0.4c-0.3-0.3-0.4-0.6-0.4-1
			c0-0.4,0.1-0.8,0.4-1c0.3-0.2,0.6-0.4,1-0.4c0.6,0,1.1,0.2,1.4,0.6v-0.8c0-0.3-0.1-0.5-0.3-0.7c-0.2-0.2-0.5-0.2-0.8-0.2
			c-0.5,0-0.9,0.2-1.3,0.6l-0.3-0.5c0.5-0.5,1-0.7,1.7-0.7c0.5,0,0.9,0.1,1.2,0.4c0.3,0.2,0.5,0.6,0.5,1.1V75.4z M23.9,75.1
			c0.5,0,0.9-0.2,1.2-0.5v-0.8c-0.3-0.4-0.6-0.5-1.2-0.5c-0.3,0-0.6,0.1-0.8,0.3c-0.2,0.2-0.3,0.4-0.3,0.7c0,0.3,0.1,0.5,0.3,0.7
			C23.4,75,23.6,75.1,23.9,75.1z"/>
		<path class="st3" d="M27.4,70.6c-0.1,0-0.2,0-0.3-0.1C27,70.4,27,70.3,27,70.1c0-0.1,0-0.2,0.1-0.3c0.1-0.1,0.2-0.1,0.3-0.1
			c0.1,0,0.2,0,0.3,0.1c0.1,0.1,0.1,0.2,0.1,0.3c0,0.1,0,0.2-0.1,0.3C27.6,70.5,27.5,70.6,27.4,70.6z M27.8,75.4h-0.7v-4.3h0.7V75.4
			z"/>
		<path class="st3" d="M30.1,75.5c-0.3,0-0.5-0.1-0.7-0.3c-0.2-0.2-0.2-0.4-0.2-0.7v-2.8h-0.7v-0.6h0.7V70h0.7v1.2h0.9v0.6h-0.9v2.6
			c0,0.2,0,0.3,0.1,0.4c0.1,0.1,0.2,0.1,0.3,0.1c0.2,0,0.3-0.1,0.4-0.2l0.2,0.5C30.7,75.4,30.5,75.5,30.1,75.5z"/>
		<path class="st3" d="M32,70.6c-0.1,0-0.2,0-0.3-0.1c-0.1-0.1-0.1-0.2-0.1-0.3c0-0.1,0-0.2,0.1-0.3s0.2-0.1,0.3-0.1
			c0.1,0,0.2,0,0.3,0.1s0.1,0.2,0.1,0.3c0,0.1,0,0.2-0.1,0.3C32.2,70.5,32.1,70.6,32,70.6z M32.3,75.4h-0.7v-4.3h0.7V75.4z"/>
	</g>
	<g>
		<path class="st3" d="M18.2,105.4h-2v-5.9h2c0.9,0,1.6,0.3,2.2,0.8c0.6,0.6,0.8,1.3,0.8,2.1c0,0.9-0.3,1.6-0.8,2.1
			C19.8,105.1,19.1,105.4,18.2,105.4z M18.2,104.7c0.7,0,1.2-0.2,1.6-0.7c0.4-0.4,0.6-1,0.6-1.6c0-0.7-0.2-1.2-0.6-1.6
			c-0.4-0.4-1-0.7-1.7-0.7h-1.3v4.6H18.2z"/>
		<path class="st3" d="M26.6,105.4h-0.9l-1.5-2.3h-1.2v2.3h-0.7v-5.9h2.4c0.5,0,1,0.2,1.3,0.5c0.3,0.3,0.5,0.8,0.5,1.3
			c0,0.5-0.1,0.9-0.4,1.2c-0.3,0.3-0.7,0.5-1.1,0.5L26.6,105.4z M24.6,102.4c0.3,0,0.6-0.1,0.8-0.3c0.2-0.2,0.3-0.5,0.3-0.8
			c0-0.3-0.1-0.6-0.3-0.8c-0.2-0.2-0.5-0.3-0.8-0.3h-1.5v2.2H24.6z"/>
		<path class="st3" d="M30.5,105.5c-0.9,0-1.6-0.3-2.2-0.8c-0.6-0.6-0.9-1.3-0.9-2.2c0-0.9,0.3-1.6,0.9-2.2c0.6-0.6,1.3-0.8,2.2-0.8
			c0.9,0,1.7,0.4,2.2,1.2l-0.6,0.3c-0.2-0.3-0.4-0.5-0.7-0.6c-0.3-0.2-0.6-0.2-0.9-0.2c-0.6,0-1.2,0.2-1.6,0.7s-0.6,1-0.6,1.7
			s0.2,1.3,0.6,1.7c0.4,0.4,1,0.7,1.6,0.7c0.3,0,0.6-0.1,0.9-0.2c0.3-0.2,0.5-0.4,0.7-0.6l0.6,0.3C32.2,105.1,31.4,105.5,30.5,105.5
			z"/>
	</g>
	<g>
		<path class="st0" d="M169.7,38.8c-0.7,0-1.3-0.1-1.8-0.4c-0.5-0.2-0.9-0.6-1.2-1l0.8-0.9c0.3,0.3,0.6,0.5,1,0.7
			c0.4,0.2,0.8,0.3,1.3,0.3c0.5,0,0.9-0.1,1.2-0.3c0.3-0.2,0.5-0.5,0.5-0.9c0-0.8-0.6-1.1-1.8-1.1c-0.5,0-0.9,0-0.9,0v-1.3
			c0.1,0,0.4,0,0.9,0c0.5,0,0.9-0.1,1.2-0.3c0.3-0.2,0.5-0.4,0.5-0.8c0-0.4-0.2-0.7-0.5-0.8c-0.3-0.2-0.7-0.3-1.2-0.3
			c-0.8,0-1.5,0.3-2.1,0.9l-0.7-0.9c0.7-0.9,1.7-1.3,3-1.3c0.9,0,1.6,0.2,2.1,0.6c0.5,0.4,0.8,0.9,0.8,1.6c0,0.5-0.2,0.9-0.5,1.3
			c-0.4,0.3-0.8,0.5-1.2,0.6c0.5,0,0.9,0.2,1.3,0.6c0.4,0.4,0.6,0.8,0.6,1.4c0,0.7-0.3,1.3-0.8,1.7
			C171.4,38.5,170.7,38.8,169.7,38.8z"/>
		<path class="st0" d="M177.1,38.6h-1.4v-6.3l-1.3,1.4l-0.8-0.9l2.3-2.4h1.2V38.6z"/>
		<path class="st0" d="M183.2,38.4c-0.4,0.2-0.9,0.4-1.5,0.4c-0.5,0-1-0.1-1.5-0.4s-0.8-0.6-1-1c-0.3-0.4-0.4-0.9-0.6-1.3
			s-0.2-1-0.2-1.5c0-0.5,0.1-1,0.2-1.5c0.1-0.5,0.3-0.9,0.6-1.3c0.3-0.4,0.6-0.7,1-1c0.4-0.2,0.9-0.4,1.5-0.4c0.5,0,1,0.1,1.5,0.4
			c0.4,0.2,0.8,0.6,1,1c0.3,0.4,0.4,0.8,0.6,1.3c0.1,0.5,0.2,1,0.2,1.5c0,0.5-0.1,1-0.2,1.5c-0.1,0.5-0.3,0.9-0.6,1.3
			C184,37.8,183.7,38.2,183.2,38.4z M180.4,36.7c0.3,0.6,0.8,0.8,1.4,0.8c0.6,0,1.1-0.3,1.4-0.8c0.3-0.6,0.4-1.3,0.4-2.1
			c0-0.5-0.1-1-0.2-1.5c-0.1-0.4-0.3-0.8-0.6-1.1c-0.3-0.3-0.6-0.4-1.1-0.4c-0.4,0-0.8,0.1-1.1,0.4c-0.3,0.3-0.5,0.6-0.6,1.1
			c-0.1,0.4-0.2,0.9-0.2,1.5C180,35.4,180.1,36.1,180.4,36.7z"/>
	</g>
	<g>
		<path class="st0" d="M172,64.8h-1.4v-1.8h-3.9v-1.1l3.3-5.2h2v5h1.1v1.3H172V64.8z M170.6,61.7v-3.8l-2.5,3.8H170.6z"/>
		<path class="st0" d="M180,64.8h-5.9v-1.1c1.7-1.3,2.9-2.2,3.5-2.9c0.6-0.6,0.9-1.2,0.9-1.8c0-0.4-0.1-0.7-0.4-0.9
			c-0.3-0.2-0.6-0.3-1-0.3c-0.9,0-1.6,0.3-2.2,1l-0.8-0.9c0.3-0.4,0.8-0.7,1.3-1c0.5-0.2,1.1-0.3,1.7-0.3c0.8,0,1.5,0.2,2.1,0.7
			c0.6,0.4,0.9,1.1,0.9,1.8c0,0.7-0.3,1.4-0.9,2.1c-0.6,0.7-1.5,1.5-2.7,2.4h3.6V64.8z"/>
		<path class="st0" d="M184.4,64.9c-1.3,0-2.3-0.4-3-1.3l0.8-1c0.6,0.6,1.3,1,2.2,1c0.5,0,0.9-0.1,1.2-0.4c0.3-0.3,0.5-0.6,0.5-1
			c0-0.4-0.1-0.8-0.4-1.1c-0.3-0.3-0.7-0.4-1.2-0.4c-0.7,0-1.3,0.2-1.8,0.7l-1-0.3v-4.6h5.3v1.3h-3.9v2.4c0.5-0.5,1.1-0.7,1.8-0.7
			c0.7,0,1.3,0.2,1.8,0.7c0.5,0.5,0.8,1.1,0.8,1.9c0,0.8-0.3,1.5-0.9,2C186.1,64.7,185.4,64.9,184.4,64.9z"/>
	</g>
	<g>
		<path class="st0" d="M170.1,94.6c-1.3,0-2.3-0.4-3-1.3l0.8-1c0.6,0.6,1.3,1,2.2,1c0.5,0,0.9-0.1,1.2-0.4c0.3-0.3,0.5-0.6,0.5-1
			c0-0.4-0.1-0.8-0.4-1.1c-0.3-0.3-0.7-0.4-1.2-0.4c-0.7,0-1.3,0.2-1.8,0.7l-1-0.3v-4.6h5.3v1.3h-3.9v2.4c0.5-0.5,1.1-0.7,1.8-0.7
			c0.7,0,1.3,0.2,1.8,0.7c0.5,0.5,0.8,1.1,0.8,1.9c0,0.8-0.3,1.5-0.9,2C171.7,94.4,171,94.6,170.1,94.6z"/>
		<path class="st0" d="M177.5,94.5H176v-6.3l-1.3,1.4l-0.8-0.9l2.3-2.4h1.2V94.5z"/>
		<path class="st0" d="M183.6,94.3c-0.4,0.2-0.9,0.4-1.5,0.4c-0.5,0-1-0.1-1.5-0.4c-0.4-0.2-0.8-0.6-1-1c-0.3-0.4-0.4-0.9-0.6-1.3
			c-0.1-0.5-0.2-1-0.2-1.5c0-0.5,0.1-1,0.2-1.5c0.1-0.5,0.3-0.9,0.6-1.3c0.3-0.4,0.6-0.7,1-1c0.4-0.2,0.9-0.4,1.5-0.4
			c0.5,0,1,0.1,1.5,0.4c0.4,0.2,0.8,0.6,1,1c0.3,0.4,0.4,0.8,0.6,1.3c0.1,0.5,0.2,1,0.2,1.5c0,0.5-0.1,1-0.2,1.5
			c-0.1,0.5-0.3,0.9-0.6,1.3C184.3,93.7,184,94,183.6,94.3z M180.7,92.5c0.3,0.6,0.7,0.8,1.4,0.8s1.1-0.3,1.4-0.8
			c0.3-0.6,0.4-1.3,0.4-2.1c0-0.5-0.1-1-0.2-1.5c-0.1-0.4-0.3-0.8-0.6-1.1s-0.6-0.4-1.1-0.4c-0.4,0-0.8,0.1-1.1,0.4
			c-0.3,0.3-0.5,0.6-0.6,1.1c-0.1,0.4-0.2,0.9-0.2,1.5C180.3,91.3,180.4,92,180.7,92.5z"/>
	</g>
	<g>
		<path class="st0" d="M14.9,152c-0.6,0-1.1-0.1-1.5-0.3c-0.4-0.2-0.8-0.5-1.1-0.9c-0.3-0.4-0.5-0.8-0.6-1.3c-0.1-0.5-0.2-1-0.2-1.6
			c0-1.2,0.3-2.2,0.9-3c0.6-0.8,1.5-1.2,2.7-1.2c0.9,0,1.7,0.3,2.3,0.9l-0.7,1.1c-0.5-0.5-1-0.7-1.7-0.7c-0.7,0-1.2,0.3-1.6,0.8
			c-0.4,0.5-0.6,1.2-0.6,1.9c0,0.1,0,0.2,0,0.2c0.2-0.3,0.5-0.6,0.9-0.8s0.8-0.3,1.3-0.3c0.8,0,1.4,0.2,1.9,0.7
			c0.5,0.5,0.8,1.1,0.8,1.9c0,0.8-0.3,1.4-0.8,1.9C16.5,151.7,15.8,152,14.9,152z M14.8,150.7c0.5,0,0.9-0.1,1.2-0.4
			c0.3-0.3,0.4-0.6,0.4-1c0-0.5-0.2-0.8-0.5-1.1c-0.3-0.2-0.7-0.4-1.2-0.4c-0.3,0-0.7,0.1-1,0.3c-0.3,0.2-0.6,0.4-0.8,0.7
			c0,0.5,0.2,1,0.5,1.3C13.8,150.5,14.2,150.7,14.8,150.7z"/>
		<path class="st0" d="M22.2,152c-0.6,0-1.1-0.1-1.5-0.3c-0.4-0.2-0.8-0.5-1.1-0.9c-0.3-0.4-0.5-0.8-0.6-1.3c-0.1-0.5-0.2-1-0.2-1.6
			c0-1.2,0.3-2.2,0.9-3c0.6-0.8,1.5-1.2,2.7-1.2c0.9,0,1.7,0.3,2.3,0.9l-0.7,1.1c-0.5-0.5-1-0.7-1.7-0.7c-0.7,0-1.2,0.3-1.6,0.8
			c-0.4,0.5-0.6,1.2-0.6,1.9c0,0.1,0,0.2,0,0.2c0.2-0.3,0.5-0.6,0.9-0.8c0.4-0.2,0.8-0.3,1.3-0.3c0.8,0,1.4,0.2,1.9,0.7
			c0.5,0.5,0.8,1.1,0.8,1.9c0,0.8-0.3,1.4-0.8,1.9C23.8,151.7,23.1,152,22.2,152z M22.1,150.7c0.5,0,0.9-0.1,1.2-0.4
			c0.3-0.3,0.4-0.6,0.4-1c0-0.5-0.2-0.8-0.5-1.1c-0.3-0.2-0.7-0.4-1.2-0.4c-0.3,0-0.7,0.1-1,0.3c-0.3,0.2-0.6,0.4-0.8,0.7
			c0,0.5,0.2,1,0.5,1.3C21.1,150.5,21.6,150.7,22.1,150.7z"/>
		<path class="st0" d="M30.9,151.6c-0.4,0.2-0.9,0.4-1.5,0.4c-0.5,0-1-0.1-1.5-0.4c-0.4-0.2-0.8-0.6-1-1c-0.3-0.4-0.4-0.9-0.6-1.3
			c-0.1-0.5-0.2-1-0.2-1.5c0-0.5,0.1-1,0.2-1.5c0.1-0.5,0.3-0.9,0.6-1.3c0.3-0.4,0.6-0.7,1-1c0.4-0.2,0.9-0.4,1.5-0.4
			c0.5,0,1,0.1,1.5,0.4c0.4,0.2,0.8,0.6,1,1c0.3,0.4,0.4,0.8,0.6,1.3c0.1,0.5,0.2,1,0.2,1.5c0,0.5-0.1,1-0.2,1.5
			c-0.1,0.5-0.3,0.9-0.6,1.3C31.7,151,31.4,151.4,30.9,151.6z M28.1,149.9c0.3,0.6,0.7,0.8,1.4,0.8c0.6,0,1.1-0.3,1.4-0.8
			c0.3-0.6,0.4-1.3,0.4-2.1c0-0.5-0.1-1-0.2-1.5c-0.1-0.4-0.3-0.8-0.6-1.1c-0.3-0.3-0.6-0.4-1.1-0.4c-0.4,0-0.8,0.1-1.1,0.4
			c-0.3,0.3-0.5,0.6-0.6,1.1c-0.1,0.4-0.2,0.9-0.2,1.5C27.6,148.6,27.8,149.3,28.1,149.9z"/>
	</g>
	<g>
		<path class="st0" d="M19.8,118.2h-1.4v-1.8h-3.9v-1.1l3.3-5.2h2v5h1.1v1.3h-1.1V118.2z M18.4,115.1v-3.8l-2.5,3.8H18.4z"/>
		<path class="st0" d="M25,118.2h-1.4v-6.3l-1.3,1.4l-0.8-0.9l2.3-2.4H25V118.2z"/>
		<path class="st0" d="M29.6,118.3c-1.3,0-2.3-0.4-3-1.3l0.8-1c0.6,0.6,1.3,1,2.2,1c0.5,0,0.9-0.1,1.2-0.4c0.3-0.3,0.5-0.6,0.5-1
			c0-0.4-0.1-0.8-0.4-1.1c-0.3-0.3-0.7-0.4-1.2-0.4c-0.7,0-1.3,0.2-1.8,0.7l-1-0.3V110h5.3v1.3h-3.9v2.4c0.5-0.5,1.1-0.7,1.8-0.7
			c0.7,0,1.3,0.2,1.8,0.7c0.5,0.5,0.8,1.1,0.8,1.9c0,0.8-0.3,1.5-0.9,2C31.3,118.1,30.5,118.3,29.6,118.3z"/>
	</g>
	<g>
		<path class="st0" d="M17.4,87.2c-0.7,0-1.3-0.1-1.8-0.4c-0.5-0.2-0.9-0.6-1.2-1l0.8-0.9c0.3,0.3,0.6,0.5,1,0.7
			c0.4,0.2,0.8,0.3,1.3,0.3c0.5,0,0.9-0.1,1.2-0.3c0.3-0.2,0.5-0.5,0.5-0.9c0-0.8-0.6-1.1-1.8-1.1c-0.5,0-0.9,0-0.9,0v-1.3
			c0.1,0,0.4,0,0.9,0c0.5,0,0.9-0.1,1.2-0.3c0.3-0.2,0.5-0.4,0.5-0.8c0-0.4-0.2-0.7-0.5-0.8c-0.3-0.2-0.7-0.3-1.2-0.3
			c-0.8,0-1.5,0.3-2.1,0.9L14.4,80c0.7-0.9,1.7-1.3,3-1.3c0.9,0,1.6,0.2,2.1,0.6c0.5,0.4,0.8,0.9,0.8,1.6c0,0.5-0.2,0.9-0.5,1.3
			c-0.4,0.3-0.8,0.5-1.2,0.6c0.5,0,0.9,0.2,1.3,0.6c0.4,0.3,0.6,0.8,0.6,1.4c0,0.7-0.3,1.3-0.8,1.7C19.1,86.9,18.3,87.2,17.4,87.2z"
			/>
		<path class="st0" d="M24.8,87h-1.4v-6.3l-1.3,1.4l-0.8-0.9l2.3-2.4h1.2V87z"/>
		<path class="st0" d="M30.9,86.8c-0.4,0.2-0.9,0.4-1.5,0.4c-0.5,0-1-0.1-1.5-0.4c-0.4-0.2-0.8-0.6-1-1c-0.3-0.4-0.4-0.9-0.6-1.3
			c-0.1-0.5-0.2-1-0.2-1.5c0-0.5,0.1-1,0.2-1.5c0.1-0.5,0.3-0.9,0.6-1.3c0.3-0.4,0.6-0.7,1-1c0.4-0.2,0.9-0.4,1.5-0.4
			c0.5,0,1,0.1,1.5,0.4c0.4,0.2,0.8,0.6,1,1c0.3,0.4,0.4,0.8,0.6,1.3c0.1,0.5,0.2,1,0.2,1.5c0,0.5-0.1,1-0.2,1.5
			c-0.1,0.5-0.3,0.9-0.6,1.3C31.7,86.2,31.4,86.5,30.9,86.8z M28.1,85.1c0.3,0.6,0.7,0.8,1.4,0.8c0.6,0,1.1-0.3,1.4-0.8
			c0.3-0.6,0.4-1.3,0.4-2.1c0-0.5-0.1-1-0.2-1.5c-0.1-0.4-0.3-0.8-0.6-1.1c-0.3-0.3-0.6-0.4-1.1-0.4c-0.4,0-0.8,0.1-1.1,0.4
			c-0.3,0.3-0.5,0.6-0.6,1.1c-0.1,0.4-0.2,0.9-0.2,1.5C27.6,83.8,27.8,84.5,28.1,85.1z"/>
	</g>
	<g>
		<path class="st0" d="M17.8,60.1c-0.6,0-1.1-0.1-1.5-0.3c-0.4-0.2-0.8-0.5-1.1-0.9c-0.3-0.4-0.5-0.8-0.6-1.3
			c-0.1-0.5-0.2-1-0.2-1.6c0-1.2,0.3-2.2,0.9-3c0.6-0.8,1.5-1.2,2.7-1.2c0.9,0,1.7,0.3,2.3,0.9l-0.7,1.1c-0.5-0.5-1-0.7-1.7-0.7
			c-0.7,0-1.2,0.3-1.6,0.8c-0.4,0.5-0.6,1.2-0.6,1.9c0,0.1,0,0.2,0,0.2c0.2-0.3,0.5-0.6,0.9-0.8c0.4-0.2,0.8-0.3,1.3-0.3
			c0.8,0,1.4,0.2,1.9,0.7c0.5,0.5,0.8,1.1,0.8,1.9c0,0.8-0.3,1.4-0.8,1.9C19.4,59.8,18.7,60.1,17.8,60.1z M17.7,58.8
			c0.5,0,0.9-0.1,1.2-0.4c0.3-0.3,0.4-0.6,0.4-1c0-0.5-0.2-0.8-0.5-1.1c-0.3-0.2-0.7-0.4-1.2-0.4c-0.3,0-0.7,0.1-1,0.3
			c-0.3,0.2-0.6,0.4-0.8,0.7c0,0.5,0.2,1,0.5,1.3C16.7,58.6,17.1,58.8,17.7,58.8z"/>
		<path class="st0" d="M25,59.9h-1.4v-6.3L22.3,55l-0.8-0.9l2.3-2.4H25V59.9z"/>
		<path class="st0" d="M29.6,60.1c-1.3,0-2.3-0.4-3-1.3l0.8-1c0.6,0.6,1.3,1,2.2,1c0.5,0,0.9-0.1,1.2-0.4c0.3-0.3,0.5-0.6,0.5-1
			c0-0.4-0.1-0.8-0.4-1.1c-0.3-0.3-0.7-0.4-1.2-0.4c-0.7,0-1.3,0.2-1.8,0.7l-1-0.3v-4.6h5.3V53h-3.9v2.4c0.5-0.5,1.1-0.7,1.8-0.7
			c0.7,0,1.3,0.2,1.8,0.7c0.5,0.5,0.8,1.1,0.8,1.9c0,0.8-0.3,1.5-0.9,2C31.3,59.8,30.5,60.1,29.6,60.1z"/>
	</g>
	<g>
		<path class="st0" d="M17.2,36.2h-1.4v-1.8h-3.9v-1.1l3.3-5.2h2v5h1.1v1.3h-1.1V36.2z M15.7,33.1v-3.8l-2.5,3.8H15.7z"/>
		<path class="st0" d="M24.3,36.2h-1.4v-1.8h-3.9v-1.1l3.3-5.2h2v5h1.1v1.3h-1.1V36.2z M22.8,33.1v-3.8l-2.5,3.8H22.8z"/>
		<path class="st0" d="M30.9,36c-0.4,0.2-0.9,0.4-1.5,0.4c-0.5,0-1-0.1-1.5-0.4c-0.4-0.2-0.8-0.6-1-1c-0.3-0.4-0.4-0.9-0.6-1.3
			c-0.1-0.5-0.2-1-0.2-1.5c0-0.5,0.1-1,0.2-1.5c0.1-0.5,0.3-0.9,0.6-1.3c0.3-0.4,0.6-0.7,1-1c0.4-0.2,0.9-0.4,1.5-0.4
			c0.5,0,1,0.1,1.5,0.4c0.4,0.2,0.8,0.6,1,1c0.3,0.4,0.4,0.8,0.6,1.3c0.1,0.5,0.2,1,0.2,1.5c0,0.5-0.1,1-0.2,1.5
			c-0.1,0.5-0.3,0.9-0.6,1.3C31.7,35.4,31.4,35.7,30.9,36z M28.1,34.2c0.3,0.6,0.7,0.8,1.4,0.8c0.6,0,1.1-0.3,1.4-0.8
			c0.3-0.6,0.4-1.3,0.4-2.1c0-0.5-0.1-1-0.2-1.5c-0.1-0.4-0.3-0.8-0.6-1.1c-0.3-0.3-0.6-0.4-1.1-0.4c-0.4,0-0.8,0.1-1.1,0.4
			c-0.3,0.3-0.5,0.6-0.6,1.1c-0.1,0.4-0.2,0.9-0.2,1.5C27.6,33,27.8,33.7,28.1,34.2z"/>
	</g>
	<g>
		<path class="st0" d="M93.8,18.9c-0.7,0-1.3-0.1-1.8-0.4c-0.5-0.2-0.9-0.6-1.2-1l0.8-0.9c0.3,0.3,0.6,0.5,1,0.7
			c0.4,0.2,0.8,0.3,1.3,0.3c0.5,0,0.9-0.1,1.2-0.3c0.3-0.2,0.5-0.5,0.5-0.9c0-0.8-0.6-1.1-1.8-1.1c-0.5,0-0.9,0-0.9,0v-1.3
			c0.1,0,0.4,0,0.9,0c0.5,0,0.9-0.1,1.2-0.3c0.3-0.2,0.5-0.4,0.5-0.8c0-0.4-0.2-0.7-0.5-0.8c-0.3-0.2-0.7-0.3-1.2-0.3
			c-0.8,0-1.5,0.3-2.1,0.9l-0.7-0.9c0.7-0.9,1.7-1.3,3-1.3c0.9,0,1.6,0.2,2.1,0.6c0.5,0.4,0.8,0.9,0.8,1.6c0,0.5-0.2,0.9-0.5,1.3
			c-0.4,0.3-0.8,0.5-1.2,0.6c0.5,0,0.9,0.2,1.3,0.6c0.4,0.4,0.6,0.8,0.6,1.4c0,0.7-0.3,1.3-0.8,1.7C95.5,18.7,94.7,18.9,93.8,18.9z"
			/>
		<path class="st0" d="M104,18.7H98v-1.1c1.7-1.3,2.9-2.2,3.5-2.9c0.6-0.6,0.9-1.2,0.9-1.8c0-0.4-0.1-0.7-0.4-0.9
			c-0.3-0.2-0.6-0.3-1-0.3c-0.9,0-1.6,0.3-2.2,1l-0.8-0.9c0.3-0.4,0.8-0.7,1.3-1c0.5-0.2,1.1-0.3,1.7-0.3c0.8,0,1.5,0.2,2.1,0.7
			c0.6,0.4,0.9,1.1,0.9,1.8c0,0.7-0.3,1.4-0.9,2.1c-0.6,0.7-1.5,1.5-2.7,2.4h3.6V18.7z"/>
		<path class="st0" d="M108.4,18.9c-1.3,0-2.3-0.4-3-1.3l0.8-1c0.6,0.6,1.3,1,2.2,1c0.5,0,0.9-0.1,1.2-0.4c0.3-0.3,0.5-0.6,0.5-1
			c0-0.4-0.1-0.8-0.4-1.1c-0.3-0.3-0.7-0.4-1.2-0.4c-0.7,0-1.3,0.2-1.8,0.7l-1-0.3v-4.6h5.3v1.3h-3.9v2.4c0.5-0.5,1.1-0.7,1.8-0.7
			c0.7,0,1.3,0.2,1.8,0.7c0.5,0.5,0.8,1.1,0.8,1.9c0,0.8-0.3,1.5-0.9,2C110.1,18.6,109.3,18.9,108.4,18.9z"/>
	</g>
	<g>
		<g>
			<path class="st4" d="M160,55.5c-12.7-2.1-25.7-1.4-33.7,6.8"/>
			<g>
				<path class="st2" d="M126.4,62.2c0.6,0,1.4,0.4,1.8,0.9c-1-0.1-2-0.1-3,0.3c0.4-0.9,0.4-2,0.3-3C126,60.9,126.4,61.5,126.4,62.2
					z"/>
			</g>
		</g>
	</g>
	<g>
		<g>
			<path class="st5" d="M161.1,83.7c-14.5,2.2-26.2-3.5-31.1-9.9"/>
			<g>
				<path class="st2" d="M130.1,73.9c-0.1,0.7-0.8,1.6-1.3,2c0.3-1.2,0.4-2.4,0.1-3.6c1,0.6,2.3,0.8,3.5,0.8
					C131.7,73.6,130.9,74,130.1,73.9z"/>
			</g>
		</g>
	</g>
	<g>
		<g>
			<path class="st6" d="M40.3,140.2c13.8,0.6,51-8.9,62.4-32.3"/>
			<g>
				<path class="st2" d="M102.6,108c-0.6,0.2-1.6,0-2.2-0.2c1.1-0.2,2.1-0.6,2.9-1.4c-0.1,1.1,0.3,2.2,0.8,3.1
					C103.5,109.2,102.8,108.7,102.6,108z"/>
			</g>
		</g>
	</g>
	<g>
		<g>
			<path class="st7" d="M40.3,23.7c17.9,0,36,10.9,48.7,36.2"/>
			<g>
				<path class="st2" d="M88.9,59.7c0.2-0.6,0.9-1.2,1.4-1.5c-0.5,0.9-0.7,2-0.7,3c-0.8-0.7-1.8-1-2.8-1.2
					C87.5,59.7,88.3,59.5,88.9,59.7z"/>
			</g>
		</g>
	</g>
	<g>
		<g>
			<path class="st8" d="M39.1,109.1c12.7,1.1,39.5-1.5,49.9-12.5"/>
			<g>
				<path class="st2" d="M88.9,96.7c-0.6,0-1.3-0.4-1.8-0.8c1,0.1,2,0,2.9-0.4c-0.4,0.9-0.3,1.9-0.2,2.9
					C89.4,98,88.9,97.3,88.9,96.7z"/>
			</g>
		</g>
	</g>
	<g>
		<g>
			<path class="st9" d="M38.6,54.7c14.1-3.9,22.6-1.7,34.8,10.8"/>
			<g>
				<path class="st2" d="M73.3,65.4c0-0.4,0.3-0.9,0.6-1.2c-0.1,0.6-0.1,1.3,0.2,1.9c-0.6-0.3-1.3-0.3-1.9-0.2
					C72.4,65.7,72.9,65.4,73.3,65.4z"/>
			</g>
		</g>
	</g>
	<g>
		<g>
			<path class="st1" d="M38.6,76.2c9-5.1,27.2-5.4,43.2,3.4"/>
			<g>
				<path class="st2" d="M81.6,79.5c-0.1-0.4,0-1.1,0.2-1.4c0.1,0.7,0.3,1.4,0.8,2c-0.7-0.1-1.5,0.1-2.1,0.4
					C80.8,80.1,81.2,79.7,81.6,79.5z"/>
			</g>
		</g>
	</g>
	<g>
		<g>
			<line class="st10" x1="101.2" y1="24.2" x2="101.2" y2="49.1"/>
			<g>
				<path class="st2" d="M101.2,48.9c0.3-0.3,1-0.5,1.4-0.5c-0.6,0.5-1.1,1-1.4,1.8c-0.3-0.7-0.9-1.3-1.4-1.8
					C100.3,48.5,100.9,48.6,101.2,48.9z"/>
			</g>
		</g>
	</g>
	<g>
		<path class="st0" d="M171.6,124.5c-0.4,0.2-0.9,0.4-1.5,0.4c-0.5,0-1-0.1-1.5-0.4c-0.4-0.2-0.8-0.6-1-1c-0.3-0.4-0.4-0.9-0.6-1.3
			c-0.1-0.5-0.2-1-0.2-1.5c0-0.5,0.1-1,0.2-1.5c0.1-0.5,0.3-0.9,0.6-1.3c0.3-0.4,0.6-0.7,1-1c0.4-0.2,0.9-0.4,1.5-0.4
			c0.5,0,1,0.1,1.5,0.4c0.4,0.2,0.8,0.6,1,1c0.3,0.4,0.4,0.8,0.6,1.3c0.1,0.5,0.2,1,0.2,1.5c0,0.5-0.1,1-0.2,1.5
			c-0.1,0.5-0.3,0.9-0.6,1.3C172.4,124,172,124.3,171.6,124.5z M168.8,122.8c0.3,0.6,0.7,0.8,1.4,0.8s1.1-0.3,1.4-0.8
			c0.3-0.6,0.4-1.3,0.4-2.1c0-0.5-0.1-1-0.2-1.5c-0.1-0.4-0.3-0.8-0.6-1.1c-0.3-0.3-0.6-0.4-1.1-0.4c-0.4,0-0.8,0.1-1.1,0.4
			c-0.3,0.3-0.5,0.6-0.6,1.1c-0.1,0.4-0.2,0.9-0.2,1.5C168.3,121.5,168.5,122.2,168.8,122.8z"/>
	</g>
</g>
</svg>
