<svg id="Layer_1" data-name="Layer 1" xmlns="http://www.w3.org/2000/svg" viewBox="0 0 212.28 151.69"><defs><style>.cls-1{fill:#0d92ff;}.cls-10,.cls-11,.cls-12,.cls-13,.cls-2,.cls-5,.cls-6,.cls-7,.cls-8,.cls-9{fill:none;stroke:#00325c;}.cls-10,.cls-11,.cls-12,.cls-13,.cls-2,.cls-5,.cls-6,.cls-8,.cls-9{stroke-miterlimit:10;}.cls-2{stroke-width:0.21px;}.cls-3{fill:#00325c;}.cls-4{fill:#787878;}.cls-5{stroke-width:0.21px;}.cls-6{stroke-width:0.15px;}.cls-7{stroke-miterlimit:3;stroke-width:0.16px;}.cls-8{stroke-width:0.39px;}.cls-9{stroke-width:0.17px;}.cls-10{stroke-width:0.26px;}.cls-11{stroke-width:0.11px;}.cls-12{stroke-width:0.18px;}.cls-13{stroke-width:0.09px;}</style></defs><title>fra-jan</title><path class="cls-1" d="M154.49,142.85h-0.11v0.06h0.06l0,0v0h0v0h0v-0.06Zm-0.08.32h0l0,0.06,0.08,0.07v0l0,0v0ZM66.26,58.46h0v0l0-.08,0,0,0,0,0,0v0.07l0,0h0Zm66.16,66.41-0.13,0-0.08.08-0.06.12-0.16.06,0,0.08v0.11H132l0.07-.06,0.14-.05,0.12-.21,0.07-.07,0.12,0v-0.06l0,0Zm-69.88-41-0.31-.13-0.16,0-0.15,0-0.06.1L62,84h0.64l0.18,0.07-0.09-.15Zm1.22-2.75L63.67,81l-0.27-.14-0.08-.09V80.58l0-.15,0-.13-0.16-.1-0.14,0-0.45,0,0.13,0.18,0.12,0.45L62.95,81l0.21-.11L63.36,81l0.17,0.26,0.12,0.26,0.13,0.08,0-.15,0-.24ZM40.69,63.2v0l0,0-0.15-.08-0.18.05L40,63.3v0.08l0.2-.06,0.08,0,0,0.12H40.21v0.08l0.14,0,0.41-.21V63.21H40.71ZM69.1,89.37l0.05-.07V89.24l0-.06-0.06,0-0.14,0-0.46.12v0.07l0.09,0.07,0.32,0.37,0.12,0,0.44-.08,0.77,0.5,0.36,0.07h0l0,0,0.08,0,0.06,0h0.07L70.75,90l-0.15-.18-0.19-.12-0.8-.13-0.13-.06V89.45h0.11V89.37l-0.19,0-0.23.1H69l-0.14-.24h0.08Zm61.3,35.83-0.06.06,0,0h0l0,0-0.07,0h-0.22l-0.08,0v0.06l0.19,0.1,0.1,0,0.11,0,0.11-.06,0.09-.12v-0.15l0-.06ZM56.14,76.76L56,76.71l-0.27-.28,0,0-0.2-.16-0.36-.19-0.1,0L55,76H55l0,0.07-0.07.07,0,0.17L55,76.46l0.06,0.19,0,0.18,0.14,0.1,0.41,0.12,0.62,0.06,0.21-.06,0-.22-0.08-.09ZM71,92.19l-0.11-.12H70.79l-0.1,0-0.09,0-0.19-.21-0.25-.2-0.27-.14-0.25,0,0.17,0.4,0.09,0.27,0,0.12,0,0.1L70,92.59l0.17,0.21,0.17,0.12,0.47,0.53,0.09,0.16,0.07,0.15,0.11,0.4,0.14,0.06L71.32,94l0.08-.3,0.06-.48v-0.1l-0.06-.1-0.23-.14-0.08-.08,0-.1V92.66L71,92.57V92.33Zm74.15-35.07-1.26-.67-0.14,0-0.45,0-0.66-.19-0.09,0-0.19.1-0.1,0h-0.08L142,56.37h-0.09l-0.1,0-0.09,0-0.09,0-0.11,0-0.07-.06-0.08-.16-0.06-.07L141.14,56,140.8,56l-0.17-.11-0.11-.14-0.18-.29-0.11-.12v0l0,0,0.06,0L140.27,55,140.12,55l-0.35,0,0-.14h-0.15l-0.19.06-0.13.07,0,0.06-0.06.18,0,0.07-0.06,0-0.16,0-0.07,0,0,0.06-0.08.17,0,0h-0.05l-0.21-.1h-0.69l-0.13,0-0.12-.07-0.31-.22h0l-0.07.07v0.07l0,0.06v0.06l-0.24.15-0.17-.14-0.09-.33V54.67h-0.17l-0.5-.28H135.8l-0.23,0-0.33-.07-0.08,0,0,0.17,0.06,0.2,0,0.2-0.14.18-0.1,0L134.65,55H134.3l-0.09,0-0.1-.17,0-.15,0-.15-0.05-.19h0l-0.11.07h0l0,0,0-.1v0l0-.05-0.06-.22,0,0-0.11,0,0,0V53.76l0-.12V53.58l-0.53-.51L133,52.91l-0.05-.14,0-.11h0.14l0-.1,0-.07-0.39-.41L132.66,52h0V51.92l0-.1,0-.1-0.14-.13-0.73-.36-0.09,0-0.07,0-0.15.1-0.08,0h-0.07l-0.16,0-0.21-.12-0.39-.3-0.22-.09-0.23,0-0.46,0L129.66,51l-0.22,0-0.06,0,0,0.07v0.08l0,0.06-0.1,0-0.08.12-0.12,0-0.68,0-0.14,0-0.11-.35L128,51l-0.5-.12-0.2-.09-0.14-.13-0.25-.33-0.08,0h0l-0.17-.11h-0.09l-0.08,0-0.1.14-0.09,0h0l-0.17,0-0.17-.08-0.18,0h0l-0.2.1-0.1.13h0l0,0.09h0l0,0h-0.12l-0.07,0-0.25-.11-0.1,0,0,0-0.1.07-0.1.08-0.16.09,0,0-0.17,0,0-.08V50.59l0-.11V50.35l0-.11-0.38-.69-0.15-.13-0.25-.09,0,0,0,0h-0.05l0,0,0,0.07,0,0.06h-0.05l-0.13,0,0,0h0V49.25l0-.17h0L123,49v0l0,0L123,48.81l-0.15-.19-0.17-.17h-0.17l-0.13,0-0.23.06-0.18-.05-0.15-.11,0,0-0.08-.08-0.2-.28-0.14-.21-0.1-.09-0.06,0-0.22-.06-0.16-.09-0.3-.29-0.13-.07h-0.18l-0.16.06-0.19.07-0.13,0h0l-0.13,0h-0.08l-0.07-.09V46.73l0-.07h0l-0.08-.13,0-.06V46.4l0.07-.08h0l0-.05v0l0-.11,0,0,0-.05,0-.11V45.73l-0.12-.22h0l-0.22-.09L119,45.35h0l-0.11-.17,0-.2,0.22-.54,0.09-.22V43.87l0-.09,0.11-.23h0.05l0.08,0.09h0V43.4l0-.25V42.93l-0.07-.1-0.25.05-0.09,0,0-.18h0l-0.21.1-0.85.86,0,0.1,0,0.12,0,0.05v0l0,0v0.09l0,0.13,0,0.26-0.05.2v0l-0.06.12-0.06,0,0,0-0.33.05-0.28.14-0.83.41-0.23,0-1-.29-0.2-.06-0.23,0-0.38.06-0.09,0h0L113.67,45h0.06V44.79l0-.1,0-.09h0l0-.15,0-.08h0l0.06-.07,0.09-.08,0.06-.06,0.13-.09,0.06,0,0.11-.05,0.09,0V43.84l-0.05-.1,0-.07,0,0-0.13-.53L114,43h-0.08l-0.16.07,0,0-0.06,0,0-.18v0l0.1-.31,0.06-.18,0-.23,0-.09h0l0.08-.12,0.19-.15h0l0.07-.07V41.54l0-.08-0.1-.09-0.07,0,0,0-0.07,0-0.1,0h0v0.17h0l0,0,0,0-0.1,0,0,0-0.17-.36L113.4,41h0l-0.16-.15-0.11-.06-0.06,0-0.26-.29h0l-0.15-.07h-0.17l-0.34.14-0.17.07h-0.21l-0.11-.05-0.08-.05-0.06,0-0.16-.08-0.33,0-0.35,0,0,0-0.06,0-0.06.07-0.14.24,0,0.08v0h0v0l0,0h0l0,0.08-0.28-.26-0.07-.51V39.62l-0.07-.48-0.13-.23-0.16-.15-0.17-.09-0.18,0h-0.51l-0.1-.07h0l0.07-.13h0v-0.1l-0.05-.06h0l-0.08,0h-0.11l-0.07,0h0l0,0,0,0.05,0,0-0.08.06-0.27.1-0.08,0h-0.19l-0.14,0-0.35-.18-0.1-.08-0.11-.14,0,0,0-.14v-0.4l-0.21-.7-0.06-.36,0.06-.11,0.05-.1,0-.12L106.52,36l-0.06-.1h0l-0.1,0h-0.11l-0.06-.07-0.1-.24L106,35.37l0-.07-0.12-.21L105.7,35l-0.16-.05h0l-0.38.12-0.24.08-0.08,0-0.34.11-0.1.06-0.09.05-0.07.08-0.07.08-0.1.17-0.14.24-0.11.08h-0.16l-0.56-.25-0.08,0,0,0-0.1-.09,0,0,0,0-0.11-.25,0-.08,0,0-0.26-.25-0.05-.09,0-.09h0l0-.07-0.1-.05H102l-0.15,0h-0.07l-0.12,0,0,0h0l0-.07,0-.07,0-.08,0,0,0,0h0l-0.07,0,0,0h0V34.08l0.06-.14V33.86l-0.08-.27-0.08-.28,0-.11,0.07-.07,0.12-.11,0,0,0,0,0-.25-0.13-.19h0l-0.28-.31-0.08-.24v-0.1L101,31.38v0l-0.11-.25-0.12.08-0.32.15-0.65.17-0.48-.06H99.24l-0.08,0-1.36.45-1.28.16-0.27.16-0.14,0-1.52.67-0.24.23-0.23.32L94,33.59l-0.15.06-0.17,0-0.07,0-0.19.16v0.06l0,0.18,0.13,0.46,0.05,0.29,0,0.24-0.09.18-0.17.5,0,0.22v0.26l0.08,0.53,0,0.59,0,0.17,0.22,0.33L93.38,38l0,0.51v0.59l-0.14.42v0.09L93.62,40v0.08L93.32,40l-0.16.33-0.07.48v0.4l0.08,0.1,0.34,0.17,0.08,0.16,0.05,0.14,0.12,0.1,0.16,0.05h0.15V42H93.9l0,0.09,0,0.06,0.05,0h0.08v0.09l-0.07.06H94L93.19,42l-0.27,0-0.27.37L92.46,43l-0.07.11-0.09.08-0.42.52-1,.84-0.32.35L90.34,45l-0.19.15L86.87,46.2H86.18l-0.62.23-0.31.21L85,46.72l-1,.6-0.08.12-1,.48L82.78,48H82.69l-0.4.32-0.12.14-0.32,1.08-0.41.75,0,0.09v0.13l0,0.1,0.11,0.08,0,0.07,0.07,0.12L81.81,51,82,51h0.3l0.57,0.19,0.66,0.09,0.66-.1,0.56-.35-0.13.18-0.15.14-0.37.19-2,.45-0.53.38-0.19.3-0.07.06-0.18,0-0.22.19L80.55,53l-1.27.3-0.2.18L78.33,53l-0.4-.09-0.24-.16-0.14-.06H77l-0.34-.15-0.19,0-0.29.16-0.19,0-0.34-.1-1.36-.08-0.94-.36-1-.05-0.14.06L72,52.27,72,52.44,72,52.56v0.08l-0.16,0-0.08-.05-0.06-.09-0.08-.07H71.57l-0.09.06H71.42l0-.12,0,0,0-.06,0-.09,0-.13,0-.27-0.08-.19-0.61-.77-0.12-.34-0.14-.22-0.1-.24,0-.29,0.05-.06,0.07,0h0.18l0-.05,0-.11,0-.12,0.2-.14,0-.21-0.18-.37,0-.2,0-.09-0.07,0-1-.17H69.61l-0.37.12-0.12.09-0.2.28-0.12.12-0.13.06h-0.1l-0.16-.06H68.31l-0.09,0-0.11.12L68,49l-0.06,0,0-.06V48.79H67.83l-0.59-.2-0.53-.08-0.17-.06h0l-0.09,0h0l0-.06,0-.15,0-.05-0.08,0L66,48.2l-0.09,0-0.16-.12-0.08,0-0.21,0,0,0.09,0,0.18-0.06.29,0.35,0.15,0.26,0L66,48.91l0,0.12,0.06,0.14,0.06,0.17v0.2l0,0.38L66.1,50l-0.22.21-0.05.17,0,0.07,0.21,0.25,0.08,0.13,0,0.09v0.12l0.12,0.21,0,0.08,0,0.08v0.18l0,0.41,0,0.16,0.08,0.09h0.09l0.1,0,0.11,0,0,0v0l0,0.08,0.16,0.09L67,52.67l0.15,0.09,0.06-.21H67.3l0.1,0.25v0.08H67.24l0.06,0.19,0.1,0.13,0.23,0.18,0,0,0,0-0.05.06,0.12,0.14,0.13,0.45,0.13,0.15L68,54h0.17l0.21,0.1,0.17,0.05v0.07l-0.29-.08H68.07L68,54.26v0.22l0,0.24,0.05,0.23,0.07,0.19,0-.06,0,0,0.1,0.08-0.16.11-0.05.07-0.06.16,0,0.16v0.13l0,0.09,0.11,0,0,0.12,0,0.13v0.29l0,0.1,0.06,0.12,0.06,0.07,0,0,0.06-.19,0.15-.09h0.18l0.15,0.07v0.07l-0.19-.09-0.11.06-0.05.18-0.09.7,0,0.07,0.09,0,0,0.07v0.11l0,0.14-0.07-.1-0.05.12-0.06.58-0.05.14-0.08.11-0.11.05v0.09l0.19,0L68.36,59l0,0.29v0.33l0.07,0.29,0.3,0.26,0.07,0.28,0,0.07L69,60.61l0.27,0.08,0,0,0,0.07v0.08l0,0.06,0,0,0,0v0l0.31,0L69.9,61,70,61.17l-0.29-.11-0.85.19-0.63-.08-0.13,0-0.38.21-0.63.1H66.53L66.2,61.4,66,61.2V60.92l0.2-.32-0.06-.09,0-.06V60.4l0-.05-0.81.17,0,0.09H65.1l-0.07,0V60.8l0,0-0.12,0L64.77,61l-0.06.11,0,0.1,0.08,0.15,0.15,0.36L65,61.74h0.09l0.08,0,0.07,0.07L65.29,62l-0.1-.07,0,0,0-.06H65.07l0,0.19,0.12,0.21,0,0.09,0.22,0.16-0.25.16-0.08.08,0-.26,0-.16L64.85,62l0,0,0-.12-0.1,0-0.07-.09,0-.12V61.45l-0.17-.31,0-.05-0.38,0-0.35.12,0.06,0.17,0,0.08,0.06,0.07-0.1-.11h-0.1l-0.09.07-0.09.14,0.07,0.06h0v0.08l-0.12.07-0.07-.07,0-.15,0-.18v0.15l0,0.12-0.06.09-0.09,0,0-.13,0-.13-0.05-.1L63,61.5l0-.06,0-.28,0-.06-0.18.09-0.16.17-0.15.1-0.14-.11,0.22-.24,0-.07,0-.07,0-.06,0.06,0V60.75l-0.1,0-0.08,0-0.06-.09,0-.14-0.11.22-0.21.21-0.24.16-0.21.08L61.56,61l-0.17,0L61,61.09l0.15,0.07h0.07v0.08l-0.11.13-0.54.34-0.14,0-0.08.06-0.06.07-0.19.3L60,62.36l-0.13.06-0.31,0,0,0.09v0.17l0,0.11-0.11-.09-0.07-.09-0.07-.07-0.08,0H59.07l0.06-.06,0-.07,0-.08,0-.11-0.45-.22-0.19-.14-0.1,0,0,0,0-.07,0-.06,0-.05V61.45l0-.1L58.33,61l-0.52-.45-0.05-.12-0.12-.14-0.14-.13-0.12-.08V60l0,0,0.08-.07V59.68l-0.16-.06-0.4,0-0.2-.08V59.43h-0.1V59.36l0.13-.11,0.06,0,0.08,0V59.14H56.83L56.89,59,56.81,59l-0.08,0-0.08,0L56.57,59l-0.13,0-0.16.23L56,59.77H56V59.68l0.17-.23,0.05-.1,0.1-.31,0.06-.1-0.11-.09V58.78l0.06-.12V58.54l-0.06-.11-0.1-.07-0.1,0-0.15.18-0.08,0-0.07.09-0.19.17-0.24.3-0.06.12,0,0.15,0-.08V59.19l0.1-.12,0.06-.22V58.62l-0.05-.17-0.13,0-0.24.3-0.07,0H54.77l-0.09.07L54,59l-0.05,0-0.08.1-0.07,0H53.51l0-.06v0l0,0,0,0H53.51l-0.27-.16-0.25,0-0.07-.06h0l0,0.1-0.17.31-0.23.1-0.08.1,0,0.2,0.27,0.34L52.76,60l-0.41.07,0,0.08,0,0.18,0.08,0.28-0.11.06H52.08l-0.19-.06v-0.2l-0.28.08H51.5l-0.09,0-0.18-.16-0.09,0-0.37,0-0.15,0-0.1-.15v0.14l0,0.06,0,0.06-0.1-.08-0.06.14,0,0.23,0,0.21-0.06-.06,0,0,0-.07h0l0,0.24,0,0.1,0,0.07-0.06.08,0.06,0.08-0.06.08-0.1-.14L49.85,61l-0.1-.13V60.84l0,0,0.08-.07-0.16,0-0.12.06L49.37,61l0-.14V60.74l-0.05-.09-0.08-.05V60.51h0.05V60.43l-0.09,0V60.34l0-.09,0-.12,0,0-0.28.08-0.17.1-0.1,0-0.11,0,0,0.11v0.09l0,0.07-0.05.06h0l0-.09,0-.06h0l0,0.07-0.14-.09H48l-0.19,0-0.15.06-0.13.1-0.14.14,0,0.12,0.15,0v0.09H47.36L47.18,61l-0.1,0L47,61l-0.24.15-0.19,0,0.06-.26-0.15-.17H46.28l-0.21.08L45.84,61l-0.23,0v0.09h0l0.11,0.07H45.59l-0.26.13-0.18,0H44.52v0.07l0.07,0,0,0v0l0,0.05,0.22,0.09H44.64l-0.36-.09-0.1.07,0.06,0.16,0.18,0.25-0.1,0L44.05,62l-0.15,0-0.25,0L43.5,62l-0.13.09,0.06,0.09-0.09,0-0.08-.06-0.14.21-0.2.37L42.85,63,43,63.14v0.07l-0.15,0-0.09.17,0,0.22v0.23l0.14,0.32v0.15l-0.15,0,0.05,0.25,0.07,0.12,0.11,0h0.4l0.07,0V64.57l0,0,0.15,0,0.28,0.11,0.14,0,0.15,0,0.24-.12,0.39-.1,0.5-.32L45.61,64,46.15,64l0.16-.06,0.25-.14,0.14,0-0.76.45-0.09.07-0.45.55v0.07h0.11l0.11,0,0.09,0,0.07-.06,0.06,0.08,0,0h0l0,0,0.18,0,0.25-.18,0.12,0.05,0-.05,0-.06,0-.06h0.06v0.09H46.42V64.7l0.12,0,0.18-.13h0.13l-0.15.17-0.08.06,0,0.05v0.05l-0.07,0,0,0L46.42,65l0.34,0,0.05,0,0,0.12,0.1,0,0.11,0,0.07-.1,0,0.14,0.09,0,0.25,0v0.09l-0.65.14-0.16-.06h0.12l0.05,0,0-.05-0.53,0L46,65.42h-0.1l-0.1,0-0.06,0-0.05-.05-0.08,0-0.71.05-0.22-.1,0.1-.44-0.13-.06-0.1.1-0.14.37,0,0,0,0.08,0,0.08-0.1,0-0.09,0-0.07,0H44.11l-0.09,0,0,0.12,0,0.13,0.48,0,0.1,0,0.05,0.12,0,0-0.06.05,0,0.14,0,0.09,0,0.1,0.09,0.14,0,0.08-0.07.25,0.21-.07,0.14-.23L45,66.17,45.15,66l0.22-.08,0.42,0.27,0.2-.07,0,0.08,0,0.07,0.05,0.06,0.06,0,0.34,0.08,0.11,0.11,0,0.27,0,0.08L46.78,67l0,0.13-0.08.34,0,0.09-0.12.05-0.46-.14L43.57,68l0,0L43.46,68h0l0,0v0.09l0,0.09,0,0.07,0,0.07-0.05,0,0.6,0.17,0.27,0,0.14,0,0.24,0.23,0.1-.06,0.1-.12,0.11-.07,0.08,0,0.7,0.56,0.38,0.49L46,69.84l0.08,0.32,0.12,0.3,0,0.21,0,0.08-0.07,0H46.1l0,0v0.07l0,0.17v0.09l1.17,0.06,0.2-.06,0.12-.07,0.26-.25V70.71H47.57V70.64l0,0,0,0-0.12-.08,0-.14,0.11,0,0.15,0.26,0.08-.08,0.07-.05,0.08,0h0.1V70.31L48,70.22l-0.11-.16,0-.18L48,69.74l0,0.19,0.08,0.18,0.1,0.14,0.1,0.06h0.13l0.1,0,0.23,0.19,0-.1,0.06,0h0.08l0.1,0,0,0.1,0,0.06-0.06,0H48.77l0.16,0,0.18-.2,0.06-.18L49.1,70l0.21,0,0.21,0.14,0.15,0.17,0,0.13,0.1,0.06,0,0h0.07l0,0.14,0,0.07,0.06,0L50,70.87l0.15,0.28v0l0.14,0,0.18,0h0.17l0.12,0.12,0.41-.23,0.07,0,0.07,0.16L51.5,71.3h0.3l0,0,0.09,0.1,0.06,0h0.27l0.28,0.07h0.13l0.09-.07,0,0.09,0,0.05,0.09,0.1L53,71.93l0.24,0.31,0,0.06,0.11,0,0.65-.16V72.09L54,72l0,0-0.06,0,0.17,0,0.24-.14,0.22-.21,0.17-.2v0.09l-0.1.08-0.07.14-0.1.26h0l-0.14,0,0,0v0.17l0,0H54.11v0.09l0.33,0,0.14,0.05,0.13,0.08v0.07l-0.32-.11H54.25l-0.14.06h0.21l0.35,0.09,0.2,0.06,0.24,0.27,0.06,0,0.07,0,0-.11,0-.11,0.11-.05-0.08-.12,0,0,0.11,0,0.06-.08,0.06,0,0.1,0.07V72.27h0l0-.16,0-.12-0.08-.09-0.11,0,0.13,0,0.11,0.06,0.09,0,0.06-.13h0v0.33l0,0L56,72l0,0v0.2l0,0.06,0,0.06-0.6.28-0.1.33,0,0.15,0,0.07,0.08,0,0.09,0,0.08,0,0.11,0.13,0.09,0.15,0.06,0.2,0,0.27,0,0.16-0.07.2,0,0.13v0.11L55.91,75h0L56,74.94l0.17,0h0.11l-0.18-.21L56,74.51l0-.34,0.09-.4,0,0,0,0,0,0L56,73.58h0.09l0.09,0.06,0.08,0.07-0.05,0-0.05,0,0.11,0.07h0.13l0.25-.14,0.05,0.05,0,0h0.11l0-.16,0-.13,0.05,0,0,0.18,0,0.15,0.07,0,0-.07,0-.16,0.11,0.1,0.09,0.12,0.07,0.08,0.07,0L57.42,74l0,0,0,0v0l0-.08-0.08-.08-0.09-.12-0.07-.13,0-.12V73.05l0-.15V72.81h0.06l0,0.15,0.05,0.11,0.08,0.06h0.11l-0.07.06,0,0.09V73.4l0,0.14h0.05l0-.05,0,0,0.1,0v0.09H57.6v0.07l0.26-.06L58,73.48l0.07-.14,0.08-.08,0.41,0,0.16-.08-0.11-.07,0.25,0L59,73.17l0.09,0.13-0.16-.06-0.17,0,0.4,0.26,0,0.07h0.09l0,0,0-.06-0.11-.08,0.1,0,0-.06V73.21l-0.08-.08V73.06l0.18,0.23,0,0.22-0.31.43L59.18,74,59,74.13l-0.22,0-0.2-.07-0.12-.15,0,0.17v0.08l-0.07-.07-0.05,0,0,0,0,0.07H58.15L58,74H57.81l-0.13.1,0.14,0.05v0.07h0.11l0.08,0,0,0.06h0l0.12,0.23,0,0,0.11,0.1,0.1,0.05h0.27l0.41-.14h0.13l0.26,0.09,0.11-.06V74.34l0.09,0.06,0.09,0H60l0-.08,0,0,0,0H59.84l0.14,0h0.12l0.11,0,0.12-.12-0.06.16-0.12.13L60,74.48l-0.12,0L60,74.58h0l0,0,0.07,0h0.3l0.26-.09h0.1l0.13,0,0.61,0.24h0.15l0.21,0,0.13,0H61.85l-0.29.08-0.5,0L61,74.84,61.09,75,61,75.22l0.1,0.06,0.17,0,0.13,0.09-0.07.17,0.13,0.05h0.2l0.12,0,0,0.08-0.27.15L61.42,76l-0.06-.07,0,0h0l0-.07-0.13,0-0.08,0H61.12l-0.63.38,0.33,0.22,0.09,0.18v0.34H61l0-.11v0l0-.08,0,0,0,0,0.06,0,0.12,0.17,0.16,0.16L61.44,77l-0.14.16-0.18,0L60.78,77,60.6,77v0.08l0.75,0.39h0.23V77.37l0-.08,0.06-.06h0.13l0.13,0,0.13,0.07,0.19,0.23,0.12,0.11,0.14,0.06H62.7l0.15-.06L63,77.46l0.24-.07,0.08-.07,0-.07,0-.08,0.05-.09,0.25-.15,1.1-.08,0.3,0.09,0.11,0.11,0.07,0,0.19,0,0.16,0.05,0.27,0.17,0.28,0.23,0.24,0.29,0.14,0.11L66.92,78l0.16,0.11H66.65L66.47,78l-0.18-.19-0.08-.05-0.33-.07-0.33-.24V77.39h0.16l-0.07-.07-0.08-.05-0.09,0H65.39l0.05,0.08H65.33l-0.41-.11-0.06-.06-0.06-.08H64.74l-0.05,0-0.05,0-0.73.08-0.19.08-0.07.1-0.05.14,0,0.15v0.13l0,0.18,0.08,0.18v0.16l0,0.17,0,0.1-0.06,0-0.26,0-0.09.07-0.09.08-0.1.07,0.28,0.16,0.92,0.16,0.48,0.27,0.12,0.12,0.09,0.13L65,80v0.2l-0.14.11-0.09.21-0.13.42-0.1.17-0.3.19-0.12.12,0,0.16-0.2.15-0.05.12,0,0.25v0.2l0,0.22L64,82.67l0.09,0.07,0.21,0.07L64.51,83,65,83.45l0.24,0.48L65.26,84h0.13l0.13,0,0.1,0.08,0.08,0.3,0.1,0.11,0.12,0.11L66,84.8l0,0.13,0,0.16,0.06,0.13,0.13,0.05,0,0.2,0.18,0.84,0.07,0.11,0.08,0,0,0v-0.1l0-.19V86l0.08,0.12,0.09,0.25,0.06,0.09,0.1,0.06,0.22,0.06,0.27,0.24,0.42,0.07L68,87l-0.07.14,0.22,0.07,0.53,0,0.22,0L69,87.42l0.13,0.21,0,0.29,0.09,0.25h0.2L69.92,88l0.11,0,0.18,0.16,0.24,0.15,0.08,0,0.13,0,0.14,0.22L71,88.84l0.21,0.06V88.54l0.29-.18,0.36,0L72,88.63l0,0.16,0,0.1V89L72,89.13l-0.55.34-0.09.15,0,0.22-0.07,0-0.08.1-0.05.11v0.1l0.08,0.08h0.14l0.08,0h0.16v0.14l0,0,0.06,0,0.19,0.14-0.1.09v0l0,0,0,0.05,0,0,0.1,0,0,0v0.15l0.06,0.15v0.11l0,0.09,0.15,0.06,0.05,0,0,0.06,0,0.05v0.07l-0.09.19L72.28,92H72.15L72,91.88l0.11,0.38,0.09,0.15,0.13,0.09,0,0-0.08.08,0,0,0,0.06,0.06,0.1,0,0.12v0.12l0,0.13-0.05,0H72.09L72,93.28l-0.09.08,0,0.05,0,0.07-0.06.07-0.09,0,0.07,0.12,0.05,0.17,0,0.17v0.13l0,0.1,0.2,0.24,0.72,0.58L73,95.31l-0.56-.26L72.31,95l-0.09-.06-0.51-.6H71.56L71,94.46V94.6l-0.14.79L71,95.45l0.28-.06,0.15,0.11,0.1,0.13,0.11,0.11,0.13,0.08,0.15,0L72.2,96l0.43,0.43,0.26,0.1,0,0,0,0.21,0,0,1.13,0.82L74.49,98l0.18,0.28,0.16,0.32,0.26,0.71,0.1,0.44,0.3,2.15,0.1,0.36,0.14,0.29L76,102.8l0.35,0.11,0.32,0.16,0.2,0.35-0.18-.15-0.18-.09-0.2,0H76.08l0.19,0.12,0.18,0.18,0.09,0.24-0.08.3,0,0.14,0,0.32,0,0.16-0.11-.08-0.07-.18,0-.23v-0.23l0-.18v-0.1l-0.07-.14-0.07-.08L76,103.2l-0.3-.3-0.27-.35-0.27-.65,0-.13-0.15-1-0.11-.42,0-.23-0.09-.34-0.22-.33-1-1.07-0.12,0-0.33-.19-0.53-.41-0.07-.09-0.08-.13,0-.06V97.35l0-.06,0,0V97l0-.05-0.08,0-0.13,0-0.11.17-0.27.55,0,0.17-0.14,2.38L71.28,102l-0.48,5.52,0.05-.12,0.07-.27,0.09-.49,0.36-.55,0.05-.11,0,0v-0.09l0,0h0.05l0,0,0,0,0,0,0.09,0,0.6,0.56,0.08,0.16H72.31l0.2,0.21v0.17l-0.16.11-0.28,0-0.49-.12h-0.2l-0.16.2-0.14.51,0,0.13,0,0.07-0.21.31v0.09l0.07,0.32,0,0.16-0.06.69-0.22,1.56-0.51,3.13-0.28,1.43-0.19.63-0.33,1.8-0.19.62-0.05.34-0.13.41-0.06.13-0.42.33-0.07.09,0,0.12-0.17.34-0.07.1-0.15.11-0.18.1-0.19.07-0.7.12-0.15.06-0.06.08-0.13-.09,0,0.3v0.36l0.23,0.11,0.1,0.13,0,0.21,0,0.09H67l0.09,0,0.17,0,0.16-.07H67.5l0.15,0.07,0.08,0.06v0.05l0,0.06v0.1l0.06,0.19,0,0,0.1,0H68.1l0.09,0,0-.1,0.06-.18,0.12-.07h0.16l0.25,0.07,0.33,0.17h0.09l0.09,0h0.1l0.23,0.24,0,0.4-0.09.43-0.12.34-0.1.14-0.33.35-0.07.09,0.1,0.24,0.14,0.16,0.17,0.1,0.2,0,0.22,0,0.14,0,0.07-.15,0-.28,0.06-.22,0.14-.15,0.18-.07,0.18,0-0.17.14-0.06.14,0,0.15,0.13,0.16,0.15,0.09L71.13,125l0.27,0.15,0.26,0.21,0.3,0,0.07,0,0.13,0.08,0.06,0,0.27,0,0.13,0,0.1,0.11L73,125.9l0.3,0.1,0.63,0.05,0.61-.11L74.77,126l0.15,0.38v0.08l0,0v0.06l0,0.1L75,126.76h0.24l0.27,0.17,0.14,0.12L76,127.48v0l0,0v0l0.05,0h0.16l0,0.06v0.13l0.08,0.05h0.06l0.13-.09,0.07,0v-0.26h0.2l0.43,0.2,0.24,0,0.19-.11,0.38-.3,0.07,0.07,0.06,0,0.06-.08,0-.11,0.12,0.11,0.48,0.29,0.1,0.2,0.21,0,0.23-.06,0.14-.06,0,0.19,0,0.19,0.1,0.16,0.13,0.11,0,0.06v0.08l0,0.07,0.08,0,0.1,0,0.06,0,0,0.06,0,0,0.31,0.13,0.27,0,0.61-.23,0.49-.07,0.15-.1,0.13,0,0.42,0.11,0.13,0.06,0.17,0.3L83,129l0.12,0,0.22-.31,0.14-.14,0.14-.05,0.22,0.19,0,0v0.09l0,0,0.16,0h0.16l0.3-.08,0.13,0.06,1,0,0.28,0,0.1,0,0.07-.12v-0.18l-0.05-.16L86,128.24l-0.11,0,0-.11,0,0L86,128l-0.09-.12,0.11-.3,0-.23,0-.16,0.18-.07,0.22,0h0.14l0.27,0.11,0.14,0h0.15l0.14,0,0.34,0.2,0.24,0.09,0.07,0.05,0.13,0.12,0.08,0,0.08,0,0.07-.06,0.08,0,0.07,0,0.13,0.11,0.06,0,0.68,0,0.17,0.05L89.61,128l0.08,0.15,0.06,0.17,0.08,0.15,0.14,0.1h0.09l0.27-.09h1l0.19,0.05,0,0.15,0,0h0.08l0.07,0,0.14,0.25,0.15,0.21,0.13,0.37,0.11,0.15,0.18-.07,0.12-.42h0.25l0.23-.09h0.12l0.43,0.3,0.09,0,0.9,0.09-0.07.22L94.57,130,94.75,130l0.1,0.14-0.2,0-0.15.14-0.09.22,0,0.27h0l0,0v0.06L94.58,131,95.07,131l0.17,0.07,0.45,0.31,0.19,0H96l0.12,0.06,0.11,0.18,0.1,0.4,0.07,0.17,0.16,0.13,0.1,0.06,0.11,0,0.21,0,0.13,0,0.09-.06,0.13-.14,0.19-.15,0-.06,0.06-.16,0-.06,0.13-.06,0.38,0,0.49-.15,0.25,0,0.22,0.13,0.09,0.08L99.7,132l0.25,0.06h0.13l0.06,0.17,0.12,0.17,0.15,0.12,0.15,0,0.16,0.09,0.09,0h0.08l0.05-.05,0.07-.17,0.06-.06h0.15l0.37,0.13,0.18,0H102v0l-0.1-.11-0.07-.2,0.06-.09,0.34-.26,0.14-.07h0.16l0.31,0,0.17,0,0.13-.08,0.24-.24,0.13-.07,0.13,0h0.14l0.13,0,0.26-.2,0.26,0.1,0.14-.09,0.09,0h0.29l0.05,0.12,0.06,0.1,0.08,0.08,0.09,0.06,0.16,0.05,0.2,0h0.21l0.54-.09V131.2l-0.26-.36-0.55-.56-0.08-.21-0.09-.82v-0.13l0-.06,0,0h-0.11l0,0-0.05-.08,0-.08v-0.09l0.08-.11,0.1,0.15,0,0,0-.08,0.09-.55v-0.39l0-.19,0-.09-0.09,0-0.22-.07h-0.13l-0.07,0-0.05-.07-0.05-.15-0.06-.07,0.31-.33,0.09-.05,0-.06v-0.25l0-.06,0.07,0,0.11,0.06h0.06l0.13-.12,0-.1-0.22-.18-0.09-.16,0-.17,0.07-.13,0.17,0-0.11.19,0,0.1,0,0.09,0.09,0,0-.09,0-.12,0.06-.06,0-.06,0-.14,0-.28,0-.11,0.15-.17,0-.13-0.06-.1-0.13-.08-0.13-.15-0.06-.3,0-.08,0.1,0h0.22l0,0-0.07.08-0.15.11v0.07l0.11,0.06,0,0.07,0,0,0.08,0,0.22-.34,0-.13,0.1-.11,0.19-.17,0.06-.1,0.08-.21,0.05-.1,0.13-.17,1.1-.84,0.29-.14,0.19,0,0.32,0.16,0.17-.07,0.65-.8,0.26-.22,0.9-.49,1.59-1.31v-0.08l-0.27.09-0.24.2-0.42.46-0.41.36-0.26.14-0.27,0v-0.07l0.67-.28,0.1-.13,0-.17,0.06-.1,0.52-.43,0.22-.13,0.49-.15,0.36-.26,0.24-.08,0.44-.06-0.08.17-0.1.11-0.13.06-0.18,0-0.37,0-0.18.06-0.1.13,0.27-.13,0.48-.05,0.46,0,0.2,0.17v0l0.16,0.58,0,0.1,0.06,0.07,0.17,0.09,0.19,0,2.46,0.08,0.35,0.07,0.21,0.17v0.19l-0.06.22-0.07.19,0,0.08,0.21,0.11,0.32,0.09,1.17,0.05,0.28-.11-0.19-.21-0.24-.17-0.22-.22-0.11-.37V119.7l0-.12-0.24-.38v-0.07l0.14,0.08,0.11,0.16,0.08,0.19,0,0.17,0,0.19,0,0.64,0.12,0.29,0.27,0.25,0.33,0.19,0.31,0.09-0.06-.18-0.08-.07,0-.06,0.07-.15,0.07-.07,0.19,0,0.09-.07,0.2-.09,0.44,0.25,0.15-.06,0.2,0.06,0.19-.13,0.09-.24-0.09-.27-0.12-.1-0.1-.05L120.7,120l0-.21,0-.08,0-.15,0.05-.14,0.05-.07,0,0,0.11,0.16,0,0h0.25l0.16,0.06,0,0.06v0.09l0.06,0.17,0.17,0.2,0.2,0,0.22-.08,0.23-.15,0,0.26-0.1.24-0.16.2-0.15.12-0.22.07H121l-0.25.14-0.11.22,0,0.25,0.21,0.22,0.2,0.05h0.5l0.12,0,0.35,0.05,1.06-.24,0.22,0.15v0.56l0,0.06,0.05,0.06,0.05,0h0v0.08l0,0.07-0.07.18-0.06.11,0,0.11,0.06,0.11,0.1,0h0.23l0.11,0.06,0.12,0h0.2l0.19,0,0.08,0.07,0,0.05,0.1,0,0.1-.06,0.14-.11,0.07,0,0.2,0.27,0.06,0.06,0.11,0,0,0,0,0h0.05l0,0,0-.05,0-.05,0,0,0.41,0,0.15,0.08,0,0.19,0.3,0.17,0.15,0.05,0.18,0,0.07,0,0,0.15,0.07,0H127l0.05,0,0,0-0.26.13-0.06.1,0,0.15,0.08,0.06,0.39,0.17h0.18l0.08-.05,0-.15,0.05-.08h0.13l0.25,0v-0.07l-0.13-.06-0.17-.19-0.13-.05,0.23-.12,0.13,0h0.13l0,0.05v0.11l0,0.06,0.19-.08h0.24l0.23,0.06,0.15,0.11,0.05,0,0.57,0,0.07,0v0.11l0,0.18,0,0h-0.28v0.07l0.15,0h0.53l0.14,0v-0.07h-0.07l-0.05,0-0.1-.06,0.08-.23,0-.19,0.06-.15,0.17-.11,0.09,0,0.54,0h0.06l0.12,0H131l0.08,0,0,0.1,0,0.1,0,0h0.29l0.07-.06-0.12-.17,0-.08V123.9l0.06-.14,0.07-.06,0.25,0,0.16-.09,0.17-.06h0.1l0.19,0,0.09,0,0.12-.09,0.13-.13,0.15-.09,0.21,0,0.08,0.07,0,0.09,0,0.09,0,0.05,0.08,0,0.15-.07,0.09,0-0.05-.15,0.33-.26,0-.07,0,0,0,0,0-.05V122.8l0-.1,0,0,0,0,0-.05,0.07-.18,0-.06-0.76,0,0,0,0-.09,0.12-.1,0.21-.11,0.18,0,0.07-.08,0-.12,0.07-.14,0.13-.11,0.12,0,0.09-.07,0.06-.32,0.06-.2,0.09-.19,0.1-.11,0.16,0.12,0.2,0.05,0.41,0v0l0-.08,0-.05,0,0.06,0,0,0,0h0.1l0,0,0-.15,0,0h0.09l0,0,0.29-.5v0h0v-0.18h0l0.1-.17,0.12-.1,0.13-.07,0.13-.1,0.18,0.08,0.19-.06,0.2-.11,0.21-.06,0,0,0,0.08,0,0.06,0.07,0,0,0v-0.71l0-.08,0.06,0,0.06-.1,0.08-.1,0.13,0H138l0.09,0,0.07,0,0.07-.06,0.15-.23,0.09-.08,0.11,0h0.08l0.39-.05,0,0.1,0,0,0.15,0,0-.1v-0.13l0.07-.11,0.13,0,0-.14,0.12-.13,0.15-.06,0.18,0.11,0.06-.08,0.08,0h0.08l0.06,0h0l0.07,0v-0.22h0.1l0.11-.07-0.16-.53,0-.28,0.12-.23,0.35-.38,0.16-.26,0.41-.35,0.18-.2,0.06-.13,0.07-.25,0.05-.13,0.09-.1,0.12-.09,0.09-.12v-0.19l-0.13-.27-0.17-.17-0.1-.21,0.11-.36-0.25,0-0.33.21-0.23,0-1.38.4h-0.32l-0.08,0-0.07-.07,0-.09-0.05-.08-0.11,0-0.21,0-0.15-.06-0.84-.52-0.32-.12-0.47-.25-0.1,0h-0.11l-0.09,0-0.1,0-0.11,0-0.07-.08,0-.1,0-.11-0.05-.11-0.07-.09-0.16-.11-0.07-.07,0-.09-0.09-.22-0.06-.11-0.18-.21,0,0,0-.1v-0.06l0-.07,0.07-.35,0.06-.1,0.27-.15-0.21-.18-0.24-.25-0.18-.31,0-.35,0.09-.15,0.41-.31,0.27-.47,0.11-.08-0.09-.24,0.06-.22,0.15-.18,0.18-.1h0.15l0.29,0.09h0.14l0-.15-0.24-.46,0-.1,0-.27-0.09-.24h0l0-.17h0v-0.12l0-.06,0-.06-0.14-.16-0.4-.16h-0.14l-0.39.08-0.15,0-0.55-.32-0.26-.23-0.14-.23v-0.63l-0.05-.32-0.21-.15-0.28,0-0.08-.07-0.1-.17,0-.1v-0.17l-0.13-.11-0.14-.21,0.09-.13,0.14-.12,0.27-.16h0.28l0.07,0,0.14-.11,0.06,0,0.28,0,0.29,0.16,0.29,0.1,0.26-.12,0-.07,0-.05,0-.06,0-.09,0.06,0h0.19l0.07,0,0.12-.11,0.14-.24,0.1-.1,0.28-.13,0.28-.08,0.06,0,0.1,0.12,0,0,0.05-.05,0.15-.28,0.22-.18v-0.18l-0.08-.23,0-.33,0-.07,0.26-.31,0.17-.29,0.07-.17V98.78l-0.06,0-0.34-.15-0.11-.08-0.06-.13-0.06-.14-0.08-.13-0.35-.26-0.36-.2-0.06-.17,0-.47,0-.08-0.09-.13,0-.09,0-.09,0.09-.2,0-.06,0-.17-0.1-.07L135.83,96,135.73,96l-0.18-.18-0.11,0-0.21,0L135,95.54l-0.16-.24-0.09-.47,0-.2v-0.2l0-.19,0.1-.17L135,94l0.24,0v0l0-.05,0-.05,0,0h0l0.06,0h0.28l0.17-.05,0.18-.09,0.16-.14,0.11-.18,0.05-.15,0.06-.14,0.08-.11,0.11-.05-0.06-.09,0-.12-0.06-.21-0.09-.24,0-.12,0,0-0.54-.61-0.18-.08-0.07,0-0.06.06-0.06,0h-0.07l-0.07-.05v0l0,0V91.35h0V91.22l0-.11h0l0-.06,0.06-.08,0.06-.09V90.81l-0.12-.12-0.63-.14-0.07-.19,0.07-.39,0.14-.41,0.28-.55-0.18-.31-0.28-.3-0.15-.26,0-.13,0.21-.25,0.06-.19,0-.22-0.07-.11-0.12-.06-1.19-.31-0.53,0-0.51.1-0.68.46-0.26.07h-0.26l-0.24.08-0.26.22-0.23.3-0.17.23,0,0.16,0,0.12,0.07,0.19v0L130.42,89l0,0.05,0.08,0,0.13-.06,0.06,0,0,0.27-0.21.22-0.51.34-0.41.47-0.26.13-0.27-.12h-0.36l-0.36.09-0.19.12,0.11-.25,0.06-.11,0-.1L128.25,90l-0.08-.16,0-.14,0.19-.12,0.48-.23h0l0.06,0h0.09l0.18-.06,0-.07V89l0.06-.33,0-.09,0.26-.58V87.85l-0.1-.17-0.12-.13L129,87.29l0.09-.09V86.92l0,0,0-.06V86.76l0-.07,0.09-.1,0.28-.48,0.28-.35-0.19-.22,0-.15,0.11-.14,1.07-1,0.57-.31,0.08-.07,0.21-.24,0.26-.14,0.08-.06,0.09-.11,0-.1V83.06L131.91,83l0-.06,0-.06V82.81l0.12-.38,0.06-.1,0-.11V82.06l0-.13-0.11-.2,0-.11,0.12-.41,0.39-.22,0.85-.27,0.53-.41,0.18-.26-0.09-.22,0.11-.18,0.07-.07,0.2-.07,0-.07,0,0,0.12-.06v-0.2l0.24-.08,0.52-.48,0.15-.25,0.23-.24,0.54-.4,0-.29,0.05-.24L136.3,77h0.07l0,0,0.12-.16,0.08,0,0.08,0,0.07,0,0.06-.13-0.08-.12-0.12-.11-0.12-.1-0.15.07-0.94.09,0-.15,0.1-.18,0.12-.15,0.21-.12V75.62l0.21,0,0.13-.07,0.12-.1,0.06-.1,0-.14L136.29,75l0-.13,0.15,0,0.07-.06,0.07,0,0.07,0,0.07,0.06,0.21,0,0.39-.07,0.19,0,0.1,0.06,0.1,0,0.22,0-0.15.33,0,0.19L138,75.5l0.23,0.07,0,0,0,0,0,0,0.06,0h0.05l0.3-.13,0.21,0,0.55,0,0.22-.09,0.16-.21,0-.11V75.08l0-.05,0,0,0-.07V74.85l0.09,0,0.13,0,0.1,0.06h0.1l0.12-.11V74.73l-0.06-.08,0,0v0l0,0,0.08,0,0.06,0,0-.07V74.35h0l-0.13-.1h0l0.35-.28,0.19-.11,0.28-.1h0l0-.12,0,0,0-.11,0-.06,0,0,0-.06-0.18-.36-0.11-.15-0.12-.06,0-.06,0-.13,0-.25,0-.07,0.13-.14,0-.08V71.82l-0.1-.41,0-.17,0.11-.38,0-.06,0.11-.06,0-.13,0-.22V70.23l0-.05,0.05-.05,0-.06,0.05-.12V69.7l0-.16,0.21-.23,0.07-.14,0-.37-0.34-.61,0-.49,0.05-.23,0.05-.18,0.06-.1,0.05-.07,0-.09,0-.17,0.05-.14,0.5-.71,0.08-.17,0.05-.2,0-.24,0.06-.25L142.2,65l0.15-.08,0.11-.18V64.61l0-.16-0.05-.15,0-.14V64l0.06-.32,0-.13,0.06-.11,0.05-.08,0-.11,0-.23,0-.11,0.1-.1,0.2-.16V62.57l-0.09-.25V61.9l0.07-.39,0.33-.52,0.09-.07,0.13,0,0.12-.11,0.22-.26,0.1-.06,0.11-.1,0.08-.11,0-.1V59.9l0-.11,0.09,0h0.23l0.06,0,0,0,0-.06,0-.11,0-.06,0,0,0,0h0.07l0.29-.16,0,0,0.1-.17,0.36-1,0.25-.47,0.17-.19-0.09-.09ZM96.69,131.45l-0.08,0h0l-0.18,0-0.11-.08,0-.14,0.09-.19,0.09,0,0.08,0.12,0.08,0.18,0.09,0.15h0Z" transform="translate(-1.77 -1.26)"/><path class="cls-2" d="M160.59,29c-15.78.22-37.68,15.54-43.83,31.46" transform="translate(-1.77 -1.26)"/><path class="cls-3" d="M116.79,60.35a1.59,1.59,0,0,1,1,0,2.93,2.93,0,0,0-1.34.76,3.09,3.09,0,0,0-.48-1.46A1.64,1.64,0,0,1,116.79,60.35Z" transform="translate(-1.77 -1.26)"/><path class="cls-4" d="M173.09,27.31H172.2l-1.53-2.38h-1.2v2.38h-0.75v-6h2.41a1.9,1.9,0,0,1,1.36.5,1.73,1.73,0,0,1,.52,1.31,1.65,1.65,0,0,1-1.56,1.75Zm-2-3a1.18,1.18,0,0,0,.86-0.32,1.1,1.1,0,0,0,.33-0.83,1.09,1.09,0,0,0-.33-0.82,1.2,1.2,0,0,0-.86-0.32h-1.58v2.29h1.58Z" transform="translate(-1.77 -1.26)"/><path class="cls-4" d="M177.78,27.31h-0.67V26.7a2.23,2.23,0,0,1-.68.51,1.9,1.9,0,0,1-.87.21A1.22,1.22,0,0,1,174.17,26V23h0.67v2.86a1,1,0,0,0,.25.76,1,1,0,0,0,.72.23,1.54,1.54,0,0,0,.73-0.19,1.56,1.56,0,0,0,.55-0.47V23h0.67v4.35Z" transform="translate(-1.77 -1.26)"/><path class="cls-4" d="M180.51,27.42a2.3,2.3,0,0,1-1.75-.68l0.35-.49a1.77,1.77,0,0,0,.62.44,1.93,1.93,0,0,0,.81.18,1.22,1.22,0,0,0,.76-0.21,0.65,0.65,0,0,0,.27-0.54,0.51,0.51,0,0,0-.28-0.45,2.24,2.24,0,0,0-.67-0.25l-0.79-.2a1.54,1.54,0,0,1-.67-0.39,1,1,0,0,1-.28-0.72,1.11,1.11,0,0,1,.44-0.89,1.81,1.81,0,0,1,1.18-.36,2.18,2.18,0,0,1,1.61.63l-0.31.47a1.6,1.6,0,0,0-1.3-.55,1.15,1.15,0,0,0-.7.19,0.59,0.59,0,0,0-.26.49,0.45,0.45,0,0,0,.28.41,2.61,2.61,0,0,0,.67.23q0.39,0.09.79,0.2a1.5,1.5,0,0,1,.67.41,1.05,1.05,0,0,1,.28.76,1.17,1.17,0,0,1-.45.94A1.94,1.94,0,0,1,180.51,27.42Z" transform="translate(-1.77 -1.26)"/><path class="cls-4" d="M184.7,27.42a2.3,2.3,0,0,1-1.75-.68l0.35-.49a1.77,1.77,0,0,0,.62.44,1.93,1.93,0,0,0,.81.18,1.22,1.22,0,0,0,.76-0.21,0.65,0.65,0,0,0,.27-0.54,0.51,0.51,0,0,0-.28-0.45,2.25,2.25,0,0,0-.67-0.25l-0.79-.2a1.55,1.55,0,0,1-.67-0.39,1,1,0,0,1-.28-0.72,1.11,1.11,0,0,1,.44-0.89,1.81,1.81,0,0,1,1.18-.36,2.18,2.18,0,0,1,1.61.63L186,24a1.6,1.6,0,0,0-1.3-.55,1.15,1.15,0,0,0-.7.19,0.59,0.59,0,0,0-.26.49,0.45,0.45,0,0,0,.28.41,2.59,2.59,0,0,0,.67.23c0.26,0.06.52,0.12,0.79,0.2a1.5,1.5,0,0,1,.67.41,1.06,1.06,0,0,1,.28.76,1.17,1.17,0,0,1-.45.94A1.93,1.93,0,0,1,184.7,27.42Z" transform="translate(-1.77 -1.26)"/><path class="cls-4" d="M187.84,22.35a0.44,0.44,0,0,1-.32-0.13,0.43,0.43,0,0,1-.13-0.32,0.44,0.44,0,0,1,.13-0.32,0.43,0.43,0,0,1,.32-0.13,0.46,0.46,0,0,1,.46.46,0.43,0.43,0,0,1-.13.32A0.45,0.45,0,0,1,187.84,22.35Zm0.34,5H187.5V23h0.68v4.35Z" transform="translate(-1.77 -1.26)"/><path class="cls-4" d="M192.92,27.31h-0.67v-0.5a1.86,1.86,0,0,1-1.44.6,1.6,1.6,0,0,1-1.06-.39,1.31,1.31,0,0,1-.46-1.05,1.29,1.29,0,0,1,.45-1.06,1.63,1.63,0,0,1,1.07-.37,1.8,1.8,0,0,1,1.44.59V24.36a0.82,0.82,0,0,0-.31-0.67,1.24,1.24,0,0,0-.79-0.24,1.77,1.77,0,0,0-1.33.6l-0.31-.47a2.31,2.31,0,0,1,1.74-.72,1.94,1.94,0,0,1,1.22.36,1.31,1.31,0,0,1,.47,1.11v3ZM191,26.94a1.37,1.37,0,0,0,1.2-.54V25.58A1.37,1.37,0,0,0,191,25a1.12,1.12,0,0,0-.77.27,0.88,0.88,0,0,0-.3.69,0.87,0.87,0,0,0,.3.68A1.12,1.12,0,0,0,191,26.94Z" transform="translate(-1.77 -1.26)"/><path class="cls-4" d="M171.57,54.83a3.11,3.11,0,1,1,0-6.21,2.64,2.64,0,0,1,2.28,1.19l-0.63.35a2,2,0,0,0-.7-0.63,1.93,1.93,0,0,0-.95-0.24,2.19,2.19,0,0,0-1.65.69,2.65,2.65,0,0,0,0,3.5,2.19,2.19,0,0,0,1.65.69,2,2,0,0,0,.95-0.24,1.92,1.92,0,0,0,.7-0.63l0.64,0.35A2.71,2.71,0,0,1,171.57,54.83Z" transform="translate(-1.77 -1.26)"/><path class="cls-4" d="M178.4,54.72h-0.67V51.86a1,1,0,0,0-.25-0.77,1.06,1.06,0,0,0-.73-0.23,1.47,1.47,0,0,0-.72.2,1.71,1.71,0,0,0-.56.48v3.18h-0.68v-6h0.68V51a2.21,2.21,0,0,1,.67-0.52,1.89,1.89,0,0,1,.88-0.22,1.23,1.23,0,0,1,1.39,1.39v3.07Z" transform="translate(-1.77 -1.26)"/><path class="cls-4" d="M180.09,49.76a0.44,0.44,0,0,1-.31-0.13,0.43,0.43,0,0,1-.13-0.32,0.44,0.44,0,0,1,.13-0.32,0.43,0.43,0,0,1,.31-0.13,0.46,0.46,0,0,1,.46.46,0.43,0.43,0,0,1-.13.32A0.45,0.45,0,0,1,180.09,49.76Zm0.34,5h-0.67V50.38h0.67v4.35Z" transform="translate(-1.77 -1.26)"/><path class="cls-4" d="M185.39,54.72h-0.67V51.88a1,1,0,0,0-.25-0.78,1,1,0,0,0-.72-0.23,1.49,1.49,0,0,0-.73.2,1.64,1.64,0,0,0-.55.48v3.18h-0.68V50.38h0.68V51a2.2,2.2,0,0,1,.67-0.52,1.87,1.87,0,0,1,.87-0.22,1.23,1.23,0,0,1,1.39,1.4v3.05Z" transform="translate(-1.77 -1.26)"/><path class="cls-4" d="M190.13,54.72h-0.67v-0.5a1.85,1.85,0,0,1-1.44.6,1.6,1.6,0,0,1-1.06-.39,1.3,1.3,0,0,1-.46-1.05,1.29,1.29,0,0,1,.46-1.06A1.63,1.63,0,0,1,188,52a1.8,1.8,0,0,1,1.44.59V51.77a0.81,0.81,0,0,0-.31-0.67,1.23,1.23,0,0,0-.79-0.24,1.77,1.77,0,0,0-1.33.6L186.71,51a2.31,2.31,0,0,1,1.74-.72,1.94,1.94,0,0,1,1.21.36,1.31,1.31,0,0,1,.47,1.11v3Zm-1.87-.38a1.37,1.37,0,0,0,1.2-.54V53a1.37,1.37,0,0,0-1.2-.54,1.12,1.12,0,0,0-.77.27,0.87,0.87,0,0,0-.3.69,0.86,0.86,0,0,0,.3.68A1.12,1.12,0,0,0,188.26,54.35Z" transform="translate(-1.77 -1.26)"/><path class="cls-4" d="M171.47,84.45h-2.74v-6h2.67a1.73,1.73,0,0,1,1.23.42,1.44,1.44,0,0,1,.45,1.11,1.39,1.39,0,0,1-.31.91,1.28,1.28,0,0,1-.75.46,1.29,1.29,0,0,1,.82.5,1.51,1.51,0,0,1,.35,1,1.56,1.56,0,0,1-.46,1.17A1.76,1.76,0,0,1,171.47,84.45ZM171.28,81a1,1,0,0,0,.77-0.27,1,1,0,0,0,0-1.39,1,1,0,0,0-.76-0.27h-1.8V81h1.8Zm0,2.74a1.15,1.15,0,0,0,.82-0.28,1,1,0,0,0,.3-0.76,1,1,0,0,0-.29-0.74,1.1,1.1,0,0,0-.82-0.3h-1.84v2.07h1.84Z" transform="translate(-1.77 -1.26)"/><path class="cls-4" d="M177.76,84.45h-0.68V84a1.85,1.85,0,0,1-1.44.6,1.6,1.6,0,0,1-1.06-.39,1.31,1.31,0,0,1-.46-1.05,1.29,1.29,0,0,1,.46-1.06,1.63,1.63,0,0,1,1.07-.37,1.8,1.8,0,0,1,1.44.59V81.49a0.81,0.81,0,0,0-.31-0.67,1.23,1.23,0,0,0-.79-0.24,1.77,1.77,0,0,0-1.33.6l-0.31-.47a2.31,2.31,0,0,1,1.74-.72,1.94,1.94,0,0,1,1.21.36,1.31,1.31,0,0,1,.47,1.11v3Zm-1.87-.38a1.37,1.37,0,0,0,1.2-.54V82.71a1.37,1.37,0,0,0-1.2-.54,1.12,1.12,0,0,0-.77.27,0.88,0.88,0,0,0-.3.69,0.87,0.87,0,0,0,.3.68A1.12,1.12,0,0,0,175.88,84.07Z" transform="translate(-1.77 -1.26)"/><path class="cls-4" d="M182.72,84.45H182V81.6a1,1,0,0,0-.25-0.78,1,1,0,0,0-.72-0.23,1.49,1.49,0,0,0-.73.2,1.63,1.63,0,0,0-.55.48v3.18h-0.68V80.1h0.68v0.63a2.21,2.21,0,0,1,.67-0.52,1.87,1.87,0,0,1,.87-0.22,1.23,1.23,0,0,1,1.39,1.4v3.05Z" transform="translate(-1.77 -1.26)"/><path class="cls-4" d="M185.81,86.21a3,3,0,0,1-1-.14,2.05,2.05,0,0,1-.77-0.51l0.34-.5a1.74,1.74,0,0,0,1.41.59,1.54,1.54,0,0,0,1-.32,1.19,1.19,0,0,0,.4-1V83.72a1.88,1.88,0,0,1-.63.56,1.68,1.68,0,0,1-.83.22,1.78,1.78,0,0,1-1.4-.61,2.79,2.79,0,0,1,0-3.29,1.77,1.77,0,0,1,1.4-.61,1.74,1.74,0,0,1,1.46.77V80.1h0.68v4.22a1.7,1.7,0,0,1-.59,1.44A2.38,2.38,0,0,1,185.81,86.21Zm0.1-2.3a1.5,1.5,0,0,0,.75-0.21,1.45,1.45,0,0,0,.54-0.5V81.3a1.42,1.42,0,0,0-.54-0.5,1.52,1.52,0,0,0-.76-0.2,1.24,1.24,0,0,0-1,.46,2.09,2.09,0,0,0,0,2.39A1.24,1.24,0,0,0,185.91,83.91Z" transform="translate(-1.77 -1.26)"/><path class="cls-4" d="M189.91,84.45h-0.68v-6h0.68v6Z" transform="translate(-1.77 -1.26)"/><path class="cls-4" d="M194.65,84.45H194V84a1.86,1.86,0,0,1-1.44.6,1.6,1.6,0,0,1-1.06-.39,1.31,1.31,0,0,1-.46-1.05,1.29,1.29,0,0,1,.45-1.06,1.63,1.63,0,0,1,1.07-.37,1.8,1.8,0,0,1,1.44.59V81.49a0.82,0.82,0,0,0-.31-0.67,1.24,1.24,0,0,0-.79-0.24,1.77,1.77,0,0,0-1.33.6l-0.31-.47A2.31,2.31,0,0,1,193,80a1.94,1.94,0,0,1,1.22.36,1.31,1.31,0,0,1,.47,1.11v3Zm-1.87-.38a1.37,1.37,0,0,0,1.2-.54V82.71a1.37,1.37,0,0,0-1.2-.54,1.12,1.12,0,0,0-.77.27,0.88,0.88,0,0,0-.3.69,0.87,0.87,0,0,0,.3.68A1.12,1.12,0,0,0,192.78,84.07Z" transform="translate(-1.77 -1.26)"/><path class="cls-4" d="M199.83,84.45h-0.68V83.8a1.74,1.74,0,0,1-1.47.76,1.76,1.76,0,0,1-1.4-.62,2.84,2.84,0,0,1,0-3.32,1.83,1.83,0,0,1,2.87.14V78.44h0.68v6Zm-2-.5a1.55,1.55,0,0,0,.76-0.2,1.49,1.49,0,0,0,.55-0.49v-2a1.49,1.49,0,0,0-.55-0.5,1.53,1.53,0,0,0-.75-0.2,1.24,1.24,0,0,0-1,.47,2.12,2.12,0,0,0,0,2.42A1.24,1.24,0,0,0,197.85,84Z" transform="translate(-1.77 -1.26)"/><path class="cls-4" d="M203.14,84.55a2.13,2.13,0,0,1-1.59-.63,2.26,2.26,0,0,1-.62-1.65,2.29,2.29,0,0,1,.61-1.62,2,2,0,0,1,1.53-.66,1.9,1.9,0,0,1,1.53.66,2.49,2.49,0,0,1,.56,1.67v0.17h-3.52a1.64,1.64,0,0,0,.47,1.07,1.47,1.47,0,0,0,1.1.43,1.78,1.78,0,0,0,1.34-.55l0.32,0.44A2.33,2.33,0,0,1,203.14,84.55ZM204.49,82a1.57,1.57,0,0,0-.38-1,1.29,1.29,0,0,0-1.05-.45,1.27,1.27,0,0,0-1,.44,1.64,1.64,0,0,0-.4,1h2.85Z" transform="translate(-1.77 -1.26)"/><path class="cls-4" d="M207.62,84.55a2.3,2.3,0,0,1-1.75-.68l0.35-.49a1.77,1.77,0,0,0,.62.44,1.93,1.93,0,0,0,.81.18,1.22,1.22,0,0,0,.76-0.21,0.65,0.65,0,0,0,.27-0.54,0.51,0.51,0,0,0-.28-0.45,2.24,2.24,0,0,0-.67-0.25l-0.79-.2a1.56,1.56,0,0,1-.68-0.39,1,1,0,0,1-.28-0.72,1.11,1.11,0,0,1,.44-0.89A1.81,1.81,0,0,1,207.6,80a2.18,2.18,0,0,1,1.61.63l-0.32.47a1.59,1.59,0,0,0-1.3-.55,1.15,1.15,0,0,0-.7.19,0.59,0.59,0,0,0-.26.49,0.45,0.45,0,0,0,.28.41,2.58,2.58,0,0,0,.67.23c0.26,0.06.52,0.12,0.79,0.2a1.51,1.51,0,0,1,.68.41,1.06,1.06,0,0,1,.28.76,1.17,1.17,0,0,1-.45.94A1.93,1.93,0,0,1,207.62,84.55Z" transform="translate(-1.77 -1.26)"/><path class="cls-4" d="M214,84.45h-0.67V81.58a1,1,0,0,0-.25-0.77,1.07,1.07,0,0,0-.73-0.23,1.47,1.47,0,0,0-.72.2,1.73,1.73,0,0,0-.56.48v3.18h-0.67v-6h0.67v2.29a2.2,2.2,0,0,1,.67-0.52,1.89,1.89,0,0,1,.88-0.22A1.22,1.22,0,0,1,214,81.38v3.07Z" transform="translate(-1.77 -1.26)"/><path class="cls-4" d="M173.28,112.35h-0.93l-2.28-2.7-0.6.68v2h-0.75v-6h0.75v3.1l2.66-3.1h0.94l-2.5,2.85Z" transform="translate(-1.77 -1.26)"/><path class="cls-4" d="M177.27,111.8a2.18,2.18,0,0,1-3.12,0,2.54,2.54,0,0,1,0-3.25,2.2,2.2,0,0,1,3.12,0A2.54,2.54,0,0,1,177.27,111.8Zm-2.62-.44a1.38,1.38,0,0,0,2.11,0,2,2,0,0,0,0-2.38,1.38,1.38,0,0,0-2.11,0A2,2,0,0,0,174.65,111.36Z" transform="translate(-1.77 -1.26)"/><path class="cls-4" d="M180.33,112.46a2.3,2.3,0,0,1-1.75-.68l0.35-.49a1.77,1.77,0,0,0,.62.44,1.93,1.93,0,0,0,.81.18,1.22,1.22,0,0,0,.76-0.21,0.65,0.65,0,0,0,.27-0.54,0.51,0.51,0,0,0-.28-0.45,2.24,2.24,0,0,0-.67-0.25l-0.79-.2a1.54,1.54,0,0,1-.67-0.39,1,1,0,0,1-.28-0.72,1.11,1.11,0,0,1,.44-0.89,1.81,1.81,0,0,1,1.18-.36,2.18,2.18,0,0,1,1.61.63l-0.31.47a1.6,1.6,0,0,0-1.3-.55,1.15,1.15,0,0,0-.7.19,0.59,0.59,0,0,0-.26.49,0.45,0.45,0,0,0,.28.41,2.61,2.61,0,0,0,.67.23q0.39,0.09.79,0.2a1.5,1.5,0,0,1,.67.41,1.05,1.05,0,0,1,.28.76,1.17,1.17,0,0,1-.45.94A1.94,1.94,0,0,1,180.33,112.46Z" transform="translate(-1.77 -1.26)"/><path class="cls-4" d="M186.6,111.8a2.18,2.18,0,0,1-3.12,0,2.54,2.54,0,0,1,0-3.25,2.2,2.2,0,0,1,3.12,0A2.54,2.54,0,0,1,186.6,111.8Zm-2.62-.44a1.28,1.28,0,0,0,1.06.49,1.27,1.27,0,0,0,1.05-.49,2,2,0,0,0,0-2.38,1.39,1.39,0,0,0-2.11,0A2,2,0,0,0,184,111.36Z" transform="translate(-1.77 -1.26)"/><path class="cls-4" d="M190.19,112.35h-0.74L187.64,108h0.73l1.45,3.56,1.44-3.56H192Z" transform="translate(-1.77 -1.26)"/><path class="cls-4" d="M196.16,111.8a2.18,2.18,0,0,1-3.12,0,2.54,2.54,0,0,1,0-3.25,2.2,2.2,0,0,1,3.12,0A2.54,2.54,0,0,1,196.16,111.8Zm-2.62-.44a1.38,1.38,0,0,0,2.11,0,2,2,0,0,0,0-2.38,1.38,1.38,0,0,0-2.11,0A2,2,0,0,0,193.54,111.36Z" transform="translate(-1.77 -1.26)"/><path class="cls-4" d="M7.53,25.4H6.67L6.14,24.07h-3L2.62,25.4H1.77l2.41-6H5.1Zm-1.61-2L4.65,20.17,3.37,23.4H5.91Z" transform="translate(-1.77 -1.26)"/><path class="cls-4" d="M9,25.4H8.28v-6H9v6Z" transform="translate(-1.77 -1.26)"/><path class="cls-4" d="M11,25.4H10.31v-6H11v2.31a1.83,1.83,0,0,1,2.86-.14,2.46,2.46,0,0,1,.54,1.66,2.44,2.44,0,0,1-.54,1.66,1.77,1.77,0,0,1-1.4.62A1.74,1.74,0,0,1,11,24.75V25.4Zm0-1.18a1.42,1.42,0,0,0,.54.49,1.56,1.56,0,0,0,.75.2,1.25,1.25,0,0,0,1-.47,2.12,2.12,0,0,0,0-2.42,1.24,1.24,0,0,0-1-.47,1.53,1.53,0,0,0-.75.2,1.43,1.43,0,0,0-.54.5v2Z" transform="translate(-1.77 -1.26)"/><path class="cls-4" d="M18.87,25.4H18.2V24.9a1.85,1.85,0,0,1-1.44.6,1.6,1.6,0,0,1-1.06-.39,1.3,1.3,0,0,1-.46-1.05A1.29,1.29,0,0,1,15.69,23a1.63,1.63,0,0,1,1.07-.37,1.8,1.8,0,0,1,1.44.59V22.45a0.81,0.81,0,0,0-.31-0.67,1.23,1.23,0,0,0-.79-0.24,1.77,1.77,0,0,0-1.33.6l-0.32-.47a2.31,2.31,0,0,1,1.74-.72,1.94,1.94,0,0,1,1.21.36,1.31,1.31,0,0,1,.47,1.11v3ZM17,25a1.37,1.37,0,0,0,1.2-.54V23.66a1.37,1.37,0,0,0-1.2-.54,1.12,1.12,0,0,0-.77.27,0.87,0.87,0,0,0-.3.69,0.86,0.86,0,0,0,.3.68A1.12,1.12,0,0,0,17,25Z" transform="translate(-1.77 -1.26)"/><path class="cls-4" d="M23.83,25.4H23.16V22.55a1,1,0,0,0-.25-0.78,1,1,0,0,0-.72-0.23,1.48,1.48,0,0,0-.73.2,1.64,1.64,0,0,0-.55.48V25.4H20.22V21.05H20.9v0.63a2.2,2.2,0,0,1,.67-0.52,1.87,1.87,0,0,1,.87-0.22,1.23,1.23,0,0,1,1.39,1.4V25.4Z" transform="translate(-1.77 -1.26)"/><path class="cls-4" d="M25.52,20.43a0.44,0.44,0,0,1-.31-0.13A0.43,0.43,0,0,1,25.07,20a0.44,0.44,0,0,1,.13-0.32,0.43,0.43,0,0,1,.31-0.13A0.46,0.46,0,0,1,26,20a0.43,0.43,0,0,1-.13.32A0.45,0.45,0,0,1,25.52,20.43Zm0.34,5H25.18V21.05h0.67V25.4Z" transform="translate(-1.77 -1.26)"/><path class="cls-4" d="M30.6,25.4H29.93V24.9a1.85,1.85,0,0,1-1.44.6,1.6,1.6,0,0,1-1.06-.39A1.31,1.31,0,0,1,27,24.07,1.29,1.29,0,0,1,27.42,23a1.63,1.63,0,0,1,1.07-.37,1.8,1.8,0,0,1,1.44.59V22.45a0.81,0.81,0,0,0-.31-0.67,1.23,1.23,0,0,0-.79-0.24,1.77,1.77,0,0,0-1.33.6l-0.31-.47a2.31,2.31,0,0,1,1.74-.72,1.94,1.94,0,0,1,1.21.36,1.31,1.31,0,0,1,.47,1.11v3ZM28.73,25a1.37,1.37,0,0,0,1.2-.54V23.66a1.37,1.37,0,0,0-1.2-.54,1.12,1.12,0,0,0-.77.27,0.88,0.88,0,0,0-.3.69,0.87,0.87,0,0,0,.3.68A1.12,1.12,0,0,0,28.73,25Z" transform="translate(-1.77 -1.26)"/><path class="cls-4" d="M95,7.26H94.28v-6H95v6Z" transform="translate(-1.77 -1.26)"/><path class="cls-4" d="M97.08,7.26H96.4V2.91h0.67v0.7a1.78,1.78,0,0,1,1.45-.79V3.52l-0.27,0a1.31,1.31,0,0,0-.67.22,1.43,1.43,0,0,0-.51.48V7.26Z" transform="translate(-1.77 -1.26)"/><path class="cls-4" d="M102.76,7.26h-0.67V6.77a1.86,1.86,0,0,1-1.44.6A1.6,1.6,0,0,1,99.59,7a1.3,1.3,0,0,1-.46-1.05,1.29,1.29,0,0,1,.45-1.06,1.63,1.63,0,0,1,1.07-.37,1.8,1.8,0,0,1,1.44.59V4.31a0.81,0.81,0,0,0-.31-0.67A1.23,1.23,0,0,0,101,3.39a1.77,1.77,0,0,0-1.33.6l-0.32-.47a2.31,2.31,0,0,1,1.74-.72,1.94,1.94,0,0,1,1.22.36,1.31,1.31,0,0,1,.47,1.11v3Zm-1.87-.38a1.38,1.38,0,0,0,1.2-.54V5.52a1.37,1.37,0,0,0-1.2-.54,1.12,1.12,0,0,0-.77.27,0.87,0.87,0,0,0-.3.69,0.86,0.86,0,0,0,.3.68A1.12,1.12,0,0,0,100.89,6.88Z" transform="translate(-1.77 -1.26)"/><path class="cls-4" d="M105.77,7.37a1.76,1.76,0,0,1-1.4-.62,2.46,2.46,0,0,1-.54-1.67,2.44,2.44,0,0,1,.54-1.66A1.86,1.86,0,0,1,106.61,3a1.73,1.73,0,0,1,.62.55V2.91h0.67v6h-0.67V6.6A1.71,1.71,0,0,1,105.77,7.37Zm0.16-.6a1.55,1.55,0,0,0,.76-0.2,1.36,1.36,0,0,0,.54-0.5v-2a1.39,1.39,0,0,0-.54-0.49,1.54,1.54,0,0,0-.76-0.2,1.23,1.23,0,0,0-1,.47,1.87,1.87,0,0,0-.37,1.21,1.89,1.89,0,0,0,.37,1.21A1.22,1.22,0,0,0,105.93,6.77Z" transform="translate(-1.77 -1.26)"/><path class="cls-4" d="M14.55,140.48a2.92,2.92,0,0,1-2.3-1l0.44-.57a2.43,2.43,0,0,0,1.89.85,1.56,1.56,0,0,0,1.07-.31,1,1,0,0,0,.34-0.72,0.76,0.76,0,0,0-.2-0.53,1.35,1.35,0,0,0-.51-0.34,6.17,6.17,0,0,0-.69-0.22l-0.76-.22a3.92,3.92,0,0,1-.69-0.29,1.36,1.36,0,0,1-.71-1.23,1.46,1.46,0,0,1,.58-1.2,2.3,2.3,0,0,1,1.48-.46,2.79,2.79,0,0,1,2.13.84l-0.45.55a2.24,2.24,0,0,0-1.74-.72,1.42,1.42,0,0,0-.89.27,0.83,0.83,0,0,0-.35.69,0.64,0.64,0,0,0,.27.52,1.76,1.76,0,0,0,.66.31L15,137c0.31,0.1.59,0.2,0.86,0.31a1.54,1.54,0,0,1,.66.54,1.49,1.49,0,0,1,.26.89,1.66,1.66,0,0,1-.54,1.25A2.36,2.36,0,0,1,14.55,140.48Z" transform="translate(-1.77 -1.26)"/><path class="cls-4" d="M17.56,142.08l0.11-.61a0.9,0.9,0,0,0,.37.07,0.7,0.7,0,0,0,.39-0.1,0.76,0.76,0,0,0,.26-0.36l0.29-.66L17.15,136h0.73l1.45,3.56L20.77,136h0.74l-2.18,5.23a1.32,1.32,0,0,1-1.28.88A1.84,1.84,0,0,1,17.56,142.08Z" transform="translate(-1.77 -1.26)"/><path class="cls-4" d="M22.89,140.37H22.21V136h0.68v0.7a1.78,1.78,0,0,1,1.45-.79v0.69l-0.27,0a1.32,1.32,0,0,0-.67.22,1.42,1.42,0,0,0-.51.48v3.08Z" transform="translate(-1.77 -1.26)"/><path class="cls-4" d="M25.52,135.41a0.44,0.44,0,0,1-.31-0.13,0.43,0.43,0,0,1-.13-0.32,0.44,0.44,0,0,1,.13-0.32,0.43,0.43,0,0,1,.31-0.13A0.46,0.46,0,0,1,26,135a0.43,0.43,0,0,1-.13.32A0.45,0.45,0,0,1,25.52,135.41Zm0.34,5H25.18V136h0.67v4.35Z" transform="translate(-1.77 -1.26)"/><path class="cls-4" d="M30.6,140.37H29.93v-0.5a1.85,1.85,0,0,1-1.44.6,1.6,1.6,0,0,1-1.06-.39A1.3,1.3,0,0,1,27,139a1.29,1.29,0,0,1,.46-1.06,1.63,1.63,0,0,1,1.07-.37,1.8,1.8,0,0,1,1.44.59v-0.78a0.81,0.81,0,0,0-.31-0.67,1.23,1.23,0,0,0-.79-0.24,1.77,1.77,0,0,0-1.33.6l-0.32-.47a2.31,2.31,0,0,1,1.74-.72,1.94,1.94,0,0,1,1.21.36,1.31,1.31,0,0,1,.47,1.11v3ZM28.73,140a1.37,1.37,0,0,0,1.2-.54v-0.82a1.37,1.37,0,0,0-1.2-.54,1.12,1.12,0,0,0-.77.27,0.87,0.87,0,0,0-.3.69,0.86,0.86,0,0,0,.3.68A1.12,1.12,0,0,0,28.73,140Z" transform="translate(-1.77 -1.26)"/><path class="cls-4" d="M8.81,50.43a2.92,2.92,0,0,1-2.3-1l0.44-.57a2.43,2.43,0,0,0,1.89.85,1.56,1.56,0,0,0,1.07-.31,1,1,0,0,0,.34-0.72,0.76,0.76,0,0,0-.2-0.53,1.35,1.35,0,0,0-.51-0.34,6.17,6.17,0,0,0-.69-0.22l-0.76-.22a3.92,3.92,0,0,1-.69-0.29,1.36,1.36,0,0,1-.71-1.23,1.46,1.46,0,0,1,.58-1.2,2.3,2.3,0,0,1,1.48-.46,2.79,2.79,0,0,1,2.13.84l-0.45.55a2.24,2.24,0,0,0-1.74-.72,1.42,1.42,0,0,0-.89.27,0.83,0.83,0,0,0-.35.69,0.64,0.64,0,0,0,.27.52,1.76,1.76,0,0,0,.66.31l0.85,0.25c0.31,0.1.59,0.2,0.86,0.31a1.54,1.54,0,0,1,.66.54,1.49,1.49,0,0,1,.26.89,1.66,1.66,0,0,1-.54,1.25A2.36,2.36,0,0,1,8.81,50.43Z" transform="translate(-1.77 -1.26)"/><path class="cls-4" d="M15.72,50.32H15V49.71a2.23,2.23,0,0,1-.68.51,1.9,1.9,0,0,1-.87.21A1.22,1.22,0,0,1,12.11,49V46h0.67v2.86a1,1,0,0,0,.25.76,1,1,0,0,0,.72.23A1.66,1.66,0,0,0,15,49.17V46h0.68v4.35Z" transform="translate(-1.77 -1.26)"/><path class="cls-4" d="M20.9,50.32H20.22V49.67a1.74,1.74,0,0,1-1.47.76,1.77,1.77,0,0,1-1.4-.62,2.84,2.84,0,0,1,0-3.32,1.83,1.83,0,0,1,2.87.14V44.32H20.9v6Zm-2-.5a1.54,1.54,0,0,0,.76-0.2,1.51,1.51,0,0,0,.55-0.49v-2a1.5,1.5,0,0,0-.55-0.5,1.52,1.52,0,0,0-.75-0.2,1.23,1.23,0,0,0-1,.47,2.12,2.12,0,0,0,0,2.42A1.24,1.24,0,0,0,18.92,49.82Z" transform="translate(-1.77 -1.26)"/><path class="cls-4" d="M25.64,50.32H25v-0.5a1.85,1.85,0,0,1-1.44.6A1.6,1.6,0,0,1,22.46,50,1.3,1.3,0,0,1,22,49a1.29,1.29,0,0,1,.46-1.06,1.63,1.63,0,0,1,1.07-.37,1.8,1.8,0,0,1,1.44.59V47.37a0.81,0.81,0,0,0-.31-0.67,1.23,1.23,0,0,0-.79-0.24,1.77,1.77,0,0,0-1.33.6l-0.32-.47A2.31,2.31,0,0,1,24,45.86a1.94,1.94,0,0,1,1.21.36,1.31,1.31,0,0,1,.47,1.11v3Zm-1.87-.38A1.37,1.37,0,0,0,25,49.4V48.58a1.37,1.37,0,0,0-1.2-.54,1.12,1.12,0,0,0-.77.27,0.87,0.87,0,0,0-.3.69,0.86,0.86,0,0,0,.3.68A1.12,1.12,0,0,0,23.77,49.94Z" transform="translate(-1.77 -1.26)"/><path class="cls-4" d="M30.6,50.32H29.93V47.47a1,1,0,0,0-.25-0.78A1,1,0,0,0,29,46.47a1.48,1.48,0,0,0-.73.2,1.64,1.64,0,0,0-.55.48v3.18H27V46h0.67V46.6a2.2,2.2,0,0,1,.67-0.52,1.87,1.87,0,0,1,.87-0.22,1.23,1.23,0,0,1,1.39,1.4v3.05Z" transform="translate(-1.77 -1.26)"/><path class="cls-4" d="M19.13,76.66H18.39V73.91H14.88v2.75H14.13v-6h0.75v2.58h3.51V70.66h0.75v6Z" transform="translate(-1.77 -1.26)"/><path class="cls-4" d="M23.9,76.66H23.23v-0.5a1.86,1.86,0,0,1-1.44.6,1.6,1.6,0,0,1-1.06-.39,1.3,1.3,0,0,1-.46-1.05,1.29,1.29,0,0,1,.45-1.06,1.63,1.63,0,0,1,1.07-.37,1.8,1.8,0,0,1,1.44.59V73.71A0.81,0.81,0,0,0,22.92,73a1.23,1.23,0,0,0-.79-0.24,1.77,1.77,0,0,0-1.33.6l-0.32-.47a2.31,2.31,0,0,1,1.74-.72,1.94,1.94,0,0,1,1.22.36,1.31,1.31,0,0,1,.47,1.11v3ZM22,76.28a1.38,1.38,0,0,0,1.2-.54V74.92a1.37,1.37,0,0,0-1.2-.54,1.12,1.12,0,0,0-.77.27,0.87,0.87,0,0,0-.3.69,0.86,0.86,0,0,0,.3.68A1.12,1.12,0,0,0,22,76.28Z" transform="translate(-1.77 -1.26)"/><path class="cls-4" d="M25.59,71.69a0.44,0.44,0,0,1-.31-0.13,0.43,0.43,0,0,1-.13-0.32,0.44,0.44,0,0,1,.13-0.32,0.43,0.43,0,0,1,.31-0.13,0.46,0.46,0,0,1,.46.46,0.43,0.43,0,0,1-.13.32A0.45,0.45,0,0,1,25.59,71.69Zm0.34,5H25.25V72.31h0.67v4.35Z" transform="translate(-1.77 -1.26)"/><path class="cls-4" d="M28.38,76.77a0.94,0.94,0,0,1-.72-0.26,1.07,1.07,0,0,1-.24-0.76V72.91H26.7V72.31h0.72V71.13h0.67v1.19H29v0.59H28.09v2.7a0.66,0.66,0,0,0,.11.41,0.38,0.38,0,0,0,.33.15A0.59,0.59,0,0,0,29,76l0.2,0.5A1.13,1.13,0,0,1,28.38,76.77Z" transform="translate(-1.77 -1.26)"/><path class="cls-4" d="M30.26,71.69a0.44,0.44,0,0,1-.32-0.13,0.43,0.43,0,0,1-.13-0.32,0.44,0.44,0,0,1,.13-0.32,0.43,0.43,0,0,1,.32-0.13,0.46,0.46,0,0,1,.46.46,0.43,0.43,0,0,1-.13.32A0.45,0.45,0,0,1,30.26,71.69Zm0.34,5H29.93V72.31H30.6v4.35Z" transform="translate(-1.77 -1.26)"/><path class="cls-4" d="M16.17,107.26H14.12v-6h2.05a3,3,0,0,1,2.23.85,3.14,3.14,0,0,1,0,4.3A3,3,0,0,1,16.17,107.26Zm0-.67a2.19,2.19,0,0,0,1.68-.67,2.35,2.35,0,0,0,.62-1.67,2.38,2.38,0,0,0-.61-1.67,2.18,2.18,0,0,0-1.69-.67h-1.3v4.67h1.3Z" transform="translate(-1.77 -1.26)"/><path class="cls-4" d="M24.78,107.26H23.9l-1.53-2.38h-1.2v2.38H20.42v-6h2.41a1.9,1.9,0,0,1,1.36.5,1.73,1.73,0,0,1,.52,1.31,1.65,1.65,0,0,1-1.56,1.75Zm-2-3a1.18,1.18,0,0,0,.86-0.32,1.1,1.1,0,0,0,.33-0.83,1.09,1.09,0,0,0-.33-0.82,1.2,1.2,0,0,0-.86-0.32H21.17v2.29h1.58Z" transform="translate(-1.77 -1.26)"/><path class="cls-4" d="M28.74,107.37a3.11,3.11,0,1,1,0-6.21A2.64,2.64,0,0,1,31,102.34l-0.63.35a2,2,0,0,0-.7-0.63,1.93,1.93,0,0,0-.95-0.24,2.2,2.2,0,0,0-1.65.69,2.65,2.65,0,0,0,0,3.5,2.2,2.2,0,0,0,1.65.69,2,2,0,0,0,.95-0.24,1.91,1.91,0,0,0,.7-0.63L31,106.18A2.71,2.71,0,0,1,28.74,107.37Z" transform="translate(-1.77 -1.26)"/><path class="cls-1" d="M174.35,39h-6V37.87a36.92,36.92,0,0,0,3.56-2.93,2.7,2.7,0,0,0,.94-1.81,1.11,1.11,0,0,0-.44-0.94,1.74,1.74,0,0,0-1.07-.33,2.85,2.85,0,0,0-2.25,1l-0.85-1a3.46,3.46,0,0,1,1.36-1,4.4,4.4,0,0,1,1.72-.34,3.37,3.37,0,0,1,2.15.69,2.27,2.27,0,0,1,.88,1.89,3.31,3.31,0,0,1-.9,2.14,17.55,17.55,0,0,1-2.75,2.46h3.7V39Z" transform="translate(-1.77 -1.26)"/><path class="cls-1" d="M179,39h-1.46V32.58L176.16,34l-0.85-.89,2.4-2.42H179V39Z" transform="translate(-1.77 -1.26)"/><path class="cls-1" d="M183.67,39.17a3.83,3.83,0,0,1-3.1-1.29l0.84-1a2.87,2.87,0,0,0,2.25,1,1.8,1.8,0,0,0,1.24-.42,1.34,1.34,0,0,0,.47-1,1.38,1.38,0,0,0-.46-1.08,1.77,1.77,0,0,0-1.22-.41,2.56,2.56,0,0,0-1.83.73l-1-.3V30.68h5.46V32h-4v2.41a2.55,2.55,0,0,1,1.89-.72,2.65,2.65,0,0,1,1.88.73,2.55,2.55,0,0,1,.78,2A2.59,2.59,0,0,1,186,38.4,3.36,3.36,0,0,1,183.67,39.17Z" transform="translate(-1.77 -1.26)"/><path class="cls-1" d="M174.35,66.77h-6V65.62a36.92,36.92,0,0,0,3.56-2.93,2.7,2.7,0,0,0,.94-1.81,1.11,1.11,0,0,0-.44-0.94,1.74,1.74,0,0,0-1.07-.33,2.85,2.85,0,0,0-2.25,1l-0.85-1a3.46,3.46,0,0,1,1.36-1,4.4,4.4,0,0,1,1.72-.34,3.37,3.37,0,0,1,2.15.69,2.27,2.27,0,0,1,.88,1.89,3.31,3.31,0,0,1-.9,2.14,17.55,17.55,0,0,1-2.75,2.46h3.7v1.29Z" transform="translate(-1.77 -1.26)"/><path class="cls-1" d="M179,66.77h-1.46V60.33l-1.36,1.41-0.85-.89,2.4-2.42H179v8.34Z" transform="translate(-1.77 -1.26)"/><path class="cls-1" d="M185.22,66.54a3.19,3.19,0,0,1-3,0,2.87,2.87,0,0,1-1-1,5,5,0,0,1-.59-1.37,6.23,6.23,0,0,1,0-3.12,5,5,0,0,1,.59-1.37,2.89,2.89,0,0,1,1-1,3.19,3.19,0,0,1,3,0,2.9,2.9,0,0,1,1,1,5,5,0,0,1,.59,1.37,6.23,6.23,0,0,1,0,3.13,5.1,5.1,0,0,1-.59,1.38A2.88,2.88,0,0,1,185.22,66.54Zm-2.9-1.77a1.58,1.58,0,0,0,2.8,0,4.59,4.59,0,0,0,.45-2.16,5.9,5.9,0,0,0-.17-1.49,2.31,2.31,0,0,0-.6-1.08,1.57,1.57,0,0,0-2.16,0,2.31,2.31,0,0,0-.6,1.08,5.9,5.9,0,0,0-.17,1.49A4.59,4.59,0,0,0,182.32,64.77Z" transform="translate(-1.77 -1.26)"/><path class="cls-1" d="M171.55,96.14h-1.46V89.7l-1.36,1.41-0.85-.89,2.4-2.42h1.28v8.34Z" transform="translate(-1.77 -1.26)"/><path class="cls-1" d="M176.24,96.29a3.83,3.83,0,0,1-3.1-1.29L174,94a2.87,2.87,0,0,0,2.25,1,1.8,1.8,0,0,0,1.24-.42,1.34,1.34,0,0,0,.47-1,1.38,1.38,0,0,0-.46-1.08,1.77,1.77,0,0,0-1.22-.41,2.56,2.56,0,0,0-1.83.73l-1-.3V87.8h5.46v1.29h-4V91.5a2.55,2.55,0,0,1,1.89-.72,2.65,2.65,0,0,1,1.88.73,2.55,2.55,0,0,1,.78,2,2.59,2.59,0,0,1-.88,2.06A3.36,3.36,0,0,1,176.24,96.29Z" transform="translate(-1.77 -1.26)"/><path class="cls-1" d="M183.74,96.29a3.83,3.83,0,0,1-3.1-1.29l0.84-1a2.87,2.87,0,0,0,2.25,1,1.8,1.8,0,0,0,1.24-.42,1.34,1.34,0,0,0,.47-1,1.38,1.38,0,0,0-.46-1.08,1.77,1.77,0,0,0-1.22-.41,2.56,2.56,0,0,0-1.83.73l-1-.3V87.8h5.46v1.29h-4V91.5a2.55,2.55,0,0,1,1.89-.72,2.65,2.65,0,0,1,1.88.73,2.55,2.55,0,0,1,.78,2,2.59,2.59,0,0,1-.88,2.06A3.36,3.36,0,0,1,183.74,96.29Z" transform="translate(-1.77 -1.26)"/><path class="cls-1" d="M15.43,152.79H14v-6.44l-1.36,1.41-0.85-.89,2.4-2.42h1.27v8.34Z" transform="translate(-1.77 -1.26)"/><path class="cls-1" d="M20.26,152.94a3.4,3.4,0,0,1-1.56-.34,2.78,2.78,0,0,1-1.08-.94,4.48,4.48,0,0,1-.6-1.36,6.45,6.45,0,0,1-.2-1.66,4.83,4.83,0,0,1,1-3.1,3.27,3.27,0,0,1,2.71-1.21,3.3,3.3,0,0,1,2.4.92l-0.69,1.11a2.27,2.27,0,0,0-1.71-.74,1.9,1.9,0,0,0-1.6.8,3.15,3.15,0,0,0-.6,1.95,1.68,1.68,0,0,0,0,.24,2.7,2.7,0,0,1,.92-0.81,2.6,2.6,0,0,1,1.31-.35,2.89,2.89,0,0,1,2,.71,2.51,2.51,0,0,1,.8,2,2.64,2.64,0,0,1-.85,2A3.1,3.1,0,0,1,20.26,152.94Zm-0.08-1.3a1.67,1.67,0,0,0,1.22-.44,1.38,1.38,0,0,0,.45-1,1.32,1.32,0,0,0-.49-1.11,1.93,1.93,0,0,0-1.22-.38,2.07,2.07,0,0,0-1,.27,2.44,2.44,0,0,0-.81.72,2.57,2.57,0,0,0,.52,1.38A1.6,1.6,0,0,0,20.19,151.64Z" transform="translate(-1.77 -1.26)"/><path class="cls-1" d="M29.18,152.57a3.19,3.19,0,0,1-3,0,2.87,2.87,0,0,1-1.05-1,5.1,5.1,0,0,1-.59-1.37,6.23,6.23,0,0,1,0-3.12,5,5,0,0,1,.59-1.37,2.89,2.89,0,0,1,1.05-1,3.19,3.19,0,0,1,3,0,2.89,2.89,0,0,1,1,1,5,5,0,0,1,.59,1.37,6.2,6.2,0,0,1,0,3.13,5,5,0,0,1-.59,1.38A2.87,2.87,0,0,1,29.18,152.57Zm-2.9-1.77a1.58,1.58,0,0,0,2.8,0,4.6,4.6,0,0,0,.45-2.16,6,6,0,0,0-.17-1.49,2.31,2.31,0,0,0-.6-1.08,1.57,1.57,0,0,0-2.16,0,2.32,2.32,0,0,0-.6,1.08,5.9,5.9,0,0,0-.17,1.49A4.59,4.59,0,0,0,26.28,150.79Z" transform="translate(-1.77 -1.26)"/><path class="cls-1" d="M15.54,119.88h-6v-1.15a37,37,0,0,0,3.56-2.93A2.7,2.7,0,0,0,14,114a1.11,1.11,0,0,0-.44-0.94,1.74,1.74,0,0,0-1.07-.33,2.85,2.85,0,0,0-2.25,1l-0.85-1a3.47,3.47,0,0,1,1.36-1,4.39,4.39,0,0,1,1.72-.34,3.37,3.37,0,0,1,2.15.69,2.27,2.27,0,0,1,.88,1.89,3.31,3.31,0,0,1-.9,2.14,17.64,17.64,0,0,1-2.75,2.46h3.7v1.29Z" transform="translate(-1.77 -1.26)"/><path class="cls-1" d="M20.26,120a3.4,3.4,0,0,1-1.56-.34,2.78,2.78,0,0,1-1.08-.94,4.48,4.48,0,0,1-.6-1.36,6.45,6.45,0,0,1-.2-1.66,4.83,4.83,0,0,1,1-3.1,3.27,3.27,0,0,1,2.71-1.21,3.3,3.3,0,0,1,2.4.92l-0.69,1.11a2.27,2.27,0,0,0-1.71-.74,1.9,1.9,0,0,0-1.6.8,3.15,3.15,0,0,0-.6,1.95,1.68,1.68,0,0,0,0,.24,2.7,2.7,0,0,1,.92-0.81,2.6,2.6,0,0,1,1.31-.35,2.89,2.89,0,0,1,2,.71,2.51,2.51,0,0,1,.8,2,2.64,2.64,0,0,1-.85,2A3.1,3.1,0,0,1,20.26,120Zm-0.08-1.3a1.67,1.67,0,0,0,1.22-.44,1.38,1.38,0,0,0,.45-1,1.32,1.32,0,0,0-.49-1.11,1.93,1.93,0,0,0-1.22-.38,2.07,2.07,0,0,0-1,.27,2.44,2.44,0,0,0-.81.72,2.57,2.57,0,0,0,.52,1.38A1.6,1.6,0,0,0,20.19,118.73Z" transform="translate(-1.77 -1.26)"/><path class="cls-1" d="M29.18,119.65a3.19,3.19,0,0,1-3,0,2.87,2.87,0,0,1-1.05-1,5.1,5.1,0,0,1-.59-1.37,6.23,6.23,0,0,1,0-3.12,5,5,0,0,1,.59-1.37,2.89,2.89,0,0,1,1.05-1,3.19,3.19,0,0,1,3,0,2.89,2.89,0,0,1,1,1,5,5,0,0,1,.59,1.37,6.2,6.2,0,0,1,0,3.13,5,5,0,0,1-.59,1.38A2.87,2.87,0,0,1,29.18,119.65Zm-2.9-1.77a1.58,1.58,0,0,0,2.8,0,4.6,4.6,0,0,0,.45-2.16,6,6,0,0,0-.17-1.49,2.31,2.31,0,0,0-.6-1.08,1.57,1.57,0,0,0-2.16,0,2.32,2.32,0,0,0-.6,1.08,5.9,5.9,0,0,0-.17,1.49A4.59,4.59,0,0,0,26.28,117.88Z" transform="translate(-1.77 -1.26)"/><path class="cls-1" d="M15.7,88.51H14.24V82.07l-1.36,1.41L12,82.6l2.4-2.42H15.7v8.34Z" transform="translate(-1.77 -1.26)"/><path class="cls-1" d="M22.58,88.05a4,4,0,0,1-2.27.61A4.06,4.06,0,0,1,18,88.05a1.91,1.91,0,0,1-.92-1.68A1.87,1.87,0,0,1,17.65,85,3.23,3.23,0,0,1,19,84.21a3,3,0,0,1-1.26-.74,1.69,1.69,0,0,1-.48-1.24,1.85,1.85,0,0,1,.27-1,1.94,1.94,0,0,1,.71-0.69,3.87,3.87,0,0,1,1-.38A4.57,4.57,0,0,1,20.31,80a4.51,4.51,0,0,1,1.1.13,4,4,0,0,1,1,.38,1.93,1.93,0,0,1,.72.69,1.85,1.85,0,0,1,.27,1,2.08,2.08,0,0,1-1.75,2A3.23,3.23,0,0,1,23,85a1.87,1.87,0,0,1,.53,1.32A1.91,1.91,0,0,1,22.58,88.05Zm-2.27-.69A2.18,2.18,0,0,0,21.53,87a1,1,0,0,0,.5-0.85,1,1,0,0,0-.58-0.91,2.88,2.88,0,0,0-1.13-.41,3.09,3.09,0,0,0-.69.17,2.12,2.12,0,0,0-.7.44,0.93,0.93,0,0,0-.34.71,1,1,0,0,0,.49.85A2.19,2.19,0,0,0,20.31,87.36Zm0-3.73A4.57,4.57,0,0,0,21,83.46a1.85,1.85,0,0,0,.62-0.37,0.82,0.82,0,0,0,.31-0.63,0.93,0.93,0,0,0-.44-0.81,2,2,0,0,0-1.13-.3,2,2,0,0,0-1.14.3,0.93,0.93,0,0,0-.44.81,0.81,0.81,0,0,0,.31.63,1.9,1.9,0,0,0,.63.38A4.55,4.55,0,0,0,20.31,83.63Z" transform="translate(-1.77 -1.26)"/><path class="cls-1" d="M27.83,88.66a3.83,3.83,0,0,1-3.1-1.29l0.84-1a2.87,2.87,0,0,0,2.25,1,1.8,1.8,0,0,0,1.24-.42,1.34,1.34,0,0,0,.47-1,1.38,1.38,0,0,0-.46-1.08,1.77,1.77,0,0,0-1.22-.41,2.56,2.56,0,0,0-1.83.73l-1-.3V80.17h5.46v1.29h-4v2.41a2.55,2.55,0,0,1,1.89-.72,2.65,2.65,0,0,1,1.88.73,2.55,2.55,0,0,1,.78,2,2.59,2.59,0,0,1-.88,2.06A3.36,3.36,0,0,1,27.83,88.66Z" transform="translate(-1.77 -1.26)"/><path class="cls-1" d="M18.19,61.83H16.73V55.39L15.36,56.8l-0.85-.89,2.4-2.42h1.28v8.34Z" transform="translate(-1.77 -1.26)"/><path class="cls-1" d="M22.94,61.83H21.48V55.39L20.11,56.8l-0.85-.89,2.4-2.42h1.28v8.34Z" transform="translate(-1.77 -1.26)"/><path class="cls-1" d="M29.18,61.6a3.19,3.19,0,0,1-3,0,2.87,2.87,0,0,1-1.05-1,5.1,5.1,0,0,1-.59-1.37,6.23,6.23,0,0,1,0-3.12,5,5,0,0,1,.59-1.37,2.89,2.89,0,0,1,1.05-1,3.19,3.19,0,0,1,3,0,2.89,2.89,0,0,1,1,1,5,5,0,0,1,.59,1.37,6.2,6.2,0,0,1,0,3.13,5,5,0,0,1-.59,1.38A2.87,2.87,0,0,1,29.18,61.6Zm-2.9-1.77a1.58,1.58,0,0,0,2.8,0,4.6,4.6,0,0,0,.45-2.16,6,6,0,0,0-.17-1.49,2.31,2.31,0,0,0-.6-1.08,1.57,1.57,0,0,0-2.16,0,2.32,2.32,0,0,0-.6,1.08,5.9,5.9,0,0,0-.17,1.49A4.59,4.59,0,0,0,26.28,59.83Z" transform="translate(-1.77 -1.26)"/><path class="cls-1" d="M16.29,37.53H14.83V31.09L13.46,32.5l-0.85-.89L15,29.19h1.27v8.34Z" transform="translate(-1.77 -1.26)"/><path class="cls-1" d="M20.29,37.53h-1.6l3.15-7H17.51V29.19h6v1Z" transform="translate(-1.77 -1.26)"/><path class="cls-1" d="M29.18,37.3a3.19,3.19,0,0,1-3,0,2.87,2.87,0,0,1-1.05-1,5.1,5.1,0,0,1-.59-1.37,6.23,6.23,0,0,1,0-3.12,5,5,0,0,1,.59-1.37,2.89,2.89,0,0,1,1.05-1,3.19,3.19,0,0,1,3,0,2.89,2.89,0,0,1,1,1,5,5,0,0,1,.59,1.37,6.2,6.2,0,0,1,0,3.13,5,5,0,0,1-.59,1.38A2.87,2.87,0,0,1,29.18,37.3Zm-2.9-1.77a1.58,1.58,0,0,0,2.8,0,4.6,4.6,0,0,0,.45-2.16,6,6,0,0,0-.17-1.49,2.31,2.31,0,0,0-.6-1.08,1.57,1.57,0,0,0-2.16,0,2.32,2.32,0,0,0-.6,1.08,5.9,5.9,0,0,0-.17,1.49A4.59,4.59,0,0,0,26.28,35.53Z" transform="translate(-1.77 -1.26)"/><path class="cls-1" d="M99.61,19.22a4.56,4.56,0,0,1-4.54,0,1.91,1.91,0,0,1-.92-1.68,1.87,1.87,0,0,1,.53-1.32A3.24,3.24,0,0,1,96,15.38a3,3,0,0,1-1.26-.74,1.69,1.69,0,0,1-.48-1.24,1.85,1.85,0,0,1,.27-1,2,2,0,0,1,.71-0.69,3.88,3.88,0,0,1,1-.38,4.58,4.58,0,0,1,1.11-.13,4.5,4.5,0,0,1,1.1.13,4,4,0,0,1,1,.38,1.92,1.92,0,0,1,.72.69,1.85,1.85,0,0,1,.27,1,2.08,2.08,0,0,1-1.75,2,3.24,3.24,0,0,1,1.34.84,1.87,1.87,0,0,1,.53,1.32A1.91,1.91,0,0,1,99.61,19.22Zm-2.27-.69a2.18,2.18,0,0,0,1.21-.33,1,1,0,0,0,.5-0.85,1,1,0,0,0-.58-0.91A2.87,2.87,0,0,0,97.34,16a3.09,3.09,0,0,0-.69.17,2.12,2.12,0,0,0-.7.44,0.93,0.93,0,0,0-.34.71,1,1,0,0,0,.49.85A2.19,2.19,0,0,0,97.34,18.53Zm0-3.73A4.6,4.6,0,0,0,98,14.63a1.85,1.85,0,0,0,.62-0.37,0.81,0.81,0,0,0,.31-0.63,0.93,0.93,0,0,0-.44-0.81,2,2,0,0,0-1.13-.3,2,2,0,0,0-1.14.3,0.93,0.93,0,0,0-.44.81,0.81,0.81,0,0,0,.31.63,1.91,1.91,0,0,0,.63.38A4.6,4.6,0,0,0,97.34,14.8Z" transform="translate(-1.77 -1.26)"/><path class="cls-1" d="M104.85,19.83a3.83,3.83,0,0,1-3.1-1.29l0.84-1a2.87,2.87,0,0,0,2.25,1,1.8,1.8,0,0,0,1.24-.42,1.34,1.34,0,0,0,.47-1,1.38,1.38,0,0,0-.46-1.08,1.77,1.77,0,0,0-1.22-.41,2.55,2.55,0,0,0-1.82.73l-1-.3V11.34h5.46v1.29h-4V15a2.56,2.56,0,0,1,1.89-.72,2.66,2.66,0,0,1,1.88.73,2.55,2.55,0,0,1,.78,2,2.59,2.59,0,0,1-.88,2.06A3.37,3.37,0,0,1,104.85,19.83Z" transform="translate(-1.77 -1.26)"/><path class="cls-5" d="M161.18,57.31c-12.95-2.13-26.25-1.45-34.44,6.93" transform="translate(-1.77 -1.26)"/><path class="cls-3" d="M126.8,64.17a1.55,1.55,0,0,1,.91.43,2.86,2.86,0,0,0-1.5.17,3,3,0,0,0,.13-1.5A1.6,1.6,0,0,1,126.8,64.17Z" transform="translate(-1.77 -1.26)"/><path class="cls-6" d="M162.27,86.11c-14.8,2.25-26.8-3.62-31.81-10.14" transform="translate(-1.77 -1.26)"/><path class="cls-3" d="M130.49,76a1.14,1.14,0,0,1-.41.62,2.11,2.11,0,0,0,0-1.11,2.23,2.23,0,0,0,1.08.25A1.18,1.18,0,0,1,130.49,76Z" transform="translate(-1.77 -1.26)"/><path class="cls-7" d="M38.74,141.88c14.37,0.63,53.35-7.43,64.35-32.16" transform="translate(-1.77 -1.26)"/><path class="cls-3" d="M103.05,109.75a0.83,0.83,0,0,1-.54-0.06,1.53,1.53,0,0,0,.73-0.34,1.61,1.61,0,0,0,.19.78A0.86,0.86,0,0,1,103.05,109.75Z" transform="translate(-1.77 -1.26)"/><path class="cls-8" d="M160.12,115.95c-10.13,2.08-27.57,3.9-35.5-10.13" transform="translate(-1.77 -1.26)"/><path class="cls-3" d="M124.7,106a2.84,2.84,0,0,1-1.22,1.39,5.25,5.25,0,0,0,.47-2.72,5.53,5.53,0,0,0,2.57,1A2.94,2.94,0,0,1,124.7,106Z" transform="translate(-1.77 -1.26)"/><path class="cls-9" d="M38.74,24.77c18.28,0,36.79,11.14,49.86,37" transform="translate(-1.77 -1.26)"/><path class="cls-3" d="M88.56,61.68a1.25,1.25,0,0,1,.57-0.59,2.32,2.32,0,0,0-.26,1.19,2.44,2.44,0,0,0-1.12-.49A1.3,1.3,0,0,1,88.56,61.68Z" transform="translate(-1.77 -1.26)"/><path class="cls-10" d="M37.57,112.1c13,1.11,40.39-1.5,51-12.8" transform="translate(-1.77 -1.26)"/><path class="cls-3" d="M88.52,99.38a1.92,1.92,0,0,1-1.14-.51,3.54,3.54,0,0,0,1.85-.24,3.74,3.74,0,0,0-.13,1.86A2,2,0,0,1,88.52,99.38Z" transform="translate(-1.77 -1.26)"/><path class="cls-11" d="M37,56.49c14.39-4,23.15-1.79,35.6,11" transform="translate(-1.77 -1.26)"/><path class="cls-3" d="M72.57,67.51a0.37,0.37,0,0,1,.11-0.21,0.67,0.67,0,0,0,0,.35,0.71,0.71,0,0,0-.35,0A0.38,0.38,0,0,1,72.57,67.51Z" transform="translate(-1.77 -1.26)"/><path class="cls-12" d="M37,78.44c9.25-5.26,27.82-5.51,44.15,3.45" transform="translate(-1.77 -1.26)"/><path class="cls-3" d="M81.07,81.86A1.36,1.36,0,0,1,81.22,81a2.52,2.52,0,0,0,.5,1.23,2.66,2.66,0,0,0-1.3.24A1.41,1.41,0,0,1,81.07,81.86Z" transform="translate(-1.77 -1.26)"/><line class="cls-13" x1="99.32" y1="24.06" x2="99.32" y2="50.28"/><path class="cls-3" d="M101.08,51.51a0.63,0.63,0,0,1,.39-0.13,1.16,1.16,0,0,0-.39.47,1.22,1.22,0,0,0-.39-0.47A0.65,0.65,0,0,1,101.08,51.51Z" transform="translate(-1.77 -1.26)"/><path class="cls-1" d="M171.14,125.71a4.47,4.47,0,0,1-1.88-.37,3.21,3.21,0,0,1-1.27-1l0.79-1a2.84,2.84,0,0,0,1,.74,3.16,3.16,0,0,0,1.29.28,2.1,2.1,0,0,0,1.28-.34,1.1,1.1,0,0,0,.46-0.93q0-1.17-1.85-1.17h-1v-1.31h1a2.44,2.44,0,0,0,1.24-.27,0.9,0.9,0,0,0,.47-0.83,1,1,0,0,0-.47-0.87,2.2,2.2,0,0,0-1.21-.31,3,3,0,0,0-2.15.92l-0.75-.91a3.77,3.77,0,0,1,3-1.31,3.62,3.62,0,0,1,2.19.61,1.94,1.94,0,0,1,.82,1.64,1.68,1.68,0,0,1-.54,1.28,2.44,2.44,0,0,1-1.27.63,2.3,2.3,0,0,1,1.33.6,1.8,1.8,0,0,1,.61,1.43,2.13,2.13,0,0,1-.86,1.75A3.59,3.59,0,0,1,171.14,125.71Z" transform="translate(-1.77 -1.26)"/><path class="cls-1" d="M180.85,125.1a4.56,4.56,0,0,1-4.54,0,1.91,1.91,0,0,1-.92-1.68,1.86,1.86,0,0,1,.53-1.32,3.24,3.24,0,0,1,1.34-.84,3,3,0,0,1-1.26-.74,1.69,1.69,0,0,1-.48-1.24,1.85,1.85,0,0,1,.27-1,2,2,0,0,1,.71-0.69,3.92,3.92,0,0,1,1-.38,4.58,4.58,0,0,1,1.11-.13,4.5,4.5,0,0,1,1.1.13,4,4,0,0,1,1,.38,1.93,1.93,0,0,1,.72.69,1.85,1.85,0,0,1,.27,1,2.08,2.08,0,0,1-1.75,2,3.25,3.25,0,0,1,1.34.84,1.87,1.87,0,0,1,.53,1.32A1.91,1.91,0,0,1,180.85,125.1Zm-2.27-.69a2.18,2.18,0,0,0,1.21-.33,1,1,0,0,0,.5-0.85,1,1,0,0,0-.58-0.91,2.87,2.87,0,0,0-1.13-.41,3.12,3.12,0,0,0-.69.17,2.13,2.13,0,0,0-.7.44,0.93,0.93,0,0,0-.34.71,1,1,0,0,0,.49.85A2.19,2.19,0,0,0,178.59,124.41Zm0-3.73a4.54,4.54,0,0,0,.65-0.17,1.85,1.85,0,0,0,.62-0.37,0.81,0.81,0,0,0,.31-0.63,0.93,0.93,0,0,0-.44-0.81,2,2,0,0,0-1.13-.3,2,2,0,0,0-1.14.3,0.94,0.94,0,0,0-.44.81,0.81,0.81,0,0,0,.31.63,1.91,1.91,0,0,0,.63.38A4.54,4.54,0,0,0,178.59,120.69Z" transform="translate(-1.77 -1.26)"/><path class="cls-1" d="M186.1,125.71a3.83,3.83,0,0,1-3.1-1.29l0.84-1a2.87,2.87,0,0,0,2.25,1,1.8,1.8,0,0,0,1.24-.42,1.34,1.34,0,0,0,.47-1,1.37,1.37,0,0,0-.46-1.08,1.77,1.77,0,0,0-1.22-.41,2.55,2.55,0,0,0-1.82.72l-1-.3v-4.66h5.46v1.29h-4v2.41a2.56,2.56,0,0,1,1.89-.72,2.66,2.66,0,0,1,1.88.73,2.55,2.55,0,0,1,.78,2,2.59,2.59,0,0,1-.88,2.06A3.37,3.37,0,0,1,186.1,125.71Z" transform="translate(-1.77 -1.26)"/></svg>