<?xml version="1.0" encoding="utf-8"?>
<!-- Generator: Adobe Illustrator 19.2.0, SVG Export Plug-In . SVG Version: 6.00 Build 0)  -->
<svg version="1.1" id="Layer_1" xmlns="http://www.w3.org/2000/svg" xmlns:xlink="http://www.w3.org/1999/xlink" x="0px" y="0px"
	 viewBox="0 0 215.8 152.7" style="enable-background:new 0 0 215.8 152.7;" xml:space="preserve">
<style type="text/css">
	.st0{fill:#0D92FF;}
	.st1{fill:none;stroke:#00325C;stroke-width:0.2019;stroke-miterlimit:10;}
	.st2{fill:#00325C;}
	.st3{fill:#787878;}
	.st4{fill:none;stroke:#00325C;stroke-width:0.2067;stroke-miterlimit:10;}
	.st5{fill:none;stroke:#00325C;stroke-width:0.1779;stroke-miterlimit:10;}
	.st6{fill:none;stroke:#00325C;stroke-width:0.2211;stroke-miterlimit:3;}
	.st7{fill:none;stroke:#00325C;stroke-width:0.3076;stroke-miterlimit:10;}
	.st8{fill:none;stroke:#00325C;stroke-width:0.2307;stroke-miterlimit:10;}
	.st9{fill:none;stroke:#00325C;stroke-width:0.2788;stroke-miterlimit:10;}
	.st10{fill:none;stroke:#00325C;stroke-width:0.4134;stroke-miterlimit:10;}
	.st11{fill:none;stroke:#00325C;stroke-width:0.2115;stroke-miterlimit:10;}
	.st12{fill:none;stroke:#00325C;stroke-width:0.125;stroke-miterlimit:10;}
</style>
<g>
	<path class="st0" d="M152.7,137.6L152.7,137.6l-0.1,0l0,0.1L152.7,137.6L152.7,137.6l0,0.1L152.7,137.6L152.7,137.6L152.7,137.6
		L152.7,137.6L152.7,137.6L152.7,137.6z M152.6,137.9L152.6,137.9L152.6,137.9l0,0.1L152.6,137.9L152.6,137.9L152.6,137.9z
		 M67.9,56.5L67.9,56.5L67.9,56.5L67.9,56.5L67.9,56.5L67.9,56.5l-0.1-0.1L67.9,56.5L67.9,56.5L67.9,56.5z M131.5,120.3l-0.1,0
		l-0.1,0.1l-0.1,0.1l-0.2,0.1l0,0.1l0,0.1l0,0l0.1-0.1l0.1,0l0.1-0.2L131.5,120.3l0.1,0.1l0-0.1L131.5,120.3L131.5,120.3z
		 M64.3,80.9L64,80.8l-0.2,0l-0.1,0l-0.1,0.1l0.1,0.2l0.6,0l0.2,0.1L64.4,81L64.3,80.9z M65.5,78.2L65.5,78.2L65.1,78L65,77.9l0-0.2
		l0-0.1l0-0.1l-0.2-0.1l-0.1,0l-0.4,0l0.1,0.2l0.1,0.4l0.1,0.2l0.2-0.1l0.2,0.1l0.2,0.3l0.1,0.3l0.1,0.1l0-0.1l0-0.2L65.5,78.2z
		 M43.3,61.1L43.3,61.1L43.3,61.1l-0.2-0.1l-0.2,0l-0.3,0.2v0.1l0.2-0.1l0.1,0l0,0.1l0,0l-0.1,0l0,0v0.1l0.1,0L43.3,61.1L43.3,61.1
		L43.3,61.1L43.3,61.1z M70.6,86.2L70.6,86.2l0-0.1l0-0.1l-0.1,0l-0.1,0L70,86.1v0.1l0.1,0.1l0.3,0.4l0.1,0l0.4-0.1l0.7,0.5l0.3,0.1
		l0,0l0,0l0.1,0l0.1,0l0.1,0l-0.1-0.2L72,86.7l-0.2-0.1l-0.8-0.1L71,86.4v-0.1h0.1v-0.1l-0.2,0l-0.2,0.1l-0.2,0l-0.1-0.2l0.1,0
		L70.6,86.2z M129.5,120.7L129.5,120.7l-0.1,0.1l0,0l0,0l0,0l-0.1,0l-0.2,0l-0.1,0l0,0.1l0.2,0.1l0.1,0l0.1,0l0.1-0.1l0.1-0.1
		L129.5,120.7L129.5,120.7L129.5,120.7z M58.1,74.1L58.1,74.1l-0.4-0.3l0,0l-0.2-0.1l-0.3-0.2l-0.1,0l-0.1-0.1H57l0,0.1l-0.1,0.1
		l0,0.2l0.1,0.2l0.1,0.2l0,0.2l0.1,0.1l0.4,0.1l0.6,0.1l0.2-0.1l0-0.2l-0.1-0.1L58.1,74.1z M72.4,88.9l-0.1-0.1l-0.1,0l-0.1,0
		l-0.1,0l-0.2-0.2l-0.2-0.2l-0.3-0.1l-0.2,0l0.2,0.4l0.1,0.3l0,0.1l0,0.1l0.1,0.2l0.2,0.2l0.2,0.1l0.4,0.5l0.1,0.2l0.1,0.1l0.1,0.4
		l0.1,0.1l0.1-0.2l0.1-0.3l0.1-0.5l0-0.1l-0.1-0.1l-0.2-0.1l-0.1-0.1l0-0.1v-0.1l-0.1-0.1l0-0.1l0-0.1L72.4,88.9z M143.7,55.2
		l-1.2-0.6l-0.1,0l-0.4,0l-0.6-0.2l-0.1,0l-0.2,0.1l-0.1,0l-0.1,0l-0.2-0.1l-0.1,0l-0.1,0l-0.1,0l-0.1,0l-0.1,0l-0.1-0.1l-0.1-0.2
		l-0.1-0.1l-0.2-0.1l-0.3-0.1l-0.2-0.1l-0.1-0.1l-0.2-0.3l-0.1-0.1l0,0l0,0l0.1,0l-0.1-0.2l-0.1-0.1l-0.3,0l0-0.1l-0.1,0l-0.2,0.1
		l-0.1,0.1l0,0.1l-0.1,0.2l0,0.1l-0.1,0l-0.2,0l-0.1,0l0,0.1l-0.1,0.2l0,0l0,0l-0.2-0.1l-0.7,0l-0.1,0l-0.1-0.1l-0.3-0.2l0,0
		l-0.1,0.1l0,0.1l0,0.1l0,0.1l-0.2,0.1l-0.2-0.1l-0.1-0.3l0-0.4l-0.2,0l-0.5-0.3l-0.1,0l-0.2,0l-0.3-0.1l-0.1,0l0,0.2l0.1,0.2l0,0.2
		l-0.1,0.2l-0.1,0l-0.3-0.1l-0.3,0l-0.1,0l-0.1-0.2l0-0.1l0-0.1l0-0.2h0l-0.1,0.1l0,0l0,0l0-0.1l0,0l0-0.1l-0.1-0.2l0,0l-0.1,0l0,0
		l0,0l0-0.1l0-0.1l-0.5-0.5l-0.1-0.2l0-0.1l0-0.1l0.1,0l0-0.1l0-0.1l-0.4-0.4l-0.1-0.1l0,0l0-0.1l0-0.1l0-0.1l-0.1-0.1l-0.7-0.4
		l-0.1,0l-0.1,0l-0.1,0.1l-0.1,0l-0.1,0l-0.2,0l-0.2-0.1l-0.4-0.3l-0.2-0.1l-0.2,0l-0.4,0l0,0.1l-0.2,0l-0.1,0l0,0.1v0.1l0,0.1
		l-0.1,0l-0.1,0.1l-0.1,0l-0.6,0l-0.1,0l-0.1-0.3l-0.1-0.1l-0.5-0.1l-0.2-0.1l-0.1-0.1l-0.2-0.3l-0.1,0l0,0l-0.2-0.1l-0.1,0l-0.1,0
		l-0.1,0.1l-0.1,0l0,0l-0.2,0l-0.2-0.1l-0.2,0h0l-0.2,0.1l-0.1,0.1v0l0,0.1l0,0l0,0l-0.1,0l-0.1,0l-0.1,0l-0.2-0.1l-0.1,0l0,0
		L124,49l-0.1,0.1l-0.2,0.1l0,0l-0.2,0l0-0.1l0,0l0-0.1l0-0.1v-0.1l0-0.1l-0.4-0.7l-0.1-0.1l-0.2-0.1l0,0l0,0l0,0h0l0,0l0,0.1l0,0.1
		l0,0l0,0l-0.1,0l0,0v0l0-0.1l0-0.1l0-0.2v0l0,0l0.1,0l0,0l0,0l-0.1-0.2l-0.1-0.2l-0.2-0.2l-0.1,0l-0.1,0l-0.1,0l-0.2,0.1l-0.2-0.1
		l-0.1-0.1l0,0l-0.1-0.1l-0.2-0.3l-0.1-0.2l-0.1-0.1l-0.1,0l-0.2-0.1l-0.2-0.1l-0.3-0.3l-0.1-0.1l0,0l-0.1,0l-0.1,0l-0.2,0.1
		l-0.2,0.1l-0.1,0l0,0l-0.1,0l-0.1,0v0l-0.1-0.1l0-0.2v-0.2l0-0.1v0l-0.1-0.1l0-0.1l0-0.1l0.1-0.1l0,0l0,0l0,0l0-0.1l0,0l0-0.1
		l0-0.1l0-0.1l0-0.1l-0.1-0.2l0,0v0l-0.2-0.1l-0.2-0.1h0l-0.1-0.2l0-0.2l0.2-0.5l0.1-0.2l0,0l0-0.1l0-0.1l0-0.1l0,0l0-0.1l0.1-0.2v0
		l0,0l0.1,0.1l0,0l0-0.1l0-0.1l0-0.2l0-0.1l0-0.2l-0.1-0.1l-0.2,0l-0.1,0l0-0.2l0,0l-0.2,0.1l-0.8,0.8l0,0.1l0,0.1l0,0.1l0,0l0,0
		l0,0l0,0l0,0l0,0.1l0,0.3l-0.1,0.2l0,0l-0.1,0.1l-0.1,0l0,0l-0.3,0.1l-0.3,0.1L116,44l-0.2,0l-1-0.3l-0.2-0.1l-0.2,0l-0.4,0.1
		l-0.1,0l0,0l-0.4-0.2h0l0.1,0l0-0.1l0-0.1l0-0.1l0-0.1l0,0h0l0-0.1l0-0.1l0,0l0,0l0.1-0.1l0.1-0.1l0.1-0.1l0.1-0.1l0.1,0l0.1-0.1
		l0.1,0l0-0.1v0l-0.1-0.1l0-0.1l0,0l-0.1-0.5l-0.1,0l-0.1,0l-0.2,0.1l0,0l-0.1,0l0-0.2l0,0l0.1-0.3l0.1-0.2l0-0.2l0-0.1l0,0l0.1-0.1
		l0.2-0.1l0,0l0.1-0.1l0-0.1l0-0.1l0-0.1l-0.1-0.1l-0.1,0l0,0l-0.1,0l-0.1,0h0l0,0.1l0,0l0,0h0l0,0l0,0l-0.1,0l0,0l-0.2-0.3l0-0.1
		l0,0l-0.2-0.1l-0.1-0.1l-0.1,0l-0.3-0.3l0,0l-0.1-0.1l-0.1,0l-0.1,0l-0.3,0.1l-0.2,0.1h-0.2l0,0l-0.1-0.1l-0.1,0l-0.1,0l-0.2-0.1
		l-0.3,0l-0.3,0l0,0l-0.1,0l-0.1,0.1l-0.1,0.2l0,0.1l0,0l0,0l0,0l0,0l0,0l0,0l0,0.1l-0.3-0.3l-0.1-0.5l0-0.6l-0.1-0.5l-0.1-0.2
		l-0.2-0.1l-0.2-0.1l-0.2,0l-0.5,0h0l-0.1-0.1h0l0.1-0.1l0,0l0-0.1l-0.1-0.1l0,0l-0.1,0l-0.1,0l0,0l-0.1,0l0,0l0,0l0,0l0,0l-0.1,0.1
		l-0.3,0.1l-0.1,0l-0.1,0l-0.1,0l-0.1,0l-0.3-0.2l-0.1-0.1l-0.1-0.1l0,0l0-0.1l0-0.4l-0.2-0.7l-0.1-0.3l0.1-0.1l0.1-0.1l0-0.1
		l-0.1-0.2l-0.1-0.1l0,0l-0.1,0v0l-0.1,0l-0.1-0.1l-0.1-0.2l-0.1-0.2l0-0.1l-0.1-0.2l-0.1-0.1l-0.2,0l0,0l-0.4,0.1L105,34l-0.1,0
		l-0.3,0.1l-0.1,0.1l-0.1,0.1l-0.1,0.1l-0.1,0.1l-0.1,0.2l-0.1,0.2l-0.1,0.1l0,0l-0.1,0l0,0l0,0l0,0l-0.5-0.2l-0.1,0l0,0l-0.1-0.1
		l0,0l0,0l-0.1-0.2l0-0.1l0,0l-0.3-0.2l-0.1-0.1l0-0.1h0l0-0.1l-0.1-0.1l0,0l-0.1,0l-0.1,0l-0.1,0l-0.1,0l0,0l0,0l0-0.1l0-0.1l0-0.1
		l0,0l0,0l0,0l-0.1,0l0,0l0,0v0l0,0l0,0l0.1-0.1l0-0.1l-0.1-0.3l-0.1-0.3l0-0.1l0.1-0.1l0.1-0.1l0,0l0,0l0-0.2l-0.1-0.2h0l-0.3-0.3
		l-0.1-0.2l0-0.1l-0.1-0.4l0,0l-0.1-0.2l-0.1,0.1l-0.3,0.1l-0.6,0.2l-0.5-0.1l-0.1,0l-0.1,0L98.2,31L97,31.2l-0.3,0.2l-0.1,0
		l-1.5,0.6l-0.2,0.2l-0.2,0.3l-0.1,0.1l-0.1,0.1l-0.2,0l-0.1,0l-0.2,0.2l0,0.1l0,0.2l0.1,0.4l0,0.3l0,0.2L94,34.2l-0.2,0.5l0,0.2
		l0,0.2l0.1,0.5l0,0.6l0,0.2l0.2,0.3l-0.2,0.2l0,0.5l0,0.6l-0.1,0.4v0.1l0.4,0.3v0.1l-0.3-0.1l-0.2,0.3l-0.1,0.5l0,0.4l0.1,0.1
		l0.3,0.2l0.1,0.2l0,0.1l0.1,0.1l0.2,0.1l0.1,0v0.1h-0.2l0,0.1l0,0.1l0.1,0l0.1,0v0.1L94.6,41l-0.1,0l-0.8-0.4l-0.3,0L93.2,41
		l-0.2,0.6L93,41.8l-0.1,0.1l-0.4,0.5l-1,0.8l-0.3,0.3L91,43.6l-0.2,0.1l-3.1,1l-0.7,0l-0.6,0.2l-0.3,0.2l-0.3,0.1l-1,0.6l-0.1,0.1
		l-1,0.5l-0.1,0.1l-0.1,0l-0.4,0.3l-0.1,0.1l-0.3,1l-0.4,0.7l0,0.1l0,0.1l0,0.1l0.1,0.1l0,0.1l0.1,0.1l0.2,0.1l0.2,0.1l0.1,0h0.2
		l0.5,0.2l0.6,0.1l0.6-0.1l0.5-0.3l-0.1,0.2l-0.1,0.1L85,49.7l-1.9,0.4l-0.5,0.4l-0.2,0.3l-0.1,0.1l-0.2,0L82,51.1l-0.4,0.2
		l-1.2,0.3l-0.2,0.2l-0.7-0.4l-0.4-0.1L78.9,51L78.7,51h-0.5l-0.3-0.1l-0.2,0l-0.3,0.2l-0.2,0l-0.3-0.1l-1.3-0.1l-0.9-0.3l-1-0.1
		l-0.1,0.1l-0.1,0.1l-0.1,0.2l0.1,0.1v0.1l-0.1,0l-0.1,0l-0.1-0.1l-0.1-0.1l-0.1,0l-0.1,0.1l-0.1,0l0-0.1l0,0l0-0.1l0-0.1l0-0.1
		l0-0.3L72.8,50l-0.6-0.7l-0.1-0.3L72,48.7l-0.1-0.2l0-0.3l0-0.1l0.1,0l0.2,0l0-0.1l0-0.1l0-0.1l0.2-0.1l0-0.2l-0.2-0.4l0-0.2l0-0.1
		l-0.1,0l-0.9-0.2l-0.1,0l-0.4,0.1l-0.1,0.1l-0.2,0.3l-0.1,0.1l-0.1,0.1l-0.1,0l-0.2-0.1l-0.1,0l-0.1,0l-0.1,0.1l-0.1,0l-0.1,0
		l0-0.1l0-0.1l0,0l-0.1,0L68.8,47l-0.5-0.1l-0.2-0.1l0,0l-0.1,0l0,0l0-0.1l0-0.1l0-0.1l-0.1,0l-0.2,0l-0.1,0l-0.2-0.1l-0.1,0l-0.2,0
		l0,0.1l0,0.2L67,47l0.3,0.1l0.2,0l0.1,0.1l0,0.1l0.1,0.1l0.1,0.2l0,0.2l0,0.4l0,0.1l-0.2,0.2l0,0.2l0,0.1l0.2,0.2l0.1,0.1l0,0.1
		l0,0.1l0,0.1l0.1,0.2l0,0.1l0,0.1l0,0.2l0,0.4l0,0.2l0.1,0.1l0.1,0l0.1,0l0.1,0l0,0l0,0l0,0.1l0.2,0.1l0.2,0.2l0.1,0.1l0.1-0.2h0.1
		l0.1,0.2v0.1h-0.2l0.1,0.2l0.1,0.1l0.2,0.2l0,0l0,0l-0.1,0.1l0.1,0.1l0.1,0.4l0.1,0.1l0.1-0.2l0.2,0l0.2,0.1l0.2,0v0.1l-0.3-0.1
		l-0.1,0l-0.1,0.1l0,0.2l0,0.2l0.1,0.2l0.1,0.2l0-0.1l0,0l0.1,0.1l-0.1,0.1l-0.1,0.1l-0.1,0.1l0,0.2l0,0.1l0,0.1l0.1,0l0,0.1l0,0.1
		l0,0.3l0,0.1l0.1,0.1l0.1,0.1l0,0l0.1-0.2l0.1-0.1h0.2l0.1,0.1v0.1l-0.2-0.1L70,54.6l0,0.2l-0.1,0.7l0,0.1l0.1,0l0,0.1l0,0.1l0,0.1
		L70,55.8l-0.1,0.1l-0.1,0.6l-0.1,0.1l-0.1,0.1l-0.1,0.1v0.1l0.2,0l0.1,0.2l0,0.3l0,0.3l0.1,0.3l0.3,0.3l0.1,0.3l0,0.1l0.1,0.1
		l0.3,0.1l0,0l0,0.1l0,0.1l0,0.1l0,0l0,0v0l0.3,0l0.2,0.1l0.1,0.2L71.2,59l-0.8,0.2l-0.6-0.1l-0.1,0l-0.4,0.2l-0.6,0.1l-0.6,0
		l-0.3-0.1l-0.2-0.2l0-0.3l0.2-0.3l-0.1-0.1l0-0.1l0-0.1l0-0.1L67,58.5l0,0.1h-0.3l-0.1,0l0,0.1v0.1l0,0l-0.1,0l-0.1,0.1L66.4,59
		l0,0.1l0.1,0.1l0.1,0.3l0.1,0.1l0.1,0l0.1,0l0.1,0.1l0.1,0.1l-0.1-0.1l0,0l0-0.1h-0.1l0,0.2l0.1,0.2l0,0.1l0.2,0.1l-0.2,0.2
		l-0.1,0.1l0-0.3l0-0.2l-0.2-0.3l0,0l0-0.1l-0.1,0l-0.1-0.1l0-0.1l0-0.1l-0.2-0.3l0-0.1l-0.4,0l-0.3,0.1l0.1,0.2l0,0.1l0.1,0.1
		l-0.1-0.1l-0.1,0l-0.1,0.1l-0.1,0.1l0.1,0.1l0,0v0.1l-0.1,0.1l-0.1-0.1l0-0.1l0-0.2l0,0.1l0,0.1L65,59.8l-0.1,0l0-0.1l0-0.1
		l-0.1-0.1l-0.1,0l0-0.1l0-0.3l0-0.1l-0.2,0.1l-0.2,0.2l-0.1,0.1L64,59.3l0.2-0.2l0-0.1l0-0.1l0-0.1l0.1,0v-0.1l-0.1,0l-0.1,0
		l-0.1-0.1l0-0.1L64,58.7l-0.2,0.2L63.6,59l-0.2,0.1l-0.1-0.2l-0.2,0L62.8,59l0.1,0.1l0.1,0v0.1L63,59.3l-0.5,0.3l-0.1,0l-0.1,0.1
		l-0.1,0.1L62,60.1l-0.1,0.2l-0.1,0.1l-0.3,0l0,0.1l0,0.2l0,0.1l-0.1-0.1l-0.1-0.1l-0.1-0.1l-0.1,0l-0.1,0l0.1-0.1l0-0.1l0-0.1
		l0-0.1l-0.4-0.2l-0.2-0.1l-0.1,0l0,0l0-0.1l0-0.1l0-0.1l0-0.1l0-0.1l-0.1-0.3l-0.5-0.4l0-0.1l-0.1-0.1l-0.1-0.1l-0.1-0.1V58l0,0
		l0.1-0.1l0-0.1v-0.1l0-0.1l-0.2-0.1l-0.4,0l-0.2-0.1v-0.1h-0.1v-0.1l0.1-0.1l0.1,0l0.1,0v-0.1l0,0h0l0,0l0.1-0.1L58.8,57l-0.1,0
		l-0.1,0L58.5,57l-0.1,0l-0.1,0.2L58,57.8H58v-0.1l0.2-0.2l0-0.1l0.1-0.3l0.1-0.1l-0.1-0.1v-0.1l0.1-0.1l0-0.1l-0.1-0.1l-0.1-0.1
		l-0.1,0l-0.1,0.2l-0.1,0l-0.1,0.1l-0.2,0.2l-0.2,0.3l-0.1,0.1l0,0.1l0-0.1l0,0l0-0.1l0.1-0.1l0.1-0.2l0-0.2l-0.1-0.2l-0.1,0
		l-0.2,0.3l-0.1,0h-0.1l-0.1,0.1L56.1,57l-0.1,0L56,57.2l-0.1,0l-0.1,0l-0.2,0l0-0.1l0,0l0,0l0,0l-0.1,0l-0.3-0.2l-0.2,0L55,56.8h0
		l0,0.1l-0.2,0.3l-0.2,0.1l-0.1,0.1l0,0.2l0.3,0.3l0.1,0.1l-0.4,0.1l0,0.1l0,0.2l0.1,0.3l-0.1,0.1l-0.2,0L54,58.6l0-0.2l-0.3,0.1
		l-0.1,0l-0.1,0l-0.2-0.2l-0.1,0l-0.4,0l-0.1,0l-0.1-0.1l0,0.1l0,0.1l0,0.1l0,0.1l-0.1-0.1l-0.1,0.1l0,0.2l0,0.2l-0.1-0.1l0,0l0-0.1
		h0l0,0.2l0,0.1l0,0.1l-0.1,0.1l0.1,0.1l-0.1,0.1l-0.1-0.1L52.1,59L52,58.9v-0.1l0,0l0.1-0.1l-0.2,0l-0.1,0.1l-0.2,0.2l0-0.1l0-0.1
		l-0.1-0.1l-0.1,0v-0.1h0.1v-0.1l-0.1,0l0-0.1l0-0.1l0-0.1l0,0l-0.3,0.1L51,58.3l-0.1,0l-0.1,0l0,0.1l0,0.1l0,0.1l-0.1,0.1h0l0-0.1
		l0-0.1h0l0,0.1l-0.1-0.1l-0.2,0l-0.2,0L50,58.6l-0.1,0.1l-0.1,0.1l0,0.1l0.1,0V59h-0.1L49.5,59l-0.1,0l-0.1,0l-0.2,0.1l-0.2,0
		l0.1-0.3l-0.1-0.2l-0.2,0l-0.2,0.1l-0.2,0.1l-0.2,0V59l0,0l0.1,0.1l-0.2,0l-0.3,0.1l-0.2,0H47v0.1l0.1,0l0,0l0,0l0,0l0.2,0.1
		l-0.1,0l-0.3-0.1l-0.1,0.1l0.1,0.2l0.2,0.2l-0.1,0l-0.3-0.1l-0.1,0l-0.2,0l-0.1,0L45.9,60l0.1,0.1l-0.1,0L45.8,60l-0.1,0.2
		l-0.2,0.4l-0.1,0.3l0.2,0.1v0.1l-0.1,0l-0.1,0.2l0,0.2l0,0.2l0.1,0.3l0,0.1l-0.1,0l0,0.2l0.1,0.1l0.1,0l0.4,0l0.1,0l0-0.1l0-0.1
		l0,0l0.1,0l0.3,0.1l0.1,0l0.1,0l0.2-0.1l0.4-0.1l0.5-0.3l0.2-0.1l0.5-0.1l0.2-0.1l0.2-0.1l0.1,0L48.3,62L48.2,62l-0.4,0.5v0.1
		l0.1,0l0.1,0l0.1,0l0.1-0.1l0.1,0.1l0,0l0,0l0,0l0.2,0l0.2-0.2l0.1,0.1l0-0.1l0-0.1l0-0.1h0.1v0.1h-0.1v0.1l0.1,0l0.2-0.1h0.1
		l-0.1,0.2L49,62.6l0,0l0,0l-0.1,0l0,0l-0.1,0.1l0.3,0l0,0l0,0.1l0.1,0l0.1,0l0.1-0.1l0,0.1l0.1,0l0.2,0v0.1l-0.6,0.1l-0.2-0.1
		l0.1,0l0,0l0,0l-0.5,0l-0.4,0.1l-0.1,0l-0.1,0l-0.1,0l-0.1-0.1l-0.1,0l-0.7,0L47.1,63l0.1-0.4l-0.1-0.1L47,62.6L46.9,63l0,0l0,0.1
		l0,0.1l-0.1,0l-0.1,0l-0.1,0l-0.1,0l-0.1,0l0,0.1l0,0.1l0.5,0l0.1,0l0.1,0.1l0,0L47,63.7l0,0.1l0,0.1l0,0.1l0.1,0.1l0,0.1L47,64.5
		l0.2-0.1l0.1-0.2l0.1-0.3l0.1-0.2l0.2-0.1l0.4,0.3l0.2-0.1l0,0.1l0,0.1l0,0.1l0.1,0l0.3,0.1l0.1,0.1l0,0.3l0,0.1l0.1,0.1l0,0.1
		l-0.1,0.3l0,0.1l-0.1,0l-0.4-0.1l-2.5,0.6l0,0l-0.1-0.1l0,0l0,0l0,0l0,0l0,0.1l0,0.1l0,0.1l-0.1,0l0.6,0.2l0.3,0l0.1,0l0.2,0.2
		l0.1-0.1l0.1-0.1l0.1-0.1l0.1,0l0.7,0.5l0.4,0.5l0.1,0.2l0.1,0.3l0.1,0.3l0,0.2l0,0.1l-0.1,0h-0.1l0,0l0,0.1l0,0.2l0,0.1l1.1,0.1
		l0.2-0.1l0.1-0.1l0.2-0.2v-0.1h-0.2v-0.1l0,0l0,0L49.8,68l0-0.1l0.1,0l0.1,0.2l0.1-0.1l0.1-0.1l0.1,0l0.1,0v-0.1l-0.1-0.1l-0.1-0.2
		l0-0.2l0.1-0.1l0,0.2l0.1,0.2l0.1,0.1l0.1,0.1l0.1,0l0.1,0l0.2,0.2l0-0.1l0.1,0l0.1,0l0.1,0l0,0.1l0,0.1l-0.1,0l-0.1,0l0.2,0
		l0.2-0.2l0.1-0.2l-0.1-0.2l0.2,0l0.2,0.1l0.1,0.2l0,0.1l0.1,0.1l0,0l0.1,0l0,0.1l0,0.1l0.1,0l0.1,0.1l0.1,0.3l0,0l0.1,0l0.2,0
		l0.2,0l0.1,0.1l0.4-0.2l0.1,0l0.1,0.2l0.1,0.1l0.3,0l0,0l0.1,0.1l0.1,0l0.1,0l0.2,0l0.3,0.1l0.1,0l0.1-0.1l0,0.1l0,0l0.1,0.1
		l0.1,0.2l0.2,0.3l0,0.1l0.1,0l0.6-0.2v-0.1l0-0.1l0,0l-0.1,0l0.2,0l0.2-0.1l0.2-0.2l0.2-0.2V69l-0.1,0.1l-0.1,0.1l-0.1,0.3l0,0
		l-0.1,0l0,0v0.1l0,0.1l0,0l-0.1,0v0.1l0.3,0l0.1,0l0.1,0.1V70l-0.3-0.1l-0.1,0l-0.1,0.1l0.2,0l0.3,0.1l0.2,0.1l0.2,0.3l0.1,0l0.1,0
		l0-0.1l0-0.1l0.1-0.1L57.4,70l0,0l0.1,0l0.1-0.1l0.1,0l0.1,0.1l0,0l0,0l0,0l0,0l0-0.2l0-0.1l-0.1-0.1l-0.1,0l0.1,0l0.1,0.1l0.1,0
		l0.1-0.1h0l0,0.1l0,0.2l0,0l0.1,0l0,0v0.1l0,0.1l0,0.1l0,0.1l-0.6,0.3l-0.1,0.3l0,0.1l0,0.1l0.1,0l0.1,0l0.1,0l0.1,0.1l0.1,0.1
		l0.1,0.2l0,0.3l0,0.2l-0.1,0.2l0,0.1l0,0.1l0.1,0.3h0l0.1-0.1l0.2,0l0.1,0l-0.2-0.2L58,71.9l0-0.3l0.1-0.4l0,0l0,0l0,0L58,71l0.1,0
		l0.1,0.1l0.1,0.1l-0.1,0l-0.1,0l0.1,0.1l0.1,0l0.2-0.1l0,0.1l0,0l0.1,0l0-0.1l0-0.1l0.1,0l0,0.2l0,0.1l0.1,0l0-0.1l0-0.2l0.1,0.1
		l0.1,0.1l0.1,0.1l0.1,0l0.1,0.1l0,0l0,0l0,0l0-0.1l-0.1-0.1l-0.1-0.1L59.2,71l0-0.1v-0.3l0-0.1l0-0.1l0-0.1h0.1l0,0.1l0.1,0.1
		l0.1,0.1l0.1,0l-0.1,0.1l0,0.1l0,0.1l0,0.1h0.1l0,0l0,0l0.1,0V71h-0.1v0.1l0.3-0.1l0.2-0.1l0.1-0.1l0.1-0.1l0.4,0l0.2-0.1l-0.1-0.1
		l0.2,0l0.1,0.1l0.1,0.1l-0.2-0.1l-0.2,0l0.4,0.2l0,0.1l0.1,0l0,0l0-0.1l-0.1-0.1l0.1,0l0-0.1l0-0.1l-0.1-0.1v-0.1l0.2,0.2l0,0.2
		L61,71.4l0.1,0.1l-0.2,0.1l-0.2,0l-0.2-0.1l-0.1-0.1l0,0.2l0,0.1l-0.1-0.1l-0.1,0l0,0l0,0.1h-0.1L60,71.4h-0.2l-0.1,0.1l0.1,0.1
		l0,0.1l0,0l0,0l0.1,0l0.1,0l0,0.1l0,0l0.1,0.2l0,0l0.1,0.1l0.1,0.1l0.1,0l0.1,0L61,72l0.1,0l0.3,0.1l0.1-0.1l0-0.3l0.1,0.1l0.1,0
		l0.2,0l0-0.1l0,0l0,0l-0.1,0l0.1,0l0.1,0l0.1,0l0.1-0.1l-0.1,0.2L62,71.8l-0.1,0.1l-0.1,0l0.1,0.1l0,0l0,0l0.1,0h0.3l0.2-0.1l0.1,0
		l0.1,0l0.6,0.2l0.1,0l0.2,0l0.1,0l-0.2,0l-0.3,0.1l-0.5,0l-0.1,0.1l0.1,0.1l-0.1,0.2l0.1,0.1l0.2,0l0.1,0.1l-0.1,0.2l0.1,0l0.2,0
		l0.1,0l0,0.1l-0.3,0.1l-0.1,0.1l-0.1-0.1l0,0l0,0l0-0.1l-0.1,0l-0.1,0l-0.1,0l-0.6,0.4l0.3,0.2l0.1,0.2l0,0.3h0.1l0-0.1l0,0l0-0.1
		l0,0l0,0l0.1,0L63,74l0.2,0.1l0.1,0.2l-0.1,0.2l-0.2,0l-0.3-0.2l-0.2,0v0.1l0.7,0.4l0.2,0l0,0l0-0.1l0-0.1l0.1-0.1l0.1,0l0.1,0
		l0.1,0l0.1,0.1l0.2,0.2l0.1,0.1l0.1,0.1l0.2,0l0.1-0.1l0.2-0.2l0.2-0.1l0.1-0.1l0-0.1l0-0.1l0.1-0.1l0.2-0.1l1.1-0.1l0.3,0.1
		l0.1,0.1l0.1,0l0.2,0l0.2,0.1l0.3,0.2l0.3,0.2l0.2,0.3l0.1,0.1l0.3,0.1l0.2,0.1l-0.4,0l-0.2-0.1l-0.2-0.2l-0.1-0.1L67.5,75
		l-0.3-0.2v-0.1h0.2l-0.1-0.1l-0.1,0l-0.1,0H67l0.1,0.1l-0.1,0l-0.4-0.1l-0.1-0.1l-0.1-0.1l-0.1,0l-0.1,0l-0.1,0l-0.7,0.1l-0.2,0.1
		l-0.1,0.1l0,0.1l0,0.1l0,0.1l0,0.2l0.1,0.2l0,0.2l0,0.2l0,0.1l-0.1,0L65,76L64.9,76l-0.1,0.1l-0.1,0.1l0.3,0.2l0.9,0.2l0.5,0.3
		l0.1,0.1l0.1,0.1l0.1,0.2l0,0.2l-0.1,0.1l-0.1,0.2l-0.1,0.4l-0.1,0.2l-0.3,0.2l-0.1,0.1l0,0.2l-0.2,0.1L65.6,79l0,0.2l0,0.2l0,0.2
		l0.1,0.2l0.1,0.1l0.2,0.1l0.2,0.2l0.4,0.4l0.2,0.5l0.1,0.1l0.1,0l0.1,0l0.1,0.1l0.1,0.3l0.1,0.1l0.1,0.1l0.1,0.1l0,0.1l0,0.2
		l0.1,0.1l0.1,0.1l0,0.2l0.2,0.8l0.1,0.1l0.1,0l0,0l0-0.1l0-0.2l0-0.1l0.1,0.1l0.1,0.2l0.1,0.1l0.1,0.1l0.2,0.1l0.3,0.2l0.4,0.1
		l0.1,0.1l-0.1,0.1l0.2,0.1l0.5,0l0.2,0l0.2,0.1l0.1,0.2l0,0.3l0.1,0.2l0.2,0l0.4-0.1l0.1,0l0.2,0.2l0.2,0.1l0.1,0l0.1,0l0.1,0.2
		l0.1,0.2l0.2,0.1l0-0.3l0.3-0.2l0.3,0l0.2,0.2l0,0.2l0,0.1l0,0.1L73.4,86l-0.5,0.3l-0.1,0.1l0,0.2l-0.1,0l-0.1,0.1l0,0.1l0,0.1
		l0.1,0.1l0.1,0l0.1,0l0.1,0l0.1,0l0,0l0,0l0,0.1l0,0.1l0,0l0.1,0l0.2,0.1l-0.1,0.1v0l0,0l0,0.1l0,0l0.1,0l0,0l0,0l0,0.1l0.1,0.1
		l0,0.1l0,0.1l0.1,0.1l0.1,0l0,0.1l0,0v0.1l-0.1,0.2l-0.1,0.1l-0.1,0l-0.2-0.1l0.1,0.4l0.1,0.1l0.1,0.1l0,0l-0.1,0.1l0,0l0,0.1
		l0.1,0.1l0,0.1l0,0.1l0,0.1l0,0l-0.1,0l-0.1,0L73.4,90l-0.1,0.1l0,0l0,0.1l-0.1,0.1l-0.1,0l0.1,0.1l0.1,0.2l0,0.2l0,0.1l0,0.1
		l0.2,0.2l0.7,0.6l0.2,0.2l-0.5-0.3l-0.1-0.1l-0.1-0.1L73.1,91L73,91l-0.5,0.2l0,0.1L72.3,92l0.1,0.1l0.3-0.1l0.1,0.1l0.1,0.1
		l0.1,0.1l0.1,0.1l0.1,0l0.2,0.1L74,93l0.3,0.1l0,0l0,0.2l0,0l1.1,0.8l0.4,0.4l0.2,0.3l0.2,0.3l0.3,0.7l0.1,0.4l0.3,2.1l0.1,0.3
		l0.1,0.3l0.3,0.2l0.3,0.1l0.3,0.2l0.2,0.3l-0.2-0.1l-0.2-0.1l-0.2,0l-0.2,0l0.2,0.1l0.2,0.2l0.1,0.2l-0.1,0.3l0,0.1l0,0.3l0,0.2
		l-0.1-0.1l-0.1-0.2l0-0.2l0-0.2l0-0.2l0-0.1l-0.1-0.1l-0.1-0.1l-0.2-0.1l-0.3-0.3l-0.3-0.3l-0.3-0.6l0-0.1l-0.1-1l-0.1-0.4l0-0.2
		L76,96.2l-0.2-0.3l-0.9-1l-0.1,0l-0.3-0.2l-0.5-0.4l-0.1-0.1L73.8,94l0-0.1l0-0.1l0-0.1l0,0l0-0.1l0-0.1l0,0l-0.1,0l-0.1,0
		l-0.1,0.2l-0.3,0.5l0,0.2L73,96.7l-0.3,1.7l-0.5,5.3l0.1-0.1l0.1-0.3l0.1-0.5l0.3-0.5l0.1-0.1l0,0l0,0l0,0l0,0l0.1,0l0,0l0,0l0,0
		l0.1,0l0.6,0.5l0.1,0.2h-0.1l0.2,0.2l0,0.2l-0.2,0.1l-0.3,0l-0.5-0.1l-0.2,0l-0.2,0.2l-0.1,0.5l0,0.1l0,0.1l-0.2,0.3l0,0.1l0.1,0.3
		l0,0.2l-0.1,0.7l-0.2,1.5l-0.5,3l-0.3,1.4l-0.2,0.6l-0.3,1.7l-0.2,0.6l-0.1,0.3l-0.1,0.4l-0.1,0.1l-0.4,0.3l-0.1,0.1l0,0.1
		l-0.2,0.3l-0.1,0.1l-0.1,0.1l-0.2,0.1l-0.2,0.1l-0.7,0.1l-0.1,0.1l-0.1,0.1l-0.1-0.1l0,0.3l0,0.2l0,0.1l0.2,0.1l0.1,0.1l0,0.2
		l0,0.1l0.1,0l0.1,0l0.2,0l0.2-0.1l0.1,0l0.1,0.1l0.1,0.1l0,0.1l0,0.1l0,0.1l0.1,0.2l0,0l0.1,0l0.1,0l0.1,0l0.1,0l0-0.1l0.1-0.2
		l0.1-0.1l0.2,0l0.2,0.1l0.3,0.2l0.1,0l0.1,0h0.1l0.2,0.2l0,0.4l-0.1,0.4l-0.1,0.3l-0.1,0.1l-0.3,0.3l-0.1,0.1l0.1,0.2l0.1,0.2
		l0.2,0.1l0.2,0l0.2,0l0.1,0l0.1-0.1l0-0.3l0.1-0.2l0.1-0.1l0.2-0.1l0.2,0l-0.2,0.1l-0.1,0.1l0,0.1l0.1,0.1l0.1,0.1l0.4,0.1l0.3,0.1
		l0.2,0.2l0.3,0l0.1,0l0.1,0.1l0.1,0l0.3,0l0.1,0l0.1,0.1l0.3,0.2l0.3,0.1l0.6,0.1l0.6-0.1l0.2,0.1l0.1,0.4l0,0.1l0,0l0,0.1l0,0.1
		l0.1,0.1l0.1,0l0.1,0l0.1,0l0.3,0.2l0.1,0.1l0.3,0.4l0,0l0,0l0,0l0.1,0h0.1l0,0l0,0.1l0,0.1l0,0.1l0.1,0l0.1,0l0.1-0.1l0.1,0l0-0.2
		l0.2,0l0.4,0.2l0.2,0l0.2-0.1l0.4-0.3l0.1,0.1l0.1,0l0.1-0.1l0-0.1l0.1,0.1l0.5,0.3l0.1,0.2l0.2,0l0.2-0.1l0.1-0.1l0,0.2l0,0.2
		l0.1,0.2l0.1,0.1l0,0.1l0,0.1l0,0.1l0.1,0l0.1,0l0.1,0l0,0.1l0,0l0.3,0.1l0.3,0l0.6-0.2l0.5-0.1l0.1-0.1l0.1,0l0.4,0.1l0.1,0.1
		l0.2,0.3l0.1,0.1l0.1,0l0.2-0.3l0.1-0.1l0.1-0.1l0.2,0.2l0,0l0,0l0,0l0,0l0.2,0l0.1,0l0.3-0.1l0.1,0.1l1,0l0.3,0l0.1,0l0.1-0.1
		l0-0.2l-0.1-0.2l-0.1-0.1l-0.1,0l0-0.1l0,0l0.1,0l-0.1-0.1l0.1-0.3l0-0.2l0-0.2l0.2-0.1l0.2,0l0.1,0l0.3,0.1l0.1,0l0.1,0l0.1,0
		l0.3,0.2l0.2,0.1l0.1,0.1l0.1,0.1l0.1,0l0.1,0L89,123l0.1,0l0.1,0l0.1,0.1l0.1,0l0.7,0l0.2,0.1l0.1,0.1l0.1,0.1l0.1,0.2l0.1,0.1
		l0.1,0.1l0.1,0l0.3-0.1l0.9,0l0.2,0l0,0.1l0,0l0.1,0l0.1,0l0.1,0.2l0.1,0.2l0.1,0.4l0.1,0.1L93,125l0.1-0.4l0.2,0l0.2-0.1l0.1,0
		l0.4,0.3l0.1,0l0.9,0.1l-0.1,0.2l0.1,0.1l0.2,0.1l0.1,0.1l-0.2,0l-0.1,0.1l-0.1,0.2l0,0.3l0,0l0,0l0,0l0,0l0.1,0.1l0.5,0.1l0.2,0.1
		l0.4,0.3l0.2,0l0.1,0l0.1,0.1l0.1,0.2l0.1,0.4l0.1,0.2l0.2,0.1l0.1,0.1l0.1,0l0.2,0l0.1,0l0.1-0.1l0.1-0.1l0.2-0.1l0-0.1l0.1-0.2
		l0-0.1l0.1-0.1l0.4,0l0.5-0.1l0.2,0l0.2,0.1l0.1,0.1l0.4,0.2l0.2,0.1l0.1,0l0.1,0.2l0.1,0.2l0.1,0.1l0.1,0l0.2,0.1l0.1,0l0.1,0
		l0.1,0l0.1-0.2l0.1-0.1l0.1,0l0.4,0.1l0.2,0l0.2,0l0,0l-0.1-0.1l-0.1-0.2l0.1-0.1l0.3-0.3l0.1-0.1l0.2,0l0.3,0l0.2,0l0.1-0.1
		l0.2-0.2l0.1-0.1l0.1,0l0.1,0l0.1,0l0.3-0.2l0.2,0.1l0.1-0.1l0.1,0l0.2,0l0.1,0l0,0.1l0.1,0.1l0.1,0.1l0.1,0.1l0.2,0.1l0.2,0l0.2,0
		l0.5-0.1l0-0.1l0-0.3l-0.2-0.3l-0.5-0.5l-0.1-0.2l-0.1-0.8l0-0.1l0-0.1l0,0l-0.1,0l0,0l-0.1-0.1l0-0.1l0-0.1l0.1-0.1l0.1,0.1l0,0
		l0-0.1l0.1-0.5l0-0.2l0-0.2l0-0.2l0-0.1l-0.1,0l-0.2-0.1l-0.1,0l-0.1,0l-0.1-0.1l0-0.1l-0.1-0.1l0.3-0.3l0.1,0l0-0.1l0-0.2l0-0.1
		l0.1,0l0.1,0.1l0.1,0l0.1-0.1l0-0.1l-0.2-0.2l-0.1-0.2l0-0.2l0.1-0.1l0.2,0l-0.1,0.2l0,0.1l0,0.1l0.1,0l0-0.1l0-0.1l0.1-0.1l0-0.1
		l0-0.1l0-0.3l0-0.1l0.1-0.2l0-0.1l-0.1-0.1l-0.1-0.1l-0.1-0.1l-0.1-0.3l0-0.1l0.1,0h0.2l0,0l-0.1,0.1l-0.1,0.1v0.1l0.1,0.1l0,0.1
		l0,0l0.1,0l0.2-0.3l0-0.1l0.1-0.1l0.2-0.2l0.1-0.1l0.1-0.2l0.1-0.1l0.1-0.2l1.1-0.8l0.3-0.1l0.2,0l0.3,0.2l0.2-0.1l0.6-0.8l0.2-0.2
		l0.9-0.5l1.5-1.3V115l-0.3,0.1l-0.2,0.2l-0.4,0.4l-0.4,0.3l-0.2,0.1l-0.3,0v-0.1l0.6-0.3l0.1-0.1l0-0.2l0.1-0.1l0.5-0.4l0.2-0.1
		l0.5-0.1l0.3-0.2l0.2-0.1l0.4-0.1l-0.1,0.2l-0.1,0.1l-0.1,0.1l-0.2,0l-0.4,0l-0.2,0.1l-0.1,0.1l0.3-0.1l0.5,0l0.4,0l0.2,0.2l0,0
		l0.2,0.6l0,0.1l0.1,0.1l0.2,0.1l0.2,0l2.4,0.1l0.3,0.1l0.2,0.2l0,0.2l-0.1,0.2l-0.1,0.2l0,0.1l0.2,0.1l0.3,0.1l1.1,0.1l0.3-0.1
		l-0.2-0.2l-0.2-0.2l-0.2-0.2l-0.1-0.4v-0.8l0-0.1l-0.2-0.4v-0.1l0.1,0.1l0.1,0.2l0.1,0.2l0,0.2l0,0.2l0,0.6l0.1,0.3l0.3,0.2
		l0.3,0.2l0.3,0.1l-0.1-0.2l-0.1-0.1l0-0.1l0.1-0.1l0.1-0.1l0.2,0l0.1-0.1l0.2-0.1l0.4,0.2l0.1-0.1l0.2,0.1l0.2-0.1l0.1-0.2
		l-0.1-0.3l-0.1-0.1l-0.1-0.1l-0.1-0.1l0-0.2l0-0.1l0-0.1l0.1-0.1l0.1-0.1l0,0l0.1,0.2l0,0l0.2,0l0.1,0l0.2,0.1l0,0.1l0,0.1l0.1,0.2
		l0.2,0.2l0.2,0l0.2-0.1l0.2-0.1l0,0.2l-0.1,0.2l-0.2,0.2l-0.1,0.1l-0.2,0.1h-0.7l-0.2,0.1l-0.1,0.2l0,0.2l0.2,0.2l0.2,0.1l0.5,0
		l0.1,0l0.3,0l1-0.2l0.2,0.1v0.5l0,0.1l0.1,0.1l0.1,0l0,0l0,0.1l0,0.1l-0.1,0.2l-0.1,0.1l0,0.1l0.1,0.1l0.1,0l0.2,0l0.1,0.1l0.1,0
		l0.2,0l0.2,0l0.1,0.1l0,0l0.1,0l0.1-0.1l0.1-0.1l0.1,0l0.2,0.3l0.1,0.1l0.1,0l0,0l0,0l0,0l0,0l0,0l0-0.1l0,0l0.4,0l0.1,0.1l0,0.2
		l0.3,0.2l0.1,0l0.2,0l0.1,0l0,0.1l0.1,0l0.1,0l0.1,0l0,0l-0.2,0.1l-0.1,0.1l0,0.1l0.1,0.1l0.4,0.2l0.2,0l0.1-0.1l0-0.1l0.1-0.1
		l0.1,0l0.2,0v-0.1l-0.1-0.1l-0.2-0.2l-0.1-0.1l0.2-0.1l0.1,0l0.1,0l0,0.1l0,0.1l0,0.1l0.2-0.1l0.2,0l0.2,0.1l0.1,0.1l0.1,0l0.6,0
		l0.1,0v0.1l0,0.2l0,0l-0.3,0v0.1l0.1,0l0.5,0l0.1,0v-0.1h-0.1l-0.1,0l-0.1-0.1l0.1-0.2l0-0.2l0.1-0.1l0.2-0.1l0.1,0l0.5,0l0.1,0
		l0.1,0l0.1,0l0.1,0l0,0.1l0,0.1l0,0l0.3,0l0.1-0.1l-0.1-0.2l0-0.1l0-0.1l0-0.1l0.1-0.1l0.1-0.1l0.2,0l0.2-0.1l0.2-0.1l0.1,0l0.2,0
		l0.1,0l0.1-0.1l0.1-0.1l0.1-0.1l0.2,0l0.1,0.1l0,0.1l0,0.1l0,0l0.1,0l0.1-0.1l0.1,0l-0.1-0.1l0.3-0.3l0-0.1l0,0l0,0l0,0l0-0.1
		l0-0.1l0,0l0,0l0-0.1l0.1-0.2l0-0.1l-0.7,0l0,0l0-0.1l0.1-0.1l0.2-0.1l0.2,0l0.1-0.1l0-0.1l0.1-0.1l0.1-0.1l0.1,0l0.1-0.1l0.1-0.3
		l0.1-0.2l0.1-0.2l0.1-0.1l0.2,0.1l0.2,0.1l0.4,0l0,0l0-0.1l0,0l0,0.1l0,0l0,0l0.1,0l0,0l0,0l0-0.1l0,0h0.1l0,0l0,0l0.3-0.5l0,0l0,0
		l0-0.2l0,0l0.1-0.2l0.1-0.1l0.1-0.1l0.1-0.1l0.2,0.1l0.2-0.1l0.2-0.1l0.2-0.1l0,0l0,0.1l0,0.1l0.1,0l0,0l0,0l0-0.1l0-0.1l0-0.5
		l0-0.1l0.1,0l0.1-0.1l0.1-0.1l0.1,0l0.1,0l0.1,0l0.1,0l0.1-0.1l0.1-0.2l0.1-0.1l0.1,0l0.1,0l0.4,0l0,0.1l0,0l0.1,0l0-0.1l0-0.1
		l0.1-0.1l0.1,0l0-0.1l0.1-0.1l0.1-0.1l0.2,0.1l0.1-0.1l0.1,0l0.1,0l0.1,0l0,0l0.1,0l0,0l0-0.1l0,0l0,0l0,0h0l0.1-0.1l-0.2-0.5
		l0-0.3l0.1-0.2l0.3-0.4l0.2-0.2l0.4-0.3l0.2-0.2l0.1-0.1l0.1-0.2l0-0.1l0.1-0.1l0.1-0.1l0.1-0.1l0-0.2l-0.1-0.3l-0.2-0.2l-0.1-0.2
		l0.1-0.3l-0.2,0l-0.3,0.2l-0.2,0l-1.3,0.4l-0.3,0l-0.1,0l-0.1-0.1l0-0.1l-0.1-0.1l-0.1,0l-0.2,0l-0.1-0.1l-0.8-0.5l-0.3-0.1
		l-0.5-0.2l-0.1,0l-0.1,0l-0.1,0l-0.1,0l-0.1,0l-0.1-0.1l0-0.1l0-0.1l0-0.1l-0.1-0.1l-0.1-0.1l-0.1-0.1l0-0.1l-0.1-0.2l-0.1-0.1
		l-0.2-0.2l0,0l0-0.1l0-0.1l0-0.1l0.1-0.3l0.1-0.1l0.3-0.1l-0.2-0.2l-0.2-0.2l-0.2-0.3l0-0.3l0.1-0.1l0.4-0.3l0.3-0.5l0.1-0.1
		l-0.1-0.2l0.1-0.2l0.1-0.2l0.2-0.1l0.1,0l0.3,0.1l0.1,0l0-0.1l-0.2-0.4l0-0.1l0-0.3l-0.1-0.2l0,0l0-0.2l0,0l0-0.1l0,0l0,0l0-0.1
		l0-0.1l-0.1-0.2l-0.4-0.2l-0.1,0l-0.4,0.1l-0.1,0l-0.5-0.3l-0.3-0.2l-0.1-0.2l0-0.6l0-0.3l-0.2-0.1l-0.3,0l-0.1-0.1l-0.1-0.2l0-0.1
		l0-0.1l0-0.1l-0.1-0.1l-0.1-0.2l0.1-0.1l0.1-0.1l0.3-0.2l0.1,0l0.1,0l0.1,0l0.1,0l0.1-0.1l0.1,0l0.3,0l0.3,0.2l0.3,0.1l0.2-0.1
		l0-0.1l0,0l0-0.1l0-0.1l0.1,0l0.2,0l0.1,0l0.1-0.1l0.1-0.2l0.1-0.1l0.3-0.1l0.3-0.1l0.1,0l0.1,0.1l0,0l0.1-0.1l0.1-0.3l0.2-0.2
		v-0.2l-0.1-0.2l0-0.3l0-0.1l0.2-0.3l0.2-0.3l0.1-0.2l0-0.1l-0.1,0l-0.3-0.1l-0.1-0.1l-0.1-0.1l-0.1-0.1l-0.1-0.1l-0.3-0.2l-0.3-0.2
		l-0.1-0.2l0-0.5l0-0.1l-0.1-0.1l0-0.1l0-0.1l0.1-0.2l0-0.1l0-0.2l-0.1-0.1l-0.2-0.1l-0.1-0.1l-0.2-0.2l-0.1,0l-0.2,0l-0.2-0.2
		l-0.2-0.2l-0.1-0.5l0-0.2l0-0.2l0-0.2l0.1-0.2l0.1-0.1l0.2,0v0l0,0l0-0.1l0,0l0,0l0.1,0l0,0l0.1,0l0.2,0l0.2,0l0.2-0.1l0.2-0.1
		l0.1-0.2l0-0.1l0.1-0.1l0.1-0.1l0.1-0.1l-0.1-0.1l0-0.1l-0.1-0.2l-0.1-0.2l0-0.1l0,0l-0.5-0.6l-0.2-0.1l-0.1,0l-0.1,0.1l-0.1,0
		l-0.1,0l-0.1-0.1l0,0l0,0l0-0.1l0,0l0-0.1l0-0.1l0,0l0-0.1l0.1-0.1l0.1-0.1l0-0.1l-0.1-0.1l-0.6-0.1l-0.1-0.2l0.1-0.4l0.1-0.4
		l0.3-0.5l-0.2-0.3l-0.3-0.3l-0.1-0.3l0-0.1l0.2-0.2l0.1-0.2l0-0.2l-0.1-0.1l-0.1-0.1l-1.1-0.3l-0.5,0l-0.5,0.1l-0.7,0.4l-0.2,0.1
		l-0.3,0l-0.2,0.1l-0.2,0.2l-0.2,0.3l-0.2,0.2l0,0.2l0,0.1l0.1,0.2l0,0l0.1,0.2l0,0l0.1,0l0.1-0.1l0.1,0l0,0.3l-0.2,0.2l-0.5,0.3
		l-0.4,0.5l-0.2,0.1l-0.3-0.1l-0.3,0l-0.3,0.1l-0.2,0.1l0.1-0.2l0.1-0.1l0-0.1l-0.1-0.2l-0.1-0.2l0-0.1l0.2-0.1l0.5-0.2l0,0h0l0.1,0
		l0,0l0,0l0.2-0.1l0-0.1l0-0.1l0-0.1l0.1-0.3l0-0.1l0.2-0.6l0-0.1l-0.1-0.2l-0.1-0.1l-0.4-0.3l0.1-0.1l0-0.1l0-0.1v-0.1l0,0l0,0
		l0-0.1v-0.1l0-0.1l0.1-0.1l0.3-0.5l0.3-0.3l-0.2-0.2l0-0.1l0.1-0.1l1-0.9l0.5-0.3l0.1-0.1l0.2-0.2l0.3-0.1l0.1-0.1l0.1-0.1l0-0.1
		l0-0.2l-0.1-0.1l0-0.1l0-0.1l0-0.1l0.1-0.4l0.1-0.1l0-0.1l0-0.2l0-0.1l-0.1-0.2l0-0.1l0.1-0.4l0.4-0.2l0.8-0.3l0.5-0.4l0.2-0.3
		l-0.1-0.2l0.1-0.2l0.1-0.1l0.2-0.1l0-0.1l0,0l0.1-0.1l0-0.2l0.2-0.1l0.5-0.5l0.1-0.2l0.2-0.2L135,75l0-0.3l0-0.2l0.1-0.1l0.1,0l0,0
		l0.1-0.2l0.1,0l0.1,0l0.1,0l0.1-0.1l-0.1-0.1l-0.1-0.1l-0.1-0.1l-0.1,0.1l-0.9,0.1l0-0.1l0.1-0.2l0.1-0.1l0.2-0.1l0-0.2l0.2,0
		l0.1-0.1l0.1-0.1l0.1-0.1l0-0.1l-0.1-0.2l0-0.1l0.1,0l0.1-0.1l0.1,0l0.1,0l0.1,0.1l0.2,0l0.4-0.1l0.2,0l0.1,0.1l0.1,0l0.2,0
		l-0.1,0.3l0,0.2l0.2,0.1l0.2,0.1l0,0l0,0l0,0l0.1,0l0.1,0l0.3-0.1l0.2,0l0.5,0l0.2-0.1l0.2-0.2l0-0.1l0-0.1l0-0.1l0,0l0-0.1v-0.1
		l0.1,0l0.1,0l0.1,0.1l0.1,0l0.1-0.1l0,0l0,0v0l0,0l-0.1-0.1l0,0l0,0l0,0l0.1,0l0.1,0l0-0.1l0-0.1l0,0l-0.1-0.1l0,0l0.3-0.3l0.2-0.1
		l0.3-0.1l0,0l0,0l0-0.1l0,0l0-0.1l0-0.1l0,0l0-0.1l-0.2-0.3l-0.1-0.1l-0.1-0.1l0-0.1l0-0.1l0-0.2l0-0.1l0.1-0.1l0-0.1l0-0.2
		l-0.1-0.4l0-0.2l0.1-0.4l0-0.1l0.1-0.1l0-0.1l0-0.2l0-0.1l0,0l0,0l0,0l0-0.1l0.1,0l0-0.1l0-0.1l0-0.1l0-0.2l0-0.2l0.2-0.2l0.1-0.1
		l0-0.4l-0.3-0.6l0-0.5l0-0.2l0.1-0.2l0.1-0.1l0.1-0.1l0-0.1l0-0.2l0.1-0.1l0.5-0.7l0.1-0.2l0-0.2l0-0.2l0.1-0.2l0.1-0.1l0.1-0.1
		l0.1-0.2l0-0.2l0-0.2l0-0.1l0-0.1l0-0.2l0.1-0.3l0-0.1l0.1-0.1l0.1-0.1l0-0.1l0-0.2l0-0.1l0.1-0.1l0.2-0.2v-0.1l-0.1-0.2v-0.4
		l0.1-0.4l0.3-0.5l0.1-0.1l0.1,0l0.1-0.1l0.2-0.2l0.1-0.1l0.1-0.1l0.1-0.1l0-0.1l0-0.2l0-0.1l0.1,0l0.2,0l0.1,0l0,0l0-0.1l0-0.1
		l0-0.1l0,0l0,0l0.1,0l0.3-0.1l0,0l0.1-0.2l0.3-1l0.2-0.5l0.2-0.2l-0.1-0.1L143.7,55.2z M97.1,126.7L97.1,126.7L97.1,126.7l-0.3,0
		l-0.1-0.1l0-0.1l0.1-0.2l0.1,0l0.1,0.1l0.1,0.2L97.1,126.7L97.1,126.7z"/>
	<g>
		<g>
			<path class="st1" d="M158.6,28.1c-15.2,0.2-36.2,14.9-42.1,30.2"/>
			<g>
				<path class="st2" d="M116.4,58.3c0.3-0.1,0.7-0.1,1,0c-0.5,0.1-0.9,0.4-1.3,0.7c0-0.5-0.2-1-0.5-1.4
					C116,57.8,116.3,58,116.4,58.3z"/>
			</g>
		</g>
	</g>
	<g>
		<path class="st3" d="M170.6,26.6h-0.8l-1.5-2.3h-1.2v2.3h-0.7v-5.8h2.3c0.5,0,1,0.2,1.3,0.5c0.3,0.3,0.5,0.7,0.5,1.3
			c0,0.5-0.1,0.9-0.4,1.2c-0.3,0.3-0.6,0.5-1.1,0.5L170.6,26.6z M168.6,23.6c0.3,0,0.6-0.1,0.8-0.3c0.2-0.2,0.3-0.5,0.3-0.8
			s-0.1-0.6-0.3-0.8c-0.2-0.2-0.5-0.3-0.8-0.3h-1.5v2.2H168.6z"/>
		<path class="st3" d="M175.1,26.6h-0.6V26c-0.2,0.2-0.4,0.4-0.7,0.5s-0.5,0.2-0.8,0.2c-0.9,0-1.3-0.4-1.3-1.3v-3h0.6v2.8
			c0,0.3,0.1,0.6,0.2,0.7c0.2,0.1,0.4,0.2,0.7,0.2c0.2,0,0.5-0.1,0.7-0.2c0.2-0.1,0.4-0.3,0.5-0.4v-3.1h0.6V26.6z"/>
		<path class="st3" d="M177.7,26.7c-0.7,0-1.3-0.2-1.7-0.7l0.3-0.5c0.1,0.2,0.3,0.3,0.6,0.4c0.3,0.1,0.5,0.2,0.8,0.2
			c0.3,0,0.6-0.1,0.7-0.2c0.2-0.1,0.3-0.3,0.3-0.5c0-0.2-0.1-0.3-0.3-0.4c-0.2-0.1-0.4-0.2-0.6-0.2c-0.3-0.1-0.5-0.1-0.8-0.2
			c-0.3-0.1-0.5-0.2-0.6-0.4c-0.2-0.2-0.3-0.4-0.3-0.7c0-0.3,0.1-0.6,0.4-0.9c0.3-0.2,0.7-0.3,1.1-0.3c0.6,0,1.1,0.2,1.5,0.6
			l-0.3,0.5c-0.3-0.4-0.7-0.5-1.2-0.5c-0.3,0-0.5,0.1-0.7,0.2s-0.3,0.3-0.3,0.5c0,0.2,0.1,0.3,0.3,0.4c0.2,0.1,0.4,0.2,0.6,0.2
			s0.5,0.1,0.8,0.2c0.3,0.1,0.5,0.2,0.6,0.4c0.2,0.2,0.3,0.4,0.3,0.7c0,0.4-0.1,0.7-0.4,0.9C178.6,26.5,178.2,26.7,177.7,26.7z"/>
		<path class="st3" d="M181.7,26.7c-0.7,0-1.3-0.2-1.7-0.7l0.3-0.5c0.1,0.2,0.3,0.3,0.6,0.4c0.3,0.1,0.5,0.2,0.8,0.2
			c0.3,0,0.6-0.1,0.7-0.2c0.2-0.1,0.3-0.3,0.3-0.5c0-0.2-0.1-0.3-0.3-0.4c-0.2-0.1-0.4-0.2-0.6-0.2c-0.2-0.1-0.5-0.1-0.8-0.2
			c-0.3-0.1-0.5-0.2-0.6-0.4c-0.2-0.2-0.3-0.4-0.3-0.7c0-0.3,0.1-0.6,0.4-0.9c0.3-0.2,0.7-0.3,1.1-0.3c0.6,0,1.1,0.2,1.5,0.6
			l-0.3,0.5c-0.3-0.4-0.7-0.5-1.2-0.5c-0.3,0-0.5,0.1-0.7,0.2c-0.2,0.1-0.3,0.3-0.3,0.5c0,0.2,0.1,0.3,0.3,0.4
			c0.2,0.1,0.4,0.2,0.6,0.2c0.3,0.1,0.5,0.1,0.8,0.2c0.3,0.1,0.5,0.2,0.6,0.4c0.2,0.2,0.3,0.4,0.3,0.7c0,0.4-0.1,0.7-0.4,0.9
			C182.7,26.5,182.2,26.7,181.7,26.7z"/>
		<path class="st3" d="M184.7,21.8c-0.1,0-0.2,0-0.3-0.1c-0.1-0.1-0.1-0.2-0.1-0.3s0-0.2,0.1-0.3c0.1-0.1,0.2-0.1,0.3-0.1
			c0.1,0,0.2,0,0.3,0.1c0.1,0.1,0.1,0.2,0.1,0.3s0,0.2-0.1,0.3C185,21.7,184.9,21.8,184.7,21.8z M185.1,26.6h-0.6v-4.2h0.6V26.6z"/>
		<path class="st3" d="M189.6,26.6H189v-0.5c-0.4,0.4-0.8,0.6-1.4,0.6c-0.4,0-0.7-0.1-1-0.4c-0.3-0.2-0.4-0.6-0.4-1
			c0-0.4,0.1-0.8,0.4-1c0.3-0.2,0.6-0.4,1-0.4c0.6,0,1.1,0.2,1.4,0.6v-0.8c0-0.3-0.1-0.5-0.3-0.6c-0.2-0.2-0.5-0.2-0.8-0.2
			c-0.5,0-0.9,0.2-1.3,0.6l-0.3-0.4c0.4-0.5,1-0.7,1.7-0.7c0.5,0,0.9,0.1,1.2,0.3s0.4,0.6,0.4,1.1V26.6z M187.8,26.2
			c0.5,0,0.9-0.2,1.2-0.5v-0.8c-0.2-0.3-0.6-0.5-1.2-0.5c-0.3,0-0.5,0.1-0.7,0.3c-0.2,0.2-0.3,0.4-0.3,0.7c0,0.3,0.1,0.5,0.3,0.7
			C187.3,26.1,187.5,26.2,187.8,26.2z"/>
	</g>
	<g>
		<path class="st3" d="M169.1,53c-0.8,0-1.5-0.3-2.1-0.8c-0.6-0.6-0.9-1.3-0.9-2.1s0.3-1.6,0.9-2.1c0.6-0.6,1.3-0.8,2.1-0.8
			c0.9,0,1.7,0.4,2.2,1.1l-0.6,0.3c-0.2-0.2-0.4-0.4-0.7-0.6c-0.3-0.2-0.6-0.2-0.9-0.2c-0.6,0-1.2,0.2-1.6,0.7
			c-0.4,0.4-0.6,1-0.6,1.7s0.2,1.2,0.6,1.7c0.4,0.4,1,0.7,1.6,0.7c0.3,0,0.6-0.1,0.9-0.2c0.3-0.2,0.5-0.4,0.7-0.6l0.6,0.3
			C170.8,52.6,170,53,169.1,53z"/>
		<path class="st3" d="M175.7,52.9H175v-2.8c0-0.3-0.1-0.6-0.2-0.7c-0.2-0.1-0.4-0.2-0.7-0.2c-0.2,0-0.5,0.1-0.7,0.2
			c-0.2,0.1-0.4,0.3-0.5,0.5v3.1h-0.6v-5.8h0.6v2.2c0.2-0.2,0.4-0.4,0.6-0.5c0.3-0.1,0.6-0.2,0.8-0.2c0.9,0,1.3,0.4,1.3,1.3V52.9z"
			/>
		<path class="st3" d="M177.3,48.1c-0.1,0-0.2,0-0.3-0.1c-0.1-0.1-0.1-0.2-0.1-0.3c0-0.1,0-0.2,0.1-0.3c0.1-0.1,0.2-0.1,0.3-0.1
			c0.1,0,0.2,0,0.3,0.1c0.1,0.1,0.1,0.2,0.1,0.3c0,0.1,0,0.2-0.1,0.3C177.5,48.1,177.4,48.1,177.3,48.1z M177.6,52.9H177v-4.2h0.6
			V52.9z"/>
		<path class="st3" d="M182.4,52.9h-0.6v-2.7c0-0.4-0.1-0.6-0.2-0.7c-0.2-0.1-0.4-0.2-0.7-0.2c-0.2,0-0.5,0.1-0.7,0.2
			c-0.2,0.1-0.4,0.3-0.5,0.5v3.1h-0.6v-4.2h0.6v0.6c0.2-0.2,0.4-0.4,0.6-0.5c0.3-0.1,0.6-0.2,0.8-0.2c0.9,0,1.3,0.4,1.3,1.4V52.9z"
			/>
		<path class="st3" d="M187,52.9h-0.6v-0.5c-0.4,0.4-0.8,0.6-1.4,0.6c-0.4,0-0.7-0.1-1-0.4c-0.3-0.2-0.4-0.6-0.4-1
			c0-0.4,0.1-0.8,0.4-1c0.3-0.2,0.6-0.4,1-0.4c0.6,0,1.1,0.2,1.4,0.6v-0.8c0-0.3-0.1-0.5-0.3-0.6c-0.2-0.2-0.4-0.2-0.8-0.2
			c-0.5,0-0.9,0.2-1.3,0.6l-0.3-0.4c0.4-0.5,1-0.7,1.7-0.7c0.5,0,0.9,0.1,1.2,0.3c0.3,0.2,0.4,0.6,0.4,1.1V52.9z M185.2,52.5
			c0.5,0,0.9-0.2,1.2-0.5v-0.8c-0.2-0.3-0.6-0.5-1.2-0.5c-0.3,0-0.5,0.1-0.7,0.3c-0.2,0.2-0.3,0.4-0.3,0.7c0,0.3,0.1,0.5,0.3,0.7
			C184.6,52.5,184.9,52.5,185.2,52.5z"/>
	</g>
	<g>
		<path class="st3" d="M169,81.5h-2.6v-5.8h2.6c0.5,0,0.9,0.1,1.2,0.4c0.3,0.3,0.4,0.6,0.4,1.1c0,0.3-0.1,0.6-0.3,0.9
			c-0.2,0.2-0.4,0.4-0.7,0.4c0.3,0,0.6,0.2,0.8,0.5c0.2,0.3,0.3,0.6,0.3,0.9c0,0.5-0.1,0.8-0.4,1.1C169.9,81.3,169.5,81.5,169,81.5z
			 M168.8,78.2c0.3,0,0.6-0.1,0.7-0.3c0.2-0.2,0.3-0.4,0.3-0.7c0-0.3-0.1-0.5-0.3-0.7c-0.2-0.2-0.4-0.3-0.7-0.3h-1.7v1.9H168.8z
			 M168.9,80.8c0.3,0,0.6-0.1,0.8-0.3c0.2-0.2,0.3-0.4,0.3-0.7c0-0.3-0.1-0.5-0.3-0.7c-0.2-0.2-0.5-0.3-0.8-0.3h-1.8v2H168.9z"/>
		<path class="st3" d="M175.1,81.5h-0.6V81c-0.4,0.4-0.8,0.6-1.4,0.6c-0.4,0-0.7-0.1-1-0.4c-0.3-0.2-0.4-0.6-0.4-1
			c0-0.4,0.1-0.8,0.4-1c0.3-0.2,0.6-0.4,1-0.4c0.6,0,1.1,0.2,1.4,0.6v-0.8c0-0.3-0.1-0.5-0.3-0.6c-0.2-0.2-0.4-0.2-0.8-0.2
			c-0.5,0-0.9,0.2-1.3,0.6l-0.3-0.4c0.4-0.5,1-0.7,1.7-0.7c0.5,0,0.9,0.1,1.2,0.3c0.3,0.2,0.5,0.6,0.5,1.1V81.5z M173.3,81.1
			c0.5,0,0.9-0.2,1.2-0.5v-0.8c-0.2-0.3-0.6-0.5-1.2-0.5c-0.3,0-0.5,0.1-0.7,0.3c-0.2,0.2-0.3,0.4-0.3,0.7c0,0.3,0.1,0.5,0.3,0.7
			C172.7,81,173,81.1,173.3,81.1z"/>
		<path class="st3" d="M179.8,81.5h-0.6v-2.7c0-0.4-0.1-0.6-0.2-0.7c-0.2-0.1-0.4-0.2-0.7-0.2c-0.2,0-0.5,0.1-0.7,0.2
			c-0.2,0.1-0.4,0.3-0.5,0.5v3.1h-0.6v-4.2h0.6v0.6c0.2-0.2,0.4-0.4,0.6-0.5c0.3-0.1,0.6-0.2,0.8-0.2c0.9,0,1.3,0.4,1.3,1.4V81.5z"
			/>
		<path class="st3" d="M182.8,83.2c-0.4,0-0.7,0-0.9-0.1c-0.3-0.1-0.5-0.3-0.7-0.5l0.3-0.5c0.3,0.4,0.8,0.6,1.4,0.6
			c0.4,0,0.7-0.1,1-0.3c0.3-0.2,0.4-0.5,0.4-0.9v-0.6c-0.2,0.2-0.4,0.4-0.6,0.5c-0.2,0.1-0.5,0.2-0.8,0.2c-0.6,0-1-0.2-1.3-0.6
			c-0.3-0.4-0.5-0.9-0.5-1.6c0-0.7,0.2-1.2,0.5-1.6c0.3-0.4,0.8-0.6,1.3-0.6c0.6,0,1,0.2,1.4,0.7v-0.6h0.6v4.1
			c0,0.6-0.2,1.1-0.6,1.4C183.9,83,183.4,83.2,182.8,83.2z M182.9,81c0.2,0,0.5-0.1,0.7-0.2s0.4-0.3,0.5-0.5v-1.8
			c-0.1-0.2-0.3-0.4-0.5-0.5c-0.2-0.1-0.5-0.2-0.7-0.2c-0.4,0-0.7,0.1-1,0.4c-0.2,0.3-0.4,0.7-0.4,1.2c0,0.5,0.1,0.8,0.4,1.1
			C182.2,80.8,182.5,81,182.9,81z"/>
		<path class="st3" d="M186.7,81.5h-0.6v-5.8h0.6V81.5z"/>
		<path class="st3" d="M191.3,81.5h-0.6V81c-0.4,0.4-0.8,0.6-1.4,0.6c-0.4,0-0.7-0.1-1-0.4c-0.3-0.2-0.4-0.6-0.4-1
			c0-0.4,0.1-0.8,0.4-1c0.3-0.2,0.6-0.4,1-0.4c0.6,0,1.1,0.2,1.4,0.6v-0.8c0-0.3-0.1-0.5-0.3-0.6c-0.2-0.2-0.5-0.2-0.8-0.2
			c-0.5,0-0.9,0.2-1.3,0.6l-0.3-0.4c0.4-0.5,1-0.7,1.7-0.7c0.5,0,0.9,0.1,1.2,0.3c0.3,0.2,0.4,0.6,0.4,1.1V81.5z M189.5,81.1
			c0.5,0,0.9-0.2,1.2-0.5v-0.8c-0.2-0.3-0.6-0.5-1.2-0.5c-0.3,0-0.5,0.1-0.7,0.3c-0.2,0.2-0.3,0.4-0.3,0.7c0,0.3,0.1,0.5,0.3,0.7
			C189,81,189.2,81.1,189.5,81.1z"/>
		<path class="st3" d="M196.3,81.5h-0.6v-0.6c-0.4,0.5-0.8,0.7-1.4,0.7c-0.6,0-1-0.2-1.3-0.6c-0.3-0.4-0.5-0.9-0.5-1.6
			c0-0.7,0.2-1.2,0.5-1.6s0.8-0.6,1.3-0.6c0.6,0,1,0.2,1.4,0.7v-2.2h0.6V81.5z M194.4,81c0.3,0,0.5-0.1,0.7-0.2
			c0.2-0.1,0.4-0.3,0.5-0.5v-1.9c-0.1-0.2-0.3-0.4-0.5-0.5c-0.2-0.1-0.5-0.2-0.7-0.2c-0.4,0-0.7,0.2-1,0.5c-0.2,0.3-0.4,0.7-0.4,1.2
			c0,0.5,0.1,0.9,0.4,1.2C193.6,80.9,194,81,194.4,81z"/>
		<path class="st3" d="M199.5,81.6c-0.6,0-1.1-0.2-1.5-0.6c-0.4-0.4-0.6-0.9-0.6-1.6c0-0.6,0.2-1.1,0.6-1.6c0.4-0.4,0.9-0.6,1.5-0.6
			c0.6,0,1.1,0.2,1.5,0.6c0.4,0.4,0.5,1,0.5,1.6v0.2H198c0,0.4,0.2,0.8,0.4,1c0.3,0.3,0.6,0.4,1.1,0.4c0.5,0,0.9-0.2,1.3-0.5
			l0.3,0.4C200.7,81.4,200.1,81.6,199.5,81.6z M200.8,79.1c0-0.4-0.1-0.7-0.4-1c-0.2-0.3-0.6-0.4-1-0.4c-0.4,0-0.7,0.1-1,0.4
			c-0.2,0.3-0.4,0.6-0.4,1H200.8z"/>
		<path class="st3" d="M203.8,81.6c-0.7,0-1.3-0.2-1.7-0.7l0.3-0.5c0.1,0.2,0.3,0.3,0.6,0.4c0.3,0.1,0.5,0.2,0.8,0.2
			c0.3,0,0.6-0.1,0.7-0.2c0.2-0.1,0.3-0.3,0.3-0.5c0-0.2-0.1-0.3-0.3-0.4c-0.2-0.1-0.4-0.2-0.6-0.2c-0.3-0.1-0.5-0.1-0.8-0.2
			c-0.3-0.1-0.5-0.2-0.6-0.4c-0.2-0.2-0.3-0.4-0.3-0.7c0-0.3,0.1-0.6,0.4-0.9c0.3-0.2,0.7-0.3,1.1-0.3c0.6,0,1.1,0.2,1.5,0.6
			l-0.3,0.4c-0.3-0.4-0.7-0.5-1.2-0.5c-0.3,0-0.5,0.1-0.7,0.2c-0.2,0.1-0.3,0.3-0.3,0.5c0,0.2,0.1,0.3,0.3,0.4
			c0.2,0.1,0.4,0.2,0.6,0.2c0.3,0.1,0.5,0.1,0.8,0.2c0.3,0.1,0.5,0.2,0.6,0.4c0.2,0.2,0.3,0.4,0.3,0.7c0,0.4-0.1,0.7-0.4,0.9
			C204.7,81.5,204.3,81.6,203.8,81.6z"/>
		<path class="st3" d="M209.9,81.5h-0.6v-2.8c0-0.3-0.1-0.6-0.2-0.7c-0.2-0.1-0.4-0.2-0.7-0.2c-0.2,0-0.5,0.1-0.7,0.2
			c-0.2,0.1-0.4,0.3-0.5,0.5v3.1h-0.6v-5.8h0.6v2.2c0.2-0.2,0.4-0.4,0.6-0.5c0.3-0.1,0.6-0.2,0.8-0.2c0.9,0,1.3,0.4,1.3,1.3V81.5z"
			/>
	</g>
	<g>
		<path class="st3" d="M170.8,111.2h-0.9l-2.2-2.6l-0.6,0.7v1.9h-0.7v-5.8h0.7v3l2.6-3h0.9l-2.4,2.7L170.8,111.2z"/>
		<path class="st3" d="M174.6,110.7c-0.4,0.4-0.9,0.6-1.5,0.6c-0.6,0-1.1-0.2-1.5-0.6c-0.4-0.4-0.6-0.9-0.6-1.6
			c0-0.6,0.2-1.1,0.6-1.6c0.4-0.4,0.9-0.6,1.5-0.6c0.6,0,1.1,0.2,1.5,0.6c0.4,0.4,0.6,0.9,0.6,1.6
			C175.2,109.7,175,110.2,174.6,110.7z M172.1,110.2c0.2,0.3,0.6,0.5,1,0.5c0.4,0,0.8-0.2,1-0.5c0.2-0.3,0.4-0.7,0.4-1.1
			s-0.1-0.8-0.4-1.1c-0.2-0.3-0.6-0.5-1-0.5c-0.4,0-0.8,0.2-1,0.5c-0.3,0.3-0.4,0.7-0.4,1.1C171.7,109.6,171.8,109.9,172.1,110.2z"
			/>
		<path class="st3" d="M177.5,111.3c-0.7,0-1.3-0.2-1.7-0.7l0.3-0.5c0.1,0.2,0.3,0.3,0.6,0.4c0.3,0.1,0.5,0.2,0.8,0.2
			c0.3,0,0.6-0.1,0.7-0.2s0.3-0.3,0.3-0.5c0-0.2-0.1-0.3-0.3-0.4c-0.2-0.1-0.4-0.2-0.6-0.2c-0.3-0.1-0.5-0.1-0.8-0.2
			c-0.3-0.1-0.5-0.2-0.6-0.4c-0.2-0.2-0.3-0.4-0.3-0.7c0-0.3,0.1-0.6,0.4-0.9c0.3-0.2,0.7-0.3,1.1-0.3c0.6,0,1.1,0.2,1.5,0.6
			l-0.3,0.5c-0.3-0.4-0.7-0.5-1.2-0.5c-0.3,0-0.5,0.1-0.7,0.2c-0.2,0.1-0.3,0.3-0.3,0.5c0,0.2,0.1,0.3,0.3,0.4
			c0.2,0.1,0.4,0.2,0.6,0.2c0.3,0.1,0.5,0.1,0.8,0.2c0.3,0.1,0.5,0.2,0.6,0.4c0.2,0.2,0.3,0.4,0.3,0.7c0,0.4-0.1,0.7-0.4,0.9
			C178.5,111.2,178.1,111.3,177.5,111.3z"/>
		<path class="st3" d="M183.6,110.7c-0.4,0.4-0.9,0.6-1.5,0.6c-0.6,0-1.1-0.2-1.5-0.6c-0.4-0.4-0.6-0.9-0.6-1.6
			c0-0.6,0.2-1.1,0.6-1.6s0.9-0.6,1.5-0.6c0.6,0,1.1,0.2,1.5,0.6c0.4,0.4,0.6,0.9,0.6,1.6C184.1,109.7,183.9,110.2,183.6,110.7z
			 M181,110.2c0.3,0.3,0.6,0.5,1,0.5c0.4,0,0.8-0.2,1-0.5c0.2-0.3,0.4-0.7,0.4-1.1s-0.1-0.8-0.4-1.1c-0.2-0.3-0.6-0.5-1-0.5
			c-0.4,0-0.8,0.2-1,0.5c-0.3,0.3-0.4,0.7-0.4,1.1C180.7,109.6,180.8,109.9,181,110.2z"/>
		<path class="st3" d="M187,111.2h-0.7l-1.7-4.2h0.7l1.4,3.4l1.4-3.4h0.7L187,111.2z"/>
		<path class="st3" d="M192.7,110.7c-0.4,0.4-0.9,0.6-1.5,0.6c-0.6,0-1.1-0.2-1.5-0.6c-0.4-0.4-0.6-0.9-0.6-1.6
			c0-0.6,0.2-1.1,0.6-1.6c0.4-0.4,0.9-0.6,1.5-0.6c0.6,0,1.1,0.2,1.5,0.6c0.4,0.4,0.6,0.9,0.6,1.6
			C193.3,109.7,193.1,110.2,192.7,110.7z M190.2,110.2c0.2,0.3,0.6,0.5,1,0.5c0.4,0,0.8-0.2,1-0.5c0.2-0.3,0.4-0.7,0.4-1.1
			s-0.1-0.8-0.4-1.1c-0.2-0.3-0.6-0.5-1-0.5c-0.4,0-0.8,0.2-1,0.5c-0.3,0.3-0.4,0.7-0.4,1.1C189.9,109.6,190,109.9,190.2,110.2z"/>
	</g>
	<g>
		<path class="st3" d="M11.4,24.7h-0.8l-0.5-1.3H7.2l-0.5,1.3H5.9l2.3-5.8h0.9L11.4,24.7z M9.9,22.8l-1.2-3.1l-1.2,3.1H9.9z"/>
		<path class="st3" d="M12.8,24.7h-0.6v-5.8h0.6V24.7z"/>
		<path class="st3" d="M14.7,24.7h-0.6v-5.8h0.6v2.2c0.4-0.5,0.8-0.7,1.4-0.7c0.5,0,1,0.2,1.3,0.6c0.3,0.4,0.5,0.9,0.5,1.6
			c0,0.7-0.2,1.2-0.5,1.6c-0.3,0.4-0.8,0.6-1.3,0.6c-0.6,0-1.1-0.2-1.4-0.7V24.7z M14.7,23.6c0.1,0.2,0.3,0.3,0.5,0.5
			c0.2,0.1,0.5,0.2,0.7,0.2c0.4,0,0.7-0.1,1-0.4c0.2-0.3,0.4-0.7,0.4-1.2s-0.1-0.9-0.4-1.2c-0.2-0.3-0.6-0.5-1-0.5
			c-0.2,0-0.5,0.1-0.7,0.2c-0.2,0.1-0.4,0.3-0.5,0.5V23.6z"/>
		<path class="st3" d="M22.3,24.7h-0.6v-0.5c-0.4,0.4-0.8,0.6-1.4,0.6c-0.4,0-0.7-0.1-1-0.4c-0.3-0.2-0.4-0.6-0.4-1
			c0-0.4,0.1-0.8,0.4-1c0.3-0.2,0.6-0.4,1-0.4c0.6,0,1.1,0.2,1.4,0.6v-0.8c0-0.3-0.1-0.5-0.3-0.6c-0.2-0.2-0.4-0.2-0.8-0.2
			c-0.5,0-0.9,0.2-1.3,0.6L19,21.1c0.4-0.5,1-0.7,1.7-0.7c0.5,0,0.9,0.1,1.2,0.3c0.3,0.2,0.4,0.6,0.4,1.1V24.7z M20.5,24.3
			c0.5,0,0.9-0.2,1.2-0.5V23c-0.2-0.3-0.6-0.5-1.2-0.5c-0.3,0-0.5,0.1-0.7,0.3c-0.2,0.2-0.3,0.4-0.3,0.7c0,0.3,0.1,0.5,0.3,0.7
			C20,24.3,20.2,24.3,20.5,24.3z"/>
		<path class="st3" d="M27.1,24.7h-0.6V22c0-0.4-0.1-0.6-0.2-0.7C26,21.1,25.8,21,25.5,21c-0.2,0-0.5,0.1-0.7,0.2
			c-0.2,0.1-0.4,0.3-0.5,0.5v3.1h-0.6v-4.2h0.6v0.6c0.2-0.2,0.4-0.4,0.6-0.5c0.3-0.1,0.6-0.2,0.8-0.2c0.9,0,1.3,0.5,1.3,1.4V24.7z"
			/>
		<path class="st3" d="M28.7,19.9c-0.1,0-0.2,0-0.3-0.1c-0.1-0.1-0.1-0.2-0.1-0.3s0-0.2,0.1-0.3c0.1-0.1,0.2-0.1,0.3-0.1
			c0.1,0,0.2,0,0.3,0.1c0.1,0.1,0.1,0.2,0.1,0.3s0,0.2-0.1,0.3C28.9,19.9,28.8,19.9,28.7,19.9z M29,24.7h-0.6v-4.2H29V24.7z"/>
		<path class="st3" d="M33.6,24.7h-0.6v-0.5c-0.4,0.4-0.8,0.6-1.4,0.6c-0.4,0-0.7-0.1-1-0.4c-0.3-0.2-0.4-0.6-0.4-1
			c0-0.4,0.1-0.8,0.4-1c0.3-0.2,0.6-0.4,1-0.4c0.6,0,1.1,0.2,1.4,0.6v-0.8c0-0.3-0.1-0.5-0.3-0.6c-0.2-0.2-0.4-0.2-0.8-0.2
			c-0.5,0-0.9,0.2-1.3,0.6l-0.3-0.4c0.4-0.5,1-0.7,1.7-0.7c0.5,0,0.9,0.1,1.2,0.3c0.3,0.2,0.5,0.6,0.5,1.1V24.7z M31.8,24.3
			c0.5,0,0.9-0.2,1.2-0.5V23c-0.2-0.3-0.6-0.5-1.2-0.5c-0.3,0-0.5,0.1-0.7,0.3c-0.2,0.2-0.3,0.4-0.3,0.7c0,0.3,0.1,0.5,0.3,0.7
			C31.2,24.3,31.5,24.3,31.8,24.3z"/>
	</g>
	<g>
		<path class="st3" d="M95.5,7.3h-0.7V1.5h0.7V7.3z"/>
		<path class="st3" d="M97.5,7.3h-0.6V3.1h0.6v0.7C97.9,3.3,98.3,3,98.9,3v0.7c-0.1,0-0.2,0-0.3,0c-0.2,0-0.4,0.1-0.6,0.2
			c-0.2,0.1-0.4,0.3-0.5,0.5V7.3z"/>
		<path class="st3" d="M103,7.3h-0.6V6.8c-0.4,0.4-0.8,0.6-1.4,0.6c-0.4,0-0.7-0.1-1-0.4c-0.3-0.2-0.4-0.6-0.4-1
			c0-0.4,0.1-0.8,0.4-1c0.3-0.2,0.6-0.4,1-0.4c0.6,0,1.1,0.2,1.4,0.6V4.4c0-0.3-0.1-0.5-0.3-0.6s-0.4-0.2-0.8-0.2
			c-0.5,0-0.9,0.2-1.3,0.6l-0.3-0.4c0.4-0.5,1-0.7,1.7-0.7c0.5,0,0.9,0.1,1.2,0.3c0.3,0.2,0.4,0.6,0.4,1.1V7.3z M101.2,6.9
			c0.5,0,0.9-0.2,1.2-0.5V5.6c-0.2-0.3-0.6-0.5-1.2-0.5c-0.3,0-0.5,0.1-0.7,0.3c-0.2,0.2-0.3,0.4-0.3,0.7c0,0.3,0.1,0.5,0.3,0.7
			C100.6,6.8,100.9,6.9,101.2,6.9z"/>
		<path class="st3" d="M105.9,7.4c-0.6,0-1-0.2-1.3-0.6c-0.3-0.4-0.5-0.9-0.5-1.6c0-0.7,0.2-1.2,0.5-1.6s0.8-0.6,1.3-0.6
			c0.3,0,0.6,0.1,0.8,0.2c0.2,0.1,0.4,0.3,0.6,0.5V3.1h0.6v5.8h-0.6V6.6C106.9,7.1,106.4,7.4,105.9,7.4z M106,6.8
			c0.3,0,0.5-0.1,0.7-0.2c0.2-0.1,0.4-0.3,0.5-0.5V4.2c-0.1-0.2-0.3-0.3-0.5-0.5c-0.2-0.1-0.5-0.2-0.7-0.2c-0.4,0-0.7,0.2-1,0.5
			c-0.2,0.3-0.4,0.7-0.4,1.2c0,0.5,0.1,0.9,0.4,1.2C105.3,6.7,105.6,6.8,106,6.8z"/>
	</g>
	<g>
		<path class="st3" d="M18.2,138.2c-0.9,0-1.7-0.3-2.2-0.9l0.4-0.5c0.5,0.5,1.1,0.8,1.8,0.8c0.5,0,0.8-0.1,1-0.3s0.3-0.4,0.3-0.7
			c0-0.2-0.1-0.4-0.2-0.5c-0.1-0.1-0.3-0.2-0.5-0.3s-0.4-0.1-0.7-0.2c-0.2-0.1-0.5-0.1-0.7-0.2c-0.2-0.1-0.5-0.2-0.7-0.3
			s-0.4-0.3-0.5-0.5c-0.1-0.2-0.2-0.4-0.2-0.7c0-0.5,0.2-0.9,0.6-1.2c0.4-0.3,0.8-0.4,1.4-0.4c0.9,0,1.5,0.3,2.1,0.8l-0.4,0.5
			c-0.4-0.5-1-0.7-1.7-0.7c-0.3,0-0.6,0.1-0.9,0.3s-0.3,0.4-0.3,0.7c0,0.2,0.1,0.4,0.3,0.5c0.2,0.1,0.4,0.2,0.6,0.3
			c0.3,0.1,0.5,0.1,0.8,0.2c0.3,0.1,0.6,0.2,0.8,0.3c0.3,0.1,0.5,0.3,0.6,0.5c0.2,0.2,0.3,0.5,0.3,0.9c0,0.5-0.2,0.9-0.5,1.2
			C19.4,138.1,18.9,138.2,18.2,138.2z"/>
		<path class="st3" d="M21,139.8l0.1-0.6c0.1,0,0.2,0.1,0.4,0.1c0.2,0,0.3,0,0.4-0.1c0.1-0.1,0.2-0.2,0.3-0.3l0.3-0.6l-1.7-4.2h0.7
			l1.4,3.4l1.4-3.4h0.7l-2.1,5c-0.2,0.6-0.6,0.8-1.2,0.8C21.4,139.8,21.2,139.8,21,139.8z"/>
		<path class="st3" d="M26.2,138.1h-0.6V134h0.6v0.7c0.4-0.5,0.9-0.8,1.4-0.8v0.7c-0.1,0-0.2,0-0.3,0c-0.2,0-0.4,0.1-0.6,0.2
			c-0.2,0.1-0.4,0.3-0.5,0.5V138.1z"/>
		<path class="st3" d="M28.7,133.4c-0.1,0-0.2,0-0.3-0.1c-0.1-0.1-0.1-0.2-0.1-0.3c0-0.1,0-0.2,0.1-0.3c0.1-0.1,0.2-0.1,0.3-0.1
			c0.1,0,0.2,0,0.3,0.1c0.1,0.1,0.1,0.2,0.1,0.3c0,0.1,0,0.2-0.1,0.3C28.9,133.3,28.8,133.4,28.7,133.4z M29,138.1h-0.6V134H29
			V138.1z"/>
		<path class="st3" d="M33.6,138.1h-0.6v-0.5c-0.4,0.4-0.8,0.6-1.4,0.6c-0.4,0-0.7-0.1-1-0.4c-0.3-0.2-0.4-0.6-0.4-1
			c0-0.4,0.1-0.8,0.4-1c0.3-0.2,0.6-0.4,1-0.4c0.6,0,1.1,0.2,1.4,0.6v-0.8c0-0.3-0.1-0.5-0.3-0.6c-0.2-0.2-0.4-0.2-0.8-0.2
			c-0.5,0-0.9,0.2-1.3,0.6l-0.3-0.4c0.4-0.5,1-0.7,1.7-0.7c0.5,0,0.9,0.1,1.2,0.3c0.3,0.2,0.4,0.6,0.4,1.1V138.1z M31.8,137.8
			c0.5,0,0.9-0.2,1.2-0.5v-0.8c-0.2-0.3-0.6-0.5-1.2-0.5c-0.3,0-0.5,0.1-0.7,0.3c-0.2,0.2-0.3,0.4-0.3,0.7c0,0.3,0.1,0.5,0.3,0.7
			C31.2,137.7,31.5,137.8,31.8,137.8z"/>
	</g>
	<g>
		<path class="st3" d="M12.6,48.8c-0.9,0-1.7-0.3-2.2-0.9l0.4-0.5c0.5,0.5,1.1,0.8,1.8,0.8c0.5,0,0.8-0.1,1-0.3s0.3-0.4,0.3-0.7
			c0-0.2-0.1-0.4-0.2-0.5c-0.1-0.1-0.3-0.2-0.5-0.3c-0.2-0.1-0.4-0.1-0.7-0.2c-0.2-0.1-0.5-0.1-0.7-0.2c-0.2-0.1-0.5-0.2-0.7-0.3
			s-0.4-0.3-0.5-0.5c-0.1-0.2-0.2-0.4-0.2-0.7c0-0.5,0.2-0.9,0.6-1.2c0.4-0.3,0.8-0.4,1.4-0.4c0.9,0,1.5,0.3,2.1,0.8l-0.4,0.5
			c-0.4-0.5-1-0.7-1.7-0.7c-0.3,0-0.6,0.1-0.9,0.3c-0.2,0.2-0.3,0.4-0.3,0.7c0,0.2,0.1,0.4,0.3,0.5c0.2,0.1,0.4,0.2,0.6,0.3
			c0.3,0.1,0.5,0.1,0.8,0.2c0.3,0.1,0.6,0.2,0.8,0.3c0.3,0.1,0.5,0.3,0.6,0.5c0.2,0.2,0.3,0.5,0.3,0.9c0,0.5-0.2,0.9-0.5,1.2
			C13.9,48.6,13.4,48.8,12.6,48.8z"/>
		<path class="st3" d="M19.3,48.7h-0.6v-0.6c-0.2,0.2-0.4,0.4-0.7,0.5c-0.3,0.1-0.5,0.2-0.8,0.2c-0.9,0-1.3-0.4-1.3-1.3v-3h0.6v2.8
			c0,0.3,0.1,0.6,0.2,0.7c0.2,0.1,0.4,0.2,0.7,0.2c0.2,0,0.5-0.1,0.7-0.2c0.2-0.1,0.4-0.3,0.5-0.4v-3.1h0.6V48.7z"/>
		<path class="st3" d="M24.3,48.7h-0.6v-0.6c-0.4,0.5-0.8,0.7-1.4,0.7c-0.6,0-1-0.2-1.3-0.6c-0.3-0.4-0.5-0.9-0.5-1.6
			c0-0.7,0.2-1.2,0.5-1.6c0.3-0.4,0.8-0.6,1.3-0.6c0.6,0,1,0.2,1.4,0.7v-2.2h0.6V48.7z M22.4,48.2c0.3,0,0.5-0.1,0.7-0.2
			c0.2-0.1,0.4-0.3,0.5-0.5v-1.9c-0.1-0.2-0.3-0.4-0.5-0.5C22.8,45,22.6,45,22.4,45c-0.4,0-0.7,0.2-1,0.5c-0.2,0.3-0.4,0.7-0.4,1.2
			s0.1,0.9,0.4,1.2C21.6,48,21.9,48.2,22.4,48.2z"/>
		<path class="st3" d="M28.8,48.7h-0.6v-0.5c-0.4,0.4-0.8,0.6-1.4,0.6c-0.4,0-0.7-0.1-1-0.4c-0.3-0.2-0.4-0.6-0.4-1
			c0-0.4,0.1-0.8,0.4-1c0.3-0.2,0.6-0.4,1-0.4c0.6,0,1.1,0.2,1.4,0.6v-0.8c0-0.3-0.1-0.5-0.3-0.6C27.7,45,27.4,45,27.1,45
			c-0.5,0-0.9,0.2-1.3,0.6l-0.3-0.4c0.4-0.5,1-0.7,1.7-0.7c0.5,0,0.9,0.1,1.2,0.3c0.3,0.2,0.4,0.6,0.4,1.1V48.7z M27,48.3
			c0.5,0,0.9-0.2,1.2-0.5V47c-0.2-0.3-0.6-0.5-1.2-0.5c-0.3,0-0.5,0.1-0.7,0.3c-0.2,0.2-0.3,0.4-0.3,0.7c0,0.3,0.1,0.5,0.3,0.7
			C26.5,48.2,26.7,48.3,27,48.3z"/>
		<path class="st3" d="M33.6,48.7h-0.6v-2.7c0-0.4-0.1-0.6-0.2-0.7C32.5,45,32.3,45,32,45c-0.2,0-0.5,0.1-0.7,0.2
			c-0.2,0.1-0.4,0.3-0.5,0.5v3.1h-0.6v-4.2h0.6v0.6c0.2-0.2,0.4-0.4,0.6-0.5c0.3-0.1,0.6-0.2,0.8-0.2c0.9,0,1.3,0.4,1.3,1.4V48.7z"
			/>
	</g>
	<g>
		<path class="st3" d="M22.6,75h-0.7v-2.6h-3.4V75h-0.7v-5.8h0.7v2.5h3.4v-2.5h0.7V75z"/>
		<path class="st3" d="M27.1,75h-0.6v-0.5c-0.4,0.4-0.8,0.6-1.4,0.6c-0.4,0-0.7-0.1-1-0.4c-0.3-0.2-0.4-0.6-0.4-1
			c0-0.4,0.1-0.8,0.4-1c0.3-0.2,0.6-0.4,1-0.4c0.6,0,1.1,0.2,1.4,0.6v-0.8c0-0.3-0.1-0.5-0.3-0.6c-0.2-0.2-0.4-0.2-0.8-0.2
			c-0.5,0-0.9,0.2-1.3,0.6l-0.3-0.4c0.4-0.5,1-0.7,1.7-0.7c0.5,0,0.9,0.1,1.2,0.3c0.3,0.2,0.4,0.6,0.4,1.1V75z M25.3,74.6
			c0.5,0,0.9-0.2,1.2-0.5v-0.8c-0.2-0.3-0.6-0.5-1.2-0.5c-0.3,0-0.5,0.1-0.7,0.3c-0.2,0.2-0.3,0.4-0.3,0.7c0,0.3,0.1,0.5,0.3,0.7
			C24.8,74.5,25,74.6,25.3,74.6z"/>
		<path class="st3" d="M28.8,70.2c-0.1,0-0.2,0-0.3-0.1s-0.1-0.2-0.1-0.3s0-0.2,0.1-0.3s0.2-0.1,0.3-0.1c0.1,0,0.2,0,0.3,0.1
			s0.1,0.2,0.1,0.3s0,0.2-0.1,0.3S28.9,70.2,28.8,70.2z M29.1,75h-0.6v-4.2h0.6V75z"/>
		<path class="st3" d="M31.4,75.1c-0.3,0-0.5-0.1-0.7-0.3c-0.2-0.2-0.2-0.4-0.2-0.7v-2.7h-0.7v-0.6h0.7v-1.1h0.6v1.1H32v0.6h-0.8
			v2.6c0,0.2,0,0.3,0.1,0.4c0.1,0.1,0.2,0.1,0.3,0.1c0.2,0,0.3-0.1,0.4-0.2l0.2,0.5C32,75,31.8,75.1,31.4,75.1z"/>
		<path class="st3" d="M33.3,70.2c-0.1,0-0.2,0-0.3-0.1c-0.1-0.1-0.1-0.2-0.1-0.3s0-0.2,0.1-0.3c0.1-0.1,0.2-0.1,0.3-0.1
			c0.1,0,0.2,0,0.3,0.1c0.1,0.1,0.1,0.2,0.1,0.3s0,0.2-0.1,0.3C33.5,70.1,33.4,70.2,33.3,70.2z M33.6,75h-0.6v-4.2h0.6V75z"/>
	</g>
	<g>
		<path class="st3" d="M19.7,101.5h-2v-5.8h2c0.9,0,1.6,0.3,2.1,0.8s0.8,1.2,0.8,2.1c0,0.8-0.3,1.5-0.8,2.1
			C21.3,101.2,20.6,101.5,19.7,101.5z M19.7,100.9c0.7,0,1.2-0.2,1.6-0.6c0.4-0.4,0.6-1,0.6-1.6c0-0.6-0.2-1.2-0.6-1.6
			c-0.4-0.4-0.9-0.6-1.6-0.6h-1.3v4.5H19.7z"/>
		<path class="st3" d="M28,101.5h-0.8l-1.5-2.3h-1.2v2.3h-0.7v-5.8h2.3c0.5,0,1,0.2,1.3,0.5c0.3,0.3,0.5,0.7,0.5,1.3
			c0,0.5-0.1,0.9-0.4,1.2c-0.3,0.3-0.6,0.5-1.1,0.5L28,101.5z M26,98.6c0.3,0,0.6-0.1,0.8-0.3c0.2-0.2,0.3-0.5,0.3-0.8
			c0-0.3-0.1-0.6-0.3-0.8c-0.2-0.2-0.5-0.3-0.8-0.3h-1.5v2.2H26z"/>
		<path class="st3" d="M31.8,101.6c-0.8,0-1.5-0.3-2.1-0.8c-0.6-0.6-0.9-1.3-0.9-2.1s0.3-1.6,0.9-2.1c0.6-0.6,1.3-0.8,2.1-0.8
			c0.9,0,1.7,0.4,2.2,1.1l-0.6,0.3c-0.2-0.2-0.4-0.4-0.7-0.6c-0.3-0.2-0.6-0.2-0.9-0.2c-0.6,0-1.2,0.2-1.6,0.7
			c-0.4,0.4-0.6,1-0.6,1.7c0,0.7,0.2,1.2,0.6,1.7c0.4,0.4,1,0.7,1.6,0.7c0.3,0,0.6-0.1,0.9-0.2c0.3-0.2,0.5-0.4,0.7-0.6l0.6,0.3
			C33.4,101.2,32.7,101.6,31.8,101.6z"/>
	</g>
	<g>
		<path class="st0" d="M171.8,39.7H166v-1.1c1.7-1.3,2.8-2.2,3.4-2.8c0.6-0.6,0.9-1.2,0.9-1.7c0-0.4-0.1-0.7-0.4-0.9
			c-0.3-0.2-0.6-0.3-1-0.3c-0.9,0-1.6,0.3-2.2,1l-0.8-0.9c0.3-0.4,0.8-0.7,1.3-1c0.5-0.2,1.1-0.3,1.7-0.3c0.8,0,1.5,0.2,2.1,0.7
			c0.6,0.4,0.8,1,0.8,1.8c0,0.7-0.3,1.4-0.9,2.1c-0.6,0.7-1.5,1.5-2.6,2.4h3.6V39.7z"/>
		<path class="st0" d="M176.2,39.7h-1.4v-6.2l-1.3,1.4l-0.8-0.9l2.3-2.3h1.2V39.7z"/>
		<path class="st0" d="M182.2,39.5c-0.4,0.2-0.9,0.4-1.4,0.4s-1-0.1-1.4-0.4c-0.4-0.2-0.8-0.6-1-1c-0.2-0.4-0.4-0.8-0.6-1.3
			c-0.1-0.5-0.2-1-0.2-1.5s0.1-1,0.2-1.5c0.1-0.5,0.3-0.9,0.6-1.3c0.2-0.4,0.6-0.7,1-1c0.4-0.2,0.9-0.4,1.4-0.4s1,0.1,1.4,0.4
			s0.8,0.6,1,1c0.2,0.4,0.4,0.8,0.6,1.3c0.1,0.5,0.2,1,0.2,1.5s-0.1,1-0.2,1.5c-0.1,0.5-0.3,0.9-0.6,1.3
			C183,39,182.7,39.3,182.2,39.5z M179.4,37.8c0.3,0.5,0.7,0.8,1.3,0.8c0.6,0,1.1-0.3,1.3-0.8c0.3-0.5,0.4-1.2,0.4-2.1
			c0-0.5-0.1-1-0.2-1.4c-0.1-0.4-0.3-0.8-0.6-1c-0.3-0.3-0.6-0.4-1-0.4c-0.4,0-0.8,0.1-1,0.4c-0.3,0.3-0.5,0.6-0.6,1
			c-0.1,0.4-0.2,0.9-0.2,1.4C179,36.6,179.2,37.3,179.4,37.8z"/>
	</g>
	<g>
		<path class="st0" d="M171.8,63.5H166v-1.1c1.7-1.3,2.8-2.2,3.4-2.8c0.6-0.6,0.9-1.2,0.9-1.7c0-0.4-0.1-0.7-0.4-0.9
			c-0.3-0.2-0.6-0.3-1-0.3c-0.9,0-1.6,0.3-2.2,1l-0.8-0.9c0.3-0.4,0.8-0.7,1.3-1c0.5-0.2,1.1-0.3,1.7-0.3c0.8,0,1.5,0.2,2.1,0.7
			c0.6,0.4,0.8,1,0.8,1.8c0,0.7-0.3,1.4-0.9,2.1s-1.5,1.5-2.6,2.4h3.6V63.5z"/>
		<path class="st0" d="M176.2,63.5h-1.4v-6.2l-1.3,1.4l-0.8-0.9l2.3-2.3h1.2V63.5z"/>
		<path class="st0" d="M180.7,63.7c-1.3,0-2.3-0.4-3-1.2l0.8-1c0.6,0.6,1.3,1,2.2,1c0.5,0,0.9-0.1,1.2-0.4c0.3-0.3,0.5-0.6,0.5-1
			c0-0.4-0.1-0.8-0.4-1c-0.3-0.3-0.7-0.4-1.2-0.4c-0.7,0-1.3,0.2-1.8,0.7l-1-0.3v-4.5h5.3v1.2h-3.8v2.3c0.5-0.5,1.1-0.7,1.8-0.7
			c0.7,0,1.3,0.2,1.8,0.7c0.5,0.5,0.8,1.1,0.8,1.9c0,0.8-0.3,1.5-0.8,2C182.4,63.4,181.7,63.7,180.7,63.7z"/>
	</g>
	<g>
		<path class="st0" d="M169.1,93.7h-1.4v-6.2l-1.3,1.4l-0.8-0.9l2.3-2.3h1.2V93.7z"/>
		<path class="st0" d="M175.7,93.2c-0.6,0.4-1.3,0.6-2.2,0.6s-1.6-0.2-2.2-0.6c-0.6-0.4-0.9-0.9-0.9-1.6c0-0.5,0.2-0.9,0.5-1.3
			s0.8-0.6,1.3-0.8c-0.5-0.2-0.9-0.4-1.2-0.7c-0.3-0.3-0.5-0.7-0.5-1.2c0-0.4,0.1-0.7,0.3-0.9c0.2-0.3,0.4-0.5,0.7-0.7
			c0.3-0.2,0.6-0.3,0.9-0.4c0.3-0.1,0.7-0.1,1.1-0.1s0.7,0,1.1,0.1c0.3,0.1,0.6,0.2,0.9,0.4c0.3,0.2,0.5,0.4,0.7,0.7
			c0.2,0.3,0.3,0.6,0.3,0.9c0,0.9-0.6,1.5-1.7,1.9c0.5,0.2,1,0.4,1.3,0.8c0.3,0.4,0.5,0.8,0.5,1.3C176.6,92.3,176.3,92.9,175.7,93.2
			z M173.5,92.6c0.5,0,0.8-0.1,1.2-0.3c0.3-0.2,0.5-0.5,0.5-0.8c0-0.4-0.2-0.7-0.6-0.9c-0.4-0.2-0.7-0.4-1.1-0.4
			c-0.2,0-0.4,0.1-0.7,0.2c-0.2,0.1-0.5,0.2-0.7,0.4c-0.2,0.2-0.3,0.4-0.3,0.7c0,0.3,0.2,0.6,0.5,0.8
			C172.7,92.5,173.1,92.6,173.5,92.6z M173.5,89c0.2,0,0.4-0.1,0.6-0.2c0.2-0.1,0.4-0.2,0.6-0.4c0.2-0.2,0.3-0.4,0.3-0.6
			c0-0.3-0.1-0.6-0.4-0.8c-0.3-0.2-0.6-0.3-1.1-0.3c-0.4,0-0.8,0.1-1.1,0.3c-0.3,0.2-0.4,0.5-0.4,0.8c0,0.2,0.1,0.4,0.3,0.6
			c0.2,0.2,0.4,0.3,0.6,0.4C173.1,88.9,173.3,89,173.5,89z"/>
		<path class="st0" d="M180.7,93.8c-1.3,0-2.3-0.4-3-1.2l0.8-1c0.6,0.6,1.3,0.9,2.2,0.9c0.5,0,0.9-0.1,1.2-0.4
			c0.3-0.3,0.5-0.6,0.5-1c0-0.4-0.1-0.8-0.4-1c-0.3-0.3-0.7-0.4-1.2-0.4c-0.7,0-1.3,0.2-1.8,0.7l-1-0.3v-4.5h5.3v1.2h-3.8v2.3
			c0.5-0.5,1.1-0.7,1.8-0.7c0.7,0,1.3,0.2,1.8,0.7c0.5,0.5,0.8,1.1,0.8,1.9c0,0.8-0.3,1.5-0.8,2C182.4,93.6,181.7,93.8,180.7,93.8z"
			/>
	</g>
	<g>
		<path class="st0" d="M19.4,151h-5.8v-1.1c1.7-1.3,2.8-2.2,3.4-2.8c0.6-0.6,0.9-1.2,0.9-1.7c0-0.4-0.1-0.7-0.4-0.9
			c-0.3-0.2-0.6-0.3-1-0.3c-0.9,0-1.6,0.3-2.2,1l-0.8-0.9c0.3-0.4,0.8-0.7,1.3-1c0.5-0.2,1.1-0.3,1.7-0.3c0.8,0,1.5,0.2,2.1,0.7
			c0.6,0.4,0.8,1,0.8,1.8c0,0.7-0.3,1.4-0.9,2.1c-0.6,0.7-1.5,1.5-2.6,2.4h3.6V151z"/>
		<path class="st0" d="M23.5,151.2c-0.7,0-1.3-0.1-1.8-0.4c-0.5-0.2-0.9-0.6-1.2-0.9l0.8-0.9c0.3,0.3,0.6,0.5,1,0.7
			c0.4,0.2,0.8,0.3,1.2,0.3c0.5,0,0.9-0.1,1.2-0.3c0.3-0.2,0.4-0.5,0.4-0.9c0-0.8-0.6-1.1-1.8-1.1c-0.5,0-0.8,0-0.9,0v-1.3
			c0.1,0,0.4,0,0.9,0c0.5,0,0.9-0.1,1.2-0.3c0.3-0.2,0.5-0.4,0.5-0.8c0-0.4-0.2-0.6-0.5-0.8c-0.3-0.2-0.7-0.3-1.2-0.3
			c-0.8,0-1.5,0.3-2.1,0.9l-0.7-0.9c0.7-0.8,1.7-1.3,2.9-1.3c0.9,0,1.6,0.2,2.1,0.6c0.5,0.4,0.8,0.9,0.8,1.6c0,0.5-0.2,0.9-0.5,1.2
			c-0.3,0.3-0.8,0.5-1.2,0.6c0.5,0,0.9,0.2,1.3,0.6c0.4,0.3,0.6,0.8,0.6,1.4c0,0.7-0.3,1.2-0.8,1.7C25.1,151,24.4,151.2,23.5,151.2z
			"/>
		<path class="st0" d="M32.2,150.8c-0.4,0.2-0.9,0.4-1.4,0.4c-0.5,0-1-0.1-1.4-0.4c-0.4-0.2-0.8-0.6-1-1c-0.2-0.4-0.4-0.8-0.6-1.3
			c-0.1-0.5-0.2-1-0.2-1.5c0-0.5,0.1-1,0.2-1.5c0.1-0.5,0.3-0.9,0.6-1.3c0.2-0.4,0.6-0.7,1-1c0.4-0.2,0.9-0.4,1.4-0.4
			c0.5,0,1,0.1,1.4,0.4c0.4,0.2,0.8,0.6,1,1c0.2,0.4,0.4,0.8,0.6,1.3c0.1,0.5,0.2,1,0.2,1.5c0,0.5-0.1,1-0.2,1.5
			c-0.1,0.5-0.3,0.9-0.6,1.3C33,150.3,32.6,150.6,32.2,150.8z M29.4,149.1c0.3,0.5,0.7,0.8,1.3,0.8c0.6,0,1.1-0.3,1.3-0.8
			c0.3-0.5,0.4-1.2,0.4-2.1c0-0.5-0.1-1-0.2-1.4c-0.1-0.4-0.3-0.8-0.6-1c-0.3-0.3-0.6-0.4-1-0.4c-0.4,0-0.8,0.1-1,0.4
			c-0.3,0.3-0.5,0.6-0.6,1c-0.1,0.4-0.2,0.9-0.2,1.4C29,147.9,29.1,148.6,29.4,149.1z"/>
	</g>
	<g>
		<path class="st0" d="M19.1,113.6h-5.8v-1.1c1.7-1.3,2.8-2.2,3.4-2.8c0.6-0.6,0.9-1.2,0.9-1.7c0-0.4-0.1-0.7-0.4-0.9
			c-0.3-0.2-0.6-0.3-1-0.3c-0.9,0-1.6,0.3-2.2,1l-0.8-0.9c0.3-0.4,0.8-0.7,1.3-1c0.5-0.2,1.1-0.3,1.7-0.3c0.8,0,1.5,0.2,2.1,0.7
			c0.6,0.4,0.8,1,0.8,1.8c0,0.7-0.3,1.4-0.9,2.1c-0.6,0.7-1.5,1.5-2.6,2.4h3.6V113.6z"/>
		<path class="st0" d="M23,113.7c-0.9,0-1.7-0.3-2.3-0.9l0.6-1.1c0.4,0.5,1,0.7,1.6,0.7c0.7,0,1.2-0.3,1.6-0.8
			c0.4-0.5,0.5-1.1,0.5-1.9v-0.2c-0.2,0.3-0.5,0.6-0.9,0.8s-0.8,0.3-1.3,0.3c-0.8,0-1.4-0.2-1.9-0.7c-0.5-0.5-0.8-1.1-0.8-1.9
			c0-0.8,0.3-1.4,0.8-1.9c0.5-0.5,1.3-0.8,2.1-0.8c0.8,0,1.4,0.2,1.9,0.6c0.5,0.4,0.9,0.9,1.1,1.5c0.2,0.6,0.3,1.3,0.3,2.1
			c0,1.2-0.3,2.2-0.9,3C25,113.4,24.2,113.7,23,113.7z M23.4,109.5c0.3,0,0.7-0.1,1-0.3c0.3-0.2,0.6-0.4,0.8-0.7
			c0-0.5-0.2-0.9-0.5-1.3c-0.3-0.4-0.7-0.6-1.3-0.6c-0.5,0-0.9,0.1-1.2,0.4c-0.3,0.3-0.4,0.6-0.4,1c0,0.5,0.2,0.8,0.5,1.1
			C22.5,109.4,22.9,109.5,23.4,109.5z"/>
		<path class="st0" d="M32.2,113.4c-0.4,0.2-0.9,0.4-1.4,0.4c-0.5,0-1-0.1-1.4-0.4c-0.4-0.2-0.8-0.6-1-1c-0.2-0.4-0.4-0.8-0.6-1.3
			c-0.1-0.5-0.2-1-0.2-1.5c0-0.5,0.1-1,0.2-1.5c0.1-0.5,0.3-0.9,0.6-1.3s0.6-0.7,1-1c0.4-0.2,0.9-0.4,1.4-0.4c0.5,0,1,0.1,1.4,0.4
			c0.4,0.2,0.8,0.6,1,1c0.2,0.4,0.4,0.8,0.6,1.3c0.1,0.5,0.2,1,0.2,1.5c0,0.5-0.1,1-0.2,1.5c-0.1,0.5-0.3,0.9-0.6,1.3
			C33,112.8,32.6,113.2,32.2,113.4z M29.4,111.7c0.3,0.5,0.7,0.8,1.3,0.8c0.6,0,1.1-0.3,1.3-0.8s0.4-1.2,0.4-2.1
			c0-0.5-0.1-1-0.2-1.4c-0.1-0.4-0.3-0.8-0.6-1c-0.3-0.3-0.6-0.4-1-0.4c-0.4,0-0.8,0.1-1,0.4c-0.3,0.3-0.5,0.6-0.6,1
			c-0.1,0.4-0.2,0.9-0.2,1.4C29,110.5,29.1,111.1,29.4,111.7z"/>
	</g>
	<g>
		<path class="st0" d="M19.2,85.4h-5.8v-1.1c1.7-1.3,2.8-2.2,3.4-2.8c0.6-0.6,0.9-1.2,0.9-1.7c0-0.4-0.1-0.7-0.4-0.9
			c-0.3-0.2-0.6-0.3-1-0.3c-0.9,0-1.6,0.3-2.2,1l-0.8-0.9c0.3-0.4,0.8-0.7,1.3-1c0.5-0.2,1.1-0.3,1.7-0.3c0.8,0,1.5,0.2,2.1,0.7
			c0.6,0.4,0.8,1,0.8,1.8c0,0.7-0.3,1.4-0.9,2.1c-0.6,0.7-1.5,1.5-2.6,2.4h3.6V85.4z"/>
		<path class="st0" d="M26.3,85.4h-5.8v-1.1c1.7-1.3,2.8-2.2,3.4-2.8c0.6-0.6,0.9-1.2,0.9-1.7c0-0.4-0.1-0.7-0.4-0.9
			c-0.3-0.2-0.6-0.3-1-0.3c-0.9,0-1.6,0.3-2.2,1l-0.8-0.9c0.3-0.4,0.8-0.7,1.3-1c0.5-0.2,1.1-0.3,1.7-0.3c0.8,0,1.5,0.2,2.1,0.7
			c0.6,0.4,0.8,1,0.8,1.8c0,0.7-0.3,1.4-0.9,2.1c-0.6,0.7-1.5,1.5-2.6,2.4h3.6V85.4z"/>
		<path class="st0" d="M32.2,85.2c-0.4,0.2-0.9,0.4-1.4,0.4c-0.5,0-1-0.1-1.4-0.4c-0.4-0.2-0.8-0.6-1-1c-0.2-0.4-0.4-0.8-0.6-1.3
			c-0.1-0.5-0.2-1-0.2-1.5c0-0.5,0.1-1,0.2-1.5c0.1-0.5,0.3-0.9,0.6-1.3c0.2-0.4,0.6-0.7,1-1c0.4-0.2,0.9-0.4,1.4-0.4
			c0.5,0,1,0.1,1.4,0.4c0.4,0.2,0.8,0.6,1,1c0.2,0.4,0.4,0.8,0.6,1.3c0.1,0.5,0.2,1,0.2,1.5c0,0.5-0.1,1-0.2,1.5
			c-0.1,0.5-0.3,0.9-0.6,1.3C33,84.6,32.6,84.9,32.2,85.2z M29.4,83.5c0.3,0.5,0.7,0.8,1.3,0.8c0.6,0,1.1-0.3,1.3-0.8
			s0.4-1.2,0.4-2.1c0-0.5-0.1-1-0.2-1.4c-0.1-0.4-0.3-0.8-0.6-1c-0.3-0.3-0.6-0.4-1-0.4c-0.4,0-0.8,0.1-1,0.4
			c-0.3,0.3-0.5,0.6-0.6,1c-0.1,0.4-0.2,0.9-0.2,1.4C29,82.2,29.1,82.9,29.4,83.5z"/>
	</g>
	<g>
		<path class="st0" d="M18.8,60.7h-1.4v-1.8h-3.8v-1.1l3.3-5.1h1.9v5h1.1v1.2h-1.1V60.7z M17.4,57.6v-3.7l-2.4,3.7H17.4z"/>
		<path class="st0" d="M23.5,60.8c-0.7,0-1.3-0.1-1.8-0.4c-0.5-0.2-0.9-0.6-1.2-0.9l0.8-0.9c0.3,0.3,0.6,0.5,1,0.7
			c0.4,0.2,0.8,0.3,1.2,0.3c0.5,0,0.9-0.1,1.2-0.3c0.3-0.2,0.4-0.5,0.4-0.9c0-0.8-0.6-1.1-1.8-1.1c-0.5,0-0.8,0-0.9,0V56
			c0.1,0,0.4,0,0.9,0c0.5,0,0.9-0.1,1.2-0.3c0.3-0.2,0.5-0.4,0.5-0.8c0-0.4-0.2-0.6-0.5-0.8c-0.3-0.2-0.7-0.3-1.2-0.3
			c-0.8,0-1.5,0.3-2.1,0.9l-0.7-0.9c0.7-0.8,1.7-1.3,2.9-1.3c0.9,0,1.6,0.2,2.1,0.6c0.5,0.4,0.8,0.9,0.8,1.6c0,0.5-0.2,0.9-0.5,1.2
			c-0.3,0.3-0.8,0.5-1.2,0.6c0.5,0,0.9,0.2,1.3,0.6c0.4,0.3,0.6,0.8,0.6,1.4c0,0.7-0.3,1.2-0.8,1.7C25.1,60.6,24.4,60.8,23.5,60.8z"
			/>
		<path class="st0" d="M32.2,60.5c-0.4,0.2-0.9,0.4-1.4,0.4c-0.5,0-1-0.1-1.4-0.4c-0.4-0.2-0.8-0.6-1-1s-0.4-0.8-0.6-1.3
			c-0.1-0.5-0.2-1-0.2-1.5s0.1-1,0.2-1.5c0.1-0.5,0.3-0.9,0.6-1.3c0.2-0.4,0.6-0.7,1-1c0.4-0.2,0.9-0.4,1.4-0.4c0.5,0,1,0.1,1.4,0.4
			c0.4,0.2,0.8,0.6,1,1c0.2,0.4,0.4,0.8,0.6,1.3c0.1,0.5,0.2,1,0.2,1.5s-0.1,1-0.2,1.5c-0.1,0.5-0.3,0.9-0.6,1.3
			C33,59.9,32.6,60.2,32.2,60.5z M29.4,58.8c0.3,0.5,0.7,0.8,1.3,0.8c0.6,0,1.1-0.3,1.3-0.8c0.3-0.5,0.4-1.2,0.4-2.1
			c0-0.5-0.1-1-0.2-1.4c-0.1-0.4-0.3-0.8-0.6-1c-0.3-0.3-0.6-0.4-1-0.4c-0.4,0-0.8,0.1-1,0.4c-0.3,0.3-0.5,0.6-0.6,1
			c-0.1,0.4-0.2,0.9-0.2,1.4C29,57.5,29.1,58.2,29.4,58.8z"/>
	</g>
	<g>
		<path class="st0" d="M19.4,36.4h-5.8v-1.1c1.7-1.3,2.8-2.2,3.4-2.8c0.6-0.6,0.9-1.2,0.9-1.7c0-0.4-0.1-0.7-0.4-0.9
			c-0.3-0.2-0.6-0.3-1-0.3c-0.9,0-1.6,0.3-2.2,1l-0.8-0.9c0.3-0.4,0.8-0.7,1.3-1c0.5-0.2,1.1-0.3,1.7-0.3c0.8,0,1.5,0.2,2.1,0.7
			c0.6,0.4,0.8,1,0.8,1.8c0,0.7-0.3,1.4-0.9,2.1c-0.6,0.7-1.5,1.5-2.6,2.4h3.6V36.4z"/>
		<path class="st0" d="M25.7,36.4h-1.4v-1.8h-3.8v-1.1l3.3-5.1h1.9v5h1.1v1.2h-1.1V36.4z M24.3,33.3v-3.7l-2.4,3.7H24.3z"/>
		<path class="st0" d="M32.2,36.2c-0.4,0.2-0.9,0.4-1.4,0.4c-0.5,0-1-0.1-1.4-0.4c-0.4-0.2-0.8-0.6-1-1s-0.4-0.8-0.6-1.3
			c-0.1-0.5-0.2-1-0.2-1.5s0.1-1,0.2-1.5c0.1-0.5,0.3-0.9,0.6-1.3c0.2-0.4,0.6-0.7,1-1c0.4-0.2,0.9-0.4,1.4-0.4c0.5,0,1,0.1,1.4,0.4
			c0.4,0.2,0.8,0.6,1,1c0.2,0.4,0.4,0.8,0.6,1.3c0.1,0.5,0.2,1,0.2,1.5s-0.1,1-0.2,1.5c-0.1,0.5-0.3,0.9-0.6,1.3
			C33,35.6,32.6,35.9,32.2,36.2z M29.4,34.5c0.3,0.5,0.7,0.8,1.3,0.8c0.6,0,1.1-0.3,1.3-0.8c0.3-0.5,0.4-1.2,0.4-2.1
			c0-0.5-0.1-1-0.2-1.4c-0.1-0.4-0.3-0.8-0.6-1c-0.3-0.3-0.6-0.4-1-0.4c-0.4,0-0.8,0.1-1,0.4c-0.3,0.3-0.5,0.6-0.6,1
			c-0.1,0.4-0.2,0.9-0.2,1.4C29,33.2,29.1,33.9,29.4,34.5z"/>
	</g>
	<g>
		<path class="st0" d="M93.8,19.4c-0.7,0-1.3-0.1-1.8-0.4c-0.5-0.2-0.9-0.6-1.2-0.9l0.8-0.9c0.3,0.3,0.6,0.5,1,0.7
			c0.4,0.2,0.8,0.3,1.2,0.3c0.5,0,0.9-0.1,1.2-0.3c0.3-0.2,0.4-0.5,0.4-0.9c0-0.8-0.6-1.1-1.8-1.1c-0.5,0-0.8,0-0.9,0v-1.3
			c0.1,0,0.4,0,0.9,0c0.5,0,0.9-0.1,1.2-0.3c0.3-0.2,0.5-0.4,0.5-0.8c0-0.4-0.2-0.6-0.5-0.8c-0.3-0.2-0.7-0.3-1.2-0.3
			c-0.8,0-1.5,0.3-2.1,0.9l-0.7-0.9c0.7-0.8,1.7-1.3,2.9-1.3c0.9,0,1.6,0.2,2.1,0.6c0.5,0.4,0.8,0.9,0.8,1.6c0,0.5-0.2,0.9-0.5,1.2
			c-0.3,0.3-0.8,0.5-1.2,0.6c0.5,0,0.9,0.2,1.3,0.6c0.4,0.3,0.6,0.8,0.6,1.4c0,0.7-0.3,1.2-0.8,1.7C95.5,19.1,94.7,19.4,93.8,19.4z"
			/>
		<path class="st0" d="M102.5,19c-0.4,0.2-0.9,0.4-1.4,0.4c-0.5,0-1-0.1-1.4-0.4c-0.4-0.2-0.8-0.6-1-1s-0.4-0.8-0.6-1.3
			c-0.1-0.5-0.2-1-0.2-1.5c0-0.5,0.1-1,0.2-1.5c0.1-0.5,0.3-0.9,0.6-1.3c0.2-0.4,0.6-0.7,1-1c0.4-0.2,0.9-0.4,1.4-0.4
			c0.5,0,1,0.1,1.4,0.4c0.4,0.2,0.8,0.6,1,1c0.2,0.4,0.4,0.8,0.6,1.3s0.2,1,0.2,1.5c0,0.5-0.1,1-0.2,1.5s-0.3,0.9-0.6,1.3
			C103.3,18.4,103,18.8,102.5,19z M99.7,17.3c0.3,0.5,0.7,0.8,1.3,0.8c0.6,0,1.1-0.3,1.3-0.8c0.3-0.5,0.4-1.2,0.4-2.1
			c0-0.5-0.1-1-0.2-1.4c-0.1-0.4-0.3-0.8-0.6-1c-0.3-0.3-0.6-0.4-1-0.4s-0.8,0.1-1,0.4c-0.3,0.3-0.5,0.6-0.6,1
			c-0.1,0.4-0.2,0.9-0.2,1.4C99.3,16.1,99.5,16.7,99.7,17.3z"/>
		<path class="st0" d="M109.9,19c-0.4,0.2-0.9,0.4-1.4,0.4c-0.5,0-1-0.1-1.4-0.4c-0.4-0.2-0.8-0.6-1-1s-0.4-0.8-0.6-1.3
			c-0.1-0.5-0.2-1-0.2-1.5c0-0.5,0.1-1,0.2-1.5c0.1-0.5,0.3-0.9,0.6-1.3c0.2-0.4,0.6-0.7,1-1c0.4-0.2,0.9-0.4,1.4-0.4
			c0.5,0,1,0.1,1.4,0.4c0.4,0.2,0.8,0.6,1,1c0.2,0.4,0.4,0.8,0.6,1.3c0.1,0.5,0.2,1,0.2,1.5c0,0.5-0.1,1-0.2,1.5
			c-0.1,0.5-0.3,0.9-0.6,1.3C110.7,18.4,110.4,18.8,109.9,19z M107.1,17.3c0.3,0.5,0.7,0.8,1.3,0.8c0.6,0,1.1-0.3,1.3-0.8
			c0.3-0.5,0.4-1.2,0.4-2.1c0-0.5-0.1-1-0.2-1.4c-0.1-0.4-0.3-0.8-0.6-1c-0.3-0.3-0.6-0.4-1-0.4c-0.4,0-0.8,0.1-1,0.4
			c-0.3,0.3-0.5,0.6-0.6,1c-0.1,0.4-0.2,0.9-0.2,1.4C106.7,16.1,106.9,16.7,107.1,17.3z"/>
	</g>
	<g>
		<g>
			<path class="st4" d="M159.1,55.4c-12.4-2-25.2-1.4-33.1,6.7"/>
			<g>
				<path class="st2" d="M126.1,62c0.3,0,0.7,0.2,0.9,0.4c-0.5-0.1-1,0-1.5,0.2c0.2-0.5,0.2-1,0.1-1.5
					C125.8,61.3,126.1,61.7,126.1,62z"/>
			</g>
		</g>
	</g>
	<g>
		<g>
			<path class="st5" d="M160.2,83.1c-14.2,2.2-25.8-3.5-30.6-9.7"/>
			<g>
				<path class="st2" d="M129.6,73.4c0,0.3-0.3,0.6-0.5,0.7c0.1-0.4,0.2-0.9,0-1.3c0.4,0.2,0.8,0.3,1.2,0.3
					C130.2,73.3,129.9,73.4,129.6,73.4z"/>
			</g>
		</g>
	</g>
	<g>
		<g>
			<path class="st6" d="M41.4,140.5c13.8,0.6,51.1-10.8,61.8-34.5"/>
			<g>
				<path class="st2" d="M103.2,106c-0.2,0.1-0.5,0-0.7-0.1c0.4-0.1,0.7-0.2,1-0.5c0,0.4,0.1,0.7,0.3,1.1
					C103.5,106.4,103.2,106.2,103.2,106z"/>
			</g>
		</g>
	</g>
	<g>
		<g>
			<path class="st7" d="M158.1,112.7c-9.9-0.5-26.5,2.8-34.1-10.7"/>
			<g>
				<path class="st2" d="M124,102.1c-0.1,0.4-0.6,0.9-1,1.1c0.3-0.7,0.5-1.4,0.4-2.2c0.6,0.5,1.3,0.7,2.1,0.8
					C125.1,102.1,124.5,102.3,124,102.1z"/>
			</g>
		</g>
	</g>
	<g>
		<g>
			<path class="st8" d="M41.4,24.1c17.6,0,35.4,10.7,47.9,35.5"/>
			<g>
				<path class="st2" d="M89.3,59.6c0.1-0.3,0.5-0.6,0.8-0.8c-0.2,0.5-0.4,1.1-0.4,1.6c-0.4-0.4-1-0.6-1.5-0.7
					C88.5,59.6,88.9,59.5,89.3,59.6z"/>
			</g>
		</g>
	</g>
	<g>
		<g>
			<path class="st9" d="M40.3,108.1c12.5,1.1,38.8-1.4,49-12.3"/>
			<g>
				<path class="st2" d="M89.3,95.8c-0.4,0-0.9-0.3-1.2-0.5c0.7,0.1,1.4,0,2-0.3c-0.2,0.6-0.2,1.3-0.1,2
					C89.6,96.7,89.3,96.3,89.3,95.8z"/>
			</g>
		</g>
	</g>
	<g>
		<g>
			<path class="st10" d="M39.7,54.6c13.8-3.8,22.3-1.7,34.2,10.6"/>
			<g>
				<path class="st2" d="M73.9,65.2c0-0.3,0.2-0.6,0.4-0.8c-0.1,0.4-0.1,0.9,0.1,1.3c-0.4-0.2-0.9-0.2-1.3-0.2
					C73.3,65.4,73.6,65.2,73.9,65.2z"/>
			</g>
		</g>
	</g>
	<g>
		<g>
			<path class="st11" d="M39.7,75.7c8.9-5.1,26.7-5.3,42.4,3.3"/>
			<g>
				<path class="st2" d="M82.1,79c-0.1-0.3,0-0.7,0.2-1c0.1,0.5,0.2,1,0.6,1.4c-0.5-0.1-1,0.1-1.5,0.3C81.5,79.4,81.8,79.1,82.1,79z
					"/>
			</g>
		</g>
	</g>
	<g>
		<g>
			<line class="st12" x1="101.3" y1="24.6" x2="101.3" y2="49.7"/>
			<g>
				<path class="st2" d="M101.3,49.6c0.1-0.1,0.4-0.2,0.6-0.2c-0.2,0.2-0.5,0.4-0.6,0.7c-0.1-0.3-0.3-0.5-0.6-0.7
					C101,49.5,101.2,49.5,101.3,49.6z"/>
			</g>
		</g>
	</g>
	<g>
		<path class="st0" d="M168.7,123.6c-0.7,0-1.3-0.1-1.8-0.4c-0.5-0.2-0.9-0.6-1.2-0.9l0.8-0.9c0.3,0.3,0.6,0.5,1,0.7
			c0.4,0.2,0.8,0.3,1.2,0.3c0.5,0,0.9-0.1,1.2-0.3c0.3-0.2,0.4-0.5,0.4-0.9c0-0.8-0.6-1.1-1.8-1.1c-0.5,0-0.8,0-0.9,0v-1.3
			c0.1,0,0.4,0,0.9,0c0.5,0,0.9-0.1,1.2-0.3c0.3-0.2,0.5-0.4,0.5-0.8c0-0.4-0.2-0.6-0.5-0.8c-0.3-0.2-0.7-0.3-1.2-0.3
			c-0.8,0-1.5,0.3-2.1,0.9l-0.7-0.9c0.7-0.8,1.7-1.3,2.9-1.3c0.9,0,1.6,0.2,2.1,0.6c0.5,0.4,0.8,0.9,0.8,1.6c0,0.5-0.2,0.9-0.5,1.2
			c-0.3,0.3-0.8,0.5-1.2,0.6c0.5,0,0.9,0.2,1.3,0.6c0.4,0.3,0.6,0.8,0.6,1.4c0,0.7-0.3,1.2-0.8,1.7
			C170.3,123.4,169.6,123.6,168.7,123.6z"/>
		<path class="st0" d="M178.7,123.4h-5.8v-1.1c1.7-1.3,2.8-2.2,3.4-2.8c0.6-0.6,0.9-1.2,0.9-1.7c0-0.4-0.1-0.7-0.4-0.9
			s-0.6-0.3-1-0.3c-0.9,0-1.6,0.3-2.2,1l-0.8-0.9c0.3-0.4,0.8-0.7,1.3-1c0.5-0.2,1.1-0.3,1.7-0.3c0.8,0,1.5,0.2,2.1,0.7
			c0.6,0.4,0.8,1,0.8,1.8c0,0.7-0.3,1.4-0.9,2.1c-0.6,0.7-1.5,1.5-2.6,2.4h3.6V123.4z"/>
		<path class="st0" d="M184.6,123.2c-0.4,0.2-0.9,0.4-1.4,0.4c-0.5,0-1-0.1-1.4-0.4c-0.4-0.2-0.8-0.6-1-1c-0.2-0.4-0.4-0.8-0.6-1.3
			c-0.1-0.5-0.2-1-0.2-1.5c0-0.5,0.1-1,0.2-1.5c0.1-0.5,0.3-0.9,0.6-1.3c0.2-0.4,0.6-0.7,1-1c0.4-0.2,0.9-0.4,1.4-0.4
			c0.5,0,1,0.1,1.4,0.4c0.4,0.2,0.8,0.6,1,1c0.2,0.4,0.4,0.8,0.6,1.3c0.1,0.5,0.2,1,0.2,1.5c0,0.5-0.1,1-0.2,1.5
			c-0.1,0.5-0.3,0.9-0.6,1.3C185.3,122.7,185,123,184.6,123.2z M181.8,121.5c0.3,0.5,0.7,0.8,1.3,0.8s1.1-0.3,1.3-0.8
			c0.3-0.5,0.4-1.2,0.4-2.1c0-0.5-0.1-1-0.2-1.4c-0.1-0.4-0.3-0.8-0.6-1c-0.3-0.3-0.6-0.4-1-0.4c-0.4,0-0.8,0.1-1,0.4
			c-0.3,0.3-0.5,0.6-0.6,1c-0.1,0.4-0.2,0.9-0.2,1.4C181.3,120.3,181.5,121,181.8,121.5z"/>
	</g>
</g>
</svg>
