<?xml version="1.0" encoding="utf-8"?>
<!-- Generator: Adobe Illustrator 19.2.0, SVG Export Plug-In . SVG Version: 6.00 Build 0)  -->
<svg version="1.1" id="Layer_1" xmlns="http://www.w3.org/2000/svg" xmlns:xlink="http://www.w3.org/1999/xlink" x="0px" y="0px"
	 viewBox="0 0 215.8 152.7" style="enable-background:new 0 0 215.8 152.7;" xml:space="preserve">
<style type="text/css">
	.st0{fill:#0D92FF;}
	.st1{fill:none;stroke:#00325C;stroke-width:0.2355;stroke-miterlimit:10;}
	.st2{fill:#00325C;}
	.st3{fill:#787878;}
	.st4{fill:none;stroke:#00325C;stroke-width:0.2932;stroke-miterlimit:10;}
	.st5{fill:none;stroke:#00325C;stroke-width:0.2259;stroke-miterlimit:10;}
	.st6{fill:none;stroke:#00325C;stroke-width:0.7449;stroke-miterlimit:3;}
	.st7{fill:none;stroke:#00325C;stroke-width:0.3172;stroke-miterlimit:10;}
	.st8{fill:none;stroke:#00325C;stroke-width:0.3797;stroke-miterlimit:10;}
	.st9{fill:none;stroke:#00325C;stroke-width:0.6248;stroke-miterlimit:10;}
	.st10{fill:none;stroke:#00325C;stroke-width:0.322;stroke-miterlimit:10;}
	.st11{fill:none;stroke:#00325C;stroke-width:0.471;stroke-miterlimit:10;}
</style>
<g>
	<path class="st0" d="M152.7,138.1L152.7,138.1l-0.1,0l0,0.1L152.7,138.1L152.7,138.1l0,0.1L152.7,138.1L152.7,138.1L152.7,138.1
		L152.7,138.1L152.7,138.1L152.7,138.1z M152.6,138.4L152.6,138.4L152.6,138.4l0,0.1L152.6,138.4L152.6,138.4L152.6,138.4z M67.9,57
		L67.9,57L67.9,57L67.9,57L67.9,57L67.9,57l-0.1-0.1L67.9,57L67.9,57L67.9,57z M131.5,120.8l-0.1,0l-0.1,0.1l-0.1,0.1l-0.2,0.1
		l0,0.1l0,0.1l0,0l0.1-0.1l0.1,0l0.1-0.2L131.5,120.8l0.1,0.1l0-0.1L131.5,120.8L131.5,120.8z M64.3,81.4L64,81.2l-0.2,0l-0.1,0
		l-0.1,0.1l0.1,0.2l0.6,0l0.2,0.1l-0.1-0.1L64.3,81.4z M65.5,78.7L65.5,78.7l-0.3-0.2l-0.1-0.1l0-0.2l0-0.1l0-0.1l-0.2-0.1l-0.1,0
		l-0.4,0l0.1,0.2l0.1,0.4l0.1,0.2l0.2-0.1l0.2,0.1l0.2,0.3l0.1,0.3l0.1,0.1l0-0.1l0-0.2L65.5,78.7z M43.3,61.5L43.3,61.5L43.3,61.5
		l-0.2-0.1l-0.2,0l-0.3,0.2v0.1l0.2-0.1l0.1,0l0,0.1l0,0l-0.1,0l0,0v0.1l0.1,0L43.3,61.5L43.3,61.5L43.3,61.5L43.3,61.5z M70.6,86.7
		L70.6,86.7l0-0.1l0-0.1l-0.1,0l-0.1,0L70,86.5v0.1l0.1,0.1l0.3,0.4l0.1,0l0.4-0.1l0.7,0.5l0.3,0.1l0,0l0,0l0.1,0l0.1,0l0.1,0
		l-0.1-0.2L72,87.2L71.9,87l-0.8-0.1L71,86.9v-0.1h0.1v-0.1l-0.2,0l-0.2,0.1l-0.2,0l-0.1-0.2l0.1,0L70.6,86.7z M129.5,121.1
		L129.5,121.1l-0.1,0.1l0,0l0,0l0,0l-0.1,0l-0.2,0l-0.1,0l0,0.1l0.2,0.1l0.1,0l0.1,0l0.1-0.1l0.1-0.1L129.5,121.1L129.5,121.1
		L129.5,121.1z M58.2,74.6L58.2,74.6l-0.4-0.3l0,0l-0.2-0.1l-0.3-0.2l-0.1,0l-0.1-0.1H57l0,0.1l-0.1,0.1l0,0.2l0.1,0.2l0.1,0.2
		l0,0.2l0.1,0.1l0.4,0.1l0.6,0.1l0.2-0.1l0-0.2l-0.1-0.1L58.2,74.6z M72.4,89.4l-0.1-0.1l-0.1,0l-0.1,0l-0.1,0l-0.2-0.2l-0.2-0.2
		l-0.3-0.1l-0.2,0l0.2,0.4l0.1,0.3l0,0.1l0,0.1l0.1,0.2l0.2,0.2l0.2,0.1l0.4,0.5l0.1,0.2l0.1,0.1l0.1,0.4l0.1,0.1l0.1-0.2l0.1-0.3
		l0.1-0.5l0-0.1l-0.1-0.1l-0.2-0.1L72.5,90l0-0.1v-0.1l-0.1-0.1l0-0.1l0-0.1L72.4,89.4z M143.7,55.7l-1.2-0.6l-0.1,0l-0.4,0
		l-0.6-0.2l-0.1,0L141,55l-0.1,0l-0.1,0l-0.2-0.1l-0.1,0l-0.1,0l-0.1,0l-0.1,0l-0.1,0l-0.1-0.1l-0.1-0.2l-0.1-0.1l-0.2-0.1l-0.3-0.1
		l-0.2-0.1l-0.1-0.1l-0.2-0.3L139,54l0,0l0,0l0.1,0l-0.1-0.2l-0.1-0.1l-0.3,0l0-0.1l-0.1,0l-0.2,0.1l-0.1,0.1l0,0.1l-0.1,0.2l0,0.1
		l-0.1,0l-0.2,0l-0.1,0l0,0.1l-0.1,0.2l0,0l0,0l-0.2-0.1l-0.7,0l-0.1,0l-0.1-0.1l-0.3-0.2l0,0l-0.1,0.1l0,0.1l0,0.1l0,0.1l-0.2,0.1
		l-0.2-0.1l-0.1-0.3l0-0.4l-0.2,0l-0.5-0.3l-0.1,0l-0.2,0l-0.3-0.1l-0.1,0l0,0.2l0.1,0.2l0,0.2l-0.1,0.2l-0.1,0l-0.3-0.1l-0.3,0
		l-0.1,0l-0.1-0.2l0-0.1l0-0.1l0-0.2h0L133,53l0,0l0,0l0-0.1l0,0l0-0.1l-0.1-0.2l0,0l-0.1,0l0,0l0,0l0-0.1l0-0.1l-0.5-0.5l-0.1-0.2
		l0-0.1l0-0.1l0.1,0l0-0.1l0-0.1l-0.4-0.4l-0.1-0.1l0,0l0-0.1l0-0.1l0-0.1l-0.1-0.1l-0.7-0.4l-0.1,0l-0.1,0l-0.1,0.1l-0.1,0l-0.1,0
		l-0.2,0L130,50l-0.4-0.3l-0.2-0.1l-0.2,0l-0.4,0l0,0.1l-0.2,0l-0.1,0l0,0.1V50l0,0.1l-0.1,0l-0.1,0.1l-0.1,0l-0.6,0l-0.1,0
		l-0.1-0.3l-0.1-0.1l-0.5-0.1l-0.2-0.1l-0.1-0.1l-0.2-0.3l-0.1,0l0,0l-0.2-0.1l-0.1,0l-0.1,0l-0.1,0.1l-0.1,0l0,0l-0.2,0l-0.2-0.1
		l-0.2,0h0l-0.2,0.1l-0.1,0.1v0l0,0.1l0,0l0,0l-0.1,0l-0.1,0l-0.1,0l-0.2-0.1l-0.1,0l0,0l-0.1,0.1l-0.1,0.1l-0.2,0.1l0,0l-0.2,0
		l0-0.1l0,0l0-0.1l0-0.1v-0.1l0-0.1l-0.4-0.7l-0.1-0.1l-0.2-0.1l0,0l0,0l0,0h0l0,0l0,0.1l0,0.1l0,0l0,0l-0.1,0l0,0v0l0-0.1l0-0.1
		l0-0.2v0l0,0l0.1,0l0,0l0,0l-0.1-0.2l-0.1-0.2l-0.2-0.2l-0.1,0l-0.1,0l-0.1,0l-0.2,0.1l-0.2-0.1l-0.1-0.1l0,0l-0.1-0.1l-0.2-0.3
		l-0.1-0.2l-0.1-0.1l-0.1,0l-0.2-0.1l-0.2-0.1l-0.3-0.3l-0.1-0.1l0,0l-0.1,0l-0.1,0l-0.2,0.1l-0.2,0.1l-0.1,0l0,0l-0.1,0l-0.1,0v0
		l-0.1-0.1l0-0.2v-0.2l0-0.1v0l-0.1-0.1l0-0.1l0-0.1l0.1-0.1l0,0l0,0l0,0l0-0.1l0,0l0-0.1l0-0.1l0-0.1l0-0.1l-0.1-0.2l0,0v0
		l-0.2-0.1l-0.2-0.1h0l-0.1-0.2l0-0.2l0.2-0.5l0.1-0.2l0,0l0-0.1l0-0.1l0-0.1l0,0l0-0.1l0.1-0.2v0l0,0l0.1,0.1l0,0l0-0.1l0-0.1
		l0-0.2l0-0.1l0-0.2L119,42l-0.2,0l-0.1,0l0-0.2l0,0l-0.2,0.1l-0.8,0.8l0,0.1l0,0.1l0,0.1l0,0l0,0l0,0l0,0l0,0l0,0.1l0,0.3l-0.1,0.2
		l0,0l-0.1,0.1l-0.1,0l0,0l-0.3,0.1l-0.3,0.1l-0.8,0.4l-0.2,0l-1-0.3l-0.2-0.1l-0.2,0l-0.4,0.1l-0.1,0l0,0l-0.4-0.2h0l0.1,0l0-0.1
		l0-0.1l0-0.1l0-0.1l0,0h0l0-0.1l0-0.1l0,0l0,0l0.1-0.1l0.1-0.1l0.1-0.1l0.1-0.1l0.1,0L114,43l0.1,0l0-0.1v0l-0.1-0.1l0-0.1l0,0
		l-0.1-0.5l-0.1,0l-0.1,0l-0.2,0.1l0,0l-0.1,0l0-0.2l0,0l0.1-0.3l0.1-0.2l0-0.2l0-0.1l0,0l0.1-0.1l0.2-0.1l0,0l0.1-0.1l0-0.1l0-0.1
		l0-0.1l-0.1-0.1l-0.1,0l0,0l-0.1,0l-0.1,0h0l0,0.1l0,0l0,0h0l0,0l0,0l-0.1,0l0,0l-0.2-0.3l0-0.1l0,0l-0.2-0.1l-0.1-0.1l-0.1,0
		l-0.3-0.3l0,0l-0.1-0.1l-0.1,0l-0.1,0l-0.3,0.1l-0.2,0.1h-0.2l0,0l-0.1-0.1l-0.1,0l-0.1,0l-0.2-0.1l-0.3,0l-0.3,0l0,0l-0.1,0
		l-0.1,0.1l-0.1,0.2l0,0.1l0,0l0,0l0,0l0,0l0,0l0,0l0,0.1l-0.3-0.3l-0.1-0.5l0-0.6l-0.1-0.5l-0.1-0.2l-0.2-0.1l-0.2-0.1l-0.2,0
		l-0.5,0h0l-0.1-0.1h0l0.1-0.1l0,0l0-0.1l-0.1-0.1l0,0l-0.1,0l-0.1,0l0,0l-0.1,0l0,0l0,0l0,0l0,0l-0.1,0.1l-0.3,0.1l-0.1,0l-0.1,0
		l-0.1,0l-0.1,0l-0.3-0.2l-0.1-0.1l-0.1-0.1l0,0l0-0.1l0-0.4l-0.2-0.7l-0.1-0.3l0.1-0.1l0.1-0.1l0-0.1l-0.1-0.2l-0.1-0.1l0,0l-0.1,0
		v0l-0.1,0l-0.1-0.1l-0.1-0.2l-0.1-0.2l0-0.1l-0.1-0.2l-0.1-0.1l-0.2,0l0,0l-0.4,0.1l-0.2,0.1l-0.1,0l-0.3,0.1l-0.1,0.1l-0.1,0.1
		l-0.1,0.1l-0.1,0.1l-0.1,0.2l-0.1,0.2l-0.1,0.1l0,0l-0.1,0l0,0l0,0l0,0l-0.5-0.2l-0.1,0l0,0L103,35l0,0l0,0l-0.1-0.2l0-0.1l0,0
		l-0.3-0.2l-0.1-0.1l0-0.1h0l0-0.1l-0.1-0.1l0,0l-0.1,0l-0.1,0l-0.1,0l-0.1,0l0,0l0,0l0-0.1l0-0.1l0-0.1l0,0l0,0l0,0l-0.1,0l0,0l0,0
		v0l0,0l0,0l0.1-0.1l0-0.1l-0.1-0.3l-0.1-0.3l0-0.1l0.1-0.1l0.1-0.1l0,0l0,0l0-0.2l-0.1-0.2h0l-0.3-0.3l-0.1-0.2l0-0.1l-0.1-0.4l0,0
		l-0.1-0.2l-0.1,0.1l-0.3,0.1l-0.6,0.2L99.6,31l-0.1,0l-0.1,0l-1.3,0.4L97,31.6l-0.3,0.2l-0.1,0l-1.5,0.6l-0.2,0.2l-0.2,0.3
		l-0.1,0.1l-0.1,0.1l-0.2,0l-0.1,0l-0.2,0.2l0,0.1l0,0.2l0.1,0.4l0,0.3l0,0.2L94,34.7l-0.2,0.5l0,0.2l0,0.2l0.1,0.5l0,0.6l0,0.2
		l0.2,0.3l-0.2,0.2l0,0.5l0,0.6l-0.1,0.4v0.1l0.4,0.3v0.1l-0.3-0.1l-0.2,0.3L93.7,40l0,0.4l0.1,0.1l0.3,0.2l0.1,0.2l0,0.1l0.1,0.1
		l0.2,0.1l0.1,0v0.1h-0.2l0,0.1l0,0.1l0.1,0l0.1,0v0.1l-0.1,0.1l-0.1,0l-0.8-0.4l-0.3,0l-0.3,0.4l-0.2,0.6L93,42.3l-0.1,0.1
		l-0.4,0.5l-1,0.8L91.2,44L91,44l-0.2,0.1l-3.1,1l-0.7,0l-0.6,0.2l-0.3,0.2l-0.3,0.1l-1,0.6l-0.1,0.1l-1,0.5l-0.1,0.1l-0.1,0
		l-0.4,0.3l-0.1,0.1l-0.3,1l-0.4,0.7l0,0.1l0,0.1l0,0.1l0.1,0.1l0,0.1l0.1,0.1l0.2,0.1l0.2,0.1l0.1,0h0.2l0.5,0.2l0.6,0.1l0.6-0.1
		l0.5-0.3l-0.1,0.2L85.4,50L85,50.2l-1.9,0.4L82.6,51l-0.2,0.3l-0.1,0.1l-0.2,0L82,51.6l-0.4,0.2L80.4,52l-0.2,0.2l-0.7-0.4
		l-0.4-0.1l-0.2-0.2l-0.1-0.1h-0.5l-0.3-0.1l-0.2,0l-0.3,0.2l-0.2,0l-0.3-0.1l-1.3-0.1l-0.9-0.3l-1-0.1l-0.1,0.1L73.4,51l-0.1,0.2
		l0.1,0.1v0.1l-0.1,0l-0.1,0l-0.1-0.1l-0.1-0.1l-0.1,0l-0.1,0.1l-0.1,0l0-0.1l0,0l0-0.1l0-0.1l0-0.1l0-0.3l-0.1-0.2l-0.6-0.7
		l-0.1-0.3L72,49.2l-0.1-0.2l0-0.3l0-0.1l0.1,0l0.2,0l0-0.1l0-0.1l0-0.1l0.2-0.1l0-0.2l-0.2-0.4l0-0.2l0-0.1l-0.1,0l-0.9-0.2l-0.1,0
		l-0.4,0.1l-0.1,0.1l-0.2,0.3l-0.1,0.1l-0.1,0.1l-0.1,0l-0.2-0.1l-0.1,0l-0.1,0l-0.1,0.1l-0.1,0l-0.1,0l0-0.1l0-0.1l0,0l-0.1,0
		l-0.6-0.2l-0.5-0.1l-0.2-0.1l0,0l-0.1,0l0,0l0-0.1l0-0.1l0-0.1l-0.1,0l-0.2,0l-0.1,0L67.4,47l-0.1,0l-0.2,0l0,0.1l0,0.2L67,47.5
		l0.3,0.1l0.2,0l0.1,0.1l0,0.1l0.1,0.1l0.1,0.2l0,0.2l0,0.4l0,0.1l-0.2,0.2l0,0.2l0,0.1l0.2,0.2l0.1,0.1l0,0.1l0,0.1l0,0.1l0.1,0.2
		l0,0.1l0,0.1l0,0.2l0,0.4l0,0.2l0.1,0.1l0.1,0l0.1,0l0.1,0l0,0l0,0l0,0.1l0.2,0.1l0.2,0.2l0.1,0.1l0.1-0.2h0.1l0.1,0.2v0.1h-0.2
		l0.1,0.2l0.1,0.1l0.2,0.2l0,0l0,0l-0.1,0.1l0.1,0.1l0.1,0.4l0.1,0.1l0.1-0.2l0.2,0l0.2,0.1l0.2,0v0.1l-0.3-0.1l-0.1,0l-0.1,0.1
		l0,0.2l0,0.2l0.1,0.2l0.1,0.2l0-0.1l0,0l0.1,0.1l-0.1,0.1L69.7,54l-0.1,0.1l0,0.2l0,0.1l0,0.1l0.1,0l0,0.1l0,0.1l0,0.3l0,0.1
		l0.1,0.1l0.1,0.1l0,0l0.1-0.2L70,55h0.2l0.1,0.1v0.1l-0.2-0.1l-0.1,0.1l0,0.2L69.9,56l0,0.1l0.1,0l0,0.1l0,0.1l0,0.1L70,56.2
		l-0.1,0.1l-0.1,0.6l-0.1,0.1l-0.1,0.1l-0.1,0.1v0.1l0.2,0l0.1,0.2l0,0.3l0,0.3l0.1,0.3l0.3,0.3l0.1,0.3l0,0.1l0.1,0.1l0.3,0.1l0,0
		l0,0.1l0,0.1l0,0.1l0,0l0,0v0l0.3,0l0.2,0.1l0.1,0.2l-0.3-0.1l-0.8,0.2l-0.6-0.1l-0.1,0l-0.4,0.2l-0.6,0.1l-0.6,0l-0.3-0.1
		l-0.2-0.2l0-0.3l0.2-0.3L67.8,59l0-0.1l0-0.1l0-0.1L67,59l0,0.1h-0.3l-0.1,0l0,0.1v0.1l0,0l-0.1,0l-0.1,0.1l-0.1,0.1l0,0.1l0.1,0.1
		l0.1,0.3l0.1,0.1l0.1,0l0.1,0l0.1,0.1l0.1,0.1l-0.1-0.1l0,0l0-0.1h-0.1l0,0.2l0.1,0.2l0,0.1l0.2,0.1L66.8,61l-0.1,0.1l0-0.3l0-0.2
		l-0.2-0.3l0,0l0-0.1l-0.1,0l-0.1-0.1l0-0.1l0-0.1l-0.2-0.3l0-0.1l-0.4,0l-0.3,0.1l0.1,0.2l0,0.1l0.1,0.1l-0.1-0.1l-0.1,0l-0.1,0.1
		l-0.1,0.1l0.1,0.1l0,0v0.1l-0.1,0.1l-0.1-0.1l0-0.1l0-0.2l0,0.1l0,0.1L65,60.3l-0.1,0l0-0.1l0-0.1l-0.1-0.1l-0.1,0l0-0.1l0-0.3
		l0-0.1l-0.2,0.1l-0.2,0.2l-0.1,0.1l-0.1-0.1l0.2-0.2l0-0.1l0-0.1l0-0.1l0.1,0v-0.1l-0.1,0l-0.1,0l-0.1-0.1l0-0.1l-0.1,0.2l-0.2,0.2
		l-0.2,0.2l-0.2,0.1l-0.1-0.2l-0.2,0l-0.3,0.1l0.1,0.1l0.1,0v0.1L63,59.8l-0.5,0.3l-0.1,0l-0.1,0.1l-0.1,0.1L62,60.6l-0.1,0.2
		l-0.1,0.1l-0.3,0l0,0.1l0,0.2l0,0.1L61.3,61L61.2,61l-0.1-0.1l-0.1,0l-0.1,0l0.1-0.1l0-0.1l0-0.1l0-0.1l-0.4-0.2l-0.2-0.1l-0.1,0
		l0,0l0-0.1l0-0.1l0-0.1l0-0.1l0-0.1l-0.1-0.3L59.8,59l0-0.1l-0.1-0.1l-0.1-0.1l-0.1-0.1v-0.1l0,0l0.1-0.1l0-0.1v-0.1l0-0.1
		l-0.2-0.1l-0.4,0L58.7,58v-0.1h-0.1v-0.1l0.1-0.1l0.1,0l0.1,0v-0.1l0,0h0l0,0l0.1-0.1l-0.1-0.1l-0.1,0l-0.1,0l-0.1,0.1l-0.1,0
		l-0.1,0.2L58,58.2H58v-0.1l0.2-0.2l0-0.1l0.1-0.3l0.1-0.1l-0.1-0.1v-0.1l0.1-0.1l0-0.1L58.2,57l-0.1-0.1l-0.1,0l-0.1,0.2l-0.1,0
		l-0.1,0.1l-0.2,0.2l-0.2,0.3l-0.1,0.1l0,0.1l0-0.1l0,0l0-0.1l0.1-0.1l0.1-0.2l0-0.2L57.3,57l-0.1,0L57,57.2l-0.1,0h-0.1l-0.1,0.1
		l-0.6,0.2l-0.1,0L56,57.6l-0.1,0l-0.1,0l-0.2,0l0-0.1l0,0l0,0l0,0l-0.1,0l-0.3-0.2l-0.2,0L55,57.3h0l0,0.1l-0.2,0.3l-0.2,0.1
		l-0.1,0.1l0,0.2l0.3,0.3l0.1,0.1l-0.4,0.1l0,0.1l0,0.2l0.1,0.3l-0.1,0.1l-0.2,0l-0.2-0.1l0-0.2L53.8,59l-0.1,0l-0.1,0l-0.2-0.2
		l-0.1,0l-0.4,0l-0.1,0l-0.1-0.1l0,0.1l0,0.1l0,0.1l0,0.1l-0.1-0.1l-0.1,0.1l0,0.2l0,0.2l-0.1-0.1l0,0l0-0.1h0l0,0.2l0,0.1l0,0.1
		l-0.1,0.1l0.1,0.1l-0.1,0.1l-0.1-0.1l-0.2-0.1L52,59.3v-0.1l0,0l0.1-0.1l-0.2,0l-0.1,0.1l-0.2,0.2l0-0.1l0-0.1l-0.1-0.1l-0.1,0V59
		h0.1v-0.1l-0.1,0l0-0.1l0-0.1l0-0.1l0,0l-0.3,0.1l-0.2,0.1l-0.1,0l-0.1,0l0,0.1l0,0.1l0,0.1l-0.1,0.1h0l0-0.1l0-0.1h0l0,0.1
		L50.5,59l-0.2,0l-0.2,0L50,59l-0.1,0.1l-0.1,0.1l0,0.1l0.1,0v0.1h-0.1l-0.2-0.1l-0.1,0l-0.1,0l-0.2,0.1l-0.2,0l0.1-0.3l-0.1-0.2
		l-0.2,0l-0.2,0.1l-0.2,0.1l-0.2,0v0.1l0,0l0.1,0.1l-0.2,0l-0.3,0.1l-0.2,0H47v0.1l0.1,0l0,0l0,0l0,0l0.2,0.1l-0.1,0L46.7,60
		l-0.1,0.1l0.1,0.2l0.2,0.2l-0.1,0l-0.3-0.1l-0.1,0l-0.2,0l-0.1,0l-0.1,0.1l0.1,0.1l-0.1,0l-0.1-0.1l-0.1,0.2L45.4,61l-0.1,0.3
		l0.2,0.1v0.1l-0.1,0l-0.1,0.2l0,0.2l0,0.2l0.1,0.3l0,0.1l-0.1,0l0,0.2l0.1,0.1l0.1,0l0.4,0l0.1,0l0-0.1l0-0.1l0,0l0.1,0l0.3,0.1
		l0.1,0l0.1,0l0.2-0.1l0.4-0.1l0.5-0.3l0.2-0.1l0.5-0.1l0.2-0.1l0.2-0.1l0.1,0l-0.7,0.4l-0.1,0.1l-0.4,0.5v0.1l0.1,0l0.1,0l0.1,0
		l0.1-0.1l0.1,0.1l0,0l0,0l0,0l0.2,0l0.2-0.2l0.1,0.1l0-0.1l0-0.1l0-0.1h0.1v0.1h-0.1V63l0.1,0l0.2-0.1h0.1L49.1,63L49,63l0,0l0,0
		l-0.1,0l0,0l-0.1,0.1l0.3,0l0,0l0,0.1l0.1,0l0.1,0l0.1-0.1l0,0.1l0.1,0l0.2,0v0.1l-0.6,0.1l-0.2-0.1l0.1,0l0,0l0,0l-0.5,0l-0.4,0.1
		l-0.1,0l-0.1,0l-0.1,0l-0.1-0.1l-0.1,0l-0.7,0l-0.2-0.1l0.1-0.4L47.1,63L47,63.1l-0.1,0.4l0,0l0,0.1l0,0.1l-0.1,0l-0.1,0l-0.1,0
		l-0.1,0l-0.1,0l0,0.1l0,0.1l0.5,0l0.1,0l0.1,0.1l0,0L47,64.2l0,0.1l0,0.1l0,0.1l0.1,0.1l0,0.1L47,64.9l0.2-0.1l0.1-0.2l0.1-0.3
		l0.1-0.2l0.2-0.1l0.4,0.3l0.2-0.1l0,0.1l0,0.1l0,0.1l0.1,0l0.3,0.1l0.1,0.1l0,0.3l0,0.1l0.1,0.1l0,0.1l-0.1,0.3l0,0.1l-0.1,0
		l-0.4-0.1l-2.5,0.6l0,0L46,66.1l0,0l0,0l0,0l0,0l0,0.1l0,0.1l0,0.1l-0.1,0l0.6,0.2l0.3,0l0.1,0l0.2,0.2l0.1-0.1l0.1-0.1l0.1-0.1
		l0.1,0l0.7,0.5l0.4,0.5l0.1,0.2l0.1,0.3l0.1,0.3l0,0.2l0,0.1l-0.1,0h-0.1l0,0l0,0.1l0,0.2l0,0.1l1.1,0.1l0.2-0.1l0.1-0.1l0.2-0.2
		v-0.1h-0.2v-0.1l0,0l0,0l-0.1-0.1l0-0.1l0.1,0l0.1,0.2l0.1-0.1l0.1-0.1l0.1,0l0.1,0v-0.1l-0.1-0.1l-0.1-0.2l0-0.2l0.1-0.1l0,0.2
		l0.1,0.2l0.1,0.1l0.1,0.1l0.1,0l0.1,0l0.2,0.2l0-0.1l0.1,0l0.1,0l0.1,0l0,0.1l0,0.1l-0.1,0l-0.1,0l0.2,0l0.2-0.2l0.1-0.2l-0.1-0.2
		l0.2,0l0.2,0.1l0.1,0.2l0,0.1l0.1,0.1l0,0l0.1,0l0,0.1l0,0.1l0.1,0l0.1,0.1l0.1,0.3l0,0l0.1,0l0.2,0l0.2,0l0.1,0.1l0.4-0.2l0.1,0
		l0.1,0.2l0.1,0.1l0.3,0l0,0l0.1,0.1l0.1,0l0.1,0l0.2,0l0.3,0.1l0.1,0l0.1-0.1l0,0.1l0,0l0.1,0.1l0.1,0.2l0.2,0.3l0,0.1l0.1,0
		l0.6-0.2v-0.1l0-0.1l0,0l-0.1,0l0.2,0l0.2-0.1l0.2-0.2l0.2-0.2v0.1l-0.1,0.1l-0.1,0.1l-0.1,0.3l0,0l-0.1,0l0,0v0.1l0,0.1l0,0
		l-0.1,0v0.1l0.3,0l0.1,0l0.1,0.1v0.1l-0.3-0.1l-0.1,0l-0.1,0.1l0.2,0l0.3,0.1l0.2,0.1l0.2,0.3l0.1,0l0.1,0l0-0.1l0-0.1l0.1-0.1
		l-0.1-0.1l0,0l0.1,0l0.1-0.1l0.1,0l0.1,0.1l0,0l0,0l0,0l0,0l0-0.2l0-0.1l-0.1-0.1l-0.1,0l0.1,0l0.1,0.1l0.1,0l0.1-0.1h0l0,0.1
		l0,0.2l0,0l0.1,0l0,0v0.1l0,0.1l0,0.1l0,0.1l-0.6,0.3l-0.1,0.3l0,0.1l0,0.1l0.1,0l0.1,0l0.1,0l0.1,0.1l0.1,0.1l0.1,0.2l0,0.3l0,0.2
		l-0.1,0.2l0,0.1l0,0.1l0.1,0.3h0l0.1-0.1l0.2,0l0.1,0l-0.2-0.2L58,72.4l0-0.3l0.1-0.4l0,0l0,0l0,0l0.1-0.1l0.1,0l0.1,0.1l0.1,0.1
		l-0.1,0l-0.1,0l0.1,0.1l0.1,0l0.2-0.1l0,0.1l0,0l0.1,0l0-0.1l0-0.1l0.1,0l0,0.2l0,0.1l0.1,0l0-0.1l0-0.2l0.1,0.1l0.1,0.1l0.1,0.1
		l0.1,0l0.1,0.1l0,0l0,0l0,0l0-0.1l-0.1-0.1l-0.1-0.1l-0.1-0.1l0-0.1v-0.3l0-0.1l0-0.1l0-0.1h0.1l0,0.1l0.1,0.1l0.1,0.1l0.1,0
		l-0.1,0.1l0,0.1l0,0.1l0,0.1h0.1l0,0l0,0l0.1,0v0.1h-0.1v0.1l0.3-0.1l0.2-0.1l0.1-0.1l0.1-0.1l0.4,0l0.2-0.1L60.5,71l0.2,0l0.1,0.1
		l0.1,0.1l-0.2-0.1l-0.2,0l0.4,0.2l0,0.1l0.1,0l0,0l0-0.1l-0.1-0.1l0.1,0l0-0.1l0-0.1l-0.1-0.1V71l0.2,0.2l0,0.2L61,71.9l0.1,0.1
		l-0.2,0.1l-0.2,0L60.5,72l-0.1-0.1l0,0.2l0,0.1L60.3,72l-0.1,0l0,0l0,0.1h-0.1L60,71.9h-0.2L59.6,72l0.1,0.1l0,0.1l0,0l0,0l0.1,0
		l0.1,0l0,0.1l0,0l0.1,0.2l0,0l0.1,0.1l0.1,0.1l0.1,0l0.1,0l0.4-0.1l0.1,0l0.3,0.1l0.1-0.1l0-0.3l0.1,0.1l0.1,0l0.2,0l0-0.1l0,0l0,0
		l-0.1,0l0.1,0l0.1,0l0.1,0l0.1-0.1l-0.1,0.2L62,72.3l-0.1,0.1l-0.1,0l0.1,0.1l0,0l0,0l0.1,0h0.3l0.2-0.1l0.1,0l0.1,0l0.6,0.2l0.1,0
		l0.2,0l0.1,0l-0.2,0l-0.3,0.1l-0.5,0l-0.1,0.1l0.1,0.1l-0.1,0.2l0.1,0.1l0.2,0l0.1,0.1l-0.1,0.2l0.1,0l0.2,0l0.1,0l0,0.1l-0.3,0.1
		l-0.1,0.1l-0.1-0.1l0,0l0,0l0-0.1l-0.1,0l-0.1,0l-0.1,0l-0.6,0.4l0.3,0.2l0.1,0.2l0,0.3h0.1l0-0.1l0,0l0-0.1l0,0l0,0l0.1,0l0.1,0.2
		l0.2,0.1l0.1,0.2L63.1,75l-0.2,0l-0.3-0.2l-0.2,0v0.1l0.7,0.4l0.2,0l0,0l0-0.1l0-0.1l0.1-0.1l0.1,0l0.1,0l0.1,0l0.1,0.1l0.2,0.2
		l0.1,0.1l0.1,0.1l0.2,0l0.1-0.1l0.2-0.2l0.2-0.1l0.1-0.1l0-0.1l0-0.1l0.1-0.1l0.2-0.1l1.1-0.1l0.3,0.1l0.1,0.1l0.1,0l0.2,0l0.2,0.1
		l0.3,0.2l0.3,0.2l0.2,0.3l0.1,0.1l0.3,0.1l0.2,0.1l-0.4,0l-0.2-0.1l-0.2-0.2l-0.1-0.1l-0.3-0.1l-0.3-0.2v-0.1h0.2l-0.1-0.1l-0.1,0
		l-0.1,0H67l0.1,0.1l-0.1,0L66.6,75L66.5,75l-0.1-0.1l-0.1,0l-0.1,0l-0.1,0L65.6,75l-0.2,0.1l-0.1,0.1l0,0.1l0,0.1l0,0.1l0,0.2
		l0.1,0.2l0,0.2l0,0.2l0,0.1l-0.1,0l-0.2,0l-0.1,0.1l-0.1,0.1l-0.1,0.1l0.3,0.2l0.9,0.2l0.5,0.3l0.1,0.1l0.1,0.1l0.1,0.2l0,0.2
		l-0.1,0.1l-0.1,0.2l-0.1,0.4l-0.1,0.2l-0.3,0.2L65.8,79l0,0.2l-0.2,0.1l-0.1,0.1l0,0.2l0,0.2l0,0.2l0.1,0.2l0.1,0.1l0.2,0.1
		l0.2,0.2l0.4,0.4l0.2,0.5l0.1,0.1l0.1,0l0.1,0l0.1,0.1l0.1,0.3l0.1,0.1l0.1,0.1l0.1,0.1l0,0.1l0,0.2l0.1,0.1l0.1,0.1l0,0.2l0.2,0.8
		l0.1,0.1l0.1,0l0,0l0-0.1l0-0.2l0-0.1l0.1,0.1l0.1,0.2l0.1,0.1l0.1,0.1l0.2,0.1l0.3,0.2l0.4,0.1l0.1,0.1l-0.1,0.1l0.2,0.1l0.5,0
		l0.2,0l0.2,0.1l0.1,0.2l0,0.3l0.1,0.2l0.2,0l0.4-0.1l0.1,0l0.2,0.2l0.2,0.1l0.1,0l0.1,0l0.1,0.2l0.1,0.2l0.2,0.1l0-0.3l0.3-0.2
		l0.3,0l0.2,0.2l0,0.2l0,0.1l0,0.1l-0.1,0.1l-0.5,0.3l-0.1,0.1l0,0.2l-0.1,0l-0.1,0.1l0,0.1l0,0.1l0.1,0.1l0.1,0l0.1,0l0.1,0l0.1,0
		l0,0l0,0l0,0.1l0,0.1l0,0l0.1,0l0.2,0.1L73.2,88v0l0,0l0,0.1l0,0l0.1,0l0,0l0,0l0,0.1l0.1,0.1l0,0.1l0,0.1l0.1,0.1l0.1,0l0,0.1l0,0
		V89l-0.1,0.2l-0.1,0.1l-0.1,0l-0.2-0.1l0.1,0.4l0.1,0.1l0.1,0.1l0,0l-0.1,0.1l0,0l0,0.1l0.1,0.1l0,0.1l0,0.1l0,0.1l0,0l-0.1,0
		l-0.1,0l-0.1,0.1l-0.1,0.1l0,0l0,0.1l-0.1,0.1l-0.1,0l0.1,0.1l0.1,0.2l0,0.2l0,0.1l0,0.1l0.2,0.2l0.7,0.6l0.2,0.2l-0.5-0.3
		l-0.1-0.1L73.6,92l-0.5-0.6l-0.1,0l-0.5,0.2l0,0.1l-0.1,0.8l0.1,0.1l0.3-0.1l0.1,0.1l0.1,0.1l0.1,0.1l0.1,0.1l0.1,0l0.2,0.1
		l0.4,0.4l0.3,0.1l0,0l0,0.2l0,0l1.1,0.8l0.4,0.4l0.2,0.3l0.2,0.3l0.3,0.7l0.1,0.4l0.3,2.1l0.1,0.3l0.1,0.3l0.3,0.2l0.3,0.1l0.3,0.2
		l0.2,0.3l-0.2-0.1l-0.2-0.1l-0.2,0l-0.2,0l0.2,0.1l0.2,0.2l0.1,0.2l-0.1,0.3l0,0.1l0,0.3l0,0.2l-0.1-0.1l-0.1-0.2l0-0.2l0-0.2
		l0-0.2l0-0.1l-0.1-0.1l-0.1-0.1l-0.2-0.1l-0.3-0.3l-0.3-0.3l-0.3-0.6l0-0.1l-0.1-1l-0.1-0.4l0-0.2L76,96.7l-0.2-0.3l-0.9-1l-0.1,0
		l-0.3-0.2l-0.5-0.4l-0.1-0.1l-0.1-0.1l0-0.1l0-0.1l0-0.1l0,0l0-0.1l0-0.1l0,0l-0.1,0l-0.1,0l-0.1,0.2l-0.3,0.5l0,0.2L73,97.2
		l-0.3,1.7l-0.5,5.3l0.1-0.1l0.1-0.3l0.1-0.5l0.3-0.5l0.1-0.1l0,0l0,0l0,0l0,0l0.1,0l0,0l0,0l0,0l0.1,0l0.6,0.5l0.1,0.2h-0.1
		l0.2,0.2l0,0.2l-0.2,0.1l-0.3,0l-0.5-0.1l-0.2,0l-0.2,0.2l-0.1,0.5l0,0.1l0,0.1l-0.2,0.3l0,0.1l0.1,0.3l0,0.2l-0.1,0.7l-0.2,1.5
		l-0.5,3l-0.3,1.4l-0.2,0.6l-0.3,1.7l-0.2,0.6l-0.1,0.3l-0.1,0.4l-0.1,0.1l-0.4,0.3l-0.1,0.1l0,0.1l-0.2,0.3l-0.1,0.1l-0.1,0.1
		l-0.2,0.1l-0.2,0.1l-0.7,0.1l-0.1,0.1l-0.1,0.1l-0.1-0.1l0,0.3l0,0.2l0,0.1l0.2,0.1l0.1,0.1l0,0.2l0,0.1l0.1,0l0.1,0l0.2,0l0.2-0.1
		l0.1,0l0.1,0.1l0.1,0.1l0,0.1l0,0.1l0,0.1l0.1,0.2l0,0l0.1,0l0.1,0l0.1,0l0.1,0l0-0.1l0.1-0.2l0.1-0.1l0.2,0l0.2,0.1l0.3,0.2l0.1,0
		l0.1,0h0.1l0.2,0.2l0,0.4l-0.1,0.4L71,120l-0.1,0.1l-0.3,0.3l-0.1,0.1l0.1,0.2l0.1,0.2l0.2,0.1l0.2,0l0.2,0l0.1,0l0.1-0.1l0-0.3
		l0.1-0.2l0.1-0.1l0.2-0.1l0.2,0l-0.2,0.1l-0.1,0.1l0,0.1l0.1,0.1l0.1,0.1l0.4,0.1l0.3,0.1l0.2,0.2l0.3,0l0.1,0l0.1,0.1l0.1,0l0.3,0
		l0.1,0l0.1,0.1l0.3,0.2l0.3,0.1l0.6,0.1l0.6-0.1l0.2,0.1l0.1,0.4l0,0.1l0,0l0,0.1l0,0.1l0.1,0.1l0.1,0l0.1,0l0.1,0l0.3,0.2l0.1,0.1
		l0.3,0.4l0,0l0,0l0,0l0.1,0h0.1l0,0l0,0.1l0,0.1l0,0.1l0.1,0l0.1,0l0.1-0.1l0.1,0l0-0.2l0.2,0l0.4,0.2l0.2,0l0.2-0.1l0.4-0.3
		l0.1,0.1l0.1,0l0.1-0.1l0-0.1l0.1,0.1l0.5,0.3l0.1,0.2l0.2,0l0.2-0.1l0.1-0.1l0,0.2l0,0.2l0.1,0.2l0.1,0.1l0,0.1l0,0.1l0,0.1l0.1,0
		l0.1,0l0.1,0l0,0.1l0,0l0.3,0.1l0.3,0l0.6-0.2l0.5-0.1l0.1-0.1l0.1,0l0.4,0.1l0.1,0.1l0.2,0.3l0.1,0.1l0.1,0l0.2-0.3l0.1-0.1
		l0.1-0.1l0.2,0.2l0,0l0,0l0,0l0,0l0.2,0l0.1,0l0.3-0.1l0.1,0.1l1,0l0.3,0l0.1,0l0.1-0.1l0-0.2l-0.1-0.2l-0.1-0.1l-0.1,0l0-0.1l0,0
		l0.1,0l-0.1-0.1l0.1-0.3l0-0.2l0-0.2l0.2-0.1l0.2,0l0.1,0l0.3,0.1l0.1,0l0.1,0l0.1,0l0.3,0.2l0.2,0.1l0.1,0.1l0.1,0.1l0.1,0l0.1,0
		l0.1-0.1l0.1,0l0.1,0l0.1,0.1l0.1,0l0.7,0l0.2,0.1l0.1,0.1l0.1,0.1l0.1,0.2l0.1,0.1l0.1,0.1l0.1,0l0.3-0.1l0.9,0l0.2,0l0,0.1l0,0
		l0.1,0l0.1,0l0.1,0.2l0.1,0.2l0.1,0.4l0.1,0.1l0.2-0.1l0.1-0.4l0.2,0l0.2-0.1l0.1,0l0.4,0.3l0.1,0l0.9,0.1l-0.1,0.2l0.1,0.1
		l0.2,0.1l0.1,0.1l-0.2,0L95,126l-0.1,0.2l0,0.3l0,0l0,0l0,0l0,0l0.1,0.1l0.5,0.1l0.2,0.1l0.4,0.3l0.2,0l0.1,0l0.1,0.1l0.1,0.2
		l0.1,0.4l0.1,0.2L97,128l0.1,0.1l0.1,0l0.2,0l0.1,0l0.1-0.1l0.1-0.1l0.2-0.1l0-0.1l0.1-0.2l0-0.1l0.1-0.1l0.4,0l0.5-0.1l0.2,0
		l0.2,0.1l0.1,0.1l0.4,0.2l0.2,0.1l0.1,0l0.1,0.2l0.1,0.2l0.1,0.1l0.1,0l0.2,0.1l0.1,0l0.1,0l0.1,0l0.1-0.2l0.1-0.1l0.1,0l0.4,0.1
		l0.2,0l0.2,0l0,0l-0.1-0.1l-0.1-0.2l0.1-0.1l0.3-0.3l0.1-0.1l0.2,0l0.3,0l0.2,0l0.1-0.1l0.2-0.2l0.1-0.1l0.1,0l0.1,0l0.1,0l0.3-0.2
		l0.2,0.1l0.1-0.1l0.1,0l0.2,0l0.1,0l0,0.1l0.1,0.1l0.1,0.1l0.1,0.1l0.2,0.1l0.2,0l0.2,0l0.5-0.1l0-0.1l0-0.3l-0.2-0.3l-0.5-0.5
		l-0.1-0.2l-0.1-0.8l0-0.1l0-0.1l0,0l-0.1,0l0,0l-0.1-0.1l0-0.1l0-0.1l0.1-0.1l0.1,0.1l0,0l0-0.1l0.1-0.5l0-0.2l0-0.2l0-0.2l0-0.1
		l-0.1,0l-0.2-0.1l-0.1,0l-0.1,0l-0.1-0.1l0-0.1l-0.1-0.1l0.3-0.3l0.1,0l0-0.1l0-0.2l0-0.1l0.1,0l0.1,0.1l0.1,0l0.1-0.1l0-0.1
		l-0.2-0.2l-0.1-0.2l0-0.2l0.1-0.1l0.2,0l-0.1,0.2l0,0.1l0,0.1l0.1,0l0-0.1l0-0.1l0.1-0.1l0-0.1l0-0.1l0-0.3l0-0.1l0.1-0.2l0-0.1
		l-0.1-0.1l-0.1-0.1l-0.1-0.1l-0.1-0.3l0-0.1l0.1,0h0.2l0,0l-0.1,0.1l-0.1,0.1v0.1l0.1,0.1l0,0.1l0,0l0.1,0l0.2-0.3l0-0.1l0.1-0.1
		l0.2-0.2l0.1-0.1l0.1-0.2l0.1-0.1l0.1-0.2l1.1-0.8l0.3-0.1l0.2,0l0.3,0.2l0.2-0.1l0.6-0.8l0.2-0.2l0.9-0.5l1.5-1.3v-0.1l-0.3,0.1
		l-0.2,0.2l-0.4,0.4l-0.4,0.3l-0.2,0.1l-0.3,0v-0.1l0.6-0.3l0.1-0.1l0-0.2l0.1-0.1l0.5-0.4l0.2-0.1l0.5-0.1l0.3-0.2l0.2-0.1l0.4-0.1
		l-0.1,0.2l-0.1,0.1l-0.1,0.1l-0.2,0l-0.4,0l-0.2,0.1l-0.1,0.1l0.3-0.1l0.5,0l0.4,0l0.2,0.2l0,0l0.2,0.6l0,0.1l0.1,0.1l0.2,0.1
		l0.2,0l2.4,0.1l0.3,0.1l0.2,0.2l0,0.2l-0.1,0.2l-0.1,0.2l0,0.1l0.2,0.1l0.3,0.1l1.1,0.1l0.3-0.1l-0.2-0.2l-0.2-0.2l-0.2-0.2
		l-0.1-0.4v-0.8l0-0.1l-0.2-0.4v-0.1l0.1,0.1l0.1,0.2l0.1,0.2l0,0.2l0,0.2l0,0.6l0.1,0.3l0.3,0.2l0.3,0.2l0.3,0.1l-0.1-0.2l-0.1-0.1
		l0-0.1l0.1-0.1l0.1-0.1l0.2,0l0.1-0.1l0.2-0.1l0.4,0.2l0.1-0.1l0.2,0.1l0.2-0.1l0.1-0.2l-0.1-0.3l-0.1-0.1l-0.1-0.1l-0.1-0.1l0-0.2
		l0-0.1l0-0.1l0.1-0.1l0.1-0.1l0,0l0.1,0.2l0,0l0.2,0l0.1,0l0.2,0.1l0,0.1l0,0.1l0.1,0.2l0.2,0.2l0.2,0l0.2-0.1l0.2-0.1l0,0.2
		l-0.1,0.2l-0.2,0.2l-0.1,0.1l-0.2,0.1h-0.7l-0.2,0.1l-0.1,0.2l0,0.2l0.2,0.2l0.2,0.1l0.5,0l0.1,0l0.3,0l1-0.2l0.2,0.1v0.5l0,0.1
		l0.1,0.1l0.1,0l0,0l0,0.1l0,0.1l-0.1,0.2l-0.1,0.1l0,0.1l0.1,0.1l0.1,0l0.2,0l0.1,0.1l0.1,0l0.2,0l0.2,0l0.1,0.1l0,0l0.1,0l0.1-0.1
		l0.1-0.1l0.1,0l0.2,0.3l0.1,0.1l0.1,0l0,0l0,0l0,0l0,0l0,0l0-0.1l0,0l0.4,0l0.1,0.1l0,0.2l0.3,0.2l0.1,0l0.2,0l0.1,0l0,0.1l0.1,0
		l0.1,0l0.1,0l0,0l-0.2,0.1l-0.1,0.1l0,0.1l0.1,0.1l0.4,0.2l0.2,0l0.1-0.1l0-0.1l0.1-0.1l0.1,0l0.2,0v-0.1l-0.1-0.1l-0.2-0.2
		l-0.1-0.1l0.2-0.1l0.1,0l0.1,0l0,0.1l0,0.1l0,0.1l0.2-0.1l0.2,0l0.2,0.1l0.1,0.1l0.1,0l0.6,0l0.1,0v0.1l0,0.2l0,0l-0.3,0v0.1l0.1,0
		l0.5,0l0.1,0v-0.1h-0.1l-0.1,0l-0.1-0.1l0.1-0.2l0-0.2l0.1-0.1l0.2-0.1l0.1,0l0.5,0l0.1,0l0.1,0l0.1,0l0.1,0l0,0.1l0,0.1l0,0l0.3,0
		l0.1-0.1l-0.1-0.2l0-0.1l0-0.1l0-0.1l0.1-0.1l0.1-0.1l0.2,0l0.2-0.1l0.2-0.1l0.1,0l0.2,0l0.1,0l0.1-0.1l0.1-0.1l0.1-0.1l0.2,0
		l0.1,0.1l0,0.1l0,0.1l0,0l0.1,0l0.1-0.1l0.1,0l-0.1-0.1l0.3-0.3l0-0.1l0,0l0,0l0,0l0-0.1l0-0.1l0,0l0,0l0-0.1l0.1-0.2l0-0.1l-0.7,0
		l0,0l0-0.1l0.1-0.1l0.2-0.1l0.2,0l0.1-0.1l0-0.1l0.1-0.1l0.1-0.1l0.1,0l0.1-0.1l0.1-0.3l0.1-0.2l0.1-0.2l0.1-0.1l0.2,0.1l0.2,0.1
		l0.4,0l0,0l0-0.1l0,0l0,0.1l0,0l0,0l0.1,0l0,0l0,0l0-0.1l0,0h0.1l0,0l0,0l0.3-0.5l0,0l0,0l0-0.2l0,0l0.1-0.2l0.1-0.1l0.1-0.1
		l0.1-0.1l0.2,0.1l0.2-0.1l0.2-0.1l0.2-0.1l0,0l0,0.1l0,0.1l0.1,0l0,0l0,0l0-0.1l0-0.1l0-0.5l0-0.1l0.1,0l0.1-0.1l0.1-0.1l0.1,0
		l0.1,0l0.1,0l0.1,0l0.1-0.1l0.1-0.2l0.1-0.1l0.1,0l0.1,0l0.4,0l0,0.1l0,0l0.1,0l0-0.1l0-0.1l0.1-0.1l0.1,0l0-0.1l0.1-0.1l0.1-0.1
		l0.2,0.1l0.1-0.1l0.1,0l0.1,0l0.1,0l0,0l0.1,0l0,0l0-0.1l0,0l0,0l0,0h0l0.1-0.1l-0.2-0.5l0-0.3l0.1-0.2l0.3-0.4l0.2-0.2l0.4-0.3
		l0.2-0.2l0.1-0.1l0.1-0.2l0-0.1l0.1-0.1l0.1-0.1l0.1-0.1l0-0.2l-0.1-0.3l-0.2-0.2l-0.1-0.2l0.1-0.3l-0.2,0l-0.3,0.2l-0.2,0
		l-1.3,0.4l-0.3,0l-0.1,0l-0.1-0.1l0-0.1l-0.1-0.1l-0.1,0l-0.2,0l-0.1-0.1l-0.8-0.5l-0.3-0.1l-0.5-0.2l-0.1,0l-0.1,0l-0.1,0l-0.1,0
		l-0.1,0l-0.1-0.1l0-0.1l0-0.1l0-0.1l-0.1-0.1l-0.1-0.1l-0.1-0.1l0-0.1l-0.1-0.2l-0.1-0.1l-0.2-0.2l0,0l0-0.1l0-0.1l0-0.1l0.1-0.3
		l0.1-0.1l0.3-0.1l-0.2-0.2l-0.2-0.2l-0.2-0.3l0-0.3l0.1-0.1l0.4-0.3l0.3-0.5l0.1-0.1l-0.1-0.2l0.1-0.2l0.1-0.2l0.2-0.1l0.1,0
		l0.3,0.1l0.1,0l0-0.1l-0.2-0.4l0-0.1l0-0.3l-0.1-0.2l0,0l0-0.2l0,0l0-0.1l0,0l0,0l0-0.1l0-0.1l-0.1-0.2l-0.4-0.2l-0.1,0l-0.4,0.1
		l-0.1,0l-0.5-0.3l-0.3-0.2l-0.1-0.2l0-0.6l0-0.3l-0.2-0.1l-0.3,0l-0.1-0.1l-0.1-0.2l0-0.1l0-0.1l0-0.1l-0.1-0.1l-0.1-0.2l0.1-0.1
		l0.1-0.1l0.3-0.2l0.1,0l0.1,0l0.1,0l0.1,0l0.1-0.1l0.1,0l0.3,0l0.3,0.2l0.3,0.1l0.2-0.1l0-0.1l0,0l0-0.1l0-0.1l0.1,0l0.2,0l0.1,0
		l0.1-0.1L135,98l0.1-0.1l0.3-0.1l0.3-0.1l0.1,0l0.1,0.1l0,0l0.1-0.1l0.1-0.3l0.2-0.2v-0.2l-0.1-0.2l0-0.3l0-0.1l0.2-0.3l0.2-0.3
		l0.1-0.2l0-0.1l-0.1,0l-0.3-0.1l-0.1-0.1l-0.1-0.1l-0.1-0.1l-0.1-0.1l-0.3-0.2l-0.3-0.2l-0.1-0.2l0-0.5l0-0.1l-0.1-0.1l0-0.1l0-0.1
		l0.1-0.2l0-0.1l0-0.2l-0.1-0.1l-0.2-0.1l-0.1-0.1l-0.2-0.2l-0.1,0l-0.2,0l-0.2-0.2l-0.2-0.2l-0.1-0.5l0-0.2l0-0.2l0-0.2l0.1-0.2
		l0.1-0.1l0.2,0v0l0,0l0-0.1l0,0l0,0l0.1,0l0,0l0.1,0l0.2,0l0.2,0l0.2-0.1l0.2-0.1l0.1-0.2l0-0.1l0.1-0.1l0.1-0.1l0.1-0.1l-0.1-0.1
		l0-0.1l-0.1-0.2l-0.1-0.2l0-0.1l0,0l-0.5-0.6l-0.2-0.1l-0.1,0l-0.1,0.1l-0.1,0l-0.1,0l-0.1-0.1l0,0l0,0l0-0.1l0,0l0-0.1l0-0.1l0,0
		l0-0.1l0.1-0.1l0.1-0.1l0-0.1l-0.1-0.1l-0.6-0.1l-0.1-0.2l0.1-0.4l0.1-0.4l0.3-0.5l-0.2-0.3l-0.3-0.3l-0.1-0.3l0-0.1l0.2-0.2
		l0.1-0.2l0-0.2l-0.1-0.1l-0.1-0.1l-1.1-0.3l-0.5,0l-0.5,0.1l-0.7,0.4l-0.2,0.1l-0.3,0L130,85l-0.2,0.2l-0.2,0.3l-0.2,0.2l0,0.2
		l0,0.1l0.1,0.2l0,0l0.1,0.2l0,0l0.1,0l0.1-0.1l0.1,0l0,0.3l-0.2,0.2l-0.5,0.3l-0.4,0.5l-0.2,0.1l-0.3-0.1l-0.3,0l-0.3,0.1l-0.2,0.1
		l0.1-0.2l0.1-0.1l0-0.1l-0.1-0.2l-0.1-0.2l0-0.1l0.2-0.1l0.5-0.2l0,0h0l0.1,0l0,0l0,0l0.2-0.1l0-0.1l0-0.1l0-0.1l0.1-0.3l0-0.1
		l0.2-0.6l0-0.1l-0.1-0.2l-0.1-0.1l-0.4-0.3l0.1-0.1l0-0.1l0-0.1v-0.1l0,0l0,0l0-0.1v-0.1l0-0.1l0.1-0.1l0.3-0.5l0.3-0.3l-0.2-0.2
		l0-0.1l0.1-0.1l1-0.9l0.5-0.3l0.1-0.1l0.2-0.2l0.3-0.1l0.1-0.1l0.1-0.1l0-0.1l0-0.2l-0.1-0.1l0-0.1l0-0.1l0-0.1L131,80l0.1-0.1
		l0-0.1l0-0.2l0-0.1l-0.1-0.2l0-0.1l0.1-0.4l0.4-0.2l0.8-0.3l0.5-0.4l0.2-0.3l-0.1-0.2l0.1-0.2l0.1-0.1l0.2-0.1l0-0.1l0,0l0.1-0.1
		l0-0.2l0.2-0.1l0.5-0.5l0.1-0.2l0.2-0.2l0.5-0.4l0-0.3l0-0.2l0.1-0.1l0.1,0l0,0l0.1-0.2l0.1,0l0.1,0l0.1,0l0.1-0.1l-0.1-0.1
		l-0.1-0.1l-0.1-0.1l-0.1,0.1l-0.9,0.1l0-0.1l0.1-0.2l0.1-0.1l0.2-0.1l0-0.2l0.2,0l0.1-0.1l0.1-0.1l0.1-0.1l0-0.1l-0.1-0.2l0-0.1
		l0.1,0l0.1-0.1l0.1,0l0.1,0l0.1,0.1l0.2,0l0.4-0.1l0.2,0l0.1,0.1l0.1,0l0.2,0l-0.1,0.3l0,0.2l0.2,0.1l0.2,0.1l0,0l0,0l0,0l0.1,0
		l0.1,0l0.3-0.1l0.2,0l0.5,0l0.2-0.1l0.2-0.2l0-0.1l0-0.1l0-0.1l0,0l0-0.1v-0.1l0.1,0l0.1,0l0.1,0.1l0.1,0l0.1-0.1l0,0l0,0v0l0,0
		l-0.1-0.1l0,0l0,0l0,0l0.1,0l0.1,0l0-0.1l0-0.1l0,0l-0.1-0.1l0,0l0.3-0.3l0.2-0.1l0.3-0.1l0,0l0,0l0-0.1l0,0l0-0.1l0-0.1l0,0l0-0.1
		l-0.2-0.3l-0.1-0.1l-0.1-0.1l0-0.1l0-0.1l0-0.2l0-0.1l0.1-0.1l0-0.1l0-0.2l-0.1-0.4l0-0.2l0.1-0.4l0-0.1l0.1-0.1l0-0.1l0-0.2l0-0.1
		l0,0l0,0l0,0l0-0.1l0.1,0l0-0.1l0-0.1l0-0.1l0-0.2l0-0.2l0.2-0.2l0.1-0.1l0-0.4l-0.3-0.6l0-0.5l0-0.2l0.1-0.2l0.1-0.1l0.1-0.1
		l0-0.1l0-0.2l0.1-0.1l0.5-0.7l0.1-0.2l0-0.2l0-0.2l0.1-0.2l0.1-0.1l0.1-0.1l0.1-0.2l0-0.2l0-0.2l0-0.1l0-0.1l0-0.2l0.1-0.3l0-0.1
		l0.1-0.1l0.1-0.1l0-0.1l0-0.2l0-0.1l0.1-0.1l0.2-0.2v-0.1l-0.1-0.2v-0.4l0.1-0.4l0.3-0.5l0.1-0.1l0.1,0l0.1-0.1l0.2-0.2l0.1-0.1
		l0.1-0.1l0.1-0.1l0-0.1l0-0.2l0-0.1l0.1,0l0.2,0l0.1,0l0,0l0-0.1l0-0.1l0-0.1l0,0l0,0l0.1,0l0.3-0.1l0,0l0.1-0.2l0.3-1l0.2-0.5
		l0.2-0.2l-0.1-0.1L143.7,55.7z M97.1,127.1L97.1,127.1L97.1,127.1l-0.3,0l-0.1-0.1l0-0.1l0.1-0.2l0.1,0l0.1,0.1l0.1,0.2L97.1,127.1
		L97.1,127.1z"/>
	<g>
		<g>
			<path class="st1" d="M158.5,28.6c-15.2,0.2-36.2,14.9-42.1,30.2"/>
			<g>
				<path class="st2" d="M116.4,58.8c0.3-0.1,0.8-0.1,1.1,0c-0.5,0.2-1.1,0.4-1.5,0.8c0-0.6-0.2-1.1-0.5-1.6
					C115.9,58.2,116.3,58.5,116.4,58.8z"/>
			</g>
		</g>
	</g>
	<g>
		<path class="st3" d="M170.6,27h-0.8l-1.5-2.3h-1.2V27h-0.7v-5.8h2.3c0.5,0,1,0.2,1.3,0.5c0.3,0.3,0.5,0.7,0.5,1.3
			c0,0.5-0.1,0.9-0.4,1.2c-0.3,0.3-0.6,0.5-1.1,0.5L170.6,27z M168.6,24.1c0.3,0,0.6-0.1,0.8-0.3c0.2-0.2,0.3-0.5,0.3-0.8
			s-0.1-0.6-0.3-0.8c-0.2-0.2-0.5-0.3-0.8-0.3h-1.5v2.2H168.6z"/>
		<path class="st3" d="M175.1,27h-0.6v-0.6c-0.2,0.2-0.4,0.4-0.7,0.5c-0.3,0.1-0.5,0.2-0.8,0.2c-0.9,0-1.3-0.4-1.3-1.3v-3h0.6v2.8
			c0,0.3,0.1,0.6,0.2,0.7c0.2,0.1,0.4,0.2,0.7,0.2c0.2,0,0.5-0.1,0.7-0.2c0.2-0.1,0.4-0.3,0.5-0.4v-3.1h0.6V27z"/>
		<path class="st3" d="M177.7,27.2c-0.7,0-1.3-0.2-1.7-0.7l0.3-0.5c0.1,0.2,0.3,0.3,0.6,0.4c0.3,0.1,0.5,0.2,0.8,0.2
			c0.3,0,0.6-0.1,0.7-0.2c0.2-0.1,0.3-0.3,0.3-0.5c0-0.2-0.1-0.3-0.3-0.4c-0.2-0.1-0.4-0.2-0.6-0.2c-0.3-0.1-0.5-0.1-0.8-0.2
			c-0.3-0.1-0.5-0.2-0.6-0.4c-0.2-0.2-0.3-0.4-0.3-0.7c0-0.3,0.1-0.6,0.4-0.9c0.3-0.2,0.7-0.3,1.1-0.3c0.6,0,1.1,0.2,1.5,0.6
			l-0.3,0.4c-0.3-0.4-0.7-0.5-1.2-0.5c-0.3,0-0.5,0.1-0.7,0.2c-0.2,0.1-0.3,0.3-0.3,0.5c0,0.2,0.1,0.3,0.3,0.4
			c0.2,0.1,0.4,0.2,0.6,0.2c0.3,0.1,0.5,0.1,0.8,0.2c0.3,0.1,0.5,0.2,0.6,0.4c0.2,0.2,0.3,0.4,0.3,0.7c0,0.4-0.1,0.7-0.4,0.9
			C178.6,27,178.2,27.2,177.7,27.2z"/>
		<path class="st3" d="M181.7,27.2c-0.7,0-1.3-0.2-1.7-0.7l0.3-0.5c0.1,0.2,0.3,0.3,0.6,0.4c0.2,0.1,0.5,0.2,0.8,0.2
			c0.3,0,0.6-0.1,0.7-0.2c0.2-0.1,0.3-0.3,0.3-0.5c0-0.2-0.1-0.3-0.3-0.4s-0.4-0.2-0.6-0.2c-0.3-0.1-0.5-0.1-0.8-0.2
			c-0.3-0.1-0.5-0.2-0.6-0.4c-0.2-0.2-0.3-0.4-0.3-0.7c0-0.3,0.1-0.6,0.4-0.9c0.3-0.2,0.7-0.3,1.1-0.3c0.6,0,1.1,0.2,1.5,0.6
			l-0.3,0.4c-0.3-0.4-0.7-0.5-1.2-0.5c-0.3,0-0.5,0.1-0.7,0.2s-0.3,0.3-0.3,0.5c0,0.2,0.1,0.3,0.3,0.4c0.2,0.1,0.4,0.2,0.6,0.2
			c0.3,0.1,0.5,0.1,0.8,0.2c0.3,0.1,0.5,0.2,0.6,0.4c0.2,0.2,0.3,0.4,0.3,0.7c0,0.4-0.1,0.7-0.4,0.9C182.6,27,182.2,27.2,181.7,27.2
			z"/>
		<path class="st3" d="M184.7,22.3c-0.1,0-0.2,0-0.3-0.1c-0.1-0.1-0.1-0.2-0.1-0.3c0-0.1,0-0.2,0.1-0.3c0.1-0.1,0.2-0.1,0.3-0.1
			c0.1,0,0.2,0,0.3,0.1c0.1,0.1,0.1,0.2,0.1,0.3c0,0.1,0,0.2-0.1,0.3C185,22.2,184.9,22.3,184.7,22.3z M185.1,27h-0.6v-4.2h0.6V27z"
			/>
		<path class="st3" d="M189.6,27H189v-0.5c-0.4,0.4-0.8,0.6-1.4,0.6c-0.4,0-0.7-0.1-1-0.4c-0.3-0.2-0.4-0.6-0.4-1
			c0-0.4,0.1-0.8,0.4-1c0.3-0.2,0.6-0.4,1-0.4c0.6,0,1.1,0.2,1.4,0.6v-0.8c0-0.3-0.1-0.5-0.3-0.6c-0.2-0.2-0.4-0.2-0.8-0.2
			c-0.5,0-0.9,0.2-1.3,0.6l-0.3-0.4c0.4-0.5,1-0.7,1.7-0.7c0.5,0,0.9,0.1,1.2,0.3c0.3,0.2,0.4,0.6,0.4,1.1V27z M187.8,26.7
			c0.5,0,0.9-0.2,1.2-0.5v-0.8c-0.2-0.3-0.6-0.5-1.2-0.5c-0.3,0-0.5,0.1-0.7,0.3c-0.2,0.2-0.3,0.4-0.3,0.7c0,0.3,0.1,0.5,0.3,0.7
			C187.3,26.6,187.5,26.7,187.8,26.7z"/>
	</g>
	<g>
		<path class="st3" d="M169.1,53.5c-0.8,0-1.5-0.3-2.1-0.8c-0.6-0.6-0.9-1.3-0.9-2.1s0.3-1.6,0.9-2.1c0.6-0.6,1.3-0.8,2.1-0.8
			c0.9,0,1.7,0.4,2.2,1.1l-0.6,0.3c-0.2-0.2-0.4-0.4-0.7-0.6c-0.3-0.2-0.6-0.2-0.9-0.2c-0.6,0-1.2,0.2-1.6,0.7
			c-0.4,0.4-0.6,1-0.6,1.7c0,0.7,0.2,1.2,0.6,1.7c0.4,0.4,1,0.7,1.6,0.7c0.3,0,0.6-0.1,0.9-0.2c0.3-0.2,0.5-0.4,0.7-0.6l0.6,0.3
			C170.7,53.1,170,53.5,169.1,53.5z"/>
		<path class="st3" d="M175.7,53.4H175v-2.8c0-0.3-0.1-0.6-0.2-0.7c-0.2-0.1-0.4-0.2-0.7-0.2c-0.2,0-0.5,0.1-0.7,0.2
			c-0.2,0.1-0.4,0.3-0.5,0.5v3.1h-0.6v-5.8h0.6v2.2c0.2-0.2,0.4-0.4,0.6-0.5c0.3-0.1,0.6-0.2,0.8-0.2c0.9,0,1.3,0.4,1.3,1.3V53.4z"
			/>
		<path class="st3" d="M177.3,48.6c-0.1,0-0.2,0-0.3-0.1c-0.1-0.1-0.1-0.2-0.1-0.3c0-0.1,0-0.2,0.1-0.3c0.1-0.1,0.2-0.1,0.3-0.1
			c0.1,0,0.2,0,0.3,0.1c0.1,0.1,0.1,0.2,0.1,0.3c0,0.1,0,0.2-0.1,0.3C177.5,48.6,177.4,48.6,177.3,48.6z M177.6,53.4H177v-4.2h0.6
			V53.4z"/>
		<path class="st3" d="M182.4,53.4h-0.6v-2.7c0-0.4-0.1-0.6-0.2-0.7c-0.2-0.1-0.4-0.2-0.7-0.2c-0.2,0-0.5,0.1-0.7,0.2
			c-0.2,0.1-0.4,0.3-0.5,0.5v3.1h-0.6v-4.2h0.6v0.6c0.2-0.2,0.4-0.4,0.6-0.5c0.3-0.1,0.6-0.2,0.8-0.2c0.9,0,1.3,0.4,1.3,1.3V53.4z"
			/>
		<path class="st3" d="M186.9,53.4h-0.6v-0.5c-0.4,0.4-0.8,0.6-1.4,0.6c-0.4,0-0.7-0.1-1-0.4c-0.3-0.2-0.4-0.6-0.4-1
			c0-0.4,0.1-0.8,0.4-1s0.6-0.4,1-0.4c0.6,0,1.1,0.2,1.4,0.6v-0.8c0-0.3-0.1-0.5-0.3-0.6c-0.2-0.2-0.5-0.2-0.8-0.2
			c-0.5,0-0.9,0.2-1.3,0.6l-0.3-0.4c0.4-0.5,1-0.7,1.7-0.7c0.5,0,0.9,0.1,1.2,0.3c0.3,0.2,0.4,0.6,0.4,1.1V53.4z M185.1,53
			c0.5,0,0.9-0.2,1.2-0.5v-0.8c-0.2-0.3-0.6-0.5-1.2-0.5c-0.3,0-0.5,0.1-0.7,0.3c-0.2,0.2-0.3,0.4-0.3,0.7c0,0.3,0.1,0.5,0.3,0.7
			C184.6,52.9,184.8,53,185.1,53z"/>
	</g>
	<g>
		<path class="st3" d="M169,82h-2.6v-5.8h2.6c0.5,0,0.9,0.1,1.2,0.4c0.3,0.3,0.4,0.6,0.4,1.1c0,0.3-0.1,0.6-0.3,0.9
			s-0.4,0.4-0.7,0.4c0.3,0,0.6,0.2,0.8,0.5c0.2,0.3,0.3,0.6,0.3,0.9c0,0.5-0.1,0.8-0.4,1.1C169.9,81.8,169.5,82,169,82z M168.8,78.7
			c0.3,0,0.6-0.1,0.7-0.3c0.2-0.2,0.3-0.4,0.3-0.7c0-0.3-0.1-0.5-0.3-0.7c-0.2-0.2-0.4-0.3-0.7-0.3h-1.7v1.9H168.8z M168.9,81.3
			c0.3,0,0.6-0.1,0.8-0.3c0.2-0.2,0.3-0.4,0.3-0.7c0-0.3-0.1-0.5-0.3-0.7c-0.2-0.2-0.5-0.3-0.8-0.3h-1.8v2H168.9z"/>
		<path class="st3" d="M175,82h-0.6v-0.5c-0.4,0.4-0.8,0.6-1.4,0.6c-0.4,0-0.7-0.1-1-0.4c-0.3-0.2-0.4-0.6-0.4-1
			c0-0.4,0.1-0.8,0.4-1c0.3-0.2,0.6-0.4,1-0.4c0.6,0,1.1,0.2,1.4,0.6v-0.8c0-0.3-0.1-0.5-0.3-0.6c-0.2-0.2-0.4-0.2-0.8-0.2
			c-0.5,0-0.9,0.2-1.3,0.6l-0.3-0.4c0.4-0.5,1-0.7,1.7-0.7c0.5,0,0.9,0.1,1.2,0.3c0.3,0.2,0.4,0.6,0.4,1.1V82z M173.2,81.6
			c0.5,0,0.9-0.2,1.2-0.5v-0.8c-0.2-0.3-0.6-0.5-1.2-0.5c-0.3,0-0.5,0.1-0.7,0.3c-0.2,0.2-0.3,0.4-0.3,0.7c0,0.3,0.1,0.5,0.3,0.7
			C172.7,81.5,172.9,81.6,173.2,81.6z"/>
		<path class="st3" d="M179.8,82h-0.6v-2.7c0-0.4-0.1-0.6-0.2-0.7c-0.2-0.1-0.4-0.2-0.7-0.2c-0.2,0-0.5,0.1-0.7,0.2
			c-0.2,0.1-0.4,0.3-0.5,0.5V82h-0.6v-4.2h0.6v0.6c0.2-0.2,0.4-0.4,0.6-0.5c0.3-0.1,0.6-0.2,0.8-0.2c0.9,0,1.3,0.4,1.3,1.3V82z"/>
		<path class="st3" d="M182.8,83.7c-0.4,0-0.7,0-0.9-0.1c-0.3-0.1-0.5-0.3-0.7-0.5l0.3-0.5c0.3,0.4,0.8,0.6,1.4,0.6
			c0.4,0,0.7-0.1,1-0.3c0.3-0.2,0.4-0.5,0.4-0.9v-0.6c-0.2,0.2-0.4,0.4-0.6,0.5c-0.2,0.1-0.5,0.2-0.8,0.2c-0.6,0-1-0.2-1.3-0.6
			c-0.3-0.4-0.5-0.9-0.5-1.6c0-0.7,0.2-1.2,0.5-1.6c0.3-0.4,0.8-0.6,1.3-0.6c0.6,0,1,0.2,1.4,0.7v-0.6h0.6v4.1
			c0,0.6-0.2,1.1-0.6,1.4C183.8,83.5,183.4,83.7,182.8,83.7z M182.9,81.4c0.2,0,0.5-0.1,0.7-0.2c0.2-0.1,0.4-0.3,0.5-0.5v-1.8
			c-0.1-0.2-0.3-0.4-0.5-0.5c-0.2-0.1-0.5-0.2-0.7-0.2c-0.4,0-0.7,0.1-1,0.4c-0.2,0.3-0.4,0.7-0.4,1.2c0,0.5,0.1,0.8,0.4,1.1
			C182.1,81.3,182.5,81.4,182.9,81.4z"/>
		<path class="st3" d="M186.7,82h-0.6v-5.8h0.6V82z"/>
		<path class="st3" d="M191.3,82h-0.6v-0.5c-0.4,0.4-0.8,0.6-1.4,0.6c-0.4,0-0.7-0.1-1-0.4c-0.3-0.2-0.4-0.6-0.4-1
			c0-0.4,0.1-0.8,0.4-1c0.3-0.2,0.6-0.4,1-0.4c0.6,0,1.1,0.2,1.4,0.6v-0.8c0-0.3-0.1-0.5-0.3-0.6c-0.2-0.2-0.4-0.2-0.8-0.2
			c-0.5,0-0.9,0.2-1.3,0.6l-0.3-0.4c0.4-0.5,1-0.7,1.7-0.7c0.5,0,0.9,0.1,1.2,0.3c0.3,0.2,0.4,0.6,0.4,1.1V82z M189.5,81.6
			c0.5,0,0.9-0.2,1.2-0.5v-0.8c-0.2-0.3-0.6-0.5-1.2-0.5c-0.3,0-0.5,0.1-0.7,0.3c-0.2,0.2-0.3,0.4-0.3,0.7c0,0.3,0.1,0.5,0.3,0.7
			C188.9,81.5,189.2,81.6,189.5,81.6z"/>
		<path class="st3" d="M196.3,82h-0.6v-0.6c-0.4,0.5-0.8,0.7-1.4,0.7c-0.6,0-1-0.2-1.3-0.6c-0.3-0.4-0.5-0.9-0.5-1.6
			c0-0.7,0.2-1.2,0.5-1.6s0.8-0.6,1.3-0.6c0.6,0,1,0.2,1.4,0.7v-2.2h0.6V82z M194.4,81.5c0.3,0,0.5-0.1,0.7-0.2
			c0.2-0.1,0.4-0.3,0.5-0.5v-1.9c-0.1-0.2-0.3-0.4-0.5-0.5c-0.2-0.1-0.5-0.2-0.7-0.2c-0.4,0-0.7,0.2-1,0.5c-0.2,0.3-0.4,0.7-0.4,1.2
			c0,0.5,0.1,0.9,0.4,1.2C193.6,81.3,193.9,81.5,194.4,81.5z"/>
		<path class="st3" d="M199.4,82.1c-0.6,0-1.1-0.2-1.5-0.6c-0.4-0.4-0.6-0.9-0.6-1.6c0-0.6,0.2-1.1,0.6-1.6c0.4-0.4,0.9-0.6,1.5-0.6
			c0.6,0,1.1,0.2,1.5,0.6c0.4,0.4,0.5,1,0.5,1.6v0.2H198c0,0.4,0.2,0.8,0.5,1c0.3,0.3,0.6,0.4,1.1,0.4c0.5,0,0.9-0.2,1.3-0.5
			l0.3,0.4C200.7,81.9,200.1,82.1,199.4,82.1z M200.7,79.6c0-0.4-0.1-0.7-0.4-1c-0.2-0.3-0.6-0.4-1-0.4c-0.4,0-0.7,0.1-1,0.4
			c-0.2,0.3-0.4,0.6-0.4,1H200.7z"/>
		<path class="st3" d="M203.7,82.1c-0.7,0-1.3-0.2-1.7-0.7l0.3-0.5c0.1,0.2,0.3,0.3,0.6,0.4s0.5,0.2,0.8,0.2c0.3,0,0.6-0.1,0.7-0.2
			c0.2-0.1,0.3-0.3,0.3-0.5c0-0.2-0.1-0.3-0.3-0.4c-0.2-0.1-0.4-0.2-0.6-0.2c-0.3-0.1-0.5-0.1-0.8-0.2c-0.3-0.1-0.5-0.2-0.6-0.4
			c-0.2-0.2-0.3-0.4-0.3-0.7c0-0.3,0.1-0.6,0.4-0.9c0.3-0.2,0.7-0.3,1.1-0.3c0.6,0,1.1,0.2,1.5,0.6l-0.3,0.4
			c-0.3-0.4-0.7-0.5-1.2-0.5c-0.3,0-0.5,0.1-0.7,0.2s-0.3,0.3-0.3,0.5c0,0.2,0.1,0.3,0.3,0.4c0.2,0.1,0.4,0.2,0.6,0.2
			c0.3,0.1,0.5,0.1,0.8,0.2c0.3,0.1,0.5,0.2,0.6,0.4c0.2,0.2,0.3,0.4,0.3,0.7c0,0.4-0.1,0.7-0.4,0.9
			C204.7,81.9,204.3,82.1,203.7,82.1z"/>
		<path class="st3" d="M209.9,82h-0.6v-2.8c0-0.3-0.1-0.6-0.2-0.7c-0.2-0.1-0.4-0.2-0.7-0.2c-0.2,0-0.5,0.1-0.7,0.2
			c-0.2,0.1-0.4,0.3-0.5,0.5V82h-0.6v-5.8h0.6v2.2c0.2-0.2,0.4-0.4,0.6-0.5c0.3-0.1,0.6-0.2,0.8-0.2c0.9,0,1.3,0.4,1.3,1.3V82z"/>
	</g>
	<g>
		<path class="st3" d="M170.7,111.7h-0.9l-2.2-2.6l-0.6,0.7v1.9h-0.7v-5.8h0.7v3l2.6-3h0.9l-2.4,2.7L170.7,111.7z"/>
		<path class="st3" d="M174.6,111.1c-0.4,0.4-0.9,0.6-1.5,0.6c-0.6,0-1.1-0.2-1.5-0.6c-0.4-0.4-0.6-0.9-0.6-1.6
			c0-0.6,0.2-1.1,0.6-1.6c0.4-0.4,0.9-0.6,1.5-0.6c0.6,0,1.1,0.2,1.5,0.6c0.4,0.4,0.6,0.9,0.6,1.6
			C175.1,110.2,175,110.7,174.6,111.1z M172.1,110.7c0.3,0.3,0.6,0.5,1,0.5c0.4,0,0.8-0.2,1-0.5s0.4-0.7,0.4-1.1
			c0-0.4-0.1-0.8-0.4-1.1c-0.2-0.3-0.6-0.5-1-0.5c-0.4,0-0.8,0.2-1,0.5c-0.3,0.3-0.4,0.7-0.4,1.1C171.7,110,171.8,110.4,172.1,110.7
			z"/>
		<path class="st3" d="M177.5,111.8c-0.7,0-1.3-0.2-1.7-0.7l0.3-0.5c0.1,0.2,0.3,0.3,0.6,0.4c0.3,0.1,0.5,0.2,0.8,0.2
			c0.3,0,0.6-0.1,0.7-0.2c0.2-0.1,0.3-0.3,0.3-0.5c0-0.2-0.1-0.3-0.3-0.4c-0.2-0.1-0.4-0.2-0.6-0.2c-0.3-0.1-0.5-0.1-0.8-0.2
			c-0.3-0.1-0.5-0.2-0.6-0.4c-0.2-0.2-0.3-0.4-0.3-0.7c0-0.3,0.1-0.6,0.4-0.9c0.3-0.2,0.7-0.3,1.1-0.3c0.6,0,1.1,0.2,1.5,0.6
			l-0.3,0.4c-0.3-0.4-0.7-0.5-1.2-0.5c-0.3,0-0.5,0.1-0.7,0.2c-0.2,0.1-0.3,0.3-0.3,0.5c0,0.2,0.1,0.3,0.3,0.4
			c0.2,0.1,0.4,0.2,0.6,0.2c0.3,0.1,0.5,0.1,0.8,0.2c0.3,0.1,0.5,0.2,0.6,0.4c0.2,0.2,0.3,0.4,0.3,0.7c0,0.4-0.1,0.7-0.4,0.9
			C178.4,111.7,178,111.8,177.5,111.8z"/>
		<path class="st3" d="M183.5,111.1c-0.4,0.4-0.9,0.6-1.5,0.6s-1.1-0.2-1.5-0.6c-0.4-0.4-0.6-0.9-0.6-1.6c0-0.6,0.2-1.1,0.6-1.6
			c0.4-0.4,0.9-0.6,1.5-0.6s1.1,0.2,1.5,0.6c0.4,0.4,0.6,0.9,0.6,1.6C184.1,110.2,183.9,110.7,183.5,111.1z M181,110.7
			c0.2,0.3,0.6,0.5,1,0.5c0.4,0,0.8-0.2,1-0.5c0.2-0.3,0.4-0.7,0.4-1.1c0-0.4-0.1-0.8-0.4-1.1c-0.2-0.3-0.6-0.5-1-0.5
			c-0.4,0-0.8,0.2-1,0.5c-0.3,0.3-0.4,0.7-0.4,1.1C180.7,110,180.8,110.4,181,110.7z"/>
		<path class="st3" d="M187,111.7h-0.7l-1.7-4.2h0.7l1.4,3.4l1.4-3.4h0.7L187,111.7z"/>
		<path class="st3" d="M192.7,111.1c-0.4,0.4-0.9,0.6-1.5,0.6c-0.6,0-1.1-0.2-1.5-0.6c-0.4-0.4-0.6-0.9-0.6-1.6
			c0-0.6,0.2-1.1,0.6-1.6c0.4-0.4,0.9-0.6,1.5-0.6c0.6,0,1.1,0.2,1.5,0.6c0.4,0.4,0.6,0.9,0.6,1.6
			C193.3,110.2,193.1,110.7,192.7,111.1z M190.2,110.7c0.3,0.3,0.6,0.5,1,0.5c0.4,0,0.8-0.2,1-0.5c0.2-0.3,0.4-0.7,0.4-1.1
			c0-0.4-0.1-0.8-0.4-1.1c-0.2-0.3-0.6-0.5-1-0.5c-0.4,0-0.8,0.2-1,0.5c-0.3,0.3-0.4,0.7-0.4,1.1C189.8,110,190,110.4,190.2,110.7z"
			/>
	</g>
	<g>
		<path class="st3" d="M11.4,25.2h-0.8l-0.5-1.3H7.2l-0.5,1.3H5.9l2.3-5.8h0.9L11.4,25.2z M9.9,23.3l-1.2-3.1l-1.2,3.1H9.9z"/>
		<path class="st3" d="M12.8,25.2h-0.6v-5.8h0.6V25.2z"/>
		<path class="st3" d="M14.7,25.2h-0.6v-5.8h0.6v2.2c0.4-0.5,0.8-0.7,1.4-0.7c0.5,0,1,0.2,1.3,0.6s0.5,0.9,0.5,1.6
			c0,0.7-0.2,1.2-0.5,1.6c-0.3,0.4-0.8,0.6-1.3,0.6c-0.6,0-1.1-0.2-1.4-0.7V25.2z M14.7,24.1c0.1,0.2,0.3,0.3,0.5,0.5
			c0.2,0.1,0.5,0.2,0.7,0.2c0.4,0,0.7-0.2,1-0.5c0.2-0.3,0.4-0.7,0.4-1.2S17.2,22.3,17,22c-0.2-0.3-0.6-0.5-1-0.5
			c-0.2,0-0.5,0.1-0.7,0.2c-0.2,0.1-0.4,0.3-0.5,0.5V24.1z"/>
		<path class="st3" d="M22.3,25.2h-0.6v-0.5c-0.4,0.4-0.8,0.6-1.4,0.6c-0.4,0-0.7-0.1-1-0.4c-0.3-0.2-0.4-0.6-0.4-1
			c0-0.4,0.1-0.8,0.4-1c0.3-0.2,0.6-0.4,1-0.4c0.6,0,1.1,0.2,1.4,0.6v-0.8c0-0.3-0.1-0.5-0.3-0.6c-0.2-0.2-0.4-0.2-0.8-0.2
			c-0.5,0-0.9,0.2-1.3,0.6L19,21.6c0.4-0.5,1-0.7,1.7-0.7c0.5,0,0.9,0.1,1.2,0.3c0.3,0.2,0.5,0.6,0.5,1.1V25.2z M20.5,24.8
			c0.5,0,0.9-0.2,1.2-0.5v-0.8C21.4,23.2,21,23,20.5,23c-0.3,0-0.5,0.1-0.7,0.3c-0.2,0.2-0.3,0.4-0.3,0.7c0,0.3,0.1,0.5,0.3,0.7
			C20,24.8,20.2,24.8,20.5,24.8z"/>
		<path class="st3" d="M27.1,25.2h-0.6v-2.7c0-0.4-0.1-0.6-0.2-0.7c-0.2-0.1-0.4-0.2-0.7-0.2c-0.2,0-0.5,0.1-0.7,0.2
			c-0.2,0.1-0.4,0.3-0.5,0.5v3.1h-0.6V21h0.6v0.6c0.2-0.2,0.4-0.4,0.6-0.5c0.3-0.1,0.6-0.2,0.8-0.2c0.9,0,1.3,0.5,1.3,1.3V25.2z"/>
		<path class="st3" d="M28.7,20.4c-0.1,0-0.2,0-0.3-0.1c-0.1-0.1-0.1-0.2-0.1-0.3c0-0.1,0-0.2,0.1-0.3c0.1-0.1,0.2-0.1,0.3-0.1
			c0.1,0,0.2,0,0.3,0.1c0.1,0.1,0.1,0.2,0.1,0.3c0,0.1,0,0.2-0.1,0.3C28.9,20.4,28.8,20.4,28.7,20.4z M29,25.2h-0.6V21H29V25.2z"/>
		<path class="st3" d="M33.6,25.2H33v-0.5c-0.4,0.4-0.8,0.6-1.4,0.6c-0.4,0-0.7-0.1-1-0.4c-0.3-0.2-0.4-0.6-0.4-1
			c0-0.4,0.1-0.8,0.4-1c0.3-0.2,0.6-0.4,1-0.4c0.6,0,1.1,0.2,1.4,0.6v-0.8c0-0.3-0.1-0.5-0.3-0.6c-0.2-0.2-0.5-0.2-0.8-0.2
			c-0.5,0-0.9,0.2-1.3,0.6l-0.3-0.4c0.4-0.5,1-0.7,1.7-0.7c0.5,0,0.9,0.1,1.2,0.3c0.3,0.2,0.4,0.6,0.4,1.1V25.2z M31.8,24.8
			c0.5,0,0.9-0.2,1.2-0.5v-0.8c-0.2-0.3-0.6-0.5-1.2-0.5c-0.3,0-0.5,0.1-0.7,0.3c-0.2,0.2-0.3,0.4-0.3,0.7c0,0.3,0.1,0.5,0.3,0.7
			C31.3,24.8,31.5,24.8,31.8,24.8z"/>
	</g>
	<g>
		<path class="st3" d="M95.5,7.8h-0.7V2h0.7V7.8z"/>
		<path class="st3" d="M97.5,7.8h-0.6V3.6h0.6v0.7c0.4-0.5,0.9-0.8,1.4-0.8v0.7c-0.1,0-0.2,0-0.3,0c-0.2,0-0.4,0.1-0.6,0.2
			c-0.2,0.1-0.4,0.3-0.5,0.5V7.8z"/>
		<path class="st3" d="M103,7.8h-0.6V7.3c-0.4,0.4-0.8,0.6-1.4,0.6c-0.4,0-0.7-0.1-1-0.4c-0.3-0.2-0.4-0.6-0.4-1
			c0-0.4,0.1-0.8,0.4-1c0.3-0.2,0.6-0.4,1-0.4c0.6,0,1.1,0.2,1.4,0.6V4.9c0-0.3-0.1-0.5-0.3-0.6c-0.2-0.2-0.4-0.2-0.8-0.2
			c-0.5,0-0.9,0.2-1.3,0.6l-0.3-0.4c0.4-0.5,1-0.7,1.7-0.7c0.5,0,0.9,0.1,1.2,0.3c0.3,0.2,0.5,0.6,0.5,1.1V7.8z M101.2,7.4
			c0.5,0,0.9-0.2,1.2-0.5V6.1c-0.2-0.3-0.6-0.5-1.2-0.5c-0.3,0-0.5,0.1-0.7,0.3c-0.2,0.2-0.3,0.4-0.3,0.7c0,0.3,0.1,0.5,0.3,0.7
			C100.6,7.3,100.9,7.4,101.2,7.4z"/>
		<path class="st3" d="M105.9,7.9c-0.6,0-1-0.2-1.3-0.6c-0.3-0.4-0.5-0.9-0.5-1.6c0-0.7,0.2-1.2,0.5-1.6c0.3-0.4,0.8-0.6,1.3-0.6
			c0.3,0,0.6,0.1,0.8,0.2c0.2,0.1,0.4,0.3,0.6,0.5V3.6h0.6v5.8h-0.6V7.1C106.9,7.6,106.4,7.9,105.9,7.9z M106,7.3
			c0.3,0,0.5-0.1,0.7-0.2c0.2-0.1,0.4-0.3,0.5-0.5V4.7c-0.1-0.2-0.3-0.3-0.5-0.5c-0.2-0.1-0.5-0.2-0.7-0.2c-0.4,0-0.7,0.2-1,0.5
			c-0.2,0.3-0.4,0.7-0.4,1.2c0,0.5,0.1,0.9,0.4,1.2C105.3,7.1,105.6,7.3,106,7.3z"/>
	</g>
	<g>
		<path class="st3" d="M18.2,137.7c-0.9,0-1.7-0.3-2.2-0.9l0.4-0.5c0.5,0.5,1.1,0.8,1.8,0.8c0.5,0,0.8-0.1,1-0.3
			c0.2-0.2,0.3-0.4,0.3-0.7c0-0.2-0.1-0.4-0.2-0.5c-0.1-0.1-0.3-0.2-0.5-0.3c-0.2-0.1-0.4-0.1-0.7-0.2c-0.2-0.1-0.5-0.1-0.7-0.2
			c-0.2-0.1-0.5-0.2-0.7-0.3c-0.2-0.1-0.4-0.3-0.5-0.5c-0.1-0.2-0.2-0.4-0.2-0.7c0-0.5,0.2-0.9,0.6-1.2c0.4-0.3,0.8-0.4,1.4-0.4
			c0.9,0,1.5,0.3,2.1,0.8l-0.4,0.5c-0.4-0.5-1-0.7-1.7-0.7c-0.3,0-0.6,0.1-0.9,0.3c-0.2,0.2-0.3,0.4-0.3,0.7c0,0.2,0.1,0.4,0.3,0.5
			c0.2,0.1,0.4,0.2,0.6,0.3c0.2,0.1,0.5,0.1,0.8,0.2c0.3,0.1,0.6,0.2,0.8,0.3c0.3,0.1,0.5,0.3,0.6,0.5c0.2,0.2,0.3,0.5,0.3,0.9
			c0,0.5-0.2,0.9-0.5,1.2C19.4,137.6,18.9,137.7,18.2,137.7z"/>
		<path class="st3" d="M21.1,139.3l0.1-0.6c0.1,0,0.2,0.1,0.4,0.1c0.2,0,0.3,0,0.4-0.1c0.1-0.1,0.2-0.2,0.3-0.3l0.3-0.6l-1.7-4.2
			h0.7l1.4,3.4l1.4-3.4h0.7l-2.1,5c-0.2,0.6-0.6,0.8-1.2,0.8C21.4,139.3,21.2,139.3,21.1,139.3z"/>
		<path class="st3" d="M26.2,137.6h-0.6v-4.2h0.6v0.7c0.4-0.5,0.9-0.8,1.4-0.8v0.7c-0.1,0-0.2,0-0.3,0c-0.2,0-0.4,0.1-0.6,0.2
			c-0.2,0.1-0.4,0.3-0.5,0.5V137.6z"/>
		<path class="st3" d="M28.7,132.9c-0.1,0-0.2,0-0.3-0.1c-0.1-0.1-0.1-0.2-0.1-0.3c0-0.1,0-0.2,0.1-0.3c0.1-0.1,0.2-0.1,0.3-0.1
			c0.1,0,0.2,0,0.3,0.1c0.1,0.1,0.1,0.2,0.1,0.3c0,0.1,0,0.2-0.1,0.3C28.9,132.8,28.8,132.9,28.7,132.9z M29,137.6h-0.6v-4.2H29
			V137.6z"/>
		<path class="st3" d="M33.6,137.6H33v-0.5c-0.4,0.4-0.8,0.6-1.4,0.6c-0.4,0-0.7-0.1-1-0.4c-0.3-0.2-0.4-0.6-0.4-1
			c0-0.4,0.1-0.8,0.4-1c0.3-0.2,0.6-0.4,1-0.4c0.6,0,1.1,0.2,1.4,0.6v-0.8c0-0.3-0.1-0.5-0.3-0.6c-0.2-0.2-0.4-0.2-0.8-0.2
			c-0.5,0-0.9,0.2-1.3,0.6l-0.3-0.4c0.4-0.5,1-0.7,1.7-0.7c0.5,0,0.9,0.1,1.2,0.3c0.3,0.2,0.5,0.6,0.5,1.1V137.6z M31.8,137.3
			c0.5,0,0.9-0.2,1.2-0.5V136c-0.2-0.3-0.6-0.5-1.2-0.5c-0.3,0-0.5,0.1-0.7,0.3c-0.2,0.2-0.3,0.4-0.3,0.7c0,0.3,0.1,0.5,0.3,0.7
			C31.3,137.2,31.5,137.3,31.8,137.3z"/>
	</g>
	<g>
		<path class="st3" d="M12.7,49.3c-0.9,0-1.7-0.3-2.2-0.9l0.4-0.5c0.5,0.5,1.1,0.8,1.8,0.8c0.5,0,0.8-0.1,1-0.3
			c0.2-0.2,0.3-0.4,0.3-0.7c0-0.2-0.1-0.4-0.2-0.5c-0.1-0.1-0.3-0.2-0.5-0.3c-0.2-0.1-0.4-0.1-0.7-0.2c-0.2-0.1-0.5-0.1-0.7-0.2
			c-0.2-0.1-0.5-0.2-0.7-0.3c-0.2-0.1-0.4-0.3-0.5-0.5c-0.1-0.2-0.2-0.4-0.2-0.7c0-0.5,0.2-0.9,0.6-1.2c0.4-0.3,0.8-0.4,1.4-0.4
			c0.9,0,1.5,0.3,2.1,0.8l-0.4,0.5c-0.4-0.5-1-0.7-1.7-0.7c-0.3,0-0.6,0.1-0.9,0.3c-0.2,0.2-0.3,0.4-0.3,0.7c0,0.2,0.1,0.4,0.3,0.5
			c0.2,0.1,0.4,0.2,0.6,0.3c0.2,0.1,0.5,0.1,0.8,0.2c0.3,0.1,0.6,0.2,0.8,0.3c0.3,0.1,0.5,0.3,0.6,0.5c0.2,0.2,0.3,0.5,0.3,0.9
			c0,0.5-0.2,0.9-0.5,1.2C13.9,49.1,13.4,49.3,12.7,49.3z"/>
		<path class="st3" d="M19.3,49.2h-0.6v-0.6c-0.2,0.2-0.4,0.4-0.7,0.5c-0.3,0.1-0.5,0.2-0.8,0.2c-0.9,0-1.3-0.4-1.3-1.3v-3h0.6v2.8
			c0,0.3,0.1,0.6,0.2,0.7c0.2,0.1,0.4,0.2,0.7,0.2c0.2,0,0.5-0.1,0.7-0.2c0.2-0.1,0.4-0.3,0.5-0.4V45h0.6V49.2z"/>
		<path class="st3" d="M24.3,49.2h-0.6v-0.6c-0.4,0.5-0.8,0.7-1.4,0.7c-0.6,0-1-0.2-1.3-0.6c-0.3-0.4-0.5-0.9-0.5-1.6
			c0-0.7,0.2-1.2,0.5-1.6c0.3-0.4,0.8-0.6,1.3-0.6c0.6,0,1,0.2,1.4,0.7v-2.2h0.6V49.2z M22.4,48.7c0.3,0,0.5-0.1,0.7-0.2
			c0.2-0.1,0.4-0.3,0.5-0.5v-1.9c-0.1-0.2-0.3-0.4-0.5-0.5c-0.2-0.1-0.5-0.2-0.7-0.2c-0.4,0-0.7,0.2-1,0.5c-0.2,0.3-0.4,0.7-0.4,1.2
			s0.1,0.9,0.4,1.2C21.6,48.5,22,48.7,22.4,48.7z"/>
		<path class="st3" d="M28.8,49.2h-0.6v-0.5c-0.4,0.4-0.8,0.6-1.4,0.6c-0.4,0-0.7-0.1-1-0.4c-0.3-0.2-0.4-0.6-0.4-1
			c0-0.4,0.1-0.8,0.4-1s0.6-0.4,1-0.4c0.6,0,1.1,0.2,1.4,0.6v-0.8c0-0.3-0.1-0.5-0.3-0.6c-0.2-0.2-0.4-0.2-0.8-0.2
			c-0.5,0-0.9,0.2-1.3,0.6l-0.3-0.4c0.4-0.5,1-0.7,1.7-0.7c0.5,0,0.9,0.1,1.2,0.3c0.3,0.2,0.5,0.6,0.5,1.1V49.2z M27,48.8
			c0.5,0,0.9-0.2,1.2-0.5v-0.8C27.9,47.1,27.6,47,27,47c-0.3,0-0.5,0.1-0.7,0.3c-0.2,0.2-0.3,0.4-0.3,0.7c0,0.3,0.1,0.5,0.3,0.7
			C26.5,48.7,26.7,48.8,27,48.8z"/>
		<path class="st3" d="M33.6,49.2H33v-2.7c0-0.4-0.1-0.6-0.2-0.7c-0.2-0.1-0.4-0.2-0.7-0.2c-0.2,0-0.5,0.1-0.7,0.2
			c-0.2,0.1-0.4,0.3-0.5,0.5v3.1h-0.6V45h0.6v0.6c0.2-0.2,0.4-0.4,0.6-0.5c0.3-0.1,0.6-0.2,0.8-0.2c0.9,0,1.3,0.4,1.3,1.3V49.2z"/>
	</g>
	<g>
		<path class="st3" d="M22.6,75.4h-0.7v-2.6h-3.4v2.6h-0.7v-5.8h0.7v2.5h3.4v-2.5h0.7V75.4z"/>
		<path class="st3" d="M27.2,75.4h-0.6V75c-0.4,0.4-0.8,0.6-1.4,0.6c-0.4,0-0.7-0.1-1-0.4c-0.3-0.2-0.4-0.6-0.4-1
			c0-0.4,0.1-0.8,0.4-1c0.3-0.2,0.6-0.4,1-0.4c0.6,0,1.1,0.2,1.4,0.6v-0.8c0-0.3-0.1-0.5-0.3-0.6c-0.2-0.2-0.4-0.2-0.8-0.2
			c-0.5,0-0.9,0.2-1.3,0.6l-0.3-0.4c0.4-0.5,1-0.7,1.7-0.7c0.5,0,0.9,0.1,1.2,0.3c0.3,0.2,0.4,0.6,0.4,1.1V75.4z M25.4,75.1
			c0.5,0,0.9-0.2,1.2-0.5v-0.8c-0.2-0.3-0.6-0.5-1.2-0.5c-0.3,0-0.5,0.1-0.7,0.3c-0.2,0.2-0.3,0.4-0.3,0.7c0,0.3,0.1,0.5,0.3,0.7
			S25.1,75.1,25.4,75.1z"/>
		<path class="st3" d="M28.8,70.7c-0.1,0-0.2,0-0.3-0.1s-0.1-0.2-0.1-0.3s0-0.2,0.1-0.3s0.2-0.1,0.3-0.1c0.1,0,0.2,0,0.3,0.1
			s0.1,0.2,0.1,0.3s0,0.2-0.1,0.3S28.9,70.7,28.8,70.7z M29.1,75.4h-0.6v-4.2h0.6V75.4z"/>
		<path class="st3" d="M31.5,75.5c-0.3,0-0.5-0.1-0.7-0.3c-0.2-0.2-0.2-0.4-0.2-0.7v-2.7h-0.7v-0.6h0.7v-1.1h0.6v1.1H32v0.6h-0.8
			v2.6c0,0.2,0,0.3,0.1,0.4c0.1,0.1,0.2,0.1,0.3,0.1c0.2,0,0.3-0.1,0.4-0.2l0.2,0.5C32.1,75.5,31.8,75.5,31.5,75.5z"/>
		<path class="st3" d="M33.3,70.7c-0.1,0-0.2,0-0.3-0.1c-0.1-0.1-0.1-0.2-0.1-0.3s0-0.2,0.1-0.3c0.1-0.1,0.2-0.1,0.3-0.1
			c0.1,0,0.2,0,0.3,0.1c0.1,0.1,0.1,0.2,0.1,0.3s0,0.2-0.1,0.3C33.5,70.6,33.4,70.7,33.3,70.7z M33.6,75.4H33v-4.2h0.6V75.4z"/>
	</g>
	<g>
		<path class="st3" d="M19.7,104.9h-2v-5.8h2c0.9,0,1.6,0.3,2.1,0.8c0.5,0.5,0.8,1.2,0.8,2.1c0,0.8-0.3,1.5-0.8,2.1
			C21.3,104.6,20.6,104.9,19.7,104.9z M19.7,104.2c0.7,0,1.2-0.2,1.6-0.6c0.4-0.4,0.6-1,0.6-1.6c0-0.6-0.2-1.2-0.6-1.6
			c-0.4-0.4-0.9-0.6-1.6-0.6h-1.3v4.5H19.7z"/>
		<path class="st3" d="M28,104.9h-0.8l-1.5-2.3h-1.1v2.3h-0.7v-5.8h2.3c0.5,0,1,0.2,1.3,0.5c0.3,0.3,0.5,0.7,0.5,1.3
			c0,0.5-0.1,0.9-0.4,1.2c-0.3,0.3-0.6,0.5-1.1,0.5L28,104.9z M26,101.9c0.3,0,0.6-0.1,0.8-0.3c0.2-0.2,0.3-0.5,0.3-0.8
			c0-0.3-0.1-0.6-0.3-0.8s-0.5-0.3-0.8-0.3h-1.5v2.2H26z"/>
		<path class="st3" d="M31.8,105c-0.8,0-1.5-0.3-2.1-0.8c-0.6-0.6-0.9-1.3-0.9-2.1c0-0.9,0.3-1.6,0.9-2.1c0.6-0.6,1.3-0.8,2.1-0.8
			c0.9,0,1.7,0.4,2.2,1.1l-0.6,0.3c-0.2-0.2-0.4-0.4-0.7-0.6c-0.3-0.2-0.6-0.2-0.9-0.2c-0.6,0-1.2,0.2-1.6,0.7
			c-0.4,0.4-0.6,1-0.6,1.7c0,0.7,0.2,1.2,0.6,1.7c0.4,0.4,1,0.7,1.6,0.7c0.3,0,0.6-0.1,0.9-0.2c0.3-0.2,0.5-0.4,0.7-0.6l0.6,0.3
			C33.4,104.6,32.7,105,31.8,105z"/>
	</g>
	<g>
		<path class="st0" d="M171.8,38.3H166v-1.1c1.7-1.3,2.8-2.2,3.4-2.8c0.6-0.6,0.9-1.2,0.9-1.7c0-0.4-0.1-0.7-0.4-0.9
			c-0.3-0.2-0.6-0.3-1-0.3c-0.9,0-1.6,0.3-2.2,1l-0.8-0.9c0.3-0.4,0.8-0.7,1.3-1c0.5-0.2,1.1-0.3,1.7-0.3c0.8,0,1.5,0.2,2.1,0.7
			c0.6,0.4,0.8,1,0.8,1.8c0,0.7-0.3,1.4-0.9,2.1c-0.6,0.7-1.5,1.5-2.6,2.4h3.6V38.3z"/>
		<path class="st0" d="M178.1,38.3h-1.4v-1.8h-3.8v-1.1l3.3-5.1h1.9v5h1.1v1.2h-1.1V38.3z M176.7,35.2v-3.7l-2.4,3.7H176.7z"/>
		<path class="st0" d="M183.1,38.4c-1.3,0-2.3-0.4-3-1.2l0.8-1c0.6,0.6,1.3,0.9,2.2,0.9c0.5,0,0.9-0.1,1.2-0.4
			c0.3-0.3,0.5-0.6,0.5-1c0-0.4-0.1-0.8-0.4-1c-0.3-0.3-0.7-0.4-1.2-0.4c-0.7,0-1.3,0.2-1.8,0.7l-1-0.3v-4.5h5.2v1.2h-3.8v2.3
			c0.5-0.5,1.1-0.7,1.8-0.7c0.7,0,1.3,0.2,1.8,0.7c0.5,0.5,0.8,1.1,0.8,1.9c0,0.8-0.3,1.5-0.8,2C184.8,38.2,184,38.4,183.1,38.4z"/>
	</g>
	<g>
		<path class="st0" d="M168.7,64.2c-0.7,0-1.3-0.1-1.8-0.4c-0.5-0.2-0.9-0.6-1.2-0.9l0.8-0.9c0.3,0.3,0.6,0.5,1,0.7
			c0.4,0.2,0.8,0.3,1.2,0.3c0.5,0,0.9-0.1,1.2-0.3c0.3-0.2,0.4-0.5,0.4-0.9c0-0.8-0.6-1.1-1.8-1.1c-0.5,0-0.8,0-0.9,0v-1.3
			c0.1,0,0.4,0,0.9,0c0.5,0,0.9-0.1,1.2-0.3c0.3-0.2,0.5-0.4,0.5-0.8c0-0.4-0.2-0.6-0.5-0.8c-0.3-0.2-0.7-0.3-1.2-0.3
			c-0.8,0-1.5,0.3-2.1,0.9l-0.7-0.9c0.7-0.8,1.7-1.3,2.9-1.3c0.9,0,1.6,0.2,2.1,0.6c0.5,0.4,0.8,0.9,0.8,1.6c0,0.5-0.2,0.9-0.5,1.2
			c-0.3,0.3-0.8,0.5-1.2,0.6c0.5,0,0.9,0.2,1.3,0.6c0.4,0.3,0.6,0.8,0.6,1.4c0,0.7-0.3,1.2-0.8,1.7
			C170.3,63.9,169.6,64.2,168.7,64.2z"/>
		<path class="st0" d="M177.4,63.8c-0.4,0.2-0.9,0.4-1.4,0.4c-0.5,0-1-0.1-1.4-0.4c-0.4-0.2-0.8-0.6-1-1c-0.2-0.4-0.4-0.8-0.6-1.3
			c-0.1-0.5-0.2-1-0.2-1.5c0-0.5,0.1-1,0.2-1.5c0.1-0.5,0.3-0.9,0.6-1.3c0.2-0.4,0.6-0.7,1-1c0.4-0.2,0.9-0.4,1.4-0.4
			c0.5,0,1,0.1,1.4,0.4c0.4,0.2,0.8,0.6,1,1c0.2,0.4,0.4,0.8,0.6,1.3c0.1,0.5,0.2,1,0.2,1.5c0,0.5-0.1,1-0.2,1.5
			c-0.1,0.5-0.3,0.9-0.6,1.3C178.2,63.2,177.8,63.6,177.4,63.8z M174.6,62.1c0.3,0.5,0.7,0.8,1.3,0.8s1.1-0.3,1.3-0.8
			c0.3-0.5,0.4-1.2,0.4-2.1c0-0.5-0.1-1-0.2-1.4c-0.1-0.4-0.3-0.8-0.6-1c-0.3-0.3-0.6-0.4-1-0.4c-0.4,0-0.8,0.1-1,0.4
			c-0.3,0.3-0.5,0.6-0.6,1c-0.1,0.4-0.2,0.9-0.2,1.4C174.2,60.8,174.3,61.5,174.6,62.1z"/>
		<path class="st0" d="M183.3,64.2c-1.3,0-2.3-0.4-3-1.2l0.8-1c0.6,0.6,1.3,0.9,2.2,0.9c0.5,0,0.9-0.1,1.2-0.4
			c0.3-0.3,0.5-0.6,0.5-1c0-0.4-0.1-0.8-0.4-1s-0.7-0.4-1.2-0.4c-0.7,0-1.3,0.2-1.8,0.7l-1-0.3V56h5.2v1.2H182v2.3
			c0.5-0.5,1.1-0.7,1.8-0.7c0.7,0,1.3,0.2,1.8,0.7c0.5,0.5,0.8,1.1,0.8,1.9c0,0.8-0.3,1.5-0.8,2C185,63.9,184.2,64.2,183.3,64.2z"/>
	</g>
	<g>
		<path class="st0" d="M171.8,93.2H166v-1.1c1.7-1.3,2.8-2.2,3.4-2.8s0.9-1.2,0.9-1.7c0-0.4-0.1-0.7-0.4-0.9c-0.3-0.2-0.6-0.3-1-0.3
			c-0.9,0-1.6,0.3-2.2,1l-0.8-0.9c0.3-0.4,0.8-0.7,1.3-1c0.5-0.2,1.1-0.3,1.7-0.3c0.8,0,1.5,0.2,2.1,0.7c0.6,0.4,0.8,1,0.8,1.8
			c0,0.7-0.3,1.4-0.9,2.1c-0.6,0.7-1.5,1.5-2.6,2.4h3.6V93.2z"/>
		<path class="st0" d="M175.8,93.3c-0.7,0-1.3-0.1-1.8-0.4c-0.5-0.2-0.9-0.6-1.2-0.9l0.8-0.9c0.3,0.3,0.6,0.5,1,0.7
			c0.4,0.2,0.8,0.3,1.2,0.3c0.5,0,0.9-0.1,1.2-0.3c0.3-0.2,0.4-0.5,0.4-0.9c0-0.8-0.6-1.1-1.8-1.1c-0.5,0-0.8,0-0.9,0v-1.3
			c0.1,0,0.4,0,0.9,0c0.5,0,0.9-0.1,1.2-0.3c0.3-0.2,0.5-0.4,0.5-0.8c0-0.4-0.2-0.6-0.5-0.8s-0.7-0.3-1.2-0.3
			c-0.8,0-1.5,0.3-2.1,0.9l-0.7-0.9c0.7-0.8,1.7-1.3,2.9-1.3c0.9,0,1.6,0.2,2.1,0.6c0.5,0.4,0.8,0.9,0.8,1.6c0,0.5-0.2,0.9-0.5,1.2
			c-0.3,0.3-0.8,0.5-1.2,0.6c0.5,0,0.9,0.2,1.3,0.6c0.4,0.3,0.6,0.8,0.6,1.4c0,0.7-0.3,1.3-0.8,1.7
			C177.5,93.1,176.7,93.3,175.8,93.3z"/>
		<path class="st0" d="M183.1,93.3c-1.3,0-2.3-0.4-3-1.2l0.8-1c0.6,0.6,1.3,0.9,2.2,0.9c0.5,0,0.9-0.1,1.2-0.4
			c0.3-0.3,0.5-0.6,0.5-1c0-0.4-0.1-0.8-0.4-1c-0.3-0.3-0.7-0.4-1.2-0.4c-0.7,0-1.3,0.2-1.8,0.7l-1-0.3v-4.5h5.3v1.2h-3.8v2.3
			c0.5-0.5,1.1-0.7,1.8-0.7c0.7,0,1.3,0.2,1.8,0.7c0.5,0.5,0.8,1.1,0.8,1.9c0,0.8-0.3,1.5-0.8,2C184.7,93.1,184,93.3,183.1,93.3z"/>
	</g>
	<g>
		<path class="st0" d="M17.5,150.5H16l3-6.8h-4.2v-1.2h5.8v1L17.5,150.5z"/>
		<path class="st0" d="M23.9,150.5h-1.5l3-6.8h-4.2v-1.2H27v1L23.9,150.5z"/>
		<path class="st0" d="M30.9,150.7c-1.3,0-2.3-0.4-3-1.2l0.8-1c0.6,0.6,1.3,0.9,2.2,0.9c0.5,0,0.9-0.1,1.2-0.4s0.5-0.6,0.5-1
			c0-0.4-0.1-0.8-0.4-1c-0.3-0.3-0.7-0.4-1.2-0.4c-0.7,0-1.3,0.2-1.8,0.7l-1-0.3v-4.5h5.2v1.2h-3.8v2.3c0.5-0.5,1.1-0.7,1.8-0.7
			c0.7,0,1.3,0.2,1.8,0.7c0.5,0.5,0.8,1.1,0.8,1.9c0,0.8-0.3,1.5-0.8,2C32.6,150.4,31.8,150.7,30.9,150.7z"/>
	</g>
	<g>
		<path class="st0" d="M16.6,116.5c-0.7,0-1.3-0.1-1.8-0.4c-0.5-0.2-0.9-0.6-1.2-0.9l0.8-0.9c0.3,0.3,0.6,0.5,1,0.7
			c0.4,0.2,0.8,0.3,1.2,0.3c0.5,0,0.9-0.1,1.2-0.3c0.3-0.2,0.4-0.5,0.4-0.9c0-0.8-0.6-1.1-1.8-1.1c-0.5,0-0.8,0-0.9,0v-1.3
			c0.1,0,0.4,0,0.9,0c0.5,0,0.9-0.1,1.2-0.3c0.3-0.2,0.5-0.4,0.5-0.8c0-0.4-0.2-0.6-0.5-0.8c-0.3-0.2-0.7-0.3-1.2-0.3
			c-0.8,0-1.5,0.3-2.1,0.9l-0.7-0.9c0.7-0.8,1.7-1.3,2.9-1.3c0.9,0,1.6,0.2,2.1,0.6c0.5,0.4,0.8,0.9,0.8,1.6c0,0.5-0.2,0.9-0.5,1.2
			c-0.3,0.3-0.8,0.5-1.2,0.6c0.5,0,0.9,0.2,1.3,0.6c0.4,0.3,0.6,0.8,0.6,1.4c0,0.7-0.3,1.3-0.8,1.7
			C18.3,116.3,17.5,116.5,16.6,116.5z"/>
		<path class="st0" d="M23.5,116.5c-0.7,0-1.3-0.1-1.8-0.4c-0.5-0.2-0.9-0.6-1.2-0.9l0.8-0.9c0.3,0.3,0.6,0.5,1,0.7
			c0.4,0.2,0.8,0.3,1.2,0.3c0.5,0,0.9-0.1,1.2-0.3c0.3-0.2,0.4-0.5,0.4-0.9c0-0.8-0.6-1.1-1.8-1.1c-0.5,0-0.8,0-0.9,0v-1.3
			c0.1,0,0.4,0,0.9,0c0.5,0,0.9-0.1,1.2-0.3c0.3-0.2,0.5-0.4,0.5-0.8c0-0.4-0.2-0.6-0.5-0.8c-0.3-0.2-0.7-0.3-1.2-0.3
			c-0.8,0-1.5,0.3-2.1,0.9l-0.7-0.9c0.7-0.8,1.7-1.3,2.9-1.3c0.9,0,1.6,0.2,2.1,0.6c0.5,0.4,0.8,0.9,0.8,1.6c0,0.5-0.2,0.9-0.5,1.2
			c-0.3,0.3-0.8,0.5-1.2,0.6c0.5,0,0.9,0.2,1.3,0.6c0.4,0.3,0.6,0.8,0.6,1.4c0,0.7-0.3,1.3-0.8,1.7
			C25.2,116.3,24.4,116.5,23.5,116.5z"/>
		<path class="st0" d="M32.2,116.1c-0.4,0.2-0.9,0.4-1.4,0.4c-0.5,0-1-0.1-1.4-0.4c-0.4-0.2-0.8-0.6-1-1c-0.2-0.4-0.4-0.8-0.6-1.3
			c-0.1-0.5-0.2-1-0.2-1.5c0-0.5,0.1-1,0.2-1.5c0.1-0.5,0.3-0.9,0.6-1.3c0.2-0.4,0.6-0.7,1-1c0.4-0.2,0.9-0.4,1.4-0.4
			c0.5,0,1,0.1,1.4,0.4c0.4,0.2,0.8,0.6,1,1c0.2,0.4,0.4,0.8,0.6,1.3c0.1,0.5,0.2,1,0.2,1.5c0,0.5-0.1,1-0.2,1.5
			c-0.1,0.5-0.3,0.9-0.6,1.3C33,115.6,32.7,115.9,32.2,116.1z M29.4,114.4c0.3,0.5,0.7,0.8,1.3,0.8c0.6,0,1.1-0.3,1.3-0.8
			c0.3-0.5,0.4-1.2,0.4-2.1c0-0.5-0.1-1-0.2-1.4c-0.1-0.4-0.3-0.8-0.6-1c-0.3-0.3-0.6-0.4-1-0.4c-0.4,0-0.8,0.1-1,0.4
			c-0.3,0.3-0.5,0.6-0.6,1c-0.1,0.4-0.2,0.9-0.2,1.4C29,113.2,29.2,113.9,29.4,114.4z"/>
	</g>
	<g>
		<path class="st0" d="M16.8,86c-0.7,0-1.3-0.1-1.8-0.4c-0.5-0.2-0.9-0.6-1.2-0.9l0.8-0.9c0.3,0.3,0.6,0.5,1,0.7s0.8,0.3,1.2,0.3
			c0.5,0,0.9-0.1,1.2-0.3c0.3-0.2,0.4-0.5,0.4-0.9c0-0.8-0.6-1.1-1.8-1.1c-0.5,0-0.8,0-0.9,0v-1.3c0.1,0,0.4,0,0.9,0
			c0.5,0,0.9-0.1,1.2-0.3c0.3-0.2,0.5-0.4,0.5-0.8c0-0.4-0.2-0.6-0.5-0.8c-0.3-0.2-0.7-0.3-1.2-0.3c-0.8,0-1.5,0.3-2.1,0.9L13.9,79
			c0.7-0.8,1.7-1.3,2.9-1.3c0.9,0,1.6,0.2,2.1,0.6c0.5,0.4,0.8,0.9,0.8,1.6c0,0.5-0.2,0.9-0.5,1.2c-0.3,0.3-0.8,0.5-1.2,0.6
			c0.5,0,0.9,0.2,1.3,0.6c0.4,0.3,0.6,0.8,0.6,1.4c0,0.7-0.3,1.2-0.8,1.7C18.4,85.8,17.7,86,16.8,86z"/>
		<path class="st0" d="M23.7,86c-0.7,0-1.3-0.1-1.8-0.4c-0.5-0.2-0.9-0.6-1.2-0.9l0.8-0.9c0.3,0.3,0.6,0.5,1,0.7
			c0.4,0.2,0.8,0.3,1.2,0.3c0.5,0,0.9-0.1,1.2-0.3c0.3-0.2,0.4-0.5,0.4-0.9c0-0.8-0.6-1.1-1.8-1.1c-0.5,0-0.8,0-0.9,0v-1.3
			c0.1,0,0.4,0,0.9,0c0.5,0,0.9-0.1,1.2-0.3c0.3-0.2,0.5-0.4,0.5-0.8c0-0.4-0.2-0.6-0.5-0.8C24.4,79.1,24,79,23.6,79
			c-0.8,0-1.5,0.3-2.1,0.9L20.8,79c0.7-0.8,1.7-1.3,2.9-1.3c0.9,0,1.6,0.2,2.1,0.6c0.5,0.4,0.8,0.9,0.8,1.6c0,0.5-0.2,0.9-0.5,1.2
			c-0.3,0.3-0.8,0.5-1.2,0.6c0.5,0,0.9,0.2,1.3,0.6c0.4,0.3,0.6,0.8,0.6,1.4c0,0.7-0.3,1.2-0.8,1.7C25.3,85.8,24.6,86,23.7,86z"/>
		<path class="st0" d="M30.9,86c-1.3,0-2.3-0.4-3-1.2l0.8-1c0.6,0.6,1.3,0.9,2.2,0.9c0.5,0,0.9-0.1,1.2-0.4c0.3-0.3,0.5-0.6,0.5-1
			c0-0.4-0.1-0.8-0.4-1c-0.3-0.3-0.7-0.4-1.2-0.4c-0.7,0-1.3,0.2-1.8,0.7l-1-0.3v-4.5h5.2v1.2h-3.8v2.3c0.5-0.5,1.1-0.7,1.8-0.7
			c0.7,0,1.3,0.2,1.8,0.7c0.5,0.5,0.8,1.1,0.8,1.9c0,0.8-0.3,1.5-0.8,2C32.6,85.8,31.8,86,30.9,86z"/>
	</g>
	<g>
		<path class="st0" d="M16.5,61.3c-0.6,0-1.1-0.1-1.5-0.3c-0.4-0.2-0.8-0.5-1-0.9c-0.3-0.4-0.4-0.8-0.6-1.3c-0.1-0.5-0.2-1-0.2-1.6
			c0-1.2,0.3-2.2,0.9-3c0.6-0.8,1.5-1.2,2.6-1.2c0.9,0,1.7,0.3,2.3,0.9L18.3,55c-0.4-0.5-1-0.7-1.6-0.7c-0.6,0-1.2,0.3-1.5,0.8
			c-0.4,0.5-0.6,1.1-0.6,1.9c0,0.1,0,0.2,0,0.2c0.2-0.3,0.5-0.6,0.9-0.8s0.8-0.3,1.3-0.3c0.8,0,1.4,0.2,1.9,0.7
			c0.5,0.5,0.8,1.1,0.8,1.9c0,0.8-0.3,1.4-0.8,1.9C18.1,61.1,17.3,61.3,16.5,61.3z M16.4,60.1c0.5,0,0.9-0.1,1.2-0.4
			c0.3-0.3,0.4-0.6,0.4-1c0-0.5-0.2-0.8-0.5-1.1c-0.3-0.2-0.7-0.4-1.2-0.4c-0.3,0-0.7,0.1-1,0.3c-0.3,0.2-0.6,0.4-0.8,0.7
			c0,0.5,0.2,1,0.5,1.3C15.4,59.9,15.8,60.1,16.4,60.1z"/>
		<path class="st0" d="M23.5,61.3c-1.3,0-2.3-0.4-3-1.2l0.8-1c0.6,0.6,1.3,0.9,2.2,0.9c0.5,0,0.9-0.1,1.2-0.4c0.3-0.3,0.5-0.6,0.5-1
			c0-0.4-0.1-0.8-0.4-1s-0.7-0.4-1.2-0.4c-0.7,0-1.3,0.2-1.8,0.7l-1-0.3v-4.5h5.2v1.2h-3.8v2.3c0.5-0.5,1.1-0.7,1.8-0.7
			c0.7,0,1.3,0.2,1.8,0.7c0.5,0.5,0.8,1.1,0.8,1.9c0,0.8-0.3,1.5-0.8,2C25.2,61.1,24.4,61.3,23.5,61.3z"/>
		<path class="st0" d="M32.2,61c-0.4,0.2-0.9,0.4-1.4,0.4s-1-0.1-1.4-0.4c-0.4-0.2-0.8-0.6-1-1c-0.2-0.4-0.4-0.8-0.6-1.3
			c-0.1-0.5-0.2-1-0.2-1.5c0-0.5,0.1-1,0.2-1.5c0.1-0.5,0.3-0.9,0.6-1.3c0.2-0.4,0.6-0.7,1-1c0.4-0.2,0.9-0.4,1.4-0.4s1,0.1,1.4,0.4
			c0.4,0.2,0.8,0.6,1,1c0.2,0.4,0.4,0.8,0.6,1.3c0.1,0.5,0.2,1,0.2,1.5c0,0.5-0.1,1-0.2,1.5c-0.1,0.5-0.3,0.9-0.6,1.3
			C33,60.4,32.7,60.7,32.2,61z M29.4,59.3c0.3,0.5,0.7,0.8,1.3,0.8s1.1-0.3,1.3-0.8c0.3-0.5,0.4-1.2,0.4-2.1c0-0.5-0.1-1-0.2-1.4
			c-0.1-0.4-0.3-0.8-0.6-1c-0.3-0.3-0.6-0.4-1-0.4s-0.8,0.1-1,0.4c-0.3,0.3-0.5,0.6-0.6,1c-0.1,0.4-0.2,0.9-0.2,1.4
			C29,58,29.2,58.7,29.4,59.3z"/>
	</g>
	<g>
		<path class="st0" d="M16.5,37c-0.7,0-1.3-0.1-1.8-0.4c-0.5-0.2-0.9-0.6-1.2-0.9l0.8-0.9c0.3,0.3,0.6,0.5,1,0.7
			c0.4,0.2,0.8,0.3,1.2,0.3c0.5,0,0.9-0.1,1.2-0.3c0.3-0.2,0.4-0.5,0.4-0.9c0-0.8-0.6-1.1-1.8-1.1c-0.5,0-0.8,0-0.9,0v-1.3
			c0.1,0,0.4,0,0.9,0c0.5,0,0.9-0.1,1.2-0.3c0.3-0.2,0.5-0.4,0.5-0.8c0-0.4-0.2-0.6-0.5-0.8c-0.3-0.2-0.7-0.3-1.2-0.3
			c-0.8,0-1.5,0.3-2.1,0.9L13.6,30c0.7-0.8,1.7-1.3,2.9-1.3c0.9,0,1.6,0.2,2.1,0.6c0.5,0.4,0.8,0.9,0.8,1.6c0,0.5-0.2,0.9-0.5,1.2
			c-0.3,0.3-0.8,0.5-1.2,0.6c0.5,0,0.9,0.2,1.3,0.6c0.4,0.3,0.6,0.8,0.6,1.4c0,0.7-0.3,1.2-0.8,1.7C18.1,36.8,17.4,37,16.5,37z"/>
		<path class="st0" d="M23.2,37c-0.9,0-1.7-0.3-2.3-0.9l0.6-1.1c0.4,0.5,1,0.7,1.6,0.7c0.7,0,1.2-0.3,1.6-0.8
			c0.4-0.5,0.5-1.1,0.5-1.9v-0.2c-0.2,0.3-0.5,0.6-0.9,0.8S23.6,34,23.2,34c-0.8,0-1.4-0.2-1.9-0.7c-0.5-0.5-0.8-1.1-0.8-1.9
			c0-0.8,0.3-1.4,0.8-1.9c0.5-0.5,1.3-0.8,2.1-0.8c0.8,0,1.4,0.2,1.9,0.6s0.9,0.9,1.1,1.5c0.2,0.6,0.3,1.3,0.3,2.1
			c0,1.2-0.3,2.2-0.9,3C25.2,36.6,24.4,37,23.2,37z M23.6,32.8c0.3,0,0.7-0.1,1-0.3c0.3-0.2,0.6-0.4,0.8-0.7c0-0.5-0.2-0.9-0.5-1.3
			c-0.3-0.4-0.7-0.6-1.3-0.6c-0.5,0-0.9,0.1-1.2,0.4c-0.3,0.3-0.4,0.6-0.4,1c0,0.5,0.2,0.8,0.5,1.1C22.7,32.7,23.1,32.8,23.6,32.8z"
			/>
		<path class="st0" d="M30.9,37c-1.3,0-2.3-0.4-3-1.2l0.8-1c0.6,0.6,1.3,0.9,2.2,0.9c0.5,0,0.9-0.1,1.2-0.4s0.5-0.6,0.5-1
			c0-0.4-0.1-0.8-0.4-1c-0.3-0.3-0.7-0.4-1.2-0.4c-0.7,0-1.3,0.2-1.8,0.7l-1-0.3v-4.5h5.3v1.2h-3.8v2.3c0.5-0.5,1.1-0.7,1.8-0.7
			c0.7,0,1.3,0.2,1.8,0.7c0.5,0.5,0.8,1.1,0.8,1.9c0,0.8-0.3,1.5-0.8,2C32.6,36.8,31.8,37,30.9,37z"/>
	</g>
	<g>
		<path class="st0" d="M96.1,19.7h-1.4v-1.8h-3.8v-1.1l3.3-5.1h1.9v5h1.1v1.2h-1.1V19.7z M94.7,16.7V13l-2.4,3.7H94.7z"/>
		<path class="st0" d="M100.7,19.8c-0.9,0-1.7-0.3-2.3-0.9l0.6-1.1c0.4,0.5,1,0.7,1.6,0.7c0.7,0,1.2-0.3,1.6-0.8
			c0.4-0.5,0.5-1.1,0.5-1.9v-0.2c-0.2,0.3-0.5,0.6-0.9,0.8c-0.4,0.2-0.8,0.3-1.2,0.3c-0.8,0-1.4-0.2-1.9-0.7
			c-0.5-0.5-0.8-1.1-0.8-1.9c0-0.8,0.3-1.4,0.8-1.9c0.5-0.5,1.3-0.8,2.1-0.8c0.8,0,1.4,0.2,1.9,0.6c0.5,0.4,0.9,0.9,1.1,1.5
			c0.2,0.6,0.3,1.3,0.3,2.1c0,1.2-0.3,2.2-0.9,3C102.7,19.5,101.8,19.8,100.7,19.8z M101,15.6c0.3,0,0.7-0.1,1-0.3
			c0.3-0.2,0.6-0.4,0.8-0.7c0-0.5-0.2-0.9-0.5-1.3c-0.3-0.4-0.7-0.6-1.3-0.6c-0.5,0-0.9,0.1-1.2,0.4c-0.3,0.3-0.4,0.6-0.4,1
			c0,0.5,0.2,0.8,0.5,1.1C100.2,15.5,100.6,15.6,101,15.6z"/>
		<path class="st0" d="M109.9,19.5c-0.4,0.2-0.9,0.4-1.4,0.4c-0.5,0-1-0.1-1.4-0.4c-0.4-0.2-0.8-0.6-1-1c-0.2-0.4-0.4-0.8-0.6-1.3
			c-0.1-0.5-0.2-1-0.2-1.5c0-0.5,0.1-1,0.2-1.5c0.1-0.5,0.3-0.9,0.6-1.3c0.2-0.4,0.6-0.7,1-1c0.4-0.2,0.9-0.4,1.4-0.4
			c0.5,0,1,0.1,1.4,0.4c0.4,0.2,0.8,0.6,1,1c0.2,0.4,0.4,0.8,0.6,1.3s0.2,1,0.2,1.5c0,0.5-0.1,1-0.2,1.5s-0.3,0.9-0.6,1.3
			C110.6,18.9,110.3,19.3,109.9,19.5z M107.1,17.8c0.3,0.5,0.7,0.8,1.3,0.8c0.6,0,1.1-0.3,1.3-0.8c0.3-0.5,0.4-1.2,0.4-2.1
			c0-0.5-0.1-1-0.2-1.4c-0.1-0.4-0.3-0.8-0.6-1c-0.3-0.3-0.6-0.4-1-0.4c-0.4,0-0.8,0.1-1,0.4c-0.3,0.3-0.5,0.6-0.6,1
			c-0.1,0.4-0.2,0.9-0.2,1.4C106.7,16.5,106.8,17.2,107.1,17.8z"/>
	</g>
	<g>
		<g>
			<path class="st4" d="M159.1,55.9c-12.4-2-25.2-1.4-33.1,6.7"/>
			<g>
				<path class="st2" d="M126.1,62.4c0.4,0,1,0.3,1.3,0.6c-0.7-0.1-1.4,0-2.1,0.2c0.3-0.7,0.3-1.4,0.2-2.1
					C125.8,61.5,126.1,62,126.1,62.4z"/>
			</g>
		</g>
	</g>
	<g>
		<g>
			<path class="st5" d="M160.2,83.6c-14.2,2.2-25.8-3.5-30.6-9.7"/>
			<g>
				<path class="st2" d="M129.6,73.9c0,0.3-0.3,0.7-0.6,0.9c0.1-0.5,0.2-1.1,0-1.6c0.5,0.3,1,0.4,1.6,0.4
					C130.4,73.7,130,73.9,129.6,73.9z"/>
			</g>
		</g>
	</g>
	<g>
		<g>
			<path class="st6" d="M41.4,139.1c13.6,0.6,49.9-8.7,61.2-31.5"/>
			<g>
				<path class="st2" d="M102.5,107.8c-0.7,0.3-1.8,0-2.5-0.3c1.2-0.2,2.4-0.7,3.4-1.6c-0.1,1.3,0.4,2.5,0.9,3.6
					C103.6,109.1,102.8,108.5,102.5,107.8z"/>
			</g>
		</g>
	</g>
	<g>
		<g>
			<path class="st7" d="M158.1,115c-9.9-0.5-26.5,1-34.1-12.5"/>
			<g>
				<path class="st2" d="M124,102.6c-0.1,0.5-0.6,0.9-1,1.1c0.3-0.7,0.5-1.5,0.4-2.2c0.6,0.5,1.4,0.7,2.1,0.8
					C125.1,102.5,124.5,102.7,124,102.6z"/>
			</g>
		</g>
	</g>
	<g>
		<g>
			<path class="st8" d="M41.4,24.6c17.6,0,35.4,10.7,47.9,35.5"/>
			<g>
				<path class="st2" d="M89.3,60c0.2-0.5,0.8-1.1,1.3-1.3c-0.4,0.8-0.7,1.7-0.6,2.7c-0.7-0.6-1.6-0.9-2.5-1.1
					C88,60,88.7,59.8,89.3,60z"/>
			</g>
		</g>
	</g>
	<g>
		<g>
			<path class="st7" d="M40.3,108.5c12.5,1.1,38.8-1.4,49-12.3"/>
			<g>
				<path class="st2" d="M89.3,96.3c-0.5,0-1.1-0.3-1.4-0.6c0.8,0.1,1.5,0,2.3-0.3c-0.3,0.7-0.3,1.5-0.2,2.3
					C89.6,97.3,89.3,96.8,89.3,96.3z"/>
			</g>
		</g>
	</g>
	<g>
		<g>
			<path class="st9" d="M39.7,55.1C53.6,51.3,62,53.4,74,65.7"/>
			<g>
				<path class="st2" d="M73.9,65.6c0-0.4,0.3-0.9,0.6-1.2c-0.1,0.7-0.1,1.4,0.2,2c-0.6-0.3-1.3-0.3-2-0.2
					C73,65.9,73.4,65.6,73.9,65.6z"/>
			</g>
		</g>
	</g>
	<g>
		<g>
			<path class="st10" d="M39.7,76.2c8.9-5.1,26.7-5.3,42.4,3.3"/>
			<g>
				<path class="st2" d="M82.1,79.4c-0.1-0.5,0-1.1,0.3-1.5c0.1,0.8,0.4,1.5,0.9,2.1c-0.8-0.1-1.6,0.1-2.3,0.4
					C81.2,80.1,81.6,79.6,82.1,79.4z"/>
			</g>
		</g>
	</g>
	<g>
		<g>
			<line class="st11" x1="101.3" y1="25.1" x2="101.3" y2="48.9"/>
			<g>
				<path class="st2" d="M101.3,48.8c0.5-0.5,1.5-0.7,2.1-0.7c-0.9,0.7-1.7,1.6-2.1,2.6c-0.4-1.1-1.3-1.9-2.1-2.6
					C99.9,48.1,100.8,48.2,101.3,48.8z"/>
			</g>
		</g>
	</g>
	<g>
		<path class="st0" d="M168.7,124.1c-0.7,0-1.3-0.1-1.8-0.4c-0.5-0.2-0.9-0.6-1.2-0.9l0.8-0.9c0.3,0.3,0.6,0.5,1,0.7
			c0.4,0.2,0.8,0.3,1.2,0.3c0.5,0,0.9-0.1,1.2-0.3c0.3-0.2,0.4-0.5,0.4-0.9c0-0.8-0.6-1.1-1.8-1.1c-0.5,0-0.8,0-0.9,0v-1.3
			c0.1,0,0.4,0,0.9,0c0.5,0,0.9-0.1,1.2-0.3c0.3-0.2,0.5-0.4,0.5-0.8c0-0.4-0.2-0.6-0.5-0.8c-0.3-0.2-0.7-0.3-1.2-0.3
			c-0.8,0-1.5,0.3-2.1,0.9l-0.7-0.9c0.7-0.8,1.7-1.3,2.9-1.3c0.9,0,1.6,0.2,2.1,0.6c0.5,0.4,0.8,0.9,0.8,1.6c0,0.5-0.2,0.9-0.5,1.2
			c-0.3,0.3-0.8,0.5-1.2,0.6c0.5,0,0.9,0.2,1.3,0.6c0.4,0.3,0.6,0.8,0.6,1.4c0,0.7-0.3,1.2-0.8,1.7
			C170.3,123.9,169.6,124.1,168.7,124.1z"/>
		<path class="st0" d="M175.6,124.1c-0.7,0-1.3-0.1-1.8-0.4c-0.5-0.2-0.9-0.6-1.2-0.9l0.8-0.9c0.3,0.3,0.6,0.5,1,0.7
			c0.4,0.2,0.8,0.3,1.2,0.3c0.5,0,0.9-0.1,1.2-0.3c0.3-0.2,0.4-0.5,0.4-0.9c0-0.8-0.6-1.1-1.8-1.1c-0.5,0-0.8,0-0.9,0v-1.3
			c0.1,0,0.4,0,0.9,0c0.5,0,0.9-0.1,1.2-0.3s0.5-0.4,0.5-0.8c0-0.4-0.2-0.6-0.5-0.8c-0.3-0.2-0.7-0.3-1.2-0.3
			c-0.8,0-1.5,0.3-2.1,0.9l-0.7-0.9c0.7-0.8,1.7-1.3,2.9-1.3c0.9,0,1.6,0.2,2.1,0.6c0.5,0.4,0.8,0.9,0.8,1.6c0,0.5-0.2,0.9-0.5,1.2
			c-0.3,0.3-0.8,0.5-1.2,0.6c0.5,0,0.9,0.2,1.3,0.6c0.4,0.3,0.6,0.8,0.6,1.4c0,0.7-0.3,1.2-0.8,1.7
			C177.2,123.9,176.5,124.1,175.6,124.1z"/>
		<path class="st0" d="M184.3,123.7c-0.4,0.2-0.9,0.4-1.4,0.4s-1-0.1-1.4-0.4c-0.4-0.2-0.8-0.6-1-1c-0.2-0.4-0.4-0.8-0.6-1.3
			s-0.2-1-0.2-1.5s0.1-1,0.2-1.5c0.1-0.5,0.3-0.9,0.6-1.3c0.2-0.4,0.6-0.7,1-1c0.4-0.2,0.9-0.4,1.4-0.4s1,0.1,1.4,0.4
			c0.4,0.2,0.8,0.6,1,1c0.2,0.4,0.4,0.8,0.6,1.3c0.1,0.5,0.2,1,0.2,1.5s-0.1,1-0.2,1.5c-0.1,0.5-0.3,0.9-0.6,1.3
			S184.7,123.5,184.3,123.7z M181.5,122c0.3,0.5,0.7,0.8,1.3,0.8s1.1-0.3,1.3-0.8c0.3-0.5,0.4-1.2,0.4-2.1c0-0.5-0.1-1-0.2-1.4
			c-0.1-0.4-0.3-0.8-0.6-1c-0.3-0.3-0.6-0.4-1-0.4s-0.8,0.1-1,0.4c-0.3,0.3-0.5,0.6-0.6,1c-0.1,0.4-0.2,0.9-0.2,1.4
			C181.1,120.8,181.2,121.5,181.5,122z"/>
	</g>
</g>
</svg>
