<?xml version="1.0" encoding="utf-8"?>
<!-- Generator: Adobe Illustrator 19.2.0, SVG Export Plug-In . SVG Version: 6.00 Build 0)  -->
<svg version="1.1" id="Layer_1" xmlns="http://www.w3.org/2000/svg" xmlns:xlink="http://www.w3.org/1999/xlink" x="0px" y="0px"
	 viewBox="0 0 215.8 152.7" style="enable-background:new 0 0 215.8 152.7;" xml:space="preserve">
<style type="text/css">
	.st0{fill:#0D92FF;}
	.st1{fill:none;stroke:#00325C;stroke-width:0.25;stroke-miterlimit:10;}
	.st2{fill:#00325C;}
	.st3{fill:#787878;}
	.st4{fill:none;stroke:#00325C;stroke-width:0.205;stroke-miterlimit:10;}
	.st5{fill:none;stroke:#00325C;stroke-width:0.225;stroke-miterlimit:3;}
	.st6{fill:none;stroke:#00325C;stroke-width:0.57;stroke-miterlimit:10;}
	.st7{fill:none;stroke:#00325C;stroke-width:0.18;stroke-miterlimit:10;}
	.st8{fill:none;stroke:#00325C;stroke-width:0.3;stroke-miterlimit:10;}
	.st9{fill:none;stroke:#00325C;stroke-width:0.215;stroke-miterlimit:10;}
</style>
<title>aus-jan</title>
<g>
	<path class="st0" d="M154.5,141.6L154.5,141.6l-0.1,0l0,0.1L154.5,141.6L154.5,141.6l0,0.1L154.5,141.6L154.5,141.6L154.5,141.6
		L154.5,141.6L154.5,141.6L154.5,141.6z M154.4,141.9L154.4,141.9L154.4,141.9l0,0.1L154.4,141.9L154.4,141.9L154.4,141.9z
		 M66.3,57.2L66.3,57.2L66.3,57.2L66.3,57.2L66.3,57.2l0-0.1l0,0L66.3,57.2L66.3,57.2L66.3,57.2z M132.4,123.6l-0.1,0l-0.1,0.1
		l-0.1,0.1l-0.2,0.1l0,0.1l0,0.1l0.1,0l0.1-0.1l0.1-0.1l0.1-0.2L132.4,123.6l0.1,0.1l0-0.1L132.4,123.6L132.4,123.6z M62.5,82.6
		l-0.3-0.1l-0.2,0l-0.1,0l-0.1,0.1l0.1,0.2l0.6,0l0.2,0.1l-0.1-0.1L62.5,82.6z M63.8,79.8L63.8,79.8l-0.4-0.2l-0.1-0.1l0-0.2l0-0.2
		l0-0.1l-0.2-0.1l-0.1,0l-0.5,0l0.1,0.2l0.1,0.4l0.1,0.2l0.2-0.1l0.2,0.1l0.2,0.3l0.1,0.3l0.1,0.1l0-0.2l0-0.2L63.8,79.8z
		 M40.7,61.9L40.7,61.9L40.7,61.9l-0.2-0.1l-0.2,0.1L40,62v0.1l0.2-0.1l0.1,0l0,0.1l0,0l-0.1,0l0,0v0.1l0.1,0l0.4-0.2L40.7,61.9
		L40.7,61.9L40.7,61.9z M69.1,88.1L69.1,88.1l0-0.1l0-0.1l-0.1,0l-0.1,0L68.4,88V88l0.1,0.1l0.3,0.4l0.1,0l0.4-0.1l0.8,0.5l0.4,0.1
		l0,0l0,0l0.1,0l0.1,0l0.1,0l-0.1-0.2l-0.2-0.2l-0.2-0.1l-0.8-0.1l-0.1-0.1v-0.1h0.1v-0.1l-0.2,0l-0.2,0.1l-0.2,0L68.8,88l0.1,0
		L69.1,88.1z M130.4,123.9L130.4,123.9l-0.1,0.1l0,0l0,0l0,0l-0.1,0l-0.2,0l-0.1,0l0,0.1l0.2,0.1l0.1,0l0.1,0l0.1-0.1l0.1-0.1
		L130.4,123.9L130.4,123.9L130.4,123.9z M56.1,75.5L56.1,75.5l-0.4-0.3l0,0L55.6,75l-0.4-0.2l-0.1,0L55,74.7H55l0,0.1l-0.1,0.1
		l0,0.2l0.1,0.2l0.1,0.2l0,0.2l0.1,0.1l0.4,0.1l0.6,0.1l0.2-0.1l0-0.2l-0.1-0.1L56.1,75.5z M71,90.9l-0.1-0.1l-0.1,0l-0.1,0l-0.1,0
		l-0.2-0.2l-0.2-0.2l-0.3-0.1l-0.2,0l0.2,0.4l0.1,0.3l0,0.1l0,0.1l0.1,0.2l0.2,0.2l0.2,0.1l0.5,0.5l0.1,0.2l0.1,0.1l0.1,0.4l0.1,0.1
		l0.1-0.2l0.1-0.3l0.1-0.5l0-0.1l-0.1-0.1l-0.2-0.1l-0.1-0.1l0-0.1v-0.1L71,91.3l0-0.1l0-0.1L71,90.9z M145.2,55.9l-1.3-0.7l-0.1,0
		l-0.5,0l-0.7-0.2l-0.1,0l-0.2,0.1l-0.1,0l-0.1,0l-0.2-0.1l-0.1,0l-0.1,0l-0.1,0l-0.1,0l-0.1,0l-0.1-0.1l-0.1-0.2l-0.1-0.1l-0.2-0.1
		l-0.3-0.1l-0.2-0.1l-0.1-0.1l-0.2-0.3l-0.1-0.1l0,0l0,0l0.1,0l-0.1-0.2l-0.1-0.1l-0.3,0l0-0.1l-0.2,0l-0.2,0.1l-0.1,0.1l0,0.1
		l-0.1,0.2l0,0.1l-0.1,0l-0.2,0l-0.1,0l0,0.1l-0.1,0.2l0,0l-0.1,0l-0.2-0.1l-0.7,0l-0.1,0l-0.1-0.1l-0.3-0.2l0,0L137,54l0,0.1l0,0.1
		l0,0.1l-0.2,0.2l-0.2-0.1l-0.1-0.3l0-0.4l-0.2,0l-0.5-0.3l-0.1,0l-0.2,0l-0.3-0.1l-0.1,0l0,0.2l0.1,0.2l0,0.2l-0.1,0.2l-0.1,0
		l-0.3-0.1l-0.4,0l-0.1,0l-0.1-0.2l0-0.1l0-0.2l-0.1-0.2h0l-0.1,0.1l0,0l0,0l0-0.1l0,0l0-0.1l-0.1-0.2l0,0l-0.1,0l0,0l0-0.1l0-0.1
		l0-0.1l-0.5-0.5l-0.1-0.2l-0.1-0.1l0-0.1l0.1,0l0-0.1l0-0.1l-0.4-0.4l-0.1-0.1l0,0l0-0.1l0-0.1l0-0.1l-0.1-0.1l-0.7-0.4l-0.1,0
		l-0.1,0l-0.1,0.1l-0.1,0l-0.1,0l-0.2,0l-0.2-0.1l-0.4-0.3l-0.2-0.1l-0.2,0l-0.5,0l0.1,0.1l-0.2,0l-0.1,0l0,0.1v0.1l0,0.1l-0.1,0
		l-0.1,0.1l-0.1,0l-0.7,0l-0.1,0l-0.1-0.3l-0.2-0.2l-0.5-0.1l-0.2-0.1l-0.1-0.1l-0.3-0.3l-0.1,0l0,0l-0.2-0.1l-0.1,0l-0.1,0
		l-0.1,0.1l-0.1,0l0,0l-0.2,0l-0.2-0.1l-0.2,0h0l-0.2,0.1l-0.1,0.1v0l0,0.1l0,0l0,0l-0.1,0l-0.1,0l-0.1,0l-0.2-0.1l-0.1,0l0,0
		l-0.1,0.1l-0.1,0.1l-0.2,0.1l0,0l-0.2,0l0-0.1l0,0l0-0.1l0-0.1v-0.1l0-0.1l-0.4-0.7l-0.1-0.1l-0.2-0.1l0,0l0,0l0,0h0l0,0l0,0.1
		l0,0.1l0,0l0,0l-0.1,0l0,0v0l0-0.1l0-0.1l0-0.2v0l0,0l0.1,0l0,0l0,0l-0.1-0.2l-0.2-0.2l-0.2-0.2l-0.1,0l-0.1,0l-0.1,0l-0.2,0.1
		l-0.2-0.1l-0.1-0.1l0,0l-0.1-0.1l-0.2-0.3l-0.1-0.2l-0.1-0.1l-0.1,0l-0.2-0.1l-0.2-0.1l-0.3-0.3l-0.1-0.1l0,0l-0.1,0l-0.1,0L120,46
		l-0.2,0.1l-0.1,0l0,0l-0.1,0l-0.1,0v0l-0.1-0.1l0-0.2v-0.2l0-0.1v0l-0.1-0.1l0-0.1l0-0.1l0.1-0.1l0,0l0-0.1l0,0l0-0.1l0,0l0-0.1
		l0-0.1l0-0.1l0-0.1l-0.1-0.2l0,0v0l-0.2-0.1l-0.2-0.1h0l-0.1-0.2l0-0.2l0.2-0.5l0.1-0.2l0,0l0-0.1l0-0.1l0-0.1l0,0l0-0.1l0.1-0.2v0
		l0.1,0l0.1,0.1l0,0l0-0.1l0-0.1l0-0.3l0-0.1l0-0.2l-0.1-0.1l-0.2,0.1l-0.1,0l0-0.2l0,0l-0.2,0.1l-0.8,0.9l0,0.1l0,0.1l0,0.1l0,0
		l0,0l0,0l0,0l0,0l0,0.1l0,0.3l-0.1,0.2l0,0l-0.1,0.1l-0.1,0l0,0l-0.3,0.1l-0.3,0.1l-0.8,0.4l-0.2,0l-1-0.3l-0.2-0.1l-0.2,0
		l-0.4,0.1l-0.1,0l0,0l-0.4-0.2h0l0.1,0l0-0.1l0-0.1l0-0.1l0-0.1l0,0h0l0-0.1l0-0.1l0,0l0,0l0.1-0.1l0.1-0.1l0.1-0.1l0.1-0.1l0.1,0
		l0.1-0.1l0.1,0l0-0.1v0l-0.1-0.1l0-0.1l0,0l-0.1-0.5l-0.1,0l-0.1,0l-0.2,0.1l0,0l-0.1,0l0-0.2l0,0l0.1-0.3l0.1-0.2l0-0.2l0-0.1l0,0
		l0.1-0.1l0.2-0.1l0,0l0.1-0.1l0-0.1l0-0.1l0-0.1l-0.1-0.1l-0.1,0l0,0l-0.1,0l-0.1,0h0l0,0.1l0,0l0,0h0l0,0l0,0l-0.1,0l0,0l-0.2-0.4
		l-0.1-0.1l0,0l-0.2-0.1l-0.1-0.1l-0.1,0l-0.3-0.3l0,0l-0.1-0.1l-0.1,0l-0.1,0l-0.3,0.1l-0.2,0.1h-0.2l0,0l-0.1-0.1l-0.1-0.1l-0.1,0
		l-0.2-0.1l-0.3,0l-0.3,0l0,0l-0.1,0l-0.1,0.1l-0.1,0.2l0,0.1l0,0l0,0l0,0l0,0l0,0l0,0l0,0.1l-0.3-0.3l-0.1-0.5l0-0.6l-0.1-0.5
		l-0.1-0.2l-0.2-0.2l-0.2-0.1l-0.2,0l-0.5,0h0l-0.1-0.1h0l0.1-0.1l0,0l0-0.1l-0.1-0.1l0,0l-0.1,0l-0.1,0l0,0l-0.1,0l0,0l0,0l0,0.1
		l0,0l-0.1,0.1l-0.3,0.1l-0.1,0l-0.1,0l-0.1,0l-0.1,0l-0.3-0.2l-0.1-0.1l-0.1-0.1l0,0l0-0.1l0-0.4l-0.2-0.7l-0.1-0.4l0.1-0.1
		l0.1-0.1l0-0.1l-0.1-0.2l-0.1-0.1l0,0l-0.1,0v0l-0.1,0l-0.1-0.1l-0.1-0.2l-0.1-0.2l0-0.1l-0.1-0.2l-0.1-0.1l-0.2-0.1l0,0l-0.4,0.1
		l-0.2,0.1l-0.1,0l-0.3,0.1l-0.1,0.1l-0.1,0.1l-0.1,0.1l-0.1,0.1l-0.1,0.2l-0.1,0.2l-0.1,0.1l0,0l-0.1,0l0,0l0,0l0,0l-0.6-0.3
		l-0.1,0l0,0l-0.1-0.1l0,0l0,0l-0.1-0.3l0-0.1l0,0l-0.3-0.3l-0.1-0.1l0-0.1h0l0-0.1l-0.1-0.1l0,0l-0.1,0l-0.1,0l-0.1,0l-0.1,0l0,0
		l0,0l0-0.1l0-0.1l0-0.1l0,0l0,0l0,0l-0.1,0l0,0l0,0v0l0,0l0,0l0.1-0.1l0-0.1l-0.1-0.3l-0.1-0.3l0-0.1l0.1-0.1l0.1-0.1l0,0l0,0
		l0-0.2l-0.1-0.2h0l-0.3-0.3l-0.1-0.2l0-0.1l-0.1-0.5l0,0l-0.1-0.3l-0.1,0.1l-0.3,0.2l-0.6,0.2l-0.5-0.1l-0.1,0l-0.1,0l-1.4,0.4
		l-1.3,0.2L96.2,31l-0.1,0l-1.5,0.7l-0.2,0.2l-0.2,0.3L94,32.3l-0.2,0.1l-0.2,0l-0.1,0l-0.2,0.2l0,0.1l0,0.2l0.1,0.5l0.1,0.3l0,0.2
		L93.5,34l-0.2,0.5l0,0.2l0,0.3l0.1,0.5l0,0.6l0,0.2l0.2,0.3l-0.2,0.2l0,0.5l0,0.6l-0.1,0.4v0.1l0.4,0.3v0.1l-0.3-0.1l-0.2,0.3
		l-0.1,0.5l0,0.4l0.1,0.1l0.3,0.2l0.1,0.2l0.1,0.1l0.1,0.1l0.2,0.1l0.2,0v0.1h-0.2l0,0.1l0,0.1l0.1,0l0.1,0V41l-0.1,0.1l-0.1,0
		l-0.8-0.4l-0.3,0l-0.3,0.4l-0.2,0.7l-0.1,0.1L92.3,42l-0.4,0.5l-1,0.8l-0.3,0.4l-0.2,0.1l-0.2,0.2l-3.3,1.1l-0.7,0l-0.6,0.2
		l-0.3,0.2L85,45.5l-1,0.6l-0.1,0.1l-1,0.5l-0.1,0.1l-0.1,0l-0.4,0.3l-0.1,0.1l-0.3,1.1L81.4,49l0,0.1l0,0.1l0,0.1l0.1,0.1l0,0.1
		l0.1,0.1l0.2,0.1l0.2,0.1l0.1,0h0.2l0.6,0.2l0.7,0.1l0.7-0.1l0.6-0.4l-0.1,0.2l-0.2,0.1l-0.4,0.2l-2,0.5L81.6,51l-0.2,0.3l-0.1,0.1
		l-0.2,0l-0.2,0.2l-0.4,0.2L79.3,52l-0.2,0.2l-0.7-0.5l-0.4-0.1l-0.2-0.2l-0.1-0.1H77l-0.3-0.2l-0.2,0l-0.3,0.2l-0.2,0l-0.3-0.1
		l-1.4-0.1l-0.9-0.4l-1-0.1l-0.1,0.1L72,51L72,51.2l0.1,0.1v0.1l-0.2,0l-0.1-0.1l-0.1-0.1l-0.1-0.1l-0.1,0l-0.1,0.1l-0.1,0l0-0.1
		l0,0l0-0.1l0-0.1l0-0.1l0-0.3l-0.1-0.2l-0.6-0.8l-0.1-0.3l-0.1-0.2l-0.1-0.2l0-0.3l0.1-0.1l0.1,0l0.2,0l0-0.1l0-0.1l0-0.1l0.2-0.1
		l0-0.2l-0.2-0.4l0-0.2l0-0.1l-0.1,0l-1-0.2l-0.1,0l-0.4,0.1l-0.1,0.1l-0.2,0.3l-0.1,0.1l-0.1,0.1l-0.1,0l-0.2-0.1l-0.1,0l-0.1,0
		l-0.1,0.1l-0.1,0l-0.1,0l0-0.1l0-0.1l0,0l-0.1,0l-0.6-0.2l-0.5-0.1l-0.2-0.1l0,0l-0.1,0l0,0l0-0.1l0-0.1l0-0.1l-0.1,0l-0.2,0
		l-0.1,0l-0.2-0.1l-0.1,0l-0.2,0l0,0.1l0,0.2l-0.1,0.3l0.3,0.1l0.3,0l0.1,0.1l0,0.1l0.1,0.1l0.1,0.2l0,0.2l0,0.4l-0.1,0.1L65.9,49
		l-0.1,0.2l0,0.1l0.2,0.3l0.1,0.1l0,0.1l0,0.1l0,0.1l0.1,0.2l0,0.1l0,0.1l0,0.2l0,0.4l0,0.2l0.1,0.1l0.1,0l0.1,0l0.1,0l0,0l0,0
		l0,0.1l0.2,0.1l0.2,0.2l0.1,0.1l0.1-0.2h0.1l0.1,0.2v0.1h-0.2l0.1,0.2l0.1,0.1l0.2,0.2l0,0l0,0l-0.1,0.1l0.1,0.1l0.1,0.4l0.1,0.1
		l0.1-0.2l0.2,0l0.2,0.1l0.2,0.1V53l-0.3-0.1l-0.1,0L68,53l0,0.2l0,0.2l0.1,0.2l0.1,0.2l0-0.1l0,0l0.1,0.1L68.2,54l-0.1,0.1
		l-0.1,0.2l0,0.2l0,0.1l0,0.1l0.1,0l0,0.1l0,0.1l0,0.3l0,0.1l0.1,0.1l0.1,0.1l0,0l0.1-0.2l0.2-0.1h0.2l0.2,0.1v0.1l-0.2-0.1
		l-0.1,0.1l-0.1,0.2l-0.1,0.7l0,0.1l0.1,0l0,0.1l0,0.1l0,0.1l-0.1-0.1l-0.1,0.1l-0.1,0.6l-0.1,0.1l-0.1,0.1l-0.1,0.1v0.1l0.2,0
		l0.1,0.2l0,0.3l0,0.3l0.1,0.3l0.3,0.3l0.1,0.3l0,0.1l0.1,0.1l0.3,0.1l0,0l0,0.1l0,0.1l0,0.1l0,0l0,0v0l0.3,0l0.2,0.1l0.1,0.2
		l-0.3-0.1L68.9,60l-0.6-0.1l-0.1,0l-0.4,0.2l-0.6,0.1l-0.6,0l-0.3-0.1L66,59.9l0-0.3l0.2-0.3l-0.1-0.1l0-0.1l0-0.1l0-0.1l-0.8,0.2
		l0,0.1h-0.3l-0.1,0l0,0.1v0.1l0,0l-0.1,0l-0.1,0.1l-0.1,0.1l0,0.1l0.1,0.1l0.1,0.4l0.1,0.1l0.1,0l0.1,0l0.1,0.1l0.1,0.1l-0.1-0.1
		l0,0l0-0.1h-0.1l0,0.2l0.1,0.2l0,0.1l0.2,0.2l-0.2,0.2l-0.1,0.1l0-0.3l0-0.2l-0.2-0.3l0,0l0-0.1l-0.1,0l-0.1-0.1l0-0.1l0-0.1
		l-0.2-0.3l0-0.1l-0.4,0L63.8,60l0.1,0.2l0,0.1l0.1,0.1l-0.1-0.1l-0.1,0l-0.1,0.1l-0.1,0.1l0.1,0.1l0,0v0.1l-0.1,0.1l-0.1-0.1l0-0.2
		l0-0.2l0,0.1l0,0.1l-0.1,0.1l-0.1,0l0-0.1l0-0.1l-0.1-0.1l-0.1,0l0-0.1l0-0.3l0-0.1l-0.2,0.1l-0.2,0.2l-0.1,0.1l-0.1-0.1l0.2-0.2
		l0-0.1l0-0.1l0-0.1l0.1,0v-0.1l-0.1,0l-0.1,0l-0.1-0.1l0-0.1l-0.1,0.2l-0.2,0.2l-0.2,0.2l-0.2,0.1l-0.1-0.2l-0.2,0L61,59.8l0.2,0.1
		l0.1,0V60l-0.1,0.1l-0.5,0.3l-0.1,0l-0.1,0.1l-0.1,0.1l-0.2,0.3L60,61.1l-0.1,0.1l-0.3,0l0,0.1l0,0.2l0,0.1l-0.1-0.1l-0.1-0.1
		l-0.1-0.1l-0.1,0l-0.1,0l0.1-0.1l0-0.1l0-0.1l0-0.1l-0.5-0.2l-0.2-0.1l-0.1,0l0,0l0-0.1l0-0.1l0-0.1l0-0.1l0-0.1l-0.1-0.4l-0.5-0.4
		l-0.1-0.1L57.6,59l-0.1-0.1l-0.1-0.1v-0.1l0,0l0.1-0.1l0-0.1v-0.1l0-0.1l-0.2-0.1l-0.4,0l-0.2-0.1v-0.1h-0.1v-0.1l0.1-0.1l0.1,0
		l0.1,0v-0.1l0,0h0l0,0l0.1-0.1l-0.1-0.1l-0.1,0l-0.1,0l-0.1,0.1l-0.1,0L56.3,58L56,58.5H56v-0.1l0.2-0.2l0.1-0.1l0.1-0.3l0.1-0.1
		l-0.1-0.1v-0.1l0.1-0.1l0-0.1l-0.1-0.1l-0.1-0.1l-0.1,0l-0.1,0.2l-0.1,0l-0.1,0.1l-0.2,0.2l-0.2,0.3L55.2,58l0,0.2l0-0.1l0,0l0-0.1
		l0.1-0.1l0.1-0.2l0-0.2l-0.1-0.2l-0.1,0l-0.2,0.3l-0.1,0h-0.1l-0.1,0.1L54,57.8l-0.1,0l-0.1,0.1l-0.1,0l-0.1,0l-0.2,0l0-0.1l0,0
		l0,0l0,0l-0.1,0l-0.3-0.2l-0.3,0l-0.1-0.1h0l0,0.1l-0.2,0.3L52.4,58l-0.1,0.1l0,0.2l0.3,0.3l0.1,0.1l-0.4,0.1l0,0.1l0,0.2l0.1,0.3
		l-0.1,0.1l-0.2,0l-0.2-0.1l0-0.2l-0.3,0.1l-0.1,0l-0.1,0L51.2,59l-0.1,0l-0.4,0l-0.1,0l-0.1-0.1l0,0.1l0,0.1l0,0.1l0,0.1L50.4,59
		l-0.1,0.1l0,0.2l0,0.2l-0.1-0.1l0,0l0-0.1h0l0,0.2l0,0.1l0,0.1l-0.1,0.1l0.1,0.1l-0.1,0.1l-0.1-0.1l-0.2-0.2l-0.1-0.1v-0.1l0,0
		l0.1-0.1l-0.2,0l-0.1,0.1l-0.2,0.2l0-0.1l0-0.1l-0.1-0.1l-0.1-0.1v-0.1h0.1v-0.1l-0.1,0l0-0.1l0-0.1l0-0.1l0,0l-0.3,0.1L48.8,59
		l-0.1,0l-0.1,0l0,0.1l0,0.1l0,0.1l-0.1,0.1h0l0-0.1l0-0.1h0l0,0.1l-0.1-0.1l-0.2,0l-0.2,0l-0.2,0.1l-0.1,0.1l-0.1,0.1l0,0.1l0.2,0
		v0.1h-0.1l-0.2-0.1l-0.1,0l-0.1,0l-0.2,0.1l-0.2,0l0.1-0.3l-0.1-0.2l-0.2,0l-0.2,0.1l-0.2,0.1l-0.2,0v0.1l0,0l0.1,0.1l-0.2,0
		L45.3,60l-0.2,0h-0.6v0.1l0.1,0l0,0l0,0l0,0.1l0.2,0.1l-0.2,0l-0.4-0.1l-0.1,0.1l0.1,0.2l0.2,0.3l-0.1,0l-0.3-0.1l-0.2,0l-0.2,0
		l-0.1,0.1l-0.1,0.1l0.1,0.1l-0.1,0l-0.1-0.1L43.1,61l-0.2,0.4l-0.1,0.3l0.2,0.2V62l-0.1,0l-0.1,0.2l0,0.2l0,0.2l0.1,0.3l0,0.2
		l-0.1,0l0.1,0.2l0.1,0.1l0.1,0l0.4,0l0.1,0l0-0.1l0-0.1l0,0l0.2,0l0.3,0.1l0.1,0l0.2,0l0.2-0.1l0.4-0.1l0.5-0.3l0.2-0.1l0.5-0.1
		l0.2-0.1l0.2-0.1l0.1,0l-0.8,0.5L45.9,63l-0.5,0.6v0.1l0.1,0l0.1,0l0.1,0l0.1-0.1l0.1,0.1l0,0l0,0l0,0l0.2,0l0.3-0.2l0.1,0.1l0-0.1
		l0-0.1l0-0.1h0.1v0.1h-0.1v0.1l0.1,0l0.2-0.1h0.1l-0.2,0.2l-0.1,0.1l0,0.1l0,0.1l-0.1,0l0,0l-0.1,0.1l0.3,0l0.1,0l0,0.1l0.1,0
		l0.1,0l0.1-0.1l0,0.1l0.1,0l0.2,0V64l-0.7,0.1l-0.2-0.1l0.1,0l0.1,0l0-0.1l-0.5,0L46,64.2l-0.1,0l-0.1,0l-0.1,0l-0.1-0.1l-0.1,0
		l-0.7,0.1L44.7,64l0.1-0.4l-0.1-0.1l-0.1,0.1l-0.1,0.4l0,0l0,0.1l0,0.1l-0.1,0l-0.1,0l-0.1,0l-0.1,0l-0.1,0l0,0.1l0,0.1l0.5,0
		l0.1,0l0.1,0.1l0,0l-0.1,0.1l0,0.1l0,0.1l0,0.1l0.1,0.1l0,0.1l-0.1,0.3l0.2-0.1l0.1-0.2l0.1-0.3l0.1-0.2l0.2-0.1l0.4,0.3l0.2-0.1
		l0,0.1l0,0.1l0.1,0.1l0.1,0l0.3,0.1l0.1,0.1l0,0.3l0,0.1l0.1,0.1l0,0.1l-0.1,0.3l0,0.1l-0.1,0.1l-0.5-0.1l-2.6,0.6l0,0l-0.1-0.1
		l0,0l0,0l0,0l0,0l0,0.1l0,0.1l0,0.1l-0.1,0l0.6,0.2l0.3,0l0.1,0l0.2,0.2l0.1-0.1l0.1-0.1l0.1-0.1l0.1,0l0.7,0.6l0.4,0.5l0.1,0.2
		l0.1,0.3l0.1,0.3l0,0.2l0,0.1l-0.1,0h-0.1l0,0l0,0.1l0,0.2l0,0.1l1.2,0.1l0.2-0.1l0.1-0.1l0.3-0.3v-0.1h-0.2v-0.1l0,0l0,0l-0.1-0.1
		l0-0.1l0.1,0l0.2,0.3l0.1-0.1l0.1-0.1l0.1,0l0.1,0v-0.1L48,69l-0.1-0.2l0-0.2l0.1-0.1l0,0.2l0.1,0.2l0.1,0.1l0.1,0.1l0.1,0l0.1,0
		l0.2,0.2l0-0.1l0.1,0l0.1,0l0.1,0l0,0.1l0,0.1l-0.1,0l-0.1,0l0.2,0l0.2-0.2l0.1-0.2l-0.1-0.2l0.2,0l0.2,0.1l0.1,0.2l0,0.1l0.1,0.1
		l0,0l0.1,0l0,0.1l0,0.1l0.1,0l0.1,0.1l0.2,0.3l0,0l0.1,0l0.2,0l0.2,0l0.1,0.1l0.4-0.2l0.1,0l0.1,0.2l0.2,0.1l0.3,0l0,0l0.1,0.1
		l0.1,0l0.1,0l0.2,0l0.3,0.1l0.1,0l0.1-0.1l0,0.1l0,0.1l0.1,0.1l0.1,0.2l0.2,0.3l0,0.1l0.1,0l0.7-0.2v-0.1l0-0.1l0,0l-0.1,0l0.2,0
		l0.2-0.1l0.2-0.2l0.2-0.2v0.1l-0.1,0.1l-0.1,0.1l-0.1,0.3l0,0l-0.1,0l0,0v0.1l0,0.1l0,0l-0.1,0V71l0.3,0l0.1,0.1l0.1,0.1v0.1
		l-0.3-0.1l-0.1,0l-0.1,0.1l0.2,0l0.3,0.1l0.2,0.1l0.2,0.3l0.1,0l0.1,0l0-0.1l0-0.1l0.1-0.1l-0.1-0.1l0,0l0.1,0l0.1-0.1l0.1,0
		l0.1,0.1l0,0l0,0l0,0l0,0l0-0.2l0-0.1l-0.1-0.1l-0.1,0l0.1,0l0.1,0.1l0.1,0l0.1-0.1h0l0,0.1l0,0.2l0,0l0.1,0l0,0v0.1l0,0.1l0,0.1
		l0,0.1l-0.6,0.3l-0.1,0.3l0,0.2l0,0.1l0.1,0l0.1,0l0.1,0l0.1,0.1l0.1,0.2l0.1,0.2l0,0.3l0,0.2l-0.1,0.2l0,0.1l0,0.1l0.1,0.3h0
		l0.1-0.1l0.2,0l0.1,0l-0.2-0.2L56,73.3l0-0.3l0.1-0.4l0,0l0,0l0,0l0.1-0.1l0.1,0l0.1,0.1l0.1,0.1l-0.1,0l-0.1,0l0.1,0.1l0.1,0
		l0.3-0.1l0.1,0.1l0,0l0.1,0l0-0.2l0-0.1l0.1,0l0,0.2l0,0.2l0.1,0l0-0.1l0-0.2l0.1,0.1l0.1,0.1l0.1,0.1l0.1,0l0.1,0.1l0,0l0,0l0,0
		l0-0.1l-0.1-0.1l-0.1-0.1l-0.1-0.1l0-0.1v-0.3l0-0.1l0-0.1l0-0.1h0.1l0,0.1l0.1,0.1l0.1,0.1l0.1,0l-0.1,0.1l0,0.1l0,0.1l0,0.1h0.1
		l0-0.1l0,0l0.1,0v0.1h-0.1v0.1l0.3-0.1l0.2-0.1l0.1-0.1l0.1-0.1l0.4,0l0.2-0.1l-0.1-0.1l0.2,0l0.1,0.1l0.1,0.1L58.9,72l-0.2,0
		l0.4,0.3l0,0.1l0.1,0l0,0l0-0.1l-0.1-0.1l0.1,0l0-0.1l0-0.1l-0.1-0.1v-0.1l0.2,0.2l0,0.2l-0.3,0.4l0.1,0.1L59,72.9l-0.2,0l-0.2-0.1
		l-0.1-0.1l0,0.2l0,0.1l-0.1-0.1l-0.1,0l0,0l0,0.1h-0.1L58,72.7h-0.2l-0.1,0.1l0.1,0.1l0,0.1l0,0l0,0l0.1,0l0.1,0l0,0.1l0,0l0.1,0.2
		l0,0l0.1,0.1l0.1,0.1l0.1,0l0.2,0l0.4-0.1l0.1,0l0.3,0.1l0.1-0.1l0-0.3l0.1,0.1l0.1,0l0.2,0l0-0.1l0,0l0,0l-0.1,0l0.1,0l0.1,0
		l0.1,0l0.1-0.1L60.3,73l-0.1,0.1L60,73.2l-0.1,0l0.1,0.1l0,0l0,0l0.1,0h0.3l0.3-0.1l0.1,0l0.1,0l0.6,0.2l0.1,0l0.2,0l0.1,0l-0.2,0
		l-0.3,0.1l-0.5,0L61,73.6l0.1,0.2L61,74l0.1,0.1l0.2,0l0.1,0.1l-0.1,0.2l0.1,0.1l0.2,0l0.1,0l0,0.1l-0.3,0.2l-0.1,0.1l-0.1-0.1l0,0
		l0,0l0-0.1l-0.1,0l-0.1,0l-0.1,0l-0.6,0.4l0.3,0.2l0.1,0.2l0,0.3H61l0-0.1l0,0l0-0.1l0,0l0,0l0.1,0l0.1,0.2l0.2,0.2l0.1,0.2
		l-0.1,0.2l-0.2,0l-0.3-0.2l-0.2,0v0.1l0.7,0.4l0.2,0l0,0l0-0.1l0-0.1l0.1-0.1l0.1,0l0.1,0l0.1,0l0.1,0.1l0.2,0.2l0.1,0.1l0.1,0.1
		l0.2,0l0.2-0.1l0.2-0.2l0.2-0.1l0.1-0.1l0-0.1l0-0.1l0.1-0.1l0.2-0.2l1.1-0.1l0.3,0.1l0.1,0.1l0.1,0l0.2,0l0.2,0.1l0.3,0.2l0.3,0.2
		l0.2,0.3l0.1,0.1l0.3,0.1l0.2,0.1l-0.4,0l-0.2-0.1l-0.2-0.2l-0.1-0.1l-0.3-0.1l-0.3-0.2v-0.1h0.2l-0.1-0.1L65.6,76l-0.1,0h-0.1
		l0.1,0.1l-0.1,0L64.9,76l-0.1-0.1l-0.1-0.1l-0.1,0l-0.1,0l-0.1,0L63.9,76l-0.2,0.1l-0.1,0.1l-0.1,0.1l0,0.1l0,0.1l0,0.2l0.1,0.2
		l0,0.2l0,0.2l0,0.1l-0.1,0l-0.3,0l-0.1,0.1l-0.1,0.1L63,77.7l0.3,0.2l0.9,0.2l0.5,0.3l0.1,0.1l0.1,0.1l0.1,0.2l0,0.2L64.8,79
		l-0.1,0.2l-0.1,0.4l-0.1,0.2L64.2,80l-0.1,0.1l0,0.2l-0.2,0.1l-0.1,0.1l0,0.2l0,0.2l0,0.2l0.1,0.2l0.1,0.1l0.2,0.1l0.2,0.2l0.4,0.5
		l0.2,0.5l0.1,0.1l0.1,0l0.1,0l0.1,0.1l0.1,0.3l0.1,0.1l0.1,0.1l0.1,0.1l0,0.1l0,0.2l0.1,0.1l0.1,0.1l0,0.2l0.2,0.8l0.1,0.1l0.1,0
		l0,0l0-0.1l0-0.2l0-0.1l0.1,0.1l0.1,0.3l0.1,0.1l0.1,0.1l0.2,0.1l0.3,0.2l0.4,0.1l0.1,0.1l-0.1,0.1l0.2,0.1l0.5,0l0.2,0l0.2,0.1
		l0.1,0.2l0,0.3l0.1,0.2l0.2,0l0.4-0.1l0.1,0l0.2,0.2l0.2,0.1l0.1,0l0.1,0l0.1,0.2l0.2,0.2l0.2,0.1l0-0.4l0.3-0.2l0.4,0l0.2,0.2
		l0,0.2l0,0.1l0,0.1L72,87.9l-0.5,0.3l-0.1,0.2l0,0.2l-0.1,0l-0.1,0.1l-0.1,0.1l0,0.1l0.1,0.1l0.1,0l0.1,0l0.1,0l0.1,0l0,0l0,0
		l0,0.1l0,0.1l0,0l0.1,0l0.2,0.1l-0.1,0.1v0l0,0l0,0.1l0,0l0.1,0l0,0l0,0l0,0.1l0.1,0.2l0,0.1l0,0.1l0.2,0.1l0.1,0l0,0.1l0,0.1v0.1
		l-0.1,0.2l-0.1,0.1l-0.1,0L72,90.6l0.1,0.4l0.1,0.2l0.1,0.1l0,0l-0.1,0.1l0,0l0,0.1l0.1,0.1l0,0.1l0,0.1l0,0.1l-0.1,0l-0.1,0
		l-0.1,0L72,92l-0.1,0.1l0,0.1l0,0.1l-0.1,0.1l-0.1,0l0.1,0.1l0.1,0.2l0,0.2l0,0.1l0,0.1l0.2,0.2l0.7,0.6l0.2,0.2l-0.6-0.3l-0.1-0.1
		l-0.1-0.1L71.7,93l-0.2,0L71,93.2l0,0.1l-0.1,0.8l0.1,0.1l0.3-0.1l0.1,0.1l0.1,0.1l0.1,0.1l0.1,0.1l0.2,0l0.2,0.1l0.4,0.4l0.3,0.1
		l0,0l0,0.2l0,0l1.1,0.8l0.4,0.4l0.2,0.3l0.2,0.3l0.3,0.7l0.1,0.4l0.3,2.2l0.1,0.4l0.1,0.3l0.3,0.2l0.3,0.1l0.3,0.2l0.2,0.4
		l-0.2-0.1l-0.2-0.1l-0.2,0l-0.2,0l0.2,0.1l0.2,0.2l0.1,0.2l-0.1,0.3l0,0.1l0,0.3l0,0.2l-0.1-0.1l-0.1-0.2l0-0.2l0-0.2l0-0.2l0-0.1
		l-0.1-0.1l-0.1-0.1l-0.3-0.2l-0.3-0.3l-0.3-0.4l-0.3-0.7l0-0.1l-0.1-1L74.8,99l0-0.2l-0.1-0.3l-0.2-0.3l-1-1.1l-0.1,0l-0.3-0.2
		l-0.5-0.4l-0.1-0.1l-0.1-0.1l0-0.1l0-0.1l0-0.1l0,0l0-0.1l0-0.1l0-0.1l-0.1,0l-0.1,0l-0.1,0.2l-0.3,0.6l0,0.2L71.6,99l-0.3,1.8
		l-0.5,5.5l0.1-0.1l0.1-0.3l0.1-0.5l0.4-0.5l0.1-0.1l0,0l0,0l0,0l0,0l0.1,0l0,0l0,0l0,0l0.1,0l0.6,0.6l0.1,0.2h-0.1l0.2,0.2l0,0.2
		l-0.2,0.1l-0.3,0l-0.5-0.1l-0.2,0l-0.2,0.2l-0.1,0.5l0,0.1l0,0.1l-0.2,0.3l0,0.1l0.1,0.3l0,0.2l-0.1,0.7l-0.2,1.6l-0.5,3.1
		l-0.3,1.4l-0.2,0.6l-0.3,1.8l-0.2,0.6l-0.1,0.3l-0.1,0.4l-0.1,0.1l-0.4,0.3l-0.1,0.1l0,0.1l-0.2,0.3l-0.1,0.1l-0.1,0.1l-0.2,0.1
		l-0.2,0.1l-0.7,0.1l-0.1,0.1l-0.1,0.1l-0.1-0.1l0,0.3l0,0.2l0,0.1l0.2,0.1l0.1,0.1l0,0.2l0,0.1l0.1,0l0.1,0l0.2,0l0.2-0.1l0.1,0
		l0.2,0.1l0.1,0.1l0,0.1l0,0.1l0,0.1l0.1,0.2l0,0l0.1,0l0.1,0l0.1,0l0.1,0l0-0.1l0.1-0.2l0.1-0.1l0.2,0l0.2,0.1l0.3,0.2l0.1,0l0.1,0
		h0.1l0.2,0.2l0,0.4l-0.1,0.4l-0.1,0.3l-0.1,0.1l-0.3,0.4l-0.1,0.1l0.1,0.2l0.1,0.2l0.2,0.1l0.2,0l0.2,0l0.1,0l0.1-0.1l0-0.3
		l0.1-0.2l0.1-0.2l0.2-0.1l0.2,0l-0.2,0.1l-0.1,0.1l0,0.1l0.1,0.2l0.2,0.1l0.5,0.1l0.3,0.2l0.3,0.2l0.3,0l0.1,0l0.1,0.1l0.1,0l0.3,0
		l0.1,0l0.1,0.1l0.3,0.2l0.3,0.1l0.6,0.1l0.6-0.1l0.2,0.1l0.1,0.4l0,0.1l0,0l0,0.1l0,0.1l0.1,0.1l0.1,0l0.1,0l0.1,0l0.3,0.2l0.1,0.1
		l0.3,0.4l0,0l0,0l0,0l0.1,0h0.1l0,0l0,0.1l0,0.1l0,0.1l0.1,0.1l0.1,0l0.1-0.1l0.1,0l0-0.3l0.2,0l0.4,0.2l0.2,0l0.2-0.1L78,126
		l0.1,0.1l0.1,0l0.1-0.1l0-0.1l0.1,0.1l0.5,0.3l0.1,0.2l0.2,0l0.2-0.1l0.1-0.1l0,0.2l0,0.2l0.1,0.2l0.1,0.1l0,0.1l0,0.1l0,0.1l0.1,0
		l0.1,0l0.1,0l0,0.1l0,0l0.3,0.1l0.3,0l0.6-0.2l0.5-0.1l0.1-0.1l0.1,0l0.4,0.1l0.1,0.1l0.2,0.3l0.1,0.1l0.1,0l0.2-0.3l0.1-0.1
		l0.1-0.1l0.2,0.2l0,0l0,0l0,0l0,0l0.2,0l0.2,0l0.3-0.1l0.1,0.1l1,0l0.3,0l0.1,0l0.1-0.1l0-0.2l-0.1-0.2L86,127l-0.1,0l0-0.1l0,0
		l0.1,0l-0.1-0.1l0.1-0.3l0-0.2l0-0.2l0.2-0.1l0.2,0l0.1,0l0.3,0.1l0.1,0l0.2,0l0.1,0l0.3,0.2l0.2,0.1l0.1,0.1l0.1,0.1l0.1,0l0.1,0
		l0.1-0.1l0.1,0l0.1,0l0.1,0.1l0.1,0l0.7,0l0.2,0.1l0.1,0.1l0.1,0.2l0.1,0.2l0.1,0.1l0.1,0.1l0.1,0l0.3-0.1l1,0l0.2,0.1l0,0.2l0,0
		l0.1,0l0.1,0l0.1,0.3l0.2,0.2l0.1,0.4l0.1,0.2l0.2-0.1l0.1-0.4l0.3,0L93,128l0.1,0l0.4,0.3l0.1,0l0.9,0.1l-0.1,0.2l0.1,0.1l0.2,0.1
		l0.1,0.1l-0.2,0l-0.1,0.1l-0.1,0.2l0,0.3l0,0l0,0l0,0l0,0l0.1,0.1l0.5,0.1l0.2,0.1l0.4,0.3l0.2,0l0.1,0l0.1,0.1l0.1,0.2l0.1,0.4
		l0.1,0.2l0.2,0.1l0.1,0.1l0.1,0l0.2,0l0.1,0l0.1-0.1l0.1-0.1l0.2-0.1l0-0.1l0.1-0.2l0-0.1l0.1-0.1l0.4,0l0.5-0.2l0.2,0l0.2,0.1
		l0.1,0.1l0.5,0.2l0.2,0.1l0.1,0l0.1,0.2l0.1,0.2l0.2,0.1l0.1,0l0.2,0.1l0.1,0l0.1,0l0.1-0.1l0.1-0.2l0.1-0.1l0.2,0l0.4,0.1l0.2,0
		l0.2,0l0,0l-0.1-0.1l-0.1-0.2l0.1-0.1l0.3-0.3l0.1-0.1l0.2,0l0.3,0l0.2,0l0.1-0.1l0.2-0.2l0.1-0.1l0.1,0l0.1,0l0.1,0l0.3-0.2
		l0.3,0.1l0.1-0.1l0.1,0l0.2,0l0.1,0l0.1,0.1l0.1,0.1l0.1,0.1l0.1,0.1l0.2,0.1l0.2,0l0.2,0l0.5-0.1l0-0.1l0-0.3l-0.3-0.4l-0.6-0.6
		l-0.1-0.2l-0.1-0.8l0-0.1l0-0.1l0,0l-0.1,0l0,0l-0.1-0.1l0-0.1l0-0.1l0.1-0.1l0.1,0.2l0,0l0-0.1l0.1-0.5l0-0.2l0-0.2l0-0.2l0-0.1
		l-0.1,0l-0.2-0.1l-0.1,0l-0.1,0l-0.1-0.1l-0.1-0.1l-0.1-0.1l0.3-0.3l0.1-0.1l0-0.1l0-0.2l0-0.1l0.1,0l0.1,0.1l0.1,0l0.1-0.1l0-0.1
		l-0.2-0.2l-0.1-0.2l0-0.2l0.1-0.1l0.2,0l-0.1,0.2l0,0.1l0,0.1l0.1,0l0-0.1l0-0.1l0.1-0.1l0-0.1l0-0.1l0-0.3l0-0.1l0.2-0.2l0-0.1
		l-0.1-0.1l-0.1-0.1l-0.1-0.1l-0.1-0.3l0-0.1l0.1,0h0.2l0,0l-0.1,0.1l-0.2,0.1v0.1l0.1,0.1l0,0.1l0,0l0.1,0l0.2-0.3l0-0.1l0.1-0.1
		l0.2-0.2l0.1-0.1l0.1-0.2l0.1-0.1l0.1-0.2l1.1-0.8l0.3-0.1l0.2,0l0.3,0.2l0.2-0.1l0.7-0.8l0.3-0.2l0.9-0.5l1.6-1.3v-0.1l-0.3,0.1
		l-0.2,0.2l-0.4,0.5l-0.4,0.4l-0.3,0.1l-0.3,0v-0.1l0.7-0.3l0.1-0.1l0-0.2l0.1-0.1l0.5-0.4l0.2-0.1l0.5-0.2l0.4-0.3l0.2-0.1l0.4-0.1
		l-0.1,0.2l-0.1,0.1l-0.1,0.1l-0.2,0l-0.4,0l-0.2,0.1l-0.1,0.1l0.3-0.1l0.5-0.1l0.5,0l0.2,0.2l0,0l0.2,0.6l0,0.1l0.1,0.1l0.2,0.1
		l0.2,0l2.5,0.1l0.3,0.1l0.2,0.2l0,0.2l-0.1,0.2l-0.1,0.2l0,0.1l0.2,0.1l0.3,0.1l1.2,0.1l0.3-0.1L119,120l-0.2-0.2l-0.2-0.2
		l-0.1-0.4v-0.8l0-0.1l-0.2-0.4v-0.1l0.1,0.1l0.1,0.2l0.1,0.2l0,0.2l0,0.2l0,0.6l0.1,0.3l0.3,0.3l0.3,0.2l0.3,0.1l-0.1-0.2l-0.1-0.1
		l0-0.1l0.1-0.2l0.1-0.1l0.2,0l0.1-0.1l0.2-0.1l0.4,0.3l0.2-0.1l0.2,0.1l0.2-0.1l0.1-0.2L121,119l-0.1-0.1l-0.1-0.1l-0.1-0.1l0-0.2
		l0-0.1l0-0.2l0.1-0.1l0.1-0.1l0,0l0.1,0.2l0,0l0.2,0l0.1,0l0.2,0.1l0,0.1l0,0.1l0.1,0.2l0.2,0.2l0.2,0l0.2-0.1l0.2-0.2l0,0.3
		l-0.1,0.2l-0.2,0.2l-0.2,0.1l-0.2,0.1H121l-0.2,0.1l-0.1,0.2l0,0.2l0.2,0.2l0.2,0.1l0.5,0l0.1,0l0.3,0.1l1.1-0.2l0.2,0.2v0.6l0,0.1
		l0.1,0.1l0.1,0l0,0l0,0.1l0,0.1l-0.1,0.2l-0.1,0.1l0,0.1l0.1,0.1l0.1,0l0.2,0l0.1,0.1l0.1,0l0.2,0l0.2,0l0.1,0.1l0,0.1l0.1,0
		l0.1-0.1l0.1-0.1l0.1,0l0.2,0.3l0.1,0.1l0.1,0l0,0l0,0l0.1,0l0,0l0-0.1l0-0.1l0,0l0.4,0l0.2,0.1l0,0.2l0.3,0.2l0.2,0.1l0.2,0l0.1,0
		l0,0.1l0.1,0l0.1,0l0.1,0l0,0l-0.3,0.1l-0.1,0.1l0,0.1l0.1,0.1l0.4,0.2l0.2,0l0.1-0.1l0-0.1l0.1-0.1l0.1,0l0.3,0v-0.1l-0.1-0.1
		l-0.2-0.2l-0.1-0.1l0.2-0.1l0.1,0l0.1,0l0,0.1l0,0.1l0,0.1l0.2-0.1l0.2,0l0.2,0.1l0.1,0.1l0.1,0l0.6,0l0.1,0v0.1l0,0.2l0,0l-0.3,0
		v0.1l0.1,0l0.5,0l0.1,0v-0.1h-0.1l-0.1,0l-0.1-0.1l0.1-0.2l0-0.2l0.1-0.2l0.2-0.1l0.1,0l0.5,0l0.1,0l0.1,0l0.1,0l0.1,0l0,0.1l0,0.1
		l0,0l0.3,0l0.1-0.1l-0.1-0.2l0-0.1l0-0.1l0-0.1l0.1-0.1l0.1-0.1l0.3,0l0.2-0.1l0.2-0.1l0.1,0l0.2,0l0.1,0l0.1-0.1l0.1-0.1l0.2-0.1
		l0.2,0l0.1,0.1l0,0.1l0,0.1l0,0.1l0.1,0l0.2-0.1l0.1,0l-0.1-0.1l0.3-0.3l0-0.1l0,0l0,0l0-0.1l0-0.1l0-0.1l0,0l0,0l0-0.1l0.1-0.2
		l0-0.1l-0.8,0l0,0l0-0.1l0.1-0.1l0.2-0.1l0.2,0l0.1-0.1l0-0.1l0.1-0.1l0.1-0.1l0.1,0l0.1-0.1l0.1-0.3l0.1-0.2l0.1-0.2l0.1-0.1
		l0.2,0.1l0.2,0.1l0.4,0l0,0l0-0.1l0-0.1l0,0.1l0,0l0,0l0.1,0l0,0l0,0l0-0.1l0,0h0.1l0,0l0,0l0.3-0.5l0,0l0,0l0-0.2l0,0l0.1-0.2
		l0.1-0.1l0.1-0.1l0.1-0.1l0.2,0.1l0.2-0.1l0.2-0.1l0.2-0.1l0,0l0,0.1l0,0.1l0.1,0l0,0l0,0l0-0.1l0-0.1l0-0.5l0-0.1l0.1,0l0.1-0.1
		l0.1-0.1l0.1,0l0.1,0l0.1,0l0.1,0l0.1-0.1l0.2-0.2l0.1-0.1l0.1,0l0.1,0l0.4-0.1l0,0.1l0,0l0.2,0l0-0.1l0-0.1l0.1-0.1l0.1,0l0-0.1
		l0.1-0.1l0.2-0.1l0.2,0.1l0.1-0.1l0.1,0l0.1,0l0.1,0l0,0l0.1,0l0,0l0-0.1l0,0l0,0l0,0h0l0.1-0.1l-0.2-0.5l0-0.3l0.1-0.2l0.3-0.4
		l0.2-0.3l0.4-0.3l0.2-0.2l0.1-0.1l0.1-0.2l0.1-0.1l0.1-0.1l0.1-0.1l0.1-0.1l0-0.2l-0.1-0.3l-0.2-0.2l-0.1-0.2l0.1-0.4l-0.2,0
		l-0.3,0.2l-0.2,0l-1.4,0.4l-0.3,0l-0.1,0l-0.1-0.1l0-0.1l-0.1-0.1l-0.1,0l-0.2,0l-0.2-0.1l-0.8-0.5l-0.3-0.1l-0.5-0.2l-0.1,0
		l-0.1,0l-0.1,0l-0.1,0l-0.1,0l-0.1-0.1l0-0.1l0-0.1l-0.1-0.1l-0.1-0.1l-0.2-0.1l-0.1-0.1l0-0.1l-0.1-0.2l-0.1-0.1l-0.2-0.2l0,0
		l0-0.1l0-0.1l0-0.1l0.1-0.3l0.1-0.1l0.3-0.1l-0.2-0.2l-0.2-0.3l-0.2-0.3l0-0.3l0.1-0.1l0.4-0.3l0.3-0.5l0.1-0.1l-0.1-0.2l0.1-0.2
		l0.1-0.2l0.2-0.1l0.1,0l0.3,0.1l0.1,0l0-0.1l-0.2-0.5l0-0.1l0-0.3l-0.1-0.2l0,0l0-0.2l0,0l0-0.1l0,0l0,0l0-0.1l0-0.1l-0.1-0.2
		l-0.4-0.2l-0.1,0l-0.4,0.1l-0.2,0l-0.5-0.3l-0.3-0.2l-0.1-0.2l0-0.6l-0.1-0.3l-0.2-0.2l-0.3,0l-0.1-0.1l-0.1-0.2l0-0.1l0-0.1l0-0.1
		l-0.1-0.1l-0.1-0.2l0.1-0.1l0.1-0.1l0.3-0.2l0.1,0l0.1,0l0.1,0l0.1,0l0.1-0.1l0.1,0l0.3,0l0.3,0.2l0.3,0.1l0.3-0.1l0-0.1l0-0.1
		l0-0.1l0-0.1l0.1,0l0.2,0l0.1,0l0.1-0.1l0.1-0.2l0.1-0.1l0.3-0.1l0.3-0.1l0.1,0l0.1,0.1l0,0l0.1-0.1l0.2-0.3l0.2-0.2v-0.2l-0.1-0.2
		l0-0.3l0-0.1l0.3-0.3l0.2-0.3l0.1-0.2l0-0.1l-0.1,0l-0.3-0.1l-0.1-0.1l-0.1-0.1l-0.1-0.1l-0.1-0.1l-0.3-0.3l-0.4-0.2l-0.1-0.2
		l0-0.5l0-0.1l-0.1-0.1l0-0.1l0-0.1l0.1-0.2l0-0.1l0-0.2l-0.1-0.1l-0.3-0.1l-0.1-0.1l-0.2-0.2l-0.1,0l-0.2,0l-0.2-0.2l-0.2-0.2
		l-0.1-0.5l0-0.2l0-0.2l0-0.2l0.1-0.2l0.1-0.1l0.2,0v0l0-0.1l0-0.1l0,0l0,0l0.1,0l0,0l0.1,0l0.2,0l0.2-0.1l0.2-0.1l0.2-0.1l0.1-0.2
		l0.1-0.2l0.1-0.1l0.1-0.1l0.1-0.1l-0.1-0.1l0-0.1l-0.1-0.2l-0.1-0.2l0-0.1l0,0l-0.5-0.6l-0.2-0.1l-0.1,0l-0.1,0.1l-0.1,0l-0.1,0
		l-0.1-0.1l0,0l0,0l0-0.1l0,0l0-0.1l0-0.1l0,0l0-0.1l0.1-0.1l0.1-0.1l0-0.1l-0.1-0.1l-0.6-0.1l-0.1-0.2l0.1-0.4l0.1-0.4l0.3-0.5
		l-0.2-0.3l-0.3-0.3l-0.2-0.3l0-0.1l0.2-0.2l0.1-0.2l0-0.2l-0.1-0.1l-0.1-0.1l-1.2-0.3l-0.5,0l-0.5,0.1l-0.7,0.5l-0.3,0.1l-0.3,0
		l-0.2,0.1l-0.3,0.2l-0.2,0.3l-0.2,0.2l0,0.2l0,0.1l0.1,0.2l0,0l0.1,0.2l0,0.1l0.1,0l0.1-0.1l0.1,0l0,0.3l-0.2,0.2l-0.5,0.3
		l-0.4,0.5l-0.3,0.1l-0.3-0.1l-0.4,0l-0.4,0.1l-0.2,0.1l0.1-0.3l0.1-0.1l0-0.1l-0.1-0.2l-0.1-0.2l0-0.1l0.2-0.1l0.5-0.2l0,0h0l0.1,0
		l0,0l0,0l0.2-0.1l0-0.1l0-0.1l0-0.1l0.1-0.3l0-0.1l0.3-0.6l0-0.1l-0.1-0.2l-0.1-0.1L129,86l0.1-0.1l0-0.1l0-0.1v-0.1l0,0l0,0l0-0.1
		v-0.1l0-0.1l0.1-0.1l0.3-0.5l0.3-0.4l-0.2-0.2l0-0.2l0.1-0.1l1.1-1l0.6-0.3l0.1-0.1l0.2-0.2l0.3-0.1l0.1-0.1l0.1-0.1l0-0.1l0-0.2
		l-0.1-0.1l0-0.1l0-0.1l0-0.1l0.1-0.4l0.1-0.1l0-0.1l0-0.2l0-0.1l-0.1-0.2l0-0.1L132,80l0.4-0.2l0.9-0.3l0.5-0.4l0.2-0.3l-0.1-0.2
		l0.1-0.2l0.1-0.1l0.2-0.1l0-0.1l0,0l0.1-0.1l0-0.2l0.2-0.1l0.5-0.5l0.2-0.2l0.2-0.2l0.5-0.4l0-0.3l0.1-0.2l0.1-0.2l0.1,0l0,0
		l0.1-0.2l0.1,0l0.1,0l0.1,0l0.1-0.1l-0.1-0.1l-0.1-0.1l-0.1-0.1l-0.1,0.1l-0.9,0.1l0-0.1l0.1-0.2l0.1-0.2l0.2-0.1l0-0.2l0.2,0
		l0.1-0.1l0.1-0.1l0.1-0.1l0-0.1l-0.1-0.2l0-0.1l0.1,0l0.1-0.1l0.1,0l0.1,0l0.1,0.1l0.2,0l0.4-0.1l0.2,0l0.1,0.1l0.1,0l0.2,0
		l-0.1,0.3l0,0.2l0.2,0.1l0.2,0.1l0,0l0,0l0,0l0.1,0l0.1,0l0.3-0.1l0.2,0l0.6,0l0.2-0.1l0.2-0.2l0-0.1l0-0.1l0-0.1l0,0l0-0.1v-0.1
		l0.1,0l0.1,0l0.1,0.1l0.1,0l0.1-0.1l0,0l0,0v0l0,0l-0.1-0.1l0,0l0,0l0,0l0.1,0l0.1,0l0-0.1l0-0.1l0,0l-0.1-0.1l0,0l0.3-0.3l0.2-0.1
		l0.3-0.1l0,0l0,0l0-0.1l0,0l0-0.1l0-0.1l0,0l0-0.1l-0.2-0.4l-0.1-0.2l-0.1-0.1l0-0.1l0-0.1l0-0.3l0-0.1l0.1-0.1l0-0.1l0-0.2
		l-0.1-0.4l0-0.2l0.1-0.4l0-0.1l0.1-0.1l0-0.1l0-0.2l0-0.1l0,0l0,0l0,0l0-0.1l0.1-0.1l0-0.1l0.1-0.1l0-0.1l0-0.2l0-0.2l0.2-0.2
		l0.1-0.1l0-0.4l-0.3-0.6l0-0.5l0.1-0.2l0.1-0.2l0.1-0.1l0.1-0.1l0-0.1l0-0.2l0.1-0.1l0.5-0.7l0.1-0.2l0.1-0.2l0-0.2l0.1-0.2
		l0.1-0.1l0.1-0.1l0.1-0.2l0-0.2l0-0.2l-0.1-0.2l0-0.1l0-0.2l0.1-0.3l0-0.1l0.1-0.1l0.1-0.1l0-0.1l0-0.2l0-0.1l0.1-0.1l0.2-0.2v-0.1
		l-0.1-0.3v-0.4l0.1-0.4l0.3-0.5l0.1-0.1l0.1,0l0.1-0.1l0.2-0.3l0.1-0.1l0.1-0.1l0.1-0.1l0-0.1l0-0.2l0-0.1l0.1,0l0.2,0l0.1,0l0,0
		l0-0.1l0-0.1l0-0.1l0,0l0,0l0.1,0l0.3-0.2l0,0l0.1-0.2l0.4-1l0.2-0.5l0.2-0.2l-0.1-0.1L145.2,55.9z M96.7,130.2L96.7,130.2l-0.1,0
		l-0.2,0l-0.1-0.1l0-0.1l0.1-0.2l0.1,0l0.1,0.1l0.1,0.2L96.7,130.2L96.7,130.2z"/>
	<g>
		<g>
			<path class="st1" d="M160.6,27.7c-15.8,0.2-37.7,15.5-43.8,31.5"/>
			<g>
				<path class="st2" d="M116.8,59.1c0.3-0.1,0.9-0.1,1.2,0c-0.6,0.2-1.1,0.4-1.6,0.9c0-0.6-0.3-1.2-0.6-1.7
					C116.2,58.5,116.6,58.7,116.8,59.1z"/>
			</g>
		</g>
	</g>
	<g>
		<path class="st3" d="M173.1,26.1h-0.9l-1.5-2.4h-1.2v2.4h-0.7v-6h2.4c0.6,0,1,0.2,1.4,0.5s0.5,0.8,0.5,1.3c0,0.5-0.2,0.9-0.4,1.2
			c-0.3,0.3-0.7,0.5-1.1,0.5L173.1,26.1z M171.1,23c0.4,0,0.6-0.1,0.9-0.3s0.3-0.5,0.3-0.8s-0.1-0.6-0.3-0.8s-0.5-0.3-0.9-0.3h-1.6
			V23H171.1z"/>
		<path class="st3" d="M177.8,26.1h-0.7v-0.6c-0.2,0.2-0.4,0.4-0.7,0.5c-0.3,0.1-0.6,0.2-0.9,0.2c-0.9,0-1.4-0.5-1.4-1.4v-3.1h0.7
			v2.9c0,0.4,0.1,0.6,0.2,0.8c0.2,0.2,0.4,0.2,0.7,0.2c0.3,0,0.5-0.1,0.7-0.2c0.2-0.1,0.4-0.3,0.6-0.5v-3.2h0.7V26.1z"/>
		<path class="st3" d="M180.5,26.2c-0.7,0-1.3-0.2-1.8-0.7l0.4-0.5c0.2,0.2,0.4,0.3,0.6,0.4c0.3,0.1,0.5,0.2,0.8,0.2
			c0.3,0,0.6-0.1,0.8-0.2c0.2-0.1,0.3-0.3,0.3-0.5c0-0.2-0.1-0.3-0.3-0.5s-0.4-0.2-0.7-0.3c-0.3-0.1-0.5-0.1-0.8-0.2
			c-0.3-0.1-0.5-0.2-0.7-0.4c-0.2-0.2-0.3-0.4-0.3-0.7c0-0.4,0.1-0.7,0.4-0.9c0.3-0.2,0.7-0.4,1.2-0.4c0.7,0,1.2,0.2,1.6,0.6
			l-0.3,0.5c-0.3-0.4-0.7-0.5-1.3-0.5c-0.3,0-0.5,0.1-0.7,0.2s-0.3,0.3-0.3,0.5c0,0.2,0.1,0.3,0.3,0.4c0.2,0.1,0.4,0.2,0.7,0.2
			c0.3,0.1,0.5,0.1,0.8,0.2s0.5,0.2,0.7,0.4s0.3,0.4,0.3,0.8c0,0.4-0.2,0.7-0.5,0.9C181.5,26,181.1,26.2,180.5,26.2z"/>
		<path class="st3" d="M184.7,26.2c-0.7,0-1.3-0.2-1.8-0.7l0.4-0.5c0.1,0.2,0.4,0.3,0.6,0.4s0.5,0.2,0.8,0.2c0.3,0,0.6-0.1,0.8-0.2
			c0.2-0.1,0.3-0.3,0.3-0.5c0-0.2-0.1-0.3-0.3-0.5s-0.4-0.2-0.7-0.3c-0.3-0.1-0.5-0.1-0.8-0.2c-0.3-0.1-0.5-0.2-0.7-0.4
			c-0.2-0.2-0.3-0.4-0.3-0.7c0-0.4,0.1-0.7,0.4-0.9c0.3-0.2,0.7-0.4,1.2-0.4c0.7,0,1.2,0.2,1.6,0.6l-0.3,0.5
			c-0.3-0.4-0.7-0.5-1.3-0.5c-0.3,0-0.5,0.1-0.7,0.2s-0.3,0.3-0.3,0.5c0,0.2,0.1,0.3,0.3,0.4c0.2,0.1,0.4,0.2,0.7,0.2
			c0.3,0.1,0.5,0.1,0.8,0.2c0.3,0.1,0.5,0.2,0.7,0.4c0.2,0.2,0.3,0.4,0.3,0.8c0,0.4-0.2,0.7-0.4,0.9C185.7,26,185.2,26.2,184.7,26.2
			z"/>
		<path class="st3" d="M187.8,21.1c-0.1,0-0.2,0-0.3-0.1c-0.1-0.1-0.1-0.2-0.1-0.3s0-0.2,0.1-0.3c0.1-0.1,0.2-0.1,0.3-0.1
			c0.1,0,0.2,0,0.3,0.1s0.1,0.2,0.1,0.3s0,0.2-0.1,0.3S188,21.1,187.8,21.1z M188.2,26.1h-0.7v-4.3h0.7V26.1z"/>
		<path class="st3" d="M192.9,26.1h-0.7v-0.5c-0.4,0.4-0.8,0.6-1.4,0.6c-0.4,0-0.8-0.1-1.1-0.4c-0.3-0.3-0.5-0.6-0.5-1.1
			c0-0.5,0.2-0.8,0.5-1.1c0.3-0.2,0.7-0.4,1.1-0.4c0.6,0,1.1,0.2,1.4,0.6v-0.8c0-0.3-0.1-0.5-0.3-0.7s-0.5-0.2-0.8-0.2
			c-0.5,0-1,0.2-1.3,0.6l-0.3-0.5c0.5-0.5,1-0.7,1.7-0.7c0.5,0,0.9,0.1,1.2,0.4c0.3,0.2,0.5,0.6,0.5,1.1V26.1z M191.1,25.7
			c0.5,0,0.9-0.2,1.2-0.5v-0.8c-0.3-0.4-0.7-0.5-1.2-0.5c-0.3,0-0.6,0.1-0.8,0.3s-0.3,0.4-0.3,0.7c0,0.3,0.1,0.5,0.3,0.7
			S190.7,25.7,191.1,25.7z"/>
	</g>
	<g>
		<path class="st3" d="M171.6,53.6c-0.9,0-1.6-0.3-2.2-0.9c-0.6-0.6-0.9-1.3-0.9-2.2s0.3-1.7,0.9-2.2c0.6-0.6,1.3-0.9,2.2-0.9
			c1,0,1.7,0.4,2.3,1.2l-0.6,0.4c-0.2-0.3-0.4-0.5-0.7-0.6s-0.6-0.2-0.9-0.2c-0.7,0-1.2,0.2-1.7,0.7c-0.4,0.5-0.7,1-0.7,1.8
			s0.2,1.3,0.7,1.8c0.4,0.5,1,0.7,1.7,0.7c0.3,0,0.7-0.1,0.9-0.2s0.5-0.4,0.7-0.6l0.6,0.4C173.3,53.2,172.5,53.6,171.6,53.6z"/>
		<path class="st3" d="M178.4,53.5h-0.7v-2.9c0-0.4-0.1-0.6-0.3-0.8c-0.2-0.2-0.4-0.2-0.7-0.2c-0.2,0-0.5,0.1-0.7,0.2
			c-0.2,0.1-0.4,0.3-0.6,0.5v3.2h-0.7v-6h0.7v2.3c0.2-0.2,0.4-0.4,0.7-0.5c0.3-0.1,0.6-0.2,0.9-0.2c0.9,0,1.4,0.5,1.4,1.4V53.5z"/>
		<path class="st3" d="M180.1,48.5c-0.1,0-0.2,0-0.3-0.1s-0.1-0.2-0.1-0.3s0-0.2,0.1-0.3s0.2-0.1,0.3-0.1c0.1,0,0.2,0,0.3,0.1
			s0.1,0.2,0.1,0.3s0,0.2-0.1,0.3S180.2,48.5,180.1,48.5z M180.4,53.5h-0.7v-4.3h0.7V53.5z"/>
		<path class="st3" d="M185.4,53.5h-0.7v-2.8c0-0.4-0.1-0.6-0.3-0.8c-0.2-0.2-0.4-0.2-0.7-0.2c-0.3,0-0.5,0.1-0.7,0.2
			s-0.4,0.3-0.6,0.5v3.2h-0.7v-4.3h0.7v0.6c0.2-0.2,0.4-0.4,0.7-0.5c0.3-0.1,0.6-0.2,0.9-0.2c0.9,0,1.4,0.5,1.4,1.4V53.5z"/>
		<path class="st3" d="M190.1,53.5h-0.7V53c-0.4,0.4-0.8,0.6-1.4,0.6c-0.4,0-0.8-0.1-1.1-0.4c-0.3-0.3-0.5-0.6-0.5-1.1
			c0-0.5,0.2-0.8,0.5-1.1s0.7-0.4,1.1-0.4c0.6,0,1.1,0.2,1.4,0.6v-0.8c0-0.3-0.1-0.5-0.3-0.7s-0.5-0.2-0.8-0.2c-0.5,0-1,0.2-1.3,0.6
			l-0.3-0.5c0.5-0.5,1-0.7,1.7-0.7c0.5,0,0.9,0.1,1.2,0.4c0.3,0.2,0.5,0.6,0.5,1.1V53.5z M188.3,53.1c0.5,0,0.9-0.2,1.2-0.5v-0.8
			c-0.3-0.4-0.7-0.5-1.2-0.5c-0.3,0-0.6,0.1-0.8,0.3c-0.2,0.2-0.3,0.4-0.3,0.7c0,0.3,0.1,0.5,0.3,0.7
			C187.7,53,187.9,53.1,188.3,53.1z"/>
	</g>
	<g>
		<path class="st3" d="M171.5,83.2h-2.7v-6h2.7c0.5,0,0.9,0.1,1.2,0.4c0.3,0.3,0.5,0.7,0.5,1.1c0,0.4-0.1,0.7-0.3,0.9
			c-0.2,0.2-0.5,0.4-0.7,0.5c0.3,0,0.6,0.2,0.8,0.5c0.2,0.3,0.3,0.6,0.3,1c0,0.5-0.2,0.9-0.5,1.2C172.4,83,172,83.2,171.5,83.2z
			 M171.3,79.8c0.3,0,0.6-0.1,0.8-0.3c0.2-0.2,0.3-0.4,0.3-0.7s-0.1-0.5-0.3-0.7c-0.2-0.2-0.4-0.3-0.8-0.3h-1.8v1.9H171.3z
			 M171.3,82.5c0.3,0,0.6-0.1,0.8-0.3c0.2-0.2,0.3-0.4,0.3-0.8c0-0.3-0.1-0.5-0.3-0.7c-0.2-0.2-0.5-0.3-0.8-0.3h-1.8v2.1H171.3z"/>
		<path class="st3" d="M177.8,83.2h-0.7v-0.5c-0.4,0.4-0.8,0.6-1.4,0.6c-0.4,0-0.8-0.1-1.1-0.4s-0.5-0.6-0.5-1.1
			c0-0.5,0.2-0.8,0.5-1.1s0.7-0.4,1.1-0.4c0.6,0,1.1,0.2,1.4,0.6v-0.8c0-0.3-0.1-0.5-0.3-0.7c-0.2-0.2-0.5-0.2-0.8-0.2
			c-0.5,0-1,0.2-1.3,0.6l-0.3-0.5c0.5-0.5,1-0.7,1.7-0.7c0.5,0,0.9,0.1,1.2,0.4c0.3,0.2,0.5,0.6,0.5,1.1V83.2z M175.9,82.8
			c0.5,0,0.9-0.2,1.2-0.5v-0.8c-0.3-0.4-0.7-0.5-1.2-0.5c-0.3,0-0.6,0.1-0.8,0.3c-0.2,0.2-0.3,0.4-0.3,0.7c0,0.3,0.1,0.5,0.3,0.7
			C175.3,82.7,175.6,82.8,175.9,82.8z"/>
		<path class="st3" d="M182.7,83.2H182v-2.8c0-0.4-0.1-0.6-0.3-0.8c-0.2-0.2-0.4-0.2-0.7-0.2c-0.3,0-0.5,0.1-0.7,0.2
			c-0.2,0.1-0.4,0.3-0.6,0.5v3.2h-0.7v-4.3h0.7v0.6c0.2-0.2,0.4-0.4,0.7-0.5c0.3-0.1,0.6-0.2,0.9-0.2c0.9,0,1.4,0.5,1.4,1.4V83.2z"
			/>
		<path class="st3" d="M185.8,85c-0.4,0-0.7,0-1-0.1s-0.5-0.3-0.8-0.5l0.3-0.5c0.3,0.4,0.8,0.6,1.4,0.6c0.4,0,0.7-0.1,1-0.3
			c0.3-0.2,0.4-0.5,0.4-1v-0.6c-0.2,0.2-0.4,0.4-0.6,0.6c-0.3,0.1-0.5,0.2-0.8,0.2c-0.6,0-1-0.2-1.4-0.6s-0.5-1-0.5-1.6
			c0-0.7,0.2-1.2,0.5-1.6c0.4-0.4,0.8-0.6,1.4-0.6c0.6,0,1.1,0.3,1.5,0.8v-0.7h0.7v4.2c0,0.7-0.2,1.1-0.6,1.4S186.4,85,185.8,85z
			 M185.9,82.7c0.3,0,0.5-0.1,0.8-0.2c0.2-0.1,0.4-0.3,0.5-0.5V80c-0.1-0.2-0.3-0.4-0.5-0.5c-0.2-0.1-0.5-0.2-0.8-0.2
			c-0.4,0-0.8,0.2-1,0.5c-0.2,0.3-0.4,0.7-0.4,1.2c0,0.5,0.1,0.9,0.4,1.2C185.1,82.5,185.5,82.7,185.9,82.7z"/>
		<path class="st3" d="M189.9,83.2h-0.7v-6h0.7V83.2z"/>
		<path class="st3" d="M194.6,83.2H194v-0.5c-0.4,0.4-0.8,0.6-1.4,0.6c-0.4,0-0.8-0.1-1.1-0.4c-0.3-0.3-0.5-0.6-0.5-1.1
			c0-0.5,0.2-0.8,0.5-1.1c0.3-0.2,0.7-0.4,1.1-0.4c0.6,0,1.1,0.2,1.4,0.6v-0.8c0-0.3-0.1-0.5-0.3-0.7s-0.5-0.2-0.8-0.2
			c-0.5,0-1,0.2-1.3,0.6l-0.3-0.5c0.5-0.5,1-0.7,1.7-0.7c0.5,0,0.9,0.1,1.2,0.4c0.3,0.2,0.5,0.6,0.5,1.1V83.2z M192.8,82.8
			c0.5,0,0.9-0.2,1.2-0.5v-0.8c-0.3-0.4-0.7-0.5-1.2-0.5c-0.3,0-0.6,0.1-0.8,0.3s-0.3,0.4-0.3,0.7c0,0.3,0.1,0.5,0.3,0.7
			S192.5,82.8,192.8,82.8z"/>
		<path class="st3" d="M199.8,83.2h-0.7v-0.6c-0.4,0.5-0.9,0.8-1.5,0.8c-0.6,0-1-0.2-1.4-0.6c-0.4-0.4-0.5-1-0.5-1.7
			c0-0.7,0.2-1.2,0.5-1.7c0.4-0.4,0.8-0.6,1.4-0.6c0.6,0,1.1,0.3,1.5,0.8v-2.3h0.7V83.2z M197.8,82.7c0.3,0,0.5-0.1,0.8-0.2
			c0.2-0.1,0.4-0.3,0.5-0.5v-2c-0.1-0.2-0.3-0.4-0.6-0.5c-0.2-0.1-0.5-0.2-0.8-0.2c-0.4,0-0.8,0.2-1,0.5c-0.3,0.3-0.4,0.7-0.4,1.2
			s0.1,0.9,0.4,1.2C197.1,82.5,197.4,82.7,197.8,82.7z"/>
		<path class="st3" d="M203.1,83.3c-0.6,0-1.2-0.2-1.6-0.6c-0.4-0.4-0.6-1-0.6-1.7c0-0.6,0.2-1.2,0.6-1.6c0.4-0.4,0.9-0.7,1.5-0.7
			c0.6,0,1.2,0.2,1.5,0.7c0.4,0.4,0.6,1,0.6,1.7v0.2h-3.5c0,0.4,0.2,0.8,0.5,1.1c0.3,0.3,0.6,0.4,1.1,0.4c0.5,0,1-0.2,1.3-0.5
			l0.3,0.4C204.4,83.1,203.8,83.3,203.1,83.3z M204.5,80.7c0-0.4-0.1-0.7-0.4-1c-0.2-0.3-0.6-0.4-1.1-0.4c-0.4,0-0.8,0.1-1,0.4
			c-0.2,0.3-0.4,0.6-0.4,1H204.5z"/>
		<path class="st3" d="M207.6,83.3c-0.7,0-1.3-0.2-1.8-0.7l0.4-0.5c0.1,0.2,0.4,0.3,0.6,0.4c0.3,0.1,0.5,0.2,0.8,0.2
			c0.3,0,0.6-0.1,0.8-0.2c0.2-0.1,0.3-0.3,0.3-0.5c0-0.2-0.1-0.3-0.3-0.5c-0.2-0.1-0.4-0.2-0.7-0.3c-0.3-0.1-0.5-0.1-0.8-0.2
			s-0.5-0.2-0.7-0.4c-0.2-0.2-0.3-0.4-0.3-0.7c0-0.4,0.1-0.7,0.4-0.9c0.3-0.2,0.7-0.4,1.2-0.4c0.7,0,1.2,0.2,1.6,0.6l-0.3,0.5
			c-0.3-0.4-0.7-0.5-1.3-0.5c-0.3,0-0.5,0.1-0.7,0.2c-0.2,0.1-0.3,0.3-0.3,0.5c0,0.2,0.1,0.3,0.3,0.4c0.2,0.1,0.4,0.2,0.7,0.2
			c0.3,0.1,0.5,0.1,0.8,0.2c0.3,0.1,0.5,0.2,0.7,0.4s0.3,0.4,0.3,0.8c0,0.4-0.2,0.7-0.5,0.9C208.6,83.2,208.2,83.3,207.6,83.3z"/>
		<path class="st3" d="M214,83.2h-0.7v-2.9c0-0.4-0.1-0.6-0.3-0.8c-0.2-0.2-0.4-0.2-0.7-0.2c-0.2,0-0.5,0.1-0.7,0.2
			c-0.2,0.1-0.4,0.3-0.6,0.5v3.2h-0.7v-6h0.7v2.3c0.2-0.2,0.4-0.4,0.7-0.5c0.3-0.1,0.6-0.2,0.9-0.2c0.9,0,1.4,0.5,1.4,1.4V83.2z"/>
	</g>
	<g>
		<path class="st3" d="M173.3,114.1h-0.9l-2.3-2.7l-0.6,0.7v2h-0.7v-6h0.7v3.1l2.7-3.1h0.9l-2.5,2.9L173.3,114.1z"/>
		<path class="st3" d="M177.3,113.5c-0.4,0.4-0.9,0.7-1.6,0.7c-0.6,0-1.2-0.2-1.6-0.7c-0.4-0.4-0.6-1-0.6-1.6c0-0.6,0.2-1.2,0.6-1.6
			c0.4-0.4,0.9-0.7,1.6-0.7c0.6,0,1.2,0.2,1.6,0.7c0.4,0.4,0.6,1,0.6,1.6C177.9,112.6,177.7,113.1,177.3,113.5z M174.6,113.1
			c0.3,0.3,0.6,0.5,1.1,0.5s0.8-0.2,1.1-0.5s0.4-0.7,0.4-1.2c0-0.5-0.1-0.9-0.4-1.2s-0.6-0.5-1.1-0.5s-0.8,0.2-1.1,0.5
			c-0.3,0.3-0.4,0.7-0.4,1.2C174.3,112.4,174.4,112.8,174.6,113.1z"/>
		<path class="st3" d="M180.3,114.2c-0.7,0-1.3-0.2-1.8-0.7l0.4-0.5c0.2,0.2,0.4,0.3,0.6,0.4c0.3,0.1,0.5,0.2,0.8,0.2
			c0.3,0,0.6-0.1,0.8-0.2c0.2-0.1,0.3-0.3,0.3-0.5c0-0.2-0.1-0.3-0.3-0.5s-0.4-0.2-0.7-0.3c-0.3-0.1-0.5-0.1-0.8-0.2
			c-0.3-0.1-0.5-0.2-0.7-0.4c-0.2-0.2-0.3-0.4-0.3-0.7c0-0.4,0.1-0.7,0.4-0.9c0.3-0.2,0.7-0.4,1.2-0.4c0.7,0,1.2,0.2,1.6,0.6
			l-0.3,0.5c-0.3-0.4-0.7-0.5-1.3-0.5c-0.3,0-0.5,0.1-0.7,0.2s-0.3,0.3-0.3,0.5c0,0.2,0.1,0.3,0.3,0.4c0.2,0.1,0.4,0.2,0.7,0.2
			c0.3,0.1,0.5,0.1,0.8,0.2s0.5,0.2,0.7,0.4s0.3,0.4,0.3,0.8c0,0.4-0.2,0.7-0.5,0.9C181.3,114.1,180.9,114.2,180.3,114.2z"/>
		<path class="st3" d="M186.6,113.5c-0.4,0.4-0.9,0.7-1.6,0.7s-1.2-0.2-1.6-0.7c-0.4-0.4-0.6-1-0.6-1.6c0-0.6,0.2-1.2,0.6-1.6
			c0.4-0.4,0.9-0.7,1.6-0.7s1.2,0.2,1.6,0.7c0.4,0.4,0.6,1,0.6,1.6C187.2,112.6,187,113.1,186.6,113.5z M184,113.1
			c0.3,0.3,0.6,0.5,1.1,0.5c0.4,0,0.8-0.2,1.1-0.5s0.4-0.7,0.4-1.2c0-0.5-0.1-0.9-0.4-1.2s-0.6-0.5-1.1-0.5c-0.4,0-0.8,0.2-1.1,0.5
			s-0.4,0.7-0.4,1.2C183.6,112.4,183.7,112.8,184,113.1z"/>
		<path class="st3" d="M190.2,114.1h-0.7l-1.8-4.3h0.7l1.4,3.6l1.4-3.6h0.7L190.2,114.1z"/>
		<path class="st3" d="M196.2,113.5c-0.4,0.4-0.9,0.7-1.6,0.7c-0.6,0-1.2-0.2-1.6-0.7c-0.4-0.4-0.6-1-0.6-1.6c0-0.6,0.2-1.2,0.6-1.6
			c0.4-0.4,0.9-0.7,1.6-0.7c0.6,0,1.2,0.2,1.6,0.7c0.4,0.4,0.6,1,0.6,1.6C196.7,112.6,196.6,113.1,196.2,113.5z M193.5,113.1
			c0.3,0.3,0.6,0.5,1.1,0.5s0.8-0.2,1.1-0.5s0.4-0.7,0.4-1.2c0-0.5-0.1-0.9-0.4-1.2s-0.6-0.5-1.1-0.5s-0.8,0.2-1.1,0.5
			c-0.3,0.3-0.4,0.7-0.4,1.2C193.1,112.4,193.3,112.8,193.5,113.1z"/>
	</g>
	<g>
		<path class="st3" d="M7.5,24.1H6.7l-0.5-1.3h-3l-0.5,1.3H1.8l2.4-6h0.9L7.5,24.1z M5.9,22.1l-1.3-3.2l-1.3,3.2H5.9z"/>
		<path class="st3" d="M9,24.1H8.3v-6H9V24.1z"/>
		<path class="st3" d="M11,24.1h-0.7v-6H11v2.3c0.4-0.5,0.9-0.8,1.5-0.8c0.6,0,1,0.2,1.4,0.6c0.4,0.4,0.5,1,0.5,1.7
			c0,0.7-0.2,1.2-0.5,1.7c-0.4,0.4-0.8,0.6-1.4,0.6c-0.6,0-1.1-0.3-1.5-0.8V24.1z M11,23c0.1,0.2,0.3,0.4,0.5,0.5
			c0.2,0.1,0.5,0.2,0.8,0.2c0.4,0,0.8-0.2,1-0.5s0.4-0.7,0.4-1.2s-0.1-0.9-0.4-1.2c-0.3-0.3-0.6-0.5-1-0.5c-0.3,0-0.5,0.1-0.8,0.2
			c-0.2,0.1-0.4,0.3-0.5,0.5V23z"/>
		<path class="st3" d="M18.9,24.1h-0.7v-0.5c-0.4,0.4-0.8,0.6-1.4,0.6c-0.4,0-0.8-0.1-1.1-0.4c-0.3-0.3-0.5-0.6-0.5-1.1
			c0-0.5,0.2-0.8,0.5-1.1s0.7-0.4,1.1-0.4c0.6,0,1.1,0.2,1.4,0.6v-0.8c0-0.3-0.1-0.5-0.3-0.7s-0.5-0.2-0.8-0.2c-0.5,0-1,0.2-1.3,0.6
			l-0.3-0.5c0.5-0.5,1-0.7,1.7-0.7c0.5,0,0.9,0.1,1.2,0.4c0.3,0.2,0.5,0.6,0.5,1.1V24.1z M17,23.8c0.5,0,0.9-0.2,1.2-0.5v-0.8
			c-0.3-0.4-0.7-0.5-1.2-0.5c-0.3,0-0.6,0.1-0.8,0.3c-0.2,0.2-0.3,0.4-0.3,0.7c0,0.3,0.1,0.5,0.3,0.7C16.4,23.7,16.7,23.8,17,23.8z"
			/>
		<path class="st3" d="M23.8,24.1h-0.7v-2.8c0-0.4-0.1-0.6-0.3-0.8c-0.2-0.2-0.4-0.2-0.7-0.2c-0.3,0-0.5,0.1-0.7,0.2
			c-0.2,0.1-0.4,0.3-0.6,0.5v3.2h-0.7v-4.3h0.7v0.6c0.2-0.2,0.4-0.4,0.7-0.5c0.3-0.1,0.6-0.2,0.9-0.2c0.9,0,1.4,0.5,1.4,1.4V24.1z"
			/>
		<path class="st3" d="M25.5,19.2c-0.1,0-0.2,0-0.3-0.1c-0.1-0.1-0.1-0.2-0.1-0.3s0-0.2,0.1-0.3c0.1-0.1,0.2-0.1,0.3-0.1
			c0.1,0,0.2,0,0.3,0.1s0.1,0.2,0.1,0.3s0,0.2-0.1,0.3S25.6,19.2,25.5,19.2z M25.9,24.1h-0.7v-4.3h0.7V24.1z"/>
		<path class="st3" d="M30.6,24.1h-0.7v-0.5c-0.4,0.4-0.8,0.6-1.4,0.6c-0.4,0-0.8-0.1-1.1-0.4S27,23.3,27,22.8
			c0-0.5,0.2-0.8,0.5-1.1s0.7-0.4,1.1-0.4c0.6,0,1.1,0.2,1.4,0.6v-0.8c0-0.3-0.1-0.5-0.3-0.7c-0.2-0.2-0.5-0.2-0.8-0.2
			c-0.5,0-1,0.2-1.3,0.6l-0.3-0.5c0.5-0.5,1-0.7,1.7-0.7c0.5,0,0.9,0.1,1.2,0.4c0.3,0.2,0.5,0.6,0.5,1.1V24.1z M28.7,23.8
			c0.5,0,0.9-0.2,1.2-0.5v-0.8c-0.3-0.4-0.7-0.5-1.2-0.5c-0.3,0-0.6,0.1-0.8,0.3c-0.2,0.2-0.3,0.4-0.3,0.7c0,0.3,0.1,0.5,0.3,0.7
			C28.2,23.7,28.4,23.8,28.7,23.8z"/>
	</g>
	<g>
		<path class="st3" d="M95,6h-0.7V0H95V6z"/>
		<path class="st3" d="M97.1,6h-0.7V1.7h0.7v0.7c0.4-0.5,0.9-0.8,1.4-0.8v0.7c-0.1,0-0.2,0-0.3,0c-0.2,0-0.4,0.1-0.7,0.2
			c-0.2,0.1-0.4,0.3-0.5,0.5V6z"/>
		<path class="st3" d="M102.8,6h-0.7V5.5c-0.4,0.4-0.8,0.6-1.4,0.6c-0.4,0-0.8-0.1-1.1-0.4c-0.3-0.3-0.5-0.6-0.5-1.1
			c0-0.5,0.2-0.8,0.5-1.1c0.3-0.2,0.7-0.4,1.1-0.4c0.6,0,1.1,0.2,1.4,0.6V3.1c0-0.3-0.1-0.5-0.3-0.7c-0.2-0.2-0.5-0.2-0.8-0.2
			c-0.5,0-1,0.2-1.3,0.6l-0.3-0.5c0.5-0.5,1-0.7,1.7-0.7c0.5,0,0.9,0.1,1.2,0.4c0.3,0.2,0.5,0.6,0.5,1.1V6z M100.9,5.6
			c0.5,0,0.9-0.2,1.2-0.5V4.3c-0.3-0.4-0.7-0.5-1.2-0.5c-0.3,0-0.6,0.1-0.8,0.3c-0.2,0.2-0.3,0.4-0.3,0.7c0,0.3,0.1,0.5,0.3,0.7
			S100.6,5.6,100.9,5.6z"/>
		<path class="st3" d="M105.8,6.1c-0.6,0-1-0.2-1.4-0.6c-0.4-0.4-0.5-1-0.5-1.7c0-0.7,0.2-1.2,0.5-1.7c0.4-0.4,0.8-0.6,1.4-0.6
			c0.3,0,0.6,0.1,0.8,0.2c0.3,0.1,0.5,0.3,0.6,0.5V1.7h0.7v6h-0.7V5.3C106.9,5.9,106.4,6.1,105.8,6.1z M105.9,5.5
			c0.3,0,0.5-0.1,0.8-0.2c0.2-0.1,0.4-0.3,0.5-0.5v-2c-0.1-0.2-0.3-0.4-0.5-0.5c-0.2-0.1-0.5-0.2-0.8-0.2c-0.4,0-0.8,0.2-1,0.5
			c-0.2,0.3-0.4,0.7-0.4,1.2s0.1,0.9,0.4,1.2C105.2,5.4,105.5,5.5,105.9,5.5z"/>
	</g>
	<g>
		<path class="st3" d="M14.6,139.2c-1,0-1.7-0.3-2.3-1l0.4-0.6c0.5,0.6,1.1,0.9,1.9,0.9c0.5,0,0.8-0.1,1.1-0.3
			c0.2-0.2,0.3-0.4,0.3-0.7c0-0.2-0.1-0.4-0.2-0.5c-0.1-0.1-0.3-0.3-0.5-0.3s-0.4-0.2-0.7-0.2c-0.3-0.1-0.5-0.1-0.8-0.2
			c-0.3-0.1-0.5-0.2-0.7-0.3s-0.4-0.3-0.5-0.5c-0.1-0.2-0.2-0.5-0.2-0.7c0-0.5,0.2-0.9,0.6-1.2c0.4-0.3,0.9-0.5,1.5-0.5
			c0.9,0,1.6,0.3,2.1,0.8l-0.5,0.5c-0.4-0.5-1-0.7-1.7-0.7c-0.4,0-0.7,0.1-0.9,0.3c-0.2,0.2-0.3,0.4-0.3,0.7c0,0.2,0.1,0.4,0.3,0.5
			c0.2,0.1,0.4,0.2,0.7,0.3c0.3,0.1,0.5,0.1,0.9,0.2c0.3,0.1,0.6,0.2,0.9,0.3c0.3,0.1,0.5,0.3,0.7,0.5c0.2,0.2,0.3,0.5,0.3,0.9
			c0,0.5-0.2,0.9-0.5,1.3C15.9,139.1,15.3,139.2,14.6,139.2z"/>
		<path class="st3" d="M17.6,140.8l0.1-0.6c0.1,0,0.2,0.1,0.4,0.1c0.2,0,0.3,0,0.4-0.1c0.1-0.1,0.2-0.2,0.3-0.4l0.3-0.7l-1.8-4.4
			h0.7l1.4,3.6l1.4-3.6h0.7l-2.2,5.2c-0.2,0.6-0.7,0.9-1.3,0.9C17.9,140.9,17.7,140.9,17.6,140.8z"/>
		<path class="st3" d="M22.9,139.1h-0.7v-4.3h0.7v0.7c0.4-0.5,0.9-0.8,1.4-0.8v0.7c-0.1,0-0.2,0-0.3,0c-0.2,0-0.4,0.1-0.7,0.2
			c-0.2,0.1-0.4,0.3-0.5,0.5V139.1z"/>
		<path class="st3" d="M25.5,134.2c-0.1,0-0.2,0-0.3-0.1s-0.1-0.2-0.1-0.3s0-0.2,0.1-0.3s0.2-0.1,0.3-0.1c0.1,0,0.2,0,0.3,0.1
			s0.1,0.2,0.1,0.3s0,0.2-0.1,0.3S25.6,134.2,25.5,134.2z M25.9,139.1h-0.7v-4.3h0.7V139.1z"/>
		<path class="st3" d="M30.6,139.1h-0.7v-0.5c-0.4,0.4-0.8,0.6-1.4,0.6c-0.4,0-0.8-0.1-1.1-0.4c-0.3-0.3-0.5-0.6-0.5-1.1
			c0-0.5,0.2-0.8,0.5-1.1s0.7-0.4,1.1-0.4c0.6,0,1.1,0.2,1.4,0.6v-0.8c0-0.3-0.1-0.5-0.3-0.7s-0.5-0.2-0.8-0.2c-0.5,0-1,0.2-1.3,0.6
			l-0.3-0.5c0.5-0.5,1-0.7,1.7-0.7c0.5,0,0.9,0.1,1.2,0.4c0.3,0.2,0.5,0.6,0.5,1.1V139.1z M28.7,138.7c0.5,0,0.9-0.2,1.2-0.5v-0.8
			c-0.3-0.4-0.7-0.5-1.2-0.5c-0.3,0-0.6,0.1-0.8,0.3c-0.2,0.2-0.3,0.4-0.3,0.7c0,0.3,0.1,0.5,0.3,0.7
			C28.2,138.7,28.4,138.7,28.7,138.7z"/>
	</g>
	<g>
		<path class="st3" d="M8.8,49.2c-1,0-1.7-0.3-2.3-1l0.4-0.6c0.5,0.6,1.1,0.9,1.9,0.9c0.5,0,0.8-0.1,1.1-0.3
			c0.2-0.2,0.3-0.4,0.3-0.7c0-0.2-0.1-0.4-0.2-0.5c-0.1-0.1-0.3-0.3-0.5-0.3s-0.4-0.2-0.7-0.2c-0.3-0.1-0.5-0.1-0.8-0.2
			c-0.3-0.1-0.5-0.2-0.7-0.3S7,45.6,6.9,45.4c-0.1-0.2-0.2-0.5-0.2-0.7c0-0.5,0.2-0.9,0.6-1.2C7.7,43.1,8.2,43,8.8,43
			c0.9,0,1.6,0.3,2.1,0.8l-0.5,0.5c-0.4-0.5-1-0.7-1.7-0.7c-0.4,0-0.7,0.1-0.9,0.3c-0.2,0.2-0.3,0.4-0.3,0.7c0,0.2,0.1,0.4,0.3,0.5
			c0.2,0.1,0.4,0.2,0.7,0.3c0.3,0.1,0.5,0.1,0.9,0.2c0.3,0.1,0.6,0.2,0.9,0.3c0.3,0.1,0.5,0.3,0.7,0.5c0.2,0.2,0.3,0.5,0.3,0.9
			c0,0.5-0.2,0.9-0.5,1.3C10.1,49,9.6,49.2,8.8,49.2z"/>
		<path class="st3" d="M15.7,49.1H15v-0.6c-0.2,0.2-0.4,0.4-0.7,0.5c-0.3,0.1-0.6,0.2-0.9,0.2c-0.9,0-1.4-0.5-1.4-1.4v-3.1h0.7v2.9
			c0,0.4,0.1,0.6,0.2,0.8c0.2,0.2,0.4,0.2,0.7,0.2c0.3,0,0.5-0.1,0.7-0.2c0.2-0.1,0.4-0.3,0.6-0.5v-3.2h0.7V49.1z"/>
		<path class="st3" d="M20.9,49.1h-0.7v-0.6c-0.4,0.5-0.9,0.8-1.5,0.8c-0.6,0-1-0.2-1.4-0.6c-0.4-0.4-0.5-1-0.5-1.7
			c0-0.7,0.2-1.2,0.5-1.7c0.4-0.4,0.8-0.6,1.4-0.6c0.6,0,1.1,0.3,1.5,0.8v-2.3h0.7V49.1z M18.9,48.6c0.3,0,0.5-0.1,0.8-0.2
			s0.4-0.3,0.5-0.5v-2c-0.1-0.2-0.3-0.4-0.6-0.5c-0.2-0.1-0.5-0.2-0.8-0.2c-0.4,0-0.8,0.2-1,0.5c-0.3,0.3-0.4,0.7-0.4,1.2
			s0.1,0.9,0.4,1.2C18.2,48.4,18.5,48.6,18.9,48.6z"/>
		<path class="st3" d="M25.6,49.1H25v-0.5c-0.4,0.4-0.8,0.6-1.4,0.6c-0.4,0-0.8-0.1-1.1-0.4c-0.3-0.3-0.5-0.6-0.5-1.1
			c0-0.5,0.2-0.8,0.5-1.1s0.7-0.4,1.1-0.4c0.6,0,1.1,0.2,1.4,0.6v-0.8c0-0.3-0.1-0.5-0.3-0.7s-0.5-0.2-0.8-0.2c-0.5,0-1,0.2-1.3,0.6
			l-0.3-0.5c0.5-0.5,1-0.7,1.7-0.7c0.5,0,0.9,0.1,1.2,0.4c0.3,0.2,0.5,0.6,0.5,1.1V49.1z M23.8,48.7c0.5,0,0.9-0.2,1.2-0.5v-0.8
			c-0.3-0.4-0.7-0.5-1.2-0.5c-0.3,0-0.6,0.1-0.8,0.3c-0.2,0.2-0.3,0.4-0.3,0.7c0,0.3,0.1,0.5,0.3,0.7C23.2,48.6,23.5,48.7,23.8,48.7
			z"/>
		<path class="st3" d="M30.6,49.1h-0.7v-2.8c0-0.4-0.1-0.6-0.3-0.8c-0.2-0.2-0.4-0.2-0.7-0.2c-0.3,0-0.5,0.1-0.7,0.2
			c-0.2,0.1-0.4,0.3-0.6,0.5v3.2H27v-4.3h0.7v0.6c0.2-0.2,0.4-0.4,0.7-0.5c0.3-0.1,0.6-0.2,0.9-0.2c0.9,0,1.4,0.5,1.4,1.4V49.1z"/>
	</g>
	<g>
		<path class="st3" d="M19.1,76.4h-0.7v-2.8h-3.5v2.8h-0.7v-6h0.7V73h3.5v-2.6h0.7V76.4z"/>
		<path class="st3" d="M23.9,76.4h-0.7v-0.5c-0.4,0.4-0.8,0.6-1.4,0.6c-0.4,0-0.8-0.1-1.1-0.4c-0.3-0.3-0.5-0.6-0.5-1.1
			c0-0.5,0.2-0.8,0.5-1.1c0.3-0.2,0.7-0.4,1.1-0.4c0.6,0,1.1,0.2,1.4,0.6v-0.8c0-0.3-0.1-0.5-0.3-0.7c-0.2-0.2-0.5-0.2-0.8-0.2
			c-0.5,0-1,0.2-1.3,0.6l-0.3-0.5c0.5-0.5,1-0.7,1.7-0.7c0.5,0,0.9,0.1,1.2,0.4c0.3,0.2,0.5,0.6,0.5,1.1V76.4z M22,76
			c0.5,0,0.9-0.2,1.2-0.5v-0.8c-0.3-0.4-0.7-0.5-1.2-0.5c-0.3,0-0.6,0.1-0.8,0.3S21,74.8,21,75.1c0,0.3,0.1,0.5,0.3,0.7
			S21.7,76,22,76z"/>
		<path class="st3" d="M25.6,71.4c-0.1,0-0.2,0-0.3-0.1s-0.1-0.2-0.1-0.3s0-0.2,0.1-0.3s0.2-0.1,0.3-0.1c0.1,0,0.2,0,0.3,0.1
			S26,70.9,26,71s0,0.2-0.1,0.3S25.7,71.4,25.6,71.4z M25.9,76.4h-0.7v-4.3h0.7V76.4z"/>
		<path class="st3" d="M28.4,76.5c-0.3,0-0.6-0.1-0.7-0.3s-0.2-0.4-0.2-0.8v-2.8h-0.7v-0.6h0.7v-1.2h0.7v1.2H29v0.6h-0.9v2.7
			c0,0.2,0,0.3,0.1,0.4c0.1,0.1,0.2,0.2,0.3,0.2c0.2,0,0.4-0.1,0.5-0.2l0.2,0.5C29,76.4,28.7,76.5,28.4,76.5z"/>
		<path class="st3" d="M30.3,71.4c-0.1,0-0.2,0-0.3-0.1c-0.1-0.1-0.1-0.2-0.1-0.3s0-0.2,0.1-0.3c0.1-0.1,0.2-0.1,0.3-0.1
			c0.1,0,0.2,0,0.3,0.1s0.1,0.2,0.1,0.3s0,0.2-0.1,0.3S30.4,71.4,30.3,71.4z M30.6,76.4h-0.7v-4.3h0.7V76.4z"/>
	</g>
	<g>
		<path class="st3" d="M16.2,107.9h-2.1v-6h2.1c0.9,0,1.7,0.3,2.2,0.9c0.6,0.6,0.8,1.3,0.8,2.2c0,0.9-0.3,1.6-0.8,2.2
			C17.8,107.6,17.1,107.9,16.2,107.9z M16.2,107.2c0.7,0,1.3-0.2,1.7-0.7c0.4-0.4,0.6-1,0.6-1.7c0-0.7-0.2-1.2-0.6-1.7
			c-0.4-0.4-1-0.7-1.7-0.7h-1.3v4.7H16.2z"/>
		<path class="st3" d="M24.8,107.9h-0.9l-1.5-2.4h-1.2v2.4h-0.7v-6h2.4c0.6,0,1,0.2,1.4,0.5s0.5,0.8,0.5,1.3c0,0.5-0.2,0.9-0.4,1.2
			c-0.3,0.3-0.7,0.5-1.1,0.5L24.8,107.9z M22.7,104.8c0.4,0,0.6-0.1,0.9-0.3c0.2-0.2,0.3-0.5,0.3-0.8s-0.1-0.6-0.3-0.8
			s-0.5-0.3-0.9-0.3h-1.6v2.3H22.7z"/>
		<path class="st3" d="M28.7,108c-0.9,0-1.6-0.3-2.2-0.9c-0.6-0.6-0.9-1.3-0.9-2.2s0.3-1.7,0.9-2.2c0.6-0.6,1.3-0.9,2.2-0.9
			c1,0,1.7,0.4,2.3,1.2l-0.6,0.4c-0.2-0.3-0.4-0.5-0.7-0.6c-0.3-0.2-0.6-0.2-0.9-0.2c-0.7,0-1.2,0.2-1.7,0.7c-0.4,0.5-0.7,1-0.7,1.8
			s0.2,1.3,0.7,1.8c0.4,0.5,1,0.7,1.7,0.7c0.3,0,0.7-0.1,0.9-0.2c0.3-0.2,0.5-0.4,0.7-0.6l0.6,0.4C30.4,107.6,29.7,108,28.7,108z"/>
	</g>
	<g>
		<path class="st0" d="M174.3,39.8h-6v-1.1c1.7-1.3,2.9-2.3,3.6-2.9c0.6-0.6,0.9-1.2,0.9-1.8c0-0.4-0.1-0.7-0.4-0.9
			c-0.3-0.2-0.7-0.3-1.1-0.3c-0.9,0-1.7,0.3-2.2,1l-0.8-1c0.4-0.4,0.8-0.8,1.4-1c0.5-0.2,1.1-0.3,1.7-0.3c0.9,0,1.6,0.2,2.2,0.7
			c0.6,0.5,0.9,1.1,0.9,1.9c0,0.7-0.3,1.4-0.9,2.1c-0.6,0.7-1.5,1.5-2.8,2.5h3.7V39.8z"/>
		<path class="st0" d="M178.9,39.9c-1.3,0-2.4-0.4-3.1-1.3l0.8-1c0.6,0.7,1.3,1,2.2,1c0.5,0,0.9-0.1,1.2-0.4s0.5-0.6,0.5-1
			c0-0.5-0.2-0.8-0.5-1.1c-0.3-0.3-0.7-0.4-1.2-0.4c-0.7,0-1.3,0.2-1.8,0.7l-1-0.3v-4.7h5.5v1.3h-4v2.4c0.5-0.5,1.1-0.7,1.9-0.7
			c0.7,0,1.4,0.2,1.9,0.7c0.5,0.5,0.8,1.1,0.8,2c0,0.9-0.3,1.5-0.9,2.1C180.6,39.7,179.9,39.9,178.9,39.9z"/>
		<path class="st0" d="M188,39.5c-0.4,0.2-0.9,0.4-1.5,0.4c-0.6,0-1.1-0.1-1.5-0.4c-0.4-0.2-0.8-0.6-1.1-1s-0.5-0.9-0.6-1.4
			c-0.1-0.5-0.2-1-0.2-1.6s0.1-1.1,0.2-1.6c0.1-0.5,0.3-1,0.6-1.4c0.3-0.4,0.6-0.7,1.1-1c0.4-0.2,0.9-0.4,1.5-0.4
			c0.6,0,1.1,0.1,1.5,0.4c0.4,0.2,0.8,0.6,1,1c0.3,0.4,0.5,0.9,0.6,1.4s0.2,1,0.2,1.6s-0.1,1.1-0.2,1.6s-0.3,1-0.6,1.4
			C188.8,39,188.4,39.3,188,39.5z M185.1,37.8c0.3,0.6,0.8,0.9,1.4,0.9c0.6,0,1.1-0.3,1.4-0.9c0.3-0.6,0.5-1.3,0.5-2.2
			c0-0.6-0.1-1.1-0.2-1.5c-0.1-0.4-0.3-0.8-0.6-1.1c-0.3-0.3-0.6-0.4-1.1-0.4c-0.4,0-0.8,0.1-1.1,0.4c-0.3,0.3-0.5,0.6-0.6,1.1
			c-0.1,0.4-0.2,0.9-0.2,1.5C184.6,36.5,184.8,37.2,185.1,37.8z"/>
	</g>
	<g>
		<path class="st0" d="M174.3,64.5h-6v-1.1c1.7-1.3,2.9-2.3,3.6-2.9c0.6-0.6,0.9-1.2,0.9-1.8c0-0.4-0.1-0.7-0.4-0.9
			c-0.3-0.2-0.7-0.3-1.1-0.3c-0.9,0-1.7,0.3-2.2,1l-0.8-1c0.4-0.4,0.8-0.8,1.4-1c0.5-0.2,1.1-0.3,1.7-0.3c0.9,0,1.6,0.2,2.2,0.7
			c0.6,0.5,0.9,1.1,0.9,1.9c0,0.7-0.3,1.4-0.9,2.1c-0.6,0.7-1.5,1.5-2.8,2.5h3.7V64.5z"/>
		<path class="st0" d="M180.5,64.3c-0.4,0.2-0.9,0.4-1.5,0.4c-0.6,0-1.1-0.1-1.5-0.4c-0.4-0.2-0.8-0.6-1.1-1s-0.5-0.9-0.6-1.4
			c-0.1-0.5-0.2-1-0.2-1.6s0.1-1.1,0.2-1.6c0.1-0.5,0.3-1,0.6-1.4c0.3-0.4,0.6-0.7,1.1-1c0.4-0.2,0.9-0.4,1.5-0.4
			c0.6,0,1.1,0.1,1.5,0.4c0.4,0.2,0.8,0.6,1,1c0.3,0.4,0.5,0.9,0.6,1.4s0.2,1,0.2,1.6s-0.1,1.1-0.2,1.6s-0.3,1-0.6,1.4
			C181.3,63.7,180.9,64,180.5,64.3z M177.6,62.5c0.3,0.6,0.8,0.9,1.4,0.9c0.6,0,1.1-0.3,1.4-0.9c0.3-0.6,0.5-1.3,0.5-2.2
			c0-0.6-0.1-1.1-0.2-1.5c-0.1-0.4-0.3-0.8-0.6-1.1c-0.3-0.3-0.6-0.4-1.1-0.4c-0.4,0-0.8,0.1-1.1,0.4c-0.3,0.3-0.5,0.6-0.6,1.1
			c-0.1,0.4-0.2,0.9-0.2,1.5C177.1,61.2,177.3,61.9,177.6,62.5z"/>
		<path class="st0" d="M186.6,64.7c-1.3,0-2.4-0.4-3.1-1.3l0.8-1c0.6,0.7,1.3,1,2.2,1c0.5,0,0.9-0.1,1.2-0.4s0.5-0.6,0.5-1
			c0-0.5-0.2-0.8-0.5-1.1c-0.3-0.3-0.7-0.4-1.2-0.4c-0.7,0-1.3,0.2-1.8,0.7l-1-0.3v-4.7h5.5v1.3h-4v2.4c0.5-0.5,1.1-0.7,1.9-0.7
			c0.7,0,1.4,0.2,1.9,0.7c0.5,0.5,0.8,1.1,0.8,2c0,0.9-0.3,1.5-0.9,2.1C188.3,64.4,187.6,64.7,186.6,64.7z"/>
	</g>
	<g>
		<path class="st0" d="M174.3,94.9h-6v-1.1c1.7-1.3,2.9-2.3,3.6-2.9c0.6-0.6,0.9-1.2,0.9-1.8c0-0.4-0.1-0.7-0.4-0.9
			c-0.3-0.2-0.7-0.3-1.1-0.3c-0.9,0-1.7,0.3-2.2,1l-0.8-1c0.4-0.4,0.8-0.8,1.4-1c0.5-0.2,1.1-0.3,1.7-0.3c0.9,0,1.6,0.2,2.2,0.7
			c0.6,0.5,0.9,1.1,0.9,1.9c0,0.7-0.3,1.4-0.9,2.1c-0.6,0.7-1.5,1.5-2.8,2.5h3.7V94.9z"/>
		<path class="st0" d="M178.9,95c-1.3,0-2.4-0.4-3.1-1.3l0.8-1c0.6,0.7,1.3,1,2.2,1c0.5,0,0.9-0.1,1.2-0.4s0.5-0.6,0.5-1
			c0-0.5-0.2-0.8-0.5-1.1c-0.3-0.3-0.7-0.4-1.2-0.4c-0.7,0-1.3,0.2-1.8,0.7l-1-0.3v-4.7h5.5v1.3h-4v2.4c0.5-0.5,1.1-0.7,1.9-0.7
			c0.7,0,1.4,0.2,1.9,0.7c0.5,0.5,0.8,1.1,0.8,2c0,0.9-0.3,1.5-0.9,2.1C180.6,94.8,179.9,95,178.9,95z"/>
		<path class="st0" d="M188,94.7c-0.4,0.2-0.9,0.4-1.5,0.4c-0.6,0-1.1-0.1-1.5-0.4c-0.4-0.2-0.8-0.6-1.1-1s-0.5-0.9-0.6-1.4
			c-0.1-0.5-0.2-1-0.2-1.6s0.1-1.1,0.2-1.6c0.1-0.5,0.3-1,0.6-1.4c0.3-0.4,0.6-0.7,1.1-1c0.4-0.2,0.9-0.4,1.5-0.4
			c0.6,0,1.1,0.1,1.5,0.4c0.4,0.2,0.8,0.6,1,1c0.3,0.4,0.5,0.9,0.6,1.4s0.2,1,0.2,1.6s-0.1,1.1-0.2,1.6s-0.3,1-0.6,1.4
			C188.8,94.1,188.4,94.4,188,94.7z M185.1,92.9c0.3,0.6,0.8,0.9,1.4,0.9c0.6,0,1.1-0.3,1.4-0.9c0.3-0.6,0.5-1.3,0.5-2.2
			c0-0.6-0.1-1.1-0.2-1.5c-0.1-0.4-0.3-0.8-0.6-1.1c-0.3-0.3-0.6-0.4-1.1-0.4c-0.4,0-0.8,0.1-1.1,0.4c-0.3,0.3-0.5,0.6-0.6,1.1
			c-0.1,0.4-0.2,0.9-0.2,1.5C184.6,91.6,184.8,92.3,185.1,92.9z"/>
	</g>
	<g>
		<path class="st0" d="M15.8,152.5h-6v-1.1c1.7-1.3,2.9-2.3,3.6-2.9c0.6-0.6,0.9-1.2,0.9-1.8c0-0.4-0.1-0.7-0.4-0.9
			s-0.7-0.3-1.1-0.3c-0.9,0-1.7,0.3-2.2,1l-0.8-1c0.4-0.4,0.8-0.8,1.4-1s1.1-0.3,1.7-0.3c0.8,0,1.6,0.2,2.2,0.7
			c0.6,0.5,0.9,1.1,0.9,1.9c0,0.7-0.3,1.4-0.9,2.1c-0.6,0.7-1.5,1.5-2.8,2.5h3.7V152.5z"/>
		<path class="st0" d="M23.3,152.5h-6v-1.1c1.7-1.3,2.9-2.3,3.6-2.9c0.6-0.6,0.9-1.2,0.9-1.8c0-0.4-0.1-0.7-0.4-0.9
			s-0.7-0.3-1.1-0.3c-0.9,0-1.7,0.3-2.2,1l-0.8-1c0.4-0.4,0.8-0.8,1.4-1s1.1-0.3,1.7-0.3c0.8,0,1.6,0.2,2.2,0.7
			c0.6,0.5,0.9,1.1,0.9,1.9c0,0.7-0.3,1.4-0.9,2.1c-0.6,0.7-1.5,1.5-2.8,2.5h3.7V152.5z"/>
		<path class="st0" d="M27.8,152.7c-1.3,0-2.4-0.4-3.1-1.3l0.8-1c0.6,0.7,1.3,1,2.2,1c0.5,0,0.9-0.1,1.2-0.4s0.5-0.6,0.5-1
			c0-0.5-0.2-0.8-0.5-1.1c-0.3-0.3-0.7-0.4-1.2-0.4c-0.7,0-1.3,0.2-1.8,0.7l-1-0.3v-4.7h5.5v1.3h-4v2.4c0.5-0.5,1.1-0.7,1.9-0.7
			c0.7,0,1.4,0.2,1.9,0.7c0.5,0.5,0.8,1.1,0.8,2c0,0.9-0.3,1.5-0.9,2.1C29.5,152.4,28.8,152.7,27.8,152.7z"/>
	</g>
	<g>
		<path class="st0" d="M12.4,119.8c-0.7,0-1.3-0.1-1.9-0.4c-0.5-0.2-1-0.6-1.3-1l0.8-1c0.3,0.3,0.6,0.6,1,0.7
			c0.4,0.2,0.8,0.3,1.3,0.3c0.5,0,1-0.1,1.3-0.3c0.3-0.2,0.5-0.5,0.5-0.9c0-0.8-0.6-1.2-1.8-1.2c-0.6,0-0.9,0-1,0v-1.3
			c0.1,0,0.4,0,1,0c0.5,0,0.9-0.1,1.2-0.3c0.3-0.2,0.5-0.5,0.5-0.8c0-0.4-0.2-0.7-0.5-0.9s-0.7-0.3-1.2-0.3c-0.8,0-1.5,0.3-2.2,0.9
			l-0.8-0.9c0.7-0.9,1.8-1.3,3-1.3c0.9,0,1.6,0.2,2.2,0.6c0.6,0.4,0.8,1,0.8,1.6c0,0.5-0.2,0.9-0.5,1.3c-0.4,0.3-0.8,0.5-1.3,0.6
			c0.5,0,0.9,0.2,1.3,0.6s0.6,0.8,0.6,1.4c0,0.7-0.3,1.3-0.9,1.8S13.4,119.8,12.4,119.8z"/>
		<path class="st0" d="M21.5,119.4c-0.4,0.2-0.9,0.4-1.5,0.4c-0.6,0-1.1-0.1-1.5-0.4c-0.4-0.2-0.8-0.6-1-1c-0.3-0.4-0.5-0.9-0.6-1.4
			s-0.2-1-0.2-1.6c0-0.5,0.1-1.1,0.2-1.6s0.3-1,0.6-1.4c0.3-0.4,0.6-0.7,1-1c0.4-0.2,0.9-0.4,1.5-0.4c0.6,0,1.1,0.1,1.5,0.4
			c0.4,0.2,0.8,0.6,1,1c0.3,0.4,0.5,0.9,0.6,1.4c0.1,0.5,0.2,1,0.2,1.6c0,0.5-0.1,1.1-0.2,1.6c-0.1,0.5-0.3,1-0.6,1.4
			C22.3,118.8,21.9,119.1,21.5,119.4z M18.6,117.6c0.3,0.6,0.8,0.8,1.4,0.8s1.1-0.3,1.4-0.8c0.3-0.6,0.5-1.3,0.5-2.2
			c0-0.6-0.1-1.1-0.2-1.5c-0.1-0.4-0.3-0.8-0.6-1.1s-0.6-0.4-1.1-0.4c-0.4,0-0.8,0.1-1.1,0.4s-0.5,0.6-0.6,1.1
			c-0.1,0.4-0.2,0.9-0.2,1.5C18.1,116.3,18.3,117.1,18.6,117.6z"/>
		<path class="st0" d="M29.2,119.4c-0.4,0.2-0.9,0.4-1.5,0.4s-1.1-0.1-1.5-0.4s-0.8-0.6-1.1-1c-0.3-0.4-0.5-0.9-0.6-1.4
			s-0.2-1-0.2-1.6c0-0.5,0.1-1.1,0.2-1.6s0.3-1,0.6-1.4c0.3-0.4,0.6-0.7,1.1-1s0.9-0.4,1.5-0.4s1.1,0.1,1.5,0.4s0.8,0.6,1,1
			c0.3,0.4,0.5,0.9,0.6,1.4c0.1,0.5,0.2,1,0.2,1.6c0,0.5-0.1,1.1-0.2,1.6c-0.1,0.5-0.3,1-0.6,1.4C30,118.8,29.6,119.1,29.2,119.4z
			 M26.3,117.6c0.3,0.6,0.8,0.8,1.4,0.8s1.1-0.3,1.4-0.8c0.3-0.6,0.4-1.3,0.4-2.2c0-0.6-0.1-1.1-0.2-1.5c-0.1-0.4-0.3-0.8-0.6-1.1
			s-0.6-0.4-1.1-0.4s-0.8,0.1-1.1,0.4c-0.3,0.3-0.5,0.6-0.6,1.1c-0.1,0.4-0.2,0.9-0.2,1.5C25.8,116.3,26,117.1,26.3,117.6z"/>
	</g>
	<g>
		<path class="st0" d="M18.5,87.3h-6v-1.1c1.7-1.3,2.9-2.3,3.6-2.9s0.9-1.2,0.9-1.8c0-0.4-0.1-0.7-0.4-0.9s-0.7-0.3-1.1-0.3
			c-0.9,0-1.7,0.3-2.2,1l-0.8-1c0.4-0.4,0.8-0.8,1.4-1c0.5-0.2,1.1-0.3,1.7-0.3c0.8,0,1.6,0.2,2.2,0.7c0.6,0.5,0.9,1.1,0.9,1.9
			c0,0.7-0.3,1.4-0.9,2.1C17,84.2,16,85,14.8,86h3.7V87.3z"/>
		<path class="st0" d="M23.1,87.3h-1.5v-6.4l-1.4,1.4l-0.9-0.9l2.4-2.4h1.3V87.3z"/>
		<path class="st0" d="M27.8,87.4c-1.3,0-2.4-0.4-3.1-1.3l0.8-1c0.6,0.7,1.3,1,2.2,1c0.5,0,0.9-0.1,1.2-0.4s0.5-0.6,0.5-1
			c0-0.5-0.2-0.8-0.5-1.1c-0.3-0.3-0.7-0.4-1.2-0.4c-0.7,0-1.3,0.2-1.8,0.7l-1-0.3v-4.7h5.5v1.3h-4v2.4c0.5-0.5,1.1-0.7,1.9-0.7
			c0.7,0,1.4,0.2,1.9,0.7s0.8,1.1,0.8,2c0,0.9-0.3,1.5-0.9,2.1C29.5,87.1,28.8,87.4,27.8,87.4z"/>
	</g>
	<g>
		<path class="st0" d="M15.6,61.6h-6v-1.1c1.7-1.3,2.9-2.3,3.6-2.9s0.9-1.2,0.9-1.8c0-0.4-0.1-0.7-0.4-0.9s-0.7-0.3-1.1-0.3
			c-0.9,0-1.7,0.3-2.2,1l-0.8-1c0.4-0.4,0.8-0.8,1.4-1c0.5-0.2,1.1-0.3,1.7-0.3c0.9,0,1.6,0.2,2.1,0.7c0.6,0.5,0.9,1.1,0.9,1.9
			c0,0.7-0.3,1.4-0.9,2.1c-0.6,0.7-1.5,1.5-2.8,2.5h3.7V61.6z"/>
		<path class="st0" d="M20.1,61.7c-1.3,0-2.4-0.4-3.1-1.3l0.8-1c0.6,0.7,1.3,1,2.2,1c0.5,0,0.9-0.1,1.2-0.4s0.5-0.6,0.5-1
			c0-0.5-0.2-0.8-0.5-1.1s-0.7-0.4-1.2-0.4c-0.7,0-1.3,0.2-1.8,0.7l-1-0.3v-4.7h5.5v1.3h-4v2.4c0.5-0.5,1.1-0.7,1.9-0.7
			c0.7,0,1.4,0.2,1.9,0.7c0.5,0.5,0.8,1.1,0.8,2c0,0.9-0.3,1.5-0.9,2.1C21.8,61.5,21.1,61.7,20.1,61.7z"/>
		<path class="st0" d="M29.2,61.3c-0.4,0.2-0.9,0.4-1.5,0.4s-1.1-0.1-1.5-0.4s-0.8-0.6-1.1-1c-0.3-0.4-0.5-0.9-0.6-1.4
			s-0.2-1-0.2-1.6s0.1-1.1,0.2-1.6s0.3-1,0.6-1.4c0.3-0.4,0.6-0.7,1.1-1s0.9-0.4,1.5-0.4s1.1,0.1,1.5,0.4s0.8,0.6,1,1
			c0.3,0.4,0.5,0.9,0.6,1.4c0.1,0.5,0.2,1,0.2,1.6s-0.1,1.1-0.2,1.6c-0.1,0.5-0.3,1-0.6,1.4S29.6,61.1,29.2,61.3z M26.3,59.6
			c0.3,0.6,0.8,0.9,1.4,0.9s1.1-0.3,1.4-0.9c0.3-0.6,0.4-1.3,0.4-2.2c0-0.6-0.1-1.1-0.2-1.5c-0.1-0.4-0.3-0.8-0.6-1.1
			c-0.3-0.3-0.6-0.4-1.1-0.4s-0.8,0.1-1.1,0.4c-0.3,0.3-0.5,0.6-0.6,1.1c-0.1,0.4-0.2,0.9-0.2,1.5C25.8,58.3,26,59,26.3,59.6z"/>
	</g>
	<g>
		<path class="st0" d="M15.5,36.3H14v-6.4l-1.4,1.4l-0.8-0.9l2.4-2.4h1.3V36.3z"/>
		<path class="st0" d="M22.4,35.8c-0.6,0.4-1.4,0.6-2.3,0.6s-1.7-0.2-2.3-0.6s-0.9-1-0.9-1.7c0-0.5,0.2-0.9,0.5-1.3s0.8-0.7,1.3-0.8
			c-0.5-0.2-0.9-0.4-1.3-0.7c-0.3-0.3-0.5-0.7-0.5-1.2c0-0.4,0.1-0.7,0.3-1c0.2-0.3,0.4-0.5,0.7-0.7c0.3-0.2,0.6-0.3,1-0.4
			s0.7-0.1,1.1-0.1s0.8,0,1.1,0.1s0.7,0.2,1,0.4c0.3,0.2,0.5,0.4,0.7,0.7c0.2,0.3,0.3,0.6,0.3,1c0,0.9-0.6,1.6-1.8,2
			c0.5,0.2,1,0.5,1.3,0.8c0.4,0.4,0.5,0.8,0.5,1.3C23.3,34.9,23,35.4,22.4,35.8z M20.1,35.1c0.5,0,0.9-0.1,1.2-0.3
			c0.3-0.2,0.5-0.5,0.5-0.9c0-0.4-0.2-0.7-0.6-0.9c-0.4-0.2-0.8-0.4-1.1-0.4c-0.2,0-0.4,0.1-0.7,0.2c-0.2,0.1-0.5,0.2-0.7,0.4
			s-0.3,0.4-0.3,0.7c0,0.4,0.2,0.6,0.5,0.9S19.6,35.1,20.1,35.1z M20.1,31.4c0.2,0,0.4-0.1,0.7-0.2c0.2-0.1,0.4-0.2,0.6-0.4
			c0.2-0.2,0.3-0.4,0.3-0.6c0-0.3-0.1-0.6-0.4-0.8c-0.3-0.2-0.7-0.3-1.1-0.3c-0.5,0-0.8,0.1-1.1,0.3c-0.3,0.2-0.4,0.5-0.4,0.8
			c0,0.2,0.1,0.5,0.3,0.6c0.2,0.2,0.4,0.3,0.6,0.4C19.7,31.3,19.9,31.4,20.1,31.4z"/>
		<path class="st0" d="M29.2,36c-0.4,0.2-0.9,0.4-1.5,0.4s-1.1-0.1-1.5-0.4s-0.8-0.6-1.1-1c-0.3-0.4-0.5-0.9-0.6-1.4s-0.2-1-0.2-1.6
			s0.1-1.1,0.2-1.6s0.3-1,0.6-1.4c0.3-0.4,0.6-0.7,1.1-1s0.9-0.4,1.5-0.4s1.1,0.1,1.5,0.4s0.8,0.6,1,1c0.3,0.4,0.5,0.9,0.6,1.4
			c0.1,0.5,0.2,1,0.2,1.6s-0.1,1.1-0.2,1.6c-0.1,0.5-0.3,1-0.6,1.4S29.6,35.8,29.2,36z M26.3,34.3c0.3,0.6,0.8,0.9,1.4,0.9
			s1.1-0.3,1.4-0.9c0.3-0.6,0.4-1.3,0.4-2.2c0-0.6-0.1-1.1-0.2-1.5c-0.1-0.4-0.3-0.8-0.6-1.1c-0.3-0.3-0.6-0.4-1.1-0.4
			s-0.8,0.1-1.1,0.4c-0.3,0.3-0.5,0.6-0.6,1.1c-0.1,0.4-0.2,0.9-0.2,1.5C25.8,33,26,33.7,26.3,34.3z"/>
	</g>
	<g>
		<path class="st0" d="M96.4,18.4h-6v-1.2c1.7-1.3,2.9-2.3,3.6-2.9c0.6-0.6,0.9-1.2,0.9-1.8c0-0.4-0.1-0.7-0.4-0.9
			c-0.3-0.2-0.7-0.3-1.1-0.3c-0.9,0-1.7,0.3-2.2,1l-0.8-1c0.4-0.4,0.8-0.8,1.4-1c0.5-0.2,1.1-0.3,1.7-0.3c0.8,0,1.6,0.2,2.1,0.7
			s0.9,1.1,0.9,1.9c0,0.7-0.3,1.4-0.9,2.1c-0.6,0.7-1.5,1.5-2.8,2.5h3.7V18.4z"/>
		<path class="st0" d="M101,18.6c-1.3,0-2.4-0.4-3.1-1.3l0.8-1c0.6,0.7,1.3,1,2.2,1c0.5,0,0.9-0.1,1.2-0.4c0.3-0.3,0.5-0.6,0.5-1
			c0-0.4-0.2-0.8-0.5-1.1c-0.3-0.3-0.7-0.4-1.2-0.4c-0.7,0-1.3,0.2-1.8,0.7l-1-0.3v-4.7h5.5v1.3h-4v2.4c0.5-0.5,1.1-0.7,1.9-0.7
			c0.7,0,1.4,0.2,1.9,0.7c0.5,0.5,0.8,1.1,0.8,2c0,0.9-0.3,1.5-0.9,2.1C102.7,18.3,101.9,18.6,101,18.6z"/>
		<path class="st0" d="M110.1,18.2c-0.4,0.2-0.9,0.4-1.5,0.4s-1.1-0.1-1.5-0.4s-0.8-0.6-1-1s-0.5-0.9-0.6-1.4
			c-0.1-0.5-0.2-1-0.2-1.6s0.1-1.1,0.2-1.6c0.1-0.5,0.3-1,0.6-1.4c0.3-0.4,0.6-0.7,1-1s0.9-0.4,1.5-0.4s1.1,0.1,1.5,0.4
			s0.8,0.6,1.1,1c0.3,0.4,0.5,0.9,0.6,1.4s0.2,1,0.2,1.6s-0.1,1.1-0.2,1.6s-0.3,1-0.6,1.4C110.8,17.6,110.5,17.9,110.1,18.2z
			 M107.2,16.4c0.3,0.6,0.8,0.8,1.4,0.8c0.6,0,1.1-0.3,1.4-0.8s0.5-1.3,0.5-2.2c0-0.6-0.1-1.1-0.2-1.5s-0.3-0.8-0.6-1.1
			c-0.3-0.3-0.6-0.4-1.1-0.4s-0.8,0.1-1.1,0.4c-0.3,0.3-0.5,0.6-0.6,1.1s-0.2,0.9-0.2,1.5C106.7,15.1,106.9,15.9,107.2,16.4z"/>
	</g>
	<g>
		<g>
			<path class="st4" d="M161.2,56.1c-12.9-2.1-26.2-1.4-34.4,6.9"/>
			<g>
				<path class="st2" d="M126.8,62.9c0.3,0,0.7,0.2,0.9,0.4c-0.5-0.1-1,0-1.5,0.2c0.2-0.5,0.2-1,0.1-1.5
					C126.6,62.3,126.8,62.6,126.8,62.9z"/>
			</g>
		</g>
	</g>
	<g>
		<g>
			<path class="st1" d="M162.3,84.9c-14.8,2.2-26.8-3.6-31.8-10.1"/>
			<g>
				<path class="st2" d="M130.5,74.8c0,0.4-0.4,0.8-0.7,1c0.2-0.6,0.2-1.2,0.1-1.8c0.5,0.3,1.1,0.4,1.7,0.4
					C131.3,74.6,130.9,74.8,130.5,74.8z"/>
			</g>
		</g>
	</g>
	<g>
		<g>
			<path class="st5" d="M38.7,140.6c14.3,0.6,53.2-7.4,64.3-32"/>
			<g>
				<path class="st2" d="M103,108.7c-0.2,0.1-0.5,0-0.8-0.1c0.4-0.1,0.7-0.2,1-0.5c0,0.4,0.1,0.8,0.3,1.1
					C103.3,109.1,103.1,108.9,103,108.7z"/>
			</g>
		</g>
	</g>
	<g>
		<g>
			<path class="st6" d="M160.1,116.7c-10.3-0.5-27.6,1.9-35.5-12.1"/>
			<g>
				<path class="st2" d="M124.7,104.8c-0.2,0.8-1.1,1.6-1.8,2.1c0.6-1.3,0.9-2.6,0.7-4c1.1,0.9,2.5,1.2,3.8,1.5
					C126.6,104.6,125.6,105,124.7,104.8z"/>
			</g>
		</g>
	</g>
	<g>
		<g>
			<path class="st7" d="M38.7,23.5c18.3,0,36.8,11.1,49.9,37"/>
			<g>
				<path class="st2" d="M88.6,60.4c0.1-0.3,0.4-0.5,0.6-0.6c-0.2,0.4-0.3,0.8-0.3,1.3c-0.3-0.3-0.8-0.4-1.2-0.5
					C88,60.4,88.3,60.3,88.6,60.4z"/>
			</g>
		</g>
	</g>
	<g>
		<g>
			<path class="st8" d="M37.6,110.8c13,1.1,40.4-1.5,51-12.8"/>
			<g>
				<path class="st2" d="M88.5,98.1c-0.4,0-1-0.3-1.3-0.6c0.7,0.1,1.5,0,2.1-0.3c-0.3,0.7-0.2,1.4-0.1,2.1
					C88.9,99.1,88.5,98.6,88.5,98.1z"/>
			</g>
		</g>
	</g>
	<g>
		<g>
			<path class="st1" d="M37,55.2c14.4-4,23.2-1.8,35.6,11"/>
			<g>
				<path class="st2" d="M72.6,66.2c0-0.2,0.1-0.4,0.2-0.5c0,0.3,0,0.5,0.1,0.8c-0.2-0.1-0.5-0.1-0.8-0.1
					C72.2,66.4,72.4,66.2,72.6,66.2z"/>
			</g>
		</g>
	</g>
	<g>
		<g>
			<path class="st9" d="M37,77.2c9.3-5.3,27.8-5.5,44.2,3.5"/>
			<g>
				<path class="st2" d="M81.1,80.6c-0.1-0.3,0-0.7,0.2-1c0.1,0.5,0.2,1,0.6,1.4c-0.5-0.1-1,0.1-1.5,0.3
					C80.5,81,80.7,80.7,81.1,80.6z"/>
			</g>
		</g>
	</g>
	<g>
		<g>
			<line class="st1" x1="101.1" y1="24.1" x2="101.1" y2="49.7"/>
			<g>
				<path class="st2" d="M101.1,49.6c0.3-0.3,0.8-0.4,1.1-0.4c-0.5,0.4-0.9,0.8-1.1,1.4c-0.2-0.6-0.7-1-1.1-1.4
					C100.3,49.2,100.8,49.3,101.1,49.6z"/>
			</g>
		</g>
	</g>
	<g>
		<path class="st0" d="M171.5,127c-1.3,0-2.4-0.4-3.1-1.3l0.8-1c0.6,0.7,1.3,1,2.2,1c0.5,0,0.9-0.1,1.2-0.4s0.5-0.6,0.5-1
			c0-0.5-0.2-0.8-0.5-1.1c-0.3-0.3-0.7-0.4-1.2-0.4c-0.7,0-1.3,0.2-1.8,0.7l-1-0.3v-4.7h5.5v1.3h-4v2.4c0.5-0.5,1.1-0.7,1.9-0.7
			c0.7,0,1.4,0.2,1.9,0.7c0.5,0.5,0.8,1.1,0.8,2c0,0.9-0.3,1.5-0.9,2.1C173.2,126.8,172.4,127,171.5,127z"/>
		<path class="st0" d="M178.3,126.9h-1.6l3.2-7h-4.3v-1.3h6v1L178.3,126.9z"/>
		<path class="st0" d="M187.2,126.6c-0.4,0.2-0.9,0.4-1.5,0.4c-0.6,0-1.1-0.1-1.5-0.4c-0.4-0.2-0.8-0.6-1-1
			c-0.3-0.4-0.5-0.9-0.6-1.4s-0.2-1-0.2-1.6s0.1-1.1,0.2-1.6s0.3-1,0.6-1.4c0.3-0.4,0.6-0.7,1-1c0.4-0.2,0.9-0.4,1.5-0.4
			c0.6,0,1.1,0.1,1.5,0.4c0.4,0.2,0.8,0.6,1,1c0.3,0.4,0.5,0.9,0.6,1.4c0.1,0.5,0.2,1,0.2,1.6s-0.1,1.1-0.2,1.6
			c-0.1,0.5-0.3,1-0.6,1.4S187.6,126.4,187.2,126.6z M184.3,124.9c0.3,0.6,0.8,0.9,1.4,0.9s1.1-0.3,1.4-0.9c0.3-0.6,0.5-1.3,0.5-2.2
			c0-0.6-0.1-1.1-0.2-1.5c-0.1-0.4-0.3-0.8-0.6-1.1c-0.3-0.3-0.6-0.4-1.1-0.4c-0.4,0-0.8,0.1-1.1,0.4c-0.3,0.3-0.5,0.6-0.6,1.1
			c-0.1,0.4-0.2,0.9-0.2,1.5C183.8,123.6,184,124.3,184.3,124.9z"/>
	</g>
</g>
</svg>
