<?xml version="1.0" encoding="utf-8"?>
<!-- Generator: Adobe Illustrator 19.2.0, SVG Export Plug-In . SVG Version: 6.00 Build 0)  -->
<svg version="1.1" id="Layer_1" xmlns="http://www.w3.org/2000/svg" xmlns:xlink="http://www.w3.org/1999/xlink" x="0px" y="0px"
	 viewBox="0 0 215.8 152.7" style="enable-background:new 0 0 215.8 152.7;" xml:space="preserve">
<style type="text/css">
	.st0{fill:#0D92FF;}
	.st1{fill:none;stroke:#00325C;stroke-width:0.2427;stroke-miterlimit:10;}
	.st2{fill:#00325C;}
	.st3{fill:#787878;}
	.st4{fill:none;stroke:#00325C;stroke-width:0.1796;stroke-miterlimit:10;}
	.st5{fill:none;stroke:#00325C;stroke-width:0.1311;stroke-miterlimit:10;}
	.st6{fill:none;stroke:#00325C;stroke-width:0.3204;stroke-miterlimit:3;}
	.st7{fill:none;stroke:#00325C;stroke-width:0.2136;stroke-miterlimit:10;}
	.st8{fill:none;stroke:#00325C;stroke-width:0.2233;stroke-miterlimit:10;}
	.st9{fill:none;stroke:#00325C;stroke-width:0.2282;stroke-miterlimit:10;}
	.st10{fill:none;stroke:#00325C;stroke-width:0.6262;stroke-miterlimit:10;}
	.st11{fill:none;stroke:#00325C;stroke-width:0.3932;stroke-miterlimit:10;}
</style>
<g>
	<path class="st0" d="M153.1,138.7L153.1,138.7l-0.1,0l0,0.1L153.1,138.7L153.1,138.7l0,0.1L153.1,138.7L153.1,138.7L153.1,138.7
		L153.1,138.7L153.1,138.7L153.1,138.7z M153.1,139L153.1,139L153.1,139l0,0.1L153.1,139L153.1,139L153.1,139z M67.5,56.8L67.5,56.8
		L67.5,56.8L67.5,56.8L67.5,56.8l0-0.1l0,0L67.5,56.8L67.5,56.8L67.5,56.8z M131.7,121.3l-0.1,0l-0.1,0.1l-0.1,0.1l-0.2,0.1l0,0.1
		l0,0.1l0,0l0.1-0.1l0.1,0l0.1-0.2L131.7,121.3l0.1,0.1l0-0.1L131.7,121.3L131.7,121.3z M63.9,81.4l-0.3-0.1l-0.2,0l-0.1,0l-0.1,0.1
		l0.1,0.2l0.6,0l0.2,0.1L64,81.5L63.9,81.4z M65,78.7L65,78.7l-0.3-0.2l-0.1-0.1l0-0.2l0-0.1l0-0.1l-0.2-0.1l-0.1,0l-0.4,0l0.1,0.2
		l0.1,0.4l0.1,0.2l0.2-0.1l0.2,0.1l0.2,0.3l0.1,0.3l0.1,0.1l0-0.1l0-0.2L65,78.7z M42.6,61.4L42.6,61.4L42.6,61.4l-0.2-0.1l-0.2,0
		L42,61.5v0.1l0.2-0.1l0.1,0l0,0.1l0,0l-0.1,0l0,0v0.1l0.1,0L42.6,61.4L42.6,61.4L42.6,61.4L42.6,61.4z M70.2,86.8L70.2,86.8l0-0.1
		l0-0.1l-0.1,0l-0.1,0l-0.4,0.1v0.1l0.1,0.1l0.3,0.4l0.1,0l0.4-0.1l0.7,0.5l0.4,0.1l0,0l0,0l0.1,0l0.1,0l0.1,0l-0.1-0.2l-0.1-0.2
		l-0.2-0.1L70.7,87L70.6,87v-0.1h0.1v-0.1l-0.2,0l-0.2,0.1l-0.2,0L70,86.7l0.1,0L70.2,86.8z M129.7,121.6L129.7,121.6l-0.1,0.1l0,0
		l0,0l0,0l-0.1,0l-0.2,0l-0.1,0l0,0.1l0.2,0.1l0.1,0l0.1,0l0.1-0.1l0.1-0.1L129.7,121.6L129.7,121.6L129.7,121.6z M57.6,74.6
		L57.6,74.6l-0.4-0.3l0,0l-0.2-0.2l-0.3-0.2l-0.1,0l-0.1-0.1h-0.1l0,0.1l-0.1,0.1l0,0.2l0.1,0.2l0.1,0.2l0,0.2l0.1,0.1l0.4,0.1
		l0.6,0.1l0.2-0.1l0-0.2l-0.1-0.1L57.6,74.6z M72.1,89.5L72,89.4l-0.1,0l-0.1,0l-0.1,0l-0.2-0.2L71.3,89L71,88.9l-0.2,0l0.2,0.4
		l0.1,0.3l0,0.1l0,0.1l0.1,0.2l0.2,0.2l0.2,0.1l0.5,0.5l0.1,0.2l0.1,0.1l0.1,0.4l0.1,0.1l0.1-0.2l0.1-0.3l0.1-0.5l0-0.1l-0.1-0.1
		l-0.2-0.1l-0.1-0.1l0-0.1V90l-0.1-0.1l0-0.1l0-0.1L72.1,89.5z M144.1,55.5l-1.2-0.7l-0.1,0l-0.4,0l-0.6-0.2l-0.1,0l-0.2,0.1l-0.1,0
		l-0.1,0l-0.2-0.1l-0.1,0l-0.1,0l-0.1,0l-0.1,0l-0.1,0l-0.1-0.1l-0.1-0.2l-0.1-0.1l-0.2-0.1l-0.3-0.1l-0.2-0.1l-0.1-0.1l-0.2-0.3
		l-0.1-0.1l0,0l0,0l0.1,0l-0.1-0.2l-0.1-0.1l-0.3,0l0-0.1l-0.1,0l-0.2,0.1l-0.1,0.1l0,0.1l-0.1,0.2l0,0.1l-0.1,0l-0.2,0l-0.1,0
		l0,0.1l-0.1,0.2l0,0l0,0l-0.2-0.1l-0.7,0l-0.1,0l-0.1-0.1l-0.3-0.2l0,0l-0.1,0.1l0,0.1l0,0.1l0,0.1L136,54l-0.2-0.1l-0.1-0.3l0-0.4
		l-0.2,0l-0.5-0.3l-0.1,0l-0.2,0l-0.3-0.1l-0.1,0l0,0.2l0.1,0.2l0,0.2l-0.1,0.2l-0.1,0l-0.3-0.1l-0.3,0l-0.1,0l-0.1-0.2l0-0.1l0-0.1
		l0-0.2h0l-0.1,0.1l0,0l0,0l0-0.1l0,0l0-0.1l-0.1-0.2l0,0l-0.1,0l0,0l0,0l0-0.1l0-0.1l-0.5-0.5l-0.1-0.2l0-0.1l0-0.1l0.1,0l0-0.1
		l0-0.1l-0.4-0.4l-0.1-0.1l0,0l0-0.1l0-0.1l0-0.1l-0.1-0.1l-0.7-0.4l-0.1,0l-0.1,0l-0.1,0.1l-0.1,0l-0.1,0l-0.2,0l-0.2-0.1l-0.4-0.3
		l-0.2-0.1l-0.2,0l-0.4,0l0,0.1l-0.2,0l-0.1,0l0,0.1v0.1l0,0.1l-0.1,0l-0.1,0.1l-0.1,0l-0.7,0l-0.1,0l-0.1-0.3l-0.1-0.1l-0.5-0.1
		l-0.2-0.1l-0.1-0.1l-0.2-0.3l-0.1,0l0,0l-0.2-0.1l-0.1,0l-0.1,0l-0.1,0.1l-0.1,0l0,0l-0.2,0l-0.2-0.1l-0.2,0h0l-0.2,0.1l-0.1,0.1v0
		l0,0.1l0,0l0,0l-0.1,0l-0.1,0l-0.1,0l-0.2-0.1l-0.1,0l0,0l-0.1,0.1l-0.1,0.1l-0.2,0.1l0,0l-0.2,0l0-0.1l0,0l0-0.1l0-0.1v-0.1l0-0.1
		l-0.4-0.7l-0.1-0.1l-0.2-0.1l0,0l0,0l0,0h0l0,0l0,0.1l0,0.1l0,0l0,0l-0.1,0l0,0v0l0-0.1l0-0.1l0-0.2v0l0,0l0.1,0l0,0l0,0l-0.1-0.2
		l-0.1-0.2l-0.2-0.2l-0.1,0l-0.1,0l-0.1,0l-0.2,0.1l-0.2-0.1l-0.1-0.1l0,0l-0.1-0.1l-0.2-0.3l-0.1-0.2l-0.1-0.1l-0.1,0l-0.2-0.1
		l-0.2-0.1l-0.3-0.3l-0.1-0.1l0,0l-0.1,0l-0.1,0l-0.2,0.1l-0.2,0.1l-0.1,0l0,0l-0.1,0l-0.1,0v0l-0.1-0.1l0-0.2v-0.2l0-0.1v0
		l-0.1-0.1l0-0.1l0-0.1L119,45l0,0l0,0l0,0l0-0.1l0,0l0-0.1l0-0.1l0-0.1l0-0.1l-0.1-0.2l0,0v0l-0.2-0.1l-0.2-0.1h0l-0.1-0.2l0-0.2
		l0.2-0.5l0.1-0.2l0,0l0-0.1l0-0.1l0-0.1l0,0l0-0.1l0.1-0.2v0l0,0l0.1,0.1l0,0l0-0.1l0-0.1l0-0.2l0-0.1l0-0.2l-0.1-0.1l-0.2,0.1
		l-0.1,0l0-0.2l0,0l-0.2,0.1l-0.8,0.8l0,0.1l0,0.1l0,0.1l0,0l0,0l0,0l0,0l0,0l0,0.1l0,0.3l-0.1,0.2l0,0l-0.1,0.1l-0.1,0l0,0
		l-0.3,0.1l-0.3,0.1l-0.8,0.4l-0.2,0l-1-0.3l-0.2-0.1l-0.2,0L114,44l-0.1,0l0,0l-0.4-0.2h0l0.1,0l0-0.1l0-0.1l0-0.1l0-0.1l0,0h0
		l0-0.1l0-0.1l0,0l0,0l0.1-0.1l0.1-0.1l0.1-0.1l0.1-0.1l0.1,0l0.1-0.1l0.1,0l0-0.1v0l-0.1-0.1l0-0.1l0,0l-0.1-0.5l-0.1,0l-0.1,0
		l-0.2,0.1l0,0l-0.1,0l0-0.2l0,0l0.1-0.3l0.1-0.2l0-0.2l0-0.1l0,0l0.1-0.1l0.2-0.1l0,0l0.1-0.1l0-0.1l0-0.1l0-0.1l-0.1-0.1l-0.1,0
		l0,0l-0.1,0l-0.1,0h0l0,0.1l0,0l0,0h0l0,0l0,0l-0.1,0l0,0l-0.2-0.3l0-0.1l0,0l-0.2-0.1l-0.1-0.1l-0.1,0l-0.3-0.3l0,0l-0.1-0.1
		l-0.1,0l-0.1,0l-0.3,0.1l-0.2,0.1h-0.2l0,0l-0.1-0.1l-0.1-0.1l-0.1,0l-0.2-0.1l-0.3,0l-0.3,0l0,0l-0.1,0l-0.1,0.1l-0.1,0.2l0,0.1
		l0,0l0,0l0,0l0,0l0,0l0,0l0,0.1l-0.3-0.3l-0.1-0.5l0-0.6l-0.1-0.5l-0.1-0.2l-0.2-0.1l-0.2-0.1l-0.2,0l-0.5,0h0l-0.1-0.1h0l0.1-0.1
		l0,0l0-0.1l-0.1-0.1l0,0l-0.1,0l-0.1,0l0,0l-0.1,0l0,0l0,0l0,0l0,0l-0.1,0.1l-0.3,0.1l-0.1,0l-0.1,0l-0.1,0l-0.1,0l-0.3-0.2
		l-0.1-0.1l-0.1-0.1l0,0l0-0.1l0-0.4l-0.2-0.7l-0.1-0.4l0.1-0.1l0.1-0.1l0-0.1l-0.1-0.2l-0.1-0.1l0,0l-0.1,0v0l-0.1,0l-0.1-0.1
		l-0.1-0.2l-0.1-0.2l0-0.1l-0.1-0.2l-0.1-0.1l-0.2,0l0,0l-0.4,0.1l-0.2,0.1l-0.1,0l-0.3,0.1l-0.1,0.1l-0.1,0.1l-0.1,0.1l-0.1,0.1
		l-0.1,0.2l-0.1,0.2l-0.1,0.1l0,0l-0.1,0l0,0l0,0l0,0l-0.5-0.2l-0.1,0l0,0l-0.1-0.1l0,0l0,0l-0.1-0.2l0-0.1l0,0l-0.3-0.2l-0.1-0.1
		l0-0.1h0l0-0.1l-0.1-0.1l0,0l-0.1,0l-0.1,0l-0.1,0l-0.1,0l0,0l0,0l0-0.1l0-0.1l0-0.1l0,0l0,0l0,0l-0.1,0l0,0l0,0v0l0,0l0,0l0.1-0.1
		l0-0.1l-0.1-0.3l-0.1-0.3l0-0.1l0.1-0.1l0.1-0.1l0,0l0,0l0-0.2l-0.1-0.2h0l-0.3-0.3l-0.1-0.2l0-0.1l-0.1-0.4l0,0l-0.1-0.2l-0.1,0.1
		l-0.3,0.1l-0.6,0.2l-0.5-0.1l-0.1,0l-0.1,0L98.1,31l-1.2,0.2l-0.3,0.2l-0.1,0L95,32l-0.2,0.2l-0.2,0.3l-0.1,0.1l-0.1,0.1l-0.2,0
		l-0.1,0l-0.2,0.2l0,0.1l0,0.2l0.1,0.4l0,0.3l0,0.2l-0.1,0.2l-0.2,0.5l0,0.2l0,0.3l0.1,0.5l0,0.6l0,0.2l0.2,0.3L93.8,37l0,0.5l0,0.6
		l-0.1,0.4v0.1l0.4,0.3v0.1l-0.3-0.1l-0.2,0.3l-0.1,0.5l0,0.4l0.1,0.1l0.3,0.2l0.1,0.2l0,0.1l0.1,0.1l0.2,0.1l0.1,0v0.1h-0.2l0,0.1
		l0,0.1l0.1,0l0.1,0v0.1l-0.1,0.1l-0.1,0l-0.8-0.4l-0.3,0l-0.3,0.4l-0.2,0.6l-0.1,0.1L92.8,42l-0.4,0.5l-1,0.8L91,43.6l-0.2,0.1
		l-0.2,0.1l-3.2,1l-0.7,0l-0.6,0.2l-0.3,0.2l-0.3,0.1l-1,0.6l-0.1,0.1l-1,0.5l-0.1,0.1l-0.1,0L83,46.9l-0.1,0.1l-0.3,1l-0.4,0.7
		l0,0.1l0,0.1l0,0.1l0.1,0.1l0,0.1l0.1,0.1l0.2,0.1l0.2,0.1l0.1,0H83l0.6,0.2l0.6,0.1l0.6-0.1l0.5-0.3l-0.1,0.2l-0.1,0.1l-0.4,0.2
		l-1.9,0.4l-0.5,0.4L82.2,51l-0.1,0.1l-0.2,0l-0.2,0.2l-0.4,0.2l-1.2,0.3L79.9,52l-0.7-0.4l-0.4-0.1l-0.2-0.2l-0.1-0.1h-0.5
		l-0.3-0.1l-0.2,0l-0.3,0.2l-0.2,0l-0.3-0.1L75.3,51l-0.9-0.4l-1-0.1l-0.1,0.1l-0.1,0.1L73,50.9l0.1,0.1v0.1l-0.2,0l-0.1,0L72.8,51
		L72.7,51l-0.1,0L72.5,51l-0.1,0l0-0.1l0,0l0-0.1l0-0.1l0-0.1l0-0.3l-0.1-0.2l-0.6-0.7l-0.1-0.3l-0.1-0.2l-0.1-0.2l0-0.3l0-0.1
		l0.1,0l0.2,0l0-0.1l0-0.1l0-0.1l0.2-0.1l0-0.2l-0.2-0.4l0-0.2l0-0.1l-0.1,0l-0.9-0.2l-0.1,0l-0.4,0.1L70.3,47l-0.2,0.3l-0.1,0.1
		l-0.1,0.1l-0.1,0l-0.2-0.1l-0.1,0l-0.1,0l-0.1,0.1l-0.1,0l-0.1,0l0-0.1l0-0.1l0,0l-0.1,0l-0.6-0.2l-0.5-0.1l-0.2-0.1l0,0l-0.1,0
		l0,0l0-0.1l0-0.1l0-0.1l-0.1,0l-0.2,0l-0.1,0l-0.2-0.1l-0.1,0l-0.2,0l0,0.1l0,0.2l-0.1,0.3l0.3,0.1l0.2,0l0.1,0.1l0,0.1l0.1,0.1
		l0.1,0.2l0,0.2l0,0.4l0,0.1l-0.2,0.2l0,0.2l0,0.1l0.2,0.2l0.1,0.1l0,0.1l0,0.1l0,0.1l0.1,0.2l0,0.1l0,0.1l0,0.2l0,0.4l0,0.2
		l0.1,0.1l0.1,0l0.1,0l0.1,0l0,0l0,0l0,0.1L68,51l0.2,0.2l0.1,0.1l0.1-0.2h0.1l0.1,0.2v0.1h-0.2l0.1,0.2l0.1,0.1l0.2,0.2l0,0l0,0
		L68.7,52l0.1,0.1l0.1,0.4l0.1,0.1l0.1-0.2l0.2,0l0.2,0.1l0.2,0v0.1l-0.3-0.1l-0.1,0l-0.1,0.1l0,0.2l0,0.2l0.1,0.2l0.1,0.2l0-0.1
		l0,0l0.1,0.1l-0.2,0.1l-0.1,0.1l-0.1,0.2l0,0.2l0,0.1l0,0.1l0.1,0l0,0.1l0,0.1l0,0.3l0,0.1l0.1,0.1l0.1,0.1l0,0l0.1-0.2l0.1-0.1
		h0.2l0.1,0.1v0.1l-0.2-0.1l-0.1,0.1l0,0.2l-0.1,0.7l0,0.1l0.1,0l0,0.1l0,0.1l0,0.1L69.6,56l-0.1,0.1l-0.1,0.6l-0.1,0.1L69.3,57
		L69.2,57v0.1l0.2,0l0.1,0.2l0,0.3l0,0.3l0.1,0.3l0.3,0.3l0.1,0.3l0,0.1l0.1,0.1l0.3,0.1l0,0l0,0.1l0,0.1l0,0.1l0,0l0,0v0l0.3,0
		l0.2,0.1l0.1,0.2l-0.3-0.1L70,59.5l-0.6-0.1l-0.1,0l-0.4,0.2l-0.6,0.1l-0.6,0l-0.3-0.1l-0.2-0.2l0-0.3l0.2-0.3l-0.1-0.1l0-0.1
		l0-0.1l0-0.1l-0.8,0.2l0,0.1h-0.3l-0.1,0l0,0.1v0.1l0,0l-0.1,0L66,59.2L66,59.3l0,0.1l0.1,0.1l0.1,0.3l0.1,0.1l0.1,0l0.1,0l0.1,0.1
		l0.1,0.1l-0.1-0.1l0,0l0-0.1h-0.1l0,0.2l0.1,0.2l0,0.1l0.2,0.2l-0.2,0.2l-0.1,0.1l0-0.3l0-0.2l-0.2-0.3l0,0l0-0.1l-0.1,0L66,59.9
		l0-0.1l0-0.1l-0.2-0.3l0-0.1l-0.4,0L65,59.5l0.1,0.2l0,0.1l0.1,0.1l-0.1-0.1l-0.1,0l-0.1,0.1l-0.1,0.1l0.1,0.1l0,0v0.1l-0.1,0.1
		l-0.1-0.1l0-0.1l0-0.2l0,0.1l0,0.1l-0.1,0.1l-0.1,0l0-0.1l0-0.1l-0.1-0.1l-0.1,0l0-0.1l0-0.3l0-0.1L64,59.4l-0.2,0.2l-0.1,0.1
		l-0.1-0.1l0.2-0.2l0-0.1l0-0.1l0-0.1l0.1,0V59l-0.1,0l-0.1,0l-0.1-0.1l0-0.1L63.6,59l-0.2,0.2l-0.2,0.2L63,59.4l-0.1-0.2l-0.2,0
		l-0.3,0.1l0.2,0.1l0.1,0v0.1l-0.1,0.1L62,59.9l-0.1,0l-0.1,0.1l-0.1,0.1l-0.2,0.3l-0.1,0.2l-0.1,0.1l-0.3,0l0,0.1l0,0.2l0,0.1
		l-0.1-0.1l-0.1-0.1l-0.1-0.1l-0.1,0l-0.1,0l0.1-0.1l0-0.1l0-0.1l0-0.1l-0.4-0.2L60,60l-0.1,0l0,0l0-0.1l0-0.1l0-0.1l0-0.1l0-0.1
		l-0.1-0.3l-0.5-0.4l0-0.1l-0.1-0.1L59,58.4l-0.1-0.1v-0.1l0,0l0.1-0.1l0-0.1v-0.1l0-0.1l-0.2-0.1l-0.4,0l-0.2-0.1v-0.1h-0.1v-0.1
		l0.1-0.1l0.1,0l0.1,0v-0.1l0,0h0l0,0l0.1-0.1l-0.1-0.1l-0.1,0l-0.1,0l-0.1,0.1l-0.1,0l-0.2,0.2l-0.3,0.5h-0.1V58l0.2-0.2l0-0.1
		l0.1-0.3l0.1-0.1l-0.1-0.1v-0.1l0.1-0.1l0-0.1l-0.1-0.1l-0.1-0.1l-0.1,0l-0.1,0.2l-0.1,0l-0.1,0.1l-0.2,0.2l-0.2,0.3l-0.1,0.1
		l0,0.1l0-0.1l0,0l0-0.1l0.1-0.1l0.1-0.2l0-0.2l-0.1-0.2l-0.1,0L56.4,57l-0.1,0h-0.1l-0.1,0.1l-0.7,0.2l-0.1,0l-0.1,0.1l-0.1,0
		l-0.1,0l-0.2,0l0-0.1l0,0l0,0l0,0l-0.1,0l-0.3-0.2l-0.2,0l-0.1-0.1h0l0,0.1l-0.2,0.3L54,57.6L54,57.7l0,0.2l0.3,0.3l0.1,0.1
		L54,58.4l0,0.1l0,0.2l0.1,0.3L53.9,59l-0.2,0l-0.2-0.1l0-0.2l-0.3,0.1l-0.1,0l-0.1,0l-0.2-0.2l-0.1,0l-0.4,0l-0.1,0l-0.1-0.1l0,0.1
		l0,0.1l0,0.1l0,0.1L52,58.5L52,58.7l0,0.2l0,0.2L51.9,59l0,0l0-0.1h0l0,0.2l0,0.1l0,0.1l-0.1,0.1l0.1,0.1l-0.1,0.1l-0.1-0.1
		l-0.2-0.1l-0.1-0.1v-0.1l0,0l0.1-0.1l-0.2,0L51.3,59l-0.2,0.2l0-0.1l0-0.1L51,58.9l-0.1,0v-0.1H51v-0.1l-0.1,0l0-0.1l0-0.1l0-0.1
		l0,0l-0.3,0.1l-0.2,0.1l-0.1,0l-0.1,0l0,0.1l0,0.1l0,0.1l-0.1,0.1h0l0-0.1l0-0.1h0l0,0.1l-0.1-0.1l-0.2,0l-0.2,0l-0.1,0.1L49.2,59
		l-0.1,0.1l0,0.1l0.1,0v0.1h-0.1l-0.2-0.1l-0.1,0l-0.1,0l-0.2,0.1l-0.2,0l0.1-0.3L48.3,59l-0.2,0l-0.2,0.1l-0.2,0.1l-0.2,0v0.1l0,0
		l0.1,0.1l-0.2,0l-0.3,0.1l-0.2,0h-0.6v0.1l0.1,0l0,0l0,0l0,0l0.2,0.1l-0.1,0l-0.4-0.1L46,59.9l0.1,0.2l0.2,0.2l-0.1,0l-0.3-0.1
		l-0.2,0l-0.2,0l-0.1,0l-0.1,0.1l0.1,0.1l-0.1,0l-0.1-0.1L45,60.5l-0.2,0.4l-0.1,0.3l0.2,0.1v0.1l-0.1,0l-0.1,0.2l0,0.2l0,0.2
		l0.1,0.3l0,0.1l-0.1,0l0,0.2l0.1,0.1l0.1,0l0.4,0l0.1,0l0-0.1l0-0.1l0,0l0.1,0l0.3,0.1l0.1,0l0.2,0l0.2-0.1l0.4-0.1l0.5-0.3
		l0.2-0.1l0.5-0.1l0.2-0.1l0.2-0.1l0.1,0l-0.7,0.4l-0.1,0.1l-0.4,0.5V63l0.1,0l0.1,0l0.1,0l0.1-0.1l0.1,0.1l0,0l0,0l0,0l0.2,0
		l0.2-0.2l0.1,0.1l0-0.1l0-0.1l0-0.1h0.1v0.1h-0.1v0.1l0.1,0l0.2-0.1h0.1l-0.1,0.2l-0.1,0.1l0,0l0,0l-0.1,0l0,0l-0.1,0.1l0.3,0l0,0
		l0,0.1l0.1,0l0.1,0l0.1-0.1l0,0.1l0.1,0l0.2,0v0.1l-0.6,0.1l-0.2-0.1l0.1,0l0,0l0,0l-0.5,0l-0.4,0.1l-0.1,0l-0.1,0l-0.1,0l-0.1-0.1
		l-0.1,0l-0.7,0l-0.2-0.1l0.1-0.4l-0.1-0.1L46.4,63l-0.1,0.4l0,0l0,0.1l0,0.1l-0.1,0l-0.1,0l-0.1,0l-0.1,0l-0.1,0l0,0.1l0,0.1l0.5,0
		l0.1,0l0.1,0.1l0,0l-0.1,0.1l0,0.1l0,0.1l0,0.1l0.1,0.1l0,0.1l-0.1,0.2l0.2-0.1l0.1-0.2l0.1-0.3l0.1-0.2l0.2-0.1l0.4,0.3l0.2-0.1
		l0,0.1l0,0.1l0,0.1l0.1,0l0.3,0.1l0.1,0.1l0,0.3l0,0.1l0.1,0.1l0,0.1l-0.1,0.3l0,0.1l-0.1,0l-0.4-0.1l-2.5,0.6l0,0L45.3,66l0,0l0,0
		l0,0l0,0l0,0.1l0,0.1l0,0.1l-0.1,0l0.6,0.2l0.3,0l0.1,0l0.2,0.2l0.1-0.1l0.1-0.1l0.1-0.1l0.1,0l0.7,0.5l0.4,0.5l0.1,0.2l0.1,0.3
		l0.1,0.3l0,0.2l0,0.1l-0.1,0h-0.1l0,0l0,0.1l0,0.2l0,0.1l1.1,0.1l0.2-0.1l0.1-0.1l0.3-0.2v-0.1h-0.2v-0.1l0,0l0,0l-0.1-0.1l0-0.1
		l0.1,0l0.1,0.3l0.1-0.1l0.1-0.1l0.1,0l0.1,0v-0.1l-0.1-0.1l-0.1-0.2l0-0.2l0.1-0.1l0,0.2l0.1,0.2l0.1,0.1l0.1,0.1l0.1,0l0.1,0
		l0.2,0.2l0-0.1l0.1,0l0.1,0l0.1,0l0,0.1l0,0.1l-0.1,0l-0.1,0l0.2,0l0.2-0.2l0.1-0.2L50.8,68l0.2,0l0.2,0.1l0.1,0.2l0,0.1l0.1,0.1
		l0,0l0.1,0l0,0.1l0,0.1l0.1,0l0.1,0.1l0.1,0.3l0,0l0.1,0l0.2,0l0.2,0l0.1,0.1l0.4-0.2l0.1,0l0.1,0.2l0.1,0.1l0.3,0l0,0l0.1,0.1
		l0.1,0l0.1,0l0.2,0l0.3,0.1l0.1,0l0.1-0.1l0,0.1l0,0l0.1,0.1l0.1,0.2l0.2,0.3l0,0.1l0.1,0l0.6-0.2V70l0-0.1l0,0l-0.1,0l0.2,0
		l0.2-0.1l0.2-0.2l0.2-0.2v0.1l-0.1,0.1l-0.1,0.1L56,69.9l0,0l-0.1,0l0,0V70l0,0.1l0,0l-0.1,0v0.1l0.3,0l0.1,0l0.1,0.1v0.1L56,70.3
		l-0.1,0l-0.1,0.1l0.2,0l0.3,0.1l0.2,0.1l0.2,0.3l0.1,0l0.1,0l0-0.1l0-0.1l0.1-0.1l-0.1-0.1l0,0l0.1,0l0.1-0.1l0.1,0l0.1,0.1l0,0
		l0,0l0,0l0,0l0-0.2l0-0.1l-0.1-0.1l-0.1,0l0.1,0l0.1,0.1l0.1,0l0.1-0.1h0l0,0.1l0,0.2l0,0l0.1,0l0,0v0.1l0,0.1l0,0.1l0,0.1L57,70.5
		l-0.1,0.3l0,0.1l0,0.1l0.1,0l0.1,0l0.1,0l0.1,0.1l0.1,0.1l0.1,0.2l0,0.3l0,0.2l-0.1,0.2l0,0.1l0,0.1l0.1,0.3h0l0.1-0.1l0.2,0l0.1,0
		l-0.2-0.2l-0.1-0.3l0-0.3l0.1-0.4l0,0l0,0l0,0l0.1-0.1l0.1,0l0.1,0.1l0.1,0.1l-0.1,0l-0.1,0l0.1,0.1l0.1,0l0.2-0.1l0,0.1l0,0l0.1,0
		l0-0.2l0-0.1l0.1,0l0,0.2l0,0.1l0.1,0l0-0.1l0-0.2l0.1,0.1l0.1,0.1l0.1,0.1l0.1,0l0.1,0.1l0,0l0,0l0,0l0-0.1l-0.1-0.1l-0.1-0.1
		l-0.1-0.1l0-0.1V71l0-0.1l0-0.1l0-0.1h0.1l0,0.1l0.1,0.1l0.1,0.1l0.1,0l-0.1,0.1l0,0.1l0,0.1l0,0.1H59l0,0l0,0l0.1,0v0.1h-0.1v0.1
		l0.3-0.1l0.2-0.1l0.1-0.1l0.1-0.1l0.4,0l0.2-0.1L60.1,71l0.2,0l0.1,0.1l0.1,0.1l-0.2-0.1l-0.2,0l0.4,0.2l0,0.1l0.1,0l0,0l0-0.1
		l-0.1-0.1l0.1,0l0-0.1l0-0.1L60.7,71V71l0.2,0.2l0,0.2l-0.3,0.4l0.1,0.1L60.4,72l-0.2,0L60,72l-0.1-0.1l0,0.2l0,0.1L59.8,72l-0.1,0
		l0,0l0,0.1h-0.1l-0.1-0.2h-0.2l-0.1,0.1l0.1,0.1l0,0.1l0,0l0,0l0.1,0l0.1,0l0,0.1l0,0l0.1,0.2l0,0l0.1,0.1l0.1,0.1l0.1,0l0.1,0
		l0.4-0.1l0.1,0l0.3,0.1l0.1-0.1l0-0.3l0.1,0.1l0.1,0l0.2,0l0-0.1l0,0l0,0l-0.1,0l0.1,0l0.1,0l0.1,0l0.1-0.1l-0.1,0.2l-0.1,0.1
		l-0.1,0.1l-0.1,0l0.1,0.1l0,0l0,0l0.1,0h0.3l0.3-0.1l0.1,0l0.1,0l0.6,0.2l0.1,0l0.2,0l0.1,0l-0.2,0l-0.3,0.1l-0.5,0l-0.1,0.1
		l0.1,0.1l-0.1,0.2l0.1,0.1l0.2,0l0.1,0.1l-0.1,0.2l0.1,0l0.2,0l0.1,0l0,0.1l-0.3,0.1l-0.1,0.1l-0.1-0.1l0,0l0,0l0-0.1l-0.1,0
		l-0.1,0l-0.1,0l-0.6,0.4l0.3,0.2l0.1,0.2l0,0.3h0.1l0-0.1l0,0l0-0.1l0,0l0,0l0.1,0l0.1,0.2l0.2,0.2l0.1,0.2l-0.1,0.2l-0.2,0
		l-0.3-0.2l-0.2,0v0.1l0.7,0.4l0.2,0l0,0l0-0.1l0-0.1L63,75l0.1,0l0.1,0l0.1,0l0.1,0.1l0.2,0.2l0.1,0.1l0.1,0.1l0.2,0l0.1-0.1
		l0.2-0.2l0.2-0.1l0.1-0.1l0-0.1l0-0.1l0.1-0.1l0.2-0.1l1.1-0.1l0.3,0.1l0.1,0.1l0.1,0l0.2,0l0.2,0.1l0.3,0.2l0.3,0.2l0.2,0.3
		l0.1,0.1l0.3,0.1l0.2,0.1l-0.4,0l-0.2-0.1l-0.2-0.2l-0.1-0.1l-0.3-0.1l-0.3-0.2v-0.1h0.2l-0.1-0.1l-0.1,0l-0.1,0h-0.1l0.1,0.1
		l-0.1,0L66.2,75l-0.1-0.1l-0.1-0.1l-0.1,0l-0.1,0l-0.1,0L65.2,75L65,75.1l-0.1,0.1l0,0.1l0,0.1l0,0.1l0,0.2l0.1,0.2l0,0.2l0,0.2
		l0,0.1l-0.1,0l-0.3,0l-0.1,0.1l-0.1,0.1l-0.1,0.1l0.3,0.2l0.9,0.2l0.5,0.3l0.1,0.1l0.1,0.1l0.1,0.2l0,0.2L66.1,78L66,78.2l-0.1,0.4
		l-0.1,0.2l-0.3,0.2L65.4,79l0,0.2l-0.2,0.1l-0.1,0.1l0,0.2l0,0.2l0,0.2l0.1,0.2l0.1,0.1l0.2,0.1l0.2,0.2l0.4,0.4l0.2,0.5l0.1,0.1
		l0.1,0l0.1,0l0.1,0.1l0.1,0.3l0.1,0.1l0.1,0.1l0.1,0.1l0,0.1l0,0.2l0.1,0.1l0.1,0.1l0,0.2l0.2,0.8l0.1,0.1l0.1,0l0,0l0-0.1l0-0.2
		l0-0.1l0.1,0.1l0.1,0.2L68,84l0.1,0.1l0.2,0.1l0.3,0.2l0.4,0.1l0.1,0.1l-0.1,0.1l0.2,0.1l0.5,0l0.2,0l0.2,0.1l0.1,0.2l0,0.3
		l0.1,0.2l0.2,0l0.4-0.1l0.1,0l0.2,0.2l0.2,0.1l0.1,0l0.1,0l0.1,0.2l0.1,0.2l0.2,0.1l0-0.4l0.3-0.2l0.3,0l0.2,0.2l0,0.2l0,0.1l0,0.1
		L73,86.6l-0.5,0.3L72.4,87l0,0.2l-0.1,0l-0.1,0.1l0,0.1l0,0.1l0.1,0.1l0.1,0l0.1,0l0.1,0l0.1,0l0,0l0,0l0,0.1l0,0.1l0,0l0.1,0
		L73,88l-0.1,0.1v0l0,0l0,0.1l0,0l0.1,0l0,0l0,0l0,0.1l0.1,0.1l0,0.1l0,0.1l0.1,0.1l0.1,0l0,0.1l0,0v0.1l-0.1,0.2l-0.1,0.1l-0.1,0
		L73,89.2l0.1,0.4l0.1,0.1l0.1,0.1l0,0L73.2,90l0,0l0,0.1l0.1,0.1l0,0.1l0,0.1l0,0.1l0,0l-0.1,0l-0.1,0L73,90.6l-0.1,0.1l0,0l0,0.1
		l-0.1,0.1l-0.1,0l0.1,0.1l0.1,0.2l0,0.2l0,0.1l0,0.1l0.2,0.2l0.7,0.6l0.2,0.2l-0.5-0.3l-0.1-0.1l-0.1-0.1l-0.5-0.6l-0.2,0l-0.5,0.2
		l0,0.1L72,92.6l0.1,0.1l0.3-0.1l0.1,0.1l0.1,0.1l0.1,0.1l0.1,0.1l0.1,0l0.2,0.1l0.4,0.4l0.3,0.1l0,0l0,0.2l0,0l1.1,0.8l0.4,0.4
		l0.2,0.3l0.2,0.3l0.3,0.7l0.1,0.4l0.3,2.1l0.1,0.3l0.1,0.3l0.3,0.2l0.3,0.1l0.3,0.2l0.2,0.3l-0.2-0.1l-0.2-0.1l-0.2,0l-0.2,0
		l0.2,0.1l0.2,0.2l0.1,0.2l-0.1,0.3l0,0.1l0,0.3l0,0.2l-0.1-0.1l-0.1-0.2l0-0.2l0-0.2l0-0.2l0-0.1l-0.1-0.1l-0.1-0.1l-0.2-0.1
		l-0.3-0.3l-0.3-0.3L76.1,99l0-0.1l-0.1-1l-0.1-0.4l0-0.2l-0.1-0.3l-0.2-0.3l-0.9-1l-0.1,0l-0.3-0.2l-0.5-0.4l-0.1-0.1l-0.1-0.1
		l0-0.1l0-0.1l0-0.1l0,0l0-0.1l0-0.1l0,0l-0.1,0l-0.1,0l-0.1,0.2l-0.3,0.5l0,0.2l-0.1,2.3l-0.3,1.7l-0.5,5.4l0.1-0.1l0.1-0.3
		l0.1-0.5l0.3-0.5l0.1-0.1l0,0l0,0l0,0l0,0l0.1,0l0,0l0,0l0,0l0.1,0l0.6,0.5l0.1,0.2h-0.1l0.2,0.2l0,0.2l-0.2,0.1l-0.3,0l-0.5-0.1
		l-0.2,0l-0.2,0.2l-0.1,0.5l0,0.1l0,0.1l-0.2,0.3l0,0.1l0.1,0.3l0,0.2l-0.1,0.7l-0.2,1.5l-0.5,3l-0.3,1.4l-0.2,0.6l-0.3,1.7
		l-0.2,0.6l-0.1,0.3l-0.1,0.4l-0.1,0.1l-0.4,0.3l-0.1,0.1l0,0.1l-0.2,0.3l-0.1,0.1l-0.1,0.1l-0.2,0.1l-0.2,0.1l-0.7,0.1l-0.1,0.1
		l-0.1,0.1l-0.1-0.1l0,0.3l0,0.2l0,0.1l0.2,0.1l0.1,0.1l0,0.2l0,0.1l0.1,0l0.1,0l0.2,0l0.2-0.1l0.1,0l0.1,0.1l0.1,0.1l0,0.1l0,0.1
		l0,0.1l0.1,0.2l0,0l0.1,0l0.1,0l0.1,0l0.1,0l0-0.1l0.1-0.2l0.1-0.1l0.2,0l0.2,0.1l0.3,0.2l0.1,0l0.1,0h0.1l0.2,0.2l0,0.4l-0.1,0.4
		l-0.1,0.3l-0.1,0.1l-0.3,0.3l-0.1,0.1l0.1,0.2l0.1,0.2l0.2,0.1l0.2,0l0.2,0l0.1,0l0.1-0.1l0-0.3l0.1-0.2l0.1-0.1l0.2-0.1l0.2,0
		l-0.2,0.1l-0.1,0.1l0,0.1l0.1,0.2l0.1,0.1l0.4,0.1l0.3,0.1l0.3,0.2l0.3,0l0.1,0l0.1,0.1l0.1,0l0.3,0l0.1,0l0.1,0.1l0.3,0.2l0.3,0.1
		l0.6,0.1l0.6-0.1l0.2,0.1l0.1,0.4l0,0.1l0,0l0,0.1l0,0.1l0.1,0.1l0.1,0l0.1,0l0.1,0l0.3,0.2l0.1,0.1l0.3,0.4l0,0l0,0l0,0l0.1,0h0.1
		l0,0l0,0.1l0,0.1l0,0.1l0.1,0l0.1,0l0.1-0.1l0.1,0l0-0.2l0.2,0l0.4,0.2l0.2,0l0.2-0.1l0.4-0.3l0.1,0.1l0.1,0l0.1-0.1l0-0.1l0.1,0.1
		l0.5,0.3l0.1,0.2l0.2,0l0.2-0.1l0.1-0.1l0,0.2l0,0.2l0.1,0.2l0.1,0.1l0,0.1l0,0.1l0,0.1l0.1,0l0.1,0l0.1,0l0,0.1l0,0l0.3,0.1l0.3,0
		l0.6-0.2l0.5-0.1l0.1-0.1l0.1,0l0.4,0.1l0.1,0.1l0.2,0.3l0.1,0.1l0.1,0l0.2-0.3l0.1-0.1l0.1-0.1l0.2,0.2l0,0l0,0l0,0l0,0l0.2,0
		l0.2,0l0.3-0.1l0.1,0.1l1,0l0.3,0l0.1,0l0.1-0.1l0-0.2l-0.1-0.2l-0.1-0.1l-0.1,0l0-0.1l0,0l0.1,0l-0.1-0.1l0.1-0.3l0-0.2l0-0.2
		l0.2-0.1l0.2,0l0.1,0l0.3,0.1l0.1,0l0.1,0l0.1,0l0.3,0.2l0.2,0.1l0.1,0.1l0.1,0.1l0.1,0l0.1,0l0.1-0.1l0.1,0l0.1,0l0.1,0.1l0.1,0
		l0.7,0l0.2,0.1l0.1,0.1l0.1,0.1l0.1,0.2l0.1,0.1l0.1,0.1l0.1,0l0.3-0.1l1,0l0.2,0l0,0.1l0,0l0.1,0l0.1,0l0.1,0.2l0.1,0.2l0.1,0.4
		l0.1,0.1l0.2-0.1l0.1-0.4l0.2,0l0.2-0.1l0.1,0l0.4,0.3l0.1,0l0.9,0.1l-0.1,0.2l0.1,0.1l0.2,0.1l0.1,0.1l-0.2,0l-0.1,0.1l-0.1,0.2
		l0,0.3l0,0l0,0l0,0l0,0l0.1,0.1l0.5,0.1l0.2,0.1l0.4,0.3l0.2,0l0.1,0l0.1,0.1l0.1,0.2l0.1,0.4l0.1,0.2l0.2,0.1l0.1,0.1l0.1,0l0.2,0
		l0.1,0l0.1-0.1l0.1-0.1l0.2-0.1l0-0.1l0.1-0.2l0-0.1l0.1-0.1l0.4,0l0.5-0.1l0.2,0l0.2,0.1l0.1,0.1l0.4,0.2l0.2,0.1l0.1,0l0.1,0.2
		l0.1,0.2l0.1,0.1l0.1,0l0.2,0.1l0.1,0l0.1,0l0.1,0l0.1-0.2l0.1-0.1l0.1,0l0.4,0.1l0.2,0l0.2,0l0,0l-0.1-0.1l-0.1-0.2l0.1-0.1
		l0.3-0.3l0.1-0.1l0.2,0l0.3,0l0.2,0l0.1-0.1l0.2-0.2l0.1-0.1l0.1,0l0.1,0l0.1,0l0.3-0.2l0.2,0.1l0.1-0.1l0.1,0l0.2,0l0.1,0l0,0.1
		l0.1,0.1l0.1,0.1l0.1,0.1l0.2,0.1l0.2,0l0.2,0l0.5-0.1l0-0.1l0-0.3l-0.3-0.3l-0.5-0.5l-0.1-0.2l-0.1-0.8l0-0.1l0-0.1l0,0l-0.1,0
		l0,0l-0.1-0.1l0-0.1l0-0.1l0.1-0.1l0.1,0.1l0,0l0-0.1l0.1-0.5l0-0.2l0-0.2l0-0.2l0-0.1l-0.1,0l-0.2-0.1l-0.1,0l-0.1,0l-0.1-0.1
		l0-0.1l-0.1-0.1l0.3-0.3l0.1,0l0-0.1l0-0.2l0-0.1l0.1,0l0.1,0.1l0.1,0l0.1-0.1l0-0.1l-0.2-0.2l-0.1-0.2l0-0.2l0.1-0.1l0.2,0
		l-0.1,0.2l0,0.1l0,0.1l0.1,0l0-0.1l0-0.1l0.1-0.1l0-0.1l0-0.1l0-0.3l0-0.1l0.1-0.2l0-0.1l-0.1-0.1l-0.1-0.1l-0.1-0.1l-0.1-0.3
		l0-0.1l0.1,0h0.2l0,0l-0.1,0.1l-0.1,0.1v0.1l0.1,0.1l0,0.1l0,0l0.1,0l0.2-0.3l0-0.1l0.1-0.1l0.2-0.2l0.1-0.1l0.1-0.2l0.1-0.1
		l0.1-0.2l1.1-0.8l0.3-0.1l0.2,0l0.3,0.2l0.2-0.1l0.6-0.8l0.3-0.2l0.9-0.5l1.5-1.3v-0.1l-0.3,0.1l-0.2,0.2l-0.4,0.4l-0.4,0.3
		l-0.3,0.1l-0.3,0v-0.1l0.7-0.3l0.1-0.1l0-0.2l0.1-0.1l0.5-0.4l0.2-0.1l0.5-0.1l0.3-0.3l0.2-0.1l0.4-0.1l-0.1,0.2l-0.1,0.1l-0.1,0.1
		l-0.2,0l-0.4,0l-0.2,0.1l-0.1,0.1l0.3-0.1l0.5,0l0.4,0l0.2,0.2l0,0l0.2,0.6l0,0.1l0.1,0.1l0.2,0.1l0.2,0l2.4,0.1l0.3,0.1l0.2,0.2
		l0,0.2l-0.1,0.2l-0.1,0.2l0,0.1l0.2,0.1l0.3,0.1l1.1,0.1l0.3-0.1l-0.2-0.2l-0.2-0.2l-0.2-0.2l-0.1-0.4v-0.8l0-0.1l-0.2-0.4v-0.1
		l0.1,0.1l0.1,0.2l0.1,0.2l0,0.2l0,0.2l0,0.6l0.1,0.3l0.3,0.2l0.3,0.2l0.3,0.1l-0.1-0.2l-0.1-0.1l0-0.1l0.1-0.1l0.1-0.1l0.2,0
		l0.1-0.1l0.2-0.1l0.4,0.2l0.1-0.1l0.2,0.1l0.2-0.1l0.1-0.2l-0.1-0.3l-0.1-0.1l-0.1-0.1l-0.1-0.1l0-0.2l0-0.1l0-0.1l0.1-0.1l0.1-0.1
		l0,0l0.1,0.2l0,0l0.2,0l0.1,0l0.2,0.1l0,0.1l0,0.1l0.1,0.2l0.2,0.2l0.2,0l0.2-0.1l0.2-0.1l0,0.3l-0.1,0.2l-0.2,0.2l-0.1,0.1
		l-0.2,0.1h-0.7l-0.2,0.1l-0.1,0.2l0,0.2l0.2,0.2l0.2,0.1l0.5,0l0.1,0l0.3,0l1-0.2l0.2,0.1v0.5l0,0.1l0.1,0.1l0.1,0l0,0l0,0.1l0,0.1
		l-0.1,0.2l-0.1,0.1l0,0.1l0.1,0.1l0.1,0l0.2,0l0.1,0.1l0.1,0l0.2,0l0.2,0l0.1,0.1l0,0l0.1,0l0.1-0.1l0.1-0.1l0.1,0l0.2,0.3l0.1,0.1
		l0.1,0l0,0l0,0l0,0l0,0l0,0l0-0.1l0,0l0.4,0l0.1,0.1l0,0.2l0.3,0.2l0.1,0l0.2,0l0.1,0l0,0.1l0.1,0l0.1,0l0.1,0l0,0l-0.2,0.1
		l-0.1,0.1l0,0.1l0.1,0.1l0.4,0.2l0.2,0l0.1-0.1l0-0.1l0.1-0.1l0.1,0l0.2,0v-0.1l-0.1-0.1l-0.2-0.2l-0.1-0.1l0.2-0.1l0.1,0l0.1,0
		l0,0.1l0,0.1l0,0.1l0.2-0.1l0.2,0l0.2,0.1l0.1,0.1l0.1,0l0.6,0l0.1,0v0.1l0,0.2l0,0l-0.3,0v0.1l0.1,0l0.5,0l0.1,0v-0.1h-0.1l-0.1,0
		l-0.1-0.1l0.1-0.2l0-0.2l0.1-0.1l0.2-0.1l0.1,0l0.5,0l0.1,0l0.1,0l0.1,0l0.1,0l0,0.1l0,0.1l0,0l0.3,0l0.1-0.1l-0.1-0.2l0-0.1l0-0.1
		l0-0.1l0.1-0.1l0.1-0.1l0.2,0l0.2-0.1l0.2-0.1l0.1,0l0.2,0l0.1,0l0.1-0.1l0.1-0.1l0.1-0.1l0.2,0l0.1,0.1l0,0.1l0,0.1l0,0l0.1,0
		l0.1-0.1l0.1,0l-0.1-0.1l0.3-0.3l0-0.1l0,0l0,0l0,0l0-0.1l0-0.1l0,0l0,0l0-0.1l0.1-0.2l0-0.1l-0.7,0l0,0l0-0.1l0.1-0.1l0.2-0.1
		l0.2,0l0.1-0.1l0-0.1l0.1-0.1l0.1-0.1l0.1,0l0.1-0.1l0.1-0.3l0.1-0.2l0.1-0.2l0.1-0.1l0.2,0.1l0.2,0.1l0.4,0l0,0l0-0.1l0,0l0,0.1
		l0,0l0,0l0.1,0l0,0l0,0l0-0.1l0,0h0.1l0,0l0,0l0.3-0.5l0,0l0,0l0-0.2l0,0l0.1-0.2l0.1-0.1l0.1-0.1l0.1-0.1l0.2,0.1l0.2-0.1l0.2-0.1
		l0.2-0.1l0,0l0,0.1l0,0.1l0.1,0l0,0l0,0l0-0.1l0-0.1l0-0.5l0-0.1l0.1,0l0.1-0.1l0.1-0.1l0.1,0l0.1,0l0.1,0l0.1,0l0.1-0.1l0.1-0.2
		l0.1-0.1l0.1,0l0.1,0l0.4,0l0,0.1l0,0l0.1,0l0-0.1l0-0.1l0.1-0.1l0.1,0l0-0.1l0.1-0.1l0.1-0.1l0.2,0.1l0.1-0.1l0.1,0l0.1,0l0.1,0
		l0,0l0.1,0l0,0l0-0.1l0,0l0,0l0,0h0l0.1-0.1l-0.2-0.5l0-0.3l0.1-0.2l0.3-0.4l0.2-0.2l0.4-0.3l0.2-0.2l0.1-0.1l0.1-0.2l0-0.1
		l0.1-0.1l0.1-0.1l0.1-0.1l0-0.2l-0.1-0.3l-0.2-0.2l-0.1-0.2l0.1-0.3l-0.2,0l-0.3,0.2l-0.2,0l-1.3,0.4l-0.3,0l-0.1,0l-0.1-0.1l0-0.1
		l-0.1-0.1l-0.1,0l-0.2,0l-0.1-0.1l-0.8-0.5l-0.3-0.1l-0.5-0.2l-0.1,0l-0.1,0l-0.1,0l-0.1,0l-0.1,0l-0.1-0.1l0-0.1l0-0.1l0-0.1
		l-0.1-0.1l-0.2-0.1L135,108l0-0.1l-0.1-0.2l-0.1-0.1l-0.2-0.2l0,0l0-0.1l0-0.1l0-0.1l0.1-0.3l0.1-0.1l0.3-0.1l-0.2-0.2l-0.2-0.2
		l-0.2-0.3l0-0.3l0.1-0.1l0.4-0.3l0.3-0.5l0.1-0.1l-0.1-0.2l0.1-0.2l0.1-0.2l0.2-0.1l0.1,0l0.3,0.1l0.1,0l0-0.1l-0.2-0.4l0-0.1
		l0-0.3l-0.1-0.2l0,0l0-0.2l0,0l0-0.1l0,0l0,0l0-0.1l0-0.1l-0.1-0.2l-0.4-0.2l-0.1,0l-0.4,0.1l-0.1,0l-0.5-0.3l-0.3-0.2l-0.1-0.2
		l0-0.6l0-0.3l-0.2-0.1l-0.3,0L133,100l-0.1-0.2l0-0.1l0-0.1l0-0.1l-0.1-0.1l-0.1-0.2l0.1-0.1l0.1-0.1l0.3-0.2l0.1,0l0.1,0l0.1,0
		l0.1,0l0.1-0.1l0.1,0l0.3,0l0.3,0.2l0.3,0.1l0.3-0.1l0-0.1l0,0l0-0.1l0-0.1l0.1,0l0.2,0l0.1,0l0.1-0.1l0.1-0.2l0.1-0.1l0.3-0.1
		l0.3-0.1l0.1,0l0.1,0.1l0,0l0.1-0.1l0.1-0.3l0.2-0.2v-0.2l-0.1-0.2l0-0.3l0-0.1l0.2-0.3l0.2-0.3l0.1-0.2l0-0.1l-0.1,0l-0.3-0.1
		l-0.1-0.1l-0.1-0.1l-0.1-0.1l-0.1-0.1l-0.3-0.3l-0.4-0.2l-0.1-0.2l0-0.5l0-0.1l-0.1-0.1l0-0.1l0-0.1l0.1-0.2l0-0.1l0-0.2l-0.1-0.1
		l-0.3-0.1l-0.1-0.1l-0.2-0.2l-0.1,0l-0.2,0l-0.2-0.2l-0.2-0.2l-0.1-0.5l0-0.2l0-0.2l0-0.2l0.1-0.2l0.1-0.1l0.2,0v0l0,0l0-0.1l0,0
		l0,0l0.1,0l0,0l0.1,0l0.2,0l0.2,0l0.2-0.1l0.2-0.1l0.1-0.2l0-0.1l0.1-0.1l0.1-0.1l0.1-0.1l-0.1-0.1l0-0.1l-0.1-0.2l-0.1-0.2l0-0.1
		l0,0l-0.5-0.6l-0.2-0.1l-0.1,0l-0.1,0.1l-0.1,0l-0.1,0l-0.1-0.1l0,0l0,0l0-0.1l0,0l0-0.1l0-0.1l0,0l0-0.1l0.1-0.1l0.1-0.1l0-0.1
		l-0.1-0.1l-0.6-0.1l-0.1-0.2l0.1-0.4L134,87l0.3-0.5l-0.2-0.3l-0.3-0.3l-0.1-0.3l0-0.1l0.2-0.2L134,85l0-0.2l-0.1-0.1l-0.1-0.1
		l-1.2-0.3l-0.5,0l-0.5,0.1l-0.7,0.5l-0.3,0.1l-0.3,0l-0.2,0.1l-0.2,0.2l-0.2,0.3l-0.2,0.2l0,0.2l0,0.1l0.1,0.2l0,0l0.1,0.2l0,0
		l0.1,0l0.1-0.1l0.1,0l0,0.3l-0.2,0.2l-0.5,0.3l-0.4,0.5l-0.3,0.1l-0.3-0.1l-0.4,0l-0.3,0.1l-0.2,0.1l0.1-0.2l0.1-0.1l0-0.1
		l-0.1-0.2l-0.1-0.2l0-0.1l0.2-0.1l0.5-0.2l0,0h0l0.1,0l0,0l0,0l0.2-0.1l0-0.1l0-0.1l0-0.1l0.1-0.3l0-0.1l0.3-0.6l0-0.1l-0.1-0.2
		l-0.1-0.1l-0.4-0.3l0.1-0.1l0-0.1l0-0.1v-0.1l0,0l0,0l0-0.1v-0.1l0-0.1l0.1-0.1l0.3-0.5l0.3-0.3l-0.2-0.2l0-0.1l0.1-0.1l1-1
		l0.6-0.3l0.1-0.1l0.2-0.2l0.3-0.1l0.1-0.1l0.1-0.1l0-0.1l0-0.2l-0.1-0.1l0-0.1l0-0.1l0-0.1l0.1-0.4l0.1-0.1l0-0.1l0-0.2l0-0.1
		l-0.1-0.2l0-0.1l0.1-0.4l0.4-0.2l0.8-0.3l0.5-0.4l0.2-0.3l-0.1-0.2l0.1-0.2l0.1-0.1l0.2-0.1l0-0.1l0,0l0.1-0.1l0-0.2l0.2-0.1
		l0.5-0.5l0.1-0.2l0.2-0.2l0.5-0.4l0-0.3l0-0.2l0.1-0.2l0.1,0l0,0l0.1-0.2l0.1,0l0.1,0l0.1,0l0.1-0.1l-0.1-0.1l-0.1-0.1l-0.1-0.1
		l-0.1,0.1l-0.9,0.1l0-0.1l0.1-0.2l0.1-0.1l0.2-0.1l0-0.2l0.2,0l0.1-0.1l0.1-0.1l0.1-0.1l0-0.1l-0.1-0.2l0-0.1l0.1,0l0.1-0.1l0.1,0
		l0.1,0l0.1,0.1l0.2,0l0.4-0.1l0.2,0l0.1,0.1l0.1,0l0.2,0l-0.1,0.3l0,0.2l0.2,0.1l0.2,0.1l0,0l0,0l0,0l0.1,0l0.1,0l0.3-0.1l0.2,0
		l0.5,0l0.2-0.1l0.2-0.2l0-0.1l0-0.1l0-0.1l0,0l0-0.1v-0.1l0.1,0l0.1,0l0.1,0.1l0.1,0l0.1-0.1l0,0l0,0v0l0,0l-0.1-0.1l0,0l0,0l0,0
		l0.1,0l0.1,0l0-0.1l0-0.1l0,0l-0.1-0.1l0,0l0.3-0.3l0.2-0.1l0.3-0.1l0,0l0,0l0-0.1l0,0l0-0.1l0-0.1l0,0l0-0.1l-0.2-0.3l-0.1-0.1
		l-0.1-0.1l0-0.1l0-0.1l0-0.2l0-0.1l0.1-0.1l0-0.1l0-0.2l-0.1-0.4l0-0.2l0.1-0.4l0-0.1l0.1-0.1l0-0.1l0-0.2l0-0.1l0,0l0,0l0,0l0-0.1
		l0.1,0l0-0.1l0-0.1l0-0.1l0-0.2l0-0.2l0.2-0.2l0.1-0.1l0-0.4l-0.3-0.6l0-0.5l0-0.2l0.1-0.2l0.1-0.1l0.1-0.1l0-0.1l0-0.2l0.1-0.1
		l0.5-0.7l0.1-0.2l0-0.2l0-0.2l0.1-0.2l0.1-0.1l0.1-0.1l0.1-0.2l0-0.2l0-0.2l0-0.1l0-0.1l0-0.2l0.1-0.3l0-0.1l0.1-0.1l0.1-0.1l0-0.1
		l0-0.2l0-0.1l0.1-0.1l0.2-0.2v-0.1l-0.1-0.2v-0.4l0.1-0.4l0.3-0.5l0.1-0.1l0.1,0l0.1-0.1l0.2-0.3l0.1-0.1l0.1-0.1l0.1-0.1l0-0.1
		l0-0.2l0-0.1l0.1,0l0.2,0l0.1,0l0,0l0-0.1l0-0.1l0-0.1l0,0l0,0l0.1,0l0.3-0.2l0,0l0.1-0.2l0.4-1l0.2-0.5l0.2-0.2l-0.1-0.1
		L144.1,55.5z M97,127.6L97,127.6L97,127.6l-0.3,0l-0.1-0.1l0-0.1l0.1-0.2l0.1,0l0.1,0.1l0.1,0.2L97,127.6L97,127.6z"/>
	<g>
		<g>
			<path class="st1" d="M159.1,28.2c-15.3,0.2-36.6,15.1-42.6,30.5"/>
			<g>
				<path class="st2" d="M116.5,58.6c0.3-0.1,0.8-0.1,1.2,0c-0.6,0.2-1.1,0.4-1.5,0.9c0-0.6-0.3-1.1-0.5-1.7
					C116,58,116.4,58.3,116.5,58.6z"/>
			</g>
		</g>
	</g>
	<g>
		<path class="st3" d="M171.2,26.6h-0.9l-1.5-2.3h-1.2v2.3H167v-5.8h2.3c0.5,0,1,0.2,1.3,0.5s0.5,0.7,0.5,1.3c0,0.5-0.1,0.9-0.4,1.2
			c-0.3,0.3-0.7,0.5-1.1,0.5L171.2,26.6z M169.2,23.6c0.3,0,0.6-0.1,0.8-0.3c0.2-0.2,0.3-0.5,0.3-0.8c0-0.3-0.1-0.6-0.3-0.8
			s-0.5-0.3-0.8-0.3h-1.5v2.2H169.2z"/>
		<path class="st3" d="M175.7,26.6h-0.7V26c-0.2,0.2-0.4,0.4-0.7,0.5c-0.3,0.1-0.5,0.2-0.8,0.2c-0.9,0-1.3-0.4-1.3-1.3v-3h0.7v2.8
			c0,0.3,0.1,0.6,0.2,0.7c0.2,0.1,0.4,0.2,0.7,0.2c0.2,0,0.5-0.1,0.7-0.2c0.2-0.1,0.4-0.3,0.5-0.5v-3.1h0.7V26.6z"/>
		<path class="st3" d="M178.4,26.7c-0.7,0-1.3-0.2-1.7-0.7l0.3-0.5c0.1,0.2,0.3,0.3,0.6,0.4c0.3,0.1,0.5,0.2,0.8,0.2
			c0.3,0,0.6-0.1,0.7-0.2c0.2-0.1,0.3-0.3,0.3-0.5c0-0.2-0.1-0.3-0.3-0.4c-0.2-0.1-0.4-0.2-0.7-0.2c-0.3-0.1-0.5-0.1-0.8-0.2
			c-0.3-0.1-0.5-0.2-0.7-0.4c-0.2-0.2-0.3-0.4-0.3-0.7c0-0.3,0.1-0.6,0.4-0.9c0.3-0.2,0.7-0.3,1.1-0.3c0.6,0,1.2,0.2,1.6,0.6
			l-0.3,0.5c-0.3-0.4-0.7-0.5-1.3-0.5c-0.3,0-0.5,0.1-0.7,0.2s-0.3,0.3-0.3,0.5c0,0.2,0.1,0.3,0.3,0.4c0.2,0.1,0.4,0.2,0.7,0.2
			c0.3,0.1,0.5,0.1,0.8,0.2s0.5,0.2,0.7,0.4c0.2,0.2,0.3,0.4,0.3,0.7c0,0.4-0.1,0.7-0.4,0.9C179.3,26.5,178.9,26.7,178.4,26.7z"/>
		<path class="st3" d="M182.5,26.7c-0.7,0-1.3-0.2-1.7-0.7l0.3-0.5c0.1,0.2,0.3,0.3,0.6,0.4c0.3,0.1,0.5,0.2,0.8,0.2
			c0.3,0,0.6-0.1,0.7-0.2c0.2-0.1,0.3-0.3,0.3-0.5c0-0.2-0.1-0.3-0.3-0.4c-0.2-0.1-0.4-0.2-0.7-0.2c-0.3-0.1-0.5-0.1-0.8-0.2
			c-0.3-0.1-0.5-0.2-0.7-0.4c-0.2-0.2-0.3-0.4-0.3-0.7c0-0.3,0.1-0.6,0.4-0.9c0.3-0.2,0.7-0.3,1.1-0.3c0.6,0,1.2,0.2,1.6,0.6
			l-0.3,0.5c-0.3-0.4-0.7-0.5-1.3-0.5c-0.3,0-0.5,0.1-0.7,0.2c-0.2,0.1-0.3,0.3-0.3,0.5c0,0.2,0.1,0.3,0.3,0.4
			c0.2,0.1,0.4,0.2,0.7,0.2c0.3,0.1,0.5,0.1,0.8,0.2c0.3,0.1,0.5,0.2,0.7,0.4c0.2,0.2,0.3,0.4,0.3,0.7c0,0.4-0.1,0.7-0.4,0.9
			C183.4,26.5,183,26.7,182.5,26.7z"/>
		<path class="st3" d="M185.5,21.7c-0.1,0-0.2,0-0.3-0.1c-0.1-0.1-0.1-0.2-0.1-0.3c0-0.1,0-0.2,0.1-0.3c0.1-0.1,0.2-0.1,0.3-0.1
			c0.1,0,0.2,0,0.3,0.1c0.1,0.1,0.1,0.2,0.1,0.3c0,0.1,0,0.2-0.1,0.3C185.7,21.7,185.6,21.7,185.5,21.7z M185.8,26.6h-0.7v-4.2h0.7
			V26.6z"/>
		<path class="st3" d="M190.4,26.6h-0.7v-0.5c-0.4,0.4-0.8,0.6-1.4,0.6c-0.4,0-0.7-0.1-1-0.4c-0.3-0.3-0.4-0.6-0.4-1
			c0-0.4,0.1-0.8,0.4-1c0.3-0.2,0.6-0.4,1-0.4c0.6,0,1.1,0.2,1.4,0.6v-0.8c0-0.3-0.1-0.5-0.3-0.7c-0.2-0.2-0.5-0.2-0.8-0.2
			c-0.5,0-0.9,0.2-1.3,0.6l-0.3-0.5c0.4-0.5,1-0.7,1.7-0.7c0.5,0,0.9,0.1,1.2,0.3c0.3,0.2,0.5,0.6,0.5,1.1V26.6z M188.6,26.2
			c0.5,0,0.9-0.2,1.2-0.5v-0.8c-0.3-0.3-0.6-0.5-1.2-0.5c-0.3,0-0.6,0.1-0.7,0.3c-0.2,0.2-0.3,0.4-0.3,0.7c0,0.3,0.1,0.5,0.3,0.7
			C188.1,26.1,188.3,26.2,188.6,26.2z"/>
	</g>
	<g>
		<path class="st3" d="M169.7,53.3c-0.8,0-1.6-0.3-2.1-0.8c-0.6-0.6-0.9-1.3-0.9-2.2c0-0.9,0.3-1.6,0.9-2.2c0.6-0.6,1.3-0.8,2.1-0.8
			c0.9,0,1.7,0.4,2.2,1.2l-0.6,0.3c-0.2-0.3-0.4-0.5-0.7-0.6c-0.3-0.2-0.6-0.2-0.9-0.2c-0.6,0-1.2,0.2-1.6,0.7
			c-0.4,0.4-0.6,1-0.6,1.7c0,0.7,0.2,1.3,0.6,1.7c0.4,0.4,1,0.7,1.6,0.7c0.3,0,0.6-0.1,0.9-0.2c0.3-0.2,0.5-0.4,0.7-0.6l0.6,0.3
			C171.4,52.9,170.6,53.3,169.7,53.3z"/>
		<path class="st3" d="M176.4,53.2h-0.7v-2.8c0-0.3-0.1-0.6-0.2-0.7c-0.2-0.1-0.4-0.2-0.7-0.2c-0.2,0-0.5,0.1-0.7,0.2
			c-0.2,0.1-0.4,0.3-0.5,0.5v3.1h-0.7v-5.8h0.7v2.2c0.2-0.2,0.4-0.4,0.7-0.5c0.3-0.1,0.6-0.2,0.9-0.2c0.9,0,1.3,0.4,1.3,1.3V53.2z"
			/>
		<path class="st3" d="M178,48.3c-0.1,0-0.2,0-0.3-0.1c-0.1-0.1-0.1-0.2-0.1-0.3c0-0.1,0-0.2,0.1-0.3c0.1-0.1,0.2-0.1,0.3-0.1
			c0.1,0,0.2,0,0.3,0.1c0.1,0.1,0.1,0.2,0.1,0.3c0,0.1,0,0.2-0.1,0.3C178.2,48.3,178.1,48.3,178,48.3z M178.3,53.2h-0.7v-4.2h0.7
			V53.2z"/>
		<path class="st3" d="M183.1,53.2h-0.7v-2.8c0-0.4-0.1-0.6-0.2-0.8c-0.2-0.1-0.4-0.2-0.7-0.2c-0.2,0-0.5,0.1-0.7,0.2
			c-0.2,0.1-0.4,0.3-0.5,0.5v3.1h-0.7v-4.2h0.7v0.6c0.2-0.2,0.4-0.4,0.7-0.5c0.3-0.1,0.6-0.2,0.8-0.2c0.9,0,1.3,0.5,1.3,1.4V53.2z"
			/>
		<path class="st3" d="M187.7,53.2h-0.7v-0.5c-0.4,0.4-0.8,0.6-1.4,0.6c-0.4,0-0.7-0.1-1-0.4c-0.3-0.3-0.4-0.6-0.4-1
			c0-0.4,0.1-0.8,0.4-1c0.3-0.2,0.6-0.4,1-0.4c0.6,0,1.1,0.2,1.4,0.6v-0.8c0-0.3-0.1-0.5-0.3-0.7c-0.2-0.2-0.5-0.2-0.8-0.2
			c-0.5,0-0.9,0.2-1.3,0.6l-0.3-0.5c0.4-0.5,1-0.7,1.7-0.7c0.5,0,0.9,0.1,1.2,0.3c0.3,0.2,0.5,0.6,0.5,1.1V53.2z M185.9,52.8
			c0.5,0,0.9-0.2,1.2-0.5v-0.8c-0.3-0.3-0.6-0.5-1.2-0.5c-0.3,0-0.6,0.1-0.7,0.3c-0.2,0.2-0.3,0.4-0.3,0.7c0,0.3,0.1,0.5,0.3,0.7
			C185.4,52.7,185.6,52.8,185.9,52.8z"/>
	</g>
	<g>
		<path class="st3" d="M169.6,82H167v-5.8h2.6c0.5,0,0.9,0.1,1.2,0.4c0.3,0.3,0.4,0.6,0.4,1.1c0,0.3-0.1,0.6-0.3,0.9
			c-0.2,0.2-0.4,0.4-0.7,0.5c0.3,0,0.6,0.2,0.8,0.5c0.2,0.3,0.3,0.6,0.3,0.9c0,0.5-0.1,0.9-0.4,1.1S170.1,82,169.6,82z M169.4,78.7
			c0.3,0,0.6-0.1,0.7-0.3s0.3-0.4,0.3-0.7c0-0.3-0.1-0.5-0.3-0.7c-0.2-0.2-0.4-0.3-0.7-0.3h-1.7v1.9H169.4z M169.5,81.4
			c0.3,0,0.6-0.1,0.8-0.3c0.2-0.2,0.3-0.4,0.3-0.7c0-0.3-0.1-0.5-0.3-0.7c-0.2-0.2-0.5-0.3-0.8-0.3h-1.8v2H169.5z"/>
		<path class="st3" d="M175.7,82h-0.7v-0.5c-0.4,0.4-0.8,0.6-1.4,0.6c-0.4,0-0.7-0.1-1-0.4c-0.3-0.3-0.4-0.6-0.4-1
			c0-0.4,0.1-0.8,0.4-1c0.3-0.2,0.6-0.4,1-0.4c0.6,0,1.1,0.2,1.4,0.6v-0.8c0-0.3-0.1-0.5-0.3-0.7c-0.2-0.2-0.5-0.2-0.8-0.2
			c-0.5,0-0.9,0.2-1.3,0.6l-0.3-0.5c0.4-0.5,1-0.7,1.7-0.7c0.5,0,0.9,0.1,1.2,0.3c0.3,0.2,0.5,0.6,0.5,1.1V82z M173.9,81.7
			c0.5,0,0.9-0.2,1.2-0.5v-0.8c-0.3-0.3-0.6-0.5-1.2-0.5c-0.3,0-0.6,0.1-0.7,0.3c-0.2,0.2-0.3,0.4-0.3,0.7c0,0.3,0.1,0.5,0.3,0.7
			C173.4,81.6,173.6,81.7,173.9,81.7z"/>
		<path class="st3" d="M180.5,82h-0.7v-2.8c0-0.4-0.1-0.6-0.2-0.8c-0.2-0.1-0.4-0.2-0.7-0.2c-0.2,0-0.5,0.1-0.7,0.2
			c-0.2,0.1-0.4,0.3-0.5,0.5V82H177v-4.2h0.7v0.6c0.2-0.2,0.4-0.4,0.7-0.5c0.3-0.1,0.6-0.2,0.8-0.2c0.9,0,1.3,0.5,1.3,1.4V82z"/>
		<path class="st3" d="M183.5,83.7c-0.4,0-0.7,0-1-0.1c-0.3-0.1-0.5-0.3-0.8-0.5l0.3-0.5c0.3,0.4,0.8,0.6,1.4,0.6
			c0.4,0,0.7-0.1,1-0.3c0.3-0.2,0.4-0.5,0.4-1v-0.6c-0.2,0.2-0.4,0.4-0.6,0.5c-0.3,0.1-0.5,0.2-0.8,0.2c-0.6,0-1-0.2-1.4-0.6
			c-0.3-0.4-0.5-0.9-0.5-1.6c0-0.7,0.2-1.2,0.5-1.6s0.8-0.6,1.4-0.6c0.6,0,1,0.2,1.4,0.7v-0.6h0.7v4.1c0,0.6-0.2,1.1-0.6,1.4
			C184.6,83.6,184.1,83.7,183.5,83.7z M183.6,81.5c0.3,0,0.5-0.1,0.7-0.2c0.2-0.1,0.4-0.3,0.5-0.5V79c-0.1-0.2-0.3-0.4-0.5-0.5
			c-0.2-0.1-0.5-0.2-0.7-0.2c-0.4,0-0.7,0.1-1,0.4c-0.2,0.3-0.4,0.7-0.4,1.2c0,0.5,0.1,0.9,0.4,1.2
			C182.9,81.3,183.2,81.5,183.6,81.5z"/>
		<path class="st3" d="M187.5,82h-0.7v-5.8h0.7V82z"/>
		<path class="st3" d="M192.1,82h-0.7v-0.5c-0.4,0.4-0.8,0.6-1.4,0.6c-0.4,0-0.7-0.1-1-0.4c-0.3-0.3-0.4-0.6-0.4-1
			c0-0.4,0.1-0.8,0.4-1c0.3-0.2,0.6-0.4,1-0.4c0.6,0,1.1,0.2,1.4,0.6v-0.8c0-0.3-0.1-0.5-0.3-0.7c-0.2-0.2-0.5-0.2-0.8-0.2
			c-0.5,0-0.9,0.2-1.3,0.6l-0.3-0.5c0.4-0.5,1-0.7,1.7-0.7c0.5,0,0.9,0.1,1.2,0.3c0.3,0.2,0.5,0.6,0.5,1.1V82z M190.3,81.7
			c0.5,0,0.9-0.2,1.2-0.5v-0.8c-0.3-0.3-0.6-0.5-1.2-0.5c-0.3,0-0.6,0.1-0.7,0.3c-0.2,0.2-0.3,0.4-0.3,0.7c0,0.3,0.1,0.5,0.3,0.7
			C189.8,81.6,190,81.7,190.3,81.7z"/>
		<path class="st3" d="M197.1,82h-0.7v-0.6c-0.4,0.5-0.8,0.7-1.4,0.7c-0.6,0-1-0.2-1.4-0.6c-0.3-0.4-0.5-0.9-0.5-1.6
			c0-0.7,0.2-1.2,0.5-1.6c0.3-0.4,0.8-0.6,1.4-0.6c0.6,0,1.1,0.2,1.4,0.7v-2.2h0.7V82z M195.2,81.5c0.3,0,0.5-0.1,0.7-0.2
			c0.2-0.1,0.4-0.3,0.5-0.5V79c-0.1-0.2-0.3-0.4-0.5-0.5s-0.5-0.2-0.7-0.2c-0.4,0-0.7,0.2-1,0.5c-0.2,0.3-0.4,0.7-0.4,1.2
			c0,0.5,0.1,0.9,0.4,1.2C194.5,81.4,194.8,81.5,195.2,81.5z"/>
		<path class="st3" d="M200.4,82.1c-0.6,0-1.1-0.2-1.5-0.6s-0.6-0.9-0.6-1.6c0-0.6,0.2-1.1,0.6-1.6c0.4-0.4,0.9-0.6,1.5-0.6
			c0.6,0,1.1,0.2,1.5,0.6c0.4,0.4,0.5,1,0.5,1.6v0.2h-3.4c0,0.4,0.2,0.8,0.5,1c0.3,0.3,0.6,0.4,1.1,0.4c0.5,0,1-0.2,1.3-0.5l0.3,0.4
			C201.6,81.9,201.1,82.1,200.4,82.1z M201.7,79.6c0-0.4-0.1-0.7-0.4-1c-0.2-0.3-0.6-0.4-1-0.4c-0.4,0-0.7,0.1-1,0.4
			c-0.2,0.3-0.4,0.6-0.4,1H201.7z"/>
		<path class="st3" d="M204.7,82.1c-0.7,0-1.3-0.2-1.7-0.7l0.3-0.5c0.1,0.2,0.3,0.3,0.6,0.4c0.3,0.1,0.5,0.2,0.8,0.2
			c0.3,0,0.6-0.1,0.7-0.2c0.2-0.1,0.3-0.3,0.3-0.5c0-0.2-0.1-0.3-0.3-0.4c-0.2-0.1-0.4-0.2-0.7-0.2c-0.3-0.1-0.5-0.1-0.8-0.2
			c-0.3-0.1-0.5-0.2-0.7-0.4c-0.2-0.2-0.3-0.4-0.3-0.7c0-0.3,0.1-0.6,0.4-0.9c0.3-0.2,0.7-0.3,1.1-0.3c0.6,0,1.2,0.2,1.6,0.6
			l-0.3,0.5c-0.3-0.4-0.7-0.5-1.3-0.5c-0.3,0-0.5,0.1-0.7,0.2c-0.2,0.1-0.3,0.3-0.3,0.5c0,0.2,0.1,0.3,0.3,0.4
			c0.2,0.1,0.4,0.2,0.7,0.2c0.3,0.1,0.5,0.1,0.8,0.2c0.3,0.1,0.5,0.2,0.7,0.4c0.2,0.2,0.3,0.4,0.3,0.7c0,0.4-0.1,0.7-0.4,0.9
			C205.6,82,205.2,82.1,204.7,82.1z"/>
		<path class="st3" d="M211,82h-0.7v-2.8c0-0.3-0.1-0.6-0.2-0.7c-0.2-0.1-0.4-0.2-0.7-0.2c-0.2,0-0.5,0.1-0.7,0.2
			c-0.2,0.1-0.4,0.3-0.5,0.5V82h-0.7v-5.8h0.7v2.2c0.2-0.2,0.4-0.4,0.7-0.5c0.3-0.1,0.6-0.2,0.9-0.2c0.9,0,1.3,0.4,1.3,1.3V82z"/>
	</g>
	<g>
		<path class="st3" d="M171.4,112h-0.9l-2.2-2.6l-0.6,0.7v2H167v-5.8h0.7v3l2.6-3h0.9l-2.4,2.8L171.4,112z"/>
		<path class="st3" d="M175.2,111.5c-0.4,0.4-0.9,0.6-1.5,0.6c-0.6,0-1.1-0.2-1.5-0.6c-0.4-0.4-0.6-1-0.6-1.6s0.2-1.2,0.6-1.6
			c0.4-0.4,0.9-0.6,1.5-0.6c0.6,0,1.1,0.2,1.5,0.6c0.4,0.4,0.6,0.9,0.6,1.6S175.6,111.1,175.2,111.5z M172.7,111.1
			c0.3,0.3,0.6,0.5,1,0.5c0.4,0,0.8-0.2,1-0.5c0.3-0.3,0.4-0.7,0.4-1.2c0-0.5-0.1-0.8-0.4-1.2c-0.3-0.3-0.6-0.5-1-0.5
			c-0.4,0-0.8,0.2-1,0.5c-0.3,0.3-0.4,0.7-0.4,1.1C172.3,110.4,172.4,110.8,172.7,111.1z"/>
		<path class="st3" d="M178.2,112.1c-0.7,0-1.3-0.2-1.7-0.7l0.3-0.5c0.1,0.2,0.3,0.3,0.6,0.4c0.3,0.1,0.5,0.2,0.8,0.2
			c0.3,0,0.6-0.1,0.7-0.2c0.2-0.1,0.3-0.3,0.3-0.5c0-0.2-0.1-0.3-0.3-0.4c-0.2-0.1-0.4-0.2-0.7-0.2c-0.3-0.1-0.5-0.1-0.8-0.2
			c-0.3-0.1-0.5-0.2-0.7-0.4c-0.2-0.2-0.3-0.4-0.3-0.7c0-0.3,0.1-0.6,0.4-0.9c0.3-0.2,0.7-0.3,1.1-0.3c0.6,0,1.2,0.2,1.6,0.6
			l-0.3,0.5c-0.3-0.4-0.7-0.5-1.3-0.5c-0.3,0-0.5,0.1-0.7,0.2s-0.3,0.3-0.3,0.5c0,0.2,0.1,0.3,0.3,0.4c0.2,0.1,0.4,0.2,0.7,0.2
			c0.3,0.1,0.5,0.1,0.8,0.2c0.3,0.1,0.5,0.2,0.7,0.4c0.2,0.2,0.3,0.4,0.3,0.7c0,0.4-0.1,0.7-0.4,0.9
			C179.2,112,178.7,112.1,178.2,112.1z"/>
		<path class="st3" d="M184.3,111.5c-0.4,0.4-0.9,0.6-1.5,0.6c-0.6,0-1.1-0.2-1.5-0.6c-0.4-0.4-0.6-1-0.6-1.6s0.2-1.2,0.6-1.6
			c0.4-0.4,0.9-0.6,1.5-0.6c0.6,0,1.1,0.2,1.5,0.6c0.4,0.4,0.6,0.9,0.6,1.6S184.7,111.1,184.3,111.5z M181.8,111.1
			c0.3,0.3,0.6,0.5,1,0.5c0.4,0,0.8-0.2,1-0.5c0.3-0.3,0.4-0.7,0.4-1.2c0-0.5-0.1-0.8-0.4-1.2c-0.3-0.3-0.6-0.5-1-0.5
			c-0.4,0-0.8,0.2-1,0.5c-0.3,0.3-0.4,0.7-0.4,1.1C181.4,110.4,181.5,110.8,181.8,111.1z"/>
		<path class="st3" d="M187.8,112h-0.7l-1.8-4.2h0.7l1.4,3.5l1.4-3.5h0.7L187.8,112z"/>
		<path class="st3" d="M193.6,111.5c-0.4,0.4-0.9,0.6-1.5,0.6c-0.6,0-1.1-0.2-1.5-0.6c-0.4-0.4-0.6-1-0.6-1.6s0.2-1.2,0.6-1.6
			c0.4-0.4,0.9-0.6,1.5-0.6c0.6,0,1.1,0.2,1.5,0.6c0.4,0.4,0.6,0.9,0.6,1.6S194,111.1,193.6,111.5z M191,111.1
			c0.3,0.3,0.6,0.5,1,0.5s0.8-0.2,1-0.5c0.3-0.3,0.4-0.7,0.4-1.2c0-0.5-0.1-0.8-0.4-1.2c-0.3-0.3-0.6-0.5-1-0.5s-0.8,0.2-1,0.5
			c-0.3,0.3-0.4,0.7-0.4,1.1C190.7,110.4,190.8,110.8,191,111.1z"/>
	</g>
	<g>
		<path class="st3" d="M10.4,24.7H9.6l-0.5-1.3H6.2l-0.5,1.3H4.9l2.3-5.8h0.9L10.4,24.7z M8.9,22.7l-1.2-3.1l-1.2,3.1H8.9z"/>
		<path class="st3" d="M11.8,24.7h-0.7v-5.8h0.7V24.7z"/>
		<path class="st3" d="M13.8,24.7h-0.7v-5.8h0.7v2.2c0.4-0.5,0.8-0.7,1.4-0.7c0.6,0,1,0.2,1.4,0.6c0.3,0.4,0.5,0.9,0.5,1.6
			c0,0.7-0.2,1.2-0.5,1.6c-0.3,0.4-0.8,0.6-1.4,0.6c-0.6,0-1.1-0.2-1.4-0.7V24.7z M13.8,23.5c0.1,0.2,0.3,0.3,0.5,0.5
			c0.2,0.1,0.5,0.2,0.7,0.2c0.4,0,0.8-0.2,1-0.5c0.2-0.3,0.4-0.7,0.4-1.2c0-0.5-0.1-0.9-0.4-1.2c-0.2-0.3-0.6-0.5-1-0.5
			c-0.3,0-0.5,0.1-0.7,0.2c-0.2,0.1-0.4,0.3-0.5,0.5V23.5z"/>
		<path class="st3" d="M21.5,24.7h-0.7v-0.5c-0.4,0.4-0.8,0.6-1.4,0.6c-0.4,0-0.7-0.1-1-0.4c-0.3-0.3-0.4-0.6-0.4-1
			c0-0.4,0.1-0.8,0.4-1c0.3-0.2,0.6-0.4,1-0.4c0.6,0,1.1,0.2,1.4,0.6v-0.8c0-0.3-0.1-0.5-0.3-0.7s-0.5-0.2-0.8-0.2
			c-0.5,0-0.9,0.2-1.3,0.6l-0.3-0.5c0.4-0.5,1-0.7,1.7-0.7c0.5,0,0.9,0.1,1.2,0.3c0.3,0.2,0.5,0.6,0.5,1.1V24.7z M19.6,24.3
			c0.5,0,0.9-0.2,1.2-0.5V23c-0.3-0.4-0.6-0.5-1.2-0.5c-0.3,0-0.6,0.1-0.7,0.3c-0.2,0.2-0.3,0.4-0.3,0.7c0,0.3,0.1,0.5,0.3,0.7
			C19.1,24.2,19.3,24.3,19.6,24.3z"/>
		<path class="st3" d="M26.3,24.7h-0.7v-2.8c0-0.4-0.1-0.6-0.2-0.8C25.2,21,25,21,24.7,21c-0.2,0-0.5,0.1-0.7,0.2
			c-0.2,0.1-0.4,0.3-0.5,0.5v3.1h-0.7v-4.2h0.7v0.6c0.2-0.2,0.4-0.4,0.7-0.5c0.3-0.1,0.6-0.2,0.8-0.2c0.9,0,1.3,0.5,1.3,1.4V24.7z"
			/>
		<path class="st3" d="M27.9,19.9c-0.1,0-0.2,0-0.3-0.1c-0.1-0.1-0.1-0.2-0.1-0.3c0-0.1,0-0.2,0.1-0.3c0.1-0.1,0.2-0.1,0.3-0.1
			c0.1,0,0.2,0,0.3,0.1c0.1,0.1,0.1,0.2,0.1,0.3c0,0.1,0,0.2-0.1,0.3C28.1,19.8,28,19.9,27.9,19.9z M28.2,24.7h-0.7v-4.2h0.7V24.7z"
			/>
		<path class="st3" d="M32.9,24.7h-0.7v-0.5c-0.4,0.4-0.8,0.6-1.4,0.6c-0.4,0-0.7-0.1-1-0.4c-0.3-0.3-0.4-0.6-0.4-1
			c0-0.4,0.1-0.8,0.4-1c0.3-0.2,0.6-0.4,1-0.4c0.6,0,1.1,0.2,1.4,0.6v-0.8c0-0.3-0.1-0.5-0.3-0.7c-0.2-0.2-0.5-0.2-0.8-0.2
			c-0.5,0-0.9,0.2-1.3,0.6l-0.3-0.5c0.4-0.5,1-0.7,1.7-0.7c0.5,0,0.9,0.1,1.2,0.3c0.3,0.2,0.5,0.6,0.5,1.1V24.7z M31,24.3
			c0.5,0,0.9-0.2,1.2-0.5V23c-0.3-0.4-0.6-0.5-1.2-0.5c-0.3,0-0.6,0.1-0.7,0.3c-0.2,0.2-0.3,0.4-0.3,0.7c0,0.3,0.1,0.5,0.3,0.7
			C30.5,24.2,30.7,24.3,31,24.3z"/>
	</g>
	<g>
		<path class="st3" d="M95.4,7.1h-0.7V1.3h0.7V7.1z"/>
		<path class="st3" d="M97.4,7.1h-0.7V2.9h0.7v0.7c0.4-0.5,0.9-0.8,1.4-0.8v0.7c-0.1,0-0.2,0-0.3,0c-0.2,0-0.4,0.1-0.6,0.2
			c-0.2,0.1-0.4,0.3-0.5,0.5V7.1z"/>
		<path class="st3" d="M102.9,7.1h-0.7V6.6c-0.4,0.4-0.8,0.6-1.4,0.6c-0.4,0-0.7-0.1-1-0.4c-0.3-0.3-0.4-0.6-0.4-1
			c0-0.4,0.1-0.8,0.4-1c0.3-0.2,0.6-0.4,1-0.4c0.6,0,1.1,0.2,1.4,0.6V4.2c0-0.3-0.1-0.5-0.3-0.7c-0.2-0.2-0.5-0.2-0.8-0.2
			c-0.5,0-0.9,0.2-1.3,0.6l-0.3-0.5c0.4-0.5,1-0.7,1.7-0.7c0.5,0,0.9,0.1,1.2,0.3c0.3,0.2,0.5,0.6,0.5,1.1V7.1z M101.1,6.7
			c0.5,0,0.9-0.2,1.2-0.5V5.4c-0.3-0.3-0.6-0.5-1.2-0.5c-0.3,0-0.6,0.1-0.7,0.3s-0.3,0.4-0.3,0.7c0,0.3,0.1,0.5,0.3,0.7
			S100.8,6.7,101.1,6.7z"/>
		<path class="st3" d="M105.8,7.2c-0.6,0-1-0.2-1.4-0.6C104.1,6.2,104,5.6,104,5c0-0.7,0.2-1.2,0.5-1.6c0.3-0.4,0.8-0.6,1.4-0.6
			c0.3,0,0.6,0.1,0.8,0.2c0.3,0.1,0.5,0.3,0.6,0.5V2.9h0.7v5.8h-0.7V6.4C106.9,6.9,106.4,7.2,105.8,7.2z M106,6.6
			c0.3,0,0.5-0.1,0.7-0.2c0.2-0.1,0.4-0.3,0.5-0.5V4c-0.1-0.2-0.3-0.3-0.5-0.5c-0.2-0.1-0.5-0.2-0.7-0.2c-0.4,0-0.7,0.2-1,0.5
			c-0.2,0.3-0.4,0.7-0.4,1.2c0,0.5,0.1,0.9,0.4,1.2C105.2,6.4,105.6,6.6,106,6.6z"/>
	</g>
	<g>
		<path class="st3" d="M17.3,138.4c-0.9,0-1.7-0.3-2.2-0.9l0.4-0.6c0.5,0.6,1.1,0.8,1.8,0.8c0.5,0,0.8-0.1,1-0.3
			c0.2-0.2,0.3-0.4,0.3-0.7c0-0.2-0.1-0.4-0.2-0.5c-0.1-0.1-0.3-0.2-0.5-0.3c-0.2-0.1-0.4-0.1-0.7-0.2c-0.2-0.1-0.5-0.1-0.7-0.2
			c-0.2-0.1-0.5-0.2-0.7-0.3c-0.2-0.1-0.4-0.3-0.5-0.5c-0.1-0.2-0.2-0.4-0.2-0.7c0-0.5,0.2-0.9,0.6-1.2c0.4-0.3,0.9-0.5,1.4-0.5
			c0.9,0,1.6,0.3,2.1,0.8l-0.4,0.5c-0.4-0.5-1-0.7-1.7-0.7c-0.3,0-0.6,0.1-0.9,0.3c-0.2,0.2-0.3,0.4-0.3,0.7c0,0.2,0.1,0.4,0.3,0.5
			c0.2,0.1,0.4,0.2,0.6,0.3c0.3,0.1,0.5,0.1,0.8,0.2c0.3,0.1,0.6,0.2,0.8,0.3c0.3,0.1,0.5,0.3,0.6,0.5c0.2,0.2,0.3,0.5,0.3,0.9
			c0,0.5-0.2,0.9-0.5,1.2C18.5,138.2,18,138.4,17.3,138.4z"/>
		<path class="st3" d="M20.2,139.9l0.1-0.6c0.1,0,0.2,0.1,0.4,0.1c0.2,0,0.3,0,0.4-0.1c0.1-0.1,0.2-0.2,0.3-0.3l0.3-0.6l-1.8-4.3
			h0.7l1.4,3.5l1.4-3.5H24l-2.1,5.1c-0.2,0.6-0.6,0.8-1.2,0.9C20.5,140,20.3,140,20.2,139.9z"/>
		<path class="st3" d="M25.4,138.3h-0.7V134h0.7v0.7c0.4-0.5,0.9-0.8,1.4-0.8v0.7c-0.1,0-0.2,0-0.3,0c-0.2,0-0.4,0.1-0.6,0.2
			c-0.2,0.1-0.4,0.3-0.5,0.5V138.3z"/>
		<path class="st3" d="M27.9,133.4c-0.1,0-0.2,0-0.3-0.1c-0.1-0.1-0.1-0.2-0.1-0.3s0-0.2,0.1-0.3c0.1-0.1,0.2-0.1,0.3-0.1
			c0.1,0,0.2,0,0.3,0.1c0.1,0.1,0.1,0.2,0.1,0.3s0,0.2-0.1,0.3C28.1,133.4,28,133.4,27.9,133.4z M28.2,138.3h-0.7V134h0.7V138.3z"/>
		<path class="st3" d="M32.9,138.3h-0.7v-0.5c-0.4,0.4-0.8,0.6-1.4,0.6c-0.4,0-0.7-0.1-1-0.4c-0.3-0.3-0.4-0.6-0.4-1
			c0-0.4,0.1-0.8,0.4-1c0.3-0.2,0.6-0.4,1-0.4c0.6,0,1.1,0.2,1.4,0.6v-0.8c0-0.3-0.1-0.5-0.3-0.7s-0.5-0.2-0.8-0.2
			c-0.5,0-0.9,0.2-1.3,0.6l-0.3-0.5c0.4-0.5,1-0.7,1.7-0.7c0.5,0,0.9,0.1,1.2,0.3c0.3,0.2,0.5,0.6,0.5,1.1V138.3z M31,137.9
			c0.5,0,0.9-0.2,1.2-0.5v-0.8c-0.3-0.4-0.6-0.5-1.2-0.5c-0.3,0-0.6,0.1-0.7,0.3c-0.2,0.2-0.3,0.4-0.3,0.7c0,0.3,0.1,0.5,0.3,0.7
			C30.5,137.8,30.7,137.9,31,137.9z"/>
	</g>
	<g>
		<path class="st3" d="M11.7,49c-0.9,0-1.7-0.3-2.2-0.9l0.4-0.6c0.5,0.6,1.1,0.8,1.8,0.8c0.5,0,0.8-0.1,1-0.3
			c0.2-0.2,0.3-0.4,0.3-0.7c0-0.2-0.1-0.4-0.2-0.5c-0.1-0.1-0.3-0.2-0.5-0.3c-0.2-0.1-0.4-0.1-0.7-0.2c-0.2-0.1-0.5-0.1-0.7-0.2
			c-0.2-0.1-0.5-0.2-0.7-0.3c-0.2-0.1-0.4-0.3-0.5-0.5c-0.1-0.2-0.2-0.4-0.2-0.7c0-0.5,0.2-0.9,0.6-1.2c0.4-0.3,0.9-0.5,1.4-0.5
			c0.9,0,1.6,0.3,2.1,0.8l-0.4,0.5c-0.4-0.5-1-0.7-1.7-0.7c-0.3,0-0.6,0.1-0.9,0.3c-0.2,0.2-0.3,0.4-0.3,0.7c0,0.2,0.1,0.4,0.3,0.5
			c0.2,0.1,0.4,0.2,0.6,0.3c0.3,0.1,0.5,0.1,0.8,0.2c0.3,0.1,0.6,0.2,0.8,0.3c0.3,0.1,0.5,0.3,0.6,0.5c0.2,0.2,0.3,0.5,0.3,0.9
			c0,0.5-0.2,0.9-0.5,1.2C13,48.8,12.4,49,11.7,49z"/>
		<path class="st3" d="M18.4,48.9h-0.7v-0.6c-0.2,0.2-0.4,0.4-0.7,0.5c-0.3,0.1-0.5,0.2-0.8,0.2c-0.9,0-1.3-0.4-1.3-1.3v-3h0.7v2.8
			c0,0.3,0.1,0.6,0.2,0.7c0.2,0.1,0.4,0.2,0.7,0.2c0.2,0,0.5-0.1,0.7-0.2c0.2-0.1,0.4-0.3,0.5-0.5v-3.1h0.7V48.9z"/>
		<path class="st3" d="M23.4,48.9h-0.7v-0.6c-0.4,0.5-0.8,0.7-1.4,0.7c-0.6,0-1-0.2-1.4-0.6c-0.3-0.4-0.5-0.9-0.5-1.6
			c0-0.7,0.2-1.2,0.5-1.6c0.3-0.4,0.8-0.6,1.4-0.6c0.6,0,1.1,0.2,1.4,0.7v-2.2h0.7V48.9z M21.5,48.4c0.3,0,0.5-0.1,0.7-0.2
			c0.2-0.1,0.4-0.3,0.5-0.5v-1.9c-0.1-0.2-0.3-0.4-0.5-0.5c-0.2-0.1-0.5-0.2-0.7-0.2c-0.4,0-0.7,0.2-1,0.5c-0.2,0.3-0.4,0.7-0.4,1.2
			s0.1,0.9,0.4,1.2C20.8,48.3,21.1,48.4,21.5,48.4z"/>
		<path class="st3" d="M28,48.9h-0.7v-0.5C27,48.8,26.6,49,26,49c-0.4,0-0.7-0.1-1-0.4c-0.3-0.3-0.4-0.6-0.4-1c0-0.4,0.1-0.8,0.4-1
			c0.3-0.2,0.6-0.4,1-0.4c0.6,0,1.1,0.2,1.4,0.6V46c0-0.3-0.1-0.5-0.3-0.7c-0.2-0.2-0.5-0.2-0.8-0.2c-0.5,0-0.9,0.2-1.3,0.6
			l-0.3-0.5c0.4-0.5,1-0.7,1.7-0.7c0.5,0,0.9,0.1,1.2,0.3c0.3,0.2,0.5,0.6,0.5,1.1V48.9z M26.2,48.5c0.5,0,0.9-0.2,1.2-0.5v-0.8
			c-0.3-0.3-0.6-0.5-1.2-0.5c-0.3,0-0.6,0.1-0.7,0.3c-0.2,0.2-0.3,0.4-0.3,0.7c0,0.3,0.1,0.5,0.3,0.7C25.7,48.4,25.9,48.5,26.2,48.5
			z"/>
		<path class="st3" d="M32.9,48.9h-0.7v-2.8c0-0.4-0.1-0.6-0.2-0.8c-0.2-0.1-0.4-0.2-0.7-0.2c-0.2,0-0.5,0.1-0.7,0.2
			c-0.2,0.1-0.4,0.3-0.5,0.5v3.1h-0.7v-4.2H30v0.6c0.2-0.2,0.4-0.4,0.7-0.5c0.3-0.1,0.6-0.2,0.8-0.2c0.9,0,1.3,0.5,1.3,1.4V48.9z"/>
	</g>
	<g>
		<path class="st3" d="M21.7,75.4H21v-2.7h-3.4v2.7h-0.7v-5.8h0.7v2.5H21v-2.5h0.7V75.4z"/>
		<path class="st3" d="M26.4,75.4h-0.7V75c-0.4,0.4-0.8,0.6-1.4,0.6c-0.4,0-0.7-0.1-1-0.4c-0.3-0.3-0.4-0.6-0.4-1
			c0-0.4,0.1-0.8,0.4-1c0.3-0.2,0.6-0.4,1-0.4c0.6,0,1.1,0.2,1.4,0.6v-0.8c0-0.3-0.1-0.5-0.3-0.7c-0.2-0.2-0.5-0.2-0.8-0.2
			c-0.5,0-0.9,0.2-1.3,0.6L23,71.8c0.4-0.5,1-0.7,1.7-0.7c0.5,0,0.9,0.1,1.2,0.3s0.5,0.6,0.5,1.1V75.4z M24.5,75.1
			c0.5,0,0.9-0.2,1.2-0.5v-0.8c-0.3-0.3-0.6-0.5-1.2-0.5c-0.3,0-0.6,0.1-0.7,0.3c-0.2,0.2-0.3,0.4-0.3,0.7c0,0.3,0.1,0.5,0.3,0.7
			C24,75,24.2,75.1,24.5,75.1z"/>
		<path class="st3" d="M28,70.6c-0.1,0-0.2,0-0.3-0.1c-0.1-0.1-0.1-0.2-0.1-0.3s0-0.2,0.1-0.3c0.1-0.1,0.2-0.1,0.3-0.1
			c0.1,0,0.2,0,0.3,0.1c0.1,0.1,0.1,0.2,0.1,0.3s0,0.2-0.1,0.3C28.2,70.6,28.1,70.6,28,70.6z M28.3,75.4h-0.7v-4.2h0.7V75.4z"/>
		<path class="st3" d="M30.7,75.5c-0.3,0-0.5-0.1-0.7-0.3c-0.2-0.2-0.2-0.4-0.2-0.7v-2.8h-0.7v-0.6h0.7v-1.2h0.7v1.2h0.9v0.6h-0.9
			v2.6c0,0.2,0,0.3,0.1,0.4c0.1,0.1,0.2,0.1,0.3,0.1c0.2,0,0.3-0.1,0.4-0.2l0.2,0.5C31.3,75.4,31,75.5,30.7,75.5z"/>
		<path class="st3" d="M32.5,70.6c-0.1,0-0.2,0-0.3-0.1c-0.1-0.1-0.1-0.2-0.1-0.3s0-0.2,0.1-0.3c0.1-0.1,0.2-0.1,0.3-0.1
			c0.1,0,0.2,0,0.3,0.1c0.1,0.1,0.1,0.2,0.1,0.3s0,0.2-0.1,0.3C32.7,70.6,32.6,70.6,32.5,70.6z M32.9,75.4h-0.7v-4.2h0.7V75.4z"/>
	</g>
	<g>
		<path class="st3" d="M18.8,100.3h-2v-5.8h2c0.9,0,1.6,0.3,2.2,0.8c0.6,0.6,0.8,1.2,0.8,2.1c0,0.8-0.3,1.5-0.8,2.1
			C20.5,100,19.7,100.3,18.8,100.3z M18.8,99.6c0.7,0,1.2-0.2,1.6-0.6c0.4-0.4,0.6-1,0.6-1.6c0-0.7-0.2-1.2-0.6-1.6
			c-0.4-0.4-0.9-0.6-1.6-0.6h-1.3v4.5H18.8z"/>
		<path class="st3" d="M27.2,100.3h-0.9L24.9,98h-1.2v2.3H23v-5.8h2.3c0.5,0,1,0.2,1.3,0.5c0.3,0.3,0.5,0.7,0.5,1.3
			c0,0.5-0.1,0.9-0.4,1.2c-0.3,0.3-0.6,0.5-1.1,0.5L27.2,100.3z M25.2,97.3c0.3,0,0.6-0.1,0.8-0.3c0.2-0.2,0.3-0.5,0.3-0.8
			c0-0.3-0.1-0.6-0.3-0.8c-0.2-0.2-0.5-0.3-0.8-0.3h-1.5v2.2H25.2z"/>
		<path class="st3" d="M31,100.4c-0.8,0-1.6-0.3-2.1-0.8C28.3,99,28,98.3,28,97.4s0.3-1.6,0.9-2.2c0.6-0.6,1.3-0.8,2.1-0.8
			c0.9,0,1.7,0.4,2.2,1.2l-0.6,0.3c-0.2-0.3-0.4-0.5-0.7-0.6C31.7,95.1,31.4,95,31,95c-0.6,0-1.2,0.2-1.6,0.7
			c-0.4,0.4-0.6,1-0.6,1.7s0.2,1.3,0.6,1.7c0.4,0.4,1,0.7,1.6,0.7c0.3,0,0.6-0.1,0.9-0.2c0.3-0.2,0.5-0.4,0.7-0.6l0.6,0.3
			C32.7,100,32,100.4,31,100.4z"/>
	</g>
	<g>
		<path class="st0" d="M172.4,37.9h-5.9v-1.1c1.7-1.3,2.8-2.2,3.5-2.8c0.6-0.6,0.9-1.2,0.9-1.8c0-0.4-0.1-0.7-0.4-0.9
			c-0.3-0.2-0.6-0.3-1-0.3c-0.9,0-1.6,0.3-2.2,1l-0.8-0.9c0.3-0.4,0.8-0.7,1.3-1c0.5-0.2,1.1-0.3,1.7-0.3c0.8,0,1.5,0.2,2.1,0.7
			c0.6,0.4,0.8,1.1,0.8,1.8c0,0.7-0.3,1.4-0.9,2.1c-0.6,0.7-1.5,1.5-2.7,2.4h3.6V37.9z"/>
		<path class="st0" d="M176.9,38.1c-1.3,0-2.3-0.4-3-1.2l0.8-1c0.6,0.6,1.3,1,2.2,1c0.5,0,0.9-0.1,1.2-0.4c0.3-0.3,0.5-0.6,0.5-1
			c0-0.4-0.1-0.8-0.4-1.1c-0.3-0.3-0.7-0.4-1.2-0.4c-0.7,0-1.3,0.2-1.8,0.7l-1-0.3v-4.5h5.3v1.3h-3.9v2.3c0.5-0.5,1.1-0.7,1.8-0.7
			c0.7,0,1.3,0.2,1.8,0.7c0.5,0.5,0.8,1.1,0.8,1.9c0,0.8-0.3,1.5-0.9,2C178.5,37.8,177.8,38.1,176.9,38.1z"/>
		<path class="st0" d="M185.6,37.7c-0.4,0.2-0.9,0.4-1.5,0.4c-0.5,0-1-0.1-1.5-0.4c-0.4-0.2-0.8-0.6-1-1c-0.3-0.4-0.4-0.8-0.6-1.3
			c-0.1-0.5-0.2-1-0.2-1.5c0-0.5,0.1-1,0.2-1.5c0.1-0.5,0.3-0.9,0.6-1.3c0.3-0.4,0.6-0.7,1-1c0.4-0.2,0.9-0.4,1.5-0.4
			c0.5,0,1,0.1,1.5,0.4c0.4,0.2,0.8,0.6,1,1c0.3,0.4,0.4,0.8,0.6,1.3c0.1,0.5,0.2,1,0.2,1.5c0,0.5-0.1,1-0.2,1.5
			c-0.1,0.5-0.3,0.9-0.6,1.3C186.4,37.1,186.1,37.5,185.6,37.7z M182.8,36c0.3,0.5,0.7,0.8,1.4,0.8c0.6,0,1.1-0.3,1.4-0.8
			c0.3-0.5,0.4-1.3,0.4-2.1c0-0.5-0.1-1-0.2-1.4c-0.1-0.4-0.3-0.8-0.6-1c-0.3-0.3-0.6-0.4-1-0.4c-0.4,0-0.8,0.1-1.1,0.4
			c-0.3,0.3-0.5,0.6-0.6,1c-0.1,0.4-0.2,0.9-0.2,1.4C182.4,34.7,182.5,35.4,182.8,36z"/>
	</g>
	<g>
		<path class="st0" d="M169.7,63.9h-1.4v-6.3L167,59l-0.8-0.9l2.3-2.4h1.2V63.9z"/>
		<path class="st0" d="M176.4,63.4c-0.6,0.4-1.3,0.6-2.2,0.6c-0.9,0-1.6-0.2-2.2-0.6c-0.6-0.4-0.9-0.9-0.9-1.6
			c0-0.5,0.2-0.9,0.5-1.3c0.3-0.4,0.8-0.6,1.3-0.8c-0.5-0.2-0.9-0.4-1.2-0.7c-0.3-0.3-0.5-0.7-0.5-1.2c0-0.4,0.1-0.7,0.3-1
			c0.2-0.3,0.4-0.5,0.7-0.7c0.3-0.2,0.6-0.3,0.9-0.4c0.3-0.1,0.7-0.1,1.1-0.1c0.4,0,0.7,0,1.1,0.1c0.3,0.1,0.7,0.2,0.9,0.4
			c0.3,0.2,0.5,0.4,0.7,0.7s0.3,0.6,0.3,1c0,0.9-0.6,1.6-1.7,1.9c0.5,0.2,1,0.4,1.3,0.8c0.3,0.4,0.5,0.8,0.5,1.3
			C177.3,62.5,177,63,176.4,63.4z M174.2,62.8c0.5,0,0.9-0.1,1.2-0.3c0.3-0.2,0.5-0.5,0.5-0.8c0-0.4-0.2-0.7-0.6-0.9
			c-0.4-0.2-0.7-0.4-1.1-0.4c-0.2,0-0.4,0.1-0.7,0.2c-0.2,0.1-0.5,0.2-0.7,0.4c-0.2,0.2-0.3,0.4-0.3,0.7c0,0.3,0.2,0.6,0.5,0.8
			C173.3,62.7,173.7,62.8,174.2,62.8z M174.2,59.2c0.2,0,0.4-0.1,0.6-0.2c0.2-0.1,0.4-0.2,0.6-0.4c0.2-0.2,0.3-0.4,0.3-0.6
			c0-0.3-0.1-0.6-0.4-0.8c-0.3-0.2-0.7-0.3-1.1-0.3c-0.5,0-0.8,0.1-1.1,0.3c-0.3,0.2-0.4,0.5-0.4,0.8c0,0.2,0.1,0.4,0.3,0.6
			c0.2,0.2,0.4,0.3,0.6,0.4C173.7,59.1,174,59.1,174.2,59.2z"/>
		<path class="st0" d="M181.5,64c-1.3,0-2.3-0.4-3-1.2l0.8-1c0.6,0.6,1.3,1,2.2,1c0.5,0,0.9-0.1,1.2-0.4c0.3-0.3,0.5-0.6,0.5-1
			c0-0.4-0.1-0.8-0.4-1.1c-0.3-0.3-0.7-0.4-1.2-0.4c-0.7,0-1.3,0.2-1.8,0.7l-1-0.3v-4.5h5.3V57h-3.9v2.3c0.5-0.5,1.1-0.7,1.8-0.7
			c0.7,0,1.3,0.2,1.8,0.7c0.5,0.5,0.8,1.1,0.8,1.9c0,0.8-0.3,1.5-0.9,2S182.4,64,181.5,64z"/>
	</g>
	<g>
		<path class="st0" d="M169.7,93.4h-1.4v-6.3l-1.3,1.4l-0.8-0.9l2.3-2.4h1.2V93.4z"/>
		<path class="st0" d="M173.9,93.5c-0.7,0-1.3-0.1-1.8-0.4c-0.5-0.2-0.9-0.6-1.2-0.9l0.8-0.9c0.3,0.3,0.6,0.5,1,0.7
			c0.4,0.2,0.8,0.3,1.2,0.3c0.5,0,0.9-0.1,1.2-0.3s0.4-0.5,0.4-0.9c0-0.8-0.6-1.1-1.8-1.1c-0.5,0-0.9,0-0.9,0v-1.3
			c0.1,0,0.4,0,0.9,0c0.5,0,0.9-0.1,1.2-0.3c0.3-0.2,0.5-0.4,0.5-0.8c0-0.4-0.2-0.6-0.5-0.8c-0.3-0.2-0.7-0.3-1.2-0.3
			c-0.8,0-1.5,0.3-2.1,0.9l-0.7-0.9c0.7-0.8,1.7-1.3,2.9-1.3c0.9,0,1.6,0.2,2.1,0.6c0.5,0.4,0.8,0.9,0.8,1.6c0,0.5-0.2,0.9-0.5,1.2
			c-0.4,0.3-0.8,0.5-1.2,0.6c0.5,0,0.9,0.2,1.3,0.6c0.4,0.3,0.6,0.8,0.6,1.4c0,0.7-0.3,1.3-0.8,1.7
			C175.6,93.3,174.8,93.5,173.9,93.5z"/>
		<path class="st0" d="M181.2,93.5c-1.3,0-2.3-0.4-3-1.2l0.8-1c0.6,0.6,1.3,1,2.2,1c0.5,0,0.9-0.1,1.2-0.4c0.3-0.3,0.5-0.6,0.5-1
			c0-0.4-0.1-0.8-0.4-1.1c-0.3-0.3-0.7-0.4-1.2-0.4c-0.7,0-1.3,0.2-1.8,0.7l-1-0.3v-4.5h5.3v1.3h-3.9v2.3c0.5-0.5,1.1-0.7,1.8-0.7
			c0.7,0,1.3,0.2,1.8,0.7c0.5,0.5,0.8,1.1,0.8,1.9c0,0.8-0.3,1.5-0.9,2S182.1,93.5,181.2,93.5z"/>
	</g>
	<g>
		<path class="st0" d="M15.7,151.4c-0.7,0-1.3-0.1-1.8-0.4c-0.5-0.2-0.9-0.6-1.2-0.9l0.8-0.9c0.3,0.3,0.6,0.5,1,0.7
			c0.4,0.2,0.8,0.3,1.2,0.3c0.5,0,0.9-0.1,1.2-0.3s0.4-0.5,0.4-0.9c0-0.8-0.6-1.1-1.8-1.1c-0.5,0-0.9,0-0.9,0v-1.3
			c0.1,0,0.4,0,0.9,0c0.5,0,0.9-0.1,1.2-0.3c0.3-0.2,0.5-0.4,0.5-0.8c0-0.4-0.2-0.6-0.5-0.8c-0.3-0.2-0.7-0.3-1.2-0.3
			c-0.8,0-1.5,0.3-2.1,0.9l-0.7-0.9c0.7-0.8,1.7-1.3,2.9-1.3c0.9,0,1.6,0.2,2.1,0.6c0.5,0.4,0.8,0.9,0.8,1.6c0,0.5-0.2,0.9-0.5,1.2
			c-0.4,0.3-0.8,0.5-1.2,0.6c0.5,0,0.9,0.2,1.3,0.6c0.4,0.3,0.6,0.8,0.6,1.4c0,0.7-0.3,1.3-0.8,1.7
			C17.4,151.2,16.6,151.4,15.7,151.4z"/>
		<path class="st0" d="M22.7,151.4c-0.7,0-1.3-0.1-1.8-0.4c-0.5-0.2-0.9-0.6-1.2-0.9l0.8-0.9c0.3,0.3,0.6,0.5,1,0.7
			c0.4,0.2,0.8,0.3,1.3,0.3c0.5,0,0.9-0.1,1.2-0.3c0.3-0.2,0.4-0.5,0.4-0.9c0-0.8-0.6-1.1-1.8-1.1c-0.5,0-0.9,0-0.9,0v-1.3
			c0.1,0,0.4,0,0.9,0c0.5,0,0.9-0.1,1.2-0.3c0.3-0.2,0.5-0.4,0.5-0.8c0-0.4-0.2-0.6-0.5-0.8c-0.3-0.2-0.7-0.3-1.2-0.3
			c-0.8,0-1.5,0.3-2.1,0.9l-0.7-0.9c0.7-0.8,1.7-1.3,2.9-1.3c0.9,0,1.6,0.2,2.1,0.6c0.5,0.4,0.8,0.9,0.8,1.6c0,0.5-0.2,0.9-0.5,1.2
			s-0.8,0.5-1.2,0.6c0.5,0,0.9,0.2,1.3,0.6c0.4,0.3,0.6,0.8,0.6,1.4c0,0.7-0.3,1.3-0.8,1.7C24.3,151.2,23.6,151.4,22.7,151.4z"/>
		<path class="st0" d="M31.5,151.1c-0.4,0.2-0.9,0.4-1.5,0.4c-0.5,0-1-0.1-1.5-0.4c-0.4-0.2-0.8-0.6-1-1c-0.3-0.4-0.4-0.8-0.6-1.3
			c-0.1-0.5-0.2-1-0.2-1.5c0-0.5,0.1-1,0.2-1.5c0.1-0.5,0.3-0.9,0.6-1.3c0.3-0.4,0.6-0.7,1-1c0.4-0.2,0.9-0.4,1.5-0.4
			c0.5,0,1,0.1,1.5,0.4c0.4,0.2,0.8,0.6,1,1c0.3,0.4,0.4,0.8,0.6,1.3s0.2,1,0.2,1.5c0,0.5-0.1,1-0.2,1.5c-0.1,0.5-0.3,0.9-0.6,1.3
			C32.2,150.5,31.9,150.8,31.5,151.1z M28.7,149.3c0.3,0.6,0.7,0.8,1.4,0.8c0.6,0,1.1-0.3,1.4-0.8c0.3-0.5,0.4-1.2,0.4-2.1
			c0-0.5-0.1-1-0.2-1.4c-0.1-0.4-0.3-0.8-0.6-1c-0.3-0.3-0.6-0.4-1-0.4c-0.4,0-0.8,0.1-1.1,0.4c-0.3,0.3-0.5,0.6-0.6,1
			c-0.1,0.4-0.2,0.9-0.2,1.4C28.2,148.1,28.4,148.8,28.7,149.3z"/>
	</g>
	<g>
		<path class="st0" d="M18.8,113h-5.9v-1.1c1.7-1.3,2.8-2.2,3.5-2.8c0.6-0.6,0.9-1.2,0.9-1.8c0-0.4-0.1-0.7-0.4-0.9
			c-0.3-0.2-0.6-0.3-1-0.3c-0.9,0-1.6,0.3-2.2,1l-0.8-0.9c0.3-0.4,0.8-0.7,1.3-1c0.5-0.2,1.1-0.3,1.7-0.3c0.8,0,1.5,0.2,2.1,0.7
			c0.6,0.4,0.8,1.1,0.8,1.8c0,0.7-0.3,1.4-0.9,2.1c-0.6,0.7-1.5,1.5-2.7,2.4h3.6V113z"/>
		<path class="st0" d="M22.9,113.1c-0.7,0-1.3-0.1-1.8-0.4c-0.5-0.2-0.9-0.6-1.2-0.9l0.8-0.9c0.3,0.3,0.6,0.5,1,0.7
			c0.4,0.2,0.8,0.3,1.2,0.3c0.5,0,0.9-0.1,1.2-0.3c0.3-0.2,0.4-0.5,0.4-0.9c0-0.8-0.6-1.1-1.8-1.1c-0.5,0-0.9,0-0.9,0v-1.3
			c0.1,0,0.4,0,0.9,0c0.5,0,0.9-0.1,1.2-0.3c0.3-0.2,0.5-0.4,0.5-0.8c0-0.4-0.2-0.6-0.5-0.8c-0.3-0.2-0.7-0.3-1.2-0.3
			c-0.8,0-1.5,0.3-2.1,0.9l-0.7-0.9c0.7-0.8,1.7-1.3,2.9-1.3c0.9,0,1.6,0.2,2.1,0.6c0.5,0.4,0.8,0.9,0.8,1.6c0,0.5-0.2,0.9-0.5,1.2
			c-0.4,0.3-0.8,0.5-1.2,0.6c0.5,0,0.9,0.2,1.3,0.6c0.4,0.3,0.6,0.8,0.6,1.4c0,0.7-0.3,1.3-0.8,1.7
			C24.5,112.9,23.8,113.1,22.9,113.1z"/>
		<path class="st0" d="M30.2,113.1c-1.3,0-2.3-0.4-3-1.3l0.8-1c0.6,0.6,1.3,1,2.2,1c0.5,0,0.9-0.1,1.2-0.4c0.3-0.3,0.5-0.6,0.5-1
			c0-0.4-0.1-0.8-0.4-1c-0.3-0.3-0.7-0.4-1.2-0.4c-0.7,0-1.3,0.2-1.8,0.7l-1-0.3v-4.5h5.3v1.2h-3.9v2.3c0.5-0.5,1.1-0.7,1.8-0.7
			c0.7,0,1.3,0.2,1.8,0.7c0.5,0.5,0.8,1.1,0.8,1.9c0,0.8-0.3,1.5-0.9,2C31.8,112.9,31.1,113.1,30.2,113.1z"/>
	</g>
	<g>
		<path class="st0" d="M17.6,86.9h-1.4v-1.8h-3.9V84l3.3-5.1h2v5h1.1v1.2h-1.1V86.9z M16.2,83.9v-3.7l-2.5,3.7H16.2z"/>
		<path class="st0" d="M24.2,86.7c-0.4,0.2-0.9,0.4-1.5,0.4s-1-0.1-1.5-0.4c-0.4-0.2-0.8-0.6-1-1c-0.3-0.4-0.4-0.8-0.6-1.3
			c-0.1-0.5-0.2-1-0.2-1.5c0-0.5,0.1-1,0.2-1.5c0.1-0.5,0.3-0.9,0.6-1.3c0.3-0.4,0.6-0.7,1-1c0.4-0.2,0.9-0.4,1.5-0.4s1,0.1,1.5,0.4
			c0.4,0.2,0.8,0.6,1,1c0.3,0.4,0.4,0.8,0.6,1.3c0.1,0.5,0.2,1,0.2,1.5c0,0.5-0.1,1-0.2,1.5c-0.1,0.5-0.3,0.9-0.6,1.3
			C25,86.2,24.6,86.5,24.2,86.7z M21.4,85c0.3,0.6,0.7,0.8,1.4,0.8s1.1-0.3,1.4-0.8c0.3-0.5,0.4-1.2,0.4-2.1c0-0.5-0.1-1-0.2-1.4
			c-0.1-0.4-0.3-0.8-0.6-1.1c-0.3-0.3-0.6-0.4-1-0.4c-0.4,0-0.8,0.1-1.1,0.4c-0.3,0.3-0.5,0.6-0.6,1.1c-0.1,0.4-0.2,0.9-0.2,1.4
			C20.9,83.7,21.1,84.4,21.4,85z"/>
		<path class="st0" d="M30.2,87.1c-1.3,0-2.3-0.4-3-1.3l0.8-1c0.6,0.6,1.3,1,2.2,1c0.5,0,0.9-0.1,1.2-0.4s0.5-0.6,0.5-1
			c0-0.4-0.1-0.8-0.4-1c-0.3-0.3-0.7-0.4-1.2-0.4c-0.7,0-1.3,0.2-1.8,0.7l-1-0.3v-4.5h5.3v1.2h-3.9v2.3c0.5-0.5,1.1-0.7,1.8-0.7
			c0.7,0,1.3,0.2,1.8,0.7c0.5,0.5,0.8,1.1,0.8,1.9c0,0.8-0.3,1.5-0.9,2C31.8,86.8,31.1,87.1,30.2,87.1z"/>
	</g>
	<g>
		<path class="st0" d="M16,61.2c-0.6,0-1.1-0.1-1.5-0.3c-0.4-0.2-0.8-0.5-1-0.9c-0.3-0.4-0.5-0.8-0.6-1.3c-0.1-0.5-0.2-1-0.2-1.6
			c0-1.2,0.3-2.2,0.9-3c0.6-0.8,1.5-1.2,2.6-1.2c0.9,0,1.7,0.3,2.3,0.9l-0.7,1.1c-0.5-0.5-1-0.7-1.7-0.7c-0.6,0-1.2,0.3-1.6,0.8
			c-0.4,0.5-0.6,1.1-0.6,1.9c0,0.1,0,0.2,0,0.2c0.2-0.3,0.5-0.6,0.9-0.8c0.4-0.2,0.8-0.3,1.3-0.3c0.8,0,1.4,0.2,1.9,0.7
			c0.5,0.5,0.8,1.1,0.8,1.9c0,0.8-0.3,1.4-0.8,1.9C17.6,60.9,16.9,61.2,16,61.2z M15.9,59.9c0.5,0,0.9-0.1,1.2-0.4
			c0.3-0.3,0.4-0.6,0.4-1c0-0.5-0.2-0.8-0.5-1.1c-0.3-0.2-0.7-0.4-1.2-0.4c-0.3,0-0.7,0.1-1,0.3c-0.3,0.2-0.6,0.4-0.8,0.7
			c0,0.5,0.2,1,0.5,1.3C14.9,59.7,15.3,59.9,15.9,59.9z"/>
		<path class="st0" d="M25,61h-1.4v-1.8h-3.9v-1.1l3.3-5.1h2v5h1.1v1.2H25V61z M23.6,57.9v-3.7l-2.5,3.7H23.6z"/>
		<path class="st0" d="M30.2,61.2c-1.3,0-2.3-0.4-3-1.3l0.8-1c0.6,0.6,1.3,1,2.2,1c0.5,0,0.9-0.1,1.2-0.4s0.5-0.6,0.5-1
			c0-0.4-0.1-0.8-0.4-1c-0.3-0.3-0.7-0.4-1.2-0.4c-0.7,0-1.3,0.2-1.8,0.7l-1-0.3v-4.5h5.3v1.2h-3.9v2.3c0.5-0.5,1.1-0.7,1.8-0.7
			c0.7,0,1.3,0.2,1.8,0.7c0.5,0.5,0.8,1.1,0.8,1.9c0,0.8-0.3,1.5-0.9,2C31.8,60.9,31.1,61.2,30.2,61.2z"/>
	</g>
	<g>
		<path class="st0" d="M18.6,36.5h-5.9v-1.1c1.7-1.3,2.8-2.2,3.5-2.8c0.6-0.6,0.9-1.2,0.9-1.8c0-0.4-0.1-0.7-0.4-0.9
			c-0.3-0.2-0.6-0.3-1-0.3c-0.9,0-1.6,0.3-2.2,1l-0.8-0.9c0.3-0.4,0.8-0.7,1.3-1c0.5-0.2,1.1-0.3,1.7-0.3c0.8,0,1.5,0.2,2.1,0.7
			c0.6,0.4,0.8,1.1,0.8,1.8c0,0.7-0.3,1.4-0.9,2.1c-0.6,0.7-1.5,1.5-2.7,2.4h3.6V36.5z"/>
		<path class="st0" d="M22.7,36.6c-0.7,0-1.3-0.1-1.8-0.4c-0.5-0.2-0.9-0.6-1.2-0.9l0.8-0.9c0.3,0.3,0.6,0.5,1,0.7
			c0.4,0.2,0.8,0.3,1.2,0.3c0.5,0,0.9-0.1,1.2-0.3c0.3-0.2,0.4-0.5,0.4-0.9c0-0.8-0.6-1.1-1.8-1.1c-0.5,0-0.9,0-0.9,0v-1.3
			c0.1,0,0.4,0,0.9,0c0.5,0,0.9-0.1,1.2-0.3c0.3-0.2,0.5-0.4,0.5-0.8c0-0.4-0.2-0.6-0.5-0.8c-0.3-0.2-0.7-0.3-1.2-0.3
			c-0.8,0-1.5,0.3-2.1,0.9l-0.7-0.9c0.7-0.8,1.7-1.3,2.9-1.3c0.9,0,1.6,0.2,2.1,0.6c0.5,0.4,0.8,0.9,0.8,1.6c0,0.5-0.2,0.9-0.5,1.2
			c-0.4,0.3-0.8,0.5-1.2,0.6c0.5,0,0.9,0.2,1.3,0.6c0.4,0.3,0.6,0.8,0.6,1.4c0,0.7-0.3,1.3-0.8,1.7C24.3,36.4,23.6,36.6,22.7,36.6z"
			/>
		<path class="st0" d="M31.5,36.2c-0.4,0.2-0.9,0.4-1.5,0.4s-1-0.1-1.5-0.4c-0.4-0.2-0.8-0.6-1-1c-0.3-0.4-0.4-0.8-0.6-1.3
			c-0.1-0.5-0.2-1-0.2-1.5s0.1-1,0.2-1.5c0.1-0.5,0.3-0.9,0.6-1.3c0.3-0.4,0.6-0.7,1-1c0.4-0.2,0.9-0.4,1.5-0.4s1,0.1,1.5,0.4
			c0.4,0.2,0.8,0.6,1,1c0.3,0.4,0.4,0.8,0.6,1.3c0.1,0.5,0.2,1,0.2,1.5s-0.1,1-0.2,1.5c-0.1,0.5-0.3,0.9-0.6,1.3
			C32.2,35.7,31.9,36,31.5,36.2z M28.7,34.5c0.3,0.6,0.7,0.8,1.4,0.8s1.1-0.3,1.4-0.8c0.3-0.5,0.4-1.2,0.4-2.1c0-0.5-0.1-1-0.2-1.4
			c-0.1-0.4-0.3-0.8-0.6-1.1c-0.3-0.3-0.6-0.4-1-0.4c-0.4,0-0.8,0.1-1.1,0.4c-0.3,0.3-0.5,0.6-0.6,1.1c-0.1,0.4-0.2,0.9-0.2,1.4
			C28.2,33.3,28.4,34,28.7,34.5z"/>
	</g>
	<g>
		<path class="st0" d="M96.9,19.1h-5.9V18c1.7-1.3,2.8-2.2,3.5-2.8c0.6-0.6,0.9-1.2,0.9-1.8c0-0.4-0.1-0.7-0.4-0.9
			c-0.3-0.2-0.6-0.3-1-0.3c-0.9,0-1.6,0.3-2.2,1l-0.8-0.9c0.3-0.4,0.8-0.7,1.3-1c0.5-0.2,1.1-0.3,1.7-0.3c0.8,0,1.5,0.2,2.1,0.7
			c0.6,0.4,0.8,1.1,0.8,1.8c0,0.7-0.3,1.4-0.9,2.1c-0.6,0.7-1.5,1.5-2.7,2.4h3.6V19.1z"/>
		<path class="st0" d="M101,19.3c-0.7,0-1.3-0.1-1.8-0.4c-0.5-0.2-0.9-0.6-1.2-0.9l0.8-0.9c0.3,0.3,0.6,0.5,1,0.7
			c0.4,0.2,0.8,0.3,1.3,0.3c0.5,0,0.9-0.1,1.2-0.3c0.3-0.2,0.4-0.5,0.4-0.9c0-0.8-0.6-1.1-1.8-1.1c-0.5,0-0.9,0-0.9,0v-1.3
			c0.1,0,0.4,0,0.9,0c0.5,0,0.9-0.1,1.2-0.3c0.3-0.2,0.5-0.4,0.5-0.8c0-0.4-0.2-0.6-0.5-0.8c-0.3-0.2-0.7-0.3-1.2-0.3
			c-0.8,0-1.5,0.3-2.1,0.9l-0.7-0.9c0.7-0.8,1.7-1.3,2.9-1.3c0.9,0,1.6,0.2,2.1,0.6c0.5,0.4,0.8,0.9,0.8,1.6c0,0.5-0.2,0.9-0.5,1.2
			c-0.4,0.3-0.8,0.5-1.2,0.6c0.5,0,0.9,0.2,1.3,0.6c0.4,0.3,0.6,0.8,0.6,1.4c0,0.7-0.3,1.3-0.8,1.7C102.7,19.1,101.9,19.3,101,19.3z
			"/>
		<path class="st0" d="M109.8,18.9c-0.4,0.2-0.9,0.4-1.5,0.4c-0.5,0-1-0.1-1.5-0.4c-0.4-0.2-0.8-0.6-1-1s-0.4-0.8-0.6-1.3
			c-0.1-0.5-0.2-1-0.2-1.5s0.1-1,0.2-1.5c0.1-0.5,0.3-0.9,0.6-1.3c0.3-0.4,0.6-0.7,1-1c0.4-0.2,0.9-0.4,1.5-0.4c0.5,0,1,0.1,1.5,0.4
			c0.4,0.2,0.8,0.6,1,1c0.3,0.4,0.4,0.8,0.6,1.3c0.1,0.5,0.2,1,0.2,1.5s-0.1,1-0.2,1.5s-0.3,0.9-0.6,1.3
			C110.6,18.4,110.3,18.7,109.8,18.9z M107,17.2c0.3,0.6,0.7,0.8,1.4,0.8c0.6,0,1.1-0.3,1.4-0.8c0.3-0.5,0.4-1.2,0.4-2.1
			c0-0.5-0.1-1-0.2-1.4c-0.1-0.4-0.3-0.8-0.6-1.1c-0.3-0.3-0.6-0.4-1-0.4c-0.4,0-0.8,0.1-1.1,0.4c-0.3,0.3-0.5,0.6-0.6,1.1
			c-0.1,0.4-0.2,0.9-0.2,1.4C106.6,15.9,106.7,16.6,107,17.2z"/>
	</g>
	<g>
		<g>
			<path class="st4" d="M159.6,55.7c-12.6-2.1-25.5-1.4-33.4,6.7"/>
			<g>
				<path class="st2" d="M126.2,62.3c0.3,0,0.6,0.2,0.8,0.4c-0.4-0.1-0.9,0-1.3,0.1c0.2-0.4,0.2-0.9,0.1-1.3
					C126,61.8,126.2,62.1,126.2,62.3z"/>
			</g>
		</g>
	</g>
	<g>
		<g>
			<path class="st5" d="M160.7,83.6c-14.4,2.2-26-3.5-30.9-9.8"/>
			<g>
				<path class="st2" d="M129.8,73.8c0,0.2-0.2,0.4-0.3,0.5c0.1-0.3,0.1-0.6,0-0.9c0.3,0.2,0.6,0.2,0.9,0.2
					C130.3,73.7,130,73.8,129.8,73.8z"/>
			</g>
		</g>
	</g>
	<g>
		<g>
			<path class="st6" d="M40.7,140.7c13.9,0.6,51.4-10,62.3-33.8"/>
			<g>
				<path class="st2" d="M103,107c-0.3,0.1-0.8,0-1.1-0.1c0.5-0.1,1-0.3,1.5-0.7c0,0.5,0.2,1.1,0.4,1.6
					C103.5,107.6,103.1,107.3,103,107z"/>
			</g>
		</g>
	</g>
	<g>
		<g>
			<path class="st7" d="M158.6,116.1c-10-0.5-26.8,0.2-34.5-13.4"/>
			<g>
				<path class="st2" d="M124.2,102.8c-0.1,0.3-0.4,0.6-0.7,0.8c0.2-0.5,0.3-1,0.3-1.5c0.4,0.3,0.9,0.5,1.4,0.6
					C124.9,102.8,124.5,102.9,124.2,102.8z"/>
			</g>
		</g>
	</g>
	<g>
		<g>
			<path class="st8" d="M40.7,24.1c17.7,0,35.7,10.8,48.4,35.9"/>
			<g>
				<path class="st2" d="M89.1,59.9c0.1-0.3,0.5-0.6,0.7-0.8c-0.2,0.5-0.4,1-0.3,1.6c-0.4-0.4-0.9-0.5-1.5-0.6
					C88.4,59.9,88.8,59.8,89.1,59.9z"/>
			</g>
		</g>
	</g>
	<g>
		<g>
			<path class="st9" d="M39.6,108.9c12.6,1.1,39.2-1.5,49.5-12.4"/>
			<g>
				<path class="st2" d="M89.1,96.5c-0.3,0-0.8-0.2-1-0.4c0.5,0.1,1.1,0,1.6-0.2c-0.2,0.5-0.2,1.1-0.1,1.6
					C89.4,97.2,89.1,96.9,89.1,96.5z"/>
			</g>
		</g>
	</g>
	<g>
		<g>
			<path class="st10" d="M39.1,54.9c14-3.9,22.5-1.7,34.6,10.7"/>
			<g>
				<path class="st2" d="M73.5,65.5c0-0.4,0.3-0.9,0.6-1.2c-0.1,0.7-0.1,1.4,0.2,2c-0.6-0.3-1.3-0.3-2-0.2
					C72.6,65.8,73.1,65.5,73.5,65.5z"/>
			</g>
		</g>
	</g>
	<g>
		<g>
			<path class="st11" d="M39.1,76.2c9-5.1,27-5.3,42.9,3.4"/>
			<g>
				<path class="st2" d="M81.8,79.5c-0.2-0.6,0.1-1.4,0.3-1.9c0.1,0.9,0.5,1.9,1.1,2.6c-0.9-0.1-1.9,0.2-2.8,0.5
					C80.7,80.2,81.2,79.7,81.8,79.5z"/>
			</g>
		</g>
	</g>
	<g>
		<g>
			<line class="st8" x1="101.3" y1="24.6" x2="101.3" y2="49.6"/>
			<g>
				<path class="st2" d="M101.3,49.5c0.2-0.2,0.7-0.3,1-0.4c-0.4,0.3-0.8,0.7-1,1.2c-0.2-0.5-0.6-0.9-1-1.2
					C100.6,49.2,101,49.2,101.3,49.5z"/>
			</g>
		</g>
	</g>
	<g>
		<path class="st0" d="M172.4,124.4h-5.9v-1.1c1.7-1.3,2.8-2.2,3.5-2.8c0.6-0.6,0.9-1.2,0.9-1.8c0-0.4-0.1-0.7-0.4-0.9
			c-0.3-0.2-0.6-0.3-1-0.3c-0.9,0-1.6,0.3-2.2,1l-0.8-0.9c0.3-0.4,0.8-0.7,1.3-1c0.5-0.2,1.1-0.3,1.7-0.3c0.8,0,1.5,0.2,2.1,0.7
			c0.6,0.4,0.8,1.1,0.8,1.8c0,0.7-0.3,1.4-0.9,2.1c-0.6,0.7-1.5,1.5-2.7,2.4h3.6V124.4z"/>
		<path class="st0" d="M179.6,124.4h-5.9v-1.1c1.7-1.3,2.8-2.2,3.5-2.8c0.6-0.6,0.9-1.2,0.9-1.8c0-0.4-0.1-0.7-0.4-0.9
			c-0.3-0.2-0.6-0.3-1-0.3c-0.9,0-1.6,0.3-2.2,1l-0.8-0.9c0.3-0.4,0.8-0.7,1.3-1c0.5-0.2,1.1-0.3,1.7-0.3c0.8,0,1.5,0.2,2.1,0.7
			c0.6,0.4,0.8,1.1,0.8,1.8c0,0.7-0.3,1.4-0.9,2.1c-0.6,0.7-1.5,1.5-2.7,2.4h3.6V124.4z"/>
		<path class="st0" d="M185.6,124.2c-0.4,0.2-0.9,0.4-1.5,0.4c-0.5,0-1-0.1-1.5-0.4c-0.4-0.2-0.8-0.6-1-1c-0.3-0.4-0.4-0.8-0.6-1.3
			c-0.1-0.5-0.2-1-0.2-1.5c0-0.5,0.1-1,0.2-1.5c0.1-0.5,0.3-0.9,0.6-1.3c0.3-0.4,0.6-0.7,1-1c0.4-0.2,0.9-0.4,1.5-0.4
			c0.5,0,1,0.1,1.5,0.4c0.4,0.2,0.8,0.6,1,1c0.3,0.4,0.4,0.8,0.6,1.3c0.1,0.5,0.2,1,0.2,1.5c0,0.5-0.1,1-0.2,1.5
			c-0.1,0.5-0.3,0.9-0.6,1.3C186.3,123.6,186,124,185.6,124.2z M182.8,122.5c0.3,0.5,0.7,0.8,1.4,0.8c0.6,0,1.1-0.3,1.4-0.8
			s0.4-1.3,0.4-2.1c0-0.5-0.1-1-0.2-1.4c-0.1-0.4-0.3-0.8-0.6-1c-0.3-0.3-0.6-0.4-1-0.4c-0.4,0-0.8,0.1-1.1,0.4
			c-0.3,0.3-0.5,0.6-0.6,1c-0.1,0.4-0.2,0.9-0.2,1.4C182.3,121.2,182.5,121.9,182.8,122.5z"/>
	</g>
</g>
</svg>
