<?xml version="1.0" encoding="utf-8"?>
<!-- Generator: Adobe Illustrator 19.2.0, SVG Export Plug-In . SVG Version: 6.00 Build 0)  -->
<svg version="1.1" id="Layer_1" xmlns="http://www.w3.org/2000/svg" xmlns:xlink="http://www.w3.org/1999/xlink" x="0px" y="0px"
	 viewBox="0 0 266.2 188.3" style="enable-background:new 0 0 266.2 188.3;" xml:space="preserve">
<style type="text/css">
	.st0{fill:#0D92FF;}
	.st1{fill:#787878;}
	.st2{fill:none;stroke:#00325C;stroke-width:0.64;stroke-miterlimit:10;}
	.st3{fill:#00325C;}
	.st4{fill:none;stroke:#00325C;stroke-width:4.765;stroke-miterlimit:10;}
	.st5{fill:none;stroke:#00325C;stroke-width:1.775;stroke-miterlimit:10;}
	.st6{fill:none;stroke:#00325C;stroke-width:5.975;stroke-miterlimit:3;}
	.st7{fill:none;stroke:#00325C;stroke-width:4.33;stroke-miterlimit:10;}
	.st8{fill:none;stroke:#00325C;stroke-width:0.43;stroke-miterlimit:10;}
	.st9{fill:none;stroke:#00325C;stroke-width:0.425;stroke-miterlimit:10;}
	.st10{fill:none;stroke:#00325C;stroke-width:1.275;stroke-miterlimit:10;}
	.st11{fill:none;stroke:#00325C;stroke-width:0.4;stroke-miterlimit:10;}
	.st12{fill:none;stroke:#00325C;stroke-width:1.5;stroke-miterlimit:10;}
</style>
<g>
	<path class="st0" d="M117.6,54.6L117.6,54.6l-0.2,0.1l0,0.1l0,0.1l0,0.1l0,0.1l0.1,0.2l0.1,0l0-0.1l0-0.1l0-0.1l0-0.1l-0.1,0l0-0.1
		l0-0.1L117.6,54.6L117.6,54.6z M99.4,62.3l0.2,0.1l0.3-0.3l0-0.1l-0.2-0.1l-0.2,0l-0.1,0.1l0,0l0,0.1l0,0.2L99.4,62.3z M145,56.5
		l0.2,0l0.1-0.1l0-0.2l0.1-0.1h0.1l0,0.2l-0.1,0.3l0,0.1l0.1,0l0.1-0.2l0.3-0.9l-0.3-0.1l-0.4,0.1l-0.4,0.3l-0.2,0.4l0.2,0.1
		L145,56.5z M146.3,55l0.1-0.3l0.5-0.4l0.2-0.2l-0.1,0.1l-0.7,0.3l-0.1,0.1l0,0L146.3,55L146.3,55z M116.9,46.7l-0.2,0.1l-0.1,0.3
		l0.1,0.2l0.1,0.1l0.2,0l0.3-0.2l0.2-0.4l0.1-0.4l0-0.2l-0.6,0.3L116.9,46.7L116.9,46.7z M103.6,60.8l0.5-0.2h0l0,0l0-0.1l-1.1,0
		l-0.5,0.1l-0.5,0.3l0.4,0.1L103.6,60.8z M112.1,60.7L112.1,60.7l0.1,0.1l0,0l0.2-0.2l0.1,0h0.1l-0.2-0.2l-0.2,0l-0.2,0.1l-0.1,0.2
		v0.1L112.1,60.7L112.1,60.7z M109.5,59.5l0.2,0l0.4,0.1l0.1,0l0.1,0l-0.3-0.2l-0.2,0l-0.2,0l-0.2,0l-0.2,0.1l0,0.1l0.2,0.1
		L109.5,59.5z M101.1,61.1l-1.4,0.2l-0.4,0.2l2.1-0.2L101.1,61.1z M104.9,60.7L104.9,60.7l0.1-0.1l0-0.1l-0.1-0.1l-0.2,0l-0.2,0
		l-0.2,0.1l0.1,0L104.9,60.7z M105.5,60.6l0.3,0l0-0.3l0.3-0.1l0.7,0l0,0l0,0l0,0l0-0.1l-0.2-0.1l-0.9,0l-0.3,0l-0.1,0.1l-0.1,0.2
		L105.5,60.6L105.5,60.6z M107.5,60L107.5,60l0.2-0.2l0.2,0.2l0.3,0l0.3-0.1l0.2-0.1h0.1v-0.1l-0.9-0.1l-0.4,0.1l-0.3,0.3L107.5,60
		L107.5,60z M114.3,43.7L114.3,43.7L114.3,43.7L114.3,43.7l0.1-0.1l-0.2,0.1l-0.2,0.2l-0.3,0.6l0.2,0.3l0.2,0.3l0.2,0.2l0.3-0.1
		l0.1-0.1l-0.2-0.1L114,44l0.1-0.1L114.3,43.7z M118.9,47.6l0.1,0.2l0.2,0.1l0.4,0l0.2-0.1l0.1-0.2l0.1-0.2l0.2-0.2l0-0.1l0-0.1
		l0-0.1l0,0l-0.4-0.1l-0.4,0l-0.4,0.2l-0.3,0.3l0.1,0.1l0,0.1l0,0.1L118.9,47.6z M162.6,45.8L162.6,45.8L162.6,45.8L162.6,45.8z
		 M161.7,47.5l0-0.2l0-0.2l0.1-0.1l0.1-0.1l0.1-0.1l0.1-0.4l0-0.3l0.1-0.3l0.2-0.2V46h0.1v-0.2l0,0l0,0l0,0v-0.2l-0.1-0.1l-0.1,0
		l-0.1,0l-0.2,0l-0.1,0.1l-0.1,0.4l-0.3,1.1l0,0.4v0.2h0.1L161.7,47.5z M168.6,53.3l0.1,0.2l0.4,0.4l0.1,0.3l-0.1,0.4l-0.3,0.6
		l-0.1,0.3l0.2,0.1l0.1-0.1l0.1-0.2l0.3-0.1l0.1-0.1l0.1,0l0.1,0.2l0,0.1l-0.1,0.1l-0.1,0.1l0,0.2l0.3-0.1l0.1,0l0-0.1l0.1-0.1
		l0.1-0.1l0.1,0v-0.1l-0.1-0.2l0.1-0.1l0.2,0l0.2,0l0.2,0.1l0.1,0.2l0.1,0.2l0.1,0.3l0.2-0.1l0.1,0.3l0,0.5l-0.1,0.4l0.1,0.2
		l-0.3-0.1l0-0.1l0-0.1l0,0l0.1,0l-0.4,0l-0.1,0.1l-0.2,0.3l0-0.3l0.1-0.3l0-0.1l0.1-0.1l-0.2-0.1l-0.5,0l0,0.4l0.4,0.7l-0.1,0.5
		l-0.1,0.1l-0.3,0.2l-0.3,0.1l-0.2,0.2l-0.1,0l0.2,0.3l0.4,0.1l0.6,0l0.6-0.2l0.3-0.2l0.2-0.3l0.2,0.1l0.2,0l1.1-0.1l-0.1-0.3
		l-0.2-0.2l0.1,0l0.1-0.1l0.2-0.5l-0.2-0.1l-1.8-1.9l-0.3-0.2l-0.4-0.1l-0.7-0.4l-0.3-0.3l-0.1-0.2l-0.2-0.6l-0.1-0.2l-0.2-0.1
		l-0.2,0.1l-0.2,0.2L168.6,53.3z M97.4,63.1l0.2,0.1l0.1,0l0.1-0.1l0.1,0l0.1,0l0.1,0.2l0.1,0.1l-0.1-0.2l-0.1-0.1L98,63l-0.1,0
		v-0.1l0.2,0l0.3-0.2l0.2,0l-0.1-0.3l-0.4,0l-0.8,0.2l-0.1,0.1l0,0.2L97.4,63.1z M115.6,44.1l0.3-0.1l0.1,0.1l0.2,0.1l0.2,0l0.1,0
		l0.1-0.1l0.1-0.3l0.1-0.1v-0.1l-0.2-0.3l-0.2-0.1l-0.6,0l-0.3,0l-0.3,0.1l-0.2,0.2l-0.2,0.4l0.6,0.4L115.6,44.1z M113.6,43.1
		L113.6,43.1l0.1-0.3l0-0.3l0-0.9l0-0.1l0-0.3l0-0.1l0.1-0.1l0.3-0.2l0.1,0l0.1,0l0.1,0l0.1,0.2l0.1,0h0.7l0.2,0l0.3-0.2l0.2-0.1
		l1.3,0.1l0.3-0.2l-2.2,0.1l-0.5-0.1l-0.3-0.3l0.1-0.6l-0.1-0.3l0.1-0.4l0.2-0.3l0.4-0.2l0.1-0.2l-0.1-0.2l-0.3,0l0.1-0.1l0.6,0
		l-0.5-0.3l-0.4,0.5l-0.8,2.1l-0.1,0.4l-0.1,1.9l0,0.5L113.6,43.1z M141.1,48L141.1,48L141.1,48l0.1,0.2h0.1l0.1-0.1l0.1,0l0.3,0
		l0.1,0.1l0,0.1l0,0.4l0.1,0.1l0.3,0l0.4,0l0,0l0-0.1l0.2-0.1l1.3,0.2l-0.6-1.1l-0.2-0.3l-0.1-0.1l-0.3-0.2l-0.9-0.4l-0.5,0.1
		l-0.4,0.4l-0.3,0.7l0,0.2L141.1,48z M164,47l0-0.1l-0.1-0.2l-0.1-0.1l-0.1,0l-0.1-0.1l-0.2,0l-0.8,0.1l-0.2,0.1h0.1l0.1,0l0,0.1
		l0,0.2l0,0.1l0,0l0,0l0,0.1l0.1,0.1l0.2,0l0.3-0.1l0,0.1l0,0.1l0,0l0,0l0.1,0.2l0.1,0.1l0.3,0.1l-0.1,0.1l-0.1,0l0,0v0.1l-0.2,0
		l-0.3,0.2l-0.3,0.1l-0.1,0.1l-0.2,0.4l0.4-0.1l0.1,0l0.1,0.1l0.1,0.1l0.1,0v0.1l0,0.2l0.1,0.2l0.1,0.1l0.2,0l-0.3,0.2l-0.1,0
		l-0.1-0.1l-0.1,0.1l-0.3-0.2l-0.3,0.1l-0.2,0.3l-0.1,0.4l0.6,0.5v0.1l-0.2-0.1l-0.1,0.1l-0.1,0.1l0.1,0.1l0.1,0l0.3-0.2l0.1,0
		l-0.1,0.2l0.1,0.1l0.2,0.1l0.1,0l0.1,0.1l0.1,0.1l0.1,0.1l0.1,0l0.1-0.1l0.1,0l0.2,0l0-0.1l0,0l0.1-0.1l0.1-0.1l0.1-0.1l-0.1,0.3
		l-0.1,0.2l-0.1,0.1l0.4,0.2l0.3,0.1l0.3,0l0.2-0.1l0-0.2l-0.1-0.4l-0.1,0l-0.5,0.1l0,0h0l0,0l0,0.1l-0.1,0.1l0-0.5l0.2-0.1l0.2-0.1
		l0.1-0.3l0.1-0.2l0.5-0.5L166,50l1-0.1l0.1,0.1l0.1,0.1l0.1,0l0.1-0.2l0.1-0.1l0.1,0l0.3,0V50l-0.2,0.1l-0.6,0.4l0.2-0.1l0.2-0.1
		l0.5,0l-0.1,0.2l-0.2,0.1l-0.4,0.2v0.1l0.1,0.1h0.2l0.2-0.1l0.1-0.1h0.1l0,0.2l0,0.1l-0.1,0.1h-0.1l0.2,0.1l0.1,0l0-0.1v-0.3l0-0.3
		l0.1-0.2l0.1-0.2l0.1-0.1l-0.2-0.1l-0.2-0.2l-0.3-0.5l-0.2-0.1l-0.5-0.1l-0.2-0.1l-0.1-0.2l-0.1-0.3l-0.1-0.3l0-0.3l0.1-0.3
		l0.2-0.2l0.4-0.3l0.3-0.4l-0.1-0.4l-0.3-0.3l-0.5-0.1l-1.3,0.3l-0.4-0.1l-0.2-0.1l-0.1-0.2l-0.1-0.2l0-0.3l0.1-0.2l0.2-0.2l0.2-0.1
		l0.2-0.1v-0.1l-0.3-0.1l-0.3,0l-1.4,0.4l-0.1,0.1l-0.1,0.1l-0.1,0.1l0,0.2l0.1,0l0.1-0.1l0.4-0.1l0,0.1l0,0.2l0,0.2l0,0.1l-0.1,0.1
		l-0.1,0.3l-0.1,0.3l0,0.2l0.2,0.1l0.2-0.1l0.2-0.2l0.2-0.1l0.2-0.2l0.1-0.1l0.1-0.1l0,0.1l0.1,0.2l0.1,0.1l0,0.1L165,46l0.2,0
		l0.1,0.1l0.1,0.1l0.1,0.1l0.1,0.1l0.3,0l0.1,0l0.1-0.1l0.1-0.1l0.1-0.1l0.1,0v0.1l-0.1,0l0,0l0,0l-0.1,0v0.1l0.1,0.1l0.1,0.1
		l0.1,0.2v0.1l-0.1,0.1l0,0.1l-0.1,0.2l0.1,0.1l-0.5,0l-0.2-0.1l-0.2-0.3l0.1-0.3l-0.1-0.2l-0.2-0.2l-0.1-0.2l-0.1,0.1v0.1l0.1,0
		l0.1,0.1l0.1,0l-0.1,0.2l-0.1,0.1l-0.1,0l-0.1,0l0.1-0.3l0.1-0.1l0-0.1l0,0l-0.1,0h-0.1l0.1-0.1l0.1-0.2l0.1-0.4l-0.2,0.1l-0.2,0.1
		l-0.2,0.2l-0.1,0.2l0.1,0.3L164,47L164,47z M181.3,101.5L181.3,101.5l0-0.5l-0.1-0.3l-0.2-0.3l-0.2-0.3l0-0.1l0-0.3v0l-0.1-1.1
		l0.1-0.2l-0.1-0.2l-0.2-0.2l-0.2-0.1l-0.2-0.1l-0.5-0.1l-0.2-0.1v0l-0.2-0.2l-0.7-0.2l-0.2-0.2l-0.1-0.3l0.1-0.3l0.2-0.3l0.1-0.3
		l0-0.4l-0.1-0.4l-0.1-0.3l-0.5-0.4l-0.2-0.3l-0.1-0.4l0-0.4l-0.1-0.2l-0.2-0.1l-0.2-0.3l0-0.3l0.1-0.3l0.6-0.6l0.2-0.2l0.2-0.3
		l0.1-0.3l0-1l0.1-0.2l0.2-0.4l0-0.2l0-0.1l0-0.1l0.1-0.1l0.2-0.2l-0.7-0.5l-0.1-0.2l0.1-0.4l0.1-0.3l0-0.2l-0.1-0.2V86l0.2-0.3
		l0-0.3l-0.2-0.3l-0.3-0.1l-0.3-0.1l-0.3-0.2l-0.2-0.3l0.1-0.3l-0.2-0.5l-0.2-0.7l-0.1-0.7l0.5-0.5l0.2-0.4l0.2-0.4l0-0.2l-0.2-0.2
		l0.1-0.4l0.3-0.6l-0.3-0.3l-0.6-0.7l-0.6-0.2l-0.3-0.4l-0.2-0.1l-0.1-0.1l-0.3-0.7l-0.2-0.2l-1.1-0.8l-0.3-0.1l-0.3-0.4l-0.2-0.1
		l-0.2,0l-0.2-0.1l-0.2-0.1l-0.1-0.2l0.3-0.2l0.1-0.2l0-0.3l0-0.2l-0.1-0.6l-0.1-0.2v-0.1l0.5-0.4l0.6-0.3l0.6-0.5l0.3-0.3l0.1-0.3
		l0-0.1l0.3-0.9l0-0.2l-0.1-0.2l0-0.3l0-0.2l0.1-0.2l0.1-0.1l0.1-0.1l0.1-0.1l0.3-0.5l-0.1-0.1l0-0.1l-0.2-0.1l-0.1-0.1l0-0.2l0-0.3
		l0-0.1l-0.3-1.3l-0.1-0.9l-0.2-0.4l-0.1-0.4l-0.2-0.4l-0.1-0.3l0-0.4l0-0.6l0-0.2l-0.2-0.7l-0.2-0.3l0-0.3l0-0.5l-0.1,0l-0.2,0
		l-0.1-0.1l-0.1-0.1l0.5-0.3l0,0l0.1-0.1l0-0.3l0,0l-0.1-0.1l-0.2,0l-0.1,0.1l-0.1,0.2l-0.3,0.1l-0.8-0.1l-0.1,0l-0.2-0.2l-0.1,0
		l-0.2,0l0,0l-0.2-0.2l-0.3-0.1l-0.7-0.6l-0.1,0l-0.2-0.1l-0.1-0.2l-0.1-0.2l-0.1-0.1l-0.2,0l-0.2-0.1l-0.1-0.2l0.1-0.2l0.7-0.6
		l0.1-0.2l0.1-0.2l0-0.2l-0.1-0.1l-0.1,0l-0.1,0l-0.1,0l-0.1,0l0,0l-0.1,0l0,0l0-0.1l0-0.1l0-0.1l0-0.1l0-0.1l0-0.1l-0.1,0l-0.3-0.1
		l-0.1,0l-0.1-0.2l-0.3-0.4l-0.1-0.1l0.3-0.2l0.1-0.3l0.1-0.3l0.1-0.3v-0.1l-0.8-0.7l-0.3-0.2v-0.1l0.1,0l0.1-0.1l0-0.1l0-0.1
		l-0.3,0.1l-0.5,0.3l-0.3,0.1l-1.2,0.2v0.1l0.1,0.1l0.1,0.2l0.1,0.1v0.1l-0.2,0l-0.2-0.1l-0.1-0.2l-0.1-0.3l-0.1-0.4l-0.1-0.1
		l-0.1,0l-0.1,0.1l-0.1,0l-0.1-0.1l0.1-0.1l0-0.1L165,53l-0.2-0.1l-0.4,0.2l-0.3,0l0.1-0.1l0.2-0.1l-0.3-0.2l-0.3-0.7l-0.3-0.1
		l-0.3-0.1l-0.5-0.3l-0.3,0l0.1-0.1l0.1,0l0.1,0v-0.1h-0.4l-0.1-0.1l0-0.1v-0.2l0-0.2l-0.3-0.5l0-0.3l0.2-0.3l-0.1-0.1l-0.4-0.2
		l-0.1-0.2l-0.1-0.2l0-0.2l0.1-0.1l-0.3-0.1l-0.4,0.1l-0.4,0.3l-0.3,0.3l-0.1,0.2l-0.1,0.3l-0.1,0.1l-0.1,0.1l-0.1,0l-0.2,0l-0.1,0
		l0,0l0,0l-0.2-0.2l-0.1-0.1l0-0.1l0-0.1l-0.1,0.1l-0.1,0.1l-0.1,0l-0.1-0.1l-0.1,0.1l-0.1-0.1l-0.1-0.2l-0.1-0.2l0,0.1l0,0.1
		l-0.1,0.2l0-0.2l0.1-0.2L158,49l0.1,0v-0.1l-0.1,0l-0.1,0l-0.1,0l-0.1,0.1l0,0.1l0,0.1l0,0.1l-0.5,0.3l-0.3,0.1l-0.2-0.2v0.1
		l-0.1-0.1l-0.1,0l-0.2,0.1v0.1l0.1,0l0.1,0.1l-0.7,0.3l-0.2,0.1l0,0.1l0,0.2l0,0.1l0,0l-0.1,0l-0.1,0l-0.3,0.2l-0.1,0.1l-0.1,0.2
		l0.2,0.2l0.1,0.1l0.2,0l-0.2,0.1l-0.2-0.1l-0.4-0.3l0.1-0.1l0-0.2l-0.1-0.2l-0.1-0.2l0.2,0l0.1-0.2l0-0.2l-0.1-0.2l0.1-0.1L155,50
		l0.1,0l0.1,0l-0.1-0.3l0.1-0.3l0.1-0.2l0.2-0.1l0.4,0l0.2,0.1l0.2,0.2l0.1-0.2l0.2-0.1l0.2,0l0.2,0.1l0-0.1l0,0h0l0,0l-0.1,0
		l-0.1,0l0-0.1l0-0.1l0.1,0l0.1-0.1l0.1,0L157,49l0.1-0.2l0.1-0.1l0.3,0.1h0.2l0.1,0l0.1-0.2l0.1,0l0.3,0l0.4,0.2l1.1,0.1l0.3-0.1
		l0.2-0.2l-0.1-0.2l-0.3-0.1l-0.2,0.1l-0.4-0.2h-2.3l-0.4-0.2l-0.2-0.3h0.1v-0.1l-0.2,0.1l-0.1,0.2l-0.2,0.5l-0.4,0.7l-0.1,0.2
		l-0.6,0.9l-0.4,0.7l-0.1,0.2l-0.4,0.3l-0.8,0.4l-0.1,0l-0.1,0.1l-0.2,0.4l-0.2,0.2l-0.3,0.4l-0.1,0.2l0.1-0.1l0.1,0l0.1,0l0.1,0
		l-0.1,0.2l-0.3,0.2l-0.1,0.2l0.1,0.2l0,0.4l0.1,0.2l-0.2-0.3l0-0.4l0-0.5l-0.1-0.5l-0.4,0.2l-2.4,0.5l-0.8-0.1l-0.4,0.1l-0.3,0.2
		l-0.2,0.4l0,0l0,0.1l0,0.1v0.1l0.1,0.1l0,0.1l0,0.1l-0.1,0.1l-0.1,0.1l-0.1,0l-0.1,0.1l-0.2,0.5l-0.2,0.2l-0.1,0l-0.3-0.1v0.1h0.1
		v0.1l-0.3,0.3l0,0.1l0,0.2l0,0.1l-0.1,0l-0.1,0.1l-0.1,0.1l0,0.3l-0.1,0.3l-0.1,0.3l0,0.2h-0.1l-0.1-0.1l-0.4-0.5l0-0.1h-0.4
		l-0.1-0.1l-0.1-0.2l-0.1-0.1l-0.4,0.3l-0.1,0l-0.3,0l-0.1-0.1l0-0.2l0-0.4l-0.1-0.1l-0.4-0.1l-0.1-0.1l-0.1-0.2l-0.1-0.1l-0.1,0
		l-1.2,0.2l-0.5,0.3l-0.2,0l-0.2,0.1l-0.3,0.3l-0.1,0.1l-0.1,0l-0.2,0l-0.2,0l0-0.2l0-0.2l-0.1-0.2l-0.1,0l-0.4,0l-0.3-0.1l-0.2-0.2
		l-0.1-0.2l-0.1-0.3v-0.1l0.1-0.1l0.4-0.6l0,0l0.1-0.1l0.1,0l0.1,0.1l0.1,0l0.1-0.1l0.1,0l0.4-0.1l0.2-0.1l0.4-0.5l1.2-0.8l0-0.2
		l0.1-0.1l0.1-0.2l0-0.3l-0.1-0.5l0-0.3l0.1-0.2l-0.1-0.3l-0.1-0.7l-0.1-0.3l0.2,0.1l0.1,0l0.1-0.2l0.4-0.4l-0.3-0.1l-0.7,0.4
		l-0.2-0.2l-0.2,0.1l-0.2-0.1l0.3,0l0.2,0v-0.1l-0.8,0.1l-0.3,0.1l-0.3,0.2l-0.6,0.5l-0.3,0.2l-0.5,0.1l-0.4-0.1l-0.9-0.8l-1.6-0.7
		l-0.6-0.5l-0.2-0.1l-0.4,0l-0.1,0l-0.1,0.1l-0.1,0.1l-0.1,0.1l-0.1,0.1l-0.4,0l-0.1,0.1L133,49l-0.1,0.6l-0.2,0.5l-0.2,0.2
		l-0.2,0.1l0.1-0.2l0-0.2l0-0.1l-0.1-0.1l0.1-0.1l0-0.1l0,0l0,0l0.2-0.1l0.2-0.2l0.1-0.2l0.1-0.2l-0.1-0.3l-0.1-0.2l0-0.2l0.2-0.2
		l-0.6-0.5l-0.2-0.1l-2.4,0.6l-0.4-0.2v-0.1l0.4,0l0.4-0.1l0.4-0.2l0.3-0.3l0.1-0.2l0.1-0.2l0.1-0.2l0-0.3l0.1-0.7l0-0.3l-0.1-0.2
		l0.1-0.2l-0.1-0.1l-0.1,0l-0.1,0.1l-0.2-0.2l-0.3,0l-0.3,0.1l-0.1,0l0-0.2l0,0l0,0l0.1,0l0,0l0.2-0.2l0,0l0.1,0l0.1,0.1l0.1,0
		l0.1-0.1l-0.2-0.2l-0.1-0.1l-0.1-0.1l-0.1-0.6l-0.2-0.3l-0.3-0.2l-0.2,0l0,0.4l-0.5,0.2l-0.3,0l-0.1-0.2l-0.1-0.3l-0.2-0.2
		l-0.3-0.1l-0.2-0.1l-0.4-0.2l-0.6,0l-0.5-0.2l0-0.6l-0.1,0.1l-0.1,0.2l-0.2,0.1l-0.2,0.2l-0.6,0.3l-0.2,0L125,42l-0.2,0l-0.2-0.2
		l-0.2,0l-0.1,0.1l-0.1,0l-0.1,0.1l-0.2,0l-0.7,0L123,42l-0.1-0.2l0-0.2l0-0.2l-0.2-0.1l-2.1-0.5l-0.8-0.3l-0.8-0.1l-0.2,0l-0.7,0.3
		l-0.4,0l-0.3-0.1l-0.1,0.5l0,0.4l0.1,0.5l0.1,0.3l0.2,0.3l0.1,0.4l-0.1,0.3v0.1l0.3,0.2l0.5,0.5l0.3,0.2l0.1,0.2l0.3,0.9l-0.3,0.2
		l0.1,0.1l0.1-0.1l0.2-0.1l0.2,0l0.1,0.1l0,0.2l0.1,0.2l0.8,0.9l0.3,0.4v0.4l-0.1,0.3l-0.2,0.1l-0.4,0.2l-0.4,0.4l-0.2,0.1l-0.3,0.1
		h-1.1l-0.8,0.2l-0.2-0.1l-0.1,0.1l-0.1,0.2l0,0.2l0.1,0.2l0.2-0.2l0.1,0l0.1,0.1l0.2,0v0.1l-0.2,0l-0.3,0.1l-0.3,0.1l-0.1,0.2
		l0,0.4L117,51l0.3,0.3l0.3,0.1l0.1,0L118,51l0.2-0.1l0.4,0.1l0.3,0l0.5-0.2l0.3,0l0,0.1l0,0.1l0,0.1l0.2-0.1l0.4-0.3l0.2,0
		l-0.1,0.3l-0.2,0.3l-0.2,0.2l-0.1,0.1l-0.2,0l-0.4,0.1l-0.1,0.1v0.1l0.1,0.3l-0.1,0.3l-0.2,0.3l-0.1,0.3l0,0.1l0.2,0.4l0.3,0.5h0.1
		l0.2-0.2l0.3-0.2l0.4-0.1l0.2,0.1v0.1l0,0.2l0.1,0.2l0.2,0.2l0.1,0.2v0.3l-0.1,0.4l-0.1,0.3l-0.1,0.2l-0.2,0.1l-0.2-0.1l-0.4-0.3
		l-0.2-0.1l-0.2,0l-0.4,0.2l0.8,1.7l0.3,0.4l0.4,0.3l0.2,0.1l0.1-0.2l0.1-0.1l0.3,0.1l0.4,0.2l1.3,0l0.4,0.1l0.4,0.2l0.6,0.6
		l0.4,0.1l0,0.3l0.2,0.6l0.2,0.5l0.2,0.2l0.1,0.1l0.5,0.3l0.1,0.1l0,0.3l0,0.5l0.1,0.5l0.3,0.4l0.7,0.5l0.4,0.1l0.9,0.1l0.4,0.2
		l0.1,0.2l-0.1,0.1l-1.2-0.3l-0.6-0.4L127,63l-0.2,0l-0.2-0.1l-0.2-0.1l-0.7-1l-0.1-0.5l-0.1-0.2l-0.3-0.2l-0.4-0.5l-1-1.7l-0.2-0.3
		l-0.1-0.1l-0.3,0l-0.2,0l-0.1-0.1l-0.2,0.1l-0.8,0l-0.8,0.2l-0.2,0.2l-0.4,0l-0.7,0.2l-0.4,0l-0.8-0.2l-0.4-0.2l-0.4-0.3l-0.2-0.3
		l-0.1-0.1l-0.2,0l-0.2,0.1l-0.2,0.1l-0.2,0.2l-0.1,0.2l-0.2,0.5l-0.3,1l-0.4,0.9l-0.1,0.2l0,0.3l0,0.3l0.1,0.4l0.1,0.3l0.1,0.3
		l0.1,0.2l0.1,0.1l0.3,0.7l0.1,0.1l-0.1,0.5l-0.2,0.2l-0.2,0.2l-0.2,0.4l0,0.5l0.1,1.1l0,0.4l-0.1-0.3l-0.1-0.4l0-0.9l0.1-0.5
		l0.2-0.4L116,64l0.2-0.2v-0.1l-0.4-0.2l-0.9-0.2l-0.4-0.2l-0.1-0.2l-0.1-0.2l-0.1-0.2l-0.2-0.1l-0.4,0l-0.2,0.1l-0.1,0.1l-0.1,0.2
		l-0.1,0.6l-0.1,0.3l0,0.2l0.2,0l0.4-0.1l0.3,0.3l-0.1,0.6l-0.2,0.6l-0.2,0.4l-0.1,0.1l-0.1,0.1l-0.1,0l-0.2,0l-0.1-0.1l-0.1-0.2
		l-0.1-0.2l-0.1-0.1l-0.1,0l-0.2-0.2l-0.1-0.1l-0.2,0l-0.1,0l-0.1,0.1l-0.1-0.1l-0.1-0.2l-0.2-0.6l0.2-0.1l0.4,0l0.2-0.1l0.2-0.2
		l0.1-0.2l0-0.3l-0.1-0.2l-0.2-0.1l-0.2-0.1L112,63v-0.1l-0.3-0.2l-0.4-0.5l-0.3-0.6L111,61v-0.1l-0.8-0.2l-3,0.4l-1.5,0.3l-0.2-0.1
		l-0.1-0.1l-0.1-0.1l-1.5,0.2l-0.8,0.3l-0.4,0.4l-0.2,0.1l-0.4,0.4l-0.3,0.2l-0.1,0.2l0,0.2l0.1,0.1l0.3,0.1l0.1,0.1l0,0.2l-0.1,0.2
		l-0.1,0.1l-0.1,0.1l-0.4-0.1l-0.2,0l-0.1,0.2l0,0.3l-0.2,0.5l0,0.3l0,1.2L101,67l0.4,0.2l2.3,0.1l0.4,0.1l0.2,0.4l-0.2-0.1
		l-0.3-0.2l-0.2-0.1l-0.2,0l-0.1,0.1l-0.3,0.4L103,68l0,0.2l-0.1,0.2l-0.1,0.1l-0.1,0.1l-0.1,0.1l0,0.5l0,0.3l0,0.3l-0.1,0.3
		l-0.1,0.4l0,0.1l0,0.2l0,0.1l0,0.1l0,0.1l0.1,1.2l0,0.6l-0.1,0.5l-0.2,0.6l-0.8,1.3l-0.2,0.5l-0.1,0.6l-0.1,1.8l-0.1,0.6l-0.2,0.4
		l-0.4-0.1l-0.2-0.1l-0.5,0.1l-0.5-0.2l-1,0L98,78.8l-0.4,0.3l0.1,0.2l0,0.1l0,0.1l0,0.1l0.1,0.1l0.3,0.3l-0.6,0.3l-0.2,0l0.1,0.3
		l0,0.3l0,0.3l0.1,0.2l0.2,0.2l0.3,0.1l0.8,0.1l0.5,0.2l0.3,0l0.3,0l0.3-0.1l0.1-0.1l0.1-0.1l0.1,0l0.6,1l0.1,0.4l-0.1,0.6l-0.2,0.5
		l-0.1,0.2l0,0.3l0.1,0.3l0.1,0.2l0,0.1l-0.4,0.3l-0.1,0.1l-0.2,0.4l-0.2,0.2l-0.4,0.2l-0.2,0.2l-0.2,0.5l-0.1,0.1l-0.7,0.1
		l-0.2,0.1L98,87.8l-0.1,0.1l-0.1,0.2l-0.1,0.1l-0.1,0.1l-0.1,0l-0.1,0l-0.1,0.2l0,0.2l0.2,0.1l0.2,0.1l0.7,0.4l0.3,0.3l0.1,0.1
		l0,0.1l0,0.2l0,0l-0.1,0l-0.1,0.1l-0.2,0.4l-0.2,0.3l-0.3,0.1l-0.9,0l-1,0.3l-0.5,0.4l-0.2,0.1H95l-0.6-0.2l0.1,0.4l0,0.2l-0.4,0.1
		l0-0.3l-0.2-0.1l-0.4-0.1l0-0.1l-0.1-0.2l-0.1-0.1l-0.1,0l-0.3,0.1l-0.3-0.1l-0.3-0.3l-0.3-0.2l-0.3,0.2l0.1,0.1l0.4,0.4l0.1,0.2
		l-0.2,0l-0.2-0.1l-0.3-0.1L91,91.8l-0.1,0.1L90.7,92l-0.2,0.1l-0.4,0.1l-0.2,0.1l0,0.1l0.2,0.2l0.1,0.3l0,0.3L90,93.4l0,0.2l0.1,0
		l0.3,0l0.1,0.1l0.2,0.2l0.1,0.1l-0.1,0.5l0.2,0.3l0.7,0.3l-0.1,0.4l-0.1,0.2l0,0.2l0.7,0.9l0.4,0.5l0.1,0.5l0,0.3l0,0.3l-0.1,0.3
		l0,0.3l0.2,0.2l-0.1,0.1l0,0.4l-0.1,0.2l-0.1,0.1l-0.3,0.2l-0.1,0.1l-0.5,1l-0.2,0.3l-0.1,0.2l-0.1,0.3l0,0.4l0.1,0.3l0.2,0.1
		l0.5-0.3l0.2,0.1l-0.1,0l-0.2,0.2l0.2,0.2l-0.2,0.2l-0.6,0.3l-0.9,0.7l-0.1,0.2l-0.2,0.4l-0.1,0.1l-0.2,0l-0.1-0.1l-0.1-0.2
		l-0.1-0.1l-0.3,0.1l0.1,0.4l0.2,0.5l0,0.4l0.1,0l0.3-0.1l0.1,0l0.1,0l0.3,0.1l0.4,0l0,0.1l-0.1,0.1l0,0.1l0,0.2l0,0.1l0.1,0.1
		l0.2,0.1l0.3,0.1l0,0.1l-0.1,0.1l0,0.1l0.1,0.3l0,0.1l-0.1,0.2l-0.1,0.1l-0.2,0l-0.1,0.1l-0.1,0.2l0,0.1l0,0.1l-0.1,0.2l-0.1,0.1
		l-0.2,0l0,0.2l0.1,0.1l0.1,0.1l0.1,0.1l0,0.2l0,0l0,0l0,0l0,0v0l0,0l0,0l0.1,0.1l0.1,0l0,0.1v0l0,0.2l0,0.1l0,0l0.1,0l0.4-0.1
		l0.2,0l0.2,0.2l0.1,0.2l0.5,0.8l0,0l-0.1,0.1l0.1,0.2l0.2,0.1l0.7,0l0,0.1l-0.1,0.1l0,0l-0.1,0.1v0.1l-0.2,0.1l-0.2,0.2l-0.1,0.1
		l-0.2,0.3l0,0l0.2,0.2l-0.1,0.1l0,0.1v0l0.1,0l0.1,0h0l-0.1,0.1l0.1,0.1l0,0h0l0,0.1l0.1,0.1l0.1,0l0,0l0,0l0.1,0l0.3-0.1l0,0l0,0
		l0,0l0,0l0,0l0,0l0.2,0.1l0.4,0.1l0.2,0l-0.1,0.1l0,0l0,0.1l0,0l0,0.1l0.1,0.2l0,0l0.1,0.1l0.1,0h0l0,0l0,0v0l0,0.1l0,0.2L94,115
		l0,0l-0.1,0.2l0,0.2l0.3,0.6l0,0.2v0l-0.1,0.1l0,0l0,0l-0.3,0l-0.1,0l-0.1,0l0,0l-0.1,0l-0.1,0l-0.1,0l-0.1,0.1l0,0l-0.1,0.1l0,0.2
		l0,0.1h0l-0.2,0.2l-0.3,0.1l-0.2,0.1l-0.2,0.1l-0.1,0.1l0,0l-0.2,0.1l-0.1,0l-0.1,0.1l0,0l0.1,0.1l0,0l0,0.1l0,0.2l-0.1,0.1l0,0
		l-0.1,0l-0.2,0l0,0l-0.1,0l0,0l0,0l0,0.1l0,0.1l0,0.1l0.1,0.1l0,0.1v0l0,0l0,0.1l-0.1,0.1l-0.1,0.2l0,0.2l-0.1,0.4l0,0l0.1,0l0,0
		l0,0.1l-0.1,0.2l0.1,0.1l0.1,0.1l0.1,0.3l0,0.2l0,0.1l0.2,0.3l0.2,0.4l0.1,0.1l0.1-0.2l0.2,0.3l0.3,0.8l0.2,0.2l0.3,0.2l0.1,0.1
		l0,0.1l0.1,0.3l0,0.1l0.1,0l0.2-0.1l0.1,0l0.2,0.1l0.3,0.3l0.2,0.1l0.2,0h0.5l0.3,0.1l0,0l0.1,0.1l0,0l0,0.1l0,0l0,0.3l0,0.1l0,0.1
		l0,0.1l-0.1,0.1l0,0.1l0,0.1l0,0.1l0.1,0.1l-0.1,0l0,0l0,0.1l0.1,0.1l0,0l-0.7,0.5l-0.2,0.2l0,0.1l0.1,0l0.1,0.1l0,0.1l0,0.1
		l-0.1,0.1l-0.1,0.2l-0.3,0.3l-0.2,0.2l-0.1,0.2v0.5L94,129l0,0.5v0.1l0.1,0l0.1,0l0.2-0.1l0.1,0l0.1,0l0.9,0.5l0.2,0.2l0.1,0.1
		l0,0.1l0,0.1l0,0l0.1,0.1l0.5,0.5l0,0.1l0,0.1l-0.2,0l-0.1,0.1l0.1,0.2l0.2,0.2l0.7,0.6l0,0.1l0,0.2l0,0.1l0.1,0l0.1,0.1l0,0
		l0.1,0.3l0,0.1l0,0l0,0.1l0,0.1l0,0l0.1-0.1h0l0.1,0.2l-0.1,0.2l0,0.2l0.1,0.2l0.1,0l0.4,0l0.4,0.1l0.1,0l0.2-0.2l0-0.3l-0.1-0.2
		l0.1-0.2l0.1,0l0.4,0.1l0.3,0l0.1,0l0.6,0.4l0.2,0l0,0.5l0.1,0.4l0.2,0.2l0.3-0.2l0-0.1l0-0.1l0-0.1l0.1-0.1l0.1,0l0.4,0.3l0.2,0.1
		l0.2,0.1l0.9,0l0.3,0.1l0.1,0l0.1-0.1l0.1-0.2l0.1-0.1l0.1,0l0.2,0l0.1,0l0.1-0.1l0.1-0.2l0-0.1l0.2-0.1l0.2-0.1l0.2,0l0,0.2l0.4,0
		l0.2,0.1l0.1,0.2l-0.1,0l0,0l0,0.1l0.1,0.1l0.2,0.4l0.1,0.2l0.2,0.1l0.4,0.1l0.2,0.1l0.1,0.1l0.1,0.2l0.1,0.1l0.1,0l0.1,0l0.1,0
		l0.1,0l0.1,0l0.2,0.1l0.1,0l0.1,0l0.2-0.1l0.1,0l0.8,0.2l0.6-0.1l0.2,0l1.6,0.8l1,0.2l0.1,0.1l-0.2,0.2l-0.3,0.6l-0.5,1.3l-0.1,0.2
		l-0.1,0.1l-0.4,0.2l-0.1,0l0,0l0,0l0,0.1l0,0.1l0,0.1l-0.1,0.1l-0.1,0l-0.3,0l-0.1,0l-0.1,0.1l0,0.3l0,0.1l-0.1,0.1l-0.1,0.1
		l-0.1,0.1l-0.3,0.3l-0.2,0.1l-0.2,0.1l-0.1,0.1l-0.4,0.7l-0.1,0.5v0.5l0.1,0.3v0.1l-0.3,0.2l-0.1,0.1l-0.1,0.1l0,0.3l0,0.1
		l-0.1,0.1l-0.1,0.1l-0.1,0.2l-0.1,0.4l0,0.2l0,0.2l0.1,0.2l0.1,0.2l0,0.2l-0.1,0.2l-0.2,0.1l-0.2,0.1l-0.1,0.3l0,0.3l-0.1,0.3
		l-0.1,0.2l-0.6,0.9l-0.1,0.2l0,0.2l-0.1,0.1l-0.1,0.1l-0.1,0.1l-0.1,0.2l-0.1,0.3l0,0.6l0.4,0.8l0,0.5l-0.1,0.2l-0.3,0.3l-0.1,0.2
		l0,0.2l0,0.1l-0.1,0.2l0,0.1l-0.1,0.1l0,0.1l0,0.1l0,0l0,0l0,0.1l0.1,0.3l0,0.2l-0.1,0.1l-0.1,0.1l-0.1,0.5l0,0.2l0.1,0.5l0,0.2
		l-0.1,0.1l-0.2,0.2l0,0.1l0,0.3l0,0.2l0,0.1l0.1,0.1l0.1,0.2l0.2,0.5l0.1,0.1l0.1,0.1l0.1,0.1l0,0.1l0,0.1l0,0.1l0.5-0.2l0.2,0
		l-0.1,0.4l-0.1,0.1l-0.3,0l0.5,0.3l0.2,0l0.8-0.2l0.2-0.1l0.2-0.2l0.2-0.3l0.1,0.1l0.6,0l0.1,0.1l0,0.1l0,0.1l0,0.1h1.3l0.5-0.1
		l0.1-0.1l0-0.1l0-0.1l0.1-0.1l0.1-0.1l0.2-0.1l0.2-0.1l0.1-0.1l0-0.1l0.1,0l0.5-0.1l0.2,0l0.3,0.1l0.1,0l0.1,0.1l0.1,0.1l0.1,0.1
		l0.1,0.1l0.4,0.1l0.6,0l0.3-0.1l0-0.1l0.1-0.3l0.3-0.2l0.3,0l0.2,0.1l0.1,0.2l0.1,0.1l0.1,0l0.1-0.1l0-0.1l0-0.1l0-0.1l0-0.1l0-0.1
		l0-0.1l0-0.1l0,0l0.1,0l0,0l0,0l0,0.1l0.1,0l0.1-0.4l-0.1,0l-0.2-0.1l-0.1,0l-0.5,0.1l-0.2,0.1l-0.1,0.1l-0.1,0.1l-0.2,0l-0.2-0.1
		l-0.3-0.2l-0.1,0l-0.2-0.1l0.1-0.2l0-0.1l0-0.1l0-0.1l0.1-0.1l0.3-0.1l0.1-0.1l0.1-0.3l0-0.1l0.1-0.2l0.1,0l0.1,0l0.5-0.1l0.2-0.1
		l-0.1-0.2l0.2-0.1l0.3,0l0.2,0.1l0,0.1l0,0.2l0,0.2l0.1,0.1l0.1-0.1l0.1-0.3l0.1-0.1l0.1,0l0.1,0.1l0.1,0.2l0.1,0.1l0.1,0l0.1,0
		l0.1,0l0.1,0.2l0,0.1l-0.1,0.2l0,0.1l0,0.1l0.1,0.1l0,0.1l0,0.1l0.5,0l-0.1-0.1l0.1-0.3l0.3,0l0.3,0.2l0.3,0.2l-0.2,0v0.1l0.2,0.2
		l0.3,0.2l0.2,0.1l0.4,0l0.4-0.1l0.2-0.2l0.2-0.1l1.1,0.1h0.6l0.1,0.2h0.4l0.4,0.1l2.8,1.7l0.6,0.2l0.6,0l0.3-0.1l0.1-0.2l0.1-0.3
		l0.2-0.3l0.1-0.1l0.1,0l0.1,0.1l0.1,0.1l0,0.2l0,0.2l0,0.2l0.2,0.1l0.1,0l0.1-0.1l0.1,0l0.3,0.1l0.3,0l0.2,0l0.1-0.1l0,0.2l0.1,0.1
		l0.1,0.1l0.1,0.2v0l0,0l0,0.1l0.1,0.1l0.1,0l0.1-0.1l0.1-0.1l0.5,0.7l0.1,0.2l0,0.2l-0.2,0.2l0.1,0.1l0,0.2l0,0.2l0.1,0.1l0.1,0.1
		l0.1,0l0.1-0.1l0.1-0.1l0,0l0.1,0.1h0.1l0,0l0.1-0.1l0.4-0.1l0.2,0.1l0,0.3l-0.2,0.5l0,0.1l0,0.1l0,0.1l0,0l-0.1,0l0,0l-0.1,0.2
		l0,0.1l0,0l0.8-0.1l0.2-0.1l0.4-0.3l0.2-0.2l0.2-0.2l0.2-0.4l0.1-0.1l0.1-0.1l0.2-0.1l0.1-0.1l0.2-0.2l0.1-0.3l0.1-0.3v-0.3l0-0.2
		l-0.1-0.1l-0.1-0.1l-0.1-0.1l0.1-0.6l0-0.1l-0.1-0.2l-0.1-0.2l0-0.1l0.2-0.1l0.2,0l0.1,0l0,0l0,0.1l0,0.1l0,0.1l0,0.1l0,0.1
		l0.1,0.1l0.1,0.1l0.2,0.1l0.4,0.1l0.1,0l0.1-0.1l0.2-0.3l0.1-0.1l0.2,0l1.3,0.5l0,0l0,0.1l0.1,0.1l0.1,0l0.3,0l0.4-0.2l0.1,0l0.1,0
		l0.1,0.1l0.2,0.2l-0.1,0.1l-0.3,0.2l0.1,0.1l0.5,0.2l0.5,0.5l0,0.1l0,0.1l0,0.1l0,0.1l0,0l0.1,0.2l0.1,0.1l1,0l0.2-0.1l0.7-0.5
		l0.3-0.1l0.2,0.1l0,0.4l0.2,0l0.2-0.1l0.1-0.2l0.1-0.2l0.2-0.2l0.2-0.1l0.4,0l0.2-0.1l0.1-0.1l0-0.1l-0.1-0.1l-0.1,0l0.5-0.5
		l0.2-0.1l0.2,0l0.2,0.1l0.5-0.1l0.2-0.1l0.2-0.2l0.1-0.1l0.1-0.3l0.1-0.2l0.3-0.2l0,0l0.2,0l0.4,0.1l0.8,0l0.6,0.1l0.1,0l0.1-0.3
		l0.1-0.1l0.8-0.2l2.3,0.1l0.1,0l0.3-0.4l0-0.1l0-0.1l0-0.4l0-0.1l-0.1,0l-0.1-0.1l-0.1-0.1l0-0.1l0-0.1l0.2-0.1l0.2-0.2l0.1-0.1
		l0.1-0.1l0,0l0,0.1l0,0.2l0,0.1l-0.1,0.1l0,0.1l0.1,0.2l0.1,0.1l0.1,0l0.2-0.1l0.2,0l0.6,0.1l0.2,0l0.4-0.2l0.2,0l0,0.1l0.1,0.3
		l0.1,0.1l0.1,0.1l0.3,0.2l0.1,0.1l0.2,0l0.2,0l0.2-0.1l0.4-0.4l0.2-0.1l0.4-0.1h0.4l0.6,0.1l0.2,0l-0.1,0.3l0.2,0.2l0.3,0.2
		l0.2,0.2l-0.3,0.1l-0.1,0.3l0.1,0.4l0.2,0.2l0.2,0l0.1,0l0.1,0.1l0.5,0.5l0.5,0.4l0.1,0l0.1,0l0.1,0l0.1,0l0.1,0.1l0.1,0.1l0.1,0
		l0.1,0l0.1-0.1l0.3-0.3l0-0.1l0-0.1l0-0.1l0-0.1l0-0.1v-0.3l0,0l0.1-0.2l0,0l0,0l0-0.3l0,0l0.2-0.2l0,0l0.1-0.3l0,0l0-0.2l0-0.2
		l0-0.2l-0.1-0.2l-0.2-0.3l-0.1-0.1l-0.1-0.1l-0.2,0l-0.3,0.1l-0.2,0l-0.6-0.1l-0.2-0.2l0.2-0.3l0,0l0.1-0.1l0-0.1l0-0.1l0-0.1
		l0.1-0.1l0.6-1l0,0l-0.2-0.3l-0.3-0.8l-0.2-0.2l-0.1,0l-0.2-0.2l-0.2-0.1l-0.1-0.1l-0.1-0.2l0-0.2l-0.2-0.3l-0.7-0.7l-0.1-0.1
		l-0.1-0.2l0-0.2l0-0.2l0.1-0.1l0.1,0l0.1,0l0.1,0l0.1-0.2l0-0.1l0.4-0.3l0.1-0.2l0.2-0.3l0.1-0.1l0.2-0.1l0.6-0.1l0,0l0.2-0.1
		l0.3-0.2l0.4-0.4l0.2-0.1l1-0.4l1.4-0.2l0.3-0.2l1-0.9l0.1-0.2l0.1-0.3l0-0.1l0-0.1l0-0.1l0-0.2l0-0.4l0-0.1l0-0.1l0.1-0.3l0-0.1
		l0-0.1l-0.1-0.1l0-0.3l0-0.1l0-0.1l0.1-0.1l0.1-0.1l0.3-0.1l0.3,0l1,0.3l0.2,0.1l0.2,0.1l0.2,0.2l0.4,0.2l0,0l0.1-0.4l0.1-0.2l0,0
		l0.2,0l0.1,0l0.1-0.1l0-0.1l0.2-0.4l0.1-0.2l0-0.2l0-0.3l-0.1-0.5l0-0.2l0.1-0.1l-0.1-0.1l-0.1,0l-0.1-0.2l-0.1,0l0-0.1l0.3-0.6
		l-0.2-0.2l-0.5-1l-0.2-0.4l-0.1-0.1l-0.4-0.1l-0.2-0.1l-0.2-0.2l-0.2-0.2l-0.1-0.3l0-0.3l-0.2,0l-0.2-0.1l-0.2-0.1l-0.2-0.1
		l-0.2-0.1l-0.1,0.1l-0.1,0.2l-0.1,0.3l-0.2-0.1l-0.3-0.2l-0.3-0.3l-0.1-0.2l0-0.4l-0.1-0.3l-0.4-0.4l-0.3-0.4l-0.1-0.1l-0.2-0.1
		l-0.6,0l-0.3-0.2l-0.2-0.3l-0.1-0.3l-0.9-1.3l-0.1-0.1h0v0l-0.3-0.4l0-0.1l0-0.1l-0.1-0.1l-0.2-0.1l-0.3-0.3l-0.1-0.1l-0.2-0.1
		l-0.4-0.1l-0.1,0l0,0.2l-0.2,0l-0.6-0.1l-0.2-0.1l-0.2-0.2l-0.3-0.7l-0.2-0.2l-0.5-0.2l-0.2-0.2l-0.1-0.2l0-0.2l0-0.5l0-0.3
		l-0.1-0.1l-0.1,0l-0.1,0l-0.1-0.1l-0.1-0.1l-0.1-0.1l-0.1-0.2l0-0.2l0-0.3l-0.1-0.2l-0.1-0.1l-0.2-0.1l-0.1-0.1l0,0l0-0.1l-0.1,0
		l0,0l0.1-0.2l0-0.2l-0.1-0.2l-0.1-0.1l-0.3-0.2l-0.2-0.1l-0.1-0.1l-0.2-0.3l-0.1-0.2l0-0.2l0.1-0.2l0.4-0.2l0.2-0.2l0-0.3l0-0.3
		l0.1-0.2l0.2,0.1l0.1-0.2l0.2-0.4l0.1-0.2l0-0.3l-0.1-0.1l-0.1-0.1l-0.4-0.2l0-0.2l0.1-0.2l0-0.2l-0.2-0.2l-0.4,0l-0.2-0.2h0
		l-1.5-0.8l0-0.1l0-0.1l0-0.2l-0.1-0.2l-0.1-0.1l-0.2-0.1l-0.1-0.1l-0.1-0.2l0-0.2l0.1-0.4l0-0.2l-0.1-0.2l-0.1-0.2l-0.2-0.3
		l-0.5-0.3l-0.1-0.2l0.1-0.2l0.1-0.1l0.1-0.1l0-0.2l0-0.2l-0.1-0.1l-0.2-0.2l0.7,0.1l0.2,0.1l0.1,0.1l0,0.3l0,0.1l0.1,0.1l0.1,0
		l0.3,0l0.1,0l0,0.1l0,0.1l0,0.1l0,0l0,0l0,0l0,0l0,0l0,0l0,0l0,0l0.2,0.2l0,0.1l0,0.1l0,0.1l0,0.1l0.1,0.4l0.1,0.2l0.2,0l0.1-0.1
		v-0.1l-0.1-0.2l0-0.2l0-0.3l0.1-0.1l0.2-0.3l0-0.2l0.1-0.1l0.1-0.1l0.1-0.1l0.3-0.6l0.1-0.1l0.3-0.2l0.1-0.1l0,0l0.1,0l0,0l0-0.1
		l0-0.1l0-0.1v0l0-0.1l0-0.1l0-0.1l0.1-0.1l0.3-0.2l0.4-0.1l0.8-0.1l0.5,0.1l0.1,0l0.1-0.1l0.2-0.3l0.1-0.1l0.2-0.1l0.2,0l0.2,0
		l0.1,0l0.1-0.1l0.1,0l0.1,0l0.9,0.6l0.3,0l0.3-0.3l0.1-0.2l0.1-0.3l0.1-0.6l0.1-0.1l0.1,0l0.1,0l0.1,0.1l0.1,0l0.1,0l0.1,0l0.1,0
		l0,0l0.3-0.1l0.5,0l0.2-0.2l0.1-0.3l0.3-0.9l0.2,0l0.2,0.1l0.2,0.1l0.2-0.1l0.1-0.3l0.1-0.1l0.4-0.3l0.1-0.1l0-0.1l0,0l0.1,0
		l0.1,0.1l0.1,0.2l0.1,0.1l0.2,0.1l0.2,0l0.2-0.2l0.2-0.2l0.1-0.1l0.1-0.1l0-0.1l-0.1-0.1l0.2-0.1l0.1-0.2l0-0.2l-0.1-0.2l0.4-0.2
		l0.5-0.1l0.9,0l0.2,0l0.4-0.1l0.2,0l0.5,0.1l0.2,0l0.3-0.2l0.1,0l0.1,0l0.1-0.1l0-0.1l0-0.1l0-0.1l0-0.2l0.1-0.1l0.1,0l0.1,0l0.1,0
		l0.1-0.1l0.2-0.2l0.1-0.1l0.2,0l0.4,0l0.2,0l1.6-0.7l0.1-0.1l0.2-0.3l0.1-0.1l0.4-0.1l0.8,0.1l0.3-0.2l0.1-0.4l-0.3-0.2l-0.4-0.1
		l-0.3-0.3l0-0.2l0.1-0.1l0,0l-0.2-0.1l-0.3,0l-0.1-0.1l0.1-0.2l0.1-0.5l0.2-0.2l0.3-0.1l0.4,0.1l0.1,0.1l0.1,0.1l0.1,0.1l0.1,0.1
		l0.1,0l0.3-0.1l0.4,0l0.1-0.1l0.1-0.2l0.1,0.1l0,0.1l0,0.1l0.1,0.1l0.1,0.1l0.3,0.1l0.1,0.1l0.1,0.1l0.1,0.1l0,0.2l0,0.2l-0.1,0.2
		l-0.1,0.2l-0.1,0.2l0.1,0.1l0.6-0.2l0.1,0l0.1,0.2l-0.1,0.2l-0.2,0.4l0,0.3l0,0.1l0.3,0.1l0.1,0.1l0.4,0.3l0.4,0.1l0.2,0l0.2,0
		l0.1-0.1l0.1-0.2l0.2-0.4l0-0.3l0.1-0.2l0.4-0.4l0.5-1.2l0.4-1.1l0-0.2v-0.3l0-0.2l0.1-0.1l0.1-0.1l0.1-0.1l0-0.2l0-0.4l0.1-0.4
		l0.1-0.4L181.3,101.5L181.3,101.5z"/>
	<g>
		<path class="st1" d="M210.3,27.2h-0.7v-4.9l-2,4.9h-0.3l-2-4.9v4.9h-0.7v-6h1.1l1.9,4.5l1.9-4.5h1.1V27.2z"/>
		<path class="st1" d="M215.1,27.2h-0.7v-0.5c-0.4,0.4-0.8,0.6-1.4,0.6c-0.4,0-0.8-0.1-1.1-0.4c-0.3-0.3-0.5-0.6-0.5-1.1
			c0-0.5,0.2-0.8,0.5-1.1c0.3-0.2,0.7-0.4,1.1-0.4c0.6,0,1.1,0.2,1.4,0.6v-0.8c0-0.3-0.1-0.5-0.3-0.7s-0.5-0.2-0.8-0.2
			c-0.5,0-1,0.2-1.3,0.6l-0.3-0.5c0.5-0.5,1-0.7,1.7-0.7c0.5,0,0.9,0.1,1.2,0.4c0.3,0.2,0.5,0.6,0.5,1.1V27.2z M213.2,26.9
			c0.5,0,0.9-0.2,1.2-0.5v-0.8c-0.3-0.4-0.7-0.5-1.2-0.5c-0.3,0-0.6,0.1-0.8,0.3s-0.3,0.4-0.3,0.7c0,0.3,0.1,0.5,0.3,0.7
			S212.9,26.9,213.2,26.9z"/>
		<path class="st1" d="M218.3,27.3c-0.6,0-1.2-0.2-1.6-0.7c-0.4-0.4-0.6-1-0.6-1.6c0-0.7,0.2-1.2,0.6-1.6c0.4-0.4,0.9-0.6,1.6-0.6
			c0.7,0,1.2,0.3,1.6,0.8l-0.5,0.4c-0.3-0.4-0.6-0.6-1.1-0.6c-0.5,0-0.8,0.2-1.1,0.5c-0.3,0.3-0.4,0.7-0.4,1.2
			c0,0.5,0.1,0.9,0.4,1.2c0.3,0.3,0.6,0.5,1.1,0.5s0.8-0.2,1.1-0.6l0.5,0.4C219.5,27.1,219,27.3,218.3,27.3z"/>
		<path class="st1" d="M222.8,27.3c-0.6,0-1.2-0.2-1.6-0.6c-0.4-0.4-0.6-1-0.6-1.7c0-0.6,0.2-1.2,0.6-1.6c0.4-0.4,0.9-0.7,1.5-0.7
			c0.6,0,1.2,0.2,1.5,0.7c0.4,0.4,0.6,1,0.6,1.7v0.2h-3.5c0,0.4,0.2,0.8,0.5,1.1c0.3,0.3,0.6,0.4,1.1,0.4c0.5,0,1-0.2,1.3-0.5
			l0.3,0.4C224.1,27.1,223.5,27.3,222.8,27.3z M224.2,24.8c0-0.4-0.1-0.7-0.4-1c-0.2-0.3-0.6-0.4-1.1-0.4c-0.4,0-0.8,0.1-1,0.4
			c-0.2,0.3-0.4,0.6-0.4,1H224.2z"/>
		<path class="st1" d="M229.8,27.2h-0.7v-0.6c-0.4,0.5-0.9,0.8-1.5,0.8c-0.6,0-1-0.2-1.4-0.6s-0.5-1-0.5-1.7c0-0.7,0.2-1.2,0.5-1.7
			s0.8-0.6,1.4-0.6c0.6,0,1.1,0.3,1.5,0.8v-2.3h0.7V27.2z M227.8,26.7c0.3,0,0.5-0.1,0.8-0.2c0.2-0.1,0.4-0.3,0.5-0.5v-2
			c-0.1-0.2-0.3-0.4-0.6-0.5c-0.2-0.1-0.5-0.2-0.8-0.2c-0.4,0-0.8,0.2-1,0.5c-0.3,0.3-0.4,0.7-0.4,1.2s0.1,0.9,0.4,1.2
			C227,26.6,227.4,26.7,227.8,26.7z"/>
		<path class="st1" d="M234.6,26.7c-0.4,0.4-0.9,0.7-1.6,0.7c-0.6,0-1.2-0.2-1.6-0.7c-0.4-0.4-0.6-1-0.6-1.6c0-0.6,0.2-1.2,0.6-1.6
			c0.4-0.4,0.9-0.7,1.6-0.7c0.6,0,1.2,0.2,1.6,0.7c0.4,0.4,0.6,1,0.6,1.6C235.2,25.7,235,26.3,234.6,26.7z M232,26.3
			c0.3,0.3,0.6,0.5,1.1,0.5c0.4,0,0.8-0.2,1.1-0.5s0.4-0.7,0.4-1.2c0-0.5-0.1-0.9-0.4-1.2s-0.6-0.5-1.1-0.5c-0.4,0-0.8,0.2-1.1,0.5
			c-0.3,0.3-0.4,0.7-0.4,1.2C231.6,25.5,231.7,25.9,232,26.3z"/>
		<path class="st1" d="M239.9,27.2h-0.7v-2.8c0-0.4-0.1-0.6-0.3-0.8c-0.2-0.2-0.4-0.2-0.7-0.2c-0.3,0-0.5,0.1-0.7,0.2
			c-0.2,0.1-0.4,0.3-0.6,0.5v3.2h-0.7v-4.3h0.7v0.6c0.2-0.2,0.4-0.4,0.7-0.5c0.3-0.1,0.6-0.2,0.9-0.2c0.9,0,1.4,0.5,1.4,1.4V27.2z"
			/>
		<path class="st1" d="M241.5,22.3c-0.1,0-0.2,0-0.3-0.1c-0.1-0.1-0.1-0.2-0.1-0.3s0-0.2,0.1-0.3c0.1-0.1,0.2-0.1,0.3-0.1
			c0.1,0,0.2,0,0.3,0.1s0.1,0.2,0.1,0.3s0,0.2-0.1,0.3S241.7,22.3,241.5,22.3z M241.9,27.2h-0.7v-4.3h0.7V27.2z"/>
		<path class="st1" d="M246.6,27.2H246v-0.5c-0.4,0.4-0.8,0.6-1.4,0.6c-0.4,0-0.8-0.1-1.1-0.4s-0.5-0.6-0.5-1.1
			c0-0.5,0.2-0.8,0.5-1.1s0.7-0.4,1.1-0.4c0.6,0,1.1,0.2,1.4,0.6v-0.8c0-0.3-0.1-0.5-0.3-0.7c-0.2-0.2-0.5-0.2-0.8-0.2
			c-0.5,0-1,0.2-1.3,0.6l-0.3-0.5c0.5-0.5,1-0.7,1.7-0.7c0.5,0,0.9,0.1,1.2,0.4c0.3,0.2,0.5,0.6,0.5,1.1V27.2z M244.8,26.9
			c0.5,0,0.9-0.2,1.2-0.5v-0.8c-0.3-0.4-0.7-0.5-1.2-0.5c-0.3,0-0.6,0.1-0.8,0.3c-0.2,0.2-0.3,0.4-0.3,0.7c0,0.3,0.1,0.5,0.3,0.7
			C244.2,26.8,244.5,26.9,244.8,26.9z"/>
	</g>
	<g>
		<path class="st1" d="M209.6,73.7h-0.9l-0.5-1.3h-3l-0.5,1.3h-0.9l2.4-6h0.9L209.6,73.7z M207.9,71.7l-1.3-3.2l-1.3,3.2H207.9z"/>
		<path class="st1" d="M211,73.7h-0.7v-6h0.7V73.7z"/>
		<path class="st1" d="M213,73.7h-0.7v-6h0.7V70c0.4-0.5,0.9-0.8,1.5-0.8c0.6,0,1,0.2,1.4,0.6s0.5,1,0.5,1.7c0,0.7-0.2,1.2-0.5,1.7
			c-0.4,0.4-0.8,0.6-1.4,0.6c-0.6,0-1.1-0.3-1.5-0.8V73.7z M213,72.5c0.1,0.2,0.3,0.4,0.5,0.5s0.5,0.2,0.8,0.2c0.4,0,0.8-0.2,1-0.5
			c0.3-0.3,0.4-0.7,0.4-1.2s-0.1-0.9-0.4-1.2c-0.3-0.3-0.6-0.5-1-0.5c-0.3,0-0.5,0.1-0.8,0.2c-0.2,0.1-0.4,0.3-0.5,0.5V72.5z"/>
		<path class="st1" d="M220.9,73.7h-0.7v-0.5c-0.4,0.4-0.8,0.6-1.4,0.6c-0.4,0-0.8-0.1-1.1-0.4c-0.3-0.3-0.5-0.6-0.5-1.1
			c0-0.5,0.2-0.8,0.5-1.1s0.7-0.4,1.1-0.4c0.6,0,1.1,0.2,1.4,0.6v-0.8c0-0.3-0.1-0.5-0.3-0.7s-0.5-0.2-0.8-0.2c-0.5,0-1,0.2-1.3,0.6
			l-0.3-0.5c0.5-0.5,1-0.7,1.7-0.7c0.5,0,0.9,0.1,1.2,0.4c0.3,0.2,0.5,0.6,0.5,1.1V73.7z M219,73.3c0.5,0,0.9-0.2,1.2-0.5V72
			c-0.3-0.4-0.7-0.5-1.2-0.5c-0.3,0-0.6,0.1-0.8,0.3c-0.2,0.2-0.3,0.4-0.3,0.7c0,0.3,0.1,0.5,0.3,0.7
			C218.5,73.2,218.7,73.3,219,73.3z"/>
		<path class="st1" d="M225.9,73.7h-0.7v-2.8c0-0.4-0.1-0.6-0.3-0.8c-0.2-0.2-0.4-0.2-0.7-0.2c-0.3,0-0.5,0.1-0.7,0.2
			c-0.2,0.1-0.4,0.3-0.6,0.5v3.2h-0.7v-4.3h0.7V70c0.2-0.2,0.4-0.4,0.7-0.5c0.3-0.1,0.6-0.2,0.9-0.2c0.9,0,1.4,0.5,1.4,1.4V73.7z"/>
		<path class="st1" d="M227.5,68.7c-0.1,0-0.2,0-0.3-0.1c-0.1-0.1-0.1-0.2-0.1-0.3s0-0.2,0.1-0.3c0.1-0.1,0.2-0.1,0.3-0.1
			c0.1,0,0.2,0,0.3,0.1s0.1,0.2,0.1,0.3s0,0.2-0.1,0.3S227.7,68.7,227.5,68.7z M227.9,73.7h-0.7v-4.3h0.7V73.7z"/>
		<path class="st1" d="M232.6,73.7H232v-0.5c-0.4,0.4-0.8,0.6-1.4,0.6c-0.4,0-0.8-0.1-1.1-0.4s-0.5-0.6-0.5-1.1
			c0-0.5,0.2-0.8,0.5-1.1s0.7-0.4,1.1-0.4c0.6,0,1.1,0.2,1.4,0.6v-0.8c0-0.3-0.1-0.5-0.3-0.7c-0.2-0.2-0.5-0.2-0.8-0.2
			c-0.5,0-1,0.2-1.3,0.6l-0.3-0.5c0.5-0.5,1-0.7,1.7-0.7c0.5,0,0.9,0.1,1.2,0.4c0.3,0.2,0.5,0.6,0.5,1.1V73.7z M230.8,73.3
			c0.5,0,0.9-0.2,1.2-0.5V72c-0.3-0.4-0.7-0.5-1.2-0.5c-0.3,0-0.6,0.1-0.8,0.3c-0.2,0.2-0.3,0.4-0.3,0.7c0,0.3,0.1,0.5,0.3,0.7
			C230.2,73.2,230.4,73.3,230.8,73.3z"/>
	</g>
	<g>
		<path class="st1" d="M206.4,109.5c-1,0-1.7-0.3-2.3-1l0.4-0.6c0.5,0.6,1.1,0.9,1.9,0.9c0.5,0,0.8-0.1,1.1-0.3
			c0.2-0.2,0.3-0.4,0.3-0.7c0-0.2-0.1-0.4-0.2-0.5c-0.1-0.1-0.3-0.3-0.5-0.3s-0.4-0.2-0.7-0.2c-0.3-0.1-0.5-0.1-0.8-0.2
			c-0.3-0.1-0.5-0.2-0.7-0.3s-0.4-0.3-0.5-0.5s-0.2-0.5-0.2-0.7c0-0.5,0.2-0.9,0.6-1.2c0.4-0.3,0.9-0.5,1.5-0.5
			c0.9,0,1.6,0.3,2.1,0.8l-0.5,0.5c-0.4-0.5-1-0.7-1.7-0.7c-0.4,0-0.7,0.1-0.9,0.3c-0.2,0.2-0.3,0.4-0.3,0.7c0,0.2,0.1,0.4,0.3,0.5
			c0.2,0.1,0.4,0.2,0.7,0.3c0.3,0.1,0.5,0.1,0.9,0.2c0.3,0.1,0.6,0.2,0.9,0.3c0.3,0.1,0.5,0.3,0.7,0.5c0.2,0.2,0.3,0.5,0.3,0.9
			c0,0.5-0.2,0.9-0.5,1.3C207.7,109.4,207.1,109.5,206.4,109.5z"/>
		<path class="st1" d="M211.6,109.5c-0.6,0-1.2-0.2-1.6-0.6c-0.4-0.4-0.6-1-0.6-1.7c0-0.6,0.2-1.2,0.6-1.6s0.9-0.7,1.5-0.7
			c0.6,0,1.2,0.2,1.5,0.7s0.6,1,0.6,1.7v0.2h-3.5c0,0.4,0.2,0.8,0.5,1.1c0.3,0.3,0.6,0.4,1.1,0.4c0.5,0,1-0.2,1.3-0.5l0.3,0.4
			C212.9,109.3,212.3,109.5,211.6,109.5z M213,107c0-0.4-0.1-0.7-0.4-1s-0.6-0.4-1.1-0.4c-0.4,0-0.8,0.1-1,0.4
			c-0.2,0.3-0.4,0.6-0.4,1H213z"/>
		<path class="st1" d="M215.4,109.4h-0.7v-4.3h0.7v0.7c0.4-0.5,0.9-0.8,1.4-0.8v0.7c-0.1,0-0.2,0-0.3,0c-0.2,0-0.4,0.1-0.7,0.2
			s-0.4,0.3-0.5,0.5V109.4z"/>
		<path class="st1" d="M218.4,109.4h-0.7v-6h0.7v2.3c0.4-0.5,0.9-0.8,1.5-0.8c0.6,0,1,0.2,1.4,0.6c0.4,0.4,0.5,1,0.5,1.7
			c0,0.7-0.2,1.2-0.5,1.7c-0.4,0.4-0.8,0.6-1.4,0.6c-0.6,0-1.1-0.3-1.5-0.8V109.4z M218.4,108.2c0.1,0.2,0.3,0.4,0.5,0.5
			c0.2,0.1,0.5,0.2,0.8,0.2c0.4,0,0.8-0.2,1-0.5c0.3-0.3,0.4-0.7,0.4-1.2s-0.1-0.9-0.4-1.2s-0.6-0.5-1-0.5c-0.3,0-0.5,0.1-0.8,0.2
			c-0.2,0.1-0.4,0.3-0.5,0.5V108.2z"/>
		<path class="st1" d="M223.2,104.5c-0.1,0-0.2,0-0.3-0.1c-0.1-0.1-0.1-0.2-0.1-0.3c0-0.1,0-0.2,0.1-0.3c0.1-0.1,0.2-0.1,0.3-0.1
			c0.1,0,0.2,0,0.3,0.1c0.1,0.1,0.1,0.2,0.1,0.3c0,0.1,0,0.2-0.1,0.3C223.4,104.4,223.3,104.5,223.2,104.5z M223.5,109.4h-0.7v-4.3
			h0.7V109.4z"/>
		<path class="st1" d="M228.3,109.4h-0.7v-0.5c-0.4,0.4-0.8,0.6-1.4,0.6c-0.4,0-0.8-0.1-1.1-0.4c-0.3-0.3-0.5-0.6-0.5-1.1
			c0-0.5,0.2-0.8,0.5-1.1c0.3-0.2,0.7-0.4,1.1-0.4c0.6,0,1.1,0.2,1.4,0.6v-0.8c0-0.3-0.1-0.5-0.3-0.7s-0.5-0.2-0.8-0.2
			c-0.5,0-1,0.2-1.3,0.6l-0.3-0.5c0.5-0.5,1-0.7,1.7-0.7c0.5,0,0.9,0.1,1.2,0.4c0.3,0.2,0.5,0.6,0.5,1.1V109.4z M226.4,109
			c0.5,0,0.9-0.2,1.2-0.5v-0.8c-0.3-0.4-0.7-0.5-1.2-0.5c-0.3,0-0.6,0.1-0.8,0.3c-0.2,0.2-0.3,0.4-0.3,0.7c0,0.3,0.1,0.5,0.3,0.7
			C225.9,109,226.1,109,226.4,109z"/>
	</g>
	<g>
		<path class="st1" d="M209,147.8H208l-2.3-2.7l-0.6,0.7v2h-0.7v-6h0.7v3.1l2.7-3.1h0.9l-2.5,2.9L209,147.8z"/>
		<path class="st1" d="M213,147.2c-0.4,0.4-0.9,0.7-1.6,0.7c-0.6,0-1.2-0.2-1.6-0.7c-0.4-0.4-0.6-1-0.6-1.6c0-0.6,0.2-1.2,0.6-1.6
			c0.4-0.4,0.9-0.7,1.6-0.7c0.6,0,1.2,0.2,1.6,0.7c0.4,0.4,0.6,1,0.6,1.6C213.5,146.2,213.3,146.8,213,147.2z M210.3,146.8
			c0.3,0.3,0.6,0.5,1.1,0.5s0.8-0.2,1.1-0.5s0.4-0.7,0.4-1.2c0-0.5-0.1-0.9-0.4-1.2s-0.6-0.5-1.1-0.5s-0.8,0.2-1.1,0.5
			c-0.3,0.3-0.4,0.7-0.4,1.2C209.9,146.1,210.1,146.4,210.3,146.8z"/>
		<path class="st1" d="M216,147.9c-0.7,0-1.3-0.2-1.8-0.7l0.4-0.5c0.2,0.2,0.4,0.3,0.6,0.4c0.3,0.1,0.5,0.2,0.8,0.2
			c0.3,0,0.6-0.1,0.8-0.2c0.2-0.1,0.3-0.3,0.3-0.5c0-0.2-0.1-0.3-0.3-0.5s-0.4-0.2-0.7-0.3c-0.3-0.1-0.5-0.1-0.8-0.2
			c-0.3-0.1-0.5-0.2-0.7-0.4c-0.2-0.2-0.3-0.4-0.3-0.7c0-0.4,0.1-0.7,0.4-0.9c0.3-0.2,0.7-0.4,1.2-0.4c0.7,0,1.2,0.2,1.6,0.6
			l-0.3,0.5c-0.3-0.4-0.7-0.5-1.3-0.5c-0.3,0-0.5,0.1-0.7,0.2s-0.3,0.3-0.3,0.5c0,0.2,0.1,0.3,0.3,0.4c0.2,0.1,0.4,0.2,0.7,0.2
			c0.3,0.1,0.5,0.1,0.8,0.2s0.5,0.2,0.7,0.4s0.3,0.4,0.3,0.8c0,0.4-0.2,0.7-0.5,0.9C217,147.7,216.6,147.9,216,147.9z"/>
		<path class="st1" d="M222.3,147.2c-0.4,0.4-0.9,0.7-1.6,0.7s-1.2-0.2-1.6-0.7c-0.4-0.4-0.6-1-0.6-1.6c0-0.6,0.2-1.2,0.6-1.6
			c0.4-0.4,0.9-0.7,1.6-0.7s1.2,0.2,1.6,0.7c0.4,0.4,0.6,1,0.6,1.6C222.9,146.2,222.7,146.8,222.3,147.2z M219.7,146.8
			c0.3,0.3,0.6,0.5,1.1,0.5c0.4,0,0.8-0.2,1.1-0.5s0.4-0.7,0.4-1.2c0-0.5-0.1-0.9-0.4-1.2s-0.6-0.5-1.1-0.5c-0.4,0-0.8,0.2-1.1,0.5
			s-0.4,0.7-0.4,1.2C219.3,146.1,219.4,146.4,219.7,146.8z"/>
		<path class="st1" d="M225.9,147.8h-0.7l-1.8-4.3h0.7l1.4,3.6l1.4-3.6h0.7L225.9,147.8z"/>
		<path class="st1" d="M231.8,147.2c-0.4,0.4-0.9,0.7-1.6,0.7c-0.6,0-1.2-0.2-1.6-0.7c-0.4-0.4-0.6-1-0.6-1.6c0-0.6,0.2-1.2,0.6-1.6
			c0.4-0.4,0.9-0.7,1.6-0.7c0.6,0,1.2,0.2,1.6,0.7c0.4,0.4,0.6,1,0.6,1.6C232.4,146.2,232.2,146.8,231.8,147.2z M229.2,146.8
			c0.3,0.3,0.6,0.5,1.1,0.5s0.8-0.2,1.1-0.5s0.4-0.7,0.4-1.2c0-0.5-0.1-0.9-0.4-1.2s-0.6-0.5-1.1-0.5s-0.8,0.2-1.1,0.5
			c-0.3,0.3-0.4,0.7-0.4,1.2C228.8,146.1,229,146.4,229.2,146.8z"/>
	</g>
	<g>
		<path class="st1" d="M46.1,39.4h-3.9v-6h3.9V34h-3.2V36H46v0.7h-3.1v2.1h3.2V39.4z"/>
		<path class="st1" d="M47.9,39.4h-0.7V35h0.7v0.7c0.4-0.5,0.9-0.8,1.4-0.8v0.7c-0.1,0-0.2,0-0.3,0c-0.2,0-0.4,0.1-0.7,0.2
			c-0.2,0.1-0.4,0.3-0.5,0.5V39.4z"/>
		<path class="st1" d="M50.5,34.4c-0.1,0-0.2,0-0.3-0.1s-0.1-0.2-0.1-0.3s0-0.2,0.1-0.3s0.2-0.1,0.3-0.1c0.1,0,0.2,0,0.3,0.1
			S51,33.8,51,34s0,0.2-0.1,0.3S50.6,34.4,50.5,34.4z M50.9,39.4h-0.7V35h0.7V39.4z"/>
		<path class="st1" d="M53.3,39.5c-0.3,0-0.6-0.1-0.7-0.3s-0.2-0.4-0.2-0.8v-2.8h-0.7V35h0.7v-1.2H53V35h0.9v0.6H53v2.7
			c0,0.2,0,0.3,0.1,0.4c0.1,0.1,0.2,0.2,0.3,0.2c0.2,0,0.4-0.1,0.5-0.2l0.2,0.5C53.9,39.4,53.7,39.5,53.3,39.5z"/>
		<path class="st1" d="M55.5,39.4h-0.7V35h0.7v0.7c0.4-0.5,0.9-0.8,1.4-0.8v0.7c-0.1,0-0.2,0-0.3,0c-0.2,0-0.4,0.1-0.7,0.2
			c-0.2,0.1-0.4,0.3-0.5,0.5V39.4z"/>
		<path class="st1" d="M59.8,39.5c-0.6,0-1.2-0.2-1.6-0.6c-0.4-0.4-0.6-1-0.6-1.7c0-0.6,0.2-1.2,0.6-1.6c0.4-0.4,0.9-0.7,1.5-0.7
			c0.6,0,1.2,0.2,1.5,0.7c0.4,0.4,0.6,1,0.6,1.7v0.2h-3.5c0,0.4,0.2,0.8,0.5,1.1c0.3,0.3,0.6,0.4,1.1,0.4c0.5,0,1-0.2,1.3-0.5
			l0.3,0.4C61.1,39.3,60.5,39.5,59.8,39.5z M61.1,36.9c0-0.4-0.1-0.7-0.4-1c-0.2-0.3-0.6-0.4-1.1-0.4c-0.4,0-0.8,0.1-1,0.4
			c-0.2,0.3-0.4,0.6-0.4,1H61.1z"/>
		<path class="st1" d="M66.3,39.4h-0.7v-0.5c-0.4,0.4-0.8,0.6-1.4,0.6c-0.4,0-0.8-0.1-1.1-0.4s-0.5-0.6-0.5-1.1
			c0-0.5,0.2-0.8,0.5-1.1s0.7-0.4,1.1-0.4c0.6,0,1.1,0.2,1.4,0.6v-0.8c0-0.3-0.1-0.5-0.3-0.7c-0.2-0.2-0.5-0.2-0.8-0.2
			c-0.5,0-1,0.2-1.3,0.6l-0.3-0.5c0.5-0.5,1-0.7,1.7-0.7c0.5,0,0.9,0.1,1.2,0.4c0.3,0.2,0.5,0.6,0.5,1.1V39.4z M64.4,39
			c0.5,0,0.9-0.2,1.2-0.5v-0.8c-0.3-0.4-0.7-0.5-1.2-0.5c-0.3,0-0.6,0.1-0.8,0.3c-0.2,0.2-0.3,0.4-0.3,0.7c0,0.3,0.1,0.5,0.3,0.7
			C63.8,38.9,64.1,39,64.4,39z"/>
	</g>
	<g>
		<path class="st1" d="M129.9,9.8h-0.7v-6h0.7V9.8z"/>
		<path class="st1" d="M131.9,9.8h-0.7V5.4h0.7v0.7c0.4-0.5,0.9-0.8,1.4-0.8V6c-0.1,0-0.2,0-0.3,0c-0.2,0-0.4,0.1-0.7,0.2
			c-0.2,0.1-0.4,0.3-0.5,0.5V9.8z"/>
		<path class="st1" d="M137.6,9.8h-0.7V9.3c-0.4,0.4-0.8,0.6-1.4,0.6c-0.4,0-0.8-0.1-1.1-0.4c-0.3-0.3-0.5-0.6-0.5-1.1
			c0-0.5,0.2-0.8,0.5-1.1c0.3-0.2,0.7-0.4,1.1-0.4c0.6,0,1.1,0.2,1.4,0.6V6.8c0-0.3-0.1-0.5-0.3-0.7s-0.5-0.2-0.8-0.2
			c-0.5,0-1,0.2-1.3,0.6L134.2,6c0.5-0.5,1-0.7,1.7-0.7c0.5,0,0.9,0.1,1.2,0.4c0.3,0.2,0.5,0.6,0.5,1.1V9.8z M135.7,9.4
			c0.5,0,0.9-0.2,1.2-0.5V8c-0.3-0.4-0.7-0.5-1.2-0.5c-0.3,0-0.6,0.1-0.8,0.3c-0.2,0.2-0.3,0.4-0.3,0.7c0,0.3,0.1,0.5,0.3,0.7
			C135.2,9.3,135.4,9.4,135.7,9.4z"/>
		<path class="st1" d="M140.6,9.9c-0.6,0-1-0.2-1.4-0.6c-0.4-0.4-0.5-1-0.5-1.7c0-0.7,0.2-1.2,0.5-1.7c0.4-0.4,0.8-0.6,1.4-0.6
			c0.3,0,0.6,0.1,0.8,0.2c0.3,0.1,0.5,0.3,0.6,0.5V5.4h0.7v6h-0.7V9.1C141.7,9.6,141.2,9.9,140.6,9.9z M140.8,9.3
			c0.3,0,0.5-0.1,0.8-0.2c0.2-0.1,0.4-0.3,0.5-0.5v-2c-0.1-0.2-0.3-0.4-0.5-0.5c-0.2-0.1-0.5-0.2-0.8-0.2c-0.4,0-0.8,0.2-1,0.5
			c-0.2,0.3-0.4,0.7-0.4,1.2s0.1,0.9,0.4,1.2C140,9.1,140.4,9.3,140.8,9.3z"/>
	</g>
	<g>
		<path class="st1" d="M50.2,173.9c-1,0-1.7-0.3-2.3-1l0.4-0.6c0.5,0.6,1.1,0.9,1.9,0.9c0.5,0,0.8-0.1,1.1-0.3s0.3-0.4,0.3-0.7
			c0-0.2-0.1-0.4-0.2-0.5c-0.1-0.1-0.3-0.3-0.5-0.3s-0.4-0.2-0.7-0.2s-0.5-0.1-0.8-0.2c-0.3-0.1-0.5-0.2-0.7-0.3
			c-0.2-0.1-0.4-0.3-0.5-0.5c-0.1-0.2-0.2-0.5-0.2-0.7c0-0.5,0.2-0.9,0.6-1.2c0.4-0.3,0.9-0.5,1.5-0.5c0.9,0,1.6,0.3,2.1,0.8
			l-0.5,0.5c-0.4-0.5-1-0.7-1.7-0.7c-0.4,0-0.7,0.1-0.9,0.3s-0.3,0.4-0.3,0.7c0,0.2,0.1,0.4,0.3,0.5c0.2,0.1,0.4,0.2,0.7,0.3
			c0.3,0.1,0.5,0.1,0.9,0.2c0.3,0.1,0.6,0.2,0.9,0.3s0.5,0.3,0.7,0.5c0.2,0.2,0.3,0.5,0.3,0.9c0,0.5-0.2,0.9-0.5,1.3
			C51.5,173.7,51,173.9,50.2,173.9z"/>
		<path class="st1" d="M53.2,175.5l0.1-0.6c0.1,0,0.2,0.1,0.4,0.1c0.2,0,0.3,0,0.4-0.1c0.1-0.1,0.2-0.2,0.3-0.4l0.3-0.7l-1.8-4.4
			h0.7L55,173l1.4-3.6h0.7l-2.2,5.2c-0.2,0.6-0.7,0.9-1.3,0.9C53.6,175.5,53.4,175.5,53.2,175.5z"/>
		<path class="st1" d="M58.6,173.8h-0.7v-4.3h0.7v0.7c0.4-0.5,0.9-0.8,1.4-0.8v0.7c-0.1,0-0.2,0-0.3,0c-0.2,0-0.4,0.1-0.7,0.2
			c-0.2,0.1-0.4,0.3-0.5,0.5V173.8z"/>
		<path class="st1" d="M61.2,168.8c-0.1,0-0.2,0-0.3-0.1c-0.1-0.1-0.1-0.2-0.1-0.3s0-0.2,0.1-0.3c0.1-0.1,0.2-0.1,0.3-0.1
			c0.1,0,0.2,0,0.3,0.1c0.1,0.1,0.1,0.2,0.1,0.3s0,0.2-0.1,0.3C61.4,168.8,61.3,168.8,61.2,168.8z M61.5,173.8h-0.7v-4.3h0.7V173.8z
			"/>
		<path class="st1" d="M66.3,173.8h-0.7v-0.5c-0.4,0.4-0.8,0.6-1.4,0.6c-0.4,0-0.8-0.1-1.1-0.4c-0.3-0.3-0.5-0.6-0.5-1.1
			c0-0.5,0.2-0.8,0.5-1.1c0.3-0.2,0.7-0.4,1.1-0.4c0.6,0,1.1,0.2,1.4,0.6v-0.8c0-0.3-0.1-0.5-0.3-0.7s-0.5-0.2-0.8-0.2
			c-0.5,0-1,0.2-1.3,0.6l-0.3-0.5c0.5-0.5,1-0.7,1.7-0.7c0.5,0,0.9,0.1,1.2,0.4c0.3,0.2,0.5,0.6,0.5,1.1V173.8z M64.4,173.4
			c0.5,0,0.9-0.2,1.2-0.5V172c-0.3-0.4-0.7-0.5-1.2-0.5c-0.3,0-0.6,0.1-0.8,0.3c-0.2,0.2-0.3,0.4-0.3,0.7c0,0.3,0.1,0.5,0.3,0.7
			C63.8,173.3,64.1,173.4,64.4,173.4z"/>
	</g>
	<g>
		<path class="st1" d="M26,73.2h-0.9l-0.5-1.3h-3l-0.5,1.3h-0.9l2.4-6h0.9L26,73.2z M24.4,71.2L23.1,68l-1.3,3.2H24.4z"/>
		<path class="st1" d="M27.6,73.2h-0.7v-3.8h-0.7v-0.6h0.7v-0.3c0-0.4,0.1-0.8,0.3-1c0.2-0.2,0.5-0.4,0.9-0.4c0.4,0,0.7,0.1,0.9,0.3
			l-0.3,0.4c-0.2-0.1-0.3-0.2-0.5-0.2c-0.2,0-0.4,0.1-0.5,0.2c-0.1,0.1-0.2,0.4-0.2,0.6v0.3h0.9v0.6h-0.9V73.2z"/>
		<path class="st1" d="M31,75c-0.4,0-0.7,0-1-0.1s-0.5-0.3-0.8-0.5l0.3-0.5c0.3,0.4,0.8,0.6,1.4,0.6c0.4,0,0.7-0.1,1-0.3
			c0.3-0.2,0.4-0.5,0.4-1v-0.6c-0.2,0.2-0.4,0.4-0.6,0.6c-0.3,0.1-0.5,0.2-0.8,0.2c-0.6,0-1-0.2-1.4-0.6S29,71.7,29,71
			c0-0.7,0.2-1.2,0.5-1.6c0.4-0.4,0.8-0.6,1.4-0.6c0.6,0,1.1,0.3,1.5,0.8v-0.7h0.7v4.2c0,0.7-0.2,1.1-0.6,1.4
			C32.1,74.9,31.6,75,31,75z M31.1,72.7c0.3,0,0.5-0.1,0.8-0.2c0.2-0.1,0.4-0.3,0.5-0.5v-1.9c-0.1-0.2-0.3-0.4-0.5-0.5
			c-0.2-0.1-0.5-0.2-0.8-0.2c-0.4,0-0.8,0.2-1,0.5c-0.2,0.3-0.4,0.7-0.4,1.2c0,0.5,0.1,0.9,0.4,1.2C30.3,72.5,30.7,72.7,31.1,72.7z"
			/>
		<path class="st1" d="M38,73.2h-0.7v-2.9c0-0.4-0.1-0.6-0.3-0.8c-0.2-0.2-0.4-0.2-0.7-0.2c-0.2,0-0.5,0.1-0.7,0.2s-0.4,0.3-0.6,0.5
			v3.2h-0.7v-6h0.7v2.3c0.2-0.2,0.4-0.4,0.7-0.5c0.3-0.1,0.6-0.2,0.9-0.2c0.9,0,1.4,0.5,1.4,1.4V73.2z"/>
		<path class="st1" d="M42.8,73.2h-0.7v-0.5c-0.4,0.4-0.8,0.6-1.4,0.6c-0.4,0-0.8-0.1-1.1-0.4c-0.3-0.3-0.5-0.6-0.5-1.1
			c0-0.5,0.2-0.8,0.5-1.1c0.3-0.2,0.7-0.4,1.1-0.4c0.6,0,1.1,0.2,1.4,0.6v-0.8c0-0.3-0.1-0.5-0.3-0.7c-0.2-0.2-0.5-0.2-0.8-0.2
			c-0.5,0-1,0.2-1.3,0.6l-0.3-0.5c0.5-0.5,1-0.7,1.7-0.7c0.5,0,0.9,0.1,1.2,0.4c0.3,0.2,0.5,0.6,0.5,1.1V73.2z M40.9,72.9
			c0.5,0,0.9-0.2,1.2-0.5v-0.8c-0.3-0.4-0.7-0.5-1.2-0.5c-0.3,0-0.6,0.1-0.8,0.3s-0.3,0.4-0.3,0.7c0,0.3,0.1,0.5,0.3,0.7
			S40.6,72.9,40.9,72.9z"/>
		<path class="st1" d="M47.7,73.2h-0.7v-2.8c0-0.4-0.1-0.6-0.3-0.8c-0.2-0.2-0.4-0.2-0.7-0.2c-0.3,0-0.5,0.1-0.7,0.2
			c-0.2,0.1-0.4,0.3-0.6,0.5v3.2h-0.7v-4.3h0.7v0.6c0.2-0.2,0.4-0.4,0.7-0.5c0.3-0.1,0.6-0.2,0.9-0.2c0.9,0,1.4,0.5,1.4,1.4V73.2z"
			/>
		<path class="st1" d="M49.4,68.3c-0.1,0-0.2,0-0.3-0.1S49,67.9,49,67.8s0-0.2,0.1-0.3s0.2-0.1,0.3-0.1c0.1,0,0.2,0,0.3,0.1
			s0.1,0.2,0.1,0.3s0,0.2-0.1,0.3S49.5,68.3,49.4,68.3z M49.8,73.2h-0.7v-4.3h0.7V73.2z"/>
		<path class="st1" d="M52.5,73.3c-0.7,0-1.3-0.2-1.8-0.7l0.4-0.5c0.1,0.2,0.4,0.3,0.6,0.4s0.5,0.2,0.8,0.2c0.3,0,0.6-0.1,0.8-0.2
			c0.2-0.1,0.3-0.3,0.3-0.5c0-0.2-0.1-0.3-0.3-0.5s-0.4-0.2-0.7-0.3c-0.3-0.1-0.5-0.1-0.8-0.2c-0.3-0.1-0.5-0.2-0.7-0.4
			c-0.2-0.2-0.3-0.4-0.3-0.7c0-0.4,0.1-0.7,0.4-0.9c0.3-0.2,0.7-0.4,1.2-0.4c0.7,0,1.2,0.2,1.6,0.6l-0.3,0.5
			c-0.3-0.4-0.7-0.5-1.3-0.5c-0.3,0-0.5,0.1-0.7,0.2s-0.3,0.3-0.3,0.5c0,0.2,0.1,0.3,0.3,0.4c0.2,0.1,0.4,0.2,0.7,0.2
			c0.3,0.1,0.5,0.1,0.8,0.2c0.3,0.1,0.5,0.2,0.7,0.4c0.2,0.2,0.3,0.4,0.3,0.8c0,0.4-0.2,0.7-0.4,0.9C53.4,73.2,53,73.3,52.5,73.3z"
			/>
		<path class="st1" d="M56.4,73.3c-0.3,0-0.6-0.1-0.7-0.3s-0.2-0.4-0.2-0.8v-2.8h-0.7v-0.6h0.7v-1.2h0.7v1.2H57v0.6h-0.9v2.7
			c0,0.2,0,0.3,0.1,0.4c0.1,0.1,0.2,0.2,0.3,0.2c0.2,0,0.4-0.1,0.5-0.2l0.2,0.5C57,73.3,56.7,73.3,56.4,73.3z"/>
		<path class="st1" d="M61.3,73.2h-0.7v-0.5c-0.4,0.4-0.8,0.6-1.4,0.6c-0.4,0-0.8-0.1-1.1-0.4c-0.3-0.3-0.5-0.6-0.5-1.1
			c0-0.5,0.2-0.8,0.5-1.1c0.3-0.2,0.7-0.4,1.1-0.4c0.6,0,1.1,0.2,1.4,0.6v-0.8c0-0.3-0.1-0.5-0.3-0.7s-0.5-0.2-0.8-0.2
			c-0.5,0-1,0.2-1.3,0.6l-0.3-0.5c0.5-0.5,1-0.7,1.7-0.7c0.5,0,0.9,0.1,1.2,0.4c0.3,0.2,0.5,0.6,0.5,1.1V73.2z M59.5,72.9
			c0.5,0,0.9-0.2,1.2-0.5v-0.8C60.4,71.1,60,71,59.5,71c-0.3,0-0.6,0.1-0.8,0.3s-0.3,0.4-0.3,0.7c0,0.3,0.1,0.5,0.3,0.7
			S59.1,72.9,59.5,72.9z"/>
		<path class="st1" d="M66.3,73.2h-0.7v-2.8c0-0.4-0.1-0.6-0.3-0.8c-0.2-0.2-0.4-0.2-0.7-0.2c-0.3,0-0.5,0.1-0.7,0.2
			s-0.4,0.3-0.6,0.5v3.2h-0.7v-4.3h0.7v0.6c0.2-0.2,0.4-0.4,0.7-0.5c0.3-0.1,0.6-0.2,0.9-0.2c0.9,0,1.4,0.5,1.4,1.4V73.2z"/>
	</g>
	<g>
		<path class="st1" d="M53.6,107.4h-0.7v-6h0.7V107.4z"/>
		<path class="st1" d="M55.6,107.4H55v-4.3h0.7v0.7c0.4-0.5,0.9-0.8,1.4-0.8v0.7c-0.1,0-0.2,0-0.3,0c-0.2,0-0.4,0.1-0.7,0.2
			c-0.2,0.1-0.4,0.3-0.5,0.5V107.4z"/>
		<path class="st1" d="M61.3,107.4h-0.7v-0.5c-0.4,0.4-0.8,0.6-1.4,0.6c-0.4,0-0.8-0.1-1.1-0.4s-0.5-0.6-0.5-1.1
			c0-0.5,0.2-0.8,0.5-1.1s0.7-0.4,1.1-0.4c0.6,0,1.1,0.2,1.4,0.6v-0.8c0-0.3-0.1-0.5-0.3-0.7c-0.2-0.2-0.5-0.2-0.8-0.2
			c-0.5,0-1,0.2-1.3,0.6l-0.3-0.5c0.5-0.5,1-0.7,1.7-0.7c0.5,0,0.9,0.1,1.2,0.4c0.3,0.2,0.5,0.6,0.5,1.1V107.4z M59.5,107
			c0.5,0,0.9-0.2,1.2-0.5v-0.8c-0.3-0.4-0.7-0.5-1.2-0.5c-0.3,0-0.6,0.1-0.8,0.3c-0.2,0.2-0.3,0.4-0.3,0.7c0,0.3,0.1,0.5,0.3,0.7
			C58.9,107,59.1,107,59.5,107z"/>
		<path class="st1" d="M66.3,107.4h-0.7v-2.8c0-0.4-0.1-0.6-0.3-0.8c-0.2-0.2-0.4-0.2-0.7-0.2c-0.3,0-0.5,0.1-0.7,0.2
			c-0.2,0.1-0.4,0.3-0.6,0.5v3.2h-0.7v-4.3h0.7v0.6c0.2-0.2,0.4-0.4,0.7-0.5c0.3-0.1,0.6-0.2,0.9-0.2c0.9,0,1.4,0.5,1.4,1.4V107.4z"
			/>
	</g>
	<g>
		<path class="st1" d="M35.4,140.8h-0.7v-6H37c0.6,0,1,0.2,1.4,0.5c0.3,0.3,0.5,0.8,0.5,1.3s-0.2,0.9-0.5,1.3s-0.8,0.5-1.4,0.5h-1.7
			V140.8z M37,137.7c0.4,0,0.6-0.1,0.9-0.3c0.2-0.2,0.3-0.5,0.3-0.8s-0.1-0.6-0.3-0.8c-0.2-0.2-0.5-0.3-0.9-0.3h-1.6v2.3H37z"/>
		<path class="st1" d="M43.1,140.8h-0.7v-0.5c-0.4,0.4-0.8,0.6-1.4,0.6c-0.4,0-0.8-0.1-1.1-0.4c-0.3-0.3-0.5-0.6-0.5-1.1
			c0-0.5,0.2-0.8,0.5-1.1c0.3-0.2,0.7-0.4,1.1-0.4c0.6,0,1.1,0.2,1.4,0.6v-0.8c0-0.3-0.1-0.5-0.3-0.7c-0.2-0.2-0.5-0.2-0.8-0.2
			c-0.5,0-1,0.2-1.3,0.6l-0.3-0.5c0.5-0.5,1-0.7,1.7-0.7c0.5,0,0.9,0.1,1.2,0.4s0.5,0.6,0.5,1.1V140.8z M41.2,140.4
			c0.5,0,0.9-0.2,1.2-0.5V139c-0.3-0.4-0.7-0.5-1.2-0.5c-0.3,0-0.6,0.1-0.8,0.3c-0.2,0.2-0.3,0.4-0.3,0.7c0,0.3,0.1,0.5,0.3,0.7
			C40.7,140.3,40.9,140.4,41.2,140.4z"/>
		<path class="st1" d="M48.3,140.8h-0.9l-1.6-2l-0.7,0.7v1.2h-0.7v-6h0.7v4l2.3-2.3h0.9l-1.9,2L48.3,140.8z"/>
		<path class="st1" d="M49.4,135.8c-0.1,0-0.2,0-0.3-0.1c-0.1-0.1-0.1-0.2-0.1-0.3s0-0.2,0.1-0.3c0.1-0.1,0.2-0.1,0.3-0.1
			c0.1,0,0.2,0,0.3,0.1c0.1,0.1,0.1,0.2,0.1,0.3s0,0.2-0.1,0.3C49.6,135.7,49.5,135.8,49.4,135.8z M49.8,140.8h-0.7v-4.3h0.7V140.8z
			"/>
		<path class="st1" d="M52.5,140.9c-0.7,0-1.3-0.2-1.8-0.7l0.4-0.5c0.1,0.2,0.4,0.3,0.6,0.4s0.5,0.2,0.8,0.2c0.3,0,0.6-0.1,0.8-0.2
			c0.2-0.1,0.3-0.3,0.3-0.5c0-0.2-0.1-0.3-0.3-0.5c-0.2-0.1-0.4-0.2-0.7-0.3s-0.5-0.1-0.8-0.2c-0.3-0.1-0.5-0.2-0.7-0.4
			c-0.2-0.2-0.3-0.4-0.3-0.7c0-0.4,0.1-0.7,0.4-0.9s0.7-0.4,1.2-0.4c0.7,0,1.2,0.2,1.6,0.6l-0.3,0.5c-0.3-0.4-0.7-0.5-1.3-0.5
			c-0.3,0-0.5,0.1-0.7,0.2s-0.3,0.3-0.3,0.5c0,0.2,0.1,0.3,0.3,0.4c0.2,0.1,0.4,0.2,0.7,0.2c0.3,0.1,0.5,0.1,0.8,0.2
			c0.3,0.1,0.5,0.2,0.7,0.4c0.2,0.2,0.3,0.4,0.3,0.8c0,0.4-0.2,0.7-0.4,0.9C53.4,140.7,53,140.9,52.5,140.9z"/>
		<path class="st1" d="M56.4,140.9c-0.3,0-0.6-0.1-0.7-0.3s-0.2-0.4-0.2-0.8V137h-0.7v-0.6h0.7v-1.2h0.7v1.2H57v0.6h-0.9v2.7
			c0,0.2,0,0.3,0.1,0.4c0.1,0.1,0.2,0.2,0.3,0.2c0.2,0,0.4-0.1,0.5-0.2l0.2,0.5C57,140.8,56.7,140.9,56.4,140.9z"/>
		<path class="st1" d="M61.3,140.8h-0.7v-0.5c-0.4,0.4-0.8,0.6-1.4,0.6c-0.4,0-0.8-0.1-1.1-0.4c-0.3-0.3-0.5-0.6-0.5-1.1
			c0-0.5,0.2-0.8,0.5-1.1c0.3-0.2,0.7-0.4,1.1-0.4c0.6,0,1.1,0.2,1.4,0.6v-0.8c0-0.3-0.1-0.5-0.3-0.7s-0.5-0.2-0.8-0.2
			c-0.5,0-1,0.2-1.3,0.6l-0.3-0.5c0.5-0.5,1-0.7,1.7-0.7c0.5,0,0.9,0.1,1.2,0.4c0.3,0.2,0.5,0.6,0.5,1.1V140.8z M59.5,140.4
			c0.5,0,0.9-0.2,1.2-0.5V139c-0.3-0.4-0.7-0.5-1.2-0.5c-0.3,0-0.6,0.1-0.8,0.3s-0.3,0.4-0.3,0.7c0,0.3,0.1,0.5,0.3,0.7
			C58.9,140.3,59.1,140.4,59.5,140.4z"/>
		<path class="st1" d="M66.3,140.8h-0.7v-2.8c0-0.4-0.1-0.6-0.3-0.8c-0.2-0.2-0.4-0.2-0.7-0.2c-0.3,0-0.5,0.1-0.7,0.2
			c-0.2,0.1-0.4,0.3-0.6,0.5v3.2h-0.7v-4.3h0.7v0.6c0.2-0.2,0.4-0.4,0.7-0.5c0.3-0.1,0.6-0.2,0.9-0.2c0.9,0,1.4,0.5,1.4,1.4V140.8z"
			/>
	</g>
	<g>
		<path class="st0" d="M207.3,40.1c-0.6,0-1.1-0.1-1.6-0.3c-0.5-0.2-0.8-0.5-1.1-0.9c-0.3-0.4-0.5-0.9-0.6-1.4
			c-0.1-0.5-0.2-1.1-0.2-1.7c0-1.3,0.3-2.3,1-3.1c0.6-0.8,1.5-1.2,2.7-1.2c1,0,1.8,0.3,2.4,0.9l-0.7,1.1c-0.5-0.5-1-0.7-1.7-0.7
			c-0.7,0-1.2,0.3-1.6,0.8c-0.4,0.5-0.6,1.2-0.6,2c0,0.1,0,0.2,0,0.2c0.2-0.3,0.5-0.6,0.9-0.8s0.8-0.3,1.3-0.3c0.8,0,1.5,0.2,2,0.7
			c0.5,0.5,0.8,1.1,0.8,2c0,0.8-0.3,1.5-0.8,2C209,39.9,208.2,40.1,207.3,40.1z M207.2,38.8c0.5,0,0.9-0.1,1.2-0.4
			c0.3-0.3,0.4-0.6,0.4-1c0-0.5-0.2-0.9-0.5-1.1s-0.7-0.4-1.2-0.4c-0.3,0-0.7,0.1-1,0.3c-0.3,0.2-0.6,0.4-0.8,0.7
			c0,0.5,0.2,1,0.5,1.4C206.2,38.6,206.7,38.8,207.2,38.8z"/>
		<path class="st0" d="M216.7,40h-1.5v-1.9h-4v-1.2l3.4-5.3h2v5.2h1.1v1.3h-1.1V40z M215.2,36.8V33l-2.5,3.8H215.2z"/>
		<path class="st0" d="M223.5,39.8c-0.4,0.2-0.9,0.4-1.5,0.4s-1.1-0.1-1.5-0.4s-0.8-0.6-1-1s-0.5-0.9-0.6-1.4
			c-0.1-0.5-0.2-1-0.2-1.6s0.1-1.1,0.2-1.6c0.1-0.5,0.3-1,0.6-1.4c0.3-0.4,0.6-0.7,1-1s0.9-0.4,1.5-0.4s1.1,0.1,1.5,0.4
			s0.8,0.6,1.1,1c0.3,0.4,0.5,0.9,0.6,1.4s0.2,1,0.2,1.6s-0.1,1.1-0.2,1.6s-0.3,1-0.6,1.4C224.3,39.2,223.9,39.5,223.5,39.8z
			 M220.6,38c0.3,0.6,0.8,0.9,1.4,0.9c0.6,0,1.1-0.3,1.4-0.9c0.3-0.6,0.5-1.3,0.5-2.2c0-0.6-0.1-1.1-0.2-1.5
			c-0.1-0.4-0.3-0.8-0.6-1.1c-0.3-0.3-0.6-0.4-1.1-0.4s-0.8,0.1-1.1,0.4c-0.3,0.3-0.5,0.6-0.6,1.1c-0.1,0.4-0.2,0.9-0.2,1.5
			C220.1,36.7,220.3,37.4,220.6,38z"/>
	</g>
	<g>
		<path class="st0" d="M209.2,87.7h-1.5v-1.9h-4v-1.2l3.4-5.3h2v5.2h1.1v1.3h-1.1V87.7z M207.7,84.6v-3.9l-2.5,3.9H207.7z"/>
		<path class="st0" d="M213.1,87.3c0,0.4-0.1,0.8-0.3,1.2s-0.5,0.7-0.9,0.9l-0.6-0.5c0.2-0.1,0.4-0.3,0.6-0.5
			c0.2-0.2,0.3-0.4,0.3-0.7c-0.1,0-0.1,0-0.2,0c-0.2,0-0.4-0.1-0.5-0.2s-0.2-0.3-0.2-0.6c0-0.2,0.1-0.4,0.2-0.6
			c0.2-0.2,0.4-0.3,0.6-0.3c0.3,0,0.5,0.1,0.7,0.3C213,86.6,213.1,86.9,213.1,87.3z"/>
		<path class="st0" d="M215.9,87.7h-1.6l3.2-7h-4.3v-1.3h6v1L215.9,87.7z"/>
		<path class="st0" d="M223.4,87.9c-0.6,0-1.1-0.1-1.6-0.3c-0.5-0.2-0.8-0.5-1.1-0.9c-0.3-0.4-0.5-0.9-0.6-1.4s-0.2-1.1-0.2-1.7
			c0-1.3,0.3-2.3,1-3.1c0.6-0.8,1.5-1.2,2.7-1.2c1,0,1.8,0.3,2.4,0.9l-0.7,1.1c-0.5-0.5-1-0.7-1.7-0.7c-0.7,0-1.2,0.3-1.6,0.8
			s-0.6,1.2-0.6,1.9c0,0.1,0,0.2,0,0.2c0.2-0.3,0.5-0.6,0.9-0.8c0.4-0.2,0.8-0.4,1.3-0.4c0.8,0,1.5,0.2,2,0.7c0.5,0.5,0.8,1.1,0.8,2
			c0,0.8-0.3,1.5-0.8,2C225.1,87.6,224.3,87.9,223.4,87.9z M223.3,86.6c0.5,0,0.9-0.1,1.2-0.4c0.3-0.3,0.5-0.6,0.5-1
			c0-0.5-0.2-0.9-0.5-1.1c-0.3-0.3-0.7-0.4-1.2-0.4c-0.3,0-0.7,0.1-1,0.3c-0.3,0.2-0.6,0.4-0.8,0.7c0,0.5,0.2,1,0.5,1.4
			S222.7,86.6,223.3,86.6z"/>
		<path class="st0" d="M230.8,87.9c-1.3,0-2.4-0.4-3.1-1.3l0.8-1c0.6,0.7,1.3,1,2.2,1c0.5,0,0.9-0.1,1.2-0.4s0.5-0.6,0.5-1
			c0-0.5-0.2-0.8-0.5-1.1c-0.3-0.3-0.7-0.4-1.2-0.4c-0.7,0-1.3,0.2-1.8,0.7l-1-0.3v-4.7h5.5v1.3h-4v2.4c0.5-0.5,1.1-0.7,1.9-0.7
			c0.7,0,1.4,0.2,1.9,0.7c0.5,0.5,0.8,1.1,0.8,2c0,0.9-0.3,1.5-0.9,2.1C232.5,87.6,231.7,87.9,230.8,87.9z"/>
	</g>
	<g>
		<path class="st0" d="M207.2,122.1h-1.5v-6.4l-1.4,1.4l-0.9-0.9l2.4-2.4h1.3V122.1z"/>
		<path class="st0" d="M210.6,121.6c0,0.4-0.1,0.8-0.3,1.2s-0.5,0.7-0.9,0.9l-0.6-0.5c0.2-0.1,0.4-0.3,0.6-0.5
			c0.2-0.2,0.3-0.4,0.3-0.7c-0.1,0-0.1,0-0.2,0c-0.2,0-0.4-0.1-0.5-0.2c-0.1-0.1-0.2-0.3-0.2-0.6s0.1-0.4,0.2-0.6
			c0.2-0.2,0.4-0.3,0.6-0.3c0.3,0,0.5,0.1,0.7,0.3C210.5,121,210.6,121.3,210.6,121.6z"/>
		<path class="st0" d="M213.4,122.1h-1.6l3.2-7h-4.3v-1.3h6v1L213.4,122.1z"/>
		<path class="st0" d="M220.1,122.1h-1.6l3.1-7h-4.3v-1.3h6v1L220.1,122.1z"/>
		<path class="st0" d="M227.4,122.3c-1.3,0-2.4-0.4-3.1-1.3l0.8-1c0.6,0.7,1.3,1,2.2,1c0.5,0,0.9-0.1,1.2-0.4s0.5-0.6,0.5-1
			c0-0.5-0.2-0.8-0.5-1.1c-0.3-0.3-0.7-0.4-1.2-0.4c-0.7,0-1.3,0.2-1.8,0.7l-1-0.3v-4.7h5.5v1.3h-4v2.4c0.5-0.5,1.1-0.7,1.9-0.7
			c0.7,0,1.4,0.2,1.9,0.7c0.5,0.5,0.8,1.1,0.8,2c0,0.9-0.3,1.5-0.9,2.1C229.1,122,228.4,122.3,227.4,122.3z"/>
	</g>
	<g>
		<path class="st0" d="M40.4,187.2h-1.5v-1.9h-4v-1.2l3.4-5.3h2v5.2h1.1v1.3h-1.1V187.2z M38.9,184v-3.8l-2.5,3.8H38.9z"/>
		<path class="st0" d="M44.3,186.7c0,0.4-0.1,0.8-0.3,1.2c-0.2,0.4-0.5,0.7-0.9,0.9l-0.6-0.5c0.2-0.1,0.4-0.3,0.6-0.5
			c0.2-0.2,0.3-0.4,0.3-0.6c-0.1,0-0.1,0-0.2,0c-0.2,0-0.4-0.1-0.5-0.2s-0.2-0.3-0.2-0.6c0-0.2,0.1-0.4,0.2-0.6
			c0.2-0.2,0.4-0.3,0.6-0.3c0.3,0,0.5,0.1,0.7,0.3C44.2,186.1,44.3,186.4,44.3,186.7z"/>
		<path class="st0" d="M48.5,187.4c-0.6,0-1.1-0.1-1.6-0.3c-0.5-0.2-0.8-0.5-1.1-0.9c-0.3-0.4-0.5-0.9-0.6-1.4
			c-0.1-0.5-0.2-1.1-0.2-1.7c0-1.3,0.3-2.3,1-3.1c0.6-0.8,1.5-1.2,2.7-1.2c1,0,1.8,0.3,2.4,0.9l-0.7,1.1c-0.5-0.5-1-0.7-1.7-0.7
			c-0.7,0-1.2,0.3-1.6,0.8c-0.4,0.5-0.6,1.2-0.6,2c0,0.1,0,0.2,0,0.2c0.2-0.3,0.5-0.6,0.9-0.8c0.4-0.2,0.8-0.3,1.3-0.3
			c0.8,0,1.5,0.2,2,0.7c0.5,0.5,0.8,1.1,0.8,2c0,0.8-0.3,1.5-0.8,2C50.2,187.1,49.4,187.4,48.5,187.4z M48.4,186.1
			c0.5,0,0.9-0.1,1.2-0.4c0.3-0.3,0.4-0.6,0.4-1c0-0.5-0.2-0.9-0.5-1.1s-0.7-0.4-1.2-0.4c-0.3,0-0.7,0.1-1,0.3
			c-0.3,0.2-0.6,0.4-0.8,0.7c0,0.5,0.2,1,0.5,1.4C47.4,185.9,47.8,186.1,48.4,186.1z"/>
		<path class="st0" d="M58.1,186.7c-0.6,0.4-1.4,0.6-2.3,0.6c-0.9,0-1.7-0.2-2.3-0.6c-0.6-0.4-0.9-1-0.9-1.7c0-0.5,0.2-0.9,0.5-1.3
			c0.4-0.4,0.8-0.7,1.3-0.8c-0.5-0.2-0.9-0.4-1.3-0.7s-0.5-0.7-0.5-1.2c0-0.4,0.1-0.7,0.3-1c0.2-0.3,0.4-0.5,0.7-0.7
			c0.3-0.2,0.6-0.3,1-0.4c0.4-0.1,0.7-0.1,1.1-0.1c0.4,0,0.8,0,1.1,0.1c0.3,0.1,0.7,0.2,1,0.4c0.3,0.2,0.5,0.4,0.7,0.7
			c0.2,0.3,0.3,0.6,0.3,1c0,0.9-0.6,1.6-1.8,2c0.5,0.2,1,0.5,1.3,0.8c0.4,0.4,0.5,0.8,0.5,1.3C59,185.8,58.7,186.3,58.1,186.7z
			 M55.8,186.1c0.5,0,0.9-0.1,1.2-0.3c0.3-0.2,0.5-0.5,0.5-0.9c0-0.4-0.2-0.7-0.6-0.9c-0.4-0.2-0.8-0.4-1.1-0.4
			c-0.2,0-0.4,0.1-0.7,0.2c-0.2,0.1-0.5,0.2-0.7,0.4c-0.2,0.2-0.3,0.4-0.3,0.7c0,0.4,0.2,0.6,0.5,0.9
			C54.9,185.9,55.3,186.1,55.8,186.1z M55.8,182.3c0.2,0,0.4-0.1,0.7-0.2c0.2-0.1,0.4-0.2,0.6-0.4c0.2-0.2,0.3-0.4,0.3-0.6
			c0-0.3-0.1-0.6-0.4-0.8c-0.3-0.2-0.7-0.3-1.1-0.3c-0.5,0-0.8,0.1-1.1,0.3c-0.3,0.2-0.4,0.5-0.4,0.8c0,0.2,0.1,0.5,0.3,0.6
			c0.2,0.2,0.4,0.3,0.6,0.4C55.4,182.2,55.6,182.3,55.8,182.3z"/>
		<path class="st0" d="M64.9,187c-0.4,0.2-0.9,0.4-1.5,0.4s-1.1-0.1-1.5-0.4s-0.8-0.6-1-1s-0.5-0.9-0.6-1.4c-0.1-0.5-0.2-1-0.2-1.6
			s0.1-1.1,0.2-1.6c0.1-0.5,0.3-1,0.6-1.4c0.3-0.4,0.6-0.7,1-1s0.9-0.4,1.5-0.4s1.1,0.1,1.5,0.4s0.8,0.6,1.1,1
			c0.3,0.4,0.5,0.9,0.6,1.4s0.2,1,0.2,1.6s-0.1,1.1-0.2,1.6s-0.3,1-0.6,1.4C65.7,186.4,65.3,186.7,64.9,187z M62,185.2
			c0.3,0.6,0.8,0.8,1.4,0.8c0.6,0,1.1-0.3,1.4-0.8s0.5-1.3,0.5-2.2c0-0.6-0.1-1.1-0.2-1.5s-0.3-0.8-0.6-1.1
			c-0.3-0.3-0.6-0.4-1.1-0.4s-0.8,0.1-1.1,0.4c-0.3,0.3-0.5,0.6-0.6,1.1s-0.2,0.9-0.2,1.5C61.5,183.9,61.7,184.6,62,185.2z"/>
	</g>
	<g>
		<path class="st0" d="M51.1,152.4h-1.5v-1.9h-4v-1.2l3.4-5.3h2v5.2h1.1v1.3h-1.1V152.4z M49.6,149.2v-3.9l-2.5,3.9H49.6z"/>
		<path class="st0" d="M56,152.5c-0.7,0-1.3-0.1-1.9-0.4c-0.5-0.2-1-0.6-1.3-1l0.8-1c0.3,0.3,0.6,0.6,1,0.7c0.4,0.2,0.8,0.3,1.3,0.3
			c0.5,0,1-0.1,1.3-0.3c0.3-0.2,0.5-0.5,0.5-0.9c0-0.8-0.6-1.2-1.8-1.2c-0.6,0-0.9,0-1,0v-1.3c0.1,0,0.4,0,1,0
			c0.5,0,0.9-0.1,1.2-0.3s0.5-0.5,0.5-0.8c0-0.4-0.2-0.7-0.5-0.9c-0.3-0.2-0.7-0.3-1.2-0.3c-0.8,0-1.5,0.3-2.1,0.9l-0.8-0.9
			c0.7-0.9,1.8-1.3,3-1.3c0.9,0,1.6,0.2,2.2,0.6c0.5,0.4,0.8,1,0.8,1.6c0,0.5-0.2,0.9-0.5,1.3c-0.4,0.3-0.8,0.5-1.3,0.6
			c0.5,0,0.9,0.2,1.3,0.6c0.4,0.4,0.6,0.8,0.6,1.4c0,0.7-0.3,1.3-0.9,1.8C57.7,152.3,56.9,152.5,56,152.5z"/>
		<path class="st0" d="M63.5,152.5c-1.3,0-2.4-0.4-3.1-1.3l0.8-1c0.6,0.7,1.3,1,2.2,1c0.5,0,0.9-0.1,1.2-0.4s0.5-0.6,0.5-1
			c0-0.5-0.2-0.8-0.5-1.1c-0.3-0.3-0.7-0.4-1.2-0.4c-0.7,0-1.3,0.2-1.8,0.7l-1-0.3v-4.7h5.5v1.3h-4v2.4c0.5-0.5,1.1-0.7,1.9-0.7
			c0.7,0,1.4,0.2,1.9,0.7c0.5,0.5,0.8,1.1,0.8,2c0,0.9-0.3,1.5-0.9,2.1C65.2,152.3,64.5,152.5,63.5,152.5z"/>
	</g>
	<g>
		<path class="st0" d="M50.4,120.3h-1.5v-1.9h-4v-1.2l3.4-5.3h2v5.2h1.1v1.3h-1.1V120.3z M48.9,117.1v-3.9l-2.5,3.9H48.9z"/>
		<path class="st0" d="M57.2,120c-0.4,0.2-0.9,0.4-1.5,0.4c-0.6,0-1.1-0.1-1.5-0.4c-0.4-0.2-0.8-0.6-1-1c-0.3-0.4-0.5-0.9-0.6-1.4
			s-0.2-1-0.2-1.6c0-0.5,0.1-1.1,0.2-1.6s0.3-1,0.6-1.4c0.3-0.4,0.6-0.7,1-1c0.4-0.2,0.9-0.4,1.5-0.4c0.6,0,1.1,0.1,1.5,0.4
			c0.4,0.2,0.8,0.6,1,1c0.3,0.4,0.5,0.9,0.6,1.4c0.1,0.5,0.2,1,0.2,1.6c0,0.5-0.1,1.1-0.2,1.6c-0.1,0.5-0.3,1-0.6,1.4
			C58,119.5,57.6,119.8,57.2,120z M54.3,118.3c0.3,0.6,0.8,0.8,1.4,0.8s1.1-0.3,1.4-0.8c0.3-0.6,0.5-1.3,0.5-2.2
			c0-0.6-0.1-1.1-0.2-1.5c-0.1-0.4-0.3-0.8-0.6-1.1s-0.6-0.4-1.1-0.4c-0.4,0-0.8,0.1-1.1,0.4s-0.5,0.6-0.6,1.1
			c-0.1,0.4-0.2,0.9-0.2,1.5C53.8,117,54,117.7,54.3,118.3z"/>
		<path class="st0" d="M64.9,120c-0.4,0.2-0.9,0.4-1.5,0.4s-1.1-0.1-1.5-0.4s-0.8-0.6-1.1-1c-0.3-0.4-0.5-0.9-0.6-1.4
			s-0.2-1-0.2-1.6c0-0.5,0.1-1.1,0.2-1.6s0.3-1,0.6-1.4c0.3-0.4,0.6-0.7,1.1-1s0.9-0.4,1.5-0.4s1.1,0.1,1.5,0.4s0.8,0.6,1,1
			c0.3,0.4,0.5,0.9,0.6,1.4c0.1,0.5,0.2,1,0.2,1.6c0,0.5-0.1,1.1-0.2,1.6c-0.1,0.5-0.3,1-0.6,1.4C65.7,119.5,65.3,119.8,64.9,120z
			 M62,118.3c0.3,0.6,0.8,0.8,1.4,0.8s1.1-0.3,1.4-0.8c0.3-0.6,0.4-1.3,0.4-2.2c0-0.6-0.1-1.1-0.2-1.5c-0.1-0.4-0.3-0.8-0.6-1.1
			s-0.6-0.4-1.1-0.4s-0.8,0.1-1.1,0.4c-0.3,0.3-0.5,0.6-0.6,1.1c-0.1,0.4-0.2,0.9-0.2,1.5C61.5,117,61.7,117.7,62,118.3z"/>
	</g>
	<g>
		<path class="st0" d="M41.7,85.7h-1.5v-6.4l-1.4,1.4L38,79.8l2.4-2.4h1.3V85.7z"/>
		<path class="st0" d="M45,85.3c0,0.4-0.1,0.8-0.3,1.2c-0.2,0.4-0.5,0.7-0.9,0.9l-0.6-0.5c0.2-0.1,0.4-0.3,0.6-0.5
			c0.2-0.2,0.3-0.4,0.3-0.6c-0.1,0-0.1,0-0.2,0c-0.2,0-0.4-0.1-0.5-0.2c-0.1-0.1-0.2-0.3-0.2-0.6s0.1-0.4,0.2-0.6
			c0.2-0.2,0.4-0.3,0.6-0.3c0.3,0,0.5,0.1,0.7,0.3C44.9,84.6,45,84.9,45,85.3z"/>
		<path class="st0" d="M52.3,85.7h-6v-1.2c1.7-1.3,2.9-2.3,3.6-2.9c0.6-0.6,0.9-1.2,0.9-1.8c0-0.4-0.1-0.7-0.4-0.9
			c-0.3-0.2-0.7-0.3-1.1-0.3c-0.9,0-1.7,0.3-2.2,1l-0.8-1c0.4-0.4,0.8-0.8,1.4-1c0.5-0.2,1.1-0.3,1.7-0.3c0.9,0,1.6,0.2,2.2,0.7
			c0.6,0.5,0.9,1.1,0.9,1.9c0,0.7-0.3,1.4-0.9,2.1c-0.6,0.7-1.5,1.5-2.8,2.5h3.7V85.7z"/>
		<path class="st0" d="M56.2,85.7h-1.6l3.2-7h-4.3v-1.3h6v1L56.2,85.7z"/>
		<path class="st0" d="M63.5,85.9c-1.3,0-2.4-0.4-3.1-1.3l0.8-1c0.6,0.7,1.3,1,2.2,1c0.5,0,0.9-0.1,1.2-0.4c0.3-0.3,0.5-0.6,0.5-1
			c0-0.5-0.2-0.8-0.5-1.1c-0.3-0.3-0.7-0.4-1.2-0.4c-0.7,0-1.3,0.2-1.8,0.7l-1-0.3v-4.7h5.5v1.3h-4v2.4c0.5-0.5,1.1-0.7,1.9-0.7
			c0.7,0,1.4,0.2,1.9,0.7c0.5,0.5,0.8,1.1,0.8,2c0,0.9-0.3,1.5-0.9,2.1C65.2,85.6,64.5,85.9,63.5,85.9z"/>
	</g>
	<g>
		<path class="st0" d="M50.9,51.5h-1.5v-1.9h-4v-1.2l3.4-5.3h2v5.2H52v1.3h-1.1V51.5z M49.4,48.3v-3.8l-2.5,3.8H49.4z"/>
		<path class="st0" d="M55.8,51.7c-0.7,0-1.3-0.1-1.9-0.4s-1-0.6-1.3-1l0.8-1c0.3,0.3,0.6,0.6,1,0.7c0.4,0.2,0.8,0.3,1.3,0.3
			c0.5,0,1-0.1,1.3-0.3s0.5-0.5,0.5-0.9c0-0.8-0.6-1.2-1.9-1.2c-0.6,0-0.9,0-1,0v-1.3c0.1,0,0.4,0,1,0c0.5,0,0.9-0.1,1.2-0.3
			c0.3-0.2,0.5-0.5,0.5-0.8c0-0.4-0.2-0.7-0.5-0.9c-0.3-0.2-0.7-0.3-1.2-0.3c-0.8,0-1.5,0.3-2.1,0.9l-0.8-0.9c0.7-0.9,1.8-1.3,3-1.3
			c0.9,0,1.6,0.2,2.2,0.6c0.5,0.4,0.8,1,0.8,1.6c0,0.5-0.2,0.9-0.5,1.3c-0.4,0.3-0.8,0.5-1.3,0.6c0.5,0,0.9,0.2,1.3,0.6
			c0.4,0.4,0.6,0.8,0.6,1.4c0,0.7-0.3,1.3-0.9,1.8C57.5,51.4,56.7,51.7,55.8,51.7z"/>
		<path class="st0" d="M64.9,51.3c-0.4,0.2-0.9,0.4-1.5,0.4s-1.1-0.1-1.5-0.4s-0.8-0.6-1.1-1c-0.3-0.4-0.5-0.9-0.6-1.4
			s-0.2-1-0.2-1.6s0.1-1.1,0.2-1.6s0.3-1,0.6-1.4c0.3-0.4,0.6-0.7,1.1-1s0.9-0.4,1.5-0.4s1.1,0.1,1.5,0.4s0.8,0.6,1,1
			c0.3,0.4,0.5,0.9,0.6,1.4c0.1,0.5,0.2,1,0.2,1.6s-0.1,1.1-0.2,1.6c-0.1,0.5-0.3,1-0.6,1.4S65.3,51,64.9,51.3z M62,49.5
			c0.3,0.6,0.8,0.8,1.4,0.8s1.1-0.3,1.4-0.8c0.3-0.6,0.4-1.3,0.4-2.2c0-0.6-0.1-1.1-0.2-1.5c-0.1-0.4-0.3-0.8-0.6-1.1
			c-0.3-0.3-0.6-0.4-1.1-0.4s-0.8,0.1-1.1,0.4c-0.3,0.3-0.5,0.6-0.6,1.1c-0.1,0.4-0.2,0.9-0.2,1.5C61.5,48.2,61.7,48.9,62,49.5z"/>
	</g>
	<g>
		<path class="st0" d="M124.4,22.2H123v-6.4l-1.4,1.4l-0.8-0.9l2.4-2.4h1.3V22.2z"/>
		<path class="st0" d="M127.8,21.7c0,0.4-0.1,0.8-0.3,1.2c-0.2,0.4-0.5,0.7-0.9,0.9l-0.6-0.5c0.2-0.1,0.4-0.3,0.6-0.5
			c0.2-0.2,0.3-0.4,0.3-0.6c-0.1,0-0.1,0-0.2,0c-0.2,0-0.4-0.1-0.5-0.2c-0.1-0.1-0.2-0.3-0.2-0.6s0.1-0.4,0.2-0.6
			c0.2-0.2,0.4-0.3,0.6-0.3c0.3,0,0.5,0.1,0.7,0.3S127.8,21.4,127.8,21.7z"/>
		<path class="st0" d="M132.2,22.4c-1.3,0-2.4-0.4-3.1-1.3l0.8-1c0.6,0.7,1.3,1,2.2,1c0.5,0,0.9-0.1,1.2-0.4c0.3-0.3,0.5-0.6,0.5-1
			c0-0.5-0.2-0.8-0.5-1.1c-0.3-0.3-0.7-0.4-1.2-0.4c-0.7,0-1.3,0.2-1.8,0.7l-1-0.3v-4.7h5.5v1.3h-4v2.4c0.5-0.5,1.1-0.7,1.9-0.7
			c0.7,0,1.4,0.2,1.9,0.7c0.5,0.5,0.8,1.1,0.8,2c0,0.9-0.3,1.5-0.9,2.1S133.1,22.4,132.2,22.4z"/>
		<path class="st0" d="M141.2,22c-0.4,0.2-0.9,0.4-1.5,0.4s-1.1-0.1-1.5-0.4s-0.8-0.6-1-1c-0.3-0.4-0.5-0.9-0.6-1.4
			c-0.1-0.5-0.2-1-0.2-1.6c0-0.5,0.1-1.1,0.2-1.6c0.1-0.5,0.3-1,0.6-1.4c0.3-0.4,0.6-0.7,1-1s0.9-0.4,1.5-0.4s1.1,0.1,1.5,0.4
			s0.8,0.6,1.1,1c0.3,0.4,0.5,0.9,0.6,1.4s0.2,1,0.2,1.6c0,0.5-0.1,1.1-0.2,1.6s-0.3,1-0.6,1.4C142,21.4,141.7,21.7,141.2,22z
			 M138.3,20.2c0.3,0.6,0.8,0.8,1.4,0.8c0.6,0,1.1-0.3,1.4-0.8s0.5-1.3,0.5-2.2c0-0.6-0.1-1.1-0.2-1.5c-0.1-0.4-0.3-0.8-0.6-1.1
			c-0.3-0.3-0.6-0.4-1.1-0.4s-0.8,0.1-1.1,0.4c-0.3,0.3-0.5,0.6-0.6,1.1c-0.1,0.4-0.2,0.9-0.2,1.5C137.9,18.9,138,19.6,138.3,20.2z"
			/>
		<path class="st0" d="M148.9,22c-0.4,0.2-0.9,0.4-1.5,0.4c-0.6,0-1.1-0.1-1.5-0.4c-0.4-0.2-0.8-0.6-1.1-1c-0.3-0.4-0.5-0.9-0.6-1.4
			c-0.1-0.5-0.2-1-0.2-1.6c0-0.5,0.1-1.1,0.2-1.6c0.1-0.5,0.3-1,0.6-1.4c0.3-0.4,0.6-0.7,1.1-1c0.4-0.2,0.9-0.4,1.5-0.4
			c0.6,0,1.1,0.1,1.5,0.4c0.4,0.2,0.8,0.6,1,1c0.3,0.4,0.5,0.9,0.6,1.4s0.2,1,0.2,1.6c0,0.5-0.1,1.1-0.2,1.6s-0.3,1-0.6,1.4
			C149.7,21.4,149.4,21.7,148.9,22z M146,20.2c0.3,0.6,0.8,0.8,1.4,0.8c0.6,0,1.1-0.3,1.4-0.8s0.5-1.3,0.5-2.2
			c0-0.6-0.1-1.1-0.2-1.5c-0.1-0.4-0.3-0.8-0.6-1.1c-0.3-0.3-0.6-0.4-1.1-0.4c-0.4,0-0.8,0.1-1.1,0.4s-0.5,0.6-0.6,1.1
			c-0.1,0.4-0.2,0.9-0.2,1.5C145.6,18.9,145.7,19.6,146,20.2z"/>
	</g>
	<g>
		<g>
			<path class="st2" d="M196.9,35.2c-18.3,0-30.5,11.2-38,26.3"/>
			<g>
				<path class="st3" d="M159,61.3c0.6-0.2,1.6,0,2.1,0.3c-1.1,0.2-2.1,0.6-2.9,1.3c0.1-1.1-0.3-2.2-0.7-3.1
					C158,60.1,158.7,60.7,159,61.3z"/>
			</g>
		</g>
	</g>
	<g>
		<g>
			<path class="st4" d="M196.9,72.3c-18.3,0-30.5,11.2-38,26.3"/>
			<g>
				<path class="st3" d="M159.2,98c2.3-0.8,5.8,0,8,1c-3.9,0.7-7.8,2.3-10.9,4.9c0.3-4-1-8-2.7-11.7C155.7,93.6,158.3,95.5,159.2,98
					z"/>
			</g>
		</g>
	</g>
	<g>
		<g>
			<path class="st5" d="M198,111.6c-14.7,10.9-41.1,12-53.9,3.9"/>
			<g>
				<path class="st3" d="M144.3,115.7c0.3,1.2-0.3,2.8-0.9,3.7c-0.2-1.9-0.7-3.8-1.8-5.4c1.9,0.3,3.9-0.1,5.7-0.7
					C146.6,114.3,145.5,115.4,144.3,115.7z"/>
			</g>
		</g>
	</g>
	<g>
		<g>
			<path class="st6" d="M77.7,176.2c15.7-0.2,33.9-6.4,43.5-20.3"/>
			<g>
				<path class="st3" d="M120.6,156.6c-3.4,1-8.3-0.4-11.3-1.9c5.7-0.8,11.3-2.7,15.9-6.4c-0.7,5.8,1,11.5,3.1,16.9
					C125.2,163.2,121.7,160.2,120.6,156.6z"/>
			</g>
		</g>
	</g>
	<g>
		<g>
			<path class="st7" d="M197,151.8c-16.4,5-31.7,3.3-41.1-10.7"/>
			<g>
				<path class="st3" d="M156.2,141.6c-0.5,2.5-3,5.2-5,6.7c1.4-3.9,2-8.2,1.2-12.4c3.5,2.4,7.7,3.2,11.9,3.6
					C162,140.8,158.9,142.1,156.2,141.6z"/>
			</g>
		</g>
	</g>
	<g>
		<g>
			<path class="st8" d="M74.4,38.7c18.3,0,35.1,10.1,43.3,33.5"/>
			<g>
				<path class="st3" d="M117.7,72.1c0.3-0.6,1-1.1,1.6-1.3c-0.6,0.9-1,1.8-1.1,2.9c-0.7-0.8-1.7-1.3-2.6-1.6
					C116.3,72,117.1,71.8,117.7,72.1z"/>
			</g>
		</g>
	</g>
	<g>
		<g>
			<path class="st9" d="M74.4,142.6c10.5-7.5,26.8-9.5,41.4-4"/>
			<g>
				<path class="st3" d="M115.7,138.5c-0.2-0.4-0.1-1,0-1.4c0.2,0.7,0.5,1.3,1.1,1.8c-0.7,0-1.4,0.3-2,0.7
					C115,139.2,115.3,138.7,115.7,138.5z"/>
			</g>
		</g>
	</g>
	<g>
		<g>
			<path class="st10" d="M72.7,75.5c14.7-3.6,27.1,1.2,37.1,10.3"/>
			<g>
				<path class="st3" d="M109.6,85.6c0-0.8,0.5-1.9,1.1-2.5c-0.1,1.4,0,2.8,0.6,4.1c-1.3-0.5-2.7-0.4-4.1-0.2
					C107.9,86.3,108.7,85.7,109.6,85.6z"/>
			</g>
		</g>
	</g>
	<g>
		<g>
			<path class="st11" d="M75.4,111.1c11-8.1,23-9.2,34.7-6"/>
			<g>
				<path class="st3" d="M109.9,105.1c-0.3-0.5-0.3-1.4-0.1-1.9c0.3,0.9,0.9,1.7,1.7,2.3c-1,0.1-1.8,0.6-2.6,1.2
					C109,106.1,109.4,105.4,109.9,105.1z"/>
			</g>
		</g>
	</g>
	<g>
		<g>
			<line class="st12" x1="135.9" y1="26.8" x2="135.9" y2="60.9"/>
			<g>
				<path class="st3" d="M135.9,60.7c0.7-0.7,2.1-1,3.1-1.1c-1.3,1-2.4,2.2-3.1,3.7c-0.6-1.5-1.8-2.7-3.1-3.7
					C133.9,59.7,135.2,59.9,135.9,60.7z"/>
			</g>
		</g>
	</g>
	<g>
		<path class="st0" d="M209.2,161.5h-1.5v-1.9h-4v-1.2l3.4-5.3h2v5.2h1.1v1.3h-1.1V161.5z M207.7,158.4v-3.8l-2.5,3.8H207.7z"/>
		<path class="st0" d="M213.1,161.1c0,0.4-0.1,0.8-0.3,1.2c-0.2,0.4-0.5,0.7-0.9,0.9l-0.6-0.5c0.2-0.1,0.4-0.3,0.6-0.5
			c0.2-0.2,0.3-0.4,0.3-0.6c-0.1,0-0.1,0-0.2,0c-0.2,0-0.4-0.1-0.5-0.2s-0.2-0.3-0.2-0.6c0-0.2,0.1-0.4,0.2-0.6
			c0.2-0.2,0.4-0.3,0.6-0.3c0.3,0,0.5,0.1,0.7,0.3C213,160.4,213.1,160.7,213.1,161.1z"/>
		<path class="st0" d="M217.1,161.7c-0.7,0-1.3-0.1-1.9-0.4c-0.5-0.2-1-0.6-1.3-1l0.8-1c0.3,0.3,0.6,0.6,1,0.7
			c0.4,0.2,0.8,0.3,1.3,0.3c0.5,0,1-0.1,1.3-0.3s0.5-0.5,0.5-0.9c0-0.8-0.6-1.2-1.8-1.2c-0.6,0-0.9,0-1,0v-1.3c0.1,0,0.4,0,1,0
			c0.5,0,0.9-0.1,1.2-0.3c0.3-0.2,0.5-0.5,0.5-0.8c0-0.4-0.2-0.7-0.5-0.9c-0.3-0.2-0.7-0.3-1.2-0.3c-0.8,0-1.5,0.3-2.1,0.9l-0.8-0.9
			c0.7-0.9,1.8-1.3,3-1.3c0.9,0,1.6,0.2,2.2,0.6c0.5,0.4,0.8,1,0.8,1.6c0,0.5-0.2,0.9-0.5,1.3c-0.4,0.3-0.8,0.5-1.3,0.6
			c0.5,0,0.9,0.2,1.3,0.6c0.4,0.4,0.6,0.8,0.6,1.4c0,0.7-0.3,1.3-0.9,1.8C218.8,161.5,218.1,161.7,217.1,161.7z"/>
		<path class="st0" d="M224.3,161.7c-0.7,0-1.3-0.1-1.9-0.4c-0.5-0.2-1-0.6-1.3-1l0.8-1c0.3,0.3,0.6,0.6,1,0.7s0.8,0.3,1.3,0.3
			c0.5,0,1-0.1,1.3-0.3c0.3-0.2,0.5-0.5,0.5-0.9c0-0.8-0.6-1.2-1.9-1.2c-0.6,0-0.9,0-1,0v-1.3c0.1,0,0.4,0,1,0
			c0.5,0,0.9-0.1,1.2-0.3c0.3-0.2,0.5-0.5,0.5-0.8c0-0.4-0.2-0.7-0.5-0.9c-0.3-0.2-0.7-0.3-1.2-0.3c-0.8,0-1.5,0.3-2.2,0.9l-0.8-0.9
			c0.7-0.9,1.8-1.3,3-1.3c0.9,0,1.6,0.2,2.2,0.6c0.5,0.4,0.8,1,0.8,1.6c0,0.5-0.2,0.9-0.5,1.3s-0.8,0.5-1.3,0.6
			c0.5,0,0.9,0.2,1.3,0.6c0.4,0.4,0.6,0.8,0.6,1.4c0,0.7-0.3,1.3-0.9,1.8C226,161.5,225.3,161.7,224.3,161.7z"/>
		<path class="st0" d="M233.4,161.3c-0.4,0.2-0.9,0.4-1.5,0.4c-0.6,0-1.1-0.1-1.5-0.4c-0.4-0.2-0.8-0.6-1.1-1s-0.5-0.9-0.6-1.4
			c-0.1-0.5-0.2-1-0.2-1.6s0.1-1.1,0.2-1.6c0.1-0.5,0.3-1,0.6-1.4c0.3-0.4,0.6-0.7,1.1-1c0.4-0.2,0.9-0.4,1.5-0.4
			c0.6,0,1.1,0.1,1.5,0.4c0.4,0.2,0.8,0.6,1,1c0.3,0.4,0.5,0.9,0.6,1.4s0.2,1,0.2,1.6s-0.1,1.1-0.2,1.6s-0.3,1-0.6,1.4
			C234.2,160.7,233.8,161.1,233.4,161.3z M230.5,159.5c0.3,0.6,0.8,0.8,1.4,0.8c0.6,0,1.1-0.3,1.4-0.8s0.5-1.3,0.5-2.2
			c0-0.6-0.1-1.1-0.2-1.5s-0.3-0.8-0.6-1.1c-0.3-0.3-0.6-0.4-1.1-0.4c-0.4,0-0.8,0.1-1.1,0.4c-0.3,0.3-0.5,0.6-0.6,1.1
			c-0.1,0.4-0.2,0.9-0.2,1.5C230,158.2,230.2,159,230.5,159.5z"/>
	</g>
</g>
</svg>
