<?xml version="1.0" encoding="utf-8"?>
<!-- Generator: Adobe Illustrator 19.2.0, SVG Export Plug-In . SVG Version: 6.00 Build 0)  -->
<svg version="1.1" id="Layer_1" xmlns="http://www.w3.org/2000/svg" xmlns:xlink="http://www.w3.org/1999/xlink" x="0px" y="0px"
	 viewBox="0 0 266.2 188.3" style="enable-background:new 0 0 266.2 188.3;" xml:space="preserve">
<style type="text/css">
	.st0{fill:#0D92FF;}
	.st1{fill:#787878;}
	.st2{fill:none;stroke:#00325C;stroke-width:0.775;stroke-miterlimit:10;}
	.st3{fill:#00325C;}
	.st4{fill:none;stroke:#00325C;stroke-width:2.97;stroke-miterlimit:10;}
	.st5{fill:none;stroke:#00325C;stroke-width:1.775;stroke-miterlimit:10;}
	.st6{fill:none;stroke:#00325C;stroke-width:4.895;stroke-miterlimit:3;}
	.st7{fill:none;stroke:#00325C;stroke-width:11.15;stroke-miterlimit:10;}
	.st8{fill:none;stroke:#00325C;stroke-width:0.36;stroke-miterlimit:10;}
	.st9{fill:none;stroke:#00325C;stroke-width:0.24;stroke-miterlimit:10;}
	.st10{fill:none;stroke:#00325C;stroke-width:1.015;stroke-miterlimit:10;}
	.st11{fill:none;stroke:#00325C;stroke-width:1.335;stroke-linecap:round;stroke-linejoin:round;}
</style>
<g>
	<path class="st0" d="M117.2,52.9L117.2,52.9L117,53l0,0.1l0,0.1l0,0.1l0,0.1l0.1,0.2l0.1,0l0-0.1l0-0.1l0-0.1l0-0.1l-0.1,0l0-0.1
		l0-0.1L117.2,52.9L117.2,52.9z M99.1,60.6l0.2,0.1l0.3-0.3l0-0.1l-0.2-0.1l-0.2,0L99,60.2l0,0l0,0.1l0,0.2L99.1,60.6z M144.6,54.8
		l0.2,0l0.1-0.1l0-0.2l0.1-0.1h0.1l0,0.2l-0.1,0.3l0,0.1l0.1,0l0.1-0.2l0.3-0.9l-0.3-0.1l-0.4,0.1l-0.4,0.3l-0.2,0.4l0.2,0.1
		L144.6,54.8z M145.9,53.3l0.1-0.3l0.5-0.4l0.2-0.2l-0.1,0.1l-0.7,0.3l-0.1,0.1l0,0L145.9,53.3L145.9,53.3z M116.6,45l-0.2,0.1
		l-0.1,0.3l0.1,0.2l0.1,0.1l0.2,0l0.3-0.2l0.2-0.4l0.1-0.4l0-0.2l-0.6,0.3L116.6,45L116.6,45z M103.3,59.2l0.5-0.2h0l0,0l0-0.1
		l-1.1,0l-0.5,0.1l-0.5,0.3l0.4,0.1L103.3,59.2z M111.7,59.1L111.7,59.1l0.1,0.1l0,0l0.2-0.2l0.1,0h0.1l-0.2-0.2l-0.2,0l-0.2,0.1
		l-0.1,0.2v0.1L111.7,59.1L111.7,59.1z M109.1,57.9l0.2,0l0.4,0.1l0.1,0l0.1,0l-0.3-0.2l-0.2,0l-0.2,0l-0.2,0l-0.2,0.1l0,0.1
		l0.2,0.1L109.1,57.9z M100.8,59.5l-1.4,0.2L99,59.8l2.1-0.2L100.8,59.5z M104.5,59L104.5,59l0.1-0.1l0-0.1l-0.1-0.1l-0.2,0l-0.2,0
		l-0.2,0.1l0.1,0L104.5,59z M105.1,58.9l0.3,0l0-0.3l0.3-0.1l0.7,0l0,0l0,0l0,0l0-0.1l-0.2-0.1l-0.9,0l-0.3,0l-0.1,0.1l-0.1,0.2
		L105.1,58.9L105.1,58.9z M107.1,58.4L107.1,58.4l0.2-0.2l0.2,0.2l0.3,0l0.3-0.1l0.2-0.1h0.1v-0.1l-0.9-0.1l-0.4,0.1l-0.3,0.3
		L107.1,58.4L107.1,58.4z M113.9,42.1L113.9,42.1L113.9,42.1L113.9,42.1L114,42l-0.2,0.1l-0.2,0.2l-0.3,0.6l0.2,0.3l0.2,0.3l0.2,0.2
		l0.3-0.1l0.1-0.1l-0.2-0.1l-0.5-0.9l0.1-0.1L113.9,42.1z M118.5,46l0.1,0.2l0.2,0.1l0.4,0l0.2-0.1l0.1-0.2l0.1-0.2l0.2-0.2l0-0.1
		l0-0.1l0-0.1l0,0l-0.4-0.1l-0.4,0l-0.4,0.2l-0.3,0.3l0.1,0.1l0,0.1l0,0.1L118.5,46z M162.2,44.2L162.2,44.2L162.2,44.2L162.2,44.2z
		 M161.3,45.9l0-0.2l0-0.2l0.1-0.1l0.1-0.1l0.1-0.1l0.1-0.4l0-0.3l0.1-0.3l0.2-0.2v0.4h0.1v-0.2l0,0l0,0l0,0V44l-0.1-0.1l-0.1,0
		l-0.1,0l-0.2,0l-0.1,0.1l-0.1,0.4l-0.3,1.1l0,0.4v0.2h0.1L161.3,45.9z M168.2,51.6l0.1,0.2l0.4,0.4l0.1,0.3l-0.1,0.4l-0.3,0.6
		l-0.1,0.3l0.2,0.1l0.1-0.1l0.1-0.2l0.3-0.1l0.1-0.1l0.1,0l0.1,0.2l0,0.1l-0.1,0.1l-0.1,0.1l0,0.2l0.3-0.1l0.1,0l0-0.1l0.1-0.1
		l0.1-0.1l0.1,0v-0.1l-0.1-0.2l0.1-0.1l0.2,0l0.2,0l0.2,0.1l0.1,0.2l0.1,0.2l0.1,0.3l0.2-0.1l0.1,0.3l0,0.5l-0.1,0.4l0.1,0.2
		l-0.3-0.1l0-0.1l0-0.1l0,0l0.1,0l-0.4,0l-0.1,0.1l-0.2,0.3l0-0.3l0.1-0.3l0-0.1l0.1-0.1l-0.2-0.1l-0.5,0l0,0.4l0.4,0.7L170,56
		l-0.1,0.1l-0.3,0.2l-0.3,0.1l-0.2,0.2l-0.1,0l0.2,0.3l0.4,0.1l0.6,0l0.6-0.2l0.3-0.2l0.2-0.3l0.2,0.1l0.2,0l1.1-0.1l-0.1-0.3
		l-0.2-0.2l0.1,0l0.1-0.1l0.2-0.5l-0.2-0.1l-1.8-1.9l-0.3-0.2l-0.4-0.1l-0.7-0.4l-0.3-0.3l-0.1-0.2l-0.2-0.6l-0.1-0.2l-0.2-0.1
		l-0.2,0.1l-0.2,0.2L168.2,51.6z M97,61.5l0.2,0.1l0.1,0l0.1-0.1l0.1,0l0.1,0l0.1,0.2l0.1,0.1l-0.1-0.2l-0.1-0.1l-0.1-0.1l-0.1,0
		v-0.1l0.2,0L98,61l0.2,0l-0.1-0.3l-0.4,0L97,61l-0.1,0.1l0,0.2L97,61.5z M115.2,42.4l0.3-0.1l0.1,0.1l0.2,0.1l0.2,0l0.1,0l0.1-0.1
		l0.1-0.3l0.1-0.1v-0.1l-0.2-0.3l-0.2-0.1l-0.6,0l-0.3,0l-0.3,0.1l-0.2,0.2l-0.2,0.4l0.6,0.4L115.2,42.4z M113.2,41.5L113.2,41.5
		l0.1-0.3l0-0.3l0-0.9l0-0.1l0-0.3l0-0.1l0.1-0.1l0.3-0.2l0.1,0l0.1,0l0.1,0l0.1,0.2l0.1,0h0.7l0.2,0l0.3-0.2l0.2-0.1l1.3,0.1
		l0.3-0.2l-2.2,0.1l-0.5-0.1l-0.3-0.3l0.1-0.6l-0.1-0.3l0.1-0.4l0.2-0.3l0.4-0.2l0.1-0.2l-0.1-0.2l-0.3,0l0.1-0.1l0.6,0l-0.5-0.3
		l-0.4,0.5l-0.8,2.1l-0.1,0.4l-0.1,1.9l0,0.5L113.2,41.5z M140.7,46.4L140.7,46.4L140.7,46.4l0.1,0.2h0.1l0.1-0.1l0.1,0l0.3,0
		l0.1,0.1l0,0.1l0,0.4l0.1,0.1l0.3,0l0.4,0l0,0l0-0.1l0.2-0.1l1.3,0.2l-0.6-1.1l-0.2-0.3l-0.1-0.1l-0.3-0.2l-0.9-0.4l-0.5,0.1
		l-0.4,0.4l-0.3,0.7l0,0.2L140.7,46.4z M163.6,45.3l0-0.1l-0.1-0.2l-0.1-0.1l-0.1,0l-0.1-0.1l-0.2,0l-0.8,0.1l-0.2,0.1h0.1l0.1,0
		l0,0.1l0,0.2l0,0.1l0,0l0,0l0,0.1l0.1,0.1l0.2,0l0.3-0.1l0,0.1l0,0.1l0,0l0,0l0.1,0.2l0.1,0.1l0.3,0.1l-0.1,0.1l-0.1,0l0,0v0.1
		l-0.2,0l-0.3,0.2l-0.3,0.1l-0.1,0.1l-0.2,0.4l0.4-0.1l0.1,0l0.1,0.1l0.1,0.1l0.1,0v0.1l0,0.2l0.1,0.2l0.1,0.1l0.2,0l-0.3,0.2
		l-0.1,0l-0.1-0.1l-0.1,0.1l-0.3-0.2l-0.3,0.1l-0.2,0.3l-0.1,0.4l0.6,0.5v0.1l-0.2-0.1l-0.1,0.1l-0.1,0.1l0.1,0.1l0.1,0l0.3-0.2
		l0.1,0l-0.1,0.2l0.1,0.1l0.2,0.1l0.1,0l0.1,0.1l0.1,0.1l0.1,0.1l0.1,0l0.1-0.1l0.1,0l0.2,0l0-0.1l0,0l0.1-0.1l0.1-0.1l0.1-0.1
		l-0.1,0.3l-0.1,0.2l-0.1,0.1l0.4,0.2l0.3,0.1l0.3,0l0.2-0.1l0-0.2l-0.1-0.4l-0.1,0l-0.5,0.1l0,0h0l0,0l0,0.1l-0.1,0.1l0-0.5
		l0.2-0.1l0.2-0.1l0.1-0.3l0.1-0.2l0.5-0.5l0.2-0.1l1-0.1l0.1,0.1l0.1,0.1l0.1,0l0.1-0.2l0.1-0.1l0.1,0l0.3,0v0.1l-0.2,0.1l-0.6,0.4
		l0.2-0.1l0.2-0.1l0.5,0l-0.1,0.2l-0.2,0.1l-0.4,0.2v0.1l0.1,0.1h0.2l0.2-0.1l0.1-0.1h0.1l0,0.2l0,0.1l-0.1,0.1h-0.1l0.2,0.1l0.1,0
		l0-0.1v-0.3l0-0.3l0.1-0.2l0.1-0.2l0.1-0.1l-0.2-0.1l-0.2-0.2l-0.3-0.5l-0.2-0.1l-0.5-0.1l-0.2-0.1l-0.1-0.2l-0.1-0.3l-0.1-0.3
		l0-0.3l0.1-0.3l0.2-0.2l0.4-0.3l0.3-0.4l-0.1-0.4l-0.3-0.3l-0.5-0.1l-1.3,0.3l-0.4-0.1l-0.2-0.1l-0.1-0.2l-0.1-0.2l0-0.3l0.1-0.2
		l0.2-0.2l0.2-0.1l0.2-0.1v-0.1l-0.3-0.1l-0.3,0l-1.4,0.4l-0.1,0.1l-0.1,0.1l-0.1,0.1l0,0.2l0.1,0l0.1-0.1l0.4-0.1l0,0.1l0,0.2
		l0,0.2l0,0.1l-0.1,0.1l-0.1,0.3l-0.1,0.3l0,0.2l0.2,0.1l0.2-0.1l0.2-0.2l0.2-0.1l0.2-0.2l0.1-0.1l0.1-0.1l0,0.1l0.1,0.2l0.1,0.1
		l0,0.1l0.1,0.1l0.2,0l0.1,0.1l0.1,0.1l0.1,0.1l0.1,0.1l0.3,0l0.1,0l0.1-0.1l0.1-0.1l0.1-0.1l0.1,0v0.1l-0.1,0l0,0l0,0l-0.1,0v0.1
		l0.1,0.1l0.1,0.1l0.1,0.2v0.1l-0.1,0.1l0,0.1l-0.1,0.2l0.1,0.1l-0.5,0l-0.2-0.1l-0.2-0.3l0.1-0.3l-0.1-0.2l-0.2-0.2l-0.1-0.2
		l-0.1,0.1v0.1l0.1,0l0.1,0.1l0.1,0l-0.1,0.2l-0.1,0.1l-0.1,0l-0.1,0l0.1-0.3l0.1-0.1l0-0.1l0,0l-0.1,0h-0.1l0.1-0.1l0.1-0.2
		l0.1-0.4l-0.2,0.1l-0.2,0.1l-0.2,0.2l-0.1,0.2l0.1,0.3L163.6,45.3L163.6,45.3z M180.9,99.9L180.9,99.9l0-0.5l-0.1-0.3l-0.2-0.3
		l-0.2-0.3l0-0.1l0-0.3v0l-0.1-1.1l0.1-0.2l-0.1-0.2l-0.2-0.2l-0.2-0.1l-0.2-0.1l-0.5-0.1l-0.2-0.1v0l-0.2-0.2l-0.7-0.2l-0.2-0.2
		l-0.1-0.3l0.1-0.3l0.2-0.3l0.1-0.3l0-0.4l-0.1-0.4l-0.1-0.3l-0.5-0.4l-0.2-0.3l-0.1-0.4l0-0.4l-0.1-0.2l-0.2-0.1l-0.2-0.3l0-0.3
		l0.1-0.3l0.6-0.6l0.2-0.2l0.2-0.3l0.1-0.3l0-1l0.1-0.2l0.2-0.4l0-0.2l0-0.1l0-0.1l0.1-0.1l0.2-0.2l-0.7-0.5l-0.1-0.2l0.1-0.4
		l0.1-0.3l0-0.2l-0.1-0.2v-0.1l0.2-0.3l0-0.3l-0.2-0.3l-0.3-0.1l-0.3-0.1l-0.3-0.2l-0.2-0.3l0.1-0.3l-0.2-0.5l-0.2-0.7l-0.1-0.7
		l0.5-0.5l0.2-0.4l0.2-0.4l0-0.2l-0.2-0.2l0.1-0.4l0.3-0.6l-0.3-0.3l-0.6-0.7l-0.6-0.2l-0.3-0.4l-0.2-0.1l-0.1-0.1l-0.3-0.7
		l-0.2-0.2l-1.1-0.8l-0.3-0.1l-0.3-0.4l-0.2-0.1l-0.2,0l-0.2-0.1l-0.2-0.1l-0.1-0.2l0.3-0.2l0.1-0.2l0-0.3l0-0.2l-0.1-0.6l-0.1-0.2
		v-0.1l0.5-0.4l0.6-0.3l0.6-0.5l0.3-0.3l0.1-0.3l0-0.1l0.3-0.9l0-0.2l-0.1-0.2l0-0.3l0-0.2l0.1-0.2l0.1-0.1l0.1-0.1l0.1-0.1l0.3-0.5
		l-0.1-0.1l0-0.1l-0.2-0.1l-0.1-0.1l0-0.2l0-0.3l0-0.1l-0.3-1.3l-0.1-0.9l-0.2-0.4L174,63l-0.2-0.4l-0.1-0.3l0-0.4l0-0.6l0-0.2
		l-0.2-0.7l-0.2-0.3l0-0.3l0-0.5l-0.1,0l-0.2,0l-0.1-0.1l-0.1-0.1l0.5-0.3l0,0l0.1-0.1l0-0.3l0,0l-0.1-0.1l-0.2,0l-0.1,0.1l-0.1,0.2
		l-0.3,0.1l-0.8-0.1l-0.1,0l-0.2-0.2l-0.1,0l-0.2,0l0,0l-0.2-0.2l-0.3-0.1l-0.7-0.6l-0.1,0l-0.2-0.1l-0.1-0.2l-0.1-0.2l-0.1-0.1
		l-0.2,0l-0.2-0.1l-0.1-0.2l0.1-0.2l0.7-0.6l0.1-0.2l0.1-0.2l0-0.2l-0.1-0.1l-0.1,0l-0.1,0l-0.1,0l-0.1,0l0,0l-0.1,0l0,0l0-0.1
		l0-0.1l0-0.1l0-0.1l0-0.1l0-0.1l-0.1,0l-0.3-0.1l-0.1,0l-0.1-0.2l-0.3-0.4l-0.1-0.1l0.3-0.2l0.1-0.3l0.1-0.3l0.1-0.3v-0.1l-0.8-0.7
		l-0.3-0.2v-0.1l0.1,0l0.1-0.1l0-0.1l0-0.1l-0.3,0.1l-0.5,0.3l-0.3,0.1l-1.2,0.2v0.1l0.1,0.1l0.1,0.2l0.1,0.1v0.1l-0.2,0l-0.2-0.1
		l-0.1-0.2l-0.1-0.3l-0.1-0.4l-0.1-0.1l-0.1,0l-0.1,0.1l-0.1,0l-0.1-0.1l0.1-0.1l0-0.1l0.1-0.2l-0.2-0.1l-0.4,0.2l-0.3,0l0.1-0.1
		l0.2-0.1l-0.3-0.2l-0.3-0.7l-0.3-0.1l-0.3-0.1l-0.5-0.3l-0.3,0l0.1-0.1l0.1,0l0.1,0v-0.1h-0.4l-0.1-0.1l0-0.1v-0.2l0-0.2l-0.3-0.5
		l0-0.3l0.2-0.3l-0.1-0.1l-0.4-0.2l-0.1-0.2l-0.1-0.2l0-0.2l0.1-0.1l-0.3-0.1l-0.4,0.1l-0.4,0.3l-0.3,0.3l-0.1,0.2l-0.1,0.3
		l-0.1,0.1l-0.1,0.1l-0.1,0l-0.2,0l-0.1,0l0,0l0,0l-0.2-0.2l-0.1-0.1l0-0.1l0-0.1l-0.1,0.1l-0.1,0.1l-0.1,0l-0.1-0.1l-0.1,0.1
		l-0.1-0.1l-0.1-0.2l-0.1-0.2l0,0.1l0,0.1l-0.1,0.2l0-0.2l0.1-0.2l0.1-0.1l0.1,0v-0.1l-0.1,0l-0.1,0l-0.1,0l-0.1,0.1l0,0.1l0,0.1
		l0,0.1l-0.5,0.3l-0.3,0.1l-0.2-0.2v0.1l-0.1-0.1l-0.1,0l-0.2,0.1V48l0.1,0l0.1,0.1l-0.7,0.3l-0.2,0.1l0,0.1l0,0.2l0,0.1l0,0l-0.1,0
		l-0.1,0l-0.3,0.2l-0.1,0.1l-0.1,0.2l0.2,0.2l0.1,0.1l0.2,0L155,50l-0.2-0.1l-0.4-0.3l0.1-0.1l0-0.2l-0.1-0.2l-0.1-0.2l0.2,0
		l0.1-0.2l0-0.2l-0.1-0.2l0.1-0.1l0.1,0.1l0.1,0l0.1,0l-0.1-0.3l0.1-0.3l0.1-0.2l0.2-0.1l0.4,0l0.2,0.1l0.2,0.2l0.1-0.2l0.2-0.1
		l0.2,0l0.2,0.1l0-0.1l0,0h0l0,0l-0.1,0l-0.1,0l0-0.1l0-0.1l0.1,0l0.1-0.1l0.1,0l0.1,0.1l0.1-0.2l0.1-0.1l0.3,0.1h0.2l0.1,0l0.1-0.2
		l0.1,0l0.3,0l0.4,0.2l1.1,0.1l0.3-0.1l0.2-0.2l-0.1-0.2l-0.3-0.1l-0.2,0.1l-0.4-0.2h-2.3l-0.4-0.2l-0.2-0.3h0.1v-0.1l-0.2,0.1
		l-0.1,0.2l-0.2,0.5l-0.4,0.7l-0.1,0.2l-0.6,0.9l-0.4,0.7l-0.1,0.2l-0.4,0.3l-0.8,0.4l-0.1,0l-0.1,0.1l-0.2,0.4l-0.2,0.2l-0.3,0.4
		l-0.1,0.2l0.1-0.1l0.1,0l0.1,0l0.1,0l-0.1,0.2l-0.3,0.2l-0.1,0.2l0.1,0.2l0,0.4l0.1,0.2l-0.2-0.3l0-0.4l0-0.5l-0.1-0.5l-0.4,0.2
		l-2.4,0.5l-0.8-0.1l-0.4,0.1l-0.3,0.2l-0.2,0.4l0,0l0,0.1l0,0.1v0.1l0.1,0.1l0,0.1l0,0.1l-0.1,0.1l-0.1,0.1l-0.1,0l-0.1,0.1
		l-0.2,0.5l-0.2,0.2l-0.1,0l-0.3-0.1v0.1h0.1v0.1l-0.3,0.3l0,0.1l0,0.2l0,0.1l-0.1,0l-0.1,0.1l-0.1,0.1l0,0.3l-0.1,0.3l-0.1,0.3
		l0,0.2H145l-0.1-0.1l-0.4-0.5l0-0.1h-0.4l-0.1-0.1l-0.1-0.2l-0.1-0.1l-0.4,0.3l-0.1,0l-0.3,0l-0.1-0.1l0-0.2l0-0.4l-0.1-0.1
		l-0.4-0.1l-0.1-0.1l-0.1-0.2l-0.1-0.1l-0.1,0l-1.2,0.2l-0.5,0.3l-0.2,0l-0.2,0.1l-0.3,0.3l-0.1,0.1l-0.1,0l-0.2,0l-0.2,0l0-0.2
		l0-0.2l-0.1-0.2l-0.1,0l-0.4,0l-0.3-0.1l-0.2-0.2l-0.1-0.2l-0.1-0.3v-0.1l0.1-0.1l0.4-0.6l0,0l0.1-0.1l0.1,0l0.1,0.1l0.1,0l0.1-0.1
		l0.1,0l0.4-0.1l0.2-0.1l0.4-0.5l1.2-0.8l0-0.2l0.1-0.1l0.1-0.2l0-0.3l-0.1-0.5l0-0.3l0.1-0.2l-0.1-0.3l-0.1-0.7l-0.1-0.3l0.2,0.1
		l0.1,0l0.1-0.2l0.4-0.4l-0.3-0.1l-0.7,0.4l-0.2-0.2l-0.2,0.1l-0.2-0.1l0.3,0l0.2,0v-0.1l-0.8,0.1l-0.3,0.1l-0.3,0.2l-0.6,0.5
		l-0.3,0.2l-0.5,0.1l-0.4-0.1l-0.9-0.8l-1.6-0.7l-0.6-0.5l-0.2-0.1l-0.4,0l-0.1,0l-0.1,0.1l-0.1,0.1l-0.1,0.1l-0.1,0.1l-0.4,0
		l-0.1,0.1l-0.1,0.1l-0.1,0.6l-0.2,0.5l-0.2,0.2l-0.2,0.1l0.1-0.2l0-0.2l0-0.1l-0.1-0.1l0.1-0.1l0-0.1l0,0l0,0l0.2-0.1l0.2-0.2
		l0.1-0.2l0.1-0.2l-0.1-0.3l-0.1-0.2l0-0.2l0.2-0.2l-0.6-0.5l-0.2-0.1l-2.4,0.6l-0.4-0.2V46l0.4,0l0.4-0.1l0.4-0.2l0.3-0.3l0.1-0.2
		l0.1-0.2l0.1-0.2l0-0.3l0.1-0.7l0-0.3l-0.1-0.2l0.1-0.2l-0.1-0.1l-0.1,0l-0.1,0.1l-0.2-0.2l-0.3,0l-0.3,0.1l-0.1,0l0-0.2l0,0l0,0
		l0.1,0l0,0l0.2-0.2l0,0l0.1,0l0.1,0.1l0.1,0l0.1-0.1l-0.2-0.2l-0.1-0.1l-0.1-0.1l-0.1-0.6l-0.2-0.3l-0.3-0.2l-0.2,0l0,0.4l-0.5,0.2
		l-0.3,0l-0.1-0.2l-0.1-0.3l-0.2-0.2l-0.3-0.1l-0.2-0.1l-0.4-0.2l-0.6,0l-0.5-0.2l0-0.6l-0.1,0.1l-0.1,0.2l-0.2,0.1l-0.2,0.2
		l-0.6,0.3l-0.2,0l-0.1,0.1l-0.2,0l-0.2-0.2l-0.2,0l-0.1,0.1l-0.1,0l-0.1,0.1l-0.2,0l-0.7,0l-0.2-0.1l-0.1-0.2l0-0.2l0-0.2l-0.2-0.1
		l-2.1-0.5l-0.8-0.3l-0.8-0.1l-0.2,0l-0.7,0.3l-0.4,0l-0.3-0.1l-0.1,0.5l0,0.4l0.1,0.5l0.1,0.3l0.2,0.3l0.1,0.4l-0.1,0.3v0.1
		l0.3,0.2l0.5,0.5l0.3,0.2l0.1,0.2l0.3,0.9l-0.3,0.2l0.1,0.1l0.1-0.1l0.2-0.1l0.2,0l0.1,0.1l0,0.2l0.1,0.2l0.8,0.9l0.3,0.4V46
		l-0.1,0.3l-0.2,0.1l-0.4,0.2l-0.4,0.4l-0.2,0.1l-0.3,0.1h-1.1l-0.8,0.2l-0.2-0.1l-0.1,0.1l-0.1,0.2l0,0.2l0.1,0.2l0.2-0.2l0.1,0
		l0.1,0.1l0.2,0v0.1l-0.2,0l-0.3,0.1l-0.3,0.1l-0.1,0.2l0,0.4l0.2,0.4l0.3,0.3l0.3,0.1l0.1,0l0.3-0.3l0.2-0.1l0.4,0.1l0.3,0l0.5-0.2
		l0.3,0l0,0.1l0,0.1l0,0.1l0.2-0.1l0.4-0.3l0.2,0l-0.1,0.3l-0.2,0.3l-0.2,0.2l-0.1,0.1l-0.2,0l-0.4,0.1l-0.1,0.1V50l0.1,0.3
		l-0.1,0.3l-0.2,0.3l-0.1,0.3l0,0.1l0.2,0.4l0.3,0.5h0.1l0.2-0.2l0.3-0.2l0.4-0.1l0.2,0.1v0.1l0,0.2l0.1,0.2l0.2,0.2l0.1,0.2v0.3
		l-0.1,0.4l-0.1,0.3l-0.1,0.2l-0.2,0.1l-0.2-0.1l-0.4-0.3l-0.2-0.1l-0.2,0l-0.4,0.2l0.8,1.7l0.3,0.4l0.4,0.3l0.2,0.1l0.1-0.2
		l0.1-0.1l0.3,0.1l0.4,0.2l1.3,0l0.4,0.1l0.4,0.2L124,57l0.4,0.1l0,0.3l0.2,0.6l0.2,0.5l0.2,0.2l0.1,0.1l0.5,0.3l0.1,0.1l0,0.3
		l0,0.5l0.1,0.5l0.3,0.4l0.7,0.5l0.4,0.1l0.9,0.1l0.4,0.2l0.1,0.2l-0.1,0.1l-1.2-0.3l-0.6-0.4l-0.1-0.1l-0.2,0l-0.2-0.1l-0.2-0.1
		l-0.7-1l-0.1-0.5l-0.1-0.2l-0.3-0.2l-0.4-0.5l-1-1.7l-0.2-0.3l-0.1-0.1l-0.3,0l-0.2,0l-0.1-0.1l-0.2,0.1l-0.8,0l-0.8,0.2l-0.2,0.2
		l-0.4,0l-0.7,0.2l-0.4,0l-0.8-0.2l-0.4-0.2l-0.4-0.3l-0.2-0.3l-0.1-0.1l-0.2,0l-0.2,0.1l-0.2,0.1l-0.2,0.2l-0.1,0.2l-0.2,0.5
		l-0.3,1l-0.4,0.9l-0.1,0.2l0,0.3l0,0.3l0.1,0.4l0.1,0.3l0.1,0.3l0.1,0.2l0.1,0.1l0.3,0.7L116,62l-0.1,0.5l-0.2,0.2l-0.2,0.2
		l-0.2,0.4l0,0.5l0.1,1.1l0,0.4l-0.1-0.3l-0.1-0.4l0-0.9l0.1-0.5l0.2-0.4l0.2-0.3l0.2-0.2V62l-0.4-0.2l-0.9-0.2l-0.4-0.2l-0.1-0.2
		L114,61l-0.1-0.2l-0.2-0.1l-0.4,0l-0.2,0.1l-0.1,0.1l-0.1,0.2l-0.1,0.6l-0.1,0.3l0,0.2l0.2,0l0.4-0.1l0.3,0.3l-0.1,0.6l-0.2,0.6
		l-0.2,0.4l-0.1,0.1l-0.1,0.1l-0.1,0l-0.2,0l-0.1-0.1l-0.1-0.2l-0.1-0.2l-0.1-0.1l-0.1,0l-0.2-0.2l-0.1-0.1l-0.2,0l-0.1,0l-0.1,0.1
		l-0.1-0.1l-0.1-0.2l-0.2-0.6l0.2-0.1l0.4,0l0.2-0.1l0.2-0.2l0.1-0.2l0-0.3l-0.1-0.2l-0.2-0.1l-0.2-0.1l0.1-0.2v-0.1l-0.3-0.2
		l-0.4-0.5l-0.3-0.6l0.1-0.5v-0.1l-0.8-0.2l-3,0.4l-1.5,0.3l-0.2-0.1l-0.1-0.1l-0.1-0.1l-1.5,0.2l-0.8,0.3l-0.4,0.4l-0.2,0.1
		l-0.4,0.4l-0.3,0.2l-0.1,0.2l0,0.2l0.1,0.1l0.3,0.1l0.1,0.1l0,0.2l-0.1,0.2l-0.1,0.1l-0.1,0.1l-0.4-0.1l-0.2,0l-0.1,0.2l0,0.3
		l-0.2,0.5l0,0.3l0,1.2l0.1,0.5l0.4,0.2l2.3,0.1l0.4,0.1l0.2,0.4l-0.2-0.1l-0.3-0.2l-0.2-0.1l-0.2,0l-0.1,0.1l-0.3,0.4l0.1,0.2
		l0,0.2l-0.1,0.2l-0.1,0.1l-0.1,0.1l-0.1,0.1l0,0.5l0,0.3l0,0.3l-0.1,0.3l-0.1,0.4l0,0.1l0,0.2l0,0.1l0,0.1l0,0.1l0.1,1.2l0,0.6
		l-0.1,0.5l-0.2,0.6l-0.8,1.3l-0.2,0.5l-0.1,0.6l-0.1,1.8l-0.1,0.6l-0.2,0.4l-0.4-0.1l-0.2-0.1l-0.5,0.1l-0.5-0.2l-1,0l-0.3,0.1
		l-0.4,0.3l0.1,0.2l0,0.1l0,0.1l0,0.1l0.1,0.1l0.3,0.3l-0.6,0.3l-0.2,0l0.1,0.3l0,0.3l0,0.3l0.1,0.2l0.2,0.2l0.3,0.1l0.8,0.1
		l0.5,0.2l0.3,0l0.3,0l0.3-0.1l0.1-0.1l0.1-0.1l0.1,0l0.6,1l0.1,0.4l-0.1,0.6l-0.2,0.5l-0.1,0.2l0,0.3l0.1,0.3l0.1,0.2l0,0.1
		l-0.4,0.3l-0.1,0.1l-0.2,0.4l-0.2,0.2L99.1,85l-0.2,0.2l-0.2,0.5l-0.1,0.1l-0.7,0.1l-0.2,0.1l-0.2,0.2l-0.1,0.1l-0.1,0.2l-0.1,0.1
		l-0.1,0.1l-0.1,0l-0.1,0L97,86.8l0,0.2l0.2,0.1l0.2,0.1l0.7,0.4l0.3,0.3l0.1,0.1l0,0.1l0,0.2l0,0l-0.1,0l-0.1,0.1l-0.2,0.4
		l-0.2,0.3l-0.3,0.1l-0.9,0l-1,0.3L95,90l-0.2,0.1h-0.2L94,89.9l0.1,0.4l0,0.2l-0.4,0.1l0-0.3l-0.2-0.1l-0.4-0.1l0-0.1L93,89.8
		l-0.1-0.1l-0.1,0l-0.3,0.1l-0.3-0.1l-0.3-0.3l-0.3-0.2l-0.3,0.2l0.1,0.1l0.4,0.4l0.1,0.2l-0.2,0l-0.2-0.1L91.1,90l-0.4,0.1
		l-0.1,0.1l-0.2,0.2l-0.2,0.1l-0.4,0.1l-0.2,0.1l0,0.1l0.2,0.2l0.1,0.3l0,0.3l-0.2,0.2l0,0.2l0.1,0l0.3,0l0.1,0.1l0.2,0.2l0.1,0.1
		l-0.1,0.5l0.2,0.3l0.7,0.3l-0.1,0.4L91,94l0,0.2l0.7,0.9l0.4,0.5l0.1,0.5l0,0.3l0,0.3L92.2,97l0,0.3l0.2,0.2l-0.1,0.1l0,0.4
		l-0.1,0.2l-0.1,0.1l-0.3,0.2l-0.1,0.1l-0.5,1L91,99.8l-0.1,0.2l-0.1,0.3l0,0.4l0.1,0.3l0.2,0.1l0.5-0.3l0.2,0.1l-0.1,0l-0.2,0.2
		l0.2,0.2l-0.2,0.2l-0.6,0.3l-0.9,0.7l-0.1,0.2l-0.2,0.4l-0.1,0.1l-0.2,0l-0.1-0.1l-0.1-0.2l-0.1-0.1l-0.3,0.1l0.1,0.4l0.2,0.5
		l0,0.4l0.1,0l0.3-0.1l0.1,0l0.1,0l0.3,0.1l0.4,0l0,0.1l-0.1,0.1l0,0.1l0,0.2l0,0.1l0.1,0.1l0.2,0.1l0.3,0.1l0,0.1l-0.1,0.1l0,0.1
		l0.1,0.3l0,0.1l-0.1,0.2l-0.1,0.1l-0.2,0l-0.1,0.1l-0.1,0.2l0,0.1l0,0.1l-0.1,0.2l-0.1,0.1l-0.2,0l0,0.2l0.1,0.1l0.1,0.1l0.1,0.1
		l0,0.2l0,0l0,0l0,0l0,0v0l0,0l0,0l0.1,0.1l0.1,0l0,0.1v0l0,0.2l0,0.1l0,0l0.1,0l0.4-0.1l0.2,0l0.2,0.2l0.1,0.2l0.5,0.8l0,0
		l-0.1,0.1l0.1,0.2l0.2,0.1l0.7,0l0,0.1l-0.1,0.1l0,0l-0.1,0.1v0.1l-0.2,0.1l-0.2,0.2l-0.1,0.1l-0.2,0.3l0,0l0.2,0.2l-0.1,0.1l0,0.1
		v0l0.1,0l0.1,0h0l-0.1,0.1l0.1,0.1l0,0h0l0,0.1l0.1,0.1l0.1,0l0,0l0,0l0.1,0l0.3-0.1l0,0l0,0l0,0l0,0l0,0l0,0l0.2,0.1l0.4,0.1
		l0.2,0l-0.1,0.1l0,0l0,0.1l0,0l0,0.1l0.1,0.2l0,0l0.1,0.1l0.1,0h0l0,0l0,0v0l0,0.1l0,0.2l-0.1,0.4l0,0l-0.1,0.2l0,0.2l0.3,0.6
		l0,0.2v0l-0.1,0.1l0,0l0,0l-0.3,0l-0.1,0l-0.1,0l0,0l-0.1,0l-0.1,0l-0.1,0l-0.1,0.1l0,0l-0.1,0.1l0,0.2l0,0.1h0l-0.2,0.2l-0.3,0.1
		l-0.2,0.1l-0.2,0.1l-0.1,0.1l0,0l-0.2,0.1l-0.1,0l-0.1,0.1l0,0l0.1,0.1l0,0l0,0.1l0,0.2l-0.1,0.1l0,0l-0.1,0l-0.2,0l0,0l-0.1,0l0,0
		l0,0l0,0.1l0,0.1l0,0.1l0.1,0.1l0,0.1v0l0,0l0,0.1l-0.1,0.1l-0.1,0.2l0,0.2l-0.1,0.4l0,0l0.1,0l0,0l0,0.1l-0.1,0.2l0.1,0.1l0.1,0.1
		l0.1,0.3l0,0.2l0,0.1l0.2,0.3l0.2,0.4l0.1,0.1l0.1-0.2l0.2,0.3l0.3,0.8l0.2,0.2l0.3,0.2l0.1,0.1l0,0.1l0.1,0.3l0,0.1l0.1,0l0.2-0.1
		l0.1,0l0.2,0.1l0.3,0.3l0.2,0.1l0.2,0h0.5l0.3,0.1l0,0l0.1,0.1l0,0l0,0.1l0,0l0,0.3l0,0.1l0,0.1l0,0.1l-0.1,0.1l0,0.1l0,0.1l0,0.1
		l0.1,0.1l-0.1,0l0,0l0,0.1l0.1,0.1l0,0l-0.7,0.5l-0.2,0.2l0,0.1l0.1,0l0.1,0.1l0,0.1l0,0.1l-0.1,0.1l-0.1,0.2l-0.3,0.3l-0.2,0.2
		l-0.1,0.2v0.5l-0.1,0.6l0,0.5v0.1l0.1,0l0.1,0l0.2-0.1l0.1,0l0.1,0l0.9,0.5l0.2,0.2l0.1,0.1l0,0.1l0,0.1l0,0l0.1,0.1l0.5,0.5l0,0.1
		l0,0.1l-0.2,0l-0.1,0.1l0.1,0.2l0.2,0.2l0.7,0.6l0,0.1l0,0.2l0,0.1l0.1,0l0.1,0.1l0,0l0.1,0.3l0,0.1l0,0l0,0.1l0,0.1l0,0l0.1-0.1h0
		l0.1,0.2l-0.1,0.2l0,0.2l0.1,0.2l0.1,0l0.4,0l0.4,0.1l0.1,0l0.2-0.2l0-0.3l-0.1-0.2l0.1-0.2l0.1,0l0.4,0.1l0.3,0l0.1,0l0.6,0.4
		l0.2,0l0,0.5l0.1,0.4l0.2,0.2l0.3-0.2l0-0.1l0-0.1l0-0.1l0.1-0.1l0.1,0l0.4,0.3l0.2,0.1l0.2,0.1l0.9,0l0.3,0.1l0.1,0l0.1-0.1
		l0.1-0.2l0.1-0.1l0.1,0l0.2,0l0.1,0l0.1-0.1l0.1-0.2l0-0.1l0.2-0.1l0.2-0.1l0.2,0l0,0.2l0.4,0l0.2,0.1l0.1,0.2l-0.1,0l0,0l0,0.1
		l0.1,0.1l0.2,0.4l0.1,0.2l0.2,0.1l0.4,0.1l0.2,0.1l0.1,0.1l0.1,0.2l0.1,0.1l0.1,0l0.1,0l0.1,0l0.1,0l0.1,0l0.2,0.1l0.1,0l0.1,0
		l0.2-0.1l0.1,0l0.8,0.2l0.6-0.1l0.2,0l1.6,0.8l1,0.2l0.1,0.1l-0.2,0.2l-0.3,0.6l-0.5,1.3l-0.1,0.2l-0.1,0.1l-0.4,0.2l-0.1,0l0,0
		l0,0l0,0.1l0,0.1l0,0.1l-0.1,0.1l-0.1,0l-0.3,0l-0.1,0l-0.1,0.1l0,0.3l0,0.1l-0.1,0.1l-0.1,0.1l-0.1,0.1l-0.3,0.3l-0.2,0.1L109,140
		l-0.1,0.1l-0.4,0.7l-0.1,0.5v0.5l0.1,0.3v0.1l-0.3,0.2l-0.1,0.1l-0.1,0.1l0,0.3l0,0.1l-0.1,0.1l-0.1,0.1l-0.1,0.2l-0.1,0.4l0,0.2
		l0,0.2l0.1,0.2l0.1,0.2l0,0.2l-0.1,0.2l-0.2,0.1l-0.2,0.1l-0.1,0.3l0,0.3l-0.1,0.3l-0.1,0.2l-0.6,0.9l-0.1,0.2l0,0.2l-0.1,0.1
		l-0.1,0.1l-0.1,0.1l-0.1,0.2l-0.1,0.3l0,0.6l0.4,0.8l0,0.5l-0.1,0.2l-0.3,0.3l-0.1,0.2l0,0.2l0,0.1l-0.1,0.2l0,0.1l-0.1,0.1l0,0.1
		l0,0.1l0,0l0,0l0,0.1l0.1,0.3l0,0.2l-0.1,0.1l-0.1,0.1l-0.1,0.5l0,0.2l0.1,0.5l0,0.2l-0.1,0.1l-0.2,0.2l0,0.1l0,0.3l0,0.2l0,0.1
		l0.1,0.1l0.1,0.2l0.2,0.5l0.1,0.1l0.1,0.1l0.1,0.1l0,0.1l0,0.1l0,0.1l0.5-0.2l0.2,0l-0.1,0.4l-0.1,0.1l-0.3,0l0.5,0.3l0.2,0
		l0.8-0.2l0.2-0.1l0.2-0.2l0.2-0.3l0.1,0.1l0.6,0l0.1,0.1l0,0.1l0,0.1l0,0.1h1.3l0.5-0.1l0.1-0.1l0-0.1l0-0.1l0.1-0.1l0.1-0.1
		l0.2-0.1l0.2-0.1l0.1-0.1l0-0.1l0.1,0l0.5-0.1l0.2,0l0.3,0.1l0.1,0l0.1,0.1l0.1,0.1l0.1,0.1l0.1,0.1l0.4,0.1l0.6,0l0.3-0.1l0-0.1
		l0.1-0.3l0.3-0.2l0.3,0l0.2,0.1l0.1,0.2l0.1,0.1l0.1,0l0.1-0.1l0-0.1l0-0.1l0-0.1l0-0.1l0-0.1l0-0.1l0-0.1l0,0l0.1,0l0,0l0,0l0,0.1
		l0.1,0l0.1-0.4l-0.1,0l-0.2-0.1l-0.1,0l-0.5,0.1l-0.2,0.1l-0.1,0.1l-0.1,0.1l-0.2,0l-0.2-0.1l-0.3-0.2l-0.1,0l-0.2-0.1l0.1-0.2
		l0-0.1l0-0.1l0-0.1l0.1-0.1l0.3-0.1l0.1-0.1l0.1-0.3l0-0.1l0.1-0.2l0.1,0l0.1,0l0.5-0.1l0.2-0.1l-0.1-0.2l0.2-0.1l0.3,0l0.2,0.1
		l0,0.1l0,0.2l0,0.2l0.1,0.1l0.1-0.1l0.1-0.3l0.1-0.1l0.1,0l0.1,0.1l0.1,0.2l0.1,0.1l0.1,0l0.1,0l0.1,0l0.1,0.2l0,0.1l-0.1,0.2
		l0,0.1l0,0.1l0.1,0.1l0,0.1l0,0.1l0.5,0l-0.1-0.1l0.1-0.3l0.3,0l0.3,0.2l0.3,0.2l-0.2,0v0.1l0.2,0.2l0.3,0.2l0.2,0.1l0.4,0l0.4-0.1
		l0.2-0.2l0.2-0.1l1.1,0.1h0.6l0.1,0.2h0.4l0.4,0.1l2.8,1.7l0.6,0.2l0.6,0l0.3-0.1l0.1-0.2l0.1-0.3l0.2-0.3l0.1-0.1l0.1,0l0.1,0.1
		l0.1,0.1l0,0.2l0,0.2l0,0.2l0.2,0.1l0.1,0l0.1-0.1l0.1,0l0.3,0.1l0.3,0l0.2,0l0.1-0.1l0,0.2l0.1,0.1l0.1,0.1l0.1,0.2v0l0,0l0,0.1
		l0.1,0.1l0.1,0l0.1-0.1l0.1-0.1l0.5,0.7l0.1,0.2l0,0.2l-0.2,0.2l0.1,0.1l0,0.2l0,0.2l0.1,0.1l0.1,0.1l0.1,0l0.1-0.1l0.1-0.1l0,0
		l0.1,0.1h0.1l0,0l0.1-0.1l0.4-0.1l0.2,0.1l0,0.3l-0.2,0.5l0,0.1l0,0.1l0,0.1l0,0l-0.1,0l0,0l-0.1,0.2l0,0.1l0,0l0.8-0.1l0.2-0.1
		l0.4-0.3l0.2-0.2l0.2-0.2l0.2-0.4l0.1-0.1l0.1-0.1l0.2-0.1l0.1-0.1l0.2-0.2l0.1-0.3l0.1-0.3v-0.3l0-0.2l-0.1-0.1l-0.1-0.1l-0.1-0.1
		l0.1-0.6l0-0.1l-0.1-0.2l-0.1-0.2l0-0.1l0.2-0.1l0.2,0l0.1,0l0,0l0,0.1l0,0.1l0,0.1l0,0.1l0,0.1l0.1,0.1l0.1,0.1l0.2,0.1l0.4,0.1
		l0.1,0l0.1-0.1l0.2-0.3l0.1-0.1l0.2,0l1.3,0.5l0,0l0,0.1l0.1,0.1l0.1,0l0.3,0l0.4-0.2l0.1,0l0.1,0l0.1,0.1l0.2,0.2l-0.1,0.1
		l-0.3,0.2l0.1,0.1l0.5,0.2l0.5,0.5l0,0.1l0,0.1l0,0.1l0,0.1l0,0l0.1,0.2l0.1,0.1l1,0l0.2-0.1l0.7-0.5l0.3-0.1l0.2,0.1l0,0.4l0.2,0
		l0.2-0.1l0.1-0.2l0.1-0.2l0.2-0.2l0.2-0.1l0.4,0l0.2-0.1l0.1-0.1l0-0.1l-0.1-0.1l-0.1,0l0.5-0.5l0.2-0.1l0.2,0l0.2,0.1l0.5-0.1
		l0.2-0.1l0.2-0.2l0.1-0.1l0.1-0.3l0.1-0.2l0.3-0.2l0,0l0.2,0l0.4,0.1l0.8,0l0.6,0.1l0.1,0l0.1-0.3l0.1-0.1l0.8-0.2l2.3,0.1l0.1,0
		l0.3-0.4l0-0.1l0-0.1l0-0.4l0-0.1l-0.1,0l-0.1-0.1l-0.1-0.1l0-0.1l0-0.1l0.2-0.1l0.2-0.2l0.1-0.1l0.1-0.1l0,0l0,0.1l0,0.2l0,0.1
		l-0.1,0.1l0,0.1l0.1,0.2l0.1,0.1l0.1,0l0.2-0.1l0.2,0l0.6,0.1l0.2,0l0.4-0.2l0.2,0l0,0.1l0.1,0.3l0.1,0.1l0.1,0.1l0.3,0.2l0.1,0.1
		l0.2,0l0.2,0l0.2-0.1l0.4-0.4l0.2-0.1l0.4-0.1h0.4l0.6,0.1l0.2,0l-0.1,0.3l0.2,0.2l0.3,0.2l0.2,0.2l-0.3,0.1l-0.1,0.3l0.1,0.4
		l0.2,0.2l0.2,0l0.1,0l0.1,0.1l0.5,0.5l0.5,0.4l0.1,0l0.1,0l0.1,0l0.1,0l0.1,0.1l0.1,0.1l0.1,0l0.1,0l0.1-0.1l0.3-0.3l0-0.1l0-0.1
		l0-0.1l0-0.1l0-0.1v-0.3l0,0l0.1-0.2l0,0l0,0l0-0.3l0,0l0.2-0.2l0,0l0.1-0.3l0,0l0-0.2l0-0.2l0-0.2l-0.1-0.2l-0.2-0.3l-0.1-0.1
		l-0.1-0.1l-0.2,0l-0.3,0.1l-0.2,0l-0.6-0.1l-0.2-0.2l0.2-0.3l0,0l0.1-0.1l0-0.1l0-0.1l0-0.1l0.1-0.1l0.6-1l0,0l-0.2-0.3l-0.3-0.8
		l-0.2-0.2l-0.1,0l-0.2-0.2l-0.2-0.1l-0.1-0.1l-0.1-0.2l0-0.2l-0.2-0.3l-0.7-0.7l-0.1-0.1l-0.1-0.2l0-0.2l0-0.2l0.1-0.1l0.1,0l0.1,0
		l0.1,0l0.1-0.2l0-0.1l0.4-0.3l0.1-0.2l0.2-0.3l0.1-0.1l0.2-0.1l0.6-0.1l0,0l0.2-0.1l0.3-0.2l0.4-0.4l0.2-0.1l1-0.4l1.4-0.2l0.3-0.2
		l1-0.9l0.1-0.2l0.1-0.3l0-0.1l0-0.1l0-0.1l0-0.2l0-0.4l0-0.1l0-0.1l0.1-0.3l0-0.1l0-0.1l-0.1-0.1l0-0.3l0-0.1l0-0.1l0.1-0.1
		l0.1-0.1l0.3-0.1l0.3,0l1,0.3l0.2,0.1l0.2,0.1l0.2,0.2l0.4,0.2l0,0l0.1-0.4l0.1-0.2l0,0l0.2,0l0.1,0l0.1-0.1l0-0.1l0.2-0.4l0.1-0.2
		l0-0.2l0-0.3l-0.1-0.5l0-0.2l0.1-0.1l-0.1-0.1l-0.1,0l-0.1-0.2l-0.1,0l0-0.1l0.3-0.6l-0.2-0.2l-0.5-1l-0.2-0.4l-0.1-0.1l-0.4-0.1
		l-0.2-0.1l-0.2-0.2l-0.2-0.2l-0.1-0.3l0-0.3l-0.2,0l-0.2-0.1l-0.2-0.1l-0.2-0.1l-0.2-0.1l-0.1,0.1l-0.1,0.2l-0.1,0.3l-0.2-0.1
		l-0.3-0.2l-0.3-0.3l-0.1-0.2l0-0.4l-0.1-0.3l-0.4-0.4l-0.3-0.4l-0.1-0.1l-0.2-0.1l-0.6,0l-0.3-0.2l-0.2-0.3l-0.1-0.3l-0.9-1.3
		l-0.1-0.1h0v0l-0.3-0.4l0-0.1l0-0.1l-0.1-0.1l-0.2-0.1l-0.3-0.3l-0.1-0.1l-0.2-0.1l-0.4-0.1l-0.1,0l0,0.2l-0.2,0l-0.6-0.1l-0.2-0.1
		l-0.2-0.2l-0.3-0.7l-0.2-0.2l-0.5-0.2l-0.2-0.2l-0.1-0.2l0-0.2l0-0.5l0-0.3l-0.1-0.1l-0.1,0l-0.1,0l-0.1-0.1l-0.1-0.1l-0.1-0.1
		l-0.1-0.2l0-0.2l0-0.3l-0.1-0.2l-0.1-0.1l-0.2-0.1l-0.1-0.1l0,0l0-0.1l-0.1,0l0,0l0.1-0.2l0-0.2l-0.1-0.2l-0.1-0.1l-0.3-0.2
		l-0.2-0.1l-0.1-0.1l-0.2-0.3l-0.1-0.2l0-0.2l0.1-0.2l0.4-0.2l0.2-0.2l0-0.3l0-0.3l0.1-0.2l0.2,0.1l0.1-0.2l0.2-0.4l0.1-0.2l0-0.3
		l-0.1-0.1l-0.1-0.1l-0.4-0.2l0-0.2l0.1-0.2l0-0.2l-0.2-0.2l-0.4,0l-0.2-0.2h0l-1.5-0.8l0-0.1l0-0.1l0-0.2l-0.1-0.2l-0.1-0.1
		l-0.2-0.1l-0.1-0.1l-0.1-0.2l0-0.2l0.1-0.4l0-0.2l-0.1-0.2l-0.1-0.2l-0.2-0.3l-0.5-0.3l-0.1-0.2l0.1-0.2l0.1-0.1l0.1-0.1l0-0.2
		l0-0.2l-0.1-0.1l-0.2-0.2l0.7,0.1l0.2,0.1l0.1,0.1l0,0.3l0,0.1l0.1,0.1l0.1,0l0.3,0l0.1,0l0,0.1l0,0.1l0,0.1l0,0l0,0l0,0l0,0l0,0
		l0,0l0,0l0,0l0.2,0.2l0,0.1l0,0.1l0,0.1l0,0.1l0.1,0.4l0.1,0.2l0.2,0l0.1-0.1v-0.1l-0.1-0.2l0-0.2l0-0.3l0.1-0.1l0.2-0.3l0-0.2
		l0.1-0.1l0.1-0.1l0.1-0.1l0.3-0.6l0.1-0.1l0.3-0.2l0.1-0.1l0,0l0.1,0l0,0l0-0.1l0-0.1l0-0.1v0l0-0.1l0-0.1l0-0.1l0.1-0.1l0.3-0.2
		l0.4-0.1l0.8-0.1l0.5,0.1l0.1,0l0.1-0.1l0.2-0.3l0.1-0.1l0.2-0.1l0.2,0l0.2,0l0.1,0l0.1-0.1l0.1,0l0.1,0l0.9,0.6l0.3,0l0.3-0.3
		l0.1-0.2l0.1-0.3l0.1-0.6l0.1-0.1l0.1,0l0.1,0l0.1,0.1l0.1,0l0.1,0l0.1,0l0.1,0l0,0l0.3-0.1l0.5,0l0.2-0.2l0.1-0.3l0.3-0.9l0.2,0
		l0.2,0.1l0.2,0.1l0.2-0.1l0.1-0.3l0.1-0.1l0.4-0.3l0.1-0.1l0-0.1l0,0l0.1,0l0.1,0.1l0.1,0.2l0.1,0.1l0.2,0.1l0.2,0l0.2-0.2l0.2-0.2
		l0.1-0.1l0.1-0.1l0-0.1l-0.1-0.1l0.2-0.1l0.1-0.2l0-0.2l-0.1-0.2l0.4-0.2l0.5-0.1l0.9,0l0.2,0l0.4-0.1l0.2,0l0.5,0.1l0.2,0l0.3-0.2
		l0.1,0l0.1,0l0.1-0.1l0-0.1l0-0.1l0-0.1l0-0.2l0.1-0.1l0.1,0l0.1,0l0.1,0l0.1-0.1l0.2-0.2l0.1-0.1l0.2,0l0.4,0l0.2,0l1.6-0.7
		l0.1-0.1l0.2-0.3l0.1-0.1l0.4-0.1l0.8,0.1l0.3-0.2l0.1-0.4l-0.3-0.2l-0.4-0.1l-0.3-0.3l0-0.2l0.1-0.1l0,0l-0.2-0.1l-0.3,0l-0.1-0.1
		l0.1-0.2l0.1-0.5l0.2-0.2l0.3-0.1l0.4,0.1l0.1,0.1l0.1,0.1l0.1,0.1l0.1,0.1l0.1,0l0.3-0.1l0.4,0l0.1-0.1l0.1-0.2l0.1,0.1l0,0.1
		l0,0.1l0.1,0.1l0.1,0.1l0.3,0.1l0.1,0.1l0.1,0.1l0.1,0.1l0,0.2l0,0.2l-0.1,0.2l-0.1,0.2l-0.1,0.2l0.1,0.1l0.6-0.2l0.1,0l0.1,0.2
		l-0.1,0.2l-0.2,0.4l0,0.3l0,0.1l0.3,0.1l0.1,0.1l0.4,0.3l0.4,0.1l0.2,0l0.2,0l0.1-0.1l0.1-0.2l0.2-0.4l0-0.3l0.1-0.2l0.4-0.4
		l0.5-1.2l0.4-1.1l0-0.2v-0.3l0-0.2l0.1-0.1l0.1-0.1l0.1-0.1l0-0.2l0-0.4l0.1-0.4l0.1-0.4L180.9,99.9L180.9,99.9z"/>
	<g>
		<path class="st1" d="M209.9,25.6h-0.7v-4.9l-2,4.9h-0.3l-2-4.9v4.9h-0.7v-6h1.1l1.9,4.5l1.9-4.5h1.1V25.6z"/>
		<path class="st1" d="M214.7,25.6H214v-0.5c-0.4,0.4-0.8,0.6-1.4,0.6c-0.4,0-0.8-0.1-1.1-0.4c-0.3-0.3-0.5-0.6-0.5-1.1
			c0-0.5,0.2-0.8,0.5-1.1c0.3-0.2,0.7-0.4,1.1-0.4c0.6,0,1.1,0.2,1.4,0.6v-0.8c0-0.3-0.1-0.5-0.3-0.7s-0.5-0.2-0.8-0.2
			c-0.5,0-1,0.2-1.3,0.6l-0.3-0.5c0.5-0.5,1-0.7,1.7-0.7c0.5,0,0.9,0.1,1.2,0.4c0.3,0.2,0.5,0.6,0.5,1.1V25.6z M212.8,25.2
			c0.5,0,0.9-0.2,1.2-0.5v-0.8c-0.3-0.4-0.7-0.5-1.2-0.5c-0.3,0-0.6,0.1-0.8,0.3s-0.3,0.4-0.3,0.7c0,0.3,0.1,0.5,0.3,0.7
			S212.5,25.2,212.8,25.2z"/>
		<path class="st1" d="M218,25.7c-0.6,0-1.2-0.2-1.6-0.7c-0.4-0.4-0.6-1-0.6-1.6c0-0.7,0.2-1.2,0.6-1.6c0.4-0.4,0.9-0.6,1.6-0.6
			c0.7,0,1.2,0.3,1.6,0.8l-0.5,0.4c-0.3-0.4-0.6-0.6-1.1-0.6c-0.5,0-0.8,0.2-1.1,0.5c-0.3,0.3-0.4,0.7-0.4,1.2
			c0,0.5,0.1,0.9,0.4,1.2c0.3,0.3,0.6,0.5,1.1,0.5s0.8-0.2,1.1-0.6l0.5,0.4C219.2,25.4,218.6,25.7,218,25.7z"/>
		<path class="st1" d="M222.5,25.7c-0.6,0-1.2-0.2-1.6-0.6c-0.4-0.4-0.6-1-0.6-1.7c0-0.6,0.2-1.2,0.6-1.6c0.4-0.4,0.9-0.7,1.5-0.7
			c0.6,0,1.2,0.2,1.5,0.7c0.4,0.4,0.6,1,0.6,1.7v0.2H221c0,0.4,0.2,0.8,0.5,1.1c0.3,0.3,0.6,0.4,1.1,0.4c0.5,0,1-0.2,1.3-0.5
			l0.3,0.4C223.7,25.5,223.2,25.7,222.5,25.7z M223.8,23.1c0-0.4-0.1-0.7-0.4-1c-0.2-0.3-0.6-0.4-1.1-0.4c-0.4,0-0.8,0.1-1,0.4
			c-0.2,0.3-0.4,0.6-0.4,1H223.8z"/>
		<path class="st1" d="M229.4,25.6h-0.7v-0.6c-0.4,0.5-0.9,0.8-1.5,0.8c-0.6,0-1-0.2-1.4-0.6s-0.5-1-0.5-1.7c0-0.7,0.2-1.2,0.5-1.7
			s0.8-0.6,1.4-0.6c0.6,0,1.1,0.3,1.5,0.8v-2.3h0.7V25.6z M227.4,25.1c0.3,0,0.5-0.1,0.8-0.2c0.2-0.1,0.4-0.3,0.5-0.5v-2
			c-0.1-0.2-0.3-0.4-0.6-0.5c-0.2-0.1-0.5-0.2-0.8-0.2c-0.4,0-0.8,0.2-1,0.5c-0.3,0.3-0.4,0.7-0.4,1.2s0.1,0.9,0.4,1.2
			C226.7,24.9,227,25.1,227.4,25.1z"/>
		<path class="st1" d="M234.2,25c-0.4,0.4-0.9,0.7-1.6,0.7c-0.6,0-1.2-0.2-1.6-0.7c-0.4-0.4-0.6-1-0.6-1.6c0-0.6,0.2-1.2,0.6-1.6
			c0.4-0.4,0.9-0.7,1.6-0.7c0.6,0,1.2,0.2,1.6,0.7c0.4,0.4,0.6,1,0.6,1.6C234.8,24,234.6,24.6,234.2,25z M231.6,24.6
			c0.3,0.3,0.6,0.5,1.1,0.5c0.4,0,0.8-0.2,1.1-0.5s0.4-0.7,0.4-1.2c0-0.5-0.1-0.9-0.4-1.2s-0.6-0.5-1.1-0.5c-0.4,0-0.8,0.2-1.1,0.5
			c-0.3,0.3-0.4,0.7-0.4,1.2C231.2,23.9,231.3,24.3,231.6,24.6z"/>
		<path class="st1" d="M239.5,25.6h-0.7v-2.8c0-0.4-0.1-0.6-0.3-0.8c-0.2-0.2-0.4-0.2-0.7-0.2c-0.3,0-0.5,0.1-0.7,0.2
			c-0.2,0.1-0.4,0.3-0.6,0.5v3.2h-0.7v-4.3h0.7v0.6c0.2-0.2,0.4-0.4,0.7-0.5c0.3-0.1,0.6-0.2,0.9-0.2c0.9,0,1.4,0.5,1.4,1.4V25.6z"
			/>
		<path class="st1" d="M241.2,20.6c-0.1,0-0.2,0-0.3-0.1c-0.1-0.1-0.1-0.2-0.1-0.3s0-0.2,0.1-0.3c0.1-0.1,0.2-0.1,0.3-0.1
			c0.1,0,0.2,0,0.3,0.1s0.1,0.2,0.1,0.3s0,0.2-0.1,0.3S241.3,20.6,241.2,20.6z M241.5,25.6h-0.7v-4.3h0.7V25.6z"/>
		<path class="st1" d="M246.3,25.6h-0.7v-0.5c-0.4,0.4-0.8,0.6-1.4,0.6c-0.4,0-0.8-0.1-1.1-0.4s-0.5-0.6-0.5-1.1
			c0-0.5,0.2-0.8,0.5-1.1s0.7-0.4,1.1-0.4c0.6,0,1.1,0.2,1.4,0.6v-0.8c0-0.3-0.1-0.5-0.3-0.7c-0.2-0.2-0.5-0.2-0.8-0.2
			c-0.5,0-1,0.2-1.3,0.6l-0.3-0.5c0.5-0.5,1-0.7,1.7-0.7c0.5,0,0.9,0.1,1.2,0.4c0.3,0.2,0.5,0.6,0.5,1.1V25.6z M244.4,25.2
			c0.5,0,0.9-0.2,1.2-0.5v-0.8c-0.3-0.4-0.7-0.5-1.2-0.5c-0.3,0-0.6,0.1-0.8,0.3c-0.2,0.2-0.3,0.4-0.3,0.7c0,0.3,0.1,0.5,0.3,0.7
			C243.8,25.1,244.1,25.2,244.4,25.2z"/>
	</g>
	<g>
		<path class="st1" d="M209.2,72h-0.9l-0.5-1.3h-3l-0.5,1.3h-0.9l2.4-6h0.9L209.2,72z M207.6,70l-1.3-3.2L205,70H207.6z"/>
		<path class="st1" d="M210.6,72h-0.7v-6h0.7V72z"/>
		<path class="st1" d="M212.6,72H212v-6h0.7v2.3c0.4-0.5,0.9-0.8,1.5-0.8c0.6,0,1,0.2,1.4,0.6s0.5,1,0.5,1.7c0,0.7-0.2,1.2-0.5,1.7
			c-0.4,0.4-0.8,0.6-1.4,0.6c-0.6,0-1.1-0.3-1.5-0.8V72z M212.6,70.9c0.1,0.2,0.3,0.4,0.5,0.5s0.5,0.2,0.8,0.2c0.4,0,0.8-0.2,1-0.5
			c0.3-0.3,0.4-0.7,0.4-1.2s-0.1-0.9-0.4-1.2c-0.3-0.3-0.6-0.5-1-0.5c-0.3,0-0.5,0.1-0.8,0.2s-0.4,0.3-0.5,0.5V70.9z"/>
		<path class="st1" d="M220.5,72h-0.7v-0.5c-0.4,0.4-0.8,0.6-1.4,0.6c-0.4,0-0.8-0.1-1.1-0.4c-0.3-0.3-0.5-0.6-0.5-1.1
			c0-0.5,0.2-0.8,0.5-1.1c0.3-0.2,0.7-0.4,1.1-0.4c0.6,0,1.1,0.2,1.4,0.6v-0.8c0-0.3-0.1-0.5-0.3-0.7s-0.5-0.2-0.8-0.2
			c-0.5,0-1,0.2-1.3,0.6l-0.3-0.5c0.5-0.5,1-0.7,1.7-0.7c0.5,0,0.9,0.1,1.2,0.4c0.3,0.2,0.5,0.6,0.5,1.1V72z M218.7,71.7
			c0.5,0,0.9-0.2,1.2-0.5v-0.8c-0.3-0.4-0.7-0.5-1.2-0.5c-0.3,0-0.6,0.1-0.8,0.3c-0.2,0.2-0.3,0.4-0.3,0.7c0,0.3,0.1,0.5,0.3,0.7
			C218.1,71.6,218.4,71.7,218.7,71.7z"/>
		<path class="st1" d="M225.5,72h-0.7v-2.8c0-0.4-0.1-0.6-0.3-0.8c-0.2-0.2-0.4-0.2-0.7-0.2c-0.3,0-0.5,0.1-0.7,0.2
			c-0.2,0.1-0.4,0.3-0.6,0.5V72h-0.7v-4.3h0.7v0.6c0.2-0.2,0.4-0.4,0.7-0.5c0.3-0.1,0.6-0.2,0.9-0.2c0.9,0,1.4,0.5,1.4,1.4V72z"/>
		<path class="st1" d="M227.2,67.1c-0.1,0-0.2,0-0.3-0.1c-0.1-0.1-0.1-0.2-0.1-0.3s0-0.2,0.1-0.3c0.1-0.1,0.2-0.1,0.3-0.1
			c0.1,0,0.2,0,0.3,0.1c0.1,0.1,0.1,0.2,0.1,0.3s0,0.2-0.1,0.3C227.4,67,227.3,67.1,227.2,67.1z M227.5,72h-0.7v-4.3h0.7V72z"/>
		<path class="st1" d="M232.3,72h-0.7v-0.5c-0.4,0.4-0.8,0.6-1.4,0.6c-0.4,0-0.8-0.1-1.1-0.4c-0.3-0.3-0.5-0.6-0.5-1.1
			c0-0.5,0.2-0.8,0.5-1.1c0.3-0.2,0.7-0.4,1.1-0.4c0.6,0,1.1,0.2,1.4,0.6v-0.8c0-0.3-0.1-0.5-0.3-0.7c-0.2-0.2-0.5-0.2-0.8-0.2
			c-0.5,0-1,0.2-1.3,0.6l-0.3-0.5c0.5-0.5,1-0.7,1.7-0.7c0.5,0,0.9,0.1,1.2,0.4s0.5,0.6,0.5,1.1V72z M230.4,71.7
			c0.5,0,0.9-0.2,1.2-0.5v-0.8c-0.3-0.4-0.7-0.5-1.2-0.5c-0.3,0-0.6,0.1-0.8,0.3c-0.2,0.2-0.3,0.4-0.3,0.7c0,0.3,0.1,0.5,0.3,0.7
			C229.8,71.6,230.1,71.7,230.4,71.7z"/>
	</g>
	<g>
		<path class="st1" d="M206,107.9c-1,0-1.7-0.3-2.3-1l0.4-0.6c0.5,0.6,1.1,0.9,1.9,0.9c0.5,0,0.8-0.1,1.1-0.3
			c0.2-0.2,0.3-0.4,0.3-0.7c0-0.2-0.1-0.4-0.2-0.5c-0.1-0.1-0.3-0.3-0.5-0.3s-0.4-0.2-0.7-0.2c-0.3-0.1-0.5-0.1-0.8-0.2
			s-0.5-0.2-0.7-0.3c-0.2-0.1-0.4-0.3-0.5-0.5s-0.2-0.5-0.2-0.7c0-0.5,0.2-0.9,0.6-1.2c0.4-0.3,0.9-0.5,1.5-0.5
			c0.9,0,1.6,0.3,2.1,0.8l-0.5,0.5c-0.4-0.5-1-0.7-1.7-0.7c-0.4,0-0.7,0.1-0.9,0.3c-0.2,0.2-0.3,0.4-0.3,0.7c0,0.2,0.1,0.4,0.3,0.5
			c0.2,0.1,0.4,0.2,0.7,0.3c0.3,0.1,0.5,0.1,0.9,0.2c0.3,0.1,0.6,0.2,0.9,0.3c0.3,0.1,0.5,0.3,0.7,0.5c0.2,0.2,0.3,0.5,0.3,0.9
			c0,0.5-0.2,0.9-0.5,1.3C207.3,107.7,206.7,107.9,206,107.9z"/>
		<path class="st1" d="M211.3,107.9c-0.6,0-1.2-0.2-1.6-0.6s-0.6-1-0.6-1.7c0-0.6,0.2-1.2,0.6-1.6c0.4-0.4,0.9-0.7,1.5-0.7
			c0.6,0,1.2,0.2,1.5,0.7c0.4,0.4,0.6,1,0.6,1.7v0.2h-3.5c0,0.4,0.2,0.8,0.5,1.1c0.3,0.3,0.6,0.4,1.1,0.4c0.5,0,1-0.2,1.3-0.5
			l0.3,0.4C212.5,107.6,212,107.9,211.3,107.9z M212.6,105.3c0-0.4-0.1-0.7-0.4-1s-0.6-0.4-1.1-0.4c-0.4,0-0.8,0.1-1,0.4
			c-0.2,0.3-0.4,0.6-0.4,1H212.6z"/>
		<path class="st1" d="M215,107.8h-0.7v-4.3h0.7v0.7c0.4-0.5,0.9-0.8,1.4-0.8v0.7c-0.1,0-0.2,0-0.3,0c-0.2,0-0.4,0.1-0.7,0.2
			c-0.2,0.1-0.4,0.3-0.5,0.5V107.8z"/>
		<path class="st1" d="M218,107.8h-0.7v-6h0.7v2.3c0.4-0.5,0.9-0.8,1.5-0.8c0.6,0,1,0.2,1.4,0.6c0.4,0.4,0.5,1,0.5,1.7
			c0,0.7-0.2,1.2-0.5,1.7c-0.4,0.4-0.8,0.6-1.4,0.6c-0.6,0-1.1-0.3-1.5-0.8V107.8z M218,106.6c0.1,0.2,0.3,0.4,0.5,0.5
			c0.2,0.1,0.5,0.2,0.8,0.2c0.4,0,0.8-0.2,1-0.5c0.3-0.3,0.4-0.7,0.4-1.2s-0.1-0.9-0.4-1.2c-0.3-0.3-0.6-0.5-1-0.5
			c-0.3,0-0.5,0.1-0.8,0.2c-0.2,0.1-0.4,0.3-0.5,0.5V106.6z"/>
		<path class="st1" d="M222.8,102.8c-0.1,0-0.2,0-0.3-0.1c-0.1-0.1-0.1-0.2-0.1-0.3s0-0.2,0.1-0.3c0.1-0.1,0.2-0.1,0.3-0.1
			c0.1,0,0.2,0,0.3,0.1c0.1,0.1,0.1,0.2,0.1,0.3s0,0.2-0.1,0.3C223.1,102.8,223,102.8,222.8,102.8z M223.2,107.8h-0.7v-4.3h0.7
			V107.8z"/>
		<path class="st1" d="M227.9,107.8h-0.7v-0.5c-0.4,0.4-0.8,0.6-1.4,0.6c-0.4,0-0.8-0.1-1.1-0.4c-0.3-0.3-0.5-0.6-0.5-1.1
			c0-0.5,0.2-0.8,0.5-1.1c0.3-0.2,0.7-0.4,1.1-0.4c0.6,0,1.1,0.2,1.4,0.6v-0.8c0-0.3-0.1-0.5-0.3-0.7s-0.5-0.2-0.8-0.2
			c-0.5,0-1,0.2-1.3,0.6l-0.3-0.5c0.5-0.5,1-0.7,1.7-0.7c0.5,0,0.9,0.1,1.2,0.4c0.3,0.2,0.5,0.6,0.5,1.1V107.8z M226.1,107.4
			c0.5,0,0.9-0.2,1.2-0.5V106c-0.3-0.4-0.7-0.5-1.2-0.5c-0.3,0-0.6,0.1-0.8,0.3c-0.2,0.2-0.3,0.4-0.3,0.7c0,0.3,0.1,0.5,0.3,0.7
			C225.5,107.3,225.7,107.4,226.1,107.4z"/>
	</g>
	<g>
		<path class="st1" d="M208.6,146.1h-0.9l-2.3-2.7l-0.6,0.7v2h-0.7v-6h0.7v3.1l2.7-3.1h0.9l-2.5,2.9L208.6,146.1z"/>
		<path class="st1" d="M212.6,145.5c-0.4,0.4-0.9,0.7-1.6,0.7c-0.6,0-1.2-0.2-1.6-0.7c-0.4-0.4-0.6-1-0.6-1.6s0.2-1.2,0.6-1.6
			c0.4-0.4,0.9-0.7,1.6-0.7c0.6,0,1.2,0.2,1.6,0.7c0.4,0.4,0.6,1,0.6,1.6S213,145.1,212.6,145.5z M210,145.1
			c0.3,0.3,0.6,0.5,1.1,0.5s0.8-0.2,1.1-0.5s0.4-0.7,0.4-1.2s-0.1-0.9-0.4-1.2c-0.3-0.3-0.6-0.5-1.1-0.5s-0.8,0.2-1.1,0.5
			c-0.3,0.3-0.4,0.7-0.4,1.2C209.6,144.4,209.7,144.8,210,145.1z"/>
		<path class="st1" d="M215.7,146.2c-0.7,0-1.3-0.2-1.8-0.7l0.4-0.5c0.2,0.2,0.4,0.3,0.6,0.4c0.3,0.1,0.5,0.2,0.8,0.2
			c0.3,0,0.6-0.1,0.8-0.2c0.2-0.1,0.3-0.3,0.3-0.5c0-0.2-0.1-0.3-0.3-0.5c-0.2-0.1-0.4-0.2-0.7-0.3c-0.3-0.1-0.5-0.1-0.8-0.2
			c-0.3-0.1-0.5-0.2-0.7-0.4c-0.2-0.2-0.3-0.4-0.3-0.7c0-0.4,0.1-0.7,0.4-0.9s0.7-0.4,1.2-0.4c0.7,0,1.2,0.2,1.6,0.6l-0.3,0.5
			c-0.3-0.4-0.7-0.5-1.3-0.5c-0.3,0-0.5,0.1-0.7,0.2s-0.3,0.3-0.3,0.5c0,0.2,0.1,0.3,0.3,0.4c0.2,0.1,0.4,0.2,0.7,0.2
			c0.3,0.1,0.5,0.1,0.8,0.2s0.5,0.2,0.7,0.4c0.2,0.2,0.3,0.4,0.3,0.8c0,0.4-0.2,0.7-0.5,0.9C216.6,146.1,216.2,146.2,215.7,146.2z"
			/>
		<path class="st1" d="M221.9,145.5c-0.4,0.4-0.9,0.7-1.6,0.7s-1.2-0.2-1.6-0.7c-0.4-0.4-0.6-1-0.6-1.6s0.2-1.2,0.6-1.6
			c0.4-0.4,0.9-0.7,1.6-0.7s1.2,0.2,1.6,0.7c0.4,0.4,0.6,1,0.6,1.6S222.3,145.1,221.9,145.5z M219.3,145.1c0.3,0.3,0.6,0.5,1.1,0.5
			c0.4,0,0.8-0.2,1.1-0.5s0.4-0.7,0.4-1.2s-0.1-0.9-0.4-1.2c-0.3-0.3-0.6-0.5-1.1-0.5c-0.4,0-0.8,0.2-1.1,0.5s-0.4,0.7-0.4,1.2
			C218.9,144.4,219,144.8,219.3,145.1z"/>
		<path class="st1" d="M225.5,146.1h-0.7l-1.8-4.3h0.7l1.4,3.6l1.4-3.6h0.7L225.5,146.1z"/>
		<path class="st1" d="M231.5,145.5c-0.4,0.4-0.9,0.7-1.6,0.7c-0.6,0-1.2-0.2-1.6-0.7c-0.4-0.4-0.6-1-0.6-1.6s0.2-1.2,0.6-1.6
			c0.4-0.4,0.9-0.7,1.6-0.7c0.6,0,1.2,0.2,1.6,0.7c0.4,0.4,0.6,1,0.6,1.6S231.9,145.1,231.5,145.5z M228.9,145.1
			c0.3,0.3,0.6,0.5,1.1,0.5s0.8-0.2,1.1-0.5s0.4-0.7,0.4-1.2s-0.1-0.9-0.4-1.2c-0.3-0.3-0.6-0.5-1.1-0.5s-0.8,0.2-1.1,0.5
			c-0.3,0.3-0.4,0.7-0.4,1.2C228.5,144.4,228.6,144.8,228.9,145.1z"/>
	</g>
	<g>
		<path class="st1" d="M45.7,37.7h-3.9v-6h3.9v0.7h-3.2v1.9h3.1V35h-3.1V37h3.2V37.7z"/>
		<path class="st1" d="M47.5,37.7h-0.7v-4.3h0.7v0.7c0.4-0.5,0.9-0.8,1.4-0.8V34c-0.1,0-0.2,0-0.3,0c-0.2,0-0.4,0.1-0.7,0.2
			c-0.2,0.1-0.4,0.3-0.5,0.5V37.7z"/>
		<path class="st1" d="M50.2,32.7c-0.1,0-0.2,0-0.3-0.1c-0.1-0.1-0.1-0.2-0.1-0.3s0-0.2,0.1-0.3c0.1-0.1,0.2-0.1,0.3-0.1
			c0.1,0,0.2,0,0.3,0.1c0.1,0.1,0.1,0.2,0.1,0.3s0,0.2-0.1,0.3C50.4,32.7,50.3,32.7,50.2,32.7z M50.5,37.7h-0.7v-4.3h0.7V37.7z"/>
		<path class="st1" d="M52.9,37.8c-0.3,0-0.6-0.1-0.7-0.3c-0.2-0.2-0.2-0.4-0.2-0.8V34h-0.7v-0.6H52v-1.2h0.7v1.2h0.9V34h-0.9v2.7
			c0,0.2,0,0.3,0.1,0.4c0.1,0.1,0.2,0.2,0.3,0.2c0.2,0,0.4-0.1,0.5-0.2l0.2,0.5C53.6,37.7,53.3,37.8,52.9,37.8z"/>
		<path class="st1" d="M55.2,37.7h-0.7v-4.3h0.7v0.7c0.4-0.5,0.9-0.8,1.4-0.8V34c-0.1,0-0.2,0-0.3,0c-0.2,0-0.4,0.1-0.7,0.2
			c-0.2,0.1-0.4,0.3-0.5,0.5V37.7z"/>
		<path class="st1" d="M59.4,37.8c-0.6,0-1.2-0.2-1.6-0.6s-0.6-1-0.6-1.7c0-0.6,0.2-1.2,0.6-1.6c0.4-0.4,0.9-0.7,1.5-0.7
			c0.6,0,1.2,0.2,1.5,0.7c0.4,0.4,0.6,1,0.6,1.7v0.2h-3.5c0,0.4,0.2,0.8,0.5,1.1c0.3,0.3,0.6,0.4,1.1,0.4c0.5,0,1-0.2,1.3-0.5
			l0.3,0.4C60.7,37.6,60.1,37.8,59.4,37.8z M60.8,35.3c0-0.4-0.1-0.7-0.4-1s-0.6-0.4-1.1-0.4c-0.4,0-0.8,0.1-1,0.4
			c-0.2,0.3-0.4,0.6-0.4,1H60.8z"/>
		<path class="st1" d="M65.9,37.7h-0.7v-0.5c-0.4,0.4-0.8,0.6-1.4,0.6c-0.4,0-0.8-0.1-1.1-0.4c-0.3-0.3-0.5-0.6-0.5-1.1
			c0-0.5,0.2-0.8,0.5-1.1c0.3-0.2,0.7-0.4,1.1-0.4c0.6,0,1.1,0.2,1.4,0.6v-0.8c0-0.3-0.1-0.5-0.3-0.7c-0.2-0.2-0.5-0.2-0.8-0.2
			c-0.5,0-1,0.2-1.3,0.6L62.5,34c0.5-0.5,1-0.7,1.7-0.7c0.5,0,0.9,0.1,1.2,0.4s0.5,0.6,0.5,1.1V37.7z M64.1,37.3
			c0.5,0,0.9-0.2,1.2-0.5V36c-0.3-0.4-0.7-0.5-1.2-0.5c-0.3,0-0.6,0.1-0.8,0.3c-0.2,0.2-0.3,0.4-0.3,0.7c0,0.3,0.1,0.5,0.3,0.7
			C63.5,37.2,63.7,37.3,64.1,37.3z"/>
	</g>
	<g>
		<path class="st1" d="M129.5,8.1h-0.7v-6h0.7V8.1z"/>
		<path class="st1" d="M131.6,8.1h-0.7V3.8h0.7v0.7c0.4-0.5,0.9-0.8,1.4-0.8v0.7c-0.1,0-0.2,0-0.3,0c-0.2,0-0.4,0.1-0.7,0.2
			c-0.2,0.1-0.4,0.3-0.5,0.5V8.1z"/>
		<path class="st1" d="M137.2,8.1h-0.7V7.6c-0.4,0.4-0.8,0.6-1.4,0.6c-0.4,0-0.8-0.1-1.1-0.4c-0.3-0.3-0.5-0.6-0.5-1.1
			c0-0.5,0.2-0.8,0.5-1.1c0.3-0.2,0.7-0.4,1.1-0.4c0.6,0,1.1,0.2,1.4,0.6V5.2c0-0.3-0.1-0.5-0.3-0.7s-0.5-0.2-0.8-0.2
			c-0.5,0-1,0.2-1.3,0.6l-0.3-0.5c0.5-0.5,1-0.7,1.7-0.7c0.5,0,0.9,0.1,1.2,0.4c0.3,0.2,0.5,0.6,0.5,1.1V8.1z M135.4,7.7
			c0.5,0,0.9-0.2,1.2-0.5V6.4c-0.3-0.4-0.7-0.5-1.2-0.5c-0.3,0-0.6,0.1-0.8,0.3c-0.2,0.2-0.3,0.4-0.3,0.7c0,0.3,0.1,0.5,0.3,0.7
			C134.8,7.7,135.1,7.7,135.4,7.7z"/>
		<path class="st1" d="M140.2,8.2c-0.6,0-1-0.2-1.4-0.6c-0.4-0.4-0.5-1-0.5-1.7s0.2-1.2,0.5-1.7s0.8-0.6,1.4-0.6
			c0.3,0,0.6,0.1,0.8,0.2c0.3,0.1,0.5,0.3,0.6,0.5V3.8h0.7v6h-0.7V7.5C141.3,8,140.9,8.2,140.2,8.2z M140.4,7.6
			c0.3,0,0.5-0.1,0.8-0.2c0.2-0.1,0.4-0.3,0.5-0.5V5c-0.1-0.2-0.3-0.4-0.5-0.5c-0.2-0.1-0.5-0.2-0.8-0.2c-0.4,0-0.8,0.2-1,0.5
			C139.1,5,139,5.5,139,5.9s0.1,0.9,0.4,1.2C139.6,7.5,140,7.6,140.4,7.6z"/>
	</g>
	<g>
		<path class="st1" d="M49.9,171.2c-1,0-1.7-0.3-2.3-1l0.4-0.6c0.5,0.6,1.1,0.9,1.9,0.9c0.5,0,0.8-0.1,1.1-0.3s0.3-0.4,0.3-0.7
			c0-0.2-0.1-0.4-0.2-0.5c-0.1-0.1-0.3-0.3-0.5-0.3s-0.4-0.2-0.7-0.2s-0.5-0.1-0.8-0.2c-0.3-0.1-0.5-0.2-0.7-0.3
			c-0.2-0.1-0.4-0.3-0.5-0.5c-0.1-0.2-0.2-0.5-0.2-0.7c0-0.5,0.2-0.9,0.6-1.2c0.4-0.3,0.9-0.5,1.5-0.5c0.9,0,1.6,0.3,2.1,0.8
			l-0.5,0.5c-0.4-0.5-1-0.7-1.7-0.7c-0.4,0-0.7,0.1-0.9,0.3s-0.3,0.4-0.3,0.7c0,0.2,0.1,0.4,0.3,0.5c0.2,0.1,0.4,0.2,0.7,0.3
			c0.3,0.1,0.5,0.1,0.9,0.2c0.3,0.1,0.6,0.2,0.9,0.3s0.5,0.3,0.7,0.5c0.2,0.2,0.3,0.5,0.3,0.9c0,0.5-0.2,0.9-0.5,1.3
			C51.2,171.1,50.6,171.2,49.9,171.2z"/>
		<path class="st1" d="M52.9,172.8l0.1-0.6c0.1,0,0.2,0.1,0.4,0.1c0.2,0,0.3,0,0.4-0.1c0.1-0.1,0.2-0.2,0.3-0.4l0.3-0.7l-1.8-4.4
			h0.7l1.4,3.6l1.4-3.6h0.7l-2.2,5.2c-0.2,0.6-0.7,0.9-1.3,0.9C53.2,172.9,53,172.9,52.9,172.8z"/>
		<path class="st1" d="M58.2,171.1h-0.7v-4.3h0.7v0.7c0.4-0.5,0.9-0.8,1.4-0.8v0.7c-0.1,0-0.2,0-0.3,0c-0.2,0-0.4,0.1-0.7,0.2
			c-0.2,0.1-0.4,0.3-0.5,0.5V171.1z"/>
		<path class="st1" d="M60.8,166.2c-0.1,0-0.2,0-0.3-0.1c-0.1-0.1-0.1-0.2-0.1-0.3s0-0.2,0.1-0.3c0.1-0.1,0.2-0.1,0.3-0.1
			c0.1,0,0.2,0,0.3,0.1c0.1,0.1,0.1,0.2,0.1,0.3s0,0.2-0.1,0.3C61.1,166.1,61,166.2,60.8,166.2z M61.2,171.1h-0.7v-4.3h0.7V171.1z"
			/>
		<path class="st1" d="M65.9,171.1h-0.7v-0.5c-0.4,0.4-0.8,0.6-1.4,0.6c-0.4,0-0.8-0.1-1.1-0.4c-0.3-0.3-0.5-0.6-0.5-1.1
			c0-0.5,0.2-0.8,0.5-1.1c0.3-0.2,0.7-0.4,1.1-0.4c0.6,0,1.1,0.2,1.4,0.6v-0.8c0-0.3-0.1-0.5-0.3-0.7s-0.5-0.2-0.8-0.2
			c-0.5,0-1,0.2-1.3,0.6l-0.3-0.5c0.5-0.5,1-0.7,1.7-0.7c0.5,0,0.9,0.1,1.2,0.4c0.3,0.2,0.5,0.6,0.5,1.1V171.1z M64,170.7
			c0.5,0,0.9-0.2,1.2-0.5v-0.8c-0.3-0.4-0.7-0.5-1.2-0.5c-0.3,0-0.6,0.1-0.8,0.3c-0.2,0.2-0.3,0.4-0.3,0.7c0,0.3,0.1,0.5,0.3,0.7
			C63.5,170.7,63.7,170.7,64,170.7z"/>
	</g>
	<g>
		<path class="st1" d="M25.7,71.6h-0.9l-0.5-1.3h-3l-0.5,1.3h-0.9l2.4-6h0.9L25.7,71.6z M24,69.6l-1.3-3.2l-1.3,3.2H24z"/>
		<path class="st1" d="M27.2,71.6h-0.7v-3.8h-0.7v-0.6h0.7v-0.3c0-0.4,0.1-0.8,0.3-1c0.2-0.2,0.5-0.4,0.9-0.4c0.4,0,0.7,0.1,0.9,0.3
			l-0.3,0.4c-0.2-0.1-0.3-0.2-0.5-0.2c-0.2,0-0.4,0.1-0.5,0.2c-0.1,0.1-0.2,0.4-0.2,0.6v0.3h0.9v0.6h-0.9V71.6z"/>
		<path class="st1" d="M30.6,73.3c-0.4,0-0.7,0-1-0.1s-0.5-0.3-0.8-0.5l0.3-0.5c0.3,0.4,0.8,0.6,1.4,0.6c0.4,0,0.7-0.1,1-0.3
			c0.3-0.2,0.4-0.5,0.4-1v-0.6c-0.2,0.2-0.4,0.4-0.6,0.6c-0.3,0.1-0.5,0.2-0.8,0.2c-0.6,0-1-0.2-1.4-0.6s-0.5-1-0.5-1.6
			c0-0.7,0.2-1.2,0.5-1.6c0.4-0.4,0.8-0.6,1.4-0.6c0.6,0,1.1,0.3,1.5,0.8v-0.7h0.7v4.2c0,0.7-0.2,1.1-0.6,1.4
			C31.7,73.2,31.2,73.3,30.6,73.3z M30.7,71c0.3,0,0.5-0.1,0.8-0.2c0.2-0.1,0.4-0.3,0.5-0.5v-1.9c-0.1-0.2-0.3-0.4-0.5-0.5
			c-0.2-0.1-0.5-0.2-0.8-0.2c-0.4,0-0.8,0.2-1,0.5c-0.2,0.3-0.4,0.7-0.4,1.2c0,0.5,0.1,0.9,0.4,1.2C30,70.9,30.3,71,30.7,71z"/>
		<path class="st1" d="M37.7,71.6H37v-2.9c0-0.4-0.1-0.6-0.3-0.8c-0.2-0.2-0.4-0.2-0.7-0.2c-0.2,0-0.5,0.1-0.7,0.2s-0.4,0.3-0.6,0.5
			v3.2H34v-6h0.7v2.3c0.2-0.2,0.4-0.4,0.7-0.5c0.3-0.1,0.6-0.2,0.9-0.2c0.9,0,1.4,0.5,1.4,1.4V71.6z"/>
		<path class="st1" d="M42.4,71.6h-0.7v-0.5c-0.4,0.4-0.8,0.6-1.4,0.6c-0.4,0-0.8-0.1-1.1-0.4c-0.3-0.3-0.5-0.6-0.5-1.1
			c0-0.5,0.2-0.8,0.5-1.1c0.3-0.2,0.7-0.4,1.1-0.4c0.6,0,1.1,0.2,1.4,0.6v-0.8c0-0.3-0.1-0.5-0.3-0.7c-0.2-0.2-0.5-0.2-0.8-0.2
			c-0.5,0-1,0.2-1.3,0.6L39,67.8c0.5-0.5,1-0.7,1.7-0.7c0.5,0,0.9,0.1,1.2,0.4c0.3,0.2,0.5,0.6,0.5,1.1V71.6z M40.5,71.2
			c0.5,0,0.9-0.2,1.2-0.5v-0.8c-0.3-0.4-0.7-0.5-1.2-0.5c-0.3,0-0.6,0.1-0.8,0.3s-0.3,0.4-0.3,0.7c0,0.3,0.1,0.5,0.3,0.7
			S40.2,71.2,40.5,71.2z"/>
		<path class="st1" d="M47.4,71.6h-0.7v-2.8c0-0.4-0.1-0.6-0.3-0.8c-0.2-0.2-0.4-0.2-0.7-0.2c-0.3,0-0.5,0.1-0.7,0.2
			c-0.2,0.1-0.4,0.3-0.6,0.5v3.2h-0.7v-4.3h0.7v0.6c0.2-0.2,0.4-0.4,0.7-0.5c0.3-0.1,0.6-0.2,0.9-0.2c0.9,0,1.4,0.5,1.4,1.4V71.6z"
			/>
		<path class="st1" d="M49,66.6c-0.1,0-0.2,0-0.3-0.1s-0.1-0.2-0.1-0.3s0-0.2,0.1-0.3s0.2-0.1,0.3-0.1c0.1,0,0.2,0,0.3,0.1
			s0.1,0.2,0.1,0.3s0,0.2-0.1,0.3S49.2,66.6,49,66.6z M49.4,71.6h-0.7v-4.3h0.7V71.6z"/>
		<path class="st1" d="M52.1,71.7c-0.7,0-1.3-0.2-1.8-0.7l0.4-0.5c0.1,0.2,0.4,0.3,0.6,0.4s0.5,0.2,0.8,0.2c0.3,0,0.6-0.1,0.8-0.2
			c0.2-0.1,0.3-0.3,0.3-0.5c0-0.2-0.1-0.3-0.3-0.5s-0.4-0.2-0.7-0.3c-0.3-0.1-0.5-0.1-0.8-0.2c-0.3-0.1-0.5-0.2-0.7-0.4
			c-0.2-0.2-0.3-0.4-0.3-0.7c0-0.4,0.1-0.7,0.4-0.9c0.3-0.2,0.7-0.4,1.2-0.4c0.7,0,1.2,0.2,1.6,0.6l-0.3,0.5
			c-0.3-0.4-0.7-0.5-1.3-0.5c-0.3,0-0.5,0.1-0.7,0.2s-0.3,0.3-0.3,0.5c0,0.2,0.1,0.3,0.3,0.4c0.2,0.1,0.4,0.2,0.7,0.2
			c0.3,0.1,0.5,0.1,0.8,0.2c0.3,0.1,0.5,0.2,0.7,0.4c0.2,0.2,0.3,0.4,0.3,0.8c0,0.4-0.2,0.7-0.4,0.9C53.1,71.6,52.7,71.7,52.1,71.7z
			"/>
		<path class="st1" d="M56,71.7c-0.3,0-0.6-0.1-0.7-0.3s-0.2-0.4-0.2-0.8v-2.8h-0.7v-0.6h0.7V66h0.7v1.2h0.9v0.6h-0.9v2.7
			c0,0.2,0,0.3,0.1,0.4c0.1,0.1,0.2,0.2,0.3,0.2c0.2,0,0.4-0.1,0.5-0.2l0.2,0.5C56.6,71.6,56.4,71.7,56,71.7z"/>
		<path class="st1" d="M61,71.6h-0.7v-0.5c-0.4,0.4-0.8,0.6-1.4,0.6c-0.4,0-0.8-0.1-1.1-0.4c-0.3-0.3-0.5-0.6-0.5-1.1
			c0-0.5,0.2-0.8,0.5-1.1c0.3-0.2,0.7-0.4,1.1-0.4c0.6,0,1.1,0.2,1.4,0.6v-0.8c0-0.3-0.1-0.5-0.3-0.7s-0.5-0.2-0.8-0.2
			c-0.5,0-1,0.2-1.3,0.6l-0.3-0.5c0.5-0.5,1-0.7,1.7-0.7c0.5,0,0.9,0.1,1.2,0.4c0.3,0.2,0.5,0.6,0.5,1.1V71.6z M59.1,71.2
			c0.5,0,0.9-0.2,1.2-0.5v-0.8c-0.3-0.4-0.7-0.5-1.2-0.5c-0.3,0-0.6,0.1-0.8,0.3S58,70,58,70.3c0,0.3,0.1,0.5,0.3,0.7
			S58.8,71.2,59.1,71.2z"/>
		<path class="st1" d="M65.9,71.6h-0.7v-2.8c0-0.4-0.1-0.6-0.3-0.8c-0.2-0.2-0.4-0.2-0.7-0.2c-0.3,0-0.5,0.1-0.7,0.2
			s-0.4,0.3-0.6,0.5v3.2h-0.7v-4.3H63v0.6c0.2-0.2,0.4-0.4,0.7-0.5c0.3-0.1,0.6-0.2,0.9-0.2c0.9,0,1.4,0.5,1.4,1.4V71.6z"/>
	</g>
	<g>
		<path class="st1" d="M53.2,105.8h-0.7v-6h0.7V105.8z"/>
		<path class="st1" d="M55.3,105.8h-0.7v-4.3h0.7v0.7c0.4-0.5,0.9-0.8,1.4-0.8v0.7c-0.1,0-0.2,0-0.3,0c-0.2,0-0.4,0.1-0.7,0.2
			c-0.2,0.1-0.4,0.3-0.5,0.5V105.8z"/>
		<path class="st1" d="M61,105.8h-0.7v-0.5c-0.4,0.4-0.8,0.6-1.4,0.6c-0.4,0-0.8-0.1-1.1-0.4c-0.3-0.3-0.5-0.6-0.5-1.1
			c0-0.5,0.2-0.8,0.5-1.1c0.3-0.2,0.7-0.4,1.1-0.4c0.6,0,1.1,0.2,1.4,0.6v-0.8c0-0.3-0.1-0.5-0.3-0.7c-0.2-0.2-0.5-0.2-0.8-0.2
			c-0.5,0-1,0.2-1.3,0.6l-0.3-0.5c0.5-0.5,1-0.7,1.7-0.7c0.5,0,0.9,0.1,1.2,0.4s0.5,0.6,0.5,1.1V105.8z M59.1,105.4
			c0.5,0,0.9-0.2,1.2-0.5V104c-0.3-0.4-0.7-0.5-1.2-0.5c-0.3,0-0.6,0.1-0.8,0.3c-0.2,0.2-0.3,0.4-0.3,0.7c0,0.3,0.1,0.5,0.3,0.7
			C58.5,105.3,58.8,105.4,59.1,105.4z"/>
		<path class="st1" d="M65.9,105.8h-0.7v-2.8c0-0.4-0.1-0.6-0.3-0.8c-0.2-0.2-0.4-0.2-0.7-0.2c-0.3,0-0.5,0.1-0.7,0.2
			c-0.2,0.1-0.4,0.3-0.6,0.5v3.2h-0.7v-4.3H63v0.6c0.2-0.2,0.4-0.4,0.7-0.5s0.6-0.2,0.9-0.2c0.9,0,1.4,0.5,1.4,1.4V105.8z"/>
	</g>
	<g>
		<path class="st1" d="M35,139.1h-0.7v-6h2.4c0.6,0,1,0.2,1.4,0.5c0.3,0.3,0.5,0.8,0.5,1.3c0,0.5-0.2,0.9-0.5,1.3
			c-0.3,0.3-0.8,0.5-1.4,0.5H35V139.1z M36.6,136c0.4,0,0.6-0.1,0.9-0.3c0.2-0.2,0.3-0.5,0.3-0.8s-0.1-0.6-0.3-0.8
			c-0.2-0.2-0.5-0.3-0.9-0.3H35v2.3H36.6z"/>
		<path class="st1" d="M42.7,139.1h-0.7v-0.5c-0.4,0.4-0.8,0.6-1.4,0.6c-0.4,0-0.8-0.1-1.1-0.4c-0.3-0.3-0.5-0.6-0.5-1.1
			c0-0.5,0.2-0.8,0.5-1.1c0.3-0.2,0.7-0.4,1.1-0.4c0.6,0,1.1,0.2,1.4,0.6v-0.8c0-0.3-0.1-0.5-0.3-0.7c-0.2-0.2-0.5-0.2-0.8-0.2
			c-0.5,0-1,0.2-1.3,0.6l-0.3-0.5c0.5-0.5,1-0.7,1.7-0.7c0.5,0,0.9,0.1,1.2,0.4s0.5,0.6,0.5,1.1V139.1z M40.9,138.7
			c0.5,0,0.9-0.2,1.2-0.5v-0.8c-0.3-0.4-0.7-0.5-1.2-0.5c-0.3,0-0.6,0.1-0.8,0.3c-0.2,0.2-0.3,0.4-0.3,0.7c0,0.3,0.1,0.5,0.3,0.7
			C40.3,138.6,40.6,138.7,40.9,138.7z"/>
		<path class="st1" d="M47.9,139.1h-0.9l-1.6-2l-0.7,0.7v1.2h-0.7v-6h0.7v4l2.3-2.3h0.9l-1.9,2L47.9,139.1z"/>
		<path class="st1" d="M49,134.1c-0.1,0-0.2,0-0.3-0.1c-0.1-0.1-0.1-0.2-0.1-0.3s0-0.2,0.1-0.3c0.1-0.1,0.2-0.1,0.3-0.1
			c0.1,0,0.2,0,0.3,0.1c0.1,0.1,0.1,0.2,0.1,0.3s0,0.2-0.1,0.3C49.3,134.1,49.2,134.1,49,134.1z M49.4,139.1h-0.7v-4.3h0.7V139.1z"
			/>
		<path class="st1" d="M52.1,139.2c-0.7,0-1.3-0.2-1.8-0.7l0.4-0.5c0.1,0.2,0.4,0.3,0.6,0.4c0.3,0.1,0.5,0.2,0.8,0.2
			c0.3,0,0.6-0.1,0.8-0.2c0.2-0.1,0.3-0.3,0.3-0.5c0-0.2-0.1-0.3-0.3-0.5c-0.2-0.1-0.4-0.2-0.7-0.3c-0.3-0.1-0.5-0.1-0.8-0.2
			c-0.3-0.1-0.5-0.2-0.7-0.4c-0.2-0.2-0.3-0.4-0.3-0.7c0-0.4,0.1-0.7,0.4-0.9s0.7-0.4,1.2-0.4c0.7,0,1.2,0.2,1.6,0.6l-0.3,0.5
			c-0.3-0.4-0.7-0.5-1.3-0.5c-0.3,0-0.5,0.1-0.7,0.2s-0.3,0.3-0.3,0.5c0,0.2,0.1,0.3,0.3,0.4c0.2,0.1,0.4,0.2,0.7,0.2
			s0.5,0.1,0.8,0.2c0.3,0.1,0.5,0.2,0.7,0.4c0.2,0.2,0.3,0.4,0.3,0.8c0,0.4-0.2,0.7-0.4,0.9C53.1,139.1,52.7,139.2,52.1,139.2z"/>
		<path class="st1" d="M56,139.2c-0.3,0-0.6-0.1-0.7-0.3c-0.2-0.2-0.2-0.4-0.2-0.8v-2.8h-0.7v-0.6h0.7v-1.2h0.7v1.2h0.9v0.6h-0.9
			v2.7c0,0.2,0,0.3,0.1,0.4c0.1,0.1,0.2,0.2,0.3,0.2c0.2,0,0.4-0.1,0.5-0.2l0.2,0.5C56.6,139.1,56.4,139.2,56,139.2z"/>
		<path class="st1" d="M61,139.1h-0.7v-0.5c-0.4,0.4-0.8,0.6-1.4,0.6c-0.4,0-0.8-0.1-1.1-0.4c-0.3-0.3-0.5-0.6-0.5-1.1
			c0-0.5,0.2-0.8,0.5-1.1c0.3-0.2,0.7-0.4,1.1-0.4c0.6,0,1.1,0.2,1.4,0.6v-0.8c0-0.3-0.1-0.5-0.3-0.7s-0.5-0.2-0.8-0.2
			c-0.5,0-1,0.2-1.3,0.6l-0.3-0.5c0.5-0.5,1-0.7,1.7-0.7c0.5,0,0.9,0.1,1.2,0.4c0.3,0.2,0.5,0.6,0.5,1.1V139.1z M59.1,138.7
			c0.5,0,0.9-0.2,1.2-0.5v-0.8c-0.3-0.4-0.7-0.5-1.2-0.5c-0.3,0-0.6,0.1-0.8,0.3c-0.2,0.2-0.3,0.4-0.3,0.7c0,0.3,0.1,0.5,0.3,0.7
			C58.5,138.6,58.8,138.7,59.1,138.7z"/>
		<path class="st1" d="M65.9,139.1h-0.7v-2.8c0-0.4-0.1-0.6-0.3-0.8c-0.2-0.2-0.4-0.2-0.7-0.2c-0.3,0-0.5,0.1-0.7,0.2
			c-0.2,0.1-0.4,0.3-0.6,0.5v3.2h-0.7v-4.3H63v0.6c0.2-0.2,0.4-0.4,0.7-0.5c0.3-0.1,0.6-0.2,0.9-0.2c0.9,0,1.4,0.5,1.4,1.4V139.1z"
			/>
	</g>
	<g>
		<path class="st0" d="M206.1,40.3h-1.6l3.2-7h-4.3V32h6v1L206.1,40.3z"/>
		<path class="st0" d="M212.8,40.3h-1.6l3.1-7H210V32h6v1L212.8,40.3z"/>
		<path class="st0" d="M220.1,40.5c-1.3,0-2.4-0.4-3.1-1.3l0.8-1c0.6,0.7,1.3,1,2.2,1c0.5,0,0.9-0.1,1.2-0.4c0.3-0.3,0.5-0.6,0.5-1
			c0-0.5-0.2-0.8-0.5-1.1c-0.3-0.3-0.7-0.4-1.2-0.4c-0.7,0-1.3,0.2-1.8,0.7l-1-0.3V32h5.5v1.3h-4v2.4c0.5-0.5,1.1-0.7,1.9-0.7
			c0.7,0,1.4,0.2,1.9,0.7c0.5,0.5,0.8,1.1,0.8,2c0,0.9-0.3,1.5-0.9,2.1S221,40.5,220.1,40.5z"/>
	</g>
	<g>
		<path class="st0" d="M209.7,85.1h-6v-1.1c1.7-1.3,2.9-2.3,3.6-2.9c0.6-0.6,0.9-1.2,0.9-1.8c0-0.4-0.1-0.7-0.4-0.9
			c-0.3-0.2-0.7-0.3-1.1-0.3c-0.9,0-1.7,0.3-2.2,1l-0.8-1c0.4-0.4,0.8-0.8,1.4-1c0.5-0.2,1.1-0.3,1.7-0.3c0.9,0,1.6,0.2,2.2,0.7
			c0.6,0.5,0.9,1.1,0.9,1.9c0,0.7-0.3,1.4-0.9,2.1c-0.6,0.7-1.5,1.5-2.8,2.5h3.7V85.1z"/>
		<path class="st0" d="M212.9,84.6c0,0.4-0.1,0.8-0.3,1.2s-0.5,0.7-0.9,0.9l-0.6-0.5c0.2-0.1,0.4-0.3,0.6-0.5
			c0.2-0.2,0.3-0.4,0.3-0.7c-0.1,0-0.1,0-0.2,0c-0.2,0-0.4-0.1-0.5-0.2c-0.1-0.1-0.2-0.3-0.2-0.6s0.1-0.4,0.2-0.6
			c0.2-0.2,0.4-0.3,0.6-0.3c0.3,0,0.5,0.1,0.7,0.3C212.8,84,212.9,84.3,212.9,84.6z"/>
		<path class="st0" d="M216.8,85.2c-1,0-1.8-0.3-2.4-0.9l0.7-1.1c0.5,0.5,1,0.7,1.7,0.7c0.7,0,1.3-0.3,1.6-0.8
			c0.4-0.5,0.6-1.2,0.6-1.9v-0.2c-0.2,0.3-0.5,0.6-0.9,0.8s-0.8,0.4-1.3,0.4c-0.8,0-1.5-0.2-2-0.7c-0.5-0.5-0.8-1.1-0.8-2
			c0-0.8,0.3-1.5,0.9-2c0.6-0.5,1.3-0.8,2.2-0.8c0.8,0,1.4,0.2,2,0.6s0.9,0.9,1.1,1.5c0.2,0.6,0.3,1.3,0.3,2.2c0,1.2-0.3,2.3-1,3.1
			C218.9,84.8,218,85.2,216.8,85.2z M217.2,80.8c0.4,0,0.7-0.1,1-0.3s0.6-0.4,0.8-0.7c0-0.5-0.2-1-0.5-1.4s-0.8-0.6-1.3-0.6
			c-0.5,0-0.9,0.2-1.2,0.5c-0.3,0.3-0.5,0.6-0.5,1c0,0.5,0.2,0.9,0.5,1.1C216.3,80.7,216.7,80.8,217.2,80.8z"/>
		<path class="st0" d="M224.1,85.1h-1.6l3.1-7h-4.3v-1.3h6v1L224.1,85.1z"/>
		<path class="st0" d="M233,84.9c-0.4,0.2-0.9,0.4-1.5,0.4s-1.1-0.1-1.5-0.4s-0.8-0.6-1.1-1c-0.3-0.4-0.5-0.9-0.6-1.4
			s-0.2-1-0.2-1.6s0.1-1.1,0.2-1.6s0.3-1,0.6-1.4c0.3-0.4,0.6-0.7,1.1-1s0.9-0.4,1.5-0.4s1.1,0.1,1.5,0.4s0.8,0.6,1,1
			c0.3,0.4,0.5,0.9,0.6,1.4c0.1,0.5,0.2,1,0.2,1.6s-0.1,1.1-0.2,1.6c-0.1,0.5-0.3,1-0.6,1.4S233.5,84.6,233,84.9z M230.1,83.1
			c0.3,0.6,0.8,0.9,1.4,0.9s1.1-0.3,1.4-0.9c0.3-0.6,0.4-1.3,0.4-2.2c0-0.6-0.1-1.1-0.2-1.5c-0.1-0.4-0.3-0.8-0.6-1.1
			c-0.3-0.3-0.6-0.4-1.1-0.4s-0.8,0.1-1.1,0.4c-0.3,0.3-0.5,0.6-0.6,1.1c-0.1,0.4-0.2,0.9-0.2,1.5C229.7,81.8,229.8,82.5,230.1,83.1
			z"/>
	</g>
	<g>
		<path class="st0" d="M206.9,120.5h-1.5V114l-1.4,1.4l-0.9-0.9l2.4-2.4h1.3V120.5z"/>
		<path class="st0" d="M210.2,120c0,0.4-0.1,0.8-0.3,1.2c-0.2,0.4-0.5,0.7-0.9,0.9l-0.6-0.5c0.2-0.1,0.4-0.3,0.6-0.5
			c0.2-0.2,0.3-0.4,0.3-0.6c-0.1,0-0.1,0-0.2,0c-0.2,0-0.4-0.1-0.5-0.2c-0.1-0.1-0.2-0.3-0.2-0.6s0.1-0.4,0.2-0.6
			c0.2-0.2,0.4-0.3,0.6-0.3c0.3,0,0.5,0.1,0.7,0.3C210.1,119.4,210.2,119.6,210.2,120z"/>
		<path class="st0" d="M213.1,120.5h-1.6l3.2-7h-4.3v-1.3h6v1L213.1,120.5z"/>
		<path class="st0" d="M219.7,120.5h-1.6l3.1-7h-4.3v-1.3h6v1L219.7,120.5z"/>
		<path class="st0" d="M227,120.6c-1.3,0-2.4-0.4-3.1-1.3l0.8-1c0.6,0.7,1.3,1,2.2,1c0.5,0,0.9-0.1,1.2-0.4c0.3-0.3,0.5-0.6,0.5-1
			c0-0.5-0.2-0.8-0.5-1.1c-0.3-0.3-0.7-0.4-1.2-0.4c-0.7,0-1.3,0.2-1.8,0.7l-1-0.3v-4.7h5.5v1.3h-4v2.4c0.5-0.5,1.1-0.7,1.9-0.7
			c0.7,0,1.4,0.2,1.9,0.7c0.5,0.5,0.8,1.1,0.8,2c0,0.9-0.3,1.5-0.9,2.1S228,120.6,227,120.6z"/>
	</g>
	<g>
		<path class="st0" d="M39.9,184.5h-1.5v-1.9h-4v-1.2l3.4-5.3h2v5.2H41v1.3h-1.1V184.5z M38.4,181.4v-3.9l-2.5,3.9H38.4z"/>
		<path class="st0" d="M43.8,184.1c0,0.4-0.1,0.8-0.3,1.2c-0.2,0.4-0.5,0.7-0.9,0.9l-0.6-0.5c0.2-0.1,0.4-0.3,0.6-0.5
			c0.2-0.2,0.3-0.4,0.3-0.6c-0.1,0-0.1,0-0.2,0c-0.2,0-0.4-0.1-0.5-0.2c-0.1-0.1-0.2-0.3-0.2-0.6s0.1-0.4,0.2-0.6
			c0.2-0.2,0.4-0.3,0.6-0.3c0.3,0,0.5,0.1,0.7,0.3S43.8,183.7,43.8,184.1z"/>
		<path class="st0" d="M50.4,184.1c-0.6,0.4-1.4,0.6-2.3,0.6c-0.9,0-1.7-0.2-2.3-0.6c-0.6-0.4-0.9-1-0.9-1.7c0-0.5,0.2-1,0.5-1.3
			c0.4-0.4,0.8-0.7,1.3-0.8c-0.5-0.2-0.9-0.4-1.3-0.7c-0.3-0.3-0.5-0.7-0.5-1.2c0-0.4,0.1-0.7,0.3-1c0.2-0.3,0.4-0.5,0.7-0.7
			s0.6-0.3,1-0.4c0.4-0.1,0.7-0.1,1.1-0.1c0.4,0,0.8,0,1.1,0.1c0.3,0.1,0.7,0.2,1,0.4s0.5,0.4,0.7,0.7s0.3,0.6,0.3,1
			c0,0.9-0.6,1.6-1.8,2c0.5,0.2,1,0.5,1.3,0.8c0.4,0.4,0.5,0.8,0.5,1.3C51.3,183.1,51,183.7,50.4,184.1z M48.1,183.4
			c0.5,0,0.9-0.1,1.2-0.3c0.3-0.2,0.5-0.5,0.5-0.8c0-0.4-0.2-0.7-0.6-0.9s-0.8-0.4-1.1-0.4c-0.2,0-0.4,0.1-0.7,0.2
			c-0.2,0.1-0.5,0.2-0.7,0.4c-0.2,0.2-0.3,0.4-0.3,0.7c0,0.3,0.2,0.6,0.5,0.8C47.2,183.3,47.6,183.4,48.1,183.4z M48.1,179.7
			c0.2,0,0.4-0.1,0.7-0.2c0.2-0.1,0.4-0.2,0.6-0.4c0.2-0.2,0.3-0.4,0.3-0.6c0-0.3-0.1-0.6-0.4-0.8c-0.3-0.2-0.7-0.3-1.1-0.3
			c-0.5,0-0.8,0.1-1.1,0.3c-0.3,0.2-0.4,0.5-0.4,0.8c0,0.2,0.1,0.5,0.3,0.6c0.2,0.2,0.4,0.3,0.6,0.4
			C47.7,179.6,47.9,179.6,48.1,179.7z"/>
		<path class="st0" d="M55.1,184.7c-1,0-1.8-0.3-2.4-0.9l0.7-1.1c0.5,0.5,1,0.7,1.7,0.7c0.7,0,1.3-0.3,1.6-0.8
			c0.4-0.5,0.6-1.2,0.6-1.9v-0.2c-0.2,0.3-0.5,0.6-0.9,0.8c-0.4,0.2-0.8,0.4-1.3,0.4c-0.8,0-1.5-0.2-2-0.7c-0.5-0.5-0.8-1.1-0.8-2
			c0-0.8,0.3-1.5,0.9-2s1.3-0.8,2.2-0.8c0.8,0,1.4,0.2,2,0.6s0.9,0.9,1.1,1.5c0.2,0.6,0.3,1.3,0.3,2.2c0,1.2-0.3,2.3-1,3.1
			C57.2,184.3,56.3,184.7,55.1,184.7z M55.5,180.3c0.4,0,0.7-0.1,1-0.3s0.6-0.4,0.8-0.7c0-0.5-0.2-1-0.5-1.4s-0.8-0.6-1.3-0.6
			c-0.5,0-0.9,0.1-1.2,0.4c-0.3,0.3-0.4,0.6-0.4,1c0,0.5,0.2,0.9,0.5,1.1C54.6,180.2,55,180.3,55.5,180.3z"/>
		<path class="st0" d="M63.1,184.7c-1.3,0-2.4-0.4-3.1-1.3l0.8-1c0.6,0.7,1.3,1,2.2,1c0.5,0,0.9-0.1,1.2-0.4c0.3-0.3,0.5-0.6,0.5-1
			c0-0.5-0.2-0.8-0.5-1.1c-0.3-0.3-0.7-0.4-1.2-0.4c-0.7,0-1.3,0.2-1.8,0.7l-1-0.3v-4.7h5.5v1.3h-4v2.4c0.5-0.5,1.1-0.7,1.9-0.7
			c0.7,0,1.4,0.2,1.9,0.7c0.5,0.5,0.8,1.1,0.8,2c0,0.9-0.3,1.5-0.9,2.1S64.1,184.7,63.1,184.7z"/>
	</g>
	<g>
		<path class="st0" d="M51.1,150.7h-6v-1.2c1.7-1.3,2.9-2.3,3.6-2.9c0.6-0.6,0.9-1.2,0.9-1.8c0-0.4-0.1-0.7-0.4-0.9
			s-0.7-0.3-1.1-0.3c-0.9,0-1.7,0.3-2.2,1l-0.8-1c0.4-0.4,0.8-0.8,1.4-1c0.5-0.2,1.1-0.3,1.7-0.3c0.9,0,1.6,0.2,2.1,0.7
			c0.6,0.5,0.9,1.1,0.9,1.9c0,0.7-0.3,1.4-0.9,2.1s-1.5,1.5-2.8,2.5h3.7V150.7z"/>
		<path class="st0" d="M57.7,150.7h-1.5v-1.9h-4v-1.2l3.4-5.3h2v5.2h1.1v1.3h-1.1V150.7z M56.2,147.6v-3.9l-2.5,3.9H56.2z"/>
		<path class="st0" d="M64.5,150.5c-0.4,0.2-0.9,0.4-1.5,0.4s-1.1-0.1-1.5-0.4s-0.8-0.6-1.1-1c-0.3-0.4-0.5-0.9-0.6-1.4
			s-0.2-1-0.2-1.6c0-0.5,0.1-1.1,0.2-1.6s0.3-1,0.6-1.4c0.3-0.4,0.6-0.7,1.1-1s0.9-0.4,1.5-0.4s1.1,0.1,1.5,0.4s0.8,0.6,1,1
			c0.3,0.4,0.5,0.9,0.6,1.4c0.1,0.5,0.2,1,0.2,1.6c0,0.5-0.1,1.1-0.2,1.6c-0.1,0.5-0.3,1-0.6,1.4C65.3,149.9,64.9,150.3,64.5,150.5z
			 M61.6,148.7c0.3,0.6,0.8,0.8,1.4,0.8s1.1-0.3,1.4-0.8c0.3-0.6,0.4-1.3,0.4-2.2c0-0.6-0.1-1.1-0.2-1.5c-0.1-0.4-0.3-0.8-0.6-1.1
			c-0.3-0.3-0.6-0.4-1.1-0.4s-0.8,0.1-1.1,0.4c-0.3,0.3-0.5,0.6-0.6,1.1c-0.1,0.4-0.2,0.9-0.2,1.5C61.1,147.4,61.3,148.2,61.6,148.7
			z"/>
	</g>
	<g>
		<path class="st0" d="M51.1,117.6h-6v-1.2c1.7-1.3,2.9-2.3,3.6-2.9c0.6-0.6,0.9-1.2,0.9-1.8c0-0.4-0.1-0.7-0.4-0.9
			s-0.7-0.3-1.1-0.3c-0.9,0-1.7,0.3-2.2,1l-0.8-1c0.4-0.4,0.8-0.8,1.4-1c0.5-0.2,1.1-0.3,1.7-0.3c0.9,0,1.6,0.2,2.1,0.7
			c0.6,0.5,0.9,1.1,0.9,1.9c0,0.7-0.3,1.4-0.9,2.1s-1.5,1.5-2.8,2.5h3.7V117.6z"/>
		<path class="st0" d="M57.7,117.6h-1.5v-1.9h-4v-1.2l3.4-5.3h2v5.2h1.1v1.3h-1.1V117.6z M56.2,114.4v-3.9l-2.5,3.9H56.2z"/>
		<path class="st0" d="M64.5,117.4c-0.4,0.2-0.9,0.4-1.5,0.4s-1.1-0.1-1.5-0.4s-0.8-0.6-1.1-1c-0.3-0.4-0.5-0.9-0.6-1.4
			s-0.2-1-0.2-1.6c0-0.5,0.1-1.1,0.2-1.6s0.3-1,0.6-1.4c0.3-0.4,0.6-0.7,1.1-1s0.9-0.4,1.5-0.4s1.1,0.1,1.5,0.4s0.8,0.6,1,1
			c0.3,0.4,0.5,0.9,0.6,1.4c0.1,0.5,0.2,1,0.2,1.6c0,0.5-0.1,1.1-0.2,1.6c-0.1,0.5-0.3,1-0.6,1.4C65.3,116.8,64.9,117.1,64.5,117.4z
			 M61.6,115.6c0.3,0.6,0.8,0.8,1.4,0.8s1.1-0.3,1.4-0.8c0.3-0.6,0.4-1.3,0.4-2.2c0-0.6-0.1-1.1-0.2-1.5c-0.1-0.4-0.3-0.8-0.6-1.1
			c-0.3-0.3-0.6-0.4-1.1-0.4s-0.8,0.1-1.1,0.4c-0.3,0.3-0.5,0.6-0.6,1.1c-0.1,0.4-0.2,0.9-0.2,1.5C61.1,114.3,61.3,115,61.6,115.6z"
			/>
	</g>
	<g>
		<path class="st0" d="M43.3,84.1h-1.5v-6.4l-1.4,1.4l-0.8-0.9l2.4-2.4h1.3V84.1z"/>
		<path class="st0" d="M46.6,83.6c0,0.4-0.1,0.8-0.3,1.2c-0.2,0.4-0.5,0.7-0.9,0.9l-0.6-0.5c0.2-0.1,0.4-0.3,0.6-0.5
			c0.2-0.2,0.3-0.4,0.3-0.6c-0.1,0-0.1,0-0.2,0c-0.2,0-0.4-0.1-0.5-0.2c-0.1-0.1-0.2-0.3-0.2-0.6s0.1-0.4,0.2-0.6s0.4-0.3,0.6-0.3
			c0.3,0,0.5,0.1,0.7,0.3C46.5,83,46.6,83.3,46.6,83.6z"/>
		<path class="st0" d="M52.2,83.9c-0.4,0.2-0.9,0.4-1.5,0.4s-1.1-0.1-1.5-0.4s-0.8-0.6-1.1-1c-0.3-0.4-0.5-0.9-0.6-1.4
			s-0.2-1-0.2-1.6c0-0.5,0.1-1.1,0.2-1.6s0.3-1,0.6-1.4c0.3-0.4,0.6-0.7,1.1-1s0.9-0.4,1.5-0.4s1.1,0.1,1.5,0.4s0.8,0.6,1,1
			c0.3,0.4,0.5,0.9,0.6,1.4c0.1,0.5,0.2,1,0.2,1.6c0,0.5-0.1,1.1-0.2,1.6c-0.1,0.5-0.3,1-0.6,1.4C53,83.3,52.7,83.6,52.2,83.9z
			 M49.3,82.1c0.3,0.6,0.8,0.8,1.4,0.8s1.1-0.3,1.4-0.8c0.3-0.6,0.4-1.3,0.4-2.2c0-0.6-0.1-1.1-0.2-1.5c-0.1-0.4-0.3-0.8-0.6-1.1
			s-0.6-0.4-1.1-0.4s-0.8,0.1-1.1,0.4c-0.3,0.3-0.5,0.6-0.6,1.1c-0.1,0.4-0.2,0.9-0.2,1.5C48.9,80.8,49,81.5,49.3,82.1z"/>
		<path class="st0" d="M58.5,84.1H57v-6.4l-1.4,1.4l-0.9-0.9l2.4-2.4h1.3V84.1z"/>
		<path class="st0" d="M63.1,84.2c-1.3,0-2.4-0.4-3.1-1.3l0.8-1c0.6,0.7,1.3,1,2.2,1c0.5,0,0.9-0.1,1.2-0.4c0.3-0.3,0.5-0.6,0.5-1
			c0-0.5-0.2-0.8-0.5-1.1c-0.3-0.3-0.7-0.4-1.2-0.4c-0.7,0-1.3,0.2-1.8,0.7l-1-0.3v-4.7h5.5V77h-4v2.4c0.5-0.5,1.1-0.7,1.9-0.7
			c0.7,0,1.4,0.2,1.9,0.7c0.5,0.5,0.8,1.1,0.8,2c0,0.9-0.3,1.5-0.9,2.1C64.9,84,64.1,84.2,63.1,84.2z"/>
	</g>
	<g>
		<path class="st0" d="M47.9,50c-0.7,0-1.3-0.1-1.9-0.4c-0.5-0.2-1-0.6-1.3-1l0.8-1c0.3,0.3,0.6,0.6,1,0.7c0.4,0.2,0.8,0.3,1.3,0.3
			c0.5,0,1-0.1,1.3-0.3c0.3-0.2,0.5-0.5,0.5-0.9c0-0.8-0.6-1.2-1.8-1.2c-0.6,0-0.9,0-1,0v-1.3c0.1,0,0.4,0,1,0
			c0.5,0,0.9-0.1,1.2-0.3c0.3-0.2,0.5-0.5,0.5-0.8c0-0.4-0.2-0.7-0.5-0.9s-0.7-0.3-1.2-0.3c-0.8,0-1.5,0.3-2.2,0.9l-0.8-0.9
			c0.7-0.9,1.8-1.3,3-1.3c0.9,0,1.6,0.2,2.2,0.6c0.6,0.4,0.8,1,0.8,1.6c0,0.5-0.2,0.9-0.5,1.3c-0.4,0.3-0.8,0.5-1.3,0.6
			c0.5,0,0.9,0.2,1.3,0.6S51,47,51,47.6c0,0.7-0.3,1.3-0.9,1.8S48.9,50,47.9,50z"/>
		<path class="st0" d="M55.6,50c-0.6,0-1.1-0.1-1.6-0.3c-0.5-0.2-0.8-0.5-1.1-0.9c-0.3-0.4-0.5-0.9-0.6-1.4
			c-0.1-0.5-0.2-1.1-0.2-1.7c0-1.3,0.3-2.3,1-3.1s1.5-1.2,2.7-1.2c1,0,1.8,0.3,2.4,0.9l-0.7,1.1c-0.5-0.5-1-0.7-1.7-0.7
			c-0.7,0-1.2,0.3-1.6,0.8s-0.6,1.2-0.6,1.9c0,0.1,0,0.2,0,0.2c0.2-0.3,0.5-0.6,0.9-0.8s0.8-0.4,1.3-0.4c0.8,0,1.5,0.2,2,0.7
			c0.5,0.5,0.8,1.1,0.8,2c0,0.8-0.3,1.5-0.8,2C57.2,49.7,56.5,50,55.6,50z M55.5,48.7c0.5,0,0.9-0.1,1.2-0.4s0.5-0.6,0.5-1
			c0-0.5-0.2-0.9-0.5-1.1c-0.3-0.3-0.7-0.4-1.2-0.4c-0.3,0-0.7,0.1-1,0.3c-0.3,0.2-0.6,0.4-0.8,0.7c0,0.5,0.2,1,0.5,1.4
			C54.5,48.5,54.9,48.7,55.5,48.7z"/>
		<path class="st0" d="M64.5,49.6C64.1,49.9,63.6,50,63,50s-1.1-0.1-1.5-0.4s-0.8-0.6-1.1-1c-0.3-0.4-0.5-0.9-0.6-1.4
			s-0.2-1-0.2-1.6c0-0.5,0.1-1.1,0.2-1.6s0.3-1,0.6-1.4c0.3-0.4,0.6-0.7,1.1-1s0.9-0.4,1.5-0.4s1.1,0.1,1.5,0.4s0.8,0.6,1,1
			c0.3,0.4,0.5,0.9,0.6,1.4c0.1,0.5,0.2,1,0.2,1.6c0,0.5-0.1,1.1-0.2,1.6c-0.1,0.5-0.3,1-0.6,1.4C65.3,49,64.9,49.4,64.5,49.6z
			 M61.6,47.8c0.3,0.6,0.8,0.8,1.4,0.8s1.1-0.3,1.4-0.8c0.3-0.6,0.4-1.3,0.4-2.2c0-0.6-0.1-1.1-0.2-1.5c-0.1-0.4-0.3-0.8-0.6-1.1
			c-0.3-0.3-0.6-0.4-1.1-0.4s-0.8,0.1-1.1,0.4c-0.3,0.3-0.5,0.6-0.6,1.1c-0.1,0.4-0.2,0.9-0.2,1.5C61.1,46.5,61.3,47.3,61.6,47.8z"
			/>
	</g>
	<g>
		<path class="st0" d="M124.6,20.5h-1.5v-6.4l-1.4,1.4l-0.9-0.9l2.4-2.4h1.3V20.5z"/>
		<path class="st0" d="M128,20.1c0,0.4-0.1,0.8-0.3,1.2c-0.2,0.4-0.5,0.7-0.9,0.9l-0.6-0.5c0.2-0.1,0.4-0.3,0.6-0.5
			c0.2-0.2,0.3-0.4,0.3-0.6c-0.1,0-0.1,0-0.2,0c-0.2,0-0.4-0.1-0.5-0.2c-0.1-0.1-0.2-0.3-0.2-0.6s0.1-0.4,0.2-0.6s0.4-0.3,0.6-0.3
			c0.3,0,0.5,0.1,0.7,0.3S128,19.7,128,20.1z"/>
		<path class="st0" d="M132,20.7c-0.7,0-1.3-0.1-1.9-0.4s-1-0.6-1.3-1l0.8-1c0.3,0.3,0.6,0.6,1,0.7c0.4,0.2,0.8,0.3,1.3,0.3
			c0.5,0,1-0.1,1.3-0.3c0.3-0.2,0.5-0.5,0.5-0.9c0-0.8-0.6-1.2-1.9-1.2c-0.6,0-0.9,0-1,0v-1.3c0.1,0,0.4,0,1,0
			c0.5,0,0.9-0.1,1.2-0.3c0.3-0.2,0.5-0.5,0.5-0.8c0-0.4-0.2-0.7-0.5-0.9s-0.7-0.3-1.2-0.3c-0.8,0-1.5,0.3-2.1,0.9l-0.8-0.9
			c0.7-0.9,1.8-1.3,3-1.3c0.9,0,1.6,0.2,2.2,0.6c0.5,0.4,0.8,1,0.8,1.6c0,0.5-0.2,0.9-0.5,1.3c-0.4,0.3-0.8,0.5-1.3,0.6
			c0.5,0,0.9,0.2,1.3,0.6c0.4,0.4,0.6,0.8,0.6,1.4c0,0.7-0.3,1.3-0.9,1.8C133.7,20.5,132.9,20.7,132,20.7z"/>
		<path class="st0" d="M139.2,20.7c-0.7,0-1.3-0.1-1.9-0.4c-0.5-0.2-1-0.6-1.3-1l0.8-1c0.3,0.3,0.6,0.6,1,0.7
			c0.4,0.2,0.8,0.3,1.3,0.3c0.5,0,1-0.1,1.3-0.3c0.3-0.2,0.5-0.5,0.5-0.9c0-0.8-0.6-1.2-1.8-1.2c-0.6,0-0.9,0-1,0v-1.3
			c0.1,0,0.4,0,1,0c0.5,0,0.9-0.1,1.2-0.3c0.3-0.2,0.5-0.5,0.5-0.8c0-0.4-0.2-0.7-0.5-0.9s-0.7-0.3-1.2-0.3c-0.8,0-1.5,0.3-2.2,0.9
			l-0.8-0.9c0.7-0.9,1.8-1.3,3-1.3c0.9,0,1.6,0.2,2.2,0.6c0.6,0.4,0.8,1,0.8,1.6c0,0.5-0.2,0.9-0.5,1.3c-0.4,0.3-0.8,0.5-1.3,0.6
			c0.5,0,0.9,0.2,1.3,0.6s0.6,0.8,0.6,1.4c0,0.7-0.3,1.3-0.9,1.8S140.1,20.7,139.2,20.7z"/>
		<path class="st0" d="M146.7,20.7c-1.3,0-2.4-0.4-3.1-1.3l0.8-1c0.6,0.7,1.3,1,2.2,1c0.5,0,0.9-0.1,1.2-0.4c0.3-0.3,0.5-0.6,0.5-1
			c0-0.5-0.2-0.8-0.5-1.1c-0.3-0.3-0.7-0.4-1.2-0.4c-0.7,0-1.3,0.2-1.8,0.7l-1-0.3v-4.7h5.5v1.3h-4v2.4c0.5-0.5,1.1-0.7,1.9-0.7
			c0.7,0,1.4,0.2,1.9,0.7c0.5,0.5,0.8,1.1,0.8,2c0,0.9-0.3,1.5-0.9,2.1C148.4,20.4,147.6,20.7,146.7,20.7z"/>
	</g>
	<g>
		<g>
			<path class="st2" d="M196.5,33.5c-18.3,0-30.5,11.2-38,26.3"/>
			<g>
				<path class="st3" d="M158.6,59.6c0.8-0.3,1.9,0,2.6,0.3c-1.3,0.2-2.5,0.7-3.5,1.6c0.1-1.3-0.3-2.6-0.9-3.8
					C157.5,58.2,158.3,58.8,158.6,59.6z"/>
			</g>
		</g>
	</g>
	<g>
		<g>
			<path class="st4" d="M196.5,70.6c-18.3,0-30.5,11.2-38,26.3"/>
			<g>
				<path class="st3" d="M158.7,96.5c1.9-0.6,4.6,0,6.4,0.8c-3.2,0.6-6.3,1.8-8.7,4c0.3-3.2-0.8-6.4-2.2-9.3
					C156,92.9,158,94.5,158.7,96.5z"/>
			</g>
		</g>
	</g>
	<g>
		<g>
			<path class="st5" d="M197.6,110c-14.7,10.9-41.1,12-53.9,3.9"/>
			<g>
				<path class="st3" d="M143.9,114.1c0.3,1.2-0.3,2.8-0.9,3.7c-0.2-1.9-0.7-3.8-1.8-5.4c1.9,0.3,3.9-0.1,5.7-0.7
					C146.2,112.7,145.2,113.8,143.9,114.1z"/>
			</g>
		</g>
	</g>
	<g>
		<g>
			<path class="st6" d="M77.4,174.6c15.6-0.2,33.7-6.4,43.3-20.2"/>
			<g>
				<path class="st3" d="M120.1,155.2c-3.5,1-8.5-0.4-11.6-2c5.8-0.8,11.6-2.8,16.3-6.5c-0.8,5.9,0.9,11.8,3.1,17.3
					C124.8,161.9,121.2,158.8,120.1,155.2z"/>
			</g>
		</g>
	</g>
	<g>
		<g>
			<path class="st7" d="M196.6,150.4c-15.6,3.4-33.1,0.4-41.1-11"/>
			<g>
				<path class="st3" d="M156.3,140.5c-0.9,4.9-5.6,10.2-9.4,13.1c2.5-7.6,3.6-15.9,1.8-23.9c6.8,4.4,15.1,5.9,23.1,6.5
					C167.3,138.7,161.5,141.2,156.3,140.5z"/>
			</g>
		</g>
	</g>
	<g>
		<g>
			<path class="st8" d="M74.1,37.1c18.3,0,35.1,10.1,43.3,33.5"/>
			<g>
				<path class="st3" d="M117.3,70.5c0.2-0.5,0.9-0.9,1.4-1.1c-0.5,0.7-0.8,1.5-0.9,2.4c-0.6-0.7-1.4-1.1-2.2-1.3
					C116.1,70.3,116.8,70.2,117.3,70.5z"/>
			</g>
		</g>
	</g>
	<g>
		<g>
			<path class="st9" d="M74.1,140.9c10.5-7.5,26.8-9.5,41.4-4"/>
			<g>
				<path class="st3" d="M115.4,136.9c-0.1-0.2-0.1-0.6,0-0.8c0.1,0.4,0.3,0.8,0.6,1c-0.4,0-0.8,0.2-1.1,0.4
					C115,137.2,115.1,137,115.4,136.9z"/>
			</g>
		</g>
	</g>
	<g>
		<g>
			<path class="st10" d="M72.3,73.8C87,70.2,99.4,75,109.4,84.1"/>
			<g>
				<path class="st3" d="M109.3,84c0-0.7,0.4-1.5,0.9-2c-0.1,1.1,0,2.2,0.5,3.2c-1-0.4-2.2-0.3-3.3-0.2
					C107.9,84.5,108.6,84,109.3,84z"/>
			</g>
		</g>
	</g>
	<g>
		<g>
			<path class="st9" d="M75,109.4c11-8.1,23-9.2,34.7-6"/>
			<g>
				<path class="st3" d="M109.6,103.4c-0.2-0.3-0.2-0.8-0.1-1.2c0.2,0.5,0.5,1,1,1.4c-0.6,0.1-1.1,0.4-1.6,0.7
					C109.1,104,109.3,103.6,109.6,103.4z"/>
			</g>
		</g>
	</g>
	<g>
		<g>
			<line class="st11" x1="135.6" y1="25.2" x2="135.6" y2="59.5"/>
			<g>
				<path class="st3" d="M135.6,59.3c0.6-0.6,1.9-0.9,2.7-1c-1.2,0.9-2.2,2-2.7,3.3c-0.5-1.4-1.6-2.4-2.7-3.3
					C133.8,58.4,134.9,58.6,135.6,59.3z"/>
			</g>
		</g>
	</g>
	<g>
		<path class="st0" d="M206.9,160.9h-1.5v-6.4l-1.4,1.4l-0.9-0.9l2.4-2.4h1.3V160.9z"/>
		<path class="st0" d="M211.6,160.9h-1.5v-6.4l-1.4,1.4l-0.9-0.9l2.4-2.4h1.3V160.9z"/>
		<path class="st0" d="M215,160.4c0,0.4-0.1,0.8-0.3,1.2s-0.5,0.7-0.9,0.9l-0.6-0.5c0.2-0.1,0.4-0.3,0.6-0.5
			c0.2-0.2,0.3-0.4,0.3-0.7c-0.1,0-0.1,0-0.2,0c-0.2,0-0.4-0.1-0.5-0.2c-0.1-0.1-0.2-0.3-0.2-0.6s0.1-0.4,0.2-0.6
			c0.2-0.2,0.4-0.3,0.6-0.3c0.3,0,0.5,0.1,0.7,0.3C214.9,159.8,215,160,215,160.4z"/>
		<path class="st0" d="M218.3,160.9h-1.5v-6.4l-1.4,1.4l-0.9-0.9l2.4-2.4h1.3V160.9z"/>
		<path class="st0" d="M223,161c-1.3,0-2.4-0.4-3.1-1.3l0.8-1c0.6,0.7,1.3,1,2.2,1c0.5,0,0.9-0.1,1.2-0.4s0.5-0.6,0.5-1
			c0-0.5-0.2-0.8-0.5-1.1c-0.3-0.3-0.7-0.4-1.2-0.4c-0.7,0-1.3,0.2-1.8,0.7l-1-0.3v-4.7h5.5v1.3h-4v2.4c0.5-0.5,1.1-0.7,1.9-0.7
			c0.7,0,1.4,0.2,1.9,0.7c0.5,0.5,0.8,1.1,0.8,2c0,0.9-0.3,1.5-0.9,2.1C224.7,160.8,223.9,161,223,161z"/>
		<path class="st0" d="M232,160.6c-0.4,0.2-0.9,0.4-1.5,0.4c-0.6,0-1.1-0.1-1.5-0.4c-0.4-0.2-0.8-0.6-1.1-1s-0.5-0.9-0.6-1.4
			c-0.1-0.5-0.2-1-0.2-1.6s0.1-1.1,0.2-1.6c0.1-0.5,0.3-1,0.6-1.4c0.3-0.4,0.6-0.7,1.1-1c0.4-0.2,0.9-0.4,1.5-0.4
			c0.6,0,1.1,0.1,1.5,0.4c0.4,0.2,0.8,0.6,1,1c0.3,0.4,0.5,0.9,0.6,1.4s0.2,1,0.2,1.6s-0.1,1.1-0.2,1.6s-0.3,1-0.6,1.4
			C232.8,160.1,232.5,160.4,232,160.6z M229.1,158.9c0.3,0.6,0.8,0.9,1.4,0.9c0.6,0,1.1-0.3,1.4-0.9c0.3-0.6,0.5-1.3,0.5-2.2
			c0-0.6-0.1-1.1-0.2-1.5c-0.1-0.4-0.3-0.8-0.6-1.1c-0.3-0.3-0.6-0.4-1.1-0.4c-0.4,0-0.8,0.1-1.1,0.4c-0.3,0.3-0.5,0.6-0.6,1.1
			c-0.1,0.4-0.2,0.9-0.2,1.5C228.7,157.6,228.8,158.3,229.1,158.9z"/>
	</g>
</g>
</svg>
