<?xml version="1.0" encoding="utf-8"?>
<!-- Generator: Adobe Illustrator 19.2.0, SVG Export Plug-In . SVG Version: 6.00 Build 0)  -->
<svg version="1.1" id="Layer_1" xmlns="http://www.w3.org/2000/svg" xmlns:xlink="http://www.w3.org/1999/xlink" x="0px" y="0px"
	 viewBox="0 0 215.8 152.7" style="enable-background:new 0 0 215.8 152.7;" xml:space="preserve">
<style type="text/css">
	.st0{fill:#0D92FF;}
	.st1{fill:#787878;}
	.st2{fill:none;stroke:#00325C;stroke-width:0.4524;stroke-miterlimit:10;}
	.st3{fill:#00325C;}
	.st4{fill:none;stroke:#00325C;stroke-width:1.2601;stroke-miterlimit:10;}
	.st5{fill:none;stroke:#00325C;stroke-width:1.6883;stroke-miterlimit:10;}
	.st6{fill:none;stroke:#00325C;stroke-width:4.8265;stroke-miterlimit:3;}
	.st7{fill:none;stroke:#00325C;stroke-width:2.4435;stroke-miterlimit:10;}
	.st8{fill:none;stroke:#00325C;stroke-width:0.5614;stroke-miterlimit:10;}
	.st9{fill:none;stroke:#00325C;stroke-width:0.3433;stroke-miterlimit:10;}
	.st10{fill:none;stroke:#00325C;stroke-width:1.0097;stroke-miterlimit:10;}
	.st11{fill:none;stroke:#00325C;stroke-width:0.21;stroke-miterlimit:10;}
	.st12{fill:none;stroke:#00325C;stroke-width:0.8401;stroke-linecap:round;stroke-linejoin:round;}
</style>
<g>
	<path class="st0" d="M95.1,41.8L95.1,41.8l-0.1,0.1l0,0l0,0.1l0,0.1l0,0.1l0.1,0.1l0.1,0l0-0.1l0-0.1l0-0.1l0,0l0,0l0-0.1l0-0.1
		L95.1,41.8L95.1,41.8z M80.4,48l0.1,0.1l0.2-0.3l0-0.1l-0.2-0.1l-0.1,0l0,0l0,0l0,0l0,0.1L80.4,48z M117.2,43.3l0.1,0l0.1-0.1
		l0-0.2l0-0.1h0.1l0,0.2l-0.1,0.2l0,0.1l0.1,0l0.1-0.1l0.2-0.7l-0.2-0.1l-0.3,0.1l-0.3,0.3l-0.1,0.3l0.1,0.1L117.2,43.3z
		 M118.3,42.1l0.1-0.2l0.4-0.3l0.1-0.2l-0.1,0.1l-0.6,0.3l0,0.1l0,0L118.3,42.1L118.3,42.1z M94.6,35.4l-0.1,0.1l-0.1,0.2l0.1,0.2
		l0.1,0.1l0.2,0l0.2-0.1l0.2-0.3l0.1-0.3l0-0.2l-0.5,0.2L94.6,35.4L94.6,35.4z M83.8,46.9l0.4-0.2h0l0,0l0-0.1l-0.9,0l-0.4,0.1
		l-0.4,0.2l0.3,0.1L83.8,46.9z M90.6,46.8L90.6,46.8l0.1,0.1l0,0l0.1-0.1l0.1,0h0.1L91,46.5l-0.2,0l-0.2,0.1l-0.1,0.2v0.1L90.6,46.8
		L90.6,46.8z M88.5,45.8l0.1,0l0.3,0.1l0.1,0l0.1,0L89,45.8l-0.1,0l-0.1,0L88.5,45.8l-0.1,0l0,0.1l0.2,0.1L88.5,45.8z M81.8,47.1
		l-1.1,0.1l-0.3,0.1l1.7-0.2L81.8,47.1z M84.8,46.7L84.8,46.7L84.8,46.7l0.1-0.1l-0.1-0.1l-0.2,0l-0.2,0l-0.1,0.1l0.1,0L84.8,46.7z
		 M85.3,46.7l0.2,0l0-0.2l0.3-0.1l0.6,0l0,0l0,0l0,0l0-0.1l-0.2-0.1l-0.7,0l-0.2,0l-0.1,0.1l0,0.2L85.3,46.7L85.3,46.7z M86.9,46.2
		L86.9,46.2l0.1-0.2l0.2,0.1l0.2,0l0.2-0.1l0.2-0.1H88v-0.1l-0.7,0L87,45.9l-0.2,0.3L86.9,46.2L86.9,46.2z M92.4,33.1L92.4,33.1
		L92.4,33.1L92.4,33.1L92.4,33.1l-0.1,0l-0.1,0.2l-0.2,0.4l0.2,0.2l0.2,0.3l0.2,0.2l0.3-0.1l0.1-0.1L92.6,34l-0.4-0.8L92.4,33.1
		L92.4,33.1z M96.1,36.2l0.1,0.2l0.2,0.1l0.4,0l0.2-0.1l0.1-0.2l0.1-0.2l0.1-0.1l0-0.1l0-0.1l0,0l0,0L97,35.5l-0.3,0l-0.3,0.1
		l-0.3,0.2l0.1,0.1l0,0.1L96.1,36.2L96.1,36.2z M131.4,34.8L131.4,34.8L131.4,34.8L131.4,34.8z M130.7,36.1l0-0.1l0-0.1l0-0.1
		l0.1-0.1l0.1-0.1l0.1-0.3l0-0.3l0-0.2l0.2-0.2v0.3h0.1v-0.2l0,0l0,0l0,0v-0.2l-0.1-0.1l-0.1,0l-0.1,0l-0.1,0l-0.1,0.1l-0.1,0.4
		l-0.3,0.9l0,0.3v0.2h0.1L130.7,36.1z M136.3,40.8l0.1,0.2l0.3,0.3l0.1,0.2l0,0.4l-0.2,0.5l-0.1,0.3l0.2,0.1l0.1-0.1l0.1-0.2
		l0.3-0.1l0.1-0.1l0.1,0l0,0.2l0,0.1l-0.1,0.1l-0.1,0.1l0,0.2l0.3-0.1l0,0l0-0.1l0.1-0.1l0.1-0.1l0.1,0v-0.1l-0.1-0.2l0.1-0.1l0.2,0
		l0.2,0l0.1,0.1l0.1,0.1l0.1,0.2l0.1,0.2l0.2-0.1l0.1,0.2l0,0.4l-0.1,0.3l0.1,0.2l-0.3-0.1l0-0.1l0,0l0,0l0,0l-0.3,0l-0.1,0.1
		l-0.1,0.2l0-0.2l0.1-0.3l0-0.1l0.1-0.1l-0.1-0.1l-0.4,0l0,0.4l0.3,0.6l-0.1,0.4l-0.1,0.1l-0.3,0.2l-0.3,0.1l-0.2,0.1l-0.1,0L137,45
		l0.3,0.1l0.5,0l0.5-0.1l0.2-0.1l0.2-0.2l0.1,0.1l0.2,0l0.9-0.1l-0.1-0.2l-0.1-0.2l0.1,0l0.1,0l0.1-0.4l-0.1-0.1l-1.4-1.6l-0.2-0.2
		l-0.3-0.1l-0.5-0.3l-0.2-0.2l-0.1-0.2l-0.2-0.5l-0.1-0.1l-0.2-0.1l-0.1,0.1l-0.1,0.1L136.3,40.8z M78.8,48.7l0.1,0.1l0,0l0.1-0.1
		l0.1,0l0.1,0l0.1,0.1l0.1,0l-0.1-0.1l-0.1-0.1l-0.1,0l-0.1,0v-0.1l0.1,0l0.3-0.1l0.2,0l-0.1-0.2l-0.3,0l-0.6,0.2l-0.1,0.1l0,0.2
		L78.8,48.7z M93.5,33.3l0.2-0.1l0.1,0.1l0.1,0l0.1,0l0.1,0l0.1-0.1l0.1-0.3l0.1-0.1v-0.1l-0.1-0.3L94,32.4l-0.5,0l-0.3,0l-0.2,0.1
		l-0.2,0.2L92.7,33l0.5,0.3L93.5,33.3z M91.8,32.6L91.8,32.6l0.1-0.2l0-0.3l0-0.8l0-0.1l0-0.3l0-0.1l0,0l0.2-0.2l0.1,0l0.1,0l0.1,0
		l0.1,0.1l0.1,0h0.6l0.1,0l0.2-0.2l0.1-0.1l1,0.1l0.2-0.2l-1.8,0.1l-0.4-0.1l-0.3-0.3l0-0.5l-0.1-0.3l0.1-0.3l0.2-0.2l0.3-0.2
		l0.1-0.2L93,28.3l-0.2,0l0.1-0.1l0.5,0L92.9,28l-0.3,0.4L92,30.2l-0.1,0.3L91.8,32l0,0.4L91.8,32.6z M114.1,36.5L114.1,36.5
		L114.1,36.5l0.1,0.2h0.1l0.1-0.1l0.1,0l0.2,0l0.1,0l0,0.1l0,0.3l0.1,0.1l0.2,0l0.3,0l0,0l0-0.1l0.1-0.1l1,0.2l-0.5-0.9l-0.1-0.2
		l-0.1-0.1l-0.2-0.2l-0.7-0.3l-0.4,0.1l-0.3,0.3l-0.2,0.6L114.1,36.5L114.1,36.5z M132.6,35.7l0-0.1l0-0.2l-0.1-0.1l-0.1,0l0-0.1
		l-0.1,0l-0.6,0.1l-0.2,0.1h0.1l0.1,0l0,0.1l0,0.1l0,0.1l0,0l0,0l0,0l0.1,0.1l0.1,0l0.2-0.1l0,0.1l0,0l0,0l0,0l0.1,0.1l0.1,0.1
		l0.2,0.1l-0.1,0.1l0,0l0,0v0.1l-0.2,0l-0.2,0.1l-0.2,0.1l-0.1,0.1l-0.1,0.3l0.4-0.1l0.1,0l0.1,0.1l0.1,0.1l0.1,0v0.1l0,0.1l0,0.1
		l0.1,0.1l0.1,0l-0.2,0.2l-0.1,0l-0.1-0.1l-0.1,0.1l-0.2-0.2l-0.2,0.1l-0.2,0.2l-0.1,0.3l0.5,0.4v0.1l-0.1-0.1l-0.1,0l0,0.1l0.1,0.1
		l0.1,0l0.2-0.1l0.1,0l0,0.2l0.1,0.1l0.1,0.1l0.1,0l0.1,0l0.1,0.1l0.1,0.1l0.1,0l0.1-0.1l0.1,0l0.2,0l0,0l0,0l0-0.1l0.1-0.1l0.1-0.1
		l-0.1,0.2l0,0.2l-0.1,0.1l0.3,0.2l0.3,0.1l0.2,0l0.1-0.1l0-0.1l-0.1-0.3l-0.1,0l-0.4,0.1l0,0h0l0,0l0,0.1l-0.1,0.1l0-0.4l0.2-0.1
		l0.2,0l0.1-0.2l0.1-0.1l0.4-0.4l0.1-0.1L135,38l0.1,0.1l0.1,0.1l0.1,0l0.1-0.1l0.1-0.1l0.1,0l0.2,0v0.1l-0.2,0.1l-0.4,0.3l0.2-0.1
		l0.2-0.1l0.4,0l-0.1,0.2l-0.1,0.1l-0.3,0.1v0.1l0.1,0h0.1l0.1,0l0.1-0.1h0.1l0,0.2l0,0.1l-0.1,0h-0.1l0.2,0.1l0.1,0l0-0.1v-0.2
		l0-0.2l0.1-0.2l0.1-0.1l0.1-0.1l-0.2-0.1l-0.1-0.2l-0.2-0.4l-0.2-0.1l-0.4-0.1l-0.2-0.1L135,37l-0.1-0.2l-0.1-0.2l0-0.2l0.1-0.2
		l0.2-0.2l0.4-0.2l0.2-0.3l-0.1-0.4l-0.2-0.3l-0.4-0.1l-1.1,0.2l-0.3-0.1l-0.1-0.1l-0.1-0.2l-0.1-0.2l0-0.2l0.1-0.2l0.1-0.1l0.2-0.1
		l0.1-0.1v-0.1l-0.2-0.1l-0.2,0l-1.1,0.3l-0.1,0.1l-0.1,0.1l0,0.1l0,0.2l0.1,0l0.1-0.1l0.4-0.1l0,0.1l0,0.1l0,0.1l0,0.1l-0.1,0.1
		l-0.1,0.2l-0.1,0.3l0,0.2l0.2,0.1l0.1-0.1l0.1-0.2l0.2-0.1l0.1-0.2l0.1-0.1l0.1-0.1l0,0.1l0.1,0.1l0.1,0.1l0,0.1l0.1,0.1l0.1,0
		l0.1,0l0.1,0.1l0,0.1l0,0l0.3,0l0.1,0l0.1,0l0.1-0.1l0.1-0.1l0.1,0v0.1l-0.1,0l0,0l0,0l0,0v0.1l0.1,0.1l0,0.1l0.1,0.2v0.1l-0.1,0
		l0,0.1l-0.1,0.2l0.1,0.1l-0.4,0l-0.2-0.1l-0.2-0.2l0.1-0.2l-0.1-0.2l-0.1-0.2l-0.1-0.2l-0.1,0.1v0.1l0.1,0l0.1,0.1l0.1,0l0,0.2
		l-0.1,0.1l-0.1,0l-0.1,0l0.1-0.2l0-0.1l0-0.1l0,0l0,0h-0.1l0.1-0.1l0.1-0.1l0.1-0.3l-0.1,0.1l-0.2,0.1l-0.1,0.2l-0.1,0.2l0.1,0.2
		L132.6,35.7L132.6,35.7z M146.5,79.8L146.5,79.8l0-0.4l-0.1-0.3l-0.2-0.2l-0.1-0.3l0-0.1l0-0.2v0l-0.1-0.9l0.1-0.2l-0.1-0.2
		l-0.2-0.2l-0.1-0.1l-0.2-0.1l-0.4-0.1l-0.2-0.1v0l-0.2-0.1l-0.5-0.2L144,76l0-0.2l0.1-0.3l0.2-0.2l0.1-0.3l0-0.3l-0.1-0.3l-0.1-0.2
		l-0.4-0.3l-0.2-0.2l-0.1-0.3l0-0.3l-0.1-0.2l-0.1-0.1l-0.1-0.2l0-0.3l0.1-0.2l0.5-0.5l0.1-0.2l0.1-0.2l0.1-0.3l0-0.8l0-0.1l0.2-0.3
		l0-0.1l0-0.1l0-0.1l0.1-0.1l0.1-0.2l-0.5-0.4l-0.1-0.2l0-0.3l0.1-0.2l0-0.2l-0.1-0.2v-0.1l0.2-0.2l0-0.3l-0.1-0.2l-0.2-0.1
		l-0.2-0.1l-0.3-0.1L143,66l0-0.2l-0.2-0.4l-0.2-0.6l0-0.5l0.4-0.4l0.2-0.3l0.1-0.3l0-0.1l-0.1-0.1l0.1-0.3l0.2-0.5l-0.3-0.2
		l-0.5-0.6l-0.5-0.2l-0.2-0.3l-0.2-0.1l-0.1-0.1l-0.3-0.5l-0.1-0.1l-0.9-0.6l-0.2-0.1L140,59l-0.2-0.1l-0.2,0l-0.2-0.1l-0.1-0.1
		l-0.1-0.2l0.2-0.2l0.1-0.2l0-0.3l0-0.2l-0.1-0.5l0-0.1v-0.1l0.4-0.3l0.5-0.3l0.5-0.4l0.3-0.3l0.1-0.2l0-0.1l0.2-0.8l0-0.2l0-0.2
		l0-0.2l0-0.2l0.1-0.2l0.1-0.1l0.1,0l0.1-0.1l0.2-0.4l-0.1-0.1l0-0.1l-0.1-0.1l-0.1-0.1l0-0.1l0-0.2l0-0.1l-0.2-1l-0.1-0.7l-0.2-0.3
		l-0.1-0.3l-0.2-0.3l-0.1-0.3l0-0.3l0-0.5l0-0.1l-0.2-0.5l-0.1-0.3l0-0.2l0-0.4l-0.1,0l-0.1,0l-0.1,0l-0.1-0.1l0.4-0.3l0,0l0.1-0.1
		l0-0.2l0,0l-0.1-0.1l-0.1,0l-0.1,0l-0.1,0.2l-0.2,0.1l-0.7,0l-0.1,0l-0.2-0.1l-0.1,0l-0.2,0l0,0l-0.1-0.2l-0.3-0.1l-0.6-0.5l-0.1,0
		l-0.1-0.1l-0.1-0.2l-0.1-0.1l-0.1,0l-0.2,0l-0.2-0.1l-0.1-0.2l0.1-0.2l0.6-0.5l0.1-0.1l0.1-0.2l0-0.1l-0.1-0.1l0,0l-0.1,0l0,0l0,0
		l0,0l-0.1,0l0,0l0-0.1l0-0.1l0,0l0-0.1l0-0.1l0-0.1l-0.1,0l-0.2-0.1l0,0l-0.1-0.1l-0.2-0.3l-0.1-0.1l0.2-0.1l0.1-0.2l0.1-0.3
		l0.1-0.2v-0.1l-0.6-0.5l-0.2-0.1v-0.1l0.1,0l0.1,0l0-0.1l0-0.1l-0.2,0.1l-0.4,0.3L135,41l-1,0.2v0.1l0.1,0.1l0.1,0.2l0.1,0.1v0.1
		l-0.2,0l-0.1-0.1l-0.1-0.2l-0.1-0.2l-0.1-0.3l0-0.1l-0.1,0l-0.1,0l-0.1,0l-0.1-0.1l0.1-0.1l0-0.1l0.1-0.2l-0.2-0.1l-0.3,0.2l-0.2,0
		l0.1-0.1l0.1-0.1l-0.2-0.2l-0.3-0.6l-0.2-0.1l-0.3-0.1l-0.4-0.2l-0.3,0l0.1-0.1l0.1,0l0.1,0v-0.1h-0.4l-0.1,0l0-0.1v-0.2l0-0.2
		l-0.2-0.4l0-0.2l0.2-0.3l-0.1-0.1l-0.4-0.2l-0.1-0.1l-0.1-0.2l0-0.2l0.1-0.1l-0.2-0.1l-0.3,0.1l-0.3,0.2l-0.2,0.2l-0.1,0.1
		l-0.1,0.2l-0.1,0.1l-0.1,0.1l-0.1,0l-0.2,0l-0.1,0l0,0l0,0l-0.1-0.2l0-0.1l0-0.1l0-0.1l-0.1,0.1l-0.1,0.1l-0.1,0l-0.1-0.1l-0.1,0.1
		l-0.1,0l-0.1-0.1l-0.1-0.1l0,0.1l0,0.1l-0.1,0.2l0-0.2l0-0.2l0.1-0.1l0.1,0v-0.1l-0.1,0l-0.1,0l-0.1,0l-0.1,0.1l0,0l0,0.1l0,0
		l-0.4,0.3l-0.2,0.1l-0.2-0.1v0.1l-0.1-0.1l-0.1,0l-0.1,0.1v0.1l0.1,0l0.1,0.1l-0.5,0.3l-0.1,0.1l0,0.1l0,0.2l0,0.1l0,0l-0.1,0l0,0
		l-0.2,0.2l-0.1,0.1l-0.1,0.2l0.2,0.2l0.1,0l0.1,0l-0.2,0.1l-0.2-0.1l-0.4-0.2l0.1-0.1l0-0.1l-0.1-0.2l-0.1-0.2l0.1,0l0.1-0.1l0-0.2
		l-0.1-0.2l0.1-0.1l0.1,0.1l0,0l0.1,0l0-0.2l0.1-0.2l0.1-0.2l0.1-0.1l0.3,0l0.2,0.1l0.1,0.2l0.1-0.2l0.1-0.1l0.2,0l0.2,0.1l0-0.1
		l0,0h0l0,0l-0.1,0l0,0l0-0.1l0-0.1l0.1,0l0.1-0.1l0,0l0.1,0.1l0.1-0.2l0.1,0l0.2,0h0.2l0,0l0.1-0.1l0.1,0l0.2,0l0.3,0.1l0.9,0.1
		l0.2,0l0.2-0.2l-0.1-0.2l-0.2-0.1l-0.2,0.1l-0.3-0.1h-1.8l-0.3-0.1l-0.2-0.3h0.1v-0.1l-0.2,0.1l-0.1,0.1l-0.1,0.4l-0.3,0.6
		l-0.1,0.1l-0.5,0.7l-0.3,0.6l-0.1,0.1l-0.3,0.3l-0.6,0.3l-0.1,0l-0.1,0.1l-0.2,0.3l-0.2,0.1l-0.3,0.4l-0.1,0.1l0.1-0.1l0.1,0l0.1,0
		l0.1,0l-0.1,0.2l-0.2,0.1l-0.1,0.2l0,0.1l0,0.4l0.1,0.2l-0.2-0.2l0-0.3l0-0.4l0-0.4l-0.3,0.2l-1.9,0.4l-0.7-0.1l-0.3,0l-0.3,0.2
		l-0.2,0.4l0,0l0,0l0,0.1v0.1l0.1,0l0,0.1l0,0.1l0,0.1l-0.1,0.1l-0.1,0l-0.1,0.1l-0.1,0.4l-0.2,0.1l-0.1,0l-0.2-0.1v0.1h0.1v0.1
		l-0.3,0.3l0,0.1l0,0.2l0,0.1l-0.1,0l-0.1,0.1l-0.1,0.1l0,0.2l-0.1,0.3l-0.1,0.2l0,0.1h-0.1l-0.1,0l-0.3-0.4l0,0h-0.3l-0.1,0
		l-0.1-0.2l-0.1,0l-0.3,0.3l-0.1,0l-0.2,0l-0.1-0.1l0-0.1l0-0.3l0-0.1l-0.3-0.1l-0.1-0.1l-0.1-0.2l-0.1-0.1l-0.1,0l-1,0.1l-0.4,0.2
		l-0.2,0l-0.1,0.1l-0.2,0.3l-0.1,0.1l0,0l-0.1,0l-0.1,0l0-0.1l0-0.2l-0.1-0.1l-0.1,0l-0.3,0l-0.2-0.1l-0.2-0.1l-0.1-0.2l-0.1-0.3
		v-0.1l0.1-0.1l0.3-0.5l0,0l0.1,0l0.1,0l0.1,0.1l0.1,0l0.1-0.1l0.1,0l0.3-0.1l0.1-0.1l0.3-0.4l0.9-0.6l0-0.1l0.1-0.1l0.1-0.1l0-0.2
		l-0.1-0.4l0-0.2l0.1-0.2l-0.1-0.3l-0.1-0.6l-0.1-0.2l0.1,0.1l0,0l0.1-0.1l0.3-0.3l-0.3-0.1l-0.6,0.4l-0.2-0.1l-0.1,0l-0.1-0.1
		l0.2,0l0.1,0v-0.1l-0.7,0.1l-0.3,0.1l-0.3,0.2l-0.5,0.4l-0.3,0.2l-0.4,0.1l-0.3-0.1l-0.7-0.7l-1.3-0.6l-0.5-0.4l-0.2-0.1l-0.3,0
		l-0.1,0l-0.1,0.1l0,0.1l-0.1,0.1l-0.1,0.1l-0.3,0l-0.1,0.1l-0.1,0.1l-0.1,0.5l-0.2,0.4l-0.1,0.2l-0.2,0.1l0.1-0.1l0-0.1l0-0.1
		l-0.1-0.1l0.1-0.1l0,0l0,0l0,0l0.1,0l0.1-0.1l0.1-0.2l0-0.2l0-0.2l-0.1-0.2l0-0.2l0.2-0.2l-0.5-0.4l-0.2-0.1l-2,0.5l-0.4-0.2v-0.1
		l0.3,0l0.4-0.1l0.3-0.2l0.3-0.2l0.1-0.1l0.1-0.2l0.1-0.2l0-0.2l0-0.6l0-0.3l0-0.2l0.1-0.2l0-0.1l-0.1,0l-0.1,0.1l-0.1-0.2l-0.2,0
		l-0.2,0.1l-0.1,0l0-0.1l0,0l0,0l0.1,0l0,0l0.2-0.2l0,0l0.1,0l0.1,0l0.1,0l0.1-0.1l-0.2-0.2l-0.1-0.1l-0.1-0.1l-0.1-0.5l-0.2-0.2
		l-0.3-0.2l-0.2,0l0,0.3l-0.4,0.1l-0.2,0l-0.1-0.1l-0.1-0.2l-0.2-0.1l-0.2-0.1l-0.1-0.1l-0.3-0.1l-0.5,0l-0.4-0.1l0-0.5l-0.1,0.1
		l-0.1,0.2l-0.2,0.1l-0.2,0.2l-0.5,0.2l-0.1,0l-0.1,0l-0.1,0l-0.2-0.2l-0.1,0l-0.1,0.1l-0.1,0l-0.1,0.1l-0.1,0l-0.6,0l-0.1-0.1
		l-0.1-0.2l0-0.2l0-0.1l-0.1-0.1l-1.7-0.4l-0.6-0.3l-0.6-0.1l-0.2,0l-0.6,0.2l-0.3,0l-0.3-0.1l-0.1,0.4l0,0.3l0,0.4l0.1,0.2l0.2,0.3
		l0.1,0.3l0,0.3v0.1l0.3,0.1l0.4,0.4l0.2,0.1l0.1,0.2l0.3,0.8l-0.3,0.2l0.1,0.1l0.1-0.1l0.2,0l0.2,0l0.1,0.1l0,0.1l0.1,0.1l0.7,0.7
		l0.2,0.3v0.3l-0.1,0.2l-0.1,0.1l-0.3,0.2L96.9,37l-0.2,0.1l-0.2,0.1h-0.9L95,37.4l-0.2-0.1l-0.1,0.1l-0.1,0.1l0,0.2l0.1,0.2
		l0.1-0.2l0.1,0l0.1,0.1l0.1,0v0.1l-0.2,0L94.7,38l-0.2,0.1l-0.1,0.1l0,0.4l0.2,0.3l0.2,0.2l0.2,0.1l0.1,0l0.3-0.3l0.1-0.1l0.3,0.1
		l0.2,0l0.4-0.1l0.2,0l0,0l0,0.1l0,0l0.2-0.1l0.3-0.3l0.2,0l-0.1,0.2l-0.1,0.2L97,39.1l-0.1,0.1l-0.1,0l-0.3,0.1l-0.1,0.1v0.1
		l0.1,0.2l-0.1,0.2l-0.1,0.2l-0.1,0.3l0,0.1l0.1,0.3l0.2,0.4h0.1l0.1-0.2l0.3-0.1l0.3-0.1l0.2,0.1V41l0,0.2l0.1,0.1l0.1,0.1l0.1,0.1
		v0.2l0,0.3l-0.1,0.3l-0.1,0.1l-0.2,0.1l-0.2-0.1L97,42.3l-0.2-0.1l-0.2,0l-0.3,0.1l0.7,1.4l0.3,0.3l0.3,0.2l0.2,0.1l0.1-0.1
		l0.1-0.1l0.2,0.1l0.3,0.1l1,0l0.3,0.1l0.3,0.2l0.5,0.4l0.3,0.1l0,0.3l0.1,0.4l0.2,0.4l0.2,0.2l0.1,0l0.4,0.2l0.1,0.1l0,0.2l0,0.4
		l0.1,0.4l0.3,0.3l0.6,0.4l0.3,0.1l0.7,0.1l0.3,0.2l0.1,0.2l-0.1,0l-1-0.2l-0.5-0.3l-0.1,0l-0.2,0l-0.2-0.1l-0.1-0.1l-0.6-0.8
		l-0.1-0.4l-0.1-0.1l-0.2-0.2l-0.3-0.4l-0.8-1.4l-0.2-0.2l-0.1,0l-0.3,0l-0.1,0l-0.1-0.1l-0.1,0.1l-0.6,0l-0.6,0.2l-0.2,0.2l-0.3,0
		l-0.6,0.1l-0.3,0l-0.6-0.2l-0.3-0.2l-0.3-0.2l-0.2-0.2l-0.1,0l-0.2,0l-0.2,0l-0.2,0.1l-0.2,0.2l-0.1,0.2l-0.1,0.4l-0.2,0.8
		l-0.3,0.8L93.5,47l0,0.2l0,0.2l0.1,0.3l0.1,0.3l0.1,0.2l0.1,0.2l0.1,0.1l0.2,0.5l0,0.1l-0.1,0.4l-0.2,0.2l-0.2,0.1l-0.1,0.3l0,0.4
		l0.1,0.9l0,0.3l-0.1-0.3l0-0.3l0-0.8l0-0.4l0.1-0.3l0.2-0.2l0.2-0.2v-0.1L93.7,49L93,48.9l-0.3-0.2l-0.1-0.1l-0.1-0.2l-0.1-0.2
		l-0.2-0.1l-0.3,0l-0.1,0.1l-0.1,0.1l-0.1,0.2L91.5,49l-0.1,0.2l0,0.2l0.2,0l0.3-0.1l0.2,0.3l0,0.5l-0.2,0.5l-0.2,0.3l-0.1,0.1
		L91.6,51l-0.1,0l-0.1,0L91.2,51l-0.1-0.1L91,50.7L91,50.7l-0.1,0l-0.2-0.2l-0.1-0.1l-0.1,0l-0.1,0l-0.1,0.1l-0.1-0.1l-0.1-0.2
		L90,49.7l0.1-0.1l0.3,0l0.1-0.1l0.2-0.1l0.1-0.1l0-0.2l-0.1-0.1l-0.2-0.1l-0.1-0.1l0.1-0.2v-0.1l-0.3-0.2L90,47.9l-0.2-0.5l0.1-0.4
		v-0.1l-0.7-0.2l-2.4,0.3l-1.2,0.3l-0.2,0l-0.1-0.1l-0.1-0.1l-1.2,0.1l-0.6,0.2l-0.3,0.3l-0.2,0.1l-0.3,0.3l-0.3,0.2l-0.1,0.2l0,0.2
		l0.1,0.1l0.2,0.1l0.1,0.1l0,0.2l-0.1,0.1l-0.1,0l0,0.1l-0.3-0.1l-0.2,0l-0.1,0.1l0,0.2l-0.2,0.4l0,0.2l0,1l0.1,0.4L82,52l1.8,0.1
		l0.3,0.1l0.2,0.3l-0.2-0.1L84,52.2l-0.2,0l-0.2,0l-0.1,0.1l-0.2,0.3l0.1,0.2l0,0.2L83.2,53l-0.1,0.1l-0.1,0.1l-0.1,0l0,0.4l0,0.2
		l0,0.2l-0.1,0.2l-0.1,0.3l0,0.1l0,0.2l0,0.1l0,0.1l0,0.1l0.1,1l0,0.5L82.9,57l-0.2,0.5l-0.7,1.1l-0.1,0.4l-0.1,0.4l-0.1,1.4
		l-0.1,0.5l-0.1,0.3l-0.3-0.1l-0.1-0.1l-0.4,0.1l-0.4-0.1l-0.8,0l-0.3,0.1L79,61.6l0.1,0.1l0,0.1l0,0.1l0,0.1l0.1,0.1l0.3,0.2
		l-0.5,0.2l-0.1,0l0.1,0.2l0,0.2l0,0.2l0,0.2l0.2,0.2l0.2,0.1l0.6,0.1l0.4,0.2l0.2,0l0.2,0L81,64l0.1-0.1l0.1-0.1l0,0l0.5,0.8
		l0.1,0.3l-0.1,0.5l-0.2,0.4l-0.1,0.2l0,0.2l0.1,0.3l0.1,0.1l0,0.1L81.3,67l-0.1,0.1L81,67.4l-0.2,0.1l-0.3,0.2l-0.2,0.2l-0.2,0.4
		L80,68.3l-0.5,0.1l-0.1,0.1l-0.1,0.1l0,0.1l-0.1,0.2l-0.1,0.1L79,69l-0.1,0l-0.1,0l-0.1,0.1l0,0.2l0.1,0.1l0.2,0.1l0.5,0.3l0.2,0.2
		l0,0.1l0,0.1l0,0.2l0,0l-0.1,0l-0.1,0.1l-0.2,0.3L79.3,71l-0.2,0.1l-0.7,0l-0.8,0.3l-0.4,0.3L77,71.8h-0.2l-0.5-0.2l0.1,0.3l0,0.1
		l-0.3,0.1l0-0.2l-0.1-0.1l-0.3,0l0,0l-0.1-0.2l-0.1-0.1l-0.1,0l-0.3,0.1l-0.3-0.1l-0.3-0.2l-0.3-0.1L74,71.3l0.1,0.1l0.3,0.3
		l0.1,0.2l-0.1,0l-0.2,0L74,71.8l-0.3,0.1l-0.1,0.1L73.3,72l-0.2,0.1l-0.3,0.1l-0.1,0.1l0,0.1l0.2,0.1l0.1,0.3l0,0.3l-0.2,0.2l0,0.1
		l0.1,0l0.2,0l0.1,0l0.2,0.1l0.1,0.1L73.4,74l0.2,0.2l0.5,0.2L74,74.8l0,0.2l0,0.2l0.5,0.7l0.3,0.4l0.1,0.4l0,0.2l0,0.3l-0.1,0.3
		l0,0.2l0.1,0.1l0,0.1l0,0.3l0,0.2l-0.1,0.1l-0.2,0.1l-0.1,0.1l-0.4,0.8l-0.2,0.2l-0.1,0.1l-0.1,0.3l0,0.3l0.1,0.2l0.2,0.1l0.4-0.3
		l0.2,0.1l-0.1,0l-0.2,0.2l0.2,0.2L74.4,81l-0.5,0.3l-0.7,0.6L73,82l-0.2,0.3l-0.1,0.1l-0.1,0l-0.1-0.1l-0.1-0.1l-0.1-0.1l-0.2,0.1
		l0,0.3l0.1,0.4l0,0.3l0.1,0l0.2-0.1l0.1,0l0.1,0l0.2,0.1l0.3,0l0,0.1l-0.1,0.1l0,0.1l0,0.2l0,0.1l0.1,0.1l0.2,0.1l0.3,0.1l0,0.1
		l0,0.1l0,0.1l0.1,0.3l0,0.1l-0.1,0.1l-0.1,0.1l-0.2,0l-0.1,0.1L73.3,85l0,0.1l0,0.1l0,0.2l-0.1,0.1l-0.1,0l0,0.2l0.1,0.1l0.1,0.1
		l0.1,0.1l0,0.2l0,0l0,0l0,0l0,0v0l0,0l0,0l0.1,0l0,0l0,0.1v0l0,0.1l0,0.1l0,0l0.1,0l0.3-0.1l0.1,0l0.2,0.2l0.1,0.1l0.4,0.6l0,0
		l-0.1,0.1l0.1,0.2l0.2,0.1l0.6,0l0,0.1l0,0.1l0,0l-0.1,0.1v0L75,88.2l-0.2,0.1l-0.1,0.1l-0.1,0.2l0,0l0.1,0.2L74.7,89l0,0.1v0
		l0.1,0l0.1,0h0l-0.1,0.1l0,0l0,0h0l0,0l0,0.1l0,0l0,0l0,0l0.1,0l0.2-0.1l0,0l0,0l0,0l0,0l0,0l0,0l0.1,0.1l0.4,0.1l0.1,0l-0.1,0.1
		l0,0l0,0.1l0,0l0,0.1l0,0.1l0,0l0,0.1l0,0h0l0,0l0,0v0l0,0l0,0.2l-0.1,0.3l0,0L76,90.8l0,0.2l0.3,0.5l0,0.2v0l-0.1,0.1l0,0l0,0
		l-0.2,0l-0.1,0l-0.1,0l0,0l-0.1,0l0,0l-0.1,0l-0.1,0.1l0,0L75.5,92l0,0.1l0,0.1h0l-0.1,0.1l-0.2,0.1l-0.1,0l-0.2,0.1l-0.1,0.1l0,0
		l-0.1,0.1l0,0l-0.1,0.1l0,0l0.1,0.1l0,0l0,0.1l0,0.1l0,0.1l0,0l0,0l-0.2,0l0,0l-0.1,0l0,0l0,0l0,0.1l0,0.1l0,0.1l0.1,0.1l0,0.1v0
		l0,0l0,0.1l-0.1,0.1l-0.1,0.2l0,0.2l-0.1,0.4l0,0l0,0l0,0l0,0L74.1,95l0.1,0l0.1,0.1l0,0.3l0,0.1l0,0.1l0.1,0.2l0.1,0.4l0.1,0.1
		l0.1-0.2l0.1,0.2l0.3,0.6l0.1,0.1l0.3,0.1l0.1,0.1l0,0.1l0.1,0.2l0,0l0.1,0l0.1-0.1l0.1,0l0.1,0.1l0.2,0.2l0.1,0.1l0.1,0H77
		l0.2,0.1l0,0l0,0l0,0l0,0.1l0,0l0,0.3l0,0.1l0,0.1l0,0l-0.1,0.1l0,0.1l0,0.1l0,0.1l0.1,0.1l-0.1,0l0,0l0,0.1l0.1,0.1l0,0l-0.6,0.4
		l-0.1,0.2l0,0l0.1,0l0,0l0,0.1l0,0.1l-0.1,0.1l-0.1,0.2l-0.2,0.3l-0.1,0.2l0,0.1v0.4l-0.1,0.5l0,0.4v0.1l0.1,0l0.1,0l0.2-0.1l0.1,0
		l0.1,0l0.7,0.4l0.1,0.1l0,0.1l0,0.1l0,0.1l0,0l0.1,0.1l0.4,0.4l0,0.1l0,0.1l-0.1,0l0,0.1l0.1,0.1l0.1,0.2l0.5,0.5l0,0.1l0,0.1
		l0,0.1l0,0l0.1,0l0,0l0.1,0.2l0,0.1l0,0l0,0.1l0,0l0,0l0.1-0.1h0l0.1,0.2l0,0.2l0,0.2l0.1,0.2l0.1,0l0.4,0l0.3,0.1l0.1,0l0.1-0.2
		l0-0.2l-0.1-0.2l0-0.2l0.1,0l0.3,0.1l0.2,0l0.1,0l0.5,0.3l0.2,0l0,0.4l0.1,0.3l0.2,0.1l0.2-0.2l0-0.1l0-0.1l0-0.1l0.1-0.1l0,0
		l0.3,0.2l0.1,0.1l0.1,0l0.7,0l0.2,0.1l0.1,0l0,0l0.1-0.2l0.1-0.1l0.1,0l0.2,0l0.1,0l0-0.1l0.1-0.2l0-0.1l0.1-0.1l0.2-0.1l0.2,0
		l0,0.1l0.4,0l0.1,0.1l0.1,0.2l-0.1,0l0,0l0,0l0.1,0.1l0.2,0.3l0.1,0.1l0.2,0.1l0.4,0.1l0.2,0.1l0.1,0.1l0.1,0.2l0.1,0.1l0.1,0
		l0.1,0l0.1,0l0.1,0l0.1,0l0.2,0.1l0.1,0l0.1,0l0.2-0.1l0.1,0l0.7,0.2l0.5,0l0.1,0l1.3,0.7l0.8,0.2l0.1,0.1l-0.2,0.2l-0.3,0.5
		l-0.4,1l-0.1,0.2l0,0l-0.3,0.2l-0.1,0l0,0l0,0l0,0.1l0,0.1l0,0.1l0,0l-0.1,0l-0.2,0l-0.1,0l0,0.1l0,0.2l0,0.1l-0.1,0.1l-0.1,0.1
		l-0.1,0.1l-0.2,0.3l-0.1,0.1l-0.1,0l-0.1,0.1l-0.3,0.5l-0.1,0.4v0.4l0.1,0.3v0.1l-0.2,0.2l-0.1,0.1l0,0.1l0,0.2l0,0.1l-0.1,0.1
		l-0.1,0.1l0,0.1l-0.1,0.3l0,0.2l0,0.1l0.1,0.2l0,0.2l0,0.2l-0.1,0.2l-0.1,0.1l-0.1,0.1l-0.1,0.3l0,0.2l-0.1,0.2l-0.1,0.2l-0.5,0.7
		l-0.1,0.1l0,0.2l0,0.1l-0.1,0.1l-0.1,0.1l-0.1,0.2l-0.1,0.2l0,0.5l0.4,0.6l0,0.4l-0.1,0.1l-0.2,0.2l0,0.2l0,0.2l0,0.1l-0.1,0.1
		l0,0.1l-0.1,0.1l0,0.1l0,0l0,0l0,0l0,0.1l0,0.2l0,0.1l-0.1,0.1l0,0.1l-0.1,0.4l0,0.2l0.1,0.4l0,0.2l0,0.1l-0.1,0.1l0,0.1l0,0.3
		l0,0.1l0,0.1l0.1,0.1l0.1,0.2l0.2,0.4l0,0.1l0.1,0l0,0.1l0,0.1l0,0l0,0.1l0.4-0.1l0.2,0l-0.1,0.3l-0.1,0.1l-0.2,0l0.4,0.2l0.2,0
		l0.7-0.1l0.2-0.1l0.1-0.2l0.1-0.2l0.1,0.1l0.5,0l0,0.1l0,0.1l0,0.1l0,0h1.1l0.4-0.1l0.1-0.1l0-0.1l0-0.1l0.1-0.1l0.1-0.1l0.2-0.1
		l0.1,0l0.1-0.1l0-0.1l0,0l0.4-0.1l0.1,0l0.2,0.1l0.1,0l0,0.1l0,0.1l0.1,0.1l0.1,0.1l0.3,0.1l0.5,0l0.2,0l0-0.1l0.1-0.2l0.2-0.2
		l0.2,0l0.1,0.1l0.1,0.2l0.1,0.1l0.1,0l0.1-0.1l0-0.1l0-0.1l0-0.1l0,0l0,0l0-0.1l0-0.1l0,0l0,0l0,0l0,0l0,0.1l0.1,0l0-0.3l-0.1,0
		l-0.1-0.1l-0.1,0l-0.4,0.1l-0.1,0.1l-0.1,0.1l-0.1,0.1l-0.1,0l-0.2-0.1l-0.2-0.2l0,0l-0.1,0l0.1-0.1l0-0.1l0-0.1l0-0.1l0.1-0.1
		l0.2-0.1l0.1-0.1l0.1-0.2l0-0.1l0.1-0.2l0.1,0l0.1,0l0.4-0.1l0.1-0.1l-0.1-0.2l0.1-0.1l0.2,0l0.1,0.1l0,0.1l0,0.2l0,0.1l0.1,0.1
		l0.1-0.1l0-0.3l0.1-0.1l0.1,0l0.1,0.1l0.1,0.1l0.1,0.1l0.1,0l0.1,0l0.1,0l0.1,0.1l0,0l-0.1,0.2l0,0.1l0,0.1l0.1,0.1l0,0.1l0,0.1
		l0.4,0l-0.1-0.1l0.1-0.2l0.2,0l0.3,0.2l0.2,0.2l-0.1,0v0.1l0.1,0.1l0.2,0.2l0.2,0.1l0.3,0l0.3-0.1l0.1-0.1l0.2-0.1l0.9,0.1h0.4
		l0.1,0.2h0.3l0.3,0.1l2.2,1.4l0.5,0.1l0.5,0l0.2-0.1l0.1-0.2l0.1-0.2l0.2-0.2l0.1-0.1l0.1,0l0.1,0l0.1,0.1l0,0.1l0,0.1l0,0.1
		l0.2,0.1l0.1,0l0.1-0.1l0,0l0.2,0.1l0.2,0l0.1,0l0.1-0.1l0,0.2l0.1,0.1l0.1,0.1l0.1,0.2v0l0,0l0,0.1l0.1,0.1l0.1,0l0.1-0.1l0.1,0
		l0.4,0.6l0.1,0.1l0,0.1l-0.2,0.1l0.1,0.1l0,0.1l0,0.1l0,0.1l0.1,0.1l0.1,0l0.1,0l0.1-0.1l0,0l0.1,0.1h0l0,0l0.1-0.1l0.4-0.1
		l0.1,0.1l0,0.2l-0.1,0.4l0,0.1l0,0.1l0,0.1l0,0l-0.1,0l0,0l-0.1,0.1l0,0.1l0,0l0.6-0.1l0.2-0.1l0.4-0.2l0.2-0.1l0.1-0.2l0.2-0.4
		l0-0.1l0.1-0.1l0.2-0.1l0.1,0l0.1-0.2l0.1-0.2l0.1-0.3v-0.3l0-0.1l0-0.1l-0.1-0.1l-0.1-0.1l0.1-0.5l0-0.1l-0.1-0.1l-0.1-0.1l0-0.1
		l0.1,0l0.1,0l0.1,0l0,0l0,0.1l0,0l0,0.1l0,0.1l0,0.1l0,0.1l0.1,0l0.1,0.1l0.3,0.1l0.1,0l0.1-0.1l0.2-0.2l0.1-0.1l0.2,0l1.1,0.4l0,0
		l0,0.1l0,0.1l0.1,0l0.2,0l0.3-0.1l0.1,0l0.1,0l0.1,0l0.2,0.1l-0.1,0.1l-0.3,0.2l0.1,0.1l0.4,0.2l0.4,0.4l0,0.1l0,0.1l0,0.1l0,0.1
		l0,0l0.1,0.2l0.1,0.1l0.8,0l0.2,0l0.5-0.4l0.2-0.1l0.2,0.1l0,0.3l0.2,0l0.2-0.1l0.1-0.1l0.1-0.1l0.2-0.1l0.2,0l0.4,0l0.1-0.1
		l0.1-0.1l0-0.1l-0.1-0.1l-0.1,0l0.4-0.4l0.2,0l0.2,0l0.2,0.1l0.4-0.1l0.2-0.1l0.1-0.2l0-0.1l0.1-0.3l0.1-0.1l0.2-0.2l0,0l0.1,0
		l0.4,0.1l0.7,0l0.5,0.1l0.1,0l0.1-0.2l0.1-0.1l0.7-0.1l1.9,0.1l0.1,0l0.2-0.3l0-0.1l0-0.1l0-0.3l0-0.1l0,0l-0.1-0.1l-0.1-0.1l0-0.1
		l0-0.1l0.1-0.1l0.2-0.2l0.1,0l0.1-0.1l0,0l0,0.1l0,0.1l0,0.1l-0.1,0.1l0,0.1l0,0.1l0.1,0.1l0.1,0l0.2-0.1l0.2,0l0.5,0.1l0.1,0
		l0.3-0.1l0.1,0l0,0.1l0.1,0.3l0,0.1l0.1,0.1l0.2,0.2l0.1,0.1l0.2,0l0.2,0l0.1-0.1l0.4-0.3l0.2-0.1l0.3-0.1h0.3l0.5,0.1l0.1,0
		l-0.1,0.2l0.1,0.2l0.2,0.1l0.2,0.2l-0.2,0.1l-0.1,0.3l0,0.3l0.2,0.2l0.1,0l0.1,0l0.1,0.1l0.4,0.4l0.4,0.3l0.1,0l0.1,0l0.1,0l0.1,0
		l0.1,0l0,0l0,0l0.1,0l0.1,0l0.2-0.3l0-0.1l0-0.1l0-0.1l0-0.1l0-0.1v-0.2l0,0l0.1-0.2l0,0l0,0l0-0.3l0,0l0.1-0.2l0,0l0.1-0.2l0,0
		l0-0.1l0-0.1l0-0.2l-0.1-0.2l-0.2-0.3l-0.1-0.1l-0.1-0.1l-0.1,0l-0.2,0.1l-0.1,0l-0.5-0.1l-0.1-0.1l0.1-0.2l0,0l0.1-0.1l0-0.1
		l0-0.1l0-0.1l0-0.1l0.5-0.8l0,0l-0.2-0.3l-0.3-0.6l-0.1-0.1l-0.1,0l-0.2-0.2l-0.2-0.1l-0.1-0.1l0-0.1l0-0.1l-0.1-0.3l-0.6-0.6
		l-0.1-0.1l-0.1-0.1l0-0.2l0-0.2l0-0.1l0.1,0l0.1,0l0,0l0.1-0.2l0,0l0.3-0.2l0.1-0.1l0.1-0.2l0.1-0.1l0.1-0.1l0.5-0.1l0,0l0.1-0.1
		l0.3-0.1l0.3-0.3l0.1-0.1l0.8-0.3l1.1-0.2l0.3-0.2l0.8-0.7l0.1-0.2l0-0.3l0-0.1l0-0.1l0-0.1l0-0.1l0-0.3l0-0.1l0-0.1l0.1-0.2l0-0.1
		l0-0.1l-0.1-0.1l0-0.2l0-0.1l0,0l0-0.1l0.1-0.1l0.3-0.1l0.3,0l0.8,0.2l0.1,0.1l0.1,0.1l0.1,0.2l0.3,0.2l0,0l0.1-0.3l0.1-0.1l0,0
		l0.2,0l0.1,0l0.1-0.1l0-0.1l0.1-0.3l0.1-0.2l0-0.2l0-0.2l0-0.4l0-0.1l0.1-0.1l-0.1,0l0,0l-0.1-0.2l0,0l0-0.1l0.2-0.5l-0.2-0.2
		l-0.4-0.8l-0.2-0.3l-0.1-0.1l-0.3,0l-0.2-0.1l-0.1-0.1l-0.1-0.2l-0.1-0.2l0-0.2l-0.1,0l-0.1-0.1l-0.1-0.1l-0.1-0.1l-0.2,0l-0.1,0.1
		l-0.1,0.1l-0.1,0.2l-0.2-0.1l-0.3-0.2l-0.2-0.2l-0.1-0.2l0-0.3l-0.1-0.2l-0.3-0.4l-0.2-0.3l-0.1-0.1l-0.2-0.1l-0.5,0l-0.2-0.1
		l-0.1-0.2l-0.1-0.2l-0.8-1l-0.1-0.1h0v0l-0.3-0.3l0-0.1l0-0.1l0-0.1l-0.1-0.1l-0.2-0.2l-0.1-0.1l-0.1-0.1l-0.3-0.1l-0.1,0l0,0.2
		l-0.2,0l-0.5-0.1l-0.2-0.1l-0.1-0.1l-0.3-0.6l-0.2-0.2l-0.4-0.2l-0.2-0.1l-0.1-0.2l0-0.2l0-0.4l0-0.2l-0.1,0l-0.1,0l-0.1,0
		l-0.1-0.1l-0.1-0.1l-0.1-0.1l-0.1-0.1l0-0.1l0-0.3l-0.1-0.1l-0.1-0.1l-0.2-0.1l-0.1-0.1l0,0l0-0.1l-0.1,0l0,0l0.1-0.2l0-0.2
		l-0.1-0.1l-0.1-0.1l-0.3-0.1l-0.1-0.1l-0.1-0.1l-0.2-0.2l-0.1-0.2l0-0.1l0.1-0.2l0.3-0.1l0.1-0.1l0-0.2l0-0.3l0-0.2l0.2,0.1
		l0.1-0.2l0.2-0.3l0.1-0.2l0-0.2l-0.1-0.1l-0.1,0l-0.3-0.2l0-0.1l0.1-0.2l0-0.2l-0.1-0.1l-0.3,0l-0.1-0.1h0L124,95l0-0.1l0-0.1
		l0-0.1l-0.1-0.1l-0.1-0.1l-0.1-0.1l-0.1-0.1l-0.1-0.2l0-0.2l0.1-0.3l0-0.2l-0.1-0.2l-0.1-0.1l-0.2-0.2l-0.4-0.3l-0.1-0.1l0.1-0.2
		l0.1-0.1l0.1-0.1l0-0.2l0-0.2l-0.1-0.1l-0.2-0.2l0.6,0l0.2,0.1l0,0.1l0,0.2l0,0.1l0.1,0.1l0.1,0l0.2,0l0.1,0l0,0l0,0.1l0,0.1l0,0
		l0,0l0,0l0,0l0,0l0,0l0,0l0,0l0.1,0.1l0,0l0,0.1l0,0.1l0,0.1l0.1,0.3l0.1,0.1l0.1,0l0.1-0.1v-0.1l0-0.1l0-0.2l0-0.2l0-0.1l0.2-0.2
		l0-0.2l0.1-0.1l0.1-0.1l0.1-0.1l0.3-0.5l0.1-0.1l0.2-0.1l0.1-0.1l0,0l0.1,0l0,0l0,0l0-0.1l0,0v0l0-0.1l0-0.1l0-0.1l0.1-0.1l0.2-0.2
		l0.3-0.1l0.6,0l0.4,0.1l0.1,0l0.1-0.1l0.2-0.3l0.1-0.1l0.1,0l0.1,0l0.1,0l0.1,0l0.1-0.1l0.1,0l0.1,0l0.8,0.5l0.3,0l0.2-0.2l0.1-0.1
		l0.1-0.2l0.1-0.5l0.1,0l0.1,0l0.1,0l0.1,0l0.1,0l0.1,0l0.1,0l0.1,0l0,0l0.2-0.1l0.4,0l0.2-0.1l0.1-0.2l0.3-0.7l0.2,0l0.1,0.1
		l0.1,0.1l0.2-0.1l0.1-0.3l0-0.1l0.3-0.2l0-0.1l0,0l0,0l0.1,0l0,0l0.1,0.2l0.1,0.1l0.2,0.1l0.2,0l0.1-0.1l0.1-0.2l0.1,0l0-0.1l0-0.1
		l0-0.1l0.1-0.1l0.1-0.1l0-0.2l-0.1-0.2l0.3-0.2l0.4-0.1l0.7,0l0.2,0l0.3-0.1l0.2,0l0.4,0l0.1,0l0.2-0.1l0,0l0,0l0.1-0.1l0-0.1
		l0-0.1l0-0.1l0-0.1l0.1-0.1l0.1,0l0.1,0l0.1,0l0.1-0.1l0.1-0.2l0.1-0.1l0.2,0l0.3,0l0.2,0l1.3-0.6l0.1-0.1l0.1-0.2l0.1-0.1l0.3-0.1
		l0.6,0l0.2-0.2l0-0.3l-0.2-0.1l-0.3-0.1l-0.2-0.2l0-0.1l0.1,0l0,0l-0.2-0.1l-0.3,0l-0.1-0.1l0.1-0.1l0.1-0.4l0.2-0.2l0.3,0l0.3,0.1
		l0.1,0.1l0,0.1l0.1,0.1l0.1,0l0.1,0l0.2-0.1l0.3,0l0.1,0l0.1-0.2l0,0.1l0,0.1l0,0.1l0.1,0.1l0.1,0.1l0.2,0.1l0.1,0.1l0.1,0.1
		l0.1,0.1l0,0.1l0,0.2l-0.1,0.2l-0.1,0.2l0,0.2l0.1,0.1l0.4-0.2l0.1,0l0,0.1l0,0.2l-0.1,0.3l0,0.2l0,0.1l0.3,0.1l0.1,0.1l0.3,0.2
		l0.3,0.1l0.2,0l0.1,0l0.1-0.1l0.1-0.1l0.1-0.3l0-0.2l0.1-0.2l0.3-0.3l0.4-1L146,82l0-0.1v-0.2l0-0.1l0-0.1l0.1-0.1l0.1-0.1l0-0.2
		l0-0.3l0.1-0.4l0.1-0.3L146.5,79.8L146.5,79.8z"/>
	<g>
		<path class="st1" d="M170,19.7h-0.6v-4l-1.7,4h-0.2l-1.6-4v4h-0.6v-4.8h0.9l1.5,3.6l1.5-3.6h0.9V19.7z"/>
		<path class="st1" d="M173.8,19.7h-0.5v-0.4c-0.3,0.3-0.7,0.5-1.2,0.5c-0.3,0-0.6-0.1-0.9-0.3c-0.2-0.2-0.4-0.5-0.4-0.9
			c0-0.4,0.1-0.7,0.4-0.9c0.2-0.2,0.5-0.3,0.9-0.3c0.5,0,0.9,0.2,1.2,0.5v-0.6c0-0.2-0.1-0.4-0.2-0.5c-0.2-0.1-0.4-0.2-0.6-0.2
			c-0.4,0-0.8,0.2-1.1,0.5l-0.3-0.4c0.4-0.4,0.8-0.6,1.4-0.6c0.4,0,0.7,0.1,1,0.3c0.3,0.2,0.4,0.5,0.4,0.9V19.7z M172.3,19.4
			c0.4,0,0.8-0.1,1-0.4v-0.7c-0.2-0.3-0.5-0.4-1-0.4c-0.3,0-0.5,0.1-0.6,0.2c-0.2,0.1-0.2,0.3-0.2,0.6c0,0.2,0.1,0.4,0.2,0.5
			C171.9,19.4,172.1,19.4,172.3,19.4z"/>
		<path class="st1" d="M176.5,19.8c-0.5,0-0.9-0.2-1.3-0.5c-0.3-0.4-0.5-0.8-0.5-1.3c0-0.5,0.2-1,0.5-1.3c0.3-0.3,0.7-0.5,1.3-0.5
			c0.5,0,1,0.2,1.3,0.6l-0.4,0.3c-0.2-0.3-0.5-0.5-0.9-0.5c-0.4,0-0.7,0.1-0.9,0.4c-0.2,0.3-0.3,0.6-0.3,1c0,0.4,0.1,0.7,0.3,1
			c0.2,0.3,0.5,0.4,0.9,0.4c0.4,0,0.7-0.2,0.9-0.5l0.4,0.3C177.4,19.6,177,19.8,176.5,19.8z"/>
		<path class="st1" d="M180.1,19.8c-0.5,0-1-0.2-1.3-0.5c-0.3-0.3-0.5-0.8-0.5-1.3c0-0.5,0.2-0.9,0.5-1.3c0.3-0.4,0.7-0.5,1.2-0.5
			c0.5,0,0.9,0.2,1.2,0.5c0.3,0.4,0.5,0.8,0.5,1.3v0.1h-2.8c0,0.3,0.2,0.6,0.4,0.9c0.2,0.2,0.5,0.3,0.9,0.3c0.4,0,0.8-0.1,1.1-0.4
			l0.3,0.4C181.1,19.6,180.7,19.8,180.1,19.8z M181.2,17.8c0-0.3-0.1-0.6-0.3-0.8c-0.2-0.2-0.5-0.4-0.9-0.4c-0.3,0-0.6,0.1-0.8,0.4
			s-0.3,0.5-0.3,0.8H181.2z"/>
		<path class="st1" d="M185.7,19.7h-0.5v-0.5c-0.3,0.4-0.7,0.6-1.2,0.6c-0.5,0-0.8-0.2-1.1-0.5c-0.3-0.3-0.4-0.8-0.4-1.3
			c0-0.6,0.1-1,0.4-1.3c0.3-0.3,0.7-0.5,1.1-0.5c0.5,0,0.9,0.2,1.2,0.6v-1.9h0.5V19.7z M184.1,19.3c0.2,0,0.4-0.1,0.6-0.2
			c0.2-0.1,0.3-0.2,0.4-0.4v-1.6c-0.1-0.2-0.3-0.3-0.4-0.4c-0.2-0.1-0.4-0.2-0.6-0.2c-0.3,0-0.6,0.1-0.8,0.4s-0.3,0.6-0.3,1
			c0,0.4,0.1,0.7,0.3,1C183.5,19.2,183.8,19.3,184.1,19.3z"/>
		<path class="st1" d="M189.6,19.3c-0.3,0.4-0.7,0.5-1.3,0.5c-0.5,0-0.9-0.2-1.3-0.5c-0.3-0.4-0.5-0.8-0.5-1.3c0-0.5,0.2-1,0.5-1.3
			c0.3-0.4,0.7-0.5,1.3-0.5c0.5,0,0.9,0.2,1.3,0.5c0.3,0.4,0.5,0.8,0.5,1.3C190.1,18.5,189.9,18.9,189.6,19.3z M187.5,18.9
			c0.2,0.3,0.5,0.4,0.9,0.4c0.4,0,0.6-0.1,0.9-0.4s0.3-0.6,0.3-1c0-0.4-0.1-0.7-0.3-1c-0.2-0.3-0.5-0.4-0.9-0.4
			c-0.4,0-0.6,0.1-0.9,0.4c-0.2,0.3-0.3,0.6-0.3,1C187.2,18.4,187.3,18.7,187.5,18.9z"/>
		<path class="st1" d="M193.9,19.7h-0.5v-2.3c0-0.3-0.1-0.5-0.2-0.6s-0.3-0.2-0.6-0.2c-0.2,0-0.4,0.1-0.6,0.2
			c-0.2,0.1-0.3,0.2-0.4,0.4v2.6H191v-3.5h0.5v0.5c0.1-0.2,0.3-0.3,0.5-0.4c0.2-0.1,0.5-0.2,0.7-0.2c0.7,0,1.1,0.4,1.1,1.1V19.7z"/>
		<path class="st1" d="M195.2,15.7c-0.1,0-0.2,0-0.3-0.1c-0.1-0.1-0.1-0.2-0.1-0.3s0-0.2,0.1-0.3c0.1-0.1,0.2-0.1,0.3-0.1
			c0.1,0,0.2,0,0.3,0.1c0.1,0.1,0.1,0.2,0.1,0.3s0,0.2-0.1,0.3C195.4,15.7,195.3,15.7,195.2,15.7z M195.5,19.7H195v-3.5h0.5V19.7z"
			/>
		<path class="st1" d="M199.3,19.7h-0.5v-0.4c-0.3,0.3-0.7,0.5-1.2,0.5c-0.3,0-0.6-0.1-0.9-0.3c-0.2-0.2-0.4-0.5-0.4-0.9
			c0-0.4,0.1-0.7,0.4-0.9c0.2-0.2,0.5-0.3,0.9-0.3c0.5,0,0.9,0.2,1.2,0.5v-0.6c0-0.2-0.1-0.4-0.2-0.5s-0.4-0.2-0.6-0.2
			c-0.4,0-0.8,0.2-1.1,0.5l-0.3-0.4c0.4-0.4,0.8-0.6,1.4-0.6c0.4,0,0.7,0.1,1,0.3c0.3,0.2,0.4,0.5,0.4,0.9V19.7z M197.8,19.4
			c0.4,0,0.8-0.1,1-0.4v-0.7c-0.2-0.3-0.5-0.4-1-0.4c-0.3,0-0.5,0.1-0.6,0.2c-0.2,0.1-0.2,0.3-0.2,0.6c0,0.2,0.1,0.4,0.2,0.5
			C197.4,19.4,197.6,19.4,197.8,19.4z"/>
	</g>
	<g>
		<path class="st1" d="M169.4,57.3h-0.7l-0.4-1.1h-2.4l-0.4,1.1h-0.7l1.9-4.8h0.7L169.4,57.3z M168.1,55.6l-1-2.6l-1,2.6H168.1z"/>
		<path class="st1" d="M170.5,57.3H170v-4.8h0.5V57.3z"/>
		<path class="st1" d="M172.2,57.3h-0.5v-4.8h0.5v1.9c0.3-0.4,0.7-0.6,1.2-0.6c0.5,0,0.8,0.2,1.1,0.5c0.3,0.3,0.4,0.8,0.4,1.3
			c0,0.6-0.1,1-0.4,1.3c-0.3,0.3-0.7,0.5-1.1,0.5c-0.5,0-0.9-0.2-1.2-0.6V57.3z M172.2,56.3c0.1,0.2,0.2,0.3,0.4,0.4
			c0.2,0.1,0.4,0.2,0.6,0.2c0.3,0,0.6-0.1,0.8-0.4c0.2-0.3,0.3-0.6,0.3-1s-0.1-0.7-0.3-1c-0.2-0.3-0.5-0.4-0.8-0.4
			c-0.2,0-0.4,0.1-0.6,0.2c-0.2,0.1-0.3,0.2-0.4,0.4V56.3z"/>
		<path class="st1" d="M178.5,57.3H178v-0.4c-0.3,0.3-0.7,0.5-1.2,0.5c-0.3,0-0.6-0.1-0.9-0.3c-0.2-0.2-0.4-0.5-0.4-0.9
			c0-0.4,0.1-0.7,0.4-0.9c0.2-0.2,0.5-0.3,0.9-0.3c0.5,0,0.9,0.2,1.2,0.5v-0.6c0-0.2-0.1-0.4-0.2-0.5c-0.2-0.1-0.4-0.2-0.6-0.2
			c-0.4,0-0.8,0.2-1.1,0.5l-0.3-0.4c0.4-0.4,0.8-0.6,1.4-0.6c0.4,0,0.7,0.1,1,0.3c0.3,0.2,0.4,0.5,0.4,0.9V57.3z M177,57
			c0.4,0,0.8-0.1,1-0.4v-0.7c-0.2-0.3-0.5-0.4-1-0.4c-0.3,0-0.5,0.1-0.6,0.2c-0.2,0.1-0.2,0.3-0.2,0.6c0,0.2,0.1,0.4,0.2,0.5
			C176.6,56.9,176.8,57,177,57z"/>
		<path class="st1" d="M182.6,57.3H182V55c0-0.3-0.1-0.5-0.2-0.6s-0.3-0.2-0.6-0.2c-0.2,0-0.4,0.1-0.6,0.2c-0.2,0.1-0.3,0.2-0.4,0.4
			v2.6h-0.5v-3.5h0.5v0.5c0.1-0.2,0.3-0.3,0.5-0.4s0.5-0.2,0.7-0.2c0.7,0,1.1,0.4,1.1,1.1V57.3z"/>
		<path class="st1" d="M183.9,53.3c-0.1,0-0.2,0-0.3-0.1c-0.1-0.1-0.1-0.2-0.1-0.3s0-0.2,0.1-0.3c0.1-0.1,0.2-0.1,0.3-0.1
			c0.1,0,0.2,0,0.3,0.1c0.1,0.1,0.1,0.2,0.1,0.3s0,0.2-0.1,0.3C184.1,53.2,184,53.3,183.9,53.3z M184.2,57.3h-0.5v-3.5h0.5V57.3z"/>
		<path class="st1" d="M188,57.3h-0.5v-0.4c-0.3,0.3-0.7,0.5-1.2,0.5c-0.3,0-0.6-0.1-0.9-0.3c-0.2-0.2-0.4-0.5-0.4-0.9
			c0-0.4,0.1-0.7,0.4-0.9c0.2-0.2,0.5-0.3,0.9-0.3c0.5,0,0.9,0.2,1.2,0.5v-0.6c0-0.2-0.1-0.4-0.2-0.5c-0.2-0.1-0.4-0.2-0.6-0.2
			c-0.4,0-0.8,0.2-1.1,0.5l-0.3-0.4c0.4-0.4,0.8-0.6,1.4-0.6c0.4,0,0.7,0.1,1,0.3c0.3,0.2,0.4,0.5,0.4,0.9V57.3z M186.5,57
			c0.4,0,0.8-0.1,1-0.4v-0.7c-0.2-0.3-0.5-0.4-1-0.4c-0.3,0-0.5,0.1-0.6,0.2c-0.2,0.1-0.2,0.3-0.2,0.6c0,0.2,0.1,0.4,0.2,0.5
			C186.1,56.9,186.3,57,186.5,57z"/>
	</g>
	<g>
		<path class="st1" d="M166.8,86.2c-0.8,0-1.4-0.3-1.9-0.8l0.4-0.5c0.4,0.5,0.9,0.7,1.5,0.7c0.4,0,0.7-0.1,0.9-0.3
			c0.2-0.2,0.3-0.4,0.3-0.6c0-0.2-0.1-0.3-0.2-0.4c-0.1-0.1-0.2-0.2-0.4-0.3S167,84,166.8,84c-0.2-0.1-0.4-0.1-0.6-0.2
			c-0.2-0.1-0.4-0.1-0.6-0.2c-0.2-0.1-0.3-0.2-0.4-0.4c-0.1-0.2-0.2-0.4-0.2-0.6c0-0.4,0.2-0.7,0.5-1c0.3-0.2,0.7-0.4,1.2-0.4
			c0.7,0,1.3,0.2,1.7,0.7l-0.4,0.4c-0.4-0.4-0.8-0.6-1.4-0.6c-0.3,0-0.5,0.1-0.7,0.2c-0.2,0.1-0.3,0.3-0.3,0.6
			c0,0.2,0.1,0.3,0.2,0.4c0.1,0.1,0.3,0.2,0.5,0.2c0.2,0.1,0.4,0.1,0.7,0.2c0.2,0.1,0.5,0.2,0.7,0.3c0.2,0.1,0.4,0.2,0.5,0.4
			c0.1,0.2,0.2,0.4,0.2,0.7c0,0.4-0.1,0.7-0.4,1C167.9,86.1,167.4,86.2,166.8,86.2z"/>
		<path class="st1" d="M171.1,86.2c-0.5,0-1-0.2-1.3-0.5c-0.3-0.3-0.5-0.8-0.5-1.3c0-0.5,0.2-0.9,0.5-1.3c0.3-0.4,0.7-0.5,1.2-0.5
			c0.5,0,0.9,0.2,1.2,0.5c0.3,0.4,0.5,0.8,0.5,1.3v0.1h-2.8c0,0.3,0.2,0.6,0.4,0.9c0.2,0.2,0.5,0.3,0.9,0.3c0.4,0,0.8-0.1,1.1-0.4
			l0.3,0.4C172.1,86,171.6,86.2,171.1,86.2z M172.1,84.1c0-0.3-0.1-0.6-0.3-0.8c-0.2-0.2-0.5-0.4-0.9-0.4c-0.3,0-0.6,0.1-0.8,0.4
			s-0.3,0.5-0.3,0.8H172.1z"/>
		<path class="st1" d="M174.1,86.1h-0.5v-3.5h0.5v0.6c0.3-0.4,0.7-0.6,1.2-0.6v0.6c-0.1,0-0.1,0-0.2,0c-0.2,0-0.3,0.1-0.5,0.2
			c-0.2,0.1-0.3,0.2-0.4,0.4V86.1z"/>
		<path class="st1" d="M176.5,86.1H176v-4.8h0.5v1.9c0.3-0.4,0.7-0.6,1.2-0.6c0.5,0,0.8,0.2,1.1,0.5s0.4,0.8,0.4,1.3
			c0,0.6-0.1,1-0.4,1.3c-0.3,0.3-0.7,0.5-1.1,0.5c-0.5,0-0.9-0.2-1.2-0.6V86.1z M176.5,85.2c0.1,0.2,0.2,0.3,0.4,0.4
			c0.2,0.1,0.4,0.2,0.6,0.2c0.3,0,0.6-0.1,0.8-0.4s0.3-0.6,0.3-1c0-0.4-0.1-0.7-0.3-1c-0.2-0.3-0.5-0.4-0.8-0.4
			c-0.2,0-0.4,0.1-0.6,0.2c-0.2,0.1-0.3,0.2-0.4,0.4V85.2z"/>
		<path class="st1" d="M180.4,82.1c-0.1,0-0.2,0-0.3-0.1c-0.1-0.1-0.1-0.2-0.1-0.3s0-0.2,0.1-0.3c0.1-0.1,0.2-0.1,0.3-0.1
			c0.1,0,0.2,0,0.3,0.1c0.1,0.1,0.1,0.2,0.1,0.3s0,0.2-0.1,0.3C180.6,82.1,180.5,82.1,180.4,82.1z M180.7,86.1h-0.5v-3.5h0.5V86.1z"
			/>
		<path class="st1" d="M184.5,86.1H184v-0.4c-0.3,0.3-0.7,0.5-1.2,0.5c-0.3,0-0.6-0.1-0.9-0.3c-0.2-0.2-0.4-0.5-0.4-0.9
			c0-0.4,0.1-0.7,0.4-0.9c0.2-0.2,0.5-0.3,0.9-0.3c0.5,0,0.9,0.2,1.2,0.5v-0.6c0-0.2-0.1-0.4-0.2-0.5c-0.2-0.1-0.4-0.2-0.6-0.2
			c-0.4,0-0.8,0.2-1.1,0.5l-0.3-0.4c0.4-0.4,0.8-0.6,1.4-0.6c0.4,0,0.7,0.1,1,0.3c0.3,0.2,0.4,0.5,0.4,0.9V86.1z M183,85.8
			c0.4,0,0.8-0.1,1-0.4v-0.7c-0.2-0.3-0.5-0.4-1-0.4c-0.3,0-0.5,0.1-0.6,0.2c-0.2,0.1-0.2,0.3-0.2,0.6c0,0.2,0.1,0.4,0.2,0.5
			C182.5,85.7,182.8,85.8,183,85.8z"/>
	</g>
	<g>
		<path class="st1" d="M168.9,119.2h-0.7l-1.8-2.2l-0.5,0.6v1.6h-0.6v-4.8h0.6v2.5l2.1-2.5h0.8l-2,2.3L168.9,119.2z"/>
		<path class="st1" d="M172.1,118.8c-0.3,0.4-0.7,0.5-1.3,0.5c-0.5,0-0.9-0.2-1.3-0.5c-0.3-0.4-0.5-0.8-0.5-1.3c0-0.5,0.2-1,0.5-1.3
			c0.3-0.4,0.7-0.5,1.3-0.5c0.5,0,0.9,0.2,1.3,0.5c0.3,0.4,0.5,0.8,0.5,1.3C172.6,118,172.4,118.4,172.1,118.8z M170,118.4
			c0.2,0.3,0.5,0.4,0.9,0.4c0.4,0,0.6-0.1,0.9-0.4c0.2-0.3,0.3-0.6,0.3-1c0-0.4-0.1-0.7-0.3-1c-0.2-0.3-0.5-0.4-0.9-0.4
			c-0.4,0-0.6,0.1-0.9,0.4c-0.2,0.3-0.3,0.6-0.3,1C169.7,117.9,169.8,118.2,170,118.4z"/>
		<path class="st1" d="M174.6,119.3c-0.6,0-1.1-0.2-1.4-0.6l0.3-0.4c0.1,0.1,0.3,0.3,0.5,0.4c0.2,0.1,0.4,0.1,0.7,0.1
			c0.3,0,0.5-0.1,0.6-0.2c0.1-0.1,0.2-0.3,0.2-0.4c0-0.2-0.1-0.3-0.2-0.4c-0.1-0.1-0.3-0.2-0.5-0.2c-0.2,0-0.4-0.1-0.6-0.2
			c-0.2-0.1-0.4-0.2-0.5-0.3c-0.2-0.1-0.2-0.3-0.2-0.6c0-0.3,0.1-0.5,0.4-0.7c0.2-0.2,0.6-0.3,1-0.3c0.5,0,1,0.2,1.3,0.5l-0.3,0.4
			c-0.2-0.3-0.6-0.4-1-0.4c-0.2,0-0.4,0.1-0.6,0.2c-0.1,0.1-0.2,0.2-0.2,0.4c0,0.1,0.1,0.3,0.2,0.3c0.2,0.1,0.3,0.1,0.5,0.2
			c0.2,0,0.4,0.1,0.6,0.2c0.2,0.1,0.4,0.2,0.5,0.3c0.2,0.2,0.2,0.4,0.2,0.6c0,0.3-0.1,0.6-0.4,0.8
			C175.4,119.2,175,119.3,174.6,119.3z"/>
		<path class="st1" d="M179.7,118.8c-0.3,0.4-0.7,0.5-1.3,0.5c-0.5,0-0.9-0.2-1.3-0.5c-0.3-0.4-0.5-0.8-0.5-1.3c0-0.5,0.2-1,0.5-1.3
			c0.3-0.4,0.7-0.5,1.3-0.5c0.5,0,0.9,0.2,1.3,0.5c0.3,0.4,0.5,0.8,0.5,1.3C180.1,118,180,118.4,179.7,118.8z M177.6,118.4
			c0.2,0.3,0.5,0.4,0.9,0.4c0.4,0,0.6-0.1,0.9-0.4c0.2-0.3,0.3-0.6,0.3-1c0-0.4-0.1-0.7-0.3-1c-0.2-0.3-0.5-0.4-0.9-0.4
			c-0.4,0-0.6,0.1-0.9,0.4c-0.2,0.3-0.3,0.6-0.3,1C177.2,117.9,177.3,118.2,177.6,118.4z"/>
		<path class="st1" d="M182.6,119.2H182l-1.5-3.5h0.6l1.2,2.9l1.2-2.9h0.6L182.6,119.2z"/>
		<path class="st1" d="M187.4,118.8c-0.3,0.4-0.7,0.5-1.3,0.5c-0.5,0-0.9-0.2-1.3-0.5c-0.3-0.4-0.5-0.8-0.5-1.3c0-0.5,0.2-1,0.5-1.3
			c0.3-0.4,0.7-0.5,1.3-0.5c0.5,0,0.9,0.2,1.3,0.5c0.3,0.4,0.5,0.8,0.5,1.3C187.9,118,187.7,118.4,187.4,118.8z M185.3,118.4
			c0.2,0.3,0.5,0.4,0.9,0.4c0.4,0,0.6-0.1,0.9-0.4c0.2-0.3,0.3-0.6,0.3-1c0-0.4-0.1-0.7-0.3-1c-0.2-0.3-0.5-0.4-0.9-0.4
			c-0.4,0-0.6,0.1-0.9,0.4c-0.2,0.3-0.3,0.6-0.3,1C185,117.9,185.1,118.2,185.3,118.4z"/>
	</g>
	<g>
		<path class="st1" d="M37.3,29.5h-3.2v-4.8h3.2v0.5h-2.6v1.6h2.5v0.5h-2.5V29h2.6V29.5z"/>
		<path class="st1" d="M38.8,29.5h-0.5V26h0.5v0.6c0.3-0.4,0.7-0.6,1.2-0.6v0.6c-0.1,0-0.1,0-0.2,0c-0.2,0-0.3,0.1-0.5,0.2
			c-0.2,0.1-0.3,0.2-0.4,0.4V29.5z"/>
		<path class="st1" d="M40.9,25.5c-0.1,0-0.2,0-0.3-0.1c-0.1-0.1-0.1-0.2-0.1-0.3c0-0.1,0-0.2,0.1-0.3c0.1-0.1,0.2-0.1,0.3-0.1
			c0.1,0,0.2,0,0.3,0.1c0.1,0.1,0.1,0.2,0.1,0.3c0,0.1,0,0.2-0.1,0.3C41.1,25.5,41,25.5,40.9,25.5z M41.2,29.5h-0.5V26h0.5V29.5z"/>
		<path class="st1" d="M43.2,29.6c-0.3,0-0.5-0.1-0.6-0.2c-0.1-0.1-0.2-0.3-0.2-0.6v-2.3h-0.6V26h0.6v-1h0.5v1h0.7v0.5h-0.7v2.2
			c0,0.1,0,0.2,0.1,0.3c0.1,0.1,0.1,0.1,0.3,0.1c0.2,0,0.3,0,0.4-0.1l0.2,0.4C43.7,29.5,43.4,29.6,43.2,29.6z"/>
		<path class="st1" d="M45,29.5h-0.5V26H45v0.6c0.3-0.4,0.7-0.6,1.2-0.6v0.6c-0.1,0-0.1,0-0.2,0c-0.2,0-0.3,0.1-0.5,0.2
			C45.2,26.8,45,26.9,45,27V29.5z"/>
		<path class="st1" d="M48.4,29.6c-0.5,0-1-0.2-1.3-0.5c-0.3-0.3-0.5-0.8-0.5-1.3c0-0.5,0.2-0.9,0.5-1.3c0.3-0.4,0.7-0.5,1.2-0.5
			c0.5,0,0.9,0.2,1.2,0.5s0.5,0.8,0.5,1.3V28h-2.8c0,0.3,0.1,0.6,0.4,0.9c0.2,0.2,0.5,0.3,0.9,0.3c0.4,0,0.8-0.1,1.1-0.4l0.3,0.4
			C49.4,29.4,49,29.6,48.4,29.6z M49.5,27.6c0-0.3-0.1-0.6-0.3-0.8c-0.2-0.2-0.5-0.4-0.9-0.4c-0.3,0-0.6,0.1-0.8,0.4
			c-0.2,0.2-0.3,0.5-0.3,0.8H49.5z"/>
		<path class="st1" d="M53.7,29.5h-0.5v-0.4c-0.3,0.3-0.7,0.5-1.2,0.5c-0.3,0-0.6-0.1-0.9-0.3c-0.2-0.2-0.4-0.5-0.4-0.9
			c0-0.4,0.1-0.7,0.4-0.9c0.2-0.2,0.5-0.3,0.9-0.3c0.5,0,0.9,0.2,1.2,0.5v-0.6c0-0.2-0.1-0.4-0.2-0.5c-0.2-0.1-0.4-0.2-0.6-0.2
			c-0.4,0-0.8,0.2-1.1,0.5l-0.3-0.4c0.4-0.4,0.8-0.6,1.4-0.6c0.4,0,0.7,0.1,1,0.3c0.3,0.2,0.4,0.5,0.4,0.9V29.5z M52.1,29.2
			c0.4,0,0.8-0.1,1-0.4v-0.7c-0.2-0.3-0.5-0.4-1-0.4c-0.3,0-0.5,0.1-0.6,0.2c-0.2,0.1-0.2,0.3-0.2,0.6c0,0.2,0.1,0.4,0.2,0.5
			C51.7,29.2,51.9,29.2,52.1,29.2z"/>
	</g>
	<g>
		<path class="st1" d="M105,5.6h-0.6V0.8h0.6V5.6z"/>
		<path class="st1" d="M106.7,5.6h-0.5V2.1h0.5v0.6c0.3-0.4,0.7-0.6,1.2-0.6v0.6c-0.1,0-0.1,0-0.2,0c-0.2,0-0.3,0.1-0.5,0.2
			c-0.2,0.1-0.3,0.2-0.4,0.4V5.6z"/>
		<path class="st1" d="M111.3,5.6h-0.5V5.2c-0.3,0.3-0.7,0.5-1.2,0.5c-0.3,0-0.6-0.1-0.9-0.3c-0.2-0.2-0.4-0.5-0.4-0.9
			c0-0.4,0.1-0.7,0.4-0.9c0.2-0.2,0.5-0.3,0.9-0.3c0.5,0,0.9,0.2,1.2,0.5V3.2c0-0.2-0.1-0.4-0.2-0.5c-0.2-0.1-0.4-0.2-0.6-0.2
			c-0.4,0-0.8,0.2-1.1,0.5l-0.3-0.4c0.4-0.4,0.8-0.6,1.4-0.6c0.4,0,0.7,0.1,1,0.3c0.3,0.2,0.4,0.5,0.4,0.9V5.6z M109.8,5.3
			c0.4,0,0.8-0.1,1-0.4V4.2c-0.2-0.3-0.5-0.4-1-0.4c-0.3,0-0.5,0.1-0.6,0.2c-0.2,0.1-0.2,0.3-0.2,0.6c0,0.2,0.1,0.4,0.2,0.5
			C109.3,5.3,109.5,5.3,109.8,5.3z"/>
		<path class="st1" d="M113.7,5.7c-0.5,0-0.8-0.2-1.1-0.5c-0.3-0.3-0.4-0.8-0.4-1.3c0-0.6,0.1-1,0.4-1.3c0.3-0.3,0.7-0.5,1.1-0.5
			c0.2,0,0.5,0.1,0.7,0.2c0.2,0.1,0.4,0.3,0.5,0.4V2.1h0.5V7h-0.5V5.1C114.6,5.5,114.2,5.7,113.7,5.7z M113.8,5.2
			c0.2,0,0.4-0.1,0.6-0.2c0.2-0.1,0.3-0.2,0.4-0.4V3.1c-0.1-0.2-0.2-0.3-0.4-0.4c-0.2-0.1-0.4-0.2-0.6-0.2c-0.3,0-0.6,0.1-0.8,0.4
			c-0.2,0.3-0.3,0.6-0.3,1c0,0.4,0.1,0.7,0.3,1C113.2,5.1,113.5,5.2,113.8,5.2z"/>
	</g>
	<g>
		<path class="st1" d="M40.7,139.8c-0.8,0-1.4-0.3-1.9-0.8l0.4-0.5c0.4,0.5,0.9,0.7,1.5,0.7c0.4,0,0.7-0.1,0.9-0.3s0.3-0.4,0.3-0.6
			c0-0.2-0.1-0.3-0.2-0.4c-0.1-0.1-0.2-0.2-0.4-0.3s-0.4-0.1-0.6-0.2c-0.2-0.1-0.4-0.1-0.6-0.2c-0.2-0.1-0.4-0.1-0.6-0.2
			c-0.2-0.1-0.3-0.2-0.4-0.4c-0.1-0.2-0.2-0.4-0.2-0.6c0-0.4,0.2-0.7,0.5-1c0.3-0.2,0.7-0.4,1.2-0.4c0.7,0,1.3,0.2,1.7,0.7l-0.4,0.4
			c-0.4-0.4-0.8-0.6-1.4-0.6c-0.3,0-0.5,0.1-0.7,0.2c-0.2,0.1-0.3,0.3-0.3,0.6c0,0.2,0.1,0.3,0.2,0.4c0.1,0.1,0.3,0.2,0.5,0.2
			c0.2,0.1,0.4,0.1,0.7,0.2c0.3,0.1,0.5,0.2,0.7,0.3c0.2,0.1,0.4,0.2,0.5,0.4s0.2,0.4,0.2,0.7c0,0.4-0.1,0.7-0.4,1
			C41.7,139.7,41.3,139.8,40.7,139.8z"/>
		<path class="st1" d="M43.1,141.1l0.1-0.5c0.1,0,0.2,0.1,0.3,0.1c0.1,0,0.2,0,0.3-0.1c0.1-0.1,0.2-0.2,0.2-0.3l0.2-0.5l-1.5-3.5
			h0.6l1.2,2.9l1.2-2.9h0.6l-1.8,4.2c-0.2,0.5-0.5,0.7-1,0.7C43.4,141.2,43.2,141.1,43.1,141.1z"/>
		<path class="st1" d="M47.4,139.7h-0.5v-3.5h0.5v0.6c0.3-0.4,0.7-0.6,1.2-0.6v0.6c-0.1,0-0.1,0-0.2,0c-0.2,0-0.3,0.1-0.5,0.2
			c-0.2,0.1-0.3,0.2-0.4,0.4V139.7z"/>
		<path class="st1" d="M49.5,135.7c-0.1,0-0.2,0-0.3-0.1c-0.1-0.1-0.1-0.2-0.1-0.3s0-0.2,0.1-0.3c0.1-0.1,0.2-0.1,0.3-0.1
			c0.1,0,0.2,0,0.3,0.1c0.1,0.1,0.1,0.2,0.1,0.3s0,0.2-0.1,0.3C49.7,135.7,49.6,135.7,49.5,135.7z M49.8,139.7h-0.5v-3.5h0.5V139.7z
			"/>
		<path class="st1" d="M53.7,139.7h-0.5v-0.4c-0.3,0.3-0.7,0.5-1.2,0.5c-0.3,0-0.6-0.1-0.9-0.3c-0.2-0.2-0.4-0.5-0.4-0.9
			c0-0.4,0.1-0.7,0.4-0.9c0.2-0.2,0.5-0.3,0.9-0.3c0.5,0,0.9,0.2,1.2,0.5v-0.6c0-0.2-0.1-0.4-0.2-0.5c-0.2-0.1-0.4-0.2-0.6-0.2
			c-0.4,0-0.8,0.2-1.1,0.5l-0.3-0.4c0.4-0.4,0.8-0.6,1.4-0.6c0.4,0,0.7,0.1,1,0.3c0.3,0.2,0.4,0.5,0.4,0.9V139.7z M52.1,139.4
			c0.4,0,0.8-0.1,1-0.4v-0.7c-0.2-0.3-0.5-0.4-1-0.4c-0.3,0-0.5,0.1-0.6,0.2c-0.2,0.1-0.2,0.3-0.2,0.6c0,0.2,0.1,0.4,0.2,0.5
			C51.7,139.3,51.9,139.4,52.1,139.4z"/>
	</g>
	<g>
		<path class="st1" d="M21.1,56.9h-0.7L20,55.8h-2.4l-0.4,1.1h-0.7l1.9-4.8h0.7L21.1,56.9z M19.8,55.3l-1-2.6l-1,2.6H19.8z"/>
		<path class="st1" d="M22.4,56.9h-0.5v-3h-0.6v-0.5h0.6v-0.3c0-0.4,0.1-0.6,0.3-0.8s0.4-0.3,0.7-0.3c0.3,0,0.5,0.1,0.7,0.3
			l-0.2,0.4c-0.1-0.1-0.3-0.2-0.4-0.2c-0.2,0-0.3,0.1-0.4,0.2c-0.1,0.1-0.1,0.3-0.1,0.5v0.3h0.7v0.5h-0.7V56.9z"/>
		<path class="st1" d="M25.1,58.3c-0.3,0-0.6,0-0.8-0.1c-0.2-0.1-0.4-0.2-0.6-0.4l0.3-0.4c0.3,0.3,0.6,0.5,1.1,0.5
			c0.3,0,0.6-0.1,0.8-0.3c0.2-0.2,0.3-0.4,0.3-0.8v-0.5c-0.1,0.2-0.3,0.3-0.5,0.5c-0.2,0.1-0.4,0.2-0.7,0.2c-0.5,0-0.8-0.2-1.1-0.5
			c-0.3-0.3-0.4-0.8-0.4-1.3c0-0.6,0.1-1,0.4-1.3c0.3-0.3,0.7-0.5,1.1-0.5c0.5,0,0.9,0.2,1.2,0.6v-0.5h0.5v3.4
			c0,0.5-0.2,0.9-0.5,1.2S25.6,58.3,25.1,58.3z M25.2,56.5c0.2,0,0.4-0.1,0.6-0.2c0.2-0.1,0.3-0.2,0.4-0.4v-1.5
			c-0.1-0.2-0.2-0.3-0.4-0.4c-0.2-0.1-0.4-0.2-0.6-0.2c-0.3,0-0.6,0.1-0.8,0.4c-0.2,0.2-0.3,0.6-0.3,1c0,0.4,0.1,0.7,0.3,1
			C24.6,56.3,24.9,56.5,25.2,56.5z"/>
		<path class="st1" d="M30.8,56.9h-0.5v-2.3c0-0.3-0.1-0.5-0.2-0.6c-0.1-0.1-0.3-0.2-0.6-0.2c-0.2,0-0.4,0.1-0.6,0.2
			c-0.2,0.1-0.3,0.2-0.5,0.4v2.6h-0.5V52h0.5v1.8c0.1-0.2,0.3-0.3,0.5-0.4c0.2-0.1,0.5-0.2,0.7-0.2c0.7,0,1.1,0.4,1.1,1.1V56.9z"/>
		<path class="st1" d="M34.7,56.9h-0.5v-0.4c-0.3,0.3-0.7,0.5-1.2,0.5c-0.3,0-0.6-0.1-0.9-0.3s-0.4-0.5-0.4-0.9
			c0-0.4,0.1-0.7,0.4-0.9c0.2-0.2,0.5-0.3,0.9-0.3c0.5,0,0.9,0.2,1.2,0.5v-0.6c0-0.2-0.1-0.4-0.2-0.5c-0.2-0.1-0.4-0.2-0.6-0.2
			c-0.4,0-0.8,0.2-1.1,0.5l-0.3-0.4c0.4-0.4,0.8-0.6,1.4-0.6c0.4,0,0.7,0.1,1,0.3c0.3,0.2,0.4,0.5,0.4,0.9V56.9z M33.1,56.6
			c0.4,0,0.8-0.1,1-0.4v-0.7c-0.2-0.3-0.5-0.4-1-0.4c-0.3,0-0.5,0.1-0.6,0.2c-0.2,0.1-0.2,0.3-0.2,0.6c0,0.2,0.1,0.4,0.2,0.5
			C32.7,56.5,32.9,56.6,33.1,56.6z"/>
		<path class="st1" d="M38.7,56.9h-0.5v-2.3c0-0.3-0.1-0.5-0.2-0.6c-0.1-0.1-0.3-0.2-0.6-0.2c-0.2,0-0.4,0.1-0.6,0.2
			c-0.2,0.1-0.3,0.2-0.4,0.4v2.6h-0.5v-3.5h0.5v0.5c0.1-0.2,0.3-0.3,0.5-0.4c0.2-0.1,0.5-0.2,0.7-0.2c0.7,0,1.1,0.4,1.1,1.1V56.9z"
			/>
		<path class="st1" d="M40,52.9c-0.1,0-0.2,0-0.3-0.1c-0.1-0.1-0.1-0.2-0.1-0.3s0-0.2,0.1-0.3c0.1-0.1,0.2-0.1,0.3-0.1
			c0.1,0,0.2,0,0.3,0.1s0.1,0.2,0.1,0.3s0,0.2-0.1,0.3C40.2,52.8,40.1,52.9,40,52.9z M40.3,56.9h-0.5v-3.5h0.5V56.9z"/>
		<path class="st1" d="M42.5,57c-0.6,0-1.1-0.2-1.4-0.6l0.3-0.4c0.1,0.1,0.3,0.3,0.5,0.4c0.2,0.1,0.4,0.1,0.7,0.1
			c0.3,0,0.5-0.1,0.6-0.2c0.1-0.1,0.2-0.3,0.2-0.4c0-0.2-0.1-0.3-0.2-0.4c-0.2-0.1-0.3-0.2-0.5-0.2c-0.2,0-0.4-0.1-0.6-0.2
			c-0.2-0.1-0.4-0.2-0.5-0.3c-0.1-0.1-0.2-0.3-0.2-0.6c0-0.3,0.1-0.5,0.4-0.7c0.2-0.2,0.6-0.3,1-0.3c0.5,0,1,0.2,1.3,0.5l-0.3,0.4
			c-0.2-0.3-0.6-0.4-1-0.4c-0.2,0-0.4,0.1-0.6,0.2c-0.1,0.1-0.2,0.2-0.2,0.4c0,0.1,0.1,0.3,0.2,0.3c0.1,0.1,0.3,0.1,0.5,0.2
			c0.2,0,0.4,0.1,0.6,0.2c0.2,0.1,0.4,0.2,0.5,0.3c0.1,0.2,0.2,0.4,0.2,0.6c0,0.3-0.1,0.6-0.4,0.8C43.3,56.9,42.9,57,42.5,57z"/>
		<path class="st1" d="M45.7,57c-0.3,0-0.5-0.1-0.6-0.2c-0.1-0.1-0.2-0.3-0.2-0.6v-2.3h-0.6v-0.5h0.6v-1h0.5v1h0.7v0.5h-0.7V56
			c0,0.1,0,0.2,0.1,0.3c0.1,0.1,0.1,0.1,0.3,0.1c0.2,0,0.3,0,0.4-0.1l0.2,0.4C46.1,56.9,45.9,57,45.7,57z"/>
		<path class="st1" d="M49.6,56.9h-0.5v-0.4c-0.3,0.3-0.7,0.5-1.2,0.5c-0.3,0-0.6-0.1-0.9-0.3c-0.2-0.2-0.4-0.5-0.4-0.9
			c0-0.4,0.1-0.7,0.4-0.9c0.2-0.2,0.5-0.3,0.9-0.3c0.5,0,0.9,0.2,1.2,0.5v-0.6c0-0.2-0.1-0.4-0.2-0.5c-0.2-0.1-0.4-0.2-0.6-0.2
			c-0.4,0-0.8,0.2-1.1,0.5l-0.3-0.4c0.4-0.4,0.8-0.6,1.4-0.6c0.4,0,0.7,0.1,1,0.3c0.3,0.2,0.4,0.5,0.4,0.9V56.9z M48.1,56.6
			c0.4,0,0.8-0.1,1-0.4v-0.7c-0.2-0.3-0.5-0.4-1-0.4c-0.3,0-0.5,0.1-0.6,0.2c-0.2,0.1-0.2,0.3-0.2,0.6c0,0.2,0.1,0.4,0.2,0.5
			C47.7,56.5,47.9,56.6,48.1,56.6z"/>
		<path class="st1" d="M53.7,56.9h-0.5v-2.3c0-0.3-0.1-0.5-0.2-0.6c-0.1-0.1-0.3-0.2-0.6-0.2c-0.2,0-0.4,0.1-0.6,0.2
			c-0.2,0.1-0.3,0.2-0.4,0.4v2.6h-0.5v-3.5h0.5v0.5c0.1-0.2,0.3-0.3,0.5-0.4c0.2-0.1,0.5-0.2,0.7-0.2c0.7,0,1.1,0.4,1.1,1.1V56.9z"
			/>
	</g>
	<g>
		<path class="st1" d="M43.4,84.5h-0.6v-4.8h0.6V84.5z"/>
		<path class="st1" d="M45.1,84.5h-0.5V81h0.5v0.6c0.3-0.4,0.7-0.6,1.2-0.6v0.6c-0.1,0-0.1,0-0.2,0c-0.2,0-0.3,0.1-0.5,0.2
			c-0.2,0.1-0.3,0.2-0.4,0.4V84.5z"/>
		<path class="st1" d="M49.6,84.5h-0.5v-0.4c-0.3,0.3-0.7,0.5-1.2,0.5c-0.3,0-0.6-0.1-0.9-0.3c-0.2-0.2-0.4-0.5-0.4-0.9
			c0-0.4,0.1-0.7,0.4-0.9c0.2-0.2,0.5-0.3,0.9-0.3c0.5,0,0.9,0.2,1.2,0.5v-0.6c0-0.2-0.1-0.4-0.2-0.5c-0.2-0.1-0.4-0.2-0.6-0.2
			c-0.4,0-0.8,0.2-1.1,0.5l-0.3-0.4c0.4-0.4,0.8-0.6,1.4-0.6c0.4,0,0.7,0.1,1,0.3c0.3,0.2,0.4,0.5,0.4,0.9V84.5z M48.1,84.2
			c0.4,0,0.8-0.1,1-0.4v-0.7c-0.2-0.3-0.5-0.4-1-0.4c-0.3,0-0.5,0.1-0.6,0.2c-0.2,0.1-0.2,0.3-0.2,0.6c0,0.2,0.1,0.4,0.2,0.5
			C47.7,84.1,47.9,84.2,48.1,84.2z"/>
		<path class="st1" d="M53.7,84.5h-0.5v-2.3c0-0.3-0.1-0.5-0.2-0.6c-0.1-0.1-0.3-0.2-0.6-0.2c-0.2,0-0.4,0.1-0.6,0.2
			c-0.2,0.1-0.3,0.2-0.4,0.4v2.6h-0.5V81h0.5v0.5c0.1-0.2,0.3-0.3,0.5-0.4s0.5-0.2,0.7-0.2c0.7,0,1.1,0.4,1.1,1.1V84.5z"/>
	</g>
	<g>
		<path class="st1" d="M28.7,111.4h-0.6v-4.8H30c0.5,0,0.8,0.1,1.1,0.4c0.3,0.3,0.4,0.6,0.4,1c0,0.4-0.1,0.8-0.4,1
			c-0.3,0.3-0.6,0.4-1.1,0.4h-1.3V111.4z M30,109c0.3,0,0.5-0.1,0.7-0.3c0.2-0.2,0.3-0.4,0.3-0.7c0-0.3-0.1-0.5-0.3-0.7
			c-0.2-0.2-0.4-0.3-0.7-0.3h-1.3v1.8H30z"/>
		<path class="st1" d="M34.9,111.4h-0.5V111c-0.3,0.3-0.7,0.5-1.2,0.5c-0.3,0-0.6-0.1-0.9-0.3c-0.2-0.2-0.4-0.5-0.4-0.9
			c0-0.4,0.1-0.7,0.4-0.9c0.2-0.2,0.5-0.3,0.9-0.3c0.5,0,0.9,0.2,1.2,0.5V109c0-0.2-0.1-0.4-0.2-0.5c-0.2-0.1-0.4-0.2-0.6-0.2
			c-0.4,0-0.8,0.2-1.1,0.5l-0.3-0.4c0.4-0.4,0.8-0.6,1.4-0.6c0.4,0,0.7,0.1,1,0.3c0.3,0.2,0.4,0.5,0.4,0.9V111.4z M33.4,111.1
			c0.4,0,0.8-0.1,1-0.4V110c-0.2-0.3-0.5-0.4-1-0.4c-0.3,0-0.5,0.1-0.6,0.2c-0.2,0.1-0.2,0.3-0.2,0.6c0,0.2,0.1,0.4,0.2,0.5
			C33,111.1,33.2,111.1,33.4,111.1z"/>
		<path class="st1" d="M39.1,111.4h-0.7l-1.3-1.6l-0.6,0.6v1H36v-4.8h0.5v3.2l1.8-1.9h0.7l-1.6,1.6L39.1,111.4z"/>
		<path class="st1" d="M40,107.4c-0.1,0-0.2,0-0.3-0.1c-0.1-0.1-0.1-0.2-0.1-0.3s0-0.2,0.1-0.3c0.1-0.1,0.2-0.1,0.3-0.1
			c0.1,0,0.2,0,0.3,0.1c0.1,0.1,0.1,0.2,0.1,0.3s0,0.2-0.1,0.3C40.2,107.4,40.1,107.4,40,107.4z M40.3,111.4h-0.5v-3.5h0.5V111.4z"
			/>
		<path class="st1" d="M42.5,111.5c-0.6,0-1.1-0.2-1.4-0.6l0.3-0.4c0.1,0.1,0.3,0.3,0.5,0.4c0.2,0.1,0.4,0.1,0.7,0.1
			c0.3,0,0.5-0.1,0.6-0.2c0.1-0.1,0.2-0.3,0.2-0.4c0-0.2-0.1-0.3-0.2-0.4c-0.2-0.1-0.3-0.2-0.5-0.2c-0.2,0-0.4-0.1-0.6-0.2
			c-0.2-0.1-0.4-0.2-0.5-0.3c-0.1-0.1-0.2-0.3-0.2-0.6c0-0.3,0.1-0.5,0.4-0.7c0.2-0.2,0.6-0.3,1-0.3c0.5,0,1,0.2,1.3,0.5l-0.3,0.4
			c-0.2-0.3-0.6-0.4-1-0.4c-0.2,0-0.4,0.1-0.6,0.2c-0.1,0.1-0.2,0.2-0.2,0.4c0,0.1,0.1,0.3,0.2,0.3c0.1,0.1,0.3,0.1,0.5,0.2
			c0.2,0,0.4,0.1,0.6,0.2c0.2,0.1,0.4,0.2,0.5,0.3c0.1,0.2,0.2,0.4,0.2,0.6c0,0.3-0.1,0.6-0.4,0.8C43.3,111.4,42.9,111.5,42.5,111.5
			z"/>
		<path class="st1" d="M45.7,111.5c-0.3,0-0.5-0.1-0.6-0.2c-0.1-0.1-0.2-0.3-0.2-0.6v-2.3h-0.6v-0.5h0.6v-1h0.5v1h0.7v0.5h-0.7v2.2
			c0,0.1,0,0.2,0.1,0.3c0.1,0.1,0.1,0.1,0.3,0.1c0.2,0,0.3,0,0.4-0.1l0.2,0.4C46.1,111.4,45.9,111.5,45.7,111.5z"/>
		<path class="st1" d="M49.6,111.4h-0.5V111c-0.3,0.3-0.7,0.5-1.2,0.5c-0.3,0-0.6-0.1-0.9-0.3c-0.2-0.2-0.4-0.5-0.4-0.9
			c0-0.4,0.1-0.7,0.4-0.9c0.2-0.2,0.5-0.3,0.9-0.3c0.5,0,0.9,0.2,1.2,0.5V109c0-0.2-0.1-0.4-0.2-0.5c-0.2-0.1-0.4-0.2-0.6-0.2
			c-0.4,0-0.8,0.2-1.1,0.5l-0.3-0.4c0.4-0.4,0.8-0.6,1.4-0.6c0.4,0,0.7,0.1,1,0.3c0.3,0.2,0.4,0.5,0.4,0.9V111.4z M48.1,111.1
			c0.4,0,0.8-0.1,1-0.4V110c-0.2-0.3-0.5-0.4-1-0.4c-0.3,0-0.5,0.1-0.6,0.2c-0.2,0.1-0.2,0.3-0.2,0.6c0,0.2,0.1,0.4,0.2,0.5
			C47.7,111.1,47.9,111.1,48.1,111.1z"/>
		<path class="st1" d="M53.7,111.4h-0.5v-2.3c0-0.3-0.1-0.5-0.2-0.6c-0.1-0.1-0.3-0.2-0.6-0.2c-0.2,0-0.4,0.1-0.6,0.2
			c-0.2,0.1-0.3,0.2-0.4,0.4v2.6h-0.5v-3.5h0.5v0.5c0.1-0.2,0.3-0.3,0.5-0.4c0.2-0.1,0.5-0.2,0.7-0.2c0.7,0,1.1,0.4,1.1,1.1V111.4z"
			/>
	</g>
	<g>
		<path class="st0" d="M167.5,30.1c-1.1,0-1.9-0.3-2.5-1l0.7-0.8c0.5,0.5,1.1,0.8,1.8,0.8c0.4,0,0.8-0.1,1-0.3
			c0.3-0.2,0.4-0.5,0.4-0.8c0-0.4-0.1-0.7-0.4-0.9c-0.2-0.2-0.6-0.3-1-0.3c-0.6,0-1.1,0.2-1.5,0.6l-0.8-0.2v-3.8h4.4v1h-3.2v1.9
			c0.4-0.4,0.9-0.6,1.5-0.6c0.6,0,1.1,0.2,1.5,0.6c0.4,0.4,0.6,0.9,0.6,1.6c0,0.7-0.2,1.2-0.7,1.7C168.8,29.9,168.2,30.1,167.5,30.1
			z"/>
		<path class="st0" d="M173.6,30.1c-0.5,0-0.9-0.1-1.3-0.3c-0.4-0.2-0.7-0.4-0.9-0.8c-0.2-0.3-0.4-0.7-0.5-1.1
			c-0.1-0.4-0.2-0.9-0.2-1.3c0-1,0.3-1.9,0.8-2.5c0.5-0.7,1.2-1,2.2-1c0.8,0,1.4,0.2,1.9,0.7l-0.6,0.9c-0.4-0.4-0.8-0.6-1.4-0.6
			c-0.5,0-1,0.2-1.3,0.6c-0.3,0.4-0.5,1-0.5,1.6c0,0.1,0,0.2,0,0.2c0.2-0.2,0.4-0.5,0.7-0.7c0.3-0.2,0.7-0.3,1.1-0.3
			c0.6,0,1.2,0.2,1.6,0.6c0.4,0.4,0.6,0.9,0.6,1.6c0,0.6-0.2,1.2-0.7,1.6C175,29.9,174.4,30.1,173.6,30.1z M173.6,29
			c0.4,0,0.7-0.1,1-0.4c0.2-0.2,0.4-0.5,0.4-0.8c0-0.4-0.1-0.7-0.4-0.9c-0.3-0.2-0.6-0.3-1-0.3c-0.3,0-0.6,0.1-0.8,0.2
			c-0.3,0.1-0.5,0.3-0.7,0.6c0,0.4,0.2,0.8,0.4,1.1C172.7,28.9,173.1,29,173.6,29z"/>
		<path class="st0" d="M180.8,29.8c-0.4,0.2-0.8,0.3-1.2,0.3c-0.5,0-0.9-0.1-1.2-0.3c-0.4-0.2-0.6-0.5-0.8-0.8
			c-0.2-0.3-0.4-0.7-0.5-1.1c-0.1-0.4-0.2-0.8-0.2-1.3c0-0.4,0.1-0.9,0.2-1.3s0.3-0.8,0.5-1.1c0.2-0.3,0.5-0.6,0.8-0.8
			c0.4-0.2,0.8-0.3,1.2-0.3c0.5,0,0.9,0.1,1.2,0.3c0.4,0.2,0.6,0.5,0.8,0.8c0.2,0.3,0.4,0.7,0.5,1.1c0.1,0.4,0.2,0.8,0.2,1.3
			c0,0.4-0.1,0.9-0.2,1.3c-0.1,0.4-0.3,0.8-0.5,1.1C181.5,29.3,181.2,29.6,180.8,29.8z M178.5,28.4c0.2,0.5,0.6,0.7,1.1,0.7
			s0.9-0.2,1.1-0.7c0.2-0.5,0.4-1,0.4-1.7c0-0.5,0-0.9-0.1-1.2c-0.1-0.3-0.3-0.6-0.5-0.9c-0.2-0.2-0.5-0.3-0.9-0.3
			c-0.4,0-0.6,0.1-0.9,0.3c-0.2,0.2-0.4,0.5-0.5,0.9c-0.1,0.3-0.1,0.8-0.1,1.2C178.1,27.3,178.3,27.9,178.5,28.4z"/>
	</g>
	<g>
		<path class="st0" d="M167.5,67h-1.2v-5.2l-1.1,1.1l-0.7-0.7l1.9-2h1V67z"/>
		<path class="st0" d="M170.2,66.6c0,0.3-0.1,0.7-0.3,1c-0.2,0.3-0.4,0.6-0.7,0.8l-0.5-0.4c0.2-0.1,0.3-0.2,0.5-0.4
			c0.1-0.2,0.2-0.4,0.3-0.5c-0.1,0-0.1,0-0.2,0c-0.2,0-0.3-0.1-0.4-0.2c-0.1-0.1-0.2-0.3-0.2-0.5c0-0.2,0.1-0.4,0.2-0.5
			c0.1-0.1,0.3-0.2,0.5-0.2c0.2,0,0.4,0.1,0.6,0.2C170.1,66.1,170.2,66.3,170.2,66.6z"/>
		<path class="st0" d="M173.8,67.1c-1.1,0-1.9-0.3-2.5-1l0.7-0.8c0.5,0.5,1.1,0.8,1.8,0.8c0.4,0,0.8-0.1,1-0.3
			c0.3-0.2,0.4-0.5,0.4-0.8c0-0.4-0.1-0.7-0.4-0.9c-0.2-0.2-0.6-0.3-1-0.3c-0.6,0-1.1,0.2-1.5,0.6l-0.8-0.2v-3.8h4.4v1h-3.2v1.9
			c0.4-0.4,0.9-0.6,1.5-0.6c0.6,0,1.1,0.2,1.5,0.6c0.4,0.4,0.6,0.9,0.6,1.6c0,0.7-0.2,1.2-0.7,1.7C175.1,66.9,174.5,67.1,173.8,67.1
			z"/>
		<path class="st0" d="M179.4,67.1c-0.8,0-1.4-0.2-1.9-0.7l0.5-0.9c0.4,0.4,0.8,0.6,1.4,0.6c0.6,0,1-0.2,1.3-0.7
			c0.3-0.4,0.5-1,0.5-1.6v-0.2c-0.2,0.2-0.4,0.5-0.8,0.7c-0.3,0.2-0.7,0.3-1,0.3c-0.6,0-1.2-0.2-1.6-0.6c-0.4-0.4-0.7-0.9-0.7-1.6
			c0-0.6,0.2-1.2,0.7-1.6c0.5-0.4,1.1-0.7,1.8-0.7c0.6,0,1.2,0.2,1.6,0.5s0.7,0.7,0.9,1.3c0.2,0.5,0.3,1.1,0.3,1.7
			c0,1-0.3,1.8-0.8,2.5C181.1,66.8,180.4,67.1,179.4,67.1z M179.7,63.6c0.3,0,0.6-0.1,0.8-0.2c0.3-0.1,0.5-0.3,0.6-0.6
			c0-0.4-0.2-0.8-0.4-1.1c-0.2-0.3-0.6-0.5-1.1-0.5c-0.4,0-0.7,0.1-1,0.4c-0.2,0.2-0.4,0.5-0.4,0.8c0,0.4,0.1,0.7,0.4,0.9
			C179,63.5,179.3,63.6,179.7,63.6z"/>
		<path class="st0" d="M185.9,67.1c-1.1,0-1.9-0.3-2.5-1l0.7-0.8c0.5,0.5,1.1,0.8,1.8,0.8c0.4,0,0.8-0.1,1-0.3
			c0.3-0.2,0.4-0.5,0.4-0.8c0-0.4-0.1-0.7-0.4-0.9c-0.2-0.2-0.6-0.3-1-0.3c-0.6,0-1.1,0.2-1.5,0.6l-0.8-0.2v-3.8h4.4v1h-3.2v1.9
			c0.4-0.4,0.9-0.6,1.5-0.6c0.6,0,1.1,0.2,1.5,0.6c0.4,0.4,0.6,0.9,0.6,1.6c0,0.7-0.2,1.2-0.7,1.7C187.3,66.9,186.7,67.1,185.9,67.1
			z"/>
	</g>
	<g>
		<path class="st0" d="M169.8,95.6h-4.9v-0.9c1.4-1.1,2.4-1.9,2.9-2.4c0.5-0.5,0.8-1,0.8-1.5c0-0.3-0.1-0.6-0.4-0.8
			c-0.2-0.2-0.5-0.3-0.9-0.3c-0.7,0-1.3,0.3-1.8,0.8l-0.7-0.8c0.3-0.3,0.7-0.6,1.1-0.8c0.4-0.2,0.9-0.3,1.4-0.3
			c0.7,0,1.3,0.2,1.7,0.6c0.5,0.4,0.7,0.9,0.7,1.5c0,0.6-0.2,1.2-0.7,1.7c-0.5,0.6-1.2,1.2-2.2,2h3V95.6z"/>
		<path class="st0" d="M172.4,95.2c0,0.3-0.1,0.7-0.3,1c-0.2,0.3-0.4,0.6-0.7,0.8l-0.5-0.4c0.2-0.1,0.3-0.2,0.5-0.4
			c0.1-0.2,0.2-0.4,0.3-0.5c-0.1,0-0.1,0-0.2,0c-0.2,0-0.3-0.1-0.4-0.2c-0.1-0.1-0.2-0.3-0.2-0.5c0-0.2,0.1-0.4,0.2-0.5
			c0.1-0.1,0.3-0.2,0.5-0.2c0.2,0,0.4,0.1,0.6,0.2C172.3,94.7,172.4,94.9,172.4,95.2z"/>
		<path class="st0" d="M176.9,95.4c-0.4,0.2-0.8,0.3-1.2,0.3c-0.5,0-0.9-0.1-1.2-0.3c-0.4-0.2-0.6-0.5-0.8-0.8
			c-0.2-0.3-0.4-0.7-0.5-1.1c-0.1-0.4-0.2-0.8-0.2-1.3c0-0.4,0.1-0.9,0.2-1.3c0.1-0.4,0.3-0.8,0.5-1.1c0.2-0.3,0.5-0.6,0.8-0.8
			c0.4-0.2,0.8-0.3,1.2-0.3c0.5,0,0.9,0.1,1.2,0.3c0.4,0.2,0.6,0.5,0.8,0.8s0.4,0.7,0.5,1.1c0.1,0.4,0.2,0.8,0.2,1.3
			c0,0.4-0.1,0.9-0.2,1.3c-0.1,0.4-0.3,0.8-0.5,1.1C177.6,94.9,177.3,95.2,176.9,95.4z M174.6,94c0.2,0.5,0.6,0.7,1.1,0.7
			c0.5,0,0.9-0.2,1.1-0.7c0.2-0.5,0.4-1,0.4-1.7c0-0.5,0-0.9-0.1-1.2c-0.1-0.3-0.3-0.6-0.5-0.9c-0.2-0.2-0.5-0.3-0.9-0.3
			c-0.4,0-0.6,0.1-0.9,0.3c-0.2,0.2-0.4,0.5-0.5,0.9c-0.1,0.3-0.1,0.8-0.1,1.2C174.2,92.9,174.4,93.5,174.6,94z"/>
		<path class="st0" d="M181.5,95.7c-0.8,0-1.4-0.2-1.9-0.7l0.5-0.9c0.4,0.4,0.8,0.6,1.4,0.6c0.6,0,1-0.2,1.3-0.7
			c0.3-0.4,0.5-1,0.5-1.6v-0.2c-0.2,0.2-0.4,0.5-0.8,0.7c-0.3,0.2-0.7,0.3-1.1,0.3c-0.6,0-1.2-0.2-1.6-0.6c-0.4-0.4-0.7-0.9-0.7-1.6
			c0-0.6,0.2-1.2,0.7-1.6c0.5-0.4,1.1-0.7,1.8-0.7c0.6,0,1.2,0.2,1.6,0.5c0.4,0.3,0.7,0.7,0.9,1.3c0.2,0.5,0.3,1.1,0.3,1.7
			c0,1-0.3,1.8-0.8,2.5C183.2,95.4,182.5,95.7,181.5,95.7z M181.8,92.1c0.3,0,0.6-0.1,0.8-0.2c0.3-0.1,0.5-0.3,0.6-0.6
			c0-0.4-0.2-0.8-0.4-1.1c-0.2-0.3-0.6-0.5-1.1-0.5c-0.4,0-0.7,0.1-1,0.4c-0.2,0.2-0.4,0.5-0.4,0.8c0,0.4,0.1,0.7,0.4,0.9
			C181.1,92,181.4,92.1,181.8,92.1z"/>
		<path class="st0" d="M189.2,95.4c-0.4,0.2-0.8,0.3-1.2,0.3c-0.5,0-0.9-0.1-1.2-0.3c-0.4-0.2-0.6-0.5-0.8-0.8
			c-0.2-0.3-0.4-0.7-0.5-1.1c-0.1-0.4-0.2-0.8-0.2-1.3c0-0.4,0.1-0.9,0.2-1.3c0.1-0.4,0.3-0.8,0.5-1.1c0.2-0.3,0.5-0.6,0.8-0.8
			c0.4-0.2,0.8-0.3,1.2-0.3c0.5,0,0.9,0.1,1.2,0.3c0.4,0.2,0.6,0.5,0.8,0.8s0.4,0.7,0.5,1.1c0.1,0.4,0.2,0.8,0.2,1.3
			c0,0.4-0.1,0.9-0.2,1.3c-0.1,0.4-0.3,0.8-0.5,1.1C189.9,94.9,189.6,95.2,189.2,95.4z M186.9,94c0.2,0.5,0.6,0.7,1.1,0.7
			c0.5,0,0.9-0.2,1.1-0.7c0.2-0.5,0.4-1,0.4-1.7c0-0.5,0-0.9-0.1-1.2c-0.1-0.3-0.3-0.6-0.5-0.9c-0.2-0.2-0.5-0.3-0.9-0.3
			c-0.4,0-0.6,0.1-0.9,0.3c-0.2,0.2-0.4,0.5-0.5,0.9c-0.1,0.3-0.1,0.8-0.1,1.2C186.5,92.9,186.6,93.5,186.9,94z"/>
	</g>
	<g>
		<path class="st0" d="M31.4,150.7c-1.1,0-1.9-0.3-2.5-1l0.7-0.8c0.5,0.5,1.1,0.8,1.8,0.8c0.4,0,0.8-0.1,1-0.3
			c0.3-0.2,0.4-0.5,0.4-0.8c0-0.4-0.1-0.7-0.4-0.9c-0.2-0.2-0.6-0.3-1-0.3c-0.6,0-1.1,0.2-1.5,0.6l-0.8-0.2v-3.8h4.4v1h-3.2v1.9
			c0.4-0.4,0.9-0.6,1.5-0.6c0.6,0,1.1,0.2,1.5,0.6c0.4,0.4,0.6,0.9,0.6,1.6c0,0.7-0.2,1.2-0.7,1.7C32.8,150.5,32.2,150.7,31.4,150.7
			z"/>
		<path class="st0" d="M36.4,150.2c0,0.3-0.1,0.7-0.3,1c-0.2,0.3-0.4,0.6-0.7,0.8l-0.5-0.4c0.2-0.1,0.3-0.2,0.5-0.4
			c0.1-0.2,0.2-0.4,0.3-0.5c-0.1,0-0.1,0-0.2,0c-0.2,0-0.3-0.1-0.4-0.2c-0.1-0.1-0.2-0.3-0.2-0.5c0-0.2,0.1-0.4,0.2-0.5
			c0.1-0.1,0.3-0.2,0.5-0.2c0.2,0,0.4,0.1,0.6,0.2C36.3,149.7,36.4,149.9,36.4,150.2z"/>
		<path class="st0" d="M39.6,150.7c-0.8,0-1.4-0.2-1.9-0.7l0.5-0.9c0.4,0.4,0.8,0.6,1.4,0.6c0.6,0,1-0.2,1.3-0.7
			c0.3-0.4,0.5-1,0.5-1.6v-0.2c-0.2,0.2-0.4,0.5-0.8,0.7c-0.3,0.2-0.7,0.3-1.1,0.3c-0.6,0-1.2-0.2-1.6-0.6c-0.4-0.4-0.7-0.9-0.7-1.6
			c0-0.6,0.2-1.2,0.7-1.6c0.5-0.4,1.1-0.7,1.8-0.7c0.6,0,1.2,0.2,1.6,0.5c0.4,0.3,0.7,0.7,0.9,1.3c0.2,0.5,0.3,1.1,0.3,1.7
			c0,1-0.3,1.8-0.8,2.5C41.3,150.3,40.5,150.7,39.6,150.7z M39.9,147.1c0.3,0,0.6-0.1,0.8-0.2c0.3-0.1,0.5-0.3,0.6-0.6
			c0-0.4-0.2-0.8-0.4-1.1c-0.2-0.3-0.6-0.5-1.1-0.5c-0.4,0-0.7,0.1-1,0.4c-0.2,0.2-0.4,0.5-0.4,0.8c0,0.4,0.1,0.7,0.4,0.9
			C39.1,147,39.5,147.1,39.9,147.1z"/>
		<path class="st0" d="M45.5,150.6h-1.3l2.5-5.7h-3.5v-1h4.9v0.8L45.5,150.6z"/>
		<path class="st0" d="M51.4,150.7c-1.1,0-1.9-0.3-2.5-1l0.7-0.8c0.5,0.5,1.1,0.8,1.8,0.8c0.4,0,0.8-0.1,1-0.3
			c0.3-0.2,0.4-0.5,0.4-0.8c0-0.4-0.1-0.7-0.4-0.9c-0.2-0.2-0.6-0.3-1-0.3c-0.6,0-1.1,0.2-1.5,0.6l-0.8-0.2v-3.8h4.4v1h-3.2v1.9
			c0.4-0.4,0.9-0.6,1.5-0.6c0.6,0,1.1,0.2,1.5,0.6c0.4,0.4,0.6,0.9,0.6,1.6c0,0.7-0.2,1.2-0.7,1.7C52.8,150.5,52.2,150.7,51.4,150.7
			z"/>
	</g>
	<g>
		<path class="st0" d="M41.2,121.6H40v-1.5h-3.2v-0.9l2.8-4.3h1.6v4.2h0.9v1h-0.9V121.6z M40,119.1V116l-2,3.1H40z"/>
		<path class="st0" d="M47.7,121.6h-4.9v-0.9c1.4-1.1,2.4-1.9,2.9-2.4c0.5-0.5,0.8-1,0.8-1.5c0-0.3-0.1-0.6-0.4-0.8
			c-0.2-0.2-0.5-0.3-0.9-0.3c-0.7,0-1.3,0.3-1.8,0.8l-0.7-0.8c0.3-0.3,0.7-0.6,1.1-0.8c0.4-0.2,0.9-0.3,1.4-0.3
			c0.7,0,1.3,0.2,1.7,0.6c0.5,0.4,0.7,0.9,0.7,1.5c0,0.6-0.2,1.2-0.7,1.7c-0.5,0.6-1.2,1.2-2.2,2h3V121.6z"/>
		<path class="st0" d="M51.4,121.8c-1.1,0-1.9-0.3-2.5-1l0.7-0.8c0.5,0.5,1.1,0.8,1.8,0.8c0.4,0,0.8-0.1,1-0.3
			c0.3-0.2,0.4-0.5,0.4-0.8c0-0.4-0.1-0.7-0.4-0.9c-0.2-0.2-0.6-0.3-1-0.3c-0.6,0-1.1,0.2-1.5,0.6l-0.8-0.2v-3.8h4.4v1h-3.2v1.9
			c0.4-0.4,0.9-0.6,1.5-0.6c0.6,0,1.1,0.2,1.5,0.6c0.4,0.4,0.6,0.9,0.6,1.6c0,0.7-0.2,1.2-0.7,1.7C52.8,121.6,52.2,121.8,51.4,121.8
			z"/>
	</g>
	<g>
		<path class="st0" d="M41.5,94.1h-4.9v-0.9c1.4-1.1,2.4-1.9,2.9-2.4c0.5-0.5,0.8-1,0.8-1.5c0-0.3-0.1-0.6-0.4-0.8
			c-0.2-0.2-0.5-0.3-0.9-0.3c-0.7,0-1.3,0.3-1.8,0.8l-0.7-0.8c0.3-0.3,0.7-0.6,1.1-0.8c0.4-0.2,0.9-0.3,1.4-0.3
			c0.7,0,1.3,0.2,1.7,0.6c0.5,0.4,0.7,0.9,0.7,1.5c0,0.6-0.2,1.2-0.7,1.7c-0.5,0.6-1.2,1.2-2.2,2h3V94.1z"/>
		<path class="st0" d="M45.3,94.2c-0.5,0-0.9-0.1-1.3-0.3c-0.4-0.2-0.7-0.4-0.9-0.8c-0.2-0.3-0.4-0.7-0.5-1.1
			c-0.1-0.4-0.2-0.9-0.2-1.3c0-1,0.3-1.9,0.8-2.5c0.5-0.7,1.2-1,2.2-1c0.8,0,1.4,0.2,1.9,0.7l-0.6,0.9c-0.4-0.4-0.8-0.6-1.4-0.6
			c-0.5,0-1,0.2-1.3,0.6c-0.3,0.4-0.5,1-0.5,1.6c0,0.1,0,0.2,0,0.2c0.2-0.2,0.4-0.5,0.7-0.7s0.7-0.3,1.1-0.3c0.6,0,1.2,0.2,1.6,0.6
			c0.4,0.4,0.6,0.9,0.6,1.6c0,0.6-0.2,1.2-0.7,1.6C46.6,94,46,94.2,45.3,94.2z M45.2,93.1c0.4,0,0.7-0.1,1-0.4
			c0.2-0.2,0.4-0.5,0.4-0.8c0-0.4-0.1-0.7-0.4-0.9c-0.3-0.2-0.6-0.3-1-0.3c-0.3,0-0.6,0.1-0.8,0.2c-0.3,0.1-0.5,0.3-0.7,0.6
			c0,0.4,0.2,0.8,0.4,1.1C44.4,93,44.8,93.1,45.2,93.1z"/>
		<path class="st0" d="M52.5,93.9c-0.4,0.2-0.8,0.3-1.2,0.3s-0.9-0.1-1.2-0.3c-0.4-0.2-0.6-0.5-0.8-0.8c-0.2-0.3-0.4-0.7-0.5-1.1
			c-0.1-0.4-0.2-0.8-0.2-1.3c0-0.4,0.1-0.9,0.2-1.3c0.1-0.4,0.3-0.8,0.5-1.1c0.2-0.3,0.5-0.6,0.8-0.8c0.4-0.2,0.8-0.3,1.2-0.3
			s0.9,0.1,1.2,0.3c0.4,0.2,0.6,0.5,0.8,0.8c0.2,0.3,0.4,0.7,0.5,1.1c0.1,0.4,0.2,0.8,0.2,1.3c0,0.4-0.1,0.9-0.2,1.3
			c-0.1,0.4-0.3,0.8-0.5,1.1C53.1,93.4,52.9,93.7,52.5,93.9z M50.2,92.5c0.2,0.5,0.6,0.7,1.1,0.7c0.5,0,0.9-0.2,1.1-0.7
			c0.2-0.5,0.4-1,0.4-1.7c0-0.5,0-0.9-0.1-1.2s-0.3-0.6-0.5-0.9c-0.2-0.2-0.5-0.3-0.9-0.3s-0.6,0.1-0.9,0.3
			c-0.2,0.2-0.4,0.5-0.5,0.9s-0.1,0.8-0.1,1.2C49.8,91.4,49.9,92,50.2,92.5z"/>
	</g>
	<g>
		<path class="st0" d="M32.9,67h-1.2v-5.2l-1.1,1.1L30,62.2l1.9-2h1V67z"/>
		<path class="st0" d="M35.6,66.6c0,0.3-0.1,0.7-0.3,1c-0.2,0.3-0.4,0.6-0.7,0.8l-0.5-0.4c0.2-0.1,0.3-0.2,0.5-0.4
			c0.1-0.2,0.2-0.4,0.3-0.5c-0.1,0-0.1,0-0.2,0c-0.2,0-0.3-0.1-0.4-0.2c-0.1-0.1-0.2-0.3-0.2-0.5s0.1-0.4,0.2-0.5
			c0.1-0.1,0.3-0.2,0.5-0.2c0.2,0,0.4,0.1,0.6,0.2S35.6,66.3,35.6,66.6z"/>
		<path class="st0" d="M41.5,67h-4.9v-0.9c1.4-1.1,2.4-1.9,2.9-2.4c0.5-0.5,0.8-1,0.8-1.5c0-0.3-0.1-0.6-0.4-0.8s-0.5-0.3-0.9-0.3
			c-0.7,0-1.3,0.3-1.8,0.8l-0.7-0.8c0.3-0.3,0.7-0.6,1.1-0.8s0.9-0.3,1.4-0.3c0.7,0,1.3,0.2,1.7,0.6c0.5,0.4,0.7,0.9,0.7,1.5
			c0,0.6-0.2,1.2-0.7,1.7c-0.5,0.6-1.2,1.2-2.2,2h3V67z"/>
		<path class="st0" d="M45.2,67.1c-1.1,0-1.9-0.3-2.5-1l0.7-0.8c0.5,0.5,1.1,0.8,1.8,0.8c0.4,0,0.8-0.1,1-0.3
			c0.3-0.2,0.4-0.5,0.4-0.8c0-0.4-0.1-0.7-0.4-0.9c-0.2-0.2-0.6-0.3-1-0.3c-0.6,0-1.1,0.2-1.5,0.6L42.9,64v-3.8h4.4v1h-3.2v1.9
			c0.4-0.4,0.9-0.6,1.5-0.6c0.6,0,1.1,0.2,1.5,0.6c0.4,0.4,0.6,0.9,0.6,1.6c0,0.7-0.2,1.2-0.7,1.7C46.6,66.9,46,67.1,45.2,67.1z"/>
		<path class="st0" d="M52.5,66.8c-0.4,0.2-0.8,0.3-1.2,0.3c-0.5,0-0.9-0.1-1.2-0.3c-0.4-0.2-0.6-0.5-0.8-0.8
			c-0.2-0.3-0.4-0.7-0.5-1.1c-0.1-0.4-0.2-0.8-0.2-1.3c0-0.4,0.1-0.9,0.2-1.3c0.1-0.4,0.3-0.8,0.5-1.1c0.2-0.3,0.5-0.6,0.8-0.8
			c0.4-0.2,0.8-0.3,1.2-0.3c0.5,0,0.9,0.1,1.2,0.3c0.4,0.2,0.6,0.5,0.8,0.8c0.2,0.3,0.4,0.7,0.5,1.1c0.1,0.4,0.2,0.8,0.2,1.3
			c0,0.4-0.1,0.9-0.2,1.3c-0.1,0.4-0.3,0.8-0.5,1.1C53.1,66.3,52.9,66.6,52.5,66.8z M50.2,65.4c0.2,0.5,0.6,0.7,1.1,0.7
			s0.9-0.2,1.1-0.7c0.2-0.5,0.4-1,0.4-1.7c0-0.5,0-0.9-0.1-1.2c-0.1-0.3-0.3-0.6-0.5-0.9c-0.2-0.2-0.5-0.3-0.9-0.3
			c-0.4,0-0.6,0.1-0.9,0.3c-0.2,0.2-0.4,0.5-0.5,0.9c-0.1,0.3-0.1,0.8-0.1,1.2C49.8,64.3,49.9,64.9,50.2,65.4z"/>
	</g>
	<g>
		<path class="st0" d="M39.4,39.4c-0.5,0-0.9-0.1-1.3-0.3c-0.4-0.2-0.7-0.4-0.9-0.8c-0.2-0.3-0.4-0.7-0.5-1.1
			c-0.1-0.4-0.2-0.9-0.2-1.3c0-1,0.3-1.9,0.8-2.5c0.5-0.7,1.2-1,2.2-1c0.8,0,1.4,0.2,1.9,0.7L41,34.1c-0.4-0.4-0.8-0.6-1.4-0.6
			c-0.5,0-1,0.2-1.3,0.6c-0.3,0.4-0.5,1-0.5,1.6c0,0.1,0,0.2,0,0.2c0.2-0.2,0.4-0.5,0.7-0.7c0.3-0.2,0.7-0.3,1.1-0.3
			c0.6,0,1.2,0.2,1.6,0.6c0.4,0.4,0.6,0.9,0.6,1.6c0,0.6-0.2,1.2-0.7,1.6C40.7,39.2,40.1,39.4,39.4,39.4z M39.3,38.4
			c0.4,0,0.7-0.1,1-0.4c0.2-0.2,0.4-0.5,0.4-0.8c0-0.4-0.1-0.7-0.4-0.9c-0.3-0.2-0.6-0.3-1-0.3c-0.3,0-0.6,0.1-0.8,0.2
			c-0.3,0.1-0.5,0.3-0.7,0.6c0,0.4,0.2,0.8,0.4,1.1C38.5,38.2,38.9,38.4,39.3,38.4z"/>
		<path class="st0" d="M44.9,39.4c-0.8,0-1.4-0.2-1.9-0.7l0.5-0.9c0.4,0.4,0.8,0.6,1.4,0.6c0.6,0,1-0.2,1.3-0.7
			c0.3-0.4,0.5-1,0.5-1.6V36c-0.2,0.2-0.4,0.5-0.8,0.7c-0.3,0.2-0.7,0.3-1,0.3c-0.6,0-1.2-0.2-1.6-0.6c-0.4-0.4-0.7-0.9-0.7-1.6
			c0-0.6,0.2-1.2,0.7-1.6c0.5-0.4,1.1-0.7,1.8-0.7c0.6,0,1.2,0.2,1.6,0.5c0.4,0.3,0.7,0.7,0.9,1.3c0.2,0.5,0.3,1.1,0.3,1.7
			c0,1-0.3,1.8-0.8,2.5C46.6,39.1,45.9,39.4,44.9,39.4z M45.2,35.9c0.3,0,0.6-0.1,0.8-0.2s0.5-0.3,0.6-0.6c0-0.4-0.2-0.8-0.4-1.1
			s-0.6-0.5-1.1-0.5c-0.4,0-0.7,0.1-1,0.4c-0.2,0.2-0.4,0.5-0.4,0.8c0,0.4,0.1,0.7,0.4,0.9C44.5,35.8,44.8,35.9,45.2,35.9z"/>
		<path class="st0" d="M51.4,39.4c-1.1,0-1.9-0.3-2.5-1l0.7-0.8c0.5,0.5,1.1,0.8,1.8,0.8c0.4,0,0.8-0.1,1-0.3
			c0.3-0.2,0.4-0.5,0.4-0.8c0-0.4-0.1-0.7-0.4-0.9c-0.2-0.2-0.6-0.3-1-0.3c-0.6,0-1.1,0.2-1.5,0.6l-0.8-0.2v-3.8h4.4v1h-3.2v1.9
			c0.4-0.4,0.9-0.6,1.5-0.6c0.6,0,1.1,0.2,1.5,0.6c0.4,0.4,0.6,0.9,0.6,1.6c0,0.7-0.2,1.2-0.7,1.7C52.8,39.2,52.2,39.4,51.4,39.4z"
			/>
	</g>
	<g>
		<path class="st0" d="M100.8,15.7h-1.2v-5.2l-1.1,1.1l-0.7-0.7l1.9-2h1V15.7z"/>
		<path class="st0" d="M103.6,15.3c0,0.3-0.1,0.7-0.3,1c-0.2,0.3-0.4,0.6-0.7,0.8l-0.5-0.4c0.2-0.1,0.3-0.2,0.5-0.4
			c0.1-0.2,0.2-0.4,0.3-0.5c-0.1,0-0.1,0-0.2,0c-0.2,0-0.3-0.1-0.4-0.2c-0.1-0.1-0.2-0.3-0.2-0.5c0-0.2,0.1-0.4,0.2-0.5
			c0.1-0.1,0.3-0.2,0.5-0.2c0.2,0,0.4,0.1,0.6,0.2S103.6,15,103.6,15.3z"/>
		<path class="st0" d="M108.1,15.5c-0.4,0.2-0.8,0.3-1.2,0.3c-0.5,0-0.9-0.1-1.2-0.3c-0.4-0.2-0.6-0.5-0.8-0.8
			c-0.2-0.3-0.4-0.7-0.5-1.1c-0.1-0.4-0.2-0.8-0.2-1.3c0-0.4,0.1-0.9,0.2-1.3c0.1-0.4,0.3-0.8,0.5-1.1c0.2-0.3,0.5-0.6,0.8-0.8
			s0.8-0.3,1.2-0.3c0.5,0,0.9,0.1,1.2,0.3s0.6,0.5,0.8,0.8c0.2,0.3,0.4,0.7,0.5,1.1s0.2,0.8,0.2,1.3c0,0.4-0.1,0.9-0.2,1.3
			c-0.1,0.4-0.3,0.8-0.5,1.1C108.7,15,108.5,15.3,108.1,15.5z M105.8,14c0.2,0.5,0.6,0.7,1.1,0.7c0.5,0,0.9-0.2,1.1-0.7
			c0.2-0.5,0.4-1,0.4-1.7c0-0.5,0-0.9-0.1-1.2c-0.1-0.3-0.3-0.6-0.5-0.9c-0.2-0.2-0.5-0.3-0.9-0.3c-0.4,0-0.6,0.1-0.9,0.3
			c-0.2,0.2-0.4,0.5-0.5,0.9c-0.1,0.3-0.1,0.8-0.1,1.2C105.4,13,105.5,13.6,105.8,14z"/>
		<path class="st0" d="M114.7,15.7h-1.2v-1.5h-3.2v-0.9l2.8-4.3h1.6v4.2h0.9v1h-0.9V15.7z M113.5,13.1V10l-2,3.1H113.5z"/>
		<path class="st0" d="M120.2,15.5c-0.4,0.2-0.8,0.3-1.2,0.3c-0.5,0-0.9-0.1-1.2-0.3c-0.4-0.2-0.6-0.5-0.8-0.8
			c-0.2-0.3-0.4-0.7-0.5-1.1c-0.1-0.4-0.2-0.8-0.2-1.3c0-0.4,0.1-0.9,0.2-1.3c0.1-0.4,0.3-0.8,0.5-1.1c0.2-0.3,0.5-0.6,0.8-0.8
			c0.4-0.2,0.8-0.3,1.2-0.3c0.5,0,0.9,0.1,1.2,0.3c0.4,0.2,0.6,0.5,0.8,0.8c0.2,0.3,0.4,0.7,0.5,1.1c0.1,0.4,0.2,0.8,0.2,1.3
			c0,0.4-0.1,0.9-0.2,1.3c-0.1,0.4-0.3,0.8-0.5,1.1C120.8,15,120.5,15.3,120.2,15.5z M117.8,14c0.2,0.5,0.6,0.7,1.1,0.7
			c0.5,0,0.9-0.2,1.1-0.7c0.2-0.5,0.4-1,0.4-1.7c0-0.5,0-0.9-0.1-1.2c-0.1-0.3-0.3-0.6-0.5-0.9c-0.2-0.2-0.5-0.3-0.9-0.3
			c-0.4,0-0.6,0.1-0.9,0.3c-0.2,0.2-0.4,0.5-0.5,0.9c-0.1,0.3-0.1,0.8-0.1,1.2C117.5,13,117.6,13.6,117.8,14z"/>
	</g>
	<g>
		<g>
			<path class="st2" d="M159.1,26.1c-14.8,0-24.6,9-30.7,21.3"/>
			<g>
				<path class="st3" d="M128,44.8c0.1,0,0.2,0.1,0.2,0.1l0.3,2.4l2.1-1.3c0.1,0,0.2,0,0.2,0.1c0,0.1,0,0.2-0.1,0.2l-2.3,1.4
					c0,0-0.1,0-0.2,0s-0.1-0.1-0.1-0.1l-0.3-2.7c0,0,0-0.1,0-0.1C127.9,44.8,128,44.8,128,44.8z"/>
			</g>
		</g>
	</g>
	<g>
		<g>
			<path class="st4" d="M159.1,56.1c-14.8,0-24.6,9-30.7,21.3"/>
			<g>
				<path class="st3" d="M127.7,72.7c0.2,0,0.3,0.1,0.3,0.3l0.5,4.3l3.7-2.2c0.1-0.1,0.3,0,0.4,0.1c0.1,0.1,0,0.3-0.1,0.4l-4.1,2.5
					c-0.1,0.1-0.2,0.1-0.3,0s-0.1-0.1-0.2-0.2l-0.5-4.8c0-0.1,0-0.1,0-0.2C127.5,72.8,127.6,72.7,127.7,72.7z"/>
			</g>
		</g>
	</g>
	<g>
		<g>
			<path class="st5" d="M160,87.9c-11.9,8.8-33.2,9.7-43.6,3.2"/>
			<g>
				<path class="st3" d="M122.7,90.7c0,0.2-0.2,0.4-0.4,0.4l-5.8,0l2.5,5.2c0.1,0.2,0,0.4-0.2,0.5c-0.2,0.1-0.4,0-0.5-0.2l-2.8-5.8
					c-0.1-0.1,0-0.3,0-0.4s0.2-0.2,0.3-0.2l6.4,0c0.1,0,0.1,0,0.2,0.1C122.7,90.5,122.7,90.6,122.7,90.7z"/>
			</g>
		</g>
	</g>
	<g>
		<g>
			<path class="st6" d="M62.9,140.1c12.7-0.2,27.4-5.2,35.1-16.4"/>
			<g>
				<path class="st3" d="M97.5,124.3c-2.7,0.8-6.7-0.3-9.2-1.6c4.6-0.6,9.2-2.2,12.9-5.1c-0.6,4.6,0.8,9.3,2.5,13.6
					C101.2,129.5,98.4,127.2,97.5,124.3z"/>
			</g>
		</g>
	</g>
	<g>
		<g>
			<path class="st7" d="M159.2,123.9c-14.6,1.9-25.6-0.9-33.2-12.2"/>
			<g>
				<path class="st3" d="M133.6,114.5c-0.1,0.2-0.4,0.4-0.6,0.3l-6.8-3l0.2,7.5c0,0.3-0.2,0.5-0.5,0.5c-0.3,0-0.5-0.2-0.5-0.5
					l-0.2-8.2c0-0.2,0.1-0.3,0.2-0.4s0.3-0.1,0.5,0l7.5,3.3c0.1,0,0.2,0.1,0.2,0.2C133.6,114.2,133.7,114.4,133.6,114.5z"/>
			</g>
		</g>
	</g>
	<g>
		<g>
			<path class="st8" d="M60.2,29c14.8,0,28.4,8.2,35,27.1"/>
			<g>
				<path class="st3" d="M92.6,54.2c0.1-0.1,0.2-0.1,0.3,0l2.4,1.9l0.7-2.9c0-0.1,0.1-0.2,0.2-0.1s0.2,0.1,0.1,0.2l-0.8,3.2
					c0,0.1-0.1,0.1-0.1,0.1c-0.1,0-0.1,0-0.2,0l-2.6-2c0,0-0.1-0.1-0.1-0.1C92.5,54.4,92.5,54.3,92.6,54.2z"/>
			</g>
		</g>
	</g>
	<g>
		<g>
			<path class="st9" d="M60.2,112.9c8.4-6,21.7-7.6,33.4-3.2"/>
			<g>
				<path class="st3" d="M91.7,110.2c0-0.1,0-0.1,0.1-0.1l1.8-0.4l-1.1-1.5c0-0.1,0-0.1,0-0.2c0.1,0,0.1,0,0.2,0l1.2,1.6
					c0,0,0,0.1,0,0.1c0,0,0,0.1-0.1,0.1l-2,0.4C91.8,110.3,91.8,110.2,91.7,110.2C91.8,110.2,91.7,110.2,91.7,110.2z"/>
			</g>
		</g>
	</g>
	<g>
		<g>
			<path class="st10" d="M58.8,58.7c11.8-2.9,21.9,1,30,8.3"/>
			<g>
				<path class="st3" d="M85.1,66.6c0-0.1,0.1-0.2,0.3-0.2l3.4,0.6l-0.9-3.4c0-0.1,0-0.2,0.2-0.3c0.1,0,0.2,0,0.3,0.2l1,3.7
					c0,0.1,0,0.2-0.1,0.2c-0.1,0.1-0.1,0.1-0.2,0.1l-3.8-0.6c0,0-0.1,0-0.1-0.1C85.1,66.7,85.1,66.6,85.1,66.6z"/>
			</g>
		</g>
	</g>
	<g>
		<g>
			<path class="st11" d="M61,87.5c8.9-6.6,18.6-7.4,28-4.8"/>
			<g>
				<path class="st3" d="M87.4,83.2c0-0.1,0-0.1,0.1-0.1l1.5-0.5l-1.1-1.2c0,0,0-0.1,0-0.1c0,0,0.1,0,0.1,0l1.2,1.3c0,0,0,0.1,0,0.1
					c0,0,0,0.1-0.1,0.1l-1.7,0.5C87.5,83.3,87.5,83.3,87.4,83.2C87.4,83.3,87.4,83.3,87.4,83.2z"/>
			</g>
		</g>
	</g>
	<g>
		<g>
			<line class="st12" x1="109.9" y1="19.4" x2="109.9" y2="48.4"/>
			<g>
				<path class="st3" d="M108.1,45.9c0.1-0.1,0.2,0,0.3,0.1l1.6,2.4l1.6-2.4c0.1-0.1,0.2-0.1,0.3-0.1c0.1,0.1,0.1,0.2,0.1,0.3
					l-1.7,2.7c0,0.1-0.1,0.1-0.2,0.1c-0.1,0-0.1,0-0.2-0.1l-1.7-2.7c0,0,0-0.1,0-0.1C108,46,108,45.9,108.1,45.9z"/>
			</g>
		</g>
	</g>
	<g>
		<path class="st0" d="M167.2,131.1c-0.6,0-1.1-0.1-1.5-0.3c-0.4-0.2-0.8-0.5-1-0.8l0.6-0.8c0.2,0.2,0.5,0.4,0.8,0.6
			c0.3,0.1,0.7,0.2,1,0.2c0.4,0,0.8-0.1,1-0.3c0.2-0.2,0.4-0.4,0.4-0.8c0-0.6-0.5-0.9-1.5-0.9c-0.5,0-0.7,0-0.8,0V127
			c0.1,0,0.3,0,0.8,0c0.4,0,0.8-0.1,1-0.2c0.3-0.1,0.4-0.4,0.4-0.7c0-0.3-0.1-0.5-0.4-0.7c-0.3-0.2-0.6-0.2-1-0.2
			c-0.7,0-1.2,0.2-1.7,0.7l-0.6-0.7c0.6-0.7,1.4-1.1,2.5-1.1c0.7,0,1.3,0.2,1.8,0.5c0.4,0.3,0.7,0.8,0.7,1.3c0,0.4-0.1,0.8-0.4,1
			c-0.3,0.3-0.6,0.4-1,0.5c0.4,0,0.7,0.2,1.1,0.5c0.3,0.3,0.5,0.7,0.5,1.2c0,0.6-0.2,1-0.7,1.4C168.6,130.9,167.9,131.1,167.2,131.1
			z"/>
		<path class="st0" d="M172.2,130.6c0,0.3-0.1,0.7-0.3,1c-0.2,0.3-0.4,0.6-0.7,0.8l-0.5-0.4c0.2-0.1,0.3-0.2,0.5-0.4
			c0.1-0.2,0.2-0.4,0.3-0.5c-0.1,0-0.1,0-0.2,0c-0.2,0-0.3-0.1-0.4-0.2c-0.1-0.1-0.2-0.3-0.2-0.5s0.1-0.4,0.2-0.5
			c0.1-0.1,0.3-0.2,0.5-0.2c0.2,0,0.4,0.1,0.6,0.2C172.1,130.1,172.2,130.3,172.2,130.6z"/>
		<path class="st0" d="M176.7,130.8c-0.4,0.2-0.8,0.3-1.2,0.3c-0.5,0-0.9-0.1-1.2-0.3c-0.4-0.2-0.6-0.5-0.8-0.8
			c-0.2-0.3-0.4-0.7-0.5-1.1s-0.2-0.8-0.2-1.3c0-0.4,0.1-0.9,0.2-1.3c0.1-0.4,0.3-0.8,0.5-1.1c0.2-0.3,0.5-0.6,0.8-0.8
			c0.4-0.2,0.8-0.3,1.2-0.3c0.5,0,0.9,0.1,1.2,0.3c0.4,0.2,0.6,0.5,0.8,0.8c0.2,0.3,0.4,0.7,0.5,1.1c0.1,0.4,0.2,0.8,0.2,1.3
			c0,0.4-0.1,0.9-0.2,1.3c-0.1,0.4-0.3,0.8-0.5,1.1C177.4,130.3,177.1,130.6,176.7,130.8z M174.4,129.4c0.2,0.5,0.6,0.7,1.1,0.7
			s0.9-0.2,1.1-0.7c0.2-0.5,0.4-1,0.4-1.7c0-0.5,0-0.9-0.1-1.2c-0.1-0.3-0.3-0.6-0.5-0.9c-0.2-0.2-0.5-0.3-0.9-0.3
			c-0.4,0-0.6,0.1-0.9,0.3c-0.2,0.2-0.4,0.5-0.5,0.9c-0.1,0.3-0.1,0.8-0.1,1.2C174,128.3,174.1,128.9,174.4,129.4z"/>
		<path class="st0" d="M184,131h-4.9V130c1.4-1.1,2.4-1.9,2.9-2.4c0.5-0.5,0.8-1,0.8-1.5c0-0.3-0.1-0.6-0.4-0.8
			c-0.2-0.2-0.5-0.3-0.9-0.3c-0.7,0-1.3,0.3-1.8,0.8l-0.7-0.8c0.3-0.3,0.7-0.6,1.1-0.8c0.4-0.2,0.9-0.3,1.4-0.3
			c0.7,0,1.3,0.2,1.7,0.6c0.5,0.4,0.7,0.9,0.7,1.5c0,0.6-0.2,1.2-0.7,1.7c-0.5,0.6-1.2,1.2-2.2,2h3V131z"/>
		<path class="st0" d="M187.7,131.1c-1.1,0-1.9-0.3-2.5-1l0.7-0.8c0.5,0.5,1.1,0.8,1.8,0.8c0.4,0,0.8-0.1,1-0.3
			c0.3-0.2,0.4-0.5,0.4-0.8c0-0.4-0.1-0.7-0.4-0.9c-0.2-0.2-0.6-0.3-1-0.3c-0.6,0-1.1,0.2-1.5,0.6l-0.8-0.2v-3.8h4.4v1h-3.2v1.9
			c0.4-0.4,0.9-0.6,1.5-0.6c0.6,0,1.1,0.2,1.5,0.6c0.4,0.4,0.6,0.9,0.6,1.6c0,0.7-0.2,1.2-0.7,1.7
			C189.1,130.9,188.5,131.1,187.7,131.1z"/>
	</g>
</g>
</svg>
