<?xml version="1.0" encoding="utf-8"?>
<!-- Generator: Adobe Illustrator 19.2.0, SVG Export Plug-In . SVG Version: 6.00 Build 0)  -->
<svg version="1.1" id="Layer_1" xmlns="http://www.w3.org/2000/svg" xmlns:xlink="http://www.w3.org/1999/xlink" x="0px" y="0px"
	 viewBox="0 0 266.2 188.3" style="enable-background:new 0 0 266.2 188.3;" xml:space="preserve">
<style type="text/css">
	.st0{fill:#0D92FF;}
	.st1{fill:#787878;}
	.st2{fill:none;stroke:#00325C;stroke-width:0.755;stroke-miterlimit:10;}
	.st3{fill:#00325C;}
	.st4{fill:none;stroke:#00325C;stroke-width:4.66;stroke-miterlimit:10;}
	.st5{fill:none;stroke:#00325C;stroke-width:0.935;stroke-miterlimit:10;}
	.st6{fill:none;stroke:#00325C;stroke-width:30.215;stroke-miterlimit:3;}
	.st7{fill:none;stroke:#00325C;stroke-width:0.88;stroke-miterlimit:10;}
	.st8{fill:none;stroke:#00325C;stroke-width:1.405;stroke-miterlimit:10;}
	.st9{fill:none;stroke:#00325C;stroke-width:1.12;stroke-miterlimit:10;}
	.st10{fill:none;stroke:#00325C;stroke-width:5.045;stroke-miterlimit:10;}
	.st11{fill:none;stroke:#00325C;stroke-width:0.585;stroke-miterlimit:10;}
	.st12{fill:none;stroke:#00325C;stroke-width:4.54;stroke-miterlimit:10;}
</style>
<g>
	<g>
		<path class="st0" d="M33,185.2c-0.7,0-1.3-0.1-1.9-0.4s-1-0.6-1.3-1l0.8-1c0.3,0.3,0.6,0.6,1,0.7c0.4,0.2,0.8,0.3,1.3,0.3
			c0.5,0,1-0.1,1.3-0.3c0.3-0.2,0.5-0.5,0.5-0.9c0-0.8-0.6-1.2-1.9-1.2c-0.6,0-0.9,0-1,0v-1.3c0.1,0,0.4,0,1,0
			c0.5,0,0.9-0.1,1.2-0.3s0.5-0.5,0.5-0.8c0-0.4-0.2-0.7-0.5-0.9c-0.3-0.2-0.7-0.3-1.2-0.3c-0.8,0-1.5,0.3-2.1,0.9l-0.8-0.9
			c0.7-0.9,1.8-1.3,3-1.3c0.9,0,1.6,0.2,2.2,0.6c0.5,0.4,0.8,1,0.8,1.6c0,0.5-0.2,0.9-0.5,1.3c-0.4,0.3-0.8,0.5-1.3,0.6
			c0.5,0,0.9,0.2,1.3,0.6c0.4,0.4,0.6,0.8,0.6,1.4c0,0.7-0.3,1.3-0.9,1.8C34.7,185,33.9,185.2,33,185.2z"/>
		<path class="st0" d="M42.1,184.8c-0.4,0.2-0.9,0.4-1.5,0.4s-1.1-0.1-1.5-0.4s-0.8-0.6-1.1-1c-0.3-0.4-0.5-0.9-0.6-1.4
			s-0.2-1-0.2-1.6s0.1-1.1,0.2-1.6s0.3-1,0.6-1.4c0.3-0.4,0.6-0.7,1.1-1s0.9-0.4,1.5-0.4s1.1,0.1,1.5,0.4s0.8,0.6,1,1
			c0.3,0.4,0.5,0.9,0.6,1.4c0.1,0.5,0.2,1,0.2,1.6s-0.1,1.1-0.2,1.6c-0.1,0.5-0.3,1-0.6,1.4S42.5,184.6,42.1,184.8z M39.2,183
			c0.3,0.6,0.8,0.9,1.4,0.9s1.1-0.3,1.4-0.9c0.3-0.6,0.4-1.3,0.4-2.2c0-0.6-0.1-1.1-0.2-1.5c-0.1-0.4-0.3-0.8-0.6-1.1
			c-0.3-0.3-0.6-0.4-1.1-0.4s-0.8,0.1-1.1,0.4c-0.3,0.3-0.5,0.6-0.6,1.1c-0.1,0.4-0.2,0.9-0.2,1.5C38.7,181.8,38.9,182.5,39.2,183z"
			/>
		<path class="st0" d="M46.6,184.6c0,0.4-0.1,0.8-0.3,1.2c-0.2,0.4-0.5,0.7-0.9,0.9l-0.6-0.5c0.2-0.1,0.4-0.3,0.6-0.5
			c0.2-0.2,0.3-0.4,0.3-0.7c-0.1,0-0.1,0-0.2,0c-0.2,0-0.4-0.1-0.5-0.2c-0.1-0.1-0.2-0.3-0.2-0.6s0.1-0.4,0.2-0.6
			c0.2-0.2,0.4-0.3,0.6-0.3c0.3,0,0.5,0.1,0.7,0.3S46.6,184.2,46.6,184.6z"/>
		<path class="st0" d="M53.8,185h-6v-1.1c1.7-1.3,2.9-2.3,3.6-2.9s0.9-1.2,0.9-1.8c0-0.4-0.1-0.7-0.4-0.9s-0.7-0.3-1.1-0.3
			c-0.9,0-1.7,0.3-2.2,1l-0.8-1c0.4-0.4,0.8-0.8,1.4-1c0.5-0.2,1.1-0.3,1.7-0.3c0.8,0,1.6,0.2,2.2,0.7c0.6,0.5,0.9,1.1,0.9,1.9
			c0,0.7-0.3,1.4-0.9,2.1c-0.6,0.7-1.5,1.5-2.8,2.5h3.7V185z"/>
		<path class="st0" d="M58.5,185H57v-6.4l-1.4,1.4l-0.9-0.9l2.4-2.4h1.3V185z"/>
		<path class="st0" d="M63.1,185.2c-1.3,0-2.4-0.4-3.1-1.3l0.8-1c0.6,0.7,1.3,1,2.2,1c0.5,0,0.9-0.1,1.2-0.4s0.5-0.6,0.5-1
			c0-0.5-0.2-0.8-0.5-1.1c-0.3-0.3-0.7-0.4-1.2-0.4c-0.7,0-1.3,0.2-1.8,0.7l-1-0.3v-4.7h5.5v1.3h-4v2.4c0.5-0.5,1.1-0.7,1.9-0.7
			c0.7,0,1.4,0.2,1.9,0.7s0.8,1.1,0.8,2c0,0.9-0.3,1.5-0.9,2.1C64.9,184.9,64.1,185.2,63.1,185.2z"/>
	</g>
	<g>
		<path class="st0" d="M117.2,52.4L117.2,52.4l-0.2,0.1l0,0.1l0,0.1l0,0.1l0,0.1l0.1,0.2l0.1,0l0-0.1l0-0.1l0-0.1l0-0.1l-0.1,0
			l0-0.1l0-0.1L117.2,52.4L117.2,52.4z M99.1,60.1l0.2,0.1l0.3-0.3l0-0.1l-0.2-0.1l-0.2,0L99,59.7l0,0l0,0.1l0,0.2L99.1,60.1z
			 M144.6,54.3l0.2,0l0.1-0.1l0-0.2l0.1-0.1h0.1l0,0.2l-0.1,0.3l0,0.1l0.1,0l0.1-0.2l0.3-0.9l-0.3-0.1l-0.4,0.1l-0.4,0.3l-0.2,0.4
			l0.2,0.1L144.6,54.3z M145.9,52.8l0.1-0.3l0.5-0.4l0.2-0.2l-0.1,0.1l-0.7,0.3l-0.1,0.1l0,0L145.9,52.8L145.9,52.8z M116.6,44.5
			l-0.2,0.1l-0.1,0.3l0.1,0.2l0.1,0.1l0.2,0l0.3-0.2l0.2-0.4l0.1-0.4l0-0.2l-0.6,0.3L116.6,44.5L116.6,44.5z M103.3,58.7l0.5-0.2h0
			l0,0l0-0.1l-1.1,0l-0.5,0.1l-0.5,0.3l0.4,0.1L103.3,58.7z M111.7,58.6L111.7,58.6l0.1,0.1l0,0l0.2-0.2l0.1,0h0.1l-0.2-0.2l-0.2,0
			l-0.2,0.1l-0.1,0.2v0.1L111.7,58.6L111.7,58.6z M109.1,57.4l0.2,0l0.4,0.1l0.1,0l0.1,0l-0.3-0.2l-0.2,0l-0.2,0l-0.2,0l-0.2,0.1
			l0,0.1l0.2,0.1L109.1,57.4z M100.8,59l-1.4,0.2L99,59.3l2.1-0.2L100.8,59z M104.5,58.5L104.5,58.5l0.1-0.1l0-0.1l-0.1-0.1l-0.2,0
			l-0.2,0l-0.2,0.1l0.1,0L104.5,58.5z M105.1,58.4l0.3,0l0-0.3l0.3-0.1l0.7,0l0,0l0,0l0,0l0-0.1l-0.2-0.1l-0.9,0l-0.3,0l-0.1,0.1
			l-0.1,0.2L105.1,58.4L105.1,58.4z M107.1,57.9L107.1,57.9l0.2-0.2l0.2,0.2l0.3,0l0.3-0.1l0.2-0.1h0.1v-0.1l-0.9-0.1l-0.4,0.1
			l-0.3,0.3L107.1,57.9L107.1,57.9z M113.9,41.6L113.9,41.6L113.9,41.6L113.9,41.6l0.1-0.1l-0.2,0.1l-0.2,0.2l-0.3,0.6l0.2,0.3
			l0.2,0.3l0.2,0.2l0.3-0.1l0.1-0.1l-0.2-0.1l-0.5-0.9l0.1-0.1L113.9,41.6z M118.5,45.5l0.1,0.2l0.2,0.1l0.4,0l0.2-0.1l0.1-0.2
			l0.1-0.2L120,45l0-0.1l0-0.1l0-0.1l0,0l-0.4-0.1l-0.4,0l-0.4,0.2l-0.3,0.3l0.1,0.1l0,0.1l0,0.1L118.5,45.5z M162.2,43.7
			L162.2,43.7L162.2,43.7L162.2,43.7z M161.3,45.3l0-0.2l0-0.2l0.1-0.1l0.1-0.1l0.1-0.1l0.1-0.4l0-0.3l0.1-0.3l0.2-0.2v0.4h0.1v-0.2
			l0,0l0,0l0,0v-0.2l-0.1-0.1l-0.1,0l-0.1,0l-0.2,0l-0.1,0.1l-0.1,0.4l-0.3,1.1l0,0.4v0.2h0.1L161.3,45.3z M168.2,51.1l0.1,0.2
			l0.4,0.4l0.1,0.3l-0.1,0.4l-0.3,0.6l-0.1,0.3l0.2,0.1l0.1-0.1l0.1-0.2l0.3-0.1l0.1-0.1l0.1,0l0.1,0.2l0,0.1l-0.1,0.1l-0.1,0.1
			l0,0.2l0.3-0.1l0.1,0l0-0.1l0.1-0.1l0.1-0.1l0.1,0V53l-0.1-0.2l0.1-0.1l0.2,0l0.2,0l0.2,0.1l0.1,0.2l0.1,0.2l0.1,0.3l0.2-0.1
			l0.1,0.3l0,0.5l-0.1,0.4l0.1,0.2l-0.3-0.1l0-0.1l0-0.1l0,0l0.1,0l-0.4,0l-0.1,0.1l-0.2,0.3l0-0.3l0.1-0.3l0-0.1l0.1-0.1l-0.2-0.1
			l-0.5,0l0,0.4l0.4,0.7l-0.1,0.5l-0.1,0.1l-0.3,0.2l-0.3,0.1L169,56l-0.1,0l0.2,0.3l0.4,0.1l0.6,0l0.6-0.2l0.3-0.2l0.2-0.3l0.2,0.1
			l0.2,0l1.1-0.1l-0.1-0.3l-0.2-0.2l0.1,0l0.1-0.1l0.2-0.5l-0.2-0.1l-1.8-1.9l-0.3-0.2l-0.4-0.1l-0.7-0.4l-0.3-0.3l-0.1-0.2
			l-0.2-0.6l-0.1-0.2l-0.2-0.1l-0.2,0.1l-0.2,0.2L168.2,51.1z M97,61l0.2,0.1l0.1,0l0.1-0.1l0.1,0l0.1,0l0.1,0.2l0.1,0.1L97.8,61
			l-0.1-0.1l-0.1-0.1l-0.1,0v-0.1l0.2,0l0.3-0.2l0.2,0l-0.1-0.3l-0.4,0L97,60.5l-0.1,0.1l0,0.2L97,61z M115.2,41.9l0.3-0.1l0.1,0.1
			l0.2,0.1l0.2,0l0.1,0l0.1-0.1l0.1-0.3l0.1-0.1v-0.1l-0.2-0.3l-0.2-0.1l-0.6,0l-0.3,0l-0.3,0.1l-0.2,0.2l-0.2,0.4l0.6,0.4
			L115.2,41.9z M113.2,41L113.2,41l0.1-0.3l0-0.3l0-0.9l0-0.1l0-0.3l0-0.1l0.1-0.1l0.3-0.2l0.1,0l0.1,0l0.1,0l0.1,0.2l0.1,0h0.7
			l0.2,0l0.3-0.2l0.2-0.1l1.3,0.1l0.3-0.2l-2.2,0.1l-0.5-0.1l-0.3-0.3l0.1-0.6l-0.1-0.3l0.1-0.4l0.2-0.3l0.4-0.2l0.1-0.2l-0.1-0.2
			l-0.3,0l0.1-0.1l0.6,0l-0.5-0.3l-0.4,0.5l-0.8,2.1l-0.1,0.4l-0.1,1.9l0,0.5L113.2,41z M140.7,45.9L140.7,45.9L140.7,45.9l0.1,0.2
			h0.1L141,46l0.1,0l0.3,0l0.1,0.1l0,0.1l0,0.4l0.1,0.1l0.3,0l0.4,0l0,0l0-0.1l0.2-0.1l1.3,0.2l-0.6-1.1l-0.2-0.3l-0.1-0.1l-0.3-0.2
			l-0.9-0.4l-0.5,0.1l-0.4,0.4l-0.3,0.7l0,0.2L140.7,45.9z M163.6,44.8l0-0.1l-0.1-0.2l-0.1-0.1l-0.1,0l-0.1-0.1l-0.2,0l-0.8,0.1
			l-0.2,0.1h0.1l0.1,0l0,0.1l0,0.2l0,0.1l0,0l0,0l0,0.1l0.1,0.1l0.2,0l0.3-0.1l0,0.1l0,0.1l0,0l0,0l0.1,0.2l0.1,0.1l0.3,0.1
			l-0.1,0.1l-0.1,0l0,0v0.1l-0.2,0l-0.3,0.2l-0.3,0.1l-0.1,0.1l-0.2,0.4l0.4-0.1l0.1,0l0.1,0.1l0.1,0.1l0.1,0v0.1l0,0.2L163,47
			l0.1,0.1l0.2,0l-0.3,0.2l-0.1,0l-0.1-0.1l-0.1,0.1l-0.3-0.2l-0.3,0.1l-0.2,0.3l-0.1,0.4l0.6,0.5v0.1l-0.2-0.1l-0.1,0.1l-0.1,0.1
			l0.1,0.1l0.1,0l0.3-0.2l0.1,0l-0.1,0.2l0.1,0.1l0.2,0.1l0.1,0l0.1,0.1l0.1,0.1l0.1,0.1l0.1,0l0.1-0.1l0.1,0l0.2,0l0-0.1l0,0
			l0.1-0.1l0.1-0.1l0.1-0.1l-0.1,0.3l-0.1,0.2l-0.1,0.1l0.4,0.2l0.3,0.1l0.3,0l0.2-0.1l0-0.2l-0.1-0.4l-0.1,0l-0.5,0.1l0,0h0l0,0
			l0,0.1l-0.1,0.1l0-0.5l0.2-0.1l0.2-0.1l0.1-0.3l0.1-0.2l0.5-0.5l0.2-0.1l1-0.1l0.1,0.1l0.1,0.1l0.1,0l0.1-0.2l0.1-0.1l0.1,0l0.3,0
			v0.1l-0.2,0.1l-0.6,0.4l0.2-0.1l0.2-0.1l0.5,0l-0.1,0.2l-0.2,0.1l-0.4,0.2v0.1l0.1,0.1h0.2l0.2-0.1l0.1-0.1h0.1l0,0.2l0,0.1
			l-0.1,0.1h-0.1l0.2,0.1l0.1,0l0-0.1v-0.3l0-0.3l0.1-0.2l0.1-0.2l0.1-0.1l-0.2-0.1l-0.2-0.2l-0.3-0.5l-0.2-0.1l-0.5-0.1l-0.2-0.1
			l-0.1-0.2l-0.1-0.3l-0.1-0.3l0-0.3l0.1-0.3l0.2-0.2l0.4-0.3l0.3-0.4l-0.1-0.4l-0.3-0.3l-0.5-0.1l-1.3,0.3l-0.4-0.1l-0.2-0.1
			l-0.1-0.2l-0.1-0.2l0-0.3l0.1-0.2l0.2-0.2l0.2-0.1l0.2-0.1v-0.1l-0.3-0.1l-0.3,0l-1.4,0.4l-0.1,0.1l-0.1,0.1l-0.1,0.1l0,0.2l0.1,0
			l0.1-0.1l0.4-0.1l0,0.1l0,0.2l0,0.2l0,0.1l-0.1,0.1l-0.1,0.3l-0.1,0.3l0,0.2l0.2,0.1l0.2-0.1l0.2-0.2l0.2-0.1l0.2-0.2l0.1-0.1
			l0.1-0.1l0,0.1l0.1,0.2l0.1,0.1l0,0.1l0.1,0.1l0.2,0l0.1,0.1L165,44l0.1,0.1l0.1,0.1l0.3,0l0.1,0l0.1-0.1l0.1-0.1l0.1-0.1l0.1,0
			v0.1l-0.1,0l0,0l0,0l-0.1,0v0.1l0.1,0.1l0.1,0.1l0.1,0.2v0.1l-0.1,0.1l0,0.1l-0.1,0.2l0.1,0.1l-0.5,0l-0.2-0.1l-0.2-0.3l0.1-0.3
			l-0.1-0.2l-0.2-0.2l-0.1-0.2l-0.1,0.1v0.1l0.1,0l0.1,0.1l0.1,0l-0.1,0.2l-0.1,0.1l-0.1,0l-0.1,0l0.1-0.3l0.1-0.1l0-0.1l0,0l-0.1,0
			h-0.1l0.1-0.1l0.1-0.2l0.1-0.4l-0.2,0.1l-0.2,0.1l-0.2,0.2l-0.1,0.2l0.1,0.3L163.6,44.8L163.6,44.8z M180.9,99.4L180.9,99.4l0-0.5
			l-0.1-0.3l-0.2-0.3l-0.2-0.3l0-0.1l0-0.3v0l-0.1-1.1l0.1-0.2l-0.1-0.2l-0.2-0.2l-0.2-0.1l-0.2-0.1l-0.5-0.1l-0.2-0.1v0l-0.2-0.2
			l-0.7-0.2l-0.2-0.2l-0.1-0.3l0.1-0.3l0.2-0.3l0.1-0.3l0-0.4l-0.1-0.4l-0.1-0.3l-0.5-0.4l-0.2-0.3l-0.1-0.4l0-0.4l-0.1-0.2
			l-0.2-0.1l-0.2-0.3l0-0.3l0.1-0.3l0.6-0.6l0.2-0.2l0.2-0.3l0.1-0.3l0-1l0.1-0.2l0.2-0.4l0-0.2l0-0.1l0-0.1l0.1-0.1l0.2-0.2
			l-0.7-0.5l-0.1-0.2l0.1-0.4l0.1-0.3l0-0.2l-0.1-0.2v-0.1l0.2-0.3l0-0.3l-0.2-0.3l-0.3-0.1l-0.3-0.1l-0.3-0.2l-0.2-0.3l0.1-0.3
			l-0.2-0.5l-0.2-0.7l-0.1-0.7l0.5-0.5l0.2-0.4L177,79l0-0.2l-0.2-0.2l0.1-0.4l0.3-0.6l-0.3-0.3l-0.6-0.7l-0.6-0.2l-0.3-0.4
			l-0.2-0.1l-0.1-0.1l-0.3-0.7l-0.2-0.2l-1.1-0.8l-0.3-0.1l-0.3-0.4l-0.2-0.1l-0.2,0l-0.2-0.1l-0.2-0.1l-0.1-0.2l0.3-0.2l0.1-0.2
			l0-0.3l0-0.2l-0.1-0.6l-0.1-0.2v-0.1l0.5-0.4l0.6-0.3l0.6-0.5l0.3-0.3l0.1-0.3l0-0.1l0.3-0.9l0-0.2l-0.1-0.2l0-0.3l0-0.2l0.1-0.2
			l0.1-0.1l0.1-0.1l0.1-0.1l0.3-0.5l-0.1-0.1l0-0.1l-0.2-0.1l-0.1-0.1l0-0.2l0-0.3l0-0.1l-0.3-1.3l-0.1-0.9l-0.2-0.4l-0.1-0.4
			l-0.2-0.4l-0.1-0.3l0-0.4l0-0.6l0-0.2l-0.2-0.7l-0.2-0.3l0-0.3l0-0.5l-0.1,0l-0.2,0l-0.1-0.1l-0.1-0.1l0.5-0.3l0,0l0.1-0.1l0-0.3
			l0,0l-0.1-0.1l-0.2,0l-0.1,0.1l-0.1,0.2l-0.3,0.1l-0.8-0.1l-0.1,0l-0.2-0.2l-0.1,0l-0.2,0l0,0l-0.2-0.2l-0.3-0.1l-0.7-0.6l-0.1,0
			l-0.2-0.1l-0.1-0.2l-0.1-0.2l-0.1-0.1l-0.2,0l-0.2-0.1l-0.1-0.2l0.1-0.2l0.7-0.6l0.1-0.2l0.1-0.2l0-0.2l-0.1-0.1l-0.1,0l-0.1,0
			l-0.1,0l-0.1,0l0,0l-0.1,0l0,0l0-0.1l0-0.1l0-0.1l0-0.1l0-0.1l0-0.1l-0.1,0l-0.3-0.1l-0.1,0l-0.1-0.2l-0.3-0.4l-0.1-0.1l0.3-0.2
			l0.1-0.3l0.1-0.3l0.1-0.3V52l-0.8-0.7l-0.3-0.2V51l0.1,0l0.1-0.1l0-0.1l0-0.1l-0.3,0.1l-0.5,0.3l-0.3,0.1l-1.2,0.2v0.1l0.1,0.1
			l0.1,0.2l0.1,0.1v0.1l-0.2,0l-0.2-0.1l-0.1-0.2l-0.1-0.3l-0.1-0.4l-0.1-0.1l-0.1,0l-0.1,0.1l-0.1,0l-0.1-0.1l0.1-0.1l0-0.1
			l0.1-0.2l-0.2-0.1l-0.4,0.2l-0.3,0l0.1-0.1l0.2-0.1l-0.3-0.2l-0.3-0.7l-0.3-0.1l-0.3-0.1l-0.5-0.3l-0.3,0l0.1-0.1l0.1,0l0.1,0V49
			h-0.4l-0.1-0.1l0-0.1v-0.2l0-0.2l-0.3-0.5l0-0.3l0.2-0.3l-0.1-0.1L161,47l-0.1-0.2l-0.1-0.2l0-0.2l0.1-0.1l-0.3-0.1l-0.4,0.1
			l-0.4,0.3l-0.3,0.3l-0.1,0.2l-0.1,0.3l-0.1,0.1l-0.1,0.1l-0.1,0l-0.2,0l-0.1,0l0,0l0,0l-0.2-0.2l-0.1-0.1l0-0.1l0-0.1l-0.1,0.1
			l-0.1,0.1l-0.1,0l-0.1-0.1l-0.1,0.1l-0.1-0.1l-0.1-0.2l-0.1-0.2l0,0.1l0,0.1l-0.1,0.2l0-0.2l0.1-0.2l0.1-0.1l0.1,0v-0.1l-0.1,0
			l-0.1,0l-0.1,0l-0.1,0.1l0,0.1l0,0.1l0,0.1l-0.5,0.3l-0.3,0.1l-0.2-0.2v0.1l-0.1-0.1l-0.1,0l-0.2,0.1v0.1l0.1,0l0.1,0.1l-0.7,0.3
			l-0.2,0.1l0,0.1l0,0.2l0,0.1l0,0l-0.1,0l-0.1,0l-0.3,0.2l-0.1,0.1l-0.1,0.2l0.2,0.2l0.1,0.1l0.2,0l-0.2,0.1l-0.2-0.1l-0.4-0.3
			l0.1-0.1l0-0.2l-0.1-0.2l-0.1-0.2l0.2,0l0.1-0.2l0-0.2l-0.1-0.2l0.1-0.1l0.1,0.1l0.1,0l0.1,0l-0.1-0.3l0.1-0.3l0.1-0.2l0.2-0.1
			l0.4,0l0.2,0.1l0.2,0.2l0.1-0.2l0.2-0.1l0.2,0l0.2,0.1l0-0.1l0,0h0l0,0l-0.1,0l-0.1,0l0-0.1l0-0.1l0.1,0l0.1-0.1l0.1,0l0.1,0.1
			l0.1-0.2l0.1-0.1l0.3,0.1h0.2l0.1,0l0.1-0.2l0.1,0l0.3,0l0.4,0.2l1.1,0.1l0.3-0.1l0.2-0.2l-0.1-0.2l-0.3-0.1l-0.2,0.1l-0.4-0.2
			h-2.3l-0.4-0.2l-0.2-0.3h0.1v-0.1l-0.2,0.1l-0.1,0.2l-0.2,0.5l-0.4,0.7L155,47l-0.6,0.9l-0.4,0.7l-0.1,0.2l-0.4,0.3l-0.8,0.4
			l-0.1,0l-0.1,0.1l-0.2,0.4l-0.2,0.2l-0.3,0.4l-0.1,0.2l0.1-0.1l0.1,0l0.1,0l0.1,0l-0.1,0.2l-0.3,0.2l-0.1,0.2l0.1,0.2l0,0.4
			l0.1,0.2l-0.2-0.3l0-0.4l0-0.5l-0.1-0.5l-0.4,0.2l-2.4,0.5l-0.8-0.1l-0.4,0.1l-0.3,0.2l-0.2,0.4l0,0l0,0.1l0,0.1v0.1l0.1,0.1
			l0,0.1l0,0.1l-0.1,0.1l-0.1,0.1l-0.1,0l-0.1,0.1l-0.2,0.5l-0.2,0.2l-0.1,0l-0.3-0.1v0.1h0.1v0.1l-0.3,0.3l0,0.1l0,0.2l0,0.1
			l-0.1,0l-0.1,0.1l-0.1,0.1l0,0.3l-0.1,0.3l-0.1,0.3l0,0.2H145l-0.1-0.1l-0.4-0.5l0-0.1h-0.4l-0.1-0.1l-0.1-0.2l-0.1-0.1l-0.4,0.3
			l-0.1,0l-0.3,0l-0.1-0.1l0-0.2l0-0.4l-0.1-0.1l-0.4-0.1l-0.1-0.1l-0.1-0.2l-0.1-0.1l-0.1,0l-1.2,0.2l-0.5,0.3l-0.2,0l-0.2,0.1
			l-0.3,0.3l-0.1,0.1l-0.1,0l-0.2,0l-0.2,0l0-0.2l0-0.2l-0.1-0.2l-0.1,0l-0.4,0l-0.3-0.1l-0.2-0.2l-0.1-0.2L138,53v-0.1l0.1-0.1
			l0.4-0.6l0,0l0.1-0.1l0.1,0l0.1,0.1l0.1,0l0.1-0.1l0.1,0l0.4-0.1l0.2-0.1l0.4-0.5l1.2-0.8l0-0.2l0.1-0.1l0.1-0.2l0-0.3l-0.1-0.5
			l0-0.3l0.1-0.2l-0.1-0.3l-0.1-0.7l-0.1-0.3l0.2,0.1l0.1,0l0.1-0.2l0.4-0.4l-0.3-0.1l-0.7,0.4l-0.2-0.2l-0.2,0.1l-0.2-0.1l0.3,0
			l0.2,0v-0.1l-0.8,0.1l-0.3,0.1l-0.3,0.2l-0.6,0.5l-0.3,0.2l-0.5,0.1l-0.4-0.1l-0.9-0.8l-1.6-0.7l-0.6-0.5l-0.2-0.1l-0.4,0l-0.1,0
			l-0.1,0.1l-0.1,0.1l-0.1,0.1l-0.1,0.1l-0.4,0l-0.1,0.1l-0.1,0.1l-0.1,0.6l-0.2,0.5l-0.2,0.2l-0.2,0.1L132,48l0-0.2l0-0.1l-0.1-0.1
			l0.1-0.1l0-0.1l0,0l0,0l0.2-0.1l0.2-0.2l0.1-0.2l0.1-0.2l-0.1-0.3l-0.1-0.2l0-0.2l0.2-0.2l-0.6-0.5l-0.2-0.1l-2.4,0.6l-0.4-0.2
			v-0.1l0.4,0l0.4-0.1l0.4-0.2l0.3-0.3l0.1-0.2l0.1-0.2l0.1-0.2l0-0.3l0.1-0.7l0-0.3l-0.1-0.2l0.1-0.2l-0.1-0.1l-0.1,0l-0.1,0.1
			l-0.2-0.2l-0.3,0l-0.3,0.1l-0.1,0l0-0.2l0,0l0,0l0.1,0l0,0l0.2-0.2l0,0l0.1,0l0.1,0.1l0.1,0l0.1-0.1l-0.2-0.2l-0.1-0.1l-0.1-0.1
			l-0.1-0.6l-0.2-0.3l-0.3-0.2l-0.2,0l0,0.4l-0.5,0.2l-0.3,0l-0.1-0.2l-0.1-0.3l-0.2-0.2L128,40l-0.2-0.1l-0.4-0.2l-0.6,0l-0.5-0.2
			l0-0.6l-0.1,0.1l-0.1,0.2l-0.2,0.1l-0.2,0.2l-0.6,0.3l-0.2,0l-0.1,0.1l-0.2,0l-0.2-0.2l-0.2,0l-0.1,0.1l-0.1,0l-0.1,0.1l-0.2,0
			l-0.7,0l-0.2-0.1l-0.1-0.2l0-0.2l0-0.2l-0.2-0.1l-2.1-0.5l-0.8-0.3l-0.8-0.1l-0.2,0l-0.7,0.3l-0.4,0l-0.3-0.1l-0.1,0.5l0,0.4
			l0.1,0.5L117,40l0.2,0.3l0.1,0.4l-0.1,0.3v0.1l0.3,0.2l0.5,0.5l0.3,0.2l0.1,0.2l0.3,0.9l-0.3,0.2l0.1,0.1l0.1-0.1l0.2-0.1l0.2,0
			l0.1,0.1l0,0.2l0.1,0.2l0.8,0.9l0.3,0.4v0.4l-0.1,0.3l-0.2,0.1l-0.4,0.2l-0.4,0.4l-0.2,0.1l-0.3,0.1h-1.1l-0.8,0.2l-0.2-0.1
			l-0.1,0.1l-0.1,0.2l0,0.2l0.1,0.2l0.2-0.2l0.1,0l0.1,0.1l0.2,0v0.1l-0.2,0l-0.3,0.1l-0.3,0.1l-0.1,0.2l0,0.4l0.2,0.4l0.3,0.3
			l0.3,0.1l0.1,0l0.3-0.3l0.2-0.1l0.4,0.1l0.3,0l0.5-0.2l0.3,0l0,0.1l0,0.1l0,0.1l0.2-0.1l0.4-0.3l0.2,0l-0.1,0.3l-0.2,0.3l-0.2,0.2
			l-0.1,0.1l-0.2,0l-0.4,0.1l-0.1,0.1v0.1l0.1,0.3l-0.1,0.3l-0.2,0.3l-0.1,0.3l0,0.1l0.2,0.4l0.3,0.5h0.1l0.2-0.2l0.3-0.2l0.4-0.1
			l0.2,0.1v0.1l0,0.2l0.1,0.2l0.2,0.2l0.1,0.2v0.3l-0.1,0.4l-0.1,0.3l-0.1,0.2l-0.2,0.1l-0.2-0.1l-0.4-0.3l-0.2-0.1l-0.2,0l-0.4,0.2
			l0.8,1.7l0.3,0.4l0.4,0.3l0.2,0.1l0.1-0.2l0.1-0.1l0.3,0.1l0.4,0.2l1.3,0l0.4,0.1l0.4,0.2l0.6,0.6l0.4,0.1l0,0.3l0.2,0.6l0.2,0.5
			l0.2,0.2l0.1,0.1l0.5,0.3l0.1,0.1l0,0.3l0,0.5l0.1,0.5l0.3,0.4l0.7,0.5l0.4,0.1l0.9,0.1l0.4,0.2l0.1,0.2l-0.1,0.1l-1.2-0.3
			l-0.6-0.4l-0.1-0.1l-0.2,0l-0.2-0.1l-0.2-0.1l-0.7-1l-0.1-0.5l-0.1-0.2l-0.3-0.2l-0.4-0.5l-1-1.7l-0.2-0.3l-0.1-0.1l-0.3,0l-0.2,0
			l-0.1-0.1l-0.2,0.1l-0.8,0l-0.8,0.2l-0.2,0.2l-0.4,0l-0.7,0.2l-0.4,0l-0.8-0.2l-0.4-0.2l-0.4-0.3l-0.2-0.3l-0.1-0.1l-0.2,0
			l-0.2,0.1l-0.2,0.1l-0.2,0.2l-0.1,0.2l-0.2,0.5l-0.3,1l-0.4,0.9l-0.1,0.2l0,0.3l0,0.3l0.1,0.4l0.1,0.3l0.1,0.3l0.1,0.2l0.1,0.1
			l0.3,0.7l0.1,0.1l-0.1,0.5l-0.2,0.2l-0.2,0.2l-0.2,0.4l0,0.5l0.1,1.1l0,0.4l-0.1-0.3l-0.1-0.4l0-0.9l0.1-0.5l0.2-0.4l0.2-0.3
			l0.2-0.2v-0.1l-0.4-0.2l-0.9-0.2l-0.4-0.2l-0.1-0.2l-0.1-0.2l-0.1-0.2l-0.2-0.1l-0.4,0l-0.2,0.1l-0.1,0.1l-0.1,0.2l-0.1,0.6
			l-0.1,0.3l0,0.2l0.2,0l0.4-0.1l0.3,0.3l-0.1,0.6l-0.2,0.6l-0.2,0.4l-0.1,0.1l-0.1,0.1l-0.1,0l-0.2,0l-0.1-0.1l-0.1-0.2l-0.1-0.2
			l-0.1-0.1l-0.1,0l-0.2-0.2l-0.1-0.1l-0.2,0l-0.1,0l-0.1,0.1l-0.1-0.1l-0.1-0.2l-0.2-0.6l0.2-0.1l0.4,0l0.2-0.1l0.2-0.2l0.1-0.2
			l0-0.3l-0.1-0.2l-0.2-0.1l-0.2-0.1l0.1-0.2v-0.1l-0.3-0.2l-0.4-0.5l-0.3-0.6l0.1-0.5v-0.1l-0.8-0.2l-3,0.4l-1.5,0.3l-0.2-0.1
			L105,59l-0.1-0.1l-1.5,0.2l-0.8,0.3l-0.4,0.4L102,60l-0.4,0.4l-0.3,0.2l-0.1,0.2l0,0.2l0.1,0.1l0.3,0.1l0.1,0.1l0,0.2l-0.1,0.2
			l-0.1,0.1l-0.1,0.1l-0.4-0.1l-0.2,0l-0.1,0.2l0,0.3l-0.2,0.5l0,0.3l0,1.2l0.1,0.5L101,65l2.3,0.1l0.4,0.1l0.2,0.4l-0.2-0.1
			l-0.3-0.2l-0.2-0.1l-0.2,0l-0.1,0.1l-0.3,0.4l0.1,0.2l0,0.2l-0.1,0.2l-0.1,0.1l-0.1,0.1l-0.1,0.1l0,0.5l0,0.3l0,0.3l-0.1,0.3
			l-0.1,0.4l0,0.1l0,0.2l0,0.1l0,0.1l0,0.1l0.1,1.2l0,0.6l-0.1,0.5l-0.2,0.6l-0.8,1.3l-0.2,0.5l-0.1,0.6l-0.1,1.8l-0.1,0.6l-0.2,0.4
			l-0.4-0.1l-0.2-0.1l-0.5,0.1l-0.5-0.2l-1,0l-0.3,0.1l-0.4,0.3l0.1,0.2l0,0.1l0,0.1l0,0.1l0.1,0.1l0.3,0.3l-0.6,0.3l-0.2,0l0.1,0.3
			l0,0.3l0,0.3l0.1,0.2l0.2,0.2l0.3,0.1l0.8,0.1L99,80l0.3,0l0.3,0l0.3-0.1l0.1-0.1l0.1-0.1l0.1,0l0.6,1l0.1,0.4l-0.1,0.6l-0.2,0.5
			l-0.1,0.2l0,0.3l0.1,0.3l0.1,0.2l0,0.1l-0.4,0.3l-0.1,0.1l-0.2,0.4l-0.2,0.2l-0.4,0.2l-0.2,0.2l-0.2,0.5l-0.1,0.1l-0.7,0.1
			l-0.2,0.1l-0.2,0.2l-0.1,0.1l-0.1,0.2L97.4,86l-0.1,0.1l-0.1,0l-0.1,0L97,86.3l0,0.2l0.2,0.1l0.2,0.1l0.7,0.4l0.3,0.3l0.1,0.1
			l0,0.1l0,0.2l0,0l-0.1,0l-0.1,0.1l-0.2,0.4l-0.2,0.3l-0.3,0.1l-0.9,0l-1,0.3L95,89.5l-0.2,0.1h-0.2L94,89.4l0.1,0.4l0,0.2L93.7,90
			l0-0.3l-0.2-0.1l-0.4-0.1l0-0.1L93,89.3l-0.1-0.1l-0.1,0l-0.3,0.1l-0.3-0.1l-0.3-0.3l-0.3-0.2L91.2,89l0.1,0.1l0.4,0.4l0.1,0.2
			l-0.2,0l-0.2-0.1l-0.3-0.1l-0.4,0.1l-0.1,0.1l-0.2,0.2l-0.2,0.1L89.7,90l-0.2,0.1l0,0.1l0.2,0.2l0.1,0.3l0,0.3l-0.2,0.2l0,0.2
			l0.1,0l0.3,0l0.1,0.1l0.2,0.2l0.1,0.1l-0.1,0.5l0.2,0.3l0.7,0.3l-0.1,0.4L91,93.5l0,0.2l0.7,0.9l0.4,0.5l0.1,0.5l0,0.3l0,0.3
			l-0.1,0.3l0,0.3l0.2,0.2l-0.1,0.1l0,0.4l-0.1,0.2l-0.1,0.1L91.8,98l-0.1,0.1l-0.5,1L91,99.3l-0.1,0.2l-0.1,0.3l0,0.4l0.1,0.3
			l0.2,0.1l0.5-0.3l0.2,0.1l-0.1,0l-0.2,0.2l0.2,0.2l-0.2,0.2l-0.6,0.3l-0.9,0.7l-0.1,0.2l-0.2,0.4l-0.1,0.1l-0.2,0l-0.1-0.1
			l-0.1-0.2l-0.1-0.1l-0.3,0.1l0.1,0.4l0.2,0.5l0,0.4l0.1,0l0.3-0.1l0.1,0l0.1,0l0.3,0.1l0.4,0l0,0.1l-0.1,0.1l0,0.1l0,0.2l0,0.1
			l0.1,0.1l0.2,0.1l0.3,0.1l0,0.1l-0.1,0.1l0,0.1l0.1,0.3l0,0.1l-0.1,0.2l-0.1,0.1l-0.2,0l-0.1,0.1l-0.1,0.2l0,0.1l0,0.1l-0.1,0.2
			l-0.1,0.1l-0.2,0l0,0.2l0.1,0.1l0.1,0.1l0.1,0.1l0,0.2l0,0l0,0l0,0l0,0v0l0,0l0,0l0.1,0.1l0.1,0l0,0.1v0l0,0.2l0,0.1l0,0l0.1,0
			l0.4-0.1l0.2,0l0.2,0.2l0.1,0.2l0.5,0.8l0,0l-0.1,0.1l0.1,0.2l0.2,0.1l0.7,0l0,0.1l-0.1,0.1l0,0l-0.1,0.1v0.1l-0.2,0.1l-0.2,0.2
			l-0.1,0.1l-0.2,0.3l0,0l0.2,0.2l-0.1,0.1l0,0.1v0l0.1,0l0.1,0h0l-0.1,0.1l0.1,0.1l0,0h0l0,0.1l0.1,0.1l0.1,0l0,0l0,0l0.1,0
			l0.3-0.1l0,0l0,0l0,0l0,0l0,0l0,0l0.2,0.1l0.4,0.1l0.2,0l-0.1,0.1l0,0l0,0.1l0,0l0,0.1l0.1,0.2l0,0l0.1,0.1l0.1,0h0l0,0l0,0v0
			l0,0.1l0,0.2l-0.1,0.4l0,0l-0.1,0.2l0,0.2l0.3,0.6l0,0.2v0l-0.1,0.1l0,0l0,0l-0.3,0l-0.1,0l-0.1,0l0,0l-0.1,0l-0.1,0l-0.1,0
			l-0.1,0.1l0,0l-0.1,0.1l0,0.2l0,0.1h0l-0.2,0.2l-0.3,0.1l-0.2,0.1l-0.2,0.1l-0.1,0.1l0,0l-0.2,0.1l-0.1,0l-0.1,0.1l0,0l0.1,0.1
			l0,0l0,0.1l0,0.2l-0.1,0.1l0,0l-0.1,0l-0.2,0l0,0l-0.1,0l0,0l0,0l0,0.1l0,0.1l0,0.1l0.1,0.1l0,0.1v0l0,0l0,0.1l-0.1,0.1l-0.1,0.2
			l0,0.2l-0.1,0.4l0,0l0.1,0l0,0l0,0.1l-0.1,0.2l0.1,0.1l0.1,0.1l0.1,0.3l0,0.2l0,0.1l0.2,0.3l0.2,0.4l0.1,0.1l0.1-0.2l0.2,0.3
			l0.3,0.8l0.2,0.2L93,121l0.1,0.1l0,0.1l0.1,0.3l0,0.1l0.1,0l0.2-0.1l0.1,0l0.2,0.1l0.3,0.3l0.2,0.1l0.2,0h0.5l0.3,0.1l0,0l0.1,0.1
			l0,0l0,0.1l0,0l0,0.3l0,0.1l0,0.1l0,0.1l-0.1,0.1l0,0.1l0,0.1l0,0.1l0.1,0.1l-0.1,0l0,0l0,0.1l0.1,0.1l0,0l-0.7,0.5l-0.2,0.2
			l0,0.1l0.1,0l0.1,0.1l0,0.1l0,0.1l-0.1,0.1l-0.1,0.2l-0.3,0.3l-0.2,0.2l-0.1,0.2v0.5l-0.1,0.6l0,0.5v0.1l0.1,0l0.1,0l0.2-0.1
			l0.1,0l0.1,0l0.9,0.5l0.2,0.2l0.1,0.1l0,0.1l0,0.1l0,0l0.1,0.1l0.5,0.5l0,0.1l0,0.1l-0.2,0l-0.1,0.1l0.1,0.2l0.2,0.2l0.7,0.6
			l0,0.1l0,0.2l0,0.1l0.1,0l0.1,0.1l0,0L97,131l0,0.1l0,0l0,0.1l0,0.1l0,0l0.1-0.1h0l0.1,0.2l-0.1,0.2l0,0.2l0.1,0.2l0.1,0l0.4,0
			l0.4,0.1l0.1,0l0.2-0.2l0-0.3l-0.1-0.2l0.1-0.2l0.1,0l0.4,0.1l0.3,0l0.1,0l0.6,0.4l0.2,0l0,0.5l0.1,0.4l0.2,0.2l0.3-0.2l0-0.1
			l0-0.1l0-0.1l0.1-0.1l0.1,0l0.4,0.3l0.2,0.1l0.2,0.1l0.9,0l0.3,0.1l0.1,0l0.1-0.1l0.1-0.2l0.1-0.1l0.1,0l0.2,0l0.1,0l0.1-0.1
			l0.1-0.2l0-0.1l0.2-0.1l0.2-0.1l0.2,0l0,0.2l0.4,0l0.2,0.1l0.1,0.2l-0.1,0l0,0l0,0.1l0.1,0.1l0.2,0.4l0.1,0.2l0.2,0.1l0.4,0.1
			l0.2,0.1l0.1,0.1l0.1,0.2l0.1,0.1l0.1,0l0.1,0l0.1,0l0.1,0l0.1,0l0.2,0.1l0.1,0l0.1,0l0.2-0.1l0.1,0l0.8,0.2l0.6-0.1l0.2,0
			l1.6,0.8l1,0.2l0.1,0.1l-0.2,0.2l-0.3,0.6l-0.5,1.3l-0.1,0.2l-0.1,0.1l-0.4,0.2l-0.1,0l0,0l0,0l0,0.1l0,0.1l0,0.1l-0.1,0.1l-0.1,0
			l-0.3,0l-0.1,0l-0.1,0.1l0,0.3l0,0.1l-0.1,0.1l-0.1,0.1l-0.1,0.1l-0.3,0.3l-0.2,0.1l-0.2,0.1l-0.1,0.1l-0.4,0.7l-0.1,0.5v0.5
			l0.1,0.3v0.1l-0.3,0.2l-0.1,0.1l-0.1,0.1l0,0.3l0,0.1l-0.1,0.1l-0.1,0.1l-0.1,0.2l-0.1,0.4l0,0.2l0,0.2l0.1,0.2l0.1,0.2l0,0.2
			l-0.1,0.2l-0.2,0.1l-0.2,0.1l-0.1,0.3l0,0.3l-0.1,0.3l-0.1,0.2l-0.6,0.9l-0.1,0.2l0,0.2l-0.1,0.1l-0.1,0.1l-0.1,0.1l-0.1,0.2
			l-0.1,0.3l0,0.6l0.4,0.8l0,0.5l-0.1,0.2l-0.3,0.3l-0.1,0.2l0,0.2l0,0.1l-0.1,0.2l0,0.1l-0.1,0.1l0,0.1l0,0.1l0,0l0,0l0,0.1
			l0.1,0.3l0,0.2l-0.1,0.1l-0.1,0.1l-0.1,0.5l0,0.2l0.1,0.5l0,0.2l-0.1,0.1l-0.2,0.2l0,0.1l0,0.3l0,0.2l0,0.1l0.1,0.1l0.1,0.2
			l0.2,0.5l0.1,0.1l0.1,0.1l0.1,0.1l0,0.1l0,0.1l0,0.1l0.5-0.2l0.2,0l-0.1,0.4l-0.1,0.1l-0.3,0l0.5,0.3l0.2,0l0.8-0.2l0.2-0.1
			l0.2-0.2l0.2-0.3l0.1,0.1l0.6,0l0.1,0.1l0,0.1l0,0.1l0,0.1h1.3l0.5-0.1l0.1-0.1l0-0.1l0-0.1l0.1-0.1l0.1-0.1l0.2-0.1l0.2-0.1
			l0.1-0.1l0-0.1l0.1,0l0.5-0.1l0.2,0l0.3,0.1l0.1,0l0.1,0.1l0.1,0.1l0.1,0.1l0.1,0.1l0.4,0.1l0.6,0l0.3-0.1l0-0.1l0.1-0.3l0.3-0.2
			l0.3,0l0.2,0.1l0.1,0.2l0.1,0.1l0.1,0l0.1-0.1l0-0.1l0-0.1l0-0.1l0-0.1l0-0.1l0-0.1l0-0.1l0,0l0.1,0l0,0l0,0l0,0.1l0.1,0l0.1-0.4
			l-0.1,0l-0.2-0.1l-0.1,0l-0.5,0.1l-0.2,0.1l-0.1,0.1l-0.1,0.1l-0.2,0l-0.2-0.1l-0.3-0.2l-0.1,0l-0.2-0.1l0.1-0.2l0-0.1l0-0.1
			l0-0.1l0.1-0.1l0.3-0.1l0.1-0.1l0.1-0.3l0-0.1l0.1-0.2l0.1,0l0.1,0l0.5-0.1l0.2-0.1l-0.1-0.2l0.2-0.1l0.3,0l0.2,0.1l0,0.1l0,0.2
			l0,0.2l0.1,0.1l0.1-0.1l0.1-0.3l0.1-0.1l0.1,0l0.1,0.1l0.1,0.2l0.1,0.1l0.1,0l0.1,0l0.1,0l0.1,0.2l0,0.1l-0.1,0.2l0,0.1l0,0.1
			l0.1,0.1l0,0.1l0,0.1l0.5,0L118,154l0.1-0.3l0.3,0l0.3,0.2l0.3,0.2l-0.2,0v0.1l0.2,0.2l0.3,0.2l0.2,0.1l0.4,0l0.4-0.1l0.2-0.2
			l0.2-0.1l1.1,0.1h0.6l0.1,0.2h0.4l0.4,0.1l2.8,1.7l0.6,0.2l0.6,0l0.3-0.1l0.1-0.2l0.1-0.3l0.2-0.3l0.1-0.1l0.1,0l0.1,0.1l0.1,0.1
			l0,0.2l0,0.2l0,0.2l0.2,0.1l0.1,0l0.1-0.1l0.1,0l0.3,0.1l0.3,0l0.2,0l0.1-0.1l0,0.2l0.1,0.1l0.1,0.1l0.1,0.2v0l0,0l0,0.1l0.1,0.1
			l0.1,0l0.1-0.1l0.1-0.1l0.5,0.7l0.1,0.2l0,0.2l-0.2,0.2l0.1,0.1l0,0.2l0,0.2l0.1,0.1l0.1,0.1l0.1,0l0.1-0.1l0.1-0.1l0,0l0.1,0.1
			h0.1l0,0l0.1-0.1l0.4-0.1l0.2,0.1l0,0.3l-0.2,0.5l0,0.1l0,0.1l0,0.1l0,0l-0.1,0l0,0l-0.1,0.2l0,0.1l0,0l0.8-0.1l0.2-0.1l0.4-0.3
			l0.2-0.2l0.2-0.2l0.2-0.4l0.1-0.1l0.1-0.1l0.2-0.1l0.1-0.1l0.2-0.2l0.1-0.3l0.1-0.3v-0.3l0-0.2l-0.1-0.1l-0.1-0.1l-0.1-0.1
			l0.1-0.6l0-0.1l-0.1-0.2l-0.1-0.2l0-0.1l0.2-0.1l0.2,0l0.1,0l0,0l0,0.1l0,0.1l0,0.1l0,0.1l0,0.1l0.1,0.1l0.1,0.1l0.2,0.1l0.4,0.1
			l0.1,0l0.1-0.1l0.2-0.3l0.1-0.1l0.2,0l1.3,0.5l0,0l0,0.1l0.1,0.1l0.1,0l0.3,0l0.4-0.2l0.1,0l0.1,0l0.1,0.1l0.2,0.2l-0.1,0.1
			l-0.3,0.2l0.1,0.1l0.5,0.2l0.5,0.5l0,0.1l0,0.1l0,0.1l0,0.1l0,0l0.1,0.2l0.1,0.1l1,0l0.2-0.1l0.7-0.5l0.3-0.1l0.2,0.1l0,0.4l0.2,0
			l0.2-0.1l0.1-0.2l0.1-0.2l0.2-0.2l0.2-0.1l0.4,0l0.2-0.1l0.1-0.1l0-0.1l-0.1-0.1l-0.1,0l0.5-0.5l0.2-0.1l0.2,0l0.2,0.1l0.5-0.1
			l0.2-0.1l0.2-0.2l0.1-0.1l0.1-0.3l0.1-0.2l0.3-0.2l0,0l0.2,0l0.4,0.1l0.8,0l0.6,0.1l0.1,0l0.1-0.3l0.1-0.1l0.8-0.2l2.3,0.1l0.1,0
			l0.3-0.4l0-0.1l0-0.1l0-0.4l0-0.1l-0.1,0l-0.1-0.1l-0.1-0.1l0-0.1l0-0.1l0.2-0.1l0.2-0.2l0.1-0.1l0.1-0.1l0,0l0,0.1l0,0.2l0,0.1
			l-0.1,0.1l0,0.1l0.1,0.2l0.1,0.1l0.1,0l0.2-0.1l0.2,0l0.6,0.1l0.2,0l0.4-0.2l0.2,0l0,0.1l0.1,0.3l0.1,0.1l0.1,0.1l0.3,0.2l0.1,0.1
			l0.2,0l0.2,0l0.2-0.1l0.4-0.4l0.2-0.1l0.4-0.1h0.4l0.6,0.1l0.2,0l-0.1,0.3l0.2,0.2l0.3,0.2l0.2,0.2l-0.3,0.1l-0.1,0.3l0.1,0.4
			l0.2,0.2l0.2,0l0.1,0l0.1,0.1l0.5,0.5l0.5,0.4l0.1,0l0.1,0l0.1,0l0.1,0l0.1,0.1l0.1,0.1l0.1,0l0.1,0l0.1-0.1l0.3-0.3l0-0.1l0-0.1
			l0-0.1l0-0.1l0-0.1v-0.3l0,0l0.1-0.2l0,0l0,0l0-0.3l0,0l0.2-0.2l0,0l0.1-0.3l0,0l0-0.2l0-0.2l0-0.2l-0.1-0.2l-0.2-0.3l-0.1-0.1
			l-0.1-0.1l-0.2,0l-0.3,0.1l-0.2,0l-0.6-0.1l-0.2-0.2l0.2-0.3l0,0l0.1-0.1l0-0.1l0-0.1l0-0.1l0.1-0.1l0.6-1l0,0l-0.2-0.3l-0.3-0.8
			l-0.2-0.2l-0.1,0l-0.2-0.2l-0.2-0.1l-0.1-0.1l-0.1-0.2l0-0.2l-0.2-0.3l-0.7-0.7l-0.1-0.1l-0.1-0.2l0-0.2l0-0.2l0.1-0.1l0.1,0
			l0.1,0l0.1,0l0.1-0.2l0-0.1l0.4-0.3l0.1-0.2l0.2-0.3l0.1-0.1l0.2-0.1l0.6-0.1l0,0l0.2-0.1l0.3-0.2l0.4-0.4l0.2-0.1l1-0.4l1.4-0.2
			l0.3-0.2l1-0.9l0.1-0.2l0.1-0.3l0-0.1l0-0.1l0-0.1l0-0.2l0-0.4l0-0.1l0-0.1l0.1-0.3l0-0.1l0-0.1l-0.1-0.1l0-0.3l0-0.1l0-0.1
			l0.1-0.1l0.1-0.1l0.3-0.1l0.3,0l1,0.3l0.2,0.1l0.2,0.1l0.2,0.2l0.4,0.2l0,0l0.1-0.4l0.1-0.2l0,0l0.2,0l0.1,0l0.1-0.1l0-0.1
			l0.2-0.4l0.1-0.2l0-0.2l0-0.3l-0.1-0.5l0-0.2l0.1-0.1l-0.1-0.1l-0.1,0l-0.1-0.2l-0.1,0l0-0.1l0.3-0.6l-0.2-0.2l-0.5-1l-0.2-0.4
			l-0.1-0.1l-0.4-0.1l-0.2-0.1L167,136l-0.2-0.2l-0.1-0.3l0-0.3l-0.2,0l-0.2-0.1l-0.2-0.1l-0.2-0.1l-0.2-0.1l-0.1,0.1l-0.1,0.2
			l-0.1,0.3l-0.2-0.1l-0.3-0.2l-0.3-0.3l-0.1-0.2l0-0.4l-0.1-0.3l-0.4-0.4l-0.3-0.4l-0.1-0.1l-0.2-0.1l-0.6,0l-0.3-0.2l-0.2-0.3
			l-0.1-0.3l-0.9-1.3l-0.1-0.1h0v0l-0.3-0.4l0-0.1l0-0.1l-0.1-0.1l-0.2-0.1l-0.3-0.3l-0.1-0.1l-0.2-0.1l-0.4-0.1l-0.1,0l0,0.2
			l-0.2,0l-0.6-0.1l-0.2-0.1l-0.2-0.2l-0.3-0.7l-0.2-0.2l-0.5-0.2l-0.2-0.2l-0.1-0.2l0-0.2l0-0.5l0-0.3l-0.1-0.1l-0.1,0l-0.1,0
			l-0.1-0.1l-0.1-0.1l-0.1-0.1l-0.1-0.2l0-0.2l0-0.3l-0.1-0.2l-0.1-0.1l-0.2-0.1l-0.1-0.1l0,0l0-0.1l-0.1,0l0,0l0.1-0.2l0-0.2
			l-0.1-0.2l-0.1-0.1l-0.3-0.2l-0.2-0.1l-0.1-0.1l-0.2-0.3l-0.1-0.2l0-0.2l0.1-0.2l0.4-0.2l0.2-0.2l0-0.3l0-0.3l0.1-0.2l0.2,0.1
			l0.1-0.2l0.2-0.4l0.1-0.2l0-0.3l-0.1-0.1l-0.1-0.1l-0.4-0.2l0-0.2l0.1-0.2l0-0.2l-0.2-0.2l-0.4,0l-0.2-0.2h0l-1.5-0.8l0-0.1l0-0.1
			l0-0.2l-0.1-0.2l-0.1-0.1l-0.2-0.1l-0.1-0.1l-0.1-0.2l0-0.2l0.1-0.4l0-0.2l-0.1-0.2l-0.1-0.2l-0.2-0.3l-0.5-0.3l-0.1-0.2l0.1-0.2
			l0.1-0.1l0.1-0.1l0-0.2l0-0.2l-0.1-0.1l-0.2-0.2l0.7,0.1l0.2,0.1l0.1,0.1l0,0.3l0,0.1l0.1,0.1l0.1,0l0.3,0l0.1,0l0,0.1l0,0.1
			l0,0.1l0,0l0,0l0,0l0,0l0,0l0,0l0,0l0,0l0.2,0.2l0,0.1l0,0.1l0,0.1l0,0.1l0.1,0.4l0.1,0.2l0.2,0l0.1-0.1v-0.1l-0.1-0.2l0-0.2
			l0-0.3l0.1-0.1l0.2-0.3l0-0.2l0.1-0.1l0.1-0.1l0.1-0.1l0.3-0.6l0.1-0.1l0.3-0.2l0.1-0.1l0,0l0.1,0l0,0l0-0.1l0-0.1l0-0.1v0l0-0.1
			l0-0.1l0-0.1l0.1-0.1l0.3-0.2l0.4-0.1l0.8-0.1l0.5,0.1l0.1,0l0.1-0.1l0.2-0.3l0.1-0.1l0.2-0.1l0.2,0l0.2,0l0.1,0l0.1-0.1l0.1,0
			l0.1,0l0.9,0.6l0.3,0l0.3-0.3l0.1-0.2l0.1-0.3l0.1-0.6l0.1-0.1l0.1,0l0.1,0l0.1,0.1l0.1,0l0.1,0l0.1,0l0.1,0l0,0l0.3-0.1l0.5,0
			l0.2-0.2l0.1-0.3l0.3-0.9l0.2,0l0.2,0.1l0.2,0.1l0.2-0.1l0.1-0.3l0.1-0.1l0.4-0.3l0.1-0.1l0-0.1l0,0l0.1,0l0.1,0.1l0.1,0.2
			l0.1,0.1l0.2,0.1l0.2,0l0.2-0.2l0.2-0.2l0.1-0.1l0.1-0.1l0-0.1l-0.1-0.1l0.2-0.1l0.1-0.2l0-0.2l-0.1-0.2l0.4-0.2l0.5-0.1l0.9,0
			l0.2,0l0.4-0.1l0.2,0l0.5,0.1l0.2,0l0.3-0.2l0.1,0l0.1,0l0.1-0.1l0-0.1l0-0.1l0-0.1l0-0.2l0.1-0.1l0.1,0l0.1,0l0.1,0l0.1-0.1
			l0.2-0.2l0.1-0.1l0.2,0l0.4,0l0.2,0l1.6-0.7l0.1-0.1l0.2-0.3l0.1-0.1l0.4-0.1l0.8,0.1l0.3-0.2l0.1-0.4l-0.3-0.2l-0.4-0.1l-0.3-0.3
			l0-0.2l0.1-0.1l0,0l-0.2-0.1l-0.3,0l-0.1-0.1l0.1-0.2l0.1-0.5l0.2-0.2l0.3-0.1l0.4,0.1l0.1,0.1l0.1,0.1l0.1,0.1l0.1,0.1l0.1,0
			l0.3-0.1l0.4,0l0.1-0.1l0.1-0.2l0.1,0.1l0,0.1l0,0.1l0.1,0.1l0.1,0.1l0.3,0.1l0.1,0.1l0.1,0.1l0.1,0.1l0,0.2l0,0.2l-0.1,0.2
			l-0.1,0.2l-0.1,0.2l0.1,0.1l0.6-0.2l0.1,0l0.1,0.2l-0.1,0.2l-0.2,0.4l0,0.3l0,0.1l0.3,0.1l0.1,0.1l0.4,0.3l0.4,0.1l0.2,0l0.2,0
			l0.1-0.1l0.1-0.2l0.2-0.4l0-0.3l0.1-0.2l0.4-0.4l0.5-1.2l0.4-1.1l0-0.2v-0.3l0-0.2l0.1-0.1l0.1-0.1l0.1-0.1l0-0.2l0-0.4l0.1-0.4
			l0.1-0.4L180.9,99.4L180.9,99.4z"/>
		<g>
			<path class="st1" d="M209.9,25.1h-0.7v-4.9l-2,4.9h-0.3l-2-4.9v4.9h-0.7v-6h1.1l1.9,4.5l1.9-4.5h1.1V25.1z"/>
			<path class="st1" d="M214.7,25.1H214v-0.5c-0.4,0.4-0.8,0.6-1.4,0.6c-0.4,0-0.8-0.1-1.1-0.4c-0.3-0.3-0.5-0.6-0.5-1.1
				c0-0.5,0.2-0.8,0.5-1.1c0.3-0.2,0.7-0.4,1.1-0.4c0.6,0,1.1,0.2,1.4,0.6v-0.8c0-0.3-0.1-0.5-0.3-0.7s-0.5-0.2-0.8-0.2
				c-0.5,0-1,0.2-1.3,0.6l-0.3-0.5c0.5-0.5,1-0.7,1.7-0.7c0.5,0,0.9,0.1,1.2,0.4c0.3,0.2,0.5,0.6,0.5,1.1V25.1z M212.8,24.7
				c0.5,0,0.9-0.2,1.2-0.5v-0.8c-0.3-0.4-0.7-0.5-1.2-0.5c-0.3,0-0.6,0.1-0.8,0.3c-0.2,0.2-0.3,0.4-0.3,0.7c0,0.3,0.1,0.5,0.3,0.7
				C212.3,24.6,212.5,24.7,212.8,24.7z"/>
			<path class="st1" d="M218,25.2c-0.6,0-1.2-0.2-1.6-0.7c-0.4-0.4-0.6-1-0.6-1.6s0.2-1.2,0.6-1.6c0.4-0.4,0.9-0.6,1.6-0.6
				c0.7,0,1.2,0.3,1.6,0.8l-0.5,0.4c-0.3-0.4-0.6-0.6-1.1-0.6c-0.5,0-0.8,0.2-1.1,0.5c-0.3,0.3-0.4,0.7-0.4,1.2s0.1,0.9,0.4,1.2
				c0.3,0.3,0.6,0.5,1.1,0.5s0.8-0.2,1.1-0.6l0.5,0.4C219.2,24.9,218.6,25.2,218,25.2z"/>
			<path class="st1" d="M222.5,25.2c-0.6,0-1.2-0.2-1.6-0.6c-0.4-0.4-0.6-1-0.6-1.7c0-0.6,0.2-1.2,0.6-1.6s0.9-0.7,1.5-0.7
				c0.6,0,1.2,0.2,1.5,0.7s0.6,1,0.6,1.7v0.2H221c0,0.4,0.2,0.8,0.5,1.1c0.3,0.3,0.6,0.4,1.1,0.4c0.5,0,1-0.2,1.3-0.5l0.3,0.4
				C223.7,25,223.2,25.2,222.5,25.2z M223.8,22.6c0-0.4-0.1-0.7-0.4-1s-0.6-0.4-1.1-0.4c-0.4,0-0.8,0.1-1,0.4
				c-0.2,0.3-0.4,0.6-0.4,1H223.8z"/>
			<path class="st1" d="M229.4,25.1h-0.7v-0.6c-0.4,0.5-0.9,0.8-1.5,0.8c-0.6,0-1-0.2-1.4-0.6c-0.4-0.4-0.5-1-0.5-1.7
				c0-0.7,0.2-1.2,0.5-1.7s0.8-0.6,1.4-0.6c0.6,0,1.1,0.3,1.5,0.8v-2.3h0.7V25.1z M227.4,24.6c0.3,0,0.5-0.1,0.8-0.2
				c0.2-0.1,0.4-0.3,0.5-0.5v-2c-0.1-0.2-0.3-0.4-0.6-0.5c-0.2-0.1-0.5-0.2-0.8-0.2c-0.4,0-0.8,0.2-1,0.5s-0.4,0.7-0.4,1.2
				s0.1,0.9,0.4,1.2C226.7,24.4,227,24.6,227.4,24.6z"/>
			<path class="st1" d="M234.2,24.5c-0.4,0.4-0.9,0.7-1.6,0.7c-0.6,0-1.2-0.2-1.6-0.7c-0.4-0.4-0.6-1-0.6-1.6s0.2-1.2,0.6-1.6
				c0.4-0.4,0.9-0.7,1.6-0.7c0.6,0,1.2,0.2,1.6,0.7c0.4,0.4,0.6,1,0.6,1.6S234.6,24.1,234.2,24.5z M231.6,24.1
				c0.3,0.3,0.6,0.5,1.1,0.5c0.4,0,0.8-0.2,1.1-0.5c0.3-0.3,0.4-0.7,0.4-1.2c0-0.5-0.1-0.9-0.4-1.2s-0.6-0.5-1.1-0.5
				c-0.4,0-0.8,0.2-1.1,0.5c-0.3,0.3-0.4,0.7-0.4,1.2C231.2,23.4,231.3,23.8,231.6,24.1z"/>
			<path class="st1" d="M239.5,25.1h-0.7v-2.8c0-0.4-0.1-0.6-0.3-0.8s-0.4-0.2-0.7-0.2c-0.3,0-0.5,0.1-0.7,0.2
				c-0.2,0.1-0.4,0.3-0.6,0.5v3.2h-0.7v-4.3h0.7v0.6c0.2-0.2,0.4-0.4,0.7-0.5c0.3-0.1,0.6-0.2,0.9-0.2c0.9,0,1.4,0.5,1.4,1.4V25.1z"
				/>
			<path class="st1" d="M241.2,20.1c-0.1,0-0.2,0-0.3-0.1c-0.1-0.1-0.1-0.2-0.1-0.3c0-0.1,0-0.2,0.1-0.3c0.1-0.1,0.2-0.1,0.3-0.1
				c0.1,0,0.2,0,0.3,0.1c0.1,0.1,0.1,0.2,0.1,0.3c0,0.1,0,0.2-0.1,0.3C241.4,20.1,241.3,20.1,241.2,20.1z M241.5,25.1h-0.7v-4.3h0.7
				V25.1z"/>
			<path class="st1" d="M246.3,25.1h-0.7v-0.5c-0.4,0.4-0.8,0.6-1.4,0.6c-0.4,0-0.8-0.1-1.1-0.4c-0.3-0.3-0.5-0.6-0.5-1.1
				c0-0.5,0.2-0.8,0.5-1.1c0.3-0.2,0.7-0.4,1.1-0.4c0.6,0,1.1,0.2,1.4,0.6v-0.8c0-0.3-0.1-0.5-0.3-0.7c-0.2-0.2-0.5-0.2-0.8-0.2
				c-0.5,0-1,0.2-1.3,0.6l-0.3-0.5c0.5-0.5,1-0.7,1.7-0.7c0.5,0,0.9,0.1,1.2,0.4c0.3,0.2,0.5,0.6,0.5,1.1V25.1z M244.4,24.7
				c0.5,0,0.9-0.2,1.2-0.5v-0.8c-0.3-0.4-0.7-0.5-1.2-0.5c-0.3,0-0.6,0.1-0.8,0.3c-0.2,0.2-0.3,0.4-0.3,0.7c0,0.3,0.1,0.5,0.3,0.7
				C243.8,24.6,244.1,24.7,244.4,24.7z"/>
		</g>
		<g>
			<path class="st1" d="M209.2,71.5h-0.9l-0.5-1.3h-3l-0.5,1.3h-0.9l2.4-6h0.9L209.2,71.5z M207.6,69.5l-1.3-3.2l-1.3,3.2H207.6z"/>
			<path class="st1" d="M210.6,71.5h-0.7v-6h0.7V71.5z"/>
			<path class="st1" d="M212.6,71.5H212v-6h0.7v2.3c0.4-0.5,0.9-0.8,1.5-0.8c0.6,0,1,0.2,1.4,0.6c0.4,0.4,0.5,1,0.5,1.7
				c0,0.7-0.2,1.2-0.5,1.7c-0.4,0.4-0.8,0.6-1.4,0.6c-0.6,0-1.1-0.3-1.5-0.8V71.5z M212.6,70.4c0.1,0.2,0.3,0.4,0.5,0.5
				c0.2,0.1,0.5,0.2,0.8,0.2c0.4,0,0.8-0.2,1-0.5s0.4-0.7,0.4-1.2s-0.1-0.9-0.4-1.2c-0.3-0.3-0.6-0.5-1-0.5c-0.3,0-0.5,0.1-0.8,0.2
				s-0.4,0.3-0.5,0.5V70.4z"/>
			<path class="st1" d="M220.5,71.5h-0.7V71c-0.4,0.4-0.8,0.6-1.4,0.6c-0.4,0-0.8-0.1-1.1-0.4c-0.3-0.3-0.5-0.6-0.5-1.1
				c0-0.5,0.2-0.8,0.5-1.1c0.3-0.2,0.7-0.4,1.1-0.4c0.6,0,1.1,0.2,1.4,0.6v-0.8c0-0.3-0.1-0.5-0.3-0.7s-0.5-0.2-0.8-0.2
				c-0.5,0-1,0.2-1.3,0.6l-0.3-0.5c0.5-0.5,1-0.7,1.7-0.7c0.5,0,0.9,0.1,1.2,0.4c0.3,0.2,0.5,0.6,0.5,1.1V71.5z M218.7,71.2
				c0.5,0,0.9-0.2,1.2-0.5v-0.8c-0.3-0.4-0.7-0.5-1.2-0.5c-0.3,0-0.6,0.1-0.8,0.3c-0.2,0.2-0.3,0.4-0.3,0.7c0,0.3,0.1,0.5,0.3,0.7
				C218.1,71.1,218.4,71.2,218.7,71.2z"/>
			<path class="st1" d="M225.5,71.5h-0.7v-2.8c0-0.4-0.1-0.6-0.3-0.8c-0.2-0.2-0.4-0.2-0.7-0.2c-0.3,0-0.5,0.1-0.7,0.2
				c-0.2,0.1-0.4,0.3-0.6,0.5v3.2h-0.7v-4.3h0.7v0.6c0.2-0.2,0.4-0.4,0.7-0.5c0.3-0.1,0.6-0.2,0.9-0.2c0.9,0,1.4,0.5,1.4,1.4V71.5z"
				/>
			<path class="st1" d="M227.2,66.6c-0.1,0-0.2,0-0.3-0.1c-0.1-0.1-0.1-0.2-0.1-0.3s0-0.2,0.1-0.3c0.1-0.1,0.2-0.1,0.3-0.1
				c0.1,0,0.2,0,0.3,0.1c0.1,0.1,0.1,0.2,0.1,0.3s0,0.2-0.1,0.3C227.4,66.5,227.3,66.6,227.2,66.6z M227.5,71.5h-0.7v-4.3h0.7V71.5z
				"/>
			<path class="st1" d="M232.3,71.5h-0.7V71c-0.4,0.4-0.8,0.6-1.4,0.6c-0.4,0-0.8-0.1-1.1-0.4c-0.3-0.3-0.5-0.6-0.5-1.1
				c0-0.5,0.2-0.8,0.5-1.1c0.3-0.2,0.7-0.4,1.1-0.4c0.6,0,1.1,0.2,1.4,0.6v-0.8c0-0.3-0.1-0.5-0.3-0.7c-0.2-0.2-0.5-0.2-0.8-0.2
				c-0.5,0-1,0.2-1.3,0.6l-0.3-0.5c0.5-0.5,1-0.7,1.7-0.7c0.5,0,0.9,0.1,1.2,0.4s0.5,0.6,0.5,1.1V71.5z M230.4,71.2
				c0.5,0,0.9-0.2,1.2-0.5v-0.8c-0.3-0.4-0.7-0.5-1.2-0.5c-0.3,0-0.6,0.1-0.8,0.3c-0.2,0.2-0.3,0.4-0.3,0.7c0,0.3,0.1,0.5,0.3,0.7
				C229.8,71.1,230.1,71.2,230.4,71.2z"/>
		</g>
		<g>
			<path class="st1" d="M206,107.4c-1,0-1.7-0.3-2.3-1l0.4-0.6c0.5,0.6,1.1,0.9,1.9,0.9c0.5,0,0.8-0.1,1.1-0.3
				c0.2-0.2,0.3-0.4,0.3-0.7c0-0.2-0.1-0.4-0.2-0.5c-0.1-0.1-0.3-0.3-0.5-0.3s-0.4-0.2-0.7-0.2c-0.3-0.1-0.5-0.1-0.8-0.2
				s-0.5-0.2-0.7-0.3s-0.4-0.3-0.5-0.5c-0.1-0.2-0.2-0.5-0.2-0.7c0-0.5,0.2-0.9,0.6-1.2c0.4-0.3,0.9-0.5,1.5-0.5
				c0.9,0,1.6,0.3,2.1,0.8l-0.5,0.5c-0.4-0.5-1-0.7-1.7-0.7c-0.4,0-0.7,0.1-0.9,0.3c-0.2,0.2-0.3,0.4-0.3,0.7c0,0.2,0.1,0.4,0.3,0.5
				c0.2,0.1,0.4,0.2,0.7,0.3c0.3,0.1,0.5,0.1,0.9,0.2c0.3,0.1,0.6,0.2,0.9,0.3c0.3,0.1,0.5,0.3,0.7,0.5c0.2,0.2,0.3,0.5,0.3,0.9
				c0,0.5-0.2,0.9-0.5,1.3C207.3,107.2,206.7,107.4,206,107.4z"/>
			<path class="st1" d="M211.3,107.4c-0.6,0-1.2-0.2-1.6-0.6c-0.4-0.4-0.6-1-0.6-1.7c0-0.6,0.2-1.2,0.6-1.6c0.4-0.4,0.9-0.7,1.5-0.7
				c0.6,0,1.2,0.2,1.5,0.7c0.4,0.4,0.6,1,0.6,1.7v0.2h-3.5c0,0.4,0.2,0.8,0.5,1.1c0.3,0.3,0.6,0.4,1.1,0.4c0.5,0,1-0.2,1.3-0.5
				l0.3,0.4C212.5,107.1,212,107.4,211.3,107.4z M212.6,104.8c0-0.4-0.1-0.7-0.4-1c-0.2-0.3-0.6-0.4-1.1-0.4c-0.4,0-0.8,0.1-1,0.4
				c-0.2,0.3-0.4,0.6-0.4,1H212.6z"/>
			<path class="st1" d="M215,107.3h-0.7v-4.3h0.7v0.7c0.4-0.5,0.9-0.8,1.4-0.8v0.7c-0.1,0-0.2,0-0.3,0c-0.2,0-0.4,0.1-0.7,0.2
				c-0.2,0.1-0.4,0.3-0.5,0.5V107.3z"/>
			<path class="st1" d="M218,107.3h-0.7v-6h0.7v2.3c0.4-0.5,0.9-0.8,1.5-0.8c0.6,0,1,0.2,1.4,0.6c0.4,0.4,0.5,1,0.5,1.7
				c0,0.7-0.2,1.2-0.5,1.7s-0.8,0.6-1.4,0.6c-0.6,0-1.1-0.3-1.5-0.8V107.3z M218,106.1c0.1,0.2,0.3,0.4,0.5,0.5
				c0.2,0.1,0.5,0.2,0.8,0.2c0.4,0,0.8-0.2,1-0.5c0.3-0.3,0.4-0.7,0.4-1.2s-0.1-0.9-0.4-1.2c-0.3-0.3-0.6-0.5-1-0.5
				c-0.3,0-0.5,0.1-0.8,0.2c-0.2,0.1-0.4,0.3-0.5,0.5V106.1z"/>
			<path class="st1" d="M222.8,102.3c-0.1,0-0.2,0-0.3-0.1s-0.1-0.2-0.1-0.3s0-0.2,0.1-0.3s0.2-0.1,0.3-0.1c0.1,0,0.2,0,0.3,0.1
				s0.1,0.2,0.1,0.3s0,0.2-0.1,0.3S223,102.3,222.8,102.3z M223.2,107.3h-0.7v-4.3h0.7V107.3z"/>
			<path class="st1" d="M227.9,107.3h-0.7v-0.5c-0.4,0.4-0.8,0.6-1.4,0.6c-0.4,0-0.8-0.1-1.1-0.4c-0.3-0.3-0.5-0.6-0.5-1.1
				c0-0.5,0.2-0.8,0.5-1.1s0.7-0.4,1.1-0.4c0.6,0,1.1,0.2,1.4,0.6v-0.8c0-0.3-0.1-0.5-0.3-0.7s-0.5-0.2-0.8-0.2
				c-0.5,0-1,0.2-1.3,0.6l-0.3-0.5c0.5-0.5,1-0.7,1.7-0.7c0.5,0,0.9,0.1,1.2,0.4c0.3,0.2,0.5,0.6,0.5,1.1V107.3z M226.1,106.9
				c0.5,0,0.9-0.2,1.2-0.5v-0.8c-0.3-0.4-0.7-0.5-1.2-0.5c-0.3,0-0.6,0.1-0.8,0.3c-0.2,0.2-0.3,0.4-0.3,0.7c0,0.3,0.1,0.5,0.3,0.7
				C225.5,106.8,225.7,106.9,226.1,106.9z"/>
		</g>
		<g>
			<path class="st1" d="M208.6,145.6h-0.9l-2.3-2.7l-0.6,0.7v2h-0.7v-6h0.7v3.1l2.7-3.1h0.9l-2.5,2.9L208.6,145.6z"/>
			<path class="st1" d="M212.6,145c-0.4,0.4-0.9,0.7-1.6,0.7c-0.6,0-1.2-0.2-1.6-0.7s-0.6-1-0.6-1.6s0.2-1.2,0.6-1.6
				c0.4-0.4,0.9-0.7,1.6-0.7c0.6,0,1.2,0.2,1.6,0.7c0.4,0.4,0.6,1,0.6,1.6S213,144.6,212.6,145z M210,144.6c0.3,0.3,0.6,0.5,1.1,0.5
				s0.8-0.2,1.1-0.5s0.4-0.7,0.4-1.2c0-0.5-0.1-0.9-0.4-1.2c-0.3-0.3-0.6-0.5-1.1-0.5s-0.8,0.2-1.1,0.5c-0.3,0.3-0.4,0.7-0.4,1.2
				C209.6,143.9,209.7,144.3,210,144.6z"/>
			<path class="st1" d="M215.7,145.7c-0.7,0-1.3-0.2-1.8-0.7l0.4-0.5c0.2,0.2,0.4,0.3,0.6,0.4c0.3,0.1,0.5,0.2,0.8,0.2
				c0.3,0,0.6-0.1,0.8-0.2c0.2-0.1,0.3-0.3,0.3-0.5c0-0.2-0.1-0.3-0.3-0.5s-0.4-0.2-0.7-0.3c-0.3-0.1-0.5-0.1-0.8-0.2
				c-0.3-0.1-0.5-0.2-0.7-0.4s-0.3-0.4-0.3-0.7c0-0.4,0.1-0.7,0.4-0.9c0.3-0.2,0.7-0.4,1.2-0.4c0.7,0,1.2,0.2,1.6,0.6l-0.3,0.5
				c-0.3-0.4-0.7-0.5-1.3-0.5c-0.3,0-0.5,0.1-0.7,0.2s-0.3,0.3-0.3,0.5c0,0.2,0.1,0.3,0.3,0.4s0.4,0.2,0.7,0.2
				c0.3,0.1,0.5,0.1,0.8,0.2s0.5,0.2,0.7,0.4s0.3,0.4,0.3,0.8c0,0.4-0.2,0.7-0.5,0.9C216.6,145.6,216.2,145.7,215.7,145.7z"/>
			<path class="st1" d="M221.9,145c-0.4,0.4-0.9,0.7-1.6,0.7s-1.2-0.2-1.6-0.7c-0.4-0.4-0.6-1-0.6-1.6s0.2-1.2,0.6-1.6
				c0.4-0.4,0.9-0.7,1.6-0.7s1.2,0.2,1.6,0.7c0.4,0.4,0.6,1,0.6,1.6S222.3,144.6,221.9,145z M219.3,144.6c0.3,0.3,0.6,0.5,1.1,0.5
				c0.4,0,0.8-0.2,1.1-0.5s0.4-0.7,0.4-1.2c0-0.5-0.1-0.9-0.4-1.2c-0.3-0.3-0.6-0.5-1.1-0.5c-0.4,0-0.8,0.2-1.1,0.5
				s-0.4,0.7-0.4,1.2C218.9,143.9,219,144.3,219.3,144.6z"/>
			<path class="st1" d="M225.5,145.6h-0.7l-1.8-4.3h0.7l1.4,3.6l1.4-3.6h0.7L225.5,145.6z"/>
			<path class="st1" d="M231.5,145c-0.4,0.4-0.9,0.7-1.6,0.7c-0.6,0-1.2-0.2-1.6-0.7s-0.6-1-0.6-1.6s0.2-1.2,0.6-1.6
				c0.4-0.4,0.9-0.7,1.6-0.7c0.6,0,1.2,0.2,1.6,0.7c0.4,0.4,0.6,1,0.6,1.6S231.9,144.6,231.5,145z M228.9,144.6
				c0.3,0.3,0.6,0.5,1.1,0.5c0.4,0,0.8-0.2,1.1-0.5s0.4-0.7,0.4-1.2c0-0.5-0.1-0.9-0.4-1.2c-0.3-0.3-0.6-0.5-1.1-0.5
				c-0.4,0-0.8,0.2-1.1,0.5c-0.3,0.3-0.4,0.7-0.4,1.2C228.5,143.9,228.6,144.3,228.9,144.6z"/>
		</g>
		<g>
			<path class="st1" d="M45.7,37.2h-3.9v-6h3.9v0.7h-3.2v1.9h3.1v0.7h-3.1v2.1h3.2V37.2z"/>
			<path class="st1" d="M47.5,37.2h-0.7v-4.3h0.7v0.7c0.4-0.5,0.9-0.8,1.4-0.8v0.7c-0.1,0-0.2,0-0.3,0c-0.2,0-0.4,0.1-0.7,0.2
				c-0.2,0.1-0.4,0.3-0.5,0.5V37.2z"/>
			<path class="st1" d="M50.2,32.2c-0.1,0-0.2,0-0.3-0.1c-0.1-0.1-0.1-0.2-0.1-0.3s0-0.2,0.1-0.3c0.1-0.1,0.2-0.1,0.3-0.1
				c0.1,0,0.2,0,0.3,0.1c0.1,0.1,0.1,0.2,0.1,0.3s0,0.2-0.1,0.3C50.4,32.2,50.3,32.2,50.2,32.2z M50.5,37.2h-0.7v-4.3h0.7V37.2z"/>
			<path class="st1" d="M52.9,37.3c-0.3,0-0.6-0.1-0.7-0.3S52,36.6,52,36.3v-2.8h-0.7v-0.6H52v-1.2h0.7v1.2h0.9v0.6h-0.9v2.7
				c0,0.2,0,0.3,0.1,0.4c0.1,0.1,0.2,0.2,0.3,0.2c0.2,0,0.4-0.1,0.5-0.2l0.2,0.5C53.6,37.2,53.3,37.3,52.9,37.3z"/>
			<path class="st1" d="M55.2,37.2h-0.7v-4.3h0.7v0.7c0.4-0.5,0.9-0.8,1.4-0.8v0.7c-0.1,0-0.2,0-0.3,0c-0.2,0-0.4,0.1-0.7,0.2
				c-0.2,0.1-0.4,0.3-0.5,0.5V37.2z"/>
			<path class="st1" d="M59.4,37.3c-0.6,0-1.2-0.2-1.6-0.6c-0.4-0.4-0.6-1-0.6-1.7c0-0.6,0.2-1.2,0.6-1.6c0.4-0.4,0.9-0.7,1.5-0.7
				c0.6,0,1.2,0.2,1.5,0.7c0.4,0.4,0.6,1,0.6,1.7v0.2h-3.5c0,0.4,0.2,0.8,0.5,1.1c0.3,0.3,0.6,0.4,1.1,0.4c0.5,0,1-0.2,1.3-0.5
				l0.3,0.4C60.7,37.1,60.1,37.3,59.4,37.3z M60.8,34.8c0-0.4-0.1-0.7-0.4-1c-0.2-0.3-0.6-0.4-1.1-0.4c-0.4,0-0.8,0.1-1,0.4
				c-0.2,0.3-0.4,0.6-0.4,1H60.8z"/>
			<path class="st1" d="M65.9,37.2h-0.7v-0.5c-0.4,0.4-0.8,0.6-1.4,0.6c-0.4,0-0.8-0.1-1.1-0.4c-0.3-0.3-0.5-0.6-0.5-1.1
				c0-0.5,0.2-0.8,0.5-1.1c0.3-0.2,0.7-0.4,1.1-0.4c0.6,0,1.1,0.2,1.4,0.6v-0.8c0-0.3-0.1-0.5-0.3-0.7s-0.5-0.2-0.8-0.2
				c-0.5,0-1,0.2-1.3,0.6l-0.3-0.5c0.5-0.5,1-0.7,1.7-0.7c0.5,0,0.9,0.1,1.2,0.4c0.3,0.2,0.5,0.6,0.5,1.1V37.2z M64.1,36.8
				c0.5,0,0.9-0.2,1.2-0.5v-0.8c-0.3-0.4-0.7-0.5-1.2-0.5c-0.3,0-0.6,0.1-0.8,0.3S63,35.6,63,35.9c0,0.3,0.1,0.5,0.3,0.7
				C63.5,36.7,63.7,36.8,64.1,36.8z"/>
		</g>
		<g>
			<path class="st1" d="M129.5,7.6h-0.7v-6h0.7V7.6z"/>
			<path class="st1" d="M131.6,7.6h-0.7V3.3h0.7V4c0.4-0.5,0.9-0.8,1.4-0.8v0.7c-0.1,0-0.2,0-0.3,0c-0.2,0-0.4,0.1-0.7,0.2
				c-0.2,0.1-0.4,0.3-0.5,0.5V7.6z"/>
			<path class="st1" d="M137.2,7.6h-0.7V7.1c-0.4,0.4-0.8,0.6-1.4,0.6c-0.4,0-0.8-0.1-1.1-0.4c-0.3-0.3-0.5-0.6-0.5-1.1
				c0-0.5,0.2-0.8,0.5-1.1c0.3-0.2,0.7-0.4,1.1-0.4c0.6,0,1.1,0.2,1.4,0.6V4.7c0-0.3-0.1-0.5-0.3-0.7s-0.5-0.2-0.8-0.2
				c-0.5,0-1,0.2-1.3,0.6l-0.3-0.5c0.5-0.5,1-0.7,1.7-0.7c0.5,0,0.9,0.1,1.2,0.4c0.3,0.2,0.5,0.6,0.5,1.1V7.6z M135.4,7.2
				c0.5,0,0.9-0.2,1.2-0.5V5.9c-0.3-0.4-0.7-0.5-1.2-0.5c-0.3,0-0.6,0.1-0.8,0.3s-0.3,0.4-0.3,0.7c0,0.3,0.1,0.5,0.3,0.7
				S135.1,7.2,135.4,7.2z"/>
			<path class="st1" d="M140.2,7.7c-0.6,0-1-0.2-1.4-0.6c-0.4-0.4-0.5-1-0.5-1.7c0-0.7,0.2-1.2,0.5-1.7s0.8-0.6,1.4-0.6
				c0.3,0,0.6,0.1,0.8,0.2s0.5,0.3,0.6,0.5V3.3h0.7v6h-0.7V7C141.3,7.5,140.9,7.7,140.2,7.7z M140.4,7.1c0.3,0,0.5-0.1,0.8-0.2
				c0.2-0.1,0.4-0.3,0.5-0.5v-2c-0.1-0.2-0.3-0.4-0.5-0.5c-0.2-0.1-0.5-0.2-0.8-0.2c-0.4,0-0.8,0.2-1,0.5C139.1,4.5,139,5,139,5.4
				c0,0.5,0.1,0.9,0.4,1.2S140,7.1,140.4,7.1z"/>
		</g>
		<g>
			<path class="st1" d="M49.9,171.7c-1,0-1.7-0.3-2.3-1l0.4-0.6c0.5,0.6,1.1,0.9,1.9,0.9c0.5,0,0.8-0.1,1.1-0.3
				c0.2-0.2,0.3-0.4,0.3-0.7c0-0.2-0.1-0.4-0.2-0.5s-0.3-0.3-0.5-0.3c-0.2-0.1-0.4-0.2-0.7-0.2c-0.3-0.1-0.5-0.1-0.8-0.2
				s-0.5-0.2-0.7-0.3c-0.2-0.1-0.4-0.3-0.5-0.5c-0.1-0.2-0.2-0.5-0.2-0.7c0-0.5,0.2-0.9,0.6-1.2c0.4-0.3,0.9-0.5,1.5-0.5
				c0.9,0,1.6,0.3,2.1,0.8l-0.5,0.5c-0.4-0.5-1-0.7-1.7-0.7c-0.4,0-0.7,0.1-0.9,0.3c-0.2,0.2-0.3,0.4-0.3,0.7c0,0.2,0.1,0.4,0.3,0.5
				c0.2,0.1,0.4,0.2,0.7,0.3c0.3,0.1,0.5,0.1,0.9,0.2s0.6,0.2,0.9,0.3c0.3,0.1,0.5,0.3,0.7,0.5c0.2,0.2,0.3,0.5,0.3,0.9
				c0,0.5-0.2,0.9-0.5,1.3C51.2,171.6,50.6,171.7,49.9,171.7z"/>
			<path class="st1" d="M52.9,173.3l0.1-0.6c0.1,0,0.2,0.1,0.4,0.1c0.2,0,0.3,0,0.4-0.1c0.1-0.1,0.2-0.2,0.3-0.4l0.3-0.7l-1.8-4.4
				h0.7l1.4,3.6l1.4-3.6h0.7l-2.2,5.2c-0.2,0.6-0.7,0.9-1.3,0.9C53.2,173.4,53,173.4,52.9,173.3z"/>
			<path class="st1" d="M58.2,171.6h-0.7v-4.3h0.7v0.7c0.4-0.5,0.9-0.8,1.4-0.8v0.7c-0.1,0-0.2,0-0.3,0c-0.2,0-0.4,0.1-0.7,0.2
				c-0.2,0.1-0.4,0.3-0.5,0.5V171.6z"/>
			<path class="st1" d="M60.8,166.7c-0.1,0-0.2,0-0.3-0.1c-0.1-0.1-0.1-0.2-0.1-0.3s0-0.2,0.1-0.3c0.1-0.1,0.2-0.1,0.3-0.1
				c0.1,0,0.2,0,0.3,0.1s0.1,0.2,0.1,0.3s0,0.2-0.1,0.3S61,166.7,60.8,166.7z M61.2,171.6h-0.7v-4.3h0.7V171.6z"/>
			<path class="st1" d="M65.9,171.6h-0.7v-0.5c-0.4,0.4-0.8,0.6-1.4,0.6c-0.4,0-0.8-0.1-1.1-0.4c-0.3-0.3-0.5-0.6-0.5-1.1
				c0-0.5,0.2-0.8,0.5-1.1c0.3-0.2,0.7-0.4,1.1-0.4c0.6,0,1.1,0.2,1.4,0.6v-0.8c0-0.3-0.1-0.5-0.3-0.7s-0.5-0.2-0.8-0.2
				c-0.5,0-1,0.2-1.3,0.6l-0.3-0.5c0.5-0.5,1-0.7,1.7-0.7c0.5,0,0.9,0.1,1.2,0.4c0.3,0.2,0.5,0.6,0.5,1.1V171.6z M64.1,171.2
				c0.5,0,0.9-0.2,1.2-0.5v-0.8c-0.3-0.4-0.7-0.5-1.2-0.5c-0.3,0-0.6,0.1-0.8,0.3c-0.2,0.2-0.3,0.4-0.3,0.7c0,0.3,0.1,0.5,0.3,0.7
				S63.7,171.2,64.1,171.2z"/>
		</g>
		<g>
			<path class="st1" d="M25.7,71.1h-0.9l-0.5-1.3h-3l-0.5,1.3h-0.9l2.4-6h0.9L25.7,71.1z M24,69.1l-1.3-3.2l-1.3,3.2H24z"/>
			<path class="st1" d="M27.2,71.1h-0.7v-3.8h-0.7v-0.6h0.7v-0.3c0-0.4,0.1-0.8,0.3-1c0.2-0.2,0.5-0.4,0.9-0.4
				c0.4,0,0.7,0.1,0.9,0.3l-0.3,0.4c-0.2-0.1-0.3-0.2-0.5-0.2c-0.2,0-0.4,0.1-0.5,0.2c-0.1,0.1-0.2,0.4-0.2,0.6v0.3h0.9v0.6h-0.9
				V71.1z"/>
			<path class="st1" d="M30.6,72.8c-0.4,0-0.7,0-1-0.1c-0.3-0.1-0.5-0.3-0.8-0.5l0.3-0.5c0.3,0.4,0.8,0.6,1.4,0.6
				c0.4,0,0.7-0.1,1-0.3s0.4-0.5,0.4-1v-0.6c-0.2,0.2-0.4,0.4-0.6,0.6c-0.3,0.1-0.5,0.2-0.8,0.2c-0.6,0-1-0.2-1.4-0.6
				c-0.4-0.4-0.5-1-0.5-1.6s0.2-1.2,0.5-1.6c0.4-0.4,0.8-0.6,1.4-0.6c0.6,0,1.1,0.3,1.5,0.8v-0.7h0.7V71c0,0.7-0.2,1.1-0.6,1.4
				C31.7,72.7,31.2,72.8,30.6,72.8z M30.7,70.5c0.3,0,0.5-0.1,0.8-0.2c0.2-0.1,0.4-0.3,0.5-0.5v-1.9c-0.1-0.2-0.3-0.4-0.5-0.5
				c-0.2-0.1-0.5-0.2-0.8-0.2c-0.4,0-0.8,0.2-1,0.5c-0.2,0.3-0.4,0.7-0.4,1.2c0,0.5,0.1,0.9,0.4,1.2S30.3,70.5,30.7,70.5z"/>
			<path class="st1" d="M37.7,71.1H37v-2.9c0-0.4-0.1-0.6-0.3-0.8c-0.2-0.1-0.4-0.2-0.7-0.2c-0.2,0-0.5,0.1-0.7,0.2
				c-0.2,0.1-0.4,0.3-0.6,0.5v3.2H34v-6h0.7v2.3c0.2-0.2,0.4-0.4,0.7-0.5c0.3-0.1,0.6-0.2,0.9-0.2c0.9,0,1.4,0.5,1.4,1.4V71.1z"/>
			<path class="st1" d="M42.4,71.1h-0.7v-0.5c-0.4,0.4-0.8,0.6-1.4,0.6c-0.4,0-0.8-0.1-1.1-0.4c-0.3-0.3-0.5-0.6-0.5-1.1
				c0-0.5,0.2-0.8,0.5-1.1c0.3-0.2,0.7-0.4,1.1-0.4c0.6,0,1.1,0.2,1.4,0.6v-0.8c0-0.3-0.1-0.5-0.3-0.7s-0.5-0.2-0.8-0.2
				c-0.5,0-1,0.2-1.3,0.6L39,67.3c0.5-0.5,1-0.7,1.7-0.7c0.5,0,0.9,0.1,1.2,0.4c0.3,0.2,0.5,0.6,0.5,1.1V71.1z M40.5,70.7
				c0.5,0,0.9-0.2,1.2-0.5v-0.8c-0.3-0.4-0.7-0.5-1.2-0.5c-0.3,0-0.6,0.1-0.8,0.3c-0.2,0.2-0.3,0.4-0.3,0.7c0,0.3,0.1,0.5,0.3,0.7
				C40,70.6,40.2,70.7,40.5,70.7z"/>
			<path class="st1" d="M47.4,71.1h-0.7v-2.8c0-0.4-0.1-0.6-0.3-0.8s-0.4-0.2-0.7-0.2c-0.3,0-0.5,0.1-0.7,0.2
				c-0.2,0.1-0.4,0.3-0.6,0.5v3.2h-0.7v-4.3h0.7v0.6c0.2-0.2,0.4-0.4,0.7-0.5c0.3-0.1,0.6-0.2,0.9-0.2c0.9,0,1.4,0.5,1.4,1.4V71.1z"
				/>
			<path class="st1" d="M49,66.1c-0.1,0-0.2,0-0.3-0.1c-0.1-0.1-0.1-0.2-0.1-0.3c0-0.1,0-0.2,0.1-0.3c0.1-0.1,0.2-0.1,0.3-0.1
				c0.1,0,0.2,0,0.3,0.1c0.1,0.1,0.1,0.2,0.1,0.3c0,0.1,0,0.2-0.1,0.3C49.3,66.1,49.2,66.1,49,66.1z M49.4,71.1h-0.7v-4.3h0.7V71.1z
				"/>
			<path class="st1" d="M52.1,71.2c-0.7,0-1.3-0.2-1.8-0.7l0.4-0.5c0.2,0.2,0.4,0.3,0.6,0.4c0.3,0.1,0.5,0.2,0.8,0.2
				c0.3,0,0.6-0.1,0.8-0.2c0.2-0.1,0.3-0.3,0.3-0.5c0-0.2-0.1-0.3-0.3-0.5c-0.2-0.1-0.4-0.2-0.7-0.3c-0.3-0.1-0.5-0.1-0.8-0.2
				c-0.3-0.1-0.5-0.2-0.7-0.4c-0.2-0.2-0.3-0.4-0.3-0.7c0-0.4,0.1-0.7,0.4-0.9c0.3-0.2,0.7-0.4,1.2-0.4c0.7,0,1.2,0.2,1.6,0.6
				l-0.3,0.5c-0.3-0.4-0.7-0.5-1.3-0.5c-0.3,0-0.5,0.1-0.7,0.2s-0.3,0.3-0.3,0.5c0,0.2,0.1,0.3,0.3,0.4c0.2,0.1,0.4,0.2,0.7,0.2
				c0.3,0.1,0.5,0.1,0.8,0.2s0.5,0.2,0.7,0.4c0.2,0.2,0.3,0.4,0.3,0.8c0,0.4-0.2,0.7-0.5,0.9C53.1,71.1,52.7,71.2,52.1,71.2z"/>
			<path class="st1" d="M56,71.2c-0.3,0-0.6-0.1-0.7-0.3s-0.2-0.4-0.2-0.8v-2.8h-0.7v-0.6h0.7v-1.2h0.7v1.2h0.9v0.6h-0.9V70
				c0,0.2,0,0.3,0.1,0.4c0.1,0.1,0.2,0.2,0.3,0.2c0.2,0,0.4-0.1,0.5-0.2l0.2,0.5C56.6,71.1,56.4,71.2,56,71.2z"/>
			<path class="st1" d="M61,71.1h-0.7v-0.5c-0.4,0.4-0.8,0.6-1.4,0.6c-0.4,0-0.8-0.1-1.1-0.4c-0.3-0.3-0.5-0.6-0.5-1.1
				c0-0.5,0.2-0.8,0.5-1.1c0.3-0.2,0.7-0.4,1.1-0.4c0.6,0,1.1,0.2,1.4,0.6v-0.8c0-0.3-0.1-0.5-0.3-0.7c-0.2-0.2-0.5-0.2-0.8-0.2
				c-0.5,0-1,0.2-1.3,0.6l-0.3-0.5c0.5-0.5,1-0.7,1.7-0.7c0.5,0,0.9,0.1,1.2,0.4c0.3,0.2,0.5,0.6,0.5,1.1V71.1z M59.1,70.7
				c0.5,0,0.9-0.2,1.2-0.5v-0.8c-0.3-0.4-0.7-0.5-1.2-0.5c-0.3,0-0.6,0.1-0.8,0.3c-0.2,0.2-0.3,0.4-0.3,0.7c0,0.3,0.1,0.5,0.3,0.7
				C58.5,70.6,58.8,70.7,59.1,70.7z"/>
			<path class="st1" d="M65.9,71.1h-0.7v-2.8c0-0.4-0.1-0.6-0.3-0.8s-0.4-0.2-0.7-0.2c-0.3,0-0.5,0.1-0.7,0.2
				c-0.2,0.1-0.4,0.3-0.6,0.5v3.2h-0.7v-4.3H63v0.6c0.2-0.2,0.4-0.4,0.7-0.5c0.3-0.1,0.6-0.2,0.9-0.2c0.9,0,1.4,0.5,1.4,1.4V71.1z"
				/>
		</g>
		<g>
			<path class="st1" d="M53.2,105.3h-0.7v-6h0.7V105.3z"/>
			<path class="st1" d="M55.3,105.3h-0.7v-4.3h0.7v0.7c0.4-0.5,0.9-0.8,1.4-0.8v0.7c-0.1,0-0.2,0-0.3,0c-0.2,0-0.4,0.1-0.7,0.2
				c-0.2,0.1-0.4,0.3-0.5,0.5V105.3z"/>
			<path class="st1" d="M61,105.3h-0.7v-0.5c-0.4,0.4-0.8,0.6-1.4,0.6c-0.4,0-0.8-0.1-1.1-0.4c-0.3-0.3-0.5-0.6-0.5-1.1
				c0-0.5,0.2-0.8,0.5-1.1c0.3-0.2,0.7-0.4,1.1-0.4c0.6,0,1.1,0.2,1.4,0.6v-0.8c0-0.3-0.1-0.5-0.3-0.7s-0.5-0.2-0.8-0.2
				c-0.5,0-1,0.2-1.3,0.6l-0.3-0.5c0.5-0.5,1-0.7,1.7-0.7c0.5,0,0.9,0.1,1.2,0.4c0.3,0.2,0.5,0.6,0.5,1.1V105.3z M59.1,104.9
				c0.5,0,0.9-0.2,1.2-0.5v-0.8c-0.3-0.4-0.7-0.5-1.2-0.5c-0.3,0-0.6,0.1-0.8,0.3s-0.3,0.4-0.3,0.7c0,0.3,0.1,0.5,0.3,0.7
				S58.8,104.9,59.1,104.9z"/>
			<path class="st1" d="M65.9,105.3h-0.7v-2.8c0-0.4-0.1-0.6-0.3-0.8c-0.2-0.2-0.4-0.2-0.7-0.2c-0.3,0-0.5,0.1-0.7,0.2
				s-0.4,0.3-0.6,0.5v3.2h-0.7v-4.3H63v0.6c0.2-0.2,0.4-0.4,0.7-0.5c0.3-0.1,0.6-0.2,0.9-0.2c0.9,0,1.4,0.5,1.4,1.4V105.3z"/>
		</g>
		<g>
			<path class="st1" d="M35,138.6h-0.7v-6h2.4c0.6,0,1,0.2,1.4,0.5c0.3,0.3,0.5,0.8,0.5,1.3s-0.2,0.9-0.5,1.3
				c-0.3,0.3-0.8,0.5-1.4,0.5H35V138.6z M36.6,135.5c0.4,0,0.6-0.1,0.9-0.3c0.2-0.2,0.3-0.5,0.3-0.8s-0.1-0.6-0.3-0.8
				s-0.5-0.3-0.9-0.3H35v2.3H36.6z"/>
			<path class="st1" d="M42.7,138.6h-0.7v-0.5c-0.4,0.4-0.8,0.6-1.4,0.6c-0.4,0-0.8-0.1-1.1-0.4c-0.3-0.3-0.5-0.6-0.5-1.1
				c0-0.5,0.2-0.8,0.5-1.1c0.3-0.2,0.7-0.4,1.1-0.4c0.6,0,1.1,0.2,1.4,0.6v-0.8c0-0.3-0.1-0.5-0.3-0.7s-0.5-0.2-0.8-0.2
				c-0.5,0-1,0.2-1.3,0.6l-0.3-0.5c0.5-0.5,1-0.7,1.7-0.7c0.5,0,0.9,0.1,1.2,0.4c0.3,0.2,0.5,0.6,0.5,1.1V138.6z M40.9,138.2
				c0.5,0,0.9-0.2,1.2-0.5v-0.8c-0.3-0.4-0.7-0.5-1.2-0.5c-0.3,0-0.6,0.1-0.8,0.3s-0.3,0.4-0.3,0.7c0,0.3,0.1,0.5,0.3,0.7
				S40.6,138.2,40.9,138.2z"/>
			<path class="st1" d="M47.9,138.6h-0.9l-1.6-2l-0.7,0.7v1.2h-0.7v-6h0.7v4l2.3-2.3h0.9l-1.9,2L47.9,138.6z"/>
			<path class="st1" d="M49,133.6c-0.1,0-0.2,0-0.3-0.1c-0.1-0.1-0.1-0.2-0.1-0.3s0-0.2,0.1-0.3c0.1-0.1,0.2-0.1,0.3-0.1
				c0.1,0,0.2,0,0.3,0.1s0.1,0.2,0.1,0.3s0,0.2-0.1,0.3S49.2,133.6,49,133.6z M49.4,138.6h-0.7v-4.3h0.7V138.6z"/>
			<path class="st1" d="M52.1,138.7c-0.7,0-1.3-0.2-1.8-0.7l0.4-0.5c0.2,0.2,0.4,0.3,0.6,0.4c0.3,0.1,0.5,0.2,0.8,0.2
				c0.3,0,0.6-0.1,0.8-0.2c0.2-0.1,0.3-0.3,0.3-0.5c0-0.2-0.1-0.3-0.3-0.5s-0.4-0.2-0.7-0.3c-0.3-0.1-0.5-0.1-0.8-0.2
				c-0.3-0.1-0.5-0.2-0.7-0.4c-0.2-0.2-0.3-0.4-0.3-0.7c0-0.4,0.1-0.7,0.4-0.9c0.3-0.2,0.7-0.4,1.2-0.4c0.7,0,1.2,0.2,1.6,0.6
				l-0.3,0.5c-0.3-0.4-0.7-0.5-1.3-0.5c-0.3,0-0.5,0.1-0.7,0.2s-0.3,0.3-0.3,0.5c0,0.2,0.1,0.3,0.3,0.4c0.2,0.1,0.4,0.2,0.7,0.2
				c0.3,0.1,0.5,0.1,0.8,0.2s0.5,0.2,0.7,0.4s0.3,0.4,0.3,0.8c0,0.4-0.2,0.7-0.5,0.9C53.1,138.6,52.7,138.7,52.1,138.7z"/>
			<path class="st1" d="M56,138.7c-0.3,0-0.6-0.1-0.7-0.3s-0.2-0.4-0.2-0.8v-2.8h-0.7v-0.6h0.7v-1.2h0.7v1.2h0.9v0.6h-0.9v2.7
				c0,0.2,0,0.3,0.1,0.4c0.1,0.1,0.2,0.2,0.3,0.2c0.2,0,0.4-0.1,0.5-0.2l0.2,0.5C56.6,138.6,56.4,138.7,56,138.7z"/>
			<path class="st1" d="M61,138.6h-0.7v-0.5c-0.4,0.4-0.8,0.6-1.4,0.6c-0.4,0-0.8-0.1-1.1-0.4c-0.3-0.3-0.5-0.6-0.5-1.1
				c0-0.5,0.2-0.8,0.5-1.1c0.3-0.2,0.7-0.4,1.1-0.4c0.6,0,1.1,0.2,1.4,0.6v-0.8c0-0.3-0.1-0.5-0.3-0.7c-0.2-0.2-0.5-0.2-0.8-0.2
				c-0.5,0-1,0.2-1.3,0.6l-0.3-0.5c0.5-0.5,1-0.7,1.7-0.7c0.5,0,0.9,0.1,1.2,0.4c0.3,0.2,0.5,0.6,0.5,1.1V138.6z M59.1,138.2
				c0.5,0,0.9-0.2,1.2-0.5v-0.8c-0.3-0.4-0.7-0.5-1.2-0.5c-0.3,0-0.6,0.1-0.8,0.3S58,137,58,137.3c0,0.3,0.1,0.5,0.3,0.7
				S58.8,138.2,59.1,138.2z"/>
			<path class="st1" d="M65.9,138.6h-0.7v-2.8c0-0.4-0.1-0.6-0.3-0.8c-0.2-0.2-0.4-0.2-0.7-0.2c-0.3,0-0.5,0.1-0.7,0.2
				c-0.2,0.1-0.4,0.3-0.6,0.5v3.2h-0.7v-4.3H63v0.6c0.2-0.2,0.4-0.4,0.7-0.5c0.3-0.1,0.6-0.2,0.9-0.2c0.9,0,1.4,0.5,1.4,1.4V138.6z"
				/>
		</g>
		<g>
			<path class="st0" d="M206.1,37.8h-1.6l3.1-7h-4.3v-1.3h6v1L206.1,37.8z"/>
			<path class="st0" d="M213.5,38c-1.3,0-2.4-0.4-3.1-1.3l0.8-1c0.6,0.7,1.3,1,2.2,1c0.5,0,0.9-0.1,1.2-0.4c0.3-0.3,0.5-0.6,0.5-1
				c0-0.5-0.2-0.8-0.5-1.1c-0.3-0.3-0.7-0.4-1.2-0.4c-0.7,0-1.3,0.2-1.8,0.7l-1-0.3v-4.7h5.5v1.3h-4v2.4c0.5-0.5,1.1-0.7,1.9-0.7
				c0.7,0,1.4,0.2,1.9,0.7c0.5,0.5,0.8,1.1,0.8,2c0,0.9-0.3,1.5-0.9,2.1S214.4,38,213.5,38z"/>
			<path class="st0" d="M221,38c-1.3,0-2.4-0.4-3.1-1.3l0.8-1c0.6,0.7,1.3,1,2.2,1c0.5,0,0.9-0.1,1.2-0.4c0.3-0.3,0.5-0.6,0.5-1
				c0-0.5-0.2-0.8-0.5-1.1c-0.3-0.3-0.7-0.4-1.2-0.4c-0.7,0-1.3,0.2-1.8,0.7l-1-0.3v-4.7h5.5v1.3h-4v2.4c0.5-0.5,1.1-0.7,1.9-0.7
				c0.7,0,1.4,0.2,1.9,0.7c0.5,0.5,0.8,1.1,0.8,2c0,0.9-0.3,1.5-0.9,2.1S221.9,38,221,38z"/>
		</g>
		<g>
			<path class="st0" d="M208.8,83.6h-1.5v-1.9h-4v-1.2l3.4-5.3h2v5.2h1.1v1.3h-1.1V83.6z M207.3,80.4v-3.8l-2.5,3.8H207.3z"/>
			<path class="st0" d="M212.7,83.1c0,0.4-0.1,0.8-0.3,1.2c-0.2,0.4-0.5,0.7-0.9,0.9l-0.6-0.5c0.2-0.1,0.4-0.3,0.6-0.5
				c0.2-0.2,0.3-0.4,0.3-0.7c-0.1,0-0.1,0-0.2,0c-0.2,0-0.4-0.1-0.5-0.2c-0.1-0.1-0.2-0.3-0.2-0.6s0.1-0.4,0.2-0.6
				c0.2-0.2,0.4-0.3,0.6-0.3c0.3,0,0.5,0.1,0.7,0.3S212.7,82.8,212.7,83.1z"/>
			<path class="st0" d="M217,83.7c-0.6,0-1.1-0.1-1.6-0.3c-0.5-0.2-0.8-0.5-1.1-0.9c-0.3-0.4-0.5-0.9-0.6-1.4
				c-0.1-0.5-0.2-1.1-0.2-1.7c0-1.3,0.3-2.3,1-3.1c0.6-0.8,1.5-1.2,2.7-1.2c1,0,1.8,0.3,2.4,0.9l-0.7,1.1c-0.5-0.5-1-0.7-1.7-0.7
				c-0.7,0-1.2,0.3-1.6,0.8s-0.6,1.2-0.6,2c0,0.1,0,0.2,0,0.2c0.2-0.3,0.5-0.6,0.9-0.8s0.8-0.3,1.3-0.3c0.8,0,1.5,0.2,2,0.7
				c0.5,0.5,0.8,1.1,0.8,2c0,0.8-0.3,1.5-0.8,2C218.6,83.5,217.9,83.7,217,83.7z M216.9,82.4c0.5,0,0.9-0.1,1.2-0.4s0.5-0.6,0.5-1
				c0-0.5-0.2-0.9-0.5-1.1c-0.3-0.3-0.7-0.4-1.2-0.4c-0.3,0-0.7,0.1-1,0.3c-0.3,0.2-0.6,0.4-0.8,0.7c0,0.5,0.2,1,0.5,1.4
				C215.8,82.2,216.3,82.4,216.9,82.4z"/>
			<path class="st0" d="M224.5,83.7c-0.6,0-1.1-0.1-1.6-0.3c-0.4-0.2-0.8-0.5-1.1-0.9c-0.3-0.4-0.5-0.9-0.6-1.4
				c-0.1-0.5-0.2-1.1-0.2-1.7c0-1.3,0.3-2.3,1-3.1c0.6-0.8,1.5-1.2,2.7-1.2c1,0,1.8,0.3,2.4,0.9l-0.7,1.1c-0.5-0.5-1-0.7-1.7-0.7
				c-0.7,0-1.2,0.3-1.6,0.8s-0.6,1.2-0.6,2c0,0.1,0,0.2,0,0.2c0.2-0.3,0.5-0.6,0.9-0.8s0.8-0.3,1.3-0.3c0.8,0,1.5,0.2,2,0.7
				s0.8,1.1,0.8,2c0,0.8-0.3,1.5-0.9,2C226.1,83.5,225.4,83.7,224.5,83.7z M224.4,82.4c0.5,0,0.9-0.1,1.2-0.4c0.3-0.3,0.4-0.6,0.4-1
				c0-0.5-0.2-0.9-0.5-1.1c-0.3-0.3-0.7-0.4-1.2-0.4c-0.4,0-0.7,0.1-1,0.3c-0.3,0.2-0.6,0.4-0.8,0.7c0.1,0.5,0.2,1,0.5,1.4
				C223.4,82.2,223.8,82.4,224.4,82.4z"/>
			<path class="st0" d="M233.4,83.4c-0.4,0.2-0.9,0.4-1.5,0.4c-0.6,0-1.1-0.1-1.5-0.4c-0.4-0.2-0.8-0.6-1-1
				c-0.3-0.4-0.5-0.9-0.6-1.4s-0.2-1-0.2-1.6s0.1-1.1,0.2-1.6s0.3-1,0.6-1.4c0.3-0.4,0.6-0.7,1-1c0.4-0.2,0.9-0.4,1.5-0.4
				c0.6,0,1.1,0.1,1.5,0.4c0.4,0.2,0.8,0.6,1,1c0.3,0.4,0.5,0.9,0.6,1.4c0.1,0.5,0.2,1,0.2,1.6s-0.1,1.1-0.2,1.6
				c-0.1,0.5-0.3,1-0.6,1.4S233.8,83.1,233.4,83.4z M230.5,81.6c0.3,0.6,0.8,0.9,1.4,0.9s1.1-0.3,1.4-0.9c0.3-0.6,0.5-1.3,0.5-2.2
				c0-0.6-0.1-1.1-0.2-1.5c-0.1-0.4-0.3-0.8-0.6-1.1c-0.3-0.3-0.6-0.4-1.1-0.4c-0.4,0-0.8,0.1-1.1,0.4c-0.3,0.3-0.5,0.6-0.6,1.1
				c-0.1,0.4-0.2,0.9-0.2,1.5C230,80.3,230.2,81,230.5,81.6z"/>
		</g>
		<g>
			<path class="st0" d="M206.3,120.1c-1,0-1.8-0.3-2.4-0.9l0.7-1.1c0.5,0.5,1,0.7,1.7,0.7c0.7,0,1.3-0.3,1.6-0.8
				c0.4-0.5,0.6-1.2,0.6-1.9v-0.2c-0.2,0.3-0.5,0.6-0.9,0.8c-0.4,0.2-0.8,0.4-1.3,0.4c-0.8,0-1.5-0.2-2-0.7c-0.5-0.5-0.8-1.1-0.8-2
				c0-0.8,0.3-1.5,0.9-2c0.6-0.5,1.3-0.8,2.2-0.8c0.8,0,1.4,0.2,2,0.6s0.9,0.9,1.1,1.5s0.3,1.3,0.3,2.2c0,1.2-0.3,2.3-1,3.1
				C208.4,119.7,207.5,120.1,206.3,120.1z M206.7,115.7c0.4,0,0.7-0.1,1-0.3c0.3-0.2,0.6-0.4,0.8-0.7c0-0.5-0.2-1-0.5-1.4
				c-0.3-0.4-0.8-0.6-1.3-0.6c-0.5,0-0.9,0.2-1.2,0.5s-0.5,0.6-0.5,1c0,0.5,0.2,0.9,0.5,1.1C205.8,115.6,206.2,115.7,206.7,115.7z"
				/>
			<path class="st0" d="M214,120.1c-0.7,0-1.3-0.1-1.9-0.4c-0.5-0.2-1-0.6-1.3-1l0.8-1c0.3,0.3,0.6,0.6,1,0.7
				c0.4,0.2,0.8,0.3,1.3,0.3c0.5,0,1-0.1,1.3-0.3c0.3-0.2,0.5-0.5,0.5-0.9c0-0.8-0.6-1.2-1.8-1.2c-0.6,0-0.9,0-1,0v-1.3
				c0.1,0,0.4,0,1,0c0.5,0,0.9-0.1,1.2-0.3s0.5-0.5,0.5-0.8c0-0.4-0.2-0.7-0.5-0.9c-0.3-0.2-0.7-0.3-1.2-0.3c-0.8,0-1.5,0.3-2.2,0.9
				l-0.8-0.9c0.7-0.9,1.8-1.3,3-1.3c0.9,0,1.6,0.2,2.2,0.6c0.6,0.4,0.8,1,0.8,1.6c0,0.5-0.2,0.9-0.5,1.3c-0.4,0.3-0.8,0.5-1.3,0.6
				c0.5,0,0.9,0.2,1.3,0.6c0.4,0.4,0.6,0.8,0.6,1.4c0,0.7-0.3,1.3-0.9,1.8C215.7,119.9,214.9,120.1,214,120.1z"/>
			<path class="st0" d="M221.5,120.1c-1.3,0-2.4-0.4-3.1-1.3l0.8-1c0.6,0.7,1.3,1,2.2,1c0.5,0,0.9-0.1,1.2-0.4s0.5-0.6,0.5-1
				c0-0.5-0.2-0.8-0.5-1.1c-0.3-0.3-0.7-0.4-1.2-0.4c-0.7,0-1.3,0.2-1.8,0.7l-1-0.3v-4.7h5.5v1.3h-4v2.4c0.5-0.5,1.1-0.7,1.9-0.7
				c0.7,0,1.4,0.2,1.9,0.7s0.8,1.1,0.8,2c0,0.9-0.3,1.5-0.9,2.1C223.2,119.8,222.4,120.1,221.5,120.1z"/>
		</g>
		<g>
			<path class="st0" d="M44.1,150.2h-1.5v-6.4l-1.4,1.4l-0.8-0.9l2.4-2.4h1.3V150.2z"/>
			<path class="st0" d="M47.5,149.8c0,0.4-0.1,0.8-0.3,1.2c-0.2,0.4-0.5,0.7-0.9,0.9l-0.6-0.5c0.2-0.1,0.4-0.3,0.6-0.5
				c0.2-0.2,0.3-0.4,0.3-0.7c-0.1,0-0.1,0-0.2,0c-0.2,0-0.4-0.1-0.5-0.2c-0.1-0.1-0.2-0.3-0.2-0.6c0-0.2,0.1-0.4,0.2-0.6
				c0.2-0.2,0.4-0.3,0.6-0.3c0.3,0,0.5,0.1,0.7,0.3C47.4,149.1,47.5,149.4,47.5,149.8z"/>
			<path class="st0" d="M50.8,150.2h-1.5v-6.4l-1.4,1.4l-0.8-0.9l2.4-2.4h1.3V150.2z"/>
			<path class="st0" d="M58.4,150.2h-6v-1.1c1.7-1.3,2.9-2.3,3.6-2.9c0.6-0.6,0.9-1.2,0.9-1.8c0-0.4-0.1-0.7-0.4-0.9
				s-0.7-0.3-1.1-0.3c-0.9,0-1.7,0.3-2.2,1l-0.8-1c0.4-0.4,0.8-0.8,1.4-1s1.1-0.3,1.7-0.3c0.9,0,1.6,0.2,2.1,0.7
				c0.6,0.5,0.9,1.1,0.9,1.9c0,0.7-0.3,1.4-0.9,2.1c-0.6,0.7-1.5,1.5-2.8,2.5h3.7V150.2z"/>
			<path class="st0" d="M64.5,150c-0.4,0.2-0.9,0.4-1.5,0.4s-1.1-0.1-1.5-0.4s-0.8-0.6-1.1-1c-0.3-0.4-0.5-0.9-0.6-1.4
				s-0.2-1-0.2-1.6c0-0.5,0.1-1.1,0.2-1.6s0.3-1,0.6-1.4c0.3-0.4,0.6-0.7,1.1-1s0.9-0.4,1.5-0.4s1.1,0.1,1.5,0.4s0.8,0.6,1,1
				c0.3,0.4,0.5,0.9,0.6,1.4c0.1,0.5,0.2,1,0.2,1.6c0,0.5-0.1,1.1-0.2,1.6c-0.1,0.5-0.3,1-0.6,1.4C65.3,149.4,64.9,149.8,64.5,150z
				 M61.6,148.2c0.3,0.6,0.8,0.9,1.4,0.9s1.1-0.3,1.4-0.9c0.3-0.6,0.4-1.3,0.4-2.2c0-0.6-0.1-1.1-0.2-1.5c-0.1-0.4-0.3-0.8-0.6-1.1
				c-0.3-0.3-0.6-0.4-1.1-0.4s-0.8,0.1-1.1,0.4c-0.3,0.3-0.5,0.6-0.6,1.1c-0.1,0.4-0.2,0.9-0.2,1.5
				C61.1,146.9,61.3,147.7,61.6,148.2z"/>
		</g>
		<g>
			<path class="st0" d="M48.2,117.3c-1.3,0-2.4-0.4-3.1-1.3l0.8-1c0.6,0.7,1.3,1,2.2,1c0.5,0,0.9-0.1,1.2-0.4c0.3-0.3,0.5-0.6,0.5-1
				c0-0.4-0.2-0.8-0.5-1.1c-0.3-0.3-0.7-0.4-1.2-0.4c-0.7,0-1.3,0.2-1.8,0.7l-1-0.3v-4.7h5.5v1.3h-4v2.4c0.5-0.5,1.1-0.7,1.9-0.7
				c0.7,0,1.4,0.2,1.9,0.7s0.8,1.1,0.8,2c0,0.9-0.3,1.5-0.9,2.1C49.9,117,49.2,117.3,48.2,117.3z"/>
			<path class="st0" d="M57.9,116.7c-0.6,0.4-1.4,0.6-2.3,0.6s-1.7-0.2-2.3-0.6c-0.6-0.4-0.9-1-0.9-1.7c0-0.5,0.2-0.9,0.5-1.3
				s0.8-0.7,1.3-0.8c-0.5-0.2-0.9-0.4-1.3-0.7c-0.3-0.3-0.5-0.7-0.5-1.2c0-0.4,0.1-0.7,0.3-1c0.2-0.3,0.4-0.5,0.7-0.7
				c0.3-0.2,0.6-0.3,1-0.4s0.7-0.1,1.1-0.1s0.8,0,1.1,0.1c0.3,0.1,0.7,0.2,1,0.4c0.3,0.2,0.5,0.4,0.7,0.7c0.2,0.3,0.3,0.6,0.3,1
				c0,0.9-0.6,1.6-1.8,2c0.5,0.2,1,0.5,1.3,0.8s0.5,0.8,0.5,1.3C58.8,115.7,58.5,116.2,57.9,116.7z M55.6,116c0.5,0,0.9-0.1,1.2-0.3
				c0.3-0.2,0.5-0.5,0.5-0.9c0-0.4-0.2-0.7-0.6-0.9c-0.4-0.2-0.8-0.4-1.1-0.4c-0.2,0-0.4,0.1-0.7,0.2c-0.2,0.1-0.5,0.2-0.7,0.4
				c-0.2,0.2-0.3,0.4-0.3,0.7c0,0.4,0.2,0.6,0.5,0.9C54.7,115.8,55.1,116,55.6,116z M55.6,112.2c0.2,0,0.4-0.1,0.6-0.2
				c0.2-0.1,0.4-0.2,0.6-0.4c0.2-0.2,0.3-0.4,0.3-0.6c0-0.3-0.1-0.6-0.4-0.8c-0.3-0.2-0.7-0.3-1.1-0.3c-0.5,0-0.8,0.1-1.1,0.3
				c-0.3,0.2-0.4,0.5-0.4,0.8c0,0.2,0.1,0.5,0.3,0.6c0.2,0.2,0.4,0.3,0.6,0.4C55.2,112.1,55.4,112.2,55.6,112.2z"/>
			<path class="st0" d="M63.1,117.3c-1.3,0-2.4-0.4-3.1-1.3l0.8-1c0.6,0.7,1.3,1,2.2,1c0.5,0,0.9-0.1,1.2-0.4c0.3-0.3,0.5-0.6,0.5-1
				c0-0.4-0.2-0.8-0.5-1.1c-0.3-0.3-0.7-0.4-1.2-0.4c-0.7,0-1.3,0.2-1.8,0.7l-1-0.3v-4.7h5.5v1.3h-4v2.4c0.5-0.5,1.1-0.7,1.9-0.7
				c0.7,0,1.4,0.2,1.9,0.7s0.8,1.1,0.8,2c0,0.9-0.3,1.5-0.9,2.1C64.9,117,64.1,117.3,63.1,117.3z"/>
		</g>
		<g>
			<path class="st0" d="M37.9,83.7c-1.3,0-2.4-0.4-3.1-1.3l0.8-1c0.6,0.7,1.3,1,2.2,1c0.5,0,0.9-0.1,1.2-0.4c0.3-0.3,0.5-0.6,0.5-1
				c0-0.4-0.2-0.8-0.5-1.1s-0.7-0.4-1.2-0.4c-0.7,0-1.3,0.2-1.8,0.7l-1-0.3v-4.7h5.5v1.3h-4v2.4c0.5-0.5,1.1-0.7,1.9-0.7
				c0.7,0,1.4,0.2,1.9,0.7c0.5,0.5,0.8,1.1,0.8,2c0,0.9-0.3,1.5-0.9,2.1C39.7,83.5,38.9,83.7,37.9,83.7z"/>
			<path class="st0" d="M44.1,83.1c0,0.4-0.1,0.8-0.3,1.2c-0.2,0.4-0.5,0.7-0.9,0.9l-0.6-0.5c0.2-0.1,0.4-0.3,0.6-0.5
				c0.2-0.2,0.3-0.4,0.3-0.6c-0.1,0-0.1,0-0.2,0c-0.2,0-0.4-0.1-0.5-0.2c-0.1-0.1-0.2-0.3-0.2-0.6c0-0.2,0.1-0.4,0.2-0.6
				c0.2-0.2,0.4-0.3,0.6-0.3c0.3,0,0.5,0.1,0.7,0.3C44,82.5,44.1,82.8,44.1,83.1z"/>
			<path class="st0" d="M49.7,83.4c-0.4,0.2-0.9,0.4-1.5,0.4s-1.1-0.1-1.5-0.4s-0.8-0.6-1.1-1c-0.3-0.4-0.5-0.9-0.6-1.4
				s-0.2-1-0.2-1.6s0.1-1.1,0.2-1.6s0.3-1,0.6-1.4c0.3-0.4,0.6-0.7,1.1-1s0.9-0.4,1.5-0.4s1.1,0.1,1.5,0.4s0.8,0.6,1,1
				c0.3,0.4,0.5,0.9,0.6,1.4c0.1,0.5,0.2,1,0.2,1.6s-0.1,1.1-0.2,1.6c-0.1,0.5-0.3,1-0.6,1.4S50.2,83.1,49.7,83.4z M46.8,81.6
				c0.3,0.6,0.8,0.8,1.4,0.8s1.1-0.3,1.4-0.8c0.3-0.6,0.4-1.3,0.4-2.2c0-0.6-0.1-1.1-0.2-1.5c-0.1-0.4-0.3-0.8-0.6-1.1
				c-0.3-0.3-0.6-0.4-1.1-0.4s-0.8,0.1-1.1,0.4c-0.3,0.3-0.5,0.6-0.6,1.1c-0.1,0.4-0.2,0.9-0.2,1.5C46.4,80.3,46.5,81,46.8,81.6z"/>
			<path class="st0" d="M57.9,83.6h-1.5v-1.9h-4v-1.2l3.4-5.3h2v5.2H59v1.3h-1.1V83.6z M56.4,80.4v-3.8l-2.5,3.8H56.4z"/>
			<path class="st0" d="M63.1,83.7c-1.3,0-2.4-0.4-3.1-1.3l0.8-1c0.6,0.7,1.3,1,2.2,1c0.5,0,0.9-0.1,1.2-0.4c0.3-0.3,0.5-0.6,0.5-1
				c0-0.4-0.2-0.8-0.5-1.1c-0.3-0.3-0.7-0.4-1.2-0.4c-0.7,0-1.3,0.2-1.8,0.7l-1-0.3v-4.7h5.5v1.3h-4v2.4c0.5-0.5,1.1-0.7,1.9-0.7
				c0.7,0,1.4,0.2,1.9,0.7s0.8,1.1,0.8,2c0,0.9-0.3,1.5-0.9,2.1C64.9,83.5,64.1,83.7,63.1,83.7z"/>
		</g>
		<g>
			<path class="st0" d="M40.4,49.3H39v-6.4l-1.4,1.4l-0.8-0.9l2.4-2.4h1.3V49.3z"/>
			<path class="st0" d="M43.8,48.9c0,0.4-0.1,0.8-0.3,1.2c-0.2,0.4-0.5,0.7-0.9,0.9L42,50.5c0.2-0.1,0.4-0.3,0.6-0.5
				c0.2-0.2,0.3-0.4,0.3-0.7c-0.1,0-0.1,0-0.2,0c-0.2,0-0.4-0.1-0.5-0.2C42.1,49,42,48.8,42,48.6s0.1-0.4,0.2-0.6s0.4-0.3,0.6-0.3
				c0.3,0,0.5,0.1,0.7,0.3C43.7,48.2,43.8,48.5,43.8,48.9z"/>
			<path class="st0" d="M50.2,49.3h-1.5v-1.9h-4v-1.2l3.4-5.3h2v5.2h1.1v1.3h-1.1V49.3z M48.7,46.2v-3.9l-2.5,3.9H48.7z"/>
			<path class="st0" d="M57,49.1c-0.4,0.2-0.9,0.4-1.5,0.4s-1.1-0.1-1.5-0.4s-0.8-0.6-1.1-1c-0.3-0.4-0.5-0.9-0.6-1.4
				s-0.2-1-0.2-1.6c0-0.5,0.1-1.1,0.2-1.6s0.3-1,0.6-1.4c0.3-0.4,0.6-0.7,1.1-1s0.9-0.4,1.5-0.4s1.1,0.1,1.5,0.4s0.8,0.6,1,1
				s0.5,0.9,0.6,1.4c0.1,0.5,0.2,1,0.2,1.6c0,0.5-0.1,1.1-0.2,1.6c-0.1,0.5-0.3,1-0.6,1.4C57.8,48.5,57.4,48.9,57,49.1z M54.1,47.3
				c0.3,0.6,0.8,0.8,1.4,0.8s1.1-0.3,1.4-0.8c0.3-0.6,0.4-1.3,0.4-2.2c0-0.6-0.1-1.1-0.2-1.5c-0.1-0.4-0.3-0.8-0.6-1.1
				c-0.3-0.3-0.6-0.4-1.1-0.4s-0.8,0.1-1.1,0.4c-0.3,0.3-0.5,0.6-0.6,1.1c-0.1,0.4-0.2,0.9-0.2,1.5C53.6,46,53.8,46.8,54.1,47.3z"/>
			<path class="st0" d="M63.1,49.5c-1.3,0-2.4-0.4-3.1-1.3l0.8-1c0.6,0.7,1.3,1,2.2,1c0.5,0,0.9-0.1,1.2-0.4s0.5-0.6,0.5-1
				c0-0.5-0.2-0.8-0.5-1.1c-0.3-0.3-0.7-0.4-1.2-0.4c-0.7,0-1.3,0.2-1.8,0.7l-1-0.3V41h5.5v1.3h-4v2.4c0.5-0.5,1.1-0.7,1.9-0.7
				c0.7,0,1.4,0.2,1.9,0.7c0.5,0.5,0.8,1.1,0.8,2c0,0.9-0.3,1.5-0.9,2.1C64.9,49.2,64.1,49.5,63.1,49.5z"/>
		</g>
		<g>
			<path class="st0" d="M125,20h-1.5v-1.9h-4V17l3.4-5.3h2v5.2h1.1v1.3H125V20z M123.5,16.9V13l-2.5,3.8H123.5z"/>
			<path class="st0" d="M128.9,19.6c0,0.4-0.1,0.8-0.3,1.2c-0.2,0.4-0.5,0.7-0.9,0.9l-0.6-0.5c0.2-0.1,0.4-0.3,0.6-0.5
				c0.2-0.2,0.3-0.4,0.3-0.7c-0.1,0-0.1,0-0.2,0c-0.2,0-0.4-0.1-0.5-0.2c-0.1-0.1-0.2-0.3-0.2-0.6s0.1-0.4,0.2-0.6
				c0.2-0.2,0.4-0.3,0.6-0.3c0.3,0,0.5,0.1,0.7,0.3C128.8,18.9,128.9,19.2,128.9,19.6z"/>
			<path class="st0" d="M133.3,20.2c-1.3,0-2.4-0.4-3.1-1.3l0.8-1c0.6,0.7,1.3,1,2.2,1c0.5,0,0.9-0.1,1.2-0.4s0.5-0.6,0.5-1
				c0-0.5-0.2-0.8-0.5-1.1s-0.7-0.4-1.2-0.4c-0.7,0-1.3,0.2-1.8,0.7l-1-0.3v-4.7h5.5V13h-4v2.4c0.5-0.5,1.1-0.7,1.9-0.7
				c0.7,0,1.4,0.2,1.9,0.7c0.5,0.5,0.8,1.1,0.8,2c0,0.9-0.3,1.5-0.9,2.1C135,19.9,134.2,20.2,133.3,20.2z"/>
			<path class="st0" d="M142.8,20h-1.5v-1.9h-4V17l3.4-5.3h2v5.2h1.1v1.3h-1.1V20z M141.3,16.9V13l-2.5,3.8H141.3z"/>
			<path class="st0" d="M149.6,19.8c-0.4,0.2-0.9,0.4-1.5,0.4s-1.1-0.1-1.5-0.4s-0.8-0.6-1.1-1c-0.3-0.4-0.5-0.9-0.6-1.4
				s-0.2-1-0.2-1.6s0.1-1.1,0.2-1.6s0.3-1,0.6-1.4c0.3-0.4,0.6-0.7,1.1-1s0.9-0.4,1.5-0.4s1.1,0.1,1.5,0.4s0.8,0.6,1,1
				c0.3,0.4,0.5,0.9,0.6,1.4c0.1,0.5,0.2,1,0.2,1.6s-0.1,1.1-0.2,1.6c-0.1,0.5-0.3,1-0.6,1.4S150,19.6,149.6,19.8z M146.7,18
				c0.3,0.6,0.8,0.9,1.4,0.9s1.1-0.3,1.4-0.9c0.3-0.6,0.4-1.3,0.4-2.2c0-0.6-0.1-1.1-0.2-1.5c-0.1-0.4-0.3-0.8-0.6-1.1
				c-0.3-0.3-0.6-0.4-1.1-0.4s-0.8,0.1-1.1,0.4c-0.3,0.3-0.5,0.6-0.6,1.1c-0.1,0.4-0.2,0.9-0.2,1.5C146.2,16.8,146.4,17.5,146.7,18z
				"/>
		</g>
		<g>
			<g>
				<path class="st2" d="M196.5,33c-18.3,0-30.5,11.2-38,26.3"/>
				<g>
					<path class="st3" d="M158.6,59c1.1-0.4,2.6,0,3.6,0.4c-1.8,0.3-3.5,1-4.9,2.2c0.1-1.8-0.5-3.6-1.2-5.3
						C157.1,57.1,158.2,57.9,158.6,59z"/>
				</g>
			</g>
		</g>
		<g>
			<g>
				<path class="st4" d="M196.5,70.1c-18.3,0-30.5,11.2-38,26.3"/>
				<g>
					<path class="st3" d="M158.8,95.8c2.6-0.9,6.5,0,8.9,1.1c-4.4,0.8-8.7,2.5-12.2,5.5c0.4-4.5-1.1-9-3-13
						C155,90.8,157.8,93,158.8,95.8z"/>
				</g>
			</g>
		</g>
		<g>
			<g>
				<path class="st5" d="M197.6,109.5c-14.7,10.9-41.1,12-53.9,3.9"/>
				<g>
					<path class="st3" d="M144,113.6c0.3,1.3-0.3,3.2-1,4.4c-0.2-2.2-0.8-4.5-2.1-6.4c2.2,0.4,4.5-0.1,6.7-0.8
						C146.6,112,145.4,113.2,144,113.6z"/>
				</g>
			</g>
		</g>
		<g>
			<g>
				<path class="st6" d="M77.4,174.1c18.3-0.3,41.8-6,49.3-25.2"/>
				<g>
					<path class="st3" d="M125.7,151.4c-9.4,4.1-24,2.1-33.4-1.2c16.1-4.4,31.6-12.2,43.4-24.5c0.2,16.9,7.2,32.9,15.4,47.4
						C141.5,168.5,130.3,161.4,125.7,151.4z"/>
				</g>
			</g>
		</g>
		<g>
			<g>
				<path class="st7" d="M196.6,148.3c-17.6,1-29.1,0.5-41.1-9.5"/>
				<g>
					<path class="st3" d="M155.8,139.1c0.1,1.3-0.7,3-1.5,4c0.1-2.1-0.2-4.3-1.2-6.2c2,0.7,4.2,0.4,6.3,0
						C158.4,137.9,157.1,138.9,155.8,139.1z"/>
				</g>
			</g>
		</g>
		<g>
			<g>
				<path class="st8" d="M74.1,36.6c18.3,0,35.1,10.1,43.3,33.5"/>
				<g>
					<path class="st3" d="M117.3,69.9c0.4-0.7,1.4-1.4,2.1-1.7c-0.8,1.1-1.3,2.4-1.4,3.8c-0.9-1-2.2-1.6-3.4-2.1
						C115.4,69.7,116.5,69.5,117.3,69.9z"/>
				</g>
			</g>
		</g>
		<g>
			<g>
				<path class="st9" d="M74.1,140.4c7.5-9.8,25.8-15.6,40.3-10.1"/>
				<g>
					<path class="st3" d="M114.2,130.2c-0.3-0.8-0.2-1.9,0.1-2.7c0.4,1.3,1,2.5,2,3.5c-1.4,0-2.6,0.6-3.8,1.3
						C112.8,131.5,113.4,130.6,114.2,130.2z"/>
				</g>
			</g>
		</g>
		<g>
			<g>
				<path class="st10" d="M72.3,73.3c14.7-3.6,27.1,1.2,37.1,10.3"/>
				<g>
					<path class="st3" d="M108.8,83c-0.2-3.4,2.1-7.6,4.3-10.1c-0.5,5.4,0.1,11.1,2.4,16.1c-5.2-1.9-10.9-1.6-16.3-0.8
						C101.7,85.8,105.2,83.3,108.8,83z"/>
				</g>
			</g>
		</g>
		<g>
			<g>
				<path class="st11" d="M75,108.9c11-8.1,23-9.2,34.7-6"/>
				<g>
					<path class="st3" d="M109.5,102.9c-0.4-0.8-0.4-2-0.2-2.8c0.5,1.3,1.3,2.5,2.4,3.4c-1.4,0.2-2.7,0.9-3.8,1.7
						C108.2,104.4,108.7,103.4,109.5,102.9z"/>
				</g>
			</g>
		</g>
		<g>
			<g>
				<line class="st12" x1="135.6" y1="24.7" x2="135.6" y2="53.9"/>
				<g>
					<path class="st3" d="M135.6,53.1c2.1-2.1,6.4-3.2,9.3-3.2c-3.9,2.9-7.4,6.7-9.3,11.3c-1.8-4.6-5.5-8.2-9.3-11.3
						C129.4,50.1,133.2,50.9,135.6,53.1z"/>
				</g>
			</g>
		</g>
		<g>
			<path class="st0" d="M209,158.9c-0.6,0.4-1.4,0.6-2.3,0.6s-1.7-0.2-2.3-0.6c-0.6-0.4-0.9-1-0.9-1.7c0-0.5,0.2-0.9,0.5-1.3
				s0.8-0.7,1.3-0.8c-0.5-0.2-0.9-0.4-1.3-0.7c-0.3-0.3-0.5-0.7-0.5-1.2c0-0.4,0.1-0.7,0.3-1c0.2-0.3,0.4-0.5,0.7-0.7
				c0.3-0.2,0.6-0.3,1-0.4s0.7-0.1,1.1-0.1s0.8,0,1.1,0.1c0.3,0.1,0.7,0.2,1,0.4c0.3,0.2,0.5,0.4,0.7,0.7c0.2,0.3,0.3,0.6,0.3,1
				c0,0.9-0.6,1.6-1.8,2c0.5,0.2,1,0.5,1.3,0.8s0.5,0.8,0.5,1.3C209.9,157.9,209.6,158.5,209,158.9z M206.7,158.2
				c0.5,0,0.9-0.1,1.2-0.3c0.3-0.2,0.5-0.5,0.5-0.9c0-0.4-0.2-0.7-0.6-0.9c-0.4-0.2-0.8-0.4-1.1-0.4c-0.2,0-0.4,0.1-0.7,0.2
				c-0.2,0.1-0.5,0.2-0.7,0.4c-0.2,0.2-0.3,0.4-0.3,0.7c0,0.4,0.2,0.6,0.5,0.9C205.8,158.1,206.2,158.2,206.7,158.2z M206.7,154.5
				c0.2,0,0.4-0.1,0.6-0.2c0.2-0.1,0.4-0.2,0.6-0.4c0.2-0.2,0.3-0.4,0.3-0.6c0-0.3-0.1-0.6-0.4-0.8c-0.3-0.2-0.7-0.3-1.1-0.3
				c-0.5,0-0.8,0.1-1.1,0.3c-0.3,0.2-0.4,0.5-0.4,0.8c0,0.2,0.1,0.5,0.3,0.6c0.2,0.2,0.4,0.3,0.6,0.4
				C206.3,154.4,206.5,154.4,206.7,154.5z"/>
			<path class="st0" d="M215.8,159.1c-0.4,0.2-0.9,0.4-1.5,0.4c-0.6,0-1.1-0.1-1.5-0.4c-0.4-0.2-0.8-0.6-1-1
				c-0.3-0.4-0.5-0.9-0.6-1.4s-0.2-1-0.2-1.6s0.1-1.1,0.2-1.6s0.3-1,0.6-1.4c0.3-0.4,0.6-0.7,1-1c0.4-0.2,0.9-0.4,1.5-0.4
				c0.6,0,1.1,0.1,1.5,0.4c0.4,0.2,0.8,0.6,1,1c0.3,0.4,0.5,0.9,0.6,1.4c0.1,0.5,0.2,1,0.2,1.6s-0.1,1.1-0.2,1.6
				c-0.1,0.5-0.3,1-0.6,1.4S216.2,158.9,215.8,159.1z M212.9,157.4c0.3,0.6,0.8,0.8,1.4,0.8s1.1-0.3,1.4-0.8
				c0.3-0.6,0.5-1.3,0.5-2.2c0-0.6-0.1-1.1-0.2-1.5c-0.1-0.4-0.3-0.8-0.6-1.1c-0.3-0.3-0.6-0.4-1.1-0.4c-0.4,0-0.8,0.1-1.1,0.4
				c-0.3,0.3-0.5,0.6-0.6,1.1c-0.1,0.4-0.2,0.9-0.2,1.5C212.4,156.1,212.6,156.8,212.9,157.4z"/>
			<path class="st0" d="M223.5,159.1c-0.4,0.2-0.9,0.4-1.5,0.4s-1.1-0.1-1.5-0.4s-0.8-0.6-1.1-1c-0.3-0.4-0.5-0.9-0.6-1.4
				s-0.2-1-0.2-1.6s0.1-1.1,0.2-1.6s0.3-1,0.6-1.4c0.3-0.4,0.6-0.7,1.1-1s0.9-0.4,1.5-0.4s1.1,0.1,1.5,0.4s0.8,0.6,1,1
				c0.3,0.4,0.5,0.9,0.6,1.4c0.1,0.5,0.2,1,0.2,1.6s-0.1,1.1-0.2,1.6c-0.1,0.5-0.3,1-0.6,1.4S223.9,158.9,223.5,159.1z M220.6,157.4
				c0.3,0.6,0.8,0.8,1.4,0.8s1.1-0.3,1.4-0.8c0.3-0.6,0.4-1.3,0.4-2.2c0-0.6-0.1-1.1-0.2-1.5c-0.1-0.4-0.3-0.8-0.6-1.1
				c-0.3-0.3-0.6-0.4-1.1-0.4s-0.8,0.1-1.1,0.4c-0.3,0.3-0.5,0.6-0.6,1.1c-0.1,0.4-0.2,0.9-0.2,1.5
				C220.1,156.1,220.3,156.8,220.6,157.4z"/>
		</g>
	</g>
</g>
</svg>
