<?xml version="1.0" encoding="utf-8"?>
<!-- Generator: Adobe Illustrator 19.2.0, SVG Export Plug-In . SVG Version: 6.00 Build 0)  -->
<svg version="1.1" id="Layer_1" xmlns="http://www.w3.org/2000/svg" xmlns:xlink="http://www.w3.org/1999/xlink" x="0px" y="0px"
	 viewBox="0 0 266.2 188.3" style="enable-background:new 0 0 266.2 188.3;" xml:space="preserve">
<style type="text/css">
	.st0{fill:#0D92FF;}
	.st1{fill:#787878;}
	.st2{fill:none;stroke:#00325C;stroke-width:0.56;stroke-miterlimit:10;}
	.st3{fill:#00325C;}
	.st4{fill:none;stroke:#00325C;stroke-width:1.745;stroke-miterlimit:10;}
	.st5{fill:none;stroke:#00325C;stroke-width:1.915;stroke-miterlimit:10;}
	.st6{fill:none;stroke:#00325C;stroke-width:4.55;stroke-miterlimit:3;}
	.st7{fill:none;stroke:#00325C;stroke-width:6.92;stroke-miterlimit:10;}
	.st8{fill:none;stroke:#00325C;stroke-width:0.405;stroke-miterlimit:10;}
	.st9{fill:none;stroke:#00325C;stroke-width:0.345;stroke-miterlimit:10;}
	.st10{fill:none;stroke:#00325C;stroke-width:1.07;stroke-miterlimit:10;}
	.st11{fill:none;stroke:#00325C;stroke-width:0.215;stroke-miterlimit:10;}
	.st12{fill:none;stroke:#00325C;stroke-width:1.04;stroke-linecap:round;stroke-linejoin:round;}
</style>
<g>
	<path class="st0" d="M116.1,52.2L116.1,52.2l-0.2,0.1l0,0.1l0,0.1l0,0.1l0,0.1l0.1,0.2l0.1,0l0-0.1l0-0.1l0-0.1l0-0.1l-0.1,0l0-0.1
		l0-0.1L116.1,52.2L116.1,52.2z M98,59.9l0.2,0.1l0.3-0.3l0-0.1l-0.2-0.1l-0.2,0l-0.1,0.1l0,0l0,0.1l0,0.2L98,59.9z M143.5,54.1
		l0.2,0l0.1-0.1l0-0.2l0.1-0.1h0.1l0,0.2l-0.1,0.3l0,0.1l0.1,0l0.1-0.2l0.3-0.9l-0.3-0.1l-0.4,0.1l-0.4,0.3l-0.2,0.4l0.2,0.1
		L143.5,54.1z M144.8,52.6l0.1-0.3l0.5-0.4l0.2-0.2l-0.1,0.1l-0.7,0.3l-0.1,0.1l0,0L144.8,52.6L144.8,52.6z M115.5,44.3l-0.2,0.1
		l-0.1,0.3l0.1,0.2l0.1,0.1l0.2,0l0.3-0.2l0.2-0.4l0.1-0.4l0-0.2l-0.6,0.3L115.5,44.3L115.5,44.3z M102.2,58.4l0.5-0.2h0l0,0l0-0.1
		l-1.1,0l-0.5,0.1l-0.5,0.3l0.4,0.1L102.2,58.4z M110.6,58.3L110.6,58.3l0.1,0.1l0,0l0.2-0.2l0.1,0h0.1L111,58l-0.2,0l-0.2,0.1
		l-0.1,0.2v0.1L110.6,58.3L110.6,58.3z M108,57.1l0.2,0l0.4,0.1l0.1,0l0.1,0l-0.3-0.2l-0.2,0l-0.2,0l-0.2,0l-0.2,0.1l0,0.1l0.2,0.1
		L108,57.1z M99.7,58.7l-1.4,0.2l-0.4,0.2l2.1-0.2L99.7,58.7z M103.4,58.3L103.4,58.3l0.1-0.1l0-0.1l-0.1-0.1l-0.2,0l-0.2,0
		l-0.2,0.1l0.1,0L103.4,58.3z M104,58.2l0.3,0l0-0.3l0.3-0.1l0.7,0l0,0l0,0l0,0l0-0.1l-0.2-0.1l-0.9,0l-0.3,0l-0.1,0.1l-0.1,0.2
		L104,58.2L104,58.2z M106,57.6L106,57.6l0.2-0.2l0.2,0.2l0.3,0l0.3-0.1l0.2-0.1h0.1v-0.1l-0.9-0.1l-0.4,0.1l-0.3,0.3L106,57.6
		L106,57.6z M112.8,41.3L112.8,41.3L112.8,41.3L112.8,41.3l0.1-0.1l-0.2,0.1l-0.2,0.2l-0.3,0.6l0.2,0.3l0.2,0.3l0.2,0.2l0.3-0.1
		l0.1-0.1l-0.2-0.1l-0.5-0.9l0.1-0.1L112.8,41.3z M117.4,45.3l0.1,0.2l0.2,0.1l0.4,0l0.2-0.1l0.1-0.2l0.1-0.2l0.2-0.2l0-0.1l0-0.1
		l0-0.1l0,0l-0.4-0.1l-0.4,0l-0.4,0.2l-0.3,0.3l0.1,0.1l0,0.1l0,0.1L117.4,45.3z M161.1,43.4L161.1,43.4L161.1,43.4L161.1,43.4z
		 M160.2,45.1l0-0.2l0-0.2l0.1-0.1l0.1-0.1l0.1-0.1l0.1-0.4l0-0.3l0.1-0.3l0.2-0.2v0.4h0.1v-0.2l0,0l0,0l0,0v-0.2l-0.1-0.1l-0.1,0
		l-0.1,0l-0.2,0l-0.1,0.1l-0.1,0.4l-0.3,1.1l0,0.4v0.2h0.1L160.2,45.1z M167.1,50.9l0.1,0.2l0.4,0.4l0.1,0.3l-0.1,0.4l-0.3,0.6
		l-0.1,0.3l0.2,0.1l0.1-0.1l0.1-0.2l0.3-0.1l0.1-0.1l0.1,0l0.1,0.2l0,0.1l-0.1,0.1l-0.1,0.1l0,0.2l0.3-0.1l0.1,0l0-0.1l0.1-0.1
		l0.1-0.1l0.1,0v-0.1l-0.1-0.2l0.1-0.1l0.2,0l0.2,0l0.2,0.1l0.1,0.2l0.1,0.2l0.1,0.3l0.2-0.1l0.1,0.3l0,0.5l-0.1,0.4l0.1,0.2
		l-0.3-0.1l0-0.1l0-0.1l0,0l0.1,0l-0.4,0l-0.1,0.1l-0.2,0.3l0-0.3l0.1-0.3l0-0.1l0.1-0.1l-0.2-0.1l-0.5,0l0,0.4l0.4,0.7l-0.1,0.5
		l-0.1,0.1l-0.3,0.2l-0.3,0.1l-0.2,0.2l-0.1,0l0.2,0.3l0.4,0.1l0.6,0l0.6-0.2l0.3-0.2l0.2-0.3l0.2,0.1l0.2,0l1.1-0.1l-0.1-0.3
		l-0.2-0.2l0.1,0l0.1-0.1l0.2-0.5l-0.2-0.1l-1.8-1.9l-0.3-0.2l-0.4-0.1l-0.7-0.4l-0.3-0.3l-0.1-0.2l-0.2-0.6l-0.1-0.2l-0.2-0.1
		l-0.2,0.1l-0.2,0.2L167.1,50.9z M96,60.7l0.2,0.1l0.1,0l0.1-0.1l0.1,0l0.1,0l0.1,0.2l0.1,0.1l-0.1-0.2l-0.1-0.1l-0.1-0.1l-0.1,0
		v-0.1l0.2,0l0.3-0.2l0.2,0L97,60l-0.4,0l-0.8,0.2l-0.1,0.1l0,0.2L96,60.7z M114.1,41.7l0.3-0.1l0.1,0.1l0.2,0.1l0.2,0l0.1,0
		l0.1-0.1l0.1-0.3l0.1-0.1V41l-0.2-0.3l-0.2-0.1l-0.6,0l-0.3,0l-0.3,0.1l-0.2,0.2l-0.2,0.4l0.6,0.4L114.1,41.7z M112.1,40.7
		L112.1,40.7l0.1-0.3l0-0.3l0-0.9l0-0.1l0-0.3l0-0.1l0.1-0.1l0.3-0.2l0.1,0l0.1,0l0.1,0l0.1,0.2l0.1,0h0.7l0.2,0l0.3-0.2l0.2-0.1
		l1.3,0.1l0.3-0.2l-2.2,0.1l-0.5-0.1l-0.3-0.3l0.1-0.6l-0.1-0.3l0.1-0.4l0.2-0.3l0.4-0.2l0.1-0.2l-0.1-0.2l-0.3,0l0.1-0.1l0.6,0
		l-0.5-0.3l-0.4,0.5l-0.8,2.1l-0.1,0.4L112,40l0,0.5L112.1,40.7z M139.6,45.6L139.6,45.6L139.6,45.6l0.1,0.2h0.1l0.1-0.1l0.1,0
		l0.3,0l0.1,0.1l0,0.1l0,0.4l0.1,0.1l0.3,0l0.4,0l0,0l0-0.1l0.2-0.1l1.3,0.2l-0.6-1.1l-0.2-0.3l-0.1-0.1l-0.3-0.2l-0.9-0.4l-0.5,0.1
		l-0.4,0.4l-0.3,0.7l0,0.2L139.6,45.6z M162.5,44.6l0-0.1l-0.1-0.2l-0.1-0.1l-0.1,0l-0.1-0.1l-0.2,0l-0.8,0.1l-0.2,0.1h0.1l0.1,0
		l0,0.1l0,0.2l0,0.1l0,0l0,0l0,0.1l0.1,0.1l0.2,0l0.3-0.1l0,0.1l0,0.1l0,0l0,0l0.1,0.2l0.1,0.1l0.3,0.1l-0.1,0.1l-0.1,0l0,0v0.1
		l-0.2,0l-0.3,0.2l-0.3,0.1l-0.1,0.1l-0.2,0.4l0.4-0.1l0.1,0l0.1,0.1l0.1,0.1l0.1,0v0.1l0,0.2l0.1,0.2l0.1,0.1l0.2,0l-0.3,0.2
		l-0.1,0l-0.1-0.1l-0.1,0.1l-0.3-0.2l-0.3,0.1l-0.2,0.3l-0.1,0.4l0.6,0.5v0.1l-0.2-0.1l-0.1,0.1l-0.1,0.1l0.1,0.1l0.1,0l0.3-0.2
		l0.1,0l-0.1,0.2l0.1,0.1l0.2,0.1l0.1,0L162,49l0.1,0.1l0.1,0.1l0.1,0l0.1-0.1l0.1,0l0.2,0l0-0.1l0,0l0.1-0.1l0.1-0.1l0.1-0.1
		l-0.1,0.3l-0.1,0.2l-0.1,0.1l0.4,0.2l0.3,0.1l0.3,0l0.2-0.1l0-0.2l-0.1-0.4l-0.1,0l-0.5,0.1l0,0h0l0,0l0,0.1l-0.1,0.1l0-0.5
		l0.2-0.1l0.2-0.1l0.1-0.3l0.1-0.2l0.5-0.5l0.2-0.1l1-0.1l0.1,0.1l0.1,0.1l0.1,0l0.1-0.2l0.1-0.1l0.1,0l0.3,0v0.1l-0.2,0.1l-0.6,0.4
		l0.2-0.1l0.2-0.1l0.5,0l-0.1,0.2l-0.2,0.1l-0.4,0.2v0.1l0.1,0.1h0.2l0.2-0.1l0.1-0.1h0.1l0,0.2l0,0.1l-0.1,0.1h-0.1l0.2,0.1l0.1,0
		l0-0.1v-0.3l0-0.3l0.1-0.2l0.1-0.2l0.1-0.1l-0.2-0.1l-0.2-0.2l-0.3-0.5l-0.2-0.1l-0.5-0.1l-0.2-0.1l-0.1-0.2l-0.1-0.3l-0.1-0.3
		l0-0.3l0.1-0.3l0.2-0.2l0.4-0.3l0.3-0.4l-0.1-0.4l-0.3-0.3l-0.5-0.1l-1.3,0.3l-0.4-0.1l-0.2-0.1l-0.1-0.2l-0.1-0.2l0-0.3l0.1-0.2
		l0.2-0.2l0.2-0.1l0.2-0.1v-0.1l-0.3-0.1l-0.3,0l-1.4,0.4l-0.1,0.1l-0.1,0.1l-0.1,0.1l0,0.2l0.1,0l0.1-0.1l0.4-0.1l0,0.1l0,0.2
		l0,0.2l0,0.1l-0.1,0.1l-0.1,0.3l-0.1,0.3l0,0.2l0.2,0.1l0.2-0.1l0.2-0.2l0.2-0.1l0.2-0.2l0.1-0.1l0.1-0.1l0,0.1l0.1,0.2l0.1,0.1
		l0,0.1l0.1,0.1l0.2,0l0.1,0.1l0.1,0.1l0.1,0.1l0.1,0.1l0.3,0l0.1,0l0.1-0.1l0.1-0.1l0.1-0.1l0.1,0v0.1l-0.1,0l0,0l0,0l-0.1,0v0.1
		l0.1,0.1l0.1,0.1l0.1,0.2v0.1l-0.1,0.1l0,0.1l-0.1,0.2l0.1,0.1l-0.5,0l-0.2-0.1l-0.2-0.3l0.1-0.3l-0.1-0.2l-0.2-0.2l-0.1-0.2
		l-0.1,0.1v0.1l0.1,0l0.1,0.1l0.1,0l-0.1,0.2l-0.1,0.1l-0.1,0l-0.1,0l0.1-0.3l0.1-0.1l0-0.1l0,0l-0.1,0H163l0.1-0.1l0.1-0.2l0.1-0.4
		l-0.2,0.1l-0.2,0.1l-0.2,0.2l-0.1,0.2l0.1,0.3L162.5,44.6L162.5,44.6z M179.8,99.2L179.8,99.2l0-0.5l-0.1-0.3l-0.2-0.3l-0.2-0.3
		l0-0.1l0-0.3v0l-0.1-1.1l0.1-0.2l-0.1-0.2l-0.2-0.2l-0.2-0.1l-0.2-0.1l-0.5-0.1l-0.2-0.1v0l-0.2-0.2l-0.7-0.2l-0.2-0.2l-0.1-0.3
		l0.1-0.3l0.2-0.3l0.1-0.3l0-0.4l-0.1-0.4l-0.1-0.3l-0.5-0.4l-0.2-0.3L176,91l0-0.4l-0.1-0.2l-0.2-0.1l-0.2-0.3l0-0.3l0.1-0.3
		l0.6-0.6l0.2-0.2l0.2-0.3l0.1-0.3l0-1l0.1-0.2l0.2-0.4l0-0.2l0-0.1l0-0.1l0.1-0.1l0.2-0.2l-0.7-0.5l-0.1-0.2l0.1-0.4l0.1-0.3l0-0.2
		l-0.1-0.2v-0.1l0.2-0.3l0-0.3l-0.2-0.3l-0.3-0.1l-0.3-0.1l-0.3-0.2l-0.2-0.3l0.1-0.3l-0.2-0.5l-0.2-0.7L175,80l0.5-0.5l0.2-0.4
		l0.2-0.4l0-0.2l-0.2-0.2l0.1-0.4l0.3-0.6l-0.3-0.3l-0.6-0.7l-0.6-0.2l-0.3-0.4l-0.2-0.1l-0.1-0.1l-0.3-0.7l-0.2-0.2l-1.1-0.8
		l-0.3-0.1l-0.3-0.4l-0.2-0.1l-0.2,0l-0.2-0.1l-0.2-0.1l-0.1-0.2l0.3-0.2l0.1-0.2l0-0.3l0-0.2l-0.1-0.6l-0.1-0.2v-0.1l0.5-0.4
		l0.6-0.3l0.6-0.5l0.3-0.3l0.1-0.3l0-0.1l0.3-0.9l0-0.2l-0.1-0.2l0-0.3l0-0.2l0.1-0.2l0.1-0.1l0.1-0.1l0.1-0.1l0.3-0.5l-0.1-0.1
		l0-0.1l-0.2-0.1l-0.1-0.1l0-0.2l0-0.3l0-0.1l-0.3-1.3l-0.1-0.9l-0.2-0.4l-0.1-0.4l-0.2-0.4l-0.1-0.3l0-0.4l0-0.6l0-0.2l-0.2-0.7
		l-0.2-0.3l0-0.3l0-0.5l-0.1,0l-0.2,0l-0.1-0.1l-0.1-0.1l0.5-0.3l0,0l0.1-0.1l0-0.3l0,0l-0.1-0.1l-0.2,0l-0.1,0.1l-0.1,0.2l-0.3,0.1
		l-0.8-0.1l-0.1,0l-0.2-0.2l-0.1,0l-0.2,0l0,0l-0.2-0.2l-0.3-0.1l-0.7-0.6l-0.1,0l-0.2-0.1l-0.1-0.2l-0.1-0.2l-0.1-0.1l-0.2,0
		l-0.2-0.1l-0.1-0.2l0.1-0.2l0.7-0.6l0.1-0.2l0.1-0.2l0-0.2l-0.1-0.1l-0.1,0l-0.1,0l-0.1,0l-0.1,0l0,0l-0.1,0l0,0l0-0.1l0-0.1l0-0.1
		l0-0.1l0-0.1l0-0.1l-0.1,0l-0.3-0.1l-0.1,0l-0.1-0.2l-0.3-0.4l-0.1-0.1l0.3-0.2l0.1-0.3l0.1-0.3l0.1-0.3v-0.1l-0.8-0.7l-0.3-0.2
		v-0.1l0.1,0l0.1-0.1l0-0.1l0-0.1l-0.3,0.1l-0.5,0.3l-0.3,0.1l-1.2,0.2v0.1l0.1,0.1l0.1,0.2l0.1,0.1V52l-0.2,0l-0.2-0.1l-0.1-0.2
		l-0.1-0.3l-0.1-0.4l-0.1-0.1l-0.1,0l-0.1,0.1l-0.1,0l-0.1-0.1l0.1-0.1l0-0.1l0.1-0.2l-0.2-0.1l-0.4,0.2l-0.3,0l0.1-0.1l0.2-0.1
		l-0.3-0.2l-0.3-0.7l-0.3-0.1l-0.3-0.1l-0.5-0.3l-0.3,0l0.1-0.1l0.1,0l0.1,0v-0.1h-0.4l-0.1-0.1l0-0.1v-0.2l0-0.2l-0.3-0.5l0-0.3
		l0.2-0.3l-0.1-0.1l-0.4-0.2l-0.1-0.2l-0.1-0.2l0-0.2l0.1-0.1l-0.3-0.1l-0.4,0.1l-0.4,0.3l-0.3,0.3l-0.1,0.2l-0.1,0.3l-0.1,0.1
		l-0.1,0.1l-0.1,0l-0.2,0l-0.1,0l0,0l0,0l-0.2-0.2l-0.1-0.1l0-0.1l0-0.1l-0.1,0.1l-0.1,0.1l-0.1,0l-0.1-0.1l-0.1,0.1l-0.1-0.1
		l-0.1-0.2l-0.1-0.2l0,0.1l0,0.1l-0.1,0.2l0-0.2l0.1-0.2l0.1-0.1l0.1,0v-0.1l-0.1,0l-0.1,0l-0.1,0l-0.1,0.1l0,0.1l0,0.1l0,0.1
		l-0.5,0.3l-0.3,0.1l-0.2-0.2v0.1l-0.1-0.1l-0.1,0l-0.2,0.1v0.1l0.1,0l0.1,0.1l-0.7,0.3l-0.2,0.1l0,0.1l0,0.2l0,0.1l0,0l-0.1,0
		l-0.1,0l-0.3,0.2l-0.1,0.1l-0.1,0.2l0.2,0.2l0.1,0.1l0.2,0l-0.2,0.1l-0.2-0.1l-0.4-0.3l0.1-0.1l0-0.2l-0.1-0.2l-0.1-0.2l0.2,0
		l0.1-0.2l0-0.2l-0.1-0.2l0.1-0.1l0.1,0.1l0.1,0l0.1,0l-0.1-0.3l0.1-0.3l0.1-0.2l0.2-0.1l0.4,0l0.2,0.1l0.2,0.2l0.1-0.2l0.2-0.1
		l0.2,0l0.2,0.1l0-0.1l0,0h0l0,0l-0.1,0l-0.1,0l0-0.1l0-0.1l0.1,0l0.1-0.1l0.1,0l0.1,0.1l0.1-0.2l0.1-0.1l0.3,0.1h0.2l0.1,0l0.1-0.2
		l0.1,0l0.3,0l0.4,0.2l1.1,0.1l0.3-0.1l0.2-0.2l-0.1-0.2l-0.3-0.1l-0.2,0.1l-0.4-0.2h-2.3l-0.4-0.2l-0.2-0.3h0.1v-0.1l-0.2,0.1
		l-0.1,0.2l-0.2,0.5l-0.4,0.7l-0.1,0.2l-0.6,0.9l-0.4,0.7l-0.1,0.2l-0.4,0.3l-0.8,0.4l-0.1,0l-0.1,0.1l-0.2,0.4l-0.2,0.2l-0.3,0.4
		l-0.1,0.2l0.1-0.1l0.1,0l0.1,0l0.1,0l-0.1,0.2l-0.3,0.2l-0.1,0.2l0.1,0.2l0,0.4l0.1,0.2l-0.2-0.3l0-0.4l0-0.5l-0.1-0.5l-0.4,0.2
		l-2.4,0.5l-0.8-0.1l-0.4,0.1l-0.3,0.2l-0.2,0.4l0,0l0,0.1l0,0.1v0.1l0.1,0.1l0,0.1l0,0.1l-0.1,0.1l-0.1,0.1l-0.1,0l-0.1,0.1
		l-0.2,0.5L145,53l-0.1,0l-0.3-0.1V53h0.1v0.1l-0.3,0.3l0,0.1l0,0.2l0,0.1l-0.1,0l-0.1,0.1l-0.1,0.1l0,0.3l-0.1,0.3l-0.1,0.3l0,0.2
		h-0.1l-0.1-0.1l-0.4-0.5l0-0.1H143l-0.1-0.1l-0.1-0.2l-0.1-0.1l-0.4,0.3l-0.1,0l-0.3,0l-0.1-0.1l0-0.2l0-0.4l-0.1-0.1l-0.4-0.1
		l-0.1-0.1l-0.1-0.2l-0.1-0.1l-0.1,0l-1.2,0.2l-0.5,0.3l-0.2,0l-0.2,0.1l-0.3,0.3l-0.1,0.1l-0.1,0l-0.2,0l-0.2,0l0-0.2l0-0.2
		l-0.1-0.2l-0.1,0l-0.4,0l-0.3-0.1l-0.2-0.2l-0.1-0.2l-0.1-0.3v-0.1l0.1-0.1l0.4-0.6l0,0l0.1-0.1l0.1,0l0.1,0.1l0.1,0l0.1-0.1l0.1,0
		l0.4-0.1l0.2-0.1l0.4-0.5l1.2-0.8l0-0.2l0.1-0.1l0.1-0.2l0-0.3l-0.1-0.5l0-0.3l0.1-0.2l-0.1-0.3l-0.1-0.7l-0.1-0.3l0.2,0.1l0.1,0
		l0.1-0.2l0.4-0.4l-0.3-0.1l-0.7,0.4l-0.2-0.2l-0.2,0.1l-0.2-0.1l0.3,0l0.2,0v-0.1l-0.8,0.1l-0.3,0.1l-0.3,0.2l-0.6,0.5l-0.3,0.2
		l-0.5,0.1l-0.4-0.1l-0.9-0.8l-1.6-0.7l-0.6-0.5L133,46l-0.4,0l-0.1,0l-0.1,0.1l-0.1,0.1l-0.1,0.1l-0.1,0.1l-0.4,0l-0.1,0.1
		l-0.1,0.1l-0.1,0.6l-0.2,0.5l-0.2,0.2l-0.2,0.1l0.1-0.2l0-0.2l0-0.1l-0.1-0.1l0.1-0.1l0-0.1l0,0l0,0l0.2-0.1l0.2-0.2l0.1-0.2
		l0.1-0.2l-0.1-0.3l-0.1-0.2l0-0.2l0.2-0.2l-0.6-0.5l-0.2-0.1l-2.4,0.6l-0.4-0.2v-0.1l0.4,0l0.4-0.1l0.4-0.2l0.3-0.3l0.1-0.2
		l0.1-0.2l0.1-0.2l0-0.3l0.1-0.7l0-0.3l-0.1-0.2l0.1-0.2l-0.1-0.1l-0.1,0l-0.1,0.1l-0.2-0.2l-0.3,0l-0.3,0.1l-0.1,0l0-0.2l0,0l0,0
		l0.1,0l0,0l0.2-0.2l0,0l0.1,0l0.1,0.1l0.1,0l0.1-0.1l-0.2-0.2l-0.1-0.1l-0.1-0.1l-0.1-0.6l-0.2-0.3l-0.3-0.2l-0.2,0l0,0.4l-0.5,0.2
		l-0.3,0l-0.1-0.2l-0.1-0.3l-0.2-0.2l-0.3-0.1l-0.2-0.1l-0.4-0.2l-0.6,0l-0.5-0.2l0-0.6l-0.1,0.1l-0.1,0.2l-0.2,0.1l-0.2,0.2
		l-0.6,0.3l-0.2,0l-0.1,0.1l-0.2,0l-0.2-0.2l-0.2,0l-0.1,0.1l-0.1,0l-0.1,0.1l-0.2,0l-0.7,0l-0.2-0.1l-0.1-0.2l0-0.2l0-0.2l-0.2-0.1
		l-2.1-0.5l-0.8-0.3l-0.8-0.1l-0.2,0l-0.7,0.3l-0.4,0l-0.3-0.1l-0.1,0.5l0,0.4l0.1,0.5l0.1,0.3l0.2,0.3l0.1,0.4l-0.1,0.3v0.1
		l0.3,0.2l0.5,0.5l0.3,0.2l0.1,0.2l0.3,0.9l-0.3,0.2l0.1,0.1l0.1-0.1l0.2-0.1l0.2,0l0.1,0.1l0,0.2l0.1,0.2l0.8,0.9l0.3,0.4v0.4
		l-0.1,0.3l-0.2,0.1l-0.4,0.2l-0.4,0.4l-0.2,0.1l-0.3,0.1h-1.1l-0.8,0.2l-0.2-0.1l-0.1,0.1l-0.1,0.2l0,0.2l0.1,0.2l0.2-0.2l0.1,0
		l0.1,0.1l0.2,0v0.1l-0.2,0l-0.3,0.1l-0.3,0.1l-0.1,0.2l0,0.4l0.2,0.4l0.3,0.3l0.3,0.1l0.1,0l0.3-0.3l0.2-0.1l0.4,0.1l0.3,0l0.5-0.2
		l0.3,0l0,0.1l0,0.1l0,0.1l0.2-0.1l0.4-0.3l0.2,0l-0.1,0.3l-0.2,0.3l-0.2,0.2l-0.1,0.1l-0.2,0l-0.4,0.1l-0.1,0.1v0.1l0.1,0.3
		l-0.1,0.3l-0.2,0.3l-0.1,0.3l0,0.1l0.2,0.4l0.3,0.5h0.1l0.2-0.2l0.3-0.2l0.4-0.1l0.2,0.1v0.1l0,0.2l0.1,0.2l0.2,0.2l0.1,0.2v0.3
		l-0.1,0.4l-0.1,0.3l-0.1,0.2l-0.2,0.1l-0.2-0.1l-0.4-0.3l-0.2-0.1l-0.2,0l-0.4,0.2l0.8,1.7l0.3,0.4l0.4,0.3l0.2,0.1l0.1-0.2
		l0.1-0.1l0.3,0.1l0.4,0.2l1.3,0l0.4,0.1l0.4,0.2l0.6,0.6l0.4,0.1l0,0.3l0.2,0.6l0.2,0.5l0.2,0.2l0.1,0.1l0.5,0.3l0.1,0.1l0,0.3
		l0,0.5l0.1,0.5l0.3,0.4l0.7,0.5l0.4,0.1l0.9,0.1l0.4,0.2l0.1,0.2l-0.1,0.1l-1.2-0.3l-0.6-0.4l-0.1-0.1l-0.2,0l-0.2-0.1l-0.2-0.1
		l-0.7-1l-0.1-0.5l-0.1-0.2l-0.3-0.2l-0.4-0.5l-1-1.7l-0.2-0.3l-0.1-0.1l-0.3,0l-0.2,0l-0.1-0.1l-0.2,0.1l-0.8,0l-0.8,0.2l-0.2,0.2
		l-0.4,0l-0.7,0.2l-0.4,0l-0.8-0.2l-0.4-0.2l-0.4-0.3l-0.2-0.3l-0.1-0.1l-0.2,0l-0.2,0.1l-0.2,0.1l-0.2,0.2L115,56l-0.2,0.5l-0.3,1
		l-0.4,0.9l-0.1,0.2l0,0.3l0,0.3l0.1,0.4l0.1,0.3l0.1,0.3l0.1,0.2l0.1,0.1l0.3,0.7l0.1,0.1l-0.1,0.5l-0.2,0.2l-0.2,0.2l-0.2,0.4
		l0,0.5l0.1,1.1l0,0.4l-0.1-0.3l-0.1-0.4l0-0.9l0.1-0.5l0.2-0.4l0.2-0.3l0.2-0.2v-0.1l-0.4-0.2l-0.9-0.2l-0.4-0.2l-0.1-0.2l-0.1-0.2
		l-0.1-0.2l-0.2-0.1l-0.4,0l-0.2,0.1l-0.1,0.1l-0.1,0.2l-0.1,0.6l-0.1,0.3l0,0.2l0.2,0l0.4-0.1l0.3,0.3l-0.1,0.6l-0.2,0.6l-0.2,0.4
		l-0.1,0.1l-0.1,0.1l-0.1,0l-0.2,0l-0.1-0.1l-0.1-0.2l-0.1-0.2l-0.1-0.1l-0.1,0l-0.2-0.2l-0.1-0.1l-0.2,0l-0.1,0l-0.1,0.1l-0.1-0.1
		l-0.1-0.2l-0.2-0.6l0.2-0.1l0.4,0l0.2-0.1l0.2-0.2l0.1-0.2l0-0.3l-0.1-0.2l-0.2-0.1l-0.2-0.1l0.1-0.2v-0.1l-0.3-0.2l-0.4-0.5
		l-0.3-0.6l0.1-0.5v-0.1l-0.8-0.2l-3,0.4l-1.5,0.3l-0.2-0.1l-0.1-0.1l-0.1-0.1l-1.5,0.2l-0.8,0.3l-0.4,0.4l-0.2,0.1l-0.4,0.4
		l-0.3,0.2l-0.1,0.2l0,0.2l0.1,0.1l0.3,0.1l0.1,0.1l0,0.2l-0.1,0.2l-0.1,0.1l-0.1,0.1l-0.4-0.1l-0.2,0l-0.1,0.2l0,0.3l-0.2,0.5
		l0,0.3l0,1.2l0.1,0.5l0.4,0.2l2.3,0.1l0.4,0.1l0.2,0.4l-0.2-0.1l-0.3-0.2l-0.2-0.1l-0.2,0l-0.1,0.1l-0.3,0.4l0.1,0.2l0,0.2
		l-0.1,0.2l-0.1,0.1l-0.1,0.1l-0.1,0.1l0,0.5l0,0.3l0,0.3l-0.1,0.3l-0.1,0.4l0,0.1l0,0.2l0,0.1l0,0.1l0,0.1l0.1,1.2l0,0.6L101,71
		l-0.2,0.6l-0.8,1.3l-0.2,0.5l-0.1,0.6l-0.1,1.8l-0.1,0.6l-0.2,0.4L99,76.5l-0.2-0.1l-0.5,0.1l-0.5-0.2l-1,0l-0.3,0.1l-0.4,0.3
		l0.1,0.2l0,0.1l0,0.1l0,0.1l0.1,0.1l0.3,0.3L96.1,78l-0.2,0l0.1,0.3l0,0.3l0,0.3l0.1,0.2l0.2,0.2l0.3,0.1l0.8,0.1l0.5,0.2l0.3,0
		l0.3,0l0.3-0.1l0.1-0.1l0.1-0.1l0.1,0l0.6,1l0.1,0.4l-0.1,0.6L99.4,82l-0.1,0.2l0,0.3l0.1,0.3l0.1,0.2l0,0.1L99,83.4l-0.1,0.1
		l-0.2,0.4l-0.2,0.2L98,84.2l-0.2,0.2l-0.2,0.5L97.5,85l-0.7,0.1l-0.2,0.1l-0.2,0.2l-0.1,0.1l-0.1,0.2l-0.1,0.1l-0.1,0.1l-0.1,0
		l-0.1,0L95.9,86l0,0.2l0.2,0.1l0.2,0.1l0.7,0.4l0.3,0.3l0.1,0.1l0,0.1l0,0.2l0,0l-0.1,0l-0.1,0.1l-0.2,0.4l-0.2,0.3l-0.3,0.1
		l-0.9,0l-1,0.3L94,89.3l-0.2,0.1h-0.2l-0.6-0.2l0.1,0.4l0,0.2l-0.4,0.1l0-0.3l-0.2-0.1L92,89.4l0-0.1l-0.1-0.2L91.8,89l-0.1,0
		l-0.3,0.1L91.1,89l-0.3-0.3l-0.3-0.2l-0.3,0.2l0.1,0.1l0.4,0.4l0.1,0.2l-0.2,0l-0.2-0.1L90,89.2l-0.4,0.1l-0.1,0.1l-0.2,0.2
		L89,89.7l-0.4,0.1l-0.2,0.1l0,0.1l0.2,0.2l0.1,0.3l0,0.3L88.5,91l0,0.2l0.1,0l0.3,0l0.1,0.1l0.2,0.2l0.1,0.1L89.2,92l0.2,0.3
		l0.7,0.3L90,93L90,93.2l0,0.2l0.7,0.9l0.4,0.5l0.1,0.5l0,0.3l0,0.3l-0.1,0.3l0,0.3l0.2,0.2l-0.1,0.1l0,0.4l-0.1,0.2L91,97.6
		l-0.3,0.2l-0.1,0.1l-0.5,1l-0.2,0.3l-0.1,0.2l-0.1,0.3l0,0.4l0.1,0.3l0.2,0.1l0.5-0.3l0.2,0.1l-0.1,0l-0.2,0.2l0.2,0.2l-0.2,0.2
		l-0.6,0.3l-0.9,0.7l-0.1,0.2l-0.2,0.4l-0.1,0.1l-0.2,0l-0.1-0.1l-0.1-0.2l-0.1-0.1l-0.3,0.1l0.1,0.4l0.2,0.5l0,0.4l0.1,0l0.3-0.1
		l0.1,0l0.1,0l0.3,0.1l0.4,0l0,0.1l-0.1,0.1l0,0.1l0,0.2l0,0.1l0.1,0.1l0.2,0.1l0.3,0.1l0,0.1l-0.1,0.1l0,0.1l0.1,0.3l0,0.1
		l-0.1,0.2l-0.1,0.1l-0.2,0l-0.1,0.1l-0.1,0.2l0,0.1l0,0.1l-0.1,0.2l-0.1,0.1l-0.2,0l0,0.2l0.1,0.1l0.1,0.1l0.1,0.1l0,0.2l0,0l0,0
		l0,0l0,0v0l0,0l0,0l0.1,0.1l0.1,0l0,0.1v0l0,0.2l0,0.1l0,0l0.1,0l0.4-0.1l0.2,0l0.2,0.2l0.1,0.2l0.5,0.8l0,0l-0.1,0.1l0.1,0.2
		l0.2,0.1l0.7,0l0,0.1l-0.1,0.1l0,0l-0.1,0.1v0.1l-0.2,0.1l-0.2,0.2l-0.1,0.1l-0.2,0.3l0,0l0.2,0.2l-0.1,0.1l0,0.1v0l0.1,0l0.1,0h0
		l-0.1,0.1l0.1,0.1l0,0h0l0,0.1l0.1,0.1l0.1,0l0,0l0,0l0.1,0l0.3-0.1l0,0l0,0l0,0l0,0l0,0l0,0l0.2,0.1l0.4,0.1l0.2,0l-0.1,0.1l0,0
		l0,0.1l0,0l0,0.1l0.1,0.2l0,0l0.1,0.1l0.1,0h0l0,0l0,0v0l0,0.1l0,0.2l-0.1,0.4l0,0l-0.1,0.2l0,0.2l0.3,0.6l0,0.2v0l-0.1,0.1l0,0
		l0,0l-0.3,0l-0.1,0l-0.1,0l0,0l-0.1,0l-0.1,0l-0.1,0l-0.1,0.1l0,0l-0.1,0.1l0,0.2l0,0.1h0l-0.2,0.2l-0.3,0.1l-0.2,0.1l-0.2,0.1
		l-0.1,0.1l0,0l-0.2,0.1l-0.1,0l-0.1,0.1l0,0l0.1,0.1l0,0l0,0.1l0,0.2l-0.1,0.1l0,0l-0.1,0l-0.2,0l0,0l-0.1,0l0,0l0,0l0,0.1l0,0.1
		l0,0.1l0.1,0.1l0,0.1v0l0,0l0,0.1l-0.1,0.1l-0.1,0.2l0,0.2l-0.1,0.4l0,0l0.1,0l0,0l0,0.1l-0.1,0.2l0.1,0.1l0.1,0.1l0.1,0.3l0,0.2
		l0,0.1l0.2,0.3l0.2,0.4l0.1,0.1l0.1-0.2l0.2,0.3l0.3,0.8l0.2,0.2l0.3,0.2l0.1,0.1l0,0.1l0.1,0.3l0,0.1l0.1,0l0.2-0.1l0.1,0l0.2,0.1
		l0.3,0.3l0.2,0.1l0.2,0h0.5l0.3,0.1l0,0l0.1,0.1l0,0l0,0.1l0,0l0,0.3l0,0.1l0,0.1l0,0.1l-0.1,0.1l0,0.1l0,0.1l0,0.1l0.1,0.1l-0.1,0
		l0,0l0,0.1l0.1,0.1l0,0l-0.7,0.5l-0.2,0.2l0,0.1l0.1,0l0.1,0.1l0,0.1l0,0.1l-0.1,0.1l-0.1,0.2l-0.3,0.3l-0.2,0.2l-0.1,0.2v0.5
		l-0.1,0.6l0,0.5v0.1l0.1,0l0.1,0l0.2-0.1l0.1,0l0.1,0l0.9,0.5l0.2,0.2l0.1,0.1l0,0.1l0,0.1l0,0l0.1,0.1l0.5,0.5l0,0.1l0,0.1l-0.2,0
		l-0.1,0.1l0.1,0.2l0.2,0.2l0.7,0.6l0,0.1l0,0.2l0,0.1l0.1,0l0.1,0.1l0,0l0.1,0.3l0,0.1l0,0l0,0.1l0,0.1l0,0l0.1-0.1h0l0.1,0.2
		l-0.1,0.2l0,0.2l0.1,0.2l0.1,0l0.4,0l0.4,0.1l0.1,0l0.2-0.2l0-0.3l-0.1-0.2l0.1-0.2l0.1,0L98,131l0.3,0l0.1,0l0.6,0.4l0.2,0l0,0.5
		l0.1,0.4l0.2,0.2l0.3-0.2l0-0.1l0-0.1l0-0.1l0.1-0.1l0.1,0l0.4,0.3l0.2,0.1l0.2,0.1l0.9,0l0.3,0.1l0.1,0l0.1-0.1l0.1-0.2l0.1-0.1
		l0.1,0l0.2,0l0.1,0l0.1-0.1l0.1-0.2l0-0.1l0.2-0.1l0.2-0.1l0.2,0l0,0.2l0.4,0l0.2,0.1l0.1,0.2l-0.1,0l0,0l0,0.1l0.1,0.1l0.2,0.4
		l0.1,0.2l0.2,0.1l0.4,0.1l0.2,0.1l0.1,0.1l0.1,0.2l0.1,0.1l0.1,0l0.1,0l0.1,0l0.1,0l0.1,0l0.2,0.1l0.1,0l0.1,0l0.2-0.1l0.1,0
		l0.8,0.2l0.6-0.1l0.2,0l1.6,0.8l1,0.2l0.1,0.1l-0.2,0.2l-0.3,0.6l-0.5,1.3l-0.1,0.2l-0.1,0.1l-0.4,0.2l-0.1,0l0,0l0,0l0,0.1l0,0.1
		l0,0.1l-0.1,0.1l-0.1,0l-0.3,0l-0.1,0l-0.1,0.1l0,0.3l0,0.1l-0.1,0.1l-0.1,0.1l-0.1,0.1l-0.3,0.3l-0.2,0.1l-0.2,0.1l-0.1,0.1
		l-0.4,0.7l-0.1,0.5v0.5l0.1,0.3v0.1l-0.3,0.2l-0.1,0.1l-0.1,0.1l0,0.3l0,0.1l-0.1,0.1l-0.1,0.1l-0.1,0.2l-0.1,0.4l0,0.2l0,0.2
		l0.1,0.2l0.1,0.2l0,0.2l-0.1,0.2l-0.2,0.1l-0.2,0.1l-0.1,0.3l0,0.3l-0.1,0.3l-0.1,0.2l-0.6,0.9l-0.1,0.2l0,0.2l-0.1,0.1l-0.1,0.1
		l-0.1,0.1l-0.1,0.2l-0.1,0.3l0,0.6l0.4,0.8l0,0.5l-0.1,0.2l-0.3,0.3l-0.1,0.2l0,0.2l0,0.1l-0.1,0.2l0,0.1l-0.1,0.1l0,0.1l0,0.1l0,0
		l0,0l0,0.1l0.1,0.3l0,0.2l-0.1,0.1l-0.1,0.1l-0.1,0.5l0,0.2l0.1,0.5l0,0.2l-0.1,0.1l-0.2,0.2l0,0.1l0,0.3l0,0.2l0,0.1l0.1,0.1
		l0.1,0.2l0.2,0.5l0.1,0.1l0.1,0.1l0.1,0.1l0,0.1l0,0.1l0,0.1l0.5-0.2l0.2,0l-0.1,0.4l-0.1,0.1l-0.3,0l0.5,0.3l0.2,0l0.8-0.2
		l0.2-0.1l0.2-0.2l0.2-0.3l0.1,0.1l0.6,0l0.1,0.1l0,0.1l0,0.1l0,0.1h1.3l0.5-0.1l0.1-0.1l0-0.1l0-0.1l0.1-0.1l0.1-0.1l0.2-0.1
		l0.2-0.1l0.1-0.1l0-0.1l0.1,0l0.5-0.1l0.2,0l0.3,0.1l0.1,0l0.1,0.1l0.1,0.1l0.1,0.1l0.1,0.1l0.4,0.1l0.6,0l0.3-0.1l0-0.1l0.1-0.3
		l0.3-0.2l0.3,0l0.2,0.1l0.1,0.2l0.1,0.1l0.1,0l0.1-0.1l0-0.1l0-0.1l0-0.1l0-0.1l0-0.1l0-0.1l0-0.1l0,0l0.1,0l0,0l0,0l0,0.1l0.1,0
		l0.1-0.4l-0.1,0l-0.2-0.1l-0.1,0l-0.5,0.1l-0.2,0.1l-0.1,0.1l-0.1,0.1l-0.2,0l-0.2-0.1l-0.3-0.2l-0.1,0l-0.2-0.1l0.1-0.2l0-0.1
		l0-0.1l0-0.1l0.1-0.1l0.3-0.1l0.1-0.1l0.1-0.3l0-0.1l0.1-0.2l0.1,0l0.1,0l0.5-0.1l0.2-0.1l-0.1-0.2l0.2-0.1l0.3,0l0.2,0.1l0,0.1
		l0,0.2l0,0.2l0.1,0.1l0.1-0.1l0.1-0.3l0.1-0.1l0.1,0l0.1,0.1l0.1,0.2l0.1,0.1l0.1,0l0.1,0l0.1,0l0.1,0.2l0,0.1l-0.1,0.2l0,0.1
		l0,0.1l0.1,0.1l0,0.1l0,0.1l0.5,0l-0.1-0.1l0.1-0.3l0.3,0l0.3,0.2l0.3,0.2l-0.2,0v0.1l0.2,0.2l0.3,0.2l0.2,0.1l0.4,0l0.4-0.1
		l0.2-0.2l0.2-0.1l1.1,0.1h0.6l0.1,0.2h0.4l0.4,0.1l2.8,1.7l0.6,0.2l0.6,0l0.3-0.1l0.1-0.2l0.1-0.3l0.2-0.3l0.1-0.1l0.1,0l0.1,0.1
		l0.1,0.1l0,0.2l0,0.2l0,0.2l0.2,0.1l0.1,0l0.1-0.1l0.1,0l0.3,0.1l0.3,0l0.2,0l0.1-0.1l0,0.2l0.1,0.1l0.1,0.1l0.1,0.2v0l0,0l0,0.1
		l0.1,0.1l0.1,0l0.1-0.1l0.1-0.1l0.5,0.7l0.1,0.2l0,0.2l-0.2,0.2l0.1,0.1l0,0.2l0,0.2l0.1,0.1l0.1,0.1l0.1,0l0.1-0.1l0.1-0.1l0,0
		l0.1,0.1h0.1l0,0l0.1-0.1l0.4-0.1l0.2,0.1l0,0.3l-0.2,0.5l0,0.1l0,0.1l0,0.1l0,0l-0.1,0l0,0L131,160l0,0.1l0,0l0.8-0.1l0.2-0.1
		l0.4-0.3l0.2-0.2l0.2-0.2l0.2-0.4l0.1-0.1l0.1-0.1l0.2-0.1l0.1-0.1l0.2-0.2l0.1-0.3l0.1-0.3v-0.3l0-0.2l-0.1-0.1l-0.1-0.1l-0.1-0.1
		l0.1-0.6l0-0.1l-0.1-0.2l-0.1-0.2l0-0.1l0.2-0.1l0.2,0l0.1,0l0,0l0,0.1l0,0.1l0,0.1l0,0.1l0,0.1l0.1,0.1l0.1,0.1l0.2,0.1l0.4,0.1
		l0.1,0l0.1-0.1l0.2-0.3l0.1-0.1l0.2,0l1.3,0.5l0,0l0,0.1l0.1,0.1l0.1,0l0.3,0l0.4-0.2l0.1,0l0.1,0l0.1,0.1l0.2,0.2l-0.1,0.1
		l-0.3,0.2l0.1,0.1l0.5,0.2l0.5,0.5l0,0.1l0,0.1l0,0.1l0,0.1l0,0l0.1,0.2l0.1,0.1l1,0l0.2-0.1l0.7-0.5l0.3-0.1l0.2,0.1l0,0.4l0.2,0
		l0.2-0.1l0.1-0.2l0.1-0.2l0.2-0.2l0.2-0.1l0.4,0l0.2-0.1l0.1-0.1l0-0.1l-0.1-0.1l-0.1,0l0.5-0.5l0.2-0.1l0.2,0l0.2,0.1l0.5-0.1
		l0.2-0.1l0.2-0.2l0.1-0.1l0.1-0.3l0.1-0.2l0.3-0.2l0,0l0.2,0l0.4,0.1l0.8,0l0.6,0.1l0.1,0l0.1-0.3l0.1-0.1l0.8-0.2l2.3,0.1l0.1,0
		l0.3-0.4l0-0.1l0-0.1l0-0.4l0-0.1l-0.1,0l-0.1-0.1l-0.1-0.1l0-0.1l0-0.1l0.2-0.1l0.2-0.2l0.1-0.1l0.1-0.1l0,0l0,0.1l0,0.2l0,0.1
		l-0.1,0.1l0,0.1l0.1,0.2l0.1,0.1l0.1,0l0.2-0.1l0.2,0l0.6,0.1l0.2,0l0.4-0.2l0.2,0l0,0.1l0.1,0.3l0.1,0.1l0.1,0.1l0.3,0.2l0.1,0.1
		l0.2,0l0.2,0l0.2-0.1l0.4-0.4l0.2-0.1l0.4-0.1h0.4l0.6,0.1l0.2,0l-0.1,0.3l0.2,0.2l0.3,0.2l0.2,0.2l-0.3,0.1l-0.1,0.3l0.1,0.4
		l0.2,0.2l0.2,0l0.1,0l0.1,0.1l0.5,0.5l0.5,0.4l0.1,0l0.1,0l0.1,0l0.1,0l0.1,0.1l0.1,0.1l0.1,0l0.1,0l0.1-0.1l0.3-0.3l0-0.1l0-0.1
		l0-0.1l0-0.1l0-0.1v-0.3l0,0l0.1-0.2l0,0l0,0l0-0.3l0,0l0.2-0.2l0,0l0.1-0.3l0,0l0-0.2l0-0.2l0-0.2l-0.1-0.2l-0.2-0.3l-0.1-0.1
		l-0.1-0.1l-0.2,0l-0.3,0.1l-0.2,0l-0.6-0.1l-0.2-0.2l0.2-0.3l0,0l0.1-0.1l0-0.1l0-0.1l0-0.1l0.1-0.1l0.6-1l0,0l-0.2-0.3l-0.3-0.8
		l-0.2-0.2l-0.1,0l-0.2-0.2l-0.2-0.1l-0.1-0.1l-0.1-0.2l0-0.2l-0.2-0.3l-0.7-0.7l-0.1-0.1l-0.1-0.2l0-0.2l0-0.2l0.1-0.1l0.1,0l0.1,0
		l0.1,0l0.1-0.2l0-0.1l0.4-0.3l0.1-0.2l0.2-0.3l0.1-0.1l0.2-0.1l0.6-0.1l0,0l0.2-0.1l0.3-0.2l0.4-0.4l0.2-0.1l1-0.4l1.4-0.2l0.3-0.2
		l1-0.9l0.1-0.2l0.1-0.3l0-0.1l0-0.1l0-0.1l0-0.2l0-0.4l0-0.1l0-0.1l0.1-0.3l0-0.1l0-0.1l-0.1-0.1l0-0.3l0-0.1l0-0.1l0.1-0.1
		l0.1-0.1l0.3-0.1l0.3,0l1,0.3l0.2,0.1l0.2,0.1l0.2,0.2l0.4,0.2l0,0l0.1-0.4l0.1-0.2l0,0l0.2,0l0.1,0l0.1-0.1l0-0.1l0.2-0.4l0.1-0.2
		l0-0.2l0-0.3l-0.1-0.5l0-0.2l0.1-0.1l-0.1-0.1l-0.1,0l-0.1-0.2l-0.1,0l0-0.1l0.3-0.6l-0.2-0.2l-0.5-1l-0.2-0.4l-0.1-0.1l-0.4-0.1
		l-0.2-0.1l-0.2-0.2l-0.2-0.2l-0.1-0.3l0-0.3l-0.2,0l-0.2-0.1l-0.2-0.1l-0.2-0.1l-0.2-0.1l-0.1,0.1l-0.1,0.2l-0.1,0.3l-0.2-0.1
		l-0.3-0.2l-0.3-0.3l-0.1-0.2l0-0.4l-0.1-0.3l-0.4-0.4l-0.3-0.4l-0.1-0.1l-0.2-0.1l-0.6,0l-0.3-0.2l-0.2-0.3l-0.1-0.3l-0.9-1.3
		l-0.1-0.1h0v0l-0.3-0.4l0-0.1l0-0.1l-0.1-0.1l-0.2-0.1l-0.3-0.3l-0.1-0.1l-0.2-0.1l-0.4-0.1l-0.1,0l0,0.2l-0.2,0l-0.6-0.1l-0.2-0.1
		l-0.2-0.2l-0.3-0.7l-0.2-0.2l-0.5-0.2l-0.2-0.2l-0.1-0.2l0-0.2l0-0.5l0-0.3l-0.1-0.1l-0.1,0l-0.1,0l-0.1-0.1l-0.1-0.1l-0.1-0.1
		l-0.1-0.2l0-0.2l0-0.3L155,125l-0.1-0.1l-0.2-0.1l-0.1-0.1l0,0l0-0.1l-0.1,0l0,0l0.1-0.2l0-0.2l-0.1-0.2l-0.1-0.1l-0.3-0.2
		l-0.2-0.1l-0.1-0.1l-0.2-0.3l-0.1-0.2l0-0.2l0.1-0.2l0.4-0.2l0.2-0.2l0-0.3l0-0.3l0.1-0.2l0.2,0.1l0.1-0.2l0.2-0.4l0.1-0.2l0-0.3
		l-0.1-0.1l-0.1-0.1l-0.4-0.2l0-0.2l0.1-0.2l0-0.2L154,119l-0.4,0l-0.2-0.2h0L152,118l0-0.1l0-0.1l0-0.2l-0.1-0.2l-0.1-0.1l-0.2-0.1
		l-0.1-0.1l-0.1-0.2l0-0.2l0.1-0.4l0-0.2l-0.1-0.2l-0.1-0.2l-0.2-0.3l-0.5-0.3l-0.1-0.2l0.1-0.2l0.1-0.1l0.1-0.1l0-0.2l0-0.2
		l-0.1-0.1l-0.2-0.2l0.7,0.1l0.2,0.1l0.1,0.1l0,0.3l0,0.1l0.1,0.1l0.1,0l0.3,0l0.1,0l0,0.1l0,0.1l0,0.1l0,0l0,0l0,0l0,0l0,0l0,0l0,0
		l0,0l0.2,0.2l0,0.1l0,0.1l0,0.1l0,0.1l0.1,0.4l0.1,0.2l0.2,0l0.1-0.1V116l-0.1-0.2l0-0.2l0-0.3l0.1-0.1l0.2-0.3l0-0.2l0.1-0.1
		l0.1-0.1l0.1-0.1l0.3-0.6l0.1-0.1l0.3-0.2l0.1-0.1l0,0l0.1,0l0,0l0-0.1l0-0.1l0-0.1v0l0-0.1l0-0.1l0-0.1l0.1-0.1l0.3-0.2l0.4-0.1
		l0.8-0.1l0.5,0.1l0.1,0l0.1-0.1l0.2-0.3l0.1-0.1l0.2-0.1l0.2,0l0.2,0l0.1,0l0.1-0.1l0.1,0l0.1,0l0.9,0.6l0.3,0l0.3-0.3l0.1-0.2
		l0.1-0.3l0.1-0.6l0.1-0.1l0.1,0l0.1,0l0.1,0.1l0.1,0l0.1,0l0.1,0l0.1,0l0,0l0.3-0.1l0.5,0l0.2-0.2l0.1-0.3l0.3-0.9l0.2,0l0.2,0.1
		l0.2,0.1l0.2-0.1l0.1-0.3l0.1-0.1l0.4-0.3l0.1-0.1l0-0.1l0,0l0.1,0l0.1,0.1l0.1,0.2l0.1,0.1l0.2,0.1l0.2,0l0.2-0.2l0.2-0.2l0.1-0.1
		l0.1-0.1l0-0.1l-0.1-0.1l0.2-0.1l0.1-0.2l0-0.2l-0.1-0.2l0.4-0.2l0.5-0.1l0.9,0l0.2,0l0.4-0.1l0.2,0l0.5,0.1l0.2,0l0.3-0.2l0.1,0
		l0.1,0l0.1-0.1l0-0.1l0-0.1l0-0.1l0-0.2l0.1-0.1l0.1,0l0.1,0l0.1,0l0.1-0.1l0.2-0.2l0.1-0.1l0.2,0l0.4,0l0.2,0l1.6-0.7l0.1-0.1
		l0.2-0.3l0.1-0.1l0.4-0.1l0.8,0.1l0.3-0.2l0.1-0.4l-0.3-0.2l-0.4-0.1l-0.3-0.3l0-0.2l0.1-0.1l0,0l-0.2-0.1l-0.3,0l-0.1-0.1l0.1-0.2
		l0.1-0.5l0.2-0.2l0.3-0.1l0.4,0.1l0.1,0.1l0.1,0.1l0.1,0.1l0.1,0.1l0.1,0l0.3-0.1l0.4,0l0.1-0.1l0.1-0.2l0.1,0.1l0,0.1l0,0.1
		l0.1,0.1l0.1,0.1l0.3,0.1l0.1,0.1l0.1,0.1l0.1,0.1l0,0.2l0,0.2l-0.1,0.2l-0.1,0.2l-0.1,0.2l0.1,0.1l0.6-0.2l0.1,0l0.1,0.2l-0.1,0.2
		l-0.2,0.4l0,0.3l0,0.1l0.3,0.1l0.1,0.1l0.4,0.3l0.4,0.1l0.2,0l0.2,0l0.1-0.1l0.1-0.2l0.2-0.4l0-0.3l0.1-0.2l0.4-0.4l0.5-1.2
		l0.4-1.1l0-0.2v-0.3l0-0.2l0.1-0.1l0.1-0.1l0.1-0.1l0-0.2l0-0.4l0.1-0.4l0.1-0.4L179.8,99.2L179.8,99.2z"/>
	<g>
		<path class="st1" d="M208.8,24.8h-0.7v-4.9l-2,4.9h-0.3l-2-4.9v4.9H203v-6h1.1l1.9,4.5l1.9-4.5h1.1V24.8z"/>
		<path class="st1" d="M213.6,24.8h-0.7v-0.5c-0.4,0.4-0.8,0.6-1.4,0.6c-0.4,0-0.8-0.1-1.1-0.4c-0.3-0.3-0.5-0.6-0.5-1.1
			c0-0.5,0.2-0.8,0.5-1.1s0.7-0.4,1.1-0.4c0.6,0,1.1,0.2,1.4,0.6v-0.8c0-0.3-0.1-0.5-0.3-0.7s-0.5-0.2-0.8-0.2c-0.5,0-1,0.2-1.3,0.6
			l-0.3-0.5c0.5-0.5,1-0.7,1.7-0.7c0.5,0,0.9,0.1,1.2,0.4c0.3,0.2,0.5,0.6,0.5,1.1V24.8z M211.7,24.5c0.5,0,0.9-0.2,1.2-0.5v-0.8
			c-0.3-0.4-0.7-0.5-1.2-0.5c-0.3,0-0.6,0.1-0.8,0.3c-0.2,0.2-0.3,0.4-0.3,0.7c0,0.3,0.1,0.5,0.3,0.7
			C211.2,24.4,211.4,24.5,211.7,24.5z"/>
		<path class="st1" d="M216.9,25c-0.6,0-1.2-0.2-1.6-0.7c-0.4-0.4-0.6-1-0.6-1.6c0-0.7,0.2-1.2,0.6-1.6c0.4-0.4,0.9-0.6,1.6-0.6
			c0.7,0,1.2,0.3,1.6,0.8l-0.4,0.4c-0.3-0.4-0.6-0.6-1.1-0.6c-0.5,0-0.8,0.2-1.1,0.5c-0.3,0.3-0.4,0.7-0.4,1.2
			c0,0.5,0.1,0.9,0.4,1.2s0.6,0.5,1.1,0.5s0.8-0.2,1.1-0.6l0.4,0.4C218.1,24.7,217.6,25,216.9,25z"/>
		<path class="st1" d="M221.4,25c-0.6,0-1.2-0.2-1.6-0.6c-0.4-0.4-0.6-1-0.6-1.7c0-0.6,0.2-1.2,0.6-1.6c0.4-0.4,0.9-0.7,1.5-0.7
			c0.6,0,1.2,0.2,1.5,0.7c0.4,0.4,0.6,1,0.6,1.7v0.2h-3.5c0,0.4,0.2,0.8,0.5,1.1c0.3,0.3,0.6,0.4,1.1,0.4c0.5,0,1-0.2,1.3-0.5
			l0.3,0.4C222.7,24.7,222.1,25,221.4,25z M222.7,22.4c0-0.4-0.1-0.7-0.4-1c-0.2-0.3-0.6-0.4-1.1-0.4c-0.4,0-0.8,0.1-1,0.4
			c-0.2,0.3-0.4,0.6-0.4,1H222.7z"/>
		<path class="st1" d="M228.3,24.8h-0.7v-0.6c-0.4,0.5-0.9,0.8-1.5,0.8c-0.6,0-1-0.2-1.4-0.6s-0.5-1-0.5-1.7c0-0.7,0.2-1.2,0.5-1.7
			s0.8-0.6,1.4-0.6c0.6,0,1.1,0.3,1.5,0.8v-2.3h0.7V24.8z M226.3,24.3c0.3,0,0.5-0.1,0.8-0.2s0.4-0.3,0.5-0.5v-2
			c-0.1-0.2-0.3-0.4-0.6-0.5c-0.2-0.1-0.5-0.2-0.8-0.2c-0.4,0-0.8,0.2-1,0.5c-0.3,0.3-0.4,0.7-0.4,1.2s0.1,0.9,0.4,1.2
			C225.6,24.2,225.9,24.3,226.3,24.3z"/>
		<path class="st1" d="M233.1,24.3c-0.4,0.4-0.9,0.7-1.6,0.7s-1.2-0.2-1.6-0.7c-0.4-0.4-0.6-1-0.6-1.6c0-0.6,0.2-1.2,0.6-1.6
			c0.4-0.4,0.9-0.7,1.6-0.7s1.2,0.2,1.6,0.7c0.4,0.4,0.6,1,0.6,1.6C233.7,23.3,233.5,23.9,233.1,24.3z M230.5,23.9
			c0.3,0.3,0.6,0.5,1.1,0.5c0.4,0,0.8-0.2,1.1-0.5s0.4-0.7,0.4-1.2c0-0.5-0.1-0.9-0.4-1.2S232,21,231.6,21c-0.4,0-0.8,0.2-1.1,0.5
			c-0.3,0.3-0.4,0.7-0.4,1.2C230.1,23.1,230.2,23.5,230.5,23.9z"/>
		<path class="st1" d="M238.4,24.8h-0.7V22c0-0.4-0.1-0.6-0.3-0.8c-0.2-0.2-0.4-0.2-0.7-0.2c-0.3,0-0.5,0.1-0.7,0.2
			s-0.4,0.3-0.6,0.5v3.2h-0.7v-4.3h0.7v0.6c0.2-0.2,0.4-0.4,0.7-0.5c0.3-0.1,0.6-0.2,0.9-0.2c0.9,0,1.4,0.5,1.4,1.4V24.8z"/>
		<path class="st1" d="M240.1,19.9c-0.1,0-0.2,0-0.3-0.1s-0.1-0.2-0.1-0.3s0-0.2,0.1-0.3s0.2-0.1,0.3-0.1c0.1,0,0.2,0,0.3,0.1
			s0.1,0.2,0.1,0.3s0,0.2-0.1,0.3S240.2,19.9,240.1,19.9z M240.4,24.8h-0.7v-4.3h0.7V24.8z"/>
		<path class="st1" d="M245.2,24.8h-0.7v-0.5c-0.4,0.4-0.8,0.6-1.4,0.6c-0.4,0-0.8-0.1-1.1-0.4c-0.3-0.3-0.5-0.6-0.5-1.1
			c0-0.5,0.2-0.8,0.5-1.1c0.3-0.2,0.7-0.4,1.1-0.4c0.6,0,1.1,0.2,1.4,0.6v-0.8c0-0.3-0.1-0.5-0.3-0.7c-0.2-0.2-0.5-0.2-0.8-0.2
			c-0.5,0-1,0.2-1.3,0.6l-0.3-0.5c0.5-0.5,1-0.7,1.7-0.7c0.5,0,0.9,0.1,1.2,0.4c0.3,0.2,0.5,0.6,0.5,1.1V24.8z M243.3,24.5
			c0.5,0,0.9-0.2,1.2-0.5v-0.8c-0.3-0.4-0.7-0.5-1.2-0.5c-0.3,0-0.6,0.1-0.8,0.3s-0.3,0.4-0.3,0.7c0,0.3,0.1,0.5,0.3,0.7
			S243,24.5,243.3,24.5z"/>
	</g>
	<g>
		<path class="st1" d="M208.1,71.3h-0.9l-0.5-1.3h-3l-0.5,1.3h-0.9l2.4-6h0.9L208.1,71.3z M206.5,69.3l-1.3-3.2l-1.3,3.2H206.5z"/>
		<path class="st1" d="M209.5,71.3h-0.7v-6h0.7V71.3z"/>
		<path class="st1" d="M211.6,71.3h-0.7v-6h0.7v2.3c0.4-0.5,0.9-0.8,1.5-0.8c0.6,0,1,0.2,1.4,0.6s0.5,1,0.5,1.7
			c0,0.7-0.2,1.2-0.5,1.7c-0.4,0.4-0.8,0.6-1.4,0.6c-0.6,0-1.1-0.3-1.5-0.8V71.3z M211.6,70.1c0.1,0.2,0.3,0.4,0.5,0.5
			s0.5,0.2,0.8,0.2c0.4,0,0.8-0.2,1-0.5c0.3-0.3,0.4-0.7,0.4-1.2s-0.1-0.9-0.4-1.2c-0.3-0.3-0.6-0.5-1-0.5c-0.3,0-0.5,0.1-0.8,0.2
			c-0.2,0.1-0.4,0.3-0.5,0.5V70.1z"/>
		<path class="st1" d="M219.5,71.3h-0.7v-0.5c-0.4,0.4-0.8,0.6-1.4,0.6c-0.4,0-0.8-0.1-1.1-0.4c-0.3-0.3-0.5-0.6-0.5-1.1
			c0-0.5,0.2-0.8,0.5-1.1c0.3-0.2,0.7-0.4,1.1-0.4c0.6,0,1.1,0.2,1.4,0.6v-0.8c0-0.3-0.1-0.5-0.3-0.7s-0.5-0.2-0.8-0.2
			c-0.5,0-1,0.2-1.3,0.6l-0.3-0.5c0.5-0.5,1-0.7,1.7-0.7c0.5,0,0.9,0.1,1.2,0.4c0.3,0.2,0.5,0.6,0.5,1.1V71.3z M217.6,70.9
			c0.5,0,0.9-0.2,1.2-0.5v-0.8c-0.3-0.4-0.7-0.5-1.2-0.5c-0.3,0-0.6,0.1-0.8,0.3s-0.3,0.4-0.3,0.7c0,0.3,0.1,0.5,0.3,0.7
			S217.3,70.9,217.6,70.9z"/>
		<path class="st1" d="M224.4,71.3h-0.7v-2.8c0-0.4-0.1-0.6-0.3-0.8c-0.2-0.2-0.4-0.2-0.7-0.2c-0.3,0-0.5,0.1-0.7,0.2
			s-0.4,0.3-0.6,0.5v3.2h-0.7V67h0.7v0.6c0.2-0.2,0.4-0.4,0.7-0.5c0.3-0.1,0.6-0.2,0.9-0.2c0.9,0,1.4,0.5,1.4,1.4V71.3z"/>
		<path class="st1" d="M226.1,66.3c-0.1,0-0.2,0-0.3-0.1s-0.1-0.2-0.1-0.3s0-0.2,0.1-0.3s0.2-0.1,0.3-0.1c0.1,0,0.2,0,0.3,0.1
			s0.1,0.2,0.1,0.3s0,0.2-0.1,0.3S226.2,66.3,226.1,66.3z M226.4,71.3h-0.7V67h0.7V71.3z"/>
		<path class="st1" d="M231.2,71.3h-0.7v-0.5c-0.4,0.4-0.8,0.6-1.4,0.6c-0.4,0-0.8-0.1-1.1-0.4c-0.3-0.3-0.5-0.6-0.5-1.1
			c0-0.5,0.2-0.8,0.5-1.1c0.3-0.2,0.7-0.4,1.1-0.4c0.6,0,1.1,0.2,1.4,0.6v-0.8c0-0.3-0.1-0.5-0.3-0.7c-0.2-0.2-0.5-0.2-0.8-0.2
			c-0.5,0-1,0.2-1.3,0.6l-0.3-0.5c0.5-0.5,1-0.7,1.7-0.7c0.5,0,0.9,0.1,1.2,0.4c0.3,0.2,0.5,0.6,0.5,1.1V71.3z M229.3,70.9
			c0.5,0,0.9-0.2,1.2-0.5v-0.8c-0.3-0.4-0.7-0.5-1.2-0.5c-0.3,0-0.6,0.1-0.8,0.3s-0.3,0.4-0.3,0.7c0,0.3,0.1,0.5,0.3,0.7
			S229,70.9,229.3,70.9z"/>
	</g>
	<g>
		<path class="st1" d="M204.9,107.1c-1,0-1.7-0.3-2.3-1l0.4-0.6c0.5,0.6,1.1,0.9,1.9,0.9c0.5,0,0.8-0.1,1.1-0.3
			c0.2-0.2,0.3-0.4,0.3-0.7c0-0.2-0.1-0.4-0.2-0.5c-0.1-0.1-0.3-0.3-0.5-0.3s-0.4-0.2-0.7-0.2c-0.3-0.1-0.5-0.1-0.8-0.2
			c-0.3-0.1-0.5-0.2-0.7-0.3c-0.2-0.1-0.4-0.3-0.5-0.5s-0.2-0.5-0.2-0.7c0-0.5,0.2-0.9,0.6-1.2c0.4-0.3,0.9-0.5,1.5-0.5
			c0.9,0,1.6,0.3,2.1,0.8l-0.5,0.5c-0.4-0.5-1-0.7-1.7-0.7c-0.4,0-0.7,0.1-0.9,0.3c-0.2,0.2-0.3,0.4-0.3,0.7c0,0.2,0.1,0.4,0.3,0.5
			c0.2,0.1,0.4,0.2,0.7,0.3c0.3,0.1,0.5,0.1,0.9,0.2c0.3,0.1,0.6,0.2,0.9,0.3c0.3,0.1,0.5,0.3,0.7,0.5c0.2,0.2,0.3,0.5,0.3,0.9
			c0,0.5-0.2,0.9-0.5,1.3C206.2,107,205.7,107.1,204.9,107.1z"/>
		<path class="st1" d="M210.2,107.1c-0.6,0-1.2-0.2-1.6-0.6s-0.6-1-0.6-1.7c0-0.6,0.2-1.2,0.6-1.6c0.4-0.4,0.9-0.7,1.5-0.7
			c0.6,0,1.2,0.2,1.5,0.7c0.4,0.4,0.6,1,0.6,1.7v0.2h-3.5c0,0.4,0.2,0.8,0.5,1.1c0.3,0.3,0.6,0.4,1.1,0.4c0.5,0,1-0.2,1.3-0.5
			l0.3,0.4C211.5,106.9,210.9,107.1,210.2,107.1z M211.5,104.6c0-0.4-0.1-0.7-0.4-1s-0.6-0.4-1.1-0.4c-0.4,0-0.8,0.1-1,0.4
			c-0.2,0.3-0.4,0.6-0.4,1H211.5z"/>
		<path class="st1" d="M214,107h-0.7v-4.3h0.7v0.7c0.4-0.5,0.9-0.8,1.4-0.8v0.7c-0.1,0-0.2,0-0.3,0c-0.2,0-0.4,0.1-0.7,0.2
			c-0.2,0.1-0.4,0.3-0.5,0.5V107z"/>
		<path class="st1" d="M216.9,107h-0.7v-6h0.7v2.3c0.4-0.5,0.9-0.8,1.5-0.8c0.6,0,1,0.2,1.4,0.6c0.4,0.4,0.5,1,0.5,1.7
			c0,0.7-0.2,1.2-0.5,1.7c-0.4,0.4-0.8,0.6-1.4,0.6c-0.6,0-1.1-0.3-1.5-0.8V107z M216.9,105.8c0.1,0.2,0.3,0.4,0.5,0.5
			c0.2,0.1,0.5,0.2,0.8,0.2c0.4,0,0.8-0.2,1-0.5c0.3-0.3,0.4-0.7,0.4-1.2s-0.1-0.9-0.4-1.2c-0.3-0.3-0.6-0.5-1-0.5
			c-0.3,0-0.5,0.1-0.8,0.2c-0.2,0.1-0.4,0.3-0.5,0.5V105.8z"/>
		<path class="st1" d="M221.8,102.1c-0.1,0-0.2,0-0.3-0.1c-0.1-0.1-0.1-0.2-0.1-0.3s0-0.2,0.1-0.3c0.1-0.1,0.2-0.1,0.3-0.1
			c0.1,0,0.2,0,0.3,0.1c0.1,0.1,0.1,0.2,0.1,0.3s0,0.2-0.1,0.3C222,102,221.9,102.1,221.8,102.1z M222.1,107h-0.7v-4.3h0.7V107z"/>
		<path class="st1" d="M226.8,107h-0.7v-0.5c-0.4,0.4-0.8,0.6-1.4,0.6c-0.4,0-0.8-0.1-1.1-0.4c-0.3-0.3-0.5-0.6-0.5-1.1
			c0-0.5,0.2-0.8,0.5-1.1c0.3-0.2,0.7-0.4,1.1-0.4c0.6,0,1.1,0.2,1.4,0.6v-0.8c0-0.3-0.1-0.5-0.3-0.7s-0.5-0.2-0.8-0.2
			c-0.5,0-1,0.2-1.3,0.6l-0.3-0.5c0.5-0.5,1-0.7,1.7-0.7c0.5,0,0.9,0.1,1.2,0.4c0.3,0.2,0.5,0.6,0.5,1.1V107z M225,106.7
			c0.5,0,0.9-0.2,1.2-0.5v-0.8c-0.3-0.4-0.7-0.5-1.2-0.5c-0.3,0-0.6,0.1-0.8,0.3c-0.2,0.2-0.3,0.4-0.3,0.7c0,0.3,0.1,0.5,0.3,0.7
			C224.4,106.6,224.7,106.7,225,106.7z"/>
	</g>
	<g>
		<path class="st1" d="M207.5,145.4h-0.9l-2.3-2.7l-0.6,0.7v2H203v-6h0.7v3.1l2.7-3.1h0.9l-2.5,2.9L207.5,145.4z"/>
		<path class="st1" d="M211.5,144.8c-0.4,0.4-0.9,0.7-1.6,0.7s-1.2-0.2-1.6-0.7c-0.4-0.4-0.6-1-0.6-1.6c0-0.6,0.2-1.2,0.6-1.6
			c0.4-0.4,0.9-0.7,1.6-0.7s1.2,0.2,1.6,0.7c0.4,0.4,0.6,1,0.6,1.6C212.1,143.8,211.9,144.4,211.5,144.8z M208.9,144.4
			c0.3,0.3,0.6,0.5,1.1,0.5c0.4,0,0.8-0.2,1.1-0.5s0.4-0.7,0.4-1.2c0-0.5-0.1-0.9-0.4-1.2s-0.6-0.5-1.1-0.5c-0.4,0-0.8,0.2-1.1,0.5
			s-0.4,0.7-0.4,1.2C208.5,143.7,208.6,144.1,208.9,144.4z"/>
		<path class="st1" d="M214.6,145.5c-0.7,0-1.3-0.2-1.8-0.7l0.4-0.5c0.1,0.2,0.4,0.3,0.6,0.4c0.3,0.1,0.5,0.2,0.8,0.2
			c0.3,0,0.6-0.1,0.8-0.2c0.2-0.1,0.3-0.3,0.3-0.5c0-0.2-0.1-0.3-0.3-0.5c-0.2-0.1-0.4-0.2-0.7-0.3c-0.3-0.1-0.5-0.1-0.8-0.2
			s-0.5-0.2-0.7-0.4c-0.2-0.2-0.3-0.4-0.3-0.7c0-0.4,0.1-0.7,0.4-0.9c0.3-0.2,0.7-0.4,1.2-0.4c0.7,0,1.2,0.2,1.6,0.6l-0.3,0.5
			c-0.3-0.4-0.7-0.5-1.3-0.5c-0.3,0-0.5,0.1-0.7,0.2c-0.2,0.1-0.3,0.3-0.3,0.5c0,0.2,0.1,0.3,0.3,0.4c0.2,0.1,0.4,0.2,0.7,0.2
			c0.3,0.1,0.5,0.1,0.8,0.2c0.3,0.1,0.5,0.2,0.7,0.4s0.3,0.4,0.3,0.8c0,0.4-0.2,0.7-0.5,0.9C215.5,145.3,215.1,145.5,214.6,145.5z"
			/>
		<path class="st1" d="M220.8,144.8c-0.4,0.4-0.9,0.7-1.6,0.7c-0.6,0-1.2-0.2-1.6-0.7c-0.4-0.4-0.6-1-0.6-1.6c0-0.6,0.2-1.2,0.6-1.6
			c0.4-0.4,0.9-0.7,1.6-0.7c0.6,0,1.2,0.2,1.6,0.7c0.4,0.4,0.6,1,0.6,1.6C221.4,143.8,221.2,144.4,220.8,144.8z M218.2,144.4
			c0.3,0.3,0.6,0.5,1.1,0.5s0.8-0.2,1.1-0.5s0.4-0.7,0.4-1.2c0-0.5-0.1-0.9-0.4-1.2s-0.6-0.5-1.1-0.5s-0.8,0.2-1.1,0.5
			c-0.3,0.3-0.4,0.7-0.4,1.2C217.8,143.7,218,144.1,218.2,144.4z"/>
		<path class="st1" d="M224.4,145.4h-0.7l-1.8-4.3h0.7l1.4,3.6l1.4-3.6h0.7L224.4,145.4z"/>
		<path class="st1" d="M230.4,144.8c-0.4,0.4-0.9,0.7-1.6,0.7s-1.2-0.2-1.6-0.7c-0.4-0.4-0.6-1-0.6-1.6c0-0.6,0.2-1.2,0.6-1.6
			c0.4-0.4,0.9-0.7,1.6-0.7s1.2,0.2,1.6,0.7c0.4,0.4,0.6,1,0.6,1.6C231,143.8,230.8,144.4,230.4,144.8z M227.8,144.4
			c0.3,0.3,0.6,0.5,1.1,0.5c0.4,0,0.8-0.2,1.1-0.5s0.4-0.7,0.4-1.2c0-0.5-0.1-0.9-0.4-1.2s-0.6-0.5-1.1-0.5c-0.4,0-0.8,0.2-1.1,0.5
			c-0.3,0.3-0.4,0.7-0.4,1.2C227.4,143.7,227.5,144.1,227.8,144.4z"/>
	</g>
	<g>
		<path class="st1" d="M44.6,37h-3.9v-6h3.9v0.7h-3.2v1.9h3.1v0.7h-3.1v2.1h3.2V37z"/>
		<path class="st1" d="M46.4,37h-0.7v-4.3h0.7v0.7c0.4-0.5,0.9-0.8,1.4-0.8v0.7c-0.1,0-0.2,0-0.3,0c-0.2,0-0.4,0.1-0.7,0.2
			c-0.2,0.1-0.4,0.3-0.5,0.5V37z"/>
		<path class="st1" d="M49.1,32c-0.1,0-0.2,0-0.3-0.1c-0.1-0.1-0.1-0.2-0.1-0.3s0-0.2,0.1-0.3c0.1-0.1,0.2-0.1,0.3-0.1
			c0.1,0,0.2,0,0.3,0.1s0.1,0.2,0.1,0.3s0,0.2-0.1,0.3S49.2,32,49.1,32z M49.4,37h-0.7v-4.3h0.7V37z"/>
		<path class="st1" d="M51.9,37.1c-0.3,0-0.6-0.1-0.7-0.3c-0.2-0.2-0.2-0.4-0.2-0.8v-2.8h-0.7v-0.6h0.7v-1.2h0.7v1.2h0.9v0.6h-0.9
			v2.7c0,0.2,0,0.3,0.1,0.4c0.1,0.1,0.2,0.2,0.3,0.2c0.2,0,0.4-0.1,0.5-0.2l0.2,0.5C52.5,37,52.2,37.1,51.9,37.1z"/>
		<path class="st1" d="M54.1,37h-0.7v-4.3h0.7v0.7c0.4-0.5,0.9-0.8,1.4-0.8v0.7c-0.1,0-0.2,0-0.3,0c-0.2,0-0.4,0.1-0.7,0.2
			c-0.2,0.1-0.4,0.3-0.5,0.5V37z"/>
		<path class="st1" d="M58.3,37.1c-0.6,0-1.2-0.2-1.6-0.6c-0.4-0.4-0.6-1-0.6-1.7c0-0.6,0.2-1.2,0.6-1.6c0.4-0.4,0.9-0.7,1.5-0.7
			c0.6,0,1.2,0.2,1.5,0.7c0.4,0.4,0.6,1,0.6,1.7V35h-3.5c0,0.4,0.2,0.8,0.5,1.1c0.3,0.3,0.6,0.4,1.1,0.4c0.5,0,1-0.2,1.3-0.5
			l0.3,0.4C59.6,36.9,59,37.1,58.3,37.1z M59.7,34.5c0-0.4-0.1-0.7-0.4-1c-0.2-0.3-0.6-0.4-1.1-0.4c-0.4,0-0.8,0.1-1,0.4
			c-0.2,0.3-0.4,0.6-0.4,1H59.7z"/>
		<path class="st1" d="M64.8,37h-0.7v-0.5c-0.4,0.4-0.8,0.6-1.4,0.6c-0.4,0-0.8-0.1-1.1-0.4c-0.3-0.3-0.5-0.6-0.5-1.1
			c0-0.5,0.2-0.8,0.5-1.1c0.3-0.2,0.7-0.4,1.1-0.4c0.6,0,1.1,0.2,1.4,0.6V34c0-0.3-0.1-0.5-0.3-0.7c-0.2-0.2-0.5-0.2-0.8-0.2
			c-0.5,0-1,0.2-1.3,0.6l-0.3-0.5c0.5-0.5,1-0.7,1.7-0.7c0.5,0,0.9,0.1,1.2,0.4c0.3,0.2,0.5,0.6,0.5,1.1V37z M63,36.6
			c0.5,0,0.9-0.2,1.2-0.5v-0.8c-0.3-0.4-0.7-0.5-1.2-0.5c-0.3,0-0.6,0.1-0.8,0.3s-0.3,0.4-0.3,0.7c0,0.3,0.1,0.5,0.3,0.7
			S62.7,36.6,63,36.6z"/>
	</g>
	<g>
		<path class="st1" d="M128.4,7.4h-0.7v-6h0.7V7.4z"/>
		<path class="st1" d="M130.5,7.4h-0.7V3h0.7v0.7c0.4-0.5,0.9-0.8,1.4-0.8v0.7c-0.1,0-0.2,0-0.3,0c-0.2,0-0.4,0.1-0.7,0.2
			c-0.2,0.1-0.4,0.3-0.5,0.5V7.4z"/>
		<path class="st1" d="M136.2,7.4h-0.7V6.9c-0.4,0.4-0.8,0.6-1.4,0.6c-0.4,0-0.8-0.1-1.1-0.4c-0.3-0.3-0.5-0.6-0.5-1.1
			c0-0.5,0.2-0.8,0.5-1.1c0.3-0.2,0.7-0.4,1.1-0.4c0.6,0,1.1,0.2,1.4,0.6V4.4c0-0.3-0.1-0.5-0.3-0.7s-0.5-0.2-0.8-0.2
			c-0.5,0-1,0.2-1.3,0.6l-0.3-0.5c0.5-0.5,1-0.7,1.7-0.7c0.5,0,0.9,0.1,1.2,0.4c0.3,0.2,0.5,0.6,0.5,1.1V7.4z M134.3,7
			c0.5,0,0.9-0.2,1.2-0.5V5.6c-0.3-0.4-0.7-0.5-1.2-0.5c-0.3,0-0.6,0.1-0.8,0.3c-0.2,0.2-0.3,0.4-0.3,0.7c0,0.3,0.1,0.5,0.3,0.7
			C133.7,6.9,134,7,134.3,7z"/>
		<path class="st1" d="M139.2,7.5c-0.6,0-1-0.2-1.4-0.6c-0.4-0.4-0.5-1-0.5-1.7s0.2-1.2,0.5-1.7c0.4-0.4,0.8-0.6,1.4-0.6
			c0.3,0,0.6,0.1,0.8,0.2c0.3,0.1,0.5,0.3,0.6,0.5V3h0.7v6h-0.7V6.7C140.3,7.2,139.8,7.5,139.2,7.5z M139.3,6.9
			c0.3,0,0.5-0.1,0.8-0.2c0.2-0.1,0.4-0.3,0.5-0.5v-2c-0.1-0.2-0.3-0.4-0.5-0.5c-0.2-0.1-0.5-0.2-0.8-0.2c-0.4,0-0.8,0.2-1,0.5
			c-0.2,0.3-0.4,0.7-0.4,1.2s0.1,0.9,0.4,1.2C138.6,6.7,138.9,6.9,139.3,6.9z"/>
	</g>
	<g>
		<path class="st1" d="M48.8,173.5c-1,0-1.7-0.3-2.3-1l0.4-0.6c0.5,0.6,1.1,0.9,1.9,0.9c0.5,0,0.8-0.1,1.1-0.3s0.3-0.4,0.3-0.7
			c0-0.2-0.1-0.4-0.2-0.5c-0.1-0.1-0.3-0.3-0.5-0.3s-0.4-0.2-0.7-0.2c-0.3-0.1-0.5-0.1-0.8-0.2s-0.5-0.2-0.7-0.3s-0.4-0.3-0.5-0.5
			c-0.1-0.2-0.2-0.5-0.2-0.7c0-0.5,0.2-0.9,0.6-1.2c0.4-0.3,0.9-0.5,1.5-0.5c0.9,0,1.6,0.3,2.1,0.8l-0.4,0.5c-0.4-0.5-1-0.7-1.7-0.7
			c-0.4,0-0.7,0.1-0.9,0.3c-0.2,0.2-0.3,0.4-0.3,0.7c0,0.2,0.1,0.4,0.3,0.5c0.2,0.1,0.4,0.2,0.7,0.3c0.3,0.1,0.5,0.1,0.9,0.2
			c0.3,0.1,0.6,0.2,0.9,0.3c0.3,0.1,0.5,0.3,0.7,0.5s0.3,0.5,0.3,0.9c0,0.5-0.2,0.9-0.5,1.3S49.5,173.5,48.8,173.5z"/>
		<path class="st1" d="M51.8,175.1l0.1-0.6c0.1,0,0.2,0.1,0.4,0.1c0.2,0,0.3,0,0.4-0.1c0.1-0.1,0.2-0.2,0.3-0.4l0.3-0.7l-1.8-4.4
			h0.7l1.4,3.6L55,169h0.7l-2.2,5.2c-0.2,0.6-0.7,0.9-1.3,0.9C52.1,175.2,51.9,175.1,51.8,175.1z"/>
		<path class="st1" d="M57.1,173.4h-0.7V169h0.7v0.7c0.4-0.5,0.9-0.8,1.4-0.8v0.7c-0.1,0-0.2,0-0.3,0c-0.2,0-0.4,0.1-0.7,0.2
			c-0.2,0.1-0.4,0.3-0.5,0.5V173.4z"/>
		<path class="st1" d="M59.8,168.4c-0.1,0-0.2,0-0.3-0.1s-0.1-0.2-0.1-0.3s0-0.2,0.1-0.3s0.2-0.1,0.3-0.1c0.1,0,0.2,0,0.3,0.1
			s0.1,0.2,0.1,0.3s0,0.2-0.1,0.3S59.9,168.4,59.8,168.4z M60.1,173.4h-0.7V169h0.7V173.4z"/>
		<path class="st1" d="M64.8,173.4h-0.7v-0.5c-0.4,0.4-0.8,0.6-1.4,0.6c-0.4,0-0.8-0.1-1.1-0.4c-0.3-0.3-0.5-0.6-0.5-1.1
			c0-0.5,0.2-0.8,0.5-1.1c0.3-0.2,0.7-0.4,1.1-0.4c0.6,0,1.1,0.2,1.4,0.6v-0.8c0-0.3-0.1-0.5-0.3-0.7c-0.2-0.2-0.5-0.2-0.8-0.2
			c-0.5,0-1,0.2-1.3,0.6l-0.3-0.5c0.5-0.5,1-0.7,1.7-0.7c0.5,0,0.9,0.1,1.2,0.4c0.3,0.2,0.5,0.6,0.5,1.1V173.4z M63,173
			c0.5,0,0.9-0.2,1.2-0.5v-0.8c-0.3-0.4-0.7-0.5-1.2-0.5c-0.3,0-0.6,0.1-0.8,0.3s-0.3,0.4-0.3,0.7c0,0.3,0.1,0.5,0.3,0.7
			S62.7,173,63,173z"/>
	</g>
	<g>
		<path class="st1" d="M24.6,70.8h-0.9l-0.5-1.3h-3l-0.5,1.3h-0.9l2.4-6h0.9L24.6,70.8z M23,68.8l-1.3-3.2l-1.3,3.2H23z"/>
		<path class="st1" d="M26.1,70.8h-0.7v-3.8h-0.7v-0.6h0.7v-0.3c0-0.4,0.1-0.8,0.3-1s0.5-0.4,0.9-0.4c0.4,0,0.7,0.1,0.9,0.3
			l-0.3,0.4c-0.2-0.1-0.3-0.2-0.5-0.2c-0.2,0-0.4,0.1-0.5,0.2c-0.1,0.1-0.2,0.4-0.2,0.6v0.3H27v0.6h-0.9V70.8z"/>
		<path class="st1" d="M29.5,72.6c-0.4,0-0.7,0-1-0.1S28,72.2,27.8,72l0.3-0.5c0.3,0.4,0.8,0.6,1.4,0.6c0.4,0,0.7-0.1,1-0.3
			c0.3-0.2,0.4-0.5,0.4-1v-0.6c-0.2,0.2-0.4,0.4-0.6,0.6c-0.3,0.1-0.5,0.2-0.8,0.2c-0.6,0-1-0.2-1.4-0.6s-0.5-1-0.5-1.6
			c0-0.7,0.2-1.2,0.5-1.6c0.4-0.4,0.8-0.6,1.4-0.6c0.6,0,1.1,0.3,1.5,0.8v-0.7h0.7v4.2c0,0.7-0.2,1.1-0.6,1.4S30.1,72.6,29.5,72.6z
			 M29.6,70.3c0.3,0,0.5-0.1,0.8-0.2c0.2-0.1,0.4-0.3,0.5-0.5v-1.9c-0.1-0.2-0.3-0.4-0.5-0.5c-0.2-0.1-0.5-0.2-0.8-0.2
			c-0.4,0-0.8,0.2-1,0.5c-0.2,0.3-0.4,0.7-0.4,1.2c0,0.5,0.1,0.9,0.4,1.2C28.9,70.1,29.2,70.3,29.6,70.3z"/>
		<path class="st1" d="M36.6,70.8h-0.7V68c0-0.4-0.1-0.6-0.3-0.8c-0.2-0.2-0.4-0.2-0.7-0.2c-0.2,0-0.5,0.1-0.7,0.2
			c-0.2,0.1-0.4,0.3-0.6,0.5v3.2H33v-6h0.7v2.3c0.2-0.2,0.4-0.4,0.7-0.5c0.3-0.1,0.6-0.2,0.9-0.2c0.9,0,1.4,0.5,1.4,1.4V70.8z"/>
		<path class="st1" d="M41.3,70.8h-0.7v-0.5c-0.4,0.4-0.8,0.6-1.4,0.6c-0.4,0-0.8-0.1-1.1-0.4s-0.5-0.6-0.5-1.1
			c0-0.5,0.2-0.8,0.5-1.1s0.7-0.4,1.1-0.4c0.6,0,1.1,0.2,1.4,0.6v-0.8c0-0.3-0.1-0.5-0.3-0.7c-0.2-0.2-0.5-0.2-0.8-0.2
			c-0.5,0-1,0.2-1.3,0.6l-0.3-0.5c0.5-0.5,1-0.7,1.7-0.7c0.5,0,0.9,0.1,1.2,0.4c0.3,0.2,0.5,0.6,0.5,1.1V70.8z M39.4,70.5
			c0.5,0,0.9-0.2,1.2-0.5v-0.8c-0.3-0.4-0.7-0.5-1.2-0.5c-0.3,0-0.6,0.1-0.8,0.3c-0.2,0.2-0.3,0.4-0.3,0.7c0,0.3,0.1,0.5,0.3,0.7
			C38.9,70.4,39.1,70.5,39.4,70.5z"/>
		<path class="st1" d="M46.3,70.8h-0.7V68c0-0.4-0.1-0.6-0.3-0.8c-0.2-0.2-0.4-0.2-0.7-0.2c-0.3,0-0.5,0.1-0.7,0.2
			c-0.2,0.1-0.4,0.3-0.6,0.5v3.2h-0.7v-4.3h0.7v0.6c0.2-0.2,0.4-0.4,0.7-0.5c0.3-0.1,0.6-0.2,0.9-0.2c0.9,0,1.4,0.5,1.4,1.4V70.8z"
			/>
		<path class="st1" d="M48,65.9c-0.1,0-0.2,0-0.3-0.1c-0.1-0.1-0.1-0.2-0.1-0.3s0-0.2,0.1-0.3C47.7,65,47.8,65,48,65
			c0.1,0,0.2,0,0.3,0.1s0.1,0.2,0.1,0.3s0,0.2-0.1,0.3S48.1,65.9,48,65.9z M48.3,70.8h-0.7v-4.3h0.7V70.8z"/>
		<path class="st1" d="M51,71c-0.7,0-1.3-0.2-1.8-0.7l0.4-0.5c0.2,0.2,0.4,0.3,0.6,0.4c0.3,0.1,0.5,0.2,0.8,0.2
			c0.3,0,0.6-0.1,0.8-0.2c0.2-0.1,0.3-0.3,0.3-0.5c0-0.2-0.1-0.3-0.3-0.5c-0.2-0.1-0.4-0.2-0.7-0.3c-0.3-0.1-0.5-0.1-0.8-0.2
			s-0.5-0.2-0.7-0.4c-0.2-0.2-0.3-0.4-0.3-0.7c0-0.4,0.1-0.7,0.4-0.9c0.3-0.2,0.7-0.4,1.2-0.4c0.7,0,1.2,0.2,1.6,0.6l-0.3,0.5
			c-0.3-0.4-0.7-0.5-1.3-0.5c-0.3,0-0.5,0.1-0.7,0.2c-0.2,0.1-0.3,0.3-0.3,0.5c0,0.2,0.1,0.3,0.3,0.4c0.2,0.1,0.4,0.2,0.7,0.2
			c0.3,0.1,0.5,0.1,0.8,0.2s0.5,0.2,0.7,0.4c0.2,0.2,0.3,0.4,0.3,0.8c0,0.4-0.2,0.7-0.5,0.9C52,70.8,51.6,71,51,71z"/>
		<path class="st1" d="M54.9,71c-0.3,0-0.6-0.1-0.7-0.3c-0.2-0.2-0.2-0.4-0.2-0.8v-2.8h-0.7v-0.6H54v-1.2h0.7v1.2h0.9v0.6h-0.9v2.7
			c0,0.2,0,0.3,0.1,0.4c0.1,0.1,0.2,0.2,0.3,0.2c0.2,0,0.4-0.1,0.5-0.2l0.2,0.5C55.6,70.9,55.3,71,54.9,71z"/>
		<path class="st1" d="M59.9,70.8h-0.7v-0.5c-0.4,0.4-0.8,0.6-1.4,0.6c-0.4,0-0.8-0.1-1.1-0.4c-0.3-0.3-0.5-0.6-0.5-1.1
			c0-0.5,0.2-0.8,0.5-1.1s0.7-0.4,1.1-0.4c0.6,0,1.1,0.2,1.4,0.6v-0.8c0-0.3-0.1-0.5-0.3-0.7S58.4,67,58.1,67c-0.5,0-1,0.2-1.3,0.6
			l-0.3-0.5c0.5-0.5,1-0.7,1.7-0.7c0.5,0,0.9,0.1,1.2,0.4c0.3,0.2,0.5,0.6,0.5,1.1V70.8z M58,70.5c0.5,0,0.9-0.2,1.2-0.5v-0.8
			c-0.3-0.4-0.7-0.5-1.2-0.5c-0.3,0-0.6,0.1-0.8,0.3c-0.2,0.2-0.3,0.4-0.3,0.7c0,0.3,0.1,0.5,0.3,0.7C57.4,70.4,57.7,70.5,58,70.5z"
			/>
		<path class="st1" d="M64.8,70.8h-0.7V68c0-0.4-0.1-0.6-0.3-0.8c-0.2-0.2-0.4-0.2-0.7-0.2c-0.3,0-0.5,0.1-0.7,0.2
			c-0.2,0.1-0.4,0.3-0.6,0.5v3.2h-0.7v-4.3h0.7v0.6c0.2-0.2,0.4-0.4,0.7-0.5c0.3-0.1,0.6-0.2,0.9-0.2c0.9,0,1.4,0.5,1.4,1.4V70.8z"
			/>
	</g>
	<g>
		<path class="st1" d="M52.1,105h-0.7v-6h0.7V105z"/>
		<path class="st1" d="M54.2,105h-0.7v-4.3h0.7v0.7c0.4-0.5,0.9-0.8,1.4-0.8v0.7c-0.1,0-0.2,0-0.3,0c-0.2,0-0.4,0.1-0.7,0.2
			c-0.2,0.1-0.4,0.3-0.5,0.5V105z"/>
		<path class="st1" d="M59.9,105h-0.7v-0.5c-0.4,0.4-0.8,0.6-1.4,0.6c-0.4,0-0.8-0.1-1.1-0.4c-0.3-0.3-0.5-0.6-0.5-1.1
			c0-0.5,0.2-0.8,0.5-1.1c0.3-0.2,0.7-0.4,1.1-0.4c0.6,0,1.1,0.2,1.4,0.6v-0.8c0-0.3-0.1-0.5-0.3-0.7c-0.2-0.2-0.5-0.2-0.8-0.2
			c-0.5,0-1,0.2-1.3,0.6l-0.3-0.5c0.5-0.5,1-0.7,1.7-0.7c0.5,0,0.9,0.1,1.2,0.4s0.5,0.6,0.5,1.1V105z M58,104.6
			c0.5,0,0.9-0.2,1.2-0.5v-0.8c-0.3-0.4-0.7-0.5-1.2-0.5c-0.3,0-0.6,0.1-0.8,0.3c-0.2,0.2-0.3,0.4-0.3,0.7c0,0.3,0.1,0.5,0.3,0.7
			C57.4,104.6,57.7,104.6,58,104.6z"/>
		<path class="st1" d="M64.8,105h-0.7v-2.8c0-0.4-0.1-0.6-0.3-0.8c-0.2-0.2-0.4-0.2-0.7-0.2c-0.3,0-0.5,0.1-0.7,0.2
			c-0.2,0.1-0.4,0.3-0.6,0.5v3.2h-0.7v-4.3h0.7v0.6c0.2-0.2,0.4-0.4,0.7-0.5c0.3-0.1,0.6-0.2,0.9-0.2c0.9,0,1.4,0.5,1.4,1.4V105z"/>
	</g>
	<g>
		<path class="st1" d="M33.9,138.4h-0.7v-6h2.4c0.6,0,1,0.2,1.4,0.5c0.3,0.3,0.5,0.8,0.5,1.3c0,0.5-0.2,0.9-0.5,1.3
			c-0.3,0.3-0.8,0.5-1.4,0.5h-1.7V138.4z M35.5,135.3c0.4,0,0.6-0.1,0.9-0.3c0.2-0.2,0.3-0.5,0.3-0.8s-0.1-0.6-0.3-0.8
			c-0.2-0.2-0.5-0.3-0.9-0.3h-1.6v2.3H35.5z"/>
		<path class="st1" d="M41.7,138.4H41v-0.5c-0.4,0.4-0.8,0.6-1.4,0.6c-0.4,0-0.8-0.1-1.1-0.4c-0.3-0.3-0.5-0.6-0.5-1.1
			c0-0.5,0.2-0.8,0.5-1.1c0.3-0.2,0.7-0.4,1.1-0.4c0.6,0,1.1,0.2,1.4,0.6v-0.8c0-0.3-0.1-0.5-0.3-0.7c-0.2-0.2-0.5-0.2-0.8-0.2
			c-0.5,0-1,0.2-1.3,0.6l-0.3-0.5c0.5-0.5,1-0.7,1.7-0.7c0.5,0,0.9,0.1,1.2,0.4s0.5,0.6,0.5,1.1V138.4z M39.8,138
			c0.5,0,0.9-0.2,1.2-0.5v-0.8c-0.3-0.4-0.7-0.5-1.2-0.5c-0.3,0-0.6,0.1-0.8,0.3c-0.2,0.2-0.3,0.4-0.3,0.7c0,0.3,0.1,0.5,0.3,0.7
			C39.2,137.9,39.5,138,39.8,138z"/>
		<path class="st1" d="M46.8,138.4H46l-1.6-2l-0.7,0.7v1.2H43v-6h0.7v4L46,134h0.9l-1.9,2L46.8,138.4z"/>
		<path class="st1" d="M48,133.4c-0.1,0-0.2,0-0.3-0.1c-0.1-0.1-0.1-0.2-0.1-0.3s0-0.2,0.1-0.3c0.1-0.1,0.2-0.1,0.3-0.1
			c0.1,0,0.2,0,0.3,0.1c0.1,0.1,0.1,0.2,0.1,0.3s0,0.2-0.1,0.3C48.2,133.3,48.1,133.4,48,133.4z M48.3,138.4h-0.7V134h0.7V138.4z"/>
		<path class="st1" d="M51,138.5c-0.7,0-1.3-0.2-1.8-0.7l0.4-0.5c0.2,0.2,0.4,0.3,0.6,0.4c0.3,0.1,0.5,0.2,0.8,0.2
			c0.3,0,0.6-0.1,0.8-0.2c0.2-0.1,0.3-0.3,0.3-0.5c0-0.2-0.1-0.3-0.3-0.5c-0.2-0.1-0.4-0.2-0.7-0.3c-0.3-0.1-0.5-0.1-0.8-0.2
			c-0.3-0.1-0.5-0.2-0.7-0.4c-0.2-0.2-0.3-0.4-0.3-0.7c0-0.4,0.1-0.7,0.4-0.9s0.7-0.4,1.2-0.4c0.7,0,1.2,0.2,1.6,0.6l-0.3,0.5
			c-0.3-0.4-0.7-0.5-1.3-0.5c-0.3,0-0.5,0.1-0.7,0.2c-0.2,0.1-0.3,0.3-0.3,0.5c0,0.2,0.1,0.3,0.3,0.4c0.2,0.1,0.4,0.2,0.7,0.2
			s0.5,0.1,0.8,0.2s0.5,0.2,0.7,0.4c0.2,0.2,0.3,0.4,0.3,0.8c0,0.4-0.2,0.7-0.5,0.9C52,138.3,51.6,138.5,51,138.5z"/>
		<path class="st1" d="M54.9,138.5c-0.3,0-0.6-0.1-0.7-0.3c-0.2-0.2-0.2-0.4-0.2-0.8v-2.8h-0.7V134H54v-1.2h0.7v1.2h0.9v0.6h-0.9
			v2.7c0,0.2,0,0.3,0.1,0.4c0.1,0.1,0.2,0.2,0.3,0.2c0.2,0,0.4-0.1,0.5-0.2l0.2,0.5C55.6,138.4,55.3,138.5,54.9,138.5z"/>
		<path class="st1" d="M59.9,138.4h-0.7v-0.5c-0.4,0.4-0.8,0.6-1.4,0.6c-0.4,0-0.8-0.1-1.1-0.4c-0.3-0.3-0.5-0.6-0.5-1.1
			c0-0.5,0.2-0.8,0.5-1.1c0.3-0.2,0.7-0.4,1.1-0.4c0.6,0,1.1,0.2,1.4,0.6v-0.8c0-0.3-0.1-0.5-0.3-0.7s-0.5-0.2-0.8-0.2
			c-0.5,0-1,0.2-1.3,0.6l-0.3-0.5c0.5-0.5,1-0.7,1.7-0.7c0.5,0,0.9,0.1,1.2,0.4c0.3,0.2,0.5,0.6,0.5,1.1V138.4z M58,138
			c0.5,0,0.9-0.2,1.2-0.5v-0.8c-0.3-0.4-0.7-0.5-1.2-0.5c-0.3,0-0.6,0.1-0.8,0.3c-0.2,0.2-0.3,0.4-0.3,0.7c0,0.3,0.1,0.5,0.3,0.7
			C57.4,137.9,57.7,138,58,138z"/>
		<path class="st1" d="M64.8,138.4h-0.7v-2.8c0-0.4-0.1-0.6-0.3-0.8c-0.2-0.2-0.4-0.2-0.7-0.2c-0.3,0-0.5,0.1-0.7,0.2
			c-0.2,0.1-0.4,0.3-0.6,0.5v3.2h-0.7V134h0.7v0.6c0.2-0.2,0.4-0.4,0.7-0.5c0.3-0.1,0.6-0.2,0.9-0.2c0.9,0,1.4,0.5,1.4,1.4V138.4z"
			/>
	</g>
	<g>
		<path class="st0" d="M205.7,38.7c-1.3,0-2.4-0.4-3.1-1.3l0.8-1c0.6,0.7,1.3,1,2.2,1c0.5,0,0.9-0.1,1.2-0.4c0.3-0.3,0.5-0.6,0.5-1
			c0-0.5-0.2-0.8-0.5-1.1c-0.3-0.3-0.7-0.4-1.2-0.4c-0.7,0-1.3,0.2-1.8,0.7l-1-0.3v-4.7h5.5v1.3h-4v2.4c0.5-0.5,1.1-0.7,1.9-0.7
			c0.7,0,1.4,0.2,1.9,0.7c0.5,0.5,0.8,1.1,0.8,2c0,0.9-0.3,1.5-0.9,2.1C207.4,38.5,206.7,38.7,205.7,38.7z"/>
		<path class="st0" d="M213.4,38.7c-0.6,0-1.1-0.1-1.6-0.3c-0.4-0.2-0.8-0.5-1.1-0.9c-0.3-0.4-0.5-0.9-0.6-1.4
			c-0.1-0.5-0.2-1.1-0.2-1.7c0-1.3,0.3-2.3,1-3.1c0.6-0.8,1.5-1.2,2.7-1.2c1,0,1.8,0.3,2.4,0.9l-0.7,1.1c-0.5-0.5-1-0.7-1.7-0.7
			c-0.7,0-1.2,0.3-1.6,0.8s-0.6,1.2-0.6,1.9c0,0.1,0,0.2,0,0.2c0.2-0.3,0.5-0.6,0.9-0.8s0.8-0.4,1.3-0.4c0.8,0,1.5,0.2,2,0.7
			c0.5,0.5,0.8,1.1,0.8,2c0,0.8-0.3,1.5-0.9,2C215,38.5,214.3,38.7,213.4,38.7z M213.3,37.4c0.5,0,0.9-0.1,1.2-0.4
			c0.3-0.3,0.4-0.6,0.4-1c0-0.5-0.2-0.9-0.5-1.1c-0.3-0.3-0.7-0.4-1.2-0.4c-0.4,0-0.7,0.1-1,0.3c-0.3,0.2-0.6,0.4-0.8,0.7
			c0.1,0.5,0.2,1,0.5,1.4C212.3,37.2,212.7,37.4,213.3,37.4z"/>
		<path class="st0" d="M220.7,38.7c-1.3,0-2.4-0.4-3.1-1.3l0.8-1c0.6,0.7,1.3,1,2.2,1c0.5,0,0.9-0.1,1.2-0.4c0.3-0.3,0.5-0.6,0.5-1
			c0-0.5-0.2-0.8-0.5-1.1c-0.3-0.3-0.7-0.4-1.2-0.4c-0.7,0-1.3,0.2-1.8,0.7l-1-0.3v-4.7h5.5v1.3h-4v2.4c0.5-0.5,1.1-0.7,1.9-0.7
			c0.7,0,1.4,0.2,1.9,0.7c0.5,0.5,0.8,1.1,0.8,2c0,0.9-0.3,1.5-0.9,2.1C222.4,38.5,221.7,38.7,220.7,38.7z"/>
	</g>
	<g>
		<path class="st0" d="M205.8,85.3h-1.5v-6.4l-1.4,1.4l-0.8-0.9l2.4-2.4h1.3V85.3z"/>
		<path class="st0" d="M209.1,84.9c0,0.4-0.1,0.8-0.3,1.2c-0.2,0.4-0.5,0.7-0.9,0.9l-0.6-0.5c0.2-0.1,0.4-0.3,0.6-0.5
			c0.2-0.2,0.3-0.4,0.3-0.7c-0.1,0-0.1,0-0.2,0c-0.2,0-0.4-0.1-0.5-0.2c-0.1-0.1-0.2-0.3-0.2-0.6s0.1-0.4,0.2-0.6
			c0.2-0.2,0.4-0.3,0.6-0.3c0.3,0,0.5,0.1,0.7,0.3C209.1,84.2,209.1,84.5,209.1,84.9z"/>
		<path class="st0" d="M212,85.3h-1.6l3.2-7h-4.3V77h6v1L212,85.3z"/>
		<path class="st0" d="M221.3,85.3h-1.5v-1.9h-4v-1.2l3.4-5.3h2v5.2h1.1v1.3h-1.1V85.3z M219.8,82.2v-3.8l-2.5,3.8H219.8z"/>
		<path class="st0" d="M226.6,85.5c-1.3,0-2.4-0.4-3.1-1.3l0.8-1c0.6,0.7,1.3,1,2.2,1c0.5,0,0.9-0.1,1.2-0.4s0.5-0.6,0.5-1
			c0-0.5-0.2-0.8-0.5-1.1c-0.3-0.3-0.7-0.4-1.2-0.4c-0.7,0-1.3,0.2-1.8,0.7l-1-0.3V77h5.5v1.3h-4v2.4c0.5-0.5,1.1-0.7,1.9-0.7
			c0.7,0,1.4,0.2,1.9,0.7c0.5,0.5,0.8,1.1,0.8,2c0,0.9-0.3,1.5-0.9,2.1C228.3,85.2,227.5,85.5,226.6,85.5z"/>
	</g>
	<g>
		<path class="st0" d="M205.8,119.7h-1.5v-6.4l-1.4,1.4l-0.8-0.9l2.4-2.4h1.3V119.7z"/>
		<path class="st0" d="M209.1,119.2c0,0.4-0.1,0.8-0.3,1.2c-0.2,0.4-0.5,0.7-0.9,0.9l-0.6-0.5c0.2-0.1,0.4-0.3,0.6-0.5
			c0.2-0.2,0.3-0.4,0.3-0.7c-0.1,0-0.1,0-0.2,0c-0.2,0-0.4-0.1-0.5-0.2c-0.1-0.1-0.2-0.3-0.2-0.6s0.1-0.4,0.2-0.6
			c0.2-0.2,0.4-0.3,0.6-0.3c0.3,0,0.5,0.1,0.7,0.3C209.1,118.6,209.1,118.9,209.1,119.2z"/>
		<path class="st0" d="M213,119.9c-1,0-1.8-0.3-2.4-0.9l0.7-1.1c0.5,0.5,1,0.7,1.7,0.7c0.7,0,1.3-0.3,1.6-0.8
			c0.4-0.5,0.6-1.2,0.6-1.9v-0.2c-0.2,0.3-0.5,0.6-0.9,0.8s-0.8,0.4-1.3,0.4c-0.8,0-1.5-0.2-2-0.7c-0.5-0.5-0.8-1.1-0.8-2
			c0-0.8,0.3-1.5,0.9-2c0.6-0.5,1.3-0.8,2.2-0.8c0.8,0,1.4,0.2,2,0.6s0.9,0.9,1.1,1.5s0.3,1.3,0.3,2.2c0,1.2-0.3,2.3-1,3.1
			C215.1,119.5,214.2,119.9,213,119.9z M213.4,115.5c0.4,0,0.7-0.1,1-0.3c0.3-0.2,0.6-0.4,0.8-0.7c0-0.5-0.2-1-0.5-1.4
			c-0.3-0.4-0.8-0.6-1.3-0.6c-0.5,0-0.9,0.2-1.2,0.5c-0.3,0.3-0.5,0.6-0.5,1c0,0.5,0.2,0.9,0.5,1.1
			C212.5,115.4,212.9,115.5,213.4,115.5z"/>
		<path class="st0" d="M221.1,119.7h-1.5v-6.4l-1.4,1.4l-0.9-0.9l2.4-2.4h1.3V119.7z"/>
		<path class="st0" d="M225.8,119.9c-1.3,0-2.4-0.4-3.1-1.3l0.8-1c0.6,0.7,1.3,1,2.2,1c0.5,0,0.9-0.1,1.2-0.4s0.5-0.6,0.5-1
			c0-0.5-0.2-0.8-0.5-1.1c-0.3-0.3-0.7-0.4-1.2-0.4c-0.7,0-1.3,0.2-1.8,0.7l-1-0.3v-4.7h5.5v1.3h-4v2.4c0.5-0.5,1.1-0.7,1.9-0.7
			c0.7,0,1.4,0.2,1.9,0.7s0.8,1.1,0.8,2c0,0.9-0.3,1.5-0.9,2.1C227.5,119.6,226.7,119.9,225.8,119.9z"/>
	</g>
	<g>
		<path class="st0" d="M38.5,186.8h-1.5v-1.9h-4v-1.2l3.4-5.3h2v5.2h1.1v1.3h-1.1V186.8z M37.1,183.6v-3.9l-2.5,3.9H37.1z"/>
		<path class="st0" d="M42.5,186.3c0,0.4-0.1,0.8-0.3,1.2c-0.2,0.4-0.5,0.7-0.9,0.9l-0.6-0.5c0.2-0.1,0.4-0.3,0.6-0.5
			c0.2-0.2,0.3-0.4,0.3-0.6c-0.1,0-0.1,0-0.2,0c-0.2,0-0.4-0.1-0.5-0.2c-0.1-0.1-0.2-0.3-0.2-0.6s0.1-0.4,0.2-0.6
			c0.2-0.2,0.4-0.3,0.6-0.3c0.3,0,0.5,0.1,0.7,0.3S42.5,186,42.5,186.3z"/>
		<path class="st0" d="M46.9,187c-1.3,0-2.4-0.4-3.1-1.3l0.8-1c0.6,0.7,1.3,1,2.2,1c0.5,0,0.9-0.1,1.2-0.4c0.3-0.3,0.5-0.6,0.5-1
			c0-0.5-0.2-0.8-0.5-1.1c-0.3-0.3-0.7-0.4-1.2-0.4c-0.7,0-1.3,0.2-1.8,0.7l-1-0.3v-4.7h5.5v1.3h-4v2.4c0.5-0.5,1.1-0.7,1.9-0.7
			c0.7,0,1.4,0.2,1.9,0.7c0.5,0.5,0.8,1.1,0.8,2c0,0.9-0.3,1.5-0.9,2.1S47.8,187,46.9,187z"/>
		<path class="st0" d="M54.4,187c-1.3,0-2.4-0.4-3.1-1.3l0.8-1c0.6,0.7,1.3,1,2.2,1c0.5,0,0.9-0.1,1.2-0.4c0.3-0.3,0.5-0.6,0.5-1
			c0-0.5-0.2-0.8-0.5-1.1c-0.3-0.3-0.7-0.4-1.2-0.4c-0.7,0-1.3,0.2-1.8,0.7l-1-0.3v-4.7H57v1.3h-4v2.4c0.5-0.5,1.1-0.7,1.9-0.7
			c0.7,0,1.4,0.2,1.9,0.7c0.5,0.5,0.8,1.1,0.8,2c0,0.9-0.3,1.5-0.9,2.1S55.3,187,54.4,187z"/>
		<path class="st0" d="M63.4,186.6c-0.4,0.2-0.9,0.4-1.5,0.4s-1.1-0.1-1.5-0.4s-0.8-0.6-1-1c-0.3-0.4-0.5-0.9-0.6-1.4
			c-0.1-0.5-0.2-1-0.2-1.6c0-0.5,0.1-1.1,0.2-1.6c0.1-0.5,0.3-1,0.6-1.4c0.3-0.4,0.6-0.7,1-1s0.9-0.4,1.5-0.4s1.1,0.1,1.5,0.4
			s0.8,0.6,1.1,1c0.3,0.4,0.5,0.9,0.6,1.4s0.2,1,0.2,1.6c0,0.5-0.1,1.1-0.2,1.6s-0.3,1-0.6,1.4C64.2,186,63.9,186.3,63.4,186.6z
			 M60.5,184.8c0.3,0.6,0.8,0.8,1.4,0.8c0.6,0,1.1-0.3,1.4-0.8s0.5-1.3,0.5-2.2c0-0.6-0.1-1.1-0.2-1.5c-0.1-0.4-0.3-0.8-0.6-1.1
			c-0.3-0.3-0.6-0.4-1.1-0.4s-0.8,0.1-1.1,0.4c-0.3,0.3-0.5,0.6-0.6,1.1c-0.1,0.4-0.2,0.9-0.2,1.5C60.1,183.5,60.2,184.2,60.5,184.8
			z"/>
	</g>
	<g>
		<path class="st0" d="M47.3,150.1c-0.7,0-1.3-0.1-1.9-0.4c-0.5-0.2-1-0.6-1.3-1l0.8-1c0.3,0.3,0.6,0.6,1,0.7
			c0.4,0.2,0.8,0.3,1.3,0.3c0.5,0,1-0.1,1.3-0.3c0.3-0.2,0.5-0.5,0.5-0.9c0-0.8-0.6-1.2-1.8-1.2c-0.6,0-0.9,0-1,0v-1.3
			c0.1,0,0.4,0,1,0c0.5,0,0.9-0.1,1.2-0.3c0.3-0.2,0.5-0.5,0.5-0.8c0-0.4-0.2-0.7-0.5-0.9s-0.7-0.3-1.2-0.3c-0.8,0-1.5,0.3-2.2,0.9
			l-0.8-0.9c0.7-0.9,1.8-1.3,3-1.3c0.9,0,1.6,0.2,2.2,0.6c0.6,0.4,0.8,1,0.8,1.6c0,0.5-0.2,0.9-0.5,1.3c-0.4,0.3-0.8,0.5-1.3,0.6
			c0.5,0,0.9,0.2,1.3,0.6s0.6,0.8,0.6,1.4c0,0.7-0.3,1.3-0.9,1.8S48.2,150.1,47.3,150.1z"/>
		<path class="st0" d="M56.8,150h-1.5v-1.9h-4v-1.2l3.4-5.3h2v5.2h1.1v1.3h-1.1V150z M55.3,146.8V143l-2.5,3.9H55.3z"/>
		<path class="st0" d="M62.1,150.1c-1.3,0-2.4-0.4-3.1-1.3l0.8-1c0.6,0.7,1.3,1,2.2,1c0.5,0,0.9-0.1,1.2-0.4c0.3-0.3,0.5-0.6,0.5-1
			c0-0.5-0.2-0.8-0.5-1.1c-0.3-0.3-0.7-0.4-1.2-0.4c-0.7,0-1.3,0.2-1.8,0.7l-1-0.3v-4.7h5.5v1.3h-4v2.4c0.5-0.5,1.1-0.7,1.9-0.7
			c0.7,0,1.4,0.2,1.9,0.7c0.5,0.5,0.8,1.1,0.8,2c0,0.9-0.3,1.5-0.9,2.1C63.8,149.9,63,150.1,62.1,150.1z"/>
	</g>
	<g>
		<path class="st0" d="M52.7,116.9h-6v-1.1c1.7-1.3,2.9-2.3,3.6-2.9c0.6-0.6,0.9-1.2,0.9-1.8c0-0.4-0.1-0.7-0.4-0.9
			c-0.3-0.2-0.7-0.3-1.1-0.3c-0.9,0-1.7,0.3-2.2,1l-0.8-1c0.4-0.4,0.8-0.8,1.4-1c0.5-0.2,1.1-0.3,1.7-0.3c0.9,0,1.6,0.2,2.2,0.7
			c0.6,0.5,0.9,1.1,0.9,1.9c0,0.7-0.3,1.4-0.9,2.1c-0.6,0.7-1.5,1.5-2.8,2.5h3.7V116.9z"/>
		<path class="st0" d="M57.4,116.9h-1.5v-6.4l-1.4,1.4l-0.9-0.9l2.4-2.4h1.3V116.9z"/>
		<path class="st0" d="M62.1,117c-1.3,0-2.4-0.4-3.1-1.3l0.8-1c0.6,0.7,1.3,1,2.2,1c0.5,0,0.9-0.1,1.2-0.4s0.5-0.6,0.5-1
			c0-0.5-0.2-0.8-0.5-1.1c-0.3-0.3-0.7-0.4-1.2-0.4c-0.7,0-1.3,0.2-1.8,0.7l-1-0.3v-4.7h5.5v1.3h-4v2.4c0.5-0.5,1.1-0.7,1.9-0.7
			c0.7,0,1.4,0.2,1.9,0.7c0.5,0.5,0.8,1.1,0.8,2c0,0.9-0.3,1.5-0.9,2.1C63.8,116.8,63,117,62.1,117z"/>
	</g>
	<g>
		<path class="st0" d="M40.1,83.3h-1.5v-6.4l-1.4,1.4l-0.8-0.9l2.4-2.4h1.3V83.3z"/>
		<path class="st0" d="M43.4,82.9c0,0.4-0.1,0.8-0.3,1.2c-0.2,0.4-0.5,0.7-0.9,0.9l-0.6-0.5c0.2-0.1,0.4-0.3,0.6-0.5
			c0.2-0.2,0.3-0.4,0.3-0.7c-0.1,0-0.1,0-0.2,0c-0.2,0-0.4-0.1-0.5-0.2c-0.1-0.1-0.2-0.3-0.2-0.6s0.1-0.4,0.2-0.6
			c0.2-0.2,0.4-0.3,0.6-0.3c0.3,0,0.5,0.1,0.7,0.3C43.3,82.2,43.4,82.5,43.4,82.9z"/>
		<path class="st0" d="M49.1,83.1c-0.4,0.2-0.9,0.4-1.5,0.4s-1.1-0.1-1.5-0.4s-0.8-0.6-1.1-1c-0.3-0.4-0.5-0.9-0.6-1.4
			s-0.2-1-0.2-1.6s0.1-1.1,0.2-1.6s0.3-1,0.6-1.4c0.3-0.4,0.6-0.7,1.1-1s0.9-0.4,1.5-0.4s1.1,0.1,1.5,0.4s0.8,0.6,1,1
			c0.3,0.4,0.5,0.9,0.6,1.4c0.1,0.5,0.2,1,0.2,1.6s-0.1,1.1-0.2,1.6c-0.1,0.5-0.3,1-0.6,1.4S49.5,82.9,49.1,83.1z M46.2,81.3
			c0.3,0.6,0.8,0.9,1.4,0.9s1.1-0.3,1.4-0.9c0.3-0.6,0.4-1.3,0.4-2.2c0-0.6-0.1-1.1-0.2-1.5c-0.1-0.4-0.3-0.8-0.6-1.1
			c-0.3-0.3-0.6-0.4-1.1-0.4s-0.8,0.1-1.1,0.4c-0.3,0.3-0.5,0.6-0.6,1.1c-0.1,0.4-0.2,0.9-0.2,1.5C45.7,80.1,45.9,80.8,46.2,81.3z"
			/>
		<path class="st0" d="M54.5,83.3h-1.6l3.1-7h-4.3V75h6v1L54.5,83.3z"/>
		<path class="st0" d="M63.4,83.1c-0.4,0.2-0.9,0.4-1.5,0.4s-1.1-0.1-1.5-0.4s-0.8-0.6-1-1s-0.5-0.9-0.6-1.4c-0.1-0.5-0.2-1-0.2-1.6
			s0.1-1.1,0.2-1.6c0.1-0.5,0.3-1,0.6-1.4c0.3-0.4,0.6-0.7,1-1s0.9-0.4,1.5-0.4s1.1,0.1,1.5,0.4s0.8,0.6,1.1,1
			c0.3,0.4,0.5,0.9,0.6,1.4s0.2,1,0.2,1.6s-0.1,1.1-0.2,1.6s-0.3,1-0.6,1.4C64.2,82.5,63.9,82.9,63.4,83.1z M60.5,81.3
			c0.3,0.6,0.8,0.9,1.4,0.9c0.6,0,1.1-0.3,1.4-0.9c0.3-0.6,0.5-1.3,0.5-2.2c0-0.6-0.1-1.1-0.2-1.5c-0.1-0.4-0.3-0.8-0.6-1.1
			c-0.3-0.3-0.6-0.4-1.1-0.4s-0.8,0.1-1.1,0.4c-0.3,0.3-0.5,0.6-0.6,1.1c-0.1,0.4-0.2,0.9-0.2,1.5C60.1,80.1,60.2,80.8,60.5,81.3z"
			/>
	</g>
	<g>
		<path class="st0" d="M49.1,49.1h-1.5v-1.9h-4V46l3.4-5.3h2v5.2h1.1v1.3h-1.1V49.1z M47.6,45.9v-3.8l-2.5,3.8H47.6z"/>
		<path class="st0" d="M55.9,48.9c-0.4,0.2-0.9,0.4-1.5,0.4s-1.1-0.1-1.5-0.4s-0.8-0.6-1-1s-0.5-0.9-0.6-1.4c-0.1-0.5-0.2-1-0.2-1.6
			s0.1-1.1,0.2-1.6c0.1-0.5,0.3-1,0.6-1.4c0.3-0.4,0.6-0.7,1-1s0.9-0.4,1.5-0.4s1.1,0.1,1.5,0.4s0.8,0.6,1.1,1
			c0.3,0.4,0.5,0.9,0.6,1.4s0.2,1,0.2,1.6s-0.1,1.1-0.2,1.6s-0.3,1-0.6,1.4C56.7,48.3,56.4,48.6,55.9,48.9z M53,47.1
			c0.3,0.6,0.8,0.9,1.4,0.9c0.6,0,1.1-0.3,1.4-0.9c0.3-0.6,0.5-1.3,0.5-2.2c0-0.6-0.1-1.1-0.2-1.5c-0.1-0.4-0.3-0.8-0.6-1.1
			c-0.3-0.3-0.6-0.4-1.1-0.4s-0.8,0.1-1.1,0.4c-0.3,0.3-0.5,0.6-0.6,1.1c-0.1,0.4-0.2,0.9-0.2,1.5C52.6,45.8,52.7,46.5,53,47.1z"/>
		<path class="st0" d="M62.1,49.3c-1.3,0-2.4-0.4-3.1-1.3l0.8-1c0.6,0.7,1.3,1,2.2,1c0.5,0,0.9-0.1,1.2-0.4s0.5-0.6,0.5-1
			c0-0.5-0.2-0.8-0.5-1.1C63,45.1,62.6,45,62.1,45c-0.7,0-1.3,0.2-1.8,0.7l-1-0.3v-4.7h5.5v1.3h-4v2.4c0.5-0.5,1.1-0.7,1.9-0.7
			c0.7,0,1.4,0.2,1.9,0.7c0.5,0.5,0.8,1.1,0.8,2c0,0.9-0.3,1.5-0.9,2.1C63.8,49,63,49.3,62.1,49.3z"/>
	</g>
	<g>
		<path class="st0" d="M123.3,19.8h-1.5v-6.4l-1.4,1.4l-0.9-0.9l2.4-2.4h1.3V19.8z"/>
		<path class="st0" d="M126.6,19.3c0,0.4-0.1,0.8-0.3,1.2c-0.2,0.4-0.5,0.7-0.9,0.9l-0.6-0.5c0.2-0.1,0.4-0.3,0.6-0.5
			c0.2-0.2,0.3-0.4,0.3-0.6c-0.1,0-0.1,0-0.2,0c-0.2,0-0.4-0.1-0.5-0.2c-0.1-0.1-0.2-0.3-0.2-0.6s0.1-0.4,0.2-0.6s0.4-0.3,0.6-0.3
			c0.3,0,0.5,0.1,0.7,0.3S126.6,19,126.6,19.3z"/>
		<path class="st0" d="M132.3,19.6c-0.4,0.2-0.9,0.4-1.5,0.4c-0.6,0-1.1-0.1-1.5-0.4c-0.4-0.2-0.8-0.6-1-1c-0.3-0.4-0.5-0.9-0.6-1.4
			s-0.2-1-0.2-1.6c0-0.5,0.1-1.1,0.2-1.6s0.3-1,0.6-1.4c0.3-0.4,0.6-0.7,1-1c0.4-0.2,0.9-0.4,1.5-0.4c0.6,0,1.1,0.1,1.5,0.4
			c0.4,0.2,0.8,0.6,1,1c0.3,0.4,0.5,0.9,0.6,1.4c0.1,0.5,0.2,1,0.2,1.6c0,0.5-0.1,1.1-0.2,1.6c-0.1,0.5-0.3,1-0.6,1.4
			C133,19,132.7,19.3,132.3,19.6z M129.4,17.8c0.3,0.6,0.8,0.8,1.4,0.8s1.1-0.3,1.4-0.8c0.3-0.6,0.5-1.3,0.5-2.2
			c0-0.6-0.1-1.1-0.2-1.5c-0.1-0.4-0.3-0.8-0.6-1.1s-0.6-0.4-1.1-0.4c-0.4,0-0.8,0.1-1.1,0.4s-0.5,0.6-0.6,1.1
			c-0.1,0.4-0.2,0.9-0.2,1.5C128.9,16.5,129.1,17.2,129.4,17.8z"/>
		<path class="st0" d="M140.4,19.8h-1.5v-1.9h-4v-1.2l3.4-5.3h2v5.2h1.1v1.3h-1.1V19.8z M138.9,16.6v-3.9l-2.5,3.9H138.9z"/>
		<path class="st0" d="M147.2,19.6c-0.4,0.2-0.9,0.4-1.5,0.4s-1.1-0.1-1.5-0.4s-0.8-0.6-1.1-1c-0.3-0.4-0.5-0.9-0.6-1.4
			s-0.2-1-0.2-1.6c0-0.5,0.1-1.1,0.2-1.6s0.3-1,0.6-1.4c0.3-0.4,0.6-0.7,1.1-1s0.9-0.4,1.5-0.4s1.1,0.1,1.5,0.4s0.8,0.6,1,1
			c0.3,0.4,0.5,0.9,0.6,1.4c0.1,0.5,0.2,1,0.2,1.6c0,0.5-0.1,1.1-0.2,1.6c-0.1,0.5-0.3,1-0.6,1.4C148,19,147.6,19.3,147.2,19.6z
			 M144.3,17.8c0.3,0.6,0.8,0.8,1.4,0.8s1.1-0.3,1.4-0.8c0.3-0.6,0.4-1.3,0.4-2.2c0-0.6-0.1-1.1-0.2-1.5c-0.1-0.4-0.3-0.8-0.6-1.1
			s-0.6-0.4-1.1-0.4s-0.8,0.1-1.1,0.4c-0.3,0.3-0.5,0.6-0.6,1.1c-0.1,0.4-0.2,0.9-0.2,1.5C143.9,16.5,144,17.2,144.3,17.8z"/>
	</g>
	<g>
		<g>
			<path class="st2" d="M195.4,32.8c-18.3,0-30.5,11.2-38,26.3"/>
			<g>
				<path class="st3" d="M157.5,58.9c0.5-0.2,1.4,0,1.9,0.2c-0.9,0.2-1.8,0.5-2.6,1.2c0.1-0.9-0.2-1.9-0.6-2.7
					C156.7,57.9,157.3,58.4,157.5,58.9z"/>
			</g>
		</g>
	</g>
	<g>
		<g>
			<path class="st4" d="M195.4,69.9c-18.3,0-30.5,11.2-38,26.3"/>
			<g>
				<path class="st3" d="M157.6,95.9c1.1-0.4,2.7,0,3.8,0.5c-1.9,0.3-3.7,1.1-5.1,2.3c0.1-1.9-0.5-3.8-1.3-5.5
					C156,93.9,157.1,94.8,157.6,95.9z"/>
			</g>
		</g>
	</g>
	<g>
		<g>
			<path class="st5" d="M196.5,109.2c-14.7,10.9-41.1,12-53.9,3.9"/>
			<g>
				<path class="st3" d="M142.8,113.3c0.3,1.1-0.3,2.6-0.8,3.6c-0.1-1.8-0.7-3.7-1.8-5.2c1.8,0.3,3.7-0.1,5.4-0.7
					C145,112,144,113,142.8,113.3z"/>
			</g>
		</g>
	</g>
	<g>
		<g>
			<path class="st6" d="M76.3,173.8c18.3-0.3,39.9-8.6,47.4-27.9"/>
			<g>
				<path class="st3" d="M123.4,146.6c-2.5,1.1-6.3,0.6-8.8-0.3c4.2-1.2,8.3-3.2,11.4-6.4c0,4.4,1.9,8.6,4,12.4
					C127.6,151.1,124.7,149.2,123.4,146.6z"/>
			</g>
		</g>
	</g>
	<g>
		<g>
			<path class="st7" d="M195.5,149.6c-17.4,6.7-41.9,5.6-49.2-12.1"/>
			<g>
				<path class="st3" d="M146.7,138.5c-1.6,3.8-6.3,7.2-10,8.9c3.4-5.7,5.7-12.2,5.8-19c4.7,4.8,11.1,7.5,17.5,9.4
					C156,139,150.8,140,146.7,138.5z"/>
			</g>
		</g>
	</g>
	<g>
		<g>
			<path class="st8" d="M73,36.3c18.3,0,35.1,10.1,43.3,33.5"/>
			<g>
				<path class="st3" d="M116.3,69.8c0.2-0.4,0.7-0.7,1.1-0.9c-0.4,0.6-0.7,1.2-0.7,1.9c-0.5-0.5-1.1-0.8-1.7-1.1
					C115.3,69.7,115.9,69.6,116.3,69.8z"/>
			</g>
		</g>
	</g>
	<g>
		<g>
			<path class="st9" d="M73,140.2c10.5-7.5,26.8-9.5,41.4-4"/>
			<g>
				<path class="st3" d="M114.2,136.1c-0.2-0.5-0.1-1.2,0-1.7c0.2,0.8,0.6,1.6,1.2,2.1c-0.8,0-1.6,0.4-2.3,0.8
					C113.4,136.9,113.7,136.3,114.2,136.1z"/>
			</g>
		</g>
	</g>
	<g>
		<g>
			<path class="st10" d="M71.2,73.1c14.7-3.6,27.1,1.2,37.1,10.3"/>
			<g>
				<path class="st3" d="M108.2,83.2c0-0.7,0.5-1.6,0.9-2.1c-0.1,1.2,0,2.4,0.5,3.4c-1.1-0.4-2.3-0.3-3.4-0.2
					C106.7,83.8,107.5,83.3,108.2,83.2z"/>
			</g>
		</g>
	</g>
	<g>
		<g>
			<path class="st11" d="M73.9,108.7c11-8.1,23-9.2,34.7-6"/>
			<g>
				<path class="st3" d="M108.6,102.7c-0.2-0.3-0.1-0.7-0.1-1c0.2,0.5,0.5,0.9,0.9,1.3c-0.5,0.1-1,0.3-1.4,0.6
					C108.1,103.2,108.3,102.9,108.6,102.7z"/>
			</g>
		</g>
	</g>
	<g>
		<g>
			<line class="st12" x1="134.5" y1="24.4" x2="134.5" y2="59.3"/>
			<g>
				<path class="st3" d="M134.5,59.1c0.5-0.5,1.5-0.7,2.1-0.7c-0.9,0.7-1.7,1.5-2.1,2.6c-0.4-1.1-1.3-1.9-2.1-2.6
					C133.1,58.4,133.9,58.6,134.5,59.1z"/>
			</g>
		</g>
	</g>
	<g>
		<path class="st0" d="M205.9,159.3c-0.6,0-1.1-0.1-1.6-0.3c-0.4-0.2-0.8-0.5-1.1-0.9c-0.3-0.4-0.5-0.9-0.6-1.4
			c-0.1-0.5-0.2-1.1-0.2-1.7c0-1.3,0.3-2.3,1-3.1c0.6-0.8,1.5-1.2,2.7-1.2c1,0,1.8,0.3,2.4,0.9l-0.7,1.1c-0.5-0.5-1-0.7-1.7-0.7
			c-0.7,0-1.2,0.3-1.6,0.8s-0.6,1.2-0.6,1.9c0,0.1,0,0.2,0,0.2c0.2-0.3,0.5-0.6,0.9-0.8s0.8-0.4,1.3-0.4c0.8,0,1.5,0.2,2,0.7
			c0.5,0.5,0.8,1.1,0.8,2c0,0.8-0.3,1.5-0.9,2C207.5,159,206.8,159.3,205.9,159.3z M205.8,158c0.5,0,0.9-0.1,1.2-0.4
			c0.3-0.3,0.4-0.6,0.4-1c0-0.5-0.2-0.9-0.5-1.1c-0.3-0.3-0.7-0.4-1.2-0.4c-0.4,0-0.7,0.1-1,0.3c-0.3,0.2-0.6,0.4-0.8,0.7
			c0.1,0.5,0.2,1,0.5,1.4C204.8,157.8,205.2,158,205.8,158z"/>
		<path class="st0" d="M211.9,158.7c0,0.4-0.1,0.8-0.3,1.2c-0.2,0.4-0.5,0.7-0.9,0.9l-0.6-0.5c0.2-0.1,0.4-0.3,0.6-0.5
			c0.2-0.2,0.3-0.4,0.3-0.6c-0.1,0-0.1,0-0.2,0c-0.2,0-0.4-0.1-0.5-0.2c-0.1-0.1-0.2-0.3-0.2-0.6s0.1-0.4,0.2-0.6s0.4-0.3,0.6-0.3
			c0.3,0,0.5,0.1,0.7,0.3S211.9,158.3,211.9,158.7z"/>
		<path class="st0" d="M215.8,159.3c-1,0-1.8-0.3-2.4-0.9l0.7-1.1c0.5,0.5,1,0.7,1.7,0.7c0.7,0,1.3-0.3,1.6-0.8
			c0.4-0.5,0.6-1.2,0.6-1.9V155c-0.2,0.3-0.5,0.6-0.9,0.8c-0.4,0.2-0.8,0.4-1.3,0.4c-0.8,0-1.5-0.2-2-0.7c-0.5-0.5-0.8-1.1-0.8-2
			c0-0.8,0.3-1.5,0.9-2c0.6-0.5,1.3-0.8,2.2-0.8c0.8,0,1.4,0.2,2,0.6s0.9,0.9,1.1,1.5c0.2,0.6,0.3,1.3,0.3,2.2c0,1.2-0.3,2.3-1,3.1
			S217,159.3,215.8,159.3z M216.2,154.9c0.4,0,0.7-0.1,1-0.3c0.3-0.2,0.6-0.4,0.8-0.7c0-0.5-0.2-1-0.5-1.4c-0.3-0.4-0.8-0.6-1.3-0.6
			c-0.5,0-0.9,0.1-1.2,0.4c-0.3,0.3-0.5,0.6-0.5,1c0,0.5,0.2,0.9,0.5,1.1C215.3,154.8,215.7,154.9,216.2,154.9z"/>
		<path class="st0" d="M226.7,159.1h-6V158c1.7-1.3,2.9-2.3,3.6-2.9c0.6-0.6,0.9-1.2,0.9-1.8c0-0.4-0.1-0.7-0.4-0.9
			s-0.7-0.3-1.1-0.3c-0.9,0-1.7,0.3-2.2,1l-0.8-1c0.4-0.4,0.8-0.8,1.4-1c0.5-0.2,1.1-0.3,1.7-0.3c0.9,0,1.6,0.2,2.1,0.7
			c0.6,0.5,0.9,1.1,0.9,1.9c0,0.7-0.3,1.4-0.9,2.1s-1.5,1.5-2.8,2.5h3.7V159.1z"/>
		<path class="st0" d="M232.8,158.9c-0.4,0.2-0.9,0.4-1.5,0.4s-1.1-0.1-1.5-0.4s-0.8-0.6-1.1-1c-0.3-0.4-0.5-0.9-0.6-1.4
			s-0.2-1-0.2-1.6c0-0.5,0.1-1.1,0.2-1.6s0.3-1,0.6-1.4c0.3-0.4,0.6-0.7,1.1-1s0.9-0.4,1.5-0.4s1.1,0.1,1.5,0.4s0.8,0.6,1,1
			c0.3,0.4,0.5,0.9,0.6,1.4c0.1,0.5,0.2,1,0.2,1.6c0,0.5-0.1,1.1-0.2,1.6c-0.1,0.5-0.3,1-0.6,1.4
			C233.6,158.3,233.2,158.7,232.8,158.9z M229.9,157.1c0.3,0.6,0.8,0.8,1.4,0.8s1.1-0.3,1.4-0.8c0.3-0.6,0.4-1.3,0.4-2.2
			c0-0.6-0.1-1.1-0.2-1.5c-0.1-0.4-0.3-0.8-0.6-1.1s-0.6-0.4-1.1-0.4s-0.8,0.1-1.1,0.4c-0.3,0.3-0.5,0.6-0.6,1.1
			c-0.1,0.4-0.2,0.9-0.2,1.5C229.4,155.8,229.6,156.6,229.9,157.1z"/>
	</g>
</g>
</svg>
