<?xml version="1.0" encoding="utf-8"?>
<!-- Generator: Adobe Illustrator 19.2.0, SVG Export Plug-In . SVG Version: 6.00 Build 0)  -->
<svg version="1.1" id="Layer_1" xmlns="http://www.w3.org/2000/svg" xmlns:xlink="http://www.w3.org/1999/xlink" x="0px" y="0px"
	 viewBox="0 0 266.2 188.3" style="enable-background:new 0 0 266.2 188.3;" xml:space="preserve">
<style type="text/css">
	.st0{fill:#0D92FF;}
	.st1{fill:#787878;}
	.st2{fill:none;stroke:#00325C;stroke-width:0.875;stroke-miterlimit:10;}
	.st3{fill:#00325C;}
	.st4{fill:none;stroke:#00325C;stroke-width:6.625;stroke-miterlimit:10;}
	.st5{fill:none;stroke:#00325C;stroke-width:1.315;stroke-miterlimit:10;}
	.st6{fill:none;stroke:#00325C;stroke-width:18.085;stroke-miterlimit:3;}
	.st7{fill:none;stroke:#00325C;stroke-width:0.88;stroke-miterlimit:10;}
	.st8{fill:none;stroke:#00325C;stroke-width:1.305;stroke-miterlimit:10;}
	.st9{fill:none;stroke:#00325C;stroke-width:1.1;stroke-miterlimit:10;}
	.st10{fill:none;stroke:#00325C;stroke-width:3.43;stroke-miterlimit:10;}
	.st11{fill:none;stroke:#00325C;stroke-width:0.455;stroke-miterlimit:10;}
	.st12{fill:none;stroke:#00325C;stroke-width:2.92;stroke-miterlimit:10;}
</style>
<g>
	<path class="st0" d="M117.2,52.9L117.2,52.9L117,53l0,0.1l0,0.1l0,0.1l0,0.1l0.1,0.2l0.1,0l0-0.1l0-0.1l0-0.1l0-0.1l-0.1,0l0-0.1
		l0-0.1L117.2,52.9L117.2,52.9z M99.1,60.6l0.2,0.1l0.3-0.3l0-0.1l-0.2-0.1l-0.2,0L99,60.2l0,0l0,0.1l0,0.2L99.1,60.6z M144.6,54.8
		l0.2,0l0.1-0.1l0-0.2l0.1-0.1h0.1l0,0.2l-0.1,0.3l0,0.1l0.1,0l0.1-0.2l0.3-0.9l-0.3-0.1l-0.4,0.1l-0.4,0.3l-0.2,0.4l0.2,0.1
		L144.6,54.8z M145.9,53.3l0.1-0.3l0.5-0.4l0.2-0.2l-0.1,0.1l-0.7,0.3l-0.1,0.1l0,0L145.9,53.3L145.9,53.3z M116.6,45l-0.2,0.1
		l-0.1,0.3l0.1,0.2l0.1,0.1l0.2,0l0.3-0.2l0.2-0.4l0.1-0.4l0-0.2l-0.6,0.3L116.6,45L116.6,45z M103.3,59.2l0.5-0.2h0l0,0l0-0.1
		l-1.1,0l-0.5,0.1l-0.5,0.3l0.4,0.1L103.3,59.2z M111.7,59.1L111.7,59.1l0.1,0.1l0,0l0.2-0.2l0.1,0h0.1l-0.2-0.2l-0.2,0l-0.2,0.1
		l-0.1,0.2v0.1L111.7,59.1L111.7,59.1z M109.1,57.9l0.2,0l0.4,0.1l0.1,0l0.1,0l-0.3-0.2l-0.2,0l-0.2,0l-0.2,0l-0.2,0.1l0,0.1
		l0.2,0.1L109.1,57.9z M100.8,59.5l-1.4,0.2L99,59.8l2.1-0.2L100.8,59.5z M104.5,59L104.5,59l0.1-0.1l0-0.1l-0.1-0.1l-0.2,0l-0.2,0
		l-0.2,0.1l0.1,0L104.5,59z M105.1,58.9l0.3,0l0-0.3l0.3-0.1l0.7,0l0,0l0,0l0,0l0-0.1l-0.2-0.1l-0.9,0l-0.3,0l-0.1,0.1l-0.1,0.2
		L105.1,58.9L105.1,58.9z M107.1,58.4L107.1,58.4l0.2-0.2l0.2,0.2l0.3,0l0.3-0.1l0.2-0.1h0.1v-0.1l-0.9-0.1l-0.4,0.1l-0.3,0.3
		L107.1,58.4L107.1,58.4z M113.9,42.1L113.9,42.1L113.9,42.1L113.9,42.1l0.1-0.1l-0.2,0.1l-0.2,0.2l-0.3,0.6l0.2,0.3l0.2,0.3
		l0.2,0.2l0.3-0.1l0.1-0.1l-0.2-0.1l-0.5-0.9l0.1-0.1L113.9,42.1z M118.5,46l0.1,0.2l0.2,0.1l0.4,0l0.2-0.1l0.1-0.2l0.1-0.2l0.2-0.2
		l0-0.1l0-0.1l0-0.1l0,0l-0.4-0.1l-0.4,0l-0.4,0.2l-0.3,0.3l0.1,0.1l0,0.1l0,0.1L118.5,46z M162.2,44.2L162.2,44.2L162.2,44.2
		L162.2,44.2z M161.3,45.8l0-0.2l0-0.2l0.1-0.1l0.1-0.1l0.1-0.1l0.1-0.4l0-0.3l0.1-0.3l0.2-0.2v0.4h0.1v-0.2l0,0l0,0l0,0V44
		l-0.1-0.1l-0.1,0l-0.1,0l-0.2,0l-0.1,0.1l-0.1,0.4l-0.3,1.1l0,0.4v0.2h0.1L161.3,45.8z M168.2,51.6l0.1,0.2l0.4,0.4l0.1,0.3
		l-0.1,0.4l-0.3,0.6l-0.1,0.3l0.2,0.1l0.1-0.1l0.1-0.2l0.3-0.1l0.1-0.1l0.1,0l0.1,0.2l0,0.1l-0.1,0.1l-0.1,0.1l0,0.2l0.3-0.1l0.1,0
		l0-0.1l0.1-0.1l0.1-0.1l0.1,0v-0.1l-0.1-0.2l0.1-0.1l0.2,0l0.2,0l0.2,0.1l0.1,0.2l0.1,0.2l0.1,0.3l0.2-0.1l0.1,0.3l0,0.5l-0.1,0.4
		l0.1,0.2l-0.3-0.1l0-0.1l0-0.1l0,0l0.1,0l-0.4,0l-0.1,0.1l-0.2,0.3l0-0.3l0.1-0.3l0-0.1l0.1-0.1l-0.2-0.1l-0.5,0l0,0.4l0.4,0.7
		L170,56l-0.1,0.1l-0.3,0.2l-0.3,0.1l-0.2,0.2l-0.1,0l0.2,0.3l0.4,0.1l0.6,0l0.6-0.2l0.3-0.2l0.2-0.3l0.2,0.1l0.2,0l1.1-0.1
		l-0.1-0.3l-0.2-0.2l0.1,0l0.1-0.1l0.2-0.5l-0.2-0.1l-1.8-1.9l-0.3-0.2l-0.4-0.1l-0.7-0.4l-0.3-0.3l-0.1-0.2l-0.2-0.6l-0.1-0.2
		l-0.2-0.1l-0.2,0.1l-0.2,0.2L168.2,51.6z M97,61.5l0.2,0.1l0.1,0l0.1-0.1l0.1,0l0.1,0l0.1,0.2l0.1,0.1l-0.1-0.2l-0.1-0.1l-0.1-0.1
		l-0.1,0v-0.1l0.2,0L98,61l0.2,0l-0.1-0.3l-0.4,0L97,61l-0.1,0.1l0,0.2L97,61.5z M115.2,42.4l0.3-0.1l0.1,0.1l0.2,0.1l0.2,0l0.1,0
		l0.1-0.1l0.1-0.3l0.1-0.1v-0.1l-0.2-0.3l-0.2-0.1l-0.6,0l-0.3,0l-0.3,0.1l-0.2,0.2l-0.2,0.4l0.6,0.4L115.2,42.4z M113.2,41.5
		L113.2,41.5l0.1-0.3l0-0.3l0-0.9l0-0.1l0-0.3l0-0.1l0.1-0.1l0.3-0.2l0.1,0l0.1,0l0.1,0l0.1,0.2l0.1,0h0.7l0.2,0l0.3-0.2l0.2-0.1
		l1.3,0.1l0.3-0.2l-2.2,0.1l-0.5-0.1l-0.3-0.3l0.1-0.6l-0.1-0.3l0.1-0.4l0.2-0.3l0.4-0.2l0.1-0.2l-0.1-0.2l-0.3,0l0.1-0.1l0.6,0
		l-0.5-0.3l-0.4,0.5l-0.8,2.1l-0.1,0.4l-0.1,1.9l0,0.5L113.2,41.5z M140.7,46.4L140.7,46.4L140.7,46.4l0.1,0.2h0.1l0.1-0.1l0.1,0
		l0.3,0l0.1,0.1l0,0.1l0,0.4l0.1,0.1l0.3,0l0.4,0l0,0l0-0.1l0.2-0.1l1.3,0.2l-0.6-1.1l-0.2-0.3l-0.1-0.1l-0.3-0.2l-0.9-0.4l-0.5,0.1
		l-0.4,0.4l-0.3,0.7l0,0.2L140.7,46.4z M163.6,45.3l0-0.1l-0.1-0.2l-0.1-0.1l-0.1,0l-0.1-0.1l-0.2,0l-0.8,0.1l-0.2,0.1h0.1l0.1,0
		l0,0.1l0,0.2l0,0.1l0,0l0,0l0,0.1l0.1,0.1l0.2,0l0.3-0.1l0,0.1l0,0.1l0,0l0,0l0.1,0.2l0.1,0.1l0.3,0.1l-0.1,0.1l-0.1,0l0,0v0.1
		l-0.2,0l-0.3,0.2l-0.3,0.1l-0.1,0.1l-0.2,0.4l0.4-0.1l0.1,0l0.1,0.1l0.1,0.1l0.1,0v0.1l0,0.2l0.1,0.2l0.1,0.1l0.2,0l-0.3,0.2
		l-0.1,0l-0.1-0.1l-0.1,0.1l-0.3-0.2l-0.3,0.1l-0.2,0.3l-0.1,0.4l0.6,0.5V49l-0.2-0.1l-0.1,0.1l-0.1,0.1l0.1,0.1l0.1,0l0.3-0.2
		l0.1,0l-0.1,0.2l0.1,0.1l0.2,0.1l0.1,0l0.1,0.1l0.1,0.1l0.1,0.1l0.1,0l0.1-0.1l0.1,0l0.2,0l0-0.1l0,0l0.1-0.1l0.1-0.1l0.1-0.1
		l-0.1,0.3l-0.1,0.2l-0.1,0.1l0.4,0.2l0.3,0.1l0.3,0l0.2-0.1l0-0.2l-0.1-0.4l-0.1,0l-0.5,0.1l0,0h0l0,0l0,0.1l-0.1,0.1l0-0.5
		l0.2-0.1l0.2-0.1l0.1-0.3l0.1-0.2l0.5-0.5l0.2-0.1l1-0.1l0.1,0.1l0.1,0.1l0.1,0l0.1-0.2l0.1-0.1l0.1,0l0.3,0v0.1l-0.2,0.1l-0.6,0.4
		l0.2-0.1l0.2-0.1l0.5,0l-0.1,0.2l-0.2,0.1l-0.4,0.2v0.1l0.1,0.1h0.2l0.2-0.1l0.1-0.1h0.1l0,0.2l0,0.1l-0.1,0.1h-0.1l0.2,0.1l0.1,0
		l0-0.1v-0.3l0-0.3l0.1-0.2l0.1-0.2l0.1-0.1l-0.2-0.1l-0.2-0.2l-0.3-0.5l-0.2-0.1l-0.5-0.1l-0.2-0.1l-0.1-0.2l-0.1-0.3l-0.1-0.3
		l0-0.3l0.1-0.3l0.2-0.2l0.4-0.3l0.3-0.4l-0.1-0.4l-0.3-0.3l-0.5-0.1l-1.3,0.3l-0.4-0.1l-0.2-0.1l-0.1-0.2l-0.1-0.2l0-0.3l0.1-0.2
		l0.2-0.2l0.2-0.1l0.2-0.1v-0.1l-0.3-0.1l-0.3,0l-1.4,0.4l-0.1,0.1l-0.1,0.1l-0.1,0.1l0,0.2l0.1,0l0.1-0.1l0.4-0.1l0,0.1l0,0.2
		l0,0.2l0,0.1l-0.1,0.1l-0.1,0.3l-0.1,0.3l0,0.2l0.2,0.1l0.2-0.1l0.2-0.2l0.2-0.1l0.2-0.2l0.1-0.1l0.1-0.1l0,0.1l0.1,0.2l0.1,0.1
		l0,0.1l0.1,0.1l0.2,0l0.1,0.1l0.1,0.1l0.1,0.1l0.1,0.1l0.3,0l0.1,0l0.1-0.1l0.1-0.1l0.1-0.1l0.1,0v0.1l-0.1,0l0,0l0,0l-0.1,0v0.1
		l0.1,0.1l0.1,0.1l0.1,0.2v0.1l-0.1,0.1l0,0.1l-0.1,0.2l0.1,0.1l-0.5,0l-0.2-0.1l-0.2-0.3l0.1-0.3l-0.1-0.2l-0.2-0.2l-0.1-0.2
		l-0.1,0.1v0.1l0.1,0l0.1,0.1l0.1,0l-0.1,0.2l-0.1,0.1l-0.1,0l-0.1,0l0.1-0.3l0.1-0.1l0-0.1l0,0l-0.1,0h-0.1l0.1-0.1l0.1-0.2
		l0.1-0.4l-0.2,0.1l-0.2,0.1l-0.2,0.2l-0.1,0.2l0.1,0.3L163.6,45.3L163.6,45.3z M180.9,99.9L180.9,99.9l0-0.5l-0.1-0.3l-0.2-0.3
		l-0.2-0.3l0-0.1l0-0.3v0l-0.1-1.1l0.1-0.2l-0.1-0.2l-0.2-0.2l-0.2-0.1l-0.2-0.1l-0.5-0.1l-0.2-0.1v0l-0.2-0.2l-0.7-0.2l-0.2-0.2
		l-0.1-0.3l0.1-0.3l0.2-0.3l0.1-0.3l0-0.4l-0.1-0.4l-0.1-0.3l-0.5-0.4l-0.2-0.3l-0.1-0.4l0-0.4l-0.1-0.2l-0.2-0.1l-0.2-0.3l0-0.3
		l0.1-0.3l0.6-0.6l0.2-0.2l0.2-0.3l0.1-0.3l0-1l0.1-0.2l0.2-0.4l0-0.2l0-0.1l0-0.1l0.1-0.1l0.2-0.2l-0.7-0.5l-0.1-0.2l0.1-0.4
		l0.1-0.3l0-0.2l-0.1-0.2v-0.1l0.2-0.3l0-0.3l-0.2-0.3l-0.3-0.1l-0.3-0.1l-0.3-0.2l-0.2-0.3l0.1-0.3l-0.2-0.5l-0.2-0.7l-0.1-0.7
		l0.5-0.5l0.2-0.4l0.2-0.4l0-0.2l-0.2-0.2l0.1-0.4l0.3-0.6l-0.3-0.3l-0.6-0.7l-0.6-0.2l-0.3-0.4l-0.2-0.1l-0.1-0.1l-0.3-0.7
		l-0.2-0.2l-1.1-0.8l-0.3-0.1l-0.3-0.4l-0.2-0.1l-0.2,0l-0.2-0.1l-0.2-0.1l-0.1-0.2l0.3-0.2l0.1-0.2l0-0.3l0-0.2l-0.1-0.6l-0.1-0.2
		v-0.1l0.5-0.4l0.6-0.3l0.6-0.5l0.3-0.3l0.1-0.3l0-0.1l0.3-0.9l0-0.2l-0.1-0.2l0-0.3l0-0.2l0.1-0.2l0.1-0.1l0.1-0.1l0.1-0.1l0.3-0.5
		l-0.1-0.1l0-0.1l-0.2-0.1l-0.1-0.1l0-0.2l0-0.3l0-0.1l-0.3-1.3l-0.1-0.9l-0.2-0.4L174,63l-0.2-0.4l-0.1-0.3l0-0.4l0-0.6l0-0.2
		l-0.2-0.7l-0.2-0.3l0-0.3l0-0.5l-0.1,0l-0.2,0l-0.1-0.1l-0.1-0.1l0.5-0.3l0,0l0.1-0.1l0-0.3l0,0l-0.1-0.1l-0.2,0l-0.1,0.1l-0.1,0.2
		l-0.3,0.1l-0.8-0.1l-0.1,0l-0.2-0.2l-0.1,0l-0.2,0l0,0l-0.2-0.2l-0.3-0.1l-0.7-0.6l-0.1,0l-0.2-0.1l-0.1-0.2l-0.1-0.2l-0.1-0.1
		l-0.2,0l-0.2-0.1l-0.1-0.2l0.1-0.2l0.7-0.6l0.1-0.2l0.1-0.2l0-0.2l-0.1-0.1l-0.1,0l-0.1,0l-0.1,0l-0.1,0l0,0l-0.1,0l0,0l0-0.1
		l0-0.1l0-0.1l0-0.1l0-0.1l0-0.1l-0.1,0l-0.3-0.1l-0.1,0l-0.1-0.2l-0.3-0.4l-0.1-0.1l0.3-0.2l0.1-0.3l0.1-0.3l0.1-0.3v-0.1l-0.8-0.7
		l-0.3-0.2v-0.1l0.1,0l0.1-0.1l0-0.1l0-0.1l-0.3,0.1l-0.5,0.3l-0.3,0.1l-1.2,0.2v0.1l0.1,0.1l0.1,0.2l0.1,0.1v0.1l-0.2,0l-0.2-0.1
		l-0.1-0.2l-0.1-0.3l-0.1-0.4l-0.1-0.1l-0.1,0l-0.1,0.1l-0.1,0l-0.1-0.1l0.1-0.1l0-0.1l0.1-0.2l-0.2-0.1l-0.4,0.2l-0.3,0l0.1-0.1
		l0.2-0.1l-0.3-0.2l-0.3-0.7l-0.3-0.1l-0.3-0.1l-0.5-0.3l-0.3,0l0.1-0.1l0.1,0l0.1,0v-0.1h-0.4l-0.1-0.1l0-0.1v-0.2l0-0.2l-0.3-0.5
		l0-0.3l0.2-0.3l-0.1-0.1l-0.4-0.2l-0.1-0.2l-0.1-0.2l0-0.2l0.1-0.1l-0.3-0.1l-0.4,0.1l-0.4,0.3l-0.3,0.3l-0.1,0.2l-0.1,0.3
		l-0.1,0.1l-0.1,0.1l-0.1,0l-0.2,0l-0.1,0l0,0l0,0l-0.2-0.2l-0.1-0.1l0-0.1l0-0.1l-0.1,0.1l-0.1,0.1l-0.1,0l-0.1-0.1l-0.1,0.1
		l-0.1-0.1l-0.1-0.2l-0.1-0.2l0,0.1l0,0.1l-0.1,0.2l0-0.2l0.1-0.2l0.1-0.1l0.1,0v-0.1l-0.1,0l-0.1,0l-0.1,0l-0.1,0.1l0,0.1l0,0.1
		l0,0.1l-0.5,0.3l-0.3,0.1l-0.2-0.2v0.1l-0.1-0.1l-0.1,0l-0.2,0.1V48l0.1,0l0.1,0.1l-0.7,0.3l-0.2,0.1l0,0.1l0,0.2l0,0.1l0,0l-0.1,0
		l-0.1,0l-0.3,0.2l-0.1,0.1l-0.1,0.2l0.2,0.2l0.1,0.1l0.2,0L155,50l-0.2-0.1l-0.4-0.3l0.1-0.1l0-0.2l-0.1-0.2l-0.1-0.2l0.2,0
		l0.1-0.2l0-0.2l-0.1-0.2l0.1-0.1l0.1,0.1l0.1,0l0.1,0l-0.1-0.3l0.1-0.3l0.1-0.2l0.2-0.1l0.4,0l0.2,0.1l0.2,0.2l0.1-0.2l0.2-0.1
		l0.2,0l0.2,0.1l0-0.1l0,0h0l0,0l-0.1,0l-0.1,0l0-0.1l0-0.1l0.1,0l0.1-0.1l0.1,0l0.1,0.1l0.1-0.2l0.1-0.1l0.3,0.1h0.2l0.1,0l0.1-0.2
		l0.1,0l0.3,0l0.4,0.2l1.1,0.1l0.3-0.1l0.2-0.2l-0.1-0.2l-0.3-0.1l-0.2,0.1l-0.4-0.2h-2.3l-0.4-0.2l-0.2-0.3h0.1v-0.1l-0.2,0.1
		l-0.1,0.2l-0.2,0.5l-0.4,0.7l-0.1,0.2l-0.6,0.9L154,49l-0.1,0.2l-0.4,0.3l-0.8,0.4l-0.1,0l-0.1,0.1l-0.2,0.4l-0.2,0.2l-0.3,0.4
		l-0.1,0.2l0.1-0.1l0.1,0l0.1,0l0.1,0l-0.1,0.2l-0.3,0.2l-0.1,0.2l0.1,0.2l0,0.4l0.1,0.2l-0.2-0.3l0-0.4l0-0.5l-0.1-0.5l-0.4,0.2
		l-2.4,0.5l-0.8-0.1l-0.4,0.1l-0.3,0.2l-0.2,0.4l0,0l0,0.1l0,0.1v0.1l0.1,0.1l0,0.1l0,0.1l-0.1,0.1l-0.1,0.1l-0.1,0l-0.1,0.1
		l-0.2,0.5l-0.2,0.2l-0.1,0l-0.3-0.1v0.1h0.1v0.1l-0.3,0.3l0,0.1l0,0.2l0,0.1l-0.1,0l-0.1,0.1l-0.1,0.1l0,0.3l-0.1,0.3l-0.1,0.3
		l0,0.2H145l-0.1-0.1l-0.4-0.5l0-0.1h-0.4l-0.1-0.1l-0.1-0.2l-0.1-0.1l-0.4,0.3l-0.1,0l-0.3,0l-0.1-0.1l0-0.2l0-0.4l-0.1-0.1
		l-0.4-0.1l-0.1-0.1l-0.1-0.2l-0.1-0.1l-0.1,0l-1.2,0.2l-0.5,0.3l-0.2,0l-0.2,0.1l-0.3,0.3l-0.1,0.1l-0.1,0l-0.2,0l-0.2,0l0-0.2
		l0-0.2l-0.1-0.2l-0.1,0l-0.4,0l-0.3-0.1l-0.2-0.2l-0.1-0.2l-0.1-0.3v-0.1l0.1-0.1l0.4-0.6l0,0l0.1-0.1l0.1,0l0.1,0.1l0.1,0l0.1-0.1
		l0.1,0l0.4-0.1l0.2-0.1l0.4-0.5l1.2-0.8l0-0.2l0.1-0.1l0.1-0.2l0-0.3l-0.1-0.5l0-0.3l0.1-0.2l-0.1-0.3l-0.1-0.7l-0.1-0.3l0.2,0.1
		l0.1,0l0.1-0.2l0.4-0.4l-0.3-0.1l-0.7,0.4l-0.2-0.2l-0.2,0.1l-0.2-0.1l0.3,0l0.2,0v-0.1l-0.8,0.1l-0.3,0.1l-0.3,0.2l-0.6,0.5
		l-0.3,0.2l-0.5,0.1l-0.4-0.1l-0.9-0.8l-1.6-0.7l-0.6-0.5l-0.2-0.1l-0.4,0l-0.1,0l-0.1,0.1l-0.1,0.1l-0.1,0.1l-0.1,0.1l-0.4,0
		l-0.1,0.1l-0.1,0.1l-0.1,0.6l-0.2,0.5l-0.2,0.2l-0.2,0.1l0.1-0.2l0-0.2l0-0.1l-0.1-0.1l0.1-0.1l0-0.1l0,0l0,0l0.2-0.1l0.2-0.2
		l0.1-0.2l0.1-0.2l-0.1-0.3l-0.1-0.2l0-0.2l0.2-0.2l-0.6-0.5l-0.2-0.1l-2.4,0.6l-0.4-0.2V46l0.4,0l0.4-0.1l0.4-0.2l0.3-0.3l0.1-0.2
		l0.1-0.2l0.1-0.2l0-0.3l0.1-0.7l0-0.3l-0.1-0.2l0.1-0.2l-0.1-0.1l-0.1,0l-0.1,0.1l-0.2-0.2l-0.3,0l-0.3,0.1l-0.1,0l0-0.2l0,0l0,0
		l0.1,0l0,0l0.2-0.2l0,0l0.1,0l0.1,0.1l0.1,0l0.1-0.1l-0.2-0.2l-0.1-0.1l-0.1-0.1l-0.1-0.6l-0.2-0.3l-0.3-0.2l-0.2,0l0,0.4l-0.5,0.2
		l-0.3,0l-0.1-0.2l-0.1-0.3l-0.2-0.2l-0.3-0.1l-0.2-0.1l-0.4-0.2l-0.6,0l-0.5-0.2l0-0.6l-0.1,0.1l-0.1,0.2l-0.2,0.1l-0.2,0.2
		l-0.6,0.3l-0.2,0l-0.1,0.1l-0.2,0l-0.2-0.2l-0.2,0l-0.1,0.1l-0.1,0l-0.1,0.1l-0.2,0l-0.7,0l-0.2-0.1l-0.1-0.2l0-0.2l0-0.2l-0.2-0.1
		l-2.1-0.5l-0.8-0.3l-0.8-0.1l-0.2,0l-0.7,0.3l-0.4,0l-0.3-0.1l-0.1,0.5l0,0.4l0.1,0.5l0.1,0.3l0.2,0.3l0.1,0.4l-0.1,0.3v0.1
		l0.3,0.2l0.5,0.5l0.3,0.2l0.1,0.2l0.3,0.9l-0.3,0.2l0.1,0.1l0.1-0.1l0.2-0.1l0.2,0l0.1,0.1l0,0.2l0.1,0.2l0.8,0.9l0.3,0.4V46
		l-0.1,0.3l-0.2,0.1l-0.4,0.2l-0.4,0.4l-0.2,0.1l-0.3,0.1h-1.1l-0.8,0.2l-0.2-0.1l-0.1,0.1l-0.1,0.2l0,0.2l0.1,0.2l0.2-0.2l0.1,0
		l0.1,0.1l0.2,0v0.1l-0.2,0l-0.3,0.1l-0.3,0.1l-0.1,0.2l0,0.4l0.2,0.4l0.3,0.3l0.3,0.1l0.1,0l0.3-0.3l0.2-0.1l0.4,0.1l0.3,0l0.5-0.2
		l0.3,0l0,0.1l0,0.1l0,0.1l0.2-0.1l0.4-0.3l0.2,0l-0.1,0.3l-0.2,0.3l-0.2,0.2l-0.1,0.1l-0.2,0l-0.4,0.1l-0.1,0.1V50l0.1,0.3
		l-0.1,0.3l-0.2,0.3l-0.1,0.3l0,0.1l0.2,0.4l0.3,0.5h0.1l0.2-0.2l0.3-0.2l0.4-0.1l0.2,0.1v0.1l0,0.2l0.1,0.2l0.2,0.2l0.1,0.2v0.3
		l-0.1,0.4l-0.1,0.3l-0.1,0.2l-0.2,0.1l-0.2-0.1l-0.4-0.3l-0.2-0.1l-0.2,0l-0.4,0.2l0.8,1.7l0.3,0.4l0.4,0.3l0.2,0.1l0.1-0.2
		l0.1-0.1l0.3,0.1l0.4,0.2l1.3,0l0.4,0.1l0.4,0.2L124,57l0.4,0.1l0,0.3l0.2,0.6l0.2,0.5l0.2,0.2l0.1,0.1l0.5,0.3l0.1,0.1l0,0.3
		l0,0.5l0.1,0.5l0.3,0.4l0.7,0.5l0.4,0.1l0.9,0.1l0.4,0.2l0.1,0.2l-0.1,0.1l-1.2-0.3l-0.6-0.4l-0.1-0.1l-0.2,0l-0.2-0.1l-0.2-0.1
		l-0.7-1l-0.1-0.5l-0.1-0.2l-0.3-0.2l-0.4-0.5l-1-1.7l-0.2-0.3l-0.1-0.1l-0.3,0l-0.2,0l-0.1-0.1l-0.2,0.1l-0.8,0l-0.8,0.2l-0.2,0.2
		l-0.4,0l-0.7,0.2l-0.4,0l-0.8-0.2l-0.4-0.2l-0.4-0.3l-0.2-0.3l-0.1-0.1l-0.2,0l-0.2,0.1l-0.2,0.1l-0.2,0.2l-0.1,0.2l-0.2,0.5
		l-0.3,1l-0.4,0.9l-0.1,0.2l0,0.3l0,0.3l0.1,0.4l0.1,0.3l0.1,0.3l0.1,0.2l0.1,0.1l0.3,0.7L116,62l-0.1,0.5l-0.2,0.2l-0.2,0.2
		l-0.2,0.4l0,0.5l0.1,1.1l0,0.4l-0.1-0.3l-0.1-0.4l0-0.9l0.1-0.5l0.2-0.4l0.2-0.3l0.2-0.2V62l-0.4-0.2l-0.9-0.2l-0.4-0.2l-0.1-0.2
		L114,61l-0.1-0.2l-0.2-0.1l-0.4,0l-0.2,0.1l-0.1,0.1l-0.1,0.2l-0.1,0.6l-0.1,0.3l0,0.2l0.2,0l0.4-0.1l0.3,0.3l-0.1,0.6l-0.2,0.6
		l-0.2,0.4l-0.1,0.1l-0.1,0.1l-0.1,0l-0.2,0l-0.1-0.1l-0.1-0.2l-0.1-0.2l-0.1-0.1l-0.1,0l-0.2-0.2l-0.1-0.1l-0.2,0l-0.1,0l-0.1,0.1
		l-0.1-0.1l-0.1-0.2l-0.2-0.6l0.2-0.1l0.4,0l0.2-0.1l0.2-0.2l0.1-0.2l0-0.3l-0.1-0.2l-0.2-0.1l-0.2-0.1l0.1-0.2v-0.1l-0.3-0.2
		l-0.4-0.5l-0.3-0.6l0.1-0.5v-0.1l-0.8-0.2l-3,0.4l-1.5,0.3l-0.2-0.1l-0.1-0.1l-0.1-0.1l-1.5,0.2l-0.8,0.3l-0.4,0.4l-0.2,0.1
		l-0.4,0.4l-0.3,0.2l-0.1,0.2l0,0.2l0.1,0.1l0.3,0.1l0.1,0.1l0,0.2l-0.1,0.2l-0.1,0.1l-0.1,0.1l-0.4-0.1l-0.2,0l-0.1,0.2l0,0.3
		l-0.2,0.5l0,0.3l0,1.2l0.1,0.5l0.4,0.2l2.3,0.1l0.4,0.1l0.2,0.4l-0.2-0.1l-0.3-0.2l-0.2-0.1l-0.2,0l-0.1,0.1l-0.3,0.4l0.1,0.2
		l0,0.2l-0.1,0.2l-0.1,0.1l-0.1,0.1l-0.1,0.1l0,0.5l0,0.3l0,0.3l-0.1,0.3l-0.1,0.4l0,0.1l0,0.2l0,0.1l0,0.1l0,0.1l0.1,1.2l0,0.6
		l-0.1,0.5l-0.2,0.6l-0.8,1.3l-0.2,0.5l-0.1,0.6l-0.1,1.8l-0.1,0.6l-0.2,0.4l-0.4-0.1l-0.2-0.1l-0.5,0.1l-0.5-0.2l-1,0l-0.3,0.1
		l-0.4,0.3l0.1,0.2l0,0.1l0,0.1l0,0.1l0.1,0.1l0.3,0.3l-0.6,0.3l-0.2,0l0.1,0.3l0,0.3l0,0.3l0.1,0.2l0.2,0.2l0.3,0.1l0.8,0.1
		l0.5,0.2l0.3,0l0.3,0l0.3-0.1l0.1-0.1l0.1-0.1l0.1,0l0.6,1l0.1,0.4l-0.1,0.6l-0.2,0.5l-0.1,0.2l0,0.3l0.1,0.3l0.1,0.2l0,0.1
		l-0.4,0.3l-0.1,0.1l-0.2,0.4l-0.2,0.2L99.1,85l-0.2,0.2l-0.2,0.5l-0.1,0.1l-0.7,0.1l-0.2,0.1l-0.2,0.2l-0.1,0.1l-0.1,0.2l-0.1,0.1
		l-0.1,0.1l-0.1,0l-0.1,0L97,86.8l0,0.2l0.2,0.1l0.2,0.1l0.7,0.4l0.3,0.3l0.1,0.1l0,0.1l0,0.2l0,0l-0.1,0l-0.1,0.1l-0.2,0.4
		l-0.2,0.3l-0.3,0.1l-0.9,0l-1,0.3L95,90l-0.2,0.1h-0.2L94,89.9l0.1,0.4l0,0.2l-0.4,0.1l0-0.3l-0.2-0.1l-0.4-0.1l0-0.1L93,89.8
		l-0.1-0.1l-0.1,0l-0.3,0.1l-0.3-0.1l-0.3-0.3l-0.3-0.2l-0.3,0.2l0.1,0.1l0.4,0.4l0.1,0.2l-0.2,0l-0.2-0.1L91.1,90l-0.4,0.1
		l-0.1,0.1l-0.2,0.2l-0.2,0.1l-0.4,0.1l-0.2,0.1l0,0.1l0.2,0.2l0.1,0.3l0,0.3l-0.2,0.2l0,0.2l0.1,0l0.3,0l0.1,0.1l0.2,0.2l0.1,0.1
		l-0.1,0.5l0.2,0.3l0.7,0.3l-0.1,0.4L91,94l0,0.2l0.7,0.9l0.4,0.5l0.1,0.5l0,0.3l0,0.3L92.2,97l0,0.3l0.2,0.2l-0.1,0.1l0,0.4
		l-0.1,0.2l-0.1,0.1l-0.3,0.2l-0.1,0.1l-0.5,1L91,99.8l-0.1,0.2l-0.1,0.3l0,0.4l0.1,0.3l0.2,0.1l0.5-0.3l0.2,0.1l-0.1,0l-0.2,0.2
		l0.2,0.2l-0.2,0.2l-0.6,0.3l-0.9,0.7l-0.1,0.2l-0.2,0.4l-0.1,0.1l-0.2,0l-0.1-0.1l-0.1-0.2l-0.1-0.1l-0.3,0.1l0.1,0.4l0.2,0.5
		l0,0.4l0.1,0l0.3-0.1l0.1,0l0.1,0l0.3,0.1l0.4,0l0,0.1l-0.1,0.1l0,0.1l0,0.2l0,0.1l0.1,0.1l0.2,0.1l0.3,0.1l0,0.1l-0.1,0.1l0,0.1
		l0.1,0.3l0,0.1l-0.1,0.2l-0.1,0.1l-0.2,0l-0.1,0.1l-0.1,0.2l0,0.1l0,0.1l-0.1,0.2l-0.1,0.1l-0.2,0l0,0.2l0.1,0.1l0.1,0.1l0.1,0.1
		l0,0.2l0,0l0,0l0,0l0,0v0l0,0l0,0l0.1,0.1l0.1,0l0,0.1v0l0,0.2l0,0.1l0,0l0.1,0l0.4-0.1l0.2,0l0.2,0.2l0.1,0.2l0.5,0.8l0,0
		l-0.1,0.1l0.1,0.2l0.2,0.1l0.7,0l0,0.1l-0.1,0.1l0,0l-0.1,0.1v0.1l-0.2,0.1l-0.2,0.2l-0.1,0.1l-0.2,0.3l0,0l0.2,0.2l-0.1,0.1l0,0.1
		v0l0.1,0l0.1,0h0l-0.1,0.1l0.1,0.1l0,0h0l0,0.1l0.1,0.1l0.1,0l0,0l0,0l0.1,0l0.3-0.1l0,0l0,0l0,0l0,0l0,0l0,0l0.2,0.1l0.4,0.1
		l0.2,0l-0.1,0.1l0,0l0,0.1l0,0l0,0.1l0.1,0.2l0,0l0.1,0.1l0.1,0h0l0,0l0,0v0l0,0.1l0,0.2l-0.1,0.4l0,0l-0.1,0.2l0,0.2l0.3,0.6
		l0,0.2v0l-0.1,0.1l0,0l0,0l-0.3,0l-0.1,0l-0.1,0l0,0l-0.1,0l-0.1,0l-0.1,0l-0.1,0.1l0,0l-0.1,0.1l0,0.2l0,0.1h0l-0.2,0.2l-0.3,0.1
		l-0.2,0.1l-0.2,0.1l-0.1,0.1l0,0l-0.2,0.1l-0.1,0l-0.1,0.1l0,0l0.1,0.1l0,0l0,0.1l0,0.2l-0.1,0.1l0,0l-0.1,0l-0.2,0l0,0l-0.1,0l0,0
		l0,0l0,0.1l0,0.1l0,0.1l0.1,0.1l0,0.1v0l0,0l0,0.1l-0.1,0.1l-0.1,0.2l0,0.2l-0.1,0.4l0,0l0.1,0l0,0l0,0.1l-0.1,0.2l0.1,0.1l0.1,0.1
		l0.1,0.3l0,0.2l0,0.1l0.2,0.3l0.2,0.4l0.1,0.1l0.1-0.2l0.2,0.3l0.3,0.8l0.2,0.2l0.3,0.2l0.1,0.1l0,0.1l0.1,0.3l0,0.1l0.1,0l0.2-0.1
		l0.1,0l0.2,0.1l0.3,0.3l0.2,0.1l0.2,0h0.5l0.3,0.1l0,0l0.1,0.1l0,0l0,0.1l0,0l0,0.3l0,0.1l0,0.1l0,0.1l-0.1,0.1l0,0.1l0,0.1l0,0.1
		l0.1,0.1l-0.1,0l0,0l0,0.1l0.1,0.1l0,0l-0.7,0.5l-0.2,0.2l0,0.1l0.1,0l0.1,0.1l0,0.1l0,0.1l-0.1,0.1l-0.1,0.2l-0.3,0.3l-0.2,0.2
		l-0.1,0.2v0.5l-0.1,0.6l0,0.5v0.1l0.1,0l0.1,0l0.2-0.1l0.1,0l0.1,0l0.9,0.5l0.2,0.2l0.1,0.1l0,0.1l0,0.1l0,0l0.1,0.1l0.5,0.5l0,0.1
		l0,0.1l-0.2,0l-0.1,0.1l0.1,0.2l0.2,0.2l0.7,0.6l0,0.1l0,0.2l0,0.1l0.1,0l0.1,0.1l0,0l0.1,0.3l0,0.1l0,0l0,0.1l0,0.1l0,0l0.1-0.1h0
		l0.1,0.2l-0.1,0.2l0,0.2l0.1,0.2l0.1,0l0.4,0l0.4,0.1l0.1,0l0.2-0.2l0-0.3l-0.1-0.2l0.1-0.2l0.1,0l0.4,0.1l0.3,0l0.1,0l0.6,0.4
		l0.2,0l0,0.5l0.1,0.4l0.2,0.2l0.3-0.2l0-0.1l0-0.1l0-0.1l0.1-0.1l0.1,0l0.4,0.3l0.2,0.1l0.2,0.1l0.9,0l0.3,0.1l0.1,0l0.1-0.1
		l0.1-0.2l0.1-0.1l0.1,0l0.2,0l0.1,0l0.1-0.1l0.1-0.2l0-0.1l0.2-0.1l0.2-0.1l0.2,0l0,0.2l0.4,0l0.2,0.1l0.1,0.2l-0.1,0l0,0l0,0.1
		l0.1,0.1l0.2,0.4l0.1,0.2l0.2,0.1l0.4,0.1l0.2,0.1l0.1,0.1l0.1,0.2l0.1,0.1l0.1,0l0.1,0l0.1,0l0.1,0l0.1,0l0.2,0.1l0.1,0l0.1,0
		l0.2-0.1l0.1,0l0.8,0.2l0.6-0.1l0.2,0l1.6,0.8l1,0.2l0.1,0.1l-0.2,0.2l-0.3,0.6l-0.5,1.3l-0.1,0.2l-0.1,0.1l-0.4,0.2l-0.1,0l0,0
		l0,0l0,0.1l0,0.1l0,0.1l-0.1,0.1l-0.1,0l-0.3,0l-0.1,0l-0.1,0.1l0,0.3l0,0.1l-0.1,0.1l-0.1,0.1l-0.1,0.1l-0.3,0.3l-0.2,0.1L109,140
		l-0.1,0.1l-0.4,0.7l-0.1,0.5v0.5l0.1,0.3v0.1l-0.3,0.2l-0.1,0.1l-0.1,0.1l0,0.3l0,0.1l-0.1,0.1l-0.1,0.1l-0.1,0.2l-0.1,0.4l0,0.2
		l0,0.2l0.1,0.2l0.1,0.2l0,0.2l-0.1,0.2l-0.2,0.1l-0.2,0.1l-0.1,0.3l0,0.3l-0.1,0.3l-0.1,0.2l-0.6,0.9l-0.1,0.2l0,0.2l-0.1,0.1
		l-0.1,0.1l-0.1,0.1l-0.1,0.2l-0.1,0.3l0,0.6l0.4,0.8l0,0.5l-0.1,0.2l-0.3,0.3l-0.1,0.2l0,0.2l0,0.1l-0.1,0.2l0,0.1l-0.1,0.1l0,0.1
		l0,0.1l0,0l0,0l0,0.1l0.1,0.3l0,0.2l-0.1,0.1l-0.1,0.1l-0.1,0.5l0,0.2l0.1,0.5l0,0.2l-0.1,0.1l-0.2,0.2l0,0.1l0,0.3l0,0.2l0,0.1
		l0.1,0.1l0.1,0.2l0.2,0.5l0.1,0.1l0.1,0.1l0.1,0.1l0,0.1l0,0.1l0,0.1l0.5-0.2l0.2,0l-0.1,0.4l-0.1,0.1l-0.3,0l0.5,0.3l0.2,0
		l0.8-0.2l0.2-0.1l0.2-0.2l0.2-0.3l0.1,0.1l0.6,0l0.1,0.1l0,0.1l0,0.1l0,0.1h1.3l0.5-0.1l0.1-0.1l0-0.1l0-0.1l0.1-0.1l0.1-0.1
		l0.2-0.1l0.2-0.1l0.1-0.1l0-0.1l0.1,0l0.5-0.1l0.2,0l0.3,0.1l0.1,0l0.1,0.1l0.1,0.1l0.1,0.1l0.1,0.1l0.4,0.1l0.6,0l0.3-0.1l0-0.1
		l0.1-0.3l0.3-0.2l0.3,0l0.2,0.1l0.1,0.2l0.1,0.1l0.1,0l0.1-0.1l0-0.1l0-0.1l0-0.1l0-0.1l0-0.1l0-0.1l0-0.1l0,0l0.1,0l0,0l0,0l0,0.1
		l0.1,0l0.1-0.4l-0.1,0l-0.2-0.1l-0.1,0l-0.5,0.1l-0.2,0.1l-0.1,0.1l-0.1,0.1l-0.2,0l-0.2-0.1l-0.3-0.2l-0.1,0l-0.2-0.1l0.1-0.2
		l0-0.1l0-0.1l0-0.1l0.1-0.1l0.3-0.1l0.1-0.1l0.1-0.3l0-0.1l0.1-0.2l0.1,0l0.1,0l0.5-0.1l0.2-0.1l-0.1-0.2l0.2-0.1l0.3,0l0.2,0.1
		l0,0.1l0,0.2l0,0.2l0.1,0.1l0.1-0.1l0.1-0.3l0.1-0.1l0.1,0l0.1,0.1l0.1,0.2l0.1,0.1l0.1,0l0.1,0l0.1,0l0.1,0.2l0,0.1l-0.1,0.2
		l0,0.1l0,0.1l0.1,0.1l0,0.1l0,0.1l0.5,0l-0.1-0.1l0.1-0.3l0.3,0l0.3,0.2l0.3,0.2l-0.2,0v0.1l0.2,0.2l0.3,0.2l0.2,0.1l0.4,0l0.4-0.1
		l0.2-0.2l0.2-0.1l1.1,0.1h0.6l0.1,0.2h0.4l0.4,0.1l2.8,1.7l0.6,0.2l0.6,0l0.3-0.1l0.1-0.2l0.1-0.3l0.2-0.3l0.1-0.1l0.1,0l0.1,0.1
		l0.1,0.1l0,0.2l0,0.2l0,0.2l0.2,0.1l0.1,0l0.1-0.1l0.1,0l0.3,0.1l0.3,0l0.2,0l0.1-0.1l0,0.2l0.1,0.1l0.1,0.1l0.1,0.2v0l0,0l0,0.1
		l0.1,0.1l0.1,0l0.1-0.1l0.1-0.1l0.5,0.7l0.1,0.2l0,0.2l-0.2,0.2l0.1,0.1l0,0.2l0,0.2l0.1,0.1l0.1,0.1l0.1,0l0.1-0.1l0.1-0.1l0,0
		l0.1,0.1h0.1l0,0l0.1-0.1l0.4-0.1l0.2,0.1l0,0.3l-0.2,0.5l0,0.1l0,0.1l0,0.1l0,0l-0.1,0l0,0l-0.1,0.2l0,0.1l0,0l0.8-0.1l0.2-0.1
		l0.4-0.3l0.2-0.2l0.2-0.2l0.2-0.4l0.1-0.1l0.1-0.1l0.2-0.1l0.1-0.1l0.2-0.2l0.1-0.3l0.1-0.3v-0.3l0-0.2l-0.1-0.1l-0.1-0.1l-0.1-0.1
		l0.1-0.6l0-0.1l-0.1-0.2l-0.1-0.2l0-0.1l0.2-0.1l0.2,0l0.1,0l0,0l0,0.1l0,0.1l0,0.1l0,0.1l0,0.1l0.1,0.1l0.1,0.1l0.2,0.1l0.4,0.1
		l0.1,0l0.1-0.1l0.2-0.3l0.1-0.1l0.2,0l1.3,0.5l0,0l0,0.1l0.1,0.1l0.1,0l0.3,0l0.4-0.2l0.1,0l0.1,0l0.1,0.1l0.2,0.2l-0.1,0.1
		l-0.3,0.2l0.1,0.1l0.5,0.2l0.5,0.5l0,0.1l0,0.1l0,0.1l0,0.1l0,0l0.1,0.2l0.1,0.1l1,0l0.2-0.1l0.7-0.5l0.3-0.1l0.2,0.1l0,0.4l0.2,0
		l0.2-0.1l0.1-0.2l0.1-0.2l0.2-0.2l0.2-0.1l0.4,0l0.2-0.1l0.1-0.1l0-0.1l-0.1-0.1l-0.1,0l0.5-0.5l0.2-0.1l0.2,0l0.2,0.1l0.5-0.1
		l0.2-0.1l0.2-0.2l0.1-0.1l0.1-0.3l0.1-0.2l0.3-0.2l0,0l0.2,0l0.4,0.1l0.8,0l0.6,0.1l0.1,0l0.1-0.3l0.1-0.1l0.8-0.2l2.3,0.1l0.1,0
		l0.3-0.4l0-0.1l0-0.1l0-0.4l0-0.1l-0.1,0l-0.1-0.1l-0.1-0.1l0-0.1l0-0.1l0.2-0.1l0.2-0.2l0.1-0.1l0.1-0.1l0,0l0,0.1l0,0.2l0,0.1
		l-0.1,0.1l0,0.1l0.1,0.2l0.1,0.1l0.1,0l0.2-0.1l0.2,0l0.6,0.1l0.2,0l0.4-0.2l0.2,0l0,0.1l0.1,0.3l0.1,0.1l0.1,0.1l0.3,0.2l0.1,0.1
		l0.2,0l0.2,0l0.2-0.1l0.4-0.4l0.2-0.1l0.4-0.1h0.4l0.6,0.1l0.2,0l-0.1,0.3l0.2,0.2l0.3,0.2l0.2,0.2l-0.3,0.1l-0.1,0.3l0.1,0.4
		l0.2,0.2l0.2,0l0.1,0l0.1,0.1l0.5,0.5l0.5,0.4l0.1,0l0.1,0l0.1,0l0.1,0l0.1,0.1l0.1,0.1l0.1,0l0.1,0l0.1-0.1l0.3-0.3l0-0.1l0-0.1
		l0-0.1l0-0.1l0-0.1v-0.3l0,0l0.1-0.2l0,0l0,0l0-0.3l0,0l0.2-0.2l0,0l0.1-0.3l0,0l0-0.2l0-0.2l0-0.2l-0.1-0.2l-0.2-0.3l-0.1-0.1
		l-0.1-0.1l-0.2,0l-0.3,0.1l-0.2,0l-0.6-0.1l-0.2-0.2l0.2-0.3l0,0l0.1-0.1l0-0.1l0-0.1l0-0.1l0.1-0.1l0.6-1l0,0l-0.2-0.3l-0.3-0.8
		l-0.2-0.2l-0.1,0l-0.2-0.2l-0.2-0.1l-0.1-0.1l-0.1-0.2l0-0.2l-0.2-0.3l-0.7-0.7l-0.1-0.1l-0.1-0.2l0-0.2l0-0.2l0.1-0.1l0.1,0l0.1,0
		l0.1,0l0.1-0.2l0-0.1l0.4-0.3l0.1-0.2l0.2-0.3l0.1-0.1l0.2-0.1l0.6-0.1l0,0l0.2-0.1l0.3-0.2l0.4-0.4l0.2-0.1l1-0.4l1.4-0.2l0.3-0.2
		l1-0.9l0.1-0.2l0.1-0.3l0-0.1l0-0.1l0-0.1l0-0.2l0-0.4l0-0.1l0-0.1l0.1-0.3l0-0.1l0-0.1l-0.1-0.1l0-0.3l0-0.1l0-0.1l0.1-0.1
		l0.1-0.1l0.3-0.1l0.3,0l1,0.3l0.2,0.1l0.2,0.1l0.2,0.2l0.4,0.2l0,0l0.1-0.4l0.1-0.2l0,0l0.2,0l0.1,0l0.1-0.1l0-0.1l0.2-0.4l0.1-0.2
		l0-0.2l0-0.3l-0.1-0.5l0-0.2l0.1-0.1l-0.1-0.1l-0.1,0l-0.1-0.2l-0.1,0l0-0.1l0.3-0.6l-0.2-0.2l-0.5-1l-0.2-0.4l-0.1-0.1l-0.4-0.1
		l-0.2-0.1l-0.2-0.2l-0.2-0.2l-0.1-0.3l0-0.3l-0.2,0l-0.2-0.1l-0.2-0.1l-0.2-0.1l-0.2-0.1l-0.1,0.1l-0.1,0.2l-0.1,0.3l-0.2-0.1
		l-0.3-0.2l-0.3-0.3l-0.1-0.2l0-0.4l-0.1-0.3l-0.4-0.4l-0.3-0.4l-0.1-0.1l-0.2-0.1l-0.6,0l-0.3-0.2l-0.2-0.3l-0.1-0.3l-0.9-1.3
		l-0.1-0.1h0v0l-0.3-0.4l0-0.1l0-0.1l-0.1-0.1l-0.2-0.1l-0.3-0.3l-0.1-0.1l-0.2-0.1l-0.4-0.1l-0.1,0l0,0.2l-0.2,0l-0.6-0.1l-0.2-0.1
		l-0.2-0.2l-0.3-0.7l-0.2-0.2l-0.5-0.2l-0.2-0.2l-0.1-0.2l0-0.2l0-0.5l0-0.3l-0.1-0.1l-0.1,0l-0.1,0l-0.1-0.1l-0.1-0.1l-0.1-0.1
		l-0.1-0.2l0-0.2l0-0.3l-0.1-0.2l-0.1-0.1l-0.2-0.1l-0.1-0.1l0,0l0-0.1l-0.1,0l0,0l0.1-0.2l0-0.2l-0.1-0.2l-0.1-0.1l-0.3-0.2
		l-0.2-0.1l-0.1-0.1l-0.2-0.3l-0.1-0.2l0-0.2l0.1-0.2l0.4-0.2l0.2-0.2l0-0.3l0-0.3l0.1-0.2l0.2,0.1l0.1-0.2l0.2-0.4l0.1-0.2l0-0.3
		l-0.1-0.1l-0.1-0.1l-0.4-0.2l0-0.2l0.1-0.2l0-0.2l-0.2-0.2l-0.4,0l-0.2-0.2h0l-1.5-0.8l0-0.1l0-0.1l0-0.2l-0.1-0.2l-0.1-0.1
		l-0.2-0.1l-0.1-0.1l-0.1-0.2l0-0.2l0.1-0.4l0-0.2l-0.1-0.2l-0.1-0.2l-0.2-0.3l-0.5-0.3l-0.1-0.2l0.1-0.2l0.1-0.1l0.1-0.1l0-0.2
		l0-0.2l-0.1-0.1l-0.2-0.2l0.7,0.1l0.2,0.1l0.1,0.1l0,0.3l0,0.1l0.1,0.1l0.1,0l0.3,0l0.1,0l0,0.1l0,0.1l0,0.1l0,0l0,0l0,0l0,0l0,0
		l0,0l0,0l0,0l0.2,0.2l0,0.1l0,0.1l0,0.1l0,0.1l0.1,0.4l0.1,0.2l0.2,0l0.1-0.1v-0.1l-0.1-0.2l0-0.2l0-0.3l0.1-0.1l0.2-0.3l0-0.2
		l0.1-0.1l0.1-0.1l0.1-0.1l0.3-0.6l0.1-0.1l0.3-0.2l0.1-0.1l0,0l0.1,0l0,0l0-0.1l0-0.1l0-0.1v0l0-0.1l0-0.1l0-0.1l0.1-0.1l0.3-0.2
		l0.4-0.1l0.8-0.1l0.5,0.1l0.1,0l0.1-0.1l0.2-0.3l0.1-0.1l0.2-0.1l0.2,0l0.2,0l0.1,0l0.1-0.1l0.1,0l0.1,0l0.9,0.6l0.3,0l0.3-0.3
		l0.1-0.2l0.1-0.3l0.1-0.6l0.1-0.1l0.1,0l0.1,0l0.1,0.1l0.1,0l0.1,0l0.1,0l0.1,0l0,0l0.3-0.1l0.5,0l0.2-0.2l0.1-0.3l0.3-0.9l0.2,0
		l0.2,0.1l0.2,0.1l0.2-0.1l0.1-0.3l0.1-0.1l0.4-0.3l0.1-0.1l0-0.1l0,0l0.1,0l0.1,0.1l0.1,0.2l0.1,0.1l0.2,0.1l0.2,0l0.2-0.2l0.2-0.2
		l0.1-0.1l0.1-0.1l0-0.1l-0.1-0.1l0.2-0.1l0.1-0.2l0-0.2l-0.1-0.2l0.4-0.2l0.5-0.1l0.9,0l0.2,0l0.4-0.1l0.2,0l0.5,0.1l0.2,0l0.3-0.2
		l0.1,0l0.1,0l0.1-0.1l0-0.1l0-0.1l0-0.1l0-0.2l0.1-0.1l0.1,0l0.1,0l0.1,0l0.1-0.1l0.2-0.2l0.1-0.1l0.2,0l0.4,0l0.2,0l1.6-0.7
		l0.1-0.1l0.2-0.3l0.1-0.1l0.4-0.1l0.8,0.1l0.3-0.2l0.1-0.4l-0.3-0.2l-0.4-0.1l-0.3-0.3l0-0.2l0.1-0.1l0,0l-0.2-0.1l-0.3,0l-0.1-0.1
		l0.1-0.2l0.1-0.5l0.2-0.2l0.3-0.1l0.4,0.1l0.1,0.1l0.1,0.1l0.1,0.1l0.1,0.1l0.1,0l0.3-0.1l0.4,0l0.1-0.1l0.1-0.2l0.1,0.1l0,0.1
		l0,0.1l0.1,0.1l0.1,0.1l0.3,0.1l0.1,0.1l0.1,0.1l0.1,0.1l0,0.2l0,0.2l-0.1,0.2l-0.1,0.2l-0.1,0.2l0.1,0.1l0.6-0.2l0.1,0l0.1,0.2
		l-0.1,0.2l-0.2,0.4l0,0.3l0,0.1l0.3,0.1l0.1,0.1l0.4,0.3l0.4,0.1l0.2,0l0.2,0l0.1-0.1l0.1-0.2l0.2-0.4l0-0.3l0.1-0.2l0.4-0.4
		l0.5-1.2l0.4-1.1l0-0.2v-0.3l0-0.2l0.1-0.1l0.1-0.1l0.1-0.1l0-0.2l0-0.4l0.1-0.4l0.1-0.4L180.9,99.9L180.9,99.9z"/>
	<g>
		<path class="st1" d="M209.9,25.6h-0.7v-4.9l-2,4.9h-0.3l-2-4.9v4.9h-0.7v-6h1.1l1.9,4.5l1.9-4.5h1.1V25.6z"/>
		<path class="st1" d="M214.7,25.6H214v-0.5c-0.4,0.4-0.8,0.6-1.4,0.6c-0.4,0-0.8-0.1-1.1-0.4c-0.3-0.3-0.5-0.6-0.5-1.1
			c0-0.5,0.2-0.8,0.5-1.1s0.7-0.4,1.1-0.4c0.6,0,1.1,0.2,1.4,0.6v-0.8c0-0.3-0.1-0.5-0.3-0.7s-0.5-0.2-0.8-0.2c-0.5,0-1,0.2-1.3,0.6
			l-0.3-0.5c0.5-0.5,1-0.7,1.7-0.7c0.5,0,0.9,0.1,1.2,0.4c0.3,0.2,0.5,0.6,0.5,1.1V25.6z M212.8,25.2c0.5,0,0.9-0.2,1.2-0.5v-0.8
			c-0.3-0.4-0.7-0.5-1.2-0.5c-0.3,0-0.6,0.1-0.8,0.3c-0.2,0.2-0.3,0.4-0.3,0.7c0,0.3,0.1,0.5,0.3,0.7
			C212.3,25.1,212.5,25.2,212.8,25.2z"/>
		<path class="st1" d="M218,25.7c-0.6,0-1.2-0.2-1.6-0.7c-0.4-0.4-0.6-1-0.6-1.6s0.2-1.2,0.6-1.6c0.4-0.4,0.9-0.6,1.6-0.6
			c0.7,0,1.2,0.3,1.6,0.8l-0.4,0.4c-0.3-0.4-0.6-0.6-1.1-0.6c-0.5,0-0.8,0.2-1.1,0.5s-0.4,0.7-0.4,1.2s0.1,0.9,0.4,1.2
			c0.3,0.3,0.6,0.5,1.1,0.5s0.8-0.2,1.1-0.6l0.4,0.4C219.2,25.4,218.6,25.7,218,25.7z"/>
		<path class="st1" d="M222.5,25.7c-0.6,0-1.2-0.2-1.6-0.6s-0.6-1-0.6-1.7c0-0.6,0.2-1.2,0.6-1.6c0.4-0.4,0.9-0.7,1.5-0.7
			c0.6,0,1.2,0.2,1.5,0.7c0.4,0.4,0.6,1,0.6,1.7v0.2H221c0,0.4,0.2,0.8,0.5,1.1c0.3,0.3,0.6,0.4,1.1,0.4c0.5,0,1-0.2,1.3-0.5
			l0.3,0.4C223.7,25.5,223.2,25.7,222.5,25.7z M223.8,23.1c0-0.4-0.1-0.7-0.4-1s-0.6-0.4-1.1-0.4c-0.4,0-0.8,0.1-1,0.4
			c-0.2,0.3-0.4,0.6-0.4,1H223.8z"/>
		<path class="st1" d="M229.4,25.6h-0.7v-0.6c-0.4,0.5-0.9,0.8-1.5,0.8c-0.6,0-1-0.2-1.4-0.6c-0.4-0.4-0.5-1-0.5-1.7
			c0-0.7,0.2-1.2,0.5-1.7c0.4-0.4,0.8-0.6,1.4-0.6c0.6,0,1.1,0.3,1.5,0.8v-2.3h0.7V25.6z M227.4,25.1c0.3,0,0.5-0.1,0.8-0.2
			c0.2-0.1,0.4-0.3,0.5-0.5v-2c-0.1-0.2-0.3-0.4-0.6-0.5c-0.2-0.1-0.5-0.2-0.8-0.2c-0.4,0-0.8,0.2-1,0.5c-0.3,0.3-0.4,0.7-0.4,1.2
			s0.1,0.9,0.4,1.2S227,25.1,227.4,25.1z"/>
		<path class="st1" d="M234.2,25c-0.4,0.4-0.9,0.7-1.6,0.7s-1.2-0.2-1.6-0.7c-0.4-0.4-0.6-1-0.6-1.6s0.2-1.2,0.6-1.6
			c0.4-0.4,0.9-0.7,1.6-0.7s1.2,0.2,1.6,0.7c0.4,0.4,0.6,1,0.6,1.6S234.6,24.6,234.2,25z M231.6,24.6c0.3,0.3,0.6,0.5,1.1,0.5
			c0.4,0,0.8-0.2,1.1-0.5s0.4-0.7,0.4-1.2c0-0.5-0.1-0.9-0.4-1.2c-0.3-0.3-0.6-0.5-1.1-0.5c-0.4,0-0.8,0.2-1.1,0.5
			c-0.3,0.3-0.4,0.7-0.4,1.2C231.2,23.9,231.3,24.3,231.6,24.6z"/>
		<path class="st1" d="M239.5,25.6h-0.7v-2.8c0-0.4-0.1-0.6-0.3-0.8c-0.2-0.2-0.4-0.2-0.7-0.2c-0.3,0-0.5,0.1-0.7,0.2
			c-0.2,0.1-0.4,0.3-0.6,0.5v3.2h-0.7v-4.3h0.7v0.6c0.2-0.2,0.4-0.4,0.7-0.5c0.3-0.1,0.6-0.2,0.9-0.2c0.9,0,1.4,0.5,1.4,1.4V25.6z"
			/>
		<path class="st1" d="M241.2,20.6c-0.1,0-0.2,0-0.3-0.1s-0.1-0.2-0.1-0.3s0-0.2,0.1-0.3s0.2-0.1,0.3-0.1c0.1,0,0.2,0,0.3,0.1
			s0.1,0.2,0.1,0.3s0,0.2-0.1,0.3S241.3,20.6,241.2,20.6z M241.5,25.6h-0.7v-4.3h0.7V25.6z"/>
		<path class="st1" d="M246.3,25.6h-0.7v-0.5c-0.4,0.4-0.8,0.6-1.4,0.6c-0.4,0-0.8-0.1-1.1-0.4c-0.3-0.3-0.5-0.6-0.5-1.1
			c0-0.5,0.2-0.8,0.5-1.1c0.3-0.2,0.7-0.4,1.1-0.4c0.6,0,1.1,0.2,1.4,0.6v-0.8c0-0.3-0.1-0.5-0.3-0.7c-0.2-0.2-0.5-0.2-0.8-0.2
			c-0.5,0-1,0.2-1.3,0.6l-0.3-0.5c0.5-0.5,1-0.7,1.7-0.7c0.5,0,0.9,0.1,1.2,0.4c0.3,0.2,0.5,0.6,0.5,1.1V25.6z M244.4,25.2
			c0.5,0,0.9-0.2,1.2-0.5v-0.8c-0.3-0.4-0.7-0.5-1.2-0.5c-0.3,0-0.6,0.1-0.8,0.3c-0.2,0.2-0.3,0.4-0.3,0.7c0,0.3,0.1,0.5,0.3,0.7
			S244.1,25.2,244.4,25.2z"/>
	</g>
	<g>
		<path class="st1" d="M209.2,72h-0.9l-0.5-1.3h-3l-0.5,1.3h-0.9l2.4-6h0.9L209.2,72z M207.6,70l-1.3-3.2L205,70H207.6z"/>
		<path class="st1" d="M210.6,72h-0.7v-6h0.7V72z"/>
		<path class="st1" d="M212.6,72H212v-6h0.7v2.3c0.4-0.5,0.9-0.8,1.5-0.8c0.6,0,1,0.2,1.4,0.6c0.4,0.4,0.5,1,0.5,1.7
			c0,0.7-0.2,1.2-0.5,1.7c-0.4,0.4-0.8,0.6-1.4,0.6c-0.6,0-1.1-0.3-1.5-0.8V72z M212.6,70.9c0.1,0.2,0.3,0.4,0.5,0.5
			c0.2,0.1,0.5,0.2,0.8,0.2c0.4,0,0.8-0.2,1-0.5s0.4-0.7,0.4-1.2s-0.1-0.9-0.4-1.2c-0.3-0.3-0.6-0.5-1-0.5c-0.3,0-0.5,0.1-0.8,0.2
			s-0.4,0.3-0.5,0.5V70.9z"/>
		<path class="st1" d="M220.5,72h-0.7v-0.5c-0.4,0.4-0.8,0.6-1.4,0.6c-0.4,0-0.8-0.1-1.1-0.4c-0.3-0.3-0.5-0.6-0.5-1.1
			c0-0.5,0.2-0.8,0.5-1.1c0.3-0.2,0.7-0.4,1.1-0.4c0.6,0,1.1,0.2,1.4,0.6v-0.8c0-0.3-0.1-0.5-0.3-0.7s-0.5-0.2-0.8-0.2
			c-0.5,0-1,0.2-1.3,0.6l-0.3-0.5c0.5-0.5,1-0.7,1.7-0.7c0.5,0,0.9,0.1,1.2,0.4c0.3,0.2,0.5,0.6,0.5,1.1V72z M218.7,71.7
			c0.5,0,0.9-0.2,1.2-0.5v-0.8c-0.3-0.4-0.7-0.5-1.2-0.5c-0.3,0-0.6,0.1-0.8,0.3s-0.3,0.4-0.3,0.7c0,0.3,0.1,0.5,0.3,0.7
			C218.1,71.6,218.4,71.7,218.7,71.7z"/>
		<path class="st1" d="M225.5,72h-0.7v-2.8c0-0.4-0.1-0.6-0.3-0.8c-0.2-0.2-0.4-0.2-0.7-0.2c-0.3,0-0.5,0.1-0.7,0.2
			c-0.2,0.1-0.4,0.3-0.6,0.5V72h-0.7v-4.3h0.7v0.6c0.2-0.2,0.4-0.4,0.7-0.5c0.3-0.1,0.6-0.2,0.9-0.2c0.9,0,1.4,0.5,1.4,1.4V72z"/>
		<path class="st1" d="M227.2,67.1c-0.1,0-0.2,0-0.3-0.1c-0.1-0.1-0.1-0.2-0.1-0.3s0-0.2,0.1-0.3c0.1-0.1,0.2-0.1,0.3-0.1
			c0.1,0,0.2,0,0.3,0.1c0.1,0.1,0.1,0.2,0.1,0.3s0,0.2-0.1,0.3C227.4,67,227.3,67.1,227.2,67.1z M227.5,72h-0.7v-4.3h0.7V72z"/>
		<path class="st1" d="M232.3,72h-0.7v-0.5c-0.4,0.4-0.8,0.6-1.4,0.6c-0.4,0-0.8-0.1-1.1-0.4c-0.3-0.3-0.5-0.6-0.5-1.1
			c0-0.5,0.2-0.8,0.5-1.1c0.3-0.2,0.7-0.4,1.1-0.4c0.6,0,1.1,0.2,1.4,0.6v-0.8c0-0.3-0.1-0.5-0.3-0.7c-0.2-0.2-0.5-0.2-0.8-0.2
			c-0.5,0-1,0.2-1.3,0.6l-0.3-0.5c0.5-0.5,1-0.7,1.7-0.7c0.5,0,0.9,0.1,1.2,0.4s0.5,0.6,0.5,1.1V72z M230.4,71.7
			c0.5,0,0.9-0.2,1.2-0.5v-0.8c-0.3-0.4-0.7-0.5-1.2-0.5c-0.3,0-0.6,0.1-0.8,0.3s-0.3,0.4-0.3,0.7c0,0.3,0.1,0.5,0.3,0.7
			C229.8,71.6,230.1,71.7,230.4,71.7z"/>
	</g>
	<g>
		<path class="st1" d="M206,107.9c-1,0-1.7-0.3-2.3-1l0.4-0.6c0.5,0.6,1.1,0.9,1.9,0.9c0.5,0,0.8-0.1,1.1-0.3
			c0.2-0.2,0.3-0.4,0.3-0.7c0-0.2-0.1-0.4-0.2-0.5c-0.1-0.1-0.3-0.3-0.5-0.3s-0.4-0.2-0.7-0.2c-0.3-0.1-0.5-0.1-0.8-0.2
			c-0.3-0.1-0.5-0.2-0.7-0.3s-0.4-0.3-0.5-0.5c-0.1-0.2-0.2-0.5-0.2-0.7c0-0.5,0.2-0.9,0.6-1.2c0.4-0.3,0.9-0.5,1.5-0.5
			c0.9,0,1.6,0.3,2.1,0.8l-0.5,0.5c-0.4-0.5-1-0.7-1.7-0.7c-0.4,0-0.7,0.1-0.9,0.3c-0.2,0.2-0.3,0.4-0.3,0.7c0,0.2,0.1,0.4,0.3,0.5
			c0.2,0.1,0.4,0.2,0.7,0.3c0.3,0.1,0.5,0.1,0.9,0.2c0.3,0.1,0.6,0.2,0.9,0.3c0.3,0.1,0.5,0.3,0.7,0.5c0.2,0.2,0.3,0.5,0.3,0.9
			c0,0.5-0.2,0.9-0.5,1.3C207.3,107.7,206.7,107.9,206,107.9z"/>
		<path class="st1" d="M211.3,107.9c-0.6,0-1.2-0.2-1.6-0.6c-0.4-0.4-0.6-1-0.6-1.7c0-0.6,0.2-1.2,0.6-1.6c0.4-0.4,0.9-0.7,1.5-0.7
			c0.6,0,1.2,0.2,1.5,0.7c0.4,0.4,0.6,1,0.6,1.7v0.2h-3.5c0,0.4,0.2,0.8,0.5,1.1c0.3,0.3,0.6,0.4,1.1,0.4c0.5,0,1-0.2,1.3-0.5
			l0.3,0.4C212.5,107.6,212,107.9,211.3,107.9z M212.6,105.3c0-0.4-0.1-0.7-0.4-1c-0.2-0.3-0.6-0.4-1.1-0.4c-0.4,0-0.8,0.1-1,0.4
			c-0.2,0.3-0.4,0.6-0.4,1H212.6z"/>
		<path class="st1" d="M215,107.8h-0.7v-4.3h0.7v0.7c0.4-0.5,0.9-0.8,1.4-0.8v0.7c-0.1,0-0.2,0-0.3,0c-0.2,0-0.4,0.1-0.7,0.2
			c-0.2,0.1-0.4,0.3-0.5,0.5V107.8z"/>
		<path class="st1" d="M218,107.8h-0.7v-6h0.7v2.3c0.4-0.5,0.9-0.8,1.5-0.8c0.6,0,1,0.2,1.4,0.6c0.4,0.4,0.5,1,0.5,1.7
			c0,0.7-0.2,1.2-0.5,1.7s-0.8,0.6-1.4,0.6c-0.6,0-1.1-0.3-1.5-0.8V107.8z M218,106.6c0.1,0.2,0.3,0.4,0.5,0.5
			c0.2,0.1,0.5,0.2,0.8,0.2c0.4,0,0.8-0.2,1-0.5c0.3-0.3,0.4-0.7,0.4-1.2s-0.1-0.9-0.4-1.2c-0.3-0.3-0.6-0.5-1-0.5
			c-0.3,0-0.5,0.1-0.8,0.2c-0.2,0.1-0.4,0.3-0.5,0.5V106.6z"/>
		<path class="st1" d="M222.8,102.8c-0.1,0-0.2,0-0.3-0.1c-0.1-0.1-0.1-0.2-0.1-0.3s0-0.2,0.1-0.3c0.1-0.1,0.2-0.1,0.3-0.1
			c0.1,0,0.2,0,0.3,0.1s0.1,0.2,0.1,0.3s0,0.2-0.1,0.3S223,102.8,222.8,102.8z M223.2,107.8h-0.7v-4.3h0.7V107.8z"/>
		<path class="st1" d="M227.9,107.8h-0.7v-0.5c-0.4,0.4-0.8,0.6-1.4,0.6c-0.4,0-0.8-0.1-1.1-0.4c-0.3-0.3-0.5-0.6-0.5-1.1
			c0-0.5,0.2-0.8,0.5-1.1c0.3-0.2,0.7-0.4,1.1-0.4c0.6,0,1.1,0.2,1.4,0.6v-0.8c0-0.3-0.1-0.5-0.3-0.7s-0.5-0.2-0.8-0.2
			c-0.5,0-1,0.2-1.3,0.6l-0.3-0.5c0.5-0.5,1-0.7,1.7-0.7c0.5,0,0.9,0.1,1.2,0.4c0.3,0.2,0.5,0.6,0.5,1.1V107.8z M226.1,107.4
			c0.5,0,0.9-0.2,1.2-0.5V106c-0.3-0.4-0.7-0.5-1.2-0.5c-0.3,0-0.6,0.1-0.8,0.3s-0.3,0.4-0.3,0.7c0,0.3,0.1,0.5,0.3,0.7
			S225.7,107.4,226.1,107.4z"/>
	</g>
	<g>
		<path class="st1" d="M208.6,146.1h-0.9l-2.3-2.7l-0.6,0.7v2h-0.7v-6h0.7v3.1l2.7-3.1h0.9l-2.5,2.9L208.6,146.1z"/>
		<path class="st1" d="M212.6,145.5c-0.4,0.4-0.9,0.7-1.6,0.7s-1.2-0.2-1.6-0.7c-0.4-0.4-0.6-1-0.6-1.6s0.2-1.2,0.6-1.6
			c0.4-0.4,0.9-0.7,1.6-0.7s1.2,0.2,1.6,0.7c0.4,0.4,0.6,1,0.6,1.6S213,145.1,212.6,145.5z M210,145.1c0.3,0.3,0.6,0.5,1.1,0.5
			c0.4,0,0.8-0.2,1.1-0.5s0.4-0.7,0.4-1.2c0-0.5-0.1-0.9-0.4-1.2c-0.3-0.3-0.6-0.5-1.1-0.5c-0.4,0-0.8,0.2-1.1,0.5s-0.4,0.7-0.4,1.2
			C209.6,144.4,209.7,144.8,210,145.1z"/>
		<path class="st1" d="M215.7,146.2c-0.7,0-1.3-0.2-1.8-0.7l0.4-0.5c0.1,0.2,0.4,0.3,0.6,0.4c0.3,0.1,0.5,0.2,0.8,0.2
			c0.3,0,0.6-0.1,0.8-0.2c0.2-0.1,0.3-0.3,0.3-0.5c0-0.2-0.1-0.3-0.3-0.5c-0.2-0.1-0.4-0.2-0.7-0.3c-0.3-0.1-0.5-0.1-0.8-0.2
			c-0.3-0.1-0.5-0.2-0.7-0.4s-0.3-0.4-0.3-0.7c0-0.4,0.1-0.7,0.4-0.9c0.3-0.2,0.7-0.4,1.2-0.4c0.7,0,1.2,0.2,1.6,0.6l-0.3,0.5
			c-0.3-0.4-0.7-0.5-1.3-0.5c-0.3,0-0.5,0.1-0.7,0.2c-0.2,0.1-0.3,0.3-0.3,0.5c0,0.2,0.1,0.3,0.3,0.4s0.4,0.2,0.7,0.2
			c0.3,0.1,0.5,0.1,0.8,0.2c0.3,0.1,0.5,0.2,0.7,0.4s0.3,0.4,0.3,0.8c0,0.4-0.2,0.7-0.5,0.9C216.6,146.1,216.2,146.2,215.7,146.2z"
			/>
		<path class="st1" d="M221.9,145.5c-0.4,0.4-0.9,0.7-1.6,0.7c-0.6,0-1.2-0.2-1.6-0.7s-0.6-1-0.6-1.6s0.2-1.2,0.6-1.6
			c0.4-0.4,0.9-0.7,1.6-0.7c0.6,0,1.2,0.2,1.6,0.7c0.4,0.4,0.6,1,0.6,1.6S222.3,145.1,221.9,145.5z M219.3,145.1
			c0.3,0.3,0.6,0.5,1.1,0.5s0.8-0.2,1.1-0.5s0.4-0.7,0.4-1.2c0-0.5-0.1-0.9-0.4-1.2c-0.3-0.3-0.6-0.5-1.1-0.5s-0.8,0.2-1.1,0.5
			c-0.3,0.3-0.4,0.7-0.4,1.2C218.9,144.4,219,144.8,219.3,145.1z"/>
		<path class="st1" d="M225.5,146.1h-0.7l-1.8-4.3h0.7l1.4,3.6l1.4-3.6h0.7L225.5,146.1z"/>
		<path class="st1" d="M231.5,145.5c-0.4,0.4-0.9,0.7-1.6,0.7s-1.2-0.2-1.6-0.7c-0.4-0.4-0.6-1-0.6-1.6s0.2-1.2,0.6-1.6
			c0.4-0.4,0.9-0.7,1.6-0.7s1.2,0.2,1.6,0.7c0.4,0.4,0.6,1,0.6,1.6S231.9,145.1,231.5,145.5z M228.9,145.1c0.3,0.3,0.6,0.5,1.1,0.5
			c0.4,0,0.8-0.2,1.1-0.5s0.4-0.7,0.4-1.2c0-0.5-0.1-0.9-0.4-1.2c-0.3-0.3-0.6-0.5-1.1-0.5c-0.4,0-0.8,0.2-1.1,0.5
			c-0.3,0.3-0.4,0.7-0.4,1.2C228.5,144.4,228.6,144.8,228.9,145.1z"/>
	</g>
	<g>
		<path class="st1" d="M45.7,37.7h-3.9v-6h3.9v0.7h-3.2v1.9h3.1V35h-3.1V37h3.2V37.7z"/>
		<path class="st1" d="M47.5,37.7h-0.7v-4.3h0.7v0.7c0.4-0.5,0.9-0.8,1.4-0.8V34c-0.1,0-0.2,0-0.3,0c-0.2,0-0.4,0.1-0.7,0.2
			c-0.2,0.1-0.4,0.3-0.5,0.5V37.7z"/>
		<path class="st1" d="M50.2,32.7c-0.1,0-0.2,0-0.3-0.1c-0.1-0.1-0.1-0.2-0.1-0.3s0-0.2,0.1-0.3c0.1-0.1,0.2-0.1,0.3-0.1
			c0.1,0,0.2,0,0.3,0.1c0.1,0.1,0.1,0.2,0.1,0.3s0,0.2-0.1,0.3C50.4,32.7,50.3,32.7,50.2,32.7z M50.5,37.7h-0.7v-4.3h0.7V37.7z"/>
		<path class="st1" d="M52.9,37.8c-0.3,0-0.6-0.1-0.7-0.3c-0.2-0.2-0.2-0.4-0.2-0.8V34h-0.7v-0.6H52v-1.2h0.7v1.2h0.9V34h-0.9v2.7
			c0,0.2,0,0.3,0.1,0.4c0.1,0.1,0.2,0.2,0.3,0.2c0.2,0,0.4-0.1,0.5-0.2l0.2,0.5C53.6,37.7,53.3,37.8,52.9,37.8z"/>
		<path class="st1" d="M55.2,37.7h-0.7v-4.3h0.7v0.7c0.4-0.5,0.9-0.8,1.4-0.8V34c-0.1,0-0.2,0-0.3,0c-0.2,0-0.4,0.1-0.7,0.2
			c-0.2,0.1-0.4,0.3-0.5,0.5V37.7z"/>
		<path class="st1" d="M59.4,37.8c-0.6,0-1.2-0.2-1.6-0.6c-0.4-0.4-0.6-1-0.6-1.7c0-0.6,0.2-1.2,0.6-1.6c0.4-0.4,0.9-0.7,1.5-0.7
			c0.6,0,1.2,0.2,1.5,0.7c0.4,0.4,0.6,1,0.6,1.7v0.2h-3.5c0,0.4,0.2,0.8,0.5,1.1c0.3,0.3,0.6,0.4,1.1,0.4c0.5,0,1-0.2,1.3-0.5
			l0.3,0.4C60.7,37.6,60.1,37.8,59.4,37.8z M60.8,35.3c0-0.4-0.1-0.7-0.4-1c-0.2-0.3-0.6-0.4-1.1-0.4c-0.4,0-0.8,0.1-1,0.4
			s-0.4,0.6-0.4,1H60.8z"/>
		<path class="st1" d="M65.9,37.7h-0.7v-0.5c-0.4,0.4-0.8,0.6-1.4,0.6c-0.4,0-0.8-0.1-1.1-0.4c-0.3-0.3-0.5-0.6-0.5-1.1
			c0-0.5,0.2-0.8,0.5-1.1c0.3-0.2,0.7-0.4,1.1-0.4c0.6,0,1.1,0.2,1.4,0.6v-0.8c0-0.3-0.1-0.5-0.3-0.7s-0.5-0.2-0.8-0.2
			c-0.5,0-1,0.2-1.3,0.6L62.5,34c0.5-0.5,1-0.7,1.7-0.7c0.5,0,0.9,0.1,1.2,0.4c0.3,0.2,0.5,0.6,0.5,1.1V37.7z M64,37.3
			c0.5,0,0.9-0.2,1.2-0.5V36c-0.3-0.4-0.7-0.5-1.2-0.5c-0.3,0-0.6,0.1-0.8,0.3c-0.2,0.2-0.3,0.4-0.3,0.7c0,0.3,0.1,0.5,0.3,0.7
			C63.5,37.2,63.7,37.3,64,37.3z"/>
	</g>
	<g>
		<path class="st1" d="M129.5,8.1h-0.7v-6h0.7V8.1z"/>
		<path class="st1" d="M131.6,8.1h-0.7V3.8h0.7v0.7c0.4-0.5,0.9-0.8,1.4-0.8v0.7c-0.1,0-0.2,0-0.3,0c-0.2,0-0.4,0.1-0.7,0.2
			c-0.2,0.1-0.4,0.3-0.5,0.5V8.1z"/>
		<path class="st1" d="M137.2,8.1h-0.7V7.6c-0.4,0.4-0.8,0.6-1.4,0.6c-0.4,0-0.8-0.1-1.1-0.4c-0.3-0.3-0.5-0.6-0.5-1.1
			c0-0.5,0.2-0.8,0.5-1.1s0.7-0.4,1.1-0.4c0.6,0,1.1,0.2,1.4,0.6V5.2c0-0.3-0.1-0.5-0.3-0.7s-0.5-0.2-0.8-0.2c-0.5,0-1,0.2-1.3,0.6
			l-0.3-0.5c0.5-0.5,1-0.7,1.7-0.7c0.5,0,0.9,0.1,1.2,0.4c0.3,0.2,0.5,0.6,0.5,1.1V8.1z M135.4,7.7c0.5,0,0.9-0.2,1.2-0.5V6.4
			c-0.3-0.4-0.7-0.5-1.2-0.5c-0.3,0-0.6,0.1-0.8,0.3c-0.2,0.2-0.3,0.4-0.3,0.7c0,0.3,0.1,0.5,0.3,0.7C134.8,7.7,135.1,7.7,135.4,7.7
			z"/>
		<path class="st1" d="M140.2,8.2c-0.6,0-1-0.2-1.4-0.6c-0.4-0.4-0.5-1-0.5-1.7c0-0.7,0.2-1.2,0.5-1.7c0.4-0.4,0.8-0.6,1.4-0.6
			c0.3,0,0.6,0.1,0.8,0.2s0.5,0.3,0.6,0.5V3.8h0.7v6h-0.7V7.5C141.3,8,140.9,8.2,140.2,8.2z M140.4,7.6c0.3,0,0.5-0.1,0.8-0.2
			c0.2-0.1,0.4-0.3,0.5-0.5V5c-0.1-0.2-0.3-0.4-0.5-0.5c-0.2-0.1-0.5-0.2-0.8-0.2c-0.4,0-0.8,0.2-1,0.5C139.1,5,139,5.5,139,5.9
			c0,0.5,0.1,0.9,0.4,1.2S140,7.6,140.4,7.6z"/>
	</g>
	<g>
		<path class="st1" d="M49.9,171.2c-1,0-1.7-0.3-2.3-1l0.4-0.6c0.5,0.6,1.1,0.9,1.9,0.9c0.5,0,0.8-0.1,1.1-0.3
			c0.2-0.2,0.3-0.4,0.3-0.7c0-0.2-0.1-0.4-0.2-0.5c-0.1-0.1-0.3-0.3-0.5-0.3s-0.4-0.2-0.7-0.2c-0.3-0.1-0.5-0.1-0.8-0.2
			c-0.3-0.1-0.5-0.2-0.7-0.3c-0.2-0.1-0.4-0.3-0.5-0.5s-0.2-0.5-0.2-0.7c0-0.5,0.2-0.9,0.6-1.2c0.4-0.3,0.9-0.5,1.5-0.5
			c0.9,0,1.6,0.3,2.1,0.8l-0.5,0.5c-0.4-0.5-1-0.7-1.7-0.7c-0.4,0-0.7,0.1-0.9,0.3c-0.2,0.2-0.3,0.4-0.3,0.7c0,0.2,0.1,0.4,0.3,0.5
			c0.2,0.1,0.4,0.2,0.7,0.3c0.3,0.1,0.5,0.1,0.9,0.2c0.3,0.1,0.6,0.2,0.9,0.3c0.3,0.1,0.5,0.3,0.7,0.5c0.2,0.2,0.3,0.5,0.3,0.9
			c0,0.5-0.2,0.9-0.5,1.3C51.2,171.1,50.6,171.2,49.9,171.2z"/>
		<path class="st1" d="M52.9,172.8l0.1-0.6c0.1,0,0.2,0.1,0.4,0.1c0.2,0,0.3,0,0.4-0.1c0.1-0.1,0.2-0.2,0.3-0.4l0.3-0.7l-1.8-4.4
			h0.7l1.4,3.6l1.4-3.6h0.7l-2.2,5.2c-0.2,0.6-0.7,0.9-1.3,0.9C53.2,172.9,53,172.9,52.9,172.8z"/>
		<path class="st1" d="M58.2,171.1h-0.7v-4.3h0.7v0.7c0.4-0.5,0.9-0.8,1.4-0.8v0.7c-0.1,0-0.2,0-0.3,0c-0.2,0-0.4,0.1-0.7,0.2
			c-0.2,0.1-0.4,0.3-0.5,0.5V171.1z"/>
		<path class="st1" d="M60.8,166.2c-0.1,0-0.2,0-0.3-0.1c-0.1-0.1-0.1-0.2-0.1-0.3s0-0.2,0.1-0.3c0.1-0.1,0.2-0.1,0.3-0.1
			c0.1,0,0.2,0,0.3,0.1c0.1,0.1,0.1,0.2,0.1,0.3s0,0.2-0.1,0.3C61.1,166.1,61,166.2,60.8,166.2z M61.2,171.1h-0.7v-4.3h0.7V171.1z"
			/>
		<path class="st1" d="M65.9,171.1h-0.7v-0.5c-0.4,0.4-0.8,0.6-1.4,0.6c-0.4,0-0.8-0.1-1.1-0.4c-0.3-0.3-0.5-0.6-0.5-1.1
			c0-0.5,0.2-0.8,0.5-1.1c0.3-0.2,0.7-0.4,1.1-0.4c0.6,0,1.1,0.2,1.4,0.6v-0.8c0-0.3-0.1-0.5-0.3-0.7s-0.5-0.2-0.8-0.2
			c-0.5,0-1,0.2-1.3,0.6l-0.3-0.5c0.5-0.5,1-0.7,1.7-0.7c0.5,0,0.9,0.1,1.2,0.4c0.3,0.2,0.5,0.6,0.5,1.1V171.1z M64,170.7
			c0.5,0,0.9-0.2,1.2-0.5v-0.8c-0.3-0.4-0.7-0.5-1.2-0.5c-0.3,0-0.6,0.1-0.8,0.3c-0.2,0.2-0.3,0.4-0.3,0.7c0,0.3,0.1,0.5,0.3,0.7
			C63.5,170.7,63.7,170.7,64,170.7z"/>
	</g>
	<g>
		<path class="st1" d="M25.7,71.6h-0.9l-0.5-1.3h-3l-0.5,1.3h-0.9l2.4-6h0.9L25.7,71.6z M24,69.6l-1.3-3.2l-1.3,3.2H24z"/>
		<path class="st1" d="M27.2,71.6h-0.7v-3.8h-0.7v-0.6h0.7v-0.3c0-0.4,0.1-0.8,0.3-1s0.5-0.4,0.9-0.4c0.4,0,0.7,0.1,0.9,0.3
			l-0.3,0.4c-0.2-0.1-0.3-0.2-0.5-0.2c-0.2,0-0.4,0.1-0.5,0.2s-0.2,0.4-0.2,0.6v0.3h0.9v0.6h-0.9V71.6z"/>
		<path class="st1" d="M30.6,73.3c-0.4,0-0.7,0-1-0.1c-0.3-0.1-0.5-0.3-0.8-0.5l0.3-0.5c0.3,0.4,0.8,0.6,1.4,0.6
			c0.4,0,0.7-0.1,1-0.3s0.4-0.5,0.4-1v-0.6c-0.2,0.2-0.4,0.4-0.6,0.6s-0.5,0.2-0.8,0.2c-0.6,0-1-0.2-1.4-0.6c-0.4-0.4-0.5-1-0.5-1.6
			c0-0.7,0.2-1.2,0.5-1.6c0.4-0.4,0.8-0.6,1.4-0.6c0.6,0,1.1,0.3,1.5,0.8v-0.7h0.7v4.2c0,0.7-0.2,1.1-0.6,1.4
			C31.7,73.2,31.2,73.3,30.6,73.3z M30.7,71c0.3,0,0.5-0.1,0.8-0.2s0.4-0.3,0.5-0.5v-1.9c-0.1-0.2-0.3-0.4-0.5-0.5
			c-0.2-0.1-0.5-0.2-0.8-0.2c-0.4,0-0.8,0.2-1,0.5c-0.2,0.3-0.4,0.7-0.4,1.2c0,0.5,0.1,0.9,0.4,1.2C30,70.9,30.3,71,30.7,71z"/>
		<path class="st1" d="M37.7,71.6H37v-2.9c0-0.4-0.1-0.6-0.3-0.8c-0.2-0.2-0.4-0.2-0.7-0.2c-0.2,0-0.5,0.1-0.7,0.2
			c-0.2,0.1-0.4,0.3-0.6,0.5v3.2H34v-6h0.7v2.3c0.2-0.2,0.4-0.4,0.7-0.5c0.3-0.1,0.6-0.2,0.9-0.2c0.9,0,1.4,0.5,1.4,1.4V71.6z"/>
		<path class="st1" d="M42.4,71.6h-0.7v-0.5c-0.4,0.4-0.8,0.6-1.4,0.6c-0.4,0-0.8-0.1-1.1-0.4c-0.3-0.3-0.5-0.6-0.5-1.1
			c0-0.5,0.2-0.8,0.5-1.1c0.3-0.2,0.7-0.4,1.1-0.4c0.6,0,1.1,0.2,1.4,0.6v-0.8c0-0.3-0.1-0.5-0.3-0.7s-0.5-0.2-0.8-0.2
			c-0.5,0-1,0.2-1.3,0.6L39,67.8c0.5-0.5,1-0.7,1.7-0.7c0.5,0,0.9,0.1,1.2,0.4c0.3,0.2,0.5,0.6,0.5,1.1V71.6z M40.5,71.2
			c0.5,0,0.9-0.2,1.2-0.5v-0.8c-0.3-0.4-0.7-0.5-1.2-0.5c-0.3,0-0.6,0.1-0.8,0.3c-0.2,0.2-0.3,0.4-0.3,0.7c0,0.3,0.1,0.5,0.3,0.7
			S40.2,71.2,40.5,71.2z"/>
		<path class="st1" d="M47.4,71.6h-0.7v-2.8c0-0.4-0.1-0.6-0.3-0.8c-0.2-0.2-0.4-0.2-0.7-0.2c-0.3,0-0.5,0.1-0.7,0.2
			c-0.2,0.1-0.4,0.3-0.6,0.5v3.2h-0.7v-4.3h0.7v0.6c0.2-0.2,0.4-0.4,0.7-0.5c0.3-0.1,0.6-0.2,0.9-0.2c0.9,0,1.4,0.5,1.4,1.4V71.6z"
			/>
		<path class="st1" d="M49,66.6c-0.1,0-0.2,0-0.3-0.1s-0.1-0.2-0.1-0.3s0-0.2,0.1-0.3s0.2-0.1,0.3-0.1c0.1,0,0.2,0,0.3,0.1
			s0.1,0.2,0.1,0.3s0,0.2-0.1,0.3S49.2,66.6,49,66.6z M49.4,71.6h-0.7v-4.3h0.7V71.6z"/>
		<path class="st1" d="M52.1,71.7c-0.7,0-1.3-0.2-1.8-0.7l0.4-0.5c0.1,0.2,0.4,0.3,0.6,0.4c0.3,0.1,0.5,0.2,0.8,0.2
			c0.3,0,0.6-0.1,0.8-0.2c0.2-0.1,0.3-0.3,0.3-0.5c0-0.2-0.1-0.3-0.3-0.5c-0.2-0.1-0.4-0.2-0.7-0.3c-0.3-0.1-0.5-0.1-0.8-0.2
			c-0.3-0.1-0.5-0.2-0.7-0.4s-0.3-0.4-0.3-0.7c0-0.4,0.1-0.7,0.4-0.9c0.3-0.2,0.7-0.4,1.2-0.4c0.7,0,1.2,0.2,1.6,0.6l-0.3,0.5
			c-0.3-0.4-0.7-0.5-1.3-0.5c-0.3,0-0.5,0.1-0.7,0.2c-0.2,0.1-0.3,0.3-0.3,0.5c0,0.2,0.1,0.3,0.3,0.4s0.4,0.2,0.7,0.2
			c0.3,0.1,0.5,0.1,0.8,0.2c0.3,0.1,0.5,0.2,0.7,0.4s0.3,0.4,0.3,0.8c0,0.4-0.2,0.7-0.5,0.9C53.1,71.6,52.7,71.7,52.1,71.7z"/>
		<path class="st1" d="M56,71.7c-0.3,0-0.6-0.1-0.7-0.3c-0.2-0.2-0.2-0.4-0.2-0.8v-2.8h-0.7v-0.6h0.7V66h0.7v1.2h0.9v0.6h-0.9v2.7
			c0,0.2,0,0.3,0.1,0.4c0.1,0.1,0.2,0.2,0.3,0.2c0.2,0,0.4-0.1,0.5-0.2l0.2,0.5C56.6,71.6,56.4,71.7,56,71.7z"/>
		<path class="st1" d="M61,71.6h-0.7v-0.5c-0.4,0.4-0.8,0.6-1.4,0.6c-0.4,0-0.8-0.1-1.1-0.4s-0.5-0.6-0.5-1.1c0-0.5,0.2-0.8,0.5-1.1
			s0.7-0.4,1.1-0.4c0.6,0,1.1,0.2,1.4,0.6v-0.8c0-0.3-0.1-0.5-0.3-0.7c-0.2-0.2-0.5-0.2-0.8-0.2c-0.5,0-1,0.2-1.3,0.6l-0.3-0.5
			c0.5-0.5,1-0.7,1.7-0.7c0.5,0,0.9,0.1,1.2,0.4c0.3,0.2,0.5,0.6,0.5,1.1V71.6z M59.1,71.2c0.5,0,0.9-0.2,1.2-0.5v-0.8
			c-0.3-0.4-0.7-0.5-1.2-0.5c-0.3,0-0.6,0.1-0.8,0.3C58.1,69.7,58,70,58,70.3c0,0.3,0.1,0.5,0.3,0.7C58.5,71.1,58.8,71.2,59.1,71.2z
			"/>
		<path class="st1" d="M65.9,71.6h-0.7v-2.8c0-0.4-0.1-0.6-0.3-0.8c-0.2-0.2-0.4-0.2-0.7-0.2c-0.3,0-0.5,0.1-0.7,0.2
			c-0.2,0.1-0.4,0.3-0.6,0.5v3.2h-0.7v-4.3H63v0.6c0.2-0.2,0.4-0.4,0.7-0.5s0.6-0.2,0.9-0.2c0.9,0,1.4,0.5,1.4,1.4V71.6z"/>
	</g>
	<g>
		<path class="st1" d="M53.2,105.8h-0.7v-6h0.7V105.8z"/>
		<path class="st1" d="M55.3,105.8h-0.7v-4.3h0.7v0.7c0.4-0.5,0.9-0.8,1.4-0.8v0.7c-0.1,0-0.2,0-0.3,0c-0.2,0-0.4,0.1-0.7,0.2
			c-0.2,0.1-0.4,0.3-0.5,0.5V105.8z"/>
		<path class="st1" d="M61,105.8h-0.7v-0.5c-0.4,0.4-0.8,0.6-1.4,0.6c-0.4,0-0.8-0.1-1.1-0.4c-0.3-0.3-0.5-0.6-0.5-1.1
			c0-0.5,0.2-0.8,0.5-1.1c0.3-0.2,0.7-0.4,1.1-0.4c0.6,0,1.1,0.2,1.4,0.6v-0.8c0-0.3-0.1-0.5-0.3-0.7s-0.5-0.2-0.8-0.2
			c-0.5,0-1,0.2-1.3,0.6l-0.3-0.5c0.5-0.5,1-0.7,1.7-0.7c0.5,0,0.9,0.1,1.2,0.4c0.3,0.2,0.5,0.6,0.5,1.1V105.8z M59.1,105.4
			c0.5,0,0.9-0.2,1.2-0.5V104c-0.3-0.4-0.7-0.5-1.2-0.5c-0.3,0-0.6,0.1-0.8,0.3c-0.2,0.2-0.3,0.4-0.3,0.7c0,0.3,0.1,0.5,0.3,0.7
			C58.5,105.3,58.8,105.4,59.1,105.4z"/>
		<path class="st1" d="M65.9,105.8h-0.7v-2.8c0-0.4-0.1-0.6-0.3-0.8c-0.2-0.2-0.4-0.2-0.7-0.2c-0.3,0-0.5,0.1-0.7,0.2
			c-0.2,0.1-0.4,0.3-0.6,0.5v3.2h-0.7v-4.3H63v0.6c0.2-0.2,0.4-0.4,0.7-0.5c0.3-0.1,0.6-0.2,0.9-0.2c0.9,0,1.4,0.5,1.4,1.4V105.8z"
			/>
	</g>
	<g>
		<path class="st1" d="M35,139.1h-0.7v-6h2.4c0.6,0,1,0.2,1.4,0.5c0.3,0.3,0.5,0.8,0.5,1.3c0,0.5-0.2,0.9-0.5,1.3
			c-0.3,0.3-0.8,0.5-1.4,0.5H35V139.1z M36.6,136c0.4,0,0.6-0.1,0.9-0.3c0.2-0.2,0.3-0.5,0.3-0.8s-0.1-0.6-0.3-0.8
			c-0.2-0.2-0.5-0.3-0.9-0.3H35v2.3H36.6z"/>
		<path class="st1" d="M42.7,139.1h-0.7v-0.5c-0.4,0.4-0.8,0.6-1.4,0.6c-0.4,0-0.8-0.1-1.1-0.4c-0.3-0.3-0.5-0.6-0.5-1.1
			c0-0.5,0.2-0.8,0.5-1.1c0.3-0.2,0.7-0.4,1.1-0.4c0.6,0,1.1,0.2,1.4,0.6v-0.8c0-0.3-0.1-0.5-0.3-0.7s-0.5-0.2-0.8-0.2
			c-0.5,0-1,0.2-1.3,0.6l-0.3-0.5c0.5-0.5,1-0.7,1.7-0.7c0.5,0,0.9,0.1,1.2,0.4c0.3,0.2,0.5,0.6,0.5,1.1V139.1z M40.9,138.7
			c0.5,0,0.9-0.2,1.2-0.5v-0.8c-0.3-0.4-0.7-0.5-1.2-0.5c-0.3,0-0.6,0.1-0.8,0.3c-0.2,0.2-0.3,0.4-0.3,0.7c0,0.3,0.1,0.5,0.3,0.7
			C40.3,138.6,40.6,138.7,40.9,138.7z"/>
		<path class="st1" d="M47.9,139.1H47l-1.6-2l-0.7,0.7v1.2h-0.7v-6h0.7v4l2.3-2.3h0.9l-1.9,2L47.9,139.1z"/>
		<path class="st1" d="M49,134.1c-0.1,0-0.2,0-0.3-0.1c-0.1-0.1-0.1-0.2-0.1-0.3s0-0.2,0.1-0.3c0.1-0.1,0.2-0.1,0.3-0.1
			c0.1,0,0.2,0,0.3,0.1c0.1,0.1,0.1,0.2,0.1,0.3s0,0.2-0.1,0.3C49.3,134.1,49.2,134.1,49,134.1z M49.4,139.1h-0.7v-4.3h0.7V139.1z"
			/>
		<path class="st1" d="M52.1,139.2c-0.7,0-1.3-0.2-1.8-0.7l0.4-0.5c0.1,0.2,0.4,0.3,0.6,0.4c0.3,0.1,0.5,0.2,0.8,0.2
			c0.3,0,0.6-0.1,0.8-0.2c0.2-0.1,0.3-0.3,0.3-0.5c0-0.2-0.1-0.3-0.3-0.5c-0.2-0.1-0.4-0.2-0.7-0.3c-0.3-0.1-0.5-0.1-0.8-0.2
			c-0.3-0.1-0.5-0.2-0.7-0.4c-0.2-0.2-0.3-0.4-0.3-0.7c0-0.4,0.1-0.7,0.4-0.9s0.7-0.4,1.2-0.4c0.7,0,1.2,0.2,1.6,0.6l-0.3,0.5
			c-0.3-0.4-0.7-0.5-1.3-0.5c-0.3,0-0.5,0.1-0.7,0.2c-0.2,0.1-0.3,0.3-0.3,0.5c0,0.2,0.1,0.3,0.3,0.4c0.2,0.1,0.4,0.2,0.7,0.2
			c0.3,0.1,0.5,0.1,0.8,0.2c0.3,0.1,0.5,0.2,0.7,0.4c0.2,0.2,0.3,0.4,0.3,0.8c0,0.4-0.2,0.7-0.5,0.9S52.7,139.2,52.1,139.2z"/>
		<path class="st1" d="M56,139.2c-0.3,0-0.6-0.1-0.7-0.3c-0.2-0.2-0.2-0.4-0.2-0.8v-2.8h-0.7v-0.6h0.7v-1.2h0.7v1.2h0.9v0.6h-0.9
			v2.7c0,0.2,0,0.3,0.1,0.4c0.1,0.1,0.2,0.2,0.3,0.2c0.2,0,0.4-0.1,0.5-0.2l0.2,0.5C56.6,139.1,56.4,139.2,56,139.2z"/>
		<path class="st1" d="M61,139.1h-0.7v-0.5c-0.4,0.4-0.8,0.6-1.4,0.6c-0.4,0-0.8-0.1-1.1-0.4c-0.3-0.3-0.5-0.6-0.5-1.1
			c0-0.5,0.2-0.8,0.5-1.1c0.3-0.2,0.7-0.4,1.1-0.4c0.6,0,1.1,0.2,1.4,0.6v-0.8c0-0.3-0.1-0.5-0.3-0.7c-0.2-0.2-0.5-0.2-0.8-0.2
			c-0.5,0-1,0.2-1.3,0.6l-0.3-0.5c0.5-0.5,1-0.7,1.7-0.7c0.5,0,0.9,0.1,1.2,0.4s0.5,0.6,0.5,1.1V139.1z M59.1,138.7
			c0.5,0,0.9-0.2,1.2-0.5v-0.8c-0.3-0.4-0.7-0.5-1.2-0.5c-0.3,0-0.6,0.1-0.8,0.3c-0.2,0.2-0.3,0.4-0.3,0.7c0,0.3,0.1,0.5,0.3,0.7
			C58.5,138.6,58.8,138.7,59.1,138.7z"/>
		<path class="st1" d="M65.9,139.1h-0.7v-2.8c0-0.4-0.1-0.6-0.3-0.8c-0.2-0.2-0.4-0.2-0.7-0.2c-0.3,0-0.5,0.1-0.7,0.2
			c-0.2,0.1-0.4,0.3-0.6,0.5v3.2h-0.7v-4.3H63v0.6c0.2-0.2,0.4-0.4,0.7-0.5c0.3-0.1,0.6-0.2,0.9-0.2c0.9,0,1.4,0.5,1.4,1.4V139.1z"
			/>
	</g>
	<g>
		<path class="st0" d="M209,38.9c-0.6,0.4-1.4,0.6-2.3,0.6s-1.7-0.2-2.3-0.6s-0.9-1-0.9-1.7c0-0.5,0.2-1,0.5-1.3s0.8-0.7,1.3-0.8
			c-0.5-0.2-0.9-0.4-1.3-0.7c-0.3-0.3-0.5-0.7-0.5-1.2c0-0.4,0.1-0.7,0.3-1c0.2-0.3,0.4-0.5,0.7-0.7c0.3-0.2,0.6-0.3,1-0.4
			c0.4-0.1,0.7-0.1,1.1-0.1s0.8,0,1.1,0.1c0.3,0.1,0.7,0.2,1,0.4c0.3,0.2,0.5,0.4,0.7,0.7c0.2,0.3,0.3,0.6,0.3,1
			c0,0.9-0.6,1.6-1.8,2c0.5,0.2,1,0.5,1.3,0.8c0.4,0.4,0.5,0.8,0.5,1.3C209.9,37.9,209.6,38.5,209,38.9z M206.7,38.2
			c0.5,0,0.9-0.1,1.2-0.3c0.3-0.2,0.5-0.5,0.5-0.8c0-0.4-0.2-0.7-0.6-0.9c-0.4-0.2-0.8-0.4-1.1-0.4c-0.2,0-0.4,0.1-0.7,0.2
			c-0.2,0.1-0.5,0.2-0.7,0.4c-0.2,0.2-0.3,0.4-0.3,0.7c0,0.3,0.2,0.6,0.5,0.8S206.2,38.2,206.7,38.2z M206.7,34.4
			c0.2,0,0.4-0.1,0.7-0.2c0.2-0.1,0.4-0.2,0.6-0.4s0.3-0.4,0.3-0.6c0-0.3-0.1-0.6-0.4-0.8c-0.3-0.2-0.7-0.3-1.1-0.3
			c-0.5,0-0.8,0.1-1.1,0.3c-0.3,0.2-0.4,0.5-0.4,0.8c0,0.2,0.1,0.5,0.3,0.6c0.2,0.2,0.4,0.3,0.6,0.4
			C206.3,34.3,206.5,34.4,206.7,34.4z"/>
		<path class="st0" d="M213.6,39.3H212l3.2-7h-4.3V31h6v1L213.6,39.3z"/>
		<path class="st0" d="M220.9,39.5c-1.3,0-2.4-0.4-3.1-1.3l0.8-1c0.6,0.7,1.3,1,2.2,1c0.5,0,0.9-0.1,1.2-0.4s0.5-0.6,0.5-1
			c0-0.5-0.2-0.8-0.5-1.1c-0.3-0.3-0.7-0.4-1.2-0.4c-0.7,0-1.3,0.2-1.8,0.7l-1-0.3V31h5.5v1.3h-4v2.4c0.5-0.5,1.1-0.7,1.9-0.7
			c0.7,0,1.4,0.2,1.9,0.7c0.5,0.5,0.8,1.1,0.8,2c0,0.9-0.3,1.5-0.9,2.1S221.8,39.5,220.9,39.5z"/>
	</g>
	<g>
		<path class="st0" d="M207,84.2c-0.6,0-1.1-0.1-1.6-0.3c-0.4-0.2-0.8-0.5-1.1-0.9c-0.3-0.4-0.5-0.9-0.6-1.4s-0.2-1.1-0.2-1.7
			c0-1.3,0.3-2.3,1-3.1c0.6-0.8,1.5-1.2,2.7-1.2c1,0,1.8,0.3,2.4,0.9l-0.7,1.1c-0.5-0.5-1-0.7-1.7-0.7c-0.7,0-1.2,0.3-1.6,0.8
			s-0.6,1.2-0.6,2c0,0.1,0,0.2,0,0.2c0.2-0.3,0.5-0.6,0.9-0.8c0.4-0.2,0.8-0.3,1.3-0.3c0.8,0,1.5,0.2,2,0.7c0.5,0.5,0.8,1.1,0.8,2
			c0,0.8-0.3,1.5-0.9,2C208.6,84,207.9,84.2,207,84.2z M206.9,82.9c0.5,0,0.9-0.1,1.2-0.4c0.3-0.3,0.4-0.6,0.4-1
			c0-0.5-0.2-0.9-0.5-1.1c-0.3-0.3-0.7-0.4-1.2-0.4c-0.4,0-0.7,0.1-1,0.3c-0.3,0.2-0.6,0.4-0.8,0.7c0.1,0.5,0.2,1,0.5,1.4
			C205.8,82.7,206.3,82.9,206.9,82.9z"/>
		<path class="st0" d="M213,83.6c0,0.4-0.1,0.8-0.3,1.2c-0.2,0.4-0.5,0.7-0.9,0.9l-0.6-0.5c0.2-0.1,0.4-0.3,0.6-0.5s0.3-0.4,0.3-0.6
			c-0.1,0-0.1,0-0.2,0c-0.2,0-0.4-0.1-0.5-0.2c-0.1-0.1-0.2-0.3-0.2-0.6c0-0.2,0.1-0.4,0.2-0.6c0.2-0.2,0.4-0.3,0.6-0.3
			c0.3,0,0.5,0.1,0.7,0.3S213,83.3,213,83.6z"/>
		<path class="st0" d="M217.2,84.2c-0.6,0-1.1-0.1-1.6-0.3c-0.5-0.2-0.8-0.5-1.1-0.9c-0.3-0.4-0.5-0.9-0.6-1.4s-0.2-1.1-0.2-1.7
			c0-1.3,0.3-2.3,1-3.1s1.5-1.2,2.7-1.2c1,0,1.8,0.3,2.4,0.9l-0.7,1.1c-0.5-0.5-1-0.7-1.7-0.7c-0.7,0-1.2,0.3-1.6,0.8
			s-0.6,1.2-0.6,2c0,0.1,0,0.2,0,0.2c0.2-0.3,0.5-0.6,0.9-0.8c0.4-0.2,0.8-0.3,1.3-0.3c0.8,0,1.5,0.2,2,0.7c0.5,0.5,0.8,1.1,0.8,2
			c0,0.8-0.3,1.5-0.8,2C218.9,84,218.1,84.2,217.2,84.2z M217.1,82.9c0.5,0,0.9-0.1,1.2-0.4c0.3-0.3,0.5-0.6,0.5-1
			c0-0.5-0.2-0.9-0.5-1.1c-0.3-0.3-0.7-0.4-1.2-0.4c-0.3,0-0.7,0.1-1,0.3c-0.3,0.2-0.6,0.4-0.8,0.7c0,0.5,0.2,1,0.5,1.4
			S216.6,82.9,217.1,82.9z"/>
		<path class="st0" d="M227.4,84.1h-6v-1.2c1.7-1.3,2.9-2.3,3.6-2.9c0.6-0.6,0.9-1.2,0.9-1.8c0-0.4-0.1-0.7-0.4-0.9
			s-0.7-0.3-1.1-0.3c-0.9,0-1.7,0.3-2.2,1l-0.8-1c0.4-0.4,0.8-0.8,1.4-1s1.1-0.3,1.7-0.3c0.9,0,1.6,0.2,2.1,0.7
			c0.6,0.5,0.9,1.1,0.9,1.9c0,0.7-0.3,1.4-0.9,2.1c-0.6,0.7-1.5,1.5-2.8,2.5h3.7V84.1z"/>
		<path class="st0" d="M232,84.2c-1.3,0-2.4-0.4-3.1-1.3l0.8-1c0.6,0.7,1.3,1,2.2,1c0.5,0,0.9-0.1,1.2-0.4c0.3-0.3,0.5-0.6,0.5-1
			c0-0.4-0.2-0.8-0.5-1.1S232.6,80,232,80c-0.7,0-1.3,0.2-1.8,0.7l-1-0.3v-4.7h5.5V77h-4v2.4c0.5-0.5,1.1-0.7,1.9-0.7
			c0.7,0,1.4,0.2,1.9,0.7c0.5,0.5,0.8,1.1,0.8,2c0,0.9-0.3,1.5-0.9,2.1C233.7,84,233,84.2,232,84.2z"/>
	</g>
	<g>
		<path class="st0" d="M206.9,120.5h-1.5V114l-1.4,1.4l-0.8-0.9l2.4-2.4h1.3V120.5z"/>
		<path class="st0" d="M210.2,120c0,0.4-0.1,0.8-0.3,1.2c-0.2,0.4-0.5,0.7-0.9,0.9l-0.6-0.5c0.2-0.1,0.4-0.3,0.6-0.5
			c0.2-0.2,0.3-0.4,0.3-0.7c-0.1,0-0.1,0-0.2,0c-0.2,0-0.4-0.1-0.5-0.2c-0.1-0.1-0.2-0.3-0.2-0.6c0-0.2,0.1-0.4,0.2-0.6
			c0.2-0.2,0.4-0.3,0.6-0.3c0.3,0,0.5,0.1,0.7,0.3C210.1,119.4,210.2,119.6,210.2,120z"/>
		<path class="st0" d="M214.3,120.6c-0.7,0-1.3-0.1-1.9-0.4c-0.5-0.2-1-0.6-1.3-1l0.8-1c0.3,0.3,0.6,0.6,1,0.7
			c0.4,0.2,0.8,0.3,1.3,0.3c0.5,0,1-0.1,1.3-0.3c0.3-0.2,0.5-0.5,0.5-0.9c0-0.8-0.6-1.2-1.8-1.2c-0.6,0-0.9,0-1,0v-1.3
			c0.1,0,0.4,0,1,0c0.5,0,0.9-0.1,1.2-0.3s0.5-0.5,0.5-0.8c0-0.4-0.2-0.7-0.5-0.9c-0.3-0.2-0.7-0.3-1.2-0.3c-0.8,0-1.5,0.3-2.2,0.9
			l-0.8-0.9c0.7-0.9,1.8-1.3,3-1.3c0.9,0,1.6,0.2,2.2,0.6c0.6,0.4,0.8,1,0.8,1.6c0,0.5-0.2,0.9-0.5,1.3c-0.4,0.3-0.8,0.5-1.3,0.6
			c0.5,0,0.9,0.2,1.3,0.6c0.4,0.4,0.6,0.8,0.6,1.4c0,0.7-0.3,1.3-0.9,1.8S215.2,120.6,214.3,120.6z"/>
		<path class="st0" d="M221.9,120.5h-1.5V114l-1.4,1.4l-0.9-0.9l2.4-2.4h1.3V120.5z"/>
		<path class="st0" d="M226.5,120.6c-1.3,0-2.4-0.4-3.1-1.3l0.8-1c0.6,0.7,1.3,1,2.2,1c0.5,0,0.9-0.1,1.2-0.4s0.5-0.6,0.5-1
			c0-0.5-0.2-0.8-0.5-1.1c-0.3-0.3-0.7-0.4-1.2-0.4c-0.7,0-1.3,0.2-1.8,0.7l-1-0.3v-4.7h5.5v1.3h-4v2.4c0.5-0.5,1.1-0.7,1.9-0.7
			c0.7,0,1.4,0.2,1.9,0.7c0.5,0.5,0.8,1.1,0.8,2c0,0.9-0.3,1.5-0.9,2.1C228.2,120.4,227.5,120.6,226.5,120.6z"/>
	</g>
	<g>
		<path class="st0" d="M33.1,184.5h-1.5v-6.4l-1.4,1.4l-0.9-0.9l2.4-2.4h1.3V184.5z"/>
		<path class="st0" d="M40,184.1c-0.6,0.4-1.4,0.6-2.3,0.6s-1.7-0.2-2.3-0.6c-0.6-0.4-0.9-1-0.9-1.7c0-0.5,0.2-0.9,0.5-1.3
			s0.8-0.7,1.3-0.8c-0.5-0.2-0.9-0.4-1.3-0.7c-0.3-0.3-0.5-0.7-0.5-1.2c0-0.4,0.1-0.7,0.3-1c0.2-0.3,0.4-0.5,0.7-0.7
			c0.3-0.2,0.6-0.3,1-0.4s0.7-0.1,1.1-0.1s0.8,0,1.1,0.1c0.3,0.1,0.7,0.2,1,0.4c0.3,0.2,0.5,0.4,0.7,0.7c0.2,0.3,0.3,0.6,0.3,1
			c0,0.9-0.6,1.6-1.8,2c0.5,0.2,1,0.5,1.3,0.8s0.5,0.8,0.5,1.3C40.9,183.1,40.6,183.7,40,184.1z M37.7,183.4c0.5,0,0.9-0.1,1.2-0.3
			c0.3-0.2,0.5-0.5,0.5-0.9c0-0.4-0.2-0.7-0.6-0.9c-0.4-0.2-0.8-0.4-1.1-0.4c-0.2,0-0.4,0.1-0.7,0.2c-0.2,0.1-0.5,0.2-0.7,0.4
			c-0.2,0.2-0.3,0.4-0.3,0.7c0,0.4,0.2,0.6,0.5,0.9C36.8,183.3,37.3,183.4,37.7,183.4z M37.7,179.7c0.2,0,0.4-0.1,0.6-0.2
			c0.2-0.1,0.4-0.2,0.6-0.4c0.2-0.2,0.3-0.4,0.3-0.6c0-0.3-0.1-0.6-0.4-0.8c-0.3-0.2-0.7-0.3-1.1-0.3c-0.5,0-0.8,0.1-1.1,0.3
			c-0.3,0.2-0.4,0.5-0.4,0.8c0,0.2,0.1,0.5,0.3,0.6c0.2,0.2,0.4,0.3,0.6,0.4C37.3,179.6,37.5,179.6,37.7,179.7z"/>
		<path class="st0" d="M43.9,184.1c0,0.4-0.1,0.8-0.3,1.2c-0.2,0.4-0.5,0.7-0.9,0.9l-0.6-0.5c0.2-0.1,0.4-0.3,0.6-0.5
			s0.3-0.4,0.3-0.6c-0.1,0-0.1,0-0.2,0c-0.2,0-0.4-0.1-0.5-0.2c-0.1-0.1-0.2-0.3-0.2-0.6c0-0.2,0.1-0.4,0.2-0.6
			c0.2-0.2,0.4-0.3,0.6-0.3c0.3,0,0.5,0.1,0.7,0.3S43.9,183.7,43.9,184.1z"/>
		<path class="st0" d="M49.6,184.3c-0.4,0.2-0.9,0.4-1.5,0.4c-0.6,0-1.1-0.1-1.5-0.4c-0.4-0.2-0.8-0.6-1-1c-0.3-0.4-0.5-0.9-0.6-1.4
			s-0.2-1-0.2-1.6s0.1-1.1,0.2-1.6s0.3-1,0.6-1.4c0.3-0.4,0.6-0.7,1-1c0.4-0.2,0.9-0.4,1.5-0.4c0.6,0,1.1,0.1,1.5,0.4
			c0.4,0.2,0.8,0.6,1,1c0.3,0.4,0.5,0.9,0.6,1.4c0.1,0.5,0.2,1,0.2,1.6s-0.1,1.1-0.2,1.6c-0.1,0.5-0.3,1-0.6,1.4
			S50,184.1,49.6,184.3z M46.7,182.5c0.3,0.6,0.8,0.8,1.4,0.8s1.1-0.3,1.4-0.8c0.3-0.6,0.5-1.3,0.5-2.2c0-0.6-0.1-1.1-0.2-1.5
			c-0.1-0.4-0.3-0.8-0.6-1.1c-0.3-0.3-0.6-0.4-1.1-0.4c-0.4,0-0.8,0.1-1.1,0.4c-0.3,0.3-0.5,0.6-0.6,1.1c-0.1,0.4-0.2,0.9-0.2,1.5
			C46.2,181.3,46.4,182,46.7,182.5z"/>
		<path class="st0" d="M57.9,184.1c-0.6,0.4-1.4,0.6-2.3,0.6s-1.7-0.2-2.3-0.6s-0.9-1-0.9-1.7c0-0.5,0.2-0.9,0.5-1.3
			s0.8-0.7,1.3-0.8c-0.5-0.2-0.9-0.4-1.3-0.7c-0.3-0.3-0.5-0.7-0.5-1.2c0-0.4,0.1-0.7,0.3-1c0.2-0.3,0.4-0.5,0.7-0.7
			c0.3-0.2,0.6-0.3,1-0.4s0.7-0.1,1.1-0.1s0.8,0,1.1,0.1s0.7,0.2,1,0.4c0.3,0.2,0.5,0.4,0.7,0.7c0.2,0.3,0.3,0.6,0.3,1
			c0,0.9-0.6,1.6-1.8,2c0.5,0.2,1,0.5,1.3,0.8c0.4,0.4,0.5,0.8,0.5,1.3C58.8,183.1,58.5,183.7,57.9,184.1z M55.6,183.4
			c0.5,0,0.9-0.1,1.2-0.3c0.3-0.2,0.5-0.5,0.5-0.9c0-0.4-0.2-0.7-0.6-0.9c-0.4-0.2-0.8-0.4-1.1-0.4c-0.2,0-0.4,0.1-0.7,0.2
			c-0.2,0.1-0.5,0.2-0.7,0.4c-0.2,0.2-0.3,0.4-0.3,0.7c0,0.4,0.2,0.6,0.5,0.9C54.7,183.3,55.1,183.4,55.6,183.4z M55.6,179.7
			c0.2,0,0.4-0.1,0.7-0.2c0.2-0.1,0.4-0.2,0.6-0.4c0.2-0.2,0.3-0.4,0.3-0.6c0-0.3-0.1-0.6-0.4-0.8c-0.3-0.2-0.7-0.3-1.1-0.3
			c-0.5,0-0.8,0.1-1.1,0.3c-0.3,0.2-0.4,0.5-0.4,0.8c0,0.2,0.1,0.5,0.3,0.6c0.2,0.2,0.4,0.3,0.6,0.4
			C55.2,179.6,55.4,179.6,55.6,179.7z"/>
		<path class="st0" d="M63.1,184.7c-1.3,0-2.4-0.4-3.1-1.3l0.8-1c0.6,0.7,1.3,1,2.2,1c0.5,0,0.9-0.1,1.2-0.4c0.3-0.3,0.5-0.6,0.5-1
			c0-0.4-0.2-0.8-0.5-1.1s-0.7-0.4-1.2-0.4c-0.7,0-1.3,0.2-1.8,0.7l-1-0.3v-4.7h5.5v1.3h-4v2.4c0.5-0.5,1.1-0.7,1.9-0.7
			c0.7,0,1.4,0.2,1.9,0.7c0.5,0.5,0.8,1.1,0.8,2c0,0.9-0.3,1.5-0.9,2.1C64.9,184.4,64.1,184.7,63.1,184.7z"/>
	</g>
	<g>
		<path class="st0" d="M43.9,150.7h-1.5v-6.4l-1.4,1.4l-0.8-0.9l2.4-2.4h1.3V150.7z"/>
		<path class="st0" d="M47.2,150.3c0,0.4-0.1,0.8-0.3,1.2c-0.2,0.4-0.5,0.7-0.9,0.9l-0.6-0.5c0.2-0.1,0.4-0.3,0.6-0.5
			c0.2-0.2,0.3-0.4,0.3-0.7c-0.1,0-0.1,0-0.2,0c-0.2,0-0.4-0.1-0.5-0.2c-0.1-0.1-0.2-0.3-0.2-0.6s0.1-0.4,0.2-0.6
			c0.2-0.2,0.4-0.3,0.6-0.3c0.3,0,0.5,0.1,0.7,0.3C47.1,149.6,47.2,149.9,47.2,150.3z"/>
		<path class="st0" d="M50.6,150.7h-1.5v-6.4l-1.4,1.4l-0.8-0.9l2.4-2.4h1.3V150.7z"/>
		<path class="st0" d="M56.8,150.5c-0.4,0.2-0.9,0.4-1.5,0.4s-1.1-0.1-1.5-0.4s-0.8-0.6-1.1-1c-0.3-0.4-0.5-0.9-0.6-1.4
			s-0.2-1-0.2-1.6s0.1-1.1,0.2-1.6s0.3-1,0.6-1.4c0.3-0.4,0.6-0.7,1.1-1s0.9-0.4,1.5-0.4s1.1,0.1,1.5,0.4s0.8,0.6,1,1
			c0.3,0.4,0.5,0.9,0.6,1.4c0.1,0.5,0.2,1,0.2,1.6s-0.1,1.1-0.2,1.6c-0.1,0.5-0.3,1-0.6,1.4S57.2,150.3,56.8,150.5z M53.9,148.7
			c0.3,0.6,0.8,0.9,1.4,0.9s1.1-0.3,1.4-0.9c0.3-0.6,0.4-1.3,0.4-2.2c0-0.6-0.1-1.1-0.2-1.5c-0.1-0.4-0.3-0.8-0.6-1.1
			c-0.3-0.3-0.6-0.4-1.1-0.4s-0.8,0.1-1.1,0.4c-0.3,0.3-0.5,0.6-0.6,1.1c-0.1,0.4-0.2,0.9-0.2,1.5C53.4,147.4,53.6,148.2,53.9,148.7
			z"/>
		<path class="st0" d="M64.5,150.5c-0.4,0.2-0.9,0.4-1.5,0.4c-0.6,0-1.1-0.1-1.5-0.4c-0.4-0.2-0.8-0.6-1-1c-0.3-0.4-0.5-0.9-0.6-1.4
			s-0.2-1-0.2-1.6s0.1-1.1,0.2-1.6s0.3-1,0.6-1.4c0.3-0.4,0.6-0.7,1-1c0.4-0.2,0.9-0.4,1.5-0.4c0.6,0,1.1,0.1,1.5,0.4
			c0.4,0.2,0.8,0.6,1,1c0.3,0.4,0.5,0.9,0.6,1.4c0.1,0.5,0.2,1,0.2,1.6s-0.1,1.1-0.2,1.6c-0.1,0.5-0.3,1-0.6,1.4
			S64.9,150.3,64.5,150.5z M61.6,148.7c0.3,0.6,0.8,0.9,1.4,0.9s1.1-0.3,1.4-0.9c0.3-0.6,0.5-1.3,0.5-2.2c0-0.6-0.1-1.1-0.2-1.5
			c-0.1-0.4-0.3-0.8-0.6-1.1c-0.3-0.3-0.6-0.4-1.1-0.4c-0.4,0-0.8,0.1-1.1,0.4c-0.3,0.3-0.5,0.6-0.6,1.1c-0.1,0.4-0.2,0.9-0.2,1.5
			C61.1,147.4,61.3,148.2,61.6,148.7z"/>
	</g>
	<g>
		<path class="st0" d="M50.4,117.6h-1.5v-1.9h-4v-1.2l3.4-5.3h2v5.2h1.1v1.3h-1.1V117.6z M48.9,114.4v-3.8l-2.5,3.8H48.9z"/>
		<path class="st0" d="M55.6,117.8c-1.3,0-2.4-0.4-3.1-1.3l0.8-1c0.6,0.7,1.3,1,2.2,1c0.5,0,0.9-0.1,1.2-0.4c0.3-0.3,0.5-0.6,0.5-1
			c0-0.4-0.2-0.8-0.5-1.1c-0.3-0.3-0.7-0.4-1.2-0.4c-0.7,0-1.3,0.2-1.8,0.7l-1-0.3v-4.7h5.5v1.3h-4v2.4c0.5-0.5,1.1-0.7,1.9-0.7
			c0.7,0,1.4,0.2,1.9,0.7c0.5,0.5,0.8,1.1,0.8,2c0,0.9-0.3,1.5-0.9,2.1C57.4,117.5,56.6,117.8,55.6,117.8z"/>
		<path class="st0" d="M63.1,117.8c-1.3,0-2.4-0.4-3.1-1.3l0.8-1c0.6,0.7,1.3,1,2.2,1c0.5,0,0.9-0.1,1.2-0.4c0.3-0.3,0.5-0.6,0.5-1
			c0-0.4-0.2-0.8-0.5-1.1c-0.3-0.3-0.7-0.4-1.2-0.4c-0.7,0-1.3,0.2-1.8,0.7l-1-0.3v-4.7h5.5v1.3h-4v2.4c0.5-0.5,1.1-0.7,1.9-0.7
			c0.7,0,1.4,0.2,1.9,0.7c0.5,0.5,0.8,1.1,0.8,2c0,0.9-0.3,1.5-0.9,2.1C64.9,117.5,64.1,117.8,63.1,117.8z"/>
	</g>
	<g>
		<path class="st0" d="M37.9,84.2c-0.7,0-1.3-0.1-1.9-0.4c-0.5-0.2-1-0.6-1.3-1l0.8-1c0.3,0.3,0.6,0.6,1,0.7s0.8,0.3,1.3,0.3
			c0.5,0,1-0.1,1.3-0.3c0.3-0.2,0.5-0.5,0.5-0.9c0-0.8-0.6-1.2-1.9-1.2c-0.6,0-0.9,0-1,0v-1.3c0.1,0,0.4,0,1,0
			c0.5,0,0.9-0.1,1.2-0.3c0.3-0.2,0.5-0.5,0.5-0.8c0-0.4-0.2-0.7-0.5-0.9c-0.3-0.2-0.7-0.3-1.2-0.3c-0.8,0-1.5,0.3-2.2,0.9l-0.8-0.9
			c0.7-0.9,1.8-1.3,3-1.3c0.9,0,1.6,0.2,2.2,0.6c0.5,0.4,0.8,1,0.8,1.6c0,0.5-0.2,0.9-0.5,1.3s-0.8,0.5-1.3,0.6
			c0.5,0,0.9,0.2,1.3,0.6c0.4,0.4,0.6,0.8,0.6,1.4c0,0.7-0.3,1.3-0.9,1.8C39.6,84,38.9,84.2,37.9,84.2z"/>
		<path class="st0" d="M44.1,83.6c0,0.4-0.1,0.8-0.3,1.2c-0.2,0.4-0.5,0.7-0.9,0.9l-0.6-0.5c0.2-0.1,0.4-0.3,0.6-0.5
			c0.2-0.2,0.3-0.4,0.3-0.6c-0.1,0-0.1,0-0.2,0c-0.2,0-0.4-0.1-0.5-0.2s-0.2-0.3-0.2-0.6c0-0.2,0.1-0.4,0.2-0.6
			c0.2-0.2,0.4-0.3,0.6-0.3c0.3,0,0.5,0.1,0.7,0.3C44,83,44.1,83.3,44.1,83.6z"/>
		<path class="st0" d="M50.5,84.1H49v-1.9h-4V81l3.4-5.3h2v5.2h1.1v1.3h-1.1V84.1z M49,80.9v-3.8l-2.5,3.8H49z"/>
		<path class="st0" d="M55.4,84.2c-0.7,0-1.3-0.1-1.9-0.4c-0.5-0.2-1-0.6-1.3-1l0.8-1c0.3,0.3,0.6,0.6,1,0.7
			c0.4,0.2,0.8,0.3,1.3,0.3c0.5,0,1-0.1,1.3-0.3s0.5-0.5,0.5-0.9c0-0.8-0.6-1.2-1.8-1.2c-0.6,0-0.9,0-1,0v-1.3c0.1,0,0.4,0,1,0
			c0.5,0,0.9-0.1,1.2-0.3c0.3-0.2,0.5-0.5,0.5-0.8c0-0.4-0.2-0.7-0.5-0.9c-0.3-0.2-0.7-0.3-1.2-0.3c-0.8,0-1.5,0.3-2.1,0.9l-0.8-0.9
			c0.7-0.9,1.8-1.3,3-1.3c0.9,0,1.6,0.2,2.2,0.6c0.5,0.4,0.8,1,0.8,1.6c0,0.5-0.2,0.9-0.5,1.3c-0.4,0.3-0.8,0.5-1.3,0.6
			c0.5,0,0.9,0.2,1.3,0.6c0.4,0.4,0.6,0.8,0.6,1.4c0,0.7-0.3,1.3-0.9,1.8C57.1,84,56.4,84.2,55.4,84.2z"/>
		<path class="st0" d="M64.5,83.9c-0.4,0.2-0.9,0.4-1.5,0.4s-1.1-0.1-1.5-0.4s-0.8-0.6-1-1S60,82,59.9,81.5c-0.1-0.5-0.2-1-0.2-1.6
			s0.1-1.1,0.2-1.6c0.1-0.5,0.3-1,0.6-1.4c0.3-0.4,0.6-0.7,1-1s0.9-0.4,1.5-0.4s1.1,0.1,1.5,0.4s0.8,0.6,1.1,1
			c0.3,0.4,0.5,0.9,0.6,1.4s0.2,1,0.2,1.6s-0.1,1.1-0.2,1.6s-0.3,1-0.6,1.4C65.3,83.3,64.9,83.6,64.5,83.9z M61.6,82.1
			c0.3,0.6,0.8,0.8,1.4,0.8c0.6,0,1.1-0.3,1.4-0.8s0.5-1.3,0.5-2.2c0-0.6-0.1-1.1-0.2-1.5s-0.3-0.8-0.6-1.1
			c-0.3-0.3-0.6-0.4-1.1-0.4s-0.8,0.1-1.1,0.4c-0.3,0.3-0.5,0.6-0.6,1.1s-0.2,0.9-0.2,1.5C61.1,80.8,61.3,81.5,61.6,82.1z"/>
	</g>
	<g>
		<path class="st0" d="M40.5,49.8h-1.5v-6.4l-1.4,1.4l-0.9-0.9l2.4-2.4h1.3V49.8z"/>
		<path class="st0" d="M43.9,49.4c0,0.4-0.1,0.8-0.3,1.2c-0.2,0.4-0.5,0.7-0.9,0.9L42.1,51c0.2-0.1,0.4-0.3,0.6-0.5
			c0.2-0.2,0.3-0.4,0.3-0.6c-0.1,0-0.1,0-0.2,0c-0.2,0-0.4-0.1-0.5-0.2s-0.2-0.3-0.2-0.6c0-0.2,0.1-0.4,0.2-0.6
			c0.2-0.2,0.4-0.3,0.6-0.3c0.3,0,0.5,0.1,0.7,0.3C43.8,48.7,43.9,49,43.9,49.4z"/>
		<path class="st0" d="M47.9,50c-0.7,0-1.3-0.1-1.9-0.4c-0.5-0.2-1-0.6-1.3-1l0.8-1c0.3,0.3,0.6,0.6,1,0.7c0.4,0.2,0.8,0.3,1.3,0.3
			c0.5,0,1-0.1,1.3-0.3s0.5-0.5,0.5-0.9c0-0.8-0.6-1.2-1.8-1.2c-0.6,0-0.9,0-1,0v-1.3c0.1,0,0.4,0,1,0c0.5,0,0.9-0.1,1.2-0.3
			c0.3-0.2,0.5-0.5,0.5-0.8c0-0.4-0.2-0.7-0.5-0.9c-0.3-0.2-0.7-0.3-1.2-0.3c-0.8,0-1.5,0.3-2.1,0.9l-0.8-0.9c0.7-0.9,1.8-1.3,3-1.3
			c0.9,0,1.6,0.2,2.2,0.6c0.5,0.4,0.8,1,0.8,1.6c0,0.5-0.2,0.9-0.5,1.3c-0.4,0.3-0.8,0.5-1.3,0.6c0.5,0,0.9,0.2,1.3,0.6
			c0.4,0.4,0.6,0.8,0.6,1.4c0,0.7-0.3,1.3-0.9,1.8C49.6,49.8,48.9,50,47.9,50z"/>
		<path class="st0" d="M57,49.6c-0.4,0.2-0.9,0.4-1.5,0.4s-1.1-0.1-1.5-0.4s-0.8-0.6-1-1s-0.5-0.9-0.6-1.4c-0.1-0.5-0.2-1-0.2-1.6
			s0.1-1.1,0.2-1.6c0.1-0.5,0.3-1,0.6-1.4c0.3-0.4,0.6-0.7,1-1s0.9-0.4,1.5-0.4s1.1,0.1,1.5,0.4s0.8,0.6,1.1,1
			c0.3,0.4,0.5,0.9,0.6,1.4s0.2,1,0.2,1.6s-0.1,1.1-0.2,1.6s-0.3,1-0.6,1.4C57.8,49,57.4,49.4,57,49.6z M54.1,47.8
			c0.3,0.6,0.8,0.8,1.4,0.8c0.6,0,1.1-0.3,1.4-0.8s0.5-1.3,0.5-2.2c0-0.6-0.1-1.1-0.2-1.5s-0.3-0.8-0.6-1.1
			c-0.3-0.3-0.6-0.4-1.1-0.4s-0.8,0.1-1.1,0.4c-0.3,0.3-0.5,0.6-0.6,1.1s-0.2,0.9-0.2,1.5C53.6,46.5,53.8,47.3,54.1,47.8z"/>
		<path class="st0" d="M63.1,50c-1.3,0-2.4-0.4-3.1-1.3l0.8-1c0.6,0.7,1.3,1,2.2,1c0.5,0,0.9-0.1,1.2-0.4c0.3-0.3,0.5-0.6,0.5-1
			c0-0.4-0.2-0.8-0.5-1.1c-0.3-0.3-0.7-0.4-1.2-0.4c-0.7,0-1.3,0.2-1.8,0.7l-1-0.3v-4.7h5.5v1.3h-4v2.4c0.5-0.5,1.1-0.7,1.9-0.7
			c0.7,0,1.4,0.2,1.9,0.7c0.5,0.5,0.8,1.1,0.8,2c0,0.9-0.3,1.5-0.9,2.1C64.9,49.7,64.1,50,63.1,50z"/>
	</g>
	<g>
		<path class="st0" d="M125.6,20.5h-6v-1.1c1.7-1.3,2.9-2.3,3.6-2.9s0.9-1.2,0.9-1.8c0-0.4-0.1-0.7-0.4-0.9s-0.7-0.3-1.1-0.3
			c-0.9,0-1.7,0.3-2.2,1l-0.8-1c0.4-0.4,0.8-0.8,1.4-1c0.5-0.2,1.1-0.3,1.7-0.3c0.8,0,1.6,0.2,2.2,0.7c0.6,0.5,0.9,1.1,0.9,1.9
			c0,0.7-0.3,1.4-0.9,2.1c-0.6,0.7-1.5,1.5-2.8,2.5h3.7V20.5z"/>
		<path class="st0" d="M128.9,20.1c0,0.4-0.1,0.8-0.3,1.2c-0.2,0.4-0.5,0.7-0.9,0.9l-0.6-0.5c0.2-0.1,0.4-0.3,0.6-0.5
			c0.2-0.2,0.3-0.4,0.3-0.7c-0.1,0-0.1,0-0.2,0c-0.2,0-0.4-0.1-0.5-0.2c-0.1-0.1-0.2-0.3-0.2-0.6s0.1-0.4,0.2-0.6
			c0.2-0.2,0.4-0.3,0.6-0.3c0.3,0,0.5,0.1,0.7,0.3S128.9,19.7,128.9,20.1z"/>
		<path class="st0" d="M132.8,20.7c-1,0-1.8-0.3-2.4-0.9l0.7-1.1c0.5,0.5,1,0.7,1.7,0.7c0.7,0,1.3-0.3,1.6-0.8
			c0.4-0.5,0.6-1.2,0.6-1.9v-0.2c-0.2,0.3-0.5,0.6-0.9,0.8c-0.4,0.2-0.8,0.4-1.3,0.4c-0.8,0-1.5-0.2-2-0.7c-0.5-0.5-0.8-1.1-0.8-2
			c0-0.8,0.3-1.5,0.9-2c0.6-0.5,1.3-0.8,2.2-0.8c0.8,0,1.4,0.2,2,0.6s0.9,0.9,1.1,1.5s0.3,1.3,0.3,2.2c0,1.2-0.3,2.3-1,3.1
			C134.9,20.3,134,20.7,132.8,20.7z M133.1,16.3c0.4,0,0.7-0.1,1-0.3c0.3-0.2,0.6-0.4,0.8-0.7c0-0.5-0.2-1-0.5-1.4
			c-0.3-0.4-0.8-0.6-1.3-0.6c-0.5,0-0.9,0.2-1.2,0.5s-0.5,0.6-0.5,1c0,0.5,0.2,0.9,0.5,1.1C132.3,16.2,132.7,16.3,133.1,16.3z"/>
		<path class="st0" d="M143.7,20.5h-6v-1.1c1.7-1.3,2.9-2.3,3.6-2.9s0.9-1.2,0.9-1.8c0-0.4-0.1-0.7-0.4-0.9s-0.7-0.3-1.1-0.3
			c-0.9,0-1.7,0.3-2.2,1l-0.8-1c0.4-0.4,0.8-0.8,1.4-1c0.5-0.2,1.1-0.3,1.7-0.3c0.9,0,1.6,0.2,2.1,0.7c0.6,0.5,0.9,1.1,0.9,1.9
			c0,0.7-0.3,1.4-0.9,2.1c-0.6,0.7-1.5,1.5-2.8,2.5h3.7V20.5z"/>
		<path class="st0" d="M149.8,20.3c-0.4,0.2-0.9,0.4-1.5,0.4s-1.1-0.1-1.5-0.4s-0.8-0.6-1.1-1c-0.3-0.4-0.5-0.9-0.6-1.4
			s-0.2-1-0.2-1.6s0.1-1.1,0.2-1.6s0.3-1,0.6-1.4c0.3-0.4,0.6-0.7,1.1-1s0.9-0.4,1.5-0.4s1.1,0.1,1.5,0.4s0.8,0.6,1,1
			c0.3,0.4,0.5,0.9,0.6,1.4c0.1,0.5,0.2,1,0.2,1.6s-0.1,1.1-0.2,1.6c-0.1,0.5-0.3,1-0.6,1.4S150.2,20.1,149.8,20.3z M146.9,18.5
			c0.3,0.6,0.8,0.9,1.4,0.9s1.1-0.3,1.4-0.9c0.3-0.6,0.4-1.3,0.4-2.2c0-0.6-0.1-1.1-0.2-1.5c-0.1-0.4-0.3-0.8-0.6-1.1
			c-0.3-0.3-0.6-0.4-1.1-0.4s-0.8,0.1-1.1,0.4c-0.3,0.3-0.5,0.6-0.6,1.1c-0.1,0.4-0.2,0.9-0.2,1.5C146.4,17.3,146.6,18,146.9,18.5z"
			/>
	</g>
	<g>
		<g>
			<path class="st2" d="M196.5,33.5c-18.3,0-30.5,11.2-38,26.3"/>
			<g>
				<path class="st3" d="M158.6,59.6c0.9-0.3,2.1,0,2.9,0.4c-1.4,0.3-2.9,0.8-4,1.8c0.1-1.5-0.4-2.9-1-4.3
					C157.4,58,158.3,58.7,158.6,59.6z"/>
			</g>
		</g>
	</g>
	<g>
		<g>
			<path class="st4" d="M196.5,70.6c-18.3,0-30.5,11.2-38,26.3"/>
			<g>
				<path class="st3" d="M159,96c3.7-1.3,9.2,0,12.7,1.6c-6.3,1.1-12.4,3.6-17.3,7.8c0.5-6.4-1.6-12.7-4.3-18.5
					C153.5,89,157.5,92.1,159,96z"/>
			</g>
		</g>
	</g>
	<g>
		<g>
			<path class="st5" d="M197.6,110c-14.7,10.9-41.1,12-53.9,3.9"/>
			<g>
				<path class="st3" d="M143.9,114c0.2,0.9-0.2,2-0.6,2.8c-0.1-1.4-0.5-2.8-1.4-4c1.4,0.3,2.9-0.1,4.2-0.5
					C145.5,113,144.8,113.8,143.9,114z"/>
			</g>
		</g>
	</g>
	<g>
		<g>
			<path class="st6" d="M77.4,174.6c18.3-0.3,39.9-8.6,47.4-27.9"/>
			<g>
				<path class="st3" d="M123.9,148.9c-8.1,3.5-20.6,1.8-28.7-1c13.8-3.8,27.2-10.5,37.3-21c0.1,14.5,6.2,28.2,13.3,40.7
					C137.5,163.6,128,157.4,123.9,148.9z"/>
			</g>
		</g>
	</g>
	<g>
		<g>
			<path class="st7" d="M196.6,151.5c-18.1,2.4-31.7,2-41.1-12.1"/>
			<g>
				<path class="st3" d="M155.7,139.7c-0.3,1.3-1.5,2.7-2.5,3.4c0.7-2,1-4.2,0.6-6.3c1.8,1.2,3.9,1.6,6,1.8
					C158.6,139.3,157.1,139.9,155.7,139.7z"/>
			</g>
		</g>
	</g>
	<g>
		<g>
			<path class="st8" d="M74.1,37.1c18.3,0,35.1,10.1,43.3,33.5"/>
			<g>
				<path class="st3" d="M117.3,70.4c0.3-0.7,1.3-1.3,2-1.6c-0.7,1-1.2,2.2-1.3,3.5c-0.8-1-2-1.5-3.2-1.9
					C115.6,70.2,116.6,70.1,117.3,70.4z"/>
			</g>
		</g>
	</g>
	<g>
		<g>
			<path class="st9" d="M74.1,140.9c10.5-7.5,21.1-12.7,41-10"/>
			<g>
				<path class="st3" d="M114.7,130.9c-0.7-0.9-0.9-2.5-0.7-3.6c0.9,1.6,2.1,3.1,3.8,4c-1.8,0.5-3.4,1.6-4.7,2.9
					C113.3,133,113.8,131.6,114.7,130.9z"/>
			</g>
		</g>
	</g>
	<g>
		<g>
			<path class="st10" d="M72.3,73.8C87,70.2,99.4,75,109.4,84.1"/>
			<g>
				<path class="st3" d="M109,83.7c-0.1-2,1.3-4.6,2.6-6.1c-0.3,3.3,0,6.7,1.5,9.7c-3.1-1.2-6.6-1-9.8-0.5
					C104.8,85.4,106.9,83.9,109,83.7z"/>
			</g>
		</g>
	</g>
	<g>
		<g>
			<path class="st11" d="M75,109.4c11-8.1,23-9.2,34.7-6"/>
			<g>
				<path class="st3" d="M109.5,103.4c-0.3-0.6-0.3-1.6-0.1-2.2c0.4,1,1,2,1.9,2.7c-1.1,0.1-2.1,0.7-3,1.3
					C108.5,104.5,108.9,103.8,109.5,103.4z"/>
			</g>
		</g>
	</g>
	<g>
		<g>
			<line class="st12" x1="135.6" y1="25.2" x2="135.6" y2="57"/>
			<g>
				<path class="st3" d="M135.6,56.5c1.4-1.4,4.1-2,6-2.1c-2.5,1.9-4.7,4.3-6,7.3c-1.2-3-3.5-5.3-6-7.3
					C131.6,54.6,134.1,55,135.6,56.5z"/>
			</g>
		</g>
	</g>
	<g>
		<path class="st0" d="M209,158.4c-0.6,0.4-1.4,0.6-2.3,0.6s-1.7-0.2-2.3-0.6s-0.9-1-0.9-1.7c0-0.5,0.2-1,0.5-1.3s0.8-0.7,1.3-0.8
			c-0.5-0.2-0.9-0.4-1.3-0.7c-0.3-0.3-0.5-0.7-0.5-1.2c0-0.4,0.1-0.7,0.3-1s0.4-0.5,0.7-0.7c0.3-0.2,0.6-0.3,1-0.4
			c0.4-0.1,0.7-0.1,1.1-0.1s0.8,0,1.1,0.1c0.3,0.1,0.7,0.2,1,0.4c0.3,0.2,0.5,0.4,0.7,0.7c0.2,0.3,0.3,0.6,0.3,1
			c0,0.9-0.6,1.6-1.8,2c0.5,0.2,1,0.5,1.3,0.8c0.4,0.4,0.5,0.8,0.5,1.3C209.9,157.4,209.6,158,209,158.4z M206.7,157.7
			c0.5,0,0.9-0.1,1.2-0.3c0.3-0.2,0.5-0.5,0.5-0.8c0-0.4-0.2-0.7-0.6-0.9c-0.4-0.2-0.8-0.4-1.1-0.4c-0.2,0-0.4,0.1-0.7,0.2
			c-0.2,0.1-0.5,0.2-0.7,0.4s-0.3,0.4-0.3,0.7c0,0.3,0.2,0.6,0.5,0.8C205.8,157.6,206.2,157.7,206.7,157.7z M206.7,154
			c0.2,0,0.4-0.1,0.7-0.2c0.2-0.1,0.4-0.2,0.6-0.4c0.2-0.2,0.3-0.4,0.3-0.6c0-0.3-0.1-0.6-0.4-0.8c-0.3-0.2-0.7-0.3-1.1-0.3
			c-0.5,0-0.8,0.1-1.1,0.3c-0.3,0.2-0.4,0.5-0.4,0.8c0,0.2,0.1,0.5,0.3,0.6c0.2,0.2,0.4,0.3,0.6,0.4
			C206.3,153.9,206.5,153.9,206.7,154z"/>
		<path class="st0" d="M216.4,158.4c-0.6,0.4-1.4,0.6-2.3,0.6s-1.7-0.2-2.3-0.6s-0.9-1-0.9-1.7c0-0.5,0.2-1,0.5-1.3s0.8-0.7,1.3-0.8
			c-0.5-0.2-0.9-0.4-1.3-0.7c-0.3-0.3-0.5-0.7-0.5-1.2c0-0.4,0.1-0.7,0.3-1s0.4-0.5,0.7-0.7c0.3-0.2,0.6-0.3,1-0.4
			c0.4-0.1,0.7-0.1,1.1-0.1s0.8,0,1.1,0.1c0.3,0.1,0.7,0.2,1,0.4c0.3,0.2,0.5,0.4,0.7,0.7c0.2,0.3,0.3,0.6,0.3,1
			c0,0.9-0.6,1.6-1.8,2c0.5,0.2,1,0.5,1.3,0.8c0.4,0.4,0.5,0.8,0.5,1.3C217.4,157.4,217,158,216.4,158.4z M214.2,157.7
			c0.5,0,0.9-0.1,1.2-0.3c0.3-0.2,0.5-0.5,0.5-0.8c0-0.4-0.2-0.7-0.6-0.9c-0.4-0.2-0.8-0.4-1.1-0.4c-0.2,0-0.4,0.1-0.7,0.2
			c-0.2,0.1-0.5,0.2-0.7,0.4s-0.3,0.4-0.3,0.7c0,0.3,0.2,0.6,0.5,0.8C213.3,157.6,213.7,157.7,214.2,157.7z M214.2,154
			c0.2,0,0.4-0.1,0.7-0.2c0.2-0.1,0.4-0.2,0.6-0.4c0.2-0.2,0.3-0.4,0.3-0.6c0-0.3-0.1-0.6-0.4-0.8c-0.3-0.2-0.7-0.3-1.1-0.3
			c-0.5,0-0.8,0.1-1.1,0.3c-0.3,0.2-0.4,0.5-0.4,0.8c0,0.2,0.1,0.5,0.3,0.6c0.2,0.2,0.4,0.3,0.6,0.4
			C213.7,153.9,213.9,153.9,214.2,154z"/>
		<path class="st0" d="M223.2,158.6c-0.4,0.2-0.9,0.4-1.5,0.4s-1.1-0.1-1.5-0.4s-0.8-0.6-1.1-1c-0.3-0.4-0.5-0.9-0.6-1.4
			s-0.2-1-0.2-1.6c0-0.5,0.1-1.1,0.2-1.6s0.3-1,0.6-1.4c0.3-0.4,0.6-0.7,1.1-1s0.9-0.4,1.5-0.4s1.1,0.1,1.5,0.4s0.8,0.6,1,1
			c0.3,0.4,0.5,0.9,0.6,1.4c0.1,0.5,0.2,1,0.2,1.6c0,0.5-0.1,1.1-0.2,1.6c-0.1,0.5-0.3,1-0.6,1.4C224,158.1,223.7,158.4,223.2,158.6
			z M220.3,156.9c0.3,0.6,0.8,0.8,1.4,0.8s1.1-0.3,1.4-0.8c0.3-0.6,0.4-1.3,0.4-2.2c0-0.6-0.1-1.1-0.2-1.5c-0.1-0.4-0.3-0.8-0.6-1.1
			s-0.6-0.4-1.1-0.4s-0.8,0.1-1.1,0.4c-0.3,0.3-0.5,0.6-0.6,1.1c-0.1,0.4-0.2,0.9-0.2,1.5C219.9,155.6,220,156.3,220.3,156.9z"/>
	</g>
</g>
</svg>
