<?xml version="1.0" encoding="utf-8"?>
<!-- Generator: Adobe Illustrator 19.2.0, SVG Export Plug-In . SVG Version: 6.00 Build 0)  -->
<svg version="1.1" id="Layer_1" xmlns="http://www.w3.org/2000/svg" xmlns:xlink="http://www.w3.org/1999/xlink" x="0px" y="0px"
	 viewBox="0 0 266.2 188.3" style="enable-background:new 0 0 266.2 188.3;" xml:space="preserve">
<style type="text/css">
	.st0{fill:#0D92FF;}
	.st1{fill:#787878;}
	.st2{fill:none;stroke:#00325C;stroke-width:1.32;stroke-miterlimit:10;}
	.st3{fill:#00325C;}
	.st4{fill:none;stroke:#00325C;stroke-width:7.62;stroke-miterlimit:10;}
	.st5{fill:none;stroke:#00325C;stroke-width:1.535;stroke-miterlimit:10;}
	.st6{fill:none;stroke:#00325C;stroke-width:9.8;stroke-miterlimit:3;}
	.st7{fill:none;stroke:#00325C;stroke-width:1.295;stroke-miterlimit:10;}
	.st8{fill:none;stroke:#00325C;stroke-width:1.31;stroke-miterlimit:10;}
	.st9{fill:none;stroke:#00325C;stroke-width:0.685;stroke-miterlimit:10;}
	.st10{fill:none;stroke:#00325C;stroke-width:2.425;stroke-miterlimit:10;}
	.st11{fill:none;stroke:#00325C;stroke-width:0.355;stroke-miterlimit:10;}
	.st12{fill:none;stroke:#00325C;stroke-width:2.225;stroke-miterlimit:10;}
</style>
<g>
	<path class="st0" d="M117.2,52.9L117.2,52.9L117,53l0,0.1l0,0.1l0,0.1l0,0.1l0.1,0.2l0.1,0l0-0.1l0-0.1l0-0.1l0-0.1l-0.1,0l0-0.1
		l0-0.1L117.2,52.9L117.2,52.9z M99.1,60.6l0.2,0.1l0.3-0.3l0-0.1l-0.2-0.1l-0.2,0L99,60.2l0,0l0,0.1l0,0.2L99.1,60.6z M144.6,54.8
		l0.2,0l0.1-0.1l0-0.2l0.1-0.1h0.1l0,0.2l-0.1,0.3l0,0.1l0.1,0l0.1-0.2l0.3-0.9l-0.3-0.1l-0.4,0.1l-0.4,0.3l-0.2,0.4l0.2,0.1
		L144.6,54.8z M145.9,53.3l0.1-0.3l0.5-0.4l0.2-0.2l-0.1,0.1l-0.7,0.3l-0.1,0.1l0,0L145.9,53.3L145.9,53.3z M116.6,45l-0.2,0.1
		l-0.1,0.3l0.1,0.2l0.1,0.1l0.2,0l0.3-0.2l0.2-0.4l0.1-0.4l0-0.2l-0.6,0.3L116.6,45L116.6,45z M103.3,59.2l0.5-0.2h0l0,0l0-0.1
		l-1.1,0l-0.5,0.1l-0.5,0.3l0.4,0.1L103.3,59.2z M111.7,59.1L111.7,59.1l0.1,0.1l0,0l0.2-0.2l0.1,0h0.1l-0.2-0.2l-0.2,0l-0.2,0.1
		l-0.1,0.2v0.1L111.7,59.1L111.7,59.1z M109.1,57.9l0.2,0l0.4,0.1l0.1,0l0.1,0l-0.3-0.2l-0.2,0l-0.2,0l-0.2,0l-0.2,0.1l0,0.1
		l0.2,0.1L109.1,57.9z M100.8,59.5l-1.4,0.2L99,59.8l2.1-0.2L100.8,59.5z M104.5,59L104.5,59l0.1-0.1l0-0.1l-0.1-0.1l-0.2,0l-0.2,0
		l-0.2,0.1l0.1,0L104.5,59z M105.1,58.9l0.3,0l0-0.3l0.3-0.1l0.7,0l0,0l0,0l0,0l0-0.1l-0.2-0.1l-0.9,0l-0.3,0l-0.1,0.1l-0.1,0.2
		L105.1,58.9L105.1,58.9z M107.1,58.4L107.1,58.4l0.2-0.2l0.2,0.2l0.3,0l0.3-0.1l0.2-0.1h0.1v-0.1l-0.9-0.1l-0.4,0.1l-0.3,0.3
		L107.1,58.4L107.1,58.4z M113.9,42.1L113.9,42.1L113.9,42.1L113.9,42.1l0.1-0.1l-0.2,0.1l-0.2,0.2l-0.3,0.6l0.2,0.3l0.2,0.3
		l0.2,0.2l0.3-0.1l0.1-0.1l-0.2-0.1l-0.5-0.9l0.1-0.1L113.9,42.1z M118.5,46l0.1,0.2l0.2,0.1l0.4,0l0.2-0.1l0.1-0.2l0.1-0.2l0.2-0.2
		l0-0.1l0-0.1l0-0.1l0,0l-0.4-0.1l-0.4,0l-0.4,0.2l-0.3,0.3l0.1,0.1l0,0.1l0,0.1L118.5,46z M162.2,44.2L162.2,44.2L162.2,44.2
		L162.2,44.2z M161.3,45.9l0-0.2l0-0.2l0.1-0.1l0.1-0.1l0.1-0.1l0.1-0.4l0-0.3l0.1-0.3l0.2-0.2v0.4h0.1v-0.2l0,0l0,0l0,0V44
		l-0.1-0.1l-0.1,0l-0.1,0l-0.2,0l-0.1,0.1l-0.1,0.4l-0.3,1.1l0,0.4v0.2h0.1L161.3,45.9z M168.2,51.6l0.1,0.2l0.4,0.4l0.1,0.3
		l-0.1,0.4l-0.3,0.6l-0.1,0.3l0.2,0.1l0.1-0.1l0.1-0.2l0.3-0.1l0.1-0.1l0.1,0l0.1,0.2l0,0.1l-0.1,0.1l-0.1,0.1l0,0.2l0.3-0.1l0.1,0
		l0-0.1l0.1-0.1l0.1-0.1l0.1,0v-0.1l-0.1-0.2l0.1-0.1l0.2,0l0.2,0l0.2,0.1l0.1,0.2l0.1,0.2l0.1,0.3l0.2-0.1l0.1,0.3l0,0.5l-0.1,0.4
		l0.1,0.2l-0.3-0.1l0-0.1l0-0.1l0,0l0.1,0l-0.4,0l-0.1,0.1l-0.2,0.3l0-0.3l0.1-0.3l0-0.1l0.1-0.1l-0.2-0.1l-0.5,0l0,0.4l0.4,0.7
		L170,56l-0.1,0.1l-0.3,0.2l-0.3,0.1l-0.2,0.2l-0.1,0l0.2,0.3l0.4,0.1l0.6,0l0.6-0.2l0.3-0.2l0.2-0.3l0.2,0.1l0.2,0l1.1-0.1
		l-0.1-0.3l-0.2-0.2l0.1,0l0.1-0.1l0.2-0.5l-0.2-0.1l-1.8-1.9l-0.3-0.2l-0.4-0.1l-0.7-0.4l-0.3-0.3l-0.1-0.2l-0.2-0.6l-0.1-0.2
		l-0.2-0.1l-0.2,0.1l-0.2,0.2L168.2,51.6z M97,61.5l0.2,0.1l0.1,0l0.1-0.1l0.1,0l0.1,0l0.1,0.2l0.1,0.1l-0.1-0.2l-0.1-0.1l-0.1-0.1
		l-0.1,0v-0.1l0.2,0L98,61l0.2,0l-0.1-0.3l-0.4,0L97,61l-0.1,0.1l0,0.2L97,61.5z M115.2,42.4l0.3-0.1l0.1,0.1l0.2,0.1l0.2,0l0.1,0
		l0.1-0.1l0.1-0.3l0.1-0.1v-0.1l-0.2-0.3l-0.2-0.1l-0.6,0l-0.3,0l-0.3,0.1l-0.2,0.2l-0.2,0.4l0.6,0.4L115.2,42.4z M113.2,41.5
		L113.2,41.5l0.1-0.3l0-0.3l0-0.9l0-0.1l0-0.3l0-0.1l0.1-0.1l0.3-0.2l0.1,0l0.1,0l0.1,0l0.1,0.2l0.1,0h0.7l0.2,0l0.3-0.2l0.2-0.1
		l1.3,0.1l0.3-0.2l-2.2,0.1l-0.5-0.1l-0.3-0.3l0.1-0.6l-0.1-0.3l0.1-0.4l0.2-0.3l0.4-0.2l0.1-0.2l-0.1-0.2l-0.3,0l0.1-0.1l0.6,0
		l-0.5-0.3l-0.4,0.5l-0.8,2.1l-0.1,0.4l-0.1,1.9l0,0.5L113.2,41.5z M140.7,46.4L140.7,46.4L140.7,46.4l0.1,0.2h0.1l0.1-0.1l0.1,0
		l0.3,0l0.1,0.1l0,0.1l0,0.4l0.1,0.1l0.3,0l0.4,0l0,0l0-0.1l0.2-0.1l1.3,0.2l-0.6-1.1l-0.2-0.3l-0.1-0.1l-0.3-0.2l-0.9-0.4l-0.5,0.1
		l-0.4,0.4l-0.3,0.7l0,0.2L140.7,46.4z M163.6,45.3l0-0.1l-0.1-0.2l-0.1-0.1l-0.1,0l-0.1-0.1l-0.2,0l-0.8,0.1l-0.2,0.1h0.1l0.1,0
		l0,0.1l0,0.2l0,0.1l0,0l0,0l0,0.1l0.1,0.1l0.2,0l0.3-0.1l0,0.1l0,0.1l0,0l0,0l0.1,0.2l0.1,0.1l0.3,0.1l-0.1,0.1l-0.1,0l0,0v0.1
		l-0.2,0l-0.3,0.2l-0.3,0.1l-0.1,0.1l-0.2,0.4l0.4-0.1l0.1,0l0.1,0.1l0.1,0.1l0.1,0v0.1l0,0.2l0.1,0.2l0.1,0.1l0.2,0l-0.3,0.2
		l-0.1,0l-0.1-0.1l-0.1,0.1l-0.3-0.2l-0.3,0.1l-0.2,0.3l-0.1,0.4l0.6,0.5V49l-0.2-0.1l-0.1,0.1l-0.1,0.1l0.1,0.1l0.1,0l0.3-0.2
		l0.1,0l-0.1,0.2l0.1,0.1l0.2,0.1l0.1,0l0.1,0.1l0.1,0.1l0.1,0.1l0.1,0l0.1-0.1l0.1,0l0.2,0l0-0.1l0,0l0.1-0.1l0.1-0.1l0.1-0.1
		l-0.1,0.3l-0.1,0.2l-0.1,0.1l0.4,0.2l0.3,0.1l0.3,0l0.2-0.1l0-0.2l-0.1-0.4l-0.1,0l-0.5,0.1l0,0h0l0,0l0,0.1l-0.1,0.1l0-0.5
		l0.2-0.1l0.2-0.1l0.1-0.3l0.1-0.2l0.5-0.5l0.2-0.1l1-0.1l0.1,0.1l0.1,0.1l0.1,0l0.1-0.2l0.1-0.1l0.1,0l0.3,0v0.1l-0.2,0.1l-0.6,0.4
		l0.2-0.1l0.2-0.1l0.5,0l-0.1,0.2l-0.2,0.1l-0.4,0.2v0.1l0.1,0.1h0.2l0.2-0.1l0.1-0.1h0.1l0,0.2l0,0.1l-0.1,0.1h-0.1l0.2,0.1l0.1,0
		l0-0.1v-0.3l0-0.3l0.1-0.2l0.1-0.2l0.1-0.1l-0.2-0.1l-0.2-0.2l-0.3-0.5l-0.2-0.1l-0.5-0.1l-0.2-0.1l-0.1-0.2l-0.1-0.3l-0.1-0.3
		l0-0.3l0.1-0.3l0.2-0.2l0.4-0.3l0.3-0.4l-0.1-0.4l-0.3-0.3l-0.5-0.1l-1.3,0.3l-0.4-0.1l-0.2-0.1l-0.1-0.2l-0.1-0.2l0-0.3l0.1-0.2
		l0.2-0.2l0.2-0.1l0.2-0.1v-0.1l-0.3-0.1l-0.3,0l-1.4,0.4l-0.1,0.1l-0.1,0.1l-0.1,0.1l0,0.2l0.1,0l0.1-0.1l0.4-0.1l0,0.1l0,0.2
		l0,0.2l0,0.1l-0.1,0.1l-0.1,0.3l-0.1,0.3l0,0.2l0.2,0.1l0.2-0.1l0.2-0.2l0.2-0.1l0.2-0.2l0.1-0.1l0.1-0.1l0,0.1l0.1,0.2l0.1,0.1
		l0,0.1l0.1,0.1l0.2,0l0.1,0.1l0.1,0.1l0.1,0.1l0.1,0.1l0.3,0l0.1,0l0.1-0.1l0.1-0.1l0.1-0.1l0.1,0v0.1l-0.1,0l0,0l0,0l-0.1,0v0.1
		l0.1,0.1l0.1,0.1l0.1,0.2v0.1l-0.1,0.1l0,0.1l-0.1,0.2l0.1,0.1l-0.5,0l-0.2-0.1l-0.2-0.3l0.1-0.3l-0.1-0.2l-0.2-0.2l-0.1-0.2
		l-0.1,0.1v0.1l0.1,0l0.1,0.1l0.1,0l-0.1,0.2l-0.1,0.1l-0.1,0l-0.1,0l0.1-0.3l0.1-0.1l0-0.1l0,0l-0.1,0h-0.1l0.1-0.1l0.1-0.2
		l0.1-0.4l-0.2,0.1l-0.2,0.1l-0.2,0.2l-0.1,0.2l0.1,0.3L163.6,45.3L163.6,45.3z M180.9,99.9L180.9,99.9l0-0.5l-0.1-0.3l-0.2-0.3
		l-0.2-0.3l0-0.1l0-0.3v0l-0.1-1.1l0.1-0.2l-0.1-0.2l-0.2-0.2l-0.2-0.1l-0.2-0.1l-0.5-0.1l-0.2-0.1v0l-0.2-0.2l-0.7-0.2l-0.2-0.2
		l-0.1-0.3l0.1-0.3l0.2-0.3l0.1-0.3l0-0.4l-0.1-0.4l-0.1-0.3l-0.5-0.4l-0.2-0.3l-0.1-0.4l0-0.4l-0.1-0.2l-0.2-0.1l-0.2-0.3l0-0.3
		l0.1-0.3l0.6-0.6l0.2-0.2l0.2-0.3l0.1-0.3l0-1l0.1-0.2l0.2-0.4l0-0.2l0-0.1l0-0.1l0.1-0.1l0.2-0.2l-0.7-0.5l-0.1-0.2l0.1-0.4
		l0.1-0.3l0-0.2l-0.1-0.2v-0.1l0.2-0.3l0-0.3l-0.2-0.3l-0.3-0.1l-0.3-0.1l-0.3-0.2l-0.2-0.3l0.1-0.3l-0.2-0.5l-0.2-0.7l-0.1-0.7
		l0.5-0.5l0.2-0.4l0.2-0.4l0-0.2l-0.2-0.2l0.1-0.4l0.3-0.6l-0.3-0.3l-0.6-0.7l-0.6-0.2l-0.3-0.4l-0.2-0.1l-0.1-0.1l-0.3-0.7
		l-0.2-0.2l-1.1-0.8l-0.3-0.1l-0.3-0.4l-0.2-0.1l-0.2,0l-0.2-0.1l-0.2-0.1l-0.1-0.2l0.3-0.2l0.1-0.2l0-0.3l0-0.2l-0.1-0.6l-0.1-0.2
		v-0.1l0.5-0.4l0.6-0.3l0.6-0.5l0.3-0.3l0.1-0.3l0-0.1l0.3-0.9l0-0.2l-0.1-0.2l0-0.3l0-0.2l0.1-0.2l0.1-0.1l0.1-0.1l0.1-0.1l0.3-0.5
		l-0.1-0.1l0-0.1l-0.2-0.1l-0.1-0.1l0-0.2l0-0.3l0-0.1l-0.3-1.3l-0.1-0.9l-0.2-0.4L174,63l-0.2-0.4l-0.1-0.3l0-0.4l0-0.6l0-0.2
		l-0.2-0.7l-0.2-0.3l0-0.3l0-0.5l-0.1,0l-0.2,0l-0.1-0.1l-0.1-0.1l0.5-0.3l0,0l0.1-0.1l0-0.3l0,0l-0.1-0.1l-0.2,0l-0.1,0.1l-0.1,0.2
		l-0.3,0.1l-0.8-0.1l-0.1,0l-0.2-0.2l-0.1,0l-0.2,0l0,0l-0.2-0.2l-0.3-0.1l-0.7-0.6l-0.1,0l-0.2-0.1l-0.1-0.2l-0.1-0.2l-0.1-0.1
		l-0.2,0l-0.2-0.1l-0.1-0.2l0.1-0.2l0.7-0.6l0.1-0.2l0.1-0.2l0-0.2l-0.1-0.1l-0.1,0l-0.1,0l-0.1,0l-0.1,0l0,0l-0.1,0l0,0l0-0.1
		l0-0.1l0-0.1l0-0.1l0-0.1l0-0.1l-0.1,0l-0.3-0.1l-0.1,0l-0.1-0.2l-0.3-0.4l-0.1-0.1l0.3-0.2l0.1-0.3l0.1-0.3l0.1-0.3v-0.1l-0.8-0.7
		l-0.3-0.2v-0.1l0.1,0l0.1-0.1l0-0.1l0-0.1l-0.3,0.1l-0.5,0.3l-0.3,0.1l-1.2,0.2v0.1l0.1,0.1l0.1,0.2l0.1,0.1v0.1l-0.2,0l-0.2-0.1
		l-0.1-0.2l-0.1-0.3l-0.1-0.4l-0.1-0.1l-0.1,0l-0.1,0.1l-0.1,0l-0.1-0.1l0.1-0.1l0-0.1l0.1-0.2l-0.2-0.1l-0.4,0.2l-0.3,0l0.1-0.1
		l0.2-0.1l-0.3-0.2l-0.3-0.7l-0.3-0.1l-0.3-0.1l-0.5-0.3l-0.3,0l0.1-0.1l0.1,0l0.1,0v-0.1h-0.4l-0.1-0.1l0-0.1v-0.2l0-0.2l-0.3-0.5
		l0-0.3l0.2-0.3l-0.1-0.1l-0.4-0.2l-0.1-0.2l-0.1-0.2l0-0.2l0.1-0.1l-0.3-0.1l-0.4,0.1l-0.4,0.3l-0.3,0.3l-0.1,0.2l-0.1,0.3
		l-0.1,0.1l-0.1,0.1l-0.1,0l-0.2,0l-0.1,0l0,0l0,0l-0.2-0.2l-0.1-0.1l0-0.1l0-0.1l-0.1,0.1l-0.1,0.1l-0.1,0l-0.1-0.1l-0.1,0.1
		l-0.1-0.1l-0.1-0.2l-0.1-0.2l0,0.1l0,0.1l-0.1,0.2l0-0.2l0.1-0.2l0.1-0.1l0.1,0v-0.1l-0.1,0l-0.1,0l-0.1,0l-0.1,0.1l0,0.1l0,0.1
		l0,0.1l-0.5,0.3l-0.3,0.1l-0.2-0.2v0.1l-0.1-0.1l-0.1,0l-0.2,0.1V48l0.1,0l0.1,0.1l-0.7,0.3l-0.2,0.1l0,0.1l0,0.2l0,0.1l0,0l-0.1,0
		l-0.1,0l-0.3,0.2l-0.1,0.1l-0.1,0.2l0.2,0.2l0.1,0.1l0.2,0L155,50l-0.2-0.1l-0.4-0.3l0.1-0.1l0-0.2l-0.1-0.2l-0.1-0.2l0.2,0
		l0.1-0.2l0-0.2l-0.1-0.2l0.1-0.1l0.1,0.1l0.1,0l0.1,0l-0.1-0.3l0.1-0.3l0.1-0.2l0.2-0.1l0.4,0l0.2,0.1l0.2,0.2l0.1-0.2l0.2-0.1
		l0.2,0l0.2,0.1l0-0.1l0,0h0l0,0l-0.1,0l-0.1,0l0-0.1l0-0.1l0.1,0l0.1-0.1l0.1,0l0.1,0.1l0.1-0.2l0.1-0.1l0.3,0.1h0.2l0.1,0l0.1-0.2
		l0.1,0l0.3,0l0.4,0.2l1.1,0.1l0.3-0.1l0.2-0.2l-0.1-0.2l-0.3-0.1l-0.2,0.1l-0.4-0.2h-2.3l-0.4-0.2l-0.2-0.3h0.1v-0.1l-0.2,0.1
		l-0.1,0.2l-0.2,0.5l-0.4,0.7l-0.1,0.2l-0.6,0.9L154,49l-0.1,0.2l-0.4,0.3l-0.8,0.4l-0.1,0l-0.1,0.1l-0.2,0.4l-0.2,0.2l-0.3,0.4
		l-0.1,0.2l0.1-0.1l0.1,0l0.1,0l0.1,0l-0.1,0.2l-0.3,0.2l-0.1,0.2l0.1,0.2l0,0.4l0.1,0.2l-0.2-0.3l0-0.4l0-0.5l-0.1-0.5l-0.4,0.2
		l-2.4,0.5l-0.8-0.1l-0.4,0.1l-0.3,0.2l-0.2,0.4l0,0l0,0.1l0,0.1v0.1l0.1,0.1l0,0.1l0,0.1l-0.1,0.1l-0.1,0.1l-0.1,0l-0.1,0.1
		l-0.2,0.5l-0.2,0.2l-0.1,0l-0.3-0.1v0.1h0.1v0.1l-0.3,0.3l0,0.1l0,0.2l0,0.1l-0.1,0l-0.1,0.1l-0.1,0.1l0,0.3l-0.1,0.3l-0.1,0.3
		l0,0.2H145l-0.1-0.1l-0.4-0.5l0-0.1h-0.4l-0.1-0.1l-0.1-0.2l-0.1-0.1l-0.4,0.3l-0.1,0l-0.3,0l-0.1-0.1l0-0.2l0-0.4l-0.1-0.1
		l-0.4-0.1l-0.1-0.1l-0.1-0.2l-0.1-0.1l-0.1,0l-1.2,0.2l-0.5,0.3l-0.2,0l-0.2,0.1l-0.3,0.3l-0.1,0.1l-0.1,0l-0.2,0l-0.2,0l0-0.2
		l0-0.2l-0.1-0.2l-0.1,0l-0.4,0l-0.3-0.1l-0.2-0.2l-0.1-0.2l-0.1-0.3v-0.1l0.1-0.1l0.4-0.6l0,0l0.1-0.1l0.1,0l0.1,0.1l0.1,0l0.1-0.1
		l0.1,0l0.4-0.1l0.2-0.1l0.4-0.5l1.2-0.8l0-0.2l0.1-0.1l0.1-0.2l0-0.3l-0.1-0.5l0-0.3l0.1-0.2l-0.1-0.3l-0.1-0.7l-0.1-0.3l0.2,0.1
		l0.1,0l0.1-0.2l0.4-0.4l-0.3-0.1l-0.7,0.4l-0.2-0.2l-0.2,0.1l-0.2-0.1l0.3,0l0.2,0v-0.1l-0.8,0.1l-0.3,0.1l-0.3,0.2l-0.6,0.5
		l-0.3,0.2l-0.5,0.1l-0.4-0.1l-0.9-0.8l-1.6-0.7l-0.6-0.5l-0.2-0.1l-0.4,0l-0.1,0l-0.1,0.1l-0.1,0.1l-0.1,0.1l-0.1,0.1l-0.4,0
		l-0.1,0.1l-0.1,0.1l-0.1,0.6l-0.2,0.5l-0.2,0.2l-0.2,0.1l0.1-0.2l0-0.2l0-0.1l-0.1-0.1l0.1-0.1l0-0.1l0,0l0,0l0.2-0.1l0.2-0.2
		l0.1-0.2l0.1-0.2l-0.1-0.3l-0.1-0.2l0-0.2l0.2-0.2l-0.6-0.5l-0.2-0.1l-2.4,0.6l-0.4-0.2V46l0.4,0l0.4-0.1l0.4-0.2l0.3-0.3l0.1-0.2
		l0.1-0.2l0.1-0.2l0-0.3l0.1-0.7l0-0.3l-0.1-0.2l0.1-0.2l-0.1-0.1l-0.1,0l-0.1,0.1l-0.2-0.2l-0.3,0l-0.3,0.1l-0.1,0l0-0.2l0,0l0,0
		l0.1,0l0,0l0.2-0.2l0,0l0.1,0l0.1,0.1l0.1,0l0.1-0.1l-0.2-0.2l-0.1-0.1l-0.1-0.1l-0.1-0.6l-0.2-0.3l-0.3-0.2l-0.2,0l0,0.4l-0.5,0.2
		l-0.3,0l-0.1-0.2l-0.1-0.3l-0.2-0.2l-0.3-0.1l-0.2-0.1l-0.4-0.2l-0.6,0l-0.5-0.2l0-0.6l-0.1,0.1l-0.1,0.2l-0.2,0.1l-0.2,0.2
		l-0.6,0.3l-0.2,0l-0.1,0.1l-0.2,0l-0.2-0.2l-0.2,0l-0.1,0.1l-0.1,0l-0.1,0.1l-0.2,0l-0.7,0l-0.2-0.1l-0.1-0.2l0-0.2l0-0.2l-0.2-0.1
		l-2.1-0.5l-0.8-0.3l-0.8-0.1l-0.2,0l-0.7,0.3l-0.4,0l-0.3-0.1l-0.1,0.5l0,0.4l0.1,0.5l0.1,0.3l0.2,0.3l0.1,0.4l-0.1,0.3v0.1
		l0.3,0.2l0.5,0.5l0.3,0.2l0.1,0.2l0.3,0.9l-0.3,0.2l0.1,0.1l0.1-0.1l0.2-0.1l0.2,0l0.1,0.1l0,0.2l0.1,0.2l0.8,0.9l0.3,0.4V46
		l-0.1,0.3l-0.2,0.1l-0.4,0.2l-0.4,0.4l-0.2,0.1l-0.3,0.1h-1.1l-0.8,0.2l-0.2-0.1l-0.1,0.1l-0.1,0.2l0,0.2l0.1,0.2l0.2-0.2l0.1,0
		l0.1,0.1l0.2,0v0.1l-0.2,0l-0.3,0.1l-0.3,0.1l-0.1,0.2l0,0.4l0.2,0.4l0.3,0.3l0.3,0.1l0.1,0l0.3-0.3l0.2-0.1l0.4,0.1l0.3,0l0.5-0.2
		l0.3,0l0,0.1l0,0.1l0,0.1l0.2-0.1l0.4-0.3l0.2,0l-0.1,0.3l-0.2,0.3l-0.2,0.2l-0.1,0.1l-0.2,0l-0.4,0.1l-0.1,0.1V50l0.1,0.3
		l-0.1,0.3l-0.2,0.3l-0.1,0.3l0,0.1l0.2,0.4l0.3,0.5h0.1l0.2-0.2l0.3-0.2l0.4-0.1l0.2,0.1v0.1l0,0.2l0.1,0.2l0.2,0.2l0.1,0.2v0.3
		l-0.1,0.4l-0.1,0.3l-0.1,0.2l-0.2,0.1l-0.2-0.1l-0.4-0.3l-0.2-0.1l-0.2,0l-0.4,0.2l0.8,1.7l0.3,0.4l0.4,0.3l0.2,0.1l0.1-0.2
		l0.1-0.1l0.3,0.1l0.4,0.2l1.3,0l0.4,0.1l0.4,0.2L124,57l0.4,0.1l0,0.3l0.2,0.6l0.2,0.5l0.2,0.2l0.1,0.1l0.5,0.3l0.1,0.1l0,0.3
		l0,0.5l0.1,0.5l0.3,0.4l0.7,0.5l0.4,0.1l0.9,0.1l0.4,0.2l0.1,0.2l-0.1,0.1l-1.2-0.3l-0.6-0.4l-0.1-0.1l-0.2,0l-0.2-0.1l-0.2-0.1
		l-0.7-1l-0.1-0.5l-0.1-0.2l-0.3-0.2l-0.4-0.5l-1-1.7l-0.2-0.3l-0.1-0.1l-0.3,0l-0.2,0l-0.1-0.1l-0.2,0.1l-0.8,0l-0.8,0.2l-0.2,0.2
		l-0.4,0l-0.7,0.2l-0.4,0l-0.8-0.2l-0.4-0.2l-0.4-0.3l-0.2-0.3l-0.1-0.1l-0.2,0l-0.2,0.1l-0.2,0.1l-0.2,0.2l-0.1,0.2l-0.2,0.5
		l-0.3,1l-0.4,0.9l-0.1,0.2l0,0.3l0,0.3l0.1,0.4l0.1,0.3l0.1,0.3l0.1,0.2l0.1,0.1l0.3,0.7L116,62l-0.1,0.5l-0.2,0.2l-0.2,0.2
		l-0.2,0.4l0,0.5l0.1,1.1l0,0.4l-0.1-0.3l-0.1-0.4l0-0.9l0.1-0.5l0.2-0.4l0.2-0.3l0.2-0.2V62l-0.4-0.2l-0.9-0.2l-0.4-0.2l-0.1-0.2
		L114,61l-0.1-0.2l-0.2-0.1l-0.4,0l-0.2,0.1l-0.1,0.1l-0.1,0.2l-0.1,0.6l-0.1,0.3l0,0.2l0.2,0l0.4-0.1l0.3,0.3l-0.1,0.6l-0.2,0.6
		l-0.2,0.4l-0.1,0.1l-0.1,0.1l-0.1,0l-0.2,0l-0.1-0.1l-0.1-0.2l-0.1-0.2l-0.1-0.1l-0.1,0l-0.2-0.2l-0.1-0.1l-0.2,0l-0.1,0l-0.1,0.1
		l-0.1-0.1l-0.1-0.2l-0.2-0.6l0.2-0.1l0.4,0l0.2-0.1l0.2-0.2l0.1-0.2l0-0.3l-0.1-0.2l-0.2-0.1l-0.2-0.1l0.1-0.2v-0.1l-0.3-0.2
		l-0.4-0.5l-0.3-0.6l0.1-0.5v-0.1l-0.8-0.2l-3,0.4l-1.5,0.3l-0.2-0.1l-0.1-0.1l-0.1-0.1l-1.5,0.2l-0.8,0.3l-0.4,0.4l-0.2,0.1
		l-0.4,0.4l-0.3,0.2l-0.1,0.2l0,0.2l0.1,0.1l0.3,0.1l0.1,0.1l0,0.2l-0.1,0.2l-0.1,0.1l-0.1,0.1l-0.4-0.1l-0.2,0l-0.1,0.2l0,0.3
		l-0.2,0.5l0,0.3l0,1.2l0.1,0.5l0.4,0.2l2.3,0.1l0.4,0.1l0.2,0.4l-0.2-0.1l-0.3-0.2l-0.2-0.1l-0.2,0l-0.1,0.1l-0.3,0.4l0.1,0.2
		l0,0.2l-0.1,0.2l-0.1,0.1l-0.1,0.1l-0.1,0.1l0,0.5l0,0.3l0,0.3l-0.1,0.3l-0.1,0.4l0,0.1l0,0.2l0,0.1l0,0.1l0,0.1l0.1,1.2l0,0.6
		l-0.1,0.5l-0.2,0.6l-0.8,1.3l-0.2,0.5l-0.1,0.6l-0.1,1.8l-0.1,0.6l-0.2,0.4l-0.4-0.1l-0.2-0.1l-0.5,0.1l-0.5-0.2l-1,0l-0.3,0.1
		l-0.4,0.3l0.1,0.2l0,0.1l0,0.1l0,0.1l0.1,0.1l0.3,0.3l-0.6,0.3l-0.2,0l0.1,0.3l0,0.3l0,0.3l0.1,0.2l0.2,0.2l0.3,0.1l0.8,0.1
		l0.5,0.2l0.3,0l0.3,0l0.3-0.1l0.1-0.1l0.1-0.1l0.1,0l0.6,1l0.1,0.4l-0.1,0.6l-0.2,0.5l-0.1,0.2l0,0.3l0.1,0.3l0.1,0.2l0,0.1
		l-0.4,0.3l-0.1,0.1l-0.2,0.4l-0.2,0.2L99.1,85l-0.2,0.2l-0.2,0.5l-0.1,0.1l-0.7,0.1l-0.2,0.1l-0.2,0.2l-0.1,0.1l-0.1,0.2l-0.1,0.1
		l-0.1,0.1l-0.1,0l-0.1,0L97,86.8l0,0.2l0.2,0.1l0.2,0.1l0.7,0.4l0.3,0.3l0.1,0.1l0,0.1l0,0.2l0,0l-0.1,0l-0.1,0.1l-0.2,0.4
		l-0.2,0.3l-0.3,0.1l-0.9,0l-1,0.3L95,90l-0.2,0.1h-0.2L94,89.9l0.1,0.4l0,0.2l-0.4,0.1l0-0.3l-0.2-0.1l-0.4-0.1l0-0.1L93,89.8
		l-0.1-0.1l-0.1,0l-0.3,0.1l-0.3-0.1l-0.3-0.3l-0.3-0.2l-0.3,0.2l0.1,0.1l0.4,0.4l0.1,0.2l-0.2,0l-0.2-0.1L91.1,90l-0.4,0.1
		l-0.1,0.1l-0.2,0.2l-0.2,0.1l-0.4,0.1l-0.2,0.1l0,0.1l0.2,0.2l0.1,0.3l0,0.3l-0.2,0.2l0,0.2l0.1,0l0.3,0l0.1,0.1l0.2,0.2l0.1,0.1
		l-0.1,0.5l0.2,0.3l0.7,0.3l-0.1,0.4L91,94l0,0.2l0.7,0.9l0.4,0.5l0.1,0.5l0,0.3l0,0.3L92.2,97l0,0.3l0.2,0.2l-0.1,0.1l0,0.4
		l-0.1,0.2l-0.1,0.1l-0.3,0.2l-0.1,0.1l-0.5,1L91,99.8l-0.1,0.2l-0.1,0.3l0,0.4l0.1,0.3l0.2,0.1l0.5-0.3l0.2,0.1l-0.1,0l-0.2,0.2
		l0.2,0.2l-0.2,0.2l-0.6,0.3l-0.9,0.7l-0.1,0.2l-0.2,0.4l-0.1,0.1l-0.2,0l-0.1-0.1l-0.1-0.2l-0.1-0.1l-0.3,0.1l0.1,0.4l0.2,0.5
		l0,0.4l0.1,0l0.3-0.1l0.1,0l0.1,0l0.3,0.1l0.4,0l0,0.1l-0.1,0.1l0,0.1l0,0.2l0,0.1l0.1,0.1l0.2,0.1l0.3,0.1l0,0.1l-0.1,0.1l0,0.1
		l0.1,0.3l0,0.1l-0.1,0.2l-0.1,0.1l-0.2,0l-0.1,0.1l-0.1,0.2l0,0.1l0,0.1l-0.1,0.2l-0.1,0.1l-0.2,0l0,0.2l0.1,0.1l0.1,0.1l0.1,0.1
		l0,0.2l0,0l0,0l0,0l0,0v0l0,0l0,0l0.1,0.1l0.1,0l0,0.1v0l0,0.2l0,0.1l0,0l0.1,0l0.4-0.1l0.2,0l0.2,0.2l0.1,0.2l0.5,0.8l0,0
		l-0.1,0.1l0.1,0.2l0.2,0.1l0.7,0l0,0.1l-0.1,0.1l0,0l-0.1,0.1v0.1l-0.2,0.1l-0.2,0.2l-0.1,0.1l-0.2,0.3l0,0l0.2,0.2l-0.1,0.1l0,0.1
		v0l0.1,0l0.1,0h0l-0.1,0.1l0.1,0.1l0,0h0l0,0.1l0.1,0.1l0.1,0l0,0l0,0l0.1,0l0.3-0.1l0,0l0,0l0,0l0,0l0,0l0,0l0.2,0.1l0.4,0.1
		l0.2,0l-0.1,0.1l0,0l0,0.1l0,0l0,0.1l0.1,0.2l0,0l0.1,0.1l0.1,0h0l0,0l0,0v0l0,0.1l0,0.2l-0.1,0.4l0,0l-0.1,0.2l0,0.2l0.3,0.6
		l0,0.2v0l-0.1,0.1l0,0l0,0l-0.3,0l-0.1,0l-0.1,0l0,0l-0.1,0l-0.1,0l-0.1,0l-0.1,0.1l0,0l-0.1,0.1l0,0.2l0,0.1h0l-0.2,0.2l-0.3,0.1
		l-0.2,0.1l-0.2,0.1l-0.1,0.1l0,0l-0.2,0.1l-0.1,0l-0.1,0.1l0,0l0.1,0.1l0,0l0,0.1l0,0.2l-0.1,0.1l0,0l-0.1,0l-0.2,0l0,0l-0.1,0l0,0
		l0,0l0,0.1l0,0.1l0,0.1l0.1,0.1l0,0.1v0l0,0l0,0.1l-0.1,0.1l-0.1,0.2l0,0.2l-0.1,0.4l0,0l0.1,0l0,0l0,0.1l-0.1,0.2l0.1,0.1l0.1,0.1
		l0.1,0.3l0,0.2l0,0.1l0.2,0.3l0.2,0.4l0.1,0.1l0.1-0.2l0.2,0.3l0.3,0.8l0.2,0.2l0.3,0.2l0.1,0.1l0,0.1l0.1,0.3l0,0.1l0.1,0l0.2-0.1
		l0.1,0l0.2,0.1l0.3,0.3l0.2,0.1l0.2,0h0.5l0.3,0.1l0,0l0.1,0.1l0,0l0,0.1l0,0l0,0.3l0,0.1l0,0.1l0,0.1l-0.1,0.1l0,0.1l0,0.1l0,0.1
		l0.1,0.1l-0.1,0l0,0l0,0.1l0.1,0.1l0,0l-0.7,0.5l-0.2,0.2l0,0.1l0.1,0l0.1,0.1l0,0.1l0,0.1l-0.1,0.1l-0.1,0.2l-0.3,0.3l-0.2,0.2
		l-0.1,0.2v0.5l-0.1,0.6l0,0.5v0.1l0.1,0l0.1,0l0.2-0.1l0.1,0l0.1,0l0.9,0.5l0.2,0.2l0.1,0.1l0,0.1l0,0.1l0,0l0.1,0.1l0.5,0.5l0,0.1
		l0,0.1l-0.2,0l-0.1,0.1l0.1,0.2l0.2,0.2l0.7,0.6l0,0.1l0,0.2l0,0.1l0.1,0l0.1,0.1l0,0l0.1,0.3l0,0.1l0,0l0,0.1l0,0.1l0,0l0.1-0.1h0
		l0.1,0.2l-0.1,0.2l0,0.2l0.1,0.2l0.1,0l0.4,0l0.4,0.1l0.1,0l0.2-0.2l0-0.3l-0.1-0.2l0.1-0.2l0.1,0l0.4,0.1l0.3,0l0.1,0l0.6,0.4
		l0.2,0l0,0.5l0.1,0.4l0.2,0.2l0.3-0.2l0-0.1l0-0.1l0-0.1l0.1-0.1l0.1,0l0.4,0.3l0.2,0.1l0.2,0.1l0.9,0l0.3,0.1l0.1,0l0.1-0.1
		l0.1-0.2l0.1-0.1l0.1,0l0.2,0l0.1,0l0.1-0.1l0.1-0.2l0-0.1l0.2-0.1l0.2-0.1l0.2,0l0,0.2l0.4,0l0.2,0.1l0.1,0.2l-0.1,0l0,0l0,0.1
		l0.1,0.1l0.2,0.4l0.1,0.2l0.2,0.1l0.4,0.1l0.2,0.1l0.1,0.1l0.1,0.2l0.1,0.1l0.1,0l0.1,0l0.1,0l0.1,0l0.1,0l0.2,0.1l0.1,0l0.1,0
		l0.2-0.1l0.1,0l0.8,0.2l0.6-0.1l0.2,0l1.6,0.8l1,0.2l0.1,0.1l-0.2,0.2l-0.3,0.6l-0.5,1.3l-0.1,0.2l-0.1,0.1l-0.4,0.2l-0.1,0l0,0
		l0,0l0,0.1l0,0.1l0,0.1l-0.1,0.1l-0.1,0l-0.3,0l-0.1,0l-0.1,0.1l0,0.3l0,0.1l-0.1,0.1l-0.1,0.1l-0.1,0.1l-0.3,0.3l-0.2,0.1L109,140
		l-0.1,0.1l-0.4,0.7l-0.1,0.5v0.5l0.1,0.3v0.1l-0.3,0.2l-0.1,0.1l-0.1,0.1l0,0.3l0,0.1l-0.1,0.1l-0.1,0.1l-0.1,0.2l-0.1,0.4l0,0.2
		l0,0.2l0.1,0.2l0.1,0.2l0,0.2l-0.1,0.2l-0.2,0.1l-0.2,0.1l-0.1,0.3l0,0.3l-0.1,0.3l-0.1,0.2l-0.6,0.9l-0.1,0.2l0,0.2l-0.1,0.1
		l-0.1,0.1l-0.1,0.1l-0.1,0.2l-0.1,0.3l0,0.6l0.4,0.8l0,0.5l-0.1,0.2l-0.3,0.3l-0.1,0.2l0,0.2l0,0.1l-0.1,0.2l0,0.1l-0.1,0.1l0,0.1
		l0,0.1l0,0l0,0l0,0.1l0.1,0.3l0,0.2l-0.1,0.1l-0.1,0.1l-0.1,0.5l0,0.2l0.1,0.5l0,0.2l-0.1,0.1l-0.2,0.2l0,0.1l0,0.3l0,0.2l0,0.1
		l0.1,0.1l0.1,0.2l0.2,0.5l0.1,0.1l0.1,0.1l0.1,0.1l0,0.1l0,0.1l0,0.1l0.5-0.2l0.2,0l-0.1,0.4l-0.1,0.1l-0.3,0l0.5,0.3l0.2,0
		l0.8-0.2l0.2-0.1l0.2-0.2l0.2-0.3l0.1,0.1l0.6,0l0.1,0.1l0,0.1l0,0.1l0,0.1h1.3l0.5-0.1l0.1-0.1l0-0.1l0-0.1l0.1-0.1l0.1-0.1
		l0.2-0.1l0.2-0.1l0.1-0.1l0-0.1l0.1,0l0.5-0.1l0.2,0l0.3,0.1l0.1,0l0.1,0.1l0.1,0.1l0.1,0.1l0.1,0.1l0.4,0.1l0.6,0l0.3-0.1l0-0.1
		l0.1-0.3l0.3-0.2l0.3,0l0.2,0.1l0.1,0.2l0.1,0.1l0.1,0l0.1-0.1l0-0.1l0-0.1l0-0.1l0-0.1l0-0.1l0-0.1l0-0.1l0,0l0.1,0l0,0l0,0l0,0.1
		l0.1,0l0.1-0.4l-0.1,0l-0.2-0.1l-0.1,0l-0.5,0.1l-0.2,0.1l-0.1,0.1l-0.1,0.1l-0.2,0l-0.2-0.1l-0.3-0.2l-0.1,0l-0.2-0.1l0.1-0.2
		l0-0.1l0-0.1l0-0.1l0.1-0.1l0.3-0.1l0.1-0.1l0.1-0.3l0-0.1l0.1-0.2l0.1,0l0.1,0l0.5-0.1l0.2-0.1l-0.1-0.2l0.2-0.1l0.3,0l0.2,0.1
		l0,0.1l0,0.2l0,0.2l0.1,0.1l0.1-0.1l0.1-0.3l0.1-0.1l0.1,0l0.1,0.1l0.1,0.2l0.1,0.1l0.1,0l0.1,0l0.1,0l0.1,0.2l0,0.1l-0.1,0.2
		l0,0.1l0,0.1l0.1,0.1l0,0.1l0,0.1l0.5,0l-0.1-0.1l0.1-0.3l0.3,0l0.3,0.2l0.3,0.2l-0.2,0v0.1l0.2,0.2l0.3,0.2l0.2,0.1l0.4,0l0.4-0.1
		l0.2-0.2l0.2-0.1l1.1,0.1h0.6l0.1,0.2h0.4l0.4,0.1l2.8,1.7l0.6,0.2l0.6,0l0.3-0.1l0.1-0.2l0.1-0.3l0.2-0.3l0.1-0.1l0.1,0l0.1,0.1
		l0.1,0.1l0,0.2l0,0.2l0,0.2l0.2,0.1l0.1,0l0.1-0.1l0.1,0l0.3,0.1l0.3,0l0.2,0l0.1-0.1l0,0.2l0.1,0.1l0.1,0.1l0.1,0.2v0l0,0l0,0.1
		l0.1,0.1l0.1,0l0.1-0.1l0.1-0.1l0.5,0.7l0.1,0.2l0,0.2l-0.2,0.2l0.1,0.1l0,0.2l0,0.2l0.1,0.1l0.1,0.1l0.1,0l0.1-0.1l0.1-0.1l0,0
		l0.1,0.1h0.1l0,0l0.1-0.1l0.4-0.1l0.2,0.1l0,0.3l-0.2,0.5l0,0.1l0,0.1l0,0.1l0,0l-0.1,0l0,0l-0.1,0.2l0,0.1l0,0l0.8-0.1l0.2-0.1
		l0.4-0.3l0.2-0.2l0.2-0.2l0.2-0.4l0.1-0.1l0.1-0.1l0.2-0.1l0.1-0.1l0.2-0.2l0.1-0.3l0.1-0.3v-0.3l0-0.2l-0.1-0.1l-0.1-0.1l-0.1-0.1
		l0.1-0.6l0-0.1l-0.1-0.2l-0.1-0.2l0-0.1l0.2-0.1l0.2,0l0.1,0l0,0l0,0.1l0,0.1l0,0.1l0,0.1l0,0.1l0.1,0.1l0.1,0.1l0.2,0.1l0.4,0.1
		l0.1,0l0.1-0.1l0.2-0.3l0.1-0.1l0.2,0l1.3,0.5l0,0l0,0.1l0.1,0.1l0.1,0l0.3,0l0.4-0.2l0.1,0l0.1,0l0.1,0.1l0.2,0.2l-0.1,0.1
		l-0.3,0.2l0.1,0.1l0.5,0.2l0.5,0.5l0,0.1l0,0.1l0,0.1l0,0.1l0,0l0.1,0.2l0.1,0.1l1,0l0.2-0.1l0.7-0.5l0.3-0.1l0.2,0.1l0,0.4l0.2,0
		l0.2-0.1l0.1-0.2l0.1-0.2l0.2-0.2l0.2-0.1l0.4,0l0.2-0.1l0.1-0.1l0-0.1l-0.1-0.1l-0.1,0l0.5-0.5l0.2-0.1l0.2,0l0.2,0.1l0.5-0.1
		l0.2-0.1l0.2-0.2l0.1-0.1l0.1-0.3l0.1-0.2l0.3-0.2l0,0l0.2,0l0.4,0.1l0.8,0l0.6,0.1l0.1,0l0.1-0.3l0.1-0.1l0.8-0.2l2.3,0.1l0.1,0
		l0.3-0.4l0-0.1l0-0.1l0-0.4l0-0.1l-0.1,0l-0.1-0.1l-0.1-0.1l0-0.1l0-0.1l0.2-0.1l0.2-0.2l0.1-0.1l0.1-0.1l0,0l0,0.1l0,0.2l0,0.1
		l-0.1,0.1l0,0.1l0.1,0.2l0.1,0.1l0.1,0l0.2-0.1l0.2,0l0.6,0.1l0.2,0l0.4-0.2l0.2,0l0,0.1l0.1,0.3l0.1,0.1l0.1,0.1l0.3,0.2l0.1,0.1
		l0.2,0l0.2,0l0.2-0.1l0.4-0.4l0.2-0.1l0.4-0.1h0.4l0.6,0.1l0.2,0l-0.1,0.3l0.2,0.2l0.3,0.2l0.2,0.2l-0.3,0.1l-0.1,0.3l0.1,0.4
		l0.2,0.2l0.2,0l0.1,0l0.1,0.1l0.5,0.5l0.5,0.4l0.1,0l0.1,0l0.1,0l0.1,0l0.1,0.1l0.1,0.1l0.1,0l0.1,0l0.1-0.1l0.3-0.3l0-0.1l0-0.1
		l0-0.1l0-0.1l0-0.1v-0.3l0,0l0.1-0.2l0,0l0,0l0-0.3l0,0l0.2-0.2l0,0l0.1-0.3l0,0l0-0.2l0-0.2l0-0.2l-0.1-0.2l-0.2-0.3l-0.1-0.1
		l-0.1-0.1l-0.2,0l-0.3,0.1l-0.2,0l-0.6-0.1l-0.2-0.2l0.2-0.3l0,0l0.1-0.1l0-0.1l0-0.1l0-0.1l0.1-0.1l0.6-1l0,0l-0.2-0.3l-0.3-0.8
		l-0.2-0.2l-0.1,0l-0.2-0.2l-0.2-0.1l-0.1-0.1l-0.1-0.2l0-0.2l-0.2-0.3l-0.7-0.7l-0.1-0.1l-0.1-0.2l0-0.2l0-0.2l0.1-0.1l0.1,0l0.1,0
		l0.1,0l0.1-0.2l0-0.1l0.4-0.3l0.1-0.2l0.2-0.3l0.1-0.1l0.2-0.1l0.6-0.1l0,0l0.2-0.1l0.3-0.2l0.4-0.4l0.2-0.1l1-0.4l1.4-0.2l0.3-0.2
		l1-0.9l0.1-0.2l0.1-0.3l0-0.1l0-0.1l0-0.1l0-0.2l0-0.4l0-0.1l0-0.1l0.1-0.3l0-0.1l0-0.1l-0.1-0.1l0-0.3l0-0.1l0-0.1l0.1-0.1
		l0.1-0.1l0.3-0.1l0.3,0l1,0.3l0.2,0.1l0.2,0.1l0.2,0.2l0.4,0.2l0,0l0.1-0.4l0.1-0.2l0,0l0.2,0l0.1,0l0.1-0.1l0-0.1l0.2-0.4l0.1-0.2
		l0-0.2l0-0.3l-0.1-0.5l0-0.2l0.1-0.1l-0.1-0.1l-0.1,0l-0.1-0.2l-0.1,0l0-0.1l0.3-0.6l-0.2-0.2l-0.5-1l-0.2-0.4l-0.1-0.1l-0.4-0.1
		l-0.2-0.1l-0.2-0.2l-0.2-0.2l-0.1-0.3l0-0.3l-0.2,0l-0.2-0.1l-0.2-0.1l-0.2-0.1l-0.2-0.1l-0.1,0.1l-0.1,0.2l-0.1,0.3l-0.2-0.1
		l-0.3-0.2l-0.3-0.3l-0.1-0.2l0-0.4l-0.1-0.3l-0.4-0.4l-0.3-0.4l-0.1-0.1l-0.2-0.1l-0.6,0l-0.3-0.2l-0.2-0.3l-0.1-0.3l-0.9-1.3
		l-0.1-0.1h0v0l-0.3-0.4l0-0.1l0-0.1l-0.1-0.1l-0.2-0.1l-0.3-0.3l-0.1-0.1l-0.2-0.1l-0.4-0.1l-0.1,0l0,0.2l-0.2,0l-0.6-0.1l-0.2-0.1
		l-0.2-0.2l-0.3-0.7l-0.2-0.2l-0.5-0.2l-0.2-0.2l-0.1-0.2l0-0.2l0-0.5l0-0.3l-0.1-0.1l-0.1,0l-0.1,0l-0.1-0.1l-0.1-0.1l-0.1-0.1
		l-0.1-0.2l0-0.2l0-0.3l-0.1-0.2l-0.1-0.1l-0.2-0.1l-0.1-0.1l0,0l0-0.1l-0.1,0l0,0l0.1-0.2l0-0.2l-0.1-0.2l-0.1-0.1l-0.3-0.2
		l-0.2-0.1l-0.1-0.1l-0.2-0.3l-0.1-0.2l0-0.2l0.1-0.2l0.4-0.2l0.2-0.2l0-0.3l0-0.3l0.1-0.2l0.2,0.1l0.1-0.2l0.2-0.4l0.1-0.2l0-0.3
		l-0.1-0.1l-0.1-0.1l-0.4-0.2l0-0.2l0.1-0.2l0-0.2l-0.2-0.2l-0.4,0l-0.2-0.2h0l-1.5-0.8l0-0.1l0-0.1l0-0.2l-0.1-0.2l-0.1-0.1
		l-0.2-0.1l-0.1-0.1l-0.1-0.2l0-0.2l0.1-0.4l0-0.2l-0.1-0.2l-0.1-0.2l-0.2-0.3l-0.5-0.3l-0.1-0.2l0.1-0.2l0.1-0.1l0.1-0.1l0-0.2
		l0-0.2l-0.1-0.1l-0.2-0.2l0.7,0.1l0.2,0.1l0.1,0.1l0,0.3l0,0.1l0.1,0.1l0.1,0l0.3,0l0.1,0l0,0.1l0,0.1l0,0.1l0,0l0,0l0,0l0,0l0,0
		l0,0l0,0l0,0l0.2,0.2l0,0.1l0,0.1l0,0.1l0,0.1l0.1,0.4l0.1,0.2l0.2,0l0.1-0.1v-0.1l-0.1-0.2l0-0.2l0-0.3l0.1-0.1l0.2-0.3l0-0.2
		l0.1-0.1l0.1-0.1l0.1-0.1l0.3-0.6l0.1-0.1l0.3-0.2l0.1-0.1l0,0l0.1,0l0,0l0-0.1l0-0.1l0-0.1v0l0-0.1l0-0.1l0-0.1l0.1-0.1l0.3-0.2
		l0.4-0.1l0.8-0.1l0.5,0.1l0.1,0l0.1-0.1l0.2-0.3l0.1-0.1l0.2-0.1l0.2,0l0.2,0l0.1,0l0.1-0.1l0.1,0l0.1,0l0.9,0.6l0.3,0l0.3-0.3
		l0.1-0.2l0.1-0.3l0.1-0.6l0.1-0.1l0.1,0l0.1,0l0.1,0.1l0.1,0l0.1,0l0.1,0l0.1,0l0,0l0.3-0.1l0.5,0l0.2-0.2l0.1-0.3l0.3-0.9l0.2,0
		l0.2,0.1l0.2,0.1l0.2-0.1l0.1-0.3l0.1-0.1l0.4-0.3l0.1-0.1l0-0.1l0,0l0.1,0l0.1,0.1l0.1,0.2l0.1,0.1l0.2,0.1l0.2,0l0.2-0.2l0.2-0.2
		l0.1-0.1l0.1-0.1l0-0.1l-0.1-0.1l0.2-0.1l0.1-0.2l0-0.2l-0.1-0.2l0.4-0.2l0.5-0.1l0.9,0l0.2,0l0.4-0.1l0.2,0l0.5,0.1l0.2,0l0.3-0.2
		l0.1,0l0.1,0l0.1-0.1l0-0.1l0-0.1l0-0.1l0-0.2l0.1-0.1l0.1,0l0.1,0l0.1,0l0.1-0.1l0.2-0.2l0.1-0.1l0.2,0l0.4,0l0.2,0l1.6-0.7
		l0.1-0.1l0.2-0.3l0.1-0.1l0.4-0.1l0.8,0.1l0.3-0.2l0.1-0.4l-0.3-0.2l-0.4-0.1l-0.3-0.3l0-0.2l0.1-0.1l0,0l-0.2-0.1l-0.3,0l-0.1-0.1
		l0.1-0.2l0.1-0.5l0.2-0.2l0.3-0.1l0.4,0.1l0.1,0.1l0.1,0.1l0.1,0.1l0.1,0.1l0.1,0l0.3-0.1l0.4,0l0.1-0.1l0.1-0.2l0.1,0.1l0,0.1
		l0,0.1l0.1,0.1l0.1,0.1l0.3,0.1l0.1,0.1l0.1,0.1l0.1,0.1l0,0.2l0,0.2l-0.1,0.2l-0.1,0.2l-0.1,0.2l0.1,0.1l0.6-0.2l0.1,0l0.1,0.2
		l-0.1,0.2l-0.2,0.4l0,0.3l0,0.1l0.3,0.1l0.1,0.1l0.4,0.3l0.4,0.1l0.2,0l0.2,0l0.1-0.1l0.1-0.2l0.2-0.4l0-0.3l0.1-0.2l0.4-0.4
		l0.5-1.2l0.4-1.1l0-0.2v-0.3l0-0.2l0.1-0.1l0.1-0.1l0.1-0.1l0-0.2l0-0.4l0.1-0.4l0.1-0.4L180.9,99.9L180.9,99.9z"/>
	<g>
		<path class="st1" d="M209.9,25.6h-0.7v-4.9l-2,4.9h-0.3l-2-4.9v4.9h-0.7v-6h1.1l1.9,4.5l1.9-4.5h1.1V25.6z"/>
		<path class="st1" d="M214.7,25.6H214v-0.5c-0.4,0.4-0.8,0.6-1.4,0.6c-0.4,0-0.8-0.1-1.1-0.4c-0.3-0.3-0.5-0.6-0.5-1.1
			c0-0.5,0.2-0.8,0.5-1.1c0.3-0.2,0.7-0.4,1.1-0.4c0.6,0,1.1,0.2,1.4,0.6v-0.8c0-0.3-0.1-0.5-0.3-0.7c-0.2-0.2-0.5-0.2-0.8-0.2
			c-0.5,0-1,0.2-1.3,0.6l-0.3-0.5c0.5-0.5,1-0.7,1.7-0.7c0.5,0,0.9,0.1,1.2,0.4c0.3,0.2,0.5,0.6,0.5,1.1V25.6z M212.8,25.2
			c0.5,0,0.9-0.2,1.2-0.5v-0.8c-0.3-0.4-0.7-0.5-1.2-0.5c-0.3,0-0.6,0.1-0.8,0.3c-0.2,0.2-0.3,0.4-0.3,0.7c0,0.3,0.1,0.5,0.3,0.7
			C212.3,25.1,212.5,25.2,212.8,25.2z"/>
		<path class="st1" d="M218,25.7c-0.6,0-1.2-0.2-1.6-0.7s-0.6-1-0.6-1.6s0.2-1.2,0.6-1.6s0.9-0.6,1.6-0.6c0.7,0,1.2,0.3,1.6,0.8
			l-0.5,0.4c-0.3-0.4-0.6-0.6-1.1-0.6c-0.5,0-0.8,0.2-1.1,0.5c-0.3,0.3-0.4,0.7-0.4,1.2s0.1,0.9,0.4,1.2c0.3,0.3,0.6,0.5,1.1,0.5
			c0.5,0,0.8-0.2,1.1-0.6l0.5,0.4C219.2,25.4,218.6,25.7,218,25.7z"/>
		<path class="st1" d="M222.5,25.7c-0.6,0-1.2-0.2-1.6-0.6c-0.4-0.4-0.6-1-0.6-1.7c0-0.6,0.2-1.2,0.6-1.6c0.4-0.4,0.9-0.7,1.5-0.7
			c0.6,0,1.2,0.2,1.5,0.7s0.6,1,0.6,1.7v0.2H221c0,0.4,0.2,0.8,0.5,1.1c0.3,0.3,0.6,0.4,1.1,0.4c0.5,0,1-0.2,1.3-0.5l0.3,0.4
			C223.7,25.5,223.2,25.7,222.5,25.7z M223.8,23.1c0-0.4-0.1-0.7-0.4-1s-0.6-0.4-1.1-0.4c-0.4,0-0.8,0.1-1,0.4
			c-0.2,0.3-0.4,0.6-0.4,1H223.8z"/>
		<path class="st1" d="M229.4,25.6h-0.7v-0.6c-0.4,0.5-0.9,0.8-1.5,0.8c-0.6,0-1-0.2-1.4-0.6c-0.4-0.4-0.5-1-0.5-1.7
			c0-0.7,0.2-1.2,0.5-1.7c0.4-0.4,0.8-0.6,1.4-0.6c0.6,0,1.1,0.3,1.5,0.8v-2.3h0.7V25.6z M227.4,25.1c0.3,0,0.5-0.1,0.8-0.2
			c0.2-0.1,0.4-0.3,0.5-0.5v-2c-0.1-0.2-0.3-0.4-0.6-0.5c-0.2-0.1-0.5-0.2-0.8-0.2c-0.4,0-0.8,0.2-1,0.5s-0.4,0.7-0.4,1.2
			s0.1,0.9,0.4,1.2C226.6,24.9,227,25.1,227.4,25.1z"/>
		<path class="st1" d="M234.2,25c-0.4,0.4-0.9,0.7-1.6,0.7c-0.6,0-1.2-0.2-1.6-0.7c-0.4-0.4-0.6-1-0.6-1.6s0.2-1.2,0.6-1.6
			c0.4-0.4,0.9-0.7,1.6-0.7c0.6,0,1.2,0.2,1.6,0.7c0.4,0.4,0.6,1,0.6,1.6S234.6,24.6,234.2,25z M231.6,24.6c0.3,0.3,0.6,0.5,1.1,0.5
			s0.8-0.2,1.1-0.5c0.3-0.3,0.4-0.7,0.4-1.2c0-0.5-0.1-0.9-0.4-1.2s-0.6-0.5-1.1-0.5s-0.8,0.2-1.1,0.5c-0.3,0.3-0.4,0.7-0.4,1.2
			C231.2,23.9,231.3,24.3,231.6,24.6z"/>
		<path class="st1" d="M239.5,25.6h-0.7v-2.8c0-0.4-0.1-0.6-0.3-0.8s-0.4-0.2-0.7-0.2c-0.3,0-0.5,0.1-0.7,0.2
			c-0.2,0.1-0.4,0.3-0.6,0.5v3.2h-0.7v-4.3h0.7v0.6c0.2-0.2,0.4-0.4,0.7-0.5c0.3-0.1,0.6-0.2,0.9-0.2c0.9,0,1.4,0.5,1.4,1.4V25.6z"
			/>
		<path class="st1" d="M241.2,20.6c-0.1,0-0.2,0-0.3-0.1c-0.1-0.1-0.1-0.2-0.1-0.3c0-0.1,0-0.2,0.1-0.3c0.1-0.1,0.2-0.1,0.3-0.1
			c0.1,0,0.2,0,0.3,0.1c0.1,0.1,0.1,0.2,0.1,0.3c0,0.1,0,0.2-0.1,0.3C241.4,20.6,241.3,20.6,241.2,20.6z M241.5,25.6h-0.7v-4.3h0.7
			V25.6z"/>
		<path class="st1" d="M246.3,25.6h-0.7v-0.5c-0.4,0.4-0.8,0.6-1.4,0.6c-0.4,0-0.8-0.1-1.1-0.4c-0.3-0.3-0.5-0.6-0.5-1.1
			c0-0.5,0.2-0.8,0.5-1.1c0.3-0.2,0.7-0.4,1.1-0.4c0.6,0,1.1,0.2,1.4,0.6v-0.8c0-0.3-0.1-0.5-0.3-0.7s-0.5-0.2-0.8-0.2
			c-0.5,0-1,0.2-1.3,0.6l-0.3-0.5c0.5-0.5,1-0.7,1.7-0.7c0.5,0,0.9,0.1,1.2,0.4c0.3,0.2,0.5,0.6,0.5,1.1V25.6z M244.4,25.2
			c0.5,0,0.9-0.2,1.2-0.5v-0.8c-0.3-0.4-0.7-0.5-1.2-0.5c-0.3,0-0.6,0.1-0.8,0.3c-0.2,0.2-0.3,0.4-0.3,0.7c0,0.3,0.1,0.5,0.3,0.7
			C243.8,25.1,244.1,25.2,244.4,25.2z"/>
	</g>
	<g>
		<path class="st1" d="M209.2,72h-0.9l-0.5-1.3h-3l-0.5,1.3h-0.9l2.4-6h0.9L209.2,72z M207.6,70l-1.3-3.2L205,70H207.6z"/>
		<path class="st1" d="M210.6,72h-0.7v-6h0.7V72z"/>
		<path class="st1" d="M212.6,72H212v-6h0.7v2.3c0.4-0.5,0.9-0.8,1.5-0.8c0.6,0,1,0.2,1.4,0.6c0.4,0.4,0.5,1,0.5,1.7
			c0,0.7-0.2,1.2-0.5,1.7c-0.4,0.4-0.8,0.6-1.4,0.6c-0.6,0-1.1-0.3-1.5-0.8V72z M212.6,70.9c0.1,0.2,0.3,0.4,0.5,0.5
			c0.2,0.1,0.5,0.2,0.8,0.2c0.4,0,0.8-0.2,1-0.5c0.3-0.3,0.4-0.7,0.4-1.2s-0.1-0.9-0.4-1.2c-0.3-0.3-0.6-0.5-1-0.5
			c-0.3,0-0.5,0.1-0.8,0.2c-0.2,0.1-0.4,0.3-0.5,0.5V70.9z"/>
		<path class="st1" d="M220.5,72h-0.7v-0.5c-0.4,0.4-0.8,0.6-1.4,0.6c-0.4,0-0.8-0.1-1.1-0.4c-0.3-0.3-0.5-0.6-0.5-1.1
			c0-0.5,0.2-0.8,0.5-1.1c0.3-0.2,0.7-0.4,1.1-0.4c0.6,0,1.1,0.2,1.4,0.6v-0.8c0-0.3-0.1-0.5-0.3-0.7c-0.2-0.2-0.5-0.2-0.8-0.2
			c-0.5,0-1,0.2-1.3,0.6l-0.3-0.5c0.5-0.5,1-0.7,1.7-0.7c0.5,0,0.9,0.1,1.2,0.4s0.5,0.6,0.5,1.1V72z M218.7,71.7
			c0.5,0,0.9-0.2,1.2-0.5v-0.8c-0.3-0.4-0.7-0.5-1.2-0.5c-0.3,0-0.6,0.1-0.8,0.3c-0.2,0.2-0.3,0.4-0.3,0.7c0,0.3,0.1,0.5,0.3,0.7
			C218.1,71.6,218.4,71.7,218.7,71.7z"/>
		<path class="st1" d="M225.5,72h-0.7v-2.8c0-0.4-0.1-0.6-0.3-0.8c-0.2-0.2-0.4-0.2-0.7-0.2c-0.3,0-0.5,0.1-0.7,0.2
			c-0.2,0.1-0.4,0.3-0.6,0.5V72h-0.7v-4.3h0.7v0.6c0.2-0.2,0.4-0.4,0.7-0.5c0.3-0.1,0.6-0.2,0.9-0.2c0.9,0,1.4,0.5,1.4,1.4V72z"/>
		<path class="st1" d="M227.2,67.1c-0.1,0-0.2,0-0.3-0.1c-0.1-0.1-0.1-0.2-0.1-0.3s0-0.2,0.1-0.3c0.1-0.1,0.2-0.1,0.3-0.1
			c0.1,0,0.2,0,0.3,0.1c0.1,0.1,0.1,0.2,0.1,0.3s0,0.2-0.1,0.3C227.4,67,227.3,67.1,227.2,67.1z M227.5,72h-0.7v-4.3h0.7V72z"/>
		<path class="st1" d="M232.3,72h-0.7v-0.5c-0.4,0.4-0.8,0.6-1.4,0.6c-0.4,0-0.8-0.1-1.1-0.4c-0.3-0.3-0.5-0.6-0.5-1.1
			c0-0.5,0.2-0.8,0.5-1.1c0.3-0.2,0.7-0.4,1.1-0.4c0.6,0,1.1,0.2,1.4,0.6v-0.8c0-0.3-0.1-0.5-0.3-0.7s-0.5-0.2-0.8-0.2
			c-0.5,0-1,0.2-1.3,0.6l-0.3-0.5c0.5-0.5,1-0.7,1.7-0.7c0.5,0,0.9,0.1,1.2,0.4c0.3,0.2,0.5,0.6,0.5,1.1V72z M230.4,71.7
			c0.5,0,0.9-0.2,1.2-0.5v-0.8c-0.3-0.4-0.7-0.5-1.2-0.5c-0.3,0-0.6,0.1-0.8,0.3c-0.2,0.2-0.3,0.4-0.3,0.7c0,0.3,0.1,0.5,0.3,0.7
			C229.8,71.6,230.1,71.7,230.4,71.7z"/>
	</g>
	<g>
		<path class="st1" d="M206,107.9c-1,0-1.7-0.3-2.3-1l0.4-0.6c0.5,0.6,1.1,0.9,1.9,0.9c0.5,0,0.8-0.1,1.1-0.3s0.3-0.4,0.3-0.7
			c0-0.2-0.1-0.4-0.2-0.5c-0.1-0.1-0.3-0.3-0.5-0.3s-0.4-0.2-0.7-0.2s-0.5-0.1-0.8-0.2c-0.3-0.1-0.5-0.2-0.7-0.3
			c-0.2-0.1-0.4-0.3-0.5-0.5c-0.1-0.2-0.2-0.5-0.2-0.7c0-0.5,0.2-0.9,0.6-1.2c0.4-0.3,0.9-0.5,1.5-0.5c0.9,0,1.6,0.3,2.1,0.8
			l-0.5,0.5c-0.4-0.5-1-0.7-1.7-0.7c-0.4,0-0.7,0.1-0.9,0.3s-0.3,0.4-0.3,0.7c0,0.2,0.1,0.4,0.3,0.5c0.2,0.1,0.4,0.2,0.7,0.3
			c0.3,0.1,0.5,0.1,0.9,0.2c0.3,0.1,0.6,0.2,0.9,0.3s0.5,0.3,0.7,0.5c0.2,0.2,0.3,0.5,0.3,0.9c0,0.5-0.2,0.9-0.5,1.3
			C207.3,107.7,206.7,107.9,206,107.9z"/>
		<path class="st1" d="M211.3,107.9c-0.6,0-1.2-0.2-1.6-0.6s-0.6-1-0.6-1.7c0-0.6,0.2-1.2,0.6-1.6c0.4-0.4,0.9-0.7,1.5-0.7
			c0.6,0,1.2,0.2,1.5,0.7c0.4,0.4,0.6,1,0.6,1.7v0.2h-3.5c0,0.4,0.2,0.8,0.5,1.1c0.3,0.3,0.6,0.4,1.1,0.4c0.5,0,1-0.2,1.3-0.5
			l0.3,0.4C212.5,107.6,212,107.9,211.3,107.9z M212.6,105.3c0-0.4-0.1-0.7-0.4-1s-0.6-0.4-1.1-0.4c-0.4,0-0.8,0.1-1,0.4
			s-0.4,0.6-0.4,1H212.6z"/>
		<path class="st1" d="M215,107.8h-0.7v-4.3h0.7v0.7c0.4-0.5,0.9-0.8,1.4-0.8v0.7c-0.1,0-0.2,0-0.3,0c-0.2,0-0.4,0.1-0.7,0.2
			c-0.2,0.1-0.4,0.3-0.5,0.5V107.8z"/>
		<path class="st1" d="M218,107.8h-0.7v-6h0.7v2.3c0.4-0.5,0.9-0.8,1.5-0.8c0.6,0,1,0.2,1.4,0.6s0.5,1,0.5,1.7
			c0,0.7-0.2,1.2-0.5,1.7c-0.4,0.4-0.8,0.6-1.4,0.6c-0.6,0-1.1-0.3-1.5-0.8V107.8z M218,106.6c0.1,0.2,0.3,0.4,0.5,0.5
			s0.5,0.2,0.8,0.2c0.4,0,0.8-0.2,1-0.5c0.3-0.3,0.4-0.7,0.4-1.2s-0.1-0.9-0.4-1.2c-0.3-0.3-0.6-0.5-1-0.5c-0.3,0-0.5,0.1-0.8,0.2
			s-0.4,0.3-0.5,0.5V106.6z"/>
		<path class="st1" d="M222.8,102.8c-0.1,0-0.2,0-0.3-0.1c-0.1-0.1-0.1-0.2-0.1-0.3s0-0.2,0.1-0.3c0.1-0.1,0.2-0.1,0.3-0.1
			c0.1,0,0.2,0,0.3,0.1c0.1,0.1,0.1,0.2,0.1,0.3s0,0.2-0.1,0.3C223.1,102.8,223,102.8,222.8,102.8z M223.2,107.8h-0.7v-4.3h0.7
			V107.8z"/>
		<path class="st1" d="M227.9,107.8h-0.7v-0.5c-0.4,0.4-0.8,0.6-1.4,0.6c-0.4,0-0.8-0.1-1.1-0.4c-0.3-0.3-0.5-0.6-0.5-1.1
			c0-0.5,0.2-0.8,0.5-1.1c0.3-0.2,0.7-0.4,1.1-0.4c0.6,0,1.1,0.2,1.4,0.6v-0.8c0-0.3-0.1-0.5-0.3-0.7c-0.2-0.2-0.5-0.2-0.8-0.2
			c-0.5,0-1,0.2-1.3,0.6l-0.3-0.5c0.5-0.5,1-0.7,1.7-0.7c0.5,0,0.9,0.1,1.2,0.4s0.5,0.6,0.5,1.1V107.8z M226.1,107.4
			c0.5,0,0.9-0.2,1.2-0.5V106c-0.3-0.4-0.7-0.5-1.2-0.5c-0.3,0-0.6,0.1-0.8,0.3c-0.2,0.2-0.3,0.4-0.3,0.7c0,0.3,0.1,0.5,0.3,0.7
			C225.5,107.3,225.7,107.4,226.1,107.4z"/>
	</g>
	<g>
		<path class="st1" d="M208.6,146.1h-0.9l-2.3-2.7l-0.6,0.7v2h-0.7v-6h0.7v3.1l2.7-3.1h0.9l-2.5,2.9L208.6,146.1z"/>
		<path class="st1" d="M212.6,145.5c-0.4,0.4-0.9,0.7-1.6,0.7s-1.2-0.2-1.6-0.7c-0.4-0.4-0.6-1-0.6-1.6s0.2-1.2,0.6-1.6
			c0.4-0.4,0.9-0.7,1.6-0.7s1.2,0.2,1.6,0.7c0.4,0.4,0.6,1,0.6,1.6S213,145.1,212.6,145.5z M210,145.1c0.3,0.3,0.6,0.5,1.1,0.5
			c0.4,0,0.8-0.2,1.1-0.5s0.4-0.7,0.4-1.2s-0.1-0.9-0.4-1.2c-0.3-0.3-0.6-0.5-1.1-0.5c-0.4,0-0.8,0.2-1.1,0.5
			c-0.3,0.3-0.4,0.7-0.4,1.2C209.6,144.4,209.7,144.8,210,145.1z"/>
		<path class="st1" d="M215.7,146.2c-0.7,0-1.3-0.2-1.8-0.7l0.4-0.5c0.1,0.2,0.4,0.3,0.6,0.4c0.3,0.1,0.5,0.2,0.8,0.2
			c0.3,0,0.6-0.1,0.8-0.2c0.2-0.1,0.3-0.3,0.3-0.5c0-0.2-0.1-0.3-0.3-0.5c-0.2-0.1-0.4-0.2-0.7-0.3c-0.3-0.1-0.5-0.1-0.8-0.2
			c-0.3-0.1-0.5-0.2-0.7-0.4c-0.2-0.2-0.3-0.4-0.3-0.7c0-0.4,0.1-0.7,0.4-0.9s0.7-0.4,1.2-0.4c0.7,0,1.2,0.2,1.6,0.6l-0.3,0.5
			c-0.3-0.4-0.7-0.5-1.3-0.5c-0.3,0-0.5,0.1-0.7,0.2s-0.3,0.3-0.3,0.5c0,0.2,0.1,0.3,0.3,0.4c0.2,0.1,0.4,0.2,0.7,0.2
			s0.5,0.1,0.8,0.2c0.3,0.1,0.5,0.2,0.7,0.4c0.2,0.2,0.3,0.4,0.3,0.8c0,0.4-0.2,0.7-0.4,0.9C216.6,146.1,216.2,146.2,215.7,146.2z"
			/>
		<path class="st1" d="M221.9,145.5c-0.4,0.4-0.9,0.7-1.6,0.7c-0.6,0-1.2-0.2-1.6-0.7c-0.4-0.4-0.6-1-0.6-1.6s0.2-1.2,0.6-1.6
			c0.4-0.4,0.9-0.7,1.6-0.7c0.6,0,1.2,0.2,1.6,0.7c0.4,0.4,0.6,1,0.6,1.6S222.3,145.1,221.9,145.5z M219.3,145.1
			c0.3,0.3,0.6,0.5,1.1,0.5c0.4,0,0.8-0.2,1.1-0.5s0.4-0.7,0.4-1.2s-0.1-0.9-0.4-1.2c-0.3-0.3-0.6-0.5-1.1-0.5
			c-0.4,0-0.8,0.2-1.1,0.5c-0.3,0.3-0.4,0.7-0.4,1.2C218.9,144.4,219,144.8,219.3,145.1z"/>
		<path class="st1" d="M225.5,146.1h-0.7l-1.8-4.3h0.7l1.4,3.6l1.4-3.6h0.7L225.5,146.1z"/>
		<path class="st1" d="M231.5,145.5c-0.4,0.4-0.9,0.7-1.6,0.7c-0.6,0-1.2-0.2-1.6-0.7c-0.4-0.4-0.6-1-0.6-1.6s0.2-1.2,0.6-1.6
			c0.4-0.4,0.9-0.7,1.6-0.7c0.6,0,1.2,0.2,1.6,0.7c0.4,0.4,0.6,1,0.6,1.6S231.9,145.1,231.5,145.5z M228.9,145.1
			c0.3,0.3,0.6,0.5,1.1,0.5s0.8-0.2,1.1-0.5s0.4-0.7,0.4-1.2s-0.1-0.9-0.4-1.2c-0.3-0.3-0.6-0.5-1.1-0.5s-0.8,0.2-1.1,0.5
			c-0.3,0.3-0.4,0.7-0.4,1.2C228.5,144.4,228.6,144.8,228.9,145.1z"/>
	</g>
	<g>
		<path class="st1" d="M45.7,37.7h-3.9v-6h3.9v0.7h-3.2v1.9h3.1V35h-3.1V37h3.2V37.7z"/>
		<path class="st1" d="M47.5,37.7h-0.7v-4.3h0.7v0.7c0.4-0.5,0.9-0.8,1.4-0.8V34c-0.1,0-0.2,0-0.3,0c-0.2,0-0.4,0.1-0.7,0.2
			c-0.2,0.1-0.4,0.3-0.5,0.5V37.7z"/>
		<path class="st1" d="M50.2,32.7c-0.1,0-0.2,0-0.3-0.1c-0.1-0.1-0.1-0.2-0.1-0.3s0-0.2,0.1-0.3c0.1-0.1,0.2-0.1,0.3-0.1
			c0.1,0,0.2,0,0.3,0.1c0.1,0.1,0.1,0.2,0.1,0.3s0,0.2-0.1,0.3C50.4,32.7,50.3,32.7,50.2,32.7z M50.5,37.7h-0.7v-4.3h0.7V37.7z"/>
		<path class="st1" d="M52.9,37.8c-0.3,0-0.6-0.1-0.7-0.3c-0.2-0.2-0.2-0.4-0.2-0.8V34h-0.7v-0.6H52v-1.2h0.7v1.2h0.9V34h-0.9v2.7
			c0,0.2,0,0.3,0.1,0.4c0.1,0.1,0.2,0.2,0.3,0.2c0.2,0,0.4-0.1,0.5-0.2l0.2,0.5C53.6,37.7,53.3,37.8,52.9,37.8z"/>
		<path class="st1" d="M55.2,37.7h-0.7v-4.3h0.7v0.7c0.4-0.5,0.9-0.8,1.4-0.8V34c-0.1,0-0.2,0-0.3,0c-0.2,0-0.4,0.1-0.7,0.2
			c-0.2,0.1-0.4,0.3-0.5,0.5V37.7z"/>
		<path class="st1" d="M59.4,37.8c-0.6,0-1.2-0.2-1.6-0.6s-0.6-1-0.6-1.7c0-0.6,0.2-1.2,0.6-1.6c0.4-0.4,0.9-0.7,1.5-0.7
			c0.6,0,1.2,0.2,1.5,0.7c0.4,0.4,0.6,1,0.6,1.7v0.2h-3.5c0,0.4,0.2,0.8,0.5,1.1c0.3,0.3,0.6,0.4,1.1,0.4c0.5,0,1-0.2,1.3-0.5
			l0.3,0.4C60.7,37.6,60.1,37.8,59.4,37.8z M60.8,35.3c0-0.4-0.1-0.7-0.4-1s-0.6-0.4-1.1-0.4c-0.4,0-0.8,0.1-1,0.4
			c-0.2,0.3-0.4,0.6-0.4,1H60.8z"/>
		<path class="st1" d="M65.9,37.7h-0.7v-0.5c-0.4,0.4-0.8,0.6-1.4,0.6c-0.4,0-0.8-0.1-1.1-0.4c-0.3-0.3-0.5-0.6-0.5-1.1
			c0-0.5,0.2-0.8,0.5-1.1c0.3-0.2,0.7-0.4,1.1-0.4c0.6,0,1.1,0.2,1.4,0.6v-0.8c0-0.3-0.1-0.5-0.3-0.7c-0.2-0.2-0.5-0.2-0.8-0.2
			c-0.5,0-1,0.2-1.3,0.6L62.5,34c0.5-0.5,1-0.7,1.7-0.7c0.5,0,0.9,0.1,1.2,0.4s0.5,0.6,0.5,1.1V37.7z M64.1,37.3
			c0.5,0,0.9-0.2,1.2-0.5V36c-0.3-0.4-0.7-0.5-1.2-0.5c-0.3,0-0.6,0.1-0.8,0.3c-0.2,0.2-0.3,0.4-0.3,0.7c0,0.3,0.1,0.5,0.3,0.7
			C63.5,37.2,63.7,37.3,64.1,37.3z"/>
	</g>
	<g>
		<path class="st1" d="M129.5,8.1h-0.7v-6h0.7V8.1z"/>
		<path class="st1" d="M131.6,8.1h-0.7V3.8h0.7v0.7c0.4-0.5,0.9-0.8,1.4-0.8v0.7c-0.1,0-0.2,0-0.3,0c-0.2,0-0.4,0.1-0.7,0.2
			c-0.2,0.1-0.4,0.3-0.5,0.5V8.1z"/>
		<path class="st1" d="M137.2,8.1h-0.7V7.6c-0.4,0.4-0.8,0.6-1.4,0.6c-0.4,0-0.8-0.1-1.1-0.4c-0.3-0.3-0.5-0.6-0.5-1.1
			c0-0.5,0.2-0.8,0.5-1.1c0.3-0.2,0.7-0.4,1.1-0.4c0.6,0,1.1,0.2,1.4,0.6V5.2c0-0.3-0.1-0.5-0.3-0.7c-0.2-0.2-0.5-0.2-0.8-0.2
			c-0.5,0-1,0.2-1.3,0.6l-0.3-0.5c0.5-0.5,1-0.7,1.7-0.7c0.5,0,0.9,0.1,1.2,0.4s0.5,0.6,0.5,1.1V8.1z M135.4,7.7
			c0.5,0,0.9-0.2,1.2-0.5V6.4c-0.3-0.4-0.7-0.5-1.2-0.5c-0.3,0-0.6,0.1-0.8,0.3c-0.2,0.2-0.3,0.4-0.3,0.7c0,0.3,0.1,0.5,0.3,0.7
			C134.8,7.7,135.1,7.7,135.4,7.7z"/>
		<path class="st1" d="M140.2,8.2c-0.6,0-1-0.2-1.4-0.6c-0.4-0.4-0.5-1-0.5-1.7s0.2-1.2,0.5-1.7c0.4-0.4,0.8-0.6,1.4-0.6
			c0.3,0,0.6,0.1,0.8,0.2c0.3,0.1,0.5,0.3,0.6,0.5V3.8h0.7v6h-0.7V7.5C141.3,8,140.9,8.2,140.2,8.2z M140.4,7.6
			c0.3,0,0.5-0.1,0.8-0.2s0.4-0.3,0.5-0.5V5c-0.1-0.2-0.3-0.4-0.5-0.5s-0.5-0.2-0.8-0.2c-0.4,0-0.8,0.2-1,0.5
			C139.1,5,139,5.5,139,5.9s0.1,0.9,0.4,1.2C139.6,7.5,140,7.6,140.4,7.6z"/>
	</g>
	<g>
		<path class="st1" d="M49.9,171.2c-1,0-1.7-0.3-2.3-1l0.4-0.6c0.5,0.6,1.1,0.9,1.9,0.9c0.5,0,0.8-0.1,1.1-0.3s0.3-0.4,0.3-0.7
			c0-0.2-0.1-0.4-0.2-0.5c-0.1-0.1-0.3-0.3-0.5-0.3s-0.4-0.2-0.7-0.2s-0.5-0.1-0.8-0.2c-0.3-0.1-0.5-0.2-0.7-0.3
			c-0.2-0.1-0.4-0.3-0.5-0.5c-0.1-0.2-0.2-0.5-0.2-0.7c0-0.5,0.2-0.9,0.6-1.2c0.4-0.3,0.9-0.5,1.5-0.5c0.9,0,1.6,0.3,2.1,0.8
			l-0.5,0.5c-0.4-0.5-1-0.7-1.7-0.7c-0.4,0-0.7,0.1-0.9,0.3s-0.3,0.4-0.3,0.7c0,0.2,0.1,0.4,0.3,0.5c0.2,0.1,0.4,0.2,0.7,0.3
			c0.3,0.1,0.5,0.1,0.9,0.2c0.3,0.1,0.6,0.2,0.9,0.3s0.5,0.3,0.7,0.5c0.2,0.2,0.3,0.5,0.3,0.9c0,0.5-0.2,0.9-0.5,1.3
			C51.2,171.1,50.6,171.2,49.9,171.2z"/>
		<path class="st1" d="M52.9,172.8l0.1-0.6c0.1,0,0.2,0.1,0.4,0.1c0.2,0,0.3,0,0.4-0.1c0.1-0.1,0.2-0.2,0.3-0.4l0.3-0.7l-1.8-4.4
			h0.7l1.4,3.6l1.4-3.6h0.7l-2.2,5.2c-0.2,0.6-0.7,0.9-1.3,0.9C53.2,172.9,53,172.9,52.9,172.8z"/>
		<path class="st1" d="M58.2,171.1h-0.7v-4.3h0.7v0.7c0.4-0.5,0.9-0.8,1.4-0.8v0.7c-0.1,0-0.2,0-0.3,0c-0.2,0-0.4,0.1-0.7,0.2
			c-0.2,0.1-0.4,0.3-0.5,0.5V171.1z"/>
		<path class="st1" d="M60.8,166.2c-0.1,0-0.2,0-0.3-0.1c-0.1-0.1-0.1-0.2-0.1-0.3s0-0.2,0.1-0.3c0.1-0.1,0.2-0.1,0.3-0.1
			c0.1,0,0.2,0,0.3,0.1c0.1,0.1,0.1,0.2,0.1,0.3s0,0.2-0.1,0.3C61.1,166.1,61,166.2,60.8,166.2z M61.2,171.1h-0.7v-4.3h0.7V171.1z"
			/>
		<path class="st1" d="M65.9,171.1h-0.7v-0.5c-0.4,0.4-0.8,0.6-1.4,0.6c-0.4,0-0.8-0.1-1.1-0.4c-0.3-0.3-0.5-0.6-0.5-1.1
			c0-0.5,0.2-0.8,0.5-1.1c0.3-0.2,0.7-0.4,1.1-0.4c0.6,0,1.1,0.2,1.4,0.6v-0.8c0-0.3-0.1-0.5-0.3-0.7c-0.2-0.2-0.5-0.2-0.8-0.2
			c-0.5,0-1,0.2-1.3,0.6l-0.3-0.5c0.5-0.5,1-0.7,1.7-0.7c0.5,0,0.9,0.1,1.2,0.4s0.5,0.6,0.5,1.1V171.1z M64.1,170.7
			c0.5,0,0.9-0.2,1.2-0.5v-0.8c-0.3-0.4-0.7-0.5-1.2-0.5c-0.3,0-0.6,0.1-0.8,0.3c-0.2,0.2-0.3,0.4-0.3,0.7c0,0.3,0.1,0.5,0.3,0.7
			C63.5,170.7,63.7,170.7,64.1,170.7z"/>
	</g>
	<g>
		<path class="st1" d="M25.7,71.6h-0.9l-0.5-1.3h-3l-0.5,1.3h-0.9l2.4-6h0.9L25.7,71.6z M24,69.6l-1.3-3.2l-1.3,3.2H24z"/>
		<path class="st1" d="M27.2,71.6h-0.7v-3.8h-0.7v-0.6h0.7v-0.3c0-0.4,0.1-0.8,0.3-1c0.2-0.2,0.5-0.4,0.9-0.4c0.4,0,0.7,0.1,0.9,0.3
			l-0.3,0.4c-0.2-0.1-0.3-0.2-0.5-0.2c-0.2,0-0.4,0.1-0.5,0.2c-0.1,0.1-0.2,0.4-0.2,0.6v0.3h0.9v0.6h-0.9V71.6z"/>
		<path class="st1" d="M30.6,73.3c-0.4,0-0.7,0-1-0.1c-0.3-0.1-0.5-0.3-0.8-0.5l0.3-0.5c0.3,0.4,0.8,0.6,1.4,0.6
			c0.4,0,0.7-0.1,1-0.3c0.3-0.2,0.4-0.5,0.4-1v-0.6c-0.2,0.2-0.4,0.4-0.6,0.6c-0.3,0.1-0.5,0.2-0.8,0.2c-0.6,0-1-0.2-1.4-0.6
			c-0.4-0.4-0.5-1-0.5-1.6s0.2-1.2,0.5-1.6c0.4-0.4,0.8-0.6,1.4-0.6c0.6,0,1.1,0.3,1.5,0.8v-0.7h0.7v4.2c0,0.7-0.2,1.1-0.6,1.4
			C31.7,73.2,31.2,73.3,30.6,73.3z M30.7,71c0.3,0,0.5-0.1,0.8-0.2c0.2-0.1,0.4-0.3,0.5-0.5v-1.9c-0.1-0.2-0.3-0.4-0.5-0.5
			c-0.2-0.1-0.5-0.2-0.8-0.2c-0.4,0-0.8,0.2-1,0.5s-0.4,0.7-0.4,1.2c0,0.5,0.1,0.9,0.4,1.2S30.3,71,30.7,71z"/>
		<path class="st1" d="M37.7,71.6H37v-2.9c0-0.4-0.1-0.6-0.3-0.8c-0.2-0.1-0.4-0.2-0.7-0.2c-0.2,0-0.5,0.1-0.7,0.2s-0.4,0.3-0.6,0.5
			v3.2H34v-6h0.7v2.3c0.2-0.2,0.4-0.4,0.7-0.5c0.3-0.1,0.6-0.2,0.9-0.2c0.9,0,1.4,0.5,1.4,1.4V71.6z"/>
		<path class="st1" d="M42.4,71.6h-0.7v-0.5c-0.4,0.4-0.8,0.6-1.4,0.6c-0.4,0-0.8-0.1-1.1-0.4c-0.3-0.3-0.5-0.6-0.5-1.1
			c0-0.5,0.2-0.8,0.5-1.1c0.3-0.2,0.7-0.4,1.1-0.4c0.6,0,1.1,0.2,1.4,0.6v-0.8c0-0.3-0.1-0.5-0.3-0.7c-0.2-0.2-0.5-0.2-0.8-0.2
			c-0.5,0-1,0.2-1.3,0.6L39,67.8c0.5-0.5,1-0.7,1.7-0.7c0.5,0,0.9,0.1,1.2,0.4c0.3,0.2,0.5,0.6,0.5,1.1V71.6z M40.5,71.2
			c0.5,0,0.9-0.2,1.2-0.5v-0.8c-0.3-0.4-0.7-0.5-1.2-0.5c-0.3,0-0.6,0.1-0.8,0.3c-0.2,0.2-0.3,0.4-0.3,0.7c0,0.3,0.1,0.5,0.3,0.7
			C40,71.1,40.2,71.2,40.5,71.2z"/>
		<path class="st1" d="M47.4,71.6h-0.7v-2.8c0-0.4-0.1-0.6-0.3-0.8s-0.4-0.2-0.7-0.2c-0.3,0-0.5,0.1-0.7,0.2
			c-0.2,0.1-0.4,0.3-0.6,0.5v3.2h-0.7v-4.3h0.7v0.6c0.2-0.2,0.4-0.4,0.7-0.5c0.3-0.1,0.6-0.2,0.9-0.2c0.9,0,1.4,0.5,1.4,1.4V71.6z"
			/>
		<path class="st1" d="M49,66.6c-0.1,0-0.2,0-0.3-0.1c-0.1-0.1-0.1-0.2-0.1-0.3c0-0.1,0-0.2,0.1-0.3c0.1-0.1,0.2-0.1,0.3-0.1
			c0.1,0,0.2,0,0.3,0.1c0.1,0.1,0.1,0.2,0.1,0.3c0,0.1,0,0.2-0.1,0.3C49.3,66.6,49.2,66.6,49,66.6z M49.4,71.6h-0.7v-4.3h0.7V71.6z"
			/>
		<path class="st1" d="M52.1,71.7c-0.7,0-1.3-0.2-1.8-0.7l0.4-0.5c0.1,0.2,0.4,0.3,0.6,0.4c0.3,0.1,0.5,0.2,0.8,0.2
			c0.3,0,0.6-0.1,0.8-0.2s0.3-0.3,0.3-0.5c0-0.2-0.1-0.3-0.3-0.5c-0.2-0.1-0.4-0.2-0.7-0.3c-0.3-0.1-0.5-0.1-0.8-0.2
			c-0.3-0.1-0.5-0.2-0.7-0.4c-0.2-0.2-0.3-0.4-0.3-0.7c0-0.4,0.1-0.7,0.4-0.9c0.3-0.2,0.7-0.4,1.2-0.4c0.7,0,1.2,0.2,1.6,0.6
			l-0.3,0.5c-0.3-0.4-0.7-0.5-1.3-0.5c-0.3,0-0.5,0.1-0.7,0.2s-0.3,0.3-0.3,0.5c0,0.2,0.1,0.3,0.3,0.4c0.2,0.1,0.4,0.2,0.7,0.2
			s0.5,0.1,0.8,0.2c0.3,0.1,0.5,0.2,0.7,0.4c0.2,0.2,0.3,0.4,0.3,0.8c0,0.4-0.2,0.7-0.4,0.9C53.1,71.6,52.7,71.7,52.1,71.7z"/>
		<path class="st1" d="M56,71.7c-0.3,0-0.6-0.1-0.7-0.3s-0.2-0.4-0.2-0.8v-2.8h-0.7v-0.6h0.7V66h0.7v1.2h0.9v0.6h-0.9v2.7
			c0,0.2,0,0.3,0.1,0.4c0.1,0.1,0.2,0.2,0.3,0.2c0.2,0,0.4-0.1,0.5-0.2l0.2,0.5C56.6,71.6,56.4,71.7,56,71.7z"/>
		<path class="st1" d="M61,71.6h-0.7v-0.5c-0.4,0.4-0.8,0.6-1.4,0.6c-0.4,0-0.8-0.1-1.1-0.4c-0.3-0.3-0.5-0.6-0.5-1.1
			c0-0.5,0.2-0.8,0.5-1.1c0.3-0.2,0.7-0.4,1.1-0.4c0.6,0,1.1,0.2,1.4,0.6v-0.8c0-0.3-0.1-0.5-0.3-0.7s-0.5-0.2-0.8-0.2
			c-0.5,0-1,0.2-1.3,0.6l-0.3-0.5c0.5-0.5,1-0.7,1.7-0.7c0.5,0,0.9,0.1,1.2,0.4c0.3,0.2,0.5,0.6,0.5,1.1V71.6z M59.1,71.2
			c0.5,0,0.9-0.2,1.2-0.5v-0.8c-0.3-0.4-0.7-0.5-1.2-0.5c-0.3,0-0.6,0.1-0.8,0.3C58.1,69.7,58,70,58,70.3c0,0.3,0.1,0.5,0.3,0.7
			C58.5,71.1,58.8,71.2,59.1,71.2z"/>
		<path class="st1" d="M65.9,71.6h-0.7v-2.8c0-0.4-0.1-0.6-0.3-0.8s-0.4-0.2-0.7-0.2c-0.3,0-0.5,0.1-0.7,0.2s-0.4,0.3-0.6,0.5v3.2
			h-0.7v-4.3H63v0.6c0.2-0.2,0.4-0.4,0.7-0.5c0.3-0.1,0.6-0.2,0.9-0.2c0.9,0,1.4,0.5,1.4,1.4V71.6z"/>
	</g>
	<g>
		<path class="st1" d="M53.2,105.8h-0.7v-6h0.7V105.8z"/>
		<path class="st1" d="M55.3,105.8h-0.7v-4.3h0.7v0.7c0.4-0.5,0.9-0.8,1.4-0.8v0.7c-0.1,0-0.2,0-0.3,0c-0.2,0-0.4,0.1-0.7,0.2
			c-0.2,0.1-0.4,0.3-0.5,0.5V105.8z"/>
		<path class="st1" d="M61,105.8h-0.7v-0.5c-0.4,0.4-0.8,0.6-1.4,0.6c-0.4,0-0.8-0.1-1.1-0.4s-0.5-0.6-0.5-1.1
			c0-0.5,0.2-0.8,0.5-1.1s0.7-0.4,1.1-0.4c0.6,0,1.1,0.2,1.4,0.6v-0.8c0-0.3-0.1-0.5-0.3-0.7c-0.2-0.2-0.5-0.2-0.8-0.2
			c-0.5,0-1,0.2-1.3,0.6l-0.3-0.5c0.5-0.5,1-0.7,1.7-0.7c0.5,0,0.9,0.1,1.2,0.4c0.3,0.2,0.5,0.6,0.5,1.1V105.8z M59.1,105.4
			c0.5,0,0.9-0.2,1.2-0.5V104c-0.3-0.4-0.7-0.5-1.2-0.5c-0.3,0-0.6,0.1-0.8,0.3c-0.2,0.2-0.3,0.4-0.3,0.7c0,0.3,0.1,0.5,0.3,0.7
			C58.5,105.3,58.8,105.4,59.1,105.4z"/>
		<path class="st1" d="M65.9,105.8h-0.7v-2.8c0-0.4-0.1-0.6-0.3-0.8c-0.2-0.2-0.4-0.2-0.7-0.2c-0.3,0-0.5,0.1-0.7,0.2
			c-0.2,0.1-0.4,0.3-0.6,0.5v3.2h-0.7v-4.3H63v0.6c0.2-0.2,0.4-0.4,0.7-0.5c0.3-0.1,0.6-0.2,0.9-0.2c0.9,0,1.4,0.5,1.4,1.4V105.8z"
			/>
	</g>
	<g>
		<path class="st1" d="M35,139.1h-0.7v-6h2.4c0.6,0,1,0.2,1.4,0.5c0.3,0.3,0.5,0.8,0.5,1.3s-0.2,0.9-0.5,1.3s-0.8,0.5-1.4,0.5H35
			V139.1z M36.6,136c0.4,0,0.6-0.1,0.9-0.3c0.2-0.2,0.3-0.5,0.3-0.8s-0.1-0.6-0.3-0.8c-0.2-0.2-0.5-0.3-0.9-0.3H35v2.3H36.6z"/>
		<path class="st1" d="M42.7,139.1h-0.7v-0.5c-0.4,0.4-0.8,0.6-1.4,0.6c-0.4,0-0.8-0.1-1.1-0.4s-0.5-0.6-0.5-1.1
			c0-0.5,0.2-0.8,0.5-1.1s0.7-0.4,1.1-0.4c0.6,0,1.1,0.2,1.4,0.6v-0.8c0-0.3-0.1-0.5-0.3-0.7c-0.2-0.2-0.5-0.2-0.8-0.2
			c-0.5,0-1,0.2-1.3,0.6l-0.3-0.5c0.5-0.5,1-0.7,1.7-0.7c0.5,0,0.9,0.1,1.2,0.4c0.3,0.2,0.5,0.6,0.5,1.1V139.1z M40.9,138.7
			c0.5,0,0.9-0.2,1.2-0.5v-0.8c-0.3-0.4-0.7-0.5-1.2-0.5c-0.3,0-0.6,0.1-0.8,0.3c-0.2,0.2-0.3,0.4-0.3,0.7c0,0.3,0.1,0.5,0.3,0.7
			C40.3,138.6,40.6,138.7,40.9,138.7z"/>
		<path class="st1" d="M47.9,139.1h-0.9l-1.6-2l-0.7,0.7v1.2h-0.7v-6h0.7v4l2.3-2.3h0.9l-1.9,2L47.9,139.1z"/>
		<path class="st1" d="M49,134.1c-0.1,0-0.2,0-0.3-0.1s-0.1-0.2-0.1-0.3s0-0.2,0.1-0.3s0.2-0.1,0.3-0.1c0.1,0,0.2,0,0.3,0.1
			s0.1,0.2,0.1,0.3s0,0.2-0.1,0.3S49.2,134.1,49,134.1z M49.4,139.1h-0.7v-4.3h0.7V139.1z"/>
		<path class="st1" d="M52.1,139.2c-0.7,0-1.3-0.2-1.8-0.7l0.4-0.5c0.1,0.2,0.4,0.3,0.6,0.4s0.5,0.2,0.8,0.2c0.3,0,0.6-0.1,0.8-0.2
			c0.2-0.1,0.3-0.3,0.3-0.5c0-0.2-0.1-0.3-0.3-0.5s-0.4-0.2-0.7-0.3c-0.3-0.1-0.5-0.1-0.8-0.2c-0.3-0.1-0.5-0.2-0.7-0.4
			c-0.2-0.2-0.3-0.4-0.3-0.7c0-0.4,0.1-0.7,0.4-0.9c0.3-0.2,0.7-0.4,1.2-0.4c0.7,0,1.2,0.2,1.6,0.6l-0.3,0.5
			c-0.3-0.4-0.7-0.5-1.3-0.5c-0.3,0-0.5,0.1-0.7,0.2s-0.3,0.3-0.3,0.5c0,0.2,0.1,0.3,0.3,0.4c0.2,0.1,0.4,0.2,0.7,0.2
			c0.3,0.1,0.5,0.1,0.8,0.2c0.3,0.1,0.5,0.2,0.7,0.4c0.2,0.2,0.3,0.4,0.3,0.8c0,0.4-0.2,0.7-0.4,0.9
			C53.1,139.1,52.7,139.2,52.1,139.2z"/>
		<path class="st1" d="M56,139.2c-0.3,0-0.6-0.1-0.7-0.3s-0.2-0.4-0.2-0.8v-2.8h-0.7v-0.6h0.7v-1.2h0.7v1.2h0.9v0.6h-0.9v2.7
			c0,0.2,0,0.3,0.1,0.4c0.1,0.1,0.2,0.2,0.3,0.2c0.2,0,0.4-0.1,0.5-0.2l0.2,0.5C56.6,139.1,56.4,139.2,56,139.2z"/>
		<path class="st1" d="M61,139.1h-0.7v-0.5c-0.4,0.4-0.8,0.6-1.4,0.6c-0.4,0-0.8-0.1-1.1-0.4c-0.3-0.3-0.5-0.6-0.5-1.1
			c0-0.5,0.2-0.8,0.5-1.1c0.3-0.2,0.7-0.4,1.1-0.4c0.6,0,1.1,0.2,1.4,0.6v-0.8c0-0.3-0.1-0.5-0.3-0.7s-0.5-0.2-0.8-0.2
			c-0.5,0-1,0.2-1.3,0.6l-0.3-0.5c0.5-0.5,1-0.7,1.7-0.7c0.5,0,0.9,0.1,1.2,0.4c0.3,0.2,0.5,0.6,0.5,1.1V139.1z M59.1,138.7
			c0.5,0,0.9-0.2,1.2-0.5v-0.8c-0.3-0.4-0.7-0.5-1.2-0.5c-0.3,0-0.6,0.1-0.8,0.3s-0.3,0.4-0.3,0.7c0,0.3,0.1,0.5,0.3,0.7
			S58.8,138.7,59.1,138.7z"/>
		<path class="st1" d="M65.9,139.1h-0.7v-2.8c0-0.4-0.1-0.6-0.3-0.8c-0.2-0.2-0.4-0.2-0.7-0.2c-0.3,0-0.5,0.1-0.7,0.2
			s-0.4,0.3-0.6,0.5v3.2h-0.7v-4.3H63v0.6c0.2-0.2,0.4-0.4,0.7-0.5c0.3-0.1,0.6-0.2,0.9-0.2c0.9,0,1.4,0.5,1.4,1.4V139.1z"/>
	</g>
	<g>
		<path class="st0" d="M206.9,38.3h-1.5v-6.4l-1.4,1.4l-0.8-0.9l2.4-2.4h1.3V38.3z"/>
		<path class="st0" d="M210.2,37.8c0,0.4-0.1,0.8-0.3,1.2c-0.2,0.4-0.5,0.7-0.9,0.9l-0.6-0.5c0.2-0.1,0.4-0.3,0.6-0.5
			c0.2-0.2,0.3-0.4,0.3-0.6c-0.1,0-0.1,0-0.2,0c-0.2,0-0.4-0.1-0.5-0.2c-0.1-0.1-0.2-0.3-0.2-0.6s0.1-0.4,0.2-0.6
			c0.2-0.2,0.4-0.3,0.6-0.3c0.3,0,0.5,0.1,0.7,0.3S210.2,37.5,210.2,37.8z"/>
		<path class="st0" d="M214.3,38.5c-0.7,0-1.3-0.1-1.9-0.4c-0.5-0.2-1-0.6-1.3-1l0.8-1c0.3,0.3,0.6,0.6,1,0.7
			c0.4,0.2,0.8,0.3,1.3,0.3c0.5,0,1-0.1,1.3-0.3c0.3-0.2,0.5-0.5,0.5-0.9c0-0.8-0.6-1.2-1.9-1.2c-0.6,0-0.9,0-1,0v-1.3
			c0.1,0,0.4,0,1,0c0.5,0,0.9-0.1,1.2-0.3c0.3-0.2,0.5-0.5,0.5-0.8c0-0.4-0.2-0.7-0.5-0.9c-0.3-0.2-0.7-0.3-1.2-0.3
			c-0.8,0-1.5,0.3-2.2,0.9l-0.8-0.9c0.7-0.9,1.8-1.3,3-1.3c0.9,0,1.6,0.2,2.2,0.6s0.8,1,0.8,1.6c0,0.5-0.2,0.9-0.5,1.3
			c-0.4,0.3-0.8,0.5-1.3,0.6c0.5,0,0.9,0.2,1.3,0.6s0.6,0.8,0.6,1.4c0,0.7-0.3,1.3-0.9,1.8C216,38.2,215.2,38.5,214.3,38.5z"/>
		<path class="st0" d="M224.7,38.3h-6v-1.2c1.7-1.3,2.9-2.3,3.6-2.9c0.6-0.6,0.9-1.2,0.9-1.8c0-0.4-0.1-0.7-0.4-0.9
			c-0.3-0.2-0.7-0.3-1.1-0.3c-0.9,0-1.7,0.3-2.2,1l-0.8-1c0.4-0.4,0.8-0.8,1.4-1c0.5-0.2,1.1-0.3,1.7-0.3c0.9,0,1.6,0.2,2.2,0.7
			c0.6,0.5,0.9,1.1,0.9,1.9c0,0.7-0.3,1.4-0.9,2.1c-0.6,0.7-1.5,1.5-2.8,2.5h3.7V38.3z"/>
		<path class="st0" d="M230.8,38.1c-0.4,0.2-0.9,0.4-1.5,0.4c-0.6,0-1.1-0.1-1.5-0.4c-0.4-0.2-0.8-0.6-1.1-1
			c-0.3-0.4-0.5-0.9-0.6-1.4c-0.1-0.5-0.2-1-0.2-1.6c0-0.5,0.1-1.1,0.2-1.6c0.1-0.5,0.3-1,0.6-1.4c0.3-0.4,0.6-0.7,1.1-1
			c0.4-0.2,0.9-0.4,1.5-0.4c0.6,0,1.1,0.1,1.5,0.4c0.4,0.2,0.8,0.6,1,1c0.3,0.4,0.5,0.9,0.6,1.4s0.2,1,0.2,1.6
			c0,0.5-0.1,1.1-0.2,1.6s-0.3,1-0.6,1.4C231.6,37.5,231.2,37.8,230.8,38.1z M227.9,36.3c0.3,0.6,0.8,0.8,1.4,0.8
			c0.6,0,1.1-0.3,1.4-0.8s0.5-1.3,0.5-2.2c0-0.6-0.1-1.1-0.2-1.5c-0.1-0.4-0.3-0.8-0.6-1.1c-0.3-0.3-0.6-0.4-1.1-0.4
			c-0.4,0-0.8,0.1-1.1,0.4s-0.5,0.6-0.6,1.1c-0.1,0.4-0.2,0.9-0.2,1.5C227.4,35,227.6,35.8,227.9,36.3z"/>
	</g>
	<g>
		<path class="st0" d="M206.1,86.1h-1.6l3.1-7h-4.3v-1.3h6v1L206.1,86.1z"/>
		<path class="st0" d="M210.9,85.6c0,0.4-0.1,0.8-0.3,1.2c-0.2,0.4-0.5,0.7-0.9,0.9l-0.6-0.5c0.2-0.1,0.4-0.3,0.6-0.5
			c0.2-0.2,0.3-0.4,0.3-0.6c-0.1,0-0.1,0-0.2,0c-0.2,0-0.4-0.1-0.5-0.2c-0.1-0.1-0.2-0.3-0.2-0.6s0.1-0.4,0.2-0.6
			c0.2-0.2,0.4-0.3,0.6-0.3c0.3,0,0.5,0.1,0.7,0.3C210.8,85,210.9,85.3,210.9,85.6z"/>
		<path class="st0" d="M215.2,86.2c-0.6,0-1.1-0.1-1.6-0.3c-0.5-0.2-0.8-0.5-1.1-0.9s-0.5-0.9-0.6-1.4c-0.1-0.5-0.2-1.1-0.2-1.7
			c0-1.3,0.3-2.3,1-3.1c0.6-0.8,1.5-1.2,2.7-1.2c1,0,1.8,0.3,2.4,0.9l-0.7,1.1c-0.5-0.5-1-0.7-1.7-0.7c-0.7,0-1.2,0.3-1.6,0.8
			c-0.4,0.5-0.6,1.2-0.6,1.9c0,0.1,0,0.2,0,0.2c0.2-0.3,0.5-0.6,0.9-0.8s0.8-0.3,1.3-0.3c0.8,0,1.5,0.2,2,0.7c0.5,0.5,0.8,1.1,0.8,2
			c0,0.8-0.3,1.5-0.9,2C216.8,86,216.1,86.2,215.2,86.2z M215.1,84.9c0.5,0,0.9-0.1,1.2-0.4c0.3-0.3,0.5-0.6,0.5-1
			c0-0.5-0.2-0.9-0.5-1.1s-0.7-0.4-1.2-0.4c-0.4,0-0.7,0.1-1,0.3c-0.3,0.2-0.6,0.4-0.8,0.7c0,0.5,0.2,1,0.5,1.4
			C214.1,84.7,214.5,84.9,215.1,84.9z"/>
		<path class="st0" d="M225.4,86.1h-6v-1.1c1.7-1.3,2.9-2.3,3.6-2.9c0.6-0.6,0.9-1.2,0.9-1.8c0-0.4-0.1-0.7-0.4-0.9
			c-0.3-0.2-0.7-0.3-1.1-0.3c-0.9,0-1.7,0.3-2.2,1l-0.8-1c0.4-0.4,0.8-0.8,1.4-1c0.5-0.2,1.1-0.3,1.7-0.3c0.9,0,1.6,0.2,2.2,0.7
			c0.6,0.5,0.9,1.1,0.9,1.9c0,0.7-0.3,1.4-0.9,2.1c-0.6,0.7-1.5,1.5-2.8,2.5h3.7V86.1z"/>
		<path class="st0" d="M231.5,85.9c-0.4,0.2-0.9,0.4-1.5,0.4c-0.6,0-1.1-0.1-1.5-0.4c-0.4-0.2-0.8-0.6-1.1-1
			c-0.3-0.4-0.5-0.9-0.6-1.4c-0.1-0.5-0.2-1-0.2-1.6c0-0.5,0.1-1.1,0.2-1.6c0.1-0.5,0.3-1,0.6-1.4s0.6-0.7,1.1-1
			c0.4-0.2,0.9-0.4,1.5-0.4c0.6,0,1.1,0.1,1.5,0.4c0.4,0.2,0.8,0.6,1,1c0.3,0.4,0.5,0.9,0.6,1.4s0.2,1,0.2,1.6
			c0,0.5-0.1,1.1-0.2,1.6s-0.3,1-0.6,1.4C232.3,85.3,232,85.6,231.5,85.9z M228.6,84.1c0.3,0.6,0.8,0.9,1.4,0.9
			c0.6,0,1.1-0.3,1.4-0.9c0.3-0.6,0.5-1.3,0.5-2.2c0-0.6-0.1-1.1-0.2-1.5c-0.1-0.4-0.3-0.8-0.6-1.1c-0.3-0.3-0.6-0.4-1.1-0.4
			c-0.4,0-0.8,0.1-1.1,0.4s-0.5,0.6-0.6,1.1c-0.1,0.4-0.2,0.9-0.2,1.5C228.2,82.8,228.3,83.5,228.6,84.1z"/>
	</g>
	<g>
		<path class="st0" d="M206.9,120.5h-1.5V114l-1.4,1.4l-0.8-0.9l2.4-2.4h1.3V120.5z"/>
		<path class="st0" d="M210.2,120c0,0.4-0.1,0.8-0.3,1.2c-0.2,0.4-0.5,0.7-0.9,0.9l-0.6-0.5c0.2-0.1,0.4-0.3,0.6-0.5
			c0.2-0.2,0.3-0.4,0.3-0.6c-0.1,0-0.1,0-0.2,0c-0.2,0-0.4-0.1-0.5-0.2c-0.1-0.1-0.2-0.3-0.2-0.6s0.1-0.4,0.2-0.6
			c0.2-0.2,0.4-0.3,0.6-0.3c0.3,0,0.5,0.1,0.7,0.3C210.1,119.4,210.2,119.6,210.2,120z"/>
		<path class="st0" d="M214.6,120.6c-1.3,0-2.4-0.4-3.1-1.3l0.8-1c0.6,0.7,1.3,1,2.2,1c0.5,0,0.9-0.1,1.2-0.4c0.3-0.3,0.5-0.6,0.5-1
			c0-0.5-0.2-0.8-0.5-1.1c-0.3-0.3-0.7-0.4-1.2-0.4c-0.7,0-1.3,0.2-1.8,0.7l-1-0.3v-4.7h5.5v1.3h-4v2.4c0.5-0.5,1.1-0.7,1.9-0.7
			c0.7,0,1.4,0.2,1.9,0.7c0.5,0.5,0.8,1.1,0.8,2c0,0.9-0.3,1.5-0.9,2.1C216.3,120.4,215.6,120.6,214.6,120.6z"/>
		<path class="st0" d="M221.8,120.6c-0.7,0-1.3-0.1-1.9-0.4c-0.5-0.2-1-0.6-1.3-1l0.8-1c0.3,0.3,0.6,0.6,1,0.7s0.8,0.3,1.3,0.3
			c0.5,0,1-0.1,1.3-0.3c0.3-0.2,0.5-0.5,0.5-0.9c0-0.8-0.6-1.2-1.9-1.2c-0.6,0-0.9,0-1,0v-1.3c0.1,0,0.4,0,1,0
			c0.5,0,0.9-0.1,1.2-0.3c0.3-0.2,0.5-0.5,0.5-0.8c0-0.4-0.2-0.7-0.5-0.9c-0.3-0.2-0.7-0.3-1.2-0.3c-0.8,0-1.5,0.3-2.2,0.9l-0.8-0.9
			c0.7-0.9,1.8-1.3,3-1.3c0.9,0,1.6,0.2,2.2,0.6s0.8,1,0.8,1.6c0,0.5-0.2,0.9-0.5,1.3c-0.4,0.3-0.8,0.5-1.3,0.6
			c0.5,0,0.9,0.2,1.3,0.6c0.4,0.4,0.6,0.8,0.6,1.4c0,0.7-0.3,1.3-0.9,1.8C223.5,120.4,222.7,120.6,221.8,120.6z"/>
		<path class="st0" d="M229.3,120.6c-1.3,0-2.4-0.4-3.1-1.3l0.8-1c0.6,0.7,1.3,1,2.2,1c0.5,0,0.9-0.1,1.2-0.4c0.3-0.3,0.5-0.6,0.5-1
			c0-0.5-0.2-0.8-0.5-1.1c-0.3-0.3-0.7-0.4-1.2-0.4c-0.7,0-1.3,0.2-1.8,0.7l-1-0.3v-4.7h5.5v1.3h-4v2.4c0.5-0.5,1.1-0.7,1.9-0.7
			c0.7,0,1.4,0.2,1.9,0.7c0.5,0.5,0.8,1.1,0.8,2c0,0.9-0.3,1.5-0.9,2.1C231,120.4,230.2,120.6,229.3,120.6z"/>
	</g>
	<g>
		<path class="st0" d="M37.1,184.7c-1,0-1.8-0.3-2.4-0.9l0.7-1.1c0.5,0.5,1,0.7,1.7,0.7c0.7,0,1.3-0.3,1.6-0.8s0.6-1.2,0.6-1.9v-0.2
			c-0.2,0.3-0.5,0.6-0.9,0.8s-0.8,0.4-1.3,0.4c-0.8,0-1.5-0.2-2-0.7c-0.5-0.5-0.8-1.1-0.8-2c0-0.8,0.3-1.5,0.9-2
			c0.6-0.5,1.3-0.8,2.2-0.8c0.8,0,1.4,0.2,2,0.6s0.9,0.9,1.1,1.6s0.3,1.3,0.3,2.2c0,1.2-0.3,2.3-1,3.1
			C39.1,184.3,38.2,184.7,37.1,184.7z M37.4,180.3c0.4,0,0.7-0.1,1-0.3c0.3-0.2,0.6-0.4,0.8-0.7c0-0.5-0.2-1-0.5-1.4
			c-0.3-0.4-0.8-0.6-1.3-0.6c-0.5,0-0.9,0.1-1.2,0.5c-0.3,0.3-0.5,0.6-0.5,1c0,0.5,0.2,0.9,0.5,1.1
			C36.5,180.2,36.9,180.3,37.4,180.3z"/>
		<path class="st0" d="M43.4,184.1c0,0.4-0.1,0.8-0.3,1.2c-0.2,0.4-0.5,0.7-0.9,0.9l-0.6-0.5c0.2-0.1,0.4-0.3,0.6-0.5
			c0.2-0.2,0.3-0.4,0.3-0.7c-0.1,0-0.1,0-0.2,0c-0.2,0-0.4-0.1-0.5-0.2c-0.1-0.1-0.2-0.3-0.2-0.6s0.1-0.4,0.2-0.6s0.4-0.3,0.6-0.3
			c0.3,0,0.5,0.1,0.7,0.3C43.3,183.4,43.4,183.7,43.4,184.1z"/>
		<path class="st0" d="M50,184.1c-0.6,0.4-1.4,0.6-2.3,0.6s-1.7-0.2-2.3-0.6c-0.6-0.4-0.9-1-0.9-1.7c0-0.5,0.2-1,0.5-1.3
			s0.8-0.7,1.3-0.8c-0.5-0.2-0.9-0.4-1.3-0.7c-0.3-0.3-0.5-0.7-0.5-1.2c0-0.4,0.1-0.7,0.3-1s0.4-0.5,0.7-0.7c0.3-0.2,0.6-0.3,1-0.4
			c0.4-0.1,0.7-0.1,1.1-0.1s0.8,0,1.1,0.1c0.3,0.1,0.7,0.2,1,0.4c0.3,0.2,0.5,0.4,0.7,0.7c0.2,0.3,0.3,0.6,0.3,1
			c0,0.9-0.6,1.6-1.8,2c0.5,0.2,1,0.5,1.3,0.8s0.5,0.8,0.5,1.3C50.9,183.1,50.6,183.7,50,184.1z M47.7,183.4c0.5,0,0.9-0.1,1.2-0.3
			c0.3-0.2,0.5-0.5,0.5-0.9c0-0.4-0.2-0.7-0.6-0.9c-0.4-0.2-0.8-0.4-1.1-0.4c-0.2,0-0.4,0.1-0.7,0.2s-0.5,0.2-0.7,0.4
			s-0.3,0.4-0.3,0.7c0,0.4,0.2,0.6,0.5,0.9S47.2,183.4,47.7,183.4z M47.7,179.7c0.2,0,0.4-0.1,0.6-0.2c0.2-0.1,0.4-0.2,0.6-0.4
			c0.2-0.2,0.3-0.4,0.3-0.6c0-0.3-0.1-0.6-0.4-0.8c-0.3-0.2-0.7-0.3-1.1-0.3c-0.5,0-0.8,0.1-1.1,0.3c-0.3,0.2-0.4,0.5-0.4,0.8
			c0,0.2,0.1,0.5,0.3,0.6c0.2,0.2,0.4,0.3,0.6,0.4C47.3,179.6,47.5,179.6,47.7,179.7z"/>
		<path class="st0" d="M56.8,184.3c-0.4,0.2-0.9,0.4-1.5,0.4c-0.6,0-1.1-0.1-1.5-0.4c-0.4-0.2-0.8-0.6-1-1c-0.3-0.4-0.5-0.9-0.6-1.4
			s-0.2-1-0.2-1.6c0-0.5,0.1-1.1,0.2-1.6s0.3-1,0.6-1.4c0.3-0.4,0.6-0.7,1-1c0.4-0.2,0.9-0.4,1.5-0.4c0.6,0,1.1,0.1,1.5,0.4
			c0.4,0.2,0.8,0.6,1,1s0.5,0.9,0.6,1.4c0.1,0.5,0.2,1,0.2,1.6c0,0.5-0.1,1.1-0.2,1.6c-0.1,0.5-0.3,1-0.6,1.4
			C57.6,183.7,57.2,184.1,56.8,184.3z M53.9,182.5c0.3,0.6,0.8,0.8,1.4,0.8s1.1-0.3,1.4-0.8c0.3-0.6,0.5-1.3,0.5-2.2
			c0-0.6-0.1-1.1-0.2-1.5c-0.1-0.4-0.3-0.8-0.6-1.1c-0.3-0.3-0.6-0.4-1.1-0.4c-0.4,0-0.8,0.1-1.1,0.4c-0.3,0.3-0.5,0.6-0.6,1.1
			c-0.1,0.4-0.2,0.9-0.2,1.5C53.4,181.3,53.6,182,53.9,182.5z"/>
		<path class="st0" d="M64.5,184.3c-0.4,0.2-0.9,0.4-1.5,0.4s-1.1-0.1-1.5-0.4s-0.8-0.6-1.1-1c-0.3-0.4-0.5-0.9-0.6-1.4
			s-0.2-1-0.2-1.6c0-0.5,0.1-1.1,0.2-1.6s0.3-1,0.6-1.4c0.3-0.4,0.6-0.7,1.1-1s0.9-0.4,1.5-0.4s1.1,0.1,1.5,0.4s0.8,0.6,1,1
			s0.5,0.9,0.6,1.4c0.1,0.5,0.2,1,0.2,1.6c0,0.5-0.1,1.1-0.2,1.6c-0.1,0.5-0.3,1-0.6,1.4C65.3,183.7,64.9,184.1,64.5,184.3z
			 M61.6,182.5c0.3,0.6,0.8,0.8,1.4,0.8s1.1-0.3,1.4-0.8c0.3-0.6,0.4-1.3,0.4-2.2c0-0.6-0.1-1.1-0.2-1.5c-0.1-0.4-0.3-0.8-0.6-1.1
			c-0.3-0.3-0.6-0.4-1.1-0.4s-0.8,0.1-1.1,0.4c-0.3,0.3-0.5,0.6-0.6,1.1c-0.1,0.4-0.2,0.9-0.2,1.5C61.1,181.3,61.3,182,61.6,182.5z"
			/>
	</g>
	<g>
		<path class="st0" d="M48.3,150.9c-0.6,0-1.1-0.1-1.6-0.3c-0.5-0.2-0.8-0.5-1.1-0.9s-0.5-0.9-0.6-1.4c-0.1-0.5-0.2-1.1-0.2-1.7
			c0-1.3,0.3-2.3,1-3.1c0.6-0.8,1.5-1.2,2.7-1.2c1,0,1.8,0.3,2.4,0.9l-0.7,1.1c-0.5-0.5-1-0.7-1.7-0.7c-0.7,0-1.2,0.3-1.6,0.8
			c-0.4,0.5-0.6,1.2-0.6,1.9c0,0.1,0,0.2,0,0.2c0.2-0.3,0.5-0.6,0.9-0.8s0.8-0.4,1.3-0.4c0.8,0,1.5,0.2,2,0.7c0.5,0.5,0.8,1.1,0.8,2
			c0,0.8-0.3,1.5-0.8,2C50,150.6,49.3,150.9,48.3,150.9z M48.3,149.6c0.5,0,0.9-0.1,1.2-0.4c0.3-0.3,0.4-0.6,0.4-1
			c0-0.5-0.2-0.9-0.5-1.1c-0.3-0.3-0.7-0.4-1.2-0.4c-0.3,0-0.7,0.1-1,0.3c-0.3,0.2-0.6,0.4-0.8,0.7c0,0.5,0.2,1,0.5,1.4
			C47.2,149.4,47.7,149.6,48.3,149.6z"/>
		<path class="st0" d="M57.9,150.3c-0.6,0.4-1.4,0.6-2.3,0.6c-0.9,0-1.7-0.2-2.3-0.6c-0.6-0.4-0.9-1-0.9-1.7c0-0.5,0.2-1,0.5-1.3
			c0.4-0.4,0.8-0.7,1.3-0.8c-0.5-0.2-0.9-0.4-1.3-0.7c-0.3-0.3-0.5-0.7-0.5-1.2c0-0.4,0.1-0.7,0.3-1c0.2-0.3,0.4-0.5,0.7-0.7
			s0.6-0.3,1-0.4c0.4-0.1,0.7-0.1,1.1-0.1c0.4,0,0.8,0,1.1,0.1c0.3,0.1,0.7,0.2,1,0.4s0.5,0.4,0.7,0.7s0.3,0.6,0.3,1
			c0,0.9-0.6,1.6-1.8,2c0.5,0.2,1,0.5,1.3,0.8c0.4,0.4,0.5,0.8,0.5,1.3C58.8,149.3,58.5,149.9,57.9,150.3z M55.6,149.6
			c0.5,0,0.9-0.1,1.2-0.3c0.3-0.2,0.5-0.5,0.5-0.8c0-0.4-0.2-0.7-0.6-0.9s-0.8-0.4-1.1-0.4c-0.2,0-0.4,0.1-0.7,0.2
			c-0.2,0.1-0.5,0.2-0.7,0.4c-0.2,0.2-0.3,0.4-0.3,0.7c0,0.3,0.2,0.6,0.5,0.8C54.7,149.5,55.1,149.6,55.6,149.6z M55.6,145.9
			c0.2,0,0.4-0.1,0.7-0.2c0.2-0.1,0.4-0.2,0.6-0.4c0.2-0.2,0.3-0.4,0.3-0.6c0-0.3-0.1-0.6-0.4-0.8c-0.3-0.2-0.7-0.3-1.1-0.3
			c-0.5,0-0.8,0.1-1.1,0.3c-0.3,0.2-0.4,0.5-0.4,0.8c0,0.2,0.1,0.5,0.3,0.6c0.2,0.2,0.4,0.3,0.6,0.4
			C55.2,145.8,55.4,145.8,55.6,145.9z"/>
		<path class="st0" d="M63.1,150.9c-1.3,0-2.4-0.4-3.1-1.3l0.8-1c0.6,0.7,1.3,1,2.2,1c0.5,0,0.9-0.1,1.2-0.4c0.3-0.3,0.5-0.6,0.5-1
			c0-0.5-0.2-0.8-0.5-1.1c-0.3-0.3-0.7-0.4-1.2-0.4c-0.7,0-1.3,0.2-1.8,0.7l-1-0.3v-4.7h5.5v1.3h-4v2.4c0.5-0.5,1.1-0.7,1.9-0.7
			c0.7,0,1.4,0.2,1.9,0.7c0.5,0.5,0.8,1.1,0.8,2c0,0.9-0.3,1.5-0.9,2.1S64.1,150.9,63.1,150.9z"/>
	</g>
	<g>
		<path class="st0" d="M48.1,119.8c-0.7,0-1.3-0.1-1.9-0.4s-1-0.6-1.3-1l0.8-1c0.3,0.3,0.6,0.6,1,0.7c0.4,0.2,0.8,0.3,1.3,0.3
			c0.5,0,1-0.1,1.3-0.3c0.3-0.2,0.5-0.5,0.5-0.9c0-0.8-0.6-1.2-1.9-1.2c-0.6,0-0.9,0-1,0v-1.3c0.1,0,0.4,0,1,0
			c0.5,0,0.9-0.1,1.2-0.3c0.3-0.2,0.5-0.5,0.5-0.8c0-0.4-0.2-0.7-0.5-0.9c-0.3-0.2-0.7-0.3-1.2-0.3c-0.8,0-1.5,0.3-2.1,0.9l-0.8-0.9
			c0.7-0.9,1.8-1.3,3-1.3c0.9,0,1.6,0.2,2.2,0.6c0.5,0.4,0.8,1,0.8,1.6c0,0.5-0.2,0.9-0.5,1.3c-0.4,0.3-0.8,0.5-1.3,0.6
			c0.5,0,0.9,0.2,1.3,0.6c0.4,0.4,0.6,0.8,0.6,1.4c0,0.7-0.3,1.3-0.9,1.8C49.8,119.5,49.1,119.8,48.1,119.8z"/>
		<path class="st0" d="M55.6,119.8c-1.3,0-2.4-0.4-3.1-1.3l0.8-1c0.6,0.7,1.3,1,2.2,1c0.5,0,0.9-0.1,1.2-0.4c0.3-0.3,0.5-0.6,0.5-1
			c0-0.5-0.2-0.8-0.5-1.1c-0.3-0.3-0.7-0.4-1.2-0.4c-0.7,0-1.3,0.2-1.8,0.7l-1-0.3v-4.7h5.5v1.3h-4v2.4c0.5-0.5,1.1-0.7,1.9-0.7
			c0.7,0,1.4,0.2,1.9,0.7c0.5,0.5,0.8,1.1,0.8,2c0,0.9-0.3,1.5-0.9,2.1C57.4,119.5,56.6,119.8,55.6,119.8z"/>
		<path class="st0" d="M63.1,119.8c-1.3,0-2.4-0.4-3.1-1.3l0.8-1c0.6,0.7,1.3,1,2.2,1c0.5,0,0.9-0.1,1.2-0.4c0.3-0.3,0.5-0.6,0.5-1
			c0-0.5-0.2-0.8-0.5-1.1c-0.3-0.3-0.7-0.4-1.2-0.4c-0.7,0-1.3,0.2-1.8,0.7l-1-0.3v-4.7h5.5v1.3h-4v2.4c0.5-0.5,1.1-0.7,1.9-0.7
			c0.7,0,1.4,0.2,1.9,0.7c0.5,0.5,0.8,1.1,0.8,2c0,0.9-0.3,1.5-0.9,2.1C64.9,119.5,64.1,119.8,63.1,119.8z"/>
	</g>
	<g>
		<path class="st0" d="M40.8,84.1h-6v-1.1c1.7-1.3,2.9-2.3,3.6-2.9c0.6-0.6,0.9-1.2,0.9-1.8c0-0.4-0.1-0.7-0.4-0.9
			c-0.3-0.2-0.7-0.3-1.1-0.3c-0.9,0-1.7,0.3-2.2,1l-0.8-1c0.4-0.4,0.8-0.8,1.4-1c0.5-0.2,1.1-0.3,1.7-0.3c0.8,0,1.6,0.2,2.1,0.7
			c0.6,0.5,0.9,1.1,0.9,1.9c0,0.7-0.3,1.4-0.9,2.1c-0.6,0.7-1.5,1.5-2.8,2.5h3.7V84.1z"/>
		<path class="st0" d="M44.1,83.6c0,0.4-0.1,0.8-0.3,1.2s-0.5,0.7-0.9,0.9l-0.6-0.5c0.2-0.1,0.4-0.3,0.6-0.5
			c0.2-0.2,0.3-0.4,0.3-0.7c-0.1,0-0.1,0-0.2,0c-0.2,0-0.4-0.1-0.5-0.2c-0.1-0.1-0.2-0.3-0.2-0.6s0.1-0.4,0.2-0.6
			c0.2-0.2,0.4-0.3,0.6-0.3c0.3,0,0.5,0.1,0.7,0.3S44.1,83.3,44.1,83.6z"/>
		<path class="st0" d="M50.4,84.1H49v-1.9h-4V81l3.4-5.3h2v5.2h1.1v1.3h-1.1V84.1z M49,80.9v-3.8l-2.5,3.8H49z"/>
		<path class="st0" d="M58.6,84.1h-6v-1.1c1.7-1.3,2.9-2.3,3.6-2.9c0.6-0.6,0.9-1.2,0.9-1.8c0-0.4-0.1-0.7-0.4-0.9
			c-0.3-0.2-0.7-0.3-1.1-0.3c-0.9,0-1.7,0.3-2.2,1l-0.8-1c0.4-0.4,0.8-0.8,1.4-1c0.5-0.2,1.1-0.3,1.7-0.3c0.8,0,1.6,0.2,2.1,0.7
			c0.6,0.5,0.9,1.1,0.9,1.9c0,0.7-0.3,1.4-0.9,2.1c-0.6,0.7-1.5,1.5-2.8,2.5h3.7V84.1z"/>
		<path class="st0" d="M63.1,84.2c-1.3,0-2.4-0.4-3.1-1.3l0.8-1c0.6,0.7,1.3,1,2.2,1c0.5,0,0.9-0.1,1.2-0.4s0.5-0.6,0.5-1
			c0-0.5-0.2-0.8-0.5-1.1c-0.3-0.3-0.7-0.4-1.2-0.4c-0.7,0-1.3,0.2-1.8,0.7l-1-0.3v-4.7h5.5V77h-4v2.4c0.5-0.5,1.1-0.7,1.9-0.7
			c0.7,0,1.4,0.2,1.9,0.7c0.5,0.5,0.8,1.1,0.8,2c0,0.9-0.3,1.5-0.9,2.1C64.9,84,64.1,84.2,63.1,84.2z"/>
	</g>
	<g>
		<path class="st0" d="M43.3,49.8h-1.5v-6.4l-1.4,1.4l-0.8-0.9l2.4-2.4h1.3V49.8z"/>
		<path class="st0" d="M46.6,49.4c0,0.4-0.1,0.8-0.3,1.2s-0.5,0.7-0.9,0.9L44.9,51c0.2-0.1,0.4-0.3,0.6-0.5c0.2-0.2,0.3-0.4,0.3-0.7
			c-0.1,0-0.1,0-0.2,0c-0.2,0-0.4-0.1-0.5-0.2c-0.1-0.1-0.2-0.3-0.2-0.6s0.1-0.4,0.2-0.6c0.2-0.2,0.4-0.3,0.6-0.3
			c0.3,0,0.5,0.1,0.7,0.3C46.5,48.7,46.6,49,46.6,49.4z"/>
		<path class="st0" d="M50.7,50c-0.7,0-1.3-0.1-1.9-0.4c-0.5-0.2-1-0.6-1.3-1l0.8-1c0.3,0.3,0.6,0.6,1,0.7c0.4,0.2,0.8,0.3,1.3,0.3
			c0.5,0,1-0.1,1.3-0.3c0.3-0.2,0.5-0.5,0.5-0.9c0-0.8-0.6-1.2-1.9-1.2c-0.6,0-0.9,0-1,0v-1.3c0.1,0,0.4,0,1,0
			c0.5,0,0.9-0.1,1.2-0.3s0.5-0.5,0.5-0.8c0-0.4-0.2-0.7-0.5-0.9c-0.3-0.2-0.7-0.3-1.2-0.3c-0.8,0-1.5,0.3-2.2,0.9l-0.8-0.9
			c0.7-0.9,1.8-1.3,3-1.3c0.9,0,1.6,0.2,2.2,0.6c0.5,0.4,0.8,1,0.8,1.6c0,0.5-0.2,0.9-0.5,1.3c-0.4,0.3-0.8,0.5-1.3,0.6
			c0.5,0,0.9,0.2,1.3,0.6s0.6,0.8,0.6,1.4c0,0.7-0.3,1.3-0.9,1.8C52.4,49.8,51.6,50,50.7,50z"/>
		<path class="st0" d="M58.3,49.8h-1.5v-6.4l-1.4,1.4l-0.9-0.9l2.4-2.4h1.3V49.8z"/>
		<path class="st0" d="M64.5,49.6C64.1,49.9,63.6,50,63,50c-0.6,0-1.1-0.1-1.5-0.4c-0.4-0.2-0.8-0.6-1.1-1c-0.3-0.4-0.5-0.9-0.6-1.4
			c-0.1-0.5-0.2-1-0.2-1.6c0-0.5,0.1-1.1,0.2-1.6c0.1-0.5,0.3-1,0.6-1.4s0.6-0.7,1.1-1c0.4-0.2,0.9-0.4,1.5-0.4
			c0.6,0,1.1,0.1,1.5,0.4c0.4,0.2,0.8,0.6,1,1c0.3,0.4,0.5,0.9,0.6,1.4s0.2,1,0.2,1.6c0,0.5-0.1,1.1-0.2,1.6s-0.3,1-0.6,1.4
			C65.3,49,64.9,49.4,64.5,49.6z M61.6,47.8c0.3,0.6,0.8,0.8,1.4,0.8c0.6,0,1.1-0.3,1.4-0.8s0.5-1.3,0.5-2.2c0-0.6-0.1-1.1-0.2-1.5
			c-0.1-0.4-0.3-0.8-0.6-1.1c-0.3-0.3-0.6-0.4-1.1-0.4c-0.4,0-0.8,0.1-1.1,0.4c-0.3,0.3-0.5,0.6-0.6,1.1c-0.1,0.4-0.2,0.9-0.2,1.5
			C61.1,46.5,61.3,47.3,61.6,47.8z"/>
	</g>
	<g>
		<path class="st0" d="M125.8,20.5h-6v-1.1c1.7-1.3,2.9-2.3,3.6-2.9s0.9-1.2,0.9-1.8c0-0.4-0.1-0.7-0.4-0.9s-0.7-0.3-1.1-0.3
			c-0.9,0-1.7,0.3-2.2,1l-0.8-1c0.4-0.4,0.8-0.8,1.4-1c0.5-0.2,1.1-0.3,1.7-0.3c0.9,0,1.6,0.2,2.1,0.7c0.6,0.5,0.9,1.1,0.9,1.9
			c0,0.7-0.3,1.4-0.9,2.1c-0.6,0.7-1.5,1.5-2.8,2.5h3.7V20.5z"/>
		<path class="st0" d="M129,20.1c0,0.4-0.1,0.8-0.3,1.2c-0.2,0.4-0.5,0.7-0.9,0.9l-0.6-0.5c0.2-0.1,0.4-0.3,0.6-0.5
			c0.2-0.2,0.3-0.4,0.3-0.7c-0.1,0-0.1,0-0.2,0c-0.2,0-0.4-0.1-0.5-0.2c-0.1-0.1-0.2-0.3-0.2-0.6s0.1-0.4,0.2-0.6
			c0.2-0.2,0.4-0.3,0.6-0.3c0.3,0,0.5,0.1,0.7,0.3C128.9,19.4,129,19.7,129,20.1z"/>
		<path class="st0" d="M136.3,20.5h-6v-1.1c1.7-1.3,2.9-2.3,3.6-2.9s0.9-1.2,0.9-1.8c0-0.4-0.1-0.7-0.4-0.9s-0.7-0.3-1.1-0.3
			c-0.9,0-1.7,0.3-2.2,1l-0.8-1c0.4-0.4,0.8-0.8,1.4-1c0.5-0.2,1.1-0.3,1.7-0.3c0.9,0,1.6,0.2,2.1,0.7c0.6,0.5,0.9,1.1,0.9,1.9
			c0,0.7-0.3,1.4-0.9,2.1c-0.6,0.7-1.5,1.5-2.8,2.5h3.7V20.5z"/>
		<path class="st0" d="M143.7,20.5h-6v-1.1c1.7-1.3,2.9-2.3,3.6-2.9s0.9-1.2,0.9-1.8c0-0.4-0.1-0.7-0.4-0.9s-0.7-0.3-1.1-0.3
			c-0.9,0-1.7,0.3-2.2,1l-0.8-1c0.4-0.4,0.8-0.8,1.4-1c0.5-0.2,1.1-0.3,1.7-0.3c0.9,0,1.6,0.2,2.1,0.7c0.6,0.5,0.9,1.1,0.9,1.9
			c0,0.7-0.3,1.4-0.9,2.1c-0.6,0.7-1.5,1.5-2.8,2.5h3.7V20.5z"/>
		<path class="st0" d="M148.3,20.7c-1.3,0-2.4-0.4-3.1-1.3l0.8-1c0.6,0.7,1.3,1,2.2,1c0.5,0,0.9-0.1,1.2-0.4s0.5-0.6,0.5-1
			c0-0.5-0.2-0.8-0.5-1.1s-0.7-0.4-1.2-0.4c-0.7,0-1.3,0.2-1.8,0.7l-1-0.3v-4.7h5.5v1.3h-4v2.4c0.5-0.5,1.1-0.7,1.9-0.7
			c0.7,0,1.4,0.2,1.9,0.7c0.5,0.5,0.8,1.1,0.8,2c0,0.9-0.3,1.5-0.9,2.1C150,20.4,149.2,20.7,148.3,20.7z"/>
	</g>
	<g>
		<g>
			<path class="st2" d="M196.5,33.5c-18.3,0-30.5,11.2-38,26.3"/>
			<g>
				<path class="st3" d="M158.7,59.5c1.3-0.4,3.2,0,4.4,0.5c-2.2,0.4-4.3,1.3-6,2.7c0.2-2.2-0.6-4.4-1.5-6.5
					C156.8,57,158.2,58.1,158.7,59.5z"/>
			</g>
		</g>
	</g>
	<g>
		<g>
			<path class="st4" d="M196.5,70.6c-18.3,0-30.5,11.2-38,26.3"/>
			<g>
				<path class="st3" d="M159,96c3.7-1.3,9.3,0,12.7,1.6c-6.3,1.1-12.5,3.6-17.4,7.9c0.5-6.5-1.6-12.8-4.3-18.6
					C153.5,88.9,157.5,92,159,96z"/>
			</g>
		</g>
	</g>
	<g>
		<g>
			<path class="st5" d="M197.6,110c-14.7,10.9-41.1,12-53.9,3.9"/>
			<g>
				<path class="st3" d="M144,114.1c0.4,1.5-0.4,3.7-1.2,5c-0.2-2.6-0.9-5.2-2.5-7.3c2.6,0.5,5.2-0.1,7.6-1
					C147.1,112.2,145.7,113.7,144,114.1z"/>
			</g>
		</g>
	</g>
	<g>
		<g>
			<path class="st6" d="M77.4,174.6c18.3-0.3,39.9-8.6,47.4-27.9"/>
			<g>
				<path class="st3" d="M124.2,148.2c-5.3,2.3-13.6,1.2-18.9-0.7c9.1-2.5,17.8-6.9,24.5-13.8c0.1,9.5,4.1,18.5,8.7,26.7
					C133.1,157.8,126.9,153.7,124.2,148.2z"/>
			</g>
		</g>
	</g>
	<g>
		<g>
			<path class="st7" d="M196.6,150.8c-18.1,2.4-31.7,2.6-41.1-11.5"/>
			<g>
				<path class="st3" d="M155.7,139.7c-0.3,1.3-1.6,2.7-2.6,3.5c0.7-2,1.1-4.3,0.6-6.5c1.8,1.2,4.1,1.7,6.2,1.9
					C158.7,139.3,157.1,139.9,155.7,139.7z"/>
			</g>
		</g>
	</g>
	<g>
		<g>
			<path class="st8" d="M74.1,37.1c18.3,0,35.1,10.1,43.3,33.5"/>
			<g>
				<path class="st3" d="M117.3,70.4c0.3-0.7,1.3-1.3,2-1.6c-0.7,1-1.2,2.3-1.3,3.5c-0.8-1-2-1.5-3.2-2
					C115.6,70.2,116.6,70.1,117.3,70.4z"/>
			</g>
		</g>
	</g>
	<g>
		<g>
			<path class="st9" d="M74.1,140.9c10.5-7.5,26.8-9.5,41.4-4"/>
			<g>
				<path class="st3" d="M115.2,136.8c-0.4-0.9-0.2-2.4,0.1-3.3c0.5,1.6,1.2,3.1,2.5,4.2c-1.7,0-3.2,0.8-4.7,1.6
					C113.5,138.4,114.2,137.3,115.2,136.8z"/>
			</g>
		</g>
	</g>
	<g>
		<g>
			<path class="st10" d="M72.3,73.8C87,70.2,99.4,75,109.4,84.1"/>
			<g>
				<path class="st3" d="M109.1,83.8c-0.1-1.6,1-3.6,2-4.8c-0.3,2.6,0,5.3,1.2,7.7c-2.5-0.9-5.2-0.8-7.8-0.4
					C105.7,85.2,107.4,83.9,109.1,83.8z"/>
			</g>
		</g>
	</g>
	<g>
		<g>
			<path class="st11" d="M75,109.4c11-8.1,23-9.2,34.7-6"/>
			<g>
				<path class="st3" d="M109.6,103.4c-0.3-0.5-0.2-1.2-0.1-1.7c0.3,0.8,0.8,1.5,1.5,2.1c-0.9,0.1-1.6,0.5-2.3,1
					C108.8,104.3,109.1,103.7,109.6,103.4z"/>
			</g>
		</g>
	</g>
	<g>
		<g>
			<line class="st12" x1="135.6" y1="25.2" x2="135.6" y2="58.1"/>
			<g>
				<path class="st3" d="M135.6,57.7c1-1,3.1-1.5,4.6-1.6c-1.9,1.4-3.6,3.3-4.6,5.6c-0.9-2.3-2.7-4-4.6-5.6
					C132.5,56.3,134.4,56.6,135.6,57.7z"/>
			</g>
		</g>
	</g>
	<g>
		<path class="st0" d="M206.9,159.2h-1.5v-6.4l-1.4,1.4l-0.8-0.9l2.4-2.4h1.3V159.2z"/>
		<path class="st0" d="M210.2,158.7c0,0.4-0.1,0.8-0.3,1.2c-0.2,0.4-0.5,0.7-0.9,0.9l-0.6-0.5c0.2-0.1,0.4-0.3,0.6-0.5
			c0.2-0.2,0.3-0.4,0.3-0.6c-0.1,0-0.1,0-0.2,0c-0.2,0-0.4-0.1-0.5-0.2c-0.1-0.1-0.2-0.3-0.2-0.6s0.1-0.4,0.2-0.6
			c0.2-0.2,0.4-0.3,0.6-0.3c0.3,0,0.5,0.1,0.7,0.3S210.2,158.4,210.2,158.7z"/>
		<path class="st0" d="M217.5,159.2h-6V158c1.7-1.3,2.9-2.3,3.6-2.9c0.6-0.6,0.9-1.2,0.9-1.8c0-0.4-0.1-0.7-0.4-0.9
			c-0.3-0.2-0.7-0.3-1.1-0.3c-0.9,0-1.7,0.3-2.2,1l-0.8-1c0.4-0.4,0.8-0.8,1.4-1c0.5-0.2,1.1-0.3,1.7-0.3c0.8,0,1.6,0.2,2.1,0.7
			c0.6,0.5,0.9,1.1,0.9,1.9c0,0.7-0.3,1.4-0.9,2.1c-0.6,0.7-1.5,1.5-2.8,2.5h3.7V159.2z"/>
		<path class="st0" d="M221.6,159.3c-1,0-1.8-0.3-2.4-0.9l0.7-1.1c0.5,0.5,1,0.7,1.7,0.7c0.7,0,1.3-0.3,1.6-0.8
			c0.4-0.5,0.6-1.2,0.6-1.9V155c-0.2,0.3-0.5,0.6-0.9,0.8c-0.4,0.2-0.8,0.4-1.3,0.4c-0.8,0-1.5-0.2-2-0.7c-0.5-0.5-0.8-1.1-0.8-2
			c0-0.8,0.3-1.5,0.9-2s1.3-0.8,2.2-0.8c0.8,0,1.4,0.2,2,0.6s0.9,0.9,1.1,1.5c0.2,0.6,0.3,1.3,0.3,2.2c0,1.2-0.3,2.3-1,3.1
			C223.6,158.9,222.7,159.3,221.6,159.3z M221.9,155c0.4,0,0.7-0.1,1-0.3s0.6-0.4,0.8-0.7c0-0.5-0.2-1-0.5-1.4s-0.8-0.6-1.3-0.6
			c-0.5,0-0.9,0.1-1.2,0.4c-0.3,0.3-0.4,0.6-0.4,1c0,0.5,0.2,0.9,0.5,1.1C221,154.8,221.4,155,221.9,155z"/>
		<path class="st0" d="M229.6,159.3c-1.3,0-2.4-0.4-3.1-1.3l0.8-1c0.6,0.7,1.3,1,2.2,1c0.5,0,0.9-0.1,1.2-0.4c0.3-0.3,0.5-0.6,0.5-1
			c0-0.5-0.2-0.8-0.5-1.1c-0.3-0.3-0.7-0.4-1.2-0.4c-0.7,0-1.3,0.2-1.8,0.7l-1-0.3v-4.7h5.5v1.3h-4v2.4c0.5-0.5,1.1-0.7,1.9-0.7
			c0.7,0,1.4,0.2,1.9,0.7c0.5,0.5,0.8,1.1,0.8,2c0,0.9-0.3,1.5-0.9,2.1S230.5,159.3,229.6,159.3z"/>
	</g>
</g>
</svg>
