<?xml version="1.0" encoding="utf-8"?>
<!-- Generator: Adobe Illustrator 19.2.0, SVG Export Plug-In . SVG Version: 6.00 Build 0)  -->
<svg version="1.1" id="Layer_1" xmlns="http://www.w3.org/2000/svg" xmlns:xlink="http://www.w3.org/1999/xlink" x="0px" y="0px"
	 viewBox="0 0 266.2 169.3" style="enable-background:new 0 0 266.2 169.3;" xml:space="preserve">
<style type="text/css">
	.st0{fill:#0D92FF;}
	.st1{fill:#787878;}
	.st2{fill:none;stroke:#00325C;stroke-width:0.12;stroke-miterlimit:3;}
	.st3{fill:#00325C;}
	.st4{fill:none;stroke:#00325C;stroke-width:3.000000e-02;stroke-miterlimit:10;}
	.st5{fill:none;stroke:#00325C;stroke-width:1.000000e-02;stroke-miterlimit:10;}
	.st6{fill:none;stroke:#00325C;stroke-width:0.125;stroke-miterlimit:10;}
	.st7{fill:none;stroke:#00325C;stroke-width:1.500000e-02;stroke-miterlimit:10;}
	.st8{fill:none;stroke:#00325C;stroke-width:0.13;stroke-miterlimit:10;}
</style>
<g>
	<polygon class="st0" points="189.6,67.9 189.9,67.6 189.9,67.1 190,66.9 190.1,66.6 190,66.2 189.8,65.8 189.6,65.5 189,65 
		188.4,64.7 188.3,64.5 188.1,64.3 187.8,64.4 187.5,64.6 187.1,64.7 185.9,64.7 185.6,64.8 185.6,64.8 185.5,64.7 185.2,64.1 
		185,63.3 184.8,62.7 183.5,61 183.4,61 183.4,61 183.3,61 183,61.1 182.7,61.1 182.4,61.1 182.1,60.9 181.9,60.9 181.9,61 
		181.7,61.1 181.6,61.1 181.5,61.1 181.4,61 180.5,59.6 180.3,59.1 180.3,58.7 180.4,58.4 180.4,58.2 180.2,57.9 180.1,57.9 
		179.6,57.9 179.6,57.5 179.9,56.7 179.3,56.4 178.7,56.3 178.1,56.5 177.9,56.7 177.9,56.7 177.5,56.6 177.1,57.1 176.8,57.3 
		176.5,57.4 175.4,57.3 175.1,57.3 174.8,57.4 173.9,57.4 173.6,57.5 173.1,57.8 172.3,57.9 171.4,58.4 170.9,58.4 170.3,58.2 
		169.9,57.9 169.5,57.4 168.5,55.8 168.4,55.5 168.2,54.5 168,54.2 167.7,54.1 167.1,54.1 166.8,53.9 166.7,53.8 166.6,53.3 
		166.5,53 166.3,52.9 166,52.8 165.4,52.4 165.2,52.3 164.3,52.6 163.7,52.6 163.4,52.7 163,52.9 162.9,53.1 162.8,53.4 162.6,53.7 
		162.3,53.8 162.1,53.7 161.9,53.6 161.6,53.4 161,53.5 159.6,54.2 159.2,54.1 158.8,53.7 158.4,53.5 157.8,53.4 157.4,53.4 
		156.8,53.4 155.8,52.8 155.2,52.7 155,52.6 154.5,52.2 154.2,52 154,52 150.2,52.8 149.2,52.9 148.7,53.1 148.6,53.3 148.6,53.5 
		148.7,53.9 148.7,54.2 148.6,54.3 148.4,54.6 147.8,55.2 147.5,55.6 147.3,56 146.6,58.1 146.2,58.8 145.8,59.5 145.3,60 
		144.9,60.2 144.7,60.1 144.5,59.9 144.1,59.7 143.9,59.8 143.4,60.2 143.1,60.4 142.8,60.4 142.6,60.3 142.5,60.3 142.2,60.6 
		142.2,60.7 142.1,61.2 141.9,61.5 141.8,61.6 141.4,61.7 140.7,62.1 140,62.4 139.6,62.6 138.8,63.3 138.4,63.5 138,63.3 
		137.4,62.7 137,62.6 136.3,62.8 136.1,62.8 136,62.5 136,62.3 136.2,62.1 136.2,61.9 135.9,61.5 135.4,61.4 134.6,61.6 134.4,61.5 
		134.1,61 133.9,60.8 133.7,60.8 133.5,60.8 131.9,61.2 131.6,61.3 131.4,61.7 131.2,62.7 131,63.1 131,63.2 131.1,63.4 131.1,63.6 
		131,63.7 130.1,64.4 127.7,64.3 126.6,65 126.4,65 124.3,64.7 123.2,64.9 122.5,64.8 122.2,64.9 119.7,65.5 119.4,65.7 118.9,66.7 
		118.7,66.8 118.4,66.8 118.2,66.9 118,67.2 118,67.3 118.2,67.4 118.2,67.7 118,68.8 118,69.3 118.1,69.8 118.6,70.3 119.3,70.8 
		118.8,71 118.4,71.1 118.1,71.3 117.5,72 117.1,72.2 116.6,72.3 116.1,72.1 115.4,71.8 114.6,71.8 111,72.1 109.7,72.6 109,72.7 
		106.9,72.4 101.9,72.7 100.4,72.3 99.3,71.7 99.1,71.5 99,71.2 98.6,70.9 98.3,70.6 98,70.5 97.8,70.5 97.6,70.6 97.5,70.6 
		97.2,70.4 96.7,69.5 96.5,69.4 96.1,69.3 95.9,69.2 95.7,69 93.9,66.6 93.4,66.1 92.3,65.9 91.4,65.7 90.7,65.5 90.1,65.9 89,66.8 
		89.1,67.1 89.1,67.2 89.1,67.4 89,67.6 89,67.6 88.8,67.7 88.8,67.8 88.8,67.9 88.9,68 89,68 89,68 88.9,68.5 88.8,68.8 88.7,69.1 
		88.4,69.3 87.7,69.4 87.5,69.6 87.5,69.8 87.6,69.9 88,70.1 88.1,70.2 88.3,70.7 88.4,70.9 88.2,71.2 88.2,71.6 88.3,72.2 88.3,73 
		88.4,73.3 88.5,73.4 88.7,73.6 88.4,73.7 87.2,73.8 85.8,74.1 85.2,74 84.9,73.3 84.7,73.5 84.3,74.1 84.1,74.3 84,74.3 83,74.1 
		82.8,74 82.6,73.8 82.4,73.6 82.4,73.3 82.3,73 82.1,72.9 80.7,72.3 80,72.2 79.3,72.5 79.2,72.8 79.2,73.1 79.1,73.3 79,73.5 
		78.3,73.8 78,74 77.9,74.1 77.8,74.1 77.8,74 77.6,73.8 77.5,74 77.2,74.4 77.1,74.6 77.4,74.8 78.4,75.2 78.8,75.1 80,75.6 
		80.6,75.5 80.9,75.6 81.2,76.1 81.4,76.6 81.3,77.1 81.6,77.3 81.8,77.5 81.9,77.9 81.9,78.3 81.7,78.6 81.2,78.8 81,79 81,80 
		80.1,80.7 78.2,81.6 78,81.2 77.8,81.1 77.6,81.1 77.4,81.5 77.4,82.5 77.4,82.5 77.3,82.6 77.2,82.7 77.2,82.8 77.2,82.9 77.3,83 
		77.4,83 77.4,83 78,84.2 78,84.6 77.9,84.9 77.7,85.1 77.1,85.4 77.2,85.9 76.9,86.4 77,86.9 77.1,86.9 77.3,86.9 77.5,87.1 
		77.5,87.3 77.3,87.8 77.3,87.9 77.5,88.1 78.1,87.8 78.4,87.8 78.6,88.1 78.5,88.4 78.1,89 77.8,89.2 77.6,89.5 77.8,89.9 78.1,90 
		78.3,90.1 78.4,90.3 78.3,90.4 78.1,90.5 77.3,90.8 77.1,91 77.6,91.1 77.8,91.2 78.1,91.4 78.2,91.7 77.8,91.8 77.4,91.8 
		77.1,91.8 77,91.9 76.9,91.9 76.8,91.9 76.7,91.8 76.4,91.6 76.1,91.6 75.3,91.6 74.7,91.5 74.4,91.5 74.3,91.8 74.2,92.2 74,92.3 
		73.9,92.4 73.7,92.5 73.6,92.7 73.7,92.8 73.7,92.9 73.5,93.1 73.4,93.2 73,93.4 72.6,93.7 72.4,93.9 71.7,94.7 71.5,95 71.2,95.1 
		71.9,95.3 74.3,95.1 74.5,95.2 74.8,95.6 75,95.7 75.2,95.8 75.3,95.9 75.3,96.1 75.2,96.4 75.1,96.7 74.8,97.1 74.8,97.4 
		74.8,97.5 75,98.2 75.2,98.5 75.4,98.8 75.5,99 75.8,98.9 75.8,99.3 76,99.4 76.3,99.5 76.6,99.7 76.7,100.1 76.5,100.4 
		76.1,100.5 76,100.8 76.1,101.1 76.4,101.4 77,101.8 77.7,102.7 78.2,103.2 78.5,104.3 78.6,104.4 79.3,104.9 79.6,105.1 
		79.7,105.1 79.7,104.9 79.8,104.8 80,104.8 80.1,104.9 80.6,105 81,105.3 81.3,105.7 81.6,106.2 81.9,106.6 82.4,107 82.6,107.4 
		82.8,107.4 82.9,107.1 83,107.1 83.5,107.3 83.6,107.3 83.7,107.4 83.7,107.5 83.8,107.5 83.9,107.7 83.9,107.6 84,107.5 
		84.1,107.5 84.3,107.7 84.6,108 84.7,108.5 84.7,108.9 84.9,109.7 85.1,109.9 85.2,110 85.8,110.8 86.3,111.6 86.4,111.8 
		87.3,112.6 87.5,112.8 87.6,113.1 87.8,113.3 88.6,113.9 88.9,114.1 90.3,114.1 90.5,114.2 91.2,115.2 91.3,115.4 91.5,116.2 
		91.5,116.5 91.6,116.9 91.9,117 92.2,117.1 92.3,117.3 92.2,117.3 92,117.4 91.9,117.4 91.9,117.6 92.1,117.7 92.3,117.9 
		92.5,117.9 92.7,117.6 92.8,118.1 92.7,118.3 92.8,118.4 93.2,118.3 93.6,118.2 93.8,118.3 93.9,118.7 94,118.6 94,118.5 
		94.1,118.5 94.2,118.4 95.7,118.5 96.5,118.6 97.1,118.9 97.9,119.8 98,120.1 98.1,120.3 98.1,120.6 98.2,120.9 98.2,121.2 
		98.4,121.3 98.8,121.3 100.9,122 101.3,122.4 101.7,123 101.7,123.1 101.9,123.1 102,122.9 102.1,122.7 102.2,122.6 103.7,122.7 
		105.6,123.2 105.8,123.2 106,123.1 106.3,122.9 106.4,122.9 107.9,122.9 108.2,123 108.7,123.4 109.1,123.4 109.4,123.8 
		109.7,123.9 110.1,123.8 110.3,123.6 110.6,123.6 110.9,124 111,124 111.3,124 111.4,124 111.7,123.7 112.4,123 112.6,122.8 
		113,123 113.5,122.8 114.3,122.2 114.5,121.9 114.9,121.2 115.1,120.9 115.2,120.9 115.2,120.7 115.3,120.4 115.3,120.3 
		115.7,119.9 116.1,119.9 117,120.2 117.6,120.6 117.9,120.6 118,120.5 118.1,120.3 118.2,120.1 118.4,119.8 118.6,120 118.8,120 
		119.1,119.8 119.4,119.7 119.6,119.6 119.8,119.4 120.1,119.4 120.2,119.4 121.2,119.5 121.3,119.5 121.5,119.6 121.6,119.6 
		121.6,119.6 121.6,119.5 121.6,119.5 121.6,119.4 121.5,119.3 121.5,119.2 121.4,119.1 121.5,119 121.5,118.9 121.9,118.7 
		122.1,118.7 122.4,118.7 122.7,118.6 122.7,117.9 123,117.4 123.4,117.2 123.8,117.4 123.9,117.7 124,117.9 124.1,117.9 
		124.4,118.1 125.9,118.3 126.4,118.2 126.4,118.2 126.6,118 126.7,117.8 126.7,117.6 126.8,117.3 127.1,117.1 127.2,117 127.4,117 
		127.5,117 128.1,117 128.4,116.9 128.6,116.7 128.7,116.4 128.8,116.3 128.9,116.2 129.1,116.1 129.3,116.1 129.4,116 129.7,115.8 
		129.8,115.6 129.9,115.5 129.9,115.4 130,115.4 130.1,115.3 130.3,115.2 130.5,115.1 130.5,114.9 130.4,114.7 130.4,114.6 
		130.4,114.6 130.4,114.4 130.5,114.2 130.6,114.1 130.9,114 131.1,113.9 131.4,113.8 131.5,113.7 131.6,113.7 131.8,113.6 
		132.2,113.6 133.2,113.4 133.6,113.5 133.9,113.6 134.8,114.1 135.4,114.5 135.7,114.6 137.4,113.9 138,113.8 138.1,113.8 
		139.2,113.9 140,114.3 140.2,114.3 140.5,114.3 140.8,114.1 141,114 141.1,114 141.1,114 141.4,114.1 141.5,114.1 141.5,114.2 
		141.7,114.4 141.8,114.5 141.8,114.5 141.9,114.5 142.3,114.3 142.4,114.3 142.7,114.4 143.6,115.3 144.3,114.4 147.1,114.3 
		147.6,113.7 148.3,113.8 149,114.1 149.5,114.6 149.7,114.7 149.9,114.8 150,114.8 151,114.6 151.4,114.4 151.6,114.2 151.7,113.9 
		151.8,113.5 151.8,113.4 152,113.3 152.1,113.4 152.3,113.4 152.4,113.3 152.4,113.1 152.3,112.5 152.3,112.3 152.3,112.1 
		153,111.6 153.4,111.4 153.8,111.3 154.1,111.3 154.3,111.4 154.6,111.7 154.8,111.7 154.9,111.7 155.2,111.6 155.3,111.5 
		155.6,111.6 156.3,111.9 156.6,111.9 156.8,111.9 156.9,111.9 157.1,111.9 157.2,112.1 157.5,112.4 157.8,112.3 158.7,111.3 
		158.8,111.2 159.3,111.2 159.4,111.1 159.6,110.7 159.8,110.2 159.8,109.1 160,108.5 160.3,108.2 160.7,108.1 161.4,108 
		161.8,107.7 161.7,107.2 161.3,106.2 161.3,105.7 161.6,105.3 161.9,104.9 162.1,104.5 162.2,103.5 162.3,103 162.6,102.7 
		162.9,102.6 163.6,102.7 163.9,102.5 164.3,102 164.5,101.6 164.7,101.3 165.2,101.2 165.5,101 165.8,100.6 165.9,100.1 
		165.4,99.7 165.4,99.7 165.4,99.6 165.3,99.5 165.3,99.4 165.4,99.2 165.4,99.1 165.5,99 165.9,97.9 166.2,97.5 166.5,97.2 
		167.2,97 167.3,96.9 167.5,96.5 167.5,96.2 167.5,96 167.4,95.7 167.5,95.4 167.5,95.3 167.6,95.3 168.4,94.6 168.5,94.5 
		168.9,93.2 168.9,93.2 168.9,93.2 168.8,92.9 168.7,92.7 168.5,92.7 168.3,92.6 168.3,92.4 169,91.6 169.4,91.3 170.2,90.7 
		170.6,90.3 170.7,90.1 170.8,89.7 170.9,89.5 171,89.2 171.4,88.8 171.6,88.6 171.7,88.3 171.7,88.1 171.7,87.9 171.7,87.6 
		171.8,87.3 172,86.9 172.1,86.7 172.3,85.7 172.4,85.4 173.1,84.5 173.4,84.1 173.7,83.9 174.5,83.7 174.9,83 174.9,82.1 
		174.7,81.2 174.7,80.4 175,79.8 175.6,79.2 176.7,78.4 177.5,78.2 177.8,78 177.9,77.8 177.9,77.6 177.9,77.4 177.9,77.3 
		178.4,76.7 178.4,76.4 178.5,76 178.6,75.8 178.7,75.6 179,75.4 179.1,75.2 179.5,74.7 179.7,74.5 180.1,74.3 180.4,74.2 
		180.6,74.2 181.4,74.3 181.6,74.3 181.9,74.2 182,74 182.3,72.9 182.9,72.8 184.1,73.5 184.8,73.6 185.4,73.5 186.1,73.3 
		186.6,72.8 187,72.3 187.2,72.1 187.6,72 188,71.9 188.1,71.8 188.2,71.6 188.2,71.4 188.1,71.2 188.1,71 188.3,70.6 188.6,70.4 
		189.3,70.2 189.6,69.9 190.1,69.1 190.4,68.8 189.7,68.2 	"/>
	<g>
		<path class="st1" d="M206.8,21.1l-0.7,0l0.1-4.9l-2.1,4.9l-0.3,0l-2-5l-0.1,4.9l-0.7,0l0.1-6l1.1,0l1.8,4.5l1.9-4.5l1.1,0
			L206.8,21.1z"/>
		<path class="st1" d="M211.5,21.2l-0.7,0l0-0.5c-0.4,0.4-0.9,0.6-1.4,0.6c-0.4,0-0.8-0.1-1.1-0.4c-0.3-0.3-0.5-0.6-0.4-1.1
			c0-0.5,0.2-0.8,0.5-1.1c0.3-0.2,0.7-0.4,1.1-0.4c0.6,0,1.1,0.2,1.4,0.6l0-0.8c0-0.3-0.1-0.5-0.3-0.7c-0.2-0.2-0.5-0.2-0.8-0.3
			c-0.5,0-1,0.2-1.3,0.6l-0.3-0.5c0.5-0.5,1.1-0.7,1.7-0.7c0.5,0,0.9,0.1,1.2,0.4c0.3,0.2,0.5,0.6,0.5,1.1L211.5,21.2z M209.7,20.8
			c0.5,0,0.9-0.2,1.2-0.5l0-0.8c-0.3-0.4-0.6-0.5-1.2-0.6c-0.3,0-0.6,0.1-0.8,0.3c-0.2,0.2-0.3,0.4-0.3,0.7c0,0.3,0.1,0.5,0.3,0.7
			C209.1,20.7,209.3,20.8,209.7,20.8z"/>
		<path class="st1" d="M214.8,21.4c-0.6,0-1.2-0.2-1.6-0.7c-0.4-0.4-0.6-1-0.6-1.6c0-0.7,0.2-1.2,0.6-1.6c0.4-0.4,0.9-0.6,1.6-0.6
			c0.7,0,1.2,0.3,1.6,0.8L216,18c-0.3-0.4-0.6-0.6-1.1-0.6c-0.5,0-0.8,0.1-1.1,0.5c-0.3,0.3-0.4,0.7-0.4,1.2c0,0.5,0.1,0.9,0.4,1.2
			c0.3,0.3,0.6,0.5,1.1,0.5c0.5,0,0.8-0.2,1.1-0.6l0.4,0.4C216,21.1,215.5,21.4,214.8,21.4z"/>
		<path class="st1" d="M219.3,21.4c-0.6,0-1.2-0.2-1.6-0.7c-0.4-0.4-0.6-1-0.6-1.7c0-0.6,0.2-1.2,0.6-1.6c0.4-0.4,0.9-0.6,1.5-0.6
			c0.6,0,1.1,0.2,1.5,0.7c0.4,0.4,0.5,1,0.5,1.7l0,0.2l-3.5-0.1c0,0.4,0.2,0.8,0.5,1.1c0.3,0.3,0.6,0.4,1.1,0.4c0.5,0,1-0.2,1.3-0.5
			l0.3,0.4C220.6,21.2,220,21.4,219.3,21.4z M220.7,18.9c0-0.4-0.1-0.7-0.4-1c-0.2-0.3-0.6-0.5-1-0.5c-0.4,0-0.8,0.1-1,0.4
			c-0.3,0.3-0.4,0.6-0.4,1L220.7,18.9z"/>
		<path class="st1" d="M226.2,21.4l-0.7,0l0-0.6c-0.4,0.5-0.9,0.7-1.5,0.7c-0.6,0-1-0.2-1.4-0.6c-0.4-0.4-0.5-1-0.5-1.7
			c0-0.7,0.2-1.2,0.6-1.7c0.4-0.4,0.8-0.6,1.4-0.6c0.6,0,1.1,0.3,1.5,0.8l0-2.3l0.7,0L226.2,21.4z M224.2,20.9
			c0.3,0,0.5-0.1,0.8-0.2c0.2-0.1,0.4-0.3,0.6-0.5l0-2c-0.1-0.2-0.3-0.4-0.5-0.5c-0.2-0.1-0.5-0.2-0.7-0.2c-0.4,0-0.8,0.1-1,0.5
			c-0.3,0.3-0.4,0.7-0.4,1.2c0,0.5,0.1,0.9,0.4,1.2C223.5,20.7,223.8,20.9,224.2,20.9z"/>
		<path class="st1" d="M231,20.9c-0.4,0.4-0.9,0.6-1.6,0.6c-0.6,0-1.2-0.2-1.6-0.7c-0.4-0.4-0.6-1-0.6-1.6c0-0.6,0.2-1.2,0.6-1.6
			c0.4-0.4,0.9-0.6,1.6-0.6c0.6,0,1.2,0.2,1.6,0.7c0.4,0.4,0.6,1,0.6,1.6C231.6,20,231.4,20.5,231,20.9z M228.4,20.5
			c0.3,0.3,0.6,0.5,1.1,0.5s0.8-0.2,1.1-0.5s0.4-0.7,0.4-1.2c0-0.5-0.1-0.9-0.4-1.2c-0.3-0.3-0.6-0.5-1-0.5s-0.8,0.2-1.1,0.5
			c-0.3,0.3-0.4,0.7-0.4,1.2C228,19.7,228.2,20.1,228.4,20.5z"/>
		<path class="st1" d="M236.3,21.6l-0.7,0l0-2.8c0-0.4-0.1-0.6-0.2-0.8c-0.2-0.2-0.4-0.2-0.7-0.2c-0.3,0-0.5,0.1-0.7,0.2
			c-0.2,0.1-0.4,0.3-0.6,0.5l0,3.2l-0.7,0l0.1-4.3l0.7,0l0,0.6c0.2-0.2,0.4-0.4,0.7-0.5c0.3-0.1,0.6-0.2,0.9-0.2
			c0.9,0,1.4,0.5,1.4,1.4L236.3,21.6z"/>
		<path class="st1" d="M238.1,16.6c-0.1,0-0.2,0-0.3-0.1c-0.1-0.1-0.1-0.2-0.1-0.3c0-0.1,0-0.2,0.1-0.3c0.1-0.1,0.2-0.1,0.3-0.1
			c0.1,0,0.2,0,0.3,0.1s0.1,0.2,0.1,0.3c0,0.1,0,0.2-0.1,0.3C238.3,16.6,238.2,16.6,238.1,16.6z M238.3,21.6l-0.7,0l0.1-4.3l0.7,0
			L238.3,21.6z"/>
		<path class="st1" d="M243.1,21.7l-0.7,0l0-0.5c-0.4,0.4-0.9,0.6-1.4,0.6c-0.4,0-0.8-0.1-1.1-0.4c-0.3-0.3-0.5-0.6-0.4-1.1
			c0-0.5,0.2-0.8,0.5-1.1c0.3-0.2,0.7-0.4,1.1-0.4c0.6,0,1.1,0.2,1.4,0.6l0-0.8c0-0.3-0.1-0.5-0.3-0.7s-0.5-0.2-0.8-0.3
			c-0.5,0-1,0.2-1.3,0.6l-0.3-0.5c0.5-0.5,1.1-0.7,1.7-0.7c0.5,0,0.9,0.1,1.2,0.4c0.3,0.2,0.5,0.6,0.5,1.1L243.1,21.7z M241.2,21.2
			c0.5,0,0.9-0.2,1.2-0.5l0-0.8c-0.3-0.4-0.6-0.5-1.2-0.6c-0.3,0-0.6,0.1-0.8,0.3c-0.2,0.2-0.3,0.4-0.3,0.7c0,0.3,0.1,0.5,0.3,0.7
			C240.7,21.2,240.9,21.2,241.2,21.2z"/>
	</g>
	<g>
		<path class="st1" d="M203,62.5l-2.7,0l0.1-6l2.7,0c0.5,0,0.9,0.2,1.2,0.4c0.3,0.3,0.4,0.7,0.4,1.1c0,0.4-0.1,0.7-0.3,0.9
			s-0.5,0.4-0.8,0.5c0.3,0.1,0.6,0.2,0.8,0.5c0.2,0.3,0.3,0.6,0.3,1c0,0.5-0.2,0.9-0.5,1.2C204,62.4,203.6,62.6,203,62.5z
			 M202.9,59.1c0.3,0,0.6-0.1,0.8-0.3c0.2-0.2,0.3-0.4,0.3-0.7c0-0.3-0.1-0.5-0.3-0.7c-0.2-0.2-0.4-0.3-0.8-0.3l-1.8,0l0,1.9
			L202.9,59.1z M202.9,61.9c0.3,0,0.6-0.1,0.8-0.3c0.2-0.2,0.3-0.4,0.3-0.8c0-0.3-0.1-0.5-0.3-0.7c-0.2-0.2-0.5-0.3-0.8-0.3l-1.8,0
			l0,2.1L202.9,61.9z"/>
		<path class="st1" d="M209.3,62.6l-0.7,0l0-0.5c-0.4,0.4-0.9,0.6-1.4,0.6c-0.4,0-0.8-0.1-1.1-0.4c-0.3-0.3-0.5-0.6-0.4-1.1
			c0-0.5,0.2-0.8,0.5-1.1c0.3-0.2,0.7-0.4,1.1-0.4c0.6,0,1.1,0.2,1.4,0.6l0-0.8c0-0.3-0.1-0.5-0.3-0.7c-0.2-0.2-0.5-0.2-0.8-0.3
			c-0.5,0-1,0.2-1.3,0.6l-0.3-0.5c0.5-0.5,1.1-0.7,1.7-0.7c0.5,0,0.9,0.1,1.2,0.4c0.3,0.2,0.5,0.6,0.5,1.1L209.3,62.6z M207.4,62.2
			c0.5,0,0.9-0.2,1.2-0.5l0-0.8c-0.3-0.4-0.6-0.5-1.2-0.6c-0.3,0-0.6,0.1-0.8,0.3c-0.2,0.2-0.3,0.4-0.3,0.7c0,0.3,0.1,0.5,0.3,0.7
			C206.9,62.1,207.1,62.2,207.4,62.2z"/>
		<path class="st1" d="M214.3,62.7l-0.7,0l0-2.8c0-0.4-0.1-0.6-0.2-0.8c-0.2-0.2-0.4-0.2-0.7-0.2c-0.3,0-0.5,0.1-0.7,0.2
			c-0.2,0.1-0.4,0.3-0.6,0.5l0,3.2l-0.7,0l0.1-4.3l0.7,0l0,0.6c0.2-0.2,0.4-0.4,0.7-0.5c0.3-0.1,0.6-0.2,0.9-0.2
			c0.9,0,1.4,0.5,1.4,1.4L214.3,62.7z"/>
		<path class="st1" d="M217.3,64.5c-0.4,0-0.7-0.1-1-0.2c-0.3-0.1-0.5-0.3-0.8-0.5l0.3-0.5c0.3,0.4,0.8,0.6,1.4,0.6
			c0.4,0,0.7-0.1,1-0.3c0.3-0.2,0.4-0.5,0.4-1l0-0.6c-0.2,0.2-0.4,0.4-0.6,0.5c-0.3,0.1-0.5,0.2-0.8,0.2c-0.6,0-1-0.2-1.4-0.6
			c-0.4-0.4-0.5-1-0.5-1.7c0-0.7,0.2-1.2,0.6-1.6c0.4-0.4,0.8-0.6,1.4-0.6c0.6,0,1.1,0.3,1.4,0.8l0-0.7l0.7,0l-0.1,4.2
			c0,0.7-0.2,1.1-0.6,1.4C218.4,64.4,217.9,64.5,217.3,64.5z M217.5,62.2c0.3,0,0.5-0.1,0.8-0.2c0.2-0.1,0.4-0.3,0.6-0.5l0-1.9
			c-0.1-0.2-0.3-0.4-0.5-0.5s-0.5-0.2-0.8-0.2c-0.4,0-0.8,0.1-1,0.4c-0.3,0.3-0.4,0.7-0.4,1.2c0,0.5,0.1,0.9,0.4,1.2
			C216.7,62,217,62.2,217.5,62.2z"/>
		<path class="st1" d="M221.5,62.8l-0.7,0l0.1-6l0.7,0L221.5,62.8z"/>
		<path class="st1" d="M226.2,62.9l-0.7,0l0-0.5c-0.4,0.4-0.9,0.6-1.4,0.6c-0.4,0-0.8-0.1-1.1-0.4c-0.3-0.3-0.5-0.6-0.4-1.1
			c0-0.5,0.2-0.8,0.5-1.1c0.3-0.2,0.7-0.4,1.1-0.4c0.6,0,1.1,0.2,1.4,0.6l0-0.8c0-0.3-0.1-0.5-0.3-0.7c-0.2-0.2-0.5-0.2-0.8-0.3
			c-0.5,0-1,0.2-1.3,0.6l-0.3-0.5c0.5-0.5,1.1-0.7,1.7-0.7c0.5,0,0.9,0.1,1.2,0.4c0.3,0.2,0.5,0.6,0.5,1.1L226.2,62.9z M224.3,62.5
			c0.5,0,0.9-0.2,1.2-0.5l0-0.8c-0.3-0.4-0.6-0.5-1.2-0.6c-0.3,0-0.6,0.1-0.8,0.3c-0.2,0.2-0.3,0.4-0.3,0.7c0,0.3,0.1,0.5,0.3,0.7
			C223.8,62.4,224,62.5,224.3,62.5z"/>
		<path class="st1" d="M231.4,62.9l-0.7,0l0-0.6c-0.4,0.5-0.9,0.7-1.5,0.7c-0.6,0-1-0.2-1.4-0.6c-0.4-0.4-0.5-1-0.5-1.7
			c0-0.7,0.2-1.2,0.6-1.7c0.4-0.4,0.8-0.6,1.4-0.6c0.6,0,1.1,0.3,1.5,0.8l0-2.3l0.7,0L231.4,62.9z M229.4,62.4
			c0.3,0,0.5-0.1,0.8-0.2c0.2-0.1,0.4-0.3,0.6-0.5l0-2c-0.1-0.2-0.3-0.4-0.5-0.5c-0.2-0.1-0.5-0.2-0.7-0.2c-0.4,0-0.8,0.1-1,0.5
			c-0.3,0.3-0.4,0.7-0.4,1.2c0,0.5,0.1,0.9,0.4,1.2C228.6,62.3,229,62.4,229.4,62.4z"/>
		<path class="st1" d="M234.7,63.1c-0.6,0-1.2-0.2-1.6-0.7c-0.4-0.4-0.6-1-0.6-1.7c0-0.6,0.2-1.2,0.6-1.6c0.4-0.4,0.9-0.6,1.5-0.6
			c0.6,0,1.1,0.2,1.5,0.7c0.4,0.4,0.5,1,0.5,1.7l0,0.2l-3.5-0.1c0,0.4,0.2,0.8,0.5,1.1c0.3,0.3,0.6,0.4,1.1,0.4c0.5,0,1-0.2,1.3-0.5
			l0.3,0.4C236,62.9,235.4,63.1,234.7,63.1z M236.1,60.6c0-0.4-0.1-0.7-0.4-1c-0.2-0.3-0.6-0.5-1-0.5c-0.4,0-0.8,0.1-1,0.4
			c-0.3,0.3-0.4,0.6-0.4,1L236.1,60.6z"/>
		<path class="st1" d="M239.2,63.2c-0.7,0-1.3-0.2-1.7-0.7l0.4-0.5c0.1,0.2,0.4,0.3,0.6,0.4c0.3,0.1,0.5,0.2,0.8,0.2
			c0.3,0,0.6-0.1,0.8-0.2c0.2-0.1,0.3-0.3,0.3-0.5c0-0.2-0.1-0.3-0.3-0.5c-0.2-0.1-0.4-0.2-0.7-0.3c-0.3-0.1-0.5-0.1-0.8-0.2
			c-0.3-0.1-0.5-0.2-0.7-0.4c-0.2-0.2-0.3-0.4-0.3-0.7c0-0.4,0.2-0.6,0.4-0.9c0.3-0.2,0.7-0.4,1.2-0.3c0.7,0,1.2,0.2,1.6,0.7
			l-0.3,0.5c-0.3-0.4-0.7-0.6-1.3-0.6c-0.3,0-0.5,0.1-0.7,0.2c-0.2,0.1-0.3,0.3-0.3,0.5c0,0.2,0.1,0.3,0.3,0.4
			c0.2,0.1,0.4,0.2,0.7,0.2c0.3,0.1,0.5,0.1,0.8,0.2s0.5,0.2,0.7,0.4c0.2,0.2,0.3,0.5,0.3,0.8c0,0.4-0.2,0.7-0.5,0.9
			C240.1,63.1,239.7,63.2,239.2,63.2z"/>
		<path class="st1" d="M245.6,63.2l-0.7,0l0-2.9c0-0.4-0.1-0.6-0.2-0.8c-0.2-0.2-0.4-0.2-0.7-0.2c-0.2,0-0.5,0.1-0.7,0.2
			c-0.2,0.1-0.4,0.3-0.6,0.5l0,3.2l-0.7,0l0.1-6l0.7,0l0,2.3c0.2-0.2,0.4-0.4,0.7-0.5c0.3-0.1,0.6-0.2,0.9-0.2
			c0.9,0,1.4,0.5,1.4,1.4L245.6,63.2z"/>
	</g>
	<g>
		<path class="st1" d="M202.7,92.4c-0.9,0-1.6-0.3-2.2-0.9c-0.6-0.6-0.9-1.3-0.9-2.2s0.3-1.7,0.9-2.2c0.6-0.6,1.3-0.9,2.2-0.8
			c1,0,1.7,0.4,2.3,1.2l-0.6,0.3c-0.2-0.3-0.4-0.5-0.7-0.6c-0.3-0.2-0.6-0.3-0.9-0.3c-0.7,0-1.2,0.2-1.7,0.7s-0.7,1-0.7,1.7
			c0,0.7,0.2,1.3,0.6,1.8c0.4,0.5,1,0.7,1.6,0.7c0.3,0,0.7-0.1,0.9-0.2c0.3-0.2,0.5-0.4,0.7-0.6l0.6,0.4
			C204.4,92,203.6,92.4,202.7,92.4z"/>
		<path class="st1" d="M209.4,91.8c-0.4,0.4-0.9,0.6-1.6,0.6c-0.6,0-1.2-0.2-1.6-0.7c-0.4-0.4-0.6-1-0.6-1.6c0-0.6,0.2-1.2,0.6-1.6
			c0.4-0.4,0.9-0.6,1.6-0.6c0.6,0,1.2,0.2,1.6,0.7c0.4,0.4,0.6,1,0.6,1.6C210,90.8,209.8,91.4,209.4,91.8z M206.8,91.3
			c0.3,0.3,0.6,0.5,1.1,0.5s0.8-0.2,1.1-0.5c0.3-0.3,0.4-0.7,0.4-1.2c0-0.5-0.1-0.9-0.4-1.2c-0.3-0.3-0.6-0.5-1-0.5
			s-0.8,0.2-1.1,0.5c-0.3,0.3-0.4,0.7-0.4,1.2C206.4,90.6,206.5,91,206.8,91.3z"/>
		<path class="st1" d="M214.7,92.4l-0.7,0l0-2.8c0-0.4-0.1-0.6-0.2-0.8c-0.2-0.2-0.4-0.2-0.7-0.2c-0.3,0-0.5,0.1-0.7,0.2
			c-0.2,0.1-0.4,0.3-0.6,0.5l0,3.2l-0.7,0l0.1-4.3l0.7,0l0,0.6c0.2-0.2,0.4-0.4,0.7-0.5c0.3-0.1,0.6-0.2,0.9-0.2
			c0.9,0,1.4,0.5,1.4,1.4L214.7,92.4z"/>
		<path class="st1" d="M217.7,94.2c-0.4,0-0.7-0.1-1-0.2c-0.3-0.1-0.5-0.3-0.8-0.5l0.3-0.5c0.3,0.4,0.8,0.6,1.4,0.6
			c0.4,0,0.7-0.1,1-0.3c0.3-0.2,0.4-0.5,0.4-1l0-0.6c-0.2,0.2-0.4,0.4-0.6,0.5c-0.3,0.1-0.5,0.2-0.8,0.2c-0.6,0-1-0.2-1.4-0.6
			c-0.4-0.4-0.5-1-0.5-1.7c0-0.7,0.2-1.2,0.6-1.6c0.4-0.4,0.8-0.6,1.4-0.6c0.6,0,1.1,0.3,1.4,0.8l0-0.7l0.7,0l-0.1,4.2
			c0,0.7-0.2,1.1-0.6,1.4C218.8,94.1,218.3,94.3,217.7,94.2z M217.9,91.9c0.3,0,0.5-0.1,0.8-0.2c0.2-0.1,0.4-0.3,0.6-0.5l0-1.9
			c-0.1-0.2-0.3-0.4-0.5-0.5c-0.2-0.1-0.5-0.2-0.8-0.2c-0.4,0-0.8,0.1-1,0.4c-0.3,0.3-0.4,0.7-0.4,1.2c0,0.5,0.1,0.9,0.4,1.2
			C217.1,91.8,217.4,91.9,217.9,91.9z"/>
		<path class="st1" d="M224.7,92c-0.4,0.4-0.9,0.6-1.6,0.6c-0.6,0-1.2-0.2-1.6-0.7c-0.4-0.4-0.6-1-0.6-1.6c0-0.6,0.2-1.2,0.6-1.6
			c0.4-0.4,0.9-0.6,1.6-0.6c0.6,0,1.2,0.2,1.6,0.7c0.4,0.4,0.6,1,0.6,1.6C225.3,91.1,225.1,91.6,224.7,92z M222,91.6
			c0.3,0.3,0.6,0.5,1,0.5c0.4,0,0.8-0.2,1.1-0.5c0.3-0.3,0.4-0.7,0.4-1.2c0-0.5-0.1-0.9-0.4-1.2s-0.6-0.5-1-0.5
			c-0.4,0-0.8,0.2-1.1,0.5c-0.3,0.3-0.4,0.7-0.4,1.2C221.7,90.8,221.8,91.2,222,91.6z"/>
	</g>
	<g>
		<path class="st1" d="M204,123.2l-0.9,0l-2.2-2.7l-0.6,0.7l0,2l-0.7,0l0.1-6l0.7,0l0,3.1l2.7-3.1l0.9,0l-2.5,2.8L204,123.2z"/>
		<path class="st1" d="M208,122.7c-0.4,0.4-0.9,0.6-1.6,0.6c-0.6,0-1.2-0.2-1.6-0.7c-0.4-0.4-0.6-1-0.6-1.6c0-0.6,0.2-1.2,0.6-1.6
			c0.4-0.4,0.9-0.6,1.6-0.6s1.2,0.2,1.6,0.7c0.4,0.4,0.6,1,0.6,1.6C208.6,121.7,208.4,122.3,208,122.7z M205.3,122.2
			c0.3,0.3,0.6,0.5,1,0.5c0.4,0,0.8-0.2,1.1-0.5s0.4-0.7,0.4-1.2c0-0.5-0.1-0.9-0.4-1.2c-0.3-0.3-0.6-0.5-1-0.5
			c-0.4,0-0.8,0.2-1.1,0.5c-0.3,0.3-0.4,0.7-0.4,1.2C205,121.5,205.1,121.9,205.3,122.2z"/>
		<path class="st1" d="M211,123.4c-0.7,0-1.3-0.2-1.7-0.7l0.4-0.5c0.1,0.2,0.4,0.3,0.6,0.5c0.3,0.1,0.5,0.2,0.8,0.2
			c0.3,0,0.6-0.1,0.8-0.2c0.2-0.1,0.3-0.3,0.3-0.5c0-0.2-0.1-0.3-0.3-0.5c-0.2-0.1-0.4-0.2-0.7-0.3c-0.3-0.1-0.5-0.1-0.8-0.2
			c-0.3-0.1-0.5-0.2-0.7-0.4c-0.2-0.2-0.3-0.4-0.3-0.7c0-0.4,0.2-0.6,0.4-0.9c0.3-0.2,0.7-0.3,1.2-0.3c0.7,0,1.2,0.2,1.6,0.7
			l-0.3,0.5c-0.3-0.4-0.7-0.6-1.3-0.6c-0.3,0-0.5,0.1-0.7,0.2c-0.2,0.1-0.3,0.3-0.3,0.5c0,0.2,0.1,0.3,0.3,0.4
			c0.2,0.1,0.4,0.2,0.7,0.2c0.3,0.1,0.5,0.1,0.8,0.2c0.3,0.1,0.5,0.2,0.7,0.4c0.2,0.2,0.3,0.5,0.3,0.8c0,0.4-0.2,0.7-0.5,0.9
			C212,123.3,211.6,123.4,211,123.4z"/>
		<path class="st1" d="M217.3,122.8c-0.4,0.4-0.9,0.6-1.6,0.6c-0.6,0-1.2-0.2-1.6-0.7c-0.4-0.4-0.6-1-0.6-1.6c0-0.6,0.2-1.2,0.6-1.6
			c0.4-0.4,0.9-0.6,1.6-0.6c0.6,0,1.2,0.2,1.6,0.7c0.4,0.4,0.6,1,0.6,1.6C217.9,121.9,217.7,122.4,217.3,122.8z M214.7,122.4
			c0.3,0.3,0.6,0.5,1.1,0.5c0.4,0,0.8-0.2,1.1-0.5c0.3-0.3,0.4-0.7,0.4-1.2c0-0.5-0.1-0.9-0.4-1.2c-0.3-0.3-0.6-0.5-1-0.5
			c-0.4,0-0.8,0.2-1.1,0.5c-0.3,0.3-0.4,0.7-0.4,1.2C214.3,121.6,214.4,122,214.7,122.4z"/>
		<path class="st1" d="M220.9,123.4l-0.7,0l-1.7-4.4l0.7,0l1.4,3.6l1.5-3.5l0.7,0L220.9,123.4z"/>
		<path class="st1" d="M226.8,123c-0.4,0.4-0.9,0.6-1.6,0.6c-0.6,0-1.2-0.2-1.6-0.7c-0.4-0.4-0.6-1-0.6-1.6c0-0.6,0.2-1.2,0.6-1.6
			c0.4-0.4,0.9-0.6,1.6-0.6c0.6,0,1.2,0.2,1.6,0.7c0.4,0.4,0.6,1,0.6,1.6C227.5,122,227.2,122.5,226.8,123z M224.2,122.5
			c0.3,0.3,0.6,0.5,1,0.5c0.4,0,0.8-0.2,1.1-0.5c0.3-0.3,0.4-0.7,0.4-1.2c0-0.5-0.1-0.9-0.4-1.2c-0.3-0.3-0.6-0.5-1-0.5
			c-0.4,0-0.8,0.2-1.1,0.5c-0.3,0.3-0.4,0.7-0.4,1.2C223.9,121.8,224,122.2,224.2,122.5z"/>
	</g>
	<g>
		<path class="st1" d="M28.9,30.7l-0.7,0l0.1-6l2.4,0c0.6,0,1,0.2,1.4,0.5c0.3,0.4,0.5,0.8,0.5,1.3c0,0.5-0.2,0.9-0.5,1.3
			c-0.3,0.3-0.8,0.5-1.4,0.5l-1.7,0L28.9,30.7z M30.5,27.7c0.4,0,0.6-0.1,0.9-0.3c0.2-0.2,0.3-0.5,0.3-0.8c0-0.3-0.1-0.6-0.3-0.8
			c-0.2-0.2-0.5-0.3-0.9-0.3l-1.6,0l0,2.3L30.5,27.7z"/>
		<path class="st1" d="M36.6,30.8l-0.7,0l0-0.5c-0.4,0.4-0.9,0.6-1.4,0.6c-0.4,0-0.8-0.1-1.1-0.4c-0.3-0.3-0.5-0.6-0.4-1.1
			c0-0.5,0.2-0.8,0.5-1.1c0.3-0.2,0.7-0.4,1.1-0.4c0.6,0,1.1,0.2,1.4,0.6l0-0.8c0-0.3-0.1-0.5-0.3-0.7c-0.2-0.2-0.5-0.2-0.8-0.3
			c-0.5,0-1,0.2-1.3,0.6L33.3,27c0.5-0.5,1.1-0.7,1.7-0.7c0.5,0,0.9,0.1,1.2,0.4c0.3,0.2,0.5,0.6,0.5,1.1L36.6,30.8z M34.8,30.4
			c0.5,0,0.9-0.2,1.2-0.5l0-0.8c-0.3-0.4-0.7-0.5-1.2-0.6c-0.3,0-0.6,0.1-0.8,0.3c-0.2,0.2-0.3,0.4-0.3,0.7c0,0.3,0.1,0.5,0.3,0.7
			C34.2,30.3,34.4,30.4,34.8,30.4z"/>
		<path class="st1" d="M38.6,30.9l-0.7,0l0.1-6l0.7,0L38.6,30.9z"/>
		<path class="st1" d="M42,31c-0.6,0-1.2-0.2-1.6-0.7c-0.4-0.4-0.6-1-0.6-1.7c0-0.6,0.2-1.2,0.6-1.6c0.4-0.4,0.9-0.6,1.5-0.6
			c0.6,0,1.1,0.2,1.5,0.7c0.4,0.4,0.5,1,0.5,1.7l0,0.2l-3.5-0.1c0,0.4,0.2,0.8,0.5,1.1c0.3,0.3,0.6,0.4,1.1,0.4c0.5,0,1-0.2,1.3-0.5
			l0.3,0.4C43.2,30.8,42.7,31,42,31z M43.3,28.5c0-0.4-0.1-0.7-0.4-1c-0.2-0.3-0.6-0.5-1-0.5c-0.4,0-0.8,0.1-1,0.4
			c-0.3,0.3-0.4,0.6-0.4,1L43.3,28.5z"/>
		<path class="st1" d="M46.4,31.1c-0.7,0-1.3-0.2-1.7-0.7l0.4-0.5c0.1,0.2,0.4,0.3,0.6,0.4c0.3,0.1,0.5,0.2,0.8,0.2
			c0.3,0,0.6-0.1,0.8-0.2c0.2-0.1,0.3-0.3,0.3-0.5c0-0.2-0.1-0.3-0.3-0.5c-0.2-0.1-0.4-0.2-0.7-0.3s-0.5-0.1-0.8-0.2
			c-0.3-0.1-0.5-0.2-0.7-0.4c-0.2-0.2-0.3-0.4-0.3-0.7c0-0.4,0.2-0.6,0.4-0.9s0.7-0.4,1.2-0.3c0.7,0,1.2,0.2,1.6,0.7l-0.3,0.5
			c-0.3-0.4-0.7-0.6-1.3-0.6c-0.3,0-0.5,0.1-0.7,0.2c-0.2,0.1-0.3,0.3-0.3,0.5c0,0.2,0.1,0.3,0.3,0.4c0.2,0.1,0.4,0.2,0.7,0.2
			c0.3,0.1,0.5,0.1,0.8,0.2c0.3,0.1,0.5,0.2,0.7,0.4c0.2,0.2,0.3,0.5,0.3,0.8c0,0.4-0.2,0.7-0.5,0.9C47.4,31,47,31.1,46.4,31.1z"/>
		<path class="st1" d="M50.3,31.1c-0.3,0-0.6-0.1-0.7-0.3s-0.2-0.4-0.2-0.8l0-2.8l-0.7,0l0-0.6l0.7,0l0-1.2l0.7,0l0,1.2l0.9,0l0,0.6
			l-0.9,0l0,2.7c0,0.2,0,0.3,0.1,0.4c0.1,0.1,0.2,0.2,0.3,0.2c0.2,0,0.4-0.1,0.5-0.2l0.2,0.5C51,31.1,50.7,31.1,50.3,31.1z"/>
		<path class="st1" d="M52.3,26.1c-0.1,0-0.2,0-0.3-0.1c-0.1-0.1-0.1-0.2-0.1-0.3c0-0.1,0-0.2,0.1-0.3c0.1-0.1,0.2-0.1,0.3-0.1
			c0.1,0,0.2,0,0.3,0.1c0.1,0.1,0.1,0.2,0.1,0.3c0,0.1,0,0.2-0.1,0.3C52.5,26,52.4,26.1,52.3,26.1z M52.6,31.1l-0.7,0l0.1-4.3l0.7,0
			L52.6,31.1z"/>
		<path class="st1" d="M57.5,31.1l-0.7,0l0-2.8c0-0.4-0.1-0.6-0.2-0.8c-0.2-0.2-0.4-0.2-0.7-0.2c-0.3,0-0.5,0.1-0.7,0.2
			c-0.2,0.1-0.4,0.3-0.6,0.5l0,3.2l-0.7,0l0.1-4.3l0.7,0l0,0.6c0.2-0.2,0.4-0.4,0.7-0.5s0.6-0.2,0.9-0.2c0.9,0,1.4,0.5,1.4,1.4
			L57.5,31.1z"/>
		<path class="st1" d="M60.8,31.3c-0.6,0-1.2-0.2-1.6-0.7c-0.4-0.4-0.6-1-0.6-1.7c0-0.6,0.2-1.2,0.6-1.6c0.4-0.4,0.9-0.6,1.5-0.6
			c0.6,0,1.1,0.2,1.5,0.7c0.4,0.4,0.5,1,0.5,1.7l0,0.2l-3.5-0.1c0,0.4,0.2,0.8,0.5,1.1c0.3,0.3,0.6,0.4,1.1,0.4c0.5,0,1-0.2,1.3-0.5
			l0.3,0.4C62.1,31.1,61.5,31.3,60.8,31.3z M62.2,28.7c0-0.4-0.1-0.7-0.4-1c-0.2-0.3-0.6-0.5-1-0.5c-0.4,0-0.8,0.1-1,0.4
			c-0.3,0.3-0.4,0.6-0.4,1L62.2,28.7z"/>
	</g>
	<g>
		<path class="st1" d="M126.3,20.1l-0.7,0l0.1-6l0.7,0L126.3,20.1z"/>
		<path class="st1" d="M128.4,20.1l-0.7,0l0.1-4.3l0.7,0l0,0.7c0.4-0.5,0.9-0.8,1.5-0.8l0,0.7c-0.1,0-0.2,0-0.3,0
			c-0.2,0-0.4,0.1-0.7,0.2c-0.2,0.1-0.4,0.3-0.5,0.5L128.4,20.1z"/>
		<path class="st1" d="M134.1,20.2l-0.7,0l0-0.5c-0.4,0.4-0.9,0.6-1.4,0.6c-0.4,0-0.8-0.1-1.1-0.4c-0.3-0.3-0.5-0.6-0.4-1.1
			c0-0.5,0.2-0.8,0.5-1.1c0.3-0.2,0.7-0.4,1.1-0.4c0.6,0,1.1,0.2,1.4,0.6l0-0.8c0-0.3-0.1-0.5-0.3-0.7c-0.2-0.2-0.5-0.2-0.8-0.3
			c-0.5,0-1,0.2-1.3,0.6l-0.3-0.5c0.5-0.5,1.1-0.7,1.7-0.7c0.5,0,0.9,0.1,1.2,0.4c0.3,0.2,0.5,0.6,0.5,1.1L134.1,20.2z M132.2,19.8
			c0.5,0,0.9-0.2,1.2-0.5l0-0.8c-0.3-0.4-0.6-0.5-1.2-0.6c-0.3,0-0.6,0.1-0.8,0.3s-0.3,0.4-0.3,0.7c0,0.3,0.1,0.5,0.3,0.7
			C131.6,19.7,131.9,19.8,132.2,19.8z"/>
		<path class="st1" d="M137.1,20.3c-0.6,0-1-0.2-1.4-0.6c-0.4-0.4-0.5-1-0.5-1.7c0-0.7,0.2-1.2,0.6-1.7c0.4-0.4,0.8-0.6,1.4-0.6
			c0.3,0,0.6,0.1,0.8,0.2c0.3,0.1,0.5,0.3,0.6,0.6l0-0.6l0.7,0l-0.1,6l-0.7,0l0-2.3C138.2,20.1,137.7,20.3,137.1,20.3z M137.3,19.7
			c0.3,0,0.5-0.1,0.8-0.2c0.2-0.1,0.4-0.3,0.5-0.5l0-2c-0.1-0.2-0.3-0.4-0.5-0.5c-0.2-0.1-0.5-0.2-0.8-0.2c-0.4,0-0.8,0.1-1,0.5
			c-0.3,0.3-0.4,0.7-0.4,1.2c0,0.5,0.1,0.9,0.4,1.2C136.5,19.5,136.8,19.7,137.3,19.7z"/>
	</g>
	<g>
		<path class="st1" d="M44.9,146c-1,0-1.7-0.3-2.3-1l0.4-0.6c0.5,0.6,1.1,0.9,1.9,0.9c0.5,0,0.8-0.1,1.1-0.3
			c0.2-0.2,0.3-0.4,0.4-0.7c0-0.2-0.1-0.4-0.2-0.5c-0.1-0.1-0.3-0.3-0.5-0.3c-0.2-0.1-0.4-0.2-0.7-0.2c-0.3-0.1-0.5-0.1-0.8-0.2
			c-0.3-0.1-0.5-0.2-0.7-0.3c-0.2-0.1-0.4-0.3-0.5-0.5c-0.1-0.2-0.2-0.5-0.2-0.7c0-0.5,0.2-0.9,0.6-1.2c0.4-0.3,0.9-0.5,1.5-0.4
			c0.9,0,1.6,0.3,2.1,0.9l-0.5,0.5c-0.4-0.5-1-0.7-1.7-0.7c-0.4,0-0.7,0.1-0.9,0.3c-0.2,0.2-0.4,0.4-0.4,0.7c0,0.2,0.1,0.4,0.3,0.5
			c0.2,0.1,0.4,0.2,0.7,0.3c0.3,0.1,0.5,0.2,0.9,0.3c0.3,0.1,0.6,0.2,0.9,0.3c0.3,0.1,0.5,0.3,0.6,0.5c0.2,0.2,0.3,0.5,0.3,0.9
			c0,0.5-0.2,0.9-0.6,1.2S45.6,146.1,44.9,146z"/>
		<path class="st1" d="M47.9,147.7l0.1-0.6c0.1,0,0.2,0.1,0.4,0.1c0.2,0,0.3,0,0.4-0.1c0.1-0.1,0.2-0.2,0.3-0.4l0.3-0.7l-1.8-4.4
			l0.7,0l1.4,3.6l1.5-3.5l0.7,0l-2.3,5.2c-0.2,0.6-0.7,0.9-1.3,0.9C48.2,147.8,48,147.7,47.9,147.7z"/>
		<path class="st1" d="M53.2,146.1l-0.7,0l0.1-4.3l0.7,0l0,0.7c0.4-0.5,0.9-0.8,1.5-0.8l0,0.7c-0.1,0-0.2,0-0.3,0
			c-0.2,0-0.4,0.1-0.7,0.2c-0.2,0.1-0.4,0.3-0.5,0.5L53.2,146.1z"/>
		<path class="st1" d="M55.9,141.1c-0.1,0-0.2,0-0.3-0.1c-0.1-0.1-0.1-0.2-0.1-0.3c0-0.1,0-0.2,0.1-0.3c0.1-0.1,0.2-0.1,0.3-0.1
			c0.1,0,0.2,0,0.3,0.1c0.1,0.1,0.1,0.2,0.1,0.3s0,0.2-0.1,0.3C56.2,141.1,56.1,141.1,55.9,141.1z M56.2,146.1l-0.7,0l0.1-4.3l0.7,0
			L56.2,146.1z"/>
		<path class="st1" d="M60.9,146.2l-0.7,0l0-0.5c-0.4,0.4-0.9,0.6-1.4,0.6c-0.4,0-0.8-0.1-1.1-0.4c-0.3-0.3-0.5-0.6-0.4-1.1
			c0-0.5,0.2-0.8,0.5-1.1c0.3-0.2,0.7-0.4,1.1-0.4c0.6,0,1.1,0.2,1.4,0.6l0-0.8c0-0.3-0.1-0.5-0.3-0.7c-0.2-0.2-0.5-0.2-0.8-0.3
			c-0.5,0-1,0.2-1.3,0.6l-0.3-0.5c0.5-0.5,1.1-0.7,1.7-0.7c0.5,0,0.9,0.1,1.2,0.4c0.3,0.2,0.5,0.6,0.5,1.1L60.9,146.2z M59.1,145.8
			c0.5,0,0.9-0.2,1.2-0.5l0-0.8c-0.3-0.4-0.6-0.5-1.2-0.6c-0.3,0-0.6,0.1-0.8,0.3c-0.2,0.2-0.3,0.4-0.3,0.7c0,0.3,0.1,0.5,0.3,0.7
			C58.5,145.7,58.8,145.8,59.1,145.8z"/>
	</g>
	<g>
		<path class="st1" d="M21.9,59.5l-0.9,0l-0.5-1.3l-3,0L17,59.4l-0.9,0l2.5-6l0.9,0L21.9,59.5z M20.3,57.5l-1.2-3.2l-1.3,3.2
			L20.3,57.5z"/>
		<path class="st1" d="M23.5,59.5l-0.7,0l0.1-3.8l-0.7,0l0-0.6l0.7,0l0-0.3c0-0.4,0.1-0.8,0.4-1c0.2-0.2,0.5-0.4,0.9-0.4
			c0.4,0,0.7,0.1,0.9,0.3l-0.3,0.4c-0.2-0.1-0.3-0.2-0.5-0.2c-0.2,0-0.4,0.1-0.5,0.2c-0.1,0.1-0.2,0.4-0.2,0.6l0,0.3l0.9,0l0,0.6
			l-0.9,0L23.5,59.5z"/>
		<path class="st1" d="M26.9,61.3c-0.4,0-0.7-0.1-1-0.2s-0.5-0.3-0.8-0.5l0.3-0.5c0.3,0.4,0.8,0.6,1.4,0.6c0.4,0,0.7-0.1,1-0.3
			c0.3-0.2,0.4-0.5,0.4-1l0-0.6c-0.2,0.2-0.4,0.4-0.6,0.5c-0.3,0.1-0.5,0.2-0.8,0.2c-0.6,0-1-0.2-1.4-0.6c-0.4-0.4-0.5-1-0.5-1.6
			c0-0.7,0.2-1.2,0.6-1.6c0.4-0.4,0.8-0.6,1.4-0.6c0.6,0,1.1,0.3,1.4,0.8l0-0.7l0.7,0L29,59.5c0,0.7-0.2,1.1-0.6,1.4
			C28,61.2,27.5,61.3,26.9,61.3z M27,59c0.3,0,0.5-0.1,0.8-0.2c0.2-0.1,0.4-0.3,0.6-0.5l0-1.9c-0.1-0.2-0.3-0.4-0.5-0.5
			c-0.2-0.1-0.5-0.2-0.8-0.2c-0.4,0-0.8,0.1-1,0.4s-0.4,0.7-0.4,1.2c0,0.5,0.1,0.9,0.4,1.2C26.2,58.9,26.6,59,27,59z"/>
		<path class="st1" d="M33.9,59.7l-0.7,0l0-2.9c0-0.4-0.1-0.6-0.2-0.8c-0.2-0.2-0.4-0.2-0.7-0.2c-0.2,0-0.5,0.1-0.7,0.2
			c-0.2,0.1-0.4,0.3-0.6,0.5l0,3.2l-0.7,0l0.1-6l0.7,0l0,2.3c0.2-0.2,0.4-0.4,0.7-0.5c0.3-0.1,0.6-0.2,0.9-0.2
			c0.9,0,1.4,0.5,1.4,1.4L33.9,59.7z"/>
		<path class="st1" d="M38.7,59.7l-0.7,0l0-0.5c-0.4,0.4-0.9,0.6-1.4,0.6c-0.4,0-0.8-0.1-1.1-0.4c-0.3-0.3-0.5-0.6-0.4-1.1
			c0-0.5,0.2-0.8,0.5-1.1c0.3-0.2,0.7-0.4,1.1-0.4c0.6,0,1.1,0.2,1.4,0.6l0-0.8c0-0.3-0.1-0.5-0.3-0.7c-0.2-0.2-0.5-0.3-0.8-0.3
			c-0.5,0-1,0.2-1.3,0.6l-0.3-0.5c0.5-0.5,1.1-0.7,1.7-0.7c0.5,0,0.9,0.1,1.2,0.4c0.3,0.2,0.5,0.6,0.5,1.1L38.7,59.7z M36.8,59.3
			c0.5,0,0.9-0.2,1.2-0.5l0-0.8c-0.3-0.4-0.6-0.5-1.2-0.6c-0.3,0-0.6,0.1-0.8,0.3c-0.2,0.2-0.3,0.4-0.3,0.7c0,0.3,0.1,0.5,0.3,0.7
			C36.2,59.2,36.5,59.3,36.8,59.3z"/>
		<path class="st1" d="M43.6,59.8l-0.7,0l0-2.8c0-0.4-0.1-0.6-0.2-0.8c-0.2-0.2-0.4-0.2-0.7-0.2c-0.3,0-0.5,0.1-0.7,0.2
			c-0.2,0.1-0.4,0.3-0.6,0.5l0,3.2l-0.7,0l0.1-4.3l0.7,0l0,0.6c0.2-0.2,0.4-0.4,0.7-0.5c0.3-0.1,0.6-0.2,0.9-0.2
			c0.9,0,1.4,0.5,1.4,1.4L43.6,59.8z"/>
		<path class="st1" d="M45.4,54.9c-0.1,0-0.2,0-0.3-0.1c-0.1-0.1-0.1-0.2-0.1-0.3c0-0.1,0-0.2,0.1-0.3c0.1-0.1,0.2-0.1,0.3-0.1
			c0.1,0,0.2,0,0.3,0.1c0.1,0.1,0.1,0.2,0.1,0.3c0,0.1,0,0.2-0.1,0.3C45.6,54.8,45.5,54.9,45.4,54.9z M45.6,59.8l-0.7,0l0.1-4.3
			l0.7,0L45.6,59.8z"/>
		<path class="st1" d="M48.4,60c-0.7,0-1.3-0.2-1.7-0.7l0.4-0.5c0.1,0.2,0.4,0.3,0.6,0.5c0.3,0.1,0.5,0.2,0.8,0.2
			c0.3,0,0.6-0.1,0.8-0.2c0.2-0.1,0.3-0.3,0.3-0.5c0-0.2-0.1-0.3-0.3-0.5C49,58.1,48.8,58,48.5,58c-0.3-0.1-0.5-0.1-0.8-0.2
			c-0.3-0.1-0.5-0.2-0.7-0.4c-0.2-0.2-0.3-0.4-0.3-0.7c0-0.4,0.2-0.6,0.4-0.9c0.3-0.2,0.7-0.3,1.2-0.3c0.7,0,1.2,0.2,1.6,0.7
			l-0.3,0.5C49.4,56.2,49,56,48.4,56c-0.3,0-0.5,0.1-0.7,0.2c-0.2,0.1-0.3,0.3-0.3,0.5c0,0.2,0.1,0.3,0.3,0.4
			c0.2,0.1,0.4,0.2,0.7,0.2c0.3,0.1,0.5,0.1,0.8,0.2c0.3,0.1,0.5,0.2,0.7,0.4c0.2,0.2,0.3,0.5,0.3,0.8c0,0.4-0.2,0.7-0.5,0.9
			C49.3,59.9,48.9,60,48.4,60z"/>
		<path class="st1" d="M52.3,60c-0.3,0-0.6-0.1-0.7-0.3c-0.2-0.2-0.2-0.4-0.2-0.8l0-2.8l-0.7,0l0-0.6l0.7,0l0-1.2l0.7,0l0,1.2l0.9,0
			l0,0.6l-0.9,0l0,2.7c0,0.2,0,0.3,0.1,0.4c0.1,0.1,0.2,0.2,0.3,0.2c0.2,0,0.4-0.1,0.5-0.2l0.2,0.5C52.9,59.9,52.6,60,52.3,60z"/>
		<path class="st1" d="M57.2,60l-0.7,0l0-0.5c-0.4,0.4-0.9,0.6-1.4,0.6c-0.4,0-0.8-0.1-1.1-0.4c-0.3-0.3-0.5-0.6-0.4-1.1
			c0-0.5,0.2-0.8,0.5-1.1c0.3-0.2,0.7-0.4,1.1-0.4c0.6,0,1.1,0.2,1.4,0.6l0-0.8c0-0.3-0.1-0.5-0.3-0.7c-0.2-0.2-0.5-0.3-0.8-0.3
			c-0.5,0-1,0.2-1.3,0.6l-0.3-0.5c0.5-0.5,1.1-0.7,1.7-0.7c0.5,0,0.9,0.1,1.2,0.4c0.3,0.2,0.5,0.6,0.5,1.1L57.2,60z M55.3,59.6
			c0.5,0,0.9-0.2,1.2-0.5l0-0.8c-0.3-0.4-0.6-0.5-1.2-0.6c-0.3,0-0.6,0.1-0.8,0.3c-0.2,0.2-0.3,0.4-0.3,0.7c0,0.3,0.1,0.5,0.3,0.7
			C54.8,59.5,55,59.6,55.3,59.6z"/>
		<path class="st1" d="M62.2,60.1l-0.7,0l0-2.8c0-0.4-0.1-0.6-0.2-0.8c-0.2-0.2-0.4-0.2-0.7-0.2c-0.3,0-0.5,0.1-0.7,0.2
			c-0.2,0.1-0.4,0.3-0.6,0.5l0,3.2l-0.7,0l0.1-4.3l0.7,0l0,0.6c0.2-0.2,0.4-0.4,0.7-0.5c0.3-0.1,0.6-0.2,0.9-0.2
			c0.9,0,1.4,0.5,1.4,1.4L62.2,60.1z"/>
	</g>
	<g>
		<path class="st1" d="M49,90.1l-0.7,0l0.1-6l0.7,0L49,90.1z"/>
		<path class="st1" d="M51.1,90.1l-0.7,0l0.1-4.3l0.7,0l0,0.7c0.4-0.5,0.9-0.8,1.5-0.8l0,0.7c-0.1,0-0.2,0-0.3,0
			c-0.2,0-0.4,0.1-0.7,0.2c-0.2,0.1-0.4,0.3-0.5,0.5L51.1,90.1z"/>
		<path class="st1" d="M56.8,90.2l-0.7,0l0-0.5c-0.4,0.4-0.9,0.6-1.4,0.6c-0.4,0-0.8-0.1-1.1-0.4c-0.3-0.3-0.5-0.6-0.4-1.1
			c0-0.5,0.2-0.8,0.5-1.1c0.3-0.2,0.7-0.4,1.1-0.4c0.6,0,1.1,0.2,1.4,0.6l0-0.8c0-0.3-0.1-0.5-0.3-0.7c-0.2-0.2-0.5-0.2-0.8-0.3
			c-0.5,0-1,0.2-1.3,0.6l-0.3-0.5c0.5-0.5,1.1-0.7,1.7-0.7c0.5,0,0.9,0.1,1.2,0.4c0.3,0.2,0.5,0.6,0.5,1.1L56.8,90.2z M54.9,89.8
			c0.5,0,0.9-0.2,1.2-0.5l0-0.8c-0.3-0.4-0.6-0.5-1.2-0.6c-0.3,0-0.6,0.1-0.8,0.3c-0.2,0.2-0.3,0.4-0.3,0.7c0,0.3,0.1,0.5,0.3,0.7
			C54.4,89.7,54.6,89.8,54.9,89.8z"/>
		<path class="st1" d="M61.7,90.2l-0.7,0l0-2.8c0-0.4-0.1-0.6-0.2-0.8c-0.2-0.2-0.4-0.2-0.7-0.2c-0.3,0-0.5,0.1-0.7,0.2
			c-0.2,0.1-0.4,0.3-0.6,0.5l0,3.2l-0.7,0l0.1-4.3l0.7,0l0,0.6c0.2-0.2,0.4-0.4,0.7-0.5s0.6-0.2,0.9-0.2c0.9,0,1.4,0.5,1.4,1.4
			L61.7,90.2z"/>
	</g>
	<g>
		<path class="st1" d="M30.4,117.6l-0.7,0l0.1-6l2.4,0c0.6,0,1,0.2,1.4,0.5c0.3,0.4,0.5,0.8,0.5,1.3c0,0.5-0.2,0.9-0.5,1.3
			c-0.3,0.3-0.8,0.5-1.4,0.5l-1.7,0L30.4,117.6z M32.1,114.6c0.4,0,0.6-0.1,0.9-0.3c0.2-0.2,0.3-0.5,0.3-0.8c0-0.3-0.1-0.6-0.3-0.8
			c-0.2-0.2-0.5-0.3-0.9-0.3l-1.6,0l0,2.3L32.1,114.6z"/>
		<path class="st1" d="M38.2,117.7l-0.7,0l0-0.5c-0.4,0.4-0.9,0.6-1.4,0.6c-0.4,0-0.8-0.1-1.1-0.4c-0.3-0.3-0.5-0.6-0.4-1.1
			c0-0.5,0.2-0.8,0.5-1.1c0.3-0.2,0.7-0.4,1.1-0.4c0.6,0,1.1,0.2,1.4,0.6l0-0.8c0-0.3-0.1-0.5-0.3-0.7c-0.2-0.2-0.5-0.2-0.8-0.3
			c-0.5,0-1,0.2-1.3,0.6l-0.3-0.5c0.5-0.5,1.1-0.7,1.7-0.7c0.5,0,0.9,0.1,1.2,0.4c0.3,0.2,0.5,0.6,0.5,1.1L38.2,117.7z M36.3,117.3
			c0.5,0,0.9-0.2,1.2-0.5l0-0.8c-0.3-0.4-0.6-0.5-1.2-0.6c-0.3,0-0.6,0.1-0.8,0.3c-0.2,0.2-0.3,0.4-0.3,0.7c0,0.3,0.1,0.5,0.3,0.7
			C35.7,117.2,36,117.3,36.3,117.3z"/>
		<path class="st1" d="M43.3,117.8l-0.9,0l-1.5-2l-0.7,0.7l0,1.2l-0.7,0l0.1-6l0.7,0l-0.1,4l2.3-2.3l0.9,0l-2,1.9L43.3,117.8z"/>
		<path class="st1" d="M44.5,112.8c-0.1,0-0.2,0-0.3-0.1c-0.1-0.1-0.1-0.2-0.1-0.3s0-0.2,0.1-0.3c0.1-0.1,0.2-0.1,0.3-0.1
			c0.1,0,0.2,0,0.3,0.1c0.1,0.1,0.1,0.2,0.1,0.3c0,0.1,0,0.2-0.1,0.3C44.8,112.8,44.7,112.8,44.5,112.8z M44.8,117.8l-0.7,0l0.1-4.3
			l0.7,0L44.8,117.8z"/>
		<path class="st1" d="M47.5,117.9c-0.7,0-1.3-0.2-1.7-0.7l0.4-0.5c0.1,0.2,0.4,0.3,0.6,0.5c0.3,0.1,0.5,0.2,0.8,0.2
			c0.3,0,0.6-0.1,0.8-0.2c0.2-0.1,0.3-0.3,0.3-0.5c0-0.2-0.1-0.3-0.3-0.5c-0.2-0.1-0.4-0.2-0.7-0.3c-0.3-0.1-0.5-0.1-0.8-0.2
			c-0.3-0.1-0.5-0.2-0.7-0.4c-0.2-0.2-0.3-0.4-0.3-0.7c0-0.4,0.2-0.6,0.4-0.9c0.3-0.2,0.7-0.3,1.2-0.3c0.7,0,1.2,0.2,1.6,0.7
			l-0.3,0.5c-0.3-0.4-0.7-0.6-1.3-0.6c-0.3,0-0.5,0.1-0.7,0.2c-0.2,0.1-0.3,0.3-0.3,0.5c0,0.2,0.1,0.3,0.3,0.4
			c0.2,0.1,0.4,0.2,0.7,0.2c0.3,0.1,0.5,0.1,0.8,0.2s0.5,0.2,0.7,0.4c0.2,0.2,0.3,0.5,0.3,0.8c0,0.4-0.2,0.7-0.5,0.9
			C48.5,117.8,48.1,118,47.5,117.9z"/>
		<path class="st1" d="M51.4,118c-0.3,0-0.6-0.1-0.7-0.3c-0.2-0.2-0.2-0.4-0.2-0.8l0-2.8l-0.7,0l0-0.6l0.7,0l0-1.2l0.7,0l0,1.2
			l0.9,0l0,0.6l-0.9,0l0,2.7c0,0.2,0,0.3,0.1,0.4c0.1,0.1,0.2,0.2,0.3,0.2c0.2,0,0.4-0.1,0.5-0.2l0.2,0.5
			C52.1,117.9,51.8,118,51.4,118z"/>
		<path class="st1" d="M56.4,118l-0.7,0l0-0.5c-0.4,0.4-0.9,0.6-1.4,0.6c-0.4,0-0.8-0.1-1.1-0.4c-0.3-0.3-0.5-0.6-0.4-1.1
			c0-0.5,0.2-0.8,0.5-1.1c0.3-0.2,0.7-0.4,1.1-0.4c0.6,0,1.1,0.2,1.4,0.6l0-0.8c0-0.3-0.1-0.5-0.3-0.7c-0.2-0.2-0.5-0.2-0.8-0.3
			c-0.5,0-1,0.2-1.3,0.6l-0.3-0.5c0.5-0.5,1.1-0.7,1.7-0.7c0.5,0,0.9,0.1,1.2,0.4c0.3,0.2,0.5,0.6,0.5,1.1L56.4,118z M54.5,117.6
			c0.5,0,0.9-0.2,1.2-0.5l0-0.8c-0.3-0.4-0.6-0.5-1.2-0.6c-0.3,0-0.6,0.1-0.8,0.3c-0.2,0.2-0.3,0.4-0.3,0.7c0,0.3,0.1,0.5,0.3,0.7
			C54,117.5,54.2,117.6,54.5,117.6z"/>
		<path class="st1" d="M61.3,118l-0.7,0l0-2.8c0-0.4-0.1-0.6-0.2-0.8c-0.2-0.2-0.4-0.2-0.7-0.2c-0.3,0-0.5,0.1-0.7,0.2
			c-0.2,0.1-0.4,0.3-0.6,0.5l0,3.2l-0.7,0l0.1-4.3l0.7,0l0,0.6c0.2-0.2,0.4-0.4,0.7-0.5c0.3-0.1,0.6-0.2,0.9-0.2
			c0.9,0,1.4,0.5,1.4,1.4L61.3,118z"/>
	</g>
	<g>
		<path class="st0" d="M204.9,43.6c-0.4,0.2-0.9,0.4-1.5,0.4c-0.6,0-1.1-0.1-1.5-0.4c-0.4-0.3-0.8-0.6-1-1c-0.3-0.4-0.4-0.9-0.6-1.4
			c-0.1-0.5-0.2-1-0.2-1.6c0-0.5,0.1-1.1,0.2-1.6s0.3-1,0.6-1.4c0.3-0.4,0.6-0.7,1.1-1c0.4-0.2,0.9-0.4,1.5-0.4
			c0.6,0,1.1,0.1,1.5,0.4c0.4,0.3,0.8,0.6,1,1c0.3,0.4,0.4,0.9,0.6,1.4c0.1,0.5,0.2,1,0.2,1.6c0,0.5-0.1,1.1-0.2,1.6
			c-0.1,0.5-0.3,1-0.6,1.4C205.7,43.1,205.3,43.4,204.9,43.6z M202,41.8c0.3,0.6,0.8,0.9,1.4,0.9s1.1-0.3,1.4-0.8
			c0.3-0.6,0.5-1.3,0.5-2.2c0-0.6,0-1.1-0.1-1.5c-0.1-0.4-0.3-0.8-0.6-1.1c-0.3-0.3-0.6-0.4-1.1-0.4c-0.4,0-0.8,0.1-1.1,0.4
			c-0.3,0.3-0.5,0.6-0.6,1.1c-0.1,0.4-0.2,0.9-0.2,1.5C201.6,40.5,201.7,41.2,202,41.8z"/>
	</g>
	<g>
		<path class="st0" d="M204.4,74.4c-0.4,0.2-0.9,0.4-1.5,0.4c-0.6,0-1.1-0.1-1.5-0.4c-0.4-0.3-0.8-0.6-1-1c-0.3-0.4-0.4-0.9-0.6-1.4
			c-0.1-0.5-0.2-1-0.2-1.6c0-0.5,0.1-1.1,0.2-1.6c0.1-0.5,0.3-1,0.6-1.4c0.3-0.4,0.6-0.7,1.1-1c0.4-0.2,0.9-0.4,1.5-0.4
			c0.6,0,1.1,0.1,1.5,0.4c0.4,0.3,0.8,0.6,1,1c0.3,0.4,0.4,0.9,0.6,1.4c0.1,0.5,0.2,1,0.2,1.6c0,0.5-0.1,1.1-0.2,1.6
			c-0.1,0.5-0.3,1-0.6,1.4C205.2,73.8,204.9,74.1,204.4,74.4z M201.5,72.6c0.3,0.6,0.8,0.9,1.4,0.9c0.6,0,1.1-0.3,1.4-0.8
			c0.3-0.6,0.5-1.3,0.5-2.2c0-0.6,0-1.1-0.1-1.5c-0.1-0.4-0.3-0.8-0.6-1.1c-0.3-0.3-0.6-0.4-1.1-0.4s-0.8,0.1-1.1,0.4
			c-0.3,0.3-0.5,0.6-0.6,1.1c-0.1,0.4-0.2,0.9-0.2,1.5C201.1,71.3,201.3,72,201.5,72.6z"/>
	</g>
	<g>
		<path class="st0" d="M204,103.7c-0.4,0.2-0.9,0.4-1.5,0.4s-1.1-0.1-1.5-0.4c-0.4-0.3-0.8-0.6-1-1c-0.3-0.4-0.4-0.9-0.6-1.4
			c-0.1-0.5-0.2-1-0.2-1.6s0.1-1.1,0.2-1.6c0.1-0.5,0.3-1,0.6-1.4c0.3-0.4,0.6-0.7,1.1-1c0.4-0.2,0.9-0.4,1.5-0.4
			c0.6,0,1.1,0.1,1.5,0.4c0.4,0.3,0.8,0.6,1,1c0.3,0.4,0.4,0.9,0.6,1.4c0.1,0.5,0.2,1,0.2,1.6c0,0.5-0.1,1.1-0.2,1.6
			c-0.1,0.5-0.3,1-0.6,1.4S204.4,103.5,204,103.7z M201.1,101.9c0.3,0.6,0.8,0.9,1.4,0.9c0.6,0,1.1-0.3,1.4-0.8
			c0.3-0.6,0.5-1.3,0.5-2.2c0-0.6,0-1.1-0.1-1.5c-0.1-0.4-0.3-0.8-0.6-1.1c-0.3-0.3-0.6-0.4-1.1-0.4s-0.8,0.1-1.1,0.4
			c-0.3,0.3-0.5,0.6-0.6,1.1c-0.1,0.4-0.2,0.9-0.2,1.5C200.7,100.6,200.8,101.4,201.1,101.9z"/>
	</g>
	<g>
		<path class="st0" d="M45.7,159.4l-1.5,0l0.1-6.4l-1.4,1.4l-0.8-0.9l2.4-2.4l1.3,0L45.7,159.4z"/>
		<path class="st0" d="M53.2,159.5l-6-0.1l0-1.1c1.8-1.3,3-2.3,3.6-2.9c0.6-0.6,1-1.2,1-1.8c0-0.4-0.1-0.7-0.4-0.9
			c-0.3-0.2-0.6-0.3-1.1-0.3c-0.9,0-1.7,0.3-2.3,1l-0.8-1c0.4-0.4,0.8-0.8,1.4-1c0.5-0.2,1.1-0.3,1.7-0.3c0.8,0,1.6,0.3,2.1,0.7
			c0.6,0.5,0.9,1.1,0.8,1.9c0,0.7-0.3,1.4-0.9,2.1c-0.6,0.7-1.5,1.5-2.8,2.4l3.7,0.1L53.2,159.5z"/>
		<path class="st0" d="M59.3,159.3c-0.4,0.2-0.9,0.4-1.5,0.4c-0.6,0-1.1-0.1-1.5-0.4s-0.8-0.6-1-1c-0.3-0.4-0.4-0.9-0.6-1.4
			c-0.1-0.5-0.2-1-0.2-1.6c0-0.5,0.1-1.1,0.2-1.6c0.1-0.5,0.3-1,0.6-1.4c0.3-0.4,0.6-0.7,1.1-1c0.4-0.2,0.9-0.4,1.5-0.4
			c0.6,0,1.1,0.1,1.5,0.4c0.4,0.3,0.8,0.6,1,1c0.3,0.4,0.4,0.9,0.6,1.4c0.1,0.5,0.2,1,0.2,1.6c0,0.5-0.1,1.1-0.2,1.6
			c-0.1,0.5-0.3,1-0.6,1.4C60.1,158.8,59.8,159.1,59.3,159.3z M56.5,157.5c0.3,0.6,0.8,0.9,1.4,0.9c0.6,0,1.1-0.3,1.4-0.8
			c0.3-0.6,0.5-1.3,0.5-2.2c0-0.6,0-1.1-0.1-1.5c-0.1-0.4-0.3-0.8-0.6-1.1c-0.3-0.3-0.6-0.4-1.1-0.4c-0.4,0-0.8,0.1-1.1,0.4
			c-0.3,0.3-0.5,0.6-0.6,1.1c-0.1,0.4-0.2,0.9-0.2,1.5C56,156.2,56.2,157,56.5,157.5z"/>
	</g>
	<g>
		<path class="st0" d="M53.5,129.6l-1.5,0l0.1-6.4l-1.4,1.4l-0.8-0.9l2.4-2.4l1.3,0L53.5,129.6z"/>
		<path class="st0" d="M59.8,129.4c-0.4,0.2-0.9,0.4-1.5,0.4c-0.6,0-1.1-0.1-1.5-0.4c-0.4-0.3-0.8-0.6-1-1c-0.3-0.4-0.4-0.9-0.6-1.4
			c-0.1-0.5-0.2-1-0.2-1.6c0-0.5,0.1-1.1,0.2-1.6c0.1-0.5,0.3-1,0.6-1.4c0.3-0.4,0.6-0.7,1.1-1s0.9-0.4,1.5-0.4s1.1,0.1,1.5,0.4
			c0.4,0.3,0.8,0.6,1,1c0.3,0.4,0.4,0.9,0.6,1.4s0.2,1,0.2,1.6c0,0.5-0.1,1.1-0.2,1.6c-0.1,0.5-0.3,1-0.6,1.4
			C60.6,128.9,60.2,129.2,59.8,129.4z M56.9,127.6c0.3,0.6,0.8,0.9,1.4,0.9c0.6,0,1.1-0.3,1.4-0.8c0.3-0.6,0.5-1.3,0.5-2.2
			c0-0.6,0-1.1-0.1-1.5s-0.3-0.8-0.6-1.1c-0.3-0.3-0.6-0.4-1.1-0.4c-0.4,0-0.8,0.1-1.1,0.4c-0.3,0.3-0.5,0.6-0.6,1.1
			c-0.1,0.4-0.2,0.9-0.2,1.5C56.5,126.3,56.6,127,56.9,127.6z"/>
	</g>
	<g>
		<path class="st0" d="M54.1,102l-1.5,0l0.1-6.4l-1.4,1.4L50.5,96l2.4-2.4l1.3,0L54.1,102z"/>
		<path class="st0" d="M58.8,102.2c-1.3,0-2.4-0.5-3.1-1.3l0.9-1c0.6,0.7,1.3,1,2.2,1c0.5,0,0.9-0.1,1.2-0.4c0.3-0.3,0.5-0.6,0.5-1
			c0-0.5-0.1-0.8-0.4-1.1c-0.3-0.3-0.7-0.4-1.2-0.4c-0.7,0-1.3,0.2-1.8,0.7l-1-0.3l0.1-4.7l5.5,0.1l0,1.3l-4-0.1l0,2.4
			c0.5-0.5,1.1-0.7,1.9-0.7c0.7,0,1.4,0.3,1.9,0.8c0.5,0.5,0.8,1.2,0.8,2c0,0.9-0.3,1.5-0.9,2C60.5,102,59.7,102.2,58.8,102.2z"/>
	</g>
	<g>
		<path class="st0" d="M47.1,72.4l-1.5,0l0.1-6.4l-1.4,1.4l-0.8-0.9l2.4-2.4l1.3,0L47.1,72.4z"/>
		<path class="st0" d="M54.6,72.5l-6-0.1l0-1.2c1.8-1.3,3-2.3,3.6-2.9c0.6-0.6,1-1.2,1-1.8c0-0.4-0.1-0.7-0.4-0.9
			c-0.3-0.2-0.6-0.3-1.1-0.3c-0.9,0-1.7,0.3-2.3,1l-0.8-1c0.4-0.4,0.8-0.8,1.4-1c0.6-0.2,1.1-0.3,1.7-0.3c0.9,0,1.6,0.3,2.1,0.7
			c0.6,0.5,0.9,1.1,0.8,1.9c0,0.7-0.3,1.4-0.9,2.1c-0.6,0.7-1.5,1.5-2.8,2.4l3.7,0.1L54.6,72.5z"/>
		<path class="st0" d="M59.2,72.7c-1.3,0-2.4-0.5-3.1-1.3l0.9-1c0.6,0.7,1.3,1,2.2,1c0.5,0,0.9-0.1,1.2-0.4c0.3-0.3,0.5-0.6,0.5-1
			c0-0.4-0.1-0.8-0.4-1.1c-0.3-0.3-0.7-0.4-1.2-0.4c-0.7,0-1.3,0.2-1.8,0.7l-1-0.3l0.1-4.7l5.5,0.1l0,1.3l-4-0.1l0,2.4
			c0.5-0.5,1.1-0.7,1.9-0.7c0.7,0,1.4,0.3,1.9,0.8c0.5,0.5,0.8,1.2,0.8,2c0,0.9-0.3,1.5-0.9,2C60.9,72.4,60.2,72.7,59.2,72.7z"/>
	</g>
	<g>
		<path class="st0" d="M61,43.1c-0.4,0.2-0.9,0.4-1.5,0.4c-0.6,0-1.1-0.1-1.5-0.4c-0.4-0.3-0.8-0.6-1-1c-0.3-0.4-0.4-0.9-0.6-1.4
			c-0.1-0.5-0.2-1-0.2-1.6c0-0.5,0.1-1.1,0.2-1.6c0.1-0.5,0.3-1,0.6-1.4c0.3-0.4,0.6-0.7,1.1-1c0.4-0.2,0.9-0.4,1.5-0.4
			c0.6,0,1.1,0.1,1.5,0.4c0.4,0.3,0.8,0.6,1,1c0.3,0.4,0.4,0.9,0.6,1.4c0.1,0.5,0.2,1,0.2,1.6c0,0.5-0.1,1.1-0.2,1.6
			c-0.1,0.5-0.3,1-0.6,1.4C61.8,42.5,61.4,42.8,61,43.1z M58.1,41.3c0.3,0.6,0.8,0.9,1.4,0.9s1.1-0.3,1.4-0.8
			c0.3-0.6,0.5-1.3,0.5-2.2c0-0.6,0-1.1-0.1-1.5c-0.1-0.4-0.3-0.8-0.6-1.1c-0.3-0.3-0.6-0.4-1.1-0.4c-0.4,0-0.8,0.1-1.1,0.4
			c-0.3,0.3-0.5,0.6-0.6,1.1c-0.1,0.4-0.2,0.9-0.2,1.5C57.7,40,57.8,40.7,58.1,41.3z"/>
	</g>
	<g>
		<path class="st0" d="M126.3,32.5l-1.5,0l0.1-6.4l-1.4,1.4l-0.8-0.9l2.4-2.4l1.3,0L126.3,32.5z"/>
		<path class="st0" d="M130.6,32.7c-0.7,0-1.3-0.1-1.9-0.4c-0.5-0.3-1-0.6-1.3-1l0.8-1c0.3,0.3,0.6,0.6,1,0.8
			c0.4,0.2,0.8,0.3,1.3,0.3c0.5,0,1-0.1,1.3-0.3c0.3-0.2,0.5-0.5,0.5-0.9c0-0.8-0.6-1.2-1.8-1.2c-0.6,0-0.9,0-1,0l0-1.3
			c0.1,0,0.4,0,1,0c0.5,0,0.9-0.1,1.2-0.3c0.3-0.2,0.5-0.5,0.5-0.8c0-0.4-0.1-0.7-0.5-0.9c-0.3-0.2-0.7-0.3-1.2-0.3
			c-0.8,0-1.5,0.3-2.2,0.9l-0.7-0.9c0.8-0.9,1.8-1.3,3.1-1.3c0.9,0,1.6,0.2,2.2,0.6c0.5,0.4,0.8,1,0.8,1.7c0,0.5-0.2,0.9-0.6,1.3
			c-0.4,0.3-0.8,0.5-1.3,0.6c0.5,0,0.9,0.3,1.3,0.6c0.4,0.4,0.6,0.8,0.6,1.4c0,0.7-0.3,1.3-0.9,1.7
			C132.3,32.5,131.6,32.7,130.6,32.7z"/>
		<path class="st0" d="M139.7,32.4c-0.4,0.2-0.9,0.4-1.5,0.4c-0.6,0-1.1-0.1-1.5-0.4c-0.4-0.3-0.8-0.6-1-1c-0.3-0.4-0.4-0.9-0.6-1.4
			c-0.1-0.5-0.2-1-0.2-1.6s0.1-1.1,0.2-1.6c0.1-0.5,0.3-1,0.6-1.4c0.3-0.4,0.6-0.7,1.1-1c0.4-0.2,0.9-0.4,1.5-0.4
			c0.6,0,1.1,0.1,1.5,0.4c0.4,0.3,0.8,0.6,1,1c0.3,0.4,0.4,0.9,0.6,1.4c0.1,0.5,0.2,1,0.2,1.6s-0.1,1.1-0.2,1.6s-0.3,1-0.6,1.4
			C140.5,31.9,140.1,32.2,139.7,32.4z M136.8,30.6c0.3,0.6,0.8,0.9,1.4,0.9c0.6,0,1.1-0.3,1.4-0.8c0.3-0.6,0.5-1.3,0.5-2.2
			c0-0.6,0-1.1-0.1-1.5c-0.1-0.4-0.3-0.8-0.6-1.1c-0.3-0.3-0.6-0.4-1.1-0.4c-0.4,0-0.8,0.1-1.1,0.4c-0.3,0.3-0.5,0.6-0.6,1.1
			c-0.1,0.4-0.2,0.9-0.2,1.5C136.4,29.3,136.5,30.1,136.8,30.6z"/>
	</g>
	<g>
		<g>
			<path class="st2" d="M69.1,147.8c22.9-5.3,41.2-18.4,46.4-36.4"/>
			<g>
				<path class="st3" d="M115.4,111.5c-0.2,0.1-0.4,0.1-0.6,0c0.3-0.1,0.5-0.2,0.7-0.5c0,0.3,0.2,0.6,0.3,0.8
					C115.7,111.8,115.5,111.6,115.4,111.5z"/>
			</g>
		</g>
	</g>
	<g>
		<g>
			<path class="st4" d="M190.8,126.1c-18.2,2.1-38.6,2.4-51-16.3"/>
			<g>
				<path class="st3" d="M139.8,109.9c0,0-0.1,0.1-0.1,0.1C139.7,109.9,139.7,109.8,139.8,109.9c0-0.1,0.1,0,0.1,0
					C139.9,109.9,139.8,109.9,139.8,109.9z"/>
			</g>
		</g>
	</g>
	<g>
		<g>
			<path class="st5" d="M68.3,118c13.8-0.6,20.5-3.9,29.8-10.8"/>
			<g>
				<path class="st3" d="M98.1,107.2C98.1,107.2,98.1,107.2,98.1,107.2C98.1,107.2,98.1,107.2,98.1,107.2
					C98.2,107.2,98.2,107.2,98.1,107.2C98.1,107.3,98.1,107.2,98.1,107.2z"/>
			</g>
		</g>
	</g>
	<g>
		<g>
			<path class="st6" d="M68.5,62.4c13.9-0.8,22.8,3.3,32.1,17.7"/>
			<g>
				<path class="st3" d="M100.6,80.1c0-0.2,0.2-0.4,0.4-0.5c-0.1,0.3-0.2,0.6-0.1,0.9c-0.2-0.2-0.6-0.2-0.9-0.3
					C100.2,80.1,100.4,80.1,100.6,80.1z"/>
			</g>
		</g>
	</g>
	<g>
		<g>
			<path class="st7" d="M68.1,92.1c9.7-2.9,18.9-2.5,28.8,0.9"/>
			<g>
				<path class="st3" d="M96.9,92.9C96.9,92.9,96.9,92.9,96.9,92.9C96.9,92.9,96.9,92.9,96.9,92.9C96.9,92.9,96.8,93,96.9,92.9
					C96.8,93,96.8,92.9,96.9,92.9z"/>
			</g>
		</g>
	</g>
	<g>
		<g>
			<line class="st8" x1="132.1" y1="37.2" x2="131.6" y2="73.2"/>
			<g>
				<path class="st3" d="M131.6,73.2c0.1-0.1,0.4-0.2,0.6-0.2c-0.3,0.2-0.5,0.4-0.6,0.7c-0.1-0.3-0.3-0.5-0.6-0.7
					C131.2,73,131.5,73,131.6,73.2z"/>
			</g>
		</g>
	</g>
	<g>
		<path class="st0" d="M201.6,136.1c-0.7,0-1.3-0.1-1.9-0.4c-0.5-0.3-1-0.6-1.3-1l0.8-1c0.3,0.3,0.6,0.6,1,0.8
			c0.4,0.2,0.8,0.3,1.3,0.3c0.5,0,1-0.1,1.3-0.3c0.3-0.2,0.5-0.5,0.5-0.9c0-0.8-0.6-1.2-1.8-1.2c-0.6,0-0.9,0-1,0l0-1.3
			c0.1,0,0.4,0,1,0c0.5,0,0.9-0.1,1.2-0.3s0.5-0.5,0.5-0.8c0-0.4-0.1-0.7-0.5-0.9c-0.3-0.2-0.7-0.3-1.2-0.3c-0.8,0-1.5,0.3-2.2,0.9
			l-0.7-0.9c0.8-0.9,1.8-1.3,3.1-1.3c0.9,0,1.6,0.2,2.2,0.6c0.5,0.4,0.8,1,0.8,1.7c0,0.5-0.2,0.9-0.6,1.3c-0.4,0.3-0.8,0.5-1.3,0.6
			c0.5,0,0.9,0.3,1.3,0.6c0.4,0.4,0.6,0.8,0.6,1.4c0,0.7-0.3,1.3-0.9,1.7C203.3,135.9,202.6,136.1,201.6,136.1z"/>
		<path class="st0" d="M210.7,135.8c-0.4,0.2-0.9,0.4-1.5,0.4c-0.6,0-1.1-0.1-1.5-0.4c-0.4-0.3-0.8-0.6-1-1
			c-0.3-0.4-0.4-0.9-0.6-1.4c-0.1-0.5-0.2-1-0.2-1.6c0-0.5,0.1-1.1,0.2-1.6c0.1-0.5,0.3-1,0.6-1.4c0.3-0.4,0.6-0.7,1.1-1
			c0.4-0.2,0.9-0.4,1.5-0.4c0.6,0,1.1,0.1,1.5,0.4c0.4,0.3,0.8,0.6,1,1c0.3,0.4,0.4,0.9,0.6,1.4c0.1,0.5,0.2,1,0.2,1.6
			c0,0.5-0.1,1.1-0.2,1.6c-0.1,0.5-0.3,1-0.6,1.4C211.5,135.3,211.2,135.6,210.7,135.8z M207.8,134c0.3,0.6,0.8,0.9,1.4,0.9
			s1.1-0.3,1.4-0.8c0.3-0.6,0.5-1.3,0.5-2.2c0-0.6,0-1.1-0.1-1.5c-0.1-0.4-0.3-0.8-0.6-1.1s-0.6-0.4-1.1-0.4c-0.4,0-0.8,0.1-1.1,0.4
			s-0.5,0.6-0.6,1.1c-0.1,0.4-0.2,0.9-0.2,1.5C207.4,132.7,207.5,133.4,207.8,134z"/>
	</g>
</g>
</svg>
