<?xml version="1.0" encoding="utf-8"?>
<!-- Generator: Adobe Illustrator 19.2.0, SVG Export Plug-In . SVG Version: 6.00 Build 0)  -->
<svg version="1.1" id="Layer_1" xmlns="http://www.w3.org/2000/svg" xmlns:xlink="http://www.w3.org/1999/xlink" x="0px" y="0px"
	 viewBox="0 0 266.2 169.3" style="enable-background:new 0 0 266.2 169.3;" xml:space="preserve">
<style type="text/css">
	.st0{fill:#0D92FF;}
	.st1{fill:#787878;}
	.st2{fill:none;stroke:#00325C;stroke-width:6.000000e-02;stroke-miterlimit:10;}
	.st3{fill:#00325C;}
	.st4{fill:none;stroke:#00325C;stroke-width:1.000000e-02;stroke-miterlimit:10;}
	.st5{fill:none;stroke:#00325C;stroke-width:0.535;stroke-miterlimit:3;}
	.st6{fill:none;stroke:#00325C;stroke-width:9.015;stroke-miterlimit:10;}
	.st7{fill:none;stroke:#00325C;stroke-width:0.55;stroke-miterlimit:10;}
	.st8{fill:none;stroke:#00325C;stroke-width:6.500000e-02;stroke-miterlimit:10;}
	.st9{fill:none;stroke:#00325C;stroke-width:1.375;stroke-miterlimit:10;}
	.st10{fill:none;stroke:#00325C;stroke-width:5.000000e-02;stroke-miterlimit:10;}
	.st11{fill:none;stroke:#00325C;stroke-width:0.125;stroke-miterlimit:10;}
</style>
<polygon class="st0" points="188.9,65.7 189.2,65.3 189.3,64.9 189.4,64.6 189.4,64.4 189.3,63.9 189.1,63.5 188.9,63.2 188.4,62.8 
	187.7,62.4 187.7,62.3 187.4,62.1 187.1,62.2 186.8,62.4 186.5,62.5 185.2,62.5 185,62.6 184.9,62.6 184.8,62.5 184.5,61.9 
	184.3,61.1 184.1,60.5 182.8,58.8 182.7,58.8 182.6,58.8 182.6,58.8 182.2,59 182,59 181.7,58.9 181.3,58.8 181.2,58.8 181.1,58.8 
	181,58.9 180.9,59 180.7,58.9 180.6,58.8 179.8,57.5 179.6,57 179.5,56.6 179.6,56.3 179.6,56 179.5,55.8 179.3,55.8 178.8,55.8 
	178.8,55.4 179.1,54.6 178.5,54.3 177.9,54.2 177.3,54.4 177.1,54.6 177.1,54.6 176.7,54.6 176.4,55 176,55.2 175.7,55.3 
	174.7,55.2 174.3,55.2 174,55.3 173.1,55.4 172.8,55.5 172.3,55.8 171.6,55.9 170.7,56.4 170.1,56.4 169.6,56.2 169.1,55.9 
	168.7,55.4 167.7,53.9 167.6,53.6 167.4,52.5 167.2,52.2 166.9,52.1 166.3,52.1 166,52 165.9,51.8 165.7,51.3 165.6,51.1 165.5,51 
	165.2,50.8 164.6,50.5 164.3,50.4 163.4,50.7 162.8,50.7 162.5,50.8 162.2,51 162,51.2 161.9,51.5 161.7,51.8 161.5,52 161.3,51.9 
	161,51.7 160.7,51.6 160.2,51.7 158.8,52.4 158.4,52.2 158,51.9 157.5,51.7 157,51.6 156.6,51.6 156,51.6 154.9,51 154.4,50.9 
	154.1,50.9 153.6,50.4 153.4,50.3 153.1,50.3 149.4,51.1 148.3,51.2 147.8,51.4 147.8,51.6 147.8,51.8 147.8,52.3 147.8,52.5 
	147.8,52.6 147.6,53 147,53.6 146.7,53.9 146.5,54.4 145.9,56.4 145.5,57.2 145,57.9 144.5,58.4 144.1,58.6 143.9,58.5 143.7,58.3 
	143.4,58.1 143.2,58.2 142.6,58.6 142.4,58.8 142,58.8 141.9,58.7 141.7,58.7 141.5,59 141.4,59.2 141.3,59.6 141.2,59.9 141.1,60 
	140.7,60.1 140,60.6 139.3,60.8 138.9,61 138.1,61.8 137.7,62 137.3,61.8 136.7,61.2 136.3,61.1 135.6,61.3 135.4,61.3 135.3,61 
	135.3,60.8 135.4,60.6 135.4,60.4 135.1,60 134.7,59.9 133.9,60.1 133.7,60 133.4,59.5 133.2,59.4 133,59.3 132.8,59.3 131.2,59.7 
	130.9,59.9 130.7,60.3 130.5,61.3 130.3,61.7 130.3,61.8 130.4,61.9 130.4,62.2 130.3,62.3 129.4,63 127,62.9 126,63.6 125.8,63.7 
	123.6,63.4 122.5,63.6 121.8,63.5 121.5,63.6 119,64.2 118.7,64.4 118.3,65.4 118.1,65.5 117.8,65.6 117.6,65.7 117.4,66 
	117.4,66.1 117.5,66.2 117.6,66.5 117.4,67.6 117.4,68.1 117.5,68.6 118,69.1 118.7,69.6 118.2,69.7 117.8,69.9 117.5,70.1 
	116.9,70.7 116.5,71 116,71 115.5,70.9 114.8,70.6 114.1,70.6 110.5,71 109.1,71.5 108.5,71.6 106.3,71.4 101.3,71.7 99.8,71.3 
	98.7,70.7 98.5,70.5 98.4,70.2 98.1,69.9 97.7,69.7 97.4,69.5 97.2,69.5 97,69.6 96.9,69.6 96.6,69.4 96.1,68.5 95.9,68.4 
	95.5,68.3 95.3,68.3 95.1,68.1 93.3,65.7 92.8,65.3 91.6,65.1 90.7,64.8 90.1,64.7 89.4,65.1 88.3,66 88.5,66.2 88.5,66.4 
	88.4,66.6 88.4,66.8 88.4,66.8 88.2,66.9 88.2,67 88.2,67.1 88.3,67.1 88.4,67.2 88.4,67.2 88.3,67.7 88.2,68 88,68.3 87.8,68.5 
	87.1,68.6 86.9,68.7 86.9,69 87,69.1 87.4,69.3 87.5,69.4 87.7,69.9 87.8,70.1 87.6,70.4 87.6,70.8 87.7,71.3 87.7,72.2 87.8,72.4 
	88,72.6 88.2,72.8 87.8,72.9 86.7,73 85.3,73.4 84.6,73.2 84.4,72.6 84.1,72.8 83.8,73.3 83.6,73.5 83.4,73.5 82.4,73.4 82.2,73.3 
	82,73.1 81.9,72.8 81.8,72.6 81.8,72.3 81.5,72.2 80.1,71.6 79.4,71.5 78.8,71.8 78.6,72.1 78.7,72.4 78.6,72.6 78.4,72.8 
	77.7,73.2 77.5,73.3 77.4,73.4 77.3,73.4 77.2,73.3 77.1,73.2 77,73.3 76.7,73.7 76.6,73.9 76.9,74.1 77.8,74.5 78.3,74.4 
	79.5,74.9 80,74.8 80.4,74.9 80.7,75.4 80.9,75.9 80.8,76.4 81.1,76.6 81.3,76.8 81.4,77.1 81.4,77.5 81.2,77.9 80.7,78.1 
	80.5,78.3 80.6,79.3 79.7,80 77.8,80.9 77.6,80.6 77.4,80.4 77.1,80.5 77,80.8 77,81.8 77,81.9 76.9,81.9 76.8,82 76.8,82.2 
	76.8,82.3 76.9,82.3 77,82.3 77,82.4 77.6,83.5 77.6,83.9 77.5,84.3 77.3,84.5 76.7,84.8 76.8,85.2 76.5,85.8 76.6,86.2 76.7,86.3 
	77,86.3 77.1,86.5 77.1,86.7 77,87.1 77,87.3 77.2,87.4 77.8,87.1 78.1,87.1 78.3,87.5 78.2,87.8 77.8,88.3 77.4,88.5 77.3,88.9 
	77.5,89.2 77.8,89.3 78,89.5 78.1,89.6 78,89.7 77.8,89.9 77,90.2 76.8,90.4 77.3,90.4 77.5,90.5 77.8,90.8 77.9,91.1 77.5,91.2 
	77.1,91.2 76.8,91.2 76.7,91.3 76.6,91.3 76.5,91.3 76.4,91.2 76.1,91 75.8,90.9 75.1,91 74.4,90.9 74.2,90.9 74,91.2 73.9,91.6 
	73.8,91.7 73.6,91.7 73.4,91.9 73.4,92.1 73.4,92.2 73.4,92.3 73.3,92.5 73.1,92.6 72.8,92.8 72.3,93.1 72.1,93.3 71.5,94.2 
	71.3,94.4 71,94.5 71.7,94.7 74.1,94.5 74.3,94.6 74.6,95 74.8,95.1 75,95.1 75.1,95.3 75.1,95.5 75,95.8 74.8,96.1 74.6,96.5 
	74.6,96.8 74.6,96.9 74.8,97.6 75,97.8 75.2,98.1 75.3,98.3 75.6,98.3 75.6,98.7 75.8,98.8 76.2,98.8 76.4,99 76.5,99.5 76.3,99.7 
	76,99.9 75.8,100.1 75.9,100.5 76.3,100.7 76.9,101.1 77.5,102 78.1,102.5 78.4,103.6 78.5,103.7 79.2,104.2 79.5,104.4 79.6,104.4 
	79.6,104.2 79.7,104.1 79.9,104.1 80,104.2 80.5,104.3 80.9,104.6 81.2,105 81.5,105.5 81.8,105.9 82.3,106.2 82.6,106.7 
	82.7,106.7 82.8,106.3 83,106.4 83.4,106.5 83.5,106.6 83.6,106.6 83.7,106.7 83.7,106.8 83.8,106.9 83.9,106.8 83.9,106.7 
	84,106.7 84.2,106.9 84.5,107.3 84.7,107.7 84.6,108.1 84.9,109 85,109.1 85.2,109.2 85.8,110 86.3,110.8 86.4,111 87.4,111.8 
	87.5,112 87.6,112.3 87.8,112.5 88.6,113.1 88.9,113.2 90.3,113.3 90.5,113.4 91.2,114.3 91.3,114.6 91.5,115.4 91.6,115.6 
	91.7,116 92,116.1 92.3,116.2 92.4,116.4 92.3,116.4 92.1,116.5 91.9,116.6 91.9,116.7 92.2,116.8 92.4,117 92.6,117.1 92.8,116.7 
	92.9,117.2 92.8,117.4 92.9,117.5 93.3,117.4 93.7,117.3 93.9,117.4 94,117.8 94.1,117.7 94.1,117.6 94.2,117.6 94.3,117.5 
	95.8,117.5 96.6,117.7 97.2,118 98,118.9 98.2,119.1 98.2,119.3 98.3,119.7 98.3,120 98.4,120.3 98.5,120.4 98.9,120.4 101,121 
	101.5,121.4 101.8,122 101.8,122.1 102,122.1 102.2,121.9 102.2,121.7 102.4,121.6 103.9,121.6 105.7,122.1 105.9,122.1 
	106.1,122.1 106.4,121.8 106.6,121.8 108,121.8 108.4,121.9 108.9,122.3 109.3,122.3 109.6,122.6 109.9,122.7 110.2,122.6 
	110.5,122.5 110.8,122.5 111.1,122.9 111.2,122.9 111.4,122.9 111.6,122.8 111.9,122.6 112.5,121.8 112.8,121.6 113.2,121.8 
	113.7,121.6 114.4,121 114.6,120.7 115,120 115.3,119.7 115.3,119.7 115.3,119.5 115.4,119.2 115.4,119.1 115.8,118.7 116.2,118.7 
	117.1,119 117.8,119.3 118,119.4 118.2,119.3 118.2,119.1 118.3,118.8 118.5,118.6 118.7,118.8 118.9,118.8 119.2,118.6 
	119.6,118.5 119.8,118.3 119.9,118.2 120.2,118.1 120.3,118.1 121.3,118.2 121.4,118.2 121.6,118.3 121.7,118.3 121.7,118.3 
	121.7,118.2 121.7,118.2 121.7,118.1 121.6,118 121.6,117.9 121.5,117.8 121.6,117.7 121.6,117.6 122,117.4 122.2,117.4 
	122.5,117.4 122.8,117.3 122.8,116.6 123.1,116.1 123.5,115.9 123.8,116.1 124,116.4 124.1,116.6 124.2,116.6 124.5,116.8 
	126,116.9 126.5,116.9 126.5,116.8 126.7,116.6 126.8,116.4 126.8,116.3 126.9,115.9 127.1,115.7 127.2,115.7 127.5,115.6 
	127.5,115.6 128.2,115.6 128.5,115.5 128.7,115.3 128.8,115 128.9,114.9 128.9,114.8 129.2,114.7 129.3,114.7 129.5,114.6 
	129.8,114.4 129.9,114.2 130,114.1 130,114 130,114 130.1,113.9 130.4,113.8 130.6,113.6 130.5,113.4 130.4,113.3 130.4,113.2 
	130.4,113.2 130.4,113 130.6,112.8 130.7,112.7 130.9,112.6 131.1,112.5 131.4,112.3 131.5,112.3 131.6,112.2 131.8,112.2 
	132.2,112.2 133.2,112 133.6,112 134,112.1 134.8,112.6 135.4,113 135.7,113.1 137.4,112.4 138,112.3 138.2,112.3 139.3,112.4 
	140,112.8 140.2,112.8 140.6,112.7 140.8,112.6 141,112.5 141.1,112.5 141.2,112.5 141.5,112.5 141.5,112.6 141.5,112.6 
	141.7,112.8 141.8,112.9 141.8,112.9 142,112.9 142.4,112.7 142.4,112.7 142.7,112.8 143.7,113.7 144.4,112.8 147.2,112.7 
	147.6,112 148.3,112.1 149,112.4 149.5,112.9 149.7,113 149.9,113.1 150.1,113.1 151,112.9 151.4,112.7 151.7,112.4 151.7,112.2 
	151.8,111.8 151.9,111.6 152,111.6 152.1,111.7 152.3,111.7 152.4,111.5 152.4,111.4 152.3,110.8 152.3,110.5 152.3,110.4 
	153,109.8 153.4,109.6 153.8,109.5 154.1,109.5 154.3,109.6 154.6,109.9 154.8,110 154.9,109.9 155.2,109.8 155.3,109.8 
	155.6,109.8 156.3,110.1 156.6,110.1 156.8,110.1 156.9,110.1 157.1,110.1 157.2,110.3 157.5,110.6 157.8,110.4 158.7,109.4 
	158.8,109.4 159.3,109.4 159.4,109.2 159.6,108.8 159.8,108.4 159.8,107.2 160,106.7 160.3,106.3 160.6,106.2 161.4,106.2 
	161.8,105.9 161.7,105.3 161.2,104.4 161.2,103.8 161.5,103.4 161.8,103.1 162,102.6 162,101.6 162.2,101.1 162.4,100.8 
	162.8,100.7 163.4,100.8 163.8,100.6 164.2,100.1 164.3,99.7 164.5,99.4 165,99.3 165.3,99.1 165.7,98.6 165.7,98.1 165.3,97.8 
	165.2,97.8 165.2,97.7 165.1,97.6 165.2,97.5 165.2,97.3 165.3,97.2 165.3,97 165.7,96 165.9,95.6 166.3,95.2 167,95.1 167.1,94.9 
	167.3,94.6 167.3,94.3 167.2,94 167.2,93.7 167.2,93.4 167.2,93.4 167.3,93.3 168.1,92.7 168.3,92.5 168.6,91.2 168.7,91.2 
	168.7,91.2 168.5,90.9 168.4,90.8 168.2,90.8 168.1,90.7 168,90.5 168.7,89.7 169.1,89.3 169.9,88.7 170.3,88.4 170.4,88.1 
	170.5,87.7 170.5,87.5 170.7,87.2 171.1,86.8 171.3,86.6 171.4,86.3 171.4,86.1 171.3,85.8 171.3,85.6 171.4,85.3 171.6,84.9 
	171.7,84.7 171.9,83.7 172,83.4 172.7,82.4 173,82.1 173.3,81.9 174.1,81.6 174.5,80.9 174.4,80.1 174.3,79.2 174.2,78.4 
	174.6,77.7 175.1,77.2 176.2,76.3 177,76.1 177.3,75.9 177.4,75.7 177.4,75.5 177.4,75.4 177.4,75.2 177.8,74.6 177.9,74.3 
	178,73.9 178,73.7 178.2,73.5 178.5,73.2 178.6,73.1 179,72.5 179.2,72.3 179.5,72.2 179.8,72.1 180,72 180.9,72.2 181.1,72.1 
	181.3,72.1 181.5,71.8 181.8,70.8 182.3,70.6 183.6,71.3 184.2,71.4 184.9,71.3 185.5,71.1 186,70.6 186.5,70 186.7,69.9 187,69.7 
	187.4,69.7 187.5,69.6 187.7,69.3 187.6,69.1 187.5,68.9 187.5,68.7 187.7,68.4 188,68.2 188.7,67.9 189,67.6 189.4,66.8 
	189.7,66.5 189.1,66 "/>
<g>
	<path class="st1" d="M205.4,18.6h-0.7v-4.9l-2,4.9h-0.3l-2-4.9v4.9h-0.7v-6h1.1l1.9,4.5l1.9-4.5h1.1V18.6z"/>
	<path class="st1" d="M210.2,18.6h-0.7v-0.5c-0.4,0.4-0.8,0.6-1.4,0.6c-0.4,0-0.8-0.1-1.1-0.4c-0.3-0.3-0.5-0.6-0.5-1.1
		c0-0.5,0.2-0.8,0.5-1.1c0.3-0.2,0.7-0.4,1.1-0.4c0.6,0,1.1,0.2,1.4,0.6v-0.8c0-0.3-0.1-0.5-0.3-0.7s-0.5-0.2-0.8-0.2
		c-0.5,0-1,0.2-1.3,0.6l-0.3-0.5c0.5-0.5,1-0.7,1.7-0.7c0.5,0,0.9,0.1,1.2,0.4c0.3,0.2,0.5,0.6,0.5,1.1V18.6z M208.3,18.3
		c0.5,0,0.9-0.2,1.2-0.5v-0.8c-0.3-0.4-0.7-0.5-1.2-0.5c-0.3,0-0.6,0.1-0.8,0.3c-0.2,0.2-0.3,0.4-0.3,0.7c0,0.3,0.1,0.5,0.3,0.7
		C207.8,18.2,208,18.3,208.3,18.3z"/>
	<path class="st1" d="M213.5,18.7c-0.6,0-1.2-0.2-1.6-0.7c-0.4-0.4-0.6-1-0.6-1.6c0-0.7,0.2-1.2,0.6-1.6c0.4-0.4,0.9-0.6,1.6-0.6
		c0.7,0,1.2,0.3,1.6,0.8l-0.4,0.4c-0.3-0.4-0.6-0.6-1.1-0.6c-0.5,0-0.8,0.2-1.1,0.5S212,16,212,16.5c0,0.5,0.1,0.9,0.4,1.2
		c0.3,0.3,0.6,0.5,1.1,0.5s0.8-0.2,1.1-0.6l0.4,0.4C214.7,18.5,214.2,18.7,213.5,18.7z"/>
	<path class="st1" d="M218,18.7c-0.6,0-1.2-0.2-1.6-0.6c-0.4-0.4-0.6-1-0.6-1.7c0-0.6,0.2-1.2,0.6-1.6c0.4-0.4,0.9-0.7,1.5-0.7
		c0.6,0,1.2,0.2,1.5,0.7s0.6,1,0.6,1.7v0.2h-3.5c0,0.4,0.2,0.8,0.5,1.1c0.3,0.3,0.6,0.4,1.1,0.4c0.5,0,1-0.2,1.3-0.5l0.3,0.4
		C219.3,18.5,218.7,18.7,218,18.7z M219.3,16.2c0-0.4-0.1-0.7-0.4-1c-0.2-0.3-0.6-0.4-1.1-0.4c-0.4,0-0.8,0.1-1,0.4
		c-0.2,0.3-0.4,0.6-0.4,1H219.3z"/>
	<path class="st1" d="M224.9,18.6h-0.7V18c-0.4,0.5-0.9,0.8-1.5,0.8c-0.6,0-1-0.2-1.4-0.6c-0.4-0.4-0.5-1-0.5-1.7
		c0-0.7,0.2-1.2,0.5-1.7s0.8-0.6,1.4-0.6c0.6,0,1.1,0.3,1.5,0.8v-2.3h0.7V18.6z M222.9,18.1c0.3,0,0.5-0.1,0.8-0.2s0.4-0.3,0.5-0.5
		v-2c-0.1-0.2-0.3-0.4-0.6-0.5c-0.2-0.1-0.5-0.2-0.8-0.2c-0.4,0-0.8,0.2-1,0.5s-0.4,0.7-0.4,1.2s0.1,0.9,0.4,1.2
		S222.5,18.1,222.9,18.1z"/>
	<path class="st1" d="M229.7,18.1c-0.4,0.4-0.9,0.7-1.6,0.7s-1.2-0.2-1.6-0.7c-0.4-0.4-0.6-1-0.6-1.6c0-0.6,0.2-1.2,0.6-1.6
		c0.4-0.4,0.9-0.7,1.6-0.7s1.2,0.2,1.6,0.7c0.4,0.4,0.6,1,0.6,1.6C230.3,17.1,230.1,17.6,229.7,18.1z M227.1,17.6
		c0.3,0.3,0.6,0.5,1.1,0.5c0.4,0,0.8-0.2,1.1-0.5s0.4-0.7,0.4-1.2c0-0.5-0.1-0.9-0.4-1.2c-0.3-0.3-0.6-0.5-1.1-0.5
		c-0.4,0-0.8,0.2-1.1,0.5c-0.3,0.3-0.4,0.7-0.4,1.2C226.7,16.9,226.8,17.3,227.1,17.6z"/>
	<path class="st1" d="M235,18.6h-0.7v-2.8c0-0.4-0.1-0.6-0.3-0.8s-0.4-0.2-0.7-0.2c-0.3,0-0.5,0.1-0.7,0.2c-0.2,0.1-0.4,0.3-0.6,0.5
		v3.2h-0.7v-4.3h0.7v0.6c0.2-0.2,0.4-0.4,0.7-0.5c0.3-0.1,0.6-0.2,0.9-0.2c0.9,0,1.4,0.5,1.4,1.4V18.6z"/>
	<path class="st1" d="M236.7,13.7c-0.1,0-0.2,0-0.3-0.1c-0.1-0.1-0.1-0.2-0.1-0.3s0-0.2,0.1-0.3c0.1-0.1,0.2-0.1,0.3-0.1
		c0.1,0,0.2,0,0.3,0.1c0.1,0.1,0.1,0.2,0.1,0.3s0,0.2-0.1,0.3C236.9,13.6,236.8,13.7,236.7,13.7z M237,18.6h-0.7v-4.3h0.7V18.6z"/>
	<path class="st1" d="M241.8,18.6h-0.7v-0.5c-0.4,0.4-0.8,0.6-1.4,0.6c-0.4,0-0.8-0.1-1.1-0.4c-0.3-0.3-0.5-0.6-0.5-1.1
		c0-0.5,0.2-0.8,0.5-1.1c0.3-0.2,0.7-0.4,1.1-0.4c0.6,0,1.1,0.2,1.4,0.6v-0.8c0-0.3-0.1-0.5-0.3-0.7c-0.2-0.2-0.5-0.2-0.8-0.2
		c-0.5,0-1,0.2-1.3,0.6l-0.3-0.5c0.5-0.5,1-0.7,1.7-0.7c0.5,0,0.9,0.1,1.2,0.4c0.3,0.2,0.5,0.6,0.5,1.1V18.6z M239.9,18.3
		c0.5,0,0.9-0.2,1.2-0.5v-0.8c-0.3-0.4-0.7-0.5-1.2-0.5c-0.3,0-0.6,0.1-0.8,0.3c-0.2,0.2-0.3,0.4-0.3,0.7c0,0.3,0.1,0.5,0.3,0.7
		C239.3,18.2,239.6,18.3,239.9,18.3z"/>
</g>
<g>
	<path class="st1" d="M202.3,60.1h-2.7v-6h2.7c0.5,0,0.9,0.1,1.2,0.4c0.3,0.3,0.5,0.7,0.5,1.1c0,0.4-0.1,0.7-0.3,0.9
		c-0.2,0.2-0.5,0.4-0.7,0.5c0.3,0,0.6,0.2,0.8,0.5c0.2,0.3,0.3,0.6,0.3,1c0,0.5-0.2,0.9-0.5,1.2C203.3,59.9,202.8,60.1,202.3,60.1z
		 M202.1,56.7c0.3,0,0.6-0.1,0.8-0.3c0.2-0.2,0.3-0.4,0.3-0.7c0-0.3-0.1-0.5-0.3-0.7s-0.4-0.3-0.8-0.3h-1.8v1.9H202.1z M202.2,59.4
		c0.3,0,0.6-0.1,0.8-0.3s0.3-0.4,0.3-0.8c0-0.3-0.1-0.5-0.3-0.7c-0.2-0.2-0.5-0.3-0.8-0.3h-1.8v2.1H202.2z"/>
	<path class="st1" d="M208.6,60.1h-0.7v-0.5c-0.4,0.4-0.8,0.6-1.4,0.6c-0.4,0-0.8-0.1-1.1-0.4c-0.3-0.3-0.5-0.6-0.5-1.1
		c0-0.5,0.2-0.8,0.5-1.1c0.3-0.2,0.7-0.4,1.1-0.4c0.6,0,1.1,0.2,1.4,0.6v-0.8c0-0.3-0.1-0.5-0.3-0.7c-0.2-0.2-0.5-0.2-0.8-0.2
		c-0.5,0-1,0.2-1.3,0.6l-0.3-0.5c0.5-0.5,1-0.7,1.7-0.7c0.5,0,0.9,0.1,1.2,0.4c0.3,0.2,0.5,0.6,0.5,1.1V60.1z M206.7,59.7
		c0.5,0,0.9-0.2,1.2-0.5v-0.8c-0.3-0.4-0.7-0.5-1.2-0.5c-0.3,0-0.6,0.1-0.8,0.3c-0.2,0.2-0.3,0.4-0.3,0.7c0,0.3,0.1,0.5,0.3,0.7
		C206.2,59.6,206.4,59.7,206.7,59.7z"/>
	<path class="st1" d="M213.6,60.1h-0.7v-2.8c0-0.4-0.1-0.6-0.3-0.8s-0.4-0.2-0.7-0.2c-0.3,0-0.5,0.1-0.7,0.2
		c-0.2,0.1-0.4,0.3-0.6,0.5v3.2h-0.7v-4.3h0.7v0.6c0.2-0.2,0.4-0.4,0.7-0.5s0.6-0.2,0.9-0.2c0.9,0,1.4,0.5,1.4,1.4V60.1z"/>
	<path class="st1" d="M216.7,61.9c-0.4,0-0.7,0-1-0.1c-0.3-0.1-0.5-0.3-0.8-0.5l0.3-0.5c0.3,0.4,0.8,0.6,1.4,0.6
		c0.4,0,0.7-0.1,1-0.3c0.3-0.2,0.4-0.5,0.4-1v-0.6c-0.2,0.2-0.4,0.4-0.6,0.6c-0.3,0.1-0.5,0.2-0.8,0.2c-0.6,0-1-0.2-1.4-0.6
		c-0.4-0.4-0.5-1-0.5-1.6s0.2-1.2,0.5-1.6c0.4-0.4,0.8-0.6,1.4-0.6c0.6,0,1.1,0.3,1.5,0.8v-0.7h0.7V60c0,0.7-0.2,1.1-0.6,1.4
		C217.7,61.7,217.3,61.9,216.7,61.9z M216.8,59.5c0.3,0,0.5-0.1,0.8-0.2c0.2-0.1,0.4-0.3,0.5-0.5v-1.9c-0.1-0.2-0.3-0.4-0.5-0.5
		c-0.2-0.1-0.5-0.2-0.8-0.2c-0.4,0-0.8,0.2-1,0.5s-0.4,0.7-0.4,1.2c0,0.5,0.1,0.9,0.4,1.2S216.3,59.5,216.8,59.5z"/>
	<path class="st1" d="M220.7,60.1h-0.7v-6h0.7V60.1z"/>
	<path class="st1" d="M225.5,60.1h-0.7v-0.5c-0.4,0.4-0.8,0.6-1.4,0.6c-0.4,0-0.8-0.1-1.1-0.4c-0.3-0.3-0.5-0.6-0.5-1.1
		c0-0.5,0.2-0.8,0.5-1.1c0.3-0.2,0.7-0.4,1.1-0.4c0.6,0,1.1,0.2,1.4,0.6v-0.8c0-0.3-0.1-0.5-0.3-0.7s-0.5-0.2-0.8-0.2
		c-0.5,0-1,0.2-1.3,0.6l-0.3-0.5c0.5-0.5,1-0.7,1.7-0.7c0.5,0,0.9,0.1,1.2,0.4c0.3,0.2,0.5,0.6,0.5,1.1V60.1z M223.6,59.7
		c0.5,0,0.9-0.2,1.2-0.5v-0.8c-0.3-0.4-0.7-0.5-1.2-0.5c-0.3,0-0.6,0.1-0.8,0.3c-0.2,0.2-0.3,0.4-0.3,0.7c0,0.3,0.1,0.5,0.3,0.7
		C223,59.6,223.3,59.7,223.6,59.7z"/>
	<path class="st1" d="M230.7,60.1H230v-0.6c-0.4,0.5-0.9,0.8-1.5,0.8c-0.6,0-1-0.2-1.4-0.6c-0.4-0.4-0.5-1-0.5-1.7
		c0-0.7,0.2-1.2,0.5-1.7c0.4-0.4,0.8-0.6,1.4-0.6c0.6,0,1.1,0.3,1.5,0.8v-2.3h0.7V60.1z M228.7,59.6c0.3,0,0.5-0.1,0.8-0.2
		s0.4-0.3,0.5-0.5v-2c-0.1-0.2-0.3-0.4-0.6-0.5c-0.2-0.1-0.5-0.2-0.8-0.2c-0.4,0-0.8,0.2-1,0.5s-0.4,0.7-0.4,1.2s0.1,0.9,0.4,1.2
		S228.3,59.6,228.7,59.6z"/>
	<path class="st1" d="M234,60.2c-0.6,0-1.2-0.2-1.6-0.6c-0.4-0.4-0.6-1-0.6-1.7c0-0.6,0.2-1.2,0.6-1.6s0.9-0.7,1.5-0.7
		c0.6,0,1.2,0.2,1.5,0.7s0.6,1,0.6,1.7v0.2h-3.5c0,0.4,0.2,0.8,0.5,1.1c0.3,0.3,0.6,0.4,1.1,0.4c0.5,0,1-0.2,1.3-0.5l0.3,0.4
		C235.3,60,234.7,60.2,234,60.2z M235.3,57.6c0-0.4-0.1-0.7-0.4-1c-0.2-0.3-0.6-0.4-1.1-0.4c-0.4,0-0.8,0.1-1,0.4
		c-0.2,0.3-0.4,0.6-0.4,1H235.3z"/>
	<path class="st1" d="M238.5,60.2c-0.7,0-1.3-0.2-1.8-0.7l0.4-0.5c0.2,0.2,0.4,0.3,0.6,0.4c0.3,0.1,0.5,0.2,0.8,0.2
		c0.3,0,0.6-0.1,0.8-0.2c0.2-0.1,0.3-0.3,0.3-0.5c0-0.2-0.1-0.3-0.3-0.5c-0.2-0.1-0.4-0.2-0.7-0.3c-0.3-0.1-0.5-0.1-0.8-0.2
		c-0.3-0.1-0.5-0.2-0.7-0.4s-0.3-0.4-0.3-0.7c0-0.4,0.1-0.7,0.4-0.9c0.3-0.2,0.7-0.4,1.2-0.4c0.7,0,1.2,0.2,1.6,0.6l-0.3,0.5
		c-0.3-0.4-0.7-0.5-1.3-0.5c-0.3,0-0.5,0.1-0.7,0.2s-0.3,0.3-0.3,0.5c0,0.2,0.1,0.3,0.3,0.4s0.4,0.2,0.7,0.2
		c0.3,0.1,0.5,0.1,0.8,0.2s0.5,0.2,0.7,0.4c0.2,0.2,0.3,0.4,0.3,0.8c0,0.4-0.2,0.7-0.5,0.9C239.4,60.1,239,60.2,238.5,60.2z"/>
	<path class="st1" d="M244.9,60.1h-0.7v-2.9c0-0.4-0.1-0.6-0.3-0.8c-0.2-0.1-0.4-0.2-0.7-0.2c-0.2,0-0.5,0.1-0.7,0.2
		c-0.2,0.1-0.4,0.3-0.6,0.5v3.2h-0.7v-6h0.7v2.3c0.2-0.2,0.4-0.4,0.7-0.5c0.3-0.1,0.6-0.2,0.9-0.2c0.9,0,1.4,0.5,1.4,1.4V60.1z"/>
</g>
<g>
	<path class="st1" d="M202.4,89.9c-0.9,0-1.6-0.3-2.2-0.9c-0.6-0.6-0.9-1.3-0.9-2.2s0.3-1.7,0.9-2.2c0.6-0.6,1.3-0.9,2.2-0.9
		c1,0,1.7,0.4,2.3,1.2l-0.6,0.4c-0.2-0.3-0.4-0.5-0.7-0.6c-0.3-0.2-0.6-0.2-0.9-0.2c-0.7,0-1.2,0.2-1.7,0.7c-0.4,0.5-0.7,1-0.7,1.8
		s0.2,1.3,0.7,1.8c0.4,0.5,1,0.7,1.7,0.7c0.3,0,0.7-0.1,0.9-0.2c0.3-0.2,0.5-0.4,0.7-0.6l0.6,0.4C204.1,89.5,203.4,89.9,202.4,89.9z
		"/>
	<path class="st1" d="M209.1,89.3c-0.4,0.4-0.9,0.7-1.6,0.7s-1.2-0.2-1.6-0.7c-0.4-0.4-0.6-1-0.6-1.6c0-0.6,0.2-1.2,0.6-1.6
		c0.4-0.4,0.9-0.7,1.6-0.7s1.2,0.2,1.6,0.7c0.4,0.4,0.6,1,0.6,1.6C209.7,88.3,209.5,88.8,209.1,89.3z M206.5,88.8
		c0.3,0.3,0.6,0.5,1.1,0.5c0.4,0,0.8-0.2,1.1-0.5s0.4-0.7,0.4-1.2c0-0.5-0.1-0.9-0.4-1.2c-0.3-0.3-0.6-0.5-1.1-0.5
		c-0.4,0-0.8,0.2-1.1,0.5c-0.3,0.3-0.4,0.7-0.4,1.2C206.1,88.1,206.2,88.5,206.5,88.8z"/>
	<path class="st1" d="M214.4,89.8h-0.7V87c0-0.4-0.1-0.6-0.3-0.8S213,86,212.7,86c-0.3,0-0.5,0.1-0.7,0.2c-0.2,0.1-0.4,0.3-0.6,0.5
		v3.2h-0.7v-4.3h0.7v0.6c0.2-0.2,0.4-0.4,0.7-0.5c0.3-0.1,0.6-0.2,0.9-0.2c0.9,0,1.4,0.5,1.4,1.4V89.8z"/>
	<path class="st1" d="M217.5,91.6c-0.4,0-0.7,0-1-0.1c-0.3-0.1-0.5-0.3-0.8-0.5l0.3-0.5c0.3,0.4,0.8,0.6,1.4,0.6
		c0.4,0,0.7-0.1,1-0.3c0.3-0.2,0.4-0.5,0.4-1v-0.6c-0.2,0.2-0.4,0.4-0.6,0.6s-0.5,0.2-0.8,0.2c-0.6,0-1-0.2-1.4-0.6
		c-0.4-0.4-0.5-1-0.5-1.6s0.2-1.2,0.5-1.6c0.4-0.4,0.8-0.6,1.4-0.6c0.6,0,1.1,0.3,1.5,0.8v-0.7h0.7v4.2c0,0.7-0.2,1.1-0.6,1.4
		C218.6,91.4,218.1,91.6,217.5,91.6z M217.6,89.3c0.3,0,0.5-0.1,0.8-0.2c0.2-0.1,0.4-0.3,0.5-0.5v-1.9c-0.1-0.2-0.3-0.4-0.5-0.5
		c-0.2-0.1-0.5-0.2-0.8-0.2c-0.4,0-0.8,0.2-1,0.5c-0.2,0.3-0.4,0.7-0.4,1.2c0,0.5,0.1,0.9,0.4,1.2S217.2,89.3,217.6,89.3z"/>
	<path class="st1" d="M224.4,89.3c-0.4,0.4-0.9,0.7-1.6,0.7s-1.2-0.2-1.6-0.7c-0.4-0.4-0.6-1-0.6-1.6c0-0.6,0.2-1.2,0.6-1.6
		c0.4-0.4,0.9-0.7,1.6-0.7s1.2,0.2,1.6,0.7c0.4,0.4,0.6,1,0.6,1.6C224.9,88.3,224.8,88.8,224.4,89.3z M221.7,88.8
		c0.3,0.3,0.6,0.5,1.1,0.5c0.4,0,0.8-0.2,1.1-0.5s0.4-0.7,0.4-1.2c0-0.5-0.1-0.9-0.4-1.2c-0.3-0.3-0.6-0.5-1.1-0.5
		c-0.4,0-0.8,0.2-1.1,0.5s-0.4,0.7-0.4,1.2C221.3,88.1,221.5,88.5,221.7,88.8z"/>
</g>
<g>
	<path class="st1" d="M204.1,120.7h-0.9l-2.3-2.7l-0.6,0.7v2h-0.7v-6h0.7v3.1l2.7-3.1h0.9l-2.5,2.9L204.1,120.7z"/>
	<path class="st1" d="M208.1,120.2c-0.4,0.4-0.9,0.7-1.6,0.7s-1.2-0.2-1.6-0.7c-0.4-0.4-0.6-1-0.6-1.6c0-0.6,0.2-1.2,0.6-1.6
		c0.4-0.4,0.9-0.7,1.6-0.7s1.2,0.2,1.6,0.7c0.4,0.4,0.6,1,0.6,1.6C208.7,119.2,208.5,119.7,208.1,120.2z M205.5,119.7
		c0.3,0.3,0.6,0.5,1.1,0.5c0.4,0,0.8-0.2,1.1-0.5s0.4-0.7,0.4-1.2c0-0.5-0.1-0.9-0.4-1.2c-0.3-0.3-0.6-0.5-1.1-0.5
		c-0.4,0-0.8,0.2-1.1,0.5s-0.4,0.7-0.4,1.2C205.1,119,205.2,119.4,205.5,119.7z"/>
	<path class="st1" d="M211.2,120.8c-0.7,0-1.3-0.2-1.8-0.7l0.4-0.5c0.1,0.2,0.4,0.3,0.6,0.4c0.3,0.1,0.5,0.2,0.8,0.2
		c0.3,0,0.6-0.1,0.8-0.2c0.2-0.1,0.3-0.3,0.3-0.5c0-0.2-0.1-0.3-0.3-0.5c-0.2-0.1-0.4-0.2-0.7-0.3c-0.3-0.1-0.5-0.1-0.8-0.2
		c-0.3-0.1-0.5-0.2-0.7-0.4s-0.3-0.4-0.3-0.7c0-0.4,0.1-0.7,0.4-0.9c0.3-0.2,0.7-0.4,1.2-0.4c0.7,0,1.2,0.2,1.6,0.6l-0.3,0.5
		c-0.3-0.4-0.7-0.5-1.3-0.5c-0.3,0-0.5,0.1-0.7,0.2c-0.2,0.1-0.3,0.3-0.3,0.5c0,0.2,0.1,0.3,0.3,0.4s0.4,0.2,0.7,0.2
		c0.3,0.1,0.5,0.1,0.8,0.2c0.3,0.1,0.5,0.2,0.7,0.4c0.2,0.2,0.3,0.4,0.3,0.8c0,0.4-0.2,0.7-0.5,0.9
		C212.1,120.7,211.7,120.8,211.2,120.8z"/>
	<path class="st1" d="M217.4,120.2c-0.4,0.4-0.9,0.7-1.6,0.7c-0.6,0-1.2-0.2-1.6-0.7s-0.6-1-0.6-1.6c0-0.6,0.2-1.2,0.6-1.6
		c0.4-0.4,0.9-0.7,1.6-0.7c0.6,0,1.2,0.2,1.6,0.7c0.4,0.4,0.6,1,0.6,1.6C218,119.2,217.8,119.7,217.4,120.2z M214.8,119.7
		c0.3,0.3,0.6,0.5,1.1,0.5s0.8-0.2,1.1-0.5s0.4-0.7,0.4-1.2c0-0.5-0.1-0.9-0.4-1.2c-0.3-0.3-0.6-0.5-1.1-0.5s-0.8,0.2-1.1,0.5
		c-0.3,0.3-0.4,0.7-0.4,1.2C214.4,119,214.6,119.4,214.8,119.7z"/>
	<path class="st1" d="M221,120.7h-0.7l-1.8-4.3h0.7l1.4,3.6l1.4-3.6h0.7L221,120.7z"/>
	<path class="st1" d="M227,120.2c-0.4,0.4-0.9,0.7-1.6,0.7s-1.2-0.2-1.6-0.7c-0.4-0.4-0.6-1-0.6-1.6c0-0.6,0.2-1.2,0.6-1.6
		c0.4-0.4,0.9-0.7,1.6-0.7s1.2,0.2,1.6,0.7c0.4,0.4,0.6,1,0.6,1.6C227.6,119.2,227.4,119.7,227,120.2z M224.4,119.7
		c0.3,0.3,0.6,0.5,1.1,0.5c0.4,0,0.8-0.2,1.1-0.5s0.4-0.7,0.4-1.2c0-0.5-0.1-0.9-0.4-1.2c-0.3-0.3-0.6-0.5-1.1-0.5
		c-0.4,0-0.8,0.2-1.1,0.5c-0.3,0.3-0.4,0.7-0.4,1.2C224,119,224.1,119.4,224.4,119.7z"/>
</g>
<g>
	<path class="st1" d="M27.7,30.8H27v-6h2.4c0.6,0,1,0.2,1.4,0.5c0.3,0.3,0.5,0.8,0.5,1.3c0,0.5-0.2,0.9-0.5,1.3
		c-0.3,0.3-0.8,0.5-1.4,0.5h-1.7V30.8z M29.3,27.7c0.4,0,0.6-0.1,0.9-0.3c0.2-0.2,0.3-0.5,0.3-0.8s-0.1-0.6-0.3-0.8
		c-0.2-0.2-0.5-0.3-0.9-0.3h-1.6v2.3H29.3z"/>
	<path class="st1" d="M35.5,30.8h-0.7v-0.5c-0.4,0.4-0.8,0.6-1.4,0.6c-0.4,0-0.8-0.1-1.1-0.4c-0.3-0.3-0.5-0.6-0.5-1.1
		c0-0.5,0.2-0.8,0.5-1.1c0.3-0.2,0.7-0.4,1.1-0.4c0.6,0,1.1,0.2,1.4,0.6v-0.8c0-0.3-0.1-0.5-0.3-0.7c-0.2-0.2-0.5-0.2-0.8-0.2
		c-0.5,0-1,0.2-1.3,0.6L32,27c0.5-0.5,1-0.7,1.7-0.7c0.5,0,0.9,0.1,1.2,0.4c0.3,0.2,0.5,0.6,0.5,1.1V30.8z M33.6,30.4
		c0.5,0,0.9-0.2,1.2-0.5V29c-0.3-0.4-0.7-0.5-1.2-0.5c-0.3,0-0.6,0.1-0.8,0.3c-0.2,0.2-0.3,0.4-0.3,0.7c0,0.3,0.1,0.5,0.3,0.7
		C33,30.3,33.3,30.4,33.6,30.4z"/>
	<path class="st1" d="M37.5,30.8h-0.7v-6h0.7V30.8z"/>
	<path class="st1" d="M40.8,30.9c-0.6,0-1.2-0.2-1.6-0.6c-0.4-0.4-0.6-1-0.6-1.7c0-0.6,0.2-1.2,0.6-1.6s0.9-0.7,1.5-0.7
		c0.6,0,1.2,0.2,1.5,0.7s0.6,1,0.6,1.7v0.2h-3.5c0,0.4,0.2,0.8,0.5,1.1c0.3,0.3,0.6,0.4,1.1,0.4c0.5,0,1-0.2,1.3-0.5l0.3,0.4
		C42.1,30.6,41.5,30.9,40.8,30.9z M42.2,28.3c0-0.4-0.1-0.7-0.4-1c-0.2-0.3-0.6-0.4-1.1-0.4c-0.4,0-0.8,0.1-1,0.4
		c-0.2,0.3-0.4,0.6-0.4,1H42.2z"/>
	<path class="st1" d="M45.3,30.9c-0.7,0-1.3-0.2-1.8-0.7l0.4-0.5c0.2,0.2,0.4,0.3,0.6,0.4c0.3,0.1,0.5,0.2,0.8,0.2
		c0.3,0,0.6-0.1,0.8-0.2c0.2-0.1,0.3-0.3,0.3-0.5c0-0.2-0.1-0.3-0.3-0.5c-0.2-0.1-0.4-0.2-0.7-0.3c-0.3-0.1-0.5-0.1-0.8-0.2
		c-0.3-0.1-0.5-0.2-0.7-0.4s-0.3-0.4-0.3-0.7c0-0.4,0.1-0.7,0.4-0.9c0.3-0.2,0.7-0.4,1.2-0.4c0.7,0,1.2,0.2,1.6,0.6l-0.3,0.5
		c-0.3-0.4-0.7-0.5-1.3-0.5c-0.3,0-0.5,0.1-0.7,0.2s-0.3,0.3-0.3,0.5c0,0.2,0.1,0.3,0.3,0.4s0.4,0.2,0.7,0.2
		c0.3,0.1,0.5,0.1,0.8,0.2s0.5,0.2,0.7,0.4c0.2,0.2,0.3,0.4,0.3,0.8c0,0.4-0.2,0.7-0.5,0.9C46.2,30.7,45.8,30.9,45.3,30.9z"/>
	<path class="st1" d="M49.2,30.9c-0.3,0-0.6-0.1-0.7-0.3c-0.2-0.2-0.2-0.4-0.2-0.8V27h-0.7v-0.6h0.7v-1.2h0.7v1.2h0.9V27h-0.9v2.7
		c0,0.2,0,0.3,0.1,0.4c0.1,0.1,0.2,0.2,0.3,0.2c0.2,0,0.4-0.1,0.5-0.2l0.2,0.5C49.8,30.8,49.5,30.9,49.2,30.9z"/>
	<path class="st1" d="M51.1,25.8c-0.1,0-0.2,0-0.3-0.1c-0.1-0.1-0.1-0.2-0.1-0.3s0-0.2,0.1-0.3c0.1-0.1,0.2-0.1,0.3-0.1
		c0.1,0,0.2,0,0.3,0.1c0.1,0.1,0.1,0.2,0.1,0.3s0,0.2-0.1,0.3C51.3,25.7,51.2,25.8,51.1,25.8z M51.4,30.8h-0.7v-4.3h0.7V30.8z"/>
	<path class="st1" d="M56.4,30.8h-0.7v-2.8c0-0.4-0.1-0.6-0.3-0.8s-0.4-0.2-0.7-0.2c-0.3,0-0.5,0.1-0.7,0.2
		c-0.2,0.1-0.4,0.3-0.6,0.5v3.2h-0.7v-4.3h0.7V27c0.2-0.2,0.4-0.4,0.7-0.5c0.3-0.1,0.6-0.2,0.9-0.2c0.9,0,1.4,0.5,1.4,1.4V30.8z"/>
	<path class="st1" d="M59.7,30.9c-0.6,0-1.2-0.2-1.6-0.6c-0.4-0.4-0.6-1-0.6-1.7c0-0.6,0.2-1.2,0.6-1.6c0.4-0.4,0.9-0.7,1.5-0.7
		c0.6,0,1.2,0.2,1.5,0.7s0.6,1,0.6,1.7v0.2h-3.5c0,0.4,0.2,0.8,0.5,1.1c0.3,0.3,0.6,0.4,1.1,0.4c0.5,0,1-0.2,1.3-0.5l0.3,0.4
		C61,30.6,60.4,30.9,59.7,30.9z M61,28.3c0-0.4-0.1-0.7-0.4-1c-0.2-0.3-0.6-0.4-1.1-0.4c-0.4,0-0.8,0.1-1,0.4
		c-0.2,0.3-0.4,0.6-0.4,1H61z"/>
</g>
<g>
	<g>
		<path class="st1" d="M125,18.7h-0.7v-6h0.7V18.7z"/>
		<path class="st1" d="M127.1,18.7h-0.7v-4.3h0.7v0.7c0.4-0.5,0.9-0.8,1.4-0.8V15c-0.1,0-0.2,0-0.3,0c-0.2,0-0.4,0.1-0.7,0.2
			c-0.2,0.1-0.4,0.3-0.5,0.5V18.7z"/>
		<path class="st1" d="M132.8,18.7h-0.7v-0.5c-0.4,0.4-0.8,0.6-1.4,0.6c-0.4,0-0.8-0.1-1.1-0.4c-0.3-0.3-0.5-0.6-0.5-1.1
			c0-0.5,0.2-0.8,0.5-1.1c0.3-0.2,0.7-0.4,1.1-0.4c0.6,0,1.1,0.2,1.4,0.6v-0.8c0-0.3-0.1-0.5-0.3-0.7s-0.5-0.2-0.8-0.2
			c-0.5,0-1,0.2-1.3,0.6l-0.3-0.5c0.5-0.5,1-0.7,1.7-0.7c0.5,0,0.9,0.1,1.2,0.4c0.3,0.2,0.5,0.6,0.5,1.1V18.7z M130.9,18.3
			c0.5,0,0.9-0.2,1.2-0.5V17c-0.3-0.4-0.7-0.5-1.2-0.5c-0.3,0-0.6,0.1-0.8,0.3c-0.2,0.2-0.3,0.4-0.3,0.7c0,0.3,0.1,0.5,0.3,0.7
			C130.3,18.2,130.6,18.3,130.9,18.3z"/>
		<path class="st1" d="M135.8,18.8c-0.6,0-1-0.2-1.4-0.6c-0.4-0.4-0.5-1-0.5-1.7c0-0.7,0.2-1.2,0.5-1.7c0.4-0.4,0.8-0.6,1.4-0.6
			c0.3,0,0.6,0.1,0.8,0.2c0.3,0.1,0.5,0.3,0.6,0.5v-0.6h0.7v6h-0.7V18C136.9,18.6,136.4,18.8,135.8,18.8z M135.9,18.2
			c0.3,0,0.5-0.1,0.8-0.2c0.2-0.1,0.4-0.3,0.5-0.5v-2c-0.1-0.2-0.3-0.4-0.5-0.5c-0.2-0.1-0.5-0.2-0.8-0.2c-0.4,0-0.8,0.2-1,0.5
			s-0.4,0.7-0.4,1.2c0,0.5,0.1,0.9,0.4,1.2C135.2,18,135.5,18.2,135.9,18.2z"/>
	</g>
</g>
<g>
	<path class="st1" d="M45.4,145.8c-1,0-1.7-0.3-2.3-1l0.4-0.6c0.5,0.6,1.1,0.9,1.9,0.9c0.5,0,0.8-0.1,1.1-0.3
		c0.2-0.2,0.3-0.4,0.3-0.7c0-0.2-0.1-0.4-0.2-0.5c-0.1-0.1-0.3-0.3-0.5-0.3s-0.4-0.2-0.7-0.2c-0.3-0.1-0.5-0.1-0.8-0.2
		c-0.3-0.1-0.5-0.2-0.7-0.3c-0.2-0.1-0.4-0.3-0.5-0.5c-0.1-0.2-0.2-0.5-0.2-0.7c0-0.5,0.2-0.9,0.6-1.2c0.4-0.3,0.9-0.5,1.5-0.5
		c0.9,0,1.6,0.3,2.1,0.8L47,141c-0.4-0.5-1-0.7-1.7-0.7c-0.4,0-0.7,0.1-0.9,0.3c-0.2,0.2-0.3,0.4-0.3,0.7c0,0.2,0.1,0.4,0.3,0.5
		c0.2,0.1,0.4,0.2,0.7,0.3c0.3,0.1,0.5,0.1,0.9,0.2s0.6,0.2,0.9,0.3c0.3,0.1,0.5,0.3,0.7,0.5c0.2,0.2,0.3,0.5,0.3,0.9
		c0,0.5-0.2,0.9-0.5,1.3C46.7,145.7,46.1,145.8,45.4,145.8z"/>
	<path class="st1" d="M48.4,147.4l0.1-0.6c0.1,0,0.2,0.1,0.4,0.1c0.2,0,0.3,0,0.4-0.1c0.1-0.1,0.2-0.2,0.3-0.4l0.3-0.7l-1.8-4.4h0.7
		l1.4,3.6l1.4-3.6h0.7l-2.2,5.2c-0.2,0.6-0.7,0.9-1.3,0.9C48.7,147.5,48.6,147.5,48.4,147.4z"/>
	<path class="st1" d="M53.7,145.7h-0.7v-4.3h0.7v0.7c0.4-0.5,0.9-0.8,1.4-0.8v0.7c-0.1,0-0.2,0-0.3,0c-0.2,0-0.4,0.1-0.7,0.2
		c-0.2,0.1-0.4,0.3-0.5,0.5V145.7z"/>
	<path class="st1" d="M56.4,140.8c-0.1,0-0.2,0-0.3-0.1c-0.1-0.1-0.1-0.2-0.1-0.3s0-0.2,0.1-0.3c0.1-0.1,0.2-0.1,0.3-0.1
		c0.1,0,0.2,0,0.3,0.1c0.1,0.1,0.1,0.2,0.1,0.3s0,0.2-0.1,0.3C56.6,140.7,56.5,140.8,56.4,140.8z M56.7,145.7H56v-4.3h0.7V145.7z"/>
	<path class="st1" d="M61.4,145.7h-0.7v-0.5c-0.4,0.4-0.8,0.6-1.4,0.6c-0.4,0-0.8-0.1-1.1-0.4c-0.3-0.3-0.5-0.6-0.5-1.1
		c0-0.5,0.2-0.8,0.5-1.1c0.3-0.2,0.7-0.4,1.1-0.4c0.6,0,1.1,0.2,1.4,0.6v-0.8c0-0.3-0.1-0.5-0.3-0.7s-0.5-0.2-0.8-0.2
		c-0.5,0-1,0.2-1.3,0.6L58,142c0.5-0.5,1-0.7,1.7-0.7c0.5,0,0.9,0.1,1.2,0.4c0.3,0.2,0.5,0.6,0.5,1.1V145.7z M59.6,145.4
		c0.5,0,0.9-0.2,1.2-0.5V144c-0.3-0.4-0.7-0.5-1.2-0.5c-0.3,0-0.6,0.1-0.8,0.3c-0.2,0.2-0.3,0.4-0.3,0.7c0,0.3,0.1,0.5,0.3,0.7
		C59,145.3,59.3,145.4,59.6,145.4z"/>
</g>
<g>
	<path class="st1" d="M21.2,59.6h-0.9l-0.5-1.3h-3l-0.5,1.3h-0.9l2.4-6h0.9L21.2,59.6z M19.6,57.6l-1.3-3.2L17,57.6H19.6z"/>
	<path class="st1" d="M22.7,59.6H22v-3.8h-0.7v-0.6H22v-0.3c0-0.4,0.1-0.8,0.3-1c0.2-0.2,0.5-0.4,0.9-0.4c0.4,0,0.7,0.1,0.9,0.3
		l-0.3,0.4c-0.2-0.1-0.3-0.2-0.5-0.2c-0.2,0-0.4,0.1-0.5,0.2s-0.2,0.4-0.2,0.6v0.3h0.9v0.6h-0.9V59.6z"/>
	<path class="st1" d="M26.1,61.4c-0.4,0-0.7,0-1-0.1c-0.3-0.1-0.5-0.3-0.8-0.5l0.3-0.5c0.3,0.4,0.8,0.6,1.4,0.6c0.4,0,0.7-0.1,1-0.3
		c0.3-0.2,0.4-0.5,0.4-1v-0.6c-0.2,0.2-0.4,0.4-0.6,0.6s-0.5,0.2-0.8,0.2c-0.6,0-1-0.2-1.4-0.6c-0.4-0.4-0.5-1-0.5-1.6
		s0.2-1.2,0.5-1.6c0.4-0.4,0.8-0.6,1.4-0.6c0.6,0,1.1,0.3,1.5,0.8v-0.7h0.7v4.2c0,0.7-0.2,1.1-0.6,1.4
		C27.2,61.2,26.7,61.4,26.1,61.4z M26.2,59.1c0.3,0,0.5-0.1,0.8-0.2c0.2-0.1,0.4-0.3,0.5-0.5v-1.9c-0.1-0.2-0.3-0.4-0.5-0.5
		c-0.2-0.1-0.5-0.2-0.8-0.2c-0.4,0-0.8,0.2-1,0.5c-0.2,0.3-0.4,0.7-0.4,1.2c0,0.5,0.1,0.9,0.4,1.2S25.8,59.1,26.2,59.1z"/>
	<path class="st1" d="M33.2,59.6h-0.7v-2.9c0-0.4-0.1-0.6-0.3-0.8c-0.2-0.1-0.4-0.2-0.7-0.2c-0.2,0-0.5,0.1-0.7,0.2
		c-0.2,0.1-0.4,0.3-0.6,0.5v3.2h-0.7v-6h0.7v2.3c0.2-0.2,0.4-0.4,0.7-0.5c0.3-0.1,0.6-0.2,0.9-0.2c0.9,0,1.4,0.5,1.4,1.4V59.6z"/>
	<path class="st1" d="M37.9,59.6h-0.7v-0.5c-0.4,0.4-0.8,0.6-1.4,0.6c-0.4,0-0.8-0.1-1.1-0.4c-0.3-0.3-0.5-0.6-0.5-1.1
		c0-0.5,0.2-0.8,0.5-1.1c0.3-0.2,0.7-0.4,1.1-0.4c0.6,0,1.1,0.2,1.4,0.6v-0.8c0-0.3-0.1-0.5-0.3-0.7s-0.5-0.2-0.8-0.2
		c-0.5,0-1,0.2-1.3,0.6l-0.3-0.5c0.5-0.5,1-0.7,1.7-0.7c0.5,0,0.9,0.1,1.2,0.4c0.3,0.2,0.5,0.6,0.5,1.1V59.6z M36.1,59.2
		c0.5,0,0.9-0.2,1.2-0.5v-0.8c-0.3-0.4-0.7-0.5-1.2-0.5c-0.3,0-0.6,0.1-0.8,0.3C35.1,57.8,35,58,35,58.3c0,0.3,0.1,0.5,0.3,0.7
		C35.5,59.2,35.7,59.2,36.1,59.2z"/>
	<path class="st1" d="M42.9,59.6h-0.7v-2.8c0-0.4-0.1-0.6-0.3-0.8s-0.4-0.2-0.7-0.2c-0.3,0-0.5,0.1-0.7,0.2
		c-0.2,0.1-0.4,0.3-0.6,0.5v3.2h-0.7v-4.3h0.7v0.6c0.2-0.2,0.4-0.4,0.7-0.5c0.3-0.1,0.6-0.2,0.9-0.2c0.9,0,1.4,0.5,1.4,1.4V59.6z"/>
	<path class="st1" d="M44.6,54.7c-0.1,0-0.2,0-0.3-0.1c-0.1-0.1-0.1-0.2-0.1-0.3s0-0.2,0.1-0.3c0.1-0.1,0.2-0.1,0.3-0.1
		c0.1,0,0.2,0,0.3,0.1C45,54,45,54.1,45,54.2s0,0.2-0.1,0.3C44.8,54.6,44.7,54.7,44.6,54.7z M44.9,59.6h-0.7v-4.3h0.7V59.6z"/>
	<path class="st1" d="M47.6,59.7c-0.7,0-1.3-0.2-1.8-0.7l0.4-0.5c0.1,0.2,0.4,0.3,0.6,0.4c0.3,0.1,0.5,0.2,0.8,0.2
		c0.3,0,0.6-0.1,0.8-0.2c0.2-0.1,0.3-0.3,0.3-0.5c0-0.2-0.1-0.3-0.3-0.5c-0.2-0.1-0.4-0.2-0.7-0.3c-0.3-0.1-0.5-0.1-0.8-0.2
		c-0.3-0.1-0.5-0.2-0.7-0.4S46,56.7,46,56.4c0-0.4,0.1-0.7,0.4-0.9c0.3-0.2,0.7-0.4,1.2-0.4c0.7,0,1.2,0.2,1.6,0.6l-0.3,0.5
		c-0.3-0.4-0.7-0.5-1.3-0.5c-0.3,0-0.5,0.1-0.7,0.2c-0.2,0.1-0.3,0.3-0.3,0.5c0,0.2,0.1,0.3,0.3,0.4s0.4,0.2,0.7,0.2
		c0.3,0.1,0.5,0.1,0.8,0.2c0.3,0.1,0.5,0.2,0.7,0.4c0.2,0.2,0.3,0.4,0.3,0.8c0,0.4-0.2,0.7-0.5,0.9C48.6,59.6,48.2,59.7,47.6,59.7z"
		/>
	<path class="st1" d="M51.5,59.7c-0.3,0-0.6-0.1-0.7-0.3c-0.2-0.2-0.2-0.4-0.2-0.8v-2.8h-0.7v-0.6h0.7v-1.2h0.7v1.2h0.9v0.6h-0.9
		v2.7c0,0.2,0,0.3,0.1,0.4s0.2,0.2,0.3,0.2c0.2,0,0.4-0.1,0.5-0.2l0.2,0.5C52.2,59.6,51.9,59.7,51.5,59.7z"/>
	<path class="st1" d="M56.5,59.6h-0.7v-0.5c-0.4,0.4-0.8,0.6-1.4,0.6c-0.4,0-0.8-0.1-1.1-0.4c-0.3-0.3-0.5-0.6-0.5-1.1
		c0-0.5,0.2-0.8,0.5-1.1c0.3-0.2,0.7-0.4,1.1-0.4c0.6,0,1.1,0.2,1.4,0.6v-0.8c0-0.3-0.1-0.5-0.3-0.7c-0.2-0.2-0.5-0.2-0.8-0.2
		c-0.5,0-1,0.2-1.3,0.6l-0.3-0.5c0.5-0.5,1-0.7,1.7-0.7c0.5,0,0.9,0.1,1.2,0.4c0.3,0.2,0.5,0.6,0.5,1.1V59.6z M54.6,59.2
		c0.5,0,0.9-0.2,1.2-0.5v-0.8c-0.3-0.4-0.7-0.5-1.2-0.5c-0.3,0-0.6,0.1-0.8,0.3c-0.2,0.2-0.3,0.4-0.3,0.7c0,0.3,0.1,0.5,0.3,0.7
		C54,59.2,54.3,59.2,54.6,59.2z"/>
	<path class="st1" d="M61.4,59.6h-0.7v-2.8c0-0.4-0.1-0.6-0.3-0.8s-0.4-0.2-0.7-0.2c-0.3,0-0.5,0.1-0.7,0.2
		c-0.2,0.1-0.4,0.3-0.6,0.5v3.2h-0.7v-4.3h0.7v0.6c0.2-0.2,0.4-0.4,0.7-0.5s0.6-0.2,0.9-0.2c0.9,0,1.4,0.5,1.4,1.4V59.6z"/>
</g>
<g>
	<path class="st1" d="M48.7,89.8H48v-6h0.7V89.8z"/>
	<path class="st1" d="M50.8,89.8h-0.7v-4.3h0.7v0.7c0.4-0.5,0.9-0.8,1.4-0.8v0.7c-0.1,0-0.2,0-0.3,0c-0.2,0-0.4,0.1-0.7,0.2
		c-0.2,0.1-0.4,0.3-0.5,0.5V89.8z"/>
	<path class="st1" d="M56.5,89.8h-0.7v-0.5c-0.4,0.4-0.8,0.6-1.4,0.6c-0.4,0-0.8-0.1-1.1-0.4c-0.3-0.3-0.5-0.6-0.5-1.1
		c0-0.5,0.2-0.8,0.5-1.1c0.3-0.2,0.7-0.4,1.1-0.4c0.6,0,1.1,0.2,1.4,0.6v-0.8c0-0.3-0.1-0.5-0.3-0.7s-0.5-0.2-0.8-0.2
		c-0.5,0-1,0.2-1.3,0.6l-0.3-0.5c0.5-0.5,1-0.7,1.7-0.7c0.5,0,0.9,0.1,1.2,0.4c0.3,0.2,0.5,0.6,0.5,1.1V89.8z M54.6,89.4
		c0.5,0,0.9-0.2,1.2-0.5v-0.8c-0.3-0.4-0.7-0.5-1.2-0.5c-0.3,0-0.6,0.1-0.8,0.3c-0.2,0.2-0.3,0.4-0.3,0.7c0,0.3,0.1,0.5,0.3,0.7
		C54,89.3,54.3,89.4,54.6,89.4z"/>
	<path class="st1" d="M61.4,89.8h-0.7V87c0-0.4-0.1-0.6-0.3-0.8S60.1,86,59.8,86c-0.3,0-0.5,0.1-0.7,0.2c-0.2,0.1-0.4,0.3-0.6,0.5
		v3.2h-0.7v-4.3h0.7v0.6c0.2-0.2,0.4-0.4,0.7-0.5c0.3-0.1,0.6-0.2,0.9-0.2c0.9,0,1.4,0.5,1.4,1.4V89.8z"/>
</g>
<g>
	<path class="st1" d="M30.5,117.6h-0.7v-6h2.4c0.6,0,1,0.2,1.4,0.5c0.3,0.3,0.5,0.8,0.5,1.3c0,0.5-0.2,0.9-0.5,1.3
		c-0.3,0.3-0.8,0.5-1.4,0.5h-1.7V117.6z M32.1,114.5c0.4,0,0.6-0.1,0.9-0.3c0.2-0.2,0.3-0.5,0.3-0.8s-0.1-0.6-0.3-0.8
		c-0.2-0.2-0.5-0.3-0.9-0.3h-1.6v2.3H32.1z"/>
	<path class="st1" d="M38.3,117.6h-0.7v-0.5c-0.4,0.4-0.8,0.6-1.4,0.6c-0.4,0-0.8-0.1-1.1-0.4c-0.3-0.3-0.5-0.6-0.5-1.1
		c0-0.5,0.2-0.8,0.5-1.1c0.3-0.2,0.7-0.4,1.1-0.4c0.6,0,1.1,0.2,1.4,0.6v-0.8c0-0.3-0.1-0.5-0.3-0.7s-0.5-0.2-0.8-0.2
		c-0.5,0-1,0.2-1.3,0.6l-0.3-0.5c0.5-0.5,1-0.7,1.7-0.7c0.5,0,0.9,0.1,1.2,0.4c0.3,0.2,0.5,0.6,0.5,1.1V117.6z M36.4,117.2
		c0.5,0,0.9-0.2,1.2-0.5v-0.8c-0.3-0.4-0.7-0.5-1.2-0.5c-0.3,0-0.6,0.1-0.8,0.3c-0.2,0.2-0.3,0.4-0.3,0.7c0,0.3,0.1,0.5,0.3,0.7
		C35.8,117.1,36.1,117.2,36.4,117.2z"/>
	<path class="st1" d="M43.4,117.6h-0.9l-1.6-2l-0.7,0.7v1.2h-0.7v-6h0.7v4l2.3-2.3h0.9l-1.9,2L43.4,117.6z"/>
	<path class="st1" d="M44.6,112.6c-0.1,0-0.2,0-0.3-0.1c-0.1-0.1-0.1-0.2-0.1-0.3s0-0.2,0.1-0.3c0.1-0.1,0.2-0.1,0.3-0.1
		c0.1,0,0.2,0,0.3,0.1c0.1,0.1,0.1,0.2,0.1,0.3s0,0.2-0.1,0.3C44.8,112.6,44.7,112.6,44.6,112.6z M44.9,117.6h-0.7v-4.3h0.7V117.6z"
		/>
	<path class="st1" d="M47.6,117.7c-0.7,0-1.3-0.2-1.8-0.7l0.4-0.5c0.1,0.2,0.4,0.3,0.6,0.4c0.3,0.1,0.5,0.2,0.8,0.2
		c0.3,0,0.6-0.1,0.8-0.2c0.2-0.1,0.3-0.3,0.3-0.5c0-0.2-0.1-0.3-0.3-0.5c-0.2-0.1-0.4-0.2-0.7-0.3c-0.3-0.1-0.5-0.1-0.8-0.2
		c-0.3-0.1-0.5-0.2-0.7-0.4s-0.3-0.4-0.3-0.7c0-0.4,0.1-0.7,0.4-0.9c0.3-0.2,0.7-0.4,1.2-0.4c0.7,0,1.2,0.2,1.6,0.6l-0.3,0.5
		c-0.3-0.4-0.7-0.5-1.3-0.5c-0.3,0-0.5,0.1-0.7,0.2c-0.2,0.1-0.3,0.3-0.3,0.5c0,0.2,0.1,0.3,0.3,0.4s0.4,0.2,0.7,0.2
		c0.3,0.1,0.5,0.1,0.8,0.2c0.3,0.1,0.5,0.2,0.7,0.4c0.2,0.2,0.3,0.4,0.3,0.8c0,0.4-0.2,0.7-0.5,0.9
		C48.6,117.6,48.2,117.7,47.6,117.7z"/>
	<path class="st1" d="M51.5,117.7c-0.3,0-0.6-0.1-0.7-0.3c-0.2-0.2-0.2-0.4-0.2-0.8v-2.8h-0.7v-0.6h0.7v-1.2h0.7v1.2h0.9v0.6h-0.9
		v2.7c0,0.2,0,0.3,0.1,0.4s0.2,0.2,0.3,0.2c0.2,0,0.4-0.1,0.5-0.2l0.2,0.5C52.2,117.6,51.9,117.7,51.5,117.7z"/>
	<path class="st1" d="M56.5,117.6h-0.7v-0.5c-0.4,0.4-0.8,0.6-1.4,0.6c-0.4,0-0.8-0.1-1.1-0.4c-0.3-0.3-0.5-0.6-0.5-1.1
		c0-0.5,0.2-0.8,0.5-1.1c0.3-0.2,0.7-0.4,1.1-0.4c0.6,0,1.1,0.2,1.4,0.6v-0.8c0-0.3-0.1-0.5-0.3-0.7c-0.2-0.2-0.5-0.2-0.8-0.2
		c-0.5,0-1,0.2-1.3,0.6l-0.3-0.5c0.5-0.5,1-0.7,1.7-0.7c0.5,0,0.9,0.1,1.2,0.4c0.3,0.2,0.5,0.6,0.5,1.1V117.6z M54.6,117.2
		c0.5,0,0.9-0.2,1.2-0.5v-0.8c-0.3-0.4-0.7-0.5-1.2-0.5c-0.3,0-0.6,0.1-0.8,0.3c-0.2,0.2-0.3,0.4-0.3,0.7c0,0.3,0.1,0.5,0.3,0.7
		C54,117.1,54.3,117.2,54.6,117.2z"/>
	<path class="st1" d="M61.4,117.6h-0.7v-2.8c0-0.4-0.1-0.6-0.3-0.8s-0.4-0.2-0.7-0.2c-0.3,0-0.5,0.1-0.7,0.2
		c-0.2,0.1-0.4,0.3-0.6,0.5v3.2h-0.7v-4.3h0.7v0.6c0.2-0.2,0.4-0.4,0.7-0.5s0.6-0.2,0.9-0.2c0.9,0,1.4,0.5,1.4,1.4V117.6z"/>
</g>
<g>
	<path class="st0" d="M203.9,31.1c-0.4,0.2-0.9,0.4-1.5,0.4s-1.1-0.1-1.5-0.4s-0.8-0.6-1.1-1c-0.3-0.4-0.5-0.9-0.6-1.4
		s-0.2-1-0.2-1.6c0-0.5,0.1-1.1,0.2-1.6s0.3-1,0.6-1.4c0.3-0.4,0.6-0.7,1.1-1s0.9-0.4,1.5-0.4s1.1,0.1,1.5,0.4s0.8,0.6,1,1
		s0.5,0.9,0.6,1.4c0.1,0.5,0.2,1,0.2,1.6c0,0.5-0.1,1.1-0.2,1.6c-0.1,0.5-0.3,1-0.6,1.4C204.7,30.6,204.3,30.9,203.9,31.1z
		 M201,29.4c0.3,0.6,0.8,0.9,1.4,0.9s1.1-0.3,1.4-0.9c0.3-0.6,0.4-1.3,0.4-2.2c0-0.6-0.1-1.1-0.2-1.5c-0.1-0.4-0.3-0.8-0.6-1.1
		c-0.3-0.3-0.6-0.4-1.1-0.4s-0.8,0.1-1.1,0.4c-0.3,0.3-0.5,0.6-0.6,1.1c-0.1,0.4-0.2,0.9-0.2,1.5C200.5,28.1,200.7,28.8,201,29.4z"
		/>
</g>
<g>
	<path class="st0" d="M202.5,73.3c-0.6,0-1.1-0.1-1.6-0.3c-0.4-0.2-0.8-0.5-1.1-0.9c-0.3-0.4-0.5-0.9-0.6-1.4S199,69.6,199,69
		c0-1.3,0.3-2.3,1-3.1c0.6-0.8,1.5-1.2,2.7-1.2c1,0,1.8,0.3,2.4,0.9l-0.7,1.1c-0.5-0.5-1-0.7-1.7-0.7c-0.7,0-1.2,0.3-1.6,0.8
		s-0.6,1.2-0.6,1.9c0,0.1,0,0.2,0,0.2c0.2-0.3,0.5-0.6,0.9-0.8s0.8-0.4,1.3-0.4c0.8,0,1.5,0.2,2,0.7c0.5,0.5,0.8,1.1,0.8,2
		c0,0.8-0.3,1.5-0.9,2C204.1,73,203.4,73.3,202.5,73.3z M202.4,72c0.5,0,0.9-0.1,1.2-0.4c0.3-0.3,0.4-0.6,0.4-1
		c0-0.5-0.2-0.9-0.5-1.1c-0.3-0.3-0.7-0.4-1.2-0.4c-0.4,0-0.7,0.1-1,0.3c-0.3,0.2-0.6,0.4-0.8,0.7c0.1,0.5,0.2,1,0.5,1.4
		C201.4,71.8,201.8,72,202.4,72z"/>
	<path class="st0" d="M211.4,72.9c-0.4,0.2-0.9,0.4-1.5,0.4c-0.6,0-1.1-0.1-1.5-0.4c-0.4-0.2-0.8-0.6-1-1c-0.3-0.4-0.5-0.9-0.6-1.4
		s-0.2-1-0.2-1.6c0-0.5,0.1-1.1,0.2-1.6s0.3-1,0.6-1.4c0.3-0.4,0.6-0.7,1-1c0.4-0.2,0.9-0.4,1.5-0.4c0.6,0,1.1,0.1,1.5,0.4
		c0.4,0.2,0.8,0.6,1,1s0.5,0.9,0.6,1.4c0.1,0.5,0.2,1,0.2,1.6c0,0.5-0.1,1.1-0.2,1.6c-0.1,0.5-0.3,1-0.6,1.4
		C212.2,72.3,211.8,72.7,211.4,72.9z M208.5,71.1c0.3,0.6,0.8,0.9,1.4,0.9s1.1-0.3,1.4-0.9c0.3-0.6,0.5-1.3,0.5-2.2
		c0-0.6-0.1-1.1-0.2-1.5c-0.1-0.4-0.3-0.8-0.6-1.1c-0.3-0.3-0.6-0.4-1.1-0.4c-0.4,0-0.8,0.1-1.1,0.4c-0.3,0.3-0.5,0.6-0.6,1.1
		c-0.1,0.4-0.2,0.9-0.2,1.5C208,69.8,208.2,70.6,208.5,71.1z"/>
</g>
<g>
	<path class="st0" d="M202.4,102.5h-1.5v-6.4l-1.4,1.4l-0.8-0.9l2.4-2.4h1.3V102.5z"/>
	<path class="st0" d="M208.6,102.3c-0.4,0.2-0.9,0.4-1.5,0.4s-1.1-0.1-1.5-0.4s-0.8-0.6-1.1-1c-0.3-0.4-0.5-0.9-0.6-1.4
		s-0.2-1-0.2-1.6c0-0.5,0.1-1.1,0.2-1.6s0.3-1,0.6-1.4c0.3-0.4,0.6-0.7,1.1-1s0.9-0.4,1.5-0.4s1.1,0.1,1.5,0.4s0.8,0.6,1,1
		s0.5,0.9,0.6,1.4c0.1,0.5,0.2,1,0.2,1.6c0,0.5-0.1,1.1-0.2,1.6c-0.1,0.5-0.3,1-0.6,1.4C209.4,101.7,209.1,102,208.6,102.3z
		 M205.7,100.5c0.3,0.6,0.8,0.9,1.4,0.9s1.1-0.3,1.4-0.9c0.3-0.6,0.4-1.3,0.4-2.2c0-0.6-0.1-1.1-0.2-1.5c-0.1-0.4-0.3-0.8-0.6-1.1
		c-0.3-0.3-0.6-0.4-1.1-0.4s-0.8,0.1-1.1,0.4c-0.3,0.3-0.5,0.6-0.6,1.1c-0.1,0.4-0.2,0.9-0.2,1.5C205.3,99.2,205.4,99.9,205.7,100.5
		z"/>
</g>
<g>
	<path class="st0" d="M201.8,134.9c-1,0-1.8-0.3-2.4-0.9l0.7-1.1c0.5,0.5,1,0.7,1.7,0.7c0.7,0,1.3-0.3,1.6-0.8
		c0.4-0.5,0.6-1.2,0.6-1.9v-0.2c-0.2,0.3-0.5,0.6-0.9,0.8c-0.4,0.2-0.8,0.4-1.3,0.4c-0.8,0-1.5-0.2-2-0.7c-0.5-0.5-0.8-1.1-0.8-2
		c0-0.8,0.3-1.5,0.9-2c0.6-0.5,1.3-0.8,2.2-0.8c0.8,0,1.4,0.2,2,0.6s0.9,0.9,1.1,1.5c0.2,0.6,0.3,1.3,0.3,2.2c0,1.2-0.3,2.3-1,3.1
		S203,134.9,201.8,134.9z M202.2,130.6c0.4,0,0.7-0.1,1-0.3c0.3-0.2,0.6-0.4,0.8-0.7c0-0.5-0.2-1-0.5-1.4c-0.3-0.4-0.8-0.6-1.3-0.6
		c-0.5,0-0.9,0.1-1.2,0.4c-0.3,0.3-0.5,0.6-0.5,1c0,0.5,0.2,0.9,0.5,1.1C201.3,130.4,201.7,130.6,202.2,130.6z"/>
	<path class="st0" d="M208.2,134.3c0,0.4-0.1,0.8-0.3,1.2c-0.2,0.4-0.5,0.7-0.9,0.9l-0.6-0.5c0.2-0.1,0.4-0.3,0.6-0.5
		c0.2-0.2,0.3-0.4,0.3-0.6c-0.1,0-0.1,0-0.2,0c-0.2,0-0.4-0.1-0.5-0.2c-0.1-0.1-0.2-0.3-0.2-0.6s0.1-0.4,0.2-0.6s0.4-0.3,0.6-0.3
		c0.3,0,0.5,0.1,0.7,0.3S208.2,134,208.2,134.3z"/>
	<path class="st0" d="M213.8,134.6c-0.4,0.2-0.9,0.4-1.5,0.4c-0.6,0-1.1-0.1-1.5-0.4c-0.4-0.2-0.8-0.6-1-1c-0.3-0.4-0.5-0.9-0.6-1.4
		s-0.2-1-0.2-1.6c0-0.5,0.1-1.1,0.2-1.6s0.3-1,0.6-1.4c0.3-0.4,0.6-0.7,1-1c0.4-0.2,0.9-0.4,1.5-0.4c0.6,0,1.1,0.1,1.5,0.4
		c0.4,0.2,0.8,0.6,1,1c0.3,0.4,0.5,0.9,0.6,1.4c0.1,0.5,0.2,1,0.2,1.6c0,0.5-0.1,1.1-0.2,1.6c-0.1,0.5-0.3,1-0.6,1.4
		C214.6,134,214.3,134.3,213.8,134.6z M210.9,132.8c0.3,0.6,0.8,0.8,1.4,0.8s1.1-0.3,1.4-0.8c0.3-0.6,0.5-1.3,0.5-2.2
		c0-0.6-0.1-1.1-0.2-1.5c-0.1-0.4-0.3-0.8-0.6-1.1s-0.6-0.4-1.1-0.4c-0.4,0-0.8,0.1-1.1,0.4s-0.5,0.6-0.6,1.1
		c-0.1,0.4-0.2,0.9-0.2,1.5C210.5,131.5,210.6,132.2,210.9,132.8z"/>
	<path class="st0" d="M220,134.8h-1.5v-6.4l-1.4,1.4l-0.8-0.9l2.4-2.4h1.3V134.8z"/>
	<path class="st0" d="M224.7,135c-1.3,0-2.4-0.4-3.1-1.3l0.8-1c0.6,0.7,1.3,1,2.2,1c0.5,0,0.9-0.1,1.2-0.4c0.3-0.3,0.5-0.6,0.5-1
		c0-0.5-0.2-0.8-0.5-1.1c-0.3-0.3-0.7-0.4-1.2-0.4c-0.7,0-1.3,0.2-1.8,0.7l-1-0.3v-4.7h5.5v1.3h-4v2.4c0.5-0.5,1.1-0.7,1.9-0.7
		c0.7,0,1.4,0.2,1.9,0.7c0.5,0.5,0.8,1.1,0.8,2c0,0.9-0.3,1.5-0.9,2.1C226.4,134.7,225.7,135,224.7,135z"/>
</g>
<g>
	<path class="st0" d="M44,159.3c-1.3,0-2.4-0.4-3.1-1.3l0.8-1c0.6,0.7,1.3,1,2.2,1c0.5,0,0.9-0.1,1.2-0.4c0.3-0.3,0.5-0.6,0.5-1
		c0-0.5-0.2-0.8-0.5-1.1c-0.3-0.3-0.7-0.4-1.2-0.4c-0.7,0-1.3,0.2-1.8,0.7l-1-0.3v-4.7h5.5v1.3h-4v2.4c0.5-0.5,1.1-0.7,1.9-0.7
		c0.7,0,1.4,0.2,1.9,0.7c0.5,0.5,0.8,1.1,0.8,2c0,0.9-0.3,1.5-0.9,2.1C45.7,159.1,44.9,159.3,44,159.3z"/>
	<path class="st0" d="M51.1,159.3c-0.7,0-1.3-0.1-1.9-0.4c-0.5-0.2-1-0.6-1.3-1l0.8-1c0.3,0.3,0.6,0.6,1,0.7
		c0.4,0.2,0.8,0.3,1.3,0.3c0.5,0,1-0.1,1.3-0.3c0.3-0.2,0.5-0.5,0.5-0.9c0-0.8-0.6-1.2-1.8-1.2c-0.6,0-0.9,0-1,0v-1.3
		c0.1,0,0.4,0,1,0c0.5,0,0.9-0.1,1.2-0.3c0.3-0.2,0.5-0.5,0.5-0.8c0-0.4-0.2-0.7-0.5-0.9c-0.3-0.2-0.7-0.3-1.2-0.3
		c-0.8,0-1.5,0.3-2.2,0.9l-0.8-0.9c0.7-0.9,1.8-1.3,3-1.3c0.9,0,1.6,0.2,2.2,0.6c0.6,0.4,0.8,1,0.8,1.6c0,0.5-0.2,0.9-0.5,1.3
		c-0.4,0.3-0.8,0.5-1.3,0.6c0.5,0,0.9,0.2,1.3,0.6c0.4,0.4,0.6,0.8,0.6,1.4c0,0.7-0.3,1.3-0.9,1.8C52.9,159.1,52.1,159.3,51.1,159.3
		z"/>
	<path class="st0" d="M58.7,159.3c-1.3,0-2.4-0.4-3.1-1.3l0.8-1c0.6,0.7,1.3,1,2.2,1c0.5,0,0.9-0.1,1.2-0.4c0.3-0.3,0.5-0.6,0.5-1
		c0-0.5-0.2-0.8-0.5-1.1c-0.3-0.3-0.7-0.4-1.2-0.4c-0.7,0-1.3,0.2-1.8,0.7l-1-0.3v-4.7h5.5v1.3h-4v2.4c0.5-0.5,1.1-0.7,1.9-0.7
		c0.7,0,1.4,0.2,1.9,0.7c0.5,0.5,0.8,1.1,0.8,2c0,0.9-0.3,1.5-0.9,2.1C60.4,159.1,59.6,159.3,58.7,159.3z"/>
</g>
<g>
	<path class="st0" d="M51.3,129.4c-0.6,0-1.1-0.1-1.6-0.3s-0.8-0.5-1.1-0.9c-0.3-0.4-0.5-0.9-0.6-1.4c-0.1-0.5-0.2-1.1-0.2-1.7
		c0-1.3,0.3-2.3,1-3.1c0.6-0.8,1.5-1.2,2.7-1.2c1,0,1.8,0.3,2.4,0.9l-0.7,1.1c-0.5-0.5-1-0.7-1.7-0.7c-0.7,0-1.2,0.3-1.6,0.8
		c-0.4,0.5-0.6,1.2-0.6,1.9c0,0.1,0,0.2,0,0.2c0.2-0.3,0.5-0.6,0.9-0.8s0.8-0.4,1.3-0.4c0.8,0,1.5,0.2,2,0.7c0.5,0.5,0.8,1.1,0.8,2
		c0,0.8-0.3,1.5-0.9,2C53,129.1,52.2,129.4,51.3,129.4z M51.2,128.1c0.5,0,0.9-0.1,1.2-0.4c0.3-0.3,0.5-0.6,0.5-1
		c0-0.5-0.2-0.9-0.5-1.1c-0.3-0.3-0.7-0.4-1.2-0.4c-0.4,0-0.7,0.1-1,0.3s-0.6,0.4-0.8,0.7c0,0.5,0.2,1,0.5,1.4
		C50.2,127.9,50.6,128.1,51.2,128.1z"/>
	<path class="st0" d="M58.7,129.4c-1.3,0-2.4-0.4-3.1-1.3l0.8-1c0.6,0.7,1.3,1,2.2,1c0.5,0,0.9-0.1,1.2-0.4c0.3-0.3,0.5-0.6,0.5-1
		c0-0.5-0.2-0.8-0.5-1.1c-0.3-0.3-0.7-0.4-1.2-0.4c-0.7,0-1.3,0.2-1.8,0.7l-1-0.3v-4.7h5.5v1.3h-4v2.4c0.5-0.5,1.1-0.7,1.9-0.7
		c0.7,0,1.4,0.2,1.9,0.7c0.5,0.5,0.8,1.1,0.8,2c0,0.9-0.3,1.5-0.9,2.1C60.4,129.1,59.6,129.4,58.7,129.4z"/>
</g>
<g>
	<path class="st0" d="M51,101.8c-1.3,0-2.4-0.4-3.1-1.3l0.8-1c0.6,0.7,1.3,1,2.2,1c0.5,0,0.9-0.1,1.2-0.4c0.3-0.3,0.5-0.6,0.5-1
		c0-0.5-0.2-0.8-0.5-1.1c-0.3-0.3-0.7-0.4-1.2-0.4c-0.7,0-1.3,0.2-1.8,0.7l-1-0.3v-4.7h5.5v1.3h-4V97c0.5-0.5,1.1-0.7,1.9-0.7
		c0.7,0,1.4,0.2,1.9,0.7c0.5,0.5,0.8,1.1,0.8,2c0,0.9-0.3,1.5-0.9,2.1C52.7,101.5,51.9,101.8,51,101.8z"/>
	<path class="st0" d="M60,101.4c-0.4,0.2-0.9,0.4-1.5,0.4s-1.1-0.1-1.5-0.4s-0.8-0.6-1-1c-0.3-0.4-0.5-0.9-0.6-1.4
		c-0.1-0.5-0.2-1-0.2-1.6c0-0.5,0.1-1.1,0.2-1.6c0.1-0.5,0.3-1,0.6-1.4s0.6-0.7,1-1s0.9-0.4,1.5-0.4s1.1,0.1,1.5,0.4s0.8,0.6,1.1,1
		c0.3,0.4,0.5,0.9,0.6,1.4s0.2,1,0.2,1.6c0,0.5-0.1,1.1-0.2,1.6s-0.3,1-0.6,1.4C60.8,100.8,60.5,101.2,60,101.4z M57.1,99.7
		c0.3,0.6,0.8,0.9,1.4,0.9c0.6,0,1.1-0.3,1.4-0.9c0.3-0.6,0.5-1.3,0.5-2.2c0-0.6-0.1-1.1-0.2-1.5s-0.3-0.8-0.6-1.1
		c-0.3-0.3-0.6-0.4-1.1-0.4s-0.8,0.1-1.1,0.4c-0.3,0.3-0.5,0.6-0.6,1.1s-0.2,0.9-0.2,1.5C56.7,98.4,56.8,99.1,57.1,99.7z"/>
</g>
<g>
	<path class="st0" d="M37.1,72.1h-1.5v-6.4l-1.4,1.4l-0.8-0.9l2.4-2.4h1.3V72.1z"/>
	<path class="st0" d="M40.5,71.7c0,0.4-0.1,0.8-0.3,1.2c-0.2,0.4-0.5,0.7-0.9,0.9l-0.6-0.5c0.2-0.1,0.4-0.3,0.6-0.5
		c0.2-0.2,0.3-0.4,0.3-0.6c-0.1,0-0.1,0-0.2,0c-0.2,0-0.4-0.1-0.5-0.2s-0.2-0.3-0.2-0.6s0.1-0.4,0.2-0.6c0.2-0.2,0.4-0.3,0.6-0.3
		c0.3,0,0.5,0.1,0.7,0.3S40.5,71.3,40.5,71.7z"/>
	<path class="st0" d="M44.5,72.3c-0.7,0-1.3-0.1-1.9-0.4c-0.5-0.2-1-0.6-1.3-1l0.8-1c0.3,0.3,0.6,0.6,1,0.7c0.4,0.2,0.8,0.3,1.3,0.3
		c0.5,0,1-0.1,1.3-0.3c0.3-0.2,0.5-0.5,0.5-0.9c0-0.8-0.6-1.2-1.9-1.2c-0.6,0-0.9,0-1,0v-1.3c0.1,0,0.4,0,1,0c0.5,0,0.9-0.1,1.2-0.3
		c0.3-0.2,0.5-0.5,0.5-0.8c0-0.4-0.2-0.7-0.5-0.9c-0.3-0.2-0.7-0.3-1.2-0.3c-0.8,0-1.5,0.3-2.2,0.9L41.5,65c0.7-0.9,1.8-1.3,3-1.3
		c0.9,0,1.6,0.2,2.2,0.6c0.5,0.4,0.8,1,0.8,1.6c0,0.5-0.2,0.9-0.5,1.3s-0.8,0.5-1.3,0.6c0.5,0,0.9,0.2,1.3,0.6
		c0.4,0.4,0.6,0.8,0.6,1.4c0,0.7-0.3,1.3-0.9,1.8C46.2,72.1,45.4,72.3,44.5,72.3z"/>
	<path class="st0" d="M51.3,72.1h-1.6l3.2-7h-4.3v-1.3h6v1L51.3,72.1z"/>
	<path class="st0" d="M58.7,72.3c-1.3,0-2.4-0.4-3.1-1.3l0.8-1c0.6,0.7,1.3,1,2.2,1c0.5,0,0.9-0.1,1.2-0.4c0.3-0.3,0.5-0.6,0.5-1
		c0-0.5-0.2-0.8-0.5-1.1c-0.3-0.3-0.7-0.4-1.2-0.4c-0.7,0-1.3,0.2-1.8,0.7l-1-0.3v-4.7h5.5v1.3h-4v2.4c0.5-0.5,1.1-0.7,1.9-0.7
		c0.7,0,1.4,0.2,1.9,0.7c0.5,0.5,0.8,1.1,0.8,2c0,0.9-0.3,1.5-0.9,2.1C60.4,72,59.6,72.3,58.7,72.3z"/>
</g>
<g>
	<path class="st0" d="M51.2,43c-1.3,0-2.4-0.4-3.1-1.3l0.8-1c0.6,0.7,1.3,1,2.2,1c0.5,0,0.9-0.1,1.2-0.4c0.3-0.3,0.5-0.6,0.5-1
		c0-0.5-0.2-0.8-0.5-1.1c-0.3-0.3-0.7-0.4-1.2-0.4c-0.7,0-1.3,0.2-1.8,0.7l-1-0.3v-4.7h5.5v1.3h-4v2.4c0.5-0.5,1.1-0.7,1.9-0.7
		c0.7,0,1.4,0.2,1.9,0.7c0.5,0.5,0.8,1.1,0.8,2c0,0.9-0.3,1.5-0.9,2.1C52.9,42.8,52.1,43,51.2,43z"/>
	<path class="st0" d="M58.7,43c-1.3,0-2.4-0.4-3.1-1.3l0.8-1c0.6,0.7,1.3,1,2.2,1c0.5,0,0.9-0.1,1.2-0.4c0.3-0.3,0.5-0.6,0.5-1
		c0-0.5-0.2-0.8-0.5-1.1c-0.3-0.3-0.7-0.4-1.2-0.4c-0.7,0-1.3,0.2-1.8,0.7l-1-0.3v-4.7h5.5v1.3h-4v2.4c0.5-0.5,1.1-0.7,1.9-0.7
		c0.7,0,1.4,0.2,1.9,0.7c0.5,0.5,0.8,1.1,0.8,2c0,0.9-0.3,1.5-0.9,2.1C60.4,42.8,59.6,43,58.7,43z"/>
</g>
<g>
	<path class="st0" d="M125.1,31.1h-1.5v-6.4l-1.4,1.4l-0.9-0.9l2.4-2.4h1.3V31.1z"/>
	<path class="st0" d="M132.6,31.1h-6V30c1.7-1.3,2.9-2.3,3.6-2.9c0.6-0.6,0.9-1.2,0.9-1.8c0-0.4-0.1-0.7-0.4-0.9S130,24,129.6,24
		c-0.9,0-1.7,0.3-2.2,1l-0.8-1c0.4-0.4,0.8-0.8,1.4-1s1.1-0.3,1.7-0.3c0.8,0,1.6,0.2,2.2,0.7c0.6,0.5,0.9,1.1,0.9,1.9
		c0,0.7-0.3,1.4-0.9,2.1c-0.6,0.7-1.5,1.5-2.8,2.5h3.7V31.1z"/>
	<path class="st0" d="M137.2,31.3c-1.3,0-2.4-0.4-3.1-1.3l0.8-1c0.6,0.7,1.3,1,2.2,1c0.5,0,0.9-0.1,1.2-0.4c0.3-0.3,0.5-0.6,0.5-1
		c0-0.5-0.2-0.8-0.5-1.1c-0.3-0.3-0.7-0.4-1.2-0.4c-0.7,0-1.3,0.2-1.8,0.7l-1-0.3v-4.7h5.5v1.3h-4v2.4c0.5-0.5,1.1-0.7,1.9-0.7
		c0.7,0,1.4,0.2,1.9,0.7c0.5,0.5,0.8,1.1,0.8,2c0,0.9-0.3,1.5-0.9,2.1C138.9,31,138.2,31.3,137.2,31.3z"/>
</g>
<g>
	<g>
		<path class="st2" d="M192,62.7c-11.7,0-18.3,1.1-30.5,11.5"/>
		<g>
			<path class="st3" d="M161.5,74.1c0.1,0,0.2,0.1,0.2,0.1c-0.1,0-0.3,0-0.4,0c0.1-0.1,0.1-0.3,0.1-0.4
				C161.4,73.9,161.5,74,161.5,74.1z"/>
		</g>
	</g>
</g>
<g>
	<g>
		<path class="st4" d="M193.1,94.2C180.4,96.4,172,95.3,158,90"/>
		<g>
			<path class="st3" d="M158,90C158,90,158,90.1,158,90C158,90.1,158,90,158,90C158,90,158,90,158,90C158,90,158,90,158,90z"/>
		</g>
	</g>
</g>
<g>
	<g>
		<path class="st5" d="M69.6,147.2c22.2-5.5,40-18.3,45.5-35.6"/>
		<g>
			<path class="st3" d="M114.9,111.8c-0.7,0.4-1.8,0.3-2.6,0.1c1.2-0.4,2.4-1.1,3.2-2.1c0.1,1.3,0.7,2.5,1.4,3.6
				C116.2,113.1,115.4,112.6,114.9,111.8z"/>
		</g>
	</g>
</g>
<g>
	<g>
		<path class="st6" d="M191,126c-18.1,2.4-38.5,0.8-51.2-17.7"/>
		<g>
			<path class="st3" d="M140.3,109.2c-0.7,3.9-4.6,8.2-7.7,10.5c2.1-6.1,3-12.9,1.6-19.3c5.5,3.6,12.2,4.9,18.6,5.4
				C149.3,107.9,144.6,109.9,140.3,109.2z"/>
		</g>
	</g>
</g>
<g>
	<g>
		<path class="st7" d="M69.6,30.1c18.3,0,43.3,14.9,49,44"/>
		<g>
			<path class="st3" d="M118.6,73.9c0.5-0.7,1.5-1.2,2.3-1.3c-0.9,1-1.6,2.2-1.9,3.5c-0.7-1.1-1.9-1.9-3-2.5
				C116.8,73.5,117.8,73.5,118.6,73.9z"/>
		</g>
	</g>
</g>
<g>
	<g>
		<path class="st8" d="M68.4,117.5c13.8-0.8,20.5-4.2,29.7-11.2"/>
		<g>
			<path class="st3" d="M98.1,106.3c-0.1,0-0.2-0.1-0.3-0.2c0.1,0,0.3,0.1,0.5,0c-0.1,0.1-0.1,0.3-0.1,0.5
				C98.1,106.5,98,106.4,98.1,106.3z"/>
		</g>
	</g>
</g>
<g>
	<g>
		<path class="st9" d="M67.8,61.9c13.9-1,22.9,3,32.4,17.3"/>
		<g>
			<path class="st3" d="M100.1,78.9c0.2-0.9,1.1-1.9,1.8-2.4c-0.5,1.4-0.7,2.9-0.4,4.4c-1.2-0.9-2.8-1.2-4.2-1.3
				C98,79.2,99.1,78.8,100.1,78.9z"/>
		</g>
	</g>
</g>
<g>
	<g>
		<path class="st10" d="M67.8,91.5c9.6-3,18.8-2.8,28.8,0.5"/>
		<g>
			<path class="st3" d="M96.6,92c0-0.1,0-0.2,0-0.2c0,0.1,0.1,0.2,0.2,0.3c-0.1,0-0.2,0.1-0.3,0.1C96.5,92.1,96.5,92,96.6,92z"/>
		</g>
	</g>
</g>
<g>
	<g>
		<line class="st11" x1="131.1" y1="35.7" x2="131.1" y2="72.1"/>
		<g>
			<path class="st3" d="M131.1,72c0.1-0.1,0.2-0.1,0.3-0.1c-0.1,0.1-0.2,0.2-0.3,0.3c-0.1-0.1-0.2-0.2-0.3-0.3
				C130.9,72,131,72,131.1,72z"/>
		</g>
	</g>
</g>
</svg>
