<?xml version="1.0" encoding="utf-8"?>
<!-- Generator: Adobe Illustrator 19.2.0, SVG Export Plug-In . SVG Version: 6.00 Build 0)  -->
<svg version="1.1" id="Layer_1" xmlns="http://www.w3.org/2000/svg" xmlns:xlink="http://www.w3.org/1999/xlink" x="0px" y="0px"
	 viewBox="0 0 266.2 169.3" style="enable-background:new 0 0 266.2 169.3;" xml:space="preserve">
<style type="text/css">
	.st0{fill:#0D92FF;}
	.st1{fill:#787878;}
	.st2{fill:none;stroke:#00325C;stroke-width:9.000000e-02;stroke-miterlimit:10;}
	.st3{fill:#00325C;}
	.st4{fill:none;stroke:#00325C;stroke-width:0.615;stroke-miterlimit:3;}
	.st5{fill:none;stroke:#00325C;stroke-width:13.435;stroke-miterlimit:10;}
	.st6{fill:none;stroke:#00325C;stroke-width:0.145;stroke-miterlimit:10;}
	.st7{fill:none;stroke:#00325C;stroke-width:1.195;stroke-miterlimit:10;}
	.st8{fill:none;stroke:#00325C;stroke-width:5.000000e-02;stroke-miterlimit:10;}
	.st9{fill:none;stroke:#00325C;stroke-width:0.23;stroke-miterlimit:10;}
	.st10{fill:none;stroke:#00325C;stroke-width:7.500000e-02;stroke-miterlimit:10;}
</style>
<polygon class="st0" points="188.5,65.7 188.8,65.4 188.9,64.9 189,64.7 189,64.4 188.9,63.9 188.7,63.6 188.5,63.3 188,62.8 
	187.3,62.5 187.2,62.3 187,62.2 186.7,62.2 186.4,62.4 186,62.6 184.8,62.6 184.5,62.7 184.5,62.7 184.4,62.6 184.1,62 183.9,61.1 
	183.6,60.6 182.3,58.9 182.3,58.9 182.2,58.8 182.1,58.8 181.8,59 181.6,59 181.3,59 180.9,58.8 180.8,58.8 180.7,58.9 180.6,59 
	180.4,59 180.3,59 180.2,58.9 179.3,57.6 179.2,57 179.1,56.7 179.2,56.4 179.2,56.1 179,55.9 178.9,55.8 178.4,55.9 178.4,55.4 
	178.7,54.7 178.1,54.3 177.5,54.3 176.9,54.5 176.7,54.7 176.7,54.7 176.3,54.6 175.9,55 175.6,55.3 175.3,55.4 174.2,55.3 
	173.9,55.3 173.6,55.4 172.7,55.4 172.4,55.5 171.9,55.8 171.1,56 170.2,56.4 169.7,56.5 169.2,56.3 168.7,55.9 168.3,55.4 
	167.3,53.9 167.2,53.6 166.9,52.6 166.8,52.3 166.5,52.2 165.8,52.2 165.6,52.1 165.5,51.9 165.3,51.4 165.2,51.2 165,51 
	164.7,50.9 164.1,50.5 163.9,50.5 163,50.8 162.4,50.8 162.1,50.8 161.8,51 161.6,51.3 161.5,51.6 161.3,51.9 161,52 160.8,51.9 
	160.6,51.8 160.3,51.6 159.7,51.8 158.4,52.4 157.9,52.3 157.6,52 157.1,51.7 156.6,51.6 156.2,51.7 155.5,51.6 154.5,51.1 154,51 
	153.7,50.9 153.2,50.5 153,50.3 152.7,50.3 149,51.2 147.9,51.2 147.4,51.4 147.4,51.6 147.4,51.9 147.4,52.3 147.4,52.6 
	147.4,52.7 147.2,53 146.6,53.6 146.3,54 146.1,54.4 145.4,56.5 145.1,57.3 144.6,57.9 144.1,58.4 143.7,58.6 143.5,58.5 
	143.3,58.3 143,58.1 142.8,58.2 142.2,58.7 141.9,58.8 141.6,58.8 141.5,58.7 141.3,58.8 141.1,59 141,59.2 140.9,59.7 140.8,59.9 
	140.6,60 140.3,60.2 139.6,60.6 138.9,60.9 138.5,61.1 137.7,61.9 137.3,62 136.9,61.9 136.3,61.3 135.8,61.1 135.2,61.4 135,61.3 
	134.9,61.1 134.9,60.9 135,60.7 135,60.4 134.7,60 134.3,60 133.5,60.1 133.3,60 132.9,59.6 132.7,59.4 132.6,59.4 132.4,59.4 
	130.8,59.8 130.5,60 130.3,60.3 130.1,61.3 129.9,61.8 129.9,61.8 129.9,62 129.9,62.2 129.9,62.4 129,63 126.6,63 125.5,63.7 
	125.3,63.7 123.2,63.5 122.1,63.6 121.4,63.6 121.1,63.7 118.6,64.3 118.3,64.5 117.8,65.5 117.7,65.6 117.3,65.7 117.2,65.7 
	117,66 117,66.1 117.1,66.2 117.2,66.5 117,67.6 117,68.2 117.1,68.7 117.6,69.2 118.3,69.6 117.8,69.8 117.4,69.9 117.1,70.1 
	116.5,70.8 116.1,71 115.6,71.1 115.1,71 114.4,70.7 113.6,70.6 110.1,71 108.7,71.6 108.1,71.6 105.9,71.4 100.9,71.8 99.4,71.4 
	98.3,70.7 98.1,70.5 98,70.3 97.6,70 97.3,69.7 97,69.6 96.8,69.6 96.6,69.7 96.5,69.7 96.2,69.5 95.6,68.6 95.5,68.5 95,68.4 
	94.9,68.3 94.7,68.2 92.9,65.8 92.3,65.3 91.2,65.1 90.3,64.9 89.7,64.8 89,65.2 87.9,66.1 88.1,66.3 88.1,66.5 88,66.6 88,66.8 
	87.9,66.9 87.8,67 87.7,67 87.8,67.2 87.9,67.2 87.9,67.2 88,67.3 87.9,67.7 87.8,68.1 87.6,68.3 87.3,68.6 86.7,68.7 86.5,68.8 
	86.5,69.1 86.6,69.2 87,69.4 87.1,69.5 87.3,70 87.4,70.1 87.2,70.4 87.2,70.9 87.3,71.4 87.3,72.2 87.4,72.5 87.6,72.7 87.8,72.8 
	87.4,73 86.3,73.1 84.9,73.4 84.2,73.3 84,72.6 83.7,72.8 83.4,73.4 83.2,73.6 83,73.6 82,73.4 81.8,73.3 81.6,73.1 81.5,72.9 
	81.4,72.6 81.3,72.4 81.1,72.2 79.7,71.7 79,71.6 78.3,71.9 78.2,72.1 78.3,72.5 78.2,72.7 78,72.9 77.3,73.2 77.1,73.4 77,73.5 
	76.9,73.4 76.8,73.4 76.7,73.2 76.6,73.4 76.3,73.8 76.1,74 76.5,74.2 77.4,74.6 77.9,74.5 79,74.9 79.6,74.8 80,75 80.3,75.4 
	80.5,75.9 80.4,76.4 80.7,76.6 80.9,76.9 81,77.2 81,77.6 80.8,77.9 80.3,78.1 80.1,78.4 80.2,79.4 79.3,80.1 77.4,81 77.2,80.6 
	76.9,80.5 76.7,80.5 76.5,80.9 76.6,81.9 76.5,81.9 76.5,82 76.4,82.1 76.4,82.2 76.4,82.3 76.5,82.4 76.6,82.4 76.6,82.4 
	77.2,83.5 77.2,84 77.1,84.3 76.9,84.5 76.3,84.8 76.4,85.3 76.1,85.8 76.2,86.3 76.3,86.3 76.6,86.3 76.7,86.5 76.7,86.7 
	76.5,87.2 76.5,87.3 76.8,87.5 77.4,87.2 77.7,87.2 77.9,87.5 77.8,87.8 77.4,88.3 77,88.6 76.9,88.9 77,89.3 77.4,89.4 77.6,89.5 
	77.7,89.6 77.6,89.8 77.4,89.9 76.6,90.2 76.4,90.4 76.9,90.5 77.1,90.6 77.4,90.8 77.5,91.1 77.1,91.2 76.7,91.2 76.4,91.3 
	76.3,91.3 76.2,91.3 76.1,91.3 76,91.3 75.7,91 75.4,91 74.6,91.1 74,90.9 73.7,91 73.6,91.3 73.5,91.6 73.4,91.8 73.2,91.8 73,92 
	73,92.1 73,92.2 73,92.4 72.9,92.6 72.7,92.7 72.4,92.8 71.9,93.1 71.7,93.4 71.1,94.2 70.9,94.4 70.6,94.6 71.3,94.8 73.7,94.6 
	73.9,94.7 74.2,95.1 74.3,95.2 74.6,95.2 74.7,95.3 74.6,95.5 74.5,95.8 74.4,96.1 74.2,96.5 74.1,96.8 74.2,96.9 74.4,97.6 
	74.6,97.9 74.8,98.2 74.9,98.4 75.2,98.3 75.2,98.8 75.4,98.9 75.7,98.9 76,99.1 76.1,99.5 75.9,99.8 75.6,99.9 75.4,100.2 
	75.5,100.5 75.9,100.8 76.5,101.2 77.1,102.1 77.7,102.6 77.9,103.7 78.1,103.8 78.8,104.2 79,104.5 79.2,104.5 79.2,104.3 
	79.3,104.2 79.5,104.2 79.6,104.3 80.1,104.4 80.5,104.7 80.8,105 81.1,105.5 81.4,106 81.9,106.3 82.2,106.7 82.3,106.7 
	82.4,106.4 82.5,106.5 83,106.6 83.1,106.6 83.2,106.7 83.3,106.8 83.3,106.9 83.4,107 83.5,106.9 83.5,106.8 83.6,106.8 83.8,107 
	84.1,107.3 84.3,107.8 84.2,108.2 84.5,109 84.6,109.2 84.7,109.3 85.4,110.1 85.8,110.9 86,111.1 86.9,111.8 87.1,112 87.2,112.3 
	87.4,112.5 88.2,113.2 88.5,113.3 89.9,113.3 90.1,113.5 90.8,114.4 90.9,114.6 91.1,115.4 91.2,115.7 91.3,116.1 91.6,116.2 
	91.9,116.2 92,116.5 91.9,116.5 91.7,116.6 91.5,116.6 91.5,116.8 91.8,116.9 92,117.1 92.2,117.1 92.3,116.8 92.5,117.2 
	92.4,117.5 92.5,117.5 92.8,117.5 93.3,117.4 93.4,117.4 93.6,117.9 93.6,117.8 93.7,117.7 93.8,117.6 93.9,117.5 95.4,117.6 
	96.1,117.7 96.8,118 97.6,118.9 97.8,119.2 97.8,119.4 97.9,119.7 97.9,120 98,120.3 98.1,120.4 98.5,120.4 100.6,121.1 
	101.1,121.5 101.4,122.1 101.4,122.2 101.6,122.1 101.7,122 101.8,121.8 102,121.7 103.5,121.7 105.3,122.2 105.5,122.2 
	105.7,122.1 106,121.9 106.2,121.9 107.6,121.9 108,122 108.5,122.4 108.9,122.4 109.2,122.7 109.5,122.8 109.8,122.7 110.1,122.5 
	110.4,122.5 110.7,122.9 110.8,122.9 111,122.9 111.2,122.9 111.5,122.6 112.1,121.9 112.4,121.7 112.8,121.9 113.2,121.7 114,121 
	114.2,120.8 114.6,120 114.9,119.7 114.9,119.7 114.9,119.6 115,119.3 115,119.2 115.4,118.8 115.8,118.7 116.7,119 117.4,119.4 
	117.6,119.4 117.8,119.3 117.8,119.1 117.9,118.9 118.1,118.6 118.3,118.8 118.5,118.8 118.8,118.6 119.1,118.5 119.3,118.4 
	119.5,118.2 119.8,118.2 119.9,118.2 120.9,118.3 121,118.3 121.2,118.4 121.3,118.4 121.3,118.3 121.3,118.3 121.3,118.3 
	121.3,118.2 121.2,118.1 121.1,118 121.1,117.9 121.1,117.8 121.2,117.7 121.6,117.4 121.8,117.4 122,117.5 122.4,117.4 
	122.4,116.6 122.6,116.2 123,116 123.4,116.1 123.6,116.4 123.7,116.6 123.8,116.7 124.1,116.8 125.6,117 126.1,116.9 126.1,116.9 
	126.3,116.6 126.3,116.4 126.4,116.3 126.5,116 126.7,115.8 126.8,115.7 127,115.7 127.1,115.7 127.8,115.7 128.1,115.5 
	128.3,115.3 128.4,115.1 128.5,114.9 128.5,114.9 128.7,114.8 128.9,114.8 129.1,114.7 129.4,114.4 129.5,114.3 129.6,114.2 
	129.6,114.1 129.6,114 129.7,113.9 129.9,113.8 130.2,113.7 130.1,113.5 130,113.3 130,113.3 130,113.2 130,113.1 130.2,112.9 
	130.3,112.8 130.5,112.6 130.7,112.5 131,112.4 131.1,112.3 131.2,112.3 131.4,112.2 131.8,112.2 132.8,112 133.2,112 133.6,112.2 
	134.4,112.7 135,113.1 135.3,113.2 137,112.5 137.6,112.3 137.7,112.3 138.9,112.4 139.6,112.8 139.8,112.8 140.1,112.8 
	140.4,112.6 140.6,112.5 140.7,112.5 140.8,112.5 141,112.6 141.1,112.6 141.1,112.6 141.3,112.9 141.4,112.9 141.4,113 141.5,113 
	141.9,112.8 142,112.8 142.3,112.9 143.2,113.7 143.9,112.8 146.8,112.7 147.2,112 147.9,112.2 148.6,112.5 149.1,112.9 
	149.3,113.1 149.5,113.1 149.6,113.1 150.6,112.9 151,112.8 151.3,112.5 151.3,112.2 151.4,111.9 151.4,111.7 151.6,111.6 
	151.7,111.7 151.9,111.7 152,111.6 152,111.4 151.9,110.8 151.9,110.6 151.9,110.5 152.6,109.9 153,109.7 153.3,109.6 153.7,109.6 
	153.8,109.7 154.2,110 154.4,110 154.5,110 154.8,109.9 154.9,109.8 155.2,109.9 155.9,110.2 156.2,110.2 156.4,110.1 156.5,110.1 
	156.7,110.2 156.8,110.3 157.1,110.6 157.4,110.5 158.2,109.5 158.4,109.4 158.9,109.4 159,109.3 159.2,108.9 159.4,108.4 
	159.4,107.3 159.6,106.7 159.9,106.4 160.2,106.3 161,106.2 161.4,105.9 161.3,105.4 160.8,104.4 160.8,103.9 161,103.5 
	161.3,103.1 161.6,102.7 161.6,101.7 161.7,101.2 162,100.9 162.4,100.8 163,100.8 163.4,100.6 163.7,100.1 163.9,99.7 164.1,99.4 
	164.6,99.3 164.9,99.2 165.2,98.7 165.3,98.2 164.8,97.9 164.8,97.8 164.8,97.7 164.7,97.7 164.7,97.5 164.8,97.4 164.8,97.2 
	164.9,97.1 165.3,96.1 165.5,95.7 165.9,95.3 166.5,95.1 166.7,95 166.9,94.6 166.9,94.4 166.8,94.1 166.8,93.8 166.8,93.5 
	166.8,93.4 166.9,93.4 167.7,92.7 167.9,92.5 168.2,91.3 168.3,91.3 168.3,91.3 168.1,90.9 168,90.8 167.8,90.8 167.6,90.7 
	167.6,90.5 168.3,89.7 168.7,89.3 169.5,88.8 169.9,88.4 170,88.2 170.1,87.8 170.1,87.5 170.3,87.3 170.7,86.9 170.9,86.7 
	171,86.4 171,86.1 170.9,85.9 170.9,85.6 171,85.3 171.2,85 171.3,84.7 171.5,83.8 171.6,83.5 172.3,82.5 172.6,82.1 172.9,81.9 
	173.7,81.7 174,81 174,80.1 173.9,79.2 173.8,78.4 174.2,77.8 174.7,77.2 175.8,76.4 176.6,76.2 176.9,76 176.9,75.8 177,75.6 
	177,75.4 177,75.2 177.4,74.6 177.5,74.4 177.6,73.9 177.6,73.7 177.8,73.5 178.1,73.3 178.2,73.2 178.6,72.6 178.8,72.4 
	179.1,72.2 179.4,72.1 179.6,72.1 180.4,72.2 180.7,72.2 180.9,72.1 181.1,71.9 181.4,70.8 181.9,70.7 183.2,71.4 183.8,71.5 
	184.5,71.4 185.1,71.1 185.6,70.7 186,70.1 186.3,69.9 186.6,69.8 187,69.7 187.1,69.7 187.2,69.4 187.2,69.2 187.1,69 187.1,68.8 
	187.3,68.4 187.6,68.2 188.3,68 188.6,67.7 189,66.9 189.3,66.6 188.7,66 "/>
<g>
	<path class="st1" d="M205,18.7h-0.7v-4.9l-2,4.9h-0.3l-2-4.9v4.9h-0.7v-6h1.1l1.9,4.5l1.9-4.5h1.1V18.7z"/>
	<path class="st1" d="M209.8,18.7h-0.7v-0.5c-0.4,0.4-0.8,0.6-1.4,0.6c-0.4,0-0.8-0.1-1.1-0.4c-0.3-0.3-0.5-0.6-0.5-1.1
		c0-0.5,0.2-0.8,0.5-1.1c0.3-0.2,0.7-0.4,1.1-0.4c0.6,0,1.1,0.2,1.4,0.6v-0.8c0-0.3-0.1-0.5-0.3-0.7c-0.2-0.2-0.5-0.2-0.8-0.2
		c-0.5,0-1,0.2-1.3,0.6l-0.3-0.5c0.5-0.5,1-0.7,1.7-0.7c0.5,0,0.9,0.1,1.2,0.4c0.3,0.2,0.5,0.6,0.5,1.1V18.7z M207.9,18.3
		c0.5,0,0.9-0.2,1.2-0.5V17c-0.3-0.4-0.7-0.5-1.2-0.5c-0.3,0-0.6,0.1-0.8,0.3c-0.2,0.2-0.3,0.4-0.3,0.7c0,0.3,0.1,0.5,0.3,0.7
		C207.4,18.2,207.6,18.3,207.9,18.3z"/>
	<path class="st1" d="M213.1,18.8c-0.6,0-1.2-0.2-1.6-0.7s-0.6-1-0.6-1.6s0.2-1.2,0.6-1.6s0.9-0.6,1.6-0.6c0.7,0,1.2,0.3,1.6,0.8
		l-0.5,0.4c-0.3-0.4-0.6-0.6-1.1-0.6c-0.5,0-0.8,0.2-1.1,0.5c-0.3,0.3-0.4,0.7-0.4,1.2s0.1,0.9,0.4,1.2c0.3,0.3,0.6,0.5,1.1,0.5
		c0.5,0,0.8-0.2,1.1-0.6l0.5,0.4C214.3,18.5,213.7,18.8,213.1,18.8z"/>
	<path class="st1" d="M217.6,18.8c-0.6,0-1.2-0.2-1.6-0.6c-0.4-0.4-0.6-1-0.6-1.7c0-0.6,0.2-1.2,0.6-1.6c0.4-0.4,0.9-0.7,1.5-0.7
		c0.6,0,1.2,0.2,1.5,0.7s0.6,1,0.6,1.7v0.2h-3.5c0,0.4,0.2,0.8,0.5,1.1c0.3,0.3,0.6,0.4,1.1,0.4c0.5,0,1-0.2,1.3-0.5l0.3,0.4
		C218.9,18.6,218.3,18.8,217.6,18.8z M218.9,16.2c0-0.4-0.1-0.7-0.4-1s-0.6-0.4-1.1-0.4c-0.4,0-0.8,0.1-1,0.4
		c-0.2,0.3-0.4,0.6-0.4,1H218.9z"/>
	<path class="st1" d="M224.5,18.7h-0.7V18c-0.4,0.5-0.9,0.8-1.5,0.8c-0.6,0-1-0.2-1.4-0.6c-0.4-0.4-0.5-1-0.5-1.7
		c0-0.7,0.2-1.2,0.5-1.7c0.4-0.4,0.8-0.6,1.4-0.6c0.6,0,1.1,0.3,1.5,0.8v-2.3h0.7V18.7z M222.5,18.2c0.3,0,0.5-0.1,0.8-0.2
		c0.2-0.1,0.4-0.3,0.5-0.5v-2c-0.1-0.2-0.3-0.4-0.6-0.5c-0.2-0.1-0.5-0.2-0.8-0.2c-0.4,0-0.8,0.2-1,0.5s-0.4,0.7-0.4,1.2
		s0.1,0.9,0.4,1.2C221.8,18,222.1,18.2,222.5,18.2z"/>
	<path class="st1" d="M229.3,18.1c-0.4,0.4-0.9,0.7-1.6,0.7c-0.6,0-1.2-0.2-1.6-0.7c-0.4-0.4-0.6-1-0.6-1.6s0.2-1.2,0.6-1.6
		c0.4-0.4,0.9-0.7,1.6-0.7c0.6,0,1.2,0.2,1.6,0.7c0.4,0.4,0.6,1,0.6,1.6S229.7,17.7,229.3,18.1z M226.7,17.7
		c0.3,0.3,0.6,0.5,1.1,0.5s0.8-0.2,1.1-0.5c0.3-0.3,0.4-0.7,0.4-1.2c0-0.5-0.1-0.9-0.4-1.2s-0.6-0.5-1.1-0.5s-0.8,0.2-1.1,0.5
		c-0.3,0.3-0.4,0.7-0.4,1.2C226.3,17,226.4,17.4,226.7,17.7z"/>
	<path class="st1" d="M234.6,18.7h-0.7v-2.8c0-0.4-0.1-0.6-0.3-0.8s-0.4-0.2-0.7-0.2c-0.3,0-0.5,0.1-0.7,0.2
		c-0.2,0.1-0.4,0.3-0.6,0.5v3.2H231v-4.3h0.7V15c0.2-0.2,0.4-0.4,0.7-0.5c0.3-0.1,0.6-0.2,0.9-0.2c0.9,0,1.4,0.5,1.4,1.4V18.7z"/>
	<path class="st1" d="M236.3,13.7c-0.1,0-0.2,0-0.3-0.1c-0.1-0.1-0.1-0.2-0.1-0.3c0-0.1,0-0.2,0.1-0.3c0.1-0.1,0.2-0.1,0.3-0.1
		c0.1,0,0.2,0,0.3,0.1c0.1,0.1,0.1,0.2,0.1,0.3c0,0.1,0,0.2-0.1,0.3C236.5,13.7,236.4,13.7,236.3,13.7z M236.6,18.7H236v-4.3h0.7
		V18.7z"/>
	<path class="st1" d="M241.4,18.7h-0.7v-0.5c-0.4,0.4-0.8,0.6-1.4,0.6c-0.4,0-0.8-0.1-1.1-0.4c-0.3-0.3-0.5-0.6-0.5-1.1
		c0-0.5,0.2-0.8,0.5-1.1c0.3-0.2,0.7-0.4,1.1-0.4c0.6,0,1.1,0.2,1.4,0.6v-0.8c0-0.3-0.1-0.5-0.3-0.7s-0.5-0.2-0.8-0.2
		c-0.5,0-1,0.2-1.3,0.6L238,15c0.5-0.5,1-0.7,1.7-0.7c0.5,0,0.9,0.1,1.2,0.4c0.3,0.2,0.5,0.6,0.5,1.1V18.7z M239.5,18.3
		c0.5,0,0.9-0.2,1.2-0.5V17c-0.3-0.4-0.7-0.5-1.2-0.5c-0.3,0-0.6,0.1-0.8,0.3c-0.2,0.2-0.3,0.4-0.3,0.7c0,0.3,0.1,0.5,0.3,0.7
		C238.9,18.2,239.2,18.3,239.5,18.3z"/>
</g>
<g>
	<path class="st1" d="M201.9,60.1h-2.7v-6h2.7c0.5,0,0.9,0.1,1.2,0.4c0.3,0.3,0.5,0.7,0.5,1.1c0,0.4-0.1,0.7-0.3,0.9
		s-0.5,0.4-0.7,0.5c0.3,0,0.6,0.2,0.8,0.5c0.2,0.3,0.3,0.6,0.3,1c0,0.5-0.2,0.9-0.5,1.2C202.9,60,202.4,60.1,201.9,60.1z
		 M201.7,56.7c0.3,0,0.6-0.1,0.8-0.3c0.2-0.2,0.3-0.4,0.3-0.7c0-0.3-0.1-0.5-0.3-0.7c-0.2-0.2-0.4-0.3-0.8-0.3h-1.8v1.9H201.7z
		 M201.7,59.5c0.3,0,0.6-0.1,0.8-0.3c0.2-0.2,0.3-0.4,0.3-0.8c0-0.3-0.1-0.5-0.3-0.7c-0.2-0.2-0.5-0.3-0.8-0.3h-1.8v2.1H201.7z"/>
	<path class="st1" d="M208.2,60.1h-0.7v-0.5c-0.4,0.4-0.8,0.6-1.4,0.6c-0.4,0-0.8-0.1-1.1-0.4c-0.3-0.3-0.5-0.6-0.5-1.1
		c0-0.5,0.2-0.8,0.5-1.1c0.3-0.2,0.7-0.4,1.1-0.4c0.6,0,1.1,0.2,1.4,0.6v-0.8c0-0.3-0.1-0.5-0.3-0.7s-0.5-0.2-0.8-0.2
		c-0.5,0-1,0.2-1.3,0.6l-0.3-0.5c0.5-0.5,1-0.7,1.7-0.7c0.5,0,0.9,0.1,1.2,0.4c0.3,0.2,0.5,0.6,0.5,1.1V60.1z M206.3,59.8
		c0.5,0,0.9-0.2,1.2-0.5v-0.8c-0.3-0.4-0.7-0.5-1.2-0.5c-0.3,0-0.6,0.1-0.8,0.3c-0.2,0.2-0.3,0.4-0.3,0.7c0,0.3,0.1,0.5,0.3,0.7
		C205.7,59.7,206,59.8,206.3,59.8z"/>
	<path class="st1" d="M213.1,60.1h-0.7v-2.8c0-0.4-0.1-0.6-0.3-0.8c-0.2-0.2-0.4-0.2-0.7-0.2c-0.3,0-0.5,0.1-0.7,0.2
		c-0.2,0.1-0.4,0.3-0.6,0.5v3.2h-0.7v-4.3h0.7v0.6c0.2-0.2,0.4-0.4,0.7-0.5c0.3-0.1,0.6-0.2,0.9-0.2c0.9,0,1.4,0.5,1.4,1.4V60.1z"/>
	<path class="st1" d="M216.2,61.9c-0.4,0-0.7,0-1-0.1c-0.3-0.1-0.5-0.3-0.8-0.5l0.3-0.5c0.3,0.4,0.8,0.6,1.4,0.6
		c0.4,0,0.7-0.1,1-0.3s0.4-0.5,0.4-1v-0.6c-0.2,0.2-0.4,0.4-0.6,0.6c-0.3,0.1-0.5,0.2-0.8,0.2c-0.6,0-1-0.2-1.4-0.6
		c-0.4-0.4-0.5-1-0.5-1.6c0-0.7,0.2-1.2,0.5-1.6c0.4-0.4,0.8-0.6,1.4-0.6c0.6,0,1.1,0.3,1.5,0.8v-0.7h0.7V60c0,0.7-0.2,1.1-0.6,1.4
		C217.3,61.8,216.8,61.9,216.2,61.9z M216.3,59.6c0.3,0,0.5-0.1,0.8-0.2c0.2-0.1,0.4-0.3,0.5-0.5V57c-0.1-0.2-0.3-0.4-0.5-0.5
		s-0.5-0.2-0.8-0.2c-0.4,0-0.8,0.2-1,0.5c-0.2,0.3-0.4,0.7-0.4,1.2c0,0.5,0.1,0.9,0.4,1.2C215.6,59.4,215.9,59.6,216.3,59.6z"/>
	<path class="st1" d="M220.3,60.1h-0.7v-6h0.7V60.1z"/>
	<path class="st1" d="M225.1,60.1h-0.7v-0.5c-0.4,0.4-0.8,0.6-1.4,0.6c-0.4,0-0.8-0.1-1.1-0.4c-0.3-0.3-0.5-0.6-0.5-1.1
		c0-0.5,0.2-0.8,0.5-1.1c0.3-0.2,0.7-0.4,1.1-0.4c0.6,0,1.1,0.2,1.4,0.6v-0.8c0-0.3-0.1-0.5-0.3-0.7c-0.2-0.2-0.5-0.2-0.8-0.2
		c-0.5,0-1,0.2-1.3,0.6l-0.3-0.5c0.5-0.5,1-0.7,1.7-0.7c0.5,0,0.9,0.1,1.2,0.4s0.5,0.6,0.5,1.1V60.1z M223.2,59.8
		c0.5,0,0.9-0.2,1.2-0.5v-0.8c-0.3-0.4-0.7-0.5-1.2-0.5c-0.3,0-0.6,0.1-0.8,0.3c-0.2,0.2-0.3,0.4-0.3,0.7c0,0.3,0.1,0.5,0.3,0.7
		C222.6,59.7,222.9,59.8,223.2,59.8z"/>
	<path class="st1" d="M230.3,60.1h-0.7v-0.6c-0.4,0.5-0.9,0.8-1.5,0.8c-0.6,0-1-0.2-1.4-0.6c-0.4-0.4-0.5-1-0.5-1.7
		c0-0.7,0.2-1.2,0.5-1.7s0.8-0.6,1.4-0.6c0.6,0,1.1,0.3,1.5,0.8v-2.3h0.7V60.1z M228.3,59.6c0.3,0,0.5-0.1,0.8-0.2s0.4-0.3,0.5-0.5
		v-2c-0.1-0.2-0.3-0.4-0.6-0.5c-0.2-0.1-0.5-0.2-0.8-0.2c-0.4,0-0.8,0.2-1,0.5c-0.3,0.3-0.4,0.7-0.4,1.2s0.1,0.9,0.4,1.2
		C227.5,59.5,227.8,59.6,228.3,59.6z"/>
	<path class="st1" d="M233.6,60.3c-0.6,0-1.2-0.2-1.6-0.6s-0.6-1-0.6-1.7c0-0.6,0.2-1.2,0.6-1.6c0.4-0.4,0.9-0.7,1.5-0.7
		c0.6,0,1.2,0.2,1.5,0.7c0.4,0.4,0.6,1,0.6,1.7v0.2h-3.5c0,0.4,0.2,0.8,0.5,1.1s0.6,0.4,1.1,0.4c0.5,0,1-0.2,1.3-0.5l0.3,0.4
		C234.8,60,234.3,60.3,233.6,60.3z M234.9,57.7c0-0.4-0.1-0.7-0.4-1s-0.6-0.4-1.1-0.4c-0.4,0-0.8,0.1-1,0.4c-0.2,0.3-0.4,0.6-0.4,1
		H234.9z"/>
	<path class="st1" d="M238,60.3c-0.7,0-1.3-0.2-1.8-0.7l0.4-0.5c0.2,0.2,0.4,0.3,0.6,0.4c0.3,0.1,0.5,0.2,0.8,0.2
		c0.3,0,0.6-0.1,0.8-0.2c0.2-0.1,0.3-0.3,0.3-0.5c0-0.2-0.1-0.3-0.3-0.5c-0.2-0.1-0.4-0.2-0.7-0.3c-0.3-0.1-0.5-0.1-0.8-0.2
		c-0.3-0.1-0.5-0.2-0.7-0.4c-0.2-0.2-0.3-0.4-0.3-0.7c0-0.4,0.1-0.7,0.4-0.9s0.7-0.4,1.2-0.4c0.7,0,1.2,0.2,1.6,0.6l-0.3,0.5
		c-0.3-0.4-0.7-0.5-1.3-0.5c-0.3,0-0.5,0.1-0.7,0.2c-0.2,0.1-0.3,0.3-0.3,0.5c0,0.2,0.1,0.3,0.3,0.4c0.2,0.1,0.4,0.2,0.7,0.2
		s0.5,0.1,0.8,0.2s0.5,0.2,0.7,0.4c0.2,0.2,0.3,0.4,0.3,0.8c0,0.4-0.2,0.7-0.5,0.9C239,60.1,238.6,60.3,238,60.3z"/>
	<path class="st1" d="M244.5,60.1h-0.7v-2.9c0-0.4-0.1-0.6-0.3-0.8c-0.2-0.1-0.4-0.2-0.7-0.2c-0.2,0-0.5,0.1-0.7,0.2
		c-0.2,0.1-0.4,0.3-0.6,0.5v3.2h-0.7v-6h0.7v2.3c0.2-0.2,0.4-0.4,0.7-0.5c0.3-0.1,0.6-0.2,0.9-0.2c0.9,0,1.4,0.5,1.4,1.4V60.1z"/>
</g>
<g>
	<path class="st1" d="M202,90c-0.9,0-1.6-0.3-2.2-0.9c-0.6-0.6-0.9-1.3-0.9-2.2s0.3-1.7,0.9-2.2s1.3-0.9,2.2-0.9
		c1,0,1.7,0.4,2.3,1.2l-0.6,0.4c-0.2-0.3-0.4-0.5-0.7-0.6c-0.3-0.2-0.6-0.2-0.9-0.2c-0.7,0-1.2,0.2-1.7,0.7s-0.7,1-0.7,1.8
		s0.2,1.3,0.7,1.8s1,0.7,1.7,0.7c0.3,0,0.7-0.1,0.9-0.2c0.3-0.2,0.5-0.4,0.7-0.6l0.6,0.4C203.7,89.6,202.9,90,202,90z"/>
	<path class="st1" d="M208.7,89.3c-0.4,0.4-0.9,0.7-1.6,0.7c-0.6,0-1.2-0.2-1.6-0.7c-0.4-0.4-0.6-1-0.6-1.6s0.2-1.2,0.6-1.6
		c0.4-0.4,0.9-0.7,1.6-0.7c0.6,0,1.2,0.2,1.6,0.7c0.4,0.4,0.6,1,0.6,1.6S209.1,88.9,208.7,89.3z M206.1,88.9
		c0.3,0.3,0.6,0.5,1.1,0.5s0.8-0.2,1.1-0.5s0.4-0.7,0.4-1.2s-0.1-0.9-0.4-1.2c-0.3-0.3-0.6-0.5-1.1-0.5s-0.8,0.2-1.1,0.5
		c-0.3,0.3-0.4,0.7-0.4,1.2C205.7,88.2,205.8,88.6,206.1,88.9z"/>
	<path class="st1" d="M214,89.9h-0.7V87c0-0.4-0.1-0.6-0.3-0.8c-0.2-0.2-0.4-0.2-0.7-0.2c-0.3,0-0.5,0.1-0.7,0.2
		c-0.2,0.1-0.4,0.3-0.6,0.5v3.2h-0.7v-4.3h0.7v0.6c0.2-0.2,0.4-0.4,0.7-0.5c0.3-0.1,0.6-0.2,0.9-0.2c0.9,0,1.4,0.5,1.4,1.4V89.9z"/>
	<path class="st1" d="M217.1,91.6c-0.4,0-0.7,0-1-0.1c-0.3-0.1-0.5-0.3-0.8-0.5l0.3-0.5c0.3,0.4,0.8,0.6,1.4,0.6
		c0.4,0,0.7-0.1,1-0.3c0.3-0.2,0.4-0.5,0.4-1v-0.6c-0.2,0.2-0.4,0.4-0.6,0.6c-0.3,0.1-0.5,0.2-0.8,0.2c-0.6,0-1-0.2-1.4-0.6
		c-0.4-0.4-0.5-1-0.5-1.6c0-0.7,0.2-1.2,0.5-1.6s0.8-0.6,1.4-0.6c0.6,0,1.1,0.3,1.5,0.8v-0.7h0.7v4.2c0,0.7-0.2,1.1-0.6,1.4
		C218.2,91.5,217.7,91.6,217.1,91.6z M217.2,89.3c0.3,0,0.5-0.1,0.8-0.2c0.2-0.1,0.4-0.3,0.5-0.5v-1.9c-0.1-0.2-0.3-0.4-0.5-0.5
		c-0.2-0.1-0.5-0.2-0.8-0.2c-0.4,0-0.8,0.2-1,0.5c-0.2,0.3-0.4,0.7-0.4,1.2c0,0.5,0.1,0.9,0.4,1.2C216.4,89.2,216.7,89.3,217.2,89.3
		z"/>
	<path class="st1" d="M223.9,89.3c-0.4,0.4-0.9,0.7-1.6,0.7s-1.2-0.2-1.6-0.7c-0.4-0.4-0.6-1-0.6-1.6s0.2-1.2,0.6-1.6
		c0.4-0.4,0.9-0.7,1.6-0.7s1.2,0.2,1.6,0.7c0.4,0.4,0.6,1,0.6,1.6S224.3,88.9,223.9,89.3z M221.3,88.9c0.3,0.3,0.6,0.5,1.1,0.5
		c0.4,0,0.8-0.2,1.1-0.5s0.4-0.7,0.4-1.2s-0.1-0.9-0.4-1.2c-0.3-0.3-0.6-0.5-1.1-0.5c-0.4,0-0.8,0.2-1.1,0.5
		c-0.3,0.3-0.4,0.7-0.4,1.2C220.9,88.2,221.1,88.6,221.3,88.9z"/>
</g>
<g>
	<path class="st1" d="M203.7,120.8h-0.9l-2.3-2.7l-0.6,0.7v2h-0.7v-6h0.7v3.1l2.7-3.1h0.9l-2.5,2.9L203.7,120.8z"/>
	<path class="st1" d="M207.7,120.2c-0.4,0.4-0.9,0.7-1.6,0.7s-1.2-0.2-1.6-0.7c-0.4-0.4-0.6-1-0.6-1.6c0-0.6,0.2-1.2,0.6-1.6
		c0.4-0.4,0.9-0.7,1.6-0.7s1.2,0.2,1.6,0.7c0.4,0.4,0.6,1,0.6,1.6C208.3,119.2,208.1,119.8,207.7,120.2z M205.1,119.8
		c0.3,0.3,0.6,0.5,1.1,0.5c0.4,0,0.8-0.2,1.1-0.5s0.4-0.7,0.4-1.2c0-0.5-0.1-0.9-0.4-1.2s-0.6-0.5-1.1-0.5c-0.4,0-0.8,0.2-1.1,0.5
		c-0.3,0.3-0.4,0.7-0.4,1.2C204.7,119.1,204.8,119.5,205.1,119.8z"/>
	<path class="st1" d="M210.8,120.9c-0.7,0-1.3-0.2-1.8-0.7l0.4-0.5c0.1,0.2,0.4,0.3,0.6,0.4s0.5,0.2,0.8,0.2c0.3,0,0.6-0.1,0.8-0.2
		c0.2-0.1,0.3-0.3,0.3-0.5c0-0.2-0.1-0.3-0.3-0.5s-0.4-0.2-0.7-0.3c-0.3-0.1-0.5-0.1-0.8-0.2c-0.3-0.1-0.5-0.2-0.7-0.4
		c-0.2-0.2-0.3-0.4-0.3-0.7c0-0.4,0.1-0.7,0.4-0.9c0.3-0.2,0.7-0.4,1.2-0.4c0.7,0,1.2,0.2,1.6,0.6l-0.3,0.5
		c-0.3-0.4-0.7-0.5-1.3-0.5c-0.3,0-0.5,0.1-0.7,0.2s-0.3,0.3-0.3,0.5c0,0.2,0.1,0.3,0.3,0.4c0.2,0.1,0.4,0.2,0.7,0.2
		c0.3,0.1,0.5,0.1,0.8,0.2c0.3,0.1,0.5,0.2,0.7,0.4c0.2,0.2,0.3,0.4,0.3,0.8c0,0.4-0.2,0.7-0.4,0.9
		C211.7,120.8,211.3,120.9,210.8,120.9z"/>
	<path class="st1" d="M217,120.2c-0.4,0.4-0.9,0.7-1.6,0.7c-0.6,0-1.2-0.2-1.6-0.7c-0.4-0.4-0.6-1-0.6-1.6c0-0.6,0.2-1.2,0.6-1.6
		c0.4-0.4,0.9-0.7,1.6-0.7c0.6,0,1.2,0.2,1.6,0.7c0.4,0.4,0.6,1,0.6,1.6C217.6,119.2,217.4,119.8,217,120.2z M214.4,119.8
		c0.3,0.3,0.6,0.5,1.1,0.5c0.4,0,0.8-0.2,1.1-0.5s0.4-0.7,0.4-1.2c0-0.5-0.1-0.9-0.4-1.2s-0.6-0.5-1.1-0.5c-0.4,0-0.8,0.2-1.1,0.5
		c-0.3,0.3-0.4,0.7-0.4,1.2C214,119.1,214.1,119.5,214.4,119.8z"/>
	<path class="st1" d="M220.6,120.8h-0.7l-1.8-4.3h0.7l1.4,3.6l1.4-3.6h0.7L220.6,120.8z"/>
	<path class="st1" d="M226.6,120.2c-0.4,0.4-0.9,0.7-1.6,0.7s-1.2-0.2-1.6-0.7c-0.4-0.4-0.6-1-0.6-1.6c0-0.6,0.2-1.2,0.6-1.6
		c0.4-0.4,0.9-0.7,1.6-0.7s1.2,0.2,1.6,0.7c0.4,0.4,0.6,1,0.6,1.6C227.2,119.2,227,119.8,226.6,120.2z M224,119.8
		c0.3,0.3,0.6,0.5,1.1,0.5c0.4,0,0.8-0.2,1.1-0.5s0.4-0.7,0.4-1.2c0-0.5-0.1-0.9-0.4-1.2s-0.6-0.5-1.1-0.5c-0.4,0-0.8,0.2-1.1,0.5
		c-0.3,0.3-0.4,0.7-0.4,1.2C223.6,119.1,223.7,119.5,224,119.8z"/>
</g>
<g>
	<path class="st1" d="M27.3,30.8h-0.7v-6H29c0.6,0,1,0.2,1.4,0.5c0.3,0.3,0.5,0.8,0.5,1.3s-0.2,0.9-0.5,1.3
		c-0.3,0.3-0.8,0.5-1.4,0.5h-1.7V30.8z M28.9,27.8c0.4,0,0.6-0.1,0.9-0.3c0.2-0.2,0.3-0.5,0.3-0.8S30,26,29.8,25.8
		c-0.2-0.2-0.5-0.3-0.9-0.3h-1.6v2.3H28.9z"/>
	<path class="st1" d="M35.1,30.8h-0.7v-0.5c-0.4,0.4-0.8,0.6-1.4,0.6c-0.4,0-0.8-0.1-1.1-0.4c-0.3-0.3-0.5-0.6-0.5-1.1
		c0-0.5,0.2-0.8,0.5-1.1c0.3-0.2,0.7-0.4,1.1-0.4c0.6,0,1.1,0.2,1.4,0.6v-0.8c0-0.3-0.1-0.5-0.3-0.7s-0.5-0.2-0.8-0.2
		c-0.5,0-1,0.2-1.3,0.6l-0.3-0.5c0.5-0.5,1-0.7,1.7-0.7c0.5,0,0.9,0.1,1.2,0.4c0.3,0.2,0.5,0.6,0.5,1.1V30.8z M33.2,30.4
		c0.5,0,0.9-0.2,1.2-0.5v-0.8c-0.3-0.4-0.7-0.5-1.2-0.5c-0.3,0-0.6,0.1-0.8,0.3c-0.2,0.2-0.3,0.4-0.3,0.7c0,0.3,0.1,0.5,0.3,0.7
		C32.6,30.3,32.9,30.4,33.2,30.4z"/>
	<path class="st1" d="M37.1,30.8h-0.7v-6h0.7V30.8z"/>
	<path class="st1" d="M40.4,30.9c-0.6,0-1.2-0.2-1.6-0.6c-0.4-0.4-0.6-1-0.6-1.7c0-0.6,0.2-1.2,0.6-1.6s0.9-0.7,1.5-0.7
		c0.6,0,1.2,0.2,1.5,0.7s0.6,1,0.6,1.7v0.2h-3.5c0,0.4,0.2,0.8,0.5,1.1c0.3,0.3,0.6,0.4,1.1,0.4c0.5,0,1-0.2,1.3-0.5l0.3,0.4
		C41.7,30.7,41.1,30.9,40.4,30.9z M41.7,28.4c0-0.4-0.1-0.7-0.4-1s-0.6-0.4-1.1-0.4c-0.4,0-0.8,0.1-1,0.4c-0.2,0.3-0.4,0.6-0.4,1
		H41.7z"/>
	<path class="st1" d="M44.9,30.9c-0.7,0-1.3-0.2-1.8-0.7l0.4-0.5c0.2,0.2,0.4,0.3,0.6,0.4c0.3,0.1,0.5,0.2,0.8,0.2
		c0.3,0,0.6-0.1,0.8-0.2s0.3-0.3,0.3-0.5c0-0.2-0.1-0.3-0.3-0.5c-0.2-0.1-0.4-0.2-0.7-0.3c-0.3-0.1-0.5-0.1-0.8-0.2
		c-0.3-0.1-0.5-0.2-0.7-0.4c-0.2-0.2-0.3-0.4-0.3-0.7c0-0.4,0.1-0.7,0.4-0.9c0.3-0.2,0.7-0.4,1.2-0.4c0.7,0,1.2,0.2,1.6,0.6
		l-0.3,0.5c-0.3-0.4-0.7-0.5-1.3-0.5c-0.3,0-0.5,0.1-0.7,0.2c-0.2,0.1-0.3,0.3-0.3,0.5c0,0.2,0.1,0.3,0.3,0.4
		c0.2,0.1,0.4,0.2,0.7,0.2s0.5,0.1,0.8,0.2s0.5,0.2,0.7,0.4c0.2,0.2,0.3,0.4,0.3,0.8c0,0.4-0.2,0.7-0.5,0.9
		C45.8,30.8,45.4,30.9,44.9,30.9z"/>
	<path class="st1" d="M48.8,30.9c-0.3,0-0.6-0.1-0.7-0.3c-0.2-0.2-0.2-0.4-0.2-0.8v-2.8h-0.7v-0.6h0.7v-1.2h0.7v1.2h0.9v0.6h-0.9
		v2.7c0,0.2,0,0.3,0.1,0.4c0.1,0.1,0.2,0.2,0.3,0.2c0.2,0,0.4-0.1,0.5-0.2l0.2,0.5C49.4,30.8,49.1,30.9,48.8,30.9z"/>
	<path class="st1" d="M50.7,25.8c-0.1,0-0.2,0-0.3-0.1c-0.1-0.1-0.1-0.2-0.1-0.3c0-0.1,0-0.2,0.1-0.3c0.1-0.1,0.2-0.1,0.3-0.1
		c0.1,0,0.2,0,0.3,0.1c0.1,0.1,0.1,0.2,0.1,0.3c0,0.1,0,0.2-0.1,0.3C50.9,25.8,50.8,25.8,50.7,25.8z M51,30.8h-0.7v-4.3H51V30.8z"/>
	<path class="st1" d="M56,30.8h-0.7V28c0-0.4-0.1-0.6-0.3-0.8S54.6,27,54.3,27c-0.3,0-0.5,0.1-0.7,0.2c-0.2,0.1-0.4,0.3-0.6,0.5v3.2
		h-0.7v-4.3H53v0.6c0.2-0.2,0.4-0.4,0.7-0.5c0.3-0.1,0.6-0.2,0.9-0.2c0.9,0,1.4,0.5,1.4,1.4V30.8z"/>
	<path class="st1" d="M59.3,30.9c-0.6,0-1.2-0.2-1.6-0.6c-0.4-0.4-0.6-1-0.6-1.7c0-0.6,0.2-1.2,0.6-1.6c0.4-0.4,0.9-0.7,1.5-0.7
		c0.6,0,1.2,0.2,1.5,0.7s0.6,1,0.6,1.7v0.2h-3.5c0,0.4,0.2,0.8,0.5,1.1c0.3,0.3,0.6,0.4,1.1,0.4c0.5,0,1-0.2,1.3-0.5l0.3,0.4
		C60.6,30.7,60,30.9,59.3,30.9z M60.6,28.4c0-0.4-0.1-0.7-0.4-1s-0.6-0.4-1.1-0.4c-0.4,0-0.8,0.1-1,0.4c-0.2,0.3-0.4,0.6-0.4,1H60.6
		z"/>
</g>
<g>
	<path class="st1" d="M124.6,18.8h-0.7v-6h0.7V18.8z"/>
	<path class="st1" d="M126.7,18.8H126v-4.3h0.7v0.7c0.4-0.5,0.9-0.8,1.4-0.8V15c-0.1,0-0.2,0-0.3,0c-0.2,0-0.4,0.1-0.7,0.2
		c-0.2,0.1-0.4,0.3-0.5,0.5V18.8z"/>
	<path class="st1" d="M132.3,18.8h-0.7v-0.5c-0.4,0.4-0.8,0.6-1.4,0.6c-0.4,0-0.8-0.1-1.1-0.4s-0.5-0.6-0.5-1.1
		c0-0.5,0.2-0.8,0.5-1.1s0.7-0.4,1.1-0.4c0.6,0,1.1,0.2,1.4,0.6v-0.8c0-0.3-0.1-0.5-0.3-0.7c-0.2-0.2-0.5-0.2-0.8-0.2
		c-0.5,0-1,0.2-1.3,0.6l-0.3-0.5c0.5-0.5,1-0.7,1.7-0.7c0.5,0,0.9,0.1,1.2,0.4c0.3,0.2,0.5,0.6,0.5,1.1V18.8z M130.5,18.4
		c0.5,0,0.9-0.2,1.2-0.5V17c-0.3-0.4-0.7-0.5-1.2-0.5c-0.3,0-0.6,0.1-0.8,0.3c-0.2,0.2-0.3,0.4-0.3,0.7c0,0.3,0.1,0.5,0.3,0.7
		C129.9,18.3,130.2,18.4,130.5,18.4z"/>
	<path class="st1" d="M135.4,18.9c-0.6,0-1-0.2-1.4-0.6c-0.4-0.4-0.5-1-0.5-1.7c0-0.7,0.2-1.2,0.5-1.7c0.4-0.4,0.8-0.6,1.4-0.6
		c0.3,0,0.6,0.1,0.8,0.2s0.5,0.3,0.6,0.5v-0.6h0.7v6h-0.7v-2.3C136.4,18.6,136,18.9,135.4,18.9z M135.5,18.3c0.3,0,0.5-0.1,0.8-0.2
		c0.2-0.1,0.4-0.3,0.5-0.5v-2c-0.1-0.2-0.3-0.4-0.5-0.5c-0.2-0.1-0.5-0.2-0.8-0.2c-0.4,0-0.8,0.2-1,0.5c-0.2,0.3-0.4,0.7-0.4,1.2
		c0,0.5,0.1,0.9,0.4,1.2C134.8,18.1,135.1,18.3,135.5,18.3z"/>
</g>
<g>
	<path class="st1" d="M45,145.9c-1,0-1.7-0.3-2.3-1l0.4-0.6c0.5,0.6,1.1,0.9,1.9,0.9c0.5,0,0.8-0.1,1.1-0.3s0.3-0.4,0.3-0.7
		c0-0.2-0.1-0.4-0.2-0.5c-0.1-0.1-0.3-0.3-0.5-0.3s-0.4-0.2-0.7-0.2c-0.3-0.1-0.5-0.1-0.8-0.2c-0.3-0.1-0.5-0.2-0.7-0.3
		s-0.4-0.3-0.5-0.5c-0.1-0.2-0.2-0.5-0.2-0.7c0-0.5,0.2-0.9,0.6-1.2c0.4-0.3,0.9-0.5,1.5-0.5c0.9,0,1.6,0.3,2.1,0.8l-0.5,0.5
		c-0.4-0.5-1-0.7-1.7-0.7c-0.4,0-0.7,0.1-0.9,0.3c-0.2,0.2-0.3,0.4-0.3,0.7c0,0.2,0.1,0.4,0.3,0.5s0.4,0.2,0.7,0.3
		c0.3,0.1,0.5,0.1,0.9,0.2c0.3,0.1,0.6,0.2,0.9,0.3c0.3,0.1,0.5,0.3,0.7,0.5c0.2,0.2,0.3,0.5,0.3,0.9c0,0.5-0.2,0.9-0.5,1.3
		S45.7,145.9,45,145.9z"/>
	<path class="st1" d="M48,147.5l0.1-0.6c0.1,0,0.2,0.1,0.4,0.1c0.2,0,0.3,0,0.4-0.1c0.1-0.1,0.2-0.2,0.3-0.4l0.3-0.7l-1.8-4.4h0.7
		l1.4,3.6l1.4-3.6h0.7l-2.2,5.2c-0.2,0.6-0.7,0.9-1.3,0.9C48.3,147.6,48.1,147.5,48,147.5z"/>
	<path class="st1" d="M53.3,145.8h-0.7v-4.3h0.7v0.7c0.4-0.5,0.9-0.8,1.4-0.8v0.7c-0.1,0-0.2,0-0.3,0c-0.2,0-0.4,0.1-0.7,0.2
		c-0.2,0.1-0.4,0.3-0.5,0.5V145.8z"/>
	<path class="st1" d="M55.9,140.8c-0.1,0-0.2,0-0.3-0.1c-0.1-0.1-0.1-0.2-0.1-0.3s0-0.2,0.1-0.3c0.1-0.1,0.2-0.1,0.3-0.1
		c0.1,0,0.2,0,0.3,0.1s0.1,0.2,0.1,0.3s0,0.2-0.1,0.3S56.1,140.8,55.9,140.8z M56.3,145.8h-0.7v-4.3h0.7V145.8z"/>
	<path class="st1" d="M61,145.8h-0.7v-0.5c-0.4,0.4-0.8,0.6-1.4,0.6c-0.4,0-0.8-0.1-1.1-0.4s-0.5-0.6-0.5-1.1c0-0.5,0.2-0.8,0.5-1.1
		s0.7-0.4,1.1-0.4c0.6,0,1.1,0.2,1.4,0.6v-0.8c0-0.3-0.1-0.5-0.3-0.7c-0.2-0.2-0.5-0.2-0.8-0.2c-0.5,0-1,0.2-1.3,0.6l-0.3-0.5
		c0.5-0.5,1-0.7,1.7-0.7c0.5,0,0.9,0.1,1.2,0.4c0.3,0.2,0.5,0.6,0.5,1.1V145.8z M59.2,145.4c0.5,0,0.9-0.2,1.2-0.5v-0.8
		c-0.3-0.4-0.7-0.5-1.2-0.5c-0.3,0-0.6,0.1-0.8,0.3c-0.2,0.2-0.3,0.4-0.3,0.7c0,0.3,0.1,0.5,0.3,0.7
		C58.6,145.3,58.8,145.4,59.2,145.4z"/>
</g>
<g>
	<path class="st1" d="M20.8,59.7h-0.9l-0.5-1.3h-3l-0.5,1.3H15l2.4-6h0.9L20.8,59.7z M19.2,57.7l-1.3-3.2l-1.3,3.2H19.2z"/>
	<path class="st1" d="M22.3,59.7h-0.7v-3.8h-0.7v-0.6h0.7V55c0-0.4,0.1-0.8,0.3-1c0.2-0.2,0.5-0.4,0.9-0.4c0.4,0,0.7,0.1,0.9,0.3
		l-0.3,0.4c-0.2-0.1-0.3-0.2-0.5-0.2c-0.2,0-0.4,0.1-0.5,0.2c-0.1,0.1-0.2,0.4-0.2,0.6v0.3h0.9v0.6h-0.9V59.7z"/>
	<path class="st1" d="M25.7,61.4c-0.4,0-0.7,0-1-0.1c-0.3-0.1-0.5-0.3-0.8-0.5l0.3-0.5c0.3,0.4,0.8,0.6,1.4,0.6c0.4,0,0.7-0.1,1-0.3
		c0.3-0.2,0.4-0.5,0.4-1V59c-0.2,0.2-0.4,0.4-0.6,0.6c-0.3,0.1-0.5,0.2-0.8,0.2c-0.6,0-1-0.2-1.4-0.6c-0.4-0.4-0.5-1-0.5-1.6
		s0.2-1.2,0.5-1.6c0.4-0.4,0.8-0.6,1.4-0.6c0.6,0,1.1,0.3,1.5,0.8v-0.7h0.7v4.2c0,0.7-0.2,1.1-0.6,1.4
		C26.8,61.3,26.3,61.4,25.7,61.4z M25.8,59.1c0.3,0,0.5-0.1,0.8-0.2c0.2-0.1,0.4-0.3,0.5-0.5v-1.9c-0.1-0.2-0.3-0.4-0.5-0.5
		c-0.2-0.1-0.5-0.2-0.8-0.2c-0.4,0-0.8,0.2-1,0.5s-0.4,0.7-0.4,1.2c0,0.5,0.1,0.9,0.4,1.2S25.4,59.1,25.8,59.1z"/>
	<path class="st1" d="M32.8,59.7h-0.7v-2.9c0-0.4-0.1-0.6-0.3-0.8c-0.2-0.1-0.4-0.2-0.7-0.2c-0.2,0-0.5,0.1-0.7,0.2
		s-0.4,0.3-0.6,0.5v3.2h-0.7v-6h0.7V56c0.2-0.2,0.4-0.4,0.7-0.5c0.3-0.1,0.6-0.2,0.9-0.2c0.9,0,1.4,0.5,1.4,1.4V59.7z"/>
	<path class="st1" d="M37.5,59.7h-0.7v-0.5c-0.4,0.4-0.8,0.6-1.4,0.6c-0.4,0-0.8-0.1-1.1-0.4c-0.3-0.3-0.5-0.6-0.5-1.1
		c0-0.5,0.2-0.8,0.5-1.1c0.3-0.2,0.7-0.4,1.1-0.4c0.6,0,1.1,0.2,1.4,0.6v-0.8c0-0.3-0.1-0.5-0.3-0.7c-0.2-0.2-0.5-0.2-0.8-0.2
		c-0.5,0-1,0.2-1.3,0.6l-0.3-0.5c0.5-0.5,1-0.7,1.7-0.7c0.5,0,0.9,0.1,1.2,0.4c0.3,0.2,0.5,0.6,0.5,1.1V59.7z M35.6,59.3
		c0.5,0,0.9-0.2,1.2-0.5v-0.8c-0.3-0.4-0.7-0.5-1.2-0.5c-0.3,0-0.6,0.1-0.8,0.3c-0.2,0.2-0.3,0.4-0.3,0.7c0,0.3,0.1,0.5,0.3,0.7
		C35.1,59.2,35.3,59.3,35.6,59.3z"/>
	<path class="st1" d="M42.5,59.7h-0.7v-2.8c0-0.4-0.1-0.6-0.3-0.8s-0.4-0.2-0.7-0.2c-0.3,0-0.5,0.1-0.7,0.2
		c-0.2,0.1-0.4,0.3-0.6,0.5v3.2h-0.7v-4.3h0.7V56c0.2-0.2,0.4-0.4,0.7-0.5c0.3-0.1,0.6-0.2,0.9-0.2c0.9,0,1.4,0.5,1.4,1.4V59.7z"/>
	<path class="st1" d="M44.2,54.7c-0.1,0-0.2,0-0.3-0.1c-0.1-0.1-0.1-0.2-0.1-0.3c0-0.1,0-0.2,0.1-0.3c0.1-0.1,0.2-0.1,0.3-0.1
		c0.1,0,0.2,0,0.3,0.1c0.1,0.1,0.1,0.2,0.1,0.3c0,0.1,0,0.2-0.1,0.3C44.4,54.7,44.3,54.7,44.2,54.7z M44.5,59.7h-0.7v-4.3h0.7V59.7z
		"/>
	<path class="st1" d="M47.2,59.8c-0.7,0-1.3-0.2-1.8-0.7l0.4-0.5c0.1,0.2,0.4,0.3,0.6,0.4c0.3,0.1,0.5,0.2,0.8,0.2
		c0.3,0,0.6-0.1,0.8-0.2s0.3-0.3,0.3-0.5c0-0.2-0.1-0.3-0.3-0.5c-0.2-0.1-0.4-0.2-0.7-0.3c-0.3-0.1-0.5-0.1-0.8-0.2
		c-0.3-0.1-0.5-0.2-0.7-0.4c-0.2-0.2-0.3-0.4-0.3-0.7c0-0.4,0.1-0.7,0.4-0.9c0.3-0.2,0.7-0.4,1.2-0.4c0.7,0,1.2,0.2,1.6,0.6
		l-0.3,0.5c-0.3-0.4-0.7-0.5-1.3-0.5c-0.3,0-0.5,0.1-0.7,0.2s-0.3,0.3-0.3,0.5c0,0.2,0.1,0.3,0.3,0.4c0.2,0.1,0.4,0.2,0.7,0.2
		s0.5,0.1,0.8,0.2c0.3,0.1,0.5,0.2,0.7,0.4c0.2,0.2,0.3,0.4,0.3,0.8c0,0.4-0.2,0.7-0.4,0.9C48.2,59.7,47.8,59.8,47.2,59.8z"/>
	<path class="st1" d="M51.1,59.8c-0.3,0-0.6-0.1-0.7-0.3s-0.2-0.4-0.2-0.8v-2.8h-0.7v-0.6h0.7v-1.2h0.7v1.2h0.9v0.6h-0.9v2.7
		c0,0.2,0,0.3,0.1,0.4c0.1,0.1,0.2,0.2,0.3,0.2c0.2,0,0.4-0.1,0.5-0.2l0.2,0.5C51.7,59.7,51.5,59.8,51.1,59.8z"/>
	<path class="st1" d="M56.1,59.7h-0.7v-0.5c-0.4,0.4-0.8,0.6-1.4,0.6c-0.4,0-0.8-0.1-1.1-0.4c-0.3-0.3-0.5-0.6-0.5-1.1
		c0-0.5,0.2-0.8,0.5-1.1c0.3-0.2,0.7-0.4,1.1-0.4c0.6,0,1.1,0.2,1.4,0.6v-0.8c0-0.3-0.1-0.5-0.3-0.7s-0.5-0.2-0.8-0.2
		c-0.5,0-1,0.2-1.3,0.6l-0.3-0.5c0.5-0.5,1-0.7,1.7-0.7c0.5,0,0.9,0.1,1.2,0.4c0.3,0.2,0.5,0.6,0.5,1.1V59.7z M54.2,59.3
		c0.5,0,0.9-0.2,1.2-0.5v-0.8c-0.3-0.4-0.7-0.5-1.2-0.5c-0.3,0-0.6,0.1-0.8,0.3c-0.2,0.2-0.3,0.4-0.3,0.7c0,0.3,0.1,0.5,0.3,0.7
		C53.6,59.2,53.9,59.3,54.2,59.3z"/>
	<path class="st1" d="M61,59.7h-0.7v-2.8c0-0.4-0.1-0.6-0.3-0.8s-0.4-0.2-0.7-0.2c-0.3,0-0.5,0.1-0.7,0.2s-0.4,0.3-0.6,0.5v3.2h-0.7
		v-4.3h0.7V56c0.2-0.2,0.4-0.4,0.7-0.5c0.3-0.1,0.6-0.2,0.9-0.2c0.9,0,1.4,0.5,1.4,1.4V59.7z"/>
</g>
<g>
	<path class="st1" d="M48.3,89.9h-0.7v-6h0.7V89.9z"/>
	<path class="st1" d="M50.4,89.9h-0.7v-4.3h0.7v0.7c0.4-0.5,0.9-0.8,1.4-0.8v0.7c-0.1,0-0.2,0-0.3,0c-0.2,0-0.4,0.1-0.7,0.2
		c-0.2,0.1-0.4,0.3-0.5,0.5V89.9z"/>
	<path class="st1" d="M56.1,89.9h-0.7v-0.5C55,89.8,54.5,90,54,90c-0.4,0-0.8-0.1-1.1-0.4c-0.3-0.3-0.5-0.6-0.5-1.1
		c0-0.5,0.2-0.8,0.5-1.1c0.3-0.2,0.7-0.4,1.1-0.4c0.6,0,1.1,0.2,1.4,0.6v-0.8c0-0.3-0.1-0.5-0.3-0.7c-0.2-0.2-0.5-0.2-0.8-0.2
		c-0.5,0-1,0.2-1.3,0.6l-0.3-0.5c0.5-0.5,1-0.7,1.7-0.7c0.5,0,0.9,0.1,1.2,0.4s0.5,0.6,0.5,1.1V89.9z M54.2,89.5
		c0.5,0,0.9-0.2,1.2-0.5v-0.8c-0.3-0.4-0.7-0.5-1.2-0.5c-0.3,0-0.6,0.1-0.8,0.3c-0.2,0.2-0.3,0.4-0.3,0.7c0,0.3,0.1,0.5,0.3,0.7
		C53.6,89.4,53.9,89.5,54.2,89.5z"/>
	<path class="st1" d="M61,89.9h-0.7V87c0-0.4-0.1-0.6-0.3-0.8c-0.2-0.2-0.4-0.2-0.7-0.2c-0.3,0-0.5,0.1-0.7,0.2
		c-0.2,0.1-0.4,0.3-0.6,0.5v3.2h-0.7v-4.3h0.7v0.6c0.2-0.2,0.4-0.4,0.7-0.5c0.3-0.1,0.6-0.2,0.9-0.2c0.9,0,1.4,0.5,1.4,1.4V89.9z"/>
</g>
<g>
	<path class="st1" d="M30.1,117.7h-0.7v-6h2.4c0.6,0,1,0.2,1.4,0.5c0.3,0.3,0.5,0.8,0.5,1.3s-0.2,0.9-0.5,1.3s-0.8,0.5-1.4,0.5h-1.7
		V117.7z M31.7,114.6c0.4,0,0.6-0.1,0.9-0.3c0.2-0.2,0.3-0.5,0.3-0.8s-0.1-0.6-0.3-0.8c-0.2-0.2-0.5-0.3-0.9-0.3h-1.6v2.3H31.7z"/>
	<path class="st1" d="M37.8,117.7h-0.7v-0.5c-0.4,0.4-0.8,0.6-1.4,0.6c-0.4,0-0.8-0.1-1.1-0.4s-0.5-0.6-0.5-1.1
		c0-0.5,0.2-0.8,0.5-1.1s0.7-0.4,1.1-0.4c0.6,0,1.1,0.2,1.4,0.6v-0.8c0-0.3-0.1-0.5-0.3-0.7c-0.2-0.2-0.5-0.2-0.8-0.2
		c-0.5,0-1,0.2-1.3,0.6l-0.3-0.5c0.5-0.5,1-0.7,1.7-0.7c0.5,0,0.9,0.1,1.2,0.4c0.3,0.2,0.5,0.6,0.5,1.1V117.7z M36,117.3
		c0.5,0,0.9-0.2,1.2-0.5v-0.8c-0.3-0.4-0.7-0.5-1.2-0.5c-0.3,0-0.6,0.1-0.8,0.3c-0.2,0.2-0.3,0.4-0.3,0.7c0,0.3,0.1,0.5,0.3,0.7
		C35.4,117.2,35.7,117.3,36,117.3z"/>
	<path class="st1" d="M43,117.7h-0.9l-1.6-2l-0.7,0.7v1.2h-0.7v-6h0.7v4l2.3-2.3H43l-1.9,2L43,117.7z"/>
	<path class="st1" d="M44.2,112.7c-0.1,0-0.2,0-0.3-0.1s-0.1-0.2-0.1-0.3s0-0.2,0.1-0.3s0.2-0.1,0.3-0.1c0.1,0,0.2,0,0.3,0.1
		s0.1,0.2,0.1,0.3s0,0.2-0.1,0.3S44.3,112.7,44.2,112.7z M44.5,117.7h-0.7v-4.3h0.7V117.7z"/>
	<path class="st1" d="M47.2,117.8c-0.7,0-1.3-0.2-1.8-0.7l0.4-0.5c0.1,0.2,0.4,0.3,0.6,0.4s0.5,0.2,0.8,0.2c0.3,0,0.6-0.1,0.8-0.2
		c0.2-0.1,0.3-0.3,0.3-0.5c0-0.2-0.1-0.3-0.3-0.5s-0.4-0.2-0.7-0.3c-0.3-0.1-0.5-0.1-0.8-0.2c-0.3-0.1-0.5-0.2-0.7-0.4
		c-0.2-0.2-0.3-0.4-0.3-0.7c0-0.4,0.1-0.7,0.4-0.9c0.3-0.2,0.7-0.4,1.2-0.4c0.7,0,1.2,0.2,1.6,0.6l-0.3,0.5
		c-0.3-0.4-0.7-0.5-1.3-0.5c-0.3,0-0.5,0.1-0.7,0.2s-0.3,0.3-0.3,0.5c0,0.2,0.1,0.3,0.3,0.4c0.2,0.1,0.4,0.2,0.7,0.2
		c0.3,0.1,0.5,0.1,0.8,0.2c0.3,0.1,0.5,0.2,0.7,0.4c0.2,0.2,0.3,0.4,0.3,0.8c0,0.4-0.2,0.7-0.4,0.9
		C48.2,117.6,47.8,117.8,47.2,117.8z"/>
	<path class="st1" d="M51.1,117.8c-0.3,0-0.6-0.1-0.7-0.3s-0.2-0.4-0.2-0.8v-2.8h-0.7v-0.6h0.7v-1.2h0.7v1.2h0.9v0.6h-0.9v2.7
		c0,0.2,0,0.3,0.1,0.4c0.1,0.1,0.2,0.2,0.3,0.2c0.2,0,0.4-0.1,0.5-0.2l0.2,0.5C51.7,117.7,51.5,117.8,51.1,117.8z"/>
	<path class="st1" d="M56.1,117.7h-0.7v-0.5c-0.4,0.4-0.8,0.6-1.4,0.6c-0.4,0-0.8-0.1-1.1-0.4c-0.3-0.3-0.5-0.6-0.5-1.1
		c0-0.5,0.2-0.8,0.5-1.1c0.3-0.2,0.7-0.4,1.1-0.4c0.6,0,1.1,0.2,1.4,0.6v-0.8c0-0.3-0.1-0.5-0.3-0.7s-0.5-0.2-0.8-0.2
		c-0.5,0-1,0.2-1.3,0.6l-0.3-0.5c0.5-0.5,1-0.7,1.7-0.7c0.5,0,0.9,0.1,1.2,0.4c0.3,0.2,0.5,0.6,0.5,1.1V117.7z M54.2,117.3
		c0.5,0,0.9-0.2,1.2-0.5v-0.8c-0.3-0.4-0.7-0.5-1.2-0.5c-0.3,0-0.6,0.1-0.8,0.3s-0.3,0.4-0.3,0.7c0,0.3,0.1,0.5,0.3,0.7
		S53.9,117.3,54.2,117.3z"/>
	<path class="st1" d="M61,117.7h-0.7v-2.8c0-0.4-0.1-0.6-0.3-0.8c-0.2-0.2-0.4-0.2-0.7-0.2c-0.3,0-0.5,0.1-0.7,0.2s-0.4,0.3-0.6,0.5
		v3.2h-0.7v-4.3h0.7v0.6c0.2-0.2,0.4-0.4,0.7-0.5c0.3-0.1,0.6-0.2,0.9-0.2c0.9,0,1.4,0.5,1.4,1.4V117.7z"/>
</g>
<g>
	<path class="st0" d="M203.5,32.2c-0.4,0.2-0.9,0.4-1.5,0.4c-0.6,0-1.1-0.1-1.5-0.4c-0.4-0.2-0.8-0.6-1-1c-0.3-0.4-0.5-0.9-0.6-1.4
		s-0.2-1-0.2-1.6s0.1-1.1,0.2-1.6s0.3-1,0.6-1.4c0.3-0.4,0.6-0.7,1-1c0.4-0.2,0.9-0.4,1.5-0.4c0.6,0,1.1,0.1,1.5,0.4
		c0.4,0.2,0.8,0.6,1,1c0.3,0.4,0.5,0.9,0.6,1.4c0.1,0.5,0.2,1,0.2,1.6s-0.1,1.1-0.2,1.6c-0.1,0.5-0.3,1-0.6,1.4S203.9,32,203.5,32.2
		z M200.6,30.5c0.3,0.6,0.8,0.9,1.4,0.9s1.1-0.3,1.4-0.9c0.3-0.6,0.5-1.3,0.5-2.2c0-0.6-0.1-1.1-0.2-1.5c-0.1-0.4-0.3-0.8-0.6-1.1
		c-0.3-0.3-0.6-0.4-1.1-0.4c-0.4,0-0.8,0.1-1.1,0.4c-0.3,0.3-0.5,0.6-0.6,1.1c-0.1,0.4-0.2,0.9-0.2,1.5
		C200.1,29.2,200.3,29.9,200.6,30.5z"/>
</g>
<g>
	<path class="st0" d="M201.4,73.3c-1,0-1.8-0.3-2.4-0.9l0.7-1.1c0.5,0.5,1,0.7,1.7,0.7c0.7,0,1.3-0.3,1.6-0.8
		c0.4-0.5,0.6-1.2,0.6-1.9V69c-0.2,0.3-0.5,0.6-0.9,0.8c-0.4,0.2-0.8,0.4-1.3,0.4c-0.8,0-1.5-0.2-2-0.7c-0.5-0.5-0.8-1.1-0.8-2
		c0-0.8,0.3-1.5,0.9-2c0.6-0.5,1.3-0.8,2.2-0.8c0.8,0,1.4,0.2,2,0.6s0.9,0.9,1.1,1.5c0.2,0.6,0.3,1.3,0.3,2.2c0,1.2-0.3,2.3-1,3.1
		S202.6,73.3,201.4,73.3z M201.8,68.9c0.4,0,0.7-0.1,1-0.3c0.3-0.2,0.6-0.4,0.8-0.7c0-0.5-0.2-1-0.5-1.4c-0.3-0.4-0.8-0.6-1.3-0.6
		c-0.5,0-0.9,0.1-1.2,0.4c-0.3,0.3-0.5,0.6-0.5,1c0,0.5,0.2,0.9,0.5,1.1C200.9,68.8,201.3,68.9,201.8,68.9z"/>
	<path class="st0" d="M211,73c-0.4,0.2-0.9,0.4-1.5,0.4s-1.1-0.1-1.5-0.4s-0.8-0.6-1.1-1c-0.3-0.4-0.5-0.9-0.6-1.4s-0.2-1-0.2-1.6
		c0-0.5,0.1-1.1,0.2-1.6s0.3-1,0.6-1.4c0.3-0.4,0.6-0.7,1.1-1s0.9-0.4,1.5-0.4s1.1,0.1,1.5,0.4s0.8,0.6,1,1c0.3,0.4,0.5,0.9,0.6,1.4
		c0.1,0.5,0.2,1,0.2,1.6c0,0.5-0.1,1.1-0.2,1.6c-0.1,0.5-0.3,1-0.6,1.4C211.8,72.4,211.4,72.7,211,73z M208.1,71.2
		c0.3,0.6,0.8,0.8,1.4,0.8s1.1-0.3,1.4-0.8c0.3-0.6,0.4-1.3,0.4-2.2c0-0.6-0.1-1.1-0.2-1.5c-0.1-0.4-0.3-0.8-0.6-1.1
		s-0.6-0.4-1.1-0.4s-0.8,0.1-1.1,0.4c-0.3,0.3-0.5,0.6-0.6,1.1c-0.1,0.4-0.2,0.9-0.2,1.5C207.6,69.9,207.8,70.6,208.1,71.2z"/>
</g>
<g>
	<path class="st0" d="M203.5,102.3c-0.4,0.2-0.9,0.4-1.5,0.4c-0.6,0-1.1-0.1-1.5-0.4c-0.4-0.2-0.8-0.6-1-1c-0.3-0.4-0.5-0.9-0.6-1.4
		s-0.2-1-0.2-1.6c0-0.5,0.1-1.1,0.2-1.6s0.3-1,0.6-1.4c0.3-0.4,0.6-0.7,1-1c0.4-0.2,0.9-0.4,1.5-0.4c0.6,0,1.1,0.1,1.5,0.4
		c0.4,0.2,0.8,0.6,1,1c0.3,0.4,0.5,0.9,0.6,1.4c0.1,0.5,0.2,1,0.2,1.6c0,0.5-0.1,1.1-0.2,1.6c-0.1,0.5-0.3,1-0.6,1.4
		C204.3,101.8,203.9,102.1,203.5,102.3z M200.6,100.6c0.3,0.6,0.8,0.8,1.4,0.8s1.1-0.3,1.4-0.8c0.3-0.6,0.5-1.3,0.5-2.2
		c0-0.6-0.1-1.1-0.2-1.5c-0.1-0.4-0.3-0.8-0.6-1.1s-0.6-0.4-1.1-0.4c-0.4,0-0.8,0.1-1.1,0.4s-0.5,0.6-0.6,1.1
		c-0.1,0.4-0.2,0.9-0.2,1.5C200.1,99.3,200.3,100,200.6,100.6z"/>
</g>
<g>
	<path class="st0" d="M46.1,159.4c-0.6,0-1.1-0.1-1.6-0.3c-0.5-0.2-0.8-0.5-1.1-0.9s-0.5-0.9-0.6-1.4c-0.1-0.5-0.2-1.1-0.2-1.7
		c0-1.3,0.3-2.3,1-3.1c0.6-0.8,1.5-1.2,2.7-1.2c1,0,1.8,0.3,2.4,0.9l-0.7,1.1c-0.5-0.5-1-0.7-1.7-0.7c-0.7,0-1.2,0.3-1.6,0.8
		c-0.4,0.5-0.6,1.2-0.6,1.9c0,0.1,0,0.2,0,0.2c0.2-0.3,0.5-0.6,0.9-0.8s0.8-0.3,1.3-0.3c0.8,0,1.5,0.2,2,0.7c0.5,0.5,0.8,1.1,0.8,2
		c0,0.8-0.3,1.5-0.9,2C47.8,159.1,47.1,159.4,46.1,159.4z M46.1,158.1c0.5,0,0.9-0.1,1.2-0.4c0.3-0.3,0.5-0.6,0.5-1
		c0-0.5-0.2-0.9-0.5-1.1s-0.7-0.4-1.2-0.4c-0.4,0-0.7,0.1-1,0.3c-0.3,0.2-0.6,0.4-0.8,0.7c0,0.5,0.2,1,0.5,1.4
		C45,157.9,45.5,158.1,46.1,158.1z"/>
	<path class="st0" d="M53.6,159.2h-1.5v-6.4l-1.4,1.4l-0.9-0.9l2.4-2.4h1.3V159.2z"/>
	<path class="st0" d="M58.3,159.4c-1.3,0-2.4-0.4-3.1-1.3l0.8-1c0.6,0.7,1.3,1,2.2,1c0.5,0,0.9-0.1,1.2-0.4c0.3-0.3,0.5-0.6,0.5-1
		c0-0.5-0.2-0.8-0.5-1.1c-0.3-0.3-0.7-0.4-1.2-0.4c-0.7,0-1.3,0.2-1.8,0.7l-1-0.3v-4.7h5.5v1.3h-4v2.4c0.5-0.5,1.1-0.7,1.9-0.7
		c0.7,0,1.4,0.2,1.9,0.7c0.5,0.5,0.8,1.1,0.8,2c0,0.9-0.3,1.5-0.9,2.1C60,159.1,59.2,159.4,58.3,159.4z"/>
</g>
<g>
	<path class="st0" d="M46.3,129.3h-1.5v-6.4l-1.4,1.4l-0.9-0.9L45,121h1.3V129.3z"/>
	<path class="st0" d="M53,129.3h-1.5v-1.9h-4v-1.2L51,121h2v5.2h1.1v1.3H53V129.3z M51.5,126.1v-3.8l-2.5,3.8H51.5z"/>
	<path class="st0" d="M58.3,129.4c-1.3,0-2.4-0.4-3.1-1.3l0.8-1c0.6,0.7,1.3,1,2.2,1c0.5,0,0.9-0.1,1.2-0.4s0.5-0.6,0.5-1
		c0-0.5-0.2-0.8-0.5-1.1c-0.3-0.3-0.7-0.4-1.2-0.4c-0.7,0-1.3,0.2-1.8,0.7l-1-0.3V121h5.5v1.3h-4v2.4c0.5-0.5,1.1-0.7,1.9-0.7
		c0.7,0,1.4,0.2,1.9,0.7c0.5,0.5,0.8,1.1,0.8,2c0,0.9-0.3,1.5-0.9,2.1C60,129.2,59.2,129.4,58.3,129.4z"/>
</g>
<g>
	<path class="st0" d="M50.6,102.9c-1.3,0-2.4-0.4-3.1-1.3l0.8-1c0.6,0.7,1.3,1,2.2,1c0.5,0,0.9-0.1,1.2-0.4c0.3-0.3,0.5-0.6,0.5-1
		c0-0.5-0.2-0.8-0.5-1.1c-0.3-0.3-0.7-0.4-1.2-0.4c-0.7,0-1.3,0.2-1.8,0.7l-1-0.3v-4.7h5.5v1.3h-4v2.4c0.5-0.5,1.1-0.7,1.9-0.7
		c0.7,0,1.4,0.2,1.9,0.7c0.5,0.5,0.8,1.1,0.8,2c0,0.9-0.3,1.5-0.9,2.1S51.5,102.9,50.6,102.9z"/>
	<path class="st0" d="M59.6,102.5c-0.4,0.2-0.9,0.4-1.5,0.4s-1.1-0.1-1.5-0.4s-0.8-0.6-1-1c-0.3-0.4-0.5-0.9-0.6-1.4
		c-0.1-0.5-0.2-1-0.2-1.6c0-0.5,0.1-1.1,0.2-1.6c0.1-0.5,0.3-1,0.6-1.4c0.3-0.4,0.6-0.7,1-1s0.9-0.4,1.5-0.4s1.1,0.1,1.5,0.4
		s0.8,0.6,1.1,1c0.3,0.4,0.5,0.9,0.6,1.4s0.2,1,0.2,1.6c0,0.5-0.1,1.1-0.2,1.6s-0.3,1-0.6,1.4C60.4,101.9,60,102.2,59.6,102.5z
		 M56.7,100.7c0.3,0.6,0.8,0.8,1.4,0.8c0.6,0,1.1-0.3,1.4-0.8s0.5-1.3,0.5-2.2c0-0.6-0.1-1.1-0.2-1.5c-0.1-0.4-0.3-0.8-0.6-1.1
		c-0.3-0.3-0.6-0.4-1.1-0.4S57.3,95.7,57,96c-0.3,0.3-0.5,0.6-0.6,1.1c-0.1,0.4-0.2,0.9-0.2,1.5C56.3,99.4,56.4,100.1,56.7,100.7z"
		/>
</g>
<g>
	<path class="st0" d="M39.4,72.2h-1.5v-6.4l-1.4,1.4l-0.8-0.9l2.4-2.4h1.3V72.2z"/>
	<path class="st0" d="M42.7,71.7c0,0.4-0.1,0.8-0.3,1.2c-0.2,0.4-0.5,0.7-0.9,0.9L41,73.4c0.2-0.1,0.4-0.3,0.6-0.5
		c0.2-0.2,0.3-0.4,0.3-0.6c-0.1,0-0.1,0-0.2,0c-0.2,0-0.4-0.1-0.5-0.2c-0.1-0.1-0.2-0.3-0.2-0.6s0.1-0.4,0.2-0.6
		c0.2-0.2,0.4-0.3,0.6-0.3c0.3,0,0.5,0.1,0.7,0.3C42.6,71.1,42.7,71.4,42.7,71.7z"/>
	<path class="st0" d="M46.1,72.2h-1.5v-6.4l-1.4,1.4l-0.8-0.9l2.4-2.4h1.3V72.2z"/>
	<path class="st0" d="M50.3,72.3c-1,0-1.8-0.3-2.4-0.9l0.7-1.1c0.5,0.5,1,0.7,1.7,0.7c0.7,0,1.3-0.3,1.6-0.8s0.6-1.2,0.6-1.9V68
		c-0.2,0.3-0.5,0.6-0.9,0.8c-0.4,0.2-0.8,0.4-1.3,0.4c-0.8,0-1.5-0.2-2-0.7s-0.8-1.1-0.8-2c0-0.8,0.3-1.5,0.9-2s1.3-0.8,2.2-0.8
		c0.8,0,1.4,0.2,2,0.6s0.9,0.9,1.1,1.5c0.2,0.6,0.3,1.3,0.3,2.2c0,1.2-0.3,2.3-1,3.1C52.3,71.9,51.4,72.3,50.3,72.3z M50.6,68
		c0.4,0,0.7-0.1,1-0.3s0.6-0.4,0.8-0.7c0-0.5-0.2-1-0.5-1.4c-0.3-0.4-0.8-0.6-1.3-0.6c-0.5,0-0.9,0.2-1.2,0.4
		c-0.3,0.3-0.4,0.6-0.4,1c0,0.5,0.2,0.9,0.5,1.1C49.7,67.8,50.1,68,50.6,68z"/>
	<path class="st0" d="M58.3,72.3c-1.3,0-2.4-0.4-3.1-1.3l0.8-1c0.6,0.7,1.3,1,2.2,1c0.5,0,0.9-0.1,1.2-0.4c0.3-0.3,0.5-0.6,0.5-1
		c0-0.5-0.2-0.8-0.5-1.1c-0.3-0.3-0.7-0.4-1.2-0.4c-0.7,0-1.3,0.2-1.8,0.7l-1-0.3v-4.7h5.5v1.3h-4v2.4c0.5-0.5,1.1-0.7,1.9-0.7
		c0.7,0,1.4,0.2,1.9,0.7c0.5,0.5,0.8,1.1,0.8,2c0,0.9-0.3,1.5-0.9,2.1C60,72.1,59.2,72.3,58.3,72.3z"/>
</g>
<g>
	<path class="st0" d="M50.9,42.9h-1.6l3.2-7h-4.3v-1.3h6v1L50.9,42.9z"/>
	<path class="st0" d="M58.3,43.1c-1.3,0-2.4-0.4-3.1-1.3l0.8-1c0.6,0.7,1.3,1,2.2,1c0.5,0,0.9-0.1,1.2-0.4c0.3-0.3,0.5-0.6,0.5-1
		c0-0.5-0.2-0.8-0.5-1.1c-0.3-0.3-0.7-0.4-1.2-0.4c-0.7,0-1.3,0.2-1.8,0.7l-1-0.3v-4.7h5.5v1.3h-4v2.4c0.5-0.5,1.1-0.7,1.9-0.7
		c0.7,0,1.4,0.2,1.9,0.7c0.5,0.5,0.8,1.1,0.8,2c0,0.9-0.3,1.5-0.9,2.1C60,42.8,59.2,43.1,58.3,43.1z"/>
</g>
<g>
	<path class="st0" d="M126.2,31.2h-6V30c1.7-1.3,2.9-2.3,3.6-2.9c0.6-0.6,0.9-1.2,0.9-1.8c0-0.4-0.1-0.7-0.4-0.9
		c-0.3-0.2-0.7-0.3-1.1-0.3c-0.9,0-1.7,0.3-2.2,1l-0.8-1c0.4-0.4,0.8-0.8,1.4-1c0.5-0.2,1.1-0.3,1.7-0.3c0.9,0,1.6,0.2,2.2,0.7
		c0.6,0.5,0.9,1.1,0.9,1.9c0,0.7-0.3,1.4-0.9,2.1c-0.6,0.7-1.5,1.5-2.8,2.5h3.7V31.2z"/>
	<path class="st0" d="M130.4,31.3c-0.7,0-1.3-0.1-1.9-0.4c-0.5-0.2-1-0.6-1.3-1l0.8-1c0.3,0.3,0.6,0.6,1,0.7
		c0.4,0.2,0.8,0.3,1.3,0.3c0.5,0,1-0.1,1.3-0.3c0.3-0.2,0.5-0.5,0.5-0.9c0-0.8-0.6-1.2-1.8-1.2c-0.6,0-0.9,0-1,0v-1.3
		c0.1,0,0.4,0,1,0c0.5,0,0.9-0.1,1.2-0.3s0.5-0.5,0.5-0.8c0-0.4-0.2-0.7-0.5-0.9c-0.3-0.2-0.7-0.3-1.2-0.3c-0.8,0-1.5,0.3-2.1,0.9
		l-0.8-0.9c0.7-0.9,1.8-1.3,3-1.3c0.9,0,1.6,0.2,2.2,0.6c0.5,0.4,0.8,1,0.8,1.6c0,0.5-0.2,0.9-0.5,1.3c-0.4,0.3-0.8,0.5-1.3,0.6
		c0.5,0,0.9,0.2,1.3,0.6c0.4,0.4,0.6,0.8,0.6,1.4c0,0.7-0.3,1.3-0.9,1.8C132.1,31.1,131.3,31.3,130.4,31.3z"/>
	<path class="st0" d="M139.5,30.9c-0.4,0.2-0.9,0.4-1.5,0.4s-1.1-0.1-1.5-0.4s-0.8-0.6-1-1s-0.5-0.9-0.6-1.4c-0.1-0.5-0.2-1-0.2-1.6
		s0.1-1.1,0.2-1.6c0.1-0.5,0.3-1,0.6-1.4c0.3-0.4,0.6-0.7,1-1s0.9-0.4,1.5-0.4s1.1,0.1,1.5,0.4s0.8,0.6,1.1,1
		c0.3,0.4,0.5,0.9,0.6,1.4s0.2,1,0.2,1.6s-0.1,1.1-0.2,1.6s-0.3,1-0.6,1.4C140.3,30.4,139.9,30.7,139.5,30.9z M136.6,29.2
		c0.3,0.6,0.8,0.9,1.4,0.9c0.6,0,1.1-0.3,1.4-0.9c0.3-0.6,0.5-1.3,0.5-2.2c0-0.6-0.1-1.1-0.2-1.5c-0.1-0.4-0.3-0.8-0.6-1.1
		c-0.3-0.3-0.6-0.4-1.1-0.4s-0.8,0.1-1.1,0.4c-0.3,0.3-0.5,0.6-0.6,1.1c-0.1,0.4-0.2,0.9-0.2,1.5C136.1,27.9,136.3,28.6,136.6,29.2z
		"/>
</g>
<g>
	<g>
		<path class="st2" d="M191.6,62.7c-11.7,0-18.3,1.1-30.5,11.5"/>
		<g>
			<path class="st3" d="M161.1,74.2c0.1,0,0.3,0.1,0.4,0.2c-0.2,0-0.4-0.1-0.6,0c0.1-0.2,0.1-0.4,0.1-0.6
				C161,73.9,161.1,74,161.1,74.2z"/>
		</g>
	</g>
</g>
<g>
	<g>
		<path class="st4" d="M69.2,147.3c22.1-5.5,39.8-18.2,45.4-35.3"/>
		<g>
			<path class="st3" d="M114.4,112.2c-0.8,0.4-2.1,0.3-3,0.1c1.4-0.5,2.7-1.3,3.7-2.4c0.1,1.5,0.8,2.9,1.6,4.1
				C115.9,113.6,114.9,113,114.4,112.2z"/>
		</g>
	</g>
</g>
<g>
	<g>
		<path class="st5" d="M190.5,125.2c-16,5.5-33.5,6.4-47.3-11.5"/>
		<g>
			<path class="st3" d="M144.2,115c-0.8,5.9-6.1,12.6-10.6,16.2c2.6-9.3,3.4-19.4,0.8-28.9c8.4,5,18.5,6.3,28.2,6.5
				C157.4,112.3,150.6,115.6,144.2,115z"/>
		</g>
	</g>
</g>
<g>
	<g>
		<path class="st6" d="M68,117.5c13.8-0.8,20.5-4.2,29.7-11.2"/>
		<g>
			<path class="st3" d="M97.6,106.4c-0.2,0-0.5-0.2-0.6-0.4c0.3,0.1,0.7,0.1,1,0c-0.2,0.3-0.2,0.7-0.2,1
				C97.7,106.8,97.6,106.6,97.6,106.4z"/>
		</g>
	</g>
</g>
<g>
	<g>
		<path class="st7" d="M67.4,61.9c13.9-1,22.9,3,32.4,17.3"/>
		<g>
			<path class="st3" d="M99.7,79c0.2-0.8,0.9-1.6,1.6-2.1c-0.4,1.2-0.6,2.5-0.4,3.8c-1.1-0.7-2.4-1-3.7-1.1
				C97.9,79.3,98.8,78.9,99.7,79z"/>
		</g>
	</g>
</g>
<g>
	<g>
		<path class="st8" d="M67.4,91.6c9.6-3,18.8-2.8,28.8,0.5"/>
		<g>
			<path class="st3" d="M96.2,92c0-0.1,0-0.2,0-0.2c0,0.1,0.1,0.2,0.2,0.3c-0.1,0-0.2,0.1-0.3,0.1C96.1,92.2,96.1,92.1,96.2,92z"/>
		</g>
	</g>
</g>
<g>
	<g>
		<line class="st9" x1="130.7" y1="35.8" x2="130.7" y2="71.5"/>
		<g>
			<path class="st3" d="M130.7,71.4c0.2-0.2,0.7-0.4,1-0.4c-0.4,0.3-0.8,0.8-1,1.3c-0.2-0.5-0.6-0.9-1-1.3
				C130,71.1,130.4,71.2,130.7,71.4z"/>
		</g>
	</g>
</g>
<g>
	<g>
		<path class="st10" d="M71.7,30.2c18.3,0,43.3,14.9,49,44"/>
		<g>
			<path class="st3" d="M120.7,74.2c0.1-0.1,0.2-0.2,0.3-0.2c-0.1,0.1-0.2,0.3-0.3,0.5c-0.1-0.2-0.3-0.3-0.4-0.3
				C120.4,74.1,120.6,74.1,120.7,74.2z"/>
		</g>
	</g>
</g>
<g>
	<path class="st0" d="M202,135.5h-1.5v-6.4l-1.4,1.4l-0.9-0.9l2.4-2.4h1.3V135.5z"/>
	<path class="st0" d="M206.3,135.7c-0.7,0-1.3-0.1-1.9-0.4s-1-0.6-1.3-1l0.8-1c0.3,0.3,0.6,0.6,1,0.7c0.4,0.2,0.8,0.3,1.3,0.3
		c0.5,0,1-0.1,1.3-0.3c0.3-0.2,0.5-0.5,0.5-0.9c0-0.8-0.6-1.2-1.9-1.2c-0.6,0-0.9,0-1,0v-1.3c0.1,0,0.4,0,1,0c0.5,0,0.9-0.1,1.2-0.3
		c0.3-0.2,0.5-0.5,0.5-0.8c0-0.4-0.2-0.7-0.5-0.9s-0.7-0.3-1.2-0.3c-0.8,0-1.5,0.3-2.1,0.9l-0.8-0.9c0.7-0.9,1.8-1.3,3-1.3
		c0.9,0,1.6,0.2,2.2,0.6c0.5,0.4,0.8,1,0.8,1.6c0,0.5-0.2,0.9-0.5,1.3c-0.4,0.3-0.8,0.5-1.3,0.6c0.5,0,0.9,0.2,1.3,0.6
		c0.4,0.4,0.6,0.8,0.6,1.4c0,0.7-0.3,1.3-0.9,1.8C208,135.5,207.3,135.7,206.3,135.7z"/>
	<path class="st0" d="M212.5,135.1c0,0.4-0.1,0.8-0.3,1.2c-0.2,0.4-0.5,0.7-0.9,0.9l-0.6-0.5c0.2-0.1,0.4-0.3,0.6-0.5
		c0.2-0.2,0.3-0.4,0.3-0.6c-0.1,0-0.1,0-0.2,0c-0.2,0-0.4-0.1-0.5-0.2c-0.1-0.1-0.2-0.3-0.2-0.6s0.1-0.4,0.2-0.6s0.4-0.3,0.6-0.3
		c0.3,0,0.5,0.1,0.7,0.3C212.4,134.4,212.5,134.7,212.5,135.1z"/>
	<path class="st0" d="M218.9,135.5h-1.5v-1.9h-4v-1.2l3.4-5.3h2v5.2h1.1v1.3h-1.1V135.5z M217.4,132.4v-3.9l-2.5,3.9H217.4z"/>
	<path class="st0" d="M223.8,135.7c-0.7,0-1.3-0.1-1.9-0.4c-0.5-0.2-1-0.6-1.3-1l0.8-1c0.3,0.3,0.6,0.6,1,0.7
		c0.4,0.2,0.8,0.3,1.3,0.3c0.5,0,1-0.1,1.3-0.3c0.3-0.2,0.5-0.5,0.5-0.9c0-0.8-0.6-1.2-1.8-1.2c-0.6,0-0.9,0-1,0v-1.3
		c0.1,0,0.4,0,1,0c0.5,0,0.9-0.1,1.2-0.3c0.3-0.2,0.5-0.5,0.5-0.8c0-0.4-0.2-0.7-0.5-0.9s-0.7-0.3-1.2-0.3c-0.8,0-1.5,0.3-2.2,0.9
		l-0.8-0.9c0.7-0.9,1.8-1.3,3-1.3c0.9,0,1.6,0.2,2.2,0.6c0.6,0.4,0.8,1,0.8,1.6c0,0.5-0.2,0.9-0.5,1.3c-0.4,0.3-0.8,0.5-1.3,0.6
		c0.5,0,0.9,0.2,1.3,0.6s0.6,0.8,0.6,1.4c0,0.7-0.3,1.3-0.9,1.8S224.7,135.7,223.8,135.7z"/>
	<path class="st0" d="M231.3,135.7c-1.3,0-2.4-0.4-3.1-1.3l0.8-1c0.6,0.7,1.3,1,2.2,1c0.5,0,0.9-0.1,1.2-0.4c0.3-0.3,0.5-0.6,0.5-1
		c0-0.5-0.2-0.8-0.5-1.1c-0.3-0.3-0.7-0.4-1.2-0.4c-0.7,0-1.3,0.2-1.8,0.7l-1-0.3v-4.7h5.5v1.3h-4v2.4c0.5-0.5,1.1-0.7,1.9-0.7
		c0.7,0,1.4,0.2,1.9,0.7c0.5,0.5,0.8,1.1,0.8,2c0,0.9-0.3,1.5-0.9,2.1C233,135.4,232.3,135.7,231.3,135.7z"/>
</g>
</svg>
