<?xml version="1.0" encoding="utf-8"?>
<!-- Generator: Adobe Illustrator 19.2.0, SVG Export Plug-In . SVG Version: 6.00 Build 0)  -->
<svg version="1.1" id="Layer_1" xmlns="http://www.w3.org/2000/svg" xmlns:xlink="http://www.w3.org/1999/xlink" x="0px" y="0px"
	 viewBox="0 0 266.2 169.3" style="enable-background:new 0 0 266.2 169.3;" xml:space="preserve">
<style type="text/css">
	.st0{fill:#0D92FF;}
	.st1{fill:#787878;}
	.st2{fill:none;stroke:#00325C;stroke-width:5.000000e-03;stroke-miterlimit:10;}
	.st3{fill:#00325C;}
	.st4{fill:none;stroke:#00325C;stroke-width:0.145;stroke-miterlimit:10;}
	.st5{fill:none;stroke:#00325C;stroke-width:1.265;stroke-miterlimit:3;}
	.st6{fill:none;stroke:#00325C;stroke-width:0.38;stroke-miterlimit:10;}
	.st7{fill:none;stroke:#00325C;stroke-width:0.335;stroke-miterlimit:10;}
	.st8{fill:none;stroke:#00325C;stroke-width:1.45;stroke-miterlimit:10;}
	.st9{fill:none;stroke:#00325C;stroke-width:6.500000e-02;stroke-miterlimit:10;}
	.st10{fill:none;stroke:#00325C;stroke-width:0.45;stroke-miterlimit:10;}
	.st11{fill:none;stroke:#00325C;stroke-width:0.125;stroke-miterlimit:10;}
</style>
<g>
	<polygon class="st0" points="188.5,66.3 188.8,65.9 188.9,65.5 189,65.2 189,65 188.9,64.5 188.7,64.1 188.5,63.9 188,63.4 
		187.3,63 187.2,62.9 187,62.7 186.7,62.8 186.4,63 186,63.1 184.8,63.1 184.5,63.2 184.5,63.2 184.4,63.1 184.1,62.5 183.9,61.7 
		183.6,61.1 182.3,59.4 182.3,59.4 182.2,59.4 182.1,59.4 181.8,59.6 181.6,59.6 181.3,59.5 180.9,59.4 180.8,59.4 180.7,59.4 
		180.6,59.5 180.4,59.6 180.3,59.5 180.2,59.4 179.3,58.1 179.2,57.6 179.1,57.2 179.2,56.9 179.2,56.6 179,56.4 178.9,56.4 
		178.4,56.4 178.4,56 178.7,55.2 178.1,54.9 177.5,54.8 176.9,55 176.7,55.2 176.7,55.2 176.3,55.2 175.9,55.6 175.6,55.8 
		175.3,55.9 174.2,55.8 173.9,55.8 173.6,55.9 172.7,56 172.4,56.1 171.9,56.4 171.1,56.5 170.2,57 169.7,57 169.2,56.8 168.7,56.5 
		168.3,56 167.3,54.5 167.2,54.2 166.9,53.1 166.8,52.8 166.5,52.7 165.8,52.7 165.6,52.6 165.5,52.4 165.3,51.9 165.2,51.7 
		165,51.6 164.7,51.4 164.1,51.1 163.9,51 163,51.3 162.4,51.3 162.1,51.4 161.8,51.6 161.6,51.8 161.5,52.1 161.3,52.4 161,52.6 
		160.8,52.5 160.6,52.3 160.3,52.2 159.7,52.3 158.4,53 157.9,52.8 157.6,52.5 157.1,52.3 156.6,52.2 156.2,52.2 155.5,52.2 
		154.5,51.6 154,51.6 153.7,51.5 153.2,51 153,50.9 152.7,50.9 149,51.7 147.9,51.8 147.4,52 147.4,52.2 147.4,52.4 147.4,52.9 
		147.4,53.1 147.4,53.2 147.2,53.6 146.6,54.2 146.3,54.5 146.1,55 145.4,57.1 145.1,57.8 144.6,58.5 144.1,59 143.7,59.2 
		143.5,59.1 143.3,58.9 143,58.7 142.8,58.8 142.2,59.3 141.9,59.4 141.6,59.4 141.5,59.3 141.3,59.3 141.1,59.6 141,59.8 
		140.9,60.2 140.8,60.5 140.6,60.6 140.3,60.7 139.6,61.2 138.9,61.4 138.5,61.7 137.7,62.4 137.3,62.6 136.9,62.4 136.3,61.8 
		135.8,61.7 135.2,61.9 135,61.9 134.9,61.7 134.9,61.4 135,61.2 135,61 134.7,60.6 134.3,60.5 133.5,60.7 133.3,60.6 132.9,60.1 
		132.7,60 132.6,59.9 132.4,59.9 130.8,60.3 130.5,60.5 130.3,60.9 130.1,61.9 129.9,62.3 129.9,62.4 129.9,62.5 129.9,62.8 
		129.9,62.9 129,63.6 126.6,63.5 125.5,64.2 125.3,64.3 123.2,64 122.1,64.2 121.4,64.1 121.1,64.2 118.6,64.8 118.3,65 117.8,66 
		117.7,66.1 117.3,66.2 117.2,66.3 117,66.6 117,66.7 117.1,66.8 117.2,67.1 117,68.2 117,68.7 117.1,69.2 117.6,69.7 118.3,70.2 
		117.8,70.3 117.4,70.5 117.1,70.7 116.5,71.3 116.1,71.6 115.6,71.6 115.1,71.5 114.4,71.2 113.6,71.2 110.1,71.6 108.7,72.1 
		108.1,72.2 105.9,72 100.9,72.3 99.4,71.9 98.3,71.3 98.1,71.1 98,70.8 97.6,70.5 97.3,70.3 97,70.1 96.8,70.1 96.6,70.2 
		96.5,70.2 96.2,70 95.6,69.1 95.5,69 95,68.9 94.9,68.9 94.7,68.7 92.9,66.3 92.3,65.9 91.2,65.7 90.3,65.4 89.7,65.3 89,65.7 
		87.9,66.6 88.1,66.8 88.1,67 88,67.2 88,67.4 87.9,67.4 87.8,67.5 87.7,67.6 87.8,67.7 87.9,67.7 87.9,67.8 88,67.8 87.9,68.3 
		87.8,68.6 87.6,68.9 87.3,69.1 86.7,69.2 86.5,69.4 86.5,69.6 86.6,69.7 87,69.9 87.1,70 87.3,70.5 87.4,70.7 87.2,71 87.2,71.4 
		87.3,71.9 87.3,72.8 87.4,73 87.6,73.2 87.8,73.4 87.4,73.5 86.3,73.6 84.9,74 84.2,73.8 84,73.2 83.7,73.4 83.4,73.9 83.2,74.1 
		83,74.2 82,74 81.8,73.9 81.6,73.7 81.5,73.4 81.4,73.2 81.3,72.9 81.1,72.8 79.7,72.2 79,72.1 78.3,72.4 78.2,72.7 78.3,73 
		78.2,73.2 78,73.4 77.3,73.8 77.1,74 77,74 76.9,74 76.8,73.9 76.7,73.8 76.6,73.9 76.3,74.3 76.1,74.5 76.5,74.7 77.4,75.1 
		77.9,75 79,75.5 79.6,75.4 80,75.5 80.3,76 80.5,76.5 80.4,77 80.7,77.2 80.9,77.4 81,77.7 81,78.1 80.8,78.5 80.3,78.7 80.1,78.9 
		80.2,79.9 79.3,80.6 77.4,81.5 77.2,81.2 76.9,81 76.7,81.1 76.5,81.4 76.6,82.4 76.5,82.5 76.5,82.5 76.4,82.6 76.4,82.8 
		76.4,82.9 76.5,82.9 76.6,82.9 76.6,83 77.2,84.1 77.2,84.5 77.1,84.9 76.9,85.1 76.3,85.4 76.4,85.8 76.1,86.4 76.2,86.8 
		76.3,86.9 76.6,86.9 76.7,87.1 76.7,87.3 76.5,87.7 76.5,87.9 76.8,88 77.4,87.7 77.7,87.7 77.9,88.1 77.8,88.4 77.4,88.9 77,89.1 
		76.9,89.5 77,89.8 77.4,89.9 77.6,90.1 77.7,90.2 77.6,90.3 77.4,90.5 76.6,90.8 76.4,91 76.9,91.1 77.1,91.1 77.4,91.4 77.5,91.7 
		77.1,91.8 76.7,91.8 76.4,91.8 76.3,91.9 76.2,91.9 76.1,91.9 76,91.8 75.7,91.6 75.4,91.5 74.6,91.6 74,91.5 73.7,91.5 73.6,91.8 
		73.5,92.2 73.4,92.3 73.2,92.3 73,92.5 73,92.7 73,92.8 73,92.9 72.9,93.1 72.7,93.2 72.4,93.4 71.9,93.7 71.7,93.9 71.1,94.8 
		70.9,95 70.6,95.1 71.3,95.3 73.7,95.1 73.9,95.2 74.2,95.6 74.3,95.7 74.6,95.7 74.7,95.9 74.6,96.1 74.5,96.4 74.4,96.7 
		74.2,97.1 74.1,97.4 74.2,97.5 74.4,98.2 74.6,98.4 74.8,98.7 74.9,98.9 75.2,98.9 75.2,99.3 75.4,99.4 75.7,99.4 76,99.6 
		76.1,100.1 75.9,100.3 75.6,100.5 75.4,100.7 75.5,101.1 75.9,101.3 76.5,101.7 77.1,102.6 77.7,103.1 77.9,104.2 78.1,104.3 
		78.8,104.8 79,105 79.2,105 79.2,104.8 79.3,104.7 79.5,104.7 79.6,104.8 80.1,104.9 80.5,105.2 80.8,105.6 81.1,106.1 81.4,106.5 
		81.9,106.8 82.2,107.3 82.3,107.3 82.4,106.9 82.5,107 83,107.1 83.1,107.2 83.2,107.2 83.3,107.3 83.3,107.4 83.4,107.5 
		83.5,107.4 83.5,107.3 83.6,107.3 83.8,107.5 84.1,107.9 84.3,108.3 84.2,108.7 84.5,109.6 84.6,109.7 84.7,109.8 85.4,110.6 
		85.8,111.4 86,111.6 86.9,112.4 87.1,112.6 87.2,112.9 87.4,113.1 88.2,113.7 88.5,113.8 89.9,113.9 90.1,114 90.8,114.9 
		90.9,115.2 91.1,116 91.2,116.2 91.3,116.6 91.6,116.8 91.9,116.8 92,117 91.9,117 91.7,117.1 91.5,117.2 91.5,117.3 91.8,117.4 
		92,117.6 92.2,117.7 92.3,117.3 92.5,117.8 92.4,118 92.5,118.1 92.8,118 93.3,117.9 93.4,118 93.6,118.4 93.6,118.3 93.7,118.2 
		93.8,118.2 93.9,118.1 95.4,118.1 96.1,118.3 96.8,118.6 97.6,119.5 97.8,119.7 97.8,119.9 97.9,120.3 97.9,120.6 98,120.9 
		98.1,121 98.5,121 100.6,121.6 101.1,122 101.4,122.6 101.4,122.7 101.6,122.7 101.7,122.5 101.8,122.3 102,122.2 103.5,122.2 
		105.3,122.7 105.5,122.7 105.7,122.7 106,122.5 106.2,122.4 107.6,122.4 108,122.5 108.5,122.9 108.9,122.9 109.2,123.2 
		109.5,123.4 109.8,123.2 110.1,123.1 110.4,123.1 110.7,123.5 110.8,123.5 111,123.5 111.2,123.4 111.5,123.2 112.1,122.4 
		112.4,122.2 112.8,122.4 113.2,122.2 114,121.6 114.2,121.3 114.6,120.6 114.9,120.3 114.9,120.3 114.9,120.1 115,119.8 115,119.7 
		115.4,119.3 115.8,119.3 116.7,119.6 117.4,119.9 117.6,120 117.8,119.9 117.8,119.7 117.9,119.4 118.1,119.2 118.3,119.4 
		118.5,119.4 118.8,119.2 119.1,119.1 119.3,119 119.5,118.8 119.8,118.7 119.9,118.7 120.9,118.8 121,118.8 121.2,119 121.3,118.9 
		121.3,118.9 121.3,118.8 121.3,118.8 121.3,118.7 121.2,118.6 121.1,118.5 121.1,118.4 121.1,118.3 121.2,118.2 121.6,118 
		121.8,118 122,118 122.4,117.9 122.4,117.2 122.6,116.7 123,116.5 123.4,116.7 123.6,117 123.7,117.2 123.8,117.2 124.1,117.4 
		125.6,117.5 126.1,117.5 126.1,117.4 126.3,117.2 126.3,117 126.4,116.9 126.5,116.5 126.7,116.3 126.8,116.3 127,116.2 
		127.1,116.2 127.8,116.2 128.1,116.1 128.3,115.9 128.4,115.7 128.5,115.5 128.5,115.4 128.7,115.3 128.9,115.3 129.1,115.2 
		129.4,115 129.5,114.8 129.6,114.7 129.6,114.6 129.6,114.6 129.7,114.5 129.9,114.4 130.2,114.2 130.1,114 130,113.9 130,113.8 
		130,113.8 130,113.6 130.2,113.4 130.3,113.3 130.5,113.2 130.7,113.1 131,112.9 131.1,112.9 131.2,112.8 131.4,112.8 131.8,112.8 
		132.8,112.6 133.2,112.6 133.6,112.7 134.4,113.3 135,113.6 135.3,113.7 137,113 137.6,112.9 137.7,112.9 138.9,113 139.6,113.4 
		139.8,113.4 140.1,113.3 140.4,113.2 140.6,113.1 140.7,113.1 140.8,113.1 141,113.1 141.1,113.2 141.1,113.2 141.3,113.4 
		141.4,113.5 141.4,113.5 141.5,113.5 141.9,113.3 142,113.3 142.3,113.5 143.2,114.3 143.9,113.4 146.8,113.3 147.2,112.6 
		147.9,112.7 148.6,113 149.1,113.5 149.3,113.6 149.5,113.7 149.6,113.7 150.6,113.5 151,113.3 151.3,113 151.3,112.8 151.4,112.4 
		151.4,112.2 151.6,112.2 151.7,112.3 151.9,112.3 152,112.2 152,112 151.9,111.4 151.9,111.1 151.9,111 152.6,110.4 153,110.2 
		153.3,110.1 153.7,110.1 153.8,110.2 154.2,110.5 154.4,110.6 154.5,110.5 154.8,110.4 154.9,110.4 155.2,110.4 155.9,110.7 
		156.2,110.7 156.4,110.7 156.5,110.7 156.7,110.7 156.8,110.9 157.1,111.2 157.4,111.1 158.2,110 158.4,110 158.9,110 159,109.8 
		159.2,109.4 159.4,109 159.4,107.8 159.6,107.3 159.9,106.9 160.2,106.8 161,106.8 161.4,106.5 161.3,105.9 160.8,105 160.8,104.4 
		161,104 161.3,103.7 161.6,103.2 161.6,102.2 161.7,101.7 162,101.4 162.4,101.3 163,101.4 163.4,101.2 163.7,100.7 163.9,100.3 
		164.1,100 164.6,99.9 164.9,99.7 165.2,99.2 165.3,98.7 164.8,98.4 164.8,98.4 164.8,98.3 164.7,98.2 164.7,98.1 164.8,97.9 
		164.8,97.8 164.9,97.7 165.3,96.6 165.5,96.2 165.9,95.8 166.5,95.7 166.7,95.5 166.9,95.2 166.9,94.9 166.8,94.6 166.8,94.3 
		166.8,94 166.8,94 166.9,93.9 167.7,93.3 167.9,93.1 168.2,91.8 168.3,91.8 168.3,91.8 168.1,91.5 168,91.4 167.8,91.4 167.6,91.3 
		167.6,91.1 168.3,90.3 168.7,89.9 169.5,89.3 169.9,89 170,88.7 170.1,88.3 170.1,88.1 170.3,87.8 170.7,87.4 170.9,87.2 171,86.9 
		171,86.7 170.9,86.5 170.9,86.2 171,85.9 171.2,85.5 171.3,85.3 171.5,84.3 171.6,84 172.3,83 172.6,82.7 172.9,82.5 173.7,82.2 
		174,81.5 174,80.7 173.9,79.8 173.8,79 174.2,78.3 174.7,77.8 175.8,76.9 176.6,76.7 176.9,76.5 176.9,76.4 177,76.2 177,76 
		177,75.8 177.4,75.2 177.5,74.9 177.6,74.5 177.6,74.3 177.8,74.1 178.1,73.8 178.2,73.7 178.6,73.1 178.8,72.9 179.1,72.8 
		179.4,72.7 179.6,72.6 180.4,72.8 180.7,72.7 180.9,72.7 181.1,72.4 181.4,71.4 181.9,71.2 183.2,71.9 183.8,72 184.5,71.9 
		185.1,71.7 185.6,71.2 186,70.7 186.3,70.5 186.6,70.3 187,70.3 187.1,70.2 187.2,69.9 187.2,69.7 187.1,69.5 187.1,69.3 187.3,69 
		187.6,68.8 188.3,68.5 188.6,68.3 189,67.4 189.3,67.1 188.7,66.6 	"/>
	<g>
		<path class="st1" d="M205,19.2h-0.7v-4.9l-2,4.9h-0.3l-2-4.9v4.9h-0.7v-6h1.1l1.9,4.5l1.9-4.5h1.1V19.2z"/>
		<path class="st1" d="M209.8,19.2h-0.7v-0.5c-0.4,0.4-0.8,0.6-1.4,0.6c-0.4,0-0.8-0.1-1.1-0.4c-0.3-0.3-0.5-0.6-0.5-1.1
			c0-0.5,0.2-0.8,0.5-1.1c0.3-0.2,0.7-0.4,1.1-0.4c0.6,0,1.1,0.2,1.4,0.6v-0.8c0-0.3-0.1-0.5-0.3-0.7s-0.5-0.2-0.8-0.2
			c-0.5,0-1,0.2-1.3,0.6l-0.3-0.5c0.5-0.5,1-0.7,1.7-0.7c0.5,0,0.9,0.1,1.2,0.4c0.3,0.2,0.5,0.6,0.5,1.1V19.2z M207.9,18.9
			c0.5,0,0.9-0.2,1.2-0.5v-0.8c-0.3-0.4-0.7-0.5-1.2-0.5c-0.3,0-0.6,0.1-0.8,0.3c-0.2,0.2-0.3,0.4-0.3,0.7c0,0.3,0.1,0.5,0.3,0.7
			C207.4,18.8,207.6,18.9,207.9,18.9z"/>
		<path class="st1" d="M213.1,19.3c-0.6,0-1.2-0.2-1.6-0.7c-0.4-0.4-0.6-1-0.6-1.6s0.2-1.2,0.6-1.6c0.4-0.4,0.9-0.6,1.6-0.6
			c0.7,0,1.2,0.3,1.6,0.8l-0.5,0.4c-0.3-0.4-0.6-0.6-1.1-0.6c-0.5,0-0.8,0.2-1.1,0.5c-0.3,0.3-0.4,0.7-0.4,1.2s0.1,0.9,0.4,1.2
			c0.3,0.3,0.6,0.5,1.1,0.5s0.8-0.2,1.1-0.6l0.5,0.4C214.3,19.1,213.7,19.3,213.1,19.3z"/>
		<path class="st1" d="M217.6,19.3c-0.6,0-1.2-0.2-1.6-0.6s-0.6-1-0.6-1.7c0-0.6,0.2-1.2,0.6-1.6c0.4-0.4,0.9-0.7,1.5-0.7
			c0.6,0,1.2,0.2,1.5,0.7c0.4,0.4,0.6,1,0.6,1.7v0.2h-3.5c0,0.4,0.2,0.8,0.5,1.1c0.3,0.3,0.6,0.4,1.1,0.4c0.5,0,1-0.2,1.3-0.5
			l0.3,0.4C218.9,19.1,218.3,19.3,217.6,19.3z M218.9,16.8c0-0.4-0.1-0.7-0.4-1s-0.6-0.4-1.1-0.4c-0.4,0-0.8,0.1-1,0.4
			c-0.2,0.3-0.4,0.6-0.4,1H218.9z"/>
		<path class="st1" d="M224.5,19.2h-0.7v-0.6c-0.4,0.5-0.9,0.8-1.5,0.8c-0.6,0-1-0.2-1.4-0.6c-0.4-0.4-0.5-1-0.5-1.7
			c0-0.7,0.2-1.2,0.5-1.7s0.8-0.6,1.4-0.6c0.6,0,1.1,0.3,1.5,0.8v-2.3h0.7V19.2z M222.5,18.7c0.3,0,0.5-0.1,0.8-0.2
			c0.2-0.1,0.4-0.3,0.5-0.5v-2c-0.1-0.2-0.3-0.4-0.6-0.5c-0.2-0.1-0.5-0.2-0.8-0.2c-0.4,0-0.8,0.2-1,0.5c-0.3,0.3-0.4,0.7-0.4,1.2
			s0.1,0.9,0.4,1.2C221.8,18.6,222.1,18.7,222.5,18.7z"/>
		<path class="st1" d="M229.3,18.7c-0.4,0.4-0.9,0.7-1.6,0.7c-0.6,0-1.2-0.2-1.6-0.7c-0.4-0.4-0.6-1-0.6-1.6s0.2-1.2,0.6-1.6
			c0.4-0.4,0.9-0.7,1.6-0.7c0.6,0,1.2,0.2,1.6,0.7c0.4,0.4,0.6,1,0.6,1.6S229.7,18.2,229.3,18.7z M226.7,18.2
			c0.3,0.3,0.6,0.5,1.1,0.5c0.4,0,0.8-0.2,1.1-0.5s0.4-0.7,0.4-1.2s-0.1-0.9-0.4-1.2c-0.3-0.3-0.6-0.5-1.1-0.5
			c-0.4,0-0.8,0.2-1.1,0.5c-0.3,0.3-0.4,0.7-0.4,1.2C226.3,17.5,226.4,17.9,226.7,18.2z"/>
		<path class="st1" d="M234.6,19.2h-0.7v-2.8c0-0.4-0.1-0.6-0.3-0.8c-0.2-0.2-0.4-0.2-0.7-0.2c-0.3,0-0.5,0.1-0.7,0.2
			c-0.2,0.1-0.4,0.3-0.6,0.5v3.2H231v-4.3h0.7v0.6c0.2-0.2,0.4-0.4,0.7-0.5c0.3-0.1,0.6-0.2,0.9-0.2c0.9,0,1.4,0.5,1.4,1.4V19.2z"/>
		<path class="st1" d="M236.3,14.3c-0.1,0-0.2,0-0.3-0.1c-0.1-0.1-0.1-0.2-0.1-0.3s0-0.2,0.1-0.3c0.1-0.1,0.2-0.1,0.3-0.1
			c0.1,0,0.2,0,0.3,0.1c0.1,0.1,0.1,0.2,0.1,0.3s0,0.2-0.1,0.3C236.5,14.2,236.4,14.3,236.3,14.3z M236.6,19.2H236v-4.3h0.7V19.2z"
			/>
		<path class="st1" d="M241.4,19.2h-0.7v-0.5c-0.4,0.4-0.8,0.6-1.4,0.6c-0.4,0-0.8-0.1-1.1-0.4c-0.3-0.3-0.5-0.6-0.5-1.1
			c0-0.5,0.2-0.8,0.5-1.1c0.3-0.2,0.7-0.4,1.1-0.4c0.6,0,1.1,0.2,1.4,0.6v-0.8c0-0.3-0.1-0.5-0.3-0.7c-0.2-0.2-0.5-0.2-0.8-0.2
			c-0.5,0-1,0.2-1.3,0.6l-0.3-0.5c0.5-0.5,1-0.7,1.7-0.7c0.5,0,0.9,0.1,1.2,0.4s0.5,0.6,0.5,1.1V19.2z M239.5,18.9
			c0.5,0,0.9-0.2,1.2-0.5v-0.8c-0.3-0.4-0.7-0.5-1.2-0.5c-0.3,0-0.6,0.1-0.8,0.3c-0.2,0.2-0.3,0.4-0.3,0.7c0,0.3,0.1,0.5,0.3,0.7
			C238.9,18.8,239.2,18.9,239.5,18.9z"/>
	</g>
	<g>
		<path class="st1" d="M201.9,60.7h-2.7v-6h2.7c0.5,0,0.9,0.1,1.2,0.4c0.3,0.3,0.5,0.7,0.5,1.1c0,0.4-0.1,0.7-0.3,0.9
			c-0.2,0.2-0.5,0.4-0.7,0.5c0.3,0,0.6,0.2,0.8,0.5s0.3,0.6,0.3,1c0,0.5-0.2,0.9-0.5,1.2S202.4,60.7,201.9,60.7z M201.7,57.3
			c0.3,0,0.6-0.1,0.8-0.3s0.3-0.4,0.3-0.7c0-0.3-0.1-0.5-0.3-0.7c-0.2-0.2-0.4-0.3-0.8-0.3h-1.8v1.9H201.7z M201.7,60
			c0.3,0,0.6-0.1,0.8-0.3c0.2-0.2,0.3-0.4,0.3-0.8c0-0.3-0.1-0.5-0.3-0.7c-0.2-0.2-0.5-0.3-0.8-0.3h-1.8V60H201.7z"/>
		<path class="st1" d="M208.2,60.7h-0.7v-0.5c-0.4,0.4-0.8,0.6-1.4,0.6c-0.4,0-0.8-0.1-1.1-0.4c-0.3-0.3-0.5-0.6-0.5-1.1
			c0-0.5,0.2-0.8,0.5-1.1c0.3-0.2,0.7-0.4,1.1-0.4c0.6,0,1.1,0.2,1.4,0.6v-0.8c0-0.3-0.1-0.5-0.3-0.7c-0.2-0.2-0.5-0.2-0.8-0.2
			c-0.5,0-1,0.2-1.3,0.6l-0.3-0.5c0.5-0.5,1-0.7,1.7-0.7c0.5,0,0.9,0.1,1.2,0.4s0.5,0.6,0.5,1.1V60.7z M206.3,60.3
			c0.5,0,0.9-0.2,1.2-0.5V59c-0.3-0.4-0.7-0.5-1.2-0.5c-0.3,0-0.6,0.1-0.8,0.3c-0.2,0.2-0.3,0.4-0.3,0.7c0,0.3,0.1,0.5,0.3,0.7
			C205.7,60.2,206,60.3,206.3,60.3z"/>
		<path class="st1" d="M213.1,60.7h-0.7v-2.8c0-0.4-0.1-0.6-0.3-0.8c-0.2-0.2-0.4-0.2-0.7-0.2c-0.3,0-0.5,0.1-0.7,0.2
			c-0.2,0.1-0.4,0.3-0.6,0.5v3.2h-0.7v-4.3h0.7V57c0.2-0.2,0.4-0.4,0.7-0.5c0.3-0.1,0.6-0.2,0.9-0.2c0.9,0,1.4,0.5,1.4,1.4V60.7z"/>
		<path class="st1" d="M216.2,62.5c-0.4,0-0.7,0-1-0.1c-0.3-0.1-0.5-0.3-0.8-0.5l0.3-0.5c0.3,0.4,0.8,0.6,1.4,0.6
			c0.4,0,0.7-0.1,1-0.3c0.3-0.2,0.4-0.5,0.4-1V60c-0.2,0.2-0.4,0.4-0.6,0.6c-0.3,0.1-0.5,0.2-0.8,0.2c-0.6,0-1-0.2-1.4-0.6
			c-0.4-0.4-0.5-1-0.5-1.6c0-0.7,0.2-1.2,0.5-1.6s0.8-0.6,1.4-0.6c0.6,0,1.1,0.3,1.5,0.8v-0.7h0.7v4.2c0,0.7-0.2,1.1-0.6,1.4
			C217.3,62.3,216.8,62.5,216.2,62.5z M216.3,60.2c0.3,0,0.5-0.1,0.8-0.2c0.2-0.1,0.4-0.3,0.5-0.5v-1.9c-0.1-0.2-0.3-0.4-0.5-0.5
			s-0.5-0.2-0.8-0.2c-0.4,0-0.8,0.2-1,0.5c-0.2,0.3-0.4,0.7-0.4,1.2c0,0.5,0.1,0.9,0.4,1.2C215.6,60,215.9,60.2,216.3,60.2z"/>
		<path class="st1" d="M220.3,60.7h-0.7v-6h0.7V60.7z"/>
		<path class="st1" d="M225.1,60.7h-0.7v-0.5c-0.4,0.4-0.8,0.6-1.4,0.6c-0.4,0-0.8-0.1-1.1-0.4c-0.3-0.3-0.5-0.6-0.5-1.1
			c0-0.5,0.2-0.8,0.5-1.1c0.3-0.2,0.7-0.4,1.1-0.4c0.6,0,1.1,0.2,1.4,0.6v-0.8c0-0.3-0.1-0.5-0.3-0.7s-0.5-0.2-0.8-0.2
			c-0.5,0-1,0.2-1.3,0.6l-0.3-0.5c0.5-0.5,1-0.7,1.7-0.7c0.5,0,0.9,0.1,1.2,0.4c0.3,0.2,0.5,0.6,0.5,1.1V60.7z M223.2,60.3
			c0.5,0,0.9-0.2,1.2-0.5V59c-0.3-0.4-0.7-0.5-1.2-0.5c-0.3,0-0.6,0.1-0.8,0.3c-0.2,0.2-0.3,0.4-0.3,0.7c0,0.3,0.1,0.5,0.3,0.7
			C222.6,60.2,222.9,60.3,223.2,60.3z"/>
		<path class="st1" d="M230.3,60.7h-0.7V60c-0.4,0.5-0.9,0.8-1.5,0.8c-0.6,0-1-0.2-1.4-0.6c-0.4-0.4-0.5-1-0.5-1.7
			c0-0.7,0.2-1.2,0.5-1.7c0.4-0.4,0.8-0.6,1.4-0.6c0.6,0,1.1,0.3,1.5,0.8v-2.3h0.7V60.7z M228.3,60.2c0.3,0,0.5-0.1,0.8-0.2
			c0.2-0.1,0.4-0.3,0.5-0.5v-2c-0.1-0.2-0.3-0.4-0.6-0.5s-0.5-0.2-0.8-0.2c-0.4,0-0.8,0.2-1,0.5c-0.3,0.3-0.4,0.7-0.4,1.2
			s0.1,0.9,0.4,1.2C227.5,60,227.8,60.2,228.3,60.2z"/>
		<path class="st1" d="M233.6,60.8c-0.6,0-1.2-0.2-1.6-0.6s-0.6-1-0.6-1.7c0-0.6,0.2-1.2,0.6-1.6c0.4-0.4,0.9-0.7,1.5-0.7
			c0.6,0,1.2,0.2,1.5,0.7c0.4,0.4,0.6,1,0.6,1.7v0.2h-3.5c0,0.4,0.2,0.8,0.5,1.1c0.3,0.3,0.6,0.4,1.1,0.4c0.5,0,1-0.2,1.3-0.5
			l0.3,0.4C234.8,60.6,234.3,60.8,233.6,60.8z M234.9,58.2c0-0.4-0.1-0.7-0.4-1s-0.6-0.4-1.1-0.4c-0.4,0-0.8,0.1-1,0.4
			c-0.2,0.3-0.4,0.6-0.4,1H234.9z"/>
		<path class="st1" d="M238,60.8c-0.7,0-1.3-0.2-1.8-0.7l0.4-0.5c0.1,0.2,0.4,0.3,0.6,0.4c0.3,0.1,0.5,0.2,0.8,0.2
			c0.3,0,0.6-0.1,0.8-0.2c0.2-0.1,0.3-0.3,0.3-0.5c0-0.2-0.1-0.3-0.3-0.5c-0.2-0.1-0.4-0.2-0.7-0.3c-0.3-0.1-0.5-0.1-0.8-0.2
			c-0.3-0.1-0.5-0.2-0.7-0.4c-0.2-0.2-0.3-0.4-0.3-0.7c0-0.4,0.1-0.7,0.4-0.9s0.7-0.4,1.2-0.4c0.7,0,1.2,0.2,1.6,0.6l-0.3,0.5
			c-0.3-0.4-0.7-0.5-1.3-0.5c-0.3,0-0.5,0.1-0.7,0.2c-0.2,0.1-0.3,0.3-0.3,0.5c0,0.2,0.1,0.3,0.3,0.4c0.2,0.1,0.4,0.2,0.7,0.2
			c0.3,0.1,0.5,0.1,0.8,0.2c0.3,0.1,0.5,0.2,0.7,0.4c0.2,0.2,0.3,0.4,0.3,0.8c0,0.4-0.2,0.7-0.5,0.9S238.6,60.8,238,60.8z"/>
		<path class="st1" d="M244.5,60.7h-0.7v-2.9c0-0.4-0.1-0.6-0.3-0.8c-0.2-0.1-0.4-0.2-0.7-0.2c-0.2,0-0.5,0.1-0.7,0.2
			c-0.2,0.1-0.4,0.3-0.6,0.5v3.2h-0.7v-6h0.7V57c0.2-0.2,0.4-0.4,0.7-0.5c0.3-0.1,0.6-0.2,0.9-0.2c0.9,0,1.4,0.5,1.4,1.4V60.7z"/>
	</g>
	<g>
		<path class="st1" d="M202,90.5c-0.9,0-1.6-0.3-2.2-0.9c-0.6-0.6-0.9-1.3-0.9-2.2s0.3-1.7,0.9-2.2c0.6-0.6,1.3-0.9,2.2-0.9
			c1,0,1.7,0.4,2.3,1.2l-0.6,0.4c-0.2-0.3-0.4-0.5-0.7-0.6S202.3,85,202,85c-0.7,0-1.2,0.2-1.7,0.7c-0.4,0.5-0.7,1-0.7,1.8
			s0.2,1.3,0.7,1.8c0.4,0.5,1,0.7,1.7,0.7c0.3,0,0.7-0.1,0.9-0.2c0.3-0.2,0.5-0.4,0.7-0.6l0.6,0.4C203.7,90.1,202.9,90.5,202,90.5z"
			/>
		<path class="st1" d="M208.7,89.9c-0.4,0.4-0.9,0.7-1.6,0.7c-0.6,0-1.2-0.2-1.6-0.7c-0.4-0.4-0.6-1-0.6-1.6s0.2-1.2,0.6-1.6
			c0.4-0.4,0.9-0.7,1.6-0.7c0.6,0,1.2,0.2,1.6,0.7c0.4,0.4,0.6,1,0.6,1.6S209.1,89.4,208.7,89.9z M206.1,89.4
			c0.3,0.3,0.6,0.5,1.1,0.5c0.4,0,0.8-0.2,1.1-0.5s0.4-0.7,0.4-1.2s-0.1-0.9-0.4-1.2c-0.3-0.3-0.6-0.5-1.1-0.5
			c-0.4,0-0.8,0.2-1.1,0.5c-0.3,0.3-0.4,0.7-0.4,1.2C205.7,88.7,205.8,89.1,206.1,89.4z"/>
		<path class="st1" d="M214,90.4h-0.7v-2.8c0-0.4-0.1-0.6-0.3-0.8c-0.2-0.2-0.4-0.2-0.7-0.2c-0.3,0-0.5,0.1-0.7,0.2
			c-0.2,0.1-0.4,0.3-0.6,0.5v3.2h-0.7v-4.3h0.7v0.6c0.2-0.2,0.4-0.4,0.7-0.5c0.3-0.1,0.6-0.2,0.9-0.2c0.9,0,1.4,0.5,1.4,1.4V90.4z"
			/>
		<path class="st1" d="M217.1,92.2c-0.4,0-0.7,0-1-0.1c-0.3-0.1-0.5-0.3-0.8-0.5l0.3-0.5c0.3,0.4,0.8,0.6,1.4,0.6
			c0.4,0,0.7-0.1,1-0.3s0.4-0.5,0.4-1v-0.6c-0.2,0.2-0.4,0.4-0.6,0.6c-0.3,0.1-0.5,0.2-0.8,0.2c-0.6,0-1-0.2-1.4-0.6
			c-0.4-0.4-0.5-1-0.5-1.6c0-0.7,0.2-1.2,0.5-1.6c0.4-0.4,0.8-0.6,1.4-0.6c0.6,0,1.1,0.3,1.5,0.8v-0.7h0.7v4.2
			c0,0.7-0.2,1.1-0.6,1.4C218.2,92,217.7,92.2,217.1,92.2z M217.2,89.9c0.3,0,0.5-0.1,0.8-0.2c0.2-0.1,0.4-0.3,0.5-0.5v-1.9
			c-0.1-0.2-0.3-0.4-0.5-0.5s-0.5-0.2-0.8-0.2c-0.4,0-0.8,0.2-1,0.5c-0.2,0.3-0.4,0.7-0.4,1.2c0,0.5,0.1,0.9,0.4,1.2
			C216.4,89.7,216.7,89.9,217.2,89.9z"/>
		<path class="st1" d="M223.9,89.9c-0.4,0.4-0.9,0.7-1.6,0.7c-0.6,0-1.2-0.2-1.6-0.7c-0.4-0.4-0.6-1-0.6-1.6s0.2-1.2,0.6-1.6
			c0.4-0.4,0.9-0.7,1.6-0.7c0.6,0,1.2,0.2,1.6,0.7c0.4,0.4,0.6,1,0.6,1.6S224.3,89.4,223.9,89.9z M221.3,89.4
			c0.3,0.3,0.6,0.5,1.1,0.5s0.8-0.2,1.1-0.5s0.4-0.7,0.4-1.2s-0.1-0.9-0.4-1.2c-0.3-0.3-0.6-0.5-1.1-0.5s-0.8,0.2-1.1,0.5
			c-0.3,0.3-0.4,0.7-0.4,1.2C220.9,88.7,221.1,89.1,221.3,89.4z"/>
	</g>
	<g>
		<path class="st1" d="M203.7,121.3h-0.9l-2.3-2.7l-0.6,0.7v2h-0.7v-6h0.7v3.1l2.7-3.1h0.9l-2.5,2.9L203.7,121.3z"/>
		<path class="st1" d="M207.7,120.8c-0.4,0.4-0.9,0.7-1.6,0.7c-0.6,0-1.2-0.2-1.6-0.7c-0.4-0.4-0.6-1-0.6-1.6s0.2-1.2,0.6-1.6
			c0.4-0.4,0.9-0.7,1.6-0.7c0.6,0,1.2,0.2,1.6,0.7c0.4,0.4,0.6,1,0.6,1.6S208.1,120.3,207.7,120.8z M205.1,120.3
			c0.3,0.3,0.6,0.5,1.1,0.5s0.8-0.2,1.1-0.5s0.4-0.7,0.4-1.2s-0.1-0.9-0.4-1.2c-0.3-0.3-0.6-0.5-1.1-0.5s-0.8,0.2-1.1,0.5
			c-0.3,0.3-0.4,0.7-0.4,1.2C204.7,119.6,204.8,120,205.1,120.3z"/>
		<path class="st1" d="M210.8,121.4c-0.7,0-1.3-0.2-1.8-0.7l0.4-0.5c0.2,0.2,0.4,0.3,0.6,0.4c0.3,0.1,0.5,0.2,0.8,0.2
			c0.3,0,0.6-0.1,0.8-0.2c0.2-0.1,0.3-0.3,0.3-0.5c0-0.2-0.1-0.3-0.3-0.5c-0.2-0.1-0.4-0.2-0.7-0.3c-0.3-0.1-0.5-0.1-0.8-0.2
			c-0.3-0.1-0.5-0.2-0.7-0.4c-0.2-0.2-0.3-0.4-0.3-0.7c0-0.4,0.1-0.7,0.4-0.9s0.7-0.4,1.2-0.4c0.7,0,1.2,0.2,1.6,0.6L212,118
			c-0.3-0.4-0.7-0.5-1.3-0.5c-0.3,0-0.5,0.1-0.7,0.2s-0.3,0.3-0.3,0.5c0,0.2,0.1,0.3,0.3,0.4c0.2,0.1,0.4,0.2,0.7,0.2
			c0.3,0.1,0.5,0.1,0.8,0.2s0.5,0.2,0.7,0.4c0.2,0.2,0.3,0.4,0.3,0.8c0,0.4-0.2,0.7-0.5,0.9C211.7,121.3,211.3,121.4,210.8,121.4z"
			/>
		<path class="st1" d="M217,120.8c-0.4,0.4-0.9,0.7-1.6,0.7s-1.2-0.2-1.6-0.7c-0.4-0.4-0.6-1-0.6-1.6s0.2-1.2,0.6-1.6
			c0.4-0.4,0.9-0.7,1.6-0.7s1.2,0.2,1.6,0.7c0.4,0.4,0.6,1,0.6,1.6S217.4,120.3,217,120.8z M214.4,120.3c0.3,0.3,0.6,0.5,1.1,0.5
			c0.4,0,0.8-0.2,1.1-0.5s0.4-0.7,0.4-1.2s-0.1-0.9-0.4-1.2c-0.3-0.3-0.6-0.5-1.1-0.5c-0.4,0-0.8,0.2-1.1,0.5s-0.4,0.7-0.4,1.2
			C214,119.6,214.1,120,214.4,120.3z"/>
		<path class="st1" d="M220.6,121.3h-0.7l-1.8-4.3h0.7l1.4,3.6l1.4-3.6h0.7L220.6,121.3z"/>
		<path class="st1" d="M226.6,120.8c-0.4,0.4-0.9,0.7-1.6,0.7c-0.6,0-1.2-0.2-1.6-0.7c-0.4-0.4-0.6-1-0.6-1.6s0.2-1.2,0.6-1.6
			c0.4-0.4,0.9-0.7,1.6-0.7c0.6,0,1.2,0.2,1.6,0.7c0.4,0.4,0.6,1,0.6,1.6S227,120.3,226.6,120.8z M224,120.3
			c0.3,0.3,0.6,0.5,1.1,0.5s0.8-0.2,1.1-0.5s0.4-0.7,0.4-1.2s-0.1-0.9-0.4-1.2c-0.3-0.3-0.6-0.5-1.1-0.5s-0.8,0.2-1.1,0.5
			c-0.3,0.3-0.4,0.7-0.4,1.2C223.6,119.6,223.7,120,224,120.3z"/>
	</g>
	<g>
		<path class="st1" d="M27.3,31.4h-0.7v-6H29c0.6,0,1,0.2,1.4,0.5c0.3,0.3,0.5,0.8,0.5,1.3s-0.2,0.9-0.5,1.3S29.6,29,29,29h-1.7
			V31.4z M28.9,28.3c0.4,0,0.6-0.1,0.9-0.3c0.2-0.2,0.3-0.5,0.3-0.8s-0.1-0.6-0.3-0.8c-0.2-0.2-0.5-0.3-0.9-0.3h-1.6v2.3H28.9z"/>
		<path class="st1" d="M35.1,31.4h-0.7v-0.5c-0.4,0.4-0.8,0.6-1.4,0.6c-0.4,0-0.8-0.1-1.1-0.4c-0.3-0.3-0.5-0.6-0.5-1.1
			c0-0.5,0.2-0.8,0.5-1.1c0.3-0.2,0.7-0.4,1.1-0.4c0.6,0,1.1,0.2,1.4,0.6v-0.8c0-0.3-0.1-0.5-0.3-0.7c-0.2-0.2-0.5-0.2-0.8-0.2
			c-0.5,0-1,0.2-1.3,0.6l-0.3-0.5c0.5-0.5,1-0.7,1.7-0.7c0.5,0,0.9,0.1,1.2,0.4c0.3,0.2,0.5,0.6,0.5,1.1V31.4z M33.2,31
			c0.5,0,0.9-0.2,1.2-0.5v-0.8c-0.3-0.4-0.7-0.5-1.2-0.5c-0.3,0-0.6,0.1-0.8,0.3s-0.3,0.4-0.3,0.7c0,0.3,0.1,0.5,0.3,0.7
			S32.9,31,33.2,31z"/>
		<path class="st1" d="M37.1,31.4h-0.7v-6h0.7V31.4z"/>
		<path class="st1" d="M40.4,31.5c-0.6,0-1.2-0.2-1.6-0.6c-0.4-0.4-0.6-1-0.6-1.7c0-0.6,0.2-1.2,0.6-1.6c0.4-0.4,0.9-0.7,1.5-0.7
			c0.6,0,1.2,0.2,1.5,0.7c0.4,0.4,0.6,1,0.6,1.7v0.2h-3.5c0,0.4,0.2,0.8,0.5,1.1c0.3,0.3,0.6,0.4,1.1,0.4c0.5,0,1-0.2,1.3-0.5
			l0.3,0.4C41.7,31.2,41.1,31.5,40.4,31.5z M41.7,28.9c0-0.4-0.1-0.7-0.4-1c-0.2-0.3-0.6-0.4-1.1-0.4c-0.4,0-0.8,0.1-1,0.4
			c-0.2,0.3-0.4,0.6-0.4,1H41.7z"/>
		<path class="st1" d="M44.9,31.5c-0.7,0-1.3-0.2-1.8-0.7l0.4-0.5c0.2,0.2,0.4,0.3,0.6,0.4c0.3,0.1,0.5,0.2,0.8,0.2
			c0.3,0,0.6-0.1,0.8-0.2c0.2-0.1,0.3-0.3,0.3-0.5c0-0.2-0.1-0.3-0.3-0.5s-0.4-0.2-0.7-0.3c-0.3-0.1-0.5-0.1-0.8-0.2
			c-0.3-0.1-0.5-0.2-0.7-0.4c-0.2-0.2-0.3-0.4-0.3-0.7c0-0.4,0.1-0.7,0.4-0.9c0.3-0.2,0.7-0.4,1.2-0.4c0.7,0,1.2,0.2,1.6,0.6
			L46.2,28c-0.3-0.4-0.7-0.5-1.3-0.5c-0.3,0-0.5,0.1-0.7,0.2s-0.3,0.3-0.3,0.5c0,0.2,0.1,0.3,0.3,0.4c0.2,0.1,0.4,0.2,0.7,0.2
			c0.3,0.1,0.5,0.1,0.8,0.2s0.5,0.2,0.7,0.4s0.3,0.4,0.3,0.8c0,0.4-0.2,0.7-0.5,0.9C45.8,31.3,45.4,31.5,44.9,31.5z"/>
		<path class="st1" d="M48.8,31.5c-0.3,0-0.6-0.1-0.7-0.3s-0.2-0.4-0.2-0.8v-2.8h-0.7V27h0.7v-1.2h0.7V27h0.9v0.6h-0.9v2.7
			c0,0.2,0,0.3,0.1,0.4c0.1,0.1,0.2,0.2,0.3,0.2c0.2,0,0.4-0.1,0.5-0.2l0.2,0.5C49.4,31.4,49.1,31.5,48.8,31.5z"/>
		<path class="st1" d="M50.7,26.4c-0.1,0-0.2,0-0.3-0.1c-0.1-0.1-0.1-0.2-0.1-0.3s0-0.2,0.1-0.3c0.1-0.1,0.2-0.1,0.3-0.1
			c0.1,0,0.2,0,0.3,0.1s0.1,0.2,0.1,0.3s0,0.2-0.1,0.3S50.8,26.4,50.7,26.4z M51,31.4h-0.7V27H51V31.4z"/>
		<path class="st1" d="M56,31.4h-0.7v-2.8c0-0.4-0.1-0.6-0.3-0.8c-0.2-0.2-0.4-0.2-0.7-0.2c-0.3,0-0.5,0.1-0.7,0.2
			c-0.2,0.1-0.4,0.3-0.6,0.5v3.2h-0.7V27H53v0.6c0.2-0.2,0.4-0.4,0.7-0.5c0.3-0.1,0.6-0.2,0.9-0.2c0.9,0,1.4,0.5,1.4,1.4V31.4z"/>
		<path class="st1" d="M59.3,31.5c-0.6,0-1.2-0.2-1.6-0.6c-0.4-0.4-0.6-1-0.6-1.7c0-0.6,0.2-1.2,0.6-1.6c0.4-0.4,0.9-0.7,1.5-0.7
			c0.6,0,1.2,0.2,1.5,0.7c0.4,0.4,0.6,1,0.6,1.7v0.2h-3.5c0,0.4,0.2,0.8,0.5,1.1c0.3,0.3,0.6,0.4,1.1,0.4c0.5,0,1-0.2,1.3-0.5
			l0.3,0.4C60.6,31.2,60,31.5,59.3,31.5z M60.6,28.9c0-0.4-0.1-0.7-0.4-1c-0.2-0.3-0.6-0.4-1.1-0.4c-0.4,0-0.8,0.1-1,0.4
			c-0.2,0.3-0.4,0.6-0.4,1H60.6z"/>
	</g>
	<g>
		<path class="st1" d="M124.6,19.3h-0.7v-6h0.7V19.3z"/>
		<path class="st1" d="M126.7,19.3H126V15h0.7v0.7c0.4-0.5,0.9-0.8,1.4-0.8v0.7c-0.1,0-0.2,0-0.3,0c-0.2,0-0.4,0.1-0.7,0.2
			c-0.2,0.1-0.4,0.3-0.5,0.5V19.3z"/>
		<path class="st1" d="M132.3,19.3h-0.7v-0.5c-0.4,0.4-0.8,0.6-1.4,0.6c-0.4,0-0.8-0.1-1.1-0.4c-0.3-0.3-0.5-0.6-0.5-1.1
			c0-0.5,0.2-0.8,0.5-1.1c0.3-0.2,0.7-0.4,1.1-0.4c0.6,0,1.1,0.2,1.4,0.6v-0.8c0-0.3-0.1-0.5-0.3-0.7c-0.2-0.2-0.5-0.2-0.8-0.2
			c-0.5,0-1,0.2-1.3,0.6l-0.3-0.5c0.5-0.5,1-0.7,1.7-0.7c0.5,0,0.9,0.1,1.2,0.4s0.5,0.6,0.5,1.1V19.3z M130.5,18.9
			c0.5,0,0.9-0.2,1.2-0.5v-0.8c-0.3-0.4-0.7-0.5-1.2-0.5c-0.3,0-0.6,0.1-0.8,0.3s-0.3,0.4-0.3,0.7c0,0.3,0.1,0.5,0.3,0.7
			C129.9,18.8,130.2,18.9,130.5,18.9z"/>
		<path class="st1" d="M135.4,19.4c-0.6,0-1-0.2-1.4-0.6s-0.5-1-0.5-1.7c0-0.7,0.2-1.2,0.5-1.7c0.4-0.4,0.8-0.6,1.4-0.6
			c0.3,0,0.6,0.1,0.8,0.2s0.5,0.3,0.6,0.5V15h0.7v6h-0.7v-2.3C136.4,19.2,136,19.4,135.4,19.4z M135.5,18.8c0.3,0,0.5-0.1,0.8-0.2
			c0.2-0.1,0.4-0.3,0.5-0.5v-2c-0.1-0.2-0.3-0.4-0.5-0.5c-0.2-0.1-0.5-0.2-0.8-0.2c-0.4,0-0.8,0.2-1,0.5c-0.2,0.3-0.4,0.7-0.4,1.2
			c0,0.5,0.1,0.9,0.4,1.2C134.8,18.7,135.1,18.8,135.5,18.8z"/>
	</g>
	<g>
		<path class="st1" d="M45,146.4c-1,0-1.7-0.3-2.3-1l0.4-0.6c0.5,0.6,1.1,0.9,1.9,0.9c0.5,0,0.8-0.1,1.1-0.3
			c0.2-0.2,0.3-0.4,0.3-0.7c0-0.2-0.1-0.4-0.2-0.5c-0.1-0.1-0.3-0.3-0.5-0.3c-0.2-0.1-0.4-0.2-0.7-0.2c-0.3-0.1-0.5-0.1-0.8-0.2
			c-0.3-0.1-0.5-0.2-0.7-0.3c-0.2-0.1-0.4-0.3-0.5-0.5c-0.1-0.2-0.2-0.5-0.2-0.7c0-0.5,0.2-0.9,0.6-1.2c0.4-0.3,0.9-0.5,1.5-0.5
			c0.9,0,1.6,0.3,2.1,0.8l-0.5,0.5c-0.4-0.5-1-0.7-1.7-0.7c-0.4,0-0.7,0.1-0.9,0.3c-0.2,0.2-0.3,0.4-0.3,0.7c0,0.2,0.1,0.4,0.3,0.5
			c0.2,0.1,0.4,0.2,0.7,0.3c0.3,0.1,0.5,0.1,0.9,0.2s0.6,0.2,0.9,0.3c0.3,0.1,0.5,0.3,0.7,0.5c0.2,0.2,0.3,0.5,0.3,0.9
			c0,0.5-0.2,0.9-0.5,1.3C46.3,146.3,45.7,146.4,45,146.4z"/>
		<path class="st1" d="M48,148l0.1-0.6c0.1,0,0.2,0.1,0.4,0.1c0.2,0,0.3,0,0.4-0.1c0.1-0.1,0.2-0.2,0.3-0.4l0.3-0.7l-1.8-4.4h0.7
			l1.4,3.6l1.4-3.6h0.7l-2.2,5.2c-0.2,0.6-0.7,0.9-1.3,0.9C48.3,148.1,48.1,148.1,48,148z"/>
		<path class="st1" d="M53.3,146.3h-0.7V142h0.7v0.7c0.4-0.5,0.9-0.8,1.4-0.8v0.7c-0.1,0-0.2,0-0.3,0c-0.2,0-0.4,0.1-0.7,0.2
			c-0.2,0.1-0.4,0.3-0.5,0.5V146.3z"/>
		<path class="st1" d="M55.9,141.4c-0.1,0-0.2,0-0.3-0.1s-0.1-0.2-0.1-0.3s0-0.2,0.1-0.3s0.2-0.1,0.3-0.1c0.1,0,0.2,0,0.3,0.1
			s0.1,0.2,0.1,0.3s0,0.2-0.1,0.3S56.1,141.4,55.9,141.4z M56.3,146.3h-0.7V142h0.7V146.3z"/>
		<path class="st1" d="M61,146.3h-0.7v-0.5c-0.4,0.4-0.8,0.6-1.4,0.6c-0.4,0-0.8-0.1-1.1-0.4c-0.3-0.3-0.5-0.6-0.5-1.1
			c0-0.5,0.2-0.8,0.5-1.1c0.3-0.2,0.7-0.4,1.1-0.4c0.6,0,1.1,0.2,1.4,0.6v-0.8c0-0.3-0.1-0.5-0.3-0.7c-0.2-0.2-0.5-0.2-0.8-0.2
			c-0.5,0-1,0.2-1.3,0.6l-0.3-0.5c0.5-0.5,1-0.7,1.7-0.7c0.5,0,0.9,0.1,1.2,0.4c0.3,0.2,0.5,0.6,0.5,1.1V146.3z M59.2,146
			c0.5,0,0.9-0.2,1.2-0.5v-0.8c-0.3-0.4-0.7-0.5-1.2-0.5c-0.3,0-0.6,0.1-0.8,0.3c-0.2,0.2-0.3,0.4-0.3,0.7c0,0.3,0.1,0.5,0.3,0.7
			S58.8,146,59.2,146z"/>
	</g>
	<g>
		<path class="st1" d="M20.8,60.2h-0.9l-0.5-1.3h-3l-0.5,1.3H15l2.4-6h0.9L20.8,60.2z M19.2,58.2L17.9,55l-1.3,3.2H19.2z"/>
		<path class="st1" d="M22.3,60.2h-0.7v-3.8h-0.7v-0.6h0.7v-0.3c0-0.4,0.1-0.8,0.3-1c0.2-0.2,0.5-0.4,0.9-0.4c0.4,0,0.7,0.1,0.9,0.3
			l-0.3,0.4c-0.2-0.1-0.3-0.2-0.5-0.2c-0.2,0-0.4,0.1-0.5,0.2c-0.1,0.1-0.2,0.4-0.2,0.6v0.3h0.9v0.6h-0.9V60.2z"/>
		<path class="st1" d="M25.7,62c-0.4,0-0.7,0-1-0.1c-0.3-0.1-0.5-0.3-0.8-0.5l0.3-0.5c0.3,0.4,0.8,0.6,1.4,0.6c0.4,0,0.7-0.1,1-0.3
			s0.4-0.5,0.4-1v-0.6c-0.2,0.2-0.4,0.4-0.6,0.6c-0.3,0.1-0.5,0.2-0.8,0.2c-0.6,0-1-0.2-1.4-0.6c-0.4-0.4-0.5-1-0.5-1.6
			c0-0.7,0.2-1.2,0.5-1.6c0.4-0.4,0.8-0.6,1.4-0.6c0.6,0,1.1,0.3,1.5,0.8v-0.7h0.7v4.2c0,0.7-0.2,1.1-0.6,1.4
			C26.8,61.8,26.3,62,25.7,62z M25.8,59.7c0.3,0,0.5-0.1,0.8-0.2c0.2-0.1,0.4-0.3,0.5-0.5v-1.9c-0.1-0.2-0.3-0.4-0.5-0.5
			c-0.2-0.1-0.5-0.2-0.8-0.2c-0.4,0-0.8,0.2-1,0.5c-0.2,0.3-0.4,0.7-0.4,1.2c0,0.5,0.1,0.9,0.4,1.2C25.1,59.5,25.4,59.7,25.8,59.7z"
			/>
		<path class="st1" d="M32.8,60.2h-0.7v-2.9c0-0.4-0.1-0.6-0.3-0.8c-0.2-0.1-0.4-0.2-0.7-0.2c-0.2,0-0.5,0.1-0.7,0.2
			c-0.2,0.1-0.4,0.3-0.6,0.5v3.2h-0.7v-6h0.7v2.3c0.2-0.2,0.4-0.4,0.7-0.5c0.3-0.1,0.6-0.2,0.9-0.2c0.9,0,1.4,0.5,1.4,1.4V60.2z"/>
		<path class="st1" d="M37.5,60.2h-0.7v-0.5c-0.4,0.4-0.8,0.6-1.4,0.6c-0.4,0-0.8-0.1-1.1-0.4c-0.3-0.3-0.5-0.6-0.5-1.1
			c0-0.5,0.2-0.8,0.5-1.1c0.3-0.2,0.7-0.4,1.1-0.4c0.6,0,1.1,0.2,1.4,0.6v-0.8c0-0.3-0.1-0.5-0.3-0.7s-0.5-0.2-0.8-0.2
			c-0.5,0-1,0.2-1.3,0.6l-0.3-0.5c0.5-0.5,1-0.7,1.7-0.7c0.5,0,0.9,0.1,1.2,0.4c0.3,0.2,0.5,0.6,0.5,1.1V60.2z M35.6,59.9
			c0.5,0,0.9-0.2,1.2-0.5v-0.8c-0.3-0.4-0.7-0.5-1.2-0.5c-0.3,0-0.6,0.1-0.8,0.3c-0.2,0.2-0.3,0.4-0.3,0.7c0,0.3,0.1,0.5,0.3,0.7
			C35.1,59.8,35.3,59.9,35.6,59.9z"/>
		<path class="st1" d="M42.5,60.2h-0.7v-2.8c0-0.4-0.1-0.6-0.3-0.8c-0.2-0.2-0.4-0.2-0.7-0.2c-0.3,0-0.5,0.1-0.7,0.2
			c-0.2,0.1-0.4,0.3-0.6,0.5v3.2h-0.7v-4.3h0.7v0.6c0.2-0.2,0.4-0.4,0.7-0.5c0.3-0.1,0.6-0.2,0.9-0.2c0.9,0,1.4,0.5,1.4,1.4V60.2z"
			/>
		<path class="st1" d="M44.2,55.3c-0.1,0-0.2,0-0.3-0.1c-0.1-0.1-0.1-0.2-0.1-0.3s0-0.2,0.1-0.3c0.1-0.1,0.2-0.1,0.3-0.1
			c0.1,0,0.2,0,0.3,0.1c0.1,0.1,0.1,0.2,0.1,0.3s0,0.2-0.1,0.3C44.4,55.2,44.3,55.3,44.2,55.3z M44.5,60.2h-0.7v-4.3h0.7V60.2z"/>
		<path class="st1" d="M47.2,60.3c-0.7,0-1.3-0.2-1.8-0.7l0.4-0.5c0.1,0.2,0.4,0.3,0.6,0.4c0.3,0.1,0.5,0.2,0.8,0.2
			c0.3,0,0.6-0.1,0.8-0.2c0.2-0.1,0.3-0.3,0.3-0.5c0-0.2-0.1-0.3-0.3-0.5c-0.2-0.1-0.4-0.2-0.7-0.3c-0.3-0.1-0.5-0.1-0.8-0.2
			c-0.3-0.1-0.5-0.2-0.7-0.4c-0.2-0.2-0.3-0.4-0.3-0.7c0-0.4,0.1-0.7,0.4-0.9s0.7-0.4,1.2-0.4c0.7,0,1.2,0.2,1.6,0.6l-0.3,0.5
			c-0.3-0.4-0.7-0.5-1.3-0.5c-0.3,0-0.5,0.1-0.7,0.2c-0.2,0.1-0.3,0.3-0.3,0.5c0,0.2,0.1,0.3,0.3,0.4c0.2,0.1,0.4,0.2,0.7,0.2
			c0.3,0.1,0.5,0.1,0.8,0.2c0.3,0.1,0.5,0.2,0.7,0.4c0.2,0.2,0.3,0.4,0.3,0.8c0,0.4-0.2,0.7-0.5,0.9S47.8,60.3,47.2,60.3z"/>
		<path class="st1" d="M51.1,60.3c-0.3,0-0.6-0.1-0.7-0.3c-0.2-0.2-0.2-0.4-0.2-0.8v-2.8h-0.7v-0.6h0.7v-1.2h0.7v1.2h0.9v0.6h-0.9
			v2.7c0,0.2,0,0.3,0.1,0.4c0.1,0.1,0.2,0.2,0.3,0.2c0.2,0,0.4-0.1,0.5-0.2l0.2,0.5C51.7,60.2,51.5,60.3,51.1,60.3z"/>
		<path class="st1" d="M56.1,60.2h-0.7v-0.5c-0.4,0.4-0.8,0.6-1.4,0.6c-0.4,0-0.8-0.1-1.1-0.4c-0.3-0.3-0.5-0.6-0.5-1.1
			c0-0.5,0.2-0.8,0.5-1.1c0.3-0.2,0.7-0.4,1.1-0.4c0.6,0,1.1,0.2,1.4,0.6v-0.8c0-0.3-0.1-0.5-0.3-0.7c-0.2-0.2-0.5-0.2-0.8-0.2
			c-0.5,0-1,0.2-1.3,0.6l-0.3-0.5c0.5-0.5,1-0.7,1.7-0.7c0.5,0,0.9,0.1,1.2,0.4s0.5,0.6,0.5,1.1V60.2z M54.2,59.9
			c0.5,0,0.9-0.2,1.2-0.5v-0.8c-0.3-0.4-0.7-0.5-1.2-0.5c-0.3,0-0.6,0.1-0.8,0.3c-0.2,0.2-0.3,0.4-0.3,0.7c0,0.3,0.1,0.5,0.3,0.7
			C53.6,59.8,53.9,59.9,54.2,59.9z"/>
		<path class="st1" d="M61,60.2h-0.7v-2.8c0-0.4-0.1-0.6-0.3-0.8c-0.2-0.2-0.4-0.2-0.7-0.2c-0.3,0-0.5,0.1-0.7,0.2
			c-0.2,0.1-0.4,0.3-0.6,0.5v3.2h-0.7v-4.3h0.7v0.6c0.2-0.2,0.4-0.4,0.7-0.5c0.3-0.1,0.6-0.2,0.9-0.2c0.9,0,1.4,0.5,1.4,1.4V60.2z"
			/>
	</g>
	<g>
		<path class="st1" d="M48.3,90.4h-0.7v-6h0.7V90.4z"/>
		<path class="st1" d="M50.4,90.4h-0.7v-4.3h0.7v0.7c0.4-0.5,0.9-0.8,1.4-0.8v0.7c-0.1,0-0.2,0-0.3,0c-0.2,0-0.4,0.1-0.7,0.2
			c-0.2,0.1-0.4,0.3-0.5,0.5V90.4z"/>
		<path class="st1" d="M56.1,90.4h-0.7v-0.5c-0.4,0.4-0.8,0.6-1.4,0.6c-0.4,0-0.8-0.1-1.1-0.4c-0.3-0.3-0.5-0.6-0.5-1.1
			c0-0.5,0.2-0.8,0.5-1.1c0.3-0.2,0.7-0.4,1.1-0.4c0.6,0,1.1,0.2,1.4,0.6v-0.8c0-0.3-0.1-0.5-0.3-0.7s-0.5-0.2-0.8-0.2
			c-0.5,0-1,0.2-1.3,0.6l-0.3-0.5c0.5-0.5,1-0.7,1.7-0.7c0.5,0,0.9,0.1,1.2,0.4c0.3,0.2,0.5,0.6,0.5,1.1V90.4z M54.2,90
			c0.5,0,0.9-0.2,1.2-0.5v-0.8c-0.3-0.4-0.7-0.5-1.2-0.5c-0.3,0-0.6,0.1-0.8,0.3c-0.2,0.2-0.3,0.4-0.3,0.7c0,0.3,0.1,0.5,0.3,0.7
			C53.6,89.9,53.9,90,54.2,90z"/>
		<path class="st1" d="M61,90.4h-0.7v-2.8c0-0.4-0.1-0.6-0.3-0.8c-0.2-0.2-0.4-0.2-0.7-0.2c-0.3,0-0.5,0.1-0.7,0.2
			c-0.2,0.1-0.4,0.3-0.6,0.5v3.2h-0.7v-4.3h0.7v0.6c0.2-0.2,0.4-0.4,0.7-0.5c0.3-0.1,0.6-0.2,0.9-0.2c0.9,0,1.4,0.5,1.4,1.4V90.4z"
			/>
	</g>
	<g>
		<path class="st1" d="M30.1,118.2h-0.7v-6h2.4c0.6,0,1,0.2,1.4,0.5c0.3,0.3,0.5,0.8,0.5,1.3s-0.2,0.9-0.5,1.3
			c-0.3,0.3-0.8,0.5-1.4,0.5h-1.7V118.2z M31.7,115.2c0.4,0,0.6-0.1,0.9-0.3c0.2-0.2,0.3-0.5,0.3-0.8s-0.1-0.6-0.3-0.8
			c-0.2-0.2-0.5-0.3-0.9-0.3h-1.6v2.3H31.7z"/>
		<path class="st1" d="M37.8,118.2h-0.7v-0.5c-0.4,0.4-0.8,0.6-1.4,0.6c-0.4,0-0.8-0.1-1.1-0.4c-0.3-0.3-0.5-0.6-0.5-1.1
			c0-0.5,0.2-0.8,0.5-1.1c0.3-0.2,0.7-0.4,1.1-0.4c0.6,0,1.1,0.2,1.4,0.6v-0.8c0-0.3-0.1-0.5-0.3-0.7s-0.5-0.2-0.8-0.2
			c-0.5,0-1,0.2-1.3,0.6l-0.3-0.5c0.5-0.5,1-0.7,1.7-0.7c0.5,0,0.9,0.1,1.2,0.4c0.3,0.2,0.5,0.6,0.5,1.1V118.2z M36,117.8
			c0.5,0,0.9-0.2,1.2-0.5v-0.8c-0.3-0.4-0.7-0.5-1.2-0.5c-0.3,0-0.6,0.1-0.8,0.3c-0.2,0.2-0.3,0.4-0.3,0.7c0,0.3,0.1,0.5,0.3,0.7
			C35.4,117.7,35.7,117.8,36,117.8z"/>
		<path class="st1" d="M43,118.2h-0.9l-1.6-2l-0.7,0.7v1.2h-0.7v-6h0.7v4l2.3-2.3H43l-1.9,2L43,118.2z"/>
		<path class="st1" d="M44.2,113.2c-0.1,0-0.2,0-0.3-0.1c-0.1-0.1-0.1-0.2-0.1-0.3s0-0.2,0.1-0.3c0.1-0.1,0.2-0.1,0.3-0.1
			c0.1,0,0.2,0,0.3,0.1c0.1,0.1,0.1,0.2,0.1,0.3s0,0.2-0.1,0.3C44.4,113.2,44.3,113.2,44.2,113.2z M44.5,118.2h-0.7v-4.3h0.7V118.2z
			"/>
		<path class="st1" d="M47.2,118.3c-0.7,0-1.3-0.2-1.8-0.7l0.4-0.5c0.1,0.2,0.4,0.3,0.6,0.4c0.3,0.1,0.5,0.2,0.8,0.2
			c0.3,0,0.6-0.1,0.8-0.2c0.2-0.1,0.3-0.3,0.3-0.5c0-0.2-0.1-0.3-0.3-0.5c-0.2-0.1-0.4-0.2-0.7-0.3c-0.3-0.1-0.5-0.1-0.8-0.2
			c-0.3-0.1-0.5-0.2-0.7-0.4s-0.3-0.4-0.3-0.7c0-0.4,0.1-0.7,0.4-0.9s0.7-0.4,1.2-0.4c0.7,0,1.2,0.2,1.6,0.6l-0.3,0.5
			c-0.3-0.4-0.7-0.5-1.3-0.5c-0.3,0-0.5,0.1-0.7,0.2c-0.2,0.1-0.3,0.3-0.3,0.5c0,0.2,0.1,0.3,0.3,0.4s0.4,0.2,0.7,0.2
			c0.3,0.1,0.5,0.1,0.8,0.2c0.3,0.1,0.5,0.2,0.7,0.4c0.2,0.2,0.3,0.4,0.3,0.8c0,0.4-0.2,0.7-0.5,0.9S47.8,118.3,47.2,118.3z"/>
		<path class="st1" d="M51.1,118.3c-0.3,0-0.6-0.1-0.7-0.3c-0.2-0.2-0.2-0.4-0.2-0.8v-2.8h-0.7v-0.6h0.7v-1.2h0.7v1.2h0.9v0.6h-0.9
			v2.7c0,0.2,0,0.3,0.1,0.4c0.1,0.1,0.2,0.2,0.3,0.2c0.2,0,0.4-0.1,0.5-0.2l0.2,0.5C51.7,118.2,51.5,118.3,51.1,118.3z"/>
		<path class="st1" d="M56.1,118.2h-0.7v-0.5c-0.4,0.4-0.8,0.6-1.4,0.6c-0.4,0-0.8-0.1-1.1-0.4c-0.3-0.3-0.5-0.6-0.5-1.1
			c0-0.5,0.2-0.8,0.5-1.1c0.3-0.2,0.7-0.4,1.1-0.4c0.6,0,1.1,0.2,1.4,0.6v-0.8c0-0.3-0.1-0.5-0.3-0.7c-0.2-0.2-0.5-0.2-0.8-0.2
			c-0.5,0-1,0.2-1.3,0.6l-0.3-0.5c0.5-0.5,1-0.7,1.7-0.7c0.5,0,0.9,0.1,1.2,0.4s0.5,0.6,0.5,1.1V118.2z M54.2,117.8
			c0.5,0,0.9-0.2,1.2-0.5v-0.8c-0.3-0.4-0.7-0.5-1.2-0.5c-0.3,0-0.6,0.1-0.8,0.3c-0.2,0.2-0.3,0.4-0.3,0.7c0,0.3,0.1,0.5,0.3,0.7
			C53.6,117.7,53.9,117.8,54.2,117.8z"/>
		<path class="st1" d="M61,118.2h-0.7v-2.8c0-0.4-0.1-0.6-0.3-0.8c-0.2-0.2-0.4-0.2-0.7-0.2c-0.3,0-0.5,0.1-0.7,0.2
			c-0.2,0.1-0.4,0.3-0.6,0.5v3.2h-0.7v-4.3h0.7v0.6c0.2-0.2,0.4-0.4,0.7-0.5s0.6-0.2,0.9-0.2c0.9,0,1.4,0.5,1.4,1.4V118.2z"/>
	</g>
	<g>
		<path class="st0" d="M201.9,43.1c-1.3,0-2.4-0.4-3.1-1.3l0.8-1c0.6,0.7,1.3,1,2.2,1c0.5,0,0.9-0.1,1.2-0.4s0.5-0.6,0.5-1
			c0-0.5-0.2-0.8-0.5-1.1c-0.3-0.3-0.7-0.4-1.2-0.4c-0.7,0-1.3,0.2-1.8,0.7l-1-0.3v-4.7h5.5v1.3h-4v2.4c0.5-0.5,1.1-0.7,1.9-0.7
			c0.7,0,1.4,0.2,1.9,0.7c0.5,0.5,0.8,1.1,0.8,2c0,0.9-0.3,1.5-0.9,2.1S202.9,43.1,201.9,43.1z"/>
	</g>
	<g>
		<path class="st0" d="M202,74.7h-1.5v-6.4l-1.4,1.4l-0.8-0.9l2.4-2.4h1.3V74.7z"/>
		<path class="st0" d="M208.6,74.7h-1.5v-1.9h-4v-1.2l3.4-5.3h2v5.2h1.1v1.3h-1.1V74.7z M207.2,71.6v-3.9l-2.5,3.9H207.2z"/>
		<path class="st0" d="M213.9,74.9c-1.3,0-2.4-0.4-3.1-1.3l0.8-1c0.6,0.7,1.3,1,2.2,1c0.5,0,0.9-0.1,1.2-0.4c0.3-0.3,0.5-0.6,0.5-1
			c0-0.5-0.2-0.8-0.5-1.1c-0.3-0.3-0.7-0.4-1.2-0.4c-0.7,0-1.3,0.2-1.8,0.7l-1-0.3v-4.7h5.5v1.3h-4v2.4c0.5-0.5,1.1-0.7,1.9-0.7
			c0.7,0,1.4,0.2,1.9,0.7c0.5,0.5,0.8,1.1,0.8,2c0,0.9-0.3,1.5-0.9,2.1S214.9,74.9,213.9,74.9z"/>
	</g>
	<g>
		<path class="st0" d="M201.9,103.3c-1.3,0-2.4-0.4-3.1-1.3l0.8-1c0.6,0.7,1.3,1,2.2,1c0.5,0,0.9-0.1,1.2-0.4c0.3-0.3,0.5-0.6,0.5-1
			c0-0.5-0.2-0.8-0.5-1.1c-0.3-0.3-0.7-0.4-1.2-0.4c-0.7,0-1.3,0.2-1.8,0.7l-1-0.3v-4.7h5.5v1.3h-4v2.4c0.5-0.5,1.1-0.7,1.9-0.7
			c0.7,0,1.4,0.2,1.9,0.7c0.5,0.5,0.8,1.1,0.8,2c0,0.9-0.3,1.5-0.9,2.1S202.9,103.3,201.9,103.3z"/>
	</g>
	<g>
		<path class="st0" d="M35.6,159.8h-1.5v-6.4l-1.4,1.4l-0.8-0.9l2.4-2.4h1.3V159.8z"/>
		<path class="st0" d="M38.9,159.3c0,0.4-0.1,0.8-0.3,1.2c-0.2,0.4-0.5,0.7-0.9,0.9l-0.6-0.5c0.2-0.1,0.4-0.3,0.6-0.5
			c0.2-0.2,0.3-0.4,0.3-0.6c-0.1,0-0.1,0-0.2,0c-0.2,0-0.4-0.1-0.5-0.2c-0.1-0.1-0.2-0.3-0.2-0.6s0.1-0.4,0.2-0.6s0.4-0.3,0.6-0.3
			c0.3,0,0.5,0.1,0.7,0.3C38.8,158.7,38.9,158.9,38.9,159.3z"/>
		<path class="st0" d="M46.2,159.8h-6v-1.2c1.7-1.3,2.9-2.3,3.6-2.9c0.6-0.6,0.9-1.2,0.9-1.8c0-0.4-0.1-0.7-0.4-0.9
			s-0.7-0.3-1.1-0.3c-0.9,0-1.7,0.3-2.2,1l-0.8-1c0.4-0.4,0.8-0.8,1.4-1c0.5-0.2,1.1-0.3,1.7-0.3c0.9,0,1.6,0.2,2.1,0.7
			c0.6,0.5,0.9,1.1,0.9,1.9c0,0.7-0.3,1.4-0.9,2.1s-1.5,1.5-2.8,2.5h3.7V159.8z"/>
		<path class="st0" d="M50.9,159.9c-0.6,0-1.1-0.1-1.6-0.3c-0.4-0.2-0.8-0.5-1.1-0.9c-0.3-0.4-0.5-0.9-0.6-1.4
			c-0.1-0.5-0.2-1.1-0.2-1.7c0-1.3,0.3-2.3,1-3.1c0.6-0.8,1.5-1.2,2.7-1.2c1,0,1.8,0.3,2.4,0.9l-0.7,1.1c-0.5-0.5-1-0.7-1.7-0.7
			c-0.7,0-1.2,0.3-1.6,0.8s-0.6,1.2-0.6,1.9c0,0.1,0,0.2,0,0.2c0.2-0.3,0.5-0.6,0.9-0.8s0.8-0.4,1.3-0.4c0.8,0,1.5,0.2,2,0.7
			c0.5,0.5,0.8,1.1,0.8,2c0,0.8-0.3,1.5-0.9,2C52.5,159.6,51.8,159.9,50.9,159.9z M50.8,158.6c0.5,0,0.9-0.1,1.2-0.4
			c0.3-0.3,0.4-0.6,0.4-1c0-0.5-0.2-0.9-0.5-1.1c-0.3-0.3-0.7-0.4-1.2-0.4c-0.4,0-0.7,0.1-1,0.3c-0.3,0.2-0.6,0.4-0.8,0.7
			c0.1,0.5,0.2,1,0.5,1.4C49.8,158.4,50.2,158.6,50.8,158.6z"/>
		<path class="st0" d="M58.3,159.9c-1.3,0-2.4-0.4-3.1-1.3l0.8-1c0.6,0.7,1.3,1,2.2,1c0.5,0,0.9-0.1,1.2-0.4c0.3-0.3,0.5-0.6,0.5-1
			c0-0.5-0.2-0.8-0.5-1.1c-0.3-0.3-0.7-0.4-1.2-0.4c-0.7,0-1.3,0.2-1.8,0.7l-1-0.3v-4.7h5.5v1.3h-4v2.4c0.5-0.5,1.1-0.7,1.9-0.7
			c0.7,0,1.4,0.2,1.9,0.7c0.5,0.5,0.8,1.1,0.8,2c0,0.9-0.3,1.5-0.9,2.1C60,159.7,59.2,159.9,58.3,159.9z"/>
	</g>
	<g>
		<path class="st0" d="M43.6,130c-0.7,0-1.3-0.1-1.9-0.4c-0.5-0.2-1-0.6-1.3-1l0.8-1c0.3,0.3,0.6,0.6,1,0.7c0.4,0.2,0.8,0.3,1.3,0.3
			c0.5,0,1-0.1,1.3-0.3c0.3-0.2,0.5-0.5,0.5-0.9c0-0.8-0.6-1.2-1.8-1.2c-0.6,0-0.9,0-1,0v-1.3c0.1,0,0.4,0,1,0
			c0.5,0,0.9-0.1,1.2-0.3c0.3-0.2,0.5-0.5,0.5-0.8c0-0.4-0.2-0.7-0.5-0.9s-0.7-0.3-1.2-0.3c-0.8,0-1.5,0.3-2.2,0.9l-0.8-0.9
			c0.7-0.9,1.8-1.3,3-1.3c0.9,0,1.6,0.2,2.2,0.6c0.6,0.4,0.8,1,0.8,1.6c0,0.5-0.2,0.9-0.5,1.3c-0.4,0.3-0.8,0.5-1.3,0.6
			c0.5,0,0.9,0.2,1.3,0.6s0.6,0.8,0.6,1.4c0,0.7-0.3,1.3-0.9,1.8S44.5,130,43.6,130z"/>
		<path class="st0" d="M50.7,130c-0.7,0-1.3-0.1-1.9-0.4s-1-0.6-1.3-1l0.8-1c0.3,0.3,0.6,0.6,1,0.7c0.4,0.2,0.8,0.3,1.3,0.3
			c0.5,0,1-0.1,1.3-0.3c0.3-0.2,0.5-0.5,0.5-0.9c0-0.8-0.6-1.2-1.9-1.2c-0.6,0-0.9,0-1,0v-1.3c0.1,0,0.4,0,1,0
			c0.5,0,0.9-0.1,1.2-0.3c0.3-0.2,0.5-0.5,0.5-0.8c0-0.4-0.2-0.7-0.5-0.9s-0.7-0.3-1.2-0.3c-0.8,0-1.5,0.3-2.1,0.9l-0.8-0.9
			c0.7-0.9,1.8-1.3,3-1.3c0.9,0,1.6,0.2,2.2,0.6c0.5,0.4,0.8,1,0.8,1.6c0,0.5-0.2,0.9-0.5,1.3c-0.4,0.3-0.8,0.5-1.3,0.6
			c0.5,0,0.9,0.2,1.3,0.6c0.4,0.4,0.6,0.8,0.6,1.4c0,0.7-0.3,1.3-0.9,1.8C52.4,129.8,51.7,130,50.7,130z"/>
		<path class="st0" d="M58.3,130c-1.3,0-2.4-0.4-3.1-1.3l0.8-1c0.6,0.7,1.3,1,2.2,1c0.5,0,0.9-0.1,1.2-0.4c0.3-0.3,0.5-0.6,0.5-1
			c0-0.5-0.2-0.8-0.5-1.1c-0.3-0.3-0.7-0.4-1.2-0.4c-0.7,0-1.3,0.2-1.8,0.7l-1-0.3v-4.7h5.5v1.3h-4v2.4c0.5-0.5,1.1-0.7,1.9-0.7
			c0.7,0,1.4,0.2,1.9,0.7c0.5,0.5,0.8,1.1,0.8,2c0,0.9-0.3,1.5-0.9,2.1C60,129.7,59.2,130,58.3,130z"/>
	</g>
	<g>
		<path class="st0" d="M50.9,102.4c-0.6,0-1.1-0.1-1.6-0.3c-0.5-0.2-0.8-0.5-1.1-0.9s-0.5-0.9-0.6-1.4c-0.1-0.5-0.2-1.1-0.2-1.7
			c0-1.3,0.3-2.3,1-3.1c0.6-0.8,1.5-1.2,2.7-1.2c1,0,1.8,0.3,2.4,0.9l-0.7,1.1c-0.5-0.5-1-0.7-1.7-0.7c-0.7,0-1.2,0.3-1.6,0.8
			c-0.4,0.5-0.6,1.2-0.6,1.9c0,0.1,0,0.2,0,0.2c0.2-0.3,0.5-0.6,0.9-0.8s0.8-0.4,1.3-0.4c0.8,0,1.5,0.2,2,0.7c0.5,0.5,0.8,1.1,0.8,2
			c0,0.8-0.3,1.5-0.8,2C52.5,102.1,51.8,102.4,50.9,102.4z M50.8,101.1c0.5,0,0.9-0.1,1.2-0.4c0.3-0.3,0.4-0.6,0.4-1
			c0-0.5-0.2-0.9-0.5-1.1c-0.3-0.3-0.7-0.4-1.2-0.4c-0.3,0-0.7,0.1-1,0.3c-0.3,0.2-0.6,0.4-0.8,0.7c0,0.5,0.2,1,0.5,1.4
			C49.8,100.9,50.2,101.1,50.8,101.1z"/>
		<path class="st0" d="M58.3,102.4c-1.3,0-2.4-0.4-3.1-1.3l0.8-1c0.6,0.7,1.3,1,2.2,1c0.5,0,0.9-0.1,1.2-0.4c0.3-0.3,0.5-0.6,0.5-1
			c0-0.5-0.2-0.8-0.5-1.1c-0.3-0.3-0.7-0.4-1.2-0.4c-0.7,0-1.3,0.2-1.8,0.7l-1-0.3v-4.7h5.5v1.3h-4v2.4c0.5-0.5,1.1-0.7,1.9-0.7
			c0.7,0,1.4,0.2,1.9,0.7c0.5,0.5,0.8,1.1,0.8,2c0,0.9-0.3,1.5-0.9,2.1S59.2,102.4,58.3,102.4z"/>
	</g>
	<g>
		<path class="st0" d="M35.6,72.7h-1.5v-6.4l-1.4,1.4l-0.9-0.9l2.4-2.4h1.3V72.7z"/>
		<path class="st0" d="M38.9,72.3c0,0.4-0.1,0.8-0.3,1.2s-0.5,0.7-0.9,0.9l-0.6-0.5c0.2-0.1,0.4-0.3,0.6-0.5
			c0.2-0.2,0.3-0.4,0.3-0.7c-0.1,0-0.1,0-0.2,0c-0.2,0-0.4-0.1-0.5-0.2c-0.1-0.1-0.2-0.3-0.2-0.6s0.1-0.4,0.2-0.6
			c0.2-0.2,0.4-0.3,0.6-0.3c0.3,0,0.5,0.1,0.7,0.3C38.8,71.6,38.9,71.9,38.9,72.3z"/>
		<path class="st0" d="M45.3,72.7h-1.5v-1.9h-4v-1.2l3.4-5.3h2v5.2h1.1v1.3h-1.1V72.7z M43.8,69.6v-3.8l-2.5,3.8H43.8z"/>
		<path class="st0" d="M50.6,72.9c-1.3,0-2.4-0.4-3.1-1.3l0.8-1c0.6,0.7,1.3,1,2.2,1c0.5,0,0.9-0.1,1.2-0.4s0.5-0.6,0.5-1
			c0-0.5-0.2-0.8-0.5-1.1c-0.3-0.3-0.7-0.4-1.2-0.4c-0.7,0-1.3,0.2-1.8,0.7l-1-0.3v-4.7h5.5v1.3h-4v2.4c0.5-0.5,1.1-0.7,1.9-0.7
			c0.7,0,1.4,0.2,1.9,0.7c0.5,0.5,0.8,1.1,0.8,2c0,0.9-0.3,1.5-0.9,2.1C52.3,72.6,51.5,72.9,50.6,72.9z"/>
		<path class="st0" d="M59.6,72.5c-0.4,0.2-0.9,0.4-1.5,0.4c-0.6,0-1.1-0.1-1.5-0.4c-0.4-0.2-0.8-0.6-1.1-1s-0.5-0.9-0.6-1.4
			c-0.1-0.5-0.2-1-0.2-1.6s0.1-1.1,0.2-1.6c0.1-0.5,0.3-1,0.6-1.4c0.3-0.4,0.6-0.7,1.1-1c0.4-0.2,0.9-0.4,1.5-0.4
			c0.6,0,1.1,0.1,1.5,0.4c0.4,0.2,0.8,0.6,1,1c0.3,0.4,0.5,0.9,0.6,1.4s0.2,1,0.2,1.6s-0.1,1.1-0.2,1.6s-0.3,1-0.6,1.4
			C60.4,71.9,60,72.3,59.6,72.5z M56.7,70.7c0.3,0.6,0.8,0.9,1.4,0.9c0.6,0,1.1-0.3,1.4-0.9c0.3-0.6,0.5-1.3,0.5-2.2
			c0-0.6-0.1-1.1-0.2-1.5c-0.1-0.4-0.3-0.8-0.6-1.1c-0.3-0.3-0.6-0.4-1.1-0.4c-0.4,0-0.8,0.1-1.1,0.4c-0.3,0.3-0.5,0.6-0.6,1.1
			c-0.1,0.4-0.2,0.9-0.2,1.5C56.3,69.4,56.4,70.2,56.7,70.7z"/>
	</g>
	<g>
		<path class="st0" d="M46.1,43.5h-1.5v-6.4l-1.4,1.4l-0.8-0.9l2.4-2.4h1.3V43.5z"/>
		<path class="st0" d="M53.7,43.5h-6v-1.2c1.7-1.3,2.9-2.3,3.6-2.9c0.6-0.6,0.9-1.2,0.9-1.8c0-0.4-0.1-0.7-0.4-0.9
			c-0.3-0.2-0.7-0.3-1.1-0.3c-0.9,0-1.7,0.3-2.2,1l-0.8-1c0.4-0.4,0.8-0.8,1.4-1c0.5-0.2,1.1-0.3,1.7-0.3c0.8,0,1.6,0.2,2.1,0.7
			c0.6,0.5,0.9,1.1,0.9,1.9c0,0.7-0.3,1.4-0.9,2.1c-0.6,0.7-1.5,1.5-2.8,2.5h3.7V43.5z"/>
		<path class="st0" d="M58.3,43.6c-1.3,0-2.4-0.4-3.1-1.3l0.8-1c0.6,0.7,1.3,1,2.2,1c0.5,0,0.9-0.1,1.2-0.4c0.3-0.3,0.5-0.6,0.5-1
			c0-0.5-0.2-0.8-0.5-1.1c-0.3-0.3-0.7-0.4-1.2-0.4c-0.7,0-1.3,0.2-1.8,0.7l-1-0.3v-4.7h5.5v1.3h-4v2.4c0.5-0.5,1.1-0.7,1.9-0.7
			c0.7,0,1.4,0.2,1.9,0.7c0.5,0.5,0.8,1.1,0.8,2c0,0.9-0.3,1.5-0.9,2.1S59.2,43.6,58.3,43.6z"/>
	</g>
	<g>
		<path class="st0" d="M125.2,31.7h-1.5v-1.9h-4v-1.2l3.4-5.3h2v5.2h1.1v1.3h-1.1V31.7z M123.8,28.5v-3.9l-2.5,3.9H123.8z"/>
		<path class="st0" d="M130.5,31.9c-1.3,0-2.4-0.4-3.1-1.3l0.8-1c0.6,0.7,1.3,1,2.2,1c0.5,0,0.9-0.1,1.2-0.4s0.5-0.6,0.5-1
			c0-0.5-0.2-0.8-0.5-1.1c-0.3-0.3-0.7-0.4-1.2-0.4c-0.7,0-1.3,0.2-1.8,0.7l-1-0.3v-4.7h5.5v1.3h-4v2.4c0.5-0.5,1.1-0.7,1.9-0.7
			c0.7,0,1.4,0.2,1.9,0.7c0.5,0.5,0.8,1.1,0.8,2c0,0.9-0.3,1.5-0.9,2.1S131.4,31.9,130.5,31.9z"/>
		<path class="st0" d="M139.5,31.5c-0.4,0.2-0.9,0.4-1.5,0.4s-1.1-0.1-1.5-0.4s-0.8-0.6-1-1c-0.3-0.4-0.5-0.9-0.6-1.4
			c-0.1-0.5-0.2-1-0.2-1.6c0-0.5,0.1-1.1,0.2-1.6c0.1-0.5,0.3-1,0.6-1.4c0.3-0.4,0.6-0.7,1-1s0.9-0.4,1.5-0.4s1.1,0.1,1.5,0.4
			s0.8,0.6,1.1,1c0.3,0.4,0.5,0.9,0.6,1.4s0.2,1,0.2,1.6c0,0.5-0.1,1.1-0.2,1.6s-0.3,1-0.6,1.4C140.3,30.9,140,31.2,139.5,31.5z
			 M136.6,29.7c0.3,0.6,0.8,0.9,1.4,0.9c0.6,0,1.1-0.3,1.4-0.9c0.3-0.6,0.5-1.3,0.5-2.2c0-0.6-0.1-1.1-0.2-1.5s-0.3-0.8-0.6-1.1
			c-0.3-0.3-0.6-0.4-1.1-0.4s-0.8,0.1-1.1,0.4c-0.3,0.3-0.5,0.6-0.6,1.1s-0.2,0.9-0.2,1.5C136.2,28.4,136.3,29.2,136.6,29.7z"/>
	</g>
	<g>
		<g>
			<path class="st2" d="M192.4,27.9c-18.3,0-33.4,15.3-41,32.5"/>
			<g>
				<path class="st3" d="M151.4,60.5C151.4,60.5,151.4,60.5,151.4,60.5C151.4,60.5,151.4,60.5,151.4,60.5
					C151.4,60.5,151.4,60.5,151.4,60.5C151.4,60.5,151.4,60.5,151.4,60.5z"/>
			</g>
		</g>
	</g>
	<g>
		<g>
			<path class="st4" d="M191.6,63.3c-11.7,0-18.3,1.1-30.5,11.5"/>
			<g>
				<path class="st3" d="M161.1,74.7c0.1,0,0.2,0.1,0.3,0.2c-0.2,0-0.3,0-0.5,0c0.1-0.1,0.1-0.3,0.1-0.5
					C161,74.5,161.1,74.6,161.1,74.7z"/>
			</g>
		</g>
	</g>
	<g>
		<g>
			<path class="st2" d="M192.7,94.8c-12.7,2.3-21.2,1.2-35.1-4.1"/>
			<g>
				<path class="st3" d="M157.6,90.6C157.6,90.6,157.6,90.6,157.6,90.6C157.6,90.6,157.6,90.6,157.6,90.6
					C157.6,90.6,157.6,90.6,157.6,90.6C157.6,90.6,157.6,90.6,157.6,90.6z"/>
			</g>
		</g>
	</g>
	<g>
		<g>
			<path class="st5" d="M69.2,147.8c21.7-5.4,39.1-17.7,45.1-34.4"/>
			<g>
				<path class="st3" d="M114.1,113.8c-1.2,0.6-3,0.5-4.3,0.1c2-0.7,3.9-1.8,5.3-3.5c0.2,2.1,1.2,4.1,2.4,5.9
					C116.3,115.8,114.8,115,114.1,113.8z"/>
			</g>
		</g>
	</g>
	<g>
		<g>
			<path class="st6" d="M190.5,125.3c-18.1,2.4-38.5,2.2-51.2-16.4"/>
			<g>
				<path class="st3" d="M139.4,109c-0.1,0.6-0.6,1.2-1.1,1.5c0.3-0.9,0.4-1.8,0.2-2.7c0.8,0.5,1.7,0.7,2.6,0.8
					C140.6,108.8,140,109.1,139.4,109z"/>
			</g>
		</g>
	</g>
	<g>
		<g>
			<path class="st7" d="M68,118.1c13.8-0.8,20.5-4.2,29.7-11.2"/>
			<g>
				<path class="st3" d="M97.6,106.9c-0.3,0-0.7-0.4-0.9-0.6c0.5,0.2,1.1,0.2,1.7,0.1c-0.3,0.5-0.4,1.1-0.4,1.6
					C97.7,107.7,97.6,107.3,97.6,106.9z"/>
			</g>
		</g>
	</g>
	<g>
		<g>
			<path class="st8" d="M67.4,62.5c13.9-1,22.9,3,32.4,17.3"/>
			<g>
				<path class="st3" d="M99.7,79.5c0.2-0.9,1.1-2,1.9-2.5c-0.5,1.5-0.8,3.1-0.5,4.7c-1.3-0.9-2.9-1.2-4.5-1.4
					C97.5,79.8,98.6,79.4,99.7,79.5z"/>
			</g>
		</g>
	</g>
	<g>
		<g>
			<path class="st9" d="M67.4,92.1c9.6-3,18.8-2.8,28.8,0.5"/>
			<g>
				<path class="st3" d="M96.2,92.6c0-0.1,0-0.2,0-0.3c0,0.1,0.1,0.3,0.3,0.4c-0.2,0-0.3,0.1-0.4,0.2C96,92.7,96.1,92.6,96.2,92.6z"
					/>
			</g>
		</g>
	</g>
	<g>
		<g>
			<line class="st10" x1="130.7" y1="36.3" x2="130.7" y2="71.3"/>
			<g>
				<path class="st3" d="M130.7,71.1c0.5-0.5,1.4-0.7,2-0.7c-0.9,0.6-1.6,1.5-2,2.5c-0.4-1-1.2-1.8-2-2.5
					C129.3,70.4,130.2,70.6,130.7,71.1z"/>
			</g>
		</g>
	</g>
	<g>
		<g>
			<path class="st11" d="M69.9,30.7c18.3,0,43.3,14.9,49,44"/>
			<g>
				<path class="st3" d="M118.9,74.7c0.1-0.2,0.3-0.3,0.5-0.3c-0.2,0.2-0.4,0.5-0.4,0.8c-0.2-0.3-0.4-0.4-0.7-0.6
					C118.5,74.6,118.7,74.6,118.9,74.7z"/>
			</g>
		</g>
	</g>
	<g>
		<path class="st0" d="M201.6,135.2c-0.7,0-1.3-0.1-1.9-0.4c-0.5-0.2-1-0.6-1.3-1l0.8-1c0.3,0.3,0.6,0.6,1,0.7s0.8,0.3,1.3,0.3
			c0.5,0,1-0.1,1.3-0.3c0.3-0.2,0.5-0.5,0.5-0.9c0-0.8-0.6-1.2-1.9-1.2c-0.6,0-0.9,0-1,0v-1.3c0.1,0,0.4,0,1,0
			c0.5,0,0.9-0.1,1.2-0.3c0.3-0.2,0.5-0.5,0.5-0.8c0-0.4-0.2-0.7-0.5-0.9c-0.3-0.2-0.7-0.3-1.2-0.3c-0.8,0-1.5,0.3-2.2,0.9l-0.8-0.9
			c0.7-0.9,1.8-1.3,3-1.3c0.9,0,1.6,0.2,2.2,0.6c0.5,0.4,0.8,1,0.8,1.6c0,0.5-0.2,0.9-0.5,1.3s-0.8,0.5-1.3,0.6
			c0.5,0,0.9,0.2,1.3,0.6c0.4,0.4,0.6,0.8,0.6,1.4c0,0.7-0.3,1.3-0.9,1.8C203.3,135,202.5,135.2,201.6,135.2z"/>
		<path class="st0" d="M211.3,134.6c-0.6,0.4-1.4,0.6-2.3,0.6c-0.9,0-1.7-0.2-2.3-0.6c-0.6-0.4-0.9-1-0.9-1.7c0-0.5,0.2-0.9,0.5-1.3
			c0.4-0.4,0.8-0.7,1.3-0.8c-0.5-0.2-0.9-0.4-1.3-0.7s-0.5-0.7-0.5-1.2c0-0.4,0.1-0.7,0.3-1c0.2-0.3,0.4-0.5,0.7-0.7
			c0.3-0.2,0.6-0.3,1-0.4c0.4-0.1,0.7-0.1,1.1-0.1c0.4,0,0.8,0,1.1,0.1s0.7,0.2,1,0.4c0.3,0.2,0.5,0.4,0.7,0.7
			c0.2,0.3,0.3,0.6,0.3,1c0,0.9-0.6,1.6-1.8,2c0.5,0.2,1,0.5,1.3,0.8c0.4,0.4,0.5,0.8,0.5,1.3C212.2,133.7,211.9,134.2,211.3,134.6z
			 M209,133.9c0.5,0,0.9-0.1,1.2-0.3c0.3-0.2,0.5-0.5,0.5-0.9c0-0.4-0.2-0.7-0.6-0.9c-0.4-0.2-0.8-0.4-1.1-0.4
			c-0.2,0-0.4,0.1-0.7,0.2c-0.2,0.1-0.5,0.2-0.7,0.4c-0.2,0.2-0.3,0.4-0.3,0.7c0,0.4,0.2,0.6,0.5,0.9
			C208.1,133.8,208.5,133.9,209,133.9z M209,130.2c0.2,0,0.4-0.1,0.6-0.2c0.2-0.1,0.4-0.2,0.6-0.4c0.2-0.2,0.3-0.4,0.3-0.6
			c0-0.3-0.1-0.6-0.4-0.8c-0.3-0.2-0.7-0.3-1.1-0.3c-0.5,0-0.8,0.1-1.1,0.3c-0.3,0.2-0.4,0.5-0.4,0.8c0,0.2,0.1,0.5,0.3,0.6
			c0.2,0.2,0.4,0.3,0.6,0.4C208.6,130.1,208.8,130.2,209,130.2z"/>
		<path class="st0" d="M218.1,134.9c-0.4,0.2-0.9,0.4-1.5,0.4c-0.6,0-1.1-0.1-1.5-0.4c-0.4-0.2-0.8-0.6-1.1-1s-0.5-0.9-0.6-1.4
			c-0.1-0.5-0.2-1-0.2-1.6s0.1-1.1,0.2-1.6c0.1-0.5,0.3-1,0.6-1.4c0.3-0.4,0.6-0.7,1.1-1c0.4-0.2,0.9-0.4,1.5-0.4
			c0.6,0,1.1,0.1,1.5,0.4c0.4,0.2,0.8,0.6,1,1c0.3,0.4,0.5,0.9,0.6,1.4s0.2,1,0.2,1.6s-0.1,1.1-0.2,1.6s-0.3,1-0.6,1.4
			C218.9,134.3,218.5,134.6,218.1,134.9z M215.2,133.1c0.3,0.6,0.8,0.8,1.4,0.8c0.6,0,1.1-0.3,1.4-0.8s0.5-1.3,0.5-2.2
			c0-0.6-0.1-1.1-0.2-1.5s-0.3-0.8-0.6-1.1c-0.3-0.3-0.6-0.4-1.1-0.4c-0.4,0-0.8,0.1-1.1,0.4c-0.3,0.3-0.5,0.6-0.6,1.1
			c-0.1,0.4-0.2,0.9-0.2,1.5C214.7,131.8,214.9,132.5,215.2,133.1z"/>
	</g>
</g>
</svg>
