<?xml version="1.0" encoding="utf-8"?>
<!-- Generator: Adobe Illustrator 19.2.0, SVG Export Plug-In . SVG Version: 6.00 Build 0)  -->
<svg version="1.1" id="Layer_1" xmlns="http://www.w3.org/2000/svg" xmlns:xlink="http://www.w3.org/1999/xlink" x="0px" y="0px"
	 viewBox="0 0 266.2 169.3" style="enable-background:new 0 0 266.2 169.3;" xml:space="preserve">
<style type="text/css">
	.st0{fill:#0D92FF;}
	.st1{fill:#787878;}
	.st2{fill:none;stroke:#00325C;stroke-width:1.86;stroke-miterlimit:10;}
	.st3{fill:#00325C;}
	.st4{fill:none;stroke:#00325C;stroke-width:6.000000e-02;stroke-miterlimit:10;}
	.st5{fill:none;stroke:#00325C;stroke-width:23;stroke-miterlimit:3;}
	.st6{fill:none;stroke:#00325C;stroke-width:0.12;stroke-miterlimit:10;}
	.st7{fill:none;stroke:#00325C;stroke-width:6.1;stroke-miterlimit:10;}
	.st8{fill:none;stroke:#00325C;stroke-width:10.33;stroke-miterlimit:10;}
	.st9{fill:none;stroke:#00325C;stroke-width:0.49;stroke-miterlimit:10;}
	.st10{fill:none;stroke:#00325C;stroke-width:2.255;stroke-miterlimit:10;}
	.st11{fill:none;stroke:#00325C;stroke-width:0.11;stroke-miterlimit:10;}
</style>
<g>
	<polygon class="st0" points="189.2,66.2 189.5,65.9 189.5,65.5 189.6,65.2 189.7,64.9 189.6,64.5 189.4,64.1 189.1,63.8 
		188.6,63.3 188,63 187.9,62.9 187.6,62.7 187.3,62.8 187,63 186.7,63.1 185.5,63.1 185.2,63.2 185.2,63.2 185.1,63.1 184.8,62.5 
		184.5,61.6 184.3,61.1 183,59.4 182.9,59.4 182.9,59.4 182.8,59.4 182.5,59.5 182.2,59.6 181.9,59.5 181.6,59.4 181.4,59.4 
		181.4,59.4 181.3,59.5 181.1,59.5 181,59.5 180.9,59.4 180,58.1 179.8,57.5 179.8,57.2 179.8,56.9 179.8,56.6 179.7,56.4 
		179.6,56.4 179.1,56.4 179.1,56 179.4,55.2 178.7,54.9 178.1,54.8 177.6,55 177.4,55.2 177.4,55.2 176.9,55.1 176.6,55.5 
		176.3,55.8 176,55.9 174.9,55.8 174.6,55.8 174.3,55.9 173.4,55.9 173.1,56.1 172.6,56.4 171.8,56.5 170.9,56.9 170.4,57 
		169.8,56.8 169.4,56.4 169,56 168,54.4 167.8,54.2 167.6,53.1 167.5,52.8 167.2,52.7 166.5,52.7 166.2,52.6 166.1,52.4 166,51.9 
		165.9,51.7 165.7,51.5 165.4,51.4 164.8,51.1 164.6,51 163.7,51.3 163.1,51.3 162.8,51.4 162.4,51.6 162.3,51.8 162.2,52.1 
		162,52.4 161.7,52.5 161.5,52.4 161.3,52.3 161,52.1 160.4,52.3 159,52.9 158.6,52.8 158.3,52.5 157.8,52.2 157.3,52.2 156.8,52.2 
		156.2,52.1 155.2,51.6 154.6,51.5 154.4,51.5 153.9,51 153.6,50.8 153.3,50.8 149.7,51.7 148.6,51.8 148.1,52 148,52.2 148,52.4 
		148.1,52.8 148.1,53.1 148.1,53.2 147.8,53.5 147.3,54.2 147,54.5 146.8,54.9 146.1,57 145.7,57.8 145.3,58.4 144.8,58.9 
		144.4,59.1 144.2,59 144,58.8 143.6,58.6 143.4,58.7 142.9,59.2 142.6,59.4 142.3,59.3 142.1,59.3 142,59.3 141.8,59.6 141.7,59.7 
		141.6,60.2 141.5,60.5 141.3,60.6 141,60.7 140.2,61.2 139.6,61.4 139.2,61.6 138.4,62.4 138,62.5 137.6,62.4 136.9,61.8 
		136.5,61.6 135.9,61.9 135.7,61.9 135.5,61.6 135.6,61.4 135.7,61.2 135.7,60.9 135.4,60.6 135,60.5 134.2,60.7 134,60.6 
		133.6,60.1 133.4,59.9 133.2,59.9 133.1,59.9 131.5,60.3 131.1,60.5 130.9,60.9 130.8,61.9 130.6,62.3 130.6,62.3 130.6,62.5 
		130.6,62.8 130.6,62.9 129.6,63.6 127.3,63.5 126.2,64.2 126,64.2 123.8,64 122.8,64.1 122.1,64.1 121.8,64.2 119.3,64.8 119,65 
		118.5,66 118.3,66.1 118,66.2 117.9,66.3 117.6,66.5 117.7,66.6 117.8,66.7 117.9,67.1 117.7,68.1 117.6,68.7 117.7,69.2 
		118.3,69.7 118.9,70.2 118.5,70.3 118.1,70.4 117.8,70.6 117.2,71.3 116.8,71.6 116.3,71.6 115.7,71.5 115.1,71.2 114.3,71.2 
		110.7,71.6 109.4,72.1 108.7,72.2 106.6,71.9 101.6,72.3 100.1,71.9 99,71.3 98.8,71.1 98.6,70.8 98.3,70.5 97.9,70.2 97.7,70.1 
		97.5,70.1 97.3,70.2 97.1,70.2 96.9,70 96.3,69.1 96.2,69 95.7,68.9 95.5,68.8 95.4,68.7 93.6,66.3 93,65.8 91.9,65.6 91,65.4 
		90.3,65.3 89.7,65.7 88.6,66.6 88.8,66.8 88.8,67 88.7,67.1 88.6,67.3 88.6,67.4 88.5,67.5 88.4,67.6 88.4,67.7 88.5,67.7 
		88.6,67.7 88.7,67.8 88.6,68.2 88.5,68.6 88.3,68.9 88,69.1 87.4,69.2 87.2,69.3 87.2,69.6 87.3,69.7 87.7,69.9 87.8,70 88,70.5 
		88.1,70.6 87.8,71 87.9,71.4 88,71.9 88,72.8 88.1,73 88.2,73.2 88.4,73.3 88.1,73.5 86.9,73.6 85.6,73.9 84.9,73.8 84.6,73.1 
		84.4,73.3 84,73.9 83.8,74.1 83.7,74.1 82.7,74 82.5,73.9 82.3,73.7 82.2,73.4 82.1,73.1 82,72.9 81.8,72.7 80.4,72.2 79.7,72.1 
		79,72.4 78.9,72.6 78.9,73 78.8,73.2 78.7,73.4 78,73.7 77.8,73.9 77.7,74 77.6,74 77.5,73.9 77.4,73.7 77.2,73.9 77,74.3 
		76.8,74.5 77.1,74.7 78.1,75.1 78.6,75 79.7,75.4 80.3,75.3 80.7,75.5 81,75.9 81.1,76.5 81,77 81.3,77.1 81.6,77.4 81.7,77.7 
		81.7,78.1 81.5,78.4 81,78.7 80.8,78.9 80.8,79.9 79.9,80.6 78,81.5 77.8,81.1 77.6,81 77.4,81.1 77.2,81.4 77.3,82.4 77.2,82.5 
		77.1,82.5 77,82.6 77,82.7 77.1,82.8 77.2,82.9 77.3,82.9 77.3,82.9 77.8,84.1 77.9,84.5 77.8,84.8 77.5,85.1 77,85.3 77.1,85.8 
		76.8,86.4 76.9,86.8 77,86.9 77.3,86.9 77.4,87 77.4,87.3 77.2,87.7 77.2,87.8 77.5,88 78,87.7 78.3,87.7 78.6,88 78.5,88.3 
		78.1,88.9 77.7,89.1 77.6,89.5 77.7,89.8 78.1,89.9 78.3,90 78.3,90.2 78.3,90.3 78.1,90.4 77.3,90.8 77.1,91 77.6,91 77.8,91.1 
		78,91.3 78.1,91.6 77.8,91.7 77.3,91.7 77.1,91.8 77,91.8 76.9,91.9 76.8,91.8 76.7,91.8 76.4,91.5 76,91.5 75.3,91.6 74.7,91.5 
		74.4,91.5 74.2,91.8 74.2,92.2 74,92.3 73.8,92.3 73.7,92.5 73.6,92.6 73.6,92.8 73.6,92.9 73.5,93.1 73.4,93.2 73,93.3 72.6,93.7 
		72.4,93.9 71.8,94.7 71.5,95 71.2,95.1 72,95.3 74.4,95.1 74.5,95.2 74.9,95.6 75,95.7 75.3,95.7 75.4,95.8 75.3,96.1 75.2,96.4 
		75.1,96.7 74.9,97 74.8,97.3 74.9,97.4 75.1,98.2 75.3,98.4 75.5,98.7 75.6,98.9 75.8,98.9 75.8,99.3 76.1,99.4 76.4,99.4 
		76.7,99.6 76.8,100.1 76.6,100.3 76.2,100.5 76.1,100.7 76.2,101.1 76.5,101.3 77.1,101.7 77.8,102.6 78.4,103.1 78.6,104.2 
		78.7,104.3 79.5,104.8 79.7,105 79.8,105 79.9,104.8 80,104.7 80.1,104.7 80.3,104.8 80.8,104.9 81.1,105.2 81.5,105.6 81.7,106 
		82.1,106.5 82.6,106.8 82.8,107.2 83,107.2 83.1,106.9 83.2,107 83.7,107.1 83.8,107.1 83.9,107.2 83.9,107.3 84,107.4 84.1,107.5 
		84.1,107.4 84.2,107.3 84.3,107.3 84.5,107.5 84.8,107.9 84.9,108.3 84.9,108.7 85.2,109.5 85.3,109.7 85.4,109.8 86.1,110.6 
		86.5,111.4 86.7,111.6 87.6,112.4 87.8,112.6 87.9,112.8 88.1,113 88.9,113.7 89.2,113.8 90.6,113.9 90.8,114 91.5,114.9 
		91.6,115.1 91.8,116 91.8,116.2 92,116.6 92.2,116.7 92.5,116.8 92.7,117 92.5,117 92.3,117.1 92.2,117.1 92.2,117.3 92.5,117.4 
		92.7,117.6 92.8,117.6 93,117.3 93.1,117.8 93.1,118 93.2,118 93.5,118 93.9,117.9 94.1,118 94.2,118.4 94.3,118.3 94.4,118.2 
		94.4,118.1 94.6,118 96.1,118.1 96.8,118.3 97.5,118.5 98.3,119.4 98.4,119.7 98.4,119.9 98.5,120.2 98.6,120.5 98.6,120.8 
		98.8,120.9 99.1,120.9 101.3,121.6 101.7,122 102.1,122.6 102.1,122.7 102.3,122.7 102.4,122.5 102.5,122.3 102.6,122.2 
		104.1,122.2 106,122.7 106.2,122.7 106.4,122.6 106.7,122.4 106.9,122.4 108.3,122.4 108.6,122.5 109.2,122.9 109.6,122.9 
		109.9,123.2 110.2,123.3 110.5,123.2 110.8,123.1 111.1,123.1 111.3,123.4 111.4,123.5 111.7,123.5 111.8,123.4 112.2,123.1 
		112.8,122.4 113.1,122.2 113.5,122.4 113.9,122.2 114.7,121.6 114.9,121.3 115.3,120.6 115.5,120.3 115.5,120.3 115.6,120.1 
		115.6,119.8 115.7,119.7 116.1,119.3 116.5,119.2 117.3,119.5 118,119.9 118.3,119.9 118.4,119.8 118.5,119.6 118.6,119.4 
		118.8,119.1 119,119.3 119.2,119.3 119.5,119.1 119.8,119 120,118.9 120.2,118.7 120.5,118.7 120.5,118.7 121.5,118.8 121.7,118.8 
		121.9,118.9 121.9,118.9 122,118.9 122,118.8 122,118.8 121.9,118.7 121.9,118.6 121.8,118.5 121.8,118.4 121.8,118.3 121.9,118.2 
		122.3,117.9 122.5,118 122.7,118 123,117.9 123,117.2 123.3,116.7 123.7,116.5 124.1,116.7 124.3,117 124.3,117.1 124.4,117.2 
		124.7,117.4 126.3,117.5 126.8,117.4 126.8,117.4 127,117.2 127,117 127,116.9 127.2,116.5 127.4,116.3 127.5,116.2 127.7,116.2 
		127.8,116.2 128.5,116.2 128.7,116.1 128.9,115.9 129.1,115.6 129.2,115.4 129.2,115.4 129.4,115.3 129.6,115.3 129.8,115.2 
		130,115 130.2,114.8 130.2,114.7 130.2,114.6 130.3,114.6 130.4,114.5 130.6,114.3 130.8,114.2 130.8,114 130.7,113.8 130.7,113.8 
		130.7,113.8 130.7,113.6 130.8,113.4 130.9,113.3 131.1,113.2 131.3,113 131.7,112.9 131.8,112.8 131.9,112.8 132.1,112.8 
		132.5,112.8 133.5,112.6 133.9,112.6 134.2,112.7 135.1,113.2 135.7,113.6 136,113.7 137.7,113 138.3,112.8 138.4,112.8 
		139.5,112.9 140.3,113.4 140.5,113.3 140.8,113.3 141.1,113.1 141.2,113 141.4,113 141.4,113 141.7,113.1 141.8,113.1 141.8,113.2 
		142,113.4 142.1,113.5 142.1,113.5 142.2,113.5 142.6,113.3 142.7,113.3 143,113.4 143.9,114.2 144.6,113.3 147.4,113.2 
		147.8,112.6 148.6,112.7 149.3,113 149.8,113.5 150,113.6 150.2,113.7 150.3,113.7 151.3,113.5 151.7,113.3 151.9,113 152,112.8 
		152,112.4 152.1,112.2 152.2,112.2 152.4,112.2 152.6,112.3 152.7,112.1 152.7,111.9 152.5,111.4 152.5,111.1 152.6,111 
		153.3,110.4 153.6,110.2 154,110.1 154.4,110.1 154.5,110.2 154.8,110.5 155,110.5 155.2,110.5 155.5,110.4 155.6,110.3 
		155.9,110.4 156.5,110.7 156.9,110.7 157,110.6 157.2,110.6 157.3,110.7 157.4,110.8 157.8,111.1 158.1,111 158.9,110 159,109.9 
		159.5,109.9 159.7,109.8 159.9,109.4 160,108.9 160.1,107.8 160.2,107.2 160.5,106.9 160.9,106.8 161.6,106.8 162,106.4 
		161.9,105.9 161.4,104.9 161.5,104.4 161.7,104 162,103.6 162.2,103.2 162.3,102.2 162.4,101.7 162.7,101.4 163.1,101.3 
		163.7,101.3 164.1,101.1 164.4,100.7 164.6,100.2 164.8,100 165.3,99.9 165.6,99.7 165.9,99.2 166,98.7 165.5,98.4 165.5,98.3 
		165.4,98.3 165.4,98.2 165.4,98 165.5,97.9 165.5,97.8 165.6,97.6 166,96.6 166.2,96.2 166.6,95.8 167.2,95.6 167.4,95.5 
		167.5,95.2 167.5,94.9 167.5,94.6 167.5,94.3 167.5,94 167.5,93.9 167.6,93.9 168.4,93.2 168.5,93.1 168.9,91.8 168.9,91.8 
		168.9,91.8 168.8,91.5 168.6,91.3 168.5,91.3 168.3,91.3 168.2,91 168.9,90.2 169.3,89.9 170.2,89.3 170.5,88.9 170.6,88.7 
		170.7,88.3 170.8,88 171,87.8 171.4,87.4 171.5,87.2 171.6,86.9 171.6,86.7 171.6,86.4 171.6,86.1 171.7,85.8 171.9,85.5 
		171.9,85.2 172.1,84.3 172.3,84 172.9,83 173.3,82.7 173.6,82.5 174.4,82.2 174.7,81.5 174.7,80.7 174.5,79.8 174.5,78.9 
		174.8,78.3 175.4,77.7 176.4,76.9 177.3,76.7 177.5,76.5 177.6,76.3 177.6,76.1 177.6,75.9 177.7,75.7 178.1,75.1 178.2,74.9 
		178.2,74.4 178.3,74.2 178.4,74 178.7,73.8 178.9,73.7 179.2,73.1 179.4,72.9 179.8,72.7 180.1,72.6 180.3,72.6 181.1,72.7 
		181.4,72.7 181.6,72.6 181.7,72.4 182,71.3 182.5,71.2 183.8,71.9 184.5,72 185.1,71.9 185.8,71.6 186.3,71.2 186.7,70.6 
		186.9,70.4 187.3,70.3 187.7,70.2 187.8,70.2 187.9,69.9 187.9,69.7 187.8,69.5 187.8,69.3 188,68.9 188.3,68.7 189,68.5 
		189.3,68.2 189.7,67.4 190,67.1 189.3,66.5 	"/>
	<g>
		<path class="st1" d="M205.7,25.3H205v-4.9l-2,4.9h-0.3l-2-4.9v4.9h-0.7v-6h1.1l1.9,4.5l1.9-4.5h1.1V25.3z"/>
		<path class="st1" d="M210.5,25.3h-0.7v-0.5c-0.4,0.4-0.8,0.6-1.4,0.6c-0.4,0-0.8-0.1-1.1-0.4c-0.3-0.3-0.5-0.6-0.5-1.1
			c0-0.5,0.2-0.8,0.5-1.1c0.3-0.2,0.7-0.4,1.1-0.4c0.6,0,1.1,0.2,1.4,0.6v-0.8c0-0.3-0.1-0.5-0.3-0.7c-0.2-0.2-0.5-0.2-0.8-0.2
			c-0.5,0-1,0.2-1.3,0.6l-0.3-0.5c0.5-0.5,1-0.7,1.7-0.7c0.5,0,0.9,0.1,1.2,0.4s0.5,0.6,0.5,1.1V25.3z M208.6,24.9
			c0.5,0,0.9-0.2,1.2-0.5v-0.8c-0.3-0.4-0.7-0.5-1.2-0.5c-0.3,0-0.6,0.1-0.8,0.3c-0.2,0.2-0.3,0.4-0.3,0.7c0,0.3,0.1,0.5,0.3,0.7
			C208,24.8,208.3,24.9,208.6,24.9z"/>
		<path class="st1" d="M213.7,25.4c-0.6,0-1.2-0.2-1.6-0.7c-0.4-0.4-0.6-1-0.6-1.6s0.2-1.2,0.6-1.6s0.9-0.6,1.6-0.6
			c0.7,0,1.2,0.3,1.6,0.8l-0.5,0.4c-0.3-0.4-0.6-0.6-1.1-0.6c-0.5,0-0.8,0.2-1.1,0.5c-0.3,0.3-0.4,0.7-0.4,1.2s0.1,0.9,0.4,1.2
			c0.3,0.3,0.6,0.5,1.1,0.5c0.5,0,0.8-0.2,1.1-0.6l0.5,0.4C214.9,25.1,214.4,25.4,213.7,25.4z"/>
		<path class="st1" d="M218.2,25.4c-0.6,0-1.2-0.2-1.6-0.6s-0.6-1-0.6-1.7c0-0.6,0.2-1.2,0.6-1.6c0.4-0.4,0.9-0.7,1.5-0.7
			c0.6,0,1.2,0.2,1.5,0.7c0.4,0.4,0.6,1,0.6,1.7v0.2h-3.5c0,0.4,0.2,0.8,0.5,1.1s0.6,0.4,1.1,0.4c0.5,0,1-0.2,1.3-0.5l0.3,0.4
			C219.5,25.2,218.9,25.4,218.2,25.4z M219.6,22.8c0-0.4-0.1-0.7-0.4-1s-0.6-0.4-1.1-0.4c-0.4,0-0.8,0.1-1,0.4
			c-0.2,0.3-0.4,0.6-0.4,1H219.6z"/>
		<path class="st1" d="M225.2,25.3h-0.7v-0.6c-0.4,0.5-0.9,0.8-1.5,0.8c-0.6,0-1-0.2-1.4-0.6c-0.4-0.4-0.5-1-0.5-1.7
			c0-0.7,0.2-1.2,0.5-1.7c0.4-0.4,0.8-0.6,1.4-0.6c0.6,0,1.1,0.3,1.5,0.8v-2.3h0.7V25.3z M223.2,24.8c0.3,0,0.5-0.1,0.8-0.2
			s0.4-0.3,0.5-0.5v-2c-0.1-0.2-0.3-0.4-0.6-0.5s-0.5-0.2-0.8-0.2c-0.4,0-0.8,0.2-1,0.5c-0.3,0.3-0.4,0.7-0.4,1.2s0.1,0.9,0.4,1.2
			C222.4,24.6,222.8,24.8,223.2,24.8z"/>
		<path class="st1" d="M230,24.7c-0.4,0.4-0.9,0.7-1.6,0.7s-1.2-0.2-1.6-0.7c-0.4-0.4-0.6-1-0.6-1.6s0.2-1.2,0.6-1.6
			c0.4-0.4,0.9-0.7,1.6-0.7s1.2,0.2,1.6,0.7c0.4,0.4,0.6,1,0.6,1.6S230.4,24.3,230,24.7z M227.4,24.3c0.3,0.3,0.6,0.5,1.1,0.5
			c0.4,0,0.8-0.2,1.1-0.5s0.4-0.7,0.4-1.2s-0.1-0.9-0.4-1.2c-0.3-0.3-0.6-0.5-1.1-0.5c-0.4,0-0.8,0.2-1.1,0.5s-0.4,0.7-0.4,1.2
			C227,23.6,227.1,24,227.4,24.3z"/>
		<path class="st1" d="M235.3,25.3h-0.7v-2.8c0-0.4-0.1-0.6-0.3-0.8c-0.2-0.2-0.4-0.2-0.7-0.2c-0.3,0-0.5,0.1-0.7,0.2
			c-0.2,0.1-0.4,0.3-0.6,0.5v3.2h-0.7v-4.3h0.7v0.6c0.2-0.2,0.4-0.4,0.7-0.5c0.3-0.1,0.6-0.2,0.9-0.2c0.9,0,1.4,0.5,1.4,1.4V25.3z"
			/>
		<path class="st1" d="M237,20.3c-0.1,0-0.2,0-0.3-0.1c-0.1-0.1-0.1-0.2-0.1-0.3s0-0.2,0.1-0.3c0.1-0.1,0.2-0.1,0.3-0.1
			c0.1,0,0.2,0,0.3,0.1c0.1,0.1,0.1,0.2,0.1,0.3s0,0.2-0.1,0.3C237.2,20.3,237.1,20.3,237,20.3z M237.3,25.3h-0.7v-4.3h0.7V25.3z"/>
		<path class="st1" d="M242,25.3h-0.7v-0.5c-0.4,0.4-0.8,0.6-1.4,0.6c-0.4,0-0.8-0.1-1.1-0.4c-0.3-0.3-0.5-0.6-0.5-1.1
			c0-0.5,0.2-0.8,0.5-1.1c0.3-0.2,0.7-0.4,1.1-0.4c0.6,0,1.1,0.2,1.4,0.6v-0.8c0-0.3-0.1-0.5-0.3-0.7s-0.5-0.2-0.8-0.2
			c-0.5,0-1,0.2-1.3,0.6l-0.3-0.5c0.5-0.5,1-0.7,1.7-0.7c0.5,0,0.9,0.1,1.2,0.4c0.3,0.2,0.5,0.6,0.5,1.1V25.3z M240.2,24.9
			c0.5,0,0.9-0.2,1.2-0.5v-0.8c-0.3-0.4-0.7-0.5-1.2-0.5c-0.3,0-0.6,0.1-0.8,0.3c-0.2,0.2-0.3,0.4-0.3,0.7c0,0.3,0.1,0.5,0.3,0.7
			C239.6,24.8,239.9,24.9,240.2,24.9z"/>
	</g>
	<g>
		<path class="st1" d="M202.6,60.7h-2.7v-6h2.7c0.5,0,0.9,0.1,1.2,0.4c0.3,0.3,0.5,0.7,0.5,1.1c0,0.4-0.1,0.7-0.3,0.9
			s-0.5,0.4-0.7,0.5c0.3,0,0.6,0.2,0.8,0.5c0.2,0.3,0.3,0.6,0.3,1c0,0.5-0.2,0.9-0.5,1.2C203.5,60.5,203.1,60.7,202.6,60.7z
			 M202.4,57.3c0.3,0,0.6-0.1,0.8-0.3s0.3-0.4,0.3-0.7c0-0.3-0.1-0.5-0.3-0.7c-0.2-0.2-0.4-0.3-0.8-0.3h-1.8v1.9H202.4z M202.4,60
			c0.3,0,0.6-0.1,0.8-0.3c0.2-0.2,0.3-0.4,0.3-0.8c0-0.3-0.1-0.5-0.3-0.7c-0.2-0.2-0.5-0.3-0.8-0.3h-1.8V60H202.4z"/>
		<path class="st1" d="M208.9,60.7h-0.7v-0.5c-0.4,0.4-0.8,0.6-1.4,0.6c-0.4,0-0.8-0.1-1.1-0.4c-0.3-0.3-0.5-0.6-0.5-1.1
			c0-0.5,0.2-0.8,0.5-1.1c0.3-0.2,0.7-0.4,1.1-0.4c0.6,0,1.1,0.2,1.4,0.6v-0.8c0-0.3-0.1-0.5-0.3-0.7s-0.5-0.2-0.8-0.2
			c-0.5,0-1,0.2-1.3,0.6l-0.3-0.5c0.5-0.5,1-0.7,1.7-0.7c0.5,0,0.9,0.1,1.2,0.4c0.3,0.2,0.5,0.6,0.5,1.1V60.7z M207,60.3
			c0.5,0,0.9-0.2,1.2-0.5v-0.8c-0.3-0.4-0.7-0.5-1.2-0.5c-0.3,0-0.6,0.1-0.8,0.3c-0.2,0.2-0.3,0.4-0.3,0.7c0,0.3,0.1,0.5,0.3,0.7
			C206.4,60.2,206.7,60.3,207,60.3z"/>
		<path class="st1" d="M213.8,60.7h-0.7v-2.8c0-0.4-0.1-0.6-0.3-0.8c-0.2-0.2-0.4-0.2-0.7-0.2c-0.3,0-0.5,0.1-0.7,0.2
			c-0.2,0.1-0.4,0.3-0.6,0.5v3.2h-0.7v-4.3h0.7v0.6c0.2-0.2,0.4-0.4,0.7-0.5c0.3-0.1,0.6-0.2,0.9-0.2c0.9,0,1.4,0.5,1.4,1.4V60.7z"
			/>
		<path class="st1" d="M216.9,62.4c-0.4,0-0.7,0-1-0.1c-0.3-0.1-0.5-0.3-0.8-0.5l0.3-0.5c0.3,0.4,0.8,0.6,1.4,0.6
			c0.4,0,0.7-0.1,1-0.3s0.4-0.5,0.4-1v-0.6c-0.2,0.2-0.4,0.4-0.6,0.6c-0.3,0.1-0.5,0.2-0.8,0.2c-0.6,0-1-0.2-1.4-0.6
			c-0.4-0.4-0.5-1-0.5-1.6c0-0.7,0.2-1.2,0.5-1.6c0.4-0.4,0.8-0.6,1.4-0.6c0.6,0,1.1,0.3,1.5,0.8v-0.7h0.7v4.2
			c0,0.7-0.2,1.1-0.6,1.4C218,62.3,217.5,62.4,216.9,62.4z M217,60.1c0.3,0,0.5-0.1,0.8-0.2c0.2-0.1,0.4-0.3,0.5-0.5v-1.9
			c-0.1-0.2-0.3-0.4-0.5-0.5c-0.2-0.1-0.5-0.2-0.8-0.2c-0.4,0-0.8,0.2-1,0.5c-0.2,0.3-0.4,0.7-0.4,1.2c0,0.5,0.1,0.9,0.4,1.2
			C216.2,60,216.6,60.1,217,60.1z"/>
		<path class="st1" d="M221,60.7h-0.7v-6h0.7V60.7z"/>
		<path class="st1" d="M225.7,60.7h-0.7v-0.5c-0.4,0.4-0.8,0.6-1.4,0.6c-0.4,0-0.8-0.1-1.1-0.4c-0.3-0.3-0.5-0.6-0.5-1.1
			c0-0.5,0.2-0.8,0.5-1.1c0.3-0.2,0.7-0.4,1.1-0.4c0.6,0,1.1,0.2,1.4,0.6v-0.8c0-0.3-0.1-0.5-0.3-0.7c-0.2-0.2-0.5-0.2-0.8-0.2
			c-0.5,0-1,0.2-1.3,0.6l-0.3-0.5c0.5-0.5,1-0.7,1.7-0.7c0.5,0,0.9,0.1,1.2,0.4s0.5,0.6,0.5,1.1V60.7z M223.9,60.3
			c0.5,0,0.9-0.2,1.2-0.5v-0.8c-0.3-0.4-0.7-0.5-1.2-0.5c-0.3,0-0.6,0.1-0.8,0.3c-0.2,0.2-0.3,0.4-0.3,0.7c0,0.3,0.1,0.5,0.3,0.7
			C223.3,60.2,223.6,60.3,223.9,60.3z"/>
		<path class="st1" d="M230.9,60.7h-0.7V60c-0.4,0.5-0.9,0.8-1.5,0.8c-0.6,0-1-0.2-1.4-0.6c-0.4-0.4-0.5-1-0.5-1.7
			c0-0.7,0.2-1.2,0.5-1.7s0.8-0.6,1.4-0.6c0.6,0,1.1,0.3,1.5,0.8v-2.3h0.7V60.7z M228.9,60.2c0.3,0,0.5-0.1,0.8-0.2
			c0.2-0.1,0.4-0.3,0.5-0.5v-2c-0.1-0.2-0.3-0.4-0.6-0.5c-0.2-0.1-0.5-0.2-0.8-0.2c-0.4,0-0.8,0.2-1,0.5c-0.3,0.3-0.4,0.7-0.4,1.2
			s0.1,0.9,0.4,1.2C228.2,60,228.5,60.2,228.9,60.2z"/>
		<path class="st1" d="M234.2,60.8c-0.6,0-1.2-0.2-1.6-0.6s-0.6-1-0.6-1.7c0-0.6,0.2-1.2,0.6-1.6c0.4-0.4,0.9-0.7,1.5-0.7
			c0.6,0,1.2,0.2,1.5,0.7c0.4,0.4,0.6,1,0.6,1.7v0.2h-3.5c0,0.4,0.2,0.8,0.5,1.1c0.3,0.3,0.6,0.4,1.1,0.4c0.5,0,1-0.2,1.3-0.5
			l0.3,0.4C235.5,60.5,234.9,60.8,234.2,60.8z M235.6,58.2c0-0.4-0.1-0.7-0.4-1s-0.6-0.4-1.1-0.4c-0.4,0-0.8,0.1-1,0.4
			s-0.4,0.6-0.4,1H235.6z"/>
		<path class="st1" d="M238.7,60.8c-0.7,0-1.3-0.2-1.8-0.7l0.4-0.5c0.1,0.2,0.4,0.3,0.6,0.4c0.3,0.1,0.5,0.2,0.8,0.2
			c0.3,0,0.6-0.1,0.8-0.2c0.2-0.1,0.3-0.3,0.3-0.5c0-0.2-0.1-0.3-0.3-0.5c-0.2-0.1-0.4-0.2-0.7-0.3c-0.3-0.1-0.5-0.1-0.8-0.2
			c-0.3-0.1-0.5-0.2-0.7-0.4c-0.2-0.2-0.3-0.4-0.3-0.7c0-0.4,0.1-0.7,0.4-0.9s0.7-0.4,1.2-0.4c0.7,0,1.2,0.2,1.6,0.6l-0.3,0.5
			c-0.3-0.4-0.7-0.5-1.3-0.5c-0.3,0-0.5,0.1-0.7,0.2s-0.3,0.3-0.3,0.5c0,0.2,0.1,0.3,0.3,0.4c0.2,0.1,0.4,0.2,0.7,0.2
			s0.5,0.1,0.8,0.2c0.3,0.1,0.5,0.2,0.7,0.4c0.2,0.2,0.3,0.4,0.3,0.8c0,0.4-0.2,0.7-0.4,0.9C239.7,60.6,239.3,60.8,238.7,60.8z"/>
		<path class="st1" d="M245.1,60.7h-0.7v-2.9c0-0.4-0.1-0.6-0.3-0.8c-0.2-0.1-0.4-0.2-0.7-0.2c-0.2,0-0.5,0.1-0.7,0.2
			c-0.2,0.1-0.4,0.3-0.6,0.5v3.2h-0.7v-6h0.7v2.3c0.2-0.2,0.4-0.4,0.7-0.5c0.3-0.1,0.6-0.2,0.9-0.2c0.9,0,1.4,0.5,1.4,1.4V60.7z"/>
	</g>
	<g>
		<path class="st1" d="M202.7,90.5c-0.9,0-1.6-0.3-2.2-0.9c-0.6-0.6-0.9-1.3-0.9-2.2s0.3-1.7,0.9-2.2c0.6-0.6,1.3-0.9,2.2-0.9
			c1,0,1.7,0.4,2.3,1.2l-0.6,0.4c-0.2-0.3-0.4-0.5-0.7-0.6s-0.6-0.2-0.9-0.2c-0.7,0-1.2,0.2-1.7,0.7s-0.7,1-0.7,1.8s0.2,1.3,0.7,1.8
			s1,0.7,1.7,0.7c0.3,0,0.7-0.1,0.9-0.2c0.3-0.2,0.5-0.4,0.7-0.6l0.6,0.4C204.4,90.1,203.6,90.5,202.7,90.5z"/>
		<path class="st1" d="M209.3,89.8c-0.4,0.4-0.9,0.7-1.6,0.7s-1.2-0.2-1.6-0.7c-0.4-0.4-0.6-1-0.6-1.6s0.2-1.2,0.6-1.6
			c0.4-0.4,0.9-0.7,1.6-0.7s1.2,0.2,1.6,0.7c0.4,0.4,0.6,1,0.6,1.6S209.7,89.4,209.3,89.8z M206.7,89.4c0.3,0.3,0.6,0.5,1.1,0.5
			c0.4,0,0.8-0.2,1.1-0.5s0.4-0.7,0.4-1.2s-0.1-0.9-0.4-1.2c-0.3-0.3-0.6-0.5-1.1-0.5c-0.4,0-0.8,0.2-1.1,0.5s-0.4,0.7-0.4,1.2
			C206.3,88.7,206.5,89.1,206.7,89.4z"/>
		<path class="st1" d="M214.6,90.4H214v-2.8c0-0.4-0.1-0.6-0.3-0.8c-0.2-0.2-0.4-0.2-0.7-0.2c-0.3,0-0.5,0.1-0.7,0.2
			c-0.2,0.1-0.4,0.3-0.6,0.5v3.2H211V86h0.7v0.6c0.2-0.2,0.4-0.4,0.7-0.5c0.3-0.1,0.6-0.2,0.9-0.2c0.9,0,1.4,0.5,1.4,1.4V90.4z"/>
		<path class="st1" d="M217.7,92.1c-0.4,0-0.7,0-1-0.1c-0.3-0.1-0.5-0.3-0.8-0.5l0.3-0.5c0.3,0.4,0.8,0.6,1.4,0.6
			c0.4,0,0.7-0.1,1-0.3c0.3-0.2,0.4-0.5,0.4-1v-0.6c-0.2,0.2-0.4,0.4-0.6,0.6c-0.3,0.1-0.5,0.2-0.8,0.2c-0.6,0-1-0.2-1.4-0.6
			c-0.4-0.4-0.5-1-0.5-1.6c0-0.7,0.2-1.2,0.5-1.6s0.8-0.6,1.4-0.6c0.6,0,1.1,0.3,1.5,0.8V86h0.7v4.2c0,0.7-0.2,1.1-0.6,1.4
			C218.8,92,218.3,92.1,217.7,92.1z M217.8,89.8c0.3,0,0.5-0.1,0.8-0.2c0.2-0.1,0.4-0.3,0.5-0.5v-1.9c-0.1-0.2-0.3-0.4-0.5-0.5
			s-0.5-0.2-0.8-0.2c-0.4,0-0.8,0.2-1,0.5c-0.2,0.3-0.4,0.7-0.4,1.2c0,0.5,0.1,0.9,0.4,1.2C217.1,89.7,217.4,89.8,217.8,89.8z"/>
		<path class="st1" d="M224.6,89.8c-0.4,0.4-0.9,0.7-1.6,0.7c-0.6,0-1.2-0.2-1.6-0.7c-0.4-0.4-0.6-1-0.6-1.6s0.2-1.2,0.6-1.6
			c0.4-0.4,0.9-0.7,1.6-0.7c0.6,0,1.2,0.2,1.6,0.7c0.4,0.4,0.6,1,0.6,1.6S225,89.4,224.6,89.8z M222,89.4c0.3,0.3,0.6,0.5,1.1,0.5
			c0.4,0,0.8-0.2,1.1-0.5s0.4-0.7,0.4-1.2s-0.1-0.9-0.4-1.2c-0.3-0.3-0.6-0.5-1.1-0.5c-0.4,0-0.8,0.2-1.1,0.5
			c-0.3,0.3-0.4,0.7-0.4,1.2C221.6,88.7,221.7,89.1,222,89.4z"/>
	</g>
	<g>
		<path class="st1" d="M204.4,121.3h-0.9l-2.3-2.7l-0.6,0.7v2h-0.7v-6h0.7v3.1l2.7-3.1h0.9l-2.5,2.9L204.4,121.3z"/>
		<path class="st1" d="M208.4,120.7c-0.4,0.4-0.9,0.7-1.6,0.7c-0.6,0-1.2-0.2-1.6-0.7c-0.4-0.4-0.6-1-0.6-1.6s0.2-1.2,0.6-1.6
			c0.4-0.4,0.9-0.7,1.6-0.7c0.6,0,1.2,0.2,1.6,0.7c0.4,0.4,0.6,1,0.6,1.6S208.8,120.3,208.4,120.7z M205.7,120.3
			c0.3,0.3,0.6,0.5,1.1,0.5c0.4,0,0.8-0.2,1.1-0.5s0.4-0.7,0.4-1.2s-0.1-0.9-0.4-1.2c-0.3-0.3-0.6-0.5-1.1-0.5
			c-0.4,0-0.8,0.2-1.1,0.5c-0.3,0.3-0.4,0.7-0.4,1.2C205.4,119.6,205.5,120,205.7,120.3z"/>
		<path class="st1" d="M211.4,121.4c-0.7,0-1.3-0.2-1.8-0.7l0.4-0.5c0.2,0.2,0.4,0.3,0.6,0.4c0.3,0.1,0.5,0.2,0.8,0.2
			c0.3,0,0.6-0.1,0.8-0.2c0.2-0.1,0.3-0.3,0.3-0.5c0-0.2-0.1-0.3-0.3-0.5c-0.2-0.1-0.4-0.2-0.7-0.3c-0.3-0.1-0.5-0.1-0.8-0.2
			c-0.3-0.1-0.5-0.2-0.7-0.4c-0.2-0.2-0.3-0.4-0.3-0.7c0-0.4,0.1-0.7,0.4-0.9s0.7-0.4,1.2-0.4c0.7,0,1.2,0.2,1.6,0.6l-0.3,0.5
			c-0.3-0.4-0.7-0.5-1.3-0.5c-0.3,0-0.5,0.1-0.7,0.2c-0.2,0.1-0.3,0.3-0.3,0.5c0,0.2,0.1,0.3,0.3,0.4c0.2,0.1,0.4,0.2,0.7,0.2
			s0.5,0.1,0.8,0.2s0.5,0.2,0.7,0.4c0.2,0.2,0.3,0.4,0.3,0.8c0,0.4-0.2,0.7-0.5,0.9C212.4,121.3,212,121.4,211.4,121.4z"/>
		<path class="st1" d="M217.7,120.7c-0.4,0.4-0.9,0.7-1.6,0.7s-1.2-0.2-1.6-0.7c-0.4-0.4-0.6-1-0.6-1.6s0.2-1.2,0.6-1.6
			c0.4-0.4,0.9-0.7,1.6-0.7s1.2,0.2,1.6,0.7c0.4,0.4,0.6,1,0.6,1.6S218.1,120.3,217.7,120.7z M215.1,120.3c0.3,0.3,0.6,0.5,1.1,0.5
			c0.4,0,0.8-0.2,1.1-0.5s0.4-0.7,0.4-1.2s-0.1-0.9-0.4-1.2c-0.3-0.3-0.6-0.5-1.1-0.5c-0.4,0-0.8,0.2-1.1,0.5
			c-0.3,0.3-0.4,0.7-0.4,1.2C214.7,119.6,214.8,120,215.1,120.3z"/>
		<path class="st1" d="M221.3,121.3h-0.7l-1.8-4.3h0.7l1.4,3.6l1.4-3.6h0.7L221.3,121.3z"/>
		<path class="st1" d="M227.3,120.7c-0.4,0.4-0.9,0.7-1.6,0.7s-1.2-0.2-1.6-0.7c-0.4-0.4-0.6-1-0.6-1.6s0.2-1.2,0.6-1.6
			c0.4-0.4,0.9-0.7,1.6-0.7s1.2,0.2,1.6,0.7c0.4,0.4,0.6,1,0.6,1.6S227.6,120.3,227.3,120.7z M224.6,120.3c0.3,0.3,0.6,0.5,1.1,0.5
			c0.4,0,0.8-0.2,1.1-0.5s0.4-0.7,0.4-1.2s-0.1-0.9-0.4-1.2c-0.3-0.3-0.6-0.5-1.1-0.5c-0.4,0-0.8,0.2-1.1,0.5s-0.4,0.7-0.4,1.2
			C224.2,119.6,224.4,120,224.6,120.3z"/>
	</g>
	<g>
		<path class="st1" d="M28,31.3h-0.7v-6h2.4c0.6,0,1,0.2,1.4,0.5s0.5,0.8,0.5,1.3c0,0.5-0.2,0.9-0.5,1.3c-0.3,0.3-0.8,0.5-1.4,0.5
			H28V31.3z M29.6,28.3c0.4,0,0.6-0.1,0.9-0.3s0.3-0.5,0.3-0.8s-0.1-0.6-0.3-0.8S29.9,26,29.6,26H28v2.3H29.6z"/>
		<path class="st1" d="M35.7,31.3h-0.7v-0.5c-0.4,0.4-0.8,0.6-1.4,0.6c-0.4,0-0.8-0.1-1.1-0.4c-0.3-0.3-0.5-0.6-0.5-1.1
			c0-0.5,0.2-0.8,0.5-1.1c0.3-0.2,0.7-0.4,1.1-0.4c0.6,0,1.1,0.2,1.4,0.6v-0.8c0-0.3-0.1-0.5-0.3-0.7s-0.5-0.2-0.8-0.2
			c-0.5,0-1,0.2-1.3,0.6l-0.3-0.5c0.5-0.5,1-0.7,1.7-0.7c0.5,0,0.9,0.1,1.2,0.4c0.3,0.2,0.5,0.6,0.5,1.1V31.3z M33.9,31
			c0.5,0,0.9-0.2,1.2-0.5v-0.8c-0.3-0.4-0.7-0.5-1.2-0.5c-0.3,0-0.6,0.1-0.8,0.3c-0.2,0.2-0.3,0.4-0.3,0.7c0,0.3,0.1,0.5,0.3,0.7
			C33.3,30.9,33.5,31,33.9,31z"/>
		<path class="st1" d="M37.8,31.3h-0.7v-6h0.7V31.3z"/>
		<path class="st1" d="M41.1,31.4c-0.6,0-1.2-0.2-1.6-0.6c-0.4-0.4-0.6-1-0.6-1.7c0-0.6,0.2-1.2,0.6-1.6c0.4-0.4,0.9-0.7,1.5-0.7
			c0.6,0,1.2,0.2,1.5,0.7s0.6,1,0.6,1.7v0.2h-3.5c0,0.4,0.2,0.8,0.5,1.1c0.3,0.3,0.6,0.4,1.1,0.4c0.5,0,1-0.2,1.3-0.5l0.3,0.4
			C42.3,31.2,41.8,31.4,41.1,31.4z M42.4,28.9c0-0.4-0.1-0.7-0.4-1c-0.2-0.3-0.6-0.4-1.1-0.4c-0.4,0-0.8,0.1-1,0.4
			c-0.2,0.3-0.4,0.6-0.4,1H42.4z"/>
		<path class="st1" d="M45.5,31.4c-0.7,0-1.3-0.2-1.8-0.7l0.4-0.5c0.1,0.2,0.4,0.3,0.6,0.4c0.3,0.1,0.5,0.2,0.8,0.2
			c0.3,0,0.6-0.1,0.8-0.2s0.3-0.3,0.3-0.5c0-0.2-0.1-0.3-0.3-0.5s-0.4-0.2-0.7-0.3c-0.3-0.1-0.5-0.1-0.8-0.2
			c-0.3-0.1-0.5-0.2-0.7-0.4c-0.2-0.2-0.3-0.4-0.3-0.7c0-0.4,0.1-0.7,0.4-0.9s0.7-0.4,1.2-0.4c0.7,0,1.2,0.2,1.6,0.6L46.8,28
			c-0.3-0.4-0.7-0.5-1.3-0.5c-0.3,0-0.5,0.1-0.7,0.2s-0.3,0.3-0.3,0.5c0,0.2,0.1,0.3,0.3,0.4c0.2,0.1,0.4,0.2,0.7,0.2
			c0.3,0.1,0.5,0.1,0.8,0.2c0.3,0.1,0.5,0.2,0.7,0.4c0.2,0.2,0.3,0.4,0.3,0.8c0,0.4-0.2,0.7-0.4,0.9C46.5,31.3,46.1,31.4,45.5,31.4z
			"/>
		<path class="st1" d="M49.5,31.4c-0.3,0-0.6-0.1-0.7-0.3c-0.2-0.2-0.2-0.4-0.2-0.8v-2.8h-0.7V27h0.7v-1.2h0.7V27H50v0.6h-0.9v2.7
			c0,0.2,0,0.3,0.1,0.4c0.1,0.1,0.2,0.2,0.3,0.2c0.2,0,0.4-0.1,0.5-0.2l0.2,0.5C50.1,31.3,49.8,31.4,49.5,31.4z"/>
		<path class="st1" d="M51.3,26.4c-0.1,0-0.2,0-0.3-0.1c-0.1-0.1-0.1-0.2-0.1-0.3c0-0.1,0-0.2,0.1-0.3c0.1-0.1,0.2-0.1,0.3-0.1
			c0.1,0,0.2,0,0.3,0.1s0.1,0.2,0.1,0.3c0,0.1,0,0.2-0.1,0.3C51.6,26.3,51.5,26.4,51.3,26.4z M51.7,31.3H51V27h0.7V31.3z"/>
		<path class="st1" d="M56.6,31.3H56v-2.8c0-0.4-0.1-0.6-0.3-0.8s-0.4-0.2-0.7-0.2c-0.3,0-0.5,0.1-0.7,0.2c-0.2,0.1-0.4,0.3-0.6,0.5
			v3.2H53V27h0.7v0.6c0.2-0.2,0.4-0.4,0.7-0.5c0.3-0.1,0.6-0.2,0.9-0.2c0.9,0,1.4,0.5,1.4,1.4V31.3z"/>
		<path class="st1" d="M59.9,31.4c-0.6,0-1.2-0.2-1.6-0.6c-0.4-0.4-0.6-1-0.6-1.7c0-0.6,0.2-1.2,0.6-1.6s0.9-0.7,1.5-0.7
			c0.6,0,1.2,0.2,1.5,0.7s0.6,1,0.6,1.7v0.2h-3.5c0,0.4,0.2,0.8,0.5,1.1c0.3,0.3,0.6,0.4,1.1,0.4c0.5,0,1-0.2,1.3-0.5l0.3,0.4
			C61.2,31.2,60.7,31.4,59.9,31.4z M61.3,28.9c0-0.4-0.1-0.7-0.4-1c-0.2-0.3-0.6-0.4-1.1-0.4c-0.4,0-0.8,0.1-1,0.4
			c-0.2,0.3-0.4,0.6-0.4,1H61.3z"/>
	</g>
	<g>
		<path class="st1" d="M125.3,19.3h-0.7v-6h0.7V19.3z"/>
		<path class="st1" d="M127.3,19.3h-0.7v-4.3h0.7v0.7c0.4-0.5,0.9-0.8,1.4-0.8v0.7c-0.1,0-0.2,0-0.3,0c-0.2,0-0.4,0.1-0.7,0.2
			c-0.2,0.1-0.4,0.3-0.5,0.5V19.3z"/>
		<path class="st1" d="M133,19.3h-0.7v-0.5c-0.4,0.4-0.8,0.6-1.4,0.6c-0.4,0-0.8-0.1-1.1-0.4c-0.3-0.3-0.5-0.6-0.5-1.1
			c0-0.5,0.2-0.8,0.5-1.1c0.3-0.2,0.7-0.4,1.1-0.4c0.6,0,1.1,0.2,1.4,0.6v-0.8c0-0.3-0.1-0.5-0.3-0.7c-0.2-0.2-0.5-0.2-0.8-0.2
			c-0.5,0-1,0.2-1.3,0.6l-0.3-0.5c0.5-0.5,1-0.7,1.7-0.7c0.5,0,0.9,0.1,1.2,0.4s0.5,0.6,0.5,1.1V19.3z M131.1,18.9
			c0.5,0,0.9-0.2,1.2-0.5v-0.8c-0.3-0.4-0.7-0.5-1.2-0.5c-0.3,0-0.6,0.1-0.8,0.3s-0.3,0.4-0.3,0.7c0,0.3,0.1,0.5,0.3,0.7
			C130.6,18.8,130.8,18.9,131.1,18.9z"/>
		<path class="st1" d="M136,19.4c-0.6,0-1-0.2-1.4-0.6s-0.5-1-0.5-1.7c0-0.7,0.2-1.2,0.5-1.7c0.4-0.4,0.8-0.6,1.4-0.6
			c0.3,0,0.6,0.1,0.8,0.2s0.5,0.3,0.6,0.5v-0.6h0.7v6h-0.7v-2.3C137.1,19.1,136.6,19.4,136,19.4z M136.2,18.8c0.3,0,0.5-0.1,0.8-0.2
			c0.2-0.1,0.4-0.3,0.5-0.5v-2c-0.1-0.2-0.3-0.4-0.5-0.5c-0.2-0.1-0.5-0.2-0.8-0.2c-0.4,0-0.8,0.2-1,0.5c-0.2,0.3-0.4,0.7-0.4,1.2
			c0,0.5,0.1,0.9,0.4,1.2C135.4,18.6,135.8,18.8,136.2,18.8z"/>
	</g>
	<g>
		<path class="st1" d="M45.7,146.4c-1,0-1.7-0.3-2.3-1l0.4-0.6c0.5,0.6,1.1,0.9,1.9,0.9c0.5,0,0.8-0.1,1.1-0.3s0.3-0.4,0.3-0.7
			c0-0.2-0.1-0.4-0.2-0.5c-0.1-0.1-0.3-0.3-0.5-0.3s-0.4-0.2-0.7-0.2s-0.5-0.1-0.8-0.2s-0.5-0.2-0.7-0.3c-0.2-0.1-0.4-0.3-0.5-0.5
			c-0.1-0.2-0.2-0.5-0.2-0.7c0-0.5,0.2-0.9,0.6-1.2c0.4-0.3,0.9-0.5,1.5-0.5c0.9,0,1.6,0.3,2.1,0.8l-0.4,0.5c-0.4-0.5-1-0.7-1.7-0.7
			c-0.4,0-0.7,0.1-0.9,0.3s-0.3,0.4-0.3,0.7c0,0.2,0.1,0.4,0.3,0.5c0.2,0.1,0.4,0.2,0.7,0.3c0.3,0.1,0.5,0.1,0.9,0.2
			c0.3,0.1,0.6,0.2,0.9,0.3s0.5,0.3,0.7,0.5s0.3,0.5,0.3,0.9c0,0.5-0.2,0.9-0.5,1.3C47,146.3,46.4,146.4,45.7,146.4z"/>
		<path class="st1" d="M48.7,148l0.1-0.6c0.1,0,0.2,0.1,0.4,0.1c0.2,0,0.3,0,0.4-0.1c0.1-0.1,0.2-0.2,0.3-0.4l0.3-0.7l-1.8-4.4H49
			l1.4,3.6l1.4-3.6h0.7l-2.2,5.2c-0.2,0.6-0.7,0.9-1.3,0.9C49,148.1,48.8,148.1,48.7,148z"/>
		<path class="st1" d="M54,146.3h-0.7V142H54v0.7c0.4-0.5,0.9-0.8,1.4-0.8v0.7c-0.1,0-0.2,0-0.3,0c-0.2,0-0.4,0.1-0.7,0.2
			c-0.2,0.1-0.4,0.3-0.5,0.5V146.3z"/>
		<path class="st1" d="M56.6,141.3c-0.1,0-0.2,0-0.3-0.1c-0.1-0.1-0.1-0.2-0.1-0.3s0-0.2,0.1-0.3c0.1-0.1,0.2-0.1,0.3-0.1
			c0.1,0,0.2,0,0.3,0.1c0.1,0.1,0.1,0.2,0.1,0.3s0,0.2-0.1,0.3C56.8,141.3,56.7,141.3,56.6,141.3z M57,146.3h-0.7V142H57V146.3z"/>
		<path class="st1" d="M61.7,146.3H61v-0.5c-0.4,0.4-0.8,0.6-1.4,0.6c-0.4,0-0.8-0.1-1.1-0.4c-0.3-0.3-0.5-0.6-0.5-1.1
			c0-0.5,0.2-0.8,0.5-1.1c0.3-0.2,0.7-0.4,1.1-0.4c0.6,0,1.1,0.2,1.4,0.6v-0.8c0-0.3-0.1-0.5-0.3-0.7c-0.2-0.2-0.5-0.2-0.8-0.2
			c-0.5,0-1,0.2-1.3,0.6l-0.3-0.5c0.5-0.5,1-0.7,1.7-0.7c0.5,0,0.9,0.1,1.2,0.4s0.5,0.6,0.5,1.1V146.3z M59.8,145.9
			c0.5,0,0.9-0.2,1.2-0.5v-0.8c-0.3-0.4-0.7-0.5-1.2-0.5c-0.3,0-0.6,0.1-0.8,0.3c-0.2,0.2-0.3,0.4-0.3,0.7c0,0.3,0.1,0.5,0.3,0.7
			C59.3,145.8,59.5,145.9,59.8,145.9z"/>
	</g>
	<g>
		<path class="st1" d="M21.4,60.2h-0.9L20,58.9h-3l-0.5,1.3h-0.9l2.4-6H19L21.4,60.2z M19.8,58.2L18.6,55l-1.3,3.2H19.8z"/>
		<path class="st1" d="M23,60.2h-0.7v-3.8h-0.7v-0.6h0.7v-0.3c0-0.4,0.1-0.8,0.3-1s0.5-0.4,0.9-0.4c0.4,0,0.7,0.1,0.9,0.3l-0.3,0.4
			c-0.2-0.1-0.3-0.2-0.5-0.2c-0.2,0-0.4,0.1-0.5,0.2C23,55,23,55.2,23,55.5v0.3h0.9v0.6H23V60.2z"/>
		<path class="st1" d="M26.4,62c-0.4,0-0.7,0-1-0.1c-0.3-0.1-0.5-0.3-0.8-0.5l0.3-0.5c0.3,0.4,0.8,0.6,1.4,0.6c0.4,0,0.7-0.1,1-0.3
			c0.3-0.2,0.4-0.5,0.4-1v-0.6c-0.2,0.2-0.4,0.4-0.6,0.6s-0.5,0.2-0.8,0.2c-0.6,0-1-0.2-1.4-0.6s-0.5-1-0.5-1.6
			c0-0.7,0.2-1.2,0.5-1.6c0.4-0.4,0.8-0.6,1.4-0.6c0.6,0,1.1,0.3,1.5,0.8v-0.7h0.7v4.2c0,0.7-0.2,1.1-0.6,1.4S27,62,26.4,62z
			 M26.5,59.7c0.3,0,0.5-0.1,0.8-0.2c0.2-0.1,0.4-0.3,0.5-0.5V57c-0.1-0.2-0.3-0.4-0.5-0.5c-0.2-0.1-0.5-0.2-0.8-0.2
			c-0.4,0-0.8,0.2-1,0.5c-0.2,0.3-0.4,0.7-0.4,1.2c0,0.5,0.1,0.9,0.4,1.2C25.7,59.5,26.1,59.7,26.5,59.7z"/>
		<path class="st1" d="M33.4,60.2h-0.7v-2.9c0-0.4-0.1-0.6-0.3-0.8s-0.4-0.2-0.7-0.2c-0.2,0-0.5,0.1-0.7,0.2
			c-0.2,0.1-0.4,0.3-0.6,0.5v3.2h-0.7v-6h0.7v2.3c0.2-0.2,0.4-0.4,0.7-0.5s0.6-0.2,0.9-0.2c0.9,0,1.4,0.5,1.4,1.4V60.2z"/>
		<path class="st1" d="M38.2,60.2h-0.7v-0.5c-0.4,0.4-0.8,0.6-1.4,0.6c-0.4,0-0.8-0.1-1.1-0.4s-0.5-0.6-0.5-1.1
			c0-0.5,0.2-0.8,0.5-1.1s0.7-0.4,1.1-0.4c0.6,0,1.1,0.2,1.4,0.6v-0.8c0-0.3-0.1-0.5-0.3-0.7c-0.2-0.2-0.5-0.2-0.8-0.2
			c-0.5,0-1,0.2-1.3,0.6l-0.3-0.5c0.5-0.5,1-0.7,1.7-0.7c0.5,0,0.9,0.1,1.2,0.4c0.3,0.2,0.5,0.6,0.5,1.1V60.2z M36.3,59.8
			c0.5,0,0.9-0.2,1.2-0.5v-0.8c-0.3-0.4-0.7-0.5-1.2-0.5c-0.3,0-0.6,0.1-0.8,0.3c-0.2,0.2-0.3,0.4-0.3,0.7c0,0.3,0.1,0.5,0.3,0.7
			C35.7,59.7,36,59.8,36.3,59.8z"/>
		<path class="st1" d="M43.1,60.2h-0.7v-2.8c0-0.4-0.1-0.6-0.3-0.8c-0.2-0.2-0.4-0.2-0.7-0.2c-0.3,0-0.5,0.1-0.7,0.2
			c-0.2,0.1-0.4,0.3-0.6,0.5v3.2h-0.7v-4.3h0.7v0.6c0.2-0.2,0.4-0.4,0.7-0.5s0.6-0.2,0.9-0.2c0.9,0,1.4,0.5,1.4,1.4V60.2z"/>
		<path class="st1" d="M44.8,55.2c-0.1,0-0.2,0-0.3-0.1c-0.1-0.1-0.1-0.2-0.1-0.3s0-0.2,0.1-0.3c0.1-0.1,0.2-0.1,0.3-0.1
			c0.1,0,0.2,0,0.3,0.1s0.1,0.2,0.1,0.3s0,0.2-0.1,0.3S44.9,55.2,44.8,55.2z M45.2,60.2h-0.7v-4.3h0.7V60.2z"/>
		<path class="st1" d="M47.9,60.3c-0.7,0-1.3-0.2-1.8-0.7l0.4-0.5c0.2,0.2,0.4,0.3,0.6,0.4c0.3,0.1,0.5,0.2,0.8,0.2
			c0.3,0,0.6-0.1,0.8-0.2c0.2-0.1,0.3-0.3,0.3-0.5c0-0.2-0.1-0.3-0.3-0.5c-0.2-0.1-0.4-0.2-0.7-0.3c-0.3-0.1-0.5-0.1-0.8-0.2
			c-0.3-0.1-0.5-0.2-0.7-0.4c-0.2-0.2-0.3-0.4-0.3-0.7c0-0.4,0.1-0.7,0.4-0.9c0.3-0.2,0.7-0.4,1.2-0.4c0.7,0,1.2,0.2,1.6,0.6
			l-0.3,0.5c-0.3-0.4-0.7-0.5-1.3-0.5c-0.3,0-0.5,0.1-0.7,0.2c-0.2,0.1-0.3,0.3-0.3,0.5c0,0.2,0.1,0.3,0.3,0.4
			c0.2,0.1,0.4,0.2,0.7,0.2s0.5,0.1,0.8,0.2s0.5,0.2,0.7,0.4c0.2,0.2,0.3,0.4,0.3,0.8c0,0.4-0.2,0.7-0.5,0.9
			C48.9,60.2,48.4,60.3,47.9,60.3z"/>
		<path class="st1" d="M51.8,60.3c-0.3,0-0.6-0.1-0.7-0.3c-0.2-0.2-0.2-0.4-0.2-0.8v-2.8h-0.7v-0.6h0.7v-1.2h0.7v1.2h0.9v0.6h-0.9
			v2.7c0,0.2,0,0.3,0.1,0.4c0.1,0.1,0.2,0.2,0.3,0.2c0.2,0,0.4-0.1,0.5-0.2l0.2,0.5C52.4,60.2,52.1,60.3,51.8,60.3z"/>
		<path class="st1" d="M56.7,60.2h-0.7v-0.5c-0.4,0.4-0.8,0.6-1.4,0.6c-0.4,0-0.8-0.1-1.1-0.4c-0.3-0.3-0.5-0.6-0.5-1.1
			c0-0.5,0.2-0.8,0.5-1.1s0.7-0.4,1.1-0.4c0.6,0,1.1,0.2,1.4,0.6v-0.8c0-0.3-0.1-0.5-0.3-0.7s-0.5-0.2-0.8-0.2c-0.5,0-1,0.2-1.3,0.6
			l-0.3-0.5c0.5-0.5,1-0.7,1.7-0.7c0.5,0,0.9,0.1,1.2,0.4c0.3,0.2,0.5,0.6,0.5,1.1V60.2z M54.9,59.8c0.5,0,0.9-0.2,1.2-0.5v-0.8
			c-0.3-0.4-0.7-0.5-1.2-0.5c-0.3,0-0.6,0.1-0.8,0.3c-0.2,0.2-0.3,0.4-0.3,0.7c0,0.3,0.1,0.5,0.3,0.7C54.3,59.7,54.6,59.8,54.9,59.8
			z"/>
		<path class="st1" d="M61.7,60.2H61v-2.8c0-0.4-0.1-0.6-0.3-0.8c-0.2-0.2-0.4-0.2-0.7-0.2c-0.3,0-0.5,0.1-0.7,0.2
			c-0.2,0.1-0.4,0.3-0.6,0.5v3.2h-0.7v-4.3h0.7v0.6c0.2-0.2,0.4-0.4,0.7-0.5c0.3-0.1,0.6-0.2,0.9-0.2c0.9,0,1.4,0.5,1.4,1.4V60.2z"
			/>
	</g>
	<g>
		<path class="st1" d="M49,90.4h-0.7v-6H49V90.4z"/>
		<path class="st1" d="M51.1,90.4h-0.7V86h0.7v0.7c0.4-0.5,0.9-0.8,1.4-0.8v0.7c-0.1,0-0.2,0-0.3,0c-0.2,0-0.4,0.1-0.7,0.2
			c-0.2,0.1-0.4,0.3-0.5,0.5V90.4z"/>
		<path class="st1" d="M56.7,90.4h-0.7v-0.5c-0.4,0.4-0.8,0.6-1.4,0.6c-0.4,0-0.8-0.1-1.1-0.4c-0.3-0.3-0.5-0.6-0.5-1.1
			c0-0.5,0.2-0.8,0.5-1.1c0.3-0.2,0.7-0.4,1.1-0.4c0.6,0,1.1,0.2,1.4,0.6v-0.8c0-0.3-0.1-0.5-0.3-0.7c-0.2-0.2-0.5-0.2-0.8-0.2
			c-0.5,0-1,0.2-1.3,0.6l-0.3-0.5c0.5-0.5,1-0.7,1.7-0.7c0.5,0,0.9,0.1,1.2,0.4s0.5,0.6,0.5,1.1V90.4z M54.9,90
			c0.5,0,0.9-0.2,1.2-0.5v-0.8c-0.3-0.4-0.7-0.5-1.2-0.5c-0.3,0-0.6,0.1-0.8,0.3c-0.2,0.2-0.3,0.4-0.3,0.7c0,0.3,0.1,0.5,0.3,0.7
			C54.3,89.9,54.6,90,54.9,90z"/>
		<path class="st1" d="M61.7,90.4H61v-2.8c0-0.4-0.1-0.6-0.3-0.8c-0.2-0.2-0.4-0.2-0.7-0.2c-0.3,0-0.5,0.1-0.7,0.2
			c-0.2,0.1-0.4,0.3-0.6,0.5v3.2h-0.7V86h0.7v0.6c0.2-0.2,0.4-0.4,0.7-0.5c0.3-0.1,0.6-0.2,0.9-0.2c0.9,0,1.4,0.5,1.4,1.4V90.4z"/>
	</g>
	<g>
		<path class="st1" d="M30.8,118.2H30v-6h2.4c0.6,0,1,0.2,1.4,0.5c0.3,0.3,0.5,0.8,0.5,1.3c0,0.5-0.2,0.9-0.5,1.3
			c-0.3,0.3-0.8,0.5-1.4,0.5h-1.7V118.2z M32.4,115.1c0.4,0,0.6-0.1,0.9-0.3c0.2-0.2,0.3-0.5,0.3-0.8s-0.1-0.6-0.3-0.8
			c-0.2-0.2-0.5-0.3-0.9-0.3h-1.6v2.3H32.4z"/>
		<path class="st1" d="M38.5,118.2h-0.7v-0.5c-0.4,0.4-0.8,0.6-1.4,0.6c-0.4,0-0.8-0.1-1.1-0.4c-0.3-0.3-0.5-0.6-0.5-1.1
			c0-0.5,0.2-0.8,0.5-1.1c0.3-0.2,0.7-0.4,1.1-0.4c0.6,0,1.1,0.2,1.4,0.6v-0.8c0-0.3-0.1-0.5-0.3-0.7c-0.2-0.2-0.5-0.2-0.8-0.2
			c-0.5,0-1,0.2-1.3,0.6l-0.3-0.5c0.5-0.5,1-0.7,1.7-0.7c0.5,0,0.9,0.1,1.2,0.4s0.5,0.6,0.5,1.1V118.2z M36.6,117.8
			c0.5,0,0.9-0.2,1.2-0.5v-0.8c-0.3-0.4-0.7-0.5-1.2-0.5c-0.3,0-0.6,0.1-0.8,0.3c-0.2,0.2-0.3,0.4-0.3,0.7c0,0.3,0.1,0.5,0.3,0.7
			C36.1,117.7,36.3,117.8,36.6,117.8z"/>
		<path class="st1" d="M43.7,118.2h-0.9l-1.6-2l-0.7,0.7v1.2h-0.7v-6h0.7v4l2.3-2.3h0.9l-1.9,2L43.7,118.2z"/>
		<path class="st1" d="M44.8,113.2c-0.1,0-0.2,0-0.3-0.1c-0.1-0.1-0.1-0.2-0.1-0.3s0-0.2,0.1-0.3c0.1-0.1,0.2-0.1,0.3-0.1
			c0.1,0,0.2,0,0.3,0.1c0.1,0.1,0.1,0.2,0.1,0.3s0,0.2-0.1,0.3C45.1,113.2,44.9,113.2,44.8,113.2z M45.2,118.2h-0.7v-4.3h0.7V118.2z
			"/>
		<path class="st1" d="M47.9,118.3c-0.7,0-1.3-0.2-1.8-0.7l0.4-0.5c0.2,0.2,0.4,0.3,0.6,0.4c0.3,0.1,0.5,0.2,0.8,0.2
			c0.3,0,0.6-0.1,0.8-0.2c0.2-0.1,0.3-0.3,0.3-0.5c0-0.2-0.1-0.3-0.3-0.5c-0.2-0.1-0.4-0.2-0.7-0.3c-0.3-0.1-0.5-0.1-0.8-0.2
			c-0.3-0.1-0.5-0.2-0.7-0.4c-0.2-0.2-0.3-0.4-0.3-0.7c0-0.4,0.1-0.7,0.4-0.9s0.7-0.4,1.2-0.4c0.7,0,1.2,0.2,1.6,0.6l-0.3,0.5
			c-0.3-0.4-0.7-0.5-1.3-0.5c-0.3,0-0.5,0.1-0.7,0.2c-0.2,0.1-0.3,0.3-0.3,0.5c0,0.2,0.1,0.3,0.3,0.4c0.2,0.1,0.4,0.2,0.7,0.2
			s0.5,0.1,0.8,0.2s0.5,0.2,0.7,0.4c0.2,0.2,0.3,0.4,0.3,0.8c0,0.4-0.2,0.7-0.5,0.9C48.9,118.2,48.4,118.3,47.9,118.3z"/>
		<path class="st1" d="M51.8,118.3c-0.3,0-0.6-0.1-0.7-0.3c-0.2-0.2-0.2-0.4-0.2-0.8v-2.8h-0.7v-0.6h0.7v-1.2h0.7v1.2h0.9v0.6h-0.9
			v2.7c0,0.2,0,0.3,0.1,0.4c0.1,0.1,0.2,0.2,0.3,0.2c0.2,0,0.4-0.1,0.5-0.2l0.2,0.5C52.4,118.2,52.1,118.3,51.8,118.3z"/>
		<path class="st1" d="M56.7,118.2h-0.7v-0.5c-0.4,0.4-0.8,0.6-1.4,0.6c-0.4,0-0.8-0.1-1.1-0.4c-0.3-0.3-0.5-0.6-0.5-1.1
			c0-0.5,0.2-0.8,0.5-1.1c0.3-0.2,0.7-0.4,1.1-0.4c0.6,0,1.1,0.2,1.4,0.6v-0.8c0-0.3-0.1-0.5-0.3-0.7s-0.5-0.2-0.8-0.2
			c-0.5,0-1,0.2-1.3,0.6l-0.3-0.5c0.5-0.5,1-0.7,1.7-0.7c0.5,0,0.9,0.1,1.2,0.4c0.3,0.2,0.5,0.6,0.5,1.1V118.2z M54.9,117.8
			c0.5,0,0.9-0.2,1.2-0.5v-0.8c-0.3-0.4-0.7-0.5-1.2-0.5c-0.3,0-0.6,0.1-0.8,0.3c-0.2,0.2-0.3,0.4-0.3,0.7c0,0.3,0.1,0.5,0.3,0.7
			C54.3,117.7,54.6,117.8,54.9,117.8z"/>
		<path class="st1" d="M61.7,118.2H61v-2.8c0-0.4-0.1-0.6-0.3-0.8c-0.2-0.2-0.4-0.2-0.7-0.2c-0.3,0-0.5,0.1-0.7,0.2
			c-0.2,0.1-0.4,0.3-0.6,0.5v3.2h-0.7v-4.3h0.7v0.6c0.2-0.2,0.4-0.4,0.7-0.5c0.3-0.1,0.6-0.2,0.9-0.2c0.9,0,1.4,0.5,1.4,1.4V118.2z"
			/>
	</g>
	<g>
		<path class="st0" d="M204.1,36.8c-0.4,0.2-0.9,0.4-1.5,0.4c-0.6,0-1.1-0.1-1.5-0.4c-0.4-0.2-0.8-0.6-1.1-1
			c-0.3-0.4-0.5-0.9-0.6-1.4c-0.1-0.5-0.2-1-0.2-1.6c0-0.5,0.1-1.1,0.2-1.6c0.1-0.5,0.3-1,0.6-1.4c0.3-0.4,0.6-0.7,1.1-1
			c0.4-0.2,0.9-0.4,1.5-0.4c0.6,0,1.1,0.1,1.5,0.4c0.4,0.2,0.8,0.6,1,1c0.3,0.4,0.5,0.9,0.6,1.4s0.2,1,0.2,1.6
			c0,0.5-0.1,1.1-0.2,1.6s-0.3,1-0.6,1.4C204.9,36.2,204.6,36.5,204.1,36.8z M201.2,35c0.3,0.6,0.8,0.8,1.4,0.8
			c0.6,0,1.1-0.3,1.4-0.8s0.5-1.3,0.5-2.2c0-0.6-0.1-1.1-0.2-1.5c-0.1-0.4-0.3-0.8-0.6-1.1c-0.3-0.3-0.6-0.4-1.1-0.4
			c-0.4,0-0.8,0.1-1.1,0.4s-0.5,0.6-0.6,1.1c-0.1,0.4-0.2,0.9-0.2,1.5C200.8,33.7,200.9,34.4,201.2,35z"/>
	</g>
	<g>
		<path class="st0" d="M202.6,74.7h-1.5v-6.4l-1.4,1.4l-0.9-0.9l2.4-2.4h1.3V74.7z"/>
		<path class="st0" d="M206,74.2c0,0.4-0.1,0.8-0.3,1.2c-0.2,0.4-0.5,0.7-0.9,0.9l-0.6-0.5c0.2-0.1,0.4-0.3,0.6-0.5
			c0.2-0.2,0.3-0.4,0.3-0.6c-0.1,0-0.1,0-0.2,0c-0.2,0-0.4-0.1-0.5-0.2c-0.1-0.1-0.2-0.3-0.2-0.6s0.1-0.4,0.2-0.6
			c0.2-0.2,0.4-0.3,0.6-0.3c0.3,0,0.5,0.1,0.7,0.3C205.9,73.6,206,73.9,206,74.2z"/>
		<path class="st0" d="M212.6,74.2c-0.6,0.4-1.4,0.6-2.3,0.6c-0.9,0-1.7-0.2-2.3-0.6c-0.6-0.4-0.9-1-0.9-1.7c0-0.5,0.2-1,0.5-1.3
			c0.4-0.4,0.8-0.7,1.3-0.8c-0.5-0.2-0.9-0.4-1.3-0.7c-0.3-0.3-0.5-0.7-0.5-1.2c0-0.4,0.1-0.7,0.3-1c0.2-0.3,0.4-0.5,0.7-0.7
			s0.6-0.3,1-0.4c0.4-0.1,0.7-0.1,1.1-0.1c0.4,0,0.8,0,1.1,0.1c0.3,0.1,0.7,0.2,1,0.4c0.3,0.2,0.5,0.4,0.7,0.7s0.3,0.6,0.3,1
			c0,0.9-0.6,1.6-1.8,2c0.5,0.2,1,0.5,1.3,0.8c0.4,0.4,0.5,0.8,0.5,1.3C213.5,73.3,213.2,73.8,212.6,74.2z M210.3,73.6
			c0.5,0,0.9-0.1,1.2-0.3c0.3-0.2,0.5-0.5,0.5-0.8c0-0.4-0.2-0.7-0.6-0.9c-0.4-0.2-0.8-0.4-1.1-0.4c-0.2,0-0.4,0.1-0.7,0.2
			c-0.2,0.1-0.5,0.2-0.7,0.4c-0.2,0.2-0.3,0.4-0.3,0.7c0,0.3,0.2,0.6,0.5,0.8C209.4,73.4,209.8,73.6,210.3,73.6z M210.3,69.8
			c0.2,0,0.4-0.1,0.6-0.2c0.2-0.1,0.4-0.2,0.6-0.4c0.2-0.2,0.3-0.4,0.3-0.6c0-0.3-0.1-0.6-0.4-0.8c-0.3-0.2-0.7-0.3-1.1-0.3
			c-0.5,0-0.8,0.1-1.1,0.3c-0.3,0.2-0.4,0.5-0.4,0.8c0,0.2,0.1,0.5,0.3,0.6c0.2,0.2,0.4,0.3,0.6,0.4
			C209.9,69.7,210.1,69.8,210.3,69.8z"/>
		<path class="st0" d="M218,74.9c-0.6,0-1.1-0.1-1.6-0.3c-0.5-0.2-0.8-0.5-1.1-0.9s-0.5-0.9-0.6-1.4c-0.1-0.5-0.2-1.1-0.2-1.7
			c0-1.3,0.3-2.3,1-3.1c0.6-0.8,1.5-1.2,2.7-1.2c1,0,1.8,0.3,2.4,0.9l-0.7,1.1c-0.5-0.5-1-0.7-1.7-0.7c-0.7,0-1.2,0.3-1.6,0.8
			c-0.4,0.5-0.6,1.2-0.6,1.9c0,0.1,0,0.2,0,0.2c0.2-0.3,0.5-0.6,0.9-0.8s0.8-0.4,1.3-0.4c0.8,0,1.5,0.2,2,0.7c0.5,0.5,0.8,1.1,0.8,2
			c0,0.8-0.3,1.5-0.8,2C219.6,74.6,218.9,74.9,218,74.9z M217.9,73.6c0.5,0,0.9-0.1,1.2-0.4c0.3-0.3,0.4-0.6,0.4-1
			c0-0.5-0.2-0.9-0.5-1.1c-0.3-0.3-0.7-0.4-1.2-0.4c-0.3,0-0.7,0.1-1,0.3c-0.3,0.2-0.6,0.4-0.8,0.7c0,0.5,0.2,1,0.5,1.4
			C216.9,73.4,217.3,73.6,217.9,73.6z"/>
		<path class="st0" d="M226.9,74.5c-0.4,0.2-0.9,0.4-1.5,0.4s-1.1-0.1-1.5-0.4s-0.8-0.6-1-1c-0.3-0.4-0.5-0.9-0.6-1.4
			c-0.1-0.5-0.2-1-0.2-1.6c0-0.5,0.1-1.1,0.2-1.6c0.1-0.5,0.3-1,0.6-1.4c0.3-0.4,0.6-0.7,1-1s0.9-0.4,1.5-0.4s1.1,0.1,1.5,0.4
			s0.8,0.6,1.1,1c0.3,0.4,0.5,0.9,0.6,1.4s0.2,1,0.2,1.6c0,0.5-0.1,1.1-0.2,1.6s-0.3,1-0.6,1.4C227.7,73.9,227.3,74.2,226.9,74.5z
			 M224,72.7c0.3,0.6,0.8,0.8,1.4,0.8c0.6,0,1.1-0.3,1.4-0.8s0.5-1.3,0.5-2.2c0-0.6-0.1-1.1-0.2-1.5c-0.1-0.4-0.3-0.8-0.6-1.1
			c-0.3-0.3-0.6-0.4-1.1-0.4s-0.8,0.1-1.1,0.4c-0.3,0.3-0.5,0.6-0.6,1.1c-0.1,0.4-0.2,0.9-0.2,1.5C223.5,71.4,223.7,72.1,224,72.7z"
			/>
	</g>
	<g>
		<path class="st0" d="M202.7,102.2c-0.6,0-1.1-0.1-1.6-0.3c-0.5-0.2-0.8-0.5-1.1-0.9s-0.5-0.9-0.6-1.4c-0.1-0.5-0.2-1.1-0.2-1.7
			c0-1.3,0.3-2.3,1-3.1c0.6-0.8,1.5-1.2,2.7-1.2c1,0,1.8,0.3,2.4,0.9l-0.7,1.1c-0.5-0.5-1-0.7-1.7-0.7c-0.7,0-1.2,0.3-1.6,0.8
			c-0.4,0.5-0.6,1.2-0.6,1.9c0,0.1,0,0.2,0,0.2c0.2-0.3,0.5-0.6,0.9-0.8s0.8-0.3,1.3-0.3c0.8,0,1.5,0.2,2,0.7c0.5,0.5,0.8,1.1,0.8,2
			c0,0.8-0.3,1.5-0.8,2S203.6,102.2,202.7,102.2z M202.7,100.9c0.5,0,0.9-0.1,1.2-0.4c0.3-0.3,0.4-0.6,0.4-1c0-0.5-0.2-0.9-0.5-1.1
			s-0.7-0.4-1.2-0.4c-0.3,0-0.7,0.1-1,0.3c-0.3,0.2-0.6,0.4-0.8,0.7c0,0.5,0.2,1,0.5,1.4C201.6,100.7,202.1,100.9,202.7,100.9z"/>
		<path class="st0" d="M211.6,101.9c-0.4,0.2-0.9,0.4-1.5,0.4s-1.1-0.1-1.5-0.4s-0.8-0.6-1-1c-0.3-0.4-0.5-0.9-0.6-1.4
			c-0.1-0.5-0.2-1-0.2-1.6c0-0.5,0.1-1.1,0.2-1.6c0.1-0.5,0.3-1,0.6-1.4s0.6-0.7,1-1s0.9-0.4,1.5-0.4s1.1,0.1,1.5,0.4s0.8,0.6,1.1,1
			c0.3,0.4,0.5,0.9,0.6,1.4s0.2,1,0.2,1.6c0,0.5-0.1,1.1-0.2,1.6s-0.3,1-0.6,1.4C212.4,101.3,212.1,101.6,211.6,101.9z M208.7,100.1
			c0.3,0.6,0.8,0.9,1.4,0.9c0.6,0,1.1-0.3,1.4-0.9c0.3-0.6,0.5-1.3,0.5-2.2c0-0.6-0.1-1.1-0.2-1.5c-0.1-0.4-0.3-0.8-0.6-1.1
			c-0.3-0.3-0.6-0.4-1.1-0.4s-0.8,0.1-1.1,0.4c-0.3,0.3-0.5,0.6-0.6,1.1c-0.1,0.4-0.2,0.9-0.2,1.5
			C208.3,98.8,208.4,99.5,208.7,100.1z"/>
	</g>
	<g>
		<path class="st0" d="M28.8,159.7h-6v-1.2c1.7-1.3,2.9-2.3,3.6-2.9c0.6-0.6,0.9-1.2,0.9-1.8c0-0.4-0.1-0.7-0.4-0.9
			c-0.3-0.2-0.7-0.3-1.1-0.3c-0.9,0-1.7,0.3-2.2,1l-0.8-1c0.4-0.4,0.8-0.8,1.4-1c0.5-0.2,1.1-0.3,1.7-0.3c0.9,0,1.6,0.2,2.2,0.7
			c0.6,0.5,0.9,1.1,0.9,1.9c0,0.7-0.3,1.4-0.9,2.1c-0.6,0.7-1.5,1.5-2.8,2.5h3.7V159.7z"/>
		<path class="st0" d="M33,159.9c-0.7,0-1.3-0.1-1.9-0.4c-0.5-0.2-1-0.6-1.3-1l0.8-1c0.3,0.3,0.6,0.6,1,0.7c0.4,0.2,0.8,0.3,1.3,0.3
			c0.5,0,1-0.1,1.3-0.3s0.5-0.5,0.5-0.9c0-0.8-0.6-1.2-1.8-1.2c-0.6,0-0.9,0-1,0v-1.3c0.1,0,0.4,0,1,0c0.5,0,0.9-0.1,1.2-0.3
			c0.3-0.2,0.5-0.5,0.5-0.8c0-0.4-0.2-0.7-0.5-0.9c-0.3-0.2-0.7-0.3-1.2-0.3c-0.8,0-1.5,0.3-2.1,0.9l-0.8-0.9c0.7-0.9,1.8-1.3,3-1.3
			c0.9,0,1.6,0.2,2.2,0.6c0.5,0.4,0.8,1,0.8,1.6c0,0.5-0.2,0.9-0.5,1.3c-0.4,0.3-0.8,0.5-1.3,0.6c0.5,0,0.9,0.2,1.3,0.6
			c0.4,0.4,0.6,0.8,0.6,1.4c0,0.7-0.3,1.3-0.9,1.8C34.8,159.7,34,159.9,33,159.9z"/>
		<path class="st0" d="M39.2,159.3c0,0.4-0.1,0.8-0.3,1.2c-0.2,0.4-0.5,0.7-0.9,0.9l-0.6-0.5c0.2-0.1,0.4-0.3,0.6-0.5
			c0.2-0.2,0.3-0.4,0.3-0.6c-0.1,0-0.1,0-0.2,0c-0.2,0-0.4-0.1-0.5-0.2s-0.2-0.3-0.2-0.6c0-0.2,0.1-0.4,0.2-0.6
			c0.2-0.2,0.4-0.3,0.6-0.3c0.3,0,0.5,0.1,0.7,0.3S39.2,158.9,39.2,159.3z"/>
		<path class="st0" d="M44.9,159.5c-0.4,0.2-0.9,0.4-1.5,0.4s-1.1-0.1-1.5-0.4s-0.8-0.6-1-1s-0.5-0.9-0.6-1.4
			c-0.1-0.5-0.2-1-0.2-1.6s0.1-1.1,0.2-1.6c0.1-0.5,0.3-1,0.6-1.4c0.3-0.4,0.6-0.7,1-1s0.9-0.4,1.5-0.4s1.1,0.1,1.5,0.4
			s0.8,0.6,1.1,1c0.3,0.4,0.5,0.9,0.6,1.4s0.2,1,0.2,1.6s-0.1,1.1-0.2,1.6s-0.3,1-0.6,1.4C45.7,158.9,45.3,159.3,44.9,159.5z
			 M42,157.7c0.3,0.6,0.8,0.8,1.4,0.8c0.6,0,1.1-0.3,1.4-0.8s0.5-1.3,0.5-2.2c0-0.6-0.1-1.1-0.2-1.5s-0.3-0.8-0.6-1.1
			c-0.3-0.3-0.6-0.4-1.1-0.4s-0.8,0.1-1.1,0.4c-0.3,0.3-0.5,0.6-0.6,1.1s-0.2,0.9-0.2,1.5C41.5,156.4,41.7,157.2,42,157.7z"/>
		<path class="st0" d="M52.6,159.5c-0.4,0.2-0.9,0.4-1.5,0.4c-0.6,0-1.1-0.1-1.5-0.4c-0.4-0.2-0.8-0.6-1.1-1s-0.5-0.9-0.6-1.4
			c-0.1-0.5-0.2-1-0.2-1.6s0.1-1.1,0.2-1.6c0.1-0.5,0.3-1,0.6-1.4c0.3-0.4,0.6-0.7,1.1-1c0.4-0.2,0.9-0.4,1.5-0.4
			c0.6,0,1.1,0.1,1.5,0.4c0.4,0.2,0.8,0.6,1,1c0.3,0.4,0.5,0.9,0.6,1.4s0.2,1,0.2,1.6s-0.1,1.1-0.2,1.6s-0.3,1-0.6,1.4
			C53.4,158.9,53,159.3,52.6,159.5z M49.7,157.7c0.3,0.6,0.8,0.8,1.4,0.8c0.6,0,1.1-0.3,1.4-0.8s0.5-1.3,0.5-2.2
			c0-0.6-0.1-1.1-0.2-1.5s-0.3-0.8-0.6-1.1c-0.3-0.3-0.6-0.4-1.1-0.4c-0.4,0-0.8,0.1-1.1,0.4c-0.3,0.3-0.5,0.6-0.6,1.1
			c-0.1,0.4-0.2,0.9-0.2,1.5C49.2,156.4,49.4,157.2,49.7,157.7z"/>
		<path class="st0" d="M60.3,159.5c-0.4,0.2-0.9,0.4-1.5,0.4s-1.1-0.1-1.5-0.4s-0.8-0.6-1-1s-0.5-0.9-0.6-1.4
			c-0.1-0.5-0.2-1-0.2-1.6s0.1-1.1,0.2-1.6c0.1-0.5,0.3-1,0.6-1.4c0.3-0.4,0.6-0.7,1-1s0.9-0.4,1.5-0.4s1.1,0.1,1.5,0.4
			s0.8,0.6,1.1,1c0.3,0.4,0.5,0.9,0.6,1.4s0.2,1,0.2,1.6s-0.1,1.1-0.2,1.6s-0.3,1-0.6,1.4C61.1,158.9,60.7,159.3,60.3,159.5z
			 M57.4,157.7c0.3,0.6,0.8,0.8,1.4,0.8c0.6,0,1.1-0.3,1.4-0.8s0.5-1.3,0.5-2.2c0-0.6-0.1-1.1-0.2-1.5s-0.3-0.8-0.6-1.1
			c-0.3-0.3-0.6-0.4-1.1-0.4s-0.8,0.1-1.1,0.4c-0.3,0.3-0.5,0.6-0.6,1.1s-0.2,0.9-0.2,1.5C56.9,156.4,57.1,157.2,57.4,157.7z"/>
	</g>
	<g>
		<path class="st0" d="M37,130c-0.6,0-1.1-0.1-1.6-0.3c-0.5-0.2-0.8-0.5-1.1-0.9s-0.5-0.9-0.6-1.4c-0.1-0.5-0.2-1.1-0.2-1.7
			c0-1.3,0.3-2.3,1-3.1c0.6-0.8,1.5-1.2,2.7-1.2c1,0,1.8,0.3,2.4,0.9l-0.7,1.1c-0.5-0.5-1-0.7-1.7-0.7c-0.7,0-1.2,0.3-1.6,0.8
			c-0.4,0.5-0.6,1.2-0.6,1.9c0,0.1,0,0.2,0,0.2c0.2-0.3,0.5-0.6,0.9-0.8s0.8-0.4,1.3-0.4c0.8,0,1.5,0.2,2,0.7c0.5,0.5,0.8,1.1,0.8,2
			c0,0.8-0.3,1.5-0.9,2C38.6,129.7,37.9,130,37,130z M36.9,128.7c0.5,0,0.9-0.1,1.2-0.4c0.3-0.3,0.5-0.6,0.5-1
			c0-0.5-0.2-0.9-0.5-1.1c-0.3-0.3-0.7-0.4-1.2-0.4c-0.4,0-0.7,0.1-1,0.3c-0.3,0.2-0.6,0.4-0.8,0.7c0,0.5,0.2,1,0.5,1.4
			C35.9,128.5,36.3,128.7,36.9,128.7z"/>
		<path class="st0" d="M43,129.3c0,0.4-0.1,0.8-0.3,1.2c-0.2,0.4-0.5,0.7-0.9,0.9l-0.6-0.5c0.2-0.1,0.4-0.3,0.6-0.5
			c0.2-0.2,0.3-0.4,0.3-0.6c-0.1,0-0.1,0-0.2,0c-0.2,0-0.4-0.1-0.5-0.2c-0.1-0.1-0.2-0.3-0.2-0.6s0.1-0.4,0.2-0.6
			c0.2-0.2,0.4-0.3,0.6-0.3c0.3,0,0.5,0.1,0.7,0.3C42.9,128.7,43,129,43,129.3z"/>
		<path class="st0" d="M46.3,129.8h-1.5v-6.4l-1.4,1.4l-0.9-0.9l2.4-2.4h1.3V129.8z"/>
		<path class="st0" d="M52.6,129.6c-0.4,0.2-0.9,0.4-1.5,0.4c-0.6,0-1.1-0.1-1.5-0.4c-0.4-0.2-0.8-0.6-1.1-1
			c-0.3-0.4-0.5-0.9-0.6-1.4c-0.1-0.5-0.2-1-0.2-1.6c0-0.5,0.1-1.1,0.2-1.6c0.1-0.5,0.3-1,0.6-1.4c0.3-0.4,0.6-0.7,1.1-1
			c0.4-0.2,0.9-0.4,1.5-0.4c0.6,0,1.1,0.1,1.5,0.4c0.4,0.2,0.8,0.6,1,1c0.3,0.4,0.5,0.9,0.6,1.4s0.2,1,0.2,1.6
			c0,0.5-0.1,1.1-0.2,1.6s-0.3,1-0.6,1.4C53.4,129,53,129.3,52.6,129.6z M49.7,127.8c0.3,0.6,0.8,0.8,1.4,0.8c0.6,0,1.1-0.3,1.4-0.8
			s0.5-1.3,0.5-2.2c0-0.6-0.1-1.1-0.2-1.5c-0.1-0.4-0.3-0.8-0.6-1.1c-0.3-0.3-0.6-0.4-1.1-0.4c-0.4,0-0.8,0.1-1.1,0.4
			s-0.5,0.6-0.6,1.1c-0.1,0.4-0.2,0.9-0.2,1.5C49.2,126.5,49.4,127.2,49.7,127.8z"/>
		<path class="st0" d="M60.3,129.6c-0.4,0.2-0.9,0.4-1.5,0.4s-1.1-0.1-1.5-0.4s-0.8-0.6-1-1c-0.3-0.4-0.5-0.9-0.6-1.4
			c-0.1-0.5-0.2-1-0.2-1.6c0-0.5,0.1-1.1,0.2-1.6c0.1-0.5,0.3-1,0.6-1.4c0.3-0.4,0.6-0.7,1-1s0.9-0.4,1.5-0.4s1.1,0.1,1.5,0.4
			s0.8,0.6,1.1,1c0.3,0.4,0.5,0.9,0.6,1.4s0.2,1,0.2,1.6c0,0.5-0.1,1.1-0.2,1.6s-0.3,1-0.6,1.4C61.1,129,60.7,129.3,60.3,129.6z
			 M57.4,127.8c0.3,0.6,0.8,0.8,1.4,0.8c0.6,0,1.1-0.3,1.4-0.8s0.5-1.3,0.5-2.2c0-0.6-0.1-1.1-0.2-1.5c-0.1-0.4-0.3-0.8-0.6-1.1
			c-0.3-0.3-0.6-0.4-1.1-0.4s-0.8,0.1-1.1,0.4c-0.3,0.3-0.5,0.6-0.6,1.1c-0.1,0.4-0.2,0.9-0.2,1.5C56.9,126.5,57.1,127.2,57.4,127.8
			z"/>
	</g>
	<g>
		<path class="st0" d="M45.9,103.2h-1.5v-1.9h-4v-1.2l3.4-5.3h2v5.2h1.1v1.3h-1.1V103.2z M44.5,100.1v-3.9l-2.5,3.9H44.5z"/>
		<path class="st0" d="M50.7,103.4c-1,0-1.8-0.3-2.4-0.9l0.7-1.1c0.5,0.5,1,0.7,1.7,0.7c0.7,0,1.3-0.3,1.6-0.8
			c0.4-0.5,0.6-1.2,0.6-1.9v-0.2c-0.2,0.3-0.5,0.6-0.9,0.8c-0.4,0.2-0.8,0.4-1.3,0.4c-0.8,0-1.5-0.2-2-0.7c-0.5-0.5-0.8-1.1-0.8-2
			c0-0.8,0.3-1.5,0.9-2c0.6-0.5,1.3-0.8,2.2-0.8c0.8,0,1.4,0.2,2,0.6s0.9,0.9,1.1,1.5c0.2,0.6,0.3,1.3,0.3,2.2c0,1.2-0.3,2.3-1,3.1
			S51.9,103.4,50.7,103.4z M51.1,99c0.4,0,0.7-0.1,1-0.3c0.3-0.2,0.6-0.4,0.8-0.7c0-0.5-0.2-1-0.5-1.4c-0.3-0.4-0.8-0.6-1.3-0.6
			c-0.5,0-0.9,0.1-1.2,0.4c-0.3,0.3-0.5,0.6-0.5,1c0,0.5,0.2,0.9,0.5,1.1C50.2,98.9,50.6,99,51.1,99z"/>
		<path class="st0" d="M60.3,103c-0.4,0.2-0.9,0.4-1.5,0.4s-1.1-0.1-1.5-0.4s-0.8-0.6-1.1-1c-0.3-0.4-0.5-0.9-0.6-1.4
			s-0.2-1-0.2-1.6c0-0.5,0.1-1.1,0.2-1.6s0.3-1,0.6-1.4c0.3-0.4,0.6-0.7,1.1-1s0.9-0.4,1.5-0.4s1.1,0.1,1.5,0.4s0.8,0.6,1,1
			c0.3,0.4,0.5,0.9,0.6,1.4c0.1,0.5,0.2,1,0.2,1.6c0,0.5-0.1,1.1-0.2,1.6c-0.1,0.5-0.3,1-0.6,1.4C61.1,102.4,60.7,102.8,60.3,103z
			 M57.4,101.2c0.3,0.6,0.8,0.8,1.4,0.8s1.1-0.3,1.4-0.8c0.3-0.6,0.4-1.3,0.4-2.2c0-0.6-0.1-1.1-0.2-1.5c-0.1-0.4-0.3-0.8-0.6-1.1
			s-0.6-0.4-1.1-0.4s-0.8,0.1-1.1,0.4c-0.3,0.3-0.5,0.6-0.6,1.1c-0.1,0.4-0.2,0.9-0.2,1.5C56.9,99.9,57.1,100.7,57.4,101.2z"/>
	</g>
	<g>
		<path class="st0" d="M29.2,72.7h-1.5v-6.4l-1.4,1.4l-0.9-0.9l2.4-2.4h1.3V72.7z"/>
		<path class="st0" d="M35.5,72.5c-0.4,0.2-0.9,0.4-1.5,0.4c-0.6,0-1.1-0.1-1.5-0.4c-0.4-0.2-0.8-0.6-1-1c-0.3-0.4-0.5-0.9-0.6-1.4
			s-0.2-1-0.2-1.6c0-0.5,0.1-1.1,0.2-1.6s0.3-1,0.6-1.4c0.3-0.4,0.6-0.7,1-1c0.4-0.2,0.9-0.4,1.5-0.4c0.6,0,1.1,0.1,1.5,0.4
			c0.4,0.2,0.8,0.6,1,1s0.5,0.9,0.6,1.4c0.1,0.5,0.2,1,0.2,1.6c0,0.5-0.1,1.1-0.2,1.6c-0.1,0.5-0.3,1-0.6,1.4
			C36.3,71.9,35.9,72.2,35.5,72.5z M32.6,70.7c0.3,0.6,0.8,0.8,1.4,0.8s1.1-0.3,1.4-0.8c0.3-0.6,0.5-1.3,0.5-2.2
			c0-0.6-0.1-1.1-0.2-1.5c-0.1-0.4-0.3-0.8-0.6-1.1c-0.3-0.3-0.6-0.4-1.1-0.4c-0.4,0-0.8,0.1-1.1,0.4c-0.3,0.3-0.5,0.6-0.6,1.1
			c-0.1,0.4-0.2,0.9-0.2,1.5C32.1,69.4,32.3,70.1,32.6,70.7z"/>
		<path class="st0" d="M40,72.2c0,0.4-0.1,0.8-0.3,1.2c-0.2,0.4-0.5,0.7-0.9,0.9l-0.6-0.5c0.2-0.1,0.4-0.3,0.6-0.5
			c0.2-0.2,0.3-0.4,0.3-0.7c-0.1,0-0.1,0-0.2,0c-0.2,0-0.4-0.1-0.5-0.2c-0.1-0.1-0.2-0.3-0.2-0.6s0.1-0.4,0.2-0.6s0.4-0.3,0.6-0.3
			c0.3,0,0.5,0.1,0.7,0.3C39.9,71.6,40,71.9,40,72.2z"/>
		<path class="st0" d="M44,72.9c-0.7,0-1.3-0.1-1.9-0.4c-0.5-0.2-1-0.6-1.3-1l0.8-1c0.3,0.3,0.6,0.6,1,0.7c0.4,0.2,0.8,0.3,1.3,0.3
			c0.5,0,1-0.1,1.3-0.3c0.3-0.2,0.5-0.5,0.5-0.9c0-0.8-0.6-1.2-1.8-1.2c-0.6,0-0.9,0-1,0v-1.3c0.1,0,0.4,0,1,0
			c0.5,0,0.9-0.1,1.2-0.3s0.5-0.5,0.5-0.8c0-0.4-0.2-0.7-0.5-0.9s-0.7-0.3-1.2-0.3c-0.8,0-1.5,0.3-2.2,0.9L41,65.6
			c0.7-0.9,1.8-1.3,3-1.3c0.9,0,1.6,0.2,2.2,0.6c0.6,0.4,0.8,1,0.8,1.6c0,0.5-0.2,0.9-0.5,1.3c-0.4,0.3-0.8,0.5-1.3,0.6
			c0.5,0,0.9,0.2,1.3,0.6s0.6,0.8,0.6,1.4c0,0.7-0.3,1.3-0.9,1.8C45.7,72.6,45,72.9,44,72.9z"/>
		<path class="st0" d="M51.2,72.9c-0.7,0-1.3-0.1-1.9-0.4s-1-0.6-1.3-1l0.8-1c0.3,0.3,0.6,0.6,1,0.7c0.4,0.2,0.8,0.3,1.3,0.3
			c0.5,0,1-0.1,1.3-0.3c0.3-0.2,0.5-0.5,0.5-0.9c0-0.8-0.6-1.2-1.9-1.2c-0.6,0-0.9,0-1,0v-1.3c0.1,0,0.4,0,1,0
			c0.5,0,0.9-0.1,1.2-0.3s0.5-0.5,0.5-0.8c0-0.4-0.2-0.7-0.5-0.9s-0.7-0.3-1.2-0.3c-0.8,0-1.5,0.3-2.1,0.9l-0.8-0.9
			c0.7-0.9,1.8-1.3,3-1.3c0.9,0,1.6,0.2,2.2,0.6c0.5,0.4,0.8,1,0.8,1.6c0,0.5-0.2,0.9-0.5,1.3c-0.4,0.3-0.8,0.5-1.3,0.6
			c0.5,0,0.9,0.2,1.3,0.6c0.4,0.4,0.6,0.8,0.6,1.4c0,0.7-0.3,1.3-0.9,1.8C52.9,72.6,52.1,72.9,51.2,72.9z"/>
		<path class="st0" d="M60.3,72.5c-0.4,0.2-0.9,0.4-1.5,0.4s-1.1-0.1-1.5-0.4s-0.8-0.6-1.1-1c-0.3-0.4-0.5-0.9-0.6-1.4
			s-0.2-1-0.2-1.6c0-0.5,0.1-1.1,0.2-1.6s0.3-1,0.6-1.4c0.3-0.4,0.6-0.7,1.1-1s0.9-0.4,1.5-0.4s1.1,0.1,1.5,0.4s0.8,0.6,1,1
			s0.5,0.9,0.6,1.4c0.1,0.5,0.2,1,0.2,1.6c0,0.5-0.1,1.1-0.2,1.6c-0.1,0.5-0.3,1-0.6,1.4C61.1,71.9,60.7,72.2,60.3,72.5z M57.4,70.7
			c0.3,0.6,0.8,0.8,1.4,0.8s1.1-0.3,1.4-0.8c0.3-0.6,0.4-1.3,0.4-2.2c0-0.6-0.1-1.1-0.2-1.5c-0.1-0.4-0.3-0.8-0.6-1.1
			c-0.3-0.3-0.6-0.4-1.1-0.4S58,65.7,57.7,66c-0.3,0.3-0.5,0.6-0.6,1.1c-0.1,0.4-0.2,0.9-0.2,1.5C56.9,69.4,57.1,70.1,57.4,70.7z"/>
	</g>
	<g>
		<path class="st0" d="M49.3,43.5h-1.5V37l-1.4,1.4l-0.8-0.9l2.4-2.4h1.3V43.5z"/>
		<path class="st0" d="M54,43.5h-1.5V37l-1.4,1.4l-0.8-0.9l2.4-2.4H54V43.5z"/>
		<path class="st0" d="M60.3,43.2c-0.4,0.2-0.9,0.4-1.5,0.4s-1.1-0.1-1.5-0.4s-0.8-0.6-1.1-1c-0.3-0.4-0.5-0.9-0.6-1.4
			s-0.2-1-0.2-1.6c0-0.5,0.1-1.1,0.2-1.6s0.3-1,0.6-1.4c0.3-0.4,0.6-0.7,1.1-1s0.9-0.4,1.5-0.4s1.1,0.1,1.5,0.4s0.8,0.6,1,1
			c0.3,0.4,0.5,0.9,0.6,1.4c0.1,0.5,0.2,1,0.2,1.6c0,0.5-0.1,1.1-0.2,1.6c-0.1,0.5-0.3,1-0.6,1.4C61.1,42.7,60.7,43,60.3,43.2z
			 M57.4,41.5c0.3,0.6,0.8,0.9,1.4,0.9s1.1-0.3,1.4-0.9c0.3-0.6,0.4-1.3,0.4-2.2c0-0.6-0.1-1.1-0.2-1.5c-0.1-0.4-0.3-0.8-0.6-1.1
			s-0.6-0.4-1.1-0.4s-0.8,0.1-1.1,0.4c-0.3,0.3-0.5,0.6-0.6,1.1c-0.1,0.4-0.2,0.9-0.2,1.5C56.9,40.2,57.1,40.9,57.4,41.5z"/>
	</g>
	<g>
		<path class="st0" d="M121.5,31.7h-6v-1.1c1.7-1.3,2.9-2.3,3.6-2.9c0.6-0.6,0.9-1.2,0.9-1.8c0-0.4-0.1-0.7-0.4-0.9
			s-0.7-0.3-1.1-0.3c-0.9,0-1.7,0.3-2.2,1l-0.8-1c0.4-0.4,0.8-0.8,1.4-1c0.5-0.2,1.1-0.3,1.7-0.3c0.8,0,1.6,0.2,2.2,0.7
			c0.6,0.5,0.9,1.1,0.9,1.9c0,0.7-0.3,1.4-0.9,2.1s-1.5,1.5-2.8,2.5h3.7V31.7z"/>
		<path class="st0" d="M124.8,31.2c0,0.4-0.1,0.8-0.3,1.2c-0.2,0.4-0.5,0.7-0.9,0.9l-0.6-0.5c0.2-0.1,0.4-0.3,0.6-0.5
			c0.2-0.2,0.3-0.4,0.3-0.6c-0.1,0-0.1,0-0.2,0c-0.2,0-0.4-0.1-0.5-0.2c-0.1-0.1-0.2-0.3-0.2-0.6s0.1-0.4,0.2-0.6
			c0.2-0.2,0.4-0.3,0.6-0.3c0.3,0,0.5,0.1,0.7,0.3C124.7,30.6,124.8,30.9,124.8,31.2z"/>
		<path class="st0" d="M132,31.7h-6v-1.1c1.7-1.3,2.9-2.3,3.6-2.9c0.6-0.6,0.9-1.2,0.9-1.8c0-0.4-0.1-0.7-0.4-0.9s-0.7-0.3-1.1-0.3
			c-0.9,0-1.7,0.3-2.2,1l-0.8-1c0.4-0.4,0.8-0.8,1.4-1c0.5-0.2,1.1-0.3,1.7-0.3c0.8,0,1.6,0.2,2.2,0.7c0.6,0.5,0.9,1.1,0.9,1.9
			c0,0.7-0.3,1.4-0.9,2.1s-1.5,1.5-2.8,2.5h3.7V31.7z"/>
		<path class="st0" d="M136.6,31.8c-1.3,0-2.4-0.4-3.1-1.3l0.8-1c0.6,0.7,1.3,1,2.2,1c0.5,0,0.9-0.1,1.2-0.4c0.3-0.3,0.5-0.6,0.5-1
			c0-0.5-0.2-0.8-0.5-1.1c-0.3-0.3-0.7-0.4-1.2-0.4c-0.7,0-1.3,0.2-1.8,0.7l-1-0.3v-4.7h5.5v1.3h-4v2.4c0.5-0.5,1.1-0.7,1.9-0.7
			c0.7,0,1.4,0.2,1.9,0.7c0.5,0.5,0.8,1.1,0.8,2c0,0.9-0.3,1.5-0.9,2.1C138.3,31.6,137.5,31.8,136.6,31.8z"/>
		<path class="st0" d="M144.1,31.8c-1.3,0-2.4-0.4-3.1-1.3l0.8-1c0.6,0.7,1.3,1,2.2,1c0.5,0,0.9-0.1,1.2-0.4c0.3-0.3,0.5-0.6,0.5-1
			c0-0.5-0.2-0.8-0.5-1.1c-0.3-0.3-0.7-0.4-1.2-0.4c-0.7,0-1.3,0.2-1.8,0.7l-1-0.3v-4.7h5.5v1.3h-4v2.4c0.5-0.5,1.1-0.7,1.9-0.7
			c0.7,0,1.4,0.2,1.9,0.7c0.5,0.5,0.8,1.1,0.8,2c0,0.9-0.3,1.5-0.9,2.1C145.8,31.6,145,31.8,144.1,31.8z"/>
	</g>
	<g>
		<g>
			<path class="st2" d="M192.3,63.2c-11.7,0-18.3,1.1-30.5,11.5"/>
			<g>
				<path class="st3" d="M162,74.5c1.2,0.1,2.7,1.2,3.5,2.1c-2-0.5-4.1-0.5-6,0.1c1-1.8,1.1-3.9,1.1-5.9
					C161.3,71.8,162.1,73.2,162,74.5z"/>
			</g>
		</g>
	</g>
	<g>
		<g>
			<path class="st4" d="M193.4,94.7c-12.7,2.3-21.2,1.2-35.1-4.1"/>
			<g>
				<path class="st3" d="M158.3,90.6c0,0.1,0,0.2,0,0.3c0-0.1-0.1-0.3-0.2-0.4c0.1,0,0.3-0.1,0.4-0.1
					C158.4,90.5,158.4,90.6,158.3,90.6z"/>
			</g>
		</g>
	</g>
	<g>
		<g>
			<path class="st5" d="M69.8,147.8c17.9,0.4,40.1-9.8,47.5-28.3"/>
			<g>
				<path class="st3" d="M116.6,121.3c-6.6,2.8-16.7,1.4-23.2-1c11.2-3,22.1-8.3,30.3-16.7c0,11.7,4.8,22.9,10.5,33
					C127.5,133.3,119.8,128.3,116.6,121.3z"/>
			</g>
		</g>
	</g>
	<g>
		<g>
			<path class="st6" d="M191.2,123.8c-18.1,2.4-38.5,3.6-51.2-14.9"/>
			<g>
				<path class="st3" d="M140,108.9c0,0.2-0.2,0.4-0.3,0.5c0.1-0.3,0.1-0.6,0.1-0.9c0.2,0.2,0.5,0.2,0.8,0.2
					C140.4,108.9,140.2,109,140,108.9z"/>
			</g>
		</g>
	</g>
	<g>
		<g>
			<path class="st7" d="M68.7,118c14.8-4.7,20.9-7.7,29.7-13.4"/>
			<g>
				<path class="st3" d="M97.5,105.2c-3.5-0.8-7.3-4.3-9.3-7.2c5.5,2,11.5,3,17.4,2c-3.4,4.8-4.7,10.8-5.3,16.7
					C98.5,113.3,96.8,109,97.5,105.2z"/>
			</g>
		</g>
	</g>
	<g>
		<g>
			<path class="st8" d="M68.1,62.4c13.9-1,22.9,3,32.4,17.3"/>
			<g>
				<path class="st3" d="M99.9,78.8c0.8-3.7,4.5-7.8,7.5-9.9c-2.1,5.8-3,12.2-1.8,18.4c-5.2-3.6-11.5-4.8-17.7-5.4
					C91.3,80,95.9,78.2,99.9,78.8z"/>
			</g>
		</g>
	</g>
	<g>
		<g>
			<path class="st9" d="M68.1,92.1c9.6-3,18.8-2.8,28.8,0.5"/>
			<g>
				<path class="st3" d="M96.7,92.5c-0.3-0.6-0.2-1.7,0-2.4c0.4,1.1,1,2.2,1.9,3c-1.2,0.1-2.3,0.6-3.3,1.3
					C95.5,93.7,96,92.9,96.7,92.5z"/>
			</g>
		</g>
	</g>
	<g>
		<g>
			<line class="st10" x1="131.3" y1="36.3" x2="131.3" y2="69.2"/>
			<g>
				<path class="st3" d="M131.3,68.8c1.1-1.1,3.2-1.6,4.6-1.6c-2,1.5-3.7,3.3-4.6,5.6c-0.9-2.3-2.7-4.1-4.6-5.6
					C128.3,67.3,130.2,67.7,131.3,68.8z"/>
			</g>
		</g>
	</g>
	<g>
		<g>
			<path class="st11" d="M72.3,30.5c18.3,0,43.3,14.9,49,44"/>
			<g>
				<path class="st3" d="M121.4,74.5c0.1-0.1,0.3-0.2,0.5-0.3c-0.2,0.2-0.3,0.4-0.4,0.7c-0.1-0.2-0.4-0.4-0.6-0.5
					C121,74.4,121.2,74.4,121.4,74.5z"/>
			</g>
		</g>
	</g>
	<g>
		<path class="st0" d="M202.6,134.1h-1.5v-6.4l-1.4,1.4l-0.9-0.9l2.4-2.4h1.3V134.1z"/>
		<path class="st0" d="M210.2,134.1h-6v-1.2c1.7-1.3,2.9-2.3,3.6-2.9c0.6-0.6,0.9-1.2,0.9-1.8c0-0.4-0.1-0.7-0.4-0.9
			c-0.3-0.2-0.7-0.3-1.1-0.3c-0.9,0-1.7,0.3-2.2,1l-0.8-1c0.4-0.4,0.8-0.8,1.4-1c0.5-0.2,1.1-0.3,1.7-0.3c0.9,0,1.6,0.2,2.2,0.7
			c0.6,0.5,0.9,1.1,0.9,1.9c0,0.7-0.3,1.4-0.9,2.1c-0.6,0.7-1.5,1.5-2.8,2.5h3.7V134.1z"/>
		<path class="st0" d="M216.3,133.8c-0.4,0.2-0.9,0.4-1.5,0.4c-0.6,0-1.1-0.1-1.5-0.4c-0.4-0.2-0.8-0.6-1.1-1
			c-0.3-0.4-0.5-0.9-0.6-1.4c-0.1-0.5-0.2-1-0.2-1.6c0-0.5,0.1-1.1,0.2-1.6c0.1-0.5,0.3-1,0.6-1.4c0.3-0.4,0.6-0.7,1.1-1
			c0.4-0.2,0.9-0.4,1.5-0.4c0.6,0,1.1,0.1,1.5,0.4c0.4,0.2,0.8,0.6,1,1c0.3,0.4,0.5,0.9,0.6,1.4s0.2,1,0.2,1.6
			c0,0.5-0.1,1.1-0.2,1.6s-0.3,1-0.6,1.4C217.1,133.2,216.8,133.6,216.3,133.8z M213.4,132.1c0.3,0.6,0.8,0.8,1.4,0.8
			c0.6,0,1.1-0.3,1.4-0.8s0.5-1.3,0.5-2.2c0-0.6-0.1-1.1-0.2-1.5c-0.1-0.4-0.3-0.8-0.6-1.1c-0.3-0.3-0.6-0.4-1.1-0.4
			c-0.4,0-0.8,0.1-1.1,0.4s-0.5,0.6-0.6,1.1c-0.1,0.4-0.2,0.9-0.2,1.5C213,130.8,213.1,131.5,213.4,132.1z"/>
	</g>
</g>
</svg>
