<?xml version="1.0" encoding="utf-8"?>
<!-- Generator: Adobe Illustrator 19.2.0, SVG Export Plug-In . SVG Version: 6.00 Build 0)  -->
<svg version="1.1" id="Layer_1" xmlns="http://www.w3.org/2000/svg" xmlns:xlink="http://www.w3.org/1999/xlink" x="0px" y="0px"
	 viewBox="0 0 266.2 169.3" style="enable-background:new 0 0 266.2 169.3;" xml:space="preserve">
<style type="text/css">
	.st0{fill-rule:evenodd;clip-rule:evenodd;fill:#0D92FF;}
	.st1{fill:none;stroke:#00325C;stroke-width:8.000000e-02;stroke-miterlimit:10;}
	.st2{fill:#00325C;}
	.st3{fill:none;stroke:#00325C;stroke-width:0.805;stroke-miterlimit:10;}
	.st4{fill:none;stroke:#00325C;stroke-width:0.25;stroke-miterlimit:10;}
	.st5{fill:#787878;}
	.st6{fill:#0D92FF;}
	.st7{fill:none;stroke:#00325C;stroke-width:0.445;stroke-miterlimit:10;}
	.st8{fill:none;stroke:#00325C;stroke-width:0.485;stroke-miterlimit:3;}
	.st9{fill:none;stroke:#00325C;stroke-width:0.555;stroke-miterlimit:10;}
	.st10{fill:none;stroke:#00325C;stroke-width:0.24;stroke-miterlimit:10;}
	.st11{fill:none;stroke:#00325C;stroke-width:0.585;stroke-miterlimit:10;}
	.st12{fill:none;stroke:#00325C;stroke-width:0.295;stroke-miterlimit:10;}
	.st13{fill:none;stroke:#00325C;stroke-width:0.645;stroke-miterlimit:10;}
</style>
<g>
	<g>
		<polygon class="st0" points="130.8,41.5 130.9,41.3 130.8,41.2 130.7,41.3 130.7,41.4 130.6,41.4 130.5,41.5 130.6,41.6 
			130.7,41.6 		"/>
		<polygon class="st0" points="130.3,41.7 130.4,41.7 130.4,41.5 130.2,41.4 130.1,41.4 129.9,41.6 130,41.8 130.1,41.8 		"/>
		<polygon class="st0" points="130.5,41.9 130.8,41.9 130.9,41.9 131,42 130.8,41.8 130.6,41.7 130.4,41.8 130.3,42.1 130,42.5 
			130,42.8 130,42.8 		"/>
		<polygon class="st0" points="117.1,81.2 116.9,80.9 116.8,80.8 116.6,80.7 116.6,80.8 116.6,80.9 116.4,81 116.5,81.2 116.9,81.6 
			117,81.6 117.2,81.5 117.1,81.4 		"/>
		<polygon class="st0" points="118.7,82.3 118.7,82.4 118.6,82.4 118.6,82.4 118.6,82.5 118.6,82.6 118.6,82.6 118.7,82.7 
			118.7,82.6 118.7,82.5 118.7,82.4 118.7,82.4 118.8,82.5 118.8,82.4 		"/>
		<polygon class="st0" points="112.5,75.1 112.6,75 112.5,74.9 112.5,74.8 112.4,74.7 112.3,74.7 112.2,74.7 112.1,74.9 112,75.2 
			111.9,75.3 111.9,75.3 111.8,75.4 111.7,75.5 111.7,75.5 111.5,75.5 111.4,75.5 111.5,75.3 111.1,75.3 111,75.3 111,75.4 
			110.9,75.5 110.9,75.5 110.9,75.5 110.9,75.5 110.9,75.6 110.7,75.6 110.5,75.6 110.4,75.5 110.2,75.4 110.1,75.4 109.9,75.4 
			109.7,75.5 109.5,75.6 109.4,75.8 109.4,76.1 109.6,76.3 109.8,76.4 110.6,76.4 110.6,76.4 110.7,76.3 110.7,76.1 110.9,76.3 
			111.3,76.1 111.4,76.3 111.5,76 111.6,76 111.7,76.2 111.8,76.2 111.9,76.3 112,76.5 112,76.6 112.1,76.6 112.2,76.6 112.3,76.6 
			112.3,76.8 112.5,76.6 112.4,76.4 112.2,76.1 112.1,76.1 112.2,76 112.4,75.9 112.4,75.8 112.5,75.6 112.5,75.4 112.5,75.3 		"/>
		<polygon class="st0" points="107,72.3 107,72.3 107,72.3 106.8,72.1 106.7,72.2 106.5,72.7 106.6,73 106.8,73 107,72.8 
			107.1,72.5 107,72.3 		"/>
		<polygon class="st0" points="109.3,78.2 109.3,78.1 109.2,77.9 109.2,77.9 109.1,78.1 109,78.2 108.9,78.3 108.9,78.3 109,78.4 
			109.1,78.5 109.3,78.5 109.3,78.4 109.4,78.3 109.4,78.3 109.3,78.2 		"/>
		<polygon class="st0" points="111.2,81.3 111.2,81.5 111.4,81.6 111.4,81.4 111.3,81.2 		"/>
		<polygon class="st0" points="107.6,67.4 107.6,67.5 107.5,67.5 107.5,67.6 107.6,67.7 107.7,67.6 107.7,67.5 107.7,67.5 		"/>
		<polygon class="st0" points="130.1,134.6 130,134.5 129.9,134.5 129.8,134.5 129.8,134.5 129.7,134.6 129.5,134.5 129.6,134.7 
			129.7,134.8 129.8,134.8 129.9,134.7 130,134.8 130.2,134.8 130.3,134.8 130.4,134.7 130.3,134.7 		"/>
		<polygon class="st0" points="132.8,162.5 132.8,162.5 132.8,162.5 132.7,162.5 132.3,162.4 132.1,162.4 131.9,162.4 131.9,162.4 
			132,162.5 132.1,162.5 132.5,162.7 132.5,162.7 132.6,162.7 132.7,162.8 132.8,162.7 132.8,162.6 132.8,162.5 		"/>
		<polygon class="st0" points="135,158.4 135,158.4 134.9,158.4 134.8,158.4 134.8,158.5 134.9,158.6 134.9,158.6 135.1,158.6 
			135.1,158.6 135.1,158.5 		"/>
		<polygon class="st0" points="127.3,147.7 127,147.4 126.9,147.5 126.9,147.5 126.8,147.5 126.7,147.4 126.7,147.4 126.6,147.3 
			126.5,147.3 126.5,147.3 126.4,147.3 126.4,147.4 126.3,147.4 126.3,147.6 126.4,147.8 126.4,147.9 126.6,148.2 127,148.4 
			127.3,148.4 127.5,148.1 127.5,147.9 		"/>
		<polygon class="st0" points="160.1,131.2 160.2,131 160.6,130.8 160.7,130.8 160.8,130.8 160.8,130.7 160.8,130.6 160.5,130.5 
			160,130.3 159.7,130.3 159.6,130.3 159.2,130.7 158.8,130.9 158.7,131 158.5,131.1 157.8,131.4 157.5,131.4 157.3,131.4 
			157.2,131.4 157.1,131.3 157,131.1 157.1,130.9 157.1,130.7 157,130.7 157,130.8 157,130.9 157,130.9 157,130.9 157,131 
			156.7,131.7 156.5,132 155.9,132.2 155.8,132.3 155.6,132.3 155.4,132.3 155.4,132.2 155.3,132.1 155.3,132.1 155.2,132 
			154.9,132.1 154.6,132 154.5,132 154.5,131.9 154.3,131.7 154.2,131.7 153.9,131.6 153.9,131.7 153.8,131.7 153.6,131.8 
			152.9,132 152.7,132 152.4,131.9 152.3,132 152,132.4 151.7,132.7 151.4,132.9 150.3,133.3 149.8,133.4 149.5,133.3 149.1,133.5 
			148.6,133.6 148.1,133.7 146.9,133.5 146.7,133.6 146.5,133.6 146.3,133.6 146.1,133.5 145.7,133.3 145.6,133.4 145,133.5 
			144.8,133.6 144.7,133.7 144.6,133.8 144.2,133.9 143.8,134.1 143.6,134.1 143,134.1 142.8,134.1 142.8,134 142.8,134 142.9,134 
			142.7,133.9 142.3,133.8 142,133.7 141.7,133.4 141.4,133.3 141.3,133.2 141.3,133 141.3,132.9 141.3,132.7 141,132.5 
			139.9,132.6 139.8,132.3 139.7,132.2 139.7,131.8 139.7,131.7 139.3,131.5 139.3,131.4 139.3,131.4 139.3,131.3 139.2,131.2 
			139.1,131.3 139,131.3 138.8,131.4 138.7,131.4 138.6,131.5 138.5,131.4 138.4,131.7 138.2,131.8 137.9,131.8 137.7,131.7 
			137.4,131.6 137.3,131.6 137.2,131.6 137.1,131.7 137,131.8 137.1,131.9 136.8,132.2 136.8,132.3 136.9,132.4 136.9,132.5 
			136.9,132.6 136.9,132.7 136.9,132.8 136.8,132.9 136.5,133.1 135.8,133.4 135.4,133.5 135.1,133.3 135.1,133.2 134.9,133.1 
			134.7,133 134.6,132.9 134.3,132.5 134.1,131.9 134.1,131.7 133.9,131.7 133.8,131.7 133.8,131.6 133.7,131.8 133.7,132.1 
			133.7,132.4 133.5,132.5 133.4,132.5 133.3,132.5 133.1,132.5 133.1,132.6 133,132.8 132.9,132.9 132.6,133.1 132.3,133 
			132.1,133.2 131.9,133.5 131.6,133.6 131.7,133.7 131.7,133.9 131.6,134.1 131.5,134.4 131.3,134.8 131.3,134.8 131.3,134.9 
			131.3,134.9 131.3,135 131.4,135.2 131.4,135.2 131.4,135.3 131.4,135.5 131.4,135.5 131.3,135.9 131.3,135.9 131.3,136 
			131.1,136 131.1,136 131,136.1 131,136.2 131,136.4 131.2,136.5 131.2,136.6 131.3,136.8 131.3,136.9 131.3,137.1 131.4,137.3 
			131.5,137.5 131.7,137.7 131.9,137.8 132.2,137.8 132.4,137.9 132.5,138.1 132.9,138.7 133.1,138.9 133.5,138.9 134.2,138.8 
			135,138.8 135.7,138.9 136,139 136.3,139.3 136.3,139.4 136.4,139.6 136.4,139.7 136.5,139.7 136.6,139.7 136.7,139.7 
			137.9,139.8 137.9,139.9 138,140 138.1,140.1 138.2,140.1 138.3,140.2 138.4,140.3 138.6,140.4 138.6,140.5 138.8,140.9 
			138.9,141 139.1,141 139.2,141.1 139.3,141.2 139.7,141.5 140.2,141.8 140.5,142 140.8,142.1 141.2,142.2 141.5,142.3 
			141.8,142.5 142.6,143.3 142.9,143.5 143.2,143.6 143.6,143.7 144,143.9 144.6,144.3 145,144.4 145.1,144.3 145.2,144.2 
			145.3,144.2 146.4,144.1 146.7,144.2 147.5,144.5 148.1,145 149,145.8 149.2,146.1 149.9,147.7 150.1,147.9 150.8,148 150.9,148 
			151.1,148.1 151.6,148.3 151.8,148.4 151.9,148.6 152.4,148.7 152.6,148.9 152.7,148.8 152.7,148.8 152.8,148.9 153.4,148.6 
			153.7,148.6 154.1,148.7 154.4,149 154.6,149.1 154.7,149 154.8,148.9 154.9,148.9 155,148.9 155.1,149 155.2,149.1 155.3,149.3 
			155.5,149.4 155.7,149.4 155.9,149.4 156.1,149.2 156.1,149.1 155.9,148.4 155.7,148 155.7,147.8 155.8,147.7 155.8,147.5 
			156.3,146.3 156.4,146.1 156.6,146 156.8,146 156.9,145.9 157.1,145.8 157.3,145.8 157.3,145.7 157.3,145.6 157.3,145.6 
			157.4,145.5 157.3,145.5 157.6,145.3 157.7,145.3 157.7,145.3 157.8,145.4 157.9,145.3 157.9,145.1 157.8,145 157.7,145 
			157.5,145 157.4,144.9 157.4,144.8 157.5,144.7 157.6,144.7 157.7,144.5 157.6,144.3 157.5,144.2 157.3,144.2 157.1,144.1 
			157,143.9 156.9,143.7 157.1,143.7 157.1,143.6 157,143.6 156.8,143.7 156.6,143.4 156.5,143.1 156.7,142.8 156.6,142.7 
			156.7,142.6 156.8,142.6 156.9,142.7 156.8,142.9 156.9,142.8 157,142.7 157.1,142.6 157.2,142.8 157.1,142.5 157,142.3 
			156.8,142.2 156.5,142.1 155.8,141.7 155.8,141.6 155.7,141.5 155.7,141.3 155.6,140.1 155.7,139.9 155.7,139.7 155.9,139.4 
			156.3,138.9 156.5,138.5 156.5,138.2 156.6,137.9 156.7,137.6 156.7,137.5 156.8,137.4 156.8,137.3 156.8,137.1 156.7,136.9 
			156.7,136.8 156.8,136.6 157,136.2 157.3,136 157.4,135.8 157.6,135.4 158.4,134.1 159.4,132.8 159.7,132.2 160.1,131.5 
			160,131.5 160,131.3 		"/>
		<polygon class="st0" points="127.7,134.2 127.6,134 127.5,133.9 127.3,133.9 127.3,134 127.3,134.1 127.4,134.3 127.6,134.4 
			127.7,134.4 127.7,134.3 		"/>
		<polygon class="st0" points="150.9,127.3 151,127.3 151,127.2 150.9,127.2 150.9,127.1 150.8,127 150.6,126.9 150.6,126.9 
			150.6,127.1 150.7,127.2 		"/>
		<polygon class="st0" points="154.4,127.7 154.1,127.7 154,127.8 153.9,128 153.9,128.2 154,128.3 154.1,128.3 154.2,128.4 
			154.3,128.5 154.5,128.5 154.5,128.4 154.4,128.4 154.4,128.3 154.4,128.2 154.6,128.2 154.6,128.1 154.6,128.1 154.5,128 
			154.4,127.9 154.5,127.8 		"/>
		<polygon class="st0" points="154.4,128.7 154.3,129 154.3,129.2 154.5,129.4 154.7,129.6 154.8,129.5 154.9,129.4 154.8,129.2 
			154.7,129.1 154.6,129 154.5,128.9 154.5,128.7 		"/>
		<polygon class="st0" points="156.8,124.7 156.9,124.7 156.9,124.6 157,124.5 157,124.5 157,124.4 157,124.3 156.9,124.3 
			156.8,124.3 156.8,124.3 156.7,124.3 156.7,124.4 156.6,124.4 156.5,124.5 156.5,124.5 156.7,124.7 		"/>
		<polygon class="st0" points="137.9,125.7 138.1,125.5 138.1,125.5 138,125.4 137.8,125.4 137.7,125.5 137.7,125.6 137.7,125.7 
			137.8,125.7 		"/>
		<polygon class="st0" points="153.5,127.5 153.5,127.4 153.6,127.2 153.6,127.2 153.7,127.1 153.6,127 153.4,127 153.1,127 
			152.9,127.1 153.2,127.3 		"/>
		<polygon class="st0" points="148.8,127.4 148.7,127.4 148.7,127.5 148.9,127.5 		"/>
		<polygon class="st0" points="102.3,95.1 102.3,95.1 102.3,95.1 102.4,95.1 102.4,95.1 102.5,95.1 102.5,94.9 102.4,94.9 
			102.3,94.8 102.3,94.9 102.3,95 		"/>
		<polygon class="st0" points="102.3,94.5 102.3,94.5 102.4,94.6 102.5,94.6 102.5,94.4 102.3,94.4 		"/>
		<polygon class="st0" points="102.7,94.2 102.7,94.2 102.6,94.2 102.6,94.3 102.5,94.3 102.6,94.4 102.6,94.3 102.7,94.4 
			102.7,94.4 102.7,94.3 102.7,94.3 102.7,94.2 		"/>
		<polygon class="st0" points="103.2,94.9 103.2,94.8 103.1,94.7 103,94.7 103,94.8 102.9,94.8 102.9,94.8 102.9,94.9 102.8,95 
			102.8,95 102.7,95.1 102.6,95.1 102.6,95.2 102.7,95.3 102.9,95.4 103.2,95.3 103.2,95.2 103.2,95.2 103.2,95.1 103.2,95 		"/>
		<polygon class="st0" points="102.9,95.5 102.9,95.5 102.9,95.6 102.9,95.6 103,95.6 103,95.7 103.1,95.5 103,95.4 103,95.5 		"/>
		<polygon class="st0" points="102.5,94.3 102.4,94.2 102.4,94.2 102.4,94.2 102.3,94.2 102.3,94.2 102.3,94.2 102.3,94.3 
			102.3,94.3 102.3,94.3 102.4,94.3 102.5,94.3 		"/>
		<polygon class="st0" points="106.8,103.6 106.5,103.3 106.5,103.2 106.5,103.1 106.4,103 106.3,103 106.2,103 106.2,102.9 
			106.2,102.8 106.1,102 106.1,101.8 105.8,101.3 105.8,101 105.7,100.9 105.5,100.5 105.4,100.4 105.4,100.5 105.3,100.4 
			105.3,100.3 105.4,100.2 105.6,100.2 105.6,100.2 105.5,100 105.6,99.9 105.9,99.8 105.8,99.8 105.7,99.8 105.6,99.7 105.5,99.6 
			105.4,99.7 105.3,99.7 105.3,99.6 105.3,99.5 105.2,99.4 104.9,99.2 104.9,99.2 105,99.2 105,99.1 105.1,99 105.1,98.9 105,98.9 
			104.8,98.9 104.7,99 104.5,99.1 104.4,99.1 104.3,98.9 104.2,98.9 104.1,98.9 104,99 103.9,99 103.9,98.8 103.9,98.8 103.9,98.8 
			103.9,98.7 104.4,98.8 104.5,98.7 104.4,98.6 104.6,98.4 104.6,98.2 104.6,98 104.8,97.9 104.9,98 105.1,98 105.2,98 105.3,97.9 
			105.2,97.8 104.9,97.7 104.6,97.7 104.5,97.8 104.5,97.8 104.4,97.8 104.4,97.7 104.4,97.8 104.4,97.8 104.4,97.8 104.3,97.8 
			104.4,97.6 104.3,97.5 104.2,97.5 104.1,97.6 104.1,97.7 103.9,97.7 104,97.5 104.2,96.8 104.2,96.9 104.2,96.9 104.2,97 
			104.3,96.9 104.4,96.7 104.4,96.6 104.4,96.5 104.4,96.5 104.4,96.5 104.4,96.4 104.4,96.4 104.3,96.4 104.3,96.5 104.2,96.4 
			104.1,96.4 104.1,96.3 104.1,96.2 104,96.1 104,96.1 104,96.2 103.9,96.2 103.8,96.2 103.7,96.2 103.5,96.1 103.4,96.2 
			103.5,96.3 103.5,96.3 103.5,96.3 103.5,96.4 103.5,96.5 103.4,96.6 103.3,96.8 103.2,96.5 103.2,96.4 103.3,96.3 103.2,96.2 
			103.1,96.1 103.1,96 103,96 103,95.9 103,95.9 103.1,95.8 103.1,95.8 103.1,95.7 103,95.7 102.9,95.7 102.9,95.7 102.8,95.6 
			102.8,95.7 102.5,95.4 102.3,95.3 102.3,95.6 102.1,95.5 102.1,95.5 102,95.5 102,95.5 101.8,95.5 101.8,95.5 101.9,95.4 
			101.9,95.4 101.8,95.2 101.8,95.2 101.7,95.3 101.7,95.4 101.7,95.5 101.8,95.5 101.7,95.5 101.7,95 101.6,94.9 101.5,94.9 
			101.4,94.9 101.3,94.8 101.3,94.7 101.2,94.8 100.9,94.9 100.8,95 100.7,95.2 100.7,95.7 100.6,95.9 100.5,96.1 100.4,96 
			100.2,96.2 100.1,96.3 99.4,96.4 99.2,96.4 99.1,96.7 99,96.9 98.8,97.1 98.7,97.1 98.6,97.2 98.5,97.4 98.5,97.5 98.4,97.5 
			98.1,97.6 98.1,97.7 98.1,97.7 98.1,97.7 98.2,97.7 98,97.8 97.7,98.4 97.5,98.6 97,99 96.9,98.9 96.7,98.9 96.5,98.9 95.9,99.2 
			95.8,99.4 95.7,99.6 95.5,99.7 94.7,100.1 94.6,100.1 94.3,100.1 93.8,99.9 92.8,99.8 92.5,99.6 92.1,99 92,98.9 92.1,98.7 
			92.1,98.6 92.1,98.5 92,98.4 92,98.4 91.9,98.4 91.9,98.2 91.8,98.2 91.7,98.4 91.6,98.6 91.6,98.8 91.7,98.9 91.9,99 91.9,99.2 
			91.9,99.4 91.9,99.6 91.2,101.2 91.3,101.3 91.3,101.4 91.5,101.6 91.5,101.6 91.6,101.7 91.7,101.7 91.7,101.7 91.7,101.8 
			91.7,101.8 91.7,101.8 91.6,102.1 91.5,102.3 91.4,102.4 91.2,102.5 91.2,102.6 91.3,102.9 91.3,103.1 91.4,103.3 91.5,103 
			91.6,102.7 91.7,102.6 91.9,102.7 91.8,102.8 91.7,103.1 91.9,103.2 92.4,102.9 92.6,102.9 92.8,103.1 92.9,103.4 92.9,103.7 
			93,103.9 93.2,104 93.3,104.1 93.4,104.4 93.5,104.7 93.6,105 93.5,105.6 93.5,105.8 93.7,106 93.8,105.9 94,106.1 94.2,106.3 
			94.3,106.5 94.3,106.9 94.2,107.5 94.2,108.1 94.3,108.3 94.4,108.7 94.5,108.8 94.4,109 94.4,109.2 94.3,109.3 94.2,109.4 
			94.1,109.4 93.9,109.5 93.7,109.5 93.6,109.5 93.5,109.6 93.4,109.7 93.4,109.7 93.6,109.6 93.7,109.8 93.7,110 93.6,110.2 
			93.6,110.4 93.6,110.8 93.6,110.9 93.6,111 93.6,111 93.6,111.1 93.6,111.2 93.6,111.2 93.7,111.2 93.8,111.4 93.9,111.5 
			94,111.6 93.9,111.7 94,111.8 94,111.5 94.1,111.4 94.2,111.3 94.1,111.3 94.1,111.3 94,111.3 94,111.4 94,111.3 94.2,111.1 
			94.5,111.1 94.8,111.3 95,111.5 95.1,111.7 95.1,111.9 95,112.2 95,112.4 94.9,112.6 94.8,112.8 94.7,112.9 94.8,112.9 
			94.8,112.8 94.9,112.8 94.9,112.7 95,112.7 94.9,112.8 94.7,113 94.6,113.2 94.6,113.4 94.7,113.5 95.2,113.7 94.9,113.7 
			94.7,113.7 94.6,113.5 94.3,113 94.2,113 94.1,112.9 94,113 94.1,113.3 94,113.4 94,113.5 94.1,113.6 94.1,114.2 94.2,114.7 
			94.2,114.9 94.1,115.1 94.2,115.2 94.1,115.4 94,115.8 93.8,116 93.6,116.3 93.5,116.4 93.5,116.5 93.5,116.5 93.7,116.8 
			93.7,117 93.6,117.1 93.6,117.2 93.4,117.4 93.4,117.5 93.5,117.8 93.8,118 93.8,118.2 93.9,118.4 93.9,118.7 93.4,119.2 
			93.4,119.3 93.4,119.4 93.4,119.6 93.5,119.6 93.6,119.6 93.6,119.6 93.6,119.8 93.6,119.9 93.7,120 93.7,120 93.8,120.1 
			93.7,120 93.8,119.9 93.9,120 94,120.1 94,120.2 94,120.5 94,120.6 94.1,120.6 94.2,120.6 94.3,120.8 94.3,121 94.4,121 
			94.4,121.1 94.6,121 94.7,121 94.6,121.2 94.6,121.3 94.7,121.3 95,121.4 95,121.4 95.1,121.4 95.2,121.9 95.3,122.5 95.5,122.5 
			95.6,122.7 95.6,123 95.5,123.2 95.5,123.2 95.6,123.3 95.8,123.3 95.9,123.3 95.8,123.6 95.9,123.7 96,123.6 96,123.3 
			96.1,123.1 96.4,122.9 96.6,122.8 96.8,122.9 97,123 97.3,123.2 97.4,123.4 97.4,123.2 97.6,123.4 97.7,123.5 97.8,123.5 
			97.9,123.4 98,123.3 98.1,123.2 98.2,123.2 98.2,123.2 99.2,122.2 99.2,122.1 99.3,122.2 99.3,122.2 99.4,122.1 99.4,122.1 
			99.5,121.7 99.6,121.4 99.6,121.3 99.5,121.3 99.5,121.2 99.4,121 99.4,120.8 99.3,120.6 99.4,120.3 99.4,120.1 99.5,119.9 
			99.9,119.5 99.9,119.5 99.9,119.4 99.9,119.3 99.7,119.4 99.5,119.3 99.5,119.3 99.5,119.3 99.4,119.2 99.4,119.2 99.4,119.1 
			99.4,119 99.3,118.9 99.3,118.9 99.4,118.9 99.5,118.9 99.6,119 99.7,119.1 99.8,119.1 99.9,119.1 100.2,119.5 100.5,119.7 
			100.7,119.8 100.8,119.7 100.9,119.6 101,119.4 101.2,119.3 101.5,119.4 101.7,119.4 101.8,119.5 101.9,119.4 102,119.5 
			102.1,119.6 102.2,119.6 102.3,119.7 102.4,119.7 102.6,119.9 102.7,120 102.7,120 103,120.3 103.2,120.4 103.2,120.5 
			103.3,120.6 103.4,120.6 103.5,120.5 103.6,120.4 103.8,120.5 103.9,120.6 103.9,120.7 103.9,120.7 103.9,120.8 104,120.8 
			104,120.6 104.2,120.4 104.4,120.4 104.4,120.3 104.5,120.1 104.5,119.9 104.6,119.8 104.5,119.7 104.5,119.7 104.4,119.6 
			104.5,119.5 104.4,119.2 104.6,118.9 104.8,118.6 105.1,118.5 105.1,118.4 104.9,118.3 104.8,118.2 104.8,118 104.8,117.8 
			104.9,117.3 105.1,116.6 105.2,116.3 105,116.1 105.2,115.3 105.3,114.9 105.2,114.4 105.2,114.3 105.3,114.1 105.3,114 
			105.3,114 105.4,113.8 105.4,113.6 105.5,113.5 105.4,113.3 105.4,113 105.4,112.9 105.4,112.6 105.5,112.3 105.5,112 
			105.6,111.9 105.6,111.8 105.6,111.8 105.6,111.7 105.5,111.7 105.5,111.6 105.6,111.6 105.5,111.5 105.5,111.4 105.6,111.2 
			105.6,111 105.7,111 105.8,111 105.8,111 105.8,110.9 105.8,110.8 105.8,110.8 105.7,110.8 105.6,110.9 105.6,110.5 105.6,110.2 
			106,109.3 106,109.1 105.8,108.9 105.6,108.6 105.5,108.6 105.4,108.5 105.3,108.3 105,107.7 105,107.6 105,107.1 105,106.9 
			105.1,106.7 105.2,106.5 105.4,106.3 105.5,106.2 105.7,105.8 105.8,105.7 105.9,105.6 106.1,105.5 106.2,105.4 106.4,104.9 
			106.6,104.6 106.7,104.4 106.7,104.1 106.7,104 106.9,103.8 106.8,103.7 		"/>
		<polygon class="st0" points="92.8,119.7 92.6,119.8 92.2,119.9 92.1,120 92,120.2 92.1,120.3 92.3,120.6 92.3,120.6 92.3,120.8 
			92.4,120.9 92.6,120.9 92.8,120.8 92.8,120.6 92.8,120.1 		"/>
		<polygon class="st0" points="94.3,121.2 94.3,121.2 94.3,121.3 94.2,121.3 94.2,121.2 94.1,121.2 94,120.8 93.8,120.8 93.5,120.8 
			93.3,120.6 93.1,120.9 93.1,121 93.2,121 93.2,121 93.2,121.3 93.3,121.7 93.6,122.3 93.7,122.3 93.7,122.4 93.7,122.5 
			93.8,122.5 93.9,122.5 94,122.4 94.1,122.1 94.1,121.7 94.2,121.5 94.2,121.4 94.2,121.4 94.4,121.2 94.4,121.2 		"/>
		<polygon class="st0" points="92.3,97.1 92.2,97.3 92,97.4 92,97.5 92,97.6 92,97.8 91.9,97.9 91.9,98 92.2,98 92.2,97.7 
			92.2,97.4 92.5,97.2 93,97.1 93.1,97 93.1,96.9 93.1,96.7 93,96.6 93,96.6 92.9,96.5 92.9,96.4 92.8,96.5 92.8,96.5 92.8,96.6 
			92.7,96.7 92.6,96.6 92.5,96.6 92.5,96.8 92.5,96.9 92.5,97.1 		"/>
		<polygon class="st0" points="100.6,94.9 100.6,94.9 100.5,94.9 100.5,95 100.6,95.1 100.6,95.1 100.7,95 100.7,95 100.7,95 		"/>
		<polygon class="st0" points="106,98.9 106,98.9 105.5,99.2 105.5,99.3 105.5,99.3 105.6,99.3 105.6,99.3 105.7,99.3 106.1,99 
			106.1,98.9 		"/>
		<polygon class="st0" points="105.8,99.5 105.9,99.6 106,99.7 106.1,99.6 106.1,99.5 106,99.4 106,99.5 		"/>
		<polygon class="st0" points="103.3,95.7 103.3,95.7 103.4,95.7 103.5,95.8 103.5,95.8 103.6,95.7 103.6,95.7 103.6,95.6 
			103.6,95.3 103.6,95.2 103.6,95.1 103.6,95 103.5,95 103.5,95 103.4,95.1 103.3,95.2 103.3,95.3 103.3,95.4 103.2,95.7 		"/>
		<polygon class="st0" points="104.8,97.1 104.8,97.1 104.8,97.1 104.8,97 104.8,97 104.8,97 104.7,97 104.7,97 104.8,97.1 		"/>
		<polygon class="st0" points="136.8,98.2 136.8,98.2 136.7,98.3 136.8,98.4 136.8,98.4 		"/>
		<polygon class="st0" points="136.1,98.8 136.2,98.8 136.2,98.7 136.1,98.7 136,98.7 136,98.8 136,98.8 136,98.8 135.9,98.8 
			135.9,98.8 135.8,98.9 135.8,98.9 135.7,99.2 135.8,99.2 135.8,99.3 135.8,99.3 135.8,99.4 135.9,99.4 135.9,99.3 135.9,99.2 
			135.9,99.2 135.9,99.2 135.9,99.1 136,98.9 		"/>
		<polygon class="st0" points="140.2,100.4 140.2,100.4 140.1,100.6 140.2,100.5 140.3,100.4 		"/>
		<polygon class="st0" points="134.9,98.7 134.9,98.8 134.9,98.8 135,98.8 135,98.7 135,98.6 134.9,98.5 134.9,98.6 134.9,98.6 
			134.9,98.7 		"/>
		<polygon class="st0" points="145.5,101.1 145.6,101.1 145.6,101 145.6,101 145.6,101.1 145.7,101.1 145.6,101 145.7,101 
			145.8,101 145.7,100.9 145.8,100.9 145.8,100.9 145.8,100.9 145.8,100.8 145.7,100.8 145.7,100.7 145.6,100.7 145.6,100.8 
			145.6,100.8 145.6,100.9 145.6,101 		"/>
		<polygon class="st0" points="144.2,101.2 144.1,101.4 144.2,101.5 144.4,101.6 144.5,101.7 144.6,101.6 144.8,101.5 144.9,101.5 
			145,101.6 145.2,101.5 145.2,101.4 145.2,101.3 145.2,101.2 145.2,101.2 145,101 144.5,100.8 144.3,100.8 144.3,101 144.3,101 
			144.3,101.1 		"/>
		<polygon class="st0" points="147.8,103.5 147.9,103.5 147.9,103.4 147.9,103.3 147.6,103.3 147.5,103.3 147.4,103.3 147.3,103.5 
			147.5,103.6 147.7,103.5 		"/>
		<polygon class="st0" points="159.3,84.3 159.4,84.2 159.3,84.1 159.3,84.1 159.3,84.1 159.3,84.1 159.2,84.2 159.2,84.3 
			159.3,84.4 		"/>
		<path class="st0" d="M187.4,108.6L187.4,108.6l0-0.2l-0.1,0l0-0.1l0-0.1l-0.6-1.4l-0.6-0.9l-0.1-0.1l-0.2-0.1l-0.1-0.2l-0.2-0.4
			l-0.3-0.3l-0.1-0.1l-0.2-0.3l-0.1,0l-0.2,0l-0.9-0.5l-0.8-0.6l0.1-0.5l0-0.1l-0.2-0.2l0-0.1l0-0.1l0-0.1l-0.1,0l-0.2,0.1l-0.1,0
			l0-0.3l-0.3-0.2l-0.7-0.1l-0.9-0.7l-1-0.4l-0.1-0.1l-0.8-0.2l-0.3-0.2l-0.2-0.1l-0.1-0.1l-0.6-0.6l-0.3-0.3l-0.2-0.1l-0.1-0.1
			l-0.4-0.5l-0.3-0.3l-0.7-0.5l-1.4-0.7l-1.6-0.5l-0.2-0.2H172v0.1H172l-0.2-0.2l-2.2-0.7l-0.4-0.3l-0.1-0.1l-0.2-0.1l-0.6-0.2
			l-1.5-0.8l-1.7-0.8L165,93l-0.1-0.1l-0.6-0.2l-0.6-0.4l-0.3-0.2l-0.2-0.3l-0.1-0.4l0-0.5l0.1-0.5l0.2-0.3l0.9-0.5l0.3-0.3l0.2-0.3
			l0.2-0.1l0.2-0.1l0.2-0.1l0.2-0.2l0.2-0.2l0.1-0.1l0-0.2l0-0.2l-0.1-0.5l-0.1-0.2l0-0.2l-0.2,0l-0.2-0.3l-0.3-0.1l0,0l-0.8-0.2
			l-2.3,0.3l-1.5-0.1l-1.5,0.3l-0.4,0l-1.1-0.3l-1.1,0l-0.2,0l-0.2,0l-0.2-0.1l-0.4-0.3l-0.2-0.1l-0.1-0.1l-0.3-0.3l-0.1-0.1
			l-0.4-0.1l-0.8-0.1l-0.3-0.2l-0.3-0.3l-0.2-0.1l-0.2,0v0l-0.1,0l-0.2-0.1l-0.1-0.2l-0.1-0.2l-0.1-0.5l-0.1-0.2l-0.1-0.1l-0.4-0.1
			l-0.5-0.2l-0.3-0.2l-1.2-1.2l-0.4-0.6l-0.3-0.3l-0.7-0.4l-0.6-0.5l-1.3-1.6l-0.1-0.1l-0.1-0.2l-0.6-0.9l-0.2-0.4l-0.3-0.9
			l-0.4-1.3l-0.4-1.3l-0.2-1.1l-0.1-0.4l-0.3-0.6l-0.1-0.2l0-0.1l-0.1-0.5l0-0.1l-0.1-0.3l-1.3-3.4l0.1-0.2L142,66l-0.2-0.1l-0.2,0
			l-0.1-0.1l-0.1-0.2l-0.1-0.2l-0.2-0.1l0,0l0-0.1l0-0.1l-0.1,0l-0.1,0l0,0l0,0l0,0l-0.1,0l-0.1,0.1l-0.1,0.1l-0.2-0.1L140,65
			l-0.1-0.1l-0.2-0.1l-1.1-0.7l-2.8-2.5l-0.1-0.1l-0.1-0.1l-0.6-0.3l-0.4-0.3l-0.2-0.1l-0.4-0.1l0,0l-0.4-0.1l-0.2-0.1l-0.3-0.2
			l-0.3-0.3l-0.5-0.7l-0.2-0.1l-0.3-0.3l-0.3-0.3l-0.2-0.3l-0.4-0.4l-0.3-0.4l-0.2-0.4l-0.2-0.5l-0.1-0.3l0-0.3l0-0.1l-0.1-0.2
			l0-0.1l0-0.1l0-0.3l-0.3-1.3l0-0.6l0.1-0.9l0-0.1l-0.1-0.1l-0.1-0.2l-0.1-0.4l-0.1-0.6l0.1-0.5l0.2-0.9h-0.1v-0.1l0.2-0.2l0.1,0
			l0.2,0.1l0.2,0.2l0.1,0.1l0.2,0.2l0.2,0l0,0l0.2-0.1l0.1-0.2l-0.1,0l-0.1-0.1l-0.1,0v-0.1l0.1,0l0.1-0.1l0-0.1l-0.2-0.1l0-0.1
			l0.1-0.2l0-0.1l0.1-0.1l0.1-0.1l0.1,0.1l0,0.1l0,0.2l-0.1,0.3l0.1,0.1l0.1,0.1l0,0.1l0,0.1l0.3-0.3l0.1-0.2l0.1-0.2l0-0.4l0-0.1
			l0.1,0h0.1l0-0.1l0-0.1l0.1-0.1l0-0.1l0.1-0.1l0-0.1l-0.1-0.1l-0.1-0.1l-0.1,0l-0.2,0v0.1l0,0l0.1,0l0,0l-0.1,0.1l-0.2-0.2
			l-0.2-0.2l-0.1-0.1l-0.1-0.1l-0.1-0.2l0-0.1l-0.1-0.1l-0.2-0.1l-0.1-0.1l0.1,0.2l0.1,0.2l0,0.2l-0.1,0.2l-0.1-0.2l0.1,0l0,0l0,0
			l0.1,0v-0.1l-0.1-0.2l-0.1-0.2l-0.1-0.2l-0.2-0.2l0,0.1l0,0l0,0l-0.2,0l-0.1-0.1l0-0.2l0.1-0.3v0.1l0,0.1l0,0.1l0.1,0.1l0.1,0
			l-0.1-0.5l0-0.4l-0.1-0.2l-0.1-0.2l-0.1-0.2l0.1-0.2l-0.1,0.1l-0.2,0.2l-0.1,0.1l0,0l0,0l0,0l-0.2,0l-0.2-0.1l-0.1-0.2l0-0.2
			l-0.1-0.1l0-0.1l0-0.1l0.1,0l0-0.2l0-0.2l0-0.1l-0.2-0.1l0,0.1l0,0.2l-0.1,0.2l-0.1,0.1l-0.1-0.1l-0.1-0.3l-0.1-0.1l0-0.3l0.1,0
			l0.1,0.1l0.1,0.1l0.2,0l0.1-0.1l0-0.1l0.1-0.2l-0.1-0.2l0,0l0.1,0l0.1,0l0-0.1l0-0.1l0-0.1l0.1-0.1l-0.1-0.1l0-0.1l0-0.1l0.1-0.1
			h-0.1v-0.1l0.2-0.4l0.3-0.3l0.4-0.2l0.3,0l0,0.1l0.1,0l0.2,0l0.1-0.1v-0.1l-0.3-0.1l-0.1-0.1l0.1-0.2l0.1,0.3h0.1l0.1-0.1l0.2,0.1
			l0.2,0v-0.1l-0.1-0.2l0.2-0.2l0.2-0.2l0.2-0.1l0,0.2l0.1,0.1l0.2,0.2l0.1,0l0.2-0.2l0.1,0l-0.1,0.2l-0.1,0.1l-0.1,0.1l-0.2,0
			l-0.1,0.1l0,0.2l0,0.2l-0.2,0v-0.1l0.1,0l0,0l0,0l0,0l0,0l0,0l0,0l-0.1,0l-0.1,0l-0.1,0l0.1,0.2l-0.1,0.1l0,0l0-0.1l0-0.1h-0.1
			l0,0.1l0,0.1l-0.1,0l-0.1,0l0,0.1l-0.1,0.1l-0.1,0.2l-0.1,0.2l0.1,0l0.3-0.2l0.3-0.1l0.1,0l0.2-0.1l0.9-0.3l1.6-0.8l1.5-1l0.4-0.1
			l0.7,0l0.2-0.1l0.1-0.1l0,0v0l0.1-0.2l0.3-0.3l0.1-0.2l-0.4,0.2l-0.2,0l-0.2-0.1l-0.1-0.2l0.1-0.2l0.2-0.1l0.2,0v-0.1l-0.1-0.1
			l0-0.1l0-0.1l0.1-0.1l0.1,0l0.1,0.2l0.1,0l0.1,0l0.1-0.2l0.3-0.1l0.1,0l0.1,0l0.2,0.2l0.1,0l0.9,0.2l0.2-0.1l0.1,0.2l0.4,0.1
			l0.1,0.2l-0.1,0.1l-0.1,0.1l-0.2,0.1l-0.1,0l0.2,0.1l0.2-0.1l0.2-0.2l0.2-0.2l0.1-0.1l0.3,0l0.1-0.1l0-0.1l0.3-0.2l-0.2,0l0-0.3
			l0.1-0.3l0.2-0.1l0.2,0l0.5,0.2l0.2,0.1l0.7,0.8l0.1,0.2l0.1,0.3l0,0.2l-0.2,0.1l0.4,0.2l0.1,0.1l0.1,0.1l0.1,0l-0.2,0l-0.3,0
			l-0.2,0l-0.1,0.2l-0.1,0.1l0.5,0l0.4,0.2l0.4,0l0.2-0.2l0.2-0.2l0.1-0.2l0,0l0,0l-0.1,0l-0.1-0.1l-0.1-0.1l-0.7-1.2l-0.6-0.3
			l-0.1-0.1l-0.4-0.3l-0.2,0l-0.3,0l-0.3-0.1l-0.1-0.1l-0.1-0.1l0-0.5l0.3-0.6l0.1-0.2l0.1-0.3l0.1-0.3l-0.2-0.3l0,0l-0.3,0.1
			l-0.3,0.1l-0.3,0l-0.3-0.3l0,0l0,0l0,0l0,0l0,0l-0.1-0.1l0.1-0.1l0,0l0.1-0.1l0-0.1l0-0.1l-0.1-0.1l0.2-0.3l0.2-0.1l0.9-0.7
			l0.3-0.5l0-0.1l0-0.1l-0.1,0l-0.1,0l-0.3,0l-0.2,0l-0.3-0.3l-0.2-0.1l-0.3-0.1l-0.1-0.1l-0.3,0l-0.1,0l0.1,0.2l-0.3,0l-0.1-0.1
			l0-0.2l-0.1-0.2l0,0l0,0l-0.1-0.3l-0.1-0.2l-0.1-0.1l0.2-0.2l0-0.1l0.1-0.2l0.1-0.3l0.1-0.1l0.1,0l0.1-0.1l0.2-0.2l0.4-0.2
			l0.2-0.2l0.2-0.3l0.2-0.2l0.3,0l0.2,0l0.2-0.1l0.1-0.2l0,0l0-0.3l0.1-0.1l0-0.1l0-0.1l0-0.1l-0.1,0l-0.1,0l-1.1-0.4l-0.4,0l-0.1,0
			l-0.1-0.1l-0.1,0l-0.6,0l-0.4-0.1l-0.9,0.2l-0.4,0l-0.2-0.1l-0.6-0.4l-0.8-0.2l-2.2-0.2l-0.5-0.3l-0.2-0.1l-0.1,0l-0.1,0l-0.1,0.1
			l-0.1,0l-0.1,0l-0.2-0.1l-0.1,0l0,0l-0.5,0l-0.5,0.1l-0.1,0l-0.2-0.1l-0.3-0.2l-0.3,0l-0.2,0l-0.4-0.2l-0.3-0.3l-0.2-0.4l-0.1-0.3
			l-0.2-0.1l-0.2,0l-0.2-0.1l-0.1-0.1l-0.1-0.1l0-0.1l0-0.2l0-0.2l0-0.1l0-0.1l0-0.2l-0.1-0.3l-0.1-0.1l-0.4,0l-0.1,0l-0.1-0.1
			l-0.1-0.1l-0.1-0.1l-0.1-0.1l-0.2,0l-0.1,0l0.1-0.1l0-0.1l-0.1-0.1l-0.1-0.2l-0.1-0.3l0-0.2l-0.1-0.1l0.1-0.2l0.6-0.3l0.2-0.3
			l0-0.2l0-0.2l-0.2-0.1l-0.4,0.1l-0.2,0l-0.9,0.5l-0.7,0l-0.4,0.1l-0.4,0.2l-0.3,0.3l-0.4,0.1l-0.1,0.1l-0.2,0.1l-0.1,0l-0.2-0.1
			l-0.3-0.2l-0.2,0l-0.1,0l-0.1,0l0,0h0l-0.5-0.1l-0.2,0l-0.3,0.1h0l0,0h0l-0.1,0l-0.1,0l-0.1,0l-0.1,0l0-0.1l-0.1-0.1l-0.1,0
			l-0.2,0l-0.1,0l-0.1,0.1l-0.1,0.1l0,0l-0.3,0.3l-0.3,0L121,21l-0.3-0.1l-0.6,0.1l-0.6,0.2l-0.2,0.1l-0.6,0.6l-0.1,0.2l-0.1,0.5
			l-0.2,0.4l0,0.1l0,0.1l0,0.1l0,0l-0.1,0l0,0l-0.2,0.4l-0.1,0.1l-0.1,0l-0.2-0.1l-0.3,0l-0.2,0l-0.3,0.1l-0.1,0l-0.1,0l-0.2-0.1
			l-0.1,0l-0.1,0l-0.2,0.1l-0.1,0l-0.3-0.2l-0.1,0l-0.2,0.1l-0.1,0l-0.1-0.1l0-0.1l0.2-0.2l0-0.1l-0.1-0.1l-0.7-0.4l-0.1,0l-0.2,0
			l-0.9,0.3l-0.4,0l-0.3-0.2l0,0.4l0,0.1l-0.1,0.1l-0.2,0.2l0,0.2l0.1,0.2l0,0.2l-0.1,0.2l-0.2,0.1l0,0.1l0,0.2l0,0.2L112,25
			l-0.1,0.1l0,0.1l0.1,0.3l0.2,0.2l0.4,0l0.2,0.2l0.1,0.3l0,0.3l-0.1,0.3l-0.1,0.1l-0.1,0.1l-0.2,0l-0.7-0.2l-0.3,0l-0.1,0l-0.1,0
			l-0.1-0.1l0-0.1l-0.1-0.1l-0.4-0.1l0-0.1l0.1-0.3l0-0.2l-0.1-0.1l-0.2,0l-0.9,0.3l-0.1,0l0,0.1l-0.1,0.4l-0.1,0.1l-0.2,0.2
			l-0.1,0.1l0,0.1l0,0.3l0,0.1l0,0.1l0,0.1l0,0.1l0.1,0.1l-0.2,0.3l0.1,0.2l0.3,0.1l0.4,0.1l0.2,0.1l0.1,0.1l-0.1,0.3l-0.1,0.1
			l-0.2,0.2l-0.1,0.1l0,0.2l0,0.1l0,0.1l0.1,0.1l0.4,0.4l0.1,0.2l-0.1,0.3l-0.3,0.2l-0.4,0.1l-0.3,0l0-0.3l-0.1-0.2l-0.4-0.3
			l-0.1-0.2l-0.1-0.3l0-0.3l-0.1-0.2l-0.2-0.2l-0.2,0l-0.2,0l-0.4,0.1l-0.6,0.3l-0.2,0.1l-0.1,0l-0.2-0.1l-0.1,0l-0.1,0.1l0,0.2
			l0,0.2l0,0.1l-0.1,0.2l-0.2,0.1l-1.1,0l-0.2-0.1l-0.2-0.1l-0.1-0.2l-0.2-0.5l-0.1-0.1l-0.2-0.1l-0.1-0.1l0-0.1l0-0.2l-0.1-1.3
			l0-0.1l-0.1,0l-0.1,0.1l-0.1,0.1l0,0.1l0,0.1l-0.1,0l-0.1,0l-0.2-0.2l0-0.2l-0.2,0l-0.5,0.1l-0.2,0.2l-0.2,0.3l-0.1,0.3l0.1,0.2
			l0.1,0.1l0,0.1l0,0.2l0,0.2l0.1,0.5l0,0.2l-0.1,0.3l-0.3,0.6l-0.1,0.5l-0.1,0.1l-0.1,0.1l-0.1,0.1l-0.1,0.1l-0.1,0.1l0,0.2
			l-0.1,0.1l0,0l-0.7,0.5l-0.2,0.3l0,0.2l0,0.3l0,0.2l-0.1,0.1l-0.1,0.1l-0.2,0.1l-0.2,0.2l0,0.2l0.2,0.5L99,34.6l0,0l0,0l0,0l0,0
			l0.1,0.1l0.1,0.2l0.1,0.1l0.1,0.1l0.2,0l0.1,0.1l0.1,0.2l0,0.2l-0.2,0.4l-0.3,0.4l-0.3-0.1l-0.3-0.1l-0.4,0.1l0-0.2l0.1-0.2l0-0.2
			l0-0.2l-0.1-0.2l-0.1-0.2l-0.2-0.3L98,34.9l-0.1-0.1l-0.1,0l-0.5-0.3l-0.1-0.1l-0.2,0l0,0l0-0.1l0.2-0.4l0.3-0.3l0.1-0.3L97.4,33
			l-0.1,0L97,33l-0.1,0l-0.1,0l-0.1-0.1l0,0l0,0l-0.1,0l-0.1,0.1l-0.1,0l-0.2,0l-0.4-0.3l-0.2-0.1l-0.1,0l-0.6-0.9l-0.3-0.3
			l-0.3-0.1l-0.2-0.1L94,31.1l-0.1-0.2l0-0.3l0-0.3l0.2-0.7l0-0.4l0-0.4l0-0.3l-0.1-0.2l-0.3,0l-0.1,0l-0.4,0.1l-0.3,0.1l-0.2,0.2
			l-0.1,0.2l0,0.1l0.1,0l0,0.1l-0.1,0.1l-0.1,0.1l-0.1,0.1l-0.3,0.1l-0.5,0.6l-0.2,0.1l-0.4,0.1l-0.2,0.1l-0.2,0.2l-0.1,0.1l0,0.1
			l0,0.1l0.2,0.2l0.3,0.5l0,0.5l-0.2,0.4l-0.4,0.4l-0.1,0l-0.2,0L90.2,33l-0.1,0.1l0,0.2l0,0.1l0,0.4l0,0l-0.1,0.2l0,0l-0.1,0.2
			l-0.1,0.1l-0.1,0L89,34.5l-0.2,0.2L88.5,35l0,0l0,0.1l0,0.1l0,0l-0.1,0.1l-0.1,0l-0.2-0.1l-0.3,0l-0.4-0.2l-0.1,0l-0.1,0l-0.1,0
			l-0.1,0l0,0l-0.2-0.3l-0.1-0.1l-0.1-0.1l-0.9-0.2l-0.2,0.1l-0.1,0.2l-0.1,0.1l-0.2,0l-0.3,0.1l-0.5,0.4L84,35.4l-0.7-0.1l-0.1,0
			l-0.3,0.2l-0.6,0.2l-0.3,0.1l-0.3,0l-0.3-0.1l-0.2-0.1l-0.4-0.5l-0.1,0.1l-0.1,0.1l-0.1,0.2l-0.1,0.2L80.4,36l-0.2,0.2L80,36.2
			l-0.2,0.1l-0.2,0l-0.1,0l0,0l-0.1,0l0,0l0,0l0,0.1l0,0.1v0l-0.3,0l-0.1,0.1l-0.1,0.2l0,0.2l0,0.2l0,0.2l0.1,0.5l0.2,0.3l0.2,0.2
			l0.2,0l0.1,0l0.2,0.2l0.1,0.1l0.3,0.1l0.1,0.1l0.1,0.2l0,0.1l-0.1,0.2l0,0.1l0,0.1l0.1,0.2l0,0.1l0.1,0.5l0.1,0.2l0.4,0.2l0.4,0.3
			l0,0l0.1,0.1l0.1,0.2l0.1,0.1l0.1,0.1l0.4,0.2l0.1,0.1l0,0.2L82,42.4l-0.2,0.3l-0.3,0.4l0,0.1l0,0.4l0.1,0.3V44l-0.3,0.2l-0.2,0.3
			l-0.1,0.1l0,0L81,44.4l-0.1,0l-0.3,0.1l-0.3,0.2l-0.1,0.1L80,45.1l-0.1,0.1l-0.1,0l-0.2,0l-0.1,0l0,0.1l0,0.1l0.1,0.1l0,0.1
			l-0.3,0.1l-0.3-0.1l-0.3-0.2l-0.3-0.1l-0.1,0L78,45.5l-0.1,0l-0.1,0l-0.2,0l-0.1,0l-0.3,0.2l0,0l-0.1,0.1L77,46.1l0.2,0.2l0.2,0.1
			l0,0.1l0,0.1l0,0.1l0.1,0.2l0.1,0.1l0.3,0l0.2,0.2l0.1,0.4l0,0.7l0.2,0.3l0.3,0.3l0.6,0.4l0.2,0l0.5-0.1l0.2,0l0.5,0.2l0.2,0.2
			l0,0.1l0,0.1l0,0l0,0l0,0.1l0,0l0,0.2l0,0l0.1,0.3l0,0.3l0,0.1l0.3,0.5l0.1,0.2l-0.2,0l-0.3-0.1l-0.2,0l-0.2,0.1l-0.2,0.2L80,52
			l0.1,0.3L80,52.4l-0.3,0.6l-0.5,0.4l-0.1,0.2l0,0.4l0.2,0.4l0.3,0.3l0.2,0.2l-0.3,0.2L79.5,55l-0.1,0.4l0,0.1l0,0.1l0,0.1l0,0.1
			l0.2,0.2l0.1,0.1l0.1,0.3l0.1,0.1l0.1,0.1l0.2,0.1l0.1,0.1l0.1,0.1l0,0.1l0,0.1l0.1,0.1l0.1,0.1l0.1,0l0.1,0l0.1,0l0.1,0l0.5,0.3
			l0.4,0.1l1,0.6l0.2,0.1l0.2,0l0.1,0l0.1,0.1l0,0.1l0.1,0.1l0.1,0l0.4,0l1.6-0.5l0.3,0l0.4-0.2l0.3,0.1l-0.1,0.4l0.1,0.2l0.2,0.2
			l0.1,0.2l0,0.1l0,0.2l-0.1,0.1l-0.1,0.1l-0.1,0.1L86.6,60l-0.1,0.3l-0.1,0.1l-0.2,0.2l-0.5,0.4l-0.2,0.3l-0.4,0.4l-0.1,0.3l0,0.3
			l0.2,0.6l0.1,0l0.1,0l0.1,0.1h0.1L86,63l1.1,0l0.4-0.1l0.5-0.3l1.6-0.4l0.7-0.4l0.2-0.1l0.1-0.1l0-0.1l0-0.1l0.1-0.1l0.1-0.1
			l0.2-0.1l0.3-0.3l0.2-0.1v-0.1l-0.1-0.3l0.2-0.3l0.4-0.5l0.1-0.2l0.1-0.2l0-0.1l0-0.2l0-0.1l0.2-0.3l0.1-0.1l0.1-0.1l0.3-0.2
			l0.5-0.2l0.2-0.1l0.1-0.1l0-0.1l0-0.1l0-0.2l0,0l0.1-0.1l0,0l0-0.1l0-0.1l0.1-0.1l0-0.3l0.2-0.3l0.7-0.5l0.2-0.2l0.1,0l0.2,0
			l0.6-0.4l0.1,0l0.1,0l0.1,0l0.1,0l0.1-0.1l0.3-0.2l0.1-0.1l0.2,0l0.6,0l0.1,0.1l0.1,0l0.2,0l0.4,0l0.1,0l0.3,0.2l0.4,0.2l0.9,0.2
			l0.3,0.1l0.2,0.3l0,0.1l0.2,0.1l0.4,0.2l0-0.2l0-0.2l0.1-0.1l0.1-0.1l0.3,0.2l1,0.5l0.1,0.3l0.4,0.2l0.1,0.1l0.1,0.1l0.2,0l0.2,0
			l0.1-0.1l0,0.2l0.1,0.1l0.1,0.1l0.4,0.2l0.2,0.1l0.1,0.2l0.1,0l0.3,0.4l0.1,0l0.1,0l0.3,0l0.1,0.1l0.3,0.2l0.1,0.1l0.5,0.4
			l0.4,0.2l0.1,0.1l0.1,0.2l0.1,0l0-0.1l-0.1-0.1l0.1-0.1l0,0l0.1,0v-0.1l-0.1,0l-0.1-0.1l-0.1-0.1l0-0.1l0,0l0,0l0,0l-0.1-0.1
			l0.2,0l0.3,0.3l0.1-0.1l0.2,0.2l0.3,0.3l0.1,0.2l0.1,0.1l0.1,0l0.1-0.1l0-0.1l0-0.1l0.1,0l0.2,0.1l0.1,0l0.1,0l0.3,0.2l0.2,0.1
			l0.1,0.1l0.3,0.5l0.4,0.3l0.3,0.4l0.4,0.9l0.1,0.5l0.3,3.1l0.2,1l0.1,0.2l0.3,0.1l0.1,0.2l0.6,0.8l0.7,1.5l0.1,0.3l0,0.3l0,0.5
			l0,0.3l0.1,0.2l-0.1,0.2l0,0.3v0.3l0,0.2l-0.2,0.7l-0.1,0.2l-0.2,0.2l0.2,0.6l0.2,0.2l0.3-0.1l0-0.1l0-0.1l0.4-0.1l0.5,0l0.5,0.1
			l0.6,0.3l0.1,0.1l0.1,0.1l0,0.2l0,0.1l-0.1,0.1l0,0.1l0,0.3l0,0.2l-0.1,0.2l-0.2,0.2l1.5,0.5l0.5,0.3l0.3,0.3l0.1,0l0.1,0.1
			l0.1,0.2l0,0.2l0.1,0.2l0.4,0.3l0.2,0.2l0,0.2l0.2,0.1l0.1,0.2l0.1,0.2l0.1,0.2l0.1,0l0.1-0.1l0.1,0l0.1,0.2l0.2,0.3l0,0.2l0,0.3
			l-0.1,0.3l-0.1,0.2l-0.2,0l-0.3-0.1l-0.1,0l-0.1,0.2l0,0.1l0.1,0.2l0.1,0.1l0.3,0.1l0.1,0.2l0.1,0.1l0,0l0.1,0h0.1l0.1,0l0-0.2
			l0.1-0.2l0-0.2l0.1-0.1l0.1,0l0.2,0l0.1,0l0.7,0.3l0.3,0l-0.1-0.1l0.1,0l0.1,0l0.1,0l0.1,0v0.1l0.2,0.1l0.3,0.2l0.4,0.2l0.5,0.1
			l1.1,0.9l0.2,0.3l0.5,1l0.1,0.2l0,0.2l0,0.1l0.2,0.3l0.1,0.2l0.1,0.1l0.1,0.2l0.1,0.2l0,0.2l0.1,0l0.7,0l0.2,0.1l0.2,0.1l0.2,0.1
			l0.1,0.1l0.1,0l0.3,0l0.1,0.1l0,0.2l0.1,0.1l0.1,0.1l0.9,0.7l0.2,0.3l0.2,0.4l0.1,0.2l0,0.2l0,0.3l0,0.2l0.1,0.2l0.1,0.2l0.1,0
			l0.3,0.1l0.1,0l0.1,0.1l0.2,0.1l0.1,0.1l1,0.9l0.9,1.1l0.7,1l0.1,0.1l0.1-0.1l0.1-0.1l0.2,0.1l0.6,0.4l0.1,0l0.7,0l0.2,0.1
			l0.3,0.2l0.3,0.2l0.5,0.6l0.1,0.2l0.2,0.4l0.1,0.2l0.1,0.2l0,0.2l0.1,0.2l0.2,0.1l0.2-0.1l0.2-0.3l0.3-0.1l0.3-0.2l0.2-0.1
			l0.8-0.1l0.4,0l1.4,0.7l0.2,0.2h0.1l0.1-0.1l0,0.1l0.1,0.1l0.1,0.1l0.1,0l0.3,0l-0.1-0.4l0.3-0.2l0.6-0.1l0.1,0.1l0.1,0l0.3-0.1
			l0.1,0l0.2,0.2l0.4,0.4l0.6,0.7l0.3,0.5l0.2,0.5l0,0.1l0,0.3l0,0.1l0.1,0.1l0.3,0.2l0.5,0.9l0.2,0.6l0.1,0.4l-0.1,0.5l0.1,0.1
			l0.3,0l0.1,0l0-0.2l0-0.2l0-0.1l0.1-0.1l0.1,0l0.1,0.1l0.2,0.1l0.3,0l0.2,0.2l0.2,0l0.1-0.2l0.1-0.1l0.2-0.1l0.3,0l0.2,0l0.2,0.1
			l0.3,0.4l0.2,0.2l0.1,0.1l0.1,0.1l0.1,0.1l0.1,0.1l0.2-0.1l0.2,0.1l0.1,0.2l0.1,0.2l0,0.2l-0.3,0.1l-0.4,0.4l-0.1,0.1l-0.1,0.1
			l-0.1,0l-0.2,0l-0.2,0.1l-0.1,0.2l0,0.3l0.1,0.2l0.1-0.2l0.4-0.2l0.2-0.2l0.5-0.1l0.1-0.1l0.3,0.2l0.3,0.1l0.3-0.1l0.4-0.3l0.1,0
			l0.5,0l0.1,0l0.3-0.2l0.3-0.1l0.3,0.1l0.3,0.2l0.2,0.2l0.2,0.3l0.3,0.4l0.8,1.7l0.2,0.4l0,0.3l-0.1,0.1l-0.2,0.1l-0.1,0.1
			l-0.1,0.1l-0.1,0l-0.1,0v0.1l0.1,0.2l-0.1,0.3l-0.2,0.3l0,0.2l0.1,0l0.1,0.1l0.2,0l0.1,0.1l0.1,0.1l0.3,0.1l0.2,0.2l0.1,0.2
			l0.1,0.1l0.2,0l0.3-0.1l0.2,0l0.1,0.1l0.6,0.6l0.2,0.1l0.2,0.1l0.3,0.3l0.1,0.3l-0.2,0.1v0.1l0.1,0l0.1,0l0.1,0l0.1,0l0.1,0
			l0.3,0.4l0.2,0.1l0.5,0.1l0.2-0.1l0.3-0.4l0.3-0.2l0.2-0.3l0.2-0.1l0.7,0.1l0.1-0.1l0,0.2l0.1,0.1l0.2,0.1l0,0l0.3,0.4l0.3,0.3
			l0.1,0.2l0.1,0.2l0.1,0.2l0,0.1l0.3,0.4l0.1,0.3l-0.1,0.5l0,0.1l0.1,0.1l0,0.1l0,0.2v-0.1l0.2,1.2l0.1,0.2l0.2,0.3l0.1,0.5
			l0.1,0.3l0.1,0.3l0.1,0.1l0.3,0.2l0.3,0.3l0.2,0.4l0.3,0.5l0.4,1.1l0.1,0.4l0.4,2.8l0.5,1.2l0.1,0.2l0.1,0.1l0.2,0l0.1,0.1
			l0.1,0.2l0,0.2l0,0.5l-0.1,0.5l-0.1,0.4l-0.2,0.3l-0.2,0.2l-0.2,0.1l-0.1,0l-0.7-0.1l-0.4,0l-0.3,0.2l-0.6,0.4l-0.4,0.1l-0.2,0.1
			l-0.1,0.1l0,0.1l0,0.1l0,0.1l0.1,0.1l0.1,0.1l0.1,0.1l0.1,0l0.3,0.3l0.1,0.3l0,0.4l-0.1,0.5l-0.7,1.4l-0.1,0.5l0,0.1l-0.1,0.1
			l0,0.1l-0.1,0.1l-0.9,0.3l-0.3,0.1l-0.2,0.2l0,0.4l0.1,0.3l0,0.2l-0.1,0.2l-0.1,0.2l0,0.2l0.1,0.2l0.2,0.4l-0.2,0.2l0,0.2l0.1,0.2
			l0.2,0.3l0.2,0.2l0.2,0.1l0.2,0.1l0.2,0.1l1.7-0.1l0.5,0.2l0.1-0.1l0.4-0.1l0.1-0.1l0.1-0.1l0.1-0.1l0.1-0.2l0.1-0.4l0.2-1.2
			l0.2-0.4l1.3-1.6l0.3-0.3l0.9-0.5l0.3-0.1l0.3-0.2l0.1,0l0.1-0.2l0.4-0.3l0.1-0.2l0.1-0.9l0-0.3l-0.2-0.8l-0.1-0.9l0-0.2l0,0
			l-0.1-0.1l0-0.3l0.1-0.2l0.1-0.2l0.1-0.3l0.1-0.2l0.2-0.2l0.6-0.3l0.1-0.1l0.1-0.1l0.4-0.3l1-0.5l0.9-0.2l0.2,0l0.2,0l0.1,0.1
			l0.2,0.3l0.2-0.1l0.3-0.1l0.2,0l0.1,0.2l0.1-0.2l0.1-0.1l0.1,0l0,0l0.3-0.3l0-0.1l0-0.5l0-0.1l0.1-0.1l0.2-0.1l-0.1,0l-0.3-0.1
			l-0.1-0.1l0-0.1l-0.2-0.4l0-0.4l0.2-0.7l0-0.4l0-0.1l-0.2-0.3l-0.1-0.1l0-0.2l0-0.2l0.1-0.7l0.3-0.8l-0.3,0l-0.3-0.2l-0.3-0.2
			l-0.2-0.2l-0.1-0.2l-0.1-0.1l-0.1-0.1l-0.2,0l-0.2-0.1l-0.4-0.4l-0.6-0.3l-0.1-0.1l-0.1-0.2l-0.1-0.2l-0.2-0.1l-0.1-0.1l-0.3-0.1
			l-1.2-0.1l-0.3-0.1l-0.4-0.3l-0.3-0.3l0.1-0.3v-0.1l-0.2-0.3l-0.1-0.3l0-0.4l0.2-0.4l0.3-0.6l0.4-0.4l0.2-0.3l0.2-0.1l0.1-0.2
			l-0.2-0.4l-0.1-0.5l0-0.2l0.1-0.5l0.2-0.3l0.1-0.1v0l0.4-0.3l0.3-0.6l0.1-0.1l0.1-0.1l0.2-0.7l0.2-0.4l0.7-1.1v0l0.5-0.7l0.6-0.6
			l0.7-0.3l0.7,0l0.1,0l0.2,0l0.1,0l0.1,0.1l0,0.1l0,0.1l0.1,0l0.2-0.1l0.2-0.1l0.2-0.1l0.2,0.1l0,0.1l0,0l0.4-0.1l0.2,0l-0.1,0.2
			l-0.2,0.1l-0.4-0.1l-0.2,0.1l0.2,0.2l0,0.2l-0.2,0.2l-0.2,0.1l0.1,0.2l0.3,0.1l0.5,0.2l0.5,0.3l0.2,0l0.1,0l0.2,0.2l0.1,0l0.1,0
			l0.2,0l0.1,0l0.5,0.3l0.2,0l3.1,0.2l0.1,0.1l0.5,0.4v0.1h-0.1l0.1,0.1l0.1,0.2l0,0.2l0,0.2l0.1,0.2l0.1,0.2l0.2,0.2l0.3,0.3
			l0.1,0.3l-0.1,0.3l-0.3,0.2l0.1,0.1l0.2,0.1l0.1,0.1l0.1,0.2l0,0.1l-0.1,0.1l-0.1,0v0.1l0.1,0.1l0.6,0.9l0.1,0.1l0.1,0l0.3,0.2
			l0.3,0.3l0.2,0.1l0.2,0.2l0.1,0h0.4l0.2,0.1l0.4,0.4l0.1,0l0.1,0l0.2,0l0,0l0.1-0.2l0,0l0-0.1l0.1-0.6l0-0.1l-0.1-0.3l0-0.1
			l0.1-0.3l0-0.3l0-0.1l0.2-0.5l0.3-0.3l0.1-0.1l0.1-0.4l0.1-0.1l0.1-0.1L187.4,108.6L187.4,108.6z M105.6,55.7L105.6,55.7
			L105.6,55.7L105.6,55.7L105.6,55.7z M106.1,55.4L106.1,55.4L106.1,55.4L106.1,55.4L106.1,55.4z M107.1,57.4L107.1,57.4l0-0.1
			L107.1,57.4L107.1,57.4z M107.2,57.7l-0.1-0.2L107.2,57.7L107.2,57.7L107.2,57.7z M107.5,58.2L107.5,58.2L107.5,58.2L107.5,58.2
			L107.5,58.2z M108.2,58.3L108.2,58.3L108.2,58.3L108.2,58.3L108.2,58.3z M110.4,56.5l-0.1-0.2L110.4,56.5L110.4,56.5L110.4,56.5z
			 M110.8,56.9L110.8,56.9l0.1,0L110.8,56.9z M114.4,58.4L114.4,58.4L114.4,58.4L114.4,58.4L114.4,58.4z M117.6,58.7L117.6,58.7
			L117.6,58.7L117.6,58.7L117.6,58.7z M117.8,58.8L117.8,58.8L117.8,58.8L117.8,58.8L117.8,58.8z M119.6,58.6L119.6,58.6L119.6,58.6
			L119.6,58.6L119.6,58.6z M121.3,57.4L121.3,57.4L121.3,57.4L121.3,57.4L121.3,57.4z M121.6,57.3L121.6,57.3L121.6,57.3L121.6,57.3
			L121.6,57.3z M122.8,58.3l-0.3,0L122.8,58.3L122.8,58.3L122.8,58.3z M123.8,60.1L123.8,60.1L123.8,60.1L123.8,60.1L123.8,60.1z
			 M123.8,60.5L123.8,60.5L123.8,60.5L123.8,60.5L123.8,60.5z M124.1,60.8L124.1,60.8L124.1,60.8L124.1,60.8L124.1,60.8z M124.1,60
			L124.1,60L124.1,60L124.1,60z M124.5,59.3L124.5,59.3L124.5,59.3l0-0.1L124.5,59.3z M126.6,72.2L126.6,72.2L126.6,72.2L126.6,72.2
			L126.6,72.2z M126.7,76.4L126.7,76.4L126.7,76.4L126.7,76.4L126.7,76.4z M126.7,73L126.7,73l-0.1,0.1l-0.1,0.1l0.1-0.1L126.7,73
			L126.7,73L126.7,73L126.7,73z M127.4,67.8L127.4,67.8L127.4,67.8L127.4,67.8L127.4,67.8L127.4,67.8L127.4,67.8L127.4,67.8z
			 M128.2,68.6L128.2,68.6L128.2,68.6L128.2,68.6L128.2,68.6z M128.1,67.1L128.1,67.1L128.1,67.1L128.1,67.1L128.1,67.1z
			 M127.8,67.4L127.8,67.4L127.8,67.4l0.1-0.1L127.8,67.4z M127.9,66.5L127.9,66.5L127.9,66.5L127.9,66.5L127.9,66.5z M127.7,63.5
			l0.2-0.1l0.1,0l-0.1,0L127.7,63.5z M128.1,66.4L128.1,66.4L128.1,66.4L128.1,66.4z M128.1,77.4l-0.1,0L128.1,77.4L128.1,77.4
			L128.1,77.4z M128.3,77.3L128.3,77.3L128.3,77.3L128.3,77.3L128.3,77.3z M128.2,69.8L128.2,69.8L128.2,69.8l0.2,0L128.2,69.8z
			 M128.3,63.4L128.3,63.4L128.3,63.4L128.3,63.4L128.3,63.4z M128.7,69.1L128.7,69.1L128.7,69.1L128.7,69.1L128.7,69.1z
			 M129.5,63.3L129.5,63.3L129.5,63.3L129.5,63.3L129.5,63.3z M129.6,64.3L129.6,64.3L129.6,64.3L129.6,64.3L129.6,64.3z
			 M129.7,63.3L129.7,63.3L129.7,63.3L129.7,63.3L129.7,63.3z M130,79.4l-0.2,0.1L130,79.4L130,79.4z M130.1,64.3L130.1,64.3
			L130.1,64.3L130.1,64.3L130.1,64.3z M131.2,86.8L131.2,86.8L131.2,86.8L131.2,86.8L131.2,86.8L131.2,86.8L131.2,86.8z M131.5,61.1
			l-0.1,0.1l0,0l0,0l0,0l0,0l0,0l-0.2,0.3l-0.3,0l-0.3-0.1l-0.1-0.3l0.1-0.3l0.1-0.1l0.1-0.1l0.3-0.2l0.3,0l0.1,0.1l0,0.2
			L131.5,61.1z M131.9,81L131.9,81L131.9,81L131.9,81L131.9,81z M132.1,80.9L132.1,80.9L132.1,80.9l0.2-0.1L132.1,80.9z M132.7,80.1
			L132.7,80.1L132.7,80.1L132.7,80.1L132.7,80.1z M133.7,79.9L133.7,79.9L133.7,79.9L133.7,79.9L133.7,79.9z M134.1,79.3L134.1,79.3
			L134.1,79.3l0.1-0.1L134.1,79.3z M136.3,78L136.3,78L136.3,78L136.3,78L136.3,78z M137,83.7L137,83.7L137,83.7L137,83.7L137,83.7z
			 M137.7,81.2L137.7,81.2L137.7,81.2L137.7,81.2z M137.6,79.8L137.6,79.8L137.6,79.8L137.6,79.8L137.6,79.8z M137.6,83.6l-0.4-0.2
			L137.6,83.6l0.3,0.1L137.6,83.6z M138.3,78.3l-0.1,0L138.3,78.3L138.3,78.3L138.3,78.3z M138.7,76.3L138.7,76.3L138.7,76.3
			L138.7,76.3L138.7,76.3z M138.7,83.9L138.7,83.9L138.7,83.9L138.7,83.9L138.7,83.9z M139.1,83.9L139.1,83.9L139.1,83.9L139.1,83.9
			L139.1,83.9z M139.1,83.8L139.1,83.8L139.1,83.8L139.1,83.8L139.1,83.8z M139.1,83.5L139.1,83.5L139.1,83.5L139.1,83.5L139.1,83.5
			z M139.6,87.2L139.6,87.2L139.6,87.2L139.6,87.2L139.6,87.2z M139.4,77.2L139.4,77.2L139.4,77.2L139.4,77.2L139.4,77.2z
			 M139.6,87.7L139.6,87.7L139.6,87.7L139.6,87.7L139.6,87.7z M140,87.7L140,87.7L140,87.7L140,87.7L140,87.7z M141.8,88.4l-0.2,0.1
			L141.8,88.4l0.1-0.1L141.8,88.4z M143.1,88.5l-0.1-0.2L143.1,88.5L143.1,88.5L143.1,88.5z M143.6,88.7L143.6,88.7L143.6,88.7
			L143.6,88.7L143.6,88.7z M143.6,88.7L143.6,88.7L143.6,88.7L143.6,88.7z M143.8,94.7L143.8,94.7L143.8,94.7L143.8,94.7z
			 M143.8,88.7L143.8,88.7L143.8,88.7l0.2,0.1L143.8,88.7z M144.1,88.9L144.1,88.9L144.1,88.9l0.1,0L144.1,88.9z M144.3,93.5
			L144.3,93.5l0-0.3L144.3,93.5z M144.4,88.9l-0.1,0L144.4,88.9l0.2,0.1L144.4,88.9z M144.6,92.6L144.6,92.6L144.6,92.6L144.6,92.6z
			 M145.6,91.1L145.6,91.1L145.6,91.1L145.6,91.1z M145.6,91L145.6,91L145.6,91L145.6,91L145.6,91z M145.6,91.5L145.6,91.5
			L145.6,91.5L145.6,91.5L145.6,91.5z M155.4,93.6L155.4,93.6L155.4,93.6L155.4,93.6z M155.7,92.7l-0.1-0.1L155.7,92.7L155.7,92.7
			L155.7,92.7z M155.7,89.7L155.7,89.7L155.7,89.7L155.7,89.7L155.7,89.7z M155.8,88.6L155.8,88.6L155.8,88.6L155.8,88.6L155.8,88.6
			z M155.8,87.7L155.8,87.7L155.8,87.7L155.8,87.7z M155.8,88.1l0-0.2L155.8,88.1L155.8,88.1z M156,94.2L156,94.2L156,94.2l0.1,0.2
			L156,94.2z M157.3,96.5L157.3,96.5L157.3,96.5l0.1,0.2L157.3,96.5z M162.8,96.3L162.8,96.3L162.8,96.3L162.8,96.3z M165.1,99.1
			L165.1,99.1L165.1,99.1L165.1,99.1L165.1,99.1z M165.3,99L165.3,99L165.3,99L165.3,99L165.3,99z M167.9,101.5l-0.1-0.1
			L167.9,101.5L167.9,101.5L167.9,101.5z M170.7,103.6L170.7,103.6L170.7,103.6l0,0.2L170.7,103.6z M170.8,102L170.8,102L170.8,102
			L170.8,102z M171.8,105L171.8,105L171.8,105L171.8,105L171.8,105z"/>
	</g>
	<g>
		<g>
			<path class="st1" d="M189.7,26.7c-12.6-4.2-36-8.5-57.4,4.8"/>
			<g>
				<path class="st2" d="M132.3,31.6c0.1,0,0.2,0.1,0.3,0.2c-0.2-0.1-0.4-0.1-0.6-0.1c0.1-0.2,0.2-0.4,0.2-0.5
					C132.2,31.3,132.3,31.4,132.3,31.6z"/>
			</g>
		</g>
	</g>
	<g>
		<g>
			<path class="st3" d="M189.7,79.5c-12.2-2.4-21.6,1.8-32.6,10"/>
			<g>
				<path class="st2" d="M157.3,89.3c1.2,0.2,2.5,1.3,3.2,2.2c-1.8-0.6-3.9-0.8-5.8-0.3c1-1.7,1.3-3.7,1.4-5.6
					C156.8,86.6,157.4,88,157.3,89.3z"/>
			</g>
		</g>
	</g>
	<g>
		<g>
			<path class="st4" d="M189.7,109.6c-7.7-1.6-14.6,0.6-21.7,6.6"/>
			<g>
				<path class="st2" d="M168,116.1c0.4,0,0.8,0.3,1,0.6c-0.6-0.1-1.2-0.2-1.8,0c0.3-0.5,0.3-1.2,0.3-1.8
					C167.8,115.3,168,115.7,168,116.1z"/>
			</g>
		</g>
	</g>
	<g>
		<path class="st5" d="M200.7,25.2c-0.9,0-1.6-0.3-2.2-0.9c-0.6-0.6-0.9-1.3-0.9-2.2s0.3-1.7,0.9-2.2c0.6-0.6,1.3-0.9,2.2-0.9
			c0.9,0,1.7,0.4,2.3,1.1l-0.6,0.4c-0.2-0.3-0.4-0.5-0.8-0.6c-0.3-0.2-0.6-0.2-1-0.2c-0.7,0-1.2,0.2-1.7,0.7s-0.7,1-0.7,1.8
			s0.2,1.3,0.7,1.8s1,0.7,1.7,0.7c0.3,0,0.6-0.1,0.9-0.2c0.3-0.1,0.5-0.3,0.7-0.5v-1.2h-2.1V22h2.8v2.2
			C202.4,24.8,201.6,25.2,200.7,25.2z"/>
		<path class="st5" d="M207.8,25.1h-0.7v-2.9c0-0.4-0.1-0.6-0.3-0.8c-0.2-0.2-0.4-0.2-0.7-0.2c-0.2,0-0.5,0.1-0.7,0.2
			c-0.2,0.1-0.4,0.3-0.6,0.5v3.2h-0.7v-6h0.7v2.3c0.2-0.2,0.4-0.4,0.7-0.5c0.3-0.1,0.6-0.2,0.9-0.2c0.9,0,1.4,0.5,1.4,1.4V25.1z"/>
		<path class="st5" d="M212.6,25.1h-0.7v-0.5c-0.4,0.4-0.8,0.6-1.4,0.6c-0.4,0-0.8-0.1-1.1-0.4c-0.3-0.3-0.5-0.6-0.5-1.1
			c0-0.5,0.2-0.8,0.5-1.1c0.3-0.2,0.7-0.4,1.1-0.4c0.6,0,1.1,0.2,1.4,0.6v-0.8c0-0.3-0.1-0.5-0.3-0.7s-0.5-0.2-0.8-0.2
			c-0.5,0-1,0.2-1.3,0.6l-0.3-0.5c0.5-0.5,1-0.7,1.7-0.7c0.5,0,0.9,0.1,1.2,0.4c0.3,0.2,0.5,0.6,0.5,1.1V25.1z M210.7,24.7
			c0.5,0,0.9-0.2,1.2-0.5v-0.8c-0.3-0.4-0.7-0.5-1.2-0.5c-0.3,0-0.6,0.1-0.8,0.3s-0.3,0.4-0.3,0.7c0,0.3,0.1,0.5,0.3,0.7
			S210.4,24.7,210.7,24.7z"/>
		<path class="st5" d="M217.5,25.1h-0.7v-2.8c0-0.4-0.1-0.6-0.3-0.8c-0.2-0.2-0.4-0.2-0.7-0.2c-0.3,0-0.5,0.1-0.7,0.2
			s-0.4,0.3-0.6,0.5v3.2h-0.7v-4.3h0.7v0.6c0.2-0.2,0.4-0.4,0.7-0.5c0.3-0.1,0.6-0.2,0.9-0.2c0.9,0,1.4,0.5,1.4,1.4V25.1z"/>
		<path class="st5" d="M222.3,25.1h-0.7v-0.5c-0.4,0.4-0.8,0.6-1.4,0.6c-0.4,0-0.8-0.1-1.1-0.4c-0.3-0.3-0.5-0.6-0.5-1.1
			c0-0.5,0.2-0.8,0.5-1.1s0.7-0.4,1.1-0.4c0.6,0,1.1,0.2,1.4,0.6v-0.8c0-0.3-0.1-0.5-0.3-0.7s-0.5-0.2-0.8-0.2c-0.5,0-1,0.2-1.3,0.6
			l-0.3-0.5c0.5-0.5,1-0.7,1.7-0.7c0.5,0,0.9,0.1,1.2,0.4c0.3,0.2,0.5,0.6,0.5,1.1V25.1z M220.4,24.7c0.5,0,0.9-0.2,1.2-0.5v-0.8
			c-0.3-0.4-0.7-0.5-1.2-0.5c-0.3,0-0.6,0.1-0.8,0.3c-0.2,0.2-0.3,0.4-0.3,0.7c0,0.3,0.1,0.5,0.3,0.7
			C219.8,24.6,220.1,24.7,220.4,24.7z"/>
	</g>
	<g>
		<path class="st5" d="M202.1,51.9c-0.4,0.4-1,0.7-1.8,0.7c-0.8,0-1.4-0.2-1.8-0.7c-0.4-0.4-0.6-1-0.6-1.8v-3.7h0.7v3.7
			c0,0.6,0.1,1,0.4,1.3c0.3,0.3,0.7,0.5,1.3,0.5c0.5,0,1-0.2,1.3-0.5c0.3-0.3,0.4-0.8,0.4-1.3v-3.7h0.7v3.7
			C202.7,50.9,202.5,51.5,202.1,51.9z"/>
		<path class="st5" d="M207.9,52.5H207l-1.6-2l-0.7,0.7v1.2h-0.7v-6h0.7v4l2.3-2.3h0.9l-1.9,2L207.9,52.5z"/>
		<path class="st5" d="M209.4,52.5h-0.7v-4.3h0.7v0.7c0.4-0.5,0.9-0.8,1.4-0.8v0.7c-0.1,0-0.2,0-0.3,0c-0.2,0-0.4,0.1-0.7,0.2
			c-0.2,0.1-0.4,0.3-0.5,0.5V52.5z"/>
		<path class="st5" d="M215.1,52.5h-0.7V52c-0.4,0.4-0.8,0.6-1.4,0.6c-0.4,0-0.8-0.1-1.1-0.4c-0.3-0.3-0.5-0.6-0.5-1.1
			c0-0.5,0.2-0.8,0.5-1.1c0.3-0.2,0.7-0.4,1.1-0.4c0.6,0,1.1,0.2,1.4,0.6v-0.8c0-0.3-0.1-0.5-0.3-0.7s-0.5-0.2-0.8-0.2
			c-0.5,0-1,0.2-1.3,0.6l-0.3-0.5c0.5-0.5,1-0.7,1.7-0.7c0.5,0,0.9,0.1,1.2,0.4c0.3,0.2,0.5,0.6,0.5,1.1V52.5z M213.2,52.1
			c0.5,0,0.9-0.2,1.2-0.5v-0.8c-0.3-0.4-0.7-0.5-1.2-0.5c-0.3,0-0.6,0.1-0.8,0.3c-0.2,0.2-0.3,0.4-0.3,0.7c0,0.3,0.1,0.5,0.3,0.7
			C212.6,52,212.9,52.1,213.2,52.1z"/>
		<path class="st5" d="M216.8,47.5c-0.1,0-0.2,0-0.3-0.1c-0.1-0.1-0.1-0.2-0.1-0.3s0-0.2,0.1-0.3c0.1-0.1,0.2-0.1,0.3-0.1
			c0.1,0,0.2,0,0.3,0.1c0.1,0.1,0.1,0.2,0.1,0.3s0,0.2-0.1,0.3C217,47.5,216.9,47.5,216.8,47.5z M217.1,52.5h-0.7v-4.3h0.7V52.5z"/>
		<path class="st5" d="M222.1,52.5h-0.7v-2.8c0-0.4-0.1-0.6-0.3-0.8c-0.2-0.2-0.4-0.2-0.7-0.2c-0.3,0-0.5,0.1-0.7,0.2
			c-0.2,0.1-0.4,0.3-0.6,0.5v3.2h-0.7v-4.3h0.7v0.6c0.2-0.2,0.4-0.4,0.7-0.5c0.3-0.1,0.6-0.2,0.9-0.2c0.9,0,1.4,0.5,1.4,1.4V52.5z"
			/>
		<path class="st5" d="M225.4,52.6c-0.6,0-1.2-0.2-1.6-0.6s-0.6-1-0.6-1.7c0-0.6,0.2-1.2,0.6-1.6c0.4-0.4,0.9-0.7,1.5-0.7
			c0.6,0,1.2,0.2,1.5,0.7c0.4,0.4,0.6,1,0.6,1.7v0.2h-3.5c0,0.4,0.2,0.8,0.5,1.1s0.6,0.4,1.1,0.4c0.5,0,1-0.2,1.3-0.5l0.3,0.4
			C226.6,52.4,226.1,52.6,225.4,52.6z M226.7,50c0-0.4-0.1-0.7-0.4-1s-0.6-0.4-1.1-0.4c-0.4,0-0.8,0.1-1,0.4c-0.2,0.3-0.4,0.6-0.4,1
			H226.7z"/>
	</g>
	<g>
		<path class="st5" d="M200.7,79.3c-0.9,0-1.6-0.3-2.2-0.9c-0.6-0.6-0.9-1.3-0.9-2.2s0.3-1.7,0.9-2.2c0.6-0.6,1.3-0.9,2.2-0.9
			c0.9,0,1.7,0.4,2.3,1.1l-0.6,0.4c-0.2-0.3-0.4-0.5-0.8-0.6c-0.3-0.1-0.6-0.2-1-0.2c-0.7,0-1.2,0.2-1.7,0.7s-0.7,1-0.7,1.8
			s0.2,1.3,0.7,1.8c0.4,0.5,1,0.7,1.7,0.7c0.3,0,0.6-0.1,0.9-0.2c0.3-0.1,0.5-0.3,0.7-0.5v-1.2h-2.1v-0.7h2.8v2.2
			C202.4,79,201.6,79.3,200.7,79.3z"/>
		<path class="st5" d="M207.6,79.2h-0.7v-0.5c-0.4,0.4-0.8,0.6-1.4,0.6c-0.4,0-0.8-0.1-1.1-0.4c-0.3-0.3-0.5-0.6-0.5-1.1
			c0-0.5,0.2-0.8,0.5-1.1c0.3-0.2,0.7-0.4,1.1-0.4c0.6,0,1.1,0.2,1.4,0.6v-0.8c0-0.3-0.1-0.5-0.3-0.7s-0.5-0.2-0.8-0.2
			c-0.5,0-1,0.2-1.3,0.6l-0.3-0.5c0.5-0.5,1-0.7,1.7-0.7c0.5,0,0.9,0.1,1.2,0.4c0.3,0.2,0.5,0.6,0.5,1.1V79.2z M205.7,78.8
			c0.5,0,0.9-0.2,1.2-0.5v-0.8c-0.3-0.4-0.7-0.5-1.2-0.5c-0.3,0-0.6,0.1-0.8,0.3c-0.2,0.2-0.3,0.4-0.3,0.7c0,0.3,0.1,0.5,0.3,0.7
			C205.1,78.7,205.4,78.8,205.7,78.8z"/>
		<path class="st5" d="M214.9,79.2h-0.7v-3c0-0.6-0.3-0.9-0.8-0.9c-0.2,0-0.4,0.1-0.6,0.2c-0.2,0.1-0.4,0.3-0.5,0.5v3.2h-0.7v-3
			c0-0.6-0.3-0.9-0.8-0.9c-0.2,0-0.4,0.1-0.6,0.2c-0.2,0.1-0.4,0.3-0.5,0.5v3.2h-0.7v-4.3h0.7v0.6c0.1-0.2,0.3-0.3,0.6-0.5
			s0.5-0.2,0.8-0.2c0.3,0,0.6,0.1,0.8,0.2c0.2,0.1,0.3,0.3,0.4,0.6c0.1-0.2,0.3-0.4,0.6-0.6c0.3-0.2,0.6-0.2,0.9-0.2
			c0.8,0,1.2,0.4,1.2,1.3V79.2z"/>
		<path class="st5" d="M216.9,79.2h-0.7v-6h0.7v2.3c0.4-0.5,0.9-0.8,1.5-0.8c0.6,0,1,0.2,1.4,0.6c0.4,0.4,0.5,1,0.5,1.7
			c0,0.7-0.2,1.2-0.5,1.7c-0.4,0.4-0.8,0.6-1.4,0.6c-0.6,0-1.1-0.3-1.5-0.8V79.2z M216.9,78c0.1,0.2,0.3,0.4,0.5,0.5
			c0.2,0.1,0.5,0.2,0.8,0.2c0.4,0,0.8-0.2,1-0.5c0.3-0.3,0.4-0.7,0.4-1.2s-0.1-0.9-0.4-1.2c-0.3-0.3-0.6-0.5-1-0.5
			c-0.3,0-0.5,0.1-0.8,0.2c-0.2,0.1-0.4,0.3-0.5,0.5V78z"/>
		<path class="st5" d="M221.7,74.2c-0.1,0-0.2,0-0.3-0.1c-0.1-0.1-0.1-0.2-0.1-0.3s0-0.2,0.1-0.3c0.1-0.1,0.2-0.1,0.3-0.1
			c0.1,0,0.2,0,0.3,0.1c0.1,0.1,0.1,0.2,0.1,0.3s0,0.2-0.1,0.3C222,74.2,221.8,74.2,221.7,74.2z M222.1,79.2h-0.7v-4.3h0.7V79.2z"/>
		<path class="st5" d="M226.8,79.2h-0.7v-0.5c-0.4,0.4-0.8,0.6-1.4,0.6c-0.4,0-0.8-0.1-1.1-0.4c-0.3-0.3-0.5-0.6-0.5-1.1
			c0-0.5,0.2-0.8,0.5-1.1c0.3-0.2,0.7-0.4,1.1-0.4c0.6,0,1.1,0.2,1.4,0.6v-0.8c0-0.3-0.1-0.5-0.3-0.7s-0.5-0.2-0.8-0.2
			c-0.5,0-1,0.2-1.3,0.6l-0.3-0.5c0.5-0.5,1-0.7,1.7-0.7c0.5,0,0.9,0.1,1.2,0.4c0.3,0.2,0.5,0.6,0.5,1.1V79.2z M224.9,78.8
			c0.5,0,0.9-0.2,1.2-0.5v-0.8c-0.3-0.4-0.7-0.5-1.2-0.5c-0.3,0-0.6,0.1-0.8,0.3c-0.2,0.2-0.3,0.4-0.3,0.7c0,0.3,0.1,0.5,0.3,0.7
			C224.4,78.7,224.6,78.8,224.9,78.8z"/>
	</g>
	<g>
		<path class="st5" d="M200.7,106.2c-0.9,0-1.6-0.3-2.2-0.9s-0.9-1.3-0.9-2.2s0.3-1.7,0.9-2.2s1.3-0.9,2.2-0.9c1,0,1.7,0.4,2.3,1.2
			l-0.6,0.4c-0.2-0.3-0.4-0.5-0.7-0.6c-0.3-0.2-0.6-0.2-0.9-0.2c-0.7,0-1.2,0.2-1.7,0.7s-0.7,1-0.7,1.8s0.2,1.3,0.7,1.8
			s1,0.7,1.7,0.7c0.3,0,0.7-0.1,0.9-0.2c0.3-0.2,0.5-0.4,0.7-0.6l0.6,0.4C202.4,105.8,201.6,106.2,200.7,106.2z"/>
		<path class="st5" d="M207.3,105.6c-0.4,0.4-0.9,0.7-1.6,0.7c-0.6,0-1.2-0.2-1.6-0.7c-0.4-0.4-0.6-1-0.6-1.6c0-0.6,0.2-1.2,0.6-1.6
			c0.4-0.4,0.9-0.7,1.6-0.7c0.6,0,1.2,0.2,1.6,0.7c0.4,0.4,0.6,1,0.6,1.6C207.9,104.6,207.7,105.1,207.3,105.6z M204.7,105.1
			c0.3,0.3,0.6,0.5,1.1,0.5s0.8-0.2,1.1-0.5s0.4-0.7,0.4-1.2c0-0.5-0.1-0.9-0.4-1.2s-0.6-0.5-1.1-0.5s-0.8,0.2-1.1,0.5
			c-0.3,0.3-0.4,0.7-0.4,1.2C204.3,104.4,204.4,104.8,204.7,105.1z M207,101.1h-0.5l-0.7-1l-0.7,1h-0.5l0.9-1.3h0.6L207,101.1z"/>
		<path class="st5" d="M210.1,106.2c-0.3,0-0.6-0.1-0.7-0.3c-0.2-0.2-0.2-0.4-0.2-0.8v-2.8h-0.7v-0.6h0.7v-1.2h0.7v1.2h0.9v0.6h-0.9
			v2.7c0,0.2,0,0.3,0.1,0.4c0.1,0.1,0.2,0.2,0.3,0.2c0.2,0,0.4-0.1,0.5-0.2l0.2,0.5C210.7,106.1,210.5,106.2,210.1,106.2z"/>
		<path class="st5" d="M213.6,106.2c-0.6,0-1.2-0.2-1.6-0.6c-0.4-0.4-0.6-1-0.6-1.7c0-0.6,0.2-1.2,0.6-1.6c0.4-0.4,0.9-0.7,1.5-0.7
			c0.6,0,1.2,0.2,1.5,0.7c0.4,0.4,0.6,1,0.6,1.7v0.2h-3.5c0,0.4,0.2,0.8,0.5,1.1c0.3,0.3,0.6,0.4,1.1,0.4c0.5,0,1-0.2,1.3-0.5
			l0.3,0.4C214.9,106,214.3,106.2,213.6,106.2z M215,103.7c0-0.4-0.1-0.7-0.4-1c-0.2-0.3-0.6-0.4-1.1-0.4c-0.4,0-0.8,0.1-1,0.4
			c-0.2,0.3-0.4,0.6-0.4,1H215z"/>
		<path class="st5" d="M222.9,106.1h-0.7v-0.6c-0.4,0.5-0.9,0.8-1.5,0.8c-0.6,0-1-0.2-1.4-0.6c-0.4-0.4-0.5-1-0.5-1.7
			c0-0.7,0.2-1.2,0.5-1.7c0.4-0.4,0.8-0.6,1.4-0.6c0.6,0,1.1,0.3,1.5,0.8v-2.3h0.7V106.1z M220.9,105.6c0.3,0,0.5-0.1,0.8-0.2
			c0.2-0.1,0.4-0.3,0.5-0.5v-2c-0.1-0.2-0.3-0.4-0.6-0.5c-0.2-0.1-0.5-0.2-0.8-0.2c-0.4,0-0.8,0.2-1,0.5c-0.3,0.3-0.4,0.7-0.4,1.2
			s0.1,0.9,0.4,1.2C220.1,105.5,220.5,105.6,220.9,105.6z"/>
		<path class="st5" d="M224.6,102.4h-0.3c-0.2-1.2-0.2-1.9-0.2-2c0-0.1,0-0.2,0.1-0.3s0.2-0.1,0.3-0.1c0.1,0,0.2,0,0.3,0.1
			s0.1,0.2,0.1,0.3L224.6,102.4z"/>
		<path class="st5" d="M226.8,106.1H226v-6h0.7V106.1z"/>
		<path class="st5" d="M230.1,106.1h-0.7l-1.8-4.3h0.7l1.4,3.6l1.4-3.6h0.7L230.1,106.1z"/>
		<path class="st5" d="M236,105.6c-0.4,0.4-0.9,0.7-1.6,0.7c-0.6,0-1.2-0.2-1.6-0.7c-0.4-0.4-0.6-1-0.6-1.6c0-0.6,0.2-1.2,0.6-1.6
			c0.4-0.4,0.9-0.7,1.6-0.7c0.6,0,1.2,0.2,1.6,0.7c0.4,0.4,0.6,1,0.6,1.6C236.6,104.6,236.4,105.1,236,105.6z M233.4,105.1
			c0.3,0.3,0.6,0.5,1.1,0.5c0.4,0,0.8-0.2,1.1-0.5s0.4-0.7,0.4-1.2c0-0.5-0.1-0.9-0.4-1.2s-0.6-0.5-1.1-0.5c-0.4,0-0.8,0.2-1.1,0.5
			c-0.3,0.3-0.4,0.7-0.4,1.2C233,104.4,233.2,104.8,233.4,105.1z"/>
		<path class="st5" d="M238.1,101.1c-0.1,0-0.2,0-0.3-0.1c-0.1-0.1-0.1-0.2-0.1-0.3s0-0.2,0.1-0.3c0.1-0.1,0.2-0.1,0.3-0.1
			c0.1,0,0.2,0,0.3,0.1s0.1,0.2,0.1,0.3s0,0.2-0.1,0.3S238.2,101.1,238.1,101.1z M238.4,106.1h-0.7v-4.3h0.7V106.1z"/>
		<path class="st5" d="M240.4,106.1h-0.7v-4.3h0.7v0.7c0.4-0.5,0.9-0.8,1.4-0.8v0.7c-0.1,0-0.2,0-0.3,0c-0.2,0-0.4,0.1-0.7,0.2
			c-0.2,0.1-0.4,0.3-0.5,0.5V106.1z"/>
		<path class="st5" d="M244.7,106.2c-0.6,0-1.2-0.2-1.6-0.6c-0.4-0.4-0.6-1-0.6-1.7c0-0.6,0.2-1.2,0.6-1.6c0.4-0.4,0.9-0.7,1.5-0.7
			c0.6,0,1.2,0.2,1.5,0.7c0.4,0.4,0.6,1,0.6,1.7v0.2h-3.5c0,0.4,0.2,0.8,0.5,1.1c0.3,0.3,0.6,0.4,1.1,0.4c0.5,0,1-0.2,1.3-0.5
			l0.3,0.4C246,106,245.4,106.2,244.7,106.2z M246,103.7c0-0.4-0.1-0.7-0.4-1c-0.2-0.3-0.6-0.4-1.1-0.4c-0.4,0-0.8,0.1-1,0.4
			s-0.4,0.6-0.4,1H246z"/>
	</g>
	<g>
		<path class="st5" d="M17.1,23.2h-2.7v-6H17c0.5,0,0.9,0.1,1.2,0.4s0.5,0.7,0.5,1.1c0,0.4-0.1,0.7-0.3,0.9S18,20,17.7,20.1
			c0.3,0,0.6,0.2,0.8,0.5c0.2,0.3,0.3,0.6,0.3,1c0,0.5-0.2,0.9-0.5,1.2C18.1,23,17.6,23.2,17.1,23.2z M16.9,19.8
			c0.3,0,0.6-0.1,0.8-0.3c0.2-0.2,0.3-0.4,0.3-0.7s-0.1-0.5-0.3-0.7c-0.2-0.2-0.4-0.3-0.8-0.3h-1.8v1.9H16.9z M16.9,22.5
			c0.3,0,0.6-0.1,0.8-0.3c0.2-0.2,0.3-0.4,0.3-0.8c0-0.3-0.1-0.5-0.3-0.7s-0.5-0.3-0.8-0.3h-1.8v2.1H16.9z"/>
		<path class="st5" d="M23.4,23.2h-0.7v-0.5c-0.4,0.4-0.8,0.6-1.4,0.6c-0.4,0-0.8-0.1-1.1-0.4c-0.3-0.3-0.5-0.6-0.5-1.1
			c0-0.5,0.2-0.8,0.5-1.1c0.3-0.2,0.7-0.4,1.1-0.4c0.6,0,1.1,0.2,1.4,0.6v-0.8c0-0.3-0.1-0.5-0.3-0.7s-0.5-0.2-0.8-0.2
			c-0.5,0-1,0.2-1.3,0.6L20,19.4c0.5-0.5,1-0.7,1.7-0.7c0.5,0,0.9,0.1,1.2,0.4c0.3,0.2,0.5,0.6,0.5,1.1V23.2z M21.5,22.8
			c0.5,0,0.9-0.2,1.2-0.5v-0.8c-0.3-0.4-0.7-0.5-1.2-0.5c-0.3,0-0.6,0.1-0.8,0.3s-0.3,0.4-0.3,0.7c0,0.3,0.1,0.5,0.3,0.7
			S21.2,22.8,21.5,22.8z"/>
		<path class="st5" d="M28.3,23.2h-0.7v-2.8c0-0.4-0.1-0.6-0.3-0.8c-0.2-0.2-0.4-0.2-0.7-0.2c-0.3,0-0.5,0.1-0.7,0.2
			s-0.4,0.3-0.6,0.5v3.2h-0.7v-4.3h0.7v0.6c0.2-0.2,0.4-0.4,0.7-0.5c0.3-0.1,0.6-0.2,0.9-0.2c0.9,0,1.4,0.5,1.4,1.4V23.2z"/>
		<path class="st5" d="M31.4,24.9c-0.4,0-0.7,0-1-0.1c-0.3-0.1-0.5-0.3-0.8-0.5l0.3-0.5c0.3,0.4,0.8,0.6,1.4,0.6
			c0.4,0,0.7-0.1,1-0.3c0.3-0.2,0.4-0.5,0.4-1v-0.6c-0.2,0.2-0.4,0.4-0.6,0.6c-0.3,0.1-0.5,0.2-0.8,0.2c-0.6,0-1-0.2-1.4-0.6
			c-0.4-0.4-0.5-1-0.5-1.6c0-0.7,0.2-1.2,0.5-1.6c0.4-0.4,0.8-0.6,1.4-0.6c0.6,0,1.1,0.3,1.5,0.8v-0.7h0.7V23c0,0.7-0.2,1.1-0.6,1.4
			C32.5,24.8,32,24.9,31.4,24.9z M31.5,22.6c0.3,0,0.5-0.1,0.8-0.2s0.4-0.3,0.5-0.5V20c-0.1-0.2-0.3-0.4-0.5-0.5
			c-0.2-0.1-0.5-0.2-0.8-0.2c-0.4,0-0.8,0.2-1,0.5c-0.2,0.3-0.4,0.7-0.4,1.2c0,0.5,0.1,0.9,0.4,1.2C30.8,22.5,31.1,22.6,31.5,22.6z"
			/>
		<path class="st5" d="M35.5,23.2h-0.7v-6h0.7V23.2z"/>
		<path class="st5" d="M40.3,23.2h-0.7v-0.5c-0.4,0.4-0.8,0.6-1.4,0.6c-0.4,0-0.8-0.1-1.1-0.4c-0.3-0.3-0.5-0.6-0.5-1.1
			c0-0.5,0.2-0.8,0.5-1.1c0.3-0.2,0.7-0.4,1.1-0.4c0.6,0,1.1,0.2,1.4,0.6v-0.8c0-0.3-0.1-0.5-0.3-0.7c-0.2-0.2-0.5-0.2-0.8-0.2
			c-0.5,0-1,0.2-1.3,0.6l-0.3-0.5c0.5-0.5,1-0.7,1.7-0.7c0.5,0,0.9,0.1,1.2,0.4c0.3,0.2,0.5,0.6,0.5,1.1V23.2z M38.4,22.8
			c0.5,0,0.9-0.2,1.2-0.5v-0.8c-0.3-0.4-0.7-0.5-1.2-0.5c-0.3,0-0.6,0.1-0.8,0.3s-0.3,0.4-0.3,0.7c0,0.3,0.1,0.5,0.3,0.7
			S38.1,22.8,38.4,22.8z"/>
		<path class="st5" d="M45.5,23.2h-0.7v-0.6c-0.4,0.5-0.9,0.8-1.5,0.8c-0.6,0-1-0.2-1.4-0.6s-0.5-1-0.5-1.7c0-0.7,0.2-1.2,0.5-1.7
			s0.8-0.6,1.4-0.6c0.6,0,1.1,0.3,1.5,0.8v-2.3h0.7V23.2z M43.5,22.7c0.3,0,0.5-0.1,0.8-0.2c0.2-0.1,0.4-0.3,0.5-0.5v-2
			c-0.1-0.2-0.3-0.4-0.6-0.5c-0.2-0.1-0.5-0.2-0.8-0.2c-0.4,0-0.8,0.2-1,0.5c-0.3,0.3-0.4,0.7-0.4,1.2s0.1,0.9,0.4,1.2
			C42.7,22.5,43.1,22.7,43.5,22.7z"/>
		<path class="st5" d="M48.8,23.3c-0.6,0-1.2-0.2-1.6-0.6c-0.4-0.4-0.6-1-0.6-1.7c0-0.6,0.2-1.2,0.6-1.6c0.4-0.4,0.9-0.7,1.5-0.7
			c0.6,0,1.2,0.2,1.5,0.7c0.4,0.4,0.6,1,0.6,1.7v0.2h-3.5c0,0.4,0.2,0.8,0.5,1.1c0.3,0.3,0.6,0.4,1.1,0.4c0.5,0,1-0.2,1.3-0.5
			l0.3,0.4C50.1,23,49.5,23.3,48.8,23.3z M50.1,20.7c0-0.4-0.1-0.7-0.4-1c-0.2-0.3-0.6-0.4-1.1-0.4c-0.4,0-0.8,0.1-1,0.4
			s-0.4,0.6-0.4,1H50.1z"/>
		<path class="st5" d="M53.3,23.3c-0.7,0-1.3-0.2-1.8-0.7l0.4-0.5c0.1,0.2,0.4,0.3,0.6,0.4s0.5,0.2,0.8,0.2c0.3,0,0.6-0.1,0.8-0.2
			c0.2-0.1,0.3-0.3,0.3-0.5c0-0.2-0.1-0.3-0.3-0.5s-0.4-0.2-0.7-0.3c-0.3-0.1-0.5-0.1-0.8-0.2c-0.3-0.1-0.5-0.2-0.7-0.4
			c-0.2-0.2-0.3-0.4-0.3-0.7c0-0.4,0.1-0.7,0.4-0.9c0.3-0.2,0.7-0.4,1.2-0.4c0.7,0,1.2,0.2,1.6,0.6l-0.3,0.5
			c-0.3-0.4-0.7-0.5-1.3-0.5c-0.3,0-0.5,0.1-0.7,0.2s-0.3,0.3-0.3,0.5c0,0.2,0.1,0.3,0.3,0.4c0.2,0.1,0.4,0.2,0.7,0.2
			c0.3,0.1,0.5,0.1,0.8,0.2c0.3,0.1,0.5,0.2,0.7,0.4c0.2,0.2,0.3,0.4,0.3,0.8c0,0.4-0.2,0.7-0.4,0.9C54.2,23.1,53.8,23.3,53.3,23.3z
			"/>
		<path class="st5" d="M59.7,23.2H59v-2.9c0-0.4-0.1-0.6-0.3-0.8c-0.2-0.2-0.4-0.2-0.7-0.2c-0.2,0-0.5,0.1-0.7,0.2
			c-0.2,0.1-0.4,0.3-0.6,0.5v3.2h-0.7v-6h0.7v2.3c0.2-0.2,0.4-0.4,0.7-0.5c0.3-0.1,0.6-0.2,0.9-0.2c0.9,0,1.4,0.5,1.4,1.4V23.2z"/>
	</g>
	<g>
		<path class="st5" d="M28.8,134.6H28v-6h2.4c0.6,0,1,0.2,1.4,0.5c0.3,0.3,0.5,0.8,0.5,1.3c0,0.5-0.2,0.9-0.5,1.3
			c-0.3,0.3-0.8,0.5-1.4,0.5h-1.7V134.6z M30.3,131.5c0.4,0,0.6-0.1,0.9-0.3c0.2-0.2,0.3-0.5,0.3-0.8s-0.1-0.6-0.3-0.8
			c-0.2-0.2-0.5-0.3-0.9-0.3h-1.6v2.3H30.3z"/>
		<path class="st5" d="M36.5,134.6h-0.7v-0.5c-0.4,0.4-0.8,0.6-1.4,0.6c-0.4,0-0.8-0.1-1.1-0.4c-0.3-0.3-0.5-0.6-0.5-1.1
			c0-0.5,0.2-0.8,0.5-1.1c0.3-0.2,0.7-0.4,1.1-0.4c0.6,0,1.1,0.2,1.4,0.6v-0.8c0-0.3-0.1-0.5-0.3-0.7c-0.2-0.2-0.5-0.2-0.8-0.2
			c-0.5,0-1,0.2-1.3,0.6l-0.3-0.5c0.5-0.5,1-0.7,1.7-0.7c0.5,0,0.9,0.1,1.2,0.4s0.5,0.6,0.5,1.1V134.6z M34.6,134.2
			c0.5,0,0.9-0.2,1.2-0.5v-0.8c-0.3-0.4-0.7-0.5-1.2-0.5c-0.3,0-0.6,0.1-0.8,0.3c-0.2,0.2-0.3,0.4-0.3,0.7c0,0.3,0.1,0.5,0.3,0.7
			C34.1,134.1,34.3,134.2,34.6,134.2z"/>
		<path class="st5" d="M41.7,134.6h-0.9l-1.6-2l-0.7,0.7v1.2h-0.7v-6h0.7v4l2.3-2.3h0.9l-1.9,2L41.7,134.6z"/>
		<path class="st5" d="M42.8,129.6c-0.1,0-0.2,0-0.3-0.1c-0.1-0.1-0.1-0.2-0.1-0.3s0-0.2,0.1-0.3c0.1-0.1,0.2-0.1,0.3-0.1
			c0.1,0,0.2,0,0.3,0.1c0.1,0.1,0.1,0.2,0.1,0.3s0,0.2-0.1,0.3C43,129.6,42.9,129.6,42.8,129.6z M43.1,134.6h-0.7v-4.3h0.7V134.6z"
			/>
		<path class="st5" d="M45.9,134.7c-0.7,0-1.3-0.2-1.8-0.7l0.4-0.5c0.2,0.2,0.4,0.3,0.6,0.4c0.3,0.1,0.5,0.2,0.8,0.2
			c0.3,0,0.6-0.1,0.8-0.2c0.2-0.1,0.3-0.3,0.3-0.5c0-0.2-0.1-0.3-0.3-0.5c-0.2-0.1-0.4-0.2-0.7-0.3c-0.3-0.1-0.5-0.1-0.8-0.2
			c-0.3-0.1-0.5-0.2-0.7-0.4c-0.2-0.2-0.3-0.4-0.3-0.7c0-0.4,0.1-0.7,0.4-0.9s0.7-0.4,1.2-0.4c0.7,0,1.2,0.2,1.6,0.6l-0.3,0.5
			c-0.3-0.4-0.7-0.5-1.3-0.5c-0.3,0-0.5,0.1-0.7,0.2c-0.2,0.1-0.3,0.3-0.3,0.5c0,0.2,0.1,0.3,0.3,0.4c0.2,0.1,0.4,0.2,0.7,0.2
			s0.5,0.1,0.8,0.2s0.5,0.2,0.7,0.4c0.2,0.2,0.3,0.4,0.3,0.8c0,0.4-0.2,0.7-0.5,0.9C46.8,134.6,46.4,134.7,45.9,134.7z"/>
		<path class="st5" d="M49.8,134.7c-0.3,0-0.6-0.1-0.7-0.3c-0.2-0.2-0.2-0.4-0.2-0.8v-2.8h-0.7v-0.6h0.7V129h0.7v1.2h0.9v0.6h-0.9
			v2.7c0,0.2,0,0.3,0.1,0.4c0.1,0.1,0.2,0.2,0.3,0.2c0.2,0,0.4-0.1,0.5-0.2l0.2,0.5C50.4,134.6,50.1,134.7,49.8,134.7z"/>
		<path class="st5" d="M54.7,134.6H54v-0.5c-0.4,0.4-0.8,0.6-1.4,0.6c-0.4,0-0.8-0.1-1.1-0.4c-0.3-0.3-0.5-0.6-0.5-1.1
			c0-0.5,0.2-0.8,0.5-1.1c0.3-0.2,0.7-0.4,1.1-0.4c0.6,0,1.1,0.2,1.4,0.6v-0.8c0-0.3-0.1-0.5-0.3-0.7s-0.5-0.2-0.8-0.2
			c-0.5,0-1,0.2-1.3,0.6l-0.3-0.5c0.5-0.5,1-0.7,1.7-0.7c0.5,0,0.9,0.1,1.2,0.4c0.3,0.2,0.5,0.6,0.5,1.1V134.6z M52.8,134.2
			c0.5,0,0.9-0.2,1.2-0.5v-0.8c-0.3-0.4-0.7-0.5-1.2-0.5c-0.3,0-0.6,0.1-0.8,0.3c-0.2,0.2-0.3,0.4-0.3,0.7c0,0.3,0.1,0.5,0.3,0.7
			C52.3,134.1,52.5,134.2,52.8,134.2z"/>
		<path class="st5" d="M59.7,134.6H59v-2.8c0-0.4-0.1-0.6-0.3-0.8c-0.2-0.2-0.4-0.2-0.7-0.2c-0.3,0-0.5,0.1-0.7,0.2
			c-0.2,0.1-0.4,0.3-0.6,0.5v3.2h-0.7v-4.3h0.7v0.6c0.2-0.2,0.4-0.4,0.7-0.5c0.3-0.1,0.6-0.2,0.9-0.2c0.9,0,1.4,0.5,1.4,1.4V134.6z"
			/>
	</g>
	<g>
		<path class="st5" d="M203.8,134.1h-0.7l-3.5-4.8v4.8h-0.7v-6h0.8l3.5,4.7v-4.7h0.7V134.1z"/>
		<path class="st5" d="M205.5,129.2c-0.1,0-0.2,0-0.3-0.1c-0.1-0.1-0.1-0.2-0.1-0.3s0-0.2,0.1-0.3c0.1-0.1,0.2-0.1,0.3-0.1
			c0.1,0,0.2,0,0.3,0.1c0.1,0.1,0.1,0.2,0.1,0.3s0,0.2-0.1,0.3C205.7,129.1,205.6,129.2,205.5,129.2z M205.8,134.1h-0.7v-4.3h0.7
			V134.1z"/>
		<path class="st5" d="M208.9,135.9c-0.4,0-0.7,0-1-0.1c-0.3-0.1-0.5-0.3-0.8-0.5l0.3-0.5c0.3,0.4,0.8,0.6,1.4,0.6
			c0.4,0,0.7-0.1,1-0.3c0.3-0.2,0.4-0.5,0.4-1v-0.6c-0.2,0.2-0.4,0.4-0.6,0.6c-0.3,0.1-0.5,0.2-0.8,0.2c-0.6,0-1-0.2-1.4-0.6
			c-0.4-0.4-0.5-1-0.5-1.6c0-0.7,0.2-1.2,0.5-1.6s0.8-0.6,1.4-0.6c0.6,0,1.1,0.3,1.5,0.8v-0.7h0.7v4.2c0,0.7-0.2,1.1-0.6,1.4
			C210,135.7,209.5,135.9,208.9,135.9z M209,133.6c0.3,0,0.5-0.1,0.8-0.2c0.2-0.1,0.4-0.3,0.5-0.5V131c-0.1-0.2-0.3-0.4-0.5-0.5
			c-0.2-0.1-0.5-0.2-0.8-0.2c-0.4,0-0.8,0.2-1,0.5c-0.2,0.3-0.4,0.7-0.4,1.2c0,0.5,0.1,0.9,0.4,1.2
			C208.3,133.4,208.6,133.6,209,133.6z"/>
		<path class="st5" d="M214.3,134.2c-0.6,0-1.2-0.2-1.6-0.6s-0.6-1-0.6-1.7c0-0.6,0.2-1.2,0.6-1.6c0.4-0.4,0.9-0.7,1.5-0.7
			c0.6,0,1.2,0.2,1.5,0.7c0.4,0.4,0.6,1,0.6,1.7v0.2h-3.5c0,0.4,0.2,0.8,0.5,1.1s0.6,0.4,1.1,0.4c0.5,0,1-0.2,1.3-0.5l0.3,0.4
			C215.6,134,215,134.2,214.3,134.2z M215.7,131.7c0-0.4-0.1-0.7-0.4-1s-0.6-0.4-1.1-0.4c-0.4,0-0.8,0.1-1,0.4
			c-0.2,0.3-0.4,0.6-0.4,1H215.7z"/>
		<path class="st5" d="M218.1,134.1h-0.7v-4.3h0.7v0.7c0.4-0.5,0.9-0.8,1.4-0.8v0.7c-0.1,0-0.2,0-0.3,0c-0.2,0-0.4,0.1-0.7,0.2
			c-0.2,0.1-0.4,0.3-0.5,0.5V134.1z"/>
		<path class="st5" d="M220.7,129.2c-0.1,0-0.2,0-0.3-0.1c-0.1-0.1-0.1-0.2-0.1-0.3s0-0.2,0.1-0.3c0.1-0.1,0.2-0.1,0.3-0.1
			c0.1,0,0.2,0,0.3,0.1c0.1,0.1,0.1,0.2,0.1,0.3s0,0.2-0.1,0.3C220.9,129.1,220.8,129.2,220.7,129.2z M221.1,134.1h-0.7v-4.3h0.7
			V134.1z"/>
		<path class="st5" d="M225.8,134.1h-0.7v-0.5c-0.4,0.4-0.8,0.6-1.4,0.6c-0.4,0-0.8-0.1-1.1-0.4c-0.3-0.3-0.5-0.6-0.5-1.1
			c0-0.5,0.2-0.8,0.5-1.1c0.3-0.2,0.7-0.4,1.1-0.4c0.6,0,1.1,0.2,1.4,0.6v-0.8c0-0.3-0.1-0.5-0.3-0.7c-0.2-0.2-0.5-0.2-0.8-0.2
			c-0.5,0-1,0.2-1.3,0.6l-0.3-0.5c0.5-0.5,1-0.7,1.7-0.7c0.5,0,0.9,0.1,1.2,0.4s0.5,0.6,0.5,1.1V134.1z M223.9,133.8
			c0.5,0,0.9-0.2,1.2-0.5v-0.8c-0.3-0.4-0.7-0.5-1.2-0.5c-0.3,0-0.6,0.1-0.8,0.3c-0.2,0.2-0.3,0.4-0.3,0.7c0,0.3,0.1,0.5,0.3,0.7
			C223.4,133.7,223.6,133.8,223.9,133.8z"/>
	</g>
	<g>
		<path class="st5" d="M19.4,52h-0.9L18,50.7h-3L14.5,52h-0.9l2.4-6H17L19.4,52z M17.8,50l-1.3-3.2L15.3,50H17.8z"/>
		<path class="st5" d="M21,52h-0.7v-3.8h-0.7v-0.6h0.7v-0.3c0-0.4,0.1-0.8,0.3-1c0.2-0.2,0.5-0.4,0.9-0.4c0.4,0,0.7,0.1,0.9,0.3
			l-0.3,0.4c-0.2-0.1-0.3-0.2-0.5-0.2c-0.2,0-0.4,0.1-0.5,0.2C21,46.9,21,47.1,21,47.3v0.3h0.9v0.6H21V52z"/>
		<path class="st5" d="M24.4,53.8c-0.4,0-0.7,0-1-0.1c-0.3-0.1-0.5-0.3-0.8-0.5l0.3-0.5c0.3,0.4,0.8,0.6,1.4,0.6
			c0.4,0,0.7-0.1,1-0.3s0.4-0.5,0.4-1v-0.6c-0.2,0.2-0.4,0.4-0.6,0.6c-0.3,0.1-0.5,0.2-0.8,0.2c-0.6,0-1-0.2-1.4-0.6
			c-0.4-0.4-0.5-1-0.5-1.6c0-0.7,0.2-1.2,0.5-1.6c0.4-0.4,0.8-0.6,1.4-0.6c0.6,0,1.1,0.3,1.5,0.8v-0.7h0.7v4.2
			c0,0.7-0.2,1.1-0.6,1.4C25.5,53.6,25,53.8,24.4,53.8z M24.5,51.5c0.3,0,0.5-0.1,0.8-0.2c0.2-0.1,0.4-0.3,0.5-0.5v-1.9
			c-0.1-0.2-0.3-0.4-0.5-0.5s-0.5-0.2-0.8-0.2c-0.4,0-0.8,0.2-1,0.5c-0.2,0.3-0.4,0.7-0.4,1.2c0,0.5,0.1,0.9,0.4,1.2
			C23.7,51.3,24.1,51.5,24.5,51.5z"/>
		<path class="st5" d="M31.4,52h-0.7v-2.9c0-0.4-0.1-0.6-0.3-0.8c-0.2-0.1-0.4-0.2-0.7-0.2c-0.2,0-0.5,0.1-0.7,0.2
			c-0.2,0.1-0.4,0.3-0.6,0.5V52h-0.7v-6h0.7v2.3c0.2-0.2,0.4-0.4,0.7-0.5c0.3-0.1,0.6-0.2,0.9-0.2c0.9,0,1.4,0.5,1.4,1.4V52z"/>
		<path class="st5" d="M36.2,52h-0.7v-0.5c-0.4,0.4-0.8,0.6-1.4,0.6c-0.4,0-0.8-0.1-1.1-0.4c-0.3-0.3-0.5-0.6-0.5-1.1
			c0-0.5,0.2-0.8,0.5-1.1c0.3-0.2,0.7-0.4,1.1-0.4c0.6,0,1.1,0.2,1.4,0.6v-0.8c0-0.3-0.1-0.5-0.3-0.7s-0.5-0.2-0.8-0.2
			c-0.5,0-1,0.2-1.3,0.6l-0.3-0.5c0.5-0.5,1-0.7,1.7-0.7c0.5,0,0.9,0.1,1.2,0.4c0.3,0.2,0.5,0.6,0.5,1.1V52z M34.3,51.6
			c0.5,0,0.9-0.2,1.2-0.5v-0.8c-0.3-0.4-0.7-0.5-1.2-0.5c-0.3,0-0.6,0.1-0.8,0.3c-0.2,0.2-0.3,0.4-0.3,0.7c0,0.3,0.1,0.5,0.3,0.7
			C33.7,51.6,34,51.6,34.3,51.6z"/>
		<path class="st5" d="M41.1,52h-0.7v-2.8c0-0.4-0.1-0.6-0.3-0.8c-0.2-0.2-0.4-0.2-0.7-0.2c-0.3,0-0.5,0.1-0.7,0.2
			c-0.2,0.1-0.4,0.3-0.6,0.5V52h-0.7v-4.3h0.7v0.6c0.2-0.2,0.4-0.4,0.7-0.5c0.3-0.1,0.6-0.2,0.9-0.2c0.9,0,1.4,0.5,1.4,1.4V52z"/>
		<path class="st5" d="M42.8,47.1c-0.1,0-0.2,0-0.3-0.1c-0.1-0.1-0.1-0.2-0.1-0.3s0-0.2,0.1-0.3c0.1-0.1,0.2-0.1,0.3-0.1
			c0.1,0,0.2,0,0.3,0.1c0.1,0.1,0.1,0.2,0.1,0.3s0,0.2-0.1,0.3C43,47,42.9,47.1,42.8,47.1z M43.1,52h-0.7v-4.3h0.7V52z"/>
		<path class="st5" d="M45.9,52.1c-0.7,0-1.3-0.2-1.8-0.7l0.4-0.5c0.2,0.2,0.4,0.3,0.6,0.4c0.3,0.1,0.5,0.2,0.8,0.2
			c0.3,0,0.6-0.1,0.8-0.2c0.2-0.1,0.3-0.3,0.3-0.5c0-0.2-0.1-0.3-0.3-0.5c-0.2-0.1-0.4-0.2-0.7-0.3c-0.3-0.1-0.5-0.1-0.8-0.2
			c-0.3-0.1-0.5-0.2-0.7-0.4c-0.2-0.2-0.3-0.4-0.3-0.7c0-0.4,0.1-0.7,0.4-0.9s0.7-0.4,1.2-0.4c0.7,0,1.2,0.2,1.6,0.6l-0.3,0.5
			c-0.3-0.4-0.7-0.5-1.3-0.5c-0.3,0-0.5,0.1-0.7,0.2s-0.3,0.3-0.3,0.5c0,0.2,0.1,0.3,0.3,0.4c0.2,0.1,0.4,0.2,0.7,0.2
			c0.3,0.1,0.5,0.1,0.8,0.2s0.5,0.2,0.7,0.4c0.2,0.2,0.3,0.4,0.3,0.8c0,0.4-0.2,0.7-0.5,0.9C46.8,52,46.4,52.1,45.9,52.1z"/>
		<path class="st5" d="M49.8,52.1c-0.3,0-0.6-0.1-0.7-0.3c-0.2-0.2-0.2-0.4-0.2-0.8v-2.8h-0.7v-0.6h0.7v-1.2h0.7v1.2h0.9v0.6h-0.9
			V51c0,0.2,0,0.3,0.1,0.4c0.1,0.1,0.2,0.2,0.3,0.2c0.2,0,0.4-0.1,0.5-0.2l0.2,0.5C50.4,52,50.1,52.1,49.8,52.1z"/>
		<path class="st5" d="M54.7,52H54v-0.5c-0.4,0.4-0.8,0.6-1.4,0.6c-0.4,0-0.8-0.1-1.1-0.4c-0.3-0.3-0.5-0.6-0.5-1.1
			c0-0.5,0.2-0.8,0.5-1.1c0.3-0.2,0.7-0.4,1.1-0.4c0.6,0,1.1,0.2,1.4,0.6v-0.8c0-0.3-0.1-0.5-0.3-0.7c-0.2-0.2-0.5-0.2-0.8-0.2
			c-0.5,0-1,0.2-1.3,0.6l-0.3-0.5c0.5-0.5,1-0.7,1.7-0.7c0.5,0,0.9,0.1,1.2,0.4s0.5,0.6,0.5,1.1V52z M52.8,51.6
			c0.5,0,0.9-0.2,1.2-0.5v-0.8c-0.3-0.4-0.7-0.5-1.2-0.5c-0.3,0-0.6,0.1-0.8,0.3c-0.2,0.2-0.3,0.4-0.3,0.7c0,0.3,0.1,0.5,0.3,0.7
			C52.3,51.6,52.5,51.6,52.8,51.6z"/>
		<path class="st5" d="M59.7,52H59v-2.8c0-0.4-0.1-0.6-0.3-0.8c-0.2-0.2-0.4-0.2-0.7-0.2c-0.3,0-0.5,0.1-0.7,0.2
			c-0.2,0.1-0.4,0.3-0.6,0.5V52h-0.7v-4.3h0.7v0.6c0.2-0.2,0.4-0.4,0.7-0.5c0.3-0.1,0.6-0.2,0.9-0.2c0.9,0,1.4,0.5,1.4,1.4V52z"/>
	</g>
	<g>
		<path class="st5" d="M30.9,81.6c-1,0-1.7-0.3-2.3-1l0.4-0.6c0.5,0.6,1.1,0.9,1.9,0.9c0.5,0,0.8-0.1,1.1-0.3
			c0.2-0.2,0.3-0.4,0.3-0.7c0-0.2-0.1-0.4-0.2-0.5c-0.1-0.1-0.3-0.3-0.5-0.3s-0.4-0.2-0.7-0.2c-0.3-0.1-0.5-0.1-0.8-0.2
			s-0.5-0.2-0.7-0.3c-0.2-0.1-0.4-0.3-0.5-0.5s-0.2-0.5-0.2-0.7c0-0.5,0.2-0.9,0.6-1.2c0.4-0.3,0.9-0.5,1.5-0.5
			c0.9,0,1.6,0.3,2.1,0.8l-0.5,0.5c-0.4-0.5-1-0.7-1.7-0.7c-0.4,0-0.7,0.1-0.9,0.3c-0.2,0.2-0.3,0.4-0.3,0.7c0,0.2,0.1,0.4,0.3,0.5
			c0.2,0.1,0.4,0.2,0.7,0.3c0.3,0.1,0.5,0.1,0.9,0.2c0.3,0.1,0.6,0.2,0.9,0.3c0.3,0.1,0.5,0.3,0.7,0.5c0.2,0.2,0.3,0.5,0.3,0.9
			c0,0.5-0.2,0.9-0.5,1.3C32.3,81.5,31.7,81.6,30.9,81.6z"/>
		<path class="st5" d="M36.2,81.6c-0.6,0-1.2-0.2-1.6-0.6S34,80,34,79.3c0-0.6,0.2-1.2,0.6-1.6c0.4-0.4,0.9-0.7,1.5-0.7
			c0.6,0,1.2,0.2,1.5,0.7c0.4,0.4,0.6,1,0.6,1.7v0.2h-3.5c0,0.4,0.2,0.8,0.5,1.1c0.3,0.3,0.6,0.4,1.1,0.4c0.5,0,1-0.2,1.3-0.5
			l0.3,0.4C37.5,81.4,36.9,81.6,36.2,81.6z M37.6,79.1c0-0.4-0.1-0.7-0.4-1s-0.6-0.4-1.1-0.4c-0.4,0-0.8,0.1-1,0.4
			c-0.2,0.3-0.4,0.6-0.4,1H37.6z"/>
		<path class="st5" d="M42.9,81.5h-0.7v-2.8c0-0.4-0.1-0.6-0.3-0.8c-0.2-0.2-0.4-0.2-0.7-0.2c-0.3,0-0.5,0.1-0.7,0.2
			c-0.2,0.1-0.4,0.3-0.6,0.5v3.2h-0.7v-4.3H40v0.6c0.2-0.2,0.4-0.4,0.7-0.5c0.3-0.1,0.6-0.2,0.9-0.2c0.9,0,1.4,0.5,1.4,1.4V81.5z"/>
		<path class="st5" d="M46.2,81.6c-0.6,0-1.2-0.2-1.6-0.6S44,80,44,79.3c0-0.6,0.2-1.2,0.6-1.6c0.4-0.4,0.9-0.7,1.5-0.7
			c0.6,0,1.2,0.2,1.5,0.7c0.4,0.4,0.6,1,0.6,1.7v0.2h-3.5c0,0.4,0.2,0.8,0.5,1.1s0.6,0.4,1.1,0.4c0.5,0,1-0.2,1.3-0.5L48,81
			C47.5,81.4,46.9,81.6,46.2,81.6z M47.6,79.1c0-0.4-0.1-0.7-0.4-1s-0.6-0.4-1.1-0.4c-0.4,0-0.8,0.1-1,0.4c-0.2,0.3-0.4,0.6-0.4,1
			H47.6z"/>
		<path class="st5" d="M51.1,83.3c-0.4,0-0.7,0-1-0.1c-0.3-0.1-0.5-0.3-0.8-0.5l0.3-0.5c0.3,0.4,0.8,0.6,1.4,0.6
			c0.4,0,0.7-0.1,1-0.3s0.4-0.5,0.4-1v-0.6c-0.2,0.2-0.4,0.4-0.6,0.6c-0.3,0.1-0.5,0.2-0.8,0.2c-0.6,0-1-0.2-1.4-0.6
			c-0.4-0.4-0.5-1-0.5-1.6c0-0.7,0.2-1.2,0.5-1.6c0.4-0.4,0.8-0.6,1.4-0.6c0.6,0,1.1,0.3,1.5,0.8v-0.7h0.7v4.2
			c0,0.7-0.2,1.1-0.6,1.4C52.2,83.1,51.7,83.3,51.1,83.3z M51.2,81c0.3,0,0.5-0.1,0.8-0.2c0.2-0.1,0.4-0.3,0.5-0.5v-1.9
			c-0.1-0.2-0.3-0.4-0.5-0.5s-0.5-0.2-0.8-0.2c-0.4,0-0.8,0.2-1,0.5c-0.2,0.3-0.4,0.7-0.4,1.2c0,0.5,0.1,0.9,0.4,1.2
			C50.4,80.8,50.8,81,51.2,81z"/>
		<path class="st5" d="M57.9,81.5h-0.7V81c-0.4,0.4-0.8,0.6-1.4,0.6c-0.4,0-0.8-0.1-1.1-0.4c-0.3-0.3-0.5-0.6-0.5-1.1
			c0-0.5,0.2-0.8,0.5-1.1c0.3-0.2,0.7-0.4,1.1-0.4c0.6,0,1.1,0.2,1.4,0.6v-0.8c0-0.3-0.1-0.5-0.3-0.7s-0.5-0.2-0.8-0.2
			c-0.5,0-1,0.2-1.3,0.6l-0.3-0.5c0.5-0.5,1-0.7,1.7-0.7c0.5,0,0.9,0.1,1.2,0.4c0.3,0.2,0.5,0.6,0.5,1.1V81.5z M56,81.1
			c0.5,0,0.9-0.2,1.2-0.5v-0.8c-0.3-0.4-0.7-0.5-1.2-0.5c-0.3,0-0.6,0.1-0.8,0.3c-0.2,0.2-0.3,0.4-0.3,0.7c0,0.3,0.1,0.5,0.3,0.7
			C55.5,81.1,55.7,81.1,56,81.1z"/>
		<path class="st5" d="M59.9,81.5h-0.7v-6h0.7V81.5z"/>
	</g>
	<g>
		<path class="st5" d="M50.9,110h-0.7v-4.9l-2,4.9h-0.3l-2-4.9v4.9H45v-6h1.1l1.9,4.5l1.9-4.5h1.1V110z"/>
		<path class="st5" d="M55.6,110H55v-0.5c-0.4,0.4-0.8,0.6-1.4,0.6c-0.4,0-0.8-0.1-1.1-0.4c-0.3-0.3-0.5-0.6-0.5-1.1
			c0-0.5,0.2-0.8,0.5-1.1s0.7-0.4,1.1-0.4c0.6,0,1.1,0.2,1.4,0.6V107c0-0.3-0.1-0.5-0.3-0.7s-0.5-0.2-0.8-0.2c-0.5,0-1,0.2-1.3,0.6
			l-0.3-0.5c0.5-0.5,1-0.7,1.7-0.7c0.5,0,0.9,0.1,1.2,0.4c0.3,0.2,0.5,0.6,0.5,1.1V110z M53.8,109.6c0.5,0,0.9-0.2,1.2-0.5v-0.8
			c-0.3-0.4-0.7-0.5-1.2-0.5c-0.3,0-0.6,0.1-0.8,0.3c-0.2,0.2-0.3,0.4-0.3,0.7c0,0.3,0.1,0.5,0.3,0.7
			C53.2,109.5,53.4,109.6,53.8,109.6z"/>
		<path class="st5" d="M57.7,110H57v-6h0.7V110z"/>
		<path class="st5" d="M59.3,105c-0.1,0-0.2,0-0.3-0.1s-0.1-0.2-0.1-0.3s0-0.2,0.1-0.3s0.2-0.1,0.3-0.1c0.1,0,0.2,0,0.3,0.1
			s0.1,0.2,0.1,0.3s0,0.2-0.1,0.3S59.5,105,59.3,105z M59.7,110H59v-4.3h0.7V110z"/>
	</g>
	<g>
		<path class="st6" d="M202.8,36.3c-0.6,0.4-1.4,0.6-2.3,0.6c-0.9,0-1.7-0.2-2.3-0.6c-0.6-0.4-0.9-1-0.9-1.7c0-0.5,0.2-1,0.5-1.3
			c0.4-0.4,0.8-0.7,1.3-0.8c-0.5-0.2-0.9-0.4-1.3-0.7c-0.3-0.3-0.5-0.7-0.5-1.2c0-0.4,0.1-0.7,0.3-1c0.2-0.3,0.4-0.5,0.7-0.7
			s0.6-0.3,1-0.4c0.4-0.1,0.7-0.1,1.1-0.1c0.4,0,0.8,0,1.1,0.1c0.3,0.1,0.7,0.2,1,0.4s0.5,0.4,0.7,0.7s0.3,0.6,0.3,1
			c0,0.9-0.6,1.6-1.8,2c0.5,0.2,1,0.5,1.3,0.8c0.4,0.4,0.5,0.8,0.5,1.3C203.7,35.4,203.4,35.9,202.8,36.3z M200.5,35.6
			c0.5,0,0.9-0.1,1.2-0.3c0.3-0.2,0.5-0.5,0.5-0.8c0-0.4-0.2-0.7-0.6-0.9s-0.8-0.4-1.1-0.4c-0.2,0-0.4,0.1-0.7,0.2
			c-0.2,0.1-0.5,0.2-0.7,0.4c-0.2,0.2-0.3,0.4-0.3,0.7c0,0.3,0.2,0.6,0.5,0.8C199.6,35.5,200,35.6,200.5,35.6z M200.5,31.9
			c0.2,0,0.4-0.1,0.7-0.2c0.2-0.1,0.4-0.2,0.6-0.4c0.2-0.2,0.3-0.4,0.3-0.6c0-0.3-0.1-0.6-0.4-0.8c-0.3-0.2-0.7-0.3-1.1-0.3
			c-0.5,0-0.8,0.1-1.1,0.3c-0.3,0.2-0.4,0.5-0.4,0.8c0,0.2,0.1,0.5,0.3,0.6c0.2,0.2,0.4,0.3,0.6,0.4C200,31.8,200.3,31.9,200.5,31.9
			z"/>
		<path class="st6" d="M209.5,36.5c-0.4,0.2-0.9,0.4-1.5,0.4s-1.1-0.1-1.5-0.4s-0.8-0.6-1-1c-0.3-0.4-0.5-0.9-0.6-1.4
			c-0.1-0.5-0.2-1-0.2-1.6c0-0.5,0.1-1.1,0.2-1.6c0.1-0.5,0.3-1,0.6-1.4c0.3-0.4,0.6-0.7,1-1s0.9-0.4,1.5-0.4s1.1,0.1,1.5,0.4
			s0.8,0.6,1.1,1c0.3,0.4,0.5,0.9,0.6,1.4s0.2,1,0.2,1.6c0,0.5-0.1,1.1-0.2,1.6s-0.3,1-0.6,1.4C210.3,36,210,36.3,209.5,36.5z
			 M206.6,34.8c0.3,0.6,0.8,0.8,1.4,0.8c0.6,0,1.1-0.3,1.4-0.8s0.5-1.3,0.5-2.2c0-0.6-0.1-1.1-0.2-1.5c-0.1-0.4-0.3-0.8-0.6-1.1
			c-0.3-0.3-0.6-0.4-1.1-0.4s-0.8,0.1-1.1,0.4c-0.3,0.3-0.5,0.6-0.6,1.1c-0.1,0.4-0.2,0.9-0.2,1.5C206.2,33.5,206.3,34.2,206.6,34.8
			z"/>
	</g>
	<g>
		<path class="st6" d="M202.5,64.5h-1.5v-1.9h-4v-1.2l3.4-5.3h2v5.2h1.1v1.3h-1.1V64.5z M201.1,61.3v-3.8l-2.5,3.8H201.1z"/>
		<path class="st6" d="M209.8,64.5h-1.5v-1.9h-4v-1.2l3.4-5.3h2v5.2h1.1v1.3h-1.1V64.5z M208.3,61.3v-3.8l-2.5,3.8H208.3z"/>
		<path class="st6" d="M215.1,64.7c-1.3,0-2.4-0.4-3.1-1.3l0.8-1c0.6,0.7,1.3,1,2.2,1c0.5,0,0.9-0.1,1.2-0.4c0.3-0.3,0.5-0.6,0.5-1
			c0-0.4-0.2-0.8-0.5-1.1c-0.3-0.3-0.7-0.4-1.2-0.4c-0.7,0-1.3,0.2-1.8,0.7l-1-0.3v-4.7h5.5v1.3h-4v2.4c0.5-0.5,1.1-0.7,1.9-0.7
			c0.7,0,1.4,0.2,1.9,0.7c0.5,0.5,0.8,1.1,0.8,2c0,0.9-0.3,1.5-0.9,2.1C216.8,64.4,216,64.7,215.1,64.7z"/>
	</g>
	<g>
		<path class="st6" d="M202.8,91.4c-0.6,0.4-1.4,0.6-2.3,0.6c-0.9,0-1.7-0.2-2.3-0.6c-0.6-0.4-0.9-1-0.9-1.7c0-0.5,0.2-1,0.5-1.3
			c0.4-0.4,0.8-0.7,1.3-0.8c-0.5-0.2-0.9-0.4-1.3-0.7c-0.3-0.3-0.5-0.7-0.5-1.2c0-0.4,0.1-0.7,0.3-1c0.2-0.3,0.4-0.5,0.7-0.7
			s0.6-0.3,1-0.4c0.4-0.1,0.7-0.1,1.1-0.1c0.4,0,0.8,0,1.1,0.1c0.3,0.1,0.7,0.2,1,0.4s0.5,0.4,0.7,0.7s0.3,0.6,0.3,1
			c0,0.9-0.6,1.6-1.8,2c0.5,0.2,1,0.5,1.3,0.8c0.4,0.4,0.5,0.8,0.5,1.3C203.7,90.5,203.4,91,202.8,91.4z M200.5,90.7
			c0.5,0,0.9-0.1,1.2-0.3c0.3-0.2,0.5-0.5,0.5-0.8c0-0.4-0.2-0.7-0.6-0.9s-0.8-0.4-1.1-0.4c-0.2,0-0.4,0.1-0.7,0.2
			c-0.2,0.1-0.5,0.2-0.7,0.4c-0.2,0.2-0.3,0.4-0.3,0.7c0,0.3,0.2,0.6,0.5,0.8C199.6,90.6,200,90.7,200.5,90.7z M200.5,87
			c0.2,0,0.4-0.1,0.7-0.2c0.2-0.1,0.4-0.2,0.6-0.4c0.2-0.2,0.3-0.4,0.3-0.6c0-0.3-0.1-0.6-0.4-0.8c-0.3-0.2-0.7-0.3-1.1-0.3
			c-0.5,0-0.8,0.1-1.1,0.3c-0.3,0.2-0.4,0.5-0.4,0.8c0,0.2,0.1,0.5,0.3,0.6c0.2,0.2,0.4,0.3,0.6,0.4C200,86.9,200.3,87,200.5,87z"/>
		<path class="st6" d="M209.5,91.7c-0.4,0.2-0.9,0.4-1.5,0.4s-1.1-0.1-1.5-0.4s-0.8-0.6-1-1c-0.3-0.4-0.5-0.9-0.6-1.4
			c-0.1-0.5-0.2-1-0.2-1.6c0-0.5,0.1-1.1,0.2-1.6c0.1-0.5,0.3-1,0.6-1.4c0.3-0.4,0.6-0.7,1-1s0.9-0.4,1.5-0.4s1.1,0.1,1.5,0.4
			s0.8,0.6,1.1,1c0.3,0.4,0.5,0.9,0.6,1.4s0.2,1,0.2,1.6c0,0.5-0.1,1.1-0.2,1.6s-0.3,1-0.6,1.4C210.3,91.1,210,91.4,209.5,91.7z
			 M206.6,89.9c0.3,0.6,0.8,0.8,1.4,0.8c0.6,0,1.1-0.3,1.4-0.8s0.5-1.3,0.5-2.2c0-0.6-0.1-1.1-0.2-1.5c-0.1-0.4-0.3-0.8-0.6-1.1
			c-0.3-0.3-0.6-0.4-1.1-0.4s-0.8,0.1-1.1,0.4c-0.3,0.3-0.5,0.6-0.6,1.1c-0.1,0.4-0.2,0.9-0.2,1.5C206.2,88.6,206.3,89.3,206.6,89.9
			z"/>
		<path class="st6" d="M215.7,92c-1.3,0-2.4-0.4-3.1-1.3l0.8-1c0.6,0.7,1.3,1,2.2,1c0.5,0,0.9-0.1,1.2-0.4c0.3-0.3,0.5-0.6,0.5-1
			c0-0.5-0.2-0.8-0.5-1.1c-0.3-0.3-0.7-0.4-1.2-0.4c-0.7,0-1.3,0.2-1.8,0.7l-1-0.3v-4.7h5.5v1.3h-4v2.4c0.5-0.5,1.1-0.7,1.9-0.7
			c0.7,0,1.4,0.2,1.9,0.7c0.5,0.5,0.8,1.1,0.8,2c0,0.9-0.3,1.5-0.9,2.1S216.6,92,215.7,92z"/>
	</g>
	<g>
		<path class="st6" d="M203.4,118.8h-6v-1.2c1.7-1.3,2.9-2.3,3.6-2.9c0.6-0.6,0.9-1.2,0.9-1.8c0-0.4-0.1-0.7-0.4-0.9
			c-0.3-0.2-0.7-0.3-1.1-0.3c-0.9,0-1.7,0.3-2.2,1l-0.8-1c0.4-0.4,0.8-0.8,1.4-1c0.5-0.2,1.1-0.3,1.7-0.3c0.8,0,1.6,0.2,2.1,0.7
			c0.6,0.5,0.9,1.1,0.9,1.9c0,0.7-0.3,1.4-0.9,2.1c-0.6,0.7-1.5,1.5-2.8,2.5h3.7V118.8z"/>
		<path class="st6" d="M208,118.9c-1.3,0-2.4-0.4-3.1-1.3l0.8-1c0.6,0.7,1.3,1,2.2,1c0.5,0,0.9-0.1,1.2-0.4c0.3-0.3,0.5-0.6,0.5-1
			c0-0.5-0.2-0.8-0.5-1.1c-0.3-0.3-0.7-0.4-1.2-0.4c-0.7,0-1.3,0.2-1.8,0.7l-1-0.3v-4.7h5.5v1.3h-4v2.4c0.5-0.5,1.1-0.7,1.9-0.7
			c0.7,0,1.4,0.2,1.9,0.7c0.5,0.5,0.8,1.1,0.8,2c0,0.9-0.3,1.5-0.9,2.1S208.9,118.9,208,118.9z"/>
		<path class="st6" d="M217,118.6c-0.4,0.2-0.9,0.4-1.5,0.4s-1.1-0.1-1.5-0.4s-0.8-0.6-1-1c-0.3-0.4-0.5-0.9-0.6-1.4
			c-0.1-0.5-0.2-1-0.2-1.6c0-0.5,0.1-1.1,0.2-1.6c0.1-0.5,0.3-1,0.6-1.4c0.3-0.4,0.6-0.7,1-1s0.9-0.4,1.5-0.4s1.1,0.1,1.5,0.4
			s0.8,0.6,1.1,1c0.3,0.4,0.5,0.9,0.6,1.4s0.2,1,0.2,1.6c0,0.5-0.1,1.1-0.2,1.6s-0.3,1-0.6,1.4C217.8,118,217.5,118.3,217,118.6z
			 M214.1,116.8c0.3,0.6,0.8,0.8,1.4,0.8c0.6,0,1.1-0.3,1.4-0.8s0.5-1.3,0.5-2.2c0-0.6-0.1-1.1-0.2-1.5c-0.1-0.4-0.3-0.8-0.6-1.1
			c-0.3-0.3-0.6-0.4-1.1-0.4s-0.8,0.1-1.1,0.4c-0.3,0.3-0.5,0.6-0.6,1.1c-0.1,0.4-0.2,0.9-0.2,1.5
			C213.7,115.5,213.8,116.2,214.1,116.8z"/>
	</g>
	<g>
		<path class="st6" d="M201.9,147.7c-1.3,0-2.4-0.4-3.1-1.3l0.8-1c0.6,0.7,1.3,1,2.2,1c0.5,0,0.9-0.1,1.2-0.4c0.3-0.3,0.5-0.6,0.5-1
			c0-0.5-0.2-0.8-0.5-1.1c-0.3-0.3-0.7-0.4-1.2-0.4c-0.7,0-1.3,0.2-1.8,0.7l-1-0.3v-4.7h5.5v1.3h-4v2.4c0.5-0.5,1.1-0.7,1.9-0.7
			c0.7,0,1.4,0.2,1.9,0.7c0.5,0.5,0.8,1.1,0.8,2c0,0.9-0.3,1.5-0.9,2.1S202.8,147.7,201.9,147.7z"/>
		<path class="st6" d="M209.4,147.7c-1.3,0-2.4-0.4-3.1-1.3l0.8-1c0.6,0.7,1.3,1,2.2,1c0.5,0,0.9-0.1,1.2-0.4c0.3-0.3,0.5-0.6,0.5-1
			c0-0.5-0.2-0.8-0.5-1.1c-0.3-0.3-0.7-0.4-1.2-0.4c-0.7,0-1.3,0.2-1.8,0.7l-1-0.3v-4.7h5.5v1.3h-4v2.4c0.5-0.5,1.1-0.7,1.9-0.7
			c0.7,0,1.4,0.2,1.9,0.7c0.5,0.5,0.8,1.1,0.8,2c0,0.9-0.3,1.5-0.9,2.1S210.3,147.7,209.4,147.7z"/>
		<path class="st6" d="M216.9,147.7c-1.3,0-2.4-0.4-3.1-1.3l0.8-1c0.6,0.7,1.3,1,2.2,1c0.5,0,0.9-0.1,1.2-0.4c0.3-0.3,0.5-0.6,0.5-1
			c0-0.5-0.2-0.8-0.5-1.1c-0.3-0.3-0.7-0.4-1.2-0.4c-0.7,0-1.3,0.2-1.8,0.7l-1-0.3v-4.7h5.5v1.3h-4v2.4c0.5-0.5,1.1-0.7,1.9-0.7
			c0.7,0,1.4,0.2,1.9,0.7c0.5,0.5,0.8,1.1,0.8,2c0,0.9-0.3,1.5-0.9,2.1S217.8,147.7,216.9,147.7z"/>
	</g>
	<g>
		<path class="st6" d="M42,121.8c-1.3,0-2.4-0.4-3.1-1.3l0.8-1c0.6,0.7,1.3,1,2.2,1c0.5,0,0.9-0.1,1.2-0.4c0.3-0.3,0.5-0.6,0.5-1
			c0-0.5-0.2-0.8-0.5-1.1c-0.3-0.3-0.7-0.4-1.2-0.4c-0.7,0-1.3,0.2-1.8,0.7l-1-0.3v-4.7h5.5v1.3h-4v2.4c0.5-0.5,1.1-0.7,1.9-0.7
			c0.7,0,1.4,0.2,1.9,0.7c0.5,0.5,0.8,1.1,0.8,2c0,0.9-0.3,1.5-0.9,2.1S42.9,121.8,42,121.8z"/>
		<path class="st6" d="M51.7,121.2c-0.6,0.4-1.4,0.6-2.3,0.6c-0.9,0-1.7-0.2-2.3-0.6c-0.6-0.4-0.9-1-0.9-1.7c0-0.5,0.2-1,0.5-1.3
			c0.4-0.4,0.8-0.7,1.3-0.8c-0.5-0.2-0.9-0.4-1.3-0.7c-0.3-0.3-0.5-0.7-0.5-1.2c0-0.4,0.1-0.7,0.3-1c0.2-0.3,0.4-0.5,0.7-0.7
			s0.6-0.3,1-0.4c0.4-0.1,0.7-0.1,1.1-0.1c0.4,0,0.8,0,1.1,0.1c0.3,0.1,0.7,0.2,1,0.4s0.5,0.4,0.7,0.7s0.3,0.6,0.3,1
			c0,0.9-0.6,1.6-1.8,2c0.5,0.2,1,0.5,1.3,0.8c0.4,0.4,0.5,0.8,0.5,1.3C52.6,120.2,52.3,120.8,51.7,121.2z M49.4,120.5
			c0.5,0,0.9-0.1,1.2-0.3c0.3-0.2,0.5-0.5,0.5-0.8c0-0.4-0.2-0.7-0.6-0.9s-0.8-0.4-1.1-0.4c-0.2,0-0.4,0.1-0.7,0.2
			c-0.2,0.1-0.5,0.2-0.7,0.4c-0.2,0.2-0.3,0.4-0.3,0.7c0,0.3,0.2,0.6,0.5,0.8C48.5,120.4,48.9,120.5,49.4,120.5z M49.4,116.8
			c0.2,0,0.4-0.1,0.7-0.2c0.2-0.1,0.4-0.2,0.6-0.4c0.2-0.2,0.3-0.4,0.3-0.6c0-0.3-0.1-0.6-0.4-0.8c-0.3-0.2-0.7-0.3-1.1-0.3
			c-0.5,0-0.8,0.1-1.1,0.3c-0.3,0.2-0.4,0.5-0.4,0.8c0,0.2,0.1,0.5,0.3,0.6c0.2,0.2,0.4,0.3,0.6,0.4
			C48.9,116.7,49.2,116.7,49.4,116.8z"/>
		<path class="st6" d="M56.9,121.8c-1.3,0-2.4-0.4-3.1-1.3l0.8-1c0.6,0.7,1.3,1,2.2,1c0.5,0,0.9-0.1,1.2-0.4c0.3-0.3,0.5-0.6,0.5-1
			c0-0.5-0.2-0.8-0.5-1.1c-0.3-0.3-0.7-0.4-1.2-0.4c-0.7,0-1.3,0.2-1.8,0.7l-1-0.3v-4.7h5.5v1.3h-4v2.4c0.5-0.5,1.1-0.7,1.9-0.7
			c0.7,0,1.4,0.2,1.9,0.7c0.5,0.5,0.8,1.1,0.8,2c0,0.9-0.3,1.5-0.9,2.1S57.8,121.8,56.9,121.8z"/>
	</g>
	<g>
		<path class="st6" d="M42.3,94.2c-0.6,0-1.1-0.1-1.6-0.3c-0.5-0.2-0.8-0.5-1.1-0.9s-0.5-0.9-0.6-1.4c-0.1-0.5-0.2-1.1-0.2-1.7
			c0-1.3,0.3-2.3,1-3.1c0.6-0.8,1.5-1.2,2.7-1.2c1,0,1.8,0.3,2.4,0.9l-0.7,1.1c-0.5-0.5-1-0.7-1.7-0.7c-0.7,0-1.2,0.3-1.6,0.8
			c-0.4,0.5-0.6,1.2-0.6,1.9c0,0.1,0,0.2,0,0.2c0.2-0.3,0.5-0.6,0.9-0.8s0.8-0.4,1.3-0.4c0.8,0,1.5,0.2,2,0.7c0.5,0.5,0.8,1.1,0.8,2
			c0,0.8-0.3,1.5-0.8,2C43.9,93.9,43.2,94.2,42.3,94.2z M42.2,92.9c0.5,0,0.9-0.1,1.2-0.4c0.3-0.3,0.4-0.6,0.4-1
			c0-0.5-0.2-0.9-0.5-1.1c-0.3-0.3-0.7-0.4-1.2-0.4c-0.3,0-0.7,0.1-1,0.3c-0.3,0.2-0.6,0.4-0.8,0.7c0,0.5,0.2,1,0.5,1.4
			C41.2,92.7,41.6,92.9,42.2,92.9z"/>
		<path class="st6" d="M51.6,94h-1.5v-1.9h-4V91l3.4-5.3h2v5.2h1.1v1.3h-1.1V94z M50.2,90.9V87l-2.5,3.9H50.2z"/>
		<path class="st6" d="M56.9,94.2c-1.3,0-2.4-0.4-3.1-1.3l0.8-1c0.6,0.7,1.3,1,2.2,1c0.5,0,0.9-0.1,1.2-0.4c0.3-0.3,0.5-0.6,0.5-1
			c0-0.5-0.2-0.8-0.5-1.1c-0.3-0.3-0.7-0.4-1.2-0.4c-0.7,0-1.3,0.2-1.8,0.7l-1-0.3v-4.7h5.5V87h-4v2.4c0.5-0.5,1.1-0.7,1.9-0.7
			c0.7,0,1.4,0.2,1.9,0.7c0.5,0.5,0.8,1.1,0.8,2c0,0.9-0.3,1.5-0.9,2.1S57.8,94.2,56.9,94.2z"/>
	</g>
	<g>
		<path class="st6" d="M44.8,64.5h-6v-1.1c1.7-1.3,2.9-2.3,3.6-2.9c0.6-0.6,0.9-1.2,0.9-1.8c0-0.4-0.1-0.7-0.4-0.9
			c-0.3-0.2-0.7-0.3-1.1-0.3c-0.9,0-1.7,0.3-2.2,1l-0.8-1c0.4-0.4,0.8-0.8,1.4-1c0.5-0.2,1.1-0.3,1.7-0.3c0.9,0,1.6,0.2,2.2,0.7
			c0.6,0.5,0.9,1.1,0.9,1.9c0,0.7-0.3,1.4-0.9,2.1c-0.6,0.7-1.5,1.5-2.8,2.5h3.7V64.5z"/>
		<path class="st6" d="M48.9,64.7c-1,0-1.8-0.3-2.4-0.9l0.7-1.1c0.5,0.5,1,0.7,1.7,0.7c0.7,0,1.3-0.3,1.6-0.8
			c0.4-0.5,0.6-1.2,0.6-1.9v-0.2c-0.2,0.3-0.5,0.6-0.9,0.8s-0.8,0.4-1.3,0.4c-0.8,0-1.5-0.2-2-0.7c-0.5-0.5-0.8-1.1-0.8-2
			c0-0.8,0.3-1.5,0.9-2c0.6-0.5,1.3-0.8,2.2-0.8c0.8,0,1.4,0.2,2,0.6s0.9,0.9,1.1,1.5c0.2,0.6,0.3,1.3,0.3,2.2c0,1.2-0.3,2.3-1,3.1
			C51,64.3,50.1,64.7,48.9,64.7z M49.3,60.3c0.4,0,0.7-0.1,1-0.3s0.6-0.4,0.8-0.7c0-0.5-0.2-1-0.5-1.4s-0.8-0.6-1.3-0.6
			c-0.5,0-0.9,0.2-1.2,0.5c-0.3,0.3-0.5,0.6-0.5,1c0,0.5,0.2,0.9,0.5,1.1C48.4,60.2,48.8,60.3,49.3,60.3z"/>
		<path class="st6" d="M56.9,64.7c-1.3,0-2.4-0.4-3.1-1.3l0.8-1c0.6,0.7,1.3,1,2.2,1c0.5,0,0.9-0.1,1.2-0.4s0.5-0.6,0.5-1
			c0-0.5-0.2-0.8-0.5-1.1c-0.3-0.3-0.7-0.4-1.2-0.4c-0.7,0-1.3,0.2-1.8,0.7l-1-0.3v-4.7h5.5v1.3h-4v2.4c0.5-0.5,1.1-0.7,1.9-0.7
			c0.7,0,1.4,0.2,1.9,0.7c0.5,0.5,0.8,1.1,0.8,2c0,0.9-0.3,1.5-0.9,2.1C58.6,64.4,57.8,64.7,56.9,64.7z"/>
	</g>
	<g>
		<path class="st6" d="M44.9,35.3h-6v-1.2c1.7-1.3,2.9-2.3,3.6-2.9c0.6-0.6,0.9-1.2,0.9-1.8c0-0.4-0.1-0.7-0.4-0.9
			c-0.3-0.2-0.7-0.3-1.1-0.3c-0.9,0-1.7,0.3-2.2,1l-0.8-1c0.4-0.4,0.8-0.8,1.4-1c0.5-0.2,1.1-0.3,1.7-0.3c0.9,0,1.6,0.2,2.2,0.7
			c0.6,0.5,0.9,1.1,0.9,1.9c0,0.7-0.3,1.4-0.9,2.1c-0.6,0.7-1.5,1.5-2.8,2.5h3.7V35.3z"/>
		<path class="st6" d="M51.4,35.3H50v-1.9h-4v-1.2l3.4-5.3h2v5.2h1.1v1.3h-1.1V35.3z M50,32.1v-3.9l-2.5,3.9H50z"/>
		<path class="st6" d="M58.3,35.1c-0.4,0.2-0.9,0.4-1.5,0.4c-0.6,0-1.1-0.1-1.5-0.4c-0.4-0.2-0.8-0.6-1.1-1
			c-0.3-0.4-0.5-0.9-0.6-1.4c-0.1-0.5-0.2-1-0.2-1.6c0-0.5,0.1-1.1,0.2-1.6c0.1-0.5,0.3-1,0.6-1.4c0.3-0.4,0.6-0.7,1.1-1
			c0.4-0.2,0.9-0.4,1.5-0.4c0.6,0,1.1,0.1,1.5,0.4c0.4,0.2,0.8,0.6,1,1c0.3,0.4,0.5,0.9,0.6,1.4s0.2,1,0.2,1.6
			c0,0.5-0.1,1.1-0.2,1.6s-0.3,1-0.6,1.4C59,34.5,58.7,34.8,58.3,35.1z M55.4,33.3c0.3,0.6,0.8,0.8,1.4,0.8c0.6,0,1.1-0.3,1.4-0.8
			s0.5-1.3,0.5-2.2c0-0.6-0.1-1.1-0.2-1.5c-0.1-0.4-0.3-0.8-0.6-1.1c-0.3-0.3-0.6-0.4-1.1-0.4c-0.4,0-0.8,0.1-1.1,0.4
			s-0.5,0.6-0.6,1.1c-0.1,0.4-0.2,0.9-0.2,1.5C54.9,32,55.1,32.7,55.4,33.3z"/>
	</g>
	<g>
		<path class="st6" d="M44,147h-1.5v-1.9h-4v-1.2l3.4-5.3h2v5.2h1.1v1.3H44V147z M42.5,143.8V140l-2.5,3.9H42.5z"/>
		<path class="st6" d="M51.4,146.5c-0.6,0.4-1.4,0.6-2.3,0.6c-0.9,0-1.7-0.2-2.3-0.6c-0.6-0.4-0.9-1-0.9-1.7c0-0.5,0.2-1,0.5-1.3
			c0.4-0.4,0.8-0.7,1.3-0.8c-0.5-0.2-0.9-0.4-1.3-0.7c-0.3-0.3-0.5-0.7-0.5-1.2c0-0.4,0.1-0.7,0.3-1c0.2-0.3,0.4-0.5,0.7-0.7
			s0.6-0.3,1-0.4c0.4-0.1,0.7-0.1,1.1-0.1c0.4,0,0.8,0,1.1,0.1c0.3,0.1,0.7,0.2,1,0.4c0.3,0.2,0.5,0.4,0.7,0.7s0.3,0.6,0.3,1
			c0,0.9-0.6,1.6-1.8,2c0.5,0.2,1,0.5,1.3,0.8c0.4,0.4,0.5,0.8,0.5,1.3C52.3,145.6,52,146.1,51.4,146.5z M49.1,145.8
			c0.5,0,0.9-0.1,1.2-0.3c0.3-0.2,0.5-0.5,0.5-0.8c0-0.4-0.2-0.7-0.6-0.9c-0.4-0.2-0.8-0.4-1.1-0.4c-0.2,0-0.4,0.1-0.7,0.2
			c-0.2,0.1-0.5,0.2-0.7,0.4c-0.2,0.2-0.3,0.4-0.3,0.7c0,0.3,0.2,0.6,0.5,0.8C48.2,145.7,48.6,145.8,49.1,145.8z M49.1,142.1
			c0.2,0,0.4-0.1,0.6-0.2c0.2-0.1,0.4-0.2,0.6-0.4c0.2-0.2,0.3-0.4,0.3-0.6c0-0.3-0.1-0.6-0.4-0.8c-0.3-0.2-0.7-0.3-1.1-0.3
			c-0.5,0-0.8,0.1-1.1,0.3c-0.3,0.2-0.4,0.5-0.4,0.8c0,0.2,0.1,0.5,0.3,0.6c0.2,0.2,0.4,0.3,0.6,0.4C48.7,142,48.9,142.1,49.1,142.1
			z"/>
		<path class="st6" d="M56.7,147.1c-1.3,0-2.4-0.4-3.1-1.3l0.8-1c0.6,0.7,1.3,1,2.2,1c0.5,0,0.9-0.1,1.2-0.4c0.3-0.3,0.5-0.6,0.5-1
			c0-0.5-0.2-0.8-0.5-1.1c-0.3-0.3-0.7-0.4-1.2-0.4c-0.7,0-1.3,0.2-1.8,0.7l-1-0.3v-4.7h5.5v1.3h-4v2.4c0.5-0.5,1.1-0.7,1.9-0.7
			c0.7,0,1.4,0.2,1.9,0.7c0.5,0.5,0.8,1.1,0.8,2c0,0.9-0.3,1.5-0.9,2.1S57.6,147.1,56.7,147.1z"/>
	</g>
	<g>
		<g>
			<path class="st7" d="M190.3,55.1c-11.3-2.7-35,0.2-49,15.6"/>
			<g>
				<path class="st2" d="M141.4,70.6c0.7,0,1.5,0.4,2,0.8c-1.1-0.1-2.2,0-3.2,0.5c0.4-1,0.3-2.1,0.2-3.2
					C140.8,69.2,141.3,69.9,141.4,70.6z"/>
			</g>
		</g>
	</g>
	<g>
		<g>
			<path class="st8" d="M67.8,134.8c18.2,0,70.8-2.5,97.1-30"/>
			<g>
				<path class="st2" d="M164.8,105c-0.5,0-1.1-0.4-1.5-0.7c0.8,0.1,1.7,0.1,2.4-0.3c-0.3,0.8-0.3,1.6-0.2,2.4
					C165.2,106,164.8,105.5,164.8,105z"/>
			</g>
		</g>
	</g>
	<g>
		<g>
			<path class="st9" d="M190.3,136.8c-10.5,4.4-24.5,6.5-38.5,2.4"/>
			<g>
				<path class="st2" d="M152,139.3c0.4,0.7,0.3,1.9,0.1,2.7c-0.5-1.2-1.2-2.4-2.3-3.3c1.3-0.1,2.6-0.8,3.7-1.6
					C153.2,137.9,152.7,138.8,152,139.3z"/>
			</g>
		</g>
	</g>
	<g>
		<g>
			<path class="st10" d="M67.8,22.5c17.7-1.3,29.3,0.9,42.6,15.9"/>
			<g>
				<path class="st2" d="M110.3,38.4c0-0.4,0.3-0.8,0.6-1c-0.1,0.6-0.1,1.2,0.1,1.7c-0.5-0.3-1.1-0.3-1.7-0.3
					C109.6,38.6,110,38.4,110.3,38.4z"/>
			</g>
		</g>
	</g>
	<g>
		<g>
			<path class="st11" d="M66.6,109.9c10.2,4.7,57.7,10.1,89.4-10.3"/>
			<g>
				<path class="st2" d="M155.9,99.7c-0.8-0.2-1.7-1-2.2-1.7c1.3,0.5,2.8,0.7,4.2,0.5c-0.8,1.2-1.1,2.6-1.3,4
					C156.1,101.6,155.7,100.6,155.9,99.7z"/>
			</g>
		</g>
	</g>
	<g>
		<g>
			<path class="st12" d="M66.1,54.2c14.4-4,25-4.2,44,1.5"/>
			<g>
				<path class="st2" d="M110,55.7c-0.1-0.2-0.1-0.5,0-0.6c0.1,0.3,0.3,0.6,0.5,0.8c-0.3,0-0.6,0.2-0.9,0.4
					C109.7,56,109.8,55.8,110,55.7z"/>
			</g>
		</g>
	</g>
	<g>
		<g>
			<path class="st13" d="M66.1,83.9c6.4-7.2,29.8-22.2,53.5-16.2"/>
			<g>
				<path class="st2" d="M119.3,67.6c-0.5-0.8-0.5-2.2-0.3-3.1c0.6,1.4,1.5,2.8,2.8,3.7c-1.6,0.2-2.9,1-4.2,2
					C117.9,69.3,118.5,68.2,119.3,67.6z"/>
			</g>
		</g>
	</g>
</g>
</svg>
