<?xml version="1.0" encoding="utf-8"?>
<!-- Generator: Adobe Illustrator 19.2.0, SVG Export Plug-In . SVG Version: 6.00 Build 0)  -->
<svg version="1.1" id="Layer_1" xmlns="http://www.w3.org/2000/svg" xmlns:xlink="http://www.w3.org/1999/xlink" x="0px" y="0px"
	 viewBox="0 0 266.2 169.3" style="enable-background:new 0 0 266.2 169.3;" xml:space="preserve">
<style type="text/css">
	.st0{fill-rule:evenodd;clip-rule:evenodd;fill:#0D92FF;}
	.st1{fill:none;stroke:#00325C;stroke-width:0.155;stroke-miterlimit:10;}
	.st2{fill:#00325C;}
	.st3{fill:none;stroke:#00325C;stroke-width:0.74;stroke-miterlimit:10;}
	.st4{fill:none;stroke:#00325C;stroke-width:0.16;stroke-miterlimit:10;}
	.st5{fill:#787878;}
	.st6{fill:#0D92FF;}
	.st7{fill:none;stroke:#00325C;stroke-width:0.245;stroke-miterlimit:10;}
	.st8{fill:none;stroke:#00325C;stroke-width:0.43;stroke-miterlimit:3;}
	.st9{fill:none;stroke:#00325C;stroke-width:0.59;stroke-miterlimit:10;}
	.st10{fill:none;stroke:#00325C;stroke-width:0.45;stroke-miterlimit:10;}
	.st11{fill:none;stroke:#00325C;stroke-width:0.395;stroke-miterlimit:10;}
	.st12{fill:none;stroke:#00325C;stroke-width:0.29;stroke-miterlimit:10;}
	.st13{fill:none;stroke:#00325C;stroke-width:0.47;stroke-miterlimit:10;}
</style>
<g>
	<g>
		<polygon class="st0" points="130.7,41 130.8,40.8 130.8,40.8 130.6,40.9 130.6,40.9 130.5,41 130.4,41 130.5,41.1 130.6,41.1 		
			"/>
		<polygon class="st0" points="130.4,41.4 130.7,41.4 130.8,41.4 130.9,41.5 130.7,41.3 130.5,41.2 130.4,41.4 130.2,41.6 130,42.1 
			129.9,42.3 129.9,42.4 		"/>
		<polygon class="st0" points="130.2,41.2 130.3,41.2 130.3,41 130.1,40.9 130,40.9 129.9,41.1 129.9,41.3 130,41.3 		"/>
		<polygon class="st0" points="111.1,80.8 111.1,81.1 111.3,81.1 111.3,80.9 111.2,80.8 		"/>
		<polygon class="st0" points="112.4,74.7 112.5,74.6 112.4,74.4 112.4,74.3 112.3,74.2 112.2,74.2 112.1,74.3 112,74.4 111.9,74.7 
			111.9,74.8 111.8,74.8 111.7,74.9 111.7,75 111.6,75.1 111.5,75.1 111.4,75 111.4,74.8 111.1,74.8 110.9,74.8 110.9,74.9 
			110.8,75 110.8,75 110.8,75 110.8,75 110.8,75.1 110.6,75.1 110.5,75.1 110.3,75 110.1,74.9 110,74.9 109.8,74.9 109.6,75 
			109.4,75.1 109.3,75.3 109.4,75.7 109.5,75.9 109.7,75.9 110.5,75.9 110.6,75.9 110.6,75.9 110.7,75.7 110.8,75.8 111.2,75.6 
			111.3,75.9 111.4,75.6 111.5,75.6 111.6,75.7 111.8,75.8 111.8,75.8 111.9,76 111.9,76.1 112,76.2 112.1,76.2 112.2,76.2 
			112.2,76.3 112.4,76.1 112.3,75.9 112.2,75.7 112,75.6 112.1,75.5 112.3,75.4 112.4,75.3 112.4,75.1 112.4,74.9 112.4,74.8 		"/>
		<polygon class="st0" points="109.2,77.7 109.2,77.6 109.2,77.5 109.1,77.5 109.1,77.6 109,77.7 108.9,77.8 108.8,77.9 108.9,77.9 
			109,78 109.2,78 109.3,77.9 109.3,77.8 109.3,77.8 109.3,77.8 		"/>
		<polygon class="st0" points="106.9,71.8 106.9,71.8 106.9,71.8 106.8,71.7 106.6,71.8 106.4,72.3 106.5,72.5 106.7,72.5 
			106.9,72.3 107,72.1 107,71.9 		"/>
		<polygon class="st0" points="107.5,67 107.5,67 107.4,67 107.4,67.2 107.5,67.2 107.6,67.1 107.6,67 107.6,67 		"/>
		<polygon class="st0" points="118.6,81.9 118.6,81.9 118.5,81.9 118.5,82 118.5,82 118.5,82.1 118.5,82.1 118.6,82.2 118.6,82.1 
			118.6,82 118.6,82 118.7,82 118.7,82 118.7,81.9 		"/>
		<polygon class="st0" points="117,80.7 116.8,80.5 116.7,80.3 116.6,80.3 116.5,80.3 116.5,80.5 116.4,80.6 116.5,80.7 116.8,81.1 
			116.9,81.2 117.1,81 117,80.9 		"/>
		<polygon class="st0" points="148.8,126.9 148.6,126.9 148.7,127.1 148.8,127 		"/>
		<polygon class="st0" points="127.6,133.7 127.5,133.5 127.4,133.5 127.3,133.5 127.2,133.5 127.3,133.7 127.4,133.8 127.5,133.9 
			127.7,133.9 127.6,133.8 		"/>
		<polygon class="st0" points="127.3,147.2 126.9,146.9 126.9,147 126.8,147 126.7,147 126.7,147 126.6,146.9 126.5,146.8 
			126.5,146.8 126.4,146.8 126.3,146.9 126.3,146.9 126.2,147 126.2,147.2 126.3,147.4 126.3,147.4 126.6,147.7 126.9,147.9 
			127.2,148 127.4,147.7 127.4,147.4 		"/>
		<polygon class="st0" points="130,134.1 129.9,134.1 129.8,134 129.7,134 129.7,134 129.6,134.1 129.4,134.1 129.5,134.2 
			129.6,134.3 129.7,134.3 129.8,134.2 129.9,134.3 130.1,134.4 130.2,134.4 130.3,134.2 130.2,134.2 		"/>
		<polygon class="st0" points="154.3,128.3 154.2,128.5 154.2,128.7 154.4,128.9 154.6,129.1 154.7,129 154.8,128.9 154.7,128.8 
			154.7,128.6 154.6,128.5 154.4,128.4 154.4,128.3 		"/>
		<polygon class="st0" points="132.7,162 132.7,162 132.7,162 132.6,162 132.2,161.9 132.1,161.9 131.9,161.9 131.8,162 131.9,162 
			132.1,162.1 132.4,162.2 132.5,162.2 132.5,162.3 132.6,162.3 132.7,162.2 132.7,162.1 132.7,162.1 		"/>
		<polygon class="st0" points="150.8,126.8 150.9,126.8 150.9,126.8 150.8,126.7 150.8,126.6 150.7,126.5 150.5,126.4 150.5,126.5 
			150.5,126.6 150.6,126.8 		"/>
		<polygon class="st0" points="156.7,124.3 156.8,124.2 156.9,124.1 156.9,124.1 156.9,124 156.9,123.9 156.9,123.8 156.8,123.8 
			156.8,123.8 156.7,123.8 156.7,123.9 156.6,123.9 156.5,124 156.5,124 156.5,124.1 156.6,124.2 		"/>
		<polygon class="st0" points="153.4,127 153.5,126.9 153.5,126.8 153.5,126.7 153.6,126.7 153.5,126.5 153.3,126.5 153,126.5 
			152.8,126.6 153.1,126.9 		"/>
		<polygon class="st0" points="154.3,127.2 154,127.2 153.9,127.3 153.8,127.5 153.8,127.7 153.9,127.8 154,127.9 154.1,128 
			154.3,128.1 154.4,128 154.4,127.9 154.4,127.9 154.3,127.8 154.3,127.7 154.5,127.7 154.5,127.6 154.5,127.6 154.4,127.5 
			154.3,127.5 154.4,127.3 		"/>
		<polygon class="st0" points="137.8,125.2 138,125 138,125 137.9,124.9 137.8,124.9 137.7,125 137.6,125.1 137.6,125.2 
			137.7,125.2 		"/>
		<polygon class="st0" points="135,157.9 134.9,157.9 134.8,157.9 134.8,158 134.8,158 134.8,158.1 134.9,158.2 135,158.2 
			135,158.1 135,158 		"/>
		<polygon class="st0" points="160,130.7 160.1,130.5 160.5,130.3 160.6,130.3 160.7,130.3 160.7,130.2 160.8,130.1 160.4,130.1 
			159.9,129.8 159.6,129.8 159.5,129.9 159.1,130.2 158.7,130.4 158.6,130.5 158.4,130.6 157.7,130.9 157.4,130.9 157.3,130.9 
			157.1,130.9 157,130.8 157,130.7 157,130.4 157,130.3 156.9,130.3 157,130.3 156.9,130.4 156.9,130.4 156.9,130.4 157,130.5 
			156.6,131.2 156.4,131.5 155.9,131.7 155.7,131.8 155.5,131.9 155.4,131.8 155.3,131.8 155.2,131.6 155.2,131.6 155.1,131.6 
			154.8,131.6 154.6,131.5 154.4,131.5 154.4,131.4 154.2,131.2 154.1,131.2 153.9,131.2 153.8,131.2 153.7,131.2 153.6,131.3 
			152.9,131.5 152.7,131.5 152.4,131.5 152.3,131.5 151.9,131.9 151.6,132.2 151.3,132.4 150.2,132.8 149.8,132.9 149.5,132.8 
			149,133 148.5,133.2 148,133.2 146.9,133 146.6,133.1 146.4,133.1 146.2,133.1 146,133 145.6,132.8 145.5,132.9 144.9,133 
			144.8,133.1 144.6,133.2 144.5,133.3 144.1,133.4 143.7,133.6 143.5,133.7 142.9,133.6 142.7,133.6 142.7,133.5 142.7,133.5 
			142.8,133.5 142.7,133.4 142.2,133.4 142,133.2 141.6,132.9 141.4,132.8 141.3,132.7 141.2,132.6 141.2,132.5 141.2,132.3 
			140.9,132.1 139.8,132.2 139.7,131.8 139.6,131.7 139.6,131.3 139.6,131.3 139.2,131 139.2,131 139.2,130.9 139.2,130.8 
			139.1,130.8 139.1,130.8 138.9,130.8 138.8,130.9 138.7,131 138.5,131 138.4,130.9 138.3,131.2 138.1,131.3 137.8,131.3 
			137.6,131.3 137.3,131.1 137.2,131.1 137.1,131.1 137,131.2 137,131.3 137,131.4 136.7,131.7 136.7,131.8 136.8,131.9 136.8,132 
			136.8,132.2 136.8,132.2 136.8,132.3 136.8,132.4 136.4,132.6 135.7,133 135.3,133 135,132.9 135,132.8 134.9,132.7 134.6,132.5 
			134.5,132.4 134.2,132 134,131.5 134,131.2 133.9,131.2 133.8,131.2 133.7,131.1 133.6,131.3 133.6,131.6 133.6,131.9 
			133.4,132.1 133.3,132 133.2,132 133.1,132 133,132.1 133,132.3 132.8,132.4 132.6,132.6 132.3,132.5 132,132.7 131.8,133 
			131.5,133.1 131.6,133.2 131.6,133.4 131.5,133.6 131.5,133.9 131.2,134.3 131.2,134.4 131.2,134.4 131.2,134.5 131.3,134.6 
			131.3,134.7 131.4,134.8 131.3,134.9 131.3,135.1 131.3,135.1 131.2,135.4 131.2,135.4 131.2,135.5 131.1,135.6 131,135.5 
			130.9,135.6 130.9,135.7 131,135.9 131.1,136 131.1,136.2 131.2,136.3 131.2,136.5 131.2,136.6 131.3,136.8 131.5,137.1 
			131.6,137.3 131.8,137.4 132.1,137.4 132.3,137.4 132.4,137.6 132.8,138.2 133,138.4 133.4,138.5 134.2,138.3 134.9,138.3 
			135.7,138.4 135.9,138.5 136.2,138.8 136.2,138.9 136.3,139.1 136.3,139.2 136.4,139.3 136.5,139.3 136.7,139.2 137.8,139.3 
			137.8,139.4 137.9,139.6 138,139.6 138.1,139.6 138.2,139.7 138.3,139.8 138.5,139.9 138.5,140 138.8,140.4 138.9,140.5 
			139,140.5 139.1,140.6 139.2,140.8 139.6,141 140.1,141.4 140.4,141.5 140.7,141.7 141.1,141.7 141.5,141.8 141.7,142 
			142.5,142.8 142.8,143 143.2,143.2 143.6,143.2 143.9,143.4 144.5,143.8 144.9,143.9 145,143.9 145.2,143.7 145.2,143.7 
			146.3,143.6 146.6,143.7 147.4,144.1 148,144.5 148.9,145.3 149.1,145.6 149.9,147.2 150,147.4 150.7,147.6 150.9,147.5 
			151,147.6 151.6,147.8 151.7,148 151.8,148.2 152.4,148.2 152.5,148.4 152.6,148.3 152.7,148.4 152.7,148.5 153.3,148.2 
			153.6,148.1 154,148.2 154.3,148.5 154.6,148.6 154.7,148.5 154.7,148.4 154.8,148.4 154.9,148.5 155,148.5 155.1,148.6 
			155.2,148.8 155.4,148.9 155.6,149 155.8,148.9 156,148.7 156,148.6 155.8,147.9 155.6,147.5 155.6,147.3 155.7,147.2 
			155.7,147.1 156.2,145.9 156.3,145.6 156.5,145.5 156.7,145.5 156.8,145.4 157,145.3 157.2,145.3 157.2,145.2 157.2,145.1 
			157.2,145.1 157.3,145.1 157.2,145 157.5,144.8 157.6,144.8 157.6,144.9 157.7,144.9 157.8,144.9 157.8,144.7 157.7,144.5 
			157.6,144.5 157.4,144.5 157.4,144.4 157.3,144.3 157.4,144.2 157.5,144.3 157.6,144 157.5,143.8 157.4,143.7 157.2,143.7 
			157,143.6 156.9,143.4 156.9,143.3 157,143.2 157,143.2 156.9,143.1 156.7,143.2 156.5,143 156.4,142.6 156.6,142.4 156.5,142.2 
			156.6,142.2 156.7,142.2 156.8,142.2 156.8,142.4 156.8,142.3 156.9,142.2 157,142.1 157.1,142.3 157.1,142 156.9,141.8 
			156.7,141.7 156.4,141.6 155.8,141.3 155.7,141.2 155.6,141 155.6,140.8 155.6,139.7 155.6,139.5 155.6,139.3 155.8,138.9 
			156.2,138.4 156.4,138 156.4,137.7 156.6,137.4 156.6,137.2 156.6,137 156.7,136.9 156.8,136.8 156.8,136.7 156.7,136.4 
			156.6,136.3 156.7,136.2 157,135.8 157.2,135.6 157.4,135.3 157.5,134.9 158.4,133.6 159.4,132.4 159.6,131.8 160.1,131 
			159.9,131 159.9,130.8 		"/>
		<polygon class="st0" points="94.3,120.7 94.3,120.7 94.2,120.8 94.1,120.8 94.1,120.8 94.1,120.7 94,120.3 93.7,120.3 93.4,120.3 
			93.2,120.2 93,120.4 93,120.5 93.1,120.5 93.1,120.6 93.1,120.8 93.2,121.2 93.6,121.8 93.6,121.9 93.6,122 93.6,122 93.7,122 
			93.8,122 93.9,122 94,121.6 94,121.2 94.1,121.1 94.1,121 94.1,120.9 94.3,120.7 94.3,120.7 		"/>
		<polygon class="st0" points="92.3,96.7 92.1,96.8 92,97 91.9,97.1 91.9,97.2 91.9,97.3 91.9,97.4 91.8,97.5 92.1,97.5 92.2,97.3 
			92.2,96.9 92.4,96.8 92.9,96.7 93,96.6 93,96.4 93,96.3 92.9,96.2 92.9,96.1 92.9,96 92.9,95.9 92.7,96 92.7,96.1 92.7,96.1 
			92.6,96.2 92.5,96.2 92.4,96.2 92.4,96.3 92.4,96.5 92.4,96.6 		"/>
		<polygon class="st0" points="106.7,103.1 106.5,102.9 106.4,102.7 106.4,102.6 106.4,102.6 106.2,102.5 106.2,102.5 106.1,102.4 
			106.1,102.3 106,101.5 106,101.4 105.7,100.8 105.7,100.6 105.6,100.4 105.4,100 105.3,99.9 105.3,100 105.2,99.9 105.2,99.8 
			105.4,99.7 105.5,99.8 105.5,99.7 105.4,99.5 105.5,99.5 105.8,99.4 105.7,99.3 105.6,99.3 105.5,99.2 105.4,99.1 105.3,99.2 
			105.3,99.2 105.2,99.1 105.2,99 105.1,98.9 104.8,98.8 104.8,98.7 104.9,98.7 105,98.6 105,98.5 105.1,98.4 104.9,98.4 
			104.7,98.5 104.6,98.6 104.4,98.6 104.4,98.6 104.2,98.5 104.1,98.4 104,98.5 103.9,98.5 103.9,98.5 103.8,98.4 103.9,98.3 
			103.8,98.3 103.9,98.3 104.3,98.3 104.4,98.3 104.4,98.1 104.5,97.9 104.5,97.7 104.6,97.5 104.7,97.4 104.9,97.5 105,97.6 
			105.1,97.6 105.2,97.4 105.1,97.3 104.8,97.2 104.6,97.2 104.4,97.3 104.4,97.3 104.4,97.3 104.3,97.3 104.3,97.3 104.3,97.3 
			104.3,97.4 104.2,97.3 104.3,97.2 104.2,97 104.1,97 104,97.1 104,97.3 103.9,97.3 103.9,97.1 104.1,96.3 104.1,96.4 104.1,96.5 
			104.2,96.5 104.3,96.4 104.3,96.3 104.3,96.2 104.4,96 104.3,96 104.3,96 104.3,96 104.3,95.9 104.2,95.9 104.2,96 104.1,96 
			104.1,95.9 104,95.8 104,95.7 104,95.6 103.9,95.6 103.9,95.7 103.8,95.7 103.7,95.7 103.6,95.7 103.5,95.7 103.3,95.7 
			103.4,95.8 103.4,95.8 103.4,95.9 103.5,95.9 103.4,96 103.3,96.1 103.2,96.3 103.2,96.1 103.2,95.9 103.2,95.8 103.1,95.7 
			103.1,95.6 103,95.5 102.9,95.5 102.9,95.5 102.9,95.4 103,95.4 103,95.3 103,95.3 102.9,95.3 102.9,95.2 102.8,95.2 102.7,95.2 
			102.7,95.3 102.4,94.9 102.2,94.9 102.2,95.2 102,95.1 102,95 101.9,95 101.9,95.1 101.8,95.1 101.8,95 101.8,94.9 101.8,94.9 
			101.8,94.7 101.7,94.7 101.7,94.9 101.6,95 101.7,95 101.7,95.1 101.6,95 101.6,94.6 101.5,94.4 101.4,94.4 101.3,94.4 
			101.3,94.4 101.2,94.2 101.1,94.3 100.9,94.4 100.7,94.5 100.6,94.7 100.6,95.2 100.6,95.4 100.4,95.6 100.4,95.5 100.1,95.8 
			100,95.8 99.3,95.9 99.2,96 99,96.3 98.9,96.5 98.7,96.6 98.6,96.7 98.6,96.7 98.5,96.9 98.4,97 98.3,97.1 98,97.2 98,97.2 
			98.1,97.2 98.1,97.2 98.1,97.3 98,97.4 97.6,97.9 97.5,98.1 96.9,98.5 96.8,98.5 96.6,98.4 96.4,98.4 95.8,98.7 95.7,98.9 
			95.6,99.1 95.4,99.3 94.7,99.6 94.5,99.6 94.3,99.6 93.7,99.4 92.7,99.3 92.4,99.1 92,98.6 92,98.4 92,98.3 92,98.1 92,98 
			92,97.9 91.9,97.9 91.8,97.9 91.8,97.8 91.7,97.8 91.6,97.9 91.5,98.1 91.5,98.3 91.6,98.4 91.8,98.5 91.8,98.7 91.8,98.9 
			91.8,99.1 91.1,100.8 91.2,100.8 91.3,100.9 91.4,101.1 91.4,101.2 91.5,101.2 91.6,101.2 91.7,101.2 91.7,101.3 91.6,101.4 
			91.6,101.4 91.6,101.7 91.4,101.8 91.3,102 91.1,102 91.1,102.1 91.2,102.4 91.3,102.6 91.3,102.8 91.4,102.5 91.5,102.3 
			91.6,102.1 91.8,102.2 91.7,102.4 91.7,102.6 91.8,102.7 92.3,102.4 92.5,102.4 92.7,102.6 92.8,102.9 92.8,103.2 92.9,103.4 
			93.1,103.5 93.2,103.7 93.4,103.9 93.5,104.3 93.5,104.5 93.4,105.1 93.4,105.4 93.6,105.5 93.7,105.4 93.9,105.6 94.1,105.8 
			94.3,106.1 94.3,106.4 94.1,107 94.1,107.6 94.2,107.9 94.3,108.2 94.4,108.3 94.4,108.5 94.3,108.7 94.2,108.9 94.1,108.9 
			94,108.9 93.9,109 93.6,109 93.6,109 93.4,109.1 93.3,109.2 93.4,109.2 93.5,109.2 93.6,109.3 93.6,109.5 93.5,109.7 93.5,109.9 
			93.6,110.3 93.5,110.4 93.5,110.5 93.5,110.6 93.5,110.7 93.5,110.7 93.6,110.8 93.6,110.8 93.7,110.9 93.8,111 93.9,111.1 
			93.8,111.2 93.9,111.3 94,111 94,110.9 94.1,110.8 94.1,110.8 94,110.8 94,110.8 93.9,110.9 93.9,110.8 94.1,110.6 94.4,110.7 
			94.7,110.8 94.9,111.1 95,111.2 95,111.4 95,111.8 94.9,111.9 94.9,112.1 94.7,112.3 94.6,112.5 94.7,112.4 94.8,112.4 
			94.8,112.3 94.8,112.2 94.9,112.2 94.8,112.4 94.7,112.5 94.5,112.8 94.5,113 94.6,113 95.1,113.2 94.8,113.3 94.6,113.2 
			94.5,113 94.2,112.6 94.1,112.5 94,112.5 94,112.5 94,112.8 93.9,113 93.9,113 94,113.2 94,113.7 94.1,114.2 94.1,114.4 
			94.1,114.6 94.1,114.7 94,114.9 93.9,115.3 93.7,115.5 93.5,115.8 93.4,116 93.4,116 93.4,116.1 93.6,116.4 93.6,116.5 
			93.6,116.7 93.5,116.8 93.3,116.9 93.3,117.1 93.4,117.3 93.7,117.5 93.7,117.7 93.8,118 93.8,118.2 93.3,118.7 93.3,118.8 
			93.3,118.9 93.4,119.1 93.4,119.1 93.5,119.1 93.5,119.2 93.6,119.3 93.6,119.4 93.6,119.5 93.6,119.6 93.7,119.6 93.7,119.5 
			93.7,119.5 93.8,119.5 93.9,119.6 93.9,119.7 93.9,120 93.9,120.2 94,120.1 94.1,120.1 94.2,120.3 94.3,120.5 94.3,120.6 
			94.3,120.6 94.5,120.5 94.6,120.6 94.6,120.8 94.5,120.8 94.7,120.8 94.9,121 95,120.9 95,120.9 95.1,121.4 95.2,122 95.4,122 
			95.5,122.2 95.5,122.5 95.4,122.7 95.4,122.8 95.5,122.8 95.7,122.8 95.8,122.9 95.7,123.1 95.8,123.2 95.9,123.1 95.9,122.9 
			96,122.6 96.3,122.5 96.5,122.4 96.7,122.4 96.9,122.5 97.2,122.7 97.3,122.9 97.3,122.7 97.5,122.9 97.6,123 97.7,123 97.8,123 
			97.9,122.8 98,122.8 98.1,122.8 98.1,122.7 99.1,121.8 99.2,121.6 99.2,121.7 99.2,121.7 99.3,121.6 99.3,121.6 99.4,121.2 
			99.5,121 99.5,120.9 99.5,120.8 99.4,120.7 99.3,120.5 99.3,120.3 99.3,120.1 99.3,119.8 99.4,119.6 99.5,119.4 99.8,119 
			99.8,119 99.8,118.9 99.8,118.8 99.6,118.9 99.5,118.9 99.5,118.9 99.4,118.8 99.4,118.8 99.3,118.7 99.3,118.6 99.3,118.5 
			99.2,118.5 99.2,118.4 99.3,118.4 99.5,118.4 99.5,118.5 99.6,118.6 99.7,118.7 99.8,118.6 100.2,119.1 100.4,119.3 100.6,119.3 
			100.7,119.3 100.8,119.1 100.9,118.9 101.1,118.9 101.4,118.9 101.6,118.9 101.8,119 101.8,118.9 101.9,119 102,119.1 
			102.1,119.2 102.2,119.2 102.3,119.2 102.5,119.5 102.6,119.5 102.7,119.6 102.9,119.8 103.1,119.9 103.2,120 103.2,120.1 
			103.3,120.1 103.4,120 103.6,120 103.7,120 103.9,120.1 103.8,120.2 103.8,120.2 103.8,120.3 103.9,120.3 104,120.1 104.1,120 
			104.3,119.9 104.4,119.8 104.4,119.7 104.5,119.4 104.5,119.3 104.4,119.3 104.4,119.2 104.4,119.1 104.4,119 104.4,118.7 
			104.5,118.4 104.7,118.1 105,118 105,118 104.8,117.8 104.7,117.7 104.7,117.5 104.7,117.3 104.8,116.8 105,116.2 105.1,115.8 
			104.9,115.6 105.2,114.8 105.2,114.5 105.1,113.9 105.1,113.8 105.2,113.7 105.2,113.6 105.2,113.5 105.3,113.3 105.4,113.1 
			105.4,113 105.4,112.8 105.3,112.5 105.3,112.4 105.3,112.1 105.4,111.8 105.5,111.5 105.6,111.4 105.6,111.3 105.5,111.3 
			105.5,111.2 105.4,111.2 105.4,111.2 105.5,111.2 105.4,111 105.5,110.9 105.5,110.7 105.6,110.6 105.6,110.5 105.7,110.5 
			105.7,110.5 105.8,110.4 105.7,110.3 105.7,110.3 105.6,110.4 105.6,110.4 105.5,110.1 105.5,109.7 105.9,108.8 105.9,108.6 
			105.7,108.4 105.5,108.2 105.4,108.1 105.3,108 105.2,107.9 105,107.2 104.9,107.1 104.9,106.6 104.9,106.4 105,106.2 105.1,106 
			105.3,105.8 105.4,105.7 105.6,105.3 105.7,105.2 105.9,105.1 106.1,105 106.2,104.9 106.3,104.4 106.5,104.1 106.6,103.9 
			106.6,103.7 106.7,103.5 106.8,103.3 106.8,103.2 		"/>
		<polygon class="st0" points="103.1,94.4 103.1,94.4 103,94.3 102.9,94.2 102.9,94.3 102.8,94.3 102.8,94.3 102.8,94.4 102.7,94.5 
			102.7,94.6 102.6,94.6 102.6,94.6 102.6,94.7 102.6,94.9 102.8,94.9 103.1,94.8 103.1,94.8 103.1,94.7 103.1,94.7 103.1,94.6 		
			"/>
		<polygon class="st0" points="92.7,119.3 92.5,119.3 92.1,119.4 92,119.5 91.9,119.7 92,119.9 92.2,120.1 92.2,120.2 92.2,120.3 
			92.3,120.4 92.5,120.4 92.7,120.3 92.7,120.1 92.7,119.7 		"/>
		<polygon class="st0" points="102.8,95 102.8,95.1 102.8,95.1 102.9,95.1 102.9,95.2 102.9,95.2 103,95 102.9,94.9 102.9,95 		"/>
		<polygon class="st0" points="102.2,94.6 102.2,94.6 102.3,94.7 102.3,94.7 102.3,94.7 102.4,94.6 102.4,94.4 102.3,94.4 
			102.3,94.4 102.2,94.4 102.2,94.6 		"/>
		<polygon class="st0" points="102.2,94 102.3,94.1 102.3,94.1 102.4,94.1 102.4,93.9 102.2,94 		"/>
		<polygon class="st0" points="102.6,93.7 102.6,93.7 102.5,93.8 102.5,93.8 102.5,93.8 102.5,93.9 102.6,93.9 102.6,93.9 
			102.6,93.9 102.6,93.8 102.7,93.8 102.6,93.7 		"/>
		<polygon class="st0" points="102.4,93.8 102.3,93.7 102.3,93.7 102.3,93.7 102.3,93.7 102.2,93.7 102.2,93.7 102.2,93.8 
			102.3,93.8 102.3,93.9 102.3,93.9 102.4,93.9 		"/>
		<polygon class="st0" points="100.5,94.5 100.5,94.5 100.4,94.4 100.4,94.5 100.5,94.6 100.6,94.6 100.6,94.6 100.6,94.5 
			100.6,94.5 		"/>
		<polygon class="st0" points="106,98.4 105.9,98.4 105.4,98.8 105.4,98.8 105.4,98.8 105.5,98.8 105.5,98.8 105.6,98.8 106,98.5 
			106,98.4 		"/>
		<polygon class="st0" points="103.2,95.2 103.3,95.2 103.3,95.3 103.4,95.4 103.5,95.4 103.5,95.3 103.5,95.2 103.5,95.1 
			103.6,94.8 103.6,94.7 103.5,94.7 103.5,94.6 103.4,94.5 103.4,94.5 103.3,94.6 103.2,94.8 103.2,94.9 103.3,95 103.2,95.2 		"/>
		<polygon class="st0" points="105.7,99 105.8,99.1 105.9,99.2 106,99.2 106,99.1 105.9,99 105.9,99 		"/>
		<polygon class="st0" points="104.7,96.6 104.7,96.6 104.7,96.6 104.7,96.5 104.8,96.5 104.7,96.5 104.7,96.5 104.7,96.6 
			104.7,96.6 		"/>
		<polygon class="st0" points="134.8,98.3 134.8,98.3 134.8,98.4 134.9,98.3 134.9,98.2 134.9,98.1 134.9,98.1 134.8,98.1 
			134.8,98.1 134.8,98.2 		"/>
		<polygon class="st0" points="140.1,99.9 140.1,100 140,100.1 140.1,100 140.2,99.9 		"/>
		<polygon class="st0" points="136.8,97.8 136.7,97.8 136.6,97.9 136.7,97.9 136.7,97.9 		"/>
		<polygon class="st0" points="136,98.3 136.1,98.3 136.1,98.2 136,98.2 136,98.3 135.9,98.3 135.9,98.3 135.9,98.3 135.9,98.4 
			135.9,98.4 135.8,98.4 135.7,98.5 135.6,98.7 135.7,98.7 135.7,98.8 135.7,98.9 135.7,98.9 135.8,98.9 135.8,98.8 135.9,98.8 
			135.9,98.7 135.8,98.7 135.8,98.6 135.9,98.4 		"/>
		<polygon class="st0" points="147.7,103 147.8,103 147.9,102.9 147.8,102.9 147.5,102.8 147.4,102.8 147.3,102.8 147.3,103.1 
			147.4,103.1 147.6,103 		"/>
		<polygon class="st0" points="145.4,100.6 145.5,100.6 145.5,100.6 145.5,100.6 145.5,100.6 145.6,100.7 145.6,100.5 145.6,100.5 
			145.7,100.5 145.6,100.4 145.7,100.4 145.7,100.4 145.8,100.4 145.7,100.3 145.6,100.3 145.6,100.3 145.6,100.3 145.5,100.3 
			145.5,100.4 145.5,100.4 145.5,100.5 		"/>
		<polygon class="st0" points="144.1,100.7 144.1,100.9 144.2,101 144.4,101.1 144.4,101.2 144.6,101.1 144.7,101.1 144.9,101.1 
			144.9,101.1 145.1,101 145.1,100.9 145.1,100.8 145.1,100.8 145.1,100.7 145,100.6 144.4,100.4 144.2,100.4 144.2,100.5 
			144.3,100.5 144.2,100.6 		"/>
		<polygon class="st0" points="159.3,83.8 159.3,83.7 159.3,83.6 159.2,83.6 159.2,83.6 159.2,83.7 159.1,83.7 159.1,83.9 
			159.2,83.9 		"/>
		<path class="st0" d="M187.3,108.2L187.3,108.2l0-0.2l-0.1,0l0-0.1l0-0.1l-0.6-1.4l-0.6-0.9l-0.1-0.1l-0.2-0.1l-0.1-0.2l-0.2-0.4
			l-0.3-0.3l-0.1-0.1l-0.2-0.3l-0.1,0l-0.2,0l-0.9-0.5l-0.8-0.6l0.1-0.5l0-0.1l-0.2-0.2l0-0.1l0-0.1l0-0.1l-0.1,0l-0.2,0.1l-0.1,0
			l0-0.3l-0.3-0.2l-0.7-0.1l-0.9-0.7l-1-0.4l-0.1-0.1l-0.8-0.2l-0.3-0.2l-0.2-0.1l-0.1-0.1l-0.6-0.6l-0.3-0.3l-0.2-0.1l-0.1-0.1
			l-0.4-0.5l-0.3-0.3l-0.7-0.5l-1.4-0.7l-1.6-0.5l-0.2-0.2H172v0.1h-0.1l-0.2-0.2l-2.2-0.7l-0.4-0.3l-0.1-0.1l-0.2-0.1l-0.6-0.2
			l-1.5-0.8l-1.7-0.8l-0.1-0.1l-0.1-0.1l-0.6-0.2l-0.6-0.4l-0.3-0.2l-0.2-0.3l-0.1-0.4l0-0.5l0.1-0.5l0.2-0.3l0.9-0.5l0.3-0.3
			l0.2-0.3l0.2-0.1l0.2-0.1l0.2-0.1l0.2-0.2l0.2-0.2l0.1-0.1l0-0.2l0-0.2l-0.1-0.5l-0.1-0.2l0-0.2l-0.2,0l-0.2-0.3l-0.3-0.1l0,0
			l-0.8-0.2l-2.3,0.3l-1.5-0.1l-1.5,0.3l-0.4,0l-1.1-0.3l-1.1,0l-0.2,0l-0.2,0l-0.2-0.1l-0.4-0.3l-0.2-0.1l-0.1-0.1l-0.3-0.3
			l-0.1-0.1l-0.4-0.1l-0.8-0.1l-0.3-0.2l-0.3-0.3l-0.2-0.1l-0.2,0l0,0l-0.1,0l-0.2-0.1l-0.1-0.2l-0.1-0.2l-0.1-0.5L152,83l-0.1-0.1
			l-0.4-0.1l-0.5-0.2l-0.3-0.2l-1.2-1.2l-0.4-0.6l-0.3-0.3l-0.7-0.4l-0.6-0.5l-1.3-1.6l-0.1-0.1l-0.1-0.2l-0.6-0.9l-0.2-0.4
			l-0.3-0.9l-0.4-1.3l-0.4-1.3l-0.2-1.1l-0.1-0.4l-0.3-0.6l-0.1-0.2l0-0.1l-0.1-0.5l0-0.1l-0.1-0.3l-1.3-3.4l0.1-0.2l-0.1-0.2
			l-0.2-0.1l-0.2,0l-0.1-0.1l-0.1-0.2l-0.1-0.2l-0.2-0.1l0,0l0-0.1l0-0.1l-0.1,0l-0.1,0l0,0l0,0l0,0l-0.1,0l-0.1,0.1l-0.1,0.1
			l-0.2-0.1l-0.4-0.2l-0.1-0.1l-0.2-0.1l-1.1-0.7l-2.8-2.5l-0.1-0.1l-0.1-0.1l-0.6-0.3l-0.4-0.3l-0.2-0.1l-0.4-0.1l0,0h0l-0.4-0.1
			l-0.2-0.1l-0.3-0.2l-0.3-0.3l-0.5-0.7l-0.2-0.1l-0.3-0.3l-0.3-0.3l-0.2-0.3l-0.4-0.4l-0.3-0.4l-0.2-0.4l-0.2-0.5l-0.1-0.3l0-0.3
			l0-0.1l-0.1-0.2l0-0.1l0-0.1l0-0.3l-0.3-1.3l0-0.6l0.1-0.9l0-0.1l-0.1-0.1l-0.1-0.2l-0.1-0.4l-0.1-0.6l0.1-0.5l0.2-0.9h-0.1v-0.1
			l0.2-0.2l0.1,0l0.2,0.1l0.2,0.2l0.1,0.1l0.2,0.2l0.2,0l0,0l0.2-0.1l0.1-0.2l-0.1,0l-0.1-0.1l-0.1,0v-0.1l0.1,0l0.1-0.1l0-0.1
			l-0.2-0.1l0-0.1l0.1-0.2l0-0.1l0.1-0.1l0.1-0.1l0.1,0.1l0,0.1l0,0.2l-0.1,0.3l0.1,0.1l0.1,0.1l0,0.1l0,0.1l0.3-0.3l0.1-0.2
			l0.1-0.2l0-0.4l0-0.1l0.1,0h0.1l0-0.1l0-0.1l0.1-0.1l0-0.1l0.1-0.1l0-0.1l-0.1-0.1l-0.1-0.1l-0.1,0l-0.2,0v0.1l0,0l0.1,0l0,0
			l-0.1,0.1l-0.2-0.2l-0.2-0.2l-0.1-0.1l-0.1-0.1l-0.1-0.2l0-0.1l-0.1-0.1l-0.2-0.1l-0.1-0.1l0.1,0.2l0.1,0.2l0,0.2l-0.1,0.2
			l-0.1-0.2l0.1,0l0,0l0,0l0.1,0v-0.1l-0.1-0.2l-0.1-0.2l-0.1-0.2l-0.2-0.2l0,0.1l0,0l0,0l-0.2,0l-0.1-0.1l0-0.2l0.1-0.3v0.1l0,0.1
			l0,0.1l0.1,0.1l0.1,0l-0.1-0.5l0-0.4l-0.1-0.2l-0.1-0.2l-0.1-0.2l0.1-0.2l-0.1,0.1l-0.2,0.2l-0.1,0.1l0,0l0,0l0,0l-0.2,0l-0.2-0.1
			l-0.1-0.2l0-0.2l-0.1-0.1l0-0.1l0-0.1l0.1,0l0-0.2l0-0.2l0-0.1l-0.2-0.1l0,0.1l0,0.2l-0.1,0.2l-0.1,0.1l-0.1-0.1l-0.1-0.3
			l-0.1-0.1l0-0.3l0.1,0l0.1,0.1l0.1,0.1l0.2,0l0.1-0.1l0-0.1l0.1-0.2l-0.1-0.2l0,0l0.1,0l0.1,0l0-0.1l0-0.1l0-0.1l0.1-0.1l-0.1-0.1
			l0-0.1l0-0.1l0.1-0.1h-0.1v-0.1l0.2-0.4l0.3-0.3l0.4-0.2l0.3,0l0,0.1l0.1,0l0.2,0l0.1-0.1v-0.1l-0.3-0.1l-0.1-0.1l0.1-0.2l0.1,0.3
			h0.1l0.1-0.1l0.2,0.1l0.2,0v-0.1L131,40l0.2-0.2l0.2-0.2l0.2-0.1l0,0.2l0.1,0.1l0.2,0.2l0.1,0l0.2-0.2l0.1,0l-0.1,0.2l-0.1,0.1
			L132,40l-0.2,0l-0.1,0.1l0,0.2l0,0.2l-0.2,0v-0.1l0.1,0l0,0l0,0l0,0l0,0l0,0l0,0l-0.1,0l-0.1,0l-0.1,0l0.1,0.2l-0.1,0.1l0,0l0-0.1
			l0-0.1h-0.1l0,0.1l0,0.1l-0.1,0l-0.1,0l0,0.1l-0.1,0.1l-0.1,0.2l-0.1,0.2l0.1,0l0.3-0.2l0.3-0.1l0.1,0l0.2-0.1l0.9-0.3l1.6-0.8
			l1.5-1l0.4-0.1l0.7,0l0.2-0.1l0.1-0.1l0,0v0l0.1-0.2l0.3-0.3l0.1-0.2l-0.4,0.2l-0.2,0l-0.2-0.1l-0.1-0.2l0.1-0.2l0.2-0.1l0.2,0
			v-0.1l-0.1-0.1l0-0.1l0-0.1l0.1-0.1l0.1,0l0.1,0.2l0.1,0l0.1,0l0.1-0.2l0.3-0.1l0.1,0l0.1,0l0.2,0.2l0.1,0l0.9,0.2l0.2-0.1
			l0.1,0.2l0.4,0.1l0.1,0.2l-0.1,0.1l-0.1,0.1l-0.2,0.1l-0.1,0l0.2,0.1l0.2-0.1l0.2-0.2l0.2-0.2l0.1-0.1l0.3,0l0.1-0.1l0-0.1
			l0.3-0.2l-0.2,0l0-0.3l0.1-0.3l0.2-0.1l0.2,0l0.5,0.2l0.2,0.1l0.7,0.8l0.1,0.2l0.1,0.3l0,0.2l-0.2,0.1l0.4,0.2l0.1,0.1l0.1,0.1
			l0.1,0l-0.2,0l-0.3,0l-0.2,0l-0.1,0.2l-0.1,0.1l0.5,0l0.4,0.2l0.4,0l0.2-0.2l0.2-0.2l0.1-0.2l0,0l0,0l-0.1,0l-0.1-0.1l-0.1-0.1
			l-0.7-1.2l-0.6-0.3l-0.1-0.1l-0.4-0.3l-0.2,0l-0.3,0l-0.3-0.1l-0.1-0.1l-0.1-0.1l0-0.5l0.3-0.6l0.1-0.2l0.1-0.3l0.1-0.3l-0.2-0.3
			l0,0l-0.3,0.1l-0.3,0.1l-0.3,0l-0.3-0.3l0,0l0,0l0,0l0,0l0,0l-0.1-0.1l0.1-0.1l0,0l0.1-0.1l0-0.1l0-0.1l-0.1-0.1l0.2-0.3l0.2-0.1
			l0.9-0.7l0.3-0.5l0-0.1l0-0.1l-0.1,0l-0.1,0l-0.3,0l-0.2,0l-0.3-0.3l-0.2-0.1l-0.3-0.1l-0.1-0.1l-0.3,0l-0.1,0l0.1,0.2l-0.3,0
			l-0.1-0.1l0-0.2l-0.1-0.2l0,0l0,0l-0.1-0.3l-0.1-0.2l-0.1-0.1l0.2-0.2l0-0.1l0.1-0.2l0.1-0.3l0.1-0.1l0.1,0l0.1-0.1l0.2-0.2
			l0.4-0.2l0.2-0.2l0.2-0.3l0.2-0.2l0.3,0l0.2,0l0.2-0.1l0.1-0.2l0,0l0-0.3l0.1-0.1l0-0.1l0-0.1l0-0.1l-0.1,0l-0.1,0l-1.1-0.4
			l-0.4,0l-0.1,0l-0.1-0.1l-0.1,0l-0.6,0l-0.4-0.1l-0.9,0.2l-0.4,0l-0.2-0.1l-0.6-0.4l-0.8-0.2l-2.2-0.2l-0.5-0.3l-0.2-0.1l-0.1,0
			l-0.1,0l-0.1,0.1l-0.1,0l-0.1,0l-0.2-0.1l-0.1,0l0,0l-0.5,0l-0.5,0.1l-0.1,0l-0.2-0.1l-0.3-0.2l-0.3,0l-0.2,0l-0.4-0.2l-0.3-0.3
			l-0.2-0.4l-0.1-0.3l-0.2-0.1l-0.2,0l-0.2-0.1l-0.1-0.1l-0.1-0.1l0-0.1l0-0.2l0-0.2l0-0.1l0-0.1l0-0.2l-0.1-0.3l-0.1-0.1l-0.4,0
			l-0.1,0l-0.1-0.1l-0.1-0.1l-0.1-0.1l-0.1-0.1l-0.2,0l-0.1,0l0.1-0.1l0-0.1l-0.1-0.1l-0.1-0.2l-0.1-0.3l0-0.2l-0.1-0.1l0.1-0.2
			l0.6-0.3l0.2-0.3l0-0.2l0-0.2l-0.2-0.1l-0.4,0.1l-0.2,0l-0.9,0.5l-0.7,0L126,20l-0.4,0.2l-0.3,0.3l-0.4,0.1l-0.1,0.1l-0.2,0.1
			l-0.1,0l-0.2-0.1l-0.3-0.2l-0.2,0l-0.1,0l-0.1,0l0,0h0l-0.5-0.1l-0.2,0l-0.3,0.1h0l0,0h0l-0.1,0l-0.1,0l-0.1,0l-0.1,0l0-0.1
			l-0.1-0.1l-0.1,0l-0.2,0l-0.1,0l-0.1,0.1l-0.1,0.1l0,0l-0.3,0.3l-0.3,0l-0.3-0.1l-0.3-0.1l-0.6,0.1l-0.6,0.2l-0.2,0.1l-0.6,0.6
			l-0.1,0.2l-0.1,0.5l-0.2,0.4l0,0.1l0,0.1l0,0.1l0,0l-0.1,0l0,0l-0.2,0.4l-0.1,0.1l-0.1,0l-0.2-0.1l-0.3,0l-0.2,0l-0.3,0.1l-0.1,0
			l-0.1,0l-0.2-0.1l-0.1,0l-0.1,0l-0.2,0.1l-0.1,0l-0.3-0.2l-0.1,0l-0.2,0.1l-0.1,0l-0.1-0.1l0-0.1l0.2-0.2l0-0.1l-0.1-0.1l-0.7-0.4
			l-0.1,0l-0.2,0l-0.9,0.3l-0.4,0l-0.3-0.2l0,0.4l0,0.1l-0.1,0.1l-0.2,0.2l0,0.2l0.1,0.2l0,0.2l-0.1,0.2l-0.2,0.1l0,0.1l0,0.2l0,0.2
			l-0.1,0.2l-0.1,0.1l0,0.1l0.1,0.3l0.2,0.2l0.4,0l0.2,0.2l0.1,0.3l0,0.3l-0.1,0.3l-0.1,0.1l-0.1,0.1l-0.2,0l-0.7-0.2l-0.3,0l-0.1,0
			l-0.1,0l-0.1-0.1l0-0.1l-0.1-0.1l-0.4-0.1l0-0.1l0.1-0.3l0-0.2l-0.1-0.1l-0.2,0l-0.9,0.3l-0.1,0l0,0.1l-0.1,0.4l-0.1,0.1l-0.2,0.2
			l-0.1,0.1l0,0.1l0,0.3l0,0.1l0,0.1l0,0.1l0,0.1l0.1,0.1l-0.2,0.3l0.1,0.2l0.3,0.1l0.4,0.1l0.2,0.1l0.1,0.1l-0.1,0.3l-0.1,0.1
			l-0.2,0.2l-0.1,0.1l0,0.2l0,0.1l0,0.1l0.1,0.1l0.4,0.4l0.1,0.2l-0.1,0.3l-0.3,0.2l-0.4,0.1l-0.3,0l0-0.3l-0.1-0.2l-0.4-0.3
			l-0.1-0.2l-0.1-0.3l0-0.3L108,29l-0.2-0.2l-0.2,0l-0.2,0l-0.4,0.1l-0.6,0.3l-0.2,0.1l-0.1,0l-0.2-0.1l-0.1,0l-0.1,0.1l0,0.2l0,0.2
			l0,0.1l-0.1,0.2l-0.2,0.1l-1.1,0l-0.2-0.1l-0.2-0.1l-0.1-0.2l-0.2-0.5l-0.1-0.1l-0.2-0.1l-0.1-0.1l0-0.1l0-0.2l-0.1-1.3l0-0.1
			l-0.1,0l-0.1,0.1l-0.1,0.1l0,0.1l0,0.1l-0.1,0l-0.1,0l-0.2-0.2l0-0.2l-0.2,0l-0.5,0.1l-0.2,0.2l-0.2,0.3l-0.1,0.3l0.1,0.2l0.1,0.1
			l0,0.1l0,0.2l0,0.2l0.1,0.5l0,0.2l-0.1,0.3l-0.3,0.6l-0.1,0.5l-0.1,0.1l-0.1,0.1l-0.1,0.1l-0.1,0.1l-0.1,0.1l0,0.2l-0.1,0.1l0,0
			l-0.7,0.5l-0.2,0.3l0,0.2l0,0.3l0,0.2l-0.1,0.1L99.6,33L99.4,33l-0.2,0.2l0,0.2l0.2,0.5l-0.3,0.3l0,0l0,0l0,0l0,0l0.1,0.1l0.1,0.2
			l0.1,0.1l0.1,0.1l0.2,0l0.1,0.1l0.1,0.2l0,0.2l-0.2,0.4l-0.3,0.4l-0.3-0.1l-0.3-0.1l-0.4,0.1l0-0.2l0.1-0.2l0-0.2l0-0.2l-0.1-0.2
			L98.2,35L98,34.7l-0.1-0.2l-0.1-0.1l-0.1,0L97.3,34L97.1,34L97,34l0,0l0-0.1l0.2-0.4l0.3-0.3l0.1-0.3l-0.2-0.3l-0.1,0l-0.3,0
			l-0.1,0l-0.1,0l-0.1-0.1l0,0l0,0l-0.1,0l-0.1,0.1l-0.1,0l-0.2,0l-0.4-0.3l-0.2-0.1l-0.1,0l-0.6-0.9L94.6,31l-0.3-0.1l-0.2-0.1
			l-0.2-0.1l-0.1-0.2l0-0.3l0-0.3l0.2-0.7l0-0.4l0-0.4l0-0.3l-0.1-0.2l-0.3,0l-0.1,0L93,27.8L92.8,28l-0.2,0.2l-0.1,0.2l0,0.1l0.1,0
			l0,0.1l-0.1,0.1l-0.1,0.1l-0.1,0.1L92.1,29l-0.5,0.6l-0.2,0.1L91,29.9l-0.2,0.1l-0.2,0.2l-0.1,0.1l0,0.1l0,0.1l0.2,0.2l0.3,0.5
			l0,0.5l-0.2,0.4l-0.4,0.4l-0.1,0l-0.2,0l-0.1,0.1L90,32.7l0,0.2l0,0.1l0,0.4l0,0l-0.1,0.2l0,0l-0.1,0.2l-0.1,0.1l-0.1,0L88.9,34
			l-0.2,0.2l-0.2,0.4l0,0l0,0.1l0,0.1l0,0l-0.1,0.1l-0.1,0l-0.2-0.1l-0.3,0l-0.4-0.2l-0.1,0l-0.1,0l-0.1,0l-0.1,0l0,0l-0.2-0.3
			l-0.1-0.1l-0.1-0.1L85.6,34L85.4,34l-0.1,0.2l-0.1,0.1l-0.2,0l-0.3,0.1l-0.5,0.4L83.9,35l-0.7-0.1l-0.1,0l-0.3,0.2l-0.6,0.2
			L82,35.4l-0.3,0l-0.3-0.1l-0.2-0.1l-0.4-0.5l-0.1,0.1l-0.1,0.1l-0.1,0.2l-0.1,0.2l-0.1,0.2l-0.2,0.2l-0.2,0.1l-0.2,0.1l-0.2,0
			l-0.1,0l0,0l-0.1,0l0,0l0,0l0,0.1l0,0.1v0l-0.3,0l-0.1,0.1l-0.1,0.2l0,0.2l0,0.2l0,0.2l0.1,0.5l0.2,0.3l0.2,0.2l0.2,0l0.1,0
			l0.2,0.2l0.1,0.1l0.3,0.1l0.1,0.1l0.1,0.2l0,0.1L80.2,39l0,0.1l0,0.1l0.1,0.2l0,0.1l0.1,0.5l0.1,0.2l0.4,0.2l0.4,0.3l0,0l0.1,0.1
			l0.1,0.2l0.1,0.1l0.1,0.1l0.4,0.2l0.1,0.1l0,0.2L82,41.9l-0.2,0.3l-0.3,0.4l0,0.1l0,0.4l0.1,0.3v0.2l-0.3,0.2l-0.2,0.3l-0.1,0.1
			l0,0L80.9,44l-0.1,0L80.5,44l-0.3,0.2l-0.1,0.1l-0.2,0.3l-0.1,0.1l-0.1,0l-0.2,0l-0.1,0l0,0.1l0,0.1l0.1,0.1l0,0.1l-0.3,0.1
			l-0.3-0.1l-0.3-0.2l-0.3-0.1l-0.1,0L77.9,45l-0.1,0l-0.1,0l-0.2,0l-0.1,0l-0.3,0.2l0,0L77,45.4l-0.1,0.1l0.2,0.2l0.2,0.1l0,0.1
			l0,0.1l0,0.1l0.1,0.2l0.1,0.1l0.3,0l0.2,0.2l0.1,0.4l0,0.7l0.2,0.3l0.3,0.3l0.6,0.4l0.2,0l0.5-0.1l0.2,0l0.5,0.2l0.2,0.2l0,0.1
			l0,0.1l0,0l0,0l0,0.1l0,0l0,0.2l0,0l0.1,0.3l0,0.3l0,0.1l0.3,0.5l0.1,0.2l-0.2,0l-0.3-0.1l-0.2,0l-0.2,0.1L80,51.3L80,51.5
			l0.1,0.3l-0.1,0.1l-0.3,0.6l-0.5,0.4L79,53l0,0.4l0.2,0.4l0.3,0.3l0.2,0.2l-0.3,0.2l-0.1,0.1l-0.1,0.4l0,0.1l0,0.1l0,0.1l0,0.1
			l0.2,0.2l0.1,0.1l0.1,0.3l0.1,0.1l0.1,0.1l0.2,0.1l0.1,0.1l0.1,0.1l0,0.1l0,0.1l0.1,0.1l0.1,0.1l0.1,0l0.1,0l0.1,0l0.1,0l0.5,0.3
			l0.4,0.1l1,0.6l0.2,0.1l0.2,0l0.1,0l0.1,0.1l0,0.1l0.1,0.1l0.1,0l0.4,0l1.6-0.5l0.3,0l0.4-0.2l0.3,0.1L86.5,58l0.1,0.2l0.2,0.2
			l0.1,0.2l0,0.1l0,0.2l-0.1,0.1l-0.1,0.1l-0.1,0.1l-0.1,0.2l-0.1,0.3L86.4,60l-0.2,0.2l-0.5,0.4l-0.2,0.3l-0.4,0.4L85,61.6l0,0.3
			l0.2,0.6l0.1,0l0.1,0l0.1,0.1h0.1l0.3-0.1l1.1,0l0.4-0.1l0.5-0.3l1.6-0.4l0.7-0.4l0.2-0.1l0.1-0.1l0-0.1l0-0.1l0.1-0.1l0.1-0.1
			l0.2-0.1l0.3-0.3l0.2-0.1v-0.1l-0.1-0.3l0.2-0.3l0.4-0.5l0.1-0.2L92,59l0-0.1l0-0.2l0-0.1l0.2-0.3l0.1-0.1l0.1-0.1l0.3-0.2
			l0.5-0.2l0.2-0.1l0.1-0.1l0-0.1l0-0.1l0-0.2l0,0l0.1-0.1l0,0l0-0.1l0-0.1l0.1-0.1l0-0.3l0.2-0.3l0.7-0.5l0.2-0.2l0.1,0l0.2,0
			l0.6-0.4l0.1,0l0.1,0l0.1,0l0.1,0l0.1-0.1l0.3-0.2l0.1-0.1l0.2,0l0.6,0l0.1,0.1l0.1,0l0.2,0l0.4,0l0.1,0l0.3,0.2l0.4,0.2l0.9,0.2
			l0.3,0.1l0.2,0.3l0,0.1l0.2,0.1l0.4,0.2l0-0.2l0-0.2l0.1-0.1l0.1-0.1l0.3,0.2l1,0.5l0.1,0.3l0.4,0.2l0.1,0.1l0.1,0.1l0.2,0l0.2,0
			l0.1-0.1l0,0.2l0.1,0.1l0.1,0.1l0.4,0.2l0.2,0.1l0.1,0.2l0.1,0l0.3,0.4l0.1,0l0.1,0l0.3,0l0.1,0.1l0.3,0.2l0.1,0.1l0.5,0.4
			l0.4,0.2l0.1,0.1l0.1,0.2l0.1,0l0-0.1l-0.1-0.1l0.1-0.1l0,0l0.1,0V59l-0.1,0l-0.1-0.1l-0.1-0.1l0-0.1l0,0l0,0l0,0l-0.1-0.1l0.2,0
			l0.3,0.3l0.1-0.1l0.2,0.2l0.3,0.3l0.1,0.2l0.1,0.1l0.1,0l0.1-0.1l0-0.1l0-0.1l0.1,0l0.2,0.1l0.1,0v0l0.1,0l0.3,0.2l0.2,0.1
			l0.1,0.1l0.3,0.5l0.4,0.3l0.3,0.4l0.4,0.9l0.1,0.5l0.3,3.1l0.2,1l0.1,0.2l0.3,0.1l0.1,0.2l0.6,0.8l0.7,1.5l0.1,0.3l0,0.3l0,0.5
			l0,0.3l0.1,0.2l-0.1,0.2l0,0.3v0.3l0,0.2l-0.2,0.7l-0.1,0.2l-0.2,0.2l0.2,0.6l0.2,0.2l0.3-0.1l0-0.1l0-0.1l0.4-0.1l0.5,0l0.5,0.1
			l0.6,0.3l0.1,0.1l0.1,0.1l0,0.2l0,0.1l-0.1,0.1l0,0.1l0,0.3l0,0.2l-0.1,0.2l-0.2,0.2l1.5,0.5l0.5,0.3l0.3,0.3l0.1,0l0.1,0.1
			l0.1,0.2l0,0.2l0.1,0.2l0.4,0.3l0.2,0.2l0,0.2l0.2,0.1l0.1,0.2l0.1,0.2l0.1,0.2l0.1,0l0.1-0.1l0.1,0l0.1,0.2l0.2,0.3l0,0.2l0,0.3
			l-0.1,0.3l-0.1,0.2l-0.2,0l-0.3-0.1l-0.1,0l-0.1,0.2l0,0.1l0.1,0.2l0.1,0.1l0.3,0.1l0.1,0.2l0.1,0.1l0,0l0.1,0h0.1l0.1,0l0-0.2
			l0.1-0.2l0-0.2l0.1-0.1l0.1,0l0.2,0l0.1,0l0.7,0.3l0.3,0l-0.1-0.1l0.1,0l0.1,0l0.1,0l0.1,0v0.1l0.2,0.1l0.3,0.2l0.4,0.2l0.5,0.1
			l1.1,0.9L124,82l0.5,1l0.1,0.2l0,0.2l0,0.1l0.2,0.3l0.1,0.2l0.1,0.1l0.1,0.2l0.1,0.2l0,0.2l0.1,0l0.7,0l0.2,0.1l0.2,0.1l0.2,0.1
			l0.1,0.1l0.1,0l0.3,0l0.1,0.1l0,0.2l0.1,0.1l0.1,0.1l0.9,0.7l0.2,0.3l0.2,0.4l0.1,0.2l0,0.2l0,0.3l0,0.2l0.1,0.2l0.1,0.2l0.1,0
			l0.3,0.1l0.1,0l0.1,0.1l0.2,0.1l0.1,0.1l1,0.9l0.9,1.1l0.7,1l0.1,0.1l0.1-0.1l0.1-0.1l0.2,0.1l0.6,0.4l0.1,0l0.7,0l0.2,0.1
			l0.3,0.2l0.3,0.2l0.5,0.6l0.1,0.2l0.2,0.4l0.1,0.2l0.1,0.2l0,0.2l0.1,0.2l0.2,0.1l0.2-0.1l0.2-0.3l0.3-0.1l0.3-0.2l0.2-0.1
			l0.8-0.1l0.4,0l1.4,0.7l0.2,0.2h0.1l0.1-0.1l0,0.1l0.1,0.1l0.1,0.1l0.1,0l0.3,0l-0.1-0.4l0.3-0.2l0.6-0.1l0.1,0.1l0.1,0l0.3-0.1
			l0.1,0l0.2,0.2l0.4,0.4l0.6,0.7l0.3,0.5l0.2,0.5l0,0.1l0,0.3l0,0.1l0.1,0.1l0.3,0.2l0.5,0.9l0.2,0.6l0.1,0.4l-0.1,0.5l0.1,0.1
			l0.3,0l0.1,0l0-0.2l0-0.2l0-0.1l0.1-0.1l0.1,0l0.1,0.1l0.2,0.1l0.3,0l0.2,0.2l0.2,0l0.1-0.2l0.1-0.1l0.2-0.1l0.3,0l0.2,0l0.2,0.1
			l0.3,0.4l0.2,0.2l0.1,0.1l0.1,0.1l0.1,0.1l0.1,0.1l0.2-0.1l0.2,0.1l0.1,0.2l0.1,0.2l0,0.2l-0.3,0.1l-0.4,0.4l-0.1,0.1l-0.1,0.1
			l-0.1,0l-0.2,0l-0.2,0.1l-0.1,0.2l0,0.3l0.1,0.2l0.1-0.2l0.4-0.2l0.2-0.2l0.5-0.1l0.1-0.1l0.3,0.2l0.3,0.1l0.3-0.1l0.4-0.3l0.1,0
			l0.5,0l0.1,0l0.3-0.2l0.3-0.1l0.3,0.1l0.3,0.2l0.2,0.2l0.2,0.3l0.3,0.4l0.8,1.7l0.2,0.4l0,0.3l-0.1,0.1l-0.2,0.1l-0.1,0.1
			l-0.1,0.1l-0.1,0l-0.1,0v0.1l0.1,0.2l-0.1,0.3l-0.2,0.3l0,0.2l0.1,0l0.1,0.1l0.2,0l0.1,0.1l0.1,0.1l0.3,0.1l0.2,0.2l0.1,0.2
			l0.1,0.1l0.2,0l0.3-0.1l0.2,0l0.1,0.1l0.6,0.6l0.2,0.1l0.2,0.1l0.3,0.3l0.1,0.3l-0.2,0.1v0.1l0.1,0l0.1,0l0.1,0l0.1,0l0.1,0
			l0.3,0.4l0.2,0.1l0.5,0.1l0.2-0.1l0.3-0.4l0.3-0.2l0.2-0.3l0.2-0.1l0.7,0.1l0.1-0.1l0,0.2l0.1,0.1l0.2,0.1l0,0l0.3,0.4l0.3,0.3
			l0.1,0.2l0.1,0.2l0.1,0.2l0,0.1l0.3,0.4l0.1,0.3l-0.1,0.5l0,0.1l0.1,0.1l0,0.1l0,0.2v-0.1l0.2,1.2l0.1,0.2l0.2,0.3l0.1,0.5
			l0.1,0.3l0.1,0.3l0.1,0.1l0.3,0.2l0.3,0.3l0.2,0.4l0.3,0.5l0.4,1.1l0.1,0.4l0.4,2.8l0.5,1.2l0.1,0.2l0.1,0.1l0.2,0l0.1,0.1
			l0.1,0.2l0,0.2l0,0.5l-0.1,0.5l-0.1,0.4l-0.2,0.3l-0.2,0.2l-0.2,0.1l-0.1,0l-0.7-0.1l-0.4,0l-0.3,0.2l-0.6,0.4l-0.4,0.1l-0.2,0.1
			l-0.1,0.1l0,0.1l0,0.1l0,0.1l0.1,0.1l0.1,0.1l0.1,0.1l0.1,0l0.3,0.3l0.1,0.3l0,0.4l-0.1,0.5l-0.7,1.4l-0.1,0.5l0,0.1l-0.1,0.1
			l0,0.1l-0.1,0.1l-0.9,0.3l-0.3,0.1l-0.2,0.2l0,0.4l0.1,0.3l0,0.2l-0.1,0.2l-0.1,0.2l0,0.2l0.1,0.2l0.2,0.4l-0.2,0.2l0,0.2l0.1,0.2
			l0.2,0.3l0.2,0.2l0.2,0.1l0.2,0.1l0.2,0.1l1.7-0.1l0.5,0.2l0.1-0.1l0.4-0.1l0.1-0.1l0.1-0.1l0.1-0.1l0.1-0.2l0.1-0.4l0.2-1.2
			l0.2-0.4l1.3-1.6l0.3-0.3l0.9-0.5l0.3-0.1l0.3-0.2l0.1,0l0.1-0.2l0.4-0.3l0.1-0.2l0.1-0.9l0-0.3l-0.2-0.8l-0.1-0.9l0-0.2l0,0
			l-0.1-0.1l0-0.3l0.1-0.2l0.1-0.2l0.1-0.3l0.1-0.2l0.2-0.2l0.6-0.3l0.1-0.1l0.1-0.1l0.4-0.3l1-0.5l0.9-0.2l0.2,0l0.2,0l0.1,0.1
			l0.2,0.3l0.2-0.1l0.3-0.1l0.2,0l0.1,0.2l0.1-0.2l0.1-0.1l0.1,0l0,0l0.3-0.3l0-0.1l0-0.5l0-0.1l0.1-0.1l0.2-0.1l-0.1,0l-0.3-0.1
			l-0.1-0.1l0-0.1l-0.2-0.4l0-0.4l0.2-0.7l0-0.4l0-0.1l-0.2-0.3l-0.1-0.1l0-0.2l0-0.2l0.1-0.7l0.3-0.8l-0.3,0l-0.3-0.2l-0.3-0.2
			l-0.2-0.2l-0.1-0.2l-0.1-0.1l-0.1-0.1l-0.2,0l-0.2-0.1l-0.4-0.4l-0.6-0.3l-0.1-0.1l-0.1-0.2l-0.1-0.2l-0.2-0.1l-0.1-0.1l-0.3-0.1
			l-1.2-0.1l-0.3-0.1l-0.4-0.3l-0.3-0.3l0.1-0.3V113l-0.2-0.3l-0.1-0.3l0-0.4l0.2-0.4l0.3-0.6l0.4-0.4l0.2-0.3l0.2-0.1l0.1-0.2
			l-0.2-0.4l-0.1-0.5l0-0.2l0.1-0.5l0.2-0.3l0.1-0.1l0,0l0.4-0.3l0.3-0.6l0.1-0.1l0.1-0.1l0.2-0.7l0.2-0.4l0.7-1.1v0l0.5-0.7
			l0.6-0.6l0.7-0.3l0.7,0l0.1,0l0.2,0l0.1,0l0.1,0.1l0,0.1l0,0.1l0.1,0l0.2-0.1l0.2-0.1l0.2-0.1l0.2,0.1l0,0.1l0,0l0.4-0.1l0.2,0
			l-0.1,0.2l-0.2,0.1l-0.4-0.1l-0.2,0.1l0.2,0.2l0,0.2l-0.2,0.2l-0.2,0.1l0.1,0.2l0.3,0.1l0.5,0.2l0.5,0.3l0.2,0l0.1,0l0.2,0.2
			l0.1,0l0.1,0l0.2,0l0.1,0l0.5,0.3l0.2,0l3.1,0.2l0.1,0.1l0.5,0.4v0.1h-0.1l0.1,0.1l0.1,0.2l0,0.2l0,0.2l0.1,0.2l0.1,0.2l0.2,0.2
			l0.3,0.3l0.1,0.3l-0.1,0.3l-0.3,0.2l0.1,0.1l0.2,0.1l0.1,0.1l0.1,0.2l0,0.1l-0.1,0.1l-0.1,0v0.1l0.1,0.1l0.6,0.9l0.1,0.1l0.1,0
			l0.3,0.2l0.3,0.3l0.2,0.1l0.2,0.2l0.1,0h0.4l0.2,0.1l0.4,0.4l0.1,0l0.1,0l0.2,0l0,0l0.1-0.2l0,0l0-0.1l0.1-0.6l0-0.1l-0.1-0.3
			l0-0.1l0.1-0.3l0-0.3l0-0.1l0.2-0.5l0.3-0.3l0.1-0.1l0.1-0.4l0.2-0.1l0.1-0.1L187.3,108.2L187.3,108.2z M106,54.9L106,54.9
			L106,54.9L106,54.9L106,54.9z M107.1,57.2L107.1,57.2L107.1,57.2L107.1,57.2z M107.5,57.8L107.5,57.8L107.5,57.8L107.5,57.8
			L107.5,57.8z M108.4,54.2L108.4,54.2L108.4,54.2L108.4,54.2L108.4,54.2z M108.9,58.7L108.9,58.7L108.9,58.7L108.9,58.7L108.9,58.7
			z M111.8,56.5L111.8,56.5L111.8,56.5L111.8,56.5L111.8,56.5z M113.2,57.9L113.2,57.9L113.2,57.9l0.4,0.4L113.2,57.9z M117.4,58.4
			l-0.1,0.2L117.4,58.4L117.4,58.4L117.4,58.4z M117.5,58.2L117.5,58.2L117.5,58.2L117.5,58.2L117.5,58.2z M117.8,58.3L117.8,58.3
			L117.8,58.3L117.8,58.3L117.8,58.3z M117.7,58.5L117.7,58.5L117.7,58.5l-0.1-0.1L117.7,58.5L117.7,58.5L117.7,58.5l0.2,0.1
			L117.7,58.5z M119.5,58.1L119.5,58.1L119.5,58.1L119.5,58.1L119.5,58.1z M121.5,56.9L121.5,56.9L121.5,56.9L121.5,56.9L121.5,56.9
			z M122.1,57.6l-0.3-0.4L122.1,57.6l0.1,0.1L122.1,57.6z M122.8,57.8l-0.3,0L122.8,57.8L122.8,57.8L122.8,57.8z M123.1,58.2
			L123.1,58.2L123.1,58.2L123.1,58.2z M123.1,57.7L123.1,57.7l0.1,0.1L123.1,57.7z M123.7,59.9l0-0.2L123.7,59.9L123.7,59.9
			L123.7,59.9z M123.7,60.1L123.7,60.1L123.7,60.1L123.7,60.1L123.7,60.1z M124,60.4L124,60.4L124,60.4L124,60.4L124,60.4z
			 M126.2,71.2L126.2,71.2L126.2,71.2L126.2,71.2L126.2,71.2z M126.5,74L126.5,74L126.5,74L126.5,74L126.5,74z M126.6,75.9
			L126.6,75.9L126.6,75.9L126.6,75.9z M126.6,75.6L126.6,75.6L126.6,75.6L126.6,75.6L126.6,75.6z M126.6,71.8L126.6,71.8l0.1,0.2
			L126.6,71.8L126.6,71.8z M126.7,72.3L126.7,72.3L126.7,72.3l0-0.2L126.7,72.3z M126.6,70.3L126.6,70.3L126.6,70.3l0.1,0
			L126.6,70.3z M127.3,67.4L127.3,67.4L127.3,67.4L127.3,67.4z M128.2,62.9L128.2,62.9L128.2,62.9L128.2,62.9L128.2,62.9z
			 M128.1,66.6L128.1,66.6L128.1,66.6L128.1,66.6L128.1,66.6z M127.5,67L127.5,67L127.5,67L127.5,67L127.5,67z M127.9,63L127.9,63
			L127.9,63l-0.2,0.1L127.9,63z M127.8,66L127.8,66L127.8,66l0.1-0.1l0.1,0l-0.1,0L127.8,66L127.8,66L127.8,66z M128,76.9l-0.2,0
			L128,76.9L128,76.9L128,76.9z M128.1,69.3L128.1,69.3L128.1,69.3l0.2,0L128.1,69.3z M128.3,63L128.3,63l0.2,0.1L128.3,63L128.3,63
			z M128.8,69l-0.4,0.3L128.8,69l0.1-0.1L128.8,69z M129.1,77.2L129.1,77.2L129.1,77.2l0,0.2L129.1,77.2z M129.4,62.8L129.4,62.8
			L129.4,62.8L129.4,62.8z M129.3,78.1L129.3,78.1L129.3,78.1L129.3,78.1z M129.5,63.9L129.5,63.9l-0.2,0.1L129.5,63.9L129.5,63.9
			L129.5,63.9L129.5,63.9z M129.5,78.8L129.5,78.8L129.5,78.8L129.5,78.8L129.5,78.8z M129.7,79L129.7,79L129.7,79L129.7,79z
			 M129.6,62.9L129.6,62.9L129.6,62.9l0.1,0.1L129.6,62.9z M129.8,63.3L129.8,63.3L129.8,63.3L129.8,63.3z M130.2,63.6l-0.1,0.2
			L130.2,63.6L130.2,63.6L130.2,63.6z M131.1,86.3L131.1,86.3L131.1,86.3L131.1,86.3L131.1,86.3L131.1,86.3L131.1,86.3z M131.5,60.7
			l-0.1,0.1l0,0l0,0l0,0l0,0l0,0l-0.2,0.3l-0.3,0l-0.3-0.1l-0.1-0.3l0.1-0.3l0.1-0.1l0.1-0.1l0.3-0.2l0.3,0l0.1,0.1l0,0.2
			L131.5,60.7z M131.7,80.3L131.7,80.3L131.7,80.3l0,0.1L131.7,80.3z M131.8,80.5L131.8,80.5L131.8,80.5L131.8,80.5L131.8,80.5z
			 M132,80.4L132,80.4L132,80.4l0.2-0.1L132,80.4z M132.6,79.7L132.6,79.7L132.6,79.7L132.6,79.7z M133.6,79.4L133.6,79.4
			L133.6,79.4L133.6,79.4L133.6,79.4z M137.6,80.7L137.6,80.7L137.6,80.7L137.6,80.7z M137.5,78.5L137.5,78.5L137.5,78.5L137.5,78.5
			L137.5,78.5z M137.6,79.3L137.6,79.3L137.6,79.3l-0.1,0.1L137.6,79.3z M137.1,84.8L137.1,84.8L137.1,84.8L137.1,84.8z M137.5,83.2
			l-0.3-0.1L137.5,83.2l0.2,0L137.5,83.2z M137.8,80.1L137.8,80.1L137.8,80.1L137.8,80.1L137.8,80.1z M138.1,81.2L138.1,81.2
			L138.1,81.2L138.1,81.2L138.1,81.2z M138.2,77.9L138.2,77.9L138.2,77.9L138.2,77.9L138.2,77.9z M138.6,83.4L138.6,83.4L138.6,83.4
			L138.6,83.4z M139.1,82.7L139.1,82.7L139.1,82.7L139.1,82.7L139.1,82.7z M139,83.5L139,83.5L139,83.5L139,83.5L139,83.5z
			 M139,83.2L139,83.2L139,83.2L139,83.2z M139,83.1l0.1-0.1L139,83.1L139,83.1z M139.1,85.9L139.1,85.9l0.1,0.2L139.1,85.9z
			 M139.3,76.7L139.3,76.7L139.3,76.7L139.3,76.7L139.3,76.7z M139.9,87.2L139.9,87.2L139.9,87.2L139.9,87.2L139.9,87.2z
			 M141.7,87.9l-0.2,0.1L141.7,87.9l0.1-0.1L141.7,87.9z M143.5,88.2L143.5,88.2L143.5,88.2L143.5,88.2L143.5,88.2z M144,88.4
			L144,88.4L144,88.4L144,88.4L144,88.4z M144.2,93.8L144.2,93.8L144.2,93.8L144.2,93.8L144.2,93.8z M144.3,88.5l-0.1,0L144.3,88.5
			L144.3,88.5L144.3,88.5z M145.5,90.9L145.5,90.9L145.5,90.9L145.5,90.9z M155,89.7l-0.1,0.1L155,89.7L155,89.7L155,89.7z
			 M155.4,93.4L155.4,93.4l-0.1-0.2l0-0.1l0-0.1l0,0.1l0,0.1L155.4,93.4L155.4,93.4L155.4,93.4L155.4,93.4z M155.5,92.8L155.5,92.8
			L155.5,92.8L155.5,92.8L155.5,92.8z M155.6,92.2l-0.2-0.1L155.6,92.2L155.6,92.2L155.6,92.2z M156,86.6l0,0.1L156,86.6L156,86.6z
			 M156,86.5L156,86.5l0-0.1L156,86.5z M157.1,94.9L157.1,94.9L157.1,94.9L157.1,94.9L157.1,94.9z M157.2,94.6L157.2,94.6
			L157.2,94.6L157.2,94.6L157.2,94.6z M158.4,96.2L158.4,96.2L158.4,96.2L158.4,96.2L158.4,96.2z M162.8,95.9L162.8,95.9L162.8,95.9
			l0.1,0.1L162.8,95.9z M165,98.6l-0.1-0.1L165,98.6L165,98.6L165,98.6z M165.2,98.5L165.2,98.5L165.2,98.5L165.2,98.5L165.2,98.5z
			 M171.7,104.5L171.7,104.5L171.7,104.5L171.7,104.5L171.7,104.5z"/>
	</g>
	<g>
		<g>
			<path class="st1" d="M189.6,26.3c-12.6-4.2-36-8.5-57.4,4.8"/>
			<g>
				<path class="st2" d="M132.2,31.1c0.2,0.1,0.5,0.3,0.6,0.5c-0.3-0.1-0.7-0.2-1.1-0.1c0.2-0.3,0.3-0.7,0.4-1.1
					C132.2,30.6,132.3,30.8,132.2,31.1z"/>
			</g>
		</g>
	</g>
	<g>
		<g>
			<path class="st3" d="M189.6,79c-12.2-2.4-21.6,1.8-32.6,10"/>
			<g>
				<path class="st2" d="M157.2,88.8c1.1,0.2,2.3,1.2,2.9,2c-1.7-0.5-3.5-0.7-5.3-0.3c0.9-1.5,1.2-3.4,1.3-5.1
					C156.7,86.4,157.3,87.7,157.2,88.8z"/>
			</g>
		</g>
	</g>
	<g>
		<g>
			<path class="st4" d="M189.6,109.1c-7.7-1.6-14.6,0.6-21.7,6.6"/>
			<g>
				<path class="st2" d="M167.9,115.7c0.2,0,0.5,0.2,0.7,0.4c-0.4-0.1-0.8-0.1-1.1,0c0.2-0.3,0.2-0.7,0.2-1.1
					C167.8,115.2,167.9,115.4,167.9,115.7z"/>
			</g>
		</g>
	</g>
	<g>
		<path class="st5" d="M200.6,24.7c-0.9,0-1.6-0.3-2.2-0.9s-0.9-1.3-0.9-2.2s0.3-1.7,0.9-2.2c0.6-0.6,1.3-0.9,2.2-0.9
			c0.9,0,1.7,0.4,2.3,1.1l-0.6,0.4c-0.2-0.3-0.4-0.5-0.8-0.6c-0.3-0.1-0.6-0.2-1-0.2c-0.7,0-1.2,0.2-1.7,0.7c-0.4,0.5-0.7,1-0.7,1.8
			s0.2,1.3,0.7,1.8c0.4,0.5,1,0.7,1.7,0.7c0.3,0,0.6-0.1,0.9-0.2c0.3-0.1,0.5-0.3,0.7-0.5v-1.2h-2.1v-0.7h2.8v2.2
			C202.3,24.4,201.5,24.7,200.6,24.7z"/>
		<path class="st5" d="M207.7,24.6h-0.7v-2.9c0-0.4-0.1-0.6-0.3-0.8c-0.2-0.1-0.4-0.2-0.7-0.2c-0.2,0-0.5,0.1-0.7,0.2
			c-0.2,0.1-0.4,0.3-0.6,0.5v3.2h-0.7v-6h0.7v2.3c0.2-0.2,0.4-0.4,0.7-0.5s0.6-0.2,0.9-0.2c0.9,0,1.4,0.5,1.4,1.4V24.6z"/>
		<path class="st5" d="M212.5,24.6h-0.7v-0.5c-0.4,0.4-0.8,0.6-1.4,0.6c-0.4,0-0.8-0.1-1.1-0.4c-0.3-0.3-0.5-0.6-0.5-1.1
			c0-0.5,0.2-0.8,0.5-1.1c0.3-0.2,0.7-0.4,1.1-0.4c0.6,0,1.1,0.2,1.4,0.6v-0.8c0-0.3-0.1-0.5-0.3-0.7c-0.2-0.2-0.5-0.2-0.8-0.2
			c-0.5,0-1,0.2-1.3,0.6l-0.3-0.5c0.5-0.5,1-0.7,1.7-0.7c0.5,0,0.9,0.1,1.2,0.4c0.3,0.2,0.5,0.6,0.5,1.1V24.6z M210.6,24.2
			c0.5,0,0.9-0.2,1.2-0.5v-0.8c-0.3-0.4-0.7-0.5-1.2-0.5c-0.3,0-0.6,0.1-0.8,0.3c-0.2,0.2-0.3,0.4-0.3,0.7c0,0.3,0.1,0.5,0.3,0.7
			C210,24.1,210.3,24.2,210.6,24.2z"/>
		<path class="st5" d="M217.4,24.6h-0.7v-2.8c0-0.4-0.1-0.6-0.3-0.8s-0.4-0.2-0.7-0.2c-0.3,0-0.5,0.1-0.7,0.2
			c-0.2,0.1-0.4,0.3-0.6,0.5v3.2h-0.7v-4.3h0.7v0.6c0.2-0.2,0.4-0.4,0.7-0.5s0.6-0.2,0.9-0.2c0.9,0,1.4,0.5,1.4,1.4V24.6z"/>
		<path class="st5" d="M222.2,24.6h-0.7v-0.5c-0.4,0.4-0.8,0.6-1.4,0.6c-0.4,0-0.8-0.1-1.1-0.4c-0.3-0.3-0.5-0.6-0.5-1.1
			c0-0.5,0.2-0.8,0.5-1.1c0.3-0.2,0.7-0.4,1.1-0.4c0.6,0,1.1,0.2,1.4,0.6v-0.8c0-0.3-0.1-0.5-0.3-0.7c-0.2-0.2-0.5-0.2-0.8-0.2
			c-0.5,0-1,0.2-1.3,0.6l-0.3-0.5c0.5-0.5,1-0.7,1.7-0.7c0.5,0,0.9,0.1,1.2,0.4c0.3,0.2,0.5,0.6,0.5,1.1V24.6z M220.3,24.2
			c0.5,0,0.9-0.2,1.2-0.5v-0.8c-0.3-0.4-0.7-0.5-1.2-0.5c-0.3,0-0.6,0.1-0.8,0.3c-0.2,0.2-0.3,0.4-0.3,0.7c0,0.3,0.1,0.5,0.3,0.7
			C219.7,24.1,220,24.2,220.3,24.2z"/>
	</g>
	<g>
		<path class="st5" d="M202,51.5c-0.4,0.4-1,0.7-1.8,0.7s-1.4-0.2-1.8-0.7s-0.6-1-0.6-1.8V46h0.7v3.7c0,0.6,0.1,1,0.4,1.3
			c0.3,0.3,0.7,0.5,1.3,0.5s1-0.2,1.3-0.5c0.3-0.3,0.4-0.8,0.4-1.3V46h0.7v3.7C202.6,50.4,202.4,51,202,51.5z"/>
		<path class="st5" d="M207.8,52H207l-1.6-2l-0.7,0.7V52H204v-6h0.7v4l2.3-2.3h0.9l-1.9,2L207.8,52z"/>
		<path class="st5" d="M209.3,52h-0.7v-4.3h0.7v0.7c0.4-0.5,0.9-0.8,1.4-0.8v0.7c-0.1,0-0.2,0-0.3,0c-0.2,0-0.4,0.1-0.7,0.2
			c-0.2,0.1-0.4,0.3-0.5,0.5V52z"/>
		<path class="st5" d="M215,52h-0.7v-0.5c-0.4,0.4-0.8,0.6-1.4,0.6c-0.4,0-0.8-0.1-1.1-0.4c-0.3-0.3-0.5-0.6-0.5-1.1
			c0-0.5,0.2-0.8,0.5-1.1c0.3-0.2,0.7-0.4,1.1-0.4c0.6,0,1.1,0.2,1.4,0.6v-0.8c0-0.3-0.1-0.5-0.3-0.7c-0.2-0.2-0.5-0.2-0.8-0.2
			c-0.5,0-1,0.2-1.3,0.6l-0.3-0.5c0.5-0.5,1-0.7,1.7-0.7c0.5,0,0.9,0.1,1.2,0.4c0.3,0.2,0.5,0.6,0.5,1.1V52z M213.1,51.6
			c0.5,0,0.9-0.2,1.2-0.5v-0.8c-0.3-0.4-0.7-0.5-1.2-0.5c-0.3,0-0.6,0.1-0.8,0.3c-0.2,0.2-0.3,0.4-0.3,0.7c0,0.3,0.1,0.5,0.3,0.7
			C212.5,51.5,212.8,51.6,213.1,51.6z"/>
		<path class="st5" d="M216.7,47c-0.1,0-0.2,0-0.3-0.1c-0.1-0.1-0.1-0.2-0.1-0.3s0-0.2,0.1-0.3c0.1-0.1,0.2-0.1,0.3-0.1
			c0.1,0,0.2,0,0.3,0.1c0.1,0.1,0.1,0.2,0.1,0.3s0,0.2-0.1,0.3C216.9,47,216.8,47,216.7,47z M217,52h-0.7v-4.3h0.7V52z"/>
		<path class="st5" d="M222,52h-0.7v-2.8c0-0.4-0.1-0.6-0.3-0.8s-0.4-0.2-0.7-0.2c-0.3,0-0.5,0.1-0.7,0.2c-0.2,0.1-0.4,0.3-0.6,0.5
			V52h-0.7v-4.3h0.7v0.6c0.2-0.2,0.4-0.4,0.7-0.5c0.3-0.1,0.6-0.2,0.9-0.2c0.9,0,1.4,0.5,1.4,1.4V52z"/>
		<path class="st5" d="M225.3,52.1c-0.6,0-1.2-0.2-1.6-0.6c-0.4-0.4-0.6-1-0.6-1.7c0-0.6,0.2-1.2,0.6-1.6c0.4-0.4,0.9-0.7,1.5-0.7
			c0.6,0,1.2,0.2,1.5,0.7s0.6,1,0.6,1.7v0.2h-3.5c0,0.4,0.2,0.8,0.5,1.1c0.3,0.3,0.6,0.4,1.1,0.4c0.5,0,1-0.2,1.3-0.5l0.3,0.4
			C226.6,51.9,226,52.1,225.3,52.1z M226.6,49.6c0-0.4-0.1-0.7-0.4-1c-0.2-0.3-0.6-0.4-1.1-0.4c-0.4,0-0.8,0.1-1,0.4
			c-0.2,0.3-0.4,0.6-0.4,1H226.6z"/>
	</g>
	<g>
		<path class="st5" d="M200.6,78.8c-0.9,0-1.6-0.3-2.2-0.9s-0.9-1.3-0.9-2.2s0.3-1.7,0.9-2.2c0.6-0.6,1.3-0.9,2.2-0.9
			c0.9,0,1.7,0.4,2.3,1.1l-0.6,0.4c-0.2-0.3-0.4-0.5-0.8-0.6c-0.3-0.1-0.6-0.2-1-0.2c-0.7,0-1.2,0.2-1.7,0.7c-0.4,0.5-0.7,1-0.7,1.8
			s0.2,1.3,0.7,1.8c0.4,0.5,1,0.7,1.7,0.7c0.3,0,0.6-0.1,0.9-0.2c0.3-0.1,0.5-0.3,0.7-0.5v-1.2h-2.1v-0.7h2.8v2.2
			C202.3,78.5,201.5,78.8,200.6,78.8z"/>
		<path class="st5" d="M207.5,78.7h-0.7v-0.5c-0.4,0.4-0.8,0.6-1.4,0.6c-0.4,0-0.8-0.1-1.1-0.4c-0.3-0.3-0.5-0.6-0.5-1.1
			c0-0.5,0.2-0.8,0.5-1.1c0.3-0.2,0.7-0.4,1.1-0.4c0.6,0,1.1,0.2,1.4,0.6v-0.8c0-0.3-0.1-0.5-0.3-0.7c-0.2-0.2-0.5-0.2-0.8-0.2
			c-0.5,0-1,0.2-1.3,0.6l-0.3-0.5c0.5-0.5,1-0.7,1.7-0.7c0.5,0,0.9,0.1,1.2,0.4c0.3,0.2,0.5,0.6,0.5,1.1V78.7z M205.6,78.3
			c0.5,0,0.9-0.2,1.2-0.5V77c-0.3-0.4-0.7-0.5-1.2-0.5c-0.3,0-0.6,0.1-0.8,0.3c-0.2,0.2-0.3,0.4-0.3,0.7c0,0.3,0.1,0.5,0.3,0.7
			C205.1,78.3,205.3,78.3,205.6,78.3z"/>
		<path class="st5" d="M214.8,78.7h-0.7v-3c0-0.6-0.3-0.9-0.8-0.9c-0.2,0-0.4,0.1-0.6,0.2c-0.2,0.1-0.4,0.3-0.5,0.5v3.2h-0.7v-3
			c0-0.6-0.3-0.9-0.8-0.9c-0.2,0-0.4,0.1-0.6,0.2c-0.2,0.1-0.4,0.3-0.5,0.5v3.2h-0.7v-4.3h0.7V75c0.1-0.2,0.3-0.3,0.6-0.5
			c0.3-0.2,0.5-0.2,0.8-0.2c0.3,0,0.6,0.1,0.8,0.2c0.2,0.1,0.3,0.3,0.4,0.6c0.1-0.2,0.3-0.4,0.6-0.6s0.6-0.2,0.9-0.2
			c0.8,0,1.2,0.4,1.2,1.3V78.7z"/>
		<path class="st5" d="M216.8,78.7h-0.7v-6h0.7V75c0.4-0.5,0.9-0.8,1.5-0.8c0.6,0,1,0.2,1.4,0.6s0.5,1,0.5,1.7
			c0,0.7-0.2,1.2-0.5,1.7c-0.4,0.4-0.8,0.6-1.4,0.6c-0.6,0-1.1-0.3-1.5-0.8V78.7z M216.8,77.5c0.1,0.2,0.3,0.4,0.5,0.5
			s0.5,0.2,0.8,0.2c0.4,0,0.8-0.2,1-0.5s0.4-0.7,0.4-1.2s-0.1-0.9-0.4-1.2s-0.6-0.5-1-0.5c-0.3,0-0.5,0.1-0.8,0.2
			c-0.2,0.1-0.4,0.3-0.5,0.5V77.5z"/>
		<path class="st5" d="M221.6,73.8c-0.1,0-0.2,0-0.3-0.1c-0.1-0.1-0.1-0.2-0.1-0.3s0-0.2,0.1-0.3c0.1-0.1,0.2-0.1,0.3-0.1
			c0.1,0,0.2,0,0.3,0.1c0.1,0.1,0.1,0.2,0.1,0.3s0,0.2-0.1,0.3C221.9,73.7,221.8,73.8,221.6,73.8z M222,78.7h-0.7v-4.3h0.7V78.7z"/>
		<path class="st5" d="M226.7,78.7H226v-0.5c-0.4,0.4-0.8,0.6-1.4,0.6c-0.4,0-0.8-0.1-1.1-0.4c-0.3-0.3-0.5-0.6-0.5-1.1
			c0-0.5,0.2-0.8,0.5-1.1c0.3-0.2,0.7-0.4,1.1-0.4c0.6,0,1.1,0.2,1.4,0.6v-0.8c0-0.3-0.1-0.5-0.3-0.7c-0.2-0.2-0.5-0.2-0.8-0.2
			c-0.5,0-1,0.2-1.3,0.6l-0.3-0.5c0.5-0.5,1-0.7,1.7-0.7c0.5,0,0.9,0.1,1.2,0.4c0.3,0.2,0.5,0.6,0.5,1.1V78.7z M224.9,78.3
			c0.5,0,0.9-0.2,1.2-0.5V77c-0.3-0.4-0.7-0.5-1.2-0.5c-0.3,0-0.6,0.1-0.8,0.3c-0.2,0.2-0.3,0.4-0.3,0.7c0,0.3,0.1,0.5,0.3,0.7
			C224.3,78.3,224.5,78.3,224.9,78.3z"/>
	</g>
	<g>
		<path class="st5" d="M200.6,105.7c-0.9,0-1.6-0.3-2.2-0.9c-0.6-0.6-0.9-1.3-0.9-2.2s0.3-1.7,0.9-2.2c0.6-0.6,1.3-0.9,2.2-0.9
			c1,0,1.7,0.4,2.3,1.2l-0.6,0.4c-0.2-0.3-0.4-0.5-0.7-0.6s-0.6-0.2-0.9-0.2c-0.7,0-1.2,0.2-1.7,0.7c-0.4,0.5-0.7,1-0.7,1.8
			s0.2,1.3,0.7,1.8c0.4,0.5,1,0.7,1.7,0.7c0.3,0,0.7-0.1,0.9-0.2c0.3-0.2,0.5-0.4,0.7-0.6l0.6,0.4
			C202.3,105.3,201.5,105.7,200.6,105.7z"/>
		<path class="st5" d="M207.2,105.1c-0.4,0.4-0.9,0.7-1.6,0.7c-0.6,0-1.2-0.2-1.6-0.7s-0.6-1-0.6-1.6c0-0.6,0.2-1.2,0.6-1.6
			c0.4-0.4,0.9-0.7,1.6-0.7c0.6,0,1.2,0.2,1.6,0.7c0.4,0.4,0.6,1,0.6,1.6C207.8,104.1,207.6,104.6,207.2,105.1z M204.6,104.6
			c0.3,0.3,0.6,0.5,1.1,0.5c0.4,0,0.8-0.2,1.1-0.5s0.4-0.7,0.4-1.2c0-0.5-0.1-0.9-0.4-1.2c-0.3-0.3-0.6-0.5-1.1-0.5
			c-0.4,0-0.8,0.2-1.1,0.5c-0.3,0.3-0.4,0.7-0.4,1.2C204.2,103.9,204.4,104.3,204.6,104.6z M206.9,100.6h-0.5l-0.7-1l-0.7,1h-0.5
			l0.9-1.3h0.6L206.9,100.6z"/>
		<path class="st5" d="M210,105.7c-0.3,0-0.6-0.1-0.7-0.3c-0.2-0.2-0.2-0.4-0.2-0.8v-2.8h-0.7v-0.6h0.7v-1.2h0.7v1.2h0.9v0.6h-0.9
			v2.7c0,0.2,0,0.3,0.1,0.4s0.2,0.2,0.3,0.2c0.2,0,0.4-0.1,0.5-0.2l0.2,0.5C210.6,105.6,210.4,105.7,210,105.7z"/>
		<path class="st5" d="M213.5,105.7c-0.6,0-1.2-0.2-1.6-0.6c-0.4-0.4-0.6-1-0.6-1.7c0-0.6,0.2-1.2,0.6-1.6s0.9-0.7,1.5-0.7
			c0.6,0,1.2,0.2,1.5,0.7s0.6,1,0.6,1.7v0.2H212c0,0.4,0.2,0.8,0.5,1.1c0.3,0.3,0.6,0.4,1.1,0.4c0.5,0,1-0.2,1.3-0.5l0.3,0.4
			C214.8,105.5,214.2,105.7,213.5,105.7z M214.9,103.2c0-0.4-0.1-0.7-0.4-1c-0.2-0.3-0.6-0.4-1.1-0.4c-0.4,0-0.8,0.1-1,0.4
			c-0.2,0.3-0.4,0.6-0.4,1H214.9z"/>
		<path class="st5" d="M222.8,105.6h-0.7V105c-0.4,0.5-0.9,0.8-1.5,0.8c-0.6,0-1-0.2-1.4-0.6c-0.4-0.4-0.5-1-0.5-1.7
			c0-0.7,0.2-1.2,0.5-1.7s0.8-0.6,1.4-0.6c0.6,0,1.1,0.3,1.5,0.8v-2.3h0.7V105.6z M220.8,105.1c0.3,0,0.5-0.1,0.8-0.2
			c0.2-0.1,0.4-0.3,0.5-0.5v-2c-0.1-0.2-0.3-0.4-0.6-0.5c-0.2-0.1-0.5-0.2-0.8-0.2c-0.4,0-0.8,0.2-1,0.5s-0.4,0.7-0.4,1.2
			s0.1,0.9,0.4,1.2S220.4,105.1,220.8,105.1z"/>
		<path class="st5" d="M224.5,101.9h-0.3c-0.2-1.2-0.2-1.9-0.2-2c0-0.1,0-0.2,0.1-0.3c0.1-0.1,0.2-0.1,0.3-0.1c0.1,0,0.2,0,0.3,0.1
			c0.1,0.1,0.1,0.2,0.1,0.3L224.5,101.9z"/>
		<path class="st5" d="M226.7,105.6H226v-6h0.7V105.6z"/>
		<path class="st5" d="M230,105.6h-0.7l-1.8-4.3h0.7l1.4,3.6l1.4-3.6h0.7L230,105.6z"/>
		<path class="st5" d="M236,105.1c-0.4,0.4-0.9,0.7-1.6,0.7s-1.2-0.2-1.6-0.7c-0.4-0.4-0.6-1-0.6-1.6c0-0.6,0.2-1.2,0.6-1.6
			c0.4-0.4,0.9-0.7,1.6-0.7s1.2,0.2,1.6,0.7c0.4,0.4,0.6,1,0.6,1.6C236.5,104.1,236.3,104.6,236,105.1z M233.3,104.6
			c0.3,0.3,0.6,0.5,1.1,0.5c0.4,0,0.8-0.2,1.1-0.5s0.4-0.7,0.4-1.2c0-0.5-0.1-0.9-0.4-1.2c-0.3-0.3-0.6-0.5-1.1-0.5
			c-0.4,0-0.8,0.2-1.1,0.5s-0.4,0.7-0.4,1.2C232.9,103.9,233.1,104.3,233.3,104.6z"/>
		<path class="st5" d="M238,100.7c-0.1,0-0.2,0-0.3-0.1c-0.1-0.1-0.1-0.2-0.1-0.3s0-0.2,0.1-0.3c0.1-0.1,0.2-0.1,0.3-0.1
			c0.1,0,0.2,0,0.3,0.1c0.1,0.1,0.1,0.2,0.1,0.3s0,0.2-0.1,0.3C238.2,100.6,238.1,100.7,238,100.7z M238.3,105.6h-0.7v-4.3h0.7
			V105.6z"/>
		<path class="st5" d="M240.3,105.6h-0.7v-4.3h0.7v0.7c0.4-0.5,0.9-0.8,1.4-0.8v0.7c-0.1,0-0.2,0-0.3,0c-0.2,0-0.4,0.1-0.7,0.2
			c-0.2,0.1-0.4,0.3-0.5,0.5V105.6z"/>
		<path class="st5" d="M244.6,105.7c-0.6,0-1.2-0.2-1.6-0.6c-0.4-0.4-0.6-1-0.6-1.7c0-0.6,0.2-1.2,0.6-1.6s0.9-0.7,1.5-0.7
			c0.6,0,1.2,0.2,1.5,0.7s0.6,1,0.6,1.7v0.2h-3.5c0,0.4,0.2,0.8,0.5,1.1c0.3,0.3,0.6,0.4,1.1,0.4c0.5,0,1-0.2,1.3-0.5l0.3,0.4
			C245.9,105.5,245.3,105.7,244.6,105.7z M245.9,103.2c0-0.4-0.1-0.7-0.4-1c-0.2-0.3-0.6-0.4-1.1-0.4c-0.4,0-0.8,0.1-1,0.4
			c-0.2,0.3-0.4,0.6-0.4,1H245.9z"/>
	</g>
	<g>
		<path class="st5" d="M17,22.7h-2.7v-6H17c0.5,0,0.9,0.1,1.2,0.4c0.3,0.3,0.5,0.7,0.5,1.1c0,0.4-0.1,0.7-0.3,0.9
			c-0.2,0.2-0.5,0.4-0.7,0.5c0.3,0,0.6,0.2,0.8,0.5c0.2,0.3,0.3,0.6,0.3,1c0,0.5-0.2,0.9-0.5,1.2C18,22.5,17.6,22.7,17,22.7z
			 M16.8,19.3c0.3,0,0.6-0.1,0.8-0.3c0.2-0.2,0.3-0.4,0.3-0.7c0-0.3-0.1-0.5-0.3-0.7s-0.4-0.3-0.8-0.3H15v1.9H16.8z M16.9,22
			c0.3,0,0.6-0.1,0.8-0.3c0.2-0.2,0.3-0.4,0.3-0.8c0-0.3-0.1-0.5-0.3-0.7c-0.2-0.2-0.5-0.3-0.8-0.3H15V22H16.9z"/>
		<path class="st5" d="M23.3,22.7h-0.7v-0.5c-0.4,0.4-0.8,0.6-1.4,0.6c-0.4,0-0.8-0.1-1.1-0.4c-0.3-0.3-0.5-0.6-0.5-1.1
			c0-0.5,0.2-0.8,0.5-1.1c0.3-0.2,0.7-0.4,1.1-0.4c0.6,0,1.1,0.2,1.4,0.6v-0.8c0-0.3-0.1-0.5-0.3-0.7c-0.2-0.2-0.5-0.2-0.8-0.2
			c-0.5,0-1,0.2-1.3,0.6l-0.3-0.5c0.5-0.5,1-0.7,1.7-0.7c0.5,0,0.9,0.1,1.2,0.4c0.3,0.2,0.5,0.6,0.5,1.1V22.7z M21.4,22.3
			c0.5,0,0.9-0.2,1.2-0.5v-0.8c-0.3-0.4-0.7-0.5-1.2-0.5c-0.3,0-0.6,0.1-0.8,0.3c-0.2,0.2-0.3,0.4-0.3,0.7c0,0.3,0.1,0.5,0.3,0.7
			C20.9,22.2,21.1,22.3,21.4,22.3z"/>
		<path class="st5" d="M28.3,22.7h-0.7v-2.8c0-0.4-0.1-0.6-0.3-0.8s-0.4-0.2-0.7-0.2c-0.3,0-0.5,0.1-0.7,0.2
			c-0.2,0.1-0.4,0.3-0.6,0.5v3.2h-0.7v-4.3h0.7V19c0.2-0.2,0.4-0.4,0.7-0.5s0.6-0.2,0.9-0.2c0.9,0,1.4,0.5,1.4,1.4V22.7z"/>
		<path class="st5" d="M31.4,24.4c-0.4,0-0.7,0-1-0.1c-0.3-0.1-0.5-0.3-0.8-0.5l0.3-0.5c0.3,0.4,0.8,0.6,1.4,0.6
			c0.4,0,0.7-0.1,1-0.3c0.3-0.2,0.4-0.5,0.4-1V22c-0.2,0.2-0.4,0.4-0.6,0.6s-0.5,0.2-0.8,0.2c-0.6,0-1-0.2-1.4-0.6
			c-0.4-0.4-0.5-1-0.5-1.6s0.2-1.2,0.5-1.6c0.4-0.4,0.8-0.6,1.4-0.6c0.6,0,1.1,0.3,1.5,0.8v-0.7h0.7v4.2c0,0.7-0.2,1.1-0.6,1.4
			C32.5,24.3,32,24.4,31.4,24.4z M31.5,22.1c0.3,0,0.5-0.1,0.8-0.2c0.2-0.1,0.4-0.3,0.5-0.5v-1.9c-0.1-0.2-0.3-0.4-0.5-0.5
			c-0.2-0.1-0.5-0.2-0.8-0.2c-0.4,0-0.8,0.2-1,0.5s-0.4,0.7-0.4,1.2c0,0.5,0.1,0.9,0.4,1.2S31,22.1,31.5,22.1z"/>
		<path class="st5" d="M35.5,22.7h-0.7v-6h0.7V22.7z"/>
		<path class="st5" d="M40.2,22.7h-0.7v-0.5c-0.4,0.4-0.8,0.6-1.4,0.6c-0.4,0-0.8-0.1-1.1-0.4c-0.3-0.3-0.5-0.6-0.5-1.1
			c0-0.5,0.2-0.8,0.5-1.1c0.3-0.2,0.7-0.4,1.1-0.4c0.6,0,1.1,0.2,1.4,0.6v-0.8c0-0.3-0.1-0.5-0.3-0.7s-0.5-0.2-0.8-0.2
			c-0.5,0-1,0.2-1.3,0.6l-0.3-0.5c0.5-0.5,1-0.7,1.7-0.7c0.5,0,0.9,0.1,1.2,0.4c0.3,0.2,0.5,0.6,0.5,1.1V22.7z M38.3,22.3
			c0.5,0,0.9-0.2,1.2-0.5v-0.8c-0.3-0.4-0.7-0.5-1.2-0.5c-0.3,0-0.6,0.1-0.8,0.3c-0.2,0.2-0.3,0.4-0.3,0.7c0,0.3,0.1,0.5,0.3,0.7
			C37.8,22.2,38,22.3,38.3,22.3z"/>
		<path class="st5" d="M45.4,22.7h-0.7V22c-0.4,0.5-0.9,0.8-1.5,0.8c-0.6,0-1-0.2-1.4-0.6c-0.4-0.4-0.5-1-0.5-1.7
			c0-0.7,0.2-1.2,0.5-1.7c0.4-0.4,0.8-0.6,1.4-0.6c0.6,0,1.1,0.3,1.5,0.8v-2.3h0.7V22.7z M43.4,22.2c0.3,0,0.5-0.1,0.8-0.2
			c0.2-0.1,0.4-0.3,0.5-0.5v-2c-0.1-0.2-0.3-0.4-0.6-0.5c-0.2-0.1-0.5-0.2-0.8-0.2c-0.4,0-0.8,0.2-1,0.5S42,20,42,20.5
			s0.1,0.9,0.4,1.2S43,22.2,43.4,22.2z"/>
		<path class="st5" d="M48.7,22.8c-0.6,0-1.2-0.2-1.6-0.6c-0.4-0.4-0.6-1-0.6-1.7c0-0.6,0.2-1.2,0.6-1.6c0.4-0.4,0.9-0.7,1.5-0.7
			c0.6,0,1.2,0.2,1.5,0.7s0.6,1,0.6,1.7v0.2h-3.5c0,0.4,0.2,0.8,0.5,1.1c0.3,0.3,0.6,0.4,1.1,0.4c0.5,0,1-0.2,1.3-0.5l0.3,0.4
			C50,22.6,49.4,22.8,48.7,22.8z M50,20.2c0-0.4-0.1-0.7-0.4-1c-0.2-0.3-0.6-0.4-1.1-0.4c-0.4,0-0.8,0.1-1,0.4
			c-0.2,0.3-0.4,0.6-0.4,1H50z"/>
		<path class="st5" d="M53.2,22.8c-0.7,0-1.3-0.2-1.8-0.7l0.4-0.5c0.1,0.2,0.4,0.3,0.6,0.4c0.3,0.1,0.5,0.2,0.8,0.2
			c0.3,0,0.6-0.1,0.8-0.2c0.2-0.1,0.3-0.3,0.3-0.5c0-0.2-0.1-0.3-0.3-0.5c-0.2-0.1-0.4-0.2-0.7-0.3c-0.3-0.1-0.5-0.1-0.8-0.2
			c-0.3-0.1-0.5-0.2-0.7-0.4s-0.3-0.4-0.3-0.7c0-0.4,0.1-0.7,0.4-0.9c0.3-0.2,0.7-0.4,1.2-0.4c0.7,0,1.2,0.2,1.6,0.6l-0.3,0.5
			c-0.3-0.4-0.7-0.5-1.3-0.5c-0.3,0-0.5,0.1-0.7,0.2c-0.2,0.1-0.3,0.3-0.3,0.5c0,0.2,0.1,0.3,0.3,0.4s0.4,0.2,0.7,0.2
			c0.3,0.1,0.5,0.1,0.8,0.2c0.3,0.1,0.5,0.2,0.7,0.4c0.2,0.2,0.3,0.4,0.3,0.8c0,0.4-0.2,0.7-0.5,0.9C54.1,22.7,53.7,22.8,53.2,22.8z
			"/>
		<path class="st5" d="M59.6,22.7h-0.7v-2.9c0-0.4-0.1-0.6-0.3-0.8s-0.4-0.2-0.7-0.2c-0.2,0-0.5,0.1-0.7,0.2
			c-0.2,0.1-0.4,0.3-0.6,0.5v3.2H56v-6h0.7V19c0.2-0.2,0.4-0.4,0.7-0.5c0.3-0.1,0.6-0.2,0.9-0.2c0.9,0,1.4,0.5,1.4,1.4V22.7z"/>
	</g>
	<g>
		<path class="st5" d="M28.7,134.1h-0.7v-6h2.4c0.6,0,1,0.2,1.4,0.5s0.5,0.8,0.5,1.3c0,0.5-0.2,0.9-0.5,1.3
			c-0.3,0.3-0.8,0.5-1.4,0.5h-1.7V134.1z M30.3,131.1c0.4,0,0.6-0.1,0.9-0.3c0.2-0.2,0.3-0.5,0.3-0.8s-0.1-0.6-0.3-0.8
			c-0.2-0.2-0.5-0.3-0.9-0.3h-1.6v2.3H30.3z"/>
		<path class="st5" d="M36.4,134.1h-0.7v-0.5c-0.4,0.4-0.8,0.6-1.4,0.6c-0.4,0-0.8-0.1-1.1-0.4c-0.3-0.3-0.5-0.6-0.5-1.1
			c0-0.5,0.2-0.8,0.5-1.1c0.3-0.2,0.7-0.4,1.1-0.4c0.6,0,1.1,0.2,1.4,0.6v-0.8c0-0.3-0.1-0.5-0.3-0.7c-0.2-0.2-0.5-0.2-0.8-0.2
			c-0.5,0-1,0.2-1.3,0.6l-0.3-0.5c0.5-0.5,1-0.7,1.7-0.7c0.5,0,0.9,0.1,1.2,0.4c0.3,0.2,0.5,0.6,0.5,1.1V134.1z M34.5,133.7
			c0.5,0,0.9-0.2,1.2-0.5v-0.8c-0.3-0.4-0.7-0.5-1.2-0.5c-0.3,0-0.6,0.1-0.8,0.3c-0.2,0.2-0.3,0.4-0.3,0.7c0,0.3,0.1,0.5,0.3,0.7
			C34,133.6,34.2,133.7,34.5,133.7z"/>
		<path class="st5" d="M41.6,134.1h-0.9l-1.6-2l-0.7,0.7v1.2h-0.7v-6h0.7v4l2.3-2.3h0.9l-1.9,2L41.6,134.1z"/>
		<path class="st5" d="M42.7,129.1c-0.1,0-0.2,0-0.3-0.1c-0.1-0.1-0.1-0.2-0.1-0.3s0-0.2,0.1-0.3c0.1-0.1,0.2-0.1,0.3-0.1
			c0.1,0,0.2,0,0.3,0.1c0.1,0.1,0.1,0.2,0.1,0.3s0,0.2-0.1,0.3C43,129.1,42.8,129.1,42.7,129.1z M43.1,134.1h-0.7v-4.3h0.7V134.1z"
			/>
		<path class="st5" d="M45.8,134.2c-0.7,0-1.3-0.2-1.8-0.7l0.4-0.5c0.1,0.2,0.4,0.3,0.6,0.4c0.3,0.1,0.5,0.2,0.8,0.2
			c0.3,0,0.6-0.1,0.8-0.2s0.3-0.3,0.3-0.5c0-0.2-0.1-0.3-0.3-0.5c-0.2-0.1-0.4-0.2-0.7-0.3s-0.5-0.1-0.8-0.2
			c-0.3-0.1-0.5-0.2-0.7-0.4c-0.2-0.2-0.3-0.4-0.3-0.7c0-0.4,0.1-0.7,0.4-0.9c0.3-0.2,0.7-0.4,1.2-0.4c0.7,0,1.2,0.2,1.6,0.6
			l-0.3,0.5c-0.3-0.4-0.7-0.5-1.3-0.5c-0.3,0-0.5,0.1-0.7,0.2s-0.3,0.3-0.3,0.5c0,0.2,0.1,0.3,0.3,0.4c0.2,0.1,0.4,0.2,0.7,0.2
			c0.3,0.1,0.5,0.1,0.8,0.2c0.3,0.1,0.5,0.2,0.7,0.4c0.2,0.2,0.3,0.4,0.3,0.8c0,0.4-0.2,0.7-0.4,0.9
			C46.8,134.1,46.3,134.2,45.8,134.2z"/>
		<path class="st5" d="M49.7,134.2c-0.3,0-0.6-0.1-0.7-0.3c-0.2-0.2-0.2-0.4-0.2-0.8v-2.8H48v-0.6h0.7v-1.2h0.7v1.2h0.9v0.6h-0.9
			v2.7c0,0.2,0,0.3,0.1,0.4c0.1,0.1,0.2,0.2,0.3,0.2c0.2,0,0.4-0.1,0.5-0.2l0.2,0.5C50.3,134.1,50,134.2,49.7,134.2z"/>
		<path class="st5" d="M54.6,134.1H54v-0.5c-0.4,0.4-0.8,0.6-1.4,0.6c-0.4,0-0.8-0.1-1.1-0.4c-0.3-0.3-0.5-0.6-0.5-1.1
			c0-0.5,0.2-0.8,0.5-1.1c0.3-0.2,0.7-0.4,1.1-0.4c0.6,0,1.1,0.2,1.4,0.6v-0.8c0-0.3-0.1-0.5-0.3-0.7s-0.5-0.2-0.8-0.2
			c-0.5,0-1,0.2-1.3,0.6l-0.3-0.5c0.5-0.5,1-0.7,1.7-0.7c0.5,0,0.9,0.1,1.2,0.4c0.3,0.2,0.5,0.6,0.5,1.1V134.1z M52.8,133.7
			c0.5,0,0.9-0.2,1.2-0.5v-0.8c-0.3-0.4-0.7-0.5-1.2-0.5c-0.3,0-0.6,0.1-0.8,0.3c-0.2,0.2-0.3,0.4-0.3,0.7c0,0.3,0.1,0.5,0.3,0.7
			C52.2,133.6,52.5,133.7,52.8,133.7z"/>
		<path class="st5" d="M59.6,134.1h-0.7v-2.8c0-0.4-0.1-0.6-0.3-0.8s-0.4-0.2-0.7-0.2c-0.3,0-0.5,0.1-0.7,0.2
			c-0.2,0.1-0.4,0.3-0.6,0.5v3.2H56v-4.3h0.7v0.6c0.2-0.2,0.4-0.4,0.7-0.5c0.3-0.1,0.6-0.2,0.9-0.2c0.9,0,1.4,0.5,1.4,1.4V134.1z"/>
	</g>
	<g>
		<path class="st5" d="M203.7,133.7H203l-3.5-4.8v4.8h-0.7v-6h0.8l3.5,4.7v-4.7h0.7V133.7z"/>
		<path class="st5" d="M205.4,128.7c-0.1,0-0.2,0-0.3-0.1c-0.1-0.1-0.1-0.2-0.1-0.3s0-0.2,0.1-0.3c0.1-0.1,0.2-0.1,0.3-0.1
			c0.1,0,0.2,0,0.3,0.1c0.1,0.1,0.1,0.2,0.1,0.3s0,0.2-0.1,0.3C205.6,128.6,205.5,128.7,205.4,128.7z M205.7,133.7h-0.7v-4.3h0.7
			V133.7z"/>
		<path class="st5" d="M208.8,135.4c-0.4,0-0.7,0-1-0.1c-0.3-0.1-0.5-0.3-0.8-0.5l0.3-0.5c0.3,0.4,0.8,0.6,1.4,0.6
			c0.4,0,0.7-0.1,1-0.3c0.3-0.2,0.4-0.5,0.4-1v-0.6c-0.2,0.2-0.4,0.4-0.6,0.6c-0.3,0.1-0.5,0.2-0.8,0.2c-0.6,0-1-0.2-1.4-0.6
			c-0.4-0.4-0.5-1-0.5-1.6s0.2-1.2,0.5-1.6c0.4-0.4,0.8-0.6,1.4-0.6c0.6,0,1.1,0.3,1.5,0.8v-0.7h0.7v4.2c0,0.7-0.2,1.1-0.6,1.4
			C209.9,135.3,209.4,135.4,208.8,135.4z M208.9,133.1c0.3,0,0.5-0.1,0.8-0.2c0.2-0.1,0.4-0.3,0.5-0.5v-1.9
			c-0.1-0.2-0.3-0.4-0.5-0.5c-0.2-0.1-0.5-0.2-0.8-0.2c-0.4,0-0.8,0.2-1,0.5c-0.2,0.3-0.4,0.7-0.4,1.2c0,0.5,0.1,0.9,0.4,1.2
			S208.5,133.1,208.9,133.1z"/>
		<path class="st5" d="M214.2,133.8c-0.6,0-1.2-0.2-1.6-0.6c-0.4-0.4-0.6-1-0.6-1.7c0-0.6,0.2-1.2,0.6-1.6c0.4-0.4,0.9-0.7,1.5-0.7
			c0.6,0,1.2,0.2,1.5,0.7s0.6,1,0.6,1.7v0.2h-3.5c0,0.4,0.2,0.8,0.5,1.1c0.3,0.3,0.6,0.4,1.1,0.4c0.5,0,1-0.2,1.3-0.5l0.3,0.4
			C215.5,133.5,214.9,133.8,214.2,133.8z M215.6,131.2c0-0.4-0.1-0.7-0.4-1c-0.2-0.3-0.6-0.4-1.1-0.4c-0.4,0-0.8,0.1-1,0.4
			c-0.2,0.3-0.4,0.6-0.4,1H215.6z"/>
		<path class="st5" d="M218,133.7h-0.7v-4.3h0.7v0.7c0.4-0.5,0.9-0.8,1.4-0.8v0.7c-0.1,0-0.2,0-0.3,0c-0.2,0-0.4,0.1-0.7,0.2
			c-0.2,0.1-0.4,0.3-0.5,0.5V133.7z"/>
		<path class="st5" d="M220.6,128.7c-0.1,0-0.2,0-0.3-0.1c-0.1-0.1-0.1-0.2-0.1-0.3s0-0.2,0.1-0.3c0.1-0.1,0.2-0.1,0.3-0.1
			c0.1,0,0.2,0,0.3,0.1c0.1,0.1,0.1,0.2,0.1,0.3s0,0.2-0.1,0.3C220.9,128.6,220.8,128.7,220.6,128.7z M221,133.7h-0.7v-4.3h0.7
			V133.7z"/>
		<path class="st5" d="M225.7,133.7H225v-0.5c-0.4,0.4-0.8,0.6-1.4,0.6c-0.4,0-0.8-0.1-1.1-0.4c-0.3-0.3-0.5-0.6-0.5-1.1
			c0-0.5,0.2-0.8,0.5-1.1c0.3-0.2,0.7-0.4,1.1-0.4c0.6,0,1.1,0.2,1.4,0.6v-0.8c0-0.3-0.1-0.5-0.3-0.7s-0.5-0.2-0.8-0.2
			c-0.5,0-1,0.2-1.3,0.6l-0.3-0.5c0.5-0.5,1-0.7,1.7-0.7c0.5,0,0.9,0.1,1.2,0.4c0.3,0.2,0.5,0.6,0.5,1.1V133.7z M223.8,133.3
			c0.5,0,0.9-0.2,1.2-0.5v-0.8c-0.3-0.4-0.7-0.5-1.2-0.5c-0.3,0-0.6,0.1-0.8,0.3c-0.2,0.2-0.3,0.4-0.3,0.7c0,0.3,0.1,0.5,0.3,0.7
			C223.3,133.2,223.5,133.3,223.8,133.3z"/>
	</g>
	<g>
		<path class="st5" d="M19.3,51.5h-0.9l-0.5-1.3h-3l-0.5,1.3h-0.9l2.4-6h0.9L19.3,51.5z M17.7,49.5l-1.3-3.2l-1.3,3.2H17.7z"/>
		<path class="st5" d="M20.9,51.5h-0.7v-3.8h-0.7v-0.6h0.7v-0.3c0-0.4,0.1-0.8,0.3-1c0.2-0.2,0.5-0.4,0.9-0.4c0.4,0,0.7,0.1,0.9,0.3
			l-0.3,0.4c-0.2-0.1-0.3-0.2-0.5-0.2c-0.2,0-0.4,0.1-0.5,0.2s-0.2,0.4-0.2,0.6v0.3h0.9v0.6h-0.9V51.5z"/>
		<path class="st5" d="M24.3,53.3c-0.4,0-0.7,0-1-0.1c-0.3-0.1-0.5-0.3-0.8-0.5l0.3-0.5c0.3,0.4,0.8,0.6,1.4,0.6
			c0.4,0,0.7-0.1,1-0.3c0.3-0.2,0.4-0.5,0.4-1v-0.6c-0.2,0.2-0.4,0.4-0.6,0.6c-0.3,0.1-0.5,0.2-0.8,0.2c-0.6,0-1-0.2-1.4-0.6
			c-0.4-0.4-0.5-1-0.5-1.6s0.2-1.2,0.5-1.6c0.4-0.4,0.8-0.6,1.4-0.6c0.6,0,1.1,0.3,1.5,0.8v-0.7h0.7v4.2c0,0.7-0.2,1.1-0.6,1.4
			C25.4,53.2,24.9,53.3,24.3,53.3z M24.4,51c0.3,0,0.5-0.1,0.8-0.2c0.2-0.1,0.4-0.3,0.5-0.5v-1.9c-0.1-0.2-0.3-0.4-0.5-0.5
			c-0.2-0.1-0.5-0.2-0.8-0.2c-0.4,0-0.8,0.2-1,0.5S23,48.9,23,49.4c0,0.5,0.1,0.9,0.4,1.2S24,51,24.4,51z"/>
		<path class="st5" d="M31.3,51.5h-0.7v-2.9c0-0.4-0.1-0.6-0.3-0.8c-0.2-0.1-0.4-0.2-0.7-0.2c-0.2,0-0.5,0.1-0.7,0.2
			c-0.2,0.1-0.4,0.3-0.6,0.5v3.2h-0.7v-6h0.7v2.3c0.2-0.2,0.4-0.4,0.7-0.5s0.6-0.2,0.9-0.2c0.9,0,1.4,0.5,1.4,1.4V51.5z"/>
		<path class="st5" d="M36.1,51.5h-0.7v-0.5c-0.4,0.4-0.8,0.6-1.4,0.6c-0.4,0-0.8-0.1-1.1-0.4c-0.3-0.3-0.5-0.6-0.5-1.1
			c0-0.5,0.2-0.8,0.5-1.1c0.3-0.2,0.7-0.4,1.1-0.4c0.6,0,1.1,0.2,1.4,0.6v-0.8c0-0.3-0.1-0.5-0.3-0.7c-0.2-0.2-0.5-0.2-0.8-0.2
			c-0.5,0-1,0.2-1.3,0.6l-0.3-0.5c0.5-0.5,1-0.7,1.7-0.7c0.5,0,0.9,0.1,1.2,0.4c0.3,0.2,0.5,0.6,0.5,1.1V51.5z M34.2,51.2
			c0.5,0,0.9-0.2,1.2-0.5v-0.8c-0.3-0.4-0.7-0.5-1.2-0.5c-0.3,0-0.6,0.1-0.8,0.3c-0.2,0.2-0.3,0.4-0.3,0.7c0,0.3,0.1,0.5,0.3,0.7
			C33.6,51.1,33.9,51.2,34.2,51.2z"/>
		<path class="st5" d="M41,51.5h-0.7v-2.8c0-0.4-0.1-0.6-0.3-0.8s-0.4-0.2-0.7-0.2c-0.3,0-0.5,0.1-0.7,0.2c-0.2,0.1-0.4,0.3-0.6,0.5
			v3.2h-0.7v-4.3h0.7v0.6c0.2-0.2,0.4-0.4,0.7-0.5s0.6-0.2,0.9-0.2c0.9,0,1.4,0.5,1.4,1.4V51.5z"/>
		<path class="st5" d="M42.7,46.6c-0.1,0-0.2,0-0.3-0.1c-0.1-0.1-0.1-0.2-0.1-0.3s0-0.2,0.1-0.3c0.1-0.1,0.2-0.1,0.3-0.1
			c0.1,0,0.2,0,0.3,0.1c0.1,0.1,0.1,0.2,0.1,0.3s0,0.2-0.1,0.3C43,46.5,42.8,46.6,42.7,46.6z M43.1,51.5h-0.7v-4.3h0.7V51.5z"/>
		<path class="st5" d="M45.8,51.7c-0.7,0-1.3-0.2-1.8-0.7l0.4-0.5c0.1,0.2,0.4,0.3,0.6,0.4c0.3,0.1,0.5,0.2,0.8,0.2
			c0.3,0,0.6-0.1,0.8-0.2s0.3-0.3,0.3-0.5c0-0.2-0.1-0.3-0.3-0.5c-0.2-0.1-0.4-0.2-0.7-0.3s-0.5-0.1-0.8-0.2
			c-0.3-0.1-0.5-0.2-0.7-0.4c-0.2-0.2-0.3-0.4-0.3-0.7c0-0.4,0.1-0.7,0.4-0.9c0.3-0.2,0.7-0.4,1.2-0.4c0.7,0,1.2,0.2,1.6,0.6
			l-0.3,0.5c-0.3-0.4-0.7-0.5-1.3-0.5c-0.3,0-0.5,0.1-0.7,0.2s-0.3,0.3-0.3,0.5c0,0.2,0.1,0.3,0.3,0.4c0.2,0.1,0.4,0.2,0.7,0.2
			c0.3,0.1,0.5,0.1,0.8,0.2c0.3,0.1,0.5,0.2,0.7,0.4c0.2,0.2,0.3,0.4,0.3,0.8c0,0.4-0.2,0.7-0.4,0.9C46.8,51.5,46.3,51.7,45.8,51.7z
			"/>
		<path class="st5" d="M49.7,51.7c-0.3,0-0.6-0.1-0.7-0.3c-0.2-0.2-0.2-0.4-0.2-0.8v-2.8H48v-0.6h0.7V46h0.7v1.2h0.9v0.6h-0.9v2.7
			c0,0.2,0,0.3,0.1,0.4c0.1,0.1,0.2,0.2,0.3,0.2c0.2,0,0.4-0.1,0.5-0.2l0.2,0.5C50.3,51.6,50,51.7,49.7,51.7z"/>
		<path class="st5" d="M54.6,51.5H54v-0.5c-0.4,0.4-0.8,0.6-1.4,0.6c-0.4,0-0.8-0.1-1.1-0.4C51.2,51,51,50.7,51,50.2
			c0-0.5,0.2-0.8,0.5-1.1c0.3-0.2,0.7-0.4,1.1-0.4c0.6,0,1.1,0.2,1.4,0.6v-0.8c0-0.3-0.1-0.5-0.3-0.7s-0.5-0.2-0.8-0.2
			c-0.5,0-1,0.2-1.3,0.6l-0.3-0.5c0.5-0.5,1-0.7,1.7-0.7c0.5,0,0.9,0.1,1.2,0.4c0.3,0.2,0.5,0.6,0.5,1.1V51.5z M52.8,51.2
			c0.5,0,0.9-0.2,1.2-0.5v-0.8c-0.3-0.4-0.7-0.5-1.2-0.5c-0.3,0-0.6,0.1-0.8,0.3c-0.2,0.2-0.3,0.4-0.3,0.7c0,0.3,0.1,0.5,0.3,0.7
			C52.2,51.1,52.5,51.2,52.8,51.2z"/>
		<path class="st5" d="M59.6,51.5h-0.7v-2.8c0-0.4-0.1-0.6-0.3-0.8s-0.4-0.2-0.7-0.2c-0.3,0-0.5,0.1-0.7,0.2
			c-0.2,0.1-0.4,0.3-0.6,0.5v3.2H56v-4.3h0.7v0.6c0.2-0.2,0.4-0.4,0.7-0.5c0.3-0.1,0.6-0.2,0.9-0.2c0.9,0,1.4,0.5,1.4,1.4V51.5z"/>
	</g>
	<g>
		<path class="st5" d="M30.9,81.2c-1,0-1.7-0.3-2.3-1l0.4-0.6c0.5,0.6,1.1,0.9,1.9,0.9c0.5,0,0.8-0.1,1.1-0.3s0.3-0.4,0.3-0.7
			c0-0.2-0.1-0.4-0.2-0.5c-0.1-0.1-0.3-0.3-0.5-0.3s-0.4-0.2-0.7-0.2c-0.3-0.1-0.5-0.1-0.8-0.2s-0.5-0.2-0.7-0.3
			c-0.2-0.1-0.4-0.3-0.5-0.5c-0.1-0.2-0.2-0.5-0.2-0.7c0-0.5,0.2-0.9,0.6-1.2s0.9-0.5,1.5-0.5c0.9,0,1.6,0.3,2.1,0.8l-0.4,0.5
			c-0.4-0.5-1-0.7-1.7-0.7c-0.4,0-0.7,0.1-0.9,0.3c-0.2,0.2-0.3,0.4-0.3,0.7c0,0.2,0.1,0.4,0.3,0.5c0.2,0.1,0.4,0.2,0.7,0.3
			s0.5,0.1,0.9,0.2c0.3,0.1,0.6,0.2,0.9,0.3c0.3,0.1,0.5,0.3,0.7,0.5s0.3,0.5,0.3,0.9c0,0.5-0.2,0.9-0.5,1.3
			C32.2,81,31.6,81.2,30.9,81.2z"/>
		<path class="st5" d="M36.1,81.2c-0.6,0-1.2-0.2-1.6-0.6c-0.4-0.4-0.6-1-0.6-1.7c0-0.6,0.2-1.2,0.6-1.6s0.9-0.7,1.5-0.7
			c0.6,0,1.2,0.2,1.5,0.7s0.6,1,0.6,1.7v0.2h-3.5c0,0.4,0.2,0.8,0.5,1.1c0.3,0.3,0.6,0.4,1.1,0.4c0.5,0,1-0.2,1.3-0.5l0.3,0.4
			C37.4,80.9,36.8,81.2,36.1,81.2z M37.5,78.6c0-0.4-0.1-0.7-0.4-1c-0.2-0.3-0.6-0.4-1.1-0.4c-0.4,0-0.8,0.1-1,0.4
			c-0.2,0.3-0.4,0.6-0.4,1H37.5z"/>
		<path class="st5" d="M42.8,81.1h-0.7v-2.8c0-0.4-0.1-0.6-0.3-0.8s-0.4-0.2-0.7-0.2c-0.3,0-0.5,0.1-0.7,0.2
			c-0.2,0.1-0.4,0.3-0.6,0.5v3.2h-0.7v-4.3h0.7v0.6c0.2-0.2,0.4-0.4,0.7-0.5c0.3-0.1,0.6-0.2,0.9-0.2c0.9,0,1.4,0.5,1.4,1.4V81.1z"
			/>
		<path class="st5" d="M46.2,81.2c-0.6,0-1.2-0.2-1.6-0.6c-0.4-0.4-0.6-1-0.6-1.7c0-0.6,0.2-1.2,0.6-1.6c0.4-0.4,0.9-0.7,1.5-0.7
			c0.6,0,1.2,0.2,1.5,0.7s0.6,1,0.6,1.7v0.2h-3.5c0,0.4,0.2,0.8,0.5,1.1c0.3,0.3,0.6,0.4,1.1,0.4c0.5,0,1-0.2,1.3-0.5l0.3,0.4
			C47.4,80.9,46.9,81.2,46.2,81.2z M47.5,78.6c0-0.4-0.1-0.7-0.4-1c-0.2-0.3-0.6-0.4-1.1-0.4c-0.4,0-0.8,0.1-1,0.4
			c-0.2,0.3-0.4,0.6-0.4,1H47.5z"/>
		<path class="st5" d="M51,82.8c-0.4,0-0.7,0-1-0.1c-0.3-0.1-0.5-0.3-0.8-0.5l0.3-0.5c0.3,0.4,0.8,0.6,1.4,0.6c0.4,0,0.7-0.1,1-0.3
			c0.3-0.2,0.4-0.5,0.4-1v-0.6c-0.2,0.2-0.4,0.4-0.6,0.6s-0.5,0.2-0.8,0.2c-0.6,0-1-0.2-1.4-0.6c-0.4-0.4-0.5-1-0.5-1.6
			s0.2-1.2,0.5-1.6c0.4-0.4,0.8-0.6,1.4-0.6c0.6,0,1.1,0.3,1.5,0.8v-0.7h0.7v4.2c0,0.7-0.2,1.1-0.6,1.4C52.1,82.7,51.6,82.8,51,82.8
			z M51.1,80.5c0.3,0,0.5-0.1,0.8-0.2c0.2-0.1,0.4-0.3,0.5-0.5v-1.9c-0.1-0.2-0.3-0.4-0.5-0.5c-0.2-0.1-0.5-0.2-0.8-0.2
			c-0.4,0-0.8,0.2-1,0.5s-0.4,0.7-0.4,1.2c0,0.5,0.1,0.9,0.4,1.2S50.7,80.5,51.1,80.5z"/>
		<path class="st5" d="M57.8,81.1h-0.7v-0.5c-0.4,0.4-0.8,0.6-1.4,0.6c-0.4,0-0.8-0.1-1.1-0.4c-0.3-0.3-0.5-0.6-0.5-1.1
			c0-0.5,0.2-0.8,0.5-1.1c0.3-0.2,0.7-0.4,1.1-0.4c0.6,0,1.1,0.2,1.4,0.6v-0.8c0-0.3-0.1-0.5-0.3-0.7c-0.2-0.2-0.5-0.2-0.8-0.2
			c-0.5,0-1,0.2-1.3,0.6l-0.3-0.5c0.5-0.5,1-0.7,1.7-0.7c0.5,0,0.9,0.1,1.2,0.4c0.3,0.2,0.5,0.6,0.5,1.1V81.1z M55.9,80.7
			c0.5,0,0.9-0.2,1.2-0.5v-0.8c-0.3-0.4-0.7-0.5-1.2-0.5c-0.3,0-0.6,0.1-0.8,0.3c-0.2,0.2-0.3,0.4-0.3,0.7c0,0.3,0.1,0.5,0.3,0.7
			C55.4,80.6,55.6,80.7,55.9,80.7z"/>
		<path class="st5" d="M59.8,81.1h-0.7v-6h0.7V81.1z"/>
	</g>
	<g>
		<path class="st5" d="M50.8,106.5H50v-4.9l-2,4.9h-0.3l-2-4.9v4.9h-0.7v-6H46l1.9,4.5l1.9-4.5h1.1V106.5z"/>
		<path class="st5" d="M55.5,106.5h-0.7V106c-0.4,0.4-0.8,0.6-1.4,0.6c-0.4,0-0.8-0.1-1.1-0.4c-0.3-0.3-0.5-0.6-0.5-1.1
			c0-0.5,0.2-0.8,0.5-1.1c0.3-0.2,0.7-0.4,1.1-0.4c0.6,0,1.1,0.2,1.4,0.6v-0.8c0-0.3-0.1-0.5-0.3-0.7c-0.2-0.2-0.5-0.2-0.8-0.2
			c-0.5,0-1,0.2-1.3,0.6l-0.3-0.5c0.5-0.5,1-0.7,1.7-0.7c0.5,0,0.9,0.1,1.2,0.4c0.3,0.2,0.5,0.6,0.5,1.1V106.5z M53.7,106.1
			c0.5,0,0.9-0.2,1.2-0.5v-0.8c-0.3-0.4-0.7-0.5-1.2-0.5c-0.3,0-0.6,0.1-0.8,0.3c-0.2,0.2-0.3,0.4-0.3,0.7c0,0.3,0.1,0.5,0.3,0.7
			C53.1,106.1,53.4,106.1,53.7,106.1z"/>
		<path class="st5" d="M57.6,106.5h-0.7v-6h0.7V106.5z"/>
		<path class="st5" d="M59.3,101.6c-0.1,0-0.2,0-0.3-0.1c-0.1-0.1-0.1-0.2-0.1-0.3s0-0.2,0.1-0.3c0.1-0.1,0.2-0.1,0.3-0.1
			c0.1,0,0.2,0,0.3,0.1c0.1,0.1,0.1,0.2,0.1,0.3s0,0.2-0.1,0.3C59.5,101.5,59.4,101.6,59.3,101.6z M59.6,106.5h-0.7v-4.3h0.7V106.5z
			"/>
	</g>
	<g>
		<path class="st6" d="M200.1,35.3h-1.3v-5.7l-1.2,1.2l-0.7-0.8L199,28h1.1V35.3z"/>
		<path class="st6" d="M204.2,35.4c-1.2,0-2.1-0.4-2.7-1.1l0.7-0.9c0.5,0.6,1.2,0.9,2,0.9c0.5,0,0.8-0.1,1.1-0.4s0.4-0.6,0.4-0.9
			c0-0.4-0.1-0.7-0.4-1s-0.6-0.4-1.1-0.4c-0.6,0-1.2,0.2-1.6,0.6l-0.9-0.3V28h4.8v1.1H203v2.1c0.4-0.4,1-0.6,1.7-0.6
			c0.6,0,1.2,0.2,1.7,0.6c0.5,0.4,0.7,1,0.7,1.7c0,0.8-0.3,1.4-0.8,1.8C205.7,35.2,205,35.4,204.2,35.4z"/>
		<path class="st6" d="M210.8,35.4c-1.2,0-2.1-0.4-2.7-1.1l0.7-0.9c0.5,0.6,1.2,0.9,2,0.9c0.5,0,0.8-0.1,1.1-0.4
			c0.3-0.2,0.4-0.6,0.4-0.9c0-0.4-0.1-0.7-0.4-1s-0.6-0.4-1.1-0.4c-0.6,0-1.2,0.2-1.6,0.6l-0.9-0.3V28h4.8v1.1h-3.5v2.1
			c0.4-0.4,1-0.6,1.7-0.6c0.6,0,1.2,0.2,1.7,0.6c0.5,0.4,0.7,1,0.7,1.7c0,0.8-0.3,1.4-0.8,1.8C212.3,35.2,211.6,35.4,210.8,35.4z"/>
	</g>
	<g>
		<path class="st6" d="M202.5,63.1h-5.3v-1c1.5-1.2,2.6-2,3.1-2.6s0.8-1.1,0.8-1.6c0-0.4-0.1-0.6-0.4-0.8c-0.3-0.2-0.6-0.3-0.9-0.3
			c-0.8,0-1.5,0.3-2,0.9l-0.7-0.8c0.3-0.4,0.7-0.7,1.2-0.9s1-0.3,1.5-0.3c0.7,0,1.4,0.2,1.9,0.6c0.5,0.4,0.8,1,0.8,1.7
			c0,0.6-0.3,1.3-0.8,1.9c-0.5,0.6-1.3,1.3-2.4,2.2h3.3V63.1z"/>
		<path class="st6" d="M208.3,63.1H207v-1.7h-3.5v-1l3-4.6h1.8v4.5h1v1.1h-1V63.1z M207,60.3v-3.4l-2.2,3.4H207z"/>
		<path class="st6" d="M212.9,63.2c-1.2,0-2.1-0.4-2.7-1.1l0.7-0.9c0.5,0.6,1.2,0.9,2,0.9c0.5,0,0.8-0.1,1.1-0.4
			c0.3-0.2,0.4-0.6,0.4-0.9c0-0.4-0.1-0.7-0.4-1s-0.6-0.4-1.1-0.4c-0.6,0-1.2,0.2-1.6,0.6l-0.9-0.3v-4.1h4.8v1.1h-3.5V59
			c0.4-0.4,1-0.6,1.7-0.6c0.6,0,1.2,0.2,1.7,0.6c0.5,0.4,0.7,1,0.7,1.7c0,0.8-0.3,1.4-0.8,1.8C214.5,63,213.8,63.2,212.9,63.2z"/>
	</g>
	<g>
		<path class="st6" d="M199.4,88.4H198l2.8-6.2H197v-1.1h5.3V82L199.4,88.4z"/>
		<path class="st6" d="M207.6,88.4h-1.3v-1.7h-3.5v-1l3-4.6h1.8v4.5h1v1.1h-1V88.4z M206.3,85.6v-3.4l-2.2,3.4H206.3z"/>
		<path class="st6" d="M213.6,88.2c-0.4,0.2-0.8,0.3-1.3,0.3c-0.5,0-0.9-0.1-1.3-0.3c-0.4-0.2-0.7-0.5-0.9-0.9
			c-0.2-0.4-0.4-0.8-0.5-1.2s-0.2-0.9-0.2-1.4c0-0.5,0.1-0.9,0.2-1.4s0.3-0.8,0.5-1.2c0.2-0.4,0.5-0.7,0.9-0.9
			c0.4-0.2,0.8-0.3,1.3-0.3c0.5,0,0.9,0.1,1.3,0.3c0.4,0.2,0.7,0.5,0.9,0.9c0.2,0.4,0.4,0.8,0.5,1.2s0.2,0.9,0.2,1.4
			c0,0.5-0.1,0.9-0.2,1.4s-0.3,0.8-0.5,1.2S214,88,213.6,88.2z M211.1,86.7c0.3,0.5,0.7,0.7,1.2,0.7c0.6,0,1-0.2,1.2-0.7
			c0.3-0.5,0.4-1.1,0.4-1.9c0-0.5,0-0.9-0.1-1.3c-0.1-0.4-0.3-0.7-0.5-1c-0.3-0.3-0.6-0.4-1-0.4c-0.4,0-0.7,0.1-1,0.4
			s-0.4,0.6-0.5,1c-0.1,0.4-0.1,0.8-0.1,1.3C210.7,85.5,210.8,86.2,211.1,86.7z"/>
	</g>
	<g>
		<path class="st6" d="M200.1,117.3h-1.3v-5.7l-1.2,1.2l-0.7-0.8l2.1-2.1h1.1V117.3z"/>
		<path class="st6" d="M204.3,117.4c-0.5,0-1-0.1-1.4-0.3s-0.7-0.5-0.9-0.8c-0.2-0.4-0.4-0.7-0.5-1.2s-0.2-0.9-0.2-1.5
			c0-1.1,0.3-2,0.8-2.7s1.4-1.1,2.4-1.1c0.9,0,1.6,0.3,2.1,0.8l-0.6,1c-0.4-0.4-0.9-0.6-1.5-0.6c-0.6,0-1.1,0.2-1.4,0.7
			c-0.4,0.5-0.5,1-0.5,1.7c0,0.1,0,0.2,0,0.2c0.2-0.3,0.5-0.5,0.8-0.7c0.4-0.2,0.7-0.3,1.2-0.3c0.7,0,1.3,0.2,1.7,0.6
			c0.5,0.4,0.7,1,0.7,1.7c0,0.7-0.2,1.3-0.7,1.8C205.8,117.2,205.1,117.4,204.3,117.4z M204.3,116.3c0.5,0,0.8-0.1,1.1-0.4
			s0.4-0.6,0.4-0.9c0-0.4-0.1-0.7-0.4-1c-0.3-0.2-0.6-0.3-1.1-0.3c-0.3,0-0.6,0.1-0.9,0.2c-0.3,0.2-0.5,0.4-0.7,0.6
			c0,0.5,0.2,0.9,0.5,1.2C203.4,116.1,203.7,116.3,204.3,116.3z"/>
		<path class="st6" d="M212.2,117.1c-0.4,0.2-0.8,0.3-1.3,0.3c-0.5,0-0.9-0.1-1.3-0.3c-0.4-0.2-0.7-0.5-0.9-0.9
			c-0.2-0.4-0.4-0.8-0.5-1.2s-0.2-0.9-0.2-1.4c0-0.5,0.1-0.9,0.2-1.4s0.3-0.8,0.5-1.2c0.2-0.4,0.5-0.7,0.9-0.9
			c0.4-0.2,0.8-0.3,1.3-0.3c0.5,0,0.9,0.1,1.3,0.3c0.4,0.2,0.7,0.5,0.9,0.9c0.2,0.4,0.4,0.8,0.5,1.2s0.2,0.9,0.2,1.4
			c0,0.5-0.1,0.9-0.2,1.4s-0.3,0.8-0.5,1.2S212.6,116.9,212.2,117.1z M209.6,115.6c0.3,0.5,0.7,0.7,1.2,0.7c0.6,0,1-0.2,1.2-0.7
			c0.3-0.5,0.4-1.1,0.4-1.9c0-0.5,0-0.9-0.1-1.3c-0.1-0.4-0.3-0.7-0.5-1c-0.3-0.3-0.6-0.4-1-0.4c-0.4,0-0.7,0.1-1,0.4
			s-0.4,0.6-0.5,1c-0.1,0.4-0.1,0.8-0.1,1.3C209.2,114.4,209.4,115.1,209.6,115.6z"/>
	</g>
	<g>
		<path class="st6" d="M201.8,147.2c-1.3,0-2.4-0.4-3.1-1.3l0.8-1c0.6,0.7,1.3,1,2.2,1c0.5,0,0.9-0.1,1.2-0.4c0.3-0.3,0.5-0.6,0.5-1
			c0-0.5-0.2-0.8-0.5-1.1c-0.3-0.3-0.7-0.4-1.2-0.4c-0.7,0-1.3,0.2-1.8,0.7l-1-0.3v-4.7h5.5v1.3h-4v2.4c0.5-0.5,1.1-0.7,1.9-0.7
			c0.7,0,1.4,0.2,1.9,0.7c0.5,0.5,0.8,1.1,0.8,2c0,0.9-0.3,1.5-0.9,2.1C203.5,147,202.8,147.2,201.8,147.2z"/>
		<path class="st6" d="M208.8,147.2c-1,0-1.8-0.3-2.4-0.9l0.7-1.1c0.5,0.5,1,0.7,1.7,0.7c0.7,0,1.3-0.3,1.6-0.8
			c0.4-0.5,0.6-1.2,0.6-1.9v-0.2c-0.2,0.3-0.5,0.6-0.9,0.8c-0.4,0.2-0.8,0.4-1.3,0.4c-0.8,0-1.5-0.2-2-0.7c-0.5-0.5-0.8-1.1-0.8-2
			c0-0.8,0.3-1.5,0.9-2c0.6-0.5,1.3-0.8,2.2-0.8c0.8,0,1.4,0.2,2,0.6s0.9,0.9,1.1,1.5c0.2,0.6,0.3,1.3,0.3,2.2c0,1.2-0.3,2.3-1,3.1
			C210.9,146.8,210,147.2,208.8,147.2z M209.2,142.8c0.4,0,0.7-0.1,1-0.3c0.3-0.2,0.6-0.4,0.8-0.7c0-0.5-0.2-1-0.5-1.4
			c-0.3-0.4-0.8-0.6-1.3-0.6c-0.5,0-0.9,0.1-1.2,0.4c-0.3,0.3-0.5,0.6-0.5,1c0,0.5,0.2,0.9,0.5,1.1
			C208.3,142.7,208.7,142.8,209.2,142.8z"/>
		<path class="st6" d="M218.4,146.9c-0.4,0.2-0.9,0.4-1.5,0.4s-1.1-0.1-1.5-0.4s-0.8-0.6-1.1-1c-0.3-0.4-0.5-0.9-0.6-1.4
			s-0.2-1-0.2-1.6c0-0.5,0.1-1.1,0.2-1.6s0.3-1,0.6-1.4c0.3-0.4,0.6-0.7,1.1-1s0.9-0.4,1.5-0.4s1.1,0.1,1.5,0.4s0.8,0.6,1,1
			s0.5,0.9,0.6,1.4c0.1,0.5,0.2,1,0.2,1.6c0,0.5-0.1,1.1-0.2,1.6c-0.1,0.5-0.3,1-0.6,1.4C219.2,146.3,218.8,146.6,218.4,146.9z
			 M215.5,145.1c0.3,0.6,0.8,0.9,1.4,0.9s1.1-0.3,1.4-0.9c0.3-0.6,0.4-1.3,0.4-2.2c0-0.6-0.1-1.1-0.2-1.5c-0.1-0.4-0.3-0.8-0.6-1.1
			c-0.3-0.3-0.6-0.4-1.1-0.4s-0.8,0.1-1.1,0.4c-0.3,0.3-0.5,0.6-0.6,1.1c-0.1,0.4-0.2,0.9-0.2,1.5
			C215,143.8,215.2,144.5,215.5,145.1z"/>
	</g>
	<g>
		<path class="st6" d="M44,117.3c-0.6,0-1.2-0.1-1.7-0.3c-0.5-0.2-0.9-0.5-1.1-0.9l0.7-0.8c0.2,0.3,0.5,0.5,0.9,0.6
			c0.4,0.2,0.7,0.2,1.1,0.2c0.5,0,0.9-0.1,1.1-0.3c0.3-0.2,0.4-0.5,0.4-0.8c0-0.7-0.5-1-1.6-1c-0.5,0-0.8,0-0.8,0v-1.2
			c0.1,0,0.4,0,0.8,0c0.5,0,0.8-0.1,1.1-0.2c0.3-0.2,0.4-0.4,0.4-0.7c0-0.3-0.1-0.6-0.4-0.8c-0.3-0.2-0.6-0.3-1.1-0.3
			c-0.7,0-1.3,0.3-1.9,0.8l-0.7-0.8c0.7-0.8,1.5-1.2,2.7-1.2c0.8,0,1.4,0.2,1.9,0.5c0.5,0.4,0.7,0.8,0.7,1.4c0,0.5-0.2,0.8-0.5,1.1
			c-0.3,0.3-0.7,0.5-1.1,0.6c0.4,0,0.8,0.2,1.2,0.5s0.5,0.7,0.5,1.3c0,0.6-0.3,1.1-0.8,1.5C45.5,117.1,44.9,117.3,44,117.3z"/>
		<path class="st6" d="M50.2,117.3c-0.9,0-1.6-0.3-2.1-0.8l0.6-1c0.4,0.4,0.9,0.6,1.5,0.6c0.6,0,1.1-0.2,1.4-0.7s0.5-1,0.5-1.7v-0.2
			c-0.2,0.3-0.5,0.5-0.8,0.7s-0.7,0.3-1.1,0.3c-0.7,0-1.3-0.2-1.8-0.6s-0.7-1-0.7-1.7c0-0.7,0.2-1.3,0.8-1.8s1.2-0.7,2-0.7
			c0.7,0,1.3,0.2,1.7,0.5c0.5,0.4,0.8,0.8,1,1.4c0.2,0.6,0.3,1.2,0.3,1.9c0,1.1-0.3,2-0.8,2.7C52,116.9,51.3,117.3,50.2,117.3z
			 M50.5,113.4c0.3,0,0.6-0.1,0.9-0.2c0.3-0.2,0.5-0.4,0.7-0.6c0-0.5-0.2-0.9-0.5-1.2c-0.3-0.3-0.7-0.5-1.2-0.5
			c-0.4,0-0.8,0.1-1.1,0.4c-0.3,0.3-0.4,0.6-0.4,0.9c0,0.4,0.1,0.8,0.4,1S50.1,113.4,50.5,113.4z"/>
		<path class="st6" d="M57.3,117.3c-1.2,0-2.1-0.4-2.7-1.1l0.7-0.9c0.5,0.6,1.2,0.9,2,0.9c0.5,0,0.8-0.1,1.1-0.4
			c0.3-0.2,0.4-0.6,0.4-0.9c0-0.4-0.1-0.7-0.4-1s-0.6-0.4-1.1-0.4c-0.6,0-1.2,0.2-1.6,0.6l-0.9-0.3v-4.1h4.8v1.1h-3.5v2.1
			c0.4-0.4,1-0.6,1.7-0.6c0.6,0,1.2,0.2,1.7,0.6c0.5,0.4,0.7,1,0.7,1.7c0,0.8-0.3,1.4-0.8,1.8C58.8,117.1,58.1,117.3,57.3,117.3z"/>
	</g>
	<g>
		<path class="st6" d="M46.6,92.6h-1.3v-1.7h-3.5v-1l3-4.6h1.8v4.5h1v1.1h-1V92.6z M45.3,89.8v-3.4l-2.2,3.4H45.3z"/>
		<path class="st6" d="M50.6,92.6h-1.4l2.8-6.2h-3.8v-1.1h5.3v0.9L50.6,92.6z"/>
		<path class="st6" d="M58.5,92.4c-0.4,0.2-0.8,0.3-1.3,0.3c-0.5,0-0.9-0.1-1.3-0.3c-0.4-0.2-0.7-0.5-0.9-0.9
			c-0.2-0.4-0.4-0.8-0.5-1.2s-0.2-0.9-0.2-1.4c0-0.5,0.1-0.9,0.2-1.4s0.3-0.8,0.5-1.2c0.2-0.4,0.5-0.7,0.9-0.9
			c0.4-0.2,0.8-0.3,1.3-0.3c0.5,0,0.9,0.1,1.3,0.3c0.4,0.2,0.7,0.5,0.9,0.9c0.2,0.4,0.4,0.8,0.5,1.2s0.2,0.9,0.2,1.4
			c0,0.5-0.1,0.9-0.2,1.4s-0.3,0.8-0.5,1.2C59.2,91.9,58.8,92.2,58.5,92.4z M55.9,90.8c0.3,0.5,0.7,0.7,1.2,0.7c0.6,0,1-0.2,1.2-0.7
			c0.3-0.5,0.4-1.1,0.4-1.9c0-0.5-0.1-0.9-0.1-1.3c-0.1-0.4-0.3-0.7-0.5-1c-0.3-0.3-0.6-0.4-1-0.4s-0.7,0.1-1,0.4s-0.4,0.6-0.5,1
			c-0.1,0.4-0.1,0.8-0.1,1.3C55.5,89.7,55.6,90.3,55.9,90.8z"/>
	</g>
	<g>
		<path class="st6" d="M46.5,63.1h-5.3v-1c1.5-1.2,2.6-2,3.1-2.6c0.6-0.6,0.8-1.1,0.8-1.6c0-0.4-0.1-0.6-0.4-0.8
			c-0.3-0.2-0.6-0.3-0.9-0.3c-0.8,0-1.5,0.3-2,0.9L41,56.8c0.3-0.4,0.7-0.7,1.2-0.9c0.5-0.2,1-0.3,1.5-0.3c0.7,0,1.4,0.2,1.9,0.6
			c0.5,0.4,0.8,1,0.8,1.7c0,0.6-0.3,1.3-0.8,1.9c-0.5,0.6-1.3,1.3-2.4,2.2h3.3V63.1z"/>
		<path class="st6" d="M50,63.2c-0.9,0-1.6-0.3-2.1-0.8l0.6-1C49,61.8,49.5,62,50,62c0.6,0,1.1-0.2,1.4-0.7s0.5-1,0.5-1.7v-0.2
			c-0.2,0.3-0.5,0.5-0.8,0.7s-0.7,0.3-1.1,0.3c-0.7,0-1.3-0.2-1.8-0.6s-0.7-1-0.7-1.7c0-0.7,0.2-1.3,0.8-1.8s1.2-0.7,2-0.7
			c0.7,0,1.3,0.2,1.7,0.5c0.5,0.4,0.8,0.8,1,1.4c0.2,0.6,0.3,1.2,0.3,1.9c0,1.1-0.3,2-0.8,2.7C51.9,62.8,51.1,63.2,50,63.2z
			 M50.4,59.3c0.3,0,0.6-0.1,0.9-0.2c0.3-0.2,0.5-0.4,0.7-0.6c0-0.5-0.2-0.9-0.5-1.2c-0.3-0.3-0.7-0.5-1.2-0.5
			c-0.4,0-0.8,0.1-1.1,0.4c-0.3,0.3-0.4,0.6-0.4,0.9c0,0.4,0.1,0.8,0.4,1S49.9,59.3,50.4,59.3z"/>
		<path class="st6" d="M58.5,62.9c-0.4,0.2-0.8,0.3-1.3,0.3c-0.5,0-0.9-0.1-1.3-0.3c-0.4-0.2-0.7-0.5-0.9-0.9
			c-0.2-0.4-0.4-0.8-0.5-1.2s-0.2-0.9-0.2-1.4c0-0.5,0.1-0.9,0.2-1.4s0.3-0.8,0.5-1.2c0.2-0.4,0.5-0.7,0.9-0.9
			c0.4-0.2,0.8-0.3,1.3-0.3c0.5,0,0.9,0.1,1.3,0.3c0.4,0.2,0.7,0.5,0.9,0.9c0.2,0.4,0.4,0.8,0.5,1.2s0.2,0.9,0.2,1.4
			c0,0.5-0.1,0.9-0.2,1.4s-0.3,0.8-0.5,1.2C59.2,62.3,58.8,62.6,58.5,62.9z M55.9,61.3c0.3,0.5,0.7,0.7,1.2,0.7c0.6,0,1-0.2,1.2-0.7
			c0.3-0.5,0.4-1.1,0.4-1.9c0-0.5-0.1-0.9-0.1-1.3c-0.1-0.4-0.3-0.7-0.5-1c-0.3-0.3-0.6-0.4-1-0.4s-0.7,0.1-1,0.4s-0.4,0.6-0.5,1
			c-0.1,0.4-0.1,0.8-0.1,1.3C55.5,60.2,55.6,60.8,55.9,61.3z"/>
	</g>
	<g>
		<path class="st6" d="M45.9,33.8h-1.3v-1.7h-3.5v-1l3-4.6h1.8V31h1v1.1h-1V33.8z M44.6,31v-3.4L42.3,31H44.6z"/>
		<path class="st6" d="M51.9,33.6c-0.4,0.2-0.8,0.3-1.3,0.3c-0.5,0-0.9-0.1-1.3-0.3c-0.4-0.2-0.7-0.5-0.9-0.9
			c-0.2-0.4-0.4-0.8-0.5-1.2s-0.2-0.9-0.2-1.4c0-0.5,0.1-0.9,0.2-1.4s0.3-0.8,0.5-1.2c0.2-0.4,0.5-0.7,0.9-0.9
			c0.4-0.2,0.8-0.3,1.3-0.3c0.5,0,0.9,0.1,1.3,0.3c0.4,0.2,0.7,0.5,0.9,0.9c0.2,0.4,0.4,0.8,0.5,1.2s0.2,0.9,0.2,1.4
			c0,0.5-0.1,0.9-0.2,1.4s-0.3,0.8-0.5,1.2C52.5,33.1,52.2,33.4,51.9,33.6z M49.3,32.1c0.3,0.5,0.7,0.7,1.2,0.7c0.6,0,1-0.2,1.2-0.7
			c0.3-0.5,0.4-1.1,0.4-1.9c0-0.5,0-0.9-0.1-1.3c-0.1-0.4-0.3-0.7-0.5-1s-0.6-0.4-1-0.4s-0.7,0.1-1,0.4c-0.3,0.3-0.4,0.6-0.5,1
			c-0.1,0.4-0.1,0.8-0.1,1.3C48.9,30.9,49,31.6,49.3,32.1z"/>
		<path class="st6" d="M57.3,33.9c-1.2,0-2.1-0.4-2.7-1.1l0.7-0.9c0.5,0.6,1.2,0.9,2,0.9c0.5,0,0.8-0.1,1.1-0.4
			c0.3-0.2,0.4-0.6,0.4-0.9c0-0.4-0.1-0.7-0.4-1s-0.6-0.4-1.1-0.4c-0.6,0-1.2,0.2-1.6,0.6l-0.9-0.3v-4.1h4.8v1.1h-3.5v2.1
			c0.4-0.4,1-0.6,1.7-0.6c0.6,0,1.2,0.2,1.7,0.6c0.5,0.4,0.7,1,0.7,1.7c0,0.8-0.3,1.4-0.8,1.8C58.8,33.7,58.1,33.9,57.3,33.9z"/>
	</g>
	<g>
		<path class="st6" d="M45.9,145.5h-1.3v-1.7h-3.5v-1l3-4.6h1.8v4.5h1v1.1h-1V145.5z M44.6,142.7v-3.4l-2.2,3.4H44.6z"/>
		<path class="st6" d="M50.2,145.7c-0.6,0-1.2-0.1-1.7-0.3c-0.5-0.2-0.9-0.5-1.1-0.9l0.7-0.8c0.2,0.3,0.5,0.5,0.9,0.6
			s0.7,0.2,1.1,0.2c0.5,0,0.8-0.1,1.1-0.3s0.4-0.5,0.4-0.8c0-0.7-0.5-1-1.6-1c-0.5,0-0.8,0-0.8,0v-1.2c0.1,0,0.4,0,0.8,0
			c0.5,0,0.8-0.1,1.1-0.2c0.3-0.2,0.4-0.4,0.4-0.7c0-0.3-0.1-0.6-0.4-0.8c-0.3-0.2-0.6-0.3-1.1-0.3c-0.7,0-1.3,0.3-1.9,0.8l-0.7-0.8
			c0.7-0.8,1.5-1.2,2.7-1.2c0.8,0,1.4,0.2,1.9,0.5c0.5,0.4,0.7,0.8,0.7,1.4c0,0.5-0.2,0.8-0.5,1.1c-0.3,0.3-0.7,0.5-1.1,0.6
			c0.4,0,0.8,0.2,1.2,0.5s0.5,0.7,0.5,1.3c0,0.6-0.3,1.1-0.8,1.5S51.1,145.7,50.2,145.7z"/>
		<path class="st6" d="M58.2,145.3c-0.4,0.2-0.8,0.3-1.3,0.3c-0.5,0-0.9-0.1-1.3-0.3c-0.4-0.2-0.7-0.5-0.9-0.9
			c-0.2-0.4-0.4-0.8-0.5-1.2s-0.2-0.9-0.2-1.4c0-0.5,0.1-0.9,0.2-1.4s0.3-0.8,0.5-1.2c0.2-0.4,0.5-0.7,0.9-0.9
			c0.4-0.2,0.8-0.3,1.3-0.3c0.5,0,0.9,0.1,1.3,0.3c0.4,0.2,0.7,0.5,0.9,0.9c0.2,0.4,0.4,0.8,0.5,1.2s0.2,0.9,0.2,1.4
			c0,0.5-0.1,0.9-0.2,1.4s-0.3,0.8-0.5,1.2C58.9,144.8,58.6,145.1,58.2,145.3z M55.7,143.8c0.3,0.5,0.7,0.7,1.2,0.7
			c0.6,0,1-0.2,1.2-0.7c0.3-0.5,0.4-1.1,0.4-1.9c0-0.5-0.1-0.9-0.1-1.3c-0.1-0.4-0.3-0.7-0.5-1c-0.3-0.3-0.6-0.4-1-0.4
			s-0.7,0.1-1,0.4s-0.4,0.6-0.5,1c-0.1,0.4-0.1,0.8-0.1,1.3C55.3,142.6,55.4,143.3,55.7,143.8z"/>
	</g>
	<g>
		<g>
			<path class="st7" d="M190.2,54.6c-11.3-2.7-35,0.2-49,15.6"/>
			<g>
				<path class="st2" d="M141.3,70.1c0.4,0,0.8,0.2,1.1,0.5c-0.6-0.1-1.2,0-1.7,0.3c0.2-0.6,0.2-1.2,0.1-1.8
					C141,69.4,141.2,69.8,141.3,70.1z"/>
			</g>
		</g>
	</g>
	<g>
		<g>
			<path class="st8" d="M67.7,134.4c18.3,0,71-2.5,97.2-30.1"/>
			<g>
				<path class="st2" d="M164.9,104.4c-0.4,0-1-0.3-1.3-0.6c0.7,0.1,1.5,0,2.1-0.2c-0.3,0.7-0.3,1.4-0.2,2.2
					C165.2,105.3,164.9,104.8,164.9,104.4z"/>
			</g>
		</g>
	</g>
	<g>
		<g>
			<path class="st9" d="M190.2,136.3c-10.5,4.4-24.5,6.5-38.5,2.4"/>
			<g>
				<path class="st2" d="M151.9,138.8c0.4,0.8,0.4,2,0.2,2.8c-0.5-1.3-1.3-2.6-2.4-3.5c1.4-0.1,2.7-0.9,3.9-1.7
					C153.2,137.3,152.7,138.3,151.9,138.8z"/>
			</g>
		</g>
	</g>
	<g>
		<g>
			<path class="st10" d="M67.7,22.1C85.4,20.8,97,22.9,110.3,38"/>
			<g>
				<path class="st2" d="M110.2,37.8c0-0.7,0.6-1.4,1.1-1.9c-0.2,1.1-0.2,2.2,0.1,3.2c-1-0.5-2.1-0.6-3.2-0.5
					C108.7,38.2,109.5,37.8,110.2,37.8z"/>
			</g>
		</g>
	</g>
	<g>
		<g>
			<path class="st11" d="M66.6,109.4c10.2,4.7,57.7,10.1,89.4-10.3"/>
			<g>
				<path class="st2" d="M155.9,99.2c-0.6-0.1-1.2-0.7-1.5-1.2c0.9,0.3,1.9,0.5,2.8,0.3c-0.6,0.8-0.8,1.8-0.9,2.7
					C156,100.5,155.7,99.8,155.9,99.2z"/>
			</g>
		</g>
	</g>
	<g>
		<g>
			<path class="st12" d="M66,53.8c14.4-4,25-4.2,44,1.5"/>
			<g>
				<path class="st2" d="M109.9,55.2c-0.1-0.2-0.1-0.4,0-0.6c0.1,0.3,0.3,0.6,0.5,0.8c-0.3,0-0.6,0.2-0.9,0.4
					C109.6,55.5,109.7,55.3,109.9,55.2z"/>
			</g>
		</g>
	</g>
	<g>
		<g>
			<path class="st13" d="M66,83.4c6.4-7.2,29.8-22.2,53.5-16.2"/>
			<g>
				<path class="st2" d="M119.3,67.2c-0.4-0.6-0.3-1.6-0.2-2.3c0.4,1,1.1,2,2,2.7c-1.1,0.2-2.1,0.8-3.1,1.4
					C118.3,68.4,118.7,67.6,119.3,67.2z"/>
			</g>
		</g>
	</g>
</g>
</svg>
