<?xml version="1.0" encoding="utf-8"?>
<!-- Generator: Adobe Illustrator 19.2.0, SVG Export Plug-In . SVG Version: 6.00 Build 0)  -->
<svg version="1.1" id="Layer_1" xmlns="http://www.w3.org/2000/svg" xmlns:xlink="http://www.w3.org/1999/xlink" x="0px" y="0px"
	 viewBox="0 0 266.2 169.3" style="enable-background:new 0 0 266.2 169.3;" xml:space="preserve">
<style type="text/css">
	.st0{fill-rule:evenodd;clip-rule:evenodd;fill:#0D92FF;}
	.st1{fill:none;stroke:#00325C;stroke-width:0.19;stroke-miterlimit:10;}
	.st2{fill:#00325C;}
	.st3{fill:none;stroke:#00325C;stroke-width:0.505;stroke-miterlimit:10;}
	.st4{fill:none;stroke:#00325C;stroke-width:0.26;stroke-miterlimit:10;}
	.st5{fill:#787878;}
	.st6{fill:#0D92FF;}
	.st7{fill:none;stroke:#00325C;stroke-width:0.35;stroke-miterlimit:10;}
	.st8{fill:none;stroke:#00325C;stroke-width:0.44;stroke-miterlimit:3;}
	.st9{fill:none;stroke:#00325C;stroke-width:1.305;stroke-miterlimit:10;}
	.st10{fill:none;stroke:#00325C;stroke-width:0.285;stroke-miterlimit:10;}
	.st11{fill:none;stroke:#00325C;stroke-width:0.345;stroke-miterlimit:10;}
	.st12{fill:none;stroke:#00325C;stroke-width:0.305;stroke-miterlimit:10;}
	.st13{fill:none;stroke:#00325C;stroke-width:0.42;stroke-miterlimit:10;}
</style>
<g>
	<g>
		<polygon class="st0" points="133.2,36.4 133.3,36.4 133.3,36.2 133.1,36.1 133,36.1 132.8,36.3 132.9,36.5 133,36.5 		"/>
		<polygon class="st0" points="133.7,36.2 133.8,36 133.7,35.9 133.6,36 133.6,36.1 133.5,36.1 133.4,36.2 133.5,36.3 133.6,36.2 		
			"/>
		<polygon class="st0" points="133.4,36.6 133.7,36.6 133.8,36.6 133.9,36.7 133.7,36.5 133.5,36.4 133.4,36.5 133.2,36.8 
			132.9,37.2 132.9,37.5 132.9,37.5 		"/>
		<polygon class="st0" points="115.4,69.8 115.5,69.7 115.4,69.6 115.4,69.5 115.3,69.4 115.2,69.4 115.1,69.4 115,69.6 114.9,69.9 
			114.8,70 114.8,70 114.7,70.1 114.7,70.2 114.6,70.2 114.5,70.2 114.4,70.2 114.4,70 114.1,70 113.9,70 113.9,70.1 113.8,70.2 
			113.8,70.2 113.8,70.2 113.8,70.2 113.8,70.2 113.6,70.3 113.5,70.2 113.3,70.2 113.1,70.1 113,70.1 112.8,70.1 112.6,70.2 
			112.4,70.3 112.3,70.5 112.4,70.8 112.5,71 112.7,71.1 113.5,71.1 113.6,71.1 113.6,71 113.6,70.8 113.8,71 114.2,70.8 114.3,71 
			114.4,70.7 114.5,70.7 114.6,70.9 114.7,70.9 114.8,71 114.9,71.2 114.9,71.3 115,71.3 115.1,71.3 115.2,71.3 115.2,71.4 
			115.4,71.3 115.3,71 115.2,70.8 115,70.8 115.1,70.7 115.3,70.6 115.4,70.5 115.4,70.2 115.4,70.1 115.4,70 		"/>
		<polygon class="st0" points="120,75.9 119.8,75.6 119.7,75.5 119.6,75.4 119.5,75.5 119.5,75.6 119.4,75.7 119.5,75.9 119.8,76.3 
			119.9,76.3 120.1,76.2 120,76.1 		"/>
		<polygon class="st0" points="114.1,76 114.1,76.2 114.3,76.3 114.3,76.1 114.2,75.9 		"/>
		<polygon class="st0" points="121.6,77 121.6,77.1 121.5,77.1 121.5,77.1 121.5,77.2 121.5,77.3 121.5,77.3 121.6,77.4 121.6,77.3 
			121.6,77.1 121.6,77.1 121.7,77.1 121.7,77.2 121.7,77.1 		"/>
		<polygon class="st0" points="110.5,62.1 110.5,62.2 110.4,62.2 110.4,62.3 110.5,62.4 110.6,62.3 110.6,62.2 110.6,62.2 		"/>
		<polygon class="st0" points="112.2,72.9 112.2,72.8 112.2,72.6 112.1,72.6 112,72.8 112,72.9 111.9,73 111.8,73 111.9,73.1 
			112,73.2 112.2,73.2 112.3,73.1 112.3,73 112.3,73 112.3,72.9 		"/>
		<polygon class="st0" points="109.9,67 109.9,67 109.9,67 109.8,66.8 109.6,66.9 109.4,67.4 109.5,67.7 109.7,67.7 109.9,67.5 
			110,67.2 110,67 		"/>
		<polygon class="st0" points="133,129.3 132.9,129.2 132.8,129.2 132.7,129.2 132.7,129.2 132.6,129.2 132.4,129.2 132.5,129.4 
			132.6,129.4 132.7,129.5 132.8,129.4 132.9,129.5 133.1,129.5 133.2,129.5 133.3,129.4 133.2,129.4 		"/>
		<polygon class="st0" points="137.9,153.1 137.9,153.1 137.8,153.1 137.8,153.1 137.8,153.2 137.8,153.3 137.9,153.3 138,153.3 
			138,153.3 138,153.2 		"/>
		<polygon class="st0" points="135.7,157.2 135.7,157.2 135.7,157.2 135.6,157.2 135.2,157.1 135.1,157.1 134.9,157.1 134.8,157.1 
			134.9,157.2 135.1,157.2 135.4,157.4 135.5,157.4 135.5,157.4 135.6,157.4 135.7,157.4 135.7,157.3 135.7,157.2 		"/>
		<polygon class="st0" points="163,125.9 163.1,125.7 163.5,125.5 163.6,125.5 163.7,125.5 163.7,125.4 163.8,125.3 163.4,125.2 
			162.9,125 162.6,125 162.5,125 162.1,125.4 161.7,125.6 161.6,125.7 161.4,125.8 160.7,126.1 160.4,126.1 160.3,126.1 
			160.1,126.1 160,126 160,125.8 160,125.5 160,125.4 159.9,125.4 160,125.5 159.9,125.6 159.9,125.6 159.9,125.6 160,125.7 
			159.6,126.4 159.4,126.7 158.9,126.9 158.7,127 158.5,127 158.4,127 158.3,126.9 158.2,126.8 158.2,126.7 158.1,126.7 
			157.8,126.7 157.6,126.7 157.4,126.7 157.4,126.6 157.2,126.4 157.1,126.3 156.9,126.3 156.8,126.3 156.7,126.4 156.6,126.5 
			155.8,126.6 155.7,126.7 155.4,126.6 155.3,126.7 154.9,127.1 154.6,127.4 154.3,127.6 153.2,128 152.8,128.1 152.5,128 
			152,128.2 151.5,128.3 151,128.4 149.9,128.2 149.6,128.3 149.4,128.3 149.2,128.3 149,128.2 148.6,128 148.5,128.1 147.9,128.2 
			147.8,128.3 147.6,128.4 147.5,128.5 147.1,128.6 146.7,128.8 146.5,128.8 145.9,128.8 145.7,128.8 145.7,128.7 145.7,128.7 
			145.8,128.7 145.6,128.6 145.2,128.5 144.9,128.4 144.6,128.1 144.3,128 144.3,127.9 144.2,127.7 144.2,127.6 144.2,127.4 
			143.9,127.2 142.8,127.3 142.7,127 142.6,126.9 142.6,126.5 142.6,126.4 142.2,126.2 142.2,126.1 142.2,126 142.2,126 
			142.1,125.9 142.1,126 141.9,126 141.7,126.1 141.6,126.1 141.5,126.2 141.4,126.1 141.3,126.4 141.1,126.5 140.8,126.5 
			140.6,126.4 140.3,126.3 140.2,126.3 140.1,126.3 140,126.4 140,126.5 140,126.6 139.7,126.9 139.7,127 139.8,127.1 139.8,127.2 
			139.8,127.3 139.8,127.4 139.8,127.5 139.7,127.6 139.4,127.8 138.7,128.1 138.3,128.2 138,128 138,127.9 137.9,127.8 
			137.6,127.7 137.5,127.6 137.2,127.2 137,126.6 137,126.4 136.9,126.4 136.7,126.4 136.7,126.3 136.6,126.5 136.6,126.8 
			136.6,127.1 136.4,127.2 136.3,127.2 136.2,127.2 136.1,127.2 136,127.3 136,127.5 135.8,127.6 135.5,127.8 135.3,127.7 
			135,127.9 134.8,128.2 134.5,128.3 134.6,128.4 134.6,128.6 134.5,128.8 134.5,129.1 134.2,129.5 134.2,129.5 134.2,129.5 
			134.2,129.6 134.2,129.7 134.3,129.9 134.3,129.9 134.3,130 134.3,130.2 134.3,130.2 134.2,130.6 134.2,130.6 134.2,130.6 
			134,130.7 134,130.7 133.9,130.8 133.9,130.9 134,131.1 134.1,131.2 134.1,131.3 134.2,131.5 134.2,131.6 134.2,131.8 134.3,132 
			134.4,132.2 134.6,132.4 134.8,132.5 135.1,132.5 135.3,132.6 135.4,132.8 135.8,133.4 136,133.6 136.4,133.6 137.1,133.5 
			137.9,133.5 138.6,133.6 138.9,133.7 139.2,134 139.2,134.1 139.3,134.3 139.3,134.4 139.4,134.4 139.5,134.4 139.7,134.4 
			140.8,134.5 140.8,134.6 140.9,134.7 141,134.8 141.1,134.8 141.2,134.9 141.3,135 141.5,135.1 141.5,135.2 141.8,135.6 
			141.9,135.7 142,135.7 142.1,135.8 142.2,135.9 142.6,136.2 143.1,136.5 143.4,136.7 143.7,136.8 144.1,136.9 144.5,137 
			144.7,137.2 145.5,138 145.8,138.2 146.1,138.3 146.5,138.4 146.9,138.5 147.5,139 147.9,139.1 148,139 148.1,138.9 148.2,138.9 
			149.3,138.8 149.6,138.9 150.4,139.2 151,139.7 151.9,140.5 152.1,140.8 152.9,142.4 153,142.5 153.7,142.7 153.8,142.7 
			154,142.8 154.6,143 154.7,143.1 154.8,143.3 155.3,143.4 155.5,143.6 155.6,143.5 155.6,143.5 155.7,143.6 156.3,143.3 
			156.6,143.3 157,143.4 157.3,143.6 157.6,143.7 157.7,143.7 157.7,143.6 157.8,143.6 157.9,143.6 158,143.7 158.1,143.8 
			158.2,144 158.4,144.1 158.6,144.1 158.8,144.1 159,143.9 159,143.8 158.8,143.1 158.6,142.7 158.6,142.5 158.7,142.4 
			158.7,142.2 159.2,141 159.3,140.8 159.5,140.7 159.7,140.7 159.8,140.6 160,140.5 160.2,140.5 160.2,140.4 160.2,140.3 
			160.2,140.3 160.3,140.2 160.2,140.2 160.5,140 160.6,140 160.6,140 160.7,140.1 160.8,140 160.8,139.8 160.7,139.7 160.6,139.7 
			160.4,139.7 160.3,139.6 160.3,139.5 160.4,139.4 160.5,139.4 160.6,139.2 160.5,139 160.4,138.9 160.2,138.9 160,138.8 
			159.9,138.6 159.8,138.4 160,138.4 160,138.3 159.9,138.3 159.7,138.4 159.5,138.1 159.4,137.8 159.6,137.5 159.5,137.4 
			159.6,137.3 159.7,137.3 159.8,137.4 159.8,137.6 159.8,137.5 159.9,137.4 160,137.3 160.1,137.5 160.1,137.2 159.9,137 
			159.7,136.9 159.4,136.8 158.7,136.4 158.7,136.3 158.6,136.2 158.6,136 158.5,134.8 158.6,134.6 158.6,134.4 158.8,134.1 
			159.2,133.6 159.4,133.2 159.4,132.9 159.5,132.6 159.6,132.3 159.6,132.2 159.7,132.1 159.8,132 159.7,131.8 159.6,131.6 
			159.6,131.5 159.7,131.3 160,130.9 160.2,130.7 160.3,130.5 160.5,130.1 161.4,128.8 162.4,127.5 162.6,126.9 163.1,126.2 
			162.9,126.2 162.9,126 		"/>
		<polygon class="st0" points="130.6,128.9 130.5,128.7 130.4,128.6 130.2,128.6 130.2,128.7 130.3,128.8 130.4,129 130.5,129.1 
			130.6,129.1 130.6,129 		"/>
		<polygon class="st0" points="130.3,142.4 129.9,142.1 129.8,142.2 129.8,142.2 129.7,142.2 129.6,142.1 129.6,142.1 129.5,142 
			129.5,142 129.4,142 129.3,142 129.3,142.1 129.2,142.1 129.2,142.3 129.3,142.5 129.3,142.6 129.5,142.9 129.9,143.1 
			130.2,143.1 130.4,142.8 130.4,142.6 		"/>
		<polygon class="st0" points="151.8,122 151.6,122.1 151.7,122.2 151.8,122.2 		"/>
		<polygon class="st0" points="157.3,122.4 157,122.4 156.9,122.5 156.8,122.7 156.8,122.9 156.9,123 157,123 157.1,123.1 
			157.2,123.2 157.4,123.2 157.4,123.1 157.4,123.1 157.3,123 157.3,122.9 157.5,122.9 157.5,122.8 157.5,122.8 157.4,122.7 
			157.3,122.6 157.4,122.5 		"/>
		<polygon class="st0" points="156.4,122.2 156.5,122.1 156.5,121.9 156.5,121.9 156.6,121.8 156.5,121.7 156.3,121.7 156,121.7 
			155.8,121.8 156.1,122 		"/>
		<polygon class="st0" points="159.7,119.4 159.8,119.4 159.8,119.3 159.9,119.2 159.9,119.2 159.9,119.1 159.9,119 159.8,119 
			159.7,119 159.7,119 159.7,119 159.6,119.1 159.5,119.1 159.5,119.2 159.5,119.2 159.6,119.4 		"/>
		<polygon class="st0" points="153.8,122 153.9,122 153.9,121.9 153.8,121.9 153.8,121.7 153.7,121.7 153.5,121.6 153.5,121.6 
			153.5,121.8 153.6,121.9 		"/>
		<polygon class="st0" points="157.3,123.4 157.2,123.7 157.2,123.9 157.4,124 157.6,124.3 157.7,124.2 157.8,124.1 157.7,123.9 
			157.7,123.8 157.6,123.7 157.4,123.6 157.4,123.4 		"/>
		<polygon class="st0" points="140.8,120.4 141,120.2 141,120.2 140.9,120.1 140.7,120.1 140.6,120.2 140.6,120.3 140.6,120.4 
			140.7,120.4 		"/>
		<polygon class="st0" points="105.2,89.8 105.2,89.8 105.3,89.8 105.3,89.8 105.3,89.8 105.4,89.8 105.4,89.6 105.3,89.5 
			105.3,89.5 105.2,89.6 105.2,89.7 		"/>
		<polygon class="st0" points="106.1,89.6 106.1,89.5 106,89.4 105.9,89.4 105.9,89.5 105.8,89.5 105.8,89.5 105.8,89.6 105.7,89.7 
			105.7,89.7 105.6,89.8 105.6,89.8 105.6,89.9 105.6,90 105.8,90.1 106.1,90 106.1,89.9 106.1,89.9 106.1,89.8 106.1,89.7 		"/>
		<polygon class="st0" points="105.2,89.2 105.3,89.2 105.3,89.3 105.4,89.2 105.4,89.1 105.2,89.1 		"/>
		<polygon class="st0" points="105.6,88.9 105.6,88.9 105.5,88.9 105.5,89 105.4,89 105.5,89.1 105.5,89 105.6,89.1 105.6,89.1 
			105.6,89 105.6,88.9 105.6,88.9 		"/>
		<polygon class="st0" points="105.8,90.2 105.8,90.2 105.8,90.3 105.9,90.3 105.9,90.3 105.9,90.4 106,90.2 105.9,90.1 105.9,90.1 
					"/>
		<polygon class="st0" points="105.4,89 105.3,88.9 105.3,88.9 105.3,88.9 105.3,88.9 105.2,88.9 105.2,88.9 105.2,89 105.2,89 
			105.3,89 105.3,89 105.4,89 		"/>
		<polygon class="st0" points="97.3,115.9 97.2,115.9 97.2,116 97.1,116 97.1,115.9 97.1,115.9 97,115.5 96.7,115.5 96.4,115.5 
			96.2,115.3 96,115.6 96,115.7 96.1,115.7 96.1,115.7 96.1,116 96.2,116.4 96.6,117 96.6,117 96.6,117.1 96.6,117.2 96.7,117.2 
			96.8,117.2 96.9,117.1 97,116.8 97,116.4 97.1,116.2 97.1,116.1 97.1,116.1 97.3,115.9 97.3,115.9 		"/>
		<polygon class="st0" points="95.7,114.4 95.5,114.5 95.1,114.6 95,114.7 94.9,114.9 95,115 95.2,115.3 95.2,115.3 95.2,115.5 
			95.3,115.5 95.5,115.6 95.7,115.5 95.7,115.3 95.7,114.8 		"/>
		<polygon class="st0" points="95.2,91.8 95.1,92 95,92.1 94.9,92.2 94.9,92.3 94.9,92.5 94.8,92.6 94.8,92.7 95.1,92.7 95.2,92.4 
			95.2,92.1 95.4,91.9 95.9,91.8 96,91.7 96,91.6 96,91.4 95.9,91.3 95.9,91.3 95.9,91.2 95.9,91.1 95.7,91.2 95.7,91.2 95.7,91.3 
			95.6,91.3 95.5,91.3 95.4,91.3 95.4,91.5 95.4,91.6 95.4,91.8 		"/>
		<polygon class="st0" points="106.2,90.4 106.3,90.4 106.3,90.4 106.4,90.5 106.5,90.5 106.5,90.4 106.5,90.4 106.5,90.3 106.5,90 
			106.5,89.9 106.5,89.8 106.5,89.7 106.4,89.7 106.4,89.7 106.3,89.8 106.2,89.9 106.2,90 106.3,90.1 106.2,90.4 		"/>
		<polygon class="st0" points="109.7,98.3 109.4,98 109.4,97.9 109.4,97.8 109.3,97.7 109.2,97.7 109.2,97.7 109.1,97.6 109.1,97.4 
			109,96.7 109,96.5 108.7,96 108.7,95.7 108.6,95.6 108.4,95.2 108.3,95.1 108.3,95.2 108.2,95.1 108.2,95 108.4,94.9 108.5,94.9 
			108.5,94.9 108.4,94.7 108.5,94.6 108.8,94.5 108.7,94.5 108.6,94.5 108.5,94.4 108.4,94.3 108.3,94.4 108.2,94.4 108.2,94.3 
			108.2,94.1 108.1,94.1 107.8,93.9 107.8,93.9 107.9,93.8 108,93.8 108,93.7 108.1,93.6 107.9,93.6 107.7,93.6 107.6,93.7 
			107.4,93.8 107.4,93.8 107.2,93.6 107.1,93.6 107,93.6 106.9,93.7 106.8,93.7 106.8,93.5 106.9,93.5 106.8,93.5 106.8,93.4 
			107.3,93.5 107.4,93.4 107.4,93.3 107.5,93.1 107.5,92.9 107.5,92.7 107.7,92.6 107.8,92.6 108,92.7 108.1,92.7 108.2,92.6 
			108.1,92.5 107.8,92.4 107.6,92.4 107.4,92.5 107.4,92.5 107.3,92.5 107.3,92.4 107.3,92.5 107.3,92.5 107.3,92.5 107.2,92.5 
			107.3,92.3 107.2,92.2 107.1,92.2 107,92.3 107,92.4 106.8,92.4 106.9,92.2 107.1,91.5 107.1,91.6 107.1,91.6 107.2,91.7 
			107.3,91.6 107.3,91.4 107.3,91.3 107.4,91.2 107.3,91.1 107.3,91.2 107.3,91.1 107.3,91.1 107.2,91.1 107.2,91.2 107.1,91.1 
			107.1,91.1 107,91 107,90.9 107,90.8 106.9,90.8 106.9,90.9 106.8,90.9 106.7,90.9 106.6,90.9 106.4,90.8 106.3,90.9 106.4,90.9 
			106.4,91 106.4,91 106.5,91.1 106.4,91.2 106.3,91.3 106.2,91.5 106.1,91.2 106.2,91.1 106.2,91 106.1,90.9 106.1,90.8 106,90.7 
			105.9,90.7 105.9,90.6 105.9,90.6 106,90.5 106,90.5 106,90.4 105.9,90.4 105.8,90.4 105.8,90.4 105.7,90.3 105.7,90.4 
			105.4,90.1 105.2,90 105.2,90.3 105,90.2 105,90.2 104.9,90.2 104.9,90.2 104.7,90.2 104.7,90.2 104.8,90.1 104.8,90.1 
			104.7,89.9 104.7,89.9 104.6,90 104.6,90.1 104.6,90.2 104.7,90.2 104.6,90.2 104.6,89.7 104.5,89.6 104.4,89.6 104.3,89.6 
			104.3,89.5 104.2,89.4 104.1,89.5 103.9,89.6 103.7,89.7 103.6,89.9 103.6,90.4 103.6,90.6 103.4,90.8 103.4,90.7 103.1,90.9 
			103,91 102.3,91.1 102.2,91.1 102,91.4 101.9,91.6 101.7,91.8 101.6,91.8 101.5,91.9 101.4,92.1 101.4,92.2 101.3,92.2 101,92.3 
			101,92.4 101,92.4 101,92.4 101.1,92.4 100.9,92.5 100.6,93.1 100.5,93.3 99.9,93.7 99.8,93.6 99.6,93.6 99.4,93.6 98.8,93.9 
			98.7,94.1 98.6,94.3 98.4,94.4 97.7,94.7 97.5,94.8 97.3,94.8 96.7,94.6 95.7,94.5 95.4,94.3 95,93.7 95,93.6 95,93.4 95,93.3 
			95,93.2 95,93.1 94.9,93.1 94.8,93.1 94.8,92.9 94.7,92.9 94.6,93.1 94.5,93.3 94.5,93.5 94.6,93.6 94.8,93.7 94.8,93.9 
			94.8,94.1 94.8,94.3 94.1,95.9 94.2,96 94.3,96.1 94.4,96.3 94.4,96.3 94.5,96.4 94.6,96.4 94.7,96.4 94.6,96.5 94.6,96.5 
			94.6,96.5 94.5,96.8 94.4,97 94.3,97.1 94.1,97.2 94.1,97.3 94.2,97.6 94.2,97.8 94.3,98 94.4,97.7 94.5,97.4 94.6,97.3 
			94.8,97.4 94.7,97.5 94.6,97.8 94.8,97.9 95.3,97.6 95.5,97.6 95.7,97.8 95.8,98.1 95.8,98.4 95.9,98.6 96.1,98.7 96.2,98.8 
			96.4,99.1 96.5,99.4 96.5,99.7 96.4,100.3 96.4,100.5 96.6,100.7 96.7,100.6 96.9,100.8 97.1,101 97.2,101.2 97.2,101.6 
			97.1,102.2 97.1,102.8 97.2,103 97.3,103.3 97.4,103.5 97.3,103.7 97.3,103.9 97.2,104 97.1,104.1 97,104.1 96.9,104.2 
			96.6,104.2 96.6,104.2 96.4,104.3 96.3,104.4 96.4,104.4 96.5,104.3 96.6,104.5 96.6,104.7 96.5,104.9 96.5,105.1 96.6,105.5 
			96.5,105.6 96.5,105.7 96.5,105.7 96.5,105.8 96.5,105.9 96.5,105.9 96.6,105.9 96.7,106.1 96.8,106.2 96.9,106.3 96.8,106.4 
			96.9,106.5 97,106.2 97,106.1 97.1,106 97.1,106 97,106 97,106 96.9,106.1 96.9,106 97.1,105.8 97.4,105.8 97.7,106 97.9,106.2 
			98,106.4 98,106.5 97.9,106.9 97.9,107.1 97.8,107.3 97.7,107.5 97.6,107.6 97.7,107.6 97.7,107.5 97.8,107.5 97.8,107.4 
			97.9,107.4 97.8,107.5 97.6,107.7 97.5,107.9 97.5,108.1 97.6,108.2 98.1,108.4 97.8,108.4 97.6,108.4 97.5,108.2 97.2,107.7 
			97.1,107.7 97,107.6 96.9,107.7 97,108 96.9,108.1 96.9,108.2 97,108.3 97,108.9 97.1,109.4 97.1,109.6 97.1,109.8 97.1,109.9 
			97,110.1 96.9,110.5 96.7,110.7 96.5,111 96.4,111.1 96.4,111.2 96.4,111.2 96.6,111.5 96.6,111.6 96.6,111.8 96.5,111.9 
			96.3,112.1 96.3,112.2 96.4,112.5 96.7,112.7 96.7,112.9 96.8,113.1 96.8,113.4 96.3,113.9 96.3,114 96.3,114.1 96.4,114.3 
			96.4,114.3 96.5,114.3 96.5,114.3 96.6,114.5 96.6,114.6 96.6,114.7 96.6,114.7 96.7,114.8 96.7,114.6 96.7,114.6 96.8,114.7 
			96.9,114.8 96.9,114.9 96.9,115.2 96.9,115.3 97,115.3 97.1,115.3 97.2,115.5 97.3,115.7 97.3,115.7 97.3,115.8 97.5,115.7 
			97.6,115.7 97.5,115.9 97.5,116 97.7,116 97.9,116.1 97.9,116.1 98,116.1 98.1,116.6 98.2,117.2 98.4,117.2 98.5,117.4 
			98.5,117.7 98.4,117.9 98.4,117.9 98.5,118 98.7,118 98.8,118 98.7,118.3 98.8,118.3 98.9,118.3 98.9,118 99,117.8 99.3,117.6 
			99.5,117.5 99.7,117.6 99.9,117.7 100.2,117.9 100.3,118.1 100.3,117.9 100.5,118.1 100.6,118.2 100.7,118.2 100.8,118.1 
			100.9,118 101,117.9 101.1,117.9 101.1,117.9 102.1,116.9 102.1,116.8 102.2,116.8 102.2,116.9 102.3,116.8 102.3,116.8 
			102.4,116.4 102.5,116.1 102.5,116 102.5,116 102.4,115.9 102.3,115.7 102.3,115.5 102.2,115.3 102.3,115 102.3,114.8 
			102.5,114.6 102.8,114.2 102.8,114.2 102.8,114.1 102.8,114 102.6,114.1 102.5,114 102.5,114 102.4,114 102.3,113.9 102.3,113.9 
			102.3,113.8 102.3,113.7 102.2,113.6 102.2,113.6 102.3,113.6 102.5,113.6 102.5,113.7 102.6,113.8 102.7,113.8 102.8,113.8 
			103.2,114.2 103.4,114.4 103.6,114.5 103.7,114.4 103.8,114.3 103.9,114.1 104.1,114 104.4,114.1 104.6,114.1 104.7,114.2 
			104.8,114.1 104.9,114.2 105,114.3 105.1,114.3 105.2,114.3 105.3,114.4 105.5,114.6 105.6,114.7 105.7,114.7 105.9,115 
			106.1,115.1 106.2,115.2 106.2,115.3 106.3,115.3 106.4,115.2 106.6,115.1 106.7,115.1 106.8,115.3 106.8,115.4 106.8,115.4 
			106.8,115.5 106.9,115.5 106.9,115.3 107.1,115.1 107.3,115.1 107.4,115 107.4,114.8 107.5,114.6 107.5,114.5 107.4,114.4 
			107.4,114.4 107.3,114.3 107.4,114.2 107.4,113.9 107.5,113.6 107.7,113.3 108,113.2 108,113.1 107.8,113 107.7,112.9 
			107.7,112.7 107.7,112.5 107.8,112 108,111.3 108.1,111 107.9,110.8 108.2,110 108.2,109.6 108.1,109.1 108.1,109 108.2,108.8 
			108.2,108.7 108.2,108.7 108.3,108.5 108.3,108.3 108.4,108.2 108.4,108 108.3,107.7 108.3,107.5 108.3,107.3 108.4,107 
			108.4,106.7 108.6,106.6 108.6,106.5 108.5,106.5 108.5,106.4 108.4,106.4 108.4,106.3 108.5,106.3 108.4,106.2 108.4,106 
			108.5,105.9 108.6,105.7 108.6,105.7 108.7,105.7 108.7,105.7 108.8,105.6 108.7,105.5 108.7,105.5 108.6,105.5 108.6,105.6 
			108.5,105.2 108.5,104.9 108.9,103.9 108.9,103.8 108.7,103.6 108.5,103.3 108.4,103.3 108.3,103.2 108.2,103 108,102.4 
			107.9,102.3 107.9,101.8 107.9,101.6 108,101.4 108.1,101.2 108.3,101 108.4,100.9 108.6,100.5 108.7,100.3 108.8,100.3 
			109,100.2 109.2,100.1 109.3,99.6 109.5,99.3 109.6,99.1 109.6,98.8 109.7,98.7 109.8,98.5 109.8,98.4 		"/>
		<polygon class="st0" points="103.5,89.6 103.5,89.6 103.4,89.6 103.4,89.7 103.5,89.8 103.5,89.8 103.6,89.7 103.6,89.7 
			103.6,89.7 		"/>
		<polygon class="st0" points="108.7,94.2 108.8,94.3 108.9,94.4 109,94.3 109,94.2 108.9,94.1 108.9,94.2 		"/>
		<polygon class="st0" points="109,93.6 108.9,93.5 108.4,93.9 108.4,94 108.4,94 108.5,94 108.5,94 108.6,94 109,93.7 109,93.6 		
			"/>
		<polygon class="st0" points="107.7,91.8 107.7,91.8 107.7,91.8 107.7,91.7 107.7,91.7 107.7,91.7 107.6,91.7 107.7,91.7 
			107.7,91.8 		"/>
		<polygon class="st0" points="143.1,95.1 143.1,95.1 143,95.2 143.1,95.2 143.2,95.1 		"/>
		<polygon class="st0" points="139.7,92.9 139.7,92.9 139.6,93 139.7,93.1 139.7,93.1 		"/>
		<polygon class="st0" points="139,93.5 139.1,93.4 139.1,93.4 139,93.4 139,93.4 138.9,93.5 138.9,93.5 138.9,93.5 138.9,93.5 
			138.8,93.5 138.7,93.6 138.7,93.6 138.6,93.9 138.7,93.9 138.7,94 138.7,94 138.7,94.1 138.8,94.1 138.8,94 138.9,93.9 
			138.9,93.9 138.8,93.9 138.8,93.8 138.9,93.6 		"/>
		<polygon class="st0" points="137.8,93.4 137.8,93.5 137.8,93.5 137.9,93.5 137.9,93.4 137.9,93.3 137.9,93.2 137.8,93.3 
			137.8,93.3 137.8,93.3 		"/>
		<polygon class="st0" points="150.7,98.2 150.8,98.2 150.9,98.1 150.8,98 150.5,98 150.4,98 150.3,98 150.2,98.2 150.4,98.3 
			150.6,98.2 		"/>
		<polygon class="st0" points="148.4,95.8 148.5,95.8 148.5,95.7 148.5,95.7 148.5,95.8 148.6,95.8 148.6,95.7 148.6,95.7 
			148.7,95.7 148.6,95.6 148.7,95.6 148.7,95.6 148.8,95.6 148.7,95.5 148.6,95.5 148.6,95.4 148.6,95.4 148.5,95.5 148.5,95.5 
			148.5,95.6 148.5,95.7 		"/>
		<polygon class="st0" points="147.1,95.9 147.1,96.1 147.1,96.2 147.4,96.3 147.4,96.4 147.6,96.3 147.7,96.2 147.8,96.2 
			147.9,96.3 148.1,96.2 148.1,96.1 148.1,96 148.1,95.9 148.1,95.9 148,95.7 147.4,95.5 147.2,95.5 147.2,95.7 147.2,95.7 
			147.2,95.8 		"/>
		<polygon class="st0" points="162.3,79 162.3,78.9 162.3,78.8 162.2,78.8 162.2,78.8 162.2,78.8 162.1,78.9 162.1,79 162.2,79.1 		
			"/>
		<path class="st0" d="M190.3,103.3L190.3,103.3l0-0.2l-0.1,0l0-0.1l0-0.1l-0.6-1.4l-0.6-0.9l-0.1-0.1l-0.2-0.1l-0.1-0.2l-0.2-0.4
			l-0.3-0.3l-0.1-0.1l-0.2-0.3l-0.1,0l-0.2,0l-0.9-0.5l-0.8-0.6l0.1-0.5l0-0.1l-0.2-0.2l0-0.1l0-0.1l0-0.1l-0.1,0l-0.2,0.1l-0.1,0
			l0-0.3l-0.3-0.2l-0.7-0.1l-0.9-0.7l-1-0.4l-0.1-0.1l-0.8-0.2l-0.3-0.2l-0.2-0.1l-0.1-0.1l-0.6-0.6l-0.3-0.3l-0.2-0.1l-0.1-0.1
			l-0.4-0.5l-0.3-0.3l-0.7-0.5l-1.4-0.7l-1.6-0.5l-0.2-0.2h-0.1V91h-0.1l-0.2-0.2l-2.2-0.7l-0.4-0.3l-0.1-0.1l-0.2-0.1l-0.6-0.2
			l-1.5-0.8l-1.7-0.8l-0.1-0.1l-0.1-0.1l-0.6-0.2l-0.6-0.4l-0.3-0.2l-0.2-0.3L166,86l0-0.5l0.1-0.5l0.2-0.3l0.9-0.5l0.3-0.3l0.2-0.3
			l0.2-0.1l0.2-0.1l0.2-0.1l0.2-0.2l0.2-0.2l0.1-0.1l0-0.2l0-0.2l-0.1-0.5l-0.1-0.2l0-0.2l-0.2,0l-0.2-0.3l-0.3-0.1l0,0l-0.8-0.2
			l-2.3,0.3l-1.5-0.1l-1.5,0.3l-0.4,0l-1.1-0.3l-1.1,0l-0.2,0l-0.2,0l-0.2-0.1l-0.4-0.3l-0.2-0.1l-0.1-0.1l-0.3-0.3l-0.1-0.1
			l-0.4-0.1l-0.8-0.1l-0.3-0.2l-0.3-0.3l-0.2-0.1l-0.2,0v0l-0.1,0l-0.2-0.1l-0.1-0.2l-0.1-0.2l-0.1-0.5l-0.1-0.2l-0.1-0.1l-0.4-0.1
			l-0.5-0.2l-0.3-0.2l-1.2-1.2l-0.4-0.6l-0.3-0.3l-0.7-0.4l-0.6-0.5l-1.3-1.6l-0.1-0.1l-0.1-0.2l-0.6-0.9l-0.2-0.4l-0.3-0.9
			l-0.4-1.3l-0.4-1.3l-0.2-1.1l-0.1-0.4l-0.3-0.6l-0.1-0.2l0-0.1l-0.1-0.5l0-0.1l-0.1-0.3l-1.3-3.4l0.1-0.2l-0.1-0.2l-0.2-0.1
			l-0.2,0l-0.1-0.1l-0.1-0.2l-0.1-0.2l-0.2-0.1l0,0l0-0.1l0-0.1l-0.1,0l-0.1,0l0,0l0,0l0,0l-0.1,0l-0.1,0.1l-0.1,0.1l-0.2-0.1
			l-0.4-0.2l-0.1-0.1l-0.2-0.1l-1.1-0.7l-2.8-2.5l-0.1-0.1l-0.1-0.1l-0.6-0.3l-0.4-0.3l-0.2-0.1l-0.4-0.1l0,0l-0.4-0.1l-0.2-0.1
			l-0.3-0.2l-0.3-0.3l-0.5-0.7l-0.2-0.1l-0.3-0.3l-0.3-0.3l-0.2-0.3l-0.4-0.4l-0.3-0.4l-0.2-0.4l-0.2-0.5l-0.1-0.3l0-0.3l0-0.1
			l-0.1-0.2l0-0.1l0-0.1l0-0.3l-0.3-1.3l0-0.6l0.1-0.9l0-0.1l-0.1-0.1l-0.1-0.2l-0.1-0.4l-0.1-0.6l0.1-0.5l0.2-0.9h-0.1v-0.1
			l0.2-0.2l0.1,0l0.2,0.1l0.2,0.2l0.1,0.1l0.2,0.2l0.2,0l0,0l0.2-0.1l0.1-0.2l-0.1,0l-0.1-0.1l-0.1,0v-0.1l0.1,0l0.1-0.1l0-0.1
			l-0.2-0.1l0-0.1l0.1-0.2l0-0.1l0.1-0.1l0.1-0.1l0.1,0.1l0,0.1l0,0.2l-0.1,0.3l0.1,0.1l0.1,0.1l0,0.1l0,0.1l0.3-0.3l0.1-0.2
			l0.1-0.2l0-0.4l0-0.1l0.1,0h0.1l0-0.1l0-0.1l0.1-0.1l0-0.1l0.1-0.1l0-0.1l-0.1-0.1l-0.1-0.1l-0.1,0l-0.2,0v0.1l0,0l0.1,0l0,0
			l-0.1,0.1l-0.2-0.2L134,42l-0.1-0.1l-0.1-0.1l-0.1-0.2l0-0.1l-0.1-0.1l-0.2-0.1l-0.1-0.1l0.1,0.2l0.1,0.2l0,0.2l-0.1,0.2l-0.1-0.2
			l0.1,0l0,0l0,0l0.1,0v-0.1l-0.1-0.2l-0.1-0.2l-0.1-0.2l-0.2-0.2l0,0.1l0,0l0,0l-0.2,0l-0.1-0.1l0-0.2l0.1-0.3v0.1l0,0.1l0,0.1
			l0.1,0.1l0.1,0l-0.1-0.5l0-0.4l-0.1-0.2l-0.1-0.2l-0.1-0.2l0.1-0.2l-0.1,0.1l-0.2,0.2l-0.1,0.1l0,0l0,0l0,0l-0.2,0l-0.2-0.1
			l-0.1-0.2l0-0.2l-0.1-0.1l0-0.1l0-0.1l0.1,0l0-0.2l0-0.2l0-0.1l-0.2-0.1l0,0.1l0,0.2l-0.1,0.2l-0.1,0.1l-0.1-0.1l-0.1-0.3
			l-0.1-0.1l0-0.3l0.1,0l0.1,0.1l0.1,0.1l0.2,0l0.1-0.1l0-0.1l0.1-0.2l-0.1-0.2l0,0l0.1,0l0.1,0l0-0.1l0-0.1l0-0.1l0.1-0.1l-0.1-0.1
			l0-0.1l0-0.1l0.1-0.1h-0.1v-0.1l0.2-0.4l0.3-0.3l0.4-0.2l0.3,0l0,0.1l0.1,0l0.2,0l0.1-0.1v-0.1l-0.3-0.1l-0.1-0.1l0.1-0.2l0.1,0.3
			h0.1l0.1-0.1l0.2,0.1l0.2,0v-0.1l-0.1-0.2l0.2-0.2l0.2-0.2l0.2-0.1l0,0.2l0.1,0.1l0.2,0.2l0.1,0l0.2-0.2l0.1,0l-0.1,0.2l-0.1,0.1
			l-0.1,0.1l-0.2,0l-0.1,0.1l0,0.2l0,0.2l-0.2,0v-0.1l0.1,0l0,0l0,0l0,0l0,0l0,0l0,0l-0.1,0l-0.1,0l-0.1,0l0.1,0.2l-0.1,0.1l0,0
			l0-0.1l0-0.1h-0.1l0,0.1l0,0.1l-0.1,0l-0.1,0l0,0.1l-0.1,0.1l-0.1,0.2l-0.1,0.2l0.1,0l0.3-0.2l0.3-0.1l0.1,0l0.2-0.1l0.9-0.3
			l1.6-0.8l1.5-1l0.4-0.1l0.7,0l0.2-0.1l0.1-0.1l0,0l0.1-0.2l0.3-0.3l0.1-0.2l-0.4,0.2l-0.2,0l-0.2-0.1l-0.1-0.2l0.1-0.2l0.2-0.1
			l0.2,0v-0.1l-0.1-0.1l0-0.1l0-0.1l0.1-0.1l0.1,0l0.1,0.2l0.1,0l0.1,0l0.1-0.2l0.3-0.1l0.1,0l0.1,0l0.2,0.2l0.1,0l0.9,0.2l0.2-0.1
			l0.1,0.2l0.4,0.1l0.1,0.2l-0.1,0.1L143,33l-0.2,0.1l-0.1,0l0.2,0.1l0.2-0.1l0.2-0.2l0.2-0.2l0.1-0.1l0.3,0l0.1-0.1l0-0.1l0.3-0.2
			l-0.2,0l0-0.3l0.1-0.3l0.2-0.1l0.2,0l0.5,0.2l0.2,0.1l0.7,0.8L146,33l0.1,0.3l0,0.2l-0.2,0.1l0.4,0.2l0.1,0.1l0.1,0.1l0.1,0
			l-0.2,0l-0.3,0l-0.2,0l-0.1,0.2l-0.1,0.1l0.5,0l0.4,0.2l0.4,0l0.2-0.2l0.2-0.2l0.1-0.2l0,0l0,0l-0.1,0l-0.1-0.1l-0.1-0.1l-0.7-1.2
			l-0.6-0.3l-0.1-0.1l-0.4-0.3l-0.2,0l-0.3,0l-0.3-0.1l-0.1-0.1l-0.1-0.1l0-0.5l0.3-0.6l0.1-0.2l0.1-0.3l0.1-0.3l-0.2-0.3l0,0
			l-0.3,0.1l-0.3,0.1l-0.3,0l-0.3-0.3l0,0l0,0l0,0l0,0l0,0l-0.1-0.1l0.1-0.1l0,0l0.1-0.1l0-0.1l0-0.1l-0.1-0.1l0.2-0.3l0.2-0.1
			l0.9-0.7l0.3-0.5l0-0.1l0-0.1l-0.1,0l-0.1,0l-0.3,0l-0.2,0l-0.3-0.3l-0.2-0.1l-0.3-0.1l-0.1-0.1l-0.3,0l-0.1,0l0.1,0.2l-0.3,0
			l-0.1-0.1l0-0.2l-0.1-0.2l0,0l0,0l-0.1-0.3l-0.1-0.2l-0.1-0.1l0.2-0.2l0-0.1l0.1-0.2l0.1-0.3l0.1-0.1l0.1,0l0.1-0.1l0.2-0.2
			l0.4-0.2l0.2-0.2l0.2-0.3l0.2-0.2l0.3,0l0.2,0l0.2-0.1l0.1-0.2l0,0l0-0.3l0.1-0.1l0-0.1l0-0.1l0-0.1l-0.1,0l-0.1,0l-1.1-0.4
			l-0.4,0l-0.1,0l-0.1-0.1l-0.1,0l-0.6,0l-0.4-0.1l-0.9,0.2l-0.4,0l-0.2-0.1l-0.6-0.4l-0.8-0.2l-2.2-0.2l-0.5-0.3l-0.2-0.1l-0.1,0
			l-0.1,0l-0.1,0.1l-0.1,0l-0.1,0l-0.2-0.1l-0.1,0l0,0l-0.5,0l-0.5,0.1l-0.1,0l-0.2-0.1l-0.3-0.2l-0.3,0l-0.2,0l-0.4-0.2l-0.3-0.3
			l-0.2-0.4l-0.1-0.3l-0.2-0.1l-0.2,0l-0.2-0.1l-0.1-0.1l-0.1-0.1l0-0.1l0-0.2l0-0.2l0-0.1l0-0.1l0-0.2l-0.1-0.3l-0.1-0.1l-0.4,0
			l-0.1,0l-0.1-0.1l-0.1-0.1l-0.1-0.1l-0.1-0.1l-0.2,0l-0.1,0l0.1-0.1l0-0.1l-0.1-0.1l-0.1-0.2l-0.1-0.3l0-0.2l-0.1-0.1l0.1-0.2
			l0.6-0.3l0.2-0.3l0-0.2l0-0.2l-0.2-0.1l-0.4,0.1l-0.2,0L130,15l-0.7,0l-0.4,0.1l-0.4,0.2l-0.3,0.3l-0.4,0.1l-0.1,0.1l-0.2,0.1
			l-0.1,0l-0.2-0.1l-0.3-0.2l-0.2,0l-0.1,0l-0.1,0l0,0h0l-0.5-0.1l-0.2,0l-0.3,0.1h0l0,0h0l-0.1,0l-0.1,0l-0.1,0l-0.1,0l0-0.1
			l-0.1-0.1l-0.1,0l-0.2,0l-0.1,0l-0.1,0.1l-0.1,0.1l0,0l-0.3,0.3l-0.3,0l-0.3-0.1l-0.3-0.1l-0.6,0.1l-0.6,0.2l-0.2,0.1l-0.6,0.6
			l-0.1,0.2l-0.1,0.5l-0.2,0.4l0,0.1l0,0.1l0,0.1l0,0l-0.1,0l0,0l-0.2,0.4l-0.1,0.1l-0.1,0l-0.2-0.1l-0.3,0l-0.2,0l-0.3,0.1l-0.1,0
			l-0.1,0l-0.2-0.1l-0.1,0l-0.1,0l-0.2,0.1l-0.1,0l-0.3-0.2l-0.1,0l-0.2,0.1l-0.1,0l-0.1-0.1l0-0.1l0.2-0.2l0-0.1l-0.1-0.1l-0.7-0.4
			l-0.1,0l-0.2,0l-0.9,0.3l-0.4,0l-0.3-0.2l0,0.4l0,0.1l-0.1,0.1l-0.2,0.2l0,0.2l0.1,0.2l0,0.2l-0.1,0.2l-0.2,0.1l0,0.1l0,0.2l0,0.2
			l-0.1,0.2l-0.1,0.1l0,0.1l0.1,0.3l0.2,0.2l0.4,0l0.2,0.2l0.1,0.3l0,0.3l-0.1,0.3l-0.1,0.1l-0.1,0.1l-0.2,0l-0.7-0.2l-0.3,0l-0.1,0
			l-0.1,0l-0.1-0.1l0-0.1l-0.1-0.1l-0.4-0.1l0-0.1l0.1-0.3l0-0.2l-0.1-0.1l-0.2,0l-0.9,0.3l-0.1,0l0,0.1l-0.1,0.4l-0.1,0.1l-0.2,0.2
			l-0.1,0.1l0,0.1l0,0.3l0,0.1l0,0.1l0,0.1l0,0.1l0.1,0.1l-0.2,0.3l0.1,0.2l0.3,0.1l0.4,0.1l0.2,0.1l0.1,0.1l-0.1,0.3l-0.1,0.1
			l-0.2,0.2l-0.1,0.1l0,0.2l0,0.1l0,0.1l0.1,0.1l0.4,0.4l0.1,0.2l-0.1,0.3l-0.3,0.2l-0.4,0.1l-0.3,0l0-0.3l-0.1-0.2l-0.4-0.3
			l-0.1-0.2l-0.1-0.3l0-0.3l-0.1-0.2l-0.2-0.2l-0.2,0l-0.2,0L110,24l-0.6,0.3l-0.2,0.1l-0.1,0l-0.2-0.1l-0.1,0l-0.1,0.1l0,0.2l0,0.2
			l0,0.1l-0.1,0.2l-0.2,0.1l-1.1,0l-0.2-0.1l-0.2-0.1l-0.1-0.2l-0.2-0.5l-0.1-0.1l-0.2-0.1l-0.1-0.1l0-0.1l0-0.2l-0.1-1.3l0-0.1
			l-0.1,0l-0.1,0.1l-0.1,0.1l0,0.1l0,0.1l-0.1,0l-0.1,0l-0.2-0.2l0-0.2l-0.2,0l-0.5,0.1l-0.2,0.2l-0.2,0.3l-0.1,0.3l0.1,0.2l0.1,0.1
			l0,0.1l0,0.2l0,0.2l0.1,0.5l0,0.2l-0.1,0.3l-0.3,0.6l-0.1,0.5l-0.1,0.1l-0.1,0.1l-0.1,0.1l-0.1,0.1l-0.1,0.1l0,0.2l-0.1,0.1l0,0
			l-0.7,0.5l-0.2,0.3l0,0.2l0,0.3l0,0.2l-0.1,0.1l-0.1,0.1l-0.2,0.1l-0.2,0.2l0,0.2l0.2,0.5l-0.3,0.3l0,0l0,0l0,0l0,0l0.1,0.1
			l0.1,0.2l0.1,0.1l0.1,0.1l0.2,0l0.1,0.1l0.1,0.2l0,0.2l-0.2,0.4l-0.3,0.4l-0.3-0.1l-0.3-0.1l-0.4,0.1l0-0.2l0.1-0.2l0-0.2l0-0.2
			l-0.1-0.2l-0.1-0.2l-0.2-0.3l-0.1-0.2l-0.1-0.1l-0.1,0l-0.5-0.3l-0.1-0.1l-0.2,0l0,0l0-0.1l0.2-0.4l0.3-0.3l0.1-0.3l-0.2-0.3
			l-0.1,0l-0.3,0l-0.1,0l-0.1,0l-0.1-0.1l0,0l0,0l-0.1,0l-0.1,0.1l-0.1,0l-0.2,0l-0.4-0.3l-0.2-0.1l-0.1,0l-0.6-0.9l-0.3-0.3
			L97.3,26l-0.2-0.1l-0.2-0.1l-0.1-0.2l0-0.3l0-0.3l0.2-0.7l0-0.4l0-0.4l0-0.3l-0.1-0.2l-0.3,0l-0.1,0L96,23l-0.3,0.1l-0.2,0.2
			l-0.1,0.2l0,0.1l0.1,0l0,0.1l-0.1,0.1L95.4,24l-0.1,0.1l-0.3,0.1l-0.5,0.6l-0.2,0.1L94,25l-0.2,0.1l-0.2,0.2l-0.1,0.1l0,0.1l0,0.1
			l0.2,0.2l0.3,0.5l0,0.5l-0.2,0.4l-0.4,0.4l-0.1,0l-0.2,0l-0.1,0.1L93,27.8l0,0.2l0,0.1l0,0.4l0,0l-0.1,0.2l0,0l-0.1,0.2L92.6,29
			l-0.1,0l-0.7,0.1l-0.2,0.2l-0.2,0.4l0,0l0,0.1l0,0.1l0,0l-0.1,0.1l-0.1,0L91,30l-0.3,0l-0.4-0.2l-0.1,0l-0.1,0l-0.1,0l-0.1,0l0,0
			l-0.2-0.3l-0.1-0.1l-0.1-0.1l-0.9-0.2l-0.2,0.1l-0.1,0.2l-0.1,0.1l-0.2,0l-0.3,0.1L87.2,30l-0.3,0.1l-0.7-0.1l-0.1,0l-0.3,0.2
			l-0.6,0.2L85,30.6l-0.3,0l-0.3-0.1l-0.2-0.1l-0.4-0.5L83.6,30l-0.1,0.1l-0.1,0.2l-0.1,0.2l-0.1,0.2l-0.2,0.2l-0.2,0.1L82.7,31
			l-0.2,0l-0.1,0l0,0l-0.1,0l0,0l0,0l0,0.1l0,0.1v0l-0.3,0l-0.1,0.1l-0.1,0.2l0,0.2l0,0.2l0,0.2l0.1,0.5l0.2,0.3l0.2,0.2l0.2,0
			l0.1,0l0.2,0.2l0.1,0.1l0.3,0.1l0.1,0.1l0.1,0.2l0,0.1l-0.1,0.2l0,0.1l0,0.1l0.1,0.2l0,0.1l0.1,0.5l0.1,0.2l0.4,0.2l0.4,0.3l0,0
			l0.1,0.1l0.1,0.2l0.1,0.1l0.1,0.1l0.4,0.2l0.1,0.1l0,0.2L85,37.1l-0.2,0.3l-0.3,0.4l0,0.1l0,0.4l0.1,0.3v0.2l-0.3,0.2l-0.2,0.3
			l-0.1,0.1l0,0l-0.1-0.1l-0.1,0l-0.3,0.1l-0.3,0.2l-0.1,0.1l-0.2,0.3l-0.1,0.1l-0.1,0l-0.2,0l-0.1,0l0,0.1l0,0.1l0.1,0.1l0,0.1
			l-0.3,0.1l-0.3-0.1l-0.3-0.2L81.1,40l-0.1,0l-0.2,0.1l-0.1,0l-0.1,0l-0.2,0l-0.1,0l-0.3,0.2l0,0L80,40.6l-0.1,0.1L80,41l0.2,0.1
			l0,0.1l0,0.1l0,0.1l0.1,0.2l0.1,0.1l0.3,0l0.2,0.2l0.1,0.4l0,0.7l0.2,0.3l0.3,0.3l0.6,0.4l0.2,0l0.5-0.1l0.2,0l0.5,0.2l0.2,0.2
			l0,0.1l0,0.1l0,0l0,0l0,0.1l0,0l0,0.2l0,0l0.1,0.3l0,0.3l0,0.1L84,46l0.1,0.2l-0.2,0l-0.3-0.1l-0.2,0l-0.2,0.1L83,46.4L83,46.7
			l0.1,0.3l-0.1,0.1l-0.3,0.6L82.1,48L82,48.2l0,0.4l0.2,0.4l0.3,0.3l0.2,0.2l-0.3,0.2l-0.1,0.1l-0.1,0.4l0,0.1l0,0.1l0,0.1l0,0.1
			l0.2,0.2l0.1,0.1l0.1,0.3l0.1,0.1l0.1,0.1l0.2,0.1l0.1,0.1l0.1,0.1l0,0.1l0,0.1l0.1,0.1l0.1,0.1l0.1,0l0.1,0l0.1,0l0.1,0l0.5,0.3
			l0.4,0.1l1,0.6l0.2,0.1l0.2,0l0.1,0l0.1,0.1l0,0.1l0.1,0.1l0.1,0l0.4,0l1.6-0.5l0.3,0l0.4-0.2l0.3,0.1l-0.1,0.4l0.1,0.2l0.2,0.2
			l0.1,0.2l0,0.1l0,0.2l-0.1,0.1l-0.1,0.1l-0.1,0.1l-0.1,0.2L89.5,55l-0.1,0.1l-0.2,0.2l-0.5,0.4l-0.2,0.3l-0.4,0.4L88,56.8l0,0.3
			l0.2,0.6l0.1,0l0.1,0l0.1,0.1h0.1l0.3-0.1l1.1,0l0.4-0.1l0.5-0.3l1.6-0.4l0.7-0.4l0.2-0.1l0.1-0.1l0-0.1l0-0.1l0.1-0.1l0.1-0.1
			l0.2-0.1l0.3-0.3l0.2-0.1v-0.1l-0.1-0.3l0.2-0.3l0.4-0.5l0.1-0.2l0.1-0.2l0-0.1l0-0.2l0-0.1l0.2-0.3l0.1-0.1l0.1-0.1l0.3-0.2
			l0.5-0.2l0.2-0.1l0.1-0.1l0-0.1l0-0.1l0-0.2l0,0l0.1-0.1l0,0l0-0.1l0-0.1l0.1-0.1l0-0.3l0.2-0.3l0.7-0.5l0.2-0.2l0.1,0l0.2,0
			l0.6-0.4l0.1,0l0.1,0l0.1,0l0.1,0l0.1-0.1l0.3-0.2l0.1-0.1l0.2,0l0.6,0l0.1,0.1l0.1,0l0.2,0l0.4,0l0.1,0l0.3,0.2l0.4,0.2l0.9,0.2
			l0.3,0.1l0.2,0.3l0,0.1l0.2,0.1l0.4,0.2l0-0.2l0-0.2l0.1-0.1l0.1-0.1l0.3,0.2l1,0.5l0.1,0.3l0.4,0.2l0.1,0.1l0.1,0.1l0.2,0l0.2,0
			l0.1-0.1l0,0.2l0.1,0.1l0.1,0.1l0.4,0.2l0.2,0.1l0.1,0.2l0.1,0l0.3,0.4l0.1,0l0.1,0l0.3,0l0.1,0.1l0.3,0.2l0.1,0.1l0.5,0.4
			l0.4,0.2l0.1,0.1l0.1,0.2l0.1,0l0-0.1l-0.1-0.1l0.1-0.1l0,0l0.1,0v-0.1l-0.1,0l-0.1-0.1l-0.1-0.1l0-0.1l0,0l0,0l0,0l-0.1-0.1
			l0.2,0l0.3,0.3l0.1-0.1l0.2,0.2l0.3,0.3l0.1,0.2l0.1,0.1l0.1,0l0.1-0.1l0-0.1l0-0.1l0.1,0l0.2,0.1l0.1,0l0.1,0l0.3,0.2l0.2,0.1
			l0.1,0.1l0.3,0.5l0.4,0.3l0.3,0.4l0.4,0.9l0.1,0.5l0.3,3.1l0.2,1l0.1,0.2l0.3,0.1l0.1,0.2l0.6,0.8l0.7,1.5l0.1,0.3l0,0.3l0,0.5
			l0,0.3l0.1,0.2l-0.1,0.2l0,0.3v0.3l0,0.2l-0.2,0.7l-0.1,0.2l-0.2,0.2l0.2,0.6l0.2,0.2l0.3-0.1l0-0.1l0-0.1l0.4-0.1l0.5,0l0.5,0.1
			l0.6,0.3l0.1,0.1l0.1,0.1l0,0.2l0,0.1l-0.1,0.1l0,0.1l0,0.3l0,0.2l-0.1,0.2l-0.2,0.2l1.5,0.5l0.5,0.3l0.3,0.3l0.1,0l0.1,0.1
			l0.1,0.2l0,0.2l0.1,0.2l0.4,0.3l0.2,0.2l0,0.2l0.2,0.1l0.1,0.2l0.1,0.2l0.1,0.2l0.1,0l0.1-0.1l0.1,0l0.1,0.2l0.2,0.3l0,0.2l0,0.3
			l-0.1,0.3l-0.1,0.2l-0.2,0l-0.3-0.1l-0.1,0l-0.1,0.2l0,0.1l0.1,0.2l0.1,0.1l0.3,0.1l0.1,0.2l0.1,0.1l0,0l0.1,0h0.1l0.1,0l0-0.2
			l0.1-0.2l0-0.2l0.1-0.1l0.1,0l0.2,0l0.1,0l0.7,0.3l0.3,0l-0.1-0.1l0.1,0l0.1,0l0.1,0l0.1,0v0.1l0.2,0.1l0.3,0.2l0.4,0.2l0.5,0.1
			l1.1,0.9l0.2,0.3l0.5,1l0.1,0.2l0,0.2l0,0.1l0.2,0.3l0.1,0.2l0.1,0.1l0.1,0.2l0.1,0.2l0,0.2l0.1,0l0.7,0l0.2,0.1l0.2,0.1l0.2,0.1
			l0.1,0.1l0.1,0l0.3,0l0.1,0.1l0,0.2l0.1,0.1l0.1,0.1l0.9,0.7l0.2,0.3l0.2,0.4l0.1,0.2l0,0.2l0,0.3l0,0.2l0.1,0.2l0.1,0.2l0.1,0
			l0.3,0.1l0.1,0l0.1,0.1l0.2,0.1l0.1,0.1l1,0.9l0.9,1.1l0.7,1l0.1,0.1l0.1-0.1l0.1-0.1l0.2,0.1l0.6,0.4l0.1,0l0.7,0l0.2,0.1
			l0.3,0.2l0.3,0.2l0.5,0.6l0.1,0.2l0.2,0.4l0.1,0.2l0.1,0.2l0,0.2l0.1,0.2l0.2,0.1l0.2-0.1l0.2-0.3l0.3-0.1l0.3-0.2l0.2-0.1
			l0.8-0.1l0.4,0l1.4,0.7l0.2,0.2h0.1l0.1-0.1l0,0.1L144,90l0.1,0.1l0.1,0l0.3,0l-0.1-0.4l0.3-0.2l0.6-0.1l0.1,0.1l0.1,0l0.3-0.1
			l0.1,0l0.2,0.2l0.4,0.4l0.6,0.7l0.3,0.5l0.2,0.5l0,0.1l0,0.3l0,0.1l0.1,0.1l0.3,0.2l0.5,0.9l0.2,0.6l0.1,0.4l-0.1,0.5l0.1,0.1
			l0.3,0l0.1,0l0-0.2l0-0.2l0-0.1l0.1-0.1l0.1,0l0.1,0.1l0.2,0.1l0.3,0l0.2,0.2l0.2,0l0.1-0.2l0.1-0.1l0.2-0.1l0.3,0l0.2,0l0.2,0.1
			l0.3,0.4l0.2,0.2l0.1,0.1l0.1,0.1l0.1,0.1l0.1,0.1l0.2-0.1l0.2,0.1l0.1,0.2l0.1,0.2l0,0.2l-0.3,0.1l-0.4,0.4l-0.1,0.1l-0.1,0.1
			l-0.1,0l-0.2,0l-0.2,0.1l-0.1,0.2l0,0.3l0.1,0.2l0.1-0.2l0.4-0.2l0.2-0.2l0.5-0.1l0.1-0.1l0.3,0.2l0.3,0.1l0.3-0.1l0.4-0.3l0.1,0
			l0.5,0l0.1,0l0.3-0.2l0.3-0.1l0.3,0.1l0.3,0.2l0.2,0.2l0.2,0.3l0.3,0.4l0.8,1.7l0.2,0.4l0,0.3l-0.1,0.1l-0.2,0.1l-0.1,0.1
			l-0.1,0.1l-0.1,0l-0.1,0v0.1l0.1,0.2l-0.1,0.3l-0.2,0.3l0,0.2l0.1,0l0.1,0.1l0.2,0l0.1,0.1l0.1,0.1l0.3,0.1l0.2,0.2l0.1,0.2
			l0.1,0.1l0.2,0l0.3-0.1l0.2,0l0.1,0.1l0.6,0.6l0.2,0.1l0.2,0.1l0.3,0.3l0.1,0.3l-0.2,0.1v0.1l0.1,0l0.1,0l0.1,0l0.1,0l0.1,0
			l0.3,0.4l0.2,0.1l0.5,0.1l0.2-0.1l0.3-0.4l0.3-0.2l0.2-0.3l0.2-0.1l0.7,0.1l0.1-0.1l0,0.2l0.1,0.1l0.2,0.1l0,0l0.3,0.4l0.3,0.3
			l0.1,0.2l0.1,0.2l0.1,0.2l0,0.1l0.3,0.4l0.1,0.3l-0.1,0.5l0,0.1l0.1,0.1l0,0.1l0,0.2v-0.1l0.2,1.2l0.1,0.2l0.2,0.3l0.1,0.5
			l0.1,0.3l0.1,0.3l0.1,0.1l0.3,0.2l0.3,0.3l0.2,0.4l0.3,0.5l0.4,1.1l0.1,0.4l0.4,2.8l0.5,1.2l0.1,0.2l0.1,0.1l0.2,0l0.1,0.1
			l0.1,0.2l0,0.2l0,0.5l-0.1,0.5l-0.1,0.4l-0.2,0.3l-0.2,0.2l-0.2,0.1l-0.1,0l-0.7-0.1l-0.4,0l-0.3,0.2l-0.6,0.4l-0.4,0.1l-0.2,0.1
			l-0.1,0.1l0,0.1l0,0.1l0,0.1l0.1,0.1l0.1,0.1l0.1,0.1l0.1,0l0.3,0.3l0.1,0.3l0,0.4l-0.1,0.5l-0.7,1.4l-0.1,0.5l0,0.1l-0.1,0.1
			l0,0.1l-0.1,0.1l-0.9,0.3l-0.3,0.1l-0.2,0.2l0,0.4l0.1,0.3l0,0.2l-0.1,0.2l-0.1,0.2l0,0.2l0.1,0.2l0.2,0.4l-0.2,0.2l0,0.2l0.1,0.2
			l0.2,0.3l0.2,0.2l0.2,0.1l0.2,0.1l0.2,0.1l1.7-0.1l0.5,0.2l0.1-0.1l0.4-0.1l0.1-0.1l0.1-0.1l0.1-0.1l0.1-0.2l0.1-0.4l0.2-1.2
			l0.2-0.4l1.3-1.6l0.3-0.3l0.9-0.5l0.3-0.1l0.3-0.2l0.1,0l0.1-0.2l0.4-0.3l0.1-0.2l0.1-0.9l0-0.3l-0.2-0.8l-0.1-0.9l0-0.2l0,0
			l-0.1-0.1l0-0.3l0.1-0.2l0.1-0.2l0.1-0.3l0.1-0.2l0.2-0.2l0.6-0.3l0.1-0.1l0.1-0.1l0.4-0.3l1-0.5l0.9-0.2l0.2,0l0.2,0l0.1,0.1
			l0.2,0.3l0.2-0.1l0.3-0.1l0.2,0l0.1,0.2l0.1-0.2l0.1-0.1l0.1,0l0,0l0.3-0.3l0-0.1l0-0.5l0-0.1l0.1-0.1l0.2-0.1l-0.1,0l-0.3-0.1
			l-0.1-0.1l0-0.1l-0.2-0.4l0-0.4l0.2-0.7l0-0.4l0-0.1l-0.2-0.3l-0.1-0.1l0-0.2l0-0.2l0.1-0.7l0.3-0.8l-0.3,0l-0.3-0.2l-0.3-0.2
			l-0.2-0.2l-0.1-0.2l-0.1-0.1l-0.1-0.1l-0.2,0l-0.2-0.1l-0.4-0.4l-0.6-0.3l-0.1-0.1l-0.1-0.2l-0.1-0.2l-0.2-0.1l-0.1-0.1l-0.3-0.1
			l-1.2-0.1l-0.3-0.1l-0.4-0.3l-0.3-0.3l0.1-0.3v-0.1l-0.2-0.3l-0.1-0.3l0-0.4l0.2-0.4l0.3-0.6l0.4-0.4l0.2-0.3l0.2-0.1l0.1-0.2
			l-0.2-0.4l-0.1-0.5l0-0.2l0.1-0.5l0.2-0.3l0.1-0.1v0l0.4-0.3l0.3-0.6l0.1-0.1l0.1-0.1l0.2-0.7l0.2-0.4l0.7-1.1v0l0.5-0.7l0.6-0.6
			l0.7-0.3l0.7,0l0.1,0l0.2,0l0.1,0l0.1,0.1l0,0.1l0,0.1l0.1,0l0.2-0.1l0.2-0.1l0.2-0.1l0.2,0.1l0,0.1l0,0l0.4-0.1l0.2,0l-0.1,0.2
			l-0.2,0.1l-0.4-0.1l-0.2,0.1l0.2,0.2l0,0.2l-0.2,0.2l-0.2,0.1l0.1,0.2l0.3,0.1l0.5,0.2l0.5,0.3l0.2,0l0.1,0l0.2,0.2l0.1,0l0.1,0
			l0.2,0l0.1,0l0.5,0.3l0.2,0l3.1,0.2l0.1,0.1l0.5,0.4v0.1h-0.1l0.1,0.1l0.1,0.2l0,0.2l0,0.2l0.1,0.2l0.1,0.2l0.2,0.2l0.3,0.3
			l0.1,0.3l-0.1,0.3l-0.3,0.2l0.1,0.1l0.2,0.1l0.1,0.1l0.1,0.2l0,0.1l-0.1,0.1l-0.1,0v0.1l0.1,0.1l0.6,0.9l0.1,0.1l0.1,0l0.3,0.2
			l0.3,0.3l0.2,0.1l0.2,0.2l0.1,0h0.4l0.2,0.1l0.4,0.4l0.1,0l0.1,0l0.2,0l0,0l0.1-0.2l0,0l0-0.1l0.1-0.6l0-0.1l-0.1-0.3l0-0.1
			l0.1-0.3l0-0.3l0-0.1l0.2-0.5l0.3-0.3l0.1-0.1l0.1-0.4l0.1-0.1l0.1-0.1L190.3,103.3L190.3,103.3z M108.5,50.4L108.5,50.4
			L108.5,50.4L108.5,50.4L108.5,50.4z M110.1,52.3l-0.1-0.2L110.1,52.3L110.1,52.3L110.1,52.3z M113.4,51.2l-0.1-0.2L113.4,51.2
			L113.4,51.2L113.4,51.2z M120.5,53.4L120.5,53.4L120.5,53.4L120.5,53.4L120.5,53.4z M122.5,53.3L122.5,53.3L122.5,53.3L122.5,53.3
			L122.5,53.3z M129.5,66.9L129.5,66.9L129.5,66.9L129.5,66.9L129.5,66.9z M129.6,67.6l-0.1,0.1L129.6,67.6L129.6,67.6L129.6,67.6z
			 M130.3,62.5L130.3,62.5L130.3,62.5L130.3,62.5z M130.8,61.2L130.8,61.2L130.8,61.2L130.8,61.2L130.8,61.2z M130.9,58.1l-0.2,0.1
			L130.9,58.1l0.1,0L130.9,58.1z M131.1,63.3L131.1,63.3L131.1,63.3L131.1,63.3L131.1,63.3z M131.2,72L131.2,72L131.2,72L131.2,72
			L131.2,72z M131.1,64.5L131.1,64.5L131.1,64.5l0.2,0L131.1,64.5z M132.4,59.1L132.4,59.1l0.1-0.1L132.4,59.1L132.4,59.1z
			 M132.5,73.9l0-0.1L132.5,73.9L132.5,73.9L132.5,73.9z M132.9,74.1l-0.1,0.1L132.9,74.1L132.9,74.1z M134.1,81.5L134.1,81.5
			L134.1,81.5L134.1,81.5L134.1,81.5L134.1,81.5L134.1,81.5z M134.5,55.8l-0.1,0.1l0,0l0,0l0,0l0,0l0,0l-0.2,0.3l-0.3,0l-0.3-0.1
			l-0.1-0.3l0.1-0.3l0.1-0.1l0.1-0.1l0.3-0.2l0.3,0l0.1,0.1l0,0.2L134.5,55.8z M135,75.6L135,75.6L135,75.6l0.2-0.1L135,75.6z
			 M135.6,74.8L135.6,74.8L135.6,74.8L135.6,74.8L135.6,74.8z M136.6,74.1L136.6,74.1l0.3-0.1L136.6,74.1z M137,74L137,74L137,74
			l0.1-0.1L137,74z M139.2,72.7L139.2,72.7L139.2,72.7L139.2,72.7L139.2,72.7z M139.9,78.4L139.9,78.4L139.9,78.4L139.9,78.4
			L139.9,78.4z M140.4,74.8L140.4,74.8L140.4,74.8L140.4,74.8z M140.5,78.3l-0.4-0.2L140.5,78.3l0.3,0.1L140.5,78.3z M141.6,71
			L141.6,71L141.6,71L141.6,71L141.6,71z M141.6,78.6L141.6,78.6L141.6,78.6L141.6,78.6L141.6,78.6z M142,78.4L142,78.4L142,78.4
			L142,78.4L142,78.4z M142.3,71.9L142.3,71.9L142.3,71.9L142.3,71.9L142.3,71.9z M142.5,82.4L142.5,82.4L142.5,82.4L142.5,82.4
			L142.5,82.4z M146,83.2l-0.1-0.2L146,83.2L146,83.2L146,83.2z M146.3,89.6L146.3,89.6L146.3,89.6l0.2,0L146.3,89.6z M146.7,83.4
			L146.7,83.4L146.7,83.4l0.2,0.1L146.7,83.4z M147,83.6L147,83.6L147,83.6l0.1,0L147,83.6z M147.5,87.3L147.5,87.3L147.5,87.3
			L147.5,87.3z M148.5,85.8L148.5,85.8L148.5,85.8L148.5,85.8z M148.5,86.2L148.5,86.2L148.5,86.2L148.5,86.2L148.5,86.2z
			 M158.3,88.3L158.3,88.3L158.3,88.3L158.3,88.3z M160.2,91.2L160.2,91.2L160.2,91.2l0.1,0.2L160.2,91.2z M161.4,91.4L161.4,91.4
			L161.4,91.4L161.4,91.4L161.4,91.4z M168,93.8L168,93.8L168,93.8L168,93.8L168,93.8z M173.6,98.3L173.6,98.3L173.6,98.3l0,0.2
			L173.6,98.3z M173.7,96.7L173.7,96.7L173.7,96.7L173.7,96.7z M174.7,99.7L174.7,99.7L174.7,99.7L174.7,99.7L174.7,99.7z"/>
	</g>
	<g>
		<g>
			<path class="st1" d="M192.6,21.4c-12.6-4.2-36-8.5-57.4,4.8"/>
			<g>
				<path class="st2" d="M135.2,26.2c0.3,0.1,0.6,0.3,0.7,0.6c-0.4-0.2-0.9-0.3-1.4-0.2c0.3-0.4,0.4-0.8,0.4-1.3
					C135.2,25.6,135.3,25.9,135.2,26.2z"/>
			</g>
		</g>
	</g>
	<g>
		<g>
			<path class="st3" d="M192.6,74.2c-12.2-2.4-21.6,1.8-32.6,10"/>
			<g>
				<path class="st2" d="M160.1,84c0.7,0.1,1.6,0.8,2,1.4c-1.2-0.4-2.4-0.5-3.6-0.2c0.6-1,0.8-2.3,0.9-3.5
					C159.8,82.4,160.2,83.2,160.1,84z"/>
			</g>
		</g>
	</g>
	<g>
		<g>
			<path class="st4" d="M192.6,104.2c-7.7-1.6-14.6,0.6-21.7,6.6"/>
			<g>
				<path class="st2" d="M170.9,110.8c0.4,0,0.8,0.4,1.1,0.6c-0.6-0.1-1.3-0.2-1.9,0c0.3-0.6,0.4-1.2,0.3-1.8
					C170.7,110,170.9,110.4,170.9,110.8z"/>
			</g>
		</g>
	</g>
	<g>
		<path class="st5" d="M203.6,19.9c-0.9,0-1.6-0.3-2.2-0.9c-0.6-0.6-0.9-1.3-0.9-2.2c0-0.9,0.3-1.7,0.9-2.2c0.6-0.6,1.3-0.9,2.2-0.9
			c0.9,0,1.7,0.4,2.3,1.1l-0.6,0.4c-0.2-0.3-0.4-0.5-0.8-0.6c-0.3-0.2-0.6-0.2-1-0.2c-0.7,0-1.2,0.2-1.7,0.7c-0.4,0.5-0.7,1-0.7,1.8
			s0.2,1.3,0.7,1.8c0.4,0.5,1,0.7,1.7,0.7c0.3,0,0.6-0.1,0.9-0.2c0.3-0.1,0.5-0.3,0.7-0.5v-1.2h-2.1v-0.7h2.8v2.2
			C205.3,19.5,204.5,19.9,203.6,19.9z"/>
		<path class="st5" d="M210.7,19.8H210v-2.9c0-0.4-0.1-0.6-0.3-0.8c-0.2-0.2-0.4-0.2-0.7-0.2c-0.2,0-0.5,0.1-0.7,0.2
			c-0.2,0.1-0.4,0.3-0.6,0.5v3.2h-0.7v-6h0.7V16c0.2-0.2,0.4-0.4,0.7-0.5c0.3-0.1,0.6-0.2,0.9-0.2c0.9,0,1.4,0.5,1.4,1.4V19.8z"/>
		<path class="st5" d="M215.5,19.8h-0.7v-0.5c-0.4,0.4-0.8,0.6-1.4,0.6c-0.4,0-0.8-0.1-1.1-0.4s-0.5-0.6-0.5-1.1
			c0-0.5,0.2-0.8,0.5-1.1s0.7-0.4,1.1-0.4c0.6,0,1.1,0.2,1.4,0.6v-0.8c0-0.3-0.1-0.5-0.3-0.7c-0.2-0.2-0.5-0.2-0.8-0.2
			c-0.5,0-1,0.2-1.3,0.6L212,16c0.5-0.5,1-0.7,1.7-0.7c0.5,0,0.9,0.1,1.2,0.4c0.3,0.2,0.5,0.6,0.5,1.1V19.8z M213.6,19.4
			c0.5,0,0.9-0.2,1.2-0.5V18c-0.3-0.4-0.7-0.5-1.2-0.5c-0.3,0-0.6,0.1-0.8,0.3c-0.2,0.2-0.3,0.4-0.3,0.7c0,0.3,0.1,0.5,0.3,0.7
			C213,19.3,213.3,19.4,213.6,19.4z"/>
		<path class="st5" d="M220.4,19.8h-0.7v-2.8c0-0.4-0.1-0.6-0.3-0.8c-0.2-0.2-0.4-0.2-0.7-0.2c-0.3,0-0.5,0.1-0.7,0.2
			c-0.2,0.1-0.4,0.3-0.6,0.5v3.2h-0.7v-4.3h0.7V16c0.2-0.2,0.4-0.4,0.7-0.5c0.3-0.1,0.6-0.2,0.9-0.2c0.9,0,1.4,0.5,1.4,1.4V19.8z"/>
		<path class="st5" d="M225.2,19.8h-0.7v-0.5c-0.4,0.4-0.8,0.6-1.4,0.6c-0.4,0-0.8-0.1-1.1-0.4c-0.3-0.3-0.5-0.6-0.5-1.1
			c0-0.5,0.2-0.8,0.5-1.1c0.3-0.2,0.7-0.4,1.1-0.4c0.6,0,1.1,0.2,1.4,0.6v-0.8c0-0.3-0.1-0.5-0.3-0.7c-0.2-0.2-0.5-0.2-0.8-0.2
			c-0.5,0-1,0.2-1.3,0.6l-0.3-0.5c0.5-0.5,1-0.7,1.7-0.7c0.5,0,0.9,0.1,1.2,0.4c0.3,0.2,0.5,0.6,0.5,1.1V19.8z M223.3,19.4
			c0.5,0,0.9-0.2,1.2-0.5V18c-0.3-0.4-0.7-0.5-1.2-0.5c-0.3,0-0.6,0.1-0.8,0.3s-0.3,0.4-0.3,0.7c0,0.3,0.1,0.5,0.3,0.7
			S223,19.4,223.3,19.4z"/>
	</g>
	<g>
		<path class="st5" d="M205,46.6c-0.4,0.4-1,0.7-1.8,0.7s-1.4-0.2-1.8-0.7c-0.4-0.4-0.6-1-0.6-1.8v-3.7h0.7v3.7c0,0.6,0.1,1,0.4,1.3
			s0.7,0.5,1.3,0.5s1-0.2,1.3-0.5c0.3-0.3,0.4-0.8,0.4-1.3v-3.7h0.7v3.7C205.6,45.6,205.4,46.2,205,46.6z"/>
		<path class="st5" d="M210.8,47.2H210l-1.6-2l-0.7,0.7v1.2H207v-6h0.7v4l2.3-2.3h0.9l-1.9,2L210.8,47.2z"/>
		<path class="st5" d="M212.3,47.2h-0.7v-4.3h0.7v0.7c0.4-0.5,0.9-0.8,1.4-0.8v0.7c-0.1,0-0.2,0-0.3,0c-0.2,0-0.4,0.1-0.7,0.2
			c-0.2,0.1-0.4,0.3-0.5,0.5V47.2z"/>
		<path class="st5" d="M218,47.2h-0.7v-0.5c-0.4,0.4-0.8,0.6-1.4,0.6c-0.4,0-0.8-0.1-1.1-0.4c-0.3-0.3-0.5-0.6-0.5-1.1
			c0-0.5,0.2-0.8,0.5-1.1c0.3-0.2,0.7-0.4,1.1-0.4c0.6,0,1.1,0.2,1.4,0.6v-0.8c0-0.3-0.1-0.5-0.3-0.7c-0.2-0.2-0.5-0.2-0.8-0.2
			c-0.5,0-1,0.2-1.3,0.6l-0.3-0.5c0.5-0.5,1-0.7,1.7-0.7c0.5,0,0.9,0.1,1.2,0.4c0.3,0.2,0.5,0.6,0.5,1.1V47.2z M216.1,46.8
			c0.5,0,0.9-0.2,1.2-0.5v-0.8c-0.3-0.4-0.7-0.5-1.2-0.5c-0.3,0-0.6,0.1-0.8,0.3s-0.3,0.4-0.3,0.7c0,0.3,0.1,0.5,0.3,0.7
			S215.8,46.8,216.1,46.8z"/>
		<path class="st5" d="M219.7,42.2c-0.1,0-0.2,0-0.3-0.1s-0.1-0.2-0.1-0.3s0-0.2,0.1-0.3s0.2-0.1,0.3-0.1c0.1,0,0.2,0,0.3,0.1
			s0.1,0.2,0.1,0.3s0,0.2-0.1,0.3S219.8,42.2,219.7,42.2z M220,47.2h-0.7v-4.3h0.7V47.2z"/>
		<path class="st5" d="M225,47.2h-0.7v-2.8c0-0.4-0.1-0.6-0.3-0.8c-0.2-0.2-0.4-0.2-0.7-0.2c-0.3,0-0.5,0.1-0.7,0.2
			s-0.4,0.3-0.6,0.5v3.2h-0.7v-4.3h0.7v0.6c0.2-0.2,0.4-0.4,0.7-0.5c0.3-0.1,0.6-0.2,0.9-0.2c0.9,0,1.4,0.5,1.4,1.4V47.2z"/>
		<path class="st5" d="M228.3,47.3c-0.6,0-1.2-0.2-1.6-0.6c-0.4-0.4-0.6-1-0.6-1.7c0-0.6,0.2-1.2,0.6-1.6c0.4-0.4,0.9-0.7,1.5-0.7
			c0.6,0,1.2,0.2,1.5,0.7c0.4,0.4,0.6,1,0.6,1.7v0.2h-3.5c0,0.4,0.2,0.8,0.5,1.1c0.3,0.3,0.6,0.4,1.1,0.4c0.5,0,1-0.2,1.3-0.5
			l0.3,0.4C229.6,47.1,229,47.3,228.3,47.3z M229.6,44.7c0-0.4-0.1-0.7-0.4-1c-0.2-0.3-0.6-0.4-1.1-0.4c-0.4,0-0.8,0.1-1,0.4
			c-0.2,0.3-0.4,0.6-0.4,1H229.6z"/>
	</g>
	<g>
		<path class="st5" d="M203.6,74c-0.9,0-1.6-0.3-2.2-0.9c-0.6-0.6-0.9-1.3-0.9-2.2s0.3-1.7,0.9-2.2c0.6-0.6,1.3-0.9,2.2-0.9
			c0.9,0,1.7,0.4,2.3,1.1l-0.6,0.4c-0.2-0.3-0.4-0.5-0.8-0.6c-0.3-0.2-0.6-0.2-1-0.2c-0.7,0-1.2,0.2-1.7,0.7c-0.4,0.5-0.7,1-0.7,1.8
			s0.2,1.3,0.7,1.8c0.4,0.5,1,0.7,1.7,0.7c0.3,0,0.6-0.1,0.9-0.2c0.3-0.1,0.5-0.3,0.7-0.5v-1.2h-2.1v-0.7h2.8V73
			C205.3,73.7,204.5,74,203.6,74z"/>
		<path class="st5" d="M210.5,73.9h-0.7v-0.5c-0.4,0.4-0.8,0.6-1.4,0.6c-0.4,0-0.8-0.1-1.1-0.4c-0.3-0.3-0.5-0.6-0.5-1.1
			c0-0.5,0.2-0.8,0.5-1.1c0.3-0.2,0.7-0.4,1.1-0.4c0.6,0,1.1,0.2,1.4,0.6v-0.8c0-0.3-0.1-0.5-0.3-0.7c-0.2-0.2-0.5-0.2-0.8-0.2
			c-0.5,0-1,0.2-1.3,0.6l-0.3-0.5c0.5-0.5,1-0.7,1.7-0.7c0.5,0,0.9,0.1,1.2,0.4c0.3,0.2,0.5,0.6,0.5,1.1V73.9z M208.6,73.5
			c0.5,0,0.9-0.2,1.2-0.5v-0.8c-0.3-0.4-0.7-0.5-1.2-0.5c-0.3,0-0.6,0.1-0.8,0.3s-0.3,0.4-0.3,0.7c0,0.3,0.1,0.5,0.3,0.7
			S208.3,73.5,208.6,73.5z"/>
		<path class="st5" d="M217.8,73.9h-0.7v-3c0-0.6-0.3-0.9-0.8-0.9c-0.2,0-0.4,0.1-0.6,0.2s-0.4,0.3-0.5,0.5v3.2h-0.7v-3
			c0-0.6-0.3-0.9-0.8-0.9c-0.2,0-0.4,0.1-0.6,0.2s-0.4,0.3-0.5,0.5v3.2h-0.7v-4.3h0.7v0.6c0.1-0.2,0.3-0.3,0.6-0.5
			c0.3-0.2,0.5-0.2,0.8-0.2c0.3,0,0.6,0.1,0.8,0.2c0.2,0.2,0.3,0.3,0.4,0.6c0.1-0.2,0.3-0.4,0.6-0.6s0.6-0.2,0.9-0.2
			c0.8,0,1.2,0.4,1.2,1.3V73.9z"/>
		<path class="st5" d="M219.8,73.9h-0.7v-6h0.7v2.3c0.4-0.5,0.9-0.8,1.5-0.8c0.6,0,1,0.2,1.4,0.6s0.5,1,0.5,1.7
			c0,0.7-0.2,1.2-0.5,1.7c-0.4,0.4-0.8,0.6-1.4,0.6c-0.6,0-1.1-0.3-1.5-0.8V73.9z M219.8,72.7c0.1,0.2,0.3,0.4,0.5,0.5
			s0.5,0.2,0.8,0.2c0.4,0,0.8-0.2,1-0.5c0.3-0.3,0.4-0.7,0.4-1.2s-0.1-0.9-0.4-1.2c-0.3-0.3-0.6-0.5-1-0.5c-0.3,0-0.5,0.1-0.8,0.2
			c-0.2,0.1-0.4,0.3-0.5,0.5V72.7z"/>
		<path class="st5" d="M224.6,68.9c-0.1,0-0.2,0-0.3-0.1s-0.1-0.2-0.1-0.3s0-0.2,0.1-0.3s0.2-0.1,0.3-0.1c0.1,0,0.2,0,0.3,0.1
			s0.1,0.2,0.1,0.3s0,0.2-0.1,0.3S224.8,68.9,224.6,68.9z M225,73.9h-0.7v-4.3h0.7V73.9z"/>
		<path class="st5" d="M229.7,73.9H229v-0.5c-0.4,0.4-0.8,0.6-1.4,0.6c-0.4,0-0.8-0.1-1.1-0.4c-0.3-0.3-0.5-0.6-0.5-1.1
			c0-0.5,0.2-0.8,0.5-1.1c0.3-0.2,0.7-0.4,1.1-0.4c0.6,0,1.1,0.2,1.4,0.6v-0.8c0-0.3-0.1-0.5-0.3-0.7c-0.2-0.2-0.5-0.2-0.8-0.2
			c-0.5,0-1,0.2-1.3,0.6l-0.3-0.5c0.5-0.5,1-0.7,1.7-0.7c0.5,0,0.9,0.1,1.2,0.4c0.3,0.2,0.5,0.6,0.5,1.1V73.9z M227.8,73.5
			c0.5,0,0.9-0.2,1.2-0.5v-0.8c-0.3-0.4-0.7-0.5-1.2-0.5c-0.3,0-0.6,0.1-0.8,0.3s-0.3,0.4-0.3,0.7c0,0.3,0.1,0.5,0.3,0.7
			S227.5,73.5,227.8,73.5z"/>
	</g>
	<g>
		<path class="st5" d="M203.6,100.9c-0.9,0-1.6-0.3-2.2-0.9c-0.6-0.6-0.9-1.3-0.9-2.2s0.3-1.7,0.9-2.2c0.6-0.6,1.3-0.9,2.2-0.9
			c1,0,1.7,0.4,2.3,1.2l-0.6,0.4c-0.2-0.3-0.4-0.5-0.7-0.6c-0.3-0.2-0.6-0.2-0.9-0.2c-0.7,0-1.2,0.2-1.7,0.7c-0.4,0.5-0.7,1-0.7,1.8
			c0,0.7,0.2,1.3,0.7,1.8c0.4,0.5,1,0.7,1.7,0.7c0.3,0,0.7-0.1,0.9-0.2c0.3-0.2,0.5-0.4,0.7-0.6l0.6,0.4
			C205.3,100.5,204.5,100.9,203.6,100.9z"/>
		<path class="st5" d="M210.2,100.2c-0.4,0.4-0.9,0.7-1.6,0.7s-1.2-0.2-1.6-0.7c-0.4-0.4-0.6-1-0.6-1.6s0.2-1.2,0.6-1.6
			c0.4-0.4,0.9-0.7,1.6-0.7s1.2,0.2,1.6,0.7c0.4,0.4,0.6,1,0.6,1.6S210.6,99.8,210.2,100.2z M207.6,99.8c0.3,0.3,0.6,0.5,1.1,0.5
			c0.4,0,0.8-0.2,1.1-0.5c0.3-0.3,0.4-0.7,0.4-1.2c0-0.5-0.1-0.9-0.4-1.2s-0.6-0.5-1.1-0.5c-0.4,0-0.8,0.2-1.1,0.5
			c-0.3,0.3-0.4,0.7-0.4,1.2C207.2,99.1,207.4,99.5,207.6,99.8z M209.9,95.8h-0.5l-0.7-1l-0.7,1h-0.5l0.9-1.3h0.6L209.9,95.8z"/>
		<path class="st5" d="M213,100.9c-0.3,0-0.6-0.1-0.7-0.3s-0.2-0.4-0.2-0.8V97h-0.7v-0.6h0.7v-1.2h0.7v1.2h0.9V97h-0.9v2.7
			c0,0.2,0,0.3,0.1,0.4c0.1,0.1,0.2,0.2,0.3,0.2c0.2,0,0.4-0.1,0.5-0.2l0.2,0.5C213.6,100.8,213.4,100.9,213,100.9z"/>
		<path class="st5" d="M216.5,100.9c-0.6,0-1.2-0.2-1.6-0.6c-0.4-0.4-0.6-1-0.6-1.7c0-0.6,0.2-1.2,0.6-1.6c0.4-0.4,0.9-0.7,1.5-0.7
			c0.6,0,1.2,0.2,1.5,0.7s0.6,1,0.6,1.7v0.2H215c0,0.4,0.2,0.8,0.5,1.1c0.3,0.3,0.6,0.4,1.1,0.4c0.5,0,1-0.2,1.3-0.5l0.3,0.4
			C217.8,100.7,217.2,100.9,216.5,100.9z M217.9,98.4c0-0.4-0.1-0.7-0.4-1s-0.6-0.4-1.1-0.4c-0.4,0-0.8,0.1-1,0.4
			c-0.2,0.3-0.4,0.6-0.4,1H217.9z"/>
		<path class="st5" d="M225.8,100.8h-0.7v-0.6c-0.4,0.5-0.9,0.8-1.5,0.8c-0.6,0-1-0.2-1.4-0.6c-0.4-0.4-0.5-1-0.5-1.7
			c0-0.7,0.2-1.2,0.5-1.7s0.8-0.6,1.4-0.6c0.6,0,1.1,0.3,1.5,0.8v-2.3h0.7V100.8z M223.8,100.3c0.3,0,0.5-0.1,0.8-0.2
			s0.4-0.3,0.5-0.5v-2c-0.1-0.2-0.3-0.4-0.6-0.5c-0.2-0.1-0.5-0.2-0.8-0.2c-0.4,0-0.8,0.2-1,0.5s-0.4,0.7-0.4,1.2s0.1,0.9,0.4,1.2
			C223,100.1,223.4,100.3,223.8,100.3z"/>
		<path class="st5" d="M227.5,97.1h-0.3c-0.2-1.2-0.2-1.9-0.2-2c0-0.1,0-0.2,0.1-0.3c0.1-0.1,0.2-0.1,0.3-0.1s0.2,0,0.3,0.1
			c0.1,0.1,0.1,0.2,0.1,0.3L227.5,97.1z"/>
		<path class="st5" d="M229.7,100.8h-0.7v-6h0.7V100.8z"/>
		<path class="st5" d="M233,100.8h-0.7l-1.8-4.3h0.7l1.4,3.6l1.4-3.6h0.7L233,100.8z"/>
		<path class="st5" d="M238.9,100.2c-0.4,0.4-0.9,0.7-1.6,0.7c-0.6,0-1.2-0.2-1.6-0.7c-0.4-0.4-0.6-1-0.6-1.6s0.2-1.2,0.6-1.6
			c0.4-0.4,0.9-0.7,1.6-0.7c0.6,0,1.2,0.2,1.6,0.7c0.4,0.4,0.6,1,0.6,1.6S239.3,99.8,238.9,100.2z M236.3,99.8
			c0.3,0.3,0.6,0.5,1.1,0.5s0.8-0.2,1.1-0.5c0.3-0.3,0.4-0.7,0.4-1.2c0-0.5-0.1-0.9-0.4-1.2s-0.6-0.5-1.1-0.5s-0.8,0.2-1.1,0.5
			c-0.3,0.3-0.4,0.7-0.4,1.2C235.9,99.1,236.1,99.5,236.3,99.8z"/>
		<path class="st5" d="M241,95.8c-0.1,0-0.2,0-0.3-0.1c-0.1-0.1-0.1-0.2-0.1-0.3c0-0.1,0-0.2,0.1-0.3c0.1-0.1,0.2-0.1,0.3-0.1
			c0.1,0,0.2,0,0.3,0.1c0.1,0.1,0.1,0.2,0.1,0.3c0,0.1,0,0.2-0.1,0.3C241.2,95.8,241.1,95.8,241,95.8z M241.3,100.8h-0.7v-4.3h0.7
			V100.8z"/>
		<path class="st5" d="M243.3,100.8h-0.7v-4.3h0.7v0.7c0.4-0.5,0.9-0.8,1.4-0.8v0.7c-0.1,0-0.2,0-0.3,0c-0.2,0-0.4,0.1-0.7,0.2
			s-0.4,0.3-0.5,0.5V100.8z"/>
		<path class="st5" d="M247.6,100.9c-0.6,0-1.2-0.2-1.6-0.6c-0.4-0.4-0.6-1-0.6-1.7c0-0.6,0.2-1.2,0.6-1.6c0.4-0.4,0.9-0.7,1.5-0.7
			c0.6,0,1.2,0.2,1.5,0.7s0.6,1,0.6,1.7v0.2h-3.5c0,0.4,0.2,0.8,0.5,1.1c0.3,0.3,0.6,0.4,1.1,0.4c0.5,0,1-0.2,1.3-0.5l0.3,0.4
			C248.9,100.7,248.3,100.9,247.6,100.9z M248.9,98.4c0-0.4-0.1-0.7-0.4-1s-0.6-0.4-1.1-0.4c-0.4,0-0.8,0.1-1,0.4
			c-0.2,0.3-0.4,0.6-0.4,1H248.9z"/>
	</g>
	<g>
		<path class="st5" d="M20,17.8h-2.7v-6h2.7c0.5,0,0.9,0.1,1.2,0.4s0.5,0.7,0.5,1.1c0,0.4-0.1,0.7-0.3,0.9c-0.2,0.2-0.5,0.4-0.7,0.5
			c0.3,0,0.6,0.2,0.8,0.5c0.2,0.3,0.3,0.6,0.3,1c0,0.5-0.2,0.9-0.5,1.2C21,17.7,20.5,17.8,20,17.8z M19.8,14.4
			c0.3,0,0.6-0.1,0.8-0.3c0.2-0.2,0.3-0.4,0.3-0.7s-0.1-0.5-0.3-0.7c-0.2-0.2-0.4-0.3-0.8-0.3H18v1.9H19.8z M19.9,17.2
			c0.3,0,0.6-0.1,0.8-0.3c0.2-0.2,0.3-0.4,0.3-0.8c0-0.3-0.1-0.5-0.3-0.7c-0.2-0.2-0.5-0.3-0.8-0.3H18v2.1H19.9z"/>
		<path class="st5" d="M26.3,17.8h-0.7v-0.5c-0.4,0.4-0.8,0.6-1.4,0.6c-0.4,0-0.8-0.1-1.1-0.4c-0.3-0.3-0.5-0.6-0.5-1.1
			c0-0.5,0.2-0.8,0.5-1.1c0.3-0.2,0.7-0.4,1.1-0.4c0.6,0,1.1,0.2,1.4,0.6v-0.8c0-0.3-0.1-0.5-0.3-0.7c-0.2-0.2-0.5-0.2-0.8-0.2
			c-0.5,0-1,0.2-1.3,0.6l-0.3-0.5c0.5-0.5,1-0.7,1.7-0.7c0.5,0,0.9,0.1,1.2,0.4c0.3,0.2,0.5,0.6,0.5,1.1V17.8z M24.4,17.5
			c0.5,0,0.9-0.2,1.2-0.5v-0.8c-0.3-0.4-0.7-0.5-1.2-0.5c-0.3,0-0.6,0.1-0.8,0.3c-0.2,0.2-0.3,0.4-0.3,0.7c0,0.3,0.1,0.5,0.3,0.7
			S24.1,17.5,24.4,17.5z"/>
		<path class="st5" d="M31.3,17.8h-0.7V15c0-0.4-0.1-0.6-0.3-0.8c-0.2-0.2-0.4-0.2-0.7-0.2c-0.3,0-0.5,0.1-0.7,0.2
			c-0.2,0.1-0.4,0.3-0.6,0.5v3.2h-0.7v-4.3h0.7v0.6c0.2-0.2,0.4-0.4,0.7-0.5c0.3-0.1,0.6-0.2,0.9-0.2c0.9,0,1.4,0.5,1.4,1.4V17.8z"
			/>
		<path class="st5" d="M34.4,19.6c-0.4,0-0.7,0-1-0.1s-0.5-0.3-0.8-0.5l0.3-0.5c0.3,0.4,0.8,0.6,1.4,0.6c0.4,0,0.7-0.1,1-0.3
			c0.3-0.2,0.4-0.5,0.4-1v-0.6c-0.2,0.2-0.4,0.4-0.6,0.6c-0.3,0.1-0.5,0.2-0.8,0.2c-0.6,0-1-0.2-1.4-0.6s-0.5-1-0.5-1.6
			c0-0.7,0.2-1.2,0.5-1.6c0.4-0.4,0.8-0.6,1.4-0.6c0.6,0,1.1,0.3,1.5,0.8v-0.7h0.7v4.2c0,0.7-0.2,1.1-0.6,1.4
			C35.5,19.5,35,19.6,34.4,19.6z M34.5,17.3c0.3,0,0.5-0.1,0.8-0.2c0.2-0.1,0.4-0.3,0.5-0.5v-1.9c-0.1-0.2-0.3-0.4-0.5-0.5
			C35,14.1,34.7,14,34.5,14c-0.4,0-0.8,0.2-1,0.5c-0.2,0.3-0.4,0.7-0.4,1.2c0,0.5,0.1,0.9,0.4,1.2C33.7,17.2,34,17.3,34.5,17.3z"/>
		<path class="st5" d="M38.5,17.8h-0.7v-6h0.7V17.8z"/>
		<path class="st5" d="M43.2,17.8h-0.7v-0.5c-0.4,0.4-0.8,0.6-1.4,0.6c-0.4,0-0.8-0.1-1.1-0.4c-0.3-0.3-0.5-0.6-0.5-1.1
			c0-0.5,0.2-0.8,0.5-1.1s0.7-0.4,1.1-0.4c0.6,0,1.1,0.2,1.4,0.6v-0.8c0-0.3-0.1-0.5-0.3-0.7S41.7,14,41.4,14c-0.5,0-1,0.2-1.3,0.6
			l-0.3-0.5c0.5-0.5,1-0.7,1.7-0.7c0.5,0,0.9,0.1,1.2,0.4c0.3,0.2,0.5,0.6,0.5,1.1V17.8z M41.3,17.5c0.5,0,0.9-0.2,1.2-0.5v-0.8
			c-0.3-0.4-0.7-0.5-1.2-0.5c-0.3,0-0.6,0.1-0.8,0.3c-0.2,0.2-0.3,0.4-0.3,0.7c0,0.3,0.1,0.5,0.3,0.7C40.8,17.4,41,17.5,41.3,17.5z"
			/>
		<path class="st5" d="M48.4,17.8h-0.7v-0.6c-0.4,0.5-0.9,0.8-1.5,0.8c-0.6,0-1-0.2-1.4-0.6c-0.4-0.4-0.5-1-0.5-1.7
			c0-0.7,0.2-1.2,0.5-1.7c0.4-0.4,0.8-0.6,1.4-0.6c0.6,0,1.1,0.3,1.5,0.8v-2.3h0.7V17.8z M46.4,17.4c0.3,0,0.5-0.1,0.8-0.2
			s0.4-0.3,0.5-0.5v-2c-0.1-0.2-0.3-0.4-0.6-0.5c-0.2-0.1-0.5-0.2-0.8-0.2c-0.4,0-0.8,0.2-1,0.5c-0.3,0.3-0.4,0.7-0.4,1.2
			c0,0.5,0.1,0.9,0.4,1.2C45.6,17.2,46,17.4,46.4,17.4z"/>
		<path class="st5" d="M51.7,18c-0.6,0-1.2-0.2-1.6-0.6c-0.4-0.4-0.6-1-0.6-1.7c0-0.6,0.2-1.2,0.6-1.6c0.4-0.4,0.9-0.7,1.5-0.7
			c0.6,0,1.2,0.2,1.5,0.7c0.4,0.4,0.6,1,0.6,1.7v0.2h-3.5c0,0.4,0.2,0.8,0.5,1.1c0.3,0.3,0.6,0.4,1.1,0.4c0.5,0,1-0.2,1.3-0.5
			l0.3,0.4C53,17.7,52.4,18,51.7,18z M53,15.4c0-0.4-0.1-0.7-0.4-1c-0.2-0.3-0.6-0.4-1.1-0.4c-0.4,0-0.8,0.1-1,0.4
			c-0.2,0.3-0.4,0.6-0.4,1H53z"/>
		<path class="st5" d="M56.2,18c-0.7,0-1.3-0.2-1.8-0.7l0.4-0.5c0.2,0.2,0.4,0.3,0.6,0.4c0.3,0.1,0.5,0.2,0.8,0.2
			c0.3,0,0.6-0.1,0.8-0.2c0.2-0.1,0.3-0.3,0.3-0.5c0-0.2-0.1-0.3-0.3-0.5S56.5,16,56.3,16c-0.3-0.1-0.5-0.1-0.8-0.2
			c-0.3-0.1-0.5-0.2-0.7-0.4c-0.2-0.2-0.3-0.4-0.3-0.7c0-0.4,0.1-0.7,0.4-0.9c0.3-0.2,0.7-0.4,1.2-0.4c0.7,0,1.2,0.2,1.6,0.6
			l-0.3,0.5c-0.3-0.4-0.7-0.5-1.3-0.5c-0.3,0-0.5,0.1-0.7,0.2s-0.3,0.3-0.3,0.5c0,0.2,0.1,0.3,0.3,0.4c0.2,0.1,0.4,0.2,0.7,0.2
			c0.3,0.1,0.5,0.1,0.8,0.2s0.5,0.2,0.7,0.4c0.2,0.2,0.3,0.4,0.3,0.8c0,0.4-0.2,0.7-0.5,0.9C57.1,17.8,56.7,18,56.2,18z"/>
		<path class="st5" d="M62.6,17.8h-0.7V15c0-0.4-0.1-0.6-0.3-0.8c-0.2-0.2-0.4-0.2-0.7-0.2c-0.2,0-0.5,0.1-0.7,0.2
			c-0.2,0.1-0.4,0.3-0.6,0.5v3.2H59v-6h0.7v2.3c0.2-0.2,0.4-0.4,0.7-0.5c0.3-0.1,0.6-0.2,0.9-0.2c0.9,0,1.4,0.5,1.4,1.4V17.8z"/>
	</g>
	<g>
		<path class="st5" d="M31.7,129.3h-0.7v-6h2.4c0.6,0,1,0.2,1.4,0.5c0.3,0.3,0.5,0.8,0.5,1.3s-0.2,0.9-0.5,1.3s-0.8,0.5-1.4,0.5
			h-1.7V129.3z M33.3,126.2c0.4,0,0.6-0.1,0.9-0.3c0.2-0.2,0.3-0.5,0.3-0.8s-0.1-0.6-0.3-0.8c-0.2-0.2-0.5-0.3-0.9-0.3h-1.6v2.3
			H33.3z"/>
		<path class="st5" d="M39.4,129.3h-0.7v-0.5c-0.4,0.4-0.8,0.6-1.4,0.6c-0.4,0-0.8-0.1-1.1-0.4c-0.3-0.3-0.5-0.6-0.5-1.1
			c0-0.5,0.2-0.8,0.5-1.1c0.3-0.2,0.7-0.4,1.1-0.4c0.6,0,1.1,0.2,1.4,0.6v-0.8c0-0.3-0.1-0.5-0.3-0.7c-0.2-0.2-0.5-0.2-0.8-0.2
			c-0.5,0-1,0.2-1.3,0.6l-0.3-0.5c0.5-0.5,1-0.7,1.7-0.7c0.5,0,0.9,0.1,1.2,0.4c0.3,0.2,0.5,0.6,0.5,1.1V129.3z M37.5,128.9
			c0.5,0,0.9-0.2,1.2-0.5v-0.8c-0.3-0.4-0.7-0.5-1.2-0.5c-0.3,0-0.6,0.1-0.8,0.3s-0.3,0.4-0.3,0.7c0,0.3,0.1,0.5,0.3,0.7
			S37.2,128.9,37.5,128.9z"/>
		<path class="st5" d="M44.6,129.3h-0.9l-1.6-2l-0.7,0.7v1.2h-0.7v-6h0.7v4l2.3-2.3h0.9l-1.9,2L44.6,129.3z"/>
		<path class="st5" d="M45.7,124.3c-0.1,0-0.2,0-0.3-0.1c-0.1-0.1-0.1-0.2-0.1-0.3s0-0.2,0.1-0.3c0.1-0.1,0.2-0.1,0.3-0.1
			c0.1,0,0.2,0,0.3,0.1s0.1,0.2,0.1,0.3s0,0.2-0.1,0.3S45.8,124.3,45.7,124.3z M46.1,129.3h-0.7v-4.3h0.7V129.3z"/>
		<path class="st5" d="M48.8,129.4c-0.7,0-1.3-0.2-1.8-0.7l0.4-0.5c0.2,0.2,0.4,0.3,0.6,0.4c0.3,0.1,0.5,0.2,0.8,0.2
			c0.3,0,0.6-0.1,0.8-0.2c0.2-0.1,0.3-0.3,0.3-0.5c0-0.2-0.1-0.3-0.3-0.5c-0.2-0.1-0.4-0.2-0.7-0.3c-0.3-0.1-0.5-0.1-0.8-0.2
			s-0.5-0.2-0.7-0.4c-0.2-0.2-0.3-0.4-0.3-0.7c0-0.4,0.1-0.7,0.4-0.9c0.3-0.2,0.7-0.4,1.2-0.4c0.7,0,1.2,0.2,1.6,0.6l-0.3,0.5
			c-0.3-0.4-0.7-0.5-1.3-0.5c-0.3,0-0.5,0.1-0.7,0.2c-0.2,0.1-0.3,0.3-0.3,0.5c0,0.2,0.1,0.3,0.3,0.4c0.2,0.1,0.4,0.2,0.7,0.2
			c0.3,0.1,0.5,0.1,0.8,0.2s0.5,0.2,0.7,0.4c0.2,0.2,0.3,0.4,0.3,0.8c0,0.4-0.2,0.7-0.5,0.9C49.7,129.3,49.3,129.4,48.8,129.4z"/>
		<path class="st5" d="M52.7,129.4c-0.3,0-0.6-0.1-0.7-0.3c-0.2-0.2-0.2-0.4-0.2-0.8v-2.8H51v-0.6h0.7v-1.2h0.7v1.2h0.9v0.6h-0.9
			v2.7c0,0.2,0,0.3,0.1,0.4c0.1,0.1,0.2,0.2,0.3,0.2c0.2,0,0.4-0.1,0.5-0.2l0.2,0.5C53.3,129.3,53,129.4,52.7,129.4z"/>
		<path class="st5" d="M57.6,129.3H57v-0.5c-0.4,0.4-0.8,0.6-1.4,0.6c-0.4,0-0.8-0.1-1.1-0.4c-0.3-0.3-0.5-0.6-0.5-1.1
			c0-0.5,0.2-0.8,0.5-1.1s0.7-0.4,1.1-0.4c0.6,0,1.1,0.2,1.4,0.6v-0.8c0-0.3-0.1-0.5-0.3-0.7s-0.5-0.2-0.8-0.2c-0.5,0-1,0.2-1.3,0.6
			l-0.3-0.5c0.5-0.5,1-0.7,1.7-0.7c0.5,0,0.9,0.1,1.2,0.4c0.3,0.2,0.5,0.6,0.5,1.1V129.3z M55.8,128.9c0.5,0,0.9-0.2,1.2-0.5v-0.8
			c-0.3-0.4-0.7-0.5-1.2-0.5c-0.3,0-0.6,0.1-0.8,0.3c-0.2,0.2-0.3,0.4-0.3,0.7c0,0.3,0.1,0.5,0.3,0.7
			C55.2,128.8,55.4,128.9,55.8,128.9z"/>
		<path class="st5" d="M62.6,129.3h-0.7v-2.8c0-0.4-0.1-0.6-0.3-0.8c-0.2-0.2-0.4-0.2-0.7-0.2c-0.3,0-0.5,0.1-0.7,0.2
			c-0.2,0.1-0.4,0.3-0.6,0.5v3.2H59v-4.3h0.7v0.6c0.2-0.2,0.4-0.4,0.7-0.5c0.3-0.1,0.6-0.2,0.9-0.2c0.9,0,1.4,0.5,1.4,1.4V129.3z"/>
	</g>
	<g>
		<path class="st5" d="M206.7,128.8H206l-3.5-4.8v4.8h-0.7v-6h0.8l3.5,4.7v-4.7h0.7V128.8z"/>
		<path class="st5" d="M208.4,123.9c-0.1,0-0.2,0-0.3-0.1s-0.1-0.2-0.1-0.3s0-0.2,0.1-0.3s0.2-0.1,0.3-0.1c0.1,0,0.2,0,0.3,0.1
			s0.1,0.2,0.1,0.3s0,0.2-0.1,0.3S208.5,123.9,208.4,123.9z M208.7,128.8h-0.7v-4.3h0.7V128.8z"/>
		<path class="st5" d="M211.8,130.6c-0.4,0-0.7,0-1-0.1c-0.3-0.1-0.5-0.3-0.8-0.5l0.3-0.5c0.3,0.4,0.8,0.6,1.4,0.6
			c0.4,0,0.7-0.1,1-0.3c0.3-0.2,0.4-0.5,0.4-1v-0.6c-0.2,0.2-0.4,0.4-0.6,0.6c-0.3,0.1-0.5,0.2-0.8,0.2c-0.6,0-1-0.2-1.4-0.6
			c-0.4-0.4-0.5-1-0.5-1.6c0-0.7,0.2-1.2,0.5-1.6c0.4-0.4,0.8-0.6,1.4-0.6c0.6,0,1.1,0.3,1.5,0.8v-0.7h0.7v4.2
			c0,0.7-0.2,1.1-0.6,1.4C212.9,130.4,212.4,130.6,211.8,130.6z M211.9,128.3c0.3,0,0.5-0.1,0.8-0.2c0.2-0.1,0.4-0.3,0.5-0.5v-1.9
			c-0.1-0.2-0.3-0.4-0.5-0.5c-0.2-0.1-0.5-0.2-0.8-0.2c-0.4,0-0.8,0.2-1,0.5c-0.2,0.3-0.4,0.7-0.4,1.2c0,0.5,0.1,0.9,0.4,1.2
			C211.2,128.1,211.5,128.3,211.9,128.3z"/>
		<path class="st5" d="M217.2,128.9c-0.6,0-1.2-0.2-1.6-0.6c-0.4-0.4-0.6-1-0.6-1.7c0-0.6,0.2-1.2,0.6-1.6c0.4-0.4,0.9-0.7,1.5-0.7
			c0.6,0,1.2,0.2,1.5,0.7c0.4,0.4,0.6,1,0.6,1.7v0.2h-3.5c0,0.4,0.2,0.8,0.5,1.1c0.3,0.3,0.6,0.4,1.1,0.4c0.5,0,1-0.2,1.3-0.5
			l0.3,0.4C218.5,128.7,217.9,128.9,217.2,128.9z M218.6,126.4c0-0.4-0.1-0.7-0.4-1c-0.2-0.3-0.6-0.4-1.1-0.4c-0.4,0-0.8,0.1-1,0.4
			c-0.2,0.3-0.4,0.6-0.4,1H218.6z"/>
		<path class="st5" d="M221,128.8h-0.7v-4.3h0.7v0.7c0.4-0.5,0.9-0.8,1.4-0.8v0.7c-0.1,0-0.2,0-0.3,0c-0.2,0-0.4,0.1-0.7,0.2
			c-0.2,0.1-0.4,0.3-0.5,0.5V128.8z"/>
		<path class="st5" d="M223.6,123.9c-0.1,0-0.2,0-0.3-0.1c-0.1-0.1-0.1-0.2-0.1-0.3s0-0.2,0.1-0.3c0.1-0.1,0.2-0.1,0.3-0.1
			c0.1,0,0.2,0,0.3,0.1s0.1,0.2,0.1,0.3s0,0.2-0.1,0.3S223.7,123.9,223.6,123.9z M224,128.8h-0.7v-4.3h0.7V128.8z"/>
		<path class="st5" d="M228.7,128.8H228v-0.5c-0.4,0.4-0.8,0.6-1.4,0.6c-0.4,0-0.8-0.1-1.1-0.4c-0.3-0.3-0.5-0.6-0.5-1.1
			c0-0.5,0.2-0.8,0.5-1.1c0.3-0.2,0.7-0.4,1.1-0.4c0.6,0,1.1,0.2,1.4,0.6v-0.8c0-0.3-0.1-0.5-0.3-0.7s-0.5-0.2-0.8-0.2
			c-0.5,0-1,0.2-1.3,0.6l-0.3-0.5c0.5-0.5,1-0.7,1.7-0.7c0.5,0,0.9,0.1,1.2,0.4c0.3,0.2,0.5,0.6,0.5,1.1V128.8z M226.8,128.4
			c0.5,0,0.9-0.2,1.2-0.5v-0.8c-0.3-0.4-0.7-0.5-1.2-0.5c-0.3,0-0.6,0.1-0.8,0.3s-0.3,0.4-0.3,0.7c0,0.3,0.1,0.5,0.3,0.7
			S226.5,128.4,226.8,128.4z"/>
	</g>
	<g>
		<path class="st5" d="M22.3,46.7h-0.9l-0.5-1.3h-3l-0.5,1.3h-0.9l2.4-6h0.9L22.3,46.7z M20.7,44.7l-1.3-3.2l-1.3,3.2H20.7z"/>
		<path class="st5" d="M23.9,46.7h-0.7V43h-0.7v-0.6h0.7V42c0-0.4,0.1-0.8,0.3-1s0.5-0.4,0.9-0.4c0.4,0,0.7,0.1,0.9,0.3l-0.3,0.4
			c-0.2-0.1-0.3-0.2-0.5-0.2c-0.2,0-0.4,0.1-0.5,0.2c-0.1,0.1-0.2,0.4-0.2,0.6v0.3h0.9V43h-0.9V46.7z"/>
		<path class="st5" d="M27.3,48.5c-0.4,0-0.7,0-1-0.1s-0.5-0.3-0.8-0.5l0.3-0.5c0.3,0.4,0.8,0.6,1.4,0.6c0.4,0,0.7-0.1,1-0.3
			c0.3-0.2,0.4-0.5,0.4-1V46c-0.2,0.2-0.4,0.4-0.6,0.6c-0.3,0.1-0.5,0.2-0.8,0.2c-0.6,0-1-0.2-1.4-0.6s-0.5-1-0.5-1.6
			c0-0.7,0.2-1.2,0.5-1.6c0.4-0.4,0.8-0.6,1.4-0.6c0.6,0,1.1,0.3,1.5,0.8v-0.7h0.7v4.2c0,0.7-0.2,1.1-0.6,1.4S27.9,48.5,27.3,48.5z
			 M27.4,46.2c0.3,0,0.5-0.1,0.8-0.2c0.2-0.1,0.4-0.3,0.5-0.5v-1.9c-0.1-0.2-0.3-0.4-0.5-0.5c-0.2-0.1-0.5-0.2-0.8-0.2
			c-0.4,0-0.8,0.2-1,0.5C26.1,43.6,26,44,26,44.5c0,0.5,0.1,0.9,0.4,1.2C26.6,46,27,46.2,27.4,46.2z"/>
		<path class="st5" d="M34.3,46.7h-0.7v-2.9c0-0.4-0.1-0.6-0.3-0.8c-0.2-0.2-0.4-0.2-0.7-0.2c-0.2,0-0.5,0.1-0.7,0.2
			c-0.2,0.1-0.4,0.3-0.6,0.5v3.2h-0.7v-6h0.7V43c0.2-0.2,0.4-0.4,0.7-0.5c0.3-0.1,0.6-0.2,0.9-0.2c0.9,0,1.4,0.5,1.4,1.4V46.7z"/>
		<path class="st5" d="M39.1,46.7h-0.7v-0.5c-0.4,0.4-0.8,0.6-1.4,0.6c-0.4,0-0.8-0.1-1.1-0.4s-0.5-0.6-0.5-1.1
			c0-0.5,0.2-0.8,0.5-1.1S36.5,44,37,44c0.6,0,1.1,0.2,1.4,0.6v-0.8c0-0.3-0.1-0.5-0.3-0.7c-0.2-0.2-0.5-0.2-0.8-0.2
			c-0.5,0-1,0.2-1.3,0.6L35.7,43c0.5-0.5,1-0.7,1.7-0.7c0.5,0,0.9,0.1,1.2,0.4c0.3,0.2,0.5,0.6,0.5,1.1V46.7z M37.2,46.3
			c0.5,0,0.9-0.2,1.2-0.5V45c-0.3-0.4-0.7-0.5-1.2-0.5c-0.3,0-0.6,0.1-0.8,0.3c-0.2,0.2-0.3,0.4-0.3,0.7c0,0.3,0.1,0.5,0.3,0.7
			C36.6,46.2,36.9,46.3,37.2,46.3z"/>
		<path class="st5" d="M44,46.7h-0.7v-2.8c0-0.4-0.1-0.6-0.3-0.8c-0.2-0.2-0.4-0.2-0.7-0.2c-0.3,0-0.5,0.1-0.7,0.2
			c-0.2,0.1-0.4,0.3-0.6,0.5v3.2h-0.7v-4.3h0.7V43c0.2-0.2,0.4-0.4,0.7-0.5c0.3-0.1,0.6-0.2,0.9-0.2c0.9,0,1.4,0.5,1.4,1.4V46.7z"/>
		<path class="st5" d="M45.7,41.7c-0.1,0-0.2,0-0.3-0.1c-0.1-0.1-0.1-0.2-0.1-0.3s0-0.2,0.1-0.3c0.1-0.1,0.2-0.1,0.3-0.1
			c0.1,0,0.2,0,0.3,0.1s0.1,0.2,0.1,0.3s0,0.2-0.1,0.3S45.8,41.7,45.7,41.7z M46.1,46.7h-0.7v-4.3h0.7V46.7z"/>
		<path class="st5" d="M48.8,46.8c-0.7,0-1.3-0.2-1.8-0.7l0.4-0.5c0.2,0.2,0.4,0.3,0.6,0.4c0.3,0.1,0.5,0.2,0.8,0.2
			c0.3,0,0.6-0.1,0.8-0.2c0.2-0.1,0.3-0.3,0.3-0.5c0-0.2-0.1-0.3-0.3-0.5c-0.2-0.1-0.4-0.2-0.7-0.3c-0.3-0.1-0.5-0.1-0.8-0.2
			s-0.5-0.2-0.7-0.4c-0.2-0.2-0.3-0.4-0.3-0.7c0-0.4,0.1-0.7,0.4-0.9c0.3-0.2,0.7-0.4,1.2-0.4c0.7,0,1.2,0.2,1.6,0.6l-0.3,0.5
			c-0.3-0.4-0.7-0.5-1.3-0.5c-0.3,0-0.5,0.1-0.7,0.2c-0.2,0.1-0.3,0.3-0.3,0.5c0,0.2,0.1,0.3,0.3,0.4c0.2,0.1,0.4,0.2,0.7,0.2
			c0.3,0.1,0.5,0.1,0.8,0.2s0.5,0.2,0.7,0.4c0.2,0.2,0.3,0.4,0.3,0.8c0,0.4-0.2,0.7-0.5,0.9C49.7,46.7,49.3,46.8,48.8,46.8z"/>
		<path class="st5" d="M52.7,46.8c-0.3,0-0.6-0.1-0.7-0.3c-0.2-0.2-0.2-0.4-0.2-0.8V43H51v-0.6h0.7v-1.2h0.7v1.2h0.9V43h-0.9v2.7
			c0,0.2,0,0.3,0.1,0.4c0.1,0.1,0.2,0.2,0.3,0.2c0.2,0,0.4-0.1,0.5-0.2l0.2,0.5C53.3,46.7,53,46.8,52.7,46.8z"/>
		<path class="st5" d="M57.6,46.7H57v-0.5c-0.4,0.4-0.8,0.6-1.4,0.6c-0.4,0-0.8-0.1-1.1-0.4c-0.3-0.3-0.5-0.6-0.5-1.1
			c0-0.5,0.2-0.8,0.5-1.1s0.7-0.4,1.1-0.4c0.6,0,1.1,0.2,1.4,0.6v-0.8c0-0.3-0.1-0.5-0.3-0.7s-0.5-0.2-0.8-0.2c-0.5,0-1,0.2-1.3,0.6
			L54.2,43c0.5-0.5,1-0.7,1.7-0.7c0.5,0,0.9,0.1,1.2,0.4c0.3,0.2,0.5,0.6,0.5,1.1V46.7z M55.8,46.3c0.5,0,0.9-0.2,1.2-0.5V45
			c-0.3-0.4-0.7-0.5-1.2-0.5c-0.3,0-0.6,0.1-0.8,0.3c-0.2,0.2-0.3,0.4-0.3,0.7c0,0.3,0.1,0.5,0.3,0.7C55.2,46.2,55.4,46.3,55.8,46.3
			z"/>
		<path class="st5" d="M62.6,46.7h-0.7v-2.8c0-0.4-0.1-0.6-0.3-0.8c-0.2-0.2-0.4-0.2-0.7-0.2c-0.3,0-0.5,0.1-0.7,0.2
			c-0.2,0.1-0.4,0.3-0.6,0.5v3.2H59v-4.3h0.7V43c0.2-0.2,0.4-0.4,0.7-0.5c0.3-0.1,0.6-0.2,0.9-0.2c0.9,0,1.4,0.5,1.4,1.4V46.7z"/>
	</g>
	<g>
		<path class="st5" d="M33.9,76.3c-1,0-1.7-0.3-2.3-1l0.4-0.6c0.5,0.6,1.1,0.9,1.9,0.9c0.5,0,0.8-0.1,1.1-0.3s0.3-0.4,0.3-0.7
			c0-0.2-0.1-0.4-0.2-0.5c-0.1-0.1-0.3-0.3-0.5-0.3s-0.4-0.2-0.7-0.2c-0.3-0.1-0.5-0.1-0.8-0.2c-0.3-0.1-0.5-0.2-0.7-0.3
			s-0.4-0.3-0.5-0.5c-0.1-0.2-0.2-0.5-0.2-0.7c0-0.5,0.2-0.9,0.6-1.2c0.4-0.3,0.9-0.5,1.5-0.5c0.9,0,1.6,0.3,2.1,0.8l-0.5,0.5
			c-0.4-0.5-1-0.7-1.7-0.7c-0.4,0-0.7,0.1-0.9,0.3c-0.2,0.2-0.3,0.4-0.3,0.7c0,0.2,0.1,0.4,0.3,0.5s0.4,0.2,0.7,0.3
			c0.3,0.1,0.5,0.1,0.9,0.2c0.3,0.1,0.6,0.2,0.9,0.3c0.3,0.1,0.5,0.3,0.7,0.5c0.2,0.2,0.3,0.5,0.3,0.9c0,0.5-0.2,0.9-0.5,1.3
			S34.6,76.3,33.9,76.3z"/>
		<path class="st5" d="M39.1,76.3c-0.6,0-1.2-0.2-1.6-0.6c-0.4-0.4-0.6-1-0.6-1.7c0-0.6,0.2-1.2,0.6-1.6c0.4-0.4,0.9-0.7,1.5-0.7
			c0.6,0,1.2,0.2,1.5,0.7c0.4,0.4,0.6,1,0.6,1.7v0.2h-3.5c0,0.4,0.2,0.8,0.5,1.1c0.3,0.3,0.6,0.4,1.1,0.4c0.5,0,1-0.2,1.3-0.5
			l0.3,0.4C40.4,76.1,39.8,76.3,39.1,76.3z M40.5,73.8c0-0.4-0.1-0.7-0.4-1c-0.2-0.3-0.6-0.4-1.1-0.4c-0.4,0-0.8,0.1-1,0.4
			s-0.4,0.6-0.4,1H40.5z"/>
		<path class="st5" d="M45.8,76.2h-0.7v-2.8c0-0.4-0.1-0.6-0.3-0.8c-0.2-0.2-0.4-0.2-0.7-0.2c-0.3,0-0.5,0.1-0.7,0.2
			S43,72.9,42.9,73v3.2h-0.7v-4.3h0.7v0.6c0.2-0.2,0.4-0.4,0.7-0.5c0.3-0.1,0.6-0.2,0.9-0.2c0.9,0,1.4,0.5,1.4,1.4V76.2z"/>
		<path class="st5" d="M49.1,76.3c-0.6,0-1.2-0.2-1.6-0.6c-0.4-0.4-0.6-1-0.6-1.7c0-0.6,0.2-1.2,0.6-1.6c0.4-0.4,0.9-0.7,1.5-0.7
			c0.6,0,1.2,0.2,1.5,0.7c0.4,0.4,0.6,1,0.6,1.7v0.2h-3.5c0,0.4,0.2,0.8,0.5,1.1c0.3,0.3,0.6,0.4,1.1,0.4c0.5,0,1-0.2,1.3-0.5
			l0.3,0.4C50.4,76.1,49.9,76.3,49.1,76.3z M50.5,73.8c0-0.4-0.1-0.7-0.4-1c-0.2-0.3-0.6-0.4-1.1-0.4c-0.4,0-0.8,0.1-1,0.4
			c-0.2,0.3-0.4,0.6-0.4,1H50.5z"/>
		<path class="st5" d="M54,78c-0.4,0-0.7,0-1-0.1s-0.5-0.3-0.8-0.5l0.3-0.5c0.3,0.4,0.8,0.6,1.4,0.6c0.4,0,0.7-0.1,1-0.3
			c0.3-0.2,0.4-0.5,0.4-1v-0.6c-0.2,0.2-0.4,0.4-0.6,0.6c-0.3,0.1-0.5,0.2-0.8,0.2c-0.6,0-1-0.2-1.4-0.6S52,74.7,52,74
			c0-0.7,0.2-1.2,0.5-1.6c0.4-0.4,0.8-0.6,1.4-0.6c0.6,0,1.1,0.3,1.5,0.8v-0.7h0.7v4.2c0,0.7-0.2,1.1-0.6,1.4
			C55.1,77.8,54.6,78,54,78z M54.1,75.7c0.3,0,0.5-0.1,0.8-0.2c0.2-0.1,0.4-0.3,0.5-0.5v-1.9c-0.1-0.2-0.3-0.4-0.5-0.5
			c-0.2-0.1-0.5-0.2-0.8-0.2c-0.4,0-0.8,0.2-1,0.5c-0.2,0.3-0.4,0.7-0.4,1.2c0,0.5,0.1,0.9,0.4,1.2C53.3,75.5,53.7,75.7,54.1,75.7z"
			/>
		<path class="st5" d="M60.8,76.2h-0.7v-0.5c-0.4,0.4-0.8,0.6-1.4,0.6c-0.4,0-0.8-0.1-1.1-0.4s-0.5-0.6-0.5-1.1
			c0-0.5,0.2-0.8,0.5-1.1s0.7-0.4,1.1-0.4c0.6,0,1.1,0.2,1.4,0.6v-0.8c0-0.3-0.1-0.5-0.3-0.7c-0.2-0.2-0.5-0.2-0.8-0.2
			c-0.5,0-1,0.2-1.3,0.6l-0.3-0.5c0.5-0.5,1-0.7,1.7-0.7c0.5,0,0.9,0.1,1.2,0.4c0.3,0.2,0.5,0.6,0.5,1.1V76.2z M58.9,75.8
			c0.5,0,0.9-0.2,1.2-0.5v-0.8c-0.3-0.4-0.7-0.5-1.2-0.5c-0.3,0-0.6,0.1-0.8,0.3c-0.2,0.2-0.3,0.4-0.3,0.7c0,0.3,0.1,0.5,0.3,0.7
			C58.4,75.8,58.6,75.8,58.9,75.8z"/>
		<path class="st5" d="M62.8,76.2h-0.7v-6h0.7V76.2z"/>
	</g>
	<g>
		<path class="st5" d="M53.8,104.7H53v-4.9l-2,4.9h-0.3l-2-4.9v4.9h-0.7v-6H49l1.9,4.5l1.9-4.5h1.1V104.7z"/>
		<path class="st5" d="M58.5,104.7h-0.7v-0.5c-0.4,0.4-0.8,0.6-1.4,0.6c-0.4,0-0.8-0.1-1.1-0.4s-0.5-0.6-0.5-1.1
			c0-0.5,0.2-0.8,0.5-1.1s0.7-0.4,1.1-0.4c0.6,0,1.1,0.2,1.4,0.6v-0.8c0-0.3-0.1-0.5-0.3-0.7c-0.2-0.2-0.5-0.2-0.8-0.2
			c-0.5,0-1,0.2-1.3,0.6l-0.3-0.5c0.5-0.5,1-0.7,1.7-0.7c0.5,0,0.9,0.1,1.2,0.4c0.3,0.2,0.5,0.6,0.5,1.1V104.7z M56.7,104.3
			c0.5,0,0.9-0.2,1.2-0.5V103c-0.3-0.4-0.7-0.5-1.2-0.5c-0.3,0-0.6,0.1-0.8,0.3c-0.2,0.2-0.3,0.4-0.3,0.7c0,0.3,0.1,0.5,0.3,0.7
			C56.1,104.2,56.4,104.3,56.7,104.3z"/>
		<path class="st5" d="M60.6,104.7h-0.7v-6h0.7V104.7z"/>
		<path class="st5" d="M62.2,99.7c-0.1,0-0.2,0-0.3-0.1c-0.1-0.1-0.1-0.2-0.1-0.3s0-0.2,0.1-0.3c0.1-0.1,0.2-0.1,0.3-0.1
			c0.1,0,0.2,0,0.3,0.1s0.1,0.2,0.1,0.3s0,0.2-0.1,0.3S62.4,99.7,62.2,99.7z M62.6,104.7h-0.7v-4.3h0.7V104.7z"/>
	</g>
	<g>
		<path class="st6" d="M203.5,31.5h-1.5V25l-1.4,1.4l-0.8-0.9l2.4-2.4h1.3V31.5z"/>
		<path class="st6" d="M207.7,31.6c-1,0-1.8-0.3-2.4-0.9l0.7-1.1c0.5,0.5,1,0.7,1.7,0.7c0.7,0,1.3-0.3,1.6-0.8
			c0.4-0.5,0.6-1.2,0.6-1.9v-0.2c-0.2,0.3-0.5,0.6-0.9,0.8s-0.8,0.4-1.3,0.4c-0.8,0-1.5-0.2-2-0.7c-0.5-0.5-0.8-1.1-0.8-2
			c0-0.8,0.3-1.5,0.9-2c0.6-0.5,1.3-0.8,2.2-0.8c0.8,0,1.4,0.2,2,0.6s0.9,0.9,1.1,1.5s0.3,1.3,0.3,2.2c0,1.2-0.3,2.3-1,3.1
			C209.8,31.2,208.9,31.6,207.7,31.6z M208.1,27.2c0.4,0,0.7-0.1,1-0.3c0.3-0.2,0.6-0.4,0.8-0.7c0-0.5-0.2-1-0.5-1.4
			c-0.3-0.4-0.8-0.6-1.3-0.6c-0.5,0-0.9,0.2-1.2,0.5c-0.3,0.3-0.5,0.6-0.5,1c0,0.5,0.2,0.9,0.5,1.1
			C207.2,27.1,207.6,27.2,208.1,27.2z"/>
		<path class="st6" d="M217.3,31.2c-0.4,0.2-0.9,0.4-1.5,0.4c-0.6,0-1.1-0.1-1.5-0.4c-0.4-0.2-0.8-0.6-1-1c-0.3-0.4-0.5-0.9-0.6-1.4
			s-0.2-1-0.2-1.6s0.1-1.1,0.2-1.6s0.3-1,0.6-1.4c0.3-0.4,0.6-0.7,1-1c0.4-0.2,0.9-0.4,1.5-0.4c0.6,0,1.1,0.1,1.5,0.4
			c0.4,0.2,0.8,0.6,1,1c0.3,0.4,0.5,0.9,0.6,1.4c0.1,0.5,0.2,1,0.2,1.6s-0.1,1.1-0.2,1.6c-0.1,0.5-0.3,1-0.6,1.4
			S217.7,31,217.3,31.2z M214.4,29.5c0.3,0.6,0.8,0.9,1.4,0.9s1.1-0.3,1.4-0.9c0.3-0.6,0.5-1.3,0.5-2.2c0-0.6-0.1-1.1-0.2-1.5
			c-0.1-0.4-0.3-0.8-0.6-1.1c-0.3-0.3-0.6-0.4-1.1-0.4c-0.4,0-0.8,0.1-1.1,0.4c-0.3,0.3-0.5,0.6-0.6,1.1c-0.1,0.4-0.2,0.9-0.2,1.5
			C213.9,28.2,214.1,28.9,214.4,29.5z"/>
	</g>
	<g>
		<path class="st6" d="M203.1,59.4c-0.7,0-1.3-0.1-1.9-0.4c-0.5-0.2-1-0.6-1.3-1l0.8-1c0.3,0.3,0.6,0.6,1,0.7
			c0.4,0.2,0.8,0.3,1.3,0.3c0.5,0,1-0.1,1.3-0.3c0.3-0.2,0.5-0.5,0.5-0.9c0-0.8-0.6-1.2-1.8-1.2c-0.6,0-0.9,0-1,0v-1.3
			c0.1,0,0.4,0,1,0c0.5,0,0.9-0.1,1.2-0.3s0.5-0.5,0.5-0.8c0-0.4-0.2-0.7-0.5-0.9c-0.3-0.2-0.7-0.3-1.2-0.3c-0.8,0-1.5,0.3-2.2,0.9
			l-0.8-0.9c0.7-0.9,1.8-1.3,3-1.3c0.9,0,1.6,0.2,2.2,0.6c0.6,0.4,0.8,1,0.8,1.6c0,0.5-0.2,0.9-0.5,1.3c-0.4,0.3-0.8,0.5-1.3,0.6
			c0.5,0,0.9,0.2,1.3,0.6c0.4,0.4,0.6,0.8,0.6,1.4c0,0.7-0.3,1.3-0.9,1.8S204.1,59.4,203.1,59.4z"/>
		<path class="st6" d="M210.6,59.4c-1.3,0-2.4-0.4-3.1-1.3l0.8-1c0.6,0.7,1.3,1,2.2,1c0.5,0,0.9-0.1,1.2-0.4s0.5-0.6,0.5-1
			c0-0.5-0.2-0.8-0.5-1.1c-0.3-0.3-0.7-0.4-1.2-0.4c-0.7,0-1.3,0.2-1.8,0.7l-1-0.3v-4.7h5.5v1.3h-4v2.4c0.5-0.5,1.1-0.7,1.9-0.7
			c0.7,0,1.4,0.2,1.9,0.7c0.5,0.5,0.8,1.1,0.8,2c0,0.9-0.3,1.5-0.9,2.1C212.4,59.1,211.6,59.4,210.6,59.4z"/>
		<path class="st6" d="M219.7,59c-0.4,0.2-0.9,0.4-1.5,0.4c-0.6,0-1.1-0.1-1.5-0.4c-0.4-0.2-0.8-0.6-1-1c-0.3-0.4-0.5-0.9-0.6-1.4
			s-0.2-1-0.2-1.6c0-0.5,0.1-1.1,0.2-1.6s0.3-1,0.6-1.4c0.3-0.4,0.6-0.7,1-1c0.4-0.2,0.9-0.4,1.5-0.4c0.6,0,1.1,0.1,1.5,0.4
			c0.4,0.2,0.8,0.6,1,1c0.3,0.4,0.5,0.9,0.6,1.4c0.1,0.5,0.2,1,0.2,1.6c0,0.5-0.1,1.1-0.2,1.6c-0.1,0.5-0.3,1-0.6,1.4
			C220.5,58.4,220.1,58.7,219.7,59z M216.8,57.2c0.3,0.6,0.8,0.9,1.4,0.9s1.1-0.3,1.4-0.9c0.3-0.6,0.5-1.3,0.5-2.2
			c0-0.6-0.1-1.1-0.2-1.5c-0.1-0.4-0.3-0.8-0.6-1.1s-0.6-0.4-1.1-0.4c-0.4,0-0.8,0.1-1.1,0.4s-0.5,0.6-0.6,1.1
			c-0.1,0.4-0.2,0.9-0.2,1.5C216.3,55.9,216.5,56.7,216.8,57.2z"/>
	</g>
	<g>
		<path class="st6" d="M203.5,86.7c-1.3,0-2.4-0.4-3.1-1.3l0.8-1c0.6,0.7,1.3,1,2.2,1c0.5,0,0.9-0.1,1.2-0.4s0.5-0.6,0.5-1
			c0-0.5-0.2-0.8-0.5-1.1s-0.7-0.4-1.2-0.4c-0.7,0-1.3,0.2-1.8,0.7l-1-0.3v-4.7h5.5v1.3h-4V82c0.5-0.5,1.1-0.7,1.9-0.7
			c0.7,0,1.4,0.2,1.9,0.7c0.5,0.5,0.8,1.1,0.8,2c0,0.9-0.3,1.5-0.9,2.1C205.2,86.5,204.4,86.7,203.5,86.7z"/>
		<path class="st6" d="M212.5,86.4c-0.4,0.2-0.9,0.4-1.5,0.4s-1.1-0.1-1.5-0.4s-0.8-0.6-1.1-1c-0.3-0.4-0.5-0.9-0.6-1.4
			s-0.2-1-0.2-1.6s0.1-1.1,0.2-1.6s0.3-1,0.6-1.4c0.3-0.4,0.6-0.7,1.1-1s0.9-0.4,1.5-0.4s1.1,0.1,1.5,0.4s0.8,0.6,1,1
			c0.3,0.4,0.5,0.9,0.6,1.4c0.1,0.5,0.2,1,0.2,1.6s-0.1,1.1-0.2,1.6c-0.1,0.5-0.3,1-0.6,1.4S213,86.1,212.5,86.4z M209.6,84.6
			c0.3,0.6,0.8,0.9,1.4,0.9s1.1-0.3,1.4-0.9c0.3-0.6,0.4-1.3,0.4-2.2c0-0.6-0.1-1.1-0.2-1.5c-0.1-0.4-0.3-0.8-0.6-1.1
			c-0.3-0.3-0.6-0.4-1.1-0.4s-0.8,0.1-1.1,0.4c-0.3,0.3-0.5,0.6-0.6,1.1c-0.1,0.4-0.2,0.9-0.2,1.5C209.2,83.3,209.3,84,209.6,84.6z"
			/>
		<path class="st6" d="M218.7,86.7c-1.3,0-2.4-0.4-3.1-1.3l0.8-1c0.6,0.7,1.3,1,2.2,1c0.5,0,0.9-0.1,1.2-0.4s0.5-0.6,0.5-1
			c0-0.5-0.2-0.8-0.5-1.1c-0.3-0.3-0.7-0.4-1.2-0.4c-0.7,0-1.3,0.2-1.8,0.7l-1-0.3v-4.7h5.5v1.3h-4V82c0.5-0.5,1.1-0.7,1.9-0.7
			c0.7,0,1.4,0.2,1.9,0.7s0.8,1.1,0.8,2c0,0.9-0.3,1.5-0.9,2.1C220.4,86.5,219.6,86.7,218.7,86.7z"/>
	</g>
	<g>
		<path class="st6" d="M206.3,113.5h-6v-1.1c1.7-1.3,2.9-2.3,3.6-2.9s0.9-1.2,0.9-1.8c0-0.4-0.1-0.7-0.4-0.9s-0.7-0.3-1.1-0.3
			c-0.9,0-1.7,0.3-2.2,1l-0.8-1c0.4-0.4,0.8-0.8,1.4-1c0.5-0.2,1.1-0.3,1.7-0.3c0.9,0,1.6,0.2,2.1,0.7c0.6,0.5,0.9,1.1,0.9,1.9
			c0,0.7-0.3,1.4-0.9,2.1c-0.6,0.7-1.5,1.5-2.8,2.5h3.7V113.5z"/>
		<path class="st6" d="M211.1,113.6c-0.6,0-1.1-0.1-1.6-0.3c-0.4-0.2-0.8-0.5-1.1-0.9c-0.3-0.4-0.5-0.9-0.6-1.4
			c-0.1-0.5-0.2-1.1-0.2-1.7c0-1.3,0.3-2.3,1-3.1c0.6-0.8,1.5-1.2,2.7-1.2c1,0,1.8,0.3,2.4,0.9l-0.7,1.1c-0.5-0.5-1-0.7-1.7-0.7
			c-0.7,0-1.2,0.3-1.6,0.8s-0.6,1.2-0.6,2c0,0.1,0,0.2,0,0.2c0.2-0.3,0.5-0.6,0.9-0.8s0.8-0.3,1.3-0.3c0.8,0,1.5,0.2,2,0.7
			s0.8,1.1,0.8,2c0,0.8-0.3,1.5-0.9,2C212.7,113.4,212,113.6,211.1,113.6z M211,112.3c0.5,0,0.9-0.1,1.2-0.4c0.3-0.3,0.4-0.6,0.4-1
			c0-0.5-0.2-0.9-0.5-1.1c-0.3-0.3-0.7-0.4-1.2-0.4c-0.4,0-0.7,0.1-1,0.3c-0.3,0.2-0.6,0.4-0.8,0.7c0.1,0.5,0.2,1,0.5,1.4
			C209.9,112.1,210.4,112.3,211,112.3z"/>
		<path class="st6" d="M220,113.3c-0.4,0.2-0.9,0.4-1.5,0.4c-0.6,0-1.1-0.1-1.5-0.4c-0.4-0.2-0.8-0.6-1-1c-0.3-0.4-0.5-0.9-0.6-1.4
			s-0.2-1-0.2-1.6s0.1-1.1,0.2-1.6s0.3-1,0.6-1.4c0.3-0.4,0.6-0.7,1-1c0.4-0.2,0.9-0.4,1.5-0.4c0.6,0,1.1,0.1,1.5,0.4
			c0.4,0.2,0.8,0.6,1,1c0.3,0.4,0.5,0.9,0.6,1.4c0.1,0.5,0.2,1,0.2,1.6s-0.1,1.1-0.2,1.6c-0.1,0.5-0.3,1-0.6,1.4
			S220.4,113,220,113.3z M217.1,111.5c0.3,0.6,0.8,0.9,1.4,0.9s1.1-0.3,1.4-0.9c0.3-0.6,0.5-1.3,0.5-2.2c0-0.6-0.1-1.1-0.2-1.5
			c-0.1-0.4-0.3-0.8-0.6-1.1c-0.3-0.3-0.6-0.4-1.1-0.4c-0.4,0-0.8,0.1-1.1,0.4c-0.3,0.3-0.5,0.6-0.6,1.1c-0.1,0.4-0.2,0.9-0.2,1.5
			C216.6,110.2,216.8,110.9,217.1,111.5z"/>
	</g>
	<g>
		<path class="st6" d="M204.9,142.2h-1.5v-6.4l-1.4,1.4l-0.8-0.9l2.4-2.4h1.3V142.2z"/>
		<path class="st6" d="M208.2,141.8c0,0.4-0.1,0.8-0.3,1.2c-0.2,0.4-0.5,0.7-0.9,0.9l-0.6-0.5c0.2-0.1,0.4-0.3,0.6-0.5
			c0.2-0.2,0.3-0.4,0.3-0.7c-0.1,0-0.1,0-0.2,0c-0.2,0-0.4-0.1-0.5-0.2c-0.1-0.1-0.2-0.3-0.2-0.6s0.1-0.4,0.2-0.6
			c0.2-0.2,0.4-0.3,0.6-0.3c0.3,0,0.5,0.1,0.7,0.3C208.1,141.1,208.2,141.4,208.2,141.8z"/>
		<path class="st6" d="M212.3,142.4c-0.7,0-1.3-0.1-1.9-0.4c-0.5-0.2-1-0.6-1.3-1l0.8-1c0.3,0.3,0.6,0.6,1,0.7
			c0.4,0.2,0.8,0.3,1.3,0.3c0.5,0,1-0.1,1.3-0.3c0.3-0.2,0.5-0.5,0.5-0.9c0-0.8-0.6-1.2-1.8-1.2c-0.6,0-0.9,0-1,0v-1.3
			c0.1,0,0.4,0,1,0c0.5,0,0.9-0.1,1.2-0.3s0.5-0.5,0.5-0.8c0-0.4-0.2-0.7-0.5-0.9c-0.3-0.2-0.7-0.3-1.2-0.3c-0.8,0-1.5,0.3-2.2,0.9
			l-0.8-0.9c0.7-0.9,1.8-1.3,3-1.3c0.9,0,1.6,0.2,2.2,0.6c0.6,0.4,0.8,1,0.8,1.6c0,0.5-0.2,0.9-0.5,1.3c-0.4,0.3-0.8,0.5-1.3,0.6
			c0.5,0,0.9,0.2,1.3,0.6c0.4,0.4,0.6,0.8,0.6,1.4c0,0.7-0.3,1.3-0.9,1.8C214,142.2,213.2,142.4,212.3,142.4z"/>
		<path class="st6" d="M221.4,142c-0.4,0.2-0.9,0.4-1.5,0.4c-0.6,0-1.1-0.1-1.5-0.4c-0.4-0.2-0.8-0.6-1-1c-0.3-0.4-0.5-0.9-0.6-1.4
			s-0.2-1-0.2-1.6s0.1-1.1,0.2-1.6s0.3-1,0.6-1.4c0.3-0.4,0.6-0.7,1-1c0.4-0.2,0.9-0.4,1.5-0.4c0.6,0,1.1,0.1,1.5,0.4
			c0.4,0.2,0.8,0.6,1,1c0.3,0.4,0.5,0.9,0.6,1.4c0.1,0.5,0.2,1,0.2,1.6s-0.1,1.1-0.2,1.6c-0.1,0.5-0.3,1-0.6,1.4
			S221.8,141.8,221.4,142z M218.5,140.2c0.3,0.6,0.8,0.9,1.4,0.9s1.1-0.3,1.4-0.9c0.3-0.6,0.5-1.3,0.5-2.2c0-0.6-0.1-1.1-0.2-1.5
			c-0.1-0.4-0.3-0.8-0.6-1.1c-0.3-0.3-0.6-0.4-1.1-0.4c-0.4,0-0.8,0.1-1.1,0.4c-0.3,0.3-0.5,0.6-0.6,1.1c-0.1,0.4-0.2,0.9-0.2,1.5
			C218,139,218.2,139.7,218.5,140.2z"/>
		<path class="st6" d="M227.5,142.4c-1.3,0-2.4-0.4-3.1-1.3l0.8-1c0.6,0.7,1.3,1,2.2,1c0.5,0,0.9-0.1,1.2-0.4s0.5-0.6,0.5-1
			c0-0.5-0.2-0.8-0.5-1.1s-0.7-0.4-1.2-0.4c-0.7,0-1.3,0.2-1.8,0.7l-1-0.3v-4.7h5.5v1.3h-4v2.4c0.5-0.5,1.1-0.7,1.9-0.7
			c0.7,0,1.4,0.2,1.9,0.7c0.5,0.5,0.8,1.1,0.8,2c0,0.9-0.3,1.5-0.9,2.1C229.2,142.1,228.4,142.4,227.5,142.4z"/>
	</g>
	<g>
		<path class="st6" d="M45,116.5c-0.7,0-1.3-0.1-1.9-0.4c-0.5-0.2-1-0.6-1.3-1l0.8-1c0.3,0.3,0.6,0.6,1,0.7c0.4,0.2,0.8,0.3,1.3,0.3
			c0.5,0,1-0.1,1.3-0.3c0.3-0.2,0.5-0.5,0.5-0.9c0-0.8-0.6-1.2-1.8-1.2c-0.6,0-0.9,0-1,0v-1.3c0.1,0,0.4,0,1,0
			c0.5,0,0.9-0.1,1.2-0.3s0.5-0.5,0.5-0.8c0-0.4-0.2-0.7-0.5-0.9c-0.3-0.2-0.7-0.3-1.2-0.3c-0.8,0-1.5,0.3-2.2,0.9l-0.8-0.9
			c0.7-0.9,1.8-1.3,3-1.3c0.9,0,1.6,0.2,2.2,0.6c0.6,0.4,0.8,1,0.8,1.6c0,0.5-0.2,0.9-0.5,1.3c-0.4,0.3-0.8,0.5-1.3,0.6
			c0.5,0,0.9,0.2,1.3,0.6c0.4,0.4,0.6,0.8,0.6,1.4c0,0.7-0.3,1.3-0.9,1.8C46.7,116.3,46,116.5,45,116.5z"/>
		<path class="st6" d="M54.6,116.3h-1.5v-1.9h-4v-1.2l3.4-5.3h2v5.2h1.1v1.3h-1.1V116.3z M53.1,113.2v-3.8l-2.5,3.8H53.1z"/>
		<path class="st6" d="M59.8,116.5c-1.3,0-2.4-0.4-3.1-1.3l0.8-1c0.6,0.7,1.3,1,2.2,1c0.5,0,0.9-0.1,1.2-0.4s0.5-0.6,0.5-1
			c0-0.5-0.2-0.8-0.5-1.1c-0.3-0.3-0.7-0.4-1.2-0.4c-0.7,0-1.3,0.2-1.8,0.7l-1-0.3V108h5.5v1.3h-4v2.4c0.5-0.5,1.1-0.7,1.9-0.7
			c0.7,0,1.4,0.2,1.9,0.7s0.8,1.1,0.8,2c0,0.9-0.3,1.5-0.9,2.1C61.5,116.2,60.8,116.5,59.8,116.5z"/>
	</g>
	<g>
		<path class="st6" d="M46.9,88.7h-1.5v-1.9h-4v-1.2l3.4-5.3h2v5.2H48v1.3h-1.1V88.7z M45.5,85.6v-3.8l-2.5,3.8H45.5z"/>
		<path class="st6" d="M55,88.7h-6v-1.1c1.7-1.3,2.9-2.3,3.6-2.9c0.6-0.6,0.9-1.2,0.9-1.8c0-0.4-0.1-0.7-0.4-0.9
			c-0.3-0.2-0.7-0.3-1.1-0.3c-0.9,0-1.7,0.3-2.2,1l-0.8-1c0.4-0.4,0.8-0.8,1.4-1c0.5-0.2,1.1-0.3,1.7-0.3c0.8,0,1.6,0.2,2.1,0.7
			c0.6,0.5,0.9,1.1,0.9,1.9c0,0.7-0.3,1.4-0.9,2.1c-0.6,0.7-1.5,1.5-2.8,2.5H55V88.7z"/>
		<path class="st6" d="M61.2,88.5c-0.4,0.2-0.9,0.4-1.5,0.4s-1.1-0.1-1.5-0.4s-0.8-0.6-1-1s-0.5-0.9-0.6-1.4c-0.1-0.5-0.2-1-0.2-1.6
			s0.1-1.1,0.2-1.6c0.1-0.5,0.3-1,0.6-1.4c0.3-0.4,0.6-0.7,1-1s0.9-0.4,1.5-0.4s1.1,0.1,1.5,0.4s0.8,0.6,1.1,1
			c0.3,0.4,0.5,0.9,0.6,1.4s0.2,1,0.2,1.6s-0.1,1.1-0.2,1.6s-0.3,1-0.6,1.4C62,87.9,61.6,88.3,61.2,88.5z M58.3,86.7
			c0.3,0.6,0.8,0.9,1.4,0.9c0.6,0,1.1-0.3,1.4-0.9c0.3-0.6,0.5-1.3,0.5-2.2c0-0.6-0.1-1.1-0.2-1.5c-0.1-0.4-0.3-0.8-0.6-1.1
			c-0.3-0.3-0.6-0.4-1.1-0.4s-0.8,0.1-1.1,0.4c-0.3,0.3-0.5,0.6-0.6,1.1c-0.1,0.4-0.2,0.9-0.2,1.5C57.8,85.5,58,86.2,58.3,86.7z"/>
	</g>
	<g>
		<path class="st6" d="M44.6,59.4c-0.7,0-1.3-0.1-1.9-0.4c-0.5-0.2-1-0.6-1.3-1l0.8-1c0.3,0.3,0.6,0.6,1,0.7
			c0.4,0.2,0.8,0.3,1.3,0.3c0.5,0,1-0.1,1.3-0.3c0.3-0.2,0.5-0.5,0.5-0.9c0-0.8-0.6-1.2-1.8-1.2c-0.6,0-0.9,0-1,0v-1.3
			c0.1,0,0.4,0,1,0c0.5,0,0.9-0.1,1.2-0.3s0.5-0.5,0.5-0.8c0-0.4-0.2-0.7-0.5-0.9c-0.3-0.2-0.7-0.3-1.2-0.3c-0.8,0-1.5,0.3-2.1,0.9
			l-0.8-0.9c0.7-0.9,1.8-1.3,3-1.3c0.9,0,1.6,0.2,2.2,0.6c0.5,0.4,0.8,1,0.8,1.6c0,0.5-0.2,0.9-0.5,1.3c-0.4,0.3-0.8,0.5-1.3,0.6
			c0.5,0,0.9,0.2,1.3,0.6c0.4,0.4,0.6,0.8,0.6,1.4c0,0.7-0.3,1.3-0.9,1.8C46.3,59.1,45.5,59.4,44.6,59.4z"/>
		<path class="st6" d="M53.7,59c-0.4,0.2-0.9,0.4-1.5,0.4s-1.1-0.1-1.5-0.4s-0.8-0.6-1-1s-0.5-0.9-0.6-1.4c-0.1-0.5-0.2-1-0.2-1.6
			s0.1-1.1,0.2-1.6c0.1-0.5,0.3-1,0.6-1.4c0.3-0.4,0.6-0.7,1-1s0.9-0.4,1.5-0.4s1.1,0.1,1.5,0.4s0.8,0.6,1.1,1
			c0.3,0.4,0.5,0.9,0.6,1.4s0.2,1,0.2,1.6s-0.1,1.1-0.2,1.6s-0.3,1-0.6,1.4C54.5,58.4,54.1,58.7,53.7,59z M50.8,57.2
			c0.3,0.6,0.8,0.9,1.4,0.9c0.6,0,1.1-0.3,1.4-0.9c0.3-0.6,0.5-1.3,0.5-2.2c0-0.6-0.1-1.1-0.2-1.5c-0.1-0.4-0.3-0.8-0.6-1.1
			c-0.3-0.3-0.6-0.4-1.1-0.4s-0.8,0.1-1.1,0.4c-0.3,0.3-0.5,0.6-0.6,1.1c-0.1,0.4-0.2,0.9-0.2,1.5C50.3,55.9,50.5,56.7,50.8,57.2z"
			/>
		<path class="st6" d="M59.8,59.4c-1.3,0-2.4-0.4-3.1-1.3l0.8-1c0.6,0.7,1.3,1,2.2,1c0.5,0,0.9-0.1,1.2-0.4s0.5-0.6,0.5-1
			c0-0.5-0.2-0.8-0.5-1.1c-0.3-0.3-0.7-0.4-1.2-0.4c-0.7,0-1.3,0.2-1.8,0.7l-1-0.3v-4.7h5.5v1.3h-4v2.4c0.5-0.5,1.1-0.7,1.9-0.7
			c0.7,0,1.4,0.2,1.9,0.7c0.5,0.5,0.8,1.1,0.8,2c0,0.9-0.3,1.5-0.9,2.1C61.5,59.1,60.8,59.4,59.8,59.4z"/>
	</g>
	<g>
		<path class="st6" d="M47.8,30h-6v-1.1c1.7-1.3,2.9-2.3,3.6-2.9c0.6-0.6,0.9-1.2,0.9-1.8c0-0.4-0.1-0.7-0.4-0.9
			c-0.3-0.2-0.7-0.3-1.1-0.3c-0.9,0-1.7,0.3-2.2,1l-0.8-1c0.4-0.4,0.8-0.8,1.4-1c0.5-0.2,1.1-0.3,1.7-0.3c0.9,0,1.6,0.2,2.2,0.7
			c0.6,0.5,0.9,1.1,0.9,1.9c0,0.7-0.3,1.4-0.9,2.1c-0.6,0.7-1.5,1.5-2.8,2.5h3.7V30z"/>
		<path class="st6" d="M54.6,29.5c-0.6,0.4-1.4,0.6-2.3,0.6c-0.9,0-1.7-0.2-2.3-0.6c-0.6-0.4-0.9-1-0.9-1.7c0-0.5,0.2-0.9,0.5-1.3
			c0.4-0.4,0.8-0.7,1.3-0.8c-0.5-0.2-0.9-0.4-1.3-0.7s-0.5-0.7-0.5-1.2c0-0.4,0.1-0.7,0.3-1c0.2-0.3,0.4-0.5,0.7-0.7
			c0.3-0.2,0.6-0.3,1-0.4c0.4-0.1,0.7-0.1,1.1-0.1c0.4,0,0.8,0,1.1,0.1s0.7,0.2,1,0.4c0.3,0.2,0.5,0.4,0.7,0.7
			c0.2,0.3,0.3,0.6,0.3,1c0,0.9-0.6,1.6-1.8,2c0.5,0.2,1,0.5,1.3,0.8c0.4,0.4,0.5,0.8,0.5,1.3C55.5,28.6,55.2,29.1,54.6,29.5z
			 M52.3,28.8c0.5,0,0.9-0.1,1.2-0.3S54,28,54,27.7c0-0.4-0.2-0.7-0.6-0.9c-0.4-0.2-0.8-0.4-1.1-0.4c-0.2,0-0.4,0.1-0.7,0.2
			c-0.2,0.1-0.5,0.2-0.7,0.4c-0.2,0.2-0.3,0.4-0.3,0.7c0,0.4,0.2,0.6,0.5,0.9C51.4,28.7,51.8,28.8,52.3,28.8z M52.3,25.1
			c0.2,0,0.4-0.1,0.6-0.2c0.2-0.1,0.4-0.2,0.6-0.4c0.2-0.2,0.3-0.4,0.3-0.6c0-0.3-0.1-0.6-0.4-0.8c-0.3-0.2-0.7-0.3-1.1-0.3
			c-0.5,0-0.8,0.1-1.1,0.3s-0.4,0.5-0.4,0.8c0,0.2,0.1,0.5,0.3,0.6c0.2,0.2,0.4,0.3,0.6,0.4C51.9,25,52.1,25.1,52.3,25.1z"/>
		<path class="st6" d="M59.8,30.1c-1.3,0-2.4-0.4-3.1-1.3l0.8-1c0.6,0.7,1.3,1,2.2,1c0.5,0,0.9-0.1,1.2-0.4s0.5-0.6,0.5-1
			c0-0.5-0.2-0.8-0.5-1.1c-0.3-0.3-0.7-0.4-1.2-0.4c-0.7,0-1.3,0.2-1.8,0.7l-1-0.3v-4.7h5.5v1.3h-4v2.4c0.5-0.5,1.1-0.7,1.9-0.7
			c0.7,0,1.4,0.2,1.9,0.7c0.5,0.5,0.8,1.1,0.8,2c0,0.9-0.3,1.5-0.9,2.1C61.5,29.9,60.8,30.1,59.8,30.1z"/>
	</g>
	<g>
		<path class="st6" d="M46.8,141.7h-1.5v-1.9h-4v-1.2l3.4-5.3h2v5.2H48v1.3h-1.1V141.7z M45.4,138.5v-3.8l-2.5,3.8H45.4z"/>
		<path class="st6" d="M54.1,141.7h-1.5v-1.9h-4v-1.2l3.4-5.3h2v5.2h1.1v1.3h-1.1V141.7z M52.6,138.5v-3.8l-2.5,3.8H52.6z"/>
		<path class="st6" d="M60.9,141.5c-0.4,0.2-0.9,0.4-1.5,0.4s-1.1-0.1-1.5-0.4s-0.8-0.6-1-1s-0.5-0.9-0.6-1.4
			c-0.1-0.5-0.2-1-0.2-1.6s0.1-1.1,0.2-1.6c0.1-0.5,0.3-1,0.6-1.4c0.3-0.4,0.6-0.7,1-1s0.9-0.4,1.5-0.4s1.1,0.1,1.5,0.4
			s0.8,0.6,1.1,1c0.3,0.4,0.5,0.9,0.6,1.4s0.2,1,0.2,1.6s-0.1,1.1-0.2,1.6s-0.3,1-0.6,1.4C61.7,140.9,61.4,141.2,60.9,141.5z
			 M58,139.7c0.3,0.6,0.8,0.9,1.4,0.9c0.6,0,1.1-0.3,1.4-0.9c0.3-0.6,0.5-1.3,0.5-2.2c0-0.6-0.1-1.1-0.2-1.5
			c-0.1-0.4-0.3-0.8-0.6-1.1c-0.3-0.3-0.6-0.4-1.1-0.4s-0.8,0.1-1.1,0.4c-0.3,0.3-0.5,0.6-0.6,1.1c-0.1,0.4-0.2,0.9-0.2,1.5
			C57.6,138.4,57.7,139.1,58,139.7z"/>
	</g>
	<g>
		<g>
			<path class="st7" d="M193.2,49.8c-11.3-2.7-35,0.2-49,15.6"/>
			<g>
				<path class="st2" d="M144.3,65.3c0.5,0,1.2,0.3,1.5,0.7c-0.8-0.1-1.7,0-2.5,0.4c0.3-0.8,0.3-1.7,0.1-2.5
					C143.8,64.2,144.2,64.7,144.3,65.3z"/>
			</g>
		</g>
	</g>
	<g>
		<g>
			<path class="st8" d="M70.7,129.5c18.2,0,70.5-2.5,96.9-29.7"/>
			<g>
				<path class="st2" d="M167.5,99.9c-0.7,0-1.5-0.5-1.9-0.9c1,0.1,2.1,0.1,3.1-0.3c-0.4,1-0.4,2.1-0.3,3.1
					C168,101.3,167.5,100.6,167.5,99.9z"/>
			</g>
		</g>
	</g>
	<g>
		<g>
			<path class="st9" d="M193.2,131.5c-10.5,4.4-24.5,6.5-38.5,2.4"/>
			<g>
				<path class="st2" d="M155,134c0.7,1.2,0.6,3.1,0.2,4.4c-0.8-2.1-2-4-3.7-5.4c2.2-0.2,4.2-1.3,6-2.6
					C157.1,131.7,156.3,133.3,155,134z"/>
			</g>
		</g>
	</g>
	<g>
		<g>
			<path class="st10" d="M70.7,17.2c17.7-1.3,29.3,0.9,42.6,15.9"/>
			<g>
				<path class="st2" d="M113.2,33.1c0-0.4,0.4-0.9,0.7-1.2c-0.1,0.7-0.1,1.4,0.1,2c-0.6-0.3-1.3-0.4-2-0.3
					C112.3,33.3,112.8,33,113.2,33.1z"/>
			</g>
		</g>
	</g>
	<g>
		<g>
			<path class="st11" d="M69.6,104.6c10.2,4.7,57.7,10.1,89.4-10.3"/>
			<g>
				<path class="st2" d="M158.9,94.3c-0.5-0.1-1-0.6-1.3-1c0.8,0.3,1.6,0.4,2.5,0.3c-0.5,0.7-0.7,1.5-0.8,2.4
					C159,95.5,158.8,94.9,158.9,94.3z"/>
			</g>
		</g>
	</g>
	<g>
		<g>
			<path class="st12" d="M69,48.9c14.4-4,25-4.2,44,1.5"/>
			<g>
				<path class="st2" d="M112.9,50.4c-0.1-0.2-0.1-0.5,0-0.7c0.1,0.3,0.3,0.6,0.6,0.8c-0.3,0-0.6,0.2-0.9,0.4
					C112.6,50.7,112.7,50.5,112.9,50.4z"/>
			</g>
		</g>
	</g>
	<g>
		<g>
			<path class="st13" d="M69,78.6c6.4-7.2,29.8-22.2,53.5-16.2"/>
			<g>
				<path class="st2" d="M122.3,62.4c-0.3-0.5-0.3-1.4-0.2-2c0.4,0.9,1,1.8,1.8,2.4c-1,0.1-1.9,0.7-2.7,1.3
					C121.4,63.4,121.8,62.7,122.3,62.4z"/>
			</g>
		</g>
	</g>
</g>
</svg>
