<?xml version="1.0" encoding="utf-8"?>
<!-- Generator: Adobe Illustrator 19.2.0, SVG Export Plug-In . SVG Version: 6.00 Build 0)  -->
<svg version="1.1" id="Layer_1" xmlns="http://www.w3.org/2000/svg" xmlns:xlink="http://www.w3.org/1999/xlink" x="0px" y="0px"
	 viewBox="0 0 266.2 169.3" style="enable-background:new 0 0 266.2 169.3;" xml:space="preserve">
<style type="text/css">
	.st0{fill:#0D92FF;}
	.st1{fill:none;stroke:#00325C;stroke-width:9.500000e-02;stroke-miterlimit:10;}
	.st2{fill:#00325C;}
	.st3{fill:#787878;}
	.st4{fill:none;stroke:#00325C;stroke-width:0.185;stroke-miterlimit:10;}
	.st5{fill:none;stroke:#00325C;stroke-width:1.545;stroke-miterlimit:3;}
	.st6{fill:none;stroke:#00325C;stroke-width:2.750000e-02;stroke-miterlimit:10;}
	.st7{fill:none;stroke:#00325C;stroke-width:0.28;stroke-miterlimit:10;}
	.st8{fill:none;stroke:#00325C;stroke-width:0.265;stroke-miterlimit:10;}
	.st9{fill:none;stroke:#00325C;stroke-width:0.325;stroke-miterlimit:10;}
	.st10{fill:none;stroke:#00325C;stroke-width:6.000000e-02;stroke-miterlimit:10;}
	.st11{fill:none;stroke:#00325C;stroke-width:0.19;stroke-miterlimit:10;}
</style>
<g>
	<path class="st0" d="M141.7,137.6L141.7,137.6L141.7,137.6L141.7,137.6L141.7,137.6l0.1-0.1L141.7,137.6L141.7,137.6L141.7,137.6
		L141.7,137.6L141.7,137.6z M141.9,139L141.9,139L141.9,139L141.9,139l0.1-0.1L141.9,139l0.1-0.1L141.9,139L141.9,139L141.9,139
		L141.9,139L141.9,139L141.9,139L141.9,139L141.9,139L141.9,139z M141.5,138.9L141.5,138.9l0,0.1L141.5,138.9L141.5,138.9
		L141.5,138.9L141.5,138.9L141.5,138.9L141.5,138.9z M141.6,139.4L141.6,139.4L141.6,139.4L141.6,139.4L141.6,139.4L141.6,139.4
		L141.6,139.4l-0.1,0.1l0,0.1l0,0l0.1,0l0,0l0-0.1l0,0L141.6,139.4L141.6,139.4L141.6,139.4L141.6,139.4z M119.9,143.7L119.9,143.7
		L119.9,143.7L119.9,143.7L119.9,143.7l-0.1,0l0,0l0,0l0,0l0,0l0,0.1l0,0l0,0l0,0l0,0l0,0l0,0l0,0L119.9,143.7L119.9,143.7
		L119.9,143.7z M140.6,144.8L140.6,144.8l0.1,0.1l0,0L140.6,144.8L140.6,144.8l0-0.1L140.6,144.8L140.6,144.8z M141,146.8L141,146.8
		L141,146.8L141,146.8L141,146.8L141,146.8z M140.1,148L140.1,148L140.1,148l0.1,0l0,0l0,0l0,0l0.1,0l0,0l0,0l-0.1,0L140.1,148
		l0-0.1l0,0L140.1,148L140.1,148L140.1,148L140.1,148z M135.1,155.2L135.1,155.2L135.1,155.2v-0.1V155.2z M133.4,155.4L133.4,155.4
		L133.4,155.4L133.4,155.4L133.4,155.4L133.4,155.4L133.4,155.4L133.4,155.4L133.4,155.4z M136.8,156.1L136.8,156.1L136.8,156.1
		L136.8,156.1L136.8,156.1L136.8,156.1L136.8,156.1L136.8,156.1L136.8,156.1L136.8,156.1l0,0.1L136.8,156.1L136.8,156.1L136.8,156.1
		L136.8,156.1z M132.8,156.2L132.8,156.2L132.8,156.2l0,0.1h0L132.8,156.2L132.8,156.2L132.8,156.2z M158.6,90.8L158.6,90.8
		L158.6,90.8L158.6,90.8L158.6,90.8L158.6,90.8L158.6,90.8z M157.4,90.9L157.4,90.9L157.4,90.9L157.4,90.9L157.4,90.9L157.4,90.9
		L157.4,90.9L157.4,90.9z M156.9,91L156.9,91l0,0.2h0l0,0l0,0L156.9,91L156.9,91L156.9,91z M156.8,91.5L156.8,91.5l0,0.1l0,0l0,0
		l0,0l0,0.1L156.8,91.5L156.8,91.5L156.8,91.5z M155.6,92.2L155.6,92.2L155.6,92.2l0,0.1L155.6,92.2L155.6,92.2L155.6,92.2z
		 M153.9,93.2L153.9,93.2L153.9,93.2L153.9,93.2l-0.1,0.1l0,0l0,0.1l0-0.1L153.9,93.2L153.9,93.2z M154,93.9l0,0.1L154,93.9
		L154,93.9L154,93.9L154,93.9z M152.3,94.1L152.3,94.1l0-0.1L152.3,94.1l0,0.1l0,0l0,0l0,0l0,0l0.1,0l0-0.1L152.3,94.1L152.3,94.1z
		 M151.9,94.2L151.9,94.2L151.9,94.2L151.9,94.2L151.9,94.2L151.9,94.2L151.9,94.2L151.9,94.2z M151,95.9L151,95.9L151,95.9l0-0.1
		l0,0L151,95.9L151,95.9z M149.7,96.6L149.7,96.6L149.7,96.6L149.7,96.6l0.1,0L149.7,96.6L149.7,96.6L149.7,96.6z M149.5,97
		L149.5,97L149.5,97l0.1-0.1L149.5,97L149.5,97z M166,71.1L166,71.1l0,0.2l0,0L166,71.1L166,71.1z M165.9,71.1L165.9,71.1l0,0.1
		l0.1,0.1l0,0L165.9,71.1L165.9,71.1z M171.7,71.2L171.7,71.2L171.7,71.2l0,0.1L171.7,71.2L171.7,71.2L171.7,71.2L171.7,71.2
		L171.7,71.2L171.7,71.2z M171.9,71.4L171.9,71.4L171.9,71.4l0-0.1l-0.1,0L171.9,71.4z M169,71.3L169,71.3L169,71.3L169,71.3
		L169,71.3L169,71.3L169,71.3L169,71.3L169,71.3L169,71.3L169,71.3z M167.9,71.2L167.9,71.2L167.9,71.2l0,0.1l0,0l0,0l0,0
		L167.9,71.2L167.9,71.2z M171,71.3L171,71.3L171,71.3L171,71.3L171,71.3L171,71.3L171,71.3z M168.6,71.7L168.6,71.7L168.6,71.7
		L168.6,71.7L168.6,71.7z M170.7,71.7L170.7,71.7L170.7,71.7L170.7,71.7L170.7,71.7L170.7,71.7z M167.9,71.8L167.9,71.8L167.9,71.8
		L167.9,71.8L167.9,71.8L167.9,71.8l0-0.1l0,0l0,0l0,0l0,0L167.9,71.8L167.9,71.8L167.9,71.8l-0.1-0.1l0,0l0,0l0,0l0,0L167.9,71.8
		L167.9,71.8L167.9,71.8L167.9,71.8z M168.8,71.6L168.8,71.6L168.8,71.6L168.8,71.6l-0.1,0.1l0,0l0,0l0,0l0,0L168.8,71.6L168.8,71.6
		L168.8,71.6z M171.4,71.8L171.4,71.8L171.4,71.8L171.4,71.8L171.4,71.8L171.4,71.8L171.4,71.8z M169.3,71.9l-0.1-0.1L169.3,71.9
		L169.3,71.9L169.3,71.9l0,0.1l0,0L169.3,71.9L169.3,71.9z M167.7,71.9L167.7,71.9L167.7,71.9L167.7,71.9L167.7,71.9L167.7,71.9z
		 M167.8,72L167.8,72L167.8,72L167.8,72L167.8,72L167.8,72z M171.9,72.2L171.9,72.2l-0.1-0.1l-0.1,0l0,0L171.9,72.2L171.9,72.2
		L171.9,72.2L171.9,72.2l0,0.1l0,0L171.9,72.2L171.9,72.2L171.9,72.2z M171.7,72.3L171.7,72.3L171.7,72.3L171.7,72.3l-0.1-0.1l0,0.1
		L171.7,72.3L171.7,72.3L171.7,72.3z M166.6,72.5L166.6,72.5L166.6,72.5L166.6,72.5L166.6,72.5L166.6,72.5L166.6,72.5L166.6,72.5
		L166.6,72.5L166.6,72.5z M165.8,72.4L165.8,72.4L165.8,72.4L165.8,72.4l-0.1,0.1l0.1,0l0.1,0L165.8,72.4L165.8,72.4L165.8,72.4z
		 M171.7,72.5L171.7,72.5L171.7,72.5l0.1,0.1l0,0l0,0L171.7,72.5L171.7,72.5L171.7,72.5z M167.1,72.5L167.1,72.5L167.1,72.5
		L167.1,72.5L167.1,72.5l-0.1,0l0,0L167.1,72.5l0,0.1l0,0l0,0l0,0L167.1,72.5L167.1,72.5z M171.8,72.5L171.8,72.5L171.8,72.5
		L171.8,72.5L171.8,72.5z M170.5,72.6L170.5,72.6L170.5,72.6L170.5,72.6l0,0.1l0,0l0,0l0,0l0,0L170.5,72.6L170.5,72.6z M166.2,72.7
		L166.2,72.7L166.2,72.7l0-0.1l0,0l0,0l0,0l0,0l0,0l0,0.1L166.2,72.7L166.2,72.7z M171.1,72.7L171.1,72.7L171.1,72.7L171.1,72.7
		L171.1,72.7z M169.3,72.7L169.3,72.7L169.3,72.7L169.3,72.7L169.3,72.7z M171.3,72.7L171.3,72.7L171.3,72.7L171.3,72.7L171.3,72.7z
		 M166.9,72.8L166.9,72.8L166.9,72.8L166.9,72.8L166.9,72.8L166.9,72.8L166.9,72.8L166.9,72.8l0,0.1l0,0l0,0L166.9,72.8L166.9,72.8z
		 M170.4,72.9L170.4,72.9L170.4,72.9l-0.1-0.2l0,0l0,0l0,0.1L170.4,72.9L170.4,72.9L170.4,72.9L170.4,72.9L170.4,72.9L170.4,72.9
		L170.4,72.9z M166.2,73L166.2,73L166.2,73L166.2,73L166.2,73z M171.3,73.2L171.3,73.2L171.3,73.2L171.3,73.2L171.3,73.2L171.3,73.2
		L171.3,73.2L171.3,73.2L171.3,73.2z M172,73.1L172,73.1L172,73.1L172,73.1L172,73.1L172,73.1z M170.4,73.2L170.4,73.2L170.4,73.2
		L170.4,73.2L170.4,73.2z M169.3,74L169.3,74L169.3,74L169.3,74L169.3,74L169.3,74L169.3,74L169.3,74L169.3,74L169.3,74z
		 M164.5,71.3L164.5,71.3L164.5,71.3L164.5,71.3L164.5,71.3l-0.1-0.1L164.5,71.3L164.5,71.3L164.5,71.3L164.5,71.3L164.5,71.3z
		 M164.8,71.6L164.8,71.6L164.8,71.6L164.8,71.6L164.8,71.6z M165.2,72L165.2,72L165.2,72L165.2,72L165.2,72z M165.1,72L165.1,72
		L165.1,72L165.1,72L165.1,72L165.1,72L165.1,72L165.1,72z M164.7,72.5L164.7,72.5L164.7,72.5L164.7,72.5l0.1,0.1L164.7,72.5
		L164.7,72.5L164.7,72.5L164.7,72.5L164.7,72.5z M164.6,72.7L164.6,72.7L164.6,72.7L164.6,72.7L164.6,72.7L164.6,72.7z M164.9,72.9
		L164.9,72.9l0,0.1l0,0L164.9,72.9z M164.4,73.3L164.4,73.3L164.4,73.3l0-0.1l0,0L164.4,73.3L164.4,73.3L164.4,73.3L164.4,73.3z
		 M164.6,73.9L164.6,73.9L164.6,73.9L164.6,73.9L164.6,73.9L164.6,73.9L164.6,73.9z M162.9,74.3L162.9,74.3L162.9,74.3L162.9,74.3
		L162.9,74.3L162.9,74.3l-0.1-0.1l0,0l0,0l0,0l0,0l0,0l0,0l0,0L162.9,74.3L162.9,74.3L162.9,74.3L162.9,74.3L162.9,74.3L162.9,74.3z
		 M163.1,74.4L163.1,74.4L163.1,74.4l0.1,0.1L163.1,74.4L163.1,74.4z M165.5,74.5L165.5,74.5l0.1,0.1L165.5,74.5L165.5,74.5
		L165.5,74.5z M165.4,74.7L165.4,74.7L165.4,74.7L165.4,74.7L165.4,74.7L165.4,74.7l0.1,0L165.4,74.7L165.4,74.7z M162.1,75.5
		L162.1,75.5L162.1,75.5L162.1,75.5l0-0.1l0,0l0,0L162.1,75.5L162.1,75.5z M162.4,75.8L162.4,75.8L162.4,75.8l-0.1,0l0,0l0,0l0,0
		H162.4L162.4,75.8L162.4,75.8L162.4,75.8L162.4,75.8L162.4,75.8L162.4,75.8L162.4,75.8z M164.4,76.1L164.4,76.1L164.4,76.1
		L164.4,76.1L164.4,76.1L164.4,76.1L164.4,76.1L164.4,76.1z M162.6,76.6L162.6,76.6L162.6,76.6L162.6,76.6L162.6,76.6L162.6,76.6
		L162.6,76.6z M162.3,77.3L162.3,77.3l0,0.1l0.1,0.1l0,0L162.3,77.3L162.3,77.3z M162.5,77.4L162.5,77.4L162.5,77.4l0.1,0.1l0-0.1
		L162.5,77.4L162.5,77.4z M161.4,77.8L161.4,77.8L161.4,77.8l-0.1,0.1l0,0l0,0.1l0.1,0l0,0l0,0l0-0.1L161.4,77.8z M161.7,77.9
		L161.7,77.9L161.7,77.9L161.7,77.9l-0.1,0.1l0,0l0.1,0L161.7,77.9L161.7,77.9L161.7,77.9z M161,78.4L161,78.4L161,78.4L161,78.4
		L161,78.4L161,78.4l0.2,0l0-0.1l-0.1-0.1L161,78.4L161,78.4L161,78.4L161,78.4z M160.7,83.2L160.7,83.2L160.7,83.2L160.7,83.2
		L160.7,83.2L160.7,83.2L160.7,83.2z M159.1,87.1L159.1,87.1L159.1,87.1L159.1,87.1L159.1,87.1z M151.9,127.2L151.9,127.2
		L151.9,127.2L151.9,127.2z M150.9,127.4L150.9,127.4L150.9,127.4L150.9,127.4L150.9,127.4z M150.9,127.5L150.9,127.5L150.9,127.5
		L150.9,127.5L150.9,127.5L150.9,127.5l0,0.1L150.9,127.5L150.9,127.5L150.9,127.5L150.9,127.5z M150.4,127.7L150.4,127.7
		L150.4,127.7L150.4,127.7L150.4,127.7L150.4,127.7L150.4,127.7L150.4,127.7L150.4,127.7L150.4,127.7L150.4,127.7L150.4,127.7
		L150.4,127.7z M151.3,128L151.3,128L151.3,128L151.3,128L151.3,128z M150.9,128.9L150.9,128.9L150.9,128.9L150.9,128.9L150.9,128.9
		L150.9,128.9L150.9,128.9L150.9,128.9z M151.2,129.4L151.2,129.4L151.2,129.4l0-0.1L151.2,129.4L151.2,129.4L151.2,129.4
		L151.2,129.4L151.2,129.4L151.2,129.4z M152.3,129.3L152.3,129.3L152.3,129.3L152.3,129.3L152.3,129.3L152.3,129.3z M148.5,131.1
		L148.5,131.1L148.5,131.1L148.5,131.1l0.1,0l0-0.1L148.5,131.1L148.5,131.1z M147.8,131.2L147.8,131.2L147.8,131.2L147.8,131.2
		L147.8,131.2L147.8,131.2z M148.5,131.9L148.5,131.9l0,0.1L148.5,131.9L148.5,131.9L148.5,131.9L148.5,131.9z M149.2,132.1
		L149.2,132.1L149.2,132.1L149.2,132.1L149.2,132.1l0-0.1L149.2,132.1L149.2,132.1L149.2,132.1L149.2,132.1L149.2,132.1L149.2,132.1
		L149.2,132.1L149.2,132.1L149.2,132.1z M148.6,132.3L148.6,132.3L148.6,132.3L148.6,132.3L148.6,132.3l0.1-0.1l0-0.1l-0.1,0l0,0
		l0,0L148.6,132.3L148.6,132.3L148.6,132.3L148.6,132.3z M146.7,132.6L146.7,132.6L146.7,132.6L146.7,132.6l0.1,0L146.7,132.6l0-0.1
		l0,0l0,0l0,0l-0.1,0L146.7,132.6L146.7,132.6L146.7,132.6z M144.9,134.2L144.9,134.2L144.9,134.2L144.9,134.2L144.9,134.2
		L144.9,134.2l0,0.1l0,0l0,0L144.9,134.2L144.9,134.2L144.9,134.2z M145.4,134.8L145.4,134.8l0,0.1l0,0.1l0,0l0,0l0,0L145.4,134.8
		L145.4,134.8L145.4,134.8z M164.9,71.3L164.9,71.3L164.9,71.3L164.9,71.3l0-0.1l0-0.1l0,0L164.9,71.3L164.9,71.3L164.9,71.3
		L164.9,71.3L164.9,71.3z M165.4,71.5L165.4,71.5L165.4,71.5L165.4,71.5l0-0.1l0,0l0,0l0,0l0,0L165.4,71.5L165.4,71.5L165.4,71.5
		L165.4,71.5L165.4,71.5z M168.1,71.7L168.1,71.7L168.1,71.7L168.1,71.7L168.1,71.7l0.1-0.1l0,0l-0.1,0L168.1,71.7L168.1,71.7
		L168.1,71.7z M168.2,72L168.2,72l-0.1-0.2l0,0l0,0l-0.1,0l-0.1,0l0,0.1l0,0l0,0l0,0l0,0l0,0l0,0l0,0l0,0l0,0l0,0l0,0l0,0l0,0l0,0
		l0,0l0,0l0,0l0,0l0,0l0,0l0-0.1l0,0l0-0.1l0,0L168.2,72L168.2,72L168.2,72L168.2,72L168.2,72l0,0.1l0,0L168.2,72L168.2,72L168.2,72
		z M169.2,72L169.2,72L169.2,72l-0.1-0.1l0,0l0,0l0,0v0l0,0l0,0.1l0,0L169.2,72L169.2,72l-0.1,0.1l0,0l0,0l0,0l0,0L169.2,72
		L169.2,72L169.2,72z M164.5,72.2L164.5,72.2L164.5,72.2L164.5,72.2l0.1-0.1l0,0l0,0l0,0l0,0l0,0L164.5,72.2L164.5,72.2L164.5,72.2z
		 M171.2,72.3L171.2,72.3L171.2,72.3l-0.2,0l0,0l0,0l0,0l0,0l0,0l0,0l0,0l0.1,0L171.2,72.3L171.2,72.3L171.2,72.3L171.2,72.3z
		 M165.3,72.7L165.3,72.7L165.3,72.7L165.3,72.7l0.2,0l0,0l0,0l0-0.1l0-0.1l0-0.1l0,0l0,0l0,0l0,0l0,0l0,0l0,0.1L165.3,72.7
		L165.3,72.7L165.3,72.7z M167.4,72.5L167.4,72.5L167.4,72.5L167.4,72.5L167.4,72.5L167.4,72.5l-0.1,0l0,0l0,0l0,0l0,0l0.1,0l0,0
		l0,0L167.4,72.5L167.4,72.5L167.4,72.5z M165.4,72.8L165.4,72.8L165.4,72.8l0,0.1l0,0l0,0l0.1,0l0-0.1L165.4,72.8L165.4,72.8z
		 M164.6,73.1L164.6,73.1L164.6,73.1L164.6,73.1L164.6,73.1L164.6,73.1L164.6,73.1L164.6,73.1l0-0.1l0,0L164.6,73.1L164.6,73.1
		L164.6,73.1z M170.2,73.4l0-0.1l0-0.1h0l0,0.1L170.2,73.4L170.2,73.4L170.2,73.4L170.2,73.4L170.2,73.4l-0.1,0.1l0,0l0,0l0,0l0,0
		l0,0h0l0,0l0,0l0,0l0,0l0,0l0,0l0,0v-0.1l0-0.1L170.2,73.4z M166.1,73.8L166.1,73.8L166.1,73.8l0.1,0L166.1,73.8l0.1-0.2l0,0l0,0
		l0,0l0,0L166.1,73.8L166.1,73.8z M165.7,73.8L165.7,73.8l-0.1-0.1l0,0.1l0,0.1l0,0.1l0,0l0.1,0L165.7,73.8L165.7,73.8L165.7,73.8z
		 M166.1,73.8L166.1,73.8L166.1,73.8l-0.2-0.1l0,0l0,0.1L166.1,73.8L166.1,73.8L166.1,73.8L166.1,73.8l0,0.1l0,0l0,0l0,0l0,0l0,0
		l0-0.1l0,0l0,0l0,0l0-0.1L166.1,73.8L166.1,73.8z M164.4,74.2L164.4,74.2l0-0.2l0,0l0,0l-0.1-0.1l0,0l0.1,0.1l0.1,0.1l0,0.1
		L164.4,74.2L164.4,74.2L164.4,74.2z M165.8,74L165.8,74l0.1,0.1l0-0.1L165.8,74L165.8,74z M163.3,74.3L163.3,74.3L163.3,74.3
		L163.3,74.3l0-0.1l-0.1,0l-0.1,0l0,0v0.1l0,0l0,0l0,0.1L163.3,74.3L163.3,74.3L163.3,74.3L163.3,74.3L163.3,74.3L163.3,74.3z
		 M165.2,74.3L165.2,74.3L165.2,74.3l-0.1-0.1l0,0l0,0l0,0l0,0h0l0,0l0,0.1l0,0.1l0,0l0,0l0,0l0,0l0,0l0,0l0,0l0.1,0l0.1,0l0,0
		L165.2,74.3L165.2,74.3z M165.8,74.3L165.8,74.3l-0.1-0.1l-0.1,0l0,0l0,0.1L165.8,74.3L165.8,74.3L165.8,74.3z M165.9,74.4
		L165.9,74.4L165.9,74.4L165.9,74.4l-0.1,0.1l0,0l0,0l0,0l0,0l0,0l0,0l0,0l0,0l0,0l0,0L165.9,74.4L165.9,74.4L165.9,74.4L165.9,74.4
		z M163.3,74.9L163.3,74.9L163.3,74.9l0,0.1l0,0l0,0.1l0,0l0-0.1l0,0l0,0L163.3,74.9L163.3,74.9L163.3,74.9z M163.1,75.2L163.1,75.2
		L163.1,75.2l-0.1,0.1l0,0.1l0,0l0,0l0,0L163.1,75.2L163.1,75.2L163.1,75.2L163.1,75.2z M165,75.2L165,75.2l-0.1,0l0,0L165,75.2
		l-0.1,0.1l0,0l0,0l0,0l0,0l0,0l0,0L165,75.2L165,75.2L165,75.2z M161.8,75.7L161.8,75.7L161.8,75.7l0.1,0.1l0.1,0l0.1,0l0-0.1l0,0
		l0-0.1l0,0l0-0.1l-0.1-0.1l-0.1-0.1l0,0l0,0l-0.1,0l0,0l0,0l0,0l0,0l0,0l-0.1,0l0,0l0,0l0,0l0,0l0,0l0,0l0,0l0,0l0.1,0l0,0l0-0.1
		l0,0l0,0l0,0l0,0l0,0L161.8,75.7L161.8,75.7L161.8,75.7z M162.9,75.4L162.9,75.4L162.9,75.4l-0.1-0.1l-0.1,0l0,0.1l0,0.1l0.1,0.1
		l0.1,0l0,0L162.9,75.4L162.9,75.4z M164.6,75.5L164.6,75.5L164.6,75.5l-0.1-0.1l0-0.1l0,0l0,0.1l0.1,0.1L164.6,75.5L164.6,75.5
		l0,0.1l0,0.1l0,0l0,0l0,0L164.6,75.5L164.6,75.5L164.6,75.5z M164.7,75.4L164.7,75.4L164.7,75.4l0.1,0.1L164.7,75.4L164.7,75.4
		L164.7,75.4L164.7,75.4z M164.8,75.7L164.8,75.7L164.8,75.7L164.8,75.7l-0.1,0.1l0,0L164.8,75.7L164.8,75.7L164.8,75.7L164.8,75.7z
		 M161.9,76L161.9,76L161.9,76l-0.1,0l0,0.1l0.1,0.1l0.1,0.1l0.1,0l0-0.1L161.9,76L161.9,76z M162.2,76.7L162.2,76.7L162.2,76.7
		l-0.1-0.1l0,0l0,0l0,0l-0.1,0l0,0l-0.1,0l0,0l0,0.1l0.1,0.1l0.1,0l0,0l0,0l0,0L162.2,76.7l0,0.1l0,0.1l0,0l0-0.1L162.2,76.7
		L162.2,76.7z M162.2,77.2L162.2,77.2L162.2,77.2l0-0.1l0,0l0,0l0,0l0,0l0,0l0,0l0,0l0,0l0,0l0,0l0,0l0,0l0,0.1l0,0.1l0.1,0.1
		l0.1,0.1L162.2,77.2L162.2,77.2l0,0.1l0,0l0,0L162.2,77.2L162.2,77.2z M159.8,80.3L159.8,80.3l-0.1-0.1l0,0l0,0.1l0,0.1l0,0.1
		l0,0.1l0,0l0,0l0,0l0-0.1L159.8,80.3L159.8,80.3z M159.2,82.4l0.2,0.1l0,0l0,0l0,0l0-0.1l0-0.1l0,0l0,0l0,0.1L159.2,82.4
		L159.2,82.4l0-0.1l0,0l0-0.1l-0.1-0.1l-0.1,0l0,0l0,0.1l0,0L159.2,82.4L159.2,82.4L159.2,82.4z M157.7,92.6L157.7,92.6l0,0.1l0,0
		L157.7,92.6L157.7,92.6l-0.1,0.1l0,0.1l0,0l0.1,0l0,0l0,0l0,0L157.7,92.6L157.7,92.6L157.7,92.6L157.7,92.6L157.7,92.6z
		 M148.9,97.2L148.9,97.2l0-0.1l0-0.1l0,0l0,0l0,0.1L148.9,97.2L148.9,97.2L148.9,97.2z M149.5,97.1l-0.1,0l0,0l0,0l0,0L149.5,97.1
		L149.5,97.1L149.5,97.1z M149.3,97.2L149.3,97.2L149.3,97.2L149.3,97.2L149.3,97.2z M149.1,97.6L149.1,97.6L149.1,97.6l0,0.1l0,0.1
		l0,0v-0.1L149.1,97.6L149.1,97.6L149.1,97.6z M148.7,97.9L148.7,97.9L148.7,97.9l0-0.1l0-0.1l0,0l0,0.1L148.7,97.9L148.7,97.9
		L148.7,97.9z M148.1,98.1L148.1,98.1L148.1,98.1L148.1,98.1l0.1,0l0.1-0.1l0,0l0-0.1l0-0.1l0,0l0,0l-0.1,0l0,0l0-0.1l-0.1,0.1
		l0,0.1l0,0.1L148.1,98.1L148.1,98.1L148.1,98.1L148.1,98.1z M148.8,98.5L148.8,98.5l0-0.2l0-0.1l0,0l-0.1,0.1l0,0l0,0.2l0,0
		L148.8,98.5L148.8,98.5z M145.6,99.3L145.6,99.3L145.6,99.3l0,0.1l0,0L145.6,99.3L145.6,99.3L145.6,99.3L145.6,99.3z M147.3,99.9
		L147.3,99.9l0-0.1L147.3,99.9L147.3,99.9z M146.1,100.6L146.1,100.6l0-0.1l-0.1,0l-0.2,0l0,0l0,0.1l0.1,0.2l0,0L146.1,100.6
		L146.1,100.6L146.1,100.6z M147,100.4l-0.1,0.1l0,0l0,0.1l0,0L147,100.4L147,100.4L147,100.4L147,100.4L147,100.4z M146.4,101.4
		l-0.2,0l0,0l0,0l0,0l0.3,0.2l0-0.1l0-0.1L146.4,101.4L146.4,101.4L146.4,101.4L146.4,101.4z M145.6,102.9L145.6,102.9L145.6,102.9
		L145.6,102.9z M144.8,105.4L144.8,105.4l-0.1,0.2l0,0.1l0,0.1l0.1,0l0,0l0,0l0,0l0.1-0.1l0,0l0,0l0,0L144.8,105.4L144.8,105.4z
		 M144.1,107.8L144.1,107.8l-0.1,0l-0.1,0l0,0l0,0.1l0,0L144.1,107.8L144.1,107.8L144.1,107.8z M143.9,107.9L143.9,107.9
		L143.9,107.9L143.9,107.9L143.9,107.9L143.9,107.9L143.9,107.9L143.9,107.9z M144.1,110L144.1,110L144.1,110L144.1,110L144.1,110
		L144.1,110l0-0.1l-0.1,0L144.1,110L144.1,110L144.1,110z M143.1,111.3L143.1,111.3l-0.1-0.1l0,0l0,0l0,0l0,0l0,0.1l0,0h0l0.1,0
		L143.1,111.3L143.1,111.3L143.1,111.3L143.1,111.3z M143.6,111.4l-0.2,0l-0.1,0l0,0.1l0,0.1l0,0.1l0,0l0,0l0,0l0,0l0,0l0,0l0,0l0,0
		l0.2,0l0,0l0-0.1L143.6,111.4L143.6,111.4z M143.2,114.9L143.2,114.9L143.2,114.9L143.2,114.9l0.1-0.1l0,0l0,0l0,0l0,0l0,0l0,0
		L143.2,114.9L143.2,114.9L143.2,114.9z M142.9,115.9L142.9,115.9L142.9,115.9l0-0.1l0,0l0,0l0,0l0,0l0,0.1l0,0.1l0,0l0,0
		L142.9,115.9L142.9,115.9L142.9,115.9L142.9,115.9L142.9,115.9L142.9,115.9z M143.1,118L143.1,118L143.1,118L143.1,118l0.1,0.1h0
		l0.1,0l0,0l0,0l-0.1,0l0,0l0,0L143.1,118L143.1,118L143.1,118L143.1,118z M147.8,120.4L147.8,120.4L147.8,120.4l0-0.1l0,0l0,0l0,0
		l-0.1,0l-0.1,0l0,0l0,0L147.8,120.4L147.8,120.4z M148.7,122.5L148.7,122.5l-0.1-0.1l0,0l0,0l0,0.1l0,0l0.1,0L148.7,122.5
		L148.7,122.5L148.7,122.5L148.7,122.5z M148.4,123L148.4,123l-0.2-0.1l-0.2,0l0.1,0.2l0.2,0.1l0.1,0l0,0L148.4,123L148.4,123
		L148.4,123L148.4,123z M148.5,122.9L148.5,122.9L148.5,122.9L148.5,122.9L148.5,122.9L148.5,122.9L148.5,122.9l0,0.1l0,0l0,0l0,0
		l0,0l0,0l0,0l0.1,0l0-0.1l0,0L148.5,122.9L148.5,122.9z M150.8,125.9L150.8,125.9L150.8,125.9l-0.1,0.1l-0.1,0.1l0,0l0,0l0,0l0,0
		l0,0l0.1-0.1l0,0L150.8,125.9L150.8,125.9L150.8,125.9z M150.6,126.5L150.6,126.5L150.6,126.5L150.6,126.5L150.6,126.5l0.1,0l0,0
		l0,0L150.6,126.5L150.6,126.5z M150.9,126.6L150.9,126.6L150.9,126.6L150.9,126.6L150.9,126.6l0.1,0.1L150.9,126.6l0.1,0l0,0l0,0
		l0,0L150.9,126.6L150.9,126.6L150.9,126.6L150.9,126.6z M150.9,126.8l-0.1,0l0,0l0,0v0l0,0.1l0.1,0L150.9,126.8L150.9,126.8
		L150.9,126.8L150.9,126.8z M149.8,127.4L149.8,127.4l-0.2,0l0,0.1l0,0l0,0l0.1,0l0.1,0h0l0,0L149.8,127.4L149.8,127.4L149.8,127.4
		L149.8,127.4L149.8,127.4L149.8,127.4L149.8,127.4L149.8,127.4z M151.1,127.5L151.1,127.5L151.1,127.5L151.1,127.5L151.1,127.5
		L151.1,127.5L151.1,127.5L151.1,127.5L151.1,127.5L151.1,127.5L151.1,127.5L151.1,127.5z M150.8,128.2L150.8,128.2L150.8,128.2
		l0.1,0l0,0l0,0l0,0l0,0l0,0l0,0L150.8,128.2L150.8,128.2z M150.3,128.3L150.3,128.3l0.1,0.1l0,0l0.1-0.1l0,0l0,0l0,0l0,0
		L150.3,128.3L150.3,128.3z M149.1,129.1L149.1,129.1L149.1,129.1l-0.1,0l0,0L149.1,129.1l0.4,0l0,0l0,0l0,0l-0.1,0l0,0l0,0l0,0l0,0
		l0,0L149.1,129.1L149.1,129.1z M149.1,129.2L149.1,129.2L149.1,129.2l-0.1,0l0,0l0,0l0,0l-0.1,0l-0.1,0.1l0,0.1l0,0l0.1,0l0,0l0,0
		l0,0l0.1,0l0,0L149.1,129.2l-0.1,0.1l0,0L149.1,129.2L149.1,129.2z M147.4,129.6L147.4,129.6l0.2-0.1l0-0.1l-0.1-0.1l-0.1,0l0,0
		l0,0l0,0L147.4,129.6L147.4,129.6L147.4,129.6L147.4,129.6z M150.3,129.6L150.3,129.6L150.3,129.6L150.3,129.6L150.3,129.6z
		 M147.7,129.7L147.7,129.7L147.7,129.7L147.7,129.7L147.7,129.7l-0.1-0.1l0,0l0,0.2L147.7,129.7l0.1,0.1l0,0L147.7,129.7
		L147.7,129.7L147.7,129.7z M150.1,129.7L150.1,129.7L150.1,129.7L150.1,129.7L150.1,129.7l0-0.1l0,0l0,0l0,0l0,0l0,0.1L150.1,129.7
		L150.1,129.7L150.1,129.7z M149.9,130.1L149.9,130.1L149.9,130.1L149.9,130.1L149.9,130.1L149.9,130.1L149.9,130.1L149.9,130.1
		l-0.1-0.1l0,0.1l0,0.1l0,0.1l0,0l0,0l0,0l0.1,0L149.9,130.1L149.9,130.1L149.9,130.1L149.9,130.1L149.9,130.1z M149.8,130.5
		L149.8,130.5L149.8,130.5L149.8,130.5L149.8,130.5L149.8,130.5L149.8,130.5L149.8,130.5z M149.9,130.7L149.9,130.7L149.9,130.7
		L149.9,130.7l0-0.1l0,0l0,0l0,0l-0.1,0l0,0L149.9,130.7L149.9,130.7z M148.7,131.6L148.7,131.6L148.7,131.6l0.1-0.1l0,0l0,0l0,0
		l0,0L148.7,131.6z M148.3,132.5L148.3,132.5L148.3,132.5L148.3,132.5L148.3,132.5L148.3,132.5L148.3,132.5l-0.1,0l0,0l0,0.2l0.1,0
		l0,0l0-0.1l0-0.1L148.3,132.5L148.3,132.5z M146.1,133.2l-0.1,0.2l0,0.1l0,0l0,0l0,0l0,0l0,0l0-0.1l0,0l0,0l0,0L146.1,133.2
		L146.1,133.2L146.1,133.2L146.1,133.2L146.1,133.2L146.1,133.2L146.1,133.2L146.1,133.2z M146.9,133.5L146.9,133.5L146.9,133.5
		L146.9,133.5L146.9,133.5l-0.2,0l0,0l0,0v0l0,0.1l0,0l0,0l0,0.1l0,0l0,0l0,0l0,0L146.9,133.5L146.9,133.5z M117,133.9L117,133.9
		L117,133.9L117,133.9L117,133.9l0-0.1l0,0l-0.1,0l0,0l0,0l0,0l0-0.1l0,0l0,0l0,0l0,0l0,0l0,0l0,0l0,0l0,0l0,0.1l0,0l0,0l0,0l0,0
		l0,0l0,0.1l0,0l0,0l0,0l0,0l0,0l0,0l0,0l0,0l0,0l0.1,0l0,0l0,0l0,0l0,0l0,0l0,0L117,133.9L117,133.9L117,133.9L117,133.9z
		 M145.5,134.4l0-0.1l0-0.1l0,0l-0.1,0l0,0l0-0.1l0.1-0.1l0-0.1l0,0l0,0l0,0l0,0.1l0,0l0,0l0,0.1l0,0.1l0,0.1l0,0l0,0l0,0l0,0l0,0.1
		l0,0.1l0,0.1l-0.1,0l0,0l0,0l0.2,0l0,0l0,0l0-0.1l0,0l0,0l0,0L145.5,134.4L145.5,134.4L145.5,134.4z M146.5,134.2L146.5,134.2
		L146.5,134.2L146.5,134.2l0.1-0.1l0,0l0-0.1l0-0.1l0,0l0,0l-0.1,0.1L146.5,134.2L146.5,134.2L146.5,134.2L146.5,134.2L146.5,134.2
		L146.5,134.2z M144.7,134.4l-0.3-0.2l0,0l0,0l0,0.1l0.2,0.1L144.7,134.4l0.1,0.2l0,0l0-0.1L144.7,134.4z M143.9,134.9L143.9,134.9
		L143.9,134.9L143.9,134.9l0,0.1L143.9,134.9L143.9,134.9l-0.1,0l0,0l0,0l0,0.1l0.1,0l0,0l0,0l0,0l0,0l0,0l0,0l0,0.1l0,0l0,0l0,0
		l0.1-0.2l0,0l0.1,0L143.9,134.9L143.9,134.9z M143.8,135.2L143.8,135.2L143.8,135.2l0,0.2l0,0l0.1-0.1L143.8,135.2L143.8,135.2z
		 M141.6,136.9L141.6,136.9L141.6,136.9l-0.1-0.1l-0.1,0h0l0,0l0,0l0.1,0.1L141.6,136.9L141.6,136.9L141.6,136.9L141.6,136.9
		L141.6,136.9z M141.7,137.1L141.7,137.1L141.7,137.1L141.7,137.1L141.7,137.1l0.1-0.1l0,0l-0.1,0l0,0L141.7,137.1L141.7,137.1
		L141.7,137.1z M141.1,140.1L141.1,140.1L141.1,140.1L141.1,140.1l-0.1,0l0,0.1l0.1,0.1l0.1,0l0.1,0L141.1,140.1L141.1,140.1
		L141.1,140.1l0,0.1L141.1,140.1L141.1,140.1L141.1,140.1L141.1,140.1L141.1,140.1L141.1,140.1z M119.3,142L119.3,142L119.3,142
		L119.3,142L119.3,142l0.1-0.1l0,0l0,0l0,0l-0.1,0l-0.1,0l-0.1,0.1l0,0l0,0l0.1,0.1l0.1,0l0,0l0,0l-0.1,0l0,0l0,0l0,0l0,0l0,0v0l0,0
		l0,0l0.1,0l0,0l0,0l0,0l0,0l0,0l0,0l0,0L119.3,142L119.3,142L119.3,142L119.3,142z M140.6,142.2L140.6,142.2L140.6,142.2
		L140.6,142.2L140.6,142.2l0.1,0.1l0,0.1l0,0l0,0l0,0l0,0l0.1,0l0,0l0,0l0,0l0,0l0,0l0,0l0,0l0,0v0l0,0v0l0,0l-0.1,0l-0.1-0.1
		l-0.1,0l0,0L140.6,142.2L140.6,142.2L140.6,142.2z M140.4,142.5L140.4,142.5L140.4,142.5l0.1,0.1l0,0l0.1,0.1l0,0l0,0l0,0l0,0l0,0
		l0,0l0,0l0,0L140.4,142.5L140.4,142.5z M119.5,143.4L119.5,143.4L119.5,143.4L119.5,143.4L119.5,143.4L119.5,143.4l0-0.1l0,0l0,0
		l0-0.1l-0.1-0.1l0,0.1l0,0l0,0l0,0l0,0l0,0v0l-0.1,0l0,0l0,0l0,0l0,0l0,0l0,0l0,0.1l0,0L119.5,143.4L119.5,143.4L119.5,143.4
		L119.5,143.4L119.5,143.4L119.5,143.4z M140.6,143.9L140.6,143.9l0,0.1l0,0l-0.1,0l0,0l0,0l0,0l0,0l0,0.1l0,0l0,0l0,0l0,0l0,0l0,0
		l0,0l0,0l0,0l0,0l0,0l0.1-0.2l0-0.1l0-0.1L140.6,143.9L140.6,143.9z M140,147.4L140,147.4L140,147.4L140,147.4L140,147.4l-0.1,0.1
		l0,0l0,0l0,0l0.1-0.1L140,147.4L140,147.4L140,147.4L140,147.4z M136.7,155.4L136.7,155.4L136.7,155.4L136.7,155.4l-0.1,0l0,0l0,0
		l0,0l0,0l0.1,0.1l0,0l0,0l0,0l0,0L136.7,155.4L136.7,155.4L136.7,155.4L136.7,155.4z M136.1,155.4L136.1,155.4L136.1,155.4
		L136.1,155.4L136.1,155.4L136.1,155.4l-0.2,0.1l0,0l0,0l0,0l0.1,0l0,0l0,0L136.1,155.4L136.1,155.4L136.1,155.4L136.1,155.4z
		 M135.7,155.4L135.7,155.4L135.7,155.4l-0.1,0.1l0,0l0,0l0,0l0.1,0l0,0l0-0.1l0-0.1L135.7,155.4z M135.5,155.4L135.5,155.4l-0.1,0
		l0,0.1l0,0l0,0l0,0l0,0l0.1,0l0,0l0,0l0,0l0-0.1L135.5,155.4L135.5,155.4L135.5,155.4L135.5,155.4z M123.8,157L123.8,157l-0.1,0
		l0,0l0.1,0.2l0,0l0-0.1L123.8,157L123.8,157z M151.1,138.2l0.2,0.1l0.2-0.1l0.2-0.1l-0.1-0.1l-0.2-0.1l-0.1-0.1H151L151.1,138.2z
		 M147.9,130.9l0.2,0.1l0.2,0.2l0.1,0l0.1-0.2l-0.2,0l-0.1-0.1l0-0.2l0.1,0.1l0.1,0l0.2,0l-0.4-0.2l-0.3-0.1l-0.5,0l0.2,0.1l0.1,0.1
		l0,0L147.9,130.9L147.9,130.9z M158.3,91.2l-0.1-0.2l-0.2,0l-0.1,0.3l0.1,0l0,0l0,0l0,0.1l0,0.1L158.3,91.2z M147.7,121.4l0.1,0.2
		l0.2,0.1l0.2,0.3l0.2,0.1l0,0l0-0.1l0,0l0,0l0,0l0,0l-0.1-0.1l0-0.1l0-0.1l-0.1,0.1l-0.1,0l0-0.1l0-0.1l-0.2-0.4l0-0.1l0.1,0
		l0.1,0.1l0.1,0l0-0.1l-0.1-0.1l-0.1-0.1l0-0.1l0,0l0,0v0l0,0l0-0.1l0,0l-0.1,0l0,0l0,0.1l0.1,0.2l0,0.1l0,0.4L147.7,121.4z
		 M166.2,71.9l0-0.2l-0.2-0.2l0,0l0,0.2l0,0.1l0,0.1l0,0.1l0,0.1l0,0.1l0.1,0.1l0.2,0l0-0.1L166.2,71.9z M170.3,72.1L170.3,72.1
		l0-0.1l0,0l0,0l0-0.1l0-0.1l0-0.1l0,0l0,0l0,0.1l0,0l0,0l0,0l0,0.1l0,0l0,0l-0.1,0l0-0.1l0,0l0,0.1l0,0l0,0l0-0.1l0,0.1l0,0.2
		l0.1,0.1l0.2,0.1L170.3,72.1z M166.9,72.4L166.9,72.4l0-0.1l0,0l0,0l0-0.1l0-0.1l-0.1-0.1l-0.1-0.1l0,0l0.1,0l0-0.1l-0.1-0.1
		l-0.1,0l-0.1,0.1l0,0.2l0.1,0.2l0.1,0.2l0.1,0.1l0.1,0L166.9,72.4z M165.2,73.2L165.2,73.2l0.1,0.1l0.1-0.1l0-0.1l-0.1,0
		L165.2,73.2L165.2,73.2z M165,73.5L165,73.5l0,0.1l0.1,0.1l0,0l0,0l0,0l0,0l0,0l0,0l0-0.1l0-0.1l0,0l0.1,0l0-0.1l-0.1,0l-0.2,0.1
		l-0.1,0L165,73.5L165,73.5L165,73.5z M164,74.4L164,74.4l-0.1-0.1l0,0l0,0l0-0.1l0,0l0.1,0l0.1,0l0.1,0.1l0,0.1l0,0l0.1,0l0-0.1
		l-0.1-0.1l0-0.1l0,0l0,0l0,0l-0.3-0.2l-0.1,0l-0.1,0l0,0l0,0.1l0.1,0.2L164,74.4L164,74.4L164,74.4L164,74.4z M165.4,74.1
		L165.4,74.1l0-0.1l-0.1,0l0,0l0,0l-0.1-0.1l0,0.1l0.1,0.1l0.1,0L165.4,74.1L165.4,74.1z M163.8,74.9L163.8,74.9l-0.1-0.1l0-0.1l0,0
		l0-0.1l-0.2-0.1h-0.1l0,0.1v0.1l0,0l0,0.1l0,0.1l0,0l0.2,0l0,0l0,0l0.1,0l0-0.1L163.8,74.9L163.8,74.9z M164.4,74.9L164.4,74.9
		l0.1-0.2l0-0.1l-0.1,0l-0.1,0l-0.1,0.1l-0.1,0.1l0,0l0-0.1l0,0l0,0l0,0.1l0,0.1l0,0L164.4,74.9L164.4,74.9z M158.3,91.2L158.3,91.2
		L158.3,91.2l-0.1,0.1l0,0.1l-0.1,0.5l0,0.1l0.1-0.1l0,0l0,0l0.1-0.1l0.1-0.1l0-0.1l0-0.1l0-0.1l0-0.1l0-0.1L158.3,91.2l0.1,0
		L158.3,91.2L158.3,91.2l0.1-0.1l0,0L158.3,91.2L158.3,91.2z M158.1,92.1l-0.2,0.2l0,0.1l0.1,0l0.1-0.1l0-0.1V92.1L158.1,92.1
		L158.1,92.1z M146.6,101.1L146.6,101.1L146.6,101.1L146.6,101.1l0.1-0.2l0-0.1l0-0.1l0,0l-0.1,0l-0.1,0.1l0,0l0-0.1l-0.1,0l-0.1,0
		l-0.1,0.1l0,0.1l0,0.1l0,0.2l0.1,0.2l0.2,0l0.2-0.1l0-0.1L146.6,101.1L146.6,101.1L146.6,101.1L146.6,101.1z M149.1,123.1
		L149.1,123.1L149.1,123.1l0,0.1l0,0.1l0,0.1l0,0l0.1,0l0.1,0l0.1,0l0.1-0.1l0-0.1l0-0.1l0,0l0,0l0,0l0,0l0,0l0-0.1l0,0l0,0l0,0
		l0-0.1l0,0l-0.1,0l-0.1,0l0,0L149.1,123.1L149.1,123.1L149.1,123.1z M150.2,126.2l0-0.1l0-0.1l0-0.1l0,0l0,0l0,0l0,0.1l-0.2,0.3
		l0,0.1l0,0.1l0.1,0l0,0l0,0l0,0l0,0l0.1,0l0.1,0l0.1,0l0,0l0,0l0,0l0,0l0,0l0,0l0,0l0,0L150.2,126.2z M149.5,128l-0.1,0.1l-0.1,0.1
		l-0.1,0l0,0l0.1,0l0.1,0l0.1-0.1l0,0l0,0l0,0l0,0L149.5,128l0.2,0l0,0l0.2-0.3l0.1-0.1l0-0.1l-0.3,0.2L149.5,128L149.5,128z
		 M150.2,127.8L150.2,127.8L150.2,127.8L150.2,127.8l-0.1-0.2l-0.1,0l-0.1,0l-0.3,0.4l0,0.1l0,0.1l0.1,0l0,0l0,0l0-0.1l0.1-0.3l0,0
		l0.1,0L150.2,127.8L150.2,127.8L150.2,127.8L150.2,127.8z M148.7,129L148.7,129L148.7,129l0.1-0.1l0,0l0.1-0.1l0.2-0.1l0,0
		l-0.2,0.1l0,0l0,0l0,0l0,0l-0.1,0l-0.1,0l-0.1,0l-0.1,0.1l-0.1,0.1l-0.1,0.1l0,0.1l0,0.1l0,0l0,0l0,0l0,0l0,0l0,0l0,0l0,0l0,0l0,0
		l0,0l0,0l0,0l0-0.1l0,0l-0.1,0l0,0l0,0.1l0,0l0,0l0,0.1l0,0.1l0,0.1l0,0.1l0,0.1l0,0l0,0l0,0l0,0l0,0l0-0.3l0,0.1l0,0l0,0l0-0.1
		l0-0.2L148.7,129L148.7,129L148.7,129L148.7,129L148.7,129z M149.9,129.4L149.9,129.4L149.9,129.4l-0.1-0.1l-0.1,0l-0.1,0l-0.1,0.1
		l0,0.1l0.1,0l0.1-0.1L149.9,129.4z M149.6,129.7L149.6,129.7L149.6,129.7L149.6,129.7L149.6,129.7L149.6,129.7L149.6,129.7
		L149.6,129.7z M150,129.9L150,129.9l0-0.1l0,0l-0.1-0.1l-0.1,0l0,0l0,0.1l0,0l0,0l0.1,0.1L150,129.9L150,129.9z M147,130L147,130
		L147,130l-0.5-0.2l-0.1,0l0,0.1l0,0l0,0.1l0,0.1l0.1,0.1l0.1,0.1l0.1,0l0.1,0l0-0.1L147,130l-0.1,0L147,130L147,130z M148.8,130.1
		L148.8,130.1l0.1,0.1l0,0.1l0,0.1l0,0l0,0l0,0l0,0.1l0,0l0,0l0.2-0.1l0.1-0.1l0-0.1l0-0.1l0,0l0,0l0,0L149,130l0,0l0,0l0,0l0,0
		l-0.2,0l0,0L148.8,130.1L148.8,130.1z M149.4,130.7L149.4,130.7L149.4,130.7l0.1-0.1l0,0l0,0l0,0l-0.1,0l-0.1,0l-0.1,0.1l-0.1,0.1
		l0,0.1l0,0l0,0l0,0l0,0l0,0l0,0l0,0l0,0l0,0l0,0L149.4,130.7z M149.2,131.3l-0.1,0l0,0l-0.1,0l-0.1,0.1l0,0.1l0,0.1l0,0
		L149.2,131.3L149.2,131.3L149.2,131.3z M147.5,132.7L147.5,132.7L147.5,132.7l0,0.2l0,0.1l0,0l0,0l0,0h0l0,0l0,0l0,0l0,0l0,0l0,0
		l0-0.1l0,0l0-0.1l0.1-0.1l0.1-0.2l0,0l0,0l0,0l0,0l0-0.1l0-0.1l-0.1,0l-0.1,0l-0.1,0.1l-0.1,0.1l-0.2,0.1l0,0l0,0l0,0.1l0,0l0,0
		l0,0l0,0L147.5,132.7L147.5,132.7L147.5,132.7L147.5,132.7z M144.5,133l0,0.1l0,0.1l0,0.1l0,0l0,0.1l0,0.1l0,0.1l0,0l0,0l0.1,0.2
		l0,0l0-0.1l0-0.1l0,0l0,0l0-0.1l0-0.1l0-0.1l0-0.1l0-0.1l0-0.1l0-0.1l0-0.1l0-0.1l0-0.1l0-0.1l0-0.1l0,0l0,0l0,0l0-0.1l0,0l0,0.1
		l0,0.2l0,0.1l0,0L144.5,133L144.5,133z M146.5,133.1L146.5,133.1l0.1,0.1l0.1,0l0-0.1l0-0.1l0-0.1l0-0.1l0,0l0,0.1l0,0l0,0l0,0l0,0
		l0,0l0-0.1l0,0l0,0l0,0l0,0l0.2-0.1l0,0l-0.2,0l-0.1,0l-0.1,0l-0.1,0l0,0l0,0.1l0,0.1l0,0l0,0l0,0l0,0l0,0.1l0,0l0,0l0,0l0.1,0
		L146.5,133.1L146.5,133.1L146.5,133.1z M147.3,133.2L147.3,133.2L147.3,133.2l-0.1,0l-0.1,0l-0.1,0.1l-0.1,0.1l-0.1,0.1l0,0.1l0,0
		l0,0l0,0l0.1-0.1l0.1,0l0.1,0l0.1,0l0,0l-0.1,0l0-0.1l0,0l0,0l0,0l0,0l0.1-0.1l0.1-0.1l0-0.1l0,0L147.3,133.2L147.3,133.2z
		 M141,138.2L141,138.2l0,0.1l0.1,0.1l0.1,0.1l0.1,0l0.1,0l0.1,0l0,0l0,0l0,0l0,0l0,0l0,0l-0.1,0l-0.1,0l-0.1-0.1l-0.1-0.1
		L141,138.2l0.1-0.1h0l0,0l-0.1-0.1l0,0l0,0l0-0.1l0,0l0,0l0,0l-0.1,0l0,0l0,0l-0.1,0l0,0l-0.1,0l0,0.1l0,0.1L141,138.2L141,138.2
		L141,138.2z M141.2,138.5L141.2,138.5l0,0.2l0,0.1l0,0l0.1,0l0-0.1l0-0.1l0-0.1L141.2,138.5L141.2,138.5z M136.4,155.5L136.4,155.5
		L136.4,155.5l-0.1,0l0,0l-0.1,0l-0.1,0.1l0,0.1l0.1,0.1l0,0l0,0l0,0l0,0l0-0.1l0-0.1L136.4,155.5L136.4,155.5L136.4,155.5
		L136.4,155.5L136.4,155.5L136.4,155.5z M119.1,141.4L119.1,141.4L119.1,141.4l0.1,0.1l0,0l0-0.1l0,0l0.1,0l0,0l0-0.1l0-0.2l0-0.1
		l0.1-0.1l0.1,0l0,0.1l0,0.1l0,0l0.1,0l0,0l0-0.2l0,0l0,0l0-0.1l-0.1,0l-0.1,0l-0.1,0.1l-0.1,0h-0.4l-0.2,0l-0.1,0l0,0.1l0,0.1
		l0.1,0h0.1l0.1,0l-0.1,0l-0.1,0l0,0l0,0.1l0,0.1l0,0.1l0,0.1l0,0.1l0,0L119.1,141.4L119.1,141.4z M118.9,140.3L118.9,140.3
		L118.9,140.3l0.1-0.2l0.1-0.1l0.1,0l0.1,0l0.1,0.1l0.1-0.1l0.2,0.1l0.2-0.2l0.1,0l0.1,0l0-0.1l0-0.4l0-0.2l0-0.2L120,139l-0.1-0.1
		l-0.1-0.1l0-0.2l-0.1,0l-0.1,0l-0.1,0l0,0l0,0.1l0,0l0,0.1l0,0.1l0,0.1l-0.1,0l-0.1,0l-0.1,0l-0.1,0l-0.1,0.1l-0.1,0.1l-0.4,0.4
		l-0.1,0.1l0,0.1l0,0.1l0.1,0.1l0,0.1l0,0.2h0v-0.3L118.9,140.3L118.9,140.3L118.9,140.3z M151.5,141.2l-0.1,0l-0.1,0l-0.1,0l0-0.1
		l-0.1,0.1l-0.1,0l-0.1,0l0,0l-0.1,0.1l-0.1,0l-0.1,0l0,0.1l0,0.1l0,0.1l0,0.1l-0.1,0.1l0,0.1l0,0.1l0.1,0.3l0.1,0.1l0.1,0.1l0.1,0
		l0.1,0l0,0l0.1-0.2l0-0.1l0-0.1l0,0l-0.1,0l0.1-0.1l0.2-0.1l0.1-0.1l0.1-0.1l0.2,0.1l0.1-0.1l0,0l0,0l0,0l0,0L151.5,141.2
		L151.5,141.2z M150.5,142.1L150.5,142.1l-0.1-0.1l0-0.1l0-0.1l0-0.1l0,0l-0.1,0l-0.1,0l-0.1,0l-0.1,0l0,0.1l-0.1,0l-0.1-0.1
		l0.1-0.1v0l-0.3,0l-0.1,0l0,0.1l0,0.1l0,0l0,0.1l-0.1,0.1l-0.1,0.1l0,0.2l-0.1-0.1l0-0.1l0-0.1l0,0l0,0l0,0l0,0l0,0l0,0l0,0l0,0
		l-0.1-0.1l-0.1-0.1l-0.1,0l-0.1,0l-0.1,0.1l-0.1,0.1l-0.1,0.1l-0.1,0.1l0,0.1l0,0.1l0,0.1l-0.1,0l-0.1,0l-0.1,0l-0.1,0l-0.2,0.1
		l-0.2,0.2l-0.6,1l-0.7,0.7l-0.1,0.2l-0.1,0.3l0,0.2l0,0.2l0,0.2l0,0.1l0,0l0,0.1l0,0l0,0.1l0,0l0,0l0,0l0,0l-0.1,0.1l0,0.1l0,0.2
		l-0.1,0.1l-0.2,0.1l-0.1,0.1l0,0.1l0.3,0.2l0.1,0.7l0.2,0.1l0,0l0,0.1l0,0l0.1,0l0,0.1l0,0.1l-0.1,0.1v0.1l0.1,0l0.1-0.1l0.1-0.1
		l0.1-0.1l0,0.1l0,0.2l0,0.1l-0.1,0.1l-0.2,0.1l-0.1,0.1l0,0.1l0,0.1l0,0.1l-0.3,0.5l0.1,0.1l0.1,0l0.4-0.2l0.1,0l0-0.2l0-0.1
		l0.1-0.1l-0.1-0.1v-0.1h0.2l-0.1-0.1l-0.1-0.1l0-0.1l0-0.4l0.1-0.1l0.3-0.2l0.1-0.1h-0.3l0.1-0.1l0.1-0.1l0.5-0.3l0.1,0v0h-0.1
		v-0.1l0.1-0.1l0.4-0.1l0,0l0.1-0.1l0-0.2l0,0l-0.1,0l0,0l0-0.1l0.1-0.1l0.2-0.1l0.1-0.1l0.1-0.1l0.1-0.1l0.1,0l0,0l0.1-0.1l0,0l0,0
		l0,0l0,0h0.1l0.1,0l0-0.1l0-0.1l0-0.1l0-0.1l0,0l-0.1-0.1l-0.1,0l0,0l0,0l0,0l-0.2,0l-0.2-0.1l0-0.1l0,0l-0.1,0l-0.1,0l0-0.1l0-0.1
		l-0.1-0.1l0-0.1l0.1-0.1l0-0.1l0-0.1l0-0.1l0-0.1l0-0.1l-0.2-0.1l0,0l0-0.1l0-0.1l0,0l0-0.1l0.1-0.2l0.1-0.3l0-0.1l0-0.1l0-0.1
		l0.1,0l0,0l0.1,0.1l0.1,0l0.2,0l0.2,0l0-0.1v-0.1l0-0.1l0-0.1l0-0.1l0,0l0.1,0l0,0.1l0-0.3l0.1-0.1l0.3,0l0-0.1L150.5,142.1z
		 M142.4,146.2L142.4,146.2L142.4,146.2L142.4,146.2l-0.1-0.1l0,0l0,0h0l0,0.1l0,0l0,0l0-0.1l0,0l-0.1,0l-0.1,0.1l-0.1,0.2l-0.1,0.1
		l0,0.1l0,0.4l0,0.1l-0.1,0.1l-0.1,0l0,0l0,0.1l-0.1,0.6l-0.2,0.5l-0.2,0.4l-0.2,0.5l-0.1,0.3l-0.1,0.1l-0.1,0l-0.1,0l-0.1,0
		l-0.1,0.1l-0.7,1.8l0,0.2l0,0.1l-0.1,0.2l-0.1,0.2l0,0.1l0,0.7l0,0.1l0,0.1l0,0.1l0,0.1l0,0.3l0,0.2l0,0.2l0.1,0.2l0,0.1l0,0.2
		l0,0.1l0.1,0.1l0.1,0l0.1-0.1l0.1-0.1l0.2-0.5l0-0.1l0-0.1l0.1-0.1l0-0.1l0-0.2l0-0.1l0-0.1l0-0.2l0.1-0.2l0.1-0.1l0-0.1l0-0.1
		l0-0.1l0,0l0-0.1l0,0l0,0l0,0l0,0l0-0.2l0-0.1l0.1,0l0,0l0-0.1l0-0.1l0-0.1l0-0.2l0-0.1l0.2-0.8l0-0.2l0-0.1l0-0.1l0-0.1l0-0.1l0,0
		l0.2-0.1l0,0l0-0.1l0.1-0.4l0-0.1l0.1-0.1l0-0.1l0-0.2l0-0.1l0.1-0.2l0.1-0.1l0.1-0.1l0,0l0,0l0,0l0-0.1l0.1-0.1l0.1,0l0.1-0.1
		l0-0.2l0-0.1l0.2-0.3l0-0.1l0-0.1l0-0.1l0,0l0.1,0l0,0l0,0l0-0.1l0.1-0.2l0-0.1l-0.1-0.2l0.1-0.3l0.1-0.1L142.4,146.2L142.4,146.2
		L142.4,146.2z M171.1,71.3l0.2,0l0.1-0.1l0,0l0,0l0,0l0-0.1l0.3,0.1l0.1,0l0.1-0.2l0-0.2l-0.2-0.3l-0.1-0.4l-0.1-0.2l-0.1-0.2
		l0-0.2l0-0.2l-0.1-0.5l0-0.1l0-0.1l-0.1-0.1l0-0.1l0-0.1l-0.2-0.7l-0.1-0.1l-0.4-0.2l-0.1-0.1L170,67l-0.1-0.5l0-0.3l-0.1-0.2
		l0-0.1l0-0.1l0-0.1l0-0.1l0-0.1l0-0.2l0-0.1l0-0.1l-0.1-0.2l0-0.1l0-0.2l0.1-0.2l0.1-0.1l0.1,0v-0.2l0.1-0.1l0.1-0.1l0.1-0.1l0-0.1
		l0.2-0.2l0.1-0.1l0-0.2l0-0.2l0-0.2l0-0.2l0-0.2l0-0.2l0-0.2l0-0.2l0-0.4l0-0.1l0.1-0.2l0.1-0.2l0.1,0l0.1,0l0.1,0l0-0.1l0-0.1
		l-0.2-0.5l-0.1-0.3l-0.1-0.2l-0.2-0.2l-0.2-0.5l-0.1-0.1l-0.1-0.1l-0.1-0.1l-0.1-0.2l-0.2-0.4l0-0.1l0-0.1l0-0.1l0-0.1l0-0.1l0-0.1
		l0,0l-0.1-0.2l-0.1-0.1l-0.1-0.1l0-0.2l0.1-0.1l0-0.1l0-0.1l0-0.1l-0.1,0l0-0.1l0-0.2l0-0.2l0.1-0.1l0.5-0.2l0.1-0.2l0.1-0.3
		l-0.1-0.1l0-0.3l0-0.3l0-0.2l-0.1-0.1l-0.1,0l-0.3-0.1l-0.3-0.2l-0.2,0l-0.2,0.1l-0.2,0l-0.1-0.2l-0.1-0.3l0.1-0.2L169,53l0.1-0.2
		l0-0.1l0.1-0.1l0.2-0.1l0.1-0.1l0-0.3l0-0.2l-0.1-0.3l0-0.2l0-0.4l0-0.2l0-0.1l0-0.7l0-0.2l0-0.3l0-0.3l0.1-0.2l0.1-0.1l0.3-0.1
		l0.1-0.1l0.1-0.2l0-0.2l-0.1-0.1l-0.3-0.1l-0.4-0.5l-0.1-0.1l-0.3-0.3l0-0.1l0-0.1l-0.2-0.7l0-0.1l-0.1-0.1l-0.1,0l-0.4,0.3l-0.1,0
		l0-0.1l0,0l0,0l0-0.1l0-0.1l0-0.1l0-0.3l0-0.1l0-0.1l0-0.3l-0.1-0.2l-0.2-0.2l-0.1-0.1l0-0.1l0-0.1l0-0.1l-0.1-0.1l-0.6-0.4
		l-0.1-0.2l-0.2-0.4l-0.1-0.1l-0.3,0.1l-0.1-0.2l-0.1-0.2l-0.1-0.1l-0.1,0l-0.1,0l-0.1,0l-0.2-0.1l-0.2,0l-0.3-0.2l-0.3,0l0,0l0-0.1
		l0,0l-0.3-0.1l-1,0l-0.1-0.1l0-0.1l0-0.1l0-0.1l0,0l0,0l-0.1-0.1l-0.1-0.1l-0.1-0.2l0-0.1l-0.2-0.2l-0.8-0.2l-0.1-0.4l-0.2-0.2
		l-0.4-0.4l-0.3-0.1l-0.1-0.1l-0.1-0.1l-0.1-0.4l0-0.1l0-0.1l-0.1-0.1l-0.3,0l0,0l0,0l0-0.1l0,0l-0.1-0.1l-0.2-0.5l-0.3-0.3
		l-0.3-0.3l-0.7-0.3l-0.1-0.1l0-0.2l0.1-0.1l0.1-0.2l0-0.2l-0.1-0.2l-0.2-0.1l-0.3-0.3l-0.5-0.1l-0.2-0.2l-2.2,0.2l1,1.3l0,0.2l0,1
		l0,0.2l-0.1,0.2l-0.4,1.2l-0.4,0.6l-0.8,0.8l1.2,0.7l-1,1.3l-0.2,0.1l-0.2,0l-1.9-0.8l-1.9-0.9l-1.4,0.1l-0.2-0.1l-0.7-0.7
		l-0.2-0.1l-1.1,0.4l0,0.1l0,0.1l-0.1,1.1l0,0.3l0.2,2.2l-0.1,0.5l-0.8,1.6l-0.1,0.3l-0.1,0.2l-0.1,0l-2.4-1.5l-0.1,0.1l-0.3,0.6
		l-1.7,1.4l-0.1,0.2l-0.1,0.2l-0.6,2.5l-0.1,0.2l-0.4,0.7l-0.2,0.3l-0.3,0.1l-0.7,0.1l-0.1,0.1l-0.2,0.8l1.3,2.4l0,0.2l-0.1,1.4
		l-0.1,0.2l-0.1,0.1l-0.2,0.2l-0.8,0.8l-0.4,0.5l-1.5,3.1l-1,1.1l0,0.3l0.2,1.3l0,0.3l0,0.2l0,0.1l-1.8,1.3l-2.1,0.3l0.4,2.9l0,0.4
		l0,0.2l-0.3,0.7l0,0.2l-0.2,2.4l0,0.5l0,0.5l0,0.5l-0.1,0.3l-0.3,0.3l-0.1,0.2l-0.1,0.2l-0.1,0.9l-0.1,0.4l-0.6,0.9l0,0l-2.2,4
		l1.2,0.9l0.2,0.1l0.3,0.1l0.2,0.1l0.1,0.2L130,87l0,0.2l-0.1,0.2l-0.7,1.4l-0.1,0.1H129l-3-0.8l-1.1,0.3l-1,0.6l-0.3,0.3l-0.8,1.4
		l-0.8,1.4l-0.5,0.6l0.2,1l0,0.2l-0.1,0.2l-0.9,1.5l1,2.7l-0.5,0.7l0,0.1l0,0.2l0.2,1.4l0,0.2l-0.1,0.3l-0.1,0.4l-0.1,0.3l0,0.2
		l0.8,2.3l0.1,0.4l0,0.5l-0.7,4.5l0.1,0.1l0.5,0.5l0.2,0.2l0.3,0.4l0.1,0.1l0.2,0l0.3,0l0.1,0.1l0.1,0.1l1.1,1.5l0,0.1l0,0.1
		l-0.1,0.8l-0.1,0.2l-0.1,0.2l-0.3,0.5l0,0.1l0,0.1l-0.1,0.6l0,0.1l-0.1,0l-0.5-0.1l-0.2,0l-1,0.3l-0.1,0.1l0,0.2l0.2,0.4l0.1,0.3
		l0.1,0.6l0.1,0.3l0.1,0.3l0.4,0.8l0.5,1.2l0.1,0.2l0,0.3l0,0.3l0,0.2l-0.1,0.2l-0.1,0.1L123,122l-0.1,0.1l0,0.1l0,0.3l0.1,0.5
		l0,0.3l-0.1,0.4l-0.1,0.3l-0.2,0.3l-0.7,0.8l-0.6,0.5l-0.2,0l-0.7-0.1l-0.2,0.1l-0.2,0.2l0,0.3l0,0.1l0.1,0.2l0.1,0.1l0,0.1l0,0.3
		v0.2l0,0.1l-0.2,0.3l-0.1,0.1l-0.6,0.3l-0.1,0.1l0,0.2l0,0.2l0.4,1.6l0.1,0.5l0,0.2v0.2l0,0.1l-0.1,0.1l0,0.1l-0.1,0.5l0,0.4l0,0.2
		l-0.1,0.4l0,0.2l0,0.2l-0.1,0.4l-0.2,0.2l-0.3,0.1l-0.3,0l-0.1-0.1l0-0.5l-0.1-0.2h0l-0.1-0.1l-0.1-0.1l-0.1-0.2l0-0.2l-0.1-0.2
		l-0.1-0.1l-0.4,0.1l-0.1,0.1l-0.3,0.4l0,0.1l0,0.1l0,0.1l0.1,0l0.2,0l-0.2,0.1l-0.1,0.1l0,0.1l0,0.1l0.1,0.1l0.2,0.1l0,0.1l0,0l0,0
		l0,0.1l0,0.1l0,0.2l0,0.1l0,0l0,0l0,0l0,0.3l0,0.1l0,0.1l0,0.1l0,0.1l0,0.1l-0.1,0l0,0.1l0,0.1l0,0.1l0.1,0l0,0l0,0.1l0,0.2
		l0.2,0.2l0,0.1v0.1l0,0.1l0,0.1l0,0.1l0,0l0,0l0,0.1h0.1l0,0.1l0,0l0,0l0,0.1l0,0.1l0,0.2l0,0l0,0l0,0l0,0l0,0l0,0.1l0,0l0,0
		l0.2,0.1l-0.1,0.1l-0.1,0.1l0,0.1l0,0.2l-0.1,0l-0.1,0l0,0.1l0.1,0.2l0,0.1l0,0.1l0,0.1l0,0.1l0,0.1l0.1-0.2l0.1,0l0.1,0l0.1-0.1
		l0,0l0-0.1l0,0l0,0l0.1-0.1l0.2-0.3l0-0.1l0,0.1l0,0.1l-0.1,0.2l-0.1,0.3l0,0.1l0,0l0.1,0l0-0.1l0-0.1l0-0.1l0-0.1l0.1,0l0,0.2
		l0.1,0.1l0,0.1l-0.1,0l-0.1,0l0,0.1l0,0.1l0,0.1l0,0l0.1-0.1l0.1,0v0.1l-0.1,0.1l-0.1,0.1l0,0.1l0,0.1l0.3-0.2l0.1-0.1l0.1-0.2
		l0.1-0.2l0-0.3l0-0.3l0-0.2h0l0,0.1l0.1,0.3l0,0.1l0.1-0.1l0.1-0.1l0.1,0l0.1,0.1l-0.1,0.1l-0.1,0.1l-0.1,0.1l0.1,0.1l-0.2,0.3
		l-0.1,0.2l-0.1,0.2l-0.1,0.2l0,0.2l0,0.1l0.1,0l0-0.1l0,0l0,0l0.1,0l0.1,0l0.1,0l0,0l0.1-0.1l0,0l0,0l0.2-0.2l0.1,0l0.1,0l0-0.1
		l0.1,0l0.2,0l0.2-0.1l0.1,0l0.1,0.1l-0.2,0.1l-0.1,0.1l0,0.2l0,0.1l0,0.1l0,0.1l0,0.2l0,0.1l0.1,0l0.1,0l0,0.1l0,0l0,0l-0.1,0l0,0
		l0,0.1l0,0.5l0,0.1l-0.1,0l0,0.1l0,0l0,0l-0.1,0.1l0,0.1l0,0.1l0,0.1l0,0.1l0,0.1L120,141l-0.2,0.3l0,0.1l0.1,0.1l0,0.1l0,0l0,0
		v0.1h0.1v0l-0.2,0.1l-0.1,0.1l0,0.2l-0.1,0l-0.1,0l-0.1,0.1l0.1,0l0.1,0.1l0.1,0.2l0.1,0.1l0.1,0l0.1,0l0.1,0l0,0.1l0,0.1l-0.4,0.4
		l0,0.1l0,0.1l0.1,0l0.1,0l0.1,0l0-0.1l0.1,0l0.2,0.1l0.1,0l0.1,0l0.1,0l0.1-0.1l-0.1,0.1l-0.3,0l0,0.2l0,0.1l0,0.1l0,0.1l0,0.1
		l0,0.1l0.1,0l0.1-0.1l0-0.1l0,0l0,0l0,0l0,0.2l0,0.4l-0.1,0.1l0,0l0.1,0.1l-0.1,0l0,0l0.1,0l0.1,0.1l-0.1,0l-0.1,0.1l0,0.1l0,0.1
		l0,0.1l0,0.1l0,0.1l-0.1,0.1l0,0l0,0l0,0l0,0l0,0.2h0.1l0.1,0l0,0.1l0.1-0.1l0.1-0.5l0.1-0.1l0,0l0,0l0,0l0,0l0,0l0.1,0.3l0,0.1
		l0,0.1l-0.1,0.1h0.2l-0.1,0.1l-0.1,0.1l-0.1,0.1l0.1,0.1l0,0l0.1,0l0,0l0,0l0,0l0,0l0,0l0,0l0,0.1l0,0.1l0,0.1l0,0v0.1l0,0l-0.1,0
		l0,0l0,0.1l0,0v0.1l0.1,0l0.1,0l0.1,0l-0.1,0l-0.1,0h-0.1l0.1,0.1l0.1,0l0.1,0l0.1,0l0,0l0,0.1l-0.1,0.1l0.1,0l0.1,0l0,0l0,0.1
		l0,0.2l0,0.1l0.1,0.2l0,0.1l-0.1,0.1l0.1,0.1l0,0l0,0.1l0.1,0.1l0.1,0.1l0.1,0.1l0,0.1l0,0.1l0,0l0,0l0,0.1l0,0l0,0l0,0.1l0,0
		l0,0.2l0,0.1l0.1,0.1l0.2,0l0.1,0.1l0.1,0l0,0l0.1,0.1l0,0l0.1,0l0,0l0,0v0l0,0l0,0l0.3,0.2l0,0.1l0,0.2l0.1,0.3l0.1,0.1l0.1,0.1
		l0.1,0.1l0,0.2l0,0.1l0.2,0.2l0.1,0l0.1,0l0.1,0l0.2-0.1l0.1,0l0.1,0l0.1,0.1l0.1,0.3l0.1,0.3l0,0.2l0,0.2l-0.1,0.2l-0.1,0.1
		l-0.1,0.1l-0.2,0.1l-0.5-0.2l-0.2,0.1l-0.1,0.3l0.1,0.2l0.4,0.3l0.1,0.3l0.1,0.2l0.2,0.1l0,0.1l0,0.1l-0.1,0.1l-0.1,0.1l-0.1,0
		l-0.2,0l0,0l-0.1,0l0,0l0,0l-0.1-0.1l0,0l0,0l-0.1-0.1l0,0l-0.8-0.4l0.1,0.1l0.2,0.1l0.1,0.2l0.1,0.2l0,0.1l0,0.2l0,0.1l0.2,0.4
		l0,0.1l0.4,0.5l0,0.1l0,0.1l0,0.1l0.1,0l0.1,0.1l0,0.1l0,0.1l0,0.1l0.1,0.1l0,0l0,0l0,0l0,0l0,0.1l0,0.1l0,0.1l0.1,0.2l0.2,0.1
		l0.1,0.1l0.1,0.3l0,0.1l0,0.1l0,0l-0.1,0l0,0.1l0.1,0l0.1,0l0,0.1l0.1,0l0.1,0l0.1,0.1l0.1,0.1l0.1,0.1l0,0.1l0,0.1l0,0.1l0,0.1
		l0,0.1l-0.3,0.2l-0.1,0.1l0,0.2l0,0.2l0.2,0.3l0,0.2l-0.1,0l0,0l0,0l0,0.1l-0.1,0.1l-0.1,0l-0.1,0l-0.1,0l0-0.1l0,0l0,0h0l-0.1,0.3
		l0,0.1l0.1,0l0.1-0.1l0.1,0l0,0l0.1,0l0,0l0,0l0.1-0.1l0,0l0.1,0l0.1,0l0,0l0.1,0.1l0,0l0,0l0.1,0l0.2,0l0.7,0.3l0.1,0l0.3,0l0.1,0
		l0.4-0.3l0.1,0l0.2,0l0.1,0l0.1-0.1l0-0.1l0-0.1l0.1,0l0.6,0l0.2,0l0.1,0l0.1,0l0.1-0.1l0.1,0l0.1,0l0.1,0l0.3,0.2l0.1,0l0.1,0
		l0.3,0l0.1,0l0.1-0.1l0.1-0.1l0.2-0.3l0.1-0.1l0.1-0.1l0.2-0.3l0.1-0.1l0-0.2l0-0.1l-0.2-0.3l-0.1-0.1l0-0.1l0-0.1l0-0.1l0-0.1
		l0-0.1l-0.1-0.1l-0.2-0.1l-0.1-0.1l0-0.1l0-0.1l0-0.3l0-0.3l0.1-0.3l0.2-0.2l0.2-0.1l0-0.1l0-0.1l0.1-0.1l0.1-0.1l0.1,0l0.1-0.1
		l0.2-0.2l0.1-0.2l0.1-0.1l0.1,0l0,0l0.1-0.1l0.1,0l0,0l0,0l0,0.1l0.1-0.1l0,0.1l0,0.1l0,0.1l0,0l-0.1,0.1l0,0l0,0l0.1,0l0,0l0,0
		l0,0l0,0l0-0.1h0.1l0,0.1l0,0l0,0l0-0.1l0-0.1l0.1,0l0,0l0-0.1l0-0.1l-0.1-0.2l0-0.1l0-0.1l0-0.1l-0.1,0l0,0l0-0.1l0-0.1l0-0.1
		l0.1-0.1l0.1,0l0.2,0l0.1,0l0.1,0.1l0.1,0.1l0.1,0l0-0.1l0.1,0l0.1,0l0.1,0l0.1-0.1l0.1,0l0.3,0.1l0,0l0-0.1l0,0l0,0l0.1,0l0,0l0,0
		l0,0.1l0,0h0.2l0,0l0,0l0,0l0,0l0.1,0.1l0.2,0l0.2-0.1l0.1-0.1l0.1,0.2l0,0.1l0,0l-0.1,0l0.1,0l0.1,0l0.2,0l0,0l0,0l0-0.1l0.1-0.1
		l0,0l0.1,0l0.1,0l0,0l0,0.1l0,0l0.1,0.1l0,0l0-0.1l0,0l0.2-0.1l0.2-0.1l0.1,0l0,0l0,0.1l0,0.1l0,0l0.1,0.1l0.1-0.1l0.1-0.1l0.1-0.1
		l0,0l0.1,0.1l0.1,0l0,0l0,0l0,0l0,0l0.1,0.1l0.1,0l0.2-0.1l0.1,0.1l0,0.1l-0.1,0.3l0.1,0.1l0.1,0.1l0.1,0l0.1-0.1l0.2-0.5l0.1-0.1
		l0.2-0.2l0.1-0.1l0-0.1l0-0.1l0-0.1l0,0l0,0l0.2-1.2l0.1-0.3l0.2-0.4l0-0.1l0-0.1l0.1,0l0-0.1l0-0.2l0-0.2l0-0.1l0,0l0,0l0.1-0.2
		l0-0.1l0,0l0,0l0.1,0l0.1,0l0.1,0.1l0.1,0l0.1,0l0.1-0.1l0-0.1l0-0.1l0-0.2l-0.1-0.2l0-0.1l0,0l0.1,0l0.1-0.1l0.1,0l0.1,0l0.1,0.1
		l0,0l0,0l0-0.1l0-0.1l0,0l0,0l0,0.1l-0.1,0l-0.1,0l0-0.1l0-0.1l0.1-0.4l0-0.1v-0.1l0-0.2l0,0l0.1-0.2l0-0.1l0-0.1l0-0.1l0-0.1
		l0-0.2l0-0.1l0.1-0.1l0.1,0v-0.1l0,0l0,0l0,0l0-0.1l0.1,0l0.1,0l0.1,0l0,0l0,0l0,0l0,0l0,0l0,0l0,0l0,0l0,0l0,0l0,0l0,0l0,0l0,0
		l0,0l0.1,0.1l0.1,0l0-0.1l-0.1-0.1l0-0.1l0.1,0l-0.1-0.2l0-0.1l0,0l0,0l0,0l0-0.1l-0.1-0.2l-0.1-0.2l0-0.2l0-0.2l0.1-0.1l-0.1-0.3
		l0.1-0.1l0.3-0.2l-0.1-0.1l0,0l0,0l0-0.1l-0.1-0.1l0.1-0.2l0.1,0l0.2,0.1l0-0.1l0-0.1l0.1,0l0.1,0l-0.1,0l-0.1-0.1l0-0.1l0-0.1
		l0.1,0l0.1,0l0,0l-0.1-0.1l0.1,0l0-0.1l-0.1-0.2l-0.1-0.3l-0.2-0.1l-0.3,0v0h0.1v-0.1l-0.1-0.1v-0.1l0,0l0.1-0.1l0,0l0,0l0-0.1l0,0
		l0,0l0,0l0,0l0,0.1v0.1l0,0.1l0,0l0,0l0.1-0.1l0-0.1l0,0l0,0l0,0l0-0.1l0-0.1l-0.1,0l0,0l0-0.1l0.1,0l0.1,0l0-0.1l0-0.1l0-0.1
		l-0.1-0.1l0-0.1l0.1,0.1l0.1,0.1l0.3,0v-0.1h-0.1v-0.1h0.1l0-0.1l-0.1-0.1l-0.1,0l-0.1,0l0.1-0.1l-0.1-0.1l-0.1-0.2l0,0l-0.1,0l0,0
		l0-0.1l0-0.1l-0.2-0.2l-0.2-0.2l-0.1-0.1l0-0.1l0-0.1l0.5,0.4l0.3,0.5l0.1,0.1l0.2,0.1l0.1,0l0-0.1l-0.1-0.1l-0.9-1v-0.1l0.1,0l0,0
		l0-0.1l-0.1-0.1l0.2,0.1l0.1,0.1l0.1,0.1l0,0l0-0.1l0-0.1l0-0.1l0,0l0-0.1l0,0l-0.2-0.1l-0.1-0.2l0-0.1l0-0.1l0-0.1l0,0l0,0
		l0.5,0.6l0,0l0,0l0,0l0,0l0,0.1l0,0.1v0.1l0,0.1l0.2,0l0.1,0l0-0.1l0-0.2l0,0l0.1,0.2l0.1,0.1l0.1,0l0.1,0l0-0.1l0-0.1l-0.1-0.1
		l0-0.1l0.2,0.1l0.1,0l0-0.1l-0.1-0.1l0,0l0-0.1l0-0.1l0,0l0,0.1l0,0l0-0.1l0-0.2l-0.1,0l-0.1,0l-0.1-0.2l0-0.1l0.1-0.1l0.1,0
		l0.1,0.2l0.1,0.1l-0.1-0.1l0,0l0.1-0.1l0,0.1l0,0l0,0l0-0.1l-0.1-0.1l-0.1,0l-0.1,0l-0.1-0.1l0.1,0l0,0l0-0.1l0-0.1l0.1,0l-0.1-0.2
		l-0.1-0.2l-0.1-0.2l0,0l0.1,0l0,0l-0.1-0.1l-0.2-0.2l-0.1-0.1l0.2,0.1l0.2,0.3l0.2,0.2l0.1-0.3l0,0l0-0.1l0,0l0,0l0.1,0l0,0l0,0
		l0-0.1l0-0.1l0-0.1l0-0.1l-0.1-0.1l0,0l0,0l-0.3-0.2l-0.1,0v-0.1l0.2,0l0,0l0,0l0-0.1l0,0l0,0l0,0l0.1,0l0,0l0-0.1l-0.1,0l-0.2,0.1
		l0,0.1l0,0.1l0,0l0,0l-0.1,0l0-0.1l0-0.1l-0.1-0.1l-0.2-0.1l-0.1-0.1l0.6,0.1l0-0.2l0,0l-0.1,0l0,0l-0.1,0l-0.1,0l0,0l0-0.1l0-0.1
		l0-0.1l0-0.1l0-0.1l-0.1,0l-0.1,0l-0.9-0.5l-0.1,0l0.1-0.1l0.4,0.1l0.2,0.2l0.5,0.1l0,0l0.1,0l0,0l0,0l0.1-0.1l0,0l0.1,0l0.1-0.1
		l0.1-0.1l0-0.1l0.1,0l0.2,0l0.1-0.1l-0.2-0.2l-0.2,0l-0.1,0l0-0.1v-0.1h-0.1v0l0,0l0,0l-0.1,0l-0.1-0.1l0-0.1l0-0.1l-0.1,0
		l-0.1-0.1l0,0l0,0.1l0,0l-0.1-0.1l-0.2,0l-0.1,0l-0.1-0.1l-0.1,0l-0.5,0l-0.1-0.1l-0.2-0.1l-0.1,0l0,0.1l0,0.1l0,0.1l0,0.1l0,0
		l-0.1,0l0,0l0-0.1l0-0.1l0,0l0,0l-0.1-0.1l-0.1,0l-0.1,0L139,136l-0.1,0.1l-0.2-0.1l-0.1,0.1l0-0.1l0,0l-0.1,0l-0.1,0v-0.1l0.1,0
		l0.2,0l0.1,0l0-0.1l0-0.1l0-0.1l-0.1,0v-0.1l2.9,0.4l0.4-0.1l0.1,0l-0.1-0.1l-0.1-0.1l-0.2,0l0.1-0.1l0.2,0l0.2,0.2l0.1,0l0.1-0.1
		l0.1-0.1l0.1-0.1v-0.1l-0.1,0l-0.2,0l-0.1-0.1l0,0l0-0.1l0-0.1l0-0.1l0-0.1l-0.1,0l-0.1,0l0.1,0l0.1-0.1l0,0l0.1,0l0.1,0.1l0,0.1
		l0.1,0l0.5,0V135l0.1,0l0.2,0l0.1-0.1l0-0.1l-0.1-0.2l0.5,0.1l0.1-0.1l-0.1-0.1l0,0l0,0l0-0.1l0-0.1l0-0.2l0-0.1l-0.1-0.1v-0.1
		l0.1,0.1l0.3,0.3l0.1,0l0,0l0,0h0.1V134l-0.1-0.1l-0.1-0.1l0-0.1l0.1,0l0.1,0l0.1,0l0.1-0.1l0-0.1l-0.1-0.1l-0.1,0l0-0.1v-0.1l0,0
		l0,0l0,0l0,0l0,0l0,0l0,0l0,0l0-0.1l0-0.2l0-0.1l-0.1-0.1l0-0.2l0-0.2l0-0.2l0.1,0l0.1-0.1l0.1-0.1l0.1-0.1l-0.1-0.3l0,0.1l0,0.1
		l0,0.1l0,0.1l0,0.1l-0.1,0.2l0,0.1l0.1,0.2l0,0l0,0l0-0.1l0-0.3l0-0.1l0-0.1l0.1,0l0,0l0,0.1l-0.1,0.2l0,0l0,0.1l0,0.2l0,0.2
		L145,133v0.1l0,0.2l0,0.2l0,0.2l0.1,0.1l0,0.1l0,0.1l0,0.1l0,0l0,0l0-0.1l0-0.1l-0.1-0.1l0-0.2l0-0.1l0.1,0.1l0.1,0.2l0,0l0.1,0
		l0,0l0,0l0,0l0,0l0,0l0,0.1l0,0.1l0,0.1l0,0.1l0.1,0.1l0-0.2l0-0.1l0-0.1l0.1,0l0.1,0l0.1,0l0.1-0.1l0-0.1l0-0.1l0-0.1l0-0.1
		l0.1-0.2l0.1-0.2l0.1-0.1l-0.1-0.1l0-0.1l0.1,0l0.1,0.1l0,0l0-0.1l0,0l0.2,0l0.1,0l0.1-0.2l0-0.1l0.1,0l0.1,0l0.1,0l0.1-0.1l0.1,0
		l0.1,0l0.1,0v0.1l0,0l0,0l0.1,0.1l-0.1,0l-0.1,0.1l-0.1,0l0.1,0l0.4-0.2l0-0.1l0,0l0,0l0,0l0.1-0.1l0.2-0.1l0.2,0l0.1,0l0,0l0,0
		l0-0.1l0-0.1l0-0.1l0,0l-0.1,0.1v-0.1l0,0l0,0l0,0l0,0l-0.1,0.1l0-0.1l0-0.1l0-0.1l-0.1,0l-0.1,0l-0.1-0.1l0-0.1l0.1,0l0.4,0.3
		l-0.1-0.1l-0.1-0.1l-0.1-0.1l-0.1,0l-0.2-0.1l0-0.1l0,0l0.1,0v-0.1l0-0.1l0-0.1l0-0.1l-0.1,0l0.1-0.1l0.1-0.1l0.1,0l0.1,0l0,0
		l0,0.1l0,0l0.1,0.1l0.3-0.1l0.1,0l0.1,0l0.1,0l0.1,0l0.1,0l0.1,0l0.1,0l0.2,0l0.1-0.1l0-0.1l-0.1-0.1l-0.1-0.1l-0.1,0l-0.1-0.1
		l0.1,0l0.1,0l0.1,0l0-0.1l-0.3-0.2l0,0l0-0.1l0,0l-0.1-0.1l-0.1,0l-0.2,0l0,0.1l0.1,0.1l0.2,0.1h-0.2l0,0.1l0.1,0.3l0,0.1l-0.1,0
		l-0.1,0l0,0l0-0.1l0,0l-0.2-0.1l-0.3-0.1l-0.3,0.1l-0.1,0.4h0l0-0.1l0,0l-0.1,0.1l-0.6,0l-0.1-0.1l-0.1,0l-0.2,0.2l-0.1,0.1l0,0
		l0,0.1l0,0l0,0l0,0.1l0,0l0,0.1l0,0.1l0,0l-0.1,0l0-0.2l-0.2-0.1l-0.4,0v0.1l0.2,0.1l0,0.1L145,131l-0.1,0l-0.1,0l0.1-0.1l0,0l0,0
		l-0.1,0l0,0l0,0l0-0.1l-0.3-0.1l-0.1,0l-0.1,0.1l0.1,0.1l0,0.1l0,0.2l0,0.1l0-0.1l-0.1-0.2l0,0l-0.1,0l-0.2-0.1l-0.2-0.2l-0.2-0.1
		l-0.3-0.1l0.1,0.4l0.1,0.1l0.1,0.1v0.1l-0.8-0.1v-0.1l0.2,0l0.1,0l0-0.1l0-0.1l-0.2-0.3l0.3-0.1l0-0.1l0-0.1l-0.1-0.1l-0.2,0
		l-0.4-0.1l-0.2,0L142,130l0,0l0-0.1l0,0l-0.3-0.2l0,0l0-0.1l0-0.1l0-0.1l-0.1-0.1l0,0l0,0l-0.1-0.1l-0.2-0.2l-0.1,0l0,0.1h-0.3l0,0
		l-0.1,0l0,0l0,0l0,0l0,0l0.1,0.1l0.5,0.4l0,0l0.1,0l0,0l0,0l0,0.1l0,0l0,0h-0.3l0,0l-0.1-0.2l-0.3-0.3l-0.1-0.1l-0.1-0.1l-0.1,0.1
		l-0.1,0.1l-0.1,0.1l-0.1,0l-0.1-0.1l-0.1,0l0,0l0,0.1l0,0l0,0l-0.1,0l0,0l-1.3,0.1l-0.2,0l-0.2-0.1l-0.2-0.1l-0.1-0.2l0.4,0.2h0.5
		V129h-0.1v-0.1l0.1-0.1l0.1,0l0,0.1l0,0.1l0.1,0.1l0.1,0l0.1,0l0-0.1l0,0l0.1,0l0,0l0.1-0.1l0,0l0,0l0.2,0.1l0.1,0l0.1-0.1
		l-0.2-0.1l0.1,0l0.1,0l0.1,0l0.1-0.1l-0.1-0.1l-0.1-0.2l-0.1-0.1l0.1-0.1l0.1,0l0,0l0,0l0.1,0.1l0.1,0.1l0.1,0.1l0.1,0.1l0.1,0.1
		l0.1,0.1l0.1,0l0.1,0l0.1,0l0,0l0-0.1l0-0.1l0.1-0.1l0,0l0,0l0-0.1l0-0.1l0,0l0.3,0.1l0,0l0,0l0,0l0,0l0,0l0,0l0,0l0,0l0.1,0.2l0,0
		l0.5,0l0-0.1l-0.2-0.2l-0.1-0.1l0.1,0l0,0l0.1-0.1l0,0l0,0.1l0,0.1l0.1,0.1l0,0l0,0l0,0l0.1,0.1l0.1,0.1l0.2,0l0,0.1l0,0.1l0.5,0.4
		l0.1,0l0-0.1l0-0.1l0,0l0,0.1l0.1,0.2l0,0l0-0.1l0-0.1l-0.1-0.2l0.1-0.1l0-0.2l-0.1-0.2l0-0.1l-0.1-0.1l0-0.1l0,0l0.1,0l0-0.1
		l0-0.1l0-0.1l0,0.1l0,0.1l0,0.1l0.1,0l0,0l0.1,0.2l0.2,0.2l0,0l0,0l0.1-0.1l0,0l0.1,0l0,0.1l-0.1,0.1l-0.1,0.1l0,0.1l0,0.1l0,0
		l0.1,0l0,0l0,0l0,0l0-0.1l0,0l0.1,0l0.3,0.1l0.1,0l0,0.1l0.1,0.2l0.1,0.1l0.1,0l0-0.1l0-0.1l0.1-0.1l0.2-0.3l0-0.1l-0.1-0.3l0-0.1
		l-0.1-0.1l-0.1,0l-0.1,0l-0.4-0.3l-0.2-0.2l0-0.1l0-0.1l0.2-0.2l0,0l0,0l0,0l0.1-0.2l-0.1-0.1l-0.3,0l0.1,0l0,0l-0.1,0.1l-0.1,0
		l-0.1,0.1l0,0.1l0,0.2l0,0.1l-0.1,0.1l0.1,0.1l0.1,0.2l0,0.2l0,0.1l-0.1-0.1l-0.1-0.4l-0.1-0.1l0-0.2l0-0.1l-0.1,0l0-0.1l0-0.1
		l0-0.1l0.1-0.2l0-0.1l0,0l-0.3,0l-0.1,0l-0.1-0.1h0.6l0.1,0l0.1-0.1l0.1-0.2l0.1-0.2l0,0.1l0,0.1l0.1,0.1l0,0.2l0.1,0.1l0.1,0.1
		l0.1,0.1l-0.1,0l0,0.1l0,0.1l0,0.1l0,0.1l-0.1,0.1l-0.1,0l-0.1,0l0.1,0.1l0.1,0.1l0.1,0l0.1,0l0.2,0.1l0.1,0l0-0.1l0-0.1l0-0.2
		l0-0.1l0.1-0.1l0,0.1l0,0.1l0,0.1l0,0.1l0,0.2l0,0.1l0.1,0.1l0,0l0.1,0l0,0l0,0.1l0,0l0,0v0.1l0,0l0,0l0,0l0,0.1l0,0.1l0,0.1l0,0.1
		l-0.1,0.1l-0.1,0.1l-0.1,0.2l0,0.2l-0.1,0.3l0.1,0.3l0.2,0.2l0.2,0.1l0.1,0l0.3-0.1l0.5,0.1l0.1,0l-0.6-0.6l0,0l0.1,0.1l0,0l0,0
		l0.1-0.1l0-0.1l0-0.1v-0.1l0,0l0,0l0.1-0.1l0,0l0,0l0,0.1l0,0l0.1,0l0.1-0.1l0.1,0l0,0.1l0,0.2l0,0.1l0,0l-0.1,0l-0.1,0l0,0
		l0.1,0.1l0.2,0.1l0.2,0l0.1-0.1l-0.1,0l-0.1,0l-0.1-0.1l0-0.1l-0.1-0.1l-0.1,0l0.1,0l0.1,0l0.1-0.1l-0.1-0.1v-0.1l0.3,0l0.1,0
		l0.1-0.1l0.2-0.3l0.1-0.1l0.2-0.1l0.2-0.2l0.2-0.1l0.1-0.1l0.1,0l0,0l0-0.1l-0.1-0.2l0.1,0l0,0l0,0l0,0l0,0l0.1-0.1l0-0.1l0-0.1
		H149l0,0l0,0l0-0.1l0-0.1l0,0l0.1,0l0-0.1l0.1-0.1l0.3-0.1l0.1-0.1l0.1-0.1l0.1-0.1l0,0l0,0.1l0,0.1l0.1,0l0.1,0l0.3-0.1l0.1-0.1
		l0.1-0.1l0-0.2l-0.2-0.1l-1.1,0l-0.2,0.1h-0.1l0-0.1l0.1-0.1l0.1,0l0.2,0l0.1,0l0.1-0.1l0.3-0.4l0-0.1l0-0.1l-0.1-0.3l0-0.1
		l0.1,0.1l0.1,0.2l0.3,0.5l0.1,0l0.1,0l0-0.1l0-0.3l0-0.1l-0.1,0l-0.1,0l0,0l0,0.1l0,0l0,0l0,0l-0.1-0.1l0,0l0-0.1l0,0l0,0l-0.1-0.1
		l-0.1-0.1l-0.2-0.1l-0.1-0.1l-0.1-0.4l-0.2-0.6l0-0.1l0-0.1l0-0.1l0,0l-0.1,0l-0.2,0.1l-0.1,0.2l0,0.2l0.1,0.2l0.1,0.2l0-0.1
		l-0.2-0.3l0-0.1l0-0.3l0-0.1l-0.1-0.1l-0.1,0l-0.1-0.1l-0.1,0l-0.1,0l-0.1,0.1l0,0.1l0,0.2l0,0.2l0,0.1h0l0-0.1l-0.1-0.3l0-0.1
		l0-0.3l0,0l0,0.1l0,0l-0.1,0h-0.1l-0.1,0l-0.1-0.1l-0.2-0.1l-0.1-0.1l0-0.2l0.1,0.1l0.1,0l0.1,0l-0.1-0.2l-0.2-0.2l-0.2-0.2
		l-0.1-0.3l0.2,0.4l0.1,0.2l0.7,0.3l0.2-0.1l-0.2-0.2l-0.6-0.2l0-0.1l0,0l0.1,0l0.1,0v-0.1l-0.1-0.1l0,0l0-0.1l0-0.1l0-0.1l0,0
		l-0.1-0.1l-0.3,0l-0.1-0.1l-0.1,0l-0.1,0l-0.1,0l-0.1,0.1L147,122l0-0.1l0,0l-0.1-0.1v-0.1l0.1-0.1l0.1-0.1l0.1,0l-0.3-0.1
		l-0.1-0.1l-0.1-0.2l0,0l0-0.1l0,0l-0.1-0.1l-0.2-0.2l-0.1-0.1l-0.1,0v-0.1l0,0l0-0.1l0-0.1l0-0.1l-0.1-0.3l-0.1-0.1l-0.1,0
		l-0.4,0.1l-0.2,0.2l-0.1,0.2l0.1,0.2v0.1l-0.3,0l-0.1-0.1l-0.1-0.2l0-0.1l-0.1-0.2l0-0.1l0,0l0.1-0.1l0.1-0.1l-0.1-0.1l-0.2-0.1
		l-0.1-0.1l-0.1-0.1l-0.1,0l-0.6,0.1l-0.1,0l-0.1,0.1l-0.1,0l-0.1,0l-0.1,0v-0.1l0.2-0.1l-0.2-0.2L143,119l-0.1-0.1l-0.1,0l0,0
		l-0.1,0l0,0l0,0l0,0l0,0l0.1,0l0.2-0.1l0.1-0.1l0.1-0.1l0.1-0.1l0.1-0.1l0,0l-0.1,0l-0.1,0l-0.1-0.1l0-0.1l0-0.1l0-0.1l0,0l0,0l0,0
		l0-0.1l0,0l0,0l0,0l0,0l-0.2-0.5l0,0l0,0l-0.1,0l0,0l0-0.1l0-0.1l0-0.1l0,0l-0.1,0l-0.1-0.1l0,0l0-0.1l0-0.2l0.1-0.1l0.3-0.1
		l-0.1-0.1l-0.1,0l-0.2,0l0,0l0.1-0.1l0,0l0,0l0,0l0-0.1l0-0.1l0-0.1l0,0l0,0l0,0l0-0.1l0-0.1l0,0l-0.1,0l0,0l0.1,0l0-0.1l0-0.1
		l-0.1-0.1l0.1-0.1l0-0.1l0-0.2l-0.1-0.1l0.1-0.1l0.1-0.1l0.1-0.1l-0.1-0.2l-0.1-0.1l-0.1-0.2l-0.1-0.1l-0.1-0.1v-0.1l0.1,0l0.1,0
		l0.2,0.2l0.1,0l0.2,0l-0.1-0.1l-0.1,0l-0.1-0.1l-0.1-0.2l0.3,0.1l0.1,0l0.1,0l-0.3-0.2l0-0.1l-0.1-0.1l-0.1-0.1l-0.1-0.2l0-0.1
		l0-0.1l0.1-0.1l0-0.2l0,0l0,0.1l0,0.1l0-0.1l0,0l0,0l0,0l0,0l0-0.1l0-0.1l0,0l0,0l0,0.1l0,0h-0.1l0,0l0-0.1l0-0.1l0-0.1l0-0.1l0,0
		l0-0.1l0-0.1l0,0l-0.2-0.1v-0.1h0.2v-0.1l0,0l-0.1,0l-0.1-0.1l-0.1,0l0,0l0,0l0.4,0v-0.1l-0.4-0.1l-0.1-0.1l0.2,0l0.2-0.1l0-0.1
		l-0.1,0l-0.1,0v-0.1l0.3,0l0.1,0l0.2,0.1l0.1,0l0.1-0.1l-0.1-0.1l-0.5-0.1l0.1-0.1l0.2,0.1l0.1-0.1l-0.1-0.1l0,0v-0.1l0.1,0l0.2,0
		l0.1-0.1l0-0.1l-0.3-0.2l-0.1,0l-0.1,0l-0.1-0.1l0.4,0l0.2,0l0.2,0.1l0,0.1l0.1,0.1l0.2,0l-0.1-0.2l0-0.1l0-0.1l0.1,0.1l0.1,0.1
		l0.2,0.4l0.1,0.1l0.1,0.1l0.1,0l0.1,0l0.1-0.1l0-0.1l0-0.2l0-0.1l0-0.1l0-0.1l0-0.1l-0.1-0.1l-0.1-0.1l-0.1,0l-0.1,0l-0.2,0.1l0,0
		l0-0.2l0-0.1l0-0.1l0-0.1l-0.1,0v-0.1l0,0l0,0l0-0.1l0-0.1l-0.2,0.1l-0.1,0l0,0l0,0l0,0l0,0l0-0.1l0,0l0,0l0,0l0,0v-0.1l0-0.1l0,0
		l0,0l0.1,0l0-0.1l0-0.1l-0.1-0.2l0-0.1l0-0.1l0-0.1l0-0.1l0,0l0.1,0l0-0.1l0-0.1l0-0.1l0,0l0.2,0l0,0l0-0.1l-0.1-0.1l0,0l0.1-0.2
		l0-0.1l-0.1-0.1l0.1-0.1l0-0.1l0-0.1l0-0.2l0-0.1l0.1-0.2l0-0.1l0-0.1l0-0.1l0-0.1l0-0.1l0-0.1l0.1-0.1l0.1,0l0.1,0l-0.1,0.2l0,0
		l0.1,0l0.3-0.2l-0.1-0.1l-0.1-0.1l-0.1,0l-0.1,0l-0.4-0.2l0.1-0.1l0,0l0,0v-0.1l0-0.1l0-0.1l0-0.1l0-0.1l-0.1-0.1l-0.1,0l-0.1,0
		l-0.1,0l-0.1-0.1l0-0.1l0-0.1l0-0.1l0-0.1l0-0.1l0-0.1l0,0l0.1,0l0,0l0,0l0-0.1l0-0.1l0-0.1l0,0l-0.2-0.3l0-0.1l0-0.1l0.1-0.1
		l0.1,0l0.1-0.1l0-0.2l0.1-0.1l0,0l0.2,0.3l0.2,0.4l0,0l0.1,0.1l0.1,0l0.1,0l0.5,0l0-0.1l-0.1,0l-0.1-0.1l0-0.2l0.1-0.1l0.1-0.1
		l0.2-0.1h0.2l0,0l0.1,0.1l0,0l0.1,0l0.1-0.1l0.1-0.2l-0.1-0.1l0.1,0l0,0l0-0.1l0-0.1l0-0.1l0-0.3l0-0.1l0,0l0.1,0l0,0l0,0.1l0,0.3
		l0,0.1l0,0l0.3-0.3l0.1,0l0,0l0-0.1l0-0.1l0-0.1l-0.6-0.3l-0.1-0.1h0.3l0,0l0.1,0.1l0,0l0,0l0,0l0,0l0-0.1l0-0.1l0-0.2l0-0.1l0-0.2
		l-0.1-0.2l0-0.1l0-0.2l0,0l-0.1-0.1l0-0.1l-0.2-0.1V100l0.1-0.2l-0.1-0.3l-0.1-0.3l-0.1-0.2l-0.1-0.2l-0.5-0.5l0.1,0l0.1,0.1
		l0.1,0.1l0.1,0l0.1,0l0.1-0.1l0.1,0l-0.1,0.1l0,0l0.1,0l0.1,0l0,0.1l0,0.1l0.1,0.3l0,0.1l0.1,0l0.1,0l0.1,0l0,0.1l0,0l0,0.1l0,0
		l0,0.1l0,0.1l0,0l0,0.3l0,0.1l0,0l0.1,0.1l0.1,0l0,0l0.1-0.1l0.1-0.1l0.1-0.1l0.1,0l0,0l0,0l0,0l0,0l0.1,0.1l0.1,0.1l0.2,0.1
		l-0.1,0.2l-0.4-0.1l-0.1,0.2l0.2,0l0.1,0l0.1,0.1l0,0l0,0.1l0.2,0l0.1,0l0.1-0.1l0-0.1l0-0.1l0-0.1l0.1,0l0,0l0,0.1l0,0.1l0,0.1
		l0,0.1l0,0l0-0.1l0,0l0.1,0l0.1-0.1l0.1-0.3l-0.1-0.1L147,100l-0.1-0.1l0-0.1l0-0.1l0-0.1l0,0v-0.1h0.2l0-0.1l0,0l0.1,0l0.1,0.1
		l0.1,0.2l0,0.1l0,0l0,0l0,0l0.1,0l0.1,0l0,0l0.1,0l0,0l0,0l0,0l0.1,0l0,0l0-0.1l0-0.1l0-0.1l-0.2-0.1l-0.1-0.1l0.3,0.1l0.2,0l0-0.2
		l0-0.1l-0.1,0l-0.2,0.1l-0.1,0l-0.2-0.2l0-0.2l0.1,0l0.2,0.1l0.1,0l0.1,0l0-0.2h0l0,0.1l0.1,0l0,0l0-0.1l-0.1-0.1l-0.1-0.1l-1.1,0
		l-0.1-0.1l0.2-0.1l0.1-0.1l0.1-0.1l0,0l0,0l0-0.1l0,0l0,0l0,0l0,0.1l0,0l0.3,0.1l-0.1-0.1l-0.1-0.1l-0.1-0.1l0.1-0.1l0.1,0l0.1,0
		l0.1,0.1l0.1,0.2l0,0l0,0l0-0.2l0-0.1l0.1,0l0.2-0.2h-0.1l0.1-0.1l0-0.1l0-0.1l0-0.1l0.1-0.1l0.1,0l0.1,0.1l0.1,0l0.1,0l0-0.1
		l0-0.1l0-0.1l-0.1-0.1l-0.1-0.1l-0.1-0.1l-0.1,0v-0.1l0.2,0l0.6,0.2l0-0.1l-0.1-0.2l0-0.1l0-0.1l0-0.1l-0.1-0.1l0.1-0.1l0.4,0.1
		v0.1l-0.2,0l-0.1,0l0,0.1l0,0.1l0.1,0.1l0.1,0l0.1-0.1l0,0l0-0.1l0.3,0l0.1-0.1l0.1-0.1l-0.7-0.3l-0.1-0.1l0.1-0.1l0.1,0l0.2,0
		l0.2,0.1l0.1,0l0-0.1l0.1,0l0.1,0.1l0.1,0.1l0.1,0.1l0.1,0l0,0.1l0,0.1l0,0.1l0.1,0.1l0,0.1l0,0l0.1,0.2l0,0l0.1,0l0,0l0-0.1l0-0.1
		l0.1,0l0.1,0l0,0l0-0.1l-0.1,0l-0.1-0.1l-0.1-0.1l0.1-0.2l0.2,0.2l0.1,0l0.1-0.2h-0.1l0-0.1l0.1-0.2l0-0.1l-0.1-0.1l0,0l0.1-0.1
		l0.2-0.1l0.1-0.2l0,0.2l0.1,0l0.1-0.1l0-0.1v-0.3l0-0.1l0-0.2l0-0.1l0-0.3l0-0.2l0.1-0.1l0.1,0.1l0.1,0.1l0.1,0.1l0.1,0l-0.1-0.3
		l0-0.1l0.1,0.1l0.3,0.5l0.1,0.1l0.1,0l0,0l0-0.1l0-0.1l-0.2-0.3l0-0.1l0,0l0.1,0l0.1,0l0.1-0.1l-0.1-0.1l-0.1,0l-0.1-0.1l0.1-0.2
		l-0.1,0l0,0l0-0.1l0.1-0.1l0.1,0l0.1,0.1l0.1,0.1l0.1,0.1l0.2,0.1l0.1,0.2l0.1,0l0,0l0,0.1l0,0l0.1,0.1l0,0.1l0,0.1l0,0.1l0.2,0.1
		l0.1,0l0.1-0.1l0.1-0.1l0,0l0.1,0l0,0l0-0.2l-0.1-0.3l0-0.1l0.1-0.2l0.2-0.1l0.2-0.2l0.1-0.2l0,0l0.2-0.1l0.1-0.1l0.1,0l0.3,0.2
		l-0.1-0.2l0-0.1l0-0.1l0.1-0.1l0.1-0.1l0.1,0l0.1,0l0,0l0,0l0,0.1l0,0l0,0l0,0l0,0l0.3,0l0.1,0l0-0.2l0-0.2l0.1-0.2l0.1-0.1l0,0.1
		l0,0.1l0,0.1l0,0.1l0,0.1l0,0.1l0.1,0.1l0.1,0l0-0.2l0-0.6l0-0.1l0.1,0l0.1,0.1l0,0.1l0,0.1l0,0.1l0,0.1l0,0.1l0.1,0l0,0l0-0.1
		l0-0.1l0-0.1l0-0.1l0-0.2l0-0.1l0,0l0,0l0-0.1l0.1,0.1l0.1-0.1l0.2-0.5l0,0l0.1,0.1l0,0.1l0,0.1l0,0.1l0,0.1l0,0l0-0.1l0-0.1
		l0.2-0.2l0.1,0l0.1,0.1l0.1,0.2l0,0l0.1-0.1l0.1-0.2l-0.1,0l-0.1,0l0-0.1l0-0.1l0-0.1l0.2,0l0.2-0.2l0-0.1l0.1-0.3l0.1-0.3l0.1-0.1
		l0.1-0.1l0,0l0,0l0,0l0,0l0,0l0-0.1l0-0.2l0,0l0,0l0,0l0,0l0,0l0-0.1l0,0l0,0l0-0.1l0-0.1l0,0l0.2-0.4l0-0.2l-0.1-0.2l0.1-0.2
		l0.3-0.4l0.1-0.3l0,0l0,0l0.1,0.1l0,0l0.5-0.8l0,0l0,0l0.1,0l0.1,0L160,86l0.1,0l0,0l0,0l0,0l0,0l0-0.1l0-0.1l0-0.1l0-0.1l0.1,0.1
		l0.1,0.2l0.1,0.1l0.1-0.1l0.1-0.1l0.2-0.2l0.2-0.4l0-0.1l0.1-0.1l0-0.1l0.1-0.1h0.1l0,0l0-0.1l0-0.1l0-0.1l0,0H161l0,0.1l-0.1,0
		l-0.1,0l0,0l0,0.1l0,0l-0.1,0l-0.1-0.1l0-0.1l0.1-0.1l0-0.1l0-0.2l0,0l-0.1,0l-0.2,0l0,0l-0.1,0.1l-0.1,0l-0.1-0.2l-0.1,0l0,0
		l0-0.1l0,0l0,0l0,0l0,0.1l0.1,0.1l0.1-0.1l0.2-0.2l0,0l0.1,0.2l0.1,0l0.1,0l0.1-0.1l0.1-0.1l-0.1,0l-0.1,0l-0.1-0.1l0-0.1v-0.2l0,0
		l0,0l0,0l0,0.2l-0.1-0.1l-0.1-0.2l-0.1-0.1l-0.1,0l0,0l0,0.1l0,0.1l0,0l0,0l0,0.1l0,0l0,0l-0.1-0.1l0,0l0,0l0-0.1l0,0l0,0l0,0
		l-0.1,0l-0.1-0.1l-0.1-0.1l0-0.1l0.1,0l-0.1-0.2l-0.1-0.1l-0.1,0l-0.1,0l-0.1-0.1l0-0.2l0-0.2l0-0.1l0.1,0l0.1,0.1l0.1,0.1l0.1,0.1
		l0.1,0.1l0.2,0.2l0.1,0.1v-0.1l-0.1-0.1l0-0.1l0-0.1l0.1,0v-0.1l-0.2-0.2l-0.1-0.1l-0.1-0.2l0.1,0l0.2,0l0.1,0l0-0.1l-0.1-0.1
		l-0.3-0.1l-0.3,0.1l-0.2,0l-0.1,0l-0.1-0.1l0,0l0-0.1l-0.1-0.1l-0.1-0.1l0-0.1l0-0.1l0-0.1l0.1,0l0.1,0l0,0.1l0,0.1l0,0.1l0.1,0
		l0.1,0l0.1-0.1l0.1-0.1l0-0.2l0.1-0.1l0.1-0.1l0-0.3l0.1,0l0.1-0.1l0-0.1l0-0.1l0-0.1l0-0.1l0-0.1l0-0.1l0.1,0l0.5,0l0.1-0.1
		l-0.1-0.1l0-0.1l0.1-0.1l0.1-0.1l0,0l0,0l0,0v0l0,0l0.1,0.1l0,0l0,0l0.1-0.1l0,0l-0.1-0.1l0-0.1l0.1-0.1l0.4,0l0.1-0.1l-0.1-0.1
		l-0.1,0l0-0.1l0.1-0.3l0-0.1l0-0.1l-0.1-0.1l0.2,0l0.1-0.1l0-0.2l-0.3-0.6l-0.2-0.3l-0.3-0.5l-0.1-0.1l-0.5-0.1l0.1-0.1l0.2,0
		l0.1-0.1l0,0l0,0l0,0l0.1,0l0.1,0.2l0.1,0.2l0.1,0.1l0.1,0l0.1,0.1l0.1,0.1l0.1,0.1l0.1,0.1l0.1,0.3l0,0.1l0.1,0.1l0.2,0l0.2-0.1
		l0.1-0.2l0-0.1l-0.1-0.1l-0.1-0.1l-0.1-0.2l-0.1-0.1l-0.1,0l0,0.2l-0.1,0.1l-0.1,0l-0.1-0.1l-0.1-0.1l-0.1-0.1l-0.1-0.1l-0.1,0
		l0.2-0.1l0,0l0,0l0,0l0.1-0.2l0.2,0l0.3,0v-0.1l-0.1,0l-0.2-0.1v-0.1l0.2-0.1l0.1,0l0.1,0.2l0.1,0l0.2,0l-0.1-0.1l0.1,0l0.4,0.1
		l0.1,0l0.1-0.1l0.1-0.1l0,0.1l0.1,0l0.1,0l0.1-0.1l0-0.1l0-0.1l0-0.1l0-0.1l0.1,0.2l0.1,0.1l0.1,0l0.1-0.1l0-0.1l0-0.1l0-0.1
		l-0.1-0.1l-0.2-0.3l-0.1,0l0,0l0.1,0.1l-0.1,0.1l-0.1-0.1l-0.2-0.3l0.1,0l0.6,0.2L163,74l0,0l0,0.1l0,0l0,0l0-0.1l0,0l0,0l0,0
		l0.1,0l0.2,0l0.1-0.1l-0.1,0l-0.1,0l-0.1-0.2l-0.1-0.1l-0.1-0.1l-0.3-0.1l-0.3-0.3l-0.5-0.3l-0.3-0.3l-0.1-0.4l0.1,0.1l0.1,0.1
		l0.1,0.1l0.1,0.2l0,0.1l0.1,0.1l0.3,0.1l0.1,0.2l0.2,0.1l0.1,0.1l0.1,0.2l0.3,0.1l0.4,0.3l0.1,0l0-0.1l0.1-0.1l0,0l0.1,0.1l0.1,0
		l0.1,0l0.1,0.1l0.1,0.1l0.1,0.1l0.1-0.1l0-0.2l0-0.1l0,0l-0.2-0.1l-0.1-0.1l0-0.1l0-0.1l0.2-0.2l0-0.1l-0.2-0.1l0-0.1l0-0.1
		l-0.1-0.1l-0.1,0l0,0.1l0,0.1l0.1,0.1l0,0.1l-0.1,0.2l-0.2,0l-0.3-0.1l0.3,0l0.1-0.1l-0.1-0.2l0-0.1l0-0.1l0-0.1l0-0.1l0-0.1l0-0.1
		l0.1-0.1l0.1,0l0.1,0.1l0,0.2l0-0.1l0.1,0l0.1,0l0.1,0l0-0.3l-0.1-0.2l-0.1-0.1l-0.3-0.1l-0.1-0.1l-0.1-0.1l-0.1-0.2l0.1,0l0.2,0.2
		l0.2,0.1l0.1-0.3l-0.1-0.1l-0.1-0.2l0-0.1l0.1,0.1l0.1,0l0-0.1l-0.2-0.3l0.2-0.1l0-0.2l0.1,0l0.3,0.1l0,0.1l0,0l0.1,0.1L165,71
		l0.1,0.1l0,0.1l0,0.1l0,0.1l0,0.1l0,0l0.1-0.2l0.1,0l0.2,0.1l0.1,0.1l0,0.2l0.1,0l0.1-0.1l0-0.1l0-0.1l0-0.2l0-0.1l0-0.1l0-0.1
		l0-0.3l0-0.1l0-0.1l-0.1-0.1l-0.1-0.1l0.1,0l0.1,0l0.5,0.4l0.1,0.2l0.1,0.4l0.1,0.1l0.1,0l0.1,0l0.1,0l0.1,0.2l0,0l0.2,0.1l0.2,0
		l0.1,0.1l0.1,0.3l0,0.2l0.1,0l0.1-0.1l0-0.2l0.1-0.1l0,0l0.3-0.1l0.1-0.1l-0.1-0.1l-0.1-0.1l0-0.1l0-0.2l0.1-0.1l0.1,0l0.1,0
		l0.2,0.2l0.1,0.1l0.1,0l0.1-0.1l0.1-0.1l0.1-0.1l0.1,0l0,0.1l0,0.2l0,0.2l0.1,0.1l0.1,0l0,0l0,0l0-0.1l0-0.1l0-0.1l0-0.1l0,0l0-0.1
		l0,0l0,0l0,0l0-0.1l0,0l0.1,0l0.1,0l0,0l0,0.1l0.2,0.1l0.3,0l0,0l0,0.1l0,0l0.1,0l0.1-0.1l0.1-0.2l0.1,0l0.2,0l0.1,0.1l0,0.2l0,0.1
		l0.1,0l0.2,0l0-0.1l0,0l0,0.1l0,0.1l0,0.1l0,0l0.1,0l0,0l0,0l0,0l0-0.1l0-0.2L171.1,71.3L171.1,71.3z"/>
	<g>
		<g>
			<path class="st1" d="M199.4,38.7c-13.4-0.4-24.5,1.5-38.7,14.7"/>
			<g>
				<path class="st2" d="M160.8,53.4c0.1,0,0.3,0.1,0.4,0.2c-0.2,0-0.5,0-0.7,0c0.1-0.2,0.1-0.4,0.1-0.7
					C160.7,53,160.8,53.2,160.8,53.4z"/>
			</g>
		</g>
	</g>
	<g>
		<g>
			<path class="st3" d="M212.7,37h-0.9l-0.5-1.3h-3l-0.5,1.3H207l2.4-6h0.9L212.7,37z M211.1,35l-1.3-3.2l-1.3,3.2H211.1z"/>
			<path class="st3" d="M214.2,37h-0.7v-6h0.7V37z"/>
			<path class="st3" d="M216.2,37h-0.7v-6h0.7v2.3c0.4-0.5,0.9-0.8,1.5-0.8c0.6,0,1,0.2,1.4,0.6s0.5,1,0.5,1.7
				c0,0.7-0.2,1.2-0.5,1.7c-0.4,0.4-0.8,0.6-1.4,0.6c-0.6,0-1.1-0.3-1.5-0.8V37z M216.2,35.8c0.1,0.2,0.3,0.4,0.5,0.5
				s0.5,0.2,0.8,0.2c0.4,0,0.8-0.2,1-0.5s0.4-0.7,0.4-1.2s-0.1-0.9-0.4-1.2s-0.6-0.5-1-0.5c-0.3,0-0.5,0.1-0.8,0.2
				c-0.2,0.1-0.4,0.3-0.5,0.5V35.8z"/>
			<path class="st3" d="M224.1,37h-0.7v-0.5c-0.4,0.4-0.8,0.6-1.4,0.6c-0.4,0-0.8-0.1-1.1-0.4c-0.3-0.3-0.5-0.6-0.5-1.1
				c0-0.5,0.2-0.8,0.5-1.1c0.3-0.2,0.7-0.4,1.1-0.4c0.6,0,1.1,0.2,1.4,0.6v-0.8c0-0.3-0.1-0.5-0.3-0.7s-0.5-0.2-0.8-0.2
				c-0.5,0-1,0.2-1.3,0.6l-0.3-0.5c0.5-0.5,1-0.7,1.7-0.7c0.5,0,0.9,0.1,1.2,0.4c0.3,0.2,0.5,0.6,0.5,1.1V37z M222.2,36.6
				c0.5,0,0.9-0.2,1.2-0.5v-0.8c-0.3-0.4-0.7-0.5-1.2-0.5c-0.3,0-0.6,0.1-0.8,0.3c-0.2,0.2-0.3,0.4-0.3,0.7c0,0.3,0.1,0.5,0.3,0.7
				C221.6,36.5,221.9,36.6,222.2,36.6z"/>
			<path class="st3" d="M229,37h-0.7v-2.8c0-0.4-0.1-0.6-0.3-0.8s-0.4-0.2-0.7-0.2c-0.3,0-0.5,0.1-0.7,0.2c-0.2,0.1-0.4,0.3-0.6,0.5
				V37h-0.7v-4.3h0.7v0.6c0.2-0.2,0.4-0.4,0.7-0.5c0.3-0.1,0.6-0.2,0.9-0.2c0.9,0,1.4,0.5,1.4,1.4V37z"/>
			<path class="st3" d="M230.7,32c-0.1,0-0.2,0-0.3-0.1c-0.1-0.1-0.1-0.2-0.1-0.3s0-0.2,0.1-0.3c0.1-0.1,0.2-0.1,0.3-0.1
				c0.1,0,0.2,0,0.3,0.1c0.1,0.1,0.1,0.2,0.1,0.3s0,0.2-0.1,0.3C230.9,32,230.8,32,230.7,32z M231.1,37h-0.7v-4.3h0.7V37z"/>
			<path class="st3" d="M235.8,37h-0.7v-0.5c-0.4,0.4-0.8,0.6-1.4,0.6c-0.4,0-0.8-0.1-1.1-0.4c-0.3-0.3-0.5-0.6-0.5-1.1
				c0-0.5,0.2-0.8,0.5-1.1c0.3-0.2,0.7-0.4,1.1-0.4c0.6,0,1.1,0.2,1.4,0.6v-0.8c0-0.3-0.1-0.5-0.3-0.7c-0.2-0.2-0.5-0.2-0.8-0.2
				c-0.5,0-1,0.2-1.3,0.6l-0.3-0.5c0.5-0.5,1-0.7,1.7-0.7c0.5,0,0.9,0.1,1.2,0.4c0.3,0.2,0.5,0.6,0.5,1.1V37z M233.9,36.6
				c0.5,0,0.9-0.2,1.2-0.5v-0.8c-0.3-0.4-0.7-0.5-1.2-0.5c-0.3,0-0.6,0.1-0.8,0.3c-0.2,0.2-0.3,0.4-0.3,0.7c0,0.3,0.1,0.5,0.3,0.7
				C233.4,36.5,233.6,36.6,233.9,36.6z"/>
		</g>
	</g>
	<g>
		<path class="st3" d="M211.5,64.4h-3.9v-6h3.9v0.7h-3.2V61h3.1v0.7h-3.1v2.1h3.2V64.4z"/>
		<path class="st3" d="M213.4,64.4h-0.7v-4.3h0.7v0.7c0.4-0.5,0.9-0.8,1.4-0.8v0.7c-0.1,0-0.2,0-0.3,0c-0.2,0-0.4,0.1-0.7,0.2
			c-0.2,0.1-0.4,0.3-0.5,0.5V64.4z"/>
		<path class="st3" d="M216,59.4c-0.1,0-0.2,0-0.3-0.1c-0.1-0.1-0.1-0.2-0.1-0.3s0-0.2,0.1-0.3c0.1-0.1,0.2-0.1,0.3-0.1
			c0.1,0,0.2,0,0.3,0.1c0.1,0.1,0.1,0.2,0.1,0.3s0,0.2-0.1,0.3C216.2,59.4,216.1,59.4,216,59.4z M216.3,64.4h-0.7v-4.3h0.7V64.4z"/>
		<path class="st3" d="M218.8,64.5c-0.3,0-0.6-0.1-0.7-0.3c-0.2-0.2-0.2-0.4-0.2-0.8v-2.8h-0.7v-0.6h0.7v-1.2h0.7v1.2h0.9v0.6h-0.9
			v2.7c0,0.2,0,0.3,0.1,0.4c0.1,0.1,0.2,0.2,0.3,0.2c0.2,0,0.4-0.1,0.5-0.2l0.2,0.5C219.4,64.4,219.1,64.5,218.8,64.5z"/>
		<path class="st3" d="M221,64.4h-0.7v-4.3h0.7v0.7c0.4-0.5,0.9-0.8,1.4-0.8v0.7c-0.1,0-0.2,0-0.3,0c-0.2,0-0.4,0.1-0.7,0.2
			c-0.2,0.1-0.4,0.3-0.5,0.5V64.4z"/>
		<path class="st3" d="M225.2,64.5c-0.6,0-1.2-0.2-1.6-0.6c-0.4-0.4-0.6-1-0.6-1.7c0-0.6,0.2-1.2,0.6-1.6s0.9-0.7,1.5-0.7
			c0.6,0,1.2,0.2,1.5,0.7s0.6,1,0.6,1.7v0.2h-3.5c0,0.4,0.2,0.8,0.5,1.1c0.3,0.3,0.6,0.4,1.1,0.4c0.5,0,1-0.2,1.3-0.5l0.3,0.4
			C226.5,64.3,226,64.5,225.2,64.5z M226.6,62c0-0.4-0.1-0.7-0.4-1c-0.2-0.3-0.6-0.4-1.1-0.4c-0.4,0-0.8,0.1-1,0.4
			c-0.2,0.3-0.4,0.6-0.4,1H226.6z"/>
		<path class="st3" d="M231.7,64.4h-0.7v-0.5c-0.4,0.4-0.8,0.6-1.4,0.6c-0.4,0-0.8-0.1-1.1-0.4c-0.3-0.3-0.5-0.6-0.5-1.1
			c0-0.5,0.2-0.8,0.5-1.1c0.3-0.2,0.7-0.4,1.1-0.4c0.6,0,1.1,0.2,1.4,0.6v-0.8c0-0.3-0.1-0.5-0.3-0.7s-0.5-0.2-0.8-0.2
			c-0.5,0-1,0.2-1.3,0.6l-0.3-0.5c0.5-0.5,1-0.7,1.7-0.7c0.5,0,0.9,0.1,1.2,0.4c0.3,0.2,0.5,0.6,0.5,1.1V64.4z M229.9,64
			c0.5,0,0.9-0.2,1.2-0.5v-0.8c-0.3-0.4-0.7-0.5-1.2-0.5c-0.3,0-0.6,0.1-0.8,0.3c-0.2,0.2-0.3,0.4-0.3,0.7c0,0.3,0.1,0.5,0.3,0.7
			C229.3,63.9,229.6,64,229.9,64z"/>
	</g>
	<g>
		<path class="st3" d="M209.5,94.2c-1,0-1.7-0.3-2.3-1l0.4-0.6c0.5,0.6,1.1,0.9,1.9,0.9c0.5,0,0.8-0.1,1.1-0.3
			c0.2-0.2,0.3-0.4,0.3-0.7c0-0.2-0.1-0.4-0.2-0.5s-0.3-0.3-0.5-0.3s-0.4-0.2-0.7-0.2c-0.3-0.1-0.5-0.1-0.8-0.2s-0.5-0.2-0.7-0.3
			c-0.2-0.1-0.4-0.3-0.5-0.5c-0.1-0.2-0.2-0.5-0.2-0.7c0-0.5,0.2-0.9,0.6-1.2c0.4-0.3,0.9-0.5,1.5-0.5c0.9,0,1.6,0.3,2.1,0.8
			l-0.5,0.5c-0.4-0.5-1-0.7-1.7-0.7c-0.4,0-0.7,0.1-0.9,0.3c-0.2,0.2-0.3,0.4-0.3,0.7c0,0.2,0.1,0.4,0.3,0.5
			c0.2,0.1,0.4,0.2,0.7,0.3c0.3,0.1,0.5,0.1,0.9,0.2s0.6,0.2,0.9,0.3c0.3,0.1,0.5,0.3,0.7,0.5c0.2,0.2,0.3,0.5,0.3,0.9
			c0,0.5-0.2,0.9-0.5,1.3C210.8,94.1,210.3,94.2,209.5,94.2z"/>
		<path class="st3" d="M214.8,94.2c-0.6,0-1.2-0.2-1.6-0.6c-0.4-0.4-0.6-1-0.6-1.7c0-0.6,0.2-1.2,0.6-1.6s0.9-0.7,1.5-0.7
			c0.6,0,1.2,0.2,1.5,0.7s0.6,1,0.6,1.7v0.2h-3.5c0,0.4,0.2,0.8,0.5,1.1c0.3,0.3,0.6,0.4,1.1,0.4c0.5,0,1-0.2,1.3-0.5l0.3,0.4
			C216.1,94,215.5,94.2,214.8,94.2z M216.1,91.7c0-0.4-0.1-0.7-0.4-1c-0.2-0.3-0.6-0.4-1.1-0.4c-0.4,0-0.8,0.1-1,0.4
			c-0.2,0.3-0.4,0.6-0.4,1H216.1z"/>
		<path class="st3" d="M218.6,94.1h-0.7v-4.3h0.7v0.7c0.4-0.5,0.9-0.8,1.4-0.8v0.7c-0.1,0-0.2,0-0.3,0c-0.2,0-0.4,0.1-0.7,0.2
			s-0.4,0.3-0.5,0.5V94.1z"/>
		<path class="st3" d="M221.5,94.1h-0.7v-6h0.7v2.3c0.4-0.5,0.9-0.8,1.5-0.8c0.6,0,1,0.2,1.4,0.6c0.4,0.4,0.5,1,0.5,1.7
			c0,0.7-0.2,1.2-0.5,1.7c-0.4,0.4-0.8,0.6-1.4,0.6c-0.6,0-1.1-0.3-1.5-0.8V94.1z M221.5,93c0.1,0.2,0.3,0.4,0.5,0.5
			c0.2,0.1,0.5,0.2,0.8,0.2c0.4,0,0.8-0.2,1-0.5s0.4-0.7,0.4-1.2s-0.1-0.9-0.4-1.2s-0.6-0.5-1-0.5c-0.3,0-0.5,0.1-0.8,0.2
			c-0.2,0.1-0.4,0.3-0.5,0.5V93z"/>
		<path class="st3" d="M226.4,89.2c-0.1,0-0.2,0-0.3-0.1c-0.1-0.1-0.1-0.2-0.1-0.3s0-0.2,0.1-0.3c0.1-0.1,0.2-0.1,0.3-0.1
			c0.1,0,0.2,0,0.3,0.1c0.1,0.1,0.1,0.2,0.1,0.3s0,0.2-0.1,0.3C226.6,89.1,226.5,89.2,226.4,89.2z M226.7,94.1H226v-4.3h0.7V94.1z"
			/>
		<path class="st3" d="M231.5,94.1h-0.7v-0.5c-0.4,0.4-0.8,0.6-1.4,0.6c-0.4,0-0.8-0.1-1.1-0.4c-0.3-0.3-0.5-0.6-0.5-1.1
			c0-0.5,0.2-0.8,0.5-1.1c0.3-0.2,0.7-0.4,1.1-0.4c0.6,0,1.1,0.2,1.4,0.6v-0.8c0-0.3-0.1-0.5-0.3-0.7s-0.5-0.2-0.8-0.2
			c-0.5,0-1,0.2-1.3,0.6l-0.3-0.5c0.5-0.5,1-0.7,1.7-0.7c0.5,0,0.9,0.1,1.2,0.4c0.3,0.2,0.5,0.6,0.5,1.1V94.1z M229.6,93.8
			c0.5,0,0.9-0.2,1.2-0.5v-0.8c-0.3-0.4-0.7-0.5-1.2-0.5c-0.3,0-0.6,0.1-0.8,0.3c-0.2,0.2-0.3,0.4-0.3,0.7c0,0.3,0.1,0.5,0.3,0.7
			C229,93.7,229.3,93.8,229.6,93.8z"/>
	</g>
	<g>
		<path class="st3" d="M212.1,122h-0.9l-2.3-2.7l-0.6,0.7v2h-0.7v-6h0.7v3.1l2.7-3.1h0.9l-2.5,2.9L212.1,122z"/>
		<path class="st3" d="M216.1,121.5c-0.4,0.4-0.9,0.7-1.6,0.7c-0.6,0-1.2-0.2-1.6-0.7s-0.6-1-0.6-1.6c0-0.6,0.2-1.2,0.6-1.6
			c0.4-0.4,0.9-0.7,1.6-0.7c0.6,0,1.2,0.2,1.6,0.7c0.4,0.4,0.6,1,0.6,1.6C216.7,120.5,216.5,121.1,216.1,121.5z M213.5,121.1
			c0.3,0.3,0.6,0.5,1.1,0.5s0.8-0.2,1.1-0.5s0.4-0.7,0.4-1.2c0-0.5-0.1-0.9-0.4-1.2c-0.3-0.3-0.6-0.5-1.1-0.5s-0.8,0.2-1.1,0.5
			c-0.3,0.3-0.4,0.7-0.4,1.2C213.1,120.3,213.2,120.7,213.5,121.1z"/>
		<path class="st3" d="M219.2,122.1c-0.7,0-1.3-0.2-1.8-0.7l0.4-0.5c0.2,0.2,0.4,0.3,0.6,0.4c0.3,0.1,0.5,0.2,0.8,0.2
			c0.3,0,0.6-0.1,0.8-0.2c0.2-0.1,0.3-0.3,0.3-0.5c0-0.2-0.1-0.3-0.3-0.5c-0.2-0.1-0.4-0.2-0.7-0.3c-0.3-0.1-0.5-0.1-0.8-0.2
			c-0.3-0.1-0.5-0.2-0.7-0.4s-0.3-0.4-0.3-0.7c0-0.4,0.1-0.7,0.4-0.9c0.3-0.2,0.7-0.4,1.2-0.4c0.7,0,1.2,0.2,1.6,0.6l-0.3,0.5
			c-0.3-0.4-0.7-0.5-1.3-0.5c-0.3,0-0.5,0.1-0.7,0.2s-0.3,0.3-0.3,0.5c0,0.2,0.1,0.3,0.3,0.4s0.4,0.2,0.7,0.2
			c0.3,0.1,0.5,0.1,0.8,0.2s0.5,0.2,0.7,0.4c0.2,0.2,0.3,0.4,0.3,0.8c0,0.4-0.2,0.7-0.5,0.9C220.1,122,219.7,122.1,219.2,122.1z"/>
		<path class="st3" d="M225.5,121.5c-0.4,0.4-0.9,0.7-1.6,0.7s-1.2-0.2-1.6-0.7c-0.4-0.4-0.6-1-0.6-1.6c0-0.6,0.2-1.2,0.6-1.6
			c0.4-0.4,0.9-0.7,1.6-0.7s1.2,0.2,1.6,0.7c0.4,0.4,0.6,1,0.6,1.6C226,120.5,225.8,121.1,225.5,121.5z M222.8,121.1
			c0.3,0.3,0.6,0.5,1.1,0.5c0.4,0,0.8-0.2,1.1-0.5s0.4-0.7,0.4-1.2c0-0.5-0.1-0.9-0.4-1.2c-0.3-0.3-0.6-0.5-1.1-0.5
			c-0.4,0-0.8,0.2-1.1,0.5s-0.4,0.7-0.4,1.2C222.4,120.3,222.6,120.7,222.8,121.1z"/>
		<path class="st3" d="M229,122h-0.7l-1.8-4.3h0.7l1.4,3.6l1.4-3.6h0.7L229,122z"/>
		<path class="st3" d="M235,121.5c-0.4,0.4-0.9,0.7-1.6,0.7c-0.6,0-1.2-0.2-1.6-0.7s-0.6-1-0.6-1.6c0-0.6,0.2-1.2,0.6-1.6
			c0.4-0.4,0.9-0.7,1.6-0.7c0.6,0,1.2,0.2,1.6,0.7c0.4,0.4,0.6,1,0.6,1.6C235.6,120.5,235.4,121.1,235,121.5z M232.4,121.1
			c0.3,0.3,0.6,0.5,1.1,0.5c0.4,0,0.8-0.2,1.1-0.5s0.4-0.7,0.4-1.2c0-0.5-0.1-0.9-0.4-1.2c-0.3-0.3-0.6-0.5-1.1-0.5
			c-0.4,0-0.8,0.2-1.1,0.5c-0.3,0.3-0.4,0.7-0.4,1.2C232,120.3,232.1,120.7,232.4,121.1z"/>
	</g>
	<g>
		<path class="st3" d="M41.5,35.2c-1,0-1.7-0.3-2.3-1l0.4-0.6c0.5,0.6,1.1,0.9,1.9,0.9c0.5,0,0.8-0.1,1.1-0.3s0.3-0.4,0.3-0.7
			c0-0.2-0.1-0.4-0.2-0.5c-0.1-0.1-0.3-0.3-0.5-0.3s-0.4-0.2-0.7-0.2c-0.3-0.1-0.5-0.1-0.8-0.2s-0.5-0.2-0.7-0.3
			c-0.2-0.1-0.4-0.3-0.5-0.5c-0.1-0.2-0.2-0.5-0.2-0.7c0-0.5,0.2-0.9,0.6-1.2s0.9-0.5,1.5-0.5c0.9,0,1.6,0.3,2.1,0.8l-0.4,0.5
			c-0.4-0.5-1-0.7-1.7-0.7c-0.4,0-0.7,0.1-0.9,0.3c-0.2,0.2-0.3,0.4-0.3,0.7c0,0.2,0.1,0.4,0.3,0.5c0.2,0.1,0.4,0.2,0.7,0.3
			s0.5,0.1,0.9,0.2c0.3,0.1,0.6,0.2,0.9,0.3c0.3,0.1,0.5,0.3,0.7,0.5s0.3,0.5,0.3,0.9c0,0.5-0.2,0.9-0.5,1.3
			C42.9,35,42.3,35.2,41.5,35.2z"/>
		<path class="st3" d="M48.3,34.5c-0.4,0.4-0.9,0.7-1.6,0.7s-1.2-0.2-1.6-0.7c-0.4-0.4-0.6-1-0.6-1.6c0-0.6,0.2-1.2,0.6-1.6
			c0.4-0.4,0.9-0.7,1.6-0.7s1.2,0.2,1.6,0.7c0.4,0.4,0.6,1,0.6,1.6C48.9,33.6,48.7,34.1,48.3,34.5z M45.7,34.1
			c0.3,0.3,0.6,0.5,1.1,0.5c0.4,0,0.8-0.2,1.1-0.5s0.4-0.7,0.4-1.2c0-0.5-0.1-0.9-0.4-1.2c-0.3-0.3-0.6-0.5-1.1-0.5
			c-0.4,0-0.8,0.2-1.1,0.5c-0.3,0.3-0.4,0.7-0.4,1.2C45.3,33.4,45.4,33.8,45.7,34.1z"/>
		<path class="st3" d="M55.9,35.1h-0.7v-3c0-0.6-0.3-0.9-0.8-0.9c-0.2,0-0.4,0.1-0.6,0.2c-0.2,0.1-0.4,0.3-0.5,0.5v3.2h-0.7v-3
			c0-0.6-0.3-0.9-0.8-0.9c-0.2,0-0.4,0.1-0.6,0.2c-0.2,0.1-0.4,0.3-0.5,0.5v3.2H50v-4.3h0.7v0.6c0.1-0.2,0.3-0.3,0.6-0.5
			s0.5-0.2,0.8-0.2c0.3,0,0.6,0.1,0.8,0.2c0.2,0.1,0.3,0.3,0.4,0.6c0.1-0.2,0.3-0.4,0.6-0.6c0.3-0.2,0.6-0.2,0.9-0.2
			c0.8,0,1.2,0.4,1.2,1.3V35.1z"/>
		<path class="st3" d="M60.7,35.1H60v-0.5c-0.4,0.4-0.8,0.6-1.4,0.6c-0.4,0-0.8-0.1-1.1-0.4c-0.3-0.3-0.5-0.6-0.5-1.1
			c0-0.5,0.2-0.8,0.5-1.1c0.3-0.2,0.7-0.4,1.1-0.4c0.6,0,1.1,0.2,1.4,0.6v-0.8c0-0.3-0.1-0.5-0.3-0.7c-0.2-0.2-0.5-0.2-0.8-0.2
			c-0.5,0-1,0.2-1.3,0.6l-0.3-0.5c0.5-0.5,1-0.7,1.7-0.7c0.5,0,0.9,0.1,1.2,0.4c0.3,0.2,0.5,0.6,0.5,1.1V35.1z M58.8,34.7
			c0.5,0,0.9-0.2,1.2-0.5v-0.8c-0.3-0.4-0.7-0.5-1.2-0.5c-0.3,0-0.6,0.1-0.8,0.3c-0.2,0.2-0.3,0.4-0.3,0.7c0,0.3,0.1,0.5,0.3,0.7
			C58.2,34.6,58.5,34.7,58.8,34.7z"/>
		<path class="st3" d="M62.7,35.1H62v-6h0.7V35.1z"/>
		<path class="st3" d="M64.4,30.1c-0.1,0-0.2,0-0.3-0.1c-0.1-0.1-0.1-0.2-0.1-0.3s0-0.2,0.1-0.3c0.1-0.1,0.2-0.1,0.3-0.1
			c0.1,0,0.2,0,0.3,0.1c0.1,0.1,0.1,0.2,0.1,0.3s0,0.2-0.1,0.3C64.6,30.1,64.5,30.1,64.4,30.1z M64.7,35.1H64v-4.3h0.7V35.1z"/>
		<path class="st3" d="M69.5,35.1h-0.7v-0.5c-0.4,0.4-0.8,0.6-1.4,0.6c-0.4,0-0.8-0.1-1.1-0.4c-0.3-0.3-0.5-0.6-0.5-1.1
			c0-0.5,0.2-0.8,0.5-1.1c0.3-0.2,0.7-0.4,1.1-0.4c0.6,0,1.1,0.2,1.4,0.6v-0.8c0-0.3-0.1-0.5-0.3-0.7c-0.2-0.2-0.5-0.2-0.8-0.2
			c-0.5,0-1,0.2-1.3,0.6L66,31.4c0.5-0.5,1-0.7,1.7-0.7c0.5,0,0.9,0.1,1.2,0.4c0.3,0.2,0.5,0.6,0.5,1.1V35.1z M67.6,34.7
			c0.5,0,0.9-0.2,1.2-0.5v-0.8c-0.3-0.4-0.7-0.5-1.2-0.5c-0.3,0-0.6,0.1-0.8,0.3c-0.2,0.2-0.3,0.4-0.3,0.7c0,0.3,0.1,0.5,0.3,0.7
			C67,34.6,67.3,34.7,67.6,34.7z"/>
	</g>
	<g>
		<path class="st3" d="M142.9,16.9h-0.7v-6h0.7V16.9z"/>
		<path class="st3" d="M144.9,16.9h-0.7v-4.3h0.7v0.7c0.4-0.5,0.9-0.8,1.4-0.8v0.7c-0.1,0-0.2,0-0.3,0c-0.2,0-0.4,0.1-0.7,0.2
			s-0.4,0.3-0.5,0.5V16.9z"/>
		<path class="st3" d="M150.6,16.9h-0.7v-0.5c-0.4,0.4-0.8,0.6-1.4,0.6c-0.4,0-0.8-0.1-1.1-0.4c-0.3-0.3-0.5-0.6-0.5-1.1
			c0-0.5,0.2-0.8,0.5-1.1c0.3-0.2,0.7-0.4,1.1-0.4c0.6,0,1.1,0.2,1.4,0.6V14c0-0.3-0.1-0.5-0.3-0.7c-0.2-0.2-0.5-0.2-0.8-0.2
			c-0.5,0-1,0.2-1.3,0.6l-0.3-0.5c0.5-0.5,1-0.7,1.7-0.7c0.5,0,0.9,0.1,1.2,0.4c0.3,0.2,0.5,0.6,0.5,1.1V16.9z M148.8,16.6
			c0.5,0,0.9-0.2,1.2-0.5v-0.8c-0.3-0.4-0.7-0.5-1.2-0.5c-0.3,0-0.6,0.1-0.8,0.3c-0.2,0.2-0.3,0.4-0.3,0.7c0,0.3,0.1,0.5,0.3,0.7
			C148.2,16.5,148.4,16.6,148.8,16.6z"/>
		<path class="st3" d="M153.6,17.1c-0.6,0-1-0.2-1.4-0.6c-0.4-0.4-0.5-1-0.5-1.7c0-0.7,0.2-1.2,0.5-1.7s0.8-0.6,1.4-0.6
			c0.3,0,0.6,0.1,0.8,0.2c0.3,0.1,0.5,0.3,0.6,0.5v-0.6h0.7v6h-0.7v-2.3C154.7,16.8,154.2,17.1,153.6,17.1z M153.8,16.5
			c0.3,0,0.5-0.1,0.8-0.2c0.2-0.1,0.4-0.3,0.5-0.5v-2c-0.1-0.2-0.3-0.4-0.5-0.5c-0.2-0.1-0.5-0.2-0.8-0.2c-0.4,0-0.8,0.2-1,0.5
			c-0.2,0.3-0.4,0.7-0.4,1.2c0,0.5,0.1,0.9,0.4,1.2C153,16.3,153.4,16.5,153.8,16.5z"/>
	</g>
	<g>
		<path class="st3" d="M53.4,150.2c-1,0-1.7-0.3-2.3-1l0.4-0.6c0.5,0.6,1.1,0.9,1.9,0.9c0.5,0,0.8-0.1,1.1-0.3
			c0.2-0.2,0.3-0.4,0.3-0.7c0-0.2-0.1-0.4-0.2-0.5c-0.1-0.1-0.3-0.3-0.5-0.3s-0.4-0.2-0.7-0.2c-0.3-0.1-0.5-0.1-0.8-0.2
			c-0.3-0.1-0.5-0.2-0.7-0.3c-0.2-0.1-0.4-0.3-0.5-0.5c-0.1-0.2-0.2-0.5-0.2-0.7c0-0.5,0.2-0.9,0.6-1.2c0.4-0.3,0.9-0.5,1.5-0.5
			c0.9,0,1.6,0.3,2.1,0.8l-0.5,0.5c-0.4-0.5-1-0.7-1.7-0.7c-0.4,0-0.7,0.1-0.9,0.3c-0.2,0.2-0.3,0.4-0.3,0.7c0,0.2,0.1,0.4,0.3,0.5
			c0.2,0.1,0.4,0.2,0.7,0.3c0.3,0.1,0.5,0.1,0.9,0.2s0.6,0.2,0.9,0.3c0.3,0.1,0.5,0.3,0.7,0.5c0.2,0.2,0.3,0.5,0.3,0.9
			c0,0.5-0.2,0.9-0.5,1.3C54.7,150,54.2,150.2,53.4,150.2z"/>
		<path class="st3" d="M56.4,151.8l0.1-0.6c0.1,0,0.2,0.1,0.4,0.1c0.2,0,0.3,0,0.4-0.1c0.1-0.1,0.2-0.2,0.3-0.4l0.3-0.7l-1.8-4.4
			h0.7l1.4,3.6l1.4-3.6h0.7l-2.2,5.2c-0.2,0.6-0.7,0.9-1.3,0.9C56.7,151.8,56.6,151.8,56.4,151.8z"/>
		<path class="st3" d="M61.7,150.1h-0.7v-4.3h0.7v0.7c0.4-0.5,0.9-0.8,1.4-0.8v0.7c-0.1,0-0.2,0-0.3,0c-0.2,0-0.4,0.1-0.7,0.2
			c-0.2,0.1-0.4,0.3-0.5,0.5V150.1z"/>
		<path class="st3" d="M64.4,145.1c-0.1,0-0.2,0-0.3-0.1c-0.1-0.1-0.1-0.2-0.1-0.3s0-0.2,0.1-0.3c0.1-0.1,0.2-0.1,0.3-0.1
			c0.1,0,0.2,0,0.3,0.1c0.1,0.1,0.1,0.2,0.1,0.3s0,0.2-0.1,0.3C64.6,145.1,64.5,145.1,64.4,145.1z M64.7,150.1H64v-4.3h0.7V150.1z"
			/>
		<path class="st3" d="M69.5,150.1h-0.7v-0.5c-0.4,0.4-0.8,0.6-1.4,0.6c-0.4,0-0.8-0.1-1.1-0.4c-0.3-0.3-0.5-0.6-0.5-1.1
			c0-0.5,0.2-0.8,0.5-1.1c0.3-0.2,0.7-0.4,1.1-0.4c0.6,0,1.1,0.2,1.4,0.6v-0.8c0-0.3-0.1-0.5-0.3-0.7s-0.5-0.2-0.8-0.2
			c-0.5,0-1,0.2-1.3,0.6l-0.3-0.5c0.5-0.5,1-0.7,1.7-0.7c0.5,0,0.9,0.1,1.2,0.4c0.3,0.2,0.5,0.6,0.5,1.1V150.1z M67.6,149.7
			c0.5,0,0.9-0.2,1.2-0.5v-0.8c-0.3-0.4-0.7-0.5-1.2-0.5c-0.3,0-0.6,0.1-0.8,0.3c-0.2,0.2-0.3,0.4-0.3,0.7c0,0.3,0.1,0.5,0.3,0.7
			C67,149.6,67.3,149.7,67.6,149.7z"/>
	</g>
	<g>
		<path class="st3" d="M29.2,64h-0.9l-0.5-1.3h-3L24.3,64h-0.9l2.4-6h0.9L29.2,64z M27.6,62l-1.3-3.2L25,62H27.6z"/>
		<path class="st3" d="M30.7,64h-0.7v-3.8h-0.7v-0.6h0.7v-0.3c0-0.4,0.1-0.8,0.3-1c0.2-0.2,0.5-0.4,0.9-0.4c0.4,0,0.7,0.1,0.9,0.3
			L32,58.6c-0.2-0.1-0.3-0.2-0.5-0.2c-0.2,0-0.4,0.1-0.5,0.2s-0.2,0.4-0.2,0.6v0.3h0.9v0.6h-0.9V64z"/>
		<path class="st3" d="M34.2,65.7c-0.4,0-0.7,0-1-0.1c-0.3-0.1-0.5-0.3-0.8-0.5l0.3-0.5c0.3,0.4,0.8,0.6,1.4,0.6
			c0.4,0,0.7-0.1,1-0.3c0.3-0.2,0.4-0.5,0.4-1v-0.6c-0.2,0.2-0.4,0.4-0.6,0.6S34.4,64,34.1,64c-0.6,0-1-0.2-1.4-0.6
			c-0.4-0.4-0.5-1-0.5-1.6s0.2-1.2,0.5-1.6c0.4-0.4,0.8-0.6,1.4-0.6c0.6,0,1.1,0.3,1.5,0.8v-0.7h0.7v4.2c0,0.7-0.2,1.1-0.6,1.4
			C35.2,65.6,34.8,65.7,34.2,65.7z M34.3,63.4c0.3,0,0.5-0.1,0.8-0.2c0.2-0.1,0.4-0.3,0.5-0.5v-1.9c-0.1-0.2-0.3-0.4-0.5-0.5
			c-0.2-0.1-0.5-0.2-0.8-0.2c-0.4,0-0.8,0.2-1,0.5c-0.2,0.3-0.4,0.7-0.4,1.2c0,0.5,0.1,0.9,0.4,1.2S33.8,63.4,34.3,63.4z"/>
		<path class="st3" d="M41.2,64h-0.7v-2.9c0-0.4-0.1-0.6-0.3-0.8c-0.2-0.1-0.4-0.2-0.7-0.2c-0.2,0-0.5,0.1-0.7,0.2
			c-0.2,0.1-0.4,0.3-0.6,0.5V64h-0.7v-6h0.7v2.3c0.2-0.2,0.4-0.4,0.7-0.5c0.3-0.1,0.6-0.2,0.9-0.2c0.9,0,1.4,0.5,1.4,1.4V64z"/>
		<path class="st3" d="M45.9,64h-0.7v-0.5c-0.4,0.4-0.8,0.6-1.4,0.6c-0.4,0-0.8-0.1-1.1-0.4c-0.3-0.3-0.5-0.6-0.5-1.1
			c0-0.5,0.2-0.8,0.5-1.1c0.3-0.2,0.7-0.4,1.1-0.4c0.6,0,1.1,0.2,1.4,0.6V61c0-0.3-0.1-0.5-0.3-0.7s-0.5-0.2-0.8-0.2
			c-0.5,0-1,0.2-1.3,0.6l-0.3-0.5c0.5-0.5,1-0.7,1.7-0.7c0.5,0,0.9,0.1,1.2,0.4c0.3,0.2,0.5,0.6,0.5,1.1V64z M44.1,63.6
			c0.5,0,0.9-0.2,1.2-0.5v-0.8c-0.3-0.4-0.7-0.5-1.2-0.5c-0.3,0-0.6,0.1-0.8,0.3c-0.2,0.2-0.3,0.4-0.3,0.7c0,0.3,0.1,0.5,0.3,0.7
			C43.5,63.5,43.8,63.6,44.1,63.6z"/>
		<path class="st3" d="M50.9,64h-0.7v-2.8c0-0.4-0.1-0.6-0.3-0.8s-0.4-0.2-0.7-0.2c-0.3,0-0.5,0.1-0.7,0.2c-0.2,0.1-0.4,0.3-0.6,0.5
			V64h-0.7v-4.3H48v0.6c0.2-0.2,0.4-0.4,0.7-0.5c0.3-0.1,0.6-0.2,0.9-0.2c0.9,0,1.4,0.5,1.4,1.4V64z"/>
		<path class="st3" d="M52.6,59c-0.1,0-0.2,0-0.3-0.1c-0.1-0.1-0.1-0.2-0.1-0.3s0-0.2,0.1-0.3c0.1-0.1,0.2-0.1,0.3-0.1
			c0.1,0,0.2,0,0.3,0.1c0.1,0.1,0.1,0.2,0.1,0.3s0,0.2-0.1,0.3C52.8,58.9,52.7,59,52.6,59z M52.9,64h-0.7v-4.3h0.7V64z"/>
		<path class="st3" d="M55.6,64.1c-0.7,0-1.3-0.2-1.8-0.7l0.4-0.5c0.1,0.2,0.4,0.3,0.6,0.4c0.3,0.1,0.5,0.2,0.8,0.2
			c0.3,0,0.6-0.1,0.8-0.2c0.2-0.1,0.3-0.3,0.3-0.5c0-0.2-0.1-0.3-0.3-0.5c-0.2-0.1-0.4-0.2-0.7-0.3c-0.3-0.1-0.5-0.1-0.8-0.2
			c-0.3-0.1-0.5-0.2-0.7-0.4S54,61,54,60.7c0-0.4,0.1-0.7,0.4-0.9c0.3-0.2,0.7-0.4,1.2-0.4c0.7,0,1.2,0.2,1.6,0.6l-0.3,0.5
			c-0.3-0.4-0.7-0.5-1.3-0.5c-0.3,0-0.5,0.1-0.7,0.2c-0.2,0.1-0.3,0.3-0.3,0.5c0,0.2,0.1,0.3,0.3,0.4s0.4,0.2,0.7,0.2
			c0.3,0.1,0.5,0.1,0.8,0.2c0.3,0.1,0.5,0.2,0.7,0.4c0.2,0.2,0.3,0.4,0.3,0.8c0,0.4-0.2,0.7-0.5,0.9C56.6,63.9,56.2,64.1,55.6,64.1z
			"/>
		<path class="st3" d="M59.6,64.1c-0.3,0-0.6-0.1-0.7-0.3c-0.2-0.2-0.2-0.4-0.2-0.8v-2.8h-0.7v-0.6h0.7v-1.2h0.7v1.2h0.9v0.6h-0.9
			v2.7c0,0.2,0,0.3,0.1,0.4s0.2,0.2,0.3,0.2c0.2,0,0.4-0.1,0.5-0.2l0.2,0.5C60.2,64,59.9,64.1,59.6,64.1z"/>
		<path class="st3" d="M64.5,64h-0.7v-0.5c-0.4,0.4-0.8,0.6-1.4,0.6c-0.4,0-0.8-0.1-1.1-0.4c-0.3-0.3-0.5-0.6-0.5-1.1
			c0-0.5,0.2-0.8,0.5-1.1c0.3-0.2,0.7-0.4,1.1-0.4c0.6,0,1.1,0.2,1.4,0.6V61c0-0.3-0.1-0.5-0.3-0.7c-0.2-0.2-0.5-0.2-0.8-0.2
			c-0.5,0-1,0.2-1.3,0.6l-0.3-0.5c0.5-0.5,1-0.7,1.7-0.7c0.5,0,0.9,0.1,1.2,0.4c0.3,0.2,0.5,0.6,0.5,1.1V64z M62.6,63.6
			c0.5,0,0.9-0.2,1.2-0.5v-0.8c-0.3-0.4-0.7-0.5-1.2-0.5c-0.3,0-0.6,0.1-0.8,0.3c-0.2,0.2-0.3,0.4-0.3,0.7c0,0.3,0.1,0.5,0.3,0.7
			C62.1,63.5,62.3,63.6,62.6,63.6z"/>
		<path class="st3" d="M69.5,64h-0.7v-2.8c0-0.4-0.1-0.6-0.3-0.8s-0.4-0.2-0.7-0.2c-0.3,0-0.5,0.1-0.7,0.2c-0.2,0.1-0.4,0.3-0.6,0.5
			V64h-0.7v-4.3h0.7v0.6c0.2-0.2,0.4-0.4,0.7-0.5s0.6-0.2,0.9-0.2c0.9,0,1.4,0.5,1.4,1.4V64z"/>
	</g>
	<g>
		<path class="st3" d="M56.8,94.1H56v-6h0.7V94.1z"/>
		<path class="st3" d="M58.8,94.1h-0.7v-4.3h0.7v0.7c0.4-0.5,0.9-0.8,1.4-0.8v0.7c-0.1,0-0.2,0-0.3,0c-0.2,0-0.4,0.1-0.7,0.2
			c-0.2,0.1-0.4,0.3-0.5,0.5V94.1z"/>
		<path class="st3" d="M64.5,94.1h-0.7v-0.5c-0.4,0.4-0.8,0.6-1.4,0.6c-0.4,0-0.8-0.1-1.1-0.4c-0.3-0.3-0.5-0.6-0.5-1.1
			c0-0.5,0.2-0.8,0.5-1.1c0.3-0.2,0.7-0.4,1.1-0.4c0.6,0,1.1,0.2,1.4,0.6v-0.8c0-0.3-0.1-0.5-0.3-0.7s-0.5-0.2-0.8-0.2
			c-0.5,0-1,0.2-1.3,0.6l-0.3-0.5c0.5-0.5,1-0.7,1.7-0.7c0.5,0,0.9,0.1,1.2,0.4c0.3,0.2,0.5,0.6,0.5,1.1V94.1z M62.6,93.8
			c0.5,0,0.9-0.2,1.2-0.5v-0.8c-0.3-0.4-0.7-0.5-1.2-0.5c-0.3,0-0.6,0.1-0.8,0.3c-0.2,0.2-0.3,0.4-0.3,0.7c0,0.3,0.1,0.5,0.3,0.7
			C62.1,93.7,62.3,93.8,62.6,93.8z"/>
		<path class="st3" d="M69.5,94.1h-0.7v-2.8c0-0.4-0.1-0.6-0.3-0.8s-0.4-0.2-0.7-0.2c-0.3,0-0.5,0.1-0.7,0.2
			c-0.2,0.1-0.4,0.3-0.6,0.5v3.2h-0.7v-4.3h0.7v0.6c0.2-0.2,0.4-0.4,0.7-0.5c0.3-0.1,0.6-0.2,0.9-0.2c0.9,0,1.4,0.5,1.4,1.4V94.1z"
			/>
	</g>
	<g>
		<path class="st3" d="M37.1,122c-1,0-1.7-0.3-2.3-1l0.4-0.6c0.5,0.6,1.1,0.9,1.9,0.9c0.5,0,0.8-0.1,1.1-0.3s0.3-0.4,0.3-0.7
			c0-0.2-0.1-0.4-0.2-0.5c-0.1-0.1-0.3-0.3-0.5-0.3s-0.4-0.2-0.7-0.2c-0.3-0.1-0.5-0.1-0.8-0.2s-0.5-0.2-0.7-0.3
			c-0.2-0.1-0.4-0.3-0.5-0.5c-0.1-0.2-0.2-0.5-0.2-0.7c0-0.5,0.2-0.9,0.6-1.2s0.9-0.5,1.5-0.5c0.9,0,1.6,0.3,2.1,0.8l-0.4,0.5
			c-0.4-0.5-1-0.7-1.7-0.7c-0.4,0-0.7,0.1-0.9,0.3c-0.2,0.2-0.3,0.4-0.3,0.7c0,0.2,0.1,0.4,0.3,0.5c0.2,0.1,0.4,0.2,0.7,0.3
			s0.5,0.1,0.9,0.2c0.3,0.1,0.6,0.2,0.9,0.3c0.3,0.1,0.5,0.3,0.7,0.5s0.3,0.5,0.3,0.9c0,0.5-0.2,0.9-0.5,1.3
			C38.4,121.9,37.8,122,37.1,122z"/>
		<path class="st3" d="M41.3,122c-0.3,0-0.6-0.1-0.7-0.3c-0.2-0.2-0.2-0.4-0.2-0.8v-2.8h-0.7v-0.6h0.7v-1.2H41v1.2h0.9v0.6H41v2.7
			c0,0.2,0,0.3,0.1,0.4c0.1,0.1,0.2,0.2,0.3,0.2c0.2,0,0.4-0.1,0.5-0.2l0.2,0.5C41.9,121.9,41.7,122,41.3,122z"/>
		<path class="st3" d="M46.3,121.9h-0.7v-0.5c-0.4,0.4-0.8,0.6-1.4,0.6c-0.4,0-0.8-0.1-1.1-0.4c-0.3-0.3-0.5-0.6-0.5-1.1
			c0-0.5,0.2-0.8,0.5-1.1c0.3-0.2,0.7-0.4,1.1-0.4c0.6,0,1.1,0.2,1.4,0.6V119c0-0.3-0.1-0.5-0.3-0.7c-0.2-0.2-0.5-0.2-0.8-0.2
			c-0.5,0-1,0.2-1.3,0.6l-0.3-0.5c0.5-0.5,1-0.7,1.7-0.7c0.5,0,0.9,0.1,1.2,0.4c0.3,0.2,0.5,0.6,0.5,1.1V121.9z M44.4,121.5
			c0.5,0,0.9-0.2,1.2-0.5v-0.8c-0.3-0.4-0.7-0.5-1.2-0.5c-0.3,0-0.6,0.1-0.8,0.3c-0.2,0.2-0.3,0.4-0.3,0.7c0,0.3,0.1,0.5,0.3,0.7
			C43.8,121.5,44.1,121.5,44.4,121.5z"/>
		<path class="st3" d="M48.7,122c-0.3,0-0.6-0.1-0.7-0.3c-0.2-0.2-0.2-0.4-0.2-0.8v-2.8H47v-0.6h0.7v-1.2h0.7v1.2h0.9v0.6h-0.9v2.7
			c0,0.2,0,0.3,0.1,0.4c0.1,0.1,0.2,0.2,0.3,0.2c0.2,0,0.4-0.1,0.5-0.2l0.2,0.5C49.3,121.9,49.1,122,48.7,122z"/>
		<path class="st3" d="M52.2,122c-0.6,0-1.2-0.2-1.6-0.6c-0.4-0.4-0.6-1-0.6-1.7c0-0.6,0.2-1.2,0.6-1.6s0.9-0.7,1.5-0.7
			c0.6,0,1.2,0.2,1.5,0.7s0.6,1,0.6,1.7v0.2h-3.5c0,0.4,0.2,0.8,0.5,1.1c0.3,0.3,0.6,0.4,1.1,0.4c0.5,0,1-0.2,1.3-0.5l0.3,0.4
			C53.5,121.8,52.9,122,52.2,122z M53.6,119.5c0-0.4-0.1-0.7-0.4-1c-0.2-0.3-0.6-0.4-1.1-0.4c-0.4,0-0.8,0.1-1,0.4
			c-0.2,0.3-0.4,0.6-0.4,1H53.6z"/>
		<path class="st3" d="M56,121.9h-0.7v-6H56V121.9z"/>
		<path class="st3" d="M59.3,122c-0.6,0-1.2-0.2-1.6-0.6c-0.4-0.4-0.6-1-0.6-1.7c0-0.6,0.2-1.2,0.6-1.6s0.9-0.7,1.5-0.7
			c0.6,0,1.2,0.2,1.5,0.7s0.6,1,0.6,1.7v0.2h-3.5c0,0.4,0.2,0.8,0.5,1.1c0.3,0.3,0.6,0.4,1.1,0.4c0.5,0,1-0.2,1.3-0.5l0.3,0.4
			C60.6,121.8,60,122,59.3,122z M60.7,119.5c0-0.4-0.1-0.7-0.4-1c-0.2-0.3-0.6-0.4-1.1-0.4c-0.4,0-0.8,0.1-1,0.4
			c-0.2,0.3-0.4,0.6-0.4,1H60.7z"/>
		<path class="st3" d="M63.8,122c-0.7,0-1.3-0.2-1.8-0.7l0.4-0.5c0.2,0.2,0.4,0.3,0.6,0.4c0.3,0.1,0.5,0.2,0.8,0.2
			c0.3,0,0.6-0.1,0.8-0.2c0.2-0.1,0.3-0.3,0.3-0.5c0-0.2-0.1-0.3-0.3-0.5c-0.2-0.1-0.4-0.2-0.7-0.3c-0.3-0.1-0.5-0.1-0.8-0.2
			c-0.3-0.1-0.5-0.2-0.7-0.4s-0.3-0.4-0.3-0.7c0-0.4,0.1-0.7,0.4-0.9c0.3-0.2,0.7-0.4,1.2-0.4c0.7,0,1.2,0.2,1.6,0.6l-0.3,0.5
			c-0.3-0.4-0.7-0.5-1.3-0.5c-0.3,0-0.5,0.1-0.7,0.2s-0.3,0.3-0.3,0.5c0,0.2,0.1,0.3,0.3,0.4s0.4,0.2,0.7,0.2
			c0.3,0.1,0.5,0.1,0.8,0.2s0.5,0.2,0.7,0.4c0.2,0.2,0.3,0.4,0.3,0.8c0,0.4-0.2,0.7-0.5,0.9C64.8,121.9,64.3,122,63.8,122z"/>
		<path class="st3" d="M68,122c-0.7,0-1.3-0.2-1.8-0.7l0.4-0.5c0.1,0.2,0.4,0.3,0.6,0.4c0.3,0.1,0.5,0.2,0.8,0.2
			c0.3,0,0.6-0.1,0.8-0.2s0.3-0.3,0.3-0.5c0-0.2-0.1-0.3-0.3-0.5c-0.2-0.1-0.4-0.2-0.7-0.3s-0.5-0.1-0.8-0.2
			c-0.3-0.1-0.5-0.2-0.7-0.4c-0.2-0.2-0.3-0.4-0.3-0.7c0-0.4,0.1-0.7,0.4-0.9c0.3-0.2,0.7-0.4,1.2-0.4c0.7,0,1.2,0.2,1.6,0.6
			l-0.3,0.5c-0.3-0.4-0.7-0.5-1.3-0.5c-0.3,0-0.5,0.1-0.7,0.2s-0.3,0.3-0.3,0.5c0,0.2,0.1,0.3,0.3,0.4c0.2,0.1,0.4,0.2,0.7,0.2
			c0.3,0.1,0.5,0.1,0.8,0.2c0.3,0.1,0.5,0.2,0.7,0.4c0.2,0.2,0.3,0.4,0.3,0.8c0,0.4-0.2,0.7-0.4,0.9C69,121.9,68.5,122,68,122z"/>
	</g>
	<g>
		<path class="st0" d="M209.8,48.8c-1,0-1.8-0.3-2.4-0.9l0.7-1.1c0.5,0.5,1,0.7,1.7,0.7c0.7,0,1.3-0.3,1.6-0.8s0.6-1.2,0.6-1.9v-0.2
			c-0.2,0.3-0.5,0.6-0.9,0.8c-0.4,0.2-0.8,0.4-1.3,0.4c-0.8,0-1.5-0.2-2-0.7c-0.5-0.5-0.8-1.1-0.8-2c0-0.8,0.3-1.5,0.9-2
			c0.6-0.5,1.3-0.8,2.2-0.8c0.8,0,1.4,0.2,2,0.6s0.9,0.9,1.1,1.5c0.2,0.6,0.3,1.3,0.3,2.2c0,1.2-0.3,2.3-1,3.1
			C211.9,48.4,211,48.8,209.8,48.8z M210.2,44.5c0.4,0,0.7-0.1,1-0.3c0.3-0.2,0.6-0.4,0.8-0.7c0-0.5-0.2-1-0.5-1.4
			c-0.3-0.4-0.8-0.6-1.3-0.6c-0.5,0-0.9,0.1-1.2,0.4c-0.3,0.3-0.5,0.6-0.5,1c0,0.5,0.2,0.9,0.5,1.1
			C209.3,44.3,209.7,44.5,210.2,44.5z"/>
		<path class="st0" d="M217.8,48.9c-1.3,0-2.4-0.4-3.1-1.3l0.8-1c0.6,0.7,1.3,1,2.2,1c0.5,0,0.9-0.1,1.2-0.4c0.3-0.3,0.5-0.6,0.5-1
			c0-0.5-0.2-0.8-0.5-1.1c-0.3-0.3-0.7-0.4-1.2-0.4c-0.7,0-1.3,0.2-1.8,0.7l-1-0.3v-4.7h5.5v1.3h-4v2.4c0.5-0.5,1.1-0.7,1.9-0.7
			c0.7,0,1.4,0.2,1.9,0.7c0.5,0.5,0.8,1.1,0.8,2c0,0.9-0.3,1.5-0.9,2.1C219.6,48.6,218.8,48.9,217.8,48.9z"/>
	</g>
	<g>
		<path class="st0" d="M210.4,76.5h-1.5V70l-1.4,1.4l-0.8-0.9l2.4-2.4h1.3V76.5z"/>
		<path class="st0" d="M217.3,76c-0.6,0.4-1.4,0.6-2.3,0.6s-1.7-0.2-2.3-0.6s-0.9-1-0.9-1.7c0-0.5,0.2-0.9,0.5-1.3s0.8-0.7,1.3-0.8
			c-0.5-0.2-0.9-0.4-1.3-0.7c-0.3-0.3-0.5-0.7-0.5-1.2c0-0.4,0.1-0.7,0.3-1c0.2-0.3,0.4-0.5,0.7-0.7c0.3-0.2,0.6-0.3,1-0.4
			c0.4-0.1,0.7-0.1,1.1-0.1s0.8,0,1.1,0.1c0.3,0.1,0.7,0.2,1,0.4c0.3,0.2,0.5,0.4,0.7,0.7c0.2,0.3,0.3,0.6,0.3,1
			c0,0.9-0.6,1.6-1.8,2c0.5,0.2,1,0.5,1.3,0.8c0.4,0.4,0.5,0.8,0.5,1.3C218.2,75,217.9,75.6,217.3,76z M215,75.3
			c0.5,0,0.9-0.1,1.2-0.3c0.3-0.2,0.5-0.5,0.5-0.9c0-0.4-0.2-0.7-0.6-0.9c-0.4-0.2-0.8-0.4-1.1-0.4c-0.2,0-0.4,0.1-0.7,0.2
			s-0.5,0.2-0.7,0.4s-0.3,0.4-0.3,0.7c0,0.4,0.2,0.6,0.5,0.9C214.1,75.2,214.5,75.3,215,75.3z M215,71.6c0.2,0,0.4-0.1,0.7-0.2
			c0.2-0.1,0.4-0.2,0.6-0.4c0.2-0.2,0.3-0.4,0.3-0.6c0-0.3-0.1-0.6-0.4-0.8c-0.3-0.2-0.7-0.3-1.1-0.3c-0.5,0-0.8,0.1-1.1,0.3
			c-0.3,0.2-0.4,0.5-0.4,0.8c0,0.2,0.1,0.5,0.3,0.6c0.2,0.2,0.4,0.3,0.6,0.4C214.6,71.5,214.8,71.5,215,71.6z"/>
		<path class="st0" d="M222.5,76.6c-1.3,0-2.4-0.4-3.1-1.3l0.8-1c0.6,0.7,1.3,1,2.2,1c0.5,0,0.9-0.1,1.2-0.4c0.3-0.3,0.5-0.6,0.5-1
			c0-0.5-0.2-0.8-0.5-1.1c-0.3-0.3-0.7-0.4-1.2-0.4c-0.7,0-1.3,0.2-1.8,0.7l-1-0.3v-4.7h5.5v1.3h-4v2.4c0.5-0.5,1.1-0.7,1.9-0.7
			c0.7,0,1.4,0.2,1.9,0.7c0.5,0.5,0.8,1.1,0.8,2c0,0.9-0.3,1.5-0.9,2.1C224.2,76.3,223.5,76.6,222.5,76.6z"/>
	</g>
	<g>
		<path class="st0" d="M209.8,107c-1,0-1.8-0.3-2.4-0.9l0.7-1.1c0.5,0.5,1,0.7,1.7,0.7c0.7,0,1.3-0.3,1.6-0.8s0.6-1.2,0.6-1.9v-0.2
			c-0.2,0.3-0.5,0.6-0.9,0.8c-0.4,0.2-0.8,0.4-1.3,0.4c-0.8,0-1.5-0.2-2-0.7c-0.5-0.5-0.8-1.1-0.8-2c0-0.8,0.3-1.5,0.9-2
			c0.6-0.5,1.3-0.8,2.2-0.8c0.8,0,1.4,0.2,2,0.6s0.9,0.9,1.1,1.5c0.2,0.6,0.3,1.3,0.3,2.2c0,1.2-0.3,2.3-1,3.1
			C211.9,106.6,211,107,209.8,107z M210.2,102.6c0.4,0,0.7-0.1,1-0.3c0.3-0.2,0.6-0.4,0.8-0.7c0-0.5-0.2-1-0.5-1.4
			c-0.3-0.4-0.8-0.6-1.3-0.6c-0.5,0-0.9,0.1-1.2,0.4c-0.3,0.3-0.5,0.6-0.5,1c0,0.5,0.2,0.9,0.5,1.1
			C209.3,102.5,209.7,102.6,210.2,102.6z"/>
		<path class="st0" d="M217.8,107c-1.3,0-2.4-0.4-3.1-1.3l0.8-1c0.6,0.7,1.3,1,2.2,1c0.5,0,0.9-0.1,1.2-0.4c0.3-0.3,0.5-0.6,0.5-1
			c0-0.5-0.2-0.8-0.5-1.1c-0.3-0.3-0.7-0.4-1.2-0.4c-0.7,0-1.3,0.2-1.8,0.7l-1-0.3v-4.7h5.5v1.3h-4v2.4c0.5-0.5,1.1-0.7,1.9-0.7
			c0.7,0,1.4,0.2,1.9,0.7c0.5,0.5,0.8,1.1,0.8,2c0,0.9-0.3,1.5-0.9,2.1C219.6,106.7,218.8,107,217.8,107z"/>
	</g>
	<g>
		<path class="st0" d="M44.2,163.5h-1.5V157l-1.4,1.4l-0.8-0.9l2.4-2.4h1.3V163.5z"/>
		<path class="st0" d="M47.5,163c0,0.4-0.1,0.8-0.3,1.2c-0.2,0.4-0.5,0.7-0.9,0.9l-0.6-0.5c0.2-0.1,0.4-0.3,0.6-0.5
			c0.2-0.2,0.3-0.4,0.3-0.6c-0.1,0-0.1,0-0.2,0c-0.2,0-0.4-0.1-0.5-0.2s-0.2-0.3-0.2-0.6s0.1-0.4,0.2-0.6c0.2-0.2,0.4-0.3,0.6-0.3
			c0.3,0,0.5,0.1,0.7,0.3S47.5,162.7,47.5,163z"/>
		<path class="st0" d="M51.9,163.6c-1.3,0-2.4-0.4-3.1-1.3l0.8-1c0.6,0.7,1.3,1,2.2,1c0.5,0,0.9-0.1,1.2-0.4c0.3-0.3,0.5-0.6,0.5-1
			c0-0.5-0.2-0.8-0.5-1.1c-0.3-0.3-0.7-0.4-1.2-0.4c-0.7,0-1.3,0.2-1.8,0.7l-1-0.3v-4.7h5.5v1.3h-4v2.4c0.5-0.5,1.1-0.7,1.9-0.7
			c0.7,0,1.4,0.2,1.9,0.7c0.5,0.5,0.8,1.1,0.8,2c0,0.9-0.3,1.5-0.9,2.1C53.6,163.4,52.9,163.6,51.9,163.6z"/>
		<path class="st0" d="M61.4,163.5H60v-1.9h-4v-1.2l3.4-5.3h2v5.2h1.1v1.3h-1.1V163.5z M60,160.3v-3.9l-2.5,3.9H60z"/>
		<path class="st0" d="M66.7,163.6c-1.3,0-2.4-0.4-3.1-1.3l0.8-1c0.6,0.7,1.3,1,2.2,1c0.5,0,0.9-0.1,1.2-0.4c0.3-0.3,0.5-0.6,0.5-1
			c0-0.5-0.2-0.8-0.5-1.1c-0.3-0.3-0.7-0.4-1.2-0.4c-0.7,0-1.3,0.2-1.8,0.7l-1-0.3v-4.7h5.5v1.3h-4v2.4c0.5-0.5,1.1-0.7,1.9-0.7
			c0.7,0,1.4,0.2,1.9,0.7c0.5,0.5,0.8,1.1,0.8,2c0,0.9-0.3,1.5-0.9,2.1C68.4,163.4,67.6,163.6,66.7,163.6z"/>
	</g>
	<g>
		<path class="st0" d="M54.6,133.6h-6v-1.1c1.7-1.3,2.9-2.3,3.6-2.9c0.6-0.6,0.9-1.2,0.9-1.8c0-0.4-0.1-0.7-0.4-0.9
			c-0.3-0.2-0.7-0.3-1.1-0.3c-0.9,0-1.7,0.3-2.2,1l-0.8-1c0.4-0.4,0.8-0.8,1.4-1c0.5-0.2,1.1-0.3,1.7-0.3c0.9,0,1.6,0.2,2.2,0.7
			c0.6,0.5,0.9,1.1,0.9,1.9c0,0.7-0.3,1.4-0.9,2.1c-0.6,0.7-1.5,1.5-2.8,2.5h3.7V133.6z"/>
		<path class="st0" d="M59.3,133.7c-0.6,0-1.1-0.1-1.6-0.3c-0.5-0.2-0.8-0.5-1.1-0.9c-0.3-0.4-0.5-0.9-0.6-1.4
			c-0.1-0.5-0.2-1.1-0.2-1.7c0-1.3,0.3-2.3,1-3.1c0.6-0.8,1.5-1.2,2.7-1.2c1,0,1.8,0.3,2.4,0.9l-0.7,1.1c-0.5-0.5-1-0.7-1.7-0.7
			c-0.7,0-1.2,0.3-1.6,0.8c-0.4,0.5-0.6,1.2-0.6,1.9c0,0.1,0,0.2,0,0.2c0.2-0.3,0.5-0.6,0.9-0.8s0.8-0.4,1.3-0.4
			c0.8,0,1.5,0.2,2,0.7c0.5,0.5,0.8,1.1,0.8,2c0,0.8-0.3,1.5-0.8,2S60.2,133.7,59.3,133.7z M59.2,132.4c0.5,0,0.9-0.1,1.2-0.4
			c0.3-0.3,0.4-0.6,0.4-1c0-0.5-0.2-0.9-0.5-1.1c-0.3-0.3-0.7-0.4-1.2-0.4c-0.3,0-0.7,0.1-1,0.3c-0.3,0.2-0.6,0.4-0.8,0.7
			c0,0.5,0.2,1,0.5,1.4C58.2,132.2,58.6,132.4,59.2,132.4z"/>
		<path class="st0" d="M66.7,133.7c-1.3,0-2.4-0.4-3.1-1.3l0.8-1c0.6,0.7,1.3,1,2.2,1c0.5,0,0.9-0.1,1.2-0.4c0.3-0.3,0.5-0.6,0.5-1
			c0-0.5-0.2-0.8-0.5-1.1c-0.3-0.3-0.7-0.4-1.2-0.4c-0.7,0-1.3,0.2-1.8,0.7l-1-0.3v-4.7h5.5v1.3h-4v2.4c0.5-0.5,1.1-0.7,1.9-0.7
			c0.7,0,1.4,0.2,1.9,0.7c0.5,0.5,0.8,1.1,0.8,2c0,0.9-0.3,1.5-0.9,2.1C68.4,133.5,67.6,133.7,66.7,133.7z"/>
	</g>
	<g>
		<path class="st0" d="M59.1,106.1c-0.6,0-1.1-0.1-1.6-0.3s-0.8-0.5-1.1-0.9c-0.3-0.4-0.5-0.9-0.6-1.4c-0.1-0.5-0.2-1.1-0.2-1.7
			c0-1.3,0.3-2.3,1-3.1c0.6-0.8,1.5-1.2,2.7-1.2c1,0,1.8,0.3,2.4,0.9l-0.7,1.1c-0.5-0.5-1-0.7-1.7-0.7c-0.7,0-1.2,0.3-1.6,0.8
			c-0.4,0.5-0.6,1.2-0.6,1.9c0,0.1,0,0.2,0,0.2c0.2-0.3,0.5-0.6,0.9-0.8s0.8-0.4,1.3-0.4c0.8,0,1.5,0.2,2,0.7c0.5,0.5,0.8,1.1,0.8,2
			c0,0.8-0.3,1.5-0.9,2C60.8,105.9,60,106.1,59.1,106.1z M59,104.8c0.5,0,0.9-0.1,1.2-0.4c0.3-0.3,0.5-0.6,0.5-1
			c0-0.5-0.2-0.9-0.5-1.1c-0.3-0.3-0.7-0.4-1.2-0.4c-0.4,0-0.7,0.1-1,0.3s-0.6,0.4-0.8,0.7c0,0.5,0.2,1,0.5,1.4
			C58,104.6,58.4,104.8,59,104.8z"/>
		<path class="st0" d="M68,105.8c-0.4,0.2-0.9,0.4-1.5,0.4c-0.6,0-1.1-0.1-1.5-0.4c-0.4-0.2-0.8-0.6-1.1-1c-0.3-0.4-0.5-0.9-0.6-1.4
			c-0.1-0.5-0.2-1-0.2-1.6c0-0.5,0.1-1.1,0.2-1.6c0.1-0.5,0.3-1,0.6-1.4s0.6-0.7,1.1-1c0.4-0.2,0.9-0.4,1.5-0.4
			c0.6,0,1.1,0.1,1.5,0.4c0.4,0.2,0.8,0.6,1,1c0.3,0.4,0.5,0.9,0.6,1.4s0.2,1,0.2,1.6c0,0.5-0.1,1.1-0.2,1.6s-0.3,1-0.6,1.4
			C68.8,105.2,68.5,105.5,68,105.8z M65.1,104c0.3,0.6,0.8,0.9,1.4,0.9c0.6,0,1.1-0.3,1.4-0.9c0.3-0.6,0.5-1.3,0.5-2.2
			c0-0.6-0.1-1.1-0.2-1.5s-0.3-0.8-0.6-1.1c-0.3-0.3-0.6-0.4-1.1-0.4c-0.4,0-0.8,0.1-1.1,0.4c-0.3,0.3-0.5,0.6-0.6,1.1
			c-0.1,0.4-0.2,0.9-0.2,1.5C64.7,102.7,64.8,103.4,65.1,104z"/>
	</g>
	<g>
		<path class="st0" d="M51.7,75.6c-0.7,0-1.3-0.1-1.9-0.4s-1-0.6-1.3-1l0.8-1c0.3,0.3,0.6,0.6,1,0.7c0.4,0.2,0.8,0.3,1.3,0.3
			c0.5,0,1-0.1,1.3-0.3s0.5-0.5,0.5-0.9c0-0.8-0.6-1.2-1.9-1.2c-0.6,0-0.9,0-1,0v-1.3c0.1,0,0.4,0,1,0c0.5,0,0.9-0.1,1.2-0.3
			c0.3-0.2,0.5-0.5,0.5-0.8c0-0.4-0.2-0.7-0.5-0.9c-0.3-0.2-0.7-0.3-1.2-0.3c-0.8,0-1.5,0.3-2.1,0.9l-0.8-0.9c0.7-0.9,1.8-1.3,3-1.3
			c0.9,0,1.6,0.2,2.2,0.6c0.5,0.4,0.8,1,0.8,1.6c0,0.5-0.2,0.9-0.5,1.3c-0.4,0.3-0.8,0.5-1.3,0.6c0.5,0,0.9,0.2,1.3,0.6
			c0.4,0.4,0.6,0.8,0.6,1.4c0,0.7-0.3,1.3-0.9,1.8C53.4,75.4,52.7,75.6,51.7,75.6z"/>
		<path class="st0" d="M62.1,75.5h-6v-1.1c1.7-1.3,2.9-2.3,3.6-2.9c0.6-0.6,0.9-1.2,0.9-1.8c0-0.4-0.1-0.7-0.4-0.9s-0.7-0.3-1.1-0.3
			c-0.9,0-1.7,0.3-2.2,1l-0.8-1c0.4-0.4,0.8-0.8,1.4-1S58.4,67,59,67c0.9,0,1.6,0.2,2.1,0.7c0.6,0.5,0.9,1.1,0.9,1.9
			c0,0.7-0.3,1.4-0.9,2.1c-0.6,0.7-1.5,1.5-2.8,2.5h3.7V75.5z"/>
		<path class="st0" d="M66.7,75.6c-1.3,0-2.4-0.4-3.1-1.3l0.8-1c0.6,0.7,1.3,1,2.2,1c0.5,0,0.9-0.1,1.2-0.4c0.3-0.3,0.5-0.6,0.5-1
			c0-0.5-0.2-0.8-0.5-1.1c-0.3-0.3-0.7-0.4-1.2-0.4c-0.7,0-1.3,0.2-1.8,0.7l-1-0.3v-4.7h5.5v1.3h-4v2.4c0.5-0.5,1.1-0.7,1.9-0.7
			c0.7,0,1.4,0.2,1.9,0.7c0.5,0.5,0.8,1.1,0.8,2c0,0.9-0.3,1.5-0.9,2.1C68.4,75.4,67.6,75.6,66.7,75.6z"/>
	</g>
	<g>
		<path class="st0" d="M54.5,47.2h-6v-1.1c1.7-1.3,2.9-2.3,3.6-2.9c0.6-0.6,0.9-1.2,0.9-1.8c0-0.4-0.1-0.7-0.4-0.9
			c-0.3-0.2-0.7-0.3-1.1-0.3c-0.9,0-1.7,0.3-2.2,1l-0.8-1c0.4-0.4,0.8-0.8,1.4-1c0.5-0.2,1.1-0.3,1.7-0.3c0.9,0,1.6,0.2,2.2,0.7
			c0.6,0.5,0.9,1.1,0.9,1.9c0,0.7-0.3,1.4-0.9,2.1c-0.6,0.7-1.5,1.5-2.8,2.5h3.7V47.2z"/>
		<path class="st0" d="M61.2,46.8c-0.6,0.4-1.4,0.6-2.3,0.6c-0.9,0-1.7-0.2-2.3-0.6c-0.6-0.4-0.9-1-0.9-1.7c0-0.5,0.2-0.9,0.5-1.3
			c0.4-0.4,0.8-0.7,1.3-0.8c-0.5-0.2-0.9-0.4-1.3-0.7c-0.3-0.3-0.5-0.7-0.5-1.2c0-0.4,0.1-0.7,0.3-1c0.2-0.3,0.4-0.5,0.7-0.7
			c0.3-0.2,0.6-0.3,1-0.4c0.4-0.1,0.7-0.1,1.1-0.1c0.4,0,0.8,0,1.1,0.1c0.3,0.1,0.7,0.2,1,0.4c0.3,0.2,0.5,0.4,0.7,0.7
			c0.2,0.3,0.3,0.6,0.3,1c0,0.9-0.6,1.6-1.8,2c0.5,0.2,1,0.5,1.3,0.8c0.4,0.4,0.5,0.8,0.5,1.3C62.2,45.8,61.8,46.4,61.2,46.8z
			 M59,46.1c0.5,0,0.9-0.1,1.2-0.3c0.3-0.2,0.5-0.5,0.5-0.9c0-0.4-0.2-0.7-0.6-0.9c-0.4-0.2-0.8-0.4-1.1-0.4c-0.2,0-0.4,0.1-0.7,0.2
			c-0.2,0.1-0.5,0.2-0.7,0.4c-0.2,0.2-0.3,0.4-0.3,0.7c0,0.4,0.2,0.6,0.5,0.9C58.1,46,58.5,46.1,59,46.1z M59,42.3
			c0.2,0,0.4-0.1,0.6-0.2c0.2-0.1,0.4-0.2,0.6-0.4c0.2-0.2,0.3-0.4,0.3-0.6c0-0.3-0.1-0.6-0.4-0.8c-0.3-0.2-0.7-0.3-1.1-0.3
			c-0.5,0-0.8,0.1-1.1,0.3c-0.3,0.2-0.4,0.5-0.4,0.8c0,0.2,0.1,0.5,0.3,0.6c0.2,0.2,0.4,0.3,0.6,0.4C58.5,42.2,58.7,42.3,59,42.3z"
			/>
		<path class="st0" d="M68,47c-0.4,0.2-0.9,0.4-1.5,0.4c-0.6,0-1.1-0.1-1.5-0.4c-0.4-0.2-0.8-0.6-1.1-1c-0.3-0.4-0.5-0.9-0.6-1.4
			c-0.1-0.5-0.2-1-0.2-1.6c0-0.5,0.1-1.1,0.2-1.6c0.1-0.5,0.3-1,0.6-1.4s0.6-0.7,1.1-1c0.4-0.2,0.9-0.4,1.5-0.4
			c0.6,0,1.1,0.1,1.5,0.4c0.4,0.2,0.8,0.6,1,1c0.3,0.4,0.5,0.9,0.6,1.4s0.2,1,0.2,1.6c0,0.5-0.1,1.1-0.2,1.6s-0.3,1-0.6,1.4
			C68.8,46.4,68.5,46.7,68,47z M65.1,45.2c0.3,0.6,0.8,0.9,1.4,0.9c0.6,0,1.1-0.3,1.4-0.9c0.3-0.6,0.5-1.3,0.5-2.2
			c0-0.6-0.1-1.1-0.2-1.5s-0.3-0.8-0.6-1.1c-0.3-0.3-0.6-0.4-1.1-0.4c-0.4,0-0.8,0.1-1.1,0.4c-0.3,0.3-0.5,0.6-0.6,1.1
			c-0.1,0.4-0.2,0.9-0.2,1.5C64.7,43.9,64.8,44.6,65.1,45.2z"/>
	</g>
	<g>
		<path class="st0" d="M142.8,29.4h-1.5v-6.4l-1.4,1.4l-0.8-0.9l2.4-2.4h1.3V29.4z"/>
		<path class="st0" d="M147,29.5c-1,0-1.8-0.3-2.4-0.9l0.7-1.1c0.5,0.5,1,0.7,1.7,0.7c0.7,0,1.3-0.3,1.6-0.8s0.6-1.2,0.6-1.9v-0.2
			c-0.2,0.3-0.5,0.6-0.9,0.8c-0.4,0.2-0.8,0.4-1.3,0.4c-0.8,0-1.5-0.2-2-0.7c-0.5-0.5-0.8-1.1-0.8-2c0-0.8,0.3-1.5,0.9-2
			c0.6-0.5,1.3-0.8,2.2-0.8c0.8,0,1.4,0.2,2,0.6s0.9,0.9,1.1,1.5c0.2,0.6,0.3,1.3,0.3,2.2c0,1.2-0.3,2.3-1,3.1
			C149.1,29.1,148.2,29.5,147,29.5z M147.4,25.1c0.4,0,0.7-0.1,1-0.3c0.3-0.2,0.6-0.4,0.8-0.7c0-0.5-0.2-1-0.5-1.4
			c-0.3-0.4-0.8-0.6-1.3-0.6c-0.5,0-0.9,0.1-1.2,0.4c-0.3,0.3-0.5,0.6-0.5,1c0,0.5,0.2,0.9,0.5,1.1C146.5,25,146.9,25.1,147.4,25.1z
			"/>
		<path class="st0" d="M156.6,29.1c-0.4,0.2-0.9,0.4-1.5,0.4c-0.6,0-1.1-0.1-1.5-0.4c-0.4-0.2-0.8-0.6-1-1c-0.3-0.4-0.5-0.9-0.6-1.4
			s-0.2-1-0.2-1.6c0-0.5,0.1-1.1,0.2-1.6s0.3-1,0.6-1.4c0.3-0.4,0.6-0.7,1-1c0.4-0.2,0.9-0.4,1.5-0.4c0.6,0,1.1,0.1,1.5,0.4
			c0.4,0.2,0.8,0.6,1,1s0.5,0.9,0.6,1.4c0.1,0.5,0.2,1,0.2,1.6c0,0.5-0.1,1.1-0.2,1.6c-0.1,0.5-0.3,1-0.6,1.4
			C157.4,28.6,157,28.9,156.6,29.1z M153.7,27.4c0.3,0.6,0.8,0.9,1.4,0.9s1.1-0.3,1.4-0.9c0.3-0.6,0.5-1.3,0.5-2.2
			c0-0.6-0.1-1.1-0.2-1.5c-0.1-0.4-0.3-0.8-0.6-1.1c-0.3-0.3-0.6-0.4-1.1-0.4c-0.4,0-0.8,0.1-1.1,0.4c-0.3,0.3-0.5,0.6-0.6,1.1
			c-0.1,0.4-0.2,0.9-0.2,1.5C153.2,26.1,153.4,26.8,153.7,27.4z"/>
	</g>
	<g>
		<g>
			<path class="st4" d="M200,67c-11.3-2.7-32.2-8.7-44.4,1.6"/>
			<g>
				<path class="st2" d="M155.7,68.6c0.3,0,0.6,0.3,0.8,0.5c-0.4-0.1-0.9-0.1-1.3,0c0.2-0.4,0.2-0.9,0.2-1.3
					C155.5,68,155.7,68.3,155.7,68.6z"/>
			</g>
		</g>
	</g>
	<g>
		<g>
			<path class="st1" d="M201.1,95.8c-12.7,2.3-38.2-3.2-49.1-15.6"/>
			<g>
				<path class="st2" d="M152,80.2c0,0.1-0.1,0.3-0.2,0.4c0-0.2,0-0.5,0-0.7c0.2,0.1,0.4,0.1,0.7,0.1
					C152.3,80.1,152.2,80.2,152,80.2z"/>
			</g>
		</g>
	</g>
	<g>
		<g>
			<path class="st5" d="M77.6,151.6c13.5,0.6,35.9-1.9,47.7-17"/>
			<g>
				<path class="st2" d="M125,134.9c-1.6,0.3-3.7-0.6-5-1.4c2.6-0.1,5.2-0.7,7.5-2.1c-0.6,2.6-0.2,5.2,0.5,7.7
					C126.8,138.1,125.4,136.6,125,134.9z"/>
			</g>
		</g>
	</g>
	<g>
		<g>
			<path class="st6" d="M199,126.7c-16.5,6.4-38.5,11.8-57.5-3.6"/>
			<g>
				<path class="st2" d="M141.5,123.2c0,0,0,0.1,0,0.1C141.4,123.2,141.4,123.2,141.5,123.2c0,0,0-0.1,0.1-0.1
					C141.6,123.1,141.5,123.2,141.5,123.2z"/>
			</g>
		</g>
	</g>
	<g>
		<g>
			<path class="st7" d="M77.6,34.5c18.3,0,56.6,3.7,68.7,34.2"/>
			<g>
				<path class="st2" d="M146.2,68.5c0.2-0.4,0.7-0.7,1-0.9c-0.4,0.6-0.6,1.2-0.6,1.9c-0.5-0.5-1.1-0.8-1.8-1
					C145.3,68.5,145.8,68.4,146.2,68.5z"/>
			</g>
		</g>
	</g>
	<g>
		<g>
			<path class="st8" d="M76.4,121.8c13,1.1,37,2.8,51-7.6"/>
			<g>
				<path class="st2" d="M127.4,114.2c-0.4-0.1-0.8-0.4-1.1-0.7c0.6,0.2,1.3,0.2,1.9,0.1c-0.3,0.5-0.4,1.2-0.5,1.8
					C127.5,115.1,127.3,114.6,127.4,114.2z"/>
			</g>
		</g>
	</g>
	<g>
		<g>
			<path class="st9" d="M75.8,66.2c14.4-4,43.9-8.3,63.5,8.7"/>
			<g>
				<path class="st2" d="M139.3,74.9c0-0.2,0.1-0.5,0.3-0.7c0,0.3,0,0.7,0.2,1c-0.3-0.1-0.7-0.1-1,0C138.8,75,139,74.9,139.3,74.9z"
					/>
			</g>
		</g>
	</g>
	<g>
		<g>
			<path class="st10" d="M75.8,95.9c10.3-8.3,35.6-18.4,59.3-12.4"/>
			<g>
				<path class="st2" d="M135.1,83.5c0-0.1,0-0.2,0-0.3c0.1,0.1,0.1,0.3,0.3,0.3c-0.1,0-0.3,0.1-0.4,0.2
					C135,83.6,135,83.5,135.1,83.5z"/>
			</g>
		</g>
	</g>
	<g>
		<g>
			<line class="st11" x1="148.9" y1="31" x2="148.9" y2="57.9"/>
			<g>
				<path class="st2" d="M148.9,57.8c0.2-0.2,0.6-0.3,0.9-0.3c-0.4,0.3-0.7,0.6-0.9,1.1c-0.2-0.4-0.5-0.8-0.9-1.1
					C148.4,57.5,148.7,57.6,148.9,57.8z"/>
			</g>
		</g>
	</g>
	<g>
		<path class="st0" d="M213.2,135.8h-6v-1.1c1.7-1.3,2.9-2.3,3.6-2.9c0.6-0.6,0.9-1.2,0.9-1.8c0-0.4-0.1-0.7-0.4-0.9
			s-0.7-0.3-1.1-0.3c-0.9,0-1.7,0.3-2.2,1l-0.8-1c0.4-0.4,0.8-0.8,1.4-1s1.1-0.3,1.7-0.3c0.9,0,1.6,0.2,2.1,0.7
			c0.6,0.5,0.9,1.1,0.9,1.9c0,0.7-0.3,1.4-0.9,2.1c-0.6,0.7-1.5,1.5-2.8,2.5h3.7V135.8z"/>
		<path class="st0" d="M217.1,135.8h-1.6l3.2-7h-4.3v-1.3h6v1L217.1,135.8z"/>
		<path class="st0" d="M224.4,135.9c-1.3,0-2.4-0.4-3.1-1.3l0.8-1c0.6,0.7,1.3,1,2.2,1c0.5,0,0.9-0.1,1.2-0.4c0.3-0.3,0.5-0.6,0.5-1
			c0-0.5-0.2-0.8-0.5-1.1c-0.3-0.3-0.7-0.4-1.2-0.4c-0.7,0-1.3,0.2-1.8,0.7l-1-0.3v-4.7h5.5v1.3h-4v2.4c0.5-0.5,1.1-0.7,1.9-0.7
			c0.7,0,1.4,0.2,1.9,0.7c0.5,0.5,0.8,1.1,0.8,2c0,0.9-0.3,1.5-0.9,2.1C226.1,135.7,225.4,135.9,224.4,135.9z"/>
	</g>
</g>
</svg>
