<?xml version="1.0" encoding="utf-8"?>
<!-- Generator: Adobe Illustrator 19.2.0, SVG Export Plug-In . SVG Version: 6.00 Build 0)  -->
<svg version="1.1" id="Layer_1" xmlns="http://www.w3.org/2000/svg" xmlns:xlink="http://www.w3.org/1999/xlink" x="0px" y="0px"
	 viewBox="0 0 266.2 169.3" style="enable-background:new 0 0 266.2 169.3;" xml:space="preserve">
<style type="text/css">
	.st0{fill:#0D92FF;}
	.st1{fill:none;stroke:#00325C;stroke-width:0.18;stroke-miterlimit:10;}
	.st2{fill:#00325C;}
	.st3{fill:#787878;}
	.st4{fill:none;stroke:#00325C;stroke-width:0.205;stroke-miterlimit:10;}
	.st5{fill:none;stroke:#00325C;stroke-width:8.000000e-02;stroke-miterlimit:10;}
	.st6{fill:none;stroke:#00325C;stroke-width:0.92;stroke-miterlimit:3;}
	.st7{fill:none;stroke:#00325C;stroke-width:0.345;stroke-miterlimit:10;}
	.st8{fill:none;stroke:#00325C;stroke-width:0.14;stroke-miterlimit:10;}
	.st9{fill:none;stroke:#00325C;stroke-width:0.26;stroke-miterlimit:10;}
	.st10{fill:none;stroke:#00325C;stroke-width:5.000000e-02;stroke-miterlimit:10;}
	.st11{fill:none;stroke:#00325C;stroke-width:0.135;stroke-miterlimit:10;}
</style>
<g>
	<path class="st0" d="M141.8,137.2L141.8,137.2L141.8,137.2L141.8,137.2L141.8,137.2l0.1-0.1L141.8,137.2L141.8,137.2L141.8,137.2
		L141.8,137.2L141.8,137.2z M142.1,138.5L142.1,138.5L142.1,138.5L142.1,138.5l0.1-0.1L142.1,138.5l0.1-0.1L142.1,138.5L142.1,138.5
		L142.1,138.5L142.1,138.5L142.1,138.5L142.1,138.5L142.1,138.5L142.1,138.5L142.1,138.5z M141.6,138.5L141.6,138.5l0,0.1
		L141.6,138.5L141.6,138.5L141.6,138.5L141.6,138.5L141.6,138.5L141.6,138.5z M141.7,138.9L141.7,138.9L141.7,138.9L141.7,138.9
		L141.7,138.9L141.7,138.9L141.7,138.9l-0.1,0.1l0,0.1l0,0l0.1,0l0,0l0-0.1l0,0L141.7,138.9L141.7,138.9L141.7,138.9L141.7,138.9z
		 M120.1,143.3L120.1,143.3L120.1,143.3L120.1,143.3L120.1,143.3l-0.1,0l0,0l0,0l0,0l0,0l0,0.1l0,0l0,0l0,0l0,0l0,0l0,0l0,0
		L120.1,143.3L120.1,143.3L120.1,143.3z M140.7,144.4L140.7,144.4l0.1,0.1l0,0L140.7,144.4L140.7,144.4l0-0.1L140.7,144.4
		L140.7,144.4z M141.1,146.4L141.1,146.4L141.1,146.4L141.1,146.4L141.1,146.4L141.1,146.4z M140.3,147.5L140.3,147.5L140.3,147.5
		l0.1,0l0,0l0,0l0,0l0.1,0l0,0l0,0l-0.1,0L140.3,147.5l0-0.1l0,0L140.3,147.5L140.3,147.5L140.3,147.5L140.3,147.5z M135.3,154.8
		L135.3,154.8L135.3,154.8v-0.1V154.8z M133.5,155L133.5,155L133.5,155L133.5,155L133.5,155L133.5,155L133.5,155L133.5,155
		L133.5,155z M136.9,155.7L136.9,155.7L136.9,155.7L136.9,155.7L136.9,155.7L136.9,155.7L136.9,155.7L136.9,155.7L136.9,155.7
		L136.9,155.7l0,0.1L136.9,155.7L136.9,155.7L136.9,155.7L136.9,155.7z M132.9,155.8L132.9,155.8L132.9,155.8l0,0.1h0L132.9,155.8
		L132.9,155.8L132.9,155.8z M158.8,90.4L158.8,90.4L158.8,90.4L158.8,90.4L158.8,90.4L158.8,90.4L158.8,90.4z M157.5,90.4
		L157.5,90.4L157.5,90.4L157.5,90.4L157.5,90.4L157.5,90.4L157.5,90.4L157.5,90.4z M157,90.5L157,90.5l0,0.2h0l0,0l0,0L157,90.5
		L157,90.5L157,90.5z M157,91L157,91l0,0.1l0,0l0,0l0,0l0,0.1L157,91L157,91L157,91z M155.7,91.8L155.7,91.8L155.7,91.8l0,0.1
		L155.7,91.8L155.7,91.8L155.7,91.8z M154.1,92.8L154.1,92.8L154.1,92.8L154.1,92.8l-0.1,0.1l0,0l0,0.1l0-0.1L154.1,92.8L154.1,92.8
		z M154.1,93.4l0,0.1L154.1,93.4L154.1,93.4L154.1,93.4L154.1,93.4z M152.5,93.7L152.5,93.7l0-0.1L152.5,93.7l0,0.1l0,0l0,0l0,0l0,0
		l0.1,0l0-0.1L152.5,93.7L152.5,93.7z M152.1,93.8L152.1,93.8L152.1,93.8L152.1,93.8L152.1,93.8L152.1,93.8L152.1,93.8L152.1,93.8z
		 M151.1,95.5L151.1,95.5L151.1,95.5l0-0.1l0,0L151.1,95.5L151.1,95.5z M149.9,96.2L149.9,96.2L149.9,96.2L149.9,96.2l0.1,0
		L149.9,96.2L149.9,96.2L149.9,96.2z M149.7,96.5L149.7,96.5L149.7,96.5l0.1-0.1L149.7,96.5L149.7,96.5z M166.1,70.6L166.1,70.6
		l0,0.2l0,0L166.1,70.6L166.1,70.6z M166.1,70.7L166.1,70.7l0,0.1l0.1,0.1l0,0L166.1,70.7L166.1,70.7z M171.8,70.8L171.8,70.8
		L171.8,70.8l0,0.1L171.8,70.8L171.8,70.8L171.8,70.8L171.8,70.8L171.8,70.8L171.8,70.8z M172,70.9L172,70.9L172,70.9l0-0.1l-0.1,0
		L172,70.9z M169.2,70.8L169.2,70.8L169.2,70.8L169.2,70.8L169.2,70.8L169.2,70.8L169.2,70.8L169.2,70.8L169.2,70.8L169.2,70.8
		L169.2,70.8z M168.1,70.8L168.1,70.8L168.1,70.8l0,0.1l0,0l0,0l0,0L168.1,70.8L168.1,70.8z M171.2,70.9L171.2,70.9L171.2,70.9
		L171.2,70.9L171.2,70.9L171.2,70.9L171.2,70.9z M168.7,71.2L168.7,71.2L168.7,71.2L168.7,71.2L168.7,71.2z M170.9,71.2L170.9,71.2
		L170.9,71.2L170.9,71.2L170.9,71.2L170.9,71.2z M168.1,71.3L168.1,71.3L168.1,71.3L168.1,71.3L168.1,71.3L168.1,71.3l0-0.1l0,0l0,0
		l0,0l0,0L168.1,71.3L168.1,71.3L168.1,71.3l-0.1-0.1l0,0l0,0l0,0l0,0L168.1,71.3L168.1,71.3L168.1,71.3L168.1,71.3z M168.9,71.2
		L168.9,71.2L168.9,71.2L168.9,71.2l-0.1,0.1l0,0l0,0l0,0l0,0L168.9,71.2L168.9,71.2L168.9,71.2z M171.6,71.3L171.6,71.3L171.6,71.3
		L171.6,71.3L171.6,71.3L171.6,71.3L171.6,71.3z M169.5,71.5l-0.1-0.1L169.5,71.5L169.5,71.5L169.5,71.5l0,0.1l0,0L169.5,71.5
		L169.5,71.5z M167.9,71.5L167.9,71.5L167.9,71.5L167.9,71.5L167.9,71.5L167.9,71.5z M167.9,71.5L167.9,71.5L167.9,71.5L167.9,71.5
		L167.9,71.5L167.9,71.5z M172,71.7L172,71.7l-0.1-0.1l-0.1,0l0,0L172,71.7L172,71.7L172,71.7L172,71.7l0,0.1l0,0L172,71.7L172,71.7
		L172,71.7z M171.8,71.8L171.8,71.8L171.8,71.8L171.8,71.8l-0.1-0.1l0,0.1L171.8,71.8L171.8,71.8L171.8,71.8z M166.7,72L166.7,72
		L166.7,72L166.7,72L166.7,72L166.7,72L166.7,72L166.7,72L166.7,72L166.7,72z M166,72L166,72L166,72L166,72l-0.1,0.1l0.1,0l0.1,0
		L166,72L166,72L166,72z M171.8,72L171.8,72L171.8,72l0.1,0.1l0,0l0,0L171.8,72L171.8,72L171.8,72z M167.2,72L167.2,72L167.2,72
		L167.2,72L167.2,72l-0.1,0l0,0L167.2,72l0,0.1l0,0l0,0l0,0L167.2,72L167.2,72z M171.9,72L171.9,72L171.9,72L171.9,72L171.9,72z
		 M170.6,72.1L170.6,72.1L170.6,72.1L170.6,72.1l0,0.1l0,0l0,0l0,0l0,0L170.6,72.1L170.6,72.1z M166.3,72.3L166.3,72.3L166.3,72.3
		l0-0.1l0,0l0,0l0,0l0,0l0,0l0,0.1L166.3,72.3L166.3,72.3z M171.2,72.2L171.2,72.2L171.2,72.2L171.2,72.2L171.2,72.2z M169.5,72.2
		L169.5,72.2L169.5,72.2L169.5,72.2L169.5,72.2z M171.5,72.3L171.5,72.3L171.5,72.3L171.5,72.3L171.5,72.3z M167.1,72.3L167.1,72.3
		L167.1,72.3L167.1,72.3L167.1,72.3L167.1,72.3L167.1,72.3L167.1,72.3l0,0.1l0,0l0,0L167.1,72.3L167.1,72.3z M170.5,72.4L170.5,72.4
		L170.5,72.4l-0.1-0.2l0,0l0,0l0,0.1L170.5,72.4L170.5,72.4L170.5,72.4L170.5,72.4L170.5,72.4L170.5,72.4L170.5,72.4z M166.3,72.5
		L166.3,72.5L166.3,72.5L166.3,72.5L166.3,72.5z M171.5,72.7L171.5,72.7L171.5,72.7L171.5,72.7L171.5,72.7L171.5,72.7L171.5,72.7
		L171.5,72.7L171.5,72.7z M172.2,72.7L172.2,72.7L172.2,72.7L172.2,72.7L172.2,72.7L172.2,72.7z M170.6,72.8L170.6,72.8L170.6,72.8
		L170.6,72.8L170.6,72.8z M169.4,73.5L169.4,73.5L169.4,73.5L169.4,73.5L169.4,73.5L169.4,73.5L169.4,73.5L169.4,73.5L169.4,73.5
		L169.4,73.5z M164.7,70.9L164.7,70.9L164.7,70.9L164.7,70.9L164.7,70.9l-0.1-0.1L164.7,70.9L164.7,70.9L164.7,70.9L164.7,70.9
		L164.7,70.9z M165,71.1L165,71.1L165,71.1L165,71.1L165,71.1z M165.4,71.5L165.4,71.5L165.4,71.5L165.4,71.5L165.4,71.5z
		 M165.3,71.6L165.3,71.6L165.3,71.6L165.3,71.6L165.3,71.6L165.3,71.6L165.3,71.6L165.3,71.6z M164.9,72L164.9,72L164.9,72
		L164.9,72l0.1,0.1L164.9,72L164.9,72L164.9,72L164.9,72L164.9,72z M164.7,72.2L164.7,72.2L164.7,72.2L164.7,72.2L164.7,72.2
		L164.7,72.2z M165,72.4L165,72.4l0,0.1l0,0L165,72.4z M164.5,72.8L164.5,72.8L164.5,72.8l0-0.1l0,0L164.5,72.8L164.5,72.8
		L164.5,72.8L164.5,72.8z M164.7,73.5L164.7,73.5L164.7,73.5L164.7,73.5L164.7,73.5L164.7,73.5L164.7,73.5z M163.1,73.9L163.1,73.9
		L163.1,73.9L163.1,73.9L163.1,73.9L163.1,73.9l-0.1-0.1l0,0l0,0l0,0l0,0l0,0l0,0l0,0L163.1,73.9L163.1,73.9L163.1,73.9L163.1,73.9
		L163.1,73.9L163.1,73.9z M163.2,73.9L163.2,73.9L163.2,73.9l0.1,0.1L163.2,73.9L163.2,73.9z M165.6,74.1L165.6,74.1l0.1,0.1
		L165.6,74.1L165.6,74.1L165.6,74.1z M165.5,74.2L165.5,74.2L165.5,74.2L165.5,74.2L165.5,74.2L165.5,74.2l0.1,0L165.5,74.2
		L165.5,74.2z M162.2,75L162.2,75L162.2,75L162.2,75l0-0.1l0,0l0,0L162.2,75L162.2,75z M162.6,75.4L162.6,75.4L162.6,75.4l-0.1,0
		l0,0l0,0l0,0H162.6L162.6,75.4L162.6,75.4L162.6,75.4L162.6,75.4L162.6,75.4L162.6,75.4L162.6,75.4z M164.5,75.6L164.5,75.6
		L164.5,75.6L164.5,75.6L164.5,75.6L164.5,75.6L164.5,75.6L164.5,75.6z M162.7,76.1L162.7,76.1L162.7,76.1L162.7,76.1L162.7,76.1
		L162.7,76.1L162.7,76.1z M162.4,76.8L162.4,76.8l0,0.1l0.1,0.1l0,0L162.4,76.8L162.4,76.8z M162.6,76.9L162.6,76.9L162.6,76.9
		l0.1,0.1l0-0.1L162.6,76.9L162.6,76.9z M161.6,77.3L161.6,77.3L161.6,77.3l-0.1,0.1l0,0l0,0.1l0.1,0l0,0l0,0l0-0.1L161.6,77.3z
		 M161.8,77.5L161.8,77.5L161.8,77.5L161.8,77.5l-0.1,0.1l0,0l0.1,0L161.8,77.5L161.8,77.5L161.8,77.5z M161.2,78L161.2,78L161.2,78
		L161.2,78L161.2,78L161.2,78l0.2,0l0-0.1l-0.1-0.1L161.2,78L161.2,78L161.2,78L161.2,78z M160.9,82.7L160.9,82.7L160.9,82.7
		L160.9,82.7L160.9,82.7L160.9,82.7L160.9,82.7z M159.2,86.7L159.2,86.7L159.2,86.7L159.2,86.7L159.2,86.7z M152.1,126.7
		L152.1,126.7L152.1,126.7L152.1,126.7z M151.1,127L151.1,127L151.1,127L151.1,127L151.1,127z M151,127.1L151,127.1L151,127.1
		L151,127.1L151,127.1L151,127.1l0,0.1L151,127.1L151,127.1L151,127.1L151,127.1z M150.6,127.2L150.6,127.2L150.6,127.2L150.6,127.2
		L150.6,127.2L150.6,127.2L150.6,127.2L150.6,127.2L150.6,127.2L150.6,127.2L150.6,127.2L150.6,127.2L150.6,127.2z M151.4,127.5
		L151.4,127.5L151.4,127.5L151.4,127.5L151.4,127.5z M151.1,128.4L151.1,128.4L151.1,128.4L151.1,128.4L151.1,128.4L151.1,128.4
		L151.1,128.4L151.1,128.4z M151.3,129L151.3,129L151.3,129l0-0.1L151.3,129L151.3,129L151.3,129L151.3,129L151.3,129L151.3,129z
		 M152.5,128.9L152.5,128.9L152.5,128.9L152.5,128.9L152.5,128.9L152.5,128.9z M148.7,130.7L148.7,130.7L148.7,130.7L148.7,130.7
		l0.1,0l0-0.1L148.7,130.7L148.7,130.7z M147.9,130.7L147.9,130.7L147.9,130.7L147.9,130.7L147.9,130.7L147.9,130.7z M148.6,131.4
		L148.6,131.4l0,0.1L148.6,131.4L148.6,131.4L148.6,131.4L148.6,131.4z M149.3,131.7L149.3,131.7L149.3,131.7L149.3,131.7
		L149.3,131.7l0-0.1L149.3,131.7L149.3,131.7L149.3,131.7L149.3,131.7L149.3,131.7L149.3,131.7L149.3,131.7L149.3,131.7L149.3,131.7
		z M148.7,131.9L148.7,131.9L148.7,131.9L148.7,131.9L148.7,131.9l0.1-0.1l0-0.1l-0.1,0l0,0l0,0L148.7,131.9L148.7,131.9
		L148.7,131.9L148.7,131.9z M146.9,132.2L146.9,132.2L146.9,132.2L146.9,132.2l0.1,0L146.9,132.2l0-0.1l0,0l0,0l0,0l-0.1,0
		L146.9,132.2L146.9,132.2L146.9,132.2z M145,133.7L145,133.7L145,133.7L145,133.7L145,133.7L145,133.7l0,0.1l0,0l0,0L145,133.7
		L145,133.7L145,133.7z M145.6,134.4L145.6,134.4l0,0.1l0,0.1l0,0l0,0l0,0L145.6,134.4L145.6,134.4L145.6,134.4z M165,70.8L165,70.8
		L165,70.8L165,70.8l0-0.1l0-0.1l0,0L165,70.8L165,70.8L165,70.8L165,70.8L165,70.8z M165.6,71.1L165.6,71.1L165.6,71.1L165.6,71.1
		l0-0.1l0,0l0,0l0,0l0,0L165.6,71.1L165.6,71.1L165.6,71.1L165.6,71.1L165.6,71.1z M168.2,71.3L168.2,71.3L168.2,71.3L168.2,71.3
		L168.2,71.3l0.1-0.1l0,0l-0.1,0L168.2,71.3L168.2,71.3L168.2,71.3z M168.4,71.5L168.4,71.5l-0.1-0.2l0,0l0,0l-0.1,0l-0.1,0l0,0.1
		l0,0l0,0l0,0l0,0l0,0l0,0l0,0l0,0l0,0l0,0l0,0l0,0l0,0l0,0l0,0l0,0l0,0l0,0l0,0l0,0l0-0.1l0,0l0-0.1l0,0L168.4,71.5L168.4,71.5
		L168.4,71.5L168.4,71.5L168.4,71.5l0,0.1l0,0L168.4,71.5L168.4,71.5L168.4,71.5z M169.3,71.5L169.3,71.5L169.3,71.5l-0.1-0.1l0,0
		l0,0l0,0v0l0,0l0,0.1l0,0L169.3,71.5L169.3,71.5l-0.1,0.1l0,0l0,0l0,0l0,0L169.3,71.5L169.3,71.5L169.3,71.5z M164.7,71.8
		L164.7,71.8L164.7,71.8L164.7,71.8l0.1-0.1l0,0l0,0l0,0l0,0l0,0L164.7,71.8L164.7,71.8L164.7,71.8z M171.3,71.9L171.3,71.9
		L171.3,71.9l-0.2,0l0,0l0,0l0,0l0,0l0,0l0,0l0,0l0.1,0L171.3,71.9L171.3,71.9L171.3,71.9L171.3,71.9z M165.5,72.2L165.5,72.2
		L165.5,72.2L165.5,72.2l0.2,0l0,0l0,0l0-0.1l0-0.1l0-0.1l0,0l0,0l0,0l0,0l0,0l0,0l0,0.1L165.5,72.2L165.5,72.2L165.5,72.2z
		 M167.5,72.1L167.5,72.1L167.5,72.1L167.5,72.1L167.5,72.1L167.5,72.1l-0.1,0l0,0l0,0l0,0l0,0l0.1,0l0,0l0,0L167.5,72.1L167.5,72.1
		L167.5,72.1z M165.6,72.3L165.6,72.3L165.6,72.3l0,0.1l0,0l0,0l0.1,0l0-0.1L165.6,72.3L165.6,72.3z M164.8,72.7L164.8,72.7
		L164.8,72.7L164.8,72.7L164.8,72.7L164.8,72.7L164.8,72.7L164.8,72.7l0-0.1l0,0L164.8,72.7L164.8,72.7L164.8,72.7z M170.3,72.9
		l0-0.1l0-0.1h0l0,0.1L170.3,72.9L170.3,72.9L170.3,72.9L170.3,72.9L170.3,72.9l-0.1,0.1l0,0l0,0l0,0l0,0l0,0h0l0,0l0,0l0,0l0,0l0,0
		l0,0l0,0v-0.1l0-0.1L170.3,72.9z M166.3,73.3L166.3,73.3L166.3,73.3l0.1,0L166.3,73.3l0.1-0.2l0,0l0,0l0,0l0,0L166.3,73.3
		L166.3,73.3z M165.9,73.3L165.9,73.3l-0.1-0.1l0,0.1l0,0.1l0,0.1l0,0l0.1,0L165.9,73.3L165.9,73.3L165.9,73.3z M166.3,73.4
		L166.3,73.4L166.3,73.4l-0.2-0.1l0,0l0,0.1L166.3,73.4L166.3,73.4L166.3,73.4L166.3,73.4l0,0.1l0,0l0,0l0,0l0,0l0,0l0-0.1l0,0l0,0
		l0,0l0-0.1L166.3,73.4L166.3,73.4z M164.5,73.7L164.5,73.7l0-0.2l0,0l0,0l-0.1-0.1l0,0l0.1,0.1l0.1,0.1l0,0.1L164.5,73.7
		L164.5,73.7L164.5,73.7z M165.9,73.6L165.9,73.6l0.1,0.1l0-0.1L165.9,73.6L165.9,73.6z M163.4,73.8L163.4,73.8L163.4,73.8
		L163.4,73.8l0-0.1l-0.1,0l-0.1,0l0,0v0.1l0,0l0,0l0,0.1L163.4,73.8L163.4,73.8L163.4,73.8L163.4,73.8L163.4,73.8L163.4,73.8z
		 M165.3,73.9L165.3,73.9L165.3,73.9l-0.1-0.1l0,0l0,0l0,0l0,0h0l0,0l0,0.1l0,0.1l0,0l0,0l0,0l0,0l0,0l0,0l0,0l0.1,0l0.1,0l0,0
		L165.3,73.9L165.3,73.9z M166,73.9L166,73.9l-0.1-0.1l-0.1,0l0,0l0,0.1L166,73.9L166,73.9L166,73.9z M166.1,73.9L166.1,73.9
		L166.1,73.9L166.1,73.9L166,74l0,0l0,0l0,0l0,0l0,0l0,0l0,0l0,0l0,0l0,0L166.1,73.9L166.1,73.9L166.1,73.9L166.1,73.9z M163.5,74.4
		L163.5,74.4L163.5,74.4l0,0.1l0,0l0,0.1l0,0l0-0.1l0,0l0,0L163.5,74.4L163.5,74.4L163.5,74.4z M163.2,74.7L163.2,74.7L163.2,74.7
		l-0.1,0.1l0,0.1l0,0l0,0l0,0L163.2,74.7L163.2,74.7L163.2,74.7L163.2,74.7z M165.1,74.7L165.1,74.7l-0.1,0l0,0L165.1,74.7l-0.1,0.1
		l0,0l0,0l0,0l0,0l0,0l0,0L165.1,74.7L165.1,74.7L165.1,74.7z M162,75.2L162,75.2L162,75.2l0.1,0.1l0.1,0l0.1,0l0-0.1l0,0l0-0.1l0,0
		l0-0.1L162,75l-0.1-0.1l0,0l0,0l-0.1,0l0,0l0,0l0,0l0,0l0,0l-0.1,0l0,0l0,0l0,0l0,0l0,0l0,0l0,0l0,0l0.1,0l0,0l0-0.1l0,0l0,0l0,0
		l0,0l0,0L162,75.2L162,75.2L162,75.2z M163,74.9L163,74.9L163,74.9l-0.1-0.1l-0.1,0l0,0.1l0,0.1l0.1,0.1l0.1,0l0,0L163,74.9
		L163,74.9z M164.7,75.1L164.7,75.1L164.7,75.1l-0.1-0.1l0-0.1l0,0l0,0.1l0.1,0.1L164.7,75.1L164.7,75.1l0,0.1l0,0.1l0,0l0,0l0,0
		L164.7,75.1L164.7,75.1L164.7,75.1z M164.9,75L164.9,75L164.9,75l0.1,0.1L164.9,75L164.9,75L164.9,75L164.9,75z M164.9,75.2
		L164.9,75.2L164.9,75.2L164.9,75.2l-0.1,0.1l0,0L164.9,75.2L164.9,75.2L164.9,75.2L164.9,75.2z M162,75.5L162,75.5L162,75.5l-0.1,0
		l0,0.1l0.1,0.1l0.1,0.1l0.1,0l0-0.1L162,75.5L162,75.5z M162.4,76.2L162.4,76.2L162.4,76.2l-0.1-0.1l0,0l0,0l0,0l-0.1,0l0,0l-0.1,0
		l0,0l0,0.1l0.1,0.1l0.1,0l0,0l0,0l0,0L162.4,76.2l0,0.1l0,0.1l0,0l0-0.1L162.4,76.2L162.4,76.2z M162.3,76.8L162.3,76.8L162.3,76.8
		l0-0.1l0,0l0,0l0,0l0,0l0,0l0,0l0,0l0,0l0,0l0,0l0,0l0,0l0,0.1l0,0.1l0.1,0.1l0.1,0.1L162.3,76.8L162.3,76.8l0,0.1l0,0l0,0
		L162.3,76.8L162.3,76.8z M160,79.8L160,79.8l-0.1-0.1l0,0l0,0.1l0,0.1l0,0.1l0,0.1l0,0l0,0l0,0l0-0.1L160,79.8L160,79.8z
		 M159.4,81.9l0.2,0.1l0,0l0,0l0,0l0-0.1l0-0.1l0,0l0,0l0,0.1L159.4,81.9L159.4,81.9l0-0.1l0,0l0-0.1l-0.1-0.1l-0.1,0l0,0l0,0.1l0,0
		L159.4,81.9L159.4,81.9L159.4,81.9z M157.8,92.2L157.8,92.2l0,0.1l0,0L157.8,92.2L157.8,92.2l-0.1,0.1l0,0.1l0,0l0.1,0l0,0l0,0l0,0
		L157.8,92.2L157.8,92.2L157.8,92.2L157.8,92.2L157.8,92.2z M149,96.7L149,96.7l0-0.1l0-0.1l0,0l0,0l0,0.1L149,96.7L149,96.7
		L149,96.7z M149.6,96.6l-0.1,0l0,0l0,0l0,0L149.6,96.6L149.6,96.6L149.6,96.6z M149.4,96.8L149.4,96.8L149.4,96.8L149.4,96.8
		L149.4,96.8z M149.3,97.1L149.3,97.1L149.3,97.1l0,0.1l0,0.1l0,0v-0.1L149.3,97.1L149.3,97.1L149.3,97.1z M148.8,97.4L148.8,97.4
		L148.8,97.4l0-0.1l0-0.1l0,0l0,0.1L148.8,97.4L148.8,97.4L148.8,97.4z M148.3,97.7L148.3,97.7L148.3,97.7L148.3,97.7l0.1,0l0.1-0.1
		l0,0l0-0.1l0-0.1l0,0l0,0l-0.1,0l0,0l0-0.1l-0.1,0.1l0,0.1l0,0.1L148.3,97.7L148.3,97.7L148.3,97.7L148.3,97.7z M148.9,98L148.9,98
		l0-0.2l0-0.1l0,0l-0.1,0.1l0,0l0,0.2l0,0L148.9,98L148.9,98z M145.7,98.8L145.7,98.8L145.7,98.8l0,0.1l0,0L145.7,98.8L145.7,98.8
		L145.7,98.8L145.7,98.8z M147.5,99.5L147.5,99.5l0-0.1L147.5,99.5L147.5,99.5z M146.3,100.1L146.3,100.1l0-0.1l-0.1,0l-0.2,0l0,0
		l0,0.1l0.1,0.2l0,0L146.3,100.1L146.3,100.1L146.3,100.1z M147.1,100l-0.1,0.1l0,0l0,0.1l0,0L147.1,100L147.1,100L147.1,100
		L147.1,100L147.1,100z M146.5,100.9l-0.2,0l0,0l0,0l0,0l0.3,0.2l0-0.1l0-0.1L146.5,100.9L146.5,100.9L146.5,100.9L146.5,100.9z
		 M145.7,102.4L145.7,102.4L145.7,102.4L145.7,102.4z M145,105L145,105l-0.1,0.2l0,0.1l0,0.1l0.1,0l0,0l0,0l0,0l0.1-0.1l0,0l0,0l0,0
		L145,105L145,105z M144.2,107.4L144.2,107.4l-0.1,0l-0.1,0l0,0l0,0.1l0,0L144.2,107.4L144.2,107.4L144.2,107.4z M144,107.4
		L144,107.4L144,107.4L144,107.4L144,107.4L144,107.4L144,107.4L144,107.4z M144.3,109.5L144.3,109.5L144.3,109.5L144.3,109.5
		L144.3,109.5L144.3,109.5l0-0.1l-0.1,0L144.3,109.5L144.3,109.5L144.3,109.5z M143.3,110.8L143.3,110.8l-0.1-0.1l0,0l0,0l0,0l0,0
		l0,0.1l0,0h0l0.1,0L143.3,110.8L143.3,110.8L143.3,110.8L143.3,110.8z M143.8,110.9l-0.2,0l-0.1,0l0,0.1l0,0.1l0,0.1l0,0l0,0l0,0
		l0,0l0,0l0,0l0,0l0,0l0.2,0l0,0l0-0.1L143.8,110.9L143.8,110.9z M143.3,114.5L143.3,114.5L143.3,114.5L143.3,114.5l0.1-0.1l0,0l0,0
		l0,0l0,0l0,0l0,0L143.3,114.5L143.3,114.5L143.3,114.5z M143.1,115.5L143.1,115.5L143.1,115.5l0-0.1l0,0l0,0l0,0l0,0l0,0.1l0,0.1
		l0,0l0,0L143.1,115.5L143.1,115.5L143.1,115.5L143.1,115.5L143.1,115.5L143.1,115.5z M143.3,117.5L143.3,117.5L143.3,117.5
		L143.3,117.5l0.1,0.1h0l0.1,0l0,0l0,0l-0.1,0l0,0l0,0L143.3,117.5L143.3,117.5L143.3,117.5L143.3,117.5z M147.9,120L147.9,120
		L147.9,120l0-0.1l0,0l0,0l0,0l-0.1,0l-0.1,0l0,0l0,0L147.9,120L147.9,120z M148.9,122L148.9,122l-0.1-0.1l0,0l0,0l0,0.1l0,0l0.1,0
		L148.9,122L148.9,122L148.9,122L148.9,122z M148.5,122.5L148.5,122.5l-0.2-0.1l-0.2,0l0.1,0.2l0.2,0.1l0.1,0l0,0L148.5,122.5
		L148.5,122.5L148.5,122.5L148.5,122.5z M148.6,122.5L148.6,122.5L148.6,122.5L148.6,122.5L148.6,122.5L148.6,122.5L148.6,122.5
		l0,0.1l0,0l0,0l0,0l0,0l0,0l0,0l0.1,0l0-0.1l0,0L148.6,122.5L148.6,122.5z M151,125.4L151,125.4L151,125.4l-0.1,0.1l-0.1,0.1l0,0
		l0,0l0,0l0,0l0,0l0.1-0.1l0,0L151,125.4L151,125.4L151,125.4z M150.7,126.1L150.7,126.1L150.7,126.1L150.7,126.1L150.7,126.1l0.1,0
		l0,0l0,0L150.7,126.1L150.7,126.1z M151.1,126.2L151.1,126.2L151.1,126.2L151.1,126.2L151.1,126.2l0.1,0.1L151.1,126.2l0.1,0l0,0
		l0,0l0,0L151.1,126.2L151.1,126.2L151.1,126.2L151.1,126.2z M151,126.3l-0.1,0l0,0l0,0v0l0,0.1l0.1,0L151,126.3L151,126.3
		L151,126.3L151,126.3z M149.9,127L149.9,127l-0.2,0l0,0.1l0,0l0,0l0.1,0l0.1,0h0l0,0L149.9,127L149.9,127L149.9,127L149.9,127
		L149.9,127L149.9,127L149.9,127L149.9,127z M151.2,127.1L151.2,127.1L151.2,127.1L151.2,127.1L151.2,127.1L151.2,127.1L151.2,127.1
		L151.2,127.1L151.2,127.1L151.2,127.1L151.2,127.1L151.2,127.1z M151,127.7L151,127.7L151,127.7l0.1,0l0,0l0,0l0,0l0,0l0,0l0,0
		L151,127.7L151,127.7z M150.5,127.8L150.5,127.8l0.1,0.1l0,0l0.1-0.1l0,0l0,0l0,0l0,0L150.5,127.8L150.5,127.8z M149.3,128.7
		L149.3,128.7L149.3,128.7l-0.1,0l0,0L149.3,128.7l0.4,0l0,0l0,0l0,0l-0.1,0l0,0l0,0l0,0l0,0l0,0L149.3,128.7L149.3,128.7z
		 M149.3,128.8L149.3,128.8L149.3,128.8l-0.1,0l0,0l0,0l0,0l-0.1,0l-0.1,0.1l0,0.1l0,0l0.1,0l0,0l0,0l0,0l0.1,0l0,0L149.3,128.8
		l-0.1,0.1l0,0L149.3,128.8L149.3,128.8z M147.5,129.1L147.5,129.1l0.2-0.1l0-0.1l-0.1-0.1l-0.1,0l0,0l0,0l0,0L147.5,129.1
		L147.5,129.1L147.5,129.1L147.5,129.1z M150.5,129.1L150.5,129.1L150.5,129.1L150.5,129.1L150.5,129.1z M147.9,129.2L147.9,129.2
		L147.9,129.2L147.9,129.2L147.9,129.2l-0.1-0.1l0,0l0,0.2L147.9,129.2l0.1,0.1l0,0L147.9,129.2L147.9,129.2L147.9,129.2z
		 M150.2,129.2L150.2,129.2L150.2,129.2L150.2,129.2L150.2,129.2l0-0.1l0,0l0,0l0,0l0,0l0,0.1L150.2,129.2L150.2,129.2L150.2,129.2z
		 M150,129.7L150,129.7L150,129.7L150,129.7L150,129.7L150,129.7L150,129.7L150,129.7l-0.1-0.1l0,0.1l0,0.1l0,0.1l0,0l0,0l0,0l0.1,0
		L150,129.7L150,129.7L150,129.7L150,129.7L150,129.7z M149.9,130L149.9,130L149.9,130L149.9,130L149.9,130L149.9,130L149.9,130
		L149.9,130z M150.1,130.3L150.1,130.3L150.1,130.3L150.1,130.3l0-0.1l0,0l0,0l0,0l-0.1,0l0,0L150.1,130.3L150.1,130.3z
		 M148.8,131.1L148.8,131.1L148.8,131.1l0.1-0.1l0,0l0,0l0,0l0,0L148.8,131.1z M148.5,132L148.5,132L148.5,132L148.5,132L148.5,132
		L148.5,132L148.5,132l-0.1,0l0,0l0,0.2l0.1,0l0,0l0-0.1l0-0.1L148.5,132L148.5,132z M146.3,132.8l-0.1,0.2l0,0.1l0,0l0,0l0,0l0,0
		l0,0l0-0.1l0,0l0,0l0,0L146.3,132.8L146.3,132.8L146.3,132.8L146.3,132.8L146.3,132.8L146.3,132.8L146.3,132.8L146.3,132.8z
		 M147.1,133L147.1,133L147.1,133L147.1,133L147.1,133l-0.2,0l0,0l0,0v0l0,0.1l0,0l0,0l0,0.1l0,0l0,0l0,0l0,0L147.1,133L147.1,133z
		 M117.1,133.5L117.1,133.5L117.1,133.5L117.1,133.5L117.1,133.5l0-0.1l0,0l-0.1,0l0,0l0,0l0,0l0-0.1l0,0l0,0l0,0l0,0l0,0l0,0l0,0
		l0,0l0,0l0,0.1l0,0l0,0l0,0l0,0l0,0l0,0.1l0,0l0,0l0,0l0,0l0,0l0,0l0,0l0,0l0,0l0.1,0l0,0l0,0l0,0l0,0l0,0l0,0L117.1,133.5
		L117.1,133.5L117.1,133.5L117.1,133.5z M145.6,133.9l0-0.1l0-0.1l0,0l-0.1,0l0,0l0-0.1l0.1-0.1l0-0.1l0,0l0,0l0,0l0,0.1l0,0l0,0
		l0,0.1l0,0.1l0,0.1l0,0l0,0l0,0l0,0l0,0.1l0,0.1l0,0.1l-0.1,0l0,0l0,0l0.2,0l0,0l0,0l0-0.1l0,0l0,0l0,0L145.6,133.9L145.6,133.9
		L145.6,133.9z M146.7,133.7L146.7,133.7L146.7,133.7L146.7,133.7l0.1-0.1l0,0l0-0.1l0-0.1l0,0l0,0l-0.1,0.1L146.7,133.7
		L146.7,133.7L146.7,133.7L146.7,133.7L146.7,133.7L146.7,133.7z M144.8,134l-0.3-0.2l0,0l0,0l0,0.1l0.2,0.1L144.8,134l0.1,0.2l0,0
		l0-0.1L144.8,134z M144,134.4L144,134.4L144,134.4L144,134.4l0,0.1L144,134.4L144,134.4l-0.1,0l0,0l0,0l0,0.1l0.1,0l0,0l0,0l0,0
		l0,0l0,0l0,0l0,0.1l0,0l0,0l0,0l0.1-0.2l0,0l0.1,0L144,134.4L144,134.4z M144,134.7L144,134.7L144,134.7l0,0.2l0,0l0.1-0.1
		L144,134.7L144,134.7z M141.8,136.5L141.8,136.5L141.8,136.5l-0.1-0.1l-0.1,0h0l0,0l0,0l0.1,0.1L141.8,136.5L141.8,136.5
		L141.8,136.5L141.8,136.5L141.8,136.5z M141.9,136.7L141.9,136.7L141.9,136.7L141.9,136.7L141.9,136.7l0.1-0.1l0,0l-0.1,0l0,0
		L141.9,136.7L141.9,136.7L141.9,136.7z M141.3,139.7L141.3,139.7L141.3,139.7L141.3,139.7l-0.1,0l0,0.1l0.1,0.1l0.1,0l0.1,0
		L141.3,139.7L141.3,139.7L141.3,139.7l0,0.1L141.3,139.7L141.3,139.7L141.3,139.7L141.3,139.7L141.3,139.7L141.3,139.7z
		 M119.5,141.6L119.5,141.6L119.5,141.6L119.5,141.6L119.5,141.6l0.1-0.1l0,0l0,0l0,0l-0.1,0l-0.1,0l-0.1,0.1l0,0l0,0l0.1,0.1l0.1,0
		l0,0l0,0l-0.1,0l0,0l0,0l0,0l0,0l0,0v0l0,0l0,0l0.1,0l0,0l0,0l0,0l0,0l0,0l0,0l0,0L119.5,141.6L119.5,141.6L119.5,141.6
		L119.5,141.6z M140.7,141.8L140.7,141.8L140.7,141.8L140.7,141.8L140.7,141.8l0.1,0.1l0,0.1l0,0l0,0l0,0l0,0l0.1,0l0,0l0,0l0,0l0,0
		l0,0l0,0l0,0l0,0v0l0,0v0l0,0l-0.1,0l-0.1-0.1l-0.1,0l0,0L140.7,141.8L140.7,141.8L140.7,141.8z M140.6,142L140.6,142L140.6,142
		l0.1,0.1l0,0l0.1,0.1l0,0l0,0l0,0l0,0l0,0l0,0l0,0l0,0L140.6,142L140.6,142z M119.7,143L119.7,143L119.7,143L119.7,143L119.7,143
		L119.7,143l0-0.1l0,0l0,0l0-0.1l-0.1-0.1l0,0.1l0,0l0,0l0,0l0,0l0,0v0l-0.1,0l0,0l0,0l0,0l0,0l0,0l0,0l0,0.1l0,0L119.7,143
		L119.7,143L119.7,143L119.7,143L119.7,143L119.7,143z M140.7,143.5L140.7,143.5l0,0.1l0,0l-0.1,0l0,0l0,0l0,0l0,0l0,0.1l0,0l0,0
		l0,0l0,0l0,0l0,0l0,0l0,0l0,0l0,0l0,0l0.1-0.2l0-0.1l0-0.1L140.7,143.5L140.7,143.5z M140.1,147L140.1,147L140.1,147L140.1,147
		L140.1,147l-0.1,0.1l0,0l0,0l0,0l0.1-0.1L140.1,147L140.1,147L140.1,147L140.1,147z M136.9,154.9L136.9,154.9L136.9,154.9
		L136.9,154.9l-0.1,0l0,0l0,0l0,0l0,0l0.1,0.1l0,0l0,0l0,0l0,0L136.9,154.9L136.9,154.9L136.9,154.9L136.9,154.9z M136.3,154.9
		L136.3,154.9L136.3,154.9L136.3,154.9L136.3,154.9L136.3,154.9l-0.2,0.1l0,0l0,0l0,0l0.1,0l0,0l0,0L136.3,154.9L136.3,154.9
		L136.3,154.9L136.3,154.9z M135.9,154.9L135.9,154.9L135.9,154.9l-0.1,0.1l0,0l0,0l0,0l0.1,0l0,0l0-0.1l0-0.1L135.9,154.9z
		 M135.6,155L135.6,155l-0.1,0l0,0.1l0,0l0,0l0,0l0,0l0.1,0l0,0l0,0l0,0l0-0.1L135.6,155L135.6,155L135.6,155L135.6,155z M124,156.5
		L124,156.5l-0.1,0l0,0l0.1,0.2l0,0l0-0.1L124,156.5L124,156.5z M151.3,137.7l0.2,0.1l0.2-0.1l0.2-0.1l-0.1-0.1l-0.2-0.1l-0.1-0.1
		h-0.1L151.3,137.7z M148,130.4l0.2,0.1l0.2,0.2l0.1,0l0.1-0.2l-0.2,0l-0.1-0.1l0-0.2l0.1,0.1l0.1,0l0.2,0l-0.4-0.2l-0.3-0.1l-0.5,0
		l0.2,0.1l0.1,0.1l0,0L148,130.4L148,130.4z M158.4,90.7l-0.1-0.2l-0.2,0l-0.1,0.3l0.1,0l0,0l0,0l0,0.1l0,0.1L158.4,90.7z
		 M147.8,121l0.1,0.2l0.2,0.1l0.2,0.3l0.2,0.1l0,0l0-0.1l0,0l0,0l0,0l0,0l-0.1-0.1l0-0.1l0-0.1l-0.1,0.1l-0.1,0l0-0.1l0-0.1
		l-0.2-0.4l0-0.1l0.1,0l0.1,0.1l0.1,0l0-0.1l-0.1-0.1l-0.1-0.1l0-0.1l0,0l0,0v0l0,0l0-0.1l0,0l-0.1,0l0,0l0,0.1l0.1,0.2l0,0.1l0,0.4
		L147.8,121z M166.3,71.4l0-0.2l-0.2-0.2l0,0l0,0.2l0,0.1l0,0.1l0,0.1l0,0.1l0,0.1l0.1,0.1l0.2,0l0-0.1L166.3,71.4z M170.4,71.7
		L170.4,71.7l0-0.1l0,0l0,0l0-0.1l0-0.1l0-0.1l0,0l0,0l0,0.1l0,0l0,0l0,0l0,0.1l0,0l0,0l-0.1,0l0-0.1l0,0l0,0.1l0,0l0,0l0-0.1l0,0.1
		l0,0.2l0.1,0.1l0.2,0.1L170.4,71.7z M167,72L167,72l0-0.1l0,0l0,0l0-0.1l0-0.1l-0.1-0.1l-0.1-0.1l0,0l0.1,0l0-0.1l-0.1-0.1l-0.1,0
		l-0.1,0.1l0,0.2l0.1,0.2l0.1,0.2l0.1,0.1l0.1,0L167,72z M165.3,72.8L165.3,72.8l0.1,0.1l0.1-0.1l0-0.1l-0.1,0L165.3,72.8
		L165.3,72.8z M165.2,73.1L165.2,73.1l0,0.1l0.1,0.1l0,0l0,0l0,0l0,0l0,0l0,0l0-0.1l0-0.1l0,0l0.1,0l0-0.1l-0.1,0l-0.2,0.1l-0.1,0
		L165.2,73.1L165.2,73.1L165.2,73.1z M164.2,74L164.2,74l-0.1-0.1l0,0l0,0l0-0.1l0,0l0.1,0l0.1,0l0.1,0.1l0,0.1l0,0l0.1,0l0-0.1
		l-0.1-0.1l0-0.1l0,0l0,0l0,0l-0.3-0.2l-0.1,0l-0.1,0l0,0l0,0.1l0.1,0.2L164.2,74L164.2,74L164.2,74L164.2,74z M165.5,73.7
		L165.5,73.7l0-0.1l-0.1,0l0,0l0,0l-0.1-0.1l0,0.1l0.1,0.1l0.1,0L165.5,73.7L165.5,73.7z M163.9,74.5L163.9,74.5l-0.1-0.1l0-0.1l0,0
		l0-0.1l-0.2-0.1h-0.1l0,0.1v0.1l0,0l0,0.1l0,0.1l0,0l0.2,0l0,0l0,0l0.1,0l0-0.1L163.9,74.5L163.9,74.5z M164.6,74.5L164.6,74.5
		l0.1-0.2l0-0.1l-0.1,0l-0.1,0l-0.1,0.1l-0.1,0.1l0,0l0-0.1l0,0l0,0l0,0.1l0,0.1l0,0L164.6,74.5L164.6,74.5z M158.4,90.8L158.4,90.8
		L158.4,90.8l-0.1,0.1l0,0.1l-0.1,0.5l0,0.1l0.1-0.1l0,0l0,0l0.1-0.1l0.1-0.1l0-0.1l0-0.1l0-0.1l0-0.1l0-0.1L158.4,90.8l0.1,0
		L158.4,90.8L158.4,90.8l0.1-0.1l0,0L158.4,90.8L158.4,90.8z M158.2,91.6l-0.2,0.2l0,0.1l0.1,0l0.1-0.1l0-0.1V91.6L158.2,91.6
		L158.2,91.6z M146.7,100.6L146.7,100.6L146.7,100.6L146.7,100.6l0.1-0.2l0-0.1l0-0.1l0,0l-0.1,0l-0.1,0.1l0,0l0-0.1l-0.1,0l-0.1,0
		l-0.1,0.1l0,0.1l0,0.1l0,0.2l0.1,0.2l0.2,0l0.2-0.1l0-0.1L146.7,100.6L146.7,100.6L146.7,100.6L146.7,100.6z M149.2,122.6
		L149.2,122.6L149.2,122.6l0,0.1l0,0.1l0,0.1l0,0l0.1,0l0.1,0l0.1,0l0.1-0.1l0-0.1l0-0.1l0,0l0,0l0,0l0,0l0,0l0-0.1l0,0l0,0l0,0
		l0-0.1l0,0l-0.1,0l-0.1,0l0,0L149.2,122.6L149.2,122.6L149.2,122.6z M150.4,125.7l0-0.1l0-0.1l0-0.1l0,0l0,0l0,0l0,0.1l-0.2,0.3
		l0,0.1l0,0.1l0.1,0l0,0l0,0l0,0l0,0l0.1,0l0.1,0l0.1,0l0,0l0,0l0,0l0,0l0,0l0,0l0,0l0,0L150.4,125.7z M149.6,127.6l-0.1,0.1
		l-0.1,0.1l-0.1,0l0,0l0.1,0l0.1,0l0.1-0.1l0,0l0,0l0,0l0,0L149.6,127.6l0.2,0l0,0l0.2-0.3l0.1-0.1l0-0.1l-0.3,0.2L149.6,127.6
		L149.6,127.6z M150.3,127.4L150.3,127.4L150.3,127.4L150.3,127.4l-0.1-0.2l-0.1,0l-0.1,0l-0.3,0.4l0,0.1l0,0.1l0.1,0l0,0l0,0l0-0.1
		l0.1-0.3l0,0l0.1,0L150.3,127.4L150.3,127.4L150.3,127.4L150.3,127.4z M148.8,128.5L148.8,128.5L148.8,128.5l0.1-0.1l0,0l0.1-0.1
		l0.2-0.1l0,0l-0.2,0.1l0,0l0,0l0,0l0,0l-0.1,0l-0.1,0l-0.1,0l-0.1,0.1l-0.1,0.1l-0.1,0.1l0,0.1l0,0.1l0,0l0,0l0,0l0,0l0,0l0,0l0,0
		l0,0l0,0l0,0l0,0l0,0l0,0l0-0.1l0,0l-0.1,0l0,0l0,0.1l0,0l0,0l0,0.1l0,0.1l0,0.1l0,0.1l0,0.1l0,0l0,0l0,0l0,0l0,0l0-0.3l0,0.1l0,0
		l0,0l0-0.1l0-0.2L148.8,128.5L148.8,128.5L148.8,128.5L148.8,128.5L148.8,128.5z M150.1,129L150.1,129L150.1,129l-0.1-0.1l-0.1,0
		l-0.1,0l-0.1,0.1l0,0.1l0.1,0l0.1-0.1L150.1,129z M149.7,129.3L149.7,129.3L149.7,129.3L149.7,129.3L149.7,129.3L149.7,129.3
		L149.7,129.3L149.7,129.3z M150.2,129.4L150.2,129.4l0-0.1l0,0l-0.1-0.1l-0.1,0l0,0l0,0.1l0,0l0,0l0.1,0.1L150.2,129.4L150.2,129.4
		z M147.2,129.5L147.2,129.5L147.2,129.5l-0.5-0.2l-0.1,0l0,0.1l0,0l0,0.1l0,0.1l0.1,0.1l0.1,0.1l0.1,0l0.1,0l0-0.1L147.2,129.5
		l-0.1,0L147.2,129.5L147.2,129.5z M148.9,129.6L148.9,129.6l0.1,0.1l0,0.1l0,0.1l0,0l0,0l0,0l0,0.1l0,0l0,0l0.2-0.1l0.1-0.1l0-0.1
		l0-0.1l0,0l0,0l0,0l-0.1-0.1l0,0l0,0l0,0l0,0l-0.2,0l0,0L148.9,129.6L148.9,129.6z M149.5,130.3L149.5,130.3L149.5,130.3l0.1-0.1
		l0,0l0,0l0,0l-0.1,0l-0.1,0l-0.1,0.1l-0.1,0.1l0,0.1l0,0l0,0l0,0l0,0l0,0l0,0l0,0l0,0l0,0l0,0L149.5,130.3z M149.3,130.8l-0.1,0
		l0,0l-0.1,0l-0.1,0.1l0,0.1l0,0.1l0,0L149.3,130.8L149.3,130.8L149.3,130.8z M147.6,132.2L147.6,132.2L147.6,132.2l0,0.2l0,0.1l0,0
		l0,0l0,0h0l0,0l0,0l0,0l0,0l0,0l0,0l0-0.1l0,0l0-0.1l0.1-0.1l0.1-0.2l0,0l0,0l0,0l0,0l0-0.1l0-0.1l-0.1,0l-0.1,0l-0.1,0.1l-0.1,0.1
		l-0.2,0.1l0,0l0,0l0,0.1l0,0l0,0l0,0l0,0L147.6,132.2L147.6,132.2L147.6,132.2L147.6,132.2z M144.7,132.5l0,0.1l0,0.1l0,0.1l0,0
		l0,0.1l0,0.1l0,0.1l0,0l0,0l0.1,0.2l0,0l0-0.1l0-0.1l0,0l0,0l0-0.1l0-0.1l0-0.1l0-0.1l0-0.1l0-0.1l0-0.1l0-0.1l0-0.1l0-0.1l0-0.1
		l0-0.1l0,0l0,0l0,0l0-0.1l0,0l0,0.1l0,0.2l0,0.1l0,0L144.7,132.5L144.7,132.5z M146.6,132.7L146.6,132.7l0.1,0.1l0.1,0l0-0.1l0-0.1
		l0-0.1l0-0.1l0,0l0,0.1l0,0l0,0l0,0l0,0l0,0l0-0.1l0,0l0,0l0,0l0,0l0.2-0.1l0,0l-0.2,0l-0.1,0l-0.1,0l-0.1,0l0,0l0,0.1l0,0.1l0,0
		l0,0l0,0l0,0l0,0.1l0,0l0,0l0,0l0.1,0L146.6,132.7L146.6,132.7L146.6,132.7z M147.5,132.8L147.5,132.8L147.5,132.8l-0.1,0l-0.1,0
		l-0.1,0.1l-0.1,0.1l-0.1,0.1l0,0.1l0,0l0,0l0,0l0.1-0.1l0.1,0l0.1,0l0.1,0l0,0l-0.1,0l0-0.1l0,0l0,0l0,0l0,0l0.1-0.1l0.1-0.1l0-0.1
		l0,0L147.5,132.8L147.5,132.8z M141.2,137.7L141.2,137.7l0,0.1l0.1,0.1l0.1,0.1l0.1,0l0.1,0l0.1,0l0,0l0,0l0,0l0,0l0,0l0,0l-0.1,0
		l-0.1,0l-0.1-0.1l-0.1-0.1L141.2,137.7l0.1-0.1h0l0,0l-0.1-0.1l0,0l0,0l0-0.1l0,0l0,0l0,0l-0.1,0l0,0l0,0l-0.1,0l0,0l-0.1,0l0,0.1
		l0,0.1L141.2,137.7L141.2,137.7L141.2,137.7z M141.4,138.1L141.4,138.1l0,0.2l0,0.1l0,0l0.1,0l0-0.1l0-0.1l0-0.1L141.4,138.1
		L141.4,138.1z M136.6,155L136.6,155L136.6,155l-0.1,0l0,0l-0.1,0l-0.1,0.1l0,0.1l0.1,0.1l0,0l0,0l0,0l0,0l0-0.1l0-0.1L136.6,155
		L136.6,155L136.6,155L136.6,155L136.6,155L136.6,155z M119.2,141L119.2,141L119.2,141l0.1,0.1l0,0l0-0.1l0,0l0.1,0l0,0l0-0.1l0-0.2
		l0-0.1l0.1-0.1l0.1,0l0,0.1l0,0.1l0,0l0.1,0l0,0l0-0.2l0,0l0,0l0-0.1l-0.1,0l-0.1,0l-0.1,0.1l-0.1,0h-0.4l-0.2,0l-0.1,0l0,0.1
		l0,0.1l0.1,0h0.1l0.1,0l-0.1,0l-0.1,0l0,0l0,0.1l0,0.1l0,0.1l0,0.1l0,0.1l0,0L119.2,141L119.2,141z M119,139.9L119,139.9L119,139.9
		l0.1-0.2l0.1-0.1l0.1,0l0.1,0l0.1,0.1l0.1-0.1l0.2,0.1l0.2-0.2l0.1,0l0.1,0l0-0.1l0-0.4l0-0.2l0-0.2l-0.1-0.1l-0.1-0.1l-0.1-0.1
		l0-0.2l-0.1,0l-0.1,0l-0.1,0l0,0l0,0.1l0,0l0,0.1l0,0.1l0,0.1l-0.1,0l-0.1,0l-0.1,0l-0.1,0l-0.1,0.1l-0.1,0.1l-0.4,0.4l-0.1,0.1
		l0,0.1l0,0.1l0.1,0.1l0,0.1l0,0.2h0v-0.3L119,139.9L119,139.9L119,139.9z M151.7,140.7l-0.1,0l-0.1,0l-0.1,0l0-0.1l-0.1,0.1l-0.1,0
		l-0.1,0l0,0l-0.1,0.1l-0.1,0l-0.1,0l0,0.1l0,0.1l0,0.1l0,0.1l-0.1,0.1l0,0.1l0,0.1l0.1,0.3l0.1,0.1l0.1,0.1l0.1,0l0.1,0l0,0
		l0.1-0.2l0-0.1l0-0.1l0,0l-0.1,0l0.1-0.1l0.2-0.1l0.1-0.1l0.1-0.1l0.2,0.1l0.1-0.1l0,0l0,0l0,0l0,0L151.7,140.7L151.7,140.7z
		 M150.6,141.6L150.6,141.6l-0.1-0.1l0-0.1l0-0.1l0-0.1l0,0l-0.1,0l-0.1,0l-0.1,0l-0.1,0l0,0.1l-0.1,0l-0.1-0.1l0.1-0.1v0l-0.3,0
		l-0.1,0l0,0.1l0,0.1l0,0l0,0.1l-0.1,0.1l-0.1,0.1l0,0.2l-0.1-0.1l0-0.1l0-0.1l0,0l0,0l0,0l0,0l0,0l0,0l0,0l0,0l-0.1-0.1l-0.1-0.1
		l-0.1,0l-0.1,0l-0.1,0.1l-0.1,0.1l-0.1,0.1l-0.1,0.1l0,0.1l0,0.1l0,0.1l-0.1,0l-0.1,0l-0.1,0l-0.1,0l-0.2,0.1l-0.2,0.2l-0.6,1
		l-0.7,0.7l-0.1,0.2l-0.1,0.3l0,0.2l0,0.2l0,0.2l0,0.1l0,0l0,0.1l0,0l0,0.1l0,0l0,0l0,0l0,0l-0.1,0.1l0,0.1l0,0.2l-0.1,0.1l-0.2,0.1
		l-0.1,0.1l0,0.1l0.3,0.2l0.1,0.7l0.2,0.1l0,0l0,0.1l0,0l0.1,0l0,0.1l0,0.1l-0.1,0.1v0.1l0.1,0l0.1-0.1l0.1-0.1l0.1-0.1l0,0.1l0,0.2
		l0,0.1l-0.1,0.1l-0.2,0.1l-0.1,0.1l0,0.1l0,0.1l0,0.1l-0.3,0.5l0.1,0.1l0.1,0l0.4-0.2l0.1,0l0-0.2l0-0.1l0.1-0.1l-0.1-0.1v-0.1h0.2
		l-0.1-0.1l-0.1-0.1l0-0.1l0-0.4l0.1-0.1l0.3-0.2l0.1-0.1h-0.3l0.1-0.1l0.1-0.1l0.5-0.3l0.1,0v0h-0.1v-0.1l0.1-0.1l0.4-0.1l0,0
		l0.1-0.1l0-0.2l0,0l-0.1,0l0,0l0-0.1l0.1-0.1l0.2-0.1l0.1-0.1l0.1-0.1l0.1-0.1l0.1,0l0,0l0.1-0.1l0,0l0,0l0,0l0,0h0.1l0.1,0l0-0.1
		l0-0.1l0-0.1l0-0.1l0,0l-0.1-0.1l-0.1,0l0,0l0,0l0,0l-0.2,0l-0.2-0.1l0-0.1l0,0l-0.1,0l-0.1,0l0-0.1l0-0.1l-0.1-0.1l0-0.1l0.1-0.1
		l0-0.1l0-0.1l0-0.1l0-0.1l0-0.1l-0.2-0.1l0,0l0-0.1l0-0.1l0,0l0-0.1l0.1-0.2l0.1-0.3l0-0.1l0-0.1l0-0.1l0.1,0l0,0l0.1,0.1l0.1,0
		l0.2,0l0.2,0l0-0.1v-0.1l0-0.1l0-0.1l0-0.1l0,0l0.1,0l0,0.1l0-0.3l0.1-0.1l0.3,0l0-0.1L150.6,141.6z M142.5,145.8L142.5,145.8
		L142.5,145.8L142.5,145.8l-0.1-0.1l0,0l0,0h0l0,0.1l0,0l0,0l0-0.1l0,0l-0.1,0l-0.1,0.1l-0.1,0.2l-0.1,0.1l0,0.1l0,0.4l0,0.1
		l-0.1,0.1l-0.1,0l0,0l0,0.1l-0.1,0.6l-0.2,0.5l-0.2,0.4l-0.2,0.5l-0.1,0.3l-0.1,0.1l-0.1,0l-0.1,0l-0.1,0l-0.1,0.1l-0.7,1.8l0,0.2
		l0,0.1l-0.1,0.2l-0.1,0.2l0,0.1l0,0.7l0,0.1l0,0.1l0,0.1l0,0.1l0,0.3l0,0.2l0,0.2l0.1,0.2l0,0.1l0,0.2l0,0.1l0.1,0.1l0.1,0l0.1-0.1
		l0.1-0.1l0.2-0.5l0-0.1l0-0.1l0.1-0.1l0-0.1l0-0.2l0-0.1l0-0.1l0-0.2l0.1-0.2l0.1-0.1l0-0.1l0-0.1l0-0.1l0,0l0-0.1l0,0l0,0l0,0l0,0
		l0-0.2l0-0.1l0.1,0l0,0l0-0.1l0-0.1l0-0.1l0-0.2l0-0.1l0.2-0.8l0-0.2l0-0.1l0-0.1l0-0.1l0-0.1l0,0l0.2-0.1l0,0l0-0.1l0.1-0.4l0-0.1
		l0.1-0.1l0-0.1l0-0.2l0-0.1l0.1-0.2l0.1-0.1l0.1-0.1l0,0l0,0l0,0l0-0.1l0.1-0.1l0.1,0l0.1-0.1l0-0.2l0-0.1l0.2-0.3l0-0.1l0-0.1
		l0-0.1l0,0l0.1,0l0,0l0,0l0-0.1l0.1-0.2l0-0.1l-0.1-0.2l0.1-0.3l0.1-0.1L142.5,145.8L142.5,145.8L142.5,145.8z M171.3,70.8l0.2,0
		l0.1-0.1l0,0l0,0l0,0l0-0.1l0.3,0.1l0.1,0l0.1-0.2l0-0.2l-0.2-0.3l-0.1-0.4l-0.1-0.2l-0.1-0.2l0-0.2l0-0.2l-0.1-0.5l0-0.1l0-0.1
		l-0.1-0.1l0-0.1l0-0.1l-0.2-0.7l-0.1-0.1l-0.4-0.2l-0.1-0.1l-0.1-0.2l-0.1-0.5l0-0.3l-0.1-0.2l0-0.1l0-0.1l0-0.1l0-0.1l0-0.1l0-0.2
		l0-0.1l0-0.1l-0.1-0.2l0-0.1l0-0.2l0.1-0.2l0.1-0.1l0.1,0v-0.2l0.1-0.1l0.1-0.1l0.1-0.1l0-0.1l0.2-0.2l0.1-0.1l0-0.2l0-0.2l0-0.2
		l0-0.2l0-0.2l0-0.2l0-0.2l0-0.2l0-0.4l0-0.1l0.1-0.2l0.1-0.2l0.1,0l0.1,0l0.1,0l0-0.1l0-0.1l-0.2-0.5l-0.1-0.3l-0.1-0.2l-0.2-0.2
		l-0.2-0.5l-0.1-0.1l-0.1-0.1l-0.1-0.1l-0.1-0.2l-0.2-0.4l0-0.1l0-0.1l0-0.1l0-0.1l0-0.1l0-0.1l0,0l-0.1-0.2l-0.1-0.1l-0.1-0.1
		l0-0.2l0.1-0.1l0-0.1l0-0.1l0-0.1l-0.1,0l0-0.1l0-0.2l0-0.2l0.1-0.1l0.5-0.2l0.1-0.2l0.1-0.3l-0.1-0.1l0-0.3l0-0.3l0-0.2l-0.1-0.1
		l-0.1,0l-0.3-0.1l-0.3-0.2l-0.2,0l-0.2,0.1l-0.2,0l-0.1-0.2L169,53l0.1-0.2l0.1-0.2l0.1-0.2l0-0.1l0.1-0.1l0.2-0.1l0.1-0.1l0-0.3
		l0-0.2l-0.1-0.3l0-0.2l0-0.4l0-0.2l0-0.1l0-0.7l0-0.2l0-0.3l0-0.3l0.1-0.2l0.1-0.1l0.3-0.1l0.1-0.1l0.1-0.2l0-0.2l-0.1-0.1
		l-0.3-0.1l-0.4-0.5l-0.1-0.1l-0.3-0.3l0-0.1l0-0.1l-0.2-0.7l0-0.1l-0.1-0.1l-0.1,0l-0.4,0.3l-0.1,0l0-0.1l0,0l0,0l0-0.1l0-0.1
		l0-0.1l0-0.3l0-0.1l0-0.1l0-0.3l-0.1-0.2l-0.2-0.2l-0.1-0.1l0-0.1l0-0.1l0-0.1l-0.1-0.1l-0.6-0.4l-0.1-0.2l-0.2-0.4l-0.1-0.1
		l-0.3,0.1l-0.1-0.2l-0.1-0.2l-0.1-0.1l-0.1,0l-0.1,0l-0.1,0l-0.2-0.1l-0.2,0l-0.3-0.2l-0.3,0l0,0l0-0.1l0,0l-0.3-0.1l-1,0l-0.1-0.1
		l0-0.1l0-0.1l0-0.1l0,0l0,0l-0.1-0.1l-0.1-0.1l-0.1-0.2l0-0.1l-0.2-0.2l-0.8-0.2l-0.1-0.4l-0.2-0.2l-0.4-0.4l-0.3-0.1l-0.1-0.1
		l-0.1-0.1l-0.1-0.4l0-0.1l0-0.1l-0.1-0.1l-0.3,0l0,0l0,0l0-0.1l0,0l-0.1-0.1l-0.2-0.5l-0.3-0.3l-0.3-0.3l-0.7-0.3l-0.1-0.1l0-0.2
		l0.1-0.1l0.1-0.2l0-0.2l-0.1-0.2l-0.2-0.1l-0.3-0.3l-0.5-0.1l-0.2-0.2l-2.2,0.2l1,1.3l0,0.2l0,1l0,0.2l-0.1,0.2l-0.4,1.2l-0.4,0.6
		l-0.8,0.8l1.2,0.7l-1,1.3l-0.2,0.1l-0.2,0l-1.9-0.8l-1.9-0.9l-1.4,0.1l-0.2-0.1l-0.7-0.7l-0.2-0.1l-1.1,0.4l0,0.1l0,0.1l-0.1,1.1
		l0,0.3L147,45l-0.1,0.5l-0.8,1.6l-0.1,0.3l-0.1,0.2l-0.1,0l-2.4-1.5l-0.1,0.1l-0.3,0.6l-1.7,1.4l-0.1,0.2l-0.1,0.2l-0.6,2.5
		l-0.1,0.2l-0.4,0.7l-0.2,0.3l-0.3,0.1l-0.7,0.1l-0.1,0.1l-0.2,0.8l1.3,2.4l0,0.2l-0.1,1.4l-0.1,0.2l-0.1,0.1l-0.2,0.2l-0.8,0.8
		l-0.4,0.5l-1.5,3.1l-1,1.1l0,0.3l0.2,1.3l0,0.3l0,0.2l0,0.1l-1.8,1.3l-2.1,0.3l0.4,2.9l0,0.4l0,0.2l-0.3,0.7l0,0.2l-0.2,2.4l0,0.5
		l0,0.5l0,0.5l-0.1,0.3l-0.3,0.3l-0.1,0.2l-0.1,0.2l-0.1,0.9l-0.1,0.4l-0.6,0.9l0,0l-2.2,4l1.2,0.9l0.2,0.1l0.3,0.1l0.2,0.1l0.1,0.2
		l0.2,2.3l0,0.2l-0.1,0.2l-0.7,1.4l-0.1,0.1h-0.1l-3-0.8l-1.1,0.3l-1,0.6l-0.3,0.3l-0.8,1.4l-0.8,1.4l-0.5,0.6l0.2,1l0,0.2l-0.1,0.2
		l-0.9,1.5l1,2.7l-0.5,0.7l0,0.1l0,0.2l0.2,1.4l0,0.2l-0.1,0.3l-0.1,0.4l-0.1,0.3l0,0.2l0.8,2.3l0.1,0.4l0,0.5l-0.7,4.5l0.1,0.1
		l0.5,0.5l0.2,0.2l0.3,0.4l0.1,0.1l0.2,0l0.3,0l0.1,0.1l0.1,0.1l1.1,1.5l0,0.1l0,0.1l-0.1,0.8l-0.1,0.2l-0.1,0.2l-0.3,0.5l0,0.1
		l0,0.1l-0.1,0.6l0,0.1l-0.1,0l-0.5-0.1l-0.2,0l-1,0.3l-0.1,0.1l0,0.2l0.2,0.4l0.1,0.3l0.1,0.6l0.1,0.3l0.1,0.3l0.4,0.8l0.5,1.2
		l0.1,0.2l0,0.3l0,0.3l0,0.2l-0.1,0.2l-0.1,0.1l-0.2,0.3l-0.1,0.1l0,0.1l0,0.3l0.1,0.5l0,0.3l-0.1,0.4l-0.1,0.3l-0.2,0.3l-0.7,0.8
		l-0.6,0.5l-0.2,0l-0.7-0.1l-0.2,0.1l-0.2,0.2l0,0.3l0,0.1l0.1,0.2l0.1,0.1l0,0.1l0,0.3v0.2l0,0.1l-0.2,0.3l-0.1,0.1l-0.6,0.3
		l-0.1,0.1l0,0.2l0,0.2l0.4,1.6l0.1,0.5l0,0.2v0.2l0,0.1l-0.1,0.1l0,0.1l-0.1,0.5l0,0.4l0,0.2l-0.1,0.4l0,0.2l0,0.2l-0.1,0.4
		l-0.2,0.2l-0.3,0.1l-0.3,0l-0.1-0.1l0-0.5l-0.1-0.2h0l-0.1-0.1l-0.1-0.1l-0.1-0.2l0-0.2l-0.1-0.2l-0.1-0.1l-0.4,0.1l-0.1,0.1
		l-0.3,0.4l0,0.1l0,0.1l0,0.1l0.1,0l0.2,0l-0.2,0.1l-0.1,0.1l0,0.1l0,0.1l0.1,0.1l0.2,0.1l0,0.1l0,0l0,0l0,0.1l0,0.1l0,0.2l0,0.1
		l0,0l0,0l0,0l0,0.3l0,0.1l0,0.1l0,0.1l0,0.1l0,0.1l-0.1,0l0,0.1l0,0.1l0,0.1l0.1,0l0,0l0,0.1l0,0.2l0.2,0.2l0,0.1v0.1l0,0.1l0,0.1
		l0,0.1l0,0l0,0l0,0.1h0.1l0,0.1l0,0l0,0l0,0.1l0,0.1l0,0.2l0,0l0,0l0,0l0,0l0,0l0,0.1l0,0l0,0l0.2,0.1l-0.1,0.1l-0.1,0.1l0,0.1
		l0,0.2l-0.1,0l-0.1,0l0,0.1l0.1,0.2l0,0.1l0,0.1l0,0.1l0,0.1l0,0.1l0.1-0.2l0.1,0l0.1,0l0.1-0.1l0,0l0-0.1l0,0l0,0l0.1-0.1l0.2-0.3
		l0-0.1l0,0.1l0,0.1l-0.1,0.2l-0.1,0.3l0,0.1l0,0l0.1,0l0-0.1l0-0.1l0-0.1l0-0.1l0.1,0l0,0.2l0.1,0.1l0,0.1l-0.1,0l-0.1,0l0,0.1
		l0,0.1l0,0.1l0,0l0.1-0.1l0.1,0v0.1l-0.1,0.1l-0.1,0.1l0,0.1l0,0.1l0.3-0.2l0.1-0.1l0.1-0.2l0.1-0.2l0-0.3l0-0.3l0-0.2h0l0,0.1
		l0.1,0.3l0,0.1l0.1-0.1l0.1-0.1l0.1,0l0.1,0.1l-0.1,0.1l-0.1,0.1l-0.1,0.1l0.1,0.1l-0.2,0.3l-0.1,0.2l-0.1,0.2l-0.1,0.2l0,0.2
		l0,0.1l0.1,0l0-0.1l0,0l0,0l0.1,0l0.1,0l0.1,0l0,0l0.1-0.1l0,0l0,0l0.2-0.2l0.1,0l0.1,0l0-0.1l0.1,0l0.2,0l0.2-0.1l0.1,0l0.1,0.1
		l-0.2,0.1l-0.1,0.1l0,0.2l0,0.1l0,0.1l0,0.1l0,0.2l0,0.1l0.1,0l0.1,0l0,0.1l0,0l0,0l-0.1,0l0,0l0,0.1l0,0.5l0,0.1l-0.1,0l0,0.1l0,0
		l0,0l-0.1,0.1l0,0.1l0,0.1l0,0.1l0,0.1l0,0.1l-0.1,0.2l-0.2,0.3l0,0.1l0.1,0.1l0,0.1l0,0l0,0v0.1h0.1v0l-0.2,0.1l-0.1,0.1l0,0.2
		l-0.1,0l-0.1,0l-0.1,0.1l0.1,0l0.1,0.1l0.1,0.2l0.1,0.1l0.1,0l0.1,0l0.1,0l0,0.1l0,0.1l-0.4,0.4l0,0.1l0,0.1l0.1,0l0.1,0l0.1,0
		l0-0.1l0.1,0l0.2,0.1l0.1,0l0.1,0l0.1,0l0.1-0.1l-0.1,0.1l-0.3,0l0,0.2l0,0.1l0,0.1l0,0.1l0,0.1l0,0.1l0.1,0l0.1-0.1l0-0.1l0,0l0,0
		l0,0l0,0.2l0,0.4l-0.1,0.1l0,0l0.1,0.1l-0.1,0l0,0l0.1,0l0.1,0.1l-0.1,0l-0.1,0.1l0,0.1l0,0.1l0,0.1l0,0.1l0,0.1l-0.1,0.1l0,0l0,0
		l0,0l0,0l0,0.2h0.1l0.1,0l0,0.1l0.1-0.1l0.1-0.5l0.1-0.1l0,0l0,0l0,0l0,0l0,0l0.1,0.3l0,0.1l0,0.1l-0.1,0.1h0.2l-0.1,0.1l-0.1,0.1
		l-0.1,0.1l0.1,0.1l0,0l0.1,0l0,0l0,0l0,0l0,0l0,0l0,0l0,0.1l0,0.1l0,0.1l0,0v0.1l0,0l-0.1,0l0,0l0,0.1l0,0v0.1l0.1,0l0.1,0l0.1,0
		l-0.1,0l-0.1,0h-0.1l0.1,0.1l0.1,0l0.1,0l0.1,0l0,0l0,0.1l-0.1,0.1l0.1,0l0.1,0l0,0l0,0.1l0,0.2l0,0.1l0.1,0.2l0,0.1l-0.1,0.1
		l0.1,0.1l0,0l0,0.1l0.1,0.1l0.1,0.1l0.1,0.1l0,0.1l0,0.1l0,0l0,0l0,0.1l0,0l0,0l0,0.1l0,0l0,0.2l0,0.1l0.1,0.1l0.2,0l0.1,0.1l0.1,0
		l0,0l0.1,0.1l0,0l0.1,0l0,0l0,0v0l0,0l0,0l0.3,0.2l0,0.1l0,0.2l0.1,0.3l0.1,0.1l0.1,0.1l0.1,0.1l0,0.2l0,0.1l0.2,0.2l0.1,0l0.1,0
		l0.1,0l0.2-0.1l0.1,0l0.1,0l0.1,0.1l0.1,0.3l0.1,0.3l0,0.2l0,0.2l-0.1,0.2l-0.1,0.1l-0.1,0.1l-0.2,0.1l-0.5-0.2l-0.2,0.1l-0.1,0.3
		l0.1,0.2l0.4,0.3l0.1,0.3l0.1,0.2l0.2,0.1l0,0.1l0,0.1l-0.1,0.1l-0.1,0.1l-0.1,0l-0.2,0l0,0l-0.1,0l0,0l0,0l-0.1-0.1l0,0l0,0
		l-0.1-0.1l0,0l-0.8-0.4l0.1,0.1l0.2,0.1l0.1,0.2l0.1,0.2l0,0.1l0,0.2l0,0.1l0.2,0.4l0,0.1l0.4,0.5l0,0.1l0,0.1l0,0.1l0.1,0l0.1,0.1
		l0,0.1l0,0.1l0,0.1l0.1,0.1l0,0l0,0l0,0l0,0l0,0.1l0,0.1l0,0.1l0.1,0.2l0.2,0.1l0.1,0.1l0.1,0.3l0,0.1l0,0.1l0,0l-0.1,0l0,0.1
		l0.1,0l0.1,0l0,0.1l0.1,0l0.1,0l0.1,0.1l0.1,0.1l0.1,0.1l0,0.1l0,0.1l0,0.1l0,0.1l0,0.1l-0.3,0.2l-0.1,0.1l0,0.2l0,0.2l0.2,0.3
		l0,0.2l-0.1,0l0,0l0,0l0,0.1l-0.1,0.1l-0.1,0l-0.1,0l-0.1,0l0-0.1l0,0l0,0h0l-0.1,0.3l0,0.1l0.1,0l0.1-0.1l0.1,0l0,0l0.1,0l0,0l0,0
		l0.1-0.1l0,0l0.1,0l0.1,0l0,0l0.1,0.1l0,0l0,0l0.1,0l0.2,0l0.7,0.3l0.1,0l0.3,0l0.1,0l0.4-0.3l0.1,0l0.2,0l0.1,0l0.1-0.1l0-0.1
		l0-0.1l0.1,0l0.6,0l0.2,0l0.1,0l0.1,0l0.1-0.1l0.1,0l0.1,0l0.1,0l0.3,0.2l0.1,0l0.1,0l0.3,0l0.1,0l0.1-0.1l0.1-0.1l0.2-0.3l0.1-0.1
		l0.1-0.1l0.2-0.3l0.1-0.1l0-0.2l0-0.1l-0.2-0.3l-0.1-0.1l0-0.1l0-0.1l0-0.1l0-0.1l0-0.1l-0.1-0.1l-0.2-0.1l-0.1-0.1l0-0.1l0-0.1
		l0-0.3l0-0.3l0.1-0.3l0.2-0.2l0.2-0.1l0-0.1l0-0.1l0.1-0.1l0.1-0.1l0.1,0l0.1-0.1l0.2-0.2l0.1-0.2l0.1-0.1l0.1,0l0,0l0.1-0.1l0.1,0
		l0,0l0,0l0,0.1l0.1-0.1l0,0.1l0,0.1l0,0.1l0,0l-0.1,0.1l0,0l0,0l0.1,0l0,0l0,0l0,0l0,0l0-0.1h0.1l0,0.1l0,0l0,0l0-0.1l0-0.1l0.1,0
		l0,0l0-0.1l0-0.1l-0.1-0.2l0-0.1l0-0.1l0-0.1l-0.1,0l0,0l0-0.1l0-0.1l0-0.1l0.1-0.1l0.1,0l0.2,0l0.1,0l0.1,0.1l0.1,0.1l0.1,0l0-0.1
		l0.1,0l0.1,0l0.1,0l0.1-0.1l0.1,0l0.3,0.1l0,0l0-0.1l0,0l0,0l0.1,0l0,0l0,0l0,0.1l0,0h0.2l0,0l0,0l0,0l0,0l0.1,0.1l0.2,0l0.2-0.1
		l0.1-0.1l0.1,0.2l0,0.1l0,0l-0.1,0l0.1,0l0.1,0l0.2,0l0,0l0,0l0-0.1l0.1-0.1l0,0l0.1,0l0.1,0l0,0l0,0.1l0,0l0.1,0.1l0,0l0-0.1l0,0
		l0.2-0.1l0.2-0.1l0.1,0l0,0l0,0.1l0,0.1l0,0l0.1,0.1l0.1-0.1l0.1-0.1l0.1-0.1l0,0l0.1,0.1l0.1,0l0,0l0,0l0,0l0,0l0.1,0.1l0.1,0
		l0.2-0.1l0.1,0.1l0,0.1l-0.1,0.3l0.1,0.1l0.1,0.1l0.1,0l0.1-0.1l0.2-0.5l0.1-0.1l0.2-0.2l0.1-0.1l0-0.1l0-0.1l0-0.1l0,0l0,0
		l0.2-1.2l0.1-0.3l0.2-0.4l0-0.1l0-0.1l0.1,0l0-0.1l0-0.2l0-0.2l0-0.1l0,0l0,0l0.1-0.2l0-0.1l0,0l0,0l0.1,0l0.1,0l0.1,0.1l0.1,0
		l0.1,0l0.1-0.1l0-0.1l0-0.1l0-0.2l-0.1-0.2l0-0.1l0,0l0.1,0l0.1-0.1l0.1,0l0.1,0l0.1,0.1l0,0l0,0l0-0.1l0-0.1l0,0l0,0l0,0.1l-0.1,0
		l-0.1,0l0-0.1l0-0.1l0.1-0.4l0-0.1v-0.1l0-0.2l0,0l0.1-0.2l0-0.1l0-0.1l0-0.1l0-0.1l0-0.2l0-0.1l0.1-0.1l0.1,0v-0.1l0,0l0,0l0,0
		l0-0.1l0.1,0l0.1,0l0.1,0l0,0l0,0l0,0l0,0l0,0l0,0l0,0l0,0l0,0l0,0l0,0l0,0l0,0l0,0l0,0l0.1,0.1l0.1,0l0-0.1l-0.1-0.1l0-0.1l0.1,0
		l-0.1-0.2l0-0.1l0,0l0,0l0,0l0-0.1l-0.1-0.2l-0.1-0.2l0-0.2l0-0.2l0.1-0.1l-0.1-0.3l0.1-0.1l0.3-0.2l-0.1-0.1l0,0l0,0l0-0.1
		l-0.1-0.1l0.1-0.2l0.1,0l0.2,0.1l0-0.1l0-0.1l0.1,0l0.1,0l-0.1,0l-0.1-0.1l0-0.1l0-0.1l0.1,0l0.1,0l0,0l-0.1-0.1l0.1,0l0-0.1
		l-0.1-0.2l-0.1-0.3l-0.2-0.1l-0.3,0v0h0.1v-0.1l-0.1-0.1v-0.1l0,0l0.1-0.1l0,0l0,0l0-0.1l0,0l0,0l0,0l0,0l0,0.1v0.1l0,0.1l0,0l0,0
		l0.1-0.1l0-0.1l0,0l0,0l0,0l0-0.1l0-0.1l-0.1,0l0,0l0-0.1l0.1,0l0.1,0l0-0.1l0-0.1l0-0.1l-0.1-0.1l0-0.1l0.1,0.1l0.1,0.1l0.3,0
		v-0.1h-0.1v-0.1h0.1l0-0.1l-0.1-0.1l-0.1,0l-0.1,0l0.1-0.1l-0.1-0.1l-0.1-0.2l0,0l-0.1,0l0,0l0-0.1l0-0.1l-0.2-0.2l-0.2-0.2
		l-0.1-0.1l0-0.1l0-0.1l0.5,0.4l0.3,0.5l0.1,0.1l0.2,0.1l0.1,0l0-0.1l-0.1-0.1l-0.9-1v-0.1l0.1,0l0,0l0-0.1l-0.1-0.1l0.2,0.1
		l0.1,0.1l0.1,0.1l0,0l0-0.1l0-0.1l0-0.1l0,0l0-0.1l0,0l-0.2-0.1l-0.1-0.2l0-0.1l0-0.1l0-0.1l0,0l0,0l0.5,0.6l0,0l0,0l0,0l0,0l0,0.1
		l0,0.1v0.1l0,0.1l0.2,0l0.1,0l0-0.1l0-0.2l0,0l0.1,0.2l0.1,0.1l0.1,0l0.1,0l0-0.1l0-0.1l-0.1-0.1l0-0.1l0.2,0.1l0.1,0l0-0.1
		l-0.1-0.1l0,0l0-0.1l0-0.1l0,0l0,0.1l0,0l0-0.1l0-0.2l-0.1,0l-0.1,0l-0.1-0.2l0-0.1l0.1-0.1l0.1,0l0.1,0.2l0.1,0.1l-0.1-0.1l0,0
		l0.1-0.1l0,0.1l0,0l0,0l0-0.1l-0.1-0.1l-0.1,0l-0.1,0l-0.1-0.1l0.1,0l0,0l0-0.1l0-0.1l0.1,0l-0.1-0.2l-0.1-0.2l-0.1-0.2l0,0l0.1,0
		l0,0l-0.1-0.1l-0.2-0.2l-0.1-0.1l0.2,0.1l0.2,0.3l0.2,0.2l0.1-0.3l0,0l0-0.1l0,0l0,0l0.1,0l0,0l0,0l0-0.1l0-0.1l0-0.1l0-0.1
		l-0.1-0.1l0,0l0,0l-0.3-0.2l-0.1,0v-0.1l0.2,0l0,0l0,0l0-0.1l0,0l0,0l0,0l0.1,0l0,0l0-0.1l-0.1,0l-0.2,0.1l0,0.1l0,0.1l0,0l0,0
		l-0.1,0l0-0.1l0-0.1l-0.1-0.1l-0.2-0.1l-0.1-0.1l0.6,0.1l0-0.2l0,0l-0.1,0l0,0l-0.1,0l-0.1,0l0,0l0-0.1l0-0.1l0-0.1l0-0.1l0-0.1
		l-0.1,0l-0.1,0l-0.9-0.5l-0.1,0l0.1-0.1l0.4,0.1l0.2,0.2l0.5,0.1l0,0l0.1,0l0,0l0,0l0.1-0.1l0,0l0.1,0l0.1-0.1l0.1-0.1l0-0.1l0.1,0
		l0.2,0l0.1-0.1l-0.2-0.2l-0.2,0l-0.1,0l0-0.1v-0.1h-0.1v0l0,0l0,0l-0.1,0l-0.1-0.1l0-0.1l0-0.1l-0.1,0l-0.1-0.1l0,0l0,0.1l0,0
		l-0.1-0.1l-0.2,0l-0.1,0l-0.1-0.1l-0.1,0l-0.5,0l-0.1-0.1l-0.2-0.1l-0.1,0l0,0.1l0,0.1l0,0.1l0,0.1l0,0l-0.1,0l0,0l0-0.1l0-0.1l0,0
		l0,0l-0.1-0.1l-0.1,0l-0.1,0l-0.1,0.1l-0.1,0.1l-0.2-0.1l-0.1,0.1l0-0.1l0,0l-0.1,0l-0.1,0v-0.1l0.1,0l0.2,0l0.1,0l0-0.1l0-0.1
		l0-0.1l-0.1,0v-0.1l2.9,0.4l0.4-0.1l0.1,0l-0.1-0.1l-0.1-0.1l-0.2,0l0.1-0.1l0.2,0l0.2,0.2l0.1,0l0.1-0.1l0.1-0.1l0.1-0.1v-0.1
		l-0.1,0l-0.2,0l-0.1-0.1l0,0l0-0.1l0-0.1l0-0.1l0-0.1l-0.1,0l-0.1,0l0.1,0l0.1-0.1l0,0l0.1,0l0.1,0.1l0,0.1l0.1,0l0.5,0v-0.1l0.1,0
		l0.2,0l0.1-0.1l0-0.1l-0.1-0.2l0.5,0.1l0.1-0.1l-0.1-0.1l0,0l0,0l0-0.1l0-0.1l0-0.2l0-0.1l-0.1-0.1v-0.1l0.1,0.1l0.3,0.3l0.1,0l0,0
		l0,0h0.1v-0.1l-0.1-0.1l-0.1-0.1l0-0.1l0.1,0l0.1,0l0.1,0l0.1-0.1l0-0.1l-0.1-0.1l-0.1,0l0-0.1V133l0,0l0,0l0,0l0,0l0,0l0,0l0,0
		l0,0l0-0.1l0-0.2l0-0.1l-0.1-0.1l0-0.2l0-0.2l0-0.2l0.1,0l0.1-0.1l0.1-0.1l0.1-0.1l-0.1-0.3l0,0.1l0,0.1l0,0.1l0,0.1l0,0.1
		l-0.1,0.2l0,0.1l0.1,0.2l0,0l0,0l0-0.1l0-0.3l0-0.1l0-0.1l0.1,0l0,0l0,0.1l-0.1,0.2l0,0l0,0.1l0,0.2l0,0.2l-0.1,0.1v0.1l0,0.2
		l0,0.2l0,0.2l0.1,0.1l0,0.1l0,0.1l0,0.1l0,0l0,0l0-0.1l0-0.1l-0.1-0.1l0-0.2l0-0.1l0.1,0.1l0.1,0.2l0,0l0.1,0l0,0l0,0l0,0l0,0l0,0
		l0,0.1l0,0.1l0,0.1l0,0.1l0.1,0.1l0-0.2l0-0.1l0-0.1l0.1,0l0.1,0l0.1,0l0.1-0.1l0-0.1l0-0.1l0-0.1l0-0.1l0.1-0.2l0.1-0.2l0.1-0.1
		l-0.1-0.1l0-0.1l0.1,0l0.1,0.1l0,0l0-0.1l0,0l0.2,0l0.1,0l0.1-0.2l0-0.1l0.1,0l0.1,0l0.1,0l0.1-0.1l0.1,0l0.1,0l0.1,0v0.1l0,0l0,0
		l0.1,0.1l-0.1,0l-0.1,0.1l-0.1,0l0.1,0l0.4-0.2l0-0.1l0,0l0,0l0,0l0.1-0.1l0.2-0.1l0.2,0l0.1,0l0,0l0,0l0-0.1l0-0.1l0-0.1l0,0
		l-0.1,0.1v-0.1l0,0l0,0l0,0l0,0l-0.1,0.1l0-0.1l0-0.1l0-0.1l-0.1,0l-0.1,0l-0.1-0.1l0-0.1l0.1,0l0.4,0.3l-0.1-0.1l-0.1-0.1
		l-0.1-0.1l-0.1,0l-0.2-0.1l0-0.1l0,0l0.1,0v-0.1l0-0.1l0-0.1l0-0.1l-0.1,0l0.1-0.1l0.1-0.1l0.1,0l0.1,0l0,0l0,0.1l0,0l0.1,0.1
		l0.3-0.1l0.1,0l0.1,0l0.1,0l0.1,0l0.1,0l0.1,0l0.1,0l0.2,0l0.1-0.1l0-0.1l-0.1-0.1l-0.1-0.1l-0.1,0l-0.1-0.1l0.1,0l0.1,0l0.1,0
		l0-0.1l-0.3-0.2l0,0l0-0.1l0,0l-0.1-0.1l-0.1,0l-0.2,0l0,0.1l0.1,0.1l0.2,0.1h-0.2l0,0.1l0.1,0.3l0,0.1l-0.1,0l-0.1,0l0,0l0-0.1
		l0,0l-0.2-0.1l-0.3-0.1l-0.3,0.1l-0.1,0.4h0l0-0.1l0,0l-0.1,0.1l-0.6,0l-0.1-0.1l-0.1,0l-0.2,0.2l-0.1,0.1l0,0l0,0.1l0,0l0,0l0,0.1
		l0,0l0,0.1l0,0.1l0,0l-0.1,0l0-0.2l-0.2-0.1l-0.4,0v0.1l0.2,0.1l0,0.1l-0.1,0.1l-0.1,0l-0.1,0l0.1-0.1l0,0l0,0l-0.1,0l0,0l0,0
		l0-0.1l-0.3-0.1l-0.1,0l-0.1,0.1l0.1,0.1l0,0.1l0,0.2l0,0.1l0-0.1l-0.1-0.2l0,0l-0.1,0l-0.2-0.1L144,130l-0.2-0.1l-0.3-0.1l0.1,0.4
		l0.1,0.1l0.1,0.1v0.1l-0.8-0.1v-0.1l0.2,0l0.1,0l0-0.1l0-0.1l-0.2-0.3l0.3-0.1l0-0.1l0-0.1l-0.1-0.1l-0.2,0l-0.4-0.1l-0.2,0
		l-0.2,0.1l0,0l0-0.1l0,0l-0.3-0.2l0,0l0-0.1l0-0.1l0-0.1l-0.1-0.1l0,0l0,0l-0.1-0.1l-0.2-0.2l-0.1,0l0,0.1H141l0,0l-0.1,0l0,0l0,0
		l0,0l0,0l0.1,0.1l0.5,0.4l0,0l0.1,0l0,0l0,0l0,0.1l0,0l0,0h-0.3l0,0l-0.1-0.2l-0.3-0.3l-0.1-0.1l-0.1-0.1l-0.1,0.1l-0.1,0.1
		l-0.1,0.1l-0.1,0l-0.1-0.1l-0.1,0l0,0l0,0.1l0,0l0,0l-0.1,0l0,0l-1.3,0.1l-0.2,0l-0.2-0.1l-0.2-0.1l-0.1-0.2l0.4,0.2h0.5v-0.1h-0.1
		v-0.1l0.1-0.1l0.1,0l0,0.1l0,0.1l0.1,0.1l0.1,0l0.1,0l0-0.1l0,0l0.1,0l0,0l0.1-0.1l0,0l0,0l0.2,0.1l0.1,0l0.1-0.1l-0.2-0.1l0.1,0
		l0.1,0l0.1,0l0.1-0.1l-0.1-0.1l-0.1-0.2l-0.1-0.1l0.1-0.1l0.1,0l0,0l0,0l0.1,0.1l0.1,0.1l0.1,0.1l0.1,0.1l0.1,0.1l0.1,0.1l0.1,0
		l0.1,0l0.1,0l0,0l0-0.1l0-0.1l0.1-0.1l0,0l0,0l0-0.1l0-0.1l0,0l0.3,0.1l0,0l0,0l0,0l0,0l0,0l0,0l0,0l0,0l0.1,0.2l0,0l0.5,0l0-0.1
		l-0.2-0.2l-0.1-0.1l0.1,0l0,0l0.1-0.1l0,0l0,0.1l0,0.1l0.1,0.1l0,0l0,0l0,0l0.1,0.1l0.1,0.1l0.2,0l0,0.1l0,0.1l0.5,0.4l0.1,0l0-0.1
		l0-0.1l0,0l0,0.1l0.1,0.2l0,0l0-0.1l0-0.1l-0.1-0.2l0.1-0.1l0-0.2l-0.1-0.2l0-0.1l-0.1-0.1l0-0.1l0,0l0.1,0l0-0.1l0-0.1l0-0.1
		l0,0.1l0,0.1l0,0.1l0.1,0l0,0l0.1,0.2l0.2,0.2l0,0l0,0l0.1-0.1l0,0l0.1,0l0,0.1l-0.1,0.1l-0.1,0.1l0,0.1l0,0.1l0,0l0.1,0l0,0l0,0
		l0,0l0-0.1l0,0l0.1,0l0.3,0.1l0.1,0l0,0.1l0.1,0.2l0.1,0.1l0.1,0l0-0.1l0-0.1l0.1-0.1l0.2-0.3l0-0.1l-0.1-0.3l0-0.1l-0.1-0.1
		l-0.1,0l-0.1,0l-0.4-0.3l-0.2-0.2l0-0.1l0-0.1l0.2-0.2l0,0l0,0l0,0l0.1-0.2l-0.1-0.1l-0.3,0l0.1,0l0,0l-0.1,0.1l-0.1,0l-0.1,0.1
		l0,0.1l0,0.2l0,0.1l-0.1,0.1l0.1,0.1l0.1,0.2l0,0.2l0,0.1l-0.1-0.1l-0.1-0.4l-0.1-0.1l0-0.2l0-0.1l-0.1,0l0-0.1l0-0.1l0-0.1
		l0.1-0.2l0-0.1l0,0l-0.3,0l-0.1,0l-0.1-0.1h0.6l0.1,0l0.1-0.1l0.1-0.2l0.1-0.2l0,0.1l0,0.1l0.1,0.1l0,0.2l0.1,0.1l0.1,0.1l0.1,0.1
		l-0.1,0l0,0.1l0,0.1l0,0.1l0,0.1l-0.1,0.1l-0.1,0l-0.1,0l0.1,0.1l0.1,0.1l0.1,0l0.1,0l0.2,0.1l0.1,0l0-0.1l0-0.1l0-0.2l0-0.1
		l0.1-0.1l0,0.1l0,0.1l0,0.1l0,0.1l0,0.2l0,0.1l0.1,0.1l0,0l0.1,0l0,0l0,0.1l0,0l0,0v0.1l0,0l0,0l0,0l0,0.1l0,0.1l0,0.1l0,0.1
		l-0.1,0.1l-0.1,0.1l-0.1,0.2l0,0.2l-0.1,0.3l0.1,0.3l0.2,0.2l0.2,0.1l0.1,0l0.3-0.1l0.5,0.1l0.1,0l-0.6-0.6l0,0l0.1,0.1l0,0l0,0
		l0.1-0.1l0-0.1l0-0.1v-0.1l0,0l0,0l0.1-0.1l0,0l0,0l0,0.1l0,0l0.1,0l0.1-0.1l0.1,0l0,0.1l0,0.2l0,0.1l0,0l-0.1,0l-0.1,0l0,0
		l0.1,0.1l0.2,0.1l0.2,0l0.1-0.1l-0.1,0l-0.1,0l-0.1-0.1l0-0.1l-0.1-0.1l-0.1,0l0.1,0l0.1,0l0.1-0.1l-0.1-0.1v-0.1l0.3,0l0.1,0
		l0.1-0.1l0.2-0.3l0.1-0.1l0.2-0.1l0.2-0.2l0.2-0.1l0.1-0.1l0.1,0l0,0l0-0.1l-0.1-0.2l0.1,0l0,0l0,0l0,0l0,0l0.1-0.1l0-0.1l0-0.1
		h-0.2l0,0l0,0l0-0.1l0-0.1l0,0l0.1,0l0-0.1l0.1-0.1l0.3-0.1l0.1-0.1l0.1-0.1l0.1-0.1l0,0l0,0.1l0,0.1l0.1,0l0.1,0l0.3-0.1l0.1-0.1
		l0.1-0.1l0-0.2l-0.2-0.1l-1.1,0l-0.2,0.1h-0.1l0-0.1l0.1-0.1l0.1,0l0.2,0l0.1,0l0.1-0.1l0.3-0.4l0-0.1l0-0.1L150,125l0-0.1l0.1,0.1
		l0.1,0.2l0.3,0.5l0.1,0l0.1,0l0-0.1l0-0.3l0-0.1l-0.1,0l-0.1,0l0,0l0,0.1l0,0l0,0l0,0l-0.1-0.1l0,0l0-0.1l0,0l0,0l-0.1-0.1
		l-0.1-0.1l-0.2-0.1l-0.1-0.1l-0.1-0.4l-0.2-0.6l0-0.1l0-0.1l0-0.1l0,0l-0.1,0l-0.2,0.1l-0.1,0.2l0,0.2l0.1,0.2l0.1,0.2l0-0.1
		l-0.2-0.3l0-0.1l0-0.3l0-0.1l-0.1-0.1l-0.1,0l-0.1-0.1l-0.1,0l-0.1,0l-0.1,0.1l0,0.1l0,0.2l0,0.2l0,0.1h0l0-0.1l-0.1-0.3l0-0.1
		l0-0.3l0,0l0,0.1l0,0l-0.1,0h-0.1l-0.1,0l-0.1-0.1l-0.2-0.1l-0.1-0.1l0-0.2l0.1,0.1l0.1,0l0.1,0l-0.1-0.2l-0.2-0.2l-0.2-0.2
		l-0.1-0.3l0.2,0.4l0.1,0.2l0.7,0.3l0.2-0.1l-0.2-0.2l-0.6-0.2l0-0.1l0,0l0.1,0l0.1,0v-0.1l-0.1-0.1l0,0l0-0.1l0-0.1l0-0.1l0,0
		l-0.1-0.1l-0.3,0l-0.1-0.1l-0.1,0l-0.1,0l-0.1,0l-0.1,0.1l-0.1,0.1l0-0.1l0,0l-0.1-0.1v-0.1l0.1-0.1l0.1-0.1l0.1,0l-0.3-0.1
		l-0.1-0.1l-0.1-0.2l0,0l0-0.1l0,0l-0.1-0.1l-0.2-0.2l-0.1-0.1l-0.1,0v-0.1l0,0l0-0.1l0-0.1l0-0.1l-0.1-0.3l-0.1-0.1l-0.1,0
		l-0.4,0.1l-0.2,0.2l-0.1,0.2l0.1,0.2v0.1l-0.3,0l-0.1-0.1l-0.1-0.2l0-0.1l-0.1-0.2l0-0.1l0,0l0.1-0.1l0.1-0.1l-0.1-0.1l-0.2-0.1
		l-0.1-0.1l-0.1-0.1l-0.1,0l-0.6,0.1l-0.1,0l-0.1,0.1l-0.1,0l-0.1,0l-0.1,0v-0.1l0.2-0.1l-0.2-0.2l-0.1-0.1l-0.1-0.1l-0.1,0l0,0
		l-0.1,0l0,0l0,0l0,0l0,0l0.1,0l0.2-0.1l0.1-0.1l0.1-0.1l0.1-0.1l0.1-0.1l0,0l-0.1,0l-0.1,0l-0.1-0.1l0-0.1l0-0.1l0-0.1l0,0l0,0l0,0
		l0-0.1l0,0l0,0l0,0l0,0l-0.2-0.5l0,0l0,0l-0.1,0l0,0l0-0.1l0-0.1l0-0.1l0,0l-0.1,0l-0.1-0.1l0,0l0-0.1l0-0.2l0.1-0.1l0.3-0.1
		l-0.1-0.1l-0.1,0l-0.2,0l0,0l0.1-0.1l0,0l0,0l0,0l0-0.1l0-0.1l0-0.1l0,0l0,0l0,0l0-0.1l0-0.1l0,0l-0.1,0l0,0l0.1,0l0-0.1l0-0.1
		l-0.1-0.1l0.1-0.1l0-0.1l0-0.2l-0.1-0.1l0.1-0.1l0.1-0.1l0.1-0.1l-0.1-0.2l-0.1-0.1l-0.1-0.2l-0.1-0.1l-0.1-0.1V113l0.1,0l0.1,0
		l0.2,0.2l0.1,0l0.2,0l-0.1-0.1l-0.1,0l-0.1-0.1l-0.1-0.2l0.3,0.1l0.1,0l0.1,0l-0.3-0.2l0-0.1l-0.1-0.1l-0.1-0.1l-0.1-0.2l0-0.1
		l0-0.1l0.1-0.1l0-0.2l0,0l0,0.1l0,0.1l0-0.1l0,0l0,0l0,0l0,0l0-0.1l0-0.1l0,0l0,0l0,0.1l0,0h-0.1l0,0l0-0.1l0-0.1l0-0.1l0-0.1l0,0
		l0-0.1l0-0.1l0,0l-0.2-0.1v-0.1h0.2v-0.1l0,0l-0.1,0l-0.1-0.1l-0.1,0l0,0l0,0l0.4,0v-0.1l-0.4-0.1l-0.1-0.1l0.2,0l0.2-0.1l0-0.1
		l-0.1,0l-0.1,0v-0.1l0.3,0l0.1,0l0.2,0.1l0.1,0l0.1-0.1l-0.1-0.1l-0.5-0.1l0.1-0.1l0.2,0.1l0.1-0.1l-0.1-0.1l0,0V110l0.1,0l0.2,0
		l0.1-0.1l0-0.1l-0.3-0.2l-0.1,0l-0.1,0l-0.1-0.1l0.4,0l0.2,0l0.2,0.1l0,0.1l0.1,0.1l0.2,0l-0.1-0.2l0-0.1l0-0.1l0.1,0.1l0.1,0.1
		l0.2,0.4l0.1,0.1l0.1,0.1l0.1,0l0.1,0l0.1-0.1l0-0.1l0-0.2l0-0.1l0-0.1l0-0.1l0-0.1l-0.1-0.1l-0.1-0.1l-0.1,0l-0.1,0l-0.2,0.1l0,0
		l0-0.2l0-0.1l0-0.1l0-0.1l-0.1,0v-0.1l0,0l0,0l0-0.1l0-0.1l-0.2,0.1l-0.1,0l0,0l0,0l0,0l0,0l0-0.1l0,0l0,0l0,0l0,0v-0.1l0-0.1l0,0
		l0,0l0.1,0l0-0.1l0-0.1l-0.1-0.2l0-0.1l0-0.1l0-0.1l0-0.1l0,0l0.1,0l0-0.1l0-0.1l0-0.1l0,0l0.2,0l0,0l0-0.1l-0.1-0.1l0,0l0.1-0.2
		l0-0.1l-0.1-0.1l0.1-0.1l0-0.1l0-0.1l0-0.2l0-0.1l0.1-0.2l0-0.1l0-0.1l0-0.1l0-0.1l0-0.1l0-0.1l0.1-0.1l0.1,0l0.1,0l-0.1,0.2l0,0
		l0.1,0l0.3-0.2l-0.1-0.1l-0.1-0.1l-0.1,0l-0.1,0l-0.4-0.2l0.1-0.1l0,0l0,0v-0.1l0-0.1l0-0.1l0-0.1l0-0.1l-0.1-0.1l-0.1,0l-0.1,0
		l-0.1,0l-0.1-0.1l0-0.1l0-0.1l0-0.1l0-0.1l0-0.1l0-0.1l0,0l0.1,0l0,0l0,0l0-0.1l0-0.1l0-0.1l0,0l-0.2-0.3l0-0.1l0-0.1l0.1-0.1
		l0.1,0l0.1-0.1l0-0.2l0.1-0.1l0,0l0.2,0.3l0.2,0.4l0,0l0.1,0.1l0.1,0l0.1,0l0.5,0l0-0.1l-0.1,0l-0.1-0.1l0-0.2l0.1-0.1l0.1-0.1
		l0.2-0.1h0.2l0,0l0.1,0.1l0,0l0.1,0l0.1-0.1l0.1-0.2l-0.1-0.1l0.1,0l0,0l0-0.1l0-0.1l0-0.1l0-0.3l0-0.1l0,0l0.1,0l0,0l0,0.1l0,0.3
		l0,0.1l0,0l0.3-0.3l0.1,0l0,0l0-0.1l0-0.1l0-0.1l-0.6-0.3l-0.1-0.1h0.3l0,0l0.1,0.1l0,0l0,0l0,0l0,0l0-0.1l0-0.1l0-0.2l0-0.1l0-0.2
		l-0.1-0.2l0-0.1l0-0.2l0,0l-0.1-0.1l0-0.1l-0.2-0.1v-0.1l0.1-0.2l-0.1-0.3l-0.1-0.3l-0.1-0.2l-0.1-0.2l-0.5-0.5l0.1,0l0.1,0.1
		l0.1,0.1l0.1,0l0.1,0l0.1-0.1l0.1,0l-0.1,0.1l0,0l0.1,0l0.1,0l0,0.1l0,0.1l0.1,0.3l0,0.1l0.1,0l0.1,0l0.1,0l0,0.1l0,0l0,0.1l0,0
		l0,0.1l0,0.1l0,0l0,0.3l0,0.1l0,0l0.1,0.1l0.1,0l0,0l0.1-0.1l0.1-0.1l0.1-0.1l0.1,0l0,0l0,0l0,0l0,0l0.1,0.1l0.1,0.1l0.2,0.1
		l-0.1,0.2l-0.4-0.1l-0.1,0.2l0.2,0l0.1,0l0.1,0.1l0,0l0,0.1l0.2,0l0.1,0l0.1-0.1l0-0.1l0-0.1l0-0.1l0.1,0l0,0l0,0.1l0,0.1l0,0.1
		l0,0.1l0,0l0-0.1l0,0l0.1,0l0.1-0.1l0.1-0.3l-0.1-0.1l-0.1,0.2l-0.1-0.1l0-0.1l0-0.1l0-0.1l0,0v-0.1h0.2l0-0.1l0,0l0.1,0l0.1,0.1
		l0.1,0.2l0,0.1l0,0l0,0l0,0l0.1,0l0.1,0l0,0l0.1,0l0,0l0,0l0,0l0.1,0l0,0l0-0.1l0-0.1l0-0.1l-0.2-0.1l-0.1-0.1l0.3,0.1l0.2,0l0-0.2
		l0-0.1l-0.1,0l-0.2,0.1l-0.1,0l-0.2-0.2l0-0.2l0.1,0l0.2,0.1l0.1,0l0.1,0l0-0.2h0l0,0.1l0.1,0l0,0l0-0.1l-0.1-0.1l-0.1-0.1l-1.1,0
		l-0.1-0.1l0.2-0.1l0.1-0.1l0.1-0.1l0,0l0,0l0-0.1l0,0l0,0l0,0l0,0.1l0,0l0.3,0.1l-0.1-0.1l-0.1-0.1l-0.1-0.1l0.1-0.1l0.1,0l0.1,0
		l0.1,0.1l0.1,0.2l0,0l0,0l0-0.2l0-0.1l0.1,0l0.2-0.2h-0.1l0.1-0.1l0-0.1l0-0.1l0-0.1l0.1-0.1l0.1,0l0.1,0.1l0.1,0l0.1,0l0-0.1
		l0-0.1l0-0.1l-0.1-0.1l-0.1-0.1l-0.1-0.1l-0.1,0v-0.1l0.2,0l0.6,0.2l0-0.1l-0.1-0.2l0-0.1l0-0.1l0-0.1l-0.1-0.1l0.1-0.1l0.4,0.1V96
		l-0.2,0l-0.1,0l0,0.1l0,0.1l0.1,0.1l0.1,0l0.1-0.1l0,0l0-0.1l0.3,0l0.1-0.1L150,96l-0.7-0.3l-0.1-0.1l0.1-0.1l0.1,0l0.2,0l0.2,0.1
		l0.1,0l0-0.1l0.1,0l0.1,0.1l0.1,0.1l0.1,0.1l0.1,0l0,0.1l0,0.1l0,0.1l0.1,0.1l0,0.1l0,0l0.1,0.2l0,0l0.1,0l0,0l0-0.1l0-0.1l0.1,0
		l0.1,0l0,0l0-0.1l-0.1,0l-0.1-0.1l-0.1-0.1l0.1-0.2l0.2,0.2l0.1,0l0.1-0.2h-0.1l0-0.1l0.1-0.2l0-0.1l-0.1-0.1l0,0L151,95l0.2-0.1
		l0.1-0.2l0,0.2l0.1,0l0.1-0.1l0-0.1v-0.3l0-0.1l0-0.2l0-0.1l0-0.3l0-0.2l0.1-0.1l0.1,0.1l0.1,0.1l0.1,0.1l0.1,0l-0.1-0.3l0-0.1
		l0.1,0.1l0.3,0.5l0.1,0.1l0.1,0l0,0l0-0.1l0-0.1l-0.2-0.3l0-0.1l0,0l0.1,0l0.1,0l0.1-0.1l-0.1-0.1l-0.1,0l-0.1-0.1l0.1-0.2l-0.1,0
		l0,0l0-0.1l0.1-0.1l0.1,0l0.1,0.1l0.1,0.1l0.1,0.1l0.2,0.1l0.1,0.2l0.1,0l0,0l0,0.1l0,0l0.1,0.1l0,0.1l0,0.1l0,0.1l0.2,0.1l0.1,0
		l0.1-0.1l0.1-0.1l0,0l0.1,0l0,0l0-0.2l-0.1-0.3l0-0.1l0.1-0.2l0.2-0.1l0.2-0.2l0.1-0.2l0,0l0.2-0.1l0.1-0.1l0.1,0l0.3,0.2l-0.1-0.2
		l0-0.1l0-0.1l0.1-0.1l0.1-0.1l0.1,0l0.1,0l0,0l0,0l0,0.1l0,0l0,0l0,0l0,0l0.3,0l0.1,0l0-0.2l0-0.2l0.1-0.2l0.1-0.1l0,0.1l0,0.1
		l0,0.1l0,0.1l0,0.1l0,0.1l0.1,0.1l0.1,0l0-0.2l0-0.6l0-0.1l0.1,0l0.1,0.1l0,0.1l0,0.1l0,0.1l0,0.1l0,0.1l0.1,0l0,0l0-0.1l0-0.1
		l0-0.1l0-0.1l0-0.2l0-0.1l0,0l0,0l0-0.1l0.1,0.1l0.1-0.1l0.2-0.5l0,0l0.1,0.1l0,0.1l0,0.1l0,0.1l0,0.1l0,0l0-0.1l0-0.1l0.2-0.2
		l0.1,0l0.1,0.1l0.1,0.2l0,0l0.1-0.1l0.1-0.2l-0.1,0l-0.1,0l0-0.1l0-0.1l0-0.1l0.2,0l0.2-0.2l0-0.1l0.1-0.3l0.1-0.3l0.1-0.1l0.1-0.1
		l0,0l0,0l0,0l0,0l0,0l0-0.1l0-0.2l0,0l0,0l0,0l0,0l0,0l0-0.1l0,0l0,0l0-0.1l0-0.1l0,0l0.2-0.4l0-0.2l-0.1-0.2l0.1-0.2l0.3-0.4
		l0.1-0.3l0,0l0,0l0.1,0.1l0,0l0.5-0.8l0,0l0,0l0.1,0l0.1,0l0.1-0.1l0.1,0l0,0l0,0l0,0l0,0l0-0.1l0-0.1l0-0.1l0-0.1l0.1,0.1l0.1,0.2
		l0.1,0.1l0.1-0.1l0.1-0.1l0.2-0.2l0.2-0.4l0-0.1l0.1-0.1l0-0.1l0.1-0.1h0.1l0,0l0-0.1l0-0.1l0-0.1l0,0h-0.1l0,0.1l-0.1,0l-0.1,0
		l0,0l0,0.1l0,0l-0.1,0l-0.1-0.1l0-0.1l0.1-0.1l0-0.1l0-0.2l0,0l-0.1,0l-0.2,0l0,0l-0.1,0.1l-0.1,0l-0.1-0.2l-0.1,0l0,0l0-0.1l0,0
		l0,0l0,0l0,0.1l0.1,0.1l0.1-0.1l0.2-0.2l0,0l0.1,0.2l0.1,0l0.1,0l0.1-0.1l0.1-0.1l-0.1,0l-0.1,0l-0.1-0.1l0-0.1V83l0,0l0,0l0,0
		l0,0.2l-0.1-0.1l-0.1-0.2l-0.1-0.1l-0.1,0l0,0l0,0.1l0,0.1l0,0l0,0l0,0.1l0,0l0,0l-0.1-0.1l0,0l0,0l0-0.1l0,0l0,0l0,0l-0.1,0
		l-0.1-0.1l-0.1-0.1l0-0.1l0.1,0l-0.1-0.2l-0.1-0.1l-0.1,0l-0.1,0l-0.1-0.1l0-0.2l0-0.2l0-0.1l0.1,0l0.1,0.1l0.1,0.1l0.1,0.1
		l0.1,0.1l0.2,0.2l0.1,0.1v-0.1L160,82l0-0.1l0-0.1l0.1,0v-0.1l-0.2-0.2l-0.1-0.1l-0.1-0.2l0.1,0l0.2,0l0.1,0l0-0.1L160,81l-0.3-0.1
		l-0.3,0.1l-0.2,0l-0.1,0l-0.1-0.1l0,0l0-0.1l-0.1-0.1l-0.1-0.1l0-0.1l0-0.1l0-0.1l0.1,0l0.1,0l0,0.1l0,0.1l0,0.1l0.1,0l0.1,0
		l0.1-0.1l0.1-0.1l0-0.2l0.1-0.1l0.1-0.1l0-0.3l0.1,0l0.1-0.1l0-0.1l0-0.1l0-0.1l0-0.1l0-0.1l0-0.1l0.1,0l0.5,0l0.1-0.1l-0.1-0.1
		l0-0.1l0.1-0.1l0.1-0.1l0,0l0,0l0,0v0l0,0l0.1,0.1l0,0l0,0l0.1-0.1l0,0l-0.1-0.1l0-0.1l0.1-0.1l0.4,0l0.1-0.1l-0.1-0.1l-0.1,0
		l0-0.1l0.1-0.3l0-0.1l0-0.1l-0.1-0.1l0.2,0l0.1-0.1l0-0.2l-0.3-0.6l-0.2-0.3l-0.3-0.5l-0.1-0.1l-0.5-0.1l0.1-0.1l0.2,0l0.1-0.1l0,0
		l0,0l0,0l0.1,0l0.1,0.2l0.1,0.2l0.1,0.1l0.1,0l0.1,0.1l0.1,0.1l0.1,0.1l0.1,0.1l0.1,0.3l0,0.1l0.1,0.1l0.2,0l0.2-0.1l0.1-0.2l0-0.1
		l-0.1-0.1l-0.1-0.1l-0.1-0.2l-0.1-0.1l-0.1,0l0,0.2l-0.1,0.1l-0.1,0l-0.1-0.1l-0.1-0.1l-0.1-0.1l-0.1-0.1l-0.1,0l0.2-0.1l0,0l0,0
		l0,0l0.1-0.2l0.2,0l0.3,0v-0.1l-0.1,0l-0.2-0.1v-0.1l0.2-0.1l0.1,0l0.1,0.2l0.1,0l0.2,0l-0.1-0.1l0.1,0l0.4,0.1l0.1,0l0.1-0.1
		l0.1-0.1l0,0.1l0.1,0l0.1,0l0.1-0.1l0-0.1l0-0.1l0-0.1l0-0.1l0.1,0.2l0.1,0.1l0.1,0l0.1-0.1l0-0.1l0-0.1l0-0.1l-0.1-0.1l-0.2-0.3
		l-0.1,0l0,0l0.1,0.1l-0.1,0.1l-0.1-0.1l-0.2-0.3l0.1,0l0.6,0.2l0.1-0.1l0,0l0,0.1l0,0l0,0l0-0.1l0,0l0,0l0,0l0.1,0l0.2,0l0.1-0.1
		l-0.1,0l-0.1,0l-0.1-0.2l-0.1-0.1l-0.1-0.1l-0.3-0.1l-0.3-0.3l-0.5-0.3l-0.3-0.3l-0.1-0.4l0.1,0.1l0.1,0.1l0.1,0.1l0.1,0.2l0,0.1
		l0.1,0.1l0.3,0.1l0.1,0.2l0.2,0.1l0.1,0.1l0.1,0.2l0.3,0.1l0.4,0.3l0.1,0l0-0.1l0.1-0.1l0,0l0.1,0.1l0.1,0l0.1,0l0.1,0.1l0.1,0.1
		l0.1,0.1l0.1-0.1l0-0.2l0-0.1l0,0l-0.2-0.1l-0.1-0.1l0-0.1l0-0.1l0.2-0.2l0-0.1l-0.2-0.1l0-0.1l0-0.1l-0.1-0.1l-0.1,0l0,0.1l0,0.1
		l0.1,0.1l0,0.1l-0.1,0.2l-0.2,0l-0.3-0.1l0.3,0l0.1-0.1l-0.1-0.2l0-0.1l0-0.1l0-0.1l0-0.1l0-0.1l0-0.1l0.1-0.1l0.1,0l0.1,0.1l0,0.2
		l0-0.1l0.1,0l0.1,0l0.1,0l0-0.3l-0.1-0.2l-0.1-0.1l-0.3-0.1l-0.1-0.1l-0.1-0.1l-0.1-0.2l0.1,0l0.2,0.2l0.2,0.1l0.1-0.3l-0.1-0.1
		l-0.1-0.2l0-0.1l0.1,0.1l0.1,0l0-0.1l-0.2-0.3l0.2-0.1l0-0.2l0.1,0l0.3,0.1l0,0.1l0,0l0.1,0.1l0.1,0.1l0.1,0.1l0,0.1l0,0.1l0,0.1
		l0,0.1l0,0l0.1-0.2l0.1,0l0.2,0.1l0.1,0.1l0,0.2l0.1,0l0.1-0.1l0-0.1l0-0.1l0-0.2l0-0.1l0-0.1l0-0.1l0-0.3l0-0.1l0-0.1l-0.1-0.1
		l-0.1-0.1l0.1,0l0.1,0l0.5,0.4l0.1,0.2l0.1,0.4l0.1,0.1l0.1,0l0.1,0l0.1,0l0.1,0.2l0,0l0.2,0.1l0.2,0l0.1,0.1l0.1,0.3l0,0.2l0.1,0
		l0.1-0.1l0-0.2l0.1-0.1l0,0l0.3-0.1l0.1-0.1L168,71l-0.1-0.1l0-0.1l0-0.2l0.1-0.1l0.1,0l0.1,0l0.2,0.2l0.1,0.1l0.1,0l0.1-0.1
		l0.1-0.1l0.1-0.1l0.1,0l0,0.1l0,0.2l0,0.2l0.1,0.1l0.1,0l0,0l0,0l0-0.1l0-0.1l0-0.1l0-0.1l0,0l0-0.1l0,0l0,0l0,0l0-0.1l0,0l0.1,0
		l0.1,0l0,0l0,0.1l0.2,0.1l0.3,0l0,0l0,0.1l0,0l0.1,0l0.1-0.1l0.1-0.2l0.1,0l0.2,0l0.1,0.1l0,0.2l0,0.1l0.1,0l0.2,0l0-0.1l0,0l0,0.1
		l0,0.1l0,0.1l0,0l0.1,0l0,0l0,0l0,0l0-0.1l0-0.2L171.3,70.8L171.3,70.8z"/>
	<g>
		<g>
			<path class="st1" d="M199.6,38.2c-13.4-0.4-24.5,1.5-38.7,14.7"/>
			<g>
				<path class="st2" d="M160.9,52.9c0.3,0,0.6,0.2,0.8,0.4c-0.4-0.1-0.9-0.1-1.3,0.1c0.2-0.4,0.2-0.8,0.2-1.3
					C160.8,52.3,160.9,52.6,160.9,52.9z"/>
			</g>
		</g>
	</g>
	<g>
		<path class="st3" d="M212.9,36.6H212l-0.5-1.3h-3l-0.5,1.3h-0.9l2.4-6h0.9L212.9,36.6z M211.3,34.6l-1.3-3.2l-1.3,3.2H211.3z"/>
		<path class="st3" d="M214.3,36.6h-0.7v-6h0.7V36.6z"/>
		<path class="st3" d="M216.3,36.6h-0.7v-6h0.7v2.3c0.4-0.5,0.9-0.8,1.5-0.8c0.6,0,1,0.2,1.4,0.6s0.5,1,0.5,1.7
			c0,0.7-0.2,1.2-0.5,1.7c-0.4,0.4-0.8,0.6-1.4,0.6c-0.6,0-1.1-0.3-1.5-0.8V36.6z M216.3,35.4c0.1,0.2,0.3,0.4,0.5,0.5
			s0.5,0.2,0.8,0.2c0.4,0,0.8-0.2,1-0.5c0.3-0.3,0.4-0.7,0.4-1.2s-0.1-0.9-0.4-1.2c-0.3-0.3-0.6-0.5-1-0.5c-0.3,0-0.5,0.1-0.8,0.2
			s-0.4,0.3-0.5,0.5V35.4z"/>
		<path class="st3" d="M224.2,36.6h-0.7v-0.5c-0.4,0.4-0.8,0.6-1.4,0.6c-0.4,0-0.8-0.1-1.1-0.4c-0.3-0.3-0.5-0.6-0.5-1.1
			c0-0.5,0.2-0.8,0.5-1.1c0.3-0.2,0.7-0.4,1.1-0.4c0.6,0,1.1,0.2,1.4,0.6v-0.8c0-0.3-0.1-0.5-0.3-0.7s-0.5-0.2-0.8-0.2
			c-0.5,0-1,0.2-1.3,0.6l-0.3-0.5c0.5-0.5,1-0.7,1.7-0.7c0.5,0,0.9,0.1,1.2,0.4c0.3,0.2,0.5,0.6,0.5,1.1V36.6z M222.3,36.2
			c0.5,0,0.9-0.2,1.2-0.5v-0.8c-0.3-0.4-0.7-0.5-1.2-0.5c-0.3,0-0.6,0.1-0.8,0.3c-0.2,0.2-0.3,0.4-0.3,0.7c0,0.3,0.1,0.5,0.3,0.7
			C221.8,36.1,222,36.2,222.3,36.2z"/>
		<path class="st3" d="M229.2,36.6h-0.7v-2.8c0-0.4-0.1-0.6-0.3-0.8c-0.2-0.2-0.4-0.2-0.7-0.2c-0.3,0-0.5,0.1-0.7,0.2
			c-0.2,0.1-0.4,0.3-0.6,0.5v3.2h-0.7v-4.3h0.7v0.6c0.2-0.2,0.4-0.4,0.7-0.5c0.3-0.1,0.6-0.2,0.9-0.2c0.9,0,1.4,0.5,1.4,1.4V36.6z"
			/>
		<path class="st3" d="M230.9,31.6c-0.1,0-0.2,0-0.3-0.1c-0.1-0.1-0.1-0.2-0.1-0.3s0-0.2,0.1-0.3c0.1-0.1,0.2-0.1,0.3-0.1
			c0.1,0,0.2,0,0.3,0.1c0.1,0.1,0.1,0.2,0.1,0.3s0,0.2-0.1,0.3C231.1,31.5,231,31.6,230.9,31.6z M231.2,36.6h-0.7v-4.3h0.7V36.6z"/>
		<path class="st3" d="M235.9,36.6h-0.7v-0.5c-0.4,0.4-0.8,0.6-1.4,0.6c-0.4,0-0.8-0.1-1.1-0.4c-0.3-0.3-0.5-0.6-0.5-1.1
			c0-0.5,0.2-0.8,0.5-1.1c0.3-0.2,0.7-0.4,1.1-0.4c0.6,0,1.1,0.2,1.4,0.6v-0.8c0-0.3-0.1-0.5-0.3-0.7c-0.2-0.2-0.5-0.2-0.8-0.2
			c-0.5,0-1,0.2-1.3,0.6l-0.3-0.5c0.5-0.5,1-0.7,1.7-0.7c0.5,0,0.9,0.1,1.2,0.4s0.5,0.6,0.5,1.1V36.6z M234.1,36.2
			c0.5,0,0.9-0.2,1.2-0.5v-0.8c-0.3-0.4-0.7-0.5-1.2-0.5c-0.3,0-0.6,0.1-0.8,0.3c-0.2,0.2-0.3,0.4-0.3,0.7c0,0.3,0.1,0.5,0.3,0.7
			C233.5,36.1,233.8,36.2,234.1,36.2z"/>
	</g>
	<g>
		<path class="st3" d="M211.7,64h-3.9v-6h3.9v0.7h-3.2v1.9h3.1v0.7h-3.1v2.1h3.2V64z"/>
		<path class="st3" d="M213.5,64h-0.7v-4.3h0.7v0.7c0.4-0.5,0.9-0.8,1.4-0.8v0.7c-0.1,0-0.2,0-0.3,0c-0.2,0-0.4,0.1-0.7,0.2
			c-0.2,0.1-0.4,0.3-0.5,0.5V64z"/>
		<path class="st3" d="M216.1,59c-0.1,0-0.2,0-0.3-0.1c-0.1-0.1-0.1-0.2-0.1-0.3s0-0.2,0.1-0.3c0.1-0.1,0.2-0.1,0.3-0.1
			c0.1,0,0.2,0,0.3,0.1c0.1,0.1,0.1,0.2,0.1,0.3s0,0.2-0.1,0.3C216.4,59,216.2,59,216.1,59z M216.5,64h-0.7v-4.3h0.7V64z"/>
		<path class="st3" d="M218.9,64.1c-0.3,0-0.6-0.1-0.7-0.3c-0.2-0.2-0.2-0.4-0.2-0.8v-2.8h-0.7v-0.6h0.7v-1.2h0.7v1.2h0.9v0.6h-0.9
			v2.7c0,0.2,0,0.3,0.1,0.4c0.1,0.1,0.2,0.2,0.3,0.2c0.2,0,0.4-0.1,0.5-0.2l0.2,0.5C219.5,64,219.3,64.1,218.9,64.1z"/>
		<path class="st3" d="M221.1,64h-0.7v-4.3h0.7v0.7c0.4-0.5,0.9-0.8,1.4-0.8v0.7c-0.1,0-0.2,0-0.3,0c-0.2,0-0.4,0.1-0.7,0.2
			c-0.2,0.1-0.4,0.3-0.5,0.5V64z"/>
		<path class="st3" d="M225.4,64.1c-0.6,0-1.2-0.2-1.6-0.6s-0.6-1-0.6-1.7c0-0.6,0.2-1.2,0.6-1.6c0.4-0.4,0.9-0.7,1.5-0.7
			c0.6,0,1.2,0.2,1.5,0.7c0.4,0.4,0.6,1,0.6,1.7V62h-3.5c0,0.4,0.2,0.8,0.5,1.1c0.3,0.3,0.6,0.4,1.1,0.4c0.5,0,1-0.2,1.3-0.5
			l0.3,0.4C226.7,63.9,226.1,64.1,225.4,64.1z M226.7,61.5c0-0.4-0.1-0.7-0.4-1s-0.6-0.4-1.1-0.4c-0.4,0-0.8,0.1-1,0.4
			s-0.4,0.6-0.4,1H226.7z"/>
		<path class="st3" d="M231.9,64h-0.7v-0.5c-0.4,0.4-0.8,0.6-1.4,0.6c-0.4,0-0.8-0.1-1.1-0.4c-0.3-0.3-0.5-0.6-0.5-1.1
			c0-0.5,0.2-0.8,0.5-1.1c0.3-0.2,0.7-0.4,1.1-0.4c0.6,0,1.1,0.2,1.4,0.6V61c0-0.3-0.1-0.5-0.3-0.7s-0.5-0.2-0.8-0.2
			c-0.5,0-1,0.2-1.3,0.6l-0.3-0.5c0.5-0.5,1-0.7,1.7-0.7c0.5,0,0.9,0.1,1.2,0.4c0.3,0.2,0.5,0.6,0.5,1.1V64z M230,63.6
			c0.5,0,0.9-0.2,1.2-0.5v-0.8c-0.3-0.4-0.7-0.5-1.2-0.5c-0.3,0-0.6,0.1-0.8,0.3c-0.2,0.2-0.3,0.4-0.3,0.7c0,0.3,0.1,0.5,0.3,0.7
			C229.5,63.5,229.7,63.6,230,63.6z"/>
	</g>
	<g>
		<path class="st3" d="M209.7,93.8c-1,0-1.7-0.3-2.3-1l0.4-0.6c0.5,0.6,1.1,0.9,1.9,0.9c0.5,0,0.8-0.1,1.1-0.3
			c0.2-0.2,0.3-0.4,0.3-0.7c0-0.2-0.1-0.4-0.2-0.5c-0.1-0.1-0.3-0.3-0.5-0.3s-0.4-0.2-0.7-0.2c-0.3-0.1-0.5-0.1-0.8-0.2
			c-0.3-0.1-0.5-0.2-0.7-0.3c-0.2-0.1-0.4-0.3-0.5-0.5s-0.2-0.5-0.2-0.7c0-0.5,0.2-0.9,0.6-1.2c0.4-0.3,0.9-0.5,1.5-0.5
			c0.9,0,1.6,0.3,2.1,0.8l-0.5,0.5c-0.4-0.5-1-0.7-1.7-0.7c-0.4,0-0.7,0.1-0.9,0.3c-0.2,0.2-0.3,0.4-0.3,0.7c0,0.2,0.1,0.4,0.3,0.5
			c0.2,0.1,0.4,0.2,0.7,0.3c0.3,0.1,0.5,0.1,0.9,0.2c0.3,0.1,0.6,0.2,0.9,0.3c0.3,0.1,0.5,0.3,0.7,0.5c0.2,0.2,0.3,0.5,0.3,0.9
			c0,0.5-0.2,0.9-0.5,1.3C211,93.6,210.4,93.8,209.7,93.8z"/>
		<path class="st3" d="M214.9,93.8c-0.6,0-1.2-0.2-1.6-0.6s-0.6-1-0.6-1.7c0-0.6,0.2-1.2,0.6-1.6c0.4-0.4,0.9-0.7,1.5-0.7
			c0.6,0,1.2,0.2,1.5,0.7c0.4,0.4,0.6,1,0.6,1.7v0.2h-3.5c0,0.4,0.2,0.8,0.5,1.1c0.3,0.3,0.6,0.4,1.1,0.4c0.5,0,1-0.2,1.3-0.5
			l0.3,0.4C216.2,93.6,215.6,93.8,214.9,93.8z M216.3,91.2c0-0.4-0.1-0.7-0.4-1s-0.6-0.4-1.1-0.4c-0.4,0-0.8,0.1-1,0.4
			c-0.2,0.3-0.4,0.6-0.4,1H216.3z"/>
		<path class="st3" d="M218.7,93.7H218v-4.3h0.7V90c0.4-0.5,0.9-0.8,1.4-0.8v0.7c-0.1,0-0.2,0-0.3,0c-0.2,0-0.4,0.1-0.7,0.2
			c-0.2,0.1-0.4,0.3-0.5,0.5V93.7z"/>
		<path class="st3" d="M221.7,93.7H221v-6h0.7V90c0.4-0.5,0.9-0.8,1.5-0.8c0.6,0,1,0.2,1.4,0.6c0.4,0.4,0.5,1,0.5,1.7
			c0,0.7-0.2,1.2-0.5,1.7c-0.4,0.4-0.8,0.6-1.4,0.6c-0.6,0-1.1-0.3-1.5-0.8V93.7z M221.7,92.5c0.1,0.2,0.3,0.4,0.5,0.5
			c0.2,0.1,0.5,0.2,0.8,0.2c0.4,0,0.8-0.2,1-0.5c0.3-0.3,0.4-0.7,0.4-1.2s-0.1-0.9-0.4-1.2c-0.3-0.3-0.6-0.5-1-0.5
			c-0.3,0-0.5,0.1-0.8,0.2c-0.2,0.1-0.4,0.3-0.5,0.5V92.5z"/>
		<path class="st3" d="M226.5,88.7c-0.1,0-0.2,0-0.3-0.1c-0.1-0.1-0.1-0.2-0.1-0.3s0-0.2,0.1-0.3c0.1-0.1,0.2-0.1,0.3-0.1
			c0.1,0,0.2,0,0.3,0.1c0.1,0.1,0.1,0.2,0.1,0.3s0,0.2-0.1,0.3C226.8,88.7,226.6,88.7,226.5,88.7z M226.9,93.7h-0.7v-4.3h0.7V93.7z"
			/>
		<path class="st3" d="M231.6,93.7h-0.7v-0.5c-0.4,0.4-0.8,0.6-1.4,0.6c-0.4,0-0.8-0.1-1.1-0.4c-0.3-0.3-0.5-0.6-0.5-1.1
			c0-0.5,0.2-0.8,0.5-1.1c0.3-0.2,0.7-0.4,1.1-0.4c0.6,0,1.1,0.2,1.4,0.6v-0.8c0-0.3-0.1-0.5-0.3-0.7s-0.5-0.2-0.8-0.2
			c-0.5,0-1,0.2-1.3,0.6l-0.3-0.5c0.5-0.5,1-0.7,1.7-0.7c0.5,0,0.9,0.1,1.2,0.4c0.3,0.2,0.5,0.6,0.5,1.1V93.7z M229.7,93.3
			c0.5,0,0.9-0.2,1.2-0.5V92c-0.3-0.4-0.7-0.5-1.2-0.5c-0.3,0-0.6,0.1-0.8,0.3c-0.2,0.2-0.3,0.4-0.3,0.7c0,0.3,0.1,0.5,0.3,0.7
			C229.2,93.2,229.4,93.3,229.7,93.3z"/>
	</g>
	<g>
		<path class="st3" d="M212.3,124.6h-0.9l-2.3-2.7l-0.6,0.7v2h-0.7v-6h0.7v3.1l2.7-3.1h0.9l-2.5,2.9L212.3,124.6z"/>
		<path class="st3" d="M216.3,124c-0.4,0.4-0.9,0.7-1.6,0.7s-1.2-0.2-1.6-0.7c-0.4-0.4-0.6-1-0.6-1.6s0.2-1.2,0.6-1.6
			c0.4-0.4,0.9-0.7,1.6-0.7s1.2,0.2,1.6,0.7c0.4,0.4,0.6,1,0.6,1.6S216.7,123.6,216.3,124z M213.6,123.6c0.3,0.3,0.6,0.5,1.1,0.5
			c0.4,0,0.8-0.2,1.1-0.5s0.4-0.7,0.4-1.2c0-0.5-0.1-0.9-0.4-1.2c-0.3-0.3-0.6-0.5-1.1-0.5c-0.4,0-0.8,0.2-1.1,0.5s-0.4,0.7-0.4,1.2
			C213.3,122.9,213.4,123.3,213.6,123.6z"/>
		<path class="st3" d="M219.3,124.7c-0.7,0-1.3-0.2-1.8-0.7l0.4-0.5c0.1,0.2,0.4,0.3,0.6,0.4c0.3,0.1,0.5,0.2,0.8,0.2
			c0.3,0,0.6-0.1,0.8-0.2c0.2-0.1,0.3-0.3,0.3-0.5c0-0.2-0.1-0.3-0.3-0.5c-0.2-0.1-0.4-0.2-0.7-0.3c-0.3-0.1-0.5-0.1-0.8-0.2
			c-0.3-0.1-0.5-0.2-0.7-0.4s-0.3-0.4-0.3-0.7c0-0.4,0.1-0.7,0.4-0.9c0.3-0.2,0.7-0.4,1.2-0.4c0.7,0,1.2,0.2,1.6,0.6l-0.3,0.5
			c-0.3-0.4-0.7-0.5-1.3-0.5c-0.3,0-0.5,0.1-0.7,0.2c-0.2,0.1-0.3,0.3-0.3,0.5c0,0.2,0.1,0.3,0.3,0.4s0.4,0.2,0.7,0.2
			c0.3,0.1,0.5,0.1,0.8,0.2c0.3,0.1,0.5,0.2,0.7,0.4s0.3,0.4,0.3,0.8c0,0.4-0.2,0.7-0.5,0.9C220.3,124.6,219.9,124.7,219.3,124.7z"
			/>
		<path class="st3" d="M225.6,124c-0.4,0.4-0.9,0.7-1.6,0.7c-0.6,0-1.2-0.2-1.6-0.7s-0.6-1-0.6-1.6s0.2-1.2,0.6-1.6
			c0.4-0.4,0.9-0.7,1.6-0.7c0.6,0,1.2,0.2,1.6,0.7c0.4,0.4,0.6,1,0.6,1.6S226,123.6,225.6,124z M223,123.6c0.3,0.3,0.6,0.5,1.1,0.5
			s0.8-0.2,1.1-0.5s0.4-0.7,0.4-1.2c0-0.5-0.1-0.9-0.4-1.2c-0.3-0.3-0.6-0.5-1.1-0.5s-0.8,0.2-1.1,0.5c-0.3,0.3-0.4,0.7-0.4,1.2
			C222.6,122.9,222.7,123.3,223,123.6z"/>
		<path class="st3" d="M229.2,124.6h-0.7l-1.8-4.3h0.7l1.4,3.6l1.4-3.6h0.7L229.2,124.6z"/>
		<path class="st3" d="M235.2,124c-0.4,0.4-0.9,0.7-1.6,0.7s-1.2-0.2-1.6-0.7c-0.4-0.4-0.6-1-0.6-1.6s0.2-1.2,0.6-1.6
			c0.4-0.4,0.9-0.7,1.6-0.7s1.2,0.2,1.6,0.7c0.4,0.4,0.6,1,0.6,1.6S235.5,123.6,235.2,124z M232.5,123.6c0.3,0.3,0.6,0.5,1.1,0.5
			c0.4,0,0.8-0.2,1.1-0.5s0.4-0.7,0.4-1.2c0-0.5-0.1-0.9-0.4-1.2c-0.3-0.3-0.6-0.5-1.1-0.5c-0.4,0-0.8,0.2-1.1,0.5s-0.4,0.7-0.4,1.2
			C232.1,122.9,232.3,123.3,232.5,123.6z"/>
	</g>
	<g>
		<path class="st3" d="M41.7,34.7c-1,0-1.7-0.3-2.3-1l0.4-0.6c0.5,0.6,1.1,0.9,1.9,0.9c0.5,0,0.8-0.1,1.1-0.3
			c0.2-0.2,0.3-0.4,0.3-0.7c0-0.2-0.1-0.4-0.2-0.5c-0.1-0.1-0.3-0.3-0.5-0.3S42,32,41.7,32c-0.3-0.1-0.5-0.1-0.8-0.2
			s-0.5-0.2-0.7-0.3c-0.2-0.1-0.4-0.3-0.5-0.5s-0.2-0.5-0.2-0.7c0-0.5,0.2-0.9,0.6-1.2c0.4-0.3,0.9-0.5,1.5-0.5
			c0.9,0,1.6,0.3,2.1,0.8l-0.5,0.5c-0.4-0.5-1-0.7-1.7-0.7c-0.4,0-0.7,0.1-0.9,0.3c-0.2,0.2-0.3,0.4-0.3,0.7c0,0.2,0.1,0.4,0.3,0.5
			c0.2,0.1,0.4,0.2,0.7,0.3c0.3,0.1,0.5,0.1,0.9,0.2c0.3,0.1,0.6,0.2,0.9,0.3c0.3,0.1,0.5,0.3,0.7,0.5c0.2,0.2,0.3,0.5,0.3,0.9
			c0,0.5-0.2,0.9-0.5,1.3C43,34.6,42.4,34.7,41.7,34.7z"/>
		<path class="st3" d="M48.5,34.1c-0.4,0.4-0.9,0.7-1.6,0.7s-1.2-0.2-1.6-0.7c-0.4-0.4-0.6-1-0.6-1.6s0.2-1.2,0.6-1.6
			c0.4-0.4,0.9-0.7,1.6-0.7s1.2,0.2,1.6,0.7c0.4,0.4,0.6,1,0.6,1.6S48.8,33.7,48.5,34.1z M45.8,33.7c0.3,0.3,0.6,0.5,1.1,0.5
			c0.4,0,0.8-0.2,1.1-0.5s0.4-0.7,0.4-1.2s-0.1-0.9-0.4-1.2c-0.3-0.3-0.6-0.5-1.1-0.5c-0.4,0-0.8,0.2-1.1,0.5s-0.4,0.7-0.4,1.2
			C45.4,32.9,45.6,33.3,45.8,33.7z"/>
		<path class="st3" d="M56.1,34.6h-0.7v-3c0-0.6-0.3-0.9-0.8-0.9c-0.2,0-0.4,0.1-0.6,0.2c-0.2,0.1-0.4,0.3-0.5,0.5v3.2h-0.7v-3
			c0-0.6-0.3-0.9-0.8-0.9c-0.2,0-0.4,0.1-0.6,0.2c-0.2,0.1-0.4,0.3-0.5,0.5v3.2h-0.7v-4.3h0.7v0.6c0.1-0.2,0.3-0.3,0.6-0.5
			c0.3-0.2,0.5-0.2,0.8-0.2c0.3,0,0.6,0.1,0.8,0.2c0.2,0.1,0.3,0.3,0.4,0.6c0.1-0.2,0.3-0.4,0.6-0.6s0.6-0.2,0.9-0.2
			c0.8,0,1.2,0.4,1.2,1.3V34.6z"/>
		<path class="st3" d="M60.8,34.6h-0.7v-0.5c-0.4,0.4-0.8,0.6-1.4,0.6c-0.4,0-0.8-0.1-1.1-0.4c-0.3-0.3-0.5-0.6-0.5-1.1
			c0-0.5,0.2-0.8,0.5-1.1c0.3-0.2,0.7-0.4,1.1-0.4c0.6,0,1.1,0.2,1.4,0.6v-0.8c0-0.3-0.1-0.5-0.3-0.7s-0.5-0.2-0.8-0.2
			c-0.5,0-1,0.2-1.3,0.6l-0.3-0.5c0.5-0.5,1-0.7,1.7-0.7c0.5,0,0.9,0.1,1.2,0.4c0.3,0.2,0.5,0.6,0.5,1.1V34.6z M58.9,34.3
			c0.5,0,0.9-0.2,1.2-0.5v-0.8c-0.3-0.4-0.7-0.5-1.2-0.5c-0.3,0-0.6,0.1-0.8,0.3c-0.2,0.2-0.3,0.4-0.3,0.7c0,0.3,0.1,0.5,0.3,0.7
			C58.4,34.2,58.6,34.3,58.9,34.3z"/>
		<path class="st3" d="M62.8,34.6h-0.7v-6h0.7V34.6z"/>
		<path class="st3" d="M64.5,29.7c-0.1,0-0.2,0-0.3-0.1c-0.1-0.1-0.1-0.2-0.1-0.3s0-0.2,0.1-0.3c0.1-0.1,0.2-0.1,0.3-0.1
			c0.1,0,0.2,0,0.3,0.1c0.1,0.1,0.1,0.2,0.1,0.3s0,0.2-0.1,0.3C64.7,29.6,64.6,29.7,64.5,29.7z M64.9,34.6h-0.7v-4.3h0.7V34.6z"/>
		<path class="st3" d="M69.6,34.6h-0.7v-0.5c-0.4,0.4-0.8,0.6-1.4,0.6c-0.4,0-0.8-0.1-1.1-0.4c-0.3-0.3-0.5-0.6-0.5-1.1
			c0-0.5,0.2-0.8,0.5-1.1c0.3-0.2,0.7-0.4,1.1-0.4c0.6,0,1.1,0.2,1.4,0.6v-0.8c0-0.3-0.1-0.5-0.3-0.7s-0.5-0.2-0.8-0.2
			c-0.5,0-1,0.2-1.3,0.6l-0.3-0.5c0.5-0.5,1-0.7,1.7-0.7c0.5,0,0.9,0.1,1.2,0.4c0.3,0.2,0.5,0.6,0.5,1.1V34.6z M67.7,34.3
			c0.5,0,0.9-0.2,1.2-0.5v-0.8c-0.3-0.4-0.7-0.5-1.2-0.5c-0.3,0-0.6,0.1-0.8,0.3c-0.2,0.2-0.3,0.4-0.3,0.7c0,0.3,0.1,0.5,0.3,0.7
			C67.2,34.2,67.4,34.3,67.7,34.3z"/>
	</g>
	<g>
		<path class="st3" d="M143,16.5h-0.7v-6h0.7V16.5z"/>
		<path class="st3" d="M145.1,16.5h-0.7v-4.3h0.7v0.7c0.4-0.5,0.9-0.8,1.4-0.8v0.7c-0.1,0-0.2,0-0.3,0c-0.2,0-0.4,0.1-0.7,0.2
			c-0.2,0.1-0.4,0.3-0.5,0.5V16.5z"/>
		<path class="st3" d="M150.8,16.5h-0.7V16c-0.4,0.4-0.8,0.6-1.4,0.6c-0.4,0-0.8-0.1-1.1-0.4c-0.3-0.3-0.5-0.6-0.5-1.1
			c0-0.5,0.2-0.8,0.5-1.1c0.3-0.2,0.7-0.4,1.1-0.4c0.6,0,1.1,0.2,1.4,0.6v-0.8c0-0.3-0.1-0.5-0.3-0.7s-0.5-0.2-0.8-0.2
			c-0.5,0-1,0.2-1.3,0.6l-0.3-0.5c0.5-0.5,1-0.7,1.7-0.7c0.5,0,0.9,0.1,1.2,0.4c0.3,0.2,0.5,0.6,0.5,1.1V16.5z M148.9,16.1
			c0.5,0,0.9-0.2,1.2-0.5v-0.8c-0.3-0.4-0.7-0.5-1.2-0.5c-0.3,0-0.6,0.1-0.8,0.3c-0.2,0.2-0.3,0.4-0.3,0.7c0,0.3,0.1,0.5,0.3,0.7
			C148.3,16,148.6,16.1,148.9,16.1z"/>
		<path class="st3" d="M153.8,16.6c-0.6,0-1-0.2-1.4-0.6c-0.4-0.4-0.5-1-0.5-1.7s0.2-1.2,0.5-1.7c0.4-0.4,0.8-0.6,1.4-0.6
			c0.3,0,0.6,0.1,0.8,0.2c0.3,0.1,0.5,0.3,0.6,0.5v-0.6h0.7v6h-0.7v-2.3C154.9,16.4,154.4,16.6,153.8,16.6z M153.9,16
			c0.3,0,0.5-0.1,0.8-0.2c0.2-0.1,0.4-0.3,0.5-0.5v-2c-0.1-0.2-0.3-0.4-0.5-0.5c-0.2-0.1-0.5-0.2-0.8-0.2c-0.4,0-0.8,0.2-1,0.5
			c-0.2,0.3-0.4,0.7-0.4,1.2s0.1,0.9,0.4,1.2C153.2,15.8,153.5,16,153.9,16z"/>
	</g>
	<g>
		<path class="st3" d="M53.6,149.7c-1,0-1.7-0.3-2.3-1l0.4-0.6c0.5,0.6,1.1,0.9,1.9,0.9c0.5,0,0.8-0.1,1.1-0.3s0.3-0.4,0.3-0.7
			c0-0.2-0.1-0.4-0.2-0.5c-0.1-0.1-0.3-0.3-0.5-0.3s-0.4-0.2-0.7-0.2c-0.3-0.1-0.5-0.1-0.8-0.2s-0.5-0.2-0.7-0.3s-0.4-0.3-0.5-0.5
			c-0.1-0.2-0.2-0.5-0.2-0.7c0-0.5,0.2-0.9,0.6-1.2c0.4-0.3,0.9-0.5,1.5-0.5c0.9,0,1.6,0.3,2.1,0.8l-0.4,0.5c-0.4-0.5-1-0.7-1.7-0.7
			c-0.4,0-0.7,0.1-0.9,0.3c-0.2,0.2-0.3,0.4-0.3,0.7c0,0.2,0.1,0.4,0.3,0.5c0.2,0.1,0.4,0.2,0.7,0.3c0.3,0.1,0.5,0.1,0.9,0.2
			c0.3,0.1,0.6,0.2,0.9,0.3c0.3,0.1,0.5,0.3,0.7,0.5s0.3,0.5,0.3,0.9c0,0.5-0.2,0.9-0.5,1.3S54.3,149.7,53.6,149.7z"/>
		<path class="st3" d="M56.6,151.3l0.1-0.6c0.1,0,0.2,0.1,0.4,0.1c0.2,0,0.3,0,0.4-0.1c0.1-0.1,0.2-0.2,0.3-0.4l0.3-0.7l-1.8-4.4
			h0.7l1.4,3.6l1.4-3.6h0.7l-2.2,5.2c-0.2,0.6-0.7,0.9-1.3,0.9C56.9,151.4,56.7,151.4,56.6,151.3z"/>
		<path class="st3" d="M61.9,149.6h-0.7v-4.3h0.7v0.7c0.4-0.5,0.9-0.8,1.4-0.8v0.7c-0.1,0-0.2,0-0.3,0c-0.2,0-0.4,0.1-0.7,0.2
			c-0.2,0.1-0.4,0.3-0.5,0.5V149.6z"/>
		<path class="st3" d="M64.5,144.6c-0.1,0-0.2,0-0.3-0.1s-0.1-0.2-0.1-0.3s0-0.2,0.1-0.3s0.2-0.1,0.3-0.1c0.1,0,0.2,0,0.3,0.1
			s0.1,0.2,0.1,0.3s0,0.2-0.1,0.3S64.6,144.6,64.5,144.6z M64.9,149.6h-0.7v-4.3h0.7V149.6z"/>
		<path class="st3" d="M69.6,149.6h-0.7v-0.5c-0.4,0.4-0.8,0.6-1.4,0.6c-0.4,0-0.8-0.1-1.1-0.4c-0.3-0.3-0.5-0.6-0.5-1.1
			c0-0.5,0.2-0.8,0.5-1.1c0.3-0.2,0.7-0.4,1.1-0.4c0.6,0,1.1,0.2,1.4,0.6v-0.8c0-0.3-0.1-0.5-0.3-0.7c-0.2-0.2-0.5-0.2-0.8-0.2
			c-0.5,0-1,0.2-1.3,0.6l-0.3-0.5c0.5-0.5,1-0.7,1.7-0.7c0.5,0,0.9,0.1,1.2,0.4c0.3,0.2,0.5,0.6,0.5,1.1V149.6z M67.7,149.2
			c0.5,0,0.9-0.2,1.2-0.5v-0.8c-0.3-0.4-0.7-0.5-1.2-0.5c-0.3,0-0.6,0.1-0.8,0.3s-0.3,0.4-0.3,0.7c0,0.3,0.1,0.5,0.3,0.7
			S67.4,149.2,67.7,149.2z"/>
	</g>
	<g>
		<path class="st3" d="M29.3,63.5h-0.9l-0.5-1.3h-3l-0.5,1.3h-0.9l2.4-6h0.9L29.3,63.5z M27.7,61.5l-1.3-3.2l-1.3,3.2H27.7z"/>
		<path class="st3" d="M30.9,63.5h-0.7v-3.8h-0.7v-0.6h0.7v-0.3c0-0.4,0.1-0.8,0.3-1c0.2-0.2,0.5-0.4,0.9-0.4c0.4,0,0.7,0.1,0.9,0.3
			l-0.3,0.4C31.9,58,31.8,58,31.6,58c-0.2,0-0.4,0.1-0.5,0.2c-0.1,0.1-0.2,0.4-0.2,0.6v0.3h0.9v0.6h-0.9V63.5z"/>
		<path class="st3" d="M34.3,65.3c-0.4,0-0.7,0-1-0.1c-0.3-0.1-0.5-0.3-0.8-0.5l0.3-0.5c0.3,0.4,0.8,0.6,1.4,0.6
			c0.4,0,0.7-0.1,1-0.3c0.3-0.2,0.4-0.5,0.4-1v-0.6c-0.2,0.2-0.4,0.4-0.6,0.6c-0.3,0.1-0.5,0.2-0.8,0.2c-0.6,0-1-0.2-1.4-0.6
			c-0.4-0.4-0.5-1-0.5-1.6c0-0.7,0.2-1.2,0.5-1.6s0.8-0.6,1.4-0.6c0.6,0,1.1,0.3,1.5,0.8v-0.7h0.7v4.2c0,0.7-0.2,1.1-0.6,1.4
			C35.4,65.1,34.9,65.3,34.3,65.3z M34.4,63c0.3,0,0.5-0.1,0.8-0.2c0.2-0.1,0.4-0.3,0.5-0.5v-1.9c-0.1-0.2-0.3-0.4-0.5-0.5
			s-0.5-0.2-0.8-0.2c-0.4,0-0.8,0.2-1,0.5c-0.2,0.3-0.4,0.7-0.4,1.2c0,0.5,0.1,0.9,0.4,1.2C33.6,62.8,34,63,34.4,63z"/>
		<path class="st3" d="M41.3,63.5h-0.7v-2.9c0-0.4-0.1-0.6-0.3-0.8c-0.2-0.1-0.4-0.2-0.7-0.2c-0.2,0-0.5,0.1-0.7,0.2
			c-0.2,0.1-0.4,0.3-0.6,0.5v3.2h-0.7v-6h0.7v2.3c0.2-0.2,0.4-0.4,0.7-0.5c0.3-0.1,0.6-0.2,0.9-0.2c0.9,0,1.4,0.5,1.4,1.4V63.5z"/>
		<path class="st3" d="M46.1,63.5h-0.7V63c-0.4,0.4-0.8,0.6-1.4,0.6c-0.4,0-0.8-0.1-1.1-0.4c-0.3-0.3-0.5-0.6-0.5-1.1
			c0-0.5,0.2-0.8,0.5-1.1c0.3-0.2,0.7-0.4,1.1-0.4c0.6,0,1.1,0.2,1.4,0.6v-0.8c0-0.3-0.1-0.5-0.3-0.7c-0.2-0.2-0.5-0.2-0.8-0.2
			c-0.5,0-1,0.2-1.3,0.6l-0.3-0.5c0.5-0.5,1-0.7,1.7-0.7c0.5,0,0.9,0.1,1.2,0.4s0.5,0.6,0.5,1.1V63.5z M44.2,63.1
			c0.5,0,0.9-0.2,1.2-0.5v-0.8c-0.3-0.4-0.7-0.5-1.2-0.5c-0.3,0-0.6,0.1-0.8,0.3c-0.2,0.2-0.3,0.4-0.3,0.7c0,0.3,0.1,0.5,0.3,0.7
			C43.6,63,43.9,63.1,44.2,63.1z"/>
		<path class="st3" d="M51,63.5h-0.7v-2.8c0-0.4-0.1-0.6-0.3-0.8c-0.2-0.2-0.4-0.2-0.7-0.2c-0.3,0-0.5,0.1-0.7,0.2
			c-0.2,0.1-0.4,0.3-0.6,0.5v3.2h-0.7v-4.3h0.7v0.6c0.2-0.2,0.4-0.4,0.7-0.5c0.3-0.1,0.6-0.2,0.9-0.2c0.9,0,1.4,0.5,1.4,1.4V63.5z"
			/>
		<path class="st3" d="M52.7,58.5c-0.1,0-0.2,0-0.3-0.1c-0.1-0.1-0.1-0.2-0.1-0.3s0-0.2,0.1-0.3c0.1-0.1,0.2-0.1,0.3-0.1
			c0.1,0,0.2,0,0.3,0.1c0.1,0.1,0.1,0.2,0.1,0.3s0,0.2-0.1,0.3C53,58.5,52.8,58.5,52.7,58.5z M53.1,63.5h-0.7v-4.3h0.7V63.5z"/>
		<path class="st3" d="M55.8,63.6c-0.7,0-1.3-0.2-1.8-0.7l0.4-0.5c0.2,0.2,0.4,0.3,0.6,0.4c0.3,0.1,0.5,0.2,0.8,0.2
			c0.3,0,0.6-0.1,0.8-0.2c0.2-0.1,0.3-0.3,0.3-0.5c0-0.2-0.1-0.3-0.3-0.5c-0.2-0.1-0.4-0.2-0.7-0.3c-0.3-0.1-0.5-0.1-0.8-0.2
			c-0.3-0.1-0.5-0.2-0.7-0.4c-0.2-0.2-0.3-0.4-0.3-0.7c0-0.4,0.1-0.7,0.4-0.9s0.7-0.4,1.2-0.4c0.7,0,1.2,0.2,1.6,0.6l-0.3,0.5
			c-0.3-0.4-0.7-0.5-1.3-0.5c-0.3,0-0.5,0.1-0.7,0.2c-0.2,0.1-0.3,0.3-0.3,0.5c0,0.2,0.1,0.3,0.3,0.4c0.2,0.1,0.4,0.2,0.7,0.2
			s0.5,0.1,0.8,0.2s0.5,0.2,0.7,0.4c0.2,0.2,0.3,0.4,0.3,0.8c0,0.4-0.2,0.7-0.5,0.9C56.8,63.5,56.3,63.6,55.8,63.6z"/>
		<path class="st3" d="M59.7,63.6c-0.3,0-0.6-0.1-0.7-0.3c-0.2-0.2-0.2-0.4-0.2-0.8v-2.8H58v-0.6h0.7V58h0.7v1.2h0.9v0.6h-0.9v2.7
			c0,0.2,0,0.3,0.1,0.4c0.1,0.1,0.2,0.2,0.3,0.2c0.2,0,0.4-0.1,0.5-0.2l0.2,0.5C60.3,63.5,60,63.6,59.7,63.6z"/>
		<path class="st3" d="M64.6,63.5H64V63c-0.4,0.4-0.8,0.6-1.4,0.6c-0.4,0-0.8-0.1-1.1-0.4C61.2,63,61,62.6,61,62.2
			c0-0.5,0.2-0.8,0.5-1.1c0.3-0.2,0.7-0.4,1.1-0.4c0.6,0,1.1,0.2,1.4,0.6v-0.8c0-0.3-0.1-0.5-0.3-0.7s-0.5-0.2-0.8-0.2
			c-0.5,0-1,0.2-1.3,0.6l-0.3-0.5c0.5-0.5,1-0.7,1.7-0.7c0.5,0,0.9,0.1,1.2,0.4c0.3,0.2,0.5,0.6,0.5,1.1V63.5z M62.8,63.1
			c0.5,0,0.9-0.2,1.2-0.5v-0.8c-0.3-0.4-0.7-0.5-1.2-0.5c-0.3,0-0.6,0.1-0.8,0.3c-0.2,0.2-0.3,0.4-0.3,0.7c0,0.3,0.1,0.5,0.3,0.7
			C62.2,63,62.5,63.1,62.8,63.1z"/>
		<path class="st3" d="M69.6,63.5h-0.7v-2.8c0-0.4-0.1-0.6-0.3-0.8c-0.2-0.2-0.4-0.2-0.7-0.2c-0.3,0-0.5,0.1-0.7,0.2
			c-0.2,0.1-0.4,0.3-0.6,0.5v3.2H66v-4.3h0.7v0.6c0.2-0.2,0.4-0.4,0.7-0.5c0.3-0.1,0.6-0.2,0.9-0.2c0.9,0,1.4,0.5,1.4,1.4V63.5z"/>
	</g>
	<g>
		<path class="st3" d="M56.9,93.7h-0.7v-6h0.7V93.7z"/>
		<path class="st3" d="M59,93.7h-0.7v-4.3H59V90c0.4-0.5,0.9-0.8,1.4-0.8v0.7c-0.1,0-0.2,0-0.3,0c-0.2,0-0.4,0.1-0.7,0.2
			c-0.2,0.1-0.4,0.3-0.5,0.5V93.7z"/>
		<path class="st3" d="M64.6,93.7H64v-0.5c-0.4,0.4-0.8,0.6-1.4,0.6c-0.4,0-0.8-0.1-1.1-0.4c-0.3-0.3-0.5-0.6-0.5-1.1
			c0-0.5,0.2-0.8,0.5-1.1c0.3-0.2,0.7-0.4,1.1-0.4c0.6,0,1.1,0.2,1.4,0.6v-0.8c0-0.3-0.1-0.5-0.3-0.7c-0.2-0.2-0.5-0.2-0.8-0.2
			c-0.5,0-1,0.2-1.3,0.6L61.2,90c0.5-0.5,1-0.7,1.7-0.7c0.5,0,0.9,0.1,1.2,0.4s0.5,0.6,0.5,1.1V93.7z M62.8,93.3
			c0.5,0,0.9-0.2,1.2-0.5V92c-0.3-0.4-0.7-0.5-1.2-0.5c-0.3,0-0.6,0.1-0.8,0.3c-0.2,0.2-0.3,0.4-0.3,0.7c0,0.3,0.1,0.5,0.3,0.7
			C62.2,93.2,62.5,93.3,62.8,93.3z"/>
		<path class="st3" d="M69.6,93.7h-0.7v-2.8c0-0.4-0.1-0.6-0.3-0.8c-0.2-0.2-0.4-0.2-0.7-0.2c-0.3,0-0.5,0.1-0.7,0.2
			c-0.2,0.1-0.4,0.3-0.6,0.5v3.2H66v-4.3h0.7V90c0.2-0.2,0.4-0.4,0.7-0.5c0.3-0.1,0.6-0.2,0.9-0.2c0.9,0,1.4,0.5,1.4,1.4V93.7z"/>
	</g>
	<g>
		<path class="st3" d="M37.2,121.6c-1,0-1.7-0.3-2.3-1l0.4-0.6c0.5,0.6,1.1,0.9,1.9,0.9c0.5,0,0.8-0.1,1.1-0.3
			c0.2-0.2,0.3-0.4,0.3-0.7c0-0.2-0.1-0.4-0.2-0.5c-0.1-0.1-0.3-0.3-0.5-0.3s-0.4-0.2-0.7-0.2c-0.3-0.1-0.5-0.1-0.8-0.2
			s-0.5-0.2-0.7-0.3c-0.2-0.1-0.4-0.3-0.5-0.5s-0.2-0.5-0.2-0.7c0-0.5,0.2-0.9,0.6-1.2c0.4-0.3,0.9-0.5,1.5-0.5
			c0.9,0,1.6,0.3,2.1,0.8l-0.5,0.5c-0.4-0.5-1-0.7-1.7-0.7c-0.4,0-0.7,0.1-0.9,0.3c-0.2,0.2-0.3,0.4-0.3,0.7c0,0.2,0.1,0.4,0.3,0.5
			c0.2,0.1,0.4,0.2,0.7,0.3c0.3,0.1,0.5,0.1,0.9,0.2c0.3,0.1,0.6,0.2,0.9,0.3c0.3,0.1,0.5,0.3,0.7,0.5c0.2,0.2,0.3,0.5,0.3,0.9
			c0,0.5-0.2,0.9-0.5,1.3C38.5,121.4,38,121.6,37.2,121.6z"/>
		<path class="st3" d="M41.5,121.6c-0.3,0-0.6-0.1-0.7-0.3c-0.2-0.2-0.2-0.4-0.2-0.8v-2.8h-0.7v-0.6h0.7v-1.2h0.7v1.2h0.9v0.6h-0.9
			v2.7c0,0.2,0,0.3,0.1,0.4c0.1,0.1,0.2,0.2,0.3,0.2c0.2,0,0.4-0.1,0.5-0.2l0.2,0.5C42.1,121.5,41.8,121.6,41.5,121.6z"/>
		<path class="st3" d="M46.4,121.5h-0.7V121c-0.4,0.4-0.8,0.6-1.4,0.6c-0.4,0-0.8-0.1-1.1-0.4c-0.3-0.3-0.5-0.6-0.5-1.1
			c0-0.5,0.2-0.8,0.5-1.1c0.3-0.2,0.7-0.4,1.1-0.4c0.6,0,1.1,0.2,1.4,0.6v-0.8c0-0.3-0.1-0.5-0.3-0.7s-0.5-0.2-0.8-0.2
			c-0.5,0-1,0.2-1.3,0.6l-0.3-0.5c0.5-0.5,1-0.7,1.7-0.7c0.5,0,0.9,0.1,1.2,0.4c0.3,0.2,0.5,0.6,0.5,1.1V121.5z M44.6,121.1
			c0.5,0,0.9-0.2,1.2-0.5v-0.8c-0.3-0.4-0.7-0.5-1.2-0.5c-0.3,0-0.6,0.1-0.8,0.3c-0.2,0.2-0.3,0.4-0.3,0.7c0,0.3,0.1,0.5,0.3,0.7
			C44,121,44.2,121.1,44.6,121.1z"/>
		<path class="st3" d="M48.9,121.6c-0.3,0-0.6-0.1-0.7-0.3c-0.2-0.2-0.2-0.4-0.2-0.8v-2.8h-0.7v-0.6h0.7v-1.2h0.7v1.2h0.9v0.6h-0.9
			v2.7c0,0.2,0,0.3,0.1,0.4c0.1,0.1,0.2,0.2,0.3,0.2c0.2,0,0.4-0.1,0.5-0.2l0.2,0.5C49.5,121.5,49.2,121.6,48.9,121.6z"/>
		<path class="st3" d="M52.4,121.6c-0.6,0-1.2-0.2-1.6-0.6s-0.6-1-0.6-1.7c0-0.6,0.2-1.2,0.6-1.6c0.4-0.4,0.9-0.7,1.5-0.7
			c0.6,0,1.2,0.2,1.5,0.7c0.4,0.4,0.6,1,0.6,1.7v0.2h-3.5c0,0.4,0.2,0.8,0.5,1.1c0.3,0.3,0.6,0.4,1.1,0.4c0.5,0,1-0.2,1.3-0.5
			l0.3,0.4C53.7,121.4,53.1,121.6,52.4,121.6z M53.7,119c0-0.4-0.1-0.7-0.4-1s-0.6-0.4-1.1-0.4c-0.4,0-0.8,0.1-1,0.4s-0.4,0.6-0.4,1
			H53.7z"/>
		<path class="st3" d="M56.2,121.5h-0.7v-6h0.7V121.5z"/>
		<path class="st3" d="M59.5,121.6c-0.6,0-1.2-0.2-1.6-0.6s-0.6-1-0.6-1.7c0-0.6,0.2-1.2,0.6-1.6c0.4-0.4,0.9-0.7,1.5-0.7
			c0.6,0,1.2,0.2,1.5,0.7c0.4,0.4,0.6,1,0.6,1.7v0.2H58c0,0.4,0.2,0.8,0.5,1.1c0.3,0.3,0.6,0.4,1.1,0.4c0.5,0,1-0.2,1.3-0.5l0.3,0.4
			C60.8,121.4,60.2,121.6,59.5,121.6z M60.8,119c0-0.4-0.1-0.7-0.4-1s-0.6-0.4-1.1-0.4c-0.4,0-0.8,0.1-1,0.4s-0.4,0.6-0.4,1H60.8z"
			/>
		<path class="st3" d="M64,121.6c-0.7,0-1.3-0.2-1.8-0.7l0.4-0.5c0.1,0.2,0.4,0.3,0.6,0.4c0.3,0.1,0.5,0.2,0.8,0.2
			c0.3,0,0.6-0.1,0.8-0.2c0.2-0.1,0.3-0.3,0.3-0.5c0-0.2-0.1-0.3-0.3-0.5c-0.2-0.1-0.4-0.2-0.7-0.3c-0.3-0.1-0.5-0.1-0.8-0.2
			c-0.3-0.1-0.5-0.2-0.7-0.4c-0.2-0.2-0.3-0.4-0.3-0.7c0-0.4,0.1-0.7,0.4-0.9s0.7-0.4,1.2-0.4c0.7,0,1.2,0.2,1.6,0.6l-0.3,0.5
			c-0.3-0.4-0.7-0.5-1.3-0.5c-0.3,0-0.5,0.1-0.7,0.2s-0.3,0.3-0.3,0.5c0,0.2,0.1,0.3,0.3,0.4c0.2,0.1,0.4,0.2,0.7,0.2
			s0.5,0.1,0.8,0.2c0.3,0.1,0.5,0.2,0.7,0.4c0.2,0.2,0.3,0.4,0.3,0.8c0,0.4-0.2,0.7-0.4,0.9C64.9,121.5,64.5,121.6,64,121.6z"/>
		<path class="st3" d="M68.1,121.6c-0.7,0-1.3-0.2-1.8-0.7l0.4-0.5c0.1,0.2,0.4,0.3,0.6,0.4c0.3,0.1,0.5,0.2,0.8,0.2
			c0.3,0,0.6-0.1,0.8-0.2c0.2-0.1,0.3-0.3,0.3-0.5c0-0.2-0.1-0.3-0.3-0.5c-0.2-0.1-0.4-0.2-0.7-0.3c-0.3-0.1-0.5-0.1-0.8-0.2
			c-0.3-0.1-0.5-0.2-0.7-0.4c-0.2-0.2-0.3-0.4-0.3-0.7c0-0.4,0.1-0.7,0.4-0.9s0.7-0.4,1.2-0.4c0.7,0,1.2,0.2,1.6,0.6l-0.3,0.5
			c-0.3-0.4-0.7-0.5-1.3-0.5c-0.3,0-0.5,0.1-0.7,0.2c-0.2,0.1-0.3,0.3-0.3,0.5c0,0.2,0.1,0.3,0.3,0.4c0.2,0.1,0.4,0.2,0.7,0.2
			c0.3,0.1,0.5,0.1,0.8,0.2c0.3,0.1,0.5,0.2,0.7,0.4c0.2,0.2,0.3,0.4,0.3,0.8c0,0.4-0.2,0.7-0.5,0.9S68.7,121.6,68.1,121.6z"/>
	</g>
	<g>
		<path class="st0" d="M210.5,49.3h-1.5v-6.4l-1.4,1.4l-0.9-0.9l2.4-2.4h1.3V49.3z"/>
		<path class="st0" d="M217.4,48.8c-0.6,0.4-1.4,0.6-2.3,0.6c-0.9,0-1.7-0.2-2.3-0.6c-0.6-0.4-0.9-1-0.9-1.7c0-0.5,0.2-1,0.5-1.3
			c0.4-0.4,0.8-0.7,1.3-0.8c-0.5-0.2-0.9-0.4-1.3-0.7c-0.3-0.3-0.5-0.7-0.5-1.2c0-0.4,0.1-0.7,0.3-1c0.2-0.3,0.4-0.5,0.7-0.7
			s0.6-0.3,1-0.4c0.4-0.1,0.7-0.1,1.1-0.1c0.4,0,0.8,0,1.1,0.1c0.3,0.1,0.7,0.2,1,0.4c0.3,0.2,0.5,0.4,0.7,0.7s0.3,0.6,0.3,1
			c0,0.9-0.6,1.6-1.8,2c0.5,0.2,1,0.5,1.3,0.8c0.4,0.4,0.5,0.8,0.5,1.3C218.3,47.8,218,48.4,217.4,48.8z M215.2,48.1
			c0.5,0,0.9-0.1,1.2-0.3c0.3-0.2,0.5-0.5,0.5-0.8c0-0.4-0.2-0.7-0.6-0.9c-0.4-0.2-0.8-0.4-1.1-0.4c-0.2,0-0.4,0.1-0.7,0.2
			c-0.2,0.1-0.5,0.2-0.7,0.4c-0.2,0.2-0.3,0.4-0.3,0.7c0,0.3,0.2,0.6,0.5,0.8C214.3,48,214.7,48.1,215.2,48.1z M215.2,44.4
			c0.2,0,0.4-0.1,0.6-0.2c0.2-0.1,0.4-0.2,0.6-0.4c0.2-0.2,0.3-0.4,0.3-0.6c0-0.3-0.1-0.6-0.4-0.8c-0.3-0.2-0.7-0.3-1.1-0.3
			c-0.5,0-0.8,0.1-1.1,0.3c-0.3,0.2-0.4,0.5-0.4,0.8c0,0.2,0.1,0.5,0.3,0.6c0.2,0.2,0.4,0.3,0.6,0.4
			C214.7,44.3,214.9,44.3,215.2,44.4z"/>
		<path class="st0" d="M224.2,49c-0.4,0.2-0.9,0.4-1.5,0.4c-0.6,0-1.1-0.1-1.5-0.4c-0.4-0.2-0.8-0.6-1.1-1c-0.3-0.4-0.5-0.9-0.6-1.4
			c-0.1-0.5-0.2-1-0.2-1.6c0-0.5,0.1-1.1,0.2-1.6c0.1-0.5,0.3-1,0.6-1.4c0.3-0.4,0.6-0.7,1.1-1c0.4-0.2,0.9-0.4,1.5-0.4
			c0.6,0,1.1,0.1,1.5,0.4c0.4,0.2,0.8,0.6,1,1c0.3,0.4,0.5,0.9,0.6,1.4s0.2,1,0.2,1.6c0,0.5-0.1,1.1-0.2,1.6s-0.3,1-0.6,1.4
			C225,48.5,224.7,48.8,224.2,49z M221.3,47.3c0.3,0.6,0.8,0.8,1.4,0.8c0.6,0,1.1-0.3,1.4-0.8s0.5-1.3,0.5-2.2
			c0-0.6-0.1-1.1-0.2-1.5c-0.1-0.4-0.3-0.8-0.6-1.1c-0.3-0.3-0.6-0.4-1.1-0.4c-0.4,0-0.8,0.1-1.1,0.4s-0.5,0.6-0.6,1.1
			c-0.1,0.4-0.2,0.9-0.2,1.5C220.9,46,221,46.7,221.3,47.3z"/>
	</g>
	<g>
		<path class="st0" d="M213.3,76h-6v-1.1c1.7-1.3,2.9-2.3,3.6-2.9c0.6-0.6,0.9-1.2,0.9-1.8c0-0.4-0.1-0.7-0.4-0.9
			c-0.3-0.2-0.7-0.3-1.1-0.3c-0.9,0-1.7,0.3-2.2,1l-0.8-1c0.4-0.4,0.8-0.8,1.4-1c0.5-0.2,1.1-0.3,1.7-0.3c0.9,0,1.6,0.2,2.2,0.7
			c0.6,0.5,0.9,1.1,0.9,1.9c0,0.7-0.3,1.4-0.9,2.1c-0.6,0.7-1.5,1.5-2.8,2.5h3.7V76z"/>
		<path class="st0" d="M219.5,75.8c-0.4,0.2-0.9,0.4-1.5,0.4c-0.6,0-1.1-0.1-1.5-0.4c-0.4-0.2-0.8-0.6-1.1-1s-0.5-0.9-0.6-1.4
			c-0.1-0.5-0.2-1-0.2-1.6s0.1-1.1,0.2-1.6c0.1-0.5,0.3-1,0.6-1.4c0.3-0.4,0.6-0.7,1.1-1c0.4-0.2,0.9-0.4,1.5-0.4
			c0.6,0,1.1,0.1,1.5,0.4c0.4,0.2,0.8,0.6,1,1c0.3,0.4,0.5,0.9,0.6,1.4s0.2,1,0.2,1.6s-0.1,1.1-0.2,1.6s-0.3,1-0.6,1.4
			C220.3,75.2,219.9,75.5,219.5,75.8z M216.6,74c0.3,0.6,0.8,0.9,1.4,0.9c0.6,0,1.1-0.3,1.4-0.9c0.3-0.6,0.5-1.3,0.5-2.2
			c0-0.6-0.1-1.1-0.2-1.5c-0.1-0.4-0.3-0.8-0.6-1.1c-0.3-0.3-0.6-0.4-1.1-0.4c-0.4,0-0.8,0.1-1.1,0.4c-0.3,0.3-0.5,0.6-0.6,1.1
			c-0.1,0.4-0.2,0.9-0.2,1.5C216.1,72.7,216.3,73.4,216.6,74z"/>
		<path class="st0" d="M225.6,76.2c-1.3,0-2.4-0.4-3.1-1.3l0.8-1c0.6,0.7,1.3,1,2.2,1c0.5,0,0.9-0.1,1.2-0.4s0.5-0.6,0.5-1
			c0-0.5-0.2-0.8-0.5-1.1c-0.3-0.3-0.7-0.4-1.2-0.4c-0.7,0-1.3,0.2-1.8,0.7l-1-0.3v-4.7h5.5V69h-4v2.4c0.5-0.5,1.1-0.7,1.9-0.7
			c0.7,0,1.4,0.2,1.9,0.7c0.5,0.5,0.8,1.1,0.8,2c0,0.9-0.3,1.5-0.9,2.1C227.3,75.9,226.6,76.2,225.6,76.2z"/>
	</g>
	<g>
		<path class="st0" d="M212.7,104.9c-0.6,0.4-1.4,0.6-2.3,0.6c-0.9,0-1.7-0.2-2.3-0.6c-0.6-0.4-0.9-1-0.9-1.7c0-0.5,0.2-1,0.5-1.3
			c0.4-0.4,0.8-0.7,1.3-0.8c-0.5-0.2-0.9-0.4-1.3-0.7c-0.3-0.3-0.5-0.7-0.5-1.2c0-0.4,0.1-0.7,0.3-1c0.2-0.3,0.4-0.5,0.7-0.7
			s0.6-0.3,1-0.4c0.4-0.1,0.7-0.1,1.1-0.1c0.4,0,0.8,0,1.1,0.1c0.3,0.1,0.7,0.2,1,0.4c0.3,0.2,0.5,0.4,0.7,0.7s0.3,0.6,0.3,1
			c0,0.9-0.6,1.6-1.8,2c0.5,0.2,1,0.5,1.3,0.8c0.4,0.4,0.5,0.8,0.5,1.3C213.6,104,213.3,104.5,212.7,104.9z M210.4,104.2
			c0.5,0,0.9-0.1,1.2-0.3c0.3-0.2,0.5-0.5,0.5-0.8c0-0.4-0.2-0.7-0.6-0.9c-0.4-0.2-0.8-0.4-1.1-0.4c-0.2,0-0.4,0.1-0.7,0.2
			c-0.2,0.1-0.5,0.2-0.7,0.4c-0.2,0.2-0.3,0.4-0.3,0.7c0,0.3,0.2,0.6,0.5,0.8C209.5,104.1,209.9,104.2,210.4,104.2z M210.4,100.5
			c0.2,0,0.4-0.1,0.6-0.2c0.2-0.1,0.4-0.2,0.6-0.4c0.2-0.2,0.3-0.4,0.3-0.6c0-0.3-0.1-0.6-0.4-0.8c-0.3-0.2-0.7-0.3-1.1-0.3
			c-0.5,0-0.8,0.1-1.1,0.3c-0.3,0.2-0.4,0.5-0.4,0.8c0,0.2,0.1,0.5,0.3,0.6c0.2,0.2,0.4,0.3,0.6,0.4
			C210,100.4,210.2,100.5,210.4,100.5z"/>
		<path class="st0" d="M219.5,105.2c-0.4,0.2-0.9,0.4-1.5,0.4c-0.6,0-1.1-0.1-1.5-0.4c-0.4-0.2-0.8-0.6-1.1-1
			c-0.3-0.4-0.5-0.9-0.6-1.4c-0.1-0.5-0.2-1-0.2-1.6c0-0.5,0.1-1.1,0.2-1.6c0.1-0.5,0.3-1,0.6-1.4c0.3-0.4,0.6-0.7,1.1-1
			c0.4-0.2,0.9-0.4,1.5-0.4c0.6,0,1.1,0.1,1.5,0.4c0.4,0.2,0.8,0.6,1,1c0.3,0.4,0.5,0.9,0.6,1.4s0.2,1,0.2,1.6
			c0,0.5-0.1,1.1-0.2,1.6s-0.3,1-0.6,1.4C220.3,104.6,219.9,104.9,219.5,105.2z M216.6,103.4c0.3,0.6,0.8,0.8,1.4,0.8
			c0.6,0,1.1-0.3,1.4-0.8s0.5-1.3,0.5-2.2c0-0.6-0.1-1.1-0.2-1.5c-0.1-0.4-0.3-0.8-0.6-1.1c-0.3-0.3-0.6-0.4-1.1-0.4
			c-0.4,0-0.8,0.1-1.1,0.4s-0.5,0.6-0.6,1.1c-0.1,0.4-0.2,0.9-0.2,1.5C216.1,102.1,216.3,102.8,216.6,103.4z"/>
	</g>
	<g>
		<path class="st0" d="M51.2,163.2c-1,0-1.8-0.3-2.4-0.9l0.7-1.1c0.5,0.5,1,0.7,1.7,0.7c0.7,0,1.3-0.3,1.6-0.8
			c0.4-0.5,0.6-1.2,0.6-1.9v-0.2c-0.2,0.3-0.5,0.6-0.9,0.8c-0.4,0.2-0.8,0.4-1.3,0.4c-0.8,0-1.5-0.2-2-0.7c-0.5-0.5-0.8-1.1-0.8-2
			c0-0.8,0.3-1.5,0.9-2c0.6-0.5,1.3-0.8,2.2-0.8c0.8,0,1.4,0.2,2,0.6s0.9,0.9,1.1,1.5c0.2,0.6,0.3,1.3,0.3,2.2c0,1.2-0.3,2.3-1,3.1
			S52.4,163.2,51.2,163.2z M51.5,158.8c0.4,0,0.7-0.1,1-0.3c0.3-0.2,0.6-0.4,0.8-0.7c0-0.5-0.2-1-0.5-1.4c-0.3-0.4-0.8-0.6-1.3-0.6
			c-0.5,0-0.9,0.1-1.2,0.4c-0.3,0.3-0.5,0.6-0.5,1c0,0.5,0.2,0.9,0.5,1.1C50.6,158.7,51.1,158.8,51.5,158.8z"/>
		<path class="st0" d="M62,163h-6v-1.2c1.7-1.3,2.9-2.3,3.6-2.9c0.6-0.6,0.9-1.2,0.9-1.8c0-0.4-0.1-0.7-0.4-0.9s-0.7-0.3-1.1-0.3
			c-0.9,0-1.7,0.3-2.2,1l-0.8-1c0.4-0.4,0.8-0.8,1.4-1c0.5-0.2,1.1-0.3,1.7-0.3c0.9,0,1.6,0.2,2.1,0.7c0.6,0.5,0.9,1.1,0.9,1.9
			c0,0.7-0.3,1.4-0.9,2.1s-1.5,1.5-2.8,2.5H62V163z"/>
		<path class="st0" d="M68.2,162.8c-0.4,0.2-0.9,0.4-1.5,0.4s-1.1-0.1-1.5-0.4s-0.8-0.6-1.1-1c-0.3-0.4-0.5-0.9-0.6-1.4
			s-0.2-1-0.2-1.6c0-0.5,0.1-1.1,0.2-1.6s0.3-1,0.6-1.4c0.3-0.4,0.6-0.7,1.1-1s0.9-0.4,1.5-0.4s1.1,0.1,1.5,0.4s0.8,0.6,1,1
			c0.3,0.4,0.5,0.9,0.6,1.4c0.1,0.5,0.2,1,0.2,1.6c0,0.5-0.1,1.1-0.2,1.6c-0.1,0.5-0.3,1-0.6,1.4C69,162.2,68.6,162.6,68.2,162.8z
			 M65.3,161c0.3,0.6,0.8,0.8,1.4,0.8s1.1-0.3,1.4-0.8c0.3-0.6,0.4-1.3,0.4-2.2c0-0.6-0.1-1.1-0.2-1.5c-0.1-0.4-0.3-0.8-0.6-1.1
			s-0.6-0.4-1.1-0.4s-0.8,0.1-1.1,0.4c-0.3,0.3-0.5,0.6-0.6,1.1c-0.1,0.4-0.2,0.9-0.2,1.5C64.8,159.7,65,160.5,65.3,161z"/>
	</g>
	<g>
		<path class="st0" d="M54.7,133.1h-1.5v-6.4l-1.4,1.4l-0.8-0.9l2.4-2.4h1.3V133.1z"/>
		<path class="st0" d="M61.4,133.1h-1.5v-1.9h-4v-1.2l3.4-5.3h2v5.2h1.1v1.3h-1.1V133.1z M59.9,129.9v-3.8l-2.5,3.8H59.9z"/>
		<path class="st0" d="M68.2,132.9c-0.4,0.2-0.9,0.4-1.5,0.4s-1.1-0.1-1.5-0.4s-0.8-0.6-1.1-1c-0.3-0.4-0.5-0.9-0.6-1.4
			s-0.2-1-0.2-1.6s0.1-1.1,0.2-1.6s0.3-1,0.6-1.4c0.3-0.4,0.6-0.7,1.1-1s0.9-0.4,1.5-0.4s1.1,0.1,1.5,0.4s0.8,0.6,1,1
			c0.3,0.4,0.5,0.9,0.6,1.4c0.1,0.5,0.2,1,0.2,1.6s-0.1,1.1-0.2,1.6c-0.1,0.5-0.3,1-0.6,1.4S68.6,132.6,68.2,132.9z M65.3,131.1
			c0.3,0.6,0.8,0.8,1.4,0.8s1.1-0.3,1.4-0.8c0.3-0.6,0.4-1.3,0.4-2.2c0-0.6-0.1-1.1-0.2-1.5c-0.1-0.4-0.3-0.8-0.6-1.1
			c-0.3-0.3-0.6-0.4-1.1-0.4s-0.8,0.1-1.1,0.4c-0.3,0.3-0.5,0.6-0.6,1.1c-0.1,0.4-0.2,0.9-0.2,1.5C64.8,129.8,65,130.6,65.3,131.1z"
			/>
	</g>
	<g>
		<path class="st0" d="M59.1,105.7c-1.3,0-2.4-0.4-3.1-1.3l0.8-1c0.6,0.7,1.3,1,2.2,1c0.5,0,0.9-0.1,1.2-0.4c0.3-0.3,0.5-0.6,0.5-1
			c0-0.5-0.2-0.8-0.5-1.1c-0.3-0.3-0.7-0.4-1.2-0.4c-0.7,0-1.3,0.2-1.8,0.7l-1-0.3v-4.7h5.5v1.3h-4v2.4c0.5-0.5,1.1-0.7,1.9-0.7
			c0.7,0,1.4,0.2,1.9,0.7c0.5,0.5,0.8,1.1,0.8,2c0,0.9-0.3,1.5-0.9,2.1C60.8,105.4,60.1,105.7,59.1,105.7z"/>
		<path class="st0" d="M68.2,105.3c-0.4,0.2-0.9,0.4-1.5,0.4s-1.1-0.1-1.5-0.4s-0.8-0.6-1.1-1c-0.3-0.4-0.5-0.9-0.6-1.4
			s-0.2-1-0.2-1.6c0-0.5,0.1-1.1,0.2-1.6s0.3-1,0.6-1.4c0.3-0.4,0.6-0.7,1.1-1s0.9-0.4,1.5-0.4s1.1,0.1,1.5,0.4s0.8,0.6,1,1
			c0.3,0.4,0.5,0.9,0.6,1.4c0.1,0.5,0.2,1,0.2,1.6c0,0.5-0.1,1.1-0.2,1.6c-0.1,0.5-0.3,1-0.6,1.4C69,104.7,68.6,105.1,68.2,105.3z
			 M65.3,103.5c0.3,0.6,0.8,0.8,1.4,0.8s1.1-0.3,1.4-0.8c0.3-0.6,0.4-1.3,0.4-2.2c0-0.6-0.1-1.1-0.2-1.5c-0.1-0.4-0.3-0.8-0.6-1.1
			s-0.6-0.4-1.1-0.4s-0.8,0.1-1.1,0.4c-0.3,0.3-0.5,0.6-0.6,1.1c-0.1,0.4-0.2,0.9-0.2,1.5C64.8,102.2,65,103,65.3,103.5z"/>
	</g>
	<g>
		<path class="st0" d="M54.5,76h-6v-1.2c1.7-1.3,2.9-2.3,3.6-2.9c0.6-0.6,0.9-1.2,0.9-1.8c0-0.4-0.1-0.7-0.4-0.9s-0.7-0.3-1.1-0.3
			c-0.9,0-1.7,0.3-2.2,1l-0.8-1c0.4-0.4,0.8-0.8,1.4-1c0.5-0.2,1.1-0.3,1.7-0.3c0.8,0,1.6,0.2,2.2,0.7c0.6,0.5,0.9,1.1,0.9,1.9
			c0,0.7-0.3,1.4-0.9,2.1s-1.5,1.5-2.8,2.5h3.7V76z"/>
		<path class="st0" d="M59.3,76.2c-0.6,0-1.1-0.1-1.6-0.3c-0.5-0.2-0.8-0.5-1.1-0.9c-0.3-0.4-0.5-0.9-0.6-1.4
			c-0.1-0.5-0.2-1.1-0.2-1.7c0-1.3,0.3-2.3,1-3.1s1.5-1.2,2.7-1.2c1,0,1.8,0.3,2.4,0.9l-0.7,1.1c-0.5-0.5-1-0.7-1.7-0.7
			c-0.7,0-1.2,0.3-1.6,0.8s-0.6,1.2-0.6,1.9c0,0.1,0,0.2,0,0.2c0.2-0.3,0.5-0.6,0.9-0.8s0.8-0.4,1.3-0.4c0.8,0,1.5,0.2,2,0.7
			c0.5,0.5,0.8,1.1,0.8,2c0,0.8-0.3,1.5-0.8,2C60.9,75.9,60.2,76.2,59.3,76.2z M59.2,74.9c0.5,0,0.9-0.1,1.2-0.4s0.5-0.6,0.5-1
			c0-0.5-0.2-0.9-0.5-1.1c-0.3-0.3-0.7-0.4-1.2-0.4c-0.3,0-0.7,0.1-1,0.3c-0.3,0.2-0.6,0.4-0.8,0.7c0,0.5,0.2,1,0.5,1.4
			C58.1,74.7,58.6,74.9,59.2,74.9z"/>
		<path class="st0" d="M68.2,75.8c-0.4,0.2-0.9,0.4-1.5,0.4s-1.1-0.1-1.5-0.4s-0.8-0.6-1.1-1c-0.3-0.4-0.5-0.9-0.6-1.4
			s-0.2-1-0.2-1.6c0-0.5,0.1-1.1,0.2-1.6s0.3-1,0.6-1.4c0.3-0.4,0.6-0.7,1.1-1s0.9-0.4,1.5-0.4s1.1,0.1,1.5,0.4s0.8,0.6,1,1
			c0.3,0.4,0.5,0.9,0.6,1.4c0.1,0.5,0.2,1,0.2,1.6c0,0.5-0.1,1.1-0.2,1.6c-0.1,0.5-0.3,1-0.6,1.4C69,75.2,68.6,75.5,68.2,75.8z
			 M65.3,74c0.3,0.6,0.8,0.8,1.4,0.8s1.1-0.3,1.4-0.8c0.3-0.6,0.4-1.3,0.4-2.2c0-0.6-0.1-1.1-0.2-1.5c-0.1-0.4-0.3-0.8-0.6-1.1
			s-0.6-0.4-1.1-0.4s-0.8,0.1-1.1,0.4c-0.3,0.3-0.5,0.6-0.6,1.1c-0.1,0.4-0.2,0.9-0.2,1.5C64.8,72.7,65,73.4,65.3,74z"/>
	</g>
	<g>
		<path class="st0" d="M52,46.9c-0.7,0-1.3-0.1-1.9-0.4c-0.5-0.2-1-0.6-1.3-1l0.8-1c0.3,0.3,0.6,0.6,1,0.7c0.4,0.2,0.8,0.3,1.3,0.3
			c0.5,0,1-0.1,1.3-0.3c0.3-0.2,0.5-0.5,0.5-0.9c0-0.8-0.6-1.2-1.8-1.2c-0.6,0-0.9,0-1,0v-1.3c0.1,0,0.4,0,1,0
			c0.5,0,0.9-0.1,1.2-0.3c0.3-0.2,0.5-0.5,0.5-0.8c0-0.4-0.2-0.7-0.5-0.9c-0.3-0.2-0.7-0.3-1.2-0.3c-0.8,0-1.5,0.3-2.1,0.9L49,39.6
			c0.7-0.9,1.8-1.3,3-1.3c0.9,0,1.6,0.2,2.2,0.6c0.5,0.4,0.8,1,0.8,1.6c0,0.5-0.2,0.9-0.5,1.3c-0.4,0.3-0.8,0.5-1.3,0.6
			c0.5,0,0.9,0.2,1.3,0.6c0.4,0.4,0.6,0.8,0.6,1.4c0,0.7-0.3,1.3-0.9,1.8C53.8,46.7,53,46.9,52,46.9z"/>
		<path class="st0" d="M61.6,46.8h-1.5v-1.9h-4v-1.2l3.4-5.3h2v5.2h1.1v1.3h-1.1V46.8z M60.1,43.6v-3.9l-2.5,3.9H60.1z"/>
		<path class="st0" d="M66.8,46.9c-1.3,0-2.4-0.4-3.1-1.3l0.8-1c0.6,0.7,1.3,1,2.2,1c0.5,0,0.9-0.1,1.2-0.4c0.3-0.3,0.5-0.6,0.5-1
			c0-0.5-0.2-0.8-0.5-1.1c-0.3-0.3-0.7-0.4-1.2-0.4c-0.7,0-1.3,0.2-1.8,0.7l-1-0.3v-4.7h5.5v1.3h-4v2.4c0.5-0.5,1.1-0.7,1.9-0.7
			c0.7,0,1.4,0.2,1.9,0.7c0.5,0.5,0.8,1.1,0.8,2c0,0.9-0.3,1.5-0.9,2.1S67.8,46.9,66.8,46.9z"/>
	</g>
	<g>
		<path class="st0" d="M143.2,28.9h-1.5v-6.4l-1.4,1.4l-0.9-0.9l2.4-2.4h1.3V28.9z"/>
		<path class="st0" d="M147.6,29.1c-0.7,0-1.3-0.1-1.9-0.4c-0.5-0.2-1-0.6-1.3-1l0.8-1c0.3,0.3,0.6,0.6,1,0.7
			c0.4,0.2,0.8,0.3,1.3,0.3c0.5,0,1-0.1,1.3-0.3c0.3-0.2,0.5-0.5,0.5-0.9c0-0.8-0.6-1.2-1.8-1.2c-0.6,0-0.9,0-1,0V24
			c0.1,0,0.4,0,1,0c0.5,0,0.9-0.1,1.2-0.3c0.3-0.2,0.5-0.5,0.5-0.8c0-0.4-0.2-0.7-0.5-0.9c-0.3-0.2-0.7-0.3-1.2-0.3
			c-0.8,0-1.5,0.3-2.1,0.9l-0.8-0.9c0.7-0.9,1.8-1.3,3-1.3c0.9,0,1.6,0.2,2.2,0.6c0.5,0.4,0.8,1,0.8,1.6c0,0.5-0.2,0.9-0.5,1.3
			c-0.4,0.3-0.8,0.5-1.3,0.6c0.5,0,0.9,0.2,1.3,0.6c0.4,0.4,0.6,0.8,0.6,1.4c0,0.7-0.3,1.3-0.9,1.8
			C149.3,28.8,148.5,29.1,147.6,29.1z"/>
		<path class="st0" d="M155.1,29.1c-1.3,0-2.4-0.4-3.1-1.3l0.8-1c0.6,0.7,1.3,1,2.2,1c0.5,0,0.9-0.1,1.2-0.4c0.3-0.3,0.5-0.6,0.5-1
			c0-0.5-0.2-0.8-0.5-1.1c-0.3-0.3-0.7-0.4-1.2-0.4c-0.7,0-1.3,0.2-1.8,0.7l-1-0.3v-4.7h5.5v1.3h-4v2.4c0.5-0.5,1.1-0.7,1.9-0.7
			c0.7,0,1.4,0.2,1.9,0.7c0.5,0.5,0.8,1.1,0.8,2c0,0.9-0.3,1.5-0.9,2.1S156,29.1,155.1,29.1z"/>
	</g>
	<g>
		<g>
			<path class="st4" d="M200.2,66.5c-11.3-2.7-32.2-8.7-44.4,1.6"/>
			<g>
				<path class="st2" d="M155.8,68.1c0.3,0,0.7,0.3,0.8,0.5c-0.5-0.1-1-0.1-1.5,0c0.2-0.4,0.3-1,0.3-1.4
					C155.7,67.5,155.8,67.8,155.8,68.1z"/>
			</g>
		</g>
	</g>
	<g>
		<g>
			<path class="st5" d="M201.3,95.3c-12.7,2.3-38.2-3.2-49.1-15.6"/>
			<g>
				<path class="st2" d="M152.2,79.8c0,0.1-0.1,0.3-0.2,0.3c0-0.2,0-0.4,0-0.6c0.2,0.1,0.4,0.1,0.6,0.1
					C152.4,79.7,152.3,79.8,152.2,79.8z"/>
			</g>
		</g>
	</g>
	<g>
		<g>
			<path class="st6" d="M77.7,151.1c13.9,0.6,37.1-2,48.7-18.3"/>
			<g>
				<path class="st2" d="M126.2,133c-0.9,0.2-2.2-0.3-3-0.8c1.5-0.1,3.1-0.4,4.4-1.3c-0.3,1.5-0.1,3.1,0.4,4.6
					C127.3,134.9,126.4,134,126.2,133z"/>
			</g>
		</g>
	</g>
	<g>
		<g>
			<path class="st1" d="M199.1,128.7c-20.5,4.7-38.5,9.3-57.5-6"/>
			<g>
				<path class="st2" d="M141.7,122.8c0,0.3-0.1,0.6-0.3,0.8c0-0.4-0.1-0.9-0.3-1.3c0.4,0.1,0.9,0.1,1.3,0
					C142.2,122.5,142,122.7,141.7,122.8z"/>
			</g>
		</g>
	</g>
	<g>
		<g>
			<path class="st7" d="M77.7,34c18.3,0,56.6,3.7,68.7,34.2"/>
			<g>
				<path class="st2" d="M146.4,68.1c0.2-0.5,0.8-0.9,1.3-1.1c-0.4,0.7-0.7,1.5-0.8,2.4c-0.6-0.6-1.4-1-2.2-1.2
					C145.2,68,145.9,67.9,146.4,68.1z"/>
			</g>
		</g>
	</g>
	<g>
		<g>
			<path class="st8" d="M76.6,121.3c13,1.1,37,2.8,51-7.6"/>
			<g>
				<path class="st2" d="M127.5,113.7c-0.2,0-0.4-0.2-0.6-0.4c0.3,0.1,0.7,0.1,1,0c-0.2,0.3-0.2,0.6-0.2,1
					C127.6,114.2,127.5,114,127.5,113.7z"/>
			</g>
		</g>
	</g>
	<g>
		<g>
			<path class="st9" d="M76,65.7c14.4-4,43.9-8.3,63.5,8.7"/>
			<g>
				<path class="st2" d="M139.4,74.4c0-0.2,0.1-0.4,0.2-0.5c0,0.3,0,0.6,0.1,0.8c-0.3-0.1-0.6-0.1-0.8,0
					C139.1,74.6,139.2,74.4,139.4,74.4z"/>
			</g>
		</g>
	</g>
	<g>
		<g>
			<path class="st10" d="M76,95.4C86.2,87.1,111.6,77,135.3,83"/>
			<g>
				<path class="st2" d="M135.3,83c0-0.1,0-0.2,0-0.2c0,0.1,0.1,0.2,0.2,0.3c-0.1,0-0.2,0.1-0.3,0.2C135.1,83.1,135.2,83.1,135.3,83
					z"/>
			</g>
		</g>
	</g>
	<g>
		<g>
			<line class="st11" x1="149.1" y1="30.6" x2="149.1" y2="57.6"/>
			<g>
				<path class="st2" d="M149.1,57.6c0.1-0.1,0.4-0.2,0.6-0.2c-0.3,0.2-0.5,0.4-0.6,0.7c-0.1-0.3-0.4-0.5-0.6-0.7
					C148.7,57.4,148.9,57.4,149.1,57.6z"/>
			</g>
		</g>
	</g>
	<g>
		<path class="st0" d="M210.5,138.4h-1.5v-6.4l-1.4,1.4l-0.9-0.9l2.4-2.4h1.3V138.4z"/>
		<path class="st0" d="M217.4,137.9c-0.6,0.4-1.4,0.6-2.3,0.6c-0.9,0-1.7-0.2-2.3-0.6c-0.6-0.4-0.9-1-0.9-1.7c0-0.5,0.2-0.9,0.5-1.3
			c0.4-0.4,0.8-0.7,1.3-0.8c-0.5-0.2-0.9-0.4-1.3-0.7s-0.5-0.7-0.5-1.2c0-0.4,0.1-0.7,0.3-1c0.2-0.3,0.4-0.5,0.7-0.7
			c0.3-0.2,0.6-0.3,1-0.4c0.4-0.1,0.7-0.1,1.1-0.1c0.4,0,0.8,0,1.1,0.1s0.7,0.2,1,0.4c0.3,0.2,0.5,0.4,0.7,0.7
			c0.2,0.3,0.3,0.6,0.3,1c0,0.9-0.6,1.6-1.8,2c0.5,0.2,1,0.5,1.3,0.8c0.4,0.4,0.5,0.8,0.5,1.3C218.3,136.9,218,137.5,217.4,137.9z
			 M215.2,137.2c0.5,0,0.9-0.1,1.2-0.3s0.5-0.5,0.5-0.9c0-0.4-0.2-0.7-0.6-0.9c-0.4-0.2-0.8-0.4-1.1-0.4c-0.2,0-0.4,0.1-0.7,0.2
			c-0.2,0.1-0.5,0.2-0.7,0.4c-0.2,0.2-0.3,0.4-0.3,0.7c0,0.4,0.2,0.6,0.5,0.9C214.3,137.1,214.7,137.2,215.2,137.2z M215.2,133.5
			c0.2,0,0.4-0.1,0.6-0.2c0.2-0.1,0.4-0.2,0.6-0.4c0.2-0.2,0.3-0.4,0.3-0.6c0-0.3-0.1-0.6-0.4-0.8c-0.3-0.2-0.7-0.3-1.1-0.3
			c-0.5,0-0.8,0.1-1.1,0.3s-0.4,0.5-0.4,0.8c0,0.2,0.1,0.5,0.3,0.6c0.2,0.2,0.4,0.3,0.6,0.4C214.7,133.4,214.9,133.4,215.2,133.5z"
			/>
		<path class="st0" d="M224.2,138.1c-0.4,0.2-0.9,0.4-1.5,0.4c-0.6,0-1.1-0.1-1.5-0.4c-0.4-0.2-0.8-0.6-1.1-1s-0.5-0.9-0.6-1.4
			c-0.1-0.5-0.2-1-0.2-1.6s0.1-1.1,0.2-1.6c0.1-0.5,0.3-1,0.6-1.4c0.3-0.4,0.6-0.7,1.1-1c0.4-0.2,0.9-0.4,1.5-0.4
			c0.6,0,1.1,0.1,1.5,0.4c0.4,0.2,0.8,0.6,1,1c0.3,0.4,0.5,0.9,0.6,1.4s0.2,1,0.2,1.6s-0.1,1.1-0.2,1.6s-0.3,1-0.6,1.4
			C225,137.6,224.7,137.9,224.2,138.1z M221.3,136.4c0.3,0.6,0.8,0.9,1.4,0.9c0.6,0,1.1-0.3,1.4-0.9c0.3-0.6,0.5-1.3,0.5-2.2
			c0-0.6-0.1-1.1-0.2-1.5c-0.1-0.4-0.3-0.8-0.6-1.1c-0.3-0.3-0.6-0.4-1.1-0.4c-0.4,0-0.8,0.1-1.1,0.4c-0.3,0.3-0.5,0.6-0.6,1.1
			c-0.1,0.4-0.2,0.9-0.2,1.5C220.9,135.1,221,135.8,221.3,136.4z"/>
	</g>
</g>
</svg>
