<?xml version="1.0" encoding="utf-8"?>
<!-- Generator: Adobe Illustrator 19.2.0, SVG Export Plug-In . SVG Version: 6.00 Build 0)  -->
<svg version="1.1" id="Layer_1" xmlns="http://www.w3.org/2000/svg" xmlns:xlink="http://www.w3.org/1999/xlink" x="0px" y="0px"
	 viewBox="0 0 266.2 169.3" style="enable-background:new 0 0 266.2 169.3;" xml:space="preserve">
<style type="text/css">
	.st0{fill:#0D92FF;}
	.st1{fill:none;stroke:#00325C;stroke-width:0.17;stroke-miterlimit:10;}
	.st2{fill:#00325C;}
	.st3{fill:#787878;}
	.st4{fill:none;stroke:#00325C;stroke-width:1.45;stroke-miterlimit:10;}
	.st5{fill:none;stroke:#00325C;stroke-width:4.500000e-02;stroke-miterlimit:10;}
	.st6{fill:none;stroke:#00325C;stroke-width:1.175;stroke-miterlimit:3;}
	.st7{fill:none;stroke:#00325C;stroke-width:0.11;stroke-miterlimit:10;}
	.st8{fill:none;stroke:#00325C;stroke-width:0.455;stroke-miterlimit:10;}
	.st9{fill:none;stroke:#00325C;stroke-width:0.245;stroke-miterlimit:10;}
	.st10{fill:none;stroke:#00325C;stroke-width:0.41;stroke-miterlimit:10;}
	.st11{fill:none;stroke:#00325C;stroke-width:6.500000e-02;stroke-miterlimit:10;}
	.st12{fill:none;stroke:#00325C;stroke-width:0.15;stroke-miterlimit:10;}
</style>
<g>
	<path class="st0" d="M142.3,137.8L142.3,137.8L142.3,137.8L142.3,137.8L142.3,137.8l0.1-0.1L142.3,137.8L142.3,137.8L142.3,137.8
		L142.3,137.8L142.3,137.8z M142.6,139.1L142.6,139.1L142.6,139.1L142.6,139.1l0.1-0.1L142.6,139.1l0.1-0.1L142.6,139.1L142.6,139.1
		L142.6,139.1L142.6,139.1L142.6,139.1L142.6,139.1L142.6,139.1L142.6,139.1L142.6,139.1z M142.2,139.1L142.2,139.1l0,0.1
		L142.2,139.1L142.2,139.1L142.2,139.1L142.2,139.1L142.2,139.1L142.2,139.1z M142.2,139.5L142.2,139.5L142.2,139.5L142.2,139.5
		L142.2,139.5L142.2,139.5L142.2,139.5l-0.1,0.1l0,0.1l0,0l0.1,0l0,0l0-0.1l0,0L142.2,139.5L142.2,139.5L142.2,139.5L142.2,139.5z
		 M120.6,143.9L120.6,143.9L120.6,143.9L120.6,143.9L120.6,143.9l-0.1,0l0,0l0,0l0,0l0,0l0,0.1l0,0l0,0l0,0l0,0l0,0l0,0l0,0
		L120.6,143.9L120.6,143.9L120.6,143.9z M141.2,145L141.2,145l0.1,0.1l0,0L141.2,145L141.2,145l0-0.1L141.2,145L141.2,145z
		 M141.6,147L141.6,147L141.6,147L141.6,147L141.6,147L141.6,147z M140.8,148.1L140.8,148.1L140.8,148.1l0.1,0l0,0l0,0l0,0l0.1,0
		l0,0l0,0l-0.1,0L140.8,148.1l0-0.1l0,0L140.8,148.1L140.8,148.1L140.8,148.1L140.8,148.1z M135.8,155.4L135.8,155.4L135.8,155.4
		v-0.1V155.4z M134,155.6L134,155.6L134,155.6L134,155.6L134,155.6L134,155.6L134,155.6L134,155.6L134,155.6z M137.4,156.3
		L137.4,156.3L137.4,156.3L137.4,156.3L137.4,156.3L137.4,156.3L137.4,156.3L137.4,156.3L137.4,156.3L137.4,156.3l0,0.1L137.4,156.3
		L137.4,156.3L137.4,156.3L137.4,156.3z M133.5,156.4L133.5,156.4L133.5,156.4l0,0.1h0L133.5,156.4L133.5,156.4L133.5,156.4z
		 M159.3,91L159.3,91L159.3,91L159.3,91L159.3,91L159.3,91L159.3,91z M158,91L158,91L158,91L158,91L158,91L158,91L158,91L158,91z
		 M157.5,91.1L157.5,91.1l0,0.2h0l0,0l0,0L157.5,91.1L157.5,91.1L157.5,91.1z M157.5,91.6L157.5,91.6l0,0.1l0,0l0,0l0,0l0,0.1
		L157.5,91.6L157.5,91.6L157.5,91.6z M156.2,92.4L156.2,92.4L156.2,92.4l0,0.1L156.2,92.4L156.2,92.4L156.2,92.4z M154.6,93.4
		L154.6,93.4L154.6,93.4L154.6,93.4l-0.1,0.1l0,0l0,0.1l0-0.1L154.6,93.4L154.6,93.4z M154.6,94l0,0.1L154.6,94L154.6,94L154.6,94
		L154.6,94z M153,94.3L153,94.3l0-0.1L153,94.3l0,0.1l0,0l0,0l0,0l0,0l0.1,0l0-0.1L153,94.3L153,94.3z M152.6,94.4L152.6,94.4
		L152.6,94.4L152.6,94.4L152.6,94.4L152.6,94.4L152.6,94.4L152.6,94.4z M151.7,96.1L151.7,96.1L151.7,96.1l0-0.1l0,0L151.7,96.1
		L151.7,96.1z M150.4,96.8L150.4,96.8L150.4,96.8L150.4,96.8l0.1,0L150.4,96.8L150.4,96.8L150.4,96.8z M150.2,97.2L150.2,97.2
		L150.2,97.2l0.1-0.1L150.2,97.2L150.2,97.2z M166.7,71.2L166.7,71.2l0,0.2l0,0L166.7,71.2L166.7,71.2z M166.6,71.3L166.6,71.3
		l0,0.1l0.1,0.1l0,0L166.6,71.3L166.6,71.3z M172.3,71.4L172.3,71.4L172.3,71.4l0,0.1L172.3,71.4L172.3,71.4L172.3,71.4L172.3,71.4
		L172.3,71.4L172.3,71.4z M172.5,71.5L172.5,71.5L172.5,71.5l0-0.1l-0.1,0L172.5,71.5z M169.7,71.5L169.7,71.5L169.7,71.5
		L169.7,71.5L169.7,71.5L169.7,71.5L169.7,71.5L169.7,71.5L169.7,71.5L169.7,71.5L169.7,71.5z M168.6,71.4L168.6,71.4L168.6,71.4
		l0,0.1l0,0l0,0l0,0L168.6,71.4L168.6,71.4z M171.7,71.5L171.7,71.5L171.7,71.5L171.7,71.5L171.7,71.5L171.7,71.5L171.7,71.5z
		 M169.2,71.8L169.2,71.8L169.2,71.8L169.2,71.8L169.2,71.8z M171.4,71.8L171.4,71.8L171.4,71.8L171.4,71.8L171.4,71.8L171.4,71.8z
		 M168.6,71.9L168.6,71.9L168.6,71.9L168.6,71.9L168.6,71.9L168.6,71.9l0-0.1l0,0l0,0l0,0l0,0L168.6,71.9L168.6,71.9L168.6,71.9
		l-0.1-0.1l0,0l0,0l0,0l0,0L168.6,71.9L168.6,71.9L168.6,71.9L168.6,71.9z M169.4,71.8L169.4,71.8L169.4,71.8L169.4,71.8l-0.1,0.1
		l0,0l0,0l0,0l0,0L169.4,71.8L169.4,71.8L169.4,71.8z M172.1,71.9L172.1,71.9L172.1,71.9L172.1,71.9L172.1,71.9L172.1,71.9
		L172.1,71.9z M170,72.1l-0.1-0.1L170,72.1L170,72.1L170,72.1l0,0.1l0,0L170,72.1L170,72.1z M168.4,72.1L168.4,72.1L168.4,72.1
		L168.4,72.1L168.4,72.1L168.4,72.1z M168.4,72.2L168.4,72.2L168.4,72.2L168.4,72.2L168.4,72.2L168.4,72.2z M172.6,72.3L172.6,72.3
		l-0.1-0.1l-0.1,0l0,0L172.6,72.3L172.6,72.3L172.6,72.3L172.6,72.3l0,0.1l0,0L172.6,72.3L172.6,72.3L172.6,72.3z M172.4,72.4
		L172.4,72.4L172.4,72.4L172.4,72.4l-0.1-0.1l0,0.1L172.4,72.4L172.4,72.4L172.4,72.4z M167.3,72.6L167.3,72.6L167.3,72.6
		L167.3,72.6L167.3,72.6L167.3,72.6L167.3,72.6L167.3,72.6L167.3,72.6L167.3,72.6z M166.5,72.6L166.5,72.6L166.5,72.6L166.5,72.6
		l-0.1,0.1l0.1,0l0.1,0L166.5,72.6L166.5,72.6L166.5,72.6z M172.3,72.7L172.3,72.7L172.3,72.7l0.1,0.1l0,0l0,0L172.3,72.7
		L172.3,72.7L172.3,72.7z M167.7,72.7L167.7,72.7L167.7,72.7L167.7,72.7L167.7,72.7l-0.1,0l0,0L167.7,72.7l0,0.1l0,0l0,0l0,0
		L167.7,72.7L167.7,72.7z M172.5,72.6L172.5,72.6L172.5,72.6L172.5,72.6L172.5,72.6z M171.2,72.7L171.2,72.7L171.2,72.7L171.2,72.7
		l0,0.1l0,0l0,0l0,0l0,0L171.2,72.7L171.2,72.7z M166.8,72.9L166.8,72.9L166.8,72.9l0-0.1l0,0l0,0l0,0l0,0l0,0l0,0.1L166.8,72.9
		L166.8,72.9z M171.8,72.8L171.8,72.8L171.8,72.8L171.8,72.8L171.8,72.8z M170,72.9L170,72.9L170,72.9L170,72.9L170,72.9z M172,72.9
		L172,72.9L172,72.9L172,72.9L172,72.9z M167.6,72.9L167.6,72.9L167.6,72.9L167.6,72.9L167.6,72.9L167.6,72.9L167.6,72.9L167.6,72.9
		l0,0.1l0,0l0,0L167.6,72.9L167.6,72.9z M171.1,73L171.1,73L171.1,73l-0.1-0.2l0,0l0,0l0,0.1L171.1,73L171.1,73L171.1,73L171.1,73
		L171.1,73L171.1,73L171.1,73z M166.9,73.1L166.9,73.1L166.9,73.1L166.9,73.1L166.9,73.1z M172,73.4L172,73.4L172,73.4L172,73.4
		L172,73.4L172,73.4L172,73.4L172,73.4L172,73.4z M172.7,73.3L172.7,73.3L172.7,73.3L172.7,73.3L172.7,73.3L172.7,73.3z M171.1,73.4
		L171.1,73.4L171.1,73.4L171.1,73.4L171.1,73.4z M169.9,74.1L169.9,74.1L169.9,74.1L169.9,74.1L169.9,74.1L169.9,74.1L169.9,74.1
		L169.9,74.1L169.9,74.1L169.9,74.1z M165.2,71.5L165.2,71.5L165.2,71.5L165.2,71.5L165.2,71.5l-0.1-0.1L165.2,71.5L165.2,71.5
		L165.2,71.5L165.2,71.5L165.2,71.5z M165.5,71.8L165.5,71.8L165.5,71.8L165.5,71.8L165.5,71.8z M165.9,72.1L165.9,72.1L165.9,72.1
		L165.9,72.1L165.9,72.1z M165.8,72.2L165.8,72.2L165.8,72.2L165.8,72.2L165.8,72.2L165.8,72.2L165.8,72.2L165.8,72.2z M165.4,72.6
		L165.4,72.6L165.4,72.6L165.4,72.6l0.1,0.1L165.4,72.6L165.4,72.6L165.4,72.6L165.4,72.6L165.4,72.6z M165.2,72.9L165.2,72.9
		L165.2,72.9L165.2,72.9L165.2,72.9L165.2,72.9z M165.5,73.1L165.5,73.1l0,0.1l0,0L165.5,73.1z M165,73.4L165,73.4L165,73.4l0-0.1
		l0,0L165,73.4L165,73.4L165,73.4L165,73.4z M165.3,74.1L165.3,74.1L165.3,74.1L165.3,74.1L165.3,74.1L165.3,74.1L165.3,74.1z
		 M163.6,74.5L163.6,74.5L163.6,74.5L163.6,74.5L163.6,74.5L163.6,74.5l-0.1-0.1l0,0l0,0l0,0l0,0l0,0l0,0l0,0L163.6,74.5L163.6,74.5
		L163.6,74.5L163.6,74.5L163.6,74.5L163.6,74.5z M163.7,74.5L163.7,74.5L163.7,74.5l0.1,0.1L163.7,74.5L163.7,74.5z M166.2,74.7
		L166.2,74.7l0.1,0.1L166.2,74.7L166.2,74.7L166.2,74.7z M166,74.9L166,74.9L166,74.9L166,74.9L166,74.9L166,74.9l0.1,0L166,74.9
		L166,74.9z M162.7,75.7L162.7,75.7L162.7,75.7L162.7,75.7l0-0.1l0,0l0,0L162.7,75.7L162.7,75.7z M163.1,76L163.1,76L163.1,76
		l-0.1,0l0,0l0,0l0,0H163.1L163.1,76L163.1,76L163.1,76L163.1,76L163.1,76L163.1,76L163.1,76z M165,76.3L165,76.3L165,76.3L165,76.3
		L165,76.3L165,76.3L165,76.3L165,76.3z M163.3,76.7L163.3,76.7L163.3,76.7L163.3,76.7L163.3,76.7L163.3,76.7L163.3,76.7z M163,77.4
		L163,77.4l0,0.1l0.1,0.1l0,0L163,77.4L163,77.4z M163.2,77.6L163.2,77.6L163.2,77.6l0.1,0.1l0-0.1L163.2,77.6L163.2,77.6z
		 M162.1,77.9L162.1,77.9L162.1,77.9L162,78l0,0l0,0.1l0.1,0l0,0l0,0l0-0.1L162.1,77.9z M162.3,78.1L162.3,78.1L162.3,78.1
		L162.3,78.1l-0.1,0.1l0,0l0.1,0L162.3,78.1L162.3,78.1L162.3,78.1z M161.7,78.6L161.7,78.6L161.7,78.6L161.7,78.6L161.7,78.6
		L161.7,78.6l0.2,0l0-0.1l-0.1-0.1L161.7,78.6L161.7,78.6L161.7,78.6L161.7,78.6z M161.4,83.4L161.4,83.4L161.4,83.4L161.4,83.4
		L161.4,83.4L161.4,83.4L161.4,83.4z M159.8,87.3L159.8,87.3L159.8,87.3L159.8,87.3L159.8,87.3z M152.6,127.4L152.6,127.4
		L152.6,127.4L152.6,127.4z M151.6,127.6L151.6,127.6L151.6,127.6L151.6,127.6L151.6,127.6z M151.5,127.7L151.5,127.7L151.5,127.7
		L151.5,127.7L151.5,127.7L151.5,127.7l0,0.1L151.5,127.7L151.5,127.7L151.5,127.7L151.5,127.7z M151.1,127.8L151.1,127.8
		L151.1,127.8L151.1,127.8L151.1,127.8L151.1,127.8L151.1,127.8L151.1,127.8L151.1,127.8L151.1,127.8L151.1,127.8L151.1,127.8
		L151.1,127.8z M151.9,128.1L151.9,128.1L151.9,128.1L151.9,128.1L151.9,128.1z M151.6,129L151.6,129L151.6,129L151.6,129L151.6,129
		L151.6,129L151.6,129L151.6,129z M151.8,129.6L151.8,129.6L151.8,129.6l0-0.1L151.8,129.6L151.8,129.6L151.8,129.6L151.8,129.6
		L151.8,129.6L151.8,129.6z M153,129.5L153,129.5L153,129.5L153,129.5L153,129.5L153,129.5z M149.2,131.3L149.2,131.3L149.2,131.3
		L149.2,131.3l0.1,0l0-0.1L149.2,131.3L149.2,131.3z M148.4,131.3L148.4,131.3L148.4,131.3L148.4,131.3L148.4,131.3L148.4,131.3z
		 M149.2,132L149.2,132l0,0.1L149.2,132L149.2,132L149.2,132L149.2,132z M149.9,132.3L149.9,132.3L149.9,132.3L149.9,132.3
		L149.9,132.3l0-0.1L149.9,132.3L149.9,132.3L149.9,132.3L149.9,132.3L149.9,132.3L149.9,132.3L149.9,132.3L149.9,132.3L149.9,132.3
		z M149.2,132.5L149.2,132.5L149.2,132.5L149.2,132.5L149.2,132.5l0.1-0.1l0-0.1l-0.1,0l0,0l0,0L149.2,132.5L149.2,132.5
		L149.2,132.5L149.2,132.5z M147.4,132.8L147.4,132.8L147.4,132.8L147.4,132.8l0.1,0L147.4,132.8l0-0.1l0,0l0,0l0,0l-0.1,0
		L147.4,132.8L147.4,132.8L147.4,132.8z M145.5,134.4L145.5,134.4L145.5,134.4L145.5,134.4L145.5,134.4L145.5,134.4l0,0.1l0,0l0,0
		L145.5,134.4L145.5,134.4L145.5,134.4z M146.1,135L146.1,135l0,0.1l0,0.1l0,0l0,0l0,0L146.1,135L146.1,135L146.1,135z M165.5,71.4
		L165.5,71.4L165.5,71.4L165.5,71.4l0-0.1l0-0.1l0,0L165.5,71.4L165.5,71.4L165.5,71.4L165.5,71.4L165.5,71.4z M166.1,71.7
		L166.1,71.7L166.1,71.7L166.1,71.7l0-0.1l0,0l0,0l0,0l0,0L166.1,71.7L166.1,71.7L166.1,71.7L166.1,71.7L166.1,71.7z M168.8,71.9
		L168.8,71.9L168.8,71.9L168.8,71.9L168.8,71.9l0.1-0.1l0,0l-0.1,0L168.8,71.9L168.8,71.9L168.8,71.9z M168.9,72.1L168.9,72.1
		l-0.1-0.2l0,0l0,0l-0.1,0l-0.1,0l0,0.1l0,0l0,0l0,0l0,0l0,0l0,0l0,0l0,0l0,0l0,0l0,0l0,0l0,0l0,0l0,0l0,0l0,0l0,0l0,0l0,0l0-0.1
		l0,0l0-0.1l0,0L168.9,72.1L168.9,72.1L168.9,72.1L168.9,72.1L168.9,72.1l0,0.1l0,0L168.9,72.1L168.9,72.1L168.9,72.1z M169.8,72.1
		L169.8,72.1L169.8,72.1l-0.1-0.1l0,0l0,0l0,0v0l0,0l0,0.1l0,0L169.8,72.1L169.8,72.1l-0.1,0.1l0,0l0,0l0,0l0,0L169.8,72.1
		L169.8,72.1L169.8,72.1z M165.2,72.4L165.2,72.4L165.2,72.4L165.2,72.4l0.1-0.1l0,0l0,0l0,0l0,0l0,0L165.2,72.4L165.2,72.4
		L165.2,72.4z M171.9,72.5L171.9,72.5L171.9,72.5l-0.2,0l0,0l0,0l0,0l0,0l0,0l0,0l0,0l0.1,0L171.9,72.5L171.9,72.5L171.9,72.5
		L171.9,72.5z M166,72.8L166,72.8L166,72.8L166,72.8l0.2,0l0,0l0,0l0-0.1l0-0.1l0-0.1l0,0l0,0l0,0l0,0l0,0l0,0l0,0.1L166,72.8
		L166,72.8L166,72.8z M168,72.7L168,72.7L168,72.7L168,72.7L168,72.7L168,72.7l-0.1,0l0,0l0,0l0,0l0,0l0.1,0l0,0l0,0L168,72.7
		L168,72.7L168,72.7z M166.1,73L166.1,73L166.1,73l0,0.1l0,0l0,0l0.1,0l0-0.1L166.1,73L166.1,73z M165.3,73.3L165.3,73.3L165.3,73.3
		L165.3,73.3L165.3,73.3L165.3,73.3L165.3,73.3L165.3,73.3l0-0.1l0,0L165.3,73.3L165.3,73.3L165.3,73.3z M170.8,73.6l0-0.1l0-0.1h0
		l0,0.1L170.8,73.6L170.8,73.6L170.8,73.6L170.8,73.6L170.8,73.6l-0.1,0.1l0,0l0,0l0,0l0,0l0,0h0l0,0l0,0l0,0l0,0l0,0l0,0l0,0v-0.1
		l0-0.1L170.8,73.6z M166.8,73.9L166.8,73.9L166.8,73.9l0.1,0L166.8,73.9l0.1-0.2l0,0l0,0l0,0l0,0L166.8,73.9L166.8,73.9z
		 M166.4,73.9L166.4,73.9l-0.1-0.1l0,0.1l0,0.1l0,0.1l0,0l0.1,0L166.4,73.9L166.4,73.9L166.4,73.9z M166.8,74L166.8,74L166.8,74
		l-0.2-0.1l0,0l0,0.1L166.8,74L166.8,74L166.8,74L166.8,74l0,0.1l0,0l0,0l0,0l0,0l0,0l0-0.1l0,0l0,0l0,0l0-0.1L166.8,74L166.8,74z
		 M165.1,74.3L165.1,74.3l0-0.2l0,0l0,0l-0.1-0.1l0,0l0.1,0.1l0.1,0.1l0,0.1L165.1,74.3L165.1,74.3L165.1,74.3z M166.4,74.2
		L166.4,74.2l0.1,0.1l0-0.1L166.4,74.2L166.4,74.2z M163.9,74.5L163.9,74.5L163.9,74.5L163.9,74.5l0-0.1l-0.1,0l-0.1,0l0,0v0.1l0,0
		l0,0l0,0.1L163.9,74.5L163.9,74.5L163.9,74.5L163.9,74.5L163.9,74.5L163.9,74.5z M165.9,74.5L165.9,74.5L165.9,74.5l-0.1-0.1l0,0
		l0,0l0,0l0,0h0l0,0l0,0.1l0,0.1l0,0l0,0l0,0l0,0l0,0l0,0l0,0l0.1,0l0.1,0l0,0L165.9,74.5L165.9,74.5z M166.5,74.5L166.5,74.5
		l-0.1-0.1l-0.1,0l0,0l0,0.1L166.5,74.5L166.5,74.5L166.5,74.5z M166.6,74.5L166.6,74.5L166.6,74.5L166.6,74.5l-0.1,0.1l0,0l0,0l0,0
		l0,0l0,0l0,0l0,0l0,0l0,0l0,0L166.6,74.5L166.6,74.5L166.6,74.5L166.6,74.5z M164,75.1L164,75.1L164,75.1l0,0.1l0,0l0,0.1l0,0
		l0-0.1l0,0l0,0L164,75.1L164,75.1L164,75.1z M163.7,75.3L163.7,75.3L163.7,75.3l-0.1,0.1l0,0.1l0,0l0,0l0,0L163.7,75.3L163.7,75.3
		L163.7,75.3L163.7,75.3z M165.7,75.3L165.7,75.3l-0.1,0l0,0L165.7,75.3l-0.1,0.1l0,0l0,0l0,0l0,0l0,0l0,0L165.7,75.3L165.7,75.3
		L165.7,75.3z M162.5,75.9L162.5,75.9L162.5,75.9l0.1,0.1l0.1,0l0.1,0l0-0.1l0,0l0-0.1l0,0l0-0.1l-0.1-0.1l-0.1-0.1l0,0l0,0l-0.1,0
		l0,0l0,0l0,0l0,0l0,0l-0.1,0l0,0l0,0l0,0l0,0l0,0l0,0l0,0l0,0l0.1,0l0,0l0-0.1l0,0l0,0l0,0l0,0l0,0L162.5,75.9L162.5,75.9
		L162.5,75.9z M163.6,75.6L163.6,75.6L163.6,75.6l-0.1-0.1l-0.1,0l0,0.1l0,0.1l0.1,0.1l0.1,0l0,0L163.6,75.6L163.6,75.6z
		 M165.2,75.7L165.2,75.7L165.2,75.7l-0.1-0.1l0-0.1l0,0l0,0.1l0.1,0.1L165.2,75.7L165.2,75.7l0,0.1l0,0.1l0,0l0,0l0,0L165.2,75.7
		L165.2,75.7L165.2,75.7z M165.4,75.6L165.4,75.6L165.4,75.6l0.1,0.1L165.4,75.6L165.4,75.6L165.4,75.6L165.4,75.6z M165.4,75.8
		L165.4,75.8L165.4,75.8L165.4,75.8l-0.1,0.1l0,0L165.4,75.8L165.4,75.8L165.4,75.8L165.4,75.8z M162.6,76.1L162.6,76.1L162.6,76.1
		l-0.1,0l0,0.1l0.1,0.1l0.1,0.1l0.1,0l0-0.1L162.6,76.1L162.6,76.1z M162.9,76.8L162.9,76.8L162.9,76.8l-0.1-0.1l0,0l0,0l0,0l-0.1,0
		l0,0l-0.1,0l0,0l0,0.1l0.1,0.1l0.1,0l0,0l0,0l0,0L162.9,76.8l0,0.1l0,0.1l0,0l0-0.1L162.9,76.8L162.9,76.8z M162.9,77.4L162.9,77.4
		L162.9,77.4l0-0.1l0,0l0,0l0,0l0,0l0,0l0,0l0,0l0,0l0,0l0,0l0,0l0,0l0,0.1l0,0.1l0.1,0.1l0.1,0.1L162.9,77.4L162.9,77.4l0,0.1l0,0
		l0,0L162.9,77.4L162.9,77.4z M160.5,80.5L160.5,80.5l-0.1-0.1l0,0l0,0.1l0,0.1l0,0.1l0,0.1l0,0l0,0l0,0l0-0.1L160.5,80.5
		L160.5,80.5z M159.9,82.6l0.2,0.1l0,0l0,0l0,0l0-0.1l0-0.1l0,0l0,0l0,0.1L159.9,82.6L159.9,82.6l0-0.1l0,0l0-0.1l-0.1-0.1l-0.1,0
		l0,0l0,0.1l0,0L159.9,82.6L159.9,82.6L159.9,82.6z M158.3,92.8L158.3,92.8l0,0.1l0,0L158.3,92.8L158.3,92.8l-0.1,0.1l0,0.1l0,0
		l0.1,0l0,0l0,0l0,0L158.3,92.8L158.3,92.8L158.3,92.8L158.3,92.8L158.3,92.8z M149.6,97.3L149.6,97.3l0-0.1l0-0.1l0,0l0,0l0,0.1
		L149.6,97.3L149.6,97.3L149.6,97.3z M150.1,97.2l-0.1,0l0,0l0,0l0,0L150.1,97.2L150.1,97.2L150.1,97.2z M149.9,97.4L149.9,97.4
		L149.9,97.4L149.9,97.4L149.9,97.4z M149.8,97.7L149.8,97.7L149.8,97.7l0,0.1l0,0.1l0,0v-0.1L149.8,97.7L149.8,97.7L149.8,97.7z
		 M149.3,98L149.3,98L149.3,98l0-0.1l0-0.1l0,0l0,0.1L149.3,98L149.3,98L149.3,98z M148.8,98.3L148.8,98.3L148.8,98.3L148.8,98.3
		l0.1,0l0.1-0.1l0,0l0-0.1l0-0.1l0,0l0,0l-0.1,0l0,0l0-0.1l-0.1,0.1l0,0.1l0,0.1L148.8,98.3L148.8,98.3L148.8,98.3L148.8,98.3z
		 M149.5,98.6L149.5,98.6l0-0.2l0-0.1l0,0l-0.1,0.1l0,0l0,0.2l0,0L149.5,98.6L149.5,98.6z M146.2,99.4L146.2,99.4L146.2,99.4l0,0.1
		l0,0L146.2,99.4L146.2,99.4L146.2,99.4L146.2,99.4z M148,100.1L148,100.1l0-0.1L148,100.1L148,100.1z M146.8,100.7L146.8,100.7
		l0-0.1l-0.1,0l-0.2,0l0,0l0,0.1l0.1,0.2l0,0L146.8,100.7L146.8,100.7L146.8,100.7z M147.6,100.6l-0.1,0.1l0,0l0,0.1l0,0
		L147.6,100.6L147.6,100.6L147.6,100.6L147.6,100.6L147.6,100.6z M147,101.6l-0.2,0l0,0l0,0l0,0l0.3,0.2l0-0.1l0-0.1L147,101.6
		L147,101.6L147,101.6L147,101.6z M146.3,103L146.3,103L146.3,103L146.3,103z M145.5,105.6L145.5,105.6l-0.1,0.2l0,0.1l0,0.1l0.1,0
		l0,0l0,0l0,0l0.1-0.1l0,0l0,0l0,0L145.5,105.6L145.5,105.6z M144.8,108L144.8,108l-0.1,0l-0.1,0l0,0l0,0.1l0,0L144.8,108L144.8,108
		L144.8,108z M144.5,108L144.5,108L144.5,108L144.5,108L144.5,108L144.5,108L144.5,108L144.5,108z M144.8,110.1L144.8,110.1
		L144.8,110.1L144.8,110.1L144.8,110.1L144.8,110.1l0-0.1l-0.1,0L144.8,110.1L144.8,110.1L144.8,110.1z M143.8,111.4L143.8,111.4
		l-0.1-0.1l0,0l0,0l0,0l0,0l0,0.1l0,0h0l0.1,0L143.8,111.4L143.8,111.4L143.8,111.4L143.8,111.4z M144.3,111.6l-0.2,0l-0.1,0l0,0.1
		l0,0.1l0,0.1l0,0l0,0l0,0l0,0l0,0l0,0l0,0l0,0l0.2,0l0,0l0-0.1L144.3,111.6L144.3,111.6z M143.8,115.1L143.8,115.1L143.8,115.1
		L143.8,115.1l0.1-0.1l0,0l0,0l0,0l0,0l0,0l0,0L143.8,115.1L143.8,115.1L143.8,115.1z M143.6,116.1L143.6,116.1L143.6,116.1l0-0.1
		l0,0l0,0l0,0l0,0l0,0.1l0,0.1l0,0l0,0L143.6,116.1L143.6,116.1L143.6,116.1L143.6,116.1L143.6,116.1L143.6,116.1z M143.8,118.2
		L143.8,118.2L143.8,118.2L143.8,118.2l0.1,0.1h0l0.1,0l0,0l0,0l-0.1,0l0,0l0,0L143.8,118.2L143.8,118.2L143.8,118.2L143.8,118.2z
		 M148.4,120.6L148.4,120.6L148.4,120.6l0-0.1l0,0l0,0l0,0l-0.1,0l-0.1,0l0,0l0,0L148.4,120.6L148.4,120.6z M149.4,122.6
		L149.4,122.6l-0.1-0.1l0,0l0,0l0,0.1l0,0l0.1,0L149.4,122.6L149.4,122.6L149.4,122.6L149.4,122.6z M149,123.2L149,123.2l-0.2-0.1
		l-0.2,0l0.1,0.2l0.2,0.1l0.1,0l0,0L149,123.2L149,123.2L149,123.2L149,123.2z M149.2,123.1L149.2,123.1L149.2,123.1L149.2,123.1
		L149.2,123.1L149.2,123.1L149.2,123.1l0,0.1l0,0l0,0l0,0l0,0l0,0l0,0l0.1,0l0-0.1l0,0L149.2,123.1L149.2,123.1z M151.5,126
		L151.5,126L151.5,126l-0.1,0.1l-0.1,0.1l0,0l0,0l0,0l0,0l0,0l0.1-0.1l0,0L151.5,126L151.5,126L151.5,126z M151.2,126.7L151.2,126.7
		L151.2,126.7L151.2,126.7L151.2,126.7l0.1,0l0,0l0,0L151.2,126.7L151.2,126.7z M151.6,126.8L151.6,126.8L151.6,126.8L151.6,126.8
		L151.6,126.8l0.1,0.1L151.6,126.8l0.1,0l0,0l0,0l0,0L151.6,126.8L151.6,126.8L151.6,126.8L151.6,126.8z M151.5,127l-0.1,0l0,0l0,0
		v0l0,0.1l0.1,0L151.5,127L151.5,127L151.5,127L151.5,127z M150.4,127.6L150.4,127.6l-0.2,0l0,0.1l0,0l0,0l0.1,0l0.1,0h0l0,0
		L150.4,127.6L150.4,127.6L150.4,127.6L150.4,127.6L150.4,127.6L150.4,127.6L150.4,127.6L150.4,127.6z M151.7,127.7L151.7,127.7
		L151.7,127.7L151.7,127.7L151.7,127.7L151.7,127.7L151.7,127.7L151.7,127.7L151.7,127.7L151.7,127.7L151.7,127.7L151.7,127.7z
		 M151.5,128.4L151.5,128.4L151.5,128.4l0.1,0l0,0l0,0l0,0l0,0l0,0l0,0L151.5,128.4L151.5,128.4z M151,128.4L151,128.4l0.1,0.1l0,0
		l0.1-0.1l0,0l0,0l0,0l0,0L151,128.4L151,128.4z M149.8,129.3L149.8,129.3L149.8,129.3l-0.1,0l0,0L149.8,129.3l0.4,0l0,0l0,0l0,0
		l-0.1,0l0,0l0,0l0,0l0,0l0,0L149.8,129.3L149.8,129.3z M149.8,129.4L149.8,129.4L149.8,129.4l-0.1,0l0,0l0,0l0,0l-0.1,0l-0.1,0.1
		l0,0.1l0,0l0.1,0l0,0l0,0l0,0l0.1,0l0,0L149.8,129.4l-0.1,0.1l0,0L149.8,129.4L149.8,129.4z M148,129.7L148,129.7l0.2-0.1l0-0.1
		l-0.1-0.1l-0.1,0l0,0l0,0l0,0L148,129.7L148,129.7L148,129.7L148,129.7z M151,129.7L151,129.7L151,129.7L151,129.7L151,129.7z
		 M148.4,129.8L148.4,129.8L148.4,129.8L148.4,129.8L148.4,129.8l-0.1-0.1l0,0l0,0.2L148.4,129.8l0.1,0.1l0,0L148.4,129.8
		L148.4,129.8L148.4,129.8z M150.8,129.8L150.8,129.8L150.8,129.8L150.8,129.8L150.8,129.8l0-0.1l0,0l0,0l0,0l0,0l0,0.1L150.8,129.8
		L150.8,129.8L150.8,129.8z M150.5,130.3L150.5,130.3L150.5,130.3L150.5,130.3L150.5,130.3L150.5,130.3L150.5,130.3L150.5,130.3
		l-0.1-0.1l0,0.1l0,0.1l0,0.1l0,0l0,0l0,0l0.1,0L150.5,130.3L150.5,130.3L150.5,130.3L150.5,130.3L150.5,130.3z M150.4,130.7
		L150.4,130.7L150.4,130.7L150.4,130.7L150.4,130.7L150.4,130.7L150.4,130.7L150.4,130.7z M150.6,130.9L150.6,130.9L150.6,130.9
		L150.6,130.9l0-0.1l0,0l0,0l0,0l-0.1,0l0,0L150.6,130.9L150.6,130.9z M149.4,131.7L149.4,131.7L149.4,131.7l0.1-0.1l0,0l0,0l0,0
		l0,0L149.4,131.7z M149,132.6L149,132.6L149,132.6L149,132.6L149,132.6L149,132.6L149,132.6l-0.1,0l0,0l0,0.2l0.1,0l0,0l0-0.1
		l0-0.1L149,132.6L149,132.6z M146.8,133.4l-0.1,0.2l0,0.1l0,0l0,0l0,0l0,0l0,0l0-0.1l0,0l0,0l0,0L146.8,133.4L146.8,133.4
		L146.8,133.4L146.8,133.4L146.8,133.4L146.8,133.4L146.8,133.4L146.8,133.4z M147.6,133.6L147.6,133.6L147.6,133.6L147.6,133.6
		L147.6,133.6l-0.2,0l0,0l0,0v0l0,0.1l0,0l0,0l0,0.1l0,0l0,0l0,0l0,0L147.6,133.6L147.6,133.6z M117.6,134.1L117.6,134.1
		L117.6,134.1L117.6,134.1L117.6,134.1l0-0.1l0,0l-0.1,0l0,0l0,0l0,0l0-0.1l0,0l0,0l0,0l0,0l0,0l0,0l0,0l0,0l0,0l0,0.1l0,0l0,0l0,0
		l0,0l0,0l0,0.1l0,0l0,0l0,0l0,0l0,0l0,0l0,0l0,0l0,0l0.1,0l0,0l0,0l0,0l0,0l0,0l0,0L117.6,134.1L117.6,134.1L117.6,134.1
		L117.6,134.1z M146.2,134.6l0-0.1l0-0.1l0,0l-0.1,0l0,0l0-0.1l0.1-0.1l0-0.1l0,0l0,0l0,0l0,0.1l0,0l0,0l0,0.1l0,0.1l0,0.1l0,0l0,0
		l0,0l0,0l0,0.1l0,0.1l0,0.1l-0.1,0l0,0l0,0l0.2,0l0,0l0,0l0-0.1l0,0l0,0l0,0L146.2,134.6L146.2,134.6L146.2,134.6z M147.2,134.3
		L147.2,134.3L147.2,134.3L147.2,134.3l0.1-0.1l0,0l0-0.1l0-0.1l0,0l0,0l-0.1,0.1L147.2,134.3L147.2,134.3L147.2,134.3L147.2,134.3
		L147.2,134.3L147.2,134.3z M145.3,134.6l-0.3-0.2l0,0l0,0l0,0.1l0.2,0.1L145.3,134.6l0.1,0.2l0,0l0-0.1L145.3,134.6z M144.5,135.1
		L144.5,135.1L144.5,135.1L144.5,135.1l0,0.1L144.5,135.1L144.5,135.1l-0.1,0l0,0l0,0l0,0.1l0.1,0l0,0l0,0l0,0l0,0l0,0l0,0l0,0.1
		l0,0l0,0l0,0l0.1-0.2l0,0l0.1,0L144.5,135.1L144.5,135.1z M144.5,135.4L144.5,135.4L144.5,135.4l0,0.2l0,0l0.1-0.1L144.5,135.4
		L144.5,135.4z M142.3,137.1L142.3,137.1L142.3,137.1l-0.1-0.1l-0.1,0h0l0,0l0,0l0.1,0.1L142.3,137.1L142.3,137.1L142.3,137.1
		L142.3,137.1L142.3,137.1z M142.4,137.3L142.4,137.3L142.4,137.3L142.4,137.3L142.4,137.3l0.1-0.1l0,0l-0.1,0l0,0L142.4,137.3
		L142.4,137.3L142.4,137.3z M141.8,140.3L141.8,140.3L141.8,140.3L141.8,140.3l-0.1,0l0,0.1l0.1,0.1l0.1,0l0.1,0L141.8,140.3
		L141.8,140.3L141.8,140.3l0,0.1L141.8,140.3L141.8,140.3L141.8,140.3L141.8,140.3L141.8,140.3L141.8,140.3z M120,142.2L120,142.2
		L120,142.2L120,142.2L120,142.2l0.1-0.1l0,0l0,0l0,0l-0.1,0l-0.1,0l-0.1,0.1l0,0l0,0l0.1,0.1l0.1,0l0,0l0,0l-0.1,0l0,0l0,0l0,0l0,0
		l0,0v0l0,0l0,0l0.1,0l0,0l0,0l0,0l0,0l0,0l0,0l0,0L120,142.2L120,142.2L120,142.2L120,142.2z M141.3,142.4L141.3,142.4L141.3,142.4
		L141.3,142.4L141.3,142.4l0.1,0.1l0,0.1l0,0l0,0l0,0l0,0l0.1,0l0,0l0,0l0,0l0,0l0,0l0,0l0,0l0,0v0l0,0v0l0,0l-0.1,0l-0.1-0.1
		l-0.1,0l0,0L141.3,142.4L141.3,142.4L141.3,142.4z M141.1,142.6L141.1,142.6L141.1,142.6l0.1,0.1l0,0l0.1,0.1l0,0l0,0l0,0l0,0l0,0
		l0,0l0,0l0,0L141.1,142.6L141.1,142.6z M120.2,143.6L120.2,143.6L120.2,143.6L120.2,143.6L120.2,143.6L120.2,143.6l0-0.1l0,0l0,0
		l0-0.1l-0.1-0.1l0,0.1l0,0l0,0l0,0l0,0l0,0v0l-0.1,0l0,0l0,0l0,0l0,0l0,0l0,0l0,0.1l0,0L120.2,143.6L120.2,143.6L120.2,143.6
		L120.2,143.6L120.2,143.6L120.2,143.6z M141.3,144.1L141.3,144.1l0,0.1l0,0l-0.1,0l0,0l0,0l0,0l0,0l0,0.1l0,0l0,0l0,0l0,0l0,0l0,0
		l0,0l0,0l0,0l0,0l0,0l0.1-0.2l0-0.1l0-0.1L141.3,144.1L141.3,144.1z M140.7,147.6L140.7,147.6L140.7,147.6L140.7,147.6L140.7,147.6
		l-0.1,0.1l0,0l0,0l0,0l0.1-0.1L140.7,147.6L140.7,147.6L140.7,147.6L140.7,147.6z M137.4,155.5L137.4,155.5L137.4,155.5
		L137.4,155.5l-0.1,0l0,0l0,0l0,0l0,0l0.1,0.1l0,0l0,0l0,0l0,0L137.4,155.5L137.4,155.5L137.4,155.5L137.4,155.5z M136.8,155.5
		L136.8,155.5L136.8,155.5L136.8,155.5L136.8,155.5L136.8,155.5l-0.2,0.1l0,0l0,0l0,0l0.1,0l0,0l0,0L136.8,155.5L136.8,155.5
		L136.8,155.5L136.8,155.5z M136.4,155.5L136.4,155.5L136.4,155.5l-0.1,0.1l0,0l0,0l0,0l0.1,0l0,0l0-0.1l0-0.1L136.4,155.5z
		 M136.2,155.6L136.2,155.6l-0.1,0l0,0.1l0,0l0,0l0,0l0,0l0.1,0l0,0l0,0l0,0l0-0.1L136.2,155.6L136.2,155.6L136.2,155.6L136.2,155.6
		z M124.5,157.1L124.5,157.1l-0.1,0l0,0l0.1,0.2l0,0l0-0.1L124.5,157.1L124.5,157.1z M151.8,138.3l0.2,0.1l0.2-0.1l0.2-0.1l-0.1-0.1
		l-0.2-0.1l-0.1-0.1h-0.1L151.8,138.3z M148.5,131l0.2,0.1l0.2,0.2l0.1,0l0.1-0.2l-0.2,0l-0.1-0.1l0-0.2l0.1,0.1l0.1,0l0.2,0
		l-0.4-0.2l-0.3-0.1l-0.5,0l0.2,0.1l0.1,0.1l0,0L148.5,131L148.5,131z M159,91.3l-0.1-0.2l-0.2,0l-0.1,0.3l0.1,0l0,0l0,0l0,0.1
		l0,0.1L159,91.3z M148.4,121.6l0.1,0.2l0.2,0.1l0.2,0.3l0.2,0.1l0,0l0-0.1l0,0l0,0l0,0l0,0L149,122l0-0.1l0-0.1l-0.1,0.1l-0.1,0
		l0-0.1l0-0.1l-0.2-0.4l0-0.1l0.1,0l0.1,0.1l0.1,0l0-0.1l-0.1-0.1l-0.1-0.1l0-0.1l0,0l0,0v0l0,0l0-0.1l0,0l-0.1,0l0,0l0,0.1l0.1,0.2
		l0,0.1l0,0.4L148.4,121.6z M166.9,72.1l0-0.2l-0.2-0.2l0,0l0,0.2l0,0.1l0,0.1l0,0.1l0,0.1l0,0.1l0.1,0.1l0.2,0l0-0.1L166.9,72.1z
		 M170.9,72.3L170.9,72.3l0-0.1l0,0l0,0l0-0.1l0-0.1l0-0.1l0,0l0,0l0,0.1l0,0l0,0l0,0l0,0.1l0,0l0,0l-0.1,0l0-0.1l0,0l0,0.1l0,0l0,0
		l0-0.1l0,0.1l0,0.2l0.1,0.1l0.2,0.1L170.9,72.3z M167.5,72.6L167.5,72.6l0-0.1l0,0l0,0l0-0.1l0-0.1l-0.1-0.1l-0.1-0.1l0,0l0.1,0
		l0-0.1l-0.1-0.1l-0.1,0l-0.1,0.1l0,0.2l0.1,0.2l0.1,0.2l0.1,0.1l0.1,0L167.5,72.6z M165.8,73.4L165.8,73.4l0.1,0.1l0.1-0.1l0-0.1
		l-0.1,0L165.8,73.4L165.8,73.4z M165.7,73.7L165.7,73.7l0,0.1l0.1,0.1l0,0l0,0l0,0l0,0l0,0l0,0l0-0.1l0-0.1l0,0l0.1,0l0-0.1l-0.1,0
		l-0.2,0.1l-0.1,0L165.7,73.7L165.7,73.7L165.7,73.7z M164.7,74.6L164.7,74.6l-0.1-0.1l0,0l0,0l0-0.1l0,0l0.1,0l0.1,0l0.1,0.1l0,0.1
		l0,0l0.1,0l0-0.1l-0.1-0.1l0-0.1l0,0l0,0l0,0l-0.3-0.2l-0.1,0l-0.1,0l0,0l0,0.1l0.1,0.2L164.7,74.6L164.7,74.6L164.7,74.6
		L164.7,74.6z M166.1,74.3L166.1,74.3l0-0.1l-0.1,0l0,0l0,0l-0.1-0.1l0,0.1l0.1,0.1l0.1,0L166.1,74.3L166.1,74.3z M164.4,75.1
		L164.4,75.1l-0.1-0.1l0-0.1l0,0l0-0.1l-0.2-0.1h-0.1l0,0.1v0.1l0,0l0,0.1l0,0.1l0,0l0.2,0l0,0l0,0l0.1,0l0-0.1L164.4,75.1
		L164.4,75.1z M165.1,75.1L165.1,75.1l0.1-0.2l0-0.1l-0.1,0l-0.1,0l-0.1,0.1l-0.1,0.1l0,0l0-0.1l0,0l0,0l0,0.1l0,0.1l0,0L165.1,75.1
		L165.1,75.1z M159,91.4L159,91.4L159,91.4l-0.1,0.1l0,0.1l-0.1,0.5l0,0.1l0.1-0.1l0,0l0,0l0.1-0.1L159,92l0-0.1l0-0.1l0-0.1l0-0.1
		l0-0.1L159,91.4l0.1,0L159,91.4L159,91.4l0.1-0.1l0,0L159,91.4L159,91.4z M158.7,92.2l-0.2,0.2l0,0.1l0.1,0l0.1-0.1l0-0.1V92.2
		L158.7,92.2L158.7,92.2z M147.3,101.2L147.3,101.2L147.3,101.2L147.3,101.2l0.1-0.2l0-0.1l0-0.1l0,0l-0.1,0l-0.1,0.1l0,0l0-0.1
		l-0.1,0l-0.1,0l-0.1,0.1l0,0.1l0,0.1l0,0.2l0.1,0.2l0.2,0l0.2-0.1l0-0.1L147.3,101.2L147.3,101.2L147.3,101.2L147.3,101.2z
		 M149.8,123.2L149.8,123.2L149.8,123.2l0,0.1l0,0.1l0,0.1l0,0l0.1,0l0.1,0l0.1,0l0.1-0.1l0-0.1l0-0.1l0,0l0,0l0,0l0,0l0,0l0-0.1
		l0,0l0,0l0,0l0-0.1l0,0l-0.1,0l-0.1,0l0,0L149.8,123.2L149.8,123.2L149.8,123.2z M150.9,126.3l0-0.1l0-0.1l0-0.1l0,0l0,0l0,0l0,0.1
		l-0.2,0.3l0,0.1l0,0.1l0.1,0l0,0l0,0l0,0l0,0l0.1,0l0.1,0l0.1,0l0,0l0,0l0,0l0,0l0,0l0,0l0,0l0,0L150.9,126.3z M150.1,128.2
		l-0.1,0.1l-0.1,0.1l-0.1,0l0,0l0.1,0l0.1,0l0.1-0.1l0,0l0,0l0,0l0,0L150.1,128.2l0.2,0l0,0l0.2-0.3l0.1-0.1l0-0.1l-0.3,0.2
		L150.1,128.2L150.1,128.2z M150.8,128L150.8,128L150.8,128L150.8,128l-0.1-0.2l-0.1,0l-0.1,0l-0.3,0.4l0,0.1l0,0.1l0.1,0l0,0l0,0
		l0-0.1l0.1-0.3l0,0l0.1,0L150.8,128L150.8,128L150.8,128L150.8,128z M149.3,129.1L149.3,129.1L149.3,129.1l0.1-0.1l0,0l0.1-0.1
		l0.2-0.1l0,0l-0.2,0.1l0,0l0,0l0,0l0,0l-0.1,0l-0.1,0l-0.1,0l-0.1,0.1l-0.1,0.1l-0.1,0.1l0,0.1l0,0.1l0,0l0,0l0,0l0,0l0,0l0,0l0,0
		l0,0l0,0l0,0l0,0l0,0l0,0l0-0.1l0,0l-0.1,0l0,0l0,0.1l0,0l0,0l0,0.1l0,0.1l0,0.1l0,0.1l0,0.1l0,0l0,0l0,0l0,0l0,0l0-0.3l0,0.1l0,0
		l0,0l0-0.1l0-0.2L149.3,129.1L149.3,129.1L149.3,129.1L149.3,129.1L149.3,129.1z M150.6,129.6L150.6,129.6L150.6,129.6l-0.1-0.1
		l-0.1,0l-0.1,0l-0.1,0.1l0,0.1l0.1,0l0.1-0.1L150.6,129.6z M150.3,129.9L150.3,129.9L150.3,129.9L150.3,129.9L150.3,129.9
		L150.3,129.9L150.3,129.9L150.3,129.9z M150.7,130L150.7,130l0-0.1l0,0l-0.1-0.1l-0.1,0l0,0l0,0.1l0,0l0,0l0.1,0.1L150.7,130
		L150.7,130z M147.7,130.2L147.7,130.2L147.7,130.2l-0.5-0.2l-0.1,0l0,0.1l0,0l0,0.1l0,0.1l0.1,0.1l0.1,0.1l0.1,0l0.1,0l0-0.1
		L147.7,130.2l-0.1,0L147.7,130.2L147.7,130.2z M149.5,130.2L149.5,130.2l0.1,0.1l0,0.1l0,0.1l0,0l0,0l0,0l0,0.1l0,0l0,0l0.2-0.1
		l0.1-0.1l0-0.1l0-0.1l0,0l0,0l0,0l-0.1-0.1l0,0l0,0l0,0l0,0l-0.2,0l0,0L149.5,130.2L149.5,130.2z M150,130.9L150,130.9L150,130.9
		l0.1-0.1l0,0l0,0l0,0l-0.1,0l-0.1,0l-0.1,0.1l-0.1,0.1l0,0.1l0,0l0,0l0,0l0,0l0,0l0,0l0,0l0,0l0,0l0,0L150,130.9z M149.8,131.4
		l-0.1,0l0,0l-0.1,0l-0.1,0.1l0,0.1l0,0.1l0,0L149.8,131.4L149.8,131.4L149.8,131.4z M148.2,132.8L148.2,132.8L148.2,132.8l0,0.2
		l0,0.1l0,0l0,0l0,0h0l0,0l0,0l0,0l0,0l0,0l0,0l0-0.1l0,0l0-0.1l0.1-0.1l0.1-0.2l0,0l0,0l0,0l0,0l0-0.1l0-0.1l-0.1,0l-0.1,0
		l-0.1,0.1l-0.1,0.1l-0.2,0.1l0,0l0,0l0,0.1l0,0l0,0l0,0l0,0L148.2,132.8L148.2,132.8L148.2,132.8L148.2,132.8z M145.2,133.2l0,0.1
		l0,0.1l0,0.1l0,0l0,0.1l0,0.1l0,0.1l0,0l0,0l0.1,0.2l0,0l0-0.1l0-0.1l0,0l0,0l0-0.1l0-0.1l0-0.1l0-0.1l0-0.1l0-0.1l0-0.1l0-0.1
		l0-0.1l0-0.1l0-0.1l0-0.1l0,0l0,0l0,0l0-0.1l0,0l0,0.1l0,0.2l0,0.1l0,0L145.2,133.2L145.2,133.2z M147.1,133.3L147.1,133.3l0.1,0.1
		l0.1,0l0-0.1l0-0.1l0-0.1l0-0.1l0,0l0,0.1l0,0l0,0l0,0l0,0l0,0l0-0.1l0,0l0,0l0,0l0,0l0.2-0.1l0,0l-0.2,0l-0.1,0l-0.1,0l-0.1,0l0,0
		l0,0.1l0,0.1l0,0l0,0l0,0l0,0l0,0.1l0,0l0,0l0,0l0.1,0L147.1,133.3L147.1,133.3L147.1,133.3z M148,133.4L148,133.4L148,133.4
		l-0.1,0l-0.1,0l-0.1,0.1l-0.1,0.1l-0.1,0.1l0,0.1l0,0l0,0l0,0l0.1-0.1l0.1,0l0.1,0l0.1,0l0,0l-0.1,0l0-0.1l0,0l0,0l0,0l0,0l0.1-0.1
		l0.1-0.1l0-0.1l0,0L148,133.4L148,133.4z M141.7,138.3L141.7,138.3l0,0.1l0.1,0.1l0.1,0.1l0.1,0l0.1,0l0.1,0l0,0l0,0l0,0l0,0l0,0
		l0,0l-0.1,0l-0.1,0l-0.1-0.1l-0.1-0.1L141.7,138.3l0.1-0.1h0l0,0l-0.1-0.1l0,0l0,0l0-0.1l0,0l0,0l0,0l-0.1,0l0,0l0,0l-0.1,0l0,0
		l-0.1,0l0,0.1l0,0.1L141.7,138.3L141.7,138.3L141.7,138.3z M141.9,138.7L141.9,138.7l0,0.2l0,0.1l0,0l0.1,0l0-0.1l0-0.1l0-0.1
		L141.9,138.7L141.9,138.7z M137.1,155.6L137.1,155.6L137.1,155.6l-0.1,0l0,0l-0.1,0l-0.1,0.1l0,0.1l0.1,0.1l0,0l0,0l0,0l0,0l0-0.1
		l0-0.1L137.1,155.6L137.1,155.6L137.1,155.6L137.1,155.6L137.1,155.6L137.1,155.6z M119.7,141.6L119.7,141.6L119.7,141.6l0.1,0.1
		l0,0l0-0.1l0,0l0.1,0l0,0l0-0.1l0-0.2l0-0.1l0.1-0.1l0.1,0l0,0.1l0,0.1l0,0l0.1,0l0,0l0-0.2l0,0l0,0l0-0.1l-0.1,0l-0.1,0l-0.1,0.1
		l-0.1,0h-0.4l-0.2,0l-0.1,0l0,0.1l0,0.1l0.1,0h0.1l0.1,0l-0.1,0l-0.1,0l0,0l0,0.1l0,0.1l0,0.1l0,0.1l0,0.1l0,0L119.7,141.6
		L119.7,141.6z M119.5,140.5L119.5,140.5L119.5,140.5l0.1-0.2l0.1-0.1l0.1,0l0.1,0l0.1,0.1l0.1-0.1l0.2,0.1l0.2-0.2l0.1,0l0.1,0
		l0-0.1l0-0.4l0-0.2l0-0.2l-0.1-0.1l-0.1-0.1l-0.1-0.1l0-0.2l-0.1,0l-0.1,0l-0.1,0l0,0l0,0.1l0,0l0,0.1l0,0.1l0,0.1l-0.1,0l-0.1,0
		l-0.1,0l-0.1,0l-0.1,0.1l-0.1,0.1l-0.4,0.4l-0.1,0.1l0,0.1l0,0.1l0.1,0.1l0,0.1l0,0.2h0v-0.3L119.5,140.5L119.5,140.5L119.5,140.5z
		 M152.2,141.3l-0.1,0l-0.1,0l-0.1,0l0-0.1l-0.1,0.1l-0.1,0l-0.1,0l0,0l-0.1,0.1l-0.1,0l-0.1,0l0,0.1l0,0.1l0,0.1l0,0.1l-0.1,0.1
		l0,0.1l0,0.1l0.1,0.3l0.1,0.1l0.1,0.1l0.1,0l0.1,0l0,0l0.1-0.2l0-0.1l0-0.1l0,0l-0.1,0l0.1-0.1l0.2-0.1l0.1-0.1l0.1-0.1l0.2,0.1
		l0.1-0.1l0,0l0,0l0,0l0,0L152.2,141.3L152.2,141.3z M151.1,142.2L151.1,142.2l-0.1-0.1l0-0.1l0-0.1l0-0.1l0,0l-0.1,0l-0.1,0l-0.1,0
		l-0.1,0l0,0.1l-0.1,0l-0.1-0.1l0.1-0.1v0l-0.3,0l-0.1,0l0,0.1l0,0.1l0,0l0,0.1l-0.1,0.1l-0.1,0.1l0,0.2l-0.1-0.1l0-0.1l0-0.1l0,0
		l0,0l0,0l0,0l0,0l0,0l0,0l0,0l-0.1-0.1l-0.1-0.1l-0.1,0l-0.1,0l-0.1,0.1l-0.1,0.1l-0.1,0.1l-0.1,0.1l0,0.1l0,0.1l0,0.1l-0.1,0
		l-0.1,0l-0.1,0l-0.1,0l-0.2,0.1l-0.2,0.2l-0.6,1l-0.7,0.7l-0.1,0.2l-0.1,0.3l0,0.2l0,0.2l0,0.2l0,0.1l0,0l0,0.1l0,0l0,0.1l0,0l0,0
		l0,0l0,0l-0.1,0.1l0,0.1l0,0.2l-0.1,0.1l-0.2,0.1l-0.1,0.1l0,0.1l0.3,0.2l0.1,0.7l0.2,0.1l0,0l0,0.1l0,0l0.1,0l0,0.1l0,0.1
		l-0.1,0.1v0.1l0.1,0l0.1-0.1l0.1-0.1l0.1-0.1l0,0.1l0,0.2l0,0.1l-0.1,0.1l-0.2,0.1l-0.1,0.1l0,0.1l0,0.1l0,0.1l-0.3,0.5l0.1,0.1
		l0.1,0l0.4-0.2l0.1,0l0-0.2l0-0.1l0.1-0.1l-0.1-0.1v-0.1h0.2l-0.1-0.1l-0.1-0.1l0-0.1l0-0.4l0.1-0.1l0.3-0.2l0.1-0.1h-0.3l0.1-0.1
		l0.1-0.1l0.5-0.3l0.1,0v0h-0.1v-0.1l0.1-0.1l0.4-0.1l0,0l0.1-0.1l0-0.2l0,0l-0.1,0l0,0l0-0.1l0.1-0.1l0.2-0.1l0.1-0.1l0.1-0.1
		l0.1-0.1l0.1,0l0,0l0.1-0.1l0,0l0,0l0,0l0,0h0.1l0.1,0l0-0.1l0-0.1l0-0.1l0-0.1l0,0l-0.1-0.1l-0.1,0l0,0l0,0l0,0l-0.2,0l-0.2-0.1
		l0-0.1l0,0l-0.1,0l-0.1,0l0-0.1l0-0.1l-0.1-0.1l0-0.1l0.1-0.1l0-0.1l0-0.1l0-0.1l0-0.1l0-0.1l-0.2-0.1l0,0l0-0.1l0-0.1l0,0l0-0.1
		l0.1-0.2l0.1-0.3l0-0.1l0-0.1l0-0.1l0.1,0l0,0l0.1,0.1l0.1,0l0.2,0l0.2,0l0-0.1v-0.1l0-0.1l0-0.1l0-0.1l0,0l0.1,0l0,0.1l0-0.3
		l0.1-0.1l0.3,0l0-0.1L151.1,142.2z M143,146.4L143,146.4L143,146.4L143,146.4l-0.1-0.1l0,0l0,0h0l0,0.1l0,0l0,0l0-0.1l0,0l-0.1,0
		l-0.1,0.1l-0.1,0.2l-0.1,0.1l0,0.1l0,0.4l0,0.1l-0.1,0.1l-0.1,0l0,0l0,0.1l-0.1,0.6l-0.2,0.5l-0.2,0.4l-0.2,0.5l-0.1,0.3l-0.1,0.1
		l-0.1,0l-0.1,0l-0.1,0l-0.1,0.1l-0.7,1.8l0,0.2l0,0.1l-0.1,0.2l-0.1,0.2l0,0.1l0,0.7l0,0.1l0,0.1l0,0.1l0,0.1l0,0.3l0,0.2l0,0.2
		l0.1,0.2l0,0.1l0,0.2l0,0.1l0.1,0.1l0.1,0l0.1-0.1l0.1-0.1l0.2-0.5l0-0.1l0-0.1l0.1-0.1l0-0.1l0-0.2l0-0.1l0-0.1l0-0.2l0.1-0.2
		l0.1-0.1l0-0.1l0-0.1l0-0.1l0,0l0-0.1l0,0l0,0l0,0l0,0l0-0.2l0-0.1l0.1,0l0,0l0-0.1l0-0.1l0-0.1l0-0.2l0-0.1l0.2-0.8l0-0.2l0-0.1
		l0-0.1l0-0.1l0-0.1l0,0l0.2-0.1l0,0l0-0.1l0.1-0.4l0-0.1l0.1-0.1l0-0.1l0-0.2l0-0.1l0.1-0.2l0.1-0.1l0.1-0.1l0,0l0,0l0,0l0-0.1
		l0.1-0.1l0.1,0l0.1-0.1l0-0.2l0-0.1l0.2-0.3l0-0.1l0-0.1l0-0.1l0,0l0.1,0l0,0l0,0l0-0.1l0.1-0.2l0-0.1l-0.1-0.2l0.1-0.3l0.1-0.1
		L143,146.4L143,146.4L143,146.4z M171.8,71.4l0.2,0l0.1-0.1l0,0l0,0l0,0l0-0.1l0.3,0.1l0.1,0l0.1-0.2l0-0.2l-0.2-0.3l-0.1-0.4
		l-0.1-0.2l-0.1-0.2l0-0.2l0-0.2L172,69l0-0.1l0-0.1l-0.1-0.1l0-0.1l0-0.1l-0.2-0.7l-0.1-0.1l-0.4-0.2l-0.1-0.1l-0.1-0.2l-0.1-0.5
		l0-0.3l-0.1-0.2l0-0.1l0-0.1l0-0.1l0-0.1l0-0.1l0-0.2l0-0.1l0-0.1l-0.1-0.2l0-0.1l0-0.2l0.1-0.2l0.1-0.1l0.1,0v-0.2l0.1-0.1
		l0.1-0.1l0.1-0.1l0-0.1l0.2-0.2l0.1-0.1l0-0.2l0-0.2l0-0.2l0-0.2l0-0.2l0-0.2l0-0.2l0-0.2l0-0.4l0-0.1l0.1-0.2l0.1-0.2l0.1,0l0.1,0
		l0.1,0l0-0.1l0-0.1l-0.2-0.5l-0.1-0.3l-0.1-0.2l-0.2-0.2l-0.2-0.5L171,59l-0.1-0.1l-0.1-0.1l-0.1-0.2l-0.2-0.4l0-0.1l0-0.1l0-0.1
		l0-0.1l0-0.1l0-0.1l0,0l-0.1-0.2l-0.1-0.1l-0.1-0.1l0-0.2l0.1-0.1l0-0.1l0-0.1l0-0.1l-0.1,0l0-0.1l0-0.2l0-0.2l0.1-0.1l0.5-0.2
		l0.1-0.2l0.1-0.3l-0.1-0.1l0-0.3l0-0.3l0-0.2l-0.1-0.1l-0.1,0l-0.3-0.1l-0.3-0.2l-0.2,0l-0.2,0.1l-0.2,0l-0.1-0.2l-0.1-0.3l0.1-0.2
		l0.1-0.2l0.1-0.2l0-0.1l0.1-0.1l0.2-0.1l0.1-0.1l0-0.3l0-0.2l-0.1-0.3l0-0.2l0-0.4l0-0.2l0-0.1l0-0.7l0-0.2l0-0.3l0-0.3l0.1-0.2
		l0.1-0.1l0.3-0.1l0.1-0.1l0.1-0.2l0-0.2l-0.1-0.1l-0.3-0.1l-0.4-0.5l-0.1-0.1l-0.3-0.3l0-0.1l0-0.1l-0.2-0.7l0-0.1l-0.1-0.1l-0.1,0
		l-0.4,0.3l-0.1,0l0-0.1l0,0l0,0l0-0.1l0-0.1l0-0.1l0-0.3l0-0.1l0-0.1l0-0.3l-0.1-0.2l-0.2-0.2l-0.1-0.1l0-0.1l0-0.1l0-0.1l-0.1-0.1
		l-0.6-0.4l-0.1-0.2l-0.2-0.4l-0.1-0.1l-0.3,0.1l-0.1-0.2l-0.1-0.2l-0.1-0.1l-0.1,0l-0.1,0l-0.1,0l-0.2-0.1l-0.2,0l-0.3-0.2l-0.3,0
		l0,0l0-0.1l0,0l-0.3-0.1l-1,0l-0.1-0.1l0-0.1l0-0.1l0-0.1l0,0l0,0l-0.1-0.1l-0.1-0.1l-0.1-0.2l0-0.1l-0.2-0.2l-0.8-0.2l-0.1-0.4
		l-0.2-0.2l-0.4-0.4l-0.3-0.1l-0.1-0.1l-0.1-0.1l-0.1-0.4l0-0.1l0-0.1l-0.1-0.1l-0.3,0l0,0l0,0l0-0.1l0,0l-0.1-0.1l-0.2-0.5
		l-0.3-0.3l-0.3-0.3l-0.7-0.3l-0.1-0.1l0-0.2l0.1-0.1l0.1-0.2l0-0.2l-0.1-0.2l-0.2-0.1l-0.3-0.3l-0.5-0.1l-0.2-0.2l-2.2,0.2l1,1.3
		l0,0.2l0,1l0,0.2l-0.1,0.2l-0.4,1.2l-0.4,0.6l-0.8,0.8l1.2,0.7l-1,1.3l-0.2,0.1l-0.2,0l-1.9-0.8l-1.9-0.9l-1.4,0.1l-0.2-0.1
		l-0.7-0.7l-0.2-0.1l-1.1,0.4l0,0.1l0,0.1l-0.1,1.1l0,0.3l0.2,2.2l-0.1,0.5l-0.8,1.6l-0.1,0.3l-0.1,0.2l-0.1,0l-2.4-1.5l-0.1,0.1
		l-0.3,0.6l-1.7,1.4l-0.1,0.2l-0.1,0.2l-0.6,2.5l-0.1,0.2l-0.4,0.7l-0.2,0.3l-0.3,0.1l-0.7,0.1l-0.1,0.1l-0.2,0.8l1.3,2.4l0,0.2
		l-0.1,1.4l-0.1,0.2l-0.1,0.1l-0.2,0.2l-0.8,0.8l-0.4,0.5l-1.5,3.1l-1,1.1l0,0.3l0.2,1.3l0,0.3l0,0.2l0,0.1l-1.8,1.3l-2.1,0.3
		l0.4,2.9l0,0.4l0,0.2l-0.3,0.7l0,0.2l-0.2,2.4l0,0.5l0,0.5l0,0.5l-0.1,0.3l-0.3,0.3l-0.1,0.2l-0.1,0.2l-0.1,0.9l-0.1,0.4l-0.6,0.9
		l0,0l-2.2,4l1.2,0.9l0.2,0.1l0.3,0.1l0.2,0.1l0.1,0.2l0.2,2.3l0,0.2l-0.1,0.2l-0.7,1.4l-0.1,0.1h-0.1l-3-0.8l-1.1,0.3l-1,0.6
		l-0.3,0.3l-0.8,1.4l-0.8,1.4l-0.5,0.6l0.2,1l0,0.2l-0.1,0.2l-0.9,1.5l1,2.7l-0.5,0.7l0,0.1l0,0.2l0.2,1.4l0,0.2l-0.1,0.3l-0.1,0.4
		l-0.1,0.3l0,0.2l0.8,2.3l0.1,0.4l0,0.5l-0.7,4.5l0.1,0.1l0.5,0.5l0.2,0.2l0.3,0.4l0.1,0.1l0.2,0l0.3,0l0.1,0.1l0.1,0.1l1.1,1.5
		l0,0.1l0,0.1l-0.1,0.8l-0.1,0.2l-0.1,0.2l-0.3,0.5l0,0.1l0,0.1l-0.1,0.6l0,0.1l-0.1,0L124,116l-0.2,0l-1,0.3l-0.1,0.1l0,0.2
		l0.2,0.4l0.1,0.3l0.1,0.6l0.1,0.3l0.1,0.3l0.4,0.8l0.5,1.2l0.1,0.2l0,0.3l0,0.3l0,0.2l-0.1,0.2l-0.1,0.1l-0.2,0.3l-0.1,0.1l0,0.1
		l0,0.3l0.1,0.5l0,0.3l-0.1,0.4l-0.1,0.3l-0.2,0.3l-0.7,0.8l-0.6,0.5l-0.2,0l-0.7-0.1l-0.2,0.1l-0.2,0.2l0,0.3l0,0.1l0.1,0.2
		l0.1,0.1l0,0.1l0,0.3v0.2l0,0.1l-0.2,0.3l-0.1,0.1l-0.6,0.3l-0.1,0.1l0,0.2l0,0.2l0.4,1.6l0.1,0.5l0,0.2v0.2l0,0.1l-0.1,0.1l0,0.1
		l-0.1,0.5l0,0.4l0,0.2l-0.1,0.4l0,0.2l0,0.2l-0.1,0.4l-0.2,0.2l-0.3,0.1l-0.3,0l-0.1-0.1l0-0.5l-0.1-0.2h0l-0.1-0.1L119,133
		l-0.1-0.2l0-0.2l-0.1-0.2l-0.1-0.1l-0.4,0.1l-0.1,0.1l-0.3,0.4l0,0.1l0,0.1l0,0.1l0.1,0l0.2,0l-0.2,0.1l-0.1,0.1l0,0.1l0,0.1
		l0.1,0.1l0.2,0.1l0,0.1l0,0l0,0l0,0.1l0,0.1l0,0.2l0,0.1l0,0l0,0l0,0l0,0.3l0,0.1l0,0.1l0,0.1l0,0.1l0,0.1l-0.1,0l0,0.1l0,0.1
		l0,0.1l0.1,0l0,0l0,0.1l0,0.2l0.2,0.2l0,0.1v0.1l0,0.1l0,0.1l0,0.1l0,0l0,0l0,0.1h0.1l0,0.1l0,0l0,0l0,0.1l0,0.1l0,0.2l0,0l0,0l0,0
		l0,0l0,0l0,0.1l0,0l0,0l0.2,0.1l-0.1,0.1l-0.1,0.1l0,0.1l0,0.2l-0.1,0l-0.1,0l0,0.1l0.1,0.2l0,0.1l0,0.1l0,0.1l0,0.1l0,0.1l0.1-0.2
		l0.1,0l0.1,0l0.1-0.1l0,0l0-0.1l0,0l0,0l0.1-0.1l0.2-0.3l0-0.1l0,0.1l0,0.1L119,138l-0.1,0.3l0,0.1l0,0l0.1,0l0-0.1l0-0.1l0-0.1
		l0-0.1l0.1,0l0,0.2l0.1,0.1l0,0.1l-0.1,0l-0.1,0l0,0.1l0,0.1l0,0.1l0,0l0.1-0.1l0.1,0v0.1l-0.1,0.1l-0.1,0.1l0,0.1l0,0.1l0.3-0.2
		l0.1-0.1l0.1-0.2l0.1-0.2l0-0.3l0-0.3l0-0.2h0l0,0.1l0.1,0.3l0,0.1l0.1-0.1l0.1-0.1l0.1,0l0.1,0.1l-0.1,0.1l-0.1,0.1l-0.1,0.1
		l0.1,0.1l-0.2,0.3l-0.1,0.2l-0.1,0.2l-0.1,0.2l0,0.2l0,0.1l0.1,0l0-0.1l0,0l0,0l0.1,0l0.1,0l0.1,0l0,0l0.1-0.1l0,0l0,0l0.2-0.2
		l0.1,0l0.1,0l0-0.1l0.1,0l0.2,0l0.2-0.1l0.1,0l0.1,0.1l-0.2,0.1l-0.1,0.1l0,0.2l0,0.1l0,0.1l0,0.1l0,0.2l0,0.1l0.1,0l0.1,0l0,0.1
		l0,0l0,0l-0.1,0l0,0l0,0.1l0,0.5l0,0.1l-0.1,0l0,0.1l0,0l0,0l-0.1,0.1l0,0.1l0,0.1l0,0.1l0,0.1l0,0.1l-0.1,0.2l-0.2,0.3l0,0.1
		l0.1,0.1l0,0.1l0,0l0,0v0.1h0.1v0l-0.2,0.1l-0.1,0.1l0,0.2l-0.1,0l-0.1,0l-0.1,0.1l0.1,0l0.1,0.1l0.1,0.2l0.1,0.1l0.1,0l0.1,0
		l0.1,0l0,0.1l0,0.1l-0.4,0.4l0,0.1l0,0.1l0.1,0l0.1,0l0.1,0l0-0.1l0.1,0l0.2,0.1l0.1,0l0.1,0l0.1,0l0.1-0.1l-0.1,0.1l-0.3,0l0,0.2
		l0,0.1l0,0.1l0,0.1l0,0.1l0,0.1l0.1,0l0.1-0.1l0-0.1l0,0l0,0l0,0l0,0.2l0,0.4l-0.1,0.1l0,0l0.1,0.1l-0.1,0l0,0l0.1,0l0.1,0.1
		l-0.1,0l-0.1,0.1l0,0.1l0,0.1l0,0.1l0,0.1l0,0.1l-0.1,0.1l0,0l0,0l0,0l0,0l0,0.2h0.1l0.1,0l0,0.1l0.1-0.1l0.1-0.5l0.1-0.1l0,0l0,0
		l0,0l0,0l0,0l0.1,0.3l0,0.1l0,0.1l-0.1,0.1h0.2l-0.1,0.1l-0.1,0.1l-0.1,0.1l0.1,0.1l0,0l0.1,0l0,0l0,0l0,0l0,0l0,0l0,0l0,0.1l0,0.1
		l0,0.1l0,0v0.1l0,0l-0.1,0l0,0l0,0.1l0,0v0.1l0.1,0l0.1,0l0.1,0l-0.1,0l-0.1,0H122l0.1,0.1l0.1,0l0.1,0l0.1,0l0,0l0,0.1l-0.1,0.1
		l0.1,0l0.1,0l0,0l0,0.1l0,0.2l0,0.1l0.1,0.2l0,0.1l-0.1,0.1l0.1,0.1l0,0l0,0.1l0.1,0.1l0.1,0.1l0.1,0.1l0,0.1l0,0.1l0,0l0,0l0,0.1
		l0,0l0,0l0,0.1l0,0l0,0.2l0,0.1l0.1,0.1l0.2,0l0.1,0.1l0.1,0l0,0l0.1,0.1l0,0l0.1,0l0,0l0,0v0l0,0l0,0l0.3,0.2l0,0.1l0,0.2l0.1,0.3
		l0.1,0.1l0.1,0.1l0.1,0.1l0,0.2l0,0.1l0.2,0.2l0.1,0l0.1,0l0.1,0l0.2-0.1l0.1,0l0.1,0l0.1,0.1l0.1,0.3l0.1,0.3l0,0.2l0,0.2
		l-0.1,0.2l-0.1,0.1l-0.1,0.1l-0.2,0.1l-0.5-0.2l-0.2,0.1l-0.1,0.3l0.1,0.2l0.4,0.3l0.1,0.3l0.1,0.2l0.2,0.1l0,0.1l0,0.1l-0.1,0.1
		l-0.1,0.1l-0.1,0l-0.2,0l0,0l-0.1,0l0,0l0,0l-0.1-0.1l0,0l0,0l-0.1-0.1l0,0l-0.8-0.4l0.1,0.1l0.2,0.1l0.1,0.2l0.1,0.2l0,0.1l0,0.2
		l0,0.1l0.2,0.4l0,0.1l0.4,0.5l0,0.1l0,0.1l0,0.1l0.1,0l0.1,0.1l0,0.1l0,0.1l0,0.1l0.1,0.1l0,0l0,0l0,0l0,0l0,0.1l0,0.1l0,0.1
		l0.1,0.2l0.2,0.1l0.1,0.1l0.1,0.3l0,0.1l0,0.1l0,0l-0.1,0l0,0.1l0.1,0l0.1,0l0,0.1l0.1,0l0.1,0l0.1,0.1l0.1,0.1l0.1,0.1l0,0.1
		l0,0.1l0,0.1l0,0.1l0,0.1l-0.3,0.2l-0.1,0.1l0,0.2l0,0.2l0.2,0.3l0,0.2l-0.1,0l0,0l0,0l0,0.1l-0.1,0.1l-0.1,0l-0.1,0l-0.1,0l0-0.1
		l0,0l0,0h0L125,161l0,0.1l0.1,0l0.1-0.1l0.1,0l0,0l0.1,0l0,0l0,0l0.1-0.1l0,0l0.1,0l0.1,0l0,0l0.1,0.1l0,0l0,0l0.1,0l0.2,0l0.7,0.3
		l0.1,0l0.3,0l0.1,0l0.4-0.3l0.1,0l0.2,0l0.1,0l0.1-0.1l0-0.1l0-0.1l0.1,0l0.6,0l0.2,0l0.1,0l0.1,0l0.1-0.1l0.1,0l0.1,0l0.1,0
		l0.3,0.2l0.1,0l0.1,0l0.3,0l0.1,0l0.1-0.1l0.1-0.1l0.2-0.3l0.1-0.1l0.1-0.1l0.2-0.3l0.1-0.1l0-0.2l0-0.1l-0.2-0.3l-0.1-0.1l0-0.1
		l0-0.1l0-0.1l0-0.1l0-0.1l-0.1-0.1l-0.2-0.1l-0.1-0.1l0-0.1l0-0.1l0-0.3l0-0.3l0.1-0.3l0.2-0.2l0.2-0.1l0-0.1l0-0.1l0.1-0.1
		l0.1-0.1l0.1,0l0.1-0.1l0.2-0.2l0.1-0.2l0.1-0.1l0.1,0l0,0l0.1-0.1l0.1,0l0,0l0,0l0,0.1l0.1-0.1l0,0.1l0,0.1l0,0.1l0,0l-0.1,0.1
		l0,0l0,0l0.1,0l0,0l0,0l0,0l0,0l0-0.1h0.1l0,0.1l0,0l0,0l0-0.1l0-0.1l0.1,0l0,0l0-0.1l0-0.1l-0.1-0.2l0-0.1l0-0.1l0-0.1l-0.1,0l0,0
		l0-0.1l0-0.1l0-0.1l0.1-0.1l0.1,0l0.2,0l0.1,0l0.1,0.1l0.1,0.1l0.1,0l0-0.1l0.1,0l0.1,0l0.1,0l0.1-0.1l0.1,0l0.3,0.1l0,0l0-0.1l0,0
		l0,0l0.1,0l0,0l0,0l0,0.1l0,0h0.2l0,0l0,0l0,0l0,0l0.1,0.1l0.2,0l0.2-0.1l0.1-0.1l0.1,0.2l0,0.1l0,0l-0.1,0l0.1,0l0.1,0l0.2,0l0,0
		l0,0l0-0.1l0.1-0.1l0,0l0.1,0l0.1,0l0,0l0,0.1l0,0l0.1,0.1l0,0l0-0.1l0,0l0.2-0.1l0.2-0.1l0.1,0l0,0l0,0.1l0,0.1l0,0l0.1,0.1
		l0.1-0.1l0.1-0.1l0.1-0.1l0,0l0.1,0.1l0.1,0l0,0l0,0l0,0l0,0l0.1,0.1l0.1,0l0.2-0.1l0.1,0.1l0,0.1l-0.1,0.3l0.1,0.1l0.1,0.1l0.1,0
		l0.1-0.1l0.2-0.5l0.1-0.1l0.2-0.2l0.1-0.1l0-0.1l0-0.1l0-0.1l0,0l0,0l0.2-1.2l0.1-0.3l0.2-0.4l0-0.1l0-0.1l0.1,0l0-0.1l0-0.2l0-0.2
		l0-0.1l0,0l0,0l0.1-0.2l0-0.1l0,0l0,0l0.1,0l0.1,0l0.1,0.1l0.1,0l0.1,0l0.1-0.1l0-0.1l0-0.1l0-0.2l-0.1-0.2l0-0.1l0,0l0.1,0
		l0.1-0.1l0.1,0l0.1,0l0.1,0.1l0,0l0,0l0-0.1l0-0.1l0,0l0,0l0,0.1l-0.1,0l-0.1,0l0-0.1l0-0.1l0.1-0.4l0-0.1v-0.1l0-0.2l0,0l0.1-0.2
		l0-0.1l0-0.1l0-0.1l0-0.1l0-0.2l0-0.1l0.1-0.1l0.1,0v-0.1l0,0l0,0l0,0l0-0.1l0.1,0l0.1,0l0.1,0l0,0l0,0l0,0l0,0l0,0l0,0l0,0l0,0
		l0,0l0,0l0,0l0,0l0,0l0,0l0,0l0.1,0.1l0.1,0l0-0.1l-0.1-0.1l0-0.1l0.1,0l-0.1-0.2l0-0.1l0,0l0,0l0,0l0-0.1l-0.1-0.2l-0.1-0.2l0-0.2
		l0-0.2l0.1-0.1l-0.1-0.3l0.1-0.1l0.3-0.2l-0.1-0.1l0,0l0,0l0-0.1l-0.1-0.1l0.1-0.2l0.1,0l0.2,0.1l0-0.1l0-0.1l0.1,0l0.1,0l-0.1,0
		l-0.1-0.1l0-0.1l0-0.1l0.1,0l0.1,0l0,0l-0.1-0.1l0.1,0l0-0.1l-0.1-0.2l-0.1-0.3l-0.2-0.1l-0.3,0v0h0.1v-0.1l-0.1-0.1v-0.1l0,0
		l0.1-0.1l0,0l0,0l0-0.1l0,0l0,0l0,0l0,0l0,0.1v0.1l0,0.1l0,0l0,0l0.1-0.1l0-0.1l0,0l0,0l0,0l0-0.1l0-0.1l-0.1,0l0,0l0-0.1l0.1,0
		l0.1,0l0-0.1l0-0.1l0-0.1l-0.1-0.1l0-0.1l0.1,0.1l0.1,0.1l0.3,0v-0.1h-0.1v-0.1h0.1l0-0.1l-0.1-0.1l-0.1,0l-0.1,0l0.1-0.1l-0.1-0.1
		l-0.1-0.2l0,0l-0.1,0l0,0l0-0.1l0-0.1l-0.2-0.2l-0.2-0.2l-0.1-0.1l0-0.1l0-0.1l0.5,0.4l0.3,0.5l0.1,0.1l0.2,0.1l0.1,0l0-0.1
		l-0.1-0.1l-0.9-1v-0.1l0.1,0l0,0l0-0.1l-0.1-0.1l0.2,0.1l0.1,0.1l0.1,0.1l0,0l0-0.1l0-0.1l0-0.1l0,0l0-0.1l0,0l-0.2-0.1l-0.1-0.2
		l0-0.1l0-0.1l0-0.1l0,0l0,0l0.5,0.6l0,0l0,0l0,0l0,0l0,0.1l0,0.1v0.1l0,0.1l0.2,0l0.1,0l0-0.1l0-0.2l0,0l0.1,0.2l0.1,0.1l0.1,0
		l0.1,0l0-0.1l0-0.1l-0.1-0.1l0-0.1l0.2,0.1l0.1,0l0-0.1l-0.1-0.1l0,0l0-0.1l0-0.1l0,0l0,0.1l0,0l0-0.1l0-0.2l-0.1,0l-0.1,0L141,141
		l0-0.1l0.1-0.1l0.1,0l0.1,0.2l0.1,0.1l-0.1-0.1l0,0l0.1-0.1l0,0.1l0,0l0,0l0-0.1l-0.1-0.1l-0.1,0l-0.1,0l-0.1-0.1l0.1,0l0,0l0-0.1
		l0-0.1l0.1,0l-0.1-0.2l-0.1-0.2l-0.1-0.2l0,0l0.1,0l0,0l-0.1-0.1l-0.2-0.2l-0.1-0.1l0.2,0.1l0.2,0.3l0.2,0.2l0.1-0.3l0,0l0-0.1l0,0
		l0,0l0.1,0l0,0l0,0l0-0.1l0-0.1l0-0.1l0-0.1l-0.1-0.1l0,0l0,0l-0.3-0.2l-0.1,0v-0.1l0.2,0l0,0l0,0l0-0.1l0,0l0,0l0,0l0.1,0l0,0
		l0-0.1l-0.1,0l-0.2,0.1l0,0.1l0,0.1l0,0l0,0l-0.1,0l0-0.1l0-0.1l-0.1-0.1l-0.2-0.1l-0.1-0.1l0.6,0.1l0-0.2l0,0l-0.1,0l0,0l-0.1,0
		l-0.1,0l0,0l0-0.1l0-0.1l0-0.1l0-0.1l0-0.1l-0.1,0l-0.1,0l-0.9-0.5l-0.1,0l0.1-0.1l0.4,0.1l0.2,0.2l0.5,0.1l0,0l0.1,0l0,0l0,0
		l0.1-0.1l0,0l0.1,0l0.1-0.1l0.1-0.1l0-0.1l0.1,0l0.2,0l0.1-0.1L142,137l-0.2,0l-0.1,0l0-0.1v-0.1h-0.1v0l0,0l0,0l-0.1,0l-0.1-0.1
		l0-0.1l0-0.1l-0.1,0l-0.1-0.1l0,0l0,0.1l0,0l-0.1-0.1l-0.2,0l-0.1,0l-0.1-0.1l-0.1,0l-0.5,0l-0.1-0.1l-0.2-0.1l-0.1,0l0,0.1l0,0.1
		l0,0.1l0,0.1l0,0l-0.1,0l0,0l0-0.1l0-0.1l0,0l0,0l-0.1-0.1l-0.1,0l-0.1,0l-0.1,0.1l-0.1,0.1l-0.2-0.1l-0.1,0.1l0-0.1l0,0l-0.1,0
		l-0.1,0v-0.1l0.1,0l0.2,0l0.1,0l0-0.1l0-0.1l0-0.1l-0.1,0v-0.1l2.9,0.4l0.4-0.1l0.1,0l-0.1-0.1l-0.1-0.1l-0.2,0l0.1-0.1l0.2,0
		l0.2,0.2l0.1,0l0.1-0.1l0.1-0.1l0.1-0.1v-0.1l-0.1,0l-0.2,0l-0.1-0.1l0,0l0-0.1l0-0.1l0-0.1l0-0.1l-0.1,0l-0.1,0l0.1,0l0.1-0.1l0,0
		l0.1,0l0.1,0.1l0,0.1l0.1,0l0.5,0v-0.1l0.1,0l0.2,0l0.1-0.1l0-0.1l-0.1-0.2l0.5,0.1l0.1-0.1l-0.1-0.1l0,0l0,0l0-0.1l0-0.1l0-0.2
		l0-0.1l-0.1-0.1V134l0.1,0.1l0.3,0.3l0.1,0l0,0l0,0h0.1v-0.1l-0.1-0.1l-0.1-0.1l0-0.1l0.1,0l0.1,0l0.1,0l0.1-0.1l0-0.1l-0.1-0.1
		l-0.1,0l0-0.1v-0.1l0,0l0,0l0,0l0,0l0,0l0,0l0,0l0,0l0-0.1l0-0.2l0-0.1l-0.1-0.1l0-0.2l0-0.2l0-0.2l0.1,0l0.1-0.1l0.1-0.1l0.1-0.1
		l-0.1-0.3l0,0.1l0,0.1l0,0.1l0,0.1l0,0.1l-0.1,0.2l0,0.1l0.1,0.2l0,0l0,0l0-0.1l0-0.3l0-0.1l0-0.1l0.1,0l0,0l0,0.1l-0.1,0.2l0,0
		l0,0.1l0,0.2l0,0.2l-0.1,0.1v0.1l0,0.2l0,0.2l0,0.2l0.1,0.1l0,0.1l0,0.1l0,0.1l0,0l0,0l0-0.1l0-0.1l-0.1-0.1l0-0.2l0-0.1l0.1,0.1
		l0.1,0.2l0,0l0.1,0l0,0l0,0l0,0l0,0l0,0l0,0.1l0,0.1l0,0.1l0,0.1l0.1,0.1l0-0.2l0-0.1l0-0.1l0.1,0l0.1,0l0.1,0l0.1-0.1l0-0.1l0-0.1
		l0-0.1l0-0.1l0.1-0.2l0.1-0.2l0.1-0.1l-0.1-0.1l0-0.1l0.1,0l0.1,0.1l0,0l0-0.1l0,0l0.2,0l0.1,0l0.1-0.2l0-0.1l0.1,0l0.1,0l0.1,0
		l0.1-0.1l0.1,0l0.1,0l0.1,0v0.1l0,0l0,0l0.1,0.1l-0.1,0l-0.1,0.1l-0.1,0l0.1,0l0.4-0.2l0-0.1l0,0l0,0l0,0l0.1-0.1l0.2-0.1l0.2,0
		l0.1,0l0,0l0,0l0-0.1l0-0.1l0-0.1l0,0l-0.1,0.1v-0.1l0,0l0,0l0,0l0,0l-0.1,0.1l0-0.1l0-0.1l0-0.1l-0.1,0l-0.1,0l-0.1-0.1l0-0.1
		l0.1,0l0.4,0.3l-0.1-0.1l-0.1-0.1l-0.1-0.1l-0.1,0l-0.2-0.1l0-0.1l0,0l0.1,0v-0.1l0-0.1l0-0.1l0-0.1l-0.1,0l0.1-0.1l0.1-0.1l0.1,0
		l0.1,0l0,0l0,0.1l0,0l0.1,0.1l0.3-0.1l0.1,0l0.1,0l0.1,0l0.1,0l0.1,0l0.1,0l0.1,0l0.2,0l0.1-0.1l0-0.1l-0.1-0.1l-0.1-0.1l-0.1,0
		l-0.1-0.1l0.1,0l0.1,0l0.1,0l0-0.1l-0.3-0.2l0,0l0-0.1l0,0l-0.1-0.1l-0.1,0l-0.2,0l0,0.1l0.1,0.1l0.2,0.1h-0.2l0,0.1l0.1,0.3l0,0.1
		l-0.1,0l-0.1,0l0,0l0-0.1l0,0l-0.2-0.1l-0.3-0.1l-0.3,0.1l-0.1,0.4h0l0-0.1l0,0l-0.1,0.1l-0.6,0l-0.1-0.1l-0.1,0l-0.2,0.2l-0.1,0.1
		l0,0l0,0.1l0,0l0,0l0,0.1l0,0l0,0.1l0,0.1l0,0l-0.1,0l0-0.2l-0.2-0.1l-0.4,0v0.1l0.2,0.1l0,0.1l-0.1,0.1l-0.1,0l-0.1,0l0.1-0.1l0,0
		l0,0l-0.1,0l0,0l0,0l0-0.1l-0.3-0.1l-0.1,0l-0.1,0.1l0.1,0.1l0,0.1l0,0.2l0,0.1l0-0.1l-0.1-0.2l0,0l-0.1,0l-0.2-0.1l-0.2-0.2
		l-0.2-0.1l-0.3-0.1l0.1,0.4l0.1,0.1l0.1,0.1v0.1l-0.8-0.1V131l0.2,0l0.1,0l0-0.1l0-0.1l-0.2-0.3l0.3-0.1l0-0.1l0-0.1l-0.1-0.1
		l-0.2,0l-0.4-0.1l-0.2,0l-0.2,0.1l0,0l0-0.1l0,0l-0.3-0.2l0,0l0-0.1l0-0.1l0-0.1l-0.1-0.1l0,0l0,0l-0.1-0.1l-0.2-0.2l-0.1,0l0,0.1
		h-0.3l0,0l-0.1,0l0,0l0,0l0,0l0,0l0.1,0.1l0.5,0.4l0,0l0.1,0l0,0l0,0l0,0.1l0,0l0,0h-0.3l0,0l-0.1-0.2l-0.3-0.3l-0.1-0.1l-0.1-0.1
		l-0.1,0.1l-0.1,0.1l-0.1,0.1l-0.1,0l-0.1-0.1l-0.1,0l0,0l0,0.1l0,0l0,0l-0.1,0l0,0l-1.3,0.1l-0.2,0l-0.2-0.1l-0.2-0.1l-0.1-0.2
		l0.4,0.2h0.5v-0.1h-0.1v-0.1l0.1-0.1l0.1,0l0,0.1l0,0.1l0.1,0.1l0.1,0l0.1,0l0-0.1l0,0l0.1,0l0,0l0.1-0.1l0,0l0,0l0.2,0.1l0.1,0
		l0.1-0.1l-0.2-0.1l0.1,0l0.1,0l0.1,0l0.1-0.1l-0.1-0.1l-0.1-0.2l-0.1-0.1l0.1-0.1l0.1,0l0,0l0,0l0.1,0.1l0.1,0.1l0.1,0.1l0.1,0.1
		l0.1,0.1l0.1,0.1l0.1,0l0.1,0l0.1,0l0,0l0-0.1l0-0.1l0.1-0.1l0,0l0,0l0-0.1l0-0.1l0,0l0.3,0.1l0,0l0,0l0,0l0,0l0,0l0,0l0,0l0,0
		l0.1,0.2l0,0l0.5,0l0-0.1l-0.2-0.2l-0.1-0.1l0.1,0l0,0l0.1-0.1l0,0l0,0.1l0,0.1l0.1,0.1l0,0l0,0l0,0l0.1,0.1l0.1,0.1l0.2,0l0,0.1
		l0,0.1l0.5,0.4l0.1,0l0-0.1l0-0.1l0,0l0,0.1l0.1,0.2l0,0l0-0.1l0-0.1l-0.1-0.2l0.1-0.1l0-0.2l-0.1-0.2l0-0.1l-0.1-0.1l0-0.1l0,0
		l0.1,0l0-0.1l0-0.1l0-0.1l0,0.1l0,0.1l0,0.1l0.1,0l0,0l0.1,0.2l0.2,0.2l0,0l0,0l0.1-0.1l0,0l0.1,0l0,0.1l-0.1,0.1l-0.1,0.1l0,0.1
		l0,0.1l0,0l0.1,0l0,0l0,0l0,0l0-0.1l0,0l0.1,0l0.3,0.1l0.1,0l0,0.1l0.1,0.2l0.1,0.1l0.1,0l0-0.1l0-0.1l0.1-0.1l0.2-0.3l0-0.1
		l-0.1-0.3l0-0.1l-0.1-0.1l-0.1,0l-0.1,0l-0.4-0.3l-0.2-0.2l0-0.1l0-0.1l0.2-0.2l0,0l0,0l0,0l0.1-0.2l-0.1-0.1l-0.3,0l0.1,0l0,0
		l-0.1,0.1l-0.1,0l-0.1,0.1l0,0.1l0,0.2l0,0.1l-0.1,0.1l0.1,0.1l0.1,0.2l0,0.2l0,0.1l-0.1-0.1l-0.1-0.4l-0.1-0.1l0-0.2l0-0.1l-0.1,0
		l0-0.1l0-0.1l0-0.1l0.1-0.2l0-0.1l0,0l-0.3,0l-0.1,0l-0.1-0.1h0.6l0.1,0l0.1-0.1l0.1-0.2l0.1-0.2l0,0.1l0,0.1l0.1,0.1l0,0.2
		l0.1,0.1l0.1,0.1l0.1,0.1l-0.1,0l0,0.1l0,0.1l0,0.1l0,0.1l-0.1,0.1l-0.1,0l-0.1,0l0.1,0.1l0.1,0.1l0.1,0l0.1,0l0.2,0.1l0.1,0l0-0.1
		l0-0.1l0-0.2l0-0.1l0.1-0.1l0,0.1l0,0.1l0,0.1l0,0.1l0,0.2l0,0.1l0.1,0.1l0,0l0.1,0l0,0l0,0.1l0,0l0,0v0.1l0,0l0,0l0,0l0,0.1l0,0.1
		l0,0.1l0,0.1l-0.1,0.1l-0.1,0.1l-0.1,0.2l0,0.2l-0.1,0.3l0.1,0.3l0.2,0.2l0.2,0.1l0.1,0l0.3-0.1l0.5,0.1l0.1,0l-0.6-0.6l0,0
		l0.1,0.1l0,0l0,0l0.1-0.1l0-0.1l0-0.1v-0.1l0,0l0,0l0.1-0.1l0,0l0,0l0,0.1l0,0l0.1,0l0.1-0.1l0.1,0l0,0.1l0,0.2l0,0.1l0,0l-0.1,0
		l-0.1,0l0,0l0.1,0.1l0.2,0.1l0.2,0l0.1-0.1l-0.1,0l-0.1,0l-0.1-0.1l0-0.1l-0.1-0.1l-0.1,0l0.1,0l0.1,0l0.1-0.1l-0.1-0.1v-0.1l0.3,0
		l0.1,0l0.1-0.1l0.2-0.3l0.1-0.1l0.2-0.1l0.2-0.2l0.2-0.1l0.1-0.1l0.1,0l0,0l0-0.1l-0.1-0.2l0.1,0l0,0l0,0l0,0l0,0l0.1-0.1l0-0.1
		l0-0.1h-0.2l0,0l0,0l0-0.1l0-0.1l0,0l0.1,0l0-0.1l0.1-0.1l0.3-0.1l0.1-0.1l0.1-0.1l0.1-0.1l0,0l0,0.1l0,0.1l0.1,0l0.1,0l0.3-0.1
		l0.1-0.1l0.1-0.1l0-0.2l-0.2-0.1l-1.1,0l-0.2,0.1h-0.1l0-0.1l0.1-0.1l0.1,0l0.2,0l0.1,0l0.1-0.1l0.3-0.4l0-0.1l0-0.1l-0.1-0.3
		l0-0.1l0.1,0.1l0.1,0.2l0.3,0.5l0.1,0l0.1,0l0-0.1l0-0.3l0-0.1l-0.1,0l-0.1,0l0,0l0,0.1l0,0l0,0l0,0l-0.1-0.1l0,0l0-0.1l0,0l0,0
		l-0.1-0.1l-0.1-0.1l-0.2-0.1l-0.1-0.1l-0.1-0.4l-0.2-0.6l0-0.1l0-0.1l0-0.1l0,0l-0.1,0l-0.2,0.1l-0.1,0.2l0,0.2l0.1,0.2l0.1,0.2
		l0-0.1l-0.2-0.3l0-0.1l0-0.3l0-0.1l-0.1-0.1l-0.1,0l-0.1-0.1l-0.1,0l-0.1,0l-0.1,0.1l0,0.1l0,0.2l0,0.2l0,0.1h0l0-0.1l-0.1-0.3
		l0-0.1l0-0.3l0,0l0,0.1l0,0l-0.1,0h-0.1l-0.1,0l-0.1-0.1l-0.2-0.1l-0.1-0.1l0-0.2l0.1,0.1l0.1,0l0.1,0l-0.1-0.2l-0.2-0.2l-0.2-0.2
		l-0.1-0.3l0.2,0.4l0.1,0.2l0.7,0.3l0.2-0.1l-0.2-0.2l-0.6-0.2l0-0.1l0,0l0.1,0l0.1,0v-0.1l-0.1-0.1l0,0l0-0.1l0-0.1l0-0.1l0,0
		l-0.1-0.1l-0.3,0l-0.1-0.1l-0.1,0l-0.1,0l-0.1,0l-0.1,0.1l-0.1,0.1l0-0.1l0,0l-0.1-0.1v-0.1l0.1-0.1l0.1-0.1l0.1,0l-0.3-0.1
		l-0.1-0.1l-0.1-0.2l0,0l0-0.1l0,0l-0.1-0.1l-0.2-0.2l-0.1-0.1l-0.1,0v-0.1l0,0l0-0.1l0-0.1l0-0.1l-0.1-0.3l-0.1-0.1l-0.1,0
		l-0.4,0.1l-0.2,0.2l-0.1,0.2l0.1,0.2v0.1l-0.3,0l-0.1-0.1l-0.1-0.2l0-0.1l-0.1-0.2l0-0.1l0,0l0.1-0.1l0.1-0.1l-0.1-0.1l-0.2-0.1
		l-0.1-0.1l-0.1-0.1l-0.1,0l-0.6,0.1l-0.1,0l-0.1,0.1l-0.1,0l-0.1,0l-0.1,0v-0.1l0.2-0.1l-0.2-0.2l-0.1-0.1l-0.1-0.1l-0.1,0l0,0
		l-0.1,0l0,0l0,0l0,0l0,0l0.1,0l0.2-0.1l0.1-0.1l0.1-0.1l0.1-0.1l0.1-0.1l0,0l-0.1,0l-0.1,0l-0.1-0.1l0-0.1l0-0.1l0-0.1l0,0l0,0l0,0
		l0-0.1l0,0l0,0l0,0l0,0l-0.2-0.5l0,0l0,0l-0.1,0l0,0l0-0.1l0-0.1l0-0.1l0,0l-0.1,0l-0.1-0.1l0,0l0-0.1l0-0.2l0.1-0.1l0.3-0.1
		l-0.1-0.1l-0.1,0l-0.2,0l0,0l0.1-0.1l0,0l0,0l0,0l0-0.1l0-0.1l0-0.1l0,0l0,0l0,0l0-0.1l0-0.1l0,0l-0.1,0l0,0l0.1,0l0-0.1l0-0.1
		l-0.1-0.1l0.1-0.1l0-0.1l0-0.2l-0.1-0.1l0.1-0.1l0.1-0.1l0.1-0.1l-0.1-0.2l-0.1-0.1l-0.1-0.2l-0.1-0.1l-0.1-0.1v-0.1l0.1,0l0.1,0
		l0.2,0.2l0.1,0l0.2,0l-0.1-0.1l-0.1,0l-0.1-0.1l-0.1-0.2l0.3,0.1l0.1,0l0.1,0l-0.3-0.2l0-0.1l-0.1-0.1l-0.1-0.1L143,113l0-0.1
		l0-0.1l0.1-0.1l0-0.2l0,0l0,0.1l0,0.1l0-0.1l0,0l0,0l0,0l0,0l0-0.1l0-0.1l0,0l0,0l0,0.1l0,0h-0.1l0,0l0-0.1l0-0.1l0-0.1l0-0.1l0,0
		l0-0.1l0-0.1l0,0l-0.2-0.1v-0.1h0.2v-0.1l0,0l-0.1,0l-0.1-0.1l-0.1,0l0,0l0,0l0.4,0v-0.1l-0.4-0.1l-0.1-0.1l0.2,0l0.2-0.1l0-0.1
		l-0.1,0l-0.1,0V111l0.3,0l0.1,0l0.2,0.1l0.1,0l0.1-0.1l-0.1-0.1l-0.5-0.1l0.1-0.1l0.2,0.1l0.1-0.1l-0.1-0.1l0,0v-0.1l0.1,0l0.2,0
		l0.1-0.1l0-0.1l-0.3-0.2l-0.1,0l-0.1,0l-0.1-0.1l0.4,0l0.2,0l0.2,0.1l0,0.1l0.1,0.1l0.2,0l-0.1-0.2l0-0.1l0-0.1l0.1,0.1l0.1,0.1
		l0.2,0.4l0.1,0.1l0.1,0.1l0.1,0l0.1,0l0.1-0.1l0-0.1l0-0.2l0-0.1l0-0.1l0-0.1l0-0.1l-0.1-0.1l-0.1-0.1l-0.1,0l-0.1,0l-0.2,0.1l0,0
		l0-0.2l0-0.1l0-0.1l0-0.1l-0.1,0v-0.1l0,0l0,0l0-0.1l0-0.1l-0.2,0.1l-0.1,0l0,0l0,0l0,0l0,0l0-0.1l0,0l0,0l0,0l0,0v-0.1l0-0.1l0,0
		l0,0l0.1,0l0-0.1l0-0.1l-0.1-0.2l0-0.1l0-0.1l0-0.1l0-0.1l0,0l0.1,0l0-0.1l0-0.1l0-0.1l0,0l0.2,0l0,0l0-0.1l-0.1-0.1l0,0l0.1-0.2
		l0-0.1l-0.1-0.1l0.1-0.1l0-0.1l0-0.1l0-0.2l0-0.1l0.1-0.2l0-0.1l0-0.1l0-0.1l0-0.1l0-0.1l0-0.1l0.1-0.1l0.1,0l0.1,0l-0.1,0.2l0,0
		l0.1,0l0.3-0.2l-0.1-0.1l-0.1-0.1l-0.1,0l-0.1,0l-0.4-0.2l0.1-0.1l0,0l0,0V105l0-0.1l0-0.1l0-0.1l0-0.1l-0.1-0.1l-0.1,0l-0.1,0
		l-0.1,0l-0.1-0.1l0-0.1l0-0.1l0-0.1l0-0.1l0-0.1l0-0.1l0,0l0.1,0l0,0l0,0l0-0.1l0-0.1l0-0.1l0,0l-0.2-0.3l0-0.1l0-0.1l0.1-0.1
		l0.1,0l0.1-0.1l0-0.2l0.1-0.1l0,0l0.2,0.3l0.2,0.4l0,0l0.1,0.1l0.1,0l0.1,0l0.5,0l0-0.1l-0.1,0l-0.1-0.1l0-0.2l0.1-0.1l0.1-0.1
		l0.2-0.1h0.2l0,0l0.1,0.1l0,0l0.1,0l0.1-0.1l0.1-0.2l-0.1-0.1l0.1,0l0,0l0-0.1l0-0.1l0-0.1l0-0.3l0-0.1l0,0l0.1,0l0,0l0,0.1l0,0.3
		l0,0.1l0,0l0.3-0.3l0.1,0l0,0l0-0.1l0-0.1l0-0.1l-0.6-0.3l-0.1-0.1h0.3l0,0l0.1,0.1l0,0l0,0l0,0l0,0l0-0.1l0-0.1l0-0.2l0-0.1l0-0.2
		l-0.1-0.2l0-0.1l0-0.2l0,0l-0.1-0.1l0-0.1l-0.2-0.1v-0.1l0.1-0.2l-0.1-0.3l-0.1-0.3l-0.1-0.2l-0.1-0.2l-0.5-0.5l0.1,0l0.1,0.1
		l0.1,0.1l0.1,0l0.1,0l0.1-0.1l0.1,0l-0.1,0.1l0,0l0.1,0l0.1,0l0,0.1l0,0.1l0.1,0.3l0,0.1l0.1,0l0.1,0l0.1,0l0,0.1l0,0l0,0.1l0,0
		l0,0.1l0,0.1l0,0l0,0.3l0,0.1l0,0l0.1,0.1l0.1,0l0,0l0.1-0.1l0.1-0.1l0.1-0.1l0.1,0l0,0l0,0l0,0l0,0l0.1,0.1l0.1,0.1l0.2,0.1
		l-0.1,0.2l-0.4-0.1l-0.1,0.2l0.2,0l0.1,0l0.1,0.1l0,0l0,0.1l0.2,0l0.1,0l0.1-0.1l0-0.1l0-0.1l0-0.1l0.1,0l0,0l0,0.1l0,0.1l0,0.1
		l0,0.1l0,0l0-0.1l0,0l0.1,0l0.1-0.1l0.1-0.3l-0.1-0.1l-0.1,0.2l-0.1-0.1l0-0.1l0-0.1l0-0.1l0,0v-0.1h0.2l0-0.1l0,0l0.1,0l0.1,0.1
		l0.1,0.2l0,0.1l0,0l0,0l0,0l0.1,0l0.1,0l0,0l0.1,0l0,0l0,0l0,0l0.1,0l0,0l0-0.1l0-0.1l0-0.1l-0.2-0.1l-0.1-0.1l0.3,0.1l0.2,0l0-0.2
		l0-0.1l-0.1,0l-0.2,0.1l-0.1,0l-0.2-0.2l0-0.2l0.1,0l0.2,0.1l0.1,0l0.1,0l0-0.2h0l0,0.1l0.1,0l0,0l0-0.1l-0.1-0.1l-0.1-0.1l-1.1,0
		l-0.1-0.1l0.2-0.1l0.1-0.1l0.1-0.1l0,0l0,0l0-0.1l0,0l0,0l0,0l0,0.1l0,0l0.3,0.1l-0.1-0.1l-0.1-0.1l-0.1-0.1l0.1-0.1l0.1,0l0.1,0
		l0.1,0.1l0.1,0.2l0,0l0,0l0-0.2l0-0.1l0.1,0l0.2-0.2h-0.1l0.1-0.1l0-0.1l0-0.1l0-0.1l0.1-0.1l0.1,0l0.1,0.1l0.1,0l0.1,0l0-0.1
		l0-0.1l0-0.1l-0.1-0.1l-0.1-0.1l-0.1-0.1l-0.1,0v-0.1l0.2,0l0.6,0.2l0-0.1l-0.1-0.2l0-0.1l0-0.1l0-0.1l-0.1-0.1l0.1-0.1l0.4,0.1
		v0.1l-0.2,0l-0.1,0l0,0.1l0,0.1L150,97l0.1,0l0.1-0.1l0,0l0-0.1l0.3,0l0.1-0.1l0.1-0.1l-0.7-0.3l-0.1-0.1l0.1-0.1l0.1,0l0.2,0
		l0.2,0.1l0.1,0l0-0.1l0.1,0l0.1,0.1l0.1,0.1l0.1,0.1l0.1,0l0,0.1l0,0.1l0,0.1l0.1,0.1l0,0.1l0,0l0.1,0.2l0,0l0.1,0l0,0l0-0.1l0-0.1
		l0.1,0l0.1,0l0,0l0-0.1l-0.1,0l-0.1-0.1l-0.1-0.1l0.1-0.2l0.2,0.2l0.1,0l0.1-0.2h-0.1l0-0.1l0.1-0.2l0-0.1l-0.1-0.1l0,0l0.1-0.1
		l0.2-0.1l0.1-0.2l0,0.2l0.1,0l0.1-0.1l0-0.1v-0.3l0-0.1l0-0.2l0-0.1l0-0.3l0-0.2l0.1-0.1l0.1,0.1l0.1,0.1l0.1,0.1l0.1,0l-0.1-0.3
		l0-0.1l0.1,0.1l0.3,0.5l0.1,0.1l0.1,0l0,0l0-0.1l0-0.1l-0.2-0.3l0-0.1l0,0l0.1,0l0.1,0l0.1-0.1l-0.1-0.1l-0.1,0l-0.1-0.1l0.1-0.2
		l-0.1,0l0,0l0-0.1l0.1-0.1l0.1,0l0.1,0.1l0.1,0.1l0.1,0.1l0.2,0.1l0.1,0.2l0.1,0l0,0l0,0.1l0,0l0.1,0.1l0,0.1l0,0.1l0,0.1l0.2,0.1
		l0.1,0l0.1-0.1l0.1-0.1l0,0l0.1,0l0,0l0-0.2l-0.1-0.3l0-0.1l0.1-0.2l0.2-0.1l0.2-0.2l0.1-0.2l0,0l0.2-0.1l0.1-0.1l0.1,0l0.3,0.2
		l-0.1-0.2l0-0.1l0-0.1l0.1-0.1l0.1-0.1l0.1,0l0.1,0l0,0l0,0l0,0.1l0,0l0,0l0,0l0,0l0.3,0l0.1,0l0-0.2l0-0.2l0.1-0.2l0.1-0.1l0,0.1
		l0,0.1l0,0.1l0,0.1l0,0.1l0,0.1l0.1,0.1l0.1,0l0-0.2l0-0.6l0-0.1l0.1,0l0.1,0.1l0,0.1l0,0.1l0,0.1l0,0.1l0,0.1l0.1,0l0,0l0-0.1
		l0-0.1l0-0.1l0-0.1l0-0.2l0-0.1l0,0l0,0l0-0.1l0.1,0.1l0.1-0.1l0.2-0.5l0,0l0.1,0.1l0,0.1l0,0.1l0,0.1l0,0.1l0,0l0-0.1l0-0.1
		l0.2-0.2l0.1,0l0.1,0.1l0.1,0.2l0,0l0.1-0.1l0.1-0.2l-0.1,0l-0.1,0l0-0.1l0-0.1l0-0.1l0.2,0l0.2-0.2l0-0.1l0.1-0.3l0.1-0.3l0.1-0.1
		l0.1-0.1l0,0l0,0l0,0l0,0l0,0l0-0.1l0-0.2l0,0l0,0l0,0l0,0l0,0l0-0.1l0,0l0,0l0-0.1l0-0.1l0,0l0.2-0.4l0-0.2l-0.1-0.2l0.1-0.2
		l0.3-0.4l0.1-0.3l0,0l0,0l0.1,0.1l0,0l0.5-0.8l0,0l0,0l0.1,0l0.1,0l0.1-0.1l0.1,0l0,0l0,0l0,0l0,0l0-0.1l0-0.1l0-0.1l0-0.1l0.1,0.1
		l0.1,0.2l0.1,0.1l0.1-0.1l0.1-0.1l0.2-0.2l0.2-0.4l0-0.1l0.1-0.1l0-0.1l0.1-0.1h0.1l0,0l0-0.1l0-0.1l0-0.1l0,0h-0.1l0,0.1l-0.1,0
		l-0.1,0l0,0l0,0.1l0,0l-0.1,0l-0.1-0.1l0-0.1l0.1-0.1l0-0.1l0-0.2l0,0l-0.1,0l-0.2,0l0,0l-0.1,0.1l-0.1,0l-0.1-0.2l-0.1,0l0,0
		l0-0.1l0,0l0,0l0,0l0,0.1l0.1,0.1l0.1-0.1l0.2-0.2l0,0l0.1,0.2l0.1,0l0.1,0l0.1-0.1l0.1-0.1l-0.1,0l-0.1,0l-0.1-0.1l0-0.1v-0.2l0,0
		l0,0l0,0l0,0.2l-0.1-0.1l-0.1-0.2l-0.1-0.1l-0.1,0l0,0l0,0.1l0,0.1l0,0l0,0l0,0.1l0,0l0,0l-0.1-0.1l0,0l0,0l0-0.1l0,0l0,0l0,0
		l-0.1,0l-0.1-0.1l-0.1-0.1l0-0.1l0.1,0l-0.1-0.2l-0.1-0.1l-0.1,0l-0.1,0l-0.1-0.1l0-0.2l0-0.2l0-0.1l0.1,0l0.1,0.1l0.1,0.1l0.1,0.1
		l0.1,0.1l0.2,0.2l0.1,0.1v-0.1l-0.1-0.1l0-0.1l0-0.1l0.1,0v-0.1l-0.2-0.2l-0.1-0.1l-0.1-0.2l0.1,0l0.2,0l0.1,0l0-0.1l-0.1-0.1
		l-0.3-0.1l-0.3,0.1l-0.2,0l-0.1,0l-0.1-0.1l0,0l0-0.1l-0.1-0.1l-0.1-0.1l0-0.1l0-0.1l0-0.1l0.1,0l0.1,0l0,0.1l0,0.1l0,0.1l0.1,0
		l0.1,0l0.1-0.1l0.1-0.1l0-0.2l0.1-0.1l0.1-0.1l0-0.3l0.1,0l0.1-0.1l0-0.1l0-0.1l0-0.1l0-0.1l0-0.1l0-0.1l0.1,0l0.5,0l0.1-0.1
		l-0.1-0.1l0-0.1l0.1-0.1l0.1-0.1l0,0l0,0l0,0v0l0,0l0.1,0.1l0,0l0,0l0.1-0.1l0,0l-0.1-0.1l0-0.1l0.1-0.1l0.4,0l0.1-0.1l-0.1-0.1
		l-0.1,0l0-0.1l0.1-0.3l0-0.1l0-0.1l-0.1-0.1l0.2,0l0.1-0.1l0-0.2l-0.3-0.6l-0.2-0.3l-0.3-0.5l-0.1-0.1l-0.5-0.1l0.1-0.1l0.2,0
		l0.1-0.1l0,0l0,0l0,0l0.1,0l0.1,0.2l0.1,0.2l0.1,0.1l0.1,0l0.1,0.1l0.1,0.1l0.1,0.1l0.1,0.1l0.1,0.3l0,0.1l0.1,0.1l0.2,0l0.2-0.1
		l0.1-0.2l0-0.1l-0.1-0.1l-0.1-0.1l-0.1-0.2l-0.1-0.1l-0.1,0l0,0.2l-0.1,0.1l-0.1,0l-0.1-0.1l-0.1-0.1l-0.1-0.1l-0.1-0.1l-0.1,0
		l0.2-0.1l0,0l0,0l0,0l0.1-0.2l0.2,0l0.3,0v-0.1l-0.1,0l-0.2-0.1v-0.1l0.2-0.1l0.1,0l0.1,0.2l0.1,0l0.2,0l-0.1-0.1l0.1,0l0.4,0.1
		l0.1,0l0.1-0.1l0.1-0.1l0,0.1l0.1,0l0.1,0l0.1-0.1l0-0.1l0-0.1l0-0.1l0-0.1l0.1,0.2l0.1,0.1l0.1,0l0.1-0.1l0-0.1l0-0.1l0-0.1
		l-0.1-0.1l-0.2-0.3l-0.1,0l0,0l0.1,0.1l-0.1,0.1l-0.1-0.1l-0.2-0.3l0.1,0l0.6,0.2l0.1-0.1l0,0l0,0.1l0,0l0,0l0-0.1l0,0l0,0l0,0
		l0.1,0l0.2,0l0.1-0.1l-0.1,0l-0.1,0l-0.1-0.2l-0.1-0.1l-0.1-0.1l-0.3-0.1l-0.3-0.3l-0.5-0.3l-0.3-0.3l-0.1-0.4l0.1,0.1l0.1,0.1
		l0.1,0.1l0.1,0.2l0,0.1l0.1,0.1l0.3,0.1l0.1,0.2l0.2,0.1l0.1,0.1l0.1,0.2l0.3,0.1l0.4,0.3l0.1,0l0-0.1l0.1-0.1l0,0l0.1,0.1l0.1,0
		l0.1,0l0.1,0.1l0.1,0.1l0.1,0.1l0.1-0.1l0-0.2l0-0.1l0,0l-0.2-0.1l-0.1-0.1l0-0.1l0-0.1l0.2-0.2l0-0.1l-0.2-0.1l0-0.1l0-0.1
		l-0.1-0.1l-0.1,0l0,0.1l0,0.1l0.1,0.1l0,0.1l-0.1,0.2l-0.2,0l-0.3-0.1l0.3,0l0.1-0.1l-0.1-0.2l0-0.1l0-0.1l0-0.1l0-0.1l0-0.1l0-0.1
		l0.1-0.1l0.1,0l0.1,0.1l0,0.2l0-0.1l0.1,0l0.1,0l0.1,0l0-0.3l-0.1-0.2l-0.1-0.1l-0.3-0.1l-0.1-0.1l-0.1-0.1l-0.1-0.2l0.1,0l0.2,0.2
		l0.2,0.1l0.1-0.3l-0.1-0.1l-0.1-0.2l0-0.1l0.1,0.1l0.1,0l0-0.1l-0.2-0.3L165,71l0-0.2l0.1,0l0.3,0.1l0,0.1l0,0l0.1,0.1l0.1,0.1
		l0.1,0.1l0,0.1l0,0.1l0,0.1l0,0.1l0,0l0.1-0.2l0.1,0l0.2,0.1l0.1,0.1l0,0.2l0.1,0l0.1-0.1l0-0.1l0-0.1l0-0.2l0-0.1l0-0.1l0-0.1
		l0-0.3l0-0.1l0-0.1l-0.1-0.1l-0.1-0.1l0.1,0l0.1,0l0.5,0.4l0.1,0.2l0.1,0.4l0.1,0.1l0.1,0l0.1,0l0.1,0l0.1,0.2l0,0l0.2,0.1l0.2,0
		l0.1,0.1l0.1,0.3l0,0.2l0.1,0l0.1-0.1l0-0.2l0.1-0.1l0,0l0.3-0.1l0.1-0.1l-0.1-0.1l-0.1-0.1l0-0.1l0-0.2l0.1-0.1l0.1,0l0.1,0
		l0.2,0.2l0.1,0.1l0.1,0l0.1-0.1l0.1-0.1l0.1-0.1l0.1,0l0,0.1l0,0.2l0,0.2l0.1,0.1l0.1,0l0,0l0,0l0-0.1l0-0.1l0-0.1l0-0.1l0,0l0-0.1
		l0,0l0,0l0,0l0-0.1l0,0l0.1,0l0.1,0l0,0l0,0.1l0.2,0.1l0.3,0l0,0l0,0.1l0,0l0.1,0l0.1-0.1l0.1-0.2l0.1,0l0.2,0l0.1,0.1l0,0.2l0,0.1
		l0.1,0l0.2,0l0-0.1l0,0l0,0.1l0,0.1l0,0.1l0,0l0.1,0l0,0l0,0l0,0l0-0.1l0-0.2L171.8,71.4L171.8,71.4z"/>
	<g>
		<g>
			<path class="st1" d="M200.1,38.8c-13.4-0.4-24.5,1.5-38.7,14.7"/>
			<g>
				<path class="st2" d="M161.4,53.5c0.3,0,0.6,0.2,0.7,0.4c-0.4-0.1-0.8-0.1-1.2,0.1c0.2-0.4,0.2-0.8,0.2-1.2
					C161.3,53,161.4,53.2,161.4,53.5z"/>
			</g>
		</g>
	</g>
	<g>
		<path class="st3" d="M213.4,37.2h-0.9l-0.5-1.3h-3l-0.5,1.3h-0.9l2.4-6h0.9L213.4,37.2z M211.8,35.2l-1.3-3.2l-1.3,3.2H211.8z"/>
		<path class="st3" d="M214.8,37.2h-0.7v-6h0.7V37.2z"/>
		<path class="st3" d="M216.8,37.2h-0.7v-6h0.7v2.3c0.4-0.5,0.9-0.8,1.5-0.8c0.6,0,1,0.2,1.4,0.6c0.4,0.4,0.5,1,0.5,1.7
			c0,0.7-0.2,1.2-0.5,1.7c-0.4,0.4-0.8,0.6-1.4,0.6c-0.6,0-1.1-0.3-1.5-0.8V37.2z M216.8,36c0.1,0.2,0.3,0.4,0.5,0.5
			c0.2,0.1,0.5,0.2,0.8,0.2c0.4,0,0.8-0.2,1-0.5c0.3-0.3,0.4-0.7,0.4-1.2s-0.1-0.9-0.4-1.2c-0.3-0.3-0.6-0.5-1-0.5
			c-0.3,0-0.5,0.1-0.8,0.2c-0.2,0.1-0.4,0.3-0.5,0.5V36z"/>
		<path class="st3" d="M224.7,37.2h-0.7v-0.5c-0.4,0.4-0.8,0.6-1.4,0.6c-0.4,0-0.8-0.1-1.1-0.4c-0.3-0.3-0.5-0.6-0.5-1.1
			c0-0.5,0.2-0.8,0.5-1.1c0.3-0.2,0.7-0.4,1.1-0.4c0.6,0,1.1,0.2,1.4,0.6v-0.8c0-0.3-0.1-0.5-0.3-0.7c-0.2-0.2-0.5-0.2-0.8-0.2
			c-0.5,0-1,0.2-1.3,0.6l-0.3-0.5c0.5-0.5,1-0.7,1.7-0.7c0.5,0,0.9,0.1,1.2,0.4s0.5,0.6,0.5,1.1V37.2z M222.9,36.8
			c0.5,0,0.9-0.2,1.2-0.5v-0.8c-0.3-0.4-0.7-0.5-1.2-0.5c-0.3,0-0.6,0.1-0.8,0.3c-0.2,0.2-0.3,0.4-0.3,0.7c0,0.3,0.1,0.5,0.3,0.7
			C222.3,36.7,222.6,36.8,222.9,36.8z"/>
		<path class="st3" d="M229.7,37.2H229v-2.8c0-0.4-0.1-0.6-0.3-0.8c-0.2-0.2-0.4-0.2-0.7-0.2c-0.3,0-0.5,0.1-0.7,0.2
			c-0.2,0.1-0.4,0.3-0.6,0.5v3.2h-0.7v-4.3h0.7v0.6c0.2-0.2,0.4-0.4,0.7-0.5c0.3-0.1,0.6-0.2,0.9-0.2c0.9,0,1.4,0.5,1.4,1.4V37.2z"
			/>
		<path class="st3" d="M231.4,32.2c-0.1,0-0.2,0-0.3-0.1c-0.1-0.1-0.1-0.2-0.1-0.3s0-0.2,0.1-0.3c0.1-0.1,0.2-0.1,0.3-0.1
			c0.1,0,0.2,0,0.3,0.1c0.1,0.1,0.1,0.2,0.1,0.3s0,0.2-0.1,0.3C231.6,32.2,231.5,32.2,231.4,32.2z M231.7,37.2H231v-4.3h0.7V37.2z"
			/>
		<path class="st3" d="M236.5,37.2h-0.7v-0.5c-0.4,0.4-0.8,0.6-1.4,0.6c-0.4,0-0.8-0.1-1.1-0.4c-0.3-0.3-0.5-0.6-0.5-1.1
			c0-0.5,0.2-0.8,0.5-1.1c0.3-0.2,0.7-0.4,1.1-0.4c0.6,0,1.1,0.2,1.4,0.6v-0.8c0-0.3-0.1-0.5-0.3-0.7s-0.5-0.2-0.8-0.2
			c-0.5,0-1,0.2-1.3,0.6l-0.3-0.5c0.5-0.5,1-0.7,1.7-0.7c0.5,0,0.9,0.1,1.2,0.4c0.3,0.2,0.5,0.6,0.5,1.1V37.2z M234.6,36.8
			c0.5,0,0.9-0.2,1.2-0.5v-0.8c-0.3-0.4-0.7-0.5-1.2-0.5c-0.3,0-0.6,0.1-0.8,0.3c-0.2,0.2-0.3,0.4-0.3,0.7c0,0.3,0.1,0.5,0.3,0.7
			C234,36.7,234.3,36.8,234.6,36.8z"/>
	</g>
	<g>
		<path class="st3" d="M212.2,64.6h-3.9v-6h3.9v0.7H209v1.9h3.1v0.7H209v2.1h3.2V64.6z"/>
		<path class="st3" d="M214,64.6h-0.7v-4.3h0.7v0.7c0.4-0.5,0.9-0.8,1.4-0.8v0.7c-0.1,0-0.2,0-0.3,0c-0.2,0-0.4,0.1-0.7,0.2
			c-0.2,0.1-0.4,0.3-0.5,0.5V64.6z"/>
		<path class="st3" d="M216.6,59.6c-0.1,0-0.2,0-0.3-0.1c-0.1-0.1-0.1-0.2-0.1-0.3s0-0.2,0.1-0.3c0.1-0.1,0.2-0.1,0.3-0.1
			c0.1,0,0.2,0,0.3,0.1c0.1,0.1,0.1,0.2,0.1,0.3s0,0.2-0.1,0.3C216.9,59.6,216.8,59.6,216.6,59.6z M217,64.6h-0.7v-4.3h0.7V64.6z"/>
		<path class="st3" d="M219.4,64.7c-0.3,0-0.6-0.1-0.7-0.3c-0.2-0.2-0.2-0.4-0.2-0.8v-2.8h-0.7v-0.6h0.7V59h0.7v1.2h0.9v0.6h-0.9
			v2.7c0,0.2,0,0.3,0.1,0.4c0.1,0.1,0.2,0.2,0.3,0.2c0.2,0,0.4-0.1,0.5-0.2l0.2,0.5C220,64.6,219.8,64.7,219.4,64.7z"/>
		<path class="st3" d="M221.7,64.6H221v-4.3h0.7v0.7c0.4-0.5,0.9-0.8,1.4-0.8v0.7c-0.1,0-0.2,0-0.3,0c-0.2,0-0.4,0.1-0.7,0.2
			c-0.2,0.1-0.4,0.3-0.5,0.5V64.6z"/>
		<path class="st3" d="M225.9,64.7c-0.6,0-1.2-0.2-1.6-0.6s-0.6-1-0.6-1.7c0-0.6,0.2-1.2,0.6-1.6c0.4-0.4,0.9-0.7,1.5-0.7
			c0.6,0,1.2,0.2,1.5,0.7c0.4,0.4,0.6,1,0.6,1.7v0.2h-3.5c0,0.4,0.2,0.8,0.5,1.1c0.3,0.3,0.6,0.4,1.1,0.4c0.5,0,1-0.2,1.3-0.5
			l0.3,0.4C227.2,64.5,226.6,64.7,225.9,64.7z M227.3,62.1c0-0.4-0.1-0.7-0.4-1s-0.6-0.4-1.1-0.4c-0.4,0-0.8,0.1-1,0.4
			c-0.2,0.3-0.4,0.6-0.4,1H227.3z"/>
		<path class="st3" d="M232.4,64.6h-0.7v-0.5c-0.4,0.4-0.8,0.6-1.4,0.6c-0.4,0-0.8-0.1-1.1-0.4c-0.3-0.3-0.5-0.6-0.5-1.1
			c0-0.5,0.2-0.8,0.5-1.1c0.3-0.2,0.7-0.4,1.1-0.4c0.6,0,1.1,0.2,1.4,0.6v-0.8c0-0.3-0.1-0.5-0.3-0.7c-0.2-0.2-0.5-0.2-0.8-0.2
			c-0.5,0-1,0.2-1.3,0.6l-0.3-0.5c0.5-0.5,1-0.7,1.7-0.7c0.5,0,0.9,0.1,1.2,0.4s0.5,0.6,0.5,1.1V64.6z M230.5,64.2
			c0.5,0,0.9-0.2,1.2-0.5v-0.8c-0.3-0.4-0.7-0.5-1.2-0.5c-0.3,0-0.6,0.1-0.8,0.3c-0.2,0.2-0.3,0.4-0.3,0.7c0,0.3,0.1,0.5,0.3,0.7
			C230,64.1,230.2,64.2,230.5,64.2z"/>
	</g>
	<g>
		<path class="st3" d="M210.2,94.4c-1,0-1.7-0.3-2.3-1l0.4-0.6c0.5,0.6,1.1,0.9,1.9,0.9c0.5,0,0.8-0.1,1.1-0.3s0.3-0.4,0.3-0.7
			c0-0.2-0.1-0.4-0.2-0.5c-0.1-0.1-0.3-0.3-0.5-0.3s-0.4-0.2-0.7-0.2s-0.5-0.1-0.8-0.2c-0.3-0.1-0.5-0.2-0.7-0.3
			c-0.2-0.1-0.4-0.3-0.5-0.5c-0.1-0.2-0.2-0.5-0.2-0.7c0-0.5,0.2-0.9,0.6-1.2c0.4-0.3,0.9-0.5,1.5-0.5c0.9,0,1.6,0.3,2.1,0.8
			l-0.5,0.5c-0.4-0.5-1-0.7-1.7-0.7c-0.4,0-0.7,0.1-0.9,0.3s-0.3,0.4-0.3,0.7c0,0.2,0.1,0.4,0.3,0.5c0.2,0.1,0.4,0.2,0.7,0.3
			c0.3,0.1,0.5,0.1,0.9,0.2c0.3,0.1,0.6,0.2,0.9,0.3s0.5,0.3,0.7,0.5c0.2,0.2,0.3,0.5,0.3,0.9c0,0.5-0.2,0.9-0.5,1.3
			C211.5,94.2,210.9,94.4,210.2,94.4z"/>
		<path class="st3" d="M215.5,94.4c-0.6,0-1.2-0.2-1.6-0.6s-0.6-1-0.6-1.7c0-0.6,0.2-1.2,0.6-1.6c0.4-0.4,0.9-0.7,1.5-0.7
			c0.6,0,1.2,0.2,1.5,0.7c0.4,0.4,0.6,1,0.6,1.7v0.2H214c0,0.4,0.2,0.8,0.5,1.1c0.3,0.3,0.6,0.4,1.1,0.4c0.5,0,1-0.2,1.3-0.5
			l0.3,0.4C216.7,94.2,216.2,94.4,215.5,94.4z M216.8,91.9c0-0.4-0.1-0.7-0.4-1s-0.6-0.4-1.1-0.4c-0.4,0-0.8,0.1-1,0.4
			s-0.4,0.6-0.4,1H216.8z"/>
		<path class="st3" d="M219.2,94.3h-0.7V90h0.7v0.7c0.4-0.5,0.9-0.8,1.4-0.8v0.7c-0.1,0-0.2,0-0.3,0c-0.2,0-0.4,0.1-0.7,0.2
			c-0.2,0.1-0.4,0.3-0.5,0.5V94.3z"/>
		<path class="st3" d="M222.2,94.3h-0.7v-6h0.7v2.3c0.4-0.5,0.9-0.8,1.5-0.8c0.6,0,1,0.2,1.4,0.6s0.5,1,0.5,1.7
			c0,0.7-0.2,1.2-0.5,1.7c-0.4,0.4-0.8,0.6-1.4,0.6c-0.6,0-1.1-0.3-1.5-0.8V94.3z M222.2,93.1c0.1,0.2,0.3,0.4,0.5,0.5
			s0.5,0.2,0.8,0.2c0.4,0,0.8-0.2,1-0.5c0.3-0.3,0.4-0.7,0.4-1.2s-0.1-0.9-0.4-1.2c-0.3-0.3-0.6-0.5-1-0.5c-0.3,0-0.5,0.1-0.8,0.2
			s-0.4,0.3-0.5,0.5V93.1z"/>
		<path class="st3" d="M227,89.3c-0.1,0-0.2,0-0.3-0.1c-0.1-0.1-0.1-0.2-0.1-0.3s0-0.2,0.1-0.3c0.1-0.1,0.2-0.1,0.3-0.1
			c0.1,0,0.2,0,0.3,0.1c0.1,0.1,0.1,0.2,0.1,0.3s0,0.2-0.1,0.3C227.3,89.3,227.2,89.3,227,89.3z M227.4,94.3h-0.7V90h0.7V94.3z"/>
		<path class="st3" d="M232.1,94.3h-0.7v-0.5c-0.4,0.4-0.8,0.6-1.4,0.6c-0.4,0-0.8-0.1-1.1-0.4c-0.3-0.3-0.5-0.6-0.5-1.1
			c0-0.5,0.2-0.8,0.5-1.1c0.3-0.2,0.7-0.4,1.1-0.4c0.6,0,1.1,0.2,1.4,0.6v-0.8c0-0.3-0.1-0.5-0.3-0.7c-0.2-0.2-0.5-0.2-0.8-0.2
			c-0.5,0-1,0.2-1.3,0.6l-0.3-0.5c0.5-0.5,1-0.7,1.7-0.7c0.5,0,0.9,0.1,1.2,0.4s0.5,0.6,0.5,1.1V94.3z M230.3,93.9
			c0.5,0,0.9-0.2,1.2-0.5v-0.8c-0.3-0.4-0.7-0.5-1.2-0.5c-0.3,0-0.6,0.1-0.8,0.3c-0.2,0.2-0.3,0.4-0.3,0.7c0,0.3,0.1,0.5,0.3,0.7
			C229.7,93.8,229.9,93.9,230.3,93.9z"/>
	</g>
	<g>
		<path class="st3" d="M212.8,125.2h-0.9l-2.3-2.7l-0.6,0.7v2h-0.7v-6h0.7v3.1l2.7-3.1h0.9l-2.5,2.9L212.8,125.2z"/>
		<path class="st3" d="M216.8,124.7c-0.4,0.4-0.9,0.7-1.6,0.7s-1.2-0.2-1.6-0.7c-0.4-0.4-0.6-1-0.6-1.6c0-0.6,0.2-1.2,0.6-1.6
			c0.4-0.4,0.9-0.7,1.6-0.7s1.2,0.2,1.6,0.7c0.4,0.4,0.6,1,0.6,1.6C217.4,123.7,217.2,124.2,216.8,124.7z M214.2,124.2
			c0.3,0.3,0.6,0.5,1.1,0.5c0.4,0,0.8-0.2,1.1-0.5s0.4-0.7,0.4-1.2c0-0.5-0.1-0.9-0.4-1.2s-0.6-0.5-1.1-0.5c-0.4,0-0.8,0.2-1.1,0.5
			c-0.3,0.3-0.4,0.7-0.4,1.2C213.8,123.5,213.9,123.9,214.2,124.2z"/>
		<path class="st3" d="M219.8,125.3c-0.7,0-1.3-0.2-1.8-0.7l0.4-0.5c0.1,0.2,0.4,0.3,0.6,0.4s0.5,0.2,0.8,0.2c0.3,0,0.6-0.1,0.8-0.2
			c0.2-0.1,0.3-0.3,0.3-0.5c0-0.2-0.1-0.3-0.3-0.5c-0.2-0.1-0.4-0.2-0.7-0.3s-0.5-0.1-0.8-0.2c-0.3-0.1-0.5-0.2-0.7-0.4
			c-0.2-0.2-0.3-0.4-0.3-0.7c0-0.4,0.1-0.7,0.4-0.9s0.7-0.4,1.2-0.4c0.7,0,1.2,0.2,1.6,0.6l-0.3,0.5c-0.3-0.4-0.7-0.5-1.3-0.5
			c-0.3,0-0.5,0.1-0.7,0.2s-0.3,0.3-0.3,0.5c0,0.2,0.1,0.3,0.3,0.4c0.2,0.1,0.4,0.2,0.7,0.2c0.3,0.1,0.5,0.1,0.8,0.2
			c0.3,0.1,0.5,0.2,0.7,0.4c0.2,0.2,0.3,0.4,0.3,0.8c0,0.4-0.2,0.7-0.4,0.9C220.8,125.2,220.4,125.3,219.8,125.3z"/>
		<path class="st3" d="M226.1,124.7c-0.4,0.4-0.9,0.7-1.6,0.7c-0.6,0-1.2-0.2-1.6-0.7s-0.6-1-0.6-1.6c0-0.6,0.2-1.2,0.6-1.6
			c0.4-0.4,0.9-0.7,1.6-0.7c0.6,0,1.2,0.2,1.6,0.7c0.4,0.4,0.6,1,0.6,1.6C226.7,123.7,226.5,124.2,226.1,124.7z M223.5,124.2
			c0.3,0.3,0.6,0.5,1.1,0.5c0.4,0,0.8-0.2,1.1-0.5s0.4-0.7,0.4-1.2c0-0.5-0.1-0.9-0.4-1.2s-0.6-0.5-1.1-0.5c-0.4,0-0.8,0.2-1.1,0.5
			c-0.3,0.3-0.4,0.7-0.4,1.2C223.1,123.5,223.2,123.9,223.5,124.2z"/>
		<path class="st3" d="M229.7,125.2H229l-1.8-4.3h0.7l1.4,3.6l1.4-3.6h0.7L229.7,125.2z"/>
		<path class="st3" d="M235.7,124.7c-0.4,0.4-0.9,0.7-1.6,0.7s-1.2-0.2-1.6-0.7c-0.4-0.4-0.6-1-0.6-1.6c0-0.6,0.2-1.2,0.6-1.6
			c0.4-0.4,0.9-0.7,1.6-0.7s1.2,0.2,1.6,0.7c0.4,0.4,0.6,1,0.6,1.6C236.3,123.7,236.1,124.2,235.7,124.7z M233.1,124.2
			c0.3,0.3,0.6,0.5,1.1,0.5c0.4,0,0.8-0.2,1.1-0.5s0.4-0.7,0.4-1.2c0-0.5-0.1-0.9-0.4-1.2s-0.6-0.5-1.1-0.5c-0.4,0-0.8,0.2-1.1,0.5
			c-0.3,0.3-0.4,0.7-0.4,1.2C232.7,123.5,232.8,123.9,233.1,124.2z"/>
	</g>
	<g>
		<path class="st3" d="M42.2,35.4c-1,0-1.7-0.3-2.3-1l0.4-0.6c0.5,0.6,1.1,0.9,1.9,0.9c0.5,0,0.8-0.1,1.1-0.3
			c0.2-0.2,0.3-0.4,0.3-0.7c0-0.2-0.1-0.4-0.2-0.5c-0.1-0.1-0.3-0.3-0.5-0.3s-0.4-0.2-0.7-0.2c-0.3-0.1-0.5-0.1-0.8-0.2
			c-0.3-0.1-0.5-0.2-0.7-0.3c-0.2-0.1-0.4-0.3-0.5-0.5s-0.2-0.5-0.2-0.7c0-0.5,0.2-0.9,0.6-1.2c0.4-0.3,0.9-0.5,1.5-0.5
			c0.9,0,1.6,0.3,2.1,0.8l-0.5,0.5c-0.4-0.5-1-0.7-1.7-0.7c-0.4,0-0.7,0.1-0.9,0.3c-0.2,0.2-0.3,0.4-0.3,0.7c0,0.2,0.1,0.4,0.3,0.5
			c0.2,0.1,0.4,0.2,0.7,0.3c0.3,0.1,0.5,0.1,0.9,0.2c0.3,0.1,0.6,0.2,0.9,0.3c0.3,0.1,0.5,0.3,0.7,0.5c0.2,0.2,0.3,0.5,0.3,0.9
			c0,0.5-0.2,0.9-0.5,1.3C43.5,35.2,43,35.4,42.2,35.4z"/>
		<path class="st3" d="M49,34.7c-0.4,0.4-0.9,0.7-1.6,0.7c-0.6,0-1.2-0.2-1.6-0.7c-0.4-0.4-0.6-1-0.6-1.6s0.2-1.2,0.6-1.6
			c0.4-0.4,0.9-0.7,1.6-0.7c0.6,0,1.2,0.2,1.6,0.7c0.4,0.4,0.6,1,0.6,1.6S49.4,34.3,49,34.7z M46.4,34.3c0.3,0.3,0.6,0.5,1.1,0.5
			s0.8-0.2,1.1-0.5s0.4-0.7,0.4-1.2s-0.1-0.9-0.4-1.2c-0.3-0.3-0.6-0.5-1.1-0.5s-0.8,0.2-1.1,0.5c-0.3,0.3-0.4,0.7-0.4,1.2
			C46,33.5,46.1,33.9,46.4,34.3z"/>
		<path class="st3" d="M56.6,35.3h-0.7v-3c0-0.6-0.3-0.9-0.8-0.9c-0.2,0-0.4,0.1-0.6,0.2c-0.2,0.1-0.4,0.3-0.5,0.5v3.2h-0.7v-3
			c0-0.6-0.3-0.9-0.8-0.9c-0.2,0-0.4,0.1-0.6,0.2c-0.2,0.1-0.4,0.3-0.5,0.5v3.2h-0.7v-4.3h0.7v0.6c0.1-0.2,0.3-0.3,0.6-0.5
			c0.3-0.2,0.5-0.2,0.8-0.2c0.3,0,0.6,0.1,0.8,0.2c0.2,0.1,0.3,0.3,0.4,0.6c0.1-0.2,0.3-0.4,0.6-0.6s0.6-0.2,0.9-0.2
			c0.8,0,1.2,0.4,1.2,1.3V35.3z"/>
		<path class="st3" d="M61.3,35.3h-0.7v-0.5c-0.4,0.4-0.8,0.6-1.4,0.6c-0.4,0-0.8-0.1-1.1-0.4c-0.3-0.3-0.5-0.6-0.5-1.1
			c0-0.5,0.2-0.8,0.5-1.1c0.3-0.2,0.7-0.4,1.1-0.4c0.6,0,1.1,0.2,1.4,0.6v-0.8c0-0.3-0.1-0.5-0.3-0.7s-0.5-0.2-0.8-0.2
			c-0.5,0-1,0.2-1.3,0.6l-0.3-0.5c0.5-0.5,1-0.7,1.7-0.7c0.5,0,0.9,0.1,1.2,0.4c0.3,0.2,0.5,0.6,0.5,1.1V35.3z M59.5,34.9
			c0.5,0,0.9-0.2,1.2-0.5v-0.8C60.4,33.2,60,33,59.5,33c-0.3,0-0.6,0.1-0.8,0.3c-0.2,0.2-0.3,0.4-0.3,0.7c0,0.3,0.1,0.5,0.3,0.7
			C58.9,34.8,59.1,34.9,59.5,34.9z"/>
		<path class="st3" d="M63.4,35.3h-0.7v-6h0.7V35.3z"/>
		<path class="st3" d="M65,30.3c-0.1,0-0.2,0-0.3-0.1c-0.1-0.1-0.1-0.2-0.1-0.3s0-0.2,0.1-0.3c0.1-0.1,0.2-0.1,0.3-0.1
			c0.1,0,0.2,0,0.3,0.1c0.1,0.1,0.1,0.2,0.1,0.3s0,0.2-0.1,0.3C65.3,30.2,65.2,30.3,65,30.3z M65.4,35.3h-0.7v-4.3h0.7V35.3z"/>
		<path class="st3" d="M70.1,35.3h-0.7v-0.5c-0.4,0.4-0.8,0.6-1.4,0.6c-0.4,0-0.8-0.1-1.1-0.4c-0.3-0.3-0.5-0.6-0.5-1.1
			c0-0.5,0.2-0.8,0.5-1.1c0.3-0.2,0.7-0.4,1.1-0.4c0.6,0,1.1,0.2,1.4,0.6v-0.8c0-0.3-0.1-0.5-0.3-0.7s-0.5-0.2-0.8-0.2
			c-0.5,0-1,0.2-1.3,0.6l-0.3-0.5c0.5-0.5,1-0.7,1.7-0.7c0.5,0,0.9,0.1,1.2,0.4c0.3,0.2,0.5,0.6,0.5,1.1V35.3z M68.2,34.9
			c0.5,0,0.9-0.2,1.2-0.5v-0.8c-0.3-0.4-0.7-0.5-1.2-0.5c-0.3,0-0.6,0.1-0.8,0.3c-0.2,0.2-0.3,0.4-0.3,0.7c0,0.3,0.1,0.5,0.3,0.7
			C67.7,34.8,67.9,34.9,68.2,34.9z"/>
	</g>
	<g>
		<path class="st3" d="M143.5,17.1h-0.7v-6h0.7V17.1z"/>
		<path class="st3" d="M145.6,17.1h-0.7v-4.3h0.7v0.7c0.4-0.5,0.9-0.8,1.4-0.8v0.7c-0.1,0-0.2,0-0.3,0c-0.2,0-0.4,0.1-0.7,0.2
			c-0.2,0.1-0.4,0.3-0.5,0.5V17.1z"/>
		<path class="st3" d="M151.3,17.1h-0.7v-0.5c-0.4,0.4-0.8,0.6-1.4,0.6c-0.4,0-0.8-0.1-1.1-0.4c-0.3-0.3-0.5-0.6-0.5-1.1
			c0-0.5,0.2-0.8,0.5-1.1c0.3-0.2,0.7-0.4,1.1-0.4c0.6,0,1.1,0.2,1.4,0.6v-0.8c0-0.3-0.1-0.5-0.3-0.7c-0.2-0.2-0.5-0.2-0.8-0.2
			c-0.5,0-1,0.2-1.3,0.6l-0.3-0.5c0.5-0.5,1-0.7,1.7-0.7c0.5,0,0.9,0.1,1.2,0.4s0.5,0.6,0.5,1.1V17.1z M149.4,16.7
			c0.5,0,0.9-0.2,1.2-0.5v-0.8c-0.3-0.4-0.7-0.5-1.2-0.5c-0.3,0-0.6,0.1-0.8,0.3c-0.2,0.2-0.3,0.4-0.3,0.7c0,0.3,0.1,0.5,0.3,0.7
			C148.8,16.7,149.1,16.7,149.4,16.7z"/>
		<path class="st3" d="M154.3,17.2c-0.6,0-1-0.2-1.4-0.6c-0.4-0.4-0.5-1-0.5-1.7s0.2-1.2,0.5-1.7c0.4-0.4,0.8-0.6,1.4-0.6
			c0.3,0,0.6,0.1,0.8,0.2c0.3,0.1,0.5,0.3,0.6,0.5v-0.6h0.7v6h-0.7v-2.3C155.4,17,154.9,17.2,154.3,17.2z M154.5,16.6
			c0.3,0,0.5-0.1,0.8-0.2s0.4-0.3,0.5-0.5v-2c-0.1-0.2-0.3-0.4-0.5-0.5s-0.5-0.2-0.8-0.2c-0.4,0-0.8,0.2-1,0.5
			c-0.2,0.3-0.4,0.7-0.4,1.2s0.1,0.9,0.4,1.2C153.7,16.5,154,16.6,154.5,16.6z"/>
	</g>
	<g>
		<path class="st3" d="M54.1,150.3c-1,0-1.7-0.3-2.3-1l0.4-0.6c0.5,0.6,1.1,0.9,1.9,0.9c0.5,0,0.8-0.1,1.1-0.3s0.3-0.4,0.3-0.7
			c0-0.2-0.1-0.4-0.2-0.5c-0.1-0.1-0.3-0.3-0.5-0.3s-0.4-0.2-0.7-0.2c-0.3-0.1-0.5-0.1-0.8-0.2c-0.3-0.1-0.5-0.2-0.7-0.3
			s-0.4-0.3-0.5-0.5c-0.1-0.2-0.2-0.5-0.2-0.7c0-0.5,0.2-0.9,0.6-1.2c0.4-0.3,0.9-0.5,1.5-0.5c0.9,0,1.6,0.3,2.1,0.8l-0.5,0.5
			c-0.4-0.5-1-0.7-1.7-0.7c-0.4,0-0.7,0.1-0.9,0.3c-0.2,0.2-0.3,0.4-0.3,0.7c0,0.2,0.1,0.4,0.3,0.5s0.4,0.2,0.7,0.3
			c0.3,0.1,0.5,0.1,0.9,0.2c0.3,0.1,0.6,0.2,0.9,0.3c0.3,0.1,0.5,0.3,0.7,0.5c0.2,0.2,0.3,0.5,0.3,0.9c0,0.5-0.2,0.9-0.5,1.3
			S54.8,150.3,54.1,150.3z"/>
		<path class="st3" d="M57.1,151.9l0.1-0.6c0.1,0,0.2,0.1,0.4,0.1c0.2,0,0.3,0,0.4-0.1c0.1-0.1,0.2-0.2,0.3-0.4l0.3-0.7l-1.8-4.4
			h0.7l1.4,3.6l1.4-3.6H61l-2.2,5.2c-0.2,0.6-0.7,0.9-1.3,0.9C57.4,152,57.2,152,57.1,151.9z"/>
		<path class="st3" d="M62.4,150.2h-0.7v-4.3h0.7v0.7c0.4-0.5,0.9-0.8,1.4-0.8v0.7c-0.1,0-0.2,0-0.3,0c-0.2,0-0.4,0.1-0.7,0.2
			c-0.2,0.1-0.4,0.3-0.5,0.5V150.2z"/>
		<path class="st3" d="M65,145.3c-0.1,0-0.2,0-0.3-0.1c-0.1-0.1-0.1-0.2-0.1-0.3s0-0.2,0.1-0.3c0.1-0.1,0.2-0.1,0.3-0.1
			c0.1,0,0.2,0,0.3,0.1s0.1,0.2,0.1,0.3s0,0.2-0.1,0.3S65.2,145.3,65,145.3z M65.4,150.2h-0.7v-4.3h0.7V150.2z"/>
		<path class="st3" d="M70.1,150.2h-0.7v-0.5c-0.4,0.4-0.8,0.6-1.4,0.6c-0.4,0-0.8-0.1-1.1-0.4s-0.5-0.6-0.5-1.1
			c0-0.5,0.2-0.8,0.5-1.1s0.7-0.4,1.1-0.4c0.6,0,1.1,0.2,1.4,0.6v-0.8c0-0.3-0.1-0.5-0.3-0.7c-0.2-0.2-0.5-0.2-0.8-0.2
			c-0.5,0-1,0.2-1.3,0.6l-0.3-0.5c0.5-0.5,1-0.7,1.7-0.7c0.5,0,0.9,0.1,1.2,0.4c0.3,0.2,0.5,0.6,0.5,1.1V150.2z M68.2,149.9
			c0.5,0,0.9-0.2,1.2-0.5v-0.8c-0.3-0.4-0.7-0.5-1.2-0.5c-0.3,0-0.6,0.1-0.8,0.3c-0.2,0.2-0.3,0.4-0.3,0.7c0,0.3,0.1,0.5,0.3,0.7
			C67.7,149.8,67.9,149.9,68.2,149.9z"/>
	</g>
	<g>
		<path class="st3" d="M29.9,64.1H29l-0.5-1.3h-3l-0.5,1.3h-0.9l2.4-6h0.9L29.9,64.1z M28.2,62.1L27,58.9l-1.3,3.2H28.2z"/>
		<path class="st3" d="M31.4,64.1h-0.7v-3.8H30v-0.6h0.7v-0.3c0-0.4,0.1-0.8,0.3-1c0.2-0.2,0.5-0.4,0.9-0.4c0.4,0,0.7,0.1,0.9,0.3
			l-0.3,0.4c-0.2-0.1-0.3-0.2-0.5-0.2c-0.2,0-0.4,0.1-0.5,0.2c-0.1,0.1-0.2,0.4-0.2,0.6v0.3h0.9v0.6h-0.9V64.1z"/>
		<path class="st3" d="M34.8,65.9c-0.4,0-0.7,0-1-0.1s-0.5-0.3-0.8-0.5l0.3-0.5c0.3,0.4,0.8,0.6,1.4,0.6c0.4,0,0.7-0.1,1-0.3
			c0.3-0.2,0.4-0.5,0.4-1v-0.6c-0.2,0.2-0.4,0.4-0.6,0.6c-0.3,0.1-0.5,0.2-0.8,0.2c-0.6,0-1-0.2-1.4-0.6s-0.5-1-0.5-1.6
			c0-0.7,0.2-1.2,0.5-1.6c0.4-0.4,0.8-0.6,1.4-0.6c0.6,0,1.1,0.3,1.5,0.8v-0.7h0.7V64c0,0.7-0.2,1.1-0.6,1.4
			C35.9,65.7,35.4,65.9,34.8,65.9z M34.9,63.6c0.3,0,0.5-0.1,0.8-0.2c0.2-0.1,0.4-0.3,0.5-0.5V61c-0.1-0.2-0.3-0.4-0.5-0.5
			c-0.2-0.1-0.5-0.2-0.8-0.2c-0.4,0-0.8,0.2-1,0.5c-0.2,0.3-0.4,0.7-0.4,1.2c0,0.5,0.1,0.9,0.4,1.2C34.2,63.4,34.5,63.6,34.9,63.6z"
			/>
		<path class="st3" d="M41.9,64.1h-0.7v-2.9c0-0.4-0.1-0.6-0.3-0.8c-0.2-0.2-0.4-0.2-0.7-0.2c-0.2,0-0.5,0.1-0.7,0.2
			s-0.4,0.3-0.6,0.5v3.2h-0.7v-6h0.7v2.3c0.2-0.2,0.4-0.4,0.7-0.5c0.3-0.1,0.6-0.2,0.9-0.2c0.9,0,1.4,0.5,1.4,1.4V64.1z"/>
		<path class="st3" d="M46.6,64.1h-0.7v-0.5c-0.4,0.4-0.8,0.6-1.4,0.6c-0.4,0-0.8-0.1-1.1-0.4c-0.3-0.3-0.5-0.6-0.5-1.1
			c0-0.5,0.2-0.8,0.5-1.1c0.3-0.2,0.7-0.4,1.1-0.4c0.6,0,1.1,0.2,1.4,0.6v-0.8c0-0.3-0.1-0.5-0.3-0.7c-0.2-0.2-0.5-0.2-0.8-0.2
			c-0.5,0-1,0.2-1.3,0.6l-0.3-0.5c0.5-0.5,1-0.7,1.7-0.7c0.5,0,0.9,0.1,1.2,0.4c0.3,0.2,0.5,0.6,0.5,1.1V64.1z M44.7,63.7
			c0.5,0,0.9-0.2,1.2-0.5v-0.8c-0.3-0.4-0.7-0.5-1.2-0.5c-0.3,0-0.6,0.1-0.8,0.3s-0.3,0.4-0.3,0.7c0,0.3,0.1,0.5,0.3,0.7
			S44.4,63.7,44.7,63.7z"/>
		<path class="st3" d="M51.6,64.1h-0.7v-2.8c0-0.4-0.1-0.6-0.3-0.8c-0.2-0.2-0.4-0.2-0.7-0.2c-0.3,0-0.5,0.1-0.7,0.2
			c-0.2,0.1-0.4,0.3-0.6,0.5v3.2H48v-4.3h0.7v0.6c0.2-0.2,0.4-0.4,0.7-0.5c0.3-0.1,0.6-0.2,0.9-0.2c0.9,0,1.4,0.5,1.4,1.4V64.1z"/>
		<path class="st3" d="M53.2,59.2c-0.1,0-0.2,0-0.3-0.1s-0.1-0.2-0.1-0.3s0-0.2,0.1-0.3s0.2-0.1,0.3-0.1c0.1,0,0.2,0,0.3,0.1
			s0.1,0.2,0.1,0.3s0,0.2-0.1,0.3S53.4,59.2,53.2,59.2z M53.6,64.1h-0.7v-4.3h0.7V64.1z"/>
		<path class="st3" d="M56.3,64.2c-0.7,0-1.3-0.2-1.8-0.7l0.4-0.5c0.1,0.2,0.4,0.3,0.6,0.4s0.5,0.2,0.8,0.2c0.3,0,0.6-0.1,0.8-0.2
			c0.2-0.1,0.3-0.3,0.3-0.5c0-0.2-0.1-0.3-0.3-0.5s-0.4-0.2-0.7-0.3c-0.3-0.1-0.5-0.1-0.8-0.2c-0.3-0.1-0.5-0.2-0.7-0.4
			c-0.2-0.2-0.3-0.4-0.3-0.7c0-0.4,0.1-0.7,0.4-0.9c0.3-0.2,0.7-0.4,1.2-0.4c0.7,0,1.2,0.2,1.6,0.6l-0.3,0.5
			c-0.3-0.4-0.7-0.5-1.3-0.5c-0.3,0-0.5,0.1-0.7,0.2s-0.3,0.3-0.3,0.5c0,0.2,0.1,0.3,0.3,0.4c0.2,0.1,0.4,0.2,0.7,0.2
			c0.3,0.1,0.5,0.1,0.8,0.2c0.3,0.1,0.5,0.2,0.7,0.4c0.2,0.2,0.3,0.4,0.3,0.8c0,0.4-0.2,0.7-0.4,0.9C57.3,64.1,56.9,64.2,56.3,64.2z
			"/>
		<path class="st3" d="M60.2,64.2c-0.3,0-0.6-0.1-0.7-0.3s-0.2-0.4-0.2-0.8v-2.8h-0.7v-0.6h0.7v-1.2h0.7v1.2h0.9v0.6h-0.9v2.7
			c0,0.2,0,0.3,0.1,0.4c0.1,0.1,0.2,0.2,0.3,0.2c0.2,0,0.4-0.1,0.5-0.2L61,64C60.8,64.1,60.6,64.2,60.2,64.2z"/>
		<path class="st3" d="M65.2,64.1h-0.7v-0.5c-0.4,0.4-0.8,0.6-1.4,0.6c-0.4,0-0.8-0.1-1.1-0.4c-0.3-0.3-0.5-0.6-0.5-1.1
			c0-0.5,0.2-0.8,0.5-1.1c0.3-0.2,0.7-0.4,1.1-0.4c0.6,0,1.1,0.2,1.4,0.6v-0.8c0-0.3-0.1-0.5-0.3-0.7s-0.5-0.2-0.8-0.2
			c-0.5,0-1,0.2-1.3,0.6l-0.3-0.5c0.5-0.5,1-0.7,1.7-0.7c0.5,0,0.9,0.1,1.2,0.4c0.3,0.2,0.5,0.6,0.5,1.1V64.1z M63.3,63.7
			c0.5,0,0.9-0.2,1.2-0.5v-0.8c-0.3-0.4-0.7-0.5-1.2-0.5c-0.3,0-0.6,0.1-0.8,0.3s-0.3,0.4-0.3,0.7c0,0.3,0.1,0.5,0.3,0.7
			S63,63.7,63.3,63.7z"/>
		<path class="st3" d="M70.1,64.1h-0.7v-2.8c0-0.4-0.1-0.6-0.3-0.8c-0.2-0.2-0.4-0.2-0.7-0.2c-0.3,0-0.5,0.1-0.7,0.2
			s-0.4,0.3-0.6,0.5v3.2h-0.7v-4.3h0.7v0.6c0.2-0.2,0.4-0.4,0.7-0.5c0.3-0.1,0.6-0.2,0.9-0.2c0.9,0,1.4,0.5,1.4,1.4V64.1z"/>
	</g>
	<g>
		<path class="st3" d="M57.4,94.3h-0.7v-6h0.7V94.3z"/>
		<path class="st3" d="M59.5,94.3h-0.7V90h0.7v0.7c0.4-0.5,0.9-0.8,1.4-0.8v0.7c-0.1,0-0.2,0-0.3,0c-0.2,0-0.4,0.1-0.7,0.2
			c-0.2,0.1-0.4,0.3-0.5,0.5V94.3z"/>
		<path class="st3" d="M65.2,94.3h-0.7v-0.5c-0.4,0.4-0.8,0.6-1.4,0.6c-0.4,0-0.8-0.1-1.1-0.4c-0.3-0.3-0.5-0.6-0.5-1.1
			c0-0.5,0.2-0.8,0.5-1.1c0.3-0.2,0.7-0.4,1.1-0.4c0.6,0,1.1,0.2,1.4,0.6v-0.8c0-0.3-0.1-0.5-0.3-0.7c-0.2-0.2-0.5-0.2-0.8-0.2
			c-0.5,0-1,0.2-1.3,0.6l-0.3-0.5c0.5-0.5,1-0.7,1.7-0.7c0.5,0,0.9,0.1,1.2,0.4s0.5,0.6,0.5,1.1V94.3z M63.3,93.9
			c0.5,0,0.9-0.2,1.2-0.5v-0.8c-0.3-0.4-0.7-0.5-1.2-0.5c-0.3,0-0.6,0.1-0.8,0.3c-0.2,0.2-0.3,0.4-0.3,0.7c0,0.3,0.1,0.5,0.3,0.7
			C62.7,93.8,63,93.9,63.3,93.9z"/>
		<path class="st3" d="M70.1,94.3h-0.7v-2.8c0-0.4-0.1-0.6-0.3-0.8c-0.2-0.2-0.4-0.2-0.7-0.2c-0.3,0-0.5,0.1-0.7,0.2
			c-0.2,0.1-0.4,0.3-0.6,0.5v3.2h-0.7V90h0.7v0.6c0.2-0.2,0.4-0.4,0.7-0.5c0.3-0.1,0.6-0.2,0.9-0.2c0.9,0,1.4,0.5,1.4,1.4V94.3z"/>
	</g>
	<g>
		<path class="st3" d="M37.8,122.2c-1,0-1.7-0.3-2.3-1l0.4-0.6c0.5,0.6,1.1,0.9,1.9,0.9c0.5,0,0.8-0.1,1.1-0.3
			c0.2-0.2,0.3-0.4,0.3-0.7c0-0.2-0.1-0.4-0.2-0.5c-0.1-0.1-0.3-0.3-0.5-0.3s-0.4-0.2-0.7-0.2c-0.3-0.1-0.5-0.1-0.8-0.2
			c-0.3-0.1-0.5-0.2-0.7-0.3s-0.4-0.3-0.5-0.5c-0.1-0.2-0.2-0.5-0.2-0.7c0-0.5,0.2-0.9,0.6-1.2c0.4-0.3,0.9-0.5,1.5-0.5
			c0.9,0,1.6,0.3,2.1,0.8l-0.5,0.5c-0.4-0.5-1-0.7-1.7-0.7c-0.4,0-0.7,0.1-0.9,0.3c-0.2,0.2-0.3,0.4-0.3,0.7c0,0.2,0.1,0.4,0.3,0.5
			c0.2,0.1,0.4,0.2,0.7,0.3c0.3,0.1,0.5,0.1,0.9,0.2c0.3,0.1,0.6,0.2,0.9,0.3c0.3,0.1,0.5,0.3,0.7,0.5c0.2,0.2,0.3,0.5,0.3,0.9
			c0,0.5-0.2,0.9-0.5,1.3C39.1,122,38.5,122.2,37.8,122.2z"/>
		<path class="st3" d="M42,122.2c-0.3,0-0.6-0.1-0.7-0.3c-0.2-0.2-0.2-0.4-0.2-0.8v-2.8h-0.7v-0.6H41v-1.2h0.7v1.2h0.9v0.6h-0.9v2.7
			c0,0.2,0,0.3,0.1,0.4c0.1,0.1,0.2,0.2,0.3,0.2c0.2,0,0.4-0.1,0.5-0.2l0.2,0.5C42.6,122.1,42.3,122.2,42,122.2z"/>
		<path class="st3" d="M46.9,122.1h-0.7v-0.5c-0.4,0.4-0.8,0.6-1.4,0.6c-0.4,0-0.8-0.1-1.1-0.4c-0.3-0.3-0.5-0.6-0.5-1.1
			c0-0.5,0.2-0.8,0.5-1.1s0.7-0.4,1.1-0.4c0.6,0,1.1,0.2,1.4,0.6v-0.8c0-0.3-0.1-0.5-0.3-0.7s-0.5-0.2-0.8-0.2c-0.5,0-1,0.2-1.3,0.6
			l-0.3-0.5c0.5-0.5,1-0.7,1.7-0.7c0.5,0,0.9,0.1,1.2,0.4c0.3,0.2,0.5,0.6,0.5,1.1V122.1z M45.1,121.7c0.5,0,0.9-0.2,1.2-0.5v-0.8
			c-0.3-0.4-0.7-0.5-1.2-0.5c-0.3,0-0.6,0.1-0.8,0.3c-0.2,0.2-0.3,0.4-0.3,0.7c0,0.3,0.1,0.5,0.3,0.7
			C44.5,121.6,44.8,121.7,45.1,121.7z"/>
		<path class="st3" d="M49.4,122.2c-0.3,0-0.6-0.1-0.7-0.3c-0.2-0.2-0.2-0.4-0.2-0.8v-2.8h-0.7v-0.6h0.7v-1.2h0.7v1.2H50v0.6h-0.9
			v2.7c0,0.2,0,0.3,0.1,0.4c0.1,0.1,0.2,0.2,0.3,0.2c0.2,0,0.4-0.1,0.5-0.2l0.2,0.5C50,122.1,49.7,122.2,49.4,122.2z"/>
		<path class="st3" d="M52.9,122.2c-0.6,0-1.2-0.2-1.6-0.6c-0.4-0.4-0.6-1-0.6-1.7c0-0.6,0.2-1.2,0.6-1.6c0.4-0.4,0.9-0.7,1.5-0.7
			c0.6,0,1.2,0.2,1.5,0.7c0.4,0.4,0.6,1,0.6,1.7v0.2h-3.5c0,0.4,0.2,0.8,0.5,1.1c0.3,0.3,0.6,0.4,1.1,0.4c0.5,0,1-0.2,1.3-0.5
			l0.3,0.4C54.2,122,53.6,122.2,52.9,122.2z M54.3,119.6c0-0.4-0.1-0.7-0.4-1c-0.2-0.3-0.6-0.4-1.1-0.4c-0.4,0-0.8,0.1-1,0.4
			c-0.2,0.3-0.4,0.6-0.4,1H54.3z"/>
		<path class="st3" d="M56.7,122.1H56v-6h0.7V122.1z"/>
		<path class="st3" d="M60,122.2c-0.6,0-1.2-0.2-1.6-0.6c-0.4-0.4-0.6-1-0.6-1.7c0-0.6,0.2-1.2,0.6-1.6c0.4-0.4,0.9-0.7,1.5-0.7
			c0.6,0,1.2,0.2,1.5,0.7c0.4,0.4,0.6,1,0.6,1.7v0.2h-3.5c0,0.4,0.2,0.8,0.5,1.1c0.3,0.3,0.6,0.4,1.1,0.4c0.5,0,1-0.2,1.3-0.5
			l0.3,0.4C61.3,122,60.7,122.2,60,122.2z M61.3,119.6c0-0.4-0.1-0.7-0.4-1c-0.2-0.3-0.6-0.4-1.1-0.4c-0.4,0-0.8,0.1-1,0.4
			c-0.2,0.3-0.4,0.6-0.4,1H61.3z"/>
		<path class="st3" d="M64.5,122.2c-0.7,0-1.3-0.2-1.8-0.7l0.4-0.5c0.2,0.2,0.4,0.3,0.6,0.4c0.3,0.1,0.5,0.2,0.8,0.2
			c0.3,0,0.6-0.1,0.8-0.2c0.2-0.1,0.3-0.3,0.3-0.5c0-0.2-0.1-0.3-0.3-0.5c-0.2-0.1-0.4-0.2-0.7-0.3c-0.3-0.1-0.5-0.1-0.8-0.2
			s-0.5-0.2-0.7-0.4c-0.2-0.2-0.3-0.4-0.3-0.7c0-0.4,0.1-0.7,0.4-0.9c0.3-0.2,0.7-0.4,1.2-0.4c0.7,0,1.2,0.2,1.6,0.6l-0.3,0.5
			c-0.3-0.4-0.7-0.5-1.3-0.5c-0.3,0-0.5,0.1-0.7,0.2c-0.2,0.1-0.3,0.3-0.3,0.5c0,0.2,0.1,0.3,0.3,0.4c0.2,0.1,0.4,0.2,0.7,0.2
			c0.3,0.1,0.5,0.1,0.8,0.2s0.5,0.2,0.7,0.4c0.2,0.2,0.3,0.4,0.3,0.8c0,0.4-0.2,0.7-0.5,0.9C65.4,122.1,65,122.2,64.5,122.2z"/>
		<path class="st3" d="M68.7,122.2c-0.7,0-1.3-0.2-1.8-0.7l0.4-0.5c0.2,0.2,0.4,0.3,0.6,0.4c0.3,0.1,0.5,0.2,0.8,0.2
			c0.3,0,0.6-0.1,0.8-0.2c0.2-0.1,0.3-0.3,0.3-0.5c0-0.2-0.1-0.3-0.3-0.5s-0.4-0.2-0.7-0.3c-0.3-0.1-0.5-0.1-0.8-0.2
			c-0.3-0.1-0.5-0.2-0.7-0.4c-0.2-0.2-0.3-0.4-0.3-0.7c0-0.4,0.1-0.7,0.4-0.9c0.3-0.2,0.7-0.4,1.2-0.4c0.7,0,1.2,0.2,1.6,0.6
			l-0.3,0.5c-0.3-0.4-0.7-0.5-1.3-0.5c-0.3,0-0.5,0.1-0.7,0.2s-0.3,0.3-0.3,0.5c0,0.2,0.1,0.3,0.3,0.4c0.2,0.1,0.4,0.2,0.7,0.2
			c0.3,0.1,0.5,0.1,0.8,0.2s0.5,0.2,0.7,0.4s0.3,0.4,0.3,0.8c0,0.4-0.2,0.7-0.5,0.9C69.6,122.1,69.2,122.2,68.7,122.2z"/>
	</g>
	<g>
		<path class="st0" d="M211.1,50.9h-1.5v-6.4l-1.4,1.4l-0.9-0.9l2.4-2.4h1.3V50.9z"/>
		<path class="st0" d="M215.1,50.9h-1.6l3.1-7h-4.3v-1.3h6v1L215.1,50.9z"/>
		<path class="st0" d="M224,50.7c-0.4,0.2-0.9,0.4-1.5,0.4s-1.1-0.1-1.5-0.4s-0.8-0.6-1-1c-0.3-0.4-0.5-0.9-0.6-1.4
			c-0.1-0.5-0.2-1-0.2-1.6c0-0.5,0.1-1.1,0.2-1.6c0.1-0.5,0.3-1,0.6-1.4c0.3-0.4,0.6-0.7,1-1s0.9-0.4,1.5-0.4s1.1,0.1,1.5,0.4
			s0.8,0.6,1.1,1c0.3,0.4,0.5,0.9,0.6,1.4s0.2,1,0.2,1.6c0,0.5-0.1,1.1-0.2,1.6s-0.3,1-0.6,1.4C224.7,50.1,224.4,50.4,224,50.7z
			 M221.1,48.9c0.3,0.6,0.8,0.8,1.4,0.8c0.6,0,1.1-0.3,1.4-0.8s0.5-1.3,0.5-2.2c0-0.6-0.1-1.1-0.2-1.5c-0.1-0.4-0.3-0.8-0.6-1.1
			c-0.3-0.3-0.6-0.4-1.1-0.4s-0.8,0.1-1.1,0.4c-0.3,0.3-0.5,0.6-0.6,1.1c-0.1,0.4-0.2,0.9-0.2,1.5C220.6,47.6,220.8,48.3,221.1,48.9
			z"/>
	</g>
	<g>
		<path class="st0" d="M211.1,76.6h-1.5v-6.4l-1.4,1.4l-0.9-0.9l2.4-2.4h1.3V76.6z"/>
		<path class="st0" d="M214.4,76.1c0,0.4-0.1,0.8-0.3,1.2c-0.2,0.4-0.5,0.7-0.9,0.9l-0.6-0.5c0.2-0.1,0.4-0.3,0.6-0.5
			c0.2-0.2,0.3-0.4,0.3-0.7c-0.1,0-0.1,0-0.2,0c-0.2,0-0.4-0.1-0.5-0.2c-0.1-0.1-0.2-0.3-0.2-0.6s0.1-0.4,0.2-0.6
			c0.2-0.2,0.4-0.3,0.6-0.3c0.3,0,0.5,0.1,0.7,0.3S214.4,75.8,214.4,76.1z"/>
		<path class="st0" d="M220.1,76.4c-0.4,0.2-0.9,0.4-1.5,0.4c-0.6,0-1.1-0.1-1.5-0.4c-0.4-0.2-0.8-0.6-1-1c-0.3-0.4-0.5-0.9-0.6-1.4
			s-0.2-1-0.2-1.6s0.1-1.1,0.2-1.6s0.3-1,0.6-1.4c0.3-0.4,0.6-0.7,1-1c0.4-0.2,0.9-0.4,1.5-0.4c0.6,0,1.1,0.1,1.5,0.4
			c0.4,0.2,0.8,0.6,1,1c0.3,0.4,0.5,0.9,0.6,1.4c0.1,0.5,0.2,1,0.2,1.6s-0.1,1.1-0.2,1.6c-0.1,0.5-0.3,1-0.6,1.4
			S220.5,76.1,220.1,76.4z M217.2,74.6c0.3,0.6,0.8,0.9,1.4,0.9s1.1-0.3,1.4-0.9c0.3-0.6,0.5-1.3,0.5-2.2c0-0.6-0.1-1.1-0.2-1.5
			c-0.1-0.4-0.3-0.8-0.6-1.1c-0.3-0.3-0.6-0.4-1.1-0.4c-0.4,0-0.8,0.1-1.1,0.4c-0.3,0.3-0.5,0.6-0.6,1.1c-0.1,0.4-0.2,0.9-0.2,1.5
			C216.7,73.3,216.9,74.1,217.2,74.6z"/>
		<path class="st0" d="M228.2,76.6h-1.5v-1.9h-4v-1.2l3.4-5.3h2v5.2h1.1v1.3h-1.1V76.6z M226.7,73.4v-3.8l-2.5,3.8H226.7z"/>
		<path class="st0" d="M233.5,76.8c-1.3,0-2.4-0.4-3.1-1.3l0.8-1c0.6,0.7,1.3,1,2.2,1c0.5,0,0.9-0.1,1.2-0.4s0.5-0.6,0.5-1
			c0-0.5-0.2-0.8-0.5-1.1s-0.7-0.4-1.2-0.4c-0.7,0-1.3,0.2-1.8,0.7l-1-0.3v-4.7h5.5v1.3h-4V72c0.5-0.5,1.1-0.7,1.9-0.7
			c0.7,0,1.4,0.2,1.9,0.7c0.5,0.5,0.8,1.1,0.8,2c0,0.9-0.3,1.5-0.9,2.1C235.2,76.5,234.4,76.8,233.5,76.8z"/>
	</g>
	<g>
		<path class="st0" d="M213,107h-1.5v-1.9h-4v-1.2l3.4-5.3h2v5.2h1.1v1.3H213V107z M211.5,103.8V100l-2.5,3.9H211.5z"/>
		<path class="st0" d="M218.3,107.1c-1.3,0-2.4-0.4-3.1-1.3l0.8-1c0.6,0.7,1.3,1,2.2,1c0.5,0,0.9-0.1,1.2-0.4c0.3-0.3,0.5-0.6,0.5-1
			c0-0.5-0.2-0.8-0.5-1.1c-0.3-0.3-0.7-0.4-1.2-0.4c-0.7,0-1.3,0.2-1.8,0.7l-1-0.3v-4.7h5.5v1.3h-4v2.4c0.5-0.5,1.1-0.7,1.9-0.7
			c0.7,0,1.4,0.2,1.9,0.7c0.5,0.5,0.8,1.1,0.8,2c0,0.9-0.3,1.5-0.9,2.1C220,106.9,219.2,107.1,218.3,107.1z"/>
	</g>
	<g>
		<path class="st0" d="M49.3,163.7h-1.5v-6.4l-1.4,1.4l-0.9-0.9l2.4-2.4h1.3V163.7z"/>
		<path class="st0" d="M52.7,163.2c0,0.4-0.1,0.8-0.3,1.2c-0.2,0.4-0.5,0.7-0.9,0.9l-0.6-0.5c0.2-0.1,0.4-0.3,0.6-0.5
			c0.2-0.2,0.3-0.4,0.3-0.7c-0.1,0-0.1,0-0.2,0c-0.2,0-0.4-0.1-0.5-0.2c-0.1-0.1-0.2-0.3-0.2-0.6s0.1-0.4,0.2-0.6
			c0.2-0.2,0.4-0.3,0.6-0.3c0.3,0,0.5,0.1,0.7,0.3S52.7,162.8,52.7,163.2z"/>
		<path class="st0" d="M56,163.7h-1.5v-6.4l-1.4,1.4l-0.9-0.9l2.4-2.4H56V163.7z"/>
		<path class="st0" d="M60,163.7h-1.6l3.1-7h-4.3v-1.3h6v1L60,163.7z"/>
		<path class="st0" d="M67.3,163.8c-1.3,0-2.4-0.4-3.1-1.3l0.8-1c0.6,0.7,1.3,1,2.2,1c0.5,0,0.9-0.1,1.2-0.4s0.5-0.6,0.5-1
			c0-0.5-0.2-0.8-0.5-1.1c-0.3-0.3-0.7-0.4-1.2-0.4c-0.7,0-1.3,0.2-1.8,0.7l-1-0.3v-4.7H70v1.3h-4v2.4c0.5-0.5,1.1-0.7,1.9-0.7
			c0.7,0,1.4,0.2,1.9,0.7c0.5,0.5,0.8,1.1,0.8,2c0,0.9-0.3,1.5-0.9,2.1C69.1,163.5,68.3,163.8,67.3,163.8z"/>
	</g>
	<g>
		<path class="st0" d="M55.5,133.7h-6v-1.1c1.7-1.3,2.9-2.3,3.6-2.9c0.6-0.6,0.9-1.2,0.9-1.8c0-0.4-0.1-0.7-0.4-0.9
			c-0.3-0.2-0.7-0.3-1.1-0.3c-0.9,0-1.7,0.3-2.2,1l-0.8-1c0.4-0.4,0.8-0.8,1.4-1c0.5-0.2,1.1-0.3,1.7-0.3c0.8,0,1.6,0.2,2.1,0.7
			s0.9,1.1,0.9,1.9c0,0.7-0.3,1.4-0.9,2.1c-0.6,0.7-1.5,1.5-2.8,2.5h3.7V133.7z"/>
		<path class="st0" d="M62.1,133.7h-1.5v-1.9h-4v-1.2l3.4-5.3h2v5.2h1.1v1.3h-1.1V133.7z M60.6,130.6v-3.9l-2.5,3.9H60.6z"/>
		<path class="st0" d="M67.3,133.9c-1.3,0-2.4-0.4-3.1-1.3l0.8-1c0.6,0.7,1.3,1,2.2,1c0.5,0,0.9-0.1,1.2-0.4s0.5-0.6,0.5-1
			c0-0.5-0.2-0.8-0.5-1.1c-0.3-0.3-0.7-0.4-1.2-0.4c-0.7,0-1.3,0.2-1.8,0.7l-1-0.3v-4.7H70v1.3h-4v2.4c0.5-0.5,1.1-0.7,1.9-0.7
			c0.7,0,1.4,0.2,1.9,0.7c0.5,0.5,0.8,1.1,0.8,2c0,0.9-0.3,1.5-0.9,2.1S68.3,133.9,67.3,133.9z"/>
	</g>
	<g>
		<path class="st0" d="M60,106.3c-0.6,0-1.1-0.1-1.6-0.3c-0.5-0.2-0.8-0.5-1.1-0.9s-0.5-0.9-0.6-1.4c-0.1-0.5-0.2-1.1-0.2-1.7
			c0-1.3,0.3-2.3,1-3.1c0.6-0.8,1.5-1.2,2.7-1.2c1,0,1.8,0.3,2.4,0.9l-0.7,1.1c-0.5-0.5-1-0.7-1.7-0.7c-0.7,0-1.2,0.3-1.6,0.8
			c-0.4,0.5-0.6,1.2-0.6,1.9c0,0.1,0,0.2,0,0.2c0.2-0.3,0.5-0.6,0.9-0.8s0.8-0.4,1.3-0.4c0.8,0,1.5,0.2,2,0.7c0.5,0.5,0.8,1.1,0.8,2
			c0,0.8-0.3,1.5-0.8,2C61.6,106,60.9,106.3,60,106.3z M59.9,105c0.5,0,0.9-0.1,1.2-0.4c0.3-0.3,0.4-0.6,0.4-1
			c0-0.5-0.2-0.9-0.5-1.1c-0.3-0.3-0.7-0.4-1.2-0.4c-0.3,0-0.7,0.1-1,0.3c-0.3,0.2-0.6,0.4-0.8,0.7c0,0.5,0.2,1,0.5,1.4
			C58.9,104.8,59.3,105,59.9,105z"/>
		<path class="st0" d="M67.3,106.3c-1.3,0-2.4-0.4-3.1-1.3l0.8-1c0.6,0.7,1.3,1,2.2,1c0.5,0,0.9-0.1,1.2-0.4c0.3-0.3,0.5-0.6,0.5-1
			c0-0.5-0.2-0.8-0.5-1.1c-0.3-0.3-0.7-0.4-1.2-0.4c-0.7,0-1.3,0.2-1.8,0.7l-1-0.3v-4.7H70v1.3h-4v2.4c0.5-0.5,1.1-0.7,1.9-0.7
			c0.7,0,1.4,0.2,1.9,0.7c0.5,0.5,0.8,1.1,0.8,2c0,0.9-0.3,1.5-0.9,2.1S68.3,106.3,67.3,106.3z"/>
	</g>
	<g>
		<path class="st0" d="M57.1,76.6h-1.5v-1.9h-4v-1.2l3.4-5.3h2v5.2h1.1v1.3h-1.1V76.6z M55.7,73.5v-3.9l-2.5,3.9H55.7z"/>
		<path class="st0" d="M62.5,76.6H61v-6.4l-1.4,1.4l-0.9-0.9l2.4-2.4h1.3V76.6z"/>
		<path class="st0" d="M68.7,76.4c-0.4,0.2-0.9,0.4-1.5,0.4c-0.6,0-1.1-0.1-1.5-0.4c-0.4-0.2-0.8-0.6-1.1-1
			c-0.3-0.4-0.5-0.9-0.6-1.4c-0.1-0.5-0.2-1-0.2-1.6c0-0.5,0.1-1.1,0.2-1.6c0.1-0.5,0.3-1,0.6-1.4c0.3-0.4,0.6-0.7,1.1-1
			c0.4-0.2,0.9-0.4,1.5-0.4c0.6,0,1.1,0.1,1.5,0.4c0.4,0.2,0.8,0.6,1,1c0.3,0.4,0.5,0.9,0.6,1.4s0.2,1,0.2,1.6
			c0,0.5-0.1,1.1-0.2,1.6s-0.3,1-0.6,1.4C69.5,75.8,69.1,76.2,68.7,76.4z M65.8,74.6c0.3,0.6,0.8,0.8,1.4,0.8c0.6,0,1.1-0.3,1.4-0.8
			s0.5-1.3,0.5-2.2c0-0.6-0.1-1.1-0.2-1.5c-0.1-0.4-0.3-0.8-0.6-1.1c-0.3-0.3-0.6-0.4-1.1-0.4c-0.4,0-0.8,0.1-1.1,0.4
			s-0.5,0.6-0.6,1.1c-0.1,0.4-0.2,0.9-0.2,1.5C65.3,73.3,65.5,74.1,65.8,74.6z"/>
	</g>
	<g>
		<path class="st0" d="M54.6,47.4h-1.5v-1.9h-4v-1.2l3.4-5.3h2v5.2h1.1v1.3h-1.1V47.4z M53.1,44.2v-3.9l-2.5,3.9H53.1z"/>
		<path class="st0" d="M59.8,47.5c-1.3,0-2.4-0.4-3.1-1.3l0.8-1c0.6,0.7,1.3,1,2.2,1c0.5,0,0.9-0.1,1.2-0.4c0.3-0.3,0.5-0.6,0.5-1
			c0-0.5-0.2-0.8-0.5-1.1c-0.3-0.3-0.7-0.4-1.2-0.4c-0.7,0-1.3,0.2-1.8,0.7l-1-0.3V39h5.5v1.3h-4v2.4c0.5-0.5,1.1-0.7,1.9-0.7
			c0.7,0,1.4,0.2,1.9,0.7c0.5,0.5,0.8,1.1,0.8,2c0,0.9-0.3,1.5-0.9,2.1S60.8,47.5,59.8,47.5z"/>
		<path class="st0" d="M67.3,47.5c-1.3,0-2.4-0.4-3.1-1.3l0.8-1c0.6,0.7,1.3,1,2.2,1c0.5,0,0.9-0.1,1.2-0.4c0.3-0.3,0.5-0.6,0.5-1
			c0-0.5-0.2-0.8-0.5-1.1c-0.3-0.3-0.7-0.4-1.2-0.4c-0.7,0-1.3,0.2-1.8,0.7l-1-0.3V39H70v1.3h-4v2.4c0.5-0.5,1.1-0.7,1.9-0.7
			c0.7,0,1.4,0.2,1.9,0.7c0.5,0.5,0.8,1.1,0.8,2c0,0.9-0.3,1.5-0.9,2.1S68.3,47.5,67.3,47.5z"/>
	</g>
	<g>
		<path class="st0" d="M143.5,29.5H142v-6.4l-1.4,1.4l-0.9-0.9l2.4-2.4h1.3V29.5z"/>
		<path class="st0" d="M148.2,29.7c-1.3,0-2.4-0.4-3.1-1.3l0.8-1c0.6,0.7,1.3,1,2.2,1c0.5,0,0.9-0.1,1.2-0.4s0.5-0.6,0.5-1
			c0-0.5-0.2-0.8-0.5-1.1c-0.3-0.3-0.7-0.4-1.2-0.4c-0.7,0-1.3,0.2-1.8,0.7l-1-0.3v-4.7h5.5v1.3h-4v2.4c0.5-0.5,1.1-0.7,1.9-0.7
			c0.7,0,1.4,0.2,1.9,0.7c0.5,0.5,0.8,1.1,0.8,2c0,0.9-0.3,1.5-0.9,2.1C149.9,29.4,149.1,29.7,148.2,29.7z"/>
		<path class="st0" d="M157.2,29.3c-0.4,0.2-0.9,0.4-1.5,0.4c-0.6,0-1.1-0.1-1.5-0.4c-0.4-0.2-0.8-0.6-1.1-1s-0.5-0.9-0.6-1.4
			c-0.1-0.5-0.2-1-0.2-1.6s0.1-1.1,0.2-1.6c0.1-0.5,0.3-1,0.6-1.4c0.3-0.4,0.6-0.7,1.1-1c0.4-0.2,0.9-0.4,1.5-0.4
			c0.6,0,1.1,0.1,1.5,0.4c0.4,0.2,0.8,0.6,1,1c0.3,0.4,0.5,0.9,0.6,1.4s0.2,1,0.2,1.6s-0.1,1.1-0.2,1.6s-0.3,1-0.6,1.4
			C158,28.7,157.7,29.1,157.2,29.3z M154.3,27.5c0.3,0.6,0.8,0.9,1.4,0.9c0.6,0,1.1-0.3,1.4-0.9c0.3-0.6,0.5-1.3,0.5-2.2
			c0-0.6-0.1-1.1-0.2-1.5c-0.1-0.4-0.3-0.8-0.6-1.1c-0.3-0.3-0.6-0.4-1.1-0.4c-0.4,0-0.8,0.1-1.1,0.4c-0.3,0.3-0.5,0.6-0.6,1.1
			c-0.1,0.4-0.2,0.9-0.2,1.5C153.9,26.2,154,27,154.3,27.5z"/>
	</g>
	<g>
		<g>
			<path class="st4" d="M200.7,67.2c-11.3-2.7-32.2-8.7-44.4,1.6"/>
			<g>
				<path class="st2" d="M156.6,68.5c1.5,0.1,3.2,1.4,4.2,2.5c-2.4-0.6-4.9-0.6-7.3,0.1c1.2-2.2,1.4-4.7,1.3-7.2
					C155.8,65.2,156.7,66.9,156.6,68.5z"/>
			</g>
		</g>
	</g>
	<g>
		<g>
			<path class="st5" d="M201.8,96c-12.7,2.3-38.2-3.2-49.1-15.6"/>
			<g>
				<path class="st2" d="M152.7,80.4c0,0.1-0.1,0.1-0.1,0.2c0-0.1,0-0.2,0-0.3c0.1,0,0.2,0.1,0.3,0.1
					C152.8,80.3,152.7,80.4,152.7,80.4z"/>
			</g>
		</g>
	</g>
	<g>
		<g>
			<path class="st6" d="M78.3,151.7c13.8,0.6,36.6-1.9,48.3-17.7"/>
			<g>
				<path class="st2" d="M126.3,134.2c-1.2,0.2-2.8-0.4-3.8-1.1c2-0.1,4-0.5,5.7-1.6c-0.4,1.9-0.1,4,0.5,5.9
					C127.7,136.6,126.6,135.5,126.3,134.2z"/>
			</g>
		</g>
	</g>
	<g>
		<g>
			<path class="st7" d="M199.6,130.2c-20.5,4.7-38.5,8.5-57.5-6.9"/>
			<g>
				<path class="st2" d="M142.2,123.4c0,0.2-0.1,0.4-0.2,0.5c0-0.3,0-0.5-0.2-0.8c0.3,0.1,0.5,0,0.8,0
					C142.5,123.2,142.3,123.4,142.2,123.4z"/>
			</g>
		</g>
	</g>
	<g>
		<g>
			<path class="st8" d="M78.3,34.6c18.3,0,56.6,3.7,68.7,34.2"/>
			<g>
				<path class="st2" d="M146.9,68.6c0.3-0.6,1.1-1.2,1.7-1.4c-0.6,0.9-1,2-1,3.1c-0.8-0.8-1.8-1.3-2.9-1.6
					C145.3,68.5,146.2,68.4,146.9,68.6z"/>
			</g>
		</g>
	</g>
	<g>
		<g>
			<path class="st9" d="M77.1,122c13,1.1,37,2.8,51-7.6"/>
			<g>
				<path class="st2" d="M128,114.4c-0.4-0.1-0.8-0.4-1-0.7c0.6,0.2,1.2,0.2,1.8,0.1c-0.3,0.5-0.4,1.1-0.4,1.7
					C128.2,115.2,128,114.8,128,114.4z"/>
			</g>
		</g>
	</g>
	<g>
		<g>
			<path class="st10" d="M76.5,66.3c14.4-4,43.9-8.3,63.5,8.7"/>
			<g>
				<path class="st2" d="M139.9,75c0-0.3,0.2-0.6,0.3-0.8c0,0.4,0,0.9,0.2,1.3c-0.4-0.1-0.9-0.1-1.3,0C139.4,75.3,139.6,75,139.9,75
					z"/>
			</g>
		</g>
	</g>
	<g>
		<g>
			<path class="st11" d="M76.5,96c10.3-8.3,35.6-18.4,59.3-12.4"/>
			<g>
				<path class="st2" d="M135.8,83.6c0-0.1,0-0.2,0-0.3c0.1,0.1,0.2,0.3,0.3,0.4c-0.2,0-0.3,0.1-0.4,0.2
					C135.6,83.8,135.7,83.7,135.8,83.6z"/>
			</g>
		</g>
	</g>
	<g>
		<g>
			<line class="st12" x1="149.6" y1="31.2" x2="149.6" y2="58.2"/>
			<g>
				<path class="st2" d="M149.6,58.1c0.2-0.2,0.5-0.2,0.7-0.2c-0.3,0.2-0.5,0.5-0.7,0.8c-0.1-0.3-0.4-0.6-0.7-0.8
					C149.2,57.9,149.4,58,149.6,58.1z"/>
			</g>
		</g>
	</g>
	<g>
		<path class="st0" d="M211.1,139h-1.5v-6.4l-1.4,1.4l-0.9-0.9l2.4-2.4h1.3V139z"/>
		<path class="st0" d="M215.8,139h-1.5v-6.4L213,134l-0.9-0.9l2.4-2.4h1.3V139z"/>
		<path class="st0" d="M222.1,138.8c-0.4,0.2-0.9,0.4-1.5,0.4c-0.6,0-1.1-0.1-1.5-0.4c-0.4-0.2-0.8-0.6-1-1
			c-0.3-0.4-0.5-0.9-0.6-1.4s-0.2-1-0.2-1.6s0.1-1.1,0.2-1.6s0.3-1,0.6-1.4c0.3-0.4,0.6-0.7,1-1c0.4-0.2,0.9-0.4,1.5-0.4
			c0.6,0,1.1,0.1,1.5,0.4c0.4,0.2,0.8,0.6,1,1c0.3,0.4,0.5,0.9,0.6,1.4c0.1,0.5,0.2,1,0.2,1.6s-0.1,1.1-0.2,1.6
			c-0.1,0.5-0.3,1-0.6,1.4S222.5,138.5,222.1,138.8z M219.2,137c0.3,0.6,0.8,0.9,1.4,0.9s1.1-0.3,1.4-0.9c0.3-0.6,0.5-1.3,0.5-2.2
			c0-0.6-0.1-1.1-0.2-1.5c-0.1-0.4-0.3-0.8-0.6-1.1c-0.3-0.3-0.6-0.4-1.1-0.4c-0.4,0-0.8,0.1-1.1,0.4c-0.3,0.3-0.5,0.6-0.6,1.1
			c-0.1,0.4-0.2,0.9-0.2,1.5C218.7,135.7,218.9,136.4,219.2,137z"/>
	</g>
</g>
</svg>
