<?xml version="1.0" encoding="utf-8"?>
<!-- Generator: Adobe Illustrator 19.2.0, SVG Export Plug-In . SVG Version: 6.00 Build 0)  -->
<svg version="1.1" id="Layer_1" xmlns="http://www.w3.org/2000/svg" xmlns:xlink="http://www.w3.org/1999/xlink" x="0px" y="0px"
	 viewBox="0 0 266.2 169.3" style="enable-background:new 0 0 266.2 169.3;" xml:space="preserve">
<style type="text/css">
	.st0{fill:#0D92FF;}
	.st1{fill:none;stroke:#00325C;stroke-width:0.125;stroke-miterlimit:10;}
	.st2{fill:#00325C;}
	.st3{fill:#787878;}
	.st4{fill:none;stroke:#00325C;stroke-width:0.17;stroke-miterlimit:10;}
	.st5{fill:none;stroke:#00325C;stroke-width:0.12;stroke-miterlimit:10;}
	.st6{fill:none;stroke:#00325C;stroke-width:1.545;stroke-miterlimit:3;}
	.st7{fill:none;stroke:#00325C;stroke-width:0.37;stroke-miterlimit:10;}
	.st8{fill:none;stroke:#00325C;stroke-width:0.265;stroke-miterlimit:10;}
	.st9{fill:none;stroke:#00325C;stroke-width:0.155;stroke-miterlimit:10;}
	.st10{fill:none;stroke:#00325C;stroke-width:0.25;stroke-miterlimit:10;}
	.st11{fill:none;stroke:#00325C;stroke-width:6.500000e-02;stroke-miterlimit:10;}
	.st12{fill:none;stroke:#00325C;stroke-width:0.14;stroke-miterlimit:10;}
</style>
<g>
	<path class="st0" d="M141.8,137.6L141.8,137.6L141.8,137.6L141.8,137.6L141.8,137.6l0.1-0.1L141.8,137.6L141.8,137.6L141.8,137.6
		L141.8,137.6L141.8,137.6z M142,139L142,139L142,139L142,139l0.1-0.1L142,139l0.1-0.1L142,139L142,139L142,139L142,139L142,139
		L142,139L142,139L142,139L142,139z M141.6,138.9L141.6,138.9l0,0.1L141.6,138.9L141.6,138.9L141.6,138.9L141.6,138.9L141.6,138.9
		L141.6,138.9z M141.7,139.4L141.7,139.4L141.7,139.4L141.7,139.4L141.7,139.4L141.7,139.4L141.7,139.4l-0.1,0.1l0,0.1l0,0l0.1,0
		l0,0l0-0.1l0,0L141.7,139.4L141.7,139.4L141.7,139.4L141.7,139.4z M120,143.7L120,143.7L120,143.7L120,143.7L120,143.7l-0.1,0l0,0
		l0,0l0,0l0,0l0,0.1l0,0l0,0l0,0l0,0l0,0l0,0l0,0L120,143.7L120,143.7L120,143.7z M140.7,144.8L140.7,144.8l0.1,0.1l0,0L140.7,144.8
		L140.7,144.8l0-0.1L140.7,144.8L140.7,144.8z M141,146.8L141,146.8L141,146.8L141,146.8L141,146.8L141,146.8z M140.2,148L140.2,148
		L140.2,148l0.1,0l0,0l0,0l0,0l0.1,0l0,0l0,0l-0.1,0L140.2,148l0-0.1l0,0L140.2,148L140.2,148L140.2,148L140.2,148z M135.2,155.2
		L135.2,155.2L135.2,155.2v-0.1V155.2z M133.5,155.4L133.5,155.4L133.5,155.4L133.5,155.4L133.5,155.4L133.5,155.4L133.5,155.4
		L133.5,155.4L133.5,155.4z M136.9,156.1L136.9,156.1L136.9,156.1L136.9,156.1L136.9,156.1L136.9,156.1L136.9,156.1L136.9,156.1
		L136.9,156.1L136.9,156.1l0,0.1L136.9,156.1L136.9,156.1L136.9,156.1L136.9,156.1z M132.9,156.2L132.9,156.2L132.9,156.2l0,0.1h0
		L132.9,156.2L132.9,156.2L132.9,156.2z M158.7,90.8L158.7,90.8L158.7,90.8L158.7,90.8L158.7,90.8L158.7,90.8L158.7,90.8z
		 M157.4,90.9L157.4,90.9L157.4,90.9L157.4,90.9L157.4,90.9L157.4,90.9L157.4,90.9L157.4,90.9z M157,91L157,91l0,0.2h0l0,0l0,0
		L157,91L157,91L157,91z M156.9,91.5L156.9,91.5l0,0.1l0,0l0,0l0,0l0,0.1L156.9,91.5L156.9,91.5L156.9,91.5z M155.7,92.2L155.7,92.2
		L155.7,92.2l0,0.1L155.7,92.2L155.7,92.2L155.7,92.2z M154,93.2L154,93.2L154,93.2L154,93.2l-0.1,0.1l0,0l0,0.1l0-0.1L154,93.2
		L154,93.2z M154,93.9l0,0.1L154,93.9L154,93.9L154,93.9L154,93.9z M152.4,94.1L152.4,94.1l0-0.1L152.4,94.1l0,0.1l0,0l0,0l0,0l0,0
		l0.1,0l0-0.1L152.4,94.1L152.4,94.1z M152,94.2L152,94.2L152,94.2L152,94.2L152,94.2L152,94.2L152,94.2L152,94.2z M151.1,95.9
		L151.1,95.9L151.1,95.9l0-0.1l0,0L151.1,95.9L151.1,95.9z M149.8,96.6L149.8,96.6L149.8,96.6L149.8,96.6l0.1,0L149.8,96.6
		L149.8,96.6L149.8,96.6z M149.6,97L149.6,97L149.6,97l0.1-0.1L149.6,97L149.6,97z M166.1,71.1L166.1,71.1l0,0.2l0,0L166.1,71.1
		L166.1,71.1z M166,71.2L166,71.2l0,0.1l0.1,0.1l0,0L166,71.2L166,71.2z M171.8,71.3L171.8,71.3L171.8,71.3l0,0.1L171.8,71.3
		L171.8,71.3L171.8,71.3L171.8,71.3L171.8,71.3L171.8,71.3z M172,71.4L172,71.4L172,71.4l0-0.1l-0.1,0L172,71.4z M169.1,71.3
		L169.1,71.3L169.1,71.3L169.1,71.3L169.1,71.3L169.1,71.3L169.1,71.3L169.1,71.3L169.1,71.3L169.1,71.3L169.1,71.3z M168,71.3
		L168,71.3L168,71.3l0,0.1l0,0l0,0l0,0L168,71.3L168,71.3z M171.1,71.4L171.1,71.4L171.1,71.4L171.1,71.4L171.1,71.4L171.1,71.4
		L171.1,71.4z M168.7,71.7L168.7,71.7L168.7,71.7L168.7,71.7L168.7,71.7z M170.8,71.7L170.8,71.7L170.8,71.7L170.8,71.7L170.8,71.7
		L170.8,71.7z M168,71.8L168,71.8L168,71.8L168,71.8L168,71.8L168,71.8l0-0.1l0,0l0,0l0,0l0,0L168,71.8L168,71.8L168,71.8l-0.1-0.1
		l0,0l0,0l0,0l0,0L168,71.8L168,71.8L168,71.8L168,71.8z M168.9,71.6L168.9,71.6L168.9,71.6L168.9,71.6l-0.1,0.1l0,0l0,0l0,0l0,0
		L168.9,71.6L168.9,71.6L168.9,71.6z M171.5,71.8L171.5,71.8L171.5,71.8L171.5,71.8L171.5,71.8L171.5,71.8L171.5,71.8z M169.4,71.9
		l-0.1-0.1L169.4,71.9L169.4,71.9L169.4,71.9l0,0.1l0,0L169.4,71.9L169.4,71.9z M167.8,71.9L167.8,71.9L167.8,71.9L167.8,71.9
		L167.8,71.9L167.8,71.9z M167.9,72L167.9,72L167.9,72L167.9,72L167.9,72L167.9,72z M172,72.2L172,72.2l-0.1-0.1l-0.1,0l0,0
		L172,72.2L172,72.2L172,72.2L172,72.2l0,0.1l0,0L172,72.2L172,72.2L172,72.2z M171.8,72.3L171.8,72.3L171.8,72.3L171.8,72.3
		l-0.1-0.1l0,0.1L171.8,72.3L171.8,72.3L171.8,72.3z M166.7,72.5L166.7,72.5L166.7,72.5L166.7,72.5L166.7,72.5L166.7,72.5
		L166.7,72.5L166.7,72.5L166.7,72.5L166.7,72.5z M165.9,72.5L165.9,72.5L165.9,72.5L165.9,72.5l-0.1,0.1l0.1,0l0.1,0L165.9,72.5
		L165.9,72.5L165.9,72.5z M171.8,72.5L171.8,72.5L171.8,72.5l0.1,0.1l0,0l0,0L171.8,72.5L171.8,72.5L171.8,72.5z M167.2,72.5
		L167.2,72.5L167.2,72.5L167.2,72.5L167.2,72.5l-0.1,0l0,0L167.2,72.5l0,0.1l0,0l0,0l0,0L167.2,72.5L167.2,72.5z M171.9,72.5
		L171.9,72.5L171.9,72.5L171.9,72.5L171.9,72.5z M170.6,72.6L170.6,72.6L170.6,72.6L170.6,72.6l0,0.1l0,0l0,0l0,0l0,0L170.6,72.6
		L170.6,72.6z M166.3,72.7L166.3,72.7L166.3,72.7l0-0.1l0,0l0,0l0,0l0,0l0,0l0,0.1L166.3,72.7L166.3,72.7z M171.2,72.7L171.2,72.7
		L171.2,72.7L171.2,72.7L171.2,72.7z M169.4,72.7L169.4,72.7L169.4,72.7L169.4,72.7L169.4,72.7z M171.4,72.7L171.4,72.7L171.4,72.7
		L171.4,72.7L171.4,72.7z M167,72.8L167,72.8L167,72.8L167,72.8L167,72.8L167,72.8L167,72.8L167,72.8l0,0.1l0,0l0,0L167,72.8
		L167,72.8z M170.5,72.9L170.5,72.9L170.5,72.9l-0.1-0.2l0,0l0,0l0,0.1L170.5,72.9L170.5,72.9L170.5,72.9L170.5,72.9L170.5,72.9
		L170.5,72.9L170.5,72.9z M166.3,73L166.3,73L166.3,73L166.3,73L166.3,73z M171.4,73.2L171.4,73.2L171.4,73.2L171.4,73.2L171.4,73.2
		L171.4,73.2L171.4,73.2L171.4,73.2L171.4,73.2z M172.1,73.1L172.1,73.1L172.1,73.1L172.1,73.1L172.1,73.1L172.1,73.1z M170.5,73.2
		L170.5,73.2L170.5,73.2L170.5,73.2L170.5,73.2z M169.4,74L169.4,74L169.4,74L169.4,74L169.4,74L169.4,74L169.4,74L169.4,74
		L169.4,74L169.4,74z M164.6,71.4L164.6,71.4L164.6,71.4L164.6,71.4L164.6,71.4l-0.1-0.1L164.6,71.4L164.6,71.4L164.6,71.4
		L164.6,71.4L164.6,71.4z M164.9,71.6L164.9,71.6L164.9,71.6L164.9,71.6L164.9,71.6z M165.3,72L165.3,72L165.3,72L165.3,72L165.3,72
		z M165.2,72L165.2,72L165.2,72L165.2,72L165.2,72L165.2,72L165.2,72L165.2,72z M164.8,72.5L164.8,72.5L164.8,72.5L164.8,72.5
		l0.1,0.1L164.8,72.5L164.8,72.5L164.8,72.5L164.8,72.5L164.8,72.5z M164.7,72.7L164.7,72.7L164.7,72.7L164.7,72.7L164.7,72.7
		L164.7,72.7z M165,72.9L165,72.9l0,0.1l0,0L165,72.9z M164.5,73.3L164.5,73.3L164.5,73.3l0-0.1l0,0L164.5,73.3L164.5,73.3
		L164.5,73.3L164.5,73.3z M164.7,73.9L164.7,73.9L164.7,73.9L164.7,73.9L164.7,73.9L164.7,73.9L164.7,73.9z M163,74.3L163,74.3
		L163,74.3L163,74.3L163,74.3L163,74.3l-0.1-0.1l0,0l0,0l0,0l0,0l0,0l0,0l0,0L163,74.3L163,74.3L163,74.3L163,74.3L163,74.3
		L163,74.3z M163.2,74.4L163.2,74.4L163.2,74.4l0.1,0.1L163.2,74.4L163.2,74.4z M165.6,74.5L165.6,74.5l0.1,0.1L165.6,74.5
		L165.6,74.5L165.6,74.5z M165.5,74.7L165.5,74.7L165.5,74.7L165.5,74.7L165.5,74.7L165.5,74.7l0.1,0L165.5,74.7L165.5,74.7z
		 M162.1,75.5L162.1,75.5L162.1,75.5L162.1,75.5l0-0.1l0,0l0,0L162.1,75.5L162.1,75.5z M162.5,75.9L162.5,75.9L162.5,75.9l-0.1,0
		l0,0l0,0l0,0H162.5L162.5,75.9L162.5,75.9L162.5,75.9L162.5,75.9L162.5,75.9L162.5,75.9L162.5,75.9z M164.5,76.1L164.5,76.1
		L164.5,76.1L164.5,76.1L164.5,76.1L164.5,76.1L164.5,76.1L164.5,76.1z M162.7,76.6L162.7,76.6L162.7,76.6L162.7,76.6L162.7,76.6
		L162.7,76.6L162.7,76.6z M162.4,77.3L162.4,77.3l0,0.1l0.1,0.1l0,0L162.4,77.3L162.4,77.3z M162.6,77.4L162.6,77.4L162.6,77.4
		l0.1,0.1l0-0.1L162.6,77.4L162.6,77.4z M161.5,77.8L161.5,77.8L161.5,77.8l-0.1,0.1l0,0l0,0.1l0.1,0l0,0l0,0l0-0.1L161.5,77.8z
		 M161.8,77.9L161.8,77.9L161.8,77.9L161.8,77.9l-0.1,0.1l0,0l0.1,0L161.8,77.9L161.8,77.9L161.8,77.9z M161.1,78.4L161.1,78.4
		L161.1,78.4L161.1,78.4L161.1,78.4L161.1,78.4l0.2,0l0-0.1l-0.1-0.1L161.1,78.4L161.1,78.4L161.1,78.4L161.1,78.4z M160.8,83.2
		L160.8,83.2L160.8,83.2L160.8,83.2L160.8,83.2L160.8,83.2L160.8,83.2z M159.2,87.2L159.2,87.2L159.2,87.2L159.2,87.2L159.2,87.2z
		 M152,127.2L152,127.2L152,127.2L152,127.2z M151,127.4L151,127.4L151,127.4L151,127.4L151,127.4z M150.9,127.6L150.9,127.6
		L150.9,127.6L150.9,127.6L150.9,127.6L150.9,127.6l0,0.1L150.9,127.6L150.9,127.6L150.9,127.6L150.9,127.6z M150.5,127.7
		L150.5,127.7L150.5,127.7L150.5,127.7L150.5,127.7L150.5,127.7L150.5,127.7L150.5,127.7L150.5,127.7L150.5,127.7L150.5,127.7
		L150.5,127.7L150.5,127.7z M151.4,128L151.4,128L151.4,128L151.4,128L151.4,128z M151,128.9L151,128.9L151,128.9L151,128.9
		L151,128.9L151,128.9L151,128.9L151,128.9z M151.3,129.4L151.3,129.4L151.3,129.4l0-0.1L151.3,129.4L151.3,129.4L151.3,129.4
		L151.3,129.4L151.3,129.4L151.3,129.4z M152.4,129.3L152.4,129.3L152.4,129.3L152.4,129.3L152.4,129.3L152.4,129.3z M148.6,131.1
		L148.6,131.1L148.6,131.1L148.6,131.1l0.1,0l0-0.1L148.6,131.1L148.6,131.1z M147.8,131.2L147.8,131.2L147.8,131.2L147.8,131.2
		L147.8,131.2L147.8,131.2z M148.6,131.9L148.6,131.9l0,0.1L148.6,131.9L148.6,131.9L148.6,131.9L148.6,131.9z M149.3,132.2
		L149.3,132.2L149.3,132.2L149.3,132.2L149.3,132.2l0-0.1L149.3,132.2L149.3,132.2L149.3,132.2L149.3,132.2L149.3,132.2L149.3,132.2
		L149.3,132.2L149.3,132.2L149.3,132.2z M148.6,132.3L148.6,132.3L148.6,132.3L148.6,132.3L148.6,132.3l0.1-0.1l0-0.1l-0.1,0l0,0
		l0,0L148.6,132.3L148.6,132.3L148.6,132.3L148.6,132.3z M146.8,132.7L146.8,132.7L146.8,132.7L146.8,132.7l0.1,0L146.8,132.7l0-0.1
		l0,0l0,0l0,0l-0.1,0L146.8,132.7L146.8,132.7L146.8,132.7z M144.9,134.2L144.9,134.2L144.9,134.2L144.9,134.2L144.9,134.2
		L144.9,134.2l0,0.1l0,0l0,0L144.9,134.2L144.9,134.2L144.9,134.2z M145.5,134.8L145.5,134.8l0,0.1l0,0.1l0,0l0,0l0,0L145.5,134.8
		L145.5,134.8L145.5,134.8z M164.9,71.3L164.9,71.3L164.9,71.3L164.9,71.3l0-0.1l0-0.1l0,0L164.9,71.3L164.9,71.3L164.9,71.3
		L164.9,71.3L164.9,71.3z M165.5,71.5L165.5,71.5L165.5,71.5L165.5,71.5l0-0.1l0,0l0,0l0,0l0,0L165.5,71.5L165.5,71.5L165.5,71.5
		L165.5,71.5L165.5,71.5z M168.2,71.7L168.2,71.7L168.2,71.7L168.2,71.7L168.2,71.7l0.1-0.1l0,0l-0.1,0L168.2,71.7L168.2,71.7
		L168.2,71.7z M168.3,72L168.3,72l-0.1-0.2l0,0l0,0l-0.1,0l-0.1,0l0,0.1l0,0l0,0l0,0l0,0l0,0l0,0l0,0l0,0l0,0l0,0l0,0l0,0l0,0l0,0
		l0,0l0,0l0,0l0,0l0,0l0,0l0-0.1l0,0l0-0.1l0,0L168.3,72L168.3,72L168.3,72L168.3,72L168.3,72l0,0.1l0,0L168.3,72L168.3,72L168.3,72
		z M169.3,72L169.3,72L169.3,72l-0.1-0.1l0,0l0,0l0,0v0l0,0l0,0.1l0,0L169.3,72L169.3,72l-0.1,0.1l0,0l0,0l0,0l0,0L169.3,72
		L169.3,72L169.3,72z M164.6,72.2L164.6,72.2L164.6,72.2L164.6,72.2l0.1-0.1l0,0l0,0l0,0l0,0l0,0L164.6,72.2L164.6,72.2L164.6,72.2z
		 M171.3,72.3L171.3,72.3L171.3,72.3l-0.2,0l0,0l0,0l0,0l0,0l0,0l0,0l0,0l0.1,0L171.3,72.3L171.3,72.3L171.3,72.3L171.3,72.3z
		 M165.4,72.7L165.4,72.7L165.4,72.7L165.4,72.7l0.2,0l0,0l0,0l0-0.1l0-0.1l0-0.1l0,0l0,0l0,0l0,0l0,0l0,0l0,0.1L165.4,72.7
		L165.4,72.7L165.4,72.7z M167.5,72.5L167.5,72.5L167.5,72.5L167.5,72.5L167.5,72.5L167.5,72.5l-0.1,0l0,0l0,0l0,0l0,0l0.1,0l0,0
		l0,0L167.5,72.5L167.5,72.5L167.5,72.5z M165.5,72.8L165.5,72.8L165.5,72.8l0,0.1l0,0l0,0l0.1,0l0-0.1L165.5,72.8L165.5,72.8z
		 M164.7,73.1L164.7,73.1L164.7,73.1L164.7,73.1L164.7,73.1L164.7,73.1L164.7,73.1L164.7,73.1l0-0.1l0,0L164.7,73.1L164.7,73.1
		L164.7,73.1z M170.3,73.4l0-0.1l0-0.1h0l0,0.1L170.3,73.4L170.3,73.4L170.3,73.4L170.3,73.4L170.3,73.4l-0.1,0.1l0,0l0,0l0,0l0,0
		l0,0h0l0,0l0,0l0,0l0,0l0,0l0,0l0,0v-0.1l0-0.1L170.3,73.4z M166.2,73.8L166.2,73.8L166.2,73.8l0.1,0L166.2,73.8l0.1-0.2l0,0l0,0
		l0,0l0,0L166.2,73.8L166.2,73.8z M165.8,73.8L165.8,73.8l-0.1-0.1l0,0.1l0,0.1l0,0.1l0,0l0.1,0L165.8,73.8L165.8,73.8L165.8,73.8z
		 M166.2,73.8L166.2,73.8L166.2,73.8l-0.2-0.1l0,0l0,0.1L166.2,73.8L166.2,73.8L166.2,73.8L166.2,73.8l0,0.1l0,0l0,0l0,0l0,0l0,0
		l0-0.1l0,0l0,0l0,0l0-0.1L166.2,73.8L166.2,73.8z M164.5,74.2L164.5,74.2l0-0.2l0,0l0,0l-0.1-0.1l0,0l0.1,0.1l0.1,0.1l0,0.1
		L164.5,74.2L164.5,74.2L164.5,74.2z M165.8,74L165.8,74l0.1,0.1l0-0.1L165.8,74L165.8,74z M163.4,74.3L163.4,74.3L163.4,74.3
		L163.4,74.3l0-0.1l-0.1,0l-0.1,0l0,0v0.1l0,0l0,0l0,0.1L163.4,74.3L163.4,74.3L163.4,74.3L163.4,74.3L163.4,74.3L163.4,74.3z
		 M165.3,74.3L165.3,74.3L165.3,74.3l-0.1-0.1l0,0l0,0l0,0l0,0h0l0,0l0,0.1l0,0.1l0,0l0,0l0,0l0,0l0,0l0,0l0,0l0.1,0l0.1,0l0,0
		L165.3,74.3L165.3,74.3z M165.9,74.3L165.9,74.3l-0.1-0.1l-0.1,0l0,0l0,0.1L165.9,74.3L165.9,74.3L165.9,74.3z M166,74.4L166,74.4
		L166,74.4L166,74.4l-0.1,0.1l0,0l0,0l0,0l0,0l0,0l0,0l0,0l0,0l0,0l0,0L166,74.4L166,74.4L166,74.4L166,74.4z M163.4,74.9
		L163.4,74.9L163.4,74.9l0,0.1l0,0l0,0.1l0,0l0-0.1l0,0l0,0L163.4,74.9L163.4,74.9L163.4,74.9z M163.2,75.2L163.2,75.2L163.2,75.2
		l-0.1,0.1l0,0.1l0,0l0,0l0,0L163.2,75.2L163.2,75.2L163.2,75.2L163.2,75.2z M165.1,75.2L165.1,75.2l-0.1,0l0,0L165.1,75.2l-0.1,0.1
		l0,0l0,0l0,0l0,0l0,0l0,0L165.1,75.2L165.1,75.2L165.1,75.2z M161.9,75.7L161.9,75.7L161.9,75.7l0.1,0.1l0.1,0l0.1,0l0-0.1l0,0
		l0-0.1l0,0l0-0.1l-0.1-0.1l-0.1-0.1l0,0l0,0l-0.1,0l0,0l0,0l0,0l0,0l0,0l-0.1,0l0,0l0,0l0,0l0,0l0,0l0,0l0,0l0,0l0.1,0l0,0l0-0.1
		l0,0l0,0l0,0l0,0l0,0L161.9,75.7L161.9,75.7L161.9,75.7z M163,75.4L163,75.4L163,75.4l-0.1-0.1l-0.1,0l0,0.1l0,0.1l0.1,0.1l0.1,0
		l0,0L163,75.4L163,75.4z M164.7,75.5L164.7,75.5L164.7,75.5l-0.1-0.1l0-0.1l0,0l0,0.1l0.1,0.1L164.7,75.5L164.7,75.5l0,0.1l0,0.1
		l0,0l0,0l0,0L164.7,75.5L164.7,75.5L164.7,75.5z M164.8,75.4L164.8,75.4L164.8,75.4l0.1,0.1L164.8,75.4L164.8,75.4L164.8,75.4
		L164.8,75.4z M164.9,75.7L164.9,75.7L164.9,75.7L164.9,75.7l-0.1,0.1l0,0L164.9,75.7L164.9,75.7L164.9,75.7L164.9,75.7z M162,76
		L162,76L162,76l-0.1,0l0,0.1l0.1,0.1l0.1,0.1l0.1,0l0-0.1L162,76L162,76z M162.3,76.7L162.3,76.7L162.3,76.7l-0.1-0.1l0,0l0,0l0,0
		l-0.1,0l0,0l-0.1,0l0,0l0,0.1l0.1,0.1l0.1,0l0,0l0,0l0,0L162.3,76.7l0,0.1l0,0.1l0,0l0-0.1L162.3,76.7L162.3,76.7z M162.3,77.2
		L162.3,77.2L162.3,77.2l0-0.1l0,0l0,0l0,0l0,0l0,0l0,0l0,0l0,0l0,0l0,0l0,0l0,0l0,0.1l0,0.1l0.1,0.1l0.1,0.1L162.3,77.2L162.3,77.2
		l0,0.1l0,0l0,0L162.3,77.2L162.3,77.2z M159.9,80.3L159.9,80.3l-0.1-0.1l0,0l0,0.1l0,0.1l0,0.1l0,0.1l0,0l0,0l0,0l0-0.1L159.9,80.3
		L159.9,80.3z M159.3,82.4l0.2,0.1l0,0l0,0l0,0l0-0.1l0-0.1l0,0l0,0l0,0.1L159.3,82.4L159.3,82.4l0-0.1l0,0l0-0.1l-0.1-0.1l-0.1,0
		l0,0l0,0.1l0,0L159.3,82.4L159.3,82.4L159.3,82.4z M157.8,92.7L157.8,92.7l0,0.1l0,0L157.8,92.7L157.8,92.7l-0.1,0.1l0,0.1l0,0
		l0.1,0l0,0l0,0l0,0L157.8,92.7L157.8,92.7L157.8,92.7L157.8,92.7L157.8,92.7z M149,97.2L149,97.2l0-0.1l0-0.1l0,0l0,0l0,0.1
		L149,97.2L149,97.2L149,97.2z M149.6,97.1l-0.1,0l0,0l0,0l0,0L149.6,97.1L149.6,97.1L149.6,97.1z M149.4,97.2L149.4,97.2
		L149.4,97.2L149.4,97.2L149.4,97.2z M149.2,97.6L149.2,97.6L149.2,97.6l0,0.1l0,0.1l0,0v-0.1L149.2,97.6L149.2,97.6L149.2,97.6z
		 M148.7,97.9L148.7,97.9L148.7,97.9l0-0.1l0-0.1l0,0l0,0.1L148.7,97.9L148.7,97.9L148.7,97.9z M148.2,98.2L148.2,98.2L148.2,98.2
		L148.2,98.2l0.1,0l0.1-0.1l0,0l0-0.1l0-0.1l0,0l0,0l-0.1,0l0,0l0-0.1l-0.1,0.1l0,0.1l0,0.1L148.2,98.2L148.2,98.2L148.2,98.2
		L148.2,98.2z M148.9,98.5L148.9,98.5l0-0.2l0-0.1l0,0l-0.1,0.1l0,0l0,0.2l0,0L148.9,98.5L148.9,98.5z M145.6,99.3L145.6,99.3
		L145.6,99.3l0,0.1l0,0L145.6,99.3L145.6,99.3L145.6,99.3L145.6,99.3z M147.4,99.9L147.4,99.9l0-0.1L147.4,99.9L147.4,99.9z
		 M146.2,100.6L146.2,100.6l0-0.1l-0.1,0l-0.2,0l0,0l0,0.1l0.1,0.2l0,0L146.2,100.6L146.2,100.6L146.2,100.6z M147,100.4l-0.1,0.1
		l0,0l0,0.1l0,0L147,100.4L147,100.4L147,100.4L147,100.4L147,100.4z M146.4,101.4l-0.2,0l0,0l0,0l0,0l0.3,0.2l0-0.1l0-0.1
		L146.4,101.4L146.4,101.4L146.4,101.4L146.4,101.4z M145.7,102.9L145.7,102.9L145.7,102.9L145.7,102.9z M144.9,105.4L144.9,105.4
		l-0.1,0.2l0,0.1l0,0.1l0.1,0l0,0l0,0l0,0l0.1-0.1l0,0l0,0l0,0L144.9,105.4L144.9,105.4z M144.2,107.9L144.2,107.9l-0.1,0l-0.1,0
		l0,0l0,0.1l0,0L144.2,107.9L144.2,107.9L144.2,107.9z M143.9,107.9L143.9,107.9L143.9,107.9L143.9,107.9L143.9,107.9L143.9,107.9
		L143.9,107.9L143.9,107.9z M144.2,110L144.2,110L144.2,110L144.2,110L144.2,110L144.2,110l0-0.1l-0.1,0L144.2,110L144.2,110
		L144.2,110z M143.2,111.3L143.2,111.3l-0.1-0.1l0,0l0,0l0,0l0,0l0,0.1l0,0h0l0.1,0L143.2,111.3L143.2,111.3L143.2,111.3
		L143.2,111.3z M143.7,111.4l-0.2,0l-0.1,0l0,0.1l0,0.1l0,0.1l0,0l0,0l0,0l0,0l0,0l0,0l0,0l0,0l0.2,0l0,0l0-0.1L143.7,111.4
		L143.7,111.4z M143.2,114.9L143.2,114.9L143.2,114.9L143.2,114.9l0.1-0.1l0,0l0,0l0,0l0,0l0,0l0,0L143.2,114.9L143.2,114.9
		L143.2,114.9z M143,115.9L143,115.9L143,115.9l0-0.1l0,0l0,0l0,0l0,0l0,0.1l0,0.1l0,0l0,0L143,115.9L143,115.9L143,115.9L143,115.9
		L143,115.9L143,115.9z M143.2,118L143.2,118L143.2,118L143.2,118l0.1,0.1h0l0.1,0l0,0l0,0l-0.1,0l0,0l0,0L143.2,118L143.2,118
		L143.2,118L143.2,118z M147.9,120.4L147.9,120.4L147.9,120.4l0-0.1l0,0l0,0l0,0l-0.1,0l-0.1,0l0,0l0,0L147.9,120.4L147.9,120.4z
		 M148.8,122.5L148.8,122.5l-0.1-0.1l0,0l0,0l0,0.1l0,0l0.1,0L148.8,122.5L148.8,122.5L148.8,122.5L148.8,122.5z M148.5,123
		L148.5,123l-0.2-0.1l-0.2,0l0.1,0.2l0.2,0.1l0.1,0l0,0L148.5,123L148.5,123L148.5,123L148.5,123z M148.6,122.9L148.6,122.9
		L148.6,122.9L148.6,122.9L148.6,122.9L148.6,122.9L148.6,122.9l0,0.1l0,0l0,0l0,0l0,0l0,0l0,0l0.1,0l0-0.1l0,0L148.6,122.9
		L148.6,122.9z M150.9,125.9L150.9,125.9L150.9,125.9l-0.1,0.1l-0.1,0.1l0,0l0,0l0,0l0,0l0,0l0.1-0.1l0,0L150.9,125.9L150.9,125.9
		L150.9,125.9z M150.7,126.5L150.7,126.5L150.7,126.5L150.7,126.5L150.7,126.5l0.1,0l0,0l0,0L150.7,126.5L150.7,126.5z M151,126.6
		L151,126.6L151,126.6L151,126.6L151,126.6l0.1,0.1L151,126.6l0.1,0l0,0l0,0l0,0L151,126.6L151,126.6L151,126.6L151,126.6z
		 M151,126.8l-0.1,0l0,0l0,0v0l0,0.1l0.1,0L151,126.8L151,126.8L151,126.8L151,126.8z M149.9,127.4L149.9,127.4l-0.2,0l0,0.1l0,0
		l0,0l0.1,0l0.1,0h0l0,0L149.9,127.4L149.9,127.4L149.9,127.4L149.9,127.4L149.9,127.4L149.9,127.4L149.9,127.4L149.9,127.4z
		 M151.2,127.5L151.2,127.5L151.2,127.5L151.2,127.5L151.2,127.5L151.2,127.5L151.2,127.5L151.2,127.5L151.2,127.5L151.2,127.5
		L151.2,127.5L151.2,127.5z M150.9,128.2L150.9,128.2L150.9,128.2l0.1,0l0,0l0,0l0,0l0,0l0,0l0,0L150.9,128.2L150.9,128.2z
		 M150.4,128.3L150.4,128.3l0.1,0.1l0,0l0.1-0.1l0,0l0,0l0,0l0,0L150.4,128.3L150.4,128.3z M149.2,129.1L149.2,129.1L149.2,129.1
		l-0.1,0l0,0L149.2,129.1l0.4,0l0,0l0,0l0,0l-0.1,0l0,0l0,0l0,0l0,0l0,0L149.2,129.1L149.2,129.1z M149.2,129.2L149.2,129.2
		L149.2,129.2l-0.1,0l0,0l0,0l0,0l-0.1,0l-0.1,0.1l0,0.1l0,0l0.1,0l0,0l0,0l0,0l0.1,0l0,0L149.2,129.2l-0.1,0.1l0,0L149.2,129.2
		L149.2,129.2z M147.5,129.6L147.5,129.6l0.2-0.1l0-0.1l-0.1-0.1l-0.1,0l0,0l0,0l0,0L147.5,129.6L147.5,129.6L147.5,129.6
		L147.5,129.6z M150.4,129.6L150.4,129.6L150.4,129.6L150.4,129.6L150.4,129.6z M147.8,129.7L147.8,129.7L147.8,129.7L147.8,129.7
		L147.8,129.7l-0.1-0.1l0,0l0,0.2L147.8,129.7l0.1,0.1l0,0L147.8,129.7L147.8,129.7L147.8,129.7z M150.2,129.7L150.2,129.7
		L150.2,129.7L150.2,129.7L150.2,129.7l0-0.1l0,0l0,0l0,0l0,0l0,0.1L150.2,129.7L150.2,129.7L150.2,129.7z M149.9,130.2L149.9,130.2
		L149.9,130.2L149.9,130.2L149.9,130.2L149.9,130.2L149.9,130.2L149.9,130.2l-0.1-0.1l0,0.1l0,0.1l0,0.1l0,0l0,0l0,0l0.1,0
		L149.9,130.2L149.9,130.2L149.9,130.2L149.9,130.2L149.9,130.2z M149.9,130.5L149.9,130.5L149.9,130.5L149.9,130.5L149.9,130.5
		L149.9,130.5L149.9,130.5L149.9,130.5z M150,130.8L150,130.8L150,130.8L150,130.8l0-0.1l0,0l0,0l0,0l-0.1,0l0,0L150,130.8
		L150,130.8z M148.8,131.6L148.8,131.6L148.8,131.6l0.1-0.1l0,0l0,0l0,0l0,0L148.8,131.6z M148.4,132.5L148.4,132.5L148.4,132.5
		L148.4,132.5L148.4,132.5L148.4,132.5L148.4,132.5l-0.1,0l0,0l0,0.2l0.1,0l0,0l0-0.1l0-0.1L148.4,132.5L148.4,132.5z M146.2,133.2
		l-0.1,0.2l0,0.1l0,0l0,0l0,0l0,0l0,0l0-0.1l0,0l0,0l0,0L146.2,133.2L146.2,133.2L146.2,133.2L146.2,133.2L146.2,133.2L146.2,133.2
		L146.2,133.2L146.2,133.2z M147,133.5L147,133.5L147,133.5L147,133.5L147,133.5l-0.2,0l0,0l0,0v0l0,0.1l0,0l0,0l0,0.1l0,0l0,0l0,0
		l0,0L147,133.5L147,133.5z M117.1,134L117.1,134L117.1,134L117.1,134L117.1,134l0-0.1l0,0l-0.1,0l0,0l0,0l0,0l0-0.1l0,0l0,0l0,0
		l0,0l0,0l0,0l0,0l0,0l0,0l0,0.1l0,0l0,0l0,0l0,0l0,0l0,0.1l0,0l0,0l0,0l0,0l0,0l0,0l0,0l0,0l0,0l0.1,0l0,0l0,0l0,0l0,0l0,0l0,0
		L117.1,134L117.1,134L117.1,134L117.1,134z M145.6,134.4l0-0.1l0-0.1l0,0l-0.1,0l0,0l0-0.1l0.1-0.1l0-0.1l0,0l0,0l0,0l0,0.1l0,0
		l0,0l0,0.1l0,0.1l0,0.1l0,0l0,0l0,0l0,0l0,0.1l0,0.1l0,0.1l-0.1,0l0,0l0,0l0.2,0l0,0l0,0l0-0.1l0,0l0,0l0,0L145.6,134.4
		L145.6,134.4L145.6,134.4z M146.6,134.2L146.6,134.2L146.6,134.2L146.6,134.2l0.1-0.1l0,0l0-0.1l0-0.1l0,0l0,0l-0.1,0.1
		L146.6,134.2L146.6,134.2L146.6,134.2L146.6,134.2L146.6,134.2L146.6,134.2z M144.7,134.5l-0.3-0.2l0,0l0,0l0,0.1l0.2,0.1
		L144.7,134.5l0.1,0.2l0,0l0-0.1L144.7,134.5z M144,134.9L144,134.9L144,134.9L144,134.9l0,0.1L144,134.9L144,134.9l-0.1,0l0,0l0,0
		l0,0.1l0.1,0l0,0l0,0l0,0l0,0l0,0l0,0l0,0.1l0,0l0,0l0,0l0.1-0.2l0,0l0.1,0L144,134.9L144,134.9z M143.9,135.2L143.9,135.2
		L143.9,135.2l0,0.2l0,0l0.1-0.1L143.9,135.2L143.9,135.2z M141.7,137L141.7,137L141.7,137l-0.1-0.1l-0.1,0h0l0,0l0,0l0.1,0.1
		L141.7,137L141.7,137L141.7,137L141.7,137L141.7,137z M141.8,137.2L141.8,137.2L141.8,137.2L141.8,137.2L141.8,137.2l0.1-0.1l0,0
		l-0.1,0l0,0L141.8,137.2L141.8,137.2L141.8,137.2z M141.2,140.1L141.2,140.1L141.2,140.1L141.2,140.1l-0.1,0l0,0.1l0.1,0.1l0.1,0
		l0.1,0L141.2,140.1L141.2,140.1L141.2,140.1l0,0.1L141.2,140.1L141.2,140.1L141.2,140.1L141.2,140.1L141.2,140.1L141.2,140.1z
		 M119.4,142L119.4,142L119.4,142L119.4,142L119.4,142l0.1-0.1l0,0l0,0l0,0l-0.1,0l-0.1,0l-0.1,0.1l0,0l0,0l0.1,0.1l0.1,0l0,0l0,0
		l-0.1,0l0,0l0,0l0,0l0,0l0,0v0l0,0l0,0l0.1,0l0,0l0,0l0,0l0,0l0,0l0,0l0,0L119.4,142L119.4,142L119.4,142L119.4,142z M140.7,142.3
		L140.7,142.3L140.7,142.3L140.7,142.3L140.7,142.3l0.1,0.1l0,0.1l0,0l0,0l0,0l0,0l0.1,0l0,0l0,0l0,0l0,0l0,0l0,0l0,0l0,0v0l0,0v0
		l0,0l-0.1,0l-0.1-0.1l-0.1,0l0,0L140.7,142.3L140.7,142.3L140.7,142.3z M140.5,142.5L140.5,142.5L140.5,142.5l0.1,0.1l0,0l0.1,0.1
		l0,0l0,0l0,0l0,0l0,0l0,0l0,0l0,0L140.5,142.5L140.5,142.5z M119.6,143.4L119.6,143.4L119.6,143.4L119.6,143.4L119.6,143.4
		L119.6,143.4l0-0.1l0,0l0,0l0-0.1l-0.1-0.1l0,0.1l0,0l0,0l0,0l0,0l0,0v0l-0.1,0l0,0l0,0l0,0l0,0l0,0l0,0l0,0.1l0,0L119.6,143.4
		L119.6,143.4L119.6,143.4L119.6,143.4L119.6,143.4L119.6,143.4z M140.7,144L140.7,144l0,0.1l0,0l-0.1,0l0,0l0,0l0,0l0,0l0,0.1l0,0
		l0,0l0,0l0,0l0,0l0,0l0,0l0,0l0,0l0,0l0,0l0.1-0.2l0-0.1l0-0.1L140.7,144L140.7,144z M140.1,147.4L140.1,147.4L140.1,147.4
		L140.1,147.4L140.1,147.4l-0.1,0.1l0,0l0,0l0,0l0.1-0.1L140.1,147.4L140.1,147.4L140.1,147.4L140.1,147.4z M136.8,155.4
		L136.8,155.4L136.8,155.4L136.8,155.4l-0.1,0l0,0l0,0l0,0l0,0l0.1,0.1l0,0l0,0l0,0l0,0L136.8,155.4L136.8,155.4L136.8,155.4
		L136.8,155.4z M136.2,155.4L136.2,155.4L136.2,155.4L136.2,155.4L136.2,155.4L136.2,155.4l-0.2,0.1l0,0l0,0l0,0l0.1,0l0,0l0,0
		L136.2,155.4L136.2,155.4L136.2,155.4L136.2,155.4z M135.8,155.4L135.8,155.4L135.8,155.4l-0.1,0.1l0,0l0,0l0,0l0.1,0l0,0l0-0.1
		l0-0.1L135.8,155.4z M135.6,155.4L135.6,155.4l-0.1,0l0,0.1l0,0l0,0l0,0l0,0l0.1,0l0,0l0,0l0,0l0-0.1L135.6,155.4L135.6,155.4
		L135.6,155.4L135.6,155.4z M123.9,157L123.9,157l-0.1,0l0,0l0.1,0.2l0,0l0-0.1L123.9,157L123.9,157z M151.2,138.2l0.2,0.1l0.2-0.1
		l0.2-0.1l-0.1-0.1l-0.2-0.1l-0.1-0.1h-0.1L151.2,138.2z M148,130.9l0.2,0.1l0.2,0.2l0.1,0l0.1-0.2l-0.2,0l-0.1-0.1l0-0.2l0.1,0.1
		l0.1,0l0.2,0l-0.4-0.2l-0.3-0.1l-0.5,0l0.2,0.1l0.1,0.1l0,0L148,130.9L148,130.9z M158.4,91.2l-0.1-0.2l-0.2,0l-0.1,0.3l0.1,0l0,0
		l0,0l0,0.1l0,0.1L158.4,91.2z M147.8,121.4l0.1,0.2l0.2,0.1l0.2,0.3l0.2,0.1l0,0l0-0.1l0,0l0,0l0,0l0,0l-0.1-0.1l0-0.1l0-0.1
		l-0.1,0.1l-0.1,0l0-0.1l0-0.1l-0.2-0.4l0-0.1l0.1,0l0.1,0.1l0.1,0l0-0.1l-0.1-0.1l-0.1-0.1l0-0.1l0,0l0,0v0l0,0l0-0.1l0,0l-0.1,0
		l0,0l0,0.1l0.1,0.2l0,0.1l0,0.4L147.8,121.4z M166.3,71.9l0-0.2l-0.2-0.2l0,0l0,0.2l0,0.1l0,0.1l0,0.1l0,0.1l0,0.1l0.1,0.1l0.2,0
		l0-0.1L166.3,71.9z M170.3,72.1L170.3,72.1l0-0.1l0,0l0,0l0-0.1l0-0.1l0-0.1l0,0l0,0l0,0.1l0,0l0,0l0,0l0,0.1l0,0l0,0l-0.1,0l0-0.1
		l0,0l0,0.1l0,0l0,0l0-0.1l0,0.1l0,0.2l0.1,0.1l0.2,0.1L170.3,72.1z M166.9,72.4L166.9,72.4l0-0.1l0,0l0,0l0-0.1l0-0.1l-0.1-0.1
		l-0.1-0.1l0,0l0.1,0l0-0.1l-0.1-0.1l-0.1,0l-0.1,0.1l0,0.2l0.1,0.2l0.1,0.2l0.1,0.1l0.1,0L166.9,72.4z M165.3,73.3L165.3,73.3
		l0.1,0.1l0.1-0.1l0-0.1l-0.1,0L165.3,73.3L165.3,73.3z M165.1,73.5L165.1,73.5l0,0.1l0.1,0.1l0,0l0,0l0,0l0,0l0,0l0,0l0-0.1l0-0.1
		l0,0l0.1,0l0-0.1l-0.1,0l-0.2,0.1l-0.1,0L165.1,73.5L165.1,73.5L165.1,73.5z M164.1,74.5L164.1,74.5l-0.1-0.1l0,0l0,0l0-0.1l0,0
		l0.1,0l0.1,0l0.1,0.1l0,0.1l0,0l0.1,0l0-0.1l-0.1-0.1l0-0.1l0,0l0,0l0,0l-0.3-0.2l-0.1,0l-0.1,0l0,0l0,0.1l0.1,0.2L164.1,74.5
		L164.1,74.5L164.1,74.5L164.1,74.5z M165.5,74.2L165.5,74.2l0-0.1l-0.1,0l0,0l0,0l-0.1-0.1l0,0.1l0.1,0.1l0.1,0L165.5,74.2
		L165.5,74.2z M163.9,74.9L163.9,74.9l-0.1-0.1l0-0.1l0,0l0-0.1l-0.2-0.1h-0.1l0,0.1v0.1l0,0l0,0.1l0,0.1l0,0l0.2,0l0,0l0,0l0.1,0
		l0-0.1L163.9,74.9L163.9,74.9z M164.5,75L164.5,75l0.1-0.2l0-0.1l-0.1,0l-0.1,0l-0.1,0.1l-0.1,0.1l0,0l0-0.1l0,0l0,0l0,0.1l0,0.1
		l0,0L164.5,75L164.5,75z M158.4,91.3L158.4,91.3L158.4,91.3l-0.1,0.1l0,0.1l-0.1,0.5l0,0.1l0.1-0.1l0,0l0,0l0.1-0.1l0.1-0.1l0-0.1
		l0-0.1l0-0.1l0-0.1l0-0.1L158.4,91.3l0.1,0L158.4,91.3L158.4,91.3l0.1-0.1l0,0L158.4,91.3L158.4,91.3z M158.2,92.1l-0.2,0.2l0,0.1
		l0.1,0l0.1-0.1l0-0.1V92.1L158.2,92.1L158.2,92.1z M146.7,101.1L146.7,101.1L146.7,101.1L146.7,101.1l0.1-0.2l0-0.1l0-0.1l0,0
		l-0.1,0l-0.1,0.1l0,0l0-0.1l-0.1,0l-0.1,0l-0.1,0.1l0,0.1l0,0.1l0,0.2l0.1,0.2l0.2,0l0.2-0.1l0-0.1L146.7,101.1L146.7,101.1
		L146.7,101.1L146.7,101.1z M149.2,123.1L149.2,123.1L149.2,123.1l0,0.1l0,0.1l0,0.1l0,0l0.1,0l0.1,0l0.1,0l0.1-0.1l0-0.1l0-0.1l0,0
		l0,0l0,0l0,0l0,0l0-0.1l0,0l0,0l0,0l0-0.1l0,0l-0.1,0l-0.1,0l0,0L149.2,123.1L149.2,123.1L149.2,123.1z M150.3,126.2l0-0.1l0-0.1
		l0-0.1l0,0l0,0l0,0l0,0.1l-0.2,0.3l0,0.1l0,0.1l0.1,0l0,0l0,0l0,0l0,0l0.1,0l0.1,0l0.1,0l0,0l0,0l0,0l0,0l0,0l0,0l0,0l0,0
		L150.3,126.2z M149.6,128l-0.1,0.1l-0.1,0.1l-0.1,0l0,0l0.1,0l0.1,0l0.1-0.1l0,0l0,0l0,0l0,0L149.6,128l0.2,0l0,0l0.2-0.3l0.1-0.1
		l0-0.1l-0.3,0.2L149.6,128L149.6,128z M150.3,127.9L150.3,127.9L150.3,127.9L150.3,127.9l-0.1-0.2l-0.1,0l-0.1,0l-0.3,0.4l0,0.1
		l0,0.1l0.1,0l0,0l0,0l0-0.1l0.1-0.3l0,0l0.1,0L150.3,127.9L150.3,127.9L150.3,127.9L150.3,127.9z M148.8,129L148.8,129L148.8,129
		l0.1-0.1l0,0l0.1-0.1l0.2-0.1l0,0l-0.2,0.1l0,0l0,0l0,0l0,0l-0.1,0l-0.1,0l-0.1,0l-0.1,0.1l-0.1,0.1l-0.1,0.1l0,0.1l0,0.1l0,0l0,0
		l0,0l0,0l0,0l0,0l0,0l0,0l0,0l0,0l0,0l0,0l0,0l0-0.1l0,0l-0.1,0l0,0l0,0.1l0,0l0,0l0,0.1l0,0.1l0,0.1l0,0.1l0,0.1l0,0l0,0l0,0l0,0
		l0,0l0-0.3l0,0.1l0,0l0,0l0-0.1l0-0.2L148.8,129L148.8,129L148.8,129L148.8,129L148.8,129z M150,129.4L150,129.4L150,129.4
		l-0.1-0.1l-0.1,0l-0.1,0l-0.1,0.1l0,0.1l0.1,0l0.1-0.1L150,129.4z M149.7,129.7L149.7,129.7L149.7,129.7L149.7,129.7L149.7,129.7
		L149.7,129.7L149.7,129.7L149.7,129.7z M150.1,129.9L150.1,129.9l0-0.1l0,0l-0.1-0.1l-0.1,0l0,0l0,0.1l0,0l0,0l0.1,0.1L150.1,129.9
		L150.1,129.9z M147.1,130L147.1,130L147.1,130l-0.5-0.2l-0.1,0l0,0.1l0,0l0,0.1l0,0.1l0.1,0.1l0.1,0.1l0.1,0l0.1,0l0-0.1L147.1,130
		l-0.1,0L147.1,130L147.1,130z M148.9,130.1L148.9,130.1l0.1,0.1l0,0.1l0,0.1l0,0l0,0l0,0l0,0.1l0,0l0,0l0.2-0.1l0.1-0.1l0-0.1
		l0-0.1l0,0l0,0l0,0l-0.1-0.1l0,0l0,0l0,0l0,0l-0.2,0l0,0L148.9,130.1L148.9,130.1z M149.5,130.8L149.5,130.8L149.5,130.8l0.1-0.1
		l0,0l0,0l0,0l-0.1,0l-0.1,0l-0.1,0.1l-0.1,0.1l0,0.1l0,0l0,0l0,0l0,0l0,0l0,0l0,0l0,0l0,0l0,0L149.5,130.8z M149.3,131.3l-0.1,0
		l0,0l-0.1,0l-0.1,0.1l0,0.1l0,0.1l0,0L149.3,131.3L149.3,131.3L149.3,131.3z M147.6,132.7L147.6,132.7L147.6,132.7l0,0.2l0,0.1l0,0
		l0,0l0,0h0l0,0l0,0l0,0l0,0l0,0l0,0l0-0.1l0,0l0-0.1l0.1-0.1l0.1-0.2l0,0l0,0l0,0l0,0l0-0.1l0-0.1l-0.1,0l-0.1,0l-0.1,0.1l-0.1,0.1
		l-0.2,0.1l0,0l0,0l0,0.1l0,0l0,0l0,0l0,0L147.6,132.7L147.6,132.7L147.6,132.7L147.6,132.7z M144.6,133l0,0.1l0,0.1l0,0.1l0,0
		l0,0.1l0,0.1l0,0.1l0,0l0,0l0.1,0.2l0,0l0-0.1l0-0.1l0,0l0,0l0-0.1l0-0.1l0-0.1l0-0.1l0-0.1l0-0.1l0-0.1l0-0.1l0-0.1l0-0.1l0-0.1
		l0-0.1l0,0l0,0l0,0l0-0.1l0,0l0,0.1l0,0.2l0,0.1l0,0L144.6,133L144.6,133z M146.6,133.2L146.6,133.2l0.1,0.1l0.1,0l0-0.1l0-0.1
		l0-0.1l0-0.1l0,0l0,0.1l0,0l0,0l0,0l0,0l0,0l0-0.1l0,0l0,0l0,0l0,0l0.2-0.1l0,0l-0.2,0l-0.1,0l-0.1,0l-0.1,0l0,0l0,0.1l0,0.1l0,0
		l0,0l0,0l0,0l0,0.1l0,0l0,0l0,0l0.1,0L146.6,133.2L146.6,133.2L146.6,133.2z M147.4,133.3L147.4,133.3L147.4,133.3l-0.1,0l-0.1,0
		l-0.1,0.1l-0.1,0.1l-0.1,0.1l0,0.1l0,0l0,0l0,0l0.1-0.1l0.1,0l0.1,0l0.1,0l0,0l-0.1,0l0-0.1l0,0l0,0l0,0l0,0l0.1-0.1l0.1-0.1l0-0.1
		l0,0L147.4,133.3L147.4,133.3z M141.1,138.2L141.1,138.2l0,0.1l0.1,0.1l0.1,0.1l0.1,0l0.1,0l0.1,0l0,0l0,0l0,0l0,0l0,0l0,0l-0.1,0
		l-0.1,0l-0.1-0.1l-0.1-0.1L141.1,138.2l0.1-0.1h0l0,0l-0.1-0.1l0,0l0,0l0-0.1l0,0l0,0l0,0l-0.1,0l0,0l0,0l-0.1,0l0,0l-0.1,0l0,0.1
		l0,0.1L141.1,138.2L141.1,138.2L141.1,138.2z M141.3,138.5L141.3,138.5l0,0.2l0,0.1l0,0l0.1,0l0-0.1l0-0.1l0-0.1L141.3,138.5
		L141.3,138.5z M136.5,155.5L136.5,155.5L136.5,155.5l-0.1,0l0,0l-0.1,0l-0.1,0.1l0,0.1l0.1,0.1l0,0l0,0l0,0l0,0l0-0.1l0-0.1
		L136.5,155.5L136.5,155.5L136.5,155.5L136.5,155.5L136.5,155.5L136.5,155.5z M119.2,141.4L119.2,141.4L119.2,141.4l0.1,0.1l0,0
		l0-0.1l0,0l0.1,0l0,0l0-0.1l0-0.2l0-0.1l0.1-0.1l0.1,0l0,0.1l0,0.1l0,0l0.1,0l0,0l0-0.2l0,0l0,0l0-0.1l-0.1,0l-0.1,0l-0.1,0.1
		l-0.1,0h-0.4l-0.2,0l-0.1,0l0,0.1l0,0.1l0.1,0h0.1l0.1,0l-0.1,0l-0.1,0l0,0l0,0.1l0,0.1l0,0.1l0,0.1l0,0.1l0,0L119.2,141.4
		L119.2,141.4z M119,140.3L119,140.3L119,140.3l0.1-0.2l0.1-0.1l0.1,0l0.1,0l0.1,0.1l0.1-0.1l0.2,0.1l0.2-0.2l0.1,0l0.1,0l0-0.1
		l0-0.4l0-0.2l0-0.2l-0.1-0.1L120,139l-0.1-0.1l0-0.2l-0.1,0l-0.1,0l-0.1,0l0,0l0,0.1l0,0l0,0.1l0,0.1l0,0.1l-0.1,0l-0.1,0l-0.1,0
		l-0.1,0l-0.1,0.1l-0.1,0.1l-0.4,0.4l-0.1,0.1l0,0.1l0,0.1l0.1,0.1l0,0.1l0,0.2h0v-0.3L119,140.3L119,140.3L119,140.3z M151.6,141.2
		l-0.1,0l-0.1,0l-0.1,0l0-0.1l-0.1,0.1l-0.1,0l-0.1,0l0,0l-0.1,0.1l-0.1,0l-0.1,0l0,0.1l0,0.1l0,0.1l0,0.1l-0.1,0.1l0,0.1l0,0.1
		l0.1,0.3l0.1,0.1l0.1,0.1l0.1,0l0.1,0l0,0l0.1-0.2l0-0.1l0-0.1l0,0l-0.1,0l0.1-0.1l0.2-0.1l0.1-0.1l0.1-0.1l0.2,0.1l0.1-0.1l0,0
		l0,0l0,0l0,0L151.6,141.2L151.6,141.2z M150.5,142.1L150.5,142.1l-0.1-0.1l0-0.1l0-0.1l0-0.1l0,0l-0.1,0l-0.1,0l-0.1,0l-0.1,0
		l0,0.1l-0.1,0l-0.1-0.1l0.1-0.1v0l-0.3,0l-0.1,0l0,0.1l0,0.1l0,0l0,0.1l-0.1,0.1l-0.1,0.1l0,0.2l-0.1-0.1l0-0.1l0-0.1l0,0l0,0l0,0
		l0,0l0,0l0,0l0,0l0,0l-0.1-0.1l-0.1-0.1l-0.1,0l-0.1,0l-0.1,0.1l-0.1,0.1l-0.1,0.1l-0.1,0.1l0,0.1l0,0.1l0,0.1l-0.1,0l-0.1,0
		l-0.1,0l-0.1,0l-0.2,0.1l-0.2,0.2l-0.6,1l-0.7,0.7l-0.1,0.2l-0.1,0.3l0,0.2l0,0.2l0,0.2l0,0.1l0,0l0,0.1l0,0l0,0.1l0,0l0,0l0,0l0,0
		l-0.1,0.1l0,0.1l0,0.2l-0.1,0.1l-0.2,0.1l-0.1,0.1l0,0.1l0.3,0.2l0.1,0.7l0.2,0.1l0,0l0,0.1l0,0l0.1,0l0,0.1l0,0.1l-0.1,0.1v0.1
		l0.1,0l0.1-0.1l0.1-0.1l0.1-0.1l0,0.1l0,0.2l0,0.1l-0.1,0.1l-0.2,0.1l-0.1,0.1l0,0.1l0,0.1l0,0.1l-0.3,0.5l0.1,0.1l0.1,0l0.4-0.2
		l0.1,0l0-0.2l0-0.1l0.1-0.1l-0.1-0.1v-0.1h0.2l-0.1-0.1l-0.1-0.1l0-0.1l0-0.4l0.1-0.1l0.3-0.2l0.1-0.1h-0.3l0.1-0.1l0.1-0.1
		l0.5-0.3l0.1,0v0h-0.1v-0.1l0.1-0.1l0.4-0.1l0,0l0.1-0.1l0-0.2l0,0l-0.1,0l0,0l0-0.1l0.1-0.1l0.2-0.1l0.1-0.1l0.1-0.1l0.1-0.1
		l0.1,0l0,0l0.1-0.1l0,0l0,0l0,0l0,0h0.1l0.1,0l0-0.1l0-0.1l0-0.1l0-0.1l0,0l-0.1-0.1l-0.1,0l0,0l0,0l0,0l-0.2,0l-0.2-0.1l0-0.1l0,0
		l-0.1,0l-0.1,0l0-0.1l0-0.1l-0.1-0.1l0-0.1l0.1-0.1l0-0.1l0-0.1l0-0.1l0-0.1l0-0.1l-0.2-0.1l0,0l0-0.1l0-0.1l0,0l0-0.1l0.1-0.2
		l0.1-0.3l0-0.1l0-0.1l0-0.1l0.1,0l0,0l0.1,0.1l0.1,0l0.2,0l0.2,0l0-0.1v-0.1l0-0.1l0-0.1l0-0.1l0,0l0.1,0l0,0.1l0-0.3l0.1-0.1
		l0.3,0l0-0.1L150.5,142.1z M142.5,146.2L142.5,146.2L142.5,146.2L142.5,146.2l-0.1-0.1l0,0l0,0h0l0,0.1l0,0l0,0l0-0.1l0,0l-0.1,0
		l-0.1,0.1l-0.1,0.2l-0.1,0.1l0,0.1l0,0.4l0,0.1l-0.1,0.1l-0.1,0l0,0l0,0.1l-0.1,0.6l-0.2,0.5l-0.2,0.4l-0.2,0.5l-0.1,0.3l-0.1,0.1
		l-0.1,0l-0.1,0l-0.1,0l-0.1,0.1l-0.7,1.8l0,0.2l0,0.1l-0.1,0.2l-0.1,0.2l0,0.1l0,0.7l0,0.1l0,0.1l0,0.1l0,0.1l0,0.3l0,0.2l0,0.2
		l0.1,0.2l0,0.1l0,0.2l0,0.1l0.1,0.1l0.1,0l0.1-0.1l0.1-0.1l0.2-0.5l0-0.1l0-0.1l0.1-0.1l0-0.1l0-0.2l0-0.1l0-0.1l0-0.2l0.1-0.2
		l0.1-0.1l0-0.1l0-0.1l0-0.1l0,0l0-0.1l0,0l0,0l0,0l0,0l0-0.2l0-0.1l0.1,0l0,0l0-0.1l0-0.1l0-0.1l0-0.2l0-0.1l0.2-0.8l0-0.2l0-0.1
		l0-0.1l0-0.1l0-0.1l0,0l0.2-0.1l0,0l0-0.1l0.1-0.4l0-0.1l0.1-0.1l0-0.1l0-0.2l0-0.1l0.1-0.2l0.1-0.1l0.1-0.1l0,0l0,0l0,0l0-0.1
		l0.1-0.1l0.1,0l0.1-0.1l0-0.2l0-0.1l0.2-0.3l0-0.1l0-0.1l0-0.1l0,0l0.1,0l0,0l0,0l0-0.1l0.1-0.2l0-0.1l-0.1-0.2l0.1-0.3l0.1-0.1
		L142.5,146.2L142.5,146.2L142.5,146.2z M171.2,71.3l0.2,0l0.1-0.1l0,0l0,0l0,0l0-0.1l0.3,0.1l0.1,0L172,71l0-0.2l-0.2-0.3l-0.1-0.4
		l-0.1-0.2l-0.1-0.2l0-0.2l0-0.2l-0.1-0.5l0-0.1l0-0.1l-0.1-0.1l0-0.1l0-0.1l-0.2-0.7l-0.1-0.1l-0.4-0.2l-0.1-0.1l-0.1-0.2l-0.1-0.5
		l0-0.3l-0.1-0.2l0-0.1l0-0.1l0-0.1l0-0.1l0-0.1l0-0.2l0-0.1l0-0.1l-0.1-0.2l0-0.1l0-0.2l0.1-0.2l0.1-0.1l0.1,0V64l0.1-0.1l0.1-0.1
		l0.1-0.1l0-0.1l0.2-0.2l0.1-0.1l0-0.2l0-0.2l0-0.2l0-0.2l0-0.2l0-0.2l0-0.2l0-0.2l0-0.4l0-0.1l0.1-0.2l0.1-0.2l0.1,0l0.1,0l0.1,0
		l0-0.1l0-0.1l-0.2-0.5l-0.1-0.3l-0.1-0.2l-0.2-0.2l-0.2-0.5l-0.1-0.1l-0.1-0.1l-0.1-0.1l-0.1-0.2l-0.2-0.4l0-0.1l0-0.1l0-0.1l0-0.1
		l0-0.1l0-0.1l0,0l-0.1-0.2l-0.1-0.1l-0.1-0.1l0-0.2l0.1-0.1l0-0.1l0-0.1l0-0.1l-0.1,0l0-0.1l0-0.2l0-0.2l0.1-0.1l0.5-0.2l0.1-0.2
		l0.1-0.3l-0.1-0.1l0-0.3l0-0.3l0-0.2l-0.1-0.1l-0.1,0l-0.3-0.1l-0.3-0.2l-0.2,0l-0.2,0.1l-0.2,0l-0.1-0.2l-0.1-0.3l0.1-0.2l0.1-0.2
		l0.1-0.2l0-0.1l0.1-0.1l0.2-0.1l0.1-0.1l0-0.3l0-0.2l-0.1-0.3l0-0.2l0-0.4l0-0.2l0-0.1l0-0.7l0-0.2l0-0.3l0-0.3l0.1-0.2l0.1-0.1
		l0.3-0.1l0.1-0.1l0.1-0.2l0-0.2l-0.1-0.1l-0.3-0.1l-0.4-0.5l-0.1-0.1l-0.3-0.3l0-0.1l0-0.1l-0.2-0.7l0-0.1l-0.1-0.1l-0.1,0
		l-0.4,0.3l-0.1,0l0-0.1l0,0l0,0l0-0.1l0-0.1l0-0.1l0-0.3l0-0.1l0-0.1l0-0.3l-0.1-0.2l-0.2-0.2l-0.1-0.1l0-0.1l0-0.1l0-0.1l-0.1-0.1
		l-0.6-0.4l-0.1-0.2l-0.2-0.4l-0.1-0.1l-0.3,0.1l-0.1-0.2l-0.1-0.2l-0.1-0.1l-0.1,0l-0.1,0l-0.1,0l-0.2-0.1l-0.2,0l-0.3-0.2l-0.3,0
		l0,0l0-0.1l0,0l-0.3-0.1l-1,0l-0.1-0.1l0-0.1l0-0.1l0-0.1l0,0l0,0l-0.1-0.1l-0.1-0.1l-0.1-0.2l0-0.1l-0.2-0.2l-0.8-0.2l-0.1-0.4
		l-0.2-0.2l-0.4-0.4l-0.3-0.1l-0.1-0.1l-0.1-0.1l-0.1-0.4l0-0.1l0-0.1l-0.1-0.1l-0.3,0l0,0l0,0l0-0.1l0,0l-0.1-0.1l-0.2-0.5
		l-0.3-0.3l-0.3-0.3l-0.7-0.3l-0.1-0.1l0-0.2l0.1-0.1l0.1-0.2l0-0.2l-0.1-0.2l-0.2-0.1l-0.3-0.3l-0.5-0.1l-0.2-0.2L155,36l1,1.3
		l0,0.2l0,1l0,0.2l-0.1,0.2l-0.4,1.2l-0.4,0.6l-0.8,0.8l1.2,0.7l-1,1.3l-0.2,0.1l-0.2,0l-1.9-0.8l-1.9-0.9l-1.4,0.1l-0.2-0.1
		l-0.7-0.7l-0.2-0.1l-1.1,0.4l0,0.1l0,0.1l-0.1,1.1l0,0.3l0.2,2.2l-0.1,0.5l-0.8,1.6l-0.1,0.3l-0.1,0.2l-0.1,0l-2.4-1.5l-0.1,0.1
		l-0.3,0.6l-1.7,1.4l-0.1,0.2l-0.1,0.2l-0.6,2.5l-0.1,0.2l-0.4,0.7l-0.2,0.3l-0.3,0.1l-0.7,0.1l-0.1,0.1l-0.2,0.8l1.3,2.4l0,0.2
		l-0.1,1.4l-0.1,0.2l-0.1,0.1l-0.2,0.2l-0.8,0.8l-0.4,0.5l-1.5,3.1l-1,1.1l0,0.3l0.2,1.3l0,0.3l0,0.2l0,0.1l-1.8,1.3l-2.1,0.3
		l0.4,2.9l0,0.4l0,0.2l-0.3,0.7l0,0.2l-0.2,2.4l0,0.5l0,0.5l0,0.5l-0.1,0.3l-0.3,0.3l-0.1,0.2l-0.1,0.2l-0.1,0.9l-0.1,0.4l-0.6,0.9
		l0,0l-2.2,4l1.2,0.9l0.2,0.1l0.3,0.1l0.2,0.1l0.1,0.2l0.2,2.3l0,0.2l-0.1,0.2l-0.7,1.4l-0.1,0.1h-0.1l-3-0.8l-1.1,0.3l-1,0.6
		l-0.3,0.3l-0.8,1.4l-0.8,1.4l-0.5,0.6l0.2,1l0,0.2l-0.1,0.2l-0.9,1.5l1,2.7l-0.5,0.7l0,0.1l0,0.2l0.2,1.4l0,0.2l-0.1,0.3l-0.1,0.4
		l-0.1,0.3l0,0.2l0.8,2.3l0.1,0.4l0,0.5l-0.7,4.5l0.1,0.1l0.5,0.5l0.2,0.2l0.3,0.4l0.1,0.1l0.2,0l0.3,0l0.1,0.1l0.1,0.1l1.1,1.5
		l0,0.1l0,0.1l-0.1,0.8l-0.1,0.2l-0.1,0.2l-0.3,0.5l0,0.1l0,0.1l-0.1,0.6l0,0.1l-0.1,0l-0.5-0.1l-0.2,0l-1,0.3l-0.1,0.1l0,0.2
		l0.2,0.4l0.1,0.3l0.1,0.6l0.1,0.3l0.1,0.3l0.4,0.8l0.5,1.2l0.1,0.2l0,0.3l0,0.3l0,0.2l-0.1,0.2l-0.1,0.1l-0.2,0.3l-0.1,0.1l0,0.1
		l0,0.3l0.1,0.5l0,0.3l-0.1,0.4l-0.1,0.3l-0.2,0.3l-0.7,0.8l-0.6,0.5l-0.2,0l-0.7-0.1l-0.2,0.1l-0.2,0.2l0,0.3l0,0.1l0.1,0.2
		l0.1,0.1l0,0.1l0,0.3v0.2l0,0.1l-0.2,0.3l-0.1,0.1l-0.6,0.3l-0.1,0.1l0,0.2l0,0.2l0.4,1.6l0.1,0.5l0,0.2v0.2l0,0.1l-0.1,0.1l0,0.1
		l-0.1,0.5l0,0.4l0,0.2l-0.1,0.4l0,0.2l0,0.2l-0.1,0.4l-0.2,0.2l-0.3,0.1l-0.3,0l-0.1-0.1l0-0.5l-0.1-0.2h0l-0.1-0.1l-0.1-0.1
		l-0.1-0.2l0-0.2l-0.1-0.2l-0.1-0.1l-0.4,0.1l-0.1,0.1l-0.3,0.4l0,0.1l0,0.1l0,0.1l0.1,0l0.2,0l-0.2,0.1l-0.1,0.1l0,0.1l0,0.1
		l0.1,0.1l0.2,0.1l0,0.1l0,0l0,0l0,0.1l0,0.1l0,0.2l0,0.1l0,0l0,0l0,0l0,0.3l0,0.1l0,0.1l0,0.1l0,0.1l0,0.1l-0.1,0l0,0.1l0,0.1
		l0,0.1l0.1,0l0,0l0,0.1l0,0.2l0.2,0.2l0,0.1v0.1l0,0.1l0,0.1l0,0.1l0,0l0,0l0,0.1h0.1l0,0.1l0,0l0,0l0,0.1l0,0.1l0,0.2l0,0l0,0l0,0
		l0,0l0,0l0,0.1l0,0l0,0l0.2,0.1l-0.1,0.1l-0.1,0.1l0,0.1l0,0.2l-0.1,0l-0.1,0l0,0.1l0.1,0.2l0,0.1l0,0.1l0,0.1l0,0.1l0,0.1l0.1-0.2
		l0.1,0l0.1,0l0.1-0.1l0,0l0-0.1l0,0l0,0l0.1-0.1l0.2-0.3l0-0.1l0,0.1l0,0.1l-0.1,0.2l-0.1,0.3l0,0.1l0,0l0.1,0l0-0.1l0-0.1l0-0.1
		l0-0.1l0.1,0l0,0.2l0.1,0.1l0,0.1l-0.1,0l-0.1,0l0,0.1l0,0.1l0,0.1l0,0l0.1-0.1l0.1,0v0.1l-0.1,0.1l-0.1,0.1l0,0.1l0,0.1l0.3-0.2
		l0.1-0.1l0.1-0.2l0.1-0.2l0-0.3l0-0.3l0-0.2h0l0,0.1l0.1,0.3l0,0.1l0.1-0.1l0.1-0.1l0.1,0l0.1,0.1l-0.1,0.1l-0.1,0.1l-0.1,0.1
		l0.1,0.1l-0.2,0.3l-0.1,0.2l-0.1,0.2l-0.1,0.2l0,0.2l0,0.1l0.1,0l0-0.1l0,0l0,0l0.1,0l0.1,0l0.1,0l0,0l0.1-0.1l0,0l0,0l0.2-0.2
		l0.1,0l0.1,0l0-0.1l0.1,0l0.2,0l0.2-0.1l0.1,0l0.1,0.1l-0.2,0.1l-0.1,0.1l0,0.2l0,0.1l0,0.1l0,0.1l0,0.2l0,0.1l0.1,0l0.1,0l0,0.1
		l0,0l0,0l-0.1,0l0,0l0,0.1l0,0.5l0,0.1l-0.1,0l0,0.1l0,0l0,0l-0.1,0.1l0,0.1l0,0.1l0,0.1l0,0.1l0,0.1l-0.1,0.2l-0.2,0.3l0,0.1
		l0.1,0.1l0,0.1l0,0l0,0v0.1h0.1v0l-0.2,0.1l-0.1,0.1l0,0.2l-0.1,0l-0.1,0l-0.1,0.1l0.1,0l0.1,0.1l0.1,0.2l0.1,0.1l0.1,0l0.1,0
		l0.1,0l0,0.1l0,0.1l-0.4,0.4l0,0.1l0,0.1l0.1,0l0.1,0l0.1,0l0-0.1l0.1,0l0.2,0.1l0.1,0l0.1,0l0.1,0l0.1-0.1l-0.1,0.1l-0.3,0l0,0.2
		l0,0.1l0,0.1l0,0.1l0,0.1l0,0.1l0.1,0l0.1-0.1l0-0.1l0,0l0,0l0,0l0,0.2l0,0.4l-0.1,0.1l0,0l0.1,0.1l-0.1,0l0,0l0.1,0l0.1,0.1
		l-0.1,0l-0.1,0.1l0,0.1l0,0.1l0,0.1l0,0.1l0,0.1l-0.1,0.1l0,0l0,0l0,0l0,0l0,0.2h0.1l0.1,0l0,0.1l0.1-0.1l0.1-0.5l0.1-0.1l0,0l0,0
		l0,0l0,0l0,0l0.1,0.3l0,0.1l0,0.1l-0.1,0.1h0.2l-0.1,0.1l-0.1,0.1l-0.1,0.1l0.1,0.1l0,0l0.1,0l0,0l0,0l0,0l0,0l0,0l0,0l0,0.1l0,0.1
		l0,0.1l0,0v0.1l0,0l-0.1,0l0,0l0,0.1l0,0v0.1l0.1,0l0.1,0l0.1,0l-0.1,0l-0.1,0h-0.1l0.1,0.1l0.1,0l0.1,0l0.1,0l0,0l0,0.1l-0.1,0.1
		l0.1,0l0.1,0l0,0l0,0.1l0,0.2l0,0.1l0.1,0.2l0,0.1l-0.1,0.1l0.1,0.1l0,0l0,0.1l0.1,0.1l0.1,0.1l0.1,0.1l0,0.1l0,0.1l0,0l0,0l0,0.1
		l0,0l0,0l0,0.1l0,0l0,0.2l0,0.1l0.1,0.1l0.2,0l0.1,0.1l0.1,0l0,0l0.1,0.1l0,0l0.1,0l0,0l0,0v0l0,0l0,0l0.3,0.2l0,0.1l0,0.2l0.1,0.3
		l0.1,0.1l0.1,0.1l0.1,0.1l0,0.2l0,0.1l0.2,0.2l0.1,0l0.1,0l0.1,0l0.2-0.1l0.1,0l0.1,0l0.1,0.1l0.1,0.3l0.1,0.3l0,0.2l0,0.2
		l-0.1,0.2l-0.1,0.1l-0.1,0.1l-0.2,0.1l-0.5-0.2l-0.2,0.1l-0.1,0.3l0.1,0.2l0.4,0.3l0.1,0.3l0.1,0.2l0.2,0.1l0,0.1l0,0.1l-0.1,0.1
		l-0.1,0.1l-0.1,0l-0.2,0l0,0l-0.1,0l0,0l0,0l-0.1-0.1l0,0l0,0l-0.1-0.1l0,0l-0.8-0.4l0.1,0.1l0.2,0.1l0.1,0.2l0.1,0.2l0,0.1l0,0.2
		l0,0.1l0.2,0.4l0,0.1l0.4,0.5l0,0.1l0,0.1l0,0.1l0.1,0l0.1,0.1l0,0.1l0,0.1l0,0.1l0.1,0.1l0,0l0,0l0,0l0,0l0,0.1l0,0.1l0,0.1
		l0.1,0.2l0.2,0.1l0.1,0.1l0.1,0.3l0,0.1l0,0.1l0,0l-0.1,0l0,0.1l0.1,0l0.1,0l0,0.1l0.1,0l0.1,0l0.1,0.1l0.1,0.1l0.1,0.1l0,0.1
		l0,0.1l0,0.1l0,0.1l0,0.1l-0.3,0.2l-0.1,0.1l0,0.2l0,0.2l0.2,0.3l0,0.2l-0.1,0l0,0l0,0l0,0.1l-0.1,0.1l-0.1,0l-0.1,0l-0.1,0l0-0.1
		l0,0l0,0h0l-0.1,0.3l0,0.1l0.1,0l0.1-0.1l0.1,0l0,0l0.1,0l0,0l0,0l0.1-0.1l0,0l0.1,0l0.1,0l0,0l0.1,0.1l0,0l0,0l0.1,0l0.2,0
		l0.7,0.3l0.1,0l0.3,0l0.1,0l0.4-0.3l0.1,0l0.2,0l0.1,0l0.1-0.1l0-0.1l0-0.1l0.1,0l0.6,0l0.2,0l0.1,0l0.1,0l0.1-0.1l0.1,0l0.1,0
		l0.1,0l0.3,0.2l0.1,0l0.1,0l0.3,0l0.1,0l0.1-0.1l0.1-0.1l0.2-0.3l0.1-0.1l0.1-0.1l0.2-0.3l0.1-0.1l0-0.2l0-0.1l-0.2-0.3l-0.1-0.1
		l0-0.1l0-0.1l0-0.1l0-0.1l0-0.1l-0.1-0.1l-0.2-0.1l-0.1-0.1l0-0.1l0-0.1l0-0.3l0-0.3l0.1-0.3l0.2-0.2l0.2-0.1l0-0.1l0-0.1l0.1-0.1
		l0.1-0.1l0.1,0l0.1-0.1l0.2-0.2l0.1-0.2l0.1-0.1l0.1,0l0,0l0.1-0.1l0.1,0l0,0l0,0l0,0.1l0.1-0.1l0,0.1l0,0.1l0,0.1l0,0l-0.1,0.1
		l0,0l0,0l0.1,0l0,0l0,0l0,0l0,0l0-0.1h0.1l0,0.1l0,0l0,0l0-0.1l0-0.1l0.1,0l0,0l0-0.1l0-0.1l-0.1-0.2l0-0.1l0-0.1l0-0.1l-0.1,0l0,0
		l0-0.1l0-0.1l0-0.1l0.1-0.1l0.1,0l0.2,0l0.1,0l0.1,0.1l0.1,0.1l0.1,0l0-0.1l0.1,0l0.1,0l0.1,0l0.1-0.1l0.1,0l0.3,0.1l0,0l0-0.1l0,0
		l0,0l0.1,0l0,0l0,0l0,0.1l0,0h0.2l0,0l0,0l0,0l0,0l0.1,0.1l0.2,0l0.2-0.1l0.1-0.1l0.1,0.2l0,0.1l0,0l-0.1,0l0.1,0l0.1,0l0.2,0l0,0
		l0,0l0-0.1l0.1-0.1l0,0l0.1,0l0.1,0l0,0l0,0.1l0,0l0.1,0.1l0,0l0-0.1l0,0l0.2-0.1l0.2-0.1l0.1,0l0,0l0,0.1l0,0.1l0,0l0.1,0.1
		l0.1-0.1l0.1-0.1l0.1-0.1l0,0l0.1,0.1l0.1,0l0,0l0,0l0,0l0,0l0.1,0.1l0.1,0l0.2-0.1l0.1,0.1l0,0.1l-0.1,0.3l0.1,0.1l0.1,0.1l0.1,0
		l0.1-0.1l0.2-0.5l0.1-0.1l0.2-0.2l0.1-0.1l0-0.1l0-0.1l0-0.1l0,0l0,0l0.2-1.2l0.1-0.3l0.2-0.4l0-0.1l0-0.1l0.1,0l0-0.1l0-0.2l0-0.2
		l0-0.1l0,0l0,0l0.1-0.2l0-0.1l0,0l0,0l0.1,0l0.1,0l0.1,0.1l0.1,0l0.1,0l0.1-0.1l0-0.1l0-0.1l0-0.2l-0.1-0.2l0-0.1l0,0l0.1,0
		l0.1-0.1l0.1,0l0.1,0l0.1,0.1l0,0l0,0l0-0.1l0-0.1l0,0l0,0l0,0.1l-0.1,0l-0.1,0l0-0.1l0-0.1l0.1-0.4l0-0.1v-0.1l0-0.2l0,0l0.1-0.2
		l0-0.1l0-0.1l0-0.1l0-0.1l0-0.2l0-0.1l0.1-0.1l0.1,0v-0.1l0,0l0,0l0,0l0-0.1l0.1,0l0.1,0l0.1,0l0,0l0,0l0,0l0,0l0,0l0,0l0,0l0,0
		l0,0l0,0l0,0l0,0l0,0l0,0l0,0l0.1,0.1l0.1,0l0-0.1l-0.1-0.1l0-0.1l0.1,0l-0.1-0.2l0-0.1l0,0l0,0l0,0l0-0.1l-0.1-0.2l-0.1-0.2l0-0.2
		l0-0.2l0.1-0.1l-0.1-0.3l0.1-0.1l0.3-0.2l-0.1-0.1l0,0l0,0l0-0.1L140,146l0.1-0.2l0.1,0l0.2,0.1l0-0.1l0-0.1l0.1,0l0.1,0l-0.1,0
		l-0.1-0.1l0-0.1l0-0.1l0.1,0l0.1,0l0,0l-0.1-0.1l0.1,0l0-0.1l-0.1-0.2l-0.1-0.3l-0.2-0.1l-0.3,0v0h0.1v-0.1l-0.1-0.1v-0.1l0,0
		l0.1-0.1l0,0l0,0l0-0.1l0,0l0,0l0,0l0,0l0,0.1v0.1l0,0.1l0,0l0,0l0.1-0.1l0-0.1l0,0l0,0l0,0l0-0.1l0-0.1l-0.1,0l0,0l0-0.1l0.1,0
		l0.1,0l0-0.1l0-0.1l0-0.1l-0.1-0.1l0-0.1l0.1,0.1l0.1,0.1l0.3,0v-0.1h-0.1v-0.1h0.1l0-0.1l-0.1-0.1l-0.1,0l-0.1,0l0.1-0.1l-0.1-0.1
		l-0.1-0.2l0,0l-0.1,0l0,0l0-0.1l0-0.1l-0.2-0.2l-0.2-0.2l-0.1-0.1l0-0.1l0-0.1l0.5,0.4l0.3,0.5l0.1,0.1l0.2,0.1l0.1,0l0-0.1
		l-0.1-0.1l-0.9-1v-0.1l0.1,0l0,0l0-0.1l-0.1-0.1l0.2,0.1l0.1,0.1l0.1,0.1l0,0l0-0.1l0-0.1l0-0.1l0,0l0-0.1l0,0l-0.2-0.1l-0.1-0.2
		l0-0.1l0-0.1l0-0.1l0,0l0,0l0.5,0.6l0,0l0,0l0,0l0,0l0,0.1l0,0.1v0.1l0,0.1l0.2,0l0.1,0l0-0.1l0-0.2l0,0l0.1,0.2l0.1,0.1l0.1,0
		l0.1,0l0-0.1l0-0.1l-0.1-0.1l0-0.1l0.2,0.1l0.1,0l0-0.1l-0.1-0.1l0,0l0-0.1l0-0.1l0,0l0,0.1l0,0l0-0.1l0-0.2l-0.1,0l-0.1,0
		l-0.1-0.2l0-0.1l0.1-0.1l0.1,0l0.1,0.2l0.1,0.1l-0.1-0.1l0,0l0.1-0.1l0,0.1l0,0l0,0l0-0.1l-0.1-0.1l-0.1,0l-0.1,0l-0.1-0.1l0.1,0
		l0,0l0-0.1l0-0.1l0.1,0l-0.1-0.2l-0.1-0.2l-0.1-0.2l0,0l0.1,0l0,0l-0.1-0.1l-0.2-0.2l-0.1-0.1l0.2,0.1l0.2,0.3l0.2,0.2l0.1-0.3l0,0
		l0-0.1l0,0l0,0l0.1,0l0,0l0,0l0-0.1l0-0.1l0-0.1l0-0.1l-0.1-0.1l0,0l0,0l-0.3-0.2l-0.1,0v-0.1l0.2,0l0,0l0,0l0-0.1l0,0l0,0l0,0
		l0.1,0l0,0l0-0.1l-0.1,0l-0.2,0.1l0,0.1l0,0.1l0,0l0,0l-0.1,0l0-0.1l0-0.1l-0.1-0.1l-0.2-0.1l-0.1-0.1l0.6,0.1l0-0.2l0,0l-0.1,0
		l0,0l-0.1,0l-0.1,0l0,0l0-0.1l0-0.1l0-0.1l0-0.1l0-0.1l-0.1,0l-0.1,0l-0.9-0.5l-0.1,0l0.1-0.1l0.4,0.1l0.2,0.2l0.5,0.1l0,0l0.1,0
		l0,0l0,0l0.1-0.1l0,0l0.1,0l0.1-0.1l0.1-0.1l0-0.1l0.1,0l0.2,0l0.1-0.1l-0.2-0.2l-0.2,0l-0.1,0l0-0.1v-0.1h-0.1v0l0,0l0,0l-0.1,0
		l-0.1-0.1l0-0.1l0-0.1l-0.1,0l-0.1-0.1l0,0l0,0.1l0,0l-0.1-0.1l-0.2,0l-0.1,0l-0.1-0.1l-0.1,0l-0.5,0l-0.1-0.1l-0.2-0.1l-0.1,0
		l0,0.1l0,0.1l0,0.1l0,0.1l0,0l-0.1,0l0,0l0-0.1l0-0.1l0,0l0,0l-0.1-0.1l-0.1,0l-0.1,0L139,136l-0.1,0.1l-0.2-0.1l-0.1,0.1l0-0.1
		l0,0l-0.1,0l-0.1,0v-0.1l0.1,0l0.2,0l0.1,0l0-0.1l0-0.1l0-0.1l-0.1,0v-0.1l2.9,0.4l0.4-0.1l0.1,0l-0.1-0.1l-0.1-0.1l-0.2,0l0.1-0.1
		l0.2,0l0.2,0.2l0.1,0l0.1-0.1l0.1-0.1l0.1-0.1v-0.1l-0.1,0l-0.2,0l-0.1-0.1l0,0l0-0.1l0-0.1l0-0.1l0-0.1l-0.1,0l-0.1,0l0.1,0
		l0.1-0.1l0,0l0.1,0l0.1,0.1l0,0.1l0.1,0l0.5,0V135l0.1,0l0.2,0l0.1-0.1l0-0.1l-0.1-0.2l0.5,0.1l0.1-0.1l-0.1-0.1l0,0l0,0l0-0.1
		l0-0.1l0-0.2l0-0.1l-0.1-0.1v-0.1l0.1,0.1l0.3,0.3l0.1,0l0,0l0,0h0.1v-0.1l-0.1-0.1l-0.1-0.1l0-0.1l0.1,0l0.1,0l0.1,0l0.1-0.1
		l0-0.1l-0.1-0.1l-0.1,0l0-0.1v-0.1l0,0l0,0l0,0l0,0l0,0l0,0l0,0l0,0l0-0.1l0-0.2l0-0.1l-0.1-0.1l0-0.2l0-0.2l0-0.2l0.1,0l0.1-0.1
		l0.1-0.1l0.1-0.1l-0.1-0.3l0,0.1l0,0.1l0,0.1l0,0.1l0,0.1l-0.1,0.2l0,0.1l0.1,0.2l0,0l0,0l0-0.1l0-0.3l0-0.1l0-0.1l0.1,0l0,0l0,0.1
		l-0.1,0.2l0,0l0,0.1l0,0.2l0,0.2l-0.1,0.1v0.1l0,0.2l0,0.2l0,0.2l0.1,0.1l0,0.1l0,0.1l0,0.1l0,0l0,0l0-0.1l0-0.1l-0.1-0.1l0-0.2
		l0-0.1l0.1,0.1l0.1,0.2l0,0l0.1,0l0,0l0,0l0,0l0,0l0,0l0,0.1l0,0.1l0,0.1l0,0.1l0.1,0.1l0-0.2l0-0.1l0-0.1l0.1,0l0.1,0l0.1,0
		l0.1-0.1l0-0.1l0-0.1l0-0.1l0-0.1l0.1-0.2l0.1-0.2l0.1-0.1l-0.1-0.1l0-0.1l0.1,0l0.1,0.1l0,0l0-0.1l0,0l0.2,0l0.1,0l0.1-0.2l0-0.1
		l0.1,0l0.1,0l0.1,0l0.1-0.1l0.1,0l0.1,0l0.1,0v0.1l0,0l0,0l0.1,0.1l-0.1,0l-0.1,0.1l-0.1,0l0.1,0l0.4-0.2l0-0.1l0,0l0,0l0,0
		l0.1-0.1l0.2-0.1l0.2,0l0.1,0l0,0l0,0l0-0.1l0-0.1l0-0.1l0,0l-0.1,0.1v-0.1l0,0l0,0l0,0l0,0l-0.1,0.1l0-0.1l0-0.1l0-0.1l-0.1,0
		l-0.1,0l-0.1-0.1l0-0.1l0.1,0l0.4,0.3l-0.1-0.1l-0.1-0.1l-0.1-0.1l-0.1,0l-0.2-0.1l0-0.1l0,0l0.1,0v-0.1l0-0.1l0-0.1l0-0.1l-0.1,0
		l0.1-0.1l0.1-0.1l0.1,0l0.1,0l0,0l0,0.1l0,0l0.1,0.1l0.3-0.1l0.1,0l0.1,0l0.1,0l0.1,0l0.1,0l0.1,0l0.1,0l0.2,0l0.1-0.1l0-0.1
		l-0.1-0.1l-0.1-0.1l-0.1,0l-0.1-0.1l0.1,0l0.1,0l0.1,0l0-0.1l-0.3-0.2l0,0l0-0.1l0,0l-0.1-0.1l-0.1,0l-0.2,0l0,0.1l0.1,0.1l0.2,0.1
		H148l0,0.1l0.1,0.3l0,0.1l-0.1,0l-0.1,0l0,0l0-0.1l0,0l-0.2-0.1l-0.3-0.1l-0.3,0.1l-0.1,0.4h0l0-0.1l0,0l-0.1,0.1l-0.6,0l-0.1-0.1
		l-0.1,0l-0.2,0.2l-0.1,0.1l0,0l0,0.1l0,0l0,0l0,0.1l0,0l0,0.1l0,0.1l0,0l-0.1,0l0-0.2l-0.2-0.1l-0.4,0v0.1l0.2,0.1l0,0.1l-0.1,0.1
		l-0.1,0l-0.1,0l0.1-0.1l0,0l0,0l-0.1,0l0,0l0,0l0-0.1l-0.3-0.1l-0.1,0l-0.1,0.1l0.1,0.1l0,0.1l0,0.2l0,0.1l0-0.1l-0.1-0.2l0,0
		l-0.1,0l-0.2-0.1l-0.2-0.2l-0.2-0.1l-0.3-0.1l0.1,0.4l0.1,0.1l0.1,0.1v0.1l-0.8-0.1v-0.1l0.2,0l0.1,0l0-0.1l0-0.1l-0.2-0.3l0.3-0.1
		l0-0.1l0-0.1l-0.1-0.1l-0.2,0l-0.4-0.1l-0.2,0l-0.2,0.1l0,0l0-0.1l0,0l-0.3-0.2l0,0l0-0.1l0-0.1l0-0.1l-0.1-0.1l0,0l0,0l-0.1-0.1
		l-0.2-0.2l-0.1,0l0,0.1h-0.3l0,0l-0.1,0l0,0l0,0l0,0l0,0l0.1,0.1l0.5,0.4l0,0l0.1,0l0,0l0,0l0,0.1l0,0l0,0h-0.3l0,0l-0.1-0.2
		l-0.3-0.3l-0.1-0.1l-0.1-0.1l-0.1,0.1l-0.1,0.1l-0.1,0.1l-0.1,0l-0.1-0.1l-0.1,0l0,0l0,0.1l0,0l0,0l-0.1,0l0,0l-1.3,0.1l-0.2,0
		l-0.2-0.1l-0.2-0.1l-0.1-0.2l0.4,0.2h0.5V129h-0.1V129l0.1-0.1l0.1,0l0,0.1l0,0.1l0.1,0.1l0.1,0l0.1,0l0-0.1l0,0l0.1,0l0,0l0.1-0.1
		l0,0l0,0l0.2,0.1l0.1,0l0.1-0.1l-0.2-0.1l0.1,0l0.1,0l0.1,0l0.1-0.1l-0.1-0.1l-0.1-0.2l-0.1-0.1l0.1-0.1l0.1,0l0,0l0,0l0.1,0.1
		l0.1,0.1l0.1,0.1l0.1,0.1l0.1,0.1l0.1,0.1l0.1,0l0.1,0l0.1,0l0,0l0-0.1l0-0.1l0.1-0.1l0,0l0,0l0-0.1l0-0.1l0,0l0.3,0.1l0,0l0,0l0,0
		l0,0l0,0l0,0l0,0l0,0l0.1,0.2l0,0l0.5,0l0-0.1l-0.2-0.2l-0.1-0.1l0.1,0l0,0l0.1-0.1l0,0l0,0.1l0,0.1l0.1,0.1l0,0l0,0l0,0l0.1,0.1
		l0.1,0.1l0.2,0l0,0.1l0,0.1l0.5,0.4l0.1,0l0-0.1l0-0.1l0,0l0,0.1l0.1,0.2l0,0l0-0.1l0-0.1l-0.1-0.2l0.1-0.1l0-0.2l-0.1-0.2l0-0.1
		l-0.1-0.1l0-0.1l0,0l0.1,0l0-0.1l0-0.1l0-0.1l0,0.1l0,0.1l0,0.1l0.1,0l0,0l0.1,0.2l0.2,0.2l0,0l0,0l0.1-0.1l0,0l0.1,0l0,0.1
		l-0.1,0.1l-0.1,0.1l0,0.1l0,0.1l0,0l0.1,0l0,0l0,0l0,0l0-0.1l0,0l0.1,0l0.3,0.1l0.1,0l0,0.1l0.1,0.2l0.1,0.1l0.1,0l0-0.1l0-0.1
		l0.1-0.1l0.2-0.3l0-0.1l-0.1-0.3l0-0.1l-0.1-0.1l-0.1,0l-0.1,0l-0.4-0.3l-0.2-0.2l0-0.1l0-0.1l0.2-0.2l0,0l0,0l0,0l0.1-0.2
		l-0.1-0.1l-0.3,0l0.1,0l0,0l-0.1,0.1l-0.1,0l-0.1,0.1l0,0.1l0,0.2l0,0.1l-0.1,0.1l0.1,0.1l0.1,0.2l0,0.2l0,0.1l-0.1-0.1l-0.1-0.4
		l-0.1-0.1l0-0.2l0-0.1l-0.1,0l0-0.1l0-0.1l0-0.1l0.1-0.2l0-0.1l0,0l-0.3,0l-0.1,0l-0.1-0.1h0.6l0.1,0l0.1-0.1l0.1-0.2l0.1-0.2
		l0,0.1l0,0.1l0.1,0.1l0,0.2l0.1,0.1l0.1,0.1l0.1,0.1l-0.1,0l0,0.1l0,0.1l0,0.1l0,0.1l-0.1,0.1l-0.1,0l-0.1,0l0.1,0.1l0.1,0.1l0.1,0
		l0.1,0l0.2,0.1l0.1,0l0-0.1l0-0.1l0-0.2l0-0.1l0.1-0.1l0,0.1l0,0.1l0,0.1l0,0.1l0,0.2l0,0.1l0.1,0.1l0,0l0.1,0l0,0l0,0.1l0,0l0,0
		v0.1l0,0l0,0l0,0l0,0.1l0,0.1l0,0.1l0,0.1l-0.1,0.1l-0.1,0.1l-0.1,0.2l0,0.2l-0.1,0.3l0.1,0.3l0.2,0.2l0.2,0.1l0.1,0l0.3-0.1
		l0.5,0.1l0.1,0l-0.6-0.6l0,0l0.1,0.1l0,0l0,0l0.1-0.1l0-0.1l0-0.1v-0.1l0,0l0,0l0.1-0.1l0,0l0,0l0,0.1l0,0l0.1,0l0.1-0.1l0.1,0
		l0,0.1l0,0.2l0,0.1l0,0l-0.1,0l-0.1,0l0,0l0.1,0.1l0.2,0.1l0.2,0l0.1-0.1l-0.1,0l-0.1,0l-0.1-0.1l0-0.1l-0.1-0.1l-0.1,0l0.1,0
		l0.1,0l0.1-0.1l-0.1-0.1v-0.1l0.3,0l0.1,0l0.1-0.1l0.2-0.3l0.1-0.1l0.2-0.1l0.2-0.2l0.2-0.1l0.1-0.1l0.1,0l0,0l0-0.1l-0.1-0.2
		l0.1,0l0,0l0,0l0,0l0,0l0.1-0.1l0-0.1l0-0.1h-0.2l0,0l0,0l0-0.1l0-0.1l0,0l0.1,0l0-0.1l0.1-0.1l0.3-0.1l0.1-0.1l0.1-0.1l0.1-0.1
		l0,0l0,0.1l0,0.1l0.1,0l0.1,0l0.3-0.1l0.1-0.1l0.1-0.1l0-0.2l-0.2-0.1l-1.1,0l-0.2,0.1h-0.1l0-0.1l0.1-0.1l0.1,0l0.2,0l0.1,0
		l0.1-0.1l0.3-0.4l0-0.1l0-0.1l-0.1-0.3l0-0.1l0.1,0.1l0.1,0.2l0.3,0.5l0.1,0l0.1,0l0-0.1l0-0.3l0-0.1l-0.1,0l-0.1,0l0,0l0,0.1l0,0
		l0,0l0,0l-0.1-0.1l0,0l0-0.1l0,0l0,0l-0.1-0.1l-0.1-0.1l-0.2-0.1l-0.1-0.1l-0.1-0.4l-0.2-0.6l0-0.1l0-0.1l0-0.1l0,0l-0.1,0
		l-0.2,0.1l-0.1,0.2l0,0.2l0.1,0.2l0.1,0.2l0-0.1l-0.2-0.3l0-0.1l0-0.3l0-0.1l-0.1-0.1l-0.1,0l-0.1-0.1l-0.1,0l-0.1,0l-0.1,0.1
		l0,0.1l0,0.2l0,0.2l0,0.1h0l0-0.1l-0.1-0.3l0-0.1l0-0.3l0,0l0,0.1l0,0l-0.1,0h-0.1l-0.1,0l-0.1-0.1l-0.2-0.1l-0.1-0.1l0-0.2
		l0.1,0.1l0.1,0l0.1,0l-0.1-0.2l-0.2-0.2l-0.2-0.2l-0.1-0.3l0.2,0.4l0.1,0.2l0.7,0.3l0.2-0.1l-0.2-0.2l-0.6-0.2l0-0.1l0,0l0.1,0
		l0.1,0v-0.1l-0.1-0.1l0,0l0-0.1l0-0.1l0-0.1l0,0l-0.1-0.1l-0.3,0l-0.1-0.1l-0.1,0l-0.1,0l-0.1,0l-0.1,0.1l-0.1,0.1l0-0.1l0,0
		l-0.1-0.1v-0.1l0.1-0.1l0.1-0.1l0.1,0l-0.3-0.1l-0.1-0.1l-0.1-0.2l0,0l0-0.1l0,0l-0.1-0.1l-0.2-0.2l-0.1-0.1l-0.1,0v-0.1l0,0l0-0.1
		l0-0.1l0-0.1l-0.1-0.3l-0.1-0.1l-0.1,0l-0.4,0.1l-0.2,0.2l-0.1,0.2l0.1,0.2v0.1l-0.3,0l-0.1-0.1l-0.1-0.2l0-0.1l-0.1-0.2l0-0.1l0,0
		l0.1-0.1l0.1-0.1l-0.1-0.1l-0.2-0.1l-0.1-0.1l-0.1-0.1l-0.1,0l-0.6,0.1l-0.1,0l-0.1,0.1l-0.1,0l-0.1,0l-0.1,0v-0.1l0.2-0.1
		l-0.2-0.2l-0.1-0.1l-0.1-0.1l-0.1,0l0,0l-0.1,0l0,0l0,0l0,0l0,0l0.1,0l0.2-0.1l0.1-0.1l0.1-0.1l0.1-0.1l0.1-0.1l0,0l-0.1,0l-0.1,0
		l-0.1-0.1l0-0.1l0-0.1l0-0.1l0,0l0,0l0,0l0-0.1l0,0l0,0l0,0l0,0l-0.2-0.5l0,0l0,0l-0.1,0l0,0l0-0.1l0-0.1l0-0.1l0,0l-0.1,0
		l-0.1-0.1l0,0l0-0.1l0-0.2l0.1-0.1l0.3-0.1l-0.1-0.1l-0.1,0l-0.2,0l0,0l0.1-0.1l0,0l0,0l0,0l0-0.1l0-0.1l0-0.1l0,0l0,0l0,0l0-0.1
		l0-0.1l0,0l-0.1,0l0,0l0.1,0l0-0.1l0-0.1l-0.1-0.1l0.1-0.1l0-0.1l0-0.2l-0.1-0.1l0.1-0.1l0.1-0.1l0.1-0.1l-0.1-0.2l-0.1-0.1
		l-0.1-0.2l-0.1-0.1l-0.1-0.1v-0.1l0.1,0l0.1,0l0.2,0.2l0.1,0l0.2,0l-0.1-0.1l-0.1,0l-0.1-0.1l-0.1-0.2l0.3,0.1l0.1,0l0.1,0
		l-0.3-0.2l0-0.1l-0.1-0.1l-0.1-0.1l-0.1-0.2l0-0.1l0-0.1l0.1-0.1l0-0.2l0,0l0,0.1l0,0.1l0-0.1l0,0l0,0l0,0l0,0l0-0.1l0-0.1l0,0l0,0
		l0,0.1l0,0h-0.1l0,0l0-0.1l0-0.1l0-0.1l0-0.1l0,0l0-0.1l0-0.1l0,0l-0.2-0.1v-0.1h0.2v-0.1l0,0l-0.1,0l-0.1-0.1l-0.1,0l0,0l0,0
		l0.4,0v-0.1l-0.4-0.1l-0.1-0.1l0.2,0l0.2-0.1l0-0.1l-0.1,0l-0.1,0v-0.1l0.3,0l0.1,0l0.2,0.1l0.1,0l0.1-0.1l-0.1-0.1l-0.5-0.1
		l0.1-0.1l0.2,0.1l0.1-0.1l-0.1-0.1l0,0v-0.1l0.1,0l0.2,0l0.1-0.1l0-0.1l-0.3-0.2l-0.1,0l-0.1,0l-0.1-0.1l0.4,0l0.2,0l0.2,0.1l0,0.1
		l0.1,0.1l0.2,0l-0.1-0.2l0-0.1l0-0.1l0.1,0.1l0.1,0.1l0.2,0.4l0.1,0.1l0.1,0.1l0.1,0l0.1,0l0.1-0.1l0-0.1l0-0.2l0-0.1l0-0.1l0-0.1
		l0-0.1l-0.1-0.1l-0.1-0.1l-0.1,0l-0.1,0l-0.2,0.1l0,0l0-0.2l0-0.1l0-0.1l0-0.1l-0.1,0v-0.1l0,0l0,0l0-0.1l0-0.1l-0.2,0.1l-0.1,0
		l0,0l0,0l0,0l0,0l0-0.1l0,0l0,0l0,0l0,0v-0.1l0-0.1l0,0l0,0l0.1,0l0-0.1l0-0.1l-0.1-0.2l0-0.1l0-0.1l0-0.1l0-0.1l0,0l0.1,0l0-0.1
		l0-0.1l0-0.1l0,0l0.2,0l0,0l0-0.1l-0.1-0.1l0,0l0.1-0.2l0-0.1l-0.1-0.1l0.1-0.1l0-0.1l0-0.1l0-0.2l0-0.1l0.1-0.2l0-0.1l0-0.1l0-0.1
		l0-0.1l0-0.1l0-0.1l0.1-0.1l0.1,0l0.1,0l-0.1,0.2l0,0l0.1,0l0.3-0.2l-0.1-0.1l-0.1-0.1l-0.1,0l-0.1,0l-0.4-0.2l0.1-0.1l0,0l0,0
		v-0.1l0-0.1l0-0.1l0-0.1l0-0.1l-0.1-0.1l-0.1,0l-0.1,0l-0.1,0l-0.1-0.1l0-0.1l0-0.1l0-0.1l0-0.1l0-0.1l0-0.1l0,0l0.1,0l0,0l0,0
		l0-0.1l0-0.1l0-0.1l0,0l-0.2-0.3l0-0.1l0-0.1l0.1-0.1l0.1,0l0.1-0.1l0-0.2l0.1-0.1l0,0l0.2,0.3l0.2,0.4l0,0l0.1,0.1l0.1,0l0.1,0
		l0.5,0l0-0.1l-0.1,0l-0.1-0.1l0-0.2l0.1-0.1l0.1-0.1l0.2-0.1h0.2l0,0l0.1,0.1l0,0l0.1,0l0.1-0.1l0.1-0.2l-0.1-0.1l0.1,0l0,0l0-0.1
		l0-0.1l0-0.1l0-0.3l0-0.1l0,0l0.1,0l0,0l0,0.1l0,0.3l0,0.1l0,0l0.3-0.3l0.1,0l0,0l0-0.1l0-0.1l0-0.1l-0.6-0.3l-0.1-0.1h0.3l0,0
		l0.1,0.1l0,0l0,0l0,0l0,0l0-0.1l0-0.1l0-0.2l0-0.1l0-0.2l-0.1-0.2l0-0.1l0-0.2l0,0l-0.1-0.1l0-0.1l-0.2-0.1V100l0.1-0.2l-0.1-0.3
		l-0.1-0.3l-0.1-0.2l-0.1-0.2l-0.5-0.5l0.1,0l0.1,0.1l0.1,0.1l0.1,0l0.1,0l0.1-0.1l0.1,0l-0.1,0.1l0,0l0.1,0l0.1,0l0,0.1l0,0.1
		l0.1,0.3l0,0.1l0.1,0l0.1,0l0.1,0l0,0.1l0,0l0,0.1l0,0l0,0.1l0,0.1l0,0l0,0.3l0,0.1l0,0l0.1,0.1l0.1,0l0,0l0.1-0.1l0.1-0.1l0.1-0.1
		l0.1,0l0,0l0,0l0,0l0,0l0.1,0.1l0.1,0.1l0.2,0.1l-0.1,0.2l-0.4-0.1l-0.1,0.2l0.2,0l0.1,0l0.1,0.1l0,0l0,0.1l0.2,0l0.1,0l0.1-0.1
		l0-0.1l0-0.1l0-0.1l0.1,0l0,0l0,0.1l0,0.1l0,0.1l0,0.1l0,0l0-0.1l0,0l0.1,0l0.1-0.1l0.1-0.3l-0.1-0.1l-0.1,0.2l-0.1-0.1l0-0.1
		l0-0.1l0-0.1l0,0v-0.1h0.2l0-0.1l0,0l0.1,0l0.1,0.1l0.1,0.2l0,0.1l0,0l0,0l0,0l0.1,0l0.1,0l0,0l0.1,0l0,0l0,0l0,0l0.1,0l0,0l0-0.1
		l0-0.1l0-0.1l-0.2-0.1l-0.1-0.1l0.3,0.1l0.2,0l0-0.2l0-0.1l-0.1,0l-0.2,0.1l-0.1,0l-0.2-0.2l0-0.2l0.1,0l0.2,0.1l0.1,0l0.1,0l0-0.2
		h0l0,0.1l0.1,0l0,0l0-0.1l-0.1-0.1l-0.1-0.1l-1.1,0l-0.1-0.1l0.2-0.1l0.1-0.1l0.1-0.1l0,0l0,0l0-0.1l0,0l0,0l0,0l0,0.1l0,0l0.3,0.1
		l-0.1-0.1l-0.1-0.1l-0.1-0.1l0.1-0.1l0.1,0l0.1,0L148,98l0.1,0.2l0,0l0,0l0-0.2l0-0.1l0.1,0l0.2-0.2h-0.1l0.1-0.1l0-0.1l0-0.1
		l0-0.1l0.1-0.1l0.1,0l0.1,0.1l0.1,0l0.1,0l0-0.1l0-0.1l0-0.1l-0.1-0.1l-0.1-0.1l-0.1-0.1l-0.1,0v-0.1l0.2,0l0.6,0.2l0-0.1l-0.1-0.2
		l0-0.1l0-0.1l0-0.1l-0.1-0.1l0.1-0.1l0.4,0.1v0.1l-0.2,0l-0.1,0l0,0.1l0,0.1l0.1,0.1l0.1,0l0.1-0.1l0,0l0-0.1l0.3,0l0.1-0.1
		l0.1-0.1l-0.7-0.3l-0.1-0.1l0.1-0.1l0.1,0l0.2,0l0.2,0.1l0.1,0l0-0.1l0.1,0l0.1,0.1L150,96l0.1,0.1l0.1,0l0,0.1l0,0.1l0,0.1
		l0.1,0.1l0,0.1l0,0l0.1,0.2l0,0l0.1,0l0,0l0-0.1l0-0.1l0.1,0l0.1,0l0,0l0-0.1l-0.1,0l-0.1-0.1l-0.1-0.1l0.1-0.2l0.2,0.2l0.1,0
		l0.1-0.2h-0.1l0-0.1l0.1-0.2l0-0.1l-0.1-0.1l0,0l0.1-0.1l0.2-0.1l0.1-0.2l0,0.2l0.1,0l0.1-0.1l0-0.1v-0.3l0-0.1l0-0.2l0-0.1l0-0.3
		l0-0.2l0.1-0.1l0.1,0.1l0.1,0.1l0.1,0.1l0.1,0l-0.1-0.3l0-0.1l0.1,0.1l0.3,0.5l0.1,0.1l0.1,0l0,0l0-0.1l0-0.1l-0.2-0.3l0-0.1l0,0
		l0.1,0l0.1,0l0.1-0.1l-0.1-0.1l-0.1,0l-0.1-0.1l0.1-0.2l-0.1,0l0,0l0-0.1l0.1-0.1l0.1,0l0.1,0.1l0.1,0.1l0.1,0.1l0.2,0.1l0.1,0.2
		l0.1,0l0,0l0,0.1l0,0l0.1,0.1l0,0.1l0,0.1l0,0.1l0.2,0.1l0.1,0l0.1-0.1l0.1-0.1l0,0l0.1,0l0,0l0-0.2l-0.1-0.3l0-0.1l0.1-0.2
		l0.2-0.1l0.2-0.2l0.1-0.2l0,0l0.2-0.1l0.1-0.1l0.1,0l0.3,0.2l-0.1-0.2l0-0.1l0-0.1l0.1-0.1l0.1-0.1l0.1,0l0.1,0l0,0l0,0l0,0.1l0,0
		l0,0l0,0l0,0l0.3,0l0.1,0l0-0.2l0-0.2l0.1-0.2l0.1-0.1l0,0.1l0,0.1l0,0.1l0,0.1l0,0.1l0,0.1l0.1,0.1l0.1,0l0-0.2l0-0.6l0-0.1l0.1,0
		l0.1,0.1l0,0.1l0,0.1l0,0.1l0,0.1l0,0.1l0.1,0l0,0l0-0.1l0-0.1l0-0.1l0-0.1l0-0.2l0-0.1l0,0l0,0l0-0.1l0.1,0.1l0.1-0.1l0.2-0.5l0,0
		l0.1,0.1l0,0.1l0,0.1l0,0.1l0,0.1l0,0l0-0.1l0-0.1l0.2-0.2l0.1,0l0.1,0.1l0.1,0.2l0,0l0.1-0.1l0.1-0.2l-0.1,0l-0.1,0l0-0.1l0-0.1
		l0-0.1l0.2,0l0.2-0.2l0-0.1l0.1-0.3l0.1-0.3l0.1-0.1l0.1-0.1l0,0l0,0l0,0l0,0l0,0l0-0.1l0-0.2l0,0l0,0l0,0l0,0l0,0l0-0.1l0,0l0,0
		l0-0.1l0-0.1l0,0l0.2-0.4l0-0.2l-0.1-0.2l0.1-0.2l0.3-0.4l0.1-0.3l0,0l0,0l0.1,0.1l0,0l0.5-0.8l0,0l0,0l0.1,0l0.1,0L160,86l0.1,0
		l0,0l0,0l0,0l0,0l0-0.1l0-0.1l0-0.1l0-0.1l0.1,0.1l0.1,0.2l0.1,0.1l0.1-0.1l0.1-0.1l0.2-0.2l0.2-0.4l0-0.1l0.1-0.1l0-0.1l0.1-0.1
		h0.1l0,0l0-0.1l0-0.1l0-0.1l0,0h-0.1l0,0.1l-0.1,0l-0.1,0l0,0l0,0.1l0,0l-0.1,0l-0.1-0.1l0-0.1l0.1-0.1l0-0.1l0-0.2l0,0l-0.1,0
		l-0.2,0l0,0l-0.1,0.1l-0.1,0l-0.1-0.2l-0.1,0l0,0l0-0.1l0,0l0,0l0,0l0,0.1l0.1,0.1l0.1-0.1l0.2-0.2l0,0l0.1,0.2l0.1,0l0.1,0
		l0.1-0.1l0.1-0.1l-0.1,0l-0.1,0l-0.1-0.1l0-0.1v-0.2l0,0l0,0l0,0l0,0.2l-0.1-0.1l-0.1-0.2l-0.1-0.1l-0.1,0l0,0l0,0.1l0,0.1l0,0l0,0
		l0,0.1l0,0l0,0l-0.1-0.1l0,0l0,0l0-0.1l0,0l0,0l0,0l-0.1,0l-0.1-0.1l-0.1-0.1l0-0.1l0.1,0l-0.1-0.2l-0.1-0.1l-0.1,0l-0.1,0
		l-0.1-0.1l0-0.2l0-0.2l0-0.1l0.1,0l0.1,0.1l0.1,0.1l0.1,0.1l0.1,0.1l0.2,0.2l0.1,0.1v-0.1l-0.1-0.1l0-0.1l0-0.1l0.1,0v-0.1
		l-0.2-0.2l-0.1-0.1l-0.1-0.2l0.1,0l0.2,0l0.1,0l0-0.1l-0.1-0.1l-0.3-0.1l-0.3,0.1l-0.2,0l-0.1,0l-0.1-0.1l0,0l0-0.1l-0.1-0.1
		l-0.1-0.1l0-0.1l0-0.1l0-0.1l0.1,0l0.1,0l0,0.1l0,0.1l0,0.1l0.1,0l0.1,0l0.1-0.1l0.1-0.1l0-0.2l0.1-0.1l0.1-0.1l0-0.3l0.1,0
		l0.1-0.1l0-0.1l0-0.1l0-0.1l0-0.1l0-0.1l0-0.1l0.1,0l0.5,0l0.1-0.1l-0.1-0.1l0-0.1l0.1-0.1l0.1-0.1l0,0l0,0l0,0v0l0,0l0.1,0.1l0,0
		l0,0l0.1-0.1l0,0l-0.1-0.1l0-0.1l0.1-0.1l0.4,0l0.1-0.1l-0.1-0.1l-0.1,0l0-0.1l0.1-0.3l0-0.1l0-0.1l-0.1-0.1l0.2,0l0.1-0.1l0-0.2
		L161,77l-0.2-0.3l-0.3-0.5l-0.1-0.1l-0.5-0.1l0.1-0.1l0.2,0l0.1-0.1l0,0l0,0l0,0l0.1,0l0.1,0.2l0.1,0.2l0.1,0.1l0.1,0l0.1,0.1
		l0.1,0.1l0.1,0.1l0.1,0.1l0.1,0.3l0,0.1l0.1,0.1l0.2,0l0.2-0.1l0.1-0.2l0-0.1l-0.1-0.1l-0.1-0.1l-0.1-0.2l-0.1-0.1l-0.1,0l0,0.2
		l-0.1,0.1l-0.1,0l-0.1-0.1l-0.1-0.1l-0.1-0.1l-0.1-0.1l-0.1,0l0.2-0.1l0,0l0,0l0,0l0.1-0.2l0.2,0l0.3,0v-0.1l-0.1,0l-0.2-0.1v-0.1
		l0.2-0.1l0.1,0l0.1,0.2l0.1,0l0.2,0l-0.1-0.1l0.1,0l0.4,0.1l0.1,0l0.1-0.1l0.1-0.1l0,0.1l0.1,0l0.1,0l0.1-0.1l0-0.1l0-0.1l0-0.1
		l0-0.1l0.1,0.2l0.1,0.1l0.1,0L163,75l0-0.1l0-0.1l0-0.1l-0.1-0.1l-0.2-0.3l-0.1,0l0,0l0.1,0.1l-0.1,0.1l-0.1-0.1l-0.2-0.3l0.1,0
		l0.6,0.2l0.1-0.1l0,0l0,0.1l0,0l0,0l0-0.1l0,0l0,0l0,0l0.1,0l0.2,0l0.1-0.1l-0.1,0l-0.1,0l-0.1-0.2l-0.1-0.1l-0.1-0.1l-0.3-0.1
		l-0.3-0.3l-0.5-0.3l-0.3-0.3l-0.1-0.4l0.1,0.1l0.1,0.1l0.1,0.1l0.1,0.2l0,0.1l0.1,0.1l0.3,0.1l0.1,0.2l0.2,0.1l0.1,0.1l0.1,0.2
		l0.3,0.1l0.4,0.3l0.1,0l0-0.1l0.1-0.1l0,0l0.1,0.1l0.1,0l0.1,0l0.1,0.1l0.1,0.1l0.1,0.1l0.1-0.1l0-0.2l0-0.1l0,0l-0.2-0.1l-0.1-0.1
		l0-0.1l0-0.1l0.2-0.2l0-0.1l-0.2-0.1l0-0.1l0-0.1l-0.1-0.1l-0.1,0l0,0.1l0,0.1l0.1,0.1l0,0.1l-0.1,0.2l-0.2,0l-0.3-0.1l0.3,0
		l0.1-0.1l-0.1-0.2l0-0.1l0-0.1l0-0.1l0-0.1l0-0.1l0-0.1l0.1-0.1l0.1,0l0.1,0.1l0,0.2l0-0.1l0.1,0l0.1,0l0.1,0l0-0.3l-0.1-0.2
		l-0.1-0.1l-0.3-0.1l-0.1-0.1l-0.1-0.1l-0.1-0.2l0.1,0l0.2,0.2l0.2,0.1l0.1-0.3l-0.1-0.1l-0.1-0.2l0-0.1l0.1,0.1l0.1,0l0-0.1
		l-0.2-0.3l0.2-0.1l0-0.2l0.1,0l0.3,0.1l0,0.1l0,0l0.1,0.1l0.1,0.1l0.1,0.1l0,0.1l0,0.1l0,0.1l0,0.1l0,0l0.1-0.2l0.1,0l0.2,0.1
		l0.1,0.1l0,0.2l0.1,0l0.1-0.1l0-0.1l0-0.1l0-0.2l0-0.1l0-0.1l0-0.1l0-0.3l0-0.1l0-0.1l-0.1-0.1l-0.1-0.1l0.1,0l0.1,0l0.5,0.4
		l0.1,0.2l0.1,0.4l0.1,0.1l0.1,0l0.1,0l0.1,0l0.1,0.2l0,0l0.2,0.1l0.2,0l0.1,0.1l0.1,0.3l0,0.2l0.1,0l0.1-0.1l0-0.2l0.1-0.1l0,0
		l0.3-0.1l0.1-0.1l-0.1-0.1l-0.1-0.1l0-0.1l0-0.2l0.1-0.1l0.1,0l0.1,0l0.2,0.2l0.1,0.1l0.1,0l0.1-0.1l0.1-0.1l0.1-0.1l0.1,0l0,0.1
		l0,0.2l0,0.2l0.1,0.1l0.1,0l0,0l0,0l0-0.1l0-0.1l0-0.1l0-0.1l0,0l0-0.1l0,0l0,0l0,0l0-0.1l0,0l0.1,0l0.1,0l0,0l0,0.1l0.2,0.1l0.3,0
		l0,0l0,0.1l0,0l0.1,0l0.1-0.1l0.1-0.2l0.1,0l0.2,0l0.1,0.1l0,0.2l0,0.1l0.1,0l0.2,0l0-0.1l0,0l0,0.1l0,0.1l0,0.1l0,0l0.1,0l0,0l0,0
		l0,0l0-0.1l0-0.2L171.2,71.3L171.2,71.3z"/>
	<g>
		<g>
			<path class="st1" d="M199.5,38.7c-13.4-0.4-24.5,1.5-38.7,14.7"/>
			<g>
				<path class="st2" d="M160.9,53.4c0.2,0,0.4,0.2,0.5,0.3c-0.3-0.1-0.6,0-0.9,0.1c0.1-0.3,0.1-0.6,0.1-0.9
					C160.7,53,160.9,53.2,160.9,53.4z"/>
			</g>
		</g>
	</g>
	<g>
		<path class="st3" d="M212.8,37H212l-0.5-1.3h-3l-0.5,1.3h-0.9l2.4-6h0.9L212.8,37z M211.2,35l-1.3-3.2l-1.3,3.2H211.2z"/>
		<path class="st3" d="M214.2,37h-0.7v-6h0.7V37z"/>
		<path class="st3" d="M216.3,37h-0.7v-6h0.7v2.3c0.4-0.5,0.9-0.8,1.5-0.8c0.6,0,1,0.2,1.4,0.6s0.5,1,0.5,1.7c0,0.7-0.2,1.2-0.5,1.7
			c-0.4,0.4-0.8,0.6-1.4,0.6c-0.6,0-1.1-0.3-1.5-0.8V37z M216.3,35.8c0.1,0.2,0.3,0.4,0.5,0.5s0.5,0.2,0.8,0.2c0.4,0,0.8-0.2,1-0.5
			c0.3-0.3,0.4-0.7,0.4-1.2s-0.1-0.9-0.4-1.2c-0.3-0.3-0.6-0.5-1-0.5c-0.3,0-0.5,0.1-0.8,0.2c-0.2,0.1-0.4,0.3-0.5,0.5V35.8z"/>
		<path class="st3" d="M224.2,37h-0.7v-0.5c-0.4,0.4-0.8,0.6-1.4,0.6c-0.4,0-0.8-0.1-1.1-0.4c-0.3-0.3-0.5-0.6-0.5-1.1
			c0-0.5,0.2-0.8,0.5-1.1c0.3-0.2,0.7-0.4,1.1-0.4c0.6,0,1.1,0.2,1.4,0.6v-0.8c0-0.3-0.1-0.5-0.3-0.7s-0.5-0.2-0.8-0.2
			c-0.5,0-1,0.2-1.3,0.6l-0.3-0.5c0.5-0.5,1-0.7,1.7-0.7c0.5,0,0.9,0.1,1.2,0.4c0.3,0.2,0.5,0.6,0.5,1.1V37z M222.3,36.6
			c0.5,0,0.9-0.2,1.2-0.5v-0.8c-0.3-0.4-0.7-0.5-1.2-0.5c-0.3,0-0.6,0.1-0.8,0.3s-0.3,0.4-0.3,0.7c0,0.3,0.1,0.5,0.3,0.7
			S222,36.6,222.3,36.6z"/>
		<path class="st3" d="M229.1,37h-0.7v-2.8c0-0.4-0.1-0.6-0.3-0.8c-0.2-0.2-0.4-0.2-0.7-0.2c-0.3,0-0.5,0.1-0.7,0.2
			s-0.4,0.3-0.6,0.5V37h-0.7v-4.3h0.7v0.6c0.2-0.2,0.4-0.4,0.7-0.5c0.3-0.1,0.6-0.2,0.9-0.2c0.9,0,1.4,0.5,1.4,1.4V37z"/>
		<path class="st3" d="M230.8,32c-0.1,0-0.2,0-0.3-0.1s-0.1-0.2-0.1-0.3s0-0.2,0.1-0.3s0.2-0.1,0.3-0.1c0.1,0,0.2,0,0.3,0.1
			s0.1,0.2,0.1,0.3s0,0.2-0.1,0.3S230.9,32,230.8,32z M231.1,37h-0.7v-4.3h0.7V37z"/>
		<path class="st3" d="M235.9,37h-0.7v-0.5c-0.4,0.4-0.8,0.6-1.4,0.6c-0.4,0-0.8-0.1-1.1-0.4c-0.3-0.3-0.5-0.6-0.5-1.1
			c0-0.5,0.2-0.8,0.5-1.1c0.3-0.2,0.7-0.4,1.1-0.4c0.6,0,1.1,0.2,1.4,0.6v-0.8c0-0.3-0.1-0.5-0.3-0.7c-0.2-0.2-0.5-0.2-0.8-0.2
			c-0.5,0-1,0.2-1.3,0.6l-0.3-0.5c0.5-0.5,1-0.7,1.7-0.7c0.5,0,0.9,0.1,1.2,0.4c0.3,0.2,0.5,0.6,0.5,1.1V37z M234,36.6
			c0.5,0,0.9-0.2,1.2-0.5v-0.8c-0.3-0.4-0.7-0.5-1.2-0.5c-0.3,0-0.6,0.1-0.8,0.3s-0.3,0.4-0.3,0.7c0,0.3,0.1,0.5,0.3,0.7
			S233.7,36.6,234,36.6z"/>
	</g>
	<g>
		<path class="st3" d="M211.6,64.4h-3.9v-6h3.9v0.7h-3.2V61h3.1v0.7h-3.1v2.1h3.2V64.4z"/>
		<path class="st3" d="M213.4,64.4h-0.7v-4.3h0.7v0.7c0.4-0.5,0.9-0.8,1.4-0.8v0.7c-0.1,0-0.2,0-0.3,0c-0.2,0-0.4,0.1-0.7,0.2
			c-0.2,0.1-0.4,0.3-0.5,0.5V64.4z"/>
		<path class="st3" d="M216.1,59.5c-0.1,0-0.2,0-0.3-0.1c-0.1-0.1-0.1-0.2-0.1-0.3s0-0.2,0.1-0.3c0.1-0.1,0.2-0.1,0.3-0.1
			c0.1,0,0.2,0,0.3,0.1s0.1,0.2,0.1,0.3s0,0.2-0.1,0.3S216.2,59.5,216.1,59.5z M216.4,64.4h-0.7v-4.3h0.7V64.4z"/>
		<path class="st3" d="M218.9,64.5c-0.3,0-0.6-0.1-0.7-0.3c-0.2-0.2-0.2-0.4-0.2-0.8v-2.8h-0.7v-0.6h0.7v-1.2h0.7v1.2h0.9v0.6h-0.9
			v2.7c0,0.2,0,0.3,0.1,0.4c0.1,0.1,0.2,0.2,0.3,0.2c0.2,0,0.4-0.1,0.5-0.2l0.2,0.5C219.5,64.4,219.2,64.5,218.9,64.5z"/>
		<path class="st3" d="M221.1,64.4h-0.7v-4.3h0.7v0.7c0.4-0.5,0.9-0.8,1.4-0.8v0.7c-0.1,0-0.2,0-0.3,0c-0.2,0-0.4,0.1-0.7,0.2
			c-0.2,0.1-0.4,0.3-0.5,0.5V64.4z"/>
		<path class="st3" d="M225.3,64.5c-0.6,0-1.2-0.2-1.6-0.6c-0.4-0.4-0.6-1-0.6-1.7c0-0.6,0.2-1.2,0.6-1.6c0.4-0.4,0.9-0.7,1.5-0.7
			c0.6,0,1.2,0.2,1.5,0.7c0.4,0.4,0.6,1,0.6,1.7v0.2h-3.5c0,0.4,0.2,0.8,0.5,1.1c0.3,0.3,0.6,0.4,1.1,0.4c0.5,0,1-0.2,1.3-0.5
			l0.3,0.4C226.6,64.3,226,64.5,225.3,64.5z M226.7,62c0-0.4-0.1-0.7-0.4-1c-0.2-0.3-0.6-0.4-1.1-0.4c-0.4,0-0.8,0.1-1,0.4
			s-0.4,0.6-0.4,1H226.7z"/>
		<path class="st3" d="M231.8,64.4h-0.7v-0.5c-0.4,0.4-0.8,0.6-1.4,0.6c-0.4,0-0.8-0.1-1.1-0.4c-0.3-0.3-0.5-0.6-0.5-1.1
			c0-0.5,0.2-0.8,0.5-1.1s0.7-0.4,1.1-0.4c0.6,0,1.1,0.2,1.4,0.6v-0.8c0-0.3-0.1-0.5-0.3-0.7s-0.5-0.2-0.8-0.2c-0.5,0-1,0.2-1.3,0.6
			l-0.3-0.5c0.5-0.5,1-0.7,1.7-0.7c0.5,0,0.9,0.1,1.2,0.4c0.3,0.2,0.5,0.6,0.5,1.1V64.4z M230,64c0.5,0,0.9-0.2,1.2-0.5v-0.8
			c-0.3-0.4-0.7-0.5-1.2-0.5c-0.3,0-0.6,0.1-0.8,0.3c-0.2,0.2-0.3,0.4-0.3,0.7c0,0.3,0.1,0.5,0.3,0.7C229.4,64,229.7,64,230,64z"/>
	</g>
	<g>
		<path class="st3" d="M209.6,94.3c-1,0-1.7-0.3-2.3-1l0.4-0.6c0.5,0.6,1.1,0.9,1.9,0.9c0.5,0,0.8-0.1,1.1-0.3
			c0.2-0.2,0.3-0.4,0.3-0.7c0-0.2-0.1-0.4-0.2-0.5c-0.1-0.1-0.3-0.3-0.5-0.3s-0.4-0.2-0.7-0.2c-0.3-0.1-0.5-0.1-0.8-0.2
			c-0.3-0.1-0.5-0.2-0.7-0.3s-0.4-0.3-0.5-0.5c-0.1-0.2-0.2-0.5-0.2-0.7c0-0.5,0.2-0.9,0.6-1.2c0.4-0.3,0.9-0.5,1.5-0.5
			c0.9,0,1.6,0.3,2.1,0.8l-0.5,0.5c-0.4-0.5-1-0.7-1.7-0.7c-0.4,0-0.7,0.1-0.9,0.3c-0.2,0.2-0.3,0.4-0.3,0.7c0,0.2,0.1,0.4,0.3,0.5
			c0.2,0.1,0.4,0.2,0.7,0.3c0.3,0.1,0.5,0.1,0.9,0.2c0.3,0.1,0.6,0.2,0.9,0.3c0.3,0.1,0.5,0.3,0.7,0.5c0.2,0.2,0.3,0.5,0.3,0.9
			c0,0.5-0.2,0.9-0.5,1.3C210.9,94.1,210.4,94.3,209.6,94.3z"/>
		<path class="st3" d="M214.9,94.3c-0.6,0-1.2-0.2-1.6-0.6c-0.4-0.4-0.6-1-0.6-1.7c0-0.6,0.2-1.2,0.6-1.6c0.4-0.4,0.9-0.7,1.5-0.7
			c0.6,0,1.2,0.2,1.5,0.7c0.4,0.4,0.6,1,0.6,1.7v0.2h-3.5c0,0.4,0.2,0.8,0.5,1.1c0.3,0.3,0.6,0.4,1.1,0.4c0.5,0,1-0.2,1.3-0.5
			l0.3,0.4C216.2,94,215.6,94.3,214.9,94.3z M216.2,91.7c0-0.4-0.1-0.7-0.4-1c-0.2-0.3-0.6-0.4-1.1-0.4c-0.4,0-0.8,0.1-1,0.4
			c-0.2,0.3-0.4,0.6-0.4,1H216.2z"/>
		<path class="st3" d="M218.7,94.1H218v-4.3h0.7v0.7c0.4-0.5,0.9-0.8,1.4-0.8v0.7c-0.1,0-0.2,0-0.3,0c-0.2,0-0.4,0.1-0.7,0.2
			c-0.2,0.1-0.4,0.3-0.5,0.5V94.1z"/>
		<path class="st3" d="M221.6,94.1H221v-6h0.7v2.3c0.4-0.5,0.9-0.8,1.5-0.8c0.6,0,1,0.2,1.4,0.6c0.4,0.4,0.5,1,0.5,1.7
			c0,0.7-0.2,1.2-0.5,1.7s-0.8,0.6-1.4,0.6c-0.6,0-1.1-0.3-1.5-0.8V94.1z M221.6,93c0.1,0.2,0.3,0.4,0.5,0.5
			c0.2,0.1,0.5,0.2,0.8,0.2c0.4,0,0.8-0.2,1-0.5c0.3-0.3,0.4-0.7,0.4-1.2s-0.1-0.9-0.4-1.2c-0.3-0.3-0.6-0.5-1-0.5
			c-0.3,0-0.5,0.1-0.8,0.2c-0.2,0.1-0.4,0.3-0.5,0.5V93z"/>
		<path class="st3" d="M226.5,89.2c-0.1,0-0.2,0-0.3-0.1c-0.1-0.1-0.1-0.2-0.1-0.3s0-0.2,0.1-0.3c0.1-0.1,0.2-0.1,0.3-0.1
			c0.1,0,0.2,0,0.3,0.1s0.1,0.2,0.1,0.3s0,0.2-0.1,0.3S226.6,89.2,226.5,89.2z M226.8,94.1h-0.7v-4.3h0.7V94.1z"/>
		<path class="st3" d="M231.5,94.1h-0.7v-0.5c-0.4,0.4-0.8,0.6-1.4,0.6c-0.4,0-0.8-0.1-1.1-0.4c-0.3-0.3-0.5-0.6-0.5-1.1
			c0-0.5,0.2-0.8,0.5-1.1c0.3-0.2,0.7-0.4,1.1-0.4c0.6,0,1.1,0.2,1.4,0.6v-0.8c0-0.3-0.1-0.5-0.3-0.7s-0.5-0.2-0.8-0.2
			c-0.5,0-1,0.2-1.3,0.6l-0.3-0.5c0.5-0.5,1-0.7,1.7-0.7c0.5,0,0.9,0.1,1.2,0.4c0.3,0.2,0.5,0.6,0.5,1.1V94.1z M229.7,93.8
			c0.5,0,0.9-0.2,1.2-0.5v-0.8c-0.3-0.4-0.7-0.5-1.2-0.5c-0.3,0-0.6,0.1-0.8,0.3s-0.3,0.4-0.3,0.7c0,0.3,0.1,0.5,0.3,0.7
			S229.4,93.8,229.7,93.8z"/>
	</g>
	<g>
		<path class="st3" d="M212.2,125.1h-0.9l-2.3-2.7l-0.6,0.7v2h-0.7v-6h0.7v3.1l2.7-3.1h0.9l-2.5,2.9L212.2,125.1z"/>
		<path class="st3" d="M216.2,124.5c-0.4,0.4-0.9,0.7-1.6,0.7s-1.2-0.2-1.6-0.7c-0.4-0.4-0.6-1-0.6-1.6c0-0.6,0.2-1.2,0.6-1.6
			c0.4-0.4,0.9-0.7,1.6-0.7s1.2,0.2,1.6,0.7c0.4,0.4,0.6,1,0.6,1.6C216.8,123.5,216.6,124.1,216.2,124.5z M213.6,124.1
			c0.3,0.3,0.6,0.5,1.1,0.5c0.4,0,0.8-0.2,1.1-0.5c0.3-0.3,0.4-0.7,0.4-1.2s-0.1-0.9-0.4-1.2c-0.3-0.3-0.6-0.5-1.1-0.5
			c-0.4,0-0.8,0.2-1.1,0.5c-0.3,0.3-0.4,0.7-0.4,1.2C213.2,123.3,213.3,123.7,213.6,124.1z"/>
		<path class="st3" d="M219.3,125.2c-0.7,0-1.3-0.2-1.8-0.7l0.4-0.5c0.1,0.2,0.4,0.3,0.6,0.4c0.3,0.1,0.5,0.2,0.8,0.2
			c0.3,0,0.6-0.1,0.8-0.2c0.2-0.1,0.3-0.3,0.3-0.5c0-0.2-0.1-0.3-0.3-0.5c-0.2-0.1-0.4-0.2-0.7-0.3c-0.3-0.1-0.5-0.1-0.8-0.2
			s-0.5-0.2-0.7-0.4c-0.2-0.2-0.3-0.4-0.3-0.7c0-0.4,0.1-0.7,0.4-0.9s0.7-0.4,1.2-0.4c0.7,0,1.2,0.2,1.6,0.6l-0.3,0.5
			c-0.3-0.4-0.7-0.5-1.3-0.5c-0.3,0-0.5,0.1-0.7,0.2c-0.2,0.1-0.3,0.3-0.3,0.5c0,0.2,0.1,0.3,0.3,0.4c0.2,0.1,0.4,0.2,0.7,0.2
			c0.3,0.1,0.5,0.1,0.8,0.2c0.3,0.1,0.5,0.2,0.7,0.4s0.3,0.4,0.3,0.8c0,0.4-0.2,0.7-0.5,0.9S219.8,125.2,219.3,125.2z"/>
		<path class="st3" d="M225.5,124.5c-0.4,0.4-0.9,0.7-1.6,0.7c-0.6,0-1.2-0.2-1.6-0.7c-0.4-0.4-0.6-1-0.6-1.6c0-0.6,0.2-1.2,0.6-1.6
			s0.9-0.7,1.6-0.7c0.6,0,1.2,0.2,1.6,0.7s0.6,1,0.6,1.6C226.1,123.5,225.9,124.1,225.5,124.5z M222.9,124.1
			c0.3,0.3,0.6,0.5,1.1,0.5s0.8-0.2,1.1-0.5c0.3-0.3,0.4-0.7,0.4-1.2s-0.1-0.9-0.4-1.2c-0.3-0.3-0.6-0.5-1.1-0.5s-0.8,0.2-1.1,0.5
			c-0.3,0.3-0.4,0.7-0.4,1.2C222.5,123.3,222.7,123.7,222.9,124.1z"/>
		<path class="st3" d="M229.1,125.1h-0.7l-1.8-4.3h0.7l1.4,3.6l1.4-3.6h0.7L229.1,125.1z"/>
		<path class="st3" d="M235.1,124.5c-0.4,0.4-0.9,0.7-1.6,0.7s-1.2-0.2-1.6-0.7c-0.4-0.4-0.6-1-0.6-1.6c0-0.6,0.2-1.2,0.6-1.6
			c0.4-0.4,0.9-0.7,1.6-0.7s1.2,0.2,1.6,0.7c0.4,0.4,0.6,1,0.6,1.6C235.7,123.5,235.5,124.1,235.1,124.5z M232.5,124.1
			c0.3,0.3,0.6,0.5,1.1,0.5c0.4,0,0.8-0.2,1.1-0.5c0.3-0.3,0.4-0.7,0.4-1.2s-0.1-0.9-0.4-1.2c-0.3-0.3-0.6-0.5-1.1-0.5
			c-0.4,0-0.8,0.2-1.1,0.5c-0.3,0.3-0.4,0.7-0.4,1.2C232.1,123.3,232.2,123.7,232.5,124.1z"/>
	</g>
	<g>
		<path class="st3" d="M41.6,35.2c-1,0-1.7-0.3-2.3-1l0.4-0.6c0.5,0.6,1.1,0.9,1.9,0.9c0.5,0,0.8-0.1,1.1-0.3s0.3-0.4,0.3-0.7
			c0-0.2-0.1-0.4-0.2-0.5c-0.1-0.1-0.3-0.3-0.5-0.3s-0.4-0.2-0.7-0.2c-0.3-0.1-0.5-0.1-0.8-0.2s-0.5-0.2-0.7-0.3s-0.4-0.3-0.5-0.5
			c-0.1-0.2-0.2-0.5-0.2-0.7c0-0.5,0.2-0.9,0.6-1.2c0.4-0.3,0.9-0.5,1.5-0.5c0.9,0,1.6,0.3,2.1,0.8l-0.4,0.5c-0.4-0.5-1-0.7-1.7-0.7
			c-0.4,0-0.7,0.1-0.9,0.3c-0.2,0.2-0.3,0.4-0.3,0.7c0,0.2,0.1,0.4,0.3,0.5c0.2,0.1,0.4,0.2,0.7,0.3c0.3,0.1,0.5,0.1,0.9,0.2
			c0.3,0.1,0.6,0.2,0.9,0.3c0.3,0.1,0.5,0.3,0.7,0.5s0.3,0.5,0.3,0.9c0,0.5-0.2,0.9-0.5,1.3S42.4,35.2,41.6,35.2z"/>
		<path class="st3" d="M48.4,34.6c-0.4,0.4-0.9,0.7-1.6,0.7s-1.2-0.2-1.6-0.7c-0.4-0.4-0.6-1-0.6-1.6c0-0.6,0.2-1.2,0.6-1.6
			c0.4-0.4,0.9-0.7,1.6-0.7s1.2,0.2,1.6,0.7c0.4,0.4,0.6,1,0.6,1.6C49,33.6,48.8,34.1,48.4,34.6z M45.8,34.1
			c0.3,0.3,0.6,0.5,1.1,0.5c0.4,0,0.8-0.2,1.1-0.5s0.4-0.7,0.4-1.2c0-0.5-0.1-0.9-0.4-1.2s-0.6-0.5-1.1-0.5c-0.4,0-0.8,0.2-1.1,0.5
			c-0.3,0.3-0.4,0.7-0.4,1.2C45.4,33.4,45.5,33.8,45.8,34.1z"/>
		<path class="st3" d="M56,35.1h-0.7v-3c0-0.6-0.3-0.9-0.8-0.9c-0.2,0-0.4,0.1-0.6,0.2c-0.2,0.1-0.4,0.3-0.5,0.5v3.2h-0.7v-3
			c0-0.6-0.3-0.9-0.8-0.9c-0.2,0-0.4,0.1-0.6,0.2s-0.4,0.3-0.5,0.5v3.2h-0.7v-4.3h0.7v0.6c0.1-0.2,0.3-0.3,0.6-0.5s0.5-0.2,0.8-0.2
			c0.3,0,0.6,0.1,0.8,0.2c0.2,0.2,0.3,0.3,0.4,0.6c0.1-0.2,0.3-0.4,0.6-0.6c0.3-0.2,0.6-0.2,0.9-0.2c0.8,0,1.2,0.4,1.2,1.3V35.1z"/>
		<path class="st3" d="M60.8,35.1h-0.7v-0.5c-0.4,0.4-0.8,0.6-1.4,0.6c-0.4,0-0.8-0.1-1.1-0.4s-0.5-0.6-0.5-1.1
			c0-0.5,0.2-0.8,0.5-1.1s0.7-0.4,1.1-0.4c0.6,0,1.1,0.2,1.4,0.6v-0.8c0-0.3-0.1-0.5-0.3-0.7c-0.2-0.2-0.5-0.2-0.8-0.2
			c-0.5,0-1,0.2-1.3,0.6l-0.3-0.5c0.5-0.5,1-0.7,1.7-0.7c0.5,0,0.9,0.1,1.2,0.4c0.3,0.2,0.5,0.6,0.5,1.1V35.1z M58.9,34.7
			c0.5,0,0.9-0.2,1.2-0.5v-0.8c-0.3-0.4-0.7-0.5-1.2-0.5c-0.3,0-0.6,0.1-0.8,0.3c-0.2,0.2-0.3,0.4-0.3,0.7c0,0.3,0.1,0.5,0.3,0.7
			C58.3,34.6,58.6,34.7,58.9,34.7z"/>
		<path class="st3" d="M62.8,35.1h-0.7v-6h0.7V35.1z"/>
		<path class="st3" d="M64.5,30.1c-0.1,0-0.2,0-0.3-0.1c-0.1-0.1-0.1-0.2-0.1-0.3s0-0.2,0.1-0.3c0.1-0.1,0.2-0.1,0.3-0.1
			c0.1,0,0.2,0,0.3,0.1s0.1,0.2,0.1,0.3s0,0.2-0.1,0.3S64.6,30.1,64.5,30.1z M64.8,35.1h-0.7v-4.3h0.7V35.1z"/>
		<path class="st3" d="M69.5,35.1h-0.7v-0.5c-0.4,0.4-0.8,0.6-1.4,0.6c-0.4,0-0.8-0.1-1.1-0.4s-0.5-0.6-0.5-1.1
			c0-0.5,0.2-0.8,0.5-1.1s0.7-0.4,1.1-0.4c0.6,0,1.1,0.2,1.4,0.6v-0.8c0-0.3-0.1-0.5-0.3-0.7c-0.2-0.2-0.5-0.2-0.8-0.2
			c-0.5,0-1,0.2-1.3,0.6l-0.3-0.5c0.5-0.5,1-0.7,1.7-0.7c0.5,0,0.9,0.1,1.2,0.4c0.3,0.2,0.5,0.6,0.5,1.1V35.1z M67.7,34.7
			c0.5,0,0.9-0.2,1.2-0.5v-0.8c-0.3-0.4-0.7-0.5-1.2-0.5c-0.3,0-0.6,0.1-0.8,0.3c-0.2,0.2-0.3,0.4-0.3,0.7c0,0.3,0.1,0.5,0.3,0.7
			C67.1,34.6,67.4,34.7,67.7,34.7z"/>
	</g>
	<g>
		<path class="st3" d="M143,17h-0.7v-6h0.7V17z"/>
		<path class="st3" d="M145,17h-0.7v-4.3h0.7v0.7c0.4-0.5,0.9-0.8,1.4-0.8v0.7c-0.1,0-0.2,0-0.3,0c-0.2,0-0.4,0.1-0.7,0.2
			c-0.2,0.1-0.4,0.3-0.5,0.5V17z"/>
		<path class="st3" d="M150.7,17H150v-0.5c-0.4,0.4-0.8,0.6-1.4,0.6c-0.4,0-0.8-0.1-1.1-0.4c-0.3-0.3-0.5-0.6-0.5-1.1
			c0-0.5,0.2-0.8,0.5-1.1s0.7-0.4,1.1-0.4c0.6,0,1.1,0.2,1.4,0.6V14c0-0.3-0.1-0.5-0.3-0.7s-0.5-0.2-0.8-0.2c-0.5,0-1,0.2-1.3,0.6
			l-0.3-0.5c0.5-0.5,1-0.7,1.7-0.7c0.5,0,0.9,0.1,1.2,0.4c0.3,0.2,0.5,0.6,0.5,1.1V17z M148.8,16.6c0.5,0,0.9-0.2,1.2-0.5v-0.8
			c-0.3-0.4-0.7-0.5-1.2-0.5c-0.3,0-0.6,0.1-0.8,0.3c-0.2,0.2-0.3,0.4-0.3,0.7c0,0.3,0.1,0.5,0.3,0.7
			C148.3,16.5,148.5,16.6,148.8,16.6z"/>
		<path class="st3" d="M153.7,17.1c-0.6,0-1-0.2-1.4-0.6c-0.4-0.4-0.5-1-0.5-1.7c0-0.7,0.2-1.2,0.5-1.7c0.4-0.4,0.8-0.6,1.4-0.6
			c0.3,0,0.6,0.1,0.8,0.2s0.5,0.3,0.6,0.5v-0.6h0.7v6h-0.7v-2.3C154.8,16.8,154.3,17.1,153.7,17.1z M153.9,16.5
			c0.3,0,0.5-0.1,0.8-0.2c0.2-0.1,0.4-0.3,0.5-0.5v-2c-0.1-0.2-0.3-0.4-0.5-0.5c-0.2-0.1-0.5-0.2-0.8-0.2c-0.4,0-0.8,0.2-1,0.5
			c-0.2,0.3-0.4,0.7-0.4,1.2c0,0.5,0.1,0.9,0.4,1.2S153.5,16.5,153.9,16.5z"/>
	</g>
	<g>
		<path class="st3" d="M53.5,150.2c-1,0-1.7-0.3-2.3-1l0.4-0.6c0.5,0.6,1.1,0.9,1.9,0.9c0.5,0,0.8-0.1,1.1-0.3
			c0.2-0.2,0.3-0.4,0.3-0.7c0-0.2-0.1-0.4-0.2-0.5c-0.1-0.1-0.3-0.3-0.5-0.3s-0.4-0.2-0.7-0.2c-0.3-0.1-0.5-0.1-0.8-0.2
			c-0.3-0.1-0.5-0.2-0.7-0.3c-0.2-0.1-0.4-0.3-0.5-0.5s-0.2-0.5-0.2-0.7c0-0.5,0.2-0.9,0.6-1.2c0.4-0.3,0.9-0.5,1.5-0.5
			c0.9,0,1.6,0.3,2.1,0.8l-0.5,0.5c-0.4-0.5-1-0.7-1.7-0.7c-0.4,0-0.7,0.1-0.9,0.3c-0.2,0.2-0.3,0.4-0.3,0.7c0,0.2,0.1,0.4,0.3,0.5
			c0.2,0.1,0.4,0.2,0.7,0.3c0.3,0.1,0.5,0.1,0.9,0.2c0.3,0.1,0.6,0.2,0.9,0.3c0.3,0.1,0.5,0.3,0.7,0.5c0.2,0.2,0.3,0.5,0.3,0.9
			c0,0.5-0.2,0.9-0.5,1.3C54.8,150,54.2,150.2,53.5,150.2z"/>
		<path class="st3" d="M56.5,151.8l0.1-0.6c0.1,0,0.2,0.1,0.4,0.1c0.2,0,0.3,0,0.4-0.1c0.1-0.1,0.2-0.2,0.3-0.4l0.3-0.7l-1.8-4.4
			h0.7l1.4,3.6l1.4-3.6h0.7l-2.2,5.2c-0.2,0.6-0.7,0.9-1.3,0.9C56.8,151.8,56.7,151.8,56.5,151.8z"/>
		<path class="st3" d="M61.8,150.1h-0.7v-4.3h0.7v0.7c0.4-0.5,0.9-0.8,1.4-0.8v0.7c-0.1,0-0.2,0-0.3,0c-0.2,0-0.4,0.1-0.7,0.2
			c-0.2,0.1-0.4,0.3-0.5,0.5V150.1z"/>
		<path class="st3" d="M64.5,145.1c-0.1,0-0.2,0-0.3-0.1c-0.1-0.1-0.1-0.2-0.1-0.3s0-0.2,0.1-0.3c0.1-0.1,0.2-0.1,0.3-0.1
			c0.1,0,0.2,0,0.3,0.1c0.1,0.1,0.1,0.2,0.1,0.3s0,0.2-0.1,0.3C64.7,145.1,64.6,145.1,64.5,145.1z M64.8,150.1h-0.7v-4.3h0.7V150.1z
			"/>
		<path class="st3" d="M69.5,150.1h-0.7v-0.5c-0.4,0.4-0.8,0.6-1.4,0.6c-0.4,0-0.8-0.1-1.1-0.4c-0.3-0.3-0.5-0.6-0.5-1.1
			c0-0.5,0.2-0.8,0.5-1.1c0.3-0.2,0.7-0.4,1.1-0.4c0.6,0,1.1,0.2,1.4,0.6v-0.8c0-0.3-0.1-0.5-0.3-0.7s-0.5-0.2-0.8-0.2
			c-0.5,0-1,0.2-1.3,0.6l-0.3-0.5c0.5-0.5,1-0.7,1.7-0.7c0.5,0,0.9,0.1,1.2,0.4c0.3,0.2,0.5,0.6,0.5,1.1V150.1z M67.7,149.7
			c0.5,0,0.9-0.2,1.2-0.5v-0.8c-0.3-0.4-0.7-0.5-1.2-0.5c-0.3,0-0.6,0.1-0.8,0.3c-0.2,0.2-0.3,0.4-0.3,0.7c0,0.3,0.1,0.5,0.3,0.7
			C67.1,149.6,67.4,149.7,67.7,149.7z"/>
	</g>
	<g>
		<path class="st3" d="M29.3,64h-0.9l-0.5-1.3h-3L24.4,64h-0.9l2.4-6h0.9L29.3,64z M27.7,62l-1.3-3.2L25.1,62H27.7z"/>
		<path class="st3" d="M30.8,64h-0.7v-3.8h-0.7v-0.6h0.7v-0.3c0-0.4,0.1-0.8,0.3-1s0.5-0.4,0.9-0.4c0.4,0,0.7,0.1,0.9,0.3L32,58.6
			c-0.2-0.1-0.3-0.2-0.5-0.2c-0.2,0-0.4,0.1-0.5,0.2c-0.1,0.1-0.2,0.4-0.2,0.6v0.3h0.9v0.6h-0.9V64z"/>
		<path class="st3" d="M34.2,65.7c-0.4,0-0.7,0-1-0.1c-0.3-0.1-0.5-0.3-0.8-0.5l0.3-0.5c0.3,0.4,0.8,0.6,1.4,0.6
			c0.4,0,0.7-0.1,1-0.3c0.3-0.2,0.4-0.5,0.4-1v-0.6c-0.2,0.2-0.4,0.4-0.6,0.6c-0.3,0.1-0.5,0.2-0.8,0.2c-0.6,0-1-0.2-1.4-0.6
			c-0.4-0.4-0.5-1-0.5-1.6c0-0.7,0.2-1.2,0.5-1.6c0.4-0.4,0.8-0.6,1.4-0.6c0.6,0,1.1,0.3,1.5,0.8v-0.7h0.7v4.2
			c0,0.7-0.2,1.1-0.6,1.4C35.3,65.6,34.8,65.7,34.2,65.7z M34.3,63.4c0.3,0,0.5-0.1,0.8-0.2s0.4-0.3,0.5-0.5v-1.9
			c-0.1-0.2-0.3-0.4-0.5-0.5c-0.2-0.1-0.5-0.2-0.8-0.2c-0.4,0-0.8,0.2-1,0.5c-0.2,0.3-0.4,0.7-0.4,1.2c0,0.5,0.1,0.9,0.4,1.2
			C33.6,63.3,33.9,63.4,34.3,63.4z"/>
		<path class="st3" d="M41.3,64h-0.7v-2.9c0-0.4-0.1-0.6-0.3-0.8c-0.2-0.2-0.4-0.2-0.7-0.2c-0.2,0-0.5,0.1-0.7,0.2
			c-0.2,0.1-0.4,0.3-0.6,0.5V64h-0.7v-6h0.7v2.3c0.2-0.2,0.4-0.4,0.7-0.5c0.3-0.1,0.6-0.2,0.9-0.2c0.9,0,1.4,0.5,1.4,1.4V64z"/>
		<path class="st3" d="M46,64h-0.7v-0.5c-0.4,0.4-0.8,0.6-1.4,0.6c-0.4,0-0.8-0.1-1.1-0.4c-0.3-0.3-0.5-0.6-0.5-1.1
			c0-0.5,0.2-0.8,0.5-1.1c0.3-0.2,0.7-0.4,1.1-0.4c0.6,0,1.1,0.2,1.4,0.6V61c0-0.3-0.1-0.5-0.3-0.7s-0.5-0.2-0.8-0.2
			c-0.5,0-1,0.2-1.3,0.6l-0.3-0.5c0.5-0.5,1-0.7,1.7-0.7c0.5,0,0.9,0.1,1.2,0.4c0.3,0.2,0.5,0.6,0.5,1.1V64z M44.2,63.6
			c0.5,0,0.9-0.2,1.2-0.5v-0.8c-0.3-0.4-0.7-0.5-1.2-0.5c-0.3,0-0.6,0.1-0.8,0.3s-0.3,0.4-0.3,0.7c0,0.3,0.1,0.5,0.3,0.7
			S43.8,63.6,44.2,63.6z"/>
		<path class="st3" d="M51,64h-0.7v-2.8c0-0.4-0.1-0.6-0.3-0.8c-0.2-0.2-0.4-0.2-0.7-0.2c-0.3,0-0.5,0.1-0.7,0.2s-0.4,0.3-0.6,0.5
			V64h-0.7v-4.3h0.7v0.6c0.2-0.2,0.4-0.4,0.7-0.5c0.3-0.1,0.6-0.2,0.9-0.2c0.9,0,1.4,0.5,1.4,1.4V64z"/>
		<path class="st3" d="M52.7,59c-0.1,0-0.2,0-0.3-0.1s-0.1-0.2-0.1-0.3s0-0.2,0.1-0.3s0.2-0.1,0.3-0.1c0.1,0,0.2,0,0.3,0.1
			s0.1,0.2,0.1,0.3s0,0.2-0.1,0.3S52.8,59,52.7,59z M53,64h-0.7v-4.3H53V64z"/>
		<path class="st3" d="M55.7,64.1c-0.7,0-1.3-0.2-1.8-0.7l0.4-0.5c0.1,0.2,0.4,0.3,0.6,0.4c0.3,0.1,0.5,0.2,0.8,0.2
			c0.3,0,0.6-0.1,0.8-0.2c0.2-0.1,0.3-0.3,0.3-0.5c0-0.2-0.1-0.3-0.3-0.5c-0.2-0.1-0.4-0.2-0.7-0.3c-0.3-0.1-0.5-0.1-0.8-0.2
			s-0.5-0.2-0.7-0.4c-0.2-0.2-0.3-0.4-0.3-0.7c0-0.4,0.1-0.7,0.4-0.9c0.3-0.2,0.7-0.4,1.2-0.4c0.7,0,1.2,0.2,1.6,0.6L57,60.6
			c-0.3-0.4-0.7-0.5-1.3-0.5c-0.3,0-0.5,0.1-0.7,0.2c-0.2,0.1-0.3,0.3-0.3,0.5c0,0.2,0.1,0.3,0.3,0.4c0.2,0.1,0.4,0.2,0.7,0.2
			c0.3,0.1,0.5,0.1,0.8,0.2c0.3,0.1,0.5,0.2,0.7,0.4s0.3,0.4,0.3,0.8c0,0.4-0.2,0.7-0.5,0.9C56.7,64,56.3,64.1,55.7,64.1z"/>
		<path class="st3" d="M59.6,64.1c-0.3,0-0.6-0.1-0.7-0.3c-0.2-0.2-0.2-0.4-0.2-0.8v-2.8H58v-0.6h0.7v-1.2h0.7v1.2h0.9v0.6h-0.9v2.7
			c0,0.2,0,0.3,0.1,0.4c0.1,0.1,0.2,0.2,0.3,0.2c0.2,0,0.4-0.1,0.5-0.2l0.2,0.5C60.3,64,60,64.1,59.6,64.1z"/>
		<path class="st3" d="M64.6,64h-0.7v-0.5c-0.4,0.4-0.8,0.6-1.4,0.6c-0.4,0-0.8-0.1-1.1-0.4S61,63.1,61,62.6c0-0.5,0.2-0.8,0.5-1.1
			s0.7-0.4,1.1-0.4c0.6,0,1.1,0.2,1.4,0.6V61c0-0.3-0.1-0.5-0.3-0.7c-0.2-0.2-0.5-0.2-0.8-0.2c-0.5,0-1,0.2-1.3,0.6l-0.3-0.5
			c0.5-0.5,1-0.7,1.7-0.7c0.5,0,0.9,0.1,1.2,0.4c0.3,0.2,0.5,0.6,0.5,1.1V64z M62.7,63.6c0.5,0,0.9-0.2,1.2-0.5v-0.8
			c-0.3-0.4-0.7-0.5-1.2-0.5c-0.3,0-0.6,0.1-0.8,0.3c-0.2,0.2-0.3,0.4-0.3,0.7c0,0.3,0.1,0.5,0.3,0.7C62.1,63.5,62.4,63.6,62.7,63.6
			z"/>
		<path class="st3" d="M69.5,64h-0.7v-2.8c0-0.4-0.1-0.6-0.3-0.8c-0.2-0.2-0.4-0.2-0.7-0.2c-0.3,0-0.5,0.1-0.7,0.2
			c-0.2,0.1-0.4,0.3-0.6,0.5V64h-0.7v-4.3h0.7v0.6c0.2-0.2,0.4-0.4,0.7-0.5c0.3-0.1,0.6-0.2,0.9-0.2c0.9,0,1.4,0.5,1.4,1.4V64z"/>
	</g>
	<g>
		<path class="st3" d="M56.8,94.1h-0.7v-6h0.7V94.1z"/>
		<path class="st3" d="M58.9,94.1h-0.7v-4.3h0.7v0.7c0.4-0.5,0.9-0.8,1.4-0.8v0.7c-0.1,0-0.2,0-0.3,0c-0.2,0-0.4,0.1-0.7,0.2
			c-0.2,0.1-0.4,0.3-0.5,0.5V94.1z"/>
		<path class="st3" d="M64.6,94.1h-0.7v-0.5c-0.4,0.4-0.8,0.6-1.4,0.6c-0.4,0-0.8-0.1-1.1-0.4c-0.3-0.3-0.5-0.6-0.5-1.1
			c0-0.5,0.2-0.8,0.5-1.1s0.7-0.4,1.1-0.4c0.6,0,1.1,0.2,1.4,0.6v-0.8c0-0.3-0.1-0.5-0.3-0.7s-0.5-0.2-0.8-0.2c-0.5,0-1,0.2-1.3,0.6
			l-0.3-0.5c0.5-0.5,1-0.7,1.7-0.7c0.5,0,0.9,0.1,1.2,0.4c0.3,0.2,0.5,0.6,0.5,1.1V94.1z M62.7,93.8c0.5,0,0.9-0.2,1.2-0.5v-0.8
			c-0.3-0.4-0.7-0.5-1.2-0.5c-0.3,0-0.6,0.1-0.8,0.3c-0.2,0.2-0.3,0.4-0.3,0.7c0,0.3,0.1,0.5,0.3,0.7C62.1,93.7,62.4,93.8,62.7,93.8
			z"/>
		<path class="st3" d="M69.5,94.1h-0.7v-2.8c0-0.4-0.1-0.6-0.3-0.8c-0.2-0.2-0.4-0.2-0.7-0.2c-0.3,0-0.5,0.1-0.7,0.2
			c-0.2,0.1-0.4,0.3-0.6,0.5v3.2h-0.7v-4.3h0.7v0.6c0.2-0.2,0.4-0.4,0.7-0.5c0.3-0.1,0.6-0.2,0.9-0.2c0.9,0,1.4,0.5,1.4,1.4V94.1z"
			/>
	</g>
	<g>
		<path class="st3" d="M37.2,122c-1,0-1.7-0.3-2.3-1l0.4-0.6c0.5,0.6,1.1,0.9,1.9,0.9c0.5,0,0.8-0.1,1.1-0.3s0.3-0.4,0.3-0.7
			c0-0.2-0.1-0.4-0.2-0.5c-0.1-0.1-0.3-0.3-0.5-0.3s-0.4-0.2-0.7-0.2s-0.5-0.1-0.8-0.2s-0.5-0.2-0.7-0.3c-0.2-0.1-0.4-0.3-0.5-0.5
			c-0.1-0.2-0.2-0.5-0.2-0.7c0-0.5,0.2-0.9,0.6-1.2c0.4-0.3,0.9-0.5,1.5-0.5c0.9,0,1.6,0.3,2.1,0.8l-0.4,0.5c-0.4-0.5-1-0.7-1.7-0.7
			c-0.4,0-0.7,0.1-0.9,0.3s-0.3,0.4-0.3,0.7c0,0.2,0.1,0.4,0.3,0.5c0.2,0.1,0.4,0.2,0.7,0.3c0.3,0.1,0.5,0.1,0.9,0.2
			c0.3,0.1,0.6,0.2,0.9,0.3s0.5,0.3,0.7,0.5s0.3,0.5,0.3,0.9c0,0.5-0.2,0.9-0.5,1.3C38.5,121.9,37.9,122,37.2,122z"/>
		<path class="st3" d="M41.4,122c-0.3,0-0.6-0.1-0.7-0.3c-0.2-0.2-0.2-0.4-0.2-0.8v-2.8h-0.7v-0.6h0.7v-1.2h0.7v1.2H42v0.6h-0.9v2.7
			c0,0.2,0,0.3,0.1,0.4c0.1,0.1,0.2,0.2,0.3,0.2c0.2,0,0.4-0.1,0.5-0.2l0.2,0.5C42,122,41.8,122,41.4,122z"/>
		<path class="st3" d="M46.4,121.9h-0.7v-0.5c-0.4,0.4-0.8,0.6-1.4,0.6c-0.4,0-0.8-0.1-1.1-0.4c-0.3-0.3-0.5-0.6-0.5-1.1
			c0-0.5,0.2-0.8,0.5-1.1c0.3-0.2,0.7-0.4,1.1-0.4c0.6,0,1.1,0.2,1.4,0.6V119c0-0.3-0.1-0.5-0.3-0.7c-0.2-0.2-0.5-0.2-0.8-0.2
			c-0.5,0-1,0.2-1.3,0.6l-0.3-0.5c0.5-0.5,1-0.7,1.7-0.7c0.5,0,0.9,0.1,1.2,0.4s0.5,0.6,0.5,1.1V121.9z M44.5,121.6
			c0.5,0,0.9-0.2,1.2-0.5v-0.8c-0.3-0.4-0.7-0.5-1.2-0.5c-0.3,0-0.6,0.1-0.8,0.3c-0.2,0.2-0.3,0.4-0.3,0.7c0,0.3,0.1,0.5,0.3,0.7
			C43.9,121.5,44.2,121.6,44.5,121.6z"/>
		<path class="st3" d="M48.8,122c-0.3,0-0.6-0.1-0.7-0.3c-0.2-0.2-0.2-0.4-0.2-0.8v-2.8h-0.7v-0.6h0.7v-1.2h0.7v1.2h0.9v0.6h-0.9
			v2.7c0,0.2,0,0.3,0.1,0.4c0.1,0.1,0.2,0.2,0.3,0.2c0.2,0,0.4-0.1,0.5-0.2l0.2,0.5C49.4,122,49.2,122,48.8,122z"/>
		<path class="st3" d="M52.3,122c-0.6,0-1.2-0.2-1.6-0.6s-0.6-1-0.6-1.7c0-0.6,0.2-1.2,0.6-1.6c0.4-0.4,0.9-0.7,1.5-0.7
			c0.6,0,1.2,0.2,1.5,0.7c0.4,0.4,0.6,1,0.6,1.7v0.2h-3.5c0,0.4,0.2,0.8,0.5,1.1c0.3,0.3,0.6,0.4,1.1,0.4c0.5,0,1-0.2,1.3-0.5
			l0.3,0.4C53.6,121.8,53,122,52.3,122z M53.7,119.5c0-0.4-0.1-0.7-0.4-1s-0.6-0.4-1.1-0.4c-0.4,0-0.8,0.1-1,0.4
			c-0.2,0.3-0.4,0.6-0.4,1H53.7z"/>
		<path class="st3" d="M56.1,121.9h-0.7v-6h0.7V121.9z"/>
		<path class="st3" d="M59.4,122c-0.6,0-1.2-0.2-1.6-0.6s-0.6-1-0.6-1.7c0-0.6,0.2-1.2,0.6-1.6c0.4-0.4,0.9-0.7,1.5-0.7
			c0.6,0,1.2,0.2,1.5,0.7c0.4,0.4,0.6,1,0.6,1.7v0.2h-3.5c0,0.4,0.2,0.8,0.5,1.1c0.3,0.3,0.6,0.4,1.1,0.4c0.5,0,1-0.2,1.3-0.5
			l0.3,0.4C60.7,121.8,60.1,122,59.4,122z M60.8,119.5c0-0.4-0.1-0.7-0.4-1s-0.6-0.4-1.1-0.4c-0.4,0-0.8,0.1-1,0.4
			c-0.2,0.3-0.4,0.6-0.4,1H60.8z"/>
		<path class="st3" d="M63.9,122c-0.7,0-1.3-0.2-1.8-0.7l0.4-0.5c0.2,0.2,0.4,0.3,0.6,0.4c0.3,0.1,0.5,0.2,0.8,0.2
			c0.3,0,0.6-0.1,0.8-0.2c0.2-0.1,0.3-0.3,0.3-0.5c0-0.2-0.1-0.3-0.3-0.5c-0.2-0.1-0.4-0.2-0.7-0.3c-0.3-0.1-0.5-0.1-0.8-0.2
			c-0.3-0.1-0.5-0.2-0.7-0.4c-0.2-0.2-0.3-0.4-0.3-0.7c0-0.4,0.1-0.7,0.4-0.9s0.7-0.4,1.2-0.4c0.7,0,1.2,0.2,1.6,0.6l-0.3,0.5
			c-0.3-0.4-0.7-0.5-1.3-0.5c-0.3,0-0.5,0.1-0.7,0.2s-0.3,0.3-0.3,0.5c0,0.2,0.1,0.3,0.3,0.4c0.2,0.1,0.4,0.2,0.7,0.2
			c0.3,0.1,0.5,0.1,0.8,0.2s0.5,0.2,0.7,0.4c0.2,0.2,0.3,0.4,0.3,0.8c0,0.4-0.2,0.7-0.5,0.9C64.9,121.9,64.4,122,63.9,122z"/>
		<path class="st3" d="M68.1,122c-0.7,0-1.3-0.2-1.8-0.7l0.4-0.5c0.1,0.2,0.4,0.3,0.6,0.4c0.3,0.1,0.5,0.2,0.8,0.2
			c0.3,0,0.6-0.1,0.8-0.2c0.2-0.1,0.3-0.3,0.3-0.5c0-0.2-0.1-0.3-0.3-0.5c-0.2-0.1-0.4-0.2-0.7-0.3c-0.3-0.1-0.5-0.1-0.8-0.2
			c-0.3-0.1-0.5-0.2-0.7-0.4c-0.2-0.2-0.3-0.4-0.3-0.7c0-0.4,0.1-0.7,0.4-0.9s0.7-0.4,1.2-0.4c0.7,0,1.2,0.2,1.6,0.6l-0.3,0.5
			c-0.3-0.4-0.7-0.5-1.3-0.5c-0.3,0-0.5,0.1-0.7,0.2s-0.3,0.3-0.3,0.5c0,0.2,0.1,0.3,0.3,0.4c0.2,0.1,0.4,0.2,0.7,0.2
			s0.5,0.1,0.8,0.2c0.3,0.1,0.5,0.2,0.7,0.4c0.2,0.2,0.3,0.4,0.3,0.8c0,0.4-0.2,0.7-0.4,0.9C69,121.9,68.6,122,68.1,122z"/>
	</g>
	<g>
		<path class="st0" d="M210.5,49.7H209v-6.4l-1.4,1.4l-0.8-0.9l2.4-2.4h1.3V49.7z"/>
		<path class="st0" d="M218,49.7h-6v-1.2c1.7-1.3,2.9-2.3,3.6-2.9c0.6-0.6,0.9-1.2,0.9-1.8c0-0.4-0.1-0.7-0.4-0.9
			c-0.3-0.2-0.7-0.3-1.1-0.3c-0.9,0-1.7,0.3-2.2,1l-0.8-1c0.4-0.4,0.8-0.8,1.4-1c0.5-0.2,1.1-0.3,1.7-0.3c0.8,0,1.6,0.2,2.1,0.7
			c0.6,0.5,0.9,1.1,0.9,1.9c0,0.7-0.3,1.4-0.9,2.1c-0.6,0.7-1.5,1.5-2.8,2.5h3.7V49.7z"/>
		<path class="st0" d="M222.6,49.9c-1.3,0-2.4-0.4-3.1-1.3l0.8-1c0.6,0.7,1.3,1,2.2,1c0.5,0,0.9-0.1,1.2-0.4c0.3-0.3,0.5-0.6,0.5-1
			c0-0.5-0.2-0.8-0.5-1.1c-0.3-0.3-0.7-0.4-1.2-0.4c-0.7,0-1.3,0.2-1.8,0.7l-1-0.3v-4.7h5.5v1.3h-4v2.4c0.5-0.5,1.1-0.7,1.9-0.7
			c0.7,0,1.4,0.2,1.9,0.7c0.5,0.5,0.8,1.1,0.8,2c0,0.9-0.3,1.5-0.9,2.1S223.6,49.9,222.6,49.9z"/>
	</g>
	<g>
		<path class="st0" d="M210.5,77.5H209V71l-1.4,1.4l-0.8-0.9l2.4-2.4h1.3V77.5z"/>
		<path class="st0" d="M214.5,77.5h-1.6l3.1-7h-4.3v-1.3h6v1L214.5,77.5z"/>
		<path class="st0" d="M223.4,77.2c-0.4,0.2-0.9,0.4-1.5,0.4s-1.1-0.1-1.5-0.4s-0.8-0.6-1.1-1c-0.3-0.4-0.5-0.9-0.6-1.4
			s-0.2-1-0.2-1.6s0.1-1.1,0.2-1.6s0.3-1,0.6-1.4c0.3-0.4,0.6-0.7,1.1-1s0.9-0.4,1.5-0.4s1.1,0.1,1.5,0.4s0.8,0.6,1,1
			c0.3,0.4,0.5,0.9,0.6,1.4c0.1,0.5,0.2,1,0.2,1.6s-0.1,1.1-0.2,1.6c-0.1,0.5-0.3,1-0.6,1.4S223.8,77,223.4,77.2z M220.5,75.5
			c0.3,0.6,0.8,0.9,1.4,0.9s1.1-0.3,1.4-0.9c0.3-0.6,0.4-1.3,0.4-2.2c0-0.6-0.1-1.1-0.2-1.5c-0.1-0.4-0.3-0.8-0.6-1.1
			c-0.3-0.3-0.6-0.4-1.1-0.4s-0.8,0.1-1.1,0.4c-0.3,0.3-0.5,0.6-0.6,1.1c-0.1,0.4-0.2,0.9-0.2,1.5C220,74.2,220.2,74.9,220.5,75.5z"
			/>
	</g>
	<g>
		<path class="st0" d="M210.5,106.8H209v-6.4l-1.4,1.4l-0.8-0.9l2.4-2.4h1.3V106.8z"/>
		<path class="st0" d="M218,106.8h-6v-1.1c1.7-1.3,2.9-2.3,3.6-2.9c0.6-0.6,0.9-1.2,0.9-1.8c0-0.4-0.1-0.7-0.4-0.9
			c-0.3-0.2-0.7-0.3-1.1-0.3c-0.9,0-1.7,0.3-2.2,1l-0.8-1c0.4-0.4,0.8-0.8,1.4-1c0.5-0.2,1.1-0.3,1.7-0.3c0.8,0,1.6,0.2,2.1,0.7
			c0.6,0.5,0.9,1.1,0.9,1.9c0,0.7-0.3,1.4-0.9,2.1c-0.6,0.7-1.5,1.5-2.8,2.5h3.7V106.8z"/>
		<path class="st0" d="M224.2,106.6c-0.4,0.2-0.9,0.4-1.5,0.4s-1.1-0.1-1.5-0.4s-0.8-0.6-1-1s-0.5-0.9-0.6-1.4
			c-0.1-0.5-0.2-1-0.2-1.6s0.1-1.1,0.2-1.6c0.1-0.5,0.3-1,0.6-1.4c0.3-0.4,0.6-0.7,1-1s0.9-0.4,1.5-0.4s1.1,0.1,1.5,0.4
			s0.8,0.6,1.1,1c0.3,0.4,0.5,0.9,0.6,1.4s0.2,1,0.2,1.6s-0.1,1.1-0.2,1.6s-0.3,1-0.6,1.4C225,106,224.6,106.4,224.2,106.6z
			 M221.3,104.8c0.3,0.6,0.8,0.9,1.4,0.9c0.6,0,1.1-0.3,1.4-0.9c0.3-0.6,0.5-1.3,0.5-2.2c0-0.6-0.1-1.1-0.2-1.5
			c-0.1-0.4-0.3-0.8-0.6-1.1c-0.3-0.3-0.6-0.4-1.1-0.4s-0.8,0.1-1.1,0.4c-0.3,0.3-0.5,0.6-0.6,1.1c-0.1,0.4-0.2,0.9-0.2,1.5
			C220.8,103.6,221,104.3,221.3,104.8z"/>
	</g>
	<g>
		<path class="st0" d="M51.3,163.6c-1,0-1.8-0.3-2.4-0.9l0.7-1.1c0.5,0.5,1,0.7,1.7,0.7c0.7,0,1.3-0.3,1.6-0.8
			c0.4-0.5,0.6-1.2,0.6-1.9v-0.2c-0.2,0.3-0.5,0.6-0.9,0.8c-0.4,0.2-0.8,0.4-1.3,0.4c-0.8,0-1.5-0.2-2-0.7c-0.5-0.5-0.8-1.1-0.8-2
			c0-0.8,0.3-1.5,0.9-2c0.6-0.5,1.3-0.8,2.2-0.8c0.8,0,1.4,0.2,2,0.6s0.9,0.9,1.1,1.5s0.3,1.3,0.3,2.2c0,1.2-0.3,2.3-1,3.1
			C53.4,163.2,52.5,163.6,51.3,163.6z M51.7,159.3c0.4,0,0.7-0.1,1-0.3c0.3-0.2,0.6-0.4,0.8-0.7c0-0.5-0.2-1-0.5-1.4
			c-0.3-0.4-0.8-0.6-1.3-0.6c-0.5,0-0.9,0.2-1.2,0.5s-0.5,0.6-0.5,1c0,0.5,0.2,0.9,0.5,1.1C50.8,159.1,51.2,159.3,51.7,159.3z"/>
		<path class="st0" d="M62.2,163.5h-6v-1.1c1.7-1.3,2.9-2.3,3.6-2.9s0.9-1.2,0.9-1.8c0-0.4-0.1-0.7-0.4-0.9s-0.7-0.3-1.1-0.3
			c-0.9,0-1.7,0.3-2.2,1l-0.8-1c0.4-0.4,0.8-0.8,1.4-1c0.5-0.2,1.1-0.3,1.7-0.3c0.9,0,1.6,0.2,2.1,0.7c0.6,0.5,0.9,1.1,0.9,1.9
			c0,0.7-0.3,1.4-0.9,2.1c-0.6,0.7-1.5,1.5-2.8,2.5h3.7V163.5z"/>
		<path class="st0" d="M66.8,163.6c-1.3,0-2.4-0.4-3.1-1.3l0.8-1c0.6,0.7,1.3,1,2.2,1c0.5,0,0.9-0.1,1.2-0.4s0.5-0.6,0.5-1
			c0-0.5-0.2-0.8-0.5-1.1s-0.7-0.4-1.2-0.4c-0.7,0-1.3,0.2-1.8,0.7l-1-0.3v-4.7h5.5v1.3h-4v2.4c0.5-0.5,1.1-0.7,1.9-0.7
			c0.7,0,1.4,0.2,1.9,0.7c0.5,0.5,0.8,1.1,0.8,2c0,0.9-0.3,1.5-0.9,2.1C68.5,163.4,67.7,163.6,66.8,163.6z"/>
	</g>
	<g>
		<path class="st0" d="M54.6,133.6h-1.5v-6.4l-1.4,1.4l-0.8-0.9l2.4-2.4h1.3V133.6z"/>
		<path class="st0" d="M59.3,133.7c-1.3,0-2.4-0.4-3.1-1.3l0.8-1c0.6,0.7,1.3,1,2.2,1c0.5,0,0.9-0.1,1.2-0.4c0.3-0.3,0.5-0.6,0.5-1
			c0-0.5-0.2-0.8-0.5-1.1c-0.3-0.3-0.7-0.4-1.2-0.4c-0.7,0-1.3,0.2-1.8,0.7l-1-0.3v-4.7h5.5v1.3h-4v2.4c0.5-0.5,1.1-0.7,1.9-0.7
			c0.7,0,1.4,0.2,1.9,0.7c0.5,0.5,0.8,1.1,0.8,2c0,0.9-0.3,1.5-0.9,2.1C61,133.5,60.2,133.7,59.3,133.7z"/>
		<path class="st0" d="M66.8,133.7c-1.3,0-2.4-0.4-3.1-1.3l0.8-1c0.6,0.7,1.3,1,2.2,1c0.5,0,0.9-0.1,1.2-0.4c0.3-0.3,0.5-0.6,0.5-1
			c0-0.5-0.2-0.8-0.5-1.1c-0.3-0.3-0.7-0.4-1.2-0.4c-0.7,0-1.3,0.2-1.8,0.7l-1-0.3v-4.7h5.5v1.3h-4v2.4c0.5-0.5,1.1-0.7,1.9-0.7
			c0.7,0,1.4,0.2,1.9,0.7c0.5,0.5,0.8,1.1,0.8,2c0,0.9-0.3,1.5-0.9,2.1C68.5,133.5,67.7,133.7,66.8,133.7z"/>
	</g>
	<g>
		<path class="st0" d="M59.4,107.1c-0.6,0-1.1-0.1-1.6-0.3c-0.5-0.2-0.8-0.5-1.1-0.9c-0.3-0.4-0.5-0.9-0.6-1.4
			c-0.1-0.5-0.2-1.1-0.2-1.7c0-1.3,0.3-2.3,1-3.1c0.6-0.8,1.5-1.2,2.7-1.2c1,0,1.8,0.3,2.4,0.9l-0.7,1.1c-0.5-0.5-1-0.7-1.7-0.7
			c-0.7,0-1.2,0.3-1.6,0.8s-0.6,1.2-0.6,2c0,0.1,0,0.2,0,0.2c0.2-0.3,0.5-0.6,0.9-0.8s0.8-0.3,1.3-0.3c0.8,0,1.5,0.2,2,0.7
			c0.5,0.5,0.8,1.1,0.8,2c0,0.8-0.3,1.5-0.8,2C61.1,106.9,60.3,107.1,59.4,107.1z M59.3,105.8c0.5,0,0.9-0.1,1.2-0.4s0.5-0.6,0.5-1
			c0-0.5-0.2-0.9-0.5-1.1c-0.3-0.3-0.7-0.4-1.2-0.4c-0.3,0-0.7,0.1-1,0.3c-0.3,0.2-0.6,0.4-0.8,0.7c0,0.5,0.2,1,0.5,1.4
			C58.3,105.7,58.7,105.8,59.3,105.8z"/>
		<path class="st0" d="M66.8,107.1c-1.3,0-2.4-0.4-3.1-1.3l0.8-1c0.6,0.7,1.3,1,2.2,1c0.5,0,0.9-0.1,1.2-0.4s0.5-0.6,0.5-1
			c0-0.5-0.2-0.8-0.5-1.1s-0.7-0.4-1.2-0.4c-0.7,0-1.3,0.2-1.8,0.7l-1-0.3v-4.7h5.5v1.3h-4v2.4c0.5-0.5,1.1-0.7,1.9-0.7
			c0.7,0,1.4,0.2,1.9,0.7c0.5,0.5,0.8,1.1,0.8,2c0,0.9-0.3,1.5-0.9,2.1C68.5,106.9,67.7,107.1,66.8,107.1z"/>
	</g>
	<g>
		<path class="st0" d="M54.5,76.5h-6v-1.1c1.7-1.3,2.9-2.3,3.6-2.9s0.9-1.2,0.9-1.8c0-0.4-0.1-0.7-0.4-0.9s-0.7-0.3-1.1-0.3
			c-0.9,0-1.7,0.3-2.2,1l-0.8-1c0.4-0.4,0.8-0.8,1.4-1c0.5-0.2,1.1-0.3,1.7-0.3c0.8,0,1.6,0.2,2.2,0.7c0.6,0.5,0.9,1.1,0.9,1.9
			c0,0.7-0.3,1.4-0.9,2.1c-0.6,0.7-1.5,1.5-2.8,2.5h3.7V76.5z"/>
		<path class="st0" d="M59.1,76.6c-1.3,0-2.4-0.4-3.1-1.3l0.8-1c0.6,0.7,1.3,1,2.2,1c0.5,0,0.9-0.1,1.2-0.4s0.5-0.6,0.5-1
			c0-0.5-0.2-0.8-0.5-1.1c-0.3-0.3-0.7-0.4-1.2-0.4c-0.7,0-1.3,0.2-1.8,0.7l-1-0.3v-4.7h5.5v1.3h-4v2.4c0.5-0.5,1.1-0.7,1.9-0.7
			c0.7,0,1.4,0.2,1.9,0.7s0.8,1.1,0.8,2c0,0.9-0.3,1.5-0.9,2.1C60.8,76.4,60,76.6,59.1,76.6z"/>
		<path class="st0" d="M68.1,76.2c-0.4,0.2-0.9,0.4-1.5,0.4c-0.6,0-1.1-0.1-1.5-0.4c-0.4-0.2-0.8-0.6-1-1c-0.3-0.4-0.5-0.9-0.6-1.4
			s-0.2-1-0.2-1.6s0.1-1.1,0.2-1.6s0.3-1,0.6-1.4c0.3-0.4,0.6-0.7,1-1c0.4-0.2,0.9-0.4,1.5-0.4c0.6,0,1.1,0.1,1.5,0.4
			c0.4,0.2,0.8,0.6,1,1c0.3,0.4,0.5,0.9,0.6,1.4c0.1,0.5,0.2,1,0.2,1.6s-0.1,1.1-0.2,1.6c-0.1,0.5-0.3,1-0.6,1.4S68.6,76,68.1,76.2z
			 M65.2,74.5c0.3,0.6,0.8,0.9,1.4,0.9s1.1-0.3,1.4-0.9c0.3-0.6,0.5-1.3,0.5-2.2c0-0.6-0.1-1.1-0.2-1.5c-0.1-0.4-0.3-0.8-0.6-1.1
			c-0.3-0.3-0.6-0.4-1.1-0.4c-0.4,0-0.8,0.1-1.1,0.4c-0.3,0.3-0.5,0.6-0.6,1.1c-0.1,0.4-0.2,0.9-0.2,1.5
			C64.8,73.2,64.9,73.9,65.2,74.5z"/>
	</g>
	<g>
		<path class="st0" d="M54.7,47.2h-6v-1.1c1.7-1.3,2.9-2.3,3.6-2.9s0.9-1.2,0.9-1.8c0-0.4-0.1-0.7-0.4-0.9s-0.7-0.3-1.1-0.3
			c-0.9,0-1.7,0.3-2.2,1l-0.8-1c0.4-0.4,0.8-0.8,1.4-1c0.5-0.2,1.1-0.3,1.7-0.3c0.8,0,1.6,0.2,2.2,0.7c0.6,0.5,0.9,1.1,0.9,1.9
			c0,0.7-0.3,1.4-0.9,2.1c-0.6,0.7-1.5,1.5-2.8,2.5h3.7V47.2z"/>
		<path class="st0" d="M59.4,47.4c-0.6,0-1.1-0.1-1.6-0.3c-0.5-0.2-0.8-0.5-1.1-0.9c-0.3-0.4-0.5-0.9-0.6-1.4
			C56,44.2,56,43.7,56,43.1c0-1.3,0.3-2.3,1-3.1c0.6-0.8,1.5-1.2,2.7-1.2c1,0,1.8,0.3,2.4,0.9l-0.7,1.1c-0.5-0.5-1-0.7-1.7-0.7
			c-0.7,0-1.2,0.3-1.6,0.8s-0.6,1.2-0.6,2c0,0.1,0,0.2,0,0.2c0.2-0.3,0.5-0.6,0.9-0.8s0.8-0.3,1.3-0.3c0.8,0,1.5,0.2,2,0.7
			c0.5,0.5,0.8,1.1,0.8,2c0,0.8-0.3,1.5-0.8,2C61.1,47.1,60.3,47.4,59.4,47.4z M59.3,46.1c0.5,0,0.9-0.1,1.2-0.4s0.5-0.6,0.5-1
			c0-0.5-0.2-0.9-0.5-1.1c-0.3-0.3-0.7-0.4-1.2-0.4c-0.3,0-0.7,0.1-1,0.3c-0.3,0.2-0.6,0.4-0.8,0.7c0,0.5,0.2,1,0.5,1.4
			C58.3,45.9,58.7,46.1,59.3,46.1z"/>
		<path class="st0" d="M66.8,47.4c-1.3,0-2.4-0.4-3.1-1.3l0.8-1c0.6,0.7,1.3,1,2.2,1c0.5,0,0.9-0.1,1.2-0.4s0.5-0.6,0.5-1
			c0-0.5-0.2-0.8-0.5-1.1s-0.7-0.4-1.2-0.4c-0.7,0-1.3,0.2-1.8,0.7l-1-0.3v-4.7h5.5v1.3h-4v2.4c0.5-0.5,1.1-0.7,1.9-0.7
			c0.7,0,1.4,0.2,1.9,0.7c0.5,0.5,0.8,1.1,0.8,2c0,0.9-0.3,1.5-0.9,2.1C68.5,47.1,67.7,47.4,66.8,47.4z"/>
	</g>
	<g>
		<path class="st0" d="M143,29.4h-1.5v-6.4l-1.4,1.4l-0.9-0.9l2.4-2.4h1.3V29.4z"/>
		<path class="st0" d="M149.7,29.4h-1.5v-1.9h-4v-1.2l3.4-5.3h2v5.2h1.1v1.3h-1.1V29.4z M148.3,26.2v-3.8l-2.5,3.8H148.3z"/>
		<path class="st0" d="M156.5,29.2c-0.4,0.2-0.9,0.4-1.5,0.4c-0.6,0-1.1-0.1-1.5-0.4c-0.4-0.2-0.8-0.6-1-1c-0.3-0.4-0.5-0.9-0.6-1.4
			s-0.2-1-0.2-1.6s0.1-1.1,0.2-1.6s0.3-1,0.6-1.4c0.3-0.4,0.6-0.7,1-1c0.4-0.2,0.9-0.4,1.5-0.4c0.6,0,1.1,0.1,1.5,0.4
			c0.4,0.2,0.8,0.6,1,1c0.3,0.4,0.5,0.9,0.6,1.4c0.1,0.5,0.2,1,0.2,1.6s-0.1,1.1-0.2,1.6c-0.1,0.5-0.3,1-0.6,1.4
			S157,28.9,156.5,29.2z M153.6,27.4c0.3,0.6,0.8,0.9,1.4,0.9s1.1-0.3,1.4-0.9c0.3-0.6,0.5-1.3,0.5-2.2c0-0.6-0.1-1.1-0.2-1.5
			c-0.1-0.4-0.3-0.8-0.6-1.1c-0.3-0.3-0.6-0.4-1.1-0.4c-0.4,0-0.8,0.1-1.1,0.4c-0.3,0.3-0.5,0.6-0.6,1.1c-0.1,0.4-0.2,0.9-0.2,1.5
			C153.2,26.1,153.3,26.8,153.6,27.4z"/>
	</g>
	<g>
		<g>
			<path class="st4" d="M200.1,67c-11.3-2.7-32.2-8.7-44.4,1.6"/>
			<g>
				<path class="st2" d="M155.8,68.6c0.3,0,0.5,0.2,0.7,0.4c-0.4-0.1-0.8-0.1-1.2,0c0.2-0.4,0.2-0.8,0.2-1.2
					C155.6,68,155.8,68.3,155.8,68.6z"/>
			</g>
		</g>
	</g>
	<g>
		<g>
			<path class="st5" d="M201.2,95.8c-12.7,2.3-38.2-3.2-49.1-15.6"/>
			<g>
				<path class="st2" d="M152.1,80.2c0,0.2-0.2,0.4-0.3,0.5c0.1-0.3,0.1-0.6,0-0.9c0.3,0.1,0.6,0.1,0.8,0.1
					C152.5,80.1,152.3,80.3,152.1,80.2z"/>
			</g>
		</g>
	</g>
	<g>
		<g>
			<path class="st6" d="M77.7,151.6c13.5,0.6,35.9-1.9,47.7-17"/>
			<g>
				<path class="st2" d="M125.1,134.9c-1.6,0.3-3.7-0.6-5-1.4c2.6-0.1,5.2-0.7,7.5-2.1c-0.6,2.6-0.2,5.2,0.5,7.7
					C126.9,138.1,125.5,136.6,125.1,134.9z"/>
			</g>
		</g>
	</g>
	<g>
		<g>
			<path class="st7" d="M199.1,128.8c-20.5,4.7-38.5,9.7-57.5-5.6"/>
			<g>
				<path class="st2" d="M141.7,123.3c0.1,0.5-0.3,1.3-0.6,1.7c0-0.9-0.1-1.8-0.5-2.6c0.9,0.3,1.8,0.2,2.7,0
					C142.8,122.8,142.3,123.2,141.7,123.3z"/>
			</g>
		</g>
	</g>
	<g>
		<g>
			<path class="st8" d="M77.7,34.5c18.3,0,56.6,3.7,68.7,34.2"/>
			<g>
				<path class="st2" d="M146.3,68.5c0.2-0.4,0.6-0.7,1-0.8c-0.3,0.5-0.6,1.2-0.6,1.8c-0.4-0.5-1.1-0.7-1.7-0.9
					C145.4,68.5,145.9,68.4,146.3,68.5z"/>
			</g>
		</g>
	</g>
	<g>
		<g>
			<path class="st9" d="M76.5,121.8c13,1.1,37,2.8,51-7.6"/>
			<g>
				<path class="st2" d="M127.5,114.2c-0.2,0-0.5-0.2-0.6-0.4c0.4,0.1,0.7,0.1,1.1,0c-0.2,0.3-0.3,0.7-0.3,1.1
					C127.6,114.7,127.5,114.4,127.5,114.2z"/>
			</g>
		</g>
	</g>
	<g>
		<g>
			<path class="st10" d="M75.9,66.2c14.4-4,43.9-8.3,63.5,8.7"/>
			<g>
				<path class="st2" d="M139.4,74.9c0-0.2,0.1-0.4,0.2-0.5c0,0.3,0,0.5,0.1,0.8c-0.3-0.1-0.5-0.1-0.8,0
					C139,75,139.2,74.9,139.4,74.9z"/>
			</g>
		</g>
	</g>
	<g>
		<g>
			<path class="st11" d="M75.9,95.9c10.3-8.3,35.6-18.4,59.3-12.4"/>
			<g>
				<path class="st2" d="M135.2,83.5c0-0.1,0-0.2,0-0.3c0.1,0.1,0.2,0.3,0.3,0.4c-0.2,0-0.3,0.1-0.4,0.2
					C135,83.6,135.1,83.5,135.2,83.5z"/>
			</g>
		</g>
	</g>
	<g>
		<g>
			<line class="st12" x1="149" y1="31" x2="149" y2="58.1"/>
			<g>
				<path class="st2" d="M149,58c0.1-0.1,0.4-0.2,0.6-0.2c-0.3,0.2-0.5,0.5-0.6,0.8c-0.1-0.3-0.4-0.6-0.6-0.8
					C148.6,57.8,148.9,57.9,149,58z"/>
			</g>
		</g>
	</g>
	<g>
		<path class="st0" d="M210.1,139c-0.7,0-1.3-0.1-1.9-0.4c-0.5-0.2-1-0.6-1.3-1l0.8-1c0.3,0.3,0.6,0.6,1,0.7
			c0.4,0.2,0.8,0.3,1.3,0.3c0.5,0,1-0.1,1.3-0.3c0.3-0.2,0.5-0.5,0.5-0.9c0-0.8-0.6-1.2-1.9-1.2c-0.6,0-0.9,0-1,0v-1.3
			c0.1,0,0.4,0,1,0c0.5,0,0.9-0.1,1.2-0.3c0.3-0.2,0.5-0.5,0.5-0.8c0-0.4-0.2-0.7-0.5-0.9c-0.3-0.2-0.7-0.3-1.2-0.3
			c-0.8,0-1.5,0.3-2.2,0.9l-0.8-0.9c0.7-0.9,1.8-1.3,3-1.3c0.9,0,1.6,0.2,2.2,0.6s0.8,1,0.8,1.6c0,0.5-0.2,0.9-0.5,1.3
			c-0.4,0.3-0.8,0.5-1.3,0.6c0.5,0,0.9,0.2,1.3,0.6s0.6,0.8,0.6,1.4c0,0.7-0.3,1.3-0.9,1.8C211.8,138.7,211,139,210.1,139z"/>
		<path class="st0" d="M216.9,138.8h-1.6l3.2-7h-4.3v-1.3h6v1L216.9,138.8z"/>
		<path class="st0" d="M225.8,138.6c-0.4,0.2-0.9,0.4-1.5,0.4c-0.6,0-1.1-0.1-1.5-0.4c-0.4-0.2-0.8-0.6-1-1
			c-0.3-0.4-0.5-0.9-0.6-1.4s-0.2-1-0.2-1.6c0-0.5,0.1-1.1,0.2-1.6s0.3-1,0.6-1.4c0.3-0.4,0.6-0.7,1-1c0.4-0.2,0.9-0.4,1.5-0.4
			c0.6,0,1.1,0.1,1.5,0.4c0.4,0.2,0.8,0.6,1,1c0.3,0.4,0.5,0.9,0.6,1.4c0.1,0.5,0.2,1,0.2,1.6c0,0.5-0.1,1.1-0.2,1.6
			c-0.1,0.5-0.3,1-0.6,1.4C226.6,138,226.2,138.3,225.8,138.6z M222.9,136.8c0.3,0.6,0.8,0.8,1.4,0.8s1.1-0.3,1.4-0.8
			c0.3-0.6,0.5-1.3,0.5-2.2c0-0.6-0.1-1.1-0.2-1.5c-0.1-0.4-0.3-0.8-0.6-1.1s-0.6-0.4-1.1-0.4c-0.4,0-0.8,0.1-1.1,0.4
			s-0.5,0.6-0.6,1.1c-0.1,0.4-0.2,0.9-0.2,1.5C222.5,135.5,222.6,136.3,222.9,136.8z"/>
	</g>
</g>
</svg>
