<?xml version="1.0" encoding="utf-8"?>
<!-- Generator: Adobe Illustrator 19.2.0, SVG Export Plug-In . SVG Version: 6.00 Build 0)  -->
<svg version="1.1" id="Layer_1" xmlns="http://www.w3.org/2000/svg" xmlns:xlink="http://www.w3.org/1999/xlink" x="0px" y="0px"
	 viewBox="0 0 266.2 169.3" style="enable-background:new 0 0 266.2 169.3;" xml:space="preserve">
<style type="text/css">
	.st0{fill:#0D92FF;}
	.st1{fill:none;stroke:#00325C;stroke-width:0.155;stroke-miterlimit:10;}
	.st2{fill:#00325C;}
	.st3{fill:#787878;}
	.st4{fill:none;stroke:#00325C;stroke-width:0.395;stroke-miterlimit:10;}
	.st5{fill:none;stroke:#00325C;stroke-width:5.500000e-02;stroke-miterlimit:10;}
	.st6{fill:none;stroke:#00325C;stroke-width:0.97;stroke-miterlimit:3;}
	.st7{fill:none;stroke:#00325C;stroke-width:0.145;stroke-miterlimit:10;}
	.st8{fill:none;stroke:#00325C;stroke-width:0.22;stroke-miterlimit:10;}
	.st9{fill:none;stroke:#00325C;stroke-width:0.15;stroke-miterlimit:10;}
	.st10{fill:none;stroke:#00325C;stroke-width:0.23;stroke-miterlimit:10;}
	.st11{fill:none;stroke:#00325C;stroke-width:6.000000e-02;stroke-miterlimit:10;}
</style>
<g>
	<path class="st0" d="M141.8,137.9L141.8,137.9L141.8,137.9L141.8,137.9L141.8,137.9l0.1-0.1L141.8,137.9L141.8,137.9L141.8,137.9
		L141.8,137.9L141.8,137.9z M142.1,139.2L142.1,139.2L142.1,139.2L142.1,139.2l0.1-0.1L142.1,139.2l0.1-0.1L142.1,139.2L142.1,139.2
		L142.1,139.2L142.1,139.2L142.1,139.2L142.1,139.2L142.1,139.2L142.1,139.2L142.1,139.2z M141.6,139.2L141.6,139.2l0,0.1
		L141.6,139.2L141.6,139.2L141.6,139.2L141.6,139.2L141.6,139.2L141.6,139.2z M141.7,139.7L141.7,139.7L141.7,139.7L141.7,139.7
		L141.7,139.7L141.7,139.7L141.7,139.7l-0.1,0.1l0,0.1l0,0l0.1,0l0,0l0-0.1l0,0L141.7,139.7L141.7,139.7L141.7,139.7L141.7,139.7z
		 M120.1,144L120.1,144L120.1,144L120.1,144L120.1,144l-0.1,0l0,0l0,0l0,0l0,0l0,0.1l0,0l0,0l0,0l0,0l0,0l0,0l0,0L120.1,144
		L120.1,144L120.1,144z M140.7,145.1L140.7,145.1l0.1,0.1l0,0L140.7,145.1L140.7,145.1l0-0.1L140.7,145.1L140.7,145.1z M141.1,147.1
		L141.1,147.1L141.1,147.1L141.1,147.1L141.1,147.1L141.1,147.1z M140.3,148.3L140.3,148.3L140.3,148.3l0.1,0l0,0l0,0l0,0l0.1,0l0,0
		l0,0l-0.1,0L140.3,148.3l0-0.1l0,0L140.3,148.3L140.3,148.3L140.3,148.3L140.3,148.3z M135.3,155.5L135.3,155.5L135.3,155.5v-0.1
		V155.5z M133.5,155.7L133.5,155.7L133.5,155.7L133.5,155.7L133.5,155.7L133.5,155.7L133.5,155.7L133.5,155.7L133.5,155.7z
		 M136.9,156.4L136.9,156.4L136.9,156.4L136.9,156.4L136.9,156.4L136.9,156.4L136.9,156.4L136.9,156.4L136.9,156.4L136.9,156.4
		l0,0.1L136.9,156.4L136.9,156.4L136.9,156.4L136.9,156.4z M132.9,156.5L132.9,156.5L132.9,156.5l0,0.1h0L132.9,156.5L132.9,156.5
		L132.9,156.5z M158.8,91.1L158.8,91.1L158.8,91.1L158.8,91.1L158.8,91.1L158.8,91.1L158.8,91.1z M157.5,91.2L157.5,91.2L157.5,91.2
		L157.5,91.2L157.5,91.2L157.5,91.2L157.5,91.2L157.5,91.2z M157,91.3L157,91.3l0,0.2h0l0,0l0,0L157,91.3L157,91.3L157,91.3z
		 M157,91.8L157,91.8l0,0.1l0,0l0,0l0,0l0,0.1L157,91.8L157,91.8L157,91.8z M155.7,92.5L155.7,92.5L155.7,92.5l0,0.1L155.7,92.5
		L155.7,92.5L155.7,92.5z M154.1,93.5L154.1,93.5L154.1,93.5L154.1,93.5l-0.1,0.1l0,0l0,0.1l0-0.1L154.1,93.5L154.1,93.5z
		 M154.1,94.2l0,0.1L154.1,94.2L154.1,94.2L154.1,94.2L154.1,94.2z M152.5,94.4L152.5,94.4l0-0.1L152.5,94.4l0,0.1l0,0l0,0l0,0l0,0
		l0.1,0l0-0.1L152.5,94.4L152.5,94.4z M152.1,94.5L152.1,94.5L152.1,94.5L152.1,94.5L152.1,94.5L152.1,94.5L152.1,94.5L152.1,94.5z
		 M151.1,96.2L151.1,96.2L151.1,96.2l0-0.1l0,0L151.1,96.2L151.1,96.2z M149.9,96.9L149.9,96.9L149.9,96.9L149.9,96.9l0.1,0
		L149.9,96.9L149.9,96.9L149.9,96.9z M149.7,97.3L149.7,97.3L149.7,97.3l0.1-0.1L149.7,97.3L149.7,97.3z M166.1,71.4L166.1,71.4
		l0,0.2l0,0L166.1,71.4L166.1,71.4z M166.1,71.4L166.1,71.4l0,0.1l0.1,0.1l0,0L166.1,71.4L166.1,71.4z M171.8,71.5L171.8,71.5
		L171.8,71.5l0,0.1L171.8,71.5L171.8,71.5L171.8,71.5L171.8,71.5L171.8,71.5L171.8,71.5z M172,71.7L172,71.7L172,71.7l0-0.1l-0.1,0
		L172,71.7z M169.2,71.6L169.2,71.6L169.2,71.6L169.2,71.6L169.2,71.6L169.2,71.6L169.2,71.6L169.2,71.6L169.2,71.6L169.2,71.6
		L169.2,71.6z M168.1,71.5L168.1,71.5L168.1,71.5l0,0.1l0,0l0,0l0,0L168.1,71.5L168.1,71.5z M171.2,71.6L171.2,71.6L171.2,71.6
		L171.2,71.6L171.2,71.6L171.2,71.6L171.2,71.6z M168.7,72L168.7,72L168.7,72L168.7,72L168.7,72z M170.9,72L170.9,72L170.9,72
		L170.9,72L170.9,72L170.9,72z M168.1,72.1L168.1,72.1L168.1,72.1L168.1,72.1L168.1,72.1L168.1,72.1l0-0.1l0,0l0,0l0,0l0,0
		L168.1,72.1L168.1,72.1L168.1,72.1L168,72l0,0l0,0l0,0l0,0L168.1,72.1L168.1,72.1L168.1,72.1L168.1,72.1z M168.9,71.9L168.9,71.9
		L168.9,71.9L168.9,71.9l-0.1,0.1l0,0l0,0l0,0l0,0L168.9,71.9L168.9,71.9L168.9,71.9z M171.6,72.1L171.6,72.1L171.6,72.1L171.6,72.1
		L171.6,72.1L171.6,72.1L171.6,72.1z M169.5,72.2l-0.1-0.1L169.5,72.2L169.5,72.2L169.5,72.2l0,0.1l0,0L169.5,72.2L169.5,72.2z
		 M167.9,72.2L167.9,72.2L167.9,72.2L167.9,72.2L167.9,72.2L167.9,72.2z M167.9,72.3L167.9,72.3L167.9,72.3L167.9,72.3L167.9,72.3
		L167.9,72.3z M172,72.5L172,72.5l-0.1-0.1l-0.1,0l0,0L172,72.5L172,72.5L172,72.5L172,72.5l0,0.1l0,0L172,72.5L172,72.5L172,72.5z
		 M171.8,72.6L171.8,72.6L171.8,72.6L171.8,72.6l-0.1-0.1l0,0.1L171.8,72.6L171.8,72.6L171.8,72.6z M166.7,72.8L166.7,72.8
		L166.7,72.8L166.7,72.8L166.7,72.8L166.7,72.8L166.7,72.8L166.7,72.8L166.7,72.8L166.7,72.8z M166,72.7L166,72.7L166,72.7L166,72.7
		l-0.1,0.1l0.1,0l0.1,0L166,72.7L166,72.7L166,72.7z M171.8,72.8L171.8,72.8L171.8,72.8l0.1,0.1l0,0l0,0L171.8,72.8L171.8,72.8
		L171.8,72.8z M167.2,72.8L167.2,72.8L167.2,72.8L167.2,72.8L167.2,72.8l-0.1,0l0,0L167.2,72.8l0,0.1l0,0l0,0l0,0L167.2,72.8
		L167.2,72.8z M171.9,72.8L171.9,72.8L171.9,72.8L171.9,72.8L171.9,72.8z M170.6,72.9L170.6,72.9L170.6,72.9L170.6,72.9l0,0.1l0,0
		l0,0l0,0l0,0L170.6,72.9L170.6,72.9z M166.3,73L166.3,73L166.3,73l0-0.1l0,0l0,0l0,0l0,0l0,0l0,0.1L166.3,73L166.3,73z M171.2,73
		L171.2,73L171.2,73L171.2,73L171.2,73z M169.5,73L169.5,73L169.5,73L169.5,73L169.5,73z M171.5,73L171.5,73L171.5,73L171.5,73
		L171.5,73z M167.1,73L167.1,73L167.1,73L167.1,73L167.1,73L167.1,73L167.1,73L167.1,73l0,0.1l0,0l0,0L167.1,73L167.1,73z
		 M170.5,73.2L170.5,73.2L170.5,73.2l-0.1-0.2l0,0l0,0l0,0.1L170.5,73.2L170.5,73.2L170.5,73.2L170.5,73.2L170.5,73.2L170.5,73.2
		L170.5,73.2z M166.3,73.3L166.3,73.3L166.3,73.3L166.3,73.3L166.3,73.3z M171.5,73.5L171.5,73.5L171.5,73.5L171.5,73.5L171.5,73.5
		L171.5,73.5L171.5,73.5L171.5,73.5L171.5,73.5z M172.2,73.4L172.2,73.4L172.2,73.4L172.2,73.4L172.2,73.4L172.2,73.4z M170.6,73.5
		L170.6,73.5L170.6,73.5L170.6,73.5L170.6,73.5z M169.4,74.3L169.4,74.3L169.4,74.3L169.4,74.3L169.4,74.3L169.4,74.3L169.4,74.3
		L169.4,74.3L169.4,74.3L169.4,74.3z M164.7,71.6L164.7,71.6L164.7,71.6L164.7,71.6L164.7,71.6l-0.1-0.1L164.7,71.6L164.7,71.6
		L164.7,71.6L164.7,71.6L164.7,71.6z M165,71.9L165,71.9L165,71.9L165,71.9L165,71.9z M165.4,72.2L165.4,72.2L165.4,72.2L165.4,72.2
		L165.4,72.2z M165.3,72.3L165.3,72.3L165.3,72.3L165.3,72.3L165.3,72.3L165.3,72.3L165.3,72.3L165.3,72.3z M164.9,72.8L164.9,72.8
		L164.9,72.8L164.9,72.8l0.1,0.1L164.9,72.8L164.9,72.8L164.9,72.8L164.9,72.8L164.9,72.8z M164.7,73L164.7,73L164.7,73L164.7,73
		L164.7,73L164.7,73z M165,73.2L165,73.2l0,0.1l0,0L165,73.2z M164.5,73.6L164.5,73.6L164.5,73.6l0-0.1l0,0L164.5,73.6L164.5,73.6
		L164.5,73.6L164.5,73.6z M164.7,74.2L164.7,74.2L164.7,74.2L164.7,74.2L164.7,74.2L164.7,74.2L164.7,74.2z M163.1,74.6L163.1,74.6
		L163.1,74.6L163.1,74.6L163.1,74.6L163.1,74.6l-0.1-0.1l0,0l0,0l0,0l0,0l0,0l0,0l0,0L163.1,74.6L163.1,74.6L163.1,74.6L163.1,74.6
		L163.1,74.6L163.1,74.6z M163.2,74.6L163.2,74.6L163.2,74.6l0.1,0.1L163.2,74.6L163.2,74.6z M165.6,74.8L165.6,74.8l0.1,0.1
		L165.6,74.8L165.6,74.8L165.6,74.8z M165.5,75L165.5,75L165.5,75L165.5,75L165.5,75L165.5,75l0.1,0L165.5,75L165.5,75z M162.2,75.8
		L162.2,75.8L162.2,75.8L162.2,75.8l0-0.1l0,0l0,0L162.2,75.8L162.2,75.8z M162.6,76.1L162.6,76.1L162.6,76.1l-0.1,0l0,0l0,0l0,0
		H162.6L162.6,76.1L162.6,76.1L162.6,76.1L162.6,76.1L162.6,76.1L162.6,76.1L162.6,76.1z M164.5,76.4L164.5,76.4L164.5,76.4
		L164.5,76.4L164.5,76.4L164.5,76.4L164.5,76.4L164.5,76.4z M162.7,76.9L162.7,76.9L162.7,76.9L162.7,76.9L162.7,76.9L162.7,76.9
		L162.7,76.9z M162.4,77.6L162.4,77.6l0,0.1l0.1,0.1l0,0L162.4,77.6L162.4,77.6z M162.6,77.7L162.6,77.7L162.6,77.7l0.1,0.1l0-0.1
		L162.6,77.7L162.6,77.7z M161.6,78.1L161.6,78.1L161.6,78.1l-0.1,0.1l0,0l0,0.1l0.1,0l0,0l0,0l0-0.1L161.6,78.1z M161.8,78.2
		L161.8,78.2L161.8,78.2L161.8,78.2l-0.1,0.1l0,0l0.1,0L161.8,78.2L161.8,78.2L161.8,78.2z M161.2,78.7L161.2,78.7L161.2,78.7
		L161.2,78.7L161.2,78.7L161.2,78.7l0.2,0l0-0.1l-0.1-0.1L161.2,78.7L161.2,78.7L161.2,78.7L161.2,78.7z M160.9,83.5L160.9,83.5
		L160.9,83.5L160.9,83.5L160.9,83.5L160.9,83.5L160.9,83.5z M159.2,87.4L159.2,87.4L159.2,87.4L159.2,87.4L159.2,87.4z M152.1,127.5
		L152.1,127.5L152.1,127.5L152.1,127.5z M151.1,127.7L151.1,127.7L151.1,127.7L151.1,127.7L151.1,127.7z M151,127.8L151,127.8
		L151,127.8L151,127.8L151,127.8L151,127.8l0,0.1L151,127.8L151,127.8L151,127.8L151,127.8z M150.6,127.9L150.6,127.9L150.6,127.9
		L150.6,127.9L150.6,127.9L150.6,127.9L150.6,127.9L150.6,127.9L150.6,127.9L150.6,127.9L150.6,127.9L150.6,127.9L150.6,127.9z
		 M151.4,128.3L151.4,128.3L151.4,128.3L151.4,128.3L151.4,128.3z M151.1,129.2L151.1,129.2L151.1,129.2L151.1,129.2L151.1,129.2
		L151.1,129.2L151.1,129.2L151.1,129.2z M151.3,129.7L151.3,129.7L151.3,129.7l0-0.1L151.3,129.7L151.3,129.7L151.3,129.7
		L151.3,129.7L151.3,129.7L151.3,129.7z M152.5,129.6L152.5,129.6L152.5,129.6L152.5,129.6L152.5,129.6L152.5,129.6z M148.7,131.4
		L148.7,131.4L148.7,131.4L148.7,131.4l0.1,0l0-0.1L148.7,131.4L148.7,131.4z M147.9,131.5L147.9,131.5L147.9,131.5L147.9,131.5
		L147.9,131.5L147.9,131.5z M148.6,132.2L148.6,132.2l0,0.1L148.6,132.2L148.6,132.2L148.6,132.2L148.6,132.2z M149.3,132.4
		L149.3,132.4L149.3,132.4L149.3,132.4L149.3,132.4l0-0.1L149.3,132.4L149.3,132.4L149.3,132.4L149.3,132.4L149.3,132.4L149.3,132.4
		L149.3,132.4L149.3,132.4L149.3,132.4z M148.7,132.6L148.7,132.6L148.7,132.6L148.7,132.6L148.7,132.6l0.1-0.1l0-0.1l-0.1,0l0,0
		l0,0L148.7,132.6L148.7,132.6L148.7,132.6L148.7,132.6z M146.9,132.9L146.9,132.9L146.9,132.9L146.9,132.9l0.1,0L146.9,132.9l0-0.1
		l0,0l0,0l0,0l-0.1,0L146.9,132.9L146.9,132.9L146.9,132.9z M145,134.5L145,134.5L145,134.5L145,134.5L145,134.5L145,134.5l0,0.1
		l0,0l0,0L145,134.5L145,134.5L145,134.5z M145.6,135.1L145.6,135.1l0,0.1l0,0.1l0,0l0,0l0,0L145.6,135.1L145.6,135.1L145.6,135.1z
		 M165,71.6L165,71.6L165,71.6L165,71.6l0-0.1l0-0.1l0,0L165,71.6L165,71.6L165,71.6L165,71.6L165,71.6z M165.6,71.8L165.6,71.8
		L165.6,71.8L165.6,71.8l0-0.1l0,0l0,0l0,0l0,0L165.6,71.8L165.6,71.8L165.6,71.8L165.6,71.8L165.6,71.8z M168.2,72L168.2,72
		L168.2,72L168.2,72L168.2,72l0.1-0.1l0,0l-0.1,0L168.2,72L168.2,72L168.2,72z M168.4,72.3L168.4,72.3l-0.1-0.2l0,0l0,0l-0.1,0
		l-0.1,0l0,0.1l0,0l0,0l0,0l0,0l0,0l0,0l0,0l0,0l0,0l0,0l0,0l0,0l0,0l0,0l0,0l0,0l0,0l0,0l0,0l0,0l0-0.1l0,0l0-0.1l0,0L168.4,72.3
		L168.4,72.3L168.4,72.3L168.4,72.3L168.4,72.3l0,0.1l0,0L168.4,72.3L168.4,72.3L168.4,72.3z M169.3,72.3L169.3,72.3L169.3,72.3
		l-0.1-0.1l0,0l0,0l0,0v0l0,0l0,0.1l0,0L169.3,72.3L169.3,72.3l-0.1,0.1l0,0l0,0l0,0l0,0L169.3,72.3L169.3,72.3L169.3,72.3z
		 M164.7,72.5L164.7,72.5L164.7,72.5L164.7,72.5l0.1-0.1l0,0l0,0l0,0l0,0l0,0L164.7,72.5L164.7,72.5L164.7,72.5z M171.3,72.6
		L171.3,72.6L171.3,72.6l-0.2,0l0,0l0,0l0,0l0,0l0,0l0,0l0,0l0.1,0L171.3,72.6L171.3,72.6L171.3,72.6L171.3,72.6z M165.5,73
		L165.5,73L165.5,73L165.5,73l0.2,0l0,0l0,0l0-0.1l0-0.1l0-0.1l0,0l0,0l0,0l0,0l0,0l0,0l0,0.1L165.5,73L165.5,73L165.5,73z
		 M167.5,72.8L167.5,72.8L167.5,72.8L167.5,72.8L167.5,72.8L167.5,72.8l-0.1,0l0,0l0,0l0,0l0,0l0.1,0l0,0l0,0L167.5,72.8L167.5,72.8
		L167.5,72.8z M165.6,73.1L165.6,73.1L165.6,73.1l0,0.1l0,0l0,0l0.1,0l0-0.1L165.6,73.1L165.6,73.1z M164.8,73.4L164.8,73.4
		L164.8,73.4L164.8,73.4L164.8,73.4L164.8,73.4L164.8,73.4L164.8,73.4l0-0.1l0,0L164.8,73.4L164.8,73.4L164.8,73.4z M170.3,73.7
		l0-0.1l0-0.1h0l0,0.1L170.3,73.7L170.3,73.7L170.3,73.7L170.3,73.7L170.3,73.7l-0.1,0.1l0,0l0,0l0,0l0,0l0,0h0l0,0l0,0l0,0l0,0l0,0
		l0,0l0,0v-0.1l0-0.1L170.3,73.7z M166.3,74.1L166.3,74.1L166.3,74.1l0.1,0L166.3,74.1l0.1-0.2l0,0l0,0l0,0l0,0L166.3,74.1
		L166.3,74.1z M165.9,74.1L165.9,74.1l-0.1-0.1l0,0.1l0,0.1l0,0.1l0,0l0.1,0L165.9,74.1L165.9,74.1L165.9,74.1z M166.3,74.1
		L166.3,74.1L166.3,74.1l-0.2-0.1l0,0l0,0.1L166.3,74.1L166.3,74.1L166.3,74.1L166.3,74.1l0,0.1l0,0l0,0l0,0l0,0l0,0l0-0.1l0,0l0,0
		l0,0l0-0.1L166.3,74.1L166.3,74.1z M164.5,74.5L164.5,74.5l0-0.2l0,0l0,0l-0.1-0.1l0,0l0.1,0.1l0.1,0.1l0,0.1L164.5,74.5
		L164.5,74.5L164.5,74.5z M165.9,74.3L165.9,74.3l0.1,0.1l0-0.1L165.9,74.3L165.9,74.3z M163.4,74.6L163.4,74.6L163.4,74.6
		L163.4,74.6l0-0.1l-0.1,0l-0.1,0l0,0v0.1l0,0l0,0l0,0.1L163.4,74.6L163.4,74.6L163.4,74.6L163.4,74.6L163.4,74.6L163.4,74.6z
		 M165.3,74.6L165.3,74.6L165.3,74.6l-0.1-0.1l0,0l0,0l0,0l0,0h0l0,0l0,0.1l0,0.1l0,0l0,0l0,0l0,0l0,0l0,0l0,0l0.1,0l0.1,0l0,0
		L165.3,74.6L165.3,74.6z M166,74.6L166,74.6l-0.1-0.1l-0.1,0l0,0l0,0.1L166,74.6L166,74.6L166,74.6z M166.1,74.7L166.1,74.7
		L166.1,74.7L166.1,74.7l-0.1,0.1l0,0l0,0l0,0l0,0l0,0l0,0l0,0l0,0l0,0l0,0L166.1,74.7L166.1,74.7L166.1,74.7L166.1,74.7z
		 M163.5,75.2L163.5,75.2L163.5,75.2l0,0.1l0,0l0,0.1l0,0l0-0.1l0,0l0,0L163.5,75.2L163.5,75.2L163.5,75.2z M163.2,75.5L163.2,75.5
		L163.2,75.5l-0.1,0.1l0,0.1l0,0l0,0l0,0L163.2,75.5L163.2,75.5L163.2,75.5L163.2,75.5z M165.1,75.5L165.1,75.5l-0.1,0l0,0
		L165.1,75.5l-0.1,0.1l0,0l0,0l0,0l0,0l0,0l0,0L165.1,75.5L165.1,75.5L165.1,75.5z M162,76L162,76L162,76l0.1,0.1l0.1,0l0.1,0l0-0.1
		l0,0l0-0.1l0,0l0-0.1l-0.1-0.1l-0.1-0.1l0,0l0,0l-0.1,0l0,0l0,0l0,0l0,0l0,0l-0.1,0l0,0l0,0l0,0l0,0l0,0l0,0l0,0l0,0l0.1,0l0,0
		l0-0.1l0,0l0,0l0,0l0,0l0,0L162,76L162,76L162,76z M163,75.7L163,75.7L163,75.7l-0.1-0.1l-0.1,0l0,0.1l0,0.1l0.1,0.1l0.1,0l0,0
		L163,75.7L163,75.7z M164.7,75.8L164.7,75.8L164.7,75.8l-0.1-0.1l0-0.1l0,0l0,0.1l0.1,0.1L164.7,75.8L164.7,75.8l0,0.1l0,0.1l0,0
		l0,0l0,0L164.7,75.8L164.7,75.8L164.7,75.8z M164.9,75.7L164.9,75.7L164.9,75.7l0.1,0.1L164.9,75.7L164.9,75.7L164.9,75.7
		L164.9,75.7z M164.9,76L164.9,76L164.9,76L164.9,76l-0.1,0.1l0,0L164.9,76L164.9,76L164.9,76L164.9,76z M162,76.3L162,76.3
		L162,76.3l-0.1,0l0,0.1l0.1,0.1l0.1,0.1l0.1,0l0-0.1L162,76.3L162,76.3z M162.4,77L162.4,77L162.4,77l-0.1-0.1l0,0l0,0l0,0l-0.1,0
		l0,0l-0.1,0l0,0l0,0.1L162,77l0.1,0l0,0l0,0l0,0L162.4,77l0,0.1l0,0.1l0,0l0-0.1L162.4,77L162.4,77z M162.3,77.5L162.3,77.5
		L162.3,77.5l0-0.1l0,0l0,0l0,0l0,0l0,0l0,0l0,0l0,0l0,0l0,0l0,0l0,0l0,0.1l0,0.1l0.1,0.1l0.1,0.1L162.3,77.5L162.3,77.5l0,0.1l0,0
		l0,0L162.3,77.5L162.3,77.5z M160,80.6L160,80.6l-0.1-0.1l0,0l0,0.1l0,0.1l0,0.1l0,0.1l0,0l0,0l0,0l0-0.1L160,80.6L160,80.6z
		 M159.4,82.7l0.2,0.1l0,0l0,0l0,0l0-0.1l0-0.1l0,0l0,0l0,0.1L159.4,82.7L159.4,82.7l0-0.1l0,0l0-0.1l-0.1-0.1l-0.1,0l0,0l0,0.1l0,0
		L159.4,82.7L159.4,82.7L159.4,82.7z M157.8,92.9L157.8,92.9l0,0.1l0,0L157.8,92.9L157.8,92.9l-0.1,0.1l0,0.1l0,0l0.1,0l0,0l0,0l0,0
		L157.8,92.9L157.8,92.9L157.8,92.9L157.8,92.9L157.8,92.9z M149,97.5L149,97.5l0-0.1l0-0.1l0,0l0,0l0,0.1L149,97.5L149,97.5
		L149,97.5z M149.6,97.4l-0.1,0l0,0l0,0l0,0L149.6,97.4L149.6,97.4L149.6,97.4z M149.4,97.5L149.4,97.5L149.4,97.5L149.4,97.5
		L149.4,97.5z M149.3,97.9L149.3,97.9L149.3,97.9l0,0.1l0,0.1l0,0V98L149.3,97.9L149.3,97.9L149.3,97.9z M148.8,98.2L148.8,98.2
		L148.8,98.2l0-0.1l0-0.1l0,0l0,0.1L148.8,98.2L148.8,98.2L148.8,98.2z M148.3,98.4L148.3,98.4L148.3,98.4L148.3,98.4l0.1,0l0.1-0.1
		l0,0l0-0.1l0-0.1l0,0l0,0l-0.1,0l0,0l0-0.1l-0.1,0.1l0,0.1l0,0.1L148.3,98.4L148.3,98.4L148.3,98.4L148.3,98.4z M148.9,98.8
		L148.9,98.8l0-0.2l0-0.1l0,0l-0.1,0.1l0,0l0,0.2l0,0L148.9,98.8L148.9,98.8z M145.7,99.6L145.7,99.6L145.7,99.6l0,0.1l0,0
		L145.7,99.6L145.7,99.6L145.7,99.6L145.7,99.6z M147.5,100.2L147.5,100.2l0-0.1L147.5,100.2L147.5,100.2z M146.3,100.9L146.3,100.9
		l0-0.1l-0.1,0l-0.2,0l0,0l0,0.1l0.1,0.2l0,0L146.3,100.9L146.3,100.9L146.3,100.9z M147.1,100.7l-0.1,0.1l0,0l0,0.1l0,0
		L147.1,100.7L147.1,100.7L147.1,100.7L147.1,100.7L147.1,100.7z M146.5,101.7l-0.2,0l0,0l0,0l0,0l0.3,0.2l0-0.1l0-0.1L146.5,101.7
		L146.5,101.7L146.5,101.7L146.5,101.7z M145.7,103.2L145.7,103.2L145.7,103.2L145.7,103.2z M145,105.7L145,105.7l-0.1,0.2l0,0.1
		l0,0.1l0.1,0l0,0l0,0l0,0l0.1-0.1l0,0l0,0l0,0L145,105.7L145,105.7z M144.2,108.1L144.2,108.1l-0.1,0l-0.1,0l0,0l0,0.1l0,0
		L144.2,108.1L144.2,108.1L144.2,108.1z M144,108.2L144,108.2L144,108.2L144,108.2L144,108.2L144,108.2L144,108.2L144,108.2z
		 M144.3,110.3L144.3,110.3L144.3,110.3L144.3,110.3L144.3,110.3L144.3,110.3l0-0.1l-0.1,0L144.3,110.3L144.3,110.3L144.3,110.3z
		 M143.3,111.5L143.3,111.5l-0.1-0.1l0,0l0,0l0,0l0,0l0,0.1l0,0h0l0.1,0L143.3,111.5L143.3,111.5L143.3,111.5L143.3,111.5z
		 M143.8,111.7l-0.2,0l-0.1,0l0,0.1l0,0.1l0,0.1l0,0l0,0l0,0l0,0l0,0l0,0l0,0l0,0l0.2,0l0,0l0-0.1L143.8,111.7L143.8,111.7z
		 M143.3,115.2L143.3,115.2L143.3,115.2L143.3,115.2l0.1-0.1l0,0l0,0l0,0l0,0l0,0l0,0L143.3,115.2L143.3,115.2L143.3,115.2z
		 M143.1,116.2L143.1,116.2L143.1,116.2l0-0.1l0,0l0,0l0,0l0,0l0,0.1l0,0.1l0,0l0,0L143.1,116.2L143.1,116.2L143.1,116.2
		L143.1,116.2L143.1,116.2L143.1,116.2z M143.3,118.3L143.3,118.3L143.3,118.3L143.3,118.3l0.1,0.1h0l0.1,0l0,0l0,0l-0.1,0l0,0l0,0
		L143.3,118.3L143.3,118.3L143.3,118.3L143.3,118.3z M147.9,120.7L147.9,120.7L147.9,120.7l0-0.1l0,0l0,0l0,0l-0.1,0l-0.1,0l0,0l0,0
		L147.9,120.7L147.9,120.7z M148.9,122.8L148.9,122.8l-0.1-0.1l0,0l0,0l0,0.1l0,0l0.1,0L148.9,122.8L148.9,122.8L148.9,122.8
		L148.9,122.8z M148.5,123.3L148.5,123.3l-0.2-0.1l-0.2,0l0.1,0.2l0.2,0.1l0.1,0l0,0L148.5,123.3L148.5,123.3L148.5,123.3
		L148.5,123.3z M148.6,123.2L148.6,123.2L148.6,123.2L148.6,123.2L148.6,123.2L148.6,123.2L148.6,123.2l0,0.1l0,0l0,0l0,0l0,0l0,0
		l0,0l0.1,0l0-0.1l0,0L148.6,123.2L148.6,123.2z M151,126.1L151,126.1L151,126.1l-0.1,0.1l-0.1,0.1l0,0l0,0l0,0l0,0l0,0l0.1-0.1l0,0
		L151,126.1L151,126.1L151,126.1z M150.7,126.8L150.7,126.8L150.7,126.8L150.7,126.8L150.7,126.8l0.1,0l0,0l0,0L150.7,126.8
		L150.7,126.8z M151.1,126.9L151.1,126.9L151.1,126.9L151.1,126.9L151.1,126.9l0.1,0.1L151.1,126.9l0.1,0l0,0l0,0l0,0L151.1,126.9
		L151.1,126.9L151.1,126.9L151.1,126.9z M151,127.1l-0.1,0l0,0l0,0v0l0,0.1l0.1,0L151,127.1L151,127.1L151,127.1L151,127.1z
		 M149.9,127.7L149.9,127.7l-0.2,0l0,0.1l0,0l0,0l0.1,0l0.1,0h0l0,0L149.9,127.7L149.9,127.7L149.9,127.7L149.9,127.7L149.9,127.7
		L149.9,127.7L149.9,127.7L149.9,127.7z M151.2,127.8L151.2,127.8L151.2,127.8L151.2,127.8L151.2,127.8L151.2,127.8L151.2,127.8
		L151.2,127.8L151.2,127.8L151.2,127.8L151.2,127.8L151.2,127.8z M151,128.5L151,128.5L151,128.5l0.1,0l0,0l0,0l0,0l0,0l0,0l0,0
		L151,128.5L151,128.5z M150.5,128.6L150.5,128.6l0.1,0.1l0,0l0.1-0.1l0,0l0,0l0,0l0,0L150.5,128.6L150.5,128.6z M149.3,129.4
		L149.3,129.4L149.3,129.4l-0.1,0l0,0L149.3,129.4l0.4,0l0,0l0,0l0,0l-0.1,0l0,0l0,0l0,0l0,0l0,0L149.3,129.4L149.3,129.4z
		 M149.3,129.5L149.3,129.5L149.3,129.5l-0.1,0l0,0l0,0l0,0l-0.1,0l-0.1,0.1l0,0.1l0,0l0.1,0l0,0l0,0l0,0l0.1,0l0,0L149.3,129.5
		l-0.1,0.1l0,0L149.3,129.5L149.3,129.5z M147.5,129.8L147.5,129.8l0.2-0.1l0-0.1l-0.1-0.1l-0.1,0l0,0l0,0l0,0L147.5,129.8
		L147.5,129.8L147.5,129.8L147.5,129.8z M150.5,129.9L150.5,129.9L150.5,129.9L150.5,129.9L150.5,129.9z M147.9,129.9L147.9,129.9
		L147.9,129.9L147.9,129.9L147.9,129.9l-0.1-0.1l0,0l0,0.2L147.9,129.9l0.1,0.1l0,0L147.9,129.9L147.9,129.9L147.9,129.9z
		 M150.2,129.9L150.2,129.9L150.2,129.9L150.2,129.9L150.2,129.9l0-0.1l0,0l0,0l0,0l0,0l0,0.1L150.2,129.9L150.2,129.9L150.2,129.9z
		 M150,130.4L150,130.4L150,130.4L150,130.4L150,130.4L150,130.4L150,130.4L150,130.4l-0.1-0.1l0,0.1l0,0.1l0,0.1l0,0l0,0l0,0l0.1,0
		L150,130.4L150,130.4L150,130.4L150,130.4L150,130.4z M149.9,130.8L149.9,130.8L149.9,130.8L149.9,130.8L149.9,130.8L149.9,130.8
		L149.9,130.8L149.9,130.8z M150.1,131L150.1,131L150.1,131L150.1,131l0-0.1l0,0l0,0l0,0l-0.1,0l0,0L150.1,131L150.1,131z
		 M148.8,131.9L148.8,131.9L148.8,131.9l0.1-0.1l0,0l0,0l0,0l0,0L148.8,131.9z M148.5,132.8L148.5,132.8L148.5,132.8L148.5,132.8
		L148.5,132.8L148.5,132.8L148.5,132.8l-0.1,0l0,0l0,0.2l0.1,0l0,0l0-0.1l0-0.1L148.5,132.8L148.5,132.8z M146.3,133.5l-0.1,0.2
		l0,0.1l0,0l0,0l0,0l0,0l0,0l0-0.1l0,0l0,0l0,0L146.3,133.5L146.3,133.5L146.3,133.5L146.3,133.5L146.3,133.5L146.3,133.5
		L146.3,133.5L146.3,133.5z M147.1,133.7L147.1,133.7L147.1,133.7L147.1,133.7L147.1,133.7l-0.2,0l0,0l0,0v0l0,0.1l0,0l0,0l0,0.1
		l0,0l0,0l0,0l0,0L147.1,133.7L147.1,133.7z M117.1,134.2L117.1,134.2L117.1,134.2L117.1,134.2L117.1,134.2l0-0.1l0,0l-0.1,0l0,0
		l0,0l0,0l0-0.1l0,0l0,0l0,0l0,0l0,0l0,0l0,0l0,0l0,0l0,0.1l0,0l0,0l0,0l0,0l0,0l0,0.1l0,0l0,0l0,0l0,0l0,0l0,0l0,0l0,0l0,0l0.1,0
		l0,0l0,0l0,0l0,0l0,0l0,0L117.1,134.2L117.1,134.2L117.1,134.2L117.1,134.2z M145.6,134.7l0-0.1l0-0.1l0,0l-0.1,0l0,0l0-0.1
		l0.1-0.1l0-0.1l0,0l0,0l0,0l0,0.1l0,0l0,0l0,0.1l0,0.1l0,0.1l0,0l0,0l0,0l0,0l0,0.1l0,0.1l0,0.1l-0.1,0l0,0l0,0l0.2,0l0,0l0,0
		l0-0.1l0,0l0,0l0,0L145.6,134.7L145.6,134.7L145.6,134.7z M146.7,134.5L146.7,134.5L146.7,134.5L146.7,134.5l0.1-0.1l0,0l0-0.1
		l0-0.1l0,0l0,0l-0.1,0.1L146.7,134.5L146.7,134.5L146.7,134.5L146.7,134.5L146.7,134.5L146.7,134.5z M144.8,134.7l-0.3-0.2l0,0l0,0
		l0,0.1l0.2,0.1L144.8,134.7l0.1,0.2l0,0l0-0.1L144.8,134.7z M144,135.2L144,135.2L144,135.2L144,135.2l0,0.1L144,135.2L144,135.2
		l-0.1,0l0,0l0,0l0,0.1l0.1,0l0,0l0,0l0,0l0,0l0,0l0,0l0,0.1l0,0l0,0l0,0l0.1-0.2l0,0l0.1,0L144,135.2L144,135.2z M144,135.5
		L144,135.5L144,135.5l0,0.2l0,0l0.1-0.1L144,135.5L144,135.5z M141.8,137.2L141.8,137.2L141.8,137.2l-0.1-0.1l-0.1,0h0l0,0l0,0
		l0.1,0.1L141.8,137.2L141.8,137.2L141.8,137.2L141.8,137.2L141.8,137.2z M141.9,137.4L141.9,137.4L141.9,137.4L141.9,137.4
		L141.9,137.4l0.1-0.1l0,0l-0.1,0l0,0L141.9,137.4L141.9,137.4L141.9,137.4z M141.3,140.4L141.3,140.4L141.3,140.4L141.3,140.4
		l-0.1,0l0,0.1l0.1,0.1l0.1,0l0.1,0L141.3,140.4L141.3,140.4L141.3,140.4l0,0.1L141.3,140.4L141.3,140.4L141.3,140.4L141.3,140.4
		L141.3,140.4L141.3,140.4z M119.5,142.3L119.5,142.3L119.5,142.3L119.5,142.3L119.5,142.3l0.1-0.1l0,0l0,0l0,0l-0.1,0l-0.1,0
		l-0.1,0.1l0,0l0,0l0.1,0.1l0.1,0l0,0l0,0l-0.1,0l0,0l0,0l0,0l0,0l0,0v0l0,0l0,0l0.1,0l0,0l0,0l0,0l0,0l0,0l0,0l0,0L119.5,142.3
		L119.5,142.3L119.5,142.3L119.5,142.3z M140.7,142.5L140.7,142.5L140.7,142.5L140.7,142.5L140.7,142.5l0.1,0.1l0,0.1l0,0l0,0l0,0
		l0,0l0.1,0l0,0l0,0l0,0l0,0l0,0l0,0l0,0l0,0v0l0,0v0l0,0l-0.1,0l-0.1-0.1l-0.1,0l0,0L140.7,142.5L140.7,142.5L140.7,142.5z
		 M140.6,142.8L140.6,142.8L140.6,142.8l0.1,0.1l0,0l0.1,0.1l0,0l0,0l0,0l0,0l0,0l0,0l0,0l0,0L140.6,142.8L140.6,142.8z
		 M119.7,143.7L119.7,143.7L119.7,143.7L119.7,143.7L119.7,143.7L119.7,143.7l0-0.1l0,0l0,0l0-0.1l-0.1-0.1l0,0.1l0,0l0,0l0,0l0,0
		l0,0v0l-0.1,0l0,0l0,0l0,0l0,0l0,0l0,0l0,0.1l0,0L119.7,143.7L119.7,143.7L119.7,143.7L119.7,143.7L119.7,143.7L119.7,143.7z
		 M140.7,144.2L140.7,144.2l0,0.1l0,0l-0.1,0l0,0l0,0l0,0l0,0l0,0.1l0,0l0,0l0,0l0,0l0,0l0,0l0,0l0,0l0,0l0,0l0,0l0.1-0.2l0-0.1
		l0-0.1L140.7,144.2L140.7,144.2z M140.1,147.7L140.1,147.7L140.1,147.7L140.1,147.7L140.1,147.7l-0.1,0.1l0,0l0,0l0,0l0.1-0.1
		L140.1,147.7L140.1,147.7L140.1,147.7L140.1,147.7z M136.9,155.7L136.9,155.7L136.9,155.7L136.9,155.7l-0.1,0l0,0l0,0l0,0l0,0
		l0.1,0.1l0,0l0,0l0,0l0,0L136.9,155.7L136.9,155.7L136.9,155.7L136.9,155.7z M136.3,155.7L136.3,155.7L136.3,155.7L136.3,155.7
		L136.3,155.7L136.3,155.7l-0.2,0.1l0,0l0,0l0,0l0.1,0l0,0l0,0L136.3,155.7L136.3,155.7L136.3,155.7L136.3,155.7z M135.9,155.7
		L135.9,155.7L135.9,155.7l-0.1,0.1l0,0l0,0l0,0l0.1,0l0,0l0-0.1l0-0.1L135.9,155.7z M135.6,155.7L135.6,155.7l-0.1,0l0,0.1l0,0l0,0
		l0,0l0,0l0.1,0l0,0l0,0l0,0l0-0.1L135.6,155.7L135.6,155.7L135.6,155.7L135.6,155.7z M124,157.2L124,157.2l-0.1,0l0,0l0.1,0.2l0,0
		l0-0.1L124,157.2L124,157.2z M151.3,138.5l0.2,0.1l0.2-0.1l0.2-0.1l-0.1-0.1l-0.2-0.1l-0.1-0.1h-0.1L151.3,138.5z M148,131.2
		l0.2,0.1l0.2,0.2l0.1,0l0.1-0.2l-0.2,0l-0.1-0.1l0-0.2l0.1,0.1l0.1,0l0.2,0l-0.4-0.2l-0.3-0.1l-0.5,0l0.2,0.1l0.1,0.1l0,0
		L148,131.2L148,131.2z M158.4,91.4l-0.1-0.2l-0.2,0l-0.1,0.3l0.1,0l0,0l0,0l0,0.1l0,0.1L158.4,91.4z M147.8,121.7l0.1,0.2l0.2,0.1
		l0.2,0.3l0.2,0.1l0,0l0-0.1l0,0l0,0l0,0l0,0l-0.1-0.1l0-0.1l0-0.1l-0.1,0.1l-0.1,0l0-0.1l0-0.1l-0.2-0.4l0-0.1l0.1,0l0.1,0.1l0.1,0
		l0-0.1l-0.1-0.1l-0.1-0.1l0-0.1l0,0l0,0v0l0,0l0-0.1l0,0l-0.1,0l0,0l0,0.1l0.1,0.2l0,0.1l0,0.4L147.8,121.7z M166.3,72.2l0-0.2
		l-0.2-0.2l0,0l0,0.2l0,0.1l0,0.1l0,0.1l0,0.1l0,0.1l0.1,0.1l0.2,0l0-0.1L166.3,72.2z M170.4,72.4L170.4,72.4l0-0.1l0,0l0,0l0-0.1
		l0-0.1l0-0.1l0,0l0,0l0,0.1l0,0l0,0l0,0l0,0.1l0,0l0,0l-0.1,0l0-0.1l0,0l0,0.1l0,0l0,0l0-0.1l0,0.1l0,0.2l0.1,0.1l0.2,0.1
		L170.4,72.4z M167,72.7L167,72.7l0-0.1l0,0l0,0l0-0.1l0-0.1l-0.1-0.1l-0.1-0.1l0,0l0.1,0l0-0.1l-0.1-0.1l-0.1,0l-0.1,0.1l0,0.2
		l0.1,0.2l0.1,0.2l0.1,0.1l0.1,0L167,72.7z M165.3,73.5L165.3,73.5l0.1,0.1l0.1-0.1l0-0.1l-0.1,0L165.3,73.5L165.3,73.5z
		 M165.2,73.8L165.2,73.8l0,0.1l0.1,0.1l0,0l0,0l0,0l0,0l0,0l0,0l0-0.1l0-0.1l0,0l0.1,0l0-0.1l-0.1,0l-0.2,0.1l-0.1,0L165.2,73.8
		L165.2,73.8L165.2,73.8z M164.2,74.7L164.2,74.7l-0.1-0.1l0,0l0,0l0-0.1l0,0l0.1,0l0.1,0l0.1,0.1l0,0.1l0,0l0.1,0l0-0.1l-0.1-0.1
		l0-0.1l0,0l0,0l0,0l-0.3-0.2l-0.1,0l-0.1,0l0,0l0,0.1l0.1,0.2L164.2,74.7L164.2,74.7L164.2,74.7L164.2,74.7z M165.5,74.4
		L165.5,74.4l0-0.1l-0.1,0l0,0l0,0l-0.1-0.1l0,0.1l0.1,0.1l0.1,0L165.5,74.4L165.5,74.4z M163.9,75.2L163.9,75.2l-0.1-0.1l0-0.1l0,0
		l0-0.1l-0.2-0.1h-0.1l0,0.1V75l0,0l0,0.1l0,0.1l0,0l0.2,0l0,0l0,0l0.1,0l0-0.1L163.9,75.2L163.9,75.2z M164.6,75.2L164.6,75.2
		l0.1-0.2l0-0.1l-0.1,0l-0.1,0l-0.1,0.1l-0.1,0.1l0,0l0-0.1l0,0l0,0l0,0.1l0,0.1l0,0L164.6,75.2L164.6,75.2z M158.4,91.5L158.4,91.5
		L158.4,91.5l-0.1,0.1l0,0.1l-0.1,0.5l0,0.1l0.1-0.1l0,0l0,0l0.1-0.1l0.1-0.1l0-0.1l0-0.1l0-0.1l0-0.1l0-0.1L158.4,91.5l0.1,0
		L158.4,91.5L158.4,91.5l0.1-0.1l0,0L158.4,91.5L158.4,91.5z M158.2,92.4l-0.2,0.2l0,0.1l0.1,0l0.1-0.1l0-0.1V92.4L158.2,92.4
		L158.2,92.4z M146.7,101.4L146.7,101.4L146.7,101.4L146.7,101.4l0.1-0.2l0-0.1l0-0.1l0,0l-0.1,0l-0.1,0.1l0,0l0-0.1l-0.1,0l-0.1,0
		l-0.1,0.1l0,0.1l0,0.1l0,0.2l0.1,0.2l0.2,0l0.2-0.1l0-0.1L146.7,101.4L146.7,101.4L146.7,101.4L146.7,101.4z M149.2,123.4
		L149.2,123.4L149.2,123.4l0,0.1l0,0.1l0,0.1l0,0l0.1,0l0.1,0l0.1,0l0.1-0.1l0-0.1l0-0.1l0,0l0,0l0,0l0,0l0,0l0-0.1l0,0l0,0l0,0
		l0-0.1l0,0l-0.1,0l-0.1,0l0,0L149.2,123.4L149.2,123.4L149.2,123.4z M150.4,126.5l0-0.1l0-0.1l0-0.1l0,0l0,0l0,0l0,0.1l-0.2,0.3
		l0,0.1l0,0.1l0.1,0l0,0l0,0l0,0l0,0l0.1,0l0.1,0l0.1,0l0,0l0,0l0,0l0,0l0,0l0,0l0,0l0,0L150.4,126.5z M149.6,128.3l-0.1,0.1
		l-0.1,0.1l-0.1,0l0,0l0.1,0l0.1,0l0.1-0.1l0,0l0,0l0,0l0,0L149.6,128.3l0.2,0l0,0l0.2-0.3l0.1-0.1l0-0.1l-0.3,0.2L149.6,128.3
		L149.6,128.3z M150.3,128.1L150.3,128.1L150.3,128.1L150.3,128.1l-0.1-0.2l-0.1,0l-0.1,0l-0.3,0.4l0,0.1l0,0.1l0.1,0l0,0l0,0l0-0.1
		l0.1-0.3l0,0l0.1,0L150.3,128.1L150.3,128.1L150.3,128.1L150.3,128.1z M148.8,129.3L148.8,129.3L148.8,129.3l0.1-0.1l0,0l0.1-0.1
		l0.2-0.1l0,0l-0.2,0.1l0,0l0,0l0,0l0,0l-0.1,0l-0.1,0l-0.1,0l-0.1,0.1l-0.1,0.1l-0.1,0.1l0,0.1l0,0.1l0,0l0,0l0,0l0,0l0,0l0,0l0,0
		l0,0l0,0l0,0l0,0l0,0l0,0l0-0.1l0,0l-0.1,0l0,0l0,0.1l0,0l0,0l0,0.1l0,0.1l0,0.1l0,0.1l0,0.1l0,0l0,0l0,0l0,0l0,0l0-0.3l0,0.1l0,0
		l0,0l0-0.1l0-0.2L148.8,129.3L148.8,129.3L148.8,129.3L148.8,129.3L148.8,129.3z M150.1,129.7L150.1,129.7L150.1,129.7l-0.1-0.1
		l-0.1,0l-0.1,0l-0.1,0.1l0,0.1l0.1,0l0.1-0.1L150.1,129.7z M149.7,130L149.7,130L149.7,130L149.7,130L149.7,130L149.7,130
		L149.7,130L149.7,130z M150.2,130.2L150.2,130.2l0-0.1l0,0l-0.1-0.1l-0.1,0l0,0l0,0.1l0,0l0,0l0.1,0.1L150.2,130.2L150.2,130.2z
		 M147.2,130.3L147.2,130.3L147.2,130.3l-0.5-0.2l-0.1,0l0,0.1l0,0l0,0.1l0,0.1l0.1,0.1l0.1,0.1l0.1,0l0.1,0l0-0.1L147.2,130.3
		l-0.1,0L147.2,130.3L147.2,130.3z M148.9,130.4L148.9,130.4l0.1,0.1l0,0.1l0,0.1l0,0l0,0l0,0l0,0.1l0,0l0,0l0.2-0.1l0.1-0.1l0-0.1
		l0-0.1l0,0l0,0l0,0l-0.1-0.1l0,0l0,0l0,0l0,0l-0.2,0l0,0L148.9,130.4L148.9,130.4z M149.5,131L149.5,131L149.5,131l0.1-0.1l0,0l0,0
		l0,0l-0.1,0l-0.1,0l-0.1,0.1l-0.1,0.1l0,0.1l0,0l0,0l0,0l0,0l0,0l0,0l0,0l0,0l0,0l0,0L149.5,131z M149.3,131.6l-0.1,0l0,0l-0.1,0
		l-0.1,0.1l0,0.1l0,0.1l0,0L149.3,131.6L149.3,131.6L149.3,131.6z M147.6,133L147.6,133L147.6,133l0,0.2l0,0.1l0,0l0,0l0,0h0l0,0
		l0,0l0,0l0,0l0,0l0,0l0-0.1l0,0l0-0.1l0.1-0.1l0.1-0.2l0,0l0,0l0,0l0,0l0-0.1l0-0.1l-0.1,0l-0.1,0l-0.1,0.1l-0.1,0.1l-0.2,0.1l0,0
		l0,0l0,0.1l0,0l0,0l0,0l0,0L147.6,133L147.6,133L147.6,133L147.6,133z M144.7,133.3l0,0.1l0,0.1l0,0.1l0,0l0,0.1l0,0.1l0,0.1l0,0
		l0,0l0.1,0.2l0,0l0-0.1l0-0.1l0,0l0,0l0-0.1l0-0.1l0-0.1l0-0.1l0-0.1l0-0.1l0-0.1l0-0.1l0-0.1l0-0.1l0-0.1l0-0.1l0,0l0,0l0,0l0-0.1
		l0,0l0,0.1l0,0.2l0,0.1l0,0L144.7,133.3L144.7,133.3z M146.6,133.4L146.6,133.4l0.1,0.1l0.1,0l0-0.1l0-0.1l0-0.1l0-0.1l0,0l0,0.1
		l0,0l0,0l0,0l0,0l0,0l0-0.1l0,0l0,0l0,0l0,0l0.2-0.1l0,0l-0.2,0l-0.1,0l-0.1,0l-0.1,0l0,0l0,0.1l0,0.1l0,0l0,0l0,0l0,0l0,0.1l0,0
		l0,0l0,0l0.1,0L146.6,133.4L146.6,133.4L146.6,133.4z M147.5,133.5L147.5,133.5L147.5,133.5l-0.1,0l-0.1,0l-0.1,0.1l-0.1,0.1
		l-0.1,0.1l0,0.1l0,0l0,0l0,0l0.1-0.1l0.1,0l0.1,0l0.1,0l0,0l-0.1,0l0-0.1l0,0l0,0l0,0l0,0l0.1-0.1l0.1-0.1l0-0.1l0,0L147.5,133.5
		L147.5,133.5z M141.2,138.5L141.2,138.5l0,0.1l0.1,0.1l0.1,0.1l0.1,0l0.1,0l0.1,0l0,0l0,0l0,0l0,0l0,0l0,0l-0.1,0l-0.1,0l-0.1-0.1
		l-0.1-0.1L141.2,138.5l0.1-0.1h0l0,0l-0.1-0.1l0,0l0,0l0-0.1l0,0l0,0l0,0l-0.1,0l0,0l0,0l-0.1,0l0,0l-0.1,0l0,0.1l0,0.1
		L141.2,138.5L141.2,138.5L141.2,138.5z M141.4,138.8L141.4,138.8l0,0.2l0,0.1l0,0l0.1,0l0-0.1l0-0.1l0-0.1L141.4,138.8L141.4,138.8
		z M136.6,155.8L136.6,155.8L136.6,155.8l-0.1,0l0,0l-0.1,0l-0.1,0.1l0,0.1l0.1,0.1l0,0l0,0l0,0l0,0l0-0.1l0-0.1L136.6,155.8
		L136.6,155.8L136.6,155.8L136.6,155.8L136.6,155.8L136.6,155.8z M119.2,141.7L119.2,141.7L119.2,141.7l0.1,0.1l0,0l0-0.1l0,0l0.1,0
		l0,0l0-0.1l0-0.2l0-0.1l0.1-0.1l0.1,0l0,0.1l0,0.1l0,0l0.1,0l0,0l0-0.2l0,0l0,0l0-0.1l-0.1,0l-0.1,0l-0.1,0.1l-0.1,0h-0.4l-0.2,0
		l-0.1,0l0,0.1l0,0.1l0.1,0h0.1l0.1,0l-0.1,0l-0.1,0l0,0l0,0.1l0,0.1l0,0.1l0,0.1l0,0.1l0,0L119.2,141.7L119.2,141.7z M119,140.6
		L119,140.6L119,140.6l0.1-0.2l0.1-0.1l0.1,0l0.1,0l0.1,0.1l0.1-0.1l0.2,0.1l0.2-0.2l0.1,0l0.1,0l0-0.1l0-0.4l0-0.2l0-0.2l-0.1-0.1
		l-0.1-0.1l-0.1-0.1l0-0.2l-0.1,0l-0.1,0l-0.1,0l0,0l0,0.1l0,0l0,0.1l0,0.1l0,0.1l-0.1,0l-0.1,0l-0.1,0l-0.1,0l-0.1,0.1l-0.1,0.1
		l-0.4,0.4l-0.1,0.1l0,0.1l0,0.1l0.1,0.1l0,0.1l0,0.2h0v-0.3L119,140.6L119,140.6L119,140.6z M151.7,141.5l-0.1,0l-0.1,0l-0.1,0
		l0-0.1l-0.1,0.1l-0.1,0l-0.1,0l0,0l-0.1,0.1l-0.1,0l-0.1,0l0,0.1l0,0.1l0,0.1l0,0.1l-0.1,0.1l0,0.1l0,0.1l0.1,0.3l0.1,0.1l0.1,0.1
		l0.1,0l0.1,0l0,0l0.1-0.2l0-0.1l0-0.1l0,0l-0.1,0l0.1-0.1l0.2-0.1l0.1-0.1l0.1-0.1l0.2,0.1l0.1-0.1l0,0l0,0l0,0l0,0L151.7,141.5
		L151.7,141.5z M150.6,142.4L150.6,142.4l-0.1-0.1l0-0.1l0-0.1l0-0.1l0,0l-0.1,0l-0.1,0l-0.1,0l-0.1,0l0,0.1l-0.1,0l-0.1-0.1
		l0.1-0.1v0l-0.3,0l-0.1,0l0,0.1l0,0.1l0,0l0,0.1l-0.1,0.1l-0.1,0.1l0,0.2l-0.1-0.1l0-0.1l0-0.1l0,0l0,0l0,0l0,0l0,0l0,0l0,0l0,0
		l-0.1-0.1l-0.1-0.1l-0.1,0l-0.1,0l-0.1,0.1L149,142l-0.1,0.1l-0.1,0.1l0,0.1l0,0.1l0,0.1l-0.1,0l-0.1,0l-0.1,0l-0.1,0l-0.2,0.1
		l-0.2,0.2l-0.6,1l-0.7,0.7l-0.1,0.2l-0.1,0.3l0,0.2l0,0.2l0,0.2l0,0.1l0,0l0,0.1l0,0l0,0.1l0,0l0,0l0,0l0,0l-0.1,0.1l0,0.1l0,0.2
		l-0.1,0.1l-0.2,0.1l-0.1,0.1l0,0.1l0.3,0.2l0.1,0.7l0.2,0.1l0,0l0,0.1l0,0l0.1,0l0,0.1l0,0.1l-0.1,0.1v0.1l0.1,0l0.1-0.1l0.1-0.1
		l0.1-0.1l0,0.1l0,0.2l0,0.1l-0.1,0.1l-0.2,0.1l-0.1,0.1l0,0.1l0,0.1l0,0.1l-0.3,0.5l0.1,0.1l0.1,0l0.4-0.2l0.1,0l0-0.2l0-0.1
		l0.1-0.1l-0.1-0.1V149h0.2l-0.1-0.1l-0.1-0.1l0-0.1l0-0.4l0.1-0.1l0.3-0.2l0.1-0.1h-0.3l0.1-0.1l0.1-0.1l0.5-0.3l0.1,0v0h-0.1v-0.1
		l0.1-0.1l0.4-0.1l0,0l0.1-0.1l0-0.2l0,0l-0.1,0l0,0l0-0.1l0.1-0.1l0.2-0.1l0.1-0.1l0.1-0.1l0.1-0.1l0.1,0l0,0l0.1-0.1l0,0l0,0l0,0
		l0,0h0.1l0.1,0l0-0.1l0-0.1l0-0.1l0-0.1l0,0l-0.1-0.1l-0.1,0l0,0l0,0l0,0l-0.2,0l-0.2-0.1l0-0.1l0,0l-0.1,0l-0.1,0l0-0.1l0-0.1
		l-0.1-0.1l0-0.1l0.1-0.1l0-0.1l0-0.1l0-0.1l0-0.1l0-0.1l-0.2-0.1l0,0l0-0.1l0-0.1l0,0l0-0.1l0.1-0.2l0.1-0.3l0-0.1l0-0.1l0-0.1
		l0.1,0l0,0l0.1,0.1l0.1,0l0.2,0l0.2,0l0-0.1v-0.1l0-0.1l0-0.1l0-0.1l0,0l0.1,0l0,0.1l0-0.3l0.1-0.1l0.3,0l0-0.1L150.6,142.4z
		 M142.5,146.5L142.5,146.5L142.5,146.5L142.5,146.5l-0.1-0.1l0,0l0,0h0l0,0.1l0,0l0,0l0-0.1l0,0l-0.1,0l-0.1,0.1l-0.1,0.2l-0.1,0.1
		l0,0.1l0,0.4l0,0.1l-0.1,0.1l-0.1,0l0,0l0,0.1l-0.1,0.6l-0.2,0.5l-0.2,0.4l-0.2,0.5l-0.1,0.3l-0.1,0.1l-0.1,0l-0.1,0l-0.1,0
		l-0.1,0.1l-0.7,1.8l0,0.2l0,0.1l-0.1,0.2l-0.1,0.2l0,0.1l0,0.7l0,0.1l0,0.1l0,0.1l0,0.1l0,0.3l0,0.2l0,0.2l0.1,0.2l0,0.1l0,0.2
		l0,0.1l0.1,0.1l0.1,0l0.1-0.1l0.1-0.1l0.2-0.5l0-0.1l0-0.1l0.1-0.1l0-0.1l0-0.2l0-0.1l0-0.1l0-0.2l0.1-0.2l0.1-0.1l0-0.1l0-0.1
		l0-0.1l0,0l0-0.1l0,0l0,0l0,0l0,0l0-0.2l0-0.1l0.1,0l0,0l0-0.1l0-0.1l0-0.1l0-0.2l0-0.1l0.2-0.8l0-0.2l0-0.1l0-0.1l0-0.1l0-0.1l0,0
		l0.2-0.1l0,0l0-0.1l0.1-0.4l0-0.1l0.1-0.1l0-0.1l0-0.2l0-0.1l0.1-0.2l0.1-0.1l0.1-0.1l0,0l0,0l0,0l0-0.1l0.1-0.1l0.1,0l0.1-0.1
		l0-0.2l0-0.1l0.2-0.3l0-0.1l0-0.1l0-0.1l0,0l0.1,0l0,0l0,0l0-0.1l0.1-0.2l0-0.1l-0.1-0.2l0.1-0.3l0.1-0.1L142.5,146.5L142.5,146.5
		L142.5,146.5z M171.3,71.6l0.2,0l0.1-0.1l0,0l0,0l0,0l0-0.1l0.3,0.1l0.1,0l0.1-0.2l0-0.2l-0.2-0.3l-0.1-0.4l-0.1-0.2l-0.1-0.2
		l0-0.2l0-0.2l-0.1-0.5l0-0.1l0-0.1l-0.1-0.1l0-0.1l0-0.1l-0.2-0.7l-0.1-0.1l-0.4-0.2l-0.1-0.1l-0.1-0.2l-0.1-0.5l0-0.3l-0.1-0.2
		l0-0.1l0-0.1l0-0.1l0-0.1l0-0.1l0-0.2l0-0.1l0-0.1l-0.1-0.2l0-0.1l0-0.2l0.1-0.2l0.1-0.1l0.1,0v-0.2l0.1-0.1l0.1-0.1l0.1-0.1l0-0.1
		l0.2-0.2l0.1-0.1l0-0.2l0-0.2l0-0.2l0-0.2l0-0.2l0-0.2l0-0.2l0-0.2l0-0.4l0-0.1l0.1-0.2l0.1-0.2l0.1,0l0.1,0l0.1,0l0-0.1l0-0.1
		l-0.2-0.5l-0.1-0.3L171,60l-0.2-0.2l-0.2-0.5l-0.1-0.1l-0.1-0.1l-0.1-0.1l-0.1-0.2l-0.2-0.4l0-0.1l0-0.1l0-0.1l0-0.1l0-0.1l0-0.1
		l0,0l-0.1-0.2l-0.1-0.1l-0.1-0.1l0-0.2l0.1-0.1l0-0.1l0-0.1l0-0.1l-0.1,0l0-0.1l0-0.2l0-0.2l0.1-0.1l0.5-0.2l0.1-0.2l0.1-0.3
		l-0.1-0.1l0-0.3l0-0.3l0-0.2l-0.1-0.1l-0.1,0l-0.3-0.1l-0.3-0.2l-0.2,0l-0.2,0.1l-0.2,0L169,54l-0.1-0.3l0.1-0.2l0.1-0.2l0.1-0.2
		l0-0.1l0.1-0.1l0.2-0.1l0.1-0.1l0-0.3l0-0.2l-0.1-0.3l0-0.2l0-0.4l0-0.2l0-0.1l0-0.7l0-0.2l0-0.3l0-0.3l0.1-0.2l0.1-0.1l0.3-0.1
		l0.1-0.1l0.1-0.2l0-0.2l-0.1-0.1l-0.3-0.1l-0.4-0.5l-0.1-0.1l-0.3-0.3l0-0.1l0-0.1l-0.2-0.7l0-0.1l-0.1-0.1l-0.1,0l-0.4,0.3l-0.1,0
		l0-0.1l0,0l0,0l0-0.1l0-0.1l0-0.1l0-0.3l0-0.1l0-0.1l0-0.3l-0.1-0.2l-0.2-0.2l-0.1-0.1l0-0.1l0-0.1l0-0.1l-0.1-0.1l-0.6-0.4
		l-0.1-0.2l-0.2-0.4l-0.1-0.1l-0.3,0.1l-0.1-0.2l-0.1-0.2l-0.1-0.1l-0.1,0l-0.1,0l-0.1,0l-0.2-0.1l-0.2,0l-0.3-0.2l-0.3,0l0,0l0-0.1
		l0,0l-0.3-0.1l-1,0l-0.1-0.1l0-0.1l0-0.1l0-0.1l0,0l0,0l-0.1-0.1l-0.1-0.1l-0.1-0.2l0-0.1l-0.2-0.2l-0.8-0.2l-0.1-0.4l-0.2-0.2
		l-0.4-0.4l-0.3-0.1l-0.1-0.1l-0.1-0.1l-0.1-0.4l0-0.1l0-0.1l-0.1-0.1l-0.3,0l0,0l0,0l0-0.1l0,0l-0.1-0.1l-0.2-0.5l-0.3-0.3
		l-0.3-0.3l-0.7-0.3l-0.1-0.1l0-0.2l0.1-0.1l0.1-0.2l0-0.2l-0.1-0.2l-0.2-0.1l-0.3-0.3l-0.5-0.1l-0.2-0.2l-2.2,0.2l1,1.3l0,0.2l0,1
		l0,0.2l-0.1,0.2l-0.4,1.2l-0.4,0.6l-0.8,0.8l1.2,0.7l-1,1.3l-0.2,0.1l-0.2,0l-1.9-0.8l-1.9-0.9l-1.4,0.1l-0.2-0.1l-0.7-0.7
		l-0.2-0.1l-1.1,0.4l0,0.1l0,0.1l-0.1,1.1l0,0.3l0.2,2.2l-0.1,0.5l-0.8,1.6l-0.1,0.3l-0.1,0.2l-0.1,0l-2.4-1.5l-0.1,0.1l-0.3,0.6
		l-1.7,1.4l-0.1,0.2l-0.1,0.2l-0.6,2.5l-0.1,0.2l-0.4,0.7l-0.2,0.3l-0.3,0.1l-0.7,0.1l-0.1,0.1l-0.2,0.8l1.3,2.4l0,0.2l-0.1,1.4
		l-0.1,0.2l-0.1,0.1l-0.2,0.2l-0.8,0.8l-0.4,0.5l-1.5,3.1l-1,1.1l0,0.3l0.2,1.3l0,0.3l0,0.2l0,0.1l-1.8,1.3l-2.1,0.3l0.4,2.9l0,0.4
		l0,0.2l-0.3,0.7l0,0.2l-0.2,2.4l0,0.5l0,0.5l0,0.5l-0.1,0.3l-0.3,0.3l-0.1,0.2l-0.1,0.2l-0.1,0.9l-0.1,0.4l-0.6,0.9l0,0l-2.2,4
		l1.2,0.9l0.2,0.1l0.3,0.1l0.2,0.1l0.1,0.2l0.2,2.3l0,0.2l-0.1,0.2l-0.7,1.4l-0.1,0.1h-0.1l-3-0.8l-1.1,0.3l-1,0.6l-0.3,0.3
		l-0.8,1.4l-0.8,1.4l-0.5,0.6l0.2,1l0,0.2l-0.1,0.2L121,96l1,2.7l-0.5,0.7l0,0.1l0,0.2l0.2,1.4l0,0.2l-0.1,0.3l-0.1,0.4l-0.1,0.3
		l0,0.2l0.8,2.3l0.1,0.4l0,0.5l-0.7,4.5l0.1,0.1l0.5,0.5l0.2,0.2l0.3,0.4l0.1,0.1l0.2,0l0.3,0l0.1,0.1l0.1,0.1l1.1,1.5l0,0.1l0,0.1
		l-0.1,0.8l-0.1,0.2l-0.1,0.2l-0.3,0.5l0,0.1l0,0.1L124,116l0,0.1l-0.1,0l-0.5-0.1l-0.2,0l-1,0.3l-0.1,0.1l0,0.2l0.2,0.4l0.1,0.3
		l0.1,0.6l0.1,0.3l0.1,0.3l0.4,0.8l0.5,1.2l0.1,0.2l0,0.3l0,0.3l0,0.2l-0.1,0.2l-0.1,0.1l-0.2,0.3l-0.1,0.1l0,0.1l0,0.3l0.1,0.5
		l0,0.3l-0.1,0.4l-0.1,0.3l-0.2,0.3l-0.7,0.8l-0.6,0.5l-0.2,0l-0.7-0.1l-0.2,0.1l-0.2,0.2l0,0.3l0,0.1l0.1,0.2l0.1,0.1l0,0.1l0,0.3
		v0.2l0,0.1l-0.2,0.3l-0.1,0.1l-0.6,0.3l-0.1,0.1l0,0.2l0,0.2l0.4,1.6l0.1,0.5l0,0.2v0.2l0,0.1l-0.1,0.1l0,0.1l-0.1,0.5l0,0.4l0,0.2
		l-0.1,0.4l0,0.2l0,0.2l-0.1,0.4l-0.2,0.2l-0.3,0.1l-0.3,0l-0.1-0.1l0-0.5l-0.1-0.2h0l-0.1-0.1l-0.1-0.1l-0.1-0.2l0-0.2l-0.1-0.2
		l-0.1-0.1l-0.4,0.1l-0.1,0.1l-0.3,0.4l0,0.1l0,0.1l0,0.1l0.1,0l0.2,0l-0.2,0.1l-0.1,0.1l0,0.1l0,0.1l0.1,0.1l0.2,0.1l0,0.1l0,0l0,0
		l0,0.1l0,0.1l0,0.2l0,0.1l0,0l0,0l0,0l0,0.3l0,0.1l0,0.1l0,0.1l0,0.1l0,0.1l-0.1,0l0,0.1l0,0.1l0,0.1l0.1,0l0,0l0,0.1l0,0.2
		l0.2,0.2l0,0.1v0.1l0,0.1l0,0.1l0,0.1l0,0l0,0l0,0.1h0.1l0,0.1l0,0l0,0l0,0.1l0,0.1l0,0.2l0,0l0,0l0,0l0,0l0,0l0,0.1l0,0l0,0
		l0.2,0.1l-0.1,0.1l-0.1,0.1l0,0.1l0,0.2l-0.1,0l-0.1,0l0,0.1l0.1,0.2l0,0.1l0,0.1l0,0.1l0,0.1l0,0.1l0.1-0.2l0.1,0l0.1,0l0.1-0.1
		l0,0l0-0.1l0,0l0,0l0.1-0.1l0.2-0.3l0-0.1l0,0.1l0,0.1l-0.1,0.2l-0.1,0.3l0,0.1l0,0l0.1,0l0-0.1l0-0.1l0-0.1l0-0.1l0.1,0l0,0.2
		l0.1,0.1l0,0.1l-0.1,0l-0.1,0l0,0.1l0,0.1l0,0.1l0,0l0.1-0.1l0.1,0v0.1l-0.1,0.1l-0.1,0.1l0,0.1l0,0.1l0.3-0.2l0.1-0.1l0.1-0.2
		l0.1-0.2l0-0.3l0-0.3l0-0.2h0l0,0.1l0.1,0.3l0,0.1l0.1-0.1l0.1-0.1l0.1,0l0.1,0.1l-0.1,0.1l-0.1,0.1l-0.1,0.1l0.1,0.1l-0.2,0.3
		l-0.1,0.2l-0.1,0.2L119,139l0,0.2l0,0.1l0.1,0l0-0.1l0,0l0,0l0.1,0l0.1,0l0.1,0l0,0l0.1-0.1l0,0l0,0l0.2-0.2l0.1,0l0.1,0l0-0.1
		l0.1,0l0.2,0l0.2-0.1l0.1,0l0.1,0.1l-0.2,0.1l-0.1,0.1l0,0.2l0,0.1l0,0.1l0,0.1l0,0.2l0,0.1l0.1,0l0.1,0l0,0.1l0,0l0,0l-0.1,0l0,0
		l0,0.1l0,0.5l0,0.1l-0.1,0l0,0.1l0,0l0,0l-0.1,0.1l0,0.1l0,0.1l0,0.1l0,0.1l0,0.1l-0.1,0.2l-0.2,0.3l0,0.1l0.1,0.1l0,0.1l0,0l0,0
		v0.1h0.1v0l-0.2,0.1l-0.1,0.1l0,0.2l-0.1,0l-0.1,0l-0.1,0.1l0.1,0l0.1,0.1l0.1,0.2l0.1,0.1l0.1,0l0.1,0l0.1,0l0,0.1l0,0.1l-0.4,0.4
		l0,0.1l0,0.1l0.1,0l0.1,0l0.1,0l0-0.1l0.1,0l0.2,0.1l0.1,0l0.1,0l0.1,0l0.1-0.1l-0.1,0.1l-0.3,0l0,0.2l0,0.1l0,0.1l0,0.1l0,0.1
		l0,0.1l0.1,0l0.1-0.1l0-0.1l0,0l0,0l0,0l0,0.2l0,0.4l-0.1,0.1l0,0l0.1,0.1l-0.1,0l0,0l0.1,0l0.1,0.1l-0.1,0l-0.1,0.1l0,0.1l0,0.1
		l0,0.1l0,0.1l0,0.1l-0.1,0.1l0,0l0,0l0,0l0,0l0,0.2h0.1l0.1,0l0,0.1l0.1-0.1l0.1-0.5l0.1-0.1l0,0l0,0l0,0l0,0l0,0l0.1,0.3l0,0.1
		l0,0.1l-0.1,0.1h0.2l-0.1,0.1l-0.1,0.1l-0.1,0.1l0.1,0.1l0,0l0.1,0l0,0l0,0l0,0l0,0l0,0l0,0l0,0.1l0,0.1l0,0.1l0,0v0.1l0,0l-0.1,0
		l0,0l0,0.1l0,0v0.1l0.1,0l0.1,0l0.1,0l-0.1,0l-0.1,0h-0.1l0.1,0.1l0.1,0l0.1,0l0.1,0l0,0l0,0.1l-0.1,0.1l0.1,0l0.1,0l0,0l0,0.1
		l0,0.2l0,0.1l0.1,0.2l0,0.1l-0.1,0.1l0.1,0.1l0,0l0,0.1l0.1,0.1l0.1,0.1l0.1,0.1l0,0.1l0,0.1l0,0l0,0l0,0.1l0,0l0,0l0,0.1l0,0
		l0,0.2l0,0.1l0.1,0.1l0.2,0l0.1,0.1l0.1,0l0,0l0.1,0.1l0,0l0.1,0l0,0l0,0v0l0,0l0,0l0.3,0.2l0,0.1l0,0.2l0.1,0.3l0.1,0.1l0.1,0.1
		l0.1,0.1l0,0.2l0,0.1l0.2,0.2l0.1,0l0.1,0l0.1,0l0.2-0.1l0.1,0l0.1,0l0.1,0.1l0.1,0.3l0.1,0.3l0,0.2l0,0.2l-0.1,0.2l-0.1,0.1
		l-0.1,0.1l-0.2,0.1l-0.5-0.2l-0.2,0.1l-0.1,0.3l0.1,0.2l0.4,0.3l0.1,0.3l0.1,0.2l0.2,0.1l0,0.1l0,0.1l-0.1,0.1l-0.1,0.1l-0.1,0
		l-0.2,0l0,0l-0.1,0l0,0l0,0l-0.1-0.1l0,0l0,0l-0.1-0.1l0,0l-0.8-0.4l0.1,0.1l0.2,0.1l0.1,0.2l0.1,0.2l0,0.1l0,0.2l0,0.1l0.2,0.4
		l0,0.1l0.4,0.5l0,0.1l0,0.1l0,0.1l0.1,0l0.1,0.1l0,0.1l0,0.1l0,0.1l0.1,0.1l0,0l0,0l0,0l0,0l0,0.1l0,0.1l0,0.1l0.1,0.2l0.2,0.1
		l0.1,0.1l0.1,0.3l0,0.1l0,0.1l0,0l-0.1,0l0,0.1l0.1,0l0.1,0l0,0.1l0.1,0l0.1,0l0.1,0.1l0.1,0.1l0.1,0.1l0,0.1l0,0.1l0,0.1l0,0.1
		l0,0.1l-0.3,0.2l-0.1,0.1l0,0.2l0,0.2l0.2,0.3l0,0.2l-0.1,0l0,0l0,0l0,0.1l-0.1,0.1l-0.1,0l-0.1,0l-0.1,0l0-0.1l0,0l0,0h0l-0.1,0.3
		l0,0.1l0.1,0l0.1-0.1l0.1,0l0,0l0.1,0l0,0l0,0l0.1-0.1l0,0l0.1,0l0.1,0l0,0l0.1,0.1l0,0l0,0l0.1,0l0.2,0l0.7,0.3l0.1,0l0.3,0l0.1,0
		l0.4-0.3l0.1,0l0.2,0l0.1,0l0.1-0.1l0-0.1l0-0.1l0.1,0l0.6,0l0.2,0l0.1,0l0.1,0l0.1-0.1l0.1,0l0.1,0l0.1,0l0.3,0.2l0.1,0l0.1,0
		l0.3,0l0.1,0l0.1-0.1l0.1-0.1l0.2-0.3l0.1-0.1l0.1-0.1l0.2-0.3l0.1-0.1l0-0.2l0-0.1l-0.2-0.3l-0.1-0.1l0-0.1l0-0.1l0-0.1l0-0.1
		l0-0.1l-0.1-0.1l-0.2-0.1l-0.1-0.1l0-0.1l0-0.1l0-0.3l0-0.3l0.1-0.3l0.2-0.2l0.2-0.1l0-0.1l0-0.1l0.1-0.1l0.1-0.1l0.1,0l0.1-0.1
		l0.2-0.2l0.1-0.2l0.1-0.1l0.1,0l0,0l0.1-0.1l0.1,0l0,0l0,0l0,0.1l0.1-0.1l0,0.1l0,0.1l0,0.1l0,0l-0.1,0.1l0,0l0,0l0.1,0l0,0l0,0
		l0,0l0,0l0-0.1h0.1l0,0.1l0,0l0,0l0-0.1l0-0.1l0.1,0l0,0l0-0.1l0-0.1l-0.1-0.2l0-0.1l0-0.1l0-0.1l-0.1,0l0,0l0-0.1l0-0.1l0-0.1
		l0.1-0.1l0.1,0l0.2,0l0.1,0l0.1,0.1l0.1,0.1l0.1,0l0-0.1l0.1,0l0.1,0l0.1,0l0.1-0.1l0.1,0l0.3,0.1l0,0l0-0.1l0,0l0,0l0.1,0l0,0l0,0
		l0,0.1l0,0h0.2l0,0l0,0l0,0l0,0l0.1,0.1l0.2,0l0.2-0.1l0.1-0.1l0.1,0.2l0,0.1l0,0l-0.1,0l0.1,0l0.1,0l0.2,0l0,0l0,0l0-0.1l0.1-0.1
		l0,0l0.1,0l0.1,0l0,0l0,0.1l0,0l0.1,0.1l0,0l0-0.1l0,0l0.2-0.1l0.2-0.1l0.1,0l0,0l0,0.1l0,0.1l0,0l0.1,0.1l0.1-0.1l0.1-0.1l0.1-0.1
		l0,0l0.1,0.1l0.1,0l0,0l0,0l0,0l0,0l0.1,0.1l0.1,0l0.2-0.1l0.1,0.1l0,0.1l-0.1,0.3l0.1,0.1l0.1,0.1l0.1,0l0.1-0.1l0.2-0.5l0.1-0.1
		l0.2-0.2l0.1-0.1l0-0.1l0-0.1l0-0.1l0,0l0,0l0.2-1.2l0.1-0.3l0.2-0.4l0-0.1l0-0.1l0.1,0l0-0.1l0-0.2l0-0.2l0-0.1l0,0l0,0l0.1-0.2
		l0-0.1l0,0l0,0l0.1,0l0.1,0l0.1,0.1l0.1,0l0.1,0l0.1-0.1l0-0.1l0-0.1l0-0.2l-0.1-0.2l0-0.1l0,0l0.1,0l0.1-0.1l0.1,0l0.1,0l0.1,0.1
		l0,0l0,0l0-0.1l0-0.1l0,0l0,0l0,0.1l-0.1,0l-0.1,0l0-0.1l0-0.1l0.1-0.4l0-0.1V150l0-0.2l0,0l0.1-0.2l0-0.1l0-0.1l0-0.1l0-0.1l0-0.2
		l0-0.1l0.1-0.1l0.1,0v-0.1l0,0l0,0l0,0l0-0.1l0.1,0l0.1,0l0.1,0l0,0l0,0l0,0l0,0l0,0l0,0l0,0l0,0l0,0l0,0l0,0l0,0l0,0l0,0l0,0
		l0.1,0.1l0.1,0l0-0.1l-0.1-0.1l0-0.1l0.1,0l-0.1-0.2l0-0.1l0,0l0,0l0,0l0-0.1l-0.1-0.2l-0.1-0.2l0-0.2l0-0.2l0.1-0.1l-0.1-0.3
		l0.1-0.1l0.3-0.2l-0.1-0.1l0,0l0,0l0-0.1l-0.1-0.1l0.1-0.2l0.1,0l0.2,0.1l0-0.1l0-0.1l0.1,0l0.1,0l-0.1,0l-0.1-0.1l0-0.1l0-0.1
		l0.1,0l0.1,0l0,0l-0.1-0.1l0.1,0l0-0.1l-0.1-0.2l-0.1-0.3l-0.2-0.1l-0.3,0v0h0.1v-0.1l-0.1-0.1v-0.1l0,0l0.1-0.1l0,0l0,0l0-0.1l0,0
		l0,0l0,0l0,0l0,0.1v0.1l0,0.1l0,0l0,0l0.1-0.1l0-0.1l0,0l0,0l0,0l0-0.1l0-0.1l-0.1,0l0,0l0-0.1l0.1,0l0.1,0l0-0.1l0-0.1l0-0.1
		l-0.1-0.1l0-0.1l0.1,0.1l0.1,0.1l0.3,0v-0.1h-0.1v-0.1h0.1l0-0.1l-0.1-0.1l-0.1,0l-0.1,0l0.1-0.1l-0.1-0.1l-0.1-0.2l0,0l-0.1,0l0,0
		l0-0.1l0-0.1l-0.2-0.2l-0.2-0.2l-0.1-0.1l0-0.1l0-0.1l0.5,0.4l0.3,0.5l0.1,0.1l0.2,0.1l0.1,0l0-0.1l-0.1-0.1l-0.9-1V142l0.1,0l0,0
		l0-0.1l-0.1-0.1l0.2,0.1l0.1,0.1l0.1,0.1l0,0l0-0.1l0-0.1l0-0.1l0,0l0-0.1l0,0l-0.2-0.1l-0.1-0.2l0-0.1l0-0.1l0-0.1l0,0l0,0
		l0.5,0.6l0,0l0,0l0,0l0,0l0,0.1l0,0.1v0.1l0,0.1l0.2,0l0.1,0l0-0.1l0-0.2l0,0l0.1,0.2l0.1,0.1l0.1,0l0.1,0l0-0.1l0-0.1l-0.1-0.1
		l0-0.1l0.2,0.1l0.1,0l0-0.1l-0.1-0.1l0,0l0-0.1l0-0.1l0,0l0,0.1l0,0l0-0.1l0-0.2l-0.1,0l-0.1,0l-0.1-0.2l0-0.1l0.1-0.1l0.1,0
		l0.1,0.2l0.1,0.1l-0.1-0.1l0,0l0.1-0.1l0,0.1l0,0l0,0l0-0.1l-0.1-0.1l-0.1,0l-0.1,0l-0.1-0.1l0.1,0l0,0l0-0.1l0-0.1l0.1,0l-0.1-0.2
		l-0.1-0.2l-0.1-0.2l0,0l0.1,0l0,0l-0.1-0.1l-0.2-0.2l-0.1-0.1l0.2,0.1l0.2,0.3l0.2,0.2l0.1-0.3l0,0l0-0.1l0,0l0,0l0.1,0l0,0l0,0
		l0-0.1l0-0.1l0-0.1l0-0.1l-0.1-0.1l0,0l0,0l-0.3-0.2l-0.1,0v-0.1l0.2,0l0,0l0,0l0-0.1l0,0l0,0l0,0l0.1,0l0,0l0-0.1l-0.1,0l-0.2,0.1
		l0,0.1l0,0.1l0,0l0,0l-0.1,0l0-0.1l0-0.1l-0.1-0.1l-0.2-0.1l-0.1-0.1l0.6,0.1l0-0.2l0,0l-0.1,0l0,0l-0.1,0l-0.1,0l0,0l0-0.1l0-0.1
		l0-0.1l0-0.1l0-0.1l-0.1,0l-0.1,0l-0.9-0.5l-0.1,0l0.1-0.1l0.4,0.1l0.2,0.2l0.5,0.1l0,0l0.1,0l0,0l0,0l0.1-0.1l0,0l0.1,0l0.1-0.1
		l0.1-0.1l0-0.1l0.1,0l0.2,0l0.1-0.1l-0.2-0.2l-0.2,0l-0.1,0l0-0.1v-0.1h-0.1v0l0,0l0,0l-0.1,0l-0.1-0.1l0-0.1l0-0.1l-0.1,0
		l-0.1-0.1l0,0l0,0.1l0,0l-0.1-0.1l-0.2,0l-0.1,0l-0.1-0.1l-0.1,0l-0.5,0l-0.1-0.1l-0.2-0.1l-0.1,0l0,0.1l0,0.1l0,0.1l0,0.1l0,0
		l-0.1,0l0,0l0-0.1l0-0.1l0,0l0,0l-0.1-0.1l-0.1,0l-0.1,0l-0.1,0.1l-0.1,0.1l-0.2-0.1l-0.1,0.1l0-0.1l0,0l-0.1,0l-0.1,0v-0.1l0.1,0
		l0.2,0l0.1,0l0-0.1l0-0.1l0-0.1l-0.1,0v-0.1l2.9,0.4l0.4-0.1l0.1,0l-0.1-0.1l-0.1-0.1l-0.2,0l0.1-0.1l0.2,0l0.2,0.2l0.1,0l0.1-0.1
		l0.1-0.1l0.1-0.1v-0.1l-0.1,0l-0.2,0l-0.1-0.1l0,0l0-0.1l0-0.1l0-0.1l0-0.1l-0.1,0l-0.1,0l0.1,0l0.1-0.1l0,0l0.1,0l0.1,0.1l0,0.1
		l0.1,0l0.5,0v-0.1l0.1,0l0.2,0l0.1-0.1l0-0.1l-0.1-0.2l0.5,0.1l0.1-0.1l-0.1-0.1l0,0l0,0l0-0.1l0-0.1l0-0.2l0-0.1l-0.1-0.1v-0.1
		l0.1,0.1l0.3,0.3l0.1,0l0,0l0,0h0.1v-0.1l-0.1-0.1l-0.1-0.1l0-0.1l0.1,0l0.1,0l0.1,0l0.1-0.1l0-0.1l-0.1-0.1l-0.1,0l0-0.1v-0.1l0,0
		l0,0l0,0l0,0l0,0l0,0l0,0l0,0l0-0.1l0-0.2l0-0.1l-0.1-0.1l0-0.2l0-0.2l0-0.2l0.1,0l0.1-0.1l0.1-0.1l0.1-0.1l-0.1-0.3l0,0.1l0,0.1
		l0,0.1l0,0.1l0,0.1l-0.1,0.2l0,0.1l0.1,0.2l0,0l0,0l0-0.1l0-0.3l0-0.1l0-0.1l0.1,0l0,0l0,0.1l-0.1,0.2l0,0l0,0.1l0,0.2l0,0.2
		l-0.1,0.1v0.1l0,0.2l0,0.2l0,0.2l0.1,0.1l0,0.1l0,0.1l0,0.1l0,0l0,0l0-0.1l0-0.1l-0.1-0.1l0-0.2l0-0.1l0.1,0.1l0.1,0.2l0,0l0.1,0
		l0,0l0,0l0,0l0,0l0,0l0,0.1l0,0.1l0,0.1l0,0.1l0.1,0.1l0-0.2l0-0.1l0-0.1l0.1,0l0.1,0l0.1,0l0.1-0.1l0-0.1l0-0.1l0-0.1l0-0.1
		l0.1-0.2l0.1-0.2l0.1-0.1l-0.1-0.1l0-0.1l0.1,0l0.1,0.1l0,0l0-0.1l0,0l0.2,0l0.1,0l0.1-0.2l0-0.1l0.1,0l0.1,0l0.1,0l0.1-0.1l0.1,0
		l0.1,0l0.1,0v0.1l0,0l0,0l0.1,0.1l-0.1,0l-0.1,0.1l-0.1,0l0.1,0l0.4-0.2l0-0.1l0,0l0,0l0,0l0.1-0.1l0.2-0.1l0.2,0l0.1,0l0,0l0,0
		l0-0.1l0-0.1l0-0.1l0,0l-0.1,0.1v-0.1l0,0l0,0l0,0l0,0l-0.1,0.1l0-0.1l0-0.1l0-0.1l-0.1,0l-0.1,0l-0.1-0.1l0-0.1l0.1,0l0.4,0.3
		l-0.1-0.1l-0.1-0.1l-0.1-0.1l-0.1,0l-0.2-0.1l0-0.1l0,0l0.1,0v-0.1l0-0.1l0-0.1l0-0.1l-0.1,0l0.1-0.1l0.1-0.1l0.1,0l0.1,0l0,0
		l0,0.1l0,0l0.1,0.1l0.3-0.1l0.1,0l0.1,0l0.1,0l0.1,0l0.1,0l0.1,0l0.1,0l0.2,0l0.1-0.1l0-0.1l-0.1-0.1l-0.1-0.1l-0.1,0l-0.1-0.1
		l0.1,0l0.1,0l0.1,0l0-0.1l-0.3-0.2l0,0l0-0.1l0,0l-0.1-0.1l-0.1,0l-0.2,0l0,0.1l0.1,0.1l0.2,0.1h-0.2l0,0.1l0.1,0.3l0,0.1l-0.1,0
		l-0.1,0l0,0l0-0.1l0,0l-0.2-0.1l-0.3-0.1l-0.3,0.1l-0.1,0.4h0l0-0.1l0,0l-0.1,0.1l-0.6,0l-0.1-0.1l-0.1,0l-0.2,0.2l-0.1,0.1l0,0
		l0,0.1l0,0l0,0l0,0.1l0,0l0,0.1l0,0.1l0,0l-0.1,0l0-0.2l-0.2-0.1l-0.4,0v0.1l0.2,0.1l0,0.1l-0.1,0.1l-0.1,0l-0.1,0l0.1-0.1l0,0l0,0
		l-0.1,0l0,0l0,0l0-0.1l-0.3-0.1l-0.1,0l-0.1,0.1l0.1,0.1l0,0.1l0,0.2l0,0.1l0-0.1l-0.1-0.2l0,0l-0.1,0l-0.2-0.1l-0.2-0.2l-0.2-0.1
		l-0.3-0.1l0.1,0.4l0.1,0.1l0.1,0.1v0.1l-0.8-0.1v-0.1l0.2,0l0.1,0l0-0.1l0-0.1l-0.2-0.3l0.3-0.1l0-0.1l0-0.1l-0.1-0.1l-0.2,0
		l-0.4-0.1l-0.2,0l-0.2,0.1l0,0l0-0.1l0,0l-0.3-0.2l0,0l0-0.1l0-0.1l0-0.1l-0.1-0.1l0,0l0,0l-0.1-0.1l-0.2-0.2l-0.1,0l0,0.1H141l0,0
		l-0.1,0l0,0l0,0l0,0l0,0l0.1,0.1l0.5,0.4l0,0l0.1,0l0,0l0,0l0,0.1l0,0l0,0h-0.3l0,0l-0.1-0.2l-0.3-0.3l-0.1-0.1l-0.1-0.1l-0.1,0.1
		l-0.1,0.1l-0.1,0.1l-0.1,0l-0.1-0.1l-0.1,0l0,0l0,0.1l0,0l0,0l-0.1,0l0,0l-1.3,0.1l-0.2,0l-0.2-0.1l-0.2-0.1l-0.1-0.2l0.4,0.2h0.5
		v-0.1h-0.1v-0.1l0.1-0.1l0.1,0l0,0.1l0,0.1l0.1,0.1l0.1,0l0.1,0l0-0.1l0,0l0.1,0l0,0l0.1-0.1l0,0l0,0l0.2,0.1l0.1,0l0.1-0.1
		l-0.2-0.1l0.1,0l0.1,0l0.1,0l0.1-0.1l-0.1-0.1l-0.1-0.2l-0.1-0.1l0.1-0.1l0.1,0l0,0l0,0l0.1,0.1l0.1,0.1l0.1,0.1l0.1,0.1l0.1,0.1
		l0.1,0.1l0.1,0l0.1,0l0.1,0l0,0l0-0.1l0-0.1l0.1-0.1l0,0l0,0l0-0.1l0-0.1l0,0l0.3,0.1l0,0l0,0l0,0l0,0l0,0l0,0l0,0l0,0l0.1,0.2l0,0
		l0.5,0l0-0.1l-0.2-0.2l-0.1-0.1l0.1,0l0,0l0.1-0.1l0,0l0,0.1l0,0.1l0.1,0.1l0,0l0,0l0,0l0.1,0.1l0.1,0.1l0.2,0l0,0.1l0,0.1l0.5,0.4
		l0.1,0l0-0.1l0-0.1l0,0l0,0.1l0.1,0.2l0,0l0-0.1l0-0.1l-0.1-0.2l0.1-0.1l0-0.2l-0.1-0.2l0-0.1l-0.1-0.1l0-0.1l0,0l0.1,0l0-0.1
		l0-0.1l0-0.1l0,0.1l0,0.1l0,0.1l0.1,0l0,0l0.1,0.2l0.2,0.2l0,0l0,0l0.1-0.1l0,0l0.1,0l0,0.1l-0.1,0.1l-0.1,0.1l0,0.1l0,0.1l0,0
		l0.1,0l0,0l0,0l0,0l0-0.1l0,0l0.1,0l0.3,0.1l0.1,0l0,0.1l0.1,0.2l0.1,0.1l0.1,0l0-0.1l0-0.1l0.1-0.1l0.2-0.3l0-0.1l-0.1-0.3l0-0.1
		l-0.1-0.1l-0.1,0l-0.1,0l-0.4-0.3l-0.2-0.2l0-0.1l0-0.1l0.2-0.2l0,0l0,0l0,0l0.1-0.2l-0.1-0.1l-0.3,0l0.1,0l0,0l-0.1,0.1l-0.1,0
		l-0.1,0.1l0,0.1l0,0.2l0,0.1l-0.1,0.1l0.1,0.1l0.1,0.2l0,0.2l0,0.1l-0.1-0.1l-0.1-0.4L144,128l0-0.2l0-0.1l-0.1,0l0-0.1l0-0.1
		l0-0.1l0.1-0.2l0-0.1l0,0l-0.3,0l-0.1,0l-0.1-0.1h0.6l0.1,0l0.1-0.1l0.1-0.2l0.1-0.2l0,0.1l0,0.1l0.1,0.1l0,0.2l0.1,0.1l0.1,0.1
		l0.1,0.1l-0.1,0l0,0.1l0,0.1l0,0.1l0,0.1l-0.1,0.1l-0.1,0l-0.1,0l0.1,0.1l0.1,0.1l0.1,0l0.1,0l0.2,0.1l0.1,0l0-0.1l0-0.1l0-0.2
		l0-0.1l0.1-0.1l0,0.1l0,0.1l0,0.1l0,0.1l0,0.2l0,0.1l0.1,0.1l0,0l0.1,0l0,0l0,0.1l0,0l0,0v0.1l0,0l0,0l0,0l0,0.1l0,0.1l0,0.1l0,0.1
		l-0.1,0.1l-0.1,0.1l-0.1,0.2l0,0.2l-0.1,0.3l0.1,0.3l0.2,0.2l0.2,0.1l0.1,0l0.3-0.1l0.5,0.1l0.1,0l-0.6-0.6l0,0l0.1,0.1l0,0l0,0
		l0.1-0.1l0-0.1l0-0.1v-0.1l0,0l0,0l0.1-0.1l0,0l0,0l0,0.1l0,0l0.1,0l0.1-0.1l0.1,0l0,0.1l0,0.2l0,0.1l0,0l-0.1,0l-0.1,0l0,0
		l0.1,0.1l0.2,0.1l0.2,0l0.1-0.1l-0.1,0l-0.1,0l-0.1-0.1l0-0.1l-0.1-0.1l-0.1,0l0.1,0l0.1,0l0.1-0.1l-0.1-0.1v-0.1l0.3,0l0.1,0
		l0.1-0.1l0.2-0.3l0.1-0.1l0.2-0.1l0.2-0.2l0.2-0.1l0.1-0.1l0.1,0l0,0l0-0.1L149,128l0.1,0l0,0l0,0l0,0l0,0l0.1-0.1l0-0.1l0-0.1
		h-0.2l0,0l0,0l0-0.1l0-0.1l0,0l0.1,0l0-0.1l0.1-0.1l0.3-0.1l0.1-0.1l0.1-0.1l0.1-0.1l0,0l0,0.1l0,0.1l0.1,0l0.1,0l0.3-0.1l0.1-0.1
		l0.1-0.1l0-0.2l-0.2-0.1l-1.1,0l-0.2,0.1h-0.1l0-0.1l0.1-0.1l0.1,0l0.2,0l0.1,0l0.1-0.1l0.3-0.4l0-0.1l0-0.1l-0.1-0.3l0-0.1
		l0.1,0.1l0.1,0.2l0.3,0.5l0.1,0l0.1,0l0-0.1l0-0.3l0-0.1l-0.1,0l-0.1,0l0,0l0,0.1l0,0l0,0l0,0l-0.1-0.1l0,0l0-0.1l0,0l0,0l-0.1-0.1
		l-0.1-0.1l-0.2-0.1l-0.1-0.1l-0.1-0.4l-0.2-0.6l0-0.1l0-0.1l0-0.1l0,0l-0.1,0l-0.2,0.1l-0.1,0.2l0,0.2l0.1,0.2l0.1,0.2l0-0.1
		l-0.2-0.3l0-0.1l0-0.3l0-0.1l-0.1-0.1l-0.1,0l-0.1-0.1l-0.1,0l-0.1,0l-0.1,0.1l0,0.1l0,0.2l0,0.2l0,0.1h0l0-0.1l-0.1-0.3l0-0.1
		l0-0.3l0,0l0,0.1l0,0l-0.1,0h-0.1l-0.1,0l-0.1-0.1l-0.2-0.1l-0.1-0.1l0-0.2l0.1,0.1l0.1,0l0.1,0l-0.1-0.2l-0.2-0.2l-0.2-0.2
		l-0.1-0.3l0.2,0.4l0.1,0.2l0.7,0.3l0.2-0.1l-0.2-0.2l-0.6-0.2l0-0.1l0,0l0.1,0l0.1,0v-0.1l-0.1-0.1l0,0l0-0.1l0-0.1l0-0.1l0,0
		l-0.1-0.1l-0.3,0l-0.1-0.1l-0.1,0l-0.1,0l-0.1,0l-0.1,0.1l-0.1,0.1l0-0.1l0,0l-0.1-0.1V122l0.1-0.1l0.1-0.1l0.1,0l-0.3-0.1
		l-0.1-0.1l-0.1-0.2l0,0l0-0.1l0,0l-0.1-0.1l-0.2-0.2l-0.1-0.1l-0.1,0v-0.1l0,0l0-0.1l0-0.1l0-0.1l-0.1-0.3L146,120l-0.1,0l-0.4,0.1
		l-0.2,0.2l-0.1,0.2l0.1,0.2v0.1l-0.3,0l-0.1-0.1l-0.1-0.2l0-0.1l-0.1-0.2l0-0.1l0,0l0.1-0.1l0.1-0.1l-0.1-0.1l-0.2-0.1l-0.1-0.1
		l-0.1-0.1l-0.1,0l-0.6,0.1l-0.1,0l-0.1,0.1l-0.1,0l-0.1,0l-0.1,0v-0.1l0.2-0.1l-0.2-0.2l-0.1-0.1l-0.1-0.1l-0.1,0l0,0l-0.1,0l0,0
		l0,0l0,0l0,0l0.1,0l0.2-0.1l0.1-0.1l0.1-0.1l0.1-0.1l0.1-0.1l0,0l-0.1,0l-0.1,0l-0.1-0.1l0-0.1l0-0.1l0-0.1l0,0l0,0l0,0l0-0.1l0,0
		l0,0l0,0l0,0l-0.2-0.5l0,0l0,0l-0.1,0l0,0l0-0.1l0-0.1l0-0.1l0,0l-0.1,0l-0.1-0.1l0,0l0-0.1l0-0.2l0.1-0.1l0.3-0.1l-0.1-0.1l-0.1,0
		l-0.2,0l0,0l0.1-0.1l0,0l0,0l0,0l0-0.1l0-0.1l0-0.1l0,0l0,0l0,0l0-0.1l0-0.1l0,0l-0.1,0l0,0l0.1,0l0-0.1l0-0.1l-0.1-0.1l0.1-0.1
		l0-0.1l0-0.2l-0.1-0.1l0.1-0.1l0.1-0.1l0.1-0.1l-0.1-0.2l-0.1-0.1l-0.1-0.2l-0.1-0.1l-0.1-0.1v-0.1l0.1,0l0.1,0l0.2,0.2l0.1,0
		l0.2,0l-0.1-0.1l-0.1,0l-0.1-0.1l-0.1-0.2l0.3,0.1l0.1,0l0.1,0l-0.3-0.2l0-0.1l-0.1-0.1l-0.1-0.1l-0.1-0.2l0-0.1l0-0.1l0.1-0.1
		l0-0.2l0,0l0,0.1l0,0.1l0-0.1l0,0l0,0l0,0l0,0l0-0.1l0-0.1l0,0l0,0l0,0.1l0,0h-0.1l0,0l0-0.1l0-0.1l0-0.1l0-0.1l0,0l0-0.1l0-0.1
		l0,0l-0.2-0.1V112h0.2v-0.1l0,0l-0.1,0l-0.1-0.1l-0.1,0l0,0l0,0l0.4,0v-0.1l-0.4-0.1l-0.1-0.1l0.2,0l0.2-0.1l0-0.1l-0.1,0l-0.1,0
		v-0.1l0.3,0l0.1,0l0.2,0.1l0.1,0l0.1-0.1l-0.1-0.1l-0.5-0.1l0.1-0.1l0.2,0.1l0.1-0.1l-0.1-0.1l0,0v-0.1l0.1,0l0.2,0l0.1-0.1l0-0.1
		l-0.3-0.2l-0.1,0l-0.1,0l-0.1-0.1l0.4,0l0.2,0l0.2,0.1l0,0.1l0.1,0.1l0.2,0l-0.1-0.2l0-0.1l0-0.1l0.1,0.1l0.1,0.1l0.2,0.4l0.1,0.1
		l0.1,0.1l0.1,0l0.1,0l0.1-0.1l0-0.1l0-0.2l0-0.1l0-0.1l0-0.1l0-0.1l-0.1-0.1l-0.1-0.1l-0.1,0l-0.1,0l-0.2,0.1l0,0l0-0.2l0-0.1
		l0-0.1l0-0.1l-0.1,0v-0.1l0,0l0,0l0-0.1l0-0.1l-0.2,0.1l-0.1,0l0,0l0,0l0,0l0,0l0-0.1l0,0l0,0l0,0l0,0V109l0-0.1l0,0l0,0l0.1,0
		l0-0.1l0-0.1l-0.1-0.2l0-0.1l0-0.1l0-0.1l0-0.1l0,0l0.1,0l0-0.1l0-0.1l0-0.1l0,0l0.2,0l0,0l0-0.1l-0.1-0.1l0,0l0.1-0.2l0-0.1
		l-0.1-0.1l0.1-0.1l0-0.1l0-0.1l0-0.2l0-0.1l0.1-0.2l0-0.1l0-0.1l0-0.1l0-0.1l0-0.1l0-0.1l0.1-0.1l0.1,0l0.1,0l-0.1,0.2l0,0l0.1,0
		l0.3-0.2l-0.1-0.1l-0.1-0.1l-0.1,0l-0.1,0l-0.4-0.2l0.1-0.1l0,0l0,0v-0.1l0-0.1l0-0.1l0-0.1l0-0.1l-0.1-0.1l-0.1,0l-0.1,0l-0.1,0
		l-0.1-0.1l0-0.1l0-0.1l0-0.1l0-0.1l0-0.1l0-0.1l0,0l0.1,0l0,0l0,0l0-0.1l0-0.1l0-0.1l0,0l-0.2-0.3l0-0.1l0-0.1l0.1-0.1l0.1,0
		l0.1-0.1l0-0.2l0.1-0.1l0,0l0.2,0.3l0.2,0.4l0,0l0.1,0.1l0.1,0l0.1,0l0.5,0l0-0.1l-0.1,0l-0.1-0.1l0-0.2l0.1-0.1l0.1-0.1l0.2-0.1
		h0.2l0,0l0.1,0.1l0,0l0.1,0l0.1-0.1l0.1-0.2l-0.1-0.1l0.1,0l0,0l0-0.1l0-0.1l0-0.1l0-0.3l0-0.1l0,0l0.1,0l0,0l0,0.1l0,0.3l0,0.1
		l0,0l0.3-0.3l0.1,0l0,0l0-0.1l0-0.1l0-0.1l-0.6-0.3l-0.1-0.1h0.3l0,0l0.1,0.1l0,0l0,0l0,0l0,0l0-0.1l0-0.1l0-0.2l0-0.1l0-0.2
		L146,101l0-0.1l0-0.2l0,0l-0.1-0.1l0-0.1l-0.2-0.1v-0.1l0.1-0.2l-0.1-0.3l-0.1-0.3l-0.1-0.2l-0.1-0.2l-0.5-0.5l0.1,0l0.1,0.1
		l0.1,0.1l0.1,0l0.1,0l0.1-0.1l0.1,0l-0.1,0.1l0,0l0.1,0l0.1,0l0,0.1l0,0.1l0.1,0.3l0,0.1l0.1,0l0.1,0l0.1,0l0,0.1l0,0l0,0.1l0,0
		l0,0.1l0,0.1l0,0l0,0.3l0,0.1l0,0l0.1,0.1l0.1,0l0,0l0.1-0.1l0.1-0.1l0.1-0.1l0.1,0l0,0l0,0l0,0l0,0l0.1,0.1l0.1,0.1l0.2,0.1
		l-0.1,0.2l-0.4-0.1l-0.1,0.2l0.2,0l0.1,0l0.1,0.1l0,0l0,0.1l0.2,0l0.1,0l0.1-0.1l0-0.1l0-0.1l0-0.1l0.1,0l0,0l0,0.1l0,0.1l0,0.1
		l0,0.1l0,0l0-0.1l0,0l0.1,0l0.1-0.1l0.1-0.3l-0.1-0.1l-0.1,0.2l-0.1-0.1l0-0.1l0-0.1l0-0.1l0,0v-0.1h0.2l0-0.1l0,0l0.1,0l0.1,0.1
		l0.1,0.2l0,0.1l0,0l0,0l0,0l0.1,0l0.1,0l0,0l0.1,0l0,0l0,0l0,0l0.1,0l0,0l0-0.1l0-0.1l0-0.1l-0.2-0.1l-0.1-0.1l0.3,0.1l0.2,0l0-0.2
		l0-0.1l-0.1,0l-0.2,0.1l-0.1,0l-0.2-0.2l0-0.2l0.1,0l0.2,0.1l0.1,0l0.1,0l0-0.2h0l0,0.1l0.1,0l0,0l0-0.1l-0.1-0.1l-0.1-0.1l-1.1,0
		l-0.1-0.1l0.2-0.1l0.1-0.1l0.1-0.1l0,0l0,0l0-0.1l0,0l0,0l0,0l0,0.1l0,0l0.3,0.1l-0.1-0.1l-0.1-0.1l-0.1-0.1l0.1-0.1l0.1,0l0.1,0
		l0.1,0.1l0.1,0.2l0,0l0,0l0-0.2l0-0.1l0.1,0l0.2-0.2h-0.1l0.1-0.1l0-0.1l0-0.1l0-0.1l0.1-0.1l0.1,0l0.1,0.1l0.1,0l0.1,0l0-0.1
		l0-0.1l0-0.1l-0.1-0.1l-0.1-0.1l-0.1-0.1l-0.1,0V97l0.2,0l0.6,0.2l0-0.1l-0.1-0.2l0-0.1l0-0.1l0-0.1l-0.1-0.1l0.1-0.1l0.4,0.1v0.1
		l-0.2,0l-0.1,0l0,0.1l0,0.1l0.1,0.1l0.1,0l0.1-0.1l0,0l0-0.1l0.3,0l0.1-0.1l0.1-0.1l-0.7-0.3l-0.1-0.1l0.1-0.1l0.1,0l0.2,0l0.2,0.1
		l0.1,0l0-0.1l0.1,0l0.1,0.1l0.1,0.1l0.1,0.1l0.1,0l0,0.1l0,0.1l0,0.1l0.1,0.1l0,0.1l0,0l0.1,0.2l0,0l0.1,0l0,0l0-0.1l0-0.1l0.1,0
		l0.1,0l0,0l0-0.1l-0.1,0l-0.1-0.1l-0.1-0.1l0.1-0.2l0.2,0.2l0.1,0l0.1-0.2h-0.1l0-0.1L151,96l0-0.1l-0.1-0.1l0,0l0.1-0.1l0.2-0.1
		l0.1-0.2l0,0.2l0.1,0l0.1-0.1l0-0.1v-0.3l0-0.1l0-0.2l0-0.1l0-0.3l0-0.2l0.1-0.1l0.1,0.1l0.1,0.1l0.1,0.1l0.1,0l-0.1-0.3l0-0.1
		l0.1,0.1l0.3,0.5l0.1,0.1l0.1,0l0,0l0-0.1l0-0.1l-0.2-0.3l0-0.1l0,0l0.1,0l0.1,0l0.1-0.1l-0.1-0.1l-0.1,0l-0.1-0.1l0.1-0.2l-0.1,0
		l0,0l0-0.1l0.1-0.1l0.1,0l0.1,0.1l0.1,0.1l0.1,0.1l0.2,0.1l0.1,0.2l0.1,0l0,0l0,0.1l0,0l0.1,0.1l0,0.1l0,0.1l0,0.1l0.2,0.1l0.1,0
		l0.1-0.1l0.1-0.1l0,0l0.1,0l0,0l0-0.2l-0.1-0.3l0-0.1l0.1-0.2l0.2-0.1l0.2-0.2l0.1-0.2l0,0l0.2-0.1l0.1-0.1l0.1,0l0.3,0.2l-0.1-0.2
		l0-0.1l0-0.1l0.1-0.1l0.1-0.1l0.1,0l0.1,0l0,0l0,0l0,0.1l0,0l0,0l0,0l0,0l0.3,0l0.1,0l0-0.2l0-0.2l0.1-0.2l0.1-0.1l0,0.1l0,0.1
		l0,0.1l0,0.1l0,0.1l0,0.1l0.1,0.1l0.1,0l0-0.2l0-0.6l0-0.1l0.1,0l0.1,0.1l0,0.1l0,0.1l0,0.1l0,0.1l0,0.1l0.1,0l0,0l0-0.1l0-0.1
		l0-0.1l0-0.1l0-0.2l0-0.1l0,0l0,0l0-0.1l0.1,0.1l0.1-0.1l0.2-0.5l0,0l0.1,0.1l0,0.1l0,0.1l0,0.1l0,0.1l0,0l0-0.1l0-0.1l0.2-0.2
		l0.1,0l0.1,0.1l0.1,0.2l0,0l0.1-0.1l0.1-0.2l-0.1,0l-0.1,0l0-0.1l0-0.1l0-0.1l0.2,0l0.2-0.2l0-0.1l0.1-0.3l0.1-0.3l0.1-0.1l0.1-0.1
		l0,0l0,0l0,0l0,0l0,0l0-0.1l0-0.2l0,0l0,0l0,0l0,0l0,0l0-0.1l0,0l0,0l0-0.1l0-0.1l0,0l0.2-0.4l0-0.2l-0.1-0.2l0.1-0.2l0.3-0.4
		l0.1-0.3l0,0l0,0l0.1,0.1l0,0l0.5-0.8l0,0l0,0l0.1,0l0.1,0l0.1-0.1l0.1,0l0,0l0,0l0,0l0,0l0-0.1l0-0.1l0-0.1l0-0.1l0.1,0.1l0.1,0.2
		l0.1,0.1l0.1-0.1l0.1-0.1l0.2-0.2l0.2-0.4l0-0.1l0.1-0.1l0-0.1l0.1-0.1h0.1l0,0l0-0.1l0-0.1l0-0.1l0,0h-0.1l0,0.1l-0.1,0l-0.1,0
		l0,0l0,0.1l0,0l-0.1,0l-0.1-0.1l0-0.1l0.1-0.1l0-0.1l0-0.2l0,0l-0.1,0l-0.2,0l0,0l-0.1,0.1l-0.1,0l-0.1-0.2l-0.1,0l0,0l0-0.1l0,0
		l0,0l0,0l0,0.1l0.1,0.1l0.1-0.1l0.2-0.2l0,0l0.1,0.2l0.1,0l0.1,0l0.1-0.1l0.1-0.1l-0.1,0l-0.1,0l-0.1-0.1l0-0.1v-0.2l0,0l0,0l0,0
		l0,0.2l-0.1-0.1l-0.1-0.2l-0.1-0.1l-0.1,0l0,0l0,0.1l0,0.1l0,0l0,0l0,0.1l0,0l0,0l-0.1-0.1l0,0l0,0l0-0.1l0,0l0,0l0,0l-0.1,0
		l-0.1-0.1l-0.1-0.1l0-0.1l0.1,0l-0.1-0.2l-0.1-0.1l-0.1,0l-0.1,0l-0.1-0.1l0-0.2l0-0.2l0-0.1l0.1,0l0.1,0.1l0.1,0.1l0.1,0.1
		l0.1,0.1l0.2,0.2l0.1,0.1v-0.1l-0.1-0.1l0-0.1l0-0.1l0.1,0v-0.1l-0.2-0.2l-0.1-0.1l-0.1-0.2l0.1,0l0.2,0l0.1,0l0-0.1l-0.1-0.1
		l-0.3-0.1l-0.3,0.1l-0.2,0l-0.1,0l-0.1-0.1l0,0l0-0.1l-0.1-0.1l-0.1-0.1l0-0.1l0-0.1l0-0.1l0.1,0l0.1,0l0,0.1l0,0.1l0,0.1l0.1,0
		l0.1,0l0.1-0.1l0.1-0.1l0-0.2l0.1-0.1l0.1-0.1l0-0.3l0.1,0l0.1-0.1l0-0.1l0-0.1l0-0.1l0-0.1l0-0.1l0-0.1l0.1,0l0.5,0l0.1-0.1
		l-0.1-0.1l0-0.1l0.1-0.1l0.1-0.1l0,0l0,0l0,0v0l0,0l0.1,0.1l0,0l0,0l0.1-0.1l0,0l-0.1-0.1l0-0.1l0.1-0.1l0.4,0l0.1-0.1l-0.1-0.1
		l-0.1,0l0-0.1l0.1-0.3l0-0.1l0-0.1l-0.1-0.1l0.2,0l0.1-0.1l0-0.2l-0.3-0.6l-0.2-0.3l-0.3-0.5l-0.1-0.1l-0.5-0.1l0.1-0.1l0.2,0
		l0.1-0.1l0,0l0,0l0,0l0.1,0l0.1,0.2l0.1,0.2l0.1,0.1l0.1,0l0.1,0.1l0.1,0.1l0.1,0.1l0.1,0.1L161,77l0,0.1l0.1,0.1l0.2,0l0.2-0.1
		l0.1-0.2l0-0.1l-0.1-0.1l-0.1-0.1l-0.1-0.2l-0.1-0.1l-0.1,0l0,0.2l-0.1,0.1l-0.1,0l-0.1-0.1l-0.1-0.1l-0.1-0.1l-0.1-0.1l-0.1,0
		l0.2-0.1l0,0l0,0l0,0l0.1-0.2l0.2,0l0.3,0v-0.1l-0.1,0l-0.2-0.1v-0.1l0.2-0.1l0.1,0l0.1,0.2l0.1,0l0.2,0l-0.1-0.1l0.1,0l0.4,0.1
		l0.1,0l0.1-0.1l0.1-0.1l0,0.1l0.1,0l0.1,0l0.1-0.1l0-0.1l0-0.1l0-0.1l0-0.1l0.1,0.2l0.1,0.1l0.1,0l0.1-0.1l0-0.1l0-0.1l0-0.1
		l-0.1-0.1l-0.2-0.3l-0.1,0l0,0l0.1,0.1l-0.1,0.1l-0.1-0.1l-0.2-0.3l0.1,0l0.6,0.2l0.1-0.1l0,0l0,0.1l0,0l0,0l0-0.1l0,0l0,0l0,0
		l0.1,0l0.2,0l0.1-0.1l-0.1,0l-0.1,0l-0.1-0.2l-0.1-0.1l-0.1-0.1l-0.3-0.1l-0.3-0.3l-0.5-0.3l-0.3-0.3l-0.1-0.4l0.1,0.1l0.1,0.1
		l0.1,0.1l0.1,0.2l0,0.1l0.1,0.1l0.3,0.1l0.1,0.2l0.2,0.1l0.1,0.1l0.1,0.2l0.3,0.1l0.4,0.3l0.1,0l0-0.1l0.1-0.1l0,0l0.1,0.1l0.1,0
		l0.1,0l0.1,0.1l0.1,0.1l0.1,0.1l0.1-0.1l0-0.2l0-0.1l0,0l-0.2-0.1l-0.1-0.1l0-0.1l0-0.1l0.2-0.2l0-0.1l-0.2-0.1l0-0.1l0-0.1
		l-0.1-0.1l-0.1,0l0,0.1l0,0.1l0.1,0.1l0,0.1l-0.1,0.2l-0.2,0l-0.3-0.1l0.3,0l0.1-0.1l-0.1-0.2l0-0.1l0-0.1l0-0.1l0-0.1l0-0.1l0-0.1
		l0.1-0.1l0.1,0l0.1,0.1l0,0.2l0-0.1l0.1,0l0.1,0l0.1,0l0-0.3l-0.1-0.2l-0.1-0.1l-0.3-0.1l-0.1-0.1l-0.1-0.1l-0.1-0.2l0.1,0l0.2,0.2
		l0.2,0.1l0.1-0.3l-0.1-0.1l-0.1-0.2l0-0.1l0.1,0.1l0.1,0l0-0.1l-0.2-0.3l0.2-0.1l0-0.2l0.1,0l0.3,0.1l0,0.1l0,0l0.1,0.1l0.1,0.1
		l0.1,0.1l0,0.1l0,0.1l0,0.1l0,0.1l0,0l0.1-0.2l0.1,0l0.2,0.1l0.1,0.1l0,0.2l0.1,0l0.1-0.1l0-0.1l0-0.1l0-0.2l0-0.1l0-0.1l0-0.1
		l0-0.3l0-0.1l0-0.1l-0.1-0.1l-0.1-0.1l0.1,0l0.1,0l0.5,0.4l0.1,0.2l0.1,0.4l0.1,0.1l0.1,0l0.1,0l0.1,0l0.1,0.2l0,0l0.2,0.1l0.2,0
		l0.1,0.1l0.1,0.3l0,0.2l0.1,0l0.1-0.1l0-0.2l0.1-0.1l0,0l0.3-0.1l0.1-0.1l-0.1-0.1l-0.1-0.1l0-0.1l0-0.2l0.1-0.1l0.1,0l0.1,0
		l0.2,0.2l0.1,0.1l0.1,0l0.1-0.1l0.1-0.1l0.1-0.1l0.1,0l0,0.1l0,0.2l0,0.2l0.1,0.1l0.1,0l0,0l0,0l0-0.1l0-0.1l0-0.1l0-0.1l0,0l0-0.1
		l0,0l0,0l0,0l0-0.1l0,0l0.1,0l0.1,0l0,0l0,0.1l0.2,0.1l0.3,0l0,0l0,0.1l0,0l0.1,0l0.1-0.1l0.1-0.2l0.1,0l0.2,0l0.1,0.1l0,0.2l0,0.1
		l0.1,0l0.2,0l0-0.1l0,0l0,0.1l0,0.1l0,0.1l0,0l0.1,0l0,0l0,0l0,0l0-0.1l0-0.2L171.3,71.6L171.3,71.6z"/>
	<g>
		<g>
			<path class="st1" d="M199.6,39c-13.4-0.4-24.5,1.5-38.7,14.7"/>
			<g>
				<path class="st2" d="M160.9,53.6c0.2,0,0.5,0.2,0.7,0.3c-0.4-0.1-0.8-0.1-1.1,0.1c0.2-0.3,0.2-0.7,0.2-1.1
					C160.8,53.1,160.9,53.4,160.9,53.6z"/>
			</g>
		</g>
	</g>
	<g>
		<path class="st3" d="M212.9,37.3H212l-0.5-1.3h-3l-0.5,1.3h-0.9l2.4-6h0.9L212.9,37.3z M211.3,35.3l-1.3-3.2l-1.3,3.2H211.3z"/>
		<path class="st3" d="M214.3,37.3h-0.7v-6h0.7V37.3z"/>
		<path class="st3" d="M216.3,37.3h-0.7v-6h0.7v2.3c0.4-0.5,0.9-0.8,1.5-0.8c0.6,0,1,0.2,1.4,0.6c0.4,0.4,0.5,1,0.5,1.7
			c0,0.7-0.2,1.2-0.5,1.7s-0.8,0.6-1.4,0.6c-0.6,0-1.1-0.3-1.5-0.8V37.3z M216.3,36.1c0.1,0.2,0.3,0.4,0.5,0.5
			c0.2,0.1,0.5,0.2,0.8,0.2c0.4,0,0.8-0.2,1-0.5c0.3-0.3,0.4-0.7,0.4-1.2s-0.1-0.9-0.4-1.2c-0.3-0.3-0.6-0.5-1-0.5
			c-0.3,0-0.5,0.1-0.8,0.2c-0.2,0.1-0.4,0.3-0.5,0.5V36.1z"/>
		<path class="st3" d="M224.2,37.3h-0.7v-0.5c-0.4,0.4-0.8,0.6-1.4,0.6c-0.4,0-0.8-0.1-1.1-0.4c-0.3-0.3-0.5-0.6-0.5-1.1
			c0-0.5,0.2-0.8,0.5-1.1c0.3-0.2,0.7-0.4,1.1-0.4c0.6,0,1.1,0.2,1.4,0.6v-0.8c0-0.3-0.1-0.5-0.3-0.7c-0.2-0.2-0.5-0.2-0.8-0.2
			c-0.5,0-1,0.2-1.3,0.6l-0.3-0.5c0.5-0.5,1-0.7,1.7-0.7c0.5,0,0.9,0.1,1.2,0.4c0.3,0.2,0.5,0.6,0.5,1.1V37.3z M222.3,36.9
			c0.5,0,0.9-0.2,1.2-0.5v-0.8c-0.3-0.4-0.7-0.5-1.2-0.5c-0.3,0-0.6,0.1-0.8,0.3s-0.3,0.4-0.3,0.7c0,0.3,0.1,0.5,0.3,0.7
			S222,36.9,222.3,36.9z"/>
		<path class="st3" d="M229.2,37.3h-0.7v-2.8c0-0.4-0.1-0.6-0.3-0.8c-0.2-0.2-0.4-0.2-0.7-0.2c-0.3,0-0.5,0.1-0.7,0.2
			c-0.2,0.1-0.4,0.3-0.6,0.5v3.2h-0.7v-4.3h0.7v0.6c0.2-0.2,0.4-0.4,0.7-0.5c0.3-0.1,0.6-0.2,0.9-0.2c0.9,0,1.4,0.5,1.4,1.4V37.3z"
			/>
		<path class="st3" d="M230.9,32.3c-0.1,0-0.2,0-0.3-0.1s-0.1-0.2-0.1-0.3s0-0.2,0.1-0.3s0.2-0.1,0.3-0.1c0.1,0,0.2,0,0.3,0.1
			s0.1,0.2,0.1,0.3s0,0.2-0.1,0.3S231,32.3,230.9,32.3z M231.2,37.3h-0.7v-4.3h0.7V37.3z"/>
		<path class="st3" d="M235.9,37.3h-0.7v-0.5c-0.4,0.4-0.8,0.6-1.4,0.6c-0.4,0-0.8-0.1-1.1-0.4c-0.3-0.3-0.5-0.6-0.5-1.1
			c0-0.5,0.2-0.8,0.5-1.1s0.7-0.4,1.1-0.4c0.6,0,1.1,0.2,1.4,0.6v-0.8c0-0.3-0.1-0.5-0.3-0.7s-0.5-0.2-0.8-0.2c-0.5,0-1,0.2-1.3,0.6
			l-0.3-0.5c0.5-0.5,1-0.7,1.7-0.7c0.5,0,0.9,0.1,1.2,0.4c0.3,0.2,0.5,0.6,0.5,1.1V37.3z M234.1,36.9c0.5,0,0.9-0.2,1.2-0.5v-0.8
			c-0.3-0.4-0.7-0.5-1.2-0.5c-0.3,0-0.6,0.1-0.8,0.3c-0.2,0.2-0.3,0.4-0.3,0.7c0,0.3,0.1,0.5,0.3,0.7
			C233.5,36.8,233.8,36.9,234.1,36.9z"/>
	</g>
	<g>
		<path class="st3" d="M211.7,64.7h-3.9v-6h3.9v0.7h-3.2v1.9h3.1V62h-3.1V64h3.2V64.7z"/>
		<path class="st3" d="M213.5,64.7h-0.7v-4.3h0.7v0.7c0.4-0.5,0.9-0.8,1.4-0.8V61c-0.1,0-0.2,0-0.3,0c-0.2,0-0.4,0.1-0.7,0.2
			c-0.2,0.1-0.4,0.3-0.5,0.5V64.7z"/>
		<path class="st3" d="M216.1,59.7c-0.1,0-0.2,0-0.3-0.1s-0.1-0.2-0.1-0.3s0-0.2,0.1-0.3s0.2-0.1,0.3-0.1c0.1,0,0.2,0,0.3,0.1
			s0.1,0.2,0.1,0.3s0,0.2-0.1,0.3S216.3,59.7,216.1,59.7z M216.5,64.7h-0.7v-4.3h0.7V64.7z"/>
		<path class="st3" d="M218.9,64.8c-0.3,0-0.6-0.1-0.7-0.3s-0.2-0.4-0.2-0.8V61h-0.7v-0.6h0.7v-1.2h0.7v1.2h0.9V61h-0.9v2.7
			c0,0.2,0,0.3,0.1,0.4c0.1,0.1,0.2,0.2,0.3,0.2c0.2,0,0.4-0.1,0.5-0.2l0.2,0.5C219.5,64.7,219.3,64.8,218.9,64.8z"/>
		<path class="st3" d="M221.1,64.7h-0.7v-4.3h0.7v0.7c0.4-0.5,0.9-0.8,1.4-0.8V61c-0.1,0-0.2,0-0.3,0c-0.2,0-0.4,0.1-0.7,0.2
			c-0.2,0.1-0.4,0.3-0.5,0.5V64.7z"/>
		<path class="st3" d="M225.4,64.8c-0.6,0-1.2-0.2-1.6-0.6c-0.4-0.4-0.6-1-0.6-1.7c0-0.6,0.2-1.2,0.6-1.6c0.4-0.4,0.9-0.7,1.5-0.7
			c0.6,0,1.2,0.2,1.5,0.7c0.4,0.4,0.6,1,0.6,1.7v0.2h-3.5c0,0.4,0.2,0.8,0.5,1.1c0.3,0.3,0.6,0.4,1.1,0.4c0.5,0,1-0.2,1.3-0.5
			l0.3,0.4C226.7,64.6,226.1,64.8,225.4,64.8z M226.7,62.3c0-0.4-0.1-0.7-0.4-1c-0.2-0.3-0.6-0.4-1.1-0.4c-0.4,0-0.8,0.1-1,0.4
			c-0.2,0.3-0.4,0.6-0.4,1H226.7z"/>
		<path class="st3" d="M231.9,64.7h-0.7v-0.5c-0.4,0.4-0.8,0.6-1.4,0.6c-0.4,0-0.8-0.1-1.1-0.4s-0.5-0.6-0.5-1.1
			c0-0.5,0.2-0.8,0.5-1.1s0.7-0.4,1.1-0.4c0.6,0,1.1,0.2,1.4,0.6v-0.8c0-0.3-0.1-0.5-0.3-0.7c-0.2-0.2-0.5-0.2-0.8-0.2
			c-0.5,0-1,0.2-1.3,0.6l-0.3-0.5c0.5-0.5,1-0.7,1.7-0.7c0.5,0,0.9,0.1,1.2,0.4c0.3,0.2,0.5,0.6,0.5,1.1V64.7z M230,64.3
			c0.5,0,0.9-0.2,1.2-0.5V63c-0.3-0.4-0.7-0.5-1.2-0.5c-0.3,0-0.6,0.1-0.8,0.3c-0.2,0.2-0.3,0.4-0.3,0.7c0,0.3,0.1,0.5,0.3,0.7
			C229.5,64.2,229.7,64.3,230,64.3z"/>
	</g>
	<g>
		<path class="st3" d="M209.7,94.5c-1,0-1.7-0.3-2.3-1l0.4-0.6c0.5,0.6,1.1,0.9,1.9,0.9c0.5,0,0.8-0.1,1.1-0.3s0.3-0.4,0.3-0.7
			c0-0.2-0.1-0.4-0.2-0.5c-0.1-0.1-0.3-0.3-0.5-0.3s-0.4-0.2-0.7-0.2c-0.3-0.1-0.5-0.1-0.8-0.2c-0.3-0.1-0.5-0.2-0.7-0.3
			s-0.4-0.3-0.5-0.5c-0.1-0.2-0.2-0.5-0.2-0.7c0-0.5,0.2-0.9,0.6-1.2c0.4-0.3,0.9-0.5,1.5-0.5c0.9,0,1.6,0.3,2.1,0.8l-0.5,0.5
			c-0.4-0.5-1-0.7-1.7-0.7c-0.4,0-0.7,0.1-0.9,0.3c-0.2,0.2-0.3,0.4-0.3,0.7c0,0.2,0.1,0.4,0.3,0.5s0.4,0.2,0.7,0.3
			c0.3,0.1,0.5,0.1,0.9,0.2c0.3,0.1,0.6,0.2,0.9,0.3c0.3,0.1,0.5,0.3,0.7,0.5c0.2,0.2,0.3,0.5,0.3,0.9c0,0.5-0.2,0.9-0.5,1.3
			S210.4,94.5,209.7,94.5z"/>
		<path class="st3" d="M214.9,94.5c-0.6,0-1.2-0.2-1.6-0.6c-0.4-0.4-0.6-1-0.6-1.7c0-0.6,0.2-1.2,0.6-1.6c0.4-0.4,0.9-0.7,1.5-0.7
			c0.6,0,1.2,0.2,1.5,0.7c0.4,0.4,0.6,1,0.6,1.7v0.2h-3.5c0,0.4,0.2,0.8,0.5,1.1c0.3,0.3,0.6,0.4,1.1,0.4c0.5,0,1-0.2,1.3-0.5
			l0.3,0.4C216.2,94.3,215.6,94.5,214.9,94.5z M216.3,92c0-0.4-0.1-0.7-0.4-1c-0.2-0.3-0.6-0.4-1.1-0.4c-0.4,0-0.8,0.1-1,0.4
			s-0.4,0.6-0.4,1H216.3z"/>
		<path class="st3" d="M218.7,94.4H218v-4.3h0.7v0.7c0.4-0.5,0.9-0.8,1.4-0.8v0.7c-0.1,0-0.2,0-0.3,0c-0.2,0-0.4,0.1-0.7,0.2
			c-0.2,0.1-0.4,0.3-0.5,0.5V94.4z"/>
		<path class="st3" d="M221.7,94.4H221v-6h0.7v2.3c0.4-0.5,0.9-0.8,1.5-0.8c0.6,0,1,0.2,1.4,0.6s0.5,1,0.5,1.7
			c0,0.7-0.2,1.2-0.5,1.7c-0.4,0.4-0.8,0.6-1.4,0.6c-0.6,0-1.1-0.3-1.5-0.8V94.4z M221.7,93.2c0.1,0.2,0.3,0.4,0.5,0.5
			s0.5,0.2,0.8,0.2c0.4,0,0.8-0.2,1-0.5c0.3-0.3,0.4-0.7,0.4-1.2s-0.1-0.9-0.4-1.2c-0.3-0.3-0.6-0.5-1-0.5c-0.3,0-0.5,0.1-0.8,0.2
			c-0.2,0.1-0.4,0.3-0.5,0.5V93.2z"/>
		<path class="st3" d="M226.5,89.5c-0.1,0-0.2,0-0.3-0.1s-0.1-0.2-0.1-0.3s0-0.2,0.1-0.3s0.2-0.1,0.3-0.1c0.1,0,0.2,0,0.3,0.1
			s0.1,0.2,0.1,0.3s0,0.2-0.1,0.3S226.6,89.5,226.5,89.5z M226.9,94.4h-0.7v-4.3h0.7V94.4z"/>
		<path class="st3" d="M231.6,94.4h-0.7v-0.5c-0.4,0.4-0.8,0.6-1.4,0.6c-0.4,0-0.8-0.1-1.1-0.4c-0.3-0.3-0.5-0.6-0.5-1.1
			c0-0.5,0.2-0.8,0.5-1.1c0.3-0.2,0.7-0.4,1.1-0.4c0.6,0,1.1,0.2,1.4,0.6v-0.8c0-0.3-0.1-0.5-0.3-0.7c-0.2-0.2-0.5-0.2-0.8-0.2
			c-0.5,0-1,0.2-1.3,0.6l-0.3-0.5c0.5-0.5,1-0.7,1.7-0.7c0.5,0,0.9,0.1,1.2,0.4c0.3,0.2,0.5,0.6,0.5,1.1V94.4z M229.7,94
			c0.5,0,0.9-0.2,1.2-0.5v-0.8c-0.3-0.4-0.7-0.5-1.2-0.5c-0.3,0-0.6,0.1-0.8,0.3s-0.3,0.4-0.3,0.7c0,0.3,0.1,0.5,0.3,0.7
			S229.4,94,229.7,94z"/>
	</g>
	<g>
		<path class="st3" d="M212.3,125.3h-0.9l-2.3-2.7l-0.6,0.7v2h-0.7v-6h0.7v3.1l2.7-3.1h0.9l-2.5,2.9L212.3,125.3z"/>
		<path class="st3" d="M216.3,124.8c-0.4,0.4-0.9,0.7-1.6,0.7s-1.2-0.2-1.6-0.7c-0.4-0.4-0.6-1-0.6-1.6c0-0.6,0.2-1.2,0.6-1.6
			c0.4-0.4,0.9-0.7,1.6-0.7s1.2,0.2,1.6,0.7c0.4,0.4,0.6,1,0.6,1.6C216.9,123.8,216.7,124.3,216.3,124.8z M213.6,124.3
			c0.3,0.3,0.6,0.5,1.1,0.5c0.4,0,0.8-0.2,1.1-0.5s0.4-0.7,0.4-1.2c0-0.5-0.1-0.9-0.4-1.2s-0.6-0.5-1.1-0.5c-0.4,0-0.8,0.2-1.1,0.5
			c-0.3,0.3-0.4,0.7-0.4,1.2C213.3,123.6,213.4,124,213.6,124.3z"/>
		<path class="st3" d="M219.3,125.4c-0.7,0-1.3-0.2-1.8-0.7l0.4-0.5c0.1,0.2,0.4,0.3,0.6,0.4s0.5,0.2,0.8,0.2c0.3,0,0.6-0.1,0.8-0.2
			c0.2-0.1,0.3-0.3,0.3-0.5c0-0.2-0.1-0.3-0.3-0.5s-0.4-0.2-0.7-0.3c-0.3-0.1-0.5-0.1-0.8-0.2c-0.3-0.1-0.5-0.2-0.7-0.4
			c-0.2-0.2-0.3-0.4-0.3-0.7c0-0.4,0.1-0.7,0.4-0.9c0.3-0.2,0.7-0.4,1.2-0.4c0.7,0,1.2,0.2,1.6,0.6l-0.3,0.5
			c-0.3-0.4-0.7-0.5-1.3-0.5c-0.3,0-0.5,0.1-0.7,0.2s-0.3,0.3-0.3,0.5c0,0.2,0.1,0.3,0.3,0.4c0.2,0.1,0.4,0.2,0.7,0.2
			c0.3,0.1,0.5,0.1,0.8,0.2c0.3,0.1,0.5,0.2,0.7,0.4c0.2,0.2,0.3,0.4,0.3,0.8c0,0.4-0.2,0.7-0.4,0.9
			C220.3,125.3,219.9,125.4,219.3,125.4z"/>
		<path class="st3" d="M225.6,124.8c-0.4,0.4-0.9,0.7-1.6,0.7c-0.6,0-1.2-0.2-1.6-0.7c-0.4-0.4-0.6-1-0.6-1.6c0-0.6,0.2-1.2,0.6-1.6
			c0.4-0.4,0.9-0.7,1.6-0.7c0.6,0,1.2,0.2,1.6,0.7c0.4,0.4,0.6,1,0.6,1.6C226.2,123.8,226,124.3,225.6,124.8z M223,124.3
			c0.3,0.3,0.6,0.5,1.1,0.5c0.4,0,0.8-0.2,1.1-0.5s0.4-0.7,0.4-1.2c0-0.5-0.1-0.9-0.4-1.2s-0.6-0.5-1.1-0.5c-0.4,0-0.8,0.2-1.1,0.5
			c-0.3,0.3-0.4,0.7-0.4,1.2C222.6,123.6,222.7,124,223,124.3z"/>
		<path class="st3" d="M229.2,125.3h-0.7l-1.8-4.3h0.7l1.4,3.6l1.4-3.6h0.7L229.2,125.3z"/>
		<path class="st3" d="M235.2,124.8c-0.4,0.4-0.9,0.7-1.6,0.7s-1.2-0.2-1.6-0.7c-0.4-0.4-0.6-1-0.6-1.6c0-0.6,0.2-1.2,0.6-1.6
			c0.4-0.4,0.9-0.7,1.6-0.7s1.2,0.2,1.6,0.7c0.4,0.4,0.6,1,0.6,1.6C235.7,123.8,235.5,124.3,235.2,124.8z M232.5,124.3
			c0.3,0.3,0.6,0.5,1.1,0.5c0.4,0,0.8-0.2,1.1-0.5s0.4-0.7,0.4-1.2c0-0.5-0.1-0.9-0.4-1.2s-0.6-0.5-1.1-0.5c-0.4,0-0.8,0.2-1.1,0.5
			c-0.3,0.3-0.4,0.7-0.4,1.2C232.1,123.6,232.3,124,232.5,124.3z"/>
	</g>
	<g>
		<path class="st3" d="M41.7,35.5c-1,0-1.7-0.3-2.3-1l0.4-0.6c0.5,0.6,1.1,0.9,1.9,0.9c0.5,0,0.8-0.1,1.1-0.3
			c0.2-0.2,0.3-0.4,0.3-0.7c0-0.2-0.1-0.4-0.2-0.5c-0.1-0.1-0.3-0.3-0.5-0.3s-0.4-0.2-0.7-0.2c-0.3-0.1-0.5-0.1-0.8-0.2
			c-0.3-0.1-0.5-0.2-0.7-0.3s-0.4-0.3-0.5-0.5c-0.1-0.2-0.2-0.5-0.2-0.7c0-0.5,0.2-0.9,0.6-1.2c0.4-0.3,0.9-0.5,1.5-0.5
			c0.9,0,1.6,0.3,2.1,0.8l-0.5,0.5c-0.4-0.5-1-0.7-1.7-0.7c-0.4,0-0.7,0.1-0.9,0.3c-0.2,0.2-0.3,0.4-0.3,0.7c0,0.2,0.1,0.4,0.3,0.5
			c0.2,0.1,0.4,0.2,0.7,0.3c0.3,0.1,0.5,0.1,0.9,0.2c0.3,0.1,0.6,0.2,0.9,0.3c0.3,0.1,0.5,0.3,0.7,0.5c0.2,0.2,0.3,0.5,0.3,0.9
			c0,0.5-0.2,0.9-0.5,1.3C43,35.3,42.4,35.5,41.7,35.5z"/>
		<path class="st3" d="M48.5,34.8c-0.4,0.4-0.9,0.7-1.6,0.7c-0.6,0-1.2-0.2-1.6-0.7c-0.4-0.4-0.6-1-0.6-1.6c0-0.6,0.2-1.2,0.6-1.6
			c0.4-0.4,0.9-0.7,1.6-0.7c0.6,0,1.2,0.2,1.6,0.7c0.4,0.4,0.6,1,0.6,1.6C49,33.8,48.8,34.4,48.5,34.8z M45.8,34.4
			c0.3,0.3,0.6,0.5,1.1,0.5s0.8-0.2,1.1-0.5s0.4-0.7,0.4-1.2c0-0.5-0.1-0.9-0.4-1.2s-0.6-0.5-1.1-0.5s-0.8,0.2-1.1,0.5
			c-0.3,0.3-0.4,0.7-0.4,1.2C45.4,33.7,45.6,34.1,45.8,34.4z"/>
		<path class="st3" d="M56.1,35.4h-0.7v-3c0-0.6-0.3-0.9-0.8-0.9c-0.2,0-0.4,0.1-0.6,0.2s-0.4,0.3-0.5,0.5v3.2h-0.7v-3
			c0-0.6-0.3-0.9-0.8-0.9c-0.2,0-0.4,0.1-0.6,0.2s-0.4,0.3-0.5,0.5v3.2h-0.7V31h0.7v0.6c0.1-0.2,0.3-0.3,0.6-0.5
			c0.3-0.2,0.5-0.2,0.8-0.2c0.3,0,0.6,0.1,0.8,0.2c0.2,0.2,0.3,0.3,0.4,0.6c0.1-0.2,0.3-0.4,0.6-0.6s0.6-0.2,0.9-0.2
			c0.8,0,1.2,0.4,1.2,1.3V35.4z"/>
		<path class="st3" d="M60.8,35.4h-0.7v-0.5c-0.4,0.4-0.8,0.6-1.4,0.6c-0.4,0-0.8-0.1-1.1-0.4c-0.3-0.3-0.5-0.6-0.5-1.1
			c0-0.5,0.2-0.8,0.5-1.1c0.3-0.2,0.7-0.4,1.1-0.4c0.6,0,1.1,0.2,1.4,0.6v-0.8c0-0.3-0.1-0.5-0.3-0.7s-0.5-0.2-0.8-0.2
			c-0.5,0-1,0.2-1.3,0.6l-0.3-0.5c0.5-0.5,1-0.7,1.7-0.7c0.5,0,0.9,0.1,1.2,0.4c0.3,0.2,0.5,0.6,0.5,1.1V35.4z M58.9,35
			c0.5,0,0.9-0.2,1.2-0.5v-0.8c-0.3-0.4-0.7-0.5-1.2-0.5c-0.3,0-0.6,0.1-0.8,0.3s-0.3,0.4-0.3,0.7c0,0.3,0.1,0.5,0.3,0.7
			S58.6,35,58.9,35z"/>
		<path class="st3" d="M62.8,35.4h-0.7v-6h0.7V35.4z"/>
		<path class="st3" d="M64.5,30.4c-0.1,0-0.2,0-0.3-0.1c-0.1-0.1-0.1-0.2-0.1-0.3s0-0.2,0.1-0.3c0.1-0.1,0.2-0.1,0.3-0.1
			c0.1,0,0.2,0,0.3,0.1S65,29.8,65,30s0,0.2-0.1,0.3S64.6,30.4,64.5,30.4z M64.9,35.4h-0.7V31h0.7V35.4z"/>
		<path class="st3" d="M69.6,35.4h-0.7v-0.5c-0.4,0.4-0.8,0.6-1.4,0.6c-0.4,0-0.8-0.1-1.1-0.4C66.1,34.8,66,34.5,66,34
			c0-0.5,0.2-0.8,0.5-1.1c0.3-0.2,0.7-0.4,1.1-0.4c0.6,0,1.1,0.2,1.4,0.6v-0.8c0-0.3-0.1-0.5-0.3-0.7s-0.5-0.2-0.8-0.2
			c-0.5,0-1,0.2-1.3,0.6l-0.3-0.5c0.5-0.5,1-0.7,1.7-0.7c0.5,0,0.9,0.1,1.2,0.4c0.3,0.2,0.5,0.6,0.5,1.1V35.4z M67.7,35
			c0.5,0,0.9-0.2,1.2-0.5v-0.8c-0.3-0.4-0.7-0.5-1.2-0.5c-0.3,0-0.6,0.1-0.8,0.3s-0.3,0.4-0.3,0.7c0,0.3,0.1,0.5,0.3,0.7
			S67.4,35,67.7,35z"/>
	</g>
	<g>
		<path class="st3" d="M143,17.2h-0.7v-6h0.7V17.2z"/>
		<path class="st3" d="M145.1,17.2h-0.7v-4.3h0.7v0.7c0.4-0.5,0.9-0.8,1.4-0.8v0.7c-0.1,0-0.2,0-0.3,0c-0.2,0-0.4,0.1-0.7,0.2
			c-0.2,0.1-0.4,0.3-0.5,0.5V17.2z"/>
		<path class="st3" d="M150.8,17.2h-0.7v-0.5c-0.4,0.4-0.8,0.6-1.4,0.6c-0.4,0-0.8-0.1-1.1-0.4c-0.3-0.3-0.5-0.6-0.5-1.1
			c0-0.5,0.2-0.8,0.5-1.1s0.7-0.4,1.1-0.4c0.6,0,1.1,0.2,1.4,0.6v-0.8c0-0.3-0.1-0.5-0.3-0.7s-0.5-0.2-0.8-0.2c-0.5,0-1,0.2-1.3,0.6
			l-0.3-0.5c0.5-0.5,1-0.7,1.7-0.7c0.5,0,0.9,0.1,1.2,0.4c0.3,0.2,0.5,0.6,0.5,1.1V17.2z M148.9,16.9c0.5,0,0.9-0.2,1.2-0.5v-0.8
			c-0.3-0.4-0.7-0.5-1.2-0.5c-0.3,0-0.6,0.1-0.8,0.3c-0.2,0.2-0.3,0.4-0.3,0.7c0,0.3,0.1,0.5,0.3,0.7
			C148.3,16.8,148.6,16.9,148.9,16.9z"/>
		<path class="st3" d="M153.8,17.3c-0.6,0-1-0.2-1.4-0.6c-0.4-0.4-0.5-1-0.5-1.7c0-0.7,0.2-1.2,0.5-1.7c0.4-0.4,0.8-0.6,1.4-0.6
			c0.3,0,0.6,0.1,0.8,0.2s0.5,0.3,0.6,0.5v-0.6h0.7v6h-0.7v-2.3C154.9,17.1,154.4,17.3,153.8,17.3z M153.9,16.7
			c0.3,0,0.5-0.1,0.8-0.2c0.2-0.1,0.4-0.3,0.5-0.5v-2c-0.1-0.2-0.3-0.4-0.5-0.5c-0.2-0.1-0.5-0.2-0.8-0.2c-0.4,0-0.8,0.2-1,0.5
			c-0.2,0.3-0.4,0.7-0.4,1.2c0,0.5,0.1,0.9,0.4,1.2S153.5,16.7,153.9,16.7z"/>
	</g>
	<g>
		<path class="st3" d="M53.6,150.5c-1,0-1.7-0.3-2.3-1l0.4-0.6c0.5,0.6,1.1,0.9,1.9,0.9c0.5,0,0.8-0.1,1.1-0.3s0.3-0.4,0.3-0.7
			c0-0.2-0.1-0.4-0.2-0.5c-0.1-0.1-0.3-0.3-0.5-0.3s-0.4-0.2-0.7-0.2s-0.5-0.1-0.8-0.2c-0.3-0.1-0.5-0.2-0.7-0.3
			c-0.2-0.1-0.4-0.3-0.5-0.5c-0.1-0.2-0.2-0.5-0.2-0.7c0-0.5,0.2-0.9,0.6-1.2c0.4-0.3,0.9-0.5,1.5-0.5c0.9,0,1.6,0.3,2.1,0.8
			l-0.5,0.5c-0.4-0.5-1-0.7-1.7-0.7c-0.4,0-0.7,0.1-0.9,0.3s-0.3,0.4-0.3,0.7c0,0.2,0.1,0.4,0.3,0.5c0.2,0.1,0.4,0.2,0.7,0.3
			c0.3,0.1,0.5,0.1,0.9,0.2c0.3,0.1,0.6,0.2,0.9,0.3s0.5,0.3,0.7,0.5c0.2,0.2,0.3,0.5,0.3,0.9c0,0.5-0.2,0.9-0.5,1.3
			C54.9,150.3,54.3,150.5,53.6,150.5z"/>
		<path class="st3" d="M56.6,152.1l0.1-0.6c0.1,0,0.2,0.1,0.4,0.1c0.2,0,0.3,0,0.4-0.1c0.1-0.1,0.2-0.2,0.3-0.4l0.3-0.7l-1.8-4.4
			h0.7l1.4,3.6l1.4-3.6h0.7l-2.2,5.2c-0.2,0.6-0.7,0.9-1.3,0.9C56.9,152.1,56.7,152.1,56.6,152.1z"/>
		<path class="st3" d="M61.9,150.4h-0.7V146h0.7v0.7c0.4-0.5,0.9-0.8,1.4-0.8v0.7c-0.1,0-0.2,0-0.3,0c-0.2,0-0.4,0.1-0.7,0.2
			c-0.2,0.1-0.4,0.3-0.5,0.5V150.4z"/>
		<path class="st3" d="M64.5,145.4c-0.1,0-0.2,0-0.3-0.1c-0.1-0.1-0.1-0.2-0.1-0.3s0-0.2,0.1-0.3c0.1-0.1,0.2-0.1,0.3-0.1
			c0.1,0,0.2,0,0.3,0.1c0.1,0.1,0.1,0.2,0.1,0.3s0,0.2-0.1,0.3C64.7,145.3,64.6,145.4,64.5,145.4z M64.9,150.4h-0.7V146h0.7V150.4z"
			/>
		<path class="st3" d="M69.6,150.4h-0.7v-0.5c-0.4,0.4-0.8,0.6-1.4,0.6c-0.4,0-0.8-0.1-1.1-0.4c-0.3-0.3-0.5-0.6-0.5-1.1
			c0-0.5,0.2-0.8,0.5-1.1c0.3-0.2,0.7-0.4,1.1-0.4c0.6,0,1.1,0.2,1.4,0.6v-0.8c0-0.3-0.1-0.5-0.3-0.7c-0.2-0.2-0.5-0.2-0.8-0.2
			c-0.5,0-1,0.2-1.3,0.6l-0.3-0.5c0.5-0.5,1-0.7,1.7-0.7c0.5,0,0.9,0.1,1.2,0.4s0.5,0.6,0.5,1.1V150.4z M67.7,150
			c0.5,0,0.9-0.2,1.2-0.5v-0.8c-0.3-0.4-0.7-0.5-1.2-0.5c-0.3,0-0.6,0.1-0.8,0.3c-0.2,0.2-0.3,0.4-0.3,0.7c0,0.3,0.1,0.5,0.3,0.7
			C67.2,149.9,67.4,150,67.7,150z"/>
	</g>
	<g>
		<path class="st3" d="M29.3,64.2h-0.9l-0.5-1.3h-3l-0.5,1.3h-0.9l2.4-6h0.9L29.3,64.2z M27.7,62.2L26.5,59l-1.3,3.2H27.7z"/>
		<path class="st3" d="M30.9,64.2h-0.7v-3.8h-0.7v-0.6h0.7v-0.3c0-0.4,0.1-0.8,0.3-1c0.2-0.2,0.5-0.4,0.9-0.4c0.4,0,0.7,0.1,0.9,0.3
			l-0.3,0.4c-0.2-0.1-0.3-0.2-0.5-0.2c-0.2,0-0.4,0.1-0.5,0.2c-0.1,0.1-0.2,0.4-0.2,0.6v0.3h0.9v0.6h-0.9V64.2z"/>
		<path class="st3" d="M34.3,66c-0.4,0-0.7,0-1-0.1s-0.5-0.3-0.8-0.5l0.3-0.5c0.3,0.4,0.8,0.6,1.4,0.6c0.4,0,0.7-0.1,1-0.3
			c0.3-0.2,0.4-0.5,0.4-1v-0.6c-0.2,0.2-0.4,0.4-0.6,0.6c-0.3,0.1-0.5,0.2-0.8,0.2c-0.6,0-1-0.2-1.4-0.6s-0.5-1-0.5-1.6
			c0-0.7,0.2-1.2,0.5-1.6c0.4-0.4,0.8-0.6,1.4-0.6c0.6,0,1.1,0.3,1.5,0.8v-0.7h0.7v4.2c0,0.7-0.2,1.1-0.6,1.4
			C35.4,65.9,34.9,66,34.3,66z M34.4,63.7c0.3,0,0.5-0.1,0.8-0.2c0.2-0.1,0.4-0.3,0.5-0.5v-1.9c-0.1-0.2-0.3-0.4-0.5-0.5
			c-0.2-0.1-0.5-0.2-0.8-0.2c-0.4,0-0.8,0.2-1,0.5C33.1,61.2,33,61.6,33,62c0,0.5,0.1,0.9,0.4,1.2C33.6,63.6,34,63.7,34.4,63.7z"/>
		<path class="st3" d="M41.3,64.2h-0.7v-2.9c0-0.4-0.1-0.6-0.3-0.8c-0.2-0.2-0.4-0.2-0.7-0.2c-0.2,0-0.5,0.1-0.7,0.2
			s-0.4,0.3-0.6,0.5v3.2h-0.7v-6h0.7v2.3c0.2-0.2,0.4-0.4,0.7-0.5c0.3-0.1,0.6-0.2,0.9-0.2c0.9,0,1.4,0.5,1.4,1.4V64.2z"/>
		<path class="st3" d="M46.1,64.2h-0.7v-0.5c-0.4,0.4-0.8,0.6-1.4,0.6c-0.4,0-0.8-0.1-1.1-0.4c-0.3-0.3-0.5-0.6-0.5-1.1
			c0-0.5,0.2-0.8,0.5-1.1c0.3-0.2,0.7-0.4,1.1-0.4c0.6,0,1.1,0.2,1.4,0.6v-0.8c0-0.3-0.1-0.5-0.3-0.7c-0.2-0.2-0.5-0.2-0.8-0.2
			c-0.5,0-1,0.2-1.3,0.6l-0.3-0.5c0.5-0.5,1-0.7,1.7-0.7c0.5,0,0.9,0.1,1.2,0.4c0.3,0.2,0.5,0.6,0.5,1.1V64.2z M44.2,63.9
			c0.5,0,0.9-0.2,1.2-0.5v-0.8c-0.3-0.4-0.7-0.5-1.2-0.5c-0.3,0-0.6,0.1-0.8,0.3s-0.3,0.4-0.3,0.7c0,0.3,0.1,0.5,0.3,0.7
			S43.9,63.9,44.2,63.9z"/>
		<path class="st3" d="M51,64.2h-0.7v-2.8c0-0.4-0.1-0.6-0.3-0.8c-0.2-0.2-0.4-0.2-0.7-0.2c-0.3,0-0.5,0.1-0.7,0.2
			c-0.2,0.1-0.4,0.3-0.6,0.5v3.2h-0.7v-4.3h0.7v0.6c0.2-0.2,0.4-0.4,0.7-0.5c0.3-0.1,0.6-0.2,0.9-0.2c0.9,0,1.4,0.5,1.4,1.4V64.2z"
			/>
		<path class="st3" d="M52.7,59.3c-0.1,0-0.2,0-0.3-0.1s-0.1-0.2-0.1-0.3s0-0.2,0.1-0.3s0.2-0.1,0.3-0.1c0.1,0,0.2,0,0.3,0.1
			s0.1,0.2,0.1,0.3s0,0.2-0.1,0.3S52.8,59.3,52.7,59.3z M53.1,64.2h-0.7v-4.3h0.7V64.2z"/>
		<path class="st3" d="M55.8,64.4c-0.7,0-1.3-0.2-1.8-0.7l0.4-0.5c0.1,0.2,0.4,0.3,0.6,0.4s0.5,0.2,0.8,0.2c0.3,0,0.6-0.1,0.8-0.2
			c0.2-0.1,0.3-0.3,0.3-0.5c0-0.2-0.1-0.3-0.3-0.5s-0.4-0.2-0.7-0.3c-0.3-0.1-0.5-0.1-0.8-0.2c-0.3-0.1-0.5-0.2-0.7-0.4
			c-0.2-0.2-0.3-0.4-0.3-0.7c0-0.4,0.1-0.7,0.4-0.9c0.3-0.2,0.7-0.4,1.2-0.4c0.7,0,1.2,0.2,1.6,0.6l-0.3,0.5
			c-0.3-0.4-0.7-0.5-1.3-0.5c-0.3,0-0.5,0.1-0.7,0.2s-0.3,0.3-0.3,0.5c0,0.2,0.1,0.3,0.3,0.4c0.2,0.1,0.4,0.2,0.7,0.2
			c0.3,0.1,0.5,0.1,0.8,0.2c0.3,0.1,0.5,0.2,0.7,0.4c0.2,0.2,0.3,0.4,0.3,0.8c0,0.4-0.2,0.7-0.4,0.9C56.8,64.2,56.3,64.4,55.8,64.4z
			"/>
		<path class="st3" d="M59.7,64.4c-0.3,0-0.6-0.1-0.7-0.3s-0.2-0.4-0.2-0.8v-2.8H58v-0.6h0.7v-1.2h0.7v1.2h0.9v0.6h-0.9v2.7
			c0,0.2,0,0.3,0.1,0.4c0.1,0.1,0.2,0.2,0.3,0.2c0.2,0,0.4-0.1,0.5-0.2l0.2,0.5C60.3,64.3,60,64.4,59.7,64.4z"/>
		<path class="st3" d="M64.6,64.2H64v-0.5c-0.4,0.4-0.8,0.6-1.4,0.6c-0.4,0-0.8-0.1-1.1-0.4c-0.3-0.3-0.5-0.6-0.5-1.1
			c0-0.5,0.2-0.8,0.5-1.1c0.3-0.2,0.7-0.4,1.1-0.4c0.6,0,1.1,0.2,1.4,0.6v-0.8c0-0.3-0.1-0.5-0.3-0.7s-0.5-0.2-0.8-0.2
			c-0.5,0-1,0.2-1.3,0.6l-0.3-0.5c0.5-0.5,1-0.7,1.7-0.7c0.5,0,0.9,0.1,1.2,0.4c0.3,0.2,0.5,0.6,0.5,1.1V64.2z M62.8,63.9
			c0.5,0,0.9-0.2,1.2-0.5v-0.8c-0.3-0.4-0.7-0.5-1.2-0.5c-0.3,0-0.6,0.1-0.8,0.3s-0.3,0.4-0.3,0.7c0,0.3,0.1,0.5,0.3,0.7
			S62.5,63.9,62.8,63.9z"/>
		<path class="st3" d="M69.6,64.2h-0.7v-2.8c0-0.4-0.1-0.6-0.3-0.8c-0.2-0.2-0.4-0.2-0.7-0.2c-0.3,0-0.5,0.1-0.7,0.2
			s-0.4,0.3-0.6,0.5v3.2H66v-4.3h0.7v0.6c0.2-0.2,0.4-0.4,0.7-0.5c0.3-0.1,0.6-0.2,0.9-0.2c0.9,0,1.4,0.5,1.4,1.4V64.2z"/>
	</g>
	<g>
		<path class="st3" d="M56.9,94.4h-0.7v-6h0.7V94.4z"/>
		<path class="st3" d="M59,94.4h-0.7v-4.3H59v0.7c0.4-0.5,0.9-0.8,1.4-0.8v0.7c-0.1,0-0.2,0-0.3,0c-0.2,0-0.4,0.1-0.7,0.2
			c-0.2,0.1-0.4,0.3-0.5,0.5V94.4z"/>
		<path class="st3" d="M64.6,94.4H64v-0.5c-0.4,0.4-0.8,0.6-1.4,0.6c-0.4,0-0.8-0.1-1.1-0.4S61,93.5,61,93.1c0-0.5,0.2-0.8,0.5-1.1
			s0.7-0.4,1.1-0.4c0.6,0,1.1,0.2,1.4,0.6v-0.8c0-0.3-0.1-0.5-0.3-0.7c-0.2-0.2-0.5-0.2-0.8-0.2c-0.5,0-1,0.2-1.3,0.6l-0.3-0.5
			c0.5-0.5,1-0.7,1.7-0.7c0.5,0,0.9,0.1,1.2,0.4c0.3,0.2,0.5,0.6,0.5,1.1V94.4z M62.8,94c0.5,0,0.9-0.2,1.2-0.5v-0.8
			c-0.3-0.4-0.7-0.5-1.2-0.5c-0.3,0-0.6,0.1-0.8,0.3c-0.2,0.2-0.3,0.4-0.3,0.7c0,0.3,0.1,0.5,0.3,0.7C62.2,94,62.5,94,62.8,94z"/>
		<path class="st3" d="M69.6,94.4h-0.7v-2.8c0-0.4-0.1-0.6-0.3-0.8c-0.2-0.2-0.4-0.2-0.7-0.2c-0.3,0-0.5,0.1-0.7,0.2
			c-0.2,0.1-0.4,0.3-0.6,0.5v3.2H66v-4.3h0.7v0.6c0.2-0.2,0.4-0.4,0.7-0.5c0.3-0.1,0.6-0.2,0.9-0.2c0.9,0,1.4,0.5,1.4,1.4V94.4z"/>
	</g>
	<g>
		<path class="st3" d="M37.2,122.3c-1,0-1.7-0.3-2.3-1l0.4-0.6c0.5,0.6,1.1,0.9,1.9,0.9c0.5,0,0.8-0.1,1.1-0.3
			c0.2-0.2,0.3-0.4,0.3-0.7c0-0.2-0.1-0.4-0.2-0.5c-0.1-0.1-0.3-0.3-0.5-0.3c-0.2-0.1-0.4-0.2-0.7-0.2c-0.3-0.1-0.5-0.1-0.8-0.2
			c-0.3-0.1-0.5-0.2-0.7-0.3c-0.2-0.1-0.4-0.3-0.5-0.5c-0.1-0.2-0.2-0.5-0.2-0.7c0-0.5,0.2-0.9,0.6-1.2c0.4-0.3,0.9-0.5,1.5-0.5
			c0.9,0,1.6,0.3,2.1,0.8l-0.5,0.5c-0.4-0.5-1-0.7-1.7-0.7c-0.4,0-0.7,0.1-0.9,0.3c-0.2,0.2-0.3,0.4-0.3,0.7c0,0.2,0.1,0.4,0.3,0.5
			c0.2,0.1,0.4,0.2,0.7,0.3c0.3,0.1,0.5,0.1,0.9,0.2s0.6,0.2,0.9,0.3c0.3,0.1,0.5,0.3,0.7,0.5c0.2,0.2,0.3,0.5,0.3,0.9
			c0,0.5-0.2,0.9-0.5,1.3C38.5,122.2,38,122.3,37.2,122.3z"/>
		<path class="st3" d="M41.5,122.3c-0.3,0-0.6-0.1-0.7-0.3c-0.2-0.2-0.2-0.4-0.2-0.8v-2.8h-0.7v-0.6h0.7v-1.2h0.7v1.2h0.9v0.6h-0.9
			v2.7c0,0.2,0,0.3,0.1,0.4c0.1,0.1,0.2,0.2,0.3,0.2c0.2,0,0.4-0.1,0.5-0.2l0.2,0.5C42.1,122.2,41.8,122.3,41.5,122.3z"/>
		<path class="st3" d="M46.4,122.2h-0.7v-0.5c-0.4,0.4-0.8,0.6-1.4,0.6c-0.4,0-0.8-0.1-1.1-0.4c-0.3-0.3-0.5-0.6-0.5-1.1
			c0-0.5,0.2-0.8,0.5-1.1s0.7-0.4,1.1-0.4c0.6,0,1.1,0.2,1.4,0.6v-0.8c0-0.3-0.1-0.5-0.3-0.7s-0.5-0.2-0.8-0.2c-0.5,0-1,0.2-1.3,0.6
			l-0.3-0.5c0.5-0.5,1-0.7,1.7-0.7c0.5,0,0.9,0.1,1.2,0.4c0.3,0.2,0.5,0.6,0.5,1.1V122.2z M44.6,121.8c0.5,0,0.9-0.2,1.2-0.5v-0.8
			c-0.3-0.4-0.7-0.5-1.2-0.5c-0.3,0-0.6,0.1-0.8,0.3c-0.2,0.2-0.3,0.4-0.3,0.7c0,0.3,0.1,0.5,0.3,0.7
			C44,121.8,44.2,121.8,44.6,121.8z"/>
		<path class="st3" d="M48.9,122.3c-0.3,0-0.6-0.1-0.7-0.3c-0.2-0.2-0.2-0.4-0.2-0.8v-2.8h-0.7v-0.6h0.7v-1.2h0.7v1.2h0.9v0.6h-0.9
			v2.7c0,0.2,0,0.3,0.1,0.4c0.1,0.1,0.2,0.2,0.3,0.2c0.2,0,0.4-0.1,0.5-0.2l0.2,0.5C49.5,122.2,49.2,122.3,48.9,122.3z"/>
		<path class="st3" d="M52.4,122.3c-0.6,0-1.2-0.2-1.6-0.6s-0.6-1-0.6-1.7c0-0.6,0.2-1.2,0.6-1.6c0.4-0.4,0.9-0.7,1.5-0.7
			c0.6,0,1.2,0.2,1.5,0.7c0.4,0.4,0.6,1,0.6,1.7v0.2h-3.5c0,0.4,0.2,0.8,0.5,1.1s0.6,0.4,1.1,0.4c0.5,0,1-0.2,1.3-0.5l0.3,0.4
			C53.7,122.1,53.1,122.3,52.4,122.3z M53.7,119.8c0-0.4-0.1-0.7-0.4-1s-0.6-0.4-1.1-0.4c-0.4,0-0.8,0.1-1,0.4
			c-0.2,0.3-0.4,0.6-0.4,1H53.7z"/>
		<path class="st3" d="M56.2,122.2h-0.7v-6h0.7V122.2z"/>
		<path class="st3" d="M59.5,122.3c-0.6,0-1.2-0.2-1.6-0.6s-0.6-1-0.6-1.7c0-0.6,0.2-1.2,0.6-1.6c0.4-0.4,0.9-0.7,1.5-0.7
			c0.6,0,1.2,0.2,1.5,0.7c0.4,0.4,0.6,1,0.6,1.7v0.2H58c0,0.4,0.2,0.8,0.5,1.1s0.6,0.4,1.1,0.4c0.5,0,1-0.2,1.3-0.5l0.3,0.4
			C60.8,122.1,60.2,122.3,59.5,122.3z M60.8,119.8c0-0.4-0.1-0.7-0.4-1s-0.6-0.4-1.1-0.4c-0.4,0-0.8,0.1-1,0.4
			c-0.2,0.3-0.4,0.6-0.4,1H60.8z"/>
		<path class="st3" d="M64,122.3c-0.7,0-1.3-0.2-1.8-0.7l0.4-0.5c0.2,0.2,0.4,0.3,0.6,0.4c0.3,0.1,0.5,0.2,0.8,0.2
			c0.3,0,0.6-0.1,0.8-0.2c0.2-0.1,0.3-0.3,0.3-0.5c0-0.2-0.1-0.3-0.3-0.5c-0.2-0.1-0.4-0.2-0.7-0.3c-0.3-0.1-0.5-0.1-0.8-0.2
			c-0.3-0.1-0.5-0.2-0.7-0.4c-0.2-0.2-0.3-0.4-0.3-0.7c0-0.4,0.1-0.7,0.4-0.9c0.3-0.2,0.7-0.4,1.2-0.4c0.7,0,1.2,0.2,1.6,0.6
			l-0.3,0.5c-0.3-0.4-0.7-0.5-1.3-0.5c-0.3,0-0.5,0.1-0.7,0.2c-0.2,0.1-0.3,0.3-0.3,0.5c0,0.2,0.1,0.3,0.3,0.4
			c0.2,0.1,0.4,0.2,0.7,0.2s0.5,0.1,0.8,0.2s0.5,0.2,0.7,0.4c0.2,0.2,0.3,0.4,0.3,0.8c0,0.4-0.2,0.7-0.5,0.9
			C64.9,122.2,64.5,122.3,64,122.3z"/>
		<path class="st3" d="M68.1,122.3c-0.7,0-1.3-0.2-1.8-0.7l0.4-0.5c0.2,0.2,0.4,0.3,0.6,0.4c0.3,0.1,0.5,0.2,0.8,0.2
			c0.3,0,0.6-0.1,0.8-0.2c0.2-0.1,0.3-0.3,0.3-0.5c0-0.2-0.1-0.3-0.3-0.5s-0.4-0.2-0.7-0.3c-0.3-0.1-0.5-0.1-0.8-0.2
			c-0.3-0.1-0.5-0.2-0.7-0.4s-0.3-0.4-0.3-0.7c0-0.4,0.1-0.7,0.4-0.9c0.3-0.2,0.7-0.4,1.2-0.4c0.7,0,1.2,0.2,1.6,0.6l-0.3,0.5
			c-0.3-0.4-0.7-0.5-1.3-0.5c-0.3,0-0.5,0.1-0.7,0.2s-0.3,0.3-0.3,0.5c0,0.2,0.1,0.3,0.3,0.4s0.4,0.2,0.7,0.2
			c0.3,0.1,0.5,0.1,0.8,0.2s0.5,0.2,0.7,0.4s0.3,0.4,0.3,0.8c0,0.4-0.2,0.7-0.5,0.9C69.1,122.2,68.7,122.3,68.1,122.3z"/>
	</g>
	<g>
		<path class="st0" d="M210.5,51h-1.5v-6.4l-1.4,1.4l-0.9-0.9l2.4-2.4h1.3V51z"/>
		<path class="st0" d="M215.2,51.2c-1.3,0-2.4-0.4-3.1-1.3l0.8-1c0.6,0.7,1.3,1,2.2,1c0.5,0,0.9-0.1,1.2-0.4c0.3-0.3,0.5-0.6,0.5-1
			c0-0.5-0.2-0.8-0.5-1.1c-0.3-0.3-0.7-0.4-1.2-0.4c-0.7,0-1.3,0.2-1.8,0.7l-1-0.3v-4.7h5.5V44h-4v2.4c0.5-0.5,1.1-0.7,1.9-0.7
			c0.7,0,1.4,0.2,1.9,0.7c0.5,0.5,0.8,1.1,0.8,2c0,0.9-0.3,1.5-0.9,2.1C216.9,50.9,216.2,51.2,215.2,51.2z"/>
		<path class="st0" d="M222.7,51.2c-1.3,0-2.4-0.4-3.1-1.3l0.8-1c0.6,0.7,1.3,1,2.2,1c0.5,0,0.9-0.1,1.2-0.4c0.3-0.3,0.5-0.6,0.5-1
			c0-0.5-0.2-0.8-0.5-1.1c-0.3-0.3-0.7-0.4-1.2-0.4c-0.7,0-1.3,0.2-1.8,0.7l-1-0.3v-4.7h5.5V44h-4v2.4c0.5-0.5,1.1-0.7,1.9-0.7
			c0.7,0,1.4,0.2,1.9,0.7c0.5,0.5,0.8,1.1,0.8,2c0,0.9-0.3,1.5-0.9,2.1C224.4,50.9,223.7,51.2,222.7,51.2z"/>
	</g>
	<g>
		<path class="st0" d="M210.1,76.9c-0.7,0-1.3-0.1-1.9-0.4s-1-0.6-1.3-1l0.8-1c0.3,0.3,0.6,0.6,1,0.7c0.4,0.2,0.8,0.3,1.3,0.3
			c0.5,0,1-0.1,1.3-0.3c0.3-0.2,0.5-0.5,0.5-0.9c0-0.8-0.6-1.2-1.9-1.2c-0.6,0-0.9,0-1,0v-1.3c0.1,0,0.4,0,1,0
			c0.5,0,0.9-0.1,1.2-0.3c0.3-0.2,0.5-0.5,0.5-0.8c0-0.4-0.2-0.7-0.5-0.9s-0.7-0.3-1.2-0.3c-0.8,0-1.5,0.3-2.1,0.9l-0.8-0.9
			c0.7-0.9,1.8-1.3,3-1.3c0.9,0,1.6,0.2,2.2,0.6c0.5,0.4,0.8,1,0.8,1.6c0,0.5-0.2,0.9-0.5,1.3c-0.4,0.3-0.8,0.5-1.3,0.6
			c0.5,0,0.9,0.2,1.3,0.6c0.4,0.4,0.6,0.8,0.6,1.4c0,0.7-0.3,1.3-0.9,1.8C211.8,76.7,211.1,76.9,210.1,76.9z"/>
		<path class="st0" d="M217.2,76.9c-1,0-1.8-0.3-2.4-0.9l0.7-1.1c0.5,0.5,1,0.7,1.7,0.7c0.7,0,1.3-0.3,1.6-0.8
			c0.4-0.5,0.6-1.2,0.6-1.9v-0.2c-0.2,0.3-0.5,0.6-0.9,0.8c-0.4,0.2-0.8,0.4-1.3,0.4c-0.8,0-1.5-0.2-2-0.7c-0.5-0.5-0.8-1.1-0.8-2
			c0-0.8,0.3-1.5,0.9-2c0.6-0.5,1.3-0.8,2.2-0.8c0.8,0,1.4,0.2,2,0.6s0.9,0.9,1.1,1.5c0.2,0.6,0.3,1.3,0.3,2.2c0,1.2-0.3,2.3-1,3.1
			S218.3,76.9,217.2,76.9z M217.5,72.5c0.4,0,0.7-0.1,1-0.3c0.3-0.2,0.6-0.4,0.8-0.7c0-0.5-0.2-1-0.5-1.4c-0.3-0.4-0.8-0.6-1.3-0.6
			c-0.5,0-0.9,0.1-1.2,0.4c-0.3,0.3-0.5,0.6-0.5,1c0,0.5,0.2,0.9,0.5,1.1C216.6,72.4,217,72.5,217.5,72.5z"/>
		<path class="st0" d="M225.2,76.9c-1.3,0-2.4-0.4-3.1-1.3l0.8-1c0.6,0.7,1.3,1,2.2,1c0.5,0,0.9-0.1,1.2-0.4c0.3-0.3,0.5-0.6,0.5-1
			c0-0.5-0.2-0.8-0.5-1.1c-0.3-0.3-0.7-0.4-1.2-0.4c-0.7,0-1.3,0.2-1.8,0.7l-1-0.3v-4.7h5.5v1.3h-4v2.4c0.5-0.5,1.1-0.7,1.9-0.7
			c0.7,0,1.4,0.2,1.9,0.7c0.5,0.5,0.8,1.1,0.8,2c0,0.9-0.3,1.5-0.9,2.1C226.9,76.6,226.1,76.9,225.2,76.9z"/>
	</g>
	<g>
		<path class="st0" d="M210.5,107.3c-1.3,0-2.4-0.4-3.1-1.3l0.8-1c0.6,0.7,1.3,1,2.2,1c0.5,0,0.9-0.1,1.2-0.4c0.3-0.3,0.5-0.6,0.5-1
			c0-0.5-0.2-0.8-0.5-1.1c-0.3-0.3-0.7-0.4-1.2-0.4c-0.7,0-1.3,0.2-1.8,0.7l-1-0.3v-4.7h5.5v1.3h-4v2.4c0.5-0.5,1.1-0.7,1.9-0.7
			c0.7,0,1.4,0.2,1.9,0.7c0.5,0.5,0.8,1.1,0.8,2c0,0.9-0.3,1.5-0.9,2.1C212.2,107,211.4,107.3,210.5,107.3z"/>
		<path class="st0" d="M218,107.3c-1.3,0-2.4-0.4-3.1-1.3l0.8-1c0.6,0.7,1.3,1,2.2,1c0.5,0,0.9-0.1,1.2-0.4c0.3-0.3,0.5-0.6,0.5-1
			c0-0.5-0.2-0.8-0.5-1.1c-0.3-0.3-0.7-0.4-1.2-0.4c-0.7,0-1.3,0.2-1.8,0.7l-1-0.3v-4.7h5.5v1.3h-4v2.4c0.5-0.5,1.1-0.7,1.9-0.7
			c0.7,0,1.4,0.2,1.9,0.7c0.5,0.5,0.8,1.1,0.8,2c0,0.9-0.3,1.5-0.9,2.1C219.7,107,218.9,107.3,218,107.3z"/>
	</g>
	<g>
		<path class="st0" d="M52,163.9c-1,0-1.8-0.3-2.4-0.9l0.7-1.1c0.5,0.5,1,0.7,1.7,0.7c0.7,0,1.3-0.3,1.6-0.8
			c0.4-0.5,0.6-1.2,0.6-1.9v-0.2c-0.2,0.3-0.5,0.6-0.9,0.8c-0.4,0.2-0.8,0.4-1.3,0.4c-0.8,0-1.5-0.2-2-0.7c-0.5-0.5-0.8-1.1-0.8-2
			c0-0.8,0.3-1.5,0.9-2c0.6-0.5,1.3-0.8,2.2-0.8c0.8,0,1.4,0.2,2,0.6s0.9,0.9,1.1,1.5c0.2,0.6,0.3,1.3,0.3,2.2c0,1.2-0.3,2.3-1,3.1
			S53.1,163.9,52,163.9z M52.3,159.5c0.4,0,0.7-0.1,1-0.3c0.3-0.2,0.6-0.4,0.8-0.7c0-0.5-0.2-1-0.5-1.4c-0.3-0.4-0.8-0.6-1.3-0.6
			c-0.5,0-0.9,0.1-1.2,0.4c-0.3,0.3-0.5,0.6-0.5,1c0,0.5,0.2,0.9,0.5,1.1C51.4,159.4,51.8,159.5,52.3,159.5z"/>
		<path class="st0" d="M59.3,163.8h-1.6l3.1-7h-4.3v-1.3h6v1L59.3,163.8z"/>
		<path class="st0" d="M68.2,163.5c-0.4,0.2-0.9,0.4-1.5,0.4s-1.1-0.1-1.5-0.4s-0.8-0.6-1-1c-0.3-0.4-0.5-0.9-0.6-1.4
			c-0.1-0.5-0.2-1-0.2-1.6c0-0.5,0.1-1.1,0.2-1.6c0.1-0.5,0.3-1,0.6-1.4c0.3-0.4,0.6-0.7,1-1s0.9-0.4,1.5-0.4s1.1,0.1,1.5,0.4
			s0.8,0.6,1.1,1c0.3,0.4,0.5,0.9,0.6,1.4s0.2,1,0.2,1.6c0,0.5-0.1,1.1-0.2,1.6s-0.3,1-0.6,1.4C69,163,68.6,163.3,68.2,163.5z
			 M65.3,161.8c0.3,0.6,0.8,0.8,1.4,0.8c0.6,0,1.1-0.3,1.4-0.8s0.5-1.3,0.5-2.2c0-0.6-0.1-1.1-0.2-1.5c-0.1-0.4-0.3-0.8-0.6-1.1
			c-0.3-0.3-0.6-0.4-1.1-0.4s-0.8,0.1-1.1,0.4c-0.3,0.3-0.5,0.6-0.6,1.1c-0.1,0.4-0.2,0.9-0.2,1.5C64.8,160.5,65,161.2,65.3,161.8z"
			/>
	</g>
	<g>
		<path class="st0" d="M54.4,133.9H53v-6.4l-1.4,1.4l-0.8-0.9l2.4-2.4h1.3V133.9z"/>
		<path class="st0" d="M59.1,134c-1.3,0-2.4-0.4-3.1-1.3l0.8-1c0.6,0.7,1.3,1,2.2,1c0.5,0,0.9-0.1,1.2-0.4c0.3-0.3,0.5-0.6,0.5-1
			c0-0.5-0.2-0.8-0.5-1.1c-0.3-0.3-0.7-0.4-1.2-0.4c-0.7,0-1.3,0.2-1.8,0.7l-1-0.3v-4.7h5.5v1.3h-4v2.4c0.5-0.5,1.1-0.7,1.9-0.7
			c0.7,0,1.4,0.2,1.9,0.7c0.5,0.5,0.8,1.1,0.8,2c0,0.9-0.3,1.5-0.9,2.1C60.8,133.8,60.1,134,59.1,134z"/>
		<path class="st0" d="M68.2,133.6c-0.4,0.2-0.9,0.4-1.5,0.4s-1.1-0.1-1.5-0.4s-0.8-0.6-1-1c-0.3-0.4-0.5-0.9-0.6-1.4
			c-0.1-0.5-0.2-1-0.2-1.6c0-0.5,0.1-1.1,0.2-1.6c0.1-0.5,0.3-1,0.6-1.4s0.6-0.7,1-1s0.9-0.4,1.5-0.4s1.1,0.1,1.5,0.4s0.8,0.6,1.1,1
			c0.3,0.4,0.5,0.9,0.6,1.4s0.2,1,0.2,1.6c0,0.5-0.1,1.1-0.2,1.6s-0.3,1-0.6,1.4C69,133,68.6,133.4,68.2,133.6z M65.3,131.9
			c0.3,0.6,0.8,0.9,1.4,0.9c0.6,0,1.1-0.3,1.4-0.9c0.3-0.6,0.5-1.3,0.5-2.2c0-0.6-0.1-1.1-0.2-1.5c-0.1-0.4-0.3-0.8-0.6-1.1
			c-0.3-0.3-0.6-0.4-1.1-0.4s-0.8,0.1-1.1,0.4c-0.3,0.3-0.5,0.6-0.6,1.1c-0.1,0.4-0.2,0.9-0.2,1.5C64.8,130.6,65,131.3,65.3,131.9z"
			/>
	</g>
	<g>
		<path class="st0" d="M59.3,106.4c-0.6,0-1.1-0.1-1.6-0.3c-0.5-0.2-0.8-0.5-1.1-0.9s-0.5-0.9-0.6-1.4c-0.1-0.5-0.2-1.1-0.2-1.7
			c0-1.3,0.3-2.3,1-3.1c0.6-0.8,1.5-1.2,2.7-1.2c1,0,1.8,0.3,2.4,0.9l-0.7,1.1c-0.5-0.5-1-0.7-1.7-0.7c-0.7,0-1.2,0.3-1.6,0.8
			c-0.4,0.5-0.6,1.2-0.6,1.9c0,0.1,0,0.2,0,0.2c0.2-0.3,0.5-0.6,0.9-0.8s0.8-0.4,1.3-0.4c0.8,0,1.5,0.2,2,0.7c0.5,0.5,0.8,1.1,0.8,2
			c0,0.8-0.3,1.5-0.8,2C60.9,106.2,60.2,106.4,59.3,106.4z M59.2,105.1c0.5,0,0.9-0.1,1.2-0.4c0.3-0.3,0.4-0.6,0.4-1
			c0-0.5-0.2-0.9-0.5-1.1c-0.3-0.3-0.7-0.4-1.2-0.4c-0.3,0-0.7,0.1-1,0.3c-0.3,0.2-0.6,0.4-0.8,0.7c0,0.5,0.2,1,0.5,1.4
			C58.1,104.9,58.6,105.1,59.2,105.1z"/>
		<path class="st0" d="M68.2,106c-0.4,0.2-0.9,0.4-1.5,0.4s-1.1-0.1-1.5-0.4s-0.8-0.6-1-1c-0.3-0.4-0.5-0.9-0.6-1.4
			c-0.1-0.5-0.2-1-0.2-1.6c0-0.5,0.1-1.1,0.2-1.6c0.1-0.5,0.3-1,0.6-1.4c0.3-0.4,0.6-0.7,1-1s0.9-0.4,1.5-0.4s1.1,0.1,1.5,0.4
			s0.8,0.6,1.1,1c0.3,0.4,0.5,0.9,0.6,1.4s0.2,1,0.2,1.6c0,0.5-0.1,1.1-0.2,1.6s-0.3,1-0.6,1.4C69,105.5,68.6,105.8,68.2,106z
			 M65.3,104.3c0.3,0.6,0.8,0.8,1.4,0.8c0.6,0,1.1-0.3,1.4-0.8s0.5-1.3,0.5-2.2c0-0.6-0.1-1.1-0.2-1.5c-0.1-0.4-0.3-0.8-0.6-1.1
			c-0.3-0.3-0.6-0.4-1.1-0.4s-0.8,0.1-1.1,0.4c-0.3,0.3-0.5,0.6-0.6,1.1c-0.1,0.4-0.2,0.9-0.2,1.5C64.8,103,65,103.7,65.3,104.3z"/>
	</g>
	<g>
		<path class="st0" d="M54.9,76.8h-6v-1.2c1.7-1.3,2.9-2.3,3.6-2.9c0.6-0.6,0.9-1.2,0.9-1.8c0-0.4-0.1-0.7-0.4-0.9
			c-0.3-0.2-0.7-0.3-1.1-0.3c-0.9,0-1.7,0.3-2.2,1l-0.8-1c0.4-0.4,0.8-0.8,1.4-1c0.5-0.2,1.1-0.3,1.7-0.3c0.9,0,1.6,0.2,2.2,0.7
			c0.6,0.5,0.9,1.1,0.9,1.9c0,0.7-0.3,1.4-0.9,2.1c-0.6,0.7-1.5,1.5-2.8,2.5h3.7V76.8z"/>
		<path class="st0" d="M59.1,76.9c-0.7,0-1.3-0.1-1.9-0.4c-0.5-0.2-1-0.6-1.3-1l0.8-1c0.3,0.3,0.6,0.6,1,0.7
			c0.4,0.2,0.8,0.3,1.3,0.3c0.5,0,1-0.1,1.3-0.3c0.3-0.2,0.5-0.5,0.5-0.9c0-0.8-0.6-1.2-1.8-1.2c-0.6,0-0.9,0-1,0v-1.3
			c0.1,0,0.4,0,1,0c0.5,0,0.9-0.1,1.2-0.3c0.3-0.2,0.5-0.5,0.5-0.8c0-0.4-0.2-0.7-0.5-0.9c-0.3-0.2-0.7-0.3-1.2-0.3
			c-0.8,0-1.5,0.3-2.1,0.9l-0.8-0.9c0.7-0.9,1.8-1.3,3-1.3c0.9,0,1.6,0.2,2.2,0.6c0.5,0.4,0.8,1,0.8,1.6c0,0.5-0.2,0.9-0.5,1.3
			c-0.4,0.3-0.8,0.5-1.3,0.6c0.5,0,0.9,0.2,1.3,0.6c0.4,0.4,0.6,0.8,0.6,1.4c0,0.7-0.3,1.3-0.9,1.8C60.8,76.7,60,76.9,59.1,76.9z"/>
		<path class="st0" d="M68.2,76.5c-0.4,0.2-0.9,0.4-1.5,0.4s-1.1-0.1-1.5-0.4s-0.8-0.6-1-1c-0.3-0.4-0.5-0.9-0.6-1.4
			c-0.1-0.5-0.2-1-0.2-1.6c0-0.5,0.1-1.1,0.2-1.6c0.1-0.5,0.3-1,0.6-1.4c0.3-0.4,0.6-0.7,1-1s0.9-0.4,1.5-0.4s1.1,0.1,1.5,0.4
			s0.8,0.6,1.1,1c0.3,0.4,0.5,0.9,0.6,1.4s0.2,1,0.2,1.6c0,0.5-0.1,1.1-0.2,1.6s-0.3,1-0.6,1.4C69,75.9,68.6,76.3,68.2,76.5z
			 M65.3,74.8c0.3,0.6,0.8,0.8,1.4,0.8c0.6,0,1.1-0.3,1.4-0.8s0.5-1.3,0.5-2.2c0-0.6-0.1-1.1-0.2-1.5c-0.1-0.4-0.3-0.8-0.6-1.1
			c-0.3-0.3-0.6-0.4-1.1-0.4s-0.8,0.1-1.1,0.4c-0.3,0.3-0.5,0.6-0.6,1.1c-0.1,0.4-0.2,0.9-0.2,1.5C64.8,73.5,65,74.2,65.3,74.8z"/>
	</g>
	<g>
		<path class="st0" d="M54.6,47.5h-6v-1.2c1.7-1.3,2.9-2.3,3.6-2.9c0.6-0.6,0.9-1.2,0.9-1.8c0-0.4-0.1-0.7-0.4-0.9
			c-0.3-0.2-0.7-0.3-1.1-0.3c-0.9,0-1.7,0.3-2.2,1l-0.8-1c0.4-0.4,0.8-0.8,1.4-1c0.5-0.2,1.1-0.3,1.7-0.3c0.8,0,1.6,0.2,2.1,0.7
			c0.6,0.5,0.9,1.1,0.9,1.9c0,0.7-0.3,1.4-0.9,2.1c-0.6,0.7-1.5,1.5-2.8,2.5h3.7V47.5z"/>
		<path class="st0" d="M62,47.5h-6v-1.2c1.7-1.3,2.9-2.3,3.6-2.9c0.6-0.6,0.9-1.2,0.9-1.8c0-0.4-0.1-0.7-0.4-0.9
			c-0.3-0.2-0.7-0.3-1.1-0.3c-0.9,0-1.7,0.3-2.2,1l-0.8-1c0.4-0.4,0.8-0.8,1.4-1c0.5-0.2,1.1-0.3,1.7-0.3c0.8,0,1.6,0.2,2.1,0.7
			c0.6,0.5,0.9,1.1,0.9,1.9c0,0.7-0.3,1.4-0.9,2.1c-0.6,0.7-1.5,1.5-2.8,2.5H62V47.5z"/>
		<path class="st0" d="M68.2,47.3c-0.4,0.2-0.9,0.4-1.5,0.4s-1.1-0.1-1.5-0.4s-0.8-0.6-1-1c-0.3-0.4-0.5-0.9-0.6-1.4
			c-0.1-0.5-0.2-1-0.2-1.6c0-0.5,0.1-1.1,0.2-1.6c0.1-0.5,0.3-1,0.6-1.4c0.3-0.4,0.6-0.7,1-1s0.9-0.4,1.5-0.4s1.1,0.1,1.5,0.4
			s0.8,0.6,1.1,1c0.3,0.4,0.5,0.9,0.6,1.4s0.2,1,0.2,1.6c0,0.5-0.1,1.1-0.2,1.6s-0.3,1-0.6,1.4C69,46.7,68.6,47,68.2,47.3z
			 M65.3,45.5c0.3,0.6,0.8,0.8,1.4,0.8c0.6,0,1.1-0.3,1.4-0.8s0.5-1.3,0.5-2.2c0-0.6-0.1-1.1-0.2-1.5c-0.1-0.4-0.3-0.8-0.6-1.1
			c-0.3-0.3-0.6-0.4-1.1-0.4s-0.8,0.1-1.1,0.4c-0.3,0.3-0.5,0.6-0.6,1.1c-0.1,0.4-0.2,0.9-0.2,1.5C64.8,44.2,65,44.9,65.3,45.5z"/>
	</g>
	<g>
		<path class="st0" d="M143.1,29.7h-1.5v-6.4l-1.4,1.4l-0.9-0.9l2.4-2.4h1.3V29.7z"/>
		<path class="st0" d="M147.8,29.8c-1.3,0-2.4-0.4-3.1-1.3l0.8-1c0.6,0.7,1.3,1,2.2,1c0.5,0,0.9-0.1,1.2-0.4c0.3-0.3,0.5-0.6,0.5-1
			c0-0.5-0.2-0.8-0.5-1.1c-0.3-0.3-0.7-0.4-1.2-0.4c-0.7,0-1.3,0.2-1.8,0.7l-1-0.3v-4.7h5.5v1.3h-4V25c0.5-0.5,1.1-0.7,1.9-0.7
			c0.7,0,1.4,0.2,1.9,0.7c0.5,0.5,0.8,1.1,0.8,2c0,0.9-0.3,1.5-0.9,2.1C149.5,29.6,148.7,29.8,147.8,29.8z"/>
		<path class="st0" d="M155.3,29.8c-1.3,0-2.4-0.4-3.1-1.3l0.8-1c0.6,0.7,1.3,1,2.2,1c0.5,0,0.9-0.1,1.2-0.4c0.3-0.3,0.5-0.6,0.5-1
			c0-0.5-0.2-0.8-0.5-1.1c-0.3-0.3-0.7-0.4-1.2-0.4c-0.7,0-1.3,0.2-1.8,0.7l-1-0.3v-4.7h5.5v1.3h-4V25c0.5-0.5,1.1-0.7,1.9-0.7
			c0.7,0,1.4,0.2,1.9,0.7c0.5,0.5,0.8,1.1,0.8,2c0,0.9-0.3,1.5-0.9,2.1C157,29.6,156.2,29.8,155.3,29.8z"/>
	</g>
	<g>
		<g>
			<path class="st4" d="M200.2,67.3c-11.3-2.7-32.2-8.7-44.4,1.6"/>
			<g>
				<path class="st2" d="M155.9,68.8c0.6,0,1.3,0.5,1.6,1c-0.9-0.2-1.9-0.2-2.8,0c0.4-0.8,0.5-1.8,0.5-2.8
					C155.6,67.5,155.9,68.2,155.9,68.8z"/>
			</g>
		</g>
	</g>
	<g>
		<g>
			<path class="st5" d="M201.3,96.1c-12.7,2.3-38.2-3.2-49.1-15.6"/>
			<g>
				<path class="st2" d="M152.1,80.5c0,0.1-0.1,0.2-0.1,0.2c0-0.1,0-0.3,0-0.4c0.1,0.1,0.3,0.1,0.4,0.1
					C152.3,80.5,152.2,80.5,152.1,80.5z"/>
			</g>
		</g>
	</g>
	<g>
		<g>
			<path class="st6" d="M77.7,151.9c13.9,0.6,37-2,48.6-18.2"/>
			<g>
				<path class="st2" d="M126.1,133.9c-1,0.2-2.3-0.3-3.1-0.9c1.6-0.1,3.3-0.4,4.7-1.3c-0.4,1.6-0.1,3.3,0.4,4.9
					C127.2,135.9,126.3,134.9,126.1,133.9z"/>
			</g>
		</g>
	</g>
	<g>
		<g>
			<path class="st7" d="M199.1,127.7c-20.5,4.7-38.5,11.1-57.5-4.3"/>
			<g>
				<path class="st2" d="M141.7,123.5c0,0.2-0.1,0.5-0.2,0.7c0-0.3,0-0.7-0.2-1c0.3,0.1,0.7,0.1,1,0
					C142.1,123.3,141.9,123.5,141.7,123.5z"/>
			</g>
		</g>
	</g>
	<g>
		<g>
			<path class="st8" d="M77.7,34.7c18.3,0,56.6,3.7,68.7,34.2"/>
			<g>
				<path class="st2" d="M146.4,68.8c0.1-0.3,0.5-0.6,0.8-0.7c-0.3,0.4-0.5,1-0.5,1.5c-0.4-0.4-0.9-0.6-1.4-0.8
					C145.6,68.8,146.1,68.7,146.4,68.8z"/>
			</g>
		</g>
	</g>
	<g>
		<g>
			<path class="st9" d="M76.6,122.1c13,1.1,37,2.8,51-7.6"/>
			<g>
				<path class="st2" d="M127.5,114.5c-0.2,0-0.5-0.2-0.6-0.4c0.3,0.1,0.7,0.1,1.1,0c-0.2,0.3-0.2,0.7-0.3,1
					C127.6,115,127.5,114.7,127.5,114.5z"/>
			</g>
		</g>
	</g>
	<g>
		<g>
			<path class="st10" d="M76,66.5c14.4-4,43.9-8.3,63.5,8.7"/>
			<g>
				<path class="st2" d="M139.4,75.2c0-0.2,0.1-0.3,0.2-0.5c0,0.2,0,0.5,0.1,0.7c-0.2-0.1-0.5-0.1-0.7,0
					C139.1,75.3,139.3,75.2,139.4,75.2z"/>
			</g>
		</g>
	</g>
	<g>
		<g>
			<path class="st11" d="M76,96.1c10.3-8.3,35.6-18.4,59.3-12.4"/>
			<g>
				<path class="st2" d="M135.2,83.8c0-0.1,0-0.2,0-0.3c0.1,0.1,0.1,0.3,0.3,0.3c-0.1,0-0.3,0.1-0.4,0.2
					C135.1,83.9,135.2,83.8,135.2,83.8z"/>
			</g>
		</g>
	</g>
	<g>
		<g>
			<line class="st1" x1="149.1" y1="31.3" x2="149.1" y2="58.3"/>
			<g>
				<path class="st2" d="M149.1,58.2c0.2-0.2,0.5-0.2,0.7-0.2c-0.3,0.2-0.6,0.5-0.7,0.9c-0.1-0.3-0.4-0.6-0.7-0.9
					C148.6,58,148.9,58.1,149.1,58.2z"/>
			</g>
		</g>
	</g>
	<g>
		<path class="st0" d="M210.5,139.1h-1.5v-6.4l-1.4,1.4l-0.9-0.9l2.4-2.4h1.3V139.1z"/>
		<path class="st0" d="M217.2,139.1h-1.5v-1.9h-4V136l3.4-5.3h2v5.2h1.1v1.3h-1.1V139.1z M215.8,135.9v-3.9l-2.5,3.9H215.8z"/>
		<path class="st0" d="M222.5,139.2c-1.3,0-2.4-0.4-3.1-1.3l0.8-1c0.6,0.7,1.3,1,2.2,1c0.5,0,0.9-0.1,1.2-0.4c0.3-0.3,0.5-0.6,0.5-1
			c0-0.5-0.2-0.8-0.5-1.1c-0.3-0.3-0.7-0.4-1.2-0.4c-0.7,0-1.3,0.2-1.8,0.7l-1-0.3v-4.7h5.5v1.3h-4v2.4c0.5-0.5,1.1-0.7,1.9-0.7
			c0.7,0,1.4,0.2,1.9,0.7c0.5,0.5,0.8,1.1,0.8,2c0,0.9-0.3,1.5-0.9,2.1C224.2,139,223.4,139.2,222.5,139.2z"/>
	</g>
</g>
</svg>
