<?xml version="1.0" encoding="utf-8"?>
<!-- Generator: Adobe Illustrator 19.2.0, SVG Export Plug-In . SVG Version: 6.00 Build 0)  -->
<svg version="1.1" id="Layer_1" xmlns="http://www.w3.org/2000/svg" xmlns:xlink="http://www.w3.org/1999/xlink" x="0px" y="0px"
	 viewBox="0 0 266.2 169.3" style="enable-background:new 0 0 266.2 169.3;" xml:space="preserve">
<style type="text/css">
	.st0{fill:#0D92FF;}
	.st1{fill:none;stroke:#00325C;stroke-width:0.25;stroke-miterlimit:10;}
	.st2{fill:#00325C;}
	.st3{fill:#787878;}
	.st4{fill:none;stroke:#00325C;stroke-width:0.75;stroke-miterlimit:10;}
	.st5{fill:none;stroke:#00325C;stroke-width:4.000000e-02;stroke-miterlimit:10;}
	.st6{fill:none;stroke:#00325C;stroke-width:1.61;stroke-miterlimit:3;}
	.st7{fill:none;stroke:#00325C;stroke-width:7.500000e-02;stroke-miterlimit:10;}
	.st8{fill:none;stroke:#00325C;stroke-width:0.64;stroke-miterlimit:10;}
	.st9{fill:none;stroke:#00325C;stroke-width:0.265;stroke-miterlimit:10;}
	.st10{fill:none;stroke:#00325C;stroke-width:11.56;stroke-miterlimit:10;}
	.st11{fill:none;stroke:#00325C;stroke-width:1.23;stroke-miterlimit:10;}
	.st12{fill:none;stroke:#00325C;stroke-width:7.4;stroke-miterlimit:10;}
</style>
<g>
	<path class="st0" d="M142.5,138.8L142.5,138.8L142.5,138.8L142.5,138.8L142.5,138.8l0.1-0.1L142.5,138.8L142.5,138.8L142.5,138.8
		L142.5,138.8L142.5,138.8z M142.8,140.2L142.8,140.2L142.8,140.2L142.8,140.2l0.1-0.1L142.8,140.2l0.1-0.1L142.8,140.2L142.8,140.2
		L142.8,140.2L142.8,140.2L142.8,140.2L142.8,140.2L142.8,140.2L142.8,140.2L142.8,140.2z M142.3,140.1L142.3,140.1l0,0.1
		L142.3,140.1L142.3,140.1L142.3,140.1L142.3,140.1L142.3,140.1L142.3,140.1z M142.4,140.6L142.4,140.6L142.4,140.6L142.4,140.6
		L142.4,140.6L142.4,140.6L142.4,140.6l-0.1,0.1l0,0.1l0,0l0.1,0l0,0l0-0.1l0,0L142.4,140.6L142.4,140.6L142.4,140.6L142.4,140.6z
		 M120.8,144.9L120.8,144.9L120.8,144.9L120.8,144.9L120.8,144.9l-0.1,0l0,0l0,0l0,0l0,0l0,0.1l0,0l0,0l0,0l0,0l0,0l0,0l0,0
		L120.8,144.9L120.8,144.9L120.8,144.9z M141.4,146L141.4,146l0.1,0.1l0,0L141.4,146L141.4,146l0-0.1L141.4,146L141.4,146z
		 M141.8,148L141.8,148L141.8,148L141.8,148L141.8,148L141.8,148z M141,149.2L141,149.2L141,149.2l0.1,0l0,0l0,0l0,0l0.1,0l0,0l0,0
		l-0.1,0L141,149.2l0-0.1l0,0L141,149.2L141,149.2L141,149.2L141,149.2z M136,156.4L136,156.4L136,156.4v-0.1V156.4z M134.2,156.6
		L134.2,156.6L134.2,156.6L134.2,156.6L134.2,156.6L134.2,156.6L134.2,156.6L134.2,156.6L134.2,156.6z M137.6,157.3L137.6,157.3
		L137.6,157.3L137.6,157.3L137.6,157.3L137.6,157.3L137.6,157.3L137.6,157.3L137.6,157.3L137.6,157.3l0,0.1L137.6,157.3L137.6,157.3
		L137.6,157.3L137.6,157.3z M133.6,157.4L133.6,157.4L133.6,157.4l0,0.1h0L133.6,157.4L133.6,157.4L133.6,157.4z M159.5,92L159.5,92
		L159.5,92L159.5,92L159.5,92L159.5,92L159.5,92z M158.2,92.1L158.2,92.1L158.2,92.1L158.2,92.1L158.2,92.1L158.2,92.1L158.2,92.1
		L158.2,92.1z M157.7,92.2L157.7,92.2l0,0.2h0l0,0l0,0L157.7,92.2L157.7,92.2L157.7,92.2z M157.7,92.7L157.7,92.7l0,0.1l0,0l0,0l0,0
		l0,0.1L157.7,92.7L157.7,92.7L157.7,92.7z M156.4,93.4L156.4,93.4L156.4,93.4l0,0.1L156.4,93.4L156.4,93.4L156.4,93.4z M154.8,94.4
		L154.8,94.4L154.8,94.4L154.8,94.4l-0.1,0.1l0,0l0,0.1l0-0.1L154.8,94.4L154.8,94.4z M154.8,95.1l0,0.1L154.8,95.1L154.8,95.1
		L154.8,95.1L154.8,95.1z M153.2,95.3L153.2,95.3l0-0.1L153.2,95.3l0,0.1l0,0l0,0l0,0l0,0l0.1,0l0-0.1L153.2,95.3L153.2,95.3z
		 M152.8,95.4L152.8,95.4L152.8,95.4L152.8,95.4L152.8,95.4L152.8,95.4L152.8,95.4L152.8,95.4z M151.8,97.1L151.8,97.1L151.8,97.1
		l0-0.1l0,0L151.8,97.1L151.8,97.1z M150.6,97.8L150.6,97.8L150.6,97.8L150.6,97.8l0.1,0L150.6,97.8L150.6,97.8L150.6,97.8z
		 M150.4,98.2L150.4,98.2L150.4,98.2l0.1-0.1L150.4,98.2L150.4,98.2z M166.8,72.3L166.8,72.3l0,0.2l0,0L166.8,72.3L166.8,72.3z
		 M166.8,72.3L166.8,72.3l0,0.1l0.1,0.1l0,0L166.8,72.3L166.8,72.3z M172.5,72.4L172.5,72.4L172.5,72.4l0,0.1L172.5,72.4L172.5,72.4
		L172.5,72.4L172.5,72.4L172.5,72.4L172.5,72.4z M172.7,72.6L172.7,72.6L172.7,72.6l0-0.1l-0.1,0L172.7,72.6z M169.9,72.5
		L169.9,72.5L169.9,72.5L169.9,72.5L169.9,72.5L169.9,72.5L169.9,72.5L169.9,72.5L169.9,72.5L169.9,72.5L169.9,72.5z M168.8,72.4
		L168.8,72.4L168.8,72.4l0,0.1l0,0l0,0l0,0L168.8,72.4L168.8,72.4z M171.9,72.5L171.9,72.5L171.9,72.5L171.9,72.5L171.9,72.5
		L171.9,72.5L171.9,72.5z M169.4,72.9L169.4,72.9L169.4,72.9L169.4,72.9L169.4,72.9z M171.6,72.9L171.6,72.9L171.6,72.9L171.6,72.9
		L171.6,72.9L171.6,72.9z M168.8,73L168.8,73L168.8,73L168.8,73L168.8,73L168.8,73l0-0.1l0,0l0,0l0,0l0,0L168.8,73L168.8,73
		L168.8,73l-0.1-0.1l0,0l0,0l0,0l0,0L168.8,73L168.8,73L168.8,73L168.8,73z M169.6,72.8L169.6,72.8L169.6,72.8L169.6,72.8l-0.1,0.1
		l0,0l0,0l0,0l0,0L169.6,72.8L169.6,72.8L169.6,72.8z M172.3,73L172.3,73L172.3,73L172.3,73L172.3,73L172.3,73L172.3,73z
		 M170.2,73.1l-0.1-0.1L170.2,73.1L170.2,73.1L170.2,73.1l0,0.1l0,0L170.2,73.1L170.2,73.1z M168.5,73.1L168.5,73.1L168.5,73.1
		L168.5,73.1L168.5,73.1L168.5,73.1z M168.6,73.2L168.6,73.2L168.6,73.2L168.6,73.2L168.6,73.2L168.6,73.2z M172.7,73.4L172.7,73.4
		l-0.1-0.1l-0.1,0l0,0L172.7,73.4L172.7,73.4L172.7,73.4L172.7,73.4l0,0.1l0,0L172.7,73.4L172.7,73.4L172.7,73.4z M172.5,73.5
		L172.5,73.5L172.5,73.5L172.5,73.5l-0.1-0.1l0,0.1L172.5,73.5L172.5,73.5L172.5,73.5z M167.4,73.7L167.4,73.7L167.4,73.7
		L167.4,73.7L167.4,73.7L167.4,73.7L167.4,73.7L167.4,73.7L167.4,73.7L167.4,73.7z M166.7,73.6L166.7,73.6L166.7,73.6L166.7,73.6
		l-0.1,0.1l0.1,0l0.1,0L166.7,73.6L166.7,73.6L166.7,73.6z M172.5,73.7L172.5,73.7L172.5,73.7l0.1,0.1l0,0l0,0L172.5,73.7
		L172.5,73.7L172.5,73.7z M167.9,73.7L167.9,73.7L167.9,73.7L167.9,73.7L167.9,73.7l-0.1,0l0,0L167.9,73.7l0,0.1l0,0l0,0l0,0
		L167.9,73.7L167.9,73.7z M172.6,73.7L172.6,73.7L172.6,73.7L172.6,73.7L172.6,73.7z M171.3,73.8L171.3,73.8L171.3,73.8L171.3,73.8
		l0,0.1l0,0l0,0l0,0l0,0L171.3,73.8L171.3,73.8z M167,73.9L167,73.9L167,73.9l0-0.1l0,0l0,0l0,0l0,0l0,0l0,0.1L167,73.9L167,73.9z
		 M171.9,73.9L171.9,73.9L171.9,73.9L171.9,73.9L171.9,73.9z M170.2,73.9L170.2,73.9L170.2,73.9L170.2,73.9L170.2,73.9z M172.2,73.9
		L172.2,73.9L172.2,73.9L172.2,73.9L172.2,73.9z M167.7,74L167.7,74L167.7,74L167.7,74L167.7,74L167.7,74L167.7,74L167.7,74l0,0.1
		l0,0l0,0L167.7,74L167.7,74z M171.2,74.1L171.2,74.1L171.2,74.1l-0.1-0.2l0,0l0,0l0,0.1L171.2,74.1L171.2,74.1L171.2,74.1
		L171.2,74.1L171.2,74.1L171.2,74.1L171.2,74.1z M167,74.2L167,74.2L167,74.2L167,74.2L167,74.2z M172.2,74.4L172.2,74.4L172.2,74.4
		L172.2,74.4L172.2,74.4L172.2,74.4L172.2,74.4L172.2,74.4L172.2,74.4z M172.9,74.3L172.9,74.3L172.9,74.3L172.9,74.3L172.9,74.3
		L172.9,74.3z M171.3,74.4L171.3,74.4L171.3,74.4L171.3,74.4L171.3,74.4z M170.1,75.2L170.1,75.2L170.1,75.2L170.1,75.2L170.1,75.2
		L170.1,75.2L170.1,75.2L170.1,75.2L170.1,75.2L170.1,75.2z M165.4,72.5L165.4,72.5L165.4,72.5L165.4,72.5L165.4,72.5l-0.1-0.1
		L165.4,72.5L165.4,72.5L165.4,72.5L165.4,72.5L165.4,72.5z M165.7,72.8L165.7,72.8L165.7,72.8L165.7,72.8L165.7,72.8z M166.1,73.2
		L166.1,73.2L166.1,73.2L166.1,73.2L166.1,73.2z M166,73.2L166,73.2L166,73.2L166,73.2L166,73.2L166,73.2L166,73.2L166,73.2z
		 M165.6,73.7L165.6,73.7L165.6,73.7L165.6,73.7l0.1,0.1L165.6,73.7L165.6,73.7L165.6,73.7L165.6,73.7L165.6,73.7z M165.4,73.9
		L165.4,73.9L165.4,73.9L165.4,73.9L165.4,73.9L165.4,73.9z M165.7,74.1L165.7,74.1l0,0.1l0,0L165.7,74.1z M165.2,74.5L165.2,74.5
		L165.2,74.5l0-0.1l0,0L165.2,74.5L165.2,74.5L165.2,74.5L165.2,74.5z M165.4,75.1L165.4,75.1L165.4,75.1L165.4,75.1L165.4,75.1
		L165.4,75.1L165.4,75.1z M163.8,75.5L163.8,75.5L163.8,75.5L163.8,75.5L163.8,75.5L163.8,75.5l-0.1-0.1l0,0l0,0l0,0l0,0l0,0l0,0
		l0,0L163.8,75.5L163.8,75.5L163.8,75.5L163.8,75.5L163.8,75.5L163.8,75.5z M163.9,75.5L163.9,75.5L163.9,75.5l0.1,0.1L163.9,75.5
		L163.9,75.5z M166.3,75.7L166.3,75.7l0.1,0.1L166.3,75.7L166.3,75.7L166.3,75.7z M166.2,75.9L166.2,75.9L166.2,75.9L166.2,75.9
		L166.2,75.9L166.2,75.9l0.1,0L166.2,75.9L166.2,75.9z M162.9,76.7L162.9,76.7L162.9,76.7L162.9,76.7l0-0.1l0,0l0,0L162.9,76.7
		L162.9,76.7z M163.3,77L163.3,77L163.3,77l-0.1,0l0,0l0,0l0,0H163.3L163.3,77L163.3,77L163.3,77L163.3,77L163.3,77L163.3,77
		L163.3,77z M165.2,77.3L165.2,77.3L165.2,77.3L165.2,77.3L165.2,77.3L165.2,77.3L165.2,77.3L165.2,77.3z M163.4,77.8L163.4,77.8
		L163.4,77.8L163.4,77.8L163.4,77.8L163.4,77.8L163.4,77.8z M163.1,78.5L163.1,78.5l0,0.1l0.1,0.1l0,0L163.1,78.5L163.1,78.5z
		 M163.3,78.6L163.3,78.6L163.3,78.6l0.1,0.1l0-0.1L163.3,78.6L163.3,78.6z M162.3,79L162.3,79L162.3,79l-0.1,0.1l0,0l0,0.1l0.1,0
		l0,0l0,0l0-0.1L162.3,79z M162.5,79.1L162.5,79.1L162.5,79.1L162.5,79.1l-0.1,0.1l0,0l0.1,0L162.5,79.1L162.5,79.1L162.5,79.1z
		 M161.8,79.6L161.8,79.6L161.8,79.6L161.8,79.6L161.8,79.6L161.8,79.6l0.2,0l0-0.1l-0.1-0.1L161.8,79.6L161.8,79.6L161.8,79.6
		L161.8,79.6z M161.6,84.4L161.6,84.4L161.6,84.4L161.6,84.4L161.6,84.4L161.6,84.4L161.6,84.4z M159.9,88.3L159.9,88.3L159.9,88.3
		L159.9,88.3L159.9,88.3z M152.8,128.4L152.8,128.4L152.8,128.4L152.8,128.4z M151.8,128.6L151.8,128.6L151.8,128.6L151.8,128.6
		L151.8,128.6z M151.7,128.7L151.7,128.7L151.7,128.7L151.7,128.7L151.7,128.7L151.7,128.7l0,0.1L151.7,128.7L151.7,128.7
		L151.7,128.7L151.7,128.7z M151.3,128.9L151.3,128.9L151.3,128.9L151.3,128.9L151.3,128.9L151.3,128.9L151.3,128.9L151.3,128.9
		L151.3,128.9L151.3,128.9L151.3,128.9L151.3,128.9L151.3,128.9z M152.1,129.2L152.1,129.2L152.1,129.2L152.1,129.2L152.1,129.2z
		 M151.8,130.1L151.8,130.1L151.8,130.1L151.8,130.1L151.8,130.1L151.8,130.1L151.8,130.1L151.8,130.1z M152,130.6L152,130.6
		L152,130.6l0-0.1L152,130.6L152,130.6L152,130.6L152,130.6L152,130.6L152,130.6z M153.2,130.5L153.2,130.5L153.2,130.5L153.2,130.5
		L153.2,130.5L153.2,130.5z M149.4,132.3L149.4,132.3L149.4,132.3L149.4,132.3l0.1,0l0-0.1L149.4,132.3L149.4,132.3z M148.6,132.4
		L148.6,132.4L148.6,132.4L148.6,132.4L148.6,132.4L148.6,132.4z M149.3,133.1L149.3,133.1l0,0.1L149.3,133.1L149.3,133.1
		L149.3,133.1L149.3,133.1z M150,133.3L150,133.3L150,133.3L150,133.3L150,133.3l0-0.1L150,133.3L150,133.3L150,133.3L150,133.3
		L150,133.3L150,133.3L150,133.3L150,133.3L150,133.3z M149.4,133.5L149.4,133.5L149.4,133.5L149.4,133.5L149.4,133.5l0.1-0.1l0-0.1
		l-0.1,0l0,0l0,0L149.4,133.5L149.4,133.5L149.4,133.5L149.4,133.5z M147.6,133.8L147.6,133.8L147.6,133.8L147.6,133.8l0.1,0
		L147.6,133.8l0-0.1l0,0l0,0l0,0l-0.1,0L147.6,133.8L147.6,133.8L147.6,133.8z M145.7,135.4L145.7,135.4L145.7,135.4L145.7,135.4
		L145.7,135.4L145.7,135.4l0,0.1l0,0l0,0L145.7,135.4L145.7,135.4L145.7,135.4z M146.3,136L146.3,136l0,0.1l0,0.1l0,0l0,0l0,0
		L146.3,136L146.3,136L146.3,136z M165.7,72.5L165.7,72.5L165.7,72.5L165.7,72.5l0-0.1l0-0.1l0,0L165.7,72.5L165.7,72.5L165.7,72.5
		L165.7,72.5L165.7,72.5z M166.3,72.7L166.3,72.7L166.3,72.7L166.3,72.7l0-0.1l0,0l0,0l0,0l0,0L166.3,72.7L166.3,72.7L166.3,72.7
		L166.3,72.7L166.3,72.7z M168.9,72.9L168.9,72.9L168.9,72.9L168.9,72.9L168.9,72.9l0.1-0.1l0,0l-0.1,0L168.9,72.9L168.9,72.9
		L168.9,72.9z M169.1,73.2L169.1,73.2L169,73l0,0l0,0l-0.1,0l-0.1,0l0,0.1l0,0l0,0l0,0l0,0l0,0l0,0l0,0l0,0l0,0l0,0l0,0l0,0l0,0l0,0
		l0,0l0,0l0,0l0,0l0,0l0,0l0-0.1l0,0l0-0.1l0,0L169.1,73.2L169.1,73.2L169.1,73.2L169.1,73.2L169.1,73.2l0,0.1l0,0L169.1,73.2
		L169.1,73.2L169.1,73.2z M170,73.2L170,73.2L170,73.2L170,73l0,0l0,0l0,0v0l0,0l0,0.1l0,0L170,73.2L170,73.2l-0.1,0.1l0,0l0,0l0,0
		l0,0L170,73.2L170,73.2L170,73.2z M165.4,73.4L165.4,73.4L165.4,73.4L165.4,73.4l0.1-0.1l0,0l0,0l0,0l0,0l0,0L165.4,73.4
		L165.4,73.4L165.4,73.4z M172,73.5L172,73.5L172,73.5l-0.2,0l0,0l0,0l0,0l0,0l0,0l0,0l0,0l0.1,0L172,73.5L172,73.5L172,73.5
		L172,73.5z M166.2,73.9L166.2,73.9L166.2,73.9L166.2,73.9l0.2,0l0,0l0,0l0-0.1l0-0.1l0-0.1l0,0l0,0l0,0l0,0l0,0l0,0l0,0.1
		L166.2,73.9L166.2,73.9L166.2,73.9z M168.2,73.7L168.2,73.7L168.2,73.7L168.2,73.7L168.2,73.7L168.2,73.7l-0.1,0l0,0l0,0l0,0l0,0
		l0.1,0l0,0l0,0L168.2,73.7L168.2,73.7L168.2,73.7z M166.3,74L166.3,74L166.3,74l0,0.1l0,0l0,0l0.1,0l0-0.1L166.3,74L166.3,74z
		 M165.5,74.3L165.5,74.3L165.5,74.3L165.5,74.3L165.5,74.3L165.5,74.3L165.5,74.3L165.5,74.3l0-0.1l0,0L165.5,74.3L165.5,74.3
		L165.5,74.3z M171,74.6l0-0.1l0-0.1h0l0,0.1L171,74.6L171,74.6L171,74.6L171,74.6L171,74.6l-0.1,0.1l0,0l0,0l0,0l0,0l0,0h0l0,0l0,0
		l0,0l0,0l0,0l0,0l0,0v-0.1l0-0.1L171,74.6z M166.9,75L166.9,75L166.9,75l0.1,0L166.9,75l0.1-0.2l0,0l0,0l0,0l0,0L166.9,75L166.9,75
		z M166.5,75L166.5,75l-0.1-0.1l0,0.1l0,0.1l0,0.1l0,0l0.1,0L166.5,75L166.5,75L166.5,75z M167,75L167,75L167,75l-0.2-0.1l0,0l0,0.1
		L167,75L167,75L167,75L167,75l0,0.1l0,0l0,0l0,0l0,0l0,0l0-0.1l0,0l0,0l0,0l0-0.1L167,75L167,75z M165.2,75.4L165.2,75.4l0-0.2l0,0
		l0,0l-0.1-0.1l0,0l0.1,0.1l0.1,0.1l0,0.1L165.2,75.4L165.2,75.4L165.2,75.4z M166.6,75.2L166.6,75.2l0.1,0.1l0-0.1L166.6,75.2
		L166.6,75.2z M164.1,75.5L164.1,75.5L164.1,75.5L164.1,75.5l0-0.1l-0.1,0l-0.1,0l0,0v0.1l0,0l0,0l0,0.1L164.1,75.5L164.1,75.5
		L164.1,75.5L164.1,75.5L164.1,75.5L164.1,75.5z M166,75.5L166,75.5L166,75.5l-0.1-0.1l0,0l0,0l0,0l0,0h0l0,0l0,0.1l0,0.1l0,0l0,0
		l0,0l0,0l0,0l0,0l0,0l0.1,0l0.1,0l0,0L166,75.5L166,75.5z M166.7,75.5L166.7,75.5l-0.1-0.1l-0.1,0l0,0l0,0.1L166.7,75.5L166.7,75.5
		L166.7,75.5z M166.7,75.6L166.7,75.6L166.7,75.6L166.7,75.6l-0.1,0.1l0,0l0,0l0,0l0,0l0,0l0,0l0,0l0,0l0,0l0,0L166.7,75.6
		L166.7,75.6L166.7,75.6L166.7,75.6z M164.1,76.1L164.1,76.1L164.1,76.1l0,0.1l0,0l0,0.1l0,0l0-0.1l0,0l0,0L164.1,76.1L164.1,76.1
		L164.1,76.1z M163.9,76.4L163.9,76.4L163.9,76.4l-0.1,0.1l0,0.1l0,0l0,0l0,0L163.9,76.4L163.9,76.4L163.9,76.4L163.9,76.4z
		 M165.8,76.4L165.8,76.4l-0.1,0l0,0L165.8,76.4l-0.1,0.1l0,0l0,0l0,0l0,0l0,0l0,0L165.8,76.4L165.8,76.4L165.8,76.4z M162.7,76.9
		L162.7,76.9L162.7,76.9l0.1,0.1l0.1,0l0.1,0l0-0.1l0,0l0-0.1l0,0l0-0.1l-0.1-0.1l-0.1-0.1l0,0l0,0l-0.1,0l0,0l0,0l0,0l0,0l0,0
		l-0.1,0l0,0l0,0l0,0l0,0l0,0l0,0l0,0l0,0l0.1,0l0,0l0-0.1l0,0l0,0l0,0l0,0l0,0L162.7,76.9L162.7,76.9L162.7,76.9z M163.7,76.6
		L163.7,76.6L163.7,76.6l-0.1-0.1l-0.1,0l0,0.1l0,0.1l0.1,0.1l0.1,0l0,0L163.7,76.6L163.7,76.6z M165.4,76.7L165.4,76.7L165.4,76.7
		l-0.1-0.1l0-0.1l0,0l0,0.1l0.1,0.1L165.4,76.7L165.4,76.7l0,0.1l0,0.1l0,0l0,0l0,0L165.4,76.7L165.4,76.7L165.4,76.7z M165.6,76.6
		L165.6,76.6L165.6,76.6l0.1,0.1L165.6,76.6L165.6,76.6L165.6,76.6L165.6,76.6z M165.6,76.9L165.6,76.9L165.6,76.9L165.6,76.9
		l-0.1,0.1l0,0L165.6,76.9L165.6,76.9L165.6,76.9L165.6,76.9z M162.7,77.2L162.7,77.2L162.7,77.2l-0.1,0l0,0.1l0.1,0.1l0.1,0.1
		l0.1,0l0-0.1L162.7,77.2L162.7,77.2z M163,77.9L163,77.9L163,77.9l-0.1-0.1l0,0l0,0l0,0l-0.1,0l0,0l-0.1,0l0,0l0,0.1l0.1,0.1l0.1,0
		l0,0l0,0l0,0L163,77.9l0,0.1l0,0.1l0,0l0-0.1L163,77.9L163,77.9z M163,78.4L163,78.4L163,78.4l0-0.1l0,0l0,0l0,0l0,0l0,0l0,0l0,0
		l0,0l0,0l0,0l0,0l0,0l0,0.1l0,0.1l0.1,0.1l0.1,0.1L163,78.4L163,78.4l0,0.1l0,0l0,0L163,78.4L163,78.4z M160.7,81.5L160.7,81.5
		l-0.1-0.1l0,0l0,0.1l0,0.1l0,0.1l0,0.1l0,0l0,0l0,0l0-0.1L160.7,81.5L160.7,81.5z M160,83.6l0.2,0.1l0,0l0,0l0,0l0-0.1l0-0.1l0,0
		l0,0l0,0.1L160,83.6L160,83.6l0-0.1l0,0l0-0.1l-0.1-0.1l-0.1,0l0,0l0,0.1l0,0L160,83.6L160,83.6L160,83.6z M158.5,93.8L158.5,93.8
		l0,0.1l0,0L158.5,93.8L158.5,93.8l-0.1,0.1l0,0.1l0,0l0.1,0l0,0l0,0l0,0L158.5,93.8L158.5,93.8L158.5,93.8L158.5,93.8L158.5,93.8z
		 M149.7,98.4L149.7,98.4l0-0.1l0-0.1l0,0l0,0l0,0.1L149.7,98.4L149.7,98.4L149.7,98.4z M150.3,98.3l-0.1,0l0,0l0,0l0,0L150.3,98.3
		L150.3,98.3L150.3,98.3z M150.1,98.4L150.1,98.4L150.1,98.4L150.1,98.4L150.1,98.4z M150,98.8L150,98.8L150,98.8l0,0.1l0,0.1l0,0
		v-0.1L150,98.8L150,98.8L150,98.8z M149.5,99.1L149.5,99.1L149.5,99.1l0-0.1l0-0.1l0,0l0,0.1L149.5,99.1L149.5,99.1L149.5,99.1z
		 M149,99.3L149,99.3L149,99.3L149,99.3l0.1,0l0.1-0.1l0,0l0-0.1l0-0.1l0,0l0,0l-0.1,0l0,0l0-0.1l-0.1,0.1l0,0.1l0,0.1L149,99.3
		L149,99.3L149,99.3L149,99.3z M149.6,99.7L149.6,99.7l0-0.2l0-0.1l0,0l-0.1,0.1l0,0l0,0.2l0,0L149.6,99.7L149.6,99.7z M146.4,100.5
		L146.4,100.5L146.4,100.5l0,0.1l0,0L146.4,100.5L146.4,100.5L146.4,100.5L146.4,100.5z M148.2,101.1L148.2,101.1l0-0.1L148.2,101.1
		L148.2,101.1z M147,101.8L147,101.8l0-0.1l-0.1,0l-0.2,0l0,0l0,0.1l0.1,0.2l0,0L147,101.8L147,101.8L147,101.8z M147.8,101.6
		l-0.1,0.1l0,0l0,0.1l0,0L147.8,101.6L147.8,101.6L147.8,101.6L147.8,101.6L147.8,101.6z M147.2,102.6l-0.2,0l0,0l0,0l0,0l0.3,0.2
		l0-0.1l0-0.1L147.2,102.6L147.2,102.6L147.2,102.6L147.2,102.6z M146.4,104.1L146.4,104.1L146.4,104.1L146.4,104.1z M145.7,106.6
		L145.7,106.6l-0.1,0.2l0,0.1l0,0.1l0.1,0l0,0l0,0l0,0l0.1-0.1l0,0l0,0l0,0L145.7,106.6L145.7,106.6z M144.9,109L144.9,109l-0.1,0
		l-0.1,0l0,0l0,0.1l0,0L144.9,109L144.9,109L144.9,109z M144.7,109.1L144.7,109.1L144.7,109.1L144.7,109.1L144.7,109.1L144.7,109.1
		L144.7,109.1L144.7,109.1z M145,111.2L145,111.2L145,111.2L145,111.2L145,111.2L145,111.2l0-0.1l-0.1,0L145,111.2L145,111.2
		L145,111.2z M144,112.5L144,112.5l-0.1-0.1l0,0l0,0l0,0l0,0l0,0.1l0,0h0l0.1,0L144,112.5L144,112.5L144,112.5L144,112.5z
		 M144.5,112.6l-0.2,0l-0.1,0l0,0.1l0,0.1l0,0.1l0,0l0,0l0,0l0,0l0,0l0,0l0,0l0,0l0.2,0l0,0l0-0.1L144.5,112.6L144.5,112.6z
		 M144,116.1L144,116.1L144,116.1L144,116.1l0.1-0.1l0,0l0,0l0,0l0,0l0,0l0,0L144,116.1L144,116.1L144,116.1z M143.7,117.1
		L143.7,117.1L143.7,117.1l0-0.1l0,0l0,0l0,0l0,0l0,0.1l0,0.1l0,0l0,0L143.7,117.1L143.7,117.1L143.7,117.1L143.7,117.1L143.7,117.1
		L143.7,117.1z M144,119.2L144,119.2L144,119.2L144,119.2l0.1,0.1h0l0.1,0l0,0l0,0l-0.1,0l0,0l0,0L144,119.2L144,119.2L144,119.2
		L144,119.2z M148.6,121.6L148.6,121.6L148.6,121.6l0-0.1l0,0l0,0l0,0l-0.1,0l-0.1,0l0,0l0,0L148.6,121.6L148.6,121.6z M149.6,123.7
		L149.6,123.7l-0.1-0.1l0,0l0,0l0,0.1l0,0l0.1,0L149.6,123.7L149.6,123.7L149.6,123.7L149.6,123.7z M149.2,124.2L149.2,124.2
		l-0.2-0.1l-0.2,0l0.1,0.2l0.2,0.1l0.1,0l0,0L149.2,124.2L149.2,124.2L149.2,124.2L149.2,124.2z M149.3,124.1L149.3,124.1
		L149.3,124.1L149.3,124.1L149.3,124.1L149.3,124.1L149.3,124.1l0,0.1l0,0l0,0l0,0l0,0l0,0l0,0l0.1,0l0-0.1l0,0L149.3,124.1
		L149.3,124.1z M151.7,127.1L151.7,127.1L151.7,127.1l-0.1,0.1l-0.1,0.1l0,0l0,0l0,0l0,0l0,0l0.1-0.1l0,0L151.7,127.1L151.7,127.1
		L151.7,127.1z M151.4,127.7L151.4,127.7L151.4,127.7L151.4,127.7L151.4,127.7l0.1,0l0,0l0,0L151.4,127.7L151.4,127.7z M151.8,127.8
		L151.8,127.8L151.8,127.8L151.8,127.8L151.8,127.8l0.1,0.1L151.8,127.8l0.1,0l0,0l0,0l0,0L151.8,127.8L151.8,127.8L151.8,127.8
		L151.8,127.8z M151.7,128l-0.1,0l0,0l0,0v0l0,0.1l0.1,0L151.7,128L151.7,128L151.7,128L151.7,128z M150.6,128.6L150.6,128.6l-0.2,0
		l0,0.1l0,0l0,0l0.1,0l0.1,0h0l0,0L150.6,128.6L150.6,128.6L150.6,128.6L150.6,128.6L150.6,128.6L150.6,128.6L150.6,128.6
		L150.6,128.6z M151.9,128.7L151.9,128.7L151.9,128.7L151.9,128.7L151.9,128.7L151.9,128.7L151.9,128.7L151.9,128.7L151.9,128.7
		L151.9,128.7L151.9,128.7L151.9,128.7z M151.7,129.4L151.7,129.4L151.7,129.4l0.1,0l0,0l0,0l0,0l0,0l0,0l0,0L151.7,129.4
		L151.7,129.4z M151.2,129.5L151.2,129.5l0.1,0.1l0,0l0.1-0.1l0,0l0,0l0,0l0,0L151.2,129.5L151.2,129.5z M150,130.3L150,130.3
		L150,130.3l-0.1,0l0,0L150,130.3l0.4,0l0,0l0,0l0,0l-0.1,0l0,0l0,0l0,0l0,0l0,0L150,130.3L150,130.3z M150,130.4L150,130.4
		L150,130.4l-0.1,0l0,0l0,0l0,0l-0.1,0l-0.1,0.1l0,0.1l0,0l0.1,0l0,0l0,0l0,0l0.1,0l0,0L150,130.4l-0.1,0.1l0,0L150,130.4L150,130.4
		z M148.2,130.7L148.2,130.7l0.2-0.1l0-0.1l-0.1-0.1l-0.1,0l0,0l0,0l0,0L148.2,130.7L148.2,130.7L148.2,130.7L148.2,130.7z
		 M151.2,130.8L151.2,130.8L151.2,130.8L151.2,130.8L151.2,130.8z M148.6,130.9L148.6,130.9L148.6,130.9L148.6,130.9L148.6,130.9
		l-0.1-0.1l0,0l0,0.2L148.6,130.9l0.1,0.1l0,0L148.6,130.9L148.6,130.9L148.6,130.9z M150.9,130.9L150.9,130.9L150.9,130.9
		L150.9,130.9L150.9,130.9l0-0.1l0,0l0,0l0,0l0,0l0,0.1L150.9,130.9L150.9,130.9L150.9,130.9z M150.7,131.3L150.7,131.3L150.7,131.3
		L150.7,131.3L150.7,131.3L150.7,131.3L150.7,131.3L150.7,131.3l-0.1-0.1l0,0.1l0,0.1l0,0.1l0,0l0,0l0,0l0.1,0L150.7,131.3
		L150.7,131.3L150.7,131.3L150.7,131.3L150.7,131.3z M150.6,131.7L150.6,131.7L150.6,131.7L150.6,131.7L150.6,131.7L150.6,131.7
		L150.6,131.7L150.6,131.7z M150.8,131.9L150.8,131.9L150.8,131.9L150.8,131.9l0-0.1l0,0l0,0l0,0l-0.1,0l0,0L150.8,131.9
		L150.8,131.9z M149.5,132.8L149.5,132.8L149.5,132.8l0.1-0.1l0,0l0,0l0,0l0,0L149.5,132.8z M149.2,133.7L149.2,133.7L149.2,133.7
		L149.2,133.7L149.2,133.7L149.2,133.7L149.2,133.7l-0.1,0l0,0l0,0.2l0.1,0l0,0l0-0.1l0-0.1L149.2,133.7L149.2,133.7z M147,134.4
		l-0.1,0.2l0,0.1l0,0l0,0l0,0l0,0l0,0l0-0.1l0,0l0,0l0,0L147,134.4L147,134.4L147,134.4L147,134.4L147,134.4L147,134.4L147,134.4
		L147,134.4z M147.8,134.6L147.8,134.6L147.8,134.6L147.8,134.6L147.8,134.6l-0.2,0l0,0l0,0v0l0,0.1l0,0l0,0l0,0.1l0,0l0,0l0,0l0,0
		L147.8,134.6L147.8,134.6z M117.8,135.1L117.8,135.1L117.8,135.1L117.8,135.1L117.8,135.1l0-0.1l0,0l-0.1,0l0,0l0,0l0,0l0-0.1l0,0
		l0,0l0,0l0,0l0,0l0,0l0,0l0,0l0,0l0,0.1l0,0l0,0l0,0l0,0l0,0l0,0.1l0,0l0,0l0,0l0,0l0,0l0,0l0,0l0,0l0,0l0.1,0l0,0l0,0l0,0l0,0l0,0
		l0,0L117.8,135.1L117.8,135.1L117.8,135.1L117.8,135.1z M146.3,135.6l0-0.1l0-0.1l0,0l-0.1,0l0,0l0-0.1l0.1-0.1l0-0.1l0,0l0,0l0,0
		l0,0.1l0,0l0,0l0,0.1l0,0.1l0,0.1l0,0l0,0l0,0l0,0l0,0.1l0,0.1l0,0.1l-0.1,0l0,0l0,0l0.2,0l0,0l0,0l0-0.1l0,0l0,0l0,0L146.3,135.6
		L146.3,135.6L146.3,135.6z M147.3,135.4L147.3,135.4L147.3,135.4L147.3,135.4l0.1-0.1l0,0l0-0.1l0-0.1l0,0l0,0l-0.1,0.1
		L147.3,135.4L147.3,135.4L147.3,135.4L147.3,135.4L147.3,135.4L147.3,135.4z M145.5,135.6l-0.3-0.2l0,0l0,0l0,0.1l0.2,0.1
		L145.5,135.6l0.1,0.2l0,0l0-0.1L145.5,135.6z M144.7,136.1L144.7,136.1L144.7,136.1L144.7,136.1l0,0.1L144.7,136.1L144.7,136.1
		l-0.1,0l0,0l0,0l0,0.1l0.1,0l0,0l0,0l0,0l0,0l0,0l0,0l0,0.1l0,0l0,0l0,0l0.1-0.2l0,0l0.1,0L144.7,136.1L144.7,136.1z M144.7,136.4
		L144.7,136.4L144.7,136.4l0,0.2l0,0l0.1-0.1L144.7,136.4L144.7,136.4z M142.5,138.1L142.5,138.1L142.5,138.1l-0.1-0.1l-0.1,0h0l0,0
		l0,0l0.1,0.1L142.5,138.1L142.5,138.1L142.5,138.1L142.5,138.1L142.5,138.1z M142.6,138.3L142.6,138.3L142.6,138.3L142.6,138.3
		L142.6,138.3l0.1-0.1l0,0l-0.1,0l0,0L142.6,138.3L142.6,138.3L142.6,138.3z M142,141.3L142,141.3L142,141.3L142,141.3l-0.1,0l0,0.1
		l0.1,0.1l0.1,0l0.1,0L142,141.3L142,141.3L142,141.3l0,0.1L142,141.3L142,141.3L142,141.3L142,141.3L142,141.3L142,141.3z
		 M120.2,143.2L120.2,143.2L120.2,143.2L120.2,143.2L120.2,143.2l0.1-0.1l0,0l0,0l0,0l-0.1,0l-0.1,0l-0.1,0.1l0,0l0,0l0.1,0.1l0.1,0
		l0,0l0,0l-0.1,0l0,0l0,0l0,0l0,0l0,0v0l0,0l0,0l0.1,0l0,0l0,0l0,0l0,0l0,0l0,0l0,0L120.2,143.2L120.2,143.2L120.2,143.2
		L120.2,143.2z M141.4,143.4L141.4,143.4L141.4,143.4L141.4,143.4L141.4,143.4l0.1,0.1l0,0.1l0,0l0,0l0,0l0,0l0.1,0l0,0l0,0l0,0l0,0
		l0,0l0,0l0,0l0,0v0l0,0v0l0,0l-0.1,0l-0.1-0.1l-0.1,0l0,0L141.4,143.4L141.4,143.4L141.4,143.4z M141.3,143.7L141.3,143.7
		L141.3,143.7l0.1,0.1l0,0l0.1,0.1l0,0l0,0l0,0l0,0l0,0l0,0l0,0l0,0L141.3,143.7L141.3,143.7z M120.4,144.6L120.4,144.6L120.4,144.6
		L120.4,144.6L120.4,144.6L120.4,144.6l0-0.1l0,0l0,0l0-0.1l-0.1-0.1l0,0.1l0,0l0,0l0,0l0,0l0,0v0l-0.1,0l0,0l0,0l0,0l0,0l0,0l0,0
		l0,0.1l0,0L120.4,144.6L120.4,144.6L120.4,144.6L120.4,144.6L120.4,144.6L120.4,144.6z M141.4,145.1L141.4,145.1l0,0.1l0,0l-0.1,0
		l0,0l0,0l0,0l0,0l0,0.1l0,0l0,0l0,0l0,0l0,0l0,0l0,0l0,0l0,0l0,0l0,0l0.1-0.2l0-0.1l0-0.1L141.4,145.1L141.4,145.1z M140.8,148.6
		L140.8,148.6L140.8,148.6L140.8,148.6L140.8,148.6l-0.1,0.1l0,0l0,0l0,0l0.1-0.1L140.8,148.6L140.8,148.6L140.8,148.6L140.8,148.6z
		 M137.6,156.6L137.6,156.6L137.6,156.6L137.6,156.6l-0.1,0l0,0l0,0l0,0l0,0l0.1,0.1l0,0l0,0l0,0l0,0L137.6,156.6L137.6,156.6
		L137.6,156.6L137.6,156.6z M137,156.6L137,156.6L137,156.6L137,156.6L137,156.6L137,156.6l-0.2,0.1l0,0l0,0l0,0l0.1,0l0,0l0,0
		L137,156.6L137,156.6L137,156.6L137,156.6z M136.6,156.6L136.6,156.6L136.6,156.6l-0.1,0.1l0,0l0,0l0,0l0.1,0l0,0l0-0.1l0-0.1
		L136.6,156.6z M136.3,156.6L136.3,156.6l-0.1,0l0,0.1l0,0l0,0l0,0l0,0l0.1,0l0,0l0,0l0,0l0-0.1L136.3,156.6L136.3,156.6
		L136.3,156.6L136.3,156.6z M124.7,158.2L124.7,158.2l-0.1,0l0,0l0.1,0.2l0,0l0-0.1L124.7,158.2L124.7,158.2z M152,139.4l0.2,0.1
		l0.2-0.1l0.2-0.1l-0.1-0.1l-0.2-0.1L152,139h-0.1L152,139.4z M148.7,132.1l0.2,0.1l0.2,0.2l0.1,0l0.1-0.2l-0.2,0l-0.1-0.1l0-0.2
		l0.1,0.1l0.1,0l0.2,0l-0.4-0.2l-0.3-0.1l-0.5,0l0.2,0.1l0.1,0.1l0,0L148.7,132.1L148.7,132.1z M159.1,92.3l-0.1-0.2l-0.2,0
		l-0.1,0.3l0.1,0l0,0l0,0l0,0.1l0,0.1L159.1,92.3z M148.5,122.6l0.1,0.2l0.2,0.1l0.2,0.3l0.2,0.1l0,0l0-0.1l0,0l0,0l0,0l0,0
		l-0.1-0.1l0-0.1l0-0.1l-0.1,0.1l-0.1,0l0-0.1l0-0.1l-0.2-0.4l0-0.1l0.1,0l0.1,0.1l0.1,0l0-0.1l-0.1-0.1l-0.1-0.1l0-0.1l0,0l0,0v0
		l0,0l0-0.1l0,0l-0.1,0l0,0l0,0.1l0.1,0.2l0,0.1l0,0.4L148.5,122.6z M167,73.1l0-0.2l-0.2-0.2l0,0l0,0.2l0,0.1l0,0.1l0,0.1l0,0.1
		l0,0.1l0.1,0.1l0.2,0l0-0.1L167,73.1z M171.1,73.3L171.1,73.3l0-0.1l0,0l0,0l0-0.1l0-0.1l0-0.1l0,0l0,0l0,0.1l0,0l0,0l0,0l0,0.1
		l0,0l0,0l-0.1,0l0-0.1l0,0l0,0.1l0,0l0,0l0-0.1l0,0.1l0,0.2l0.1,0.1l0.2,0.1L171.1,73.3z M167.7,73.6L167.7,73.6l0-0.1l0,0l0,0
		l0-0.1l0-0.1l-0.1-0.1l-0.1-0.1l0,0l0.1,0l0-0.1l-0.1-0.1l-0.1,0l-0.1,0.1l0,0.2l0.1,0.2l0.1,0.2l0.1,0.1l0.1,0L167.7,73.6z
		 M166,74.4L166,74.4l0.1,0.1l0.1-0.1l0-0.1l-0.1,0L166,74.4L166,74.4z M165.9,74.7L165.9,74.7l0,0.1l0.1,0.1l0,0l0,0l0,0l0,0l0,0
		l0,0l0-0.1l0-0.1l0,0l0.1,0l0-0.1l-0.1,0l-0.2,0.1l-0.1,0L165.9,74.7L165.9,74.7L165.9,74.7z M164.9,75.6L164.9,75.6l-0.1-0.1l0,0
		l0,0l0-0.1l0,0l0.1,0l0.1,0l0.1,0.1l0,0.1l0,0l0.1,0l0-0.1l-0.1-0.1l0-0.1l0,0l0,0l0,0l-0.3-0.2l-0.1,0l-0.1,0l0,0l0,0.1l0.1,0.2
		L164.9,75.6L164.9,75.6L164.9,75.6L164.9,75.6z M166.2,75.3L166.2,75.3l0-0.1l-0.1,0l0,0l0,0l-0.1-0.1l0,0.1l0.1,0.1l0.1,0
		L166.2,75.3L166.2,75.3z M164.6,76.1L164.6,76.1l-0.1-0.1l0-0.1l0,0l0-0.1l-0.2-0.1h-0.1l0,0.1v0.1l0,0l0,0.1l0,0.1l0,0l0.2,0l0,0
		l0,0l0.1,0l0-0.1L164.6,76.1L164.6,76.1z M165.3,76.1L165.3,76.1l0.1-0.2l0-0.1l-0.1,0l-0.1,0l-0.1,0.1l-0.1,0.1l0,0l0-0.1l0,0l0,0
		l0,0.1l0,0.1l0,0L165.3,76.1L165.3,76.1z M159.1,92.4L159.1,92.4L159.1,92.4l-0.1,0.1l0,0.1l-0.1,0.5l0,0.1l0.1-0.1l0,0l0,0
		l0.1-0.1l0.1-0.1l0-0.1l0-0.1l0-0.1l0-0.1l0-0.1L159.1,92.4l0.1,0L159.1,92.4L159.1,92.4l0.1-0.1l0,0L159.1,92.4L159.1,92.4z
		 M158.9,93.3l-0.2,0.2l0,0.1l0.1,0l0.1-0.1l0-0.1V93.3L158.9,93.3L158.9,93.3z M147.4,102.3L147.4,102.3L147.4,102.3L147.4,102.3
		l0.1-0.2l0-0.1l0-0.1l0,0l-0.1,0l-0.1,0.1l0,0l0-0.1l-0.1,0l-0.1,0l-0.1,0.1l0,0.1l0,0.1l0,0.2l0.1,0.2l0.2,0l0.2-0.1l0-0.1
		L147.4,102.3L147.4,102.3L147.4,102.3L147.4,102.3z M149.9,124.3L149.9,124.3L149.9,124.3l0,0.1l0,0.1l0,0.1l0,0l0.1,0l0.1,0l0.1,0
		l0.1-0.1l0-0.1l0-0.1l0,0l0,0l0,0l0,0l0,0l0-0.1l0,0l0,0l0,0l0-0.1l0,0l-0.1,0l-0.1,0l0,0L149.9,124.3L149.9,124.3L149.9,124.3z
		 M151.1,127.4l0-0.1l0-0.1l0-0.1l0,0l0,0l0,0l0,0.1l-0.2,0.3l0,0.1l0,0.1l0.1,0l0,0l0,0l0,0l0,0l0.1,0l0.1,0l0.1,0l0,0l0,0l0,0l0,0
		l0,0l0,0l0,0l0,0L151.1,127.4z M150.3,129.2l-0.1,0.1l-0.1,0.1l-0.1,0l0,0l0.1,0l0.1,0l0.1-0.1l0,0l0,0l0,0l0,0L150.3,129.2l0.2,0
		l0,0l0.2-0.3l0.1-0.1l0-0.1l-0.3,0.2L150.3,129.2L150.3,129.2z M151,129L151,129L151,129L151,129l-0.1-0.2l-0.1,0l-0.1,0l-0.3,0.4
		l0,0.1l0,0.1l0.1,0l0,0l0,0l0-0.1l0.1-0.3l0,0l0.1,0L151,129L151,129L151,129L151,129z M149.5,130.2L149.5,130.2L149.5,130.2
		l0.1-0.1l0,0l0.1-0.1l0.2-0.1l0,0l-0.2,0.1l0,0l0,0l0,0l0,0l-0.1,0l-0.1,0l-0.1,0l-0.1,0.1l-0.1,0.1l-0.1,0.1l0,0.1l0,0.1l0,0l0,0
		l0,0l0,0l0,0l0,0l0,0l0,0l0,0l0,0l0,0l0,0l0,0l0-0.1l0,0l-0.1,0l0,0l0,0.1l0,0l0,0l0,0.1l0,0.1l0,0.1l0,0.1l0,0.1l0,0l0,0l0,0l0,0
		l0,0l0-0.3l0,0.1l0,0l0,0l0-0.1l0-0.2L149.5,130.2L149.5,130.2L149.5,130.2L149.5,130.2L149.5,130.2z M150.8,130.6L150.8,130.6
		L150.8,130.6l-0.1-0.1l-0.1,0l-0.1,0l-0.1,0.1l0,0.1l0.1,0l0.1-0.1L150.8,130.6z M150.4,130.9L150.4,130.9L150.4,130.9L150.4,130.9
		L150.4,130.9L150.4,130.9L150.4,130.9L150.4,130.9z M150.9,131.1L150.9,131.1l0-0.1l0,0l-0.1-0.1l-0.1,0l0,0l0,0.1l0,0l0,0l0.1,0.1
		L150.9,131.1L150.9,131.1z M147.9,131.2L147.9,131.2L147.9,131.2l-0.5-0.2l-0.1,0l0,0.1l0,0l0,0.1l0,0.1l0.1,0.1l0.1,0.1l0.1,0
		l0.1,0l0-0.1L147.9,131.2l-0.1,0L147.9,131.2L147.9,131.2z M149.6,131.3L149.6,131.3l0.1,0.1l0,0.1l0,0.1l0,0l0,0l0,0l0,0.1l0,0
		l0,0l0.2-0.1l0.1-0.1l0-0.1l0-0.1l0,0l0,0l0,0l-0.1-0.1l0,0l0,0l0,0l0,0l-0.2,0l0,0L149.6,131.3L149.6,131.3z M150.2,131.9
		L150.2,131.9L150.2,131.9l0.1-0.1l0,0l0,0l0,0l-0.1,0l-0.1,0l-0.1,0.1l-0.1,0.1l0,0.1l0,0l0,0l0,0l0,0l0,0l0,0l0,0l0,0l0,0l0,0
		L150.2,131.9z M150,132.5l-0.1,0l0,0l-0.1,0l-0.1,0.1l0,0.1l0,0.1l0,0L150,132.5L150,132.5L150,132.5z M148.3,133.9L148.3,133.9
		L148.3,133.9l0,0.2l0,0.1l0,0l0,0l0,0h0l0,0l0,0l0,0l0,0l0,0l0,0l0-0.1l0,0l0-0.1l0.1-0.1l0.1-0.2l0,0l0,0l0,0l0,0l0-0.1l0-0.1
		l-0.1,0l-0.1,0l-0.1,0.1l-0.1,0.1l-0.2,0.1l0,0l0,0l0,0.1l0,0l0,0l0,0l0,0L148.3,133.9L148.3,133.9L148.3,133.9L148.3,133.9z
		 M145.4,134.2l0,0.1l0,0.1l0,0.1l0,0l0,0.1l0,0.1l0,0.1l0,0l0,0l0.1,0.2l0,0l0-0.1l0-0.1l0,0l0,0l0-0.1l0-0.1l0-0.1l0-0.1l0-0.1
		l0-0.1l0-0.1l0-0.1l0-0.1l0-0.1l0-0.1l0-0.1l0,0l0,0l0,0l0-0.1l0,0l0,0.1l0,0.2l0,0.1l0,0L145.4,134.2L145.4,134.2z M147.3,134.3
		L147.3,134.3l0.1,0.1l0.1,0l0-0.1l0-0.1l0-0.1l0-0.1l0,0l0,0.1l0,0l0,0l0,0l0,0l0,0l0-0.1l0,0l0,0l0,0l0,0l0.2-0.1l0,0l-0.2,0
		l-0.1,0l-0.1,0l-0.1,0l0,0l0,0.1l0,0.1l0,0l0,0l0,0l0,0l0,0.1l0,0l0,0l0,0l0.1,0L147.3,134.3L147.3,134.3L147.3,134.3z
		 M148.2,134.4L148.2,134.4L148.2,134.4l-0.1,0l-0.1,0l-0.1,0.1l-0.1,0.1l-0.1,0.1l0,0.1l0,0l0,0l0,0l0.1-0.1l0.1,0l0.1,0l0.1,0l0,0
		l-0.1,0l0-0.1l0,0l0,0l0,0l0,0l0.1-0.1l0.1-0.1l0-0.1l0,0L148.2,134.4L148.2,134.4z M141.9,139.4L141.9,139.4l0,0.1l0.1,0.1
		l0.1,0.1l0.1,0l0.1,0l0.1,0l0,0l0,0l0,0l0,0l0,0l0,0l-0.1,0l-0.1,0l-0.1-0.1l-0.1-0.1L141.9,139.4l0.1-0.1h0l0,0l-0.1-0.1l0,0l0,0
		l0-0.1l0,0l0,0l0,0l-0.1,0l0,0l0,0l-0.1,0l0,0l-0.1,0l0,0.1l0,0.1L141.9,139.4L141.9,139.4L141.9,139.4z M142.1,139.7L142.1,139.7
		l0,0.2l0,0.1l0,0l0.1,0l0-0.1l0-0.1l0-0.1L142.1,139.7L142.1,139.7z M137.3,156.7L137.3,156.7L137.3,156.7l-0.1,0l0,0l-0.1,0
		l-0.1,0.1l0,0.1l0.1,0.1l0,0l0,0l0,0l0,0l0-0.1l0-0.1L137.3,156.7L137.3,156.7L137.3,156.7L137.3,156.7L137.3,156.7L137.3,156.7z
		 M119.9,142.6L119.9,142.6L119.9,142.6l0.1,0.1l0,0l0-0.1l0,0l0.1,0l0,0l0-0.1l0-0.2l0-0.1l0.1-0.1l0.1,0l0,0.1l0,0.1l0,0l0.1,0
		l0,0l0-0.2l0,0l0,0l0-0.1l-0.1,0l-0.1,0l-0.1,0.1l-0.1,0h-0.4l-0.2,0l-0.1,0l0,0.1l0,0.1l0.1,0h0.1l0.1,0l-0.1,0l-0.1,0l0,0l0,0.1
		l0,0.1l0,0.1l0,0.1l0,0.1l0,0L119.9,142.6L119.9,142.6z M119.7,141.5L119.7,141.5L119.7,141.5l0.1-0.2l0.1-0.1l0.1,0l0.1,0l0.1,0.1
		l0.1-0.1l0.2,0.1l0.2-0.2l0.1,0l0.1,0l0-0.1l0-0.4l0-0.2l0-0.2l-0.1-0.1l-0.1-0.1l-0.1-0.1l0-0.2l-0.1,0l-0.1,0l-0.1,0l0,0l0,0.1
		l0,0l0,0.1l0,0.1l0,0.1l-0.1,0l-0.1,0l-0.1,0l-0.1,0l-0.1,0.1l-0.1,0.1l-0.4,0.4l-0.1,0.1l0,0.1l0,0.1l0.1,0.1l0,0.1l0,0.2h0v-0.3
		L119.7,141.5L119.7,141.5L119.7,141.5z M152.4,142.4l-0.1,0l-0.1,0l-0.1,0l0-0.1l-0.1,0.1l-0.1,0l-0.1,0l0,0l-0.1,0.1l-0.1,0
		l-0.1,0l0,0.1l0,0.1l0,0.1l0,0.1l-0.1,0.1l0,0.1l0,0.1l0.1,0.3l0.1,0.1l0.1,0.1l0.1,0l0.1,0l0,0l0.1-0.2l0-0.1l0-0.1l0,0l-0.1,0
		l0.1-0.1l0.2-0.1l0.1-0.1l0.1-0.1l0.2,0.1l0.1-0.1l0,0l0,0l0,0l0,0L152.4,142.4L152.4,142.4z M151.3,143.3L151.3,143.3l-0.1-0.1
		l0-0.1l0-0.1l0-0.1l0,0l-0.1,0l-0.1,0l-0.1,0l-0.1,0l0,0.1l-0.1,0l-0.1-0.1l0.1-0.1v0l-0.3,0l-0.1,0l0,0.1l0,0.1l0,0l0,0.1
		l-0.1,0.1l-0.1,0.1l0,0.2l-0.1-0.1l0-0.1l0-0.1l0,0l0,0l0,0l0,0l0,0l0,0l0,0l0,0l-0.1-0.1l-0.1-0.1l-0.1,0l-0.1,0l-0.1,0.1
		l-0.1,0.1l-0.1,0.1l-0.1,0.1l0,0.1l0,0.1l0,0.1l-0.1,0l-0.1,0l-0.1,0l-0.1,0l-0.2,0.1l-0.2,0.2l-0.6,1l-0.7,0.7l-0.1,0.2l-0.1,0.3
		l0,0.2l0,0.2l0,0.2l0,0.1l0,0l0,0.1l0,0l0,0.1l0,0l0,0l0,0l0,0l-0.1,0.1l0,0.1l0,0.2l-0.1,0.1l-0.2,0.1l-0.1,0.1l0,0.1l0.3,0.2
		l0.1,0.7l0.2,0.1l0,0l0,0.1l0,0l0.1,0l0,0.1l0,0.1l-0.1,0.1v0.1l0.1,0l0.1-0.1l0.1-0.1l0.1-0.1l0,0.1l0,0.2l0,0.1l-0.1,0.1
		l-0.2,0.1l-0.1,0.1l0,0.1l0,0.1l0,0.1l-0.3,0.5l0.1,0.1l0.1,0l0.4-0.2l0.1,0l0-0.2l0-0.1l0.1-0.1l-0.1-0.1v-0.1h0.2l-0.1-0.1
		l-0.1-0.1l0-0.1l0-0.4l0.1-0.1l0.3-0.2l0.1-0.1h-0.3l0.1-0.1l0.1-0.1l0.5-0.3l0.1,0v0h-0.1v-0.1l0.1-0.1l0.4-0.1l0,0l0.1-0.1l0-0.2
		l0,0l-0.1,0l0,0l0-0.1l0.1-0.1l0.2-0.1l0.1-0.1l0.1-0.1l0.1-0.1l0.1,0l0,0l0.1-0.1l0,0l0,0l0,0l0,0h0.1l0.1,0l0-0.1l0-0.1l0-0.1
		l0-0.1l0,0l-0.1-0.1l-0.1,0l0,0l0,0l0,0l-0.2,0l-0.2-0.1l0-0.1l0,0l-0.1,0l-0.1,0l0-0.1l0-0.1l-0.1-0.1l0-0.1l0.1-0.1l0-0.1l0-0.1
		l0-0.1l0-0.1l0-0.1l-0.2-0.1l0,0l0-0.1l0-0.1l0,0l0-0.1l0.1-0.2l0.1-0.3l0-0.1l0-0.1l0-0.1l0.1,0l0,0l0.1,0.1l0.1,0l0.2,0l0.2,0
		l0-0.1v-0.1l0-0.1l0-0.1l0-0.1l0,0l0.1,0l0,0.1l0-0.3l0.1-0.1l0.3,0l0-0.1L151.3,143.3z M143.2,147.4L143.2,147.4L143.2,147.4
		L143.2,147.4l-0.1-0.1l0,0l0,0h0l0,0.1l0,0l0,0l0-0.1l0,0l-0.1,0l-0.1,0.1l-0.1,0.2l-0.1,0.1l0,0.1l0,0.4l0,0.1l-0.1,0.1l-0.1,0
		l0,0l0,0.1l-0.1,0.6l-0.2,0.5l-0.2,0.4l-0.2,0.5l-0.1,0.3l-0.1,0.1l-0.1,0l-0.1,0l-0.1,0l-0.1,0.1l-0.7,1.8l0,0.2l0,0.1l-0.1,0.2
		l-0.1,0.2l0,0.1l0,0.7l0,0.1l0,0.1l0,0.1l0,0.1l0,0.3l0,0.2l0,0.2l0.1,0.2l0,0.1l0,0.2l0,0.1l0.1,0.1l0.1,0l0.1-0.1l0.1-0.1
		l0.2-0.5l0-0.1l0-0.1l0.1-0.1l0-0.1l0-0.2l0-0.1l0-0.1l0-0.2l0.1-0.2l0.1-0.1l0-0.1l0-0.1l0-0.1l0,0l0-0.1l0,0l0,0l0,0l0,0l0-0.2
		l0-0.1l0.1,0l0,0l0-0.1l0-0.1l0-0.1l0-0.2l0-0.1l0.2-0.8l0-0.2l0-0.1l0-0.1l0-0.1l0-0.1l0,0l0.2-0.1l0,0l0-0.1l0.1-0.4l0-0.1
		l0.1-0.1l0-0.1l0-0.2l0-0.1l0.1-0.2l0.1-0.1l0.1-0.1l0,0l0,0l0,0l0-0.1l0.1-0.1l0.1,0l0.1-0.1l0-0.2l0-0.1l0.2-0.3l0-0.1l0-0.1
		l0-0.1l0,0l0.1,0l0,0l0,0l0-0.1l0.1-0.2l0-0.1l-0.1-0.2l0.1-0.3l0.1-0.1L143.2,147.4L143.2,147.4L143.2,147.4z M172,72.5l0.2,0
		l0.1-0.1l0,0l0,0l0,0l0-0.1l0.3,0.1l0.1,0l0.1-0.2l0-0.2l-0.2-0.3l-0.1-0.4l-0.1-0.2l-0.1-0.2l0-0.2l0-0.2l-0.1-0.5l0-0.1l0-0.1
		l-0.1-0.1l0-0.1l0-0.1l-0.2-0.7l-0.1-0.1l-0.4-0.2l-0.1-0.1l-0.1-0.2l-0.1-0.5l0-0.3l-0.1-0.2l0-0.1l0-0.1l0-0.1l0-0.1l0-0.1l0-0.2
		l0-0.1l0-0.1l-0.1-0.2l0-0.1l0-0.2l0.1-0.2l0.1-0.1l0.1,0v-0.2L171,65l0.1-0.1l0.1-0.1l0-0.1l0.2-0.2l0.1-0.1l0-0.2l0-0.2l0-0.2
		l0-0.2l0-0.2l0-0.2l0-0.2l0-0.2l0-0.4l0-0.1l0.1-0.2l0.1-0.2l0.1,0l0.1,0l0.1,0l0-0.1l0-0.1l-0.2-0.5l-0.1-0.3l-0.1-0.2l-0.2-0.2
		l-0.2-0.5l-0.1-0.1l-0.1-0.1l-0.1-0.1l-0.1-0.2l-0.2-0.4l0-0.1l0-0.1l0-0.1l0-0.1l0-0.1l0-0.1l0,0l-0.1-0.2l-0.1-0.1l-0.1-0.1
		l0-0.2l0.1-0.1l0-0.1l0-0.1l0-0.1l-0.1,0l0-0.1l0-0.2l0-0.2l0.1-0.1l0.5-0.2l0.1-0.2l0.1-0.3l-0.1-0.1l0-0.3l0-0.3l0-0.2l-0.1-0.1
		l-0.1,0l-0.3-0.1l-0.3-0.2l-0.2,0l-0.2,0.1l-0.2,0l-0.1-0.2l-0.1-0.3l0.1-0.2l0.1-0.2l0.1-0.2l0-0.1l0.1-0.1l0.2-0.1l0.1-0.1l0-0.3
		l0-0.2l-0.1-0.3l0-0.2l0-0.4l0-0.2l0-0.1l0-0.7l0-0.2l0-0.3l0-0.3l0.1-0.2l0.1-0.1l0.3-0.1l0.1-0.1l0.1-0.2l0-0.2l-0.1-0.1
		l-0.3-0.1l-0.4-0.5l-0.1-0.1l-0.3-0.3l0-0.1l0-0.1l-0.2-0.7l0-0.1l-0.1-0.1l-0.1,0l-0.4,0.3l-0.1,0l0-0.1l0,0l0,0l0-0.1l0-0.1
		l0-0.1l0-0.3l0-0.1l0-0.1l0-0.3l-0.1-0.2l-0.2-0.2l-0.1-0.1l0-0.1l0-0.1l0-0.1l-0.1-0.1l-0.6-0.4l-0.1-0.2l-0.2-0.4l-0.1-0.1
		l-0.3,0.1l-0.1-0.2l-0.1-0.2l-0.1-0.1l-0.1,0l-0.1,0l-0.1,0L166,44l-0.2,0l-0.3-0.2l-0.3,0l0,0l0-0.1l0,0l-0.3-0.1l-1,0l-0.1-0.1
		l0-0.1l0-0.1l0-0.1l0,0l0,0l-0.1-0.1l-0.1-0.1l-0.1-0.2l0-0.1l-0.2-0.2l-0.8-0.2l-0.1-0.4l-0.2-0.2l-0.4-0.4l-0.3-0.1l-0.1-0.1
		l-0.1-0.1l-0.1-0.4l0-0.1l0-0.1l-0.1-0.1l-0.3,0l0,0l0,0l0-0.1l0,0l-0.1-0.1l-0.2-0.5l-0.3-0.3l-0.3-0.3l-0.7-0.3l-0.1-0.1l0-0.2
		l0.1-0.1l0.1-0.2l0-0.2l-0.1-0.2l-0.2-0.1l-0.3-0.3l-0.5-0.1l-0.2-0.2l-2.2,0.2l1,1.3l0,0.2l0,1l0,0.2l-0.1,0.2l-0.4,1.2l-0.4,0.6
		l-0.8,0.8l1.2,0.7l-1,1.3l-0.2,0.1l-0.2,0l-1.9-0.8l-1.9-0.9l-1.4,0.1l-0.2-0.1l-0.7-0.7l-0.2-0.1l-1.1,0.4l0,0.1l0,0.1l-0.1,1.1
		l0,0.3l0.2,2.2l-0.1,0.5l-0.8,1.6l-0.1,0.3l-0.1,0.2l-0.1,0l-2.4-1.5l-0.1,0.1l-0.3,0.6l-1.7,1.4l-0.1,0.2l-0.1,0.2l-0.6,2.5
		l-0.1,0.2l-0.4,0.7l-0.2,0.3l-0.3,0.1l-0.7,0.1l-0.1,0.1l-0.2,0.8l1.3,2.4l0,0.2l-0.1,1.4l-0.1,0.2l-0.1,0.1l-0.2,0.2l-0.8,0.8
		l-0.4,0.5l-1.5,3.1l-1,1.1l0,0.3l0.2,1.3l0,0.3l0,0.2l0,0.1l-1.8,1.3l-2.1,0.3l0.4,2.9l0,0.4l0,0.2l-0.3,0.7l0,0.2l-0.2,2.4l0,0.5
		l0,0.5l0,0.5l-0.1,0.3l-0.3,0.3l-0.1,0.2l-0.1,0.2l-0.1,0.9l-0.1,0.4l-0.6,0.9l0,0l-2.2,4l1.2,0.9l0.2,0.1l0.3,0.1l0.2,0.1l0.1,0.2
		l0.2,2.3l0,0.2l-0.1,0.2l-0.7,1.4l-0.1,0.1h-0.1l-3-0.8l-1.1,0.3l-1,0.6l-0.3,0.3l-0.8,1.4l-0.8,1.4l-0.5,0.6l0.2,1l0,0.2l-0.1,0.2
		l-0.9,1.5l1,2.7l-0.5,0.7l0,0.1l0,0.2l0.2,1.4l0,0.2l-0.1,0.3l-0.1,0.4l-0.1,0.3l0,0.2l0.8,2.3l0.1,0.4l0,0.5l-0.7,4.5l0.1,0.1
		l0.5,0.5l0.2,0.2l0.3,0.4l0.1,0.1l0.2,0l0.3,0l0.1,0.1l0.1,0.1l1.1,1.5l0,0.1l0,0.1l-0.1,0.8l-0.1,0.2l-0.1,0.2l-0.3,0.5l0,0.1
		l0,0.1l-0.1,0.6l0,0.1l-0.1,0l-0.5-0.1l-0.2,0l-1,0.3l-0.1,0.1l0,0.2l0.2,0.4l0.1,0.3l0.1,0.6l0.1,0.3l0.1,0.3l0.4,0.8l0.5,1.2
		l0.1,0.2l0,0.3l0,0.3l0,0.2l-0.1,0.2l-0.1,0.1l-0.2,0.3l-0.1,0.1l0,0.1l0,0.3l0.1,0.5l0,0.3l-0.1,0.4l-0.1,0.3l-0.2,0.3l-0.7,0.8
		l-0.6,0.5l-0.2,0l-0.7-0.1l-0.2,0.1l-0.2,0.2l0,0.3l0,0.1l0.1,0.2l0.1,0.1l0,0.1l0,0.3v0.2l0,0.1l-0.2,0.3l-0.1,0.1l-0.6,0.3
		l-0.1,0.1l0,0.2l0,0.2l0.4,1.6l0.1,0.5l0,0.2v0.2l0,0.1l-0.1,0.1l0,0.1l-0.1,0.5l0,0.4l0,0.2l-0.1,0.4l0,0.2l0,0.2l-0.1,0.4
		l-0.2,0.2l-0.3,0.1l-0.3,0l-0.1-0.1l0-0.5l-0.1-0.2h0l-0.1-0.1l-0.1-0.1l-0.1-0.2l0-0.2l-0.1-0.2l-0.1-0.1l-0.4,0.1l-0.1,0.1
		l-0.3,0.4l0,0.1l0,0.1l0,0.1l0.1,0l0.2,0l-0.2,0.1l-0.1,0.1l0,0.1l0,0.1l0.1,0.1l0.2,0.1l0,0.1l0,0l0,0l0,0.1l0,0.1l0,0.2l0,0.1
		l0,0l0,0l0,0l0,0.3l0,0.1l0,0.1l0,0.1l0,0.1l0,0.1l-0.1,0l0,0.1l0,0.1l0,0.1l0.1,0l0,0l0,0.1l0,0.2l0.2,0.2l0,0.1v0.1l0,0.1l0,0.1
		l0,0.1l0,0l0,0l0,0.1h0.1l0,0.1l0,0l0,0l0,0.1l0,0.1l0,0.2l0,0l0,0l0,0l0,0l0,0l0,0.1l0,0l0,0l0.2,0.1l-0.1,0.1l-0.1,0.1l0,0.1
		l0,0.2l-0.1,0l-0.1,0l0,0.1l0.1,0.2l0,0.1l0,0.1l0,0.1l0,0.1l0,0.1l0.1-0.2l0.1,0l0.1,0l0.1-0.1l0,0l0-0.1l0,0l0,0l0.1-0.1l0.2-0.3
		l0-0.1l0,0.1l0,0.1l-0.1,0.2l-0.1,0.3l0,0.1l0,0l0.1,0l0-0.1l0-0.1l0-0.1l0-0.1l0.1,0l0,0.2l0.1,0.1l0,0.1l-0.1,0l-0.1,0l0,0.1
		l0,0.1l0,0.1l0,0l0.1-0.1l0.1,0v0.1l-0.1,0.1l-0.1,0.1l0,0.1l0,0.1l0.3-0.2l0.1-0.1l0.1-0.2l0.1-0.2l0-0.3l0-0.3l0-0.2h0l0,0.1
		l0.1,0.3l0,0.1l0.1-0.1l0.1-0.1l0.1,0l0.1,0.1l-0.1,0.1l-0.1,0.1l-0.1,0.1l0.1,0.1l-0.2,0.3l-0.1,0.2l-0.1,0.2l-0.1,0.2l0,0.2
		l0,0.1l0.1,0l0-0.1l0,0l0,0l0.1,0l0.1,0l0.1,0l0,0l0.1-0.1l0,0l0,0l0.2-0.2l0.1,0l0.1,0l0-0.1l0.1,0l0.2,0l0.2-0.1l0.1,0l0.1,0.1
		l-0.2,0.1l-0.1,0.1l0,0.2l0,0.1l0,0.1l0,0.1l0,0.2l0,0.1l0.1,0l0.1,0l0,0.1l0,0l0,0l-0.1,0l0,0l0,0.1l0,0.5l0,0.1l-0.1,0l0,0.1l0,0
		l0,0l-0.1,0.1l0,0.1l0,0.1l0,0.1l0,0.1l0,0.1l-0.1,0.2l-0.2,0.3l0,0.1l0.1,0.1l0,0.1l0,0l0,0v0.1h0.1v0l-0.2,0.1l-0.1,0.1l0,0.2
		l-0.1,0l-0.1,0l-0.1,0.1l0.1,0l0.1,0.1l0.1,0.2l0.1,0.1l0.1,0l0.1,0l0.1,0l0,0.1l0,0.1l-0.4,0.4l0,0.1l0,0.1l0.1,0l0.1,0l0.1,0
		l0-0.1l0.1,0l0.2,0.1l0.1,0l0.1,0l0.1,0l0.1-0.1l-0.1,0.1l-0.3,0l0,0.2l0,0.1l0,0.1l0,0.1l0,0.1l0,0.1l0.1,0l0.1-0.1l0-0.1l0,0l0,0
		l0,0l0,0.2l0,0.4l-0.1,0.1l0,0l0.1,0.1l-0.1,0l0,0l0.1,0l0.1,0.1l-0.1,0l-0.1,0.1l0,0.1l0,0.1l0,0.1l0,0.1l0,0.1l-0.1,0.1l0,0l0,0
		l0,0l0,0l0,0.2h0.1l0.1,0l0,0.1l0.1-0.1l0.1-0.5l0.1-0.1l0,0l0,0l0,0l0,0l0,0l0.1,0.3l0,0.1l0,0.1l-0.1,0.1h0.2l-0.1,0.1l-0.1,0.1
		l-0.1,0.1l0.1,0.1l0,0l0.1,0l0,0l0,0l0,0l0,0l0,0l0,0l0,0.1l0,0.1l0,0.1l0,0v0.1l0,0l-0.1,0l0,0l0,0.1l0,0v0.1l0.1,0l0.1,0l0.1,0
		l-0.1,0l-0.1,0h-0.1l0.1,0.1l0.1,0l0.1,0l0.1,0l0,0l0,0.1l-0.1,0.1l0.1,0l0.1,0l0,0l0,0.1l0,0.2l0,0.1l0.1,0.2l0,0.1l-0.1,0.1
		l0.1,0.1l0,0l0,0.1l0.1,0.1l0.1,0.1l0.1,0.1l0,0.1l0,0.1l0,0l0,0l0,0.1l0,0l0,0l0,0.1l0,0l0,0.2l0,0.1l0.1,0.1l0.2,0l0.1,0.1l0.1,0
		l0,0l0.1,0.1l0,0l0.1,0l0,0l0,0v0l0,0l0,0l0.3,0.2l0,0.1l0,0.2l0.1,0.3l0.1,0.1l0.1,0.1l0.1,0.1l0,0.2l0,0.1l0.2,0.2l0.1,0l0.1,0
		l0.1,0l0.2-0.1l0.1,0l0.1,0l0.1,0.1l0.1,0.3l0.1,0.3l0,0.2l0,0.2l-0.1,0.2l-0.1,0.1l-0.1,0.1l-0.2,0.1l-0.5-0.2l-0.2,0.1l-0.1,0.3
		l0.1,0.2l0.4,0.3l0.1,0.3l0.1,0.2l0.2,0.1l0,0.1l0,0.1l-0.1,0.1l-0.1,0.1l-0.1,0l-0.2,0l0,0l-0.1,0l0,0l0,0l-0.1-0.1l0,0l0,0
		l-0.1-0.1l0,0l-0.8-0.4l0.1,0.1l0.2,0.1l0.1,0.2l0.1,0.2l0,0.1l0,0.2l0,0.1l0.2,0.4l0,0.1l0.4,0.5l0,0.1l0,0.1l0,0.1l0.1,0l0.1,0.1
		l0,0.1l0,0.1l0,0.1l0.1,0.1l0,0l0,0l0,0l0,0l0,0.1l0,0.1l0,0.1l0.1,0.2l0.2,0.1l0.1,0.1l0.1,0.3l0,0.1l0,0.1l0,0l-0.1,0l0,0.1
		l0.1,0l0.1,0l0,0.1l0.1,0l0.1,0l0.1,0.1l0.1,0.1l0.1,0.1l0,0.1l0,0.1l0,0.1l0,0.1l0,0.1l-0.3,0.2l-0.1,0.1l0,0.2l0,0.2l0.2,0.3
		l0,0.2l-0.1,0l0,0l0,0l0,0.1l-0.1,0.1l-0.1,0l-0.1,0l-0.1,0l0-0.1l0,0l0,0h0l-0.1,0.3l0,0.1l0.1,0l0.1-0.1l0.1,0l0,0l0.1,0l0,0l0,0
		l0.1-0.1l0,0l0.1,0l0.1,0l0,0l0.1,0.1l0,0l0,0l0.1,0l0.2,0l0.7,0.3l0.1,0l0.3,0l0.1,0l0.4-0.3l0.1,0l0.2,0l0.1,0l0.1-0.1l0-0.1
		l0-0.1l0.1,0l0.6,0l0.2,0l0.1,0l0.1,0l0.1-0.1l0.1,0l0.1,0l0.1,0l0.3,0.2l0.1,0l0.1,0l0.3,0l0.1,0l0.1-0.1l0.1-0.1l0.2-0.3l0.1-0.1
		l0.1-0.1l0.2-0.3l0.1-0.1l0-0.2l0-0.1l-0.2-0.3l-0.1-0.1l0-0.1l0-0.1l0-0.1l0-0.1l0-0.1l-0.1-0.1l-0.2-0.1l-0.1-0.1l0-0.1l0-0.1
		l0-0.3l0-0.3l0.1-0.3l0.2-0.2l0.2-0.1l0-0.1l0-0.1l0.1-0.1l0.1-0.1l0.1,0l0.1-0.1l0.2-0.2l0.1-0.2l0.1-0.1l0.1,0l0,0l0.1-0.1l0.1,0
		l0,0l0,0l0,0.1l0.1-0.1l0,0.1l0,0.1l0,0.1l0,0l-0.1,0.1l0,0l0,0l0.1,0l0,0l0,0l0,0l0,0l0-0.1h0.1l0,0.1l0,0l0,0l0-0.1l0-0.1l0.1,0
		l0,0l0-0.1l0-0.1l-0.1-0.2l0-0.1l0-0.1l0-0.1l-0.1,0l0,0l0-0.1l0-0.1l0-0.1l0.1-0.1l0.1,0l0.2,0l0.1,0l0.1,0.1l0.1,0.1l0.1,0l0-0.1
		l0.1,0l0.1,0l0.1,0l0.1-0.1l0.1,0l0.3,0.1l0,0l0-0.1l0,0l0,0l0.1,0l0,0l0,0l0,0.1l0,0h0.2l0,0l0,0l0,0l0,0l0.1,0.1l0.2,0l0.2-0.1
		l0.1-0.1l0.1,0.2l0,0.1l0,0l-0.1,0l0.1,0l0.1,0l0.2,0l0,0l0,0l0-0.1l0.1-0.1l0,0l0.1,0l0.1,0l0,0l0,0.1l0,0l0.1,0.1l0,0l0-0.1l0,0
		l0.2-0.1l0.2-0.1l0.1,0l0,0l0,0.1l0,0.1l0,0l0.1,0.1l0.1-0.1l0.1-0.1l0.1-0.1l0,0l0.1,0.1l0.1,0l0,0l0,0l0,0l0,0l0.1,0.1l0.1,0
		l0.2-0.1l0.1,0.1l0,0.1l-0.1,0.3l0.1,0.1l0.1,0.1l0.1,0l0.1-0.1l0.2-0.5l0.1-0.1l0.2-0.2l0.1-0.1l0-0.1l0-0.1l0-0.1l0,0l0,0
		l0.2-1.2l0.1-0.3l0.2-0.4l0-0.1l0-0.1l0.1,0l0-0.1l0-0.2l0-0.2l0-0.1l0,0l0,0l0.1-0.2l0-0.1l0,0l0,0l0.1,0l0.1,0l0.1,0.1l0.1,0
		l0.1,0l0.1-0.1l0-0.1l0-0.1l0-0.2l-0.1-0.2l0-0.1l0,0l0.1,0l0.1-0.1l0.1,0l0.1,0l0.1,0.1l0,0l0,0l0-0.1l0-0.1l0,0l0,0l0,0.1l-0.1,0
		l-0.1,0l0-0.1l0-0.1l0.1-0.4l0-0.1v-0.1l0-0.2l0,0l0.1-0.2l0-0.1l0-0.1l0-0.1l0-0.1l0-0.2l0-0.1l0.1-0.1l0.1,0v-0.1l0,0l0,0l0,0
		l0-0.1l0.1,0l0.1,0l0.1,0l0,0l0,0l0,0l0,0l0,0l0,0l0,0l0,0l0,0l0,0l0,0l0,0l0,0l0,0l0,0l0.1,0.1l0.1,0l0-0.1l-0.1-0.1l0-0.1l0.1,0
		l-0.1-0.2l0-0.1l0,0l0,0l0,0l0-0.1l-0.1-0.2l-0.1-0.2l0-0.2l0-0.2l0.1-0.1l-0.1-0.3l0.1-0.1l0.3-0.2l-0.1-0.1l0,0l0,0l0-0.1
		l-0.1-0.1l0.1-0.2l0.1,0l0.2,0.1l0-0.1l0-0.1l0.1,0l0.1,0l-0.1,0l-0.1-0.1l0-0.1l0-0.1l0.1,0l0.1,0l0,0l-0.1-0.1l0.1,0l0-0.1
		l-0.1-0.2l-0.1-0.3l-0.2-0.1l-0.3,0v0h0.1v-0.1l-0.1-0.1v-0.1l0,0l0.1-0.1l0,0l0,0l0-0.1l0,0l0,0l0,0l0,0l0,0.1v0.1l0,0.1l0,0l0,0
		l0.1-0.1l0-0.1l0,0l0,0l0,0l0-0.1l0-0.1l-0.1,0l0,0l0-0.1l0.1,0l0.1,0l0-0.1l0-0.1l0-0.1l-0.1-0.1l0-0.1l0.1,0.1l0.1,0.1l0.3,0
		v-0.1h-0.1v-0.1h0.1l0-0.1l-0.1-0.1l-0.1,0l-0.1,0l0.1-0.1l-0.1-0.1l-0.1-0.2l0,0l-0.1,0l0,0l0-0.1l0-0.1l-0.2-0.2l-0.2-0.2
		l-0.1-0.1l0-0.1l0-0.1l0.5,0.4l0.3,0.5l0.1,0.1l0.2,0.1l0.1,0l0-0.1l-0.1-0.1l-0.9-1v-0.1l0.1,0l0,0l0-0.1l-0.1-0.1l0.2,0.1
		l0.1,0.1l0.1,0.1l0,0l0-0.1l0-0.1l0-0.1l0,0l0-0.1l0,0l-0.2-0.1l-0.1-0.2l0-0.1l0-0.1l0-0.1l0,0l0,0l0.5,0.6l0,0l0,0l0,0l0,0l0,0.1
		l0,0.1v0.1l0,0.1l0.2,0l0.1,0l0-0.1l0-0.2l0,0l0.1,0.2l0.1,0.1l0.1,0l0.1,0l0-0.1l0-0.1l-0.1-0.1l0-0.1l0.2,0.1l0.1,0l0-0.1
		l-0.1-0.1l0,0l0-0.1l0-0.1l0,0l0,0.1l0,0l0-0.1l0-0.2l-0.1,0l-0.1,0l-0.1-0.2l0-0.1l0.1-0.1l0.1,0l0.1,0.2l0.1,0.1l-0.1-0.1l0,0
		l0.1-0.1l0,0.1l0,0l0,0l0-0.1l-0.1-0.1l-0.1,0l-0.1,0l-0.1-0.1l0.1,0l0,0l0-0.1l0-0.1l0.1,0l-0.1-0.2l-0.1-0.2l-0.1-0.2l0,0l0.1,0
		l0,0l-0.1-0.1l-0.2-0.2l-0.1-0.1l0.2,0.1l0.2,0.3l0.2,0.2l0.1-0.3l0,0l0-0.1l0,0l0,0l0.1,0l0,0l0,0l0-0.1l0-0.1l0-0.1l0-0.1
		l-0.1-0.1l0,0l0,0l-0.3-0.2l-0.1,0V140l0.2,0l0,0l0,0l0-0.1l0,0l0,0l0,0l0.1,0l0,0l0-0.1l-0.1,0l-0.2,0.1l0,0.1l0,0.1l0,0l0,0
		l-0.1,0l0-0.1l0-0.1l-0.1-0.1l-0.2-0.1l-0.1-0.1l0.6,0.1l0-0.2l0,0l-0.1,0l0,0l-0.1,0l-0.1,0l0,0l0-0.1l0-0.1l0-0.1l0-0.1l0-0.1
		l-0.1,0l-0.1,0l-0.9-0.5l-0.1,0l0.1-0.1l0.4,0.1l0.2,0.2l0.5,0.1l0,0l0.1,0l0,0l0,0l0.1-0.1l0,0l0.1,0l0.1-0.1l0.1-0.1l0-0.1l0.1,0
		l0.2,0l0.1-0.1l-0.2-0.2l-0.2,0l-0.1,0l0-0.1v-0.1h-0.1v0l0,0l0,0l-0.1,0l-0.1-0.1l0-0.1l0-0.1l-0.1,0l-0.1-0.1l0,0l0,0.1l0,0
		l-0.1-0.1l-0.2,0l-0.1,0l-0.1-0.1l-0.1,0l-0.5,0l-0.1-0.1l-0.2-0.1l-0.1,0l0,0.1l0,0.1l0,0.1l0,0.1l0,0l-0.1,0l0,0l0-0.1l0-0.1l0,0
		l0,0l-0.1-0.1l-0.1,0l-0.1,0l-0.1,0.1l-0.1,0.1l-0.2-0.1l-0.1,0.1l0-0.1l0,0l-0.1,0l-0.1,0v-0.1l0.1,0l0.2,0l0.1,0l0-0.1l0-0.1
		l0-0.1l-0.1,0v-0.1l2.9,0.4l0.4-0.1l0.1,0l-0.1-0.1l-0.1-0.1l-0.2,0l0.1-0.1l0.2,0l0.2,0.2l0.1,0l0.1-0.1l0.1-0.1l0.1-0.1v-0.1
		l-0.1,0l-0.2,0l-0.1-0.1l0,0l0-0.1l0-0.1l0-0.1l0-0.1l-0.1,0l-0.1,0l0.1,0l0.1-0.1l0,0l0.1,0l0.1,0.1l0,0.1l0.1,0l0.5,0v-0.1l0.1,0
		l0.2,0l0.1-0.1l0-0.1l-0.1-0.2l0.5,0.1l0.1-0.1l-0.1-0.1l0,0l0,0l0-0.1l0-0.1l0-0.2l0-0.1l-0.1-0.1V135l0.1,0.1l0.3,0.3l0.1,0l0,0
		l0,0h0.1v-0.1l-0.1-0.1l-0.1-0.1l0-0.1l0.1,0l0.1,0l0.1,0l0.1-0.1l0-0.1l-0.1-0.1l-0.1,0l0-0.1v-0.1l0,0l0,0l0,0l0,0l0,0l0,0l0,0
		l0,0l0-0.1l0-0.2l0-0.1l-0.1-0.1l0-0.2l0-0.2l0-0.2l0.1,0l0.1-0.1l0.1-0.1l0.1-0.1l-0.1-0.3l0,0.1l0,0.1l0,0.1l0,0.1l0,0.1
		l-0.1,0.2l0,0.1l0.1,0.2l0,0l0,0l0-0.1l0-0.3l0-0.1l0-0.1l0.1,0l0,0l0,0.1l-0.1,0.2l0,0l0,0.1l0,0.2l0,0.2l-0.1,0.1v0.1l0,0.2
		l0,0.2l0,0.2l0.1,0.1l0,0.1l0,0.1l0,0.1l0,0l0,0l0-0.1l0-0.1l-0.1-0.1l0-0.2l0-0.1l0.1,0.1l0.1,0.2l0,0l0.1,0l0,0l0,0l0,0l0,0l0,0
		l0,0.1l0,0.1l0,0.1l0,0.1l0.1,0.1l0-0.2l0-0.1l0-0.1l0.1,0l0.1,0l0.1,0l0.1-0.1l0-0.1l0-0.1l0-0.1l0-0.1l0.1-0.2l0.1-0.2l0.1-0.1
		l-0.1-0.1l0-0.1l0.1,0l0.1,0.1l0,0l0-0.1l0,0l0.2,0l0.1,0l0.1-0.2l0-0.1l0.1,0l0.1,0l0.1,0l0.1-0.1l0.1,0l0.1,0l0.1,0v0.1l0,0l0,0
		l0.1,0.1l-0.1,0l-0.1,0.1l-0.1,0l0.1,0l0.4-0.2l0-0.1l0,0l0,0l0,0l0.1-0.1l0.2-0.1l0.2,0l0.1,0l0,0l0,0l0-0.1l0-0.1l0-0.1l0,0
		l-0.1,0.1v-0.1l0,0l0,0l0,0l0,0l-0.1,0.1l0-0.1l0-0.1l0-0.1l-0.1,0l-0.1,0l-0.1-0.1l0-0.1l0.1,0l0.4,0.3l-0.1-0.1l-0.1-0.1
		l-0.1-0.1l-0.1,0l-0.2-0.1l0-0.1l0,0l0.1,0v-0.1l0-0.1l0-0.1l0-0.1l-0.1,0l0.1-0.1l0.1-0.1l0.1,0l0.1,0l0,0l0,0.1l0,0l0.1,0.1
		l0.3-0.1l0.1,0l0.1,0l0.1,0l0.1,0l0.1,0l0.1,0l0.1,0l0.2,0l0.1-0.1l0-0.1l-0.1-0.1l-0.1-0.1l-0.1,0l-0.1-0.1l0.1,0l0.1,0l0.1,0
		l0-0.1l-0.3-0.2l0,0l0-0.1l0,0l-0.1-0.1l-0.1,0l-0.2,0l0,0.1l0.1,0.1l0.2,0.1h-0.2l0,0.1l0.1,0.3l0,0.1l-0.1,0l-0.1,0l0,0l0-0.1
		l0,0l-0.2-0.1l-0.3-0.1l-0.3,0.1l-0.1,0.4h0l0-0.1l0,0l-0.1,0.1l-0.6,0l-0.1-0.1l-0.1,0l-0.2,0.2l-0.1,0.1l0,0l0,0.1l0,0l0,0l0,0.1
		l0,0l0,0.1l0,0.1l0,0l-0.1,0l0-0.2l-0.2-0.1l-0.4,0v0.1l0.2,0.1l0,0.1l-0.1,0.1l-0.1,0l-0.1,0l0.1-0.1l0,0l0,0l-0.1,0l0,0l0,0
		l0-0.1l-0.3-0.1l-0.1,0l-0.1,0.1l0.1,0.1l0,0.1l0,0.2l0,0.1l0-0.1l-0.1-0.2l0,0l-0.1,0l-0.2-0.1l-0.2-0.2l-0.2-0.1l-0.3-0.1
		l0.1,0.4l0.1,0.1l0.1,0.1v0.1l-0.8-0.1V132l0.2,0l0.1,0l0-0.1l0-0.1l-0.2-0.3l0.3-0.1l0-0.1l0-0.1l-0.1-0.1l-0.2,0l-0.4-0.1l-0.2,0
		l-0.2,0.1l0,0l0-0.1l0,0l-0.3-0.2l0,0l0-0.1l0-0.1l0-0.1l-0.1-0.1l0,0l0,0l-0.1-0.1l-0.2-0.2l-0.1,0l0,0.1h-0.3l0,0l-0.1,0l0,0l0,0
		l0,0l0,0l0.1,0.1l0.5,0.4l0,0l0.1,0l0,0l0,0l0,0.1l0,0l0,0h-0.3l0,0l-0.1-0.2l-0.3-0.3l-0.1-0.1l-0.1-0.1l-0.1,0.1l-0.1,0.1
		l-0.1,0.1l-0.1,0l-0.1-0.1l-0.1,0l0,0l0,0.1l0,0l0,0l-0.1,0l0,0l-1.3,0.1l-0.2,0l-0.2-0.1l-0.2-0.1l-0.1-0.2l0.4,0.2h0.5v-0.1h-0.1
		v-0.1l0.1-0.1l0.1,0l0,0.1l0,0.1l0.1,0.1l0.1,0l0.1,0l0-0.1l0,0l0.1,0l0,0l0.1-0.1l0,0l0,0l0.2,0.1l0.1,0l0.1-0.1l-0.2-0.1l0.1,0
		l0.1,0l0.1,0l0.1-0.1l-0.1-0.1l-0.1-0.2l-0.1-0.1l0.1-0.1l0.1,0l0,0l0,0l0.1,0.1l0.1,0.1l0.1,0.1l0.1,0.1l0.1,0.1l0.1,0.1l0.1,0
		l0.1,0l0.1,0l0,0l0-0.1l0-0.1l0.1-0.1l0,0l0,0l0-0.1l0-0.1l0,0l0.3,0.1l0,0l0,0l0,0l0,0l0,0l0,0l0,0l0,0l0.1,0.2l0,0l0.5,0l0-0.1
		l-0.2-0.2l-0.1-0.1l0.1,0l0,0l0.1-0.1l0,0l0,0.1l0,0.1l0.1,0.1l0,0l0,0l0,0l0.1,0.1l0.1,0.1l0.2,0l0,0.1l0,0.1l0.5,0.4l0.1,0l0-0.1
		l0-0.1l0,0l0,0.1l0.1,0.2l0,0l0-0.1l0-0.1l-0.1-0.2l0.1-0.1l0-0.2l-0.1-0.2l0-0.1l-0.1-0.1l0-0.1l0,0l0.1,0l0-0.1l0-0.1l0-0.1
		l0,0.1l0,0.1l0,0.1l0.1,0l0,0l0.1,0.2l0.2,0.2l0,0l0,0l0.1-0.1l0,0l0.1,0l0,0.1l-0.1,0.1l-0.1,0.1l0,0.1l0,0.1l0,0l0.1,0l0,0l0,0
		l0,0l0-0.1l0,0l0.1,0l0.3,0.1l0.1,0l0,0.1l0.1,0.2l0.1,0.1l0.1,0l0-0.1l0-0.1l0.1-0.1l0.2-0.3l0-0.1l-0.1-0.3l0-0.1l-0.1-0.1
		l-0.1,0l-0.1,0l-0.4-0.3l-0.2-0.2l0-0.1l0-0.1l0.2-0.2l0,0l0,0l0,0l0.1-0.2l-0.1-0.1l-0.3,0l0.1,0l0,0l-0.1,0.1l-0.1,0l-0.1,0.1
		l0,0.1l0,0.2l0,0.1l-0.1,0.1l0.1,0.1l0.1,0.2l0,0.2l0,0.1l-0.1-0.1l-0.1-0.4l-0.1-0.1l0-0.2l0-0.1l-0.1,0l0-0.1l0-0.1l0-0.1
		l0.1-0.2l0-0.1l0,0l-0.3,0l-0.1,0l-0.1-0.1h0.6l0.1,0l0.1-0.1l0.1-0.2l0.1-0.2l0,0.1l0,0.1l0.1,0.1l0,0.2l0.1,0.1l0.1,0.1l0.1,0.1
		l-0.1,0l0,0.1l0,0.1l0,0.1l0,0.1l-0.1,0.1l-0.1,0l-0.1,0l0.1,0.1l0.1,0.1l0.1,0l0.1,0l0.2,0.1l0.1,0l0-0.1l0-0.1l0-0.2l0-0.1
		l0.1-0.1l0,0.1l0,0.1l0,0.1l0,0.1l0,0.2l0,0.1l0.1,0.1l0,0l0.1,0l0,0l0,0.1l0,0l0,0v0.1l0,0l0,0l0,0l0,0.1l0,0.1l0,0.1l0,0.1
		l-0.1,0.1L146,130l-0.1,0.2l0,0.2l-0.1,0.3l0.1,0.3l0.2,0.2l0.2,0.1l0.1,0l0.3-0.1l0.5,0.1l0.1,0l-0.6-0.6l0,0l0.1,0.1l0,0l0,0
		l0.1-0.1l0-0.1l0-0.1v-0.1l0,0l0,0l0.1-0.1l0,0l0,0l0,0.1l0,0l0.1,0l0.1-0.1l0.1,0l0,0.1l0,0.2l0,0.1l0,0l-0.1,0l-0.1,0l0,0
		l0.1,0.1l0.2,0.1l0.2,0l0.1-0.1l-0.1,0l-0.1,0l-0.1-0.1l0-0.1l-0.1-0.1l-0.1,0l0.1,0l0.1,0l0.1-0.1l-0.1-0.1v-0.1l0.3,0l0.1,0
		l0.1-0.1l0.2-0.3l0.1-0.1l0.2-0.1l0.2-0.2l0.2-0.1l0.1-0.1l0.1,0l0,0l0-0.1l-0.1-0.2l0.1,0l0,0l0,0l0,0l0,0l0.1-0.1l0-0.1l0-0.1
		h-0.2l0,0l0,0l0-0.1l0-0.1l0,0l0.1,0l0-0.1l0.1-0.1l0.3-0.1l0.1-0.1l0.1-0.1l0.1-0.1l0,0l0,0.1l0,0.1l0.1,0l0.1,0l0.3-0.1l0.1-0.1
		l0.1-0.1l0-0.2l-0.2-0.1l-1.1,0l-0.2,0.1H150l0-0.1l0.1-0.1l0.1,0l0.2,0l0.1,0l0.1-0.1l0.3-0.4l0-0.1l0-0.1l-0.1-0.3l0-0.1l0.1,0.1
		l0.1,0.2l0.3,0.5l0.1,0l0.1,0l0-0.1l0-0.3l0-0.1l-0.1,0l-0.1,0l0,0l0,0.1l0,0l0,0l0,0l-0.1-0.1l0,0l0-0.1l0,0l0,0l-0.1-0.1
		l-0.1-0.1l-0.2-0.1l-0.1-0.1l-0.1-0.4l-0.2-0.6l0-0.1l0-0.1l0-0.1l0,0l-0.1,0l-0.2,0.1l-0.1,0.2l0,0.2l0.1,0.2l0.1,0.2l0-0.1
		l-0.2-0.3l0-0.1l0-0.3l0-0.1l-0.1-0.1l-0.1,0l-0.1-0.1l-0.1,0l-0.1,0l-0.1,0.1l0,0.1l0,0.2l0,0.2l0,0.1h0l0-0.1l-0.1-0.3l0-0.1
		l0-0.3l0,0l0,0.1l0,0l-0.1,0H149l-0.1,0l-0.1-0.1l-0.2-0.1l-0.1-0.1l0-0.2l0.1,0.1l0.1,0l0.1,0l-0.1-0.2l-0.2-0.2l-0.2-0.2
		l-0.1-0.3l0.2,0.4l0.1,0.2l0.7,0.3l0.2-0.1l-0.2-0.2l-0.6-0.2l0-0.1l0,0l0.1,0l0.1,0v-0.1l-0.1-0.1l0,0l0-0.1l0-0.1l0-0.1l0,0
		l-0.1-0.1l-0.3,0l-0.1-0.1l-0.1,0l-0.1,0l-0.1,0l-0.1,0.1l-0.1,0.1l0-0.1l0,0l-0.1-0.1v-0.1l0.1-0.1l0.1-0.1l0.1,0l-0.3-0.1
		l-0.1-0.1l-0.1-0.2l0,0l0-0.1l0,0l-0.1-0.1l-0.2-0.2l-0.1-0.1l-0.1,0v-0.1l0,0l0-0.1l0-0.1l0-0.1l-0.1-0.3l-0.1-0.1l-0.1,0
		l-0.4,0.1l-0.2,0.2l-0.1,0.2l0.1,0.2v0.1l-0.3,0l-0.1-0.1l-0.1-0.2l0-0.1l-0.1-0.2l0-0.1l0,0l0.1-0.1l0.1-0.1l-0.1-0.1l-0.2-0.1
		l-0.1-0.1l-0.1-0.1l-0.1,0l-0.6,0.1l-0.1,0l-0.1,0.1l-0.1,0l-0.1,0l-0.1,0v-0.1l0.2-0.1l-0.2-0.2l-0.1-0.1l-0.1-0.1l-0.1,0l0,0
		l-0.1,0l0,0l0,0l0,0l0,0l0.1,0l0.2-0.1l0.1-0.1l0.1-0.1l0.1-0.1l0.1-0.1l0,0l-0.1,0l-0.1,0l-0.1-0.1l0-0.1l0-0.1l0-0.1l0,0l0,0l0,0
		l0-0.1l0,0l0,0l0,0l0,0l-0.2-0.5l0,0l0,0l-0.1,0l0,0l0-0.1l0-0.1l0-0.1l0,0l-0.1,0l-0.1-0.1l0,0l0-0.1l0-0.2l0.1-0.1l0.3-0.1
		l-0.1-0.1l-0.1,0l-0.2,0l0,0l0.1-0.1l0,0l0,0l0,0l0-0.1l0-0.1l0-0.1l0,0l0,0l0,0l0-0.1l0-0.1l0,0l-0.1,0l0,0l0.1,0l0-0.1l0-0.1
		l-0.1-0.1l0.1-0.1l0-0.1l0-0.2l-0.1-0.1l0.1-0.1l0.1-0.1l0.1-0.1l-0.1-0.2l-0.1-0.1l-0.1-0.2l-0.1-0.1l-0.1-0.1v-0.1l0.1,0l0.1,0
		l0.2,0.2l0.1,0l0.2,0l-0.1-0.1l-0.1,0l-0.1-0.1l-0.1-0.2l0.3,0.1l0.1,0l0.1,0l-0.3-0.2l0-0.1l-0.1-0.1l-0.1-0.1l-0.1-0.2l0-0.1
		l0-0.1l0.1-0.1l0-0.2l0,0l0,0.1l0,0.1l0-0.1l0,0l0,0l0,0l0,0l0-0.1l0-0.1l0,0l0,0l0,0.1l0,0h-0.1l0,0l0-0.1l0-0.1l0-0.1l0-0.1l0,0
		l0-0.1l0-0.1l0,0l-0.2-0.1v-0.1h0.2v-0.1l0,0l-0.1,0l-0.1-0.1l-0.1,0l0,0l0,0l0.4,0v-0.1l-0.4-0.1l-0.1-0.1l0.2,0l0.2-0.1l0-0.1
		l-0.1,0l-0.1,0v-0.1l0.3,0l0.1,0l0.2,0.1l0.1,0l0.1-0.1l-0.1-0.1l-0.5-0.1l0.1-0.1l0.2,0.1l0.1-0.1l-0.1-0.1l0,0v-0.1l0.1,0l0.2,0
		l0.1-0.1l0-0.1l-0.3-0.2l-0.1,0l-0.1,0l-0.1-0.1l0.4,0l0.2,0l0.2,0.1l0,0.1l0.1,0.1l0.2,0l-0.1-0.2l0-0.1l0-0.1l0.1,0.1l0.1,0.1
		l0.2,0.4l0.1,0.1l0.1,0.1l0.1,0l0.1,0l0.1-0.1l0-0.1l0-0.2l0-0.1l0-0.1l0-0.1l0-0.1l-0.1-0.1l-0.1-0.1l-0.1,0l-0.1,0l-0.2,0.1l0,0
		l0-0.2l0-0.1l0-0.1l0-0.1l-0.1,0v-0.1l0,0l0,0l0-0.1l0-0.1l-0.2,0.1l-0.1,0l0,0l0,0l0,0l0,0l0-0.1l0,0l0,0l0,0l0,0v-0.1l0-0.1l0,0
		l0,0l0.1,0l0-0.1l0-0.1l-0.1-0.2l0-0.1l0-0.1l0-0.1l0-0.1l0,0l0.1,0l0-0.1l0-0.1l0-0.1l0,0l0.2,0l0,0l0-0.1l-0.1-0.1l0,0l0.1-0.2
		l0-0.1l-0.1-0.1l0.1-0.1l0-0.1l0-0.1l0-0.2l0-0.1l0.1-0.2l0-0.1l0-0.1l0-0.1l0-0.1l0-0.1l0-0.1l0.1-0.1l0.1,0l0.1,0l-0.1,0.2l0,0
		l0.1,0l0.3-0.2l-0.1-0.1l-0.1-0.1l-0.1,0l-0.1,0l-0.4-0.2l0.1-0.1l0,0l0,0v-0.1l0-0.1l0-0.1l0-0.1l0-0.1l-0.1-0.1l-0.1,0l-0.1,0
		l-0.1,0l-0.1-0.1l0-0.1l0-0.1l0-0.1l0-0.1l0-0.1l0-0.1l0,0l0.1,0l0,0l0,0l0-0.1l0-0.1l0-0.1l0,0l-0.2-0.3l0-0.1l0-0.1l0.1-0.1
		l0.1,0l0.1-0.1l0-0.2l0.1-0.1l0,0l0.2,0.3l0.2,0.4l0,0l0.1,0.1l0.1,0l0.1,0l0.5,0l0-0.1l-0.1,0l-0.1-0.1l0-0.2l0.1-0.1l0.1-0.1
		l0.2-0.1h0.2l0,0l0.1,0.1l0,0l0.1,0l0.1-0.1l0.1-0.2l-0.1-0.1l0.1,0l0,0l0-0.1l0-0.1l0-0.1l0-0.3l0-0.1l0,0l0.1,0l0,0l0,0.1l0,0.3
		l0,0.1l0,0l0.3-0.3l0.1,0l0,0l0-0.1l0-0.1l0-0.1l-0.6-0.3l-0.1-0.1h0.3l0,0l0.1,0.1l0,0l0,0l0,0l0,0l0-0.1l0-0.1l0-0.2l0-0.1l0-0.2
		l-0.1-0.2l0-0.1l0-0.2l0,0l-0.1-0.1l0-0.1l-0.2-0.1v-0.1l0.1-0.2l-0.1-0.3l-0.1-0.3l-0.1-0.2l-0.1-0.2l-0.5-0.5l0.1,0l0.1,0.1
		l0.1,0.1l0.1,0l0.1,0l0.1-0.1l0.1,0l-0.1,0.1l0,0l0.1,0l0.1,0l0,0.1l0,0.1l0.1,0.3l0,0.1l0.1,0l0.1,0l0.1,0l0,0.1l0,0l0,0.1l0,0
		l0,0.1l0,0.1l0,0l0,0.3l0,0.1l0,0l0.1,0.1l0.1,0l0,0l0.1-0.1l0.1-0.1l0.1-0.1l0.1,0l0,0l0,0l0,0l0,0l0.1,0.1l0.1,0.1l0.2,0.1
		l-0.1,0.2l-0.4-0.1l-0.1,0.2l0.2,0l0.1,0l0.1,0.1l0,0l0,0.1l0.2,0l0.1,0l0.1-0.1l0-0.1l0-0.1l0-0.1l0.1,0l0,0l0,0.1l0,0.1l0,0.1
		l0,0.1l0,0l0-0.1l0,0l0.1,0l0.1-0.1l0.1-0.3L148,101l-0.1,0.2l-0.1-0.1l0-0.1l0-0.1l0-0.1l0,0v-0.1h0.2l0-0.1l0,0l0.1,0l0.1,0.1
		l0.1,0.2l0,0.1l0,0l0,0l0,0l0.1,0l0.1,0l0,0l0.1,0l0,0l0,0l0,0l0.1,0l0,0l0-0.1l0-0.1l0-0.1l-0.2-0.1l-0.1-0.1l0.3,0.1l0.2,0l0-0.2
		l0-0.1l-0.1,0l-0.2,0.1l-0.1,0l-0.2-0.2l0-0.2l0.1,0l0.2,0.1l0.1,0l0.1,0l0-0.2h0l0,0.1l0.1,0l0,0l0-0.1l-0.1-0.1l-0.1-0.1l-1.1,0
		l-0.1-0.1l0.2-0.1l0.1-0.1l0.1-0.1l0,0l0,0l0-0.1l0,0l0,0l0,0l0,0.1l0,0l0.3,0.1l-0.1-0.1l-0.1-0.1l-0.1-0.1l0.1-0.1l0.1,0l0.1,0
		l0.1,0.1l0.1,0.2l0,0l0,0l0-0.2l0-0.1l0.1,0l0.2-0.2h-0.1l0.1-0.1l0-0.1l0-0.1l0-0.1l0.1-0.1l0.1,0l0.1,0.1l0.1,0l0.1,0l0-0.1
		l0-0.1l0-0.1l-0.1-0.1l-0.1-0.1l-0.1-0.1l-0.1,0v-0.1l0.2,0l0.6,0.2l0-0.1l-0.1-0.2l0-0.1l0-0.1l0-0.1l-0.1-0.1l0.1-0.1l0.4,0.1
		v0.1l-0.2,0l-0.1,0l0,0.1l0,0.1l0.1,0.1l0.1,0l0.1-0.1l0,0l0-0.1l0.3,0l0.1-0.1l0.1-0.1l-0.7-0.3l-0.1-0.1l0.1-0.1l0.1,0l0.2,0
		l0.2,0.1l0.1,0l0-0.1l0.1,0l0.1,0.1l0.1,0.1l0.1,0.1l0.1,0l0,0.1l0,0.1l0,0.1l0.1,0.1l0,0.1l0,0l0.1,0.2l0,0l0.1,0l0,0l0-0.1l0-0.1
		l0.1,0l0.1,0l0,0l0-0.1l-0.1,0l-0.1-0.1l-0.1-0.1l0.1-0.2l0.2,0.2l0.1,0l0.1-0.2h-0.1l0-0.1l0.1-0.2l0-0.1l-0.1-0.1l0,0l0.1-0.1
		l0.2-0.1l0.1-0.2l0,0.2l0.1,0l0.1-0.1l0-0.1v-0.3l0-0.1l0-0.2l0-0.1l0-0.3l0-0.2l0.1-0.1l0.1,0.1l0.1,0.1l0.1,0.1l0.1,0l-0.1-0.3
		l0-0.1l0.1,0.1l0.3,0.5l0.1,0.1l0.1,0l0,0l0-0.1l0-0.1l-0.2-0.3l0-0.1l0,0l0.1,0l0.1,0l0.1-0.1l-0.1-0.1l-0.1,0l-0.1-0.1l0.1-0.2
		l-0.1,0l0,0l0-0.1l0.1-0.1l0.1,0l0.1,0.1l0.1,0.1l0.1,0.1l0.2,0.1l0.1,0.2l0.1,0l0,0l0,0.1l0,0l0.1,0.1l0,0.1l0,0.1l0,0.1l0.2,0.1
		l0.1,0l0.1-0.1l0.1-0.1l0,0l0.1,0l0,0l0-0.2l-0.1-0.3l0-0.1l0.1-0.2l0.2-0.1l0.2-0.2l0.1-0.2l0,0l0.2-0.1l0.1-0.1l0.1,0l0.3,0.2
		l-0.1-0.2l0-0.1l0-0.1l0.1-0.1l0.1-0.1l0.1,0l0.1,0l0,0l0,0l0,0.1l0,0l0,0l0,0l0,0l0.3,0l0.1,0l0-0.2l0-0.2l0.1-0.2l0.1-0.1l0,0.1
		l0,0.1l0,0.1l0,0.1l0,0.1l0,0.1l0.1,0.1l0.1,0l0-0.2l0-0.6l0-0.1l0.1,0l0.1,0.1l0,0.1l0,0.1l0,0.1l0,0.1l0,0.1l0.1,0l0,0l0-0.1
		l0-0.1l0-0.1l0-0.1l0-0.2l0-0.1l0,0l0,0l0-0.1l0.1,0.1l0.1-0.1l0.2-0.5l0,0l0.1,0.1l0,0.1l0,0.1l0,0.1l0,0.1l0,0l0-0.1l0-0.1
		l0.2-0.2l0.1,0L158,92l0.1,0.2l0,0l0.1-0.1l0.1-0.2l-0.1,0l-0.1,0l0-0.1l0-0.1l0-0.1l0.2,0l0.2-0.2l0-0.1l0.1-0.3l0.1-0.3l0.1-0.1
		l0.1-0.1l0,0l0,0l0,0l0,0l0,0l0-0.1l0-0.2l0,0l0,0l0,0l0,0l0,0l0-0.1l0,0l0,0l0-0.1l0-0.1l0,0l0.2-0.4l0-0.2l-0.1-0.2l0.1-0.2
		l0.3-0.4l0.1-0.3l0,0l0,0l0.1,0.1l0,0l0.5-0.8l0,0l0,0l0.1,0l0.1,0l0.1-0.1l0.1,0l0,0l0,0l0,0l0,0l0-0.1l0-0.1l0-0.1l0-0.1l0.1,0.1
		l0.1,0.2L161,87l0.1-0.1l0.1-0.1l0.2-0.2l0.2-0.4l0-0.1l0.1-0.1l0-0.1l0.1-0.1h0.1l0,0l0-0.1l0-0.1l0-0.1l0,0h-0.1l0,0.1l-0.1,0
		l-0.1,0l0,0l0,0.1l0,0l-0.1,0l-0.1-0.1l0-0.1l0.1-0.1l0-0.1l0-0.2l0,0l-0.1,0l-0.2,0l0,0l-0.1,0.1l-0.1,0l-0.1-0.2l-0.1,0l0,0
		l0-0.1l0,0l0,0l0,0l0,0.1l0.1,0.1l0.1-0.1l0.2-0.2l0,0l0.1,0.2l0.1,0l0.1,0l0.1-0.1l0.1-0.1l-0.1,0l-0.1,0l-0.1-0.1l0-0.1v-0.2l0,0
		l0,0l0,0l0,0.2l-0.1-0.1l-0.1-0.2l-0.1-0.1l-0.1,0l0,0l0,0.1l0,0.1l0,0l0,0l0,0.1l0,0l0,0l-0.1-0.1l0,0l0,0l0-0.1l0,0l0,0l0,0
		l-0.1,0l-0.1-0.1l-0.1-0.1l0-0.1l0.1,0l-0.1-0.2l-0.1-0.1l-0.1,0l-0.1,0l-0.1-0.1l0-0.2l0-0.2l0-0.1l0.1,0l0.1,0.1l0.1,0.1l0.1,0.1
		l0.1,0.1l0.2,0.2l0.1,0.1v-0.1l-0.1-0.1l0-0.1l0-0.1l0.1,0v-0.1l-0.2-0.2l-0.1-0.1l-0.1-0.2l0.1,0l0.2,0l0.1,0l0-0.1l-0.1-0.1
		l-0.3-0.1l-0.3,0.1l-0.2,0l-0.1,0l-0.1-0.1l0,0l0-0.1l-0.1-0.1l-0.1-0.1l0-0.1l0-0.1l0-0.1l0.1,0l0.1,0l0,0.1l0,0.1l0,0.1l0.1,0
		l0.1,0l0.1-0.1l0.1-0.1l0-0.2l0.1-0.1l0.1-0.1l0-0.3l0.1,0l0.1-0.1l0-0.1l0-0.1l0-0.1l0-0.1l0-0.1l0-0.1l0.1,0l0.5,0l0.1-0.1
		l-0.1-0.1l0-0.1l0.1-0.1l0.1-0.1l0,0l0,0l0,0v0l0,0l0.1,0.1l0,0l0,0l0.1-0.1l0,0l-0.1-0.1l0-0.1l0.1-0.1l0.4,0l0.1-0.1l-0.1-0.1
		l-0.1,0l0-0.1l0.1-0.3l0-0.1l0-0.1l-0.1-0.1l0.2,0l0.1-0.1l0-0.2l-0.3-0.6l-0.2-0.3l-0.3-0.5l-0.1-0.1l-0.5-0.1l0.1-0.1l0.2,0
		l0.1-0.1l0,0l0,0l0,0l0.1,0l0.1,0.2l0.1,0.2l0.1,0.1l0.1,0l0.1,0.1l0.1,0.1l0.1,0.1l0.1,0.1l0.1,0.3l0,0.1l0.1,0.1l0.2,0l0.2-0.1
		l0.1-0.2l0-0.1l-0.1-0.1l-0.1-0.1l-0.1-0.2l-0.1-0.1l-0.1,0l0,0.2l-0.1,0.1l-0.1,0l-0.1-0.1l-0.1-0.1l-0.1-0.1l-0.1-0.1l-0.1,0
		l0.2-0.1l0,0l0,0l0,0l0.1-0.2l0.2,0l0.3,0v-0.1l-0.1,0l-0.2-0.1v-0.1l0.2-0.1l0.1,0l0.1,0.2l0.1,0l0.2,0l-0.1-0.1l0.1,0l0.4,0.1
		l0.1,0l0.1-0.1l0.1-0.1l0,0.1l0.1,0l0.1,0l0.1-0.1l0-0.1l0-0.1l0-0.1l0-0.1l0.1,0.2l0.1,0.1l0.1,0l0.1-0.1l0-0.1l0-0.1l0-0.1
		l-0.1-0.1l-0.2-0.3l-0.1,0l0,0l0.1,0.1l-0.1,0.1l-0.1-0.1l-0.2-0.3l0.1,0l0.6,0.2l0.1-0.1l0,0l0,0.1l0,0l0,0l0-0.1l0,0l0,0l0,0
		l0.1,0l0.2,0l0.1-0.1l-0.1,0l-0.1,0l-0.1-0.2l-0.1-0.1l-0.1-0.1l-0.3-0.1l-0.3-0.3l-0.5-0.3l-0.3-0.3l-0.1-0.4l0.1,0.1l0.1,0.1
		l0.1,0.1l0.1,0.2l0,0.1l0.1,0.1l0.3,0.1l0.1,0.2l0.2,0.1l0.1,0.1l0.1,0.2l0.3,0.1l0.4,0.3l0.1,0l0-0.1l0.1-0.1l0,0l0.1,0.1l0.1,0
		l0.1,0l0.1,0.1l0.1,0.1l0.1,0.1l0.1-0.1l0-0.2l0-0.1l0,0l-0.2-0.1l-0.1-0.1l0-0.1l0-0.1l0.2-0.2l0-0.1L165,74l0-0.1l0-0.1l-0.1-0.1
		l-0.1,0l0,0.1l0,0.1L165,74l0,0.1l-0.1,0.2l-0.2,0l-0.3-0.1l0.3,0l0.1-0.1l-0.1-0.2l0-0.1l0-0.1l0-0.1l0-0.1l0-0.1l0-0.1l0.1-0.1
		l0.1,0l0.1,0.1l0,0.2l0-0.1l0.1,0l0.1,0l0.1,0l0-0.3l-0.1-0.2l-0.1-0.1l-0.3-0.1l-0.1-0.1l-0.1-0.1l-0.1-0.2l0.1,0l0.2,0.2l0.2,0.1
		l0.1-0.3l-0.1-0.1l-0.1-0.2l0-0.1l0.1,0.1l0.1,0l0-0.1L165,72l0.2-0.1l0-0.2l0.1,0l0.3,0.1l0,0.1l0,0l0.1,0.1l0.1,0.1l0.1,0.1
		l0,0.1l0,0.1l0,0.1l0,0.1l0,0l0.1-0.2l0.1,0l0.2,0.1l0.1,0.1l0,0.2l0.1,0l0.1-0.1l0-0.1l0-0.1l0-0.2l0-0.1l0-0.1l0-0.1l0-0.3l0-0.1
		l0-0.1l-0.1-0.1l-0.1-0.1l0.1,0l0.1,0l0.5,0.4l0.1,0.2l0.1,0.4l0.1,0.1l0.1,0l0.1,0l0.1,0l0.1,0.2l0,0l0.2,0.1l0.2,0l0.1,0.1
		l0.1,0.3l0,0.2l0.1,0l0.1-0.1l0-0.2l0.1-0.1l0,0l0.3-0.1l0.1-0.1l-0.1-0.1l-0.1-0.1l0-0.1l0-0.2l0.1-0.1l0.1,0l0.1,0l0.2,0.2
		l0.1,0.1l0.1,0l0.1-0.1l0.1-0.1l0.1-0.1l0.1,0l0,0.1l0,0.2l0,0.2l0.1,0.1l0.1,0l0,0l0,0l0-0.1l0-0.1l0-0.1l0-0.1l0,0l0-0.1l0,0l0,0
		l0,0l0-0.1l0,0l0.1,0l0.1,0l0,0l0,0.1l0.2,0.1l0.3,0l0,0l0,0.1l0,0l0.1,0l0.1-0.1l0.1-0.2l0.1,0l0.2,0l0.1,0.1l0,0.2l0,0.1l0.1,0
		l0.2,0l0-0.1l0,0l0,0.1l0,0.1l0,0.1l0,0l0.1,0l0,0l0,0l0,0l0-0.1l0-0.2L172,72.5L172,72.5z"/>
	<g>
		<g>
			<path class="st1" d="M200.3,39.9c-13.4-0.4-24.5,1.5-38.7,14.7"/>
			<g>
				<path class="st2" d="M161.6,54.5c0.4,0,0.8,0.3,1.1,0.6c-0.6-0.1-1.2-0.1-1.8,0.1c0.3-0.5,0.3-1.2,0.2-1.8
					C161.4,53.7,161.6,54.1,161.6,54.5z"/>
			</g>
		</g>
	</g>
	<g>
		<path class="st3" d="M213.6,38.2h-0.9l-0.5-1.3h-3l-0.5,1.3h-0.9l2.4-6h0.9L213.6,38.2z M212,36.2l-1.3-3.2l-1.3,3.2H212z"/>
		<path class="st3" d="M215,38.2h-0.7v-6h0.7V38.2z"/>
		<path class="st3" d="M217,38.2h-0.7v-6h0.7v2.3c0.4-0.5,0.9-0.8,1.5-0.8c0.6,0,1,0.2,1.4,0.6c0.4,0.4,0.5,1,0.5,1.7
			c0,0.7-0.2,1.2-0.5,1.7s-0.8,0.6-1.4,0.6c-0.6,0-1.1-0.3-1.5-0.8V38.2z M217,37c0.1,0.2,0.3,0.4,0.5,0.5c0.2,0.1,0.5,0.2,0.8,0.2
			c0.4,0,0.8-0.2,1-0.5c0.3-0.3,0.4-0.7,0.4-1.2s-0.1-0.9-0.4-1.2c-0.3-0.3-0.6-0.5-1-0.5c-0.3,0-0.5,0.1-0.8,0.2
			c-0.2,0.1-0.4,0.3-0.5,0.5V37z"/>
		<path class="st3" d="M224.9,38.2h-0.7v-0.5c-0.4,0.4-0.8,0.6-1.4,0.6c-0.4,0-0.8-0.1-1.1-0.4s-0.5-0.6-0.5-1.1
			c0-0.5,0.2-0.8,0.5-1.1s0.7-0.4,1.1-0.4c0.6,0,1.1,0.2,1.4,0.6v-0.8c0-0.3-0.1-0.5-0.3-0.7c-0.2-0.2-0.5-0.2-0.8-0.2
			c-0.5,0-1,0.2-1.3,0.6l-0.3-0.5c0.5-0.5,1-0.7,1.7-0.7c0.5,0,0.9,0.1,1.2,0.4c0.3,0.2,0.5,0.6,0.5,1.1V38.2z M223,37.8
			c0.5,0,0.9-0.2,1.2-0.5v-0.8c-0.3-0.4-0.7-0.5-1.2-0.5c-0.3,0-0.6,0.1-0.8,0.3c-0.2,0.2-0.3,0.4-0.3,0.7c0,0.3,0.1,0.5,0.3,0.7
			C222.5,37.7,222.7,37.8,223,37.8z"/>
		<path class="st3" d="M229.9,38.2h-0.7v-2.8c0-0.4-0.1-0.6-0.3-0.8c-0.2-0.2-0.4-0.2-0.7-0.2c-0.3,0-0.5,0.1-0.7,0.2
			c-0.2,0.1-0.4,0.3-0.6,0.5v3.2h-0.7v-4.3h0.7v0.6c0.2-0.2,0.4-0.4,0.7-0.5c0.3-0.1,0.6-0.2,0.9-0.2c0.9,0,1.4,0.5,1.4,1.4V38.2z"
			/>
		<path class="st3" d="M231.6,33.2c-0.1,0-0.2,0-0.3-0.1c-0.1-0.1-0.1-0.2-0.1-0.3s0-0.2,0.1-0.3c0.1-0.1,0.2-0.1,0.3-0.1
			c0.1,0,0.2,0,0.3,0.1s0.1,0.2,0.1,0.3s0,0.2-0.1,0.3S231.7,33.2,231.6,33.2z M231.9,38.2h-0.7v-4.3h0.7V38.2z"/>
		<path class="st3" d="M236.6,38.2H236v-0.5c-0.4,0.4-0.8,0.6-1.4,0.6c-0.4,0-0.8-0.1-1.1-0.4c-0.3-0.3-0.5-0.6-0.5-1.1
			c0-0.5,0.2-0.8,0.5-1.1c0.3-0.2,0.7-0.4,1.1-0.4c0.6,0,1.1,0.2,1.4,0.6v-0.8c0-0.3-0.1-0.5-0.3-0.7s-0.5-0.2-0.8-0.2
			c-0.5,0-1,0.2-1.3,0.6l-0.3-0.5c0.5-0.5,1-0.7,1.7-0.7c0.5,0,0.9,0.1,1.2,0.4c0.3,0.2,0.5,0.6,0.5,1.1V38.2z M234.8,37.8
			c0.5,0,0.9-0.2,1.2-0.5v-0.8c-0.3-0.4-0.7-0.5-1.2-0.5c-0.3,0-0.6,0.1-0.8,0.3s-0.3,0.4-0.3,0.7c0,0.3,0.1,0.5,0.3,0.7
			S234.5,37.8,234.8,37.8z"/>
	</g>
	<g>
		<path class="st3" d="M212.4,65.6h-3.9v-6h3.9v0.7h-3.2v1.9h3.1v0.7h-3.1v2.1h3.2V65.6z"/>
		<path class="st3" d="M214.2,65.6h-0.7v-4.3h0.7V62c0.4-0.5,0.9-0.8,1.4-0.8v0.7c-0.1,0-0.2,0-0.3,0c-0.2,0-0.4,0.1-0.7,0.2
			c-0.2,0.1-0.4,0.3-0.5,0.5V65.6z"/>
		<path class="st3" d="M216.8,60.6c-0.1,0-0.2,0-0.3-0.1c-0.1-0.1-0.1-0.2-0.1-0.3s0-0.2,0.1-0.3c0.1-0.1,0.2-0.1,0.3-0.1
			c0.1,0,0.2,0,0.3,0.1c0.1,0.1,0.1,0.2,0.1,0.3s0,0.2-0.1,0.3C217.1,60.6,216.9,60.6,216.8,60.6z M217.2,65.6h-0.7v-4.3h0.7V65.6z"
			/>
		<path class="st3" d="M219.6,65.7c-0.3,0-0.6-0.1-0.7-0.3c-0.2-0.2-0.2-0.4-0.2-0.8v-2.8h-0.7v-0.6h0.7v-1.2h0.7v1.2h0.9v0.6h-0.9
			v2.7c0,0.2,0,0.3,0.1,0.4c0.1,0.1,0.2,0.2,0.3,0.2c0.2,0,0.4-0.1,0.5-0.2l0.2,0.5C220.2,65.6,220,65.7,219.6,65.7z"/>
		<path class="st3" d="M221.8,65.6h-0.7v-4.3h0.7V62c0.4-0.5,0.9-0.8,1.4-0.8v0.7c-0.1,0-0.2,0-0.3,0c-0.2,0-0.4,0.1-0.7,0.2
			c-0.2,0.1-0.4,0.3-0.5,0.5V65.6z"/>
		<path class="st3" d="M226.1,65.7c-0.6,0-1.2-0.2-1.6-0.6c-0.4-0.4-0.6-1-0.6-1.7c0-0.6,0.2-1.2,0.6-1.6c0.4-0.4,0.9-0.7,1.5-0.7
			c0.6,0,1.2,0.2,1.5,0.7c0.4,0.4,0.6,1,0.6,1.7v0.2h-3.5c0,0.4,0.2,0.8,0.5,1.1c0.3,0.3,0.6,0.4,1.1,0.4c0.5,0,1-0.2,1.3-0.5
			l0.3,0.4C227.4,65.5,226.8,65.7,226.1,65.7z M227.4,63.2c0-0.4-0.1-0.7-0.4-1c-0.2-0.3-0.6-0.4-1.1-0.4c-0.4,0-0.8,0.1-1,0.4
			c-0.2,0.3-0.4,0.6-0.4,1H227.4z"/>
		<path class="st3" d="M232.6,65.6h-0.7v-0.5c-0.4,0.4-0.8,0.6-1.4,0.6c-0.4,0-0.8-0.1-1.1-0.4c-0.3-0.3-0.5-0.6-0.5-1.1
			c0-0.5,0.2-0.8,0.5-1.1c0.3-0.2,0.7-0.4,1.1-0.4c0.6,0,1.1,0.2,1.4,0.6v-0.8c0-0.3-0.1-0.5-0.3-0.7c-0.2-0.2-0.5-0.2-0.8-0.2
			c-0.5,0-1,0.2-1.3,0.6l-0.3-0.5c0.5-0.5,1-0.7,1.7-0.7c0.5,0,0.9,0.1,1.2,0.4s0.5,0.6,0.5,1.1V65.6z M230.7,65.2
			c0.5,0,0.9-0.2,1.2-0.5v-0.8c-0.3-0.4-0.7-0.5-1.2-0.5c-0.3,0-0.6,0.1-0.8,0.3s-0.3,0.4-0.3,0.7c0,0.3,0.1,0.5,0.3,0.7
			C230.1,65.1,230.4,65.2,230.7,65.2z"/>
	</g>
	<g>
		<path class="st3" d="M210.4,95.4c-1,0-1.7-0.3-2.3-1l0.4-0.6c0.5,0.6,1.1,0.9,1.9,0.9c0.5,0,0.8-0.1,1.1-0.3s0.3-0.4,0.3-0.7
			c0-0.2-0.1-0.4-0.2-0.5c-0.1-0.1-0.3-0.3-0.5-0.3c-0.2-0.1-0.4-0.2-0.7-0.2c-0.3-0.1-0.5-0.1-0.8-0.2s-0.5-0.2-0.7-0.3
			c-0.2-0.1-0.4-0.3-0.5-0.5c-0.1-0.2-0.2-0.5-0.2-0.7c0-0.5,0.2-0.9,0.6-1.2c0.4-0.3,0.9-0.5,1.5-0.5c0.9,0,1.6,0.3,2.1,0.8
			l-0.4,0.5c-0.4-0.5-1-0.7-1.7-0.7c-0.4,0-0.7,0.1-0.9,0.3c-0.2,0.2-0.3,0.4-0.3,0.7c0,0.2,0.1,0.4,0.3,0.5
			c0.2,0.1,0.4,0.2,0.7,0.3c0.3,0.1,0.5,0.1,0.9,0.2c0.3,0.1,0.6,0.2,0.9,0.3c0.3,0.1,0.5,0.3,0.7,0.5s0.3,0.5,0.3,0.9
			c0,0.5-0.2,0.9-0.5,1.2S211.1,95.4,210.4,95.4z"/>
		<path class="st3" d="M215.6,95.4c-0.6,0-1.2-0.2-1.6-0.6c-0.4-0.4-0.6-1-0.6-1.7c0-0.6,0.2-1.2,0.6-1.6c0.4-0.4,0.9-0.7,1.5-0.7
			c0.6,0,1.2,0.2,1.5,0.7c0.4,0.4,0.6,1,0.6,1.7v0.2h-3.5c0,0.4,0.2,0.8,0.5,1.1c0.3,0.3,0.6,0.4,1.1,0.4c0.5,0,1-0.2,1.3-0.5
			l0.3,0.4C216.9,95.2,216.3,95.4,215.6,95.4z M217,92.9c0-0.4-0.1-0.7-0.4-1c-0.2-0.3-0.6-0.4-1.1-0.4c-0.4,0-0.8,0.1-1,0.4
			c-0.2,0.3-0.4,0.6-0.4,1H217z"/>
		<path class="st3" d="M219.4,95.3h-0.7V91h0.7v0.7c0.4-0.5,0.9-0.8,1.4-0.8v0.7c-0.1,0-0.2,0-0.3,0c-0.2,0-0.4,0.1-0.7,0.2
			c-0.2,0.1-0.4,0.3-0.5,0.5V95.3z"/>
		<path class="st3" d="M222.4,95.3h-0.7v-6h0.7v2.3c0.4-0.5,0.9-0.8,1.5-0.8c0.6,0,1,0.2,1.4,0.6c0.4,0.4,0.5,1,0.5,1.7
			c0,0.7-0.2,1.2-0.5,1.7c-0.4,0.4-0.8,0.6-1.4,0.6c-0.6,0-1.1-0.3-1.5-0.8V95.3z M222.4,94.2c0.1,0.2,0.3,0.4,0.5,0.5
			c0.2,0.1,0.5,0.2,0.8,0.2c0.4,0,0.8-0.2,1-0.5s0.4-0.7,0.4-1.2s-0.1-0.9-0.4-1.2c-0.3-0.3-0.6-0.5-1-0.5c-0.3,0-0.5,0.1-0.8,0.2
			s-0.4,0.3-0.5,0.5V94.2z"/>
		<path class="st3" d="M227.2,90.4c-0.1,0-0.2,0-0.3-0.1c-0.1-0.1-0.1-0.2-0.1-0.3s0-0.2,0.1-0.3c0.1-0.1,0.2-0.1,0.3-0.1
			c0.1,0,0.2,0,0.3,0.1c0.1,0.1,0.1,0.2,0.1,0.3s0,0.2-0.1,0.3C227.4,90.3,227.3,90.4,227.2,90.4z M227.6,95.3h-0.7V91h0.7V95.3z"/>
		<path class="st3" d="M232.3,95.3h-0.7v-0.5c-0.4,0.4-0.8,0.6-1.4,0.6c-0.4,0-0.8-0.1-1.1-0.4c-0.3-0.3-0.5-0.6-0.5-1.1
			c0-0.5,0.2-0.8,0.5-1.1c0.3-0.2,0.7-0.4,1.1-0.4c0.6,0,1.1,0.2,1.4,0.6v-0.8c0-0.3-0.1-0.5-0.3-0.7c-0.2-0.2-0.5-0.2-0.8-0.2
			c-0.5,0-1,0.2-1.3,0.6l-0.3-0.5c0.5-0.5,1-0.7,1.7-0.7c0.5,0,0.9,0.1,1.2,0.4s0.5,0.6,0.5,1.1V95.3z M230.4,95
			c0.5,0,0.9-0.2,1.2-0.5v-0.8c-0.3-0.4-0.7-0.5-1.2-0.5c-0.3,0-0.6,0.1-0.8,0.3c-0.2,0.2-0.3,0.4-0.3,0.7c0,0.3,0.1,0.5,0.3,0.7
			C229.9,94.9,230.1,95,230.4,95z"/>
	</g>
	<g>
		<path class="st3" d="M213,126.2H212l-2.3-2.7l-0.6,0.7v2h-0.7v-6h0.7v3.1l2.7-3.1h0.9l-2.5,2.9L213,126.2z"/>
		<path class="st3" d="M217,125.7c-0.4,0.4-0.9,0.7-1.6,0.7c-0.6,0-1.2-0.2-1.6-0.7s-0.6-1-0.6-1.6s0.2-1.2,0.6-1.6
			c0.4-0.4,0.9-0.7,1.6-0.7c0.6,0,1.2,0.2,1.6,0.7c0.4,0.4,0.6,1,0.6,1.6S217.4,125.3,217,125.7z M214.3,125.3
			c0.3,0.3,0.6,0.5,1.1,0.5c0.4,0,0.8-0.2,1.1-0.5s0.4-0.7,0.4-1.2c0-0.5-0.1-0.9-0.4-1.2c-0.3-0.3-0.6-0.5-1.1-0.5
			c-0.4,0-0.8,0.2-1.1,0.5c-0.3,0.3-0.4,0.7-0.4,1.2C213.9,124.5,214.1,124.9,214.3,125.3z"/>
		<path class="st3" d="M220,126.3c-0.7,0-1.3-0.2-1.8-0.7l0.4-0.5c0.2,0.2,0.4,0.3,0.6,0.4c0.3,0.1,0.5,0.2,0.8,0.2
			c0.3,0,0.6-0.1,0.8-0.2c0.2-0.1,0.3-0.3,0.3-0.5c0-0.2-0.1-0.3-0.3-0.5c-0.2-0.1-0.4-0.2-0.7-0.3c-0.3-0.1-0.5-0.1-0.8-0.2
			c-0.3-0.1-0.5-0.2-0.7-0.4c-0.2-0.2-0.3-0.4-0.3-0.7c0-0.4,0.1-0.7,0.4-0.9c0.3-0.2,0.7-0.4,1.2-0.4c0.7,0,1.2,0.2,1.6,0.6
			l-0.3,0.5c-0.3-0.4-0.7-0.5-1.3-0.5c-0.3,0-0.5,0.1-0.7,0.2c-0.2,0.1-0.3,0.3-0.3,0.5c0,0.2,0.1,0.3,0.3,0.4
			c0.2,0.1,0.4,0.2,0.7,0.2s0.5,0.1,0.8,0.2s0.5,0.2,0.7,0.4c0.2,0.2,0.3,0.4,0.3,0.8c0,0.4-0.2,0.7-0.5,0.9
			C221,126.2,220.6,126.3,220,126.3z"/>
		<path class="st3" d="M226.3,125.7c-0.4,0.4-0.9,0.7-1.6,0.7s-1.2-0.2-1.6-0.7c-0.4-0.4-0.6-1-0.6-1.6s0.2-1.2,0.6-1.6
			c0.4-0.4,0.9-0.7,1.6-0.7s1.2,0.2,1.6,0.7c0.4,0.4,0.6,1,0.6,1.6S226.7,125.3,226.3,125.7z M223.7,125.3c0.3,0.3,0.6,0.5,1.1,0.5
			c0.4,0,0.8-0.2,1.1-0.5s0.4-0.7,0.4-1.2c0-0.5-0.1-0.9-0.4-1.2c-0.3-0.3-0.6-0.5-1.1-0.5c-0.4,0-0.8,0.2-1.1,0.5
			c-0.3,0.3-0.4,0.7-0.4,1.2C223.3,124.5,223.4,124.9,223.7,125.3z"/>
		<path class="st3" d="M229.9,126.2h-0.7l-1.8-4.3h0.7l1.4,3.6l1.4-3.6h0.7L229.9,126.2z"/>
		<path class="st3" d="M235.8,125.7c-0.4,0.4-0.9,0.7-1.6,0.7c-0.6,0-1.2-0.2-1.6-0.7s-0.6-1-0.6-1.6s0.2-1.2,0.6-1.6
			c0.4-0.4,0.9-0.7,1.6-0.7c0.6,0,1.2,0.2,1.6,0.7c0.4,0.4,0.6,1,0.6,1.6S236.2,125.3,235.8,125.7z M233.2,125.3
			c0.3,0.3,0.6,0.5,1.1,0.5c0.4,0,0.8-0.2,1.1-0.5s0.4-0.7,0.4-1.2c0-0.5-0.1-0.9-0.4-1.2c-0.3-0.3-0.6-0.5-1.1-0.5
			c-0.4,0-0.8,0.2-1.1,0.5c-0.3,0.3-0.4,0.7-0.4,1.2C232.8,124.5,233,124.9,233.2,125.3z"/>
	</g>
	<g>
		<path class="st3" d="M42.4,36.4c-1,0-1.7-0.3-2.3-1l0.4-0.6c0.5,0.6,1.1,0.9,1.9,0.9c0.5,0,0.8-0.1,1.1-0.3s0.3-0.4,0.3-0.7
			c0-0.2-0.1-0.4-0.2-0.5c-0.1-0.1-0.3-0.3-0.5-0.3s-0.4-0.2-0.7-0.2c-0.3-0.1-0.5-0.1-0.8-0.2c-0.3-0.1-0.5-0.2-0.7-0.3
			s-0.4-0.3-0.5-0.5c-0.1-0.2-0.2-0.5-0.2-0.7c0-0.5,0.2-0.9,0.6-1.2c0.4-0.3,0.9-0.5,1.5-0.5c0.9,0,1.6,0.3,2.1,0.8L44,31.6
			c-0.4-0.5-1-0.7-1.7-0.7c-0.4,0-0.7,0.1-0.9,0.3c-0.2,0.2-0.3,0.4-0.3,0.7c0,0.2,0.1,0.4,0.3,0.5s0.4,0.2,0.7,0.3
			c0.3,0.1,0.5,0.1,0.9,0.2c0.3,0.1,0.6,0.2,0.9,0.3c0.3,0.1,0.5,0.3,0.7,0.5c0.2,0.2,0.3,0.5,0.3,0.9c0,0.5-0.2,0.9-0.5,1.3
			S43.1,36.4,42.4,36.4z"/>
		<path class="st3" d="M49.1,35.7c-0.4,0.4-0.9,0.7-1.6,0.7c-0.6,0-1.2-0.2-1.6-0.7c-0.4-0.4-0.6-1-0.6-1.6c0-0.6,0.2-1.2,0.6-1.6
			c0.4-0.4,0.9-0.7,1.6-0.7c0.6,0,1.2,0.2,1.6,0.7c0.4,0.4,0.6,1,0.6,1.6C49.7,34.8,49.5,35.3,49.1,35.7z M46.5,35.3
			c0.3,0.3,0.6,0.5,1.1,0.5c0.4,0,0.8-0.2,1.1-0.5s0.4-0.7,0.4-1.2c0-0.5-0.1-0.9-0.4-1.2s-0.6-0.5-1.1-0.5c-0.4,0-0.8,0.2-1.1,0.5
			c-0.3,0.3-0.4,0.7-0.4,1.2C46.1,34.6,46.3,35,46.5,35.3z"/>
		<path class="st3" d="M56.8,36.3h-0.7v-3c0-0.6-0.3-0.9-0.8-0.9c-0.2,0-0.4,0.1-0.6,0.2c-0.2,0.1-0.4,0.3-0.5,0.5v3.2h-0.7v-3
			c0-0.6-0.3-0.9-0.8-0.9c-0.2,0-0.4,0.1-0.6,0.2s-0.4,0.3-0.5,0.5v3.2h-0.7v-4.3h0.7v0.6c0.1-0.2,0.3-0.3,0.6-0.5s0.5-0.2,0.8-0.2
			c0.3,0,0.6,0.1,0.8,0.2c0.2,0.2,0.3,0.3,0.4,0.6c0.1-0.2,0.3-0.4,0.6-0.6c0.3-0.2,0.6-0.2,0.9-0.2c0.8,0,1.2,0.4,1.2,1.3V36.3z"/>
		<path class="st3" d="M61.5,36.3h-0.7v-0.5c-0.4,0.4-0.8,0.6-1.4,0.6c-0.4,0-0.8-0.1-1.1-0.4c-0.3-0.3-0.5-0.6-0.5-1.1
			c0-0.5,0.2-0.8,0.5-1.1c0.3-0.2,0.7-0.4,1.1-0.4c0.6,0,1.1,0.2,1.4,0.6v-0.8c0-0.3-0.1-0.5-0.3-0.7c-0.2-0.2-0.5-0.2-0.8-0.2
			c-0.5,0-1,0.2-1.3,0.6l-0.3-0.5c0.5-0.5,1-0.7,1.7-0.7c0.5,0,0.9,0.1,1.2,0.4c0.3,0.2,0.5,0.6,0.5,1.1V36.3z M59.6,35.9
			c0.5,0,0.9-0.2,1.2-0.5v-0.8c-0.3-0.4-0.7-0.5-1.2-0.5c-0.3,0-0.6,0.1-0.8,0.3s-0.3,0.4-0.3,0.7c0,0.3,0.1,0.5,0.3,0.7
			S59.3,35.9,59.6,35.9z"/>
		<path class="st3" d="M63.5,36.3h-0.7v-6h0.7V36.3z"/>
		<path class="st3" d="M65.2,31.3c-0.1,0-0.2,0-0.3-0.1s-0.1-0.2-0.1-0.3s0-0.2,0.1-0.3s0.2-0.1,0.3-0.1c0.1,0,0.2,0,0.3,0.1
			s0.1,0.2,0.1,0.3s0,0.2-0.1,0.3S65.3,31.3,65.2,31.3z M65.6,36.3h-0.7v-4.3h0.7V36.3z"/>
		<path class="st3" d="M70.3,36.3h-0.7v-0.5c-0.4,0.4-0.8,0.6-1.4,0.6c-0.4,0-0.8-0.1-1.1-0.4c-0.3-0.3-0.5-0.6-0.5-1.1
			c0-0.5,0.2-0.8,0.5-1.1c0.3-0.2,0.7-0.4,1.1-0.4c0.6,0,1.1,0.2,1.4,0.6v-0.8c0-0.3-0.1-0.5-0.3-0.7c-0.2-0.2-0.5-0.2-0.8-0.2
			c-0.5,0-1,0.2-1.3,0.6l-0.3-0.5c0.5-0.5,1-0.7,1.7-0.7c0.5,0,0.9,0.1,1.2,0.4c0.3,0.2,0.5,0.6,0.5,1.1V36.3z M68.4,35.9
			c0.5,0,0.9-0.2,1.2-0.5v-0.8C69.4,34.2,69,34,68.4,34c-0.3,0-0.6,0.1-0.8,0.3s-0.3,0.4-0.3,0.7c0,0.3,0.1,0.5,0.3,0.7
			S68.1,35.9,68.4,35.9z"/>
	</g>
	<g>
		<path class="st3" d="M143.7,15.1H143v-6h0.7V15.1z"/>
		<path class="st3" d="M145.8,15.1h-0.7v-4.3h0.7v0.7c0.4-0.5,0.9-0.8,1.4-0.8v0.7c-0.1,0-0.2,0-0.3,0c-0.2,0-0.4,0.1-0.7,0.2
			s-0.4,0.3-0.5,0.5V15.1z"/>
		<path class="st3" d="M151.5,15.1h-0.7v-0.5c-0.4,0.4-0.8,0.6-1.4,0.6c-0.4,0-0.8-0.1-1.1-0.4c-0.3-0.3-0.5-0.6-0.5-1.1
			c0-0.5,0.2-0.8,0.5-1.1c0.3-0.2,0.7-0.4,1.1-0.4c0.6,0,1.1,0.2,1.4,0.6v-0.8c0-0.3-0.1-0.5-0.3-0.7c-0.2-0.2-0.5-0.2-0.8-0.2
			c-0.5,0-1,0.2-1.3,0.6l-0.3-0.5c0.5-0.5,1-0.7,1.7-0.7c0.5,0,0.9,0.1,1.2,0.4s0.5,0.6,0.5,1.1V15.1z M149.6,14.8
			c0.5,0,0.9-0.2,1.2-0.5v-0.8c-0.3-0.4-0.7-0.5-1.2-0.5c-0.3,0-0.6,0.1-0.8,0.3c-0.2,0.2-0.3,0.4-0.3,0.7c0,0.3,0.1,0.5,0.3,0.7
			C149,14.7,149.3,14.8,149.6,14.8z"/>
		<path class="st3" d="M154.5,15.3c-0.6,0-1-0.2-1.4-0.6s-0.5-1-0.5-1.7s0.2-1.2,0.5-1.7s0.8-0.6,1.4-0.6c0.3,0,0.6,0.1,0.8,0.2
			c0.3,0.1,0.5,0.3,0.6,0.5v-0.6h0.7v6h-0.7v-2.3C155.6,15,155.1,15.3,154.5,15.3z M154.6,14.6c0.3,0,0.5-0.1,0.8-0.2
			c0.2-0.1,0.4-0.3,0.5-0.5v-2c-0.1-0.2-0.3-0.4-0.5-0.5c-0.2-0.1-0.5-0.2-0.8-0.2c-0.4,0-0.8,0.2-1,0.5c-0.2,0.3-0.4,0.7-0.4,1.2
			c0,0.5,0.1,0.9,0.4,1.2C153.9,14.5,154.2,14.6,154.6,14.6z"/>
	</g>
	<g>
		<path class="st3" d="M54.2,151.4c-1,0-1.7-0.3-2.3-1l0.4-0.6c0.5,0.6,1.1,0.9,1.9,0.9c0.5,0,0.8-0.1,1.1-0.3
			c0.2-0.2,0.3-0.4,0.3-0.7c0-0.2-0.1-0.4-0.2-0.5c-0.1-0.1-0.3-0.3-0.5-0.3s-0.4-0.2-0.7-0.2c-0.3-0.1-0.5-0.1-0.8-0.2
			s-0.5-0.2-0.7-0.3s-0.4-0.3-0.5-0.5c-0.1-0.2-0.2-0.5-0.2-0.7c0-0.5,0.2-0.9,0.6-1.2c0.4-0.3,0.9-0.5,1.5-0.5
			c0.9,0,1.6,0.3,2.1,0.8l-0.5,0.5c-0.4-0.5-1-0.7-1.7-0.7c-0.4,0-0.7,0.1-0.9,0.3c-0.2,0.2-0.3,0.4-0.3,0.7c0,0.2,0.1,0.4,0.3,0.5
			c0.2,0.1,0.4,0.2,0.7,0.3c0.3,0.1,0.5,0.1,0.9,0.2c0.3,0.1,0.6,0.2,0.9,0.3c0.3,0.1,0.5,0.3,0.7,0.5c0.2,0.2,0.3,0.5,0.3,0.9
			c0,0.5-0.2,0.9-0.5,1.3C55.6,151.2,55,151.4,54.2,151.4z"/>
		<path class="st3" d="M57.3,153l0.1-0.6c0.1,0,0.2,0.1,0.4,0.1c0.2,0,0.3,0,0.4-0.1c0.1-0.1,0.2-0.2,0.3-0.4l0.3-0.7l-1.8-4.4h0.7
			l1.4,3.6l1.4-3.6h0.7l-2.2,5.2c-0.2,0.6-0.7,0.9-1.3,0.9C57.6,153,57.4,153,57.3,153z"/>
		<path class="st3" d="M62.6,151.3h-0.7v-4.3h0.7v0.7c0.4-0.5,0.9-0.8,1.4-0.8v0.7c-0.1,0-0.2,0-0.3,0c-0.2,0-0.4,0.1-0.7,0.2
			c-0.2,0.1-0.4,0.3-0.5,0.5V151.3z"/>
		<path class="st3" d="M65.2,146.3c-0.1,0-0.2,0-0.3-0.1c-0.1-0.1-0.1-0.2-0.1-0.3s0-0.2,0.1-0.3c0.1-0.1,0.2-0.1,0.3-0.1
			c0.1,0,0.2,0,0.3,0.1s0.1,0.2,0.1,0.3s0,0.2-0.1,0.3S65.3,146.3,65.2,146.3z M65.6,151.3h-0.7v-4.3h0.7V151.3z"/>
		<path class="st3" d="M70.3,151.3h-0.7v-0.5c-0.4,0.4-0.8,0.6-1.4,0.6c-0.4,0-0.8-0.1-1.1-0.4s-0.5-0.6-0.5-1.1
			c0-0.5,0.2-0.8,0.5-1.1s0.7-0.4,1.1-0.4c0.6,0,1.1,0.2,1.4,0.6v-0.8c0-0.3-0.1-0.5-0.3-0.7c-0.2-0.2-0.5-0.2-0.8-0.2
			c-0.5,0-1,0.2-1.3,0.6l-0.3-0.5c0.5-0.5,1-0.7,1.7-0.7c0.5,0,0.9,0.1,1.2,0.4c0.3,0.2,0.5,0.6,0.5,1.1V151.3z M68.4,150.9
			c0.5,0,0.9-0.2,1.2-0.5v-0.8c-0.3-0.4-0.7-0.5-1.2-0.5c-0.3,0-0.6,0.1-0.8,0.3c-0.2,0.2-0.3,0.4-0.3,0.7c0,0.3,0.1,0.5,0.3,0.7
			C67.9,150.8,68.1,150.9,68.4,150.9z"/>
	</g>
	<g>
		<path class="st3" d="M30,65.2h-0.9l-0.5-1.3h-3l-0.5,1.3h-0.9l2.4-6h0.9L30,65.2z M28.4,63.2l-1.3-3.2l-1.3,3.2H28.4z"/>
		<path class="st3" d="M31.6,65.2h-0.7v-3.8h-0.7v-0.6h0.7v-0.3c0-0.4,0.1-0.8,0.3-1c0.2-0.2,0.5-0.4,0.9-0.4c0.4,0,0.7,0.1,0.9,0.3
			l-0.3,0.4c-0.2-0.1-0.3-0.2-0.5-0.2c-0.2,0-0.4,0.1-0.5,0.2c-0.1,0.1-0.2,0.4-0.2,0.6v0.3h0.9v0.6h-0.9V65.2z"/>
		<path class="st3" d="M35,66.9c-0.4,0-0.7,0-1-0.1c-0.3-0.1-0.5-0.3-0.8-0.5l0.3-0.5c0.3,0.4,0.8,0.6,1.4,0.6c0.4,0,0.7-0.1,1-0.3
			c0.3-0.2,0.4-0.5,0.4-1v-0.6c-0.2,0.2-0.4,0.4-0.6,0.6c-0.3,0.1-0.5,0.2-0.8,0.2c-0.6,0-1-0.2-1.4-0.6c-0.4-0.4-0.5-1-0.5-1.6
			c0-0.7,0.2-1.2,0.5-1.6c0.4-0.4,0.8-0.6,1.4-0.6c0.6,0,1.1,0.3,1.5,0.8v-0.7h0.7V65c0,0.7-0.2,1.1-0.6,1.4
			C36.1,66.8,35.6,66.9,35,66.9z M35.1,64.6c0.3,0,0.5-0.1,0.8-0.2s0.4-0.3,0.5-0.5V62c-0.1-0.2-0.3-0.4-0.5-0.5
			c-0.2-0.1-0.5-0.2-0.8-0.2c-0.4,0-0.8,0.2-1,0.5c-0.2,0.3-0.4,0.7-0.4,1.2c0,0.5,0.1,0.9,0.4,1.2C34.3,64.5,34.7,64.6,35.1,64.6z"
			/>
		<path class="st3" d="M42,65.2h-0.7v-2.9c0-0.4-0.1-0.6-0.3-0.8c-0.2-0.2-0.4-0.2-0.7-0.2c-0.2,0-0.5,0.1-0.7,0.2
			c-0.2,0.1-0.4,0.3-0.6,0.5v3.2h-0.7v-6h0.7v2.3c0.2-0.2,0.4-0.4,0.7-0.5c0.3-0.1,0.6-0.2,0.9-0.2c0.9,0,1.4,0.5,1.4,1.4V65.2z"/>
		<path class="st3" d="M46.8,65.2h-0.7v-0.5c-0.4,0.4-0.8,0.6-1.4,0.6c-0.4,0-0.8-0.1-1.1-0.4c-0.3-0.3-0.5-0.6-0.5-1.1
			c0-0.5,0.2-0.8,0.5-1.1s0.7-0.4,1.1-0.4c0.6,0,1.1,0.2,1.4,0.6v-0.8c0-0.3-0.1-0.5-0.3-0.7s-0.5-0.2-0.8-0.2c-0.5,0-1,0.2-1.3,0.6
			l-0.3-0.5c0.5-0.5,1-0.7,1.7-0.7c0.5,0,0.9,0.1,1.2,0.4c0.3,0.2,0.5,0.6,0.5,1.1V65.2z M44.9,64.8c0.5,0,0.9-0.2,1.2-0.5v-0.8
			c-0.3-0.4-0.7-0.5-1.2-0.5c-0.3,0-0.6,0.1-0.8,0.3c-0.2,0.2-0.3,0.4-0.3,0.7c0,0.3,0.1,0.5,0.3,0.7C44.3,64.7,44.6,64.8,44.9,64.8
			z"/>
		<path class="st3" d="M51.7,65.2h-0.7v-2.8c0-0.4-0.1-0.6-0.3-0.8c-0.2-0.2-0.4-0.2-0.7-0.2c-0.3,0-0.5,0.1-0.7,0.2
			c-0.2,0.1-0.4,0.3-0.6,0.5v3.2h-0.7v-4.3h0.7v0.6c0.2-0.2,0.4-0.4,0.7-0.5c0.3-0.1,0.6-0.2,0.9-0.2c0.9,0,1.4,0.5,1.4,1.4V65.2z"
			/>
		<path class="st3" d="M53.4,60.2c-0.1,0-0.2,0-0.3-0.1C53,60,53,59.9,53,59.7s0-0.2,0.1-0.3c0.1-0.1,0.2-0.1,0.3-0.1
			c0.1,0,0.2,0,0.3,0.1s0.1,0.2,0.1,0.3s0,0.2-0.1,0.3S53.5,60.2,53.4,60.2z M53.8,65.2h-0.7v-4.3h0.7V65.2z"/>
		<path class="st3" d="M56.5,65.3c-0.7,0-1.3-0.2-1.8-0.7l0.4-0.5c0.2,0.2,0.4,0.3,0.6,0.4c0.3,0.1,0.5,0.2,0.8,0.2
			c0.3,0,0.6-0.1,0.8-0.2c0.2-0.1,0.3-0.3,0.3-0.5c0-0.2-0.1-0.3-0.3-0.5s-0.4-0.2-0.7-0.3c-0.3-0.1-0.5-0.1-0.8-0.2
			c-0.3-0.1-0.5-0.2-0.7-0.4c-0.2-0.2-0.3-0.4-0.3-0.7c0-0.4,0.1-0.7,0.4-0.9c0.3-0.2,0.7-0.4,1.2-0.4c0.7,0,1.2,0.2,1.6,0.6
			l-0.3,0.5c-0.3-0.4-0.7-0.5-1.3-0.5c-0.3,0-0.5,0.1-0.7,0.2s-0.3,0.3-0.3,0.5c0,0.2,0.1,0.3,0.3,0.4c0.2,0.1,0.4,0.2,0.7,0.2
			c0.3,0.1,0.5,0.1,0.8,0.2s0.5,0.2,0.7,0.4s0.3,0.4,0.3,0.8c0,0.4-0.2,0.7-0.5,0.9C57.4,65.1,57,65.3,56.5,65.3z"/>
		<path class="st3" d="M60.4,65.3c-0.3,0-0.6-0.1-0.7-0.3s-0.2-0.4-0.2-0.8v-2.8h-0.7v-0.6h0.7v-1.2h0.7v1.2H61v0.6h-0.9v2.7
			c0,0.2,0,0.3,0.1,0.4c0.1,0.1,0.2,0.2,0.3,0.2c0.2,0,0.4-0.1,0.5-0.2l0.2,0.5C61,65.2,60.7,65.3,60.4,65.3z"/>
		<path class="st3" d="M65.3,65.2h-0.7v-0.5c-0.4,0.4-0.8,0.6-1.4,0.6c-0.4,0-0.8-0.1-1.1-0.4c-0.3-0.3-0.5-0.6-0.5-1.1
			c0-0.5,0.2-0.8,0.5-1.1c0.3-0.2,0.7-0.4,1.1-0.4c0.6,0,1.1,0.2,1.4,0.6v-0.8c0-0.3-0.1-0.5-0.3-0.7c-0.2-0.2-0.5-0.2-0.8-0.2
			c-0.5,0-1,0.2-1.3,0.6l-0.3-0.5c0.5-0.5,1-0.7,1.7-0.7c0.5,0,0.9,0.1,1.2,0.4c0.3,0.2,0.5,0.6,0.5,1.1V65.2z M63.5,64.8
			c0.5,0,0.9-0.2,1.2-0.5v-0.8c-0.3-0.4-0.7-0.5-1.2-0.5c-0.3,0-0.6,0.1-0.8,0.3s-0.3,0.4-0.3,0.7c0,0.3,0.1,0.5,0.3,0.7
			S63.2,64.8,63.5,64.8z"/>
		<path class="st3" d="M70.3,65.2h-0.7v-2.8c0-0.4-0.1-0.6-0.3-0.8c-0.2-0.2-0.4-0.2-0.7-0.2c-0.3,0-0.5,0.1-0.7,0.2
			c-0.2,0.1-0.4,0.3-0.6,0.5v3.2h-0.7v-4.3h0.7v0.6c0.2-0.2,0.4-0.4,0.7-0.5c0.3-0.1,0.6-0.2,0.9-0.2c0.9,0,1.4,0.5,1.4,1.4V65.2z"
			/>
	</g>
	<g>
		<path class="st3" d="M57.6,95.3h-0.7v-6h0.7V95.3z"/>
		<path class="st3" d="M59.6,95.3H59V91h0.7v0.7c0.4-0.5,0.9-0.8,1.4-0.8v0.7c-0.1,0-0.2,0-0.3,0c-0.2,0-0.4,0.1-0.7,0.2
			c-0.2,0.1-0.4,0.3-0.5,0.5V95.3z"/>
		<path class="st3" d="M65.3,95.3h-0.7v-0.5c-0.4,0.4-0.8,0.6-1.4,0.6c-0.4,0-0.8-0.1-1.1-0.4c-0.3-0.3-0.5-0.6-0.5-1.1
			c0-0.5,0.2-0.8,0.5-1.1c0.3-0.2,0.7-0.4,1.1-0.4c0.6,0,1.1,0.2,1.4,0.6v-0.8c0-0.3-0.1-0.5-0.3-0.7s-0.5-0.2-0.8-0.2
			c-0.5,0-1,0.2-1.3,0.6l-0.3-0.5c0.5-0.5,1-0.7,1.7-0.7c0.5,0,0.9,0.1,1.2,0.4c0.3,0.2,0.5,0.6,0.5,1.1V95.3z M63.5,95
			c0.5,0,0.9-0.2,1.2-0.5v-0.8c-0.3-0.4-0.7-0.5-1.2-0.5c-0.3,0-0.6,0.1-0.8,0.3s-0.3,0.4-0.3,0.7c0,0.3,0.1,0.5,0.3,0.7
			C62.9,94.9,63.2,95,63.5,95z"/>
		<path class="st3" d="M70.3,95.3h-0.7v-2.8c0-0.4-0.1-0.6-0.3-0.8c-0.2-0.2-0.4-0.2-0.7-0.2c-0.3,0-0.5,0.1-0.7,0.2
			c-0.2,0.1-0.4,0.3-0.6,0.5v3.2h-0.7V91h0.7v0.6c0.2-0.2,0.4-0.4,0.7-0.5c0.3-0.1,0.6-0.2,0.9-0.2c0.9,0,1.4,0.5,1.4,1.4V95.3z"/>
	</g>
	<g>
		<path class="st3" d="M37.9,123.2c-1,0-1.7-0.3-2.3-1l0.4-0.6c0.5,0.6,1.1,0.9,1.9,0.9c0.5,0,0.8-0.1,1.1-0.3s0.3-0.4,0.3-0.7
			c0-0.2-0.1-0.4-0.2-0.5c-0.1-0.1-0.3-0.3-0.5-0.3s-0.4-0.2-0.7-0.2c-0.3-0.1-0.5-0.1-0.8-0.2c-0.3-0.1-0.5-0.2-0.7-0.3
			s-0.4-0.3-0.5-0.5c-0.1-0.2-0.2-0.5-0.2-0.7c0-0.5,0.2-0.9,0.6-1.2c0.4-0.3,0.9-0.5,1.5-0.5c0.9,0,1.6,0.3,2.1,0.8l-0.5,0.5
			c-0.4-0.5-1-0.7-1.7-0.7c-0.4,0-0.7,0.1-0.9,0.3c-0.2,0.2-0.3,0.4-0.3,0.7c0,0.2,0.1,0.4,0.3,0.5s0.4,0.2,0.7,0.3
			c0.3,0.1,0.5,0.1,0.9,0.2c0.3,0.1,0.6,0.2,0.9,0.3c0.3,0.1,0.5,0.3,0.7,0.5c0.2,0.2,0.3,0.5,0.3,0.9c0,0.5-0.2,0.9-0.5,1.3
			S38.7,123.2,37.9,123.2z"/>
		<path class="st3" d="M42.2,123.2c-0.3,0-0.6-0.1-0.7-0.3c-0.2-0.2-0.2-0.4-0.2-0.8v-2.8h-0.7v-0.6h0.7v-1.2h0.7v1.2h0.9v0.6h-0.9
			v2.7c0,0.2,0,0.3,0.1,0.4c0.1,0.1,0.2,0.2,0.3,0.2c0.2,0,0.4-0.1,0.5-0.2L43,123C42.8,123.1,42.5,123.2,42.2,123.2z"/>
		<path class="st3" d="M47.1,123.1h-0.7v-0.5c-0.4,0.4-0.8,0.6-1.4,0.6c-0.4,0-0.8-0.1-1.1-0.4s-0.5-0.6-0.5-1.1
			c0-0.5,0.2-0.8,0.5-1.1s0.7-0.4,1.1-0.4c0.6,0,1.1,0.2,1.4,0.6v-0.8c0-0.3-0.1-0.5-0.3-0.7c-0.2-0.2-0.5-0.2-0.8-0.2
			c-0.5,0-1,0.2-1.3,0.6l-0.3-0.5c0.5-0.5,1-0.7,1.7-0.7c0.5,0,0.9,0.1,1.2,0.4c0.3,0.2,0.5,0.6,0.5,1.1V123.1z M45.2,122.7
			c0.5,0,0.9-0.2,1.2-0.5v-0.8c-0.3-0.4-0.7-0.5-1.2-0.5c-0.3,0-0.6,0.1-0.8,0.3c-0.2,0.2-0.3,0.4-0.3,0.7c0,0.3,0.1,0.5,0.3,0.7
			C44.7,122.7,44.9,122.7,45.2,122.7z"/>
		<path class="st3" d="M49.6,123.2c-0.3,0-0.6-0.1-0.7-0.3s-0.2-0.4-0.2-0.8v-2.8h-0.7v-0.6h0.7v-1.2h0.7v1.2h0.9v0.6h-0.9v2.7
			c0,0.2,0,0.3,0.1,0.4c0.1,0.1,0.2,0.2,0.3,0.2c0.2,0,0.4-0.1,0.5-0.2l0.2,0.5C50.2,123.1,49.9,123.2,49.6,123.2z"/>
		<path class="st3" d="M53.1,123.2c-0.6,0-1.2-0.2-1.6-0.6c-0.4-0.4-0.6-1-0.6-1.7c0-0.6,0.2-1.2,0.6-1.6c0.4-0.4,0.9-0.7,1.5-0.7
			c0.6,0,1.2,0.2,1.5,0.7c0.4,0.4,0.6,1,0.6,1.7v0.2h-3.5c0,0.4,0.2,0.8,0.5,1.1c0.3,0.3,0.6,0.4,1.1,0.4c0.5,0,1-0.2,1.3-0.5
			l0.3,0.4C54.4,123,53.8,123.2,53.1,123.2z M54.4,120.7c0-0.4-0.1-0.7-0.4-1c-0.2-0.3-0.6-0.4-1.1-0.4c-0.4,0-0.8,0.1-1,0.4
			c-0.2,0.3-0.4,0.6-0.4,1H54.4z"/>
		<path class="st3" d="M56.9,123.1h-0.7v-6h0.7V123.1z"/>
		<path class="st3" d="M60.2,123.2c-0.6,0-1.2-0.2-1.6-0.6c-0.4-0.4-0.6-1-0.6-1.7c0-0.6,0.2-1.2,0.6-1.6c0.4-0.4,0.9-0.7,1.5-0.7
			c0.6,0,1.2,0.2,1.5,0.7c0.4,0.4,0.6,1,0.6,1.7v0.2h-3.5c0,0.4,0.2,0.8,0.5,1.1c0.3,0.3,0.6,0.4,1.1,0.4c0.5,0,1-0.2,1.3-0.5
			l0.3,0.4C61.5,123,60.9,123.2,60.2,123.2z M61.5,120.7c0-0.4-0.1-0.7-0.4-1c-0.2-0.3-0.6-0.4-1.1-0.4c-0.4,0-0.8,0.1-1,0.4
			c-0.2,0.3-0.4,0.6-0.4,1H61.5z"/>
		<path class="st3" d="M64.7,123.2c-0.7,0-1.3-0.2-1.8-0.7l0.4-0.5c0.1,0.2,0.4,0.3,0.6,0.4c0.3,0.1,0.5,0.2,0.8,0.2
			c0.3,0,0.6-0.1,0.8-0.2c0.2-0.1,0.3-0.3,0.3-0.5c0-0.2-0.1-0.3-0.3-0.5c-0.2-0.1-0.4-0.2-0.7-0.3c-0.3-0.1-0.5-0.1-0.8-0.2
			s-0.5-0.2-0.7-0.4c-0.2-0.2-0.3-0.4-0.3-0.7c0-0.4,0.1-0.7,0.4-0.9c0.3-0.2,0.7-0.4,1.2-0.4c0.7,0,1.2,0.2,1.6,0.6l-0.3,0.5
			c-0.3-0.4-0.7-0.5-1.3-0.5c-0.3,0-0.5,0.1-0.7,0.2c-0.2,0.1-0.3,0.3-0.3,0.5c0,0.2,0.1,0.3,0.3,0.4c0.2,0.1,0.4,0.2,0.7,0.2
			c0.3,0.1,0.5,0.1,0.8,0.2c0.3,0.1,0.5,0.2,0.7,0.4s0.3,0.4,0.3,0.8c0,0.4-0.2,0.7-0.5,0.9C65.6,123.1,65.2,123.2,64.7,123.2z"/>
		<path class="st3" d="M68.8,123.2c-0.7,0-1.3-0.2-1.8-0.7l0.4-0.5c0.2,0.2,0.4,0.3,0.6,0.4c0.3,0.1,0.5,0.2,0.8,0.2
			c0.3,0,0.6-0.1,0.8-0.2c0.2-0.1,0.3-0.3,0.3-0.5c0-0.2-0.1-0.3-0.3-0.5c-0.2-0.1-0.4-0.2-0.7-0.3c-0.3-0.1-0.5-0.1-0.8-0.2
			s-0.5-0.2-0.7-0.4c-0.2-0.2-0.3-0.4-0.3-0.7c0-0.4,0.1-0.7,0.4-0.9c0.3-0.2,0.7-0.4,1.2-0.4c0.7,0,1.2,0.2,1.6,0.6l-0.3,0.5
			c-0.3-0.4-0.7-0.5-1.3-0.5c-0.3,0-0.5,0.1-0.7,0.2c-0.2,0.1-0.3,0.3-0.3,0.5c0,0.2,0.1,0.3,0.3,0.4c0.2,0.1,0.4,0.2,0.7,0.2
			c0.3,0.1,0.5,0.1,0.8,0.2s0.5,0.2,0.7,0.4c0.2,0.2,0.3,0.4,0.3,0.8c0,0.4-0.2,0.7-0.5,0.9C69.8,123.1,69.4,123.2,68.8,123.2z"/>
	</g>
	<g>
		<path class="st0" d="M214,51.9h-6v-1.1c1.7-1.3,2.9-2.3,3.6-2.9s0.9-1.2,0.9-1.8c0-0.4-0.1-0.7-0.4-0.9s-0.7-0.3-1.1-0.3
			c-0.9,0-1.7,0.3-2.2,1l-0.8-1c0.4-0.4,0.8-0.8,1.4-1c0.5-0.2,1.1-0.3,1.7-0.3c0.9,0,1.6,0.2,2.1,0.7c0.6,0.5,0.9,1.1,0.9,1.9
			c0,0.7-0.3,1.4-0.9,2.1c-0.6,0.7-1.5,1.5-2.8,2.5h3.7V51.9z"/>
		<path class="st0" d="M218.6,52.1c-1.3,0-2.4-0.4-3.1-1.3l0.8-1c0.6,0.7,1.3,1,2.2,1c0.5,0,0.9-0.1,1.2-0.4s0.5-0.6,0.5-1
			c0-0.5-0.2-0.8-0.5-1.1s-0.7-0.4-1.2-0.4c-0.7,0-1.3,0.2-1.8,0.7l-1-0.3v-4.7h5.5v1.3h-4v2.4c0.5-0.5,1.1-0.7,1.9-0.7
			c0.7,0,1.4,0.2,1.9,0.7c0.5,0.5,0.8,1.1,0.8,2c0,0.9-0.3,1.5-0.9,2.1C220.3,51.8,219.6,52.1,218.6,52.1z"/>
		<path class="st0" d="M227.7,51.7c-0.4,0.2-0.9,0.4-1.5,0.4s-1.1-0.1-1.5-0.4s-0.8-0.6-1.1-1c-0.3-0.4-0.5-0.9-0.6-1.4
			s-0.2-1-0.2-1.6s0.1-1.1,0.2-1.6s0.3-1,0.6-1.4c0.3-0.4,0.6-0.7,1.1-1s0.9-0.4,1.5-0.4s1.1,0.1,1.5,0.4s0.8,0.6,1,1
			c0.3,0.4,0.5,0.9,0.6,1.4c0.1,0.5,0.2,1,0.2,1.6s-0.1,1.1-0.2,1.6c-0.1,0.5-0.3,1-0.6,1.4S228.1,51.4,227.7,51.7z M224.8,49.9
			c0.3,0.6,0.8,0.9,1.4,0.9s1.1-0.3,1.4-0.9c0.3-0.6,0.4-1.3,0.4-2.2c0-0.6-0.1-1.1-0.2-1.5c-0.1-0.4-0.3-0.8-0.6-1.1
			c-0.3-0.3-0.6-0.4-1.1-0.4s-0.8,0.1-1.1,0.4c-0.3,0.3-0.5,0.6-0.6,1.1c-0.1,0.4-0.2,0.9-0.2,1.5C224.3,48.6,224.5,49.3,224.8,49.9
			z"/>
	</g>
	<g>
		<path class="st0" d="M210.5,77.7h-1.6l3.2-7.1h-4.3v-1.3h6v1L210.5,77.7z"/>
		<path class="st0" d="M217.8,77.8c-1.3,0-2.4-0.4-3.1-1.3l0.8-1c0.6,0.7,1.3,1,2.2,1c0.5,0,0.9-0.1,1.2-0.4c0.3-0.3,0.5-0.6,0.5-1
			c0-0.4-0.2-0.8-0.5-1.1c-0.3-0.3-0.7-0.4-1.2-0.4c-0.7,0-1.3,0.2-1.8,0.7l-1-0.3v-4.7h5.5v1.3h-4V73c0.5-0.5,1.1-0.7,1.9-0.7
			c0.7,0,1.4,0.2,1.9,0.7c0.5,0.5,0.8,1.1,0.8,2c0,0.9-0.3,1.5-0.9,2.1C219.5,77.5,218.8,77.8,217.8,77.8z"/>
		<path class="st0" d="M226.9,77.4c-0.4,0.2-0.9,0.4-1.5,0.4c-0.6,0-1.1-0.1-1.5-0.4c-0.4-0.2-0.8-0.6-1.1-1s-0.5-0.9-0.6-1.4
			c-0.1-0.5-0.2-1-0.2-1.6s0.1-1.1,0.2-1.6c0.1-0.5,0.3-1,0.6-1.4c0.3-0.4,0.6-0.7,1.1-1c0.4-0.2,0.9-0.4,1.5-0.4
			c0.6,0,1.1,0.1,1.5,0.4c0.4,0.2,0.8,0.6,1,1c0.3,0.4,0.5,0.9,0.6,1.4s0.2,1,0.2,1.6s-0.1,1.1-0.2,1.6s-0.3,1-0.6,1.4
			C227.7,76.8,227.3,77.2,226.9,77.4z M224,75.7c0.3,0.6,0.8,0.8,1.4,0.8c0.6,0,1.1-0.3,1.4-0.8s0.5-1.3,0.5-2.2
			c0-0.6-0.1-1.1-0.2-1.5s-0.3-0.8-0.6-1.1c-0.3-0.3-0.6-0.4-1.1-0.4c-0.4,0-0.8,0.1-1.1,0.4c-0.3,0.3-0.5,0.6-0.6,1.1
			c-0.1,0.4-0.2,0.9-0.2,1.5C223.5,74.4,223.7,75.1,224,75.7z"/>
	</g>
	<g>
		<path class="st0" d="M213.2,108h-1.5v-1.9h-4V105l3.4-5.3h2v5.2h1.1v1.3h-1.1V108z M211.7,104.9V101l-2.5,3.8H211.7z"/>
		<path class="st0" d="M220,107.8c-0.4,0.2-0.9,0.4-1.5,0.4s-1.1-0.1-1.5-0.4s-0.8-0.6-1.1-1c-0.3-0.4-0.5-0.9-0.6-1.4
			s-0.2-1-0.2-1.6s0.1-1.1,0.2-1.6s0.3-1,0.6-1.4c0.3-0.4,0.6-0.7,1.1-1s0.9-0.4,1.5-0.4s1.1,0.1,1.5,0.4s0.8,0.6,1,1
			c0.3,0.4,0.5,0.9,0.6,1.4c0.1,0.5,0.2,1,0.2,1.6s-0.1,1.1-0.2,1.6c-0.1,0.5-0.3,1-0.6,1.4S220.4,107.6,220,107.8z M217.1,106
			c0.3,0.6,0.8,0.8,1.4,0.8s1.1-0.3,1.4-0.8c0.3-0.6,0.4-1.3,0.4-2.2c0-0.6-0.1-1.1-0.2-1.5c-0.1-0.4-0.3-0.8-0.6-1.1
			c-0.3-0.3-0.6-0.4-1.1-0.4s-0.8,0.1-1.1,0.4c-0.3,0.3-0.5,0.6-0.6,1.1c-0.1,0.4-0.2,0.9-0.2,1.5
			C216.6,104.7,216.8,105.5,217.1,106z"/>
	</g>
	<g>
		<path class="st0" d="M47.6,164.7h-1.5v-6.4l-1.4,1.4l-0.9-0.9l2.4-2.4h1.3V164.7z"/>
		<path class="st0" d="M51,164.2c0,0.4-0.1,0.8-0.3,1.2s-0.5,0.7-0.9,0.9l-0.6-0.5c0.2-0.1,0.4-0.3,0.6-0.5c0.2-0.2,0.3-0.4,0.3-0.7
			c-0.1,0-0.1,0-0.2,0c-0.2,0-0.4-0.1-0.5-0.2c-0.1-0.1-0.2-0.3-0.2-0.6s0.1-0.4,0.2-0.6c0.2-0.2,0.4-0.3,0.6-0.3
			c0.3,0,0.5,0.1,0.7,0.3C50.9,163.6,51,163.9,51,164.2z"/>
		<path class="st0" d="M55.2,164.8c-0.6,0-1.1-0.1-1.6-0.3c-0.5-0.2-0.8-0.5-1.1-0.9c-0.3-0.4-0.5-0.9-0.6-1.4
			c-0.1-0.5-0.2-1.1-0.2-1.7c0-1.3,0.3-2.3,1-3.1c0.6-0.8,1.5-1.2,2.7-1.2c1,0,1.8,0.3,2.4,0.9l-0.7,1.1c-0.5-0.5-1-0.7-1.7-0.7
			c-0.7,0-1.2,0.3-1.6,0.8c-0.4,0.5-0.6,1.2-0.6,2c0,0.1,0,0.2,0,0.2c0.2-0.3,0.5-0.6,0.9-0.8s0.8-0.3,1.3-0.3c0.8,0,1.5,0.2,2,0.7
			c0.5,0.5,0.8,1.1,0.8,2c0,0.8-0.3,1.5-0.8,2C56.9,164.6,56.1,164.8,55.2,164.8z M55.1,163.5c0.5,0,0.9-0.1,1.2-0.4
			c0.3-0.3,0.4-0.6,0.4-1c0-0.5-0.2-0.9-0.5-1.1s-0.7-0.4-1.2-0.4c-0.3,0-0.7,0.1-1,0.3c-0.3,0.2-0.6,0.4-0.8,0.7
			c0,0.5,0.2,1,0.5,1.4C54.1,163.3,54.5,163.5,55.1,163.5z"/>
		<path class="st0" d="M62.6,164.7h-1.5v-6.4l-1.4,1.4l-0.8-0.9l2.4-2.4h1.3V164.7z"/>
		<path class="st0" d="M68.9,164.5c-0.4,0.2-0.9,0.4-1.5,0.4s-1.1-0.1-1.5-0.4s-0.8-0.6-1-1s-0.5-0.9-0.6-1.4
			c-0.1-0.5-0.2-1-0.2-1.6s0.1-1.1,0.2-1.6c0.1-0.5,0.3-1,0.6-1.4c0.3-0.4,0.6-0.7,1-1s0.9-0.4,1.5-0.4s1.1,0.1,1.5,0.4
			s0.8,0.6,1.1,1c0.3,0.4,0.5,0.9,0.6,1.4s0.2,1,0.2,1.6s-0.1,1.1-0.2,1.6s-0.3,1-0.6,1.4C69.7,163.9,69.3,164.2,68.9,164.5z
			 M66,162.7c0.3,0.6,0.8,0.9,1.4,0.9c0.6,0,1.1-0.3,1.4-0.9c0.3-0.6,0.5-1.3,0.5-2.2c0-0.6-0.1-1.1-0.2-1.5
			c-0.1-0.4-0.3-0.8-0.6-1.1c-0.3-0.3-0.6-0.4-1.1-0.4s-0.8,0.1-1.1,0.4c-0.3,0.3-0.5,0.6-0.6,1.1c-0.1,0.4-0.2,0.9-0.2,1.5
			C65.5,161.4,65.7,162.1,66,162.7z"/>
	</g>
	<g>
		<path class="st0" d="M55.4,134.8h-6v-1.2c1.7-1.3,2.9-2.3,3.6-2.9c0.6-0.6,0.9-1.2,0.9-1.8c0-0.4-0.1-0.7-0.4-0.9
			c-0.3-0.2-0.7-0.3-1.1-0.3c-0.9,0-1.7,0.3-2.2,1l-0.8-1c0.4-0.4,0.8-0.8,1.4-1c0.5-0.2,1.1-0.3,1.7-0.3c0.8,0,1.6,0.2,2.1,0.7
			s0.9,1.1,0.9,1.9c0,0.7-0.3,1.4-0.9,2.1c-0.6,0.7-1.5,1.5-2.8,2.5h3.7V134.8z"/>
		<path class="st0" d="M60.2,134.9c-0.6,0-1.1-0.1-1.6-0.3s-0.8-0.5-1.1-0.9c-0.3-0.4-0.5-0.9-0.6-1.4c-0.1-0.5-0.2-1.1-0.2-1.7
			c0-1.3,0.3-2.3,1-3.1c0.6-0.8,1.5-1.2,2.7-1.2c1,0,1.8,0.3,2.4,0.9l-0.7,1.1c-0.5-0.5-1-0.7-1.7-0.7c-0.7,0-1.2,0.3-1.6,0.8
			c-0.4,0.5-0.6,1.2-0.6,2c0,0.1,0,0.2,0,0.2c0.2-0.3,0.5-0.6,0.9-0.8c0.4-0.2,0.8-0.3,1.3-0.3c0.8,0,1.5,0.2,2,0.7
			c0.5,0.5,0.8,1.1,0.8,2c0,0.8-0.3,1.5-0.9,2C61.8,134.6,61.1,134.9,60.2,134.9z M60.1,133.6c0.5,0,0.9-0.1,1.2-0.4
			c0.3-0.3,0.5-0.6,0.5-1c0-0.5-0.2-0.9-0.5-1.1s-0.7-0.4-1.2-0.4c-0.4,0-0.7,0.1-1,0.3s-0.6,0.4-0.8,0.7c0,0.5,0.2,1,0.5,1.4
			C59,133.4,59.5,133.6,60.1,133.6z"/>
		<path class="st0" d="M67.5,134.9c-1.3,0-2.4-0.4-3.1-1.3l0.8-1c0.6,0.7,1.3,1,2.2,1c0.5,0,0.9-0.1,1.2-0.4c0.3-0.3,0.5-0.6,0.5-1
			c0-0.4-0.2-0.8-0.5-1.1c-0.3-0.3-0.7-0.4-1.2-0.4c-0.7,0-1.3,0.2-1.8,0.7l-1-0.3v-4.7h5.5v1.3h-4v2.4c0.5-0.5,1.1-0.7,1.9-0.7
			c0.7,0,1.4,0.2,1.9,0.7c0.5,0.5,0.8,1.1,0.8,2c0,0.9-0.3,1.5-0.9,2.1C69.2,134.7,68.5,134.9,67.5,134.9z"/>
	</g>
	<g>
		<path class="st0" d="M45,107.2h-1.5v-6.4l-1.4,1.4l-0.9-0.9l2.4-2.4H45V107.2z"/>
		<path class="st0" d="M48.3,106.7c0,0.4-0.1,0.8-0.3,1.2s-0.5,0.7-0.9,0.9l-0.6-0.5c0.2-0.1,0.4-0.3,0.6-0.5
			c0.2-0.2,0.3-0.4,0.3-0.7c-0.1,0-0.1,0-0.2,0c-0.2,0-0.4-0.1-0.5-0.2c-0.1-0.1-0.2-0.3-0.2-0.6s0.1-0.4,0.2-0.6
			c0.2-0.2,0.4-0.3,0.6-0.3c0.3,0,0.5,0.1,0.7,0.3C48.2,106.1,48.3,106.4,48.3,106.7z"/>
		<path class="st0" d="M55.6,107.2h-6V106c1.7-1.3,2.9-2.3,3.6-2.9c0.6-0.6,0.9-1.2,0.9-1.8c0-0.4-0.1-0.7-0.4-0.9
			c-0.3-0.2-0.7-0.3-1.1-0.3c-0.9,0-1.7,0.3-2.2,1l-0.8-1c0.4-0.4,0.8-0.8,1.4-1c0.5-0.2,1.1-0.3,1.7-0.3c0.9,0,1.6,0.2,2.2,0.7
			c0.6,0.5,0.9,1.1,0.9,1.9c0,0.7-0.3,1.4-0.9,2.1c-0.6,0.7-1.5,1.5-2.8,2.5h3.7V107.2z"/>
		<path class="st0" d="M59.8,107.3c-0.7,0-1.3-0.1-1.9-0.4c-0.5-0.2-1-0.6-1.3-1l0.8-1c0.3,0.3,0.6,0.6,1,0.7
			c0.4,0.2,0.8,0.3,1.3,0.3c0.5,0,1-0.1,1.3-0.3c0.3-0.2,0.5-0.5,0.5-0.9c0-0.8-0.6-1.2-1.8-1.2c-0.6,0-0.9,0-1,0v-1.3
			c0.1,0,0.4,0,1,0c0.5,0,0.9-0.1,1.2-0.3s0.5-0.5,0.5-0.8c0-0.4-0.2-0.7-0.5-0.9c-0.3-0.2-0.7-0.3-1.2-0.3c-0.8,0-1.5,0.3-2.1,0.9
			l-0.8-0.9c0.7-0.9,1.8-1.3,3-1.3c0.9,0,1.6,0.2,2.2,0.6c0.5,0.4,0.8,1,0.8,1.6c0,0.5-0.2,0.9-0.5,1.3c-0.4,0.3-0.8,0.5-1.3,0.6
			c0.5,0,0.9,0.2,1.3,0.6c0.4,0.4,0.6,0.8,0.6,1.4c0,0.7-0.3,1.3-0.9,1.8C61.5,107.1,60.7,107.3,59.8,107.3z"/>
		<path class="st0" d="M68.9,107c-0.4,0.2-0.9,0.4-1.5,0.4s-1.1-0.1-1.5-0.4s-0.8-0.6-1-1s-0.5-0.9-0.6-1.4c-0.1-0.5-0.2-1-0.2-1.6
			s0.1-1.1,0.2-1.6c0.1-0.5,0.3-1,0.6-1.4c0.3-0.4,0.6-0.7,1-1s0.9-0.4,1.5-0.4s1.1,0.1,1.5,0.4s0.8,0.6,1.1,1
			c0.3,0.4,0.5,0.9,0.6,1.4s0.2,1,0.2,1.6s-0.1,1.1-0.2,1.6s-0.3,1-0.6,1.4C69.7,106.4,69.3,106.7,68.9,107z M66,105.2
			c0.3,0.6,0.8,0.9,1.4,0.9c0.6,0,1.1-0.3,1.4-0.9c0.3-0.6,0.5-1.3,0.5-2.2c0-0.6-0.1-1.1-0.2-1.5c-0.1-0.4-0.3-0.8-0.6-1.1
			c-0.3-0.3-0.6-0.4-1.1-0.4s-0.8,0.1-1.1,0.4c-0.3,0.3-0.5,0.6-0.6,1.1c-0.1,0.4-0.2,0.9-0.2,1.5C65.5,103.9,65.7,104.6,66,105.2z"
			/>
	</g>
	<g>
		<path class="st0" d="M39.8,77.7h-1.5v-6.4L37,72.6l-0.8-0.9l2.4-2.4h1.3V77.7z"/>
		<path class="st0" d="M44.6,77.7h-1.5v-6.4l-1.4,1.4l-0.8-0.9l2.4-2.4h1.3V77.7z"/>
		<path class="st0" d="M47.9,77.2c0,0.4-0.1,0.8-0.3,1.2c-0.2,0.4-0.5,0.7-0.9,0.9l-0.6-0.5c0.2-0.1,0.4-0.3,0.6-0.5
			c0.2-0.2,0.3-0.4,0.3-0.7c-0.1,0-0.1,0-0.2,0c-0.2,0-0.4-0.1-0.5-0.2c-0.1-0.1-0.2-0.3-0.2-0.6s0.1-0.4,0.2-0.6
			c0.2-0.2,0.4-0.3,0.6-0.3c0.3,0,0.5,0.1,0.7,0.3C47.8,76.6,47.9,76.8,47.9,77.2z"/>
		<path class="st0" d="M52.3,77.8c-1.3,0-2.4-0.4-3.1-1.3l0.8-1c0.6,0.7,1.3,1,2.2,1c0.5,0,0.9-0.1,1.2-0.4s0.5-0.6,0.5-1
			c0-0.5-0.2-0.8-0.5-1.1s-0.7-0.4-1.2-0.4c-0.7,0-1.3,0.2-1.8,0.7l-1-0.3v-4.7h5.5v1.3h-4V73c0.5-0.5,1.1-0.7,1.9-0.7
			c0.7,0,1.4,0.2,1.9,0.7c0.5,0.5,0.8,1.1,0.8,2c0,0.9-0.3,1.5-0.9,2.1C54,77.6,53.2,77.8,52.3,77.8z"/>
		<path class="st0" d="M60,77.8c-0.6,0-1.1-0.1-1.6-0.3c-0.4-0.2-0.8-0.5-1.1-0.9c-0.3-0.4-0.5-0.9-0.6-1.4
			c-0.1-0.5-0.2-1.1-0.2-1.7c0-1.3,0.3-2.3,1-3.1c0.6-0.8,1.5-1.2,2.7-1.2c1,0,1.8,0.3,2.4,0.9l-0.7,1.1c-0.5-0.5-1-0.7-1.7-0.7
			c-0.7,0-1.2,0.3-1.6,0.8s-0.6,1.2-0.6,2c0,0.1,0,0.2,0,0.2c0.2-0.3,0.5-0.6,0.9-0.8s0.8-0.3,1.3-0.3c0.8,0,1.5,0.2,2,0.7
			s0.8,1.1,0.8,2c0,0.8-0.3,1.5-0.9,2C61.6,77.5,60.9,77.8,60,77.8z M59.9,76.5c0.5,0,0.9-0.1,1.2-0.4c0.3-0.3,0.4-0.6,0.4-1
			c0-0.5-0.2-0.9-0.5-1.1c-0.3-0.3-0.7-0.4-1.2-0.4c-0.4,0-0.7,0.1-1,0.3c-0.3,0.2-0.6,0.4-0.8,0.7c0.1,0.5,0.2,1,0.5,1.4
			C58.8,76.3,59.3,76.5,59.9,76.5z"/>
		<path class="st0" d="M68.9,77.4c-0.4,0.2-0.9,0.4-1.5,0.4c-0.6,0-1.1-0.1-1.5-0.4c-0.4-0.2-0.8-0.6-1-1c-0.3-0.4-0.5-0.9-0.6-1.4
			S64,74,64,73.5s0.1-1.1,0.2-1.6s0.3-1,0.6-1.4c0.3-0.4,0.6-0.7,1-1c0.4-0.2,0.9-0.4,1.5-0.4c0.6,0,1.1,0.1,1.5,0.4
			c0.4,0.2,0.8,0.6,1,1c0.3,0.4,0.5,0.9,0.6,1.4c0.1,0.5,0.2,1,0.2,1.6s-0.1,1.1-0.2,1.6c-0.1,0.5-0.3,1-0.6,1.4
			S69.3,77.2,68.9,77.4z M66,75.7c0.3,0.6,0.8,0.9,1.4,0.9s1.1-0.3,1.4-0.9c0.3-0.6,0.5-1.3,0.5-2.2c0-0.6-0.1-1.1-0.2-1.5
			c-0.1-0.4-0.3-0.8-0.6-1.1c-0.3-0.3-0.6-0.4-1.1-0.4c-0.4,0-0.8,0.1-1.1,0.4c-0.3,0.3-0.5,0.6-0.6,1.1c-0.1,0.4-0.2,0.9-0.2,1.5
			C65.5,74.4,65.7,75.1,66,75.7z"/>
	</g>
	<g>
		<path class="st0" d="M52.7,48.6c-0.6,0-1.1-0.1-1.6-0.3c-0.5-0.2-0.8-0.5-1.1-0.9c-0.3-0.4-0.5-0.9-0.6-1.4
			c-0.1-0.5-0.2-1.1-0.2-1.7c0-1.3,0.3-2.3,1-3.1c0.6-0.8,1.5-1.2,2.7-1.2c1,0,1.8,0.3,2.4,0.9L54.7,42c-0.5-0.5-1-0.7-1.7-0.7
			c-0.7,0-1.2,0.3-1.6,0.8c-0.4,0.5-0.6,1.2-0.6,2c0,0.1,0,0.2,0,0.2c0.2-0.3,0.5-0.6,0.9-0.8s0.8-0.4,1.3-0.4c0.8,0,1.5,0.2,2,0.7
			c0.5,0.5,0.8,1.1,0.8,2c0,0.8-0.3,1.5-0.8,2S53.6,48.6,52.7,48.6z M52.6,47.3c0.5,0,0.9-0.1,1.2-0.4c0.3-0.3,0.4-0.6,0.4-1
			c0-0.5-0.2-0.9-0.5-1.1c-0.3-0.3-0.7-0.4-1.2-0.4c-0.3,0-0.7,0.1-1,0.3c-0.3,0.2-0.6,0.4-0.8,0.7c0,0.5,0.2,1,0.5,1.4
			C51.6,47.1,52,47.3,52.6,47.3z"/>
		<path class="st0" d="M62.1,48.4h-1.5v-1.9h-4v-1.2l3.4-5.3h2v5.2h1.1v1.3h-1.1V48.4z M60.6,45.2v-3.9l-2.5,3.9H60.6z"/>
		<path class="st0" d="M68.9,48.2c-0.4,0.2-0.9,0.4-1.5,0.4s-1.1-0.1-1.5-0.4s-0.8-0.6-1-1c-0.3-0.4-0.5-0.9-0.6-1.4
			c-0.1-0.5-0.2-1-0.2-1.6c0-0.5,0.1-1.1,0.2-1.6c0.1-0.5,0.3-1,0.6-1.4s0.6-0.7,1-1s0.9-0.4,1.5-0.4s1.1,0.1,1.5,0.4s0.8,0.6,1.1,1
			c0.3,0.4,0.5,0.9,0.6,1.4s0.2,1,0.2,1.6c0,0.5-0.1,1.1-0.2,1.6s-0.3,1-0.6,1.4C69.7,47.6,69.3,47.9,68.9,48.2z M66,46.4
			c0.3,0.6,0.8,0.8,1.4,0.8c0.6,0,1.1-0.3,1.4-0.8s0.5-1.3,0.5-2.2c0-0.6-0.1-1.1-0.2-1.5c-0.1-0.4-0.3-0.8-0.6-1.1
			c-0.3-0.3-0.6-0.4-1.1-0.4s-0.8,0.1-1.1,0.4c-0.3,0.3-0.5,0.6-0.6,1.1c-0.1,0.4-0.2,0.9-0.2,1.5C65.5,45.1,65.7,45.8,66,46.4z"/>
	</g>
	<g>
		<path class="st0" d="M137.3,27.6h-1.6l3.1-7h-4.3v-1.3h6v1L137.3,27.6z"/>
		<path class="st0" d="M142.1,27.1c0,0.4-0.1,0.8-0.3,1.2c-0.2,0.4-0.5,0.7-0.9,0.9l-0.6-0.5c0.2-0.1,0.4-0.3,0.6-0.5
			c0.2-0.2,0.3-0.4,0.3-0.6c-0.1,0-0.1,0-0.2,0c-0.2,0-0.4-0.1-0.5-0.2c-0.1-0.1-0.2-0.3-0.2-0.6s0.1-0.4,0.2-0.6
			c0.2-0.2,0.4-0.3,0.6-0.3c0.3,0,0.5,0.1,0.7,0.3C142,26.5,142.1,26.7,142.1,27.1z"/>
		<path class="st0" d="M148.5,27.6H147v-1.9h-4v-1.2l3.4-5.3h2v5.2h1.1v1.3h-1.1V27.6z M147,24.4v-3.8l-2.5,3.8H147z"/>
		<path class="st0" d="M155.3,27.3c-0.4,0.2-0.9,0.4-1.5,0.4s-1.1-0.1-1.5-0.4s-0.8-0.6-1-1c-0.3-0.4-0.5-0.9-0.6-1.4
			c-0.1-0.5-0.2-1-0.2-1.6c0-0.5,0.1-1.1,0.2-1.6c0.1-0.5,0.3-1,0.6-1.4s0.6-0.7,1-1s0.9-0.4,1.5-0.4s1.1,0.1,1.5,0.4s0.8,0.6,1.1,1
			c0.3,0.4,0.5,0.9,0.6,1.4s0.2,1,0.2,1.6c0,0.5-0.1,1.1-0.2,1.6s-0.3,1-0.6,1.4C156.1,26.8,155.8,27.1,155.3,27.3z M152.4,25.6
			c0.3,0.6,0.8,0.9,1.4,0.9c0.6,0,1.1-0.3,1.4-0.9c0.3-0.6,0.5-1.3,0.5-2.2c0-0.6-0.1-1.1-0.2-1.5c-0.1-0.4-0.3-0.8-0.6-1.1
			c-0.3-0.3-0.6-0.4-1.1-0.4s-0.8,0.1-1.1,0.4c-0.3,0.3-0.5,0.6-0.6,1.1c-0.1,0.4-0.2,0.9-0.2,1.5C152,24.3,152.1,25,152.4,25.6z"/>
		<path class="st0" d="M163,27.3c-0.4,0.2-0.9,0.4-1.5,0.4c-0.6,0-1.1-0.1-1.5-0.4c-0.4-0.2-0.8-0.6-1.1-1c-0.3-0.4-0.5-0.9-0.6-1.4
			c-0.1-0.5-0.2-1-0.2-1.6c0-0.5,0.1-1.1,0.2-1.6c0.1-0.5,0.3-1,0.6-1.4s0.6-0.7,1.1-1c0.4-0.2,0.9-0.4,1.5-0.4
			c0.6,0,1.1,0.1,1.5,0.4c0.4,0.2,0.8,0.6,1,1c0.3,0.4,0.5,0.9,0.6,1.4s0.2,1,0.2,1.6c0,0.5-0.1,1.1-0.2,1.6s-0.3,1-0.6,1.4
			C163.8,26.8,163.5,27.1,163,27.3z M160.1,25.6c0.3,0.6,0.8,0.9,1.4,0.9c0.6,0,1.1-0.3,1.4-0.9c0.3-0.6,0.5-1.3,0.5-2.2
			c0-0.6-0.1-1.1-0.2-1.5c-0.1-0.4-0.3-0.8-0.6-1.1c-0.3-0.3-0.6-0.4-1.1-0.4c-0.4,0-0.8,0.1-1.1,0.4s-0.5,0.6-0.6,1.1
			c-0.1,0.4-0.2,0.9-0.2,1.5C159.7,24.3,159.8,25,160.1,25.6z"/>
	</g>
	<g>
		<g>
			<path class="st4" d="M200.9,68.2c-11.3-2.7-32.2-8.7-44.4,1.6"/>
			<g>
				<path class="st2" d="M156.7,69.6c1.1,0.1,2.4,1,3.1,1.8c-1.8-0.4-3.6-0.5-5.4,0.1c0.9-1.6,1-3.5,1-5.3
					C156.1,67.2,156.8,68.5,156.7,69.6z"/>
			</g>
		</g>
	</g>
	<g>
		<g>
			<path class="st5" d="M202,97c-12.7,2.3-38.2-3.2-49.1-15.6"/>
			<g>
				<path class="st2" d="M152.8,81.4c0,0.1-0.1,0.1-0.1,0.2c0-0.1,0-0.2,0-0.3c0.1,0,0.2,0,0.3,0C153,81.4,152.9,81.4,152.8,81.4z"
					/>
			</g>
		</g>
	</g>
	<g>
		<g>
			<path class="st6" d="M78.4,152.8c13.5,0.6,35.8-1.8,47.6-16.9"/>
			<g>
				<path class="st2" d="M125.8,136.2c-1.6,0.3-3.9-0.6-5.2-1.5c2.7-0.1,5.5-0.7,7.8-2.1c-0.6,2.7-0.2,5.5,0.5,8.1
					C127.6,139.5,126.1,138,125.8,136.2z"/>
			</g>
		</g>
	</g>
	<g>
		<g>
			<path class="st7" d="M199.8,129.2c-20.5,4.7-38.5,10.5-57.5-4.9"/>
			<g>
				<path class="st2" d="M142.3,124.4c0,0.1-0.1,0.3-0.1,0.3c0-0.2,0-0.4-0.1-0.5c0.2,0.1,0.4,0,0.5,0
					C142.6,124.3,142.4,124.4,142.3,124.4z"/>
			</g>
		</g>
	</g>
	<g>
		<g>
			<path class="st8" d="M78.4,35.7c18.3,0,56.6,3.7,68.7,34.2"/>
			<g>
				<path class="st2" d="M147,69.6c0.4-0.9,1.5-1.7,2.3-2c-0.8,1.3-1.4,2.8-1.4,4.4c-1.1-1.1-2.5-1.8-4-2.2
					C144.9,69.4,146.1,69.2,147,69.6z"/>
			</g>
		</g>
	</g>
	<g>
		<g>
			<path class="st9" d="M77.3,123c13,1.1,37,2.8,51-7.6"/>
			<g>
				<path class="st2" d="M128.2,115.4c-0.4-0.1-0.8-0.4-1.1-0.7c0.6,0.2,1.3,0.2,1.9,0.1c-0.3,0.5-0.4,1.2-0.5,1.8
					C128.4,116.3,128.2,115.8,128.2,115.4z"/>
			</g>
		</g>
	</g>
	<g>
		<g>
			<path class="st10" d="M76.7,67.4c9.1-4.9,31.9-9.3,55.7,1.7"/>
			<g>
				<path class="st2" d="M131.1,68.5c-1.8-4.8-0.3-12,1.6-16.6c1.7,8.1,5.1,16.1,10.9,22.4c-8.4-0.4-16.6,2.6-24.1,6.2
					C122.1,75.8,126,70.5,131.1,68.5z"/>
			</g>
		</g>
	</g>
	<g>
		<g>
			<path class="st11" d="M76.7,97c10.3-8.3,35.6-18.4,59.3-12.4"/>
			<g>
				<path class="st2" d="M135.6,84.6c-0.7-1.1-0.6-2.9-0.4-4.1c0.8,1.9,2,3.7,3.7,5c-2.1,0.3-3.9,1.4-5.6,2.6
					C133.8,86.8,134.5,85.3,135.6,84.6z"/>
			</g>
		</g>
	</g>
	<g>
		<g>
			<line class="st12" x1="149.8" y1="32.2" x2="149.8" y2="51.9"/>
			<g>
				<path class="st2" d="M149.8,51c2.3-2.3,6.9-3.4,10.1-3.5c-4.3,3.2-8,7.3-10.1,12.3c-2-5-6-9-10.1-12.3
					C143.1,47.7,147.2,48.6,149.8,51z"/>
			</g>
		</g>
	</g>
	<g>
		<path class="st0" d="M210.5,139h-1.6l3.2-7h-4.3v-1.3h6v1L210.5,139z"/>
		<path class="st0" d="M217.8,139.2c-1.3,0-2.4-0.4-3.1-1.3l0.8-1c0.6,0.7,1.3,1,2.2,1c0.5,0,0.9-0.1,1.2-0.4s0.5-0.6,0.5-1
			c0-0.5-0.2-0.8-0.5-1.1c-0.3-0.3-0.7-0.4-1.2-0.4c-0.7,0-1.3,0.2-1.8,0.7l-1-0.3v-4.7h5.5v1.3h-4v2.4c0.5-0.5,1.1-0.7,1.9-0.7
			c0.7,0,1.4,0.2,1.9,0.7c0.5,0.5,0.8,1.1,0.8,2c0,0.9-0.3,1.5-0.9,2.1S218.8,139.2,217.8,139.2z"/>
	</g>
</g>
</svg>
