<?xml version="1.0" encoding="utf-8"?>
<!-- Generator: Adobe Illustrator 19.2.0, SVG Export Plug-In . SVG Version: 6.00 Build 0)  -->
<svg version="1.1" id="Layer_1" xmlns="http://www.w3.org/2000/svg" xmlns:xlink="http://www.w3.org/1999/xlink" x="0px" y="0px"
	 viewBox="0 0 266.2 169.3" style="enable-background:new 0 0 266.2 169.3;" xml:space="preserve">
<style type="text/css">
	.st0{fill:#0D92FF;}
	.st1{fill:none;stroke:#00325C;stroke-width:0.29;stroke-miterlimit:10;}
	.st2{fill:#00325C;}
	.st3{fill:#787878;}
	.st4{fill:none;stroke:#00325C;stroke-width:0.865;stroke-miterlimit:10;}
	.st5{fill:none;stroke:#00325C;stroke-width:4.500000e-02;stroke-miterlimit:10;}
	.st6{fill:none;stroke:#00325C;stroke-width:4.755;stroke-miterlimit:3;}
	.st7{fill:none;stroke:#00325C;stroke-width:8.500000e-02;stroke-miterlimit:10;}
	.st8{fill:none;stroke:#00325C;stroke-width:0.425;stroke-miterlimit:10;}
	.st9{fill:none;stroke:#00325C;stroke-width:0.665;stroke-miterlimit:10;}
	.st10{fill:none;stroke:#00325C;stroke-width:2.175;stroke-miterlimit:10;}
	.st11{fill:none;stroke:#00325C;stroke-width:0.11;stroke-miterlimit:10;}
	.st12{fill:none;stroke:#00325C;stroke-width:0.55;stroke-miterlimit:10;}
</style>
<g>
	<path class="st0" d="M142.4,138L142.4,138L142.4,138L142.4,138L142.4,138l0.1-0.1L142.4,138L142.4,138L142.4,138L142.4,138
		L142.4,138z M142.6,139.3L142.6,139.3L142.6,139.3L142.6,139.3l0.1-0.1L142.6,139.3l0.1-0.1L142.6,139.3L142.6,139.3L142.6,139.3
		L142.6,139.3L142.6,139.3L142.6,139.3L142.6,139.3L142.6,139.3L142.6,139.3z M142.2,139.3L142.2,139.3l0,0.1L142.2,139.3
		L142.2,139.3L142.2,139.3L142.2,139.3L142.2,139.3L142.2,139.3z M142.3,139.7L142.3,139.7L142.3,139.7L142.3,139.7L142.3,139.7
		L142.3,139.7L142.3,139.7l-0.1,0.1l0,0.1l0,0l0.1,0l0,0l0-0.1l0,0L142.3,139.7L142.3,139.7L142.3,139.7L142.3,139.7z M120.7,144.1
		L120.7,144.1L120.7,144.1L120.7,144.1L120.7,144.1l-0.1,0l0,0l0,0l0,0l0,0l0,0.1l0,0l0,0l0,0l0,0l0,0l0,0l0,0L120.7,144.1
		L120.7,144.1L120.7,144.1z M141.3,145.2L141.3,145.2l0.1,0.1l0,0L141.3,145.2L141.3,145.2l0-0.1L141.3,145.2L141.3,145.2z
		 M141.7,147.2L141.7,147.2L141.7,147.2L141.7,147.2L141.7,147.2L141.7,147.2z M140.8,148.4L140.8,148.4L140.8,148.4l0.1,0l0,0l0,0
		l0,0l0.1,0l0,0l0,0l-0.1,0L140.8,148.4l0-0.1l0,0L140.8,148.4L140.8,148.4L140.8,148.4L140.8,148.4z M135.8,155.6L135.8,155.6
		L135.8,155.6v-0.1V155.6z M134.1,155.8L134.1,155.8L134.1,155.8L134.1,155.8L134.1,155.8L134.1,155.8L134.1,155.8L134.1,155.8
		L134.1,155.8z M137.5,156.5L137.5,156.5L137.5,156.5L137.5,156.5L137.5,156.5L137.5,156.5L137.5,156.5L137.5,156.5L137.5,156.5
		L137.5,156.5l0,0.1L137.5,156.5L137.5,156.5L137.5,156.5L137.5,156.5z M133.5,156.6L133.5,156.6L133.5,156.6l0,0.1h0L133.5,156.6
		L133.5,156.6L133.5,156.6z M159.4,91.2L159.4,91.2L159.4,91.2L159.4,91.2L159.4,91.2L159.4,91.2L159.4,91.2z M158.1,91.2
		L158.1,91.2L158.1,91.2L158.1,91.2L158.1,91.2L158.1,91.2L158.1,91.2L158.1,91.2z M157.6,91.3L157.6,91.3l0,0.2h0l0,0l0,0
		L157.6,91.3L157.6,91.3L157.6,91.3z M157.5,91.8L157.5,91.8l0,0.1l0,0l0,0l0,0l0,0.1L157.5,91.8L157.5,91.8L157.5,91.8z
		 M156.3,92.6L156.3,92.6L156.3,92.6l0,0.1L156.3,92.6L156.3,92.6L156.3,92.6z M154.7,93.6L154.7,93.6L154.7,93.6L154.7,93.6
		l-0.1,0.1l0,0l0,0.1l0-0.1L154.7,93.6L154.7,93.6z M154.7,94.2l0,0.1L154.7,94.2L154.7,94.2L154.7,94.2L154.7,94.2z M153.1,94.5
		L153.1,94.5l0-0.1L153.1,94.5l0,0.1l0,0l0,0l0,0l0,0l0.1,0l0-0.1L153.1,94.5L153.1,94.5z M152.7,94.6L152.7,94.6L152.7,94.6
		L152.7,94.6L152.7,94.6L152.7,94.6L152.7,94.6L152.7,94.6z M151.7,96.3L151.7,96.3L151.7,96.3l0-0.1l0,0L151.7,96.3L151.7,96.3z
		 M150.4,97L150.4,97L150.4,97L150.4,97l0.1,0L150.4,97L150.4,97L150.4,97z M150.2,97.4L150.2,97.4L150.2,97.4l0.1-0.1L150.2,97.4
		L150.2,97.4z M166.7,71.4L166.7,71.4l0,0.2l0,0L166.7,71.4L166.7,71.4z M166.6,71.5L166.6,71.5l0,0.1l0.1,0.1l0,0L166.6,71.5
		L166.6,71.5z M172.4,71.6L172.4,71.6L172.4,71.6l0,0.1L172.4,71.6L172.4,71.6L172.4,71.6L172.4,71.6L172.4,71.6L172.4,71.6z
		 M172.6,71.7L172.6,71.7L172.6,71.7l0-0.1l-0.1,0L172.6,71.7z M169.7,71.7L169.7,71.7L169.7,71.7L169.7,71.7L169.7,71.7L169.7,71.7
		L169.7,71.7L169.7,71.7L169.7,71.7L169.7,71.7L169.7,71.7z M168.7,71.6L168.7,71.6L168.7,71.6l0,0.1l0,0l0,0l0,0L168.7,71.6
		L168.7,71.6z M171.8,71.7L171.8,71.7L171.8,71.7L171.8,71.7L171.8,71.7L171.8,71.7L171.8,71.7z M169.3,72L169.3,72L169.3,72
		L169.3,72L169.3,72z M171.4,72L171.4,72L171.4,72L171.4,72L171.4,72L171.4,72z M168.6,72.1L168.6,72.1L168.6,72.1L168.6,72.1
		L168.6,72.1L168.6,72.1l0-0.1l0,0l0,0l0,0l0,0L168.6,72.1L168.6,72.1L168.6,72.1l-0.1-0.1l0,0l0,0l0,0l0,0L168.6,72.1L168.6,72.1
		L168.6,72.1L168.6,72.1z M169.5,72L169.5,72L169.5,72L169.5,72l-0.1,0.1l0,0l0,0l0,0l0,0L169.5,72L169.5,72L169.5,72z M172.2,72.1
		L172.2,72.1L172.2,72.1L172.2,72.1L172.2,72.1L172.2,72.1L172.2,72.1z M170,72.3l-0.1-0.1L170,72.3L170,72.3L170,72.3l0,0.1l0,0
		L170,72.3L170,72.3z M168.4,72.3L168.4,72.3L168.4,72.3L168.4,72.3L168.4,72.3L168.4,72.3z M168.5,72.4L168.5,72.4L168.5,72.4
		L168.5,72.4L168.5,72.4L168.5,72.4z M172.6,72.5L172.6,72.5l-0.1-0.1l-0.1,0l0,0L172.6,72.5L172.6,72.5L172.6,72.5L172.6,72.5
		l0,0.1l0,0L172.6,72.5L172.6,72.5L172.6,72.5z M172.4,72.6L172.4,72.6L172.4,72.6L172.4,72.6l-0.1-0.1l0,0.1L172.4,72.6L172.4,72.6
		L172.4,72.6z M167.3,72.8L167.3,72.8L167.3,72.8L167.3,72.8L167.3,72.8L167.3,72.8L167.3,72.8L167.3,72.8L167.3,72.8L167.3,72.8z
		 M166.5,72.8L166.5,72.8L166.5,72.8L166.5,72.8l-0.1,0.1l0.1,0l0.1,0L166.5,72.8L166.5,72.8L166.5,72.8z M172.4,72.9L172.4,72.9
		L172.4,72.9l0.1,0.1l0,0l0,0L172.4,72.9L172.4,72.9L172.4,72.9z M167.8,72.9L167.8,72.9L167.8,72.9L167.8,72.9L167.8,72.9l-0.1,0
		l0,0L167.8,72.9l0,0.1l0,0l0,0l0,0L167.8,72.9L167.8,72.9z M172.5,72.9L172.5,72.9L172.5,72.9L172.5,72.9L172.5,72.9z M171.2,72.9
		L171.2,72.9L171.2,72.9L171.2,72.9l0,0.1l0,0l0,0l0,0l0,0L171.2,72.9L171.2,72.9z M166.9,73.1L166.9,73.1L166.9,73.1l0-0.1l0,0l0,0
		l0,0l0,0l0,0l0,0.1L166.9,73.1L166.9,73.1z M171.8,73L171.8,73L171.8,73L171.8,73L171.8,73z M170.1,73.1L170.1,73.1L170.1,73.1
		L170.1,73.1L170.1,73.1z M172,73.1L172,73.1L172,73.1L172,73.1L172,73.1z M167.6,73.1L167.6,73.1L167.6,73.1L167.6,73.1L167.6,73.1
		L167.6,73.1L167.6,73.1L167.6,73.1l0,0.1l0,0l0,0L167.6,73.1L167.6,73.1z M171.1,73.2L171.1,73.2L171.1,73.2l-0.1-0.2l0,0l0,0
		l0,0.1L171.1,73.2L171.1,73.2L171.1,73.2L171.1,73.2L171.1,73.2L171.1,73.2L171.1,73.2z M166.9,73.4L166.9,73.4L166.9,73.4
		L166.9,73.4L166.9,73.4z M172,73.6L172,73.6L172,73.6L172,73.6L172,73.6L172,73.6L172,73.6L172,73.6L172,73.6z M172.7,73.5
		L172.7,73.5L172.7,73.5L172.7,73.5L172.7,73.5L172.7,73.5z M171.1,73.6L171.1,73.6L171.1,73.6L171.1,73.6L171.1,73.6z M170,74.4
		L170,74.4L170,74.4L170,74.4L170,74.4L170,74.4L170,74.4L170,74.4L170,74.4L170,74.4z M165.3,71.7L165.3,71.7L165.3,71.7
		L165.3,71.7L165.3,71.7l-0.1-0.1L165.3,71.7L165.3,71.7L165.3,71.7L165.3,71.7L165.3,71.7z M165.5,72L165.5,72L165.5,72L165.5,72
		L165.5,72z M165.9,72.3L165.9,72.3L165.9,72.3L165.9,72.3L165.9,72.3z M165.8,72.4L165.8,72.4L165.8,72.4L165.8,72.4L165.8,72.4
		L165.8,72.4L165.8,72.4L165.8,72.4z M165.4,72.8L165.4,72.8L165.4,72.8L165.4,72.8l0.1,0.1L165.4,72.8L165.4,72.8L165.4,72.8
		L165.4,72.8L165.4,72.8z M165.3,73.1L165.3,73.1L165.3,73.1L165.3,73.1L165.3,73.1L165.3,73.1z M165.6,73.3L165.6,73.3l0,0.1l0,0
		L165.6,73.3z M165.1,73.6L165.1,73.6L165.1,73.6l0-0.1l0,0L165.1,73.6L165.1,73.6L165.1,73.6L165.1,73.6z M165.3,74.3L165.3,74.3
		L165.3,74.3L165.3,74.3L165.3,74.3L165.3,74.3L165.3,74.3z M163.6,74.7L163.6,74.7L163.6,74.7L163.6,74.7L163.6,74.7L163.6,74.7
		l-0.1-0.1l0,0l0,0l0,0l0,0l0,0l0,0l0,0L163.6,74.7L163.6,74.7L163.6,74.7L163.6,74.7L163.6,74.7L163.6,74.7z M163.8,74.7
		L163.8,74.7L163.8,74.7l0.1,0.1L163.8,74.7L163.8,74.7z M166.2,74.9L166.2,74.9l0.1,0.1L166.2,74.9L166.2,74.9L166.2,74.9z
		 M166.1,75.1L166.1,75.1L166.1,75.1L166.1,75.1L166.1,75.1L166.1,75.1l0.1,0L166.1,75.1L166.1,75.1z M162.8,75.9L162.8,75.9
		L162.8,75.9L162.8,75.9l0-0.1l0,0l0,0L162.8,75.9L162.8,75.9z M163.2,76.2L163.2,76.2L163.2,76.2l-0.1,0l0,0l0,0l0,0H163.2
		L163.2,76.2L163.2,76.2L163.2,76.2L163.2,76.2L163.2,76.2L163.2,76.2L163.2,76.2z M165.1,76.5L165.1,76.5L165.1,76.5L165.1,76.5
		L165.1,76.5L165.1,76.5L165.1,76.5L165.1,76.5z M163.3,76.9L163.3,76.9L163.3,76.9L163.3,76.9L163.3,76.9L163.3,76.9L163.3,76.9z
		 M163,77.6L163,77.6l0,0.1l0.1,0.1l0,0L163,77.6L163,77.6z M163.2,77.8L163.2,77.8L163.2,77.8l0.1,0.1l0-0.1L163.2,77.8L163.2,77.8
		z M162.1,78.1L162.1,78.1L162.1,78.1l-0.1,0.1l0,0l0,0.1l0.1,0l0,0l0,0l0-0.1L162.1,78.1z M162.4,78.3L162.4,78.3L162.4,78.3
		L162.4,78.3l-0.1,0.1l0,0l0.1,0L162.4,78.3L162.4,78.3L162.4,78.3z M161.7,78.8L161.7,78.8L161.7,78.8L161.7,78.8L161.7,78.8
		L161.7,78.8l0.2,0l0-0.1l-0.1-0.1L161.7,78.8L161.7,78.8L161.7,78.8L161.7,78.8z M161.4,83.6L161.4,83.6L161.4,83.6L161.4,83.6
		L161.4,83.6L161.4,83.6L161.4,83.6z M159.8,87.5L159.8,87.5L159.8,87.5L159.8,87.5L159.8,87.5z M152.6,127.6L152.6,127.6
		L152.6,127.6L152.6,127.6z M151.6,127.8L151.6,127.8L151.6,127.8L151.6,127.8L151.6,127.8z M151.6,127.9L151.6,127.9L151.6,127.9
		L151.6,127.9L151.6,127.9L151.6,127.9l0,0.1L151.6,127.9L151.6,127.9L151.6,127.9L151.6,127.9z M151.1,128L151.1,128L151.1,128
		L151.1,128L151.1,128L151.1,128L151.1,128L151.1,128L151.1,128L151.1,128L151.1,128L151.1,128L151.1,128z M152,128.4L152,128.4
		L152,128.4L152,128.4L152,128.4z M151.6,129.3L151.6,129.3L151.6,129.3L151.6,129.3L151.6,129.3L151.6,129.3L151.6,129.3
		L151.6,129.3z M151.9,129.8L151.9,129.8L151.9,129.8l0-0.1L151.9,129.8L151.9,129.8L151.9,129.8L151.9,129.8L151.9,129.8
		L151.9,129.8z M153,129.7L153,129.7L153,129.7L153,129.7L153,129.7L153,129.7z M149.2,131.5L149.2,131.5L149.2,131.5L149.2,131.5
		l0.1,0l0-0.1L149.2,131.5L149.2,131.5z M148.5,131.5L148.5,131.5L148.5,131.5L148.5,131.5L148.5,131.5L148.5,131.5z M149.2,132.3
		L149.2,132.3l0,0.1L149.2,132.3L149.2,132.3L149.2,132.3L149.2,132.3z M149.9,132.5L149.9,132.5L149.9,132.5L149.9,132.5
		L149.9,132.5l0-0.1L149.9,132.5L149.9,132.5L149.9,132.5L149.9,132.5L149.9,132.5L149.9,132.5L149.9,132.5L149.9,132.5L149.9,132.5
		z M149.3,132.7L149.3,132.7L149.3,132.7L149.3,132.7L149.3,132.7l0.1-0.1l0-0.1l-0.1,0l0,0l0,0L149.3,132.7L149.3,132.7
		L149.3,132.7L149.3,132.7z M147.4,133L147.4,133L147.4,133L147.4,133l0.1,0L147.4,133l0-0.1l0,0l0,0l0,0l-0.1,0L147.4,133
		L147.4,133L147.4,133z M145.6,134.6L145.6,134.6L145.6,134.6L145.6,134.6L145.6,134.6L145.6,134.6l0,0.1l0,0l0,0L145.6,134.6
		L145.6,134.6L145.6,134.6z M146.2,135.2L146.2,135.2l0,0.1l0,0.1l0,0l0,0l0,0L146.2,135.2L146.2,135.2L146.2,135.2z M165.6,71.6
		L165.6,71.6L165.6,71.6L165.6,71.6l0-0.1l0-0.1l0,0L165.6,71.6L165.6,71.6L165.6,71.6L165.6,71.6L165.6,71.6z M166.1,71.9
		L166.1,71.9L166.1,71.9L166.1,71.9l0-0.1l0,0l0,0l0,0l0,0L166.1,71.9L166.1,71.9L166.1,71.9L166.1,71.9L166.1,71.9z M168.8,72.1
		L168.8,72.1L168.8,72.1L168.8,72.1L168.8,72.1l0.1-0.1l0,0l-0.1,0L168.8,72.1L168.8,72.1L168.8,72.1z M168.9,72.3L168.9,72.3
		l-0.1-0.2l0,0l0,0l-0.1,0l-0.1,0l0,0.1l0,0l0,0l0,0l0,0l0,0l0,0l0,0l0,0l0,0l0,0l0,0l0,0l0,0l0,0l0,0l0,0l0,0l0,0l0,0l0,0l0-0.1
		l0,0l0-0.1l0,0L168.9,72.3L168.9,72.3L168.9,72.3L168.9,72.3L168.9,72.3l0,0.1l0,0L168.9,72.3L168.9,72.3L168.9,72.3z M169.9,72.3
		L169.9,72.3L169.9,72.3l-0.1-0.1l0,0l0,0l0,0v0l0,0l0,0.1l0,0L169.9,72.3L169.9,72.3l-0.1,0.1l0,0l0,0l0,0l0,0L169.9,72.3
		L169.9,72.3L169.9,72.3z M165.2,72.6L165.2,72.6L165.2,72.6L165.2,72.6l0.1-0.1l0,0l0,0l0,0l0,0l0,0L165.2,72.6L165.2,72.6
		L165.2,72.6z M171.9,72.7L171.9,72.7L171.9,72.7l-0.2,0l0,0l0,0l0,0l0,0l0,0l0,0l0,0l0.1,0L171.9,72.7L171.9,72.7L171.9,72.7
		L171.9,72.7z M166,73L166,73L166,73L166,73l0.2,0l0,0l0,0l0-0.1l0-0.1l0-0.1l0,0l0,0l0,0l0,0l0,0l0,0l0,0.1L166,73L166,73L166,73z
		 M168.1,72.9L168.1,72.9L168.1,72.9L168.1,72.9L168.1,72.9L168.1,72.9l-0.1,0l0,0l0,0l0,0l0,0l0.1,0l0,0l0,0L168.1,72.9L168.1,72.9
		L168.1,72.9z M166.1,73.2L166.1,73.2L166.1,73.2l0,0.1l0,0l0,0l0.1,0l0-0.1L166.1,73.2L166.1,73.2z M165.4,73.5L165.4,73.5
		L165.4,73.5L165.4,73.5L165.4,73.5L165.4,73.5L165.4,73.5L165.4,73.5l0-0.1l0,0L165.4,73.5L165.4,73.5L165.4,73.5z M170.9,73.8
		l0-0.1l0-0.1h0l0,0.1L170.9,73.8L170.9,73.8L170.9,73.8L170.9,73.8L170.9,73.8l-0.1,0.1l0,0l0,0l0,0l0,0l0,0h0l0,0l0,0l0,0l0,0l0,0
		l0,0l0,0V74l0-0.1L170.9,73.8z M166.8,74.1L166.8,74.1L166.8,74.1l0.1,0L166.8,74.1l0.1-0.2l0,0l0,0l0,0l0,0L166.8,74.1L166.8,74.1
		z M166.4,74.2L166.4,74.2l-0.1-0.1l0,0.1l0,0.1l0,0.1l0,0l0.1,0L166.4,74.2L166.4,74.2L166.4,74.2z M166.8,74.2L166.8,74.2
		L166.8,74.2l-0.2-0.1l0,0l0,0.1L166.8,74.2L166.8,74.2L166.8,74.2L166.8,74.2l0,0.1l0,0l0,0l0,0l0,0l0,0l0-0.1l0,0l0,0l0,0l0-0.1
		L166.8,74.2L166.8,74.2z M165.1,74.6L165.1,74.6l0-0.2l0,0l0,0l-0.1-0.1l0,0l0.1,0.1l0.1,0.1l0,0.1L165.1,74.6L165.1,74.6
		L165.1,74.6z M166.5,74.4L166.5,74.4l0.1,0.1l0-0.1L166.5,74.4L166.5,74.4z M164,74.7L164,74.7L164,74.7L164,74.7l0-0.1l-0.1,0
		l-0.1,0l0,0v0.1l0,0l0,0l0,0.1L164,74.7L164,74.7L164,74.7L164,74.7L164,74.7L164,74.7z M165.9,74.7L165.9,74.7L165.9,74.7
		l-0.1-0.1l0,0l0,0l0,0l0,0h0l0,0l0,0.1l0,0.1l0,0l0,0l0,0l0,0l0,0l0,0l0,0l0.1,0l0.1,0l0,0L165.9,74.7L165.9,74.7z M166.5,74.7
		L166.5,74.7l-0.1-0.1l-0.1,0l0,0l0,0.1L166.5,74.7L166.5,74.7L166.5,74.7z M166.6,74.7L166.6,74.7L166.6,74.7L166.6,74.7l-0.1,0.1
		l0,0l0,0l0,0l0,0l0,0l0,0l0,0l0,0l0,0l0,0L166.6,74.7L166.6,74.7L166.6,74.7L166.6,74.7z M164,75.3L164,75.3L164,75.3l0,0.1l0,0
		l0,0.1l0,0l0-0.1l0,0l0,0L164,75.3L164,75.3L164,75.3z M163.8,75.5L163.8,75.5L163.8,75.5l-0.1,0.1l0,0.1l0,0l0,0l0,0L163.8,75.5
		L163.8,75.5L163.8,75.5L163.8,75.5z M165.7,75.6L165.7,75.6l-0.1,0l0,0L165.7,75.6l-0.1,0.1l0,0l0,0l0,0l0,0l0,0l0,0L165.7,75.6
		L165.7,75.6L165.7,75.6z M162.5,76.1L162.5,76.1L162.5,76.1l0.1,0.1l0.1,0l0.1,0l0-0.1l0,0l0-0.1l0,0l0-0.1l-0.1-0.1l-0.1-0.1l0,0
		l0,0l-0.1,0l0,0l0,0l0,0l0,0l0,0l-0.1,0l0,0l0,0l0,0l0,0l0,0l0,0l0,0l0,0l0.1,0l0,0l0-0.1l0,0l0,0l0,0l0,0l0,0L162.5,76.1
		L162.5,76.1L162.5,76.1z M163.6,75.8L163.6,75.8L163.6,75.8l-0.1-0.1l-0.1,0l0,0.1l0,0.1l0.1,0.1l0.1,0l0,0L163.6,75.8L163.6,75.8z
		 M165.3,75.9L165.3,75.9L165.3,75.9l-0.1-0.1l0-0.1l0,0l0,0.1l0.1,0.1L165.3,75.9L165.3,75.9l0,0.1l0,0.1l0,0l0,0l0,0L165.3,75.9
		L165.3,75.9L165.3,75.9z M165.4,75.8L165.4,75.8L165.4,75.8l0.1,0.1L165.4,75.8L165.4,75.8L165.4,75.8L165.4,75.8z M165.5,76
		L165.5,76L165.5,76L165.5,76l-0.1,0.1l0,0L165.5,76L165.5,76L165.5,76L165.5,76z M162.6,76.3L162.6,76.3L162.6,76.3l-0.1,0l0,0.1
		l0.1,0.1l0.1,0.1l0.1,0l0-0.1L162.6,76.3L162.6,76.3z M162.9,77.1L162.9,77.1L162.9,77.1l-0.1-0.1l0,0l0,0l0,0l-0.1,0l0,0l-0.1,0
		l0,0l0,0.1l0.1,0.1l0.1,0l0,0l0,0l0,0L162.9,77.1l0,0.1l0,0.1l0,0l0-0.1L162.9,77.1L162.9,77.1z M162.9,77.6L162.9,77.6L162.9,77.6
		l0-0.1l0,0l0,0l0,0l0,0l0,0l0,0l0,0l0,0l0,0l0,0l0,0l0,0l0,0.1l0,0.1l0.1,0.1l0.1,0.1L162.9,77.6L162.9,77.6l0,0.1l0,0l0,0
		L162.9,77.6L162.9,77.6z M160.5,80.7L160.5,80.7l-0.1-0.1l0,0l0,0.1l0,0.1l0,0.1l0,0.1l0,0l0,0l0,0l0-0.1L160.5,80.7L160.5,80.7z
		 M159.9,82.8l0.2,0.1l0,0l0,0l0,0l0-0.1l0-0.1l0,0l0,0l0,0.1L159.9,82.8L159.9,82.8l0-0.1l0,0l0-0.1l-0.1-0.1l-0.1,0l0,0l0,0.1l0,0
		L159.9,82.8L159.9,82.8L159.9,82.8z M158.4,93L158.4,93l0,0.1l0,0L158.4,93L158.4,93l-0.1,0.1l0,0.1l0,0l0.1,0l0,0l0,0l0,0
		L158.4,93L158.4,93L158.4,93L158.4,93L158.4,93z M149.6,97.6L149.6,97.6l0-0.1l0-0.1l0,0l0,0l0,0.1L149.6,97.6L149.6,97.6
		L149.6,97.6z M150.2,97.4l-0.1,0l0,0l0,0l0,0L150.2,97.4L150.2,97.4L150.2,97.4z M150,97.6L150,97.6L150,97.6L150,97.6L150,97.6z
		 M149.8,97.9L149.8,97.9L149.8,97.9l0,0.1l0,0.1l0,0v-0.1L149.8,97.9L149.8,97.9L149.8,97.9z M149.4,98.3L149.4,98.3L149.4,98.3
		l0-0.1l0-0.1l0,0l0,0.1L149.4,98.3L149.4,98.3L149.4,98.3z M148.8,98.5L148.8,98.5L148.8,98.5L148.8,98.5l0.1,0l0.1-0.1l0,0l0-0.1
		l0-0.1l0,0l0,0l-0.1,0l0,0l0-0.1l-0.1,0.1l0,0.1l0,0.1L148.8,98.5L148.8,98.5L148.8,98.5L148.8,98.5z M149.5,98.8L149.5,98.8l0-0.2
		l0-0.1l0,0l-0.1,0.1l0,0l0,0.2l0,0L149.5,98.8L149.5,98.8z M146.3,99.6L146.3,99.6L146.3,99.6l0,0.1l0,0L146.3,99.6L146.3,99.6
		L146.3,99.6L146.3,99.6z M148,100.3L148,100.3l0-0.1L148,100.3L148,100.3z M146.9,100.9L146.9,100.9l0-0.1l-0.1,0l-0.2,0l0,0l0,0.1
		l0.1,0.2l0,0L146.9,100.9L146.9,100.9L146.9,100.9z M147.7,100.8l-0.1,0.1l0,0l0,0.1l0,0L147.7,100.8L147.7,100.8L147.7,100.8
		L147.7,100.8L147.7,100.8z M147.1,101.8l-0.2,0l0,0l0,0l0,0l0.3,0.2l0-0.1l0-0.1L147.1,101.8L147.1,101.8L147.1,101.8L147.1,101.8z
		 M146.3,103.3L146.3,103.3L146.3,103.3L146.3,103.3z M145.5,105.8L145.5,105.8l-0.1,0.2l0,0.1l0,0.1l0.1,0l0,0l0,0l0,0l0.1-0.1l0,0
		l0,0l0,0L145.5,105.8L145.5,105.8z M144.8,108.2L144.8,108.2l-0.1,0l-0.1,0l0,0l0,0.1l0,0L144.8,108.2L144.8,108.2L144.8,108.2z
		 M144.6,108.3L144.6,108.3L144.6,108.3L144.6,108.3L144.6,108.3L144.6,108.3L144.6,108.3L144.6,108.3z M144.8,110.3L144.8,110.3
		L144.8,110.3L144.8,110.3L144.8,110.3L144.8,110.3l0-0.1l-0.1,0L144.8,110.3L144.8,110.3L144.8,110.3z M143.8,111.6L143.8,111.6
		l-0.1-0.1l0,0l0,0l0,0l0,0l0,0.1l0,0h0l0.1,0L143.8,111.6L143.8,111.6L143.8,111.6L143.8,111.6z M144.4,111.8l-0.2,0l-0.1,0l0,0.1
		l0,0.1l0,0.1l0,0l0,0l0,0l0,0l0,0l0,0l0,0l0,0l0.2,0l0,0l0-0.1L144.4,111.8L144.4,111.8z M143.9,115.3L143.9,115.3L143.9,115.3
		L143.9,115.3l0.1-0.1l0,0l0,0l0,0l0,0l0,0l0,0L143.9,115.3L143.9,115.3L143.9,115.3z M143.6,116.3L143.6,116.3L143.6,116.3l0-0.1
		l0,0l0,0l0,0l0,0l0,0.1l0,0.1l0,0l0,0L143.6,116.3L143.6,116.3L143.6,116.3L143.6,116.3L143.6,116.3L143.6,116.3z M143.8,118.4
		L143.8,118.4L143.8,118.4L143.8,118.4l0.1,0.1h0l0.1,0l0,0l0,0l-0.1,0l0,0l0,0L143.8,118.4L143.8,118.4L143.8,118.4L143.8,118.4z
		 M148.5,120.8L148.5,120.8L148.5,120.8l0-0.1l0,0l0,0l0,0l-0.1,0l-0.1,0l0,0l0,0L148.5,120.8L148.5,120.8z M149.5,122.8
		L149.5,122.8l-0.1-0.1l0,0l0,0l0,0.1l0,0l0.1,0L149.5,122.8L149.5,122.8L149.5,122.8L149.5,122.8z M149.1,123.4L149.1,123.4
		l-0.2-0.1l-0.2,0l0.1,0.2l0.2,0.1l0.1,0l0,0L149.1,123.4L149.1,123.4L149.1,123.4L149.1,123.4z M149.2,123.3L149.2,123.3
		L149.2,123.3L149.2,123.3L149.2,123.3L149.2,123.3L149.2,123.3l0,0.1l0,0l0,0l0,0l0,0l0,0l0,0l0.1,0l0-0.1l0,0L149.2,123.3
		L149.2,123.3z M151.5,126.2L151.5,126.2L151.5,126.2l-0.1,0.1l-0.1,0.1l0,0l0,0l0,0l0,0l0,0l0.1-0.1l0,0L151.5,126.2L151.5,126.2
		L151.5,126.2z M151.3,126.9L151.3,126.9L151.3,126.9L151.3,126.9L151.3,126.9l0.1,0l0,0l0,0L151.3,126.9L151.3,126.9z M151.6,127
		L151.6,127L151.6,127L151.6,127L151.6,127l0.1,0.1L151.6,127l0.1,0l0,0l0,0l0,0L151.6,127L151.6,127L151.6,127L151.6,127z
		 M151.6,127.2l-0.1,0l0,0l0,0v0l0,0.1l0.1,0L151.6,127.2L151.6,127.2L151.6,127.2L151.6,127.2z M150.5,127.8L150.5,127.8l-0.2,0
		l0,0.1l0,0l0,0l0.1,0l0.1,0h0l0,0L150.5,127.8L150.5,127.8L150.5,127.8L150.5,127.8L150.5,127.8L150.5,127.8L150.5,127.8
		L150.5,127.8z M151.8,127.9L151.8,127.9L151.8,127.9L151.8,127.9L151.8,127.9L151.8,127.9L151.8,127.9L151.8,127.9L151.8,127.9
		L151.8,127.9L151.8,127.9L151.8,127.9z M151.5,128.6L151.5,128.6L151.5,128.6l0.1,0l0,0l0,0l0,0l0,0l0,0l0,0L151.5,128.6
		L151.5,128.6z M151,128.7L151,128.7l0.1,0.1l0,0l0.1-0.1l0,0l0,0l0,0l0,0L151,128.7L151,128.7z M149.8,129.5L149.8,129.5
		L149.8,129.5l-0.1,0l0,0L149.8,129.5l0.4,0l0,0l0,0l0,0l-0.1,0l0,0l0,0l0,0l0,0l0,0L149.8,129.5L149.8,129.5z M149.8,129.6
		L149.8,129.6L149.8,129.6l-0.1,0l0,0l0,0l0,0l-0.1,0l-0.1,0.1l0,0.1l0,0l0.1,0l0,0l0,0l0,0l0.1,0l0,0L149.8,129.6l-0.1,0.1l0,0
		L149.8,129.6L149.8,129.6z M148.1,129.9L148.1,129.9l0.2-0.1l0-0.1l-0.1-0.1l-0.1,0l0,0l0,0l0,0L148.1,129.9L148.1,129.9
		L148.1,129.9L148.1,129.9z M151,129.9L151,129.9L151,129.9L151,129.9L151,129.9z M148.4,130L148.4,130L148.4,130L148.4,130
		L148.4,130l-0.1-0.1l0,0l0,0.2L148.4,130l0.1,0.1l0,0L148.4,130L148.4,130L148.4,130z M150.8,130L150.8,130L150.8,130L150.8,130
		L150.8,130l0-0.1l0,0l0,0l0,0l0,0l0,0.1L150.8,130L150.8,130L150.8,130z M150.6,130.5L150.6,130.5L150.6,130.5L150.6,130.5
		L150.6,130.5L150.6,130.5L150.6,130.5L150.6,130.5l-0.1-0.1l0,0.1l0,0.1l0,0.1l0,0l0,0l0,0l0.1,0L150.6,130.5L150.6,130.5
		L150.6,130.5L150.6,130.5L150.6,130.5z M150.5,130.9L150.5,130.9L150.5,130.9L150.5,130.9L150.5,130.9L150.5,130.9L150.5,130.9
		L150.5,130.9z M150.6,131.1L150.6,131.1L150.6,131.1L150.6,131.1l0-0.1l0,0l0,0l0,0l-0.1,0l0,0L150.6,131.1L150.6,131.1z
		 M149.4,131.9L149.4,131.9L149.4,131.9l0.1-0.1l0,0l0,0l0,0l0,0L149.4,131.9z M149.1,132.9L149.1,132.9L149.1,132.9L149.1,132.9
		L149.1,132.9L149.1,132.9L149.1,132.9l-0.1,0l0,0l0,0.2l0.1,0l0,0l0-0.1l0-0.1L149.1,132.9L149.1,132.9z M146.8,133.6l-0.1,0.2
		l0,0.1l0,0l0,0l0,0l0,0l0,0l0-0.1l0,0l0,0l0,0L146.8,133.6L146.8,133.6L146.8,133.6L146.8,133.6L146.8,133.6L146.8,133.6
		L146.8,133.6L146.8,133.6z M147.7,133.8L147.7,133.8L147.7,133.8L147.7,133.8L147.7,133.8l-0.2,0l0,0l0,0v0l0,0.1l0,0l0,0l0,0.1
		l0,0l0,0l0,0l0,0L147.7,133.8L147.7,133.8z M117.7,134.3L117.7,134.3L117.7,134.3L117.7,134.3L117.7,134.3l0-0.1l0,0l-0.1,0l0,0
		l0,0l0,0l0-0.1l0,0l0,0l0,0l0,0l0,0l0,0l0,0l0,0l0,0l0,0.1l0,0l0,0l0,0l0,0l0,0l0,0.1l0,0l0,0l0,0l0,0l0,0l0,0l0,0l0,0l0,0l0.1,0
		l0,0l0,0l0,0l0,0l0,0l0,0L117.7,134.3L117.7,134.3L117.7,134.3L117.7,134.3z M146.2,134.8l0-0.1l0-0.1l0,0l-0.1,0l0,0l0-0.1
		l0.1-0.1l0-0.1l0,0l0,0l0,0l0,0.1l0,0l0,0l0,0.1l0,0.1l0,0.1l0,0l0,0l0,0l0,0l0,0.1l0,0.1l0,0.1l-0.1,0l0,0l0,0l0.2,0l0,0l0,0
		l0-0.1l0,0l0,0l0,0L146.2,134.8L146.2,134.8L146.2,134.8z M147.2,134.5L147.2,134.5L147.2,134.5L147.2,134.5l0.1-0.1l0,0l0-0.1
		l0-0.1l0,0l0,0l-0.1,0.1L147.2,134.5L147.2,134.5L147.2,134.5L147.2,134.5L147.2,134.5L147.2,134.5z M145.4,134.8l-0.3-0.2l0,0l0,0
		l0,0.1l0.2,0.1L145.4,134.8l0.1,0.2l0,0l0-0.1L145.4,134.8z M144.6,135.3L144.6,135.3L144.6,135.3L144.6,135.3l0,0.1L144.6,135.3
		L144.6,135.3l-0.1,0l0,0l0,0l0,0.1l0.1,0l0,0l0,0l0,0l0,0l0,0l0,0l0,0.1l0,0l0,0l0,0l0.1-0.2l0,0l0.1,0L144.6,135.3L144.6,135.3z
		 M144.5,135.6L144.5,135.6L144.5,135.6l0,0.2l0,0l0.1-0.1L144.5,135.6L144.5,135.6z M142.4,137.3L142.4,137.3L142.4,137.3l-0.1-0.1
		l-0.1,0h0l0,0l0,0l0.1,0.1L142.4,137.3L142.4,137.3L142.4,137.3L142.4,137.3L142.4,137.3z M142.5,137.5L142.5,137.5L142.5,137.5
		L142.5,137.5L142.5,137.5l0.1-0.1l0,0l-0.1,0l0,0L142.5,137.5L142.5,137.5L142.5,137.5z M141.8,140.5L141.8,140.5L141.8,140.5
		L141.8,140.5l-0.1,0l0,0.1l0.1,0.1l0.1,0l0.1,0L141.8,140.5L141.8,140.5L141.8,140.5l0,0.1L141.8,140.5L141.8,140.5L141.8,140.5
		L141.8,140.5L141.8,140.5L141.8,140.5z M120,142.4L120,142.4L120,142.4L120,142.4L120,142.4l0.1-0.1l0,0l0,0l0,0l-0.1,0l-0.1,0
		l-0.1,0.1l0,0l0,0l0.1,0.1l0.1,0l0,0l0,0l-0.1,0l0,0l0,0l0,0l0,0l0,0v0l0,0l0,0l0.1,0l0,0l0,0l0,0l0,0l0,0l0,0l0,0L120,142.4
		L120,142.4L120,142.4L120,142.4z M141.3,142.6L141.3,142.6L141.3,142.6L141.3,142.6L141.3,142.6l0.1,0.1l0,0.1l0,0l0,0l0,0l0,0
		l0.1,0l0,0l0,0l0,0l0,0l0,0l0,0l0,0l0,0v0l0,0v0l0,0l-0.1,0l-0.1-0.1l-0.1,0l0,0L141.3,142.6L141.3,142.6L141.3,142.6z
		 M141.2,142.9L141.2,142.9L141.2,142.9l0.1,0.1l0,0l0.1,0.1l0,0l0,0l0,0l0,0l0,0l0,0l0,0l0,0L141.2,142.9L141.2,142.9z
		 M120.2,143.8L120.2,143.8L120.2,143.8L120.2,143.8L120.2,143.8L120.2,143.8l0-0.1l0,0l0,0l0-0.1l-0.1-0.1l0,0.1l0,0l0,0l0,0l0,0
		l0,0v0l-0.1,0l0,0l0,0l0,0l0,0l0,0l0,0l0,0.1l0,0L120.2,143.8L120.2,143.8L120.2,143.8L120.2,143.8L120.2,143.8L120.2,143.8z
		 M141.3,144.3L141.3,144.3l0,0.1l0,0l-0.1,0l0,0l0,0l0,0l0,0l0,0.1l0,0l0,0l0,0l0,0l0,0l0,0l0,0l0,0l0,0l0,0l0,0l0.1-0.2l0-0.1
		l0-0.1L141.3,144.3L141.3,144.3z M140.7,147.8L140.7,147.8L140.7,147.8L140.7,147.8L140.7,147.8l-0.1,0.1l0,0l0,0l0,0l0.1-0.1
		L140.7,147.8L140.7,147.8L140.7,147.8L140.7,147.8z M137.4,155.8L137.4,155.8L137.4,155.8L137.4,155.8l-0.1,0l0,0l0,0l0,0l0,0
		l0.1,0.1l0,0l0,0l0,0l0,0L137.4,155.8L137.4,155.8L137.4,155.8L137.4,155.8z M136.8,155.8L136.8,155.8L136.8,155.8L136.8,155.8
		L136.8,155.8L136.8,155.8l-0.2,0.1l0,0l0,0l0,0l0.1,0l0,0l0,0L136.8,155.8L136.8,155.8L136.8,155.8L136.8,155.8z M136.4,155.8
		L136.4,155.8L136.4,155.8l-0.1,0.1l0,0l0,0l0,0l0.1,0l0,0l0-0.1l0-0.1L136.4,155.8z M136.2,155.8L136.2,155.8l-0.1,0l0,0.1l0,0l0,0
		l0,0l0,0l0.1,0l0,0l0,0l0,0l0-0.1L136.2,155.8L136.2,155.8L136.2,155.8L136.2,155.8z M124.6,157.3L124.6,157.3l-0.1,0l0,0l0.1,0.2
		l0,0l0-0.1L124.6,157.3L124.6,157.3z M151.9,138.5l0.2,0.1l0.2-0.1l0.2-0.1l-0.1-0.1l-0.2-0.1l-0.1-0.1h-0.1L151.9,138.5z
		 M148.6,131.2l0.2,0.1l0.2,0.2l0.1,0l0.1-0.2l-0.2,0l-0.1-0.1l0-0.2l0.1,0.1l0.1,0l0.2,0L149,131l-0.3-0.1l-0.5,0l0.2,0.1l0.1,0.1
		l0,0L148.6,131.2L148.6,131.2z M159,91.5l-0.1-0.2l-0.2,0l-0.1,0.3l0.1,0l0,0l0,0l0,0.1l0,0.1L159,91.5z M148.4,121.8l0.1,0.2
		l0.2,0.1l0.2,0.3l0.2,0.1l0,0l0-0.1l0,0l0,0l0,0l0,0l-0.1-0.1l0-0.1l0-0.1l-0.1,0.1l-0.1,0l0-0.1l0-0.1l-0.2-0.4l0-0.1l0.1,0
		l0.1,0.1l0.1,0l0-0.1l-0.1-0.1l-0.1-0.1l0-0.1l0,0l0,0v0l0,0l0-0.1l0,0l-0.1,0l0,0l0,0.1l0.1,0.2l0,0.1l0,0.4L148.4,121.8z
		 M166.9,72.3l0-0.2l-0.2-0.2l0,0l0,0.2l0,0.1l0,0.1l0,0.1l0,0.1l0,0.1l0.1,0.1l0.2,0l0-0.1L166.9,72.3z M171,72.5L171,72.5l0-0.1
		l0,0l0,0l0-0.1l0-0.1l0-0.1l0,0l0,0l0,0.1l0,0l0,0l0,0l0,0.1l0,0l0,0l-0.1,0l0-0.1l0,0l0,0.1l0,0l0,0l0-0.1l0,0.1l0,0.2l0.1,0.1
		l0.2,0.1L171,72.5z M167.6,72.8L167.6,72.8l0-0.1l0,0l0,0l0-0.1l0-0.1l-0.1-0.1l-0.1-0.1l0,0l0.1,0l0-0.1l-0.1-0.1l-0.1,0l-0.1,0.1
		l0,0.2l0.1,0.2l0.1,0.2l0.1,0.1l0.1,0L167.6,72.8z M165.9,73.6L165.9,73.6l0.1,0.1l0.1-0.1l0-0.1l-0.1,0L165.9,73.6L165.9,73.6z
		 M165.8,73.9L165.8,73.9l0,0.1l0.1,0.1l0,0l0,0l0,0l0,0l0,0l0,0l0-0.1l0-0.1l0,0l0.1,0l0-0.1l-0.1,0l-0.2,0.1l-0.1,0L165.8,73.9
		L165.8,73.9L165.8,73.9z M164.7,74.8L164.7,74.8l-0.1-0.1l0,0l0,0l0-0.1l0,0l0.1,0l0.1,0l0.1,0.1l0,0.1l0,0l0.1,0l0-0.1l-0.1-0.1
		l0-0.1l0,0l0,0l0,0l-0.3-0.2l-0.1,0l-0.1,0l0,0l0,0.1l0.1,0.2L164.7,74.8L164.7,74.8L164.7,74.8L164.7,74.8z M166.1,74.5
		L166.1,74.5l0-0.1l-0.1,0l0,0l0,0l-0.1-0.1l0,0.1l0.1,0.1l0.1,0L166.1,74.5L166.1,74.5z M164.5,75.3L164.5,75.3l-0.1-0.1l0-0.1l0,0
		l0-0.1l-0.2-0.1h-0.1l0,0.1v0.1l0,0l0,0.1l0,0.1l0,0l0.2,0l0,0l0,0l0.1,0l0-0.1L164.5,75.3L164.5,75.3z M165.2,75.3L165.2,75.3
		l0.1-0.2l0-0.1l-0.1,0l-0.1,0l-0.1,0.1l-0.1,0.1l0,0l0-0.1l0,0l0,0l0,0.1l0,0.1l0,0L165.2,75.3L165.2,75.3z M159,91.6L159,91.6
		L159,91.6l-0.1,0.1l0,0.1l-0.1,0.5l0,0.1l0.1-0.1l0,0l0,0l0.1-0.1l0.1-0.1l0-0.1l0-0.1l0-0.1l0-0.1l0-0.1L159,91.6l0.1,0L159,91.6
		L159,91.6l0.1-0.1l0,0L159,91.6L159,91.6z M158.8,92.4l-0.2,0.2l0,0.1l0.1,0l0.1-0.1l0-0.1V92.4L158.8,92.4L158.8,92.4z
		 M147.3,101.4L147.3,101.4L147.3,101.4L147.3,101.4l0.1-0.2l0-0.1l0-0.1l0,0l-0.1,0l-0.1,0.1l0,0l0-0.1l-0.1,0l-0.1,0l-0.1,0.1
		l0,0.1l0,0.1l0,0.2l0.1,0.2l0.2,0l0.2-0.1l0-0.1L147.3,101.4L147.3,101.4L147.3,101.4L147.3,101.4z M149.8,123.4L149.8,123.4
		L149.8,123.4l0,0.1l0,0.1l0,0.1l0,0l0.1,0l0.1,0l0.1,0l0.1-0.1l0-0.1l0-0.1l0,0l0,0l0,0l0,0l0,0l0-0.1l0,0l0,0l0,0l0-0.1l0,0
		l-0.1,0l-0.1,0l0,0L149.8,123.4L149.8,123.4L149.8,123.4z M150.9,126.5l0-0.1l0-0.1l0-0.1l0,0l0,0l0,0l0,0.1l-0.2,0.3l0,0.1l0,0.1
		l0.1,0l0,0l0,0l0,0l0,0l0.1,0l0.1,0l0.1,0l0,0l0,0l0,0l0,0l0,0l0,0l0,0l0,0L150.9,126.5z M150.2,128.4l-0.1,0.1l-0.1,0.1l-0.1,0
		l0,0l0.1,0l0.1,0l0.1-0.1l0,0l0,0l0,0l0,0L150.2,128.4l0.2,0l0,0l0.2-0.3l0.1-0.1l0-0.1l-0.3,0.2L150.2,128.4L150.2,128.4z
		 M150.9,128.2L150.9,128.2L150.9,128.2L150.9,128.2l-0.1-0.2l-0.1,0l-0.1,0l-0.3,0.4l0,0.1l0,0.1l0.1,0l0,0l0,0l0-0.1l0.1-0.3l0,0
		l0.1,0L150.9,128.2L150.9,128.2L150.9,128.2L150.9,128.2z M149.4,129.3L149.4,129.3L149.4,129.3l0.1-0.1l0,0l0.1-0.1l0.2-0.1l0,0
		l-0.2,0.1l0,0l0,0l0,0l0,0l-0.1,0l-0.1,0l-0.1,0l-0.1,0.1l-0.1,0.1l-0.1,0.1l0,0.1l0,0.1l0,0l0,0l0,0l0,0l0,0l0,0l0,0l0,0l0,0l0,0
		l0,0l0,0l0,0l0-0.1l0,0l-0.1,0l0,0l0,0.1l0,0l0,0l0,0.1l0,0.1l0,0.1l0,0.1l0,0.1l0,0l0,0l0,0l0,0l0,0l0-0.3l0,0.1l0,0l0,0l0-0.1
		l0-0.2L149.4,129.3L149.4,129.3L149.4,129.3L149.4,129.3L149.4,129.3z M150.6,129.8L150.6,129.8L150.6,129.8l-0.1-0.1l-0.1,0
		l-0.1,0l-0.1,0.1l0,0.1l0.1,0l0.1-0.1L150.6,129.8z M150.3,130.1L150.3,130.1L150.3,130.1L150.3,130.1L150.3,130.1L150.3,130.1
		L150.3,130.1L150.3,130.1z M150.7,130.2L150.7,130.2l0-0.1l0,0l-0.1-0.1l-0.1,0l0,0l0,0.1l0,0l0,0l0.1,0.1L150.7,130.2L150.7,130.2
		z M147.7,130.4L147.7,130.4L147.7,130.4l-0.5-0.2l-0.1,0l0,0.1l0,0l0,0.1l0,0.1l0.1,0.1l0.1,0.1l0.1,0l0.1,0l0-0.1L147.7,130.4
		l-0.1,0L147.7,130.4L147.7,130.4z M149.5,130.4L149.5,130.4l0.1,0.1l0,0.1l0,0.1l0,0l0,0l0,0l0,0.1l0,0l0,0l0.2-0.1l0.1-0.1l0-0.1
		l0-0.1l0,0l0,0l0,0l-0.1-0.1l0,0l0,0l0,0l0,0l-0.2,0l0,0L149.5,130.4L149.5,130.4z M150.1,131.1L150.1,131.1L150.1,131.1l0.1-0.1
		l0,0l0,0l0,0l-0.1,0l-0.1,0l-0.1,0.1l-0.1,0.1l0,0.1l0,0l0,0l0,0l0,0l0,0l0,0l0,0l0,0l0,0l0,0L150.1,131.1z M149.9,131.7l-0.1,0
		l0,0l-0.1,0l-0.1,0.1l0,0.1l0,0.1l0,0L149.9,131.7L149.9,131.7L149.9,131.7z M148.2,133L148.2,133L148.2,133l0,0.2l0,0.1l0,0l0,0
		l0,0h0l0,0l0,0l0,0l0,0l0,0l0,0l0-0.1l0,0l0-0.1l0.1-0.1l0.1-0.2l0,0l0,0l0,0l0,0l0-0.1l0-0.1l-0.1,0l-0.1,0l-0.1,0.1l-0.1,0.1
		l-0.2,0.1l0,0l0,0l0,0.1l0,0l0,0l0,0l0,0L148.2,133L148.2,133L148.2,133L148.2,133z M145.2,133.4l0,0.1l0,0.1l0,0.1l0,0l0,0.1
		l0,0.1l0,0.1l0,0l0,0l0.1,0.2l0,0l0-0.1l0-0.1l0,0l0,0l0-0.1l0-0.1l0-0.1l0-0.1l0-0.1l0-0.1l0-0.1l0-0.1l0-0.1l0-0.1l0-0.1l0-0.1
		l0,0l0,0l0,0l0-0.1l0,0l0,0.1l0,0.2l0,0.1l0,0L145.2,133.4L145.2,133.4z M147.2,133.5L147.2,133.5l0.1,0.1l0.1,0l0-0.1l0-0.1l0-0.1
		l0-0.1l0,0l0,0.1l0,0l0,0l0,0l0,0l0,0l0-0.1l0,0l0,0l0,0l0,0l0.2-0.1l0,0l-0.2,0l-0.1,0l-0.1,0l-0.1,0l0,0l0,0.1l0,0.1l0,0l0,0l0,0
		l0,0l0,0.1l0,0l0,0l0,0l0.1,0L147.2,133.5L147.2,133.5L147.2,133.5z M148,133.6L148,133.6L148,133.6l-0.1,0l-0.1,0l-0.1,0.1
		l-0.1,0.1l-0.1,0.1l0,0.1l0,0l0,0l0,0l0.1-0.1l0.1,0l0.1,0l0.1,0l0,0l-0.1,0l0-0.1l0,0l0,0l0,0l0,0l0.1-0.1l0.1-0.1l0-0.1l0,0
		L148,133.6L148,133.6z M141.8,138.5L141.8,138.5l0,0.1l0.1,0.1l0.1,0.1l0.1,0l0.1,0l0.1,0l0,0l0,0l0,0l0,0l0,0l0,0l-0.1,0l-0.1,0
		l-0.1-0.1l-0.1-0.1L141.8,138.5l0.1-0.1h0l0,0l-0.1-0.1l0,0l0,0l0-0.1l0,0l0,0l0,0l-0.1,0l0,0l0,0l-0.1,0l0,0l-0.1,0l0,0.1l0,0.1
		L141.8,138.5L141.8,138.5L141.8,138.5z M141.9,138.9L141.9,138.9l0,0.2l0,0.1l0,0l0.1,0l0-0.1l0-0.1l0-0.1L141.9,138.9L141.9,138.9
		z M137.1,155.8L137.1,155.8L137.1,155.8l-0.1,0l0,0l-0.1,0l-0.1,0.1l0,0.1l0.1,0.1l0,0l0,0l0,0l0,0l0-0.1l0-0.1L137.1,155.8
		L137.1,155.8L137.1,155.8L137.1,155.8L137.1,155.8L137.1,155.8z M119.8,141.8L119.8,141.8L119.8,141.8l0.1,0.1l0,0l0-0.1l0,0l0.1,0
		l0,0l0-0.1l0-0.2l0-0.1l0.1-0.1l0.1,0l0,0.1l0,0.1l0,0l0.1,0l0,0l0-0.2l0,0l0,0l0-0.1l-0.1,0l-0.1,0l-0.1,0.1l-0.1,0h-0.4l-0.2,0
		l-0.1,0l0,0.1l0,0.1l0.1,0h0.1l0.1,0l-0.1,0l-0.1,0l0,0l0,0.1l0,0.1l0,0.1l0,0.1l0,0.1l0,0L119.8,141.8L119.8,141.8z M119.6,140.7
		L119.6,140.7L119.6,140.7l0.1-0.2l0.1-0.1l0.1,0l0.1,0l0.1,0.1l0.1-0.1l0.2,0.1l0.2-0.2l0.1,0l0.1,0l0-0.1l0-0.4l0-0.2l0-0.2
		l-0.1-0.1l-0.1-0.1l-0.1-0.1l0-0.2l-0.1,0l-0.1,0l-0.1,0l0,0l0,0.1l0,0l0,0.1l0,0.1l0,0.1l-0.1,0l-0.1,0l-0.1,0l-0.1,0l-0.1,0.1
		l-0.1,0.1l-0.4,0.4l-0.1,0.1l0,0.1l0,0.1l0.1,0.1l0,0.1l0,0.2h0v-0.3L119.6,140.7L119.6,140.7L119.6,140.7z M152.2,141.5l-0.1,0
		l-0.1,0l-0.1,0l0-0.1l-0.1,0.1l-0.1,0l-0.1,0l0,0l-0.1,0.1l-0.1,0l-0.1,0l0,0.1l0,0.1l0,0.1l0,0.1l-0.1,0.1l0,0.1l0,0.1l0.1,0.3
		l0.1,0.1l0.1,0.1l0.1,0l0.1,0l0,0l0.1-0.2l0-0.1l0-0.1l0,0l-0.1,0l0.1-0.1l0.2-0.1l0.1-0.1l0.1-0.1l0.2,0.1l0.1-0.1l0,0l0,0l0,0
		l0,0L152.2,141.5L152.2,141.5z M151.2,142.4L151.2,142.4l-0.1-0.1l0-0.1l0-0.1l0-0.1l0,0l-0.1,0l-0.1,0l-0.1,0l-0.1,0l0,0.1l-0.1,0
		l-0.1-0.1l0.1-0.1v0l-0.3,0l-0.1,0l0,0.1l0,0.1l0,0l0,0.1l-0.1,0.1l-0.1,0.1l0,0.2l-0.1-0.1l0-0.1l0-0.1l0,0l0,0l0,0l0,0l0,0l0,0
		l0,0l0,0l-0.1-0.1l-0.1-0.1l-0.1,0l-0.1,0l-0.1,0.1l-0.1,0.1l-0.1,0.1l-0.1,0.1l0,0.1l0,0.1l0,0.1l-0.1,0l-0.1,0l-0.1,0l-0.1,0
		l-0.2,0.1l-0.2,0.2l-0.6,1l-0.7,0.7l-0.1,0.2l-0.1,0.3l0,0.2l0,0.2l0,0.2l0,0.1l0,0l0,0.1l0,0l0,0.1l0,0l0,0l0,0l0,0l-0.1,0.1
		l0,0.1l0,0.2l-0.1,0.1l-0.2,0.1l-0.1,0.1l0,0.1l0.3,0.2l0.1,0.7l0.2,0.1l0,0l0,0.1l0,0l0.1,0l0,0.1l0,0.1l-0.1,0.1v0.1l0.1,0
		l0.1-0.1l0.1-0.1l0.1-0.1l0,0.1l0,0.2l0,0.1l-0.1,0.1l-0.2,0.1l-0.1,0.1l0,0.1l0,0.1l0,0.1l-0.3,0.5l0.1,0.1l0.1,0l0.4-0.2l0.1,0
		l0-0.2l0-0.1l0.1-0.1l-0.1-0.1v-0.1h0.2l-0.1-0.1l-0.1-0.1l0-0.1l0-0.4l0.1-0.1l0.3-0.2l0.1-0.1h-0.3l0.1-0.1l0.1-0.1l0.5-0.3
		l0.1,0v0h-0.1v-0.1l0.1-0.1l0.4-0.1l0,0l0.1-0.1l0-0.2l0,0l-0.1,0l0,0l0-0.1l0.1-0.1l0.2-0.1l0.1-0.1l0.1-0.1l0.1-0.1l0.1,0l0,0
		l0.1-0.1l0,0l0,0l0,0l0,0h0.1l0.1,0l0-0.1l0-0.1l0-0.1l0-0.1l0,0l-0.1-0.1l-0.1,0l0,0l0,0l0,0l-0.2,0l-0.2-0.1l0-0.1l0,0l-0.1,0
		l-0.1,0l0-0.1l0-0.1l-0.1-0.1l0-0.1l0.1-0.1l0-0.1l0-0.1l0-0.1l0-0.1l0-0.1l-0.2-0.1l0,0l0-0.1l0-0.1l0,0l0-0.1l0.1-0.2l0.1-0.3
		l0-0.1l0-0.1l0-0.1l0.1,0l0,0l0.1,0.1l0.1,0l0.2,0l0.2,0l0-0.1v-0.1l0-0.1l0-0.1l0-0.1l0,0l0.1,0l0,0.1l0-0.3l0.1-0.1l0.3,0l0-0.1
		L151.2,142.4z M143.1,146.6L143.1,146.6L143.1,146.6L143.1,146.6l-0.1-0.1l0,0l0,0h0l0,0.1l0,0l0,0l0-0.1l0,0l-0.1,0l-0.1,0.1
		l-0.1,0.2l-0.1,0.1l0,0.1l0,0.4l0,0.1l-0.1,0.1l-0.1,0l0,0l0,0.1l-0.1,0.6l-0.2,0.5l-0.2,0.4l-0.2,0.5l-0.1,0.3l-0.1,0.1l-0.1,0
		l-0.1,0l-0.1,0l-0.1,0.1l-0.7,1.8l0,0.2l0,0.1l-0.1,0.2l-0.1,0.2l0,0.1l0,0.7l0,0.1l0,0.1l0,0.1l0,0.1l0,0.3l0,0.2l0,0.2l0.1,0.2
		l0,0.1l0,0.2l0,0.1l0.1,0.1l0.1,0l0.1-0.1l0.1-0.1l0.2-0.5l0-0.1l0-0.1l0.1-0.1l0-0.1l0-0.2l0-0.1l0-0.1l0-0.2l0.1-0.2l0.1-0.1
		l0-0.1l0-0.1l0-0.1l0,0l0-0.1l0,0l0,0l0,0l0,0l0-0.2l0-0.1l0.1,0l0,0l0-0.1l0-0.1l0-0.1l0-0.2l0-0.1l0.2-0.8l0-0.2l0-0.1l0-0.1
		l0-0.1l0-0.1l0,0l0.2-0.1l0,0l0-0.1l0.1-0.4l0-0.1l0.1-0.1l0-0.1l0-0.2l0-0.1l0.1-0.2l0.1-0.1l0.1-0.1l0,0l0,0l0,0l0-0.1l0.1-0.1
		l0.1,0l0.1-0.1l0-0.2l0-0.1l0.2-0.3l0-0.1l0-0.1l0-0.1l0,0l0.1,0l0,0l0,0l0-0.1l0.1-0.2l0-0.1l-0.1-0.2l0.1-0.3l0.1-0.1
		L143.1,146.6L143.1,146.6L143.1,146.6z M171.8,71.7l0.2,0l0.1-0.1l0,0l0,0l0,0l0-0.1l0.3,0.1l0.1,0l0.1-0.2l0-0.2l-0.2-0.3
		l-0.1-0.4l-0.1-0.2l-0.1-0.2l0-0.2l0-0.2l-0.1-0.5l0-0.1l0-0.1l-0.1-0.1l0-0.1l0-0.1l-0.2-0.7l-0.1-0.1l-0.4-0.2l-0.1-0.1l-0.1-0.2
		l-0.1-0.5l0-0.3l-0.1-0.2l0-0.1l0-0.1l0-0.1l0-0.1l0-0.1l0-0.2l0-0.1l0-0.1l-0.1-0.2l0-0.1l0-0.2l0.1-0.2l0.1-0.1l0.1,0v-0.2
		l0.1-0.1l0.1-0.1l0.1-0.1l0-0.1l0.2-0.2l0.1-0.1l0-0.2l0-0.2l0-0.2l0-0.2l0-0.2l0-0.2l0-0.2l0-0.2l0-0.4l0-0.1l0.1-0.2l0.1-0.2
		l0.1,0l0.1,0l0.1,0l0-0.1l0-0.1l-0.2-0.5l-0.1-0.3l-0.1-0.2l-0.2-0.2l-0.2-0.5l-0.1-0.1l-0.1-0.1l-0.1-0.1l-0.1-0.2l-0.2-0.4l0-0.1
		l0-0.1l0-0.1l0-0.1l0-0.1l0-0.1l0,0l-0.1-0.2l-0.1-0.1l-0.1-0.1l0-0.2l0.1-0.1l0-0.1l0-0.1l0-0.1l-0.1,0l0-0.1l0-0.2l0-0.2l0.1-0.1
		l0.5-0.2l0.1-0.2l0.1-0.3l-0.1-0.1l0-0.3l0-0.3l0-0.2l-0.1-0.1l-0.1,0l-0.3-0.1l-0.3-0.2l-0.2,0l-0.2,0.1l-0.2,0l-0.1-0.2l-0.1-0.3
		l0.1-0.2l0.1-0.2l0.1-0.2l0-0.1l0.1-0.1l0.2-0.1l0.1-0.1l0-0.3l0-0.2l-0.1-0.3l0-0.2l0-0.4l0-0.2l0-0.1l0-0.7l0-0.2l0-0.3l0-0.3
		l0.1-0.2l0.1-0.1l0.3-0.1l0.1-0.1l0.1-0.2l0-0.2l-0.1-0.1l-0.3-0.1l-0.4-0.5l-0.1-0.1l-0.3-0.3l0-0.1l0-0.1l-0.2-0.7l0-0.1
		l-0.1-0.1l-0.1,0l-0.4,0.3l-0.1,0l0-0.1l0,0l0,0l0-0.1l0-0.1l0-0.1l0-0.3l0-0.1l0-0.1l0-0.3l-0.1-0.2l-0.2-0.2l-0.1-0.1l0-0.1
		l0-0.1l0-0.1l-0.1-0.1l-0.6-0.4l-0.1-0.2l-0.2-0.4l-0.1-0.1l-0.3,0.1l-0.1-0.2l-0.1-0.2l-0.1-0.1l-0.1,0l-0.1,0l-0.1,0l-0.2-0.1
		l-0.2,0l-0.3-0.2l-0.3,0l0,0l0-0.1l0,0l-0.3-0.1l-1,0l-0.1-0.1l0-0.1l0-0.1l0-0.1l0,0l0,0l-0.1-0.1l-0.1-0.1l-0.1-0.2l0-0.1
		l-0.2-0.2l-0.8-0.2l-0.1-0.4l-0.2-0.2l-0.4-0.4l-0.3-0.1l-0.1-0.1l-0.1-0.1l-0.1-0.4l0-0.1l0-0.1l-0.1-0.1l-0.3,0l0,0l0,0l0-0.1
		l0,0l-0.1-0.1l-0.2-0.5l-0.3-0.3l-0.3-0.3l-0.7-0.3l-0.1-0.1l0-0.2l0.1-0.1l0.1-0.2l0-0.2l-0.1-0.2l-0.2-0.1l-0.3-0.3l-0.5-0.1
		l-0.2-0.2l-2.2,0.2l1,1.3l0,0.2l0,1l0,0.2l-0.1,0.2l-0.4,1.2l-0.4,0.6L155,42l1.2,0.7l-1,1.3l-0.2,0.1l-0.2,0l-1.9-0.8l-1.9-0.9
		l-1.4,0.1l-0.2-0.1l-0.7-0.7l-0.2-0.1l-1.1,0.4l0,0.1l0,0.1l-0.1,1.1l0,0.3l0.2,2.2l-0.1,0.5l-0.8,1.6l-0.1,0.3l-0.1,0.2l-0.1,0
		l-2.4-1.5l-0.1,0.1l-0.3,0.6l-1.7,1.4l-0.1,0.2l-0.1,0.2l-0.6,2.5l-0.1,0.2l-0.4,0.7l-0.2,0.3l-0.3,0.1l-0.7,0.1l-0.1,0.1l-0.2,0.8
		l1.3,2.4l0,0.2l-0.1,1.4l-0.1,0.2l-0.1,0.1l-0.2,0.2l-0.8,0.8l-0.4,0.5l-1.5,3.1l-1,1.1l0,0.3l0.2,1.3l0,0.3l0,0.2l0,0.1l-1.8,1.3
		l-2.1,0.3l0.4,2.9l0,0.4l0,0.2l-0.3,0.7l0,0.2l-0.2,2.4l0,0.5l0,0.5l0,0.5l-0.1,0.3l-0.3,0.3l-0.1,0.2l-0.1,0.2l-0.1,0.9l-0.1,0.4
		l-0.6,0.9l0,0l-2.2,4l1.2,0.9l0.2,0.1l0.3,0.1l0.2,0.1l0.1,0.2l0.2,2.3l0,0.2l-0.1,0.2l-0.7,1.4l-0.1,0.1h-0.1l-3-0.8l-1.1,0.3
		l-1,0.6l-0.3,0.3l-0.8,1.4l-0.8,1.4l-0.5,0.6l0.2,1l0,0.2l-0.1,0.2l-0.9,1.5l1,2.7l-0.5,0.7l0,0.1l0,0.2l0.2,1.4l0,0.2l-0.1,0.3
		l-0.1,0.4l-0.1,0.3l0,0.2l0.8,2.3l0.1,0.4l0,0.5l-0.7,4.5l0.1,0.1l0.5,0.5l0.2,0.2l0.3,0.4l0.1,0.1l0.2,0l0.3,0l0.1,0.1l0.1,0.1
		l1.1,1.5l0,0.1l0,0.1l-0.1,0.8l-0.1,0.2l-0.1,0.2l-0.3,0.5l0,0.1l0,0.1l-0.1,0.6l0,0.1l-0.1,0l-0.5-0.1l-0.2,0l-1,0.3l-0.1,0.1
		l0,0.2l0.2,0.4l0.1,0.3l0.1,0.6l0.1,0.3l0.1,0.3l0.4,0.8l0.5,1.2l0.1,0.2l0,0.3l0,0.3l0,0.2l-0.1,0.2l-0.1,0.1l-0.2,0.3l-0.1,0.1
		l0,0.1l0,0.3l0.1,0.5l0,0.3l-0.1,0.4l-0.1,0.3l-0.2,0.3l-0.7,0.8l-0.6,0.5l-0.2,0l-0.7-0.1l-0.2,0.1l-0.2,0.2l0,0.3l0,0.1l0.1,0.2
		l0.1,0.1l0,0.1l0,0.3v0.2l0,0.1l-0.2,0.3l-0.1,0.1l-0.6,0.3l-0.1,0.1l0,0.2l0,0.2l0.4,1.6l0.1,0.5l0,0.2v0.2l0,0.1l-0.1,0.1l0,0.1
		l-0.1,0.5l0,0.4l0,0.2l-0.1,0.4l0,0.2l0,0.2l-0.1,0.4l-0.2,0.2l-0.3,0.1l-0.3,0l-0.1-0.1l0-0.5l-0.1-0.2h0l-0.1-0.1l-0.1-0.1
		L119,133l0-0.2l-0.1-0.2l-0.1-0.1l-0.4,0.1l-0.1,0.1l-0.3,0.4l0,0.1l0,0.1l0,0.1l0.1,0l0.2,0l-0.2,0.1l-0.1,0.1l0,0.1l0,0.1
		l0.1,0.1l0.2,0.1l0,0.1l0,0l0,0l0,0.1l0,0.1l0,0.2l0,0.1l0,0l0,0l0,0l0,0.3l0,0.1l0,0.1l0,0.1l0,0.1l0,0.1l-0.1,0l0,0.1l0,0.1
		l0,0.1l0.1,0l0,0l0,0.1l0,0.2l0.2,0.2l0,0.1v0.1l0,0.1l0,0.1l0,0.1l0,0l0,0l0,0.1h0.1l0,0.1l0,0l0,0l0,0.1l0,0.1l0,0.2l0,0l0,0l0,0
		l0,0l0,0l0,0.1l0,0l0,0l0.2,0.1l-0.1,0.1l-0.1,0.1l0,0.1l0,0.2l-0.1,0l-0.1,0l0,0.1l0.1,0.2l0,0.1l0,0.1l0,0.1l0,0.1l0,0.1l0.1-0.2
		l0.1,0l0.1,0l0.1-0.1l0,0l0-0.1l0,0l0,0l0.1-0.1l0.2-0.3l0-0.1l0,0.1l0,0.1l-0.1,0.2l-0.1,0.3l0,0.1l0,0l0.1,0l0-0.1l0-0.1l0-0.1
		l0-0.1l0.1,0l0,0.2l0.1,0.1l0,0.1l-0.1,0l-0.1,0l0,0.1l0,0.1l0,0.1l0,0l0.1-0.1l0.1,0v0.1l-0.1,0.1l-0.1,0.1l0,0.1l0,0.1l0.3-0.2
		l0.1-0.1l0.1-0.2l0.1-0.2l0-0.3l0-0.3l0-0.2h0l0,0.1l0.1,0.3l0,0.1l0.1-0.1l0.1-0.1l0.1,0l0.1,0.1l-0.1,0.1l-0.1,0.1l-0.1,0.1
		l0.1,0.1l-0.2,0.3l-0.1,0.2l-0.1,0.2l-0.1,0.2l0,0.2l0,0.1l0.1,0l0-0.1l0,0l0,0l0.1,0l0.1,0l0.1,0l0,0l0.1-0.1l0,0l0,0l0.2-0.2
		l0.1,0l0.1,0l0-0.1l0.1,0l0.2,0l0.2-0.1l0.1,0l0.1,0.1l-0.2,0.1l-0.1,0.1l0,0.2l0,0.1l0,0.1l0,0.1l0,0.2l0,0.1l0.1,0l0.1,0l0,0.1
		l0,0l0,0l-0.1,0l0,0l0,0.1l0,0.5l0,0.1l-0.1,0l0,0.1l0,0l0,0l-0.1,0.1l0,0.1l0,0.1l0,0.1l0,0.1l0,0.1l-0.1,0.2l-0.2,0.3l0,0.1
		l0.1,0.1l0,0.1l0,0l0,0v0.1h0.1v0l-0.2,0.1l-0.1,0.1l0,0.2l-0.1,0l-0.1,0l-0.1,0.1l0.1,0l0.1,0.1l0.1,0.2l0.1,0.1l0.1,0l0.1,0
		l0.1,0l0,0.1l0,0.1l-0.4,0.4l0,0.1l0,0.1l0.1,0l0.1,0l0.1,0l0-0.1l0.1,0l0.2,0.1l0.1,0l0.1,0l0.1,0l0.1-0.1l-0.1,0.1l-0.3,0l0,0.2
		l0,0.1l0,0.1l0,0.1l0,0.1l0,0.1l0.1,0l0.1-0.1l0-0.1l0,0l0,0l0,0l0,0.2l0,0.4l-0.1,0.1l0,0l0.1,0.1l-0.1,0l0,0l0.1,0l0.1,0.1
		l-0.1,0l-0.1,0.1l0,0.1l0,0.1l0,0.1l0,0.1l0,0.1l-0.1,0.1l0,0l0,0l0,0l0,0l0,0.2h0.1l0.1,0l0,0.1l0.1-0.1l0.1-0.5l0.1-0.1l0,0l0,0
		l0,0l0,0l0,0l0.1,0.3l0,0.1l0,0.1l-0.1,0.1h0.2l-0.1,0.1l-0.1,0.1l-0.1,0.1l0.1,0.1l0,0l0.1,0l0,0l0,0l0,0l0,0l0,0l0,0l0,0.1l0,0.1
		l0,0.1l0,0v0.1l0,0l-0.1,0l0,0l0,0.1l0,0v0.1l0.1,0l0.1,0l0.1,0l-0.1,0l-0.1,0H122l0.1,0.1l0.1,0l0.1,0l0.1,0l0,0l0,0.1l-0.1,0.1
		l0.1,0l0.1,0l0,0l0,0.1l0,0.2l0,0.1l0.1,0.2l0,0.1l-0.1,0.1l0.1,0.1l0,0l0,0.1l0.1,0.1l0.1,0.1l0.1,0.1l0,0.1l0,0.1l0,0l0,0l0,0.1
		l0,0l0,0l0,0.1l0,0l0,0.2l0,0.1l0.1,0.1l0.2,0l0.1,0.1l0.1,0l0,0l0.1,0.1l0,0l0.1,0l0,0l0,0v0l0,0l0,0l0.3,0.2l0,0.1l0,0.2l0.1,0.3
		l0.1,0.1l0.1,0.1l0.1,0.1l0,0.2l0,0.1l0.2,0.2l0.1,0l0.1,0l0.1,0l0.2-0.1l0.1,0l0.1,0l0.1,0.1l0.1,0.3l0.1,0.3l0,0.2l0,0.2
		l-0.1,0.2l-0.1,0.1l-0.1,0.1l-0.2,0.1l-0.5-0.2l-0.2,0.1l-0.1,0.3l0.1,0.2l0.4,0.3l0.1,0.3l0.1,0.2l0.2,0.1l0,0.1l0,0.1l-0.1,0.1
		L125,155l-0.1,0l-0.2,0l0,0l-0.1,0l0,0l0,0l-0.1-0.1l0,0l0,0l-0.1-0.1l0,0l-0.8-0.4l0.1,0.1l0.2,0.1l0.1,0.2l0.1,0.2l0,0.1l0,0.2
		l0,0.1l0.2,0.4l0,0.1l0.4,0.5l0,0.1l0,0.1l0,0.1l0.1,0l0.1,0.1l0,0.1l0,0.1l0,0.1l0.1,0.1l0,0l0,0l0,0l0,0l0,0.1l0,0.1l0,0.1
		l0.1,0.2l0.2,0.1l0.1,0.1l0.1,0.3l0,0.1l0,0.1l0,0l-0.1,0l0,0.1l0.1,0l0.1,0l0,0.1l0.1,0l0.1,0l0.1,0.1l0.1,0.1l0.1,0.1l0,0.1
		l0,0.1l0,0.1l0,0.1l0,0.1l-0.3,0.2l-0.1,0.1l0,0.2l0,0.2l0.2,0.3l0,0.2l-0.1,0l0,0l0,0l0,0.1l-0.1,0.1l-0.1,0l-0.1,0l-0.1,0l0-0.1
		l0,0l0,0h0l-0.1,0.3l0,0.1l0.1,0l0.1-0.1l0.1,0l0,0l0.1,0l0,0l0,0l0.1-0.1l0,0l0.1,0l0.1,0l0,0l0.1,0.1l0,0l0,0l0.1,0l0.2,0
		l0.7,0.3l0.1,0l0.3,0l0.1,0l0.4-0.3l0.1,0l0.2,0l0.1,0l0.1-0.1l0-0.1l0-0.1l0.1,0l0.6,0l0.2,0l0.1,0l0.1,0l0.1-0.1l0.1,0l0.1,0
		l0.1,0l0.3,0.2l0.1,0l0.1,0l0.3,0l0.1,0l0.1-0.1l0.1-0.1l0.2-0.3l0.1-0.1l0.1-0.1l0.2-0.3l0.1-0.1l0-0.2l0-0.1l-0.2-0.3l-0.1-0.1
		l0-0.1l0-0.1l0-0.1l0-0.1l0-0.1l-0.1-0.1l-0.2-0.1l-0.1-0.1l0-0.1l0-0.1l0-0.3l0-0.3l0.1-0.3l0.2-0.2l0.2-0.1l0-0.1l0-0.1l0.1-0.1
		l0.1-0.1l0.1,0l0.1-0.1l0.2-0.2l0.1-0.2l0.1-0.1l0.1,0l0,0l0.1-0.1l0.1,0l0,0l0,0l0,0.1l0.1-0.1l0,0.1l0,0.1l0,0.1l0,0l-0.1,0.1
		l0,0l0,0l0.1,0l0,0l0,0l0,0l0,0l0-0.1h0.1l0,0.1l0,0l0,0l0-0.1l0-0.1l0.1,0l0,0l0-0.1l0-0.1l-0.1-0.2l0-0.1l0-0.1l0-0.1l-0.1,0l0,0
		l0-0.1l0-0.1l0-0.1l0.1-0.1l0.1,0l0.2,0l0.1,0l0.1,0.1l0.1,0.1l0.1,0l0-0.1l0.1,0l0.1,0l0.1,0l0.1-0.1l0.1,0l0.3,0.1l0,0l0-0.1l0,0
		l0,0l0.1,0l0,0l0,0l0,0.1l0,0h0.2l0,0l0,0l0,0l0,0l0.1,0.1l0.2,0l0.2-0.1l0.1-0.1l0.1,0.2l0,0.1l0,0l-0.1,0l0.1,0l0.1,0l0.2,0l0,0
		l0,0l0-0.1l0.1-0.1l0,0l0.1,0l0.1,0l0,0l0,0.1l0,0l0.1,0.1l0,0l0-0.1l0,0l0.2-0.1l0.2-0.1l0.1,0l0,0l0,0.1l0,0.1l0,0l0.1,0.1
		l0.1-0.1l0.1-0.1l0.1-0.1l0,0l0.1,0.1l0.1,0l0,0l0,0l0,0l0,0l0.1,0.1l0.1,0l0.2-0.1l0.1,0.1l0,0.1l-0.1,0.3l0.1,0.1l0.1,0.1l0.1,0
		l0.1-0.1l0.2-0.5l0.1-0.1l0.2-0.2l0.1-0.1l0-0.1l0-0.1l0-0.1l0,0l0,0l0.2-1.2l0.1-0.3l0.2-0.4l0-0.1l0-0.1l0.1,0l0-0.1l0-0.2l0-0.2
		l0-0.1l0,0l0,0l0.1-0.2l0-0.1l0,0l0,0l0.1,0l0.1,0l0.1,0.1l0.1,0l0.1,0l0.1-0.1l0-0.1l0-0.1l0-0.2l-0.1-0.2l0-0.1l0,0l0.1,0
		l0.1-0.1l0.1,0l0.1,0l0.1,0.1l0,0l0,0l0-0.1l0-0.1l0,0l0,0l0,0.1l-0.1,0l-0.1,0l0-0.1l0-0.1l0.1-0.4l0-0.1v-0.1l0-0.2l0,0l0.1-0.2
		l0-0.1l0-0.1l0-0.1l0-0.1l0-0.2l0-0.1l0.1-0.1l0.1,0v-0.1l0,0l0,0l0,0l0-0.1l0.1,0l0.1,0l0.1,0l0,0l0,0l0,0l0,0l0,0l0,0l0,0l0,0
		l0,0l0,0l0,0l0,0l0,0l0,0l0,0l0.1,0.1l0.1,0l0-0.1l-0.1-0.1l0-0.1l0.1,0l-0.1-0.2l0-0.1l0,0l0,0l0,0l0-0.1l-0.1-0.2l-0.1-0.2l0-0.2
		l0-0.2l0.1-0.1l-0.1-0.3l0.1-0.1l0.3-0.2l-0.1-0.1l0,0l0,0l0-0.1l-0.1-0.1l0.1-0.2l0.1,0l0.2,0.1l0-0.1l0-0.1l0.1,0l0.1,0l-0.1,0
		l-0.1-0.1l0-0.1l0-0.1l0.1,0l0.1,0l0,0l-0.1-0.1l0.1,0l0-0.1l-0.1-0.2l-0.1-0.3l-0.2-0.1l-0.3,0v0h0.1v-0.1l-0.1-0.1v-0.1l0,0
		l0.1-0.1l0,0l0,0l0-0.1l0,0l0,0l0,0l0,0l0,0.1v0.1l0,0.1l0,0l0,0l0.1-0.1l0-0.1l0,0l0,0l0,0l0-0.1l0-0.1l-0.1,0l0,0l0-0.1l0.1,0
		l0.1,0l0-0.1l0-0.1l0-0.1l-0.1-0.1l0-0.1l0.1,0.1l0.1,0.1l0.3,0v-0.1h-0.1v-0.1h0.1l0-0.1l-0.1-0.1l-0.1,0l-0.1,0l0.1-0.1l-0.1-0.1
		l-0.1-0.2l0,0l-0.1,0l0,0l0-0.1l0-0.1l-0.2-0.2l-0.2-0.2l-0.1-0.1l0-0.1l0-0.1l0.5,0.4l0.3,0.5l0.1,0.1l0.2,0.1l0.1,0l0-0.1
		l-0.1-0.1l-0.9-1v-0.1l0.1,0l0,0l0-0.1l-0.1-0.1l0.2,0.1l0.1,0.1l0.1,0.1l0,0l0-0.1l0-0.1l0-0.1l0,0l0-0.1l0,0l-0.2-0.1l-0.1-0.2
		l0-0.1l0-0.1l0-0.1l0,0l0,0l0.5,0.6l0,0l0,0l0,0l0,0l0,0.1l0,0.1v0.1l0,0.1l0.2,0l0.1,0l0-0.1l0-0.2l0,0l0.1,0.2l0.1,0.1l0.1,0
		l0.1,0l0-0.1l0-0.1l-0.1-0.1l0-0.1l0.2,0.1l0.1,0l0-0.1l-0.1-0.1l0,0l0-0.1l0-0.1l0,0l0,0.1l0,0l0-0.1l0-0.2l-0.1,0l-0.1,0
		l-0.1-0.2l0-0.1l0.1-0.1l0.1,0l0.1,0.2l0.1,0.1l-0.1-0.1l0,0l0.1-0.1l0,0.1l0,0l0,0l0-0.1l-0.1-0.1l-0.1,0l-0.1,0l-0.1-0.1l0.1,0
		l0,0l0-0.1l0-0.1l0.1,0l-0.1-0.2l-0.1-0.2l-0.1-0.2l0,0l0.1,0l0,0l-0.1-0.1l-0.2-0.2l-0.1-0.1l0.2,0.1l0.2,0.3l0.2,0.2l0.1-0.3l0,0
		l0-0.1l0,0l0,0l0.1,0l0,0l0,0l0-0.1l0-0.1l0-0.1l0-0.1l-0.1-0.1l0,0l0,0l-0.3-0.2l-0.1,0v-0.1l0.2,0l0,0l0,0l0-0.1l0,0l0,0l0,0
		l0.1,0l0,0l0-0.1l-0.1,0l-0.2,0.1l0,0.1l0,0.1l0,0l0,0l-0.1,0l0-0.1l0-0.1l-0.1-0.1l-0.2-0.1l-0.1-0.1l0.6,0.1l0-0.2l0,0l-0.1,0
		l0,0l-0.1,0l-0.1,0l0,0l0-0.1l0-0.1l0-0.1l0-0.1l0-0.1l-0.1,0l-0.1,0l-0.9-0.5l-0.1,0l0.1-0.1l0.4,0.1l0.2,0.2l0.5,0.1l0,0l0.1,0
		l0,0l0,0l0.1-0.1l0,0l0.1,0l0.1-0.1l0.1-0.1l0-0.1l0.1,0l0.2,0l0.1-0.1l-0.2-0.2l-0.2,0l-0.1,0l0-0.1V137h-0.1v0l0,0l0,0l-0.1,0
		l-0.1-0.1l0-0.1l0-0.1l-0.1,0l-0.1-0.1l0,0l0,0.1l0,0l-0.1-0.1l-0.2,0l-0.1,0l-0.1-0.1l-0.1,0l-0.5,0l-0.1-0.1l-0.2-0.1l-0.1,0
		l0,0.1l0,0.1l0,0.1l0,0.1l0,0l-0.1,0l0,0l0-0.1l0-0.1l0,0l0,0l-0.1-0.1l-0.1,0l-0.1,0l-0.1,0.1l-0.1,0.1l-0.2-0.1l-0.1,0.1l0-0.1
		l0,0l-0.1,0l-0.1,0v-0.1l0.1,0l0.2,0l0.1,0l0-0.1l0-0.1l0-0.1l-0.1,0V136l2.9,0.4l0.4-0.1l0.1,0l-0.1-0.1l-0.1-0.1l-0.2,0l0.1-0.1
		l0.2,0l0.2,0.2l0.1,0l0.1-0.1l0.1-0.1l0.1-0.1v-0.1l-0.1,0l-0.2,0l-0.1-0.1l0,0l0-0.1l0-0.1l0-0.1l0-0.1l-0.1,0l-0.1,0l0.1,0
		l0.1-0.1l0,0l0.1,0l0.1,0.1l0,0.1l0.1,0l0.5,0v-0.1l0.1,0l0.2,0l0.1-0.1l0-0.1l-0.1-0.2l0.5,0.1l0.1-0.1l-0.1-0.1l0,0l0,0l0-0.1
		l0-0.1l0-0.2l0-0.1l-0.1-0.1v-0.1l0.1,0.1l0.3,0.3l0.1,0l0,0l0,0h0.1v-0.1l-0.1-0.1l-0.1-0.1l0-0.1l0.1,0l0.1,0l0.1,0l0.1-0.1
		l0-0.1l-0.1-0.1l-0.1,0l0-0.1v-0.1l0,0l0,0l0,0l0,0l0,0l0,0l0,0l0,0l0-0.1l0-0.2l0-0.1l-0.1-0.1l0-0.2l0-0.2l0-0.2l0.1,0l0.1-0.1
		l0.1-0.1l0.1-0.1l-0.1-0.3l0,0.1l0,0.1l0,0.1l0,0.1l0,0.1l-0.1,0.2l0,0.1l0.1,0.2l0,0l0,0l0-0.1l0-0.3l0-0.1l0-0.1l0.1,0l0,0l0,0.1
		l-0.1,0.2l0,0l0,0.1l0,0.2l0,0.2l-0.1,0.1v0.1l0,0.2l0,0.2l0,0.2l0.1,0.1l0,0.1l0,0.1l0,0.1l0,0l0,0l0-0.1l0-0.1l-0.1-0.1l0-0.2
		l0-0.1l0.1,0.1l0.1,0.2l0,0l0.1,0l0,0l0,0l0,0l0,0l0,0l0,0.1l0,0.1l0,0.1l0,0.1l0.1,0.1l0-0.2l0-0.1l0-0.1l0.1,0l0.1,0l0.1,0
		l0.1-0.1l0-0.1l0-0.1l0-0.1l0-0.1l0.1-0.2l0.1-0.2l0.1-0.1l-0.1-0.1l0-0.1l0.1,0l0.1,0.1l0,0l0-0.1l0,0l0.2,0l0.1,0l0.1-0.2l0-0.1
		l0.1,0l0.1,0l0.1,0l0.1-0.1l0.1,0l0.1,0l0.1,0v0.1l0,0l0,0l0.1,0.1l-0.1,0l-0.1,0.1l-0.1,0l0.1,0l0.4-0.2l0-0.1l0,0l0,0l0,0
		l0.1-0.1l0.2-0.1l0.2,0l0.1,0l0,0l0,0l0-0.1l0-0.1l0-0.1l0,0l-0.1,0.1v-0.1l0,0l0,0l0,0l0,0l-0.1,0.1l0-0.1l0-0.1l0-0.1l-0.1,0
		l-0.1,0l-0.1-0.1l0-0.1l0.1,0l0.4,0.3l-0.1-0.1l-0.1-0.1l-0.1-0.1l-0.1,0l-0.2-0.1l0-0.1l0,0l0.1,0V131l0-0.1l0-0.1l0-0.1l-0.1,0
		l0.1-0.1l0.1-0.1l0.1,0l0.1,0l0,0l0,0.1l0,0l0.1,0.1l0.3-0.1l0.1,0l0.1,0l0.1,0l0.1,0l0.1,0l0.1,0l0.1,0l0.2,0l0.1-0.1l0-0.1
		l-0.1-0.1l-0.1-0.1l-0.1,0l-0.1-0.1l0.1,0l0.1,0l0.1,0l0-0.1l-0.3-0.2l0,0l0-0.1l0,0l-0.1-0.1l-0.1,0l-0.2,0l0,0.1l0.1,0.1l0.2,0.1
		h-0.2l0,0.1l0.1,0.3l0,0.1l-0.1,0l-0.1,0l0,0l0-0.1l0,0l-0.2-0.1l-0.3-0.1l-0.3,0.1l-0.1,0.4h0l0-0.1l0,0l-0.1,0.1l-0.6,0l-0.1-0.1
		l-0.1,0l-0.2,0.2l-0.1,0.1l0,0l0,0.1l0,0l0,0l0,0.1l0,0l0,0.1l0,0.1l0,0l-0.1,0l0-0.2l-0.2-0.1l-0.4,0v0.1l0.2,0.1l0,0.1l-0.1,0.1
		l-0.1,0l-0.1,0l0.1-0.1l0,0l0,0l-0.1,0l0,0l0,0l0-0.1l-0.3-0.1l-0.1,0l-0.1,0.1l0.1,0.1l0,0.1l0,0.2l0,0.1l0-0.1l-0.1-0.2l0,0
		l-0.1,0l-0.2-0.1l-0.2-0.2l-0.2-0.1l-0.3-0.1l0.1,0.4l0.1,0.1l0.1,0.1v0.1l-0.8-0.1v-0.1l0.2,0l0.1,0l0-0.1l0-0.1l-0.2-0.3l0.3-0.1
		l0-0.1l0-0.1l-0.1-0.1l-0.2,0l-0.4-0.1l-0.2,0l-0.2,0.1l0,0l0-0.1l0,0l-0.3-0.2l0,0l0-0.1l0-0.1l0-0.1l-0.1-0.1l0,0l0,0l-0.1-0.1
		l-0.2-0.2l-0.1,0l0,0.1h-0.3l0,0l-0.1,0l0,0l0,0l0,0l0,0l0.1,0.1l0.5,0.4l0,0l0.1,0l0,0l0,0l0,0.1l0,0l0,0h-0.3l0,0l-0.1-0.2
		l-0.3-0.3l-0.1-0.1l-0.1-0.1l-0.1,0.1l-0.1,0.1l-0.1,0.1l-0.1,0l-0.1-0.1l-0.1,0l0,0l0,0.1l0,0l0,0l-0.1,0l0,0l-1.3,0.1l-0.2,0
		l-0.2-0.1l-0.2-0.1l-0.1-0.2l0.4,0.2h0.5v-0.1h-0.1v-0.1l0.1-0.1l0.1,0l0,0.1l0,0.1l0.1,0.1l0.1,0l0.1,0l0-0.1l0,0l0.1,0l0,0
		l0.1-0.1l0,0l0,0l0.2,0.1l0.1,0l0.1-0.1l-0.2-0.1l0.1,0l0.1,0l0.1,0l0.1-0.1l-0.1-0.1l-0.1-0.2l-0.1-0.1l0.1-0.1l0.1,0l0,0l0,0
		l0.1,0.1l0.1,0.1l0.1,0.1l0.1,0.1l0.1,0.1l0.1,0.1l0.1,0l0.1,0l0.1,0l0,0l0-0.1l0-0.1l0.1-0.1l0,0l0,0l0-0.1l0-0.1l0,0l0.3,0.1l0,0
		l0,0l0,0l0,0l0,0l0,0l0,0l0,0l0.1,0.2l0,0l0.5,0l0-0.1l-0.2-0.2l-0.1-0.1l0.1,0l0,0l0.1-0.1l0,0l0,0.1l0,0.1l0.1,0.1l0,0l0,0l0,0
		l0.1,0.1l0.1,0.1l0.2,0l0,0.1l0,0.1l0.5,0.4l0.1,0l0-0.1l0-0.1l0,0l0,0.1l0.1,0.2l0,0l0-0.1l0-0.1l-0.1-0.2l0.1-0.1l0-0.2l-0.1-0.2
		l0-0.1l-0.1-0.1l0-0.1l0,0l0.1,0l0-0.1l0-0.1l0-0.1l0,0.1l0,0.1l0,0.1l0.1,0l0,0l0.1,0.2l0.2,0.2l0,0l0,0l0.1-0.1l0,0l0.1,0l0,0.1
		l-0.1,0.1l-0.1,0.1l0,0.1l0,0.1l0,0l0.1,0l0,0l0,0l0,0l0-0.1l0,0l0.1,0l0.3,0.1l0.1,0l0,0.1l0.1,0.2l0.1,0.1l0.1,0l0-0.1l0-0.1
		l0.1-0.1l0.2-0.3l0-0.1l-0.1-0.3l0-0.1l-0.1-0.1l-0.1,0l-0.1,0l-0.4-0.3L145,128l0-0.1l0-0.1l0.2-0.2l0,0l0,0l0,0l0.1-0.2l-0.1-0.1
		l-0.3,0l0.1,0l0,0l-0.1,0.1l-0.1,0l-0.1,0.1l0,0.1l0,0.2l0,0.1l-0.1,0.1l0.1,0.1l0.1,0.2l0,0.2l0,0.1l-0.1-0.1l-0.1-0.4l-0.1-0.1
		l0-0.2l0-0.1l-0.1,0l0-0.1l0-0.1l0-0.1l0.1-0.2l0-0.1l0,0l-0.3,0l-0.1,0l-0.1-0.1h0.6l0.1,0l0.1-0.1l0.1-0.2l0.1-0.2l0,0.1l0,0.1
		l0.1,0.1l0,0.2l0.1,0.1l0.1,0.1l0.1,0.1l-0.1,0l0,0.1l0,0.1l0,0.1l0,0.1l-0.1,0.1l-0.1,0l-0.1,0l0.1,0.1l0.1,0.1l0.1,0l0.1,0
		l0.2,0.1l0.1,0l0-0.1l0-0.1l0-0.2l0-0.1l0.1-0.1l0,0.1l0,0.1l0,0.1l0,0.1l0,0.2l0,0.1l0.1,0.1l0,0l0.1,0l0,0l0,0.1l0,0l0,0v0.1l0,0
		l0,0l0,0l0,0.1l0,0.1l0,0.1l0,0.1L146,129l-0.1,0.1l-0.1,0.2l0,0.2l-0.1,0.3l0.1,0.3l0.2,0.2l0.2,0.1l0.1,0l0.3-0.1l0.5,0.1l0.1,0
		l-0.6-0.6l0,0l0.1,0.1l0,0l0,0l0.1-0.1l0-0.1l0-0.1v-0.1l0,0l0,0l0.1-0.1l0,0l0,0l0,0.1l0,0l0.1,0l0.1-0.1l0.1,0l0,0.1l0,0.2l0,0.1
		l0,0l-0.1,0l-0.1,0l0,0l0.1,0.1l0.2,0.1l0.2,0l0.1-0.1l-0.1,0l-0.1,0l-0.1-0.1l0-0.1l-0.1-0.1l-0.1,0l0.1,0l0.1,0l0.1-0.1l-0.1-0.1
		v-0.1l0.3,0l0.1,0l0.1-0.1l0.2-0.3l0.1-0.1l0.2-0.1l0.2-0.2l0.2-0.1l0.1-0.1l0.1,0l0,0l0-0.1l-0.1-0.2l0.1,0l0,0l0,0l0,0l0,0
		l0.1-0.1l0-0.1l0-0.1h-0.2l0,0l0,0l0-0.1l0-0.1l0,0l0.1,0l0-0.1l0.1-0.1l0.3-0.1l0.1-0.1l0.1-0.1l0.1-0.1l0,0l0,0.1l0,0.1l0.1,0
		l0.1,0l0.3-0.1l0.1-0.1l0.1-0.1l0-0.2l-0.2-0.1l-1.1,0l-0.2,0.1h-0.1l0-0.1l0.1-0.1l0.1,0l0.2,0l0.1,0l0.1-0.1l0.3-0.4l0-0.1l0-0.1
		l-0.1-0.3l0-0.1l0.1,0.1l0.1,0.2l0.3,0.5l0.1,0l0.1,0l0-0.1l0-0.3l0-0.1l-0.1,0l-0.1,0l0,0l0,0.1l0,0l0,0l0,0L151,126l0,0l0-0.1
		l0,0l0,0l-0.1-0.1l-0.1-0.1l-0.2-0.1l-0.1-0.1l-0.1-0.4l-0.2-0.6l0-0.1l0-0.1l0-0.1l0,0l-0.1,0l-0.2,0.1l-0.1,0.2l0,0.2l0.1,0.2
		l0.1,0.2l0-0.1l-0.2-0.3l0-0.1l0-0.3l0-0.1l-0.1-0.1l-0.1,0l-0.1-0.1l-0.1,0l-0.1,0l-0.1,0.1l0,0.1l0,0.2l0,0.2l0,0.1h0l0-0.1
		l-0.1-0.3l0-0.1l0-0.3l0,0l0,0.1l0,0l-0.1,0h-0.1l-0.1,0l-0.1-0.1l-0.2-0.1l-0.1-0.1l0-0.2l0.1,0.1l0.1,0l0.1,0l-0.1-0.2l-0.2-0.2
		l-0.2-0.2l-0.1-0.3l0.2,0.4l0.1,0.2l0.7,0.3l0.2-0.1l-0.2-0.2l-0.6-0.2l0-0.1l0,0l0.1,0l0.1,0v-0.1l-0.1-0.1l0,0l0-0.1l0-0.1l0-0.1
		l0,0l-0.1-0.1l-0.3,0l-0.1-0.1l-0.1,0l-0.1,0l-0.1,0l-0.1,0.1l-0.1,0.1l0-0.1l0,0l-0.1-0.1v-0.1l0.1-0.1l0.1-0.1l0.1,0l-0.3-0.1
		l-0.1-0.1l-0.1-0.2l0,0l0-0.1l0,0l-0.1-0.1l-0.2-0.2l-0.1-0.1l-0.1,0v-0.1l0,0l0-0.1l0-0.1l0-0.1l-0.1-0.3l-0.1-0.1l-0.1,0
		l-0.4,0.1l-0.2,0.2l-0.1,0.2l0.1,0.2v0.1l-0.3,0l-0.1-0.1l-0.1-0.2l0-0.1l-0.1-0.2l0-0.1l0,0l0.1-0.1l0.1-0.1l-0.1-0.1l-0.2-0.1
		l-0.1-0.1l-0.1-0.1l-0.1,0l-0.6,0.1l-0.1,0l-0.1,0.1l-0.1,0l-0.1,0l-0.1,0v-0.1l0.2-0.1l-0.2-0.2l-0.1-0.1l-0.1-0.1l-0.1,0l0,0
		l-0.1,0l0,0l0,0l0,0l0,0l0.1,0l0.2-0.1l0.1-0.1l0.1-0.1l0.1-0.1l0.1-0.1l0,0l-0.1,0l-0.1,0l-0.1-0.1l0-0.1l0-0.1l0-0.1l0,0l0,0l0,0
		l0-0.1l0,0l0,0l0,0l0,0l-0.2-0.5l0,0l0,0l-0.1,0l0,0l0-0.1l0-0.1l0-0.1l0,0l-0.1,0l-0.1-0.1l0,0l0-0.1l0-0.2l0.1-0.1l0.3-0.1
		l-0.1-0.1l-0.1,0l-0.2,0l0,0l0.1-0.1l0,0l0,0l0,0l0-0.1l0-0.1l0-0.1l0,0l0,0l0,0l0-0.1l0-0.1l0,0l-0.1,0l0,0l0.1,0l0-0.1l0-0.1
		l-0.1-0.1l0.1-0.1l0-0.1l0-0.2l-0.1-0.1l0.1-0.1l0.1-0.1l0.1-0.1l-0.1-0.2l-0.1-0.1l-0.1-0.2l-0.1-0.1l-0.1-0.1v-0.1l0.1,0l0.1,0
		l0.2,0.2l0.1,0l0.2,0l-0.1-0.1l-0.1,0l-0.1-0.1l-0.1-0.2l0.3,0.1l0.1,0l0.1,0l-0.3-0.2l0-0.1l-0.1-0.1l-0.1-0.1l-0.1-0.2l0-0.1
		l0-0.1l0.1-0.1l0-0.2l0,0l0,0.1l0,0.1l0-0.1l0,0l0,0l0,0l0,0l0-0.1l0-0.1l0,0l0,0l0,0.1l0,0h-0.1l0,0l0-0.1l0-0.1l0-0.1l0-0.1l0,0
		l0-0.1l0-0.1l0,0l-0.2-0.1v-0.1h0.2V112l0,0l-0.1,0l-0.1-0.1l-0.1,0l0,0l0,0l0.4,0v-0.1l-0.4-0.1l-0.1-0.1l0.2,0l0.2-0.1l0-0.1
		l-0.1,0l-0.1,0v-0.1l0.3,0l0.1,0l0.2,0.1l0.1,0l0.1-0.1l-0.1-0.1L143,111l0.1-0.1l0.2,0.1l0.1-0.1l-0.1-0.1l0,0v-0.1l0.1,0l0.2,0
		l0.1-0.1l0-0.1l-0.3-0.2l-0.1,0l-0.1,0l-0.1-0.1l0.4,0l0.2,0l0.2,0.1l0,0.1l0.1,0.1l0.2,0l-0.1-0.2l0-0.1l0-0.1l0.1,0.1l0.1,0.1
		l0.2,0.4l0.1,0.1l0.1,0.1l0.1,0l0.1,0l0.1-0.1l0-0.1l0-0.2l0-0.1l0-0.1l0-0.1l0-0.1l-0.1-0.1l-0.1-0.1l-0.1,0l-0.1,0l-0.2,0.1l0,0
		l0-0.2l0-0.1l0-0.1l0-0.1l-0.1,0v-0.1l0,0l0,0l0-0.1l0-0.1l-0.2,0.1l-0.1,0l0,0l0,0l0,0l0,0l0-0.1l0,0l0,0l0,0l0,0V109l0-0.1l0,0
		l0,0l0.1,0l0-0.1l0-0.1l-0.1-0.2l0-0.1l0-0.1l0-0.1l0-0.1l0,0l0.1,0l0-0.1l0-0.1l0-0.1l0,0l0.2,0l0,0l0-0.1l-0.1-0.1l0,0l0.1-0.2
		l0-0.1l-0.1-0.1l0.1-0.1l0-0.1l0-0.1l0-0.2l0-0.1l0.1-0.2l0-0.1l0-0.1l0-0.1l0-0.1l0-0.1l0-0.1l0.1-0.1l0.1,0l0.1,0l-0.1,0.2l0,0
		l0.1,0l0.3-0.2l-0.1-0.1l-0.1-0.1l-0.1,0l-0.1,0l-0.4-0.2l0.1-0.1l0,0l0,0v-0.1l0-0.1l0-0.1l0-0.1l0-0.1l-0.1-0.1l-0.1,0l-0.1,0
		l-0.1,0l-0.1-0.1l0-0.1l0-0.1l0-0.1l0-0.1l0-0.1l0-0.1l0,0l0.1,0l0,0l0,0l0-0.1l0-0.1l0-0.1l0,0l-0.2-0.3l0-0.1l0-0.1l0.1-0.1
		l0.1,0l0.1-0.1l0-0.2l0.1-0.1l0,0l0.2,0.3l0.2,0.4l0,0l0.1,0.1l0.1,0l0.1,0l0.5,0l0-0.1l-0.1,0l-0.1-0.1l0-0.2l0.1-0.1l0.1-0.1
		l0.2-0.1h0.2l0,0l0.1,0.1l0,0l0.1,0l0.1-0.1l0.1-0.2l-0.1-0.1l0.1,0l0,0l0-0.1l0-0.1l0-0.1l0-0.3l0-0.1l0,0l0.1,0l0,0l0,0.1l0,0.3
		l0,0.1l0,0l0.3-0.3l0.1,0l0,0l0-0.1l0-0.1l0-0.1l-0.6-0.3l-0.1-0.1h0.3l0,0l0.1,0.1l0,0l0,0l0,0l0,0l0-0.1l0-0.1l0-0.2l0-0.1l0-0.2
		l-0.1-0.2l0-0.1l0-0.2l0,0l-0.1-0.1l0-0.1l-0.2-0.1v-0.1l0.1-0.2l-0.1-0.3l-0.1-0.3l-0.1-0.2l-0.1-0.2l-0.5-0.5l0.1,0l0.1,0.1
		l0.1,0.1l0.1,0l0.1,0l0.1-0.1l0.1,0l-0.1,0.1l0,0l0.1,0l0.1,0l0,0.1l0,0.1l0.1,0.3l0,0.1l0.1,0l0.1,0l0.1,0l0,0.1l0,0l0,0.1l0,0
		l0,0.1l0,0.1l0,0l0,0.3l0,0.1l0,0l0.1,0.1l0.1,0l0,0l0.1-0.1l0.1-0.1l0.1-0.1l0.1,0l0,0l0,0l0,0l0,0l0.1,0.1l0.1,0.1l0.2,0.1
		l-0.1,0.2l-0.4-0.1l-0.1,0.2l0.2,0l0.1,0l0.1,0.1l0,0l0,0.1l0.2,0l0.1,0l0.1-0.1l0-0.1l0-0.1l0-0.1l0.1,0l0,0l0,0.1l0,0.1l0,0.1
		l0,0.1l0,0l0-0.1l0,0l0.1,0l0.1-0.1l0.1-0.3l-0.1-0.1l-0.1,0.2l-0.1-0.1l0-0.1l0-0.1l0-0.1l0,0V100h0.2l0-0.1l0,0l0.1,0l0.1,0.1
		l0.1,0.2l0,0.1l0,0l0,0l0,0l0.1,0l0.1,0l0,0l0.1,0l0,0l0,0l0,0l0.1,0l0,0l0-0.1l0-0.1l0-0.1l-0.2-0.1l-0.1-0.1l0.3,0.1l0.2,0l0-0.2
		l0-0.1l-0.1,0l-0.2,0.1l-0.1,0l-0.2-0.2l0-0.2l0.1,0l0.2,0.1l0.1,0l0.1,0l0-0.2h0l0,0.1l0.1,0l0,0l0-0.1l-0.1-0.1l-0.1-0.1l-1.1,0
		l-0.1-0.1l0.2-0.1l0.1-0.1l0.1-0.1l0,0l0,0l0-0.1l0,0l0,0l0,0l0,0.1l0,0l0.3,0.1l-0.1-0.1l-0.1-0.1l-0.1-0.1l0.1-0.1l0.1,0l0.1,0
		l0.1,0.1l0.1,0.2l0,0l0,0l0-0.2l0-0.1l0.1,0l0.2-0.2H149L149,98l0-0.1l0-0.1l0-0.1l0.1-0.1l0.1,0l0.1,0.1l0.1,0l0.1,0l0-0.1l0-0.1
		l0-0.1l-0.1-0.1l-0.1-0.1l-0.1-0.1l-0.1,0v-0.1l0.2,0l0.6,0.2l0-0.1l-0.1-0.2l0-0.1l0-0.1l0-0.1l-0.1-0.1l0.1-0.1l0.4,0.1v0.1
		l-0.2,0l-0.1,0l0,0.1l0,0.1l0.1,0.1l0.1,0l0.1-0.1l0,0l0-0.1l0.3,0l0.1-0.1l0.1-0.1l-0.7-0.3l-0.1-0.1l0.1-0.1l0.1,0l0.2,0l0.2,0.1
		l0.1,0l0-0.1l0.1,0l0.1,0.1l0.1,0.1l0.1,0.1l0.1,0l0,0.1l0,0.1l0,0.1l0.1,0.1l0,0.1l0,0l0.1,0.2l0,0l0.1,0l0,0l0-0.1l0-0.1l0.1,0
		l0.1,0l0,0l0-0.1l-0.1,0l-0.1-0.1l-0.1-0.1l0.1-0.2l0.2,0.2l0.1,0l0.1-0.2h-0.1l0-0.1l0.1-0.2l0-0.1l-0.1-0.1l0,0l0.1-0.1l0.2-0.1
		l0.1-0.2l0,0.2l0.1,0l0.1-0.1l0-0.1v-0.3l0-0.1l0-0.2l0-0.1l0-0.3l0-0.2l0.1-0.1l0.1,0.1l0.1,0.1l0.1,0.1l0.1,0l-0.1-0.3l0-0.1
		l0.1,0.1l0.3,0.5l0.1,0.1l0.1,0l0,0l0-0.1l0-0.1l-0.2-0.3l0-0.1l0,0l0.1,0l0.1,0l0.1-0.1l-0.1-0.1l-0.1,0l-0.1-0.1l0.1-0.2l-0.1,0
		l0,0l0-0.1l0.1-0.1l0.1,0l0.1,0.1l0.1,0.1l0.1,0.1l0.2,0.1l0.1,0.2l0.1,0l0,0l0,0.1l0,0l0.1,0.1l0,0.1l0,0.1l0,0.1l0.2,0.1l0.1,0
		l0.1-0.1l0.1-0.1l0,0l0.1,0l0,0l0-0.2l-0.1-0.3l0-0.1l0.1-0.2l0.2-0.1l0.2-0.2l0.1-0.2l0,0l0.2-0.1l0.1-0.1l0.1,0l0.3,0.2l-0.1-0.2
		l0-0.1l0-0.1l0.1-0.1l0.1-0.1l0.1,0l0.1,0l0,0l0,0l0,0.1l0,0l0,0l0,0l0,0l0.3,0l0.1,0l0-0.2l0-0.2l0.1-0.2l0.1-0.1l0,0.1l0,0.1
		l0,0.1l0,0.1l0,0.1l0,0.1l0.1,0.1l0.1,0l0-0.2l0-0.6l0-0.1l0.1,0l0.1,0.1l0,0.1l0,0.1l0,0.1l0,0.1l0,0.1l0.1,0l0,0l0-0.1l0-0.1
		l0-0.1l0-0.1l0-0.2l0-0.1l0,0l0,0l0-0.1l0.1,0.1l0.1-0.1l0.2-0.5l0,0l0.1,0.1l0,0.1l0,0.1l0,0.1l0,0.1l0,0l0-0.1l0-0.1l0.2-0.2
		l0.1,0l0.1,0.1l0.1,0.2l0,0l0.1-0.1l0.1-0.2l-0.1,0l-0.1,0l0-0.1l0-0.1l0-0.1l0.2,0l0.2-0.2l0-0.1l0.1-0.3l0.1-0.3l0.1-0.1l0.1-0.1
		l0,0l0,0l0,0l0,0l0,0l0-0.1l0-0.2l0,0l0,0l0,0l0,0l0,0l0-0.1l0,0l0,0l0-0.1l0-0.1l0,0l0.2-0.4l0-0.2l-0.1-0.2l0.1-0.2l0.3-0.4
		l0.1-0.3l0,0l0,0l0.1,0.1l0,0l0.5-0.8l0,0l0,0l0.1,0l0.1,0l0.1-0.1l0.1,0l0,0l0,0l0,0l0,0l0-0.1l0-0.1l0-0.1l0-0.1l0.1,0.1l0.1,0.2
		l0.1,0.1l0.1-0.1l0.1-0.1l0.2-0.2l0.2-0.4l0-0.1l0.1-0.1l0-0.1l0.1-0.1h0.1l0,0l0-0.1l0-0.1l0-0.1l0,0h-0.1l0,0.1l-0.1,0l-0.1,0
		l0,0l0,0.1l0,0l-0.1,0l-0.1-0.1l0-0.1l0.1-0.1l0-0.1l0-0.2l0,0l-0.1,0l-0.2,0l0,0l-0.1,0.1l-0.1,0l-0.1-0.2l-0.1,0l0,0l0-0.1l0,0
		l0,0l0,0l0,0.1l0.1,0.1l0.1-0.1l0.2-0.2l0,0l0.1,0.2l0.1,0l0.1,0l0.1-0.1l0.1-0.1l-0.1,0l-0.1,0l-0.1-0.1l0-0.1v-0.2l0,0l0,0l0,0
		l0,0.2l-0.1-0.1l-0.1-0.2l-0.1-0.1l-0.1,0l0,0l0,0.1l0,0.1l0,0l0,0l0,0.1l0,0l0,0l-0.1-0.1l0,0l0,0l0-0.1l0,0l0,0l0,0l-0.1,0
		l-0.1-0.1l-0.1-0.1l0-0.1l0.1,0l-0.1-0.2l-0.1-0.1l-0.1,0l-0.1,0l-0.1-0.1l0-0.2l0-0.2l0-0.1l0.1,0l0.1,0.1l0.1,0.1l0.1,0.1
		l0.1,0.1l0.2,0.2l0.1,0.1v-0.1l-0.1-0.1l0-0.1l0-0.1l0.1,0v-0.1l-0.2-0.2l-0.1-0.1l-0.1-0.2l0.1,0l0.2,0l0.1,0l0-0.1l-0.1-0.1
		l-0.3-0.1l-0.3,0.1l-0.2,0l-0.1,0l-0.1-0.1l0,0l0-0.1l-0.1-0.1l-0.1-0.1l0-0.1l0-0.1l0-0.1l0.1,0l0.1,0l0,0.1l0,0.1l0,0.1l0.1,0
		l0.1,0l0.1-0.1l0.1-0.1l0-0.2l0.1-0.1l0.1-0.1l0-0.3l0.1,0l0.1-0.1l0-0.1l0-0.1l0-0.1l0-0.1l0-0.1l0-0.1l0.1,0l0.5,0L161,80
		l-0.1-0.1l0-0.1l0.1-0.1l0.1-0.1l0,0l0,0l0,0v0l0,0l0.1,0.1l0,0l0,0l0.1-0.1l0,0l-0.1-0.1l0-0.1l0.1-0.1l0.4,0l0.1-0.1l-0.1-0.1
		l-0.1,0l0-0.1l0.1-0.3l0-0.1l0-0.1l-0.1-0.1l0.2,0l0.1-0.1l0-0.2l-0.3-0.6l-0.2-0.3l-0.3-0.5l-0.1-0.1l-0.5-0.1l0.1-0.1l0.2,0
		l0.1-0.1l0,0l0,0l0,0l0.1,0l0.1,0.2l0.1,0.2l0.1,0.1l0.1,0l0.1,0.1l0.1,0.1l0.1,0.1l0.1,0.1l0.1,0.3l0,0.1l0.1,0.1l0.2,0l0.2-0.1
		l0.1-0.2l0-0.1l-0.1-0.1l-0.1-0.1l-0.1-0.2l-0.1-0.1l-0.1,0l0,0.2l-0.1,0.1l-0.1,0l-0.1-0.1l-0.1-0.1l-0.1-0.1l-0.1-0.1l-0.1,0
		l0.2-0.1l0,0l0,0l0,0l0.1-0.2l0.2,0l0.3,0v-0.1l-0.1,0l-0.2-0.1v-0.1l0.2-0.1l0.1,0l0.1,0.2l0.1,0l0.2,0l-0.1-0.1l0.1,0l0.4,0.1
		l0.1,0l0.1-0.1l0.1-0.1l0,0.1l0.1,0l0.1,0l0.1-0.1l0-0.1l0-0.1l0-0.1l0-0.1l0.1,0.2l0.1,0.1l0.1,0l0.1-0.1l0-0.1l0-0.1l0-0.1
		l-0.1-0.1l-0.2-0.3l-0.1,0l0,0l0.1,0.1l-0.1,0.1l-0.1-0.1l-0.2-0.3l0.1,0l0.6,0.2l0.1-0.1l0,0l0,0.1l0,0l0,0l0-0.1l0,0l0,0l0,0
		l0.1,0l0.2,0l0.1-0.1l-0.1,0l-0.1,0l-0.1-0.2l-0.1-0.1l-0.1-0.1l-0.3-0.1l-0.3-0.3l-0.5-0.3l-0.3-0.3l-0.1-0.4l0.1,0.1l0.1,0.1
		l0.1,0.1l0.1,0.2l0,0.1l0.1,0.1l0.3,0.1l0.1,0.2l0.2,0.1l0.1,0.1l0.1,0.2l0.3,0.1l0.4,0.3l0.1,0l0-0.1l0.1-0.1l0,0l0.1,0.1l0.1,0
		l0.1,0l0.1,0.1l0.1,0.1l0.1,0.1l0.1-0.1l0-0.2l0-0.1l0,0l-0.2-0.1l-0.1-0.1l0-0.1l0-0.1l0.2-0.2l0-0.1l-0.2-0.1l0-0.1l0-0.1
		l-0.1-0.1l-0.1,0l0,0.1l0,0.1l0.1,0.1l0,0.1l-0.1,0.2l-0.2,0l-0.3-0.1l0.3,0l0.1-0.1l-0.1-0.2l0-0.1l0-0.1l0-0.1l0-0.1l0-0.1l0-0.1
		l0.1-0.1l0.1,0l0.1,0.1l0,0.2l0-0.1l0.1,0l0.1,0l0.1,0l0-0.3l-0.1-0.2l-0.1-0.1l-0.3-0.1l-0.1-0.1l-0.1-0.1l-0.1-0.2l0.1,0l0.2,0.2
		l0.2,0.1L165,72l-0.1-0.1l-0.1-0.2l0-0.1l0.1,0.1l0.1,0l0-0.1l-0.2-0.3l0.2-0.1l0-0.2l0.1,0l0.3,0.1l0,0.1l0,0l0.1,0.1l0.1,0.1
		l0.1,0.1l0,0.1l0,0.1l0,0.1l0,0.1l0,0l0.1-0.2l0.1,0l0.2,0.1l0.1,0.1l0,0.2l0.1,0l0.1-0.1l0-0.1l0-0.1l0-0.2l0-0.1l0-0.1l0-0.1
		l0-0.3l0-0.1l0-0.1l-0.1-0.1l-0.1-0.1l0.1,0l0.1,0l0.5,0.4l0.1,0.2l0.1,0.4l0.1,0.1l0.1,0l0.1,0l0.1,0l0.1,0.2l0,0l0.2,0.1l0.2,0
		l0.1,0.1l0.1,0.3l0,0.2l0.1,0l0.1-0.1l0-0.2l0.1-0.1l0,0l0.3-0.1l0.1-0.1l-0.1-0.1l-0.1-0.1l0-0.1l0-0.2l0.1-0.1l0.1,0l0.1,0
		l0.2,0.2l0.1,0.1l0.1,0l0.1-0.1l0.1-0.1l0.1-0.1l0.1,0l0,0.1l0,0.2l0,0.2l0.1,0.1l0.1,0l0,0l0,0l0-0.1l0-0.1l0-0.1l0-0.1l0,0l0-0.1
		l0,0l0,0l0,0l0-0.1l0,0l0.1,0l0.1,0l0,0l0,0.1l0.2,0.1l0.3,0l0,0l0,0.1l0,0l0.1,0l0.1-0.1l0.1-0.2l0.1,0l0.2,0l0.1,0.1l0,0.2l0,0.1
		l0.1,0l0.2,0l0-0.1l0,0l0,0.1l0,0.1l0,0.1l0,0l0.1,0l0,0l0,0l0,0l0-0.1l0-0.2L171.8,71.7L171.8,71.7z"/>
	<g>
		<g>
			<path class="st1" d="M200.2,39c-13.4-0.4-24.5,1.5-38.7,14.7"/>
			<g>
				<path class="st2" d="M161.5,53.7c0.4,0,0.9,0.4,1.2,0.7c-0.7-0.1-1.4-0.1-2.1,0.1c0.3-0.6,0.3-1.4,0.3-2.1
					C161.2,52.7,161.5,53.2,161.5,53.7z"/>
			</g>
		</g>
	</g>
	<g>
		<path class="st3" d="M213.4,37.4h-0.9L212,36h-3l-0.5,1.3h-0.9l2.4-6h0.9L213.4,37.4z M211.8,35.4l-1.3-3.2l-1.3,3.2H211.8z"/>
		<path class="st3" d="M214.9,37.4h-0.7v-6h0.7V37.4z"/>
		<path class="st3" d="M216.9,37.4h-0.7v-6h0.7v2.3c0.4-0.5,0.9-0.8,1.5-0.8c0.6,0,1,0.2,1.4,0.6c0.4,0.4,0.5,1,0.5,1.7
			c0,0.7-0.2,1.2-0.5,1.7c-0.4,0.4-0.8,0.6-1.4,0.6c-0.6,0-1.1-0.3-1.5-0.8V37.4z M216.9,36.2c0.1,0.2,0.3,0.4,0.5,0.5
			c0.2,0.1,0.5,0.2,0.8,0.2c0.4,0,0.8-0.2,1-0.5s0.4-0.7,0.4-1.2s-0.1-0.9-0.4-1.2c-0.3-0.3-0.6-0.5-1-0.5c-0.3,0-0.5,0.1-0.8,0.2
			s-0.4,0.3-0.5,0.5V36.2z"/>
		<path class="st3" d="M224.8,37.4h-0.7v-0.5c-0.4,0.4-0.8,0.6-1.4,0.6c-0.4,0-0.8-0.1-1.1-0.4c-0.3-0.3-0.5-0.6-0.5-1.1
			c0-0.5,0.2-0.8,0.5-1.1c0.3-0.2,0.7-0.4,1.1-0.4c0.6,0,1.1,0.2,1.4,0.6v-0.8c0-0.3-0.1-0.5-0.3-0.7s-0.5-0.2-0.8-0.2
			c-0.5,0-1,0.2-1.3,0.6l-0.3-0.5c0.5-0.5,1-0.7,1.7-0.7c0.5,0,0.9,0.1,1.2,0.4c0.3,0.2,0.5,0.6,0.5,1.1V37.4z M222.9,37
			c0.5,0,0.9-0.2,1.2-0.5v-0.8c-0.3-0.4-0.7-0.5-1.2-0.5c-0.3,0-0.6,0.1-0.8,0.3s-0.3,0.4-0.3,0.7c0,0.3,0.1,0.5,0.3,0.7
			C222.3,36.9,222.6,37,222.9,37z"/>
		<path class="st3" d="M229.7,37.4h-0.7v-2.8c0-0.4-0.1-0.6-0.3-0.8c-0.2-0.2-0.4-0.2-0.7-0.2c-0.3,0-0.5,0.1-0.7,0.2
			c-0.2,0.1-0.4,0.3-0.6,0.5v3.2h-0.7V33h0.7v0.6c0.2-0.2,0.4-0.4,0.7-0.5c0.3-0.1,0.6-0.2,0.9-0.2c0.9,0,1.4,0.5,1.4,1.4V37.4z"/>
		<path class="st3" d="M231.4,32.4c-0.1,0-0.2,0-0.3-0.1c-0.1-0.1-0.1-0.2-0.1-0.3s0-0.2,0.1-0.3c0.1-0.1,0.2-0.1,0.3-0.1
			c0.1,0,0.2,0,0.3,0.1c0.1,0.1,0.1,0.2,0.1,0.3s0,0.2-0.1,0.3C231.7,32.4,231.5,32.4,231.4,32.4z M231.8,37.4h-0.7V33h0.7V37.4z"/>
		<path class="st3" d="M236.5,37.4h-0.7v-0.5c-0.4,0.4-0.8,0.6-1.4,0.6c-0.4,0-0.8-0.1-1.1-0.4c-0.3-0.3-0.5-0.6-0.5-1.1
			c0-0.5,0.2-0.8,0.5-1.1c0.3-0.2,0.7-0.4,1.1-0.4c0.6,0,1.1,0.2,1.4,0.6v-0.8c0-0.3-0.1-0.5-0.3-0.7c-0.2-0.2-0.5-0.2-0.8-0.2
			c-0.5,0-1,0.2-1.3,0.6l-0.3-0.5c0.5-0.5,1-0.7,1.7-0.7c0.5,0,0.9,0.1,1.2,0.4s0.5,0.6,0.5,1.1V37.4z M234.6,37
			c0.5,0,0.9-0.2,1.2-0.5v-0.8c-0.3-0.4-0.7-0.5-1.2-0.5c-0.3,0-0.6,0.1-0.8,0.3s-0.3,0.4-0.3,0.7c0,0.3,0.1,0.5,0.3,0.7
			C234.1,36.9,234.3,37,234.6,37z"/>
	</g>
	<g>
		<path class="st3" d="M212.2,64.8h-3.9v-6h3.9v0.7H209v1.9h3.1v0.7H209v2.1h3.2V64.8z"/>
		<path class="st3" d="M214.1,64.8h-0.7v-4.3h0.7v0.7c0.4-0.5,0.9-0.8,1.4-0.8V61c-0.1,0-0.2,0-0.3,0c-0.2,0-0.4,0.1-0.7,0.2
			s-0.4,0.3-0.5,0.5V64.8z"/>
		<path class="st3" d="M216.7,59.8c-0.1,0-0.2,0-0.3-0.1c-0.1-0.1-0.1-0.2-0.1-0.3c0-0.1,0-0.2,0.1-0.3c0.1-0.1,0.2-0.1,0.3-0.1
			c0.1,0,0.2,0,0.3,0.1c0.1,0.1,0.1,0.2,0.1,0.3c0,0.1,0,0.2-0.1,0.3C216.9,59.8,216.8,59.8,216.7,59.8z M217,64.8h-0.7v-4.3h0.7
			V64.8z"/>
		<path class="st3" d="M219.5,64.9c-0.3,0-0.6-0.1-0.7-0.3c-0.2-0.2-0.2-0.4-0.2-0.8V61h-0.7v-0.6h0.7v-1.2h0.7v1.2h0.9V61h-0.9v2.7
			c0,0.2,0,0.3,0.1,0.4s0.2,0.2,0.3,0.2c0.2,0,0.4-0.1,0.5-0.2l0.2,0.5C220.1,64.8,219.8,64.9,219.5,64.9z"/>
		<path class="st3" d="M221.7,64.8H221v-4.3h0.7v0.7c0.4-0.5,0.9-0.8,1.4-0.8V61c-0.1,0-0.2,0-0.3,0c-0.2,0-0.4,0.1-0.7,0.2
			s-0.4,0.3-0.5,0.5V64.8z"/>
		<path class="st3" d="M226,64.9c-0.6,0-1.2-0.2-1.6-0.6c-0.4-0.4-0.6-1-0.6-1.7c0-0.6,0.2-1.2,0.6-1.6c0.4-0.4,0.9-0.7,1.5-0.7
			c0.6,0,1.2,0.2,1.5,0.7s0.6,1,0.6,1.7v0.2h-3.5c0,0.4,0.2,0.8,0.5,1.1c0.3,0.3,0.6,0.4,1.1,0.4c0.5,0,1-0.2,1.3-0.5l0.3,0.4
			C227.2,64.7,226.7,64.9,226,64.9z M227.3,62.3c0-0.4-0.1-0.7-0.4-1s-0.6-0.4-1.1-0.4c-0.4,0-0.8,0.1-1,0.4c-0.2,0.3-0.4,0.6-0.4,1
			H227.3z"/>
		<path class="st3" d="M232.5,64.8h-0.7v-0.5c-0.4,0.4-0.8,0.6-1.4,0.6c-0.4,0-0.8-0.1-1.1-0.4c-0.3-0.3-0.5-0.6-0.5-1.1
			c0-0.5,0.2-0.8,0.5-1.1c0.3-0.2,0.7-0.4,1.1-0.4c0.6,0,1.1,0.2,1.4,0.6v-0.8c0-0.3-0.1-0.5-0.3-0.7s-0.5-0.2-0.8-0.2
			c-0.5,0-1,0.2-1.3,0.6l-0.3-0.5c0.5-0.5,1-0.7,1.7-0.7c0.5,0,0.9,0.1,1.2,0.4c0.3,0.2,0.5,0.6,0.5,1.1V64.8z M230.6,64.4
			c0.5,0,0.9-0.2,1.2-0.5v-0.8c-0.3-0.4-0.7-0.5-1.2-0.5c-0.3,0-0.6,0.1-0.8,0.3c-0.2,0.2-0.3,0.4-0.3,0.7c0,0.3,0.1,0.5,0.3,0.7
			C230,64.3,230.3,64.4,230.6,64.4z"/>
	</g>
	<g>
		<path class="st3" d="M210.2,94.6c-1,0-1.7-0.3-2.3-1l0.4-0.6c0.5,0.6,1.1,0.9,1.9,0.9c0.5,0,0.8-0.1,1.1-0.3
			c0.2-0.2,0.3-0.4,0.3-0.7c0-0.2-0.1-0.4-0.2-0.5c-0.1-0.1-0.3-0.3-0.5-0.3s-0.4-0.2-0.7-0.2c-0.3-0.1-0.5-0.1-0.8-0.2
			c-0.3-0.1-0.5-0.2-0.7-0.3s-0.4-0.3-0.5-0.5s-0.2-0.5-0.2-0.7c0-0.5,0.2-0.9,0.6-1.2c0.4-0.3,0.9-0.5,1.5-0.5
			c0.9,0,1.6,0.3,2.1,0.8l-0.5,0.5c-0.4-0.5-1-0.7-1.7-0.7c-0.4,0-0.7,0.1-0.9,0.3c-0.2,0.2-0.3,0.4-0.3,0.7c0,0.2,0.1,0.4,0.3,0.5
			c0.2,0.1,0.4,0.2,0.7,0.3c0.3,0.1,0.5,0.1,0.9,0.2c0.3,0.1,0.6,0.2,0.9,0.3c0.3,0.1,0.5,0.3,0.7,0.5c0.2,0.2,0.3,0.5,0.3,0.9
			c0,0.5-0.2,0.9-0.5,1.3C211.5,94.4,211,94.6,210.2,94.6z"/>
		<path class="st3" d="M215.5,94.6c-0.6,0-1.2-0.2-1.6-0.6c-0.4-0.4-0.6-1-0.6-1.7c0-0.6,0.2-1.2,0.6-1.6c0.4-0.4,0.9-0.7,1.5-0.7
			c0.6,0,1.2,0.2,1.5,0.7s0.6,1,0.6,1.7v0.2H214c0,0.4,0.2,0.8,0.5,1.1c0.3,0.3,0.6,0.4,1.1,0.4c0.5,0,1-0.2,1.3-0.5l0.3,0.4
			C216.8,94.4,216.2,94.6,215.5,94.6z M216.9,92.1c0-0.4-0.1-0.7-0.4-1s-0.6-0.4-1.1-0.4c-0.4,0-0.8,0.1-1,0.4
			c-0.2,0.3-0.4,0.6-0.4,1H216.9z"/>
		<path class="st3" d="M219.3,94.5h-0.7v-4.3h0.7v0.7c0.4-0.5,0.9-0.8,1.4-0.8v0.7c-0.1,0-0.2,0-0.3,0c-0.2,0-0.4,0.1-0.7,0.2
			c-0.2,0.1-0.4,0.3-0.5,0.5V94.5z"/>
		<path class="st3" d="M222.3,94.5h-0.7v-6h0.7v2.3c0.4-0.5,0.9-0.8,1.5-0.8c0.6,0,1,0.2,1.4,0.6c0.4,0.4,0.5,1,0.5,1.7
			c0,0.7-0.2,1.2-0.5,1.7c-0.4,0.4-0.8,0.6-1.4,0.6c-0.6,0-1.1-0.3-1.5-0.8V94.5z M222.3,93.3c0.1,0.2,0.3,0.4,0.5,0.5
			c0.2,0.1,0.5,0.2,0.8,0.2c0.4,0,0.8-0.2,1-0.5c0.3-0.3,0.4-0.7,0.4-1.2s-0.1-0.9-0.4-1.2s-0.6-0.5-1-0.5c-0.3,0-0.5,0.1-0.8,0.2
			c-0.2,0.1-0.4,0.3-0.5,0.5V93.3z"/>
		<path class="st3" d="M227.1,89.5c-0.1,0-0.2,0-0.3-0.1c-0.1-0.1-0.1-0.2-0.1-0.3c0-0.1,0-0.2,0.1-0.3c0.1-0.1,0.2-0.1,0.3-0.1
			c0.1,0,0.2,0,0.3,0.1c0.1,0.1,0.1,0.2,0.1,0.3c0,0.1,0,0.2-0.1,0.3C227.3,89.5,227.2,89.5,227.1,89.5z M227.4,94.5h-0.7v-4.3h0.7
			V94.5z"/>
		<path class="st3" d="M232.2,94.5h-0.7V94c-0.4,0.4-0.8,0.6-1.4,0.6c-0.4,0-0.8-0.1-1.1-0.4c-0.3-0.3-0.5-0.6-0.5-1.1
			c0-0.5,0.2-0.8,0.5-1.1c0.3-0.2,0.7-0.4,1.1-0.4c0.6,0,1.1,0.2,1.4,0.6v-0.8c0-0.3-0.1-0.5-0.3-0.7s-0.5-0.2-0.8-0.2
			c-0.5,0-1,0.2-1.3,0.6l-0.3-0.5c0.5-0.5,1-0.7,1.7-0.7c0.5,0,0.9,0.1,1.2,0.4c0.3,0.2,0.5,0.6,0.5,1.1V94.5z M230.3,94.1
			c0.5,0,0.9-0.2,1.2-0.5v-0.8c-0.3-0.4-0.7-0.5-1.2-0.5c-0.3,0-0.6,0.1-0.8,0.3c-0.2,0.2-0.3,0.4-0.3,0.7c0,0.3,0.1,0.5,0.3,0.7
			C229.7,94,230,94.1,230.3,94.1z"/>
	</g>
	<g>
		<path class="st3" d="M212.8,125.4h-0.9l-2.3-2.7l-0.6,0.7v2h-0.7v-6h0.7v3.1l2.7-3.1h0.9l-2.5,2.9L212.8,125.4z"/>
		<path class="st3" d="M216.8,124.9c-0.4,0.4-0.9,0.7-1.6,0.7s-1.2-0.2-1.6-0.7c-0.4-0.4-0.6-1-0.6-1.6c0-0.6,0.2-1.2,0.6-1.6
			c0.4-0.4,0.9-0.7,1.6-0.7s1.2,0.2,1.6,0.7c0.4,0.4,0.6,1,0.6,1.6C217.4,123.9,217.2,124.4,216.8,124.9z M214.2,124.4
			c0.3,0.3,0.6,0.5,1.1,0.5c0.4,0,0.8-0.2,1.1-0.5c0.3-0.3,0.4-0.7,0.4-1.2s-0.1-0.9-0.4-1.2c-0.3-0.3-0.6-0.5-1.1-0.5
			c-0.4,0-0.8,0.2-1.1,0.5c-0.3,0.3-0.4,0.7-0.4,1.2C213.8,123.7,213.9,124.1,214.2,124.4z"/>
		<path class="st3" d="M219.9,125.5c-0.7,0-1.3-0.2-1.8-0.7l0.4-0.5c0.1,0.2,0.4,0.3,0.6,0.4c0.3,0.1,0.5,0.2,0.8,0.2
			c0.3,0,0.6-0.1,0.8-0.2c0.2-0.1,0.3-0.3,0.3-0.5c0-0.2-0.1-0.3-0.3-0.5c-0.2-0.1-0.4-0.2-0.7-0.3c-0.3-0.1-0.5-0.1-0.8-0.2
			s-0.5-0.2-0.7-0.4c-0.2-0.2-0.3-0.4-0.3-0.7c0-0.4,0.1-0.7,0.4-0.9s0.7-0.4,1.2-0.4c0.7,0,1.2,0.2,1.6,0.6l-0.3,0.5
			c-0.3-0.4-0.7-0.5-1.3-0.5c-0.3,0-0.5,0.1-0.7,0.2c-0.2,0.1-0.3,0.3-0.3,0.5c0,0.2,0.1,0.3,0.3,0.4c0.2,0.1,0.4,0.2,0.7,0.2
			c0.3,0.1,0.5,0.1,0.8,0.2c0.3,0.1,0.5,0.2,0.7,0.4s0.3,0.4,0.3,0.8c0,0.4-0.2,0.7-0.5,0.9S220.4,125.5,219.9,125.5z"/>
		<path class="st3" d="M226.2,124.9c-0.4,0.4-0.9,0.7-1.6,0.7c-0.6,0-1.2-0.2-1.6-0.7c-0.4-0.4-0.6-1-0.6-1.6c0-0.6,0.2-1.2,0.6-1.6
			s0.9-0.7,1.6-0.7c0.6,0,1.2,0.2,1.6,0.7s0.6,1,0.6,1.6C226.8,123.9,226.6,124.4,226.2,124.9z M223.5,124.4
			c0.3,0.3,0.6,0.5,1.1,0.5s0.8-0.2,1.1-0.5c0.3-0.3,0.4-0.7,0.4-1.2s-0.1-0.9-0.4-1.2c-0.3-0.3-0.6-0.5-1.1-0.5s-0.8,0.2-1.1,0.5
			c-0.3,0.3-0.4,0.7-0.4,1.2C223.2,123.7,223.3,124.1,223.5,124.4z"/>
		<path class="st3" d="M229.7,125.4H229l-1.8-4.3h0.7l1.4,3.6l1.4-3.6h0.7L229.7,125.4z"/>
		<path class="st3" d="M235.7,124.9c-0.4,0.4-0.9,0.7-1.6,0.7s-1.2-0.2-1.6-0.7c-0.4-0.4-0.6-1-0.6-1.6c0-0.6,0.2-1.2,0.6-1.6
			c0.4-0.4,0.9-0.7,1.6-0.7s1.2,0.2,1.6,0.7c0.4,0.4,0.6,1,0.6,1.6C236.3,123.9,236.1,124.4,235.7,124.9z M233.1,124.4
			c0.3,0.3,0.6,0.5,1.1,0.5c0.4,0,0.8-0.2,1.1-0.5c0.3-0.3,0.4-0.7,0.4-1.2s-0.1-0.9-0.4-1.2c-0.3-0.3-0.6-0.5-1.1-0.5
			c-0.4,0-0.8,0.2-1.1,0.5c-0.3,0.3-0.4,0.7-0.4,1.2C232.7,123.7,232.8,124.1,233.1,124.4z"/>
	</g>
	<g>
		<path class="st3" d="M42.3,35.6c-1,0-1.7-0.3-2.3-1l0.4-0.6c0.5,0.6,1.1,0.9,1.9,0.9c0.5,0,0.8-0.1,1.1-0.3s0.3-0.4,0.3-0.7
			c0-0.2-0.1-0.4-0.2-0.5c-0.1-0.1-0.3-0.3-0.5-0.3c-0.2-0.1-0.4-0.2-0.7-0.2s-0.5-0.1-0.8-0.2s-0.5-0.2-0.7-0.3
			c-0.2-0.1-0.4-0.3-0.5-0.5c-0.1-0.2-0.2-0.5-0.2-0.7c0-0.5,0.2-0.9,0.6-1.2c0.4-0.3,0.9-0.5,1.5-0.5c0.9,0,1.6,0.3,2.1,0.8
			l-0.4,0.5c-0.4-0.5-1-0.7-1.7-0.7c-0.4,0-0.7,0.1-0.9,0.3c-0.2,0.2-0.3,0.4-0.3,0.7c0,0.2,0.1,0.4,0.3,0.5
			c0.2,0.1,0.4,0.2,0.7,0.3c0.3,0.1,0.5,0.1,0.9,0.2c0.3,0.1,0.6,0.2,0.9,0.3s0.5,0.3,0.7,0.5s0.3,0.5,0.3,0.9
			c0,0.5-0.2,0.9-0.5,1.3C43.6,35.4,43,35.6,42.3,35.6z"/>
		<path class="st3" d="M49,34.9c-0.4,0.4-0.9,0.7-1.6,0.7s-1.2-0.2-1.6-0.7c-0.4-0.4-0.6-1-0.6-1.6s0.2-1.2,0.6-1.6
			c0.4-0.4,0.9-0.7,1.6-0.7s1.2,0.2,1.6,0.7c0.4,0.4,0.6,1,0.6,1.6S49.4,34.5,49,34.9z M46.4,34.5c0.3,0.3,0.6,0.5,1.1,0.5
			c0.4,0,0.8-0.2,1.1-0.5s0.4-0.7,0.4-1.2c0-0.5-0.1-0.9-0.4-1.2c-0.3-0.3-0.6-0.5-1.1-0.5c-0.4,0-0.8,0.2-1.1,0.5
			c-0.3,0.3-0.4,0.7-0.4,1.2C46,33.8,46.1,34.1,46.4,34.5z"/>
		<path class="st3" d="M56.6,35.5H56v-3c0-0.6-0.3-0.9-0.8-0.9c-0.2,0-0.4,0.1-0.6,0.2c-0.2,0.1-0.4,0.3-0.5,0.5v3.2h-0.7v-3
			c0-0.6-0.3-0.9-0.8-0.9c-0.2,0-0.4,0.1-0.6,0.2c-0.2,0.1-0.4,0.3-0.5,0.5v3.2h-0.7v-4.3h0.7v0.6c0.1-0.2,0.3-0.3,0.6-0.5
			s0.5-0.2,0.8-0.2c0.3,0,0.6,0.1,0.8,0.2c0.2,0.2,0.3,0.3,0.4,0.6c0.1-0.2,0.3-0.4,0.6-0.6c0.3-0.2,0.6-0.2,0.9-0.2
			c0.8,0,1.2,0.4,1.2,1.3V35.5z"/>
		<path class="st3" d="M61.4,35.5h-0.7V35c-0.4,0.4-0.8,0.6-1.4,0.6c-0.4,0-0.8-0.1-1.1-0.4s-0.5-0.6-0.5-1.1c0-0.5,0.2-0.8,0.5-1.1
			s0.7-0.4,1.1-0.4c0.6,0,1.1,0.2,1.4,0.6v-0.8c0-0.3-0.1-0.5-0.3-0.7c-0.2-0.2-0.5-0.2-0.8-0.2c-0.5,0-1,0.2-1.3,0.6L58,31.7
			c0.5-0.5,1-0.7,1.7-0.7c0.5,0,0.9,0.1,1.2,0.4c0.3,0.2,0.5,0.6,0.5,1.1V35.5z M59.5,35.1c0.5,0,0.9-0.2,1.2-0.5v-0.8
			c-0.3-0.4-0.7-0.5-1.2-0.5c-0.3,0-0.6,0.1-0.8,0.3c-0.2,0.2-0.3,0.4-0.3,0.7c0,0.3,0.1,0.5,0.3,0.7C58.9,35,59.2,35.1,59.5,35.1z"
			/>
		<path class="st3" d="M63.4,35.5h-0.7v-6h0.7V35.5z"/>
		<path class="st3" d="M65.1,30.5c-0.1,0-0.2,0-0.3-0.1c-0.1-0.1-0.1-0.2-0.1-0.3s0-0.2,0.1-0.3c0.1-0.1,0.2-0.1,0.3-0.1
			c0.1,0,0.2,0,0.3,0.1s0.1,0.2,0.1,0.3s0,0.2-0.1,0.3S65.2,30.5,65.1,30.5z M65.4,35.5h-0.7v-4.3h0.7V35.5z"/>
		<path class="st3" d="M70.2,35.5h-0.7V35c-0.4,0.4-0.8,0.6-1.4,0.6c-0.4,0-0.8-0.1-1.1-0.4s-0.5-0.6-0.5-1.1c0-0.5,0.2-0.8,0.5-1.1
			s0.7-0.4,1.1-0.4c0.6,0,1.1,0.2,1.4,0.6v-0.8c0-0.3-0.1-0.5-0.3-0.7c-0.2-0.2-0.5-0.2-0.8-0.2c-0.5,0-1,0.2-1.3,0.6l-0.3-0.5
			c0.5-0.5,1-0.7,1.7-0.7c0.5,0,0.9,0.1,1.2,0.4c0.3,0.2,0.5,0.6,0.5,1.1V35.5z M68.3,35.1c0.5,0,0.9-0.2,1.2-0.5v-0.8
			c-0.3-0.4-0.7-0.5-1.2-0.5c-0.3,0-0.6,0.1-0.8,0.3c-0.2,0.2-0.3,0.4-0.3,0.7c0,0.3,0.1,0.5,0.3,0.7C67.7,35,68,35.1,68.3,35.1z"/>
	</g>
	<g>
		<path class="st3" d="M143.6,17.3h-0.7v-6h0.7V17.3z"/>
		<path class="st3" d="M145.6,17.3H145V13h0.7v0.7c0.4-0.5,0.9-0.8,1.4-0.8v0.7c-0.1,0-0.2,0-0.3,0c-0.2,0-0.4,0.1-0.7,0.2
			c-0.2,0.1-0.4,0.3-0.5,0.5V17.3z"/>
		<path class="st3" d="M151.3,17.3h-0.7v-0.5c-0.4,0.4-0.8,0.6-1.4,0.6c-0.4,0-0.8-0.1-1.1-0.4c-0.3-0.3-0.5-0.6-0.5-1.1
			c0-0.5,0.2-0.8,0.5-1.1s0.7-0.4,1.1-0.4c0.6,0,1.1,0.2,1.4,0.6v-0.8c0-0.3-0.1-0.5-0.3-0.7s-0.5-0.2-0.8-0.2c-0.5,0-1,0.2-1.3,0.6
			l-0.3-0.5c0.5-0.5,1-0.7,1.7-0.7c0.5,0,0.9,0.1,1.2,0.4c0.3,0.2,0.5,0.6,0.5,1.1V17.3z M149.5,16.9c0.5,0,0.9-0.2,1.2-0.5v-0.8
			c-0.3-0.4-0.7-0.5-1.2-0.5c-0.3,0-0.6,0.1-0.8,0.3c-0.2,0.2-0.3,0.4-0.3,0.7c0,0.3,0.1,0.5,0.3,0.7
			C148.9,16.9,149.1,16.9,149.5,16.9z"/>
		<path class="st3" d="M154.3,17.4c-0.6,0-1-0.2-1.4-0.6c-0.4-0.4-0.5-1-0.5-1.7c0-0.7,0.2-1.2,0.5-1.7c0.4-0.4,0.8-0.6,1.4-0.6
			c0.3,0,0.6,0.1,0.8,0.2c0.3,0.1,0.5,0.3,0.6,0.5V13h0.7v6h-0.7v-2.3C155.4,17.2,154.9,17.4,154.3,17.4z M154.5,16.8
			c0.3,0,0.5-0.1,0.8-0.2c0.2-0.1,0.4-0.3,0.5-0.5v-2c-0.1-0.2-0.3-0.4-0.5-0.5c-0.2-0.1-0.5-0.2-0.8-0.2c-0.4,0-0.8,0.2-1,0.5
			s-0.4,0.7-0.4,1.2s0.1,0.9,0.4,1.2C153.7,16.7,154.1,16.8,154.5,16.8z"/>
	</g>
	<g>
		<path class="st3" d="M54.1,150.5c-1,0-1.7-0.3-2.3-1l0.4-0.6c0.5,0.6,1.1,0.9,1.9,0.9c0.5,0,0.8-0.1,1.1-0.3
			c0.2-0.2,0.3-0.4,0.3-0.7c0-0.2-0.1-0.4-0.2-0.5c-0.1-0.1-0.3-0.3-0.5-0.3s-0.4-0.2-0.7-0.2c-0.3-0.1-0.5-0.1-0.8-0.2
			c-0.3-0.1-0.5-0.2-0.7-0.3c-0.2-0.1-0.4-0.3-0.5-0.5S52,146.3,52,146c0-0.5,0.2-0.9,0.6-1.2c0.4-0.3,0.9-0.5,1.5-0.5
			c0.9,0,1.6,0.3,2.1,0.8l-0.5,0.5c-0.4-0.5-1-0.7-1.7-0.7c-0.4,0-0.7,0.1-0.9,0.3c-0.2,0.2-0.3,0.4-0.3,0.7c0,0.2,0.1,0.4,0.3,0.5
			c0.2,0.1,0.4,0.2,0.7,0.3c0.3,0.1,0.5,0.1,0.9,0.2c0.3,0.1,0.6,0.2,0.9,0.3c0.3,0.1,0.5,0.3,0.7,0.5c0.2,0.2,0.3,0.5,0.3,0.9
			c0,0.5-0.2,0.9-0.5,1.3C55.4,150.4,54.9,150.5,54.1,150.5z"/>
		<path class="st3" d="M57.1,152.1l0.1-0.6c0.1,0,0.2,0.1,0.4,0.1c0.2,0,0.3,0,0.4-0.1c0.1-0.1,0.2-0.2,0.3-0.4l0.3-0.7l-1.8-4.4
			h0.7l1.4,3.6l1.4-3.6h0.7l-2.2,5.2c-0.2,0.6-0.7,0.9-1.3,0.9C57.4,152.2,57.3,152.2,57.1,152.1z"/>
		<path class="st3" d="M62.5,150.4h-0.7v-4.3h0.7v0.7c0.4-0.5,0.9-0.8,1.4-0.8v0.7c-0.1,0-0.2,0-0.3,0c-0.2,0-0.4,0.1-0.7,0.2
			c-0.2,0.1-0.4,0.3-0.5,0.5V150.4z"/>
		<path class="st3" d="M65.1,145.5c-0.1,0-0.2,0-0.3-0.1c-0.1-0.1-0.1-0.2-0.1-0.3s0-0.2,0.1-0.3c0.1-0.1,0.2-0.1,0.3-0.1
			c0.1,0,0.2,0,0.3,0.1c0.1,0.1,0.1,0.2,0.1,0.3s0,0.2-0.1,0.3C65.3,145.4,65.2,145.5,65.1,145.5z M65.4,150.4h-0.7v-4.3h0.7V150.4z
			"/>
		<path class="st3" d="M70.2,150.4h-0.7v-0.5c-0.4,0.4-0.8,0.6-1.4,0.6c-0.4,0-0.8-0.1-1.1-0.4c-0.3-0.3-0.5-0.6-0.5-1.1
			c0-0.5,0.2-0.8,0.5-1.1c0.3-0.2,0.7-0.4,1.1-0.4c0.6,0,1.1,0.2,1.4,0.6v-0.8c0-0.3-0.1-0.5-0.3-0.7s-0.5-0.2-0.8-0.2
			c-0.5,0-1,0.2-1.3,0.6l-0.3-0.5c0.5-0.5,1-0.7,1.7-0.7c0.5,0,0.9,0.1,1.2,0.4c0.3,0.2,0.5,0.6,0.5,1.1V150.4z M68.3,150.1
			c0.5,0,0.9-0.2,1.2-0.5v-0.8c-0.3-0.4-0.7-0.5-1.2-0.5c-0.3,0-0.6,0.1-0.8,0.3c-0.2,0.2-0.3,0.4-0.3,0.7c0,0.3,0.1,0.5,0.3,0.7
			C67.7,150,68,150.1,68.3,150.1z"/>
	</g>
	<g>
		<path class="st3" d="M29.9,64.3H29L28.5,63h-3L25,64.3h-0.9l2.4-6h0.9L29.9,64.3z M28.3,62.3L27,59.1l-1.3,3.2H28.3z"/>
		<path class="st3" d="M31.4,64.3h-0.7v-3.8H30V60h0.7v-0.3c0-0.4,0.1-0.8,0.3-1s0.5-0.4,0.9-0.4c0.4,0,0.7,0.1,0.9,0.3L32.7,59
			c-0.2-0.1-0.3-0.2-0.5-0.2c-0.2,0-0.4,0.1-0.5,0.2s-0.2,0.4-0.2,0.6V60h0.9v0.6h-0.9V64.3z"/>
		<path class="st3" d="M34.9,66.1c-0.4,0-0.7,0-1-0.1c-0.3-0.1-0.5-0.3-0.8-0.5l0.3-0.5c0.3,0.4,0.8,0.6,1.4,0.6
			c0.4,0,0.7-0.1,1-0.3s0.4-0.5,0.4-1v-0.6c-0.2,0.2-0.4,0.4-0.6,0.6s-0.5,0.2-0.8,0.2c-0.6,0-1-0.2-1.4-0.6c-0.4-0.4-0.5-1-0.5-1.6
			c0-0.7,0.2-1.2,0.5-1.6c0.4-0.4,0.8-0.6,1.4-0.6c0.6,0,1.1,0.3,1.5,0.8V60h0.7v4.2c0,0.7-0.2,1.1-0.6,1.4
			C36,65.9,35.5,66.1,34.9,66.1z M35,63.8c0.3,0,0.5-0.1,0.8-0.2s0.4-0.3,0.5-0.5v-1.9c-0.1-0.2-0.3-0.4-0.5-0.5
			c-0.2-0.1-0.5-0.2-0.8-0.2c-0.4,0-0.8,0.2-1,0.5c-0.2,0.3-0.4,0.7-0.4,1.2c0,0.5,0.1,0.9,0.4,1.2C34.2,63.6,34.5,63.8,35,63.8z"/>
		<path class="st3" d="M41.9,64.3h-0.7v-2.9c0-0.4-0.1-0.6-0.3-0.8c-0.2-0.2-0.4-0.2-0.7-0.2c-0.2,0-0.5,0.1-0.7,0.2
			c-0.2,0.1-0.4,0.3-0.6,0.5v3.2h-0.7v-6H39v2.3c0.2-0.2,0.4-0.4,0.7-0.5c0.3-0.1,0.6-0.2,0.9-0.2c0.9,0,1.4,0.5,1.4,1.4V64.3z"/>
		<path class="st3" d="M46.6,64.3H46v-0.5c-0.4,0.4-0.8,0.6-1.4,0.6c-0.4,0-0.8-0.1-1.1-0.4C43.2,63.8,43,63.4,43,63
			c0-0.5,0.2-0.8,0.5-1.1c0.3-0.2,0.7-0.4,1.1-0.4c0.6,0,1.1,0.2,1.4,0.6v-0.8c0-0.3-0.1-0.5-0.3-0.7s-0.5-0.2-0.8-0.2
			c-0.5,0-1,0.2-1.3,0.6l-0.3-0.5c0.5-0.5,1-0.7,1.7-0.7c0.5,0,0.9,0.1,1.2,0.4c0.3,0.2,0.5,0.6,0.5,1.1V64.3z M44.8,64
			c0.5,0,0.9-0.2,1.2-0.5v-0.8c-0.3-0.4-0.7-0.5-1.2-0.5c-0.3,0-0.6,0.1-0.8,0.3c-0.2,0.2-0.3,0.4-0.3,0.7c0,0.3,0.1,0.5,0.3,0.7
			S44.5,64,44.8,64z"/>
		<path class="st3" d="M51.6,64.3h-0.7v-2.8c0-0.4-0.1-0.6-0.3-0.8c-0.2-0.2-0.4-0.2-0.7-0.2c-0.3,0-0.5,0.1-0.7,0.2
			c-0.2,0.1-0.4,0.3-0.6,0.5v3.2H48V60h0.7v0.6c0.2-0.2,0.4-0.4,0.7-0.5c0.3-0.1,0.6-0.2,0.9-0.2c0.9,0,1.4,0.5,1.4,1.4V64.3z"/>
		<path class="st3" d="M53.3,59.4c-0.1,0-0.2,0-0.3-0.1s-0.1-0.2-0.1-0.3s0-0.2,0.1-0.3s0.2-0.1,0.3-0.1c0.1,0,0.2,0,0.3,0.1
			s0.1,0.2,0.1,0.3s0,0.2-0.1,0.3S53.4,59.4,53.3,59.4z M53.6,64.3H53V60h0.7V64.3z"/>
		<path class="st3" d="M56.4,64.4c-0.7,0-1.3-0.2-1.8-0.7l0.4-0.5c0.1,0.2,0.4,0.3,0.6,0.4c0.3,0.1,0.5,0.2,0.8,0.2
			c0.3,0,0.6-0.1,0.8-0.2c0.2-0.1,0.3-0.3,0.3-0.5c0-0.2-0.1-0.3-0.3-0.5c-0.2-0.1-0.4-0.2-0.7-0.3c-0.3-0.1-0.5-0.1-0.8-0.2
			c-0.3-0.1-0.5-0.2-0.7-0.4s-0.3-0.4-0.3-0.7c0-0.4,0.1-0.7,0.4-0.9c0.3-0.2,0.7-0.4,1.2-0.4c0.7,0,1.2,0.2,1.6,0.6L57.6,61
			c-0.3-0.4-0.7-0.5-1.3-0.5c-0.3,0-0.5,0.1-0.7,0.2c-0.2,0.1-0.3,0.3-0.3,0.5c0,0.2,0.1,0.3,0.3,0.4s0.4,0.2,0.7,0.2
			c0.3,0.1,0.5,0.1,0.8,0.2c0.3,0.1,0.5,0.2,0.7,0.4s0.3,0.4,0.3,0.8c0,0.4-0.2,0.7-0.5,0.9C57.3,64.3,56.9,64.4,56.4,64.4z"/>
		<path class="st3" d="M60.3,64.4c-0.3,0-0.6-0.1-0.7-0.3c-0.2-0.2-0.2-0.4-0.2-0.8v-2.8h-0.7V60h0.7v-1.2H60V60h0.9v0.6H60v2.7
			c0,0.2,0,0.3,0.1,0.4c0.1,0.1,0.2,0.2,0.3,0.2c0.2,0,0.4-0.1,0.5-0.2l0.2,0.5C60.9,64.3,60.6,64.4,60.3,64.4z"/>
		<path class="st3" d="M65.2,64.3h-0.7v-0.5c-0.4,0.4-0.8,0.6-1.4,0.6c-0.4,0-0.8-0.1-1.1-0.4s-0.5-0.6-0.5-1.1
			c0-0.5,0.2-0.8,0.5-1.1s0.7-0.4,1.1-0.4c0.6,0,1.1,0.2,1.4,0.6v-0.8c0-0.3-0.1-0.5-0.3-0.7c-0.2-0.2-0.5-0.2-0.8-0.2
			c-0.5,0-1,0.2-1.3,0.6l-0.3-0.5c0.5-0.5,1-0.7,1.7-0.7c0.5,0,0.9,0.1,1.2,0.4c0.3,0.2,0.5,0.6,0.5,1.1V64.3z M63.3,64
			c0.5,0,0.9-0.2,1.2-0.5v-0.8c-0.3-0.4-0.7-0.5-1.2-0.5c-0.3,0-0.6,0.1-0.8,0.3c-0.2,0.2-0.3,0.4-0.3,0.7c0,0.3,0.1,0.5,0.3,0.7
			C62.8,63.9,63,64,63.3,64z"/>
		<path class="st3" d="M70.2,64.3h-0.7v-2.8c0-0.4-0.1-0.6-0.3-0.8c-0.2-0.2-0.4-0.2-0.7-0.2c-0.3,0-0.5,0.1-0.7,0.2
			c-0.2,0.1-0.4,0.3-0.6,0.5v3.2h-0.7V60h0.7v0.6c0.2-0.2,0.4-0.4,0.7-0.5s0.6-0.2,0.9-0.2c0.9,0,1.4,0.5,1.4,1.4V64.3z"/>
	</g>
	<g>
		<path class="st3" d="M57.5,94.5h-0.7v-6h0.7V94.5z"/>
		<path class="st3" d="M59.5,94.5h-0.7v-4.3h0.7v0.7c0.4-0.5,0.9-0.8,1.4-0.8v0.7c-0.1,0-0.2,0-0.3,0c-0.2,0-0.4,0.1-0.7,0.2
			c-0.2,0.1-0.4,0.3-0.5,0.5V94.5z"/>
		<path class="st3" d="M65.2,94.5h-0.7V94c-0.4,0.4-0.8,0.6-1.4,0.6c-0.4,0-0.8-0.1-1.1-0.4c-0.3-0.3-0.5-0.6-0.5-1.1
			c0-0.5,0.2-0.8,0.5-1.1c0.3-0.2,0.7-0.4,1.1-0.4c0.6,0,1.1,0.2,1.4,0.6v-0.8c0-0.3-0.1-0.5-0.3-0.7s-0.5-0.2-0.8-0.2
			c-0.5,0-1,0.2-1.3,0.6l-0.3-0.5c0.5-0.5,1-0.7,1.7-0.7c0.5,0,0.9,0.1,1.2,0.4c0.3,0.2,0.5,0.6,0.5,1.1V94.5z M63.3,94.1
			c0.5,0,0.9-0.2,1.2-0.5v-0.8c-0.3-0.4-0.7-0.5-1.2-0.5c-0.3,0-0.6,0.1-0.8,0.3c-0.2,0.2-0.3,0.4-0.3,0.7c0,0.3,0.1,0.5,0.3,0.7
			C62.8,94,63,94.1,63.3,94.1z"/>
		<path class="st3" d="M70.2,94.5h-0.7v-2.8c0-0.4-0.1-0.6-0.3-0.8s-0.4-0.2-0.7-0.2c-0.3,0-0.5,0.1-0.7,0.2
			c-0.2,0.1-0.4,0.3-0.6,0.5v3.2h-0.7v-4.3h0.7v0.6c0.2-0.2,0.4-0.4,0.7-0.5c0.3-0.1,0.6-0.2,0.9-0.2c0.9,0,1.4,0.5,1.4,1.4V94.5z"
			/>
	</g>
	<g>
		<path class="st3" d="M37.8,122.4c-1,0-1.7-0.3-2.3-1l0.4-0.6c0.5,0.6,1.1,0.9,1.9,0.9c0.5,0,0.8-0.1,1.1-0.3s0.3-0.4,0.3-0.7
			c0-0.2-0.1-0.4-0.2-0.5c-0.1-0.1-0.3-0.3-0.5-0.3s-0.4-0.2-0.7-0.2s-0.5-0.1-0.8-0.2s-0.5-0.2-0.7-0.3c-0.2-0.1-0.4-0.3-0.5-0.5
			c-0.1-0.2-0.2-0.5-0.2-0.7c0-0.5,0.2-0.9,0.6-1.2c0.4-0.3,0.9-0.5,1.5-0.5c0.9,0,1.6,0.3,2.1,0.8l-0.4,0.5c-0.4-0.5-1-0.7-1.7-0.7
			c-0.4,0-0.7,0.1-0.9,0.3s-0.3,0.4-0.3,0.7c0,0.2,0.1,0.4,0.3,0.5c0.2,0.1,0.4,0.2,0.7,0.3c0.3,0.1,0.5,0.1,0.9,0.2
			c0.3,0.1,0.6,0.2,0.9,0.3s0.5,0.3,0.7,0.5s0.3,0.5,0.3,0.9c0,0.5-0.2,0.9-0.5,1.3C39.1,122.2,38.6,122.4,37.8,122.4z"/>
		<path class="st3" d="M42,122.4c-0.3,0-0.6-0.1-0.7-0.3c-0.2-0.2-0.2-0.4-0.2-0.8v-2.8h-0.7V118h0.7v-1.2h0.7v1.2h0.9v0.6h-0.9v2.7
			c0,0.2,0,0.3,0.1,0.4c0.1,0.1,0.2,0.2,0.3,0.2c0.2,0,0.4-0.1,0.5-0.2l0.2,0.5C42.7,122.3,42.4,122.4,42,122.4z"/>
		<path class="st3" d="M47,122.3h-0.7v-0.5c-0.4,0.4-0.8,0.6-1.4,0.6c-0.4,0-0.8-0.1-1.1-0.4c-0.3-0.3-0.5-0.6-0.5-1.1
			c0-0.5,0.2-0.8,0.5-1.1c0.3-0.2,0.7-0.4,1.1-0.4c0.6,0,1.1,0.2,1.4,0.6v-0.8c0-0.3-0.1-0.5-0.3-0.7c-0.2-0.2-0.5-0.2-0.8-0.2
			c-0.5,0-1,0.2-1.3,0.6l-0.3-0.5c0.5-0.5,1-0.7,1.7-0.7c0.5,0,0.9,0.1,1.2,0.4s0.5,0.6,0.5,1.1V122.3z M45.1,121.9
			c0.5,0,0.9-0.2,1.2-0.5v-0.8c-0.3-0.4-0.7-0.5-1.2-0.5c-0.3,0-0.6,0.1-0.8,0.3c-0.2,0.2-0.3,0.4-0.3,0.7c0,0.3,0.1,0.5,0.3,0.7
			C44.5,121.8,44.8,121.9,45.1,121.9z"/>
		<path class="st3" d="M49.4,122.4c-0.3,0-0.6-0.1-0.7-0.3c-0.2-0.2-0.2-0.4-0.2-0.8v-2.8h-0.7V118h0.7v-1.2h0.7v1.2H50v0.6h-0.9
			v2.7c0,0.2,0,0.3,0.1,0.4c0.1,0.1,0.2,0.2,0.3,0.2c0.2,0,0.4-0.1,0.5-0.2l0.2,0.5C50,122.3,49.8,122.4,49.4,122.4z"/>
		<path class="st3" d="M52.9,122.4c-0.6,0-1.2-0.2-1.6-0.6s-0.6-1-0.6-1.7c0-0.6,0.2-1.2,0.6-1.6c0.4-0.4,0.9-0.7,1.5-0.7
			c0.6,0,1.2,0.2,1.5,0.7c0.4,0.4,0.6,1,0.6,1.7v0.2h-3.5c0,0.4,0.2,0.8,0.5,1.1c0.3,0.3,0.6,0.4,1.1,0.4c0.5,0,1-0.2,1.3-0.5
			l0.3,0.4C54.2,122.2,53.7,122.4,52.9,122.4z M54.3,119.9c0-0.4-0.1-0.7-0.4-1s-0.6-0.4-1.1-0.4c-0.4,0-0.8,0.1-1,0.4
			c-0.2,0.3-0.4,0.6-0.4,1H54.3z"/>
		<path class="st3" d="M56.7,122.3h-0.7v-6h0.7V122.3z"/>
		<path class="st3" d="M60,122.4c-0.6,0-1.2-0.2-1.6-0.6s-0.6-1-0.6-1.7c0-0.6,0.2-1.2,0.6-1.6c0.4-0.4,0.9-0.7,1.5-0.7
			c0.6,0,1.2,0.2,1.5,0.7c0.4,0.4,0.6,1,0.6,1.7v0.2h-3.5c0,0.4,0.2,0.8,0.5,1.1c0.3,0.3,0.6,0.4,1.1,0.4c0.5,0,1-0.2,1.3-0.5
			l0.3,0.4C61.3,122.2,60.7,122.4,60,122.4z M61.4,119.9c0-0.4-0.1-0.7-0.4-1s-0.6-0.4-1.1-0.4c-0.4,0-0.8,0.1-1,0.4
			c-0.2,0.3-0.4,0.6-0.4,1H61.4z"/>
		<path class="st3" d="M64.5,122.4c-0.7,0-1.3-0.2-1.8-0.7l0.4-0.5c0.2,0.2,0.4,0.3,0.6,0.4c0.3,0.1,0.5,0.2,0.8,0.2
			c0.3,0,0.6-0.1,0.8-0.2c0.2-0.1,0.3-0.3,0.3-0.5c0-0.2-0.1-0.3-0.3-0.5c-0.2-0.1-0.4-0.2-0.7-0.3c-0.3-0.1-0.5-0.1-0.8-0.2
			c-0.3-0.1-0.5-0.2-0.7-0.4c-0.2-0.2-0.3-0.4-0.3-0.7c0-0.4,0.1-0.7,0.4-0.9s0.7-0.4,1.2-0.4c0.7,0,1.2,0.2,1.6,0.6l-0.3,0.5
			c-0.3-0.4-0.7-0.5-1.3-0.5c-0.3,0-0.5,0.1-0.7,0.2s-0.3,0.3-0.3,0.5c0,0.2,0.1,0.3,0.3,0.4c0.2,0.1,0.4,0.2,0.7,0.2
			c0.3,0.1,0.5,0.1,0.8,0.2s0.5,0.2,0.7,0.4c0.2,0.2,0.3,0.4,0.3,0.8c0,0.4-0.2,0.7-0.5,0.9C65.5,122.3,65.1,122.4,64.5,122.4z"/>
		<path class="st3" d="M68.7,122.4c-0.7,0-1.3-0.2-1.8-0.7l0.4-0.5c0.1,0.2,0.4,0.3,0.6,0.4c0.3,0.1,0.5,0.2,0.8,0.2
			c0.3,0,0.6-0.1,0.8-0.2c0.2-0.1,0.3-0.3,0.3-0.5c0-0.2-0.1-0.3-0.3-0.5c-0.2-0.1-0.4-0.2-0.7-0.3c-0.3-0.1-0.5-0.1-0.8-0.2
			c-0.3-0.1-0.5-0.2-0.7-0.4c-0.2-0.2-0.3-0.4-0.3-0.7c0-0.4,0.1-0.7,0.4-0.9s0.7-0.4,1.2-0.4c0.7,0,1.2,0.2,1.6,0.6l-0.3,0.5
			c-0.3-0.4-0.7-0.5-1.3-0.5c-0.3,0-0.5,0.1-0.7,0.2s-0.3,0.3-0.3,0.5c0,0.2,0.1,0.3,0.3,0.4c0.2,0.1,0.4,0.2,0.7,0.2
			s0.5,0.1,0.8,0.2c0.3,0.1,0.5,0.2,0.7,0.4c0.2,0.2,0.3,0.4,0.3,0.8c0,0.4-0.2,0.7-0.4,0.9C69.7,122.3,69.2,122.4,68.7,122.4z"/>
	</g>
	<g>
		<path class="st0" d="M213.9,51.1h-6v-1.2c1.7-1.3,2.9-2.3,3.6-2.9c0.6-0.6,0.9-1.2,0.9-1.8c0-0.4-0.1-0.7-0.4-0.9
			c-0.3-0.2-0.7-0.3-1.1-0.3c-0.9,0-1.7,0.3-2.2,1l-0.8-1c0.4-0.4,0.8-0.8,1.4-1c0.5-0.2,1.1-0.3,1.7-0.3c0.8,0,1.6,0.2,2.1,0.7
			c0.6,0.5,0.9,1.1,0.9,1.9c0,0.7-0.3,1.4-0.9,2.1c-0.6,0.7-1.5,1.5-2.8,2.5h3.7V51.1z"/>
		<path class="st0" d="M218,51.2c-1,0-1.8-0.3-2.4-0.9l0.7-1.1c0.5,0.5,1,0.7,1.7,0.7c0.7,0,1.3-0.3,1.6-0.8
			c0.4-0.5,0.6-1.2,0.6-1.9v-0.2c-0.2,0.3-0.5,0.6-0.9,0.8c-0.4,0.2-0.8,0.4-1.3,0.4c-0.8,0-1.5-0.2-2-0.7c-0.5-0.5-0.8-1.1-0.8-2
			c0-0.8,0.3-1.5,0.9-2s1.3-0.8,2.2-0.8c0.8,0,1.4,0.2,2,0.6s0.9,0.9,1.1,1.5c0.2,0.6,0.3,1.3,0.3,2.2c0,1.2-0.3,2.3-1,3.1
			C220.1,50.8,219.2,51.2,218,51.2z M218.3,46.8c0.4,0,0.7-0.1,1-0.3s0.6-0.4,0.8-0.7c0-0.5-0.2-1-0.5-1.4s-0.8-0.6-1.3-0.6
			c-0.5,0-0.9,0.1-1.2,0.4c-0.3,0.3-0.4,0.6-0.4,1c0,0.5,0.2,0.9,0.5,1.1C217.5,46.7,217.9,46.8,218.3,46.8z"/>
		<path class="st0" d="M227.5,50.9c-0.4,0.2-0.9,0.4-1.5,0.4c-0.6,0-1.1-0.1-1.5-0.4c-0.4-0.2-0.8-0.6-1.1-1
			c-0.3-0.4-0.5-0.9-0.6-1.4c-0.1-0.5-0.2-1-0.2-1.6c0-0.5,0.1-1.1,0.2-1.6c0.1-0.5,0.3-1,0.6-1.4c0.3-0.4,0.6-0.7,1.1-1
			c0.4-0.2,0.9-0.4,1.5-0.4c0.6,0,1.1,0.1,1.5,0.4c0.4,0.2,0.8,0.6,1,1c0.3,0.4,0.5,0.9,0.6,1.4s0.2,1,0.2,1.6
			c0,0.5-0.1,1.1-0.2,1.6s-0.3,1-0.6,1.4C228.3,50.3,228,50.6,227.5,50.9z M224.6,49.1c0.3,0.6,0.8,0.8,1.4,0.8
			c0.6,0,1.1-0.3,1.4-0.8s0.5-1.3,0.5-2.2c0-0.6-0.1-1.1-0.2-1.5c-0.1-0.4-0.3-0.8-0.6-1.1c-0.3-0.3-0.6-0.4-1.1-0.4
			c-0.4,0-0.8,0.1-1.1,0.4s-0.5,0.6-0.6,1.1c-0.1,0.4-0.2,0.9-0.2,1.5C224.2,47.8,224.3,48.5,224.6,49.1z"/>
	</g>
	<g>
		<path class="st0" d="M213.2,76.4c-0.6,0.4-1.4,0.6-2.3,0.6c-0.9,0-1.7-0.2-2.3-0.6c-0.6-0.4-0.9-1-0.9-1.7c0-0.5,0.2-0.9,0.5-1.3
			c0.4-0.4,0.8-0.7,1.3-0.8c-0.5-0.2-0.9-0.4-1.3-0.7c-0.3-0.3-0.5-0.7-0.5-1.2c0-0.4,0.1-0.7,0.3-1c0.2-0.3,0.4-0.5,0.7-0.7
			c0.3-0.2,0.6-0.3,1-0.4c0.4-0.1,0.7-0.1,1.1-0.1c0.4,0,0.8,0,1.1,0.1c0.3,0.1,0.7,0.2,1,0.4c0.3,0.2,0.5,0.4,0.7,0.7
			c0.2,0.3,0.3,0.6,0.3,1c0,0.9-0.6,1.6-1.8,2c0.5,0.2,1,0.5,1.3,0.8c0.4,0.4,0.5,0.8,0.5,1.3C214.2,75.4,213.9,76,213.2,76.4z
			 M211,75.7c0.5,0,0.9-0.1,1.2-0.3c0.3-0.2,0.5-0.5,0.5-0.8c0-0.4-0.2-0.7-0.6-0.9c-0.4-0.2-0.8-0.4-1.1-0.4
			c-0.2,0-0.4,0.1-0.7,0.2c-0.2,0.1-0.5,0.2-0.7,0.4c-0.2,0.2-0.3,0.4-0.3,0.7c0,0.3,0.2,0.6,0.5,0.8
			C210.1,75.6,210.5,75.7,211,75.7z M211,72c0.2,0,0.4-0.1,0.7-0.2c0.2-0.1,0.4-0.2,0.6-0.4c0.2-0.2,0.3-0.4,0.3-0.6
			c0-0.3-0.1-0.6-0.4-0.8c-0.3-0.2-0.7-0.3-1.1-0.3c-0.5,0-0.8,0.1-1.1,0.3c-0.3,0.2-0.4,0.5-0.4,0.8c0,0.2,0.1,0.5,0.3,0.6
			c0.2,0.2,0.4,0.3,0.6,0.4C210.5,71.9,210.7,71.9,211,72z"/>
		<path class="st0" d="M218.6,77c-0.6,0-1.1-0.1-1.6-0.3c-0.5-0.2-0.8-0.5-1.1-0.9s-0.5-0.9-0.6-1.4c-0.1-0.5-0.2-1.1-0.2-1.7
			c0-1.3,0.3-2.3,1-3.1c0.6-0.8,1.5-1.2,2.7-1.2c1,0,1.8,0.3,2.4,0.9l-0.7,1.1c-0.5-0.5-1-0.7-1.7-0.7c-0.7,0-1.2,0.3-1.6,0.8
			c-0.4,0.5-0.6,1.2-0.6,1.9c0,0.1,0,0.2,0,0.2c0.2-0.3,0.5-0.6,0.9-0.8s0.8-0.3,1.3-0.3c0.8,0,1.5,0.2,2,0.7c0.5,0.5,0.8,1.1,0.8,2
			c0,0.8-0.3,1.5-0.9,2C220.3,76.7,219.6,77,218.6,77z M218.6,75.7c0.5,0,0.9-0.1,1.2-0.4c0.3-0.3,0.5-0.6,0.5-1
			c0-0.5-0.2-0.9-0.5-1.1s-0.7-0.4-1.2-0.4c-0.4,0-0.7,0.1-1,0.3c-0.3,0.2-0.6,0.4-0.8,0.7c0,0.5,0.2,1,0.5,1.4
			C217.5,75.5,218,75.7,218.6,75.7z"/>
		<path class="st0" d="M226,77c-1.3,0-2.4-0.4-3.1-1.3l0.8-1c0.6,0.7,1.3,1,2.2,1c0.5,0,0.9-0.1,1.2-0.4c0.3-0.3,0.5-0.6,0.5-1
			c0-0.5-0.2-0.8-0.5-1.1c-0.3-0.3-0.7-0.4-1.2-0.4c-0.7,0-1.3,0.2-1.8,0.7l-1-0.3v-4.7h5.5v1.3h-4v2.4c0.5-0.5,1.1-0.7,1.9-0.7
			c0.7,0,1.4,0.2,1.9,0.7c0.5,0.5,0.8,1.1,0.8,2c0,0.9-0.3,1.5-0.9,2.1C227.7,76.7,226.9,77,226,77z"/>
	</g>
	<g>
		<path class="st0" d="M213,107.2h-1.5v-1.9h-4v-1.2l3.4-5.3h2v5.2h1.1v1.3H213V107.2z M211.6,104v-3.8L209,104H211.6z"/>
		<path class="st0" d="M218.3,107.4c-1.3,0-2.4-0.4-3.1-1.3l0.8-1c0.6,0.7,1.3,1,2.2,1c0.5,0,0.9-0.1,1.2-0.4c0.3-0.3,0.5-0.6,0.5-1
			c0-0.5-0.2-0.8-0.5-1.1c-0.3-0.3-0.7-0.4-1.2-0.4c-0.7,0-1.3,0.2-1.8,0.7l-1-0.3v-4.7h5.5v1.3h-4v2.4c0.5-0.5,1.1-0.7,1.9-0.7
			c0.7,0,1.4,0.2,1.9,0.7c0.5,0.5,0.8,1.1,0.8,2c0,0.9-0.3,1.5-0.9,2.1C220,107.1,219.2,107.4,218.3,107.4z"/>
	</g>
	<g>
		<path class="st0" d="M45.8,163.9h-1.5V162h-4v-1.2l3.4-5.3h2v5.2h1.1v1.3h-1.1V163.9z M44.3,160.7v-3.9l-2.5,3.9H44.3z"/>
		<path class="st0" d="M49.7,163.4c0,0.4-0.1,0.8-0.3,1.2c-0.2,0.4-0.5,0.7-0.9,0.9L48,165c0.2-0.1,0.4-0.3,0.6-0.5
			c0.2-0.2,0.3-0.4,0.3-0.6c-0.1,0-0.1,0-0.2,0c-0.2,0-0.4-0.1-0.5-0.2c-0.1-0.1-0.2-0.3-0.2-0.6s0.1-0.4,0.2-0.6
			c0.2-0.2,0.4-0.3,0.6-0.3c0.3,0,0.5,0.1,0.7,0.3S49.7,163,49.7,163.4z"/>
		<path class="st0" d="M52.6,163.9H51l3.1-7h-4.3v-1.3h6v1L52.6,163.9z"/>
		<path class="st0" d="M59.9,164c-1.3,0-2.4-0.4-3.1-1.3l0.8-1c0.6,0.7,1.3,1,2.2,1c0.5,0,0.9-0.1,1.2-0.4c0.3-0.3,0.5-0.6,0.5-1
			c0-0.5-0.2-0.8-0.5-1.1c-0.3-0.3-0.7-0.4-1.2-0.4c-0.7,0-1.3,0.2-1.8,0.7l-1-0.3v-4.7h5.5v1.3h-4v2.4c0.5-0.5,1.1-0.7,1.9-0.7
			c0.7,0,1.4,0.2,1.9,0.7c0.5,0.5,0.8,1.1,0.8,2c0,0.9-0.3,1.5-0.9,2.1C61.6,163.8,60.8,164,59.9,164z"/>
		<path class="st0" d="M67.4,164c-1.3,0-2.4-0.4-3.1-1.3l0.8-1c0.6,0.7,1.3,1,2.2,1c0.5,0,0.9-0.1,1.2-0.4c0.3-0.3,0.5-0.6,0.5-1
			c0-0.5-0.2-0.8-0.5-1.1c-0.3-0.3-0.7-0.4-1.2-0.4c-0.7,0-1.3,0.2-1.8,0.7l-1-0.3v-4.7H70v1.3h-4v2.4c0.5-0.5,1.1-0.7,1.9-0.7
			c0.7,0,1.4,0.2,1.9,0.7c0.5,0.5,0.8,1.1,0.8,2c0,0.9-0.3,1.5-0.9,2.1C69.1,163.8,68.3,164,67.4,164z"/>
	</g>
	<g>
		<path class="st0" d="M52.5,134.1c-0.6,0-1.1-0.1-1.6-0.3c-0.4-0.2-0.8-0.5-1.1-0.9c-0.3-0.4-0.5-0.9-0.6-1.4
			c-0.1-0.5-0.2-1.1-0.2-1.7c0-1.3,0.3-2.3,1-3.1c0.6-0.8,1.5-1.2,2.7-1.2c1,0,1.8,0.3,2.4,0.9l-0.7,1.1c-0.5-0.5-1-0.7-1.7-0.7
			c-0.7,0-1.2,0.3-1.6,0.8s-0.6,1.2-0.6,1.9c0,0.1,0,0.2,0,0.2c0.2-0.3,0.5-0.6,0.9-0.8s0.8-0.3,1.3-0.3c0.8,0,1.5,0.2,2,0.7
			c0.5,0.5,0.8,1.1,0.8,2c0,0.8-0.3,1.5-0.9,2C54.2,133.8,53.4,134.1,52.5,134.1z M52.4,132.8c0.5,0,0.9-0.1,1.2-0.4
			c0.3-0.3,0.4-0.6,0.4-1c0-0.5-0.2-0.9-0.5-1.1c-0.3-0.3-0.7-0.4-1.2-0.4c-0.4,0-0.7,0.1-1,0.3c-0.3,0.2-0.6,0.4-0.8,0.7
			c0.1,0.5,0.2,1,0.5,1.4C51.4,132.6,51.8,132.8,52.4,132.8z"/>
		<path class="st0" d="M60,134.1c-0.6,0-1.1-0.1-1.6-0.3c-0.5-0.2-0.8-0.5-1.1-0.9c-0.3-0.4-0.5-0.9-0.6-1.4
			c-0.1-0.5-0.2-1.1-0.2-1.7c0-1.3,0.3-2.3,1-3.1c0.6-0.8,1.5-1.2,2.7-1.2c1,0,1.8,0.3,2.4,0.9l-0.7,1.1c-0.5-0.5-1-0.7-1.7-0.7
			c-0.7,0-1.2,0.3-1.6,0.8s-0.6,1.2-0.6,1.9c0,0.1,0,0.2,0,0.2c0.2-0.3,0.5-0.6,0.9-0.8s0.8-0.3,1.3-0.3c0.8,0,1.5,0.2,2,0.7
			c0.5,0.5,0.8,1.1,0.8,2c0,0.8-0.3,1.5-0.8,2S60.9,134.1,60,134.1z M60,132.8c0.5,0,0.9-0.1,1.2-0.4s0.5-0.6,0.5-1
			c0-0.5-0.2-0.9-0.5-1.1c-0.3-0.3-0.7-0.4-1.2-0.4c-0.3,0-0.7,0.1-1,0.3c-0.3,0.2-0.6,0.4-0.8,0.7c0,0.5,0.2,1,0.5,1.4
			C58.9,132.6,59.4,132.8,60,132.8z"/>
		<path class="st0" d="M67.4,134.1c-1.3,0-2.4-0.4-3.1-1.3l0.8-1c0.6,0.7,1.3,1,2.2,1c0.5,0,0.9-0.1,1.2-0.4c0.3-0.3,0.5-0.6,0.5-1
			c0-0.5-0.2-0.8-0.5-1.1c-0.3-0.3-0.7-0.4-1.2-0.4c-0.7,0-1.3,0.2-1.8,0.7l-1-0.3v-4.7H70v1.3h-4v2.4c0.5-0.5,1.1-0.7,1.9-0.7
			c0.7,0,1.4,0.2,1.9,0.7c0.5,0.5,0.8,1.1,0.8,2c0,0.9-0.3,1.5-0.9,2.1C69.1,133.8,68.3,134.1,67.4,134.1z"/>
	</g>
	<g>
		<path class="st0" d="M57.8,105.4h-1.5v-6.4l-1.4,1.4l-0.9-0.9l2.4-2.4h1.3V105.4z"/>
		<path class="st0" d="M62.5,105.4H61v-6.4l-1.4,1.4l-0.9-0.9l2.4-2.4h1.3V105.4z"/>
		<path class="st0" d="M68.7,105.1c-0.4,0.2-0.9,0.4-1.5,0.4c-0.6,0-1.1-0.1-1.5-0.4c-0.4-0.2-0.8-0.6-1-1c-0.3-0.4-0.5-0.9-0.6-1.4
			s-0.2-1-0.2-1.6c0-0.5,0.1-1.1,0.2-1.6s0.3-1,0.6-1.4c0.3-0.4,0.6-0.7,1-1c0.4-0.2,0.9-0.4,1.5-0.4c0.6,0,1.1,0.1,1.5,0.4
			c0.4,0.2,0.8,0.6,1,1s0.5,0.9,0.6,1.4c0.1,0.5,0.2,1,0.2,1.6c0,0.5-0.1,1.1-0.2,1.6c-0.1,0.5-0.3,1-0.6,1.4
			C69.5,104.5,69.2,104.9,68.7,105.1z M65.8,103.4c0.3,0.6,0.8,0.9,1.4,0.9s1.1-0.3,1.4-0.9c0.3-0.6,0.5-1.3,0.5-2.2
			c0-0.6-0.1-1.1-0.2-1.5c-0.1-0.4-0.3-0.8-0.6-1.1s-0.6-0.4-1.1-0.4c-0.4,0-0.8,0.1-1.1,0.4s-0.5,0.6-0.6,1.1
			c-0.1,0.4-0.2,0.9-0.2,1.5C65.4,102.1,65.5,102.8,65.8,103.4z"/>
	</g>
	<g>
		<path class="st0" d="M49.5,76.8h-6v-1.2c1.7-1.3,2.9-2.3,3.6-2.9c0.6-0.6,0.9-1.2,0.9-1.8c0-0.4-0.1-0.7-0.4-0.9
			c-0.3-0.2-0.7-0.3-1.1-0.3c-0.9,0-1.7,0.3-2.2,1l-0.8-1c0.4-0.4,0.8-0.8,1.4-1c0.5-0.2,1.1-0.3,1.7-0.3c0.8,0,1.6,0.2,2.1,0.7
			c0.6,0.5,0.9,1.1,0.9,1.9c0,0.7-0.3,1.4-0.9,2.1c-0.6,0.7-1.5,1.5-2.8,2.5h3.7V76.8z"/>
		<path class="st0" d="M52.7,76.4c0,0.4-0.1,0.8-0.3,1.2c-0.2,0.4-0.5,0.7-0.9,0.9L51,78c0.2-0.1,0.4-0.3,0.6-0.5
			c0.2-0.2,0.3-0.4,0.3-0.6c-0.1,0-0.1,0-0.2,0c-0.2,0-0.4-0.1-0.5-0.2c-0.1-0.1-0.2-0.3-0.2-0.6s0.1-0.4,0.2-0.6
			c0.2-0.2,0.4-0.3,0.6-0.3c0.3,0,0.5,0.1,0.7,0.3S52.7,76,52.7,76.4z"/>
		<path class="st0" d="M56.1,76.8h-1.5v-6.4l-1.4,1.4l-0.8-0.9l2.4-2.4h1.3V76.8z"/>
		<path class="st0" d="M60.1,76.8h-1.6l3.1-7h-4.3v-1.3h6v1L60.1,76.8z"/>
		<path class="st0" d="M67.4,77c-1.3,0-2.4-0.4-3.1-1.3l0.8-1c0.6,0.7,1.3,1,2.2,1c0.5,0,0.9-0.1,1.2-0.4c0.3-0.3,0.5-0.6,0.5-1
			c0-0.5-0.2-0.8-0.5-1.1c-0.3-0.3-0.7-0.4-1.2-0.4c-0.7,0-1.3,0.2-1.8,0.7l-1-0.3v-4.7H70v1.3h-4v2.4c0.5-0.5,1.1-0.7,1.9-0.7
			c0.7,0,1.4,0.2,1.9,0.7c0.5,0.5,0.8,1.1,0.8,2c0,0.9-0.3,1.5-0.9,2.1C69.1,76.7,68.3,77,67.4,77z"/>
	</g>
	<g>
		<path class="st0" d="M54.7,47.6h-1.5v-1.9h-4v-1.2l3.4-5.3h2v5.2h1.1v1.3h-1.1V47.6z M53.2,44.4v-3.9l-2.5,3.9H53.2z"/>
		<path class="st0" d="M62.8,47.6h-6v-1.2c1.7-1.3,2.9-2.3,3.6-2.9c0.6-0.6,0.9-1.2,0.9-1.8c0-0.4-0.1-0.7-0.4-0.9s-0.7-0.3-1.1-0.3
			c-0.9,0-1.7,0.3-2.2,1l-0.8-1c0.4-0.4,0.8-0.8,1.4-1c0.5-0.2,1.1-0.3,1.7-0.3c0.9,0,1.6,0.2,2.1,0.7c0.6,0.5,0.9,1.1,0.9,1.9
			c0,0.7-0.3,1.4-0.9,2.1s-1.5,1.5-2.8,2.5h3.7V47.6z"/>
		<path class="st0" d="M67.4,47.7c-1.3,0-2.4-0.4-3.1-1.3l0.8-1c0.6,0.7,1.3,1,2.2,1c0.5,0,0.9-0.1,1.2-0.4c0.3-0.3,0.5-0.6,0.5-1
			c0-0.5-0.2-0.8-0.5-1.1c-0.3-0.3-0.7-0.4-1.2-0.4c-0.7,0-1.3,0.2-1.8,0.7l-1-0.3v-4.7H70v1.3h-4V43c0.5-0.5,1.1-0.7,1.9-0.7
			c0.7,0,1.4,0.2,1.9,0.7c0.5,0.5,0.8,1.1,0.8,2c0,0.9-0.3,1.5-0.9,2.1C69.1,47.5,68.3,47.7,67.4,47.7z"/>
	</g>
	<g>
		<path class="st0" d="M142.1,29.9c-1.3,0-2.4-0.4-3.1-1.3l0.8-1c0.6,0.7,1.3,1,2.2,1c0.5,0,0.9-0.1,1.2-0.4c0.3-0.3,0.5-0.6,0.5-1
			c0-0.5-0.2-0.8-0.5-1.1c-0.3-0.3-0.7-0.4-1.2-0.4c-0.7,0-1.3,0.2-1.8,0.7l-1-0.3v-4.7h5.5v1.3h-4v2.4c0.5-0.5,1.1-0.7,1.9-0.7
			c0.7,0,1.4,0.2,1.9,0.7c0.5,0.5,0.8,1.1,0.8,2c0,0.9-0.3,1.5-0.9,2.1S143,29.9,142.1,29.9z"/>
		<path class="st0" d="M149.6,29.9c-1.3,0-2.4-0.4-3.1-1.3l0.8-1c0.6,0.7,1.3,1,2.2,1c0.5,0,0.9-0.1,1.2-0.4c0.3-0.3,0.5-0.6,0.5-1
			c0-0.5-0.2-0.8-0.5-1.1c-0.3-0.3-0.7-0.4-1.2-0.4c-0.7,0-1.3,0.2-1.8,0.7l-1-0.3v-4.7h5.5v1.3h-4v2.4c0.5-0.5,1.1-0.7,1.9-0.7
			c0.7,0,1.4,0.2,1.9,0.7c0.5,0.5,0.8,1.1,0.8,2c0,0.9-0.3,1.5-0.9,2.1S150.5,29.9,149.6,29.9z"/>
		<path class="st0" d="M158.7,29.5c-0.4,0.2-0.9,0.4-1.5,0.4s-1.1-0.1-1.5-0.4s-0.8-0.6-1-1c-0.3-0.4-0.5-0.9-0.6-1.4
			c-0.1-0.5-0.2-1-0.2-1.6c0-0.5,0.1-1.1,0.2-1.6c0.1-0.5,0.3-1,0.6-1.4c0.3-0.4,0.6-0.7,1-1s0.9-0.4,1.5-0.4s1.1,0.1,1.5,0.4
			s0.8,0.6,1.1,1c0.3,0.4,0.5,0.9,0.6,1.4s0.2,1,0.2,1.6c0,0.5-0.1,1.1-0.2,1.6s-0.3,1-0.6,1.4C159.4,28.9,159.1,29.3,158.7,29.5z
			 M155.8,27.7c0.3,0.6,0.8,0.8,1.4,0.8c0.6,0,1.1-0.3,1.4-0.8s0.5-1.3,0.5-2.2c0-0.6-0.1-1.1-0.2-1.5c-0.1-0.4-0.3-0.8-0.6-1.1
			c-0.3-0.3-0.6-0.4-1.1-0.4s-0.8,0.1-1.1,0.4c-0.3,0.3-0.5,0.6-0.6,1.1c-0.1,0.4-0.2,0.9-0.2,1.5C155.3,26.5,155.5,27.2,155.8,27.7
			z"/>
	</g>
	<g>
		<g>
			<path class="st4" d="M200.7,67.4c-11.3-2.7-32.2-8.7-44.4,1.6"/>
			<g>
				<path class="st2" d="M156.6,68.8c1.3,0.1,2.8,1.2,3.6,2.1c-2-0.5-4.2-0.5-6.2,0.1c1-1.9,1.2-4,1.1-6.1
					C155.9,66,156.7,67.4,156.6,68.8z"/>
			</g>
		</g>
	</g>
	<g>
		<g>
			<path class="st5" d="M201.8,96.2c-12.7,2.3-38.2-3.2-49.1-15.6"/>
			<g>
				<path class="st2" d="M152.7,80.6c0,0.1-0.1,0.1-0.1,0.2c0-0.1,0-0.2,0-0.3c0.1,0,0.2,0.1,0.3,0.1
					C152.9,80.5,152.8,80.6,152.7,80.6z"/>
			</g>
		</g>
	</g>
	<g>
		<g>
			<path class="st6" d="M78.3,151.9c12.9,0.6,33.7-1.6,45.8-14.8"/>
			<g>
				<path class="st2" d="M123.6,137.7c-2.8,0.4-6.5-1.3-8.7-2.9c4.6,0.1,9.3-0.7,13.3-3c-1.3,4.4-0.7,9.2,0.4,13.6
					C126.4,143.4,124.1,140.7,123.6,137.7z"/>
			</g>
		</g>
	</g>
	<g>
		<g>
			<path class="st7" d="M199.7,128.3c-20.5,4.7-38.5,10.6-57.5-4.7"/>
			<g>
				<path class="st2" d="M142.2,123.6c0,0.1-0.1,0.3-0.1,0.4c0-0.2,0-0.4-0.1-0.6c0.2,0.1,0.4,0,0.6,0
					C142.5,123.5,142.3,123.6,142.2,123.6z"/>
			</g>
		</g>
	</g>
	<g>
		<g>
			<path class="st8" d="M78.3,34.8c18.3,0,56.6,3.7,68.7,34.2"/>
			<g>
				<path class="st2" d="M146.9,68.8c0.2-0.6,1-1.1,1.5-1.3c-0.5,0.9-0.9,1.9-0.9,2.9c-0.7-0.7-1.7-1.2-2.7-1.5
					C145.5,68.7,146.3,68.6,146.9,68.8z"/>
			</g>
		</g>
	</g>
	<g>
		<g>
			<path class="st9" d="M77.1,122.2c13,1.1,37,2.8,51-7.6"/>
			<g>
				<path class="st2" d="M127.9,114.7c-1-0.1-2.1-1-2.7-1.8c1.5,0.5,3.2,0.6,4.8,0.2c-0.8,1.4-1.1,3-1.1,4.6
					C128.4,116.9,127.8,115.7,127.9,114.7z"/>
			</g>
		</g>
	</g>
	<g>
		<g>
			<path class="st10" d="M76.5,66.6c14.4-4,43.9-8.3,63.5,8.7"/>
			<g>
				<path class="st2" d="M139.7,75c-0.1-1.4,0.9-3.3,1.8-4.4c-0.2,2.3,0.1,4.8,1.2,6.9c-2.2-0.8-4.7-0.6-7-0.2
					C136.7,76.3,138.2,75.2,139.7,75z"/>
			</g>
		</g>
	</g>
	<g>
		<g>
			<path class="st11" d="M76.5,96.2c10.3-8.3,35.6-18.4,59.3-12.4"/>
			<g>
				<path class="st2" d="M135.8,83.8c-0.1-0.1-0.1-0.4,0-0.5c0.1,0.2,0.3,0.5,0.5,0.6c-0.3,0-0.5,0.2-0.7,0.3
					C135.6,84.1,135.6,83.9,135.8,83.8z"/>
			</g>
		</g>
	</g>
	<g>
		<g>
			<line class="st12" x1="149.7" y1="31.4" x2="149.7" y2="57"/>
			<g>
				<path class="st2" d="M149.7,56.8c0.6-0.6,1.7-0.8,2.5-0.9c-1.1,0.8-2,1.8-2.5,3.1c-0.5-1.2-1.5-2.2-2.5-3.1
					C148,56,149,56.2,149.7,56.8z"/>
			</g>
		</g>
	</g>
	<g>
		<path class="st0" d="M213.2,137.7c-0.6,0.4-1.4,0.6-2.3,0.6c-0.9,0-1.7-0.2-2.3-0.6c-0.6-0.4-0.9-1-0.9-1.7c0-0.5,0.2-1,0.5-1.3
			c0.4-0.4,0.8-0.7,1.3-0.8c-0.5-0.2-0.9-0.4-1.3-0.7c-0.3-0.3-0.5-0.7-0.5-1.2c0-0.4,0.1-0.7,0.3-1c0.2-0.3,0.4-0.5,0.7-0.7
			s0.6-0.3,1-0.4c0.4-0.1,0.7-0.1,1.1-0.1c0.4,0,0.8,0,1.1,0.1c0.3,0.1,0.7,0.2,1,0.4s0.5,0.4,0.7,0.7s0.3,0.6,0.3,1
			c0,0.9-0.6,1.6-1.8,2c0.5,0.2,1,0.5,1.3,0.8c0.4,0.4,0.5,0.8,0.5,1.3C214.2,136.8,213.9,137.3,213.2,137.7z M211,137
			c0.5,0,0.9-0.1,1.2-0.3c0.3-0.2,0.5-0.5,0.5-0.9c0-0.4-0.2-0.7-0.6-0.9s-0.8-0.4-1.1-0.4c-0.2,0-0.4,0.1-0.7,0.2
			c-0.2,0.1-0.5,0.2-0.7,0.4c-0.2,0.2-0.3,0.4-0.3,0.7c0,0.4,0.2,0.6,0.5,0.9C210.1,136.9,210.5,137,211,137z M211,133.3
			c0.2,0,0.4-0.1,0.7-0.2c0.2-0.1,0.4-0.2,0.6-0.4c0.2-0.2,0.3-0.4,0.3-0.6c0-0.3-0.1-0.6-0.4-0.8s-0.7-0.3-1.1-0.3
			c-0.5,0-0.8,0.1-1.1,0.3s-0.4,0.5-0.4,0.8c0,0.2,0.1,0.5,0.3,0.6c0.2,0.2,0.4,0.3,0.6,0.4C210.5,133.2,210.7,133.3,211,133.3z"/>
		<path class="st0" d="M218.5,138.3c-1.3,0-2.4-0.4-3.1-1.3l0.8-1c0.6,0.7,1.3,1,2.2,1c0.5,0,0.9-0.1,1.2-0.4s0.5-0.6,0.5-1
			c0-0.5-0.2-0.8-0.5-1.1c-0.3-0.3-0.7-0.4-1.2-0.4c-0.7,0-1.3,0.2-1.8,0.7l-1-0.3v-4.7h5.5v1.3h-4v2.4c0.5-0.5,1.1-0.7,1.9-0.7
			c0.7,0,1.4,0.2,1.9,0.7c0.5,0.5,0.8,1.1,0.8,2c0,0.9-0.3,1.5-0.9,2.1C220.2,138.1,219.4,138.3,218.5,138.3z"/>
	</g>
</g>
</svg>
