<?xml version="1.0" encoding="utf-8"?>
<!-- Generator: Adobe Illustrator 19.2.0, SVG Export Plug-In . SVG Version: 6.00 Build 0)  -->
<svg version="1.1" id="Layer_1" xmlns="http://www.w3.org/2000/svg" xmlns:xlink="http://www.w3.org/1999/xlink" x="0px" y="0px"
	 viewBox="0 0 266.2 169.3" style="enable-background:new 0 0 266.2 169.3;" xml:space="preserve">
<style type="text/css">
	.st0{fill:#0D92FF;}
	.st1{fill:none;stroke:#00325C;stroke-width:0.195;stroke-miterlimit:10;}
	.st2{fill:#00325C;}
	.st3{fill:#787878;}
	.st4{fill:none;stroke:#00325C;stroke-width:0.965;stroke-miterlimit:10;}
	.st5{fill:none;stroke:#00325C;stroke-width:4.500000e-02;stroke-miterlimit:10;}
	.st6{fill:none;stroke:#00325C;stroke-width:1.715;stroke-miterlimit:3;}
	.st7{fill:none;stroke:#00325C;stroke-width:9.000000e-02;stroke-miterlimit:10;}
	.st8{fill:none;stroke:#00325C;stroke-width:0.41;stroke-miterlimit:10;}
	.st9{fill:none;stroke:#00325C;stroke-width:0.395;stroke-miterlimit:10;}
	.st10{fill:none;stroke:#00325C;stroke-width:0.725;stroke-miterlimit:10;}
	.st11{fill:none;stroke:#00325C;stroke-width:6.500000e-02;stroke-miterlimit:10;}
	.st12{fill:none;stroke:#00325C;stroke-width:0.235;stroke-miterlimit:10;}
</style>
<g>
	<path class="st0" d="M141.7,137.2L141.7,137.2L141.7,137.2L141.7,137.2L141.7,137.2l0.1-0.1L141.7,137.2L141.7,137.2L141.7,137.2
		L141.7,137.2L141.7,137.2z M141.9,138.6L141.9,138.6L141.9,138.6L141.9,138.6l0.1-0.1L141.9,138.6l0.1-0.1L141.9,138.6L141.9,138.6
		L141.9,138.6L141.9,138.6L141.9,138.6L141.9,138.6L141.9,138.6L141.9,138.6L141.9,138.6z M141.5,138.5L141.5,138.5l0,0.1
		L141.5,138.5L141.5,138.5L141.5,138.5L141.5,138.5L141.5,138.5L141.5,138.5z M141.6,139L141.6,139L141.6,139L141.6,139L141.6,139
		L141.6,139L141.6,139l-0.1,0.1l0,0.1l0,0l0.1,0l0,0l0-0.1l0,0L141.6,139L141.6,139L141.6,139L141.6,139z M120,143.3L120,143.3
		L120,143.3L120,143.3L120,143.3l-0.1,0l0,0l0,0l0,0l0,0l0,0.1l0,0l0,0l0,0l0,0l0,0l0,0l0,0L120,143.3L120,143.3L120,143.3z
		 M140.6,144.4L140.6,144.4l0.1,0.1l0,0L140.6,144.4L140.6,144.4l0-0.1L140.6,144.4L140.6,144.4z M141,146.5L141,146.5L141,146.5
		L141,146.5L141,146.5L141,146.5z M140.1,147.6L140.1,147.6L140.1,147.6l0.1,0l0,0l0,0l0,0l0.1,0l0,0l0,0l-0.1,0L140.1,147.6l0-0.1
		l0,0L140.1,147.6L140.1,147.6L140.1,147.6L140.1,147.6z M135.1,154.9L135.1,154.9L135.1,154.9v-0.1V154.9z M133.4,155L133.4,155
		L133.4,155L133.4,155L133.4,155L133.4,155L133.4,155L133.4,155L133.4,155z M136.8,155.7L136.8,155.7L136.8,155.7L136.8,155.7
		L136.8,155.7L136.8,155.7L136.8,155.7L136.8,155.7L136.8,155.7L136.8,155.7l0,0.1L136.8,155.7L136.8,155.7L136.8,155.7L136.8,155.7
		z M132.8,155.8L132.8,155.8L132.8,155.8l0,0.1h0L132.8,155.8L132.8,155.8L132.8,155.8z M158.7,90.4L158.7,90.4L158.7,90.4
		L158.7,90.4L158.7,90.4L158.7,90.4L158.7,90.4z M157.4,90.5L157.4,90.5L157.4,90.5L157.4,90.5L157.4,90.5L157.4,90.5L157.4,90.5
		L157.4,90.5z M156.9,90.6L156.9,90.6l0,0.2h0l0,0l0,0L156.9,90.6L156.9,90.6L156.9,90.6z M156.8,91.1L156.8,91.1l0,0.1l0,0l0,0l0,0
		l0,0.1L156.8,91.1L156.8,91.1L156.8,91.1z M155.6,91.8L155.6,91.8L155.6,91.8l0,0.1L155.6,91.8L155.6,91.8L155.6,91.8z M154,92.8
		L154,92.8L154,92.8L154,92.8l-0.1,0.1l0,0l0,0.1l0-0.1L154,92.8L154,92.8z M154,93.5l0,0.1L154,93.5L154,93.5L154,93.5L154,93.5z
		 M152.4,93.7L152.4,93.7l0-0.1L152.4,93.7l0,0.1l0,0l0,0l0,0l0,0l0.1,0l0-0.1L152.4,93.7L152.4,93.7z M152,93.8L152,93.8L152,93.8
		L152,93.8L152,93.8L152,93.8L152,93.8L152,93.8z M151,95.5L151,95.5L151,95.5l0-0.1l0,0L151,95.5L151,95.5z M149.7,96.3L149.7,96.3
		L149.7,96.3L149.7,96.3l0.1,0L149.7,96.3L149.7,96.3L149.7,96.3z M149.5,96.6L149.5,96.6L149.5,96.6l0.1-0.1L149.5,96.6L149.5,96.6
		z M166,70.7L166,70.7l0,0.2l0,0L166,70.7L166,70.7z M166,70.8L166,70.8l0,0.1l0.1,0.1l0,0L166,70.8L166,70.8z M171.7,70.9
		L171.7,70.9L171.7,70.9l0,0.1L171.7,70.9L171.7,70.9L171.7,70.9L171.7,70.9L171.7,70.9L171.7,70.9z M171.9,71L171.9,71L171.9,71
		l0-0.1l-0.1,0L171.9,71z M169,70.9L169,70.9L169,70.9L169,70.9L169,70.9L169,70.9L169,70.9L169,70.9L169,70.9L169,70.9L169,70.9z
		 M168,70.9L168,70.9L168,70.9l0,0.1l0,0l0,0l0,0L168,70.9L168,70.9z M171.1,71L171.1,71L171.1,71L171.1,71L171.1,71L171.1,71
		L171.1,71z M168.6,71.3L168.6,71.3L168.6,71.3L168.6,71.3L168.6,71.3z M170.7,71.3L170.7,71.3L170.7,71.3L170.7,71.3L170.7,71.3
		L170.7,71.3z M167.9,71.4L167.9,71.4L167.9,71.4L167.9,71.4L167.9,71.4L167.9,71.4l0-0.1l0,0l0,0l0,0l0,0L167.9,71.4L167.9,71.4
		L167.9,71.4l-0.1-0.1l0,0l0,0l0,0l0,0L167.9,71.4L167.9,71.4L167.9,71.4L167.9,71.4z M168.8,71.3L168.8,71.3L168.8,71.3L168.8,71.3
		l-0.1,0.1l0,0l0,0l0,0l0,0L168.8,71.3L168.8,71.3L168.8,71.3z M171.5,71.4L171.5,71.4L171.5,71.4L171.5,71.4L171.5,71.4L171.5,71.4
		L171.5,71.4z M169.3,71.6l-0.1-0.1L169.3,71.6L169.3,71.6L169.3,71.6l0,0.1l0,0L169.3,71.6L169.3,71.6z M167.7,71.5L167.7,71.5
		L167.7,71.5L167.7,71.5L167.7,71.5L167.7,71.5z M167.8,71.6L167.8,71.6L167.8,71.6L167.8,71.6L167.8,71.6L167.8,71.6z M171.9,71.8
		L171.9,71.8l-0.1-0.1l-0.1,0l0,0L171.9,71.8L171.9,71.8L171.9,71.8L171.9,71.8l0,0.1l0,0L171.9,71.8L171.9,71.8L171.9,71.8z
		 M171.7,71.9L171.7,71.9L171.7,71.9L171.7,71.9l-0.1-0.1l0,0.1L171.7,71.9L171.7,71.9L171.7,71.9z M166.6,72.1L166.6,72.1
		L166.6,72.1L166.6,72.1L166.6,72.1L166.6,72.1L166.6,72.1L166.6,72.1L166.6,72.1L166.6,72.1z M165.8,72.1L165.8,72.1L165.8,72.1
		L165.8,72.1l-0.1,0.1l0.1,0l0.1,0L165.8,72.1L165.8,72.1L165.8,72.1z M171.7,72.1L171.7,72.1L171.7,72.1l0.1,0.1l0,0l0,0
		L171.7,72.1L171.7,72.1L171.7,72.1z M167.1,72.1L167.1,72.1L167.1,72.1L167.1,72.1L167.1,72.1l-0.1,0l0,0L167.1,72.1l0,0.1l0,0l0,0
		l0,0L167.1,72.1L167.1,72.1z M171.8,72.1L171.8,72.1L171.8,72.1L171.8,72.1L171.8,72.1z M170.5,72.2L170.5,72.2L170.5,72.2
		L170.5,72.2l0,0.1l0,0l0,0l0,0l0,0L170.5,72.2L170.5,72.2z M166.2,72.3L166.2,72.3L166.2,72.3l0-0.1l0,0l0,0l0,0l0,0l0,0l0,0.1
		L166.2,72.3L166.2,72.3z M171.1,72.3L171.1,72.3L171.1,72.3L171.1,72.3L171.1,72.3z M169.4,72.3L169.4,72.3L169.4,72.3L169.4,72.3
		L169.4,72.3z M171.3,72.3L171.3,72.3L171.3,72.3L171.3,72.3L171.3,72.3z M166.9,72.4L166.9,72.4L166.9,72.4L166.9,72.4L166.9,72.4
		L166.9,72.4L166.9,72.4L166.9,72.4l0,0.1l0,0l0,0L166.9,72.4L166.9,72.4z M170.4,72.5L170.4,72.5L170.4,72.5l-0.1-0.2l0,0l0,0
		l0,0.1L170.4,72.5L170.4,72.5L170.4,72.5L170.4,72.5L170.4,72.5L170.4,72.5L170.4,72.5z M166.2,72.6L166.2,72.6L166.2,72.6
		L166.2,72.6L166.2,72.6z M171.3,72.8L171.3,72.8L171.3,72.8L171.3,72.8L171.3,72.8L171.3,72.8L171.3,72.8L171.3,72.8L171.3,72.8z
		 M172,72.8L172,72.8L172,72.8L172,72.8L172,72.8L172,72.8z M170.4,72.8L170.4,72.8L170.4,72.8L170.4,72.8L170.4,72.8z M169.3,73.6
		L169.3,73.6L169.3,73.6L169.3,73.6L169.3,73.6L169.3,73.6L169.3,73.6L169.3,73.6L169.3,73.6L169.3,73.6z M164.6,71L164.6,71
		L164.6,71L164.6,71L164.6,71l-0.1-0.1L164.6,71L164.6,71L164.6,71L164.6,71L164.6,71z M164.8,71.2L164.8,71.2L164.8,71.2
		L164.8,71.2L164.8,71.2z M165.2,71.6L165.2,71.6L165.2,71.6L165.2,71.6L165.2,71.6z M165.1,71.6L165.1,71.6L165.1,71.6L165.1,71.6
		L165.1,71.6L165.1,71.6L165.1,71.6L165.1,71.6z M164.7,72.1L164.7,72.1L164.7,72.1L164.7,72.1l0.1,0.1L164.7,72.1L164.7,72.1
		L164.7,72.1L164.7,72.1L164.7,72.1z M164.6,72.3L164.6,72.3L164.6,72.3L164.6,72.3L164.6,72.3L164.6,72.3z M164.9,72.5L164.9,72.5
		l0,0.1l0,0L164.9,72.5z M164.4,72.9L164.4,72.9L164.4,72.9l0-0.1l0,0L164.4,72.9L164.4,72.9L164.4,72.9L164.4,72.9z M164.6,73.5
		L164.6,73.5L164.6,73.5L164.6,73.5L164.6,73.5L164.6,73.5L164.6,73.5z M162.9,73.9L162.9,73.9L162.9,73.9L162.9,73.9L162.9,73.9
		L162.9,73.9l-0.1-0.1l0,0l0,0l0,0l0,0l0,0l0,0l0,0L162.9,73.9L162.9,73.9L162.9,73.9L162.9,73.9L162.9,73.9L162.9,73.9z M163.1,74
		L163.1,74L163.1,74l0.1,0.1L163.1,74L163.1,74z M165.5,74.2L165.5,74.2l0.1,0.1L165.5,74.2L165.5,74.2L165.5,74.2z M165.4,74.3
		L165.4,74.3L165.4,74.3L165.4,74.3L165.4,74.3L165.4,74.3l0.1,0L165.4,74.3L165.4,74.3z M162.1,75.1L162.1,75.1L162.1,75.1
		L162.1,75.1l0-0.1l0,0l0,0L162.1,75.1L162.1,75.1z M162.5,75.5L162.5,75.5L162.5,75.5l-0.1,0l0,0l0,0l0,0H162.5L162.5,75.5
		L162.5,75.5L162.5,75.5L162.5,75.5L162.5,75.5L162.5,75.5L162.5,75.5z M164.4,75.7L164.4,75.7L164.4,75.7L164.4,75.7L164.4,75.7
		L164.4,75.7L164.4,75.7L164.4,75.7z M162.6,76.2L162.6,76.2L162.6,76.2L162.6,76.2L162.6,76.2L162.6,76.2L162.6,76.2z M162.3,76.9
		L162.3,76.9l0,0.1l0.1,0.1l0,0L162.3,76.9L162.3,76.9z M162.5,77L162.5,77L162.5,77l0.1,0.1l0-0.1L162.5,77L162.5,77z M161.4,77.4
		L161.4,77.4L161.4,77.4l-0.1,0.1l0,0l0,0.1l0.1,0l0,0l0,0l0-0.1L161.4,77.4z M161.7,77.5L161.7,77.5L161.7,77.5L161.7,77.5
		l-0.1,0.1l0,0l0.1,0L161.7,77.5L161.7,77.5L161.7,77.5z M161,78L161,78L161,78L161,78L161,78L161,78l0.2,0l0-0.1l-0.1-0.1L161,78
		L161,78L161,78L161,78z M160.7,82.8L160.7,82.8L160.7,82.8L160.7,82.8L160.7,82.8L160.7,82.8L160.7,82.8z M159.1,86.8L159.1,86.8
		L159.1,86.8L159.1,86.8L159.1,86.8z M151.9,126.8L151.9,126.8L151.9,126.8L151.9,126.8z M150.9,127L150.9,127L150.9,127L150.9,127
		L150.9,127z M150.9,127.2L150.9,127.2L150.9,127.2L150.9,127.2L150.9,127.2L150.9,127.2l0,0.1L150.9,127.2L150.9,127.2L150.9,127.2
		L150.9,127.2z M150.4,127.3L150.4,127.3L150.4,127.3L150.4,127.3L150.4,127.3L150.4,127.3L150.4,127.3L150.4,127.3L150.4,127.3
		L150.4,127.3L150.4,127.3L150.4,127.3L150.4,127.3z M151.3,127.6L151.3,127.6L151.3,127.6L151.3,127.6L151.3,127.6z M150.9,128.5
		L150.9,128.5L150.9,128.5L150.9,128.5L150.9,128.5L150.9,128.5L150.9,128.5L150.9,128.5z M151.2,129.1L151.2,129.1L151.2,129.1
		l0-0.1L151.2,129.1L151.2,129.1L151.2,129.1L151.2,129.1L151.2,129.1L151.2,129.1z M152.4,128.9L152.4,128.9L152.4,128.9
		L152.4,128.9L152.4,128.9L152.4,128.9z M148.5,130.7L148.5,130.7L148.5,130.7L148.5,130.7l0.1,0l0-0.1L148.5,130.7L148.5,130.7z
		 M147.8,130.8L147.8,130.8L147.8,130.8L147.8,130.8L147.8,130.8L147.8,130.8z M148.5,131.5L148.5,131.5l0,0.1L148.5,131.5
		L148.5,131.5L148.5,131.5L148.5,131.5z M149.2,131.8L149.2,131.8L149.2,131.8L149.2,131.8L149.2,131.8l0-0.1L149.2,131.8
		L149.2,131.8L149.2,131.8L149.2,131.8L149.2,131.8L149.2,131.8L149.2,131.8L149.2,131.8L149.2,131.8z M148.6,132L148.6,132
		L148.6,132L148.6,132L148.6,132l0.1-0.1l0-0.1l-0.1,0l0,0l0,0L148.6,132L148.6,132L148.6,132L148.6,132z M146.7,132.3L146.7,132.3
		L146.7,132.3L146.7,132.3l0.1,0L146.7,132.3l0-0.1l0,0l0,0l0,0l-0.1,0L146.7,132.3L146.7,132.3L146.7,132.3z M144.9,133.8
		L144.9,133.8L144.9,133.8L144.9,133.8L144.9,133.8L144.9,133.8l0,0.1l0,0l0,0L144.9,133.8L144.9,133.8L144.9,133.8z M145.5,134.4
		L145.5,134.4l0,0.1l0,0.1l0,0l0,0l0,0L145.5,134.4L145.5,134.4L145.5,134.4z M164.9,70.9L164.9,70.9L164.9,70.9L164.9,70.9l0-0.1
		l0-0.1l0,0L164.9,70.9L164.9,70.9L164.9,70.9L164.9,70.9L164.9,70.9z M165.4,71.1L165.4,71.1L165.4,71.1L165.4,71.1l0-0.1l0,0l0,0
		l0,0l0,0L165.4,71.1L165.4,71.1L165.4,71.1L165.4,71.1L165.4,71.1z M168.1,71.3L168.1,71.3L168.1,71.3L168.1,71.3L168.1,71.3
		l0.1-0.1l0,0l-0.1,0L168.1,71.3L168.1,71.3L168.1,71.3z M168.2,71.6L168.2,71.6l-0.1-0.2l0,0l0,0l-0.1,0l-0.1,0l0,0.1l0,0l0,0l0,0
		l0,0l0,0l0,0l0,0l0,0l0,0l0,0l0,0l0,0l0,0l0,0l0,0l0,0l0,0l0,0l0,0l0,0l0-0.1l0,0l0-0.1l0,0L168.2,71.6L168.2,71.6L168.2,71.6
		L168.2,71.6L168.2,71.6l0,0.1l0,0L168.2,71.6L168.2,71.6L168.2,71.6z M169.2,71.6L169.2,71.6L169.2,71.6l-0.1-0.1l0,0l0,0l0,0v0
		l0,0l0,0.1l0,0L169.2,71.6L169.2,71.6l-0.1,0.1l0,0l0,0l0,0l0,0L169.2,71.6L169.2,71.6L169.2,71.6z M164.5,71.8L164.5,71.8
		L164.5,71.8L164.5,71.8l0.1-0.1l0,0l0,0l0,0l0,0l0,0L164.5,71.8L164.5,71.8L164.5,71.8z M171.2,71.9L171.2,71.9L171.2,71.9l-0.2,0
		l0,0l0,0l0,0l0,0l0,0l0,0l0,0l0.1,0L171.2,71.9L171.2,71.9L171.2,71.9L171.2,71.9z M165.3,72.3L165.3,72.3L165.3,72.3L165.3,72.3
		l0.2,0l0,0l0,0l0-0.1l0-0.1l0-0.1l0,0l0,0l0,0l0,0l0,0l0,0l0,0.1L165.3,72.3L165.3,72.3L165.3,72.3z M167.4,72.1L167.4,72.1
		L167.4,72.1L167.4,72.1L167.4,72.1L167.4,72.1l-0.1,0l0,0l0,0l0,0l0,0l0.1,0l0,0l0,0L167.4,72.1L167.4,72.1L167.4,72.1z
		 M165.4,72.4L165.4,72.4L165.4,72.4l0,0.1l0,0l0,0l0.1,0l0-0.1L165.4,72.4L165.4,72.4z M164.7,72.8L164.7,72.8L164.7,72.8
		L164.7,72.8L164.7,72.8L164.7,72.8L164.7,72.8L164.7,72.8l0-0.1l0,0L164.7,72.8L164.7,72.8L164.7,72.8z M170.2,73l0-0.1l0-0.1h0
		l0,0.1L170.2,73L170.2,73L170.2,73L170.2,73L170.2,73l-0.1,0.1l0,0l0,0l0,0l0,0l0,0h0l0,0l0,0l0,0l0,0l0,0l0,0l0,0v-0.1l0-0.1
		L170.2,73z M166.1,73.4L166.1,73.4L166.1,73.4l0.1,0L166.1,73.4l0.1-0.2l0,0l0,0l0,0l0,0L166.1,73.4L166.1,73.4z M165.7,73.4
		L165.7,73.4l-0.1-0.1l0,0.1l0,0.1l0,0.1l0,0l0.1,0L165.7,73.4L165.7,73.4L165.7,73.4z M166.1,73.4L166.1,73.4L166.1,73.4l-0.2-0.1
		l0,0l0,0.1L166.1,73.4L166.1,73.4L166.1,73.4L166.1,73.4l0,0.1l0,0l0,0l0,0l0,0l0,0l0-0.1l0,0l0,0l0,0l0-0.1L166.1,73.4L166.1,73.4
		z M164.4,73.8L164.4,73.8l0-0.2l0,0l0,0l-0.1-0.1l0,0l0.1,0.1l0.1,0.1l0,0.1L164.4,73.8L164.4,73.8L164.4,73.8z M165.8,73.6
		L165.8,73.6l0.1,0.1l0-0.1L165.8,73.6L165.8,73.6z M163.3,73.9L163.3,73.9L163.3,73.9L163.3,73.9l0-0.1l-0.1,0l-0.1,0l0,0v0.1l0,0
		l0,0l0,0.1L163.3,73.9L163.3,73.9L163.3,73.9L163.3,73.9L163.3,73.9L163.3,73.9z M165.2,74L165.2,74L165.2,74l-0.1-0.1l0,0l0,0l0,0
		l0,0h0l0,0l0,0.1l0,0.1l0,0l0,0l0,0l0,0l0,0l0,0l0,0l0.1,0l0.1,0l0,0L165.2,74L165.2,74z M165.8,73.9L165.8,73.9l-0.1-0.1l-0.1,0
		l0,0l0,0.1L165.8,73.9L165.8,73.9L165.8,73.9z M165.9,74L165.9,74L165.9,74L165.9,74l-0.1,0.1l0,0l0,0l0,0l0,0l0,0l0,0l0,0l0,0l0,0
		l0,0L165.9,74L165.9,74L165.9,74L165.9,74z M163.3,74.5L163.3,74.5L163.3,74.5l0,0.1l0,0l0,0.1l0,0l0-0.1l0,0l0,0L163.3,74.5
		L163.3,74.5L163.3,74.5z M163.1,74.8L163.1,74.8L163.1,74.8l-0.1,0.1l0,0.1l0,0l0,0l0,0L163.1,74.8L163.1,74.8L163.1,74.8
		L163.1,74.8z M165,74.8L165,74.8l-0.1,0l0,0L165,74.8l-0.1,0.1l0,0l0,0l0,0l0,0l0,0l0,0L165,74.8L165,74.8L165,74.8z M161.8,75.3
		L161.8,75.3L161.8,75.3l0.1,0.1l0.1,0l0.1,0l0-0.1l0,0l0-0.1l0,0l0-0.1l-0.1-0.1l-0.1-0.1l0,0l0,0l-0.1,0l0,0l0,0l0,0l0,0l0,0
		l-0.1,0l0,0l0,0l0,0l0,0l0,0l0,0l0,0l0,0l0.1,0l0,0l0-0.1l0,0l0,0l0,0l0,0l0,0L161.8,75.3L161.8,75.3L161.8,75.3z M162.9,75
		L162.9,75L162.9,75l-0.1-0.1l-0.1,0l0,0.1l0,0.1l0.1,0.1l0.1,0l0,0L162.9,75L162.9,75z M164.6,75.1L164.6,75.1L164.6,75.1l-0.1-0.1
		l0-0.1l0,0l0,0.1l0.1,0.1L164.6,75.1L164.6,75.1l0,0.1l0,0.1l0,0l0,0l0,0L164.6,75.1L164.6,75.1L164.6,75.1z M164.7,75.1
		L164.7,75.1L164.7,75.1l0.1,0.1L164.7,75.1L164.7,75.1L164.7,75.1L164.7,75.1z M164.8,75.3L164.8,75.3L164.8,75.3L164.8,75.3
		l-0.1,0.1l0,0L164.8,75.3L164.8,75.3L164.8,75.3L164.8,75.3z M161.9,75.6L161.9,75.6L161.9,75.6l-0.1,0l0,0.1l0.1,0.1l0.1,0.1
		l0.1,0l0-0.1L161.9,75.6L161.9,75.6z M162.2,76.3L162.2,76.3L162.2,76.3l-0.1-0.1l0,0l0,0l0,0l-0.1,0l0,0l-0.1,0l0,0l0,0.1l0.1,0.1
		l0.1,0l0,0l0,0l0,0L162.2,76.3l0,0.1l0,0.1l0,0l0-0.1L162.2,76.3L162.2,76.3z M162.2,76.9L162.2,76.9L162.2,76.9l0-0.1l0,0l0,0l0,0
		l0,0l0,0l0,0l0,0l0,0l0,0l0,0l0,0l0,0l0,0.1l0,0.1l0.1,0.1l0.1,0.1L162.2,76.9L162.2,76.9l0,0.1l0,0l0,0L162.2,76.9L162.2,76.9z
		 M159.8,79.9L159.8,79.9l-0.1-0.1l0,0l0,0.1l0,0.1l0,0.1l0,0.1l0,0l0,0l0,0l0-0.1L159.8,79.9L159.8,79.9z M159.2,82l0.2,0.1l0,0
		l0,0l0,0l0-0.1l0-0.1l0,0l0,0l0,0.1L159.2,82L159.2,82l0-0.1l0,0l0-0.1l-0.1-0.1l-0.1,0l0,0l0,0.1l0,0L159.2,82L159.2,82L159.2,82z
		 M157.7,92.3L157.7,92.3l0,0.1l0,0L157.7,92.3L157.7,92.3l-0.1,0.1l0,0.1l0,0l0.1,0l0,0l0,0l0,0L157.7,92.3L157.7,92.3L157.7,92.3
		L157.7,92.3L157.7,92.3z M148.9,96.8L148.9,96.8l0-0.1l0-0.1l0,0l0,0l0,0.1L148.9,96.8L148.9,96.8L148.9,96.8z M149.5,96.7l-0.1,0
		l0,0l0,0l0,0L149.5,96.7L149.5,96.7L149.5,96.7z M149.3,96.8L149.3,96.8L149.3,96.8L149.3,96.8L149.3,96.8z M149.1,97.2L149.1,97.2
		L149.1,97.2l0,0.1l0,0.1l0,0v-0.1L149.1,97.2L149.1,97.2L149.1,97.2z M148.7,97.5L148.7,97.5L148.7,97.5l0-0.1l0-0.1l0,0l0,0.1
		L148.7,97.5L148.7,97.5L148.7,97.5z M148.1,97.8L148.1,97.8L148.1,97.8L148.1,97.8l0.1,0l0.1-0.1l0,0l0-0.1l0-0.1l0,0l0,0l-0.1,0
		l0,0l0-0.1l-0.1,0.1l0,0.1l0,0.1L148.1,97.8L148.1,97.8L148.1,97.8L148.1,97.8z M148.8,98.1L148.8,98.1l0-0.2l0-0.1l0,0l-0.1,0.1
		l0,0l0,0.2l0,0L148.8,98.1L148.8,98.1z M145.6,98.9L145.6,98.9L145.6,98.9l0,0.1l0,0L145.6,98.9L145.6,98.9L145.6,98.9L145.6,98.9z
		 M147.3,99.5L147.3,99.5l0-0.1L147.3,99.5L147.3,99.5z M146.2,100.2L146.2,100.2l0-0.1l-0.1,0l-0.2,0l0,0l0,0.1l0.1,0.2l0,0
		L146.2,100.2L146.2,100.2L146.2,100.2z M147,100l-0.1,0.1l0,0l0,0.1l0,0L147,100L147,100L147,100L147,100L147,100z M146.4,101
		l-0.2,0l0,0l0,0l0,0l0.3,0.2l0-0.1l0-0.1L146.4,101L146.4,101L146.4,101L146.4,101z M145.6,102.5L145.6,102.5L145.6,102.5
		L145.6,102.5z M144.8,105L144.8,105l-0.1,0.2l0,0.1l0,0.1l0.1,0l0,0l0,0l0,0l0.1-0.1l0,0l0,0l0,0L144.8,105L144.8,105z
		 M144.1,107.5L144.1,107.5l-0.1,0l-0.1,0l0,0l0,0.1l0,0L144.1,107.5L144.1,107.5L144.1,107.5z M143.9,107.5L143.9,107.5
		L143.9,107.5L143.9,107.5L143.9,107.5L143.9,107.5L143.9,107.5L143.9,107.5z M144.1,109.6L144.1,109.6L144.1,109.6L144.1,109.6
		L144.1,109.6L144.1,109.6l0-0.1l-0.1,0L144.1,109.6L144.1,109.6L144.1,109.6z M143.1,110.9L143.1,110.9l-0.1-0.1l0,0l0,0l0,0l0,0
		l0,0.1l0,0h0l0.1,0L143.1,110.9L143.1,110.9L143.1,110.9L143.1,110.9z M143.7,111l-0.2,0l-0.1,0l0,0.1l0,0.1l0,0.1l0,0l0,0l0,0l0,0
		l0,0l0,0l0,0l0,0l0.2,0l0,0l0-0.1L143.7,111L143.7,111z M143.2,114.6L143.2,114.6L143.2,114.6L143.2,114.6l0.1-0.1l0,0l0,0l0,0l0,0
		l0,0l0,0L143.2,114.6L143.2,114.6L143.2,114.6z M142.9,115.5L142.9,115.5L142.9,115.5l0-0.1l0,0l0,0l0,0l0,0l0,0.1l0,0.1l0,0l0,0
		L142.9,115.5L142.9,115.5L142.9,115.5L142.9,115.5L142.9,115.5L142.9,115.5z M143.1,117.6L143.1,117.6L143.1,117.6L143.1,117.6
		l0.1,0.1h0l0.1,0l0,0l0,0l-0.1,0l0,0l0,0L143.1,117.6L143.1,117.6L143.1,117.6L143.1,117.6z M147.8,120L147.8,120L147.8,120l0-0.1
		l0,0l0,0l0,0l-0.1,0l-0.1,0l0,0l0,0L147.8,120L147.8,120z M148.8,122.1L148.8,122.1l-0.1-0.1l0,0l0,0l0,0.1l0,0l0.1,0L148.8,122.1
		L148.8,122.1L148.8,122.1L148.8,122.1z M148.4,122.6L148.4,122.6l-0.2-0.1l-0.2,0l0.1,0.2l0.2,0.1l0.1,0l0,0L148.4,122.6
		L148.4,122.6L148.4,122.6L148.4,122.6z M148.5,122.5L148.5,122.5L148.5,122.5L148.5,122.5L148.5,122.5L148.5,122.5L148.5,122.5
		l0,0.1l0,0l0,0l0,0l0,0l0,0l0,0l0.1,0l0-0.1l0,0L148.5,122.5L148.5,122.5z M150.8,125.5L150.8,125.5L150.8,125.5l-0.1,0.1l-0.1,0.1
		l0,0l0,0l0,0l0,0l0,0l0.1-0.1l0,0L150.8,125.5L150.8,125.5L150.8,125.5z M150.6,126.1L150.6,126.1L150.6,126.1L150.6,126.1
		L150.6,126.1l0.1,0l0,0l0,0L150.6,126.1L150.6,126.1z M150.9,126.2L150.9,126.2L150.9,126.2L150.9,126.2L150.9,126.2l0.1,0.1
		L150.9,126.2l0.1,0l0,0l0,0l0,0L150.9,126.2L150.9,126.2L150.9,126.2L150.9,126.2z M150.9,126.4l-0.1,0l0,0l0,0v0l0,0.1l0.1,0
		L150.9,126.4L150.9,126.4L150.9,126.4L150.9,126.4z M149.8,127L149.8,127l-0.2,0l0,0.1l0,0l0,0l0.1,0l0.1,0h0l0,0L149.8,127
		L149.8,127L149.8,127L149.8,127L149.8,127L149.8,127L149.8,127L149.8,127z M151.1,127.1L151.1,127.1L151.1,127.1L151.1,127.1
		L151.1,127.1L151.1,127.1L151.1,127.1L151.1,127.1L151.1,127.1L151.1,127.1L151.1,127.1L151.1,127.1z M150.8,127.8L150.8,127.8
		L150.8,127.8l0.1,0l0,0l0,0l0,0l0,0l0,0l0,0L150.8,127.8L150.8,127.8z M150.3,127.9L150.3,127.9l0.1,0.1l0,0l0.1-0.1l0,0l0,0l0,0
		l0,0L150.3,127.9L150.3,127.9z M149.1,128.7L149.1,128.7L149.1,128.7l-0.1,0l0,0L149.1,128.7l0.4,0l0,0l0,0l0,0l-0.1,0l0,0l0,0l0,0
		l0,0l0,0L149.1,128.7L149.1,128.7z M149.1,128.8L149.1,128.8L149.1,128.8l-0.1,0l0,0l0,0l0,0l-0.1,0l-0.1,0.1l0,0.1l0,0l0.1,0l0,0
		l0,0l0,0l0.1,0l0,0L149.1,128.8l-0.1,0.1l0,0L149.1,128.8L149.1,128.8z M147.4,129.2L147.4,129.2l0.2-0.1l0-0.1l-0.1-0.1l-0.1,0
		l0,0l0,0l0,0L147.4,129.2L147.4,129.2L147.4,129.2L147.4,129.2z M150.3,129.2L150.3,129.2L150.3,129.2L150.3,129.2L150.3,129.2z
		 M147.7,129.3L147.7,129.3L147.7,129.3L147.7,129.3L147.7,129.3l-0.1-0.1l0,0l0,0.2L147.7,129.3l0.1,0.1l0,0L147.7,129.3
		L147.7,129.3L147.7,129.3z M150.1,129.3L150.1,129.3L150.1,129.3L150.1,129.3L150.1,129.3l0-0.1l0,0l0,0l0,0l0,0l0,0.1L150.1,129.3
		L150.1,129.3L150.1,129.3z M149.9,129.8L149.9,129.8L149.9,129.8L149.9,129.8L149.9,129.8L149.9,129.8L149.9,129.8L149.9,129.8
		l-0.1-0.1l0,0.1l0,0.1l0,0.1l0,0l0,0l0,0l0.1,0L149.9,129.8L149.9,129.8L149.9,129.8L149.9,129.8L149.9,129.8z M149.8,130.1
		L149.8,130.1L149.8,130.1L149.8,130.1L149.8,130.1L149.8,130.1L149.8,130.1L149.8,130.1z M149.9,130.4L149.9,130.4L149.9,130.4
		L149.9,130.4l0-0.1l0,0l0,0l0,0l-0.1,0l0,0L149.9,130.4L149.9,130.4z M148.7,131.2L148.7,131.2L148.7,131.2l0.1-0.1l0,0l0,0l0,0
		l0,0L148.7,131.2z M148.4,132.1L148.4,132.1L148.4,132.1L148.4,132.1L148.4,132.1L148.4,132.1L148.4,132.1l-0.1,0l0,0l0,0.2l0.1,0
		l0,0l0-0.1l0-0.1L148.4,132.1L148.4,132.1z M146.1,132.9l-0.1,0.2l0,0.1l0,0l0,0l0,0l0,0l0,0l0-0.1l0,0l0,0l0,0L146.1,132.9
		L146.1,132.9L146.1,132.9L146.1,132.9L146.1,132.9L146.1,132.9L146.1,132.9L146.1,132.9z M147,133.1L147,133.1L147,133.1L147,133.1
		L147,133.1l-0.2,0l0,0l0,0v0l0,0.1l0,0l0,0l0,0.1l0,0l0,0l0,0l0,0L147,133.1L147,133.1z M117,133.6L117,133.6L117,133.6L117,133.6
		L117,133.6l0-0.1l0,0l-0.1,0l0,0l0,0l0,0l0-0.1l0,0l0,0l0,0l0,0l0,0l0,0l0,0l0,0l0,0l0,0.1l0,0l0,0l0,0l0,0l0,0l0,0.1l0,0l0,0l0,0
		l0,0l0,0l0,0l0,0l0,0l0,0l0.1,0l0,0l0,0l0,0l0,0l0,0l0,0L117,133.6L117,133.6L117,133.6L117,133.6z M145.5,134l0-0.1l0-0.1l0,0
		l-0.1,0l0,0l0-0.1l0.1-0.1l0-0.1l0,0l0,0l0,0l0,0.1l0,0l0,0l0,0.1l0,0.1l0,0.1l0,0l0,0l0,0l0,0l0,0.1l0,0.1l0,0.1l-0.1,0l0,0l0,0
		l0.2,0l0,0l0,0l0-0.1l0,0l0,0l0,0L145.5,134L145.5,134L145.5,134z M146.5,133.8L146.5,133.8L146.5,133.8L146.5,133.8l0.1-0.1l0,0
		l0-0.1l0-0.1l0,0l0,0l-0.1,0.1L146.5,133.8L146.5,133.8L146.5,133.8L146.5,133.8L146.5,133.8L146.5,133.8z M144.7,134.1l-0.3-0.2
		l0,0l0,0l0,0.1l0.2,0.1L144.7,134.1l0.1,0.2l0,0l0-0.1L144.7,134.1z M143.9,134.5L143.9,134.5L143.9,134.5L143.9,134.5l0,0.1
		L143.9,134.5L143.9,134.5l-0.1,0l0,0l0,0l0,0.1l0.1,0l0,0l0,0l0,0l0,0l0,0l0,0l0,0.1l0,0l0,0l0,0l0.1-0.2l0,0l0.1,0L143.9,134.5
		L143.9,134.5z M143.8,134.8L143.8,134.8L143.8,134.8l0,0.2l0,0l0.1-0.1L143.8,134.8L143.8,134.8z M141.7,136.6L141.7,136.6
		L141.7,136.6l-0.1-0.1l-0.1,0h0l0,0l0,0l0.1,0.1L141.7,136.6L141.7,136.6L141.7,136.6L141.7,136.6L141.7,136.6z M141.8,136.8
		L141.8,136.8L141.8,136.8L141.8,136.8L141.8,136.8l0.1-0.1l0,0l-0.1,0l0,0L141.8,136.8L141.8,136.8L141.8,136.8z M141.1,139.7
		L141.1,139.7L141.1,139.7L141.1,139.7l-0.1,0l0,0.1l0.1,0.1l0.1,0l0.1,0L141.1,139.7L141.1,139.7L141.1,139.7l0,0.1L141.1,139.7
		L141.1,139.7L141.1,139.7L141.1,139.7L141.1,139.7L141.1,139.7z M119.3,141.6L119.3,141.6L119.3,141.6L119.3,141.6L119.3,141.6
		l0.1-0.1l0,0l0,0l0,0l-0.1,0l-0.1,0l-0.1,0.1l0,0l0,0l0.1,0.1l0.1,0l0,0l0,0l-0.1,0l0,0l0,0l0,0l0,0l0,0v0l0,0l0,0l0.1,0l0,0l0,0
		l0,0l0,0l0,0l0,0l0,0L119.3,141.6L119.3,141.6L119.3,141.6L119.3,141.6z M140.6,141.9L140.6,141.9L140.6,141.9L140.6,141.9
		L140.6,141.9l0.1,0.1l0,0.1l0,0l0,0l0,0l0,0l0.1,0l0,0l0,0l0,0l0,0l0,0l0,0l0,0l0,0v0l0,0v0l0,0l-0.1,0l-0.1-0.1l-0.1,0l0,0
		L140.6,141.9L140.6,141.9L140.6,141.9z M140.5,142.1L140.5,142.1L140.5,142.1l0.1,0.1l0,0l0.1,0.1l0,0l0,0l0,0l0,0l0,0l0,0l0,0l0,0
		L140.5,142.1L140.5,142.1z M119.5,143L119.5,143L119.5,143L119.5,143L119.5,143L119.5,143l0-0.1l0,0l0,0l0-0.1l-0.1-0.1l0,0.1l0,0
		l0,0l0,0l0,0l0,0v0l-0.1,0l0,0l0,0l0,0l0,0l0,0l0,0l0,0.1l0,0L119.5,143L119.5,143L119.5,143L119.5,143L119.5,143L119.5,143z
		 M140.6,143.6L140.6,143.6l0,0.1l0,0l-0.1,0l0,0l0,0l0,0l0,0l0,0.1l0,0l0,0l0,0l0,0l0,0l0,0l0,0l0,0l0,0l0,0l0,0l0.1-0.2l0-0.1
		l0-0.1L140.6,143.6L140.6,143.6z M140,147L140,147L140,147L140,147L140,147l-0.1,0.1l0,0l0,0l0,0l0.1-0.1L140,147L140,147L140,147
		L140,147z M136.7,155L136.7,155L136.7,155L136.7,155l-0.1,0l0,0l0,0l0,0l0,0l0.1,0.1l0,0l0,0l0,0l0,0L136.7,155L136.7,155
		L136.7,155L136.7,155z M136.2,155L136.2,155L136.2,155L136.2,155L136.2,155L136.2,155l-0.2,0.1l0,0l0,0l0,0l0.1,0l0,0l0,0
		L136.2,155L136.2,155L136.2,155L136.2,155z M135.7,155L135.7,155L135.7,155l-0.1,0.1l0,0l0,0l0,0l0.1,0l0,0l0-0.1l0-0.1L135.7,155z
		 M135.5,155L135.5,155l-0.1,0l0,0.1l0,0l0,0l0,0l0,0l0.1,0l0,0l0,0l0,0l0-0.1L135.5,155L135.5,155L135.5,155L135.5,155z
		 M123.9,156.6L123.9,156.6l-0.1,0l0,0l0.1,0.2l0,0l0-0.1L123.9,156.6L123.9,156.6z M151.2,137.8l0.2,0.1l0.2-0.1l0.2-0.1l-0.1-0.1
		l-0.2-0.1l-0.1-0.1H151L151.2,137.8z M147.9,130.5l0.2,0.1l0.2,0.2l0.1,0l0.1-0.2l-0.2,0l-0.1-0.1l0-0.2l0.1,0.1l0.1,0l0.2,0
		l-0.4-0.2l-0.3-0.1l-0.5,0l0.2,0.1l0.1,0.1l0,0L147.9,130.5L147.9,130.5z M158.3,90.8l-0.1-0.2l-0.2,0l-0.1,0.3l0.1,0l0,0l0,0
		l0,0.1l0,0.1L158.3,90.8z M147.7,121.1l0.1,0.2l0.2,0.1l0.2,0.3l0.2,0.1l0,0l0-0.1l0,0l0,0l0,0l0,0l-0.1-0.1l0-0.1l0-0.1l-0.1,0.1
		l-0.1,0l0-0.1l0-0.1l-0.2-0.4l0-0.1l0.1,0l0.1,0.1l0.1,0l0-0.1l-0.1-0.1l-0.1-0.1l0-0.1l0,0l0,0v0l0,0l0-0.1l0,0l-0.1,0l0,0l0,0.1
		l0.1,0.2l0,0.1l0,0.4L147.7,121.1z M166.2,71.5l0-0.2l-0.2-0.2l0,0l0,0.2l0,0.1l0,0.1l0,0.1l0,0.1l0,0.1l0.1,0.1l0.2,0l0-0.1
		L166.2,71.5z M170.3,71.7L170.3,71.7l0-0.1l0,0l0,0l0-0.1l0-0.1l0-0.1l0,0l0,0l0,0.1l0,0l0,0l0,0l0,0.1l0,0l0,0l-0.1,0l0-0.1l0,0
		l0,0.1l0,0l0,0l0-0.1l0,0.1l0,0.2l0.1,0.1l0.2,0.1L170.3,71.7z M166.9,72L166.9,72l0-0.1l0,0l0,0l0-0.1l0-0.1l-0.1-0.1l-0.1-0.1
		l0,0l0.1,0l0-0.1l-0.1-0.1l-0.1,0l-0.1,0.1l0,0.2l0.1,0.2l0.1,0.2l0.1,0.1l0.1,0L166.9,72z M165.2,72.9L165.2,72.9l0.1,0.1l0.1-0.1
		l0-0.1l-0.1,0L165.2,72.9L165.2,72.9z M165.1,73.1L165.1,73.1l0,0.1l0.1,0.1l0,0l0,0l0,0l0,0l0,0l0,0l0-0.1l0-0.1l0,0l0.1,0l0-0.1
		l-0.1,0l-0.2,0.1l-0.1,0L165.1,73.1L165.1,73.1L165.1,73.1z M164,74.1L164,74.1l-0.1-0.1l0,0l0,0l0-0.1l0,0l0.1,0l0.1,0l0.1,0.1
		l0,0.1l0,0l0.1,0l0-0.1l-0.1-0.1l0-0.1l0,0l0,0l0,0l-0.3-0.2l-0.1,0l-0.1,0l0,0l0,0.1l0.1,0.2L164,74.1L164,74.1L164,74.1L164,74.1
		z M165.4,73.8L165.4,73.8l0-0.1l-0.1,0l0,0l0,0l-0.1-0.1l0,0.1l0.1,0.1l0.1,0L165.4,73.8L165.4,73.8z M163.8,74.5L163.8,74.5
		l-0.1-0.1l0-0.1l0,0l0-0.1l-0.2-0.1h-0.1l0,0.1v0.1l0,0l0,0.1l0,0.1l0,0l0.2,0l0,0l0,0l0.1,0l0-0.1L163.8,74.5L163.8,74.5z
		 M164.5,74.6L164.5,74.6l0.1-0.2l0-0.1l-0.1,0l-0.1,0l-0.1,0.1l-0.1,0.1l0,0l0-0.1l0,0l0,0l0,0.1l0,0.1l0,0L164.5,74.6L164.5,74.6z
		 M158.3,90.9L158.3,90.9L158.3,90.9l-0.1,0.1l0,0.1l-0.1,0.5l0,0.1l0.1-0.1l0,0l0,0l0.1-0.1l0.1-0.1l0-0.1l0-0.1l0-0.1l0-0.1l0-0.1
		L158.3,90.9l0.1,0L158.3,90.9L158.3,90.9l0.1-0.1l0,0L158.3,90.9L158.3,90.9z M158.1,91.7l-0.2,0.2l0,0.1l0.1,0l0.1-0.1l0-0.1V91.7
		L158.1,91.7L158.1,91.7z M146.6,100.7L146.6,100.7L146.6,100.7L146.6,100.7l0.1-0.2l0-0.1l0-0.1l0,0l-0.1,0l-0.1,0.1l0,0l0-0.1
		l-0.1,0l-0.1,0l-0.1,0.1l0,0.1l0,0.1l0,0.2l0.1,0.2l0.2,0l0.2-0.1l0-0.1L146.6,100.7L146.6,100.7L146.6,100.7L146.6,100.7z
		 M149.1,122.7L149.1,122.7L149.1,122.7l0,0.1l0,0.1l0,0.1l0,0l0.1,0l0.1,0l0.1,0l0.1-0.1l0-0.1l0-0.1l0,0l0,0l0,0l0,0l0,0l0-0.1
		l0,0l0,0l0,0l0-0.1l0,0l-0.1,0l-0.1,0l0,0L149.1,122.7L149.1,122.7L149.1,122.7z M150.2,125.8l0-0.1l0-0.1l0-0.1l0,0l0,0l0,0l0,0.1
		l-0.2,0.3l0,0.1l0,0.1l0.1,0l0,0l0,0l0,0l0,0l0.1,0l0.1,0l0.1,0l0,0l0,0l0,0l0,0l0,0l0,0l0,0l0,0L150.2,125.8z M149.5,127.7
		l-0.1,0.1l-0.1,0.1l-0.1,0l0,0l0.1,0l0.1,0l0.1-0.1l0,0l0,0l0,0l0,0L149.5,127.7l0.2,0l0,0l0.2-0.3l0.1-0.1l0-0.1l-0.3,0.2
		L149.5,127.7L149.5,127.7z M150.2,127.5L150.2,127.5L150.2,127.5L150.2,127.5l-0.1-0.2l-0.1,0l-0.1,0l-0.3,0.4l0,0.1l0,0.1l0.1,0
		l0,0l0,0l0-0.1l0.1-0.3l0,0l0.1,0L150.2,127.5L150.2,127.5L150.2,127.5L150.2,127.5z M148.7,128.6L148.7,128.6L148.7,128.6l0.1-0.1
		l0,0l0.1-0.1l0.2-0.1l0,0l-0.2,0.1l0,0l0,0l0,0l0,0l-0.1,0l-0.1,0l-0.1,0l-0.1,0.1l-0.1,0.1l-0.1,0.1l0,0.1l0,0.1l0,0l0,0l0,0l0,0
		l0,0l0,0l0,0l0,0l0,0l0,0l0,0l0,0l0,0l0-0.1l0,0l-0.1,0l0,0l0,0.1l0,0l0,0l0,0.1l0,0.1l0,0.1l0,0.1l0,0.1l0,0l0,0l0,0l0,0l0,0
		l0-0.3l0,0.1l0,0l0,0l0-0.1l0-0.2L148.7,128.6L148.7,128.6L148.7,128.6L148.7,128.6L148.7,128.6z M149.9,129L149.9,129L149.9,129
		l-0.1-0.1l-0.1,0l-0.1,0l-0.1,0.1l0,0.1l0.1,0l0.1-0.1L149.9,129z M149.6,129.4L149.6,129.4L149.6,129.4L149.6,129.4L149.6,129.4
		L149.6,129.4L149.6,129.4L149.6,129.4z M150,129.5L150,129.5l0-0.1l0,0l-0.1-0.1l-0.1,0l0,0l0,0.1l0,0l0,0l0.1,0.1L150,129.5
		L150,129.5z M147,129.6L147,129.6L147,129.6l-0.5-0.2l-0.1,0l0,0.1l0,0l0,0.1l0,0.1l0.1,0.1l0.1,0.1l0.1,0l0.1,0l0-0.1L147,129.6
		l-0.1,0L147,129.6L147,129.6z M148.8,129.7L148.8,129.7l0.1,0.1l0,0.1l0,0.1l0,0l0,0l0,0l0,0.1l0,0l0,0l0.2-0.1l0.1-0.1l0-0.1
		l0-0.1l0,0l0,0l0,0l-0.1-0.1l0,0l0,0l0,0l0,0l-0.2,0l0,0L148.8,129.7L148.8,129.7z M149.4,130.4L149.4,130.4L149.4,130.4l0.1-0.1
		l0,0l0,0l0,0l-0.1,0l-0.1,0l-0.1,0.1l-0.1,0.1l0,0.1l0,0l0,0l0,0l0,0l0,0l0,0l0,0l0,0l0,0l0,0L149.4,130.4z M149.2,130.9l-0.1,0
		l0,0l-0.1,0l-0.1,0.1l0,0.1l0,0.1l0,0L149.2,130.9L149.2,130.9L149.2,130.9z M147.5,132.3L147.5,132.3L147.5,132.3l0,0.2l0,0.1l0,0
		l0,0l0,0h0l0,0l0,0l0,0l0,0l0,0l0,0l0-0.1l0,0l0-0.1l0.1-0.1l0.1-0.2l0,0l0,0l0,0l0,0l0-0.1l0-0.1l-0.1,0l-0.1,0l-0.1,0.1l-0.1,0.1
		l-0.2,0.1l0,0l0,0l0,0.1l0,0l0,0l0,0l0,0L147.5,132.3L147.5,132.3L147.5,132.3L147.5,132.3z M144.5,132.6l0,0.1l0,0.1l0,0.1l0,0
		l0,0.1l0,0.1l0,0.1l0,0l0,0l0.1,0.2l0,0l0-0.1l0-0.1l0,0l0,0l0-0.1l0-0.1l0-0.1l0-0.1l0-0.1l0-0.1l0-0.1l0-0.1l0-0.1l0-0.1l0-0.1
		l0-0.1l0,0l0,0l0,0l0-0.1l0,0l0,0.1l0,0.2l0,0.1l0,0L144.5,132.6L144.5,132.6z M146.5,132.8L146.5,132.8l0.1,0.1l0.1,0l0-0.1l0-0.1
		l0-0.1l0-0.1l0,0l0,0.1l0,0l0,0l0,0l0,0l0,0l0-0.1l0,0l0,0l0,0l0,0l0.2-0.1l0,0l-0.2,0l-0.1,0l-0.1,0l-0.1,0l0,0l0,0.1l0,0.1l0,0
		l0,0l0,0l0,0l0,0.1l0,0l0,0l0,0l0.1,0L146.5,132.8L146.5,132.8L146.5,132.8z M147.3,132.9L147.3,132.9L147.3,132.9l-0.1,0l-0.1,0
		L147,133l-0.1,0.1l-0.1,0.1l0,0.1l0,0l0,0l0,0l0.1-0.1l0.1,0l0.1,0l0.1,0l0,0l-0.1,0l0-0.1l0,0l0,0l0,0l0,0l0.1-0.1l0.1-0.1l0-0.1
		l0,0L147.3,132.9L147.3,132.9z M141.1,137.8L141.1,137.8l0,0.1l0.1,0.1l0.1,0.1l0.1,0l0.1,0l0.1,0l0,0l0,0l0,0l0,0l0,0l0,0l-0.1,0
		l-0.1,0l-0.1-0.1l-0.1-0.1L141.1,137.8l0.1-0.1h0l0,0l-0.1-0.1l0,0l0,0l0-0.1l0,0l0,0l0,0l-0.1,0l0,0l0,0l-0.1,0l0,0l-0.1,0l0,0.1
		l0,0.1L141.1,137.8L141.1,137.8L141.1,137.8z M141.2,138.1L141.2,138.1l0,0.2l0,0.1l0,0l0.1,0l0-0.1l0-0.1l0-0.1L141.2,138.1
		L141.2,138.1z M136.4,155.1L136.4,155.1L136.4,155.1l-0.1,0l0,0l-0.1,0l-0.1,0.1l0,0.1l0.1,0.1l0,0l0,0l0,0l0,0l0-0.1l0-0.1
		L136.4,155.1L136.4,155.1L136.4,155.1L136.4,155.1L136.4,155.1L136.4,155.1z M119.1,141L119.1,141L119.1,141l0.1,0.1l0,0l0-0.1l0,0
		l0.1,0l0,0l0-0.1l0-0.2l0-0.1l0.1-0.1l0.1,0l0,0.1l0,0.1l0,0l0.1,0l0,0l0-0.2l0,0l0,0l0-0.1l-0.1,0l-0.1,0l-0.1,0.1l-0.1,0h-0.4
		l-0.2,0l-0.1,0l0,0.1l0,0.1l0.1,0h0.1l0.1,0l-0.1,0l-0.1,0l0,0l0,0.1l0,0.1l0,0.1l0,0.1l0,0.1l0,0L119.1,141L119.1,141z
		 M118.9,139.9L118.9,139.9L118.9,139.9l0.1-0.2l0.1-0.1l0.1,0l0.1,0l0.1,0.1l0.1-0.1l0.2,0.1l0.2-0.2l0.1,0l0.1,0l0-0.1l0-0.4
		l0-0.2l0-0.2l-0.1-0.1l-0.1-0.1l-0.1-0.1l0-0.2l-0.1,0l-0.1,0l-0.1,0l0,0l0,0.1l0,0l0,0.1l0,0.1l0,0.1l-0.1,0l-0.1,0l-0.1,0l-0.1,0
		l-0.1,0.1l-0.1,0.1l-0.4,0.4l-0.1,0.1l0,0.1l0,0.1l0.1,0.1l0,0.1l0,0.2h0v-0.3L118.9,139.9L118.9,139.9L118.9,139.9z M151.5,140.8
		l-0.1,0l-0.1,0l-0.1,0l0-0.1l-0.1,0.1l-0.1,0l-0.1,0l0,0l-0.1,0.1l-0.1,0l-0.1,0l0,0.1l0,0.1l0,0.1l0,0.1l-0.1,0.1l0,0.1l0,0.1
		l0.1,0.3l0.1,0.1l0.1,0.1l0.1,0l0.1,0l0,0l0.1-0.2l0-0.1l0-0.1l0,0l-0.1,0l0.1-0.1l0.2-0.1l0.1-0.1l0.1-0.1l0.2,0.1l0.1-0.1l0,0
		l0,0l0,0l0,0L151.5,140.8L151.5,140.8z M150.5,141.7L150.5,141.7l-0.1-0.1l0-0.1l0-0.1l0-0.1l0,0l-0.1,0l-0.1,0l-0.1,0l-0.1,0
		l0,0.1l-0.1,0l-0.1-0.1l0.1-0.1v0l-0.3,0l-0.1,0l0,0.1l0,0.1l0,0l0,0.1l-0.1,0.1l-0.1,0.1l0,0.2l-0.1-0.1l0-0.1l0-0.1l0,0l0,0l0,0
		l0,0l0,0l0,0l0,0l0,0l-0.1-0.1l-0.1-0.1l-0.1,0l-0.1,0l-0.1,0.1l-0.1,0.1l-0.1,0.1l-0.1,0.1l0,0.1l0,0.1l0,0.1l-0.1,0l-0.1,0
		l-0.1,0l-0.1,0l-0.2,0.1l-0.2,0.2l-0.6,1l-0.7,0.7l-0.1,0.2l-0.1,0.3l0,0.2l0,0.2l0,0.2l0,0.1l0,0l0,0.1l0,0l0,0.1l0,0l0,0l0,0l0,0
		l-0.1,0.1l0,0.1l0,0.2l-0.1,0.1l-0.2,0.1l-0.1,0.1l0,0.1l0.3,0.2l0.1,0.7l0.2,0.1l0,0l0,0.1l0,0l0.1,0l0,0.1l0,0.1l-0.1,0.1v0.1
		l0.1,0l0.1-0.1l0.1-0.1l0.1-0.1l0,0.1l0,0.2l0,0.1l-0.1,0.1l-0.2,0.1l-0.1,0.1l0,0.1l0,0.1l0,0.1l-0.3,0.5l0.1,0.1l0.1,0l0.4-0.2
		l0.1,0l0-0.2l0-0.1l0.1-0.1l-0.1-0.1v-0.1h0.2l-0.1-0.1l-0.1-0.1l0-0.1l0-0.4l0.1-0.1l0.3-0.2l0.1-0.1h-0.3l0.1-0.1l0.1-0.1
		l0.5-0.3l0.1,0v0h-0.1v-0.1l0.1-0.1l0.4-0.1l0,0l0.1-0.1l0-0.2l0,0l-0.1,0l0,0l0-0.1l0.1-0.1l0.2-0.1l0.1-0.1l0.1-0.1l0.1-0.1
		l0.1,0l0,0l0.1-0.1l0,0l0,0l0,0l0,0h0.1l0.1,0l0-0.1l0-0.1l0-0.1l0-0.1l0,0l-0.1-0.1l-0.1,0l0,0l0,0l0,0l-0.2,0l-0.2-0.1l0-0.1l0,0
		l-0.1,0l-0.1,0l0-0.1l0-0.1l-0.1-0.1l0-0.1l0.1-0.1l0-0.1l0-0.1l0-0.1l0-0.1l0-0.1l-0.2-0.1l0,0l0-0.1l0-0.1l0,0l0-0.1l0.1-0.2
		l0.1-0.3l0-0.1l0-0.1l0-0.1l0.1,0l0,0l0.1,0.1l0.1,0l0.2,0l0.2,0l0-0.1v-0.1l0-0.1l0-0.1l0-0.1l0,0l0.1,0l0,0.1l0-0.3l0.1-0.1
		l0.3,0l0-0.1L150.5,141.7z M142.4,145.8L142.4,145.8L142.4,145.8L142.4,145.8l-0.1-0.1l0,0l0,0h0l0,0.1l0,0l0,0l0-0.1l0,0l-0.1,0
		l-0.1,0.1l-0.1,0.2l-0.1,0.1l0,0.1l0,0.4l0,0.1l-0.1,0.1l-0.1,0l0,0l0,0.1l-0.1,0.6l-0.2,0.5l-0.2,0.4l-0.2,0.5l-0.1,0.3l-0.1,0.1
		l-0.1,0l-0.1,0l-0.1,0l-0.1,0.1l-0.7,1.8l0,0.2l0,0.1l-0.1,0.2l-0.1,0.2l0,0.1l0,0.7l0,0.1l0,0.1l0,0.1l0,0.1l0,0.3l0,0.2l0,0.2
		l0.1,0.2l0,0.1l0,0.2l0,0.1l0.1,0.1l0.1,0l0.1-0.1l0.1-0.1l0.2-0.5l0-0.1l0-0.1l0.1-0.1l0-0.1l0-0.2l0-0.1l0-0.1l0-0.2l0.1-0.2
		l0.1-0.1l0-0.1l0-0.1l0-0.1l0,0l0-0.1l0,0l0,0l0,0l0,0l0-0.2l0-0.1l0.1,0l0,0l0-0.1l0-0.1l0-0.1l0-0.2l0-0.1l0.2-0.8l0-0.2l0-0.1
		l0-0.1l0-0.1l0-0.1l0,0l0.2-0.1l0,0l0-0.1l0.1-0.4l0-0.1l0.1-0.1l0-0.1l0-0.2l0-0.1l0.1-0.2l0.1-0.1l0.1-0.1l0,0l0,0l0,0l0-0.1
		l0.1-0.1l0.1,0l0.1-0.1l0-0.2l0-0.1l0.2-0.3l0-0.1l0-0.1l0-0.1l0,0l0.1,0l0,0l0,0l0-0.1l0.1-0.2l0-0.1l-0.1-0.2l0.1-0.3l0.1-0.1
		L142.4,145.8L142.4,145.8L142.4,145.8z M171.1,70.9l0.2,0l0.1-0.1l0,0l0,0l0,0l0-0.1l0.3,0.1l0.1,0l0.1-0.2l0-0.2l-0.2-0.3
		l-0.1-0.4l-0.1-0.2l-0.1-0.2l0-0.2l0-0.2l-0.1-0.5l0-0.1l0-0.1l-0.1-0.1l0-0.1l0-0.1l-0.2-0.7l-0.1-0.1l-0.4-0.2l-0.1-0.1l-0.1-0.2
		l-0.1-0.5l0-0.3l-0.1-0.2l0-0.1l0-0.1l0-0.1l0-0.1l0-0.1l0-0.2l0-0.1l0-0.1l-0.1-0.2l0-0.1l0-0.2l0.1-0.2l0.1-0.1l0.1,0v-0.2
		l0.1-0.1l0.1-0.1l0.1-0.1l0-0.1l0.2-0.2l0.1-0.1l0-0.2l0-0.2l0-0.2l0-0.2l0-0.2l0-0.2l0-0.2l0-0.2l0-0.4l0-0.1l0.1-0.2l0.1-0.2
		l0.1,0l0.1,0l0.1,0l0-0.1l0-0.1l-0.2-0.5l-0.1-0.3l-0.1-0.2l-0.2-0.2l-0.2-0.5l-0.1-0.1l-0.1-0.1l-0.1-0.1l-0.1-0.2l-0.2-0.4l0-0.1
		l0-0.1l0-0.1l0-0.1l0-0.1l0-0.1l0,0l-0.1-0.2l-0.1-0.1l-0.1-0.1l0-0.2l0.1-0.1l0-0.1l0-0.1l0-0.1l-0.1,0l0-0.1l0-0.2l0-0.2l0.1-0.1
		l0.5-0.2l0.1-0.2l0.1-0.3l-0.1-0.1l0-0.3l0-0.3l0-0.2l-0.1-0.1l-0.1,0l-0.3-0.1l-0.3-0.2l-0.2,0l-0.2,0.1l-0.2,0l-0.1-0.2l-0.1-0.3
		l0.1-0.2l0.1-0.2l0.1-0.2l0-0.1l0.1-0.1l0.2-0.1l0.1-0.1l0-0.3l0-0.2l-0.1-0.3l0-0.2l0-0.4l0-0.2l0-0.1l0-0.7l0-0.2l0-0.3l0-0.3
		l0.1-0.2l0.1-0.1l0.3-0.1l0.1-0.1l0.1-0.2l0-0.2l-0.1-0.1l-0.3-0.1l-0.4-0.5l-0.1-0.1l-0.3-0.3l0-0.1l0-0.1l-0.2-0.7l0-0.1
		l-0.1-0.1l-0.1,0l-0.4,0.3l-0.1,0l0-0.1l0,0l0,0l0-0.1l0-0.1l0-0.1l0-0.3l0-0.1l0-0.1l0-0.3l-0.1-0.2l-0.2-0.2l-0.1-0.1l0-0.1
		l0-0.1l0-0.1l-0.1-0.1l-0.6-0.4l-0.1-0.2l-0.2-0.4l-0.1-0.1L166,43l-0.1-0.2l-0.1-0.2l-0.1-0.1l-0.1,0l-0.1,0l-0.1,0l-0.2-0.1
		l-0.2,0l-0.3-0.2l-0.3,0l0,0l0-0.1l0,0l-0.3-0.1l-1,0l-0.1-0.1l0-0.1l0-0.1l0-0.1l0,0l0,0l-0.1-0.1l-0.1-0.1l-0.1-0.2l0-0.1
		l-0.2-0.2l-0.8-0.2l-0.1-0.4l-0.2-0.2l-0.4-0.4l-0.3-0.1l-0.1-0.1l-0.1-0.1l-0.1-0.4l0-0.1l0-0.1l-0.1-0.1l-0.3,0l0,0l0,0l0-0.1
		l0,0l-0.1-0.1l-0.2-0.5l-0.3-0.3l-0.3-0.3l-0.7-0.3l-0.1-0.1l0-0.2l0.1-0.1l0.1-0.2l0-0.2l-0.1-0.2l-0.2-0.1l-0.3-0.3l-0.5-0.1
		l-0.2-0.2l-2.2,0.2l1,1.3l0,0.2l0,1l0,0.2l-0.1,0.2l-0.4,1.2l-0.4,0.6l-0.8,0.8l1.2,0.7l-1,1.3l-0.2,0.1l-0.2,0l-1.9-0.8l-1.9-0.9
		l-1.4,0.1l-0.2-0.1l-0.7-0.7l-0.2-0.1l-1.1,0.4l0,0.1l0,0.1l-0.1,1.1l0,0.3l0.2,2.2l-0.1,0.5l-0.8,1.6l-0.1,0.3l-0.1,0.2l-0.1,0
		l-2.4-1.5l-0.1,0.1l-0.3,0.6l-1.7,1.4l-0.1,0.2l-0.1,0.2l-0.6,2.5l-0.1,0.2l-0.4,0.7l-0.2,0.3l-0.3,0.1l-0.7,0.1l-0.1,0.1l-0.2,0.8
		l1.3,2.4l0,0.2l-0.1,1.4l-0.1,0.2l-0.1,0.1l-0.2,0.2l-0.8,0.8l-0.4,0.5l-1.5,3.1l-1,1.1l0,0.3l0.2,1.3l0,0.3l0,0.2l0,0.1l-1.8,1.3
		l-2.1,0.3l0.4,2.9l0,0.4l0,0.2l-0.3,0.7l0,0.2l-0.2,2.4l0,0.5l0,0.5l0,0.5l-0.1,0.3l-0.3,0.3l-0.1,0.2l-0.1,0.2l-0.1,0.9l-0.1,0.4
		L130,79l0,0l-2.2,4l1.2,0.9l0.2,0.1l0.3,0.1l0.2,0.1l0.1,0.2l0.2,2.3l0,0.2l-0.1,0.2l-0.7,1.4l-0.1,0.1H129l-3-0.8l-1.1,0.3l-1,0.6
		l-0.3,0.3l-0.8,1.4l-0.8,1.4l-0.5,0.6l0.2,1l0,0.2l-0.1,0.2l-0.9,1.5l1,2.7l-0.5,0.7l0,0.1l0,0.2l0.2,1.4l0,0.2l-0.1,0.3l-0.1,0.4
		l-0.1,0.3l0,0.2l0.8,2.3l0.1,0.4l0,0.5l-0.7,4.5l0.1,0.1l0.5,0.5l0.2,0.2l0.3,0.4l0.1,0.1l0.2,0l0.3,0l0.1,0.1l0.1,0.1l1.1,1.5
		l0,0.1l0,0.1l-0.1,0.8l-0.1,0.2l-0.1,0.2l-0.3,0.5l0,0.1l0,0.1l-0.1,0.6l0,0.1l-0.1,0l-0.5-0.1l-0.2,0l-1,0.3l-0.1,0.1l0,0.2
		l0.2,0.4l0.1,0.3l0.1,0.6l0.1,0.3l0.1,0.3l0.4,0.8l0.5,1.2l0.1,0.2l0,0.3l0,0.3l0,0.2l-0.1,0.2l-0.1,0.1l-0.2,0.3l-0.1,0.1l0,0.1
		l0,0.3l0.1,0.5l0,0.3l-0.1,0.4l-0.1,0.3l-0.2,0.3l-0.7,0.8l-0.6,0.5l-0.2,0l-0.7-0.1l-0.2,0.1l-0.2,0.2l0,0.3l0,0.1l0.1,0.2
		l0.1,0.1l0,0.1l0,0.3v0.2l0,0.1l-0.2,0.3l-0.1,0.1l-0.6,0.3l-0.1,0.1l0,0.2l0,0.2l0.4,1.6l0.1,0.5l0,0.2v0.2l0,0.1l-0.1,0.1l0,0.1
		l-0.1,0.5l0,0.4l0,0.2l-0.1,0.4l0,0.2l0,0.2l-0.1,0.4l-0.2,0.2l-0.3,0.1l-0.3,0l-0.1-0.1l0-0.5l-0.1-0.2h0l-0.1-0.1l-0.1-0.1
		l-0.1-0.2l0-0.2l-0.1-0.2l-0.1-0.1l-0.4,0.1l-0.1,0.1l-0.3,0.4l0,0.1l0,0.1l0,0.1l0.1,0l0.2,0l-0.2,0.1l-0.1,0.1l0,0.1l0,0.1
		l0.1,0.1l0.2,0.1l0,0.1l0,0l0,0l0,0.1l0,0.1l0,0.2l0,0.1l0,0l0,0l0,0l0,0.3l0,0.1l0,0.1l0,0.1l0,0.1l0,0.1l-0.1,0l0,0.1l0,0.1
		l0,0.1l0.1,0l0,0l0,0.1l0,0.2l0.2,0.2l0,0.1v0.1l0,0.1l0,0.1l0,0.1l0,0l0,0l0,0.1h0.1l0,0.1l0,0l0,0l0,0.1l0,0.1l0,0.2l0,0l0,0l0,0
		l0,0l0,0l0,0.1l0,0l0,0l0.2,0.1l-0.1,0.1l-0.1,0.1l0,0.1l0,0.2l-0.1,0l-0.1,0l0,0.1l0.1,0.2l0,0.1l0,0.1l0,0.1l0,0.1l0,0.1l0.1-0.2
		l0.1,0l0.1,0l0.1-0.1l0,0l0-0.1l0,0l0,0l0.1-0.1l0.2-0.3l0-0.1l0,0.1l0,0.1l-0.1,0.2l-0.1,0.3l0,0.1l0,0l0.1,0l0-0.1l0-0.1l0-0.1
		l0-0.1l0.1,0l0,0.2l0.1,0.1l0,0.1l-0.1,0l-0.1,0l0,0.1l0,0.1l0,0.1l0,0l0.1-0.1l0.1,0v0.1l-0.1,0.1l-0.1,0.1l0,0.1l0,0.1l0.3-0.2
		l0.1-0.1l0.1-0.2l0.1-0.2l0-0.3l0-0.3l0-0.2h0l0,0.1l0.1,0.3l0,0.1l0.1-0.1l0.1-0.1l0.1,0l0.1,0.1l-0.1,0.1l-0.1,0.1l-0.1,0.1
		l0.1,0.1l-0.2,0.3L119,138l-0.1,0.2l-0.1,0.2l0,0.2l0,0.1l0.1,0l0-0.1l0,0l0,0l0.1,0l0.1,0l0.1,0l0,0l0.1-0.1l0,0l0,0l0.2-0.2
		l0.1,0l0.1,0l0-0.1l0.1,0l0.2,0l0.2-0.1l0.1,0l0.1,0.1l-0.2,0.1l-0.1,0.1l0,0.2l0,0.1l0,0.1l0,0.1l0,0.2l0,0.1l0.1,0l0.1,0l0,0.1
		l0,0l0,0l-0.1,0l0,0l0,0.1l0,0.5l0,0.1l-0.1,0l0,0.1l0,0l0,0L120,140l0,0.1l0,0.1l0,0.1l0,0.1l0,0.1l-0.1,0.2l-0.2,0.3l0,0.1
		l0.1,0.1l0,0.1l0,0l0,0v0.1h0.1v0l-0.2,0.1l-0.1,0.1l0,0.2l-0.1,0l-0.1,0l-0.1,0.1l0.1,0l0.1,0.1l0.1,0.2l0.1,0.1l0.1,0l0.1,0
		l0.1,0l0,0.1l0,0.1l-0.4,0.4l0,0.1l0,0.1l0.1,0l0.1,0l0.1,0l0-0.1l0.1,0l0.2,0.1l0.1,0l0.1,0l0.1,0l0.1-0.1l-0.1,0.1l-0.3,0l0,0.2
		l0,0.1l0,0.1l0,0.1l0,0.1l0,0.1l0.1,0l0.1-0.1l0-0.1l0,0l0,0l0,0l0,0.2l0,0.4l-0.1,0.1l0,0l0.1,0.1l-0.1,0l0,0l0.1,0l0.1,0.1
		l-0.1,0l-0.1,0.1l0,0.1l0,0.1l0,0.1l0,0.1l0,0.1l-0.1,0.1l0,0l0,0l0,0l0,0l0,0.2h0.1l0.1,0l0,0.1l0.1-0.1l0.1-0.5l0.1-0.1l0,0l0,0
		l0,0l0,0l0,0l0.1,0.3l0,0.1l0,0.1l-0.1,0.1h0.2l-0.1,0.1l-0.1,0.1l-0.1,0.1l0.1,0.1l0,0l0.1,0l0,0l0,0l0,0l0,0l0,0l0,0l0,0.1l0,0.1
		l0,0.1l0,0v0.1l0,0l-0.1,0l0,0l0,0.1l0,0v0.1l0.1,0l0.1,0l0.1,0l-0.1,0l-0.1,0h-0.1l0.1,0.1l0.1,0l0.1,0l0.1,0l0,0l0,0.1l-0.1,0.1
		l0.1,0l0.1,0l0,0l0,0.1l0,0.2l0,0.1l0.1,0.2l0,0.1l-0.1,0.1l0.1,0.1l0,0l0,0.1l0.1,0.1l0.1,0.1l0.1,0.1l0,0.1l0,0.1l0,0l0,0l0,0.1
		l0,0l0,0l0,0.1l0,0l0,0.2l0,0.1l0.1,0.1l0.2,0l0.1,0.1l0.1,0l0,0l0.1,0.1l0,0l0.1,0l0,0l0,0v0l0,0l0,0l0.3,0.2l0,0.1l0,0.2l0.1,0.3
		l0.1,0.1l0.1,0.1l0.1,0.1l0,0.2l0,0.1l0.2,0.2l0.1,0l0.1,0l0.1,0l0.2-0.1l0.1,0l0.1,0l0.1,0.1l0.1,0.3l0.1,0.3l0,0.2l0,0.2
		l-0.1,0.2l-0.1,0.1l-0.1,0.1l-0.2,0.1l-0.5-0.2l-0.2,0.1l-0.1,0.3l0.1,0.2l0.4,0.3l0.1,0.3l0.1,0.2l0.2,0.1l0,0.1l0,0.1l-0.1,0.1
		l-0.1,0.1l-0.1,0l-0.2,0l0,0l-0.1,0l0,0l0,0l-0.1-0.1l0,0l0,0l-0.1-0.1l0,0l-0.8-0.4l0.1,0.1l0.2,0.1l0.1,0.2l0.1,0.2l0,0.1l0,0.2
		l0,0.1l0.2,0.4l0,0.1l0.4,0.5l0,0.1l0,0.1l0,0.1l0.1,0l0.1,0.1l0,0.1l0,0.1l0,0.1l0.1,0.1l0,0l0,0l0,0l0,0l0,0.1l0,0.1l0,0.1
		l0.1,0.2l0.2,0.1l0.1,0.1l0.1,0.3l0,0.1l0,0.1l0,0l-0.1,0l0,0.1l0.1,0l0.1,0l0,0.1l0.1,0l0.1,0l0.1,0.1l0.1,0.1l0.1,0.1l0,0.1
		l0,0.1l0,0.1l0,0.1l0,0.1l-0.3,0.2l-0.1,0.1l0,0.2l0,0.2l0.2,0.3l0,0.2l-0.1,0l0,0l0,0l0,0.1l-0.1,0.1l-0.1,0l-0.1,0l-0.1,0l0-0.1
		l0,0l0,0h0l-0.1,0.3l0,0.1l0.1,0l0.1-0.1l0.1,0l0,0l0.1,0l0,0l0,0l0.1-0.1l0,0l0.1,0l0.1,0l0,0l0.1,0.1l0,0l0,0l0.1,0l0.2,0
		l0.7,0.3l0.1,0l0.3,0l0.1,0l0.4-0.3l0.1,0l0.2,0l0.1,0l0.1-0.1l0-0.1l0-0.1l0.1,0l0.6,0l0.2,0l0.1,0l0.1,0l0.1-0.1l0.1,0l0.1,0
		l0.1,0l0.3,0.2l0.1,0l0.1,0l0.3,0l0.1,0l0.1-0.1l0.1-0.1l0.2-0.3l0.1-0.1l0.1-0.1l0.2-0.3l0.1-0.1l0-0.2l0-0.1l-0.2-0.3l-0.1-0.1
		l0-0.1l0-0.1l0-0.1l0-0.1l0-0.1l-0.1-0.1l-0.2-0.1l-0.1-0.1l0-0.1l0-0.1l0-0.3l0-0.3l0.1-0.3l0.2-0.2l0.2-0.1l0-0.1l0-0.1l0.1-0.1
		l0.1-0.1l0.1,0l0.1-0.1l0.2-0.2l0.1-0.2l0.1-0.1l0.1,0l0,0l0.1-0.1l0.1,0l0,0l0,0l0,0.1l0.1-0.1l0,0.1l0,0.1l0,0.1l0,0l-0.1,0.1
		l0,0l0,0l0.1,0l0,0l0,0l0,0l0,0l0-0.1h0.1l0,0.1l0,0l0,0l0-0.1l0-0.1l0.1,0l0,0l0-0.1l0-0.1l-0.1-0.2l0-0.1l0-0.1l0-0.1l-0.1,0l0,0
		l0-0.1l0-0.1l0-0.1l0.1-0.1l0.1,0l0.2,0l0.1,0l0.1,0.1l0.1,0.1l0.1,0l0-0.1l0.1,0l0.1,0l0.1,0l0.1-0.1l0.1,0l0.3,0.1l0,0l0-0.1l0,0
		l0,0l0.1,0l0,0l0,0l0,0.1l0,0h0.2l0,0l0,0l0,0l0,0l0.1,0.1l0.2,0l0.2-0.1l0.1-0.1l0.1,0.2l0,0.1l0,0l-0.1,0l0.1,0l0.1,0l0.2,0l0,0
		l0,0l0-0.1l0.1-0.1l0,0l0.1,0l0.1,0l0,0l0,0.1l0,0l0.1,0.1l0,0l0-0.1l0,0l0.2-0.1l0.2-0.1l0.1,0l0,0l0,0.1l0,0.1l0,0l0.1,0.1
		l0.1-0.1l0.1-0.1l0.1-0.1l0,0l0.1,0.1l0.1,0l0,0l0,0l0,0l0,0l0.1,0.1l0.1,0l0.2-0.1l0.1,0.1l0,0.1l-0.1,0.3l0.1,0.1l0.1,0.1l0.1,0
		l0.1-0.1l0.2-0.5l0.1-0.1l0.2-0.2l0.1-0.1l0-0.1l0-0.1l0-0.1l0,0l0,0l0.2-1.2l0.1-0.3l0.2-0.4l0-0.1l0-0.1l0.1,0l0-0.1l0-0.2l0-0.2
		l0-0.1l0,0l0,0l0.1-0.2l0-0.1l0,0l0,0l0.1,0l0.1,0l0.1,0.1l0.1,0l0.1,0l0.1-0.1l0-0.1l0-0.1l0-0.2l-0.1-0.2l0-0.1l0,0l0.1,0
		l0.1-0.1l0.1,0l0.1,0l0.1,0.1l0,0l0,0l0-0.1l0-0.1l0,0l0,0l0,0.1l-0.1,0l-0.1,0l0-0.1l0-0.1l0.1-0.4l0-0.1v-0.1l0-0.2l0,0l0.1-0.2
		l0-0.1l0-0.1l0-0.1l0-0.1l0-0.2l0-0.1l0.1-0.1l0.1,0v-0.1l0,0l0,0l0,0l0-0.1l0.1,0l0.1,0l0.1,0l0,0l0,0l0,0l0,0l0,0l0,0l0,0l0,0
		l0,0l0,0l0,0l0,0l0,0l0,0l0,0l0.1,0.1l0.1,0l0-0.1l-0.1-0.1l0-0.1l0.1,0l-0.1-0.2l0-0.1l0,0l0,0l0,0l0-0.1l-0.1-0.2l-0.1-0.2l0-0.2
		l0-0.2l0.1-0.1l-0.1-0.3l0.1-0.1l0.3-0.2l-0.1-0.1l0,0l0,0l0-0.1l-0.1-0.1l0.1-0.2l0.1,0l0.2,0.1l0-0.1l0-0.1l0.1,0l0.1,0l-0.1,0
		l-0.1-0.1l0-0.1l0-0.1l0.1,0l0.1,0l0,0l-0.1-0.1l0.1,0l0-0.1l-0.1-0.2l-0.1-0.3l-0.2-0.1l-0.3,0v0h0.1v-0.1l-0.1-0.1v-0.1l0,0
		l0.1-0.1l0,0l0,0l0-0.1l0,0l0,0l0,0l0,0l0,0.1v0.1l0,0.1l0,0l0,0l0.1-0.1l0-0.1l0,0l0,0l0,0l0-0.1l0-0.1l-0.1,0l0,0l0-0.1l0.1,0
		l0.1,0l0-0.1l0-0.1l0-0.1l-0.1-0.1l0-0.1l0.1,0.1l0.1,0.1l0.3,0V143h-0.1v-0.1h0.1l0-0.1l-0.1-0.1l-0.1,0l-0.1,0l0.1-0.1l-0.1-0.1
		l-0.1-0.2l0,0l-0.1,0l0,0l0-0.1l0-0.1l-0.2-0.2l-0.2-0.2l-0.1-0.1l0-0.1l0-0.1l0.5,0.4l0.3,0.5l0.1,0.1l0.2,0.1l0.1,0l0-0.1
		l-0.1-0.1l-0.9-1v-0.1l0.1,0l0,0l0-0.1l-0.1-0.1l0.2,0.1l0.1,0.1l0.1,0.1l0,0l0-0.1l0-0.1l0-0.1l0,0l0-0.1l0,0l-0.2-0.1l-0.1-0.2
		l0-0.1l0-0.1l0-0.1l0,0l0,0l0.5,0.6l0,0l0,0l0,0l0,0l0,0.1l0,0.1v0.1l0,0.1l0.2,0l0.1,0l0-0.1l0-0.2l0,0l0.1,0.2l0.1,0.1l0.1,0
		l0.1,0l0-0.1l0-0.1l-0.1-0.1l0-0.1l0.2,0.1l0.1,0l0-0.1l-0.1-0.1l0,0l0-0.1l0-0.1l0,0l0,0.1l0,0l0-0.1l0-0.2l-0.1,0l-0.1,0
		l-0.1-0.2l0-0.1l0.1-0.1l0.1,0l0.1,0.2l0.1,0.1l-0.1-0.1l0,0l0.1-0.1l0,0.1l0,0l0,0l0-0.1l-0.1-0.1l-0.1,0l-0.1,0l-0.1-0.1l0.1,0
		l0,0l0-0.1l0-0.1l0.1,0l-0.1-0.2l-0.1-0.2l-0.1-0.2l0,0l0.1,0l0,0l-0.1-0.1l-0.2-0.2l-0.1-0.1l0.2,0.1l0.2,0.3l0.2,0.2l0.1-0.3l0,0
		l0-0.1l0,0l0,0l0.1,0l0,0l0,0l0-0.1l0-0.1l0-0.1l0-0.1l-0.1-0.1l0,0l0,0l-0.3-0.2l-0.1,0v-0.1l0.2,0l0,0l0,0l0-0.1l0,0l0,0l0,0
		l0.1,0l0,0l0-0.1l-0.1,0l-0.2,0.1l0,0.1l0,0.1l0,0l0,0l-0.1,0l0-0.1l0-0.1l-0.1-0.1l-0.2-0.1l-0.1-0.1l0.6,0.1l0-0.2l0,0l-0.1,0
		l0,0l-0.1,0l-0.1,0l0,0l0-0.1l0-0.1l0-0.1l0-0.1l0-0.1l-0.1,0l-0.1,0l-0.9-0.5l-0.1,0l0.1-0.1l0.4,0.1l0.2,0.2l0.5,0.1l0,0l0.1,0
		l0,0l0,0l0.1-0.1l0,0l0.1,0l0.1-0.1l0.1-0.1l0-0.1l0.1,0l0.2,0l0.1-0.1l-0.2-0.2l-0.2,0l-0.1,0l0-0.1v-0.1h-0.1v0l0,0l0,0l-0.1,0
		L141,136l0-0.1l0-0.1l-0.1,0l-0.1-0.1l0,0l0,0.1l0,0l-0.1-0.1l-0.2,0l-0.1,0l-0.1-0.1l-0.1,0l-0.5,0l-0.1-0.1l-0.2-0.1l-0.1,0
		l0,0.1l0,0.1l0,0.1l0,0.1l0,0l-0.1,0l0,0l0-0.1l0-0.1l0,0l0,0l-0.1-0.1l-0.1,0l-0.1,0l-0.1,0.1l-0.1,0.1l-0.2-0.1l-0.1,0.1l0-0.1
		l0,0l-0.1,0l-0.1,0v-0.1l0.1,0l0.2,0l0.1,0l0-0.1l0-0.1l0-0.1l-0.1,0v-0.1l2.9,0.4l0.4-0.1l0.1,0l-0.1-0.1l-0.1-0.1l-0.2,0l0.1-0.1
		l0.2,0l0.2,0.2l0.1,0l0.1-0.1l0.1-0.1l0.1-0.1V135l-0.1,0l-0.2,0l-0.1-0.1l0,0l0-0.1l0-0.1l0-0.1l0-0.1l-0.1,0l-0.1,0l0.1,0
		l0.1-0.1l0,0l0.1,0l0.1,0.1l0,0.1l0.1,0l0.5,0v-0.1l0.1,0l0.2,0l0.1-0.1l0-0.1l-0.1-0.2l0.5,0.1l0.1-0.1l-0.1-0.1l0,0l0,0l0-0.1
		l0-0.1l0-0.2l0-0.1l-0.1-0.1v-0.1l0.1,0.1l0.3,0.3l0.1,0l0,0l0,0h0.1v-0.1l-0.1-0.1l-0.1-0.1l0-0.1l0.1,0l0.1,0l0.1,0l0.1-0.1
		l0-0.1l-0.1-0.1l-0.1,0l0-0.1v-0.1l0,0l0,0l0,0l0,0l0,0l0,0l0,0l0,0l0-0.1l0-0.2l0-0.1l-0.1-0.1l0-0.2l0-0.2l0-0.2l0.1,0l0.1-0.1
		l0.1-0.1l0.1-0.1l-0.1-0.3l0,0.1l0,0.1l0,0.1l0,0.1l0,0.1l-0.1,0.2l0,0.1l0.1,0.2l0,0l0,0l0-0.1l0-0.3l0-0.1l0-0.1l0.1,0l0,0l0,0.1
		l-0.1,0.2l0,0l0,0.1l0,0.2l0,0.2l-0.1,0.1v0.1l0,0.2l0,0.2l0,0.2l0.1,0.1l0,0.1l0,0.1l0,0.1l0,0l0,0l0-0.1l0-0.1l-0.1-0.1l0-0.2
		l0-0.1l0.1,0.1l0.1,0.2l0,0l0.1,0l0,0l0,0l0,0l0,0l0,0l0,0.1l0,0.1l0,0.1l0,0.1l0.1,0.1l0-0.2l0-0.1l0-0.1l0.1,0l0.1,0l0.1,0
		l0.1-0.1l0-0.1l0-0.1l0-0.1l0-0.1l0.1-0.2l0.1-0.2l0.1-0.1l-0.1-0.1l0-0.1l0.1,0l0.1,0.1l0,0l0-0.1l0,0l0.2,0l0.1,0l0.1-0.2l0-0.1
		l0.1,0l0.1,0l0.1,0l0.1-0.1l0.1,0l0.1,0l0.1,0v0.1l0,0l0,0l0.1,0.1l-0.1,0l-0.1,0.1l-0.1,0l0.1,0l0.4-0.2l0-0.1l0,0l0,0l0,0
		l0.1-0.1l0.2-0.1l0.2,0l0.1,0l0,0l0,0l0-0.1l0-0.1l0-0.1l0,0l-0.1,0.1v-0.1l0,0l0,0l0,0l0,0l-0.1,0.1l0-0.1l0-0.1l0-0.1l-0.1,0
		l-0.1,0l-0.1-0.1l0-0.1l0.1,0l0.4,0.3l-0.1-0.1l-0.1-0.1l-0.1-0.1l-0.1,0l-0.2-0.1l0-0.1l0,0l0.1,0v-0.1l0-0.1l0-0.1l0-0.1l-0.1,0
		l0.1-0.1l0.1-0.1l0.1,0l0.1,0l0,0l0,0.1l0,0l0.1,0.1l0.3-0.1l0.1,0l0.1,0l0.1,0l0.1,0l0.1,0l0.1,0l0.1,0l0.2,0l0.1-0.1l0-0.1
		l-0.1-0.1l-0.1-0.1l-0.1,0l-0.1-0.1l0.1,0l0.1,0l0.1,0l0-0.1l-0.3-0.2l0,0l0-0.1l0,0l-0.1-0.1l-0.1,0l-0.2,0l0,0.1l0.1,0.1l0.2,0.1
		h-0.2l0,0.1l0.1,0.3l0,0.1l-0.1,0l-0.1,0l0,0l0-0.1l0,0l-0.2-0.1l-0.3-0.1l-0.3,0.1L147,130h0l0-0.1l0,0l-0.1,0.1l-0.6,0l-0.1-0.1
		l-0.1,0l-0.2,0.2l-0.1,0.1l0,0l0,0.1l0,0l0,0l0,0.1l0,0l0,0.1l0,0.1l0,0l-0.1,0l0-0.2l-0.2-0.1l-0.4,0v0.1l0.2,0.1l0,0.1l-0.1,0.1
		l-0.1,0l-0.1,0l0.1-0.1l0,0l0,0l-0.1,0l0,0l0,0l0-0.1l-0.3-0.1l-0.1,0l-0.1,0.1l0.1,0.1l0,0.1l0,0.2l0,0.1l0-0.1l-0.1-0.2l0,0
		l-0.1,0l-0.2-0.1l-0.2-0.2l-0.2-0.1l-0.3-0.1l0.1,0.4l0.1,0.1l0.1,0.1v0.1l-0.8-0.1v-0.1l0.2,0l0.1,0l0-0.1l0-0.1l-0.2-0.3l0.3-0.1
		l0-0.1l0-0.1l-0.1-0.1l-0.2,0l-0.4-0.1l-0.2,0l-0.2,0.1l0,0l0-0.1l0,0l-0.3-0.2l0,0l0-0.1l0-0.1l0-0.1l-0.1-0.1l0,0l0,0l-0.1-0.1
		l-0.2-0.2l-0.1,0l0,0.1h-0.3l0,0l-0.1,0l0,0l0,0l0,0l0,0l0.1,0.1l0.5,0.4l0,0l0.1,0l0,0l0,0l0,0.1l0,0l0,0h-0.3l0,0l-0.1-0.2
		l-0.3-0.3l-0.1-0.1l-0.1-0.1l-0.1,0.1l-0.1,0.1l-0.1,0.1l-0.1,0l-0.1-0.1l-0.1,0l0,0l0,0.1l0,0l0,0l-0.1,0l0,0l-1.3,0.1l-0.2,0
		l-0.2-0.1l-0.2-0.1l-0.1-0.2l0.4,0.2h0.5v-0.1h-0.1v-0.1l0.1-0.1l0.1,0l0,0.1l0,0.1l0.1,0.1l0.1,0l0.1,0l0-0.1l0,0l0.1,0l0,0
		l0.1-0.1l0,0l0,0l0.2,0.1l0.1,0l0.1-0.1l-0.2-0.1l0.1,0l0.1,0l0.1,0l0.1-0.1l-0.1-0.1l-0.1-0.2l-0.1-0.1l0.1-0.1l0.1,0l0,0l0,0
		l0.1,0.1l0.1,0.1l0.1,0.1l0.1,0.1l0.1,0.1l0.1,0.1l0.1,0l0.1,0l0.1,0l0,0l0-0.1l0-0.1l0.1-0.1l0,0l0,0l0-0.1l0-0.1l0,0l0.3,0.1l0,0
		l0,0l0,0l0,0l0,0l0,0l0,0l0,0l0.1,0.2l0,0l0.5,0l0-0.1l-0.2-0.2l-0.1-0.1l0.1,0l0,0l0.1-0.1l0,0l0,0.1l0,0.1l0.1,0.1l0,0l0,0l0,0
		l0.1,0.1l0.1,0.1l0.2,0l0,0.1l0,0.1l0.5,0.4l0.1,0l0-0.1l0-0.1l0,0l0,0.1l0.1,0.2l0,0l0-0.1l0-0.1l-0.1-0.2l0.1-0.1l0-0.2l-0.1-0.2
		l0-0.1l-0.1-0.1l0-0.1l0,0l0.1,0l0-0.1l0-0.1l0-0.1l0,0.1l0,0.1l0,0.1l0.1,0l0,0l0.1,0.2l0.2,0.2l0,0l0,0l0.1-0.1l0,0l0.1,0l0,0.1
		l-0.1,0.1l-0.1,0.1l0,0.1l0,0.1l0,0l0.1,0l0,0l0,0l0,0l0-0.1l0,0l0.1,0l0.3,0.1l0.1,0l0,0.1l0.1,0.2l0.1,0.1l0.1,0l0-0.1l0-0.1
		l0.1-0.1l0.2-0.3l0-0.1l-0.1-0.3l0-0.1l-0.1-0.1l-0.1,0l-0.1,0l-0.4-0.3l-0.2-0.2l0-0.1l0-0.1l0.2-0.2l0,0l0,0l0,0l0.1-0.2
		l-0.1-0.1l-0.3,0l0.1,0l0,0l-0.1,0.1l-0.1,0l-0.1,0.1l0,0.1l0,0.2l0,0.1l-0.1,0.1l0.1,0.1l0.1,0.2l0,0.2l0,0.1l-0.1-0.1l-0.1-0.4
		l-0.1-0.1l0-0.2l0-0.1l-0.1,0l0-0.1l0-0.1l0-0.1l0.1-0.2l0-0.1l0,0l-0.3,0l-0.1,0l-0.1-0.1h0.6l0.1,0l0.1-0.1l0.1-0.2l0.1-0.2
		l0,0.1l0,0.1l0.1,0.1l0,0.2l0.1,0.1l0.1,0.1l0.1,0.1l-0.1,0l0,0.1l0,0.1l0,0.1l0,0.1l-0.1,0.1l-0.1,0l-0.1,0l0.1,0.1l0.1,0.1l0.1,0
		l0.1,0l0.2,0.1l0.1,0l0-0.1l0-0.1l0-0.2l0-0.1l0.1-0.1l0,0.1l0,0.1l0,0.1l0,0.1l0,0.2l0,0.1l0.1,0.1l0,0l0.1,0l0,0l0,0.1l0,0l0,0
		v0.1l0,0l0,0l0,0l0,0.1l0,0.1l0,0.1l0,0.1l-0.1,0.1l-0.1,0.1l-0.1,0.2l0,0.2l-0.1,0.3l0.1,0.3l0.2,0.2l0.2,0.1l0.1,0l0.3-0.1
		l0.5,0.1l0.1,0l-0.6-0.6l0,0l0.1,0.1l0,0l0,0l0.1-0.1l0-0.1l0-0.1V129l0,0l0,0l0.1-0.1l0,0l0,0l0,0.1l0,0l0.1,0l0.1-0.1l0.1,0
		l0,0.1l0,0.2l0,0.1l0,0l-0.1,0l-0.1,0l0,0l0.1,0.1l0.2,0.1l0.2,0l0.1-0.1l-0.1,0l-0.1,0l-0.1-0.1l0-0.1l-0.1-0.1l-0.1,0l0.1,0
		l0.1,0l0.1-0.1l-0.1-0.1v-0.1l0.3,0l0.1,0l0.1-0.1l0.2-0.3l0.1-0.1l0.2-0.1l0.2-0.2l0.2-0.1l0.1-0.1l0.1,0l0,0l0-0.1l-0.1-0.2
		l0.1,0l0,0l0,0l0,0l0,0l0.1-0.1l0-0.1l0-0.1H149l0,0l0,0l0-0.1l0-0.1l0,0l0.1,0l0-0.1l0.1-0.1l0.3-0.1l0.1-0.1l0.1-0.1l0.1-0.1l0,0
		l0,0.1l0,0.1l0.1,0l0.1,0l0.3-0.1l0.1-0.1l0.1-0.1l0-0.2l-0.2-0.1l-1.1,0l-0.2,0.1h-0.1l0-0.1l0.1-0.1l0.1,0l0.2,0l0.1,0l0.1-0.1
		l0.3-0.4l0-0.1l0-0.1l-0.1-0.3l0-0.1l0.1,0.1l0.1,0.2l0.3,0.5l0.1,0l0.1,0l0-0.1l0-0.3l0-0.1l-0.1,0l-0.1,0l0,0l0,0.1l0,0l0,0l0,0
		l-0.1-0.1l0,0l0-0.1l0,0l0,0l-0.1-0.1l-0.1-0.1l-0.2-0.1l-0.1-0.1l-0.1-0.4l-0.2-0.6l0-0.1l0-0.1l0-0.1l0,0l-0.1,0l-0.2,0.1
		l-0.1,0.2l0,0.2l0.1,0.2l0.1,0.2l0-0.1l-0.2-0.3l0-0.1l0-0.3l0-0.1l-0.1-0.1l-0.1,0l-0.1-0.1l-0.1,0l-0.1,0l-0.1,0.1l0,0.1l0,0.2
		l0,0.2l0,0.1h0l0-0.1l-0.1-0.3l0-0.1l0-0.3l0,0l0,0.1l0,0l-0.1,0h-0.1l-0.1,0l-0.1-0.1l-0.2-0.1l-0.1-0.1l0-0.2l0.1,0.1l0.1,0
		l0.1,0l-0.1-0.2l-0.2-0.2l-0.2-0.2l-0.1-0.3l0.2,0.4l0.1,0.2l0.7,0.3l0.2-0.1l-0.2-0.2l-0.6-0.2l0-0.1l0,0l0.1,0l0.1,0v-0.1
		l-0.1-0.1l0,0l0-0.1l0-0.1l0-0.1l0,0l-0.1-0.1l-0.3,0l-0.1-0.1l-0.1,0l-0.1,0l-0.1,0l-0.1,0.1l-0.1,0.1l0-0.1l0,0l-0.1-0.1v-0.1
		l0.1-0.1l0.1-0.1l0.1,0l-0.3-0.1l-0.1-0.1l-0.1-0.2l0,0l0-0.1l0,0l-0.1-0.1l-0.2-0.2L146,120l-0.1,0V120l0,0l0-0.1l0-0.1l0-0.1
		l-0.1-0.3l-0.1-0.1l-0.1,0l-0.4,0.1l-0.2,0.2l-0.1,0.2l0.1,0.2v0.1l-0.3,0l-0.1-0.1l-0.1-0.2l0-0.1l-0.1-0.2l0-0.1l0,0l0.1-0.1
		l0.1-0.1l-0.1-0.1l-0.2-0.1l-0.1-0.1l-0.1-0.1l-0.1,0l-0.6,0.1l-0.1,0l-0.1,0.1l-0.1,0l-0.1,0l-0.1,0V119l0.2-0.1l-0.2-0.2
		l-0.1-0.1l-0.1-0.1l-0.1,0l0,0l-0.1,0l0,0l0,0l0,0l0,0l0.1,0l0.2-0.1l0.1-0.1l0.1-0.1l0.1-0.1l0.1-0.1l0,0l-0.1,0l-0.1,0l-0.1-0.1
		l0-0.1l0-0.1l0-0.1l0,0l0,0l0,0l0-0.1l0,0l0,0l0,0l0,0l-0.2-0.5l0,0l0,0l-0.1,0l0,0l0-0.1l0-0.1l0-0.1l0,0l-0.1,0l-0.1-0.1l0,0
		l0-0.1l0-0.2l0.1-0.1l0.3-0.1l-0.1-0.1l-0.1,0l-0.2,0l0,0l0.1-0.1l0,0l0,0l0,0l0-0.1l0-0.1l0-0.1l0,0l0,0l0,0l0-0.1l0-0.1l0,0
		l-0.1,0l0,0l0.1,0l0-0.1l0-0.1l-0.1-0.1l0.1-0.1l0-0.1l0-0.2l-0.1-0.1l0.1-0.1l0.1-0.1l0.1-0.1l-0.1-0.2l-0.1-0.1l-0.1-0.2
		l-0.1-0.1l-0.1-0.1v-0.1l0.1,0l0.1,0l0.2,0.2l0.1,0l0.2,0l-0.1-0.1l-0.1,0l-0.1-0.1l-0.1-0.2l0.3,0.1l0.1,0l0.1,0l-0.3-0.2l0-0.1
		l-0.1-0.1l-0.1-0.1l-0.1-0.2l0-0.1l0-0.1l0.1-0.1l0-0.2l0,0l0,0.1l0,0.1l0-0.1l0,0l0,0l0,0l0,0l0-0.1l0-0.1l0,0l0,0l0,0.1l0,0h-0.1
		l0,0l0-0.1l0-0.1l0-0.1l0-0.1l0,0l0-0.1l0-0.1l0,0l-0.2-0.1v-0.1h0.2v-0.1l0,0l-0.1,0l-0.1-0.1l-0.1,0l0,0l0,0l0.4,0V111l-0.4-0.1
		l-0.1-0.1l0.2,0l0.2-0.1l0-0.1l-0.1,0l-0.1,0v-0.1l0.3,0l0.1,0l0.2,0.1l0.1,0l0.1-0.1l-0.1-0.1l-0.5-0.1l0.1-0.1l0.2,0.1l0.1-0.1
		l-0.1-0.1l0,0v-0.1l0.1,0l0.2,0l0.1-0.1l0-0.1l-0.3-0.2l-0.1,0l-0.1,0l-0.1-0.1l0.4,0l0.2,0l0.2,0.1l0,0.1l0.1,0.1l0.2,0l-0.1-0.2
		l0-0.1l0-0.1l0.1,0.1l0.1,0.1l0.2,0.4l0.1,0.1l0.1,0.1l0.1,0l0.1,0l0.1-0.1l0-0.1l0-0.2l0-0.1l0-0.1l0-0.1l0-0.1l-0.1-0.1l-0.1-0.1
		l-0.1,0l-0.1,0l-0.2,0.1l0,0l0-0.2l0-0.1l0-0.1l0-0.1l-0.1,0v-0.1l0,0l0,0l0-0.1l0-0.1l-0.2,0.1l-0.1,0l0,0l0,0l0,0l0,0l0-0.1l0,0
		l0,0l0,0l0,0v-0.1l0-0.1l0,0l0,0l0.1,0l0-0.1l0-0.1l-0.1-0.2l0-0.1l0-0.1l0-0.1l0-0.1l0,0l0.1,0l0-0.1l0-0.1l0-0.1l0,0l0.2,0l0,0
		l0-0.1l-0.1-0.1l0,0l0.1-0.2l0-0.1l-0.1-0.1l0.1-0.1l0-0.1l0-0.1l0-0.2l0-0.1l0.1-0.2l0-0.1l0-0.1l0-0.1l0-0.1l0-0.1l0-0.1l0.1-0.1
		l0.1,0l0.1,0l-0.1,0.2l0,0l0.1,0l0.3-0.2l-0.1-0.1l-0.1-0.1l-0.1,0l-0.1,0l-0.4-0.2l0.1-0.1l0,0l0,0v-0.1l0-0.1l0-0.1l0-0.1l0-0.1
		l-0.1-0.1l-0.1,0l-0.1,0l-0.1,0l-0.1-0.1l0-0.1l0-0.1l0-0.1l0-0.1l0-0.1l0-0.1l0,0l0.1,0l0,0l0,0l0-0.1l0-0.1l0-0.1l0,0l-0.2-0.3
		l0-0.1l0-0.1l0.1-0.1l0.1,0l0.1-0.1l0-0.2l0.1-0.1l0,0l0.2,0.3l0.2,0.4l0,0l0.1,0.1l0.1,0l0.1,0l0.5,0l0-0.1l-0.1,0l-0.1-0.1l0-0.2
		l0.1-0.1l0.1-0.1l0.2-0.1h0.2l0,0l0.1,0.1l0,0l0.1,0l0.1-0.1l0.1-0.2l-0.1-0.1l0.1,0l0,0l0-0.1l0-0.1l0-0.1l0-0.3l0-0.1l0,0l0.1,0
		l0,0l0,0.1l0,0.3l0,0.1l0,0l0.3-0.3l0.1,0l0,0l0-0.1l0-0.1l0-0.1l-0.6-0.3l-0.1-0.1h0.3l0,0l0.1,0.1l0,0l0,0l0,0l0,0l0-0.1l0-0.1
		l0-0.2l0-0.1l0-0.2l-0.1-0.2l0-0.1l0-0.2l0,0l-0.1-0.1l0-0.1l-0.2-0.1v-0.1l0.1-0.2l-0.1-0.3l-0.1-0.3l-0.1-0.2l-0.1-0.2l-0.5-0.5
		l0.1,0l0.1,0.1l0.1,0.1l0.1,0l0.1,0l0.1-0.1l0.1,0l-0.1,0.1l0,0l0.1,0l0.1,0l0,0.1l0,0.1l0.1,0.3l0,0.1l0.1,0l0.1,0l0.1,0l0,0.1
		l0,0l0,0.1l0,0l0,0.1l0,0.1l0,0l0,0.3l0,0.1l0,0l0.1,0.1l0.1,0l0,0l0.1-0.1l0.1-0.1l0.1-0.1l0.1,0l0,0l0,0l0,0l0,0l0.1,0.1l0.1,0.1
		l0.2,0.1l-0.1,0.2l-0.4-0.1l-0.1,0.2l0.2,0l0.1,0l0.1,0.1l0,0l0,0.1l0.2,0l0.1,0l0.1-0.1l0-0.1l0-0.1l0-0.1l0.1,0l0,0l0,0.1l0,0.1
		l0,0.1l0,0.1l0,0l0-0.1l0,0l0.1,0l0.1-0.1l0.1-0.3l-0.1-0.1l-0.1,0.2l-0.1-0.1l0-0.1l0-0.1l0-0.1l0,0v-0.1h0.2l0-0.1l0,0l0.1,0
		l0.1,0.1l0.1,0.2l0,0.1l0,0l0,0l0,0l0.1,0l0.1,0l0,0l0.1,0l0,0l0,0l0,0l0.1,0l0,0l0-0.1l0-0.1l0-0.1l-0.2-0.1l-0.1-0.1l0.3,0.1
		l0.2,0l0-0.2l0-0.1l-0.1,0l-0.2,0.1l-0.1,0l-0.2-0.2l0-0.2l0.1,0l0.2,0.1l0.1,0l0.1,0l0-0.2h0l0,0.1l0.1,0l0,0l0-0.1l-0.1-0.1
		l-0.1-0.1l-1.1,0l-0.1-0.1l0.2-0.1l0.1-0.1l0.1-0.1l0,0l0,0l0-0.1l0,0l0,0l0,0l0,0.1l0,0l0.3,0.1l-0.1-0.1l-0.1-0.1l-0.1-0.1
		l0.1-0.1l0.1,0l0.1,0l0.1,0.1l0.1,0.2l0,0l0,0l0-0.2l0-0.1l0.1,0l0.2-0.2h-0.1l0.1-0.1l0-0.1l0-0.1l0-0.1l0.1-0.1l0.1,0l0.1,0.1
		l0.1,0l0.1,0l0-0.1l0-0.1l0-0.1l-0.1-0.1l-0.1-0.1l-0.1-0.1l-0.1,0v-0.1l0.2,0l0.6,0.2l0-0.1l-0.1-0.2l0-0.1l0-0.1l0-0.1l-0.1-0.1
		l0.1-0.1l0.4,0.1V96l-0.2,0l-0.1,0l0,0.1l0,0.1l0.1,0.1l0.1,0l0.1-0.1l0,0l0-0.1l0.3,0l0.1-0.1l0.1-0.1l-0.7-0.3l-0.1-0.1l0.1-0.1
		l0.1,0l0.2,0l0.2,0.1l0.1,0l0-0.1l0.1,0l0.1,0.1l0.1,0.1l0.1,0.1l0.1,0l0,0.1l0,0.1l0,0.1l0.1,0.1l0,0.1l0,0l0.1,0.2l0,0l0.1,0l0,0
		l0-0.1l0-0.1l0.1,0l0.1,0l0,0l0-0.1l-0.1,0l-0.1-0.1l-0.1-0.1l0.1-0.2l0.2,0.2l0.1,0l0.1-0.2h-0.1l0-0.1l0.1-0.2l0-0.1l-0.1-0.1
		l0,0l0.1-0.1l0.2-0.1l0.1-0.2l0,0.2l0.1,0l0.1-0.1l0-0.1v-0.3l0-0.1l0-0.2l0-0.1l0-0.3l0-0.2l0.1-0.1l0.1,0.1l0.1,0.1l0.1,0.1
		l0.1,0l-0.1-0.3l0-0.1l0.1,0.1l0.3,0.5l0.1,0.1l0.1,0l0,0l0-0.1l0-0.1l-0.2-0.3l0-0.1l0,0l0.1,0l0.1,0l0.1-0.1l-0.1-0.1l-0.1,0
		l-0.1-0.1l0.1-0.2l-0.1,0l0,0l0-0.1l0.1-0.1l0.1,0l0.1,0.1l0.1,0.1l0.1,0.1l0.2,0.1l0.1,0.2l0.1,0l0,0l0,0.1l0,0l0.1,0.1l0,0.1
		l0,0.1l0,0.1l0.2,0.1l0.1,0l0.1-0.1l0.1-0.1l0,0l0.1,0l0,0l0-0.2l-0.1-0.3l0-0.1l0.1-0.2l0.2-0.1l0.2-0.2l0.1-0.2l0,0l0.2-0.1
		l0.1-0.1l0.1,0l0.3,0.2l-0.1-0.2l0-0.1l0-0.1l0.1-0.1l0.1-0.1l0.1,0l0.1,0l0,0l0,0l0,0.1l0,0l0,0l0,0l0,0l0.3,0l0.1,0l0-0.2l0-0.2
		l0.1-0.2l0.1-0.1l0,0.1l0,0.1l0,0.1l0,0.1l0,0.1l0,0.1l0.1,0.1l0.1,0l0-0.2l0-0.6l0-0.1l0.1,0l0.1,0.1l0,0.1l0,0.1l0,0.1l0,0.1
		l0,0.1l0.1,0l0,0l0-0.1l0-0.1l0-0.1l0-0.1l0-0.2l0-0.1l0,0l0,0l0-0.1l0.1,0.1l0.1-0.1l0.2-0.5l0,0l0.1,0.1l0,0.1l0,0.1l0,0.1l0,0.1
		l0,0l0-0.1l0-0.1l0.2-0.2l0.1,0l0.1,0.1l0.1,0.2l0,0l0.1-0.1l0.1-0.2l-0.1,0l-0.1,0l0-0.1l0-0.1l0-0.1l0.2,0l0.2-0.2l0-0.1l0.1-0.3
		l0.1-0.3L158,89l0.1-0.1l0,0l0,0l0,0l0,0l0,0l0-0.1l0-0.2l0,0l0,0l0,0l0,0l0,0l0-0.1l0,0l0,0l0-0.1l0-0.1l0,0l0.2-0.4l0-0.2
		l-0.1-0.2l0.1-0.2l0.3-0.4l0.1-0.3l0,0l0,0l0.1,0.1l0,0l0.5-0.8l0,0l0,0l0.1,0l0.1,0l0.1-0.1l0.1,0l0,0l0,0l0,0l0,0l0-0.1l0-0.1
		l0-0.1l0-0.1l0.1,0.1l0.1,0.2l0.1,0.1l0.1-0.1l0.1-0.1l0.2-0.2l0.2-0.4l0-0.1l0.1-0.1l0-0.1l0.1-0.1h0.1l0,0l0-0.1l0-0.1l0-0.1l0,0
		H161l0,0.1l-0.1,0l-0.1,0l0,0l0,0.1l0,0l-0.1,0l-0.1-0.1l0-0.1l0.1-0.1l0-0.1l0-0.2l0,0l-0.1,0l-0.2,0l0,0l-0.1,0.1l-0.1,0
		l-0.1-0.2l-0.1,0l0,0l0-0.1l0,0l0,0l0,0l0,0.1l0.1,0.1l0.1-0.1l0.2-0.2l0,0l0.1,0.2l0.1,0l0.1,0l0.1-0.1l0.1-0.1l-0.1,0l-0.1,0
		l-0.1-0.1l0-0.1V83l0,0l0,0l0,0l0,0.2l-0.1-0.1l-0.1-0.2l-0.1-0.1l-0.1,0l0,0l0,0.1l0,0.1l0,0l0,0l0,0.1l0,0l0,0L160,83l0,0l0,0
		l0-0.1l0,0l0,0l0,0l-0.1,0l-0.1-0.1l-0.1-0.1l0-0.1l0.1,0l-0.1-0.2l-0.1-0.1l-0.1,0l-0.1,0l-0.1-0.1l0-0.2l0-0.2l0-0.1l0.1,0
		l0.1,0.1l0.1,0.1l0.1,0.1l0.1,0.1l0.2,0.2l0.1,0.1v-0.1l-0.1-0.1l0-0.1l0-0.1l0.1,0v-0.1l-0.2-0.2l-0.1-0.1l-0.1-0.2l0.1,0l0.2,0
		l0.1,0l0-0.1l-0.1-0.1l-0.3-0.1l-0.3,0.1l-0.2,0l-0.1,0l-0.1-0.1l0,0l0-0.1l-0.1-0.1l-0.1-0.1l0-0.1l0-0.1l0-0.1l0.1,0l0.1,0l0,0.1
		l0,0.1l0,0.1l0.1,0l0.1,0l0.1-0.1l0.1-0.1l0-0.2l0.1-0.1l0.1-0.1l0-0.3l0.1,0l0.1-0.1l0-0.1l0-0.1l0-0.1l0-0.1l0-0.1l0-0.1l0.1,0
		l0.5,0l0.1-0.1l-0.1-0.1l0-0.1l0.1-0.1l0.1-0.1l0,0l0,0l0,0v0l0,0l0.1,0.1l0,0l0,0l0.1-0.1l0,0l-0.1-0.1l0-0.1l0.1-0.1l0.4,0
		l0.1-0.1l-0.1-0.1l-0.1,0l0-0.1l0.1-0.3l0-0.1l0-0.1l-0.1-0.1l0.2,0l0.1-0.1l0-0.2l-0.3-0.6l-0.2-0.3l-0.3-0.5l-0.1-0.1l-0.5-0.1
		l0.1-0.1l0.2,0l0.1-0.1l0,0l0,0l0,0l0.1,0l0.1,0.2l0.1,0.2l0.1,0.1l0.1,0l0.1,0.1l0.1,0.1l0.1,0.1l0.1,0.1l0.1,0.3l0,0.1l0.1,0.1
		l0.2,0l0.2-0.1l0.1-0.2l0-0.1l-0.1-0.1l-0.1-0.1l-0.1-0.2l-0.1-0.1l-0.1,0l0,0.2l-0.1,0.1l-0.1,0l-0.1-0.1l-0.1-0.1l-0.1-0.1
		l-0.1-0.1l-0.1,0l0.2-0.1l0,0l0,0l0,0l0.1-0.2l0.2,0l0.3,0v-0.1l-0.1,0l-0.2-0.1v-0.1l0.2-0.1l0.1,0l0.1,0.2l0.1,0l0.2,0l-0.1-0.1
		l0.1,0l0.4,0.1l0.1,0l0.1-0.1l0.1-0.1l0,0.1l0.1,0l0.1,0l0.1-0.1l0-0.1l0-0.1l0-0.1l0-0.1l0.1,0.2l0.1,0.1l0.1,0l0.1-0.1l0-0.1
		l0-0.1l0-0.1l-0.1-0.1l-0.2-0.3l-0.1,0l0,0l0.1,0.1l-0.1,0.1l-0.1-0.1l-0.2-0.3l0.1,0l0.6,0.2l0.1-0.1l0,0l0,0.1l0,0l0,0l0-0.1l0,0
		l0,0l0,0l0.1,0l0.2,0l0.1-0.1l-0.1,0l-0.1,0l-0.1-0.2l-0.1-0.1l-0.1-0.1l-0.3-0.1l-0.3-0.3l-0.5-0.3l-0.3-0.3l-0.1-0.4l0.1,0.1
		l0.1,0.1l0.1,0.1l0.1,0.2l0,0.1l0.1,0.1l0.3,0.1l0.1,0.2l0.2,0.1l0.1,0.1l0.1,0.2l0.3,0.1l0.4,0.3l0.1,0l0-0.1l0.1-0.1l0,0l0.1,0.1
		l0.1,0l0.1,0l0.1,0.1l0.1,0.1l0.1,0.1l0.1-0.1l0-0.2l0-0.1l0,0l-0.2-0.1l-0.1-0.1l0-0.1l0-0.1l0.2-0.2l0-0.1l-0.2-0.1l0-0.1l0-0.1
		l-0.1-0.1l-0.1,0l0,0.1l0,0.1l0.1,0.1l0,0.1l-0.1,0.2l-0.2,0l-0.3-0.1l0.3,0l0.1-0.1l-0.1-0.2l0-0.1l0-0.1l0-0.1l0-0.1l0-0.1l0-0.1
		l0.1-0.1l0.1,0l0.1,0.1l0,0.2l0-0.1l0.1,0l0.1,0l0.1,0l0-0.3l-0.1-0.2l-0.1-0.1l-0.3-0.1l-0.1-0.1l-0.1-0.1l-0.1-0.2l0.1,0l0.2,0.2
		l0.2,0.1l0.1-0.3l-0.1-0.1l-0.1-0.2l0-0.1l0.1,0.1l0.1,0l0-0.1l-0.2-0.3l0.2-0.1l0-0.2l0.1,0l0.3,0.1l0,0.1l0,0l0.1,0.1l0.1,0.1
		l0.1,0.1l0,0.1l0,0.1l0,0.1l0,0.1l0,0l0.1-0.2l0.1,0l0.2,0.1l0.1,0.1l0,0.2l0.1,0l0.1-0.1l0-0.1l0-0.1l0-0.2l0-0.1l0-0.1l0-0.1
		l0-0.3l0-0.1l0-0.1l-0.1-0.1l-0.1-0.1l0.1,0l0.1,0l0.5,0.4l0.1,0.2l0.1,0.4l0.1,0.1l0.1,0l0.1,0l0.1,0l0.1,0.2l0,0l0.2,0.1l0.2,0
		l0.1,0.1l0.1,0.3l0,0.2l0.1,0l0.1-0.1l0-0.2l0.1-0.1l0,0l0.3-0.1l0.1-0.1l-0.1-0.1l-0.1-0.1l0-0.1l0-0.2l0.1-0.1l0.1,0l0.1,0
		l0.2,0.2l0.1,0.1l0.1,0l0.1-0.1l0.1-0.1l0.1-0.1l0.1,0l0,0.1l0,0.2l0,0.2l0.1,0.1l0.1,0l0,0l0,0l0-0.1l0-0.1l0-0.1l0-0.1l0,0l0-0.1
		l0,0l0,0l0,0l0-0.1l0,0l0.1,0l0.1,0l0,0l0,0.1l0.2,0.1l0.3,0l0,0l0,0.1l0,0l0.1,0l0.1-0.1l0.1-0.2l0.1,0l0.2,0l0.1,0.1l0,0.2l0,0.1
		l0.1,0l0.2,0l0-0.1l0,0l0,0.1l0,0.1l0,0.1l0,0l0.1,0l0,0l0,0l0,0l0-0.1l0-0.2L171.1,70.9L171.1,70.9z"/>
	<g>
		<g>
			<path class="st1" d="M199.5,38.3c-13.4-0.4-24.5,1.5-38.7,14.7"/>
			<g>
				<path class="st2" d="M160.8,52.9c0.3,0,0.6,0.2,0.8,0.4c-0.5-0.1-0.9-0.1-1.4,0.1c0.2-0.4,0.2-0.9,0.2-1.4
					C160.6,52.3,160.8,52.6,160.8,52.9z"/>
			</g>
		</g>
	</g>
	<g>
		<path class="st3" d="M212.7,36.6h-0.9l-0.5-1.3h-3l-0.5,1.3H207l2.4-6h0.9L212.7,36.6z M211.1,34.6l-1.3-3.2l-1.3,3.2H211.1z"/>
		<path class="st3" d="M214.2,36.6h-0.7v-6h0.7V36.6z"/>
		<path class="st3" d="M216.2,36.6h-0.7v-6h0.7v2.3c0.4-0.5,0.9-0.8,1.5-0.8c0.6,0,1,0.2,1.4,0.6s0.5,1,0.5,1.7
			c0,0.7-0.2,1.2-0.5,1.7c-0.4,0.4-0.8,0.6-1.4,0.6c-0.6,0-1.1-0.3-1.5-0.8V36.6z M216.2,35.4c0.1,0.2,0.3,0.4,0.5,0.5
			s0.5,0.2,0.8,0.2c0.4,0,0.8-0.2,1-0.5c0.3-0.3,0.4-0.7,0.4-1.2s-0.1-0.9-0.4-1.2c-0.3-0.3-0.6-0.5-1-0.5c-0.3,0-0.5,0.1-0.8,0.2
			c-0.2,0.1-0.4,0.3-0.5,0.5V35.4z"/>
		<path class="st3" d="M224.1,36.6h-0.7v-0.5c-0.4,0.4-0.8,0.6-1.4,0.6c-0.4,0-0.8-0.1-1.1-0.4c-0.3-0.3-0.5-0.6-0.5-1.1
			c0-0.5,0.2-0.8,0.5-1.1s0.7-0.4,1.1-0.4c0.6,0,1.1,0.2,1.4,0.6v-0.8c0-0.3-0.1-0.5-0.3-0.7s-0.5-0.2-0.8-0.2c-0.5,0-1,0.2-1.3,0.6
			l-0.3-0.5c0.5-0.5,1-0.7,1.7-0.7c0.5,0,0.9,0.1,1.2,0.4c0.3,0.2,0.5,0.6,0.5,1.1V36.6z M222.2,36.2c0.5,0,0.9-0.2,1.2-0.5v-0.8
			c-0.3-0.4-0.7-0.5-1.2-0.5c-0.3,0-0.6,0.1-0.8,0.3c-0.2,0.2-0.3,0.4-0.3,0.7c0,0.3,0.1,0.5,0.3,0.7
			C221.6,36.2,221.9,36.2,222.2,36.2z"/>
		<path class="st3" d="M229,36.6h-0.7v-2.8c0-0.4-0.1-0.6-0.3-0.8c-0.2-0.2-0.4-0.2-0.7-0.2c-0.3,0-0.5,0.1-0.7,0.2
			c-0.2,0.1-0.4,0.3-0.6,0.5v3.2h-0.7v-4.3h0.7v0.6c0.2-0.2,0.4-0.4,0.7-0.5c0.3-0.1,0.6-0.2,0.9-0.2c0.9,0,1.4,0.5,1.4,1.4V36.6z"
			/>
		<path class="st3" d="M230.7,31.7c-0.1,0-0.2,0-0.3-0.1c-0.1-0.1-0.1-0.2-0.1-0.3s0-0.2,0.1-0.3c0.1-0.1,0.2-0.1,0.3-0.1
			c0.1,0,0.2,0,0.3,0.1s0.1,0.2,0.1,0.3s0,0.2-0.1,0.3S230.8,31.7,230.7,31.7z M231.1,36.6h-0.7v-4.3h0.7V36.6z"/>
		<path class="st3" d="M235.8,36.6h-0.7v-0.5c-0.4,0.4-0.8,0.6-1.4,0.6c-0.4,0-0.8-0.1-1.1-0.4s-0.5-0.6-0.5-1.1
			c0-0.5,0.2-0.8,0.5-1.1s0.7-0.4,1.1-0.4c0.6,0,1.1,0.2,1.4,0.6v-0.8c0-0.3-0.1-0.5-0.3-0.7c-0.2-0.2-0.5-0.2-0.8-0.2
			c-0.5,0-1,0.2-1.3,0.6l-0.3-0.5c0.5-0.5,1-0.7,1.7-0.7c0.5,0,0.9,0.1,1.2,0.4c0.3,0.2,0.5,0.6,0.5,1.1V36.6z M233.9,36.2
			c0.5,0,0.9-0.2,1.2-0.5v-0.8c-0.3-0.4-0.7-0.5-1.2-0.5c-0.3,0-0.6,0.1-0.8,0.3c-0.2,0.2-0.3,0.4-0.3,0.7c0,0.3,0.1,0.5,0.3,0.7
			C233.4,36.2,233.6,36.2,233.9,36.2z"/>
	</g>
	<g>
		<path class="st3" d="M211.5,64h-3.9v-6h3.9v0.7h-3.2v1.9h3.1v0.7h-3.1v2.1h3.2V64z"/>
		<path class="st3" d="M213.4,64h-0.7v-4.3h0.7v0.7c0.4-0.5,0.9-0.8,1.4-0.8v0.7c-0.1,0-0.2,0-0.3,0c-0.2,0-0.4,0.1-0.7,0.2
			c-0.2,0.1-0.4,0.3-0.5,0.5V64z"/>
		<path class="st3" d="M216,59.1c-0.1,0-0.2,0-0.3-0.1s-0.1-0.2-0.1-0.3s0-0.2,0.1-0.3s0.2-0.1,0.3-0.1c0.1,0,0.2,0,0.3,0.1
			s0.1,0.2,0.1,0.3s0,0.2-0.1,0.3S216.1,59.1,216,59.1z M216.3,64h-0.7v-4.3h0.7V64z"/>
		<path class="st3" d="M218.8,64.1c-0.3,0-0.6-0.1-0.7-0.3s-0.2-0.4-0.2-0.8v-2.8h-0.7v-0.6h0.7v-1.2h0.7v1.2h0.9v0.6h-0.9V63
			c0,0.2,0,0.3,0.1,0.4c0.1,0.1,0.2,0.2,0.3,0.2c0.2,0,0.4-0.1,0.5-0.2l0.2,0.5C219.4,64.1,219.1,64.1,218.8,64.1z"/>
		<path class="st3" d="M221,64h-0.7v-4.3h0.7v0.7c0.4-0.5,0.9-0.8,1.4-0.8v0.7c-0.1,0-0.2,0-0.3,0c-0.2,0-0.4,0.1-0.7,0.2
			c-0.2,0.1-0.4,0.3-0.5,0.5V64z"/>
		<path class="st3" d="M225.3,64.1c-0.6,0-1.2-0.2-1.6-0.6c-0.4-0.4-0.6-1-0.6-1.7c0-0.6,0.2-1.2,0.6-1.6c0.4-0.4,0.9-0.7,1.5-0.7
			c0.6,0,1.2,0.2,1.5,0.7c0.4,0.4,0.6,1,0.6,1.7v0.2h-3.5c0,0.4,0.2,0.8,0.5,1.1c0.3,0.3,0.6,0.4,1.1,0.4c0.5,0,1-0.2,1.3-0.5
			l0.3,0.4C226.5,63.9,226,64.1,225.3,64.1z M226.6,61.6c0-0.4-0.1-0.7-0.4-1c-0.2-0.3-0.6-0.4-1.1-0.4c-0.4,0-0.8,0.1-1,0.4
			c-0.2,0.3-0.4,0.6-0.4,1H226.6z"/>
		<path class="st3" d="M231.8,64h-0.7v-0.5c-0.4,0.4-0.8,0.6-1.4,0.6c-0.4,0-0.8-0.1-1.1-0.4c-0.3-0.3-0.5-0.6-0.5-1.1
			c0-0.5,0.2-0.8,0.5-1.1c0.3-0.2,0.7-0.4,1.1-0.4c0.6,0,1.1,0.2,1.4,0.6v-0.8c0-0.3-0.1-0.5-0.3-0.7s-0.5-0.2-0.8-0.2
			c-0.5,0-1,0.2-1.3,0.6l-0.3-0.5c0.5-0.5,1-0.7,1.7-0.7c0.5,0,0.9,0.1,1.2,0.4c0.3,0.2,0.5,0.6,0.5,1.1V64z M229.9,63.7
			c0.5,0,0.9-0.2,1.2-0.5v-0.8c-0.3-0.4-0.7-0.5-1.2-0.5c-0.3,0-0.6,0.1-0.8,0.3s-0.3,0.4-0.3,0.7c0,0.3,0.1,0.5,0.3,0.7
			S229.6,63.7,229.9,63.7z"/>
	</g>
	<g>
		<path class="st3" d="M209.5,93.9c-1,0-1.7-0.3-2.3-1l0.4-0.6c0.5,0.6,1.1,0.9,1.9,0.9c0.5,0,0.8-0.1,1.1-0.3
			c0.2-0.2,0.3-0.4,0.3-0.7c0-0.2-0.1-0.4-0.2-0.5c-0.1-0.1-0.3-0.3-0.5-0.3s-0.4-0.2-0.7-0.2c-0.3-0.1-0.5-0.1-0.8-0.2
			s-0.5-0.2-0.7-0.3s-0.4-0.3-0.5-0.5c-0.1-0.2-0.2-0.5-0.2-0.7c0-0.5,0.2-0.9,0.6-1.2c0.4-0.3,0.9-0.5,1.5-0.5
			c0.9,0,1.6,0.3,2.1,0.8l-0.5,0.5c-0.4-0.5-1-0.7-1.7-0.7c-0.4,0-0.7,0.1-0.9,0.3c-0.2,0.2-0.3,0.4-0.3,0.7c0,0.2,0.1,0.4,0.3,0.5
			c0.2,0.1,0.4,0.2,0.7,0.3c0.3,0.1,0.5,0.1,0.9,0.2c0.3,0.1,0.6,0.2,0.9,0.3c0.3,0.1,0.5,0.3,0.7,0.5c0.2,0.2,0.3,0.5,0.3,0.9
			c0,0.5-0.2,0.9-0.5,1.3C210.8,93.7,210.3,93.9,209.5,93.9z"/>
		<path class="st3" d="M214.8,93.9c-0.6,0-1.2-0.2-1.6-0.6c-0.4-0.4-0.6-1-0.6-1.7c0-0.6,0.2-1.2,0.6-1.6c0.4-0.4,0.9-0.7,1.5-0.7
			c0.6,0,1.2,0.2,1.5,0.7c0.4,0.4,0.6,1,0.6,1.7v0.2h-3.5c0,0.4,0.2,0.8,0.5,1.1c0.3,0.3,0.6,0.4,1.1,0.4c0.5,0,1-0.2,1.3-0.5
			l0.3,0.4C216.1,93.6,215.5,93.9,214.8,93.9z M216.2,91.3c0-0.4-0.1-0.7-0.4-1c-0.2-0.3-0.6-0.4-1.1-0.4c-0.4,0-0.8,0.1-1,0.4
			c-0.2,0.3-0.4,0.6-0.4,1H216.2z"/>
		<path class="st3" d="M218.6,93.8h-0.7v-4.3h0.7v0.7c0.4-0.5,0.9-0.8,1.4-0.8V90c-0.1,0-0.2,0-0.3,0c-0.2,0-0.4,0.1-0.7,0.2
			c-0.2,0.1-0.4,0.3-0.5,0.5V93.8z"/>
		<path class="st3" d="M221.6,93.8h-0.7v-6h0.7v2.3c0.4-0.5,0.9-0.8,1.5-0.8c0.6,0,1,0.2,1.4,0.6c0.4,0.4,0.5,1,0.5,1.7
			c0,0.7-0.2,1.2-0.5,1.7s-0.8,0.6-1.4,0.6c-0.6,0-1.1-0.3-1.5-0.8V93.8z M221.6,92.6c0.1,0.2,0.3,0.4,0.5,0.5
			c0.2,0.1,0.5,0.2,0.8,0.2c0.4,0,0.8-0.2,1-0.5c0.3-0.3,0.4-0.7,0.4-1.2s-0.1-0.9-0.4-1.2c-0.3-0.3-0.6-0.5-1-0.5
			c-0.3,0-0.5,0.1-0.8,0.2c-0.2,0.1-0.4,0.3-0.5,0.5V92.6z"/>
		<path class="st3" d="M226.4,88.8c-0.1,0-0.2,0-0.3-0.1s-0.1-0.2-0.1-0.3s0-0.2,0.1-0.3s0.2-0.1,0.3-0.1c0.1,0,0.2,0,0.3,0.1
			s0.1,0.2,0.1,0.3s0,0.2-0.1,0.3S226.5,88.8,226.4,88.8z M226.7,93.8h-0.7v-4.3h0.7V93.8z"/>
		<path class="st3" d="M231.5,93.8h-0.7v-0.5c-0.4,0.4-0.8,0.6-1.4,0.6c-0.4,0-0.8-0.1-1.1-0.4c-0.3-0.3-0.5-0.6-0.5-1.1
			c0-0.5,0.2-0.8,0.5-1.1s0.7-0.4,1.1-0.4c0.6,0,1.1,0.2,1.4,0.6v-0.8c0-0.3-0.1-0.5-0.3-0.7s-0.5-0.2-0.8-0.2c-0.5,0-1,0.2-1.3,0.6
			l-0.3-0.5c0.5-0.5,1-0.7,1.7-0.7c0.5,0,0.9,0.1,1.2,0.4c0.3,0.2,0.5,0.6,0.5,1.1V93.8z M229.6,93.4c0.5,0,0.9-0.2,1.2-0.5V92
			c-0.3-0.4-0.7-0.5-1.2-0.5c-0.3,0-0.6,0.1-0.8,0.3c-0.2,0.2-0.3,0.4-0.3,0.7c0,0.3,0.1,0.5,0.3,0.7
			C229,93.3,229.3,93.4,229.6,93.4z"/>
	</g>
	<g>
		<path class="st3" d="M212.1,124.7h-0.9l-2.3-2.7l-0.6,0.7v2h-0.7v-6h0.7v3.1l2.7-3.1h0.9l-2.5,2.9L212.1,124.7z"/>
		<path class="st3" d="M216.1,124.1c-0.4,0.4-0.9,0.7-1.6,0.7c-0.6,0-1.2-0.2-1.6-0.7c-0.4-0.4-0.6-1-0.6-1.6c0-0.6,0.2-1.2,0.6-1.6
			s0.9-0.7,1.6-0.7c0.6,0,1.2,0.2,1.6,0.7s0.6,1,0.6,1.6C216.7,123.1,216.5,123.7,216.1,124.1z M213.5,123.7
			c0.3,0.3,0.6,0.5,1.1,0.5s0.8-0.2,1.1-0.5c0.3-0.3,0.4-0.7,0.4-1.2s-0.1-0.9-0.4-1.2c-0.3-0.3-0.6-0.5-1.1-0.5s-0.8,0.2-1.1,0.5
			c-0.3,0.3-0.4,0.7-0.4,1.2C213.1,123,213.2,123.4,213.5,123.7z"/>
		<path class="st3" d="M219.2,124.8c-0.7,0-1.3-0.2-1.8-0.7l0.4-0.5c0.2,0.2,0.4,0.3,0.6,0.4c0.3,0.1,0.5,0.2,0.8,0.2
			c0.3,0,0.6-0.1,0.8-0.2c0.2-0.1,0.3-0.3,0.3-0.5c0-0.2-0.1-0.3-0.3-0.5s-0.4-0.2-0.7-0.3c-0.3-0.1-0.5-0.1-0.8-0.2
			c-0.3-0.1-0.5-0.2-0.7-0.4c-0.2-0.2-0.3-0.4-0.3-0.7c0-0.4,0.1-0.7,0.4-0.9s0.7-0.4,1.2-0.4c0.7,0,1.2,0.2,1.6,0.6l-0.3,0.5
			c-0.3-0.4-0.7-0.5-1.3-0.5c-0.3,0-0.5,0.1-0.7,0.2s-0.3,0.3-0.3,0.5c0,0.2,0.1,0.3,0.3,0.4c0.2,0.1,0.4,0.2,0.7,0.2
			c0.3,0.1,0.5,0.1,0.8,0.2s0.5,0.2,0.7,0.4s0.3,0.4,0.3,0.8c0,0.4-0.2,0.7-0.5,0.9C220.2,124.6,219.7,124.8,219.2,124.8z"/>
		<path class="st3" d="M225.5,124.1c-0.4,0.4-0.9,0.7-1.6,0.7s-1.2-0.2-1.6-0.7c-0.4-0.4-0.6-1-0.6-1.6c0-0.6,0.2-1.2,0.6-1.6
			c0.4-0.4,0.9-0.7,1.6-0.7s1.2,0.2,1.6,0.7c0.4,0.4,0.6,1,0.6,1.6C226.1,123.1,225.9,123.7,225.5,124.1z M222.8,123.7
			c0.3,0.3,0.6,0.5,1.1,0.5c0.4,0,0.8-0.2,1.1-0.5c0.3-0.3,0.4-0.7,0.4-1.2s-0.1-0.9-0.4-1.2c-0.3-0.3-0.6-0.5-1.1-0.5
			c-0.4,0-0.8,0.2-1.1,0.5c-0.3,0.3-0.4,0.7-0.4,1.2C222.5,123,222.6,123.4,222.8,123.7z"/>
		<path class="st3" d="M229.1,124.7h-0.7l-1.8-4.3h0.7l1.4,3.6l1.4-3.6h0.7L229.1,124.7z"/>
		<path class="st3" d="M235,124.1c-0.4,0.4-0.9,0.7-1.6,0.7c-0.6,0-1.2-0.2-1.6-0.7c-0.4-0.4-0.6-1-0.6-1.6c0-0.6,0.2-1.2,0.6-1.6
			s0.9-0.7,1.6-0.7c0.6,0,1.2,0.2,1.6,0.7s0.6,1,0.6,1.6C235.6,123.1,235.4,123.7,235,124.1z M232.4,123.7c0.3,0.3,0.6,0.5,1.1,0.5
			s0.8-0.2,1.1-0.5c0.3-0.3,0.4-0.7,0.4-1.2s-0.1-0.9-0.4-1.2c-0.3-0.3-0.6-0.5-1.1-0.5s-0.8,0.2-1.1,0.5c-0.3,0.3-0.4,0.7-0.4,1.2
			C232,123,232.1,123.4,232.4,123.7z"/>
	</g>
	<g>
		<path class="st3" d="M41.6,34.8c-1,0-1.7-0.3-2.3-1l0.4-0.6c0.5,0.6,1.1,0.9,1.9,0.9c0.5,0,0.8-0.1,1.1-0.3
			c0.2-0.2,0.3-0.4,0.3-0.7c0-0.2-0.1-0.4-0.2-0.5c-0.1-0.1-0.3-0.3-0.5-0.3s-0.4-0.2-0.7-0.2c-0.3-0.1-0.5-0.1-0.8-0.2
			c-0.3-0.1-0.5-0.2-0.7-0.3s-0.4-0.3-0.5-0.5c-0.1-0.2-0.2-0.5-0.2-0.7c0-0.5,0.2-0.9,0.6-1.2c0.4-0.3,0.9-0.5,1.5-0.5
			c0.9,0,1.6,0.3,2.1,0.8L43.2,30c-0.4-0.5-1-0.7-1.7-0.7c-0.4,0-0.7,0.1-0.9,0.3c-0.2,0.2-0.3,0.4-0.3,0.7c0,0.2,0.1,0.4,0.3,0.5
			c0.2,0.1,0.4,0.2,0.7,0.3c0.3,0.1,0.5,0.1,0.9,0.2c0.3,0.1,0.6,0.2,0.9,0.3c0.3,0.1,0.5,0.3,0.7,0.5c0.2,0.2,0.3,0.5,0.3,0.9
			c0,0.5-0.2,0.9-0.5,1.3C42.9,34.6,42.3,34.8,41.6,34.8z"/>
		<path class="st3" d="M48.3,34.2c-0.4,0.4-0.9,0.7-1.6,0.7c-0.6,0-1.2-0.2-1.6-0.7c-0.4-0.4-0.6-1-0.6-1.6c0-0.6,0.2-1.2,0.6-1.6
			c0.4-0.4,0.9-0.7,1.6-0.7c0.6,0,1.2,0.2,1.6,0.7c0.4,0.4,0.6,1,0.6,1.6C48.9,33.2,48.7,33.7,48.3,34.2z M45.7,33.7
			c0.3,0.3,0.6,0.5,1.1,0.5s0.8-0.2,1.1-0.5s0.4-0.7,0.4-1.2c0-0.5-0.1-0.9-0.4-1.2s-0.6-0.5-1.1-0.5S46,31,45.7,31.3
			c-0.3,0.3-0.4,0.7-0.4,1.2C45.3,33,45.4,33.4,45.7,33.7z"/>
		<path class="st3" d="M55.9,34.7h-0.7v-3c0-0.6-0.3-0.9-0.8-0.9c-0.2,0-0.4,0.1-0.6,0.2s-0.4,0.3-0.5,0.5v3.2h-0.7v-3
			c0-0.6-0.3-0.9-0.8-0.9c-0.2,0-0.4,0.1-0.6,0.2s-0.4,0.3-0.5,0.5v3.2H50v-4.3h0.7V31c0.1-0.2,0.3-0.3,0.6-0.5
			c0.3-0.2,0.5-0.2,0.8-0.2c0.3,0,0.6,0.1,0.8,0.2c0.2,0.2,0.3,0.3,0.4,0.6c0.1-0.2,0.3-0.4,0.6-0.6s0.6-0.2,0.9-0.2
			c0.8,0,1.2,0.4,1.2,1.3V34.7z"/>
		<path class="st3" d="M60.7,34.7H60v-0.5c-0.4,0.4-0.8,0.6-1.4,0.6c-0.4,0-0.8-0.1-1.1-0.4c-0.3-0.3-0.5-0.6-0.5-1.1
			c0-0.5,0.2-0.8,0.5-1.1c0.3-0.2,0.7-0.4,1.1-0.4c0.6,0,1.1,0.2,1.4,0.6v-0.8c0-0.3-0.1-0.5-0.3-0.7s-0.5-0.2-0.8-0.2
			c-0.5,0-1,0.2-1.3,0.6L57.3,31c0.5-0.5,1-0.7,1.7-0.7c0.5,0,0.9,0.1,1.2,0.4c0.3,0.2,0.5,0.6,0.5,1.1V34.7z M58.8,34.3
			c0.5,0,0.9-0.2,1.2-0.5V33c-0.3-0.4-0.7-0.5-1.2-0.5c-0.3,0-0.6,0.1-0.8,0.3s-0.3,0.4-0.3,0.7c0,0.3,0.1,0.5,0.3,0.7
			S58.5,34.3,58.8,34.3z"/>
		<path class="st3" d="M62.7,34.7H62v-6h0.7V34.7z"/>
		<path class="st3" d="M64.4,29.7c-0.1,0-0.2,0-0.3-0.1c-0.1-0.1-0.1-0.2-0.1-0.3s0-0.2,0.1-0.3c0.1-0.1,0.2-0.1,0.3-0.1
			c0.1,0,0.2,0,0.3,0.1s0.1,0.2,0.1,0.3s0,0.2-0.1,0.3S64.5,29.7,64.4,29.7z M64.7,34.7H64v-4.3h0.7V34.7z"/>
		<path class="st3" d="M69.5,34.7h-0.7v-0.5c-0.4,0.4-0.8,0.6-1.4,0.6c-0.4,0-0.8-0.1-1.1-0.4c-0.3-0.3-0.5-0.6-0.5-1.1
			c0-0.5,0.2-0.8,0.5-1.1c0.3-0.2,0.7-0.4,1.1-0.4c0.6,0,1.1,0.2,1.4,0.6v-0.8c0-0.3-0.1-0.5-0.3-0.7s-0.5-0.2-0.8-0.2
			c-0.5,0-1,0.2-1.3,0.6L66,31c0.5-0.5,1-0.7,1.7-0.7c0.5,0,0.9,0.1,1.2,0.4c0.3,0.2,0.5,0.6,0.5,1.1V34.7z M67.6,34.3
			c0.5,0,0.9-0.2,1.2-0.5V33c-0.3-0.4-0.7-0.5-1.2-0.5c-0.3,0-0.6,0.1-0.8,0.3s-0.3,0.4-0.3,0.7c0,0.3,0.1,0.5,0.3,0.7
			S67.3,34.3,67.6,34.3z"/>
	</g>
	<g>
		<path class="st3" d="M142.9,16.6h-0.7v-6h0.7V16.6z"/>
		<path class="st3" d="M144.9,16.6h-0.7v-4.3h0.7v0.7c0.4-0.5,0.9-0.8,1.4-0.8v0.7c-0.1,0-0.2,0-0.3,0c-0.2,0-0.4,0.1-0.7,0.2
			c-0.2,0.1-0.4,0.3-0.5,0.5V16.6z"/>
		<path class="st3" d="M150.6,16.6H150v-0.5c-0.4,0.4-0.8,0.6-1.4,0.6c-0.4,0-0.8-0.1-1.1-0.4c-0.3-0.3-0.5-0.6-0.5-1.1
			c0-0.5,0.2-0.8,0.5-1.1c0.3-0.2,0.7-0.4,1.1-0.4c0.6,0,1.1,0.2,1.4,0.6v-0.8c0-0.3-0.1-0.5-0.3-0.7s-0.5-0.2-0.8-0.2
			c-0.5,0-1,0.2-1.3,0.6l-0.3-0.5c0.5-0.5,1-0.7,1.7-0.7c0.5,0,0.9,0.1,1.2,0.4c0.3,0.2,0.5,0.6,0.5,1.1V16.6z M148.8,16.2
			c0.5,0,0.9-0.2,1.2-0.5v-0.8c-0.3-0.4-0.7-0.5-1.2-0.5c-0.3,0-0.6,0.1-0.8,0.3s-0.3,0.4-0.3,0.7c0,0.3,0.1,0.5,0.3,0.7
			S148.5,16.2,148.8,16.2z"/>
		<path class="st3" d="M153.6,16.7c-0.6,0-1-0.2-1.4-0.6c-0.4-0.4-0.5-1-0.5-1.7c0-0.7,0.2-1.2,0.5-1.7s0.8-0.6,1.4-0.6
			c0.3,0,0.6,0.1,0.8,0.2s0.5,0.3,0.6,0.5v-0.6h0.7v6h-0.7v-2.3C154.7,16.4,154.2,16.7,153.6,16.7z M153.8,16.1
			c0.3,0,0.5-0.1,0.8-0.2c0.2-0.1,0.4-0.3,0.5-0.5v-2c-0.1-0.2-0.3-0.4-0.5-0.5c-0.2-0.1-0.5-0.2-0.8-0.2c-0.4,0-0.8,0.2-1,0.5
			c-0.2,0.3-0.4,0.7-0.4,1.2c0,0.5,0.1,0.9,0.4,1.2S153.4,16.1,153.8,16.1z"/>
	</g>
	<g>
		<path class="st3" d="M53.4,149.8c-1,0-1.7-0.3-2.3-1l0.4-0.6c0.5,0.6,1.1,0.9,1.9,0.9c0.5,0,0.8-0.1,1.1-0.3s0.3-0.4,0.3-0.7
			c0-0.2-0.1-0.4-0.2-0.5c-0.1-0.1-0.3-0.3-0.5-0.3s-0.4-0.2-0.7-0.2c-0.3-0.1-0.5-0.1-0.8-0.2c-0.3-0.1-0.5-0.2-0.7-0.3
			s-0.4-0.3-0.5-0.5c-0.1-0.2-0.2-0.5-0.2-0.7c0-0.5,0.2-0.9,0.6-1.2c0.4-0.3,0.9-0.5,1.5-0.5c0.9,0,1.6,0.3,2.1,0.8L55,145
			c-0.4-0.5-1-0.7-1.7-0.7c-0.4,0-0.7,0.1-0.9,0.3c-0.2,0.2-0.3,0.4-0.3,0.7c0,0.2,0.1,0.4,0.3,0.5s0.4,0.2,0.7,0.3
			c0.3,0.1,0.5,0.1,0.9,0.2c0.3,0.1,0.6,0.2,0.9,0.3c0.3,0.1,0.5,0.3,0.7,0.5c0.2,0.2,0.3,0.5,0.3,0.9c0,0.5-0.2,0.9-0.5,1.3
			S54.2,149.8,53.4,149.8z"/>
		<path class="st3" d="M56.4,151.4l0.1-0.6c0.1,0,0.2,0.1,0.4,0.1c0.2,0,0.3,0,0.4-0.1c0.1-0.1,0.2-0.2,0.3-0.4l0.3-0.7l-1.8-4.4
			h0.7l1.4,3.6l1.4-3.6h0.7l-2.2,5.2c-0.2,0.6-0.7,0.9-1.3,0.9C56.7,151.4,56.6,151.4,56.4,151.4z"/>
		<path class="st3" d="M61.8,149.7h-0.7v-4.3h0.7v0.7c0.4-0.5,0.9-0.8,1.4-0.8v0.7c-0.1,0-0.2,0-0.3,0c-0.2,0-0.4,0.1-0.7,0.2
			c-0.2,0.1-0.4,0.3-0.5,0.5V149.7z"/>
		<path class="st3" d="M64.4,144.7c-0.1,0-0.2,0-0.3-0.1c-0.1-0.1-0.1-0.2-0.1-0.3s0-0.2,0.1-0.3c0.1-0.1,0.2-0.1,0.3-0.1
			c0.1,0,0.2,0,0.3,0.1s0.1,0.2,0.1,0.3s0,0.2-0.1,0.3S64.5,144.7,64.4,144.7z M64.7,149.7H64v-4.3h0.7V149.7z"/>
		<path class="st3" d="M69.5,149.7h-0.7v-0.5c-0.4,0.4-0.8,0.6-1.4,0.6c-0.4,0-0.8-0.1-1.1-0.4s-0.5-0.6-0.5-1.1
			c0-0.5,0.2-0.8,0.5-1.1s0.7-0.4,1.1-0.4c0.6,0,1.1,0.2,1.4,0.6v-0.8c0-0.3-0.1-0.5-0.3-0.7c-0.2-0.2-0.5-0.2-0.8-0.2
			c-0.5,0-1,0.2-1.3,0.6L66,146c0.5-0.5,1-0.7,1.7-0.7c0.5,0,0.9,0.1,1.2,0.4c0.3,0.2,0.5,0.6,0.5,1.1V149.7z M67.6,149.3
			c0.5,0,0.9-0.2,1.2-0.5v-0.8c-0.3-0.4-0.7-0.5-1.2-0.5c-0.3,0-0.6,0.1-0.8,0.3c-0.2,0.2-0.3,0.4-0.3,0.7c0,0.3,0.1,0.5,0.3,0.7
			C67,149.2,67.3,149.3,67.6,149.3z"/>
	</g>
	<g>
		<path class="st3" d="M29.2,63.6h-0.9l-0.5-1.3h-3l-0.5,1.3h-0.9l2.4-6h0.9L29.2,63.6z M27.6,61.6l-1.3-3.2L25,61.6H27.6z"/>
		<path class="st3" d="M30.7,63.6h-0.7v-3.8h-0.7v-0.6h0.7v-0.3c0-0.4,0.1-0.8,0.3-1c0.2-0.2,0.5-0.4,0.9-0.4c0.4,0,0.7,0.1,0.9,0.3
			L32,58.3c-0.2-0.1-0.3-0.2-0.5-0.2c-0.2,0-0.4,0.1-0.5,0.2c-0.1,0.1-0.2,0.4-0.2,0.6v0.3h0.9v0.6h-0.9V63.6z"/>
		<path class="st3" d="M34.2,65.3c-0.4,0-0.7,0-1-0.1s-0.5-0.3-0.8-0.5l0.3-0.5c0.3,0.4,0.8,0.6,1.4,0.6c0.4,0,0.7-0.1,1-0.3
			c0.3-0.2,0.4-0.5,0.4-1v-0.6c-0.2,0.2-0.4,0.4-0.6,0.6c-0.3,0.1-0.5,0.2-0.8,0.2c-0.6,0-1-0.2-1.4-0.6s-0.5-1-0.5-1.6
			c0-0.7,0.2-1.2,0.5-1.6c0.4-0.4,0.8-0.6,1.4-0.6c0.6,0,1.1,0.3,1.5,0.8v-0.7h0.7v4.2c0,0.7-0.2,1.1-0.6,1.4
			C35.3,65.2,34.8,65.3,34.2,65.3z M34.3,63c0.3,0,0.5-0.1,0.8-0.2c0.2-0.1,0.4-0.3,0.5-0.5v-1.9c-0.1-0.2-0.3-0.4-0.5-0.5
			c-0.2-0.1-0.5-0.2-0.8-0.2c-0.4,0-0.8,0.2-1,0.5c-0.2,0.3-0.4,0.7-0.4,1.2c0,0.5,0.1,0.9,0.4,1.2C33.5,62.9,33.8,63,34.3,63z"/>
		<path class="st3" d="M41.2,63.6h-0.7v-2.9c0-0.4-0.1-0.6-0.3-0.8c-0.2-0.2-0.4-0.2-0.7-0.2c-0.2,0-0.5,0.1-0.7,0.2
			s-0.4,0.3-0.6,0.5v3.2h-0.7v-6h0.7v2.3c0.2-0.2,0.4-0.4,0.7-0.5c0.3-0.1,0.6-0.2,0.9-0.2c0.9,0,1.4,0.5,1.4,1.4V63.6z"/>
		<path class="st3" d="M45.9,63.6h-0.7v-0.5c-0.4,0.4-0.8,0.6-1.4,0.6c-0.4,0-0.8-0.1-1.1-0.4c-0.3-0.3-0.5-0.6-0.5-1.1
			c0-0.5,0.2-0.8,0.5-1.1c0.3-0.2,0.7-0.4,1.1-0.4c0.6,0,1.1,0.2,1.4,0.6v-0.8c0-0.3-0.1-0.5-0.3-0.7c-0.2-0.2-0.5-0.2-0.8-0.2
			c-0.5,0-1,0.2-1.3,0.6l-0.3-0.5c0.5-0.5,1-0.7,1.7-0.7c0.5,0,0.9,0.1,1.2,0.4c0.3,0.2,0.5,0.6,0.5,1.1V63.6z M44.1,63.2
			c0.5,0,0.9-0.2,1.2-0.5v-0.8c-0.3-0.4-0.7-0.5-1.2-0.5c-0.3,0-0.6,0.1-0.8,0.3S43,62,43,62.3c0,0.3,0.1,0.5,0.3,0.7
			S43.8,63.2,44.1,63.2z"/>
		<path class="st3" d="M50.9,63.6h-0.7v-2.8c0-0.4-0.1-0.6-0.3-0.8c-0.2-0.2-0.4-0.2-0.7-0.2c-0.3,0-0.5,0.1-0.7,0.2
			c-0.2,0.1-0.4,0.3-0.6,0.5v3.2h-0.7v-4.3H48v0.6c0.2-0.2,0.4-0.4,0.7-0.5c0.3-0.1,0.6-0.2,0.9-0.2c0.9,0,1.4,0.5,1.4,1.4V63.6z"/>
		<path class="st3" d="M52.6,58.6c-0.1,0-0.2,0-0.3-0.1s-0.1-0.2-0.1-0.3s0-0.2,0.1-0.3s0.2-0.1,0.3-0.1c0.1,0,0.2,0,0.3,0.1
			S53,58,53,58.2s0,0.2-0.1,0.3S52.7,58.6,52.6,58.6z M52.9,63.6h-0.7v-4.3h0.7V63.6z"/>
		<path class="st3" d="M55.7,63.7c-0.7,0-1.3-0.2-1.8-0.7l0.4-0.5c0.1,0.2,0.4,0.3,0.6,0.4s0.5,0.2,0.8,0.2c0.3,0,0.6-0.1,0.8-0.2
			c0.2-0.1,0.3-0.3,0.3-0.5c0-0.2-0.1-0.3-0.3-0.5s-0.4-0.2-0.7-0.3c-0.3-0.1-0.5-0.1-0.8-0.2c-0.3-0.1-0.5-0.2-0.7-0.4
			c-0.2-0.2-0.3-0.4-0.3-0.7c0-0.4,0.1-0.7,0.4-0.9c0.3-0.2,0.7-0.4,1.2-0.4c0.7,0,1.2,0.2,1.6,0.6l-0.3,0.5
			c-0.3-0.4-0.7-0.5-1.3-0.5c-0.3,0-0.5,0.1-0.7,0.2s-0.3,0.3-0.3,0.5c0,0.2,0.1,0.3,0.3,0.4c0.2,0.1,0.4,0.2,0.7,0.2
			c0.3,0.1,0.5,0.1,0.8,0.2c0.3,0.1,0.5,0.2,0.7,0.4c0.2,0.2,0.3,0.4,0.3,0.8c0,0.4-0.2,0.7-0.4,0.9C56.6,63.6,56.2,63.7,55.7,63.7z
			"/>
		<path class="st3" d="M59.6,63.7c-0.3,0-0.6-0.1-0.7-0.3s-0.2-0.4-0.2-0.8v-2.8h-0.7v-0.6h0.7V58h0.7v1.2h0.9v0.6h-0.9v2.7
			c0,0.2,0,0.3,0.1,0.4c0.1,0.1,0.2,0.2,0.3,0.2c0.2,0,0.4-0.1,0.5-0.2l0.2,0.5C60.2,63.6,59.9,63.7,59.6,63.7z"/>
		<path class="st3" d="M64.5,63.6h-0.7v-0.5c-0.4,0.4-0.8,0.6-1.4,0.6c-0.4,0-0.8-0.1-1.1-0.4c-0.3-0.3-0.5-0.6-0.5-1.1
			c0-0.5,0.2-0.8,0.5-1.1c0.3-0.2,0.7-0.4,1.1-0.4c0.6,0,1.1,0.2,1.4,0.6v-0.8c0-0.3-0.1-0.5-0.3-0.7s-0.5-0.2-0.8-0.2
			c-0.5,0-1,0.2-1.3,0.6l-0.3-0.5c0.5-0.5,1-0.7,1.7-0.7c0.5,0,0.9,0.1,1.2,0.4c0.3,0.2,0.5,0.6,0.5,1.1V63.6z M62.6,63.2
			c0.5,0,0.9-0.2,1.2-0.5v-0.8c-0.3-0.4-0.7-0.5-1.2-0.5c-0.3,0-0.6,0.1-0.8,0.3s-0.3,0.4-0.3,0.7c0,0.3,0.1,0.5,0.3,0.7
			S62.3,63.2,62.6,63.2z"/>
		<path class="st3" d="M69.5,63.6h-0.7v-2.8c0-0.4-0.1-0.6-0.3-0.8c-0.2-0.2-0.4-0.2-0.7-0.2c-0.3,0-0.5,0.1-0.7,0.2
			s-0.4,0.3-0.6,0.5v3.2h-0.7v-4.3h0.7v0.6c0.2-0.2,0.4-0.4,0.7-0.5c0.3-0.1,0.6-0.2,0.9-0.2c0.9,0,1.4,0.5,1.4,1.4V63.6z"/>
	</g>
	<g>
		<path class="st3" d="M56.8,93.8H56v-6h0.7V93.8z"/>
		<path class="st3" d="M58.8,93.8h-0.7v-4.3h0.7v0.7c0.4-0.5,0.9-0.8,1.4-0.8V90c-0.1,0-0.2,0-0.3,0c-0.2,0-0.4,0.1-0.7,0.2
			c-0.2,0.1-0.4,0.3-0.5,0.5V93.8z"/>
		<path class="st3" d="M64.5,93.8h-0.7v-0.5c-0.4,0.4-0.8,0.6-1.4,0.6c-0.4,0-0.8-0.1-1.1-0.4s-0.5-0.6-0.5-1.1
			c0-0.5,0.2-0.8,0.5-1.1S62,91,62.4,91c0.6,0,1.1,0.2,1.4,0.6v-0.8c0-0.3-0.1-0.5-0.3-0.7c-0.2-0.2-0.5-0.2-0.8-0.2
			c-0.5,0-1,0.2-1.3,0.6L61.1,90c0.5-0.5,1-0.7,1.7-0.7c0.5,0,0.9,0.1,1.2,0.4c0.3,0.2,0.5,0.6,0.5,1.1V93.8z M62.6,93.4
			c0.5,0,0.9-0.2,1.2-0.5V92c-0.3-0.4-0.7-0.5-1.2-0.5c-0.3,0-0.6,0.1-0.8,0.3c-0.2,0.2-0.3,0.4-0.3,0.7c0,0.3,0.1,0.5,0.3,0.7
			C62.1,93.3,62.3,93.4,62.6,93.4z"/>
		<path class="st3" d="M69.5,93.8h-0.7v-2.8c0-0.4-0.1-0.6-0.3-0.8c-0.2-0.2-0.4-0.2-0.7-0.2c-0.3,0-0.5,0.1-0.7,0.2
			c-0.2,0.1-0.4,0.3-0.6,0.5v3.2h-0.7v-4.3h0.7V90c0.2-0.2,0.4-0.4,0.7-0.5c0.3-0.1,0.6-0.2,0.9-0.2c0.9,0,1.4,0.5,1.4,1.4V93.8z"/>
	</g>
	<g>
		<path class="st3" d="M37.1,121.7c-1,0-1.7-0.3-2.3-1l0.4-0.6c0.5,0.6,1.1,0.9,1.9,0.9c0.5,0,0.8-0.1,1.1-0.3
			c0.2-0.2,0.3-0.4,0.3-0.7c0-0.2-0.1-0.4-0.2-0.5c-0.1-0.1-0.3-0.3-0.5-0.3s-0.4-0.2-0.7-0.2c-0.3-0.1-0.5-0.1-0.8-0.2
			c-0.3-0.1-0.5-0.2-0.7-0.3s-0.4-0.3-0.5-0.5c-0.1-0.2-0.2-0.5-0.2-0.7c0-0.5,0.2-0.9,0.6-1.2c0.4-0.3,0.9-0.5,1.5-0.5
			c0.9,0,1.6,0.3,2.1,0.8l-0.5,0.5c-0.4-0.5-1-0.7-1.7-0.7c-0.4,0-0.7,0.1-0.9,0.3c-0.2,0.2-0.3,0.4-0.3,0.7c0,0.2,0.1,0.4,0.3,0.5
			c0.2,0.1,0.4,0.2,0.7,0.3c0.3,0.1,0.5,0.1,0.9,0.2c0.3,0.1,0.6,0.2,0.9,0.3c0.3,0.1,0.5,0.3,0.7,0.5c0.2,0.2,0.3,0.5,0.3,0.9
			c0,0.5-0.2,0.9-0.5,1.3C38.4,121.5,37.9,121.7,37.1,121.7z"/>
		<path class="st3" d="M41.3,121.7c-0.3,0-0.6-0.1-0.7-0.3c-0.2-0.2-0.2-0.4-0.2-0.8v-2.8h-0.7v-0.6h0.7V116h0.7v1.2h0.9v0.6h-0.9
			v2.7c0,0.2,0,0.3,0.1,0.4c0.1,0.1,0.2,0.2,0.3,0.2c0.2,0,0.4-0.1,0.5-0.2l0.2,0.5C42,121.6,41.7,121.7,41.3,121.7z"/>
		<path class="st3" d="M46.3,121.5h-0.7v-0.5c-0.4,0.4-0.8,0.6-1.4,0.6c-0.4,0-0.8-0.1-1.1-0.4c-0.3-0.3-0.5-0.6-0.5-1.1
			c0-0.5,0.2-0.8,0.5-1.1s0.7-0.4,1.1-0.4c0.6,0,1.1,0.2,1.4,0.6v-0.8c0-0.3-0.1-0.5-0.3-0.7s-0.5-0.2-0.8-0.2c-0.5,0-1,0.2-1.3,0.6
			l-0.3-0.5c0.5-0.5,1-0.7,1.7-0.7c0.5,0,0.9,0.1,1.2,0.4c0.3,0.2,0.5,0.6,0.5,1.1V121.5z M44.4,121.2c0.5,0,0.9-0.2,1.2-0.5v-0.8
			c-0.3-0.4-0.7-0.5-1.2-0.5c-0.3,0-0.6,0.1-0.8,0.3c-0.2,0.2-0.3,0.4-0.3,0.7c0,0.3,0.1,0.5,0.3,0.7
			C43.8,121.1,44.1,121.2,44.4,121.2z"/>
		<path class="st3" d="M48.7,121.7c-0.3,0-0.6-0.1-0.7-0.3c-0.2-0.2-0.2-0.4-0.2-0.8v-2.8h-0.7v-0.6h0.7V116h0.7v1.2h0.9v0.6h-0.9
			v2.7c0,0.2,0,0.3,0.1,0.4c0.1,0.1,0.2,0.2,0.3,0.2c0.2,0,0.4-0.1,0.5-0.2l0.2,0.5C49.4,121.6,49.1,121.7,48.7,121.7z"/>
		<path class="st3" d="M52.2,121.7c-0.6,0-1.2-0.2-1.6-0.6c-0.4-0.4-0.6-1-0.6-1.7c0-0.6,0.2-1.2,0.6-1.6c0.4-0.4,0.9-0.7,1.5-0.7
			c0.6,0,1.2,0.2,1.5,0.7c0.4,0.4,0.6,1,0.6,1.7v0.2h-3.5c0,0.4,0.2,0.8,0.5,1.1c0.3,0.3,0.6,0.4,1.1,0.4c0.5,0,1-0.2,1.3-0.5
			L54,121C53.5,121.4,53,121.7,52.2,121.7z M53.6,119.1c0-0.4-0.1-0.7-0.4-1c-0.2-0.3-0.6-0.4-1.1-0.4c-0.4,0-0.8,0.1-1,0.4
			c-0.2,0.3-0.4,0.6-0.4,1H53.6z"/>
		<path class="st3" d="M56,121.5h-0.7v-6H56V121.5z"/>
		<path class="st3" d="M59.3,121.7c-0.6,0-1.2-0.2-1.6-0.6c-0.4-0.4-0.6-1-0.6-1.7c0-0.6,0.2-1.2,0.6-1.6c0.4-0.4,0.9-0.7,1.5-0.7
			c0.6,0,1.2,0.2,1.5,0.7c0.4,0.4,0.6,1,0.6,1.7v0.2h-3.5c0,0.4,0.2,0.8,0.5,1.1c0.3,0.3,0.6,0.4,1.1,0.4c0.5,0,1-0.2,1.3-0.5
			l0.3,0.4C60.6,121.4,60,121.7,59.3,121.7z M60.7,119.1c0-0.4-0.1-0.7-0.4-1c-0.2-0.3-0.6-0.4-1.1-0.4c-0.4,0-0.8,0.1-1,0.4
			c-0.2,0.3-0.4,0.6-0.4,1H60.7z"/>
		<path class="st3" d="M63.8,121.7c-0.7,0-1.3-0.2-1.8-0.7l0.4-0.5c0.2,0.2,0.4,0.3,0.6,0.4c0.3,0.1,0.5,0.2,0.8,0.2
			c0.3,0,0.6-0.1,0.8-0.2c0.2-0.1,0.3-0.3,0.3-0.5c0-0.2-0.1-0.3-0.3-0.5c-0.2-0.1-0.4-0.2-0.7-0.3c-0.3-0.1-0.5-0.1-0.8-0.2
			s-0.5-0.2-0.7-0.4c-0.2-0.2-0.3-0.4-0.3-0.7c0-0.4,0.1-0.7,0.4-0.9c0.3-0.2,0.7-0.4,1.2-0.4c0.7,0,1.2,0.2,1.6,0.6l-0.3,0.5
			c-0.3-0.4-0.7-0.5-1.3-0.5c-0.3,0-0.5,0.1-0.7,0.2c-0.2,0.1-0.3,0.3-0.3,0.5c0,0.2,0.1,0.3,0.3,0.4c0.2,0.1,0.4,0.2,0.7,0.2
			c0.3,0.1,0.5,0.1,0.8,0.2s0.5,0.2,0.7,0.4c0.2,0.2,0.3,0.4,0.3,0.8c0,0.4-0.2,0.7-0.5,0.9C64.8,121.5,64.4,121.7,63.8,121.7z"/>
		<path class="st3" d="M68,121.7c-0.7,0-1.3-0.2-1.8-0.7l0.4-0.5c0.2,0.2,0.4,0.3,0.6,0.4c0.3,0.1,0.5,0.2,0.8,0.2
			c0.3,0,0.6-0.1,0.8-0.2c0.2-0.1,0.3-0.3,0.3-0.5c0-0.2-0.1-0.3-0.3-0.5s-0.4-0.2-0.7-0.3c-0.3-0.1-0.5-0.1-0.8-0.2
			c-0.3-0.1-0.5-0.2-0.7-0.4c-0.2-0.2-0.3-0.4-0.3-0.7c0-0.4,0.1-0.7,0.4-0.9c0.3-0.2,0.7-0.4,1.2-0.4c0.7,0,1.2,0.2,1.6,0.6
			l-0.3,0.5c-0.3-0.4-0.7-0.5-1.3-0.5c-0.3,0-0.5,0.1-0.7,0.2s-0.3,0.3-0.3,0.5c0,0.2,0.1,0.3,0.3,0.4c0.2,0.1,0.4,0.2,0.7,0.2
			c0.3,0.1,0.5,0.1,0.8,0.2s0.5,0.2,0.7,0.4s0.3,0.4,0.3,0.8c0,0.4-0.2,0.7-0.5,0.9C69,121.5,68.5,121.7,68,121.7z"/>
	</g>
	<g>
		<path class="st0" d="M210.4,50.3h-1.5v-6.4l-1.4,1.4l-0.9-0.9l2.4-2.4h1.3V50.3z"/>
		<path class="st0" d="M214.6,50.5c-1,0-1.8-0.3-2.4-0.9l0.7-1.1c0.5,0.5,1,0.7,1.7,0.7c0.7,0,1.3-0.3,1.6-0.8
			c0.4-0.5,0.6-1.2,0.6-1.9v-0.2c-0.2,0.3-0.5,0.6-0.9,0.8c-0.4,0.2-0.8,0.4-1.3,0.4c-0.8,0-1.5-0.2-2-0.7c-0.5-0.5-0.8-1.1-0.8-2
			c0-0.8,0.3-1.5,0.9-2c0.6-0.5,1.3-0.8,2.2-0.8c0.8,0,1.4,0.2,2,0.6s0.9,0.9,1.1,1.5s0.3,1.3,0.3,2.2c0,1.2-0.3,2.3-1,3.1
			C216.7,50.1,215.8,50.5,214.6,50.5z M215,46.1c0.4,0,0.7-0.1,1-0.3c0.3-0.2,0.6-0.4,0.8-0.7c0-0.5-0.2-1-0.5-1.4
			c-0.3-0.4-0.8-0.6-1.3-0.6c-0.5,0-0.9,0.2-1.2,0.5s-0.5,0.6-0.5,1c0,0.5,0.2,0.9,0.5,1.1C214.1,46,214.5,46.1,215,46.1z"/>
		<path class="st0" d="M222.6,50.5c-1.3,0-2.4-0.4-3.1-1.3l0.8-1c0.6,0.7,1.3,1,2.2,1c0.5,0,0.9-0.1,1.2-0.4s0.5-0.6,0.5-1
			c0-0.5-0.2-0.8-0.5-1.1s-0.7-0.4-1.2-0.4c-0.7,0-1.3,0.2-1.8,0.7l-1-0.3V42h5.5v1.3h-4v2.4c0.5-0.5,1.1-0.7,1.9-0.7
			c0.7,0,1.4,0.2,1.9,0.7c0.5,0.5,0.8,1.1,0.8,2c0,0.9-0.3,1.5-0.9,2.1C224.3,50.2,223.6,50.5,222.6,50.5z"/>
	</g>
	<g>
		<path class="st0" d="M209.9,76.2c-1,0-1.8-0.3-2.4-0.9l0.7-1.1c0.5,0.5,1,0.7,1.7,0.7c0.7,0,1.3-0.3,1.6-0.8
			c0.4-0.5,0.6-1.2,0.6-1.9v-0.2c-0.2,0.3-0.5,0.6-0.9,0.8c-0.4,0.2-0.8,0.4-1.3,0.4c-0.8,0-1.5-0.2-2-0.7c-0.5-0.5-0.8-1.1-0.8-2
			c0-0.8,0.3-1.5,0.9-2c0.6-0.5,1.3-0.8,2.2-0.8c0.8,0,1.4,0.2,2,0.6s0.9,0.9,1.1,1.5s0.3,1.3,0.3,2.2c0,1.2-0.3,2.3-1,3.1
			C211.9,75.8,211,76.2,209.9,76.2z M210.2,71.8c0.4,0,0.7-0.1,1-0.3c0.3-0.2,0.6-0.4,0.8-0.7c0-0.5-0.2-1-0.5-1.4
			c-0.3-0.4-0.8-0.6-1.3-0.6c-0.5,0-0.9,0.2-1.2,0.5s-0.5,0.6-0.5,1c0,0.5,0.2,0.9,0.5,1.1C209.3,71.7,209.7,71.8,210.2,71.8z"/>
		<path class="st0" d="M218,76.2c-0.6,0-1.1-0.1-1.6-0.3c-0.4-0.2-0.8-0.5-1.1-0.9c-0.3-0.4-0.5-0.9-0.6-1.4
			c-0.1-0.5-0.2-1.1-0.2-1.7c0-1.3,0.3-2.3,1-3.1c0.6-0.8,1.5-1.2,2.7-1.2c1,0,1.8,0.3,2.4,0.9l-0.7,1.1c-0.5-0.5-1-0.7-1.7-0.7
			c-0.7,0-1.2,0.3-1.6,0.8s-0.6,1.2-0.6,2c0,0.1,0,0.2,0,0.2c0.2-0.3,0.5-0.6,0.9-0.8s0.8-0.3,1.3-0.3c0.8,0,1.5,0.2,2,0.7
			s0.8,1.1,0.8,2c0,0.8-0.3,1.5-0.9,2C219.7,76,218.9,76.2,218,76.2z M217.9,74.9c0.5,0,0.9-0.1,1.2-0.4c0.3-0.3,0.4-0.6,0.4-1
			c0-0.5-0.2-0.9-0.5-1.1c-0.3-0.3-0.7-0.4-1.2-0.4c-0.4,0-0.7,0.1-1,0.3c-0.3,0.2-0.6,0.4-0.8,0.7c0.1,0.5,0.2,1,0.5,1.4
			C216.9,74.7,217.3,74.9,217.9,74.9z"/>
		<path class="st0" d="M225.4,76.2c-1.3,0-2.4-0.4-3.1-1.3l0.8-1c0.6,0.7,1.3,1,2.2,1c0.5,0,0.9-0.1,1.2-0.4s0.5-0.6,0.5-1
			c0-0.5-0.2-0.8-0.5-1.1c-0.3-0.3-0.7-0.4-1.2-0.4c-0.7,0-1.3,0.2-1.8,0.7l-1-0.3v-4.7h5.5V69h-4v2.4c0.5-0.5,1.1-0.7,1.9-0.7
			c0.7,0,1.4,0.2,1.9,0.7s0.8,1.1,0.8,2c0,0.9-0.3,1.5-0.9,2.1C227.1,76,226.3,76.2,225.4,76.2z"/>
	</g>
	<g>
		<path class="st0" d="M212.3,106.5h-1.5v-1.9h-4v-1.2l3.4-5.3h2v5.2h1.1v1.3h-1.1V106.5z M210.9,103.3v-3.8l-2.5,3.8H210.9z"/>
		<path class="st0" d="M217.6,106.6c-1.3,0-2.4-0.4-3.1-1.3l0.8-1c0.6,0.7,1.3,1,2.2,1c0.5,0,0.9-0.1,1.2-0.4s0.5-0.6,0.5-1
			c0-0.5-0.2-0.8-0.5-1.1c-0.3-0.3-0.7-0.4-1.2-0.4c-0.7,0-1.3,0.2-1.8,0.7l-1-0.3v-4.7h5.5v1.3h-4v2.4c0.5-0.5,1.1-0.7,1.9-0.7
			c0.7,0,1.4,0.2,1.9,0.7s0.8,1.1,0.8,2c0,0.9-0.3,1.5-0.9,2.1C219.3,106.3,218.5,106.6,217.6,106.6z"/>
	</g>
	<g>
		<path class="st0" d="M48.4,163.1H47v-6.4l-1.4,1.4l-0.9-0.9l2.4-2.4h1.3V163.1z"/>
		<path class="st0" d="M51.8,162.6c0,0.4-0.1,0.8-0.3,1.2c-0.2,0.4-0.5,0.7-0.9,0.9l-0.6-0.5c0.2-0.1,0.4-0.3,0.6-0.5
			c0.2-0.2,0.3-0.4,0.3-0.7c-0.1,0-0.1,0-0.2,0c-0.2,0-0.4-0.1-0.5-0.2c-0.1-0.1-0.2-0.3-0.2-0.6s0.1-0.4,0.2-0.6
			c0.2-0.2,0.4-0.3,0.6-0.3c0.3,0,0.5,0.1,0.7,0.3S51.8,162.3,51.8,162.6z"/>
		<path class="st0" d="M54.6,163.1H53l3.1-7h-4.3v-1.3h6v1L54.6,163.1z"/>
		<path class="st0" d="M62,163.1h-1.5v-6.4l-1.4,1.4l-0.8-0.9l2.4-2.4H62V163.1z"/>
		<path class="st0" d="M66.7,163.3c-1.3,0-2.4-0.4-3.1-1.3l0.8-1c0.6,0.7,1.3,1,2.2,1c0.5,0,0.9-0.1,1.2-0.4s0.5-0.6,0.5-1
			c0-0.5-0.2-0.8-0.5-1.1c-0.3-0.3-0.7-0.4-1.2-0.4c-0.7,0-1.3,0.2-1.8,0.7l-1-0.3v-4.7h5.5v1.3h-4v2.4c0.5-0.5,1.1-0.7,1.9-0.7
			c0.7,0,1.4,0.2,1.9,0.7c0.5,0.5,0.8,1.1,0.8,2c0,0.9-0.3,1.5-0.9,2.1C68.4,163,67.6,163.3,66.7,163.3z"/>
	</g>
	<g>
		<path class="st0" d="M51.7,133.3c-0.7,0-1.3-0.1-1.9-0.4c-0.5-0.2-1-0.6-1.3-1l0.8-1c0.3,0.3,0.6,0.6,1,0.7
			c0.4,0.2,0.8,0.3,1.3,0.3c0.5,0,1-0.1,1.3-0.3c0.3-0.2,0.5-0.5,0.5-0.9c0-0.8-0.6-1.2-1.9-1.2c-0.6,0-0.9,0-1,0v-1.3
			c0.1,0,0.4,0,1,0c0.5,0,0.9-0.1,1.2-0.3s0.5-0.5,0.5-0.8c0-0.4-0.2-0.7-0.5-0.9c-0.3-0.2-0.7-0.3-1.2-0.3c-0.8,0-1.5,0.3-2.2,0.9
			l-0.8-0.9c0.7-0.9,1.8-1.3,3-1.3c0.9,0,1.6,0.2,2.2,0.6c0.5,0.4,0.8,1,0.8,1.6c0,0.5-0.2,0.9-0.5,1.3c-0.4,0.3-0.8,0.5-1.3,0.6
			c0.5,0,0.9,0.2,1.3,0.6s0.6,0.8,0.6,1.4c0,0.7-0.3,1.3-0.9,1.8C53.4,133.1,52.6,133.3,51.7,133.3z"/>
		<path class="st0" d="M58.7,133.3c-1,0-1.8-0.3-2.4-0.9l0.7-1.1c0.5,0.5,1,0.7,1.7,0.7c0.7,0,1.3-0.3,1.6-0.8
			c0.4-0.5,0.6-1.2,0.6-1.9V129c-0.2,0.3-0.5,0.6-0.9,0.8s-0.8,0.4-1.3,0.4c-0.8,0-1.5-0.2-2-0.7s-0.8-1.1-0.8-2
			c0-0.8,0.3-1.5,0.9-2c0.6-0.5,1.3-0.8,2.2-0.8c0.8,0,1.4,0.2,2,0.6s0.9,0.9,1.1,1.6c0.2,0.6,0.3,1.3,0.3,2.2c0,1.2-0.3,2.3-1,3.1
			C60.8,132.9,59.9,133.3,58.7,133.3z M59,128.9c0.4,0,0.7-0.1,1-0.3s0.6-0.4,0.8-0.7c0-0.5-0.2-1-0.5-1.4c-0.3-0.4-0.8-0.6-1.3-0.6
			c-0.5,0-0.9,0.1-1.2,0.5c-0.3,0.3-0.5,0.6-0.5,1c0,0.5,0.2,0.9,0.5,1.1C58.2,128.8,58.6,128.9,59,128.9z"/>
		<path class="st0" d="M66.7,133.3c-1.3,0-2.4-0.4-3.1-1.3l0.8-1c0.6,0.7,1.3,1,2.2,1c0.5,0,0.9-0.1,1.2-0.4s0.5-0.6,0.5-1
			c0-0.5-0.2-0.8-0.5-1.1c-0.3-0.3-0.7-0.4-1.2-0.4c-0.7,0-1.3,0.2-1.8,0.7l-1-0.3v-4.7h5.5v1.3h-4v2.4c0.5-0.5,1.1-0.7,1.9-0.7
			c0.7,0,1.4,0.2,1.9,0.7c0.5,0.5,0.8,1.1,0.8,2c0,0.9-0.3,1.5-0.9,2.1C68.4,133.1,67.6,133.3,66.7,133.3z"/>
	</g>
	<g>
		<path class="st0" d="M59.3,104.8c-0.6,0-1.1-0.1-1.6-0.3c-0.5-0.2-0.8-0.5-1.1-0.9c-0.3-0.4-0.5-0.9-0.6-1.4
			c-0.1-0.5-0.2-1.1-0.2-1.7c0-1.3,0.3-2.3,1-3.1c0.6-0.8,1.5-1.2,2.7-1.2c1,0,1.8,0.3,2.4,0.9l-0.7,1.1c-0.5-0.5-1-0.7-1.7-0.7
			c-0.7,0-1.2,0.3-1.6,0.8c-0.4,0.5-0.6,1.2-0.6,2c0,0.1,0,0.2,0,0.2c0.2-0.3,0.5-0.6,0.9-0.8s0.8-0.3,1.3-0.3c0.8,0,1.5,0.2,2,0.7
			c0.5,0.5,0.8,1.1,0.8,2c0,0.8-0.3,1.5-0.8,2C61,104.5,60.2,104.8,59.3,104.8z M59.3,103.5c0.5,0,0.9-0.1,1.2-0.4
			c0.3-0.3,0.4-0.6,0.4-1c0-0.5-0.2-0.9-0.5-1.1s-0.7-0.4-1.2-0.4c-0.3,0-0.7,0.1-1,0.3c-0.3,0.2-0.6,0.4-0.8,0.7
			c0,0.5,0.2,1,0.5,1.4C58.2,103.3,58.7,103.5,59.3,103.5z"/>
		<path class="st0" d="M66.7,104.8c-1.3,0-2.4-0.4-3.1-1.3l0.8-1c0.6,0.7,1.3,1,2.2,1c0.5,0,0.9-0.1,1.2-0.4s0.5-0.6,0.5-1
			c0-0.5-0.2-0.8-0.5-1.1c-0.3-0.3-0.7-0.4-1.2-0.4c-0.7,0-1.3,0.2-1.8,0.7l-1-0.3v-4.7h5.5v1.3h-4v2.4c0.5-0.5,1.1-0.7,1.9-0.7
			c0.7,0,1.4,0.2,1.9,0.7c0.5,0.5,0.8,1.1,0.8,2c0,0.9-0.3,1.5-0.9,2.1C68.4,104.5,67.6,104.8,66.7,104.8z"/>
	</g>
	<g>
		<path class="st0" d="M51.9,76.1h-1.6l3.1-7h-4.3v-1.3h6v1L51.9,76.1z"/>
		<path class="st0" d="M62.1,76.1h-6v-1.1c1.7-1.3,2.9-2.3,3.6-2.9s0.9-1.2,0.9-1.8c0-0.4-0.1-0.7-0.4-0.9s-0.7-0.3-1.1-0.3
			c-0.9,0-1.7,0.3-2.2,1L56,69c0.4-0.4,0.8-0.8,1.4-1c0.5-0.2,1.1-0.3,1.7-0.3c0.9,0,1.6,0.2,2.1,0.7c0.6,0.5,0.9,1.1,0.9,1.9
			c0,0.7-0.3,1.4-0.9,2.1c-0.6,0.7-1.5,1.5-2.8,2.5h3.7V76.1z"/>
		<path class="st0" d="M66.7,76.2c-1.3,0-2.4-0.4-3.1-1.3l0.8-1c0.6,0.7,1.3,1,2.2,1c0.5,0,0.9-0.1,1.2-0.4s0.5-0.6,0.5-1
			c0-0.5-0.2-0.8-0.5-1.1S67.2,72,66.7,72c-0.7,0-1.3,0.2-1.8,0.7l-1-0.3v-4.7h5.5V69h-4v2.4c0.5-0.5,1.1-0.7,1.9-0.7
			c0.7,0,1.4,0.2,1.9,0.7c0.5,0.5,0.8,1.1,0.8,2c0,0.9-0.3,1.5-0.9,2.1C68.4,76,67.6,76.2,66.7,76.2z"/>
	</g>
	<g>
		<path class="st0" d="M56.5,46.8H55v-1.9h-4v-1.2l3.4-5.3h2v5.2h1.1v1.3h-1.1V46.8z M55,43.7v-3.8l-2.5,3.8H55z"/>
		<path class="st0" d="M61.8,46.8h-1.5v-6.4L59,41.8l-0.9-0.9l2.4-2.4h1.3V46.8z"/>
		<path class="st0" d="M68,46.6c-0.4,0.2-0.9,0.4-1.5,0.4c-0.6,0-1.1-0.1-1.5-0.4c-0.4-0.2-0.8-0.6-1.1-1s-0.5-0.9-0.6-1.4
			c-0.1-0.5-0.2-1-0.2-1.6s0.1-1.1,0.2-1.6c0.1-0.5,0.3-1,0.6-1.4c0.3-0.4,0.6-0.7,1.1-1c0.4-0.2,0.9-0.4,1.5-0.4
			c0.6,0,1.1,0.1,1.5,0.4c0.4,0.2,0.8,0.6,1,1c0.3,0.4,0.5,0.9,0.6,1.4s0.2,1,0.2,1.6s-0.1,1.1-0.2,1.6s-0.3,1-0.6,1.4
			C68.8,46,68.5,46.4,68,46.6z M65.1,44.8c0.3,0.6,0.8,0.9,1.4,0.9c0.6,0,1.1-0.3,1.4-0.9c0.3-0.6,0.5-1.3,0.5-2.2
			c0-0.6-0.1-1.1-0.2-1.5c-0.1-0.4-0.3-0.8-0.6-1.1c-0.3-0.3-0.6-0.4-1.1-0.4c-0.4,0-0.8,0.1-1.1,0.4c-0.3,0.3-0.5,0.6-0.6,1.1
			c-0.1,0.4-0.2,0.9-0.2,1.5C64.7,43.5,64.8,44.3,65.1,44.8z"/>
	</g>
	<g>
		<path class="st0" d="M144.6,29h-6v-1.1c1.7-1.3,2.9-2.3,3.6-2.9c0.6-0.6,0.9-1.2,0.9-1.8c0-0.4-0.1-0.7-0.4-0.9
			c-0.3-0.2-0.7-0.3-1.1-0.3c-0.9,0-1.7,0.3-2.2,1l-0.8-1c0.4-0.4,0.8-0.8,1.4-1c0.5-0.2,1.1-0.3,1.7-0.3c0.8,0,1.6,0.2,2.1,0.7
			c0.6,0.5,0.9,1.1,0.9,1.9c0,0.7-0.3,1.4-0.9,2.1c-0.6,0.7-1.5,1.5-2.8,2.5h3.7V29z"/>
		<path class="st0" d="M148.8,29.1c-0.7,0-1.3-0.1-1.9-0.4c-0.5-0.2-1-0.6-1.3-1l0.8-1c0.3,0.3,0.6,0.6,1,0.7s0.8,0.3,1.3,0.3
			c0.5,0,1-0.1,1.3-0.3c0.3-0.2,0.5-0.5,0.5-0.9c0-0.8-0.6-1.2-1.9-1.2c-0.6,0-0.9,0-1,0v-1.3c0.1,0,0.4,0,1,0
			c0.5,0,0.9-0.1,1.2-0.3s0.5-0.5,0.5-0.8c0-0.4-0.2-0.7-0.5-0.9c-0.3-0.2-0.7-0.3-1.2-0.3c-0.8,0-1.5,0.3-2.2,0.9l-0.8-0.9
			c0.7-0.9,1.8-1.3,3-1.3c0.9,0,1.6,0.2,2.2,0.6c0.5,0.4,0.8,1,0.8,1.6c0,0.5-0.2,0.9-0.5,1.3c-0.4,0.3-0.8,0.5-1.3,0.6
			c0.5,0,0.9,0.2,1.3,0.6c0.4,0.4,0.6,0.8,0.6,1.4c0,0.7-0.3,1.3-0.9,1.8C150.5,28.9,149.7,29.1,148.8,29.1z"/>
		<path class="st0" d="M156.3,29.1c-1.3,0-2.4-0.4-3.1-1.3l0.8-1c0.6,0.7,1.3,1,2.2,1c0.5,0,0.9-0.1,1.2-0.4s0.5-0.6,0.5-1
			c0-0.5-0.2-0.8-0.5-1.1c-0.3-0.3-0.7-0.4-1.2-0.4c-0.7,0-1.3,0.2-1.8,0.7l-1-0.3v-4.7h5.5v1.3h-4v2.4c0.5-0.5,1.1-0.7,1.9-0.7
			c0.7,0,1.4,0.2,1.9,0.7c0.5,0.5,0.8,1.1,0.8,2c0,0.9-0.3,1.5-0.9,2.1C158,28.9,157.2,29.1,156.3,29.1z"/>
	</g>
	<g>
		<g>
			<path class="st4" d="M200,66.6c-11.3-2.7-32.2-8.7-44.4,1.6"/>
			<g>
				<path class="st2" d="M155.9,68c1.4,0.1,3.1,1.3,4,2.4c-2.3-0.5-4.7-0.6-6.9,0.1c1.1-2.1,1.3-4.5,1.3-6.8
					C155.1,64.9,156,66.5,155.9,68z"/>
			</g>
		</g>
	</g>
	<g>
		<g>
			<path class="st5" d="M201.1,95.4c-12.7,2.3-38.2-3.2-49.1-15.6"/>
			<g>
				<path class="st2" d="M152,79.8c0,0.1-0.1,0.1-0.1,0.2c0-0.1,0-0.2,0-0.3c0.1,0,0.2,0.1,0.3,0.1C152.2,79.8,152.1,79.8,152,79.8z
					"/>
			</g>
		</g>
	</g>
	<g>
		<g>
			<path class="st6" d="M77.6,151.2c13.4,0.6,35.6-1.8,47.5-16.7"/>
			<g>
				<path class="st2" d="M124.7,134.9c-1.8,0.3-4.1-0.7-5.5-1.7c2.9,0,5.8-0.7,8.3-2.2c-0.7,2.8-0.2,5.8,0.5,8.6
					C126.6,138.4,125.1,136.7,124.7,134.9z"/>
			</g>
		</g>
	</g>
	<g>
		<g>
			<path class="st7" d="M199,128.7c-20.5,4.7-38.5,9.4-57.5-5.9"/>
			<g>
				<path class="st2" d="M141.5,122.8c0,0.1-0.1,0.3-0.1,0.4c0-0.2,0-0.4-0.1-0.6c0.2,0.1,0.4,0,0.6,0
					C141.8,122.7,141.6,122.8,141.5,122.8z"/>
			</g>
		</g>
	</g>
	<g>
		<g>
			<path class="st8" d="M77.6,34.1c18.3,0,56.6,3.7,68.7,34.2"/>
			<g>
				<path class="st2" d="M146.2,68.1c0.2-0.6,1-1.1,1.5-1.3c-0.5,0.8-0.9,1.8-0.9,2.8c-0.7-0.7-1.6-1.1-2.6-1.4
					C144.8,68,145.6,67.9,146.2,68.1z"/>
			</g>
		</g>
	</g>
	<g>
		<g>
			<path class="st9" d="M76.4,121.4c13,1.1,37,2.8,51-7.6"/>
			<g>
				<path class="st2" d="M127.3,113.9c-0.6-0.1-1.2-0.6-1.6-1.1c0.9,0.3,1.9,0.4,2.8,0.1c-0.5,0.8-0.6,1.8-0.7,2.7
					C127.6,115.2,127.3,114.5,127.3,113.9z"/>
			</g>
		</g>
	</g>
	<g>
		<g>
			<path class="st10" d="M75.9,65.8c14.4-4,43.9-8.3,63.5,8.7"/>
			<g>
				<path class="st2" d="M139.2,74.4c0-0.5,0.3-1.1,0.6-1.5c-0.1,0.8,0,1.6,0.4,2.3c-0.7-0.3-1.6-0.2-2.3-0.1
					C138.2,74.9,138.7,74.5,139.2,74.4z"/>
			</g>
		</g>
	</g>
	<g>
		<g>
			<path class="st11" d="M75.9,95.5c10.3-8.3,35.6-18.4,59.3-12.4"/>
			<g>
				<path class="st2" d="M135.1,83.1c0-0.1,0-0.2,0-0.3c0.1,0.1,0.2,0.3,0.3,0.4c-0.2,0-0.3,0.1-0.4,0.2
					C135,83.2,135,83.1,135.1,83.1z"/>
			</g>
		</g>
	</g>
	<g>
		<g>
			<line class="st12" x1="149" y1="30.6" x2="149" y2="57.3"/>
			<g>
				<path class="st2" d="M149,57.3c0.2-0.2,0.7-0.4,1.1-0.4c-0.5,0.3-0.8,0.8-1.1,1.3c-0.2-0.5-0.6-0.9-1.1-1.3
					C148.2,56.9,148.7,57,149,57.3z"/>
			</g>
		</g>
	</g>
	<g>
		<path class="st0" d="M209.9,139.6c-1,0-1.8-0.3-2.4-0.9l0.7-1.1c0.5,0.5,1,0.7,1.7,0.7c0.7,0,1.3-0.3,1.6-0.8
			c0.4-0.5,0.6-1.2,0.6-1.9v-0.2c-0.2,0.3-0.5,0.6-0.9,0.8c-0.4,0.2-0.8,0.4-1.3,0.4c-0.8,0-1.5-0.2-2-0.7c-0.5-0.5-0.8-1.1-0.8-2
			c0-0.8,0.3-1.5,0.9-2c0.6-0.5,1.3-0.8,2.2-0.8c0.8,0,1.4,0.2,2,0.6s0.9,0.9,1.1,1.5s0.3,1.3,0.3,2.2c0,1.2-0.3,2.3-1,3.1
			C211.9,139.2,211,139.6,209.9,139.6z M210.2,135.2c0.4,0,0.7-0.1,1-0.3c0.3-0.2,0.6-0.4,0.8-0.7c0-0.5-0.2-1-0.5-1.4
			c-0.3-0.4-0.8-0.6-1.3-0.6c-0.5,0-0.9,0.2-1.2,0.5s-0.5,0.6-0.5,1c0,0.5,0.2,0.9,0.5,1.1C209.3,135.1,209.7,135.2,210.2,135.2z"/>
		<path class="st0" d="M219.4,139.2c-0.4,0.2-0.9,0.4-1.5,0.4s-1.1-0.1-1.5-0.4s-0.8-0.6-1.1-1c-0.3-0.4-0.5-0.9-0.6-1.4
			s-0.2-1-0.2-1.6s0.1-1.1,0.2-1.6s0.3-1,0.6-1.4c0.3-0.4,0.6-0.7,1.1-1s0.9-0.4,1.5-0.4s1.1,0.1,1.5,0.4s0.8,0.6,1,1
			c0.3,0.4,0.5,0.9,0.6,1.4c0.1,0.5,0.2,1,0.2,1.6s-0.1,1.1-0.2,1.6c-0.1,0.5-0.3,1-0.6,1.4S219.9,139,219.4,139.2z M216.5,137.4
			c0.3,0.6,0.8,0.9,1.4,0.9s1.1-0.3,1.4-0.9c0.3-0.6,0.4-1.3,0.4-2.2c0-0.6-0.1-1.1-0.2-1.5c-0.1-0.4-0.3-0.8-0.6-1.1
			c-0.3-0.3-0.6-0.4-1.1-0.4s-0.8,0.1-1.1,0.4c-0.3,0.3-0.5,0.6-0.6,1.1c-0.1,0.4-0.2,0.9-0.2,1.5
			C216.1,136.1,216.2,136.9,216.5,137.4z"/>
	</g>
</g>
</svg>
