<?xml version="1.0" encoding="utf-8"?>
<!-- Generator: Adobe Illustrator 19.2.0, SVG Export Plug-In . SVG Version: 6.00 Build 0)  -->
<svg version="1.1" id="Layer_1" xmlns="http://www.w3.org/2000/svg" xmlns:xlink="http://www.w3.org/1999/xlink" x="0px" y="0px"
	 viewBox="0 0 266.2 169.3" style="enable-background:new 0 0 266.2 169.3;" xml:space="preserve">
<style type="text/css">
	.st0{fill:#0D92FF;}
	.st1{fill:none;stroke:#00325C;stroke-width:0.42;stroke-miterlimit:10;}
	.st2{fill:#00325C;}
	.st3{fill:#787878;}
	.st4{fill:none;stroke:#00325C;stroke-width:0.75;stroke-miterlimit:10;}
	.st5{fill:none;stroke:#00325C;stroke-width:9.000000e-02;stroke-miterlimit:10;}
	.st6{fill:none;stroke:#00325C;stroke-width:10.91;stroke-miterlimit:3;}
	.st7{fill:none;stroke:#00325C;stroke-width:0.12;stroke-miterlimit:10;}
	.st8{fill:none;stroke:#00325C;stroke-width:0.525;stroke-miterlimit:10;}
	.st9{fill:none;stroke:#00325C;stroke-width:1.25;stroke-miterlimit:10;}
	.st10{fill:none;stroke:#00325C;stroke-width:4.25;stroke-miterlimit:10;}
	.st11{fill:none;stroke:#00325C;stroke-width:0.35;stroke-miterlimit:10;}
	.st12{fill:none;stroke:#00325C;stroke-width:3.44;stroke-miterlimit:10;}
</style>
<g>
	<path class="st0" d="M142.3,137.4L142.3,137.4L142.3,137.4L142.3,137.4L142.3,137.4l0.1-0.1L142.3,137.4L142.3,137.4L142.3,137.4
		L142.3,137.4L142.3,137.4z M142.6,138.8L142.6,138.8L142.6,138.8L142.6,138.8l0.1-0.1L142.6,138.8l0.1-0.1L142.6,138.8L142.6,138.8
		L142.6,138.8L142.6,138.8L142.6,138.8L142.6,138.8L142.6,138.8L142.6,138.8L142.6,138.8z M142.2,138.7L142.2,138.7l0,0.1
		L142.2,138.7L142.2,138.7L142.2,138.7L142.2,138.7L142.2,138.7L142.2,138.7z M142.2,139.2L142.2,139.2L142.2,139.2L142.2,139.2
		L142.2,139.2L142.2,139.2L142.2,139.2l-0.1,0.1l0,0.1l0,0l0.1,0l0,0l0-0.1l0,0L142.2,139.2L142.2,139.2L142.2,139.2L142.2,139.2z
		 M120.6,143.5L120.6,143.5L120.6,143.5L120.6,143.5L120.6,143.5l-0.1,0l0,0l0,0l0,0l0,0l0,0.1l0,0l0,0l0,0l0,0l0,0l0,0l0,0
		L120.6,143.5L120.6,143.5L120.6,143.5z M141.2,144.6L141.2,144.6l0.1,0.1l0,0L141.2,144.6L141.2,144.6l0-0.1L141.2,144.6
		L141.2,144.6z M141.6,146.7L141.6,146.7L141.6,146.7L141.6,146.7L141.6,146.7L141.6,146.7z M140.8,147.8L140.8,147.8L140.8,147.8
		l0.1,0l0,0l0,0l0,0l0.1,0l0,0l0,0l-0.1,0L140.8,147.8l0-0.1l0,0L140.8,147.8L140.8,147.8L140.8,147.8L140.8,147.8z M135.8,155
		L135.8,155L135.8,155v-0.1V155z M134,155.2L134,155.2L134,155.2L134,155.2L134,155.2L134,155.2L134,155.2L134,155.2L134,155.2z
		 M137.4,155.9L137.4,155.9L137.4,155.9L137.4,155.9L137.4,155.9L137.4,155.9L137.4,155.9L137.4,155.9L137.4,155.9L137.4,155.9
		l0,0.1L137.4,155.9L137.4,155.9L137.4,155.9L137.4,155.9z M133.5,156L133.5,156L133.5,156l0,0.1h0L133.5,156L133.5,156L133.5,156z
		 M159.3,90.6L159.3,90.6L159.3,90.6L159.3,90.6L159.3,90.6L159.3,90.6L159.3,90.6z M158,90.7L158,90.7L158,90.7L158,90.7L158,90.7
		L158,90.7L158,90.7L158,90.7z M157.5,90.8L157.5,90.8l0,0.2h0l0,0l0,0L157.5,90.8L157.5,90.8L157.5,90.8z M157.5,91.3L157.5,91.3
		l0,0.1l0,0l0,0l0,0l0,0.1L157.5,91.3L157.5,91.3L157.5,91.3z M156.2,92L156.2,92L156.2,92l0,0.1L156.2,92L156.2,92L156.2,92z
		 M154.6,93L154.6,93L154.6,93L154.6,93l-0.1,0.1l0,0l0,0.1l0-0.1L154.6,93L154.6,93z M154.6,93.7l0,0.1L154.6,93.7L154.6,93.7
		L154.6,93.7L154.6,93.7z M153,93.9L153,93.9l0-0.1L153,93.9l0,0.1l0,0l0,0l0,0l0,0l0.1,0l0-0.1L153,93.9L153,93.9z M152.6,94
		L152.6,94L152.6,94L152.6,94L152.6,94L152.6,94L152.6,94L152.6,94z M151.7,95.7L151.7,95.7L151.7,95.7l0-0.1l0,0L151.7,95.7
		L151.7,95.7z M150.4,96.5L150.4,96.5L150.4,96.5L150.4,96.5l0.1,0L150.4,96.5L150.4,96.5L150.4,96.5z M150.2,96.8L150.2,96.8
		L150.2,96.8l0.1-0.1L150.2,96.8L150.2,96.8z M166.7,70.9L166.7,70.9l0,0.2l0,0L166.7,70.9L166.7,70.9z M166.6,71L166.6,71l0,0.1
		l0.1,0.1l0,0L166.6,71L166.6,71z M172.3,71.1L172.3,71.1L172.3,71.1l0,0.1L172.3,71.1L172.3,71.1L172.3,71.1L172.3,71.1L172.3,71.1
		L172.3,71.1z M172.5,71.2L172.5,71.2L172.5,71.2l0-0.1l-0.1,0L172.5,71.2z M169.7,71.1L169.7,71.1L169.7,71.1L169.7,71.1
		L169.7,71.1L169.7,71.1L169.7,71.1L169.7,71.1L169.7,71.1L169.7,71.1L169.7,71.1z M168.6,71.1L168.6,71.1L168.6,71.1l0,0.1l0,0l0,0
		l0,0L168.6,71.1L168.6,71.1z M171.7,71.2L171.7,71.2L171.7,71.2L171.7,71.2L171.7,71.2L171.7,71.2L171.7,71.2z M169.2,71.5
		L169.2,71.5L169.2,71.5L169.2,71.5L169.2,71.5z M171.4,71.5L171.4,71.5L171.4,71.5L171.4,71.5L171.4,71.5L171.4,71.5z M168.6,71.6
		L168.6,71.6L168.6,71.6L168.6,71.6L168.6,71.6L168.6,71.6l0-0.1l0,0l0,0l0,0l0,0L168.6,71.6L168.6,71.6L168.6,71.6l-0.1-0.1l0,0
		l0,0l0,0l0,0L168.6,71.6L168.6,71.6L168.6,71.6L168.6,71.6z M169.4,71.5L169.4,71.5L169.4,71.5L169.4,71.5l-0.1,0.1l0,0l0,0l0,0
		l0,0L169.4,71.5L169.4,71.5L169.4,71.5z M172.1,71.6L172.1,71.6L172.1,71.6L172.1,71.6L172.1,71.6L172.1,71.6L172.1,71.6z
		 M170,71.8l-0.1-0.1L170,71.8L170,71.8L170,71.8l0,0.1l0,0L170,71.8L170,71.8z M168.4,71.7L168.4,71.7L168.4,71.7L168.4,71.7
		L168.4,71.7L168.4,71.7z M168.4,71.8L168.4,71.8L168.4,71.8L168.4,71.8L168.4,71.8L168.4,71.8z M172.6,72L172.6,72l-0.1-0.1l-0.1,0
		l0,0L172.6,72L172.6,72L172.6,72L172.6,72l0,0.1l0,0L172.6,72L172.6,72L172.6,72z M172.4,72.1L172.4,72.1L172.4,72.1L172.4,72.1
		l-0.1-0.1l0,0.1L172.4,72.1L172.4,72.1L172.4,72.1z M167.2,72.3L167.2,72.3L167.2,72.3L167.2,72.3L167.2,72.3L167.2,72.3
		L167.2,72.3L167.2,72.3L167.2,72.3L167.2,72.3z M166.5,72.3L166.5,72.3L166.5,72.3L166.5,72.3l-0.1,0.1l0.1,0l0.1,0L166.5,72.3
		L166.5,72.3L166.5,72.3z M172.3,72.3L172.3,72.3L172.3,72.3l0.1,0.1l0,0l0,0L172.3,72.3L172.3,72.3L172.3,72.3z M167.7,72.3
		L167.7,72.3L167.7,72.3L167.7,72.3L167.7,72.3l-0.1,0l0,0L167.7,72.3l0,0.1l0,0l0,0l0,0L167.7,72.3L167.7,72.3z M172.5,72.3
		L172.5,72.3L172.5,72.3L172.5,72.3L172.5,72.3z M171.1,72.4L171.1,72.4L171.1,72.4L171.1,72.4l0,0.1l0,0l0,0l0,0l0,0L171.1,72.4
		L171.1,72.4z M166.8,72.5L166.8,72.5L166.8,72.5l0-0.1l0,0l0,0l0,0l0,0l0,0l0,0.1L166.8,72.5L166.8,72.5z M171.8,72.5L171.8,72.5
		L171.8,72.5L171.8,72.5L171.8,72.5z M170,72.5L170,72.5L170,72.5L170,72.5L170,72.5z M172,72.5L172,72.5L172,72.5L172,72.5
		L172,72.5z M167.6,72.6L167.6,72.6L167.6,72.6L167.6,72.6L167.6,72.6L167.6,72.6L167.6,72.6L167.6,72.6l0,0.1l0,0l0,0L167.6,72.6
		L167.6,72.6z M171.1,72.7L171.1,72.7L171.1,72.7l-0.1-0.2l0,0l0,0l0,0.1L171.1,72.7L171.1,72.7L171.1,72.7L171.1,72.7L171.1,72.7
		L171.1,72.7L171.1,72.7z M166.9,72.8L166.9,72.8L166.9,72.8L166.9,72.8L166.9,72.8z M172,73L172,73L172,73L172,73L172,73L172,73
		L172,73L172,73L172,73z M172.7,73L172.7,73L172.7,73L172.7,73L172.7,73L172.7,73z M171.1,73L171.1,73L171.1,73L171.1,73L171.1,73z
		 M169.9,73.8L169.9,73.8L169.9,73.8L169.9,73.8L169.9,73.8L169.9,73.8L169.9,73.8L169.9,73.8L169.9,73.8L169.9,73.8z M165.2,71.2
		L165.2,71.2L165.2,71.2L165.2,71.2L165.2,71.2l-0.1-0.1L165.2,71.2L165.2,71.2L165.2,71.2L165.2,71.2L165.2,71.2z M165.5,71.4
		L165.5,71.4L165.5,71.4L165.5,71.4L165.5,71.4z M165.9,71.8L165.9,71.8L165.9,71.8L165.9,71.8L165.9,71.8z M165.8,71.8L165.8,71.8
		L165.8,71.8L165.8,71.8L165.8,71.8L165.8,71.8L165.8,71.8L165.8,71.8z M165.4,72.3L165.4,72.3L165.4,72.3L165.4,72.3l0.1,0.1
		L165.4,72.3L165.4,72.3L165.4,72.3L165.4,72.3L165.4,72.3z M165.2,72.5L165.2,72.5L165.2,72.5L165.2,72.5L165.2,72.5L165.2,72.5z
		 M165.5,72.7L165.5,72.7l0,0.1l0,0L165.5,72.7z M165,73.1L165,73.1L165,73.1l0-0.1l0,0L165,73.1L165,73.1L165,73.1L165,73.1z
		 M165.3,73.7L165.3,73.7L165.3,73.7L165.3,73.7L165.3,73.7L165.3,73.7L165.3,73.7z M163.6,74.1L163.6,74.1L163.6,74.1L163.6,74.1
		L163.6,74.1L163.6,74.1l-0.1-0.1l0,0l0,0l0,0l0,0l0,0l0,0l0,0L163.6,74.1L163.6,74.1L163.6,74.1L163.6,74.1L163.6,74.1L163.6,74.1z
		 M163.7,74.2L163.7,74.2L163.7,74.2l0.1,0.1L163.7,74.2L163.7,74.2z M166.2,74.4L166.2,74.4l0.1,0.1L166.2,74.4L166.2,74.4
		L166.2,74.4z M166,74.5L166,74.5L166,74.5L166,74.5L166,74.5L166,74.5l0.1,0L166,74.5L166,74.5z M162.7,75.3L162.7,75.3L162.7,75.3
		L162.7,75.3l0-0.1l0,0l0,0L162.7,75.3L162.7,75.3z M163.1,75.7L163.1,75.7L163.1,75.7l-0.1,0l0,0l0,0l0,0H163.1L163.1,75.7
		L163.1,75.7L163.1,75.7L163.1,75.7L163.1,75.7L163.1,75.7L163.1,75.7z M165,75.9L165,75.9L165,75.9L165,75.9L165,75.9L165,75.9
		L165,75.9L165,75.9z M163.3,76.4L163.3,76.4L163.3,76.4L163.3,76.4L163.3,76.4L163.3,76.4L163.3,76.4z M163,77.1L163,77.1l0,0.1
		l0.1,0.1l0,0L163,77.1L163,77.1z M163.2,77.2L163.2,77.2L163.2,77.2l0.1,0.1l0-0.1L163.2,77.2L163.2,77.2z M162.1,77.6L162.1,77.6
		L162.1,77.6l-0.1,0.1l0,0l0,0.1l0.1,0l0,0l0,0l0-0.1L162.1,77.6z M162.3,77.7L162.3,77.7L162.3,77.7L162.3,77.7l-0.1,0.1l0,0l0.1,0
		L162.3,77.7L162.3,77.7L162.3,77.7z M161.7,78.2L161.7,78.2L161.7,78.2L161.7,78.2L161.7,78.2L161.7,78.2l0.2,0l0-0.1l-0.1-0.1
		L161.7,78.2L161.7,78.2L161.7,78.2L161.7,78.2z M161.4,83L161.4,83L161.4,83L161.4,83L161.4,83L161.4,83L161.4,83z M159.8,87
		L159.8,87L159.8,87L159.8,87L159.8,87z M152.6,127L152.6,127L152.6,127L152.6,127z M151.6,127.2L151.6,127.2L151.6,127.2
		L151.6,127.2L151.6,127.2z M151.5,127.4L151.5,127.4L151.5,127.4L151.5,127.4L151.5,127.4L151.5,127.4l0,0.1L151.5,127.4
		L151.5,127.4L151.5,127.4L151.5,127.4z M151.1,127.5L151.1,127.5L151.1,127.5L151.1,127.5L151.1,127.5L151.1,127.5L151.1,127.5
		L151.1,127.5L151.1,127.5L151.1,127.5L151.1,127.5L151.1,127.5L151.1,127.5z M151.9,127.8L151.9,127.8L151.9,127.8L151.9,127.8
		L151.9,127.8z M151.6,128.7L151.6,128.7L151.6,128.7L151.6,128.7L151.6,128.7L151.6,128.7L151.6,128.7L151.6,128.7z M151.8,129.3
		L151.8,129.3L151.8,129.3l0-0.1L151.8,129.3L151.8,129.3L151.8,129.3L151.8,129.3L151.8,129.3L151.8,129.3z M153,129.1L153,129.1
		L153,129.1L153,129.1L153,129.1L153,129.1z M149.2,130.9L149.2,130.9L149.2,130.9L149.2,130.9l0.1,0l0-0.1L149.2,130.9L149.2,130.9
		z M148.4,131L148.4,131L148.4,131L148.4,131L148.4,131L148.4,131z M149.2,131.7L149.2,131.7l0,0.1L149.2,131.7L149.2,131.7
		L149.2,131.7L149.2,131.7z M149.8,132L149.8,132L149.8,132L149.8,132L149.8,132l0-0.1L149.8,132L149.8,132L149.8,132L149.8,132
		L149.8,132L149.8,132L149.8,132L149.8,132L149.8,132z M149.2,132.2L149.2,132.2L149.2,132.2L149.2,132.2L149.2,132.2l0.1-0.1l0-0.1
		l-0.1,0l0,0l0,0L149.2,132.2L149.2,132.2L149.2,132.2L149.2,132.2z M147.4,132.5L147.4,132.5L147.4,132.5L147.4,132.5l0.1,0
		L147.4,132.5l0-0.1l0,0l0,0l0,0l-0.1,0L147.4,132.5L147.4,132.5L147.4,132.5z M145.5,134L145.5,134L145.5,134L145.5,134L145.5,134
		L145.5,134l0,0.1l0,0l0,0L145.5,134L145.5,134L145.5,134z M146.1,134.6L146.1,134.6l0,0.1l0,0.1l0,0l0,0l0,0L146.1,134.6
		L146.1,134.6L146.1,134.6z M165.5,71.1L165.5,71.1L165.5,71.1L165.5,71.1l0-0.1l0-0.1l0,0L165.5,71.1L165.5,71.1L165.5,71.1
		L165.5,71.1L165.5,71.1z M166.1,71.3L166.1,71.3L166.1,71.3L166.1,71.3l0-0.1l0,0l0,0l0,0l0,0L166.1,71.3L166.1,71.3L166.1,71.3
		L166.1,71.3L166.1,71.3z M168.8,71.5L168.8,71.5L168.8,71.5L168.8,71.5L168.8,71.5l0.1-0.1l0,0l-0.1,0L168.8,71.5L168.8,71.5
		L168.8,71.5z M168.9,71.8L168.9,71.8l-0.1-0.2l0,0l0,0l-0.1,0l-0.1,0l0,0.1l0,0l0,0l0,0l0,0l0,0l0,0l0,0l0,0l0,0l0,0l0,0l0,0l0,0
		l0,0l0,0l0,0l0,0l0,0l0,0l0,0l0-0.1l0,0l0-0.1l0,0L168.9,71.8L168.9,71.8L168.9,71.8L168.9,71.8L168.9,71.8l0,0.1l0,0L168.9,71.8
		L168.9,71.8L168.9,71.8z M169.8,71.8L169.8,71.8L169.8,71.8l-0.1-0.1l0,0l0,0l0,0v0l0,0l0,0.1l0,0L169.8,71.8L169.8,71.8l-0.1,0.1
		l0,0l0,0l0,0l0,0L169.8,71.8L169.8,71.8L169.8,71.8z M165.2,72L165.2,72L165.2,72L165.2,72l0.1-0.1l0,0l0,0l0,0l0,0l0,0L165.2,72
		L165.2,72L165.2,72z M171.9,72.1L171.9,72.1L171.9,72.1l-0.2,0l0,0l0,0l0,0l0,0l0,0l0,0l0,0l0.1,0L171.9,72.1L171.9,72.1
		L171.9,72.1L171.9,72.1z M166,72.5L166,72.5L166,72.5L166,72.5l0.2,0l0,0l0,0l0-0.1l0-0.1l0-0.1l0,0l0,0l0,0l0,0l0,0l0,0l0,0.1
		L166,72.5L166,72.5L166,72.5z M168,72.3L168,72.3L168,72.3L168,72.3L168,72.3L168,72.3l-0.1,0l0,0l0,0l0,0l0,0l0.1,0l0,0l0,0
		L168,72.3L168,72.3L168,72.3z M166.1,72.6L166.1,72.6L166.1,72.6l0,0.1l0,0l0,0l0.1,0l0-0.1L166.1,72.6L166.1,72.6z M165.3,73
		L165.3,73L165.3,73L165.3,73L165.3,73L165.3,73L165.3,73L165.3,73l0-0.1l0,0L165.3,73L165.3,73L165.3,73z M170.8,73.2l0-0.1l0-0.1
		h0l0,0.1L170.8,73.2L170.8,73.2L170.8,73.2L170.8,73.2L170.8,73.2l-0.1,0.1l0,0l0,0l0,0l0,0l0,0h0l0,0l0,0l0,0l0,0l0,0l0,0l0,0
		v-0.1l0-0.1L170.8,73.2z M166.8,73.6L166.8,73.6L166.8,73.6l0.1,0L166.8,73.6l0.1-0.2l0,0l0,0l0,0l0,0L166.8,73.6L166.8,73.6z
		 M166.4,73.6L166.4,73.6l-0.1-0.1l0,0.1l0,0.1l0,0.1l0,0l0.1,0L166.4,73.6L166.4,73.6L166.4,73.6z M166.8,73.6L166.8,73.6
		L166.8,73.6l-0.2-0.1l0,0l0,0.1L166.8,73.6L166.8,73.6L166.8,73.6L166.8,73.6l0,0.1l0,0l0,0l0,0l0,0l0,0l0-0.1l0,0l0,0l0,0l0-0.1
		L166.8,73.6L166.8,73.6z M165.1,74L165.1,74l0-0.2l0,0l0,0l-0.1-0.1l0,0l0.1,0.1l0.1,0.1l0,0.1L165.1,74L165.1,74L165.1,74z
		 M166.4,73.8L166.4,73.8l0.1,0.1l0-0.1L166.4,73.8L166.4,73.8z M163.9,74.1L163.9,74.1L163.9,74.1L163.9,74.1l0-0.1l-0.1,0l-0.1,0
		l0,0V74l0,0l0,0l0,0.1L163.9,74.1L163.9,74.1L163.9,74.1L163.9,74.1L163.9,74.1L163.9,74.1z M165.9,74.2L165.9,74.2L165.9,74.2
		l-0.1-0.1l0,0l0,0l0,0l0,0h0l0,0l0,0.1l0,0.1l0,0l0,0l0,0l0,0l0,0l0,0l0,0l0.1,0l0.1,0l0,0L165.9,74.2L165.9,74.2z M166.5,74.1
		L166.5,74.1l-0.1-0.1l-0.1,0l0,0l0,0.1L166.5,74.1L166.5,74.1L166.5,74.1z M166.6,74.2L166.6,74.2L166.6,74.2L166.6,74.2l-0.1,0.1
		l0,0l0,0l0,0l0,0l0,0l0,0l0,0l0,0l0,0l0,0L166.6,74.2L166.6,74.2L166.6,74.2L166.6,74.2z M164,74.7L164,74.7L164,74.7l0,0.1l0,0
		l0,0.1l0,0l0-0.1l0,0l0,0L164,74.7L164,74.7L164,74.7z M163.7,75L163.7,75L163.7,75l-0.1,0.1l0,0.1l0,0l0,0l0,0L163.7,75L163.7,75
		L163.7,75L163.7,75z M165.6,75L165.6,75l-0.1,0l0,0L165.6,75l-0.1,0.1l0,0l0,0l0,0l0,0l0,0l0,0L165.6,75L165.6,75L165.6,75z
		 M162.5,75.5L162.5,75.5L162.5,75.5l0.1,0.1l0.1,0l0.1,0l0-0.1l0,0l0-0.1l0,0l0-0.1l-0.1-0.1l-0.1-0.1l0,0l0,0l-0.1,0l0,0l0,0l0,0
		l0,0l0,0l-0.1,0l0,0l0,0l0,0l0,0l0,0l0,0l0,0l0,0l0.1,0l0,0l0-0.1l0,0l0,0l0,0l0,0l0,0L162.5,75.5L162.5,75.5L162.5,75.5z
		 M163.6,75.2L163.6,75.2L163.6,75.2l-0.1-0.1l-0.1,0l0,0.1l0,0.1l0.1,0.1l0.1,0l0,0L163.6,75.2L163.6,75.2z M165.2,75.3L165.2,75.3
		L165.2,75.3l-0.1-0.1l0-0.1l0,0l0,0.1l0.1,0.1L165.2,75.3L165.2,75.3l0,0.1l0,0.1l0,0l0,0l0,0L165.2,75.3L165.2,75.3L165.2,75.3z
		 M165.4,75.3L165.4,75.3L165.4,75.3l0.1,0.1L165.4,75.3L165.4,75.3L165.4,75.3L165.4,75.3z M165.4,75.5L165.4,75.5L165.4,75.5
		L165.4,75.5l-0.1,0.1l0,0L165.4,75.5L165.4,75.5L165.4,75.5L165.4,75.5z M162.5,75.8L162.5,75.8L162.5,75.8l-0.1,0l0,0.1l0.1,0.1
		l0.1,0.1l0.1,0l0-0.1L162.5,75.8L162.5,75.8z M162.9,76.5L162.9,76.5L162.9,76.5l-0.1-0.1l0,0l0,0l0,0l-0.1,0l0,0l-0.1,0l0,0l0,0.1
		l0.1,0.1l0.1,0l0,0l0,0l0,0L162.9,76.5l0,0.1l0,0.1l0,0l0-0.1L162.9,76.5L162.9,76.5z M162.8,77.1L162.8,77.1L162.8,77.1l0-0.1l0,0
		l0,0l0,0l0,0l0,0l0,0l0,0l0,0l0,0l0,0l0,0l0,0l0,0.1l0,0.1l0.1,0.1l0.1,0.1L162.8,77.1L162.8,77.1l0,0.1l0,0l0,0L162.8,77.1
		L162.8,77.1z M160.5,80.1L160.5,80.1l-0.1-0.1l0,0l0,0.1l0,0.1l0,0.1l0,0.1l0,0l0,0l0,0l0-0.1L160.5,80.1L160.5,80.1z M159.9,82.2
		l0.2,0.1l0,0l0,0l0,0l0-0.1l0-0.1l0,0l0,0l0,0.1L159.9,82.2L159.9,82.2l0-0.1l0,0l0-0.1l-0.1-0.1l-0.1,0l0,0l0,0.1l0,0L159.9,82.2
		L159.9,82.2L159.9,82.2z M158.3,92.5L158.3,92.5l0,0.1l0,0L158.3,92.5L158.3,92.5l-0.1,0.1l0,0.1l0,0l0.1,0l0,0l0,0l0,0L158.3,92.5
		L158.3,92.5L158.3,92.5L158.3,92.5L158.3,92.5z M149.6,97L149.6,97l0-0.1l0-0.1l0,0l0,0l0,0.1L149.6,97L149.6,97L149.6,97z
		 M150.1,96.9l-0.1,0l0,0l0,0l0,0L150.1,96.9L150.1,96.9L150.1,96.9z M149.9,97L149.9,97L149.9,97L149.9,97L149.9,97z M149.8,97.4
		L149.8,97.4L149.8,97.4l0,0.1l0,0.1l0,0v-0.1L149.8,97.4L149.8,97.4L149.8,97.4z M149.3,97.7L149.3,97.7L149.3,97.7l0-0.1l0-0.1
		l0,0l0,0.1L149.3,97.7L149.3,97.7L149.3,97.7z M148.8,98L148.8,98L148.8,98L148.8,98l0.1,0l0.1-0.1l0,0l0-0.1l0-0.1l0,0l0,0l-0.1,0
		l0,0l0-0.1l-0.1,0.1l0,0.1l0,0.1L148.8,98L148.8,98L148.8,98L148.8,98z M149.5,98.3L149.5,98.3l0-0.2l0-0.1l0,0l-0.1,0.1l0,0l0,0.2
		l0,0L149.5,98.3L149.5,98.3z M146.2,99.1L146.2,99.1L146.2,99.1l0,0.1l0,0L146.2,99.1L146.2,99.1L146.2,99.1L146.2,99.1z M148,99.7
		L148,99.7l0-0.1L148,99.7L148,99.7z M146.8,100.4L146.8,100.4l0-0.1l-0.1,0l-0.2,0l0,0l0,0.1l0.1,0.2l0,0L146.8,100.4L146.8,100.4
		L146.8,100.4z M147.6,100.2l-0.1,0.1l0,0l0,0.1l0,0L147.6,100.2L147.6,100.2L147.6,100.2L147.6,100.2L147.6,100.2z M147,101.2
		l-0.2,0l0,0l0,0l0,0l0.3,0.2l0-0.1l0-0.1L147,101.2L147,101.2L147,101.2L147,101.2z M146.3,102.7L146.3,102.7L146.3,102.7
		L146.3,102.7z M145.5,105.2L145.5,105.2l-0.1,0.2l0,0.1l0,0.1l0.1,0l0,0l0,0l0,0l0.1-0.1l0,0l0,0l0,0L145.5,105.2L145.5,105.2z
		 M144.8,107.7L144.8,107.7l-0.1,0l-0.1,0l0,0l0,0.1l0,0L144.8,107.7L144.8,107.7L144.8,107.7z M144.5,107.7L144.5,107.7
		L144.5,107.7L144.5,107.7L144.5,107.7L144.5,107.7L144.5,107.7L144.5,107.7z M144.8,109.8L144.8,109.8L144.8,109.8L144.8,109.8
		L144.8,109.8L144.8,109.8l0-0.1l-0.1,0L144.8,109.8L144.8,109.8L144.8,109.8z M143.8,111.1L143.8,111.1l-0.1-0.1l0,0l0,0l0,0l0,0
		l0,0.1l0,0h0l0.1,0L143.8,111.1L143.8,111.1L143.8,111.1L143.8,111.1z M144.3,111.2l-0.2,0l-0.1,0l0,0.1l0,0.1l0,0.1l0,0l0,0l0,0
		l0,0l0,0l0,0l0,0l0,0l0.2,0l0,0l0-0.1L144.3,111.2L144.3,111.2z M143.8,114.8L143.8,114.8L143.8,114.8L143.8,114.8l0.1-0.1l0,0l0,0
		l0,0l0,0l0,0l0,0L143.8,114.8L143.8,114.8L143.8,114.8z M143.6,115.7L143.6,115.7L143.6,115.7l0-0.1l0,0l0,0l0,0l0,0l0,0.1l0,0.1
		l0,0l0,0L143.6,115.7L143.6,115.7L143.6,115.7L143.6,115.7L143.6,115.7L143.6,115.7z M143.8,117.8L143.8,117.8L143.8,117.8
		L143.8,117.8l0.1,0.1h0l0.1,0l0,0l0,0l-0.1,0l0,0l0,0L143.8,117.8L143.8,117.8L143.8,117.8L143.8,117.8z M148.4,120.2L148.4,120.2
		L148.4,120.2l0-0.1l0,0l0,0l0,0l-0.1,0l-0.1,0l0,0l0,0L148.4,120.2L148.4,120.2z M149.4,122.3L149.4,122.3l-0.1-0.1l0,0l0,0l0,0.1
		l0,0l0.1,0L149.4,122.3L149.4,122.3L149.4,122.3L149.4,122.3z M149,122.8L149,122.8l-0.2-0.1l-0.2,0l0.1,0.2l0.2,0.1l0.1,0l0,0
		L149,122.8L149,122.8L149,122.8L149,122.8z M149.2,122.7L149.2,122.7L149.2,122.7L149.2,122.7L149.2,122.7L149.2,122.7L149.2,122.7
		l0,0.1l0,0l0,0l0,0l0,0l0,0l0,0l0.1,0l0-0.1l0,0L149.2,122.7L149.2,122.7z M151.5,125.7L151.5,125.7L151.5,125.7l-0.1,0.1l-0.1,0.1
		l0,0l0,0l0,0l0,0l0,0l0.1-0.1l0,0L151.5,125.7L151.5,125.7L151.5,125.7z M151.2,126.3L151.2,126.3L151.2,126.3L151.2,126.3
		L151.2,126.3l0.1,0l0,0l0,0L151.2,126.3L151.2,126.3z M151.6,126.4L151.6,126.4L151.6,126.4L151.6,126.4L151.6,126.4l0.1,0.1
		L151.6,126.4l0.1,0l0,0l0,0l0,0L151.6,126.4L151.6,126.4L151.6,126.4L151.6,126.4z M151.5,126.6l-0.1,0l0,0l0,0v0l0,0.1l0.1,0
		L151.5,126.6L151.5,126.6L151.5,126.6L151.5,126.6z M150.4,127.2L150.4,127.2l-0.2,0l0,0.1l0,0l0,0l0.1,0l0.1,0h0l0,0L150.4,127.2
		L150.4,127.2L150.4,127.2L150.4,127.2L150.4,127.2L150.4,127.2L150.4,127.2L150.4,127.2z M151.7,127.3L151.7,127.3L151.7,127.3
		L151.7,127.3L151.7,127.3L151.7,127.3L151.7,127.3L151.7,127.3L151.7,127.3L151.7,127.3L151.7,127.3L151.7,127.3z M151.5,128
		L151.5,128L151.5,128l0.1,0l0,0l0,0l0,0l0,0l0,0l0,0L151.5,128L151.5,128z M151,128.1L151,128.1l0.1,0.1l0,0l0.1-0.1l0,0l0,0l0,0
		l0,0L151,128.1L151,128.1z M149.8,128.9L149.8,128.9L149.8,128.9l-0.1,0l0,0L149.8,128.9l0.4,0l0,0l0,0l0,0l-0.1,0l0,0l0,0l0,0l0,0
		l0,0L149.8,128.9L149.8,128.9z M149.8,129L149.8,129L149.8,129l-0.1,0l0,0l0,0l0,0l-0.1,0l-0.1,0.1l0,0.1l0,0l0.1,0l0,0l0,0l0,0
		l0.1,0l0,0L149.8,129l-0.1,0.1l0,0L149.8,129L149.8,129z M148,129.4L148,129.4l0.2-0.1l0-0.1l-0.1-0.1l-0.1,0l0,0l0,0l0,0
		L148,129.4L148,129.4L148,129.4L148,129.4z M151,129.4L151,129.4L151,129.4L151,129.4L151,129.4z M148.4,129.5L148.4,129.5
		L148.4,129.5L148.4,129.5L148.4,129.5l-0.1-0.1l0,0l0,0.2L148.4,129.5l0.1,0.1l0,0L148.4,129.5L148.4,129.5L148.4,129.5z
		 M150.8,129.5L150.8,129.5L150.8,129.5L150.8,129.5L150.8,129.5l0-0.1l0,0l0,0l0,0l0,0l0,0.1L150.8,129.5L150.8,129.5L150.8,129.5z
		 M150.5,130L150.5,130L150.5,130L150.5,130L150.5,130L150.5,130L150.5,130L150.5,130l-0.1-0.1l0,0.1l0,0.1l0,0.1l0,0l0,0l0,0l0.1,0
		L150.5,130L150.5,130L150.5,130L150.5,130L150.5,130z M150.4,130.3L150.4,130.3L150.4,130.3L150.4,130.3L150.4,130.3L150.4,130.3
		L150.4,130.3L150.4,130.3z M150.6,130.6L150.6,130.6L150.6,130.6L150.6,130.6l0-0.1l0,0l0,0l0,0l-0.1,0l0,0L150.6,130.6
		L150.6,130.6z M149.4,131.4L149.4,131.4L149.4,131.4l0.1-0.1l0,0l0,0l0,0l0,0L149.4,131.4z M149,132.3L149,132.3L149,132.3
		L149,132.3L149,132.3L149,132.3L149,132.3l-0.1,0l0,0l0,0.2l0.1,0l0,0l0-0.1l0-0.1L149,132.3L149,132.3z M146.8,133.1l-0.1,0.2
		l0,0.1l0,0l0,0l0,0l0,0l0,0l0-0.1l0,0l0,0l0,0L146.8,133.1L146.8,133.1L146.8,133.1L146.8,133.1L146.8,133.1L146.8,133.1
		L146.8,133.1L146.8,133.1z M147.6,133.3L147.6,133.3L147.6,133.3L147.6,133.3L147.6,133.3l-0.2,0l0,0l0,0v0l0,0.1l0,0l0,0l0,0.1
		l0,0l0,0l0,0l0,0L147.6,133.3L147.6,133.3z M117.6,133.8L117.6,133.8L117.6,133.8L117.6,133.8L117.6,133.8l0-0.1l0,0l-0.1,0l0,0
		l0,0l0,0l0-0.1l0,0l0,0l0,0l0,0l0,0l0,0l0,0l0,0l0,0l0,0.1l0,0l0,0l0,0l0,0l0,0l0,0.1l0,0l0,0l0,0l0,0l0,0l0,0l0,0l0,0l0,0l0.1,0
		l0,0l0,0l0,0l0,0l0,0l0,0L117.6,133.8L117.6,133.8L117.6,133.8L117.6,133.8z M146.2,134.2l0-0.1l0-0.1l0,0l-0.1,0l0,0l0-0.1
		l0.1-0.1l0-0.1l0,0l0,0l0,0l0,0.1l0,0l0,0l0,0.1l0,0.1l0,0.1l0,0l0,0l0,0l0,0l0,0.1l0,0.1l0,0.1l-0.1,0l0,0l0,0l0.2,0l0,0l0,0
		l0-0.1l0,0l0,0l0,0L146.2,134.2L146.2,134.2L146.2,134.2z M147.2,134L147.2,134L147.2,134L147.2,134l0.1-0.1l0,0l0-0.1l0-0.1l0,0
		l0,0l-0.1,0.1L147.2,134L147.2,134L147.2,134L147.2,134L147.2,134L147.2,134z M145.3,134.3l-0.3-0.2l0,0l0,0l0,0.1l0.2,0.1
		L145.3,134.3l0.1,0.2l0,0l0-0.1L145.3,134.3z M144.5,134.7L144.5,134.7L144.5,134.7L144.5,134.7l0,0.1L144.5,134.7L144.5,134.7
		l-0.1,0l0,0l0,0l0,0.1l0.1,0l0,0l0,0l0,0l0,0l0,0l0,0l0,0.1l0,0l0,0l0,0l0.1-0.2l0,0l0.1,0L144.5,134.7L144.5,134.7z M144.5,135
		L144.5,135L144.5,135l0,0.2l0,0l0.1-0.1L144.5,135L144.5,135z M142.3,136.8L142.3,136.8L142.3,136.8l-0.1-0.1l-0.1,0h0l0,0l0,0
		l0.1,0.1L142.3,136.8L142.3,136.8L142.3,136.8L142.3,136.8L142.3,136.8z M142.4,137L142.4,137L142.4,137L142.4,137L142.4,137
		l0.1-0.1l0,0l-0.1,0l0,0L142.4,137L142.4,137L142.4,137z M141.8,139.9L141.8,139.9L141.8,139.9L141.8,139.9l-0.1,0l0,0.1l0.1,0.1
		l0.1,0l0.1,0L141.8,139.9L141.8,139.9L141.8,139.9l0,0.1L141.8,139.9L141.8,139.9L141.8,139.9L141.8,139.9L141.8,139.9L141.8,139.9
		z M120,141.8L120,141.8L120,141.8L120,141.8L120,141.8l0.1-0.1l0,0l0,0l0,0l-0.1,0l-0.1,0l-0.1,0.1l0,0l0,0l0.1,0.1l0.1,0l0,0l0,0
		l-0.1,0l0,0l0,0l0,0l0,0l0,0v0l0,0l0,0l0.1,0l0,0l0,0l0,0l0,0l0,0l0,0l0,0L120,141.8L120,141.8L120,141.8L120,141.8z M141.3,142.1
		L141.3,142.1L141.3,142.1L141.3,142.1L141.3,142.1l0.1,0.1l0,0.1l0,0l0,0l0,0l0,0l0.1,0l0,0l0,0l0,0l0,0l0,0l0,0l0,0l0,0v0l0,0v0
		l0,0l-0.1,0l-0.1-0.1l-0.1,0l0,0L141.3,142.1L141.3,142.1L141.3,142.1z M141.1,142.3L141.1,142.3L141.1,142.3l0.1,0.1l0,0l0.1,0.1
		l0,0l0,0l0,0l0,0l0,0l0,0l0,0l0,0L141.1,142.3L141.1,142.3z M120.2,143.2L120.2,143.2L120.2,143.2L120.2,143.2L120.2,143.2
		L120.2,143.2l0-0.1l0,0l0,0l0-0.1l-0.1-0.1l0,0.1l0,0l0,0l0,0l0,0l0,0v0l-0.1,0l0,0l0,0l0,0l0,0l0,0l0,0l0,0.1l0,0L120.2,143.2
		L120.2,143.2L120.2,143.2L120.2,143.2L120.2,143.2L120.2,143.2z M141.3,143.8L141.3,143.8l0,0.1l0,0l-0.1,0l0,0l0,0l0,0l0,0l0,0.1
		l0,0l0,0l0,0l0,0l0,0l0,0l0,0l0,0l0,0l0,0l0,0l0.1-0.2l0-0.1l0-0.1L141.3,143.8L141.3,143.8z M140.7,147.2L140.7,147.2L140.7,147.2
		L140.7,147.2L140.7,147.2l-0.1,0.1l0,0l0,0l0,0l0.1-0.1L140.7,147.2L140.7,147.2L140.7,147.2L140.7,147.2z M137.4,155.2
		L137.4,155.2L137.4,155.2L137.4,155.2l-0.1,0l0,0l0,0l0,0l0,0l0.1,0.1l0,0l0,0l0,0l0,0L137.4,155.2L137.4,155.2L137.4,155.2
		L137.4,155.2z M136.8,155.2L136.8,155.2L136.8,155.2L136.8,155.2L136.8,155.2L136.8,155.2l-0.2,0.1l0,0l0,0l0,0l0.1,0l0,0l0,0
		L136.8,155.2L136.8,155.2L136.8,155.2L136.8,155.2z M136.4,155.2L136.4,155.2L136.4,155.2l-0.1,0.1l0,0l0,0l0,0l0.1,0l0,0l0-0.1
		l0-0.1L136.4,155.2z M136.2,155.2L136.2,155.2l-0.1,0l0,0.1l0,0l0,0l0,0l0,0l0.1,0l0,0l0,0l0,0l0-0.1L136.2,155.2L136.2,155.2
		L136.2,155.2L136.2,155.2z M124.5,156.8L124.5,156.8l-0.1,0l0,0l0.1,0.2l0,0l0-0.1L124.5,156.8L124.5,156.8z M151.8,138l0.2,0.1
		l0.2-0.1l0.2-0.1l-0.1-0.1l-0.2-0.1l-0.1-0.1h-0.1L151.8,138z M148.5,130.7l0.2,0.1l0.2,0.2l0.1,0l0.1-0.2l-0.2,0l-0.1-0.1l0-0.2
		l0.1,0.1l0.1,0l0.2,0l-0.4-0.2l-0.3-0.1l-0.5,0l0.2,0.1l0.1,0.1l0,0L148.5,130.7L148.5,130.7z M159,91l-0.1-0.2l-0.2,0l-0.1,0.3
		l0.1,0l0,0l0,0l0,0.1l0,0.1L159,91z M148.3,121.3l0.1,0.2l0.2,0.1l0.2,0.3l0.2,0.1l0,0l0-0.1l0,0l0,0l0,0l0,0l-0.1-0.1l0-0.1l0-0.1
		l-0.1,0.1l-0.1,0l0-0.1l0-0.1l-0.2-0.4l0-0.1l0.1,0l0.1,0.1l0.1,0l0-0.1l-0.1-0.1l-0.1-0.1l0-0.1l0,0l0,0v0l0,0l0-0.1l0,0l-0.1,0
		l0,0l0,0.1l0.1,0.2l0,0.1l0,0.4L148.3,121.3z M166.8,71.7l0-0.2l-0.2-0.2l0,0l0,0.2l0,0.1l0,0.1l0,0.1l0,0.1l0,0.1l0.1,0.1l0.2,0
		l0-0.1L166.8,71.7z M170.9,71.9L170.9,71.9l0-0.1l0,0l0,0l0-0.1l0-0.1l0-0.1l0,0l0,0l0,0.1l0,0l0,0l0,0l0,0.1l0,0l0,0l-0.1,0l0-0.1
		l0,0l0,0.1l0,0l0,0l0-0.1l0,0.1l0,0.2l0.1,0.1l0.2,0.1L170.9,71.9z M167.5,72.2L167.5,72.2l0-0.1l0,0l0,0l0-0.1l0-0.1l-0.1-0.1
		l-0.1-0.1l0,0l0.1,0l0-0.1l-0.1-0.1l-0.1,0l-0.1,0.1l0,0.2l0.1,0.2l0.1,0.2l0.1,0.1l0.1,0L167.5,72.2z M165.8,73.1L165.8,73.1
		l0.1,0.1l0.1-0.1l0-0.1l-0.1,0L165.8,73.1L165.8,73.1z M165.7,73.3L165.7,73.3l0,0.1l0.1,0.1l0,0l0,0l0,0l0,0l0,0l0,0l0-0.1l0-0.1
		l0,0l0.1,0l0-0.1l-0.1,0l-0.2,0.1l-0.1,0L165.7,73.3L165.7,73.3L165.7,73.3z M164.7,74.3L164.7,74.3l-0.1-0.1l0,0l0,0l0-0.1l0,0
		l0.1,0l0.1,0l0.1,0.1l0,0.1l0,0l0.1,0l0-0.1l-0.1-0.1l0-0.1l0,0l0,0l0,0l-0.3-0.2l-0.1,0l-0.1,0l0,0l0,0.1l0.1,0.2L164.7,74.3
		L164.7,74.3L164.7,74.3L164.7,74.3z M166.1,74L166.1,74l0-0.1l-0.1,0l0,0l0,0l-0.1-0.1l0,0.1l0.1,0.1l0.1,0L166.1,74L166.1,74z
		 M164.4,74.7L164.4,74.7l-0.1-0.1l0-0.1l0,0l0-0.1l-0.2-0.1h-0.1l0,0.1v0.1l0,0l0,0.1l0,0.1l0,0l0.2,0l0,0l0,0l0.1,0l0-0.1
		L164.4,74.7L164.4,74.7z M165.1,74.8L165.1,74.8l0.1-0.2l0-0.1l-0.1,0l-0.1,0l-0.1,0.1l-0.1,0.1l0,0l0-0.1l0,0l0,0l0,0.1l0,0.1l0,0
		L165.1,74.8L165.1,74.8z M159,91.1L159,91.1L159,91.1l-0.1,0.1l0,0.1l-0.1,0.5l0,0.1l0.1-0.1l0,0l0,0l0.1-0.1l0.1-0.1l0-0.1l0-0.1
		l0-0.1l0-0.1l0-0.1L159,91.1l0.1,0L159,91.1L159,91.1l0.1-0.1l0,0L159,91.1L159,91.1z M158.7,91.9l-0.2,0.2l0,0.1l0.1,0l0.1-0.1
		l0-0.1V91.9L158.7,91.9L158.7,91.9z M147.3,100.9L147.3,100.9L147.3,100.9L147.3,100.9l0.1-0.2l0-0.1l0-0.1l0,0l-0.1,0l-0.1,0.1
		l0,0l0-0.1l-0.1,0l-0.1,0l-0.1,0.1l0,0.1l0,0.1l0,0.2l0.1,0.2l0.2,0l0.2-0.1l0-0.1L147.3,100.9L147.3,100.9L147.3,100.9
		L147.3,100.9z M149.8,122.9L149.8,122.9L149.8,122.9l0,0.1l0,0.1l0,0.1l0,0l0.1,0l0.1,0l0.1,0l0.1-0.1l0-0.1l0-0.1l0,0l0,0l0,0l0,0
		l0,0l0-0.1l0,0l0,0l0,0l0-0.1l0,0l-0.1,0l-0.1,0l0,0L149.8,122.9L149.8,122.9L149.8,122.9z M150.9,126l0-0.1l0-0.1l0-0.1l0,0l0,0
		l0,0l0,0.1l-0.2,0.3l0,0.1l0,0.1l0.1,0l0,0l0,0l0,0l0,0l0.1,0l0.1,0l0.1,0l0,0l0,0l0,0l0,0l0,0l0,0l0,0l0,0L150.9,126z
		 M150.1,127.9l-0.1,0.1L150,128l-0.1,0l0,0l0.1,0l0.1,0l0.1-0.1l0,0l0,0l0,0l0,0L150.1,127.9l0.2,0l0,0l0.2-0.3l0.1-0.1l0-0.1
		l-0.3,0.2L150.1,127.9L150.1,127.9z M150.8,127.7L150.8,127.7L150.8,127.7L150.8,127.7l-0.1-0.2l-0.1,0l-0.1,0l-0.3,0.4l0,0.1
		l0,0.1l0.1,0l0,0l0,0l0-0.1l0.1-0.3l0,0l0.1,0L150.8,127.7L150.8,127.7L150.8,127.7L150.8,127.7z M149.3,128.8L149.3,128.8
		L149.3,128.8l0.1-0.1l0,0l0.1-0.1l0.2-0.1l0,0l-0.2,0.1l0,0l0,0l0,0l0,0l-0.1,0l-0.1,0l-0.1,0l-0.1,0.1l-0.1,0.1l-0.1,0.1l0,0.1
		l0,0.1l0,0l0,0l0,0l0,0l0,0l0,0l0,0l0,0l0,0l0,0l0,0l0,0l0,0l0-0.1l0,0l-0.1,0l0,0l0,0.1l0,0l0,0l0,0.1l0,0.1l0,0.1l0,0.1l0,0.1
		l0,0l0,0l0,0l0,0l0,0l0-0.3l0,0.1l0,0l0,0l0-0.1l0-0.2L149.3,128.8L149.3,128.8L149.3,128.8L149.3,128.8L149.3,128.8z M150.6,129.2
		L150.6,129.2L150.6,129.2l-0.1-0.1l-0.1,0l-0.1,0l-0.1,0.1l0,0.1l0.1,0l0.1-0.1L150.6,129.2z M150.3,129.6L150.3,129.6L150.3,129.6
		L150.3,129.6L150.3,129.6L150.3,129.6L150.3,129.6L150.3,129.6z M150.7,129.7L150.7,129.7l0-0.1l0,0l-0.1-0.1l-0.1,0l0,0l0,0.1l0,0
		l0,0l0.1,0.1L150.7,129.7L150.7,129.7z M147.7,129.8L147.7,129.8L147.7,129.8l-0.5-0.2l-0.1,0l0,0.1l0,0l0,0.1l0,0.1l0.1,0.1
		l0.1,0.1l0.1,0l0.1,0l0-0.1L147.7,129.8l-0.1,0L147.7,129.8L147.7,129.8z M149.5,129.9L149.5,129.9l0.1,0.1l0,0.1l0,0.1l0,0l0,0
		l0,0l0,0.1l0,0l0,0l0.2-0.1l0.1-0.1l0-0.1l0-0.1l0,0l0,0l0,0l-0.1-0.1l0,0l0,0l0,0l0,0l-0.2,0l0,0L149.5,129.9L149.5,129.9z
		 M150,130.6L150,130.6L150,130.6l0.1-0.1l0,0l0,0l0,0l-0.1,0l-0.1,0l-0.1,0.1l-0.1,0.1l0,0.1l0,0l0,0l0,0l0,0l0,0l0,0l0,0l0,0l0,0
		l0,0L150,130.6z M149.8,131.1l-0.1,0l0,0l-0.1,0l-0.1,0.1l0,0.1l0,0.1l0,0L149.8,131.1L149.8,131.1L149.8,131.1z M148.2,132.5
		L148.2,132.5L148.2,132.5l0,0.2l0,0.1l0,0l0,0l0,0h0l0,0l0,0l0,0l0,0l0,0l0,0l0-0.1l0,0l0-0.1l0.1-0.1l0.1-0.2l0,0l0,0l0,0l0,0
		l0-0.1l0-0.1l-0.1,0l-0.1,0l-0.1,0.1l-0.1,0.1l-0.2,0.1l0,0l0,0l0,0.1l0,0l0,0l0,0l0,0L148.2,132.5L148.2,132.5L148.2,132.5
		L148.2,132.5z M145.2,132.8l0,0.1l0,0.1l0,0.1l0,0l0,0.1l0,0.1l0,0.1l0,0l0,0l0.1,0.2l0,0l0-0.1l0-0.1l0,0l0,0l0-0.1l0-0.1l0-0.1
		l0-0.1l0-0.1l0-0.1l0-0.1l0-0.1l0-0.1l0-0.1l0-0.1l0-0.1l0,0l0,0l0,0l0-0.1l0,0l0,0.1l0,0.2l0,0.1l0,0L145.2,132.8L145.2,132.8z
		 M147.1,133L147.1,133l0.1,0.1l0.1,0l0-0.1l0-0.1l0-0.1l0-0.1l0,0l0,0.1l0,0l0,0l0,0l0,0l0,0l0-0.1l0,0l0,0l0,0l0,0l0.2-0.1l0,0
		l-0.2,0l-0.1,0l-0.1,0l-0.1,0l0,0l0,0.1l0,0.1l0,0l0,0l0,0l0,0l0,0.1l0,0l0,0l0,0l0.1,0L147.1,133L147.1,133L147.1,133z M148,133.1
		L148,133.1L148,133.1l-0.1,0l-0.1,0l-0.1,0.1l-0.1,0.1l-0.1,0.1l0,0.1l0,0l0,0l0,0l0.1-0.1l0.1,0l0.1,0l0.1,0l0,0l-0.1,0l0-0.1l0,0
		l0,0l0,0l0,0l0.1-0.1l0.1-0.1l0-0.1l0,0L148,133.1L148,133.1z M141.7,138L141.7,138l0,0.1l0.1,0.1l0.1,0.1l0.1,0l0.1,0l0.1,0l0,0
		l0,0l0,0l0,0l0,0l0,0l-0.1,0l-0.1,0l-0.1-0.1l-0.1-0.1L141.7,138l0.1-0.1h0l0,0l-0.1-0.1l0,0l0,0l0-0.1l0,0l0,0l0,0l-0.1,0l0,0l0,0
		l-0.1,0l0,0l-0.1,0l0,0.1l0,0.1L141.7,138L141.7,138L141.7,138z M141.9,138.3L141.9,138.3l0,0.2l0,0.1l0,0l0.1,0l0-0.1l0-0.1l0-0.1
		L141.9,138.3L141.9,138.3z M137.1,155.3L137.1,155.3L137.1,155.3l-0.1,0l0,0l-0.1,0l-0.1,0.1l0,0.1l0.1,0.1l0,0l0,0l0,0l0,0l0-0.1
		l0-0.1L137.1,155.3L137.1,155.3L137.1,155.3L137.1,155.3L137.1,155.3L137.1,155.3z M119.7,141.2L119.7,141.2L119.7,141.2l0.1,0.1
		l0,0l0-0.1l0,0l0.1,0l0,0l0-0.1l0-0.2l0-0.1l0.1-0.1l0.1,0l0,0.1l0,0.1l0,0l0.1,0l0,0l0-0.2l0,0l0,0l0-0.1l-0.1,0l-0.1,0l-0.1,0.1
		l-0.1,0h-0.4l-0.2,0l-0.1,0l0,0.1l0,0.1l0.1,0h0.1l0.1,0l-0.1,0l-0.1,0l0,0l0,0.1l0,0.1l0,0.1l0,0.1l0,0.1l0,0L119.7,141.2
		L119.7,141.2z M119.5,140.1L119.5,140.1L119.5,140.1l0.1-0.2l0.1-0.1l0.1,0l0.1,0l0.1,0.1l0.1-0.1l0.2,0.1l0.2-0.2l0.1,0l0.1,0
		l0-0.1l0-0.4l0-0.2l0-0.2l-0.1-0.1l-0.1-0.1l-0.1-0.1l0-0.2l-0.1,0l-0.1,0l-0.1,0l0,0l0,0.1l0,0l0,0.1l0,0.1l0,0.1l-0.1,0l-0.1,0
		l-0.1,0l-0.1,0l-0.1,0.1l-0.1,0.1l-0.4,0.4l-0.1,0.1l0,0.1l0,0.1l0.1,0.1l0,0.1l0,0.2h0V140L119.5,140.1L119.5,140.1L119.5,140.1z
		 M152.2,141l-0.1,0l-0.1,0l-0.1,0l0-0.1l-0.1,0.1l-0.1,0l-0.1,0l0,0l-0.1,0.1l-0.1,0l-0.1,0l0,0.1l0,0.1l0,0.1l0,0.1l-0.1,0.1
		l0,0.1l0,0.1l0.1,0.3l0.1,0.1l0.1,0.1l0.1,0l0.1,0l0,0l0.1-0.2l0-0.1l0-0.1l0,0l-0.1,0l0.1-0.1l0.2-0.1l0.1-0.1l0.1-0.1l0.2,0.1
		l0.1-0.1l0,0l0,0l0,0l0,0L152.2,141L152.2,141z M151.1,141.9L151.1,141.9l-0.1-0.1l0-0.1l0-0.1l0-0.1l0,0l-0.1,0l-0.1,0l-0.1,0
		l-0.1,0l0,0.1l-0.1,0l-0.1-0.1l0.1-0.1v0l-0.3,0l-0.1,0l0,0.1l0,0.1l0,0l0,0.1l-0.1,0.1l-0.1,0.1l0,0.2l-0.1-0.1l0-0.1l0-0.1l0,0
		l0,0l0,0l0,0l0,0l0,0l0,0l0,0l-0.1-0.1l-0.1-0.1l-0.1,0l-0.1,0l-0.1,0.1l-0.1,0.1l-0.1,0.1l-0.1,0.1l0,0.1l0,0.1l0,0.1l-0.1,0
		l-0.1,0l-0.1,0l-0.1,0l-0.2,0.1l-0.2,0.2l-0.6,1l-0.7,0.7l-0.1,0.2l-0.1,0.3l0,0.2l0,0.2l0,0.2l0,0.1l0,0l0,0.1l0,0l0,0.1l0,0l0,0
		l0,0l0,0l-0.1,0.1l0,0.1l0,0.2l-0.1,0.1l-0.2,0.1l-0.1,0.1l0,0.1l0.3,0.2l0.1,0.7l0.2,0.1l0,0l0,0.1l0,0l0.1,0l0,0.1l0,0.1
		l-0.1,0.1v0.1l0.1,0l0.1-0.1l0.1-0.1l0.1-0.1l0,0.1l0,0.2l0,0.1l-0.1,0.1l-0.2,0.1l-0.1,0.1l0,0.1l0,0.1l0,0.1l-0.3,0.5l0.1,0.1
		l0.1,0l0.4-0.2l0.1,0l0-0.2l0-0.1l0.1-0.1l-0.1-0.1v-0.1h0.2l-0.1-0.1l-0.1-0.1l0-0.1l0-0.4l0.1-0.1l0.3-0.2l0.1-0.1h-0.3l0.1-0.1
		l0.1-0.1l0.5-0.3l0.1,0v0h-0.1V147l0.1-0.1l0.4-0.1l0,0l0.1-0.1l0-0.2l0,0l-0.1,0l0,0l0-0.1l0.1-0.1l0.2-0.1l0.1-0.1l0.1-0.1
		l0.1-0.1l0.1,0l0,0l0.1-0.1l0,0l0,0l0,0l0,0h0.1l0.1,0l0-0.1l0-0.1l0-0.1l0-0.1l0,0l-0.1-0.1l-0.1,0l0,0l0,0l0,0l-0.2,0l-0.2-0.1
		l0-0.1l0,0l-0.1,0l-0.1,0l0-0.1l0-0.1l-0.1-0.1l0-0.1l0.1-0.1l0-0.1l0-0.1l0-0.1l0-0.1l0-0.1l-0.2-0.1l0,0l0-0.1l0-0.1l0,0l0-0.1
		l0.1-0.2l0.1-0.3l0-0.1l0-0.1l0-0.1l0.1,0l0,0l0.1,0.1l0.1,0l0.2,0l0.2,0l0-0.1v-0.1l0-0.1l0-0.1l0-0.1l0,0l0.1,0l0,0.1l0-0.3
		l0.1-0.1l0.3,0l0-0.1L151.1,141.9z M143,146L143,146L143,146L143,146l-0.1-0.1l0,0l0,0h0l0,0.1l0,0l0,0l0-0.1l0,0l-0.1,0l-0.1,0.1
		l-0.1,0.2l-0.1,0.1l0,0.1l0,0.4l0,0.1l-0.1,0.1l-0.1,0l0,0l0,0.1l-0.1,0.6l-0.2,0.5l-0.2,0.4l-0.2,0.5l-0.1,0.3l-0.1,0.1l-0.1,0
		l-0.1,0l-0.1,0l-0.1,0.1l-0.7,1.8l0,0.2l0,0.1l-0.1,0.2L140,152l0,0.1l0,0.7l0,0.1l0,0.1l0,0.1l0,0.1l0,0.3l0,0.2l0,0.2l0.1,0.2
		l0,0.1l0,0.2l0,0.1l0.1,0.1l0.1,0l0.1-0.1l0.1-0.1l0.2-0.5l0-0.1l0-0.1l0.1-0.1l0-0.1l0-0.2l0-0.1l0-0.1l0-0.2l0.1-0.2l0.1-0.1
		l0-0.1l0-0.1l0-0.1l0,0l0-0.1l0,0l0,0l0,0l0,0l0-0.2l0-0.1l0.1,0l0,0l0-0.1l0-0.1l0-0.1l0-0.2l0-0.1l0.2-0.8l0-0.2l0-0.1l0-0.1
		l0-0.1l0-0.1l0,0l0.2-0.1l0,0l0-0.1l0.1-0.4l0-0.1l0.1-0.1l0-0.1l0-0.2l0-0.1l0.1-0.2l0.1-0.1l0.1-0.1l0,0l0,0l0,0l0-0.1l0.1-0.1
		l0.1,0l0.1-0.1l0-0.2l0-0.1l0.2-0.3l0-0.1l0-0.1l0-0.1l0,0l0.1,0l0,0l0,0l0-0.1l0.1-0.2l0-0.1l-0.1-0.2l0.1-0.3l0.1-0.1L143,146
		L143,146L143,146z M171.8,71.1l0.2,0l0.1-0.1l0,0l0,0l0,0l0-0.1l0.3,0.1l0.1,0l0.1-0.2l0-0.2l-0.2-0.3l-0.1-0.4l-0.1-0.2l-0.1-0.2
		l0-0.2l0-0.2l-0.1-0.5l0-0.1l0-0.1l-0.1-0.1l0-0.1l0-0.1l-0.2-0.7l-0.1-0.1l-0.4-0.2l-0.1-0.1l-0.1-0.2l-0.1-0.5l0-0.3l-0.1-0.2
		l0-0.1l0-0.1l0-0.1l0-0.1l0-0.1l0-0.2l0-0.1l0-0.1l-0.1-0.2l0-0.1l0-0.2l0.1-0.2l0.1-0.1l0.1,0v-0.2l0.1-0.1l0.1-0.1l0.1-0.1l0-0.1
		l0.2-0.2l0.1-0.1l0-0.2l0-0.2l0-0.2l0-0.2l0-0.2l0-0.2l0-0.2l0-0.2l0-0.4l0-0.1l0.1-0.2l0.1-0.2l0.1,0l0.1,0l0.1,0l0-0.1l0-0.1
		l-0.2-0.5l-0.1-0.3l-0.1-0.2l-0.2-0.2l-0.2-0.5l-0.1-0.1l-0.1-0.1l-0.1-0.1l-0.1-0.2l-0.2-0.4l0-0.1l0-0.1l0-0.1l0-0.1l0-0.1l0-0.1
		l0,0l-0.1-0.2l-0.1-0.1l-0.1-0.1l0-0.2l0.1-0.1l0-0.1l0-0.1l0-0.1l-0.1,0l0-0.1l0-0.2l0-0.2l0.1-0.1l0.5-0.2l0.1-0.2l0.1-0.3
		l-0.1-0.1l0-0.3l0-0.3l0-0.2l-0.1-0.1l-0.1,0l-0.3-0.1l-0.3-0.2l-0.2,0l-0.2,0.1l-0.2,0l-0.1-0.2l-0.1-0.3l0.1-0.2l0.1-0.2l0.1-0.2
		l0-0.1l0.1-0.1l0.2-0.1l0.1-0.1l0-0.3l0-0.2l-0.1-0.3l0-0.2l0-0.4l0-0.2l0-0.1l0-0.7l0-0.2l0-0.3l0-0.3l0.1-0.2l0.1-0.1l0.3-0.1
		l0.1-0.1l0.1-0.2l0-0.2l-0.1-0.1l-0.3-0.1l-0.4-0.5l-0.1-0.1l-0.3-0.3l0-0.1l0-0.1l-0.2-0.7l0-0.1l-0.1-0.1l-0.1,0l-0.4,0.3l-0.1,0
		l0-0.1l0,0l0,0l0-0.1l0-0.1l0-0.1l0-0.3l0-0.1l0-0.1l0-0.3l-0.1-0.2l-0.2-0.2l-0.1-0.1l0-0.1l0-0.1l0-0.1l-0.1-0.1l-0.6-0.4
		l-0.1-0.2l-0.2-0.4l-0.1-0.1l-0.3,0.1l-0.1-0.2l-0.1-0.2l-0.1-0.1l-0.1,0l-0.1,0l-0.1,0l-0.2-0.1l-0.2,0l-0.3-0.2l-0.3,0l0,0l0-0.1
		l0,0l-0.3-0.1l-1,0l-0.1-0.1l0-0.1l0-0.1l0-0.1l0,0l0,0l-0.1-0.1l-0.1-0.1l-0.1-0.2l0-0.1l-0.2-0.2l-0.8-0.2l-0.1-0.4l-0.2-0.2
		l-0.4-0.4l-0.3-0.1l-0.1-0.1l-0.1-0.1l-0.1-0.4l0-0.1l0-0.1l-0.1-0.1l-0.3,0l0,0l0,0l0-0.1l0,0l-0.1-0.1l-0.2-0.5l-0.3-0.3
		l-0.3-0.3l-0.7-0.3l-0.1-0.1l0-0.2l0.1-0.1l0.1-0.2l0-0.2l-0.1-0.2l-0.2-0.1l-0.3-0.3l-0.5-0.1l-0.2-0.2l-2.2,0.2l1,1.3l0,0.2l0,1
		l0,0.2l-0.1,0.2l-0.4,1.2l-0.4,0.6l-0.8,0.8l1.2,0.7l-1,1.3l-0.2,0.1l-0.2,0l-1.9-0.8l-1.9-0.9l-1.4,0.1l-0.2-0.1l-0.7-0.7
		l-0.2-0.1l-1.1,0.4l0,0.1l0,0.1l-0.1,1.1l0,0.3l0.2,2.2l-0.1,0.5l-0.8,1.6l-0.1,0.3l-0.1,0.2l-0.1,0l-2.4-1.5l-0.1,0.1l-0.3,0.6
		l-1.7,1.4l-0.1,0.2l-0.1,0.2l-0.6,2.5l-0.1,0.2l-0.4,0.7l-0.2,0.3l-0.3,0.1l-0.7,0.1l-0.1,0.1l-0.2,0.8l1.3,2.4l0,0.2l-0.1,1.4
		l-0.1,0.2l-0.1,0.1l-0.2,0.2l-0.8,0.8l-0.4,0.5l-1.5,3.1l-1,1.1l0,0.3l0.2,1.3l0,0.3l0,0.2l0,0.1l-1.8,1.3l-2.1,0.3l0.4,2.9l0,0.4
		l0,0.2l-0.3,0.7l0,0.2l-0.2,2.4l0,0.5l0,0.5l0,0.5l-0.1,0.3l-0.3,0.3l-0.1,0.2l-0.1,0.2l-0.1,0.9l-0.1,0.4l-0.6,0.9l0,0l-2.2,4
		l1.2,0.9l0.2,0.1l0.3,0.1l0.2,0.1l0.1,0.2l0.2,2.3l0,0.2l-0.1,0.2l-0.7,1.4l-0.1,0.1h-0.1l-3-0.8l-1.1,0.3l-1,0.6l-0.3,0.3
		l-0.8,1.4l-0.8,1.4l-0.5,0.6l0.2,1l0,0.2l-0.1,0.2l-0.9,1.5l1,2.7l-0.5,0.7l0,0.1l0,0.2l0.2,1.4l0,0.2l-0.1,0.3l-0.1,0.4l-0.1,0.3
		l0,0.2l0.8,2.3l0.1,0.4l0,0.5l-0.7,4.5l0.1,0.1l0.5,0.5l0.2,0.2l0.3,0.4l0.1,0.1l0.2,0l0.3,0l0.1,0.1l0.1,0.1l1.1,1.5l0,0.1l0,0.1
		l-0.1,0.8l-0.1,0.2l-0.1,0.2l-0.3,0.5l0,0.1l0,0.1l-0.1,0.6l0,0.1l-0.1,0l-0.5-0.1l-0.2,0l-1,0.3l-0.1,0.1l0,0.2l0.2,0.4l0.1,0.3
		l0.1,0.6l0.1,0.3l0.1,0.3l0.4,0.8l0.5,1.2l0.1,0.2l0,0.3l0,0.3l0,0.2l-0.1,0.2l-0.1,0.1l-0.2,0.3l-0.1,0.1l0,0.1l0,0.3l0.1,0.5
		l0,0.3l-0.1,0.4l-0.1,0.3l-0.2,0.3l-0.7,0.8l-0.6,0.5l-0.2,0l-0.7-0.1l-0.2,0.1l-0.2,0.2l0,0.3l0,0.1l0.1,0.2l0.1,0.1l0,0.1l0,0.3
		v0.2l0,0.1l-0.2,0.3l-0.1,0.1l-0.6,0.3l-0.1,0.1l0,0.2l0,0.2l0.4,1.6l0.1,0.5l0,0.2v0.2l0,0.1l-0.1,0.1l0,0.1l-0.1,0.5l0,0.4l0,0.2
		l-0.1,0.4l0,0.2l0,0.2l-0.1,0.4l-0.2,0.2l-0.3,0.1l-0.3,0l-0.1-0.1l0-0.5l-0.1-0.2h0l-0.1-0.1l-0.1-0.1l-0.1-0.2l0-0.2l-0.1-0.2
		l-0.1-0.1l-0.4,0.1l-0.1,0.1l-0.3,0.4l0,0.1l0,0.1l0,0.1l0.1,0l0.2,0L118,133l-0.1,0.1l0,0.1l0,0.1l0.1,0.1l0.2,0.1l0,0.1l0,0l0,0
		l0,0.1l0,0.1l0,0.2l0,0.1l0,0l0,0l0,0l0,0.3l0,0.1l0,0.1l0,0.1l0,0.1l0,0.1l-0.1,0l0,0.1l0,0.1l0,0.1l0.1,0l0,0l0,0.1l0,0.2
		l0.2,0.2l0,0.1v0.1l0,0.1l0,0.1l0,0.1l0,0l0,0l0,0.1h0.1l0,0.1l0,0l0,0l0,0.1l0,0.1l0,0.2l0,0l0,0l0,0l0,0l0,0l0,0.1l0,0l0,0
		l0.2,0.1l-0.1,0.1l-0.1,0.1l0,0.1l0,0.2l-0.1,0l-0.1,0l0,0.1l0.1,0.2l0,0.1l0,0.1l0,0.1l0,0.1l0,0.1l0.1-0.2l0.1,0l0.1,0l0.1-0.1
		l0,0l0-0.1l0,0l0,0l0.1-0.1l0.2-0.3l0-0.1l0,0.1l0,0.1l-0.1,0.2l-0.1,0.3l0,0.1l0,0l0.1,0l0-0.1l0-0.1l0-0.1l0-0.1l0.1,0l0,0.2
		l0.1,0.1l0,0.1l-0.1,0l-0.1,0l0,0.1l0,0.1l0,0.1l0,0l0.1-0.1l0.1,0v0.1l-0.1,0.1l-0.1,0.1l0,0.1l0,0.1l0.3-0.2l0.1-0.1l0.1-0.2
		l0.1-0.2l0-0.3l0-0.3l0-0.2h0l0,0.1l0.1,0.3l0,0.1l0.1-0.1l0.1-0.1l0.1,0l0.1,0.1l-0.1,0.1l-0.1,0.1l-0.1,0.1l0.1,0.1l-0.2,0.3
		l-0.1,0.2l-0.1,0.2l-0.1,0.2l0,0.2l0,0.1l0.1,0l0-0.1l0,0l0,0l0.1,0l0.1,0l0.1,0l0,0l0.1-0.1l0,0l0,0l0.2-0.2l0.1,0l0.1,0l0-0.1
		l0.1,0l0.2,0l0.2-0.1l0.1,0l0.1,0.1l-0.2,0.1l-0.1,0.1l0,0.2l0,0.1l0,0.1l0,0.1l0,0.2l0,0.1l0.1,0l0.1,0l0,0.1l0,0l0,0l-0.1,0l0,0
		l0,0.1l0,0.5l0,0.1l-0.1,0l0,0.1l0,0l0,0l-0.1,0.1l0,0.1l0,0.1l0,0.1l0,0.1l0,0.1l-0.1,0.2l-0.2,0.3l0,0.1l0.1,0.1l0,0.1l0,0l0,0
		v0.1h0.1v0l-0.2,0.1l-0.1,0.1l0,0.2l-0.1,0l-0.1,0l-0.1,0.1l0.1,0l0.1,0.1l0.1,0.2l0.1,0.1l0.1,0l0.1,0l0.1,0l0,0.1l0,0.1l-0.4,0.4
		l0,0.1l0,0.1l0.1,0l0.1,0l0.1,0l0-0.1l0.1,0l0.2,0.1l0.1,0l0.1,0l0.1,0l0.1-0.1l-0.1,0.1l-0.3,0l0,0.2l0,0.1l0,0.1l0,0.1l0,0.1
		l0,0.1l0.1,0l0.1-0.1l0-0.1l0,0l0,0l0,0l0,0.2l0,0.4l-0.1,0.1l0,0l0.1,0.1l-0.1,0l0,0l0.1,0l0.1,0.1l-0.1,0l-0.1,0.1l0,0.1l0,0.1
		l0,0.1l0,0.1l0,0.1l-0.1,0.1l0,0l0,0l0,0l0,0l0,0.2h0.1l0.1,0l0,0.1l0.1-0.1l0.1-0.5l0.1-0.1l0,0l0,0l0,0l0,0l0,0l0.1,0.3l0,0.1
		l0,0.1l-0.1,0.1h0.2l-0.1,0.1l-0.1,0.1l-0.1,0.1l0.1,0.1l0,0l0.1,0l0,0l0,0l0,0l0,0l0,0l0,0l0,0.1l0,0.1l0,0.1l0,0v0.1l0,0l-0.1,0
		l0,0l0,0.1l0,0v0.1l0.1,0l0.1,0l0.1,0l-0.1,0l-0.1,0H122l0.1,0.1l0.1,0l0.1,0l0.1,0l0,0l0,0.1l-0.1,0.1l0.1,0l0.1,0l0,0l0,0.1
		l0,0.2l0,0.1l0.1,0.2l0,0.1l-0.1,0.1l0.1,0.1l0,0l0,0.1l0.1,0.1l0.1,0.1l0.1,0.1l0,0.1l0,0.1l0,0l0,0l0,0.1l0,0l0,0l0,0.1l0,0
		l0,0.2l0,0.1l0.1,0.1l0.2,0l0.1,0.1l0.1,0l0,0l0.1,0.1l0,0l0.1,0l0,0l0,0v0l0,0l0,0l0.3,0.2l0,0.1l0,0.2l0.1,0.3l0.1,0.1l0.1,0.1
		l0.1,0.1l0,0.2l0,0.1l0.2,0.2l0.1,0l0.1,0l0.1,0l0.2-0.1l0.1,0l0.1,0l0.1,0.1l0.1,0.3l0.1,0.3l0,0.2l0,0.2l-0.1,0.2l-0.1,0.1
		l-0.1,0.1l-0.2,0.1l-0.5-0.2l-0.2,0.1l-0.1,0.3l0.1,0.2l0.4,0.3l0.1,0.3l0.1,0.2l0.2,0.1l0,0.1l0,0.1l-0.1,0.1l-0.1,0.1l-0.1,0
		l-0.2,0l0,0l-0.1,0l0,0l0,0l-0.1-0.1l0,0l0,0l-0.1-0.1l0,0l-0.8-0.4l0.1,0.1l0.2,0.1l0.1,0.2l0.1,0.2l0,0.1l0,0.2l0,0.1l0.2,0.4
		l0,0.1l0.4,0.5l0,0.1l0,0.1l0,0.1l0.1,0l0.1,0.1l0,0.1l0,0.1l0,0.1l0.1,0.1l0,0l0,0l0,0l0,0l0,0.1l0,0.1l0,0.1l0.1,0.2l0.2,0.1
		l0.1,0.1l0.1,0.3l0,0.1l0,0.1l0,0l-0.1,0l0,0.1l0.1,0l0.1,0l0,0.1l0.1,0l0.1,0l0.1,0.1l0.1,0.1l0.1,0.1l0,0.1l0,0.1l0,0.1l0,0.1
		l0,0.1l-0.3,0.2l-0.1,0.1l0,0.2l0,0.2l0.2,0.3l0,0.2l-0.1,0l0,0l0,0l0,0.1l-0.1,0.1l-0.1,0l-0.1,0l-0.1,0l0-0.1l0,0l0,0h0l-0.1,0.3
		l0,0.1l0.1,0l0.1-0.1l0.1,0l0,0l0.1,0l0,0l0,0l0.1-0.1l0,0l0.1,0l0.1,0l0,0l0.1,0.1l0,0l0,0l0.1,0l0.2,0l0.7,0.3l0.1,0l0.3,0l0.1,0
		l0.4-0.3l0.1,0l0.2,0l0.1,0l0.1-0.1l0-0.1l0-0.1l0.1,0l0.6,0l0.2,0l0.1,0l0.1,0l0.1-0.1l0.1,0l0.1,0l0.1,0l0.3,0.2l0.1,0l0.1,0
		l0.3,0l0.1,0l0.1-0.1l0.1-0.1l0.2-0.3l0.1-0.1l0.1-0.1l0.2-0.3l0.1-0.1l0-0.2l0-0.1l-0.2-0.3l-0.1-0.1l0-0.1l0-0.1l0-0.1l0-0.1
		l0-0.1l-0.1-0.1l-0.2-0.1l-0.1-0.1l0-0.1l0-0.1l0-0.3l0-0.3l0.1-0.3l0.2-0.2l0.2-0.1l0-0.1l0-0.1l0.1-0.1l0.1-0.1l0.1,0l0.1-0.1
		l0.2-0.2l0.1-0.2l0.1-0.1l0.1,0l0,0l0.1-0.1l0.1,0l0,0l0,0l0,0.1l0.1-0.1l0,0.1l0,0.1l0,0.1l0,0l-0.1,0.1l0,0l0,0l0.1,0l0,0l0,0
		l0,0l0,0l0-0.1h0.1l0,0.1l0,0l0,0l0-0.1l0-0.1l0.1,0l0,0l0-0.1l0-0.1l-0.1-0.2l0-0.1l0-0.1l0-0.1l-0.1,0l0,0l0-0.1l0-0.1l0-0.1
		l0.1-0.1l0.1,0l0.2,0l0.1,0l0.1,0.1l0.1,0.1l0.1,0l0-0.1l0.1,0l0.1,0l0.1,0l0.1-0.1l0.1,0l0.3,0.1l0,0l0-0.1l0,0l0,0l0.1,0l0,0l0,0
		l0,0.1l0,0h0.2l0,0l0,0l0,0l0,0l0.1,0.1l0.2,0l0.2-0.1l0.1-0.1l0.1,0.2l0,0.1l0,0l-0.1,0l0.1,0l0.1,0l0.2,0l0,0l0,0l0-0.1l0.1-0.1
		l0,0l0.1,0l0.1,0l0,0l0,0.1l0,0l0.1,0.1l0,0l0-0.1l0,0l0.2-0.1l0.2-0.1l0.1,0l0,0l0,0.1l0,0.1l0,0l0.1,0.1l0.1-0.1l0.1-0.1l0.1-0.1
		l0,0l0.1,0.1l0.1,0l0,0l0,0l0,0l0,0l0.1,0.1l0.1,0l0.2-0.1l0.1,0.1l0,0.1l-0.1,0.3l0.1,0.1l0.1,0.1l0.1,0l0.1-0.1l0.2-0.5l0.1-0.1
		l0.2-0.2l0.1-0.1l0-0.1l0-0.1l0-0.1l0,0l0,0l0.2-1.2l0.1-0.3l0.2-0.4l0-0.1l0-0.1l0.1,0l0-0.1l0-0.2l0-0.2l0-0.1l0,0l0,0l0.1-0.2
		l0-0.1l0,0l0,0l0.1,0l0.1,0l0.1,0.1l0.1,0l0.1,0l0.1-0.1l0-0.1l0-0.1l0-0.2l-0.1-0.2l0-0.1l0,0l0.1,0l0.1-0.1l0.1,0l0.1,0l0.1,0.1
		l0,0l0,0l0-0.1l0-0.1l0,0l0,0l0,0.1l-0.1,0l-0.1,0l0-0.1l0-0.1l0.1-0.4l0-0.1v-0.1l0-0.2l0,0l0.1-0.2l0-0.1l0-0.1l0-0.1l0-0.1
		l0-0.2l0-0.1l0.1-0.1l0.1,0v-0.1l0,0l0,0l0,0l0-0.1l0.1,0l0.1,0l0.1,0l0,0l0,0l0,0l0,0l0,0l0,0l0,0l0,0l0,0l0,0l0,0l0,0l0,0l0,0
		l0,0l0.1,0.1l0.1,0l0-0.1l-0.1-0.1l0-0.1l0.1,0l-0.1-0.2l0-0.1l0,0l0,0l0,0l0-0.1l-0.1-0.2l-0.1-0.2l0-0.2l0-0.2l0.1-0.1l-0.1-0.3
		l0.1-0.1l0.3-0.2l-0.1-0.1l0,0l0,0l0-0.1l-0.1-0.1l0.1-0.2l0.1,0l0.2,0.1l0-0.1l0-0.1l0.1,0l0.1,0l-0.1,0l-0.1-0.1l0-0.1l0-0.1
		l0.1,0l0.1,0l0,0l-0.1-0.1l0.1,0l0-0.1l-0.1-0.2l-0.1-0.3l-0.2-0.1l-0.3,0v0h0.1v-0.1l-0.1-0.1V144l0,0l0.1-0.1l0,0l0,0l0-0.1l0,0
		l0,0l0,0l0,0l0,0.1v0.1l0,0.1l0,0l0,0l0.1-0.1l0-0.1l0,0l0,0l0,0l0-0.1l0-0.1l-0.1,0l0,0l0-0.1l0.1,0l0.1,0l0-0.1l0-0.1l0-0.1
		l-0.1-0.1l0-0.1l0.1,0.1l0.1,0.1l0.3,0v-0.1h-0.1v-0.1h0.1l0-0.1l-0.1-0.1l-0.1,0l-0.1,0l0.1-0.1l-0.1-0.1l-0.1-0.2l0,0l-0.1,0l0,0
		l0-0.1l0-0.1l-0.2-0.2l-0.2-0.2l-0.1-0.1l0-0.1l0-0.1l0.5,0.4l0.3,0.5l0.1,0.1l0.2,0.1l0.1,0l0-0.1l-0.1-0.1l-0.9-1v-0.1l0.1,0l0,0
		l0-0.1l-0.1-0.1l0.2,0.1l0.1,0.1l0.1,0.1l0,0l0-0.1l0-0.1l0-0.1l0,0l0-0.1l0,0l-0.2-0.1l-0.1-0.2l0-0.1l0-0.1l0-0.1l0,0l0,0
		l0.5,0.6l0,0l0,0l0,0l0,0l0,0.1l0,0.1v0.1l0,0.1l0.2,0l0.1,0l0-0.1l0-0.2l0,0l0.1,0.2l0.1,0.1l0.1,0l0.1,0l0-0.1l0-0.1l-0.1-0.1
		l0-0.1l0.2,0.1l0.1,0l0-0.1l-0.1-0.1l0,0l0-0.1l0-0.1l0,0l0,0.1l0,0l0-0.1l0-0.2l-0.1,0l-0.1,0l-0.1-0.2l0-0.1l0.1-0.1l0.1,0
		l0.1,0.2l0.1,0.1l-0.1-0.1l0,0l0.1-0.1l0,0.1l0,0l0,0l0-0.1l-0.1-0.1l-0.1,0l-0.1,0l-0.1-0.1l0.1,0l0,0l0-0.1l0-0.1l0.1,0l-0.1-0.2
		l-0.1-0.2l-0.1-0.2l0,0l0.1,0l0,0l-0.1-0.1l-0.2-0.2l-0.1-0.1l0.2,0.1l0.2,0.3l0.2,0.2l0.1-0.3l0,0l0-0.1l0,0l0,0l0.1,0l0,0l0,0
		l0-0.1l0-0.1l0-0.1l0-0.1l-0.1-0.1l0,0l0,0l-0.3-0.2l-0.1,0v-0.1l0.2,0l0,0l0,0l0-0.1l0,0l0,0l0,0l0.1,0l0,0l0-0.1l-0.1,0l-0.2,0.1
		l0,0.1l0,0.1l0,0l0,0l-0.1,0l0-0.1l0-0.1l-0.1-0.1l-0.2-0.1L141,138l0.6,0.1l0-0.2l0,0l-0.1,0l0,0l-0.1,0l-0.1,0l0,0l0-0.1l0-0.1
		l0-0.1l0-0.1l0-0.1l-0.1,0l-0.1,0l-0.9-0.5l-0.1,0l0.1-0.1l0.4,0.1l0.2,0.2l0.5,0.1l0,0l0.1,0l0,0l0,0l0.1-0.1l0,0l0.1,0l0.1-0.1
		l0.1-0.1l0-0.1l0.1,0l0.2,0l0.1-0.1l-0.2-0.2l-0.2,0l-0.1,0l0-0.1v-0.1h-0.1v0l0,0l0,0l-0.1,0l-0.1-0.1l0-0.1l0-0.1l-0.1,0
		l-0.1-0.1l0,0l0,0.1l0,0l-0.1-0.1l-0.2,0l-0.1,0l-0.1-0.1l-0.1,0l-0.5,0l-0.1-0.1l-0.2-0.1l-0.1,0l0,0.1l0,0.1l0,0.1l0,0.1l0,0
		l-0.1,0l0,0l0-0.1l0-0.1l0,0l0,0l-0.1-0.1l-0.1,0l-0.1,0l-0.1,0.1l-0.1,0.1l-0.2-0.1l-0.1,0.1l0-0.1l0,0l-0.1,0l-0.1,0v-0.1l0.1,0
		l0.2,0l0.1,0l0-0.1l0-0.1l0-0.1l-0.1,0v-0.1l2.9,0.4l0.4-0.1l0.1,0l-0.1-0.1l-0.1-0.1l-0.2,0l0.1-0.1l0.2,0l0.2,0.2l0.1,0l0.1-0.1
		l0.1-0.1l0.1-0.1v-0.1l-0.1,0l-0.2,0l-0.1-0.1l0,0l0-0.1l0-0.1l0-0.1l0-0.1l-0.1,0l-0.1,0l0.1,0l0.1-0.1l0,0l0.1,0l0.1,0.1l0,0.1
		l0.1,0l0.5,0v-0.1l0.1,0l0.2,0l0.1-0.1l0-0.1l-0.1-0.2l0.5,0.1l0.1-0.1l-0.1-0.1l0,0l0,0l0-0.1l0-0.1l0-0.2l0-0.1l-0.1-0.1v-0.1
		l0.1,0.1l0.3,0.3l0.1,0l0,0l0,0h0.1v-0.1l-0.1-0.1l-0.1-0.1l0-0.1l0.1,0l0.1,0l0.1,0l0.1-0.1l0-0.1l-0.1-0.1l-0.1,0l0-0.1v-0.1l0,0
		l0,0l0,0l0,0l0,0l0,0l0,0l0,0l0-0.1l0-0.2l0-0.1l-0.1-0.1l0-0.2l0-0.2l0-0.2l0.1,0l0.1-0.1l0.1-0.1l0.1-0.1l-0.1-0.3l0,0.1l0,0.1
		l0,0.1l0,0.1l0,0.1l-0.1,0.2l0,0.1l0.1,0.2l0,0l0,0l0-0.1l0-0.3l0-0.1l0-0.1l0.1,0l0,0l0,0.1l-0.1,0.2l0,0l0,0.1l0,0.2l0,0.2
		l-0.1,0.1v0.1l0,0.2l0,0.2l0,0.2l0.1,0.1l0,0.1l0,0.1l0,0.1l0,0l0,0l0-0.1l0-0.1l-0.1-0.1l0-0.2l0-0.1l0.1,0.1l0.1,0.2l0,0l0.1,0
		l0,0l0,0l0,0l0,0l0,0l0,0.1l0,0.1l0,0.1l0,0.1l0.1,0.1l0-0.2l0-0.1l0-0.1l0.1,0l0.1,0l0.1,0l0.1-0.1l0-0.1l0-0.1l0-0.1l0-0.1
		l0.1-0.2l0.1-0.2l0.1-0.1l-0.1-0.1l0-0.1l0.1,0l0.1,0.1l0,0l0-0.1l0,0l0.2,0l0.1,0l0.1-0.2l0-0.1l0.1,0l0.1,0l0.1,0l0.1-0.1l0.1,0
		l0.1,0l0.1,0v0.1l0,0l0,0l0.1,0.1l-0.1,0l-0.1,0.1l-0.1,0l0.1,0l0.4-0.2l0-0.1l0,0l0,0l0,0l0.1-0.1l0.2-0.1l0.2,0l0.1,0l0,0l0,0
		l0-0.1l0-0.1l0-0.1l0,0l-0.1,0.1v-0.1l0,0l0,0l0,0l0,0l-0.1,0.1l0-0.1l0-0.1l0-0.1l-0.1,0l-0.1,0L148,131l0-0.1l0.1,0l0.4,0.3
		l-0.1-0.1l-0.1-0.1l-0.1-0.1l-0.1,0l-0.2-0.1l0-0.1l0,0l0.1,0v-0.1l0-0.1l0-0.1l0-0.1l-0.1,0l0.1-0.1l0.1-0.1l0.1,0l0.1,0l0,0
		l0,0.1l0,0l0.1,0.1l0.3-0.1l0.1,0l0.1,0l0.1,0l0.1,0l0.1,0l0.1,0l0.1,0l0.2,0l0.1-0.1l0-0.1l-0.1-0.1l-0.1-0.1l-0.1,0l-0.1-0.1
		l0.1,0l0.1,0l0.1,0l0-0.1l-0.3-0.2l0,0l0-0.1l0,0l-0.1-0.1l-0.1,0l-0.2,0l0,0.1l0.1,0.1l0.2,0.1h-0.2l0,0.1l0.1,0.3l0,0.1l-0.1,0
		l-0.1,0l0,0l0-0.1l0,0l-0.2-0.1l-0.3-0.1l-0.3,0.1l-0.1,0.4h0l0-0.1l0,0l-0.1,0.1l-0.6,0l-0.1-0.1l-0.1,0l-0.2,0.2l-0.1,0.1l0,0
		l0,0.1l0,0l0,0l0,0.1l0,0l0,0.1l0,0.1l0,0l-0.1,0l0-0.2l-0.2-0.1l-0.4,0v0.1l0.2,0.1l0,0.1l-0.1,0.1l-0.1,0l-0.1,0l0.1-0.1l0,0l0,0
		l-0.1,0l0,0l0,0l0-0.1l-0.3-0.1l-0.1,0l-0.1,0.1l0.1,0.1l0,0.1l0,0.2l0,0.1l0-0.1l-0.1-0.2l0,0l-0.1,0l-0.2-0.1l-0.2-0.2l-0.2-0.1
		l-0.3-0.1l0.1,0.4l0.1,0.1l0.1,0.1v0.1l-0.8-0.1v-0.1l0.2,0l0.1,0l0-0.1l0-0.1l-0.2-0.3l0.3-0.1l0-0.1l0-0.1l-0.1-0.1l-0.2,0
		l-0.4-0.1l-0.2,0l-0.2,0.1l0,0l0-0.1l0,0l-0.3-0.2l0,0l0-0.1l0-0.1l0-0.1l-0.1-0.1l0,0l0,0l-0.1-0.1l-0.2-0.2l-0.1,0l0,0.1h-0.3
		l0,0l-0.1,0l0,0l0,0l0,0l0,0l0.1,0.1l0.5,0.4l0,0l0.1,0l0,0l0,0l0,0.1l0,0l0,0h-0.3l0,0l-0.1-0.2l-0.3-0.3l-0.1-0.1l-0.1-0.1
		l-0.1,0.1l-0.1,0.1l-0.1,0.1l-0.1,0l-0.1-0.1l-0.1,0l0,0l0,0.1l0,0l0,0l-0.1,0l0,0l-1.3,0.1l-0.2,0l-0.2-0.1l-0.2-0.1l-0.1-0.2
		l0.4,0.2h0.5v-0.1h-0.1v-0.1l0.1-0.1l0.1,0l0,0.1l0,0.1l0.1,0.1l0.1,0l0.1,0l0-0.1l0,0l0.1,0l0,0l0.1-0.1l0,0l0,0l0.2,0.1l0.1,0
		l0.1-0.1l-0.2-0.1l0.1,0l0.1,0l0.1,0l0.1-0.1l-0.1-0.1l-0.1-0.2l-0.1-0.1l0.1-0.1l0.1,0l0,0l0,0l0.1,0.1l0.1,0.1l0.1,0.1l0.1,0.1
		l0.1,0.1l0.1,0.1l0.1,0l0.1,0l0.1,0l0,0l0-0.1l0-0.1l0.1-0.1l0,0l0,0l0-0.1l0-0.1l0,0l0.3,0.1l0,0l0,0l0,0l0,0l0,0l0,0l0,0l0,0
		l0.1,0.2l0,0l0.5,0l0-0.1l-0.2-0.2l-0.1-0.1l0.1,0l0,0l0.1-0.1l0,0l0,0.1l0,0.1l0.1,0.1l0,0l0,0l0,0l0.1,0.1l0.1,0.1l0.2,0l0,0.1
		l0,0.1l0.5,0.4l0.1,0l0-0.1l0-0.1l0,0l0,0.1l0.1,0.2l0,0l0-0.1l0-0.1l-0.1-0.2l0.1-0.1l0-0.2l-0.1-0.2l0-0.1l-0.1-0.1l0-0.1l0,0
		l0.1,0l0-0.1l0-0.1l0-0.1l0,0.1l0,0.1l0,0.1l0.1,0l0,0l0.1,0.2l0.2,0.2l0,0l0,0l0.1-0.1l0,0l0.1,0l0,0.1l-0.1,0.1l-0.1,0.1l0,0.1
		l0,0.1l0,0l0.1,0l0,0l0,0l0,0l0-0.1l0,0l0.1,0l0.3,0.1l0.1,0l0,0.1l0.1,0.2l0.1,0.1l0.1,0l0-0.1l0-0.1l0.1-0.1l0.2-0.3l0-0.1
		l-0.1-0.3l0-0.1l-0.1-0.1l-0.1,0l-0.1,0l-0.4-0.3l-0.2-0.2l0-0.1l0-0.1l0.2-0.2l0,0l0,0l0,0l0.1-0.2l-0.1-0.1l-0.3,0l0.1,0l0,0
		l-0.1,0.1l-0.1,0l-0.1,0.1l0,0.1l0,0.2l0,0.1l-0.1,0.1l0.1,0.1l0.1,0.2l0,0.2l0,0.1l-0.1-0.1l-0.1-0.4l-0.1-0.1l0-0.2l0-0.1l-0.1,0
		l0-0.1l0-0.1l0-0.1l0.1-0.2l0-0.1l0,0l-0.3,0l-0.1,0l-0.1-0.1h0.6l0.1,0l0.1-0.1l0.1-0.2l0.1-0.2l0,0.1l0,0.1l0.1,0.1l0,0.2
		l0.1,0.1l0.1,0.1l0.1,0.1l-0.1,0l0,0.1l0,0.1l0,0.1l0,0.1l-0.1,0.1l-0.1,0l-0.1,0l0.1,0.1l0.1,0.1l0.1,0l0.1,0l0.2,0.1l0.1,0l0-0.1
		l0-0.1l0-0.2l0-0.1l0.1-0.1l0,0.1l0,0.1l0,0.1l0,0.1l0,0.2l0,0.1l0.1,0.1l0,0l0.1,0l0,0l0,0.1l0,0l0,0v0.1l0,0l0,0l0,0l0,0.1l0,0.1
		l0,0.1l0,0.1l-0.1,0.1l-0.1,0.1l-0.1,0.2l0,0.2l-0.1,0.3l0.1,0.3l0.2,0.2l0.2,0.1l0.1,0l0.3-0.1l0.5,0.1l0.1,0l-0.6-0.6l0,0
		l0.1,0.1l0,0l0,0l0.1-0.1l0-0.1l0-0.1v-0.1l0,0l0,0l0.1-0.1l0,0l0,0l0,0.1l0,0l0.1,0l0.1-0.1l0.1,0l0,0.1l0,0.2l0,0.1l0,0l-0.1,0
		l-0.1,0l0,0l0.1,0.1l0.2,0.1l0.2,0l0.1-0.1l-0.1,0l-0.1,0l-0.1-0.1l0-0.1l-0.1-0.1l-0.1,0l0.1,0l0.1,0l0.1-0.1l-0.1-0.1v-0.1l0.3,0
		l0.1,0l0.1-0.1l0.2-0.3l0.1-0.1l0.2-0.1l0.2-0.2l0.2-0.1l0.1-0.1l0.1,0l0,0l0-0.1l-0.1-0.2l0.1,0l0,0l0,0l0,0l0,0l0.1-0.1l0-0.1
		l0-0.1h-0.2l0,0l0,0l0-0.1l0-0.1l0,0l0.1,0l0-0.1l0.1-0.1l0.3-0.1l0.1-0.1l0.1-0.1l0.1-0.1l0,0l0,0.1l0,0.1l0.1,0l0.1,0l0.3-0.1
		l0.1-0.1l0.1-0.1l0-0.2l-0.2-0.1l-1.1,0l-0.2,0.1h-0.1l0-0.1l0.1-0.1l0.1,0l0.2,0l0.1,0l0.1-0.1l0.3-0.4l0-0.1l0-0.1l-0.1-0.3
		l0-0.1l0.1,0.1l0.1,0.2l0.3,0.5l0.1,0l0.1,0l0-0.1l0-0.3l0-0.1l-0.1,0l-0.1,0l0,0l0,0.1l0,0l0,0l0,0l-0.1-0.1l0,0l0-0.1l0,0l0,0
		l-0.1-0.1l-0.1-0.1l-0.2-0.1l-0.1-0.1l-0.1-0.4l-0.2-0.6l0-0.1l0-0.1l0-0.1l0,0l-0.1,0l-0.2,0.1l-0.1,0.2l0,0.2l0.1,0.2l0.1,0.2
		l0-0.1l-0.2-0.3l0-0.1l0-0.3l0-0.1l-0.1-0.1l-0.1,0l-0.1-0.1l-0.1,0l-0.1,0l-0.1,0.1l0,0.1l0,0.2l0,0.2l0,0.1h0l0-0.1l-0.1-0.3
		l0-0.1l0-0.3l0,0l0,0.1l0,0l-0.1,0h-0.1l-0.1,0l-0.1-0.1l-0.2-0.1l-0.1-0.1l0-0.2l0.1,0.1l0.1,0l0.1,0l-0.1-0.2l-0.2-0.2l-0.2-0.2
		l-0.1-0.3l0.2,0.4l0.1,0.2l0.7,0.3l0.2-0.1l-0.2-0.2l-0.6-0.2l0-0.1l0,0l0.1,0l0.1,0V122l-0.1-0.1l0,0l0-0.1l0-0.1l0-0.1l0,0
		l-0.1-0.1l-0.3,0l-0.1-0.1l-0.1,0l-0.1,0l-0.1,0l-0.1,0.1l-0.1,0.1l0-0.1l0,0l-0.1-0.1v-0.1l0.1-0.1l0.1-0.1l0.1,0l-0.3-0.1
		l-0.1-0.1l-0.1-0.2l0,0l0-0.1l0,0l-0.1-0.1l-0.2-0.2l-0.1-0.1l-0.1,0v-0.1l0,0l0-0.1l0-0.1l0-0.1l-0.1-0.3l-0.1-0.1l-0.1,0
		l-0.4,0.1l-0.2,0.2l-0.1,0.2l0.1,0.2v0.1l-0.3,0l-0.1-0.1l-0.1-0.2l0-0.1l-0.1-0.2l0-0.1l0,0l0.1-0.1l0.1-0.1l-0.1-0.1l-0.2-0.1
		l-0.1-0.1l-0.1-0.1l-0.1,0l-0.6,0.1l-0.1,0l-0.1,0.1l-0.1,0l-0.1,0l-0.1,0v-0.1l0.2-0.1l-0.2-0.2l-0.1-0.1l-0.1-0.1l-0.1,0l0,0
		l-0.1,0l0,0l0,0l0,0l0,0l0.1,0l0.2-0.1l0.1-0.1l0.1-0.1l0.1-0.1l0.1-0.1l0,0l-0.1,0l-0.1,0l-0.1-0.1l0-0.1l0-0.1l0-0.1l0,0l0,0l0,0
		l0-0.1l0,0l0,0l0,0l0,0l-0.2-0.5l0,0l0,0l-0.1,0l0,0l0-0.1l0-0.1l0-0.1l0,0l-0.1,0l-0.1-0.1l0,0l0-0.1l0-0.2l0.1-0.1l0.3-0.1
		l-0.1-0.1l-0.1,0l-0.2,0l0,0l0.1-0.1l0,0l0,0l0,0l0-0.1l0-0.1l0-0.1l0,0l0,0l0,0l0-0.1l0-0.1l0,0l-0.1,0l0,0l0.1,0l0-0.1l0-0.1
		l-0.1-0.1l0.1-0.1l0-0.1l0-0.2l-0.1-0.1l0.1-0.1l0.1-0.1l0.1-0.1l-0.1-0.2l-0.1-0.1l-0.1-0.2l-0.1-0.1l-0.1-0.1v-0.1l0.1,0l0.1,0
		l0.2,0.2l0.1,0l0.2,0l-0.1-0.1l-0.1,0l-0.1-0.1l-0.1-0.2l0.3,0.1l0.1,0l0.1,0l-0.3-0.2l0-0.1l-0.1-0.1l-0.1-0.1l-0.1-0.2l0-0.1
		l0-0.1l0.1-0.1l0-0.2l0,0l0,0.1l0,0.1l0-0.1l0,0l0,0l0,0l0,0l0-0.1l0-0.1l0,0l0,0l0,0.1l0,0h-0.1l0,0l0-0.1l0-0.1l0-0.1l0-0.1l0,0
		l0-0.1l0-0.1l0,0l-0.2-0.1v-0.1h0.2v-0.1l0,0l-0.1,0l-0.1-0.1l-0.1,0l0,0l0,0l0.4,0v-0.1l-0.4-0.1l-0.1-0.1l0.2,0l0.2-0.1l0-0.1
		l-0.1,0l-0.1,0v-0.1l0.3,0l0.1,0l0.2,0.1l0.1,0l0.1-0.1l-0.1-0.1l-0.5-0.1l0.1-0.1l0.2,0.1l0.1-0.1l-0.1-0.1l0,0v-0.1l0.1,0l0.2,0
		l0.1-0.1l0-0.1l-0.3-0.2l-0.1,0l-0.1,0l-0.1-0.1l0.4,0l0.2,0l0.2,0.1l0,0.1l0.1,0.1l0.2,0l-0.1-0.2l0-0.1l0-0.1l0.1,0.1l0.1,0.1
		l0.2,0.4l0.1,0.1l0.1,0.1l0.1,0l0.1,0l0.1-0.1l0-0.1l0-0.2l0-0.1l0-0.1l0-0.1l0-0.1l-0.1-0.1l-0.1-0.1l-0.1,0l-0.1,0l-0.2,0.1l0,0
		l0-0.2l0-0.1l0-0.1l0-0.1l-0.1,0V109l0,0l0,0l0-0.1l0-0.1l-0.2,0.1l-0.1,0l0,0l0,0l0,0l0,0l0-0.1l0,0l0,0l0,0l0,0v-0.1l0-0.1l0,0
		l0,0l0.1,0l0-0.1l0-0.1l-0.1-0.2l0-0.1l0-0.1l0-0.1l0-0.1l0,0l0.1,0l0-0.1l0-0.1l0-0.1l0,0l0.2,0l0,0l0-0.1l-0.1-0.1l0,0l0.1-0.2
		l0-0.1l-0.1-0.1l0.1-0.1l0-0.1l0-0.1l0-0.2l0-0.1l0.1-0.2l0-0.1l0-0.1l0-0.1l0-0.1l0-0.1l0-0.1l0.1-0.1l0.1,0l0.1,0l-0.1,0.2l0,0
		l0.1,0l0.3-0.2l-0.1-0.1L145,105l-0.1,0l-0.1,0l-0.4-0.2l0.1-0.1l0,0l0,0v-0.1l0-0.1l0-0.1l0-0.1l0-0.1l-0.1-0.1l-0.1,0l-0.1,0
		l-0.1,0l-0.1-0.1l0-0.1l0-0.1l0-0.1l0-0.1l0-0.1l0-0.1l0,0l0.1,0l0,0l0,0l0-0.1l0-0.1l0-0.1l0,0l-0.2-0.3l0-0.1l0-0.1l0.1-0.1
		l0.1,0l0.1-0.1l0-0.2l0.1-0.1l0,0l0.2,0.3l0.2,0.4l0,0l0.1,0.1l0.1,0l0.1,0l0.5,0l0-0.1l-0.1,0l-0.1-0.1l0-0.2l0.1-0.1l0.1-0.1
		l0.2-0.1h0.2l0,0l0.1,0.1l0,0l0.1,0l0.1-0.1l0.1-0.2l-0.1-0.1l0.1,0l0,0l0-0.1l0-0.1l0-0.1l0-0.3l0-0.1l0,0l0.1,0l0,0l0,0.1l0,0.3
		l0,0.1l0,0l0.3-0.3l0.1,0l0,0l0-0.1l0-0.1l0-0.1l-0.6-0.3l-0.1-0.1h0.3l0,0l0.1,0.1l0,0l0,0l0,0l0,0l0-0.1l0-0.1l0-0.2l0-0.1l0-0.2
		l-0.1-0.2l0-0.1l0-0.2l0,0l-0.1-0.1l0-0.1l-0.2-0.1v-0.1l0.1-0.2l-0.1-0.3l-0.1-0.3l-0.1-0.2l-0.1-0.2l-0.5-0.5l0.1,0l0.1,0.1
		l0.1,0.1l0.1,0l0.1,0l0.1-0.1l0.1,0l-0.1,0.1l0,0l0.1,0l0.1,0l0,0.1l0,0.1l0.1,0.3l0,0.1l0.1,0l0.1,0l0.1,0l0,0.1l0,0l0,0.1l0,0
		l0,0.1l0,0.1l0,0l0,0.3l0,0.1l0,0l0.1,0.1l0.1,0l0,0l0.1-0.1l0.1-0.1l0.1-0.1l0.1,0l0,0l0,0l0,0l0,0l0.1,0.1l0.1,0.1l0.2,0.1
		l-0.1,0.2l-0.4-0.1l-0.1,0.2l0.2,0l0.1,0l0.1,0.1l0,0l0,0.1l0.2,0l0.1,0l0.1-0.1l0-0.1l0-0.1l0-0.1l0.1,0l0,0l0,0.1l0,0.1l0,0.1
		l0,0.1l0,0l0-0.1l0,0l0.1,0l0.1-0.1l0.1-0.3l-0.1-0.1l-0.1,0.2l-0.1-0.1l0-0.1l0-0.1l0-0.1l0,0v-0.1h0.2l0-0.1l0,0l0.1,0l0.1,0.1
		l0.1,0.2l0,0.1l0,0l0,0l0,0l0.1,0l0.1,0l0,0l0.1,0l0,0l0,0l0,0l0.1,0l0,0l0-0.1l0-0.1l0-0.1l-0.2-0.1l-0.1-0.1l0.3,0.1l0.2,0l0-0.2
		l0-0.1l-0.1,0l-0.2,0.1l-0.1,0l-0.2-0.2l0-0.2l0.1,0l0.2,0.1l0.1,0l0.1,0l0-0.2h0l0,0.1l0.1,0l0,0l0-0.1l-0.1-0.1l-0.1-0.1l-1.1,0
		l-0.1-0.1l0.2-0.1l0.1-0.1l0.1-0.1l0,0l0,0l0-0.1l0,0l0,0l0,0l0,0.1l0,0l0.3,0.1l-0.1-0.1l-0.1-0.1l-0.1-0.1l0.1-0.1l0.1,0l0.1,0
		l0.1,0.1l0.1,0.2l0,0l0,0l0-0.2l0-0.1l0.1,0l0.2-0.2h-0.1l0.1-0.1l0-0.1l0-0.1l0-0.1l0.1-0.1l0.1,0l0.1,0.1l0.1,0l0.1,0l0-0.1
		l0-0.1l0-0.1l-0.1-0.1l-0.1-0.1l-0.1-0.1l-0.1,0v-0.1l0.2,0l0.6,0.2l0-0.1l-0.1-0.2l0-0.1l0-0.1l0-0.1l-0.1-0.1l0.1-0.1l0.4,0.1
		v0.1l-0.2,0l-0.1,0l0,0.1l0,0.1l0.1,0.1l0.1,0l0.1-0.1l0,0l0-0.1l0.3,0l0.1-0.1l0.1-0.1l-0.7-0.3l-0.1-0.1l0.1-0.1l0.1,0l0.2,0
		l0.2,0.1l0.1,0l0-0.1l0.1,0l0.1,0.1l0.1,0.1l0.1,0.1l0.1,0l0,0.1l0,0.1l0,0.1l0.1,0.1l0,0.1l0,0l0.1,0.2l0,0l0.1,0l0,0l0-0.1l0-0.1
		l0.1,0l0.1,0l0,0l0-0.1l-0.1,0l-0.1-0.1l-0.1-0.1l0.1-0.2l0.2,0.2l0.1,0l0.1-0.2h-0.1l0-0.1l0.1-0.2l0-0.1l-0.1-0.1l0,0l0.1-0.1
		l0.2-0.1l0.1-0.2l0,0.2l0.1,0l0.1-0.1l0-0.1v-0.3l0-0.1l0-0.2l0-0.1l0-0.3l0-0.2l0.1-0.1l0.1,0.1l0.1,0.1l0.1,0.1l0.1,0l-0.1-0.3
		l0-0.1l0.1,0.1l0.3,0.5l0.1,0.1l0.1,0l0,0l0-0.1l0-0.1l-0.2-0.3l0-0.1l0,0l0.1,0l0.1,0l0.1-0.1l-0.1-0.1l-0.1,0l-0.1-0.1l0.1-0.2
		l-0.1,0l0,0l0-0.1l0.1-0.1l0.1,0l0.1,0.1l0.1,0.1l0.1,0.1l0.2,0.1l0.1,0.2l0.1,0l0,0l0,0.1l0,0l0.1,0.1l0,0.1l0,0.1l0,0.1l0.2,0.1
		l0.1,0l0.1-0.1L154,94l0,0l0.1,0l0,0l0-0.2l-0.1-0.3l0-0.1l0.1-0.2l0.2-0.1l0.2-0.2l0.1-0.2l0,0l0.2-0.1l0.1-0.1l0.1,0l0.3,0.2
		l-0.1-0.2l0-0.1l0-0.1l0.1-0.1l0.1-0.1l0.1,0l0.1,0l0,0l0,0l0,0.1l0,0l0,0l0,0l0,0l0.3,0l0.1,0l0-0.2l0-0.2l0.1-0.2l0.1-0.1l0,0.1
		l0,0.1l0,0.1l0,0.1l0,0.1l0,0.1l0.1,0.1l0.1,0l0-0.2l0-0.6l0-0.1l0.1,0l0.1,0.1l0,0.1l0,0.1l0,0.1l0,0.1l0,0.1l0.1,0l0,0l0-0.1
		l0-0.1l0-0.1l0-0.1l0-0.2l0-0.1l0,0l0,0l0-0.1l0.1,0.1L157,91l0.2-0.5l0,0l0.1,0.1l0,0.1l0,0.1l0,0.1l0,0.1l0,0l0-0.1l0-0.1
		l0.2-0.2l0.1,0l0.1,0.1l0.1,0.2l0,0l0.1-0.1l0.1-0.2l-0.1,0l-0.1,0l0-0.1l0-0.1l0-0.1l0.2,0l0.2-0.2l0-0.1l0.1-0.3l0.1-0.3l0.1-0.1
		l0.1-0.1l0,0l0,0l0,0l0,0l0,0l0-0.1l0-0.2l0,0l0,0l0,0l0,0l0,0l0-0.1l0,0l0,0l0-0.1l0-0.1l0,0l0.2-0.4l0-0.2l-0.1-0.2l0.1-0.2
		l0.3-0.4l0.1-0.3l0,0l0,0l0.1,0.1l0,0l0.5-0.8l0,0l0,0l0.1,0l0.1,0l0.1-0.1l0.1,0l0,0l0,0l0,0l0,0l0-0.1l0-0.1l0-0.1l0-0.1l0.1,0.1
		l0.1,0.2l0.1,0.1l0.1-0.1l0.1-0.1l0.2-0.2l0.2-0.4l0-0.1l0.1-0.1l0-0.1l0.1-0.1h0.1l0,0l0-0.1l0-0.1l0-0.1l0,0h-0.1l0,0.1l-0.1,0
		l-0.1,0l0,0l0,0.1l0,0l-0.1,0l-0.1-0.1l0-0.1l0.1-0.1l0-0.1l0-0.2l0,0l-0.1,0l-0.2,0l0,0l-0.1,0.1l-0.1,0l-0.1-0.2l-0.1,0l0,0
		l0-0.1l0,0l0,0l0,0l0,0.1l0.1,0.1l0.1-0.1l0.2-0.2l0,0l0.1,0.2l0.1,0l0.1,0l0.1-0.1l0.1-0.1l-0.1,0l-0.1,0l-0.1-0.1l0-0.1v-0.2l0,0
		l0,0l0,0l0,0.2l-0.1-0.1l-0.1-0.2l-0.1-0.1l-0.1,0l0,0l0,0.1l0,0.1l0,0l0,0l0,0.1l0,0l0,0l-0.1-0.1l0,0l0,0l0-0.1l0,0l0,0l0,0
		l-0.1,0l-0.1-0.1l-0.1-0.1l0-0.1l0.1,0l-0.1-0.2l-0.1-0.1l-0.1,0l-0.1,0l-0.1-0.1l0-0.2l0-0.2l0-0.1l0.1,0l0.1,0.1l0.1,0.1l0.1,0.1
		l0.1,0.1l0.2,0.2l0.1,0.1v-0.1l-0.1-0.1l0-0.1l0-0.1l0.1,0v-0.1l-0.2-0.2l-0.1-0.1l-0.1-0.2l0.1,0l0.2,0l0.1,0l0-0.1l-0.1-0.1
		l-0.3-0.1l-0.3,0.1l-0.2,0l-0.1,0l-0.1-0.1l0,0l0-0.1l-0.1-0.1l-0.1-0.1l0-0.1l0-0.1l0-0.1l0.1,0l0.1,0l0,0.1l0,0.1l0,0.1l0.1,0
		l0.1,0l0.1-0.1l0.1-0.1l0-0.2l0.1-0.1l0.1-0.1l0-0.3l0.1,0l0.1-0.1l0-0.1l0-0.1l0-0.1l0-0.1l0-0.1l0-0.1l0.1,0l0.5,0l0.1-0.1
		l-0.1-0.1l0-0.1l0.1-0.1l0.1-0.1l0,0l0,0l0,0v0l0,0l0.1,0.1l0,0l0,0l0.1-0.1l0,0l-0.1-0.1l0-0.1l0.1-0.1l0.4,0l0.1-0.1l-0.1-0.1
		l-0.1,0l0-0.1l0.1-0.3l0-0.1l0-0.1l-0.1-0.1l0.2,0l0.1-0.1l0-0.2l-0.3-0.6l-0.2-0.3l-0.3-0.5l-0.1-0.1l-0.5-0.1l0.1-0.1l0.2,0
		l0.1-0.1l0,0l0,0l0,0l0.1,0l0.1,0.2l0.1,0.2l0.1,0.1l0.1,0l0.1,0.1l0.1,0.1l0.1,0.1l0.1,0.1l0.1,0.3l0,0.1l0.1,0.1l0.2,0l0.2-0.1
		l0.1-0.2l0-0.1l-0.1-0.1L162,76l-0.1-0.2l-0.1-0.1l-0.1,0l0,0.2l-0.1,0.1l-0.1,0l-0.1-0.1l-0.1-0.1l-0.1-0.1l-0.1-0.1l-0.1,0
		l0.2-0.1l0,0l0,0l0,0l0.1-0.2l0.2,0l0.3,0v-0.1l-0.1,0l-0.2-0.1V75l0.2-0.1l0.1,0l0.1,0.2l0.1,0l0.2,0l-0.1-0.1l0.1,0l0.4,0.1
		l0.1,0l0.1-0.1l0.1-0.1l0,0.1l0.1,0l0.1,0l0.1-0.1l0-0.1l0-0.1l0-0.1l0-0.1l0.1,0.2l0.1,0.1l0.1,0l0.1-0.1l0-0.1l0-0.1l0-0.1
		l-0.1-0.1l-0.2-0.3l-0.1,0l0,0l0.1,0.1l-0.1,0.1l-0.1-0.1l-0.2-0.3l0.1,0l0.6,0.2l0.1-0.1l0,0l0,0.1l0,0l0,0l0-0.1l0,0l0,0l0,0
		l0.1,0l0.2,0l0.1-0.1l-0.1,0l-0.1,0l-0.1-0.2l-0.1-0.1l-0.1-0.1l-0.3-0.1l-0.3-0.3l-0.5-0.3l-0.3-0.3l-0.1-0.4l0.1,0.1l0.1,0.1
		l0.1,0.1l0.1,0.2l0,0.1l0.1,0.1l0.3,0.1l0.1,0.2l0.2,0.1l0.1,0.1l0.1,0.2L164,73l0.4,0.3l0.1,0l0-0.1l0.1-0.1l0,0l0.1,0.1l0.1,0
		l0.1,0l0.1,0.1l0.1,0.1l0.1,0.1l0.1-0.1l0-0.2l0-0.1l0,0l-0.2-0.1l-0.1-0.1l0-0.1l0-0.1l0.2-0.2l0-0.1l-0.2-0.1l0-0.1l0-0.1
		l-0.1-0.1l-0.1,0l0,0.1l0,0.1l0.1,0.1l0,0.1l-0.1,0.2l-0.2,0l-0.3-0.1l0.3,0l0.1-0.1l-0.1-0.2l0-0.1l0-0.1l0-0.1l0-0.1l0-0.1l0-0.1
		l0.1-0.1l0.1,0l0.1,0.1l0,0.2l0-0.1l0.1,0l0.1,0l0.1,0l0-0.3l-0.1-0.2l-0.1-0.1l-0.3-0.1l-0.1-0.1l-0.1-0.1l-0.1-0.2l0.1,0l0.2,0.2
		l0.2,0.1l0.1-0.3l-0.1-0.1l-0.1-0.2l0-0.1l0.1,0.1l0.1,0l0-0.1l-0.2-0.3l0.2-0.1l0-0.2l0.1,0l0.3,0.1l0,0.1l0,0l0.1,0.1l0.1,0.1
		l0.1,0.1l0,0.1l0,0.1l0,0.1l0,0.1l0,0l0.1-0.2l0.1,0l0.2,0.1l0.1,0.1l0,0.2l0.1,0l0.1-0.1l0-0.1l0-0.1l0-0.2l0-0.1l0-0.1l0-0.1
		l0-0.3l0-0.1l0-0.1l-0.1-0.1l-0.1-0.1l0.1,0l0.1,0l0.5,0.4l0.1,0.2L167,71l0.1,0.1l0.1,0l0.1,0l0.1,0l0.1,0.2l0,0l0.2,0.1l0.2,0
		l0.1,0.1l0.1,0.3l0,0.2l0.1,0l0.1-0.1l0-0.2l0.1-0.1l0,0l0.3-0.1l0.1-0.1l-0.1-0.1l-0.1-0.1l0-0.1l0-0.2l0.1-0.1l0.1,0l0.1,0
		l0.2,0.2l0.1,0.1l0.1,0L169,71l0.1-0.1l0.1-0.1l0.1,0l0,0.1l0,0.2l0,0.2l0.1,0.1l0.1,0l0,0l0,0l0-0.1l0-0.1l0-0.1l0-0.1l0,0l0-0.1
		l0,0l0,0l0,0l0-0.1l0,0l0.1,0l0.1,0l0,0l0,0.1l0.2,0.1l0.3,0l0,0l0,0.1l0,0l0.1,0l0.1-0.1l0.1-0.2l0.1,0l0.2,0l0.1,0.1l0,0.2l0,0.1
		l0.1,0l0.2,0l0-0.1l0,0l0,0.1l0,0.1l0,0.1l0,0l0.1,0l0,0l0,0l0,0l0-0.1l0-0.2L171.8,71.1L171.8,71.1z"/>
	<g>
		<g>
			<path class="st1" d="M200.1,38.5c-13.4-0.4-24.5,1.5-38.7,14.7"/>
			<g>
				<path class="st2" d="M161.5,53.1c0.6,0,1.4,0.5,1.8,0.9c-1-0.2-2-0.2-3,0.2c0.4-0.9,0.5-2,0.4-3
					C161.1,51.7,161.5,52.4,161.5,53.1z"/>
			</g>
		</g>
	</g>
	<g>
		<path class="st3" d="M213.4,36.8h-0.9l-0.5-1.3h-3l-0.5,1.3h-0.9l2.4-6h0.9L213.4,36.8z M211.8,34.8l-1.3-3.2l-1.3,3.2H211.8z"/>
		<path class="st3" d="M214.8,36.8h-0.7v-6h0.7V36.8z"/>
		<path class="st3" d="M216.8,36.8h-0.7v-6h0.7v2.3c0.4-0.5,0.9-0.8,1.5-0.8c0.6,0,1,0.2,1.4,0.6s0.5,1,0.5,1.7
			c0,0.7-0.2,1.2-0.5,1.7c-0.4,0.4-0.8,0.6-1.4,0.6c-0.6,0-1.1-0.3-1.5-0.8V36.8z M216.8,35.6c0.1,0.2,0.3,0.4,0.5,0.5
			s0.5,0.2,0.8,0.2c0.4,0,0.8-0.2,1-0.5c0.3-0.3,0.4-0.7,0.4-1.2s-0.1-0.9-0.4-1.2c-0.3-0.3-0.6-0.5-1-0.5c-0.3,0-0.5,0.1-0.8,0.2
			s-0.4,0.3-0.5,0.5V35.6z"/>
		<path class="st3" d="M224.7,36.8h-0.7v-0.5c-0.4,0.4-0.8,0.6-1.4,0.6c-0.4,0-0.8-0.1-1.1-0.4c-0.3-0.3-0.5-0.6-0.5-1.1
			c0-0.5,0.2-0.8,0.5-1.1c0.3-0.2,0.7-0.4,1.1-0.4c0.6,0,1.1,0.2,1.4,0.6v-0.8c0-0.3-0.1-0.5-0.3-0.7S223.3,33,223,33
			c-0.5,0-1,0.2-1.3,0.6l-0.3-0.5c0.5-0.5,1-0.7,1.7-0.7c0.5,0,0.9,0.1,1.2,0.4c0.3,0.2,0.5,0.6,0.5,1.1V36.8z M222.9,36.4
			c0.5,0,0.9-0.2,1.2-0.5v-0.8c-0.3-0.4-0.7-0.5-1.2-0.5c-0.3,0-0.6,0.1-0.8,0.3c-0.2,0.2-0.3,0.4-0.3,0.7c0,0.3,0.1,0.5,0.3,0.7
			C222.3,36.4,222.5,36.4,222.9,36.4z"/>
		<path class="st3" d="M229.7,36.8H229V34c0-0.4-0.1-0.6-0.3-0.8c-0.2-0.2-0.4-0.2-0.7-0.2c-0.3,0-0.5,0.1-0.7,0.2
			c-0.2,0.1-0.4,0.3-0.6,0.5v3.2h-0.7v-4.3h0.7v0.6c0.2-0.2,0.4-0.4,0.7-0.5c0.3-0.1,0.6-0.2,0.9-0.2c0.9,0,1.4,0.5,1.4,1.4V36.8z"
			/>
		<path class="st3" d="M231.4,31.9c-0.1,0-0.2,0-0.3-0.1c-0.1-0.1-0.1-0.2-0.1-0.3s0-0.2,0.1-0.3c0.1-0.1,0.2-0.1,0.3-0.1
			c0.1,0,0.2,0,0.3,0.1c0.1,0.1,0.1,0.2,0.1,0.3s0,0.2-0.1,0.3C231.6,31.8,231.5,31.9,231.4,31.9z M231.7,36.8H231v-4.3h0.7V36.8z"
			/>
		<path class="st3" d="M236.5,36.8h-0.7v-0.5c-0.4,0.4-0.8,0.6-1.4,0.6c-0.4,0-0.8-0.1-1.1-0.4c-0.3-0.3-0.5-0.6-0.5-1.1
			c0-0.5,0.2-0.8,0.5-1.1c0.3-0.2,0.7-0.4,1.1-0.4c0.6,0,1.1,0.2,1.4,0.6v-0.8c0-0.3-0.1-0.5-0.3-0.7c-0.2-0.2-0.5-0.2-0.8-0.2
			c-0.5,0-1,0.2-1.3,0.6l-0.3-0.5c0.5-0.5,1-0.7,1.7-0.7c0.5,0,0.9,0.1,1.2,0.4s0.5,0.6,0.5,1.1V36.8z M234.6,36.4
			c0.5,0,0.9-0.2,1.2-0.5v-0.8c-0.3-0.4-0.7-0.5-1.2-0.5c-0.3,0-0.6,0.1-0.8,0.3c-0.2,0.2-0.3,0.4-0.3,0.7c0,0.3,0.1,0.5,0.3,0.7
			C234,36.4,234.3,36.4,234.6,36.4z"/>
	</g>
	<g>
		<path class="st3" d="M212.2,64.2h-3.9v-6h3.9v0.7H209v1.9h3.1v0.7H209v2.1h3.2V64.2z"/>
		<path class="st3" d="M214,64.2h-0.7v-4.3h0.7v0.7c0.4-0.5,0.9-0.8,1.4-0.8v0.7c-0.1,0-0.2,0-0.3,0c-0.2,0-0.4,0.1-0.7,0.2
			c-0.2,0.1-0.4,0.3-0.5,0.5V64.2z"/>
		<path class="st3" d="M216.6,59.3c-0.1,0-0.2,0-0.3-0.1c-0.1-0.1-0.1-0.2-0.1-0.3s0-0.2,0.1-0.3c0.1-0.1,0.2-0.1,0.3-0.1
			c0.1,0,0.2,0,0.3,0.1c0.1,0.1,0.1,0.2,0.1,0.3s0,0.2-0.1,0.3C216.9,59.2,216.8,59.3,216.6,59.3z M217,64.2h-0.7v-4.3h0.7V64.2z"/>
		<path class="st3" d="M219.4,64.3c-0.3,0-0.6-0.1-0.7-0.3c-0.2-0.2-0.2-0.4-0.2-0.8v-2.8h-0.7v-0.6h0.7v-1.2h0.7v1.2h0.9v0.6h-0.9
			v2.7c0,0.2,0,0.3,0.1,0.4c0.1,0.1,0.2,0.2,0.3,0.2c0.2,0,0.4-0.1,0.5-0.2l0.2,0.5C220,64.3,219.8,64.3,219.4,64.3z"/>
		<path class="st3" d="M221.7,64.2H221v-4.3h0.7v0.7c0.4-0.5,0.9-0.8,1.4-0.8v0.7c-0.1,0-0.2,0-0.3,0c-0.2,0-0.4,0.1-0.7,0.2
			c-0.2,0.1-0.4,0.3-0.5,0.5V64.2z"/>
		<path class="st3" d="M225.9,64.3c-0.6,0-1.2-0.2-1.6-0.6s-0.6-1-0.6-1.7c0-0.6,0.2-1.2,0.6-1.6c0.4-0.4,0.9-0.7,1.5-0.7
			c0.6,0,1.2,0.2,1.5,0.7c0.4,0.4,0.6,1,0.6,1.7v0.2h-3.5c0,0.4,0.2,0.8,0.5,1.1c0.3,0.3,0.6,0.4,1.1,0.4c0.5,0,1-0.2,1.3-0.5
			l0.3,0.4C227.2,64.1,226.6,64.3,225.9,64.3z M227.3,61.8c0-0.4-0.1-0.7-0.4-1s-0.6-0.4-1.1-0.4c-0.4,0-0.8,0.1-1,0.4
			s-0.4,0.6-0.4,1H227.3z"/>
		<path class="st3" d="M232.4,64.2h-0.7v-0.5c-0.4,0.4-0.8,0.6-1.4,0.6c-0.4,0-0.8-0.1-1.1-0.4c-0.3-0.3-0.5-0.6-0.5-1.1
			c0-0.5,0.2-0.8,0.5-1.1c0.3-0.2,0.7-0.4,1.1-0.4c0.6,0,1.1,0.2,1.4,0.6v-0.8c0-0.3-0.1-0.5-0.3-0.7s-0.5-0.2-0.8-0.2
			c-0.5,0-1,0.2-1.3,0.6l-0.3-0.5c0.5-0.5,1-0.7,1.7-0.7c0.5,0,0.9,0.1,1.2,0.4c0.3,0.2,0.5,0.6,0.5,1.1V64.2z M230.5,63.9
			c0.5,0,0.9-0.2,1.2-0.5v-0.8c-0.3-0.4-0.7-0.5-1.2-0.5c-0.3,0-0.6,0.1-0.8,0.3c-0.2,0.2-0.3,0.4-0.3,0.7c0,0.3,0.1,0.5,0.3,0.7
			C230,63.8,230.2,63.9,230.5,63.9z"/>
	</g>
	<g>
		<path class="st3" d="M210.2,94.1c-1,0-1.7-0.3-2.3-1l0.4-0.6c0.5,0.6,1.1,0.9,1.9,0.9c0.5,0,0.8-0.1,1.1-0.3
			c0.2-0.2,0.3-0.4,0.3-0.7c0-0.2-0.1-0.4-0.2-0.5c-0.1-0.1-0.3-0.3-0.5-0.3s-0.4-0.2-0.7-0.2c-0.3-0.1-0.5-0.1-0.8-0.2
			c-0.3-0.1-0.5-0.2-0.7-0.3c-0.2-0.1-0.4-0.3-0.5-0.5s-0.2-0.5-0.2-0.7c0-0.5,0.2-0.9,0.6-1.2c0.4-0.3,0.9-0.5,1.5-0.5
			c0.9,0,1.6,0.3,2.1,0.8l-0.5,0.5c-0.4-0.5-1-0.7-1.7-0.7c-0.4,0-0.7,0.1-0.9,0.3c-0.2,0.2-0.3,0.4-0.3,0.7c0,0.2,0.1,0.4,0.3,0.5
			c0.2,0.1,0.4,0.2,0.7,0.3c0.3,0.1,0.5,0.1,0.9,0.2c0.3,0.1,0.6,0.2,0.9,0.3c0.3,0.1,0.5,0.3,0.7,0.5c0.2,0.2,0.3,0.5,0.3,0.9
			c0,0.5-0.2,0.9-0.5,1.3C211.5,93.9,210.9,94.1,210.2,94.1z"/>
		<path class="st3" d="M215.5,94.1c-0.6,0-1.2-0.2-1.6-0.6s-0.6-1-0.6-1.7c0-0.6,0.2-1.2,0.6-1.6c0.4-0.4,0.9-0.7,1.5-0.7
			c0.6,0,1.2,0.2,1.5,0.7c0.4,0.4,0.6,1,0.6,1.7V92h-3.5c0,0.4,0.2,0.8,0.5,1.1c0.3,0.3,0.6,0.4,1.1,0.4c0.5,0,1-0.2,1.3-0.5
			l0.3,0.4C216.7,93.8,216.2,94.1,215.5,94.1z M216.8,91.5c0-0.4-0.1-0.7-0.4-1s-0.6-0.4-1.1-0.4c-0.4,0-0.8,0.1-1,0.4
			c-0.2,0.3-0.4,0.6-0.4,1H216.8z"/>
		<path class="st3" d="M219.2,94h-0.7v-4.3h0.7v0.7c0.4-0.5,0.9-0.8,1.4-0.8v0.7c-0.1,0-0.2,0-0.3,0c-0.2,0-0.4,0.1-0.7,0.2
			c-0.2,0.1-0.4,0.3-0.5,0.5V94z"/>
		<path class="st3" d="M222.2,94h-0.7v-6h0.7v2.3c0.4-0.5,0.9-0.8,1.5-0.8c0.6,0,1,0.2,1.4,0.6c0.4,0.4,0.5,1,0.5,1.7
			c0,0.7-0.2,1.2-0.5,1.7c-0.4,0.4-0.8,0.6-1.4,0.6c-0.6,0-1.1-0.3-1.5-0.8V94z M222.2,92.8c0.1,0.2,0.3,0.4,0.5,0.5
			c0.2,0.1,0.5,0.2,0.8,0.2c0.4,0,0.8-0.2,1-0.5c0.3-0.3,0.4-0.7,0.4-1.2s-0.1-0.9-0.4-1.2c-0.3-0.3-0.6-0.5-1-0.5
			c-0.3,0-0.5,0.1-0.8,0.2c-0.2,0.1-0.4,0.3-0.5,0.5V92.8z"/>
		<path class="st3" d="M227,89c-0.1,0-0.2,0-0.3-0.1c-0.1-0.1-0.1-0.2-0.1-0.3s0-0.2,0.1-0.3c0.1-0.1,0.2-0.1,0.3-0.1
			c0.1,0,0.2,0,0.3,0.1c0.1,0.1,0.1,0.2,0.1,0.3s0,0.2-0.1,0.3C227.3,88.9,227.2,89,227,89z M227.4,94h-0.7v-4.3h0.7V94z"/>
		<path class="st3" d="M232.1,94h-0.7v-0.5c-0.4,0.4-0.8,0.6-1.4,0.6c-0.4,0-0.8-0.1-1.1-0.4c-0.3-0.3-0.5-0.6-0.5-1.1
			c0-0.5,0.2-0.8,0.5-1.1c0.3-0.2,0.7-0.4,1.1-0.4c0.6,0,1.1,0.2,1.4,0.6V91c0-0.3-0.1-0.5-0.3-0.7s-0.5-0.2-0.8-0.2
			c-0.5,0-1,0.2-1.3,0.6l-0.3-0.5c0.5-0.5,1-0.7,1.7-0.7c0.5,0,0.9,0.1,1.2,0.4c0.3,0.2,0.5,0.6,0.5,1.1V94z M230.2,93.6
			c0.5,0,0.9-0.2,1.2-0.5v-0.8c-0.3-0.4-0.7-0.5-1.2-0.5c-0.3,0-0.6,0.1-0.8,0.3c-0.2,0.2-0.3,0.4-0.3,0.7c0,0.3,0.1,0.5,0.3,0.7
			C229.7,93.5,229.9,93.6,230.2,93.6z"/>
	</g>
	<g>
		<path class="st3" d="M212.8,124.9h-0.9l-2.3-2.7l-0.6,0.7v2h-0.7v-6h0.7v3.1l2.7-3.1h0.9l-2.5,2.9L212.8,124.9z"/>
		<path class="st3" d="M216.8,124.3c-0.4,0.4-0.9,0.7-1.6,0.7s-1.2-0.2-1.6-0.7c-0.4-0.4-0.6-1-0.6-1.6s0.2-1.2,0.6-1.6
			c0.4-0.4,0.9-0.7,1.6-0.7s1.2,0.2,1.6,0.7c0.4,0.4,0.6,1,0.6,1.6S217.2,123.9,216.8,124.3z M214.2,123.9c0.3,0.3,0.6,0.5,1.1,0.5
			c0.4,0,0.8-0.2,1.1-0.5s0.4-0.7,0.4-1.2s-0.1-0.9-0.4-1.2c-0.3-0.3-0.6-0.5-1.1-0.5c-0.4,0-0.8,0.2-1.1,0.5s-0.4,0.7-0.4,1.2
			C213.8,123.2,213.9,123.6,214.2,123.9z"/>
		<path class="st3" d="M219.8,125c-0.7,0-1.3-0.2-1.8-0.7l0.4-0.5c0.1,0.2,0.4,0.3,0.6,0.4c0.3,0.1,0.5,0.2,0.8,0.2
			c0.3,0,0.6-0.1,0.8-0.2c0.2-0.1,0.3-0.3,0.3-0.5c0-0.2-0.1-0.3-0.3-0.5c-0.2-0.1-0.4-0.2-0.7-0.3c-0.3-0.1-0.5-0.1-0.8-0.2
			c-0.3-0.1-0.5-0.2-0.7-0.4c-0.2-0.2-0.3-0.4-0.3-0.7c0-0.4,0.1-0.7,0.4-0.9s0.7-0.4,1.2-0.4c0.7,0,1.2,0.2,1.6,0.6l-0.3,0.5
			c-0.3-0.4-0.7-0.5-1.3-0.5c-0.3,0-0.5,0.1-0.7,0.2c-0.2,0.1-0.3,0.3-0.3,0.5c0,0.2,0.1,0.3,0.3,0.4c0.2,0.1,0.4,0.2,0.7,0.2
			c0.3,0.1,0.5,0.1,0.8,0.2c0.3,0.1,0.5,0.2,0.7,0.4c0.2,0.2,0.3,0.4,0.3,0.8c0,0.4-0.2,0.7-0.5,0.9S220.4,125,219.8,125z"/>
		<path class="st3" d="M226.1,124.3c-0.4,0.4-0.9,0.7-1.6,0.7c-0.6,0-1.2-0.2-1.6-0.7c-0.4-0.4-0.6-1-0.6-1.6s0.2-1.2,0.6-1.6
			c0.4-0.4,0.9-0.7,1.6-0.7c0.6,0,1.2,0.2,1.6,0.7c0.4,0.4,0.6,1,0.6,1.6S226.5,123.9,226.1,124.3z M223.5,123.9
			c0.3,0.3,0.6,0.5,1.1,0.5s0.8-0.2,1.1-0.5s0.4-0.7,0.4-1.2s-0.1-0.9-0.4-1.2c-0.3-0.3-0.6-0.5-1.1-0.5s-0.8,0.2-1.1,0.5
			c-0.3,0.3-0.4,0.7-0.4,1.2C223.1,123.2,223.2,123.6,223.5,123.9z"/>
		<path class="st3" d="M229.7,124.9H229l-1.8-4.3h0.7l1.4,3.6l1.4-3.6h0.7L229.7,124.9z"/>
		<path class="st3" d="M235.7,124.3c-0.4,0.4-0.9,0.7-1.6,0.7s-1.2-0.2-1.6-0.7c-0.4-0.4-0.6-1-0.6-1.6s0.2-1.2,0.6-1.6
			c0.4-0.4,0.9-0.7,1.6-0.7s1.2,0.2,1.6,0.7c0.4,0.4,0.6,1,0.6,1.6S236.1,123.9,235.7,124.3z M233.1,123.9c0.3,0.3,0.6,0.5,1.1,0.5
			c0.4,0,0.8-0.2,1.1-0.5s0.4-0.7,0.4-1.2s-0.1-0.9-0.4-1.2c-0.3-0.3-0.6-0.5-1.1-0.5c-0.4,0-0.8,0.2-1.1,0.5s-0.4,0.7-0.4,1.2
			C232.7,123.2,232.8,123.6,233.1,123.9z"/>
	</g>
	<g>
		<path class="st3" d="M42.2,35c-1,0-1.7-0.3-2.3-1l0.4-0.6c0.5,0.6,1.1,0.9,1.9,0.9c0.5,0,0.8-0.1,1.1-0.3c0.2-0.2,0.3-0.4,0.3-0.7
			c0-0.2-0.1-0.4-0.2-0.5s-0.3-0.3-0.5-0.3c-0.2-0.1-0.4-0.2-0.7-0.2c-0.3-0.1-0.5-0.1-0.8-0.2s-0.5-0.2-0.7-0.3
			c-0.2-0.1-0.4-0.3-0.5-0.5c-0.1-0.2-0.2-0.5-0.2-0.7c0-0.5,0.2-0.9,0.6-1.2c0.4-0.3,0.9-0.5,1.5-0.5c0.9,0,1.6,0.3,2.1,0.8
			l-0.5,0.5c-0.4-0.5-1-0.7-1.7-0.7c-0.4,0-0.7,0.1-0.9,0.3c-0.2,0.2-0.3,0.4-0.3,0.7c0,0.2,0.1,0.4,0.3,0.5
			c0.2,0.1,0.4,0.2,0.7,0.3c0.3,0.1,0.5,0.1,0.9,0.2s0.6,0.2,0.9,0.3c0.3,0.1,0.5,0.3,0.7,0.5c0.2,0.2,0.3,0.5,0.3,0.9
			c0,0.5-0.2,0.9-0.5,1.3C43.5,34.8,43,35,42.2,35z"/>
		<path class="st3" d="M49,34.4c-0.4,0.4-0.9,0.7-1.6,0.7s-1.2-0.2-1.6-0.7c-0.4-0.4-0.6-1-0.6-1.6s0.2-1.2,0.6-1.6
			c0.4-0.4,0.9-0.7,1.6-0.7s1.2,0.2,1.6,0.7c0.4,0.4,0.6,1,0.6,1.6S49.4,33.9,49,34.4z M46.4,33.9c0.3,0.3,0.6,0.5,1.1,0.5
			c0.4,0,0.8-0.2,1.1-0.5s0.4-0.7,0.4-1.2c0-0.5-0.1-0.9-0.4-1.2c-0.3-0.3-0.6-0.5-1.1-0.5c-0.4,0-0.8,0.2-1.1,0.5S46,32.3,46,32.7
			C46,33.2,46.1,33.6,46.4,33.9z"/>
		<path class="st3" d="M56.6,34.9h-0.7v-3c0-0.6-0.3-0.9-0.8-0.9c-0.2,0-0.4,0.1-0.6,0.2c-0.2,0.1-0.4,0.3-0.5,0.5v3.2h-0.7v-3
			c0-0.6-0.3-0.9-0.8-0.9c-0.2,0-0.4,0.1-0.6,0.2c-0.2,0.1-0.4,0.3-0.5,0.5v3.2h-0.7v-4.3h0.7v0.6c0.1-0.2,0.3-0.3,0.6-0.5
			c0.3-0.2,0.5-0.2,0.8-0.2c0.3,0,0.6,0.1,0.8,0.2c0.2,0.2,0.3,0.3,0.4,0.6c0.1-0.2,0.3-0.4,0.6-0.6s0.6-0.2,0.9-0.2
			c0.8,0,1.2,0.4,1.2,1.3V34.9z"/>
		<path class="st3" d="M61.3,34.9h-0.7v-0.5c-0.4,0.4-0.8,0.6-1.4,0.6c-0.4,0-0.8-0.1-1.1-0.4c-0.3-0.3-0.5-0.6-0.5-1.1
			c0-0.5,0.2-0.8,0.5-1.1s0.7-0.4,1.1-0.4c0.6,0,1.1,0.2,1.4,0.6V32c0-0.3-0.1-0.5-0.3-0.7S59.9,31,59.5,31c-0.5,0-1,0.2-1.3,0.6
			l-0.3-0.5c0.5-0.5,1-0.7,1.7-0.7c0.5,0,0.9,0.1,1.2,0.4c0.3,0.2,0.5,0.6,0.5,1.1V34.9z M59.4,34.5c0.5,0,0.9-0.2,1.2-0.5v-0.8
			c-0.3-0.4-0.7-0.5-1.2-0.5c-0.3,0-0.6,0.1-0.8,0.3c-0.2,0.2-0.3,0.4-0.3,0.7c0,0.3,0.1,0.5,0.3,0.7C58.9,34.4,59.1,34.5,59.4,34.5
			z"/>
		<path class="st3" d="M63.3,34.9h-0.7v-6h0.7V34.9z"/>
		<path class="st3" d="M65,29.9c-0.1,0-0.2,0-0.3-0.1s-0.1-0.2-0.1-0.3s0-0.2,0.1-0.3S64.9,29,65,29c0.1,0,0.2,0,0.3,0.1
			s0.1,0.2,0.1,0.3s0,0.2-0.1,0.3S65.2,29.9,65,29.9z M65.4,34.9h-0.7v-4.3h0.7V34.9z"/>
		<path class="st3" d="M70.1,34.9h-0.7v-0.5C69.1,34.8,68.6,35,68,35c-0.4,0-0.8-0.1-1.1-0.4c-0.3-0.3-0.5-0.6-0.5-1.1
			c0-0.5,0.2-0.8,0.5-1.1s0.7-0.4,1.1-0.4c0.6,0,1.1,0.2,1.4,0.6V32c0-0.3-0.1-0.5-0.3-0.7S68.7,31,68.3,31c-0.5,0-1,0.2-1.3,0.6
			l-0.3-0.5c0.5-0.5,1-0.7,1.7-0.7c0.5,0,0.9,0.1,1.2,0.4c0.3,0.2,0.5,0.6,0.5,1.1V34.9z M68.2,34.5c0.5,0,0.9-0.2,1.2-0.5v-0.8
			c-0.3-0.4-0.7-0.5-1.2-0.5c-0.3,0-0.6,0.1-0.8,0.3c-0.2,0.2-0.3,0.4-0.3,0.7c0,0.3,0.1,0.5,0.3,0.7C67.7,34.4,67.9,34.5,68.2,34.5
			z"/>
	</g>
	<g>
		<path class="st3" d="M143.5,16.8h-0.7v-6h0.7V16.8z"/>
		<path class="st3" d="M145.6,16.8h-0.7v-4.3h0.7v0.7c0.4-0.5,0.9-0.8,1.4-0.8V13c-0.1,0-0.2,0-0.3,0c-0.2,0-0.4,0.1-0.7,0.2
			c-0.2,0.1-0.4,0.3-0.5,0.5V16.8z"/>
		<path class="st3" d="M151.3,16.8h-0.7v-0.5c-0.4,0.4-0.8,0.6-1.4,0.6c-0.4,0-0.8-0.1-1.1-0.4c-0.3-0.3-0.5-0.6-0.5-1.1
			c0-0.5,0.2-0.8,0.5-1.1s0.7-0.4,1.1-0.4c0.6,0,1.1,0.2,1.4,0.6v-0.8c0-0.3-0.1-0.5-0.3-0.7s-0.5-0.2-0.8-0.2c-0.5,0-1,0.2-1.3,0.6
			l-0.3-0.5c0.5-0.5,1-0.7,1.7-0.7c0.5,0,0.9,0.1,1.2,0.4c0.3,0.2,0.5,0.6,0.5,1.1V16.8z M149.4,16.4c0.5,0,0.9-0.2,1.2-0.5V15
			c-0.3-0.4-0.7-0.5-1.2-0.5c-0.3,0-0.6,0.1-0.8,0.3c-0.2,0.2-0.3,0.4-0.3,0.7c0,0.3,0.1,0.5,0.3,0.7
			C148.8,16.3,149.1,16.4,149.4,16.4z"/>
		<path class="st3" d="M154.3,16.9c-0.6,0-1-0.2-1.4-0.6c-0.4-0.4-0.5-1-0.5-1.7c0-0.7,0.2-1.2,0.5-1.7c0.4-0.4,0.8-0.6,1.4-0.6
			c0.3,0,0.6,0.1,0.8,0.2c0.3,0.1,0.5,0.3,0.6,0.5v-0.6h0.7v6h-0.7v-2.3C155.4,16.6,154.9,16.9,154.3,16.9z M154.5,16.3
			c0.3,0,0.5-0.1,0.8-0.2c0.2-0.1,0.4-0.3,0.5-0.5v-2c-0.1-0.2-0.3-0.4-0.5-0.5c-0.2-0.1-0.5-0.2-0.8-0.2c-0.4,0-0.8,0.2-1,0.5
			s-0.4,0.7-0.4,1.2s0.1,0.9,0.4,1.2C153.7,16.1,154,16.3,154.5,16.3z"/>
	</g>
	<g>
		<path class="st3" d="M54.1,150c-1,0-1.7-0.3-2.3-1l0.4-0.6c0.5,0.6,1.1,0.9,1.9,0.9c0.5,0,0.8-0.1,1.1-0.3s0.3-0.4,0.3-0.7
			c0-0.2-0.1-0.4-0.2-0.5c-0.1-0.1-0.3-0.3-0.5-0.3c-0.2-0.1-0.4-0.2-0.7-0.2s-0.5-0.1-0.8-0.2s-0.5-0.2-0.7-0.3
			c-0.2-0.1-0.4-0.3-0.5-0.5c-0.1-0.2-0.2-0.5-0.2-0.7c0-0.5,0.2-0.9,0.6-1.2c0.4-0.3,0.9-0.5,1.5-0.5c0.9,0,1.6,0.3,2.1,0.8
			l-0.4,0.5c-0.4-0.5-1-0.7-1.7-0.7c-0.4,0-0.7,0.1-0.9,0.3c-0.2,0.2-0.3,0.4-0.3,0.7c0,0.2,0.1,0.4,0.3,0.5
			c0.2,0.1,0.4,0.2,0.7,0.3c0.3,0.1,0.5,0.1,0.9,0.2c0.3,0.1,0.6,0.2,0.9,0.3s0.5,0.3,0.7,0.5s0.3,0.5,0.3,0.9
			c0,0.5-0.2,0.9-0.5,1.3C55.4,149.8,54.8,150,54.1,150z"/>
		<path class="st3" d="M57.1,151.6l0.1-0.6c0.1,0,0.2,0.1,0.4,0.1c0.2,0,0.3,0,0.4-0.1c0.1-0.1,0.2-0.2,0.3-0.4l0.3-0.7l-1.8-4.4
			h0.7l1.4,3.6l1.4-3.6H61l-2.2,5.2c-0.2,0.6-0.7,0.9-1.3,0.9C57.4,151.6,57.2,151.6,57.1,151.6z"/>
		<path class="st3" d="M62.4,149.9h-0.7v-4.3h0.7v0.7c0.4-0.5,0.9-0.8,1.4-0.8v0.7c-0.1,0-0.2,0-0.3,0c-0.2,0-0.4,0.1-0.7,0.2
			c-0.2,0.1-0.4,0.3-0.5,0.5V149.9z"/>
		<path class="st3" d="M65,144.9c-0.1,0-0.2,0-0.3-0.1s-0.1-0.2-0.1-0.3s0-0.2,0.1-0.3s0.2-0.1,0.3-0.1c0.1,0,0.2,0,0.3,0.1
			s0.1,0.2,0.1,0.3s0,0.2-0.1,0.3S65.2,144.9,65,144.9z M65.4,149.9h-0.7v-4.3h0.7V149.9z"/>
		<path class="st3" d="M70.1,149.9h-0.7v-0.5c-0.4,0.4-0.8,0.6-1.4,0.6c-0.4,0-0.8-0.1-1.1-0.4c-0.3-0.3-0.5-0.6-0.5-1.1
			c0-0.5,0.2-0.8,0.5-1.1c0.3-0.2,0.7-0.4,1.1-0.4c0.6,0,1.1,0.2,1.4,0.6v-0.8c0-0.3-0.1-0.5-0.3-0.7c-0.2-0.2-0.5-0.2-0.8-0.2
			c-0.5,0-1,0.2-1.3,0.6l-0.3-0.5c0.5-0.5,1-0.7,1.7-0.7c0.5,0,0.9,0.1,1.2,0.4c0.3,0.2,0.5,0.6,0.5,1.1V149.9z M68.2,149.5
			c0.5,0,0.9-0.2,1.2-0.5v-0.8c-0.3-0.4-0.7-0.5-1.2-0.5c-0.3,0-0.6,0.1-0.8,0.3c-0.2,0.2-0.3,0.4-0.3,0.7c0,0.3,0.1,0.5,0.3,0.7
			S67.9,149.5,68.2,149.5z"/>
	</g>
	<g>
		<path class="st3" d="M29.8,63.8H29l-0.5-1.3h-3l-0.5,1.3h-0.9l2.4-6h0.9L29.8,63.8z M28.2,61.8L27,58.5l-1.3,3.2H28.2z"/>
		<path class="st3" d="M31.4,63.8h-0.7V60H30v-0.6h0.7v-0.3c0-0.4,0.1-0.8,0.3-1s0.5-0.4,0.9-0.4c0.4,0,0.7,0.1,0.9,0.3l-0.3,0.4
			c-0.2-0.1-0.3-0.2-0.5-0.2c-0.2,0-0.4,0.1-0.5,0.2c-0.1,0.1-0.2,0.4-0.2,0.6v0.3h0.9V60h-0.9V63.8z"/>
		<path class="st3" d="M34.8,65.5c-0.4,0-0.7,0-1-0.1c-0.3-0.1-0.5-0.3-0.8-0.5l0.3-0.5c0.3,0.4,0.8,0.6,1.4,0.6
			c0.4,0,0.7-0.1,1-0.3c0.3-0.2,0.4-0.5,0.4-1v-0.6c-0.2,0.2-0.4,0.4-0.6,0.6s-0.5,0.2-0.8,0.2c-0.6,0-1-0.2-1.4-0.6s-0.5-1-0.5-1.6
			c0-0.7,0.2-1.2,0.5-1.6c0.4-0.4,0.8-0.6,1.4-0.6c0.6,0,1.1,0.3,1.5,0.8v-0.7h0.7v4.2c0,0.7-0.2,1.1-0.6,1.4S35.4,65.5,34.8,65.5z
			 M34.9,63.2c0.3,0,0.5-0.1,0.8-0.2c0.2-0.1,0.4-0.3,0.5-0.5v-1.9c-0.1-0.2-0.3-0.4-0.5-0.5c-0.2-0.1-0.5-0.2-0.8-0.2
			c-0.4,0-0.8,0.2-1,0.5c-0.2,0.3-0.4,0.7-0.4,1.2c0,0.5,0.1,0.9,0.4,1.2C34.2,63.1,34.5,63.2,34.9,63.2z"/>
		<path class="st3" d="M41.9,63.8h-0.7v-2.9c0-0.4-0.1-0.6-0.3-0.8s-0.4-0.2-0.7-0.2c-0.2,0-0.5,0.1-0.7,0.2
			c-0.2,0.1-0.4,0.3-0.6,0.5v3.2h-0.7v-6h0.7v2.3c0.2-0.2,0.4-0.4,0.7-0.5s0.6-0.2,0.9-0.2c0.9,0,1.4,0.5,1.4,1.4V63.8z"/>
		<path class="st3" d="M46.6,63.8h-0.7v-0.5c-0.4,0.4-0.8,0.6-1.4,0.6c-0.4,0-0.8-0.1-1.1-0.4S43,62.9,43,62.4
			c0-0.5,0.2-0.8,0.5-1.1s0.7-0.4,1.1-0.4c0.6,0,1.1,0.2,1.4,0.6v-0.8c0-0.3-0.1-0.5-0.3-0.7c-0.2-0.2-0.5-0.2-0.8-0.2
			c-0.5,0-1,0.2-1.3,0.6L43.2,60c0.5-0.5,1-0.7,1.7-0.7c0.5,0,0.9,0.1,1.2,0.4c0.3,0.2,0.5,0.6,0.5,1.1V63.8z M44.7,63.4
			c0.5,0,0.9-0.2,1.2-0.5V62c-0.3-0.4-0.7-0.5-1.2-0.5c-0.3,0-0.6,0.1-0.8,0.3c-0.2,0.2-0.3,0.4-0.3,0.7c0,0.3,0.1,0.5,0.3,0.7
			C44.2,63.3,44.4,63.4,44.7,63.4z"/>
		<path class="st3" d="M51.6,63.8h-0.7v-2.8c0-0.4-0.1-0.6-0.3-0.8c-0.2-0.2-0.4-0.2-0.7-0.2c-0.3,0-0.5,0.1-0.7,0.2
			c-0.2,0.1-0.4,0.3-0.6,0.5v3.2h-0.7v-4.3h0.7v0.6c0.2-0.2,0.4-0.4,0.7-0.5s0.6-0.2,0.9-0.2c0.9,0,1.4,0.5,1.4,1.4V63.8z"/>
		<path class="st3" d="M53.2,58.8c-0.1,0-0.2,0-0.3-0.1c-0.1-0.1-0.1-0.2-0.1-0.3s0-0.2,0.1-0.3c0.1-0.1,0.2-0.1,0.3-0.1
			c0.1,0,0.2,0,0.3,0.1s0.1,0.2,0.1,0.3s0,0.2-0.1,0.3S53.4,58.8,53.2,58.8z M53.6,63.8h-0.7v-4.3h0.7V63.8z"/>
		<path class="st3" d="M56.3,63.9c-0.7,0-1.3-0.2-1.8-0.7l0.4-0.5c0.2,0.2,0.4,0.3,0.6,0.4c0.3,0.1,0.5,0.2,0.8,0.2
			c0.3,0,0.6-0.1,0.8-0.2c0.2-0.1,0.3-0.3,0.3-0.5c0-0.2-0.1-0.3-0.3-0.5c-0.2-0.1-0.4-0.2-0.7-0.3c-0.3-0.1-0.5-0.1-0.8-0.2
			c-0.3-0.1-0.5-0.2-0.7-0.4c-0.2-0.2-0.3-0.4-0.3-0.7c0-0.4,0.1-0.7,0.4-0.9c0.3-0.2,0.7-0.4,1.2-0.4c0.7,0,1.2,0.2,1.6,0.6
			l-0.3,0.5c-0.3-0.4-0.7-0.5-1.3-0.5c-0.3,0-0.5,0.1-0.7,0.2c-0.2,0.1-0.3,0.3-0.3,0.5c0,0.2,0.1,0.3,0.3,0.4
			c0.2,0.1,0.4,0.2,0.7,0.2s0.5,0.1,0.8,0.2s0.5,0.2,0.7,0.4c0.2,0.2,0.3,0.4,0.3,0.8c0,0.4-0.2,0.7-0.5,0.9
			C57.3,63.8,56.8,63.9,56.3,63.9z"/>
		<path class="st3" d="M60.2,63.9c-0.3,0-0.6-0.1-0.7-0.3c-0.2-0.2-0.2-0.4-0.2-0.8V60h-0.7v-0.6h0.7v-1.2h0.7v1.2h0.9V60h-0.9v2.7
			c0,0.2,0,0.3,0.1,0.4c0.1,0.1,0.2,0.2,0.3,0.2c0.2,0,0.4-0.1,0.5-0.2l0.2,0.5C60.8,63.8,60.6,63.9,60.2,63.9z"/>
		<path class="st3" d="M65.2,63.8h-0.7v-0.5c-0.4,0.4-0.8,0.6-1.4,0.6c-0.4,0-0.8-0.1-1.1-0.4c-0.3-0.3-0.5-0.6-0.5-1.1
			c0-0.5,0.2-0.8,0.5-1.1S62.6,61,63,61c0.6,0,1.1,0.2,1.4,0.6v-0.8c0-0.3-0.1-0.5-0.3-0.7s-0.5-0.2-0.8-0.2c-0.5,0-1,0.2-1.3,0.6
			L61.7,60c0.5-0.5,1-0.7,1.7-0.7c0.5,0,0.9,0.1,1.2,0.4c0.3,0.2,0.5,0.6,0.5,1.1V63.8z M63.3,63.4c0.5,0,0.9-0.2,1.2-0.5V62
			c-0.3-0.4-0.7-0.5-1.2-0.5c-0.3,0-0.6,0.1-0.8,0.3c-0.2,0.2-0.3,0.4-0.3,0.7c0,0.3,0.1,0.5,0.3,0.7C62.7,63.3,63,63.4,63.3,63.4z"
			/>
		<path class="st3" d="M70.1,63.8h-0.7v-2.8c0-0.4-0.1-0.6-0.3-0.8c-0.2-0.2-0.4-0.2-0.7-0.2c-0.3,0-0.5,0.1-0.7,0.2
			c-0.2,0.1-0.4,0.3-0.6,0.5v3.2h-0.7v-4.3h0.7v0.6c0.2-0.2,0.4-0.4,0.7-0.5c0.3-0.1,0.6-0.2,0.9-0.2c0.9,0,1.4,0.5,1.4,1.4V63.8z"
			/>
	</g>
	<g>
		<path class="st3" d="M57.4,94h-0.7v-6h0.7V94z"/>
		<path class="st3" d="M59.5,94h-0.7v-4.3h0.7v0.7c0.4-0.5,0.9-0.8,1.4-0.8v0.7c-0.1,0-0.2,0-0.3,0c-0.2,0-0.4,0.1-0.7,0.2
			c-0.2,0.1-0.4,0.3-0.5,0.5V94z"/>
		<path class="st3" d="M65.2,94h-0.7v-0.5c-0.4,0.4-0.8,0.6-1.4,0.6c-0.4,0-0.8-0.1-1.1-0.4c-0.3-0.3-0.5-0.6-0.5-1.1
			c0-0.5,0.2-0.8,0.5-1.1c0.3-0.2,0.7-0.4,1.1-0.4c0.6,0,1.1,0.2,1.4,0.6V91c0-0.3-0.1-0.5-0.3-0.7c-0.2-0.2-0.5-0.2-0.8-0.2
			c-0.5,0-1,0.2-1.3,0.6l-0.3-0.5c0.5-0.5,1-0.7,1.7-0.7c0.5,0,0.9,0.1,1.2,0.4s0.5,0.6,0.5,1.1V94z M63.3,93.6
			c0.5,0,0.9-0.2,1.2-0.5v-0.8c-0.3-0.4-0.7-0.5-1.2-0.5c-0.3,0-0.6,0.1-0.8,0.3c-0.2,0.2-0.3,0.4-0.3,0.7c0,0.3,0.1,0.5,0.3,0.7
			C62.7,93.5,63,93.6,63.3,93.6z"/>
		<path class="st3" d="M70.1,94h-0.7v-2.8c0-0.4-0.1-0.6-0.3-0.8c-0.2-0.2-0.4-0.2-0.7-0.2c-0.3,0-0.5,0.1-0.7,0.2
			c-0.2,0.1-0.4,0.3-0.6,0.5V94h-0.7v-4.3h0.7v0.6c0.2-0.2,0.4-0.4,0.7-0.5c0.3-0.1,0.6-0.2,0.9-0.2c0.9,0,1.4,0.5,1.4,1.4V94z"/>
	</g>
	<g>
		<path class="st3" d="M37.8,121.9c-1,0-1.7-0.3-2.3-1l0.4-0.6c0.5,0.6,1.1,0.9,1.9,0.9c0.5,0,0.8-0.1,1.1-0.3
			c0.2-0.2,0.3-0.4,0.3-0.7c0-0.2-0.1-0.4-0.2-0.5s-0.3-0.3-0.5-0.3c-0.2-0.1-0.4-0.2-0.7-0.2c-0.3-0.1-0.5-0.1-0.8-0.2
			s-0.5-0.2-0.7-0.3c-0.2-0.1-0.4-0.3-0.5-0.5c-0.1-0.2-0.2-0.5-0.2-0.7c0-0.5,0.2-0.9,0.6-1.2c0.4-0.3,0.9-0.5,1.5-0.5
			c0.9,0,1.6,0.3,2.1,0.8l-0.5,0.5c-0.4-0.5-1-0.7-1.7-0.7c-0.4,0-0.7,0.1-0.9,0.3c-0.2,0.2-0.3,0.4-0.3,0.7c0,0.2,0.1,0.4,0.3,0.5
			c0.2,0.1,0.4,0.2,0.7,0.3c0.3,0.1,0.5,0.1,0.9,0.2s0.6,0.2,0.9,0.3c0.3,0.1,0.5,0.3,0.7,0.5c0.2,0.2,0.3,0.5,0.3,0.9
			c0,0.5-0.2,0.9-0.5,1.3C39.1,121.7,38.5,121.9,37.8,121.9z"/>
		<path class="st3" d="M42,121.9c-0.3,0-0.6-0.1-0.7-0.3c-0.2-0.2-0.2-0.4-0.2-0.8V118h-0.7v-0.6H41v-1.2h0.7v1.2h0.9v0.6h-0.9v2.7
			c0,0.2,0,0.3,0.1,0.4c0.1,0.1,0.2,0.2,0.3,0.2c0.2,0,0.4-0.1,0.5-0.2l0.2,0.5C42.6,121.8,42.3,121.9,42,121.9z"/>
		<path class="st3" d="M46.9,121.7h-0.7v-0.5c-0.4,0.4-0.8,0.6-1.4,0.6c-0.4,0-0.8-0.1-1.1-0.4c-0.3-0.3-0.5-0.6-0.5-1.1
			c0-0.5,0.2-0.8,0.5-1.1c0.3-0.2,0.7-0.4,1.1-0.4c0.6,0,1.1,0.2,1.4,0.6v-0.8c0-0.3-0.1-0.5-0.3-0.7s-0.5-0.2-0.8-0.2
			c-0.5,0-1,0.2-1.3,0.6l-0.3-0.5c0.5-0.5,1-0.7,1.7-0.7c0.5,0,0.9,0.1,1.2,0.4c0.3,0.2,0.5,0.6,0.5,1.1V121.7z M45.1,121.4
			c0.5,0,0.9-0.2,1.2-0.5V120c-0.3-0.4-0.7-0.5-1.2-0.5c-0.3,0-0.6,0.1-0.8,0.3c-0.2,0.2-0.3,0.4-0.3,0.7c0,0.3,0.1,0.5,0.3,0.7
			S44.8,121.4,45.1,121.4z"/>
		<path class="st3" d="M49.4,121.9c-0.3,0-0.6-0.1-0.7-0.3c-0.2-0.2-0.2-0.4-0.2-0.8V118h-0.7v-0.6h0.7v-1.2h0.7v1.2H50v0.6h-0.9
			v2.7c0,0.2,0,0.3,0.1,0.4c0.1,0.1,0.2,0.2,0.3,0.2c0.2,0,0.4-0.1,0.5-0.2l0.2,0.5C50,121.8,49.7,121.9,49.4,121.9z"/>
		<path class="st3" d="M52.9,121.9c-0.6,0-1.2-0.2-1.6-0.6s-0.6-1-0.6-1.7c0-0.6,0.2-1.2,0.6-1.6c0.4-0.4,0.9-0.7,1.5-0.7
			c0.6,0,1.2,0.2,1.5,0.7c0.4,0.4,0.6,1,0.6,1.7v0.2h-3.5c0,0.4,0.2,0.8,0.5,1.1c0.3,0.3,0.6,0.4,1.1,0.4c0.5,0,1-0.2,1.3-0.5
			l0.3,0.4C54.2,121.6,53.6,121.9,52.9,121.9z M54.2,119.3c0-0.4-0.1-0.7-0.4-1s-0.6-0.4-1.1-0.4c-0.4,0-0.8,0.1-1,0.4
			s-0.4,0.6-0.4,1H54.2z"/>
		<path class="st3" d="M56.7,121.7H56v-6h0.7V121.7z"/>
		<path class="st3" d="M60,121.9c-0.6,0-1.2-0.2-1.6-0.6s-0.6-1-0.6-1.7c0-0.6,0.2-1.2,0.6-1.6c0.4-0.4,0.9-0.7,1.5-0.7
			c0.6,0,1.2,0.2,1.5,0.7c0.4,0.4,0.6,1,0.6,1.7v0.2h-3.5c0,0.4,0.2,0.8,0.5,1.1c0.3,0.3,0.6,0.4,1.1,0.4c0.5,0,1-0.2,1.3-0.5
			l0.3,0.4C61.3,121.6,60.7,121.9,60,121.9z M61.3,119.3c0-0.4-0.1-0.7-0.4-1s-0.6-0.4-1.1-0.4c-0.4,0-0.8,0.1-1,0.4s-0.4,0.6-0.4,1
			H61.3z"/>
		<path class="st3" d="M64.5,121.9c-0.7,0-1.3-0.2-1.8-0.7l0.4-0.5c0.1,0.2,0.4,0.3,0.6,0.4c0.3,0.1,0.5,0.2,0.8,0.2
			c0.3,0,0.6-0.1,0.8-0.2c0.2-0.1,0.3-0.3,0.3-0.5c0-0.2-0.1-0.3-0.3-0.5s-0.4-0.2-0.7-0.3s-0.5-0.1-0.8-0.2
			c-0.3-0.1-0.5-0.2-0.7-0.4c-0.2-0.2-0.3-0.4-0.3-0.7c0-0.4,0.1-0.7,0.4-0.9c0.3-0.2,0.7-0.4,1.2-0.4c0.7,0,1.2,0.2,1.6,0.6
			l-0.3,0.5c-0.3-0.4-0.7-0.5-1.3-0.5c-0.3,0-0.5,0.1-0.7,0.2s-0.3,0.3-0.3,0.5c0,0.2,0.1,0.3,0.3,0.4c0.2,0.1,0.4,0.2,0.7,0.2
			s0.5,0.1,0.8,0.2c0.3,0.1,0.5,0.2,0.7,0.4c0.2,0.2,0.3,0.4,0.3,0.8c0,0.4-0.2,0.7-0.4,0.9C65.4,121.7,65,121.9,64.5,121.9z"/>
		<path class="st3" d="M68.7,121.9c-0.7,0-1.3-0.2-1.8-0.7l0.4-0.5c0.1,0.2,0.4,0.3,0.6,0.4c0.3,0.1,0.5,0.2,0.8,0.2
			c0.3,0,0.6-0.1,0.8-0.2c0.2-0.1,0.3-0.3,0.3-0.5c0-0.2-0.1-0.3-0.3-0.5c-0.2-0.1-0.4-0.2-0.7-0.3c-0.3-0.1-0.5-0.1-0.8-0.2
			c-0.3-0.1-0.5-0.2-0.7-0.4s-0.3-0.4-0.3-0.7c0-0.4,0.1-0.7,0.4-0.9c0.3-0.2,0.7-0.4,1.2-0.4c0.7,0,1.2,0.2,1.6,0.6l-0.3,0.5
			c-0.3-0.4-0.7-0.5-1.3-0.5c-0.3,0-0.5,0.1-0.7,0.2c-0.2,0.1-0.3,0.3-0.3,0.5c0,0.2,0.1,0.3,0.3,0.4s0.4,0.2,0.7,0.2
			c0.3,0.1,0.5,0.1,0.8,0.2c0.3,0.1,0.5,0.2,0.7,0.4s0.3,0.4,0.3,0.8c0,0.4-0.2,0.7-0.5,0.9C69.6,121.7,69.2,121.9,68.7,121.9z"/>
	</g>
	<g>
		<path class="st0" d="M213,48.5h-1.5v-1.9h-4v-1.2l3.4-5.3h2v5.2h1.1v1.3H213V48.5z M211.5,45.4v-3.9l-2.5,3.9H211.5z"/>
		<path class="st0" d="M221.1,48.5h-6v-1.2c1.7-1.3,2.9-2.3,3.6-2.9c0.6-0.6,0.9-1.2,0.9-1.8c0-0.4-0.1-0.7-0.4-0.9
			s-0.7-0.3-1.1-0.3c-0.9,0-1.7,0.3-2.2,1l-0.8-1c0.4-0.4,0.8-0.8,1.4-1c0.5-0.2,1.1-0.3,1.7-0.3c0.9,0,1.6,0.2,2.1,0.7
			c0.6,0.5,0.9,1.1,0.9,1.9c0,0.7-0.3,1.4-0.9,2.1s-1.5,1.5-2.8,2.5h3.7V48.5z"/>
		<path class="st0" d="M227.2,48.3c-0.4,0.2-0.9,0.4-1.5,0.4s-1.1-0.1-1.5-0.4s-0.8-0.6-1.1-1c-0.3-0.4-0.5-0.9-0.6-1.4
			s-0.2-1-0.2-1.6c0-0.5,0.1-1.1,0.2-1.6s0.3-1,0.6-1.4c0.3-0.4,0.6-0.7,1.1-1s0.9-0.4,1.5-0.4s1.1,0.1,1.5,0.4s0.8,0.6,1,1
			c0.3,0.4,0.5,0.9,0.6,1.4c0.1,0.5,0.2,1,0.2,1.6c0,0.5-0.1,1.1-0.2,1.6c-0.1,0.5-0.3,1-0.6,1.4C228,47.7,227.7,48.1,227.2,48.3z
			 M224.3,46.5c0.3,0.6,0.8,0.8,1.4,0.8s1.1-0.3,1.4-0.8c0.3-0.6,0.4-1.3,0.4-2.2c0-0.6-0.1-1.1-0.2-1.5c-0.1-0.4-0.3-0.8-0.6-1.1
			s-0.6-0.4-1.1-0.4s-0.8,0.1-1.1,0.4c-0.3,0.3-0.5,0.6-0.6,1.1c-0.1,0.4-0.2,0.9-0.2,1.5C223.9,45.2,224,46,224.3,46.5z"/>
	</g>
	<g>
		<path class="st0" d="M210.3,75.3h-1.6l3.2-7.1h-4.3v-1.3h6v1L210.3,75.3z"/>
		<path class="st0" d="M217.6,75.4c-1.3,0-2.4-0.4-3.1-1.3l0.8-1c0.6,0.7,1.3,1,2.2,1c0.5,0,0.9-0.1,1.2-0.4c0.3-0.3,0.5-0.6,0.5-1
			c0-0.4-0.2-0.8-0.5-1.1c-0.3-0.3-0.7-0.4-1.2-0.4c-0.7,0-1.3,0.2-1.8,0.7l-1-0.3v-4.7h5.5v1.3h-4v2.4c0.5-0.5,1.1-0.7,1.9-0.7
			c0.7,0,1.4,0.2,1.9,0.7c0.5,0.5,0.8,1.1,0.8,2c0,0.9-0.3,1.5-0.9,2.1C219.4,75.2,218.6,75.4,217.6,75.4z"/>
		<path class="st0" d="M226.7,75.1c-0.4,0.2-0.9,0.4-1.5,0.4c-0.6,0-1.1-0.1-1.5-0.4c-0.4-0.2-0.8-0.6-1.1-1s-0.5-0.9-0.6-1.4
			c-0.1-0.5-0.2-1-0.2-1.6s0.1-1.1,0.2-1.6c0.1-0.5,0.3-1,0.6-1.4c0.3-0.4,0.6-0.7,1.1-1c0.4-0.2,0.9-0.4,1.5-0.4
			c0.6,0,1.1,0.1,1.5,0.4c0.4,0.2,0.8,0.6,1,1c0.3,0.4,0.5,0.9,0.6,1.4s0.2,1,0.2,1.6s-0.1,1.1-0.2,1.6s-0.3,1-0.6,1.4
			C227.5,74.5,227.1,74.8,226.7,75.1z M223.8,73.3c0.3,0.6,0.8,0.8,1.4,0.8c0.6,0,1.1-0.3,1.4-0.8s0.5-1.3,0.5-2.2
			c0-0.6-0.1-1.1-0.2-1.5s-0.3-0.8-0.6-1.1c-0.3-0.3-0.6-0.4-1.1-0.4c-0.4,0-0.8,0.1-1.1,0.4c-0.3,0.3-0.5,0.6-0.6,1.1
			c-0.1,0.4-0.2,0.9-0.2,1.5C223.3,72,223.5,72.7,223.8,73.3z"/>
	</g>
	<g>
		<path class="st0" d="M210.5,105.8c-1,0-1.8-0.3-2.4-0.9l0.7-1.1c0.5,0.5,1,0.7,1.7,0.7c0.7,0,1.3-0.3,1.6-0.8
			c0.4-0.5,0.6-1.2,0.6-1.9v-0.2c-0.2,0.3-0.5,0.6-0.9,0.8c-0.4,0.2-0.8,0.4-1.3,0.4c-0.8,0-1.5-0.2-2-0.7c-0.5-0.5-0.8-1.1-0.8-2
			c0-0.8,0.3-1.5,0.9-2c0.6-0.5,1.3-0.8,2.2-0.8c0.8,0,1.4,0.2,2,0.6s0.9,0.9,1.1,1.5s0.3,1.3,0.3,2.2c0,1.2-0.3,2.3-1,3.1
			S211.7,105.8,210.5,105.8z M210.9,101.4c0.4,0,0.7-0.1,1-0.3c0.3-0.2,0.6-0.4,0.8-0.7c0-0.5-0.2-1-0.5-1.4
			c-0.3-0.4-0.8-0.6-1.3-0.6c-0.5,0-0.9,0.1-1.2,0.4c-0.3,0.3-0.5,0.6-0.5,1c0,0.5,0.2,0.9,0.5,1.1
			C210,101.3,210.4,101.4,210.9,101.4z"/>
		<path class="st0" d="M220.1,105.4c-0.4,0.2-0.9,0.4-1.5,0.4c-0.6,0-1.1-0.1-1.5-0.4c-0.4-0.2-0.8-0.6-1-1
			c-0.3-0.4-0.5-0.9-0.6-1.4s-0.2-1-0.2-1.6c0-0.5,0.1-1.1,0.2-1.6s0.3-1,0.6-1.4c0.3-0.4,0.6-0.7,1-1c0.4-0.2,0.9-0.4,1.5-0.4
			c0.6,0,1.1,0.1,1.5,0.4c0.4,0.2,0.8,0.6,1,1c0.3,0.4,0.5,0.9,0.6,1.4c0.1,0.5,0.2,1,0.2,1.6c0,0.5-0.1,1.1-0.2,1.6
			c-0.1,0.5-0.3,1-0.6,1.4C220.9,104.8,220.5,105.2,220.1,105.4z M217.2,103.6c0.3,0.6,0.8,0.9,1.4,0.9s1.1-0.3,1.4-0.9
			c0.3-0.6,0.5-1.3,0.5-2.2c0-0.6-0.1-1.1-0.2-1.5c-0.1-0.4-0.3-0.8-0.6-1.1s-0.6-0.4-1.1-0.4c-0.4,0-0.8,0.1-1.1,0.4
			s-0.5,0.6-0.6,1.1c-0.1,0.4-0.2,0.9-0.2,1.5C216.7,102.4,216.9,103.1,217.2,103.6z"/>
	</g>
	<g>
		<path class="st0" d="M39.7,162.3h-1.5v-6.4l-1.4,1.4l-0.9-0.9l2.4-2.4h1.3V162.3z"/>
		<path class="st0" d="M46,162.1c-0.4,0.2-0.9,0.4-1.5,0.4c-0.6,0-1.1-0.1-1.5-0.4c-0.4-0.2-0.8-0.6-1-1c-0.3-0.4-0.5-0.9-0.6-1.4
			s-0.2-1-0.2-1.6c0-0.5,0.1-1.1,0.2-1.6s0.3-1,0.6-1.4c0.3-0.4,0.6-0.7,1-1c0.4-0.2,0.9-0.4,1.5-0.4c0.6,0,1.1,0.1,1.5,0.4
			c0.4,0.2,0.8,0.6,1,1c0.3,0.4,0.5,0.9,0.6,1.4c0.1,0.5,0.2,1,0.2,1.6c0,0.5-0.1,1.1-0.2,1.6c-0.1,0.5-0.3,1-0.6,1.4
			C46.8,161.5,46.4,161.8,46,162.1z M43.1,160.3c0.3,0.6,0.8,0.8,1.4,0.8s1.1-0.3,1.4-0.8c0.3-0.6,0.5-1.3,0.5-2.2
			c0-0.6-0.1-1.1-0.2-1.5c-0.1-0.4-0.3-0.8-0.6-1.1s-0.6-0.4-1.1-0.4c-0.4,0-0.8,0.1-1.1,0.4s-0.5,0.6-0.6,1.1
			c-0.1,0.4-0.2,0.9-0.2,1.5C42.6,159,42.8,159.7,43.1,160.3z"/>
		<path class="st0" d="M50.5,161.8c0,0.4-0.1,0.8-0.3,1.2c-0.2,0.4-0.5,0.7-0.9,0.9l-0.6-0.5c0.2-0.1,0.4-0.3,0.6-0.5
			c0.2-0.2,0.3-0.4,0.3-0.6c-0.1,0-0.1,0-0.2,0c-0.2,0-0.4-0.1-0.5-0.2c-0.1-0.1-0.2-0.3-0.2-0.6s0.1-0.4,0.2-0.6s0.4-0.3,0.6-0.3
			c0.3,0,0.5,0.1,0.7,0.3C50.4,161.2,50.5,161.5,50.5,161.8z"/>
		<path class="st0" d="M54.4,162.4c-1,0-1.8-0.3-2.4-0.9l0.7-1.1c0.5,0.5,1,0.7,1.7,0.7c0.7,0,1.3-0.3,1.6-0.8
			c0.4-0.5,0.6-1.2,0.6-1.9v-0.2c-0.2,0.3-0.5,0.6-0.9,0.8c-0.4,0.2-0.8,0.4-1.3,0.4c-0.8,0-1.5-0.2-2-0.7c-0.5-0.5-0.8-1.1-0.8-2
			c0-0.8,0.3-1.5,0.9-2c0.6-0.5,1.3-0.8,2.2-0.8c0.8,0,1.4,0.2,2,0.6s0.9,0.9,1.1,1.5c0.2,0.6,0.3,1.3,0.3,2.2c0,1.2-0.3,2.3-1,3.1
			S55.6,162.4,54.4,162.4z M54.7,158.1c0.4,0,0.7-0.1,1-0.3c0.3-0.2,0.6-0.4,0.8-0.7c0-0.5-0.2-1-0.5-1.4c-0.3-0.4-0.8-0.6-1.3-0.6
			c-0.5,0-0.9,0.1-1.2,0.4c-0.3,0.3-0.5,0.6-0.5,1c0,0.5,0.2,0.9,0.5,1.1C53.9,157.9,54.3,158.1,54.7,158.1z"/>
		<path class="st0" d="M62.5,162.3H61v-6.4l-1.4,1.4l-0.9-0.9l2.4-2.4h1.3V162.3z"/>
		<path class="st0" d="M68.7,162.1c-0.4,0.2-0.9,0.4-1.5,0.4c-0.6,0-1.1-0.1-1.5-0.4c-0.4-0.2-0.8-0.6-1-1c-0.3-0.4-0.5-0.9-0.6-1.4
			s-0.2-1-0.2-1.6c0-0.5,0.1-1.1,0.2-1.6s0.3-1,0.6-1.4c0.3-0.4,0.6-0.7,1-1c0.4-0.2,0.9-0.4,1.5-0.4c0.6,0,1.1,0.1,1.5,0.4
			c0.4,0.2,0.8,0.6,1,1c0.3,0.4,0.5,0.9,0.6,1.4c0.1,0.5,0.2,1,0.2,1.6c0,0.5-0.1,1.1-0.2,1.6c-0.1,0.5-0.3,1-0.6,1.4
			C69.5,161.5,69.1,161.8,68.7,162.1z M65.8,160.3c0.3,0.6,0.8,0.8,1.4,0.8s1.1-0.3,1.4-0.8c0.3-0.6,0.5-1.3,0.5-2.2
			c0-0.6-0.1-1.1-0.2-1.5c-0.1-0.4-0.3-0.8-0.6-1.1s-0.6-0.4-1.1-0.4c-0.4,0-0.8,0.1-1.1,0.4s-0.5,0.6-0.6,1.1
			c-0.1,0.4-0.2,0.9-0.2,1.5C65.3,159,65.5,159.7,65.8,160.3z"/>
	</g>
	<g>
		<path class="st0" d="M44.5,133.4H43v-6.4l-1.4,1.4l-0.8-0.9l2.4-2.4h1.3V133.4z"/>
		<path class="st0" d="M47.8,132.9c0,0.4-0.1,0.8-0.3,1.2c-0.2,0.4-0.5,0.7-0.9,0.9l-0.6-0.5c0.2-0.1,0.4-0.3,0.6-0.5
			c0.2-0.2,0.3-0.4,0.3-0.6c-0.1,0-0.1,0-0.2,0c-0.2,0-0.4-0.1-0.5-0.2c-0.1-0.1-0.2-0.3-0.2-0.6s0.1-0.4,0.2-0.6
			c0.2-0.2,0.4-0.3,0.6-0.3c0.3,0,0.5,0.1,0.7,0.3S47.8,132.6,47.8,132.9z"/>
		<path class="st0" d="M55.1,133.4h-6v-1.2c1.7-1.3,2.9-2.3,3.6-2.9c0.6-0.6,0.9-1.2,0.9-1.8c0-0.4-0.1-0.7-0.4-0.9
			c-0.3-0.2-0.7-0.3-1.1-0.3c-0.9,0-1.7,0.3-2.2,1l-0.8-1c0.4-0.4,0.8-0.8,1.4-1c0.5-0.2,1.1-0.3,1.7-0.3c0.8,0,1.6,0.2,2.1,0.7
			c0.6,0.5,0.9,1.1,0.9,1.9c0,0.7-0.3,1.4-0.9,2.1c-0.6,0.7-1.5,1.5-2.8,2.5h3.7V133.4z"/>
		<path class="st0" d="M59.6,133.5c-1.3,0-2.4-0.4-3.1-1.3l0.8-1c0.6,0.7,1.3,1,2.2,1c0.5,0,0.9-0.1,1.2-0.4c0.3-0.3,0.5-0.6,0.5-1
			c0-0.5-0.2-0.8-0.5-1.1c-0.3-0.3-0.7-0.4-1.2-0.4c-0.7,0-1.3,0.2-1.8,0.7l-1-0.3V125h5.5v1.3h-4v2.4c0.5-0.5,1.1-0.7,1.9-0.7
			c0.7,0,1.4,0.2,1.9,0.7c0.5,0.5,0.8,1.1,0.8,2c0,0.9-0.3,1.5-0.9,2.1S60.6,133.5,59.6,133.5z"/>
		<path class="st0" d="M68.7,133.2c-0.4,0.2-0.9,0.4-1.5,0.4s-1.1-0.1-1.5-0.4s-0.8-0.6-1-1c-0.3-0.4-0.5-0.9-0.6-1.4
			c-0.1-0.5-0.2-1-0.2-1.6c0-0.5,0.1-1.1,0.2-1.6c0.1-0.5,0.3-1,0.6-1.4c0.3-0.4,0.6-0.7,1-1s0.9-0.4,1.5-0.4s1.1,0.1,1.5,0.4
			s0.8,0.6,1.1,1c0.3,0.4,0.5,0.9,0.6,1.4s0.2,1,0.2,1.6c0,0.5-0.1,1.1-0.2,1.6s-0.3,1-0.6,1.4C69.5,132.6,69.1,132.9,68.7,133.2z
			 M65.8,131.4c0.3,0.6,0.8,0.8,1.4,0.8c0.6,0,1.1-0.3,1.4-0.8s0.5-1.3,0.5-2.2c0-0.6-0.1-1.1-0.2-1.5c-0.1-0.4-0.3-0.8-0.6-1.1
			c-0.3-0.3-0.6-0.4-1.1-0.4s-0.8,0.1-1.1,0.4c-0.3,0.3-0.5,0.6-0.6,1.1c-0.1,0.4-0.2,0.9-0.2,1.5C65.3,130.1,65.5,130.8,65.8,131.4
			z"/>
	</g>
	<g>
		<path class="st0" d="M52.1,106c-0.7,0-1.3-0.1-1.9-0.4c-0.5-0.2-1-0.6-1.3-1l0.8-1c0.3,0.3,0.6,0.6,1,0.7c0.4,0.2,0.8,0.3,1.3,0.3
			c0.5,0,1-0.1,1.3-0.3s0.5-0.5,0.5-0.9c0-0.8-0.6-1.2-1.8-1.2c-0.6,0-0.9,0-1,0v-1.3c0.1,0,0.4,0,1,0c0.5,0,0.9-0.1,1.2-0.3
			c0.3-0.2,0.5-0.5,0.5-0.8c0-0.4-0.2-0.7-0.5-0.9c-0.3-0.2-0.7-0.3-1.2-0.3c-0.8,0-1.5,0.3-2.1,0.9l-0.8-0.9c0.7-0.9,1.8-1.3,3-1.3
			c0.9,0,1.6,0.2,2.2,0.6c0.5,0.4,0.8,1,0.8,1.6c0,0.5-0.2,0.9-0.5,1.3c-0.4,0.3-0.8,0.5-1.3,0.6c0.5,0,0.9,0.2,1.3,0.6
			c0.4,0.4,0.6,0.8,0.6,1.4c0,0.7-0.3,1.3-0.9,1.8C53.8,105.7,53.1,106,52.1,106z"/>
		<path class="st0" d="M59.6,106c-1.3,0-2.4-0.4-3.1-1.3l0.8-1c0.6,0.7,1.3,1,2.2,1c0.5,0,0.9-0.1,1.2-0.4c0.3-0.3,0.5-0.6,0.5-1
			c0-0.4-0.2-0.8-0.5-1.1c-0.3-0.3-0.7-0.4-1.2-0.4c-0.7,0-1.3,0.2-1.8,0.7l-1-0.3v-4.7h5.5v1.3h-4v2.4c0.5-0.5,1.1-0.7,1.9-0.7
			c0.7,0,1.4,0.2,1.9,0.7c0.5,0.5,0.8,1.1,0.8,2c0,0.9-0.3,1.5-0.9,2.1C61.3,105.7,60.6,106,59.6,106z"/>
		<path class="st0" d="M68.7,105.6c-0.4,0.2-0.9,0.4-1.5,0.4s-1.1-0.1-1.5-0.4s-0.8-0.6-1-1s-0.5-0.9-0.6-1.4
			c-0.1-0.5-0.2-1-0.2-1.6s0.1-1.1,0.2-1.6c0.1-0.5,0.3-1,0.6-1.4c0.3-0.4,0.6-0.7,1-1s0.9-0.4,1.5-0.4s1.1,0.1,1.5,0.4
			s0.8,0.6,1.1,1c0.3,0.4,0.5,0.9,0.6,1.4s0.2,1,0.2,1.6s-0.1,1.1-0.2,1.6s-0.3,1-0.6,1.4C69.5,105,69.1,105.3,68.7,105.6z
			 M65.8,103.8c0.3,0.6,0.8,0.8,1.4,0.8c0.6,0,1.1-0.3,1.4-0.8s0.5-1.3,0.5-2.2c0-0.6-0.1-1.1-0.2-1.5s-0.3-0.8-0.6-1.1
			c-0.3-0.3-0.6-0.4-1.1-0.4s-0.8,0.1-1.1,0.4c-0.3,0.3-0.5,0.6-0.6,1.1s-0.2,0.9-0.2,1.5C65.3,102.5,65.5,103.2,65.8,103.8z"/>
	</g>
	<g>
		<path class="st0" d="M43.9,75.3h-1.5v-1.9h-4v-1.2l3.4-5.3h2v5.2H45v1.3h-1.1V75.3z M42.4,72.1v-3.8l-2.5,3.8H42.4z"/>
		<path class="st0" d="M47.8,74.8c0,0.4-0.1,0.8-0.3,1.2c-0.2,0.4-0.5,0.7-0.9,0.9l-0.6-0.5c0.2-0.1,0.4-0.3,0.6-0.5
			c0.2-0.2,0.3-0.4,0.3-0.7c-0.1,0-0.1,0-0.2,0c-0.2,0-0.4-0.1-0.5-0.2C46.1,75,46,74.8,46,74.5s0.1-0.4,0.2-0.6
			c0.2-0.2,0.4-0.3,0.6-0.3c0.3,0,0.5,0.1,0.7,0.3S47.8,74.5,47.8,74.8z"/>
		<path class="st0" d="M55.1,75.3h-6v-1.1c1.7-1.3,2.9-2.3,3.6-2.9s0.9-1.2,0.9-1.8c0-0.4-0.1-0.7-0.4-0.9s-0.7-0.3-1.1-0.3
			c-0.9,0-1.7,0.3-2.2,1l-0.8-1c0.4-0.4,0.8-0.8,1.4-1c0.5-0.2,1.1-0.3,1.7-0.3c0.8,0,1.6,0.2,2.2,0.7c0.6,0.5,0.9,1.1,0.9,1.9
			c0,0.7-0.3,1.4-0.9,2.1c-0.6,0.7-1.5,1.5-2.8,2.5h3.7V75.3z"/>
		<path class="st0" d="M61.2,75.1c-0.4,0.2-0.9,0.4-1.5,0.4c-0.6,0-1.1-0.1-1.5-0.4c-0.4-0.2-0.8-0.6-1-1c-0.3-0.4-0.5-0.9-0.6-1.4
			s-0.2-1-0.2-1.6s0.1-1.1,0.2-1.6s0.3-1,0.6-1.4c0.3-0.4,0.6-0.7,1-1c0.4-0.2,0.9-0.4,1.5-0.4c0.6,0,1.1,0.1,1.5,0.4
			c0.4,0.2,0.8,0.6,1,1c0.3,0.4,0.5,0.9,0.6,1.4c0.1,0.5,0.2,1,0.2,1.6s-0.1,1.1-0.2,1.6c-0.1,0.5-0.3,1-0.6,1.4
			S61.6,74.8,61.2,75.1z M58.3,73.3c0.3,0.6,0.8,0.9,1.4,0.9s1.1-0.3,1.4-0.9c0.3-0.6,0.5-1.3,0.5-2.2c0-0.6-0.1-1.1-0.2-1.5
			c-0.1-0.4-0.3-0.8-0.6-1.1c-0.3-0.3-0.6-0.4-1.1-0.4c-0.4,0-0.8,0.1-1.1,0.4c-0.3,0.3-0.5,0.6-0.6,1.1c-0.1,0.4-0.2,0.9-0.2,1.5
			C57.8,72,58,72.7,58.3,73.3z"/>
		<path class="st0" d="M67.3,75.4c-1.3,0-2.4-0.4-3.1-1.3l0.8-1c0.6,0.7,1.3,1,2.2,1c0.5,0,0.9-0.1,1.2-0.4s0.5-0.6,0.5-1
			c0-0.5-0.2-0.8-0.5-1.1s-0.7-0.4-1.2-0.4c-0.7,0-1.3,0.2-1.8,0.7l-1-0.3v-4.7H70v1.3h-4v2.4c0.5-0.5,1.1-0.7,1.9-0.7
			c0.7,0,1.4,0.2,1.9,0.7c0.5,0.5,0.8,1.1,0.8,2c0,0.9-0.3,1.5-0.9,2.1C69,75.2,68.3,75.4,67.3,75.4z"/>
	</g>
	<g>
		<path class="st0" d="M52.4,47.2c-1.3,0-2.4-0.4-3.1-1.3l0.8-1c0.6,0.7,1.3,1,2.2,1c0.5,0,0.9-0.1,1.2-0.4s0.5-0.6,0.5-1
			c0-0.5-0.2-0.8-0.5-1.1c-0.3-0.3-0.7-0.4-1.2-0.4c-0.7,0-1.3,0.2-1.8,0.7l-1-0.3v-4.7H55V40h-4v2.4c0.5-0.5,1.1-0.7,1.9-0.7
			c0.7,0,1.4,0.2,1.9,0.7c0.5,0.5,0.8,1.1,0.8,2c0,0.9-0.3,1.5-0.9,2.1C54.1,46.9,53.3,47.2,52.4,47.2z"/>
		<path class="st0" d="M62.8,47h-6v-1.1c1.7-1.3,2.9-2.3,3.6-2.9c0.6-0.6,0.9-1.2,0.9-1.8c0-0.4-0.1-0.7-0.4-0.9
			c-0.3-0.2-0.7-0.3-1.1-0.3c-0.9,0-1.7,0.3-2.2,1l-0.8-1c0.4-0.4,0.8-0.8,1.4-1c0.5-0.2,1.1-0.3,1.7-0.3c0.9,0,1.6,0.2,2.2,0.7
			c0.6,0.5,0.9,1.1,0.9,1.9c0,0.7-0.3,1.4-0.9,2.1c-0.6,0.7-1.5,1.5-2.8,2.5h3.7V47z"/>
		<path class="st0" d="M67.3,47.2c-1.3,0-2.4-0.4-3.1-1.3l0.8-1c0.6,0.7,1.3,1,2.2,1c0.5,0,0.9-0.1,1.2-0.4s0.5-0.6,0.5-1
			c0-0.5-0.2-0.8-0.5-1.1c-0.3-0.3-0.7-0.4-1.2-0.4c-0.7,0-1.3,0.2-1.8,0.7l-1-0.3v-4.7H70V40h-4v2.4c0.5-0.5,1.1-0.7,1.9-0.7
			c0.7,0,1.4,0.2,1.9,0.7c0.5,0.5,0.8,1.1,0.8,2c0,0.9-0.3,1.5-0.9,2.1C69,46.9,68.3,47.2,67.3,47.2z"/>
	</g>
	<g>
		<path class="st0" d="M136.8,29.3c-0.7,0-1.3-0.1-1.9-0.4c-0.5-0.2-1-0.6-1.3-1l0.8-1c0.3,0.3,0.6,0.6,1,0.7
			c0.4,0.2,0.8,0.3,1.3,0.3c0.5,0,1-0.1,1.3-0.3s0.5-0.5,0.5-0.9c0-0.8-0.6-1.2-1.8-1.2c-0.6,0-0.9,0-1,0v-1.3c0.1,0,0.4,0,1,0
			c0.5,0,0.9-0.1,1.2-0.3c0.3-0.2,0.5-0.5,0.5-0.8c0-0.4-0.2-0.7-0.5-0.9c-0.3-0.2-0.7-0.3-1.2-0.3c-0.8,0-1.5,0.3-2.1,0.9l-0.8-0.9
			c0.7-0.9,1.8-1.3,3-1.3c0.9,0,1.6,0.2,2.2,0.6c0.5,0.4,0.8,1,0.8,1.6c0,0.5-0.2,0.9-0.5,1.3c-0.4,0.3-0.8,0.5-1.3,0.6
			c0.5,0,0.9,0.2,1.3,0.6c0.4,0.4,0.6,0.8,0.6,1.4c0,0.7-0.3,1.3-0.9,1.8C138.5,29.1,137.8,29.3,136.8,29.3z"/>
		<path class="st0" d="M143,28.7c0,0.4-0.1,0.8-0.3,1.2c-0.2,0.4-0.5,0.7-0.9,0.9l-0.6-0.5c0.2-0.1,0.4-0.3,0.6-0.5
			c0.2-0.2,0.3-0.4,0.3-0.6c-0.1,0-0.1,0-0.2,0c-0.2,0-0.4-0.1-0.5-0.2s-0.2-0.3-0.2-0.6c0-0.2,0.1-0.4,0.2-0.6
			c0.2-0.2,0.4-0.3,0.6-0.3c0.3,0,0.5,0.1,0.7,0.3S143,28.4,143,28.7z"/>
		<path class="st0" d="M149.4,29.2h-1.5v-1.9h-4v-1.2l3.4-5.3h2V26h1.1v1.3h-1.1V29.2z M147.9,26v-3.8l-2.5,3.8H147.9z"/>
		<path class="st0" d="M156.7,29.2h-1.5v-1.9h-4v-1.2l3.4-5.3h2V26h1.1v1.3h-1.1V29.2z M155.2,26v-3.8l-2.5,3.8H155.2z"/>
		<path class="st0" d="M163.5,29c-0.4,0.2-0.9,0.4-1.5,0.4s-1.1-0.1-1.5-0.4s-0.8-0.6-1-1s-0.5-0.9-0.6-1.4c-0.1-0.5-0.2-1-0.2-1.6
			s0.1-1.1,0.2-1.6c0.1-0.5,0.3-1,0.6-1.4c0.3-0.4,0.6-0.7,1-1s0.9-0.4,1.5-0.4s1.1,0.1,1.5,0.4s0.8,0.6,1.1,1
			c0.3,0.4,0.5,0.9,0.6,1.4s0.2,1,0.2,1.6s-0.1,1.1-0.2,1.6s-0.3,1-0.6,1.4C164.3,28.4,163.9,28.7,163.5,29z M160.6,27.2
			c0.3,0.6,0.8,0.8,1.4,0.8c0.6,0,1.1-0.3,1.4-0.8s0.5-1.3,0.5-2.2c0-0.6-0.1-1.1-0.2-1.5s-0.3-0.8-0.6-1.1
			c-0.3-0.3-0.6-0.4-1.1-0.4s-0.8,0.1-1.1,0.4c-0.3,0.3-0.5,0.6-0.6,1.1s-0.2,0.9-0.2,1.5C160.1,25.9,160.3,26.6,160.6,27.2z"/>
	</g>
	<g>
		<g>
			<path class="st4" d="M200.7,66.8c-11.3-2.7-32.2-8.7-44.4,1.6"/>
			<g>
				<path class="st2" d="M156.5,68.3c1.1,0.1,2.4,1,3.1,1.8c-1.8-0.4-3.6-0.5-5.4,0.1c0.9-1.6,1-3.5,1-5.3
					C155.9,65.8,156.6,67.1,156.5,68.3z"/>
			</g>
		</g>
	</g>
	<g>
		<g>
			<path class="st5" d="M201.8,95.6c-12.7,2.3-38.2-3.2-49.1-15.6"/>
			<g>
				<path class="st2" d="M152.7,80c0,0.1-0.1,0.3-0.2,0.4c0-0.2,0-0.4,0-0.6c0.2,0.1,0.4,0.1,0.6,0.1C153,80,152.8,80.1,152.7,80z"
					/>
			</g>
		</g>
	</g>
	<g>
		<g>
			<path class="st6" d="M78.3,151.4c11.2,0.5,28.4-1.1,40.7-10.2"/>
			<g>
				<path class="st2" d="M117.7,142.1c-5.6,0.1-12.6-4-16.7-7.7c9.1,1.2,18.6,0.5,27.2-3.2c-3.5,8.6-3.3,18.2-2.2,27.3
					C122.1,154.1,117.9,148.1,117.7,142.1z"/>
			</g>
		</g>
	</g>
	<g>
		<g>
			<path class="st7" d="M199.6,127.7c-20.5,4.7-38.5,10.6-57.5-4.7"/>
			<g>
				<path class="st2" d="M142.2,123c0,0.2-0.1,0.4-0.2,0.5c0-0.3,0-0.6-0.2-0.8c0.3,0.1,0.6,0.1,0.9,0
					C142.5,122.9,142.4,123,142.2,123z"/>
			</g>
		</g>
	</g>
	<g>
		<g>
			<path class="st8" d="M78.3,34.3c18.3,0,56.6,3.7,68.7,34.2"/>
			<g>
				<path class="st2" d="M146.8,68.3c0.3-0.7,1.2-1.4,1.9-1.7c-0.7,1.1-1.1,2.3-1.1,3.6c-0.9-0.9-2.1-1.4-3.3-1.8
					C145.1,68.1,146.1,67.9,146.8,68.3z"/>
			</g>
		</g>
	</g>
	<g>
		<g>
			<path class="st9" d="M77.1,121.6c13,1.1,37,2.8,51-7.6"/>
			<g>
				<path class="st2" d="M127.7,114.3c-1.8-0.3-3.9-2-5-3.4c2.9,0.9,6,1.1,9,0.4c-1.6,2.6-2,5.7-2.2,8.7
					C128.5,118.4,127.5,116.2,127.7,114.3z"/>
			</g>
		</g>
	</g>
	<g>
		<g>
			<path class="st10" d="M76.5,66c14.4-4,43.9-8.3,63.5,8.7"/>
			<g>
				<path class="st2" d="M139.4,74.2c-0.2-2.8,1.7-6.4,3.4-8.5c-0.4,4.6,0.2,9.3,2.3,13.5c-4.4-1.5-9.2-1.2-13.7-0.4
					C133.5,76.7,136.4,74.5,139.4,74.2z"/>
			</g>
		</g>
	</g>
	<g>
		<g>
			<path class="st11" d="M76.5,95.7c10.3-8.3,35.6-18.4,59.3-12.4"/>
			<g>
				<path class="st2" d="M135.7,83.3c-0.3-0.4-0.3-1.2-0.1-1.7c0.3,0.8,0.8,1.5,1.5,2c-0.8,0.1-1.6,0.6-2.3,1.1
					C134.9,84.1,135.2,83.5,135.7,83.3z"/>
			</g>
		</g>
	</g>
	<g>
		<g>
			<line class="st12" x1="149.6" y1="30.8" x2="149.6" y2="53.5"/>
			<g>
				<path class="st2" d="M149.6,52.9c1.4-1.4,4.3-2.1,6.3-2.2c-2.6,2-5,4.5-6.3,7.6c-1.2-3.1-3.7-5.5-6.3-7.6
					C145.5,50.9,148,51.4,149.6,52.9z"/>
			</g>
		</g>
	</g>
	<g>
		<path class="st0" d="M211.1,137.6h-1.5v-6.4l-1.4,1.4l-0.8-0.9l2.4-2.4h1.3V137.6z"/>
		<path class="st0" d="M218.6,137.6h-6v-1.2c1.7-1.3,2.9-2.3,3.6-2.9c0.6-0.6,0.9-1.2,0.9-1.8c0-0.4-0.1-0.7-0.4-0.9
			s-0.7-0.3-1.1-0.3c-0.9,0-1.7,0.3-2.2,1l-0.8-1c0.4-0.4,0.8-0.8,1.4-1c0.5-0.2,1.1-0.3,1.7-0.3c0.9,0,1.6,0.2,2.1,0.7
			c0.6,0.5,0.9,1.1,0.9,1.9c0,0.7-0.3,1.4-0.9,2.1s-1.5,1.5-2.8,2.5h3.7V137.6z"/>
		<path class="st0" d="M224.7,137.4c-0.4,0.2-0.9,0.4-1.5,0.4s-1.1-0.1-1.5-0.4s-0.8-0.6-1.1-1c-0.3-0.4-0.5-0.9-0.6-1.4
			s-0.2-1-0.2-1.6c0-0.5,0.1-1.1,0.2-1.6s0.3-1,0.6-1.4c0.3-0.4,0.6-0.7,1.1-1s0.9-0.4,1.5-0.4s1.1,0.1,1.5,0.4s0.8,0.6,1,1
			c0.3,0.4,0.5,0.9,0.6,1.4c0.1,0.5,0.2,1,0.2,1.6c0,0.5-0.1,1.1-0.2,1.6c-0.1,0.5-0.3,1-0.6,1.4
			C225.5,136.8,225.2,137.2,224.7,137.4z M221.8,135.6c0.3,0.6,0.8,0.8,1.4,0.8s1.1-0.3,1.4-0.8c0.3-0.6,0.4-1.3,0.4-2.2
			c0-0.6-0.1-1.1-0.2-1.5c-0.1-0.4-0.3-0.8-0.6-1.1s-0.6-0.4-1.1-0.4s-0.8,0.1-1.1,0.4c-0.3,0.3-0.5,0.6-0.6,1.1
			c-0.1,0.4-0.2,0.9-0.2,1.5C221.4,134.3,221.5,135.1,221.8,135.6z"/>
	</g>
</g>
</svg>
