<?xml version="1.0" encoding="utf-8"?>
<!-- Generator: Adobe Illustrator 19.2.0, SVG Export Plug-In . SVG Version: 6.00 Build 0)  -->
<svg version="1.1" id="Layer_1" xmlns="http://www.w3.org/2000/svg" xmlns:xlink="http://www.w3.org/1999/xlink" x="0px" y="0px"
	 viewBox="0 0 266.2 169.3" style="enable-background:new 0 0 266.2 169.3;" xml:space="preserve">
<style type="text/css">
	.st0{fill:#0D92FF;}
	.st1{fill:none;stroke:#00325C;stroke-width:0.36;stroke-miterlimit:10;}
	.st2{fill:#00325C;}
	.st3{fill:#787878;}
	.st4{fill:none;stroke:#00325C;stroke-width:0.815;stroke-miterlimit:10;}
	.st5{fill:none;stroke:#00325C;stroke-width:5.000000e-02;stroke-miterlimit:10;}
	.st6{fill:none;stroke:#00325C;stroke-width:2.475;stroke-miterlimit:3;}
	.st7{fill:none;stroke:#00325C;stroke-width:7.500000e-02;stroke-miterlimit:10;}
	.st8{fill:none;stroke:#00325C;stroke-width:0.355;stroke-miterlimit:10;}
	.st9{fill:none;stroke:#00325C;stroke-width:0.51;stroke-miterlimit:10;}
	.st10{fill:none;stroke:#00325C;stroke-width:1.195;stroke-miterlimit:10;}
	.st11{fill:none;stroke:#00325C;stroke-width:7.000000e-02;stroke-miterlimit:10;}
	.st12{fill:none;stroke:#00325C;stroke-width:0.3;stroke-miterlimit:10;}
</style>
<g>
	<path class="st0" d="M142.5,137.9L142.5,137.9L142.5,137.9L142.5,137.9L142.5,137.9l0.1-0.1L142.5,137.9L142.5,137.9L142.5,137.9
		L142.5,137.9L142.5,137.9z M142.8,139.2L142.8,139.2L142.8,139.2L142.8,139.2l0.1-0.1L142.8,139.2l0.1-0.1L142.8,139.2L142.8,139.2
		L142.8,139.2L142.8,139.2L142.8,139.2L142.8,139.2L142.8,139.2L142.8,139.2L142.8,139.2z M142.4,139.2L142.4,139.2l0,0.1
		L142.4,139.2L142.4,139.2L142.4,139.2L142.4,139.2L142.4,139.2L142.4,139.2z M142.5,139.6L142.5,139.6L142.5,139.6L142.5,139.6
		L142.5,139.6L142.5,139.6L142.5,139.6l-0.1,0.1l0,0.1l0,0l0.1,0l0,0l0-0.1l0,0L142.5,139.6L142.5,139.6L142.5,139.6L142.5,139.6z
		 M120.8,144L120.8,144L120.8,144L120.8,144L120.8,144l-0.1,0l0,0l0,0l0,0l0,0l0,0.1l0,0l0,0l0,0l0,0l0,0l0,0l0,0L120.8,144
		L120.8,144L120.8,144z M141.4,145.1L141.4,145.1l0.1,0.1l0,0L141.4,145.1L141.4,145.1l0-0.1L141.4,145.1L141.4,145.1z M141.8,147.1
		L141.8,147.1L141.8,147.1L141.8,147.1L141.8,147.1L141.8,147.1z M141,148.3L141,148.3L141,148.3l0.1,0l0,0l0,0l0,0l0.1,0l0,0l0,0
		l-0.1,0L141,148.3l0-0.1l0,0L141,148.3L141,148.3L141,148.3L141,148.3z M136,155.5L136,155.5L136,155.5v-0.1V155.5z M134.3,155.7
		L134.3,155.7L134.3,155.7L134.3,155.7L134.3,155.7L134.3,155.7L134.3,155.7L134.3,155.7L134.3,155.7z M137.7,156.4L137.7,156.4
		L137.7,156.4L137.7,156.4L137.7,156.4L137.7,156.4L137.7,156.4L137.7,156.4L137.7,156.4L137.7,156.4l0,0.1L137.7,156.4L137.7,156.4
		L137.7,156.4L137.7,156.4z M133.7,156.5L133.7,156.5L133.7,156.5l0,0.1h0L133.7,156.5L133.7,156.5L133.7,156.5z M159.5,91.1
		L159.5,91.1L159.5,91.1L159.5,91.1L159.5,91.1L159.5,91.1L159.5,91.1z M158.2,91.1L158.2,91.1L158.2,91.1L158.2,91.1L158.2,91.1
		L158.2,91.1L158.2,91.1L158.2,91.1z M157.7,91.2L157.7,91.2l0,0.2h0l0,0l0,0L157.7,91.2L157.7,91.2L157.7,91.2z M157.7,91.7
		L157.7,91.7l0,0.1l0,0l0,0l0,0l0,0.1L157.7,91.7L157.7,91.7L157.7,91.7z M156.5,92.5L156.5,92.5L156.5,92.5l0,0.1L156.5,92.5
		L156.5,92.5L156.5,92.5z M154.8,93.5L154.8,93.5L154.8,93.5L154.8,93.5l-0.1,0.1l0,0l0,0.1l0-0.1L154.8,93.5L154.8,93.5z
		 M154.8,94.1l0,0.1L154.8,94.1L154.8,94.1L154.8,94.1L154.8,94.1z M153.2,94.4L153.2,94.4l0-0.1L153.2,94.4l0,0.1l0,0l0,0l0,0l0,0
		l0.1,0l0-0.1L153.2,94.4L153.2,94.4z M152.8,94.5L152.8,94.5L152.8,94.5L152.8,94.5L152.8,94.5L152.8,94.5L152.8,94.5L152.8,94.5z
		 M151.9,96.2L151.9,96.2L151.9,96.2l0-0.1l0,0L151.9,96.2L151.9,96.2z M150.6,96.9L150.6,96.9L150.6,96.9L150.6,96.9l0.1,0
		L150.6,96.9L150.6,96.9L150.6,96.9z M150.4,97.3L150.4,97.3L150.4,97.3l0.1-0.1L150.4,97.3L150.4,97.3z M166.9,71.3L166.9,71.3
		l0,0.2l0,0L166.9,71.3L166.9,71.3z M166.8,71.4L166.8,71.4l0,0.1l0.1,0.1l0,0L166.8,71.4L166.8,71.4z M172.6,71.5L172.6,71.5
		L172.6,71.5l0,0.1L172.6,71.5L172.6,71.5L172.6,71.5L172.6,71.5L172.6,71.5L172.6,71.5z M172.7,71.6L172.7,71.6L172.7,71.6l0-0.1
		l-0.1,0L172.7,71.6z M169.9,71.6L169.9,71.6L169.9,71.6L169.9,71.6L169.9,71.6L169.9,71.6L169.9,71.6L169.9,71.6L169.9,71.6
		L169.9,71.6L169.9,71.6z M168.8,71.5L168.8,71.5L168.8,71.5l0,0.1l0,0l0,0l0,0L168.8,71.5L168.8,71.5z M171.9,71.6L171.9,71.6
		L171.9,71.6L171.9,71.6L171.9,71.6L171.9,71.6L171.9,71.6z M169.5,71.9L169.5,71.9L169.5,71.9L169.5,71.9L169.5,71.9z M171.6,71.9
		L171.6,71.9L171.6,71.9L171.6,71.9L171.6,71.9L171.6,71.9z M168.8,72L168.8,72L168.8,72L168.8,72L168.8,72L168.8,72l0-0.1l0,0l0,0
		l0,0l0,0L168.8,72L168.8,72L168.8,72l-0.1-0.1l0,0l0,0l0,0l0,0L168.8,72L168.8,72L168.8,72L168.8,72z M169.7,71.9L169.7,71.9
		L169.7,71.9L169.7,71.9l-0.1,0.1l0,0l0,0l0,0l0,0L169.7,71.9L169.7,71.9L169.7,71.9z M172.3,72L172.3,72L172.3,72L172.3,72
		L172.3,72L172.3,72L172.3,72z M170.2,72.2l-0.1-0.1L170.2,72.2L170.2,72.2L170.2,72.2l0,0.1l0,0L170.2,72.2L170.2,72.2z
		 M168.6,72.2L168.6,72.2L168.6,72.2L168.6,72.2L168.6,72.2L168.6,72.2z M168.7,72.3L168.7,72.3L168.7,72.3L168.7,72.3L168.7,72.3
		L168.7,72.3z M172.8,72.4L172.8,72.4l-0.1-0.1l-0.1,0l0,0L172.8,72.4L172.8,72.4L172.8,72.4L172.8,72.4l0,0.1l0,0L172.8,72.4
		L172.8,72.4L172.8,72.4z M172.6,72.5L172.6,72.5L172.6,72.5L172.6,72.5l-0.1-0.1l0,0.1L172.6,72.5L172.6,72.5L172.6,72.5z
		 M167.5,72.7L167.5,72.7L167.5,72.7L167.5,72.7L167.5,72.7L167.5,72.7L167.5,72.7L167.5,72.7L167.5,72.7L167.5,72.7z M166.7,72.7
		L166.7,72.7L166.7,72.7L166.7,72.7l-0.1,0.1l0.1,0l0.1,0L166.7,72.7L166.7,72.7L166.7,72.7z M172.5,72.8L172.5,72.8L172.5,72.8
		l0.1,0.1l0,0l0,0L172.5,72.8L172.5,72.8L172.5,72.8z M168,72.8L168,72.8L168,72.8L168,72.8L168,72.8l-0.1,0l0,0L168,72.8l0,0.1l0,0
		l0,0l0,0L168,72.8L168,72.8z M172.7,72.8L172.7,72.8L172.7,72.8L172.7,72.8L172.7,72.8z M171.4,72.8L171.4,72.8L171.4,72.8
		L171.4,72.8l0,0.1l0,0l0,0l0,0l0,0L171.4,72.8L171.4,72.8z M167,73L167,73L167,73l0-0.1l0,0l0,0l0,0l0,0l0,0l0,0.1L167,73L167,73z
		 M172,72.9L172,72.9L172,72.9L172,72.9L172,72.9z M170.2,73L170.2,73L170.2,73L170.2,73L170.2,73z M172.2,73L172.2,73L172.2,73
		L172.2,73L172.2,73z M167.8,73L167.8,73L167.8,73L167.8,73L167.8,73L167.8,73L167.8,73L167.8,73l0,0.1l0,0l0,0L167.8,73L167.8,73z
		 M171.3,73.1L171.3,73.1L171.3,73.1l-0.1-0.2l0,0l0,0l0,0.1L171.3,73.1L171.3,73.1L171.3,73.1L171.3,73.1L171.3,73.1L171.3,73.1
		L171.3,73.1z M167.1,73.3L167.1,73.3L167.1,73.3L167.1,73.3L167.1,73.3z M172.2,73.5L172.2,73.5L172.2,73.5L172.2,73.5L172.2,73.5
		L172.2,73.5L172.2,73.5L172.2,73.5L172.2,73.5z M172.9,73.4L172.9,73.4L172.9,73.4L172.9,73.4L172.9,73.4L172.9,73.4z M171.3,73.5
		L171.3,73.5L171.3,73.5L171.3,73.5L171.3,73.5z M170.2,74.3L170.2,74.3L170.2,74.3L170.2,74.3L170.2,74.3L170.2,74.3L170.2,74.3
		L170.2,74.3L170.2,74.3L170.2,74.3z M165.4,71.6L165.4,71.6L165.4,71.6L165.4,71.6L165.4,71.6l-0.1-0.1L165.4,71.6L165.4,71.6
		L165.4,71.6L165.4,71.6L165.4,71.6z M165.7,71.9L165.7,71.9L165.7,71.9L165.7,71.9L165.7,71.9z M166.1,72.2L166.1,72.2L166.1,72.2
		L166.1,72.2L166.1,72.2z M166,72.3L166,72.3L166,72.3L166,72.3L166,72.3L166,72.3L166,72.3L166,72.3z M165.6,72.7L165.6,72.7
		L165.6,72.7L165.6,72.7l0.1,0.1L165.6,72.7L165.6,72.7L165.6,72.7L165.6,72.7L165.6,72.7z M165.5,73L165.5,73L165.5,73L165.5,73
		L165.5,73L165.5,73z M165.7,73.2L165.7,73.2l0,0.1l0,0L165.7,73.2z M165.2,73.5L165.2,73.5L165.2,73.5l0-0.1l0,0L165.2,73.5
		L165.2,73.5L165.2,73.5L165.2,73.5z M165.5,74.2L165.5,74.2L165.5,74.2L165.5,74.2L165.5,74.2L165.5,74.2L165.5,74.2z M163.8,74.6
		L163.8,74.6L163.8,74.6L163.8,74.6L163.8,74.6L163.8,74.6l-0.1-0.1l0,0l0,0l0,0l0,0l0,0l0,0l0,0L163.8,74.6L163.8,74.6L163.8,74.6
		L163.8,74.6L163.8,74.6L163.8,74.6z M163.9,74.6L163.9,74.6L163.9,74.6l0.1,0.1L163.9,74.6L163.9,74.6z M166.4,74.8L166.4,74.8
		l0.1,0.1L166.4,74.8L166.4,74.8L166.4,74.8z M166.2,75L166.2,75L166.2,75L166.2,75L166.2,75L166.2,75l0.1,0L166.2,75L166.2,75z
		 M162.9,75.8L162.9,75.8L162.9,75.8L162.9,75.8l0-0.1l0,0l0,0L162.9,75.8L162.9,75.8z M163.3,76.1L163.3,76.1L163.3,76.1l-0.1,0
		l0,0l0,0l0,0H163.3L163.3,76.1L163.3,76.1L163.3,76.1L163.3,76.1L163.3,76.1L163.3,76.1L163.3,76.1z M165.2,76.4L165.2,76.4
		L165.2,76.4L165.2,76.4L165.2,76.4L165.2,76.4L165.2,76.4L165.2,76.4z M163.5,76.8L163.5,76.8L163.5,76.8L163.5,76.8L163.5,76.8
		L163.5,76.8L163.5,76.8z M163.2,77.5L163.2,77.5l0,0.1l0.1,0.1l0,0L163.2,77.5L163.2,77.5z M163.4,77.7L163.4,77.7L163.4,77.7
		l0.1,0.1l0-0.1L163.4,77.7L163.4,77.7z M162.3,78L162.3,78L162.3,78l-0.1,0.1l0,0l0,0.1l0.1,0l0,0l0,0l0-0.1L162.3,78z M162.5,78.2
		L162.5,78.2L162.5,78.2L162.5,78.2l-0.1,0.1l0,0l0.1,0L162.5,78.2L162.5,78.2L162.5,78.2z M161.9,78.7L161.9,78.7L161.9,78.7
		L161.9,78.7L161.9,78.7L161.9,78.7l0.2,0l0-0.1l-0.1-0.1L161.9,78.7L161.9,78.7L161.9,78.7L161.9,78.7z M161.6,83.5L161.6,83.5
		L161.6,83.5L161.6,83.5L161.6,83.5L161.6,83.5L161.6,83.5z M160,87.4L160,87.4L160,87.4L160,87.4L160,87.4z M152.8,127.5
		L152.8,127.5L152.8,127.5L152.8,127.5z M151.8,127.7L151.8,127.7L151.8,127.7L151.8,127.7L151.8,127.7z M151.7,127.8L151.7,127.8
		L151.7,127.8L151.7,127.8L151.7,127.8L151.7,127.8l0,0.1L151.7,127.8L151.7,127.8L151.7,127.8L151.7,127.8z M151.3,127.9
		L151.3,127.9L151.3,127.9L151.3,127.9L151.3,127.9L151.3,127.9L151.3,127.9L151.3,127.9L151.3,127.9L151.3,127.9L151.3,127.9
		L151.3,127.9L151.3,127.9z M152.2,128.3L152.2,128.3L152.2,128.3L152.2,128.3L152.2,128.3z M151.8,129.2L151.8,129.2L151.8,129.2
		L151.8,129.2L151.8,129.2L151.8,129.2L151.8,129.2L151.8,129.2z M152.1,129.7L152.1,129.7L152.1,129.7l0-0.1L152.1,129.7
		L152.1,129.7L152.1,129.7L152.1,129.7L152.1,129.7L152.1,129.7z M153.2,129.6L153.2,129.6L153.2,129.6L153.2,129.6L153.2,129.6
		L153.2,129.6z M149.4,131.4L149.4,131.4L149.4,131.4L149.4,131.4l0.1,0l0-0.1L149.4,131.4L149.4,131.4z M148.6,131.4L148.6,131.4
		L148.6,131.4L148.6,131.4L148.6,131.4L148.6,131.4z M149.4,132.2L149.4,132.2l0,0.1L149.4,132.2L149.4,132.2L149.4,132.2
		L149.4,132.2z M150.1,132.4L150.1,132.4L150.1,132.4L150.1,132.4L150.1,132.4l0-0.1L150.1,132.4L150.1,132.4L150.1,132.4
		L150.1,132.4L150.1,132.4L150.1,132.4L150.1,132.4L150.1,132.4L150.1,132.4z M149.4,132.6L149.4,132.6L149.4,132.6L149.4,132.6
		L149.4,132.6l0.1-0.1l0-0.1l-0.1,0l0,0l0,0L149.4,132.6L149.4,132.6L149.4,132.6L149.4,132.6z M147.6,132.9L147.6,132.9
		L147.6,132.9L147.6,132.9l0.1,0L147.6,132.9l0-0.1l0,0l0,0l0,0l-0.1,0L147.6,132.9L147.6,132.9L147.6,132.9z M145.7,134.5
		L145.7,134.5L145.7,134.5L145.7,134.5L145.7,134.5L145.7,134.5l0,0.1l0,0l0,0L145.7,134.5L145.7,134.5L145.7,134.5z M146.3,135.1
		L146.3,135.1l0,0.1l0,0.1l0,0l0,0l0,0L146.3,135.1L146.3,135.1L146.3,135.1z M165.7,71.5L165.7,71.5L165.7,71.5L165.7,71.5l0-0.1
		l0-0.1l0,0L165.7,71.5L165.7,71.5L165.7,71.5L165.7,71.5L165.7,71.5z M166.3,71.8L166.3,71.8L166.3,71.8L166.3,71.8l0-0.1l0,0l0,0
		l0,0l0,0L166.3,71.8L166.3,71.8L166.3,71.8L166.3,71.8L166.3,71.8z M169,72L169,72L169,72L169,72L169,72l0.1-0.1l0,0l-0.1,0L169,72
		L169,72L169,72z M169.1,72.2L169.1,72.2l-0.1-0.2l0,0l0,0l-0.1,0l-0.1,0l0,0.1l0,0l0,0l0,0l0,0l0,0l0,0l0,0l0,0l0,0l0,0l0,0l0,0
		l0,0l0,0l0,0l0,0l0,0l0,0l0,0l0,0l0-0.1l0,0l0-0.1l0,0L169.1,72.2L169.1,72.2L169.1,72.2L169.1,72.2L169.1,72.2l0,0.1l0,0
		L169.1,72.2L169.1,72.2L169.1,72.2z M170,72.3L170,72.3L170,72.3l-0.1-0.1l0,0l0,0l0,0v0l0,0l0,0.1l0,0L170,72.3L170,72.3l-0.1,0.1
		l0,0l0,0l0,0l0,0L170,72.3L170,72.3L170,72.3z M165.4,72.5L165.4,72.5L165.4,72.5L165.4,72.5l0.1-0.1l0,0l0,0l0,0l0,0l0,0
		L165.4,72.5L165.4,72.5L165.4,72.5z M172.1,72.6L172.1,72.6L172.1,72.6l-0.2,0l0,0l0,0l0,0l0,0l0,0l0,0l0,0l0.1,0L172.1,72.6
		L172.1,72.6L172.1,72.6L172.1,72.6z M166.2,72.9L166.2,72.9L166.2,72.9L166.2,72.9l0.2,0l0,0l0,0l0-0.1l0-0.1l0-0.1l0,0l0,0l0,0
		l0,0l0,0l0,0l0,0.1L166.2,72.9L166.2,72.9L166.2,72.9z M168.2,72.8L168.2,72.8L168.2,72.8L168.2,72.8L168.2,72.8L168.2,72.8l-0.1,0
		l0,0l0,0l0,0l0,0l0.1,0l0,0l0,0L168.2,72.8L168.2,72.8L168.2,72.8z M166.3,73.1L166.3,73.1L166.3,73.1l0,0.1l0,0l0,0l0.1,0l0-0.1
		L166.3,73.1L166.3,73.1z M165.5,73.4L165.5,73.4L165.5,73.4L165.5,73.4L165.5,73.4L165.5,73.4L165.5,73.4L165.5,73.4l0-0.1l0,0
		L165.5,73.4L165.5,73.4L165.5,73.4z M171,73.7l0-0.1l0-0.1h0l0,0.1L171,73.7L171,73.7L171,73.7L171,73.7L171,73.7l-0.1,0.1l0,0l0,0
		l0,0l0,0l0,0h0l0,0l0,0l0,0l0,0l0,0l0,0l0,0v-0.1l0-0.1L171,73.7z M167,74L167,74L167,74l0.1,0L167,74l0.1-0.2l0,0l0,0l0,0l0,0
		L167,74L167,74z M166.6,74.1L166.6,74.1l-0.1-0.1l0,0.1l0,0.1l0,0.1l0,0l0.1,0L166.6,74.1L166.6,74.1L166.6,74.1z M167,74.1
		L167,74.1L167,74.1l-0.2-0.1l0,0l0,0.1L167,74.1L167,74.1L167,74.1L167,74.1l0,0.1l0,0l0,0l0,0l0,0l0,0l0-0.1l0,0l0,0l0,0l0-0.1
		L167,74.1L167,74.1z M165.3,74.5L165.3,74.5l0-0.2l0,0l0,0l-0.1-0.1l0,0l0.1,0.1l0.1,0.1l0,0.1L165.3,74.5L165.3,74.5L165.3,74.5z
		 M166.6,74.3L166.6,74.3l0.1,0.1l0-0.1L166.6,74.3L166.6,74.3z M164.2,74.6L164.2,74.6L164.2,74.6L164.2,74.6l0-0.1l-0.1,0l-0.1,0
		l0,0v0.1l0,0l0,0l0,0.1L164.2,74.6L164.2,74.6L164.2,74.6L164.2,74.6L164.2,74.6L164.2,74.6z M166.1,74.6L166.1,74.6L166.1,74.6
		l-0.1-0.1l0,0l0,0l0,0l0,0h0l0,0l0,0.1l0,0.1l0,0l0,0l0,0l0,0l0,0l0,0l0,0l0.1,0l0.1,0l0,0L166.1,74.6L166.1,74.6z M166.7,74.6
		L166.7,74.6l-0.1-0.1l-0.1,0l0,0l0,0.1L166.7,74.6L166.7,74.6L166.7,74.6z M166.8,74.6L166.8,74.6L166.8,74.6L166.8,74.6l-0.1,0.1
		l0,0l0,0l0,0l0,0l0,0l0,0l0,0l0,0l0,0l0,0L166.8,74.6L166.8,74.6L166.8,74.6L166.8,74.6z M164.2,75.2L164.2,75.2L164.2,75.2l0,0.1
		l0,0l0,0.1l0,0l0-0.1l0,0l0,0L164.2,75.2L164.2,75.2L164.2,75.2z M163.9,75.4L163.9,75.4L163.9,75.4l-0.1,0.1l0,0.1l0,0l0,0l0,0
		L163.9,75.4L163.9,75.4L163.9,75.4L163.9,75.4z M165.9,75.5L165.9,75.5l-0.1,0l0,0L165.9,75.5l-0.1,0.1l0,0l0,0l0,0l0,0l0,0l0,0
		L165.9,75.5L165.9,75.5L165.9,75.5z M162.7,76L162.7,76L162.7,76l0.1,0.1l0.1,0l0.1,0l0-0.1l0,0l0-0.1l0,0l0-0.1l-0.1-0.1l-0.1-0.1
		l0,0l0,0l-0.1,0l0,0l0,0l0,0l0,0l0,0l-0.1,0l0,0l0,0l0,0l0,0l0,0l0,0l0,0l0,0l0.1,0l0,0l0-0.1l0,0l0,0l0,0l0,0l0,0L162.7,76
		L162.7,76L162.7,76z M163.8,75.7L163.8,75.7L163.8,75.7l-0.1-0.1l-0.1,0l0,0.1l0,0.1l0.1,0.1l0.1,0l0,0L163.8,75.7L163.8,75.7z
		 M165.5,75.8L165.5,75.8L165.5,75.8l-0.1-0.1l0-0.1l0,0l0,0.1l0.1,0.1L165.5,75.8L165.5,75.8l0,0.1l0,0.1l0,0l0,0l0,0L165.5,75.8
		L165.5,75.8L165.5,75.8z M165.6,75.7L165.6,75.7L165.6,75.7l0.1,0.1L165.6,75.7L165.6,75.7L165.6,75.7L165.6,75.7z M165.7,75.9
		L165.7,75.9L165.7,75.9L165.7,75.9l-0.1,0.1l0,0L165.7,75.9L165.7,75.9L165.7,75.9L165.7,75.9z M162.8,76.2L162.8,76.2L162.8,76.2
		l-0.1,0l0,0.1l0.1,0.1l0.1,0.1l0.1,0l0-0.1L162.8,76.2L162.8,76.2z M163.1,77L163.1,77L163.1,77l-0.1-0.1l0,0l0,0l0,0l-0.1,0l0,0
		l-0.1,0l0,0l0,0.1l0.1,0.1l0.1,0l0,0l0,0l0,0L163.1,77l0,0.1l0,0.1l0,0l0-0.1L163.1,77L163.1,77z M163.1,77.5L163.1,77.5
		L163.1,77.5l0-0.1l0,0l0,0l0,0l0,0l0,0l0,0l0,0l0,0l0,0l0,0l0,0l0,0l0,0.1l0,0.1l0.1,0.1l0.1,0.1L163.1,77.5L163.1,77.5l0,0.1l0,0
		l0,0L163.1,77.5L163.1,77.5z M160.7,80.6L160.7,80.6l-0.1-0.1l0,0l0,0.1l0,0.1l0,0.1l0,0.1l0,0l0,0l0,0l0-0.1L160.7,80.6
		L160.7,80.6z M160.1,82.7l0.2,0.1l0,0l0,0l0,0l0-0.1l0-0.1l0,0l0,0l0,0.1L160.1,82.7L160.1,82.7l0-0.1l0,0l0-0.1l-0.1-0.1l-0.1,0
		l0,0l0,0.1l0,0L160.1,82.7L160.1,82.7L160.1,82.7z M158.6,92.9L158.6,92.9l0,0.1l0,0L158.6,92.9L158.6,92.9l-0.1,0.1l0,0.1l0,0
		l0.1,0l0,0l0,0l0,0L158.6,92.9L158.6,92.9L158.6,92.9L158.6,92.9L158.6,92.9z M149.8,97.5L149.8,97.5l0-0.1l0-0.1l0,0l0,0l0,0.1
		L149.8,97.5L149.8,97.5L149.8,97.5z M150.3,97.3l-0.1,0l0,0l0,0l0,0L150.3,97.3L150.3,97.3L150.3,97.3z M150.2,97.5L150.2,97.5
		L150.2,97.5L150.2,97.5L150.2,97.5z M150,97.8L150,97.8L150,97.8l0,0.1l0,0.1l0,0V98L150,97.8L150,97.8L150,97.8z M149.5,98.2
		L149.5,98.2L149.5,98.2l0-0.1l0-0.1l0,0l0,0.1L149.5,98.2L149.5,98.2L149.5,98.2z M149,98.4L149,98.4L149,98.4L149,98.4l0.1,0
		l0.1-0.1l0,0l0-0.1l0-0.1l0,0l0,0l-0.1,0l0,0l0-0.1l-0.1,0.1l0,0.1l0,0.1L149,98.4L149,98.4L149,98.4L149,98.4z M149.7,98.7
		L149.7,98.7l0-0.2l0-0.1l0,0l-0.1,0.1l0,0l0,0.2l0,0L149.7,98.7L149.7,98.7z M146.4,99.5L146.4,99.5L146.4,99.5l0,0.1l0,0
		L146.4,99.5L146.4,99.5L146.4,99.5L146.4,99.5z M148.2,100.2L148.2,100.2l0-0.1L148.2,100.2L148.2,100.2z M147,100.8L147,100.8
		l0-0.1l-0.1,0l-0.2,0l0,0l0,0.1l0.1,0.2l0,0L147,100.8L147,100.8L147,100.8z M147.8,100.7l-0.1,0.1l0,0l0,0.1l0,0L147.8,100.7
		L147.8,100.7L147.8,100.7L147.8,100.7L147.8,100.7z M147.2,101.7l-0.2,0l0,0l0,0l0,0l0.3,0.2l0-0.1l0-0.1L147.2,101.7L147.2,101.7
		L147.2,101.7L147.2,101.7z M146.5,103.2L146.5,103.2L146.5,103.2L146.5,103.2z M145.7,105.7L145.7,105.7l-0.1,0.2l0,0.1l0,0.1
		l0.1,0l0,0l0,0l0,0l0.1-0.1l0,0l0,0l0,0L145.7,105.7L145.7,105.7z M145,108.1L145,108.1l-0.1,0l-0.1,0l0,0l0,0.1l0,0L145,108.1
		L145,108.1L145,108.1z M144.7,108.2L144.7,108.2L144.7,108.2L144.7,108.2L144.7,108.2L144.7,108.2L144.7,108.2L144.7,108.2z
		 M145,110.2L145,110.2L145,110.2L145,110.2L145,110.2L145,110.2l0-0.1l-0.1,0L145,110.2L145,110.2L145,110.2z M144,111.5L144,111.5
		l-0.1-0.1l0,0l0,0l0,0l0,0l0,0.1l0,0h0l0.1,0L144,111.5L144,111.5L144,111.5L144,111.5z M144.5,111.7l-0.2,0l-0.1,0l0,0.1l0,0.1
		l0,0.1l0,0l0,0l0,0l0,0l0,0l0,0l0,0l0,0l0.2,0l0,0l0-0.1L144.5,111.7L144.5,111.7z M144,115.2L144,115.2L144,115.2L144,115.2
		l0.1-0.1l0,0l0,0l0,0l0,0l0,0l0,0L144,115.2L144,115.2L144,115.2z M143.8,116.2L143.8,116.2L143.8,116.2l0-0.1l0,0l0,0l0,0l0,0
		l0,0.1l0,0.1l0,0l0,0L143.8,116.2L143.8,116.2L143.8,116.2L143.8,116.2L143.8,116.2L143.8,116.2z M144,118.3L144,118.3L144,118.3
		L144,118.3l0.1,0.1h0l0.1,0l0,0l0,0l-0.1,0l0,0l0,0L144,118.3L144,118.3L144,118.3L144,118.3z M148.7,120.7L148.7,120.7
		L148.7,120.7l0-0.1l0,0l0,0l0,0l-0.1,0l-0.1,0l0,0l0,0L148.7,120.7L148.7,120.7z M149.6,122.7L149.6,122.7l-0.1-0.1l0,0l0,0l0,0.1
		l0,0l0.1,0L149.6,122.7L149.6,122.7L149.6,122.7L149.6,122.7z M149.2,123.3L149.2,123.3l-0.2-0.1l-0.2,0l0.1,0.2l0.2,0.1l0.1,0l0,0
		L149.2,123.3L149.2,123.3L149.2,123.3L149.2,123.3z M149.4,123.2L149.4,123.2L149.4,123.2L149.4,123.2L149.4,123.2L149.4,123.2
		L149.4,123.2l0,0.1l0,0l0,0l0,0l0,0l0,0l0,0l0.1,0l0-0.1l0,0L149.4,123.2L149.4,123.2z M151.7,126.1L151.7,126.1L151.7,126.1
		l-0.1,0.1l-0.1,0.1l0,0l0,0l0,0l0,0l0,0l0.1-0.1l0,0L151.7,126.1L151.7,126.1L151.7,126.1z M151.5,126.8L151.5,126.8L151.5,126.8
		L151.5,126.8L151.5,126.8l0.1,0l0,0l0,0L151.5,126.8L151.5,126.8z M151.8,126.9L151.8,126.9L151.8,126.9L151.8,126.9L151.8,126.9
		l0.1,0.1L151.8,126.9l0.1,0l0,0l0,0l0,0L151.8,126.9L151.8,126.9L151.8,126.9L151.8,126.9z M151.7,127.1l-0.1,0l0,0l0,0v0l0,0.1
		l0.1,0L151.7,127.1L151.7,127.1L151.7,127.1L151.7,127.1z M150.6,127.7L150.6,127.7l-0.2,0l0,0.1l0,0l0,0l0.1,0l0.1,0h0l0,0
		L150.6,127.7L150.6,127.7L150.6,127.7L150.6,127.7L150.6,127.7L150.6,127.7L150.6,127.7L150.6,127.7z M152,127.8L152,127.8
		L152,127.8L152,127.8L152,127.8L152,127.8L152,127.8L152,127.8L152,127.8L152,127.8L152,127.8L152,127.8z M151.7,128.5L151.7,128.5
		L151.7,128.5l0.1,0l0,0l0,0l0,0l0,0l0,0l0,0L151.7,128.5L151.7,128.5z M151.2,128.6L151.2,128.6l0.1,0.1l0,0l0.1-0.1l0,0l0,0l0,0
		l0,0L151.2,128.6L151.2,128.6z M150,129.4L150,129.4L150,129.4l-0.1,0l0,0L150,129.4l0.4,0l0,0l0,0l0,0l-0.1,0l0,0l0,0l0,0l0,0l0,0
		L150,129.4L150,129.4z M150,129.5L150,129.5L150,129.5l-0.1,0l0,0l0,0l0,0l-0.1,0l-0.1,0.1l0,0.1l0,0l0.1,0l0,0l0,0l0,0l0.1,0l0,0
		L150,129.5l-0.1,0.1l0,0L150,129.5L150,129.5z M148.2,129.8L148.2,129.8l0.2-0.1l0-0.1l-0.1-0.1l-0.1,0l0,0l0,0l0,0L148.2,129.8
		L148.2,129.8L148.2,129.8L148.2,129.8z M151.2,129.8L151.2,129.8L151.2,129.8L151.2,129.8L151.2,129.8z M148.6,129.9L148.6,129.9
		L148.6,129.9L148.6,129.9L148.6,129.9l-0.1-0.1l0,0l0,0.2L148.6,129.9l0.1,0.1l0,0L148.6,129.9L148.6,129.9L148.6,129.9z
		 M151,129.9L151,129.9L151,129.9L151,129.9L151,129.9l0-0.1l0,0l0,0l0,0l0,0l0,0.1L151,129.9L151,129.9L151,129.9z M150.7,130.4
		L150.7,130.4L150.7,130.4L150.7,130.4L150.7,130.4L150.7,130.4L150.7,130.4L150.7,130.4l-0.1-0.1l0,0.1l0,0.1l0,0.1l0,0l0,0l0,0
		l0.1,0L150.7,130.4L150.7,130.4L150.7,130.4L150.7,130.4L150.7,130.4z M150.6,130.8L150.6,130.8L150.6,130.8L150.6,130.8
		L150.6,130.8L150.6,130.8L150.6,130.8L150.6,130.8z M150.8,131L150.8,131L150.8,131L150.8,131l0-0.1l0,0l0,0l0,0l-0.1,0l0,0
		L150.8,131L150.8,131z M149.6,131.8L149.6,131.8L149.6,131.8l0.1-0.1l0,0l0,0l0,0l0,0L149.6,131.8z M149.2,132.8L149.2,132.8
		L149.2,132.8L149.2,132.8L149.2,132.8L149.2,132.8L149.2,132.8l-0.1,0l0,0l0,0.2l0.1,0l0,0l0-0.1l0-0.1L149.2,132.8L149.2,132.8z
		 M147,133.5l-0.1,0.2l0,0.1l0,0l0,0l0,0l0,0l0,0l0-0.1l0,0l0,0l0,0L147,133.5L147,133.5L147,133.5L147,133.5L147,133.5L147,133.5
		L147,133.5L147,133.5z M147.8,133.7L147.8,133.7L147.8,133.7L147.8,133.7L147.8,133.7l-0.2,0l0,0l0,0v0l0,0.1l0,0l0,0l0,0.1l0,0
		l0,0l0,0l0,0L147.8,133.7L147.8,133.7z M117.8,134.2L117.8,134.2L117.8,134.2L117.8,134.2L117.8,134.2l0-0.1l0,0l-0.1,0l0,0l0,0
		l0,0l0-0.1l0,0l0,0l0,0l0,0l0,0l0,0l0,0l0,0l0,0l0,0.1l0,0l0,0l0,0l0,0l0,0l0,0.1l0,0l0,0l0,0l0,0l0,0l0,0l0,0l0,0l0,0l0.1,0l0,0
		l0,0l0,0l0,0l0,0l0,0L117.8,134.2L117.8,134.2L117.8,134.2L117.8,134.2z M146.4,134.7l0-0.1l0-0.1l0,0l-0.1,0l0,0l0-0.1l0.1-0.1
		l0-0.1l0,0l0,0l0,0l0,0.1l0,0l0,0l0,0.1l0,0.1l0,0.1l0,0l0,0l0,0l0,0l0,0.1l0,0.1l0,0.1l-0.1,0l0,0l0,0l0.2,0l0,0l0,0l0-0.1l0,0
		l0,0l0,0L146.4,134.7L146.4,134.7L146.4,134.7z M147.4,134.4L147.4,134.4L147.4,134.4L147.4,134.4l0.1-0.1l0,0l0-0.1l0-0.1l0,0l0,0
		l-0.1,0.1L147.4,134.4L147.4,134.4L147.4,134.4L147.4,134.4L147.4,134.4L147.4,134.4z M145.5,134.7l-0.3-0.2l0,0l0,0l0,0.1l0.2,0.1
		L145.5,134.7l0.1,0.2l0,0l0-0.1L145.5,134.7z M144.7,135.2L144.7,135.2L144.7,135.2L144.7,135.2l0,0.1L144.7,135.2L144.7,135.2
		l-0.1,0l0,0l0,0l0,0.1l0.1,0l0,0l0,0l0,0l0,0l0,0l0,0l0,0.1l0,0l0,0l0,0l0.1-0.2l0,0l0.1,0L144.7,135.2L144.7,135.2z M144.7,135.5
		L144.7,135.5L144.7,135.5l0,0.2l0,0l0.1-0.1L144.7,135.5L144.7,135.5z M142.5,137.2L142.5,137.2L142.5,137.2l-0.1-0.1l-0.1,0h0l0,0
		l0,0l0.1,0.1L142.5,137.2L142.5,137.2L142.5,137.2L142.5,137.2L142.5,137.2z M142.6,137.4L142.6,137.4L142.6,137.4L142.6,137.4
		L142.6,137.4l0.1-0.1l0,0l-0.1,0l0,0L142.6,137.4L142.6,137.4L142.6,137.4z M142,140.4L142,140.4L142,140.4L142,140.4l-0.1,0l0,0.1
		l0.1,0.1l0.1,0l0.1,0L142,140.4L142,140.4L142,140.4l0,0.1L142,140.4L142,140.4L142,140.4L142,140.4L142,140.4L142,140.4z
		 M120.2,142.3L120.2,142.3L120.2,142.3L120.2,142.3L120.2,142.3l0.1-0.1l0,0l0,0l0,0l-0.1,0l-0.1,0l-0.1,0.1l0,0l0,0l0.1,0.1l0.1,0
		l0,0l0,0l-0.1,0l0,0l0,0l0,0l0,0l0,0v0l0,0l0,0l0.1,0l0,0l0,0l0,0l0,0l0,0l0,0l0,0L120.2,142.3L120.2,142.3L120.2,142.3
		L120.2,142.3z M141.5,142.5L141.5,142.5L141.5,142.5L141.5,142.5L141.5,142.5l0.1,0.1l0,0.1l0,0l0,0l0,0l0,0l0.1,0l0,0l0,0l0,0l0,0
		l0,0l0,0l0,0l0,0v0l0,0v0l0,0l-0.1,0l-0.1-0.1l-0.1,0l0,0L141.5,142.5L141.5,142.5L141.5,142.5z M141.3,142.8L141.3,142.8
		L141.3,142.8l0.1,0.1l0,0l0.1,0.1l0,0l0,0l0,0l0,0l0,0l0,0l0,0l0,0L141.3,142.8L141.3,142.8z M120.4,143.7L120.4,143.7L120.4,143.7
		L120.4,143.7L120.4,143.7L120.4,143.7l0-0.1l0,0l0,0l0-0.1l-0.1-0.1l0,0.1l0,0l0,0l0,0l0,0l0,0v0l-0.1,0l0,0l0,0l0,0l0,0l0,0l0,0
		l0,0.1l0,0L120.4,143.7L120.4,143.7L120.4,143.7L120.4,143.7L120.4,143.7L120.4,143.7z M141.5,144.2L141.5,144.2l0,0.1l0,0l-0.1,0
		l0,0l0,0l0,0l0,0l0,0.1l0,0l0,0l0,0l0,0l0,0l0,0l0,0l0,0l0,0l0,0l0,0l0.1-0.2l0-0.1l0-0.1L141.5,144.2L141.5,144.2z M140.9,147.7
		L140.9,147.7L140.9,147.7L140.9,147.7L140.9,147.7l-0.1,0.1l0,0l0,0l0,0l0.1-0.1L140.9,147.7L140.9,147.7L140.9,147.7L140.9,147.7z
		 M137.6,155.7L137.6,155.7L137.6,155.7L137.6,155.7l-0.1,0l0,0l0,0l0,0l0,0l0.1,0.1l0,0l0,0l0,0l0,0L137.6,155.7L137.6,155.7
		L137.6,155.7L137.6,155.7z M137,155.7L137,155.7L137,155.7L137,155.7L137,155.7L137,155.7l-0.2,0.1l0,0l0,0l0,0l0.1,0l0,0l0,0
		L137,155.7L137,155.7L137,155.7L137,155.7z M136.6,155.7L136.6,155.7L136.6,155.7l-0.1,0.1l0,0l0,0l0,0l0.1,0l0,0l0-0.1l0-0.1
		L136.6,155.7z M136.4,155.7L136.4,155.7l-0.1,0l0,0.1l0,0l0,0l0,0l0,0l0.1,0l0,0l0,0l0,0l0-0.1L136.4,155.7L136.4,155.7
		L136.4,155.7L136.4,155.7z M124.7,157.2L124.7,157.2l-0.1,0l0,0l0.1,0.2l0,0l0-0.1L124.7,157.2L124.7,157.2z M152,138.4l0.2,0.1
		l0.2-0.1l0.2-0.1l-0.1-0.1l-0.2-0.1l-0.1-0.1h-0.1L152,138.4z M148.7,131.1l0.2,0.1l0.2,0.2l0.1,0l0.1-0.2l-0.2,0l-0.1-0.1l0-0.2
		l0.1,0.1l0.1,0l0.2,0l-0.4-0.2l-0.3-0.1l-0.5,0l0.2,0.1l0.1,0.1l0,0L148.7,131.1L148.7,131.1z M159.2,91.4l-0.1-0.2l-0.2,0
		l-0.1,0.3l0.1,0l0,0l0,0l0,0.1l0,0.1L159.2,91.4z M148.6,121.7l0.1,0.2l0.2,0.1l0.2,0.3l0.2,0.1l0,0l0-0.1l0,0l0,0l0,0l0,0
		l-0.1-0.1l0-0.1l0-0.1l-0.1,0.1l-0.1,0l0-0.1l0-0.1l-0.2-0.4l0-0.1l0.1,0l0.1,0.1l0.1,0l0-0.1l-0.1-0.1l-0.1-0.1l0-0.1l0,0l0,0v0
		l0,0l0-0.1l0,0l-0.1,0l0,0l0,0.1l0.1,0.2l0,0.1l0,0.4L148.6,121.7z M167.1,72.2l0-0.2l-0.2-0.2l0,0l0,0.2l0,0.1l0,0.1l0,0.1l0,0.1
		l0,0.1l0.1,0.1l0.2,0l0-0.1L167.1,72.2z M171.1,72.4L171.1,72.4l0-0.1l0,0l0,0l0-0.1l0-0.1l0-0.1l0,0l0,0l0,0.1l0,0l0,0l0,0l0,0.1
		l0,0l0,0l-0.1,0l0-0.1l0,0l0,0.1l0,0l0,0l0-0.1l0,0.1l0,0.2l0.1,0.1l0.2,0.1L171.1,72.4z M167.7,72.7L167.7,72.7l0-0.1l0,0l0,0
		l0-0.1l0-0.1l-0.1-0.1l-0.1-0.1l0,0l0.1,0l0-0.1l-0.1-0.1l-0.1,0l-0.1,0.1l0,0.2l0.1,0.2l0.1,0.2l0.1,0.1l0.1,0L167.7,72.7z
		 M166,73.5L166,73.5l0.1,0.1l0.1-0.1l0-0.1l-0.1,0L166,73.5L166,73.5z M165.9,73.8L165.9,73.8l0,0.1l0.1,0.1l0,0l0,0l0,0l0,0l0,0
		l0,0l0-0.1l0-0.1l0,0l0.1,0l0-0.1l-0.1,0l-0.2,0.1l-0.1,0L165.9,73.8L165.9,73.8L165.9,73.8z M164.9,74.7L164.9,74.7l-0.1-0.1l0,0
		l0,0l0-0.1l0,0l0.1,0l0.1,0l0.1,0.1l0,0.1l0,0l0.1,0l0-0.1l-0.1-0.1l0-0.1l0,0l0,0l0,0l-0.3-0.2l-0.1,0l-0.1,0l0,0l0,0.1l0.1,0.2
		L164.9,74.7L164.9,74.7L164.9,74.7L164.9,74.7z M166.3,74.4L166.3,74.4l0-0.1l-0.1,0l0,0l0,0l-0.1-0.1l0,0.1l0.1,0.1l0.1,0
		L166.3,74.4L166.3,74.4z M164.7,75.2L164.7,75.2l-0.1-0.1l0-0.1l0,0l0-0.1l-0.2-0.1h-0.1l0,0.1V75l0,0l0,0.1l0,0.1l0,0l0.2,0l0,0
		l0,0l0.1,0l0-0.1L164.7,75.2L164.7,75.2z M165.3,75.2L165.3,75.2l0.1-0.2l0-0.1l-0.1,0l-0.1,0l-0.1,0.1l-0.1,0.1l0,0l0-0.1l0,0l0,0
		l0,0.1l0,0.1l0,0L165.3,75.2L165.3,75.2z M159.2,91.5L159.2,91.5L159.2,91.5l-0.1,0.1l0,0.1l-0.1,0.5l0,0.1l0.1-0.1l0,0l0,0
		l0.1-0.1l0.1-0.1l0-0.1l0-0.1l0-0.1l0-0.1l0-0.1L159.2,91.5l0.1,0L159.2,91.5L159.2,91.5l0.1-0.1l0,0L159.2,91.5L159.2,91.5z
		 M158.9,92.3l-0.2,0.2l0,0.1l0.1,0l0.1-0.1l0-0.1V92.3L158.9,92.3L158.9,92.3z M147.5,101.3L147.5,101.3L147.5,101.3L147.5,101.3
		l0.1-0.2l0-0.1l0-0.1l0,0l-0.1,0l-0.1,0.1l0,0l0-0.1l-0.1,0l-0.1,0l-0.1,0.1l0,0.1l0,0.1l0,0.2l0.1,0.2l0.2,0l0.2-0.1l0-0.1
		L147.5,101.3L147.5,101.3L147.5,101.3L147.5,101.3z M150,123.3L150,123.3L150,123.3l0,0.1l0,0.1l0,0.1l0,0l0.1,0l0.1,0l0.1,0
		l0.1-0.1l0-0.1l0-0.1l0,0l0,0l0,0l0,0l0,0l0-0.1l0,0l0,0l0,0l0-0.1l0,0l-0.1,0l-0.1,0l0,0L150,123.3L150,123.3L150,123.3z
		 M151.1,126.4l0-0.1l0-0.1l0-0.1l0,0l0,0l0,0l0,0.1l-0.2,0.3l0,0.1l0,0.1l0.1,0l0,0l0,0l0,0l0,0l0.1,0l0.1,0l0.1,0l0,0l0,0l0,0l0,0
		l0,0l0,0l0,0l0,0L151.1,126.4z M150.4,128.3l-0.1,0.1l-0.1,0.1l-0.1,0l0,0l0.1,0l0.1,0l0.1-0.1l0,0l0,0l0,0l0,0L150.4,128.3l0.2,0
		l0,0l0.2-0.3l0.1-0.1l0-0.1l-0.3,0.2L150.4,128.3L150.4,128.3z M151.1,128.1L151.1,128.1L151.1,128.1L151.1,128.1l-0.1-0.2l-0.1,0
		l-0.1,0l-0.3,0.4l0,0.1l0,0.1l0.1,0l0,0l0,0l0-0.1l0.1-0.3l0,0l0.1,0L151.1,128.1L151.1,128.1L151.1,128.1L151.1,128.1z
		 M149.5,129.2L149.5,129.2L149.5,129.2l0.1-0.1l0,0l0.1-0.1l0.2-0.1l0,0l-0.2,0.1l0,0l0,0l0,0l0,0l-0.1,0l-0.1,0l-0.1,0l-0.1,0.1
		l-0.1,0.1l-0.1,0.1l0,0.1l0,0.1l0,0l0,0l0,0l0,0l0,0l0,0l0,0l0,0l0,0l0,0l0,0l0,0l0,0l0-0.1l0,0l-0.1,0l0,0l0,0.1l0,0l0,0l0,0.1
		l0,0.1l0,0.1l0,0.1l0,0.1l0,0l0,0l0,0l0,0l0,0l0-0.3l0,0.1l0,0l0,0l0-0.1l0-0.2L149.5,129.2L149.5,129.2L149.5,129.2L149.5,129.2
		L149.5,129.2z M150.8,129.7L150.8,129.7L150.8,129.7l-0.1-0.1l-0.1,0l-0.1,0l-0.1,0.1l0,0.1l0.1,0l0.1-0.1L150.8,129.7z M150.5,130
		L150.5,130L150.5,130L150.5,130L150.5,130L150.5,130L150.5,130L150.5,130z M150.9,130.1L150.9,130.1l0-0.1l0,0l-0.1-0.1l-0.1,0l0,0
		l0,0.1l0,0l0,0l0.1,0.1L150.9,130.1L150.9,130.1z M147.9,130.3L147.9,130.3L147.9,130.3l-0.5-0.2l-0.1,0l0,0.1l0,0l0,0.1l0,0.1
		l0.1,0.1l0.1,0.1l0.1,0l0.1,0l0-0.1L147.9,130.3l-0.1,0L147.9,130.3L147.9,130.3z M149.7,130.3L149.7,130.3l0.1,0.1l0,0.1l0,0.1
		l0,0l0,0l0,0l0,0.1l0,0l0,0l0.2-0.1l0.1-0.1l0-0.1l0-0.1l0,0l0,0l0,0l-0.1-0.1l0,0l0,0l0,0l0,0l-0.2,0l0,0L149.7,130.3L149.7,130.3
		z M150.2,131L150.2,131L150.2,131l0.1-0.1l0,0l0,0l0,0l-0.1,0l-0.1,0l-0.1,0.1L150,131l0,0.1l0,0l0,0l0,0l0,0l0,0l0,0l0,0l0,0l0,0
		l0,0L150.2,131z M150.1,131.6l-0.1,0l0,0l-0.1,0l-0.1,0.1l0,0.1l0,0.1l0,0L150.1,131.6L150.1,131.6L150.1,131.6z M148.4,132.9
		L148.4,132.9L148.4,132.9l0,0.2l0,0.1l0,0l0,0l0,0h0l0,0l0,0l0,0l0,0l0,0l0,0l0-0.1l0,0l0-0.1l0.1-0.1l0.1-0.2l0,0l0,0l0,0l0,0
		l0-0.1l0-0.1l-0.1,0l-0.1,0l-0.1,0.1l-0.1,0.1l-0.2,0.1l0,0l0,0l0,0.1l0,0l0,0l0,0l0,0L148.4,132.9L148.4,132.9L148.4,132.9
		L148.4,132.9z M145.4,133.3l0,0.1l0,0.1l0,0.1l0,0l0,0.1l0,0.1l0,0.1l0,0l0,0l0.1,0.2l0,0l0-0.1l0-0.1l0,0l0,0l0-0.1l0-0.1l0-0.1
		l0-0.1l0-0.1l0-0.1l0-0.1l0-0.1l0-0.1l0-0.1l0-0.1l0-0.1l0,0l0,0l0,0l0-0.1l0,0l0,0.1l0,0.2l0,0.1l0,0L145.4,133.3L145.4,133.3z
		 M147.3,133.4L147.3,133.4l0.1,0.1l0.1,0l0-0.1l0-0.1l0-0.1l0-0.1l0,0l0,0.1l0,0l0,0l0,0l0,0l0,0l0-0.1l0,0l0,0l0,0l0,0l0.2-0.1
		l0,0l-0.2,0l-0.1,0l-0.1,0l-0.1,0l0,0l0,0.1l0,0.1l0,0l0,0l0,0l0,0l0,0.1l0,0l0,0l0,0l0.1,0L147.3,133.4L147.3,133.4L147.3,133.4z
		 M148.2,133.5L148.2,133.5L148.2,133.5l-0.1,0l-0.1,0l-0.1,0.1l-0.1,0.1l-0.1,0.1l0,0.1l0,0l0,0l0,0l0.1-0.1l0.1,0l0.1,0l0.1,0l0,0
		l-0.1,0l0-0.1l0,0l0,0l0,0l0,0l0.1-0.1l0.1-0.1l0-0.1l0,0L148.2,133.5L148.2,133.5z M141.9,138.4L141.9,138.4l0,0.1l0.1,0.1
		l0.1,0.1l0.1,0l0.1,0l0.1,0l0,0l0,0l0,0l0,0l0,0l0,0l-0.1,0l-0.1,0l-0.1-0.1l-0.1-0.1L141.9,138.4l0.1-0.1h0l0,0l-0.1-0.1l0,0l0,0
		l0-0.1l0,0l0,0l0,0l-0.1,0l0,0l0,0l-0.1,0l0,0l-0.1,0l0,0.1l0,0.1L141.9,138.4L141.9,138.4L141.9,138.4z M142.1,138.8L142.1,138.8
		l0,0.2l0,0.1l0,0l0.1,0l0-0.1l0-0.1l0-0.1L142.1,138.8L142.1,138.8z M137.3,155.7L137.3,155.7L137.3,155.7l-0.1,0l0,0l-0.1,0
		l-0.1,0.1l0,0.1l0.1,0.1l0,0l0,0l0,0l0,0l0-0.1l0-0.1L137.3,155.7L137.3,155.7L137.3,155.7L137.3,155.7L137.3,155.7L137.3,155.7z
		 M120,141.7L120,141.7L120,141.7l0.1,0.1l0,0l0-0.1l0,0l0.1,0l0,0l0-0.1l0-0.2l0-0.1l0.1-0.1l0.1,0l0,0.1l0,0.1l0,0l0.1,0l0,0
		l0-0.2l0,0l0,0l0-0.1l-0.1,0l-0.1,0l-0.1,0.1l-0.1,0H120l-0.2,0l-0.1,0l0,0.1l0,0.1l0.1,0h0.1l0.1,0l-0.1,0l-0.1,0l0,0l0,0.1l0,0.1
		l0,0.1l0,0.1l0,0.1l0,0L120,141.7L120,141.7z M119.8,140.6L119.8,140.6L119.8,140.6l0.1-0.2l0.1-0.1l0.1,0l0.1,0l0.1,0.1l0.1-0.1
		l0.2,0.1l0.2-0.2l0.1,0l0.1,0l0-0.1l0-0.4l0-0.2l0-0.2l-0.1-0.1l-0.1-0.1l-0.1-0.1l0-0.2l-0.1,0l-0.1,0l-0.1,0l0,0l0,0.1l0,0l0,0.1
		l0,0.1l0,0.1l-0.1,0l-0.1,0l-0.1,0l-0.1,0l-0.1,0.1l-0.1,0.1l-0.4,0.4l-0.1,0.1l0,0.1l0,0.1l0.1,0.1l0,0.1l0,0.2h0v-0.3
		L119.8,140.6L119.8,140.6L119.8,140.6z M152.4,141.4l-0.1,0l-0.1,0l-0.1,0l0-0.1l-0.1,0.1l-0.1,0l-0.1,0l0,0l-0.1,0.1l-0.1,0
		l-0.1,0l0,0.1l0,0.1l0,0.1l0,0.1l-0.1,0.1l0,0.1l0,0.1l0.1,0.3l0.1,0.1l0.1,0.1l0.1,0l0.1,0l0,0l0.1-0.2l0-0.1l0-0.1l0,0l-0.1,0
		l0.1-0.1l0.2-0.1l0.1-0.1l0.1-0.1l0.2,0.1l0.1-0.1l0,0l0,0l0,0l0,0L152.4,141.4L152.4,141.4z M151.3,142.3L151.3,142.3l-0.1-0.1
		l0-0.1l0-0.1l0-0.1l0,0l-0.1,0l-0.1,0l-0.1,0l-0.1,0l0,0.1l-0.1,0l-0.1-0.1l0.1-0.1v0l-0.3,0l-0.1,0l0,0.1l0,0.1l0,0l0,0.1
		l-0.1,0.1l-0.1,0.1l0,0.2l-0.1-0.1l0-0.1l0-0.1l0,0l0,0l0,0l0,0l0,0l0,0l0,0l0,0l-0.1-0.1l-0.1-0.1l-0.1,0l-0.1,0l-0.1,0.1
		l-0.1,0.1l-0.1,0.1l-0.1,0.1l0,0.1l0,0.1l0,0.1l-0.1,0l-0.1,0l-0.1,0l-0.1,0l-0.2,0.1l-0.2,0.2l-0.6,1l-0.7,0.7l-0.1,0.2l-0.1,0.3
		l0,0.2l0,0.2l0,0.2l0,0.1l0,0l0,0.1l0,0l0,0.1l0,0l0,0l0,0l0,0l-0.1,0.1l0,0.1l0,0.2l-0.1,0.1l-0.2,0.1l-0.1,0.1l0,0.1l0.3,0.2
		l0.1,0.7l0.2,0.1l0,0l0,0.1l0,0l0.1,0l0,0.1l0,0.1l-0.1,0.1v0.1l0.1,0l0.1-0.1l0.1-0.1l0.1-0.1l0,0.1l0,0.2l0,0.1l-0.1,0.1
		l-0.2,0.1l-0.1,0.1l0,0.1l0,0.1l0,0.1l-0.3,0.5l0.1,0.1l0.1,0l0.4-0.2l0.1,0l0-0.2l0-0.1l0.1-0.1l-0.1-0.1V149h0.2l-0.1-0.1
		l-0.1-0.1l0-0.1l0-0.4l0.1-0.1l0.3-0.2l0.1-0.1h-0.3l0.1-0.1l0.1-0.1l0.5-0.3l0.1,0v0h-0.1v-0.1l0.1-0.1l0.4-0.1l0,0l0.1-0.1l0-0.2
		l0,0l-0.1,0l0,0l0-0.1l0.1-0.1l0.2-0.1l0.1-0.1l0.1-0.1l0.1-0.1l0.1,0l0,0l0.1-0.1l0,0l0,0l0,0l0,0h0.1l0.1,0l0-0.1l0-0.1l0-0.1
		l0-0.1l0,0l-0.1-0.1l-0.1,0l0,0l0,0l0,0l-0.2,0l-0.2-0.1l0-0.1l0,0l-0.1,0l-0.1,0l0-0.1l0-0.1l-0.1-0.1l0-0.1l0.1-0.1l0-0.1l0-0.1
		l0-0.1l0-0.1l0-0.1l-0.2-0.1l0,0l0-0.1l0-0.1l0,0l0-0.1l0.1-0.2l0.1-0.3l0-0.1l0-0.1l0-0.1l0.1,0l0,0l0.1,0.1l0.1,0l0.2,0l0.2,0
		l0-0.1v-0.1l0-0.1l0-0.1l0-0.1l0,0l0.1,0l0,0.1l0-0.3l0.1-0.1l0.3,0l0-0.1L151.3,142.3z M143.2,146.5L143.2,146.5L143.2,146.5
		L143.2,146.5l-0.1-0.1l0,0l0,0h0l0,0.1l0,0l0,0l0-0.1l0,0l-0.1,0l-0.1,0.1l-0.1,0.2l-0.1,0.1l0,0.1l0,0.4l0,0.1l-0.1,0.1l-0.1,0
		l0,0l0,0.1l-0.1,0.6l-0.2,0.5l-0.2,0.4l-0.2,0.5l-0.1,0.3l-0.1,0.1l-0.1,0l-0.1,0l-0.1,0l-0.1,0.1l-0.7,1.8l0,0.2l0,0.1l-0.1,0.2
		l-0.1,0.2l0,0.1l0,0.7l0,0.1l0,0.1l0,0.1l0,0.1l0,0.3l0,0.2l0,0.2l0.1,0.2l0,0.1l0,0.2l0,0.1l0.1,0.1l0.1,0l0.1-0.1l0.1-0.1
		l0.2-0.5l0-0.1l0-0.1l0.1-0.1l0-0.1l0-0.2l0-0.1l0-0.1l0-0.2l0.1-0.2l0.1-0.1l0-0.1l0-0.1l0-0.1l0,0l0-0.1l0,0l0,0l0,0l0,0l0-0.2
		l0-0.1l0.1,0l0,0l0-0.1l0-0.1l0-0.1l0-0.2l0-0.1l0.2-0.8l0-0.2l0-0.1l0-0.1l0-0.1l0-0.1l0,0l0.2-0.1l0,0l0-0.1l0.1-0.4l0-0.1
		l0.1-0.1l0-0.1l0-0.2l0-0.1l0.1-0.2l0.1-0.1l0.1-0.1l0,0l0,0l0,0l0-0.1l0.1-0.1l0.1,0l0.1-0.1l0-0.2l0-0.1l0.2-0.3l0-0.1l0-0.1
		l0-0.1l0,0l0.1,0l0,0l0,0l0-0.1l0.1-0.2l0-0.1l-0.1-0.2l0.1-0.3l0.1-0.1L143.2,146.5L143.2,146.5L143.2,146.5z M172,71.6l0.2,0
		l0.1-0.1l0,0l0,0l0,0l0-0.1l0.3,0.1l0.1,0l0.1-0.2l0-0.2l-0.2-0.3l-0.1-0.4l-0.1-0.2l-0.1-0.2l0-0.2l0-0.2l-0.1-0.5l0-0.1l0-0.1
		l-0.1-0.1l0-0.1l0-0.1l-0.2-0.7l-0.1-0.1l-0.4-0.2l-0.1-0.1l-0.1-0.2l-0.1-0.5l0-0.3l-0.1-0.2l0-0.1l0-0.1l0-0.1l0-0.1l0-0.1l0-0.2
		l0-0.1l0-0.1l-0.1-0.2l0-0.1l0-0.2l0.1-0.2l0.1-0.1l0.1,0v-0.2l0.1-0.1l0.1-0.1l0.1-0.1l0-0.1l0.2-0.2l0.1-0.1l0-0.2l0-0.2l0-0.2
		l0-0.2l0-0.2l0-0.2l0-0.2l0-0.2l0-0.4l0-0.1l0.1-0.2l0.1-0.2l0.1,0l0.1,0l0.1,0l0-0.1l0-0.1l-0.2-0.5l-0.1-0.3l-0.1-0.2l-0.2-0.2
		l-0.2-0.5l-0.1-0.1l-0.1-0.1l-0.1-0.1l-0.1-0.2l-0.2-0.4l0-0.1l0-0.1l0-0.1l0-0.1l0-0.1l0-0.1l0,0l-0.1-0.2l-0.1-0.1l-0.1-0.1
		l0-0.2l0.1-0.1l0-0.1l0-0.1l0-0.1l-0.1,0l0-0.1l0-0.2l0-0.2l0.1-0.1l0.5-0.2l0.1-0.2l0.1-0.3l-0.1-0.1l0-0.3l0-0.3l0-0.2l-0.1-0.1
		l-0.1,0l-0.3-0.1l-0.3-0.2l-0.2,0l-0.2,0.1l-0.2,0l-0.1-0.2l-0.1-0.3l0.1-0.2l0.1-0.2l0.1-0.2l0-0.1l0.1-0.1l0.2-0.1l0.1-0.1l0-0.3
		l0-0.2l-0.1-0.3l0-0.2l0-0.4l0-0.2l0-0.1l0-0.7l0-0.2l0-0.3l0-0.3l0.1-0.2l0.1-0.1l0.3-0.1l0.1-0.1l0.1-0.2l0-0.2l-0.1-0.1
		l-0.3-0.1l-0.4-0.5l-0.1-0.1l-0.3-0.3l0-0.1l0-0.1l-0.2-0.7l0-0.1l-0.1-0.1l-0.1,0l-0.4,0.3l-0.1,0l0-0.1l0,0l0,0l0-0.1l0-0.1
		l0-0.1l0-0.3l0-0.1l0-0.1l0-0.3l-0.1-0.2l-0.2-0.2l-0.1-0.1l0-0.1l0-0.1l0-0.1l-0.1-0.1l-0.6-0.4l-0.1-0.2l-0.2-0.4l-0.1-0.1
		l-0.3,0.1l-0.1-0.2l-0.1-0.2l-0.1-0.1l-0.1,0l-0.1,0l-0.1,0l-0.2-0.1l-0.2,0l-0.3-0.2l-0.3,0l0,0l0-0.1l0,0l-0.3-0.1l-1,0l-0.1-0.1
		l0-0.1l0-0.1l0-0.1l0,0l0,0l-0.1-0.1l-0.1-0.1l-0.1-0.2l0-0.1l-0.2-0.2l-0.8-0.2l-0.1-0.4l-0.2-0.2l-0.4-0.4l-0.3-0.1l-0.1-0.1
		l-0.1-0.1l-0.1-0.4l0-0.1l0-0.1l-0.1-0.1l-0.3,0l0,0l0,0l0-0.1l0,0l-0.1-0.1l-0.2-0.5l-0.3-0.3l-0.3-0.3l-0.7-0.3l-0.1-0.1l0-0.2
		l0.1-0.1l0.1-0.2l0-0.2l-0.1-0.2l-0.2-0.1l-0.3-0.3l-0.5-0.1l-0.2-0.2l-2.2,0.2l1,1.3l0,0.2l0,1l0,0.2l-0.1,0.2l-0.4,1.2l-0.4,0.6
		l-0.8,0.8l1.2,0.7l-1,1.3l-0.2,0.1l-0.2,0l-1.9-0.8l-1.9-0.9l-1.4,0.1l-0.2-0.1l-0.7-0.7l-0.2-0.1l-1.1,0.4l0,0.1l0,0.1l-0.1,1.1
		l0,0.3l0.2,2.2l-0.1,0.5l-0.8,1.6l-0.1,0.3l-0.1,0.2l-0.1,0l-2.4-1.5l-0.1,0.1l-0.3,0.6l-1.7,1.4l-0.1,0.2l-0.1,0.2l-0.6,2.5
		l-0.1,0.2l-0.4,0.7l-0.2,0.3l-0.3,0.1l-0.7,0.1l-0.1,0.1l-0.2,0.8l1.3,2.4l0,0.2l-0.1,1.4l-0.1,0.2l-0.1,0.1l-0.2,0.2l-0.8,0.8
		l-0.4,0.5l-1.5,3.1l-1,1.1l0,0.3l0.2,1.3l0,0.3l0,0.2l0,0.1l-1.8,1.3l-2.1,0.3l0.4,2.9l0,0.4l0,0.2l-0.3,0.7l0,0.2l-0.2,2.4l0,0.5
		l0,0.5l0,0.5l-0.1,0.3l-0.3,0.3l-0.1,0.2l-0.1,0.2l-0.1,0.9l-0.1,0.4l-0.6,0.9l0,0l-2.2,4l1.2,0.9l0.2,0.1l0.3,0.1l0.2,0.1l0.1,0.2
		l0.2,2.3l0,0.2l-0.1,0.2l-0.7,1.4l-0.1,0.1h-0.1l-3-0.8l-1.1,0.3l-1,0.6l-0.3,0.3l-0.8,1.4l-0.8,1.4l-0.5,0.6l0.2,1l0,0.2l-0.1,0.2
		l-0.9,1.5l1,2.7l-0.5,0.7l0,0.1l0,0.2l0.2,1.4l0,0.2l-0.1,0.3l-0.1,0.4l-0.1,0.3l0,0.2l0.8,2.3l0.1,0.4l0,0.5l-0.7,4.5l0.1,0.1
		l0.5,0.5l0.2,0.2l0.3,0.4l0.1,0.1l0.2,0l0.3,0l0.1,0.1l0.1,0.1l1.1,1.5l0,0.1l0,0.1l-0.1,0.8l-0.1,0.2l-0.1,0.2l-0.3,0.5l0,0.1
		l0,0.1l-0.1,0.6l0,0.1l-0.1,0l-0.5-0.1l-0.2,0l-1,0.3l-0.1,0.1l0,0.2l0.2,0.4l0.1,0.3l0.1,0.6l0.1,0.3l0.1,0.3l0.4,0.8l0.5,1.2
		l0.1,0.2l0,0.3l0,0.3l0,0.2l-0.1,0.2l-0.1,0.1l-0.2,0.3l-0.1,0.1l0,0.1l0,0.3l0.1,0.5l0,0.3l-0.1,0.4l-0.1,0.3l-0.2,0.3l-0.7,0.8
		l-0.6,0.5l-0.2,0l-0.7-0.1l-0.2,0.1l-0.2,0.2l0,0.3l0,0.1l0.1,0.2l0.1,0.1l0,0.1l0,0.3v0.2l0,0.1l-0.2,0.3l-0.1,0.1l-0.6,0.3
		l-0.1,0.1l0,0.2l0,0.2l0.4,1.6l0.1,0.5l0,0.2v0.2l0,0.1l-0.1,0.1l0,0.1l-0.1,0.5l0,0.4l0,0.2l-0.1,0.4l0,0.2l0,0.2l-0.1,0.4
		l-0.2,0.2l-0.3,0.1l-0.3,0l-0.1-0.1l0-0.5l-0.1-0.2h0l-0.1-0.1l-0.1-0.1l-0.1-0.2l0-0.2l-0.1-0.2l-0.1-0.1l-0.4,0.1l-0.1,0.1
		l-0.3,0.4l0,0.1l0,0.1l0,0.1l0.1,0l0.2,0l-0.2,0.1l-0.1,0.1l0,0.1l0,0.1l0.1,0.1l0.2,0.1l0,0.1l0,0l0,0l0,0.1l0,0.1l0,0.2l0,0.1
		l0,0l0,0l0,0l0,0.3l0,0.1l0,0.1l0,0.1l0,0.1l0,0.1l-0.1,0l0,0.1l0,0.1l0,0.1l0.1,0l0,0l0,0.1l0,0.2l0.2,0.2l0,0.1v0.1l0,0.1l0,0.1
		l0,0.1l0,0l0,0l0,0.1h0.1l0,0.1l0,0l0,0l0,0.1l0,0.1l0,0.2l0,0l0,0l0,0l0,0l0,0l0,0.1l0,0l0,0l0.2,0.1l-0.1,0.1l-0.1,0.1l0,0.1
		l0,0.2l-0.1,0l-0.1,0l0,0.1l0.1,0.2l0,0.1l0,0.1l0,0.1l0,0.1l0,0.1l0.1-0.2l0.1,0l0.1,0l0.1-0.1l0,0l0-0.1l0,0l0,0l0.1-0.1l0.2-0.3
		l0-0.1l0,0.1l0,0.1l-0.1,0.2l-0.1,0.3l0,0.1l0,0l0.1,0l0-0.1l0-0.1l0-0.1l0-0.1l0.1,0l0,0.2l0.1,0.1l0,0.1l-0.1,0l-0.1,0l0,0.1
		l0,0.1l0,0.1l0,0l0.1-0.1l0.1,0v0.1l-0.1,0.1l-0.1,0.1l0,0.1l0,0.1l0.3-0.2l0.1-0.1l0.1-0.2l0.1-0.2l0-0.3l0-0.3l0-0.2h0l0,0.1
		l0.1,0.3l0,0.1l0.1-0.1l0.1-0.1l0.1,0l0.1,0.1l-0.1,0.1l-0.1,0.1l-0.1,0.1l0.1,0.1l-0.2,0.3l-0.1,0.2l-0.1,0.2l-0.1,0.2l0,0.2
		l0,0.1l0.1,0l0-0.1l0,0l0,0l0.1,0l0.1,0l0.1,0l0,0l0.1-0.1l0,0l0,0l0.2-0.2l0.1,0l0.1,0l0-0.1l0.1,0l0.2,0l0.2-0.1l0.1,0l0.1,0.1
		l-0.2,0.1l-0.1,0.1l0,0.2l0,0.1l0,0.1l0,0.1l0,0.2l0,0.1l0.1,0l0.1,0l0,0.1l0,0l0,0l-0.1,0l0,0l0,0.1l0,0.5l0,0.1l-0.1,0l0,0.1l0,0
		l0,0l-0.1,0.1l0,0.1l0,0.1l0,0.1l0,0.1l0,0.1l-0.1,0.2l-0.2,0.3l0,0.1l0.1,0.1l0,0.1l0,0l0,0v0.1h0.1v0l-0.2,0.1l-0.1,0.1l0,0.2
		l-0.1,0l-0.1,0l-0.1,0.1l0.1,0l0.1,0.1l0.1,0.2l0.1,0.1l0.1,0l0.1,0l0.1,0l0,0.1l0,0.1l-0.4,0.4l0,0.1l0,0.1l0.1,0l0.1,0l0.1,0
		l0-0.1l0.1,0l0.2,0.1l0.1,0l0.1,0l0.1,0l0.1-0.1l-0.1,0.1l-0.3,0l0,0.2l0,0.1l0,0.1l0,0.1l0,0.1l0,0.1l0.1,0l0.1-0.1l0-0.1l0,0l0,0
		l0,0l0,0.2l0,0.4l-0.1,0.1l0,0l0.1,0.1l-0.1,0l0,0l0.1,0l0.1,0.1l-0.1,0l-0.1,0.1l0,0.1l0,0.1l0,0.1l0,0.1l0,0.1l-0.1,0.1l0,0l0,0
		l0,0l0,0l0,0.2h0.1l0.1,0l0,0.1l0.1-0.1l0.1-0.5l0.1-0.1l0,0l0,0l0,0l0,0l0,0l0.1,0.3l0,0.1l0,0.1L122,146h0.2l-0.1,0.1l-0.1,0.1
		l-0.1,0.1l0.1,0.1l0,0l0.1,0l0,0l0,0l0,0l0,0l0,0l0,0l0,0.1l0,0.1l0,0.1l0,0v0.1l0,0l-0.1,0l0,0l0,0.1l0,0v0.1l0.1,0l0.1,0l0.1,0
		l-0.1,0l-0.1,0h-0.1l0.1,0.1l0.1,0l0.1,0l0.1,0l0,0l0,0.1l-0.1,0.1l0.1,0l0.1,0l0,0l0,0.1l0,0.2l0,0.1l0.1,0.2l0,0.1l-0.1,0.1
		l0.1,0.1l0,0l0,0.1l0.1,0.1l0.1,0.1l0.1,0.1l0,0.1l0,0.1l0,0l0,0l0,0.1l0,0l0,0l0,0.1l0,0l0,0.2l0,0.1l0.1,0.1l0.2,0l0.1,0.1l0.1,0
		l0,0l0.1,0.1l0,0l0.1,0l0,0l0,0v0l0,0l0,0l0.3,0.2l0,0.1l0,0.2l0.1,0.3l0.1,0.1l0.1,0.1l0.1,0.1l0,0.2l0,0.1l0.2,0.2l0.1,0l0.1,0
		l0.1,0l0.2-0.1l0.1,0l0.1,0l0.1,0.1l0.1,0.3l0.1,0.3l0,0.2l0,0.2l-0.1,0.2l-0.1,0.1l-0.1,0.1l-0.2,0.1l-0.5-0.2l-0.2,0.1l-0.1,0.3
		l0.1,0.2l0.4,0.3l0.1,0.3l0.1,0.2l0.2,0.1l0,0.1l0,0.1l-0.1,0.1l-0.1,0.1l-0.1,0l-0.2,0l0,0l-0.1,0l0,0l0,0l-0.1-0.1l0,0l0,0
		l-0.1-0.1l0,0l-0.8-0.4l0.1,0.1l0.2,0.1l0.1,0.2l0.1,0.2l0,0.1l0,0.2l0,0.1l0.2,0.4l0,0.1l0.4,0.5l0,0.1l0,0.1l0,0.1l0.1,0l0.1,0.1
		l0,0.1l0,0.1l0,0.1l0.1,0.1l0,0l0,0l0,0l0,0l0,0.1l0,0.1l0,0.1l0.1,0.2l0.2,0.1l0.1,0.1l0.1,0.3l0,0.1l0,0.1l0,0l-0.1,0l0,0.1
		l0.1,0l0.1,0l0,0.1l0.1,0l0.1,0l0.1,0.1l0.1,0.1l0.1,0.1l0,0.1l0,0.1l0,0.1l0,0.1l0,0.1l-0.3,0.2l-0.1,0.1l0,0.2l0,0.2l0.2,0.3
		l0,0.2l-0.1,0l0,0l0,0l0,0.1l-0.1,0.1l-0.1,0l-0.1,0l-0.1,0l0-0.1l0,0l0,0h0l-0.1,0.3l0,0.1l0.1,0l0.1-0.1l0.1,0l0,0l0.1,0l0,0l0,0
		l0.1-0.1l0,0l0.1,0l0.1,0l0,0l0.1,0.1l0,0l0,0l0.1,0l0.2,0l0.7,0.3l0.1,0l0.3,0l0.1,0l0.4-0.3l0.1,0l0.2,0l0.1,0l0.1-0.1l0-0.1
		l0-0.1l0.1,0l0.6,0l0.2,0l0.1,0l0.1,0l0.1-0.1l0.1,0l0.1,0l0.1,0l0.3,0.2l0.1,0l0.1,0l0.3,0l0.1,0l0.1-0.1l0.1-0.1l0.2-0.3l0.1-0.1
		l0.1-0.1l0.2-0.3l0.1-0.1l0-0.2l0-0.1l-0.2-0.3l-0.1-0.1l0-0.1l0-0.1l0-0.1l0-0.1l0-0.1l-0.1-0.1l-0.2-0.1l-0.1-0.1l0-0.1l0-0.1
		l0-0.3l0-0.3l0.1-0.3l0.2-0.2l0.2-0.1l0-0.1l0-0.1l0.1-0.1l0.1-0.1l0.1,0l0.1-0.1l0.2-0.2l0.1-0.2l0.1-0.1l0.1,0l0,0l0.1-0.1l0.1,0
		l0,0l0,0l0,0.1l0.1-0.1l0,0.1l0,0.1l0,0.1l0,0l-0.1,0.1l0,0l0,0l0.1,0l0,0l0,0l0,0l0,0l0-0.1h0.1l0,0.1l0,0l0,0l0-0.1l0-0.1l0.1,0
		l0,0l0-0.1l0-0.1l-0.1-0.2l0-0.1l0-0.1l0-0.1l-0.1,0l0,0l0-0.1l0-0.1l0-0.1l0.1-0.1l0.1,0l0.2,0l0.1,0l0.1,0.1l0.1,0.1l0.1,0l0-0.1
		l0.1,0l0.1,0l0.1,0l0.1-0.1l0.1,0l0.3,0.1l0,0l0-0.1l0,0l0,0l0.1,0l0,0l0,0l0,0.1l0,0h0.2l0,0l0,0l0,0l0,0l0.1,0.1l0.2,0l0.2-0.1
		l0.1-0.1l0.1,0.2l0,0.1l0,0l-0.1,0l0.1,0l0.1,0l0.2,0l0,0l0,0l0-0.1l0.1-0.1l0,0l0.1,0l0.1,0l0,0l0,0.1l0,0l0.1,0.1l0,0l0-0.1l0,0
		l0.2-0.1l0.2-0.1l0.1,0l0,0l0,0.1l0,0.1l0,0l0.1,0.1l0.1-0.1l0.1-0.1l0.1-0.1l0,0l0.1,0.1l0.1,0l0,0l0,0l0,0l0,0l0.1,0.1l0.1,0
		l0.2-0.1l0.1,0.1l0,0.1l-0.1,0.3l0.1,0.1l0.1,0.1l0.1,0l0.1-0.1l0.2-0.5l0.1-0.1l0.2-0.2l0.1-0.1l0-0.1l0-0.1l0-0.1l0,0l0,0
		l0.2-1.2l0.1-0.3l0.2-0.4l0-0.1l0-0.1l0.1,0l0-0.1l0-0.2l0-0.2l0-0.1l0,0l0,0l0.1-0.2l0-0.1l0,0l0,0l0.1,0l0.1,0l0.1,0.1l0.1,0
		l0.1,0l0.1-0.1l0-0.1l0-0.1l0-0.2l-0.1-0.2l0-0.1l0,0l0.1,0l0.1-0.1l0.1,0l0.1,0l0.1,0.1l0,0l0,0l0-0.1l0-0.1l0,0l0,0l0,0.1l-0.1,0
		l-0.1,0l0-0.1l0-0.1l0.1-0.4l0-0.1V150l0-0.2l0,0l0.1-0.2l0-0.1l0-0.1l0-0.1l0-0.1l0-0.2l0-0.1l0.1-0.1l0.1,0v-0.1l0,0l0,0l0,0
		l0-0.1l0.1,0l0.1,0l0.1,0l0,0l0,0l0,0l0,0l0,0l0,0l0,0l0,0l0,0l0,0l0,0l0,0l0,0l0,0l0,0l0.1,0.1l0.1,0l0-0.1l-0.1-0.1l0-0.1l0.1,0
		l-0.1-0.2l0-0.1l0,0l0,0l0,0l0-0.1l-0.1-0.2l-0.1-0.2l0-0.2l0-0.2l0.1-0.1l-0.1-0.3l0.1-0.1l0.3-0.2l-0.1-0.1l0,0l0,0l0-0.1
		l-0.1-0.1l0.1-0.2l0.1,0l0.2,0.1l0-0.1l0-0.1l0.1,0l0.1,0l-0.1,0l-0.1-0.1l0-0.1l0-0.1l0.1,0l0.1,0l0,0l-0.1-0.1l0.1,0l0-0.1
		l-0.1-0.2l-0.1-0.3l-0.2-0.1l-0.3,0v0h0.1v-0.1l-0.1-0.1v-0.1l0,0l0.1-0.1l0,0l0,0l0-0.1l0,0l0,0l0,0l0,0l0,0.1v0.1l0,0.1l0,0l0,0
		l0.1-0.1l0-0.1l0,0l0,0l0,0l0-0.1l0-0.1l-0.1,0l0,0l0-0.1l0.1,0l0.1,0l0-0.1l0-0.1l0-0.1l-0.1-0.1l0-0.1l0.1,0.1l0.1,0.1l0.3,0
		v-0.1h-0.1v-0.1h0.1l0-0.1l-0.1-0.1l-0.1,0l-0.1,0l0.1-0.1l-0.1-0.1l-0.1-0.2l0,0l-0.1,0l0,0l0-0.1l0-0.1l-0.2-0.2l-0.2-0.2
		l-0.1-0.1l0-0.1l0-0.1l0.5,0.4l0.3,0.5l0.1,0.1l0.2,0.1l0.1,0l0-0.1l-0.1-0.1l-0.9-1V142l0.1,0l0,0l0-0.1l-0.1-0.1l0.2,0.1l0.1,0.1
		l0.1,0.1l0,0l0-0.1l0-0.1l0-0.1l0,0l0-0.1l0,0l-0.2-0.1l-0.1-0.2l0-0.1l0-0.1l0-0.1l0,0l0,0l0.5,0.6l0,0l0,0l0,0l0,0l0,0.1l0,0.1
		v0.1l0,0.1l0.2,0l0.1,0l0-0.1l0-0.2l0,0l0.1,0.2l0.1,0.1l0.1,0l0.1,0l0-0.1l0-0.1l-0.1-0.1l0-0.1l0.2,0.1l0.1,0l0-0.1l-0.1-0.1l0,0
		l0-0.1l0-0.1l0,0l0,0.1l0,0l0-0.1l0-0.2l-0.1,0l-0.1,0l-0.1-0.2l0-0.1l0.1-0.1l0.1,0l0.1,0.2l0.1,0.1l-0.1-0.1l0,0l0.1-0.1l0,0.1
		l0,0l0,0l0-0.1l-0.1-0.1l-0.1,0l-0.1,0l-0.1-0.1l0.1,0l0,0l0-0.1l0-0.1l0.1,0l-0.1-0.2l-0.1-0.2l-0.1-0.2l0,0l0.1,0l0,0l-0.1-0.1
		l-0.2-0.2l-0.1-0.1l0.2,0.1l0.2,0.3l0.2,0.2l0.1-0.3l0,0l0-0.1l0,0l0,0l0.1,0l0,0l0,0l0-0.1l0-0.1l0-0.1l0-0.1l-0.1-0.1l0,0l0,0
		l-0.3-0.2l-0.1,0V139l0.2,0l0,0l0,0l0-0.1l0,0l0,0l0,0l0.1,0l0,0l0-0.1l-0.1,0l-0.2,0.1l0,0.1l0,0.1l0,0l0,0l-0.1,0l0-0.1l0-0.1
		l-0.1-0.1l-0.2-0.1l-0.1-0.1l0.6,0.1l0-0.2l0,0l-0.1,0l0,0l-0.1,0l-0.1,0l0,0l0-0.1l0-0.1l0-0.1l0-0.1l0-0.1l-0.1,0l-0.1,0
		l-0.9-0.5l-0.1,0l0.1-0.1l0.4,0.1l0.2,0.2l0.5,0.1l0,0l0.1,0l0,0l0,0l0.1-0.1l0,0l0.1,0l0.1-0.1l0.1-0.1l0-0.1l0.1,0l0.2,0l0.1-0.1
		l-0.2-0.2l-0.2,0l-0.1,0l0-0.1v-0.1H142v0l0,0l0,0l-0.1,0l-0.1-0.1l0-0.1l0-0.1l-0.1,0l-0.1-0.1l0,0l0,0.1l0,0l-0.1-0.1l-0.2,0
		l-0.1,0l-0.1-0.1l-0.1,0l-0.5,0l-0.1-0.1l-0.2-0.1l-0.1,0l0,0.1l0,0.1l0,0.1l0,0.1l0,0l-0.1,0l0,0l0-0.1l0-0.1l0,0l0,0l-0.1-0.1
		l-0.1,0l-0.1,0l-0.1,0.1l-0.1,0.1l-0.2-0.1l-0.1,0.1l0-0.1l0,0l-0.1,0l-0.1,0v-0.1l0.1,0l0.2,0l0.1,0l0-0.1l0-0.1l0-0.1l-0.1,0
		v-0.1l2.9,0.4l0.4-0.1l0.1,0l-0.1-0.1l-0.1-0.1l-0.2,0l0.1-0.1l0.2,0l0.2,0.2l0.1,0l0.1-0.1l0.1-0.1l0.1-0.1v-0.1l-0.1,0l-0.2,0
		l-0.1-0.1l0,0l0-0.1l0-0.1l0-0.1l0-0.1l-0.1,0l-0.1,0l0.1,0l0.1-0.1l0,0l0.1,0l0.1,0.1l0,0.1l0.1,0l0.5,0v-0.1l0.1,0l0.2,0l0.1-0.1
		l0-0.1l-0.1-0.2l0.5,0.1l0.1-0.1l-0.1-0.1l0,0l0,0l0-0.1l0-0.1l0-0.2l0-0.1l-0.1-0.1v-0.1l0.1,0.1l0.3,0.3l0.1,0l0,0l0,0h0.1v-0.1
		l-0.1-0.1l-0.1-0.1l0-0.1l0.1,0l0.1,0l0.1,0l0.1-0.1l0-0.1l-0.1-0.1l-0.1,0l0-0.1v-0.1l0,0l0,0l0,0l0,0l0,0l0,0l0,0l0,0l0-0.1
		l0-0.2l0-0.1l-0.1-0.1l0-0.2l0-0.2l0-0.2l0.1,0l0.1-0.1l0.1-0.1l0.1-0.1l-0.1-0.3l0,0.1l0,0.1l0,0.1l0,0.1l0,0.1l-0.1,0.2l0,0.1
		l0.1,0.2l0,0l0,0l0-0.1l0-0.3l0-0.1l0-0.1l0.1,0l0,0l0,0.1l-0.1,0.2l0,0l0,0.1l0,0.2l0,0.2l-0.1,0.1v0.1l0,0.2l0,0.2l0,0.2l0.1,0.1
		l0,0.1l0,0.1l0,0.1l0,0l0,0l0-0.1l0-0.1l-0.1-0.1l0-0.2l0-0.1l0.1,0.1l0.1,0.2l0,0l0.1,0l0,0l0,0l0,0l0,0l0,0l0,0.1l0,0.1l0,0.1
		l0,0.1l0.1,0.1l0-0.2l0-0.1l0-0.1l0.1,0l0.1,0l0.1,0l0.1-0.1l0-0.1l0-0.1l0-0.1l0-0.1l0.1-0.2l0.1-0.2l0.1-0.1l-0.1-0.1l0-0.1
		l0.1,0l0.1,0.1l0,0l0-0.1l0,0l0.2,0l0.1,0l0.1-0.2l0-0.1l0.1,0l0.1,0l0.1,0l0.1-0.1l0.1,0l0.1,0l0.1,0v0.1l0,0l0,0l0.1,0.1l-0.1,0
		l-0.1,0.1l-0.1,0l0.1,0l0.4-0.2l0-0.1l0,0l0,0l0,0l0.1-0.1l0.2-0.1l0.2,0l0.1,0l0,0l0,0l0-0.1l0-0.1l0-0.1l0,0l-0.1,0.1v-0.1l0,0
		l0,0l0,0l0,0l-0.1,0.1l0-0.1l0-0.1l0-0.1l-0.1,0l-0.1,0l-0.1-0.1l0-0.1l0.1,0l0.4,0.3l-0.1-0.1l-0.1-0.1l-0.1-0.1l-0.1,0l-0.2-0.1
		l0-0.1l0,0l0.1,0v-0.1l0-0.1l0-0.1l0-0.1l-0.1,0l0.1-0.1l0.1-0.1l0.1,0l0.1,0l0,0l0,0.1l0,0l0.1,0.1l0.3-0.1l0.1,0l0.1,0l0.1,0
		l0.1,0l0.1,0l0.1,0l0.1,0l0.2,0l0.1-0.1l0-0.1l-0.1-0.1l-0.1-0.1l-0.1,0l-0.1-0.1l0.1,0l0.1,0l0.1,0l0-0.1l-0.3-0.2l0,0l0-0.1l0,0
		l-0.1-0.1l-0.1,0l-0.2,0l0,0.1l0.1,0.1l0.2,0.1h-0.2l0,0.1l0.1,0.3l0,0.1l-0.1,0l-0.1,0l0,0l0-0.1l0,0l-0.2-0.1l-0.3-0.1l-0.3,0.1
		l-0.1,0.4h0l0-0.1l0,0l-0.1,0.1l-0.6,0l-0.1-0.1l-0.1,0l-0.2,0.2l-0.1,0.1l0,0l0,0.1l0,0l0,0l0,0.1l0,0l0,0.1l0,0.1l0,0l-0.1,0
		l0-0.2l-0.2-0.1l-0.4,0v0.1l0.2,0.1l0,0.1l-0.1,0.1l-0.1,0l-0.1,0l0.1-0.1l0,0l0,0l-0.1,0l0,0l0,0l0-0.1l-0.3-0.1l-0.1,0l-0.1,0.1
		l0.1,0.1l0,0.1l0,0.2l0,0.1l0-0.1l-0.1-0.2l0,0l-0.1,0l-0.2-0.1l-0.2-0.2l-0.2-0.1l-0.3-0.1l0.1,0.4l0.1,0.1l0.1,0.1v0.1l-0.8-0.1
		v-0.1l0.2,0l0.1,0l0-0.1l0-0.1l-0.2-0.3l0.3-0.1l0-0.1l0-0.1l-0.1-0.1l-0.2,0l-0.4-0.1l-0.2,0l-0.2,0.1l0,0l0-0.1l0,0l-0.3-0.2l0,0
		l0-0.1l0-0.1l0-0.1l-0.1-0.1l0,0l0,0l-0.1-0.1l-0.2-0.2l-0.1,0l0,0.1h-0.3l0,0l-0.1,0l0,0l0,0l0,0l0,0l0.1,0.1l0.5,0.4l0,0l0.1,0
		l0,0l0,0l0,0.1l0,0l0,0H142l0,0l-0.1-0.2l-0.3-0.3l-0.1-0.1l-0.1-0.1l-0.1,0.1l-0.1,0.1l-0.1,0.1l-0.1,0l-0.1-0.1l-0.1,0l0,0l0,0.1
		l0,0l0,0l-0.1,0l0,0l-1.3,0.1l-0.2,0l-0.2-0.1l-0.2-0.1l-0.1-0.2l0.4,0.2h0.5v-0.1h-0.1v-0.1l0.1-0.1l0.1,0l0,0.1l0,0.1l0.1,0.1
		l0.1,0l0.1,0l0-0.1l0,0l0.1,0l0,0l0.1-0.1l0,0l0,0l0.2,0.1l0.1,0l0.1-0.1l-0.2-0.1l0.1,0l0.1,0l0.1,0l0.1-0.1l-0.1-0.1l-0.1-0.2
		l-0.1-0.1l0.1-0.1l0.1,0l0,0l0,0l0.1,0.1l0.1,0.1l0.1,0.1l0.1,0.1l0.1,0.1l0.1,0.1l0.1,0l0.1,0l0.1,0l0,0l0-0.1l0-0.1l0.1-0.1l0,0
		l0,0l0-0.1l0-0.1l0,0l0.3,0.1l0,0l0,0l0,0l0,0l0,0l0,0l0,0l0,0l0.1,0.2l0,0l0.5,0l0-0.1l-0.2-0.2l-0.1-0.1l0.1,0l0,0l0.1-0.1l0,0
		l0,0.1l0,0.1l0.1,0.1l0,0l0,0l0,0l0.1,0.1l0.1,0.1l0.2,0l0,0.1l0,0.1l0.5,0.4l0.1,0l0-0.1l0-0.1l0,0l0,0.1l0.1,0.2l0,0l0-0.1l0-0.1
		l-0.1-0.2l0.1-0.1l0-0.2l-0.1-0.2l0-0.1l-0.1-0.1l0-0.1l0,0l0.1,0l0-0.1l0-0.1l0-0.1l0,0.1l0,0.1l0,0.1l0.1,0l0,0l0.1,0.2l0.2,0.2
		l0,0l0,0l0.1-0.1l0,0l0.1,0l0,0.1l-0.1,0.1l-0.1,0.1l0,0.1l0,0.1l0,0l0.1,0l0,0l0,0l0,0l0-0.1l0,0l0.1,0l0.3,0.1l0.1,0l0,0.1
		l0.1,0.2l0.1,0.1l0.1,0l0-0.1l0-0.1l0.1-0.1l0.2-0.3l0-0.1l-0.1-0.3l0-0.1l-0.1-0.1l-0.1,0l-0.1,0l-0.4-0.3l-0.2-0.2l0-0.1l0-0.1
		l0.2-0.2l0,0l0,0l0,0l0.1-0.2l-0.1-0.1l-0.3,0l0.1,0l0,0l-0.1,0.1l-0.1,0l-0.1,0.1l0,0.1l0,0.2l0,0.1l-0.1,0.1l0.1,0.1l0.1,0.2
		l0,0.2l0,0.1l-0.1-0.1l-0.1-0.4l-0.1-0.1l0-0.2l0-0.1l-0.1,0l0-0.1l0-0.1l0-0.1l0.1-0.2l0-0.1l0,0l-0.3,0l-0.1,0l-0.1-0.1h0.6
		l0.1,0l0.1-0.1l0.1-0.2l0.1-0.2l0,0.1l0,0.1l0.1,0.1l0,0.2l0.1,0.1l0.1,0.1l0.1,0.1l-0.1,0l0,0.1l0,0.1l0,0.1l0,0.1l-0.1,0.1
		l-0.1,0l-0.1,0l0.1,0.1l0.1,0.1l0.1,0l0.1,0l0.2,0.1l0.1,0l0-0.1l0-0.1l0-0.2l0-0.1l0.1-0.1l0,0.1l0,0.1l0,0.1l0,0.1l0,0.2l0,0.1
		l0.1,0.1l0,0l0.1,0l0,0l0,0.1l0,0l0,0v0.1l0,0l0,0l0,0l0,0.1l0,0.1l0,0.1l0,0.1l-0.1,0.1l-0.1,0.1l-0.1,0.2l0,0.2l-0.1,0.3l0.1,0.3
		l0.2,0.2l0.2,0.1l0.1,0l0.3-0.1l0.5,0.1l0.1,0l-0.6-0.6l0,0l0.1,0.1l0,0l0,0l0.1-0.1l0-0.1l0-0.1v-0.1l0,0l0,0l0.1-0.1l0,0l0,0
		l0,0.1l0,0l0.1,0l0.1-0.1l0.1,0l0,0.1l0,0.2l0,0.1l0,0l-0.1,0l-0.1,0l0,0l0.1,0.1l0.2,0.1l0.2,0l0.1-0.1l-0.1,0l-0.1,0l-0.1-0.1
		l0-0.1l-0.1-0.1l-0.1,0l0.1,0l0.1,0l0.1-0.1l-0.1-0.1v-0.1l0.3,0l0.1,0l0.1-0.1l0.2-0.3l0.1-0.1l0.2-0.1l0.2-0.2l0.2-0.1l0.1-0.1
		l0.1,0l0,0l0-0.1l-0.1-0.2l0.1,0l0,0l0,0l0,0l0,0l0.1-0.1l0-0.1l0-0.1h-0.2l0,0l0,0l0-0.1l0-0.1l0,0l0.1,0l0-0.1l0.1-0.1l0.3-0.1
		l0.1-0.1l0.1-0.1l0.1-0.1l0,0l0,0.1l0,0.1l0.1,0l0.1,0l0.3-0.1l0.1-0.1l0.1-0.1l0-0.2l-0.2-0.1l-1.1,0l-0.2,0.1H150l0-0.1l0.1-0.1
		l0.1,0l0.2,0l0.1,0l0.1-0.1l0.3-0.4l0-0.1l0-0.1l-0.1-0.3l0-0.1l0.1,0.1l0.1,0.2l0.3,0.5l0.1,0l0.1,0l0-0.1l0-0.3l0-0.1l-0.1,0
		l-0.1,0l0,0l0,0.1l0,0l0,0l0,0l-0.1-0.1l0,0l0-0.1l0,0l0,0l-0.1-0.1l-0.1-0.1l-0.2-0.1l-0.1-0.1l-0.1-0.4l-0.2-0.6l0-0.1l0-0.1
		l0-0.1l0,0l-0.1,0l-0.2,0.1l-0.1,0.2l0,0.2l0.1,0.2l0.1,0.2l0-0.1l-0.2-0.3l0-0.1l0-0.3l0-0.1l-0.1-0.1l-0.1,0l-0.1-0.1l-0.1,0
		l-0.1,0l-0.1,0.1l0,0.1l0,0.2l0,0.2l0,0.1h0l0-0.1l-0.1-0.3l0-0.1l0-0.3l0,0l0,0.1l0,0l-0.1,0h-0.1l-0.1,0l-0.1-0.1l-0.2-0.1
		l-0.1-0.1l0-0.2l0.1,0.1l0.1,0l0.1,0l-0.1-0.2l-0.2-0.2l-0.2-0.2l-0.1-0.3l0.2,0.4l0.1,0.2l0.7,0.3l0.2-0.1l-0.2-0.2l-0.6-0.2
		l0-0.1l0,0l0.1,0l0.1,0v-0.1l-0.1-0.1l0,0l0-0.1l0-0.1l0-0.1l0,0l-0.1-0.1l-0.3,0l-0.1-0.1l-0.1,0l-0.1,0l-0.1,0l-0.1,0.1l-0.1,0.1
		l0-0.1l0,0l-0.1-0.1V122l0.1-0.1l0.1-0.1l0.1,0l-0.3-0.1l-0.1-0.1l-0.1-0.2l0,0l0-0.1l0,0l-0.1-0.1l-0.2-0.2l-0.1-0.1l-0.1,0v-0.1
		l0,0l0-0.1l0-0.1l0-0.1l-0.1-0.3l-0.1-0.1l-0.1,0l-0.4,0.1l-0.2,0.2l-0.1,0.2l0.1,0.2v0.1l-0.3,0l-0.1-0.1l-0.1-0.2l0-0.1l-0.1-0.2
		l0-0.1l0,0l0.1-0.1l0.1-0.1l-0.1-0.1l-0.2-0.1l-0.1-0.1l-0.1-0.1l-0.1,0l-0.6,0.1l-0.1,0l-0.1,0.1l-0.1,0l-0.1,0l-0.1,0v-0.1
		l0.2-0.1l-0.2-0.2l-0.1-0.1l-0.1-0.1l-0.1,0l0,0l-0.1,0l0,0l0,0l0,0l0,0l0.1,0l0.2-0.1l0.1-0.1l0.1-0.1l0.1-0.1l0.1-0.1l0,0l-0.1,0
		l-0.1,0l-0.1-0.1l0-0.1l0-0.1l0-0.1l0,0l0,0l0,0l0-0.1l0,0l0,0l0,0l0,0l-0.2-0.5l0,0l0,0l-0.1,0l0,0l0-0.1l0-0.1l0-0.1l0,0l-0.1,0
		l-0.1-0.1l0,0l0-0.1l0-0.2l0.1-0.1l0.3-0.1l-0.1-0.1l-0.1,0l-0.2,0l0,0l0.1-0.1l0,0l0,0l0,0l0-0.1l0-0.1l0-0.1l0,0l0,0l0,0l0-0.1
		l0-0.1l0,0l-0.1,0l0,0l0.1,0l0-0.1l0-0.1l-0.1-0.1l0.1-0.1l0-0.1l0-0.2l-0.1-0.1l0.1-0.1l0.1-0.1l0.1-0.1l-0.1-0.2l-0.1-0.1
		l-0.1-0.2l-0.1-0.1l-0.1-0.1v-0.1l0.1,0l0.1,0l0.2,0.2l0.1,0l0.2,0l-0.1-0.1l-0.1,0l-0.1-0.1l-0.1-0.2l0.3,0.1l0.1,0l0.1,0
		l-0.3-0.2l0-0.1l-0.1-0.1l-0.1-0.1l-0.1-0.2l0-0.1l0-0.1l0.1-0.1l0-0.2l0,0l0,0.1l0,0.1l0-0.1l0,0l0,0l0,0l0,0l0-0.1l0-0.1l0,0l0,0
		l0,0.1l0,0h-0.1l0,0l0-0.1l0-0.1l0-0.1l0-0.1l0,0l0-0.1l0-0.1l0,0l-0.2-0.1V112h0.2v-0.1l0,0l-0.1,0l-0.1-0.1l-0.1,0l0,0l0,0l0.4,0
		v-0.1l-0.4-0.1l-0.1-0.1l0.2,0l0.2-0.1l0-0.1l-0.1,0l-0.1,0v-0.1l0.3,0l0.1,0l0.2,0.1l0.1,0l0.1-0.1l-0.1-0.1l-0.5-0.1l0.1-0.1
		l0.2,0.1l0.1-0.1l-0.1-0.1l0,0v-0.1l0.1,0l0.2,0l0.1-0.1l0-0.1l-0.3-0.2l-0.1,0l-0.1,0l-0.1-0.1l0.4,0l0.2,0l0.2,0.1l0,0.1l0.1,0.1
		l0.2,0l-0.1-0.2l0-0.1l0-0.1l0.1,0.1l0.1,0.1l0.2,0.4l0.1,0.1l0.1,0.1l0.1,0l0.1,0l0.1-0.1l0-0.1l0-0.2l0-0.1l0-0.1l0-0.1l0-0.1
		l-0.1-0.1l-0.1-0.1l-0.1,0l-0.1,0l-0.2,0.1l0,0l0-0.2l0-0.1l0-0.1l0-0.1l-0.1,0v-0.1l0,0l0,0l0-0.1l0-0.1l-0.2,0.1l-0.1,0l0,0l0,0
		l0,0l0,0l0-0.1l0,0l0,0l0,0l0,0v-0.1l0-0.1l0,0l0,0l0.1,0l0-0.1l0-0.1l-0.1-0.2l0-0.1l0-0.1l0-0.1l0-0.1l0,0l0.1,0l0-0.1l0-0.1
		l0-0.1l0,0l0.2,0l0,0l0-0.1l-0.1-0.1l0,0l0.1-0.2l0-0.1l-0.1-0.1l0.1-0.1l0-0.1l0-0.1l0-0.2l0-0.1l0.1-0.2l0-0.1l0-0.1l0-0.1l0-0.1
		l0-0.1l0-0.1l0.1-0.1l0.1,0l0.1,0l-0.1,0.2l0,0l0.1,0l0.3-0.2l-0.1-0.1l-0.1-0.1l-0.1,0l-0.1,0l-0.4-0.2l0.1-0.1l0,0l0,0v-0.1
		l0-0.1l0-0.1l0-0.1l0-0.1l-0.1-0.1l-0.1,0l-0.1,0l-0.1,0l-0.1-0.1l0-0.1l0-0.1l0-0.1l0-0.1l0-0.1l0-0.1l0,0l0.1,0l0,0l0,0l0-0.1
		l0-0.1l0-0.1l0,0l-0.2-0.3l0-0.1l0-0.1l0.1-0.1l0.1,0l0.1-0.1l0-0.2l0.1-0.1l0,0l0.2,0.3l0.2,0.4l0,0l0.1,0.1l0.1,0l0.1,0l0.5,0
		l0-0.1l-0.1,0l-0.1-0.1l0-0.2l0.1-0.1l0.1-0.1l0.2-0.1h0.2l0,0l0.1,0.1l0,0l0.1,0l0.1-0.1l0.1-0.2l-0.1-0.1l0.1,0l0,0l0-0.1l0-0.1
		l0-0.1l0-0.3l0-0.1l0,0l0.1,0l0,0l0,0.1l0,0.3l0,0.1l0,0l0.3-0.3l0.1,0l0,0l0-0.1l0-0.1l0-0.1l-0.6-0.3l-0.1-0.1h0.3l0,0l0.1,0.1
		l0,0l0,0l0,0l0,0l0-0.1l0-0.1l0-0.2l0-0.1l0-0.2l-0.1-0.2l0-0.1l0-0.2l0,0l-0.1-0.1l0-0.1l-0.2-0.1v-0.1l0.1-0.2l-0.1-0.3l-0.1-0.3
		l-0.1-0.2l-0.1-0.2l-0.5-0.5l0.1,0l0.1,0.1l0.1,0.1l0.1,0l0.1,0l0.1-0.1l0.1,0l-0.1,0.1l0,0l0.1,0l0.1,0l0,0.1l0,0.1l0.1,0.3l0,0.1
		l0.1,0l0.1,0l0.1,0l0,0.1l0,0l0,0.1l0,0l0,0.1l0,0.1l0,0l0,0.3l0,0.1l0,0l0.1,0.1l0.1,0l0,0l0.1-0.1l0.1-0.1l0.1-0.1l0.1,0l0,0l0,0
		l0,0l0,0l0.1,0.1l0.1,0.1l0.2,0.1l-0.1,0.2l-0.4-0.1l-0.1,0.2l0.2,0l0.1,0l0.1,0.1l0,0l0,0.1l0.2,0l0.1,0l0.1-0.1l0-0.1l0-0.1
		l0-0.1l0.1,0l0,0l0,0.1l0,0.1l0,0.1l0,0.1l0,0l0-0.1l0,0l0.1,0l0.1-0.1l0.1-0.3l-0.1-0.1l-0.1,0.2l-0.1-0.1l0-0.1l0-0.1l0-0.1l0,0
		v-0.1h0.2l0-0.1l0,0l0.1,0l0.1,0.1l0.1,0.2l0,0.1l0,0l0,0l0,0l0.1,0l0.1,0l0,0l0.1,0l0,0l0,0l0,0l0.1,0l0,0l0-0.1l0-0.1l0-0.1
		l-0.2-0.1l-0.1-0.1l0.3,0.1l0.2,0l0-0.2l0-0.1l-0.1,0l-0.2,0.1l-0.1,0l-0.2-0.2l0-0.2l0.1,0l0.2,0.1l0.1,0l0.1,0l0-0.2h0l0,0.1
		l0.1,0l0,0l0-0.1l-0.1-0.1l-0.1-0.1l-1.1,0l-0.1-0.1l0.2-0.1l0.1-0.1l0.1-0.1l0,0l0,0l0-0.1l0,0l0,0l0,0l0,0.1l0,0l0.3,0.1
		l-0.1-0.1l-0.1-0.1l-0.1-0.1l0.1-0.1l0.1,0l0.1,0l0.1,0.1l0.1,0.2l0,0l0,0l0-0.2l0-0.1l0.1,0l0.2-0.2h-0.1l0.1-0.1l0-0.1l0-0.1
		l0-0.1l0.1-0.1l0.1,0l0.1,0.1l0.1,0l0.1,0l0-0.1l0-0.1l0-0.1l-0.1-0.1l-0.1-0.1l-0.1-0.1l-0.1,0V97l0.2,0l0.6,0.2l0-0.1l-0.1-0.2
		l0-0.1l0-0.1l0-0.1l-0.1-0.1l0.1-0.1l0.4,0.1v0.1l-0.2,0l-0.1,0l0,0.1l0,0.1l0.1,0.1l0.1,0l0.1-0.1l0,0l0-0.1l0.3,0l0.1-0.1
		l0.1-0.1l-0.7-0.3l-0.1-0.1l0.1-0.1l0.1,0l0.2,0l0.2,0.1l0.1,0l0-0.1l0.1,0l0.1,0.1l0.1,0.1l0.1,0.1l0.1,0l0,0.1l0,0.1l0,0.1
		l0.1,0.1l0,0.1l0,0l0.1,0.2l0,0l0.1,0l0,0l0-0.1l0-0.1l0.1,0l0.1,0l0,0l0-0.1l-0.1,0l-0.1-0.1l-0.1-0.1l0.1-0.2l0.2,0.2l0.1,0
		l0.1-0.2h-0.1l0-0.1l0.1-0.2l0-0.1l-0.1-0.1l0,0l0.1-0.1l0.2-0.1l0.1-0.2l0,0.2l0.1,0l0.1-0.1l0-0.1v-0.3l0-0.1l0-0.2l0-0.1l0-0.3
		l0-0.2l0.1-0.1l0.1,0.1l0.1,0.1l0.1,0.1l0.1,0l-0.1-0.3l0-0.1l0.1,0.1l0.3,0.5l0.1,0.1l0.1,0l0,0l0-0.1l0-0.1l-0.2-0.3l0-0.1l0,0
		l0.1,0l0.1,0l0.1-0.1l-0.1-0.1l-0.1,0l-0.1-0.1l0.1-0.2l-0.1,0l0,0l0-0.1l0.1-0.1l0.1,0l0.1,0.1l0.1,0.1l0.1,0.1l0.2,0.1l0.1,0.2
		l0.1,0l0,0l0,0.1l0,0l0.1,0.1l0,0.1l0,0.1l0,0.1l0.2,0.1l0.1,0l0.1-0.1l0.1-0.1l0,0l0.1,0l0,0l0-0.2l-0.1-0.3l0-0.1l0.1-0.2
		l0.2-0.1l0.2-0.2l0.1-0.2l0,0L155,93l0.1-0.1l0.1,0l0.3,0.2l-0.1-0.2l0-0.1l0-0.1l0.1-0.1l0.1-0.1l0.1,0l0.1,0l0,0l0,0l0,0.1l0,0
		l0,0l0,0l0,0l0.3,0l0.1,0l0-0.2l0-0.2l0.1-0.2l0.1-0.1l0,0.1l0,0.1l0,0.1l0,0.1l0,0.1l0,0.1l0.1,0.1l0.1,0l0-0.2l0-0.6l0-0.1l0.1,0
		l0.1,0.1l0,0.1l0,0.1l0,0.1l0,0.1l0,0.1l0.1,0l0,0l0-0.1l0-0.1l0-0.1l0-0.1l0-0.2l0-0.1l0,0l0,0l0-0.1l0.1,0.1l0.1-0.1l0.2-0.5l0,0
		l0.1,0.1l0,0.1l0,0.1l0,0.1l0,0.1l0,0l0-0.1l0-0.1l0.2-0.2l0.1,0L158,91l0.1,0.2l0,0l0.1-0.1l0.1-0.2l-0.1,0l-0.1,0l0-0.1l0-0.1
		l0-0.1l0.2,0l0.2-0.2l0-0.1l0.1-0.3l0.1-0.3l0.1-0.1l0.1-0.1l0,0l0,0l0,0l0,0l0,0l0-0.1l0-0.2l0,0l0,0l0,0l0,0l0,0l0-0.1l0,0l0,0
		l0-0.1l0-0.1l0,0l0.2-0.4l0-0.2l-0.1-0.2l0.1-0.2l0.3-0.4l0.1-0.3l0,0l0,0l0.1,0.1l0,0l0.5-0.8l0,0l0,0l0.1,0l0.1,0l0.1-0.1l0.1,0
		l0,0l0,0l0,0l0,0l0-0.1l0-0.1l0-0.1l0-0.1l0.1,0.1L161,86l0.1,0.1l0.1-0.1l0.1-0.1l0.2-0.2l0.2-0.4l0-0.1l0.1-0.1l0-0.1l0.1-0.1
		h0.1l0,0l0-0.1l0-0.1l0-0.1l0,0h-0.1l0,0.1l-0.1,0l-0.1,0l0,0l0,0.1l0,0l-0.1,0l-0.1-0.1l0-0.1l0.1-0.1l0-0.1l0-0.2l0,0l-0.1,0
		l-0.2,0l0,0l-0.1,0.1l-0.1,0l-0.1-0.2l-0.1,0l0,0l0-0.1l0,0l0,0l0,0l0,0.1l0.1,0.1l0.1-0.1l0.2-0.2l0,0l0.1,0.2l0.1,0l0.1,0
		l0.1-0.1l0.1-0.1l-0.1,0l-0.1,0l-0.1-0.1l0-0.1v-0.2l0,0l0,0l0,0l0,0.2l-0.1-0.1l-0.1-0.2l-0.1-0.1l-0.1,0l0,0l0,0.1l0,0.1l0,0l0,0
		l0,0.1l0,0l0,0l-0.1-0.1l0,0l0,0l0-0.1l0,0l0,0l0,0l-0.1,0l-0.1-0.1l-0.1-0.1l0-0.1l0.1,0l-0.1-0.2l-0.1-0.1l-0.1,0l-0.1,0
		l-0.1-0.1l0-0.2l0-0.2l0-0.1l0.1,0l0.1,0.1l0.1,0.1l0.1,0.1l0.1,0.1l0.2,0.2l0.1,0.1v-0.1l-0.1-0.1l0-0.1l0-0.1l0.1,0v-0.1
		l-0.2-0.2l-0.1-0.1l-0.1-0.2l0.1,0l0.2,0l0.1,0l0-0.1l-0.1-0.1l-0.3-0.1l-0.3,0.1l-0.2,0l-0.1,0l-0.1-0.1l0,0l0-0.1l-0.1-0.1
		l-0.1-0.1l0-0.1l0-0.1l0-0.1l0.1,0l0.1,0l0,0.1l0,0.1l0,0.1l0.1,0l0.1,0l0.1-0.1l0.1-0.1l0-0.2l0.1-0.1l0.1-0.1l0-0.3l0.1,0
		l0.1-0.1l0-0.1l0-0.1l0-0.1l0-0.1l0-0.1l0-0.1l0.1,0l0.5,0l0.1-0.1l-0.1-0.1l0-0.1l0.1-0.1l0.1-0.1l0,0l0,0l0,0v0l0,0l0.1,0.1l0,0
		l0,0l0.1-0.1l0,0l-0.1-0.1l0-0.1l0.1-0.1l0.4,0l0.1-0.1l-0.1-0.1l-0.1,0l0-0.1l0.1-0.3l0-0.1l0-0.1l-0.1-0.1l0.2,0l0.1-0.1l0-0.2
		l-0.3-0.6l-0.2-0.3l-0.3-0.5l-0.1-0.1l-0.5-0.1l0.1-0.1l0.2,0l0.1-0.1l0,0l0,0l0,0l0.1,0l0.1,0.2l0.1,0.2l0.1,0.1l0.1,0l0.1,0.1
		l0.1,0.1l0.1,0.1l0.1,0.1l0.1,0.3l0,0.1l0.1,0.1l0.2,0l0.2-0.1l0.1-0.2l0-0.1l-0.1-0.1l-0.1-0.1l-0.1-0.2l-0.1-0.1l-0.1,0l0,0.2
		l-0.1,0.1l-0.1,0l-0.1-0.1l-0.1-0.1l-0.1-0.1l-0.1-0.1l-0.1,0l0.2-0.1l0,0l0,0l0,0l0.1-0.2l0.2,0l0.3,0v-0.1l-0.1,0l-0.2-0.1v-0.1
		l0.2-0.1l0.1,0l0.1,0.2l0.1,0l0.2,0l-0.1-0.1l0.1,0l0.4,0.1l0.1,0l0.1-0.1l0.1-0.1l0,0.1l0.1,0l0.1,0l0.1-0.1l0-0.1l0-0.1l0-0.1
		l0-0.1l0.1,0.2l0.1,0.1l0.1,0l0.1-0.1l0-0.1l0-0.1l0-0.1l-0.1-0.1l-0.2-0.3l-0.1,0l0,0l0.1,0.1l-0.1,0.1l-0.1-0.1l-0.2-0.3l0.1,0
		l0.6,0.2l0.1-0.1l0,0l0,0.1l0,0l0,0l0-0.1l0,0l0,0l0,0l0.1,0l0.2,0l0.1-0.1l-0.1,0l-0.1,0l-0.1-0.2l-0.1-0.1l-0.1-0.1l-0.3-0.1
		l-0.3-0.3l-0.5-0.3l-0.3-0.3l-0.1-0.4l0.1,0.1l0.1,0.1l0.1,0.1l0.1,0.2l0,0.1l0.1,0.1l0.3,0.1l0.1,0.2l0.2,0.1l0.1,0.1l0.1,0.2
		l0.3,0.1l0.4,0.3l0.1,0l0-0.1l0.1-0.1l0,0l0.1,0.1l0.1,0l0.1,0l0.1,0.1l0.1,0.1l0.1,0.1l0.1-0.1l0-0.2l0-0.1l0,0l-0.2-0.1l-0.1-0.1
		l0-0.1l0-0.1l0.2-0.2l0-0.1l-0.2-0.1l0-0.1l0-0.1l-0.1-0.1l-0.1,0l0,0.1l0,0.1l0.1,0.1l0,0.1l-0.1,0.2l-0.2,0l-0.3-0.1l0.3,0
		l0.1-0.1l-0.1-0.2l0-0.1l0-0.1l0-0.1l0-0.1l0-0.1l0-0.1l0.1-0.1l0.1,0l0.1,0.1l0,0.2l0-0.1l0.1,0l0.1,0l0.1,0l0-0.3l-0.1-0.2
		l-0.1-0.1l-0.3-0.1l-0.1-0.1l-0.1-0.1l-0.1-0.2l0.1,0l0.2,0.2l0.2,0.1l0.1-0.3l-0.1-0.1l-0.1-0.2l0-0.1l0.1,0.1l0.1,0l0-0.1
		l-0.2-0.3l0.2-0.1l0-0.2l0.1,0l0.3,0.1l0,0.1l0,0l0.1,0.1l0.1,0.1l0.1,0.1l0,0.1l0,0.1l0,0.1l0,0.1l0,0l0.1-0.2l0.1,0l0.2,0.1
		l0.1,0.1l0,0.2l0.1,0l0.1-0.1l0-0.1l0-0.1l0-0.2l0-0.1l0-0.1l0-0.1l0-0.3l0-0.1l0-0.1l-0.1-0.1l-0.1-0.1l0.1,0l0.1,0l0.5,0.4
		l0.1,0.2l0.1,0.4l0.1,0.1l0.1,0l0.1,0l0.1,0l0.1,0.2l0,0l0.2,0.1l0.2,0l0.1,0.1l0.1,0.3l0,0.2l0.1,0l0.1-0.1l0-0.2l0.1-0.1l0,0
		l0.3-0.1l0.1-0.1l-0.1-0.1l-0.1-0.1l0-0.1l0-0.2l0.1-0.1l0.1,0l0.1,0l0.2,0.2l0.1,0.1l0.1,0l0.1-0.1l0.1-0.1l0.1-0.1l0.1,0l0,0.1
		l0,0.2l0,0.2l0.1,0.1l0.1,0l0,0l0,0l0-0.1l0-0.1l0-0.1l0-0.1l0,0l0-0.1l0,0l0,0l0,0l0-0.1l0,0l0.1,0l0.1,0l0,0l0,0.1l0.2,0.1l0.3,0
		l0,0l0,0.1l0,0l0.1,0l0.1-0.1l0.1-0.2l0.1,0l0.2,0l0.1,0.1l0,0.2l0,0.1l0.1,0l0.2,0l0-0.1l0,0l0,0.1l0,0.1l0,0.1l0,0l0.1,0l0,0l0,0
		l0,0l0-0.1l0-0.2L172,71.6L172,71.6z"/>
	<g>
		<g>
			<path class="st1" d="M200.3,38.9c-13.4-0.4-24.5,1.5-38.7,14.7"/>
			<g>
				<path class="st2" d="M161.7,53.6c0.5,0,1.2,0.4,1.5,0.8c-0.8-0.2-1.8-0.1-2.6,0.2c0.4-0.8,0.4-1.7,0.4-2.6
					C161.4,52.4,161.7,53,161.7,53.6z"/>
			</g>
		</g>
	</g>
	<g>
		<path class="st3" d="M213.6,37.3h-0.9l-0.5-1.3h-3l-0.5,1.3h-0.9l2.4-6h0.9L213.6,37.3z M212,35.3l-1.3-3.2l-1.3,3.2H212z"/>
		<path class="st3" d="M215,37.3h-0.7v-6h0.7V37.3z"/>
		<path class="st3" d="M217.1,37.3h-0.7v-6h0.7v2.3c0.4-0.5,0.9-0.8,1.5-0.8c0.6,0,1,0.2,1.4,0.6s0.5,1,0.5,1.7
			c0,0.7-0.2,1.2-0.5,1.7c-0.4,0.4-0.8,0.6-1.4,0.6c-0.6,0-1.1-0.3-1.5-0.8V37.3z M217.1,36.1c0.1,0.2,0.3,0.4,0.5,0.5
			s0.5,0.2,0.8,0.2c0.4,0,0.8-0.2,1-0.5c0.3-0.3,0.4-0.7,0.4-1.2s-0.1-0.9-0.4-1.2c-0.3-0.3-0.6-0.5-1-0.5c-0.3,0-0.5,0.1-0.8,0.2
			s-0.4,0.3-0.5,0.5V36.1z"/>
		<path class="st3" d="M224.9,37.3h-0.7v-0.5c-0.4,0.4-0.8,0.6-1.4,0.6c-0.4,0-0.8-0.1-1.1-0.4c-0.3-0.3-0.5-0.6-0.5-1.1
			c0-0.5,0.2-0.8,0.5-1.1c0.3-0.2,0.7-0.4,1.1-0.4c0.6,0,1.1,0.2,1.4,0.6v-0.8c0-0.3-0.1-0.5-0.3-0.7s-0.5-0.2-0.8-0.2
			c-0.5,0-1,0.2-1.3,0.6l-0.3-0.5c0.5-0.5,1-0.7,1.7-0.7c0.5,0,0.9,0.1,1.2,0.4c0.3,0.2,0.5,0.6,0.5,1.1V37.3z M223.1,36.9
			c0.5,0,0.9-0.2,1.2-0.5v-0.8c-0.3-0.4-0.7-0.5-1.2-0.5c-0.3,0-0.6,0.1-0.8,0.3c-0.2,0.2-0.3,0.4-0.3,0.7c0,0.3,0.1,0.5,0.3,0.7
			C222.5,36.8,222.8,36.9,223.1,36.9z"/>
		<path class="st3" d="M229.9,37.3h-0.7v-2.8c0-0.4-0.1-0.6-0.3-0.8c-0.2-0.2-0.4-0.2-0.7-0.2c-0.3,0-0.5,0.1-0.7,0.2
			c-0.2,0.1-0.4,0.3-0.6,0.5v3.2h-0.7v-4.3h0.7v0.6c0.2-0.2,0.4-0.4,0.7-0.5c0.3-0.1,0.6-0.2,0.9-0.2c0.9,0,1.4,0.5,1.4,1.4V37.3z"
			/>
		<path class="st3" d="M231.6,32.3c-0.1,0-0.2,0-0.3-0.1c-0.1-0.1-0.1-0.2-0.1-0.3s0-0.2,0.1-0.3c0.1-0.1,0.2-0.1,0.3-0.1
			c0.1,0,0.2,0,0.3,0.1c0.1,0.1,0.1,0.2,0.1,0.3s0,0.2-0.1,0.3C231.8,32.3,231.7,32.3,231.6,32.3z M231.9,37.3h-0.7v-4.3h0.7V37.3z"
			/>
		<path class="st3" d="M236.7,37.3H236v-0.5c-0.4,0.4-0.8,0.6-1.4,0.6c-0.4,0-0.8-0.1-1.1-0.4c-0.3-0.3-0.5-0.6-0.5-1.1
			c0-0.5,0.2-0.8,0.5-1.1c0.3-0.2,0.7-0.4,1.1-0.4c0.6,0,1.1,0.2,1.4,0.6v-0.8c0-0.3-0.1-0.5-0.3-0.7c-0.2-0.2-0.5-0.2-0.8-0.2
			c-0.5,0-1,0.2-1.3,0.6l-0.3-0.5c0.5-0.5,1-0.7,1.7-0.7c0.5,0,0.9,0.1,1.2,0.4s0.5,0.6,0.5,1.1V37.3z M234.8,36.9
			c0.5,0,0.9-0.2,1.2-0.5v-0.8c-0.3-0.4-0.7-0.5-1.2-0.5c-0.3,0-0.6,0.1-0.8,0.3c-0.2,0.2-0.3,0.4-0.3,0.7c0,0.3,0.1,0.5,0.3,0.7
			C234.2,36.8,234.5,36.9,234.8,36.9z"/>
	</g>
	<g>
		<path class="st3" d="M212.4,64.7h-3.9v-6h3.9v0.7h-3.2v1.9h3.1V62h-3.1V64h3.2V64.7z"/>
		<path class="st3" d="M214.2,64.7h-0.7v-4.3h0.7V61c0.4-0.5,0.9-0.8,1.4-0.8v0.7c-0.1,0-0.2,0-0.3,0c-0.2,0-0.4,0.1-0.7,0.2
			c-0.2,0.1-0.4,0.3-0.5,0.5V64.7z"/>
		<path class="st3" d="M216.9,59.7c-0.1,0-0.2,0-0.3-0.1s-0.1-0.2-0.1-0.3s0-0.2,0.1-0.3s0.2-0.1,0.3-0.1c0.1,0,0.2,0,0.3,0.1
			s0.1,0.2,0.1,0.3s0,0.2-0.1,0.3S217,59.7,216.9,59.7z M217.2,64.7h-0.7v-4.3h0.7V64.7z"/>
		<path class="st3" d="M219.6,64.8c-0.3,0-0.6-0.1-0.7-0.3s-0.2-0.4-0.2-0.8v-2.8H218v-0.6h0.7v-1.2h0.7v1.2h0.9v0.6h-0.9v2.7
			c0,0.2,0,0.3,0.1,0.4c0.1,0.1,0.2,0.2,0.3,0.2c0.2,0,0.4-0.1,0.5-0.2l0.2,0.5C220.3,64.7,220,64.8,219.6,64.8z"/>
		<path class="st3" d="M221.9,64.7h-0.7v-4.3h0.7V61c0.4-0.5,0.9-0.8,1.4-0.8v0.7c-0.1,0-0.2,0-0.3,0c-0.2,0-0.4,0.1-0.7,0.2
			c-0.2,0.1-0.4,0.3-0.5,0.5V64.7z"/>
		<path class="st3" d="M226.1,64.8c-0.6,0-1.2-0.2-1.6-0.6c-0.4-0.4-0.6-1-0.6-1.7c0-0.6,0.2-1.2,0.6-1.6c0.4-0.4,0.9-0.7,1.5-0.7
			c0.6,0,1.2,0.2,1.5,0.7c0.4,0.4,0.6,1,0.6,1.7v0.2h-3.5c0,0.4,0.2,0.8,0.5,1.1c0.3,0.3,0.6,0.4,1.1,0.4c0.5,0,1-0.2,1.3-0.5
			l0.3,0.4C227.4,64.6,226.8,64.8,226.1,64.8z M227.5,62.2c0-0.4-0.1-0.7-0.4-1c-0.2-0.3-0.6-0.4-1.1-0.4c-0.4,0-0.8,0.1-1,0.4
			c-0.2,0.3-0.4,0.6-0.4,1H227.5z"/>
		<path class="st3" d="M232.6,64.7H232v-0.5c-0.4,0.4-0.8,0.6-1.4,0.6c-0.4,0-0.8-0.1-1.1-0.4c-0.3-0.3-0.5-0.6-0.5-1.1
			c0-0.5,0.2-0.8,0.5-1.1c0.3-0.2,0.7-0.4,1.1-0.4c0.6,0,1.1,0.2,1.4,0.6v-0.8c0-0.3-0.1-0.5-0.3-0.7s-0.5-0.2-0.8-0.2
			c-0.5,0-1,0.2-1.3,0.6l-0.3-0.5c0.5-0.5,1-0.7,1.7-0.7c0.5,0,0.9,0.1,1.2,0.4c0.3,0.2,0.5,0.6,0.5,1.1V64.7z M230.8,64.3
			c0.5,0,0.9-0.2,1.2-0.5V63c-0.3-0.4-0.7-0.5-1.2-0.5c-0.3,0-0.6,0.1-0.8,0.3s-0.3,0.4-0.3,0.7c0,0.3,0.1,0.5,0.3,0.7
			S230.4,64.3,230.8,64.3z"/>
	</g>
	<g>
		<path class="st3" d="M210.4,94.5c-1,0-1.7-0.3-2.3-1l0.4-0.6c0.5,0.6,1.1,0.9,1.9,0.9c0.5,0,0.8-0.1,1.1-0.3
			c0.2-0.2,0.3-0.4,0.3-0.7c0-0.2-0.1-0.4-0.2-0.5c-0.1-0.1-0.3-0.3-0.5-0.3s-0.4-0.2-0.7-0.2c-0.3-0.1-0.5-0.1-0.8-0.2
			s-0.5-0.2-0.7-0.3s-0.4-0.3-0.5-0.5c-0.1-0.2-0.2-0.5-0.2-0.7c0-0.5,0.2-0.9,0.6-1.2c0.4-0.3,0.9-0.5,1.5-0.5
			c0.9,0,1.6,0.3,2.1,0.8l-0.5,0.5c-0.4-0.5-1-0.7-1.7-0.7c-0.4,0-0.7,0.1-0.9,0.3c-0.2,0.2-0.3,0.4-0.3,0.7c0,0.2,0.1,0.4,0.3,0.5
			c0.2,0.1,0.4,0.2,0.7,0.3c0.3,0.1,0.5,0.1,0.9,0.2c0.3,0.1,0.6,0.2,0.9,0.3c0.3,0.1,0.5,0.3,0.7,0.5c0.2,0.2,0.3,0.5,0.3,0.9
			c0,0.5-0.2,0.9-0.5,1.3C211.7,94.3,211.2,94.5,210.4,94.5z"/>
		<path class="st3" d="M215.7,94.5c-0.6,0-1.2-0.2-1.6-0.6c-0.4-0.4-0.6-1-0.6-1.7c0-0.6,0.2-1.2,0.6-1.6c0.4-0.4,0.9-0.7,1.5-0.7
			c0.6,0,1.2,0.2,1.5,0.7c0.4,0.4,0.6,1,0.6,1.7v0.2h-3.5c0,0.4,0.2,0.8,0.5,1.1c0.3,0.3,0.6,0.4,1.1,0.4c0.5,0,1-0.2,1.3-0.5
			l0.3,0.4C217,94.3,216.4,94.5,215.7,94.5z M217,92c0-0.4-0.1-0.7-0.4-1c-0.2-0.3-0.6-0.4-1.1-0.4c-0.4,0-0.8,0.1-1,0.4
			c-0.2,0.3-0.4,0.6-0.4,1H217z"/>
		<path class="st3" d="M219.5,94.4h-0.7v-4.3h0.7v0.7c0.4-0.5,0.9-0.8,1.4-0.8v0.7c-0.1,0-0.2,0-0.3,0c-0.2,0-0.4,0.1-0.7,0.2
			c-0.2,0.1-0.4,0.3-0.5,0.5V94.4z"/>
		<path class="st3" d="M222.4,94.4h-0.7v-6h0.7v2.3c0.4-0.5,0.9-0.8,1.5-0.8c0.6,0,1,0.2,1.4,0.6c0.4,0.4,0.5,1,0.5,1.7
			c0,0.7-0.2,1.2-0.5,1.7s-0.8,0.6-1.4,0.6c-0.6,0-1.1-0.3-1.5-0.8V94.4z M222.4,93.2c0.1,0.2,0.3,0.4,0.5,0.5
			c0.2,0.1,0.5,0.2,0.8,0.2c0.4,0,0.8-0.2,1-0.5c0.3-0.3,0.4-0.7,0.4-1.2s-0.1-0.9-0.4-1.2c-0.3-0.3-0.6-0.5-1-0.5
			c-0.3,0-0.5,0.1-0.8,0.2c-0.2,0.1-0.4,0.3-0.5,0.5V93.2z"/>
		<path class="st3" d="M227.3,89.4c-0.1,0-0.2,0-0.3-0.1s-0.1-0.2-0.1-0.3s0-0.2,0.1-0.3s0.2-0.1,0.3-0.1c0.1,0,0.2,0,0.3,0.1
			s0.1,0.2,0.1,0.3s0,0.2-0.1,0.3S227.4,89.4,227.3,89.4z M227.6,94.4h-0.7v-4.3h0.7V94.4z"/>
		<path class="st3" d="M232.3,94.4h-0.7v-0.5c-0.4,0.4-0.8,0.6-1.4,0.6c-0.4,0-0.8-0.1-1.1-0.4c-0.3-0.3-0.5-0.6-0.5-1.1
			c0-0.5,0.2-0.8,0.5-1.1s0.7-0.4,1.1-0.4c0.6,0,1.1,0.2,1.4,0.6v-0.8c0-0.3-0.1-0.5-0.3-0.7s-0.5-0.2-0.8-0.2c-0.5,0-1,0.2-1.3,0.6
			l-0.3-0.5c0.5-0.5,1-0.7,1.7-0.7c0.5,0,0.9,0.1,1.2,0.4c0.3,0.2,0.5,0.6,0.5,1.1V94.4z M230.5,94c0.5,0,0.9-0.2,1.2-0.5v-0.8
			c-0.3-0.4-0.7-0.5-1.2-0.5c-0.3,0-0.6,0.1-0.8,0.3c-0.2,0.2-0.3,0.4-0.3,0.7c0,0.3,0.1,0.5,0.3,0.7C229.9,93.9,230.2,94,230.5,94z
			"/>
	</g>
	<g>
		<path class="st3" d="M213,125.3h-0.9l-2.3-2.7l-0.6,0.7v2h-0.7v-6h0.7v3.1l2.7-3.1h0.9l-2.5,2.9L213,125.3z"/>
		<path class="st3" d="M217,124.8c-0.4,0.4-0.9,0.7-1.6,0.7c-0.6,0-1.2-0.2-1.6-0.7c-0.4-0.4-0.6-1-0.6-1.6c0-0.6,0.2-1.2,0.6-1.6
			c0.4-0.4,0.9-0.7,1.6-0.7c0.6,0,1.2,0.2,1.6,0.7c0.4,0.4,0.6,1,0.6,1.6C217.6,123.8,217.4,124.3,217,124.8z M214.4,124.3
			c0.3,0.3,0.6,0.5,1.1,0.5s0.8-0.2,1.1-0.5s0.4-0.7,0.4-1.2c0-0.5-0.1-0.9-0.4-1.2s-0.6-0.5-1.1-0.5s-0.8,0.2-1.1,0.5
			c-0.3,0.3-0.4,0.7-0.4,1.2C214,123.6,214.1,124,214.4,124.3z"/>
		<path class="st3" d="M220.1,125.4c-0.7,0-1.3-0.2-1.8-0.7l0.4-0.5c0.2,0.2,0.4,0.3,0.6,0.4c0.3,0.1,0.5,0.2,0.8,0.2
			c0.3,0,0.6-0.1,0.8-0.2c0.2-0.1,0.3-0.3,0.3-0.5c0-0.2-0.1-0.3-0.3-0.5s-0.4-0.2-0.7-0.3c-0.3-0.1-0.5-0.1-0.8-0.2
			c-0.3-0.1-0.5-0.2-0.7-0.4c-0.2-0.2-0.3-0.4-0.3-0.7c0-0.4,0.1-0.7,0.4-0.9c0.3-0.2,0.7-0.4,1.2-0.4c0.7,0,1.2,0.2,1.6,0.6
			l-0.3,0.5c-0.3-0.4-0.7-0.5-1.3-0.5c-0.3,0-0.5,0.1-0.7,0.2s-0.3,0.3-0.3,0.5c0,0.2,0.1,0.3,0.3,0.4c0.2,0.1,0.4,0.2,0.7,0.2
			c0.3,0.1,0.5,0.1,0.8,0.2s0.5,0.2,0.7,0.4s0.3,0.4,0.3,0.8c0,0.4-0.2,0.7-0.5,0.9C221,125.3,220.6,125.4,220.1,125.4z"/>
		<path class="st3" d="M226.3,124.8c-0.4,0.4-0.9,0.7-1.6,0.7s-1.2-0.2-1.6-0.7c-0.4-0.4-0.6-1-0.6-1.6c0-0.6,0.2-1.2,0.6-1.6
			c0.4-0.4,0.9-0.7,1.6-0.7s1.2,0.2,1.6,0.7c0.4,0.4,0.6,1,0.6,1.6C226.9,123.8,226.7,124.3,226.3,124.8z M223.7,124.3
			c0.3,0.3,0.6,0.5,1.1,0.5c0.4,0,0.8-0.2,1.1-0.5s0.4-0.7,0.4-1.2c0-0.5-0.1-0.9-0.4-1.2s-0.6-0.5-1.1-0.5c-0.4,0-0.8,0.2-1.1,0.5
			s-0.4,0.7-0.4,1.2C223.3,123.6,223.5,124,223.7,124.3z"/>
		<path class="st3" d="M229.9,125.3h-0.7l-1.8-4.3h0.7l1.4,3.6l1.4-3.6h0.7L229.9,125.3z"/>
		<path class="st3" d="M235.9,124.8c-0.4,0.4-0.9,0.7-1.6,0.7c-0.6,0-1.2-0.2-1.6-0.7c-0.4-0.4-0.6-1-0.6-1.6c0-0.6,0.2-1.2,0.6-1.6
			c0.4-0.4,0.9-0.7,1.6-0.7c0.6,0,1.2,0.2,1.6,0.7c0.4,0.4,0.6,1,0.6,1.6C236.5,123.8,236.3,124.3,235.9,124.8z M233.3,124.3
			c0.3,0.3,0.6,0.5,1.1,0.5s0.8-0.2,1.1-0.5s0.4-0.7,0.4-1.2c0-0.5-0.1-0.9-0.4-1.2s-0.6-0.5-1.1-0.5s-0.8,0.2-1.1,0.5
			c-0.3,0.3-0.4,0.7-0.4,1.2C232.9,123.6,233,124,233.3,124.3z"/>
	</g>
	<g>
		<path class="st3" d="M42.4,35.5c-1,0-1.7-0.3-2.3-1l0.4-0.6c0.5,0.6,1.1,0.9,1.9,0.9c0.5,0,0.8-0.1,1.1-0.3
			c0.2-0.2,0.3-0.4,0.3-0.7c0-0.2-0.1-0.4-0.2-0.5c-0.1-0.1-0.3-0.3-0.5-0.3s-0.4-0.2-0.7-0.2c-0.3-0.1-0.5-0.1-0.8-0.2
			c-0.3-0.1-0.5-0.2-0.7-0.3c-0.2-0.1-0.4-0.3-0.5-0.5s-0.2-0.5-0.2-0.7c0-0.5,0.2-0.9,0.6-1.2c0.4-0.3,0.9-0.5,1.5-0.5
			c0.9,0,1.6,0.3,2.1,0.8l-0.5,0.5c-0.4-0.5-1-0.7-1.7-0.7c-0.4,0-0.7,0.1-0.9,0.3c-0.2,0.2-0.3,0.4-0.3,0.7c0,0.2,0.1,0.4,0.3,0.5
			c0.2,0.1,0.4,0.2,0.7,0.3c0.3,0.1,0.5,0.1,0.9,0.2c0.3,0.1,0.6,0.2,0.9,0.3c0.3,0.1,0.5,0.3,0.7,0.5c0.2,0.2,0.3,0.5,0.3,0.9
			c0,0.5-0.2,0.9-0.5,1.3C43.7,35.3,43.2,35.5,42.4,35.5z"/>
		<path class="st3" d="M49.2,34.8c-0.4,0.4-0.9,0.7-1.6,0.7c-0.6,0-1.2-0.2-1.6-0.7c-0.4-0.4-0.6-1-0.6-1.6s0.2-1.2,0.6-1.6
			c0.4-0.4,0.9-0.7,1.6-0.7c0.6,0,1.2,0.2,1.6,0.7c0.4,0.4,0.6,1,0.6,1.6S49.6,34.4,49.2,34.8z M46.6,34.4c0.3,0.3,0.6,0.5,1.1,0.5
			s0.8-0.2,1.1-0.5s0.4-0.7,0.4-1.2s-0.1-0.9-0.4-1.2c-0.3-0.3-0.6-0.5-1.1-0.5s-0.8,0.2-1.1,0.5c-0.3,0.3-0.4,0.7-0.4,1.2
			C46.2,33.7,46.3,34.1,46.6,34.4z"/>
		<path class="st3" d="M56.8,35.4h-0.7v-3c0-0.6-0.3-0.9-0.8-0.9c-0.2,0-0.4,0.1-0.6,0.2c-0.2,0.1-0.4,0.3-0.5,0.5v3.2h-0.7v-3
			c0-0.6-0.3-0.9-0.8-0.9c-0.2,0-0.4,0.1-0.6,0.2c-0.2,0.1-0.4,0.3-0.5,0.5v3.2h-0.7V31h0.7v0.6c0.1-0.2,0.3-0.3,0.6-0.5
			c0.3-0.2,0.5-0.2,0.8-0.2c0.3,0,0.6,0.1,0.8,0.2c0.2,0.1,0.3,0.3,0.4,0.6c0.1-0.2,0.3-0.4,0.6-0.6s0.6-0.2,0.9-0.2
			c0.8,0,1.2,0.4,1.2,1.3V35.4z"/>
		<path class="st3" d="M61.5,35.4h-0.7v-0.5c-0.4,0.4-0.8,0.6-1.4,0.6c-0.4,0-0.8-0.1-1.1-0.4c-0.3-0.3-0.5-0.6-0.5-1.1
			c0-0.5,0.2-0.8,0.5-1.1c0.3-0.2,0.7-0.4,1.1-0.4c0.6,0,1.1,0.2,1.4,0.6v-0.8c0-0.3-0.1-0.5-0.3-0.7s-0.5-0.2-0.8-0.2
			c-0.5,0-1,0.2-1.3,0.6l-0.3-0.5c0.5-0.5,1-0.7,1.7-0.7c0.5,0,0.9,0.1,1.2,0.4c0.3,0.2,0.5,0.6,0.5,1.1V35.4z M59.7,35
			c0.5,0,0.9-0.2,1.2-0.5v-0.8c-0.3-0.4-0.7-0.5-1.2-0.5c-0.3,0-0.6,0.1-0.8,0.3c-0.2,0.2-0.3,0.4-0.3,0.7c0,0.3,0.1,0.5,0.3,0.7
			C59.1,34.9,59.4,35,59.7,35z"/>
		<path class="st3" d="M63.6,35.4h-0.7v-6h0.7V35.4z"/>
		<path class="st3" d="M65.2,30.4c-0.1,0-0.2,0-0.3-0.1c-0.1-0.1-0.1-0.2-0.1-0.3s0-0.2,0.1-0.3c0.1-0.1,0.2-0.1,0.3-0.1
			c0.1,0,0.2,0,0.3,0.1c0.1,0.1,0.1,0.2,0.1,0.3s0,0.2-0.1,0.3C65.5,30.4,65.4,30.4,65.2,30.4z M65.6,35.4h-0.7V31h0.7V35.4z"/>
		<path class="st3" d="M70.3,35.4h-0.7v-0.5c-0.4,0.4-0.8,0.6-1.4,0.6c-0.4,0-0.8-0.1-1.1-0.4c-0.3-0.3-0.5-0.6-0.5-1.1
			c0-0.5,0.2-0.8,0.5-1.1c0.3-0.2,0.7-0.4,1.1-0.4c0.6,0,1.1,0.2,1.4,0.6v-0.8c0-0.3-0.1-0.5-0.3-0.7s-0.5-0.2-0.8-0.2
			c-0.5,0-1,0.2-1.3,0.6l-0.3-0.5c0.5-0.5,1-0.7,1.7-0.7c0.5,0,0.9,0.1,1.2,0.4c0.3,0.2,0.5,0.6,0.5,1.1V35.4z M68.5,35
			c0.5,0,0.9-0.2,1.2-0.5v-0.8c-0.3-0.4-0.7-0.5-1.2-0.5c-0.3,0-0.6,0.1-0.8,0.3c-0.2,0.2-0.3,0.4-0.3,0.7c0,0.3,0.1,0.5,0.3,0.7
			C67.9,34.9,68.1,35,68.5,35z"/>
	</g>
	<g>
		<path class="st3" d="M143.8,17.2H143v-6h0.7V17.2z"/>
		<path class="st3" d="M145.8,17.2h-0.7v-4.3h0.7v0.7c0.4-0.5,0.9-0.8,1.4-0.8v0.7c-0.1,0-0.2,0-0.3,0c-0.2,0-0.4,0.1-0.7,0.2
			c-0.2,0.1-0.4,0.3-0.5,0.5V17.2z"/>
		<path class="st3" d="M151.5,17.2h-0.7v-0.5c-0.4,0.4-0.8,0.6-1.4,0.6c-0.4,0-0.8-0.1-1.1-0.4c-0.3-0.3-0.5-0.6-0.5-1.1
			c0-0.5,0.2-0.8,0.5-1.1c0.3-0.2,0.7-0.4,1.1-0.4c0.6,0,1.1,0.2,1.4,0.6v-0.8c0-0.3-0.1-0.5-0.3-0.7s-0.5-0.2-0.8-0.2
			c-0.5,0-1,0.2-1.3,0.6l-0.3-0.5c0.5-0.5,1-0.7,1.7-0.7c0.5,0,0.9,0.1,1.2,0.4c0.3,0.2,0.5,0.6,0.5,1.1V17.2z M149.6,16.8
			c0.5,0,0.9-0.2,1.2-0.5v-0.8c-0.3-0.4-0.7-0.5-1.2-0.5c-0.3,0-0.6,0.1-0.8,0.3s-0.3,0.4-0.3,0.7c0,0.3,0.1,0.5,0.3,0.7
			S149.3,16.8,149.6,16.8z"/>
		<path class="st3" d="M154.5,17.3c-0.6,0-1-0.2-1.4-0.6c-0.4-0.4-0.5-1-0.5-1.7c0-0.7,0.2-1.2,0.5-1.7s0.8-0.6,1.4-0.6
			c0.3,0,0.6,0.1,0.8,0.2s0.5,0.3,0.6,0.5v-0.6h0.7v6H156v-2.3C155.6,17.1,155.1,17.3,154.5,17.3z M154.7,16.7
			c0.3,0,0.5-0.1,0.8-0.2c0.2-0.1,0.4-0.3,0.5-0.5v-2c-0.1-0.2-0.3-0.4-0.5-0.5c-0.2-0.1-0.5-0.2-0.8-0.2c-0.4,0-0.8,0.2-1,0.5
			c-0.2,0.3-0.4,0.7-0.4,1.2c0,0.5,0.1,0.9,0.4,1.2S154.2,16.7,154.7,16.7z"/>
	</g>
	<g>
		<path class="st3" d="M54.3,150.4c-1,0-1.7-0.3-2.3-1l0.4-0.6c0.5,0.6,1.1,0.9,1.9,0.9c0.5,0,0.8-0.1,1.1-0.3s0.3-0.4,0.3-0.7
			c0-0.2-0.1-0.4-0.2-0.5c-0.1-0.1-0.3-0.3-0.5-0.3s-0.4-0.2-0.7-0.2s-0.5-0.1-0.8-0.2c-0.3-0.1-0.5-0.2-0.7-0.3
			c-0.2-0.1-0.4-0.3-0.5-0.5c-0.1-0.2-0.2-0.5-0.2-0.7c0-0.5,0.2-0.9,0.6-1.2c0.4-0.3,0.9-0.5,1.5-0.5c0.9,0,1.6,0.3,2.1,0.8
			l-0.5,0.5c-0.4-0.5-1-0.7-1.7-0.7c-0.4,0-0.7,0.1-0.9,0.3s-0.3,0.4-0.3,0.7c0,0.2,0.1,0.4,0.3,0.5c0.2,0.1,0.4,0.2,0.7,0.3
			c0.3,0.1,0.5,0.1,0.9,0.2c0.3,0.1,0.6,0.2,0.9,0.3s0.5,0.3,0.7,0.5c0.2,0.2,0.3,0.5,0.3,0.9c0,0.5-0.2,0.9-0.5,1.3
			C55.6,150.3,55,150.4,54.3,150.4z"/>
		<path class="st3" d="M57.3,152l0.1-0.6c0.1,0,0.2,0.1,0.4,0.1c0.2,0,0.3,0,0.4-0.1c0.1-0.1,0.2-0.2,0.3-0.4l0.3-0.7l-1.8-4.4h0.7
			l1.4,3.6l1.4-3.6h0.7l-2.2,5.2c-0.2,0.6-0.7,0.9-1.3,0.9C57.6,152.1,57.4,152.1,57.3,152z"/>
		<path class="st3" d="M62.6,150.3h-0.7V146h0.7v0.7c0.4-0.5,0.9-0.8,1.4-0.8v0.7c-0.1,0-0.2,0-0.3,0c-0.2,0-0.4,0.1-0.7,0.2
			c-0.2,0.1-0.4,0.3-0.5,0.5V150.3z"/>
		<path class="st3" d="M65.2,145.4c-0.1,0-0.2,0-0.3-0.1c-0.1-0.1-0.1-0.2-0.1-0.3s0-0.2,0.1-0.3c0.1-0.1,0.2-0.1,0.3-0.1
			c0.1,0,0.2,0,0.3,0.1c0.1,0.1,0.1,0.2,0.1,0.3s0,0.2-0.1,0.3C65.5,145.3,65.4,145.4,65.2,145.4z M65.6,150.3h-0.7V146h0.7V150.3z"
			/>
		<path class="st3" d="M70.3,150.3h-0.7v-0.5c-0.4,0.4-0.8,0.6-1.4,0.6c-0.4,0-0.8-0.1-1.1-0.4c-0.3-0.3-0.5-0.6-0.5-1.1
			c0-0.5,0.2-0.8,0.5-1.1c0.3-0.2,0.7-0.4,1.1-0.4c0.6,0,1.1,0.2,1.4,0.6v-0.8c0-0.3-0.1-0.5-0.3-0.7s-0.5-0.2-0.8-0.2
			c-0.5,0-1,0.2-1.3,0.6l-0.3-0.5c0.5-0.5,1-0.7,1.7-0.7c0.5,0,0.9,0.1,1.2,0.4c0.3,0.2,0.5,0.6,0.5,1.1V150.3z M68.5,150
			c0.5,0,0.9-0.2,1.2-0.5v-0.8c-0.3-0.4-0.7-0.5-1.2-0.5c-0.3,0-0.6,0.1-0.8,0.3c-0.2,0.2-0.3,0.4-0.3,0.7c0,0.3,0.1,0.5,0.3,0.7
			C67.9,149.9,68.1,150,68.5,150z"/>
	</g>
	<g>
		<path class="st3" d="M30.1,64.2h-0.9l-0.5-1.3h-3l-0.5,1.3h-0.9l2.4-6h0.9L30.1,64.2z M28.5,62.2L27.2,59l-1.3,3.2H28.5z"/>
		<path class="st3" d="M31.6,64.2h-0.7v-3.8h-0.7v-0.6h0.7v-0.3c0-0.4,0.1-0.8,0.3-1c0.2-0.2,0.5-0.4,0.9-0.4c0.4,0,0.7,0.1,0.9,0.3
			l-0.3,0.4c-0.2-0.1-0.3-0.2-0.5-0.2c-0.2,0-0.4,0.1-0.5,0.2c-0.1,0.1-0.2,0.4-0.2,0.6v0.3h0.9v0.6h-0.9V64.2z"/>
		<path class="st3" d="M35,66c-0.4,0-0.7,0-1-0.1s-0.5-0.3-0.8-0.5l0.3-0.5c0.3,0.4,0.8,0.6,1.4,0.6c0.4,0,0.7-0.1,1-0.3
			c0.3-0.2,0.4-0.5,0.4-1v-0.6c-0.2,0.2-0.4,0.4-0.6,0.6c-0.3,0.1-0.5,0.2-0.8,0.2c-0.6,0-1-0.2-1.4-0.6S33,62.7,33,62
			c0-0.7,0.2-1.2,0.5-1.6c0.4-0.4,0.8-0.6,1.4-0.6c0.6,0,1.1,0.3,1.5,0.8v-0.7h0.7v4.2c0,0.7-0.2,1.1-0.6,1.4
			C36.1,65.8,35.6,66,35,66z M35.1,63.7c0.3,0,0.5-0.1,0.8-0.2c0.2-0.1,0.4-0.3,0.5-0.5v-1.9c-0.1-0.2-0.3-0.4-0.5-0.5
			c-0.2-0.1-0.5-0.2-0.8-0.2c-0.4,0-0.8,0.2-1,0.5c-0.2,0.3-0.4,0.7-0.4,1.2c0,0.5,0.1,0.9,0.4,1.2C34.4,63.5,34.7,63.7,35.1,63.7z"
			/>
		<path class="st3" d="M42.1,64.2h-0.7v-2.9c0-0.4-0.1-0.6-0.3-0.8c-0.2-0.2-0.4-0.2-0.7-0.2c-0.2,0-0.5,0.1-0.7,0.2
			s-0.4,0.3-0.6,0.5v3.2h-0.7v-6h0.7v2.3c0.2-0.2,0.4-0.4,0.7-0.5c0.3-0.1,0.6-0.2,0.9-0.2c0.9,0,1.4,0.5,1.4,1.4V64.2z"/>
		<path class="st3" d="M46.8,64.2h-0.7v-0.5c-0.4,0.4-0.8,0.6-1.4,0.6c-0.4,0-0.8-0.1-1.1-0.4c-0.3-0.3-0.5-0.6-0.5-1.1
			c0-0.5,0.2-0.8,0.5-1.1c0.3-0.2,0.7-0.4,1.1-0.4c0.6,0,1.1,0.2,1.4,0.6v-0.8c0-0.3-0.1-0.5-0.3-0.7c-0.2-0.2-0.5-0.2-0.8-0.2
			c-0.5,0-1,0.2-1.3,0.6l-0.3-0.5c0.5-0.5,1-0.7,1.7-0.7c0.5,0,0.9,0.1,1.2,0.4c0.3,0.2,0.5,0.6,0.5,1.1V64.2z M44.9,63.9
			c0.5,0,0.9-0.2,1.2-0.5v-0.8c-0.3-0.4-0.7-0.5-1.2-0.5c-0.3,0-0.6,0.1-0.8,0.3s-0.3,0.4-0.3,0.7c0,0.3,0.1,0.5,0.3,0.7
			S44.6,63.9,44.9,63.9z"/>
		<path class="st3" d="M51.8,64.2h-0.7v-2.8c0-0.4-0.1-0.6-0.3-0.8c-0.2-0.2-0.4-0.2-0.7-0.2c-0.3,0-0.5,0.1-0.7,0.2
			c-0.2,0.1-0.4,0.3-0.6,0.5v3.2h-0.7v-4.3h0.7v0.6c0.2-0.2,0.4-0.4,0.7-0.5c0.3-0.1,0.6-0.2,0.9-0.2c0.9,0,1.4,0.5,1.4,1.4V64.2z"
			/>
		<path class="st3" d="M53.5,59.3c-0.1,0-0.2,0-0.3-0.1S53,58.9,53,58.8s0-0.2,0.1-0.3s0.2-0.1,0.3-0.1c0.1,0,0.2,0,0.3,0.1
			s0.1,0.2,0.1,0.3s0,0.2-0.1,0.3S53.6,59.3,53.5,59.3z M53.8,64.2h-0.7v-4.3h0.7V64.2z"/>
		<path class="st3" d="M56.5,64.3c-0.7,0-1.3-0.2-1.8-0.7l0.4-0.5c0.1,0.2,0.4,0.3,0.6,0.4s0.5,0.2,0.8,0.2c0.3,0,0.6-0.1,0.8-0.2
			c0.2-0.1,0.3-0.3,0.3-0.5c0-0.2-0.1-0.3-0.3-0.5s-0.4-0.2-0.7-0.3c-0.3-0.1-0.5-0.1-0.8-0.2c-0.3-0.1-0.5-0.2-0.7-0.4
			c-0.2-0.2-0.3-0.4-0.3-0.7c0-0.4,0.1-0.7,0.4-0.9c0.3-0.2,0.7-0.4,1.2-0.4c0.7,0,1.2,0.2,1.6,0.6l-0.3,0.5
			c-0.3-0.4-0.7-0.5-1.3-0.5c-0.3,0-0.5,0.1-0.7,0.2s-0.3,0.3-0.3,0.5c0,0.2,0.1,0.3,0.3,0.4c0.2,0.1,0.4,0.2,0.7,0.2
			c0.3,0.1,0.5,0.1,0.8,0.2c0.3,0.1,0.5,0.2,0.7,0.4c0.2,0.2,0.3,0.4,0.3,0.8c0,0.4-0.2,0.7-0.4,0.9C57.5,64.2,57.1,64.3,56.5,64.3z
			"/>
		<path class="st3" d="M60.4,64.3c-0.3,0-0.6-0.1-0.7-0.3s-0.2-0.4-0.2-0.8v-2.8h-0.7v-0.6h0.7v-1.2h0.7v1.2H61v0.6h-0.9v2.7
			c0,0.2,0,0.3,0.1,0.4c0.1,0.1,0.2,0.2,0.3,0.2c0.2,0,0.4-0.1,0.5-0.2l0.2,0.5C61,64.2,60.8,64.3,60.4,64.3z"/>
		<path class="st3" d="M65.4,64.2h-0.7v-0.5c-0.4,0.4-0.8,0.6-1.4,0.6c-0.4,0-0.8-0.1-1.1-0.4c-0.3-0.3-0.5-0.6-0.5-1.1
			c0-0.5,0.2-0.8,0.5-1.1c0.3-0.2,0.7-0.4,1.1-0.4c0.6,0,1.1,0.2,1.4,0.6v-0.8c0-0.3-0.1-0.5-0.3-0.7s-0.5-0.2-0.8-0.2
			c-0.5,0-1,0.2-1.3,0.6L62,60.5c0.5-0.5,1-0.7,1.7-0.7c0.5,0,0.9,0.1,1.2,0.4c0.3,0.2,0.5,0.6,0.5,1.1V64.2z M63.5,63.9
			c0.5,0,0.9-0.2,1.2-0.5v-0.8C64.4,62.1,64,62,63.5,62c-0.3,0-0.6,0.1-0.8,0.3s-0.3,0.4-0.3,0.7c0,0.3,0.1,0.5,0.3,0.7
			S63.2,63.9,63.5,63.9z"/>
		<path class="st3" d="M70.3,64.2h-0.7v-2.8c0-0.4-0.1-0.6-0.3-0.8c-0.2-0.2-0.4-0.2-0.7-0.2c-0.3,0-0.5,0.1-0.7,0.2
			s-0.4,0.3-0.6,0.5v3.2h-0.7v-4.3h0.7v0.6c0.2-0.2,0.4-0.4,0.7-0.5c0.3-0.1,0.6-0.2,0.9-0.2c0.9,0,1.4,0.5,1.4,1.4V64.2z"/>
	</g>
	<g>
		<path class="st3" d="M57.6,94.4h-0.7v-6h0.7V94.4z"/>
		<path class="st3" d="M59.7,94.4H59v-4.3h0.7v0.7c0.4-0.5,0.9-0.8,1.4-0.8v0.7c-0.1,0-0.2,0-0.3,0c-0.2,0-0.4,0.1-0.7,0.2
			c-0.2,0.1-0.4,0.3-0.5,0.5V94.4z"/>
		<path class="st3" d="M65.4,94.4h-0.7v-0.5c-0.4,0.4-0.8,0.6-1.4,0.6c-0.4,0-0.8-0.1-1.1-0.4s-0.5-0.6-0.5-1.1
			c0-0.5,0.2-0.8,0.5-1.1s0.7-0.4,1.1-0.4c0.6,0,1.1,0.2,1.4,0.6v-0.8c0-0.3-0.1-0.5-0.3-0.7c-0.2-0.2-0.5-0.2-0.8-0.2
			c-0.5,0-1,0.2-1.3,0.6L62,90.7c0.5-0.5,1-0.7,1.7-0.7c0.5,0,0.9,0.1,1.2,0.4c0.3,0.2,0.5,0.6,0.5,1.1V94.4z M63.5,94
			c0.5,0,0.9-0.2,1.2-0.5v-0.8c-0.3-0.4-0.7-0.5-1.2-0.5c-0.3,0-0.6,0.1-0.8,0.3c-0.2,0.2-0.3,0.4-0.3,0.7c0,0.3,0.1,0.5,0.3,0.7
			C62.9,93.9,63.2,94,63.5,94z"/>
		<path class="st3" d="M70.3,94.4h-0.7v-2.8c0-0.4-0.1-0.6-0.3-0.8c-0.2-0.2-0.4-0.2-0.7-0.2c-0.3,0-0.5,0.1-0.7,0.2
			c-0.2,0.1-0.4,0.3-0.6,0.5v3.2h-0.7v-4.3h0.7v0.6c0.2-0.2,0.4-0.4,0.7-0.5c0.3-0.1,0.6-0.2,0.9-0.2c0.9,0,1.4,0.5,1.4,1.4V94.4z"
			/>
	</g>
	<g>
		<path class="st3" d="M38,122.3c-1,0-1.7-0.3-2.3-1l0.4-0.6c0.5,0.6,1.1,0.9,1.9,0.9c0.5,0,0.8-0.1,1.1-0.3
			c0.2-0.2,0.3-0.4,0.3-0.7c0-0.2-0.1-0.4-0.2-0.5c-0.1-0.1-0.3-0.3-0.5-0.3s-0.4-0.2-0.7-0.2c-0.3-0.1-0.5-0.1-0.8-0.2
			c-0.3-0.1-0.5-0.2-0.7-0.3c-0.2-0.1-0.4-0.3-0.5-0.5s-0.2-0.5-0.2-0.7c0-0.5,0.2-0.9,0.6-1.2c0.4-0.3,0.9-0.5,1.5-0.5
			c0.9,0,1.6,0.3,2.1,0.8l-0.5,0.5c-0.4-0.5-1-0.7-1.7-0.7c-0.4,0-0.7,0.1-0.9,0.3c-0.2,0.2-0.3,0.4-0.3,0.7c0,0.2,0.1,0.4,0.3,0.5
			c0.2,0.1,0.4,0.2,0.7,0.3c0.3,0.1,0.5,0.1,0.9,0.2c0.3,0.1,0.6,0.2,0.9,0.3c0.3,0.1,0.5,0.3,0.7,0.5c0.2,0.2,0.3,0.5,0.3,0.9
			c0,0.5-0.2,0.9-0.5,1.3C39.3,122.1,38.7,122.3,38,122.3z"/>
		<path class="st3" d="M42.2,122.3c-0.3,0-0.6-0.1-0.7-0.3c-0.2-0.2-0.2-0.4-0.2-0.8v-2.8h-0.7v-0.6h0.7v-1.2h0.7v1.2h0.9v0.6h-0.9
			v2.7c0,0.2,0,0.3,0.1,0.4c0.1,0.1,0.2,0.2,0.3,0.2c0.2,0,0.4-0.1,0.5-0.2L43,122C42.8,122.2,42.6,122.3,42.2,122.3z"/>
		<path class="st3" d="M47.2,122.2h-0.7v-0.5c-0.4,0.4-0.8,0.6-1.4,0.6c-0.4,0-0.8-0.1-1.1-0.4c-0.3-0.3-0.5-0.6-0.5-1.1
			c0-0.5,0.2-0.8,0.5-1.1c0.3-0.2,0.7-0.4,1.1-0.4c0.6,0,1.1,0.2,1.4,0.6v-0.8c0-0.3-0.1-0.5-0.3-0.7s-0.5-0.2-0.8-0.2
			c-0.5,0-1,0.2-1.3,0.6l-0.3-0.5c0.5-0.5,1-0.7,1.7-0.7c0.5,0,0.9,0.1,1.2,0.4c0.3,0.2,0.5,0.6,0.5,1.1V122.2z M45.3,121.8
			c0.5,0,0.9-0.2,1.2-0.5v-0.8c-0.3-0.4-0.7-0.5-1.2-0.5c-0.3,0-0.6,0.1-0.8,0.3c-0.2,0.2-0.3,0.4-0.3,0.7c0,0.3,0.1,0.5,0.3,0.7
			C44.7,121.7,45,121.8,45.3,121.8z"/>
		<path class="st3" d="M49.6,122.3c-0.3,0-0.6-0.1-0.7-0.3c-0.2-0.2-0.2-0.4-0.2-0.8v-2.8h-0.7v-0.6h0.7v-1.2h0.7v1.2h0.9v0.6h-0.9
			v2.7c0,0.2,0,0.3,0.1,0.4c0.1,0.1,0.2,0.2,0.3,0.2c0.2,0,0.4-0.1,0.5-0.2l0.2,0.5C50.2,122.2,49.9,122.3,49.6,122.3z"/>
		<path class="st3" d="M53.1,122.3c-0.6,0-1.2-0.2-1.6-0.6s-0.6-1-0.6-1.7c0-0.6,0.2-1.2,0.6-1.6c0.4-0.4,0.9-0.7,1.5-0.7
			c0.6,0,1.2,0.2,1.5,0.7c0.4,0.4,0.6,1,0.6,1.7v0.2h-3.5c0,0.4,0.2,0.8,0.5,1.1s0.6,0.4,1.1,0.4c0.5,0,1-0.2,1.3-0.5l0.3,0.4
			C54.4,122.1,53.8,122.3,53.1,122.3z M54.5,119.8c0-0.4-0.1-0.7-0.4-1s-0.6-0.4-1.1-0.4c-0.4,0-0.8,0.1-1,0.4
			c-0.2,0.3-0.4,0.6-0.4,1H54.5z"/>
		<path class="st3" d="M56.9,122.2h-0.7v-6h0.7V122.2z"/>
		<path class="st3" d="M60.2,122.3c-0.6,0-1.2-0.2-1.6-0.6s-0.6-1-0.6-1.7c0-0.6,0.2-1.2,0.6-1.6c0.4-0.4,0.9-0.7,1.5-0.7
			c0.6,0,1.2,0.2,1.5,0.7c0.4,0.4,0.6,1,0.6,1.7v0.2h-3.5c0,0.4,0.2,0.8,0.5,1.1s0.6,0.4,1.1,0.4c0.5,0,1-0.2,1.3-0.5l0.3,0.4
			C61.5,122.1,60.9,122.3,60.2,122.3z M61.6,119.8c0-0.4-0.1-0.7-0.4-1s-0.6-0.4-1.1-0.4c-0.4,0-0.8,0.1-1,0.4
			c-0.2,0.3-0.4,0.6-0.4,1H61.6z"/>
		<path class="st3" d="M64.7,122.3c-0.7,0-1.3-0.2-1.8-0.7l0.4-0.5c0.2,0.2,0.4,0.3,0.6,0.4c0.3,0.1,0.5,0.2,0.8,0.2
			c0.3,0,0.6-0.1,0.8-0.2c0.2-0.1,0.3-0.3,0.3-0.5c0-0.2-0.1-0.3-0.3-0.5c-0.2-0.1-0.4-0.2-0.7-0.3c-0.3-0.1-0.5-0.1-0.8-0.2
			c-0.3-0.1-0.5-0.2-0.7-0.4c-0.2-0.2-0.3-0.4-0.3-0.7c0-0.4,0.1-0.7,0.4-0.9s0.7-0.4,1.2-0.4c0.7,0,1.2,0.2,1.6,0.6l-0.3,0.5
			c-0.3-0.4-0.7-0.5-1.3-0.5c-0.3,0-0.5,0.1-0.7,0.2c-0.2,0.1-0.3,0.3-0.3,0.5c0,0.2,0.1,0.3,0.3,0.4c0.2,0.1,0.4,0.2,0.7,0.2
			s0.5,0.1,0.8,0.2s0.5,0.2,0.7,0.4c0.2,0.2,0.3,0.4,0.3,0.8c0,0.4-0.2,0.7-0.5,0.9C65.6,122.2,65.2,122.3,64.7,122.3z"/>
		<path class="st3" d="M68.9,122.3c-0.7,0-1.3-0.2-1.8-0.7l0.4-0.5c0.2,0.2,0.4,0.3,0.6,0.4c0.3,0.1,0.5,0.2,0.8,0.2
			c0.3,0,0.6-0.1,0.8-0.2c0.2-0.1,0.3-0.3,0.3-0.5c0-0.2-0.1-0.3-0.3-0.5c-0.2-0.1-0.4-0.2-0.7-0.3c-0.3-0.1-0.5-0.1-0.8-0.2
			c-0.3-0.1-0.5-0.2-0.7-0.4c-0.2-0.2-0.3-0.4-0.3-0.7c0-0.4,0.1-0.7,0.4-0.9s0.7-0.4,1.2-0.4c0.7,0,1.2,0.2,1.6,0.6l-0.3,0.5
			c-0.3-0.4-0.7-0.5-1.3-0.5c-0.3,0-0.5,0.1-0.7,0.2s-0.3,0.3-0.3,0.5c0,0.2,0.1,0.3,0.3,0.4c0.2,0.1,0.4,0.2,0.7,0.2
			c0.3,0.1,0.5,0.1,0.8,0.2s0.5,0.2,0.7,0.4c0.2,0.2,0.3,0.4,0.3,0.8c0,0.4-0.2,0.7-0.5,0.9C69.8,122.2,69.4,122.3,68.9,122.3z"/>
	</g>
	<g>
		<path class="st0" d="M210.9,49.1c-0.7,0-1.3-0.1-1.9-0.4c-0.5-0.2-1-0.6-1.3-1l0.8-1c0.3,0.3,0.6,0.6,1,0.7
			c0.4,0.2,0.8,0.3,1.3,0.3c0.5,0,1-0.1,1.3-0.3c0.3-0.2,0.5-0.5,0.5-0.9c0-0.8-0.6-1.2-1.8-1.2c-0.6,0-0.9,0-1,0v-1.3
			c0.1,0,0.4,0,1,0c0.5,0,0.9-0.1,1.2-0.3c0.3-0.2,0.5-0.5,0.5-0.8c0-0.4-0.2-0.7-0.5-0.9c-0.3-0.2-0.7-0.3-1.2-0.3
			c-0.8,0-1.5,0.3-2.1,0.9l-0.8-0.9c0.7-0.9,1.8-1.3,3-1.3c0.9,0,1.6,0.2,2.2,0.6c0.5,0.4,0.8,1,0.8,1.6c0,0.5-0.2,0.9-0.5,1.3
			c-0.4,0.3-0.8,0.5-1.3,0.6c0.5,0,0.9,0.2,1.3,0.6c0.4,0.4,0.6,0.8,0.6,1.4c0,0.7-0.3,1.3-0.9,1.8
			C212.6,48.9,211.8,49.1,210.9,49.1z"/>
		<path class="st0" d="M218.5,49.1c-0.6,0-1.1-0.1-1.6-0.3c-0.5-0.2-0.8-0.5-1.1-0.9s-0.5-0.9-0.6-1.4c-0.1-0.5-0.2-1.1-0.2-1.7
			c0-1.3,0.3-2.3,1-3.1c0.6-0.8,1.5-1.2,2.7-1.2c1,0,1.8,0.3,2.4,0.9l-0.7,1.1c-0.5-0.5-1-0.7-1.7-0.7c-0.7,0-1.2,0.3-1.6,0.8
			c-0.4,0.5-0.6,1.2-0.6,1.9c0,0.1,0,0.2,0,0.2c0.2-0.3,0.5-0.6,0.9-0.8s0.8-0.3,1.3-0.3c0.8,0,1.5,0.2,2,0.7c0.5,0.5,0.8,1.1,0.8,2
			c0,0.8-0.3,1.5-0.9,2C220.2,48.9,219.5,49.1,218.5,49.1z M218.5,47.8c0.5,0,0.9-0.1,1.2-0.4c0.3-0.3,0.5-0.6,0.5-1
			c0-0.5-0.2-0.9-0.5-1.1s-0.7-0.4-1.2-0.4c-0.4,0-0.7,0.1-1,0.3c-0.3,0.2-0.6,0.4-0.8,0.7c0,0.5,0.2,1,0.5,1.4
			C217.4,47.6,217.9,47.8,218.5,47.8z"/>
		<path class="st0" d="M227.5,48.8c-0.4,0.2-0.9,0.4-1.5,0.4c-0.6,0-1.1-0.1-1.5-0.4c-0.4-0.2-0.8-0.6-1.1-1
			c-0.3-0.4-0.5-0.9-0.6-1.4c-0.1-0.5-0.2-1-0.2-1.6c0-0.5,0.1-1.1,0.2-1.6c0.1-0.5,0.3-1,0.6-1.4s0.6-0.7,1.1-1
			c0.4-0.2,0.9-0.4,1.5-0.4c0.6,0,1.1,0.1,1.5,0.4c0.4,0.2,0.8,0.6,1,1c0.3,0.4,0.5,0.9,0.6,1.4s0.2,1,0.2,1.6
			c0,0.5-0.1,1.1-0.2,1.6s-0.3,1-0.6,1.4C228.2,48.2,227.9,48.5,227.5,48.8z M224.6,47c0.3,0.6,0.8,0.9,1.4,0.9
			c0.6,0,1.1-0.3,1.4-0.9c0.3-0.6,0.5-1.3,0.5-2.2c0-0.6-0.1-1.1-0.2-1.5c-0.1-0.4-0.3-0.8-0.6-1.1c-0.3-0.3-0.6-0.4-1.1-0.4
			c-0.4,0-0.8,0.1-1.1,0.4s-0.5,0.6-0.6,1.1c-0.1,0.4-0.2,0.9-0.2,1.5C224.1,45.7,224.3,46.4,224.6,47z"/>
	</g>
	<g>
		<path class="st0" d="M213.4,78.3c-0.6,0.4-1.4,0.6-2.3,0.6c-0.9,0-1.7-0.2-2.3-0.6c-0.6-0.4-0.9-1-0.9-1.7c0-0.5,0.2-0.9,0.5-1.3
			c0.4-0.4,0.8-0.7,1.3-0.8c-0.5-0.2-0.9-0.4-1.3-0.7s-0.5-0.7-0.5-1.2c0-0.4,0.1-0.7,0.3-1c0.2-0.3,0.4-0.5,0.7-0.7
			c0.3-0.2,0.6-0.3,1-0.4c0.4-0.1,0.7-0.1,1.1-0.1c0.4,0,0.8,0,1.1,0.1s0.7,0.2,1,0.4c0.3,0.2,0.5,0.4,0.7,0.7
			c0.2,0.3,0.3,0.6,0.3,1c0,0.9-0.6,1.6-1.8,2c0.5,0.2,1,0.5,1.3,0.8c0.4,0.4,0.5,0.8,0.5,1.3C214.3,77.3,214,77.9,213.4,78.3z
			 M211.1,77.6c0.5,0,0.9-0.1,1.2-0.3s0.5-0.5,0.5-0.9c0-0.4-0.2-0.7-0.6-0.9c-0.4-0.2-0.8-0.4-1.1-0.4c-0.2,0-0.4,0.1-0.7,0.2
			c-0.2,0.1-0.5,0.2-0.7,0.4c-0.2,0.2-0.3,0.4-0.3,0.7c0,0.4,0.2,0.6,0.5,0.9C210.2,77.5,210.7,77.6,211.1,77.6z M211.1,73.9
			c0.2,0,0.4-0.1,0.6-0.2c0.2-0.1,0.4-0.2,0.6-0.4c0.2-0.2,0.3-0.4,0.3-0.6c0-0.3-0.1-0.6-0.4-0.8c-0.3-0.2-0.7-0.3-1.1-0.3
			c-0.5,0-0.8,0.1-1.1,0.3s-0.4,0.5-0.4,0.8c0,0.2,0.1,0.5,0.3,0.6c0.2,0.2,0.4,0.3,0.6,0.4C210.7,73.8,210.9,73.8,211.1,73.9z"/>
		<path class="st0" d="M218.7,78.7h-1.5v-6.4l-1.4,1.4l-0.9-0.9l2.4-2.4h1.3V78.7z"/>
		<path class="st0" d="M223.4,78.9c-1.3,0-2.4-0.4-3.1-1.3l0.8-1c0.6,0.7,1.3,1,2.2,1c0.5,0,0.9-0.1,1.2-0.4s0.5-0.6,0.5-1
			c0-0.5-0.2-0.8-0.5-1.1c-0.3-0.3-0.7-0.4-1.2-0.4c-0.7,0-1.3,0.2-1.8,0.7l-1-0.3v-4.7h5.5v1.3h-4v2.4c0.5-0.5,1.1-0.7,1.9-0.7
			c0.7,0,1.4,0.2,1.9,0.7c0.5,0.5,0.8,1.1,0.8,2c0,0.9-0.3,1.5-0.9,2.1C225.1,78.6,224.3,78.9,223.4,78.9z"/>
	</g>
	<g>
		<path class="st0" d="M211.2,107.3c-1.3,0-2.4-0.4-3.1-1.3l0.8-1c0.6,0.7,1.3,1,2.2,1c0.5,0,0.9-0.1,1.2-0.4c0.3-0.3,0.5-0.6,0.5-1
			c0-0.5-0.2-0.8-0.5-1.1c-0.3-0.3-0.7-0.4-1.2-0.4c-0.7,0-1.3,0.2-1.8,0.7l-1-0.3v-4.7h5.5v1.3h-4v2.4c0.5-0.5,1.1-0.7,1.9-0.7
			c0.7,0,1.4,0.2,1.9,0.7c0.5,0.5,0.8,1.1,0.8,2c0,0.9-0.3,1.5-0.9,2.1S212.2,107.3,211.2,107.3z"/>
		<path class="st0" d="M220.3,106.9c-0.4,0.2-0.9,0.4-1.5,0.4c-0.6,0-1.1-0.1-1.5-0.4c-0.4-0.2-0.8-0.6-1.1-1
			c-0.3-0.4-0.5-0.9-0.6-1.4c-0.1-0.5-0.2-1-0.2-1.6c0-0.5,0.1-1.1,0.2-1.6c0.1-0.5,0.3-1,0.6-1.4c0.3-0.4,0.6-0.7,1.1-1
			c0.4-0.2,0.9-0.4,1.5-0.4c0.6,0,1.1,0.1,1.5,0.4c0.4,0.2,0.8,0.6,1,1c0.3,0.4,0.5,0.9,0.6,1.4s0.2,1,0.2,1.6
			c0,0.5-0.1,1.1-0.2,1.6s-0.3,1-0.6,1.4C221.1,106.3,220.7,106.6,220.3,106.9z M217.4,105.1c0.3,0.6,0.8,0.8,1.4,0.8
			c0.6,0,1.1-0.3,1.4-0.8s0.5-1.3,0.5-2.2c0-0.6-0.1-1.1-0.2-1.5c-0.1-0.4-0.3-0.8-0.6-1.1c-0.3-0.3-0.6-0.4-1.1-0.4
			c-0.4,0-0.8,0.1-1.1,0.4s-0.5,0.6-0.6,1.1c-0.1,0.4-0.2,0.9-0.2,1.5C216.9,103.8,217.1,104.5,217.4,105.1z"/>
	</g>
	<g>
		<path class="st0" d="M46,163.8h-6v-1.2c1.7-1.3,2.9-2.3,3.6-2.9c0.6-0.6,0.9-1.2,0.9-1.8c0-0.4-0.1-0.7-0.4-0.9
			c-0.3-0.2-0.7-0.3-1.1-0.3c-0.9,0-1.7,0.3-2.2,1l-0.8-1c0.4-0.4,0.8-0.8,1.4-1c0.5-0.2,1.1-0.3,1.7-0.3c0.9,0,1.6,0.2,2.2,0.7
			c0.6,0.5,0.9,1.1,0.9,1.9c0,0.7-0.3,1.4-0.9,2.1c-0.6,0.7-1.5,1.5-2.8,2.5H46V163.8z"/>
		<path class="st0" d="M49.3,163.3c0,0.4-0.1,0.8-0.3,1.2c-0.2,0.4-0.5,0.7-0.9,0.9l-0.6-0.5c0.2-0.1,0.4-0.3,0.6-0.5
			c0.2-0.2,0.3-0.4,0.3-0.6c-0.1,0-0.1,0-0.2,0c-0.2,0-0.4-0.1-0.5-0.2c-0.1-0.1-0.2-0.3-0.2-0.6s0.1-0.4,0.2-0.6
			c0.2-0.2,0.4-0.3,0.6-0.3c0.3,0,0.5,0.1,0.7,0.3C49.2,162.7,49.3,162.9,49.3,163.3z"/>
		<path class="st0" d="M55.6,163.8h-1.5v-1.9h-4v-1.2l3.4-5.3h2v5.2h1.1v1.3h-1.1V163.8z M54.2,160.6v-3.9l-2.5,3.9H54.2z"/>
		<path class="st0" d="M60.2,163.8h-1.6l3.2-7h-4.3v-1.3h6v1L60.2,163.8z"/>
		<path class="st0" d="M67.6,163.9c-1.3,0-2.4-0.4-3.1-1.3l0.8-1c0.6,0.7,1.3,1,2.2,1c0.5,0,0.9-0.1,1.2-0.4c0.3-0.3,0.5-0.6,0.5-1
			c0-0.5-0.2-0.8-0.5-1.1c-0.3-0.3-0.7-0.4-1.2-0.4c-0.7,0-1.3,0.2-1.8,0.7l-1-0.3v-4.7h5.5v1.3h-4v2.4c0.5-0.5,1.1-0.7,1.9-0.7
			c0.7,0,1.4,0.2,1.9,0.7c0.5,0.5,0.8,1.1,0.8,2c0,0.9-0.3,1.5-0.9,2.1C69.3,163.7,68.5,163.9,67.6,163.9z"/>
	</g>
	<g>
		<path class="st0" d="M55.1,134c-1.3,0-2.4-0.4-3.1-1.3l0.8-1c0.6,0.7,1.3,1,2.2,1c0.5,0,0.9-0.1,1.2-0.4s0.5-0.6,0.5-1
			c0-0.5-0.2-0.8-0.5-1.1c-0.3-0.3-0.7-0.4-1.2-0.4c-0.7,0-1.3,0.2-1.8,0.7l-1-0.3v-4.7h5.5v1.3h-4v2.4c0.5-0.5,1.1-0.7,1.9-0.7
			c0.7,0,1.4,0.2,1.9,0.7c0.5,0.5,0.8,1.1,0.8,2c0,0.9-0.3,1.5-0.9,2.1C56.8,133.7,56,134,55.1,134z"/>
		<path class="st0" d="M62.7,133.8h-1.5v-6.4l-1.4,1.4l-0.8-0.9l2.4-2.4h1.3V133.8z"/>
		<path class="st0" d="M68.9,133.6c-0.4,0.2-0.9,0.4-1.5,0.4s-1.1-0.1-1.5-0.4s-0.8-0.6-1.1-1c-0.3-0.4-0.5-0.9-0.6-1.4
			s-0.2-1-0.2-1.6c0-0.5,0.1-1.1,0.2-1.6s0.3-1,0.6-1.4c0.3-0.4,0.6-0.7,1.1-1s0.9-0.4,1.5-0.4s1.1,0.1,1.5,0.4s0.8,0.6,1,1
			s0.5,0.9,0.6,1.4c0.1,0.5,0.2,1,0.2,1.6c0,0.5-0.1,1.1-0.2,1.6c-0.1,0.5-0.3,1-0.6,1.4C69.7,133,69.3,133.4,68.9,133.6z M66,131.8
			c0.3,0.6,0.8,0.8,1.4,0.8s1.1-0.3,1.4-0.8c0.3-0.6,0.4-1.3,0.4-2.2c0-0.6-0.1-1.1-0.2-1.5c-0.1-0.4-0.3-0.8-0.6-1.1
			c-0.3-0.3-0.6-0.4-1.1-0.4s-0.8,0.1-1.1,0.4c-0.3,0.3-0.5,0.6-0.6,1.1c-0.1,0.4-0.2,0.9-0.2,1.5C65.6,130.6,65.7,131.3,66,131.8z"
			/>
	</g>
	<g>
		<path class="st0" d="M60,106.3h-1.6l3.2-7h-4.3v-1.3h6v1L60,106.3z"/>
		<path class="st0" d="M68.9,106c-0.4,0.2-0.9,0.4-1.5,0.4c-0.6,0-1.1-0.1-1.5-0.4c-0.4-0.2-0.8-0.6-1.1-1s-0.5-0.9-0.6-1.4
			c-0.1-0.5-0.2-1-0.2-1.6s0.1-1.1,0.2-1.6c0.1-0.5,0.3-1,0.6-1.4c0.3-0.4,0.6-0.7,1.1-1c0.4-0.2,0.9-0.4,1.5-0.4
			c0.6,0,1.1,0.1,1.5,0.4c0.4,0.2,0.8,0.6,1,1c0.3,0.4,0.5,0.9,0.6,1.4s0.2,1,0.2,1.6s-0.1,1.1-0.2,1.6s-0.3,1-0.6,1.4
			C69.7,105.5,69.3,105.8,68.9,106z M66,104.3c0.3,0.6,0.8,0.9,1.4,0.9c0.6,0,1.1-0.3,1.4-0.9c0.3-0.6,0.5-1.3,0.5-2.2
			c0-0.6-0.1-1.1-0.2-1.5c-0.1-0.4-0.3-0.8-0.6-1.1c-0.3-0.3-0.6-0.4-1.1-0.4c-0.4,0-0.8,0.1-1.1,0.4c-0.3,0.3-0.5,0.6-0.6,1.1
			c-0.1,0.4-0.2,0.9-0.2,1.5C65.6,103,65.7,103.7,66,104.3z"/>
	</g>
	<g>
		<path class="st0" d="M48.7,76.7h-1.5v-6.4l-1.4,1.4L45,70.8l2.4-2.4h1.3V76.7z"/>
		<path class="st0" d="M52,76.3c0,0.4-0.1,0.8-0.3,1.2c-0.2,0.4-0.5,0.7-0.9,0.9l-0.6-0.5c0.2-0.1,0.4-0.3,0.6-0.5
			c0.2-0.2,0.3-0.4,0.3-0.6c-0.1,0-0.1,0-0.2,0c-0.2,0-0.4-0.1-0.5-0.2c-0.1-0.1-0.2-0.3-0.2-0.6s0.1-0.4,0.2-0.6s0.4-0.3,0.6-0.3
			c0.3,0,0.5,0.1,0.7,0.3C51.9,75.6,52,75.9,52,76.3z"/>
		<path class="st0" d="M55.4,76.7h-1.5v-6.4l-1.4,1.4l-0.8-0.9l2.4-2.4h1.3V76.7z"/>
		<path class="st0" d="M59.6,76.9c-1,0-1.8-0.3-2.4-0.9l0.7-1.1c0.5,0.5,1,0.7,1.7,0.7c0.7,0,1.3-0.3,1.6-0.8
			c0.4-0.5,0.6-1.2,0.6-1.9v-0.2c-0.2,0.3-0.5,0.6-0.9,0.8c-0.4,0.2-0.8,0.4-1.3,0.4c-0.8,0-1.5-0.2-2-0.7c-0.5-0.5-0.8-1.1-0.8-2
			c0-0.8,0.3-1.5,0.9-2c0.6-0.5,1.3-0.8,2.2-0.8c0.8,0,1.4,0.2,2,0.6s0.9,0.9,1.1,1.5c0.2,0.6,0.3,1.3,0.3,2.2c0,1.2-0.3,2.3-1,3.1
			S60.7,76.9,59.6,76.9z M59.9,72.5c0.4,0,0.7-0.1,1-0.3c0.3-0.2,0.6-0.4,0.8-0.7c0-0.5-0.2-1-0.5-1.4c-0.3-0.4-0.8-0.6-1.3-0.6
			c-0.5,0-0.9,0.1-1.2,0.4c-0.3,0.3-0.5,0.6-0.5,1c0,0.5,0.2,0.9,0.5,1.1C59,72.4,59.4,72.5,59.9,72.5z"/>
		<path class="st0" d="M67.6,76.9c-1.3,0-2.4-0.4-3.1-1.3l0.8-1c0.6,0.7,1.3,1,2.2,1c0.5,0,0.9-0.1,1.2-0.4c0.3-0.3,0.5-0.6,0.5-1
			c0-0.5-0.2-0.8-0.5-1.1c-0.3-0.3-0.7-0.4-1.2-0.4c-0.7,0-1.3,0.2-1.8,0.7l-1-0.3v-4.7h5.5v1.3h-4v2.4c0.5-0.5,1.1-0.7,1.9-0.7
			c0.7,0,1.4,0.2,1.9,0.7c0.5,0.5,0.8,1.1,0.8,2c0,0.9-0.3,1.5-0.9,2.1C69.3,76.6,68.5,76.9,67.6,76.9z"/>
	</g>
	<g>
		<path class="st0" d="M52.5,47.6c-0.7,0-1.3-0.1-1.9-0.4c-0.5-0.2-1-0.6-1.3-1l0.8-1c0.3,0.3,0.6,0.6,1,0.7
			c0.4,0.2,0.8,0.3,1.3,0.3c0.5,0,1-0.1,1.3-0.3c0.3-0.2,0.5-0.5,0.5-0.9c0-0.8-0.6-1.2-1.8-1.2c-0.6,0-0.9,0-1,0v-1.3
			c0.1,0,0.4,0,1,0c0.5,0,0.9-0.1,1.2-0.3s0.5-0.5,0.5-0.8c0-0.4-0.2-0.7-0.5-0.9c-0.3-0.2-0.7-0.3-1.2-0.3c-0.8,0-1.5,0.3-2.1,0.9
			l-0.8-0.9c0.7-0.9,1.8-1.3,3-1.3c0.9,0,1.6,0.2,2.2,0.6c0.5,0.4,0.8,1,0.8,1.6c0,0.5-0.2,0.9-0.5,1.3c-0.4,0.3-0.8,0.5-1.3,0.6
			c0.5,0,0.9,0.2,1.3,0.6c0.4,0.4,0.6,0.8,0.6,1.4c0,0.7-0.3,1.3-0.9,1.8C54.2,47.4,53.5,47.6,52.5,47.6z"/>
		<path class="st0" d="M60.1,47.6c-1.3,0-2.4-0.4-3.1-1.3l0.8-1c0.6,0.7,1.3,1,2.2,1c0.5,0,0.9-0.1,1.2-0.4s0.5-0.6,0.5-1
			c0-0.5-0.2-0.8-0.5-1.1c-0.3-0.3-0.7-0.4-1.2-0.4c-0.7,0-1.3,0.2-1.8,0.7l-1-0.3v-4.7h5.5v1.3h-4v2.4c0.5-0.5,1.1-0.7,1.9-0.7
			c0.7,0,1.4,0.2,1.9,0.7c0.5,0.5,0.8,1.1,0.8,2c0,0.9-0.3,1.5-0.9,2.1C61.8,47.4,61,47.6,60.1,47.6z"/>
		<path class="st0" d="M67.6,47.6c-1.3,0-2.4-0.4-3.1-1.3l0.8-1c0.6,0.7,1.3,1,2.2,1c0.5,0,0.9-0.1,1.2-0.4s0.5-0.6,0.5-1
			c0-0.5-0.2-0.8-0.5-1.1c-0.3-0.3-0.7-0.4-1.2-0.4c-0.7,0-1.3,0.2-1.8,0.7l-1-0.3v-4.7h5.5v1.3h-4v2.4c0.5-0.5,1.1-0.7,1.9-0.7
			c0.7,0,1.4,0.2,1.9,0.7c0.5,0.5,0.8,1.1,0.8,2c0,0.9-0.3,1.5-0.9,2.1C69.3,47.4,68.5,47.6,67.6,47.6z"/>
	</g>
	<g>
		<path class="st0" d="M142,29.8c-0.7,0-1.3-0.1-1.9-0.4c-0.5-0.2-1-0.6-1.3-1l0.8-1c0.3,0.3,0.6,0.6,1,0.7c0.4,0.2,0.8,0.3,1.3,0.3
			c0.5,0,1-0.1,1.3-0.3c0.3-0.2,0.5-0.5,0.5-0.9c0-0.8-0.6-1.2-1.8-1.2c-0.6,0-0.9,0-1,0v-1.3c0.1,0,0.4,0,1,0
			c0.5,0,0.9-0.1,1.2-0.3s0.5-0.5,0.5-0.8c0-0.4-0.2-0.7-0.5-0.9c-0.3-0.2-0.7-0.3-1.2-0.3c-0.8,0-1.5,0.3-2.1,0.9l-0.8-0.9
			c0.7-0.9,1.8-1.3,3-1.3c0.9,0,1.6,0.2,2.2,0.6c0.5,0.4,0.8,1,0.8,1.6c0,0.5-0.2,0.9-0.5,1.3c-0.4,0.3-0.8,0.5-1.3,0.6
			c0.5,0,0.9,0.2,1.3,0.6c0.4,0.4,0.6,0.8,0.6,1.4c0,0.7-0.3,1.3-0.9,1.8C143.7,29.6,142.9,29.8,142,29.8z"/>
		<path class="st0" d="M151.1,29.4c-0.4,0.2-0.9,0.4-1.5,0.4s-1.1-0.1-1.5-0.4s-0.8-0.6-1-1s-0.5-0.9-0.6-1.4
			c-0.1-0.5-0.2-1-0.2-1.6s0.1-1.1,0.2-1.6c0.1-0.5,0.3-1,0.6-1.4c0.3-0.4,0.6-0.7,1-1s0.9-0.4,1.5-0.4s1.1,0.1,1.5,0.4
			s0.8,0.6,1.1,1c0.3,0.4,0.5,0.9,0.6,1.4s0.2,1,0.2,1.6s-0.1,1.1-0.2,1.6s-0.3,1-0.6,1.4C151.8,28.8,151.5,29.2,151.1,29.4z
			 M148.2,27.6c0.3,0.6,0.8,0.9,1.4,0.9c0.6,0,1.1-0.3,1.4-0.9c0.3-0.6,0.5-1.3,0.5-2.2c0-0.6-0.1-1.1-0.2-1.5
			c-0.1-0.4-0.3-0.8-0.6-1.1c-0.3-0.3-0.6-0.4-1.1-0.4s-0.8,0.1-1.1,0.4c-0.3,0.3-0.5,0.6-0.6,1.1c-0.1,0.4-0.2,0.9-0.2,1.5
			C147.7,26.4,147.9,27.1,148.2,27.6z"/>
		<path class="st0" d="M158.8,29.4c-0.4,0.2-0.9,0.4-1.5,0.4c-0.6,0-1.1-0.1-1.5-0.4c-0.4-0.2-0.8-0.6-1.1-1s-0.5-0.9-0.6-1.4
			c-0.1-0.5-0.2-1-0.2-1.6s0.1-1.1,0.2-1.6c0.1-0.5,0.3-1,0.6-1.4c0.3-0.4,0.6-0.7,1.1-1c0.4-0.2,0.9-0.4,1.5-0.4
			c0.6,0,1.1,0.1,1.5,0.4c0.4,0.2,0.8,0.6,1,1c0.3,0.4,0.5,0.9,0.6,1.4s0.2,1,0.2,1.6s-0.1,1.1-0.2,1.6s-0.3,1-0.6,1.4
			C159.5,28.8,159.2,29.2,158.8,29.4z M155.9,27.6c0.3,0.6,0.8,0.9,1.4,0.9c0.6,0,1.1-0.3,1.4-0.9c0.3-0.6,0.5-1.3,0.5-2.2
			c0-0.6-0.1-1.1-0.2-1.5c-0.1-0.4-0.3-0.8-0.6-1.1c-0.3-0.3-0.6-0.4-1.1-0.4c-0.4,0-0.8,0.1-1.1,0.4c-0.3,0.3-0.5,0.6-0.6,1.1
			c-0.1,0.4-0.2,0.9-0.2,1.5C155.4,26.4,155.6,27.1,155.9,27.6z"/>
	</g>
	<g>
		<g>
			<path class="st4" d="M200.9,67.3c-11.3-2.7-32.2-8.7-44.4,1.6"/>
			<g>
				<path class="st2" d="M156.7,68.7c1.2,0.1,2.6,1.1,3.4,2c-1.9-0.4-3.9-0.5-5.8,0.1c0.9-1.7,1.1-3.8,1.1-5.7
					C156.1,66.1,156.8,67.4,156.7,68.7z"/>
			</g>
		</g>
	</g>
	<g>
		<g>
			<path class="st5" d="M202,96.1c-12.7,2.3-38.2-3.2-49.1-15.6"/>
			<g>
				<path class="st2" d="M152.9,80.5c0,0.1-0.1,0.2-0.1,0.2c0-0.1,0-0.2,0-0.4c0.1,0.1,0.2,0.1,0.4,0.1
					C153,80.4,153,80.5,152.9,80.5z"/>
			</g>
		</g>
	</g>
	<g>
		<g>
			<path class="st6" d="M78.5,151.8c13.2,0.6,34.8-1.7,46.8-15.9"/>
			<g>
				<path class="st2" d="M124.9,136.4c-2.2,0.3-5.1-0.9-6.8-2.2c3.6,0,7.2-0.7,10.3-2.5c-0.9,3.5-0.4,7.2,0.5,10.6
					C127.1,140.8,125.3,138.7,124.9,136.4z"/>
			</g>
		</g>
	</g>
	<g>
		<g>
			<path class="st7" d="M199.9,129.2c-20.5,4.7-38.5,9.6-57.5-5.8"/>
			<g>
				<path class="st2" d="M142.4,123.5c0,0.1-0.1,0.3-0.1,0.3c0-0.2,0-0.4-0.1-0.5c0.2,0.1,0.4,0,0.5,0
					C142.6,123.4,142.5,123.5,142.4,123.5z"/>
			</g>
		</g>
	</g>
	<g>
		<g>
			<path class="st8" d="M78.5,34.7c18.3,0,56.6,3.7,68.7,34.2"/>
			<g>
				<path class="st2" d="M147.1,68.8c0.2-0.5,0.8-0.9,1.3-1.1c-0.4,0.7-0.8,1.6-0.8,2.4c-0.6-0.6-1.4-1-2.2-1.2
					C145.9,68.7,146.6,68.6,147.1,68.8z"/>
			</g>
		</g>
	</g>
	<g>
		<g>
			<path class="st9" d="M77.3,122.1c13,1.1,37,2.8,51-7.6"/>
			<g>
				<path class="st2" d="M128.2,114.5c-0.7-0.1-1.6-0.8-2-1.4c1.2,0.3,2.4,0.5,3.7,0.2c-0.6,1.1-0.8,2.3-0.9,3.6
					C128.5,116.2,128.1,115.3,128.2,114.5z"/>
			</g>
		</g>
	</g>
	<g>
		<g>
			<path class="st10" d="M76.7,66.5c14.4-4,43.9-8.3,63.5,8.7"/>
			<g>
				<path class="st2" d="M139.9,74.9c-0.1-1.2,0.7-2.8,1.5-3.7c-0.2,2,0.1,4.1,1,5.9c-1.9-0.7-4-0.5-6-0.2
					C137.4,76,138.6,75.1,139.9,74.9z"/>
			</g>
		</g>
	</g>
	<g>
		<g>
			<path class="st11" d="M76.7,96.1C87,87.8,112.3,77.8,136,83.7"/>
			<g>
				<path class="st2" d="M136,83.7c-0.1-0.1-0.1-0.2,0-0.3c0.1,0.2,0.2,0.3,0.3,0.4c-0.2,0-0.3,0.1-0.5,0.2
					C135.8,83.9,135.9,83.8,136,83.7z"/>
			</g>
		</g>
	</g>
	<g>
		<g>
			<line class="st12" x1="149.8" y1="31.3" x2="149.8" y2="57.8"/>
			<g>
				<path class="st2" d="M149.8,57.6c0.3-0.3,0.9-0.5,1.4-0.5c-0.6,0.4-1.1,1-1.4,1.7c-0.3-0.7-0.8-1.2-1.4-1.7
					C148.9,57.2,149.5,57.3,149.8,57.6z"/>
			</g>
		</g>
	</g>
	<g>
		<path class="st0" d="M210.5,139.1h-1.6l3.2-7h-4.3v-1.3h6v1L210.5,139.1z"/>
		<path class="st0" d="M217.9,139.3c-1.3,0-2.4-0.4-3.1-1.3l0.8-1c0.6,0.7,1.3,1,2.2,1c0.5,0,0.9-0.1,1.2-0.4s0.5-0.6,0.5-1
			c0-0.5-0.2-0.8-0.5-1.1c-0.3-0.3-0.7-0.4-1.2-0.4c-0.7,0-1.3,0.2-1.8,0.7l-1-0.3v-4.7h5.5v1.3h-4v2.4c0.5-0.5,1.1-0.7,1.9-0.7
			c0.7,0,1.4,0.2,1.9,0.7c0.5,0.5,0.8,1.1,0.8,2c0,0.9-0.3,1.5-0.9,2.1C219.6,139,218.8,139.3,217.9,139.3z"/>
	</g>
</g>
</svg>
